<?xml version="1.0" encoding="UTF-8" standalone="no"?>
<svg xmlns="http://www.w3.org/2000/svg" version="1.2" baseProfile="tiny" viewBox="0.00 0.00 512.00 451.00" width="512.00" height="451.00">
<path fill="#bac2ed" d="
  M 310.16 9.61
  L 303.00 17.76
  A 3.76 3.58 1.4 0 1 302.37 18.33
  L 293.85 24.30
  A 0.84 0.84 0.0 0 0 294.21 25.82
  Q 295.19 25.95 295.96 26.51
  Q 299.88 29.35 302.95 32.97
  A 3.07 2.97 84.0 0 0 303.74 33.63
  Q 306.52 35.25 307.47 38.21
  L 297.82 42.83
  Q 294.88 40.84 288.94 39.36
  Q 284.09 38.15 279.68 39.06
  A 1.55 1.54 -16.4 0 0 278.55 41.13
  L 278.68 41.46
  A 2.28 2.28 0.0 0 0 281.22 42.88
  C 285.55 41.89 285.78 47.05 290.17 46.56
  L 282.56 50.63
  A 4.30 4.15 -64.4 0 1 281.38 51.07
  Q 275.01 52.42 268.84 56.49
  A 2.71 2.25 -80.1 0 0 268.36 56.90
  L 266.36 59.04
  A 1.15 1.10 18.8 0 1 265.61 59.39
  Q 263.88 59.48 263.18 61.13
  A 1.29 1.28 -88.3 0 1 262.43 61.84
  Q 259.90 62.76 258.61 64.05
  A 0.68 0.66 30.9 0 1 257.91 64.21
  Q 257.33 64.02 256.65 64.46
  Q 255.19 65.38 253.92 66.28
  A 1.66 1.66 0.0 0 1 252.76 66.59
  Q 251.06 66.40 249.47 67.03
  Q 240.08 70.73 231.34 75.84
  Q 231.36 75.35 231.35 75.14
  Q 231.34 74.49 230.48 74.69
  Q 224.44 76.12 218.73 77.52
  A 0.45 0.45 0.0 0 1 218.30 76.77
  C 221.04 73.89 226.23 72.58 229.30 71.32
  Q 230.54 70.81 232.98 67.67
  A 5.49 5.34 89.2 0 1 233.69 66.92
  Q 237.39 63.72 241.99 58.74
  Q 245.58 54.85 249.55 53.22
  A 0.72 0.72 0.0 0 0 249.37 51.84
  Q 248.64 51.75 248.63 51.40
  A 0.64 0.63 -28.7 0 1 248.75 51.00
  Q 250.84 48.12 251.93 47.41
  Q 256.61 44.32 261.73 39.69
  Q 264.76 36.95 267.00 35.63
  Q 267.57 35.30 272.97 32.64
  C 276.38 30.96 279.25 29.90 281.15 27.45
  A 3.72 3.72 0.0 0 1 281.71 26.89
  Q 286.94 22.79 287.54 21.80
  Q 288.51 20.20 291.03 18.54
  Q 291.78 18.05 291.16 17.26
  L 314.37 3.88
  A 0.32 0.32 0.0 0 1 314.77 4.37
  L 310.16 9.61
  Z
  M 263.05 45.02
  C 259.11 43.68 258.01 46.56 254.58 46.85
  A 1.51 1.47 19.9 0 0 253.63 47.28
  L 253.09 47.82
  A 1.27 1.26 30.4 0 0 253.64 49.93
  Q 257.25 50.94 260.12 50.31
  A 1.93 1.92 -73.4 0 0 261.07 49.79
  L 263.57 47.28
  A 1.37 1.36 -58.0 0 0 263.05 45.02
  Z"
/>
<path fill="#0e0c0e" d="
  M 502.52 221.72
  Q 502.50 223.46 504.18 225.05
  A 1.68 1.68 0.0 0 1 503.68 227.81
  L 497.92 230.28
  A 0.89 0.88 -14.2 0 1 496.69 229.55
  C 496.32 225.59 495.58 222.06 497.06 218.32
  A 0.21 0.21 0.0 0 0 496.74 218.07
  Q 494.45 219.59 493.96 221.05
  C 493.56 222.23 494.33 223.41 494.08 224.68
  Q 493.80 226.06 494.04 227.35
  C 494.36 229.11 494.92 233.96 493.97 235.71
  Q 493.29 236.95 493.27 237.15
  A 0.51 0.50 1.3 0 0 493.82 237.72
  Q 494.85 237.62 495.81 236.63
  A 0.79 0.78 -16.2 0 0 496.02 236.25
  L 496.87 232.83
  A 1.01 1.01 0.0 0 1 497.59 232.11
  Q 502.33 230.93 505.82 227.91
  L 507.71 229.47
  Q 505.61 229.45 504.73 230.94
  A 0.77 0.77 0.0 0 0 505.45 232.10
  Q 507.01 231.99 508.76 232.84
  C 503.02 240.05 496.59 243.67 487.77 249.47
  Q 484.48 251.64 478.64 256.02
  Q 474.12 259.41 469.39 262.41
  Q 449.75 275.78 431.45 290.66
  Q 417.58 299.66 404.96 310.15
  Q 397.56 315.77 390.26 321.77
  Q 384.89 326.18 363.07 342.01
  C 358.86 345.06 355.75 347.70 352.02 350.26
  Q 351.44 350.65 348.04 354.30
  Q 347.50 354.89 343.33 356.85
  A 7.85 7.51 -74.6 0 0 342.04 357.62
  C 337.56 360.90 333.07 363.81 329.05 366.92
  Q 318.84 374.81 304.48 385.47
  Q 303.54 386.17 298.32 391.15
  A 5.17 5.11 11.6 0 1 296.72 392.19
  L 293.80 393.37
  A 2.44 2.39 -78.5 0 0 292.99 393.92
  C 291.42 395.52 288.37 398.28 285.59 400.03
  Q 278.24 404.66 270.98 410.50
  Q 268.23 412.71 260.74 415.17
  L 246.97 392.37
  A 0.53 0.53 0.0 0 0 246.21 392.22
  L 243.12 394.44
  A 0.88 0.88 0.0 0 0 243.17 395.90
  Q 246.63 398.05 243.72 401.26
  Q 242.98 401.79 242.12 401.61
  A 1.12 1.08 80.5 0 1 241.38 401.06
  C 240.31 399.12 239.72 396.71 236.63 397.53
  L 235.01 393.76
  Q 234.50 389.70 238.61 388.50
  L 238.95 388.61
  Q 240.20 389.73 240.39 391.62
  Q 241.62 394.45 245.48 391.00
  A 1.04 1.03 -24.3 0 0 245.81 390.14
  Q 245.70 388.88 244.27 388.01
  Q 244.19 386.04 243.01 384.64
  Q 240.84 381.82 238.98 378.75
  Q 227.36 359.60 215.43 339.83
  Q 210.83 332.22 206.74 325.08
  C 202.45 317.58 197.63 310.46 193.40 302.84
  A 1.45 1.45 0.0 0 0 191.83 302.12
  L 191.79 302.13
  A 0.85 0.85 0.0 0 0 191.21 303.36
  Q 191.68 304.25 191.81 304.87
  A 0.92 0.92 0.0 0 1 190.05 305.39
  Q 189.60 304.28 187.89 303.67
  Q 181.58 292.80 174.32 282.21
  Q 172.94 280.20 171.68 275.61
  Q 171.40 274.73 170.29 274.45
  A 0.58 0.58 0.0 0 1 170.06 273.45
  Q 171.59 272.15 173.20 271.76
  L 173.13 274.03
  A 0.69 0.69 0.0 0 0 174.10 274.68
  Q 175.39 274.11 174.95 272.78
  Q 174.61 271.74 174.05 270.76
  Q 173.77 269.10 173.10 268.14
  C 169.53 262.97 166.15 256.45 163.24 251.84
  Q 157.31 242.46 155.72 238.93
  C 154.75 236.78 153.15 235.25 152.07 233.12
  Q 151.11 231.23 149.49 228.74
  Q 140.96 215.57 132.88 201.60
  Q 136.23 201.69 137.18 199.45
  A 0.96 0.96 0.0 0 0 137.02 198.45
  Q 133.10 194.05 131.04 188.99
  A 2.23 2.21 -74.4 0 0 130.75 188.47
  L 126.99 183.24
  A 0.68 0.68 0.0 0 0 125.85 183.31
  Q 125.42 184.09 125.90 185.07
  A 0.35 0.34 -79.6 0 1 125.34 185.46
  Q 122.33 182.20 118.86 176.22
  A 0.71 0.71 0.0 0 1 119.39 175.16
  Q 119.50 175.15 120.50 175.26
  Q 121.97 175.41 122.21 174.55
  A 0.63 0.63 0.0 0 1 122.87 174.08
  Q 124.14 174.17 124.40 174.30
  A 1.06 0.94 -82.2 0 0 125.73 173.16
  Q 125.63 172.23 125.30 171.78
  A 1.49 1.34 -42.5 0 0 123.13 171.80
  Q 121.98 173.03 120.54 171.53
  A 1.17 1.16 23.2 0 1 120.21 170.72
  L 120.21 169.73
  A 2.31 2.30 25.2 0 0 119.68 168.26
  L 116.13 164.01
  A 1.80 1.29 17.2 0 1 115.94 163.76
  L 112.00 157.45
  C 110.99 155.51 109.55 153.38 109.78 151.08
  Q 110.11 147.70 106.29 147.06
  A 1.70 1.68 6.3 0 0 104.32 148.62
  Q 104.26 149.87 105.73 150.00
  L 105.34 149.98
  A 0.53 0.52 6.7 0 0 104.79 150.41
  L 104.69 150.95
  Q 104.28 149.10 102.48 147.55
  A 1.12 1.11 53.9 0 1 102.77 145.68
  L 104.22 145.06
  A 0.79 0.78 48.3 0 0 104.30 143.66
  L 102.79 142.79
  A 0.60 0.59 -68.4 0 1 102.51 142.13
  L 103.54 137.97
  A 0.82 0.82 0.0 0 1 105.13 137.97
  Q 105.37 139.06 107.66 139.15
  Q 116.26 152.10 123.70 165.61
  Q 126.92 171.46 130.43 176.55
  Q 136.10 184.74 140.66 194.04
  C 143.34 199.51 145.70 202.61 149.03 207.54
  A 0.58 0.58 0.0 0 1 148.84 208.37
  Q 148.09 208.79 147.20 208.62
  A 0.80 0.80 0.0 0 0 146.34 209.80
  Q 146.91 210.80 152.25 219.96
  Q 154.10 223.13 156.51 225.66
  C 156.97 226.14 157.07 226.96 157.33 227.34
  A 0.79 0.78 -25.2 0 0 158.20 227.65
  Q 159.30 227.31 160.03 227.51
  A 1.32 1.32 0.0 0 1 160.85 228.19
  Q 161.63 229.74 165.00 233.94
  Q 166.82 236.22 168.74 239.82
  Q 171.79 245.55 175.91 251.61
  A 1.77 1.65 27.1 0 1 176.20 252.41
  Q 176.32 253.68 175.15 253.82
  A 0.78 0.77 46.3 0 0 175.12 255.35
  C 176.69 255.63 177.95 256.36 178.77 257.99
  Q 180.09 260.59 183.62 264.44
  A 3.11 2.31 -89.8 0 1 183.93 264.86
  L 193.97 282.10
  A 0.80 0.80 0.0 0 1 193.44 283.29
  Q 192.34 283.50 192.02 284.47
  A 1.09 0.97 4.0 0 0 193.24 285.73
  Q 194.29 285.58 195.05 285.91
  A 0.63 0.63 0.0 0 1 195.14 287.01
  Q 192.64 288.64 189.51 288.97
  C 187.85 289.59 188.40 292.22 190.52 291.93
  Q 191.15 291.61 191.52 291.68
  Q 192.17 291.81 191.72 292.48
  Q 191.37 293.01 191.14 293.71
  A 0.74 0.73 24.2 0 0 191.47 294.57
  L 195.22 296.74
  A 0.38 0.37 16.6 0 0 195.78 296.44
  Q 195.84 295.43 195.36 294.74
  Q 194.45 293.48 194.53 293.22
  Q 194.90 292.03 195.38 291.64
  A 0.64 0.63 -20.5 0 0 195.60 291.16
  L 195.60 290.01
  A 1.01 1.01 0.0 0 1 197.28 289.26
  Q 198.99 290.79 199.66 291.84
  Q 202.75 296.68 209.50 308.53
  Q 210.65 310.54 210.71 310.72
  Q 211.13 312.01 209.85 312.80
  A 0.45 0.44 -57.5 0 0 210.03 313.62
  Q 210.44 313.66 210.67 313.53
  A 0.82 0.82 0.0 0 1 211.64 313.65
  Q 213.33 315.28 213.39 315.52
  Q 213.66 316.45 217.83 322.43
  Q 220.07 325.63 228.20 339.71
  A 1.39 1.36 -50.6 0 1 228.30 340.87
  Q 228.03 341.61 227.11 342.19
  A 0.90 0.90 0.0 0 0 227.37 343.82
  L 230.12 344.50
  A 0.84 0.81 80.5 0 1 230.63 344.88
  Q 231.82 346.84 233.66 348.34
  A 0.44 0.44 0.0 0 0 234.38 347.98
  Q 234.33 346.84 233.60 345.66
  C 226.54 334.29 221.55 325.06 214.42 313.96
  C 212.98 311.71 211.90 308.67 210.50 306.50
  Q 200.67 291.22 193.14 278.02
  C 187.89 268.81 181.95 259.73 177.78 252.55
  Q 170.99 240.84 160.18 222.97
  C 144.28 196.70 133.56 178.19 117.57 151.47
  C 115.89 148.66 114.55 145.53 113.41 143.61
  C 111.94 141.11 112.19 138.47 113.20 136.49
  Q 113.64 135.63 117.85 131.63
  A 3.75 3.70 -77.0 0 1 119.11 130.83
  Q 122.52 129.54 126.29 126.21
  A 0.37 0.35 46.1 0 1 126.79 126.23
  L 127.06 126.50
  A 0.33 0.33 0.0 0 1 127.06 126.96
  L 124.43 129.58
  A 1.76 1.74 53.9 0 0 124.12 131.62
  L 124.29 131.95
  A 1.21 1.21 0.0 0 0 126.10 132.24
  Q 127.68 130.93 129.21 131.69
  A 1.23 1.23 0.0 0 0 129.76 131.82
  Q 134.72 131.81 137.55 129.00
  A 2.93 2.79 10.8 0 1 138.56 128.35
  Q 142.35 126.94 147.70 123.50
  A 6.35 5.90 15.1 0 1 148.65 123.00
  Q 153.57 120.91 155.68 119.57
  Q 159.02 117.45 162.54 115.90
  Q 165.03 114.80 172.58 110.83
  Q 173.96 110.11 176.30 110.05
  A 2.77 2.69 31.8 0 0 177.22 109.85
  Q 182.65 107.63 186.28 105.30
  Q 191.06 102.21 194.99 100.10
  Q 207.92 93.14 224.12 85.42
  C 228.92 83.13 234.51 81.00 239.94 78.19
  A 0.95 0.95 0.0 0 0 239.53 76.40
  C 233.33 76.19 228.26 81.24 223.33 81.38
  A 0.48 0.48 0.0 0 1 223.08 80.48
  L 231.34 75.84
  Q 240.08 70.73 249.47 67.03
  Q 251.06 66.40 252.76 66.59
  A 1.66 1.66 0.0 0 0 253.92 66.28
  Q 255.19 65.38 256.65 64.46
  Q 257.33 64.02 257.91 64.21
  A 0.68 0.66 30.9 0 0 258.61 64.05
  Q 259.90 62.76 262.43 61.84
  A 1.29 1.28 -88.3 0 0 263.18 61.13
  Q 263.88 59.48 265.61 59.39
  A 1.15 1.10 18.8 0 0 266.36 59.04
  L 268.36 56.90
  A 2.71 2.25 -80.1 0 1 268.84 56.49
  Q 275.01 52.42 281.38 51.07
  A 4.30 4.15 -64.4 0 0 282.56 50.63
  L 290.17 46.56
  L 297.82 42.83
  L 307.47 38.21
  L 320.03 32.38
  A 4.18 3.87 11.6 0 0 320.74 31.95
  Q 322.26 30.81 322.98 30.49
  Q 331.78 26.66 339.71 23.03
  Q 342.35 21.82 343.84 20.82
  A 2.67 2.63 20.2 0 1 344.74 20.41
  Q 348.66 19.39 350.97 17.02
  Q 356.01 15.16 362.54 11.79
  Q 366.53 9.73 368.17 7.35
  A 0.79 0.78 24.2 0 1 369.02 7.03
  L 370.85 7.48
  A 0.98 0.97 -51.3 0 0 371.56 7.40
  Q 373.47 6.43 373.91 6.16
  Q 375.64 5.07 376.42 5.46
  Q 378.16 6.34 378.48 7.89
  Q 379.79 14.28 382.68 18.41
  Q 382.98 18.83 391.50 32.75
  Q 395.58 39.41 398.34 44.91
  Q 401.52 51.26 405.80 56.74
  C 409.41 61.37 411.45 65.81 414.75 72.11
  C 418.94 80.12 424.07 87.22 428.26 94.64
  Q 440.46 116.26 456.71 143.42
  Q 458.58 146.55 463.34 153.01
  C 464.61 154.75 465.47 156.08 466.20 158.04
  Q 468.21 163.50 471.17 168.44
  Q 487.80 196.22 495.76 210.03
  Q 499.23 216.04 502.52 221.72
  Z
  M 274.43 61.63
  A 0.76 0.75 -37.9 0 0 274.60 60.28
  Q 271.82 58.47 269.68 61.09
  A 2.13 1.98 -84.0 0 1 269.20 61.51
  Q 267.78 62.36 265.64 61.43
  A 1.15 1.14 82.0 0 0 264.30 63.21
  L 266.15 65.45
  A 0.71 0.70 -41.5 0 0 267.18 65.51
  Q 269.52 63.29 274.43 61.63
  Z
  M 320.6254 138.1329
  A 0.26 0.26 0.0 0 0 320.2720 138.0316
  L 312.1905 142.5112
  A 0.26 0.26 0.0 0 0 312.0891 142.8647
  L 312.2346 143.1271
  A 0.26 0.26 0.0 0 0 312.5880 143.2284
  L 320.6695 138.7488
  A 0.26 0.26 0.0 0 0 320.7709 138.3953
  L 320.6254 138.1329
  Z
  M 131.94 139.31
  A 2.70 2.69 40.1 0 0 130.25 139.45
  L 123.20 142.47
  A 2.07 2.07 0.0 0 0 122.11 145.19
  L 122.41 145.90
  A 1.28 1.27 60.4 0 0 124.32 146.43
  L 128.52 143.40
  A 1.02 0.99 -67.6 0 1 128.82 143.27
  Q 130.98 142.78 134.07 141.36
  A 0.83 0.82 39.6 0 0 133.92 139.81
  L 131.94 139.31
  Z
  M 324.4993 146.1007
  A 0.26 0.26 0.0 0 0 324.1443 146.0049
  L 316.8970 150.1722
  A 0.26 0.26 0.0 0 0 316.8013 150.5272
  L 316.9807 150.8393
  A 0.26 0.26 0.0 0 0 317.3357 150.9351
  L 324.5830 146.7678
  A 0.26 0.26 0.0 0 0 324.6787 146.4128
  L 324.4993 146.1007
  Z
  M 315.1432 161.7030
  A 1.82 1.39 -7.8 0 0 313.1514 160.5729
  A 1.82 1.39 -7.8 0 0 311.5368 162.1970
  A 1.82 1.39 -7.8 0 0 313.5286 163.3271
  A 1.82 1.39 -7.8 0 0 315.1432 161.7030
  Z
  M 121.33 177.61
  L 126.03 181.17
  A 0.22 0.22 0.0 0 0 126.34 181.13
  L 126.53 180.88
  A 2.98 2.35 37.1 0 0 125.57 177.21
  L 125.27 176.98
  A 2.98 2.35 37.1 0 0 121.47 177.05
  L 121.29 177.30
  A 0.22 0.22 0.0 0 0 121.33 177.61
  Z
  M 184.33 191.96
  L 173.70 197.52
  A 0.11 0.11 0.0 0 0 173.65 197.67
  L 173.67 197.69
  A 2.93 2.46 -27.6 0 0 177.40 198.52
  L 183.04 195.57
  A 2.93 2.46 -27.6 0 0 184.50 192.03
  L 184.48 192.00
  A 0.11 0.11 0.0 0 0 184.33 191.96
  Z
  M 139.02 202.13
  L 137.27 201.84
  A 0.97 0.97 0.0 0 0 136.34 203.39
  Q 138.01 205.56 139.11 204.42
  Q 139.58 204.09 139.67 203.79
  A 0.56 0.56 0.0 0 1 140.53 203.49
  Q 141.79 204.38 142.39 204.36
  Q 143.62 204.33 143.24 203.10
  Q 142.89 201.97 142.41 201.44
  A 0.56 0.56 0.0 0 0 141.58 201.43
  Q 140.39 202.67 139.02 202.13
  Z
  M 139.5808 206.6423
  A 2.45 1.26 -151.8 0 0 141.1446 208.9104
  A 2.45 1.26 -151.8 0 0 143.8992 208.9577
  A 2.45 1.26 -151.8 0 0 142.3354 206.6896
  A 2.45 1.26 -151.8 0 0 139.5808 206.6423
  Z
  M 153.96 231.30
  Q 154.04 234.69 156.33 233.16
  Q 157.93 232.18 159.84 233.03
  A 0.69 0.69 0.0 0 0 160.81 232.33
  Q 160.62 230.55 159.29 229.74
  Q 158.84 229.46 156.99 230.26
  Q 155.85 230.76 154.65 230.80
  Q 154.49 230.80 154.31 231.03
  Q 154.17 231.22 153.96 231.30
  Z
  M 156.4080 234.8497
  A 2.75 1.51 -143.9 0 0 157.7403 237.6901
  A 2.75 1.51 -143.9 0 0 160.8520 238.0903
  A 2.75 1.51 -143.9 0 0 159.5197 235.2499
  A 2.75 1.51 -143.9 0 0 156.4080 234.8497
  Z
  M 172.73 253.17
  L 173.65 252.61
  A 0.25 0.25 0.0 0 0 173.73 252.27
  L 166.67 240.70
  A 3.54 0.73 58.6 0 0 164.20 238.06
  L 164.10 238.12
  A 3.54 0.73 58.6 0 0 165.32 241.52
  L 172.38 253.09
  A 0.25 0.25 0.0 0 0 172.73 253.17
  Z
  M 173.48 260.14
  L 171.78 259.92
  A 0.41 0.41 0.0 0 0 171.32 260.41
  Q 172.08 264.18 173.92 261.81
  Q 175.46 262.04 176.84 263.14
  A 0.82 0.82 0.0 0 0 178.16 262.37
  L 177.68 259.32
  A 1.17 1.17 0.0 0 0 175.67 258.71
  Q 174.71 259.76 173.48 260.14
  Z
  M 173.8442 264.4271
  A 2.61 0.96 -149.8 0 0 175.6171 266.5697
  A 2.61 0.96 -149.8 0 0 178.3558 267.0529
  A 2.61 0.96 -149.8 0 0 176.5829 264.9103
  A 2.61 0.96 -149.8 0 0 173.8442 264.4271
  Z
  M 397.79 304.42
  L 400.84 305.45
  A 0.19 0.19 0.0 0 0 401.08 305.33
  L 401.11 305.25
  A 1.80 1.74 -71.3 0 0 400.04 302.98
  L 399.93 302.95
  A 1.80 1.74 -71.3 0 0 397.70 304.09
  L 397.67 304.18
  A 0.19 0.19 0.0 0 0 397.79 304.42
  Z
  M 205.97 318.21
  Q 205.84 320.25 207.57 320.52
  Q 207.90 324.76 211.48 326.49
  A 1.07 1.06 -69.4 0 0 212.97 325.81
  Q 213.23 324.87 213.11 324.46
  Q 212.99 324.05 212.20 323.82
  Q 211.39 323.58 211.14 322.46
  A 0.86 0.84 67.3 0 1 211.50 321.56
  Q 214.18 319.76 211.77 316.70
  A 0.89 0.87 -29.1 0 0 210.78 316.43
  Q 210.06 316.70 209.30 317.50
  A 1.42 1.42 0.0 0 1 208.45 317.92
  L 205.97 318.21
  Z
  M 225.15 350.17
  Q 226.70 349.30 227.30 348.26
  A 0.76 0.74 -74.6 0 1 227.95 347.88
  L 229.24 347.88
  A 0.39 0.39 0.0 0 0 229.63 347.49
  L 229.63 346.39
  A 0.29 0.29 0.0 0 0 229.30 346.10
  L 224.03 346.93
  A 0.88 0.87 3.8 0 0 223.34 347.53
  Q 222.82 349.27 224.31 350.16
  A 0.84 0.83 45.3 0 0 225.15 350.17
  Z
  M 225.5754 352.1071
  A 1.41 1.09 -175.0 0 0 226.8850 353.3159
  A 1.41 1.09 -175.0 0 0 228.3846 352.3529
  A 1.41 1.09 -175.0 0 0 227.0750 351.1441
  A 1.41 1.09 -175.0 0 0 225.5754 352.1071
  Z
  M 243.82 375.98
  L 241.06 376.21
  A 0.44 0.44 0.0 0 0 240.66 376.68
  L 240.67 376.84
  A 2.14 1.79 85.4 0 0 242.63 378.83
  L 242.69 378.82
  A 2.14 1.79 85.4 0 0 244.30 376.55
  L 244.29 376.39
  A 0.44 0.44 0.0 0 0 243.82 375.98
  Z
  M 277.6023 378.7602
  A 6.75 1.32 -37.4 0 0 271.4383 381.8114
  A 6.75 1.32 -37.4 0 0 266.8777 386.9598
  A 6.75 1.32 -37.4 0 0 273.0417 383.9086
  A 6.75 1.32 -37.4 0 0 277.6023 378.7602
  Z
  M 288.25 393.82
  L 281.04 393.58
  A 0.11 0.11 0.0 0 0 280.92 393.69
  L 280.92 393.72
  A 2.36 2.00 1.9 0 0 283.22 395.79
  L 285.93 395.88
  A 2.36 2.00 1.9 0 0 288.36 393.96
  L 288.36 393.93
  A 0.11 0.11 0.0 0 0 288.25 393.82
  Z
  M 258.2921 405.6943
  A 1.06 0.89 -163.8 0 0 259.0617 406.8447
  A 1.06 0.89 -163.8 0 0 260.3279 406.2857
  A 1.06 0.89 -163.8 0 0 259.5583 405.1353
  A 1.06 0.89 -163.8 0 0 258.2921 405.6943
  Z"
/>
<path fill="#7d7da5" d="
  M 350.97 17.02
  Q 348.66 19.39 344.74 20.41
  A 2.67 2.63 20.2 0 0 343.84 20.82
  Q 342.35 21.82 339.71 23.03
  Q 331.78 26.66 322.98 30.49
  Q 322.26 30.81 320.74 31.95
  A 4.18 3.87 11.6 0 1 320.03 32.38
  L 307.47 38.21
  Q 306.52 35.25 303.74 33.63
  A 3.07 2.97 84.0 0 1 302.95 32.97
  Q 299.88 29.35 295.96 26.51
  Q 295.19 25.95 294.21 25.82
  A 0.84 0.84 0.0 0 1 293.85 24.30
  L 302.37 18.33
  A 3.76 3.58 1.4 0 0 303.00 17.76
  L 310.16 9.61
  Q 310.32 10.85 311.26 10.67
  Q 311.84 10.56 313.54 9.86
  A 4.01 3.94 33.5 0 1 315.13 9.55
  Q 318.32 9.57 321.55 8.40
  A 3.42 3.31 -54.8 0 1 322.66 8.19
  Q 323.05 8.18 323.07 8.18
  A 1.33 1.33 0.0 0 1 324.28 9.94
  C 323.24 12.95 322.08 17.30 324.16 20.18
  A 0.86 0.86 0.0 0 0 325.60 20.11
  L 327.78 16.34
  A 1.86 1.86 0.0 0 1 330.06 15.54
  C 333.94 17.05 338.62 19.25 343.15 19.25
  A 3.17 3.09 36.3 0 0 344.01 19.13
  L 350.97 17.02
  Z"
/>
<path fill="#7d7da5" d="
  M 291.16 17.26
  Q 291.78 18.05 291.03 18.54
  Q 288.51 20.20 287.54 21.80
  Q 286.94 22.79 281.71 26.89
  A 3.72 3.72 0.0 0 0 281.15 27.45
  C 279.25 29.90 276.38 30.96 272.97 32.64
  Q 267.57 35.30 267.00 35.63
  Q 264.76 36.95 261.73 39.69
  Q 256.61 44.32 251.93 47.41
  Q 250.84 48.12 248.75 51.00
  A 0.64 0.63 -28.7 0 0 248.63 51.40
  Q 248.64 51.75 249.37 51.84
  A 0.72 0.72 0.0 0 1 249.55 53.22
  Q 245.58 54.85 241.99 58.74
  Q 237.39 63.72 233.69 66.92
  A 5.49 5.34 89.2 0 0 232.98 67.67
  Q 230.54 70.81 229.30 71.32
  C 226.23 72.58 221.04 73.89 218.30 76.77
  A 0.45 0.45 0.0 0 0 218.73 77.52
  Q 224.44 76.12 230.48 74.69
  Q 231.34 74.49 231.35 75.14
  Q 231.36 75.35 231.34 75.84
  L 223.08 80.48
  A 0.48 0.48 0.0 0 0 223.33 81.38
  C 228.26 81.24 233.33 76.19 239.53 76.40
  A 0.95 0.95 0.0 0 1 239.94 78.19
  C 234.51 81.00 228.92 83.13 224.12 85.42
  Q 207.92 93.14 194.99 100.10
  Q 191.06 102.21 186.28 105.30
  Q 182.65 107.63 177.22 109.85
  A 2.77 2.69 31.8 0 1 176.30 110.05
  Q 173.96 110.11 172.58 110.83
  Q 165.03 114.80 162.54 115.90
  Q 159.02 117.45 155.68 119.57
  Q 153.57 120.91 148.65 123.00
  A 6.35 5.90 15.1 0 0 147.70 123.50
  Q 142.35 126.94 138.56 128.35
  A 2.93 2.79 10.8 0 0 137.55 129.00
  Q 134.72 131.81 129.76 131.82
  A 1.23 1.23 0.0 0 1 129.21 131.69
  Q 127.68 130.93 126.10 132.24
  A 1.21 1.21 0.0 0 1 124.29 131.95
  L 124.12 131.62
  A 1.76 1.74 53.9 0 1 124.43 129.58
  L 127.06 126.96
  A 0.33 0.33 0.0 0 0 127.06 126.50
  L 126.79 126.23
  A 0.37 0.35 46.1 0 0 126.29 126.21
  Q 122.52 129.54 119.11 130.83
  A 3.75 3.70 -77.0 0 0 117.85 131.63
  Q 113.64 135.63 113.20 136.49
  C 112.19 138.47 111.94 141.11 113.41 143.61
  C 114.55 145.53 115.89 148.66 117.57 151.47
  C 133.56 178.19 144.28 196.70 160.18 222.97
  Q 170.99 240.84 177.78 252.55
  C 181.95 259.73 187.89 268.81 193.14 278.02
  Q 200.67 291.22 210.50 306.50
  C 211.90 308.67 212.98 311.71 214.42 313.96
  C 221.55 325.06 226.54 334.29 233.60 345.66
  Q 234.33 346.84 234.38 347.98
  A 0.44 0.44 0.0 0 1 233.66 348.34
  Q 231.82 346.84 230.63 344.88
  A 0.84 0.81 80.5 0 0 230.12 344.50
  L 227.37 343.82
  A 0.90 0.90 0.0 0 1 227.11 342.19
  Q 228.03 341.61 228.30 340.87
  A 1.39 1.36 -50.6 0 0 228.20 339.71
  Q 220.07 325.63 217.83 322.43
  Q 213.66 316.45 213.39 315.52
  Q 213.33 315.28 211.64 313.65
  A 0.82 0.82 0.0 0 0 210.67 313.53
  Q 210.44 313.66 210.03 313.62
  A 0.45 0.44 -57.5 0 1 209.85 312.80
  Q 211.13 312.01 210.71 310.72
  Q 210.65 310.54 209.50 308.53
  Q 202.75 296.68 199.66 291.84
  Q 198.99 290.79 197.28 289.26
  A 1.01 1.01 0.0 0 0 195.60 290.01
  L 195.60 291.16
  A 0.64 0.63 -20.5 0 1 195.38 291.64
  Q 194.90 292.03 194.53 293.22
  Q 194.45 293.48 195.36 294.74
  Q 195.84 295.43 195.78 296.44
  A 0.38 0.37 16.6 0 1 195.22 296.74
  L 191.47 294.57
  A 0.74 0.73 24.2 0 1 191.14 293.71
  Q 191.37 293.01 191.72 292.48
  Q 192.17 291.81 191.52 291.68
  Q 191.15 291.61 190.52 291.93
  L 191.47 290.27
  A 0.69 0.69 0.0 0 0 191.33 289.42
  Q 190.73 288.88 189.51 288.97
  Q 192.64 288.64 195.14 287.01
  A 0.63 0.63 0.0 0 0 195.05 285.91
  Q 194.29 285.58 193.24 285.73
  A 1.09 0.97 4.0 0 1 192.02 284.47
  Q 192.34 283.50 193.44 283.29
  A 0.80 0.80 0.0 0 0 193.97 282.10
  L 183.93 264.86
  A 3.11 2.31 -89.8 0 0 183.62 264.44
  Q 180.09 260.59 178.77 257.99
  C 177.95 256.36 176.69 255.63 175.12 255.35
  A 0.78 0.77 46.3 0 1 175.15 253.82
  Q 176.32 253.68 176.20 252.41
  A 1.77 1.65 27.1 0 0 175.91 251.61
  Q 171.79 245.55 168.74 239.82
  Q 166.82 236.22 165.00 233.94
  Q 161.63 229.74 160.85 228.19
  A 1.32 1.32 0.0 0 0 160.03 227.51
  Q 159.30 227.31 158.20 227.65
  A 0.79 0.78 -25.2 0 1 157.33 227.34
  C 157.07 226.96 156.97 226.14 156.51 225.66
  Q 154.10 223.13 152.25 219.96
  Q 146.91 210.80 146.34 209.80
  A 0.80 0.80 0.0 0 1 147.20 208.62
  Q 148.09 208.79 148.84 208.37
  A 0.58 0.58 0.0 0 0 149.03 207.54
  C 145.70 202.61 143.34 199.51 140.66 194.04
  Q 136.10 184.74 130.43 176.55
  Q 126.92 171.46 123.70 165.61
  Q 116.26 152.10 107.66 139.15
  L 107.03 134.98
  A 0.66 0.66 0.0 0 1 107.37 134.30
  L 124.55 124.86
  A 0.23 0.21 -4.4 0 0 124.66 124.74
  Q 126.58 119.94 132.23 120.91
  A 1.94 1.93 -50.7 0 0 133.30 120.80
  C 135.80 119.81 138.15 118.07 140.51 117.18
  Q 147.58 114.52 154.33 108.85
  C 157.55 106.15 160.69 104.27 164.75 101.30
  Q 167.95 98.96 171.84 95.19
  Q 175.30 91.84 179.31 89.51
  Q 183.34 87.17 186.66 84.07
  C 190.37 80.61 192.15 80.13 197.45 77.92
  Q 200.49 76.66 203.13 73.59
  C 204.94 71.48 206.67 70.64 208.96 69.92
  C 211.49 69.12 213.40 67.35 214.33 65.73
  A 0.62 0.62 0.0 0 0 213.50 64.88
  L 208.91 67.36
  A 0.45 0.34 19.5 0 1 208.75 67.41
  Q 206.49 67.69 204.44 69.22
  Q 198.35 73.77 197.01 74.93
  A 8.78 8.76 -76.2 0 1 194.49 76.46
  Q 187.97 79.05 179.91 84.38
  Q 163.61 95.15 144.73 104.16
  A 1.06 1.05 48.1 0 1 143.70 104.10
  Q 141.72 102.83 142.53 100.98
  Q 161.78 93.16 169.85 88.14
  Q 195.99 71.85 222.15 56.03
  C 238.17 46.34 255.63 38.04 271.54 28.68
  Q 278.16 24.78 284.63 20.96
  Q 287.86 19.05 291.16 17.26
  Z
  M 246.04 46.58
  Q 240.47 49.17 233.39 53.07
  Q 227.85 56.12 222.24 61.74
  Q 216.35 67.65 214.00 71.29
  Q 211.71 74.83 208.35 77.59
  Q 203.03 81.94 199.21 84.20
  C 195.10 86.62 190.84 89.96 187.97 92.24
  A 0.52 0.52 0.0 0 0 188.30 93.17
  Q 192.80 93.14 196.61 90.32
  A 4.09 3.97 13.8 0 1 197.36 89.88
  Q 205.22 86.31 211.93 81.17
  A 1.72 1.65 22.5 0 1 212.77 80.84
  Q 215.05 80.60 216.78 79.07
  Q 218.05 77.95 217.35 77.12
  A 0.77 0.76 41.4 0 1 217.29 76.22
  Q 219.20 73.24 220.07 72.81
  Q 223.18 71.26 226.83 69.13
  Q 229.69 67.45 233.53 61.89
  A 2.19 2.19 0.0 0 0 233.93 60.80
  Q 234.34 56.69 237.91 53.90
  Q 238.95 53.09 246.69 47.71
  A 0.65 0.65 0.0 0 0 246.04 46.58
  Z"
/>
<path fill="#7d7da5" d="
  M 297.82 42.83
  L 290.17 46.56
  C 285.78 47.05 285.55 41.89 281.22 42.88
  A 2.28 2.28 0.0 0 1 278.68 41.46
  L 278.55 41.13
  A 1.55 1.54 -16.4 0 1 279.68 39.06
  Q 284.09 38.15 288.94 39.36
  Q 294.88 40.84 297.82 42.83
  Z"
/>
<path fill="#7d7da5" d="
  M 263.05 45.02
  A 1.37 1.36 -58.0 0 1 263.57 47.28
  L 261.07 49.79
  A 1.93 1.92 -73.4 0 1 260.12 50.31
  Q 257.25 50.94 253.64 49.93
  A 1.27 1.26 30.4 0 1 253.09 47.82
  L 253.63 47.28
  A 1.51 1.47 19.9 0 1 254.58 46.85
  C 258.01 46.56 259.11 43.68 263.05 45.02
  Z"
/>
<path fill="#bac2ed" d="
  M 246.04 46.58
  A 0.65 0.65 0.0 0 1 246.69 47.71
  Q 238.95 53.09 237.91 53.90
  Q 234.34 56.69 233.93 60.80
  A 2.19 2.19 0.0 0 1 233.53 61.89
  Q 229.69 67.45 226.83 69.13
  Q 223.18 71.26 220.07 72.81
  Q 219.20 73.24 217.29 76.22
  A 0.77 0.76 41.4 0 0 217.35 77.12
  Q 218.05 77.95 216.78 79.07
  Q 215.05 80.60 212.77 80.84
  A 1.72 1.65 22.5 0 0 211.93 81.17
  Q 205.22 86.31 197.36 89.88
  A 4.09 3.97 13.8 0 0 196.61 90.32
  Q 192.80 93.14 188.30 93.17
  A 0.52 0.52 0.0 0 1 187.97 92.24
  C 190.84 89.96 195.10 86.62 199.21 84.20
  Q 203.03 81.94 208.35 77.59
  Q 211.71 74.83 214.00 71.29
  Q 216.35 67.65 222.24 61.74
  Q 227.85 56.12 233.39 53.07
  Q 240.47 49.17 246.04 46.58
  Z"
/>
<path fill="#7d7da5" d="
  M 274.43 61.63
  Q 269.52 63.29 267.18 65.51
  A 0.71 0.70 -41.5 0 1 266.15 65.45
  L 264.30 63.21
  A 1.15 1.14 82.0 0 1 265.64 61.43
  Q 267.78 62.36 269.20 61.51
  A 2.13 1.98 -84.0 0 0 269.68 61.09
  Q 271.82 58.47 274.60 60.28
  A 0.76 0.75 -37.9 0 1 274.43 61.63
  Z"
/>
<path fill="#bac2ed" d="
  M 107.66 139.15
  Q 105.37 139.06 105.13 137.97
  A 0.82 0.82 0.0 0 0 103.54 137.97
  L 102.51 142.13
  A 0.60 0.59 -68.4 0 0 102.79 142.79
  L 104.30 143.66
  A 0.79 0.78 48.3 0 1 104.22 145.06
  L 102.77 145.68
  A 1.12 1.11 53.9 0 0 102.48 147.55
  Q 104.28 149.10 104.69 150.95
  Q 108.21 158.77 111.84 166.50
  Q 112.10 167.05 111.72 167.29
  Q 110.97 167.10 110.55 167.29
  Q 107.73 168.62 106.05 170.36
  Q 106.78 171.94 104.50 172.20
  C 100.41 173.23 99.30 176.02 96.61 177.84
  Q 94.72 179.13 87.66 180.86
  A 1.23 1.00 -62.0 0 0 87.35 180.99
  L 64.40 194.55
  Q 61.39 187.50 57.09 182.00
  A 0.40 0.40 0.0 0 0 56.38 182.14
  Q 55.89 184.01 54.10 183.08
  A 0.95 0.95 0.0 0 0 53.17 183.10
  Q 52.51 183.49 52.56 183.87
  A 0.88 0.87 22.5 0 1 51.00 184.51
  Q 49.64 182.75 49.50 182.56
  A 0.68 0.68 0.0 0 0 48.28 183.03
  Q 48.56 186.15 49.95 188.73
  Q 51.58 191.76 58.69 197.74
  Q 54.85 200.20 52.10 202.09
  Q 50.63 203.11 49.31 202.42
  A 2.07 1.92 -2.2 0 1 48.62 201.83
  C 44.18 195.78 38.19 182.88 31.34 175.96
  Q 23.89 168.44 14.17 165.29
  Q 15.57 164.53 18.38 162.95
  Q 38.72 151.47 55.90 143.58
  C 61.72 140.90 68.72 137.07 72.20 134.96
  Q 92.19 122.86 106.13 115.38
  C 117.07 109.50 130.32 105.37 142.53 100.98
  Q 141.72 102.83 143.70 104.10
  A 1.06 1.05 48.1 0 0 144.73 104.16
  Q 163.61 95.15 179.91 84.38
  Q 187.97 79.05 194.49 76.46
  A 8.78 8.76 -76.2 0 0 197.01 74.93
  Q 198.35 73.77 204.44 69.22
  Q 206.49 67.69 208.75 67.41
  A 0.45 0.34 19.5 0 0 208.91 67.36
  L 213.50 64.88
  A 0.62 0.62 0.0 0 1 214.33 65.73
  C 213.40 67.35 211.49 69.12 208.96 69.92
  C 206.67 70.64 204.94 71.48 203.13 73.59
  Q 200.49 76.66 197.45 77.92
  C 192.15 80.13 190.37 80.61 186.66 84.07
  Q 183.34 87.17 179.31 89.51
  Q 175.30 91.84 171.84 95.19
  Q 167.95 98.96 164.75 101.30
  C 160.69 104.27 157.55 106.15 154.33 108.85
  Q 147.58 114.52 140.51 117.18
  C 138.15 118.07 135.80 119.81 133.30 120.80
  A 1.94 1.93 -50.7 0 1 132.23 120.91
  Q 126.58 119.94 124.66 124.74
  A 0.23 0.21 -4.4 0 1 124.55 124.86
  L 107.37 134.30
  A 0.66 0.66 0.0 0 0 107.03 134.98
  L 107.66 139.15
  Z
  M 28.0874 166.8046
  A 1.62 1.10 -110.7 0 0 27.6310 168.7088
  A 1.62 1.10 -110.7 0 0 29.2326 169.8354
  A 1.62 1.10 -110.7 0 0 29.6890 167.9312
  A 1.62 1.10 -110.7 0 0 28.0874 166.8046
  Z"
/>
<rect fill="#bac2ed" x="-4.88" y="-0.41" transform="translate(316.43,140.63) rotate(-29.0)" width="9.76" height="0.82" rx="0.26"/>
<path fill="#7d7da5" d="
  M 131.94 139.31
  L 133.92 139.81
  A 0.83 0.82 39.6 0 1 134.07 141.36
  Q 130.98 142.78 128.82 143.27
  A 1.02 0.99 -67.6 0 0 128.52 143.40
  L 124.32 146.43
  A 1.28 1.27 60.4 0 1 122.41 145.90
  L 122.11 145.19
  A 2.07 2.07 0.0 0 1 123.20 142.47
  L 130.25 139.45
  A 2.70 2.69 40.1 0 1 131.94 139.31
  Z"
/>
<rect fill="#bac2ed" x="-4.44" y="-0.44" transform="translate(320.74,148.47) rotate(-29.9)" width="8.88" height="0.88" rx="0.26"/>
<path fill="#bac2ed" d="
  M 112.00 157.45
  L 112.17 159.24
  A 0.53 0.52 24.5 0 1 111.22 159.59
  L 107.59 154.54
  A 1.39 1.36 -63.7 0 1 107.34 153.78
  C 107.33 152.31 107.80 150.38 105.73 150.00
  Q 104.26 149.87 104.32 148.62
  A 1.70 1.68 6.3 0 1 106.29 147.06
  Q 110.11 147.70 109.78 151.08
  C 109.55 153.38 110.99 155.51 112.00 157.45
  Z"
/>
<path fill="#7d7da5" d="
  M 105.73 150.00
  C 107.80 150.38 107.33 152.31 107.34 153.78
  A 1.39 1.36 -63.7 0 0 107.59 154.54
  L 111.22 159.59
  A 0.53 0.52 24.5 0 0 112.17 159.24
  L 112.00 157.45
  L 115.94 163.76
  A 1.80 1.29 17.2 0 0 116.13 164.01
  L 119.68 168.26
  A 2.31 2.30 25.2 0 1 120.21 169.73
  L 120.21 170.72
  A 1.17 1.16 23.2 0 0 120.54 171.53
  Q 121.98 173.03 123.13 171.80
  A 1.49 1.34 -42.5 0 1 125.30 171.78
  Q 125.63 172.23 125.73 173.16
  A 1.06 0.94 -82.2 0 1 124.40 174.30
  Q 124.14 174.17 122.87 174.08
  A 0.63 0.63 0.0 0 0 122.21 174.55
  Q 121.97 175.41 120.50 175.26
  Q 119.50 175.15 119.39 175.16
  A 0.71 0.71 0.0 0 0 118.86 176.22
  Q 122.33 182.20 125.34 185.46
  A 0.35 0.34 -79.6 0 0 125.90 185.07
  Q 125.42 184.09 125.85 183.31
  A 0.68 0.68 0.0 0 1 126.99 183.24
  L 130.75 188.47
  A 2.23 2.21 -74.4 0 1 131.04 188.99
  Q 133.10 194.05 137.02 198.45
  A 0.96 0.96 0.0 0 1 137.18 199.45
  Q 136.23 201.69 132.88 201.60
  Q 131.82 200.29 131.08 200.68
  Q 129.86 197.26 127.34 194.57
  A 3.41 3.15 13.6 0 1 126.70 193.61
  Q 125.74 191.41 124.67 190.36
  A 1.16 1.13 22.5 0 1 124.32 189.54
  Q 124.32 188.73 124.03 188.21
  Q 118.46 178.45 111.71 167.77
  Q 111.55 167.52 111.72 167.29
  Q 112.10 167.05 111.84 166.50
  Q 108.21 158.77 104.69 150.95
  L 104.79 150.41
  A 0.53 0.52 6.7 0 1 105.34 149.98
  L 105.73 150.00
  Z
  M 119.2900 174.2056
  A 1.26 0.84 -179.8 0 0 120.5471 175.0500
  A 1.26 0.84 -179.8 0 0 121.8100 174.2144
  A 1.26 0.84 -179.8 0 0 120.5529 173.3700
  A 1.26 0.84 -179.8 0 0 119.2900 174.2056
  Z"
/>
<ellipse fill="#bac2ed" cx="0.00" cy="0.00" transform="translate(313.34,161.95) rotate(-7.8)" rx="1.82" ry="1.39"/>
<path fill="#0e0c0e" d="
  M 14.17 165.29
  Q 23.89 168.44 31.34 175.96
  C 38.19 182.88 44.18 195.78 48.62 201.83
  A 2.07 1.92 -2.2 0 0 49.31 202.42
  Q 50.63 203.11 52.10 202.09
  Q 54.85 200.20 58.69 197.74
  L 64.40 194.55
  L 87.35 180.99
  A 1.23 1.00 -62.0 0 1 87.66 180.86
  Q 94.72 179.13 96.61 177.84
  C 99.30 176.02 100.41 173.23 104.50 172.20
  Q 105.29 172.53 107.13 174.38
  Q 108.83 176.08 112.27 175.48
  A 0.58 0.58 0.0 0 1 112.84 175.72
  Q 112.97 175.92 113.09 175.95
  A 0.67 0.56 78.7 0 0 113.63 174.96
  Q 112.12 172.26 111.86 171.20
  A 0.97 0.96 -29.3 0 0 110.24 170.75
  L 109.08 171.91
  A 0.64 0.64 0.0 0 1 108.26 171.98
  L 106.05 170.36
  Q 107.73 168.62 110.55 167.29
  Q 110.97 167.10 111.72 167.29
  Q 111.55 167.52 111.71 167.77
  Q 118.46 178.45 124.03 188.21
  Q 124.32 188.73 124.32 189.54
  A 1.16 1.13 22.5 0 0 124.67 190.36
  Q 125.74 191.41 126.70 193.61
  A 3.41 3.15 13.6 0 0 127.34 194.57
  Q 129.86 197.26 131.08 200.68
  Q 130.28 203.07 128.07 203.15
  L 125.99 202.94
  A 0.69 0.67 81.0 0 1 125.43 202.52
  L 124.09 199.40
  A 2.44 2.42 77.3 0 0 121.77 197.92
  Q 121.00 197.94 120.45 197.84
  A 2.14 2.02 21.1 0 1 118.95 194.70
  Q 119.60 193.71 121.08 194.11
  Q 122.05 194.53 123.34 194.41
  A 0.95 0.95 0.0 0 1 124.22 194.81
  L 125.19 196.15
  A 0.34 0.34 0.0 0 0 125.71 196.19
  L 126.00 195.90
  A 0.76 0.76 0.0 0 0 126.00 194.83
  L 124.56 193.40
  A 1.23 1.22 19.2 0 1 124.21 192.68
  Q 124.11 191.79 123.52 191.40
  Q 123.00 191.05 122.08 191.63
  Q 120.68 192.51 119.40 192.39
  A 0.93 0.92 -5.6 0 1 118.60 191.74
  L 117.44 187.93
  A 0.41 0.32 -83.0 0 0 117.35 187.78
  Q 116.80 187.15 115.87 186.56
  A 1.35 1.34 7.3 0 1 115.31 185.84
  C 114.75 184.04 112.24 177.63 109.40 178.05
  A 0.43 0.43 0.0 0 0 109.07 178.64
  Q 111.46 184.15 114.92 191.85
  Q 115.36 192.82 115.34 194.56
  A 0.95 0.92 -58.0 0 0 115.42 194.94
  L 118.59 202.36
  A 1.10 1.10 0.0 0 1 118.22 203.70
  L 108.42 210.76
  A 2.46 2.45 38.0 0 1 106.08 211.04
  Q 102.24 209.52 97.49 211.48
  A 0.78 0.78 0.0 0 1 96.46 210.49
  Q 97.86 206.70 97.42 202.82
  Q 97.15 200.40 94.64 191.95
  C 94.58 187.49 92.22 185.64 88.66 182.35
  A 0.91 0.89 66.0 0 0 88.05 182.11
  L 87.00 182.11
  A 0.46 0.45 73.8 0 0 86.62 182.81
  L 93.58 193.73
  C 95.09 197.91 96.86 205.80 94.73 210.28
  A 1.94 1.94 0.0 0 1 94.05 211.07
  C 91.47 212.84 87.80 212.63 84.33 212.82
  L 68.76 213.22
  L 57.84 213.97
  A 0.82 0.82 0.0 0 0 57.16 215.15
  L 58.33 217.49
  Q 61.47 225.84 66.01 233.23
  Q 66.96 234.79 70.99 239.07
  Q 73.18 244.24 75.26 247.00
  Q 79.48 252.62 81.37 257.51
  Q 81.47 257.79 81.66 257.96
  Q 81.98 258.25 82.13 258.18
  L 82.34 260.13
  A 3.24 3.11 28.2 0 0 82.73 261.34
  L 88.69 271.99
  A 0.56 0.52 24.6 0 1 88.76 272.16
  Q 89.93 276.56 91.71 282.54
  Q 92.53 285.30 92.81 293.13
  C 92.87 294.75 92.39 296.07 91.88 297.47
  A 0.54 0.53 85.0 0 0 92.65 298.12
  L 99.14 294.38
  A 1.12 1.12 0.0 0 0 99.11 292.43
  Q 98.17 291.91 97.89 290.98
  Q 97.47 289.56 97.03 288.12
  Q 96.79 287.34 95.74 285.47
  Q 93.08 280.74 92.60 275.09
  A 0.38 0.38 0.0 0 1 92.80 274.71
  Q 93.33 274.44 93.81 275.37
  L 96.07 278.53
  A 0.98 0.96 61.6 0 0 97.20 278.88
  Q 98.10 278.55 99.22 278.62
  A 0.68 0.68 0.0 0 1 99.86 279.24
  Q 100.02 280.91 98.71 282.25
  Q 97.41 286.82 100.77 290.70
  A 0.56 0.55 34.0 0 0 101.72 290.52
  C 103.63 285.01 108.11 283.00 113.57 282.37
  A 0.98 0.97 -7.9 0 0 114.42 281.25
  Q 112.71 270.36 119.00 261.94
  C 121.58 266.51 125.51 277.99 120.35 281.68
  Q 115.24 285.34 109.77 288.78
  C 107.78 290.03 106.44 291.49 104.73 292.81
  A 9.11 8.56 -75.1 0 1 103.36 293.66
  Q 95.70 297.43 88.61 302.53
  C 85.94 304.22 82.50 307.37 79.72 307.75
  C 69.62 309.17 59.69 296.99 54.03 289.75
  Q 48.83 283.11 44.94 275.97
  Q 44.79 275.71 36.57 261.70
  Q 35.34 259.62 33.42 258.34
  A 0.76 0.75 44.5 0 0 32.57 258.34
  Q 31.09 259.35 30.27 261.37
  Q 30.68 257.08 29.76 254.53
  C 26.30 244.94 19.27 234.39 15.70 226.80
  Q 11.71 218.30 7.29 209.36
  C 5.08 204.90 3.77 200.22 1.62 195.84
  A 4.85 4.79 -64.6 0 1 1.27 194.84
  L 0.00 189.33
  L 0.00 179.84
  L 0.60 176.99
  A 0.26 0.26 0.0 0 1 1.10 176.94
  L 1.76 178.49
  A 0.33 0.33 0.0 0 0 2.36 178.50
  Q 5.97 170.94 14.17 165.29
  Z
  M 104.3494 175.4594
  A 2.14 1.23 -9.7 0 0 102.0328 174.6076
  A 2.14 1.23 -9.7 0 0 100.1306 176.1806
  A 2.14 1.23 -9.7 0 0 102.4472 177.0324
  A 2.14 1.23 -9.7 0 0 104.3494 175.4594
  Z
  M 113.33 202.70
  L 113.10 199.87
  A 0.29 0.29 0.0 0 0 112.79 199.60
  L 112.61 199.61
  A 2.01 1.59 -4.5 0 0 110.73 201.36
  L 110.75 201.60
  A 2.01 1.59 -4.5 0 0 112.88 203.02
  L 113.06 203.01
  A 0.29 0.29 0.0 0 0 113.33 202.70
  Z"
/>
<ellipse fill="#0e0c0e" cx="0.00" cy="0.00" transform="translate(28.66,168.32) rotate(-110.7)" rx="1.62" ry="1.10"/>
<path fill="#7d7da5" d="
  M 104.50 172.20
  Q 106.78 171.94 106.05 170.36
  L 108.26 171.98
  A 0.64 0.64 0.0 0 0 109.08 171.91
  L 110.24 170.75
  A 0.97 0.96 -29.3 0 1 111.86 171.20
  Q 112.12 172.26 113.63 174.96
  A 0.67 0.56 78.7 0 1 113.09 175.95
  Q 112.97 175.92 112.84 175.72
  A 0.58 0.58 0.0 0 0 112.27 175.48
  Q 108.83 176.08 107.13 174.38
  Q 105.29 172.53 104.50 172.20
  Z"
/>
<ellipse fill="#bac2ed" cx="0.00" cy="0.00" transform="translate(120.55,174.21) rotate(-179.8)" rx="1.26" ry="0.84"/>
<ellipse fill="#bac2ed" cx="0.00" cy="0.00" transform="translate(102.24,175.82) rotate(-9.7)" rx="2.14" ry="1.23"/>
<path fill="#bac2ed" d="
  M 121.33 177.61
  A 0.22 0.22 0.0 0 1 121.29 177.30
  L 121.47 177.05
  A 2.98 2.35 37.1 0 1 125.27 176.98
  L 125.57 177.21
  A 2.98 2.35 37.1 0 1 126.53 180.88
  L 126.34 181.13
  A 0.22 0.22 0.0 0 1 126.03 181.17
  L 121.33 177.61
  Z"
/>
<path fill="#bac2ed" d="
  M 121.08 194.11
  Q 120.32 193.32 119.83 193.51
  A 2.60 2.43 70.4 0 0 118.47 196.64
  Q 119.59 200.22 121.99 203.35
  C 122.67 204.23 123.44 204.41 124.45 203.91
  C 125.69 203.30 126.74 203.28 128.07 203.15
  Q 130.28 203.07 131.08 200.68
  Q 131.82 200.29 132.88 201.60
  Q 140.96 215.57 149.49 228.74
  Q 151.11 231.23 152.07 233.12
  C 153.15 235.25 154.75 236.78 155.72 238.93
  Q 157.31 242.46 163.24 251.84
  C 166.15 256.45 169.53 262.97 173.10 268.14
  Q 173.77 269.10 174.05 270.76
  Q 174.14 271.47 173.20 271.76
  Q 171.59 272.15 170.06 273.45
  A 0.58 0.58 0.0 0 0 170.29 274.45
  Q 171.40 274.73 171.68 275.61
  Q 171.97 276.80 170.73 277.51
  Q 161.27 282.86 158.12 284.87
  Q 156.58 285.85 155.55 286.86
  A 0.63 0.62 -52.2 0 0 155.67 287.85
  L 156.73 288.46
  A 0.68 0.67 24.7 0 1 157.03 289.26
  Q 156.80 289.93 156.83 291.51
  A 1.04 0.97 -62.9 0 0 156.96 291.97
  L 168.89 311.51
  A 2.11 2.11 0.0 0 0 170.98 312.50
  Q 176.44 311.75 180.59 308.66
  Q 181.70 307.83 184.38 306.36
  Q 186.37 305.26 187.89 303.67
  Q 189.60 304.28 190.05 305.39
  A 0.92 0.92 0.0 0 0 191.81 304.87
  Q 191.68 304.25 191.21 303.36
  A 0.85 0.85 0.0 0 1 191.79 302.13
  L 191.83 302.12
  A 1.45 1.45 0.0 0 1 193.40 302.84
  C 197.63 310.46 202.45 317.58 206.74 325.08
  Q 210.83 332.22 215.43 339.83
  Q 227.36 359.60 238.98 378.75
  Q 240.84 381.82 243.01 384.64
  Q 243.22 385.73 243.10 386.65
  A 1.27 1.24 75.1 0 1 242.64 387.46
  Q 240.91 388.80 238.95 388.61
  L 238.61 388.50
  L 232.64 388.86
  A 0.47 0.46 58.9 0 0 232.43 389.72
  Q 234.23 390.82 235.01 393.76
  L 236.63 397.53
  L 240.21 403.95
  A 2.08 1.92 27.3 0 1 240.44 404.58
  L 241.37 409.40
  A 1.51 1.50 73.0 0 0 243.44 410.51
  L 247.49 408.78
  A 0.50 0.50 0.0 0 0 247.66 407.99
  Q 244.96 404.97 243.72 401.26
  Q 246.63 398.05 243.17 395.90
  A 0.88 0.88 0.0 0 1 243.12 394.44
  L 246.21 392.22
  A 0.53 0.53 0.0 0 1 246.97 392.37
  L 260.74 415.17
  Q 247.84 419.40 236.50 421.78
  Q 186.05 432.37 145.82 441.11
  C 143.32 441.65 141.35 441.63 138.54 441.95
  A 2.28 2.27 -23.1 0 1 136.51 441.14
  L 129.39 432.51
  A 1.80 1.80 0.0 0 0 126.90 432.23
  L 122.36 435.77
  L 117.16 426.34
  A 0.17 0.17 0.0 0 1 117.42 426.12
  Q 119.75 427.93 121.21 430.18
  A 2.66 2.46 -71.1 0 1 121.56 430.97
  Q 122.03 432.86 123.42 433.89
  A 1.07 1.06 29.2 0 0 125.04 433.44
  Q 126.33 430.28 129.55 429.93
  A 1.56 1.56 0.0 0 0 130.61 429.32
  Q 130.88 428.96 132.04 428.45
  A 1.13 1.09 -44.6 0 1 132.93 428.44
  Q 135.30 429.48 136.81 426.91
  A 1.12 1.11 18.0 0 1 137.88 426.37
  Q 140.24 426.59 141.73 424.66
  A 2.06 2.03 -21.3 0 0 142.12 423.79
  C 143.32 417.99 144.94 419.51 149.31 417.81
  A 3.75 3.58 -72.9 0 0 150.24 417.29
  Q 159.54 410.20 167.60 403.61
  Q 170.44 401.29 174.38 398.96
  A 1.75 1.74 69.0 0 0 175.20 397.12
  Q 174.69 394.48 173.78 392.42
  Q 172.94 390.53 170.87 390.88
  Q 164.63 391.95 152.79 393.52
  Q 151.51 389.22 149.05 384.72
  C 144.54 376.45 141.47 369.98 134.88 364.90
  Q 132.25 362.87 129.21 359.52
  C 121.68 351.21 116.19 345.72 112.93 338.84
  C 109.23 331.02 104.98 323.82 99.28 318.04
  C 94.81 313.52 92.08 307.80 88.61 302.53
  Q 95.70 297.43 103.36 293.66
  A 9.11 8.56 -75.1 0 0 104.73 292.81
  C 106.44 291.49 107.78 290.03 109.77 288.78
  Q 115.24 285.34 120.35 281.68
  C 125.51 277.99 121.58 266.51 119.00 261.94
  Q 118.68 259.86 117.55 257.39
  Q 113.96 249.53 110.28 241.17
  A 0.95 0.94 -26.7 0 0 108.94 240.73
  L 106.23 242.29
  A 0.68 0.67 61.4 0 0 105.97 243.18
  L 110.17 251.48
  A 0.91 0.88 86.0 0 0 110.65 251.91
  Q 112.40 252.57 112.23 254.07
  A 1.15 0.88 18.3 0 1 110.67 254.61
  Q 107.51 253.13 106.16 252.71
  Q 103.19 251.76 101.62 250.74
  Q 99.60 249.43 97.31 247.40
  A 0.37 0.37 0.0 0 0 96.75 247.86
  C 97.67 249.44 99.51 250.95 99.61 253.19
  A 0.49 0.49 0.0 0 0 100.13 253.66
  C 104.42 253.40 108.93 256.29 112.19 257.37
  A 1.41 1.39 -4.2 0 1 112.99 258.05
  Q 113.99 260.05 116.02 260.37
  A 0.87 0.87 0.0 0 1 116.74 261.04
  Q 117.07 262.42 115.75 263.28
  A 1.76 1.72 85.5 0 0 115.09 264.07
  Q 114.37 265.84 113.70 268.46
  Q 113.12 270.72 111.15 270.91
  A 0.63 0.62 7.7 0 0 110.63 271.30
  Q 107.90 277.96 106.23 279.77
  Q 105.80 280.24 104.07 283.35
  Q 102.85 285.54 100.58 287.01
  A 0.58 0.57 56.6 0 1 99.78 286.84
  Q 98.27 284.53 98.71 282.25
  Q 100.02 280.91 99.86 279.24
  A 0.68 0.68 0.0 0 0 99.22 278.62
  Q 98.10 278.55 97.20 278.88
  A 0.98 0.96 61.6 0 1 96.07 278.53
  L 93.81 275.37
  Q 94.79 272.22 98.67 271.03
  A 2.54 2.40 -73.3 0 0 99.57 270.51
  Q 100.67 269.50 101.48 267.40
  A 0.34 0.34 0.0 0 0 100.94 267.02
  L 94.29 272.51
  A 1.99 1.98 58.6 0 1 91.20 271.76
  L 89.52 267.81
  A 1.98 1.98 0.0 0 1 90.34 265.32
  L 95.33 262.44
  A 0.31 0.30 28.6 0 0 95.16 261.87
  Q 92.74 261.98 90.60 262.94
  A 1.06 1.04 -40.3 0 1 89.61 262.87
  L 82.13 258.18
  Q 81.98 258.25 81.66 257.96
  Q 81.47 257.79 81.37 257.51
  Q 79.48 252.62 75.26 247.00
  Q 73.18 244.24 70.99 239.07
  Q 70.46 236.99 68.42 232.38
  Q 66.26 227.49 66.00 222.66
  A 2.20 2.20 0.0 0 0 64.82 220.83
  L 58.33 217.49
  L 57.16 215.15
  A 0.82 0.82 0.0 0 1 57.84 213.97
  L 68.76 213.22
  Q 71.35 212.97 73.65 213.67
  A 1.10 1.08 89.8 0 1 74.37 214.40
  Q 76.24 220.46 79.70 225.88
  A 0.97 0.97 0.0 0 0 80.67 226.32
  L 81.26 226.23
  A 0.93 0.93 0.0 0 0 81.92 224.85
  L 76.95 216.24
  A 0.53 0.52 -19.3 0 1 77.33 215.46
  L 78.17 215.33
  A 0.30 0.30 0.0 0 1 78.49 215.49
  L 84.35 226.21
  A 0.09 0.03 73.2 0 1 84.37 226.24
  Q 86.69 228.69 88.23 232.23
  A 0.89 0.89 0.0 0 0 89.82 232.32
  L 91.94 228.65
  A 1.03 1.00 6.9 0 1 92.57 228.17
  L 94.69 227.63
  A 0.92 0.91 65.1 0 0 95.20 226.22
  Q 92.22 221.98 88.09 218.91
  Q 86.48 217.71 84.33 212.82
  C 87.80 212.63 91.47 212.84 94.05 211.07
  A 1.94 1.94 0.0 0 0 94.73 210.28
  C 96.86 205.80 95.09 197.91 93.58 193.73
  L 94.00 193.72
  A 0.48 0.47 2.8 0 0 94.46 193.31
  L 94.64 191.95
  Q 97.15 200.40 97.42 202.82
  Q 97.86 206.70 96.46 210.49
  A 0.78 0.78 0.0 0 0 97.49 211.48
  Q 102.24 209.52 106.08 211.04
  A 2.46 2.45 38.0 0 0 108.42 210.76
  L 118.22 203.70
  A 1.10 1.10 0.0 0 0 118.59 202.36
  L 115.42 194.94
  A 0.95 0.92 -58.0 0 1 115.34 194.56
  Q 115.36 192.82 114.92 191.85
  Q 111.46 184.15 109.07 178.64
  A 0.43 0.43 0.0 0 1 109.40 178.05
  C 112.24 177.63 114.75 184.04 115.31 185.84
  A 1.35 1.34 7.3 0 0 115.87 186.56
  Q 116.80 187.15 117.35 187.78
  A 0.41 0.32 -83.0 0 1 117.44 187.93
  L 118.60 191.74
  A 0.93 0.92 -5.6 0 0 119.40 192.39
  Q 120.68 192.51 122.08 191.63
  Q 123.00 191.05 123.52 191.40
  Q 124.11 191.79 124.21 192.68
  A 1.23 1.22 19.2 0 0 124.56 193.40
  L 126.00 194.83
  A 0.76 0.76 0.0 0 1 126.00 195.90
  L 125.71 196.19
  A 0.34 0.34 0.0 0 1 125.19 196.15
  L 124.22 194.81
  A 0.95 0.95 0.0 0 0 123.34 194.41
  Q 122.05 194.53 121.08 194.11
  Z
  M 68.87 218.23
  Q 67.76 218.76 67.65 219.13
  Q 66.89 221.71 67.85 223.60
  Q 68.97 225.82 70.07 228.92
  C 71.33 232.49 73.89 235.24 75.87 238.56
  Q 77.63 241.53 77.92 242.16
  A 1.51 1.44 -81.5 0 0 78.25 242.63
  C 80.48 244.79 78.32 245.73 78.61 247.51
  Q 78.78 248.56 79.89 248.88
  A 0.78 0.64 5.2 0 0 80.90 248.20
  Q 80.81 247.71 81.23 247.50
  A 0.55 0.53 -36.5 0 1 81.84 247.58
  Q 85.97 251.48 90.99 252.99
  A 3.48 3.29 53.0 0 0 91.76 253.12
  L 97.13 253.36
  A 0.55 0.54 72.2 0 0 97.58 252.48
  C 95.84 250.23 93.91 248.12 93.86 246.14
  A 0.33 0.31 31.2 0 0 93.81 245.97
  L 82.86 228.03
  A 0.36 0.36 0.0 0 0 82.19 228.21
  Q 82.20 229.98 83.10 231.92
  A 0.74 0.73 61.9 0 1 82.82 232.86
  L 82.24 233.21
  A 0.87 0.85 -21.1 0 0 81.84 234.09
  L 83.17 242.53
  A 1.32 1.32 0.0 0 1 82.14 244.02
  L 82.03 244.05
  A 1.40 1.40 0.0 0 1 80.37 242.96
  C 79.88 240.51 80.47 237.79 79.05 235.09
  A 1.64 1.51 -61.1 0 1 78.87 234.35
  L 78.87 233.45
  A 2.70 2.43 -58.4 0 0 78.70 232.52
  Q 77.86 230.36 78.17 227.87
  A 1.28 1.26 -64.4 0 0 77.80 226.80
  C 76.70 225.71 76.79 224.06 76.06 222.55
  Q 74.70 219.76 73.55 216.66
  A 1.15 1.14 -20.6 0 0 72.07 215.99
  Q 70.81 216.46 69.62 217.70
  A 2.63 2.41 7.3 0 1 68.87 218.23
  Z
  M 102.99 237.40
  A 0.60 0.59 -28.4 0 0 104.02 237.70
  C 106.28 235.21 106.41 232.72 104.89 229.53
  Q 101.28 221.98 99.36 217.06
  A 0.50 0.50 0.0 0 0 98.41 217.15
  C 97.74 220.64 95.89 227.21 100.94 228.72
  A 1.20 1.20 0.0 0 1 101.77 229.67
  L 102.99 237.40
  Z
  M 94.1943 230.0089
  A 1.29 1.02 -75.9 0 0 92.8907 231.0115
  A 1.29 1.02 -75.9 0 0 93.5657 232.5111
  A 1.29 1.02 -75.9 0 0 94.8693 231.5085
  A 1.29 1.02 -75.9 0 0 94.1943 230.0089
  Z
  M 81.60 249.80
  L 82.14 254.69
  A 0.10 0.10 0.0 0 0 82.25 254.78
  L 82.27 254.77
  A 2.42 1.92 83.7 0 0 83.91 252.16
  L 83.88 251.88
  A 2.42 1.92 83.7 0 0 81.70 249.68
  L 81.68 249.69
  A 0.10 0.10 0.0 0 0 81.60 249.80
  Z
  M 147.72 287.35
  L 145.03 288.62
  L 139.21 292.17
  A 2.30 2.30 0.0 0 0 138.22 294.83
  C 139.90 300.03 141.79 306.19 144.69 310.89
  C 147.20 314.95 150.70 318.67 154.49 322.88
  C 156.85 325.50 161.55 323.55 163.92 321.54
  L 168.58 318.23
  A 0.80 0.70 -64.7 0 1 168.88 318.10
  Q 169.58 317.94 170.20 317.45
  A 0.42 0.42 0.0 0 0 170.14 316.76
  Q 168.30 315.74 167.21 313.53
  Q 163.85 306.75 159.53 300.01
  A 3.09 2.95 25.3 0 1 159.12 298.94
  Q 159.00 298.17 158.82 297.95
  Q 155.27 293.52 152.28 288.11
  L 150.88 286.63
  A 0.92 0.92 0.0 0 0 150.03 286.36
  Q 148.52 286.64 147.72 287.35
  Z
  M 128.85 291.31
  Q 128.07 291.78 127.92 292.32
  Q 127.68 293.15 128.19 293.63
  C 128.83 294.22 129.59 294.33 130.29 295.15
  Q 131.74 296.85 132.07 296.65
  Q 132.40 296.46 131.57 294.38
  C 131.18 293.38 131.44 292.65 131.22 291.81
  Q 131.03 291.13 130.19 290.95
  Q 129.64 290.84 128.85 291.31
  Z
  M 113.5095 300.8491
  A 1.77 1.55 -79.6 0 0 111.6655 302.3102
  A 1.77 1.55 -79.6 0 0 112.8705 304.3309
  A 1.77 1.55 -79.6 0 0 114.7145 302.8698
  A 1.77 1.55 -79.6 0 0 113.5095 300.8491
  Z
  M 99.89 313.97
  L 99.89 311.60
  A 0.84 0.84 0.0 0 0 99.33 310.81
  Q 98.43 310.49 97.48 310.63
  A 0.95 0.95 0.0 0 0 96.86 312.14
  Q 97.88 313.49 99.24 314.33
  A 0.43 0.42 15.9 0 0 99.89 313.97
  Z
  M 227.45 401.51
  A 1.53 1.52 17.7 0 0 228.56 403.65
  Q 229.82 403.89 232.59 403.17
  A 1.12 1.08 1.7 0 0 233.36 402.47
  Q 233.84 401.13 233.65 399.32
  A 0.91 0.89 -88.8 0 0 232.91 398.53
  Q 229.12 397.91 227.45 401.51
  Z
  M 204.90 423.94
  A 0.30 0.29 9.9 0 0 205.37 423.61
  Q 204.65 421.79 204.63 420.65
  A 1.58 1.56 68.0 0 0 201.99 419.51
  Q 201.76 419.72 202.22 420.57
  Q 203.25 422.47 204.90 423.94
  Z
  M 187.71 423.55
  L 184.97 425.19
  A 0.25 0.25 0.0 0 0 184.88 425.53
  L 184.96 425.66
  A 2.14 1.83 59.2 0 0 187.62 426.56
  L 187.66 426.54
  A 2.14 1.83 59.2 0 0 188.13 423.77
  L 188.06 423.64
  A 0.25 0.25 0.0 0 0 187.71 423.55
  Z
  M 171.61 426.78
  L 169.48 428.20
  A 0.46 0.46 0.0 0 0 169.35 428.83
  L 169.43 428.96
  A 2.27 1.59 56.5 0 0 172.01 429.97
  L 172.26 429.81
  A 2.27 1.59 56.5 0 0 172.33 427.04
  L 172.25 426.91
  A 0.46 0.46 0.0 0 0 171.61 426.78
  Z"
/>
<path fill="#7d7da5" d="
  M 64.40 194.55
  L 58.69 197.74
  Q 51.58 191.76 49.95 188.73
  Q 48.56 186.15 48.28 183.03
  A 0.68 0.68 0.0 0 1 49.50 182.56
  Q 49.64 182.75 51.00 184.51
  A 0.88 0.87 22.5 0 0 52.56 183.87
  Q 52.51 183.49 53.17 183.10
  A 0.95 0.95 0.0 0 1 54.10 183.08
  Q 55.89 184.01 56.38 182.14
  A 0.40 0.40 0.0 0 1 57.09 182.00
  Q 61.39 187.50 64.40 194.55
  Z
  M 59.40 193.40
  L 58.62 186.10
  A 0.11 0.11 0.0 0 0 58.50 186.00
  L 58.48 186.00
  A 3.63 3.33 83.9 0 0 55.55 189.96
  L 55.59 190.26
  A 3.63 3.33 83.9 0 0 59.28 193.52
  L 59.30 193.52
  A 0.11 0.11 0.0 0 0 59.40 193.40
  Z"
/>
<path fill="#e5ebfd" d="
  M 94.64 191.95
  L 94.46 193.31
  A 0.48 0.47 2.8 0 1 94.00 193.72
  L 93.58 193.73
  L 86.62 182.81
  A 0.46 0.45 73.8 0 1 87.00 182.11
  L 88.05 182.11
  A 0.91 0.89 66.0 0 1 88.66 182.35
  C 92.22 185.64 94.58 187.49 94.64 191.95
  Z"
/>
<path fill="#e5ebfd" d="
  M 59.40 193.40
  A 0.11 0.11 0.0 0 1 59.30 193.52
  L 59.28 193.52
  A 3.63 3.33 83.9 0 1 55.59 190.26
  L 55.55 189.96
  A 3.63 3.33 83.9 0 1 58.48 186.00
  L 58.50 186.00
  A 0.11 0.11 0.0 0 1 58.62 186.10
  L 59.40 193.40
  Z"
/>
<path fill="#7d7da5" d="
  M 184.33 191.96
  A 0.11 0.11 0.0 0 1 184.48 192.00
  L 184.50 192.03
  A 2.93 2.46 -27.6 0 1 183.04 195.57
  L 177.40 198.52
  A 2.93 2.46 -27.6 0 1 173.67 197.69
  L 173.65 197.67
  A 0.11 0.11 0.0 0 1 173.70 197.52
  L 184.33 191.96
  Z"
/>
<path fill="#7d7da5" d="
  M 121.08 194.11
  Q 119.60 193.71 118.95 194.70
  A 2.14 2.02 21.1 0 0 120.45 197.84
  Q 121.00 197.94 121.77 197.92
  A 2.44 2.42 77.3 0 1 124.09 199.40
  L 125.43 202.52
  A 0.69 0.67 81.0 0 0 125.99 202.94
  L 128.07 203.15
  C 126.74 203.28 125.69 203.30 124.45 203.91
  C 123.44 204.41 122.67 204.23 121.99 203.35
  Q 119.59 200.22 118.47 196.64
  A 2.60 2.43 70.4 0 1 119.83 193.51
  Q 120.32 193.32 121.08 194.11
  Z"
/>
<path fill="#bac2ed" d="
  M 113.33 202.70
  A 0.29 0.29 0.0 0 1 113.06 203.01
  L 112.88 203.02
  A 2.01 1.59 -4.5 0 1 110.75 201.60
  L 110.73 201.36
  A 2.01 1.59 -4.5 0 1 112.61 199.61
  L 112.79 199.60
  A 0.29 0.29 0.0 0 1 113.10 199.87
  L 113.33 202.70
  Z"
/>
<path fill="#7d7da5" d="
  M 139.11 204.42
  Q 139.28 203.14 139.02 202.13
  Q 140.39 202.67 141.58 201.43
  A 0.56 0.56 0.0 0 1 142.41 201.44
  Q 142.89 201.97 143.24 203.10
  Q 143.62 204.33 142.39 204.36
  Q 141.79 204.38 140.53 203.49
  A 0.56 0.56 0.0 0 0 139.67 203.79
  Q 139.58 204.09 139.11 204.42
  Z"
/>
<path fill="#bac2ed" d="
  M 139.02 202.13
  Q 139.28 203.14 139.11 204.42
  Q 138.01 205.56 136.34 203.39
  A 0.97 0.97 0.0 0 1 137.27 201.84
  L 139.02 202.13
  Z"
/>
<ellipse fill="#bac2ed" cx="0.00" cy="0.00" transform="translate(141.74,207.80) rotate(-151.8)" rx="2.45" ry="1.26"/>
<path fill="#7d7da5" d="
  M 84.33 212.82
  Q 86.48 217.71 88.09 218.91
  Q 92.22 221.98 95.20 226.22
  A 0.92 0.91 65.1 0 1 94.69 227.63
  L 92.57 228.17
  A 1.03 1.00 6.9 0 0 91.94 228.65
  L 89.82 232.32
  A 0.89 0.89 0.0 0 1 88.23 232.23
  Q 86.69 228.69 84.37 226.24
  A 0.09 0.03 73.2 0 0 84.35 226.21
  L 78.49 215.49
  A 0.30 0.30 0.0 0 0 78.17 215.33
  L 77.33 215.46
  A 0.53 0.52 -19.3 0 0 76.95 216.24
  L 81.92 224.85
  A 0.93 0.93 0.0 0 1 81.26 226.23
  L 80.67 226.32
  A 0.97 0.97 0.0 0 1 79.70 225.88
  Q 76.24 220.46 74.37 214.40
  A 1.10 1.08 89.8 0 0 73.65 213.67
  Q 71.35 212.97 68.76 213.22
  L 84.33 212.82
  Z"
/>
<path fill="#7d7da5" d="
  M 69.62 217.70
  Q 70.81 216.46 72.07 215.99
  A 1.15 1.14 -20.6 0 1 73.55 216.66
  Q 74.70 219.76 76.06 222.55
  C 76.79 224.06 76.70 225.71 77.80 226.80
  A 1.28 1.26 -64.4 0 1 78.17 227.87
  Q 77.86 230.36 78.70 232.52
  A 2.70 2.43 -58.4 0 1 78.87 233.45
  L 78.87 234.35
  A 1.64 1.51 -61.1 0 0 79.05 235.09
  C 80.47 237.79 79.88 240.51 80.37 242.96
  A 1.40 1.40 0.0 0 0 82.03 244.05
  L 82.14 244.02
  A 1.32 1.32 0.0 0 0 83.17 242.53
  L 81.84 234.09
  A 0.87 0.85 -21.1 0 1 82.24 233.21
  L 82.82 232.86
  A 0.74 0.73 61.9 0 0 83.10 231.92
  Q 82.20 229.98 82.19 228.21
  A 0.36 0.36 0.0 0 1 82.86 228.03
  L 93.81 245.97
  A 0.33 0.31 31.2 0 1 93.86 246.14
  C 93.91 248.12 95.84 250.23 97.58 252.48
  A 0.55 0.54 72.2 0 1 97.13 253.36
  L 91.76 253.12
  A 3.48 3.29 53.0 0 1 90.99 252.99
  Q 85.97 251.48 81.84 247.58
  A 0.55 0.53 -36.5 0 0 81.23 247.50
  Q 80.81 247.71 80.90 248.20
  A 0.78 0.64 5.2 0 1 79.89 248.88
  Q 78.78 248.56 78.61 247.51
  C 78.32 245.73 80.48 244.79 78.25 242.63
  A 1.51 1.44 -81.5 0 1 77.92 242.16
  Q 77.63 241.53 75.87 238.56
  C 73.89 235.24 71.33 232.49 70.07 228.92
  Q 68.97 225.82 67.85 223.60
  Q 66.89 221.71 67.65 219.13
  Q 67.76 218.76 68.87 218.23
  A 2.63 2.41 7.3 0 0 69.62 217.70
  Z
  M 92.14 247.63
  A 0.49 0.49 0.0 0 0 92.65 247.09
  C 92.29 244.00 86.58 245.12 84.99 245.52
  A 1.16 1.16 0.0 0 0 84.69 247.64
  Q 85.78 248.29 87.56 247.72
  Q 88.35 247.47 92.14 247.63
  Z"
/>
<path fill="#7d7da5" d="
  M 102.99 237.40
  L 101.77 229.67
  A 1.20 1.20 0.0 0 0 100.94 228.72
  C 95.89 227.21 97.74 220.64 98.41 217.15
  A 0.50 0.50 0.0 0 1 99.36 217.06
  Q 101.28 221.98 104.89 229.53
  C 106.41 232.72 106.28 235.21 104.02 237.70
  A 0.60 0.59 -28.4 0 1 102.99 237.40
  Z"
/>
<path fill="#7d7da5" d="
  M 70.99 239.07
  Q 66.96 234.79 66.01 233.23
  Q 61.47 225.84 58.33 217.49
  L 64.82 220.83
  A 2.20 2.20 0.0 0 1 66.00 222.66
  Q 66.26 227.49 68.42 232.38
  Q 70.46 236.99 70.99 239.07
  Z"
/>
<path fill="#bac2ed" d="
  M 502.52 221.72
  Q 505.72 224.40 505.82 227.91
  Q 502.33 230.93 497.59 232.11
  A 1.01 1.01 0.0 0 0 496.87 232.83
  L 496.02 236.25
  A 0.79 0.78 -16.2 0 1 495.81 236.63
  Q 494.85 237.62 493.82 237.72
  A 0.51 0.50 1.3 0 1 493.27 237.15
  Q 493.29 236.95 493.97 235.71
  C 494.92 233.96 494.36 229.11 494.04 227.35
  Q 493.80 226.06 494.08 224.68
  C 494.33 223.41 493.56 222.23 493.96 221.05
  Q 494.45 219.59 496.74 218.07
  A 0.21 0.21 0.0 0 1 497.06 218.32
  C 495.58 222.06 496.32 225.59 496.69 229.55
  A 0.89 0.88 -14.2 0 0 497.92 230.28
  L 503.68 227.81
  A 1.68 1.68 0.0 0 0 504.18 225.05
  Q 502.50 223.46 502.52 221.72
  Z"
/>
<path fill="#bac2ed" d="
  M 507.71 229.47
  Q 509.65 231.04 508.76 232.84
  Q 507.01 231.99 505.45 232.10
  A 0.77 0.77 0.0 0 1 504.73 230.94
  Q 505.61 229.45 507.71 229.47
  Z"
/>
<path fill="#7d7da5" d="
  M 156.33 233.16
  Q 156.19 230.77 153.96 231.30
  Q 154.17 231.22 154.31 231.03
  Q 154.49 230.80 154.65 230.80
  Q 155.85 230.76 156.99 230.26
  Q 158.84 229.46 159.29 229.74
  Q 160.62 230.55 160.81 232.33
  A 0.69 0.69 0.0 0 1 159.84 233.03
  Q 157.93 232.18 156.33 233.16
  Z"
/>
<ellipse fill="#7d7da5" cx="0.00" cy="0.00" transform="translate(93.88,231.26) rotate(-75.9)" rx="1.29" ry="1.02"/>
<path fill="#bac2ed" d="
  M 156.33 233.16
  Q 154.04 234.69 153.96 231.30
  Q 156.19 230.77 156.33 233.16
  Z"
/>
<ellipse fill="#bac2ed" cx="0.00" cy="0.00" transform="translate(158.63,236.47) rotate(-143.9)" rx="2.75" ry="1.51"/>
<path fill="#7d7da5" d="
  M 172.73 253.17
  A 0.25 0.25 0.0 0 1 172.38 253.09
  L 165.32 241.52
  A 3.54 0.73 58.6 0 1 164.10 238.12
  L 164.20 238.06
  A 3.54 0.73 58.6 0 1 166.67 240.70
  L 173.73 252.27
  A 0.25 0.25 0.0 0 1 173.65 252.61
  L 172.73 253.17
  Z"
/>
<path fill="#7d7da5" d="
  M 119.00 261.94
  Q 112.71 270.36 114.42 281.25
  A 0.98 0.97 -7.9 0 1 113.57 282.37
  C 108.11 283.00 103.63 285.01 101.72 290.52
  A 0.56 0.55 34.0 0 1 100.77 290.70
  Q 97.41 286.82 98.71 282.25
  Q 98.27 284.53 99.78 286.84
  A 0.58 0.57 56.6 0 0 100.58 287.01
  Q 102.85 285.54 104.07 283.35
  Q 105.80 280.24 106.23 279.77
  Q 107.90 277.96 110.63 271.30
  A 0.63 0.62 7.7 0 1 111.15 270.91
  Q 113.12 270.72 113.70 268.46
  Q 114.37 265.84 115.09 264.07
  A 1.76 1.72 85.5 0 1 115.75 263.28
  Q 117.07 262.42 116.74 261.04
  A 0.87 0.87 0.0 0 0 116.02 260.37
  Q 113.99 260.05 112.99 258.05
  A 1.41 1.39 -4.2 0 0 112.19 257.37
  C 108.93 256.29 104.42 253.40 100.13 253.66
  A 0.49 0.49 0.0 0 1 99.61 253.19
  C 99.51 250.95 97.67 249.44 96.75 247.86
  A 0.37 0.37 0.0 0 1 97.31 247.40
  Q 99.60 249.43 101.62 250.74
  Q 103.19 251.76 106.16 252.71
  Q 107.51 253.13 110.67 254.61
  A 1.15 0.88 18.3 0 0 112.23 254.07
  Q 112.40 252.57 110.65 251.91
  A 0.91 0.88 86.0 0 1 110.17 251.48
  L 105.97 243.18
  A 0.68 0.67 61.4 0 1 106.23 242.29
  L 108.94 240.73
  A 0.95 0.94 -26.7 0 1 110.28 241.17
  Q 113.96 249.53 117.55 257.39
  Q 118.68 259.86 119.00 261.94
  Z"
/>
<path fill="#bac2ed" d="
  M 92.14 247.63
  Q 88.35 247.47 87.56 247.72
  Q 85.78 248.29 84.69 247.64
  A 1.16 1.16 0.0 0 1 84.99 245.52
  C 86.58 245.12 92.29 244.00 92.65 247.09
  A 0.49 0.49 0.0 0 1 92.14 247.63
  Z"
/>
<path fill="#7d7da5" d="
  M 81.60 249.80
  A 0.10 0.10 0.0 0 1 81.68 249.69
  L 81.70 249.68
  A 2.42 1.92 83.7 0 1 83.88 251.88
  L 83.91 252.16
  A 2.42 1.92 83.7 0 1 82.27 254.77
  L 82.25 254.78
  A 0.10 0.10 0.0 0 1 82.14 254.69
  L 81.60 249.80
  Z"
/>
<path fill="#e5ebfd" d="
  M 88.61 302.53
  C 92.08 307.80 94.81 313.52 99.28 318.04
  C 104.98 323.82 109.23 331.02 112.93 338.84
  C 116.19 345.72 121.68 351.21 129.21 359.52
  Q 132.25 362.87 134.88 364.90
  C 141.47 369.98 144.54 376.45 149.05 384.72
  Q 151.51 389.22 152.79 393.52
  L 144.85 394.73
  Q 143.81 394.82 142.74 395.54
  Q 141.45 395.06 140.18 395.06
  A 1.30 1.29 -69.6 0 0 139.23 395.50
  Q 137.43 397.56 135.31 398.69
  A 1.77 1.77 0.0 0 1 132.96 398.05
  L 131.79 396.14
  A 0.93 0.92 62.6 0 0 130.64 395.77
  L 124.33 398.47
  A 3.12 3.03 -80.1 0 0 123.24 399.26
  L 119.01 404.03
  A 2.45 2.39 4.1 0 1 118.43 404.52
  Q 115.09 406.58 111.37 407.05
  Q 109.72 406.82 110.12 404.96
  Q 110.13 404.63 110.30 404.29
  Q 110.69 404.30 110.55 403.77
  Q 110.42 403.24 110.10 403.42
  Q 108.37 397.89 105.47 392.79
  Q 92.43 369.85 78.82 347.28
  Q 78.69 345.70 77.22 345.00
  L 77.04 344.73
  Q 76.98 344.30 76.55 344.21
  Q 76.58 344.14 76.60 344.08
  L 75.28 340.98
  A 0.86 0.84 89.0 0 0 74.81 340.52
  Q 74.14 340.25 73.42 340.55
  Q 64.93 333.43 61.18 323.81
  Q 56.99 313.07 53.01 305.76
  Q 44.09 289.38 34.78 273.22
  Q 31.94 268.28 30.27 261.37
  Q 31.09 259.35 32.57 258.34
  A 0.76 0.75 44.5 0 1 33.42 258.34
  Q 35.34 259.62 36.57 261.70
  Q 44.79 275.71 44.94 275.97
  Q 48.83 283.11 54.03 289.75
  C 59.69 296.99 69.62 309.17 79.72 307.75
  C 82.50 307.37 85.94 304.22 88.61 302.53
  Z
  M 75.48 319.61
  L 70.04 319.48
  A 1.59 1.59 0.0 0 0 68.72 322.02
  L 71.24 325.44
  Q 72.13 326.28 72.74 327.61
  Q 73.29 329.77 74.29 330.76
  A 2.51 2.30 -59.7 0 0 78.22 329.54
  Q 78.56 328.49 79.72 328.17
  A 0.81 0.80 -24.3 0 1 80.61 328.50
  Q 82.75 331.70 85.92 331.89
  Q 87.60 330.74 87.62 329.54
  Q 87.70 324.99 86.06 322.34
  L 82.15 315.88
  L 75.48 319.61
  Z
  M 70.0180 327.9511
  A 1.19 1.19 0.0 0 0 68.9842 326.6231
  L 67.2576 326.4080
  A 1.19 1.19 0.0 0 0 65.9296 327.4418
  L 65.7220 329.1089
  A 1.19 1.19 0.0 0 0 66.7558 330.4369
  L 68.4824 330.6520
  A 1.19 1.19 0.0 0 0 69.8104 329.6182
  L 70.0180 327.9511
  Z
  M 116.9315 400.7338
  A 1.51 0.85 -16.0 0 0 115.2457 400.3329
  A 1.51 0.85 -16.0 0 0 114.0285 401.5662
  A 1.51 0.85 -16.0 0 0 115.7143 401.9671
  A 1.51 0.85 -16.0 0 0 116.9315 400.7338
  Z"
/>
<path fill="#7d7da5" d="
  M 93.81 275.37
  Q 93.33 274.44 92.80 274.71
  A 0.38 0.38 0.0 0 0 92.60 275.09
  Q 93.08 280.74 95.74 285.47
  Q 96.79 287.34 97.03 288.12
  Q 97.47 289.56 97.89 290.98
  Q 98.17 291.91 99.11 292.43
  A 1.12 1.12 0.0 0 1 99.14 294.38
  L 92.65 298.12
  A 0.54 0.53 85.0 0 1 91.88 297.47
  C 92.39 296.07 92.87 294.75 92.81 293.13
  Q 92.53 285.30 91.71 282.54
  Q 89.93 276.56 88.76 272.16
  A 0.56 0.52 24.6 0 0 88.69 271.99
  L 82.73 261.34
  A 3.24 3.11 28.2 0 1 82.34 260.13
  L 82.13 258.18
  L 89.61 262.87
  A 1.06 1.04 -40.3 0 0 90.60 262.94
  Q 92.74 261.98 95.16 261.87
  A 0.31 0.30 28.6 0 1 95.33 262.44
  L 90.34 265.32
  A 1.98 1.98 0.0 0 0 89.52 267.81
  L 91.20 271.76
  A 1.99 1.98 58.6 0 0 94.29 272.51
  L 100.94 267.02
  A 0.34 0.34 0.0 0 1 101.48 267.40
  Q 100.67 269.50 99.57 270.51
  A 2.54 2.40 -73.3 0 1 98.67 271.03
  Q 94.79 272.22 93.81 275.37
  Z"
/>
<path fill="#7d7da5" d="
  M 173.92 261.81
  Q 174.21 260.36 173.48 260.14
  Q 174.71 259.76 175.67 258.71
  A 1.17 1.17 0.0 0 1 177.68 259.32
  L 178.16 262.37
  A 0.82 0.82 0.0 0 1 176.84 263.14
  Q 175.46 262.04 173.92 261.81
  Z"
/>
<path fill="#bac2ed" d="
  M 173.48 260.14
  Q 174.21 260.36 173.92 261.81
  Q 172.08 264.18 171.32 260.41
  A 0.41 0.41 0.0 0 1 171.78 259.92
  L 173.48 260.14
  Z"
/>
<path fill="#bac2ed" d="
  M 469.39 262.41
  Q 465.58 264.95 463.76 267.75
  Q 463.26 268.53 464.37 270.07
  Q 460.61 270.06 458.48 271.72
  Q 450.15 278.21 441.43 284.15
  Q 440.32 284.91 439.79 286.12
  Q 439.25 287.37 440.54 287.93
  Q 441.55 288.37 442.86 288.25
  L 445.78 298.65
  A 1.24 1.24 0.0 0 0 447.77 299.27
  L 456.95 291.69
  A 2.49 2.42 86.7 0 0 457.53 291.02
  C 458.92 288.66 459.50 287.67 460.43 286.43
  Q 461.53 284.95 461.04 282.73
  Q 460.17 278.78 458.17 277.24
  Q 462.22 274.82 465.20 271.36
  Q 467.95 276.55 470.01 282.80
  C 471.29 286.71 472.02 290.87 469.18 294.44
  C 464.16 300.78 455.89 307.21 447.59 309.10
  Q 446.49 308.87 445.47 309.08
  Q 443.23 308.98 442.66 307.15
  A 1.00 0.97 -39.1 0 1 442.75 306.38
  L 445.13 302.26
  A 1.38 1.38 0.0 0 0 443.15 300.44
  Q 441.70 301.44 438.67 301.31
  A 0.93 0.92 -89.0 0 1 437.78 300.38
  L 437.78 296.08
  A 0.95 0.95 0.0 0 0 437.21 295.21
  L 430.85 292.34
  Q 430.70 291.98 431.45 290.66
  Q 449.75 275.78 469.39 262.41
  Z"
/>
<ellipse fill="#bac2ed" cx="0.00" cy="0.00" transform="translate(176.10,265.74) rotate(-149.8)" rx="2.61" ry="0.96"/>
<path fill="#0e0c0e" d="
  M 464.37 270.07
  L 465.20 271.36
  Q 462.22 274.82 458.17 277.24
  L 442.86 288.25
  Q 441.55 288.37 440.54 287.93
  Q 439.25 287.37 439.79 286.12
  Q 440.32 284.91 441.43 284.15
  Q 450.15 278.21 458.48 271.72
  Q 460.61 270.06 464.37 270.07
  Z"
/>
<path fill="#7d7da5" d="
  M 173.20 271.76
  Q 174.14 271.47 174.05 270.76
  Q 174.61 271.74 174.95 272.78
  Q 175.39 274.11 174.10 274.68
  A 0.69 0.69 0.0 0 1 173.13 274.03
  L 173.20 271.76
  Z"
/>
<path fill="#7d7da5" d="
  M 187.89 303.67
  Q 186.37 305.26 184.38 306.36
  Q 181.70 307.83 180.59 308.66
  Q 176.44 311.75 170.98 312.50
  A 2.11 2.11 0.0 0 1 168.89 311.51
  L 156.96 291.97
  A 1.04 0.97 -62.9 0 1 156.83 291.51
  Q 156.80 289.93 157.03 289.26
  A 0.68 0.67 24.7 0 0 156.73 288.46
  L 155.67 287.85
  A 0.63 0.62 -52.2 0 1 155.55 286.86
  Q 156.58 285.85 158.12 284.87
  Q 161.27 282.86 170.73 277.51
  Q 171.97 276.80 171.68 275.61
  Q 172.94 280.20 174.32 282.21
  Q 181.58 292.80 187.89 303.67
  Z"
/>
<path fill="#e5ebfd" d="
  M 458.17 277.24
  Q 460.17 278.78 461.04 282.73
  Q 461.53 284.95 460.43 286.43
  C 459.50 287.67 458.92 288.66 457.53 291.02
  A 2.49 2.42 86.7 0 1 456.95 291.69
  L 447.77 299.27
  A 1.24 1.24 0.0 0 1 445.78 298.65
  L 442.86 288.25
  L 458.17 277.24
  Z"
/>
<path fill="#7d7da5" d="
  M 152.28 288.11
  L 150.99 290.19
  A 0.75 0.75 0.0 0 1 150.14 290.52
  Q 148.41 290.03 147.72 287.35
  Q 148.52 286.64 150.03 286.36
  A 0.92 0.92 0.0 0 1 150.88 286.63
  L 152.28 288.11
  Z"
/>
<path fill="#0e0c0e" d="
  M 147.72 287.35
  Q 148.41 290.03 150.14 290.52
  A 0.75 0.75 0.0 0 0 150.99 290.19
  L 152.28 288.11
  Q 155.27 293.52 158.82 297.95
  Q 159.00 298.17 159.12 298.94
  A 3.09 2.95 25.3 0 0 159.53 300.01
  Q 163.85 306.75 167.21 313.53
  Q 168.30 315.74 170.14 316.76
  A 0.42 0.42 0.0 0 1 170.20 317.45
  Q 169.58 317.94 168.88 318.10
  A 0.80 0.70 -64.7 0 0 168.58 318.23
  L 163.92 321.54
  Q 162.80 322.06 163.57 319.41
  A 5.26 5.07 -41.3 0 0 163.74 317.33
  Q 162.81 309.37 158.60 302.53
  A 1.26 1.20 29.6 0 1 158.42 301.93
  L 158.26 298.58
  A 0.99 0.96 -71.5 0 0 157.93 297.89
  Q 154.85 295.18 150.81 293.29
  A 3.69 3.53 -11.3 0 1 150.02 292.79
  L 145.03 288.62
  L 147.72 287.35
  Z"
/>
<path fill="#7d7da5" d="
  M 145.03 288.62
  L 150.02 292.79
  A 3.69 3.53 -11.3 0 0 150.81 293.29
  Q 154.85 295.18 157.93 297.89
  A 0.99 0.96 -71.5 0 1 158.26 298.58
  L 158.42 301.93
  A 1.26 1.20 29.6 0 0 158.60 302.53
  Q 162.81 309.37 163.74 317.33
  A 5.26 5.07 -41.3 0 1 163.57 319.41
  Q 162.80 322.06 163.92 321.54
  C 161.55 323.55 156.85 325.50 154.49 322.88
  C 150.70 318.67 147.20 314.95 144.69 310.89
  C 141.79 306.19 139.90 300.03 138.22 294.83
  A 2.30 2.30 0.0 0 1 139.21 292.17
  L 145.03 288.62
  Z"
/>
<path fill="#bac2ed" d="
  M 189.51 288.97
  Q 190.73 288.88 191.33 289.42
  A 0.69 0.69 0.0 0 1 191.47 290.27
  L 190.52 291.93
  C 188.40 292.22 187.85 289.59 189.51 288.97
  Z"
/>
<path fill="#7d7da5" d="
  M 431.45 290.66
  Q 430.70 291.98 430.85 292.34
  L 404.96 310.15
  Q 417.58 299.66 431.45 290.66
  Z"
/>
<path fill="#0e0c0e" d="
  M 132.07 296.65
  Q 131.74 296.85 130.29 295.15
  C 129.59 294.33 128.83 294.22 128.19 293.63
  Q 127.68 293.15 127.92 292.32
  Q 128.07 291.78 128.85 291.31
  Q 129.64 290.84 130.19 290.95
  Q 131.03 291.13 131.22 291.81
  C 131.44 292.65 131.18 293.38 131.57 294.38
  Q 132.40 296.46 132.07 296.65
  Z"
/>
<ellipse fill="#0e0c0e" cx="0.00" cy="0.00" transform="translate(113.19,302.59) rotate(-79.6)" rx="1.77" ry="1.55"/>
<path fill="#bac2ed" d="
  M 397.79 304.42
  A 0.19 0.19 0.0 0 1 397.67 304.18
  L 397.70 304.09
  A 1.80 1.74 -71.3 0 1 399.93 302.95
  L 400.04 302.98
  A 1.80 1.74 -71.3 0 1 401.11 305.25
  L 401.08 305.33
  A 0.19 0.19 0.0 0 1 400.84 305.45
  L 397.79 304.42
  Z"
/>
<path fill="#7d7da5" d="
  M 447.59 309.10
  L 445.47 309.08
  Q 446.49 308.87 447.59 309.10
  Z"
/>
<path fill="#0e0c0e" d="
  M 99.24 314.33
  Q 97.88 313.49 96.86 312.14
  A 0.95 0.95 0.0 0 1 97.48 310.63
  Q 98.43 310.49 99.33 310.81
  A 0.84 0.84 0.0 0 1 99.89 311.60
  L 99.89 313.97
  A 0.43 0.42 15.9 0 1 99.24 314.33
  Z"
/>
<path fill="#7d7da5" d="
  M 82.15 315.88
  L 78.79 320.22
  A 1.54 1.53 32.5 0 1 76.87 320.64
  Q 75.69 320.03 74.06 319.88
  L 75.48 319.61
  L 82.15 315.88
  Z"
/>
<path fill="#0e0c0e" d="
  M 82.15 315.88
  L 86.06 322.34
  Q 83.41 323.72 81.45 325.77
  Q 79.84 326.46 77.68 327.59
  Q 74.72 329.15 72.74 327.61
  Q 72.13 326.28 71.24 325.44
  Q 70.90 322.92 72.51 320.56
  Q 72.81 320.13 74.06 319.88
  Q 75.69 320.03 76.87 320.64
  A 1.54 1.53 32.5 0 0 78.79 320.22
  L 82.15 315.88
  Z"
/>
<path fill="#7d7da5" d="
  M 207.57 320.52
  Q 208.29 320.36 208.60 319.85
  Q 208.97 319.27 208.42 318.75
  Q 207.57 317.96 205.97 318.21
  L 208.45 317.92
  A 1.42 1.42 0.0 0 0 209.30 317.50
  Q 210.06 316.70 210.78 316.43
  A 0.89 0.87 -29.1 0 1 211.77 316.70
  Q 214.18 319.76 211.50 321.56
  A 0.86 0.84 67.3 0 0 211.14 322.46
  Q 211.39 323.58 212.20 323.82
  Q 212.99 324.05 213.11 324.46
  Q 213.23 324.87 212.97 325.81
  A 1.07 1.06 -69.4 0 1 211.48 326.49
  Q 207.90 324.76 207.57 320.52
  Z"
/>
<path fill="#bac2ed" d="
  M 205.97 318.21
  Q 207.57 317.96 208.42 318.75
  Q 208.97 319.27 208.60 319.85
  Q 208.29 320.36 207.57 320.52
  Q 205.84 320.25 205.97 318.21
  Z"
/>
<path fill="#bac2ed" d="
  M 75.48 319.61
  L 74.06 319.88
  Q 72.81 320.13 72.51 320.56
  Q 70.90 322.92 71.24 325.44
  L 68.72 322.02
  A 1.59 1.59 0.0 0 1 70.04 319.48
  L 75.48 319.61
  Z"
/>
<path fill="#bac2ed" d="
  M 85.92 331.89
  L 81.45 325.77
  Q 83.41 323.72 86.06 322.34
  Q 87.70 324.99 87.62 329.54
  Q 87.60 330.74 85.92 331.89
  Z"
/>
<path fill="#7d7da5" d="
  M 81.45 325.77
  L 85.92 331.89
  Q 82.75 331.70 80.61 328.50
  A 0.81 0.80 -24.3 0 0 79.72 328.17
  Q 78.56 328.49 78.22 329.54
  A 2.51 2.30 -59.7 0 1 74.29 330.76
  Q 73.29 329.77 72.74 327.61
  Q 74.72 329.15 77.68 327.59
  Q 79.84 326.46 81.45 325.77
  Z"
/>
<rect fill="#0e0c0e" x="-2.06" y="-2.03" transform="translate(67.87,328.53) rotate(7.1)" width="4.12" height="4.06" rx="1.19"/>
<path fill="#7d7da5" d="
  M 76.60 344.08
  L 73.42 340.55
  Q 74.14 340.25 74.81 340.52
  A 0.86 0.84 89.0 0 1 75.28 340.98
  L 76.60 344.08
  Z"
/>
<path fill="#bac2ed" d="
  M 77.04 344.73
  Q 76.73 344.53 76.55 344.21
  Q 76.98 344.30 77.04 344.73
  Z"
/>
<path fill="#0e0c0e" d="
  M 78.82 347.28
  Q 77.78 346.41 77.22 345.00
  Q 78.69 345.70 78.82 347.28
  Z"
/>
<path fill="#7d7da5" d="
  M 224.31 350.16
  Q 222.82 349.27 223.34 347.53
  A 0.88 0.87 3.8 0 1 224.03 346.93
  L 229.30 346.10
  A 0.29 0.29 0.0 0 1 229.63 346.39
  L 229.63 347.49
  A 0.39 0.39 0.0 0 1 229.24 347.88
  L 227.95 347.88
  A 0.76 0.74 -74.6 0 0 227.30 348.26
  Q 226.70 349.30 225.15 350.17
  A 0.84 0.83 45.3 0 1 224.31 350.16
  Z"
/>
<ellipse fill="#7d7da5" cx="0.00" cy="0.00" transform="translate(226.98,352.23) rotate(-175.0)" rx="1.41" ry="1.09"/>
<path fill="#bac2ed" d="
  M 243.82 375.98
  A 0.44 0.44 0.0 0 1 244.29 376.39
  L 244.30 376.55
  A 2.14 1.79 85.4 0 1 242.69 378.82
  L 242.63 378.83
  A 2.14 1.79 85.4 0 1 240.67 376.84
  L 240.66 376.68
  A 0.44 0.44 0.0 0 1 241.06 376.21
  L 243.82 375.98
  Z"
/>
<ellipse fill="#bac2ed" cx="0.00" cy="0.00" transform="translate(272.24,382.86) rotate(-37.4)" rx="6.75" ry="1.32"/>
<path fill="#7d7da5" d="
  M 244.27 388.01
  Q 241.77 388.70 240.39 391.62
  Q 240.20 389.73 238.95 388.61
  Q 240.91 388.80 242.64 387.46
  A 1.27 1.24 75.1 0 0 243.10 386.65
  Q 243.22 385.73 243.01 384.64
  Q 244.19 386.04 244.27 388.01
  Z"
/>
<path fill="#bac2ed" d="
  M 244.27 388.01
  Q 245.70 388.88 245.81 390.14
  A 1.04 1.03 -24.3 0 1 245.48 391.00
  Q 241.62 394.45 240.39 391.62
  Q 241.77 388.70 244.27 388.01
  Z"
/>
<path fill="#7d7da5" d="
  M 238.61 388.50
  Q 234.50 389.70 235.01 393.76
  Q 234.23 390.82 232.43 389.72
  A 0.47 0.46 58.9 0 1 232.64 388.86
  L 238.61 388.50
  Z"
/>
<path fill="#0e0c0e" d="
  M 122.36 435.77
  L 104.36 447.19
  A 4.34 3.75 4.2 0 0 103.89 447.54
  L 100.01 451.00
  L 87.76 451.00
  L 85.75 450.59
  A 0.16 0.16 0.0 0 1 85.73 450.28
  Q 87.01 449.87 87.37 449.18
  Q 95.97 432.96 106.66 419.01
  L 116.52 425.39
  A 0.05 0.05 0.0 0 0 116.59 425.32
  C 114.48 421.58 111.33 419.94 108.28 417.17
  C 110.57 413.65 113.24 410.52 111.37 407.05
  Q 115.09 406.58 118.43 404.52
  A 2.45 2.39 4.1 0 0 119.01 404.03
  L 123.24 399.26
  A 3.12 3.03 -80.1 0 1 124.33 398.47
  L 130.64 395.77
  A 0.93 0.92 62.6 0 1 131.79 396.14
  L 132.96 398.05
  A 1.77 1.77 0.0 0 0 135.31 398.69
  Q 137.43 397.56 139.23 395.50
  A 1.30 1.29 -69.6 0 1 140.18 395.06
  Q 141.45 395.06 142.74 395.54
  L 147.47 400.88
  A 1.69 1.67 26.0 0 1 147.89 402.09
  Q 147.79 404.23 149.23 405.46
  A 1.21 1.19 13.9 0 1 149.63 406.11
  L 151.37 413.53
  A 0.40 0.40 0.0 0 0 152.12 413.61
  Q 154.18 409.42 151.52 406.81
  A 2.11 2.08 -75.9 0 1 150.99 405.91
  Q 149.18 399.68 144.85 394.73
  L 152.79 393.52
  Q 164.63 391.95 170.87 390.88
  Q 172.94 390.53 173.78 392.42
  Q 174.69 394.48 175.20 397.12
  A 1.75 1.74 69.0 0 1 174.38 398.96
  Q 170.44 401.29 167.60 403.61
  Q 159.54 410.20 150.24 417.29
  A 3.75 3.58 -72.9 0 1 149.31 417.81
  C 144.94 419.51 143.32 417.99 142.12 423.79
  A 2.06 2.03 -21.3 0 1 141.73 424.66
  Q 140.24 426.59 137.88 426.37
  A 1.12 1.11 18.0 0 0 136.81 426.91
  Q 135.30 429.48 132.93 428.44
  A 1.13 1.09 -44.6 0 0 132.04 428.45
  Q 130.88 428.96 130.61 429.32
  A 1.56 1.56 0.0 0 1 129.55 429.93
  Q 126.33 430.28 125.04 433.44
  A 1.07 1.06 29.2 0 1 123.42 433.89
  Q 122.03 432.86 121.56 430.97
  A 2.66 2.46 -71.1 0 0 121.21 430.18
  Q 119.75 427.93 117.42 426.12
  A 0.17 0.17 0.0 0 0 117.16 426.34
  L 122.36 435.77
  Z
  M 169.79 392.89
  L 171.48 398.02
  A 0.12 0.12 0.0 0 0 171.63 398.10
  L 171.65 398.09
  A 2.40 2.06 71.8 0 0 172.86 395.17
  L 172.59 394.37
  A 2.40 2.06 71.8 0 0 169.89 392.73
  L 169.87 392.74
  A 0.12 0.12 0.0 0 0 169.79 392.89
  Z"
/>
<path fill="#7d7da5" d="
  M 169.79 392.89
  A 0.12 0.12 0.0 0 1 169.87 392.74
  L 169.89 392.73
  A 2.40 2.06 71.8 0 1 172.59 394.37
  L 172.86 395.17
  A 2.40 2.06 71.8 0 1 171.65 398.09
  L 171.63 398.10
  A 0.12 0.12 0.0 0 1 171.48 398.02
  L 169.79 392.89
  Z"
/>
<path fill="#7d7da5" d="
  M 288.25 393.82
  A 0.11 0.11 0.0 0 1 288.36 393.93
  L 288.36 393.96
  A 2.36 2.00 1.9 0 1 285.93 395.88
  L 283.22 395.79
  A 2.36 2.00 1.9 0 1 280.92 393.72
  L 280.92 393.69
  A 0.11 0.11 0.0 0 1 281.04 393.58
  L 288.25 393.82
  Z"
/>
<path fill="#7d7da5" d="
  M 144.85 394.73
  Q 149.18 399.68 150.99 405.91
  A 2.11 2.08 -75.9 0 0 151.52 406.81
  Q 154.18 409.42 152.12 413.61
  A 0.40 0.40 0.0 0 1 151.37 413.53
  L 149.63 406.11
  A 1.21 1.19 13.9 0 0 149.23 405.46
  Q 147.79 404.23 147.89 402.09
  A 1.69 1.67 26.0 0 0 147.47 400.88
  L 142.74 395.54
  Q 143.81 394.82 144.85 394.73
  Z"
/>
<path fill="#7d7da5" d="
  M 243.72 401.26
  Q 244.96 404.97 247.66 407.99
  A 0.50 0.50 0.0 0 1 247.49 408.78
  L 243.44 410.51
  A 1.51 1.50 73.0 0 1 241.37 409.40
  L 240.44 404.58
  A 2.08 1.92 27.3 0 0 240.21 403.95
  L 236.63 397.53
  C 239.72 396.71 240.31 399.12 241.38 401.06
  A 1.12 1.08 80.5 0 0 242.12 401.61
  Q 242.98 401.79 243.72 401.26
  Z"
/>
<path fill="#0e0c0e" d="
  M 227.45 401.51
  Q 229.12 397.91 232.91 398.53
  A 0.91 0.89 -88.8 0 1 233.65 399.32
  Q 233.84 401.13 233.36 402.47
  A 1.12 1.08 1.7 0 1 232.59 403.17
  Q 229.82 403.89 228.56 403.65
  A 1.53 1.52 17.7 0 1 227.45 401.51
  Z"
/>
<ellipse fill="#bac2ed" cx="0.00" cy="0.00" transform="translate(115.48,401.15) rotate(-16.0)" rx="1.51" ry="0.85"/>
<path fill="#7d7da5" d="
  M 110.30 404.29
  L 110.08 403.98
  Q 109.97 403.55 110.10 403.42
  Q 110.42 403.24 110.55 403.77
  Q 110.69 404.30 110.30 404.29
  Z"
/>
<path fill="#0e0c0e" d="
  M 110.30 404.29
  Q 110.13 404.63 110.12 404.96
  L 110.08 403.98
  L 110.30 404.29
  Z"
/>
<ellipse fill="#bac2ed" cx="0.00" cy="0.00" transform="translate(259.31,405.99) rotate(-163.8)" rx="1.06" ry="0.89"/>
<path fill="#7d7da5" d="
  M 108.28 417.17
  C 111.33 419.94 114.48 421.58 116.59 425.32
  A 0.05 0.05 0.0 0 1 116.52 425.39
  L 106.66 419.01
  L 108.28 417.17
  Z"
/>
<path fill="#0e0c0e" d="
  M 204.90 423.94
  Q 203.25 422.47 202.22 420.57
  Q 201.76 419.72 201.99 419.51
  A 1.58 1.56 68.0 0 1 204.63 420.65
  Q 204.65 421.79 205.37 423.61
  A 0.30 0.29 9.9 0 1 204.90 423.94
  Z"
/>
<path fill="#0e0c0e" d="
  M 187.71 423.55
  A 0.25 0.25 0.0 0 1 188.06 423.64
  L 188.13 423.77
  A 2.14 1.83 59.2 0 1 187.66 426.54
  L 187.62 426.56
  A 2.14 1.83 59.2 0 1 184.96 425.66
  L 184.88 425.53
  A 0.25 0.25 0.0 0 1 184.97 425.19
  L 187.71 423.55
  Z"
/>
<path fill="#0e0c0e" d="
  M 171.61 426.78
  A 0.46 0.46 0.0 0 1 172.25 426.91
  L 172.33 427.04
  A 2.27 1.59 56.5 0 1 172.26 429.81
  L 172.01 429.97
  A 2.27 1.59 56.5 0 1 169.43 428.96
  L 169.35 428.83
  A 0.46 0.46 0.0 0 1 169.48 428.20
  L 171.61 426.78
  Z"
/>
</svg>
