<?xml version="1.0" encoding="UTF-8" standalone="no"?>
<!-- Created with Inkscape (http://www.inkscape.org/) -->

<svg
   version="1.1"
   id="svg1"
   width="682.66669"
   height="601.33331"
   viewBox="0 0 682.66669 601.33331"
   xmlns="http://www.w3.org/2000/svg"
   xmlns:svg="http://www.w3.org/2000/svg"
   xmlns:rdf="http://www.w3.org/1999/02/22-rdf-syntax-ns#"
   xmlns:cc="http://creativecommons.org/ns#"
   xmlns:dc="http://purl.org/dc/elements/1.1/">
  <title
     id="title1">RapidEye Icon SVG</title>
  <defs
     id="defs1" />
  <g
     id="g1">
    <path
       style="fill:currentColor"
       d="m 103.33334,599.99998 c 21.8824,-1.70157 24.63822,-32.30504 40.38516,-45.89779 10.00531,-20.31136 -16.23407,-43.44538 -23.56485,-63.43554 C 107.31232,464.81298 83.48743,445.9578 74.00156,418.33332 63.097505,389.67079 38.967346,366.24567 36.688458,334.38382 23.747301,313.21125 14.156675,290.56698 3.3996972,268.15587 2.6737164,284.39673 1.502804,339.32153 0.35685817,294.08891 c 0.0926338,-23.33943 -1.21970248,-46.87656 0.97649523,-70.08892 -0.60641025,27.01515 24.3796456,-21.04563 40.0000016,-18 30.604608,-13.94039 59.828765,-30.13815 88.666665,-47.30245 17.21249,-11.81381 38.2673,-17.23674 56.66667,-24.03088 34.79713,-12.9151 66.16891,-35.964331 98.66665,-54.78869 25.76202,-16.889971 54.63011,-29.670682 80.24845,-45.334145 14.97249,-7.085011 48.70757,-33.62805137 54.41822,-26.8532558 -3.41936,8.5597298 23.27968,-5.6394742 12.48281,15.7804898 6.38382,-4.102125 40.01976,4.552298 54.77051,-11.785749 16.02246,-20.7129247 27.14844,20.672678 37.64021,34.779309 15.26458,23.926725 28.59868,49.682303 44.54383,73.535381 16.64935,29.17916 32.01132,59.40948 52.17196,86.3576 5.87242,19.51522 20.56495,35.07278 29.05736,53.64239 9.06297,16.36681 22.1671,34.38567 29.27347,50.91325 -17.03821,18.92283 -41.33387,29.21974 -60.36084,46.19981 13.0377,17.9363 13.17496,43.48478 -11.5793,51.84449 -23.63351,19.21838 -19.27436,-33.19533 -45.47632,-9.43793 -32.14695,22.45219 -62.1787,47.62904 -94.51368,69.81371 -17.27905,14.86727 -38.67368,27.92357 -57.4822,42.41746 -23.39168,18.03826 -46.06021,39.98665 -75.75691,46.96372 -45.38537,11.19718 -91.3777,20.03732 -137.13069,30.01345 -18.57928,11.45983 -25.66443,-24.4759 -41.10721,-1.00297 -27.49532,9.58135 -5.42733,11.74644 2.44438,13.21157 -18.5182,0.14198 -37.22436,1.24212 -55.64405,-0.93657 z m 49.32389,-214.65139 c -0.99428,-3.1187 -5.64282,4.88916 0,0 z m 35.34278,-1.3486 c -1.20876,-4.59894 -3.66129,4.97731 0,0 z m -29.33334,-2.66667 c 4.55246,-4.6447 -10.75884,4.97016 0,0 z m -27.02778,-36.80555 c -4.90861,-1.51228 -2.4495,2.32203 0,0 z m -5.33333,-4 c -4.90863,-1.51228 -2.44949,2.32203 0,0 z m 11.38649,-57.40236 c -7.68748,-1.02327 -3.26058,1.904 0,0 z m -36.24966,-44.45875 c 7.84621,-21.18753 -34.762899,-1.29568 -5.593135,-4.73864 2.920546,3.00851 -4.856051,7.34647 5.593135,4.73864 z m -5.77572,-27.58577 c -11.432903,-1.29721 -0.490923,2.14718 0,0 z m 13.66667,-5.74756 c 4.1646,-4.98243 -9.91199,4.40112 0,0 z m 102,-77.33333 c 0.0583,-4.48347 -4.09336,4.44173 0,0 z m 33.33333,0 c 0.0583,-4.48347 -4.09338,4.44173 0,0 z m 7.33334,-8.66667 c 3.41633,-7.54806 -8.82715,7.66286 0,0 z m 30.84894,-33.717018 c -8.26063,0.620491 0.48788,3.192382 0,0 z m 13.36766,-7.088642 c 20.44397,-15.765376 -23.45708,13.24161 0,0 z m 17.9136,-11.508584 c -6.72422,-0.09402 -5.64202,6.958507 0,0 z m 7.20313,-3.019088 c 4.31067,-4.112894 -12.585,4.292981 0,0 z m 62,-9.333333 c -2.02204,-5.07822 -4.07143,4.221746 0,0 z M 27.938885,339.88579 c -1.882155,-12.57881 9.929767,9.97034 0,0 z"
       id="path1" />
  </g>
  <metadata
     id="metadata1">
    <rdf:RDF>
      <cc:Work
         rdf:about="">
        <dc:title>RapidEye Icon SVG</dc:title>
        <dc:source>https://space.skyrocket.de/img_sat/rapideye-1__1.jpg</dc:source>
      </cc:Work>
    </rdf:RDF>
  </metadata>
</svg>
