<?xml version="1.0" encoding="UTF-8" standalone="no"?>
<svg xmlns="http://www.w3.org/2000/svg" version="1.2" baseProfile="tiny" viewBox="0.00 0.00 512.00 286.00" width="512.00" height="286.00">
<path fill="#86887c" d="
  M 259.13 15.01
  L 251.89 15.64
  A 0.89 0.88 -12.1 0 0 251.13 16.81
  Q 251.50 17.88 251.34 19.00
  A 1.14 1.14 0.0 0 0 251.70 20.01
  Q 252.97 21.17 254.57 21.62
  Q 258.88 22.84 262.12 22.30
  Q 267.85 25.25 273.58 26.93
  C 278.72 28.44 281.04 30.87 285.71 34.81
  C 287.72 36.50 293.73 40.57 296.45 38.67
  C 299.57 36.49 297.18 30.91 295.63 28.72
  Q 294.37 26.94 289.62 25.38
  Q 276.61 21.11 262.63 21.09
  Q 261.74 20.08 263.16 19.72
  Q 264.02 19.50 265.13 19.70
  Q 270.73 20.75 276.74 21.30
  A 0.65 0.65 0.0 0 0 276.92 20.02
  L 275.52 19.75
  A 0.48 0.47 26.2 0 1 275.25 18.97
  Q 275.67 18.50 276.20 18.70
  Q 287.69 20.97 294.26 22.72
  Q 297.96 23.71 299.12 27.61
  Q 300.83 33.40 300.79 36.52
  C 300.71 41.83 301.24 46.44 305.44 49.53
  A 2.34 2.32 63.7 0 0 306.81 50.00
  L 310.99 50.09
  L 312.20 50.33
  A 0.12 0.11 -48.6 0 0 312.28 50.32
  Q 312.56 50.19 312.50 49.73
  L 312.77 45.42
  A 0.75 0.74 -7.6 0 1 313.28 44.76
  Q 313.80 44.57 314.39 44.57
  C 314.49 46.79 314.90 50.77 313.70 52.72
  L 302.21 52.71
  Q 302.22 52.25 302.36 51.87
  Q 303.23 51.53 303.62 51.07
  A 0.80 0.79 -43.4 0 0 303.65 50.09
  Q 302.61 48.71 302.06 46.88
  A 1.92 1.88 -79.5 0 0 301.45 45.97
  Q 300.74 45.40 300.16 44.32
  A 3.43 3.38 -1.0 0 0 298.65 42.88
  Q 290.20 38.81 285.03 37.86
  Q 276.00 36.20 270.98 35.11
  Q 269.43 34.77 266.74 34.91
  A 0.57 0.56 53.0 0 0 266.59 36.01
  L 269.22 36.94
  A 0.60 0.49 -24.3 0 0 269.37 36.98
  Q 280.55 38.65 290.65 43.03
  Q 294.02 46.44 293.26 49.69
  Q 291.08 58.89 289.89 68.04
  A 0.34 0.34 0.0 0 1 289.22 68.07
  L 286.12 53.89
  A 0.08 0.03 83.1 0 0 286.08 53.82
  Q 285.98 53.79 285.95 53.67
  A 0.09 0.08 -61.1 0 0 285.79 53.73
  Q 288.27 69.62 288.95 75.51
  C 289.50 80.22 292.40 83.73 292.75 88.27
  C 293.15 93.48 292.42 96.82 296.62 100.38
  A 0.23 0.23 0.0 0 1 296.50 100.78
  L 291.02 101.54
  A 0.08 0.08 0.0 0 0 290.95 101.64
  L 291.01 101.92
  A 0.24 0.23 78.7 0 0 291.28 102.11
  Q 295.01 101.43 298.17 102.11
  A 0.27 0.27 0.0 0 0 298.36 101.62
  L 297.64 101.20
  A 0.21 0.21 0.0 0 1 297.74 100.81
  Q 299.64 100.78 300.85 102.82
  L 303.50 104.44
  Q 304.27 107.89 304.08 110.94
  Q 303.90 113.71 301.95 115.10
  C 299.57 116.80 297.37 115.78 296.87 112.94
  L 296.86 111.05
  Q 297.03 109.44 296.34 108.44
  A 1.14 1.14 0.0 0 0 294.27 108.94
  C 293.16 117.69 294.20 125.52 294.51 134.95
  Q 294.56 136.49 296.65 140.26
  A 0.87 0.74 -67.2 0 1 296.75 140.57
  L 296.99 142.30
  A 1.70 1.69 -4.9 0 0 298.73 143.76
  L 304.95 143.54
  Q 301.99 144.81 296.94 144.66
  A 1.45 1.45 0.0 0 1 295.54 143.33
  L 295.30 140.36
  A 0.21 0.21 0.0 0 0 295.24 140.24
  L 294.57 139.61
  A 0.25 0.25 0.0 0 0 294.15 139.79
  L 294.15 144.45
  A 0.68 0.67 79.2 0 1 293.73 145.08
  Q 289.20 146.94 285.41 146.12
  Q 282.89 145.57 281.97 145.66
  A 0.94 0.93 19.8 0 0 281.39 145.93
  Q 280.83 146.48 280.97 147.26
  A 0.71 0.70 89.4 0 1 280.16 148.09
  Q 278.15 147.74 276.24 146.56
  A 0.72 0.72 0.0 0 0 275.15 147.05
  C 274.54 150.59 277.19 150.63 279.56 150.39
  A 1.41 1.40 -3.6 0 1 281.11 151.75
  Q 281.29 157.57 282.93 162.28
  A 2.00 1.86 -74.9 0 0 283.21 162.81
  Q 284.22 164.17 285.42 164.21
  A 0.56 0.56 0.0 0 0 285.92 163.37
  L 284.99 161.76
  A 1.00 0.99 -23.8 0 1 285.56 160.31
  Q 287.75 159.62 288.32 160.84
  Q 288.51 161.26 288.29 162.11
  Q 288.06 163.01 288.17 163.54
  A 0.45 0.45 0.0 0 0 288.83 163.83
  L 294.86 160.35
  A 0.80 0.77 -60.2 0 1 295.20 160.25
  Q 298.82 160.03 303.22 159.10
  A 1.42 1.41 52.3 0 1 304.14 159.22
  L 304.88 159.60
  A 1.62 1.60 -34.5 0 0 305.77 159.76
  Q 309.58 159.30 314.10 158.12
  Q 316.29 157.54 325.51 157.92
  Q 327.64 158.00 330.06 159.37
  A 0.44 0.43 13.2 0 0 330.71 158.97
  L 330.08 147.24
  A 0.34 0.34 0.0 0 1 330.41 146.88
  L 330.98 146.84
  A 0.10 0.10 0.0 0 1 331.08 146.94
  L 331.08 155.68
  A 0.57 0.57 0.0 0 0 331.42 156.20
  L 333.00 156.90
  Q 332.23 158.75 334.20 161.16
  Q 335.40 162.61 334.65 164.32
  Q 333.85 166.16 331.27 169.24
  A 5.91 5.83 69.5 0 0 329.95 172.19
  C 329.58 174.85 329.16 176.40 329.10 178.64
  Q 329.03 181.27 328.53 203.90
  A 1.91 1.88 -29.9 0 1 328.28 204.80
  L 325.23 210.08
  A 1.50 1.47 50.7 0 0 325.12 211.30
  C 326.02 213.87 327.36 215.25 327.32 218.27
  Q 327.30 220.02 326.48 219.87
  A 1.09 1.09 0.0 0 0 325.19 220.85
  Q 324.71 226.90 327.98 227.52
  Q 328.07 230.09 327.25 232.59
  A 1.21 1.19 86.5 0 1 326.64 233.29
  C 322.81 235.14 318.46 234.96 312.76 234.93
  Q 309.14 234.91 304.19 233.62
  Q 302.66 233.22 301.62 233.47
  A 1.21 1.20 58.0 0 0 301.14 235.58
  Q 302.14 236.41 302.21 237.56
  Q 300.77 237.86 300.25 238.96
  A 1.43 1.42 -45.7 0 0 300.26 240.19
  Q 300.95 241.64 300.45 243.00
  A 0.92 0.91 -60.5 0 0 300.73 244.03
  L 302.50 245.47
  C 301.65 246.92 299.40 246.49 298.12 246.57
  A 1.22 1.22 0.0 0 0 297.13 248.40
  L 298.79 251.27
  A 1.08 1.07 73.6 0 1 297.92 252.88
  L 290.19 253.24
  Q 291.98 250.59 289.79 248.70
  Q 287.73 246.92 286.12 248.92
  A 1.00 0.99 41.6 0 0 286.20 250.25
  Q 287.31 251.35 287.87 252.98
  Q 286.06 252.07 284.75 250.49
  Q 284.57 250.21 284.25 250.18
  Q 283.76 250.12 283.70 250.42
  Q 282.47 250.77 282.47 252.01
  Q 282.52 258.47 281.93 262.55
  L 269.29 262.65
  A 1.50 1.50 0.0 0 0 267.86 263.75
  L 267.79 264.01
  A 0.86 0.79 7.3 0 0 268.63 265.01
  L 279.98 265.08
  Q 273.12 267.57 266.21 264.80
  Q 264.34 264.05 264.10 261.88
  Q 263.55 256.78 258.08 254.93
  A 0.43 0.43 0.0 0 0 257.52 255.26
  L 256.33 261.48
  A 0.90 0.90 0.0 0 1 255.74 262.16
  Q 251.83 263.54 250.49 263.55
  C 245.06 263.60 240.84 264.74 235.85 265.05
  C 232.53 265.27 226.75 266.50 222.78 264.32
  C 219.53 262.54 218.80 256.72 219.00 253.26
  C 219.17 250.39 216.37 249.85 214.49 248.64
  Q 218.28 247.23 221.61 244.24
  A 0.57 0.57 0.0 0 0 221.06 243.27
  L 216.82 244.55
  L 221.99 241.58
  A 4.55 4.52 -9.2 0 0 224.18 238.56
  Q 225.50 231.99 219.93 229.94
  C 217.37 228.99 213.60 229.39 211.01 229.37
  C 207.98 229.36 206.09 228.97 205.11 231.87
  Q 204.31 234.25 203.06 237.14
  Q 199.05 246.46 194.51 255.73
  L 197.64 247.52
  A 0.94 0.92 79.3 0 1 197.90 247.13
  Q 198.97 246.17 199.43 243.99
  Q 200.11 240.78 202.82 236.36
  A 4.23 3.87 -22.5 0 0 203.23 235.48
  L 204.82 230.29
  A 1.90 1.88 35.8 0 0 204.54 228.62
  Q 202.97 226.45 204.26 226.07
  Q 205.18 225.80 205.38 225.69
  A 0.87 0.87 0.0 0 0 204.93 224.06
  C 201.87 224.13 199.34 224.66 197.14 221.64
  L 201.26 222.50
  A 5.73 5.72 -38.7 0 0 202.27 222.61
  Q 214.02 222.80 218.98 222.65
  Q 220.94 222.59 222.63 220.57
  A 1.42 1.42 0.0 0 0 222.95 219.70
  C 223.00 215.92 223.84 213.07 220.33 211.13
  A 1.71 1.68 57.6 0 0 219.39 210.91
  C 214.85 211.13 210.81 208.31 212.61 203.20
  A 1.79 1.77 -87.9 0 1 213.80 202.08
  C 217.56 200.99 221.63 197.96 221.68 193.52
  Q 221.74 188.38 221.61 182.96
  A 2.79 2.62 -84.2 0 0 219.61 180.35
  Q 218.90 180.17 217.53 180.83
  Q 217.15 180.78 217.14 180.41
  A 0.55 0.53 -22.9 0 1 217.33 179.96
  Q 217.66 179.66 217.69 179.59
  A 1.11 1.11 0.0 0 0 215.74 178.56
  Q 213.81 181.32 211.48 183.02
  L 214.61 174.78
  A 1.12 1.10 -48.7 0 0 214.56 173.87
  L 213.46 171.70
  C 216.23 168.53 219.61 166.90 221.55 162.87
  Q 225.93 153.77 225.18 144.21
  C 224.70 138.05 228.03 135.28 230.57 131.72
  C 233.09 128.20 233.23 121.18 233.35 116.01
  C 233.48 110.38 233.30 105.37 238.12 103.14
  Q 244.34 100.28 246.41 100.29
  Q 252.50 100.35 257.25 100.15
  A 0.15 0.15 0.0 0 0 257.40 100.01
  L 257.40 100.00
  A 0.12 0.11 -87.4 0 0 257.30 99.88
  Q 247.32 98.56 238.00 100.79
  C 236.09 101.24 234.09 100.67 232.79 100.91
  A 1.84 1.77 -39.8 0 1 231.82 100.84
  Q 229.66 100.06 227.06 100.16
  Q 220.30 100.42 214.82 101.52
  Q 210.08 102.46 207.48 106.41
  A 3.44 3.39 61.4 0 0 206.91 108.40
  Q 207.34 126.31 206.97 143.75
  C 206.88 147.62 207.30 152.80 207.12 155.75
  Q 206.97 158.15 205.33 159.78
  Q 206.14 136.94 205.81 113.57
  C 205.76 110.28 205.00 108.45 201.51 109.64
  A 1.16 1.14 4.0 0 0 200.87 110.19
  Q 200.36 111.16 200.64 112.78
  L 199.98 118.11
  A 0.94 0.92 80.8 0 1 199.47 118.84
  Q 198.31 119.40 196.52 118.89
  Q 195.52 115.34 194.99 111.50
  Q 194.94 111.17 193.59 109.22
  C 191.75 106.59 188.61 108.16 188.71 111.01
  C 188.86 115.07 187.54 119.04 187.46 123.23
  Q 187.39 126.81 186.99 130.76
  Q 185.57 144.70 186.25 160.13
  A 0.58 0.58 0.0 0 1 185.67 160.74
  L 174.54 160.75
  Q 174.65 159.74 175.17 159.09
  A 0.98 0.97 -67.7 0 1 176.02 158.73
  L 184.15 159.50
  A 0.35 0.35 0.0 0 0 184.53 159.10
  Q 183.93 155.00 184.41 153.36
  A 0.84 0.82 23.3 0 0 184.02 152.40
  L 183.15 151.89
  A 0.66 0.65 27.4 0 1 182.88 151.05
  L 183.43 149.85
  A 0.70 0.69 -30.7 0 0 183.49 149.62
  Q 184.12 143.14 185.37 131.13
  Q 185.70 128.03 185.65 126.21
  C 185.55 122.18 186.08 119.16 186.21 114.90
  Q 186.28 112.55 189.22 107.35
  A 6.84 5.32 -55.9 0 0 189.65 106.49
  Q 189.69 106.38 189.63 104.07
  Q 189.60 103.21 189.20 103.00
  Q 188.48 102.62 188.02 102.61
  A 0.55 0.55 0.0 0 1 187.47 102.08
  Q 187.18 94.41 188.54 87.20
  Q 189.82 80.40 189.90 76.73
  Q 190.04 70.72 190.43 64.63
  A 1.54 1.49 -23.9 0 1 190.79 63.74
  L 191.51 62.89
  A 2.56 2.53 65.9 0 0 192.12 61.26
  Q 192.15 59.25 192.16 57.25
  Q 192.17 55.54 193.03 55.17
  Q 194.66 52.51 194.87 50.86
  Q 196.08 41.31 197.00 36.26
  C 197.86 31.54 203.22 27.84 207.65 26.07
  Q 212.66 24.06 218.10 22.40
  L 219.32 25.70
  Q 214.99 27.36 210.52 29.23
  Q 205.87 31.18 202.26 33.76
  Q 200.99 34.67 199.86 37.68
  C 199.03 39.92 201.39 41.40 203.46 40.27
  Q 208.24 37.66 208.85 37.10
  Q 213.85 32.56 218.29 29.56
  Q 218.34 29.53 223.22 27.14
  Q 225.73 25.92 227.63 23.89
  Q 230.77 22.63 234.39 23.26
  A 3.85 3.58 43.9 0 0 235.54 23.28
  C 239.63 22.76 241.71 22.87 244.36 20.11
  A 0.74 0.73 -42.1 0 0 244.41 19.15
  Q 243.60 18.12 244.55 17.47
  A 0.81 0.71 19.1 0 1 244.87 17.34
  L 246.44 17.13
  A 0.51 0.51 0.0 0 0 246.42 16.11
  L 243.14 15.79
  A 0.90 0.89 40.5 0 1 243.00 14.03
  Q 246.00 13.27 249.57 13.94
  A 0.80 0.80 0.0 0 0 250.51 13.30
  L 250.62 12.72
  A 0.59 0.59 0.0 0 0 250.01 12.02
  L 240.65 12.52
  A 0.88 0.84 24.5 0 0 240.25 12.66
  L 236.76 15.01
  A 0.84 0.84 0.0 0 1 235.65 14.86
  Q 235.63 14.83 235.58 14.45
  Q 240.27 11.88 239.41 7.33
  A 3.41 3.05 -22.5 0 1 240.99 4.05
  Q 243.91 2.21 247.60 1.41
  C 250.57 0.76 252.31 3.94 253.00 6.43
  C 254.38 11.36 254.66 12.85 259.13 15.01
  Z
  M 192.05 106.57
  L 195.65 106.64
  A 0.83 0.83 0.0 0 0 196.49 105.83
  L 196.50 105.69
  A 50.19 2.18 -88.9 0 0 195.28 55.46
  L 194.38 55.45
  A 50.19 2.18 -88.9 0 0 191.24 105.58
  L 191.24 105.72
  A 0.83 0.83 0.0 0 0 192.05 106.57
  Z
  M 279.51 123.55
  L 279.64 134.02
  A 1.13 1.09 -70.7 0 0 280.02 134.84
  Q 281.01 135.69 282.22 135.67
  L 291.14 137.10
  A 1.18 1.16 69.1 0 1 291.71 137.36
  Q 292.13 137.72 292.45 137.78
  A 0.55 0.54 -84.4 0 0 293.10 137.24
  L 292.89 115.51
  L 292.46 109.45
  L 291.79 103.13
  A 0.98 0.97 -75.7 0 0 291.39 102.45
  Q 288.39 100.31 286.13 99.95
  Q 282.53 99.37 277.23 98.66
  C 270.33 97.74 263.40 97.75 256.50 97.44
  Q 248.54 97.08 245.75 97.75
  Q 245.74 97.76 245.73 97.76
  Q 242.75 97.67 245.75 97.62
  Q 247.60 97.60 249.52 97.48
  A 0.24 0.24 0.0 0 1 249.65 97.93
  L 249.31 98.12
  A 0.37 0.36 -57.7 0 0 249.46 98.80
  L 257.65 99.47
  A 0.13 0.04 28.2 0 1 257.70 99.48
  Q 265.49 101.20 272.68 105.77
  A 0.15 0.15 0.0 0 1 272.73 105.97
  L 272.74 105.98
  A 0.12 0.12 0.0 0 1 272.57 106.12
  L 265.89 102.27
  A 0.26 0.24 38.8 0 0 265.60 102.29
  L 265.59 102.30
  A 0.29 0.29 0.0 0 0 265.66 102.71
  Q 269.43 105.42 273.56 107.70
  C 278.90 110.66 278.72 117.28 279.51 123.55
  Z
  M 279.10 133.98
  Q 278.43 120.38 277.81 116.29
  C 276.72 109.04 270.55 106.33 265.04 103.12
  A 0.94 0.94 0.0 0 0 263.65 103.72
  Q 263.53 104.24 263.63 104.75
  Q 265.83 116.67 266.66 124.24
  Q 267.04 127.74 268.82 132.97
  A 0.99 0.97 -3.5 0 0 269.56 133.61
  L 279.46 135.50
  A 0.34 0.34 0.0 0 0 279.81 134.99
  Q 279.69 134.79 279.42 134.59
  A 0.83 0.82 -72.9 0 1 279.10 133.98
  Z
  M 281.61 141.09
  L 285.74 143.34
  A 0.41 0.41 0.0 0 0 286.30 143.18
  L 286.40 142.99
  A 1.72 1.44 28.6 0 0 285.58 140.90
  L 283.75 139.91
  A 1.72 1.44 28.6 0 0 281.55 140.35
  L 281.45 140.53
  A 0.41 0.41 0.0 0 0 281.61 141.09
  Z
  M 267.7303 147.1212
  A 1.25 1.02 -30.2 0 0 266.1369 146.8684
  A 1.25 1.02 -30.2 0 0 265.5697 148.3788
  A 1.25 1.02 -30.2 0 0 267.1631 148.6316
  A 1.25 1.02 -30.2 0 0 267.7303 147.1212
  Z
  M 285.12 173.28
  L 282.18 168.51
  A 0.01 0.01 0.0 0 0 282.17 168.51
  A 2.61 2.57 58.4 0 0 281.35 172.08
  L 281.56 172.42
  A 2.61 2.57 58.4 0 0 285.11 173.29
  A 0.01 0.01 0.0 0 0 285.12 173.28
  Z
  M 229.74 174.33
  Q 230.35 178.08 227.27 180.14
  A 0.72 0.72 0.0 0 0 227.69 181.46
  C 231.75 181.36 234.87 176.78 230.43 173.88
  A 0.45 0.45 0.0 0 0 229.74 174.33
  Z
  M 282.41 177.61
  L 285.53 177.19
  A 0.21 0.21 0.0 0 0 285.71 176.96
  L 285.69 176.86
  A 1.65 1.51 -7.6 0 0 283.86 175.58
  L 283.60 175.62
  A 1.65 1.51 -7.6 0 0 282.16 177.33
  L 282.18 177.43
  A 0.21 0.21 0.0 0 0 282.41 177.61
  Z
  M 226.45 176.67
  L 220.85 178.88
  A 0.10 0.10 0.0 0 0 220.80 179.01
  L 220.80 179.02
  A 3.06 2.87 -21.6 0 0 224.70 180.56
  L 224.79 180.53
  A 3.06 2.87 -21.6 0 0 226.58 176.73
  L 226.58 176.72
  A 0.10 0.10 0.0 0 0 226.45 176.67
  Z
  M 281.5066 179.9403
  A 2.20 0.99 -151.5 0 0 282.9676 181.8600
  A 2.20 0.99 -151.5 0 0 285.3734 182.0397
  A 2.20 0.99 -151.5 0 0 283.9124 180.1200
  A 2.20 0.99 -151.5 0 0 281.5066 179.9403
  Z
  M 290.99 200.66
  L 290.81 205.08
  A 0.33 0.32 -62.7 0 0 290.88 205.31
  Q 291.46 206.09 292.11 205.15
  A 0.61 0.57 -34.7 0 1 293.19 205.31
  Q 293.60 207.45 293.61 208.89
  A 1.44 1.43 86.0 0 0 295.24 210.32
  L 302.26 209.35
  A 1.35 1.34 76.4 0 1 303.72 210.25
  L 305.04 214.17
  A 0.63 0.56 41.4 0 1 305.07 214.41
  L 304.81 218.82
  A 1.01 1.00 -67.4 0 1 303.14 219.51
  L 292.49 210.02
  A 0.48 0.48 0.0 0 0 291.81 210.06
  L 291.44 210.47
  A 0.24 0.23 42.4 0 0 291.46 210.80
  L 305.36 223.17
  A 0.31 0.31 0.0 0 0 305.87 222.85
  Q 305.40 221.27 306.02 220.09
  A 1.22 1.15 -34.0 0 0 306.16 219.46
  L 305.79 212.62
  A 0.74 0.69 -63.7 0 0 305.69 212.29
  Q 304.91 211.07 304.83 210.08
  A 1.44 1.42 -29.1 0 1 305.11 209.12
  Q 306.31 207.52 305.76 205.71
  A 1.50 1.48 7.9 0 0 305.12 204.87
  Q 304.37 204.39 302.67 204.12
  A 1.35 1.34 -4.9 0 1 301.58 203.21
  L 298.00 192.56
  A 0.21 0.21 0.0 0 0 297.60 192.56
  L 293.70 203.48
  A 0.68 0.68 0.0 0 1 292.38 203.23
  Q 292.42 202.02 291.46 200.53
  A 0.26 0.26 0.0 0 0 290.99 200.66
  Z
  M 300.30 193.35
  Q 301.32 194.77 301.51 197.77
  A 3.33 3.27 -62.4 0 0 301.95 199.22
  L 303.01 201.06
  A 0.42 0.42 0.0 0 0 303.74 201.06
  L 303.96 200.68
  A 0.56 0.55 -51.5 0 0 303.89 200.02
  Q 302.05 198.01 302.25 194.82
  Q 302.36 193.12 300.86 192.60
  A 0.49 0.49 0.0 0 0 300.30 193.35
  Z
  M 286.90 194.80
  L 286.91 194.45
  A 0.54 0.54 0.0 0 0 286.48 193.90
  Q 284.25 193.48 282.99 194.90
  A 1.53 1.51 67.4 0 0 282.62 195.81
  C 282.50 197.68 282.96 200.72 285.35 200.18
  A 1.72 1.71 -86.4 0 0 286.56 199.11
  L 286.62 198.97
  A 0.51 0.50 2.4 0 0 286.01 198.31
  Q 284.51 198.72 283.90 196.51
  A 1.19 1.05 71.7 0 1 284.49 195.13
  Q 285.30 194.81 286.44 195.13
  A 0.36 0.36 0.0 0 0 286.90 194.80
  Z
  M 307.79 200.80
  L 309.49 200.34
  A 0.52 0.52 0.0 0 0 309.86 199.70
  L 309.49 198.38
  A 1.99 1.29 74.7 0 0 307.72 196.80
  L 307.51 196.86
  A 1.99 1.29 74.7 0 0 306.79 199.12
  L 307.15 200.44
  A 0.52 0.52 0.0 0 0 307.79 200.80
  Z
  M 223.41 207.59
  Q 223.65 207.90 227.81 205.94
  A 0.79 0.78 -6.5 0 0 228.23 205.41
  Q 228.38 204.76 227.85 204.09
  Q 227.32 203.42 226.65 203.41
  A 0.79 0.78 -70.0 0 0 226.04 203.70
  Q 223.17 207.29 223.41 207.59
  Z
  M 307.8633 203.4431
  A 1.53 1.32 -134.2 0 0 307.9837 205.4603
  A 1.53 1.32 -134.2 0 0 309.9967 205.6369
  A 1.53 1.32 -134.2 0 0 309.8763 203.6197
  A 1.53 1.32 -134.2 0 0 307.8633 203.4431
  Z
  M 284.27 204.96
  L 283.68 208.06
  A 0.65 0.65 0.0 0 0 283.97 208.74
  Q 284.91 209.33 286.14 209.14
  A 0.66 0.66 0.0 0 0 286.67 208.28
  L 285.52 204.87
  A 0.65 0.65 0.0 0 0 284.27 204.96
  Z
  M 227.55 232.45
  Q 228.53 232.81 228.66 233.92
  Q 229.46 240.51 229.34 241.52
  A 0.43 0.43 0.0 0 0 229.73 242.01
  L 234.19 242.44
  A 0.70 0.70 0.0 0 0 234.95 241.83
  Q 235.40 238.38 233.45 235.97
  Q 231.55 233.62 233.80 231.39
  Q 235.26 229.94 235.22 226.11
  A 0.77 0.76 2.5 0 0 234.52 225.35
  Q 233.46 225.27 232.31 226.09
  A 1.53 1.49 -57.0 0 1 231.15 226.35
  L 228.02 225.75
  A 1.15 1.14 89.2 0 1 227.11 224.86
  L 226.81 223.50
  A 0.46 0.45 -29.0 0 0 226.04 223.28
  Q 225.12 224.20 223.16 223.05
  A 0.87 0.87 0.0 0 0 221.87 223.99
  L 223.00 229.19
  A 0.74 0.74 0.0 0 0 224.10 229.67
  L 226.78 228.12
  A 0.63 0.63 0.0 0 1 227.69 228.88
  L 226.88 231.15
  A 0.89 0.89 0.0 0 0 227.04 232.02
  Q 227.33 232.37 227.55 232.45
  Z
  M 245.02 239.86
  Q 241.69 240.77 239.89 240.28
  A 0.59 0.59 0.0 0 0 239.15 240.89
  Q 239.22 241.98 238.90 243.03
  A 1.19 1.18 27.4 0 0 239.31 244.30
  Q 239.81 244.70 240.70 244.82
  A 0.83 0.82 88.5 0 1 241.40 245.49
  Q 241.60 246.62 240.27 247.33
  A 0.59 0.58 29.8 0 0 240.57 248.43
  Q 242.13 248.37 244.34 247.51
  A 1.34 1.34 0.0 0 1 246.16 248.81
  L 246.07 251.03
  A 0.28 0.28 0.0 0 0 246.49 251.28
  L 248.81 249.95
  A 0.75 0.75 0.0 0 0 249.08 248.92
  Q 248.70 248.26 248.70 248.23
  A 0.98 0.98 0.0 0 1 249.70 247.30
  L 256.19 247.46
  A 0.69 0.68 -15.9 0 1 256.77 247.78
  Q 257.25 248.55 258.40 248.61
  A 0.61 0.61 0.0 0 0 259.02 247.86
  Q 259.01 247.83 259.02 247.42
  A 1.11 1.11 0.0 0 1 259.71 246.39
  Q 260.90 245.88 261.77 246.40
  A 1.37 1.30 -81.7 0 0 263.69 244.89
  Q 261.69 235.26 261.51 225.71
  A 0.60 0.60 0.0 0 0 260.89 225.12
  Q 256.82 225.24 247.04 225.55
  Q 243.61 225.66 239.40 227.00
  A 0.72 0.71 81.0 0 0 238.91 227.68
  L 238.91 234.18
  A 2.79 2.79 0.0 0 0 241.13 236.91
  L 243.98 237.51
  A 0.96 0.96 0.0 0 0 245.09 236.29
  L 244.97 235.92
  A 1.67 1.65 -2.8 0 0 243.69 234.78
  L 241.43 234.35
  A 0.83 0.79 72.7 0 1 241.03 234.13
  Q 240.00 233.03 241.26 230.97
  A 0.76 0.75 47.8 0 1 242.59 231.04
  Q 242.90 231.69 243.41 232.18
  A 0.75 0.75 0.0 0 0 244.62 231.33
  Q 243.92 229.79 243.86 228.78
  A 0.84 0.83 89.7 0 1 244.73 227.90
  L 245.04 227.91
  A 0.79 0.78 -87.2 0 1 245.79 228.75
  L 245.62 231.38
  A 1.49 1.44 -52.2 0 0 245.67 231.83
  Q 246.75 235.90 245.57 239.35
  A 0.80 0.80 0.0 0 1 245.02 239.86
  Z
  M 289.8795 230.5752
  A 0.83 0.83 0.0 0 0 288.8300 230.0496
  L 285.1104 231.2870
  A 0.83 0.83 0.0 0 0 284.5848 232.3365
  L 284.7805 232.9248
  A 0.83 0.83 0.0 0 0 285.8300 233.4504
  L 289.5496 232.2130
  A 0.83 0.83 0.0 0 0 290.0752 231.1635
  L 289.8795 230.5752
  Z
  M 267.54 244.72
  Q 266.55 245.77 266.62 247.00
  A 0.84 0.83 6.7 0 0 267.21 247.74
  Q 269.13 248.31 270.71 246.58
  A 0.65 0.65 0.0 0 1 271.50 246.44
  Q 272.88 247.16 274.22 247.39
  A 1.08 1.06 -79.6 0 0 275.45 246.53
  L 275.79 244.77
  A 0.94 0.94 0.0 0 0 274.76 243.66
  Q 272.79 243.87 271.49 244.87
  A 1.07 1.05 -43.3 0 1 270.15 244.84
  Q 268.59 243.50 268.20 243.98
  A 8.21 2.02 -62.1 0 1 267.54 244.72
  Z
  M 280.7167 244.4386
  A 2.03 1.27 -42.5 0 0 278.3620 244.8737
  A 2.03 1.27 -42.5 0 0 277.7233 247.1814
  A 2.03 1.27 -42.5 0 0 280.0780 246.7463
  A 2.03 1.27 -42.5 0 0 280.7167 244.4386
  Z
  M 281.31 247.20
  Q 281.91 248.58 282.20 248.98
  A 0.93 0.93 0.0 0 0 283.81 248.08
  Q 283.79 248.03 283.57 247.80
  A 0.75 0.75 0.0 0 1 283.42 246.98
  Q 283.75 246.23 284.70 245.92
  A 0.47 0.46 74.0 0 0 285.01 245.35
  L 284.73 245.08
  A 0.52 0.50 -36.9 0 0 284.12 245.00
  L 281.54 246.49
  A 0.56 0.56 0.0 0 0 281.31 247.20
  Z"
/>
<path fill="#32282a" d="
  M 227.63 23.89
  Q 223.81 23.14 219.32 25.70
  L 218.10 22.40
  Q 227.09 19.22 235.58 14.45
  Q 235.63 14.83 235.65 14.86
  A 0.84 0.84 0.0 0 0 236.76 15.01
  L 240.25 12.66
  A 0.88 0.84 24.5 0 1 240.65 12.52
  L 250.01 12.02
  A 0.59 0.59 0.0 0 1 250.62 12.72
  L 250.51 13.30
  A 0.80 0.80 0.0 0 1 249.57 13.94
  Q 246.00 13.27 243.00 14.03
  A 0.90 0.89 40.5 0 0 243.14 15.79
  L 246.42 16.11
  A 0.51 0.51 0.0 0 1 246.44 17.13
  L 244.87 17.34
  A 0.81 0.71 19.1 0 0 244.55 17.47
  Q 243.60 18.12 244.41 19.15
  A 0.74 0.73 -42.1 0 1 244.36 20.11
  C 241.71 22.87 239.63 22.76 235.54 23.28
  A 3.85 3.58 43.9 0 1 234.39 23.26
  Q 230.77 22.63 227.63 23.89
  Z"
/>
<path fill="#32282a" d="
  M 276.20 18.70
  Q 275.67 18.50 275.25 18.97
  A 0.48 0.47 26.2 0 0 275.52 19.75
  L 276.92 20.02
  A 0.65 0.65 0.0 0 1 276.74 21.30
  Q 270.73 20.75 265.13 19.70
  Q 264.02 19.50 263.16 19.72
  Q 261.74 20.08 262.63 21.09
  Q 262.82 22.26 262.12 22.30
  Q 258.88 22.84 254.57 21.62
  Q 252.97 21.17 251.70 20.01
  A 1.14 1.14 0.0 0 1 251.34 19.00
  Q 251.50 17.88 251.13 16.81
  A 0.89 0.88 -12.1 0 1 251.89 15.64
  L 259.13 15.01
  L 276.20 18.70
  Z"
/>
<path fill="#32282a" d="
  M 505.35 43.34
  Q 501.22 44.21 497.02 44.75
  Q 495.92 44.89 495.01 45.43
  A 0.02 0.02 0.0 0 0 495.02 45.47
  L 505.50 45.48
  L 505.84 50.76
  Q 504.29 59.00 506.64 67.04
  L 508.87 96.74
  Q 507.70 100.62 508.52 104.63
  Q 508.62 105.15 509.15 105.08
  Q 509.31 105.06 509.35 104.79
  L 509.86 111.96
  L 509.52 121.24
  A 1.56 1.52 -59.8 0 0 509.73 122.09
  Q 510.46 123.40 510.44 125.25
  Q 510.32 136.85 511.26 147.76
  A 1.24 1.22 -71.1 0 0 511.64 148.55
  L 512.00 148.88
  L 512.00 149.99
  Q 509.26 150.36 506.50 150.38
  Q 493.25 150.43 480.00 150.09
  Q 474.72 149.95 463.02 151.91
  Q 462.43 152.14 461.69 152.00
  Q 460.16 150.51 458.38 151.44
  A 0.40 0.38 -58.0 0 1 458.19 151.49
  L 438.20 151.69
  A 0.09 0.08 -85.9 0 0 438.12 151.77
  L 438.02 152.29
  A 0.44 0.44 0.0 0 0 438.45 152.82
  L 443.53 152.85
  L 424.56 153.19
  L 407.96 152.77
  A 2.86 2.54 35.9 0 0 407.26 152.84
  Q 403.60 153.69 399.79 153.57
  C 396.00 153.44 392.42 153.53 388.57 153.39
  A 2.36 2.34 -53.3 0 0 387.77 153.51
  Q 386.79 153.84 385.50 153.83
  Q 384.27 153.83 370.27 154.37
  A 1.82 1.70 -33.8 0 1 369.60 154.26
  L 368.37 153.79
  A 1.15 1.15 0.0 0 0 367.18 154.03
  Q 366.58 154.61 366.44 155.57
  Q 352.81 155.18 339.22 156.56
  Q 336.11 156.88 333.00 156.90
  L 331.42 156.20
  A 0.57 0.57 0.0 0 1 331.08 155.68
  L 331.08 146.94
  A 0.10 0.10 0.0 0 0 330.98 146.84
  L 330.41 146.88
  A 0.34 0.34 0.0 0 0 330.08 147.24
  L 330.71 158.97
  A 0.44 0.43 13.2 0 1 330.06 159.37
  Q 327.64 158.00 325.51 157.92
  Q 316.29 157.54 314.10 158.12
  Q 309.58 159.30 305.77 159.76
  A 1.62 1.60 -34.5 0 1 304.88 159.60
  L 304.14 159.22
  A 1.42 1.41 52.3 0 0 303.22 159.10
  Q 298.82 160.03 295.20 160.25
  A 0.80 0.77 -60.2 0 0 294.86 160.35
  L 288.83 163.83
  A 0.45 0.45 0.0 0 1 288.17 163.54
  Q 288.06 163.01 288.29 162.11
  Q 288.51 161.26 288.32 160.84
  Q 287.75 159.62 285.56 160.31
  A 1.00 0.99 -23.8 0 0 284.99 161.76
  L 285.92 163.37
  A 0.56 0.56 0.0 0 1 285.42 164.21
  Q 284.22 164.17 283.21 162.81
  A 2.00 1.86 -74.9 0 1 282.93 162.28
  Q 281.29 157.57 281.11 151.75
  A 1.41 1.40 -3.6 0 0 279.56 150.39
  C 277.19 150.63 274.54 150.59 275.15 147.05
  A 0.72 0.72 0.0 0 1 276.24 146.56
  Q 278.15 147.74 280.16 148.09
  A 0.71 0.70 89.4 0 0 280.97 147.26
  Q 280.83 146.48 281.39 145.93
  A 0.94 0.93 19.8 0 1 281.97 145.66
  Q 282.89 145.57 285.41 146.12
  Q 289.20 146.94 293.73 145.08
  A 0.68 0.67 79.2 0 0 294.15 144.45
  L 294.15 139.79
  A 0.25 0.25 0.0 0 1 294.57 139.61
  L 295.24 140.24
  A 0.21 0.21 0.0 0 1 295.30 140.36
  L 295.54 143.33
  A 1.45 1.45 0.0 0 0 296.94 144.66
  Q 301.99 144.81 304.95 143.54
  Q 305.26 143.39 305.54 143.39
  Q 308.91 143.88 312.31 142.47
  A 0.81 0.79 -10.7 0 0 312.80 141.77
  L 314.29 105.02
  A 0.79 0.79 0.0 0 0 313.65 104.21
  L 311.47 103.80
  A 0.44 0.43 -76.9 0 1 311.14 103.26
  L 312.79 96.98
  A 2.47 2.44 -17.0 0 1 313.32 96.00
  L 314.61 94.55
  A 2.05 2.02 67.4 0 0 315.12 93.28
  L 315.48 82.85
  A 0.98 0.90 58.5 0 1 315.55 82.49
  Q 315.86 81.72 316.40 74.00
  Q 316.88 67.10 317.48 54.73
  Q 317.61 52.24 313.93 53.26
  Q 314.14 53.25 313.70 52.72
  C 314.90 50.77 314.49 46.79 314.39 44.57
  Q 315.45 43.76 316.63 43.68
  Q 320.70 43.41 324.42 43.10
  Q 329.25 43.86 332.98 43.51
  Q 334.62 43.36 335.68 42.21
  L 341.29 42.21
  Q 343.85 42.61 346.39 42.04
  A 2.26 2.23 -45.3 0 1 347.35 42.03
  Q 351.05 42.80 354.69 40.80
  L 363.50 40.44
  A 0.94 0.94 0.0 0 0 364.15 40.13
  L 364.36 39.89
  A 0.22 0.20 20.8 0 1 364.51 39.83
  L 381.79 38.93
  L 382.54 39.46
  Q 382.95 39.85 383.23 39.49
  C 386.28 39.51 390.13 40.86 392.55 38.22
  Q 398.70 38.46 404.81 37.07
  A 2.41 2.17 34.0 0 1 405.24 37.01
  L 421.74 36.22
  L 432.09 36.73
  A 0.51 0.51 0.0 0 0 432.50 35.88
  L 432.30 35.65
  L 442.17 34.78
  Q 443.01 35.40 445.50 35.71
  Q 447.49 35.96 448.32 34.35
  L 454.98 34.10
  L 455.11 39.46
  A 0.52 0.51 88.3 0 1 454.62 39.99
  L 447.65 40.37
  A 1.00 0.99 -85.0 0 1 446.63 39.15
  Q 446.72 38.80 446.94 38.28
  Q 447.25 37.54 446.93 37.23
  Q 446.67 36.97 445.79 37.17
  A 0.54 0.54 0.0 0 0 445.61 38.15
  L 445.71 38.22
  A 1.43 1.43 0.0 0 1 445.07 40.80
  L 440.32 41.44
  A 0.33 0.31 1.2 0 0 440.07 41.67
  L 440.07 41.68
  A 0.20 0.19 -11.7 0 0 440.27 41.80
  L 445.00 41.58
  A 1.43 1.43 0.0 0 1 446.47 43.26
  L 446.47 43.29
  A 1.81 1.81 0.0 0 1 444.58 44.85
  Q 442.02 44.72 440.00 45.28
  A 0.18 0.18 0.0 0 0 440.04 45.63
  L 445.42 45.63
  A 0.74 0.74 0.0 0 1 446.16 46.40
  Q 446.10 48.12 446.15 49.21
  Q 446.16 49.48 446.41 49.71
  Q 446.68 49.95 446.90 49.91
  A 1.03 0.91 -23.3 0 0 447.61 48.41
  Q 446.99 47.64 446.93 47.31
  A 1.74 1.73 85.2 0 1 448.68 45.24
  L 453.41 45.37
  A 0.50 0.50 0.0 0 0 453.91 44.96
  L 453.96 44.71
  A 0.47 0.47 0.0 0 0 453.50 44.15
  L 447.67 44.15
  A 0.77 0.77 0.0 0 1 446.91 43.24
  L 447.00 42.80
  A 1.78 1.78 0.0 0 1 448.66 41.35
  L 454.88 41.01
  A 1.23 1.23 0.0 0 1 456.14 42.53
  Q 455.85 43.75 455.29 44.21
  A 0.48 0.47 46.1 0 0 455.28 44.93
  L 455.70 45.30
  A 0.81 0.81 0.0 0 1 455.96 45.87
  L 456.45 71.40
  A 0.93 0.92 -0.6 0 1 455.52 72.34
  L 448.76 72.34
  A 0.65 0.64 -8.5 0 1 448.14 71.89
  Q 447.83 70.92 448.90 69.71
  A 0.75 0.74 -59.1 0 1 449.72 69.50
  Q 452.07 70.33 454.45 69.50
  A 0.57 0.56 35.3 0 0 454.26 68.40
  L 449.01 68.40
  A 0.58 0.57 -20.4 0 1 448.58 68.21
  Q 447.67 67.17 446.94 67.99
  A 0.69 0.67 16.8 0 1 446.51 68.21
  L 439.65 69.01
  A 0.51 0.51 0.0 0 0 439.71 70.02
  L 445.80 70.02
  A 1.11 1.11 0.0 0 1 446.88 70.89
  L 446.96 71.26
  A 0.63 0.62 77.9 0 1 446.49 72.00
  L 440.96 73.21
  A 0.34 0.34 0.0 0 0 441.01 73.88
  Q 441.45 73.91 445.81 73.90
  A 1.53 1.44 12.8 0 1 447.23 76.01
  Q 446.83 76.80 447.08 77.99
  A 0.78 0.78 0.0 0 0 448.56 78.12
  Q 449.05 76.91 448.48 75.44
  A 1.08 1.08 0.0 0 1 449.49 73.96
  L 456.02 73.96
  A 0.71 0.70 -10.1 0 1 456.68 74.41
  Q 457.03 75.32 456.69 76.99
  A 0.81 0.81 0.0 0 0 458.13 77.64
  Q 458.27 77.45 458.26 76.98
  Q 457.78 55.21 457.85 46.18
  Q 457.87 44.37 457.52 40.08
  Q 457.27 37.03 457.37 33.99
  L 458.97 33.88
  Q 459.34 34.28 460.27 34.18
  Q 468.46 33.33 473.52 33.06
  Q 474.20 32.38 475.46 32.74
  Q 475.43 32.92 475.53 33.08
  A 0.24 0.23 -12.4 0 0 475.71 33.19
  Q 481.62 33.80 486.90 31.93
  L 503.45 30.55
  A 1.00 0.99 81.8 0 1 504.50 31.34
  Q 505.72 37.07 505.35 43.34
  Z
  M 486.18 43.17
  A 0.95 0.83 89.5 0 0 487.23 41.95
  Q 486.67 40.18 487.01 38.87
  C 487.43 37.27 486.90 36.03 486.83 34.40
  A 0.39 0.39 0.0 0 0 486.06 34.33
  Q 485.28 37.68 485.82 42.42
  Q 485.89 43.06 486.18 43.17
  Z
  M 493.25 49.76
  A 0.28 0.28 0.0 0 0 493.17 49.21
  Q 485.97 48.91 478.74 50.23
  A 1.39 1.39 0.0 0 1 477.10 48.80
  L 477.10 48.69
  A 1.76 1.76 0.0 0 1 478.87 47.04
  L 485.25 47.11
  A 1.54 1.49 -31.1 0 1 485.91 47.26
  Q 485.97 47.29 486.09 47.41
  A 0.84 0.83 -31.1 0 0 486.91 47.61
  Q 488.02 47.28 487.65 45.57
  A 0.93 0.93 0.0 0 0 485.94 45.30
  L 485.61 45.86
  A 0.46 0.45 -75.6 0 1 485.21 46.10
  L 478.42 46.10
  A 1.20 1.20 0.0 0 1 477.24 44.69
  Q 477.65 42.43 477.11 40.77
  A 1.40 1.38 46.2 0 1 477.12 39.84
  Q 477.61 38.43 476.88 37.52
  A 0.34 0.34 0.0 0 0 476.27 37.73
  L 476.27 45.58
  A 0.81 0.80 -86.5 0 1 475.37 46.38
  Q 473.45 46.17 472.22 46.81
  Q 471.90 46.98 471.35 46.89
  Q 470.63 46.77 470.47 47.02
  A 0.46 0.46 0.0 0 0 470.93 47.71
  Q 472.88 47.45 474.04 47.19
  Q 476.53 46.62 476.57 48.86
  C 476.59 49.60 476.05 49.95 476.21 51.08
  Q 476.51 53.26 476.35 55.00
  Q 476.26 55.95 476.31 55.99
  A 1.09 1.09 0.0 0 0 477.96 54.83
  L 477.39 52.31
  A 1.13 1.13 0.0 0 1 478.66 50.94
  Q 486.39 52.11 493.25 49.76
  Z
  M 491.14 37.98
  Q 492.67 37.91 492.82 37.84
  A 0.38 0.37 -54.7 0 0 492.70 37.13
  Q 492.26 37.09 491.10 37.15
  Q 489.94 37.20 489.51 37.28
  A 0.38 0.37 49.3 0 0 489.46 38.00
  Q 489.62 38.05 491.14 37.98
  Z
  M 478.23 58.52
  L 477.47 58.08
  A 0.56 0.55 -60.0 0 0 476.71 58.29
  L 476.29 59.03
  A 0.49 0.48 -52.2 0 1 475.53 59.13
  Q 474.91 58.52 474.49 58.56
  Q 470.74 58.86 469.40 58.83
  A 1.14 1.14 0.0 0 1 468.38 57.24
  L 468.97 55.85
  A 0.94 0.93 -56.5 0 0 468.76 54.80
  Q 467.26 53.35 468.92 51.68
  A 0.47 0.47 0.0 0 0 468.82 50.94
  L 467.77 50.33
  A 0.53 0.53 0.0 0 0 466.97 50.82
  L 467.15 54.24
  A 1.09 1.09 0.0 0 1 466.02 55.39
  L 460.01 55.15
  A 0.50 0.49 -0.5 0 0 459.49 55.67
  L 459.51 56.06
  A 0.16 0.16 0.0 0 0 459.66 56.21
  L 466.49 56.48
  A 0.73 0.72 -87.6 0 1 467.18 57.24
  L 467.14 58.32
  A 1.01 1.01 0.0 0 1 466.19 59.28
  L 460.51 59.59
  A 0.60 0.59 -3.3 0 0 459.94 60.22
  L 459.95 60.56
  A 0.46 0.46 0.0 0 0 460.44 60.99
  L 466.39 60.67
  A 0.88 0.87 88.5 0 1 467.31 61.55
  L 467.31 61.94
  A 1.22 1.22 0.0 0 1 466.15 63.15
  L 460.61 63.45
  A 0.34 0.34 0.0 0 0 460.29 63.78
  L 460.28 64.07
  A 0.35 0.35 0.0 0 0 460.62 64.44
  L 466.41 64.68
  A 0.91 0.91 0.0 0 1 467.29 65.63
  L 467.27 66.12
  A 1.29 1.29 0.0 0 1 466.05 67.35
  L 460.64 67.64
  A 0.12 0.12 0.0 0 0 460.53 67.77
  L 460.55 68.21
  A 0.19 0.18 -3.1 0 0 460.75 68.38
  L 466.34 68.08
  A 0.87 0.86 88.4 0 1 467.25 68.95
  L 467.25 75.55
  A 0.41 0.40 88.7 0 0 467.67 75.96
  L 468.01 75.94
  A 0.34 0.34 0.0 0 0 468.33 75.60
  L 468.33 68.68
  A 0.67 0.67 0.0 0 1 469.03 68.01
  L 478.05 68.37
  A 0.57 0.57 0.0 0 0 478.65 67.82
  L 478.67 67.28
  A 0.55 0.54 1.5 0 0 478.12 66.71
  L 469.23 66.71
  A 0.89 0.88 83.9 0 1 468.37 66.01
  L 468.30 65.64
  A 1.11 1.11 0.0 0 1 469.30 64.56
  C 471.47 64.33 473.20 64.52 475.34 64.00
  Q 476.29 63.76 477.29 64.41
  A 0.82 0.82 0.0 0 0 478.55 63.71
  Q 478.54 61.91 477.52 62.13
  Q 476.79 62.29 476.54 62.56
  A 0.64 0.64 0.0 0 1 476.10 62.76
  L 469.54 62.86
  A 1.19 1.19 0.0 0 1 468.33 61.62
  L 468.37 61.31
  A 1.17 1.16 2.0 0 1 469.47 60.29
  L 476.11 59.93
  A 0.72 0.71 73.3 0 1 476.76 60.29
  L 476.98 60.67
  A 0.30 0.30 0.0 0 0 477.51 60.63
  L 478.31 58.77
  A 0.20 0.20 0.0 0 0 478.23 58.52
  Z
  M 480.58 54.85
  L 486.60 55.26
  A 2.15 1.94 36.7 0 0 487.24 55.20
  C 489.85 54.53 491.68 55.02 493.98 54.35
  Q 494.87 54.09 497.74 54.08
  A 0.52 0.52 0.0 0 0 498.19 53.30
  L 497.97 52.92
  A 0.33 0.31 72.7 0 0 497.68 52.76
  L 480.57 54.02
  A 0.42 0.41 44.6 0 0 480.58 54.85
  Z
  M 486.89 58.20
  Q 486.90 58.45 487.08 58.62
  Q 487.28 58.81 487.53 58.79
  Q 494.15 58.26 497.71 58.56
  A 1.36 1.35 31.9 0 0 498.53 58.37
  Q 499.32 57.89 499.30 57.53
  Q 499.28 57.17 498.44 56.78
  A 1.36 1.35 -38.1 0 0 497.61 56.68
  Q 494.10 57.37 487.46 57.55
  Q 487.21 57.56 487.04 57.77
  Q 486.88 57.96 486.89 58.20
  Z
  M 322.89 67.78
  Q 323.29 66.83 323.40 66.71
  Q 323.68 66.39 324.63 66.52
  Q 326.76 66.79 329.97 66.11
  A 0.76 0.76 0.0 0 1 330.88 67.00
  L 330.37 69.66
  A 0.61 0.60 -9.9 0 0 331.27 70.29
  L 332.60 69.53
  A 1.27 1.27 0.0 0 1 333.38 69.35
  L 341.06 70.09
  A 0.79 0.79 0.0 0 0 341.84 69.65
  Q 342.34 68.64 341.38 67.24
  A 0.33 0.33 0.0 0 0 340.79 67.35
  Q 340.66 67.89 340.33 68.16
  A 1.02 0.97 24.3 0 1 339.70 68.38
  Q 336.43 68.37 335.02 68.38
  C 334.18 68.38 333.52 69.03 332.57 68.68
  Q 331.55 68.32 331.65 67.18
  Q 331.71 66.50 332.62 65.63
  A 0.57 0.57 0.0 0 0 332.65 64.84
  Q 331.60 63.69 331.05 64.57
  A 1.23 1.13 69.2 0 0 330.93 64.87
  L 330.93 65.13
  A 0.49 0.49 0.0 0 1 330.44 65.61
  L 322.60 65.61
  A 0.53 0.52 83.8 0 0 322.09 66.25
  L 322.41 67.74
  A 0.25 0.25 0.0 0 0 322.89 67.78
  Z
  M 498.2094 64.6712
  A 1.48 0.87 -80.3 0 0 497.1024 65.9834
  A 1.48 0.87 -80.3 0 0 497.7106 67.5888
  A 1.48 0.87 -80.3 0 0 498.8176 66.2766
  A 1.48 0.87 -80.3 0 0 498.2094 64.6712
  Z
  M 495.1198 66.3315
  A 5.56 0.58 -0.5 0 0 489.5549 65.8000
  A 5.56 0.58 -0.5 0 0 484.0002 66.4285
  A 5.56 0.58 -0.5 0 0 489.5651 66.9600
  A 5.56 0.58 -0.5 0 0 495.1198 66.3315
  Z
  M 486.92 70.49
  Q 486.92 71.04 487.50 71.03
  Q 495.63 70.90 497.00 71.17
  A 1.02 0.81 -17.9 0 1 497.24 71.26
  Q 497.60 71.44 497.93 71.58
  Q 498.16 71.67 498.60 71.43
  Q 499.95 70.69 500.50 70.76
  Q 504.05 71.22 504.05 70.44
  Q 504.05 69.67 500.50 70.14
  Q 499.95 70.22 498.59 69.48
  Q 498.15 69.25 497.92 69.34
  Q 497.59 69.48 497.24 69.66
  A 1.02 0.81 17.6 0 1 497.00 69.75
  Q 495.63 70.03 487.50 69.95
  Q 486.92 69.94 486.92 70.49
  Z
  M 499.26 75.01
  L 499.26 74.07
  A 0.19 0.19 0.0 0 0 499.07 73.87
  L 498.94 73.87
  A 8.28 0.66 0.2 0 0 490.66 74.50
  A 8.28 0.66 0.2 0 0 498.94 75.19
  L 499.07 75.19
  A 0.19 0.19 0.0 0 0 499.26 75.01
  Z
  M 500.76 74.67
  Q 502.39 75.22 503.57 74.94
  A 0.34 0.34 0.0 0 0 503.57 74.28
  Q 502.42 73.98 500.82 74.13
  A 0.28 0.28 0.0 0 0 500.76 74.67
  Z
  M 321.88 83.32
  Q 322.78 82.71 323.14 81.66
  A 1.15 1.15 0.0 0 0 321.48 80.28
  L 320.09 81.09
  A 0.64 0.61 33.4 0 1 319.70 81.16
  Q 318.22 80.94 317.64 81.82
  A 0.91 0.80 7.6 0 0 318.68 83.02
  Q 320.12 82.68 321.08 83.33
  A 0.71 0.70 -45.4 0 0 321.88 83.32
  Z
  M 499.5664 86.1979
  A 0.72 0.59 -81.5 0 0 498.8765 86.8228
  A 0.72 0.59 -81.5 0 0 499.3536 87.6221
  A 0.72 0.59 -81.5 0 0 500.0435 86.9972
  A 0.72 0.59 -81.5 0 0 499.5664 86.1979
  Z
  M 488.94 97.06
  A 0.23 0.23 0.0 0 0 489.37 96.95
  Q 489.39 95.62 490.77 95.78
  Q 498.30 96.68 505.39 95.81
  A 0.30 0.28 -4.8 0 0 505.64 95.53
  L 505.64 95.16
  A 0.47 0.47 0.0 0 0 505.16 94.69
  L 490.38 95.02
  A 1.03 0.98 -34.0 0 1 489.96 94.95
  L 489.05 94.62
  A 0.57 0.56 13.3 0 0 488.31 95.07
  Q 488.21 95.79 488.94 97.06
  Z
  M 441.58 124.58
  Q 442.64 124.91 445.39 124.53
  C 447.24 124.27 448.47 124.96 450.07 124.17
  A 0.75 0.72 -55.6 0 1 450.36 124.11
  L 457.70 124.11
  A 0.49 0.49 0.0 0 1 458.19 124.60
  L 458.19 144.16
  A 0.90 0.90 0.0 0 1 457.29 145.06
  L 450.14 145.06
  A 0.54 0.53 -24.3 0 1 449.79 144.93
  L 449.57 144.73
  A 0.64 0.64 0.0 0 0 448.51 145.13
  Q 448.41 145.98 449.16 146.71
  A 0.39 0.39 0.0 0 0 449.80 146.58
  Q 449.89 146.38 450.19 146.05
  Q 450.40 145.83 451.30 145.91
  Q 454.95 146.24 457.52 145.97
  A 1.01 1.00 -0.7 0 1 458.63 147.05
  Q 458.52 148.41 458.91 149.37
  A 0.51 0.51 0.0 0 0 459.89 149.27
  L 460.46 146.28
  A 0.64 0.64 0.0 0 1 461.22 145.77
  Q 464.14 146.37 467.68 145.81
  A 0.50 0.50 0.0 0 0 467.65 144.82
  Q 465.43 144.57 461.66 144.93
  A 1.26 1.25 87.1 0 1 460.28 143.68
  L 460.28 124.97
  A 1.05 1.05 0.0 0 1 461.27 123.92
  L 465.82 123.68
  A 0.09 0.08 -4.1 0 0 465.90 123.60
  L 465.90 123.20
  A 0.09 0.09 0.0 0 0 465.81 123.11
  L 461.20 123.11
  A 1.32 1.32 0.0 0 1 459.88 121.86
  L 459.34 111.73
  A 0.93 0.92 88.5 0 1 460.26 110.75
  L 470.13 110.75
  A 0.75 0.74 5.0 0 0 470.87 110.14
  L 470.93 109.83
  A 0.46 0.46 0.0 0 0 470.48 109.28
  L 459.87 109.28
  A 0.43 0.42 -1.4 0 1 459.44 108.88
  L 458.92 99.21
  A 0.38 0.38 0.0 0 0 458.17 99.15
  Q 457.67 101.44 458.03 104.06
  A 1.57 1.57 0.0 0 1 456.31 105.83
  Q 453.83 105.56 449.13 105.64
  Q 448.03 105.66 445.84 106.09
  Q 445.29 106.20 442.50 106.35
  Q 441.61 106.39 441.34 107.04
  A 0.27 0.27 0.0 0 0 441.59 107.42
  L 456.78 107.42
  A 0.96 0.95 88.4 0 1 457.73 108.33
  L 457.75 108.68
  A 0.70 0.70 0.0 0 1 457.09 109.42
  L 448.29 109.89
  A 0.81 0.81 0.0 0 0 447.53 110.65
  Q 447.42 112.69 449.90 111.28
  A 0.52 0.48 28.8 0 1 450.14 111.22
  L 456.82 111.22
  A 1.10 1.10 0.0 0 1 457.92 112.32
  L 457.92 121.31
  A 1.38 1.38 0.0 0 1 456.47 122.69
  Q 448.16 122.26 441.58 124.11
  A 0.25 0.24 45.6 0 0 441.58 124.58
  Z
  M 394.99 113.03
  Q 386.86 112.93 375.57 113.37
  C 373.17 113.46 371.14 114.06 369.12 113.73
  A 1.08 1.07 -5.5 0 0 367.94 115.16
  Q 368.06 115.47 368.53 115.70
  A 0.59 0.58 43.4 0 0 369.06 115.69
  C 370.91 114.65 373.14 115.40 375.25 115.33
  Q 381.45 115.14 388.02 114.83
  A 3.55 3.46 -54.5 0 0 388.96 114.66
  Q 391.82 113.76 395.25 113.82
  A 0.13 0.12 90.0 0 0 395.37 113.69
  L 395.37 113.42
  A 0.39 0.38 90.0 0 0 394.99 113.03
  Z
  M 384.10 135.40
  Q 382.19 135.11 380.87 135.74
  A 0.83 0.82 50.0 0 1 380.03 135.66
  Q 378.51 134.52 377.52 135.44
  A 1.17 1.16 26.7 0 1 376.57 135.75
  Q 373.97 135.43 370.76 135.89
  Q 369.88 136.02 369.32 135.51
  Q 368.58 134.85 368.15 135.41
  Q 367.68 136.03 367.92 136.86
  A 0.73 0.73 0.0 0 0 369.14 137.18
  Q 369.21 137.11 369.25 137.08
  A 0.30 0.30 0.0 0 1 369.43 137.02
  L 384.07 136.02
  A 0.31 0.31 0.0 0 0 384.10 135.40
  Z
  M 398.09 138.55
  L 371.53 139.98
  A 0.06 0.06 0.0 0 0 371.47 140.04
  L 371.49 140.38
  A 0.31 0.31 0.0 0 0 371.79 140.68
  Q 384.34 141.17 390.35 140.44
  Q 395.08 139.86 396.50 139.84
  Q 397.05 139.84 397.31 140.32
  A 0.46 0.45 -31.4 0 0 397.97 140.48
  Q 398.52 140.11 398.60 139.07
  A 0.49 0.48 1.0 0 0 398.09 138.55
  Z
  M 316.9694 142.5150
  A 1.61 0.44 -1.6 0 0 315.3477 142.1202
  A 1.61 0.44 -1.6 0 0 313.7506 142.6050
  A 1.61 0.44 -1.6 0 0 315.3723 142.9998
  A 1.61 0.44 -1.6 0 0 316.9694 142.5150
  Z
  M 325.70 145.69
  Q 326.92 146.23 328.08 146.34
  A 0.58 0.58 0.0 0 0 328.43 145.27
  Q 327.62 144.77 325.75 145.18
  A 0.27 0.27 0.0 0 0 325.70 145.69
  Z
  M 431.4128 146.6347
  A 2.36 0.54 -177.2 0 0 433.7436 147.2894
  A 2.36 0.54 -177.2 0 0 436.1272 146.8653
  A 2.36 0.54 -177.2 0 0 433.7964 146.2106
  A 2.36 0.54 -177.2 0 0 431.4128 146.6347
  Z"
/>
<path fill="#86887c" d="
  M 486.90 31.93
  Q 481.62 33.80 475.71 33.19
  A 0.24 0.23 -12.4 0 1 475.53 33.08
  Q 475.43 32.92 475.46 32.74
  Q 481.00 31.41 486.90 31.93
  Z"
/>
<path fill="#86887c" d="
  M 473.52 33.06
  Q 468.46 33.33 460.27 34.18
  Q 459.34 34.28 458.97 33.88
  Q 466.26 32.36 473.52 33.06
  Z"
/>
<path fill="#86887c" d="
  M 457.37 33.99
  Q 457.27 37.03 457.52 40.08
  Q 457.87 44.37 457.85 46.18
  Q 457.78 55.21 458.26 76.98
  Q 458.27 77.45 458.13 77.64
  A 0.81 0.81 0.0 0 1 456.69 76.99
  Q 457.03 75.32 456.68 74.41
  A 0.71 0.70 -10.1 0 0 456.02 73.96
  L 449.49 73.96
  A 1.08 1.08 0.0 0 0 448.48 75.44
  Q 449.05 76.91 448.56 78.12
  A 0.78 0.78 0.0 0 1 447.08 77.99
  Q 446.83 76.80 447.23 76.01
  A 1.53 1.44 12.8 0 0 445.81 73.90
  Q 441.45 73.91 441.01 73.88
  A 0.34 0.34 0.0 0 1 440.96 73.21
  L 446.49 72.00
  A 0.63 0.62 77.9 0 0 446.96 71.26
  L 446.88 70.89
  A 1.11 1.11 0.0 0 0 445.80 70.02
  L 439.71 70.02
  A 0.51 0.51 0.0 0 1 439.65 69.01
  L 446.51 68.21
  A 0.69 0.67 16.8 0 0 446.94 67.99
  Q 447.67 67.17 448.58 68.21
  A 0.58 0.57 -20.4 0 0 449.01 68.40
  L 454.26 68.40
  A 0.57 0.56 35.3 0 1 454.45 69.50
  Q 452.07 70.33 449.72 69.50
  A 0.75 0.74 -59.1 0 0 448.90 69.71
  Q 447.83 70.92 448.14 71.89
  A 0.65 0.64 -8.5 0 0 448.76 72.34
  L 455.52 72.34
  A 0.93 0.92 -0.6 0 0 456.45 71.40
  L 455.96 45.87
  A 0.81 0.81 0.0 0 0 455.70 45.30
  L 455.28 44.93
  A 0.48 0.47 46.1 0 1 455.29 44.21
  Q 455.85 43.75 456.14 42.53
  A 1.23 1.23 0.0 0 0 454.88 41.01
  L 448.66 41.35
  A 1.78 1.78 0.0 0 0 447.00 42.80
  L 446.91 43.24
  A 0.77 0.77 0.0 0 0 447.67 44.15
  L 453.50 44.15
  A 0.47 0.47 0.0 0 1 453.96 44.71
  L 453.91 44.96
  A 0.50 0.50 0.0 0 1 453.41 45.37
  L 448.68 45.24
  A 1.74 1.73 85.2 0 0 446.93 47.31
  Q 446.99 47.64 447.61 48.41
  A 1.03 0.91 -23.3 0 1 446.90 49.91
  Q 446.68 49.95 446.41 49.71
  Q 446.16 49.48 446.15 49.21
  Q 446.10 48.12 446.16 46.40
  A 0.74 0.74 0.0 0 0 445.42 45.63
  L 440.04 45.63
  A 0.18 0.18 0.0 0 1 440.00 45.28
  Q 442.02 44.72 444.58 44.85
  A 1.81 1.81 0.0 0 0 446.47 43.29
  L 446.47 43.26
  A 1.43 1.43 0.0 0 0 445.00 41.58
  L 440.27 41.80
  A 0.20 0.19 -11.7 0 1 440.07 41.68
  L 440.07 41.67
  A 0.33 0.31 1.2 0 1 440.32 41.44
  L 445.07 40.80
  A 1.43 1.43 0.0 0 0 445.71 38.22
  L 445.61 38.15
  A 0.54 0.54 0.0 0 1 445.79 37.17
  Q 446.67 36.97 446.93 37.23
  Q 447.25 37.54 446.94 38.28
  Q 446.72 38.80 446.63 39.15
  A 1.00 0.99 -85.0 0 0 447.65 40.37
  L 454.62 39.99
  A 0.52 0.51 88.3 0 0 455.11 39.46
  L 454.98 34.10
  Q 456.38 33.82 457.37 33.99
  Z"
/>
<path fill="#86887c" d="
  M 486.18 43.17
  Q 485.89 43.06 485.82 42.42
  Q 485.28 37.68 486.06 34.33
  A 0.39 0.39 0.0 0 1 486.83 34.40
  C 486.90 36.03 487.43 37.27 487.01 38.87
  Q 486.67 40.18 487.23 41.95
  A 0.95 0.83 89.5 0 1 486.18 43.17
  Z"
/>
<path fill="#86887c" d="
  M 448.32 34.35
  Q 447.49 35.96 445.50 35.71
  Q 443.01 35.40 442.17 34.78
  L 448.32 34.35
  Z"
/>
<path fill="#32282a" d="
  M 302.36 51.87
  Q 301.31 51.49 300.61 49.78
  A 0.84 0.84 0.0 0 0 299.01 49.95
  L 298.54 52.39
  A 0.52 0.52 0.0 0 1 297.69 52.69
  C 296.23 51.43 296.12 49.75 295.51 47.07
  A 1.98 1.93 19.8 0 0 295.09 46.21
  Q 293.37 44.17 290.65 43.03
  Q 280.55 38.65 269.37 36.98
  A 0.60 0.49 -24.3 0 1 269.22 36.94
  L 266.59 36.01
  A 0.57 0.56 53.0 0 1 266.74 34.91
  Q 269.43 34.77 270.98 35.11
  Q 276.00 36.20 285.03 37.86
  Q 290.20 38.81 298.65 42.88
  A 3.43 3.38 -1.0 0 1 300.16 44.32
  Q 300.74 45.40 301.45 45.97
  A 1.92 1.88 -79.5 0 1 302.06 46.88
  Q 302.61 48.71 303.65 50.09
  A 0.80 0.79 -43.4 0 1 303.62 51.07
  Q 303.23 51.53 302.36 51.87
  Z"
/>
<path fill="#86887c" d="
  M 432.30 35.65
  L 432.50 35.88
  A 0.51 0.51 0.0 0 1 432.09 36.73
  L 421.74 36.22
  Q 426.89 35.23 432.30 35.65
  Z"
/>
<path fill="#86887c" d="
  M 493.25 49.76
  Q 486.39 52.11 478.66 50.94
  A 1.13 1.13 0.0 0 0 477.39 52.31
  L 477.96 54.83
  A 1.09 1.09 0.0 0 1 476.31 55.99
  Q 476.26 55.95 476.35 55.00
  Q 476.51 53.26 476.21 51.08
  C 476.05 49.95 476.59 49.60 476.57 48.86
  Q 476.53 46.62 474.04 47.19
  Q 472.88 47.45 470.93 47.71
  A 0.46 0.46 0.0 0 1 470.47 47.02
  Q 470.63 46.77 471.35 46.89
  Q 471.90 46.98 472.22 46.81
  Q 473.45 46.17 475.37 46.38
  A 0.81 0.80 -86.5 0 0 476.27 45.58
  L 476.27 37.73
  A 0.34 0.34 0.0 0 1 476.88 37.52
  Q 477.61 38.43 477.12 39.84
  A 1.40 1.38 46.2 0 0 477.11 40.77
  Q 477.65 42.43 477.24 44.69
  A 1.20 1.20 0.0 0 0 478.42 46.10
  L 485.21 46.10
  A 0.46 0.45 -75.6 0 0 485.61 45.86
  L 485.94 45.30
  A 0.93 0.93 0.0 0 1 487.65 45.57
  Q 488.02 47.28 486.91 47.61
  A 0.84 0.83 -31.1 0 1 486.09 47.41
  Q 485.97 47.29 485.91 47.26
  A 1.54 1.49 -31.1 0 0 485.25 47.11
  L 478.87 47.04
  A 1.76 1.76 0.0 0 0 477.10 48.69
  L 477.10 48.80
  A 1.39 1.39 0.0 0 0 478.74 50.23
  Q 485.97 48.91 493.17 49.21
  A 0.28 0.28 0.0 0 1 493.25 49.76
  Z"
/>
<path fill="#86887c" d="
  M 491.10 37.15
  Q 492.26 37.09 492.70 37.13
  A 0.38 0.37 -54.7 0 1 492.82 37.84
  Q 492.67 37.91 491.14 37.98
  Q 489.62 38.05 489.46 38.00
  A 0.38 0.37 49.3 0 1 489.51 37.28
  Q 489.94 37.20 491.10 37.15
  Z"
/>
<path fill="#86887c" d="
  M 392.55 38.22
  C 390.13 40.86 386.28 39.51 383.23 39.49
  Q 382.90 39.55 382.54 39.46
  L 381.79 38.93
  L 392.55 38.22
  Z"
/>
<path fill="#86887c" d="
  M 354.69 40.80
  Q 351.05 42.80 347.35 42.03
  A 2.26 2.23 -45.3 0 0 346.39 42.04
  Q 343.85 42.61 341.29 42.21
  Q 347.89 40.46 354.69 40.80
  Z"
/>
<path fill="#86887c" d="
  M 335.68 42.21
  Q 334.62 43.36 332.98 43.51
  Q 329.25 43.86 324.42 43.10
  L 335.68 42.21
  Z"
/>
<path fill="#674943" d="
  M 302.36 51.87
  Q 302.22 52.25 302.21 52.71
  Q 301.96 53.08 302.15 52.96
  Q 301.76 52.46 301.25 52.38
  A 0.47 0.47 0.0 0 0 300.71 52.87
  Q 301.30 62.42 301.28 72.00
  Q 301.26 87.38 300.85 102.82
  Q 299.64 100.78 297.74 100.81
  A 0.21 0.21 0.0 0 0 297.64 101.20
  L 298.36 101.62
  A 0.27 0.27 0.0 0 1 298.17 102.11
  Q 295.01 101.43 291.28 102.11
  A 0.24 0.23 78.7 0 1 291.01 101.92
  L 290.95 101.64
  A 0.08 0.08 0.0 0 1 291.02 101.54
  L 296.50 100.78
  A 0.23 0.23 0.0 0 0 296.62 100.38
  C 292.42 96.82 293.15 93.48 292.75 88.27
  C 292.40 83.73 289.50 80.22 288.95 75.51
  Q 288.27 69.62 285.79 53.73
  A 0.09 0.08 -61.1 0 1 285.95 53.67
  Q 285.98 53.79 286.08 53.82
  A 0.08 0.03 83.1 0 1 286.12 53.89
  L 289.22 68.07
  A 0.34 0.34 0.0 0 0 289.89 68.04
  Q 291.08 58.89 293.26 49.69
  Q 294.02 46.44 290.65 43.03
  Q 293.37 44.17 295.09 46.21
  A 1.98 1.93 19.8 0 1 295.51 47.07
  C 296.12 49.75 296.23 51.43 297.69 52.69
  A 0.52 0.52 0.0 0 0 298.54 52.39
  L 299.01 49.95
  A 0.84 0.84 0.0 0 1 300.61 49.78
  Q 301.31 51.49 302.36 51.87
  Z"
/>
<path fill="#86887c" d="
  M 505.35 43.34
  L 505.50 45.48
  L 495.02 45.47
  A 0.02 0.02 0.0 0 1 495.01 45.43
  Q 495.92 44.89 497.02 44.75
  Q 501.22 44.21 505.35 43.34
  Z"
/>
<path fill="#32282a" d="
  M 312.50 49.73
  Q 312.56 50.19 312.28 50.32
  A 0.12 0.11 -48.6 0 1 312.20 50.33
  L 310.99 50.09
  Q 311.86 50.19 312.50 49.73
  Z"
/>
<path fill="#86887c" d="
  M 478.23 58.52
  A 0.20 0.20 0.0 0 1 478.31 58.77
  L 477.51 60.63
  A 0.30 0.30 0.0 0 1 476.98 60.67
  L 476.76 60.29
  A 0.72 0.71 73.3 0 0 476.11 59.93
  L 469.47 60.29
  A 1.17 1.16 2.0 0 0 468.37 61.31
  L 468.33 61.62
  A 1.19 1.19 0.0 0 0 469.54 62.86
  L 476.10 62.76
  A 0.64 0.64 0.0 0 0 476.54 62.56
  Q 476.79 62.29 477.52 62.13
  Q 478.54 61.91 478.55 63.71
  A 0.82 0.82 0.0 0 1 477.29 64.41
  Q 476.29 63.76 475.34 64.00
  C 473.20 64.52 471.47 64.33 469.30 64.56
  A 1.11 1.11 0.0 0 0 468.30 65.64
  L 468.37 66.01
  A 0.89 0.88 83.9 0 0 469.23 66.71
  L 478.12 66.71
  A 0.55 0.54 1.5 0 1 478.67 67.28
  L 478.65 67.82
  A 0.57 0.57 0.0 0 1 478.05 68.37
  L 469.03 68.01
  A 0.67 0.67 0.0 0 0 468.33 68.68
  L 468.33 75.60
  A 0.34 0.34 0.0 0 1 468.01 75.94
  L 467.67 75.96
  A 0.41 0.40 88.7 0 1 467.25 75.55
  L 467.25 68.95
  A 0.87 0.86 88.4 0 0 466.34 68.08
  L 460.75 68.38
  A 0.19 0.18 -3.1 0 1 460.55 68.21
  L 460.53 67.77
  A 0.12 0.12 0.0 0 1 460.64 67.64
  L 466.05 67.35
  A 1.29 1.29 0.0 0 0 467.27 66.12
  L 467.29 65.63
  A 0.91 0.91 0.0 0 0 466.41 64.68
  L 460.62 64.44
  A 0.35 0.35 0.0 0 1 460.28 64.07
  L 460.29 63.78
  A 0.34 0.34 0.0 0 1 460.61 63.45
  L 466.15 63.15
  A 1.22 1.22 0.0 0 0 467.31 61.94
  L 467.31 61.55
  A 0.88 0.87 88.5 0 0 466.39 60.67
  L 460.44 60.99
  A 0.46 0.46 0.0 0 1 459.95 60.56
  L 459.94 60.22
  A 0.60 0.59 -3.3 0 1 460.51 59.59
  L 466.19 59.28
  A 1.01 1.01 0.0 0 0 467.14 58.32
  L 467.18 57.24
  A 0.73 0.72 -87.6 0 0 466.49 56.48
  L 459.66 56.21
  A 0.16 0.16 0.0 0 1 459.51 56.06
  L 459.49 55.67
  A 0.50 0.49 -0.5 0 1 460.01 55.15
  L 466.02 55.39
  A 1.09 1.09 0.0 0 0 467.15 54.24
  L 466.97 50.82
  A 0.53 0.53 0.0 0 1 467.77 50.33
  L 468.82 50.94
  A 0.47 0.47 0.0 0 1 468.92 51.68
  Q 467.26 53.35 468.76 54.80
  A 0.94 0.93 -56.5 0 1 468.97 55.85
  L 468.38 57.24
  A 1.14 1.14 0.0 0 0 469.40 58.83
  Q 470.74 58.86 474.49 58.56
  Q 474.91 58.52 475.53 59.13
  A 0.49 0.48 -52.2 0 0 476.29 59.03
  L 476.71 58.29
  A 0.56 0.55 -60.0 0 1 477.47 58.08
  L 478.23 58.52
  Z"
/>
<path fill="#86887c" d="
  M 505.84 50.76
  Q 507.12 58.74 506.64 67.04
  Q 504.29 59.00 505.84 50.76
  Z"
/>
<path fill="#86887c" d="
  M 302.15 52.96
  L 302.42 98.67
  A 1.44 1.44 0.0 0 0 303.86 100.10
  L 310.31 100.10
  A 0.75 0.74 -79.9 0 0 311.01 99.61
  Q 312.34 95.91 312.49 92.00
  Q 313.18 72.59 313.93 53.26
  Q 317.61 52.24 317.48 54.73
  Q 316.88 67.10 316.40 74.00
  Q 315.86 81.72 315.55 82.49
  A 0.98 0.90 58.5 0 0 315.48 82.85
  L 315.12 93.28
  A 2.05 2.02 67.4 0 1 314.61 94.55
  L 313.32 96.00
  A 2.47 2.44 -17.0 0 0 312.79 96.98
  L 311.14 103.26
  A 0.44 0.43 -76.9 0 0 311.47 103.80
  L 313.65 104.21
  A 0.79 0.79 0.0 0 1 314.29 105.02
  L 312.80 141.77
  A 0.81 0.79 -10.7 0 1 312.31 142.47
  Q 308.91 143.88 305.54 143.39
  L 309.73 142.30
  A 0.53 0.52 82.9 0 0 310.12 141.79
  L 310.12 104.74
  A 0.61 0.61 0.0 0 0 309.48 104.13
  L 309.04 104.15
  L 307.52 104.16
  L 303.50 104.44
  L 300.85 102.82
  Q 301.26 87.38 301.28 72.00
  Q 301.30 62.42 300.71 52.87
  A 0.47 0.47 0.0 0 1 301.25 52.38
  Q 301.76 52.46 302.15 52.96
  Z"
/>
<path fill="#86887c" d="
  M 480.58 54.85
  A 0.42 0.41 44.6 0 1 480.57 54.02
  L 497.68 52.76
  A 0.33 0.31 72.7 0 1 497.97 52.92
  L 498.19 53.30
  A 0.52 0.52 0.0 0 1 497.74 54.08
  Q 494.87 54.09 493.98 54.35
  C 491.68 55.02 489.85 54.53 487.24 55.20
  A 2.15 1.94 36.7 0 1 486.60 55.26
  L 480.58 54.85
  Z"
/>
<path fill="#32282a" d="
  M 193.03 55.17
  Q 192.17 55.54 192.16 57.25
  Q 192.15 59.25 192.12 61.26
  A 2.56 2.53 65.9 0 1 191.51 62.89
  L 190.79 63.74
  A 1.54 1.49 -23.9 0 0 190.43 64.63
  Q 190.04 70.72 189.90 76.73
  Q 189.82 80.40 188.54 87.20
  Q 187.18 94.41 187.47 102.08
  A 0.55 0.55 0.0 0 0 188.02 102.61
  Q 188.48 102.62 189.20 103.00
  Q 189.60 103.21 189.63 104.07
  Q 189.69 106.38 189.65 106.49
  A 6.84 5.32 -55.9 0 1 189.22 107.35
  Q 186.28 112.55 186.21 114.90
  C 186.08 119.16 185.55 122.18 185.65 126.21
  Q 185.70 128.03 185.37 131.13
  Q 184.12 143.14 183.49 149.62
  A 0.70 0.69 -30.7 0 1 183.43 149.85
  L 182.88 151.05
  A 0.66 0.65 27.4 0 0 183.15 151.89
  L 184.02 152.40
  A 0.84 0.82 23.3 0 1 184.41 153.36
  Q 183.93 155.00 184.53 159.10
  A 0.35 0.35 0.0 0 1 184.15 159.50
  L 176.02 158.73
  A 0.98 0.97 -67.7 0 0 175.17 159.09
  Q 174.65 159.74 174.54 160.75
  L 153.11 162.48
  Q 150.26 162.56 148.58 161.67
  Q 147.84 161.28 147.46 161.41
  Q 146.23 161.82 146.20 162.30
  A 0.19 0.19 0.0 0 1 146.02 162.48
  L 140.10 162.80
  A 0.93 0.93 0.0 0 1 139.12 161.83
  L 139.61 149.64
  A 0.31 0.31 0.0 0 0 139.04 149.45
  Q 138.34 150.43 138.73 151.69
  A 1.99 1.95 44.5 0 1 138.75 152.79
  Q 137.59 157.17 137.85 162.51
  A 0.81 0.80 3.7 0 1 136.90 163.34
  Q 132.96 162.65 129.35 164.28
  A 1.18 1.18 0.0 0 1 128.68 164.38
  Q 128.50 164.35 128.33 164.26
  A 0.79 0.77 -38.0 0 0 127.69 164.19
  Q 124.48 165.17 119.75 164.81
  Q 118.59 164.72 118.71 165.96
  L 111.81 166.27
  L 101.47 165.66
  A 2.06 2.06 0.0 0 0 100.28 165.95
  Q 97.61 167.51 94.06 167.55
  A 1.71 1.20 -28.5 0 1 93.70 167.51
  Q 88.81 166.23 84.42 168.39
  A 1.05 1.05 0.0 0 1 82.91 167.37
  L 83.29 162.66
  A 0.95 0.86 -54.8 0 0 83.24 162.26
  Q 82.46 159.93 84.17 159.07
  A 1.57 1.53 35.5 0 1 85.15 158.92
  Q 88.10 159.46 89.88 158.79
  A 1.60 1.60 0.0 0 1 91.92 160.87
  Q 91.13 162.90 91.38 165.37
  A 0.59 0.59 0.0 0 0 92.56 165.37
  L 93.32 157.43
  A 0.38 0.38 0.0 0 0 92.66 157.14
  Q 91.79 158.10 90.86 158.34
  A 1.26 1.12 34.3 0 1 90.55 158.38
  L 82.67 158.23
  A 0.57 0.56 1.5 0 0 82.09 158.77
  L 81.64 168.88
  L 65.09 170.23
  Q 61.43 169.28 57.54 171.17
  L 34.34 173.38
  Q 28.95 171.86 25.89 173.80
  L 21.16 174.72
  Q 16.46 173.36 13.01 175.29
  L 9.69 175.63
  L 6.96 175.80
  A 1.41 1.35 -35.0 0 1 6.44 175.72
  Q 4.22 174.96 2.18 175.64
  A 0.65 0.65 0.0 0 1 1.33 174.96
  L 1.77 170.34
  A 0.99 0.95 -23.3 0 1 1.99 169.82
  Q 2.57 169.14 2.61 167.84
  C 2.71 164.80 4.48 162.33 3.52 159.03
  Q 3.55 157.75 3.90 157.89
  L 6.47 149.20
  A 3.23 3.19 52.7 0 0 6.59 148.26
  L 6.53 144.68
  A 1.12 1.12 0.0 0 1 6.68 144.12
  Q 8.07 141.83 7.95 139.31
  Q 7.90 138.16 8.52 135.81
  Q 9.08 133.66 8.52 131.63
  Q 9.19 130.72 9.05 128.66
  Q 10.89 126.53 10.50 123.47
  A 1.63 1.59 53.7 0 1 10.62 122.61
  L 11.76 119.95
  A 2.78 2.72 53.9 0 0 11.96 118.57
  Q 11.59 115.39 12.88 112.22
  A 2.76 2.62 56.8 0 0 13.07 111.17
  Q 12.98 107.73 14.37 104.85
  A 3.11 3.06 -33.2 0 0 14.68 103.42
  L 14.62 100.34
  A 1.64 1.60 -32.8 0 1 14.80 99.56
  Q 16.14 96.88 15.20 94.25
  Q 16.98 84.27 18.66 74.12
  Q 19.23 70.64 23.31 70.28
  Q 28.04 69.86 32.39 69.17
  Q 36.00 70.89 37.55 68.62
  L 44.27 68.03
  Q 48.32 69.21 52.34 68.69
  A 0.91 0.90 15.6 0 0 52.90 68.38
  Q 53.27 67.92 53.29 67.25
  L 66.24 65.87
  A 2.98 1.99 -4.9 0 1 66.66 65.85
  C 72.59 66.05 78.02 64.82 84.03 64.64
  Q 87.69 64.53 91.10 64.07
  Q 96.20 65.89 97.63 63.32
  L 120.44 61.51
  L 127.22 61.93
  A 5.20 5.03 41.6 0 0 128.37 61.88
  C 130.61 61.53 130.95 60.93 133.40 61.36
  C 135.05 61.65 135.40 60.07 136.66 60.09
  Q 137.20 60.09 137.50 60.30
  A 2.19 1.26 53.5 0 0 138.37 60.68
  Q 141.52 61.16 143.31 59.36
  L 153.61 58.32
  Q 156.33 59.80 158.84 58.61
  A 1.81 1.75 31.9 0 1 159.58 58.45
  L 165.02 58.53
  A 6.27 6.00 39.9 0 0 166.07 58.46
  L 175.81 57.01
  Q 184.08 54.99 193.03 55.17
  Z
  M 182.37 62.37
  Q 182.76 62.41 183.02 62.15
  Q 183.23 61.94 183.23 61.53
  Q 183.25 58.30 182.83 58.25
  Q 182.42 58.21 181.72 61.36
  Q 181.63 61.76 181.78 62.01
  Q 181.97 62.32 182.37 62.37
  Z
  M 165.45 59.55
  A 0.40 0.40 0.0 0 0 164.70 59.37
  Q 164.24 60.27 164.78 60.89
  A 0.39 0.38 -65.8 0 0 165.45 60.63
  L 165.45 59.55
  Z
  M 165.75 70.19
  Q 165.31 70.07 164.97 69.42
  A 1.27 1.25 34.3 0 1 164.83 68.70
  L 165.43 62.34
  A 0.44 0.43 -20.5 0 0 164.68 62.00
  L 164.14 62.58
  A 1.62 1.57 -73.3 0 1 163.30 63.05
  Q 159.07 63.97 156.73 63.01
  A 0.54 0.53 24.7 0 0 156.06 63.25
  Q 155.85 63.67 155.87 63.94
  Q 155.95 64.75 156.65 64.61
  Q 156.74 64.59 157.50 64.10
  A 0.95 0.90 -60.7 0 1 157.95 63.96
  L 162.73 63.70
  A 1.36 1.35 89.6 0 1 164.15 65.11
  L 163.77 74.56
  A 0.27 0.27 0.0 0 0 164.16 74.82
  L 164.65 74.57
  A 0.14 0.13 74.2 0 0 164.73 74.42
  Q 164.16 71.74 165.83 70.75
  A 0.31 0.31 0.0 0 0 165.75 70.19
  Z
  M 138.09 64.56
  L 137.64 69.33
  A 0.23 0.23 0.0 0 0 137.86 69.59
  L 138.25 69.60
  A 0.42 0.42 0.0 0 0 138.69 69.20
  L 138.89 64.33
  A 0.11 0.11 0.0 0 0 138.79 64.22
  L 138.53 64.20
  A 0.40 0.40 0.0 0 0 138.09 64.56
  Z
  M 132.48 73.34
  Q 134.93 73.85 138.30 73.37
  A 0.94 0.84 -28.5 0 0 138.85 71.82
  Q 138.11 71.27 137.12 72.15
  A 0.92 0.83 -66.3 0 1 136.65 72.36
  L 132.51 72.81
  A 0.27 0.27 0.0 0 0 132.48 73.34
  Z
  M 184.94 93.69
  Q 183.21 94.50 181.42 93.65
  Q 179.98 92.96 179.38 94.19
  A 1.04 0.95 -6.7 0 0 180.94 95.31
  Q 181.25 95.09 181.73 94.80
  A 1.40 1.40 0.0 0 1 182.68 94.61
  Q 184.69 94.89 185.38 94.62
  A 0.37 0.36 -26.2 0 0 185.56 94.10
  L 185.41 93.83
  A 0.37 0.37 0.0 0 0 184.94 93.69
  Z
  M 176.25 101.36
  L 173.52 101.96
  A 1.13 1.12 -27.4 0 1 172.47 101.63
  Q 171.52 100.62 170.39 101.71
  A 1.13 1.12 27.6 0 1 169.41 102.01
  Q 167.69 101.70 165.83 102.20
  A 0.44 0.44 0.0 0 0 165.90 103.06
  Q 171.22 103.54 176.48 102.62
  A 0.51 0.51 0.0 0 0 176.89 102.01
  L 176.82 101.73
  A 0.48 0.48 0.0 0 0 176.25 101.36
  Z
  M 152.97 108.12
  L 152.73 108.25
  A 0.43 0.42 -35.2 0 1 152.19 108.16
  Q 150.84 106.66 149.43 108.02
  A 1.56 1.52 -63.9 0 1 148.23 108.45
  L 144.99 108.14
  A 0.83 0.83 0.0 0 0 144.08 108.89
  L 143.96 110.12
  A 0.71 0.70 1.0 0 0 144.71 110.89
  L 149.30 110.58
  A 0.02 0.01 -0.0 0 1 149.32 110.59
  L 149.41 110.91
  A 0.41 0.41 0.0 0 1 149.07 111.41
  L 144.51 112.05
  A 1.17 1.17 0.0 0 0 143.50 113.10
  L 142.36 125.05
  A 1.00 1.00 0.0 0 0 143.60 126.11
  Q 145.76 125.57 149.01 125.62
  Q 149.87 125.63 150.38 125.07
  Q 150.89 124.51 150.23 123.50
  A 0.23 0.23 0.0 0 1 150.52 123.17
  Q 151.75 123.77 152.71 122.53
  A 0.85 0.84 50.9 0 0 152.80 121.63
  Q 152.36 120.73 152.36 119.75
  A 0.64 0.64 0.0 0 1 153.13 119.12
  Q 155.61 119.61 158.18 118.76
  A 1.18 1.18 0.0 0 1 159.73 119.99
  L 159.48 122.57
  A 0.65 0.64 6.4 0 0 160.04 123.27
  Q 160.55 123.33 160.76 122.97
  Q 161.09 122.42 161.98 122.41
  Q 166.45 122.35 170.32 122.14
  A 0.89 0.88 0.7 0 0 171.15 121.34
  L 171.19 120.91
  A 0.57 0.57 0.0 0 0 170.60 120.29
  L 162.00 120.76
  A 0.99 0.99 0.0 0 1 161.72 118.81
  Q 165.91 117.83 169.87 118.41
  A 2.15 2.09 -48.5 0 0 170.80 118.34
  Q 171.48 118.13 171.52 118.09
  A 1.32 1.32 0.0 0 0 170.40 115.85
  L 163.04 116.88
  A 0.82 0.82 0.0 0 1 162.11 115.99
  L 162.15 115.55
  A 1.06 1.05 -1.4 0 1 163.05 114.61
  L 166.72 114.10
  A 0.51 0.50 -0.7 0 0 167.16 113.65
  L 167.19 113.31
  A 0.49 0.49 0.0 0 0 166.68 112.77
  L 162.86 112.98
  A 0.74 0.73 1.3 0 1 162.09 112.18
  L 162.12 111.86
  A 1.05 1.04 -84.8 0 1 163.25 110.91
  Q 165.63 111.12 167.43 110.28
  C 168.40 109.82 168.98 110.28 169.59 110.98
  A 0.57 0.57 0.0 0 0 170.45 110.97
  Q 171.17 110.13 171.56 109.01
  A 0.65 0.64 -70.1 0 0 171.18 108.19
  Q 170.67 108.00 170.18 108.40
  Q 169.51 108.94 168.88 109.00
  Q 163.71 109.50 160.82 108.98
  A 1.18 1.10 46.9 0 0 160.52 108.96
  L 153.59 109.43
  A 0.49 0.49 0.0 0 1 153.08 108.88
  Q 153.16 108.26 153.07 108.14
  A 0.08 0.08 0.0 0 0 152.97 108.12
  Z
  M 171.0383 112.0313
  A 1.25 1.00 -53.8 0 0 169.4930 112.4494
  A 1.25 1.00 -53.8 0 0 169.5617 114.0487
  A 1.25 1.00 -53.8 0 0 171.1070 113.6306
  A 1.25 1.00 -53.8 0 0 171.0383 112.0313
  Z
  M 131.8518 150.5681
  A 2.29 0.56 -177.7 0 0 134.1175 151.2195
  A 2.29 0.56 -177.7 0 0 136.4282 150.7519
  A 2.29 0.56 -177.7 0 0 134.1625 150.1005
  A 2.29 0.56 -177.7 0 0 131.8518 150.5681
  Z
  M 90.6488 162.5460
  A 2.83 0.51 -1.7 0 0 87.8049 162.1202
  A 2.83 0.51 -1.7 0 0 84.9912 162.7140
  A 2.83 0.51 -1.7 0 0 87.8351 163.1398
  A 2.83 0.51 -1.7 0 0 90.6488 162.5460
  Z
  M 61.40 164.96
  L 56.10 164.46
  A 0.85 0.79 -56.4 0 0 55.57 164.59
  Q 54.27 165.43 51.74 165.31
  Q 51.61 165.31 51.63 165.56
  A 0.24 0.24 0.0 0 0 51.92 165.77
  Q 54.52 165.16 55.00 166.74
  A 0.36 0.36 0.0 0 0 55.64 166.85
  C 56.94 165.06 59.33 165.74 61.20 165.57
  A 0.25 0.24 -88.6 0 0 61.43 165.34
  L 61.46 165.04
  A 0.07 0.07 0.0 0 0 61.40 164.96
  Z"
/>
<path fill="#86887c" d="
  M 175.81 57.01
  L 166.07 58.46
  A 6.27 6.00 39.9 0 1 165.02 58.53
  L 159.58 58.45
  A 1.81 1.75 31.9 0 0 158.84 58.61
  Q 156.33 59.80 153.61 58.32
  Q 158.08 58.01 162.44 57.77
  Q 163.02 57.74 169.11 57.01
  Q 172.49 56.60 175.81 57.01
  Z"
/>
<path fill="#86887c" d="
  M 499.30 57.53
  Q 499.32 57.89 498.53 58.37
  A 1.36 1.35 31.9 0 1 497.71 58.56
  Q 494.15 58.26 487.53 58.79
  Q 487.28 58.81 487.08 58.62
  Q 486.90 58.45 486.89 58.20
  Q 486.88 57.96 487.04 57.77
  Q 487.21 57.56 487.46 57.55
  Q 494.10 57.37 497.61 56.68
  A 1.36 1.35 -38.1 0 1 498.44 56.78
  Q 499.28 57.17 499.30 57.53
  Z"
/>
<path fill="#86887c" d="
  M 182.37 62.37
  Q 181.97 62.32 181.78 62.01
  Q 181.63 61.76 181.72 61.36
  Q 182.42 58.21 182.83 58.25
  Q 183.25 58.30 183.23 61.53
  Q 183.23 61.94 183.02 62.15
  Q 182.76 62.41 182.37 62.37
  Z"
/>
<path fill="#86887c" d="
  M 165.45 59.55
  L 165.45 60.63
  A 0.39 0.38 -65.8 0 1 164.78 60.89
  Q 164.24 60.27 164.70 59.37
  A 0.40 0.40 0.0 0 1 165.45 59.55
  Z"
/>
<path fill="#86887c" d="
  M 143.31 59.36
  Q 141.52 61.16 138.37 60.68
  A 2.19 1.26 53.5 0 1 137.50 60.30
  Q 137.20 60.09 136.66 60.09
  C 135.40 60.07 135.05 61.65 133.40 61.36
  C 130.95 60.93 130.61 61.53 128.37 61.88
  A 5.20 5.03 41.6 0 1 127.22 61.93
  L 120.44 61.51
  Q 126.50 60.32 132.69 60.56
  Q 133.09 60.30 133.72 60.36
  L 143.31 59.36
  Z"
/>
<path fill="#32282a" d="
  M 133.72 60.36
  Q 133.09 60.30 132.69 60.56
  Q 132.99 60.22 133.72 60.36
  Z"
/>
<path fill="#86887c" d="
  M 165.83 70.75
  Q 164.16 71.74 164.73 74.42
  A 0.14 0.13 74.2 0 1 164.65 74.57
  L 164.16 74.82
  A 0.27 0.27 0.0 0 1 163.77 74.56
  L 164.15 65.11
  A 1.36 1.35 89.6 0 0 162.73 63.70
  L 157.95 63.96
  A 0.95 0.90 -60.7 0 0 157.50 64.10
  Q 156.74 64.59 156.65 64.61
  Q 155.95 64.75 155.87 63.94
  Q 155.85 63.67 156.06 63.25
  A 0.54 0.53 24.7 0 1 156.73 63.01
  Q 159.07 63.97 163.30 63.05
  A 1.62 1.57 -73.3 0 0 164.14 62.58
  L 164.68 62.00
  A 0.44 0.43 -20.5 0 1 165.43 62.34
  L 164.83 68.70
  A 1.27 1.25 34.3 0 0 164.97 69.42
  Q 165.31 70.07 165.75 70.19
  A 0.31 0.31 0.0 0 1 165.83 70.75
  Z"
/>
<path fill="#86887c" d="
  M 97.63 63.32
  Q 96.20 65.89 91.10 64.07
  L 97.63 63.32
  Z"
/>
<path fill="#674943" d="
  M 138.09 64.56
  A 0.40 0.40 0.0 0 1 138.53 64.20
  L 138.79 64.22
  A 0.11 0.11 0.0 0 1 138.89 64.33
  L 138.69 69.20
  A 0.42 0.42 0.0 0 1 138.25 69.60
  L 137.86 69.59
  A 0.23 0.23 0.0 0 1 137.64 69.33
  L 138.09 64.56
  Z"
/>
<path fill="#86887c" d="
  M 322.41 67.74
  L 322.09 66.25
  A 0.53 0.52 83.8 0 1 322.60 65.61
  L 330.44 65.61
  A 0.49 0.49 0.0 0 0 330.93 65.13
  L 330.93 64.87
  A 1.23 1.13 69.2 0 1 331.05 64.57
  Q 331.60 63.69 332.65 64.84
  A 0.57 0.57 0.0 0 1 332.62 65.63
  Q 331.71 66.50 331.65 67.18
  Q 331.55 68.32 332.57 68.68
  C 333.52 69.03 334.18 68.38 335.02 68.38
  Q 336.43 68.37 339.70 68.38
  A 1.02 0.97 24.3 0 0 340.33 68.16
  Q 340.66 67.89 340.79 67.35
  A 0.33 0.33 0.0 0 1 341.38 67.24
  Q 342.34 68.64 341.84 69.65
  A 0.79 0.79 0.0 0 1 341.06 70.09
  L 333.38 69.35
  A 1.27 1.27 0.0 0 0 332.60 69.53
  L 331.27 70.29
  A 0.61 0.60 -9.9 0 1 330.37 69.66
  L 330.88 67.00
  A 0.76 0.76 0.0 0 0 329.97 66.11
  Q 326.76 66.79 324.63 66.52
  Q 323.68 66.39 323.40 66.71
  Q 323.29 66.83 322.89 67.78
  A 0.25 0.25 0.0 0 1 322.41 67.74
  Z"
/>
<ellipse fill="#86887c" cx="0.00" cy="0.00" transform="translate(497.96,66.13) rotate(-80.3)" rx="1.48" ry="0.87"/>
<ellipse fill="#86887c" cx="0.00" cy="0.00" transform="translate(489.56,66.38) rotate(-0.5)" rx="5.56" ry="0.58"/>
<path fill="#86887c" d="
  M 53.29 67.25
  Q 53.27 67.92 52.90 68.38
  A 0.91 0.90 15.6 0 1 52.34 68.69
  Q 48.32 69.21 44.27 68.03
  L 53.29 67.25
  Z"
/>
<path fill="#86887c" d="
  M 37.55 68.62
  Q 36.00 70.89 32.39 69.17
  Q 34.96 68.41 37.55 68.62
  Z"
/>
<path fill="#86887c" d="
  M 504.05 70.44
  Q 504.05 71.22 500.50 70.76
  Q 499.95 70.69 498.60 71.43
  Q 498.16 71.67 497.93 71.58
  Q 497.60 71.44 497.24 71.26
  A 1.02 0.81 -17.9 0 0 497.00 71.17
  Q 495.63 70.90 487.50 71.03
  Q 486.92 71.04 486.92 70.49
  Q 486.92 69.94 487.50 69.95
  Q 495.63 70.03 497.00 69.75
  A 1.02 0.81 17.6 0 0 497.24 69.66
  Q 497.59 69.48 497.92 69.34
  Q 498.15 69.25 498.59 69.48
  Q 499.95 70.22 500.50 70.14
  Q 504.05 69.67 504.05 70.44
  Z"
/>
<path fill="#86887c" d="
  M 132.51 72.81
  L 136.65 72.36
  A 0.92 0.83 -66.3 0 0 137.12 72.15
  Q 138.11 71.27 138.85 71.82
  A 0.94 0.84 -28.5 0 1 138.30 73.37
  Q 134.93 73.85 132.48 73.34
  A 0.27 0.27 0.0 0 1 132.51 72.81
  Z"
/>
<path fill="#86887c" d="
  M 499.26 75.01
  A 0.19 0.19 0.0 0 1 499.07 75.19
  L 498.94 75.19
  A 8.28 0.66 0.2 0 1 490.66 74.50
  A 8.28 0.66 0.2 0 1 498.94 73.87
  L 499.07 73.87
  A 0.19 0.19 0.0 0 1 499.26 74.07
  L 499.26 75.01
  Z"
/>
<path fill="#86887c" d="
  M 500.82 74.13
  Q 502.42 73.98 503.57 74.28
  A 0.34 0.34 0.0 0 1 503.57 74.94
  Q 502.39 75.22 500.76 74.67
  A 0.28 0.28 0.0 0 1 500.82 74.13
  Z"
/>
<path fill="#86887c" d="
  M 321.08 83.33
  Q 320.12 82.68 318.68 83.02
  A 0.91 0.80 7.6 0 1 317.64 81.82
  Q 318.22 80.94 319.70 81.16
  A 0.64 0.61 33.4 0 0 320.09 81.09
  L 321.48 80.28
  A 1.15 1.15 0.0 0 1 323.14 81.66
  Q 322.78 82.71 321.88 83.32
  A 0.71 0.70 -45.4 0 1 321.08 83.33
  Z"
/>
<ellipse fill="#86887c" cx="0.00" cy="0.00" transform="translate(499.46,86.91) rotate(-81.5)" rx="0.72" ry="0.59"/>
<path fill="#86887c" d="
  M 184.94 93.69
  A 0.37 0.37 0.0 0 1 185.41 93.83
  L 185.56 94.10
  A 0.37 0.36 -26.2 0 1 185.38 94.62
  Q 184.69 94.89 182.68 94.61
  A 1.40 1.40 0.0 0 0 181.73 94.80
  Q 181.25 95.09 180.94 95.31
  A 1.04 0.95 -6.7 0 1 179.38 94.19
  Q 179.98 92.96 181.42 93.65
  Q 183.21 94.50 184.94 93.69
  Z"
/>
<path fill="#86887c" d="
  M 9.05 128.66
  L 15.20 94.25
  Q 16.14 96.88 14.80 99.56
  A 1.64 1.60 -32.8 0 0 14.62 100.34
  L 14.68 103.42
  A 3.11 3.06 -33.2 0 1 14.37 104.85
  Q 12.98 107.73 13.07 111.17
  A 2.76 2.62 56.8 0 1 12.88 112.22
  Q 11.59 115.39 11.96 118.57
  A 2.78 2.72 53.9 0 1 11.76 119.95
  L 10.62 122.61
  A 1.63 1.59 53.7 0 0 10.50 123.47
  Q 10.89 126.53 9.05 128.66
  Z"
/>
<path fill="#86887c" d="
  M 488.94 97.06
  Q 488.21 95.79 488.31 95.07
  A 0.57 0.56 13.3 0 1 489.05 94.62
  L 489.96 94.95
  A 1.03 0.98 -34.0 0 0 490.38 95.02
  L 505.16 94.69
  A 0.47 0.47 0.0 0 1 505.64 95.16
  L 505.64 95.53
  A 0.30 0.28 -4.8 0 1 505.39 95.81
  Q 498.30 96.68 490.77 95.78
  Q 489.39 95.62 489.37 96.95
  A 0.23 0.23 0.0 0 1 488.94 97.06
  Z"
/>
<path fill="#86887c" d="
  M 508.87 96.74
  L 509.35 104.79
  Q 509.31 105.06 509.15 105.08
  Q 508.62 105.15 508.52 104.63
  Q 507.70 100.62 508.87 96.74
  Z"
/>
<path fill="#674943" d="
  M 292.46 109.45
  Q 292.65 105.70 289.35 104.46
  Q 286.37 103.34 283.47 102.08
  A 0.70 0.69 -56.5 0 0 282.68 102.25
  C 280.06 105.24 281.92 107.78 285.00 108.93
  C 287.65 109.92 288.69 110.30 290.50 112.78
  Q 291.58 114.25 292.89 115.51
  L 293.10 137.24
  A 0.55 0.54 -84.4 0 1 292.45 137.78
  Q 292.13 137.72 291.71 137.36
  A 1.18 1.16 69.1 0 0 291.14 137.10
  L 282.22 135.67
  Q 279.88 127.47 279.93 115.67
  Q 279.96 107.74 272.34 103.88
  A 0.41 0.40 -63.8 0 0 271.80 104.07
  L 271.75 104.17
  A 0.41 0.41 0.0 0 0 271.95 104.71
  C 279.97 108.35 279.36 116.17 279.51 123.55
  C 278.72 117.28 278.90 110.66 273.56 107.70
  Q 269.43 105.42 265.66 102.71
  A 0.29 0.29 0.0 0 1 265.59 102.30
  L 265.60 102.29
  A 0.26 0.24 38.8 0 1 265.89 102.27
  L 272.57 106.12
  A 0.12 0.12 0.0 0 0 272.74 105.98
  L 272.73 105.97
  A 0.15 0.15 0.0 0 0 272.68 105.77
  Q 265.49 101.20 257.70 99.48
  A 0.13 0.04 28.2 0 0 257.65 99.47
  L 249.46 98.80
  A 0.37 0.36 -57.7 0 1 249.31 98.12
  L 249.65 97.93
  A 0.24 0.24 0.0 0 0 249.52 97.48
  Q 247.60 97.60 245.75 97.62
  Q 242.75 97.67 245.73 97.76
  Q 245.74 97.76 245.75 97.75
  Q 248.54 97.08 256.50 97.44
  C 263.40 97.75 270.33 97.74 277.23 98.66
  Q 282.53 99.37 286.13 99.95
  Q 288.39 100.31 291.39 102.45
  A 0.98 0.97 -75.7 0 1 291.79 103.13
  L 292.46 109.45
  Z"
/>
<path fill="#674943" d="
  M 213.46 171.70
  C 210.53 169.24 207.42 168.77 205.08 164.72
  Q 203.39 161.82 205.33 159.78
  Q 206.97 158.15 207.12 155.75
  C 207.30 152.80 206.88 147.62 206.97 143.75
  Q 207.34 126.31 206.91 108.40
  A 3.44 3.39 61.4 0 1 207.48 106.41
  Q 210.08 102.46 214.82 101.52
  Q 220.30 100.42 227.06 100.16
  Q 229.66 100.06 231.82 100.84
  A 1.84 1.77 -39.8 0 0 232.79 100.91
  C 234.09 100.67 236.09 101.24 238.00 100.79
  Q 247.32 98.56 257.30 99.88
  A 0.12 0.11 -87.4 0 1 257.40 100.00
  L 257.40 100.01
  A 0.15 0.15 0.0 0 1 257.25 100.15
  Q 252.50 100.35 246.41 100.29
  Q 244.34 100.28 238.12 103.14
  C 233.30 105.37 233.48 110.38 233.35 116.01
  C 233.23 121.18 233.09 128.20 230.57 131.72
  C 228.03 135.28 224.70 138.05 225.18 144.21
  Q 225.93 153.77 221.55 162.87
  C 219.61 166.90 216.23 168.53 213.46 171.70
  Z"
/>
<path fill="#86887c" d="
  M 441.58 124.11
  Q 448.16 122.26 456.47 122.69
  A 1.38 1.38 0.0 0 0 457.92 121.31
  L 457.92 112.32
  A 1.10 1.10 0.0 0 0 456.82 111.22
  L 450.14 111.22
  A 0.52 0.48 28.8 0 0 449.90 111.28
  Q 447.42 112.69 447.53 110.65
  A 0.81 0.81 0.0 0 1 448.29 109.89
  L 457.09 109.42
  A 0.70 0.70 0.0 0 0 457.75 108.68
  L 457.73 108.33
  A 0.96 0.95 88.4 0 0 456.78 107.42
  L 441.59 107.42
  A 0.27 0.27 0.0 0 1 441.34 107.04
  Q 441.61 106.39 442.50 106.35
  Q 445.29 106.20 445.84 106.09
  Q 448.03 105.66 449.13 105.64
  Q 453.83 105.56 456.31 105.83
  A 1.57 1.57 0.0 0 0 458.03 104.06
  Q 457.67 101.44 458.17 99.15
  A 0.38 0.38 0.0 0 1 458.92 99.21
  L 459.44 108.88
  A 0.43 0.42 -1.4 0 0 459.87 109.28
  L 470.48 109.28
  A 0.46 0.46 0.0 0 1 470.93 109.83
  L 470.87 110.14
  A 0.75 0.74 5.0 0 1 470.13 110.75
  L 460.26 110.75
  A 0.93 0.92 88.5 0 0 459.34 111.73
  L 459.88 121.86
  A 1.32 1.32 0.0 0 0 461.20 123.11
  L 465.81 123.11
  A 0.09 0.09 0.0 0 1 465.90 123.20
  L 465.90 123.60
  A 0.09 0.08 -4.1 0 1 465.82 123.68
  L 461.27 123.92
  A 1.05 1.05 0.0 0 0 460.28 124.97
  L 460.28 143.68
  A 1.26 1.25 87.1 0 0 461.66 144.93
  Q 465.43 144.57 467.65 144.82
  A 0.50 0.50 0.0 0 1 467.68 145.81
  Q 464.14 146.37 461.22 145.77
  A 0.64 0.64 0.0 0 0 460.46 146.28
  L 459.89 149.27
  A 0.51 0.51 0.0 0 1 458.91 149.37
  Q 458.52 148.41 458.63 147.05
  A 1.01 1.00 -0.7 0 0 457.52 145.97
  Q 454.95 146.24 451.30 145.91
  Q 450.40 145.83 450.19 146.05
  Q 449.89 146.38 449.80 146.58
  A 0.39 0.39 0.0 0 1 449.16 146.71
  Q 448.41 145.98 448.51 145.13
  A 0.64 0.64 0.0 0 1 449.57 144.73
  L 449.79 144.93
  A 0.54 0.53 -24.3 0 0 450.14 145.06
  L 457.29 145.06
  A 0.90 0.90 0.0 0 0 458.19 144.16
  L 458.19 124.60
  A 0.49 0.49 0.0 0 0 457.70 124.11
  L 450.36 124.11
  A 0.75 0.72 -55.6 0 0 450.07 124.17
  C 448.47 124.96 447.24 124.27 445.39 124.53
  Q 442.64 124.91 441.58 124.58
  A 0.25 0.24 45.6 0 1 441.58 124.11
  Z"
/>
<path fill="#674943" d="
  M 279.42 134.59
  Q 279.69 134.79 279.81 134.99
  A 0.34 0.34 0.0 0 1 279.46 135.50
  L 269.56 133.61
  A 0.99 0.97 -3.5 0 1 268.82 132.97
  Q 267.04 127.74 266.66 124.24
  Q 265.83 116.67 263.63 104.75
  Q 263.53 104.24 263.65 103.72
  A 0.94 0.94 0.0 0 1 265.04 103.12
  C 270.55 106.33 276.72 109.04 277.81 116.29
  Q 278.43 120.38 279.10 133.98
  A 0.83 0.82 -72.9 0 0 279.42 134.59
  Z"
/>
<path fill="#86887c" d="
  M 176.25 101.36
  A 0.48 0.48 0.0 0 1 176.82 101.73
  L 176.89 102.01
  A 0.51 0.51 0.0 0 1 176.48 102.62
  Q 171.22 103.54 165.90 103.06
  A 0.44 0.44 0.0 0 1 165.83 102.20
  Q 167.69 101.70 169.41 102.01
  A 1.13 1.12 27.6 0 0 170.39 101.71
  Q 171.52 100.62 172.47 101.63
  A 1.13 1.12 -27.4 0 0 173.52 101.96
  L 176.25 101.36
  Z"
/>
<path fill="#32282a" d="
  M 292.46 109.45
  L 292.89 115.51
  Q 291.58 114.25 290.50 112.78
  C 288.69 110.30 287.65 109.92 285.00 108.93
  C 281.92 107.78 280.06 105.24 282.68 102.25
  A 0.70 0.69 -56.5 0 1 283.47 102.08
  Q 286.37 103.34 289.35 104.46
  Q 292.65 105.70 292.46 109.45
  Z"
/>
<path fill="#32282a" d="
  M 282.22 135.67
  Q 281.01 135.69 280.02 134.84
  A 1.13 1.09 -70.7 0 1 279.64 134.02
  L 279.51 123.55
  C 279.36 116.17 279.97 108.35 271.95 104.71
  A 0.41 0.41 0.0 0 1 271.75 104.17
  L 271.80 104.07
  A 0.41 0.40 -63.8 0 1 272.34 103.88
  Q 279.96 107.74 279.93 115.67
  Q 279.88 127.47 282.22 135.67
  Z"
/>
<path fill="#32282a" d="
  M 309.04 104.15
  L 307.52 104.16
  L 309.04 104.15
  Z"
/>
<path fill="#674943" d="
  M 153.07 108.14
  Q 153.16 108.26 153.08 108.88
  A 0.49 0.49 0.0 0 0 153.59 109.43
  L 160.52 108.96
  A 1.18 1.10 46.9 0 1 160.82 108.98
  Q 163.71 109.50 168.88 109.00
  Q 169.51 108.94 170.18 108.40
  Q 170.67 108.00 171.18 108.19
  A 0.65 0.64 -70.1 0 1 171.56 109.01
  Q 171.17 110.13 170.45 110.97
  A 0.57 0.57 0.0 0 1 169.59 110.98
  C 168.98 110.28 168.40 109.82 167.43 110.28
  Q 165.63 111.12 163.25 110.91
  A 1.05 1.04 -84.8 0 0 162.12 111.86
  L 162.09 112.18
  A 0.74 0.73 1.3 0 0 162.86 112.98
  L 166.68 112.77
  A 0.49 0.49 0.0 0 1 167.19 113.31
  L 167.16 113.65
  A 0.51 0.50 -0.7 0 1 166.72 114.10
  L 163.05 114.61
  A 1.06 1.05 -1.4 0 0 162.15 115.55
  L 162.11 115.99
  A 0.82 0.82 0.0 0 0 163.04 116.88
  L 170.40 115.85
  A 1.32 1.32 0.0 0 1 171.52 118.09
  Q 171.48 118.13 170.80 118.34
  A 2.15 2.09 -48.5 0 1 169.87 118.41
  Q 165.91 117.83 161.72 118.81
  A 0.99 0.99 0.0 0 0 162.00 120.76
  L 170.60 120.29
  A 0.57 0.57 0.0 0 1 171.19 120.91
  L 171.15 121.34
  A 0.89 0.88 0.7 0 1 170.32 122.14
  Q 166.45 122.35 161.98 122.41
  Q 161.09 122.42 160.76 122.97
  Q 160.55 123.33 160.04 123.27
  A 0.65 0.64 6.4 0 1 159.48 122.57
  L 159.73 119.99
  A 1.18 1.18 0.0 0 0 158.18 118.76
  Q 155.61 119.61 153.13 119.12
  A 0.64 0.64 0.0 0 0 152.36 119.75
  Q 152.36 120.73 152.80 121.63
  A 0.85 0.84 50.9 0 1 152.71 122.53
  Q 151.75 123.77 150.52 123.17
  A 0.23 0.23 0.0 0 0 150.23 123.50
  Q 150.89 124.51 150.38 125.07
  Q 149.87 125.63 149.01 125.62
  Q 145.76 125.57 143.60 126.11
  A 1.00 1.00 0.0 0 1 142.36 125.05
  L 143.50 113.10
  A 1.17 1.17 0.0 0 1 144.51 112.05
  L 149.07 111.41
  A 0.41 0.41 0.0 0 0 149.41 110.91
  L 149.32 110.59
  A 0.02 0.01 -0.0 0 0 149.30 110.58
  L 144.71 110.89
  A 0.71 0.70 1.0 0 1 143.96 110.12
  L 144.08 108.89
  A 0.83 0.83 0.0 0 1 144.99 108.14
  L 148.23 108.45
  A 1.56 1.52 -63.9 0 0 149.43 108.02
  Q 150.84 106.66 152.19 108.16
  A 0.43 0.42 -35.2 0 0 152.73 108.25
  L 152.97 108.12
  A 0.08 0.08 0.0 0 1 153.07 108.14
  Z"
/>
<path fill="#32282a" d="
  M 296.86 111.05
  L 296.87 112.94
  L 296.86 111.05
  Z"
/>
<ellipse fill="#86887c" cx="0.00" cy="0.00" transform="translate(170.30,113.04) rotate(-53.8)" rx="1.25" ry="1.00"/>
<path fill="#86887c" d="
  M 509.86 111.96
  Q 510.48 115.35 512.00 117.99
  L 512.00 148.88
  L 511.64 148.55
  A 1.24 1.22 -71.1 0 1 511.26 147.76
  Q 510.32 136.85 510.44 125.25
  Q 510.46 123.40 509.73 122.09
  A 1.56 1.52 -59.8 0 1 509.52 121.24
  L 509.86 111.96
  Z"
/>
<path fill="#32282a" d="
  M 196.52 118.89
  Q 198.31 119.40 199.47 118.84
  A 0.94 0.92 80.8 0 0 199.98 118.11
  L 200.64 112.78
  Q 203.08 114.72 201.92 118.82
  A 2.77 2.77 0.0 0 1 198.75 120.79
  Q 197.02 120.48 196.52 118.89
  Z"
/>
<path fill="#86887c" d="
  M 394.99 113.03
  A 0.39 0.38 90.0 0 1 395.37 113.42
  L 395.37 113.69
  A 0.13 0.12 90.0 0 1 395.25 113.82
  Q 391.82 113.76 388.96 114.66
  A 3.55 3.46 -54.5 0 1 388.02 114.83
  Q 381.45 115.14 375.25 115.33
  C 373.14 115.40 370.91 114.65 369.06 115.69
  A 0.59 0.58 43.4 0 1 368.53 115.70
  Q 368.06 115.47 367.94 115.16
  A 1.08 1.07 -5.5 0 1 369.12 113.73
  C 371.14 114.06 373.17 113.46 375.57 113.37
  Q 386.86 112.93 394.99 113.03
  Z"
/>
<path fill="#86887c" d="
  M 8.52 131.63
  Q 9.08 133.66 8.52 135.81
  Q 7.90 138.16 7.95 139.31
  Q 8.07 141.83 6.68 144.12
  A 1.12 1.12 0.0 0 0 6.53 144.68
  L 6.59 148.26
  A 3.23 3.19 52.7 0 1 6.47 149.20
  L 3.90 157.89
  L 8.52 131.63
  Z"
/>
<path fill="#86887c" d="
  M 384.10 135.40
  A 0.31 0.31 0.0 0 1 384.07 136.02
  L 369.43 137.02
  A 0.30 0.30 0.0 0 0 369.25 137.08
  Q 369.21 137.11 369.14 137.18
  A 0.73 0.73 0.0 0 1 367.92 136.86
  Q 367.68 136.03 368.15 135.41
  Q 368.58 134.85 369.32 135.51
  Q 369.88 136.02 370.76 135.89
  Q 373.97 135.43 376.57 135.75
  A 1.17 1.16 26.7 0 0 377.52 135.44
  Q 378.51 134.52 380.03 135.66
  A 0.83 0.82 50.0 0 0 380.87 135.74
  Q 382.19 135.11 384.10 135.40
  Z"
/>
<path fill="#86887c" d="
  M 398.09 138.55
  A 0.49 0.48 1.0 0 1 398.60 139.07
  Q 398.52 140.11 397.97 140.48
  A 0.46 0.45 -31.4 0 1 397.31 140.32
  Q 397.05 139.84 396.50 139.84
  Q 395.08 139.86 390.35 140.44
  Q 384.34 141.17 371.79 140.68
  A 0.31 0.31 0.0 0 1 371.49 140.38
  L 371.47 140.04
  A 0.06 0.06 0.0 0 1 371.53 139.98
  L 398.09 138.55
  Z"
/>
<path fill="#32282a" d="
  M 281.61 141.09
  A 0.41 0.41 0.0 0 1 281.45 140.53
  L 281.55 140.35
  A 1.72 1.44 28.6 0 1 283.75 139.91
  L 285.58 140.90
  A 1.72 1.44 28.6 0 1 286.40 142.99
  L 286.30 143.18
  A 0.41 0.41 0.0 0 1 285.74 143.34
  L 281.61 141.09
  Z"
/>
<ellipse fill="#86887c" cx="0.00" cy="0.00" transform="translate(315.36,142.56) rotate(-1.6)" rx="1.61" ry="0.44"/>
<path fill="#86887c" d="
  M 325.75 145.18
  Q 327.62 144.77 328.43 145.27
  A 0.58 0.58 0.0 0 1 328.08 146.34
  Q 326.92 146.23 325.70 145.69
  A 0.27 0.27 0.0 0 1 325.75 145.18
  Z"
/>
<ellipse fill="#86887c" cx="0.00" cy="0.00" transform="translate(433.77,146.75) rotate(-177.2)" rx="2.36" ry="0.54"/>
<ellipse fill="#32282a" cx="0.00" cy="0.00" transform="translate(266.65,147.75) rotate(-30.2)" rx="1.25" ry="1.02"/>
<path fill="#86887c" d="
  M 153.11 162.48
  C 151.31 162.95 149.41 163.42 147.60 163.40
  Q 141.71 163.36 135.90 164.50
  A 0.76 0.70 -47.4 0 1 135.78 164.51
  L 118.71 165.96
  Q 118.59 164.72 119.75 164.81
  Q 124.48 165.17 127.69 164.19
  A 0.79 0.77 -38.0 0 1 128.33 164.26
  Q 128.50 164.35 128.68 164.38
  A 1.18 1.18 0.0 0 0 129.35 164.28
  Q 132.96 162.65 136.90 163.34
  A 0.81 0.80 3.7 0 0 137.85 162.51
  Q 137.59 157.17 138.75 152.79
  A 1.99 1.95 44.5 0 0 138.73 151.69
  Q 138.34 150.43 139.04 149.45
  A 0.31 0.31 0.0 0 1 139.61 149.64
  L 139.12 161.83
  A 0.93 0.93 0.0 0 0 140.10 162.80
  L 146.02 162.48
  A 0.19 0.19 0.0 0 0 146.20 162.30
  Q 146.23 161.82 147.46 161.41
  Q 147.84 161.28 148.58 161.67
  Q 150.26 162.56 153.11 162.48
  Z"
/>
<path fill="#86887c" d="
  M 512.00 149.99
  L 512.00 151.56
  L 497.31 151.06
  L 496.29 151.15
  L 475.04 151.56
  L 473.71 151.62
  L 463.02 151.91
  Q 474.72 149.95 480.00 150.09
  Q 493.25 150.43 506.50 150.38
  Q 509.26 150.36 512.00 149.99
  Z"
/>
<ellipse fill="#86887c" cx="0.00" cy="0.00" transform="translate(134.14,150.66) rotate(-177.7)" rx="2.29" ry="0.56"/>
<path fill="#86887c" d="
  M 461.69 152.00
  L 443.53 152.85
  L 438.45 152.82
  A 0.44 0.44 0.0 0 1 438.02 152.29
  L 438.12 151.77
  A 0.09 0.08 -85.9 0 1 438.20 151.69
  L 458.19 151.49
  A 0.40 0.38 -58.0 0 0 458.38 151.44
  Q 460.16 150.51 461.69 152.00
  Z"
/>
<path fill="#32282a" d="
  M 497.31 151.06
  L 496.29 151.15
  L 497.31 151.06
  Z"
/>
<path fill="#32282a" d="
  M 475.04 151.56
  Q 474.39 151.70 473.71 151.62
  L 475.04 151.56
  Z"
/>
<path fill="#86887c" d="
  M 424.56 153.19
  L 366.44 155.57
  Q 366.58 154.61 367.18 154.03
  A 1.15 1.15 0.0 0 1 368.37 153.79
  L 369.60 154.26
  A 1.82 1.70 -33.8 0 0 370.27 154.37
  Q 384.27 153.83 385.50 153.83
  Q 386.79 153.84 387.77 153.51
  A 2.36 2.34 -53.3 0 1 388.57 153.39
  C 392.42 153.53 396.00 153.44 399.79 153.57
  Q 403.60 153.69 407.26 152.84
  A 2.86 2.54 35.9 0 1 407.96 152.77
  L 424.56 153.19
  Z"
/>
<path fill="#86887c" d="
  M 111.81 166.27
  Q 107.48 167.24 103.13 167.48
  Q 96.86 167.84 94.40 168.12
  Q 87.81 168.88 81.64 168.88
  L 82.09 158.77
  A 0.57 0.56 1.5 0 1 82.67 158.23
  L 90.55 158.38
  A 1.26 1.12 34.3 0 0 90.86 158.34
  Q 91.79 158.10 92.66 157.14
  A 0.38 0.38 0.0 0 1 93.32 157.43
  L 92.56 165.37
  A 0.59 0.59 0.0 0 1 91.38 165.37
  Q 91.13 162.90 91.92 160.87
  A 1.60 1.60 0.0 0 0 89.88 158.79
  Q 88.10 159.46 85.15 158.92
  A 1.57 1.53 35.5 0 0 84.17 159.07
  Q 82.46 159.93 83.24 162.26
  A 0.95 0.86 -54.8 0 1 83.29 162.66
  L 82.91 167.37
  A 1.05 1.05 0.0 0 0 84.42 168.39
  Q 88.81 166.23 93.70 167.51
  A 1.71 1.20 -28.5 0 0 94.06 167.55
  Q 97.61 167.51 100.28 165.95
  A 2.06 2.06 0.0 0 1 101.47 165.66
  L 111.81 166.27
  Z"
/>
<path fill="#86887c" d="
  M 9.69 175.63
  L 0.00 176.62
  L 0.00 173.04
  L 3.52 159.03
  C 4.48 162.33 2.71 164.80 2.61 167.84
  Q 2.57 169.14 1.99 169.82
  A 0.99 0.95 -23.3 0 0 1.77 170.34
  L 1.33 174.96
  A 0.65 0.65 0.0 0 0 2.18 175.64
  Q 4.22 174.96 6.44 175.72
  A 1.41 1.35 -35.0 0 0 6.96 175.80
  L 9.69 175.63
  Z"
/>
<ellipse fill="#86887c" cx="0.00" cy="0.00" transform="translate(87.82,162.63) rotate(-1.7)" rx="2.83" ry="0.51"/>
<path fill="#86887c" d="
  M 61.40 164.96
  A 0.07 0.07 0.0 0 1 61.46 165.04
  L 61.43 165.34
  A 0.25 0.24 -88.6 0 1 61.20 165.57
  C 59.33 165.74 56.94 165.06 55.64 166.85
  A 0.36 0.36 0.0 0 1 55.00 166.74
  Q 54.52 165.16 51.92 165.77
  A 0.24 0.24 0.0 0 1 51.63 165.56
  Q 51.61 165.31 51.74 165.31
  Q 54.27 165.43 55.57 164.59
  A 0.85 0.79 -56.4 0 1 56.10 164.46
  L 61.40 164.96
  Z"
/>
<path fill="#32282a" d="
  M 285.12 173.28
  A 0.01 0.01 0.0 0 1 285.11 173.29
  A 2.61 2.57 58.4 0 1 281.56 172.42
  L 281.35 172.08
  A 2.61 2.57 58.4 0 1 282.17 168.51
  A 0.01 0.01 0.0 0 1 282.18 168.51
  L 285.12 173.28
  Z"
/>
<path fill="#86887c" d="
  M 65.09 170.23
  Q 61.40 171.37 57.54 171.17
  Q 61.43 169.28 65.09 170.23
  Z"
/>
<path fill="#86887c" d="
  M 34.34 173.38
  Q 30.16 174.32 25.89 173.80
  Q 28.95 171.86 34.34 173.38
  Z"
/>
<path fill="#32282a" d="
  M 229.74 174.33
  A 0.45 0.45 0.0 0 1 230.43 173.88
  C 234.87 176.78 231.75 181.36 227.69 181.46
  A 0.72 0.72 0.0 0 1 227.27 180.14
  Q 230.35 178.08 229.74 174.33
  Z"
/>
<path fill="#86887c" d="
  M 21.16 174.72
  L 13.01 175.29
  Q 16.46 173.36 21.16 174.72
  Z"
/>
<path fill="#32282a" d="
  M 282.41 177.61
  A 0.21 0.21 0.0 0 1 282.18 177.43
  L 282.16 177.33
  A 1.65 1.51 -7.6 0 1 283.60 175.62
  L 283.86 175.58
  A 1.65 1.51 -7.6 0 1 285.69 176.86
  L 285.71 176.96
  A 0.21 0.21 0.0 0 1 285.53 177.19
  L 282.41 177.61
  Z"
/>
<path fill="#32282a" d="
  M 226.45 176.67
  A 0.10 0.10 0.0 0 1 226.58 176.72
  L 226.58 176.73
  A 3.06 2.87 -21.6 0 1 224.79 180.53
  L 224.70 180.56
  A 3.06 2.87 -21.6 0 1 220.80 179.02
  L 220.80 179.01
  A 0.10 0.10 0.0 0 1 220.85 178.88
  L 226.45 176.67
  Z"
/>
<path fill="#32282a" d="
  M 217.53 180.83
  Q 215.51 182.53 214.50 183.76
  Q 210.80 188.25 206.49 195.00
  Q 198.93 206.83 191.95 218.97
  A 0.75 0.74 -65.5 0 0 192.35 220.05
  L 197.14 221.64
  C 199.34 224.66 201.87 224.13 204.93 224.06
  A 0.87 0.87 0.0 0 1 205.38 225.69
  Q 205.18 225.80 204.26 226.07
  Q 202.97 226.45 204.54 228.62
  A 1.90 1.88 35.8 0 1 204.82 230.29
  L 203.23 235.48
  A 4.23 3.87 -22.5 0 1 202.82 236.36
  Q 200.11 240.78 199.43 243.99
  Q 198.97 246.17 197.90 247.13
  A 0.94 0.92 79.3 0 0 197.64 247.52
  L 194.51 255.73
  Q 194.40 257.40 193.23 258.72
  L 190.24 264.72
  A 1.41 1.40 54.2 0 0 190.10 265.61
  Q 190.31 266.93 189.93 267.49
  Q 186.77 272.10 185.86 277.32
  L 181.74 286.00
  L 179.74 286.00
  L 179.01 279.59
  Q 179.30 274.07 177.51 268.49
  L 175.19 257.92
  A 2.01 1.90 43.3 0 1 175.16 257.40
  Q 175.26 255.82 175.02 254.30
  Q 173.71 246.12 172.39 237.94
  Q 172.28 237.38 172.59 237.08
  Q 172.84 236.83 173.43 236.98
  Q 176.65 237.79 181.05 238.09
  Q 181.71 238.13 183.32 239.30
  A 0.50 0.49 -50.9 0 1 183.39 240.03
  L 183.16 240.28
  A 1.34 1.32 68.2 0 0 182.80 241.14
  L 182.53 247.89
  A 0.49 0.48 3.9 0 1 181.99 248.35
  L 176.36 247.82
  A 0.48 0.47 1.6 0 0 175.84 248.30
  Q 175.87 249.14 177.30 249.55
  C 179.08 250.06 180.46 248.50 181.99 250.48
  A 1.46 1.42 30.5 0 1 182.28 251.55
  Q 181.73 255.52 181.88 259.60
  Q 181.91 260.54 181.29 260.87
  A 0.95 0.90 -59.2 0 0 181.68 262.64
  Q 182.78 262.57 183.32 262.61
  A 2.36 2.35 -28.4 0 1 184.26 262.89
  L 188.09 264.95
  A 0.37 0.37 0.0 0 0 188.62 264.51
  C 187.98 262.48 184.77 262.07 183.73 260.95
  A 2.38 2.36 -65.5 0 1 183.10 259.24
  L 183.46 251.20
  A 0.81 0.81 0.0 0 1 184.58 250.50
  L 193.50 254.33
  A 0.34 0.34 0.0 0 0 193.94 254.15
  L 194.07 253.87
  A 0.20 0.19 -65.6 0 0 193.98 253.62
  L 186.76 249.82
  A 1.67 1.58 58.8 0 0 186.11 249.64
  L 184.91 249.60
  A 1.28 1.28 0.0 0 1 183.72 248.03
  Q 184.75 243.73 184.34 239.74
  A 1.33 1.19 -41.8 0 1 184.40 239.20
  L 184.80 238.04
  A 1.08 1.07 -83.8 0 0 183.66 236.62
  L 182.57 236.75
  A 2.81 2.48 42.2 0 1 181.88 236.74
  L 172.94 235.55
  A 0.58 0.57 85.1 0 1 172.47 235.15
  L 171.28 231.53
  Q 170.38 227.77 171.02 225.50
  Q 171.47 223.91 173.16 223.68
  Q 179.02 224.93 177.89 220.81
  L 180.39 219.31
  Q 185.22 220.75 188.15 219.88
  Q 191.02 219.04 190.72 215.85
  Q 200.18 198.51 211.48 183.02
  Q 213.81 181.32 215.74 178.56
  A 1.11 1.11 0.0 0 1 217.69 179.59
  Q 217.66 179.66 217.33 179.96
  A 0.55 0.53 -22.9 0 0 217.14 180.41
  Q 217.15 180.78 217.53 180.83
  Z
  M 189.9132 226.9776
  A 6.28 0.76 -158.1 0 0 195.4565 230.0252
  A 6.28 0.76 -158.1 0 0 201.5668 231.6624
  A 6.28 0.76 -158.1 0 0 196.0235 228.6148
  A 6.28 0.76 -158.1 0 0 189.9132 226.9776
  Z
  M 187.00 237.22
  L 186.52 238.25
  A 0.19 0.19 0.0 0 0 186.61 238.50
  L 186.69 238.54
  A 12.14 0.64 24.7 0 0 197.99 243.03
  L 198.09 242.82
  A 12.14 0.64 24.7 0 0 187.33 237.16
  L 187.25 237.12
  A 0.19 0.19 0.0 0 0 187.00 237.22
  Z"
/>
<ellipse fill="#32282a" cx="0.00" cy="0.00" transform="translate(283.44,180.99) rotate(-151.5)" rx="2.20" ry="0.99"/>
<path fill="#32282a" d="
  M 291.46 200.53
  Q 292.42 202.02 292.38 203.23
  A 0.68 0.68 0.0 0 0 293.70 203.48
  L 297.60 192.56
  A 0.21 0.21 0.0 0 1 298.00 192.56
  L 301.58 203.21
  A 1.35 1.34 -4.9 0 0 302.67 204.12
  Q 304.37 204.39 305.12 204.87
  A 1.50 1.48 7.9 0 1 305.76 205.71
  Q 306.31 207.52 305.11 209.12
  A 1.44 1.42 -29.1 0 0 304.83 210.08
  Q 304.91 211.07 305.69 212.29
  A 0.74 0.69 -63.7 0 1 305.79 212.62
  L 306.16 219.46
  A 1.22 1.15 -34.0 0 1 306.02 220.09
  Q 305.40 221.27 305.87 222.85
  A 0.31 0.31 0.0 0 1 305.36 223.17
  L 291.46 210.80
  A 0.24 0.23 42.4 0 1 291.44 210.47
  L 291.81 210.06
  A 0.48 0.48 0.0 0 1 292.49 210.02
  L 303.14 219.51
  A 1.01 1.00 -67.4 0 0 304.81 218.82
  L 305.07 214.41
  A 0.63 0.56 41.4 0 0 305.04 214.17
  L 303.72 210.25
  A 1.35 1.34 76.4 0 0 302.26 209.35
  L 295.24 210.32
  A 1.44 1.43 86.0 0 1 293.61 208.89
  Q 293.60 207.45 293.19 205.31
  A 0.61 0.57 -34.7 0 0 292.11 205.15
  Q 291.46 206.09 290.88 205.31
  A 0.33 0.32 -62.7 0 1 290.81 205.08
  L 290.99 200.66
  A 0.26 0.26 0.0 0 1 291.46 200.53
  Z"
/>
<path fill="#32282a" d="
  M 300.30 193.35
  A 0.49 0.49 0.0 0 1 300.86 192.60
  Q 302.36 193.12 302.25 194.82
  Q 302.05 198.01 303.89 200.02
  A 0.56 0.55 -51.5 0 1 303.96 200.68
  L 303.74 201.06
  A 0.42 0.42 0.0 0 1 303.01 201.06
  L 301.95 199.22
  A 3.33 3.27 -62.4 0 1 301.51 197.77
  Q 301.32 194.77 300.30 193.35
  Z"
/>
<path fill="#32282a" d="
  M 286.44 195.13
  Q 285.30 194.81 284.49 195.13
  A 1.19 1.05 71.7 0 0 283.90 196.51
  Q 284.51 198.72 286.01 198.31
  A 0.51 0.50 2.4 0 1 286.62 198.97
  L 286.56 199.11
  A 1.72 1.71 -86.4 0 1 285.35 200.18
  C 282.96 200.72 282.50 197.68 282.62 195.81
  A 1.53 1.51 67.4 0 1 282.99 194.90
  Q 284.25 193.48 286.48 193.90
  A 0.54 0.54 0.0 0 1 286.91 194.45
  L 286.90 194.80
  A 0.36 0.36 0.0 0 1 286.44 195.13
  Z"
/>
<path fill="#32282a" d="
  M 307.79 200.80
  A 0.52 0.52 0.0 0 1 307.15 200.44
  L 306.79 199.12
  A 1.99 1.29 74.7 0 1 307.51 196.86
  L 307.72 196.80
  A 1.99 1.29 74.7 0 1 309.49 198.38
  L 309.86 199.70
  A 0.52 0.52 0.0 0 1 309.49 200.34
  L 307.79 200.80
  Z"
/>
<path fill="#32282a" d="
  M 227.85 204.09
  Q 228.38 204.76 228.23 205.41
  A 0.79 0.78 -6.5 0 1 227.81 205.94
  Q 223.65 207.90 223.41 207.59
  Q 223.17 207.29 226.04 203.70
  A 0.79 0.78 -70.0 0 1 226.65 203.41
  Q 227.32 203.42 227.85 204.09
  Z"
/>
<ellipse fill="#32282a" cx="0.00" cy="0.00" transform="translate(308.93,204.54) rotate(-134.2)" rx="1.53" ry="1.32"/>
<path fill="#32282a" d="
  M 284.27 204.96
  A 0.65 0.65 0.0 0 1 285.52 204.87
  L 286.67 208.28
  A 0.66 0.66 0.0 0 1 286.14 209.14
  Q 284.91 209.33 283.97 208.74
  A 0.65 0.65 0.0 0 1 283.68 208.06
  L 284.27 204.96
  Z"
/>
<path fill="#86887c" d="
  M 190.72 215.85
  Q 191.02 219.04 188.15 219.88
  Q 185.22 220.75 180.39 219.31
  Q 187.69 219.18 190.72 215.85
  Z"
/>
<path fill="#32282a" d="
  M 327.98 227.52
  Q 324.71 226.90 325.19 220.85
  A 1.09 1.09 0.0 0 1 326.48 219.87
  Q 327.30 220.02 327.32 218.27
  L 327.98 227.52
  Z"
/>
<path fill="#86887c" d="
  M 177.89 220.81
  Q 179.02 224.93 173.16 223.68
  L 177.89 220.81
  Z"
/>
<path fill="#32282a" d="
  M 227.55 232.45
  Q 227.33 232.37 227.04 232.02
  A 0.89 0.89 0.0 0 1 226.88 231.15
  L 227.69 228.88
  A 0.63 0.63 0.0 0 0 226.78 228.12
  L 224.10 229.67
  A 0.74 0.74 0.0 0 1 223.00 229.19
  L 221.87 223.99
  A 0.87 0.87 0.0 0 1 223.16 223.05
  Q 225.12 224.20 226.04 223.28
  A 0.46 0.45 -29.0 0 1 226.81 223.50
  L 227.11 224.86
  A 1.15 1.14 89.2 0 0 228.02 225.75
  L 231.15 226.35
  A 1.53 1.49 -57.0 0 0 232.31 226.09
  Q 233.46 225.27 234.52 225.35
  A 0.77 0.76 2.5 0 1 235.22 226.11
  Q 235.26 229.94 233.80 231.39
  Q 231.55 233.62 233.45 235.97
  Q 235.40 238.38 234.95 241.83
  A 0.70 0.70 0.0 0 1 234.19 242.44
  L 229.73 242.01
  A 0.43 0.43 0.0 0 1 229.34 241.52
  Q 229.46 240.51 228.66 233.92
  Q 228.53 232.81 227.55 232.45
  Z"
/>
<path fill="#32282a" d="
  M 245.57 239.35
  Q 246.75 235.90 245.67 231.83
  A 1.49 1.44 -52.2 0 1 245.62 231.38
  L 245.79 228.75
  A 0.79 0.78 -87.2 0 0 245.04 227.91
  L 244.73 227.90
  A 0.84 0.83 89.7 0 0 243.86 228.78
  Q 243.92 229.79 244.62 231.33
  A 0.75 0.75 0.0 0 1 243.41 232.18
  Q 242.90 231.69 242.59 231.04
  A 0.76 0.75 47.8 0 0 241.26 230.97
  Q 240.00 233.03 241.03 234.13
  A 0.83 0.79 72.7 0 0 241.43 234.35
  L 243.69 234.78
  A 1.67 1.65 -2.8 0 1 244.97 235.92
  L 245.09 236.29
  A 0.96 0.96 0.0 0 1 243.98 237.51
  L 241.13 236.91
  A 2.79 2.79 0.0 0 1 238.91 234.18
  L 238.91 227.68
  A 0.72 0.71 81.0 0 1 239.40 227.00
  Q 243.61 225.66 247.04 225.55
  Q 256.82 225.24 260.89 225.12
  A 0.60 0.60 0.0 0 1 261.51 225.71
  Q 261.69 235.26 263.69 244.89
  A 1.37 1.30 -81.7 0 1 261.77 246.40
  Q 260.90 245.88 259.71 246.39
  A 1.11 1.11 0.0 0 0 259.02 247.42
  Q 259.01 247.83 259.02 247.86
  A 0.61 0.61 0.0 0 1 258.40 248.61
  Q 257.25 248.55 256.77 247.78
  A 0.69 0.68 -15.9 0 0 256.19 247.46
  L 249.70 247.30
  A 0.98 0.98 0.0 0 0 248.70 248.23
  Q 248.70 248.26 249.08 248.92
  A 0.75 0.75 0.0 0 1 248.81 249.95
  L 246.49 251.28
  A 0.28 0.28 0.0 0 1 246.07 251.03
  L 246.16 248.81
  A 1.34 1.34 0.0 0 0 244.34 247.51
  Q 242.13 248.37 240.57 248.43
  A 0.59 0.58 29.8 0 1 240.27 247.33
  Q 241.60 246.62 241.40 245.49
  A 0.83 0.82 88.5 0 0 240.70 244.82
  Q 239.81 244.70 239.31 244.30
  A 1.19 1.18 27.4 0 1 238.90 243.03
  Q 239.22 241.98 239.15 240.89
  A 0.59 0.59 0.0 0 1 239.89 240.28
  Q 241.69 240.77 245.02 239.86
  A 0.80 0.80 0.0 0 0 245.57 239.35
  Z
  M 243.4878 243.9501
  A 1.00 0.77 -90.7 0 0 242.7301 244.9594
  A 1.00 0.77 -90.7 0 0 243.5122 245.9499
  A 1.00 0.77 -90.7 0 0 244.2699 244.9406
  A 1.00 0.77 -90.7 0 0 243.4878 243.9501
  Z"
/>
<ellipse fill="#674943" cx="0.00" cy="0.00" transform="translate(195.74,229.32) rotate(-158.1)" rx="6.28" ry="0.76"/>
<rect fill="#32282a" x="-2.79" y="-1.14" transform="translate(287.33,231.75) rotate(-18.4)" width="5.58" height="2.28" rx="0.83"/>
<path fill="#674943" d="
  M 172.39 237.94
  Q 171.92 238.07 171.54 238.05
  L 171.28 231.53
  L 172.47 235.15
  A 0.58 0.57 85.1 0 0 172.94 235.55
  L 181.88 236.74
  A 2.81 2.48 42.2 0 0 182.57 236.75
  L 183.66 236.62
  A 1.08 1.07 -83.8 0 1 184.80 238.04
  L 184.40 239.20
  A 1.33 1.19 -41.8 0 0 184.34 239.74
  Q 184.75 243.73 183.72 248.03
  A 1.28 1.28 0.0 0 0 184.91 249.60
  L 186.11 249.64
  A 1.67 1.58 58.8 0 1 186.76 249.82
  L 193.98 253.62
  A 0.20 0.19 -65.6 0 1 194.07 253.87
  L 193.94 254.15
  A 0.34 0.34 0.0 0 1 193.50 254.33
  L 184.58 250.50
  A 0.81 0.81 0.0 0 0 183.46 251.20
  L 183.10 259.24
  A 2.38 2.36 -65.5 0 0 183.73 260.95
  C 184.77 262.07 187.98 262.48 188.62 264.51
  A 0.37 0.37 0.0 0 1 188.09 264.95
  L 184.26 262.89
  A 2.36 2.35 -28.4 0 0 183.32 262.61
  Q 182.78 262.57 181.68 262.64
  A 0.95 0.90 -59.2 0 1 181.29 260.87
  Q 181.91 260.54 181.88 259.60
  Q 181.73 255.52 182.28 251.55
  A 1.46 1.42 30.5 0 0 181.99 250.48
  C 180.46 248.50 179.08 250.06 177.30 249.55
  Q 175.87 249.14 175.84 248.30
  A 0.48 0.47 1.6 0 1 176.36 247.82
  L 181.99 248.35
  A 0.49 0.48 3.9 0 0 182.53 247.89
  L 182.80 241.14
  A 1.34 1.32 68.2 0 1 183.16 240.28
  L 183.39 240.03
  A 0.50 0.49 -50.9 0 0 183.32 239.30
  Q 181.71 238.13 181.05 238.09
  Q 176.65 237.79 173.43 236.98
  Q 172.84 236.83 172.59 237.08
  Q 172.28 237.38 172.39 237.94
  Z"
/>
<path fill="#674943" d="
  M 187.00 237.22
  A 0.19 0.19 0.0 0 1 187.25 237.12
  L 187.33 237.16
  A 12.14 0.64 24.7 0 1 198.09 242.82
  L 197.99 243.03
  A 12.14 0.64 24.7 0 1 186.69 238.54
  L 186.61 238.50
  A 0.19 0.19 0.0 0 1 186.52 238.25
  L 187.00 237.22
  Z"
/>
<path fill="#32282a" d="
  M 302.21 237.56
  C 303.25 239.56 304.38 243.66 302.50 245.47
  L 300.73 244.03
  A 0.92 0.91 -60.5 0 1 300.45 243.00
  Q 300.95 241.64 300.26 240.19
  A 1.43 1.42 -45.7 0 1 300.25 238.96
  Q 300.77 237.86 302.21 237.56
  Z"
/>
<path fill="#86887c" d="
  M 172.39 237.94
  Q 173.71 246.12 175.02 254.30
  Q 175.26 255.82 175.16 257.40
  A 2.01 1.90 43.3 0 0 175.19 257.92
  L 177.51 268.49
  Q 178.04 270.42 176.97 270.47
  L 171.54 238.05
  Q 171.92 238.07 172.39 237.94
  Z"
/>
<path fill="#32282a" d="
  M 214.49 248.64
  Q 212.99 246.65 216.82 244.55
  L 221.06 243.27
  A 0.57 0.57 0.0 0 1 221.61 244.24
  Q 218.28 247.23 214.49 248.64
  Z"
/>
<path fill="#32282a" d="
  M 268.20 243.98
  Q 268.59 243.50 270.15 244.84
  A 1.07 1.05 -43.3 0 0 271.49 244.87
  Q 272.79 243.87 274.76 243.66
  A 0.94 0.94 0.0 0 1 275.79 244.77
  L 275.45 246.53
  A 1.08 1.06 -79.6 0 1 274.22 247.39
  Q 272.88 247.16 271.50 246.44
  A 0.65 0.65 0.0 0 0 270.71 246.58
  Q 269.13 248.31 267.21 247.74
  A 0.84 0.83 6.7 0 1 266.62 247.00
  Q 266.55 245.77 267.54 244.72
  A 8.21 2.02 -62.1 0 0 268.20 243.98
  Z"
/>
<ellipse fill="#86887c" cx="0.00" cy="0.00" transform="translate(243.50,244.95) rotate(-90.7)" rx="1.00" ry="0.77"/>
<ellipse fill="#32282a" cx="0.00" cy="0.00" transform="translate(279.22,245.81) rotate(-42.5)" rx="2.03" ry="1.27"/>
<path fill="#32282a" d="
  M 281.54 246.49
  L 284.12 245.00
  A 0.52 0.50 -36.9 0 1 284.73 245.08
  L 285.01 245.35
  A 0.47 0.46 74.0 0 1 284.70 245.92
  Q 283.75 246.23 283.42 246.98
  A 0.75 0.75 0.0 0 0 283.57 247.80
  Q 283.79 248.03 283.81 248.08
  A 0.93 0.93 0.0 0 1 282.20 248.98
  Q 281.91 248.58 281.31 247.20
  A 0.56 0.56 0.0 0 1 281.54 246.49
  Z"
/>
<path fill="#32282a" d="
  M 290.19 253.24
  L 287.87 252.98
  Q 287.31 251.35 286.20 250.25
  A 1.00 0.99 41.6 0 1 286.12 248.92
  Q 287.73 246.92 289.79 248.70
  Q 291.98 250.59 290.19 253.24
  Z"
/>
<path fill="#32282a" d="
  M 284.75 250.49
  L 283.70 250.42
  Q 283.76 250.12 284.25 250.18
  Q 284.57 250.21 284.75 250.49
  Z"
/>
<path fill="#86887c" d="
  M 193.23 258.72
  C 191.14 265.25 189.83 270.99 185.86 277.32
  Q 186.77 272.10 189.93 267.49
  Q 190.31 266.93 190.10 265.61
  A 1.41 1.40 54.2 0 1 190.24 264.72
  L 193.23 258.72
  Z"
/>
<path fill="#32282a" d="
  M 281.93 262.55
  Q 280.98 264.64 279.98 265.08
  L 268.63 265.01
  A 0.86 0.79 7.3 0 1 267.79 264.01
  L 267.86 263.75
  A 1.50 1.50 0.0 0 1 269.29 262.65
  L 281.93 262.55
  Z"
/>
<path fill="#674943" d="
  M 179.01 279.59
  L 176.97 270.47
  Q 178.04 270.42 177.51 268.49
  Q 179.30 274.07 179.01 279.59
  Z"
/>
</svg>
