<?xml version="1.0" encoding="UTF-8" standalone="no"?>
<!-- Created with Inkscape (http://www.inkscape.org/) -->

<svg
   version="1.1"
   id="svg1"
   width="682.66669"
   height="381.33334"
   viewBox="0 0 682.66669 381.33334"
   xmlns="http://www.w3.org/2000/svg"
   xmlns:svg="http://www.w3.org/2000/svg"
   xmlns:rdf="http://www.w3.org/1999/02/22-rdf-syntax-ns#"
   xmlns:cc="http://creativecommons.org/ns#"
   xmlns:dc="http://purl.org/dc/elements/1.1/">
  <title
     id="title1">Resurs 01 N2 Icon SVG</title>
  <defs
     id="defs1" />
  <g
     id="g1">
    <path
       style="fill:currentColor"
       d="m 238.02514,373.66668 c 1.02553,-24.77369 -25.20971,-64.22164 -0.84532,-80.51675 25.68138,-3.60213 29.09736,-35.67459 45.76273,-51.87644 3.15425,-15.90109 -17.82449,-22.63459 -9.88921,-41.89374 0.48255,-11.52679 1.33633,-58.21841 -3.17202,-47.97463 1.4797,20.29493 -12.21178,5.19644 -13.06836,-5.58246 -11.56015,9.56782 -4.44275,36.13 -7.34163,52.45893 0.78993,10.53834 0.65235,20.16973 -12.6797,16.89902 -59.65427,4.13124 -118.81781,12.00651 -178.427456,15.47115 C 40.855887,230.39219 8.9997217,242.8194 0.72343884,230.18868 8.3485901,186.19047 16.150897,142.14539 24.779979,98.297032 44.182947,84.425993 76.618452,91.805966 101.01875,85.901068 151.5364,82.718463 201.59064,75.78527 252.14127,73.207184 c 14.69247,-4.144094 2.91561,-38.349472 26.29499,-40.143455 21.53916,-4.036088 37.41456,-16.76805 48.9526,-31.162114 14.45388,0.618107 13.14353,24.812356 33.77834,20.907644 22.14968,1.301398 46.72359,8.227486 42.42985,36.190743 8.92417,16.831599 19.83703,-11.131717 36.40296,-3.027765 47.16786,-3.163817 94.24893,-6.540684 141.3448,-10.386526 30.87542,-1.806553 61.72769,-4.185613 92.65521,-4.919043 3.02399,53.877102 8.14232,107.615922 8.88741,161.627492 -61.45608,0.055 -122.74685,4.84987 -184.22656,5.28587 -19.62315,4.68995 -56.5637,-9.5628 -54.49861,16.21512 -8.57051,8.74905 -2.97075,22.61081 -5.05762,33.71668 -7.04437,18.35944 3.82175,39.58326 -5.10171,54.82705 -15.11566,6.44974 -38.96246,-10.17737 -29.94847,15.5981 -10.91137,0.90729 -1.06943,16.92842 -19.57717,10.23781 -13.78319,-10.83782 -0.40598,27.14378 -21.65516,17.57831 -13.38579,4.14229 -16.05908,-27.77519 -21.02601,-5.97305 -20.52909,5.54275 -52.16227,13.48401 -54.46278,-16.2041 -7.41555,-7.47856 26.21119,-21.36417 1.80838,-26.80507 -25.83067,-3.07843 -23.89662,36.65811 -35.48784,53.0634 -2.27682,3.70323 -13.49056,35.42055 -15.62874,13.8324 z m 155.30821,-67.17694 c -9.41722,-21.09855 -7.3247,8.44008 0,0 z m -6.93651,-1.8519 c -1.65508,-11.78222 -12.69189,-7.12582 -14.01791,-10.18536 3.9564,9.19427 8.90689,7.15135 9.56611,11.43844 z m -90.65711,-15.63783 c -0.74076,-8.30454 -25.11867,-15.45307 -4.73972,-24.16071 11.28732,-11.81082 -0.39739,-37.11751 -10.12634,-11.32962 -2.51633,11.67518 -35.54053,38.11989 -16.84657,41.35077 6.13437,-3.05503 34.51133,7.76611 31.71263,-5.86044 z m 82.92695,2.77778 c -8.85514,-10.59033 -7.83652,2.96633 0,0 z m 39.57748,-17.36112 c -2.34911,-2.52905 0.84085,7.69381 0,0 z m -2.62248,-28.75 c -1.81265,3.79664 1.0621,14.08547 0,0 z M 408.08609,189.851 c 10.10142,-0.85214 2.25433,-16.87317 4.67049,-24.22038 -1.91324,-7.69796 3.82341,-23.06201 -3.2145,-25.62445 -2.51509,6.13852 -12.27937,26.68883 -15.87544,5.32661 1.38187,12.35395 -8.15686,51.48109 14.41945,44.51822 z M 261.31292,109.66667 c 0.81283,-9.37201 -1.08666,-51.349488 -3.54193,-20.271736 1.95182,15.452166 -7.79414,42.271156 2.34736,51.422576 2.2996,-10.13137 0.67546,-20.83495 1.19457,-31.15084 z m 153.91302,18 c 1.25595,-18.97061 1.07212,-37.998742 1.44397,-57.000001 -11.83823,-2.928094 -14.98037,2.839909 -12.6699,14.060516 2.33577,15.669845 -6.55486,40.915345 6.14053,48.606155 2.94736,0.61234 6.6126,-1.75253 5.0854,-5.66667 z M 273.05931,51.895735 c 5.5127,-6.17631 43.75122,-27.254468 16.71328,-15.310473 -5.22598,-1.426539 -35.74478,17.832388 -16.71328,15.310473 z M 395.56714,51.12268 c 4.5519,-22.578989 -35.94224,-21.764973 -44.07508,-21.053963 18.05247,1.388248 28.74391,20.431334 44.07508,21.053963 z"
       id="path1" />
  </g>
  <metadata
     id="metadata1">
    <rdf:RDF>
      <cc:Work
         rdf:about="">
        <dc:title>Resurs 01 N2 Icon SVG</dc:title>
        <dc:source>https://space.skyrocket.de/img_sat/resurs-o1-n2__1.jpg</dc:source>
      </cc:Work>
    </rdf:RDF>
  </metadata>
</svg>
