<?xml version="1.0" encoding="UTF-8" standalone="no"?>
<!-- Created with Inkscape (http://www.inkscape.org/) -->

<svg
   version="1.1"
   id="svg1"
   width="512"
   height="464"
   viewBox="0 0 512 464"
   xmlns="http://www.w3.org/2000/svg"
   xmlns:svg="http://www.w3.org/2000/svg"
   xmlns:rdf="http://www.w3.org/1999/02/22-rdf-syntax-ns#"
   xmlns:cc="http://creativecommons.org/ns#"
   xmlns:dc="http://purl.org/dc/elements/1.1/">
  <title
     id="title1">Dubaisat-1 Icon SVG</title>
  <defs
     id="defs1" />
  <g
     id="g1">
    <path
       style="fill:currentColor"
       d="M 472.96584,458.44664 C 461.19833,451.35251 455.45462,432.07379 443,439.99339 c 11.09318,-6.78595 -5.16631,-12.83467 -8.90078,-19.40121 -37.12443,-37.47219 -73.0128,-76.20594 -111.08966,-112.71051 -18.93025,-4.66096 -31.94876,28.81894 -47.17023,39.64722 -18.66798,18.94536 -34.74111,41.25719 -56.83559,56.34243 16.45502,23.18252 -14.95407,-6.10565 -24.3605,8.62404 -17.76662,-2.08897 8.22365,24.07453 -12.07561,8.7658 -12.2226,-12.81441 -29.61734,-26.01727 -45.90477,-37.0527 -10.60022,9.75895 -21.03734,29.48117 -36.872896,16.67073 C 88.575,387.23288 84.464845,400.61733 76.714278,405.7624 64.253386,401.62442 60.483925,388.24477 73.281551,384.30749 66.070227,374.34786 59.352263,353.43388 52.295003,349.67222 c -9.057398,14.81455 -23.473629,4.26727 -7.901652,-5.01088 6.942841,-7.27869 -12.546843,-20.53991 5.473011,-25.65518 11.651108,7.05942 19.277411,-8.3656 6.543504,-11.79833 1.567707,-13.8344 -22.15282,-2.23854 -18.804551,-21.3603 C 32.278806,277.6925 24.033887,270.51377 35.148421,270 20.451978,257.03738 9.8105739,231.73535 38.408063,230.64217 c 14.133426,-8.06956 7.263958,22.63902 19.384032,3.66879 C 74.644075,216.28552 91.820121,198.52163 108,179.93419 87.23982,173.27115 68.178827,164.32712 59.670541,142.81364 54.975453,120.8549 38.762181,142.0197 34.61348,141.87244 50.179157,131.75158 49.887419,115.50102 34.402411,106 21.872569,120.08995 -10.41487,87.5527 6.7646297,79.60099 17.0409,85.804514 28.656714,86.707501 15.359349,73.399406 c -18.0548663,-27.30152 22.643835,-5.148497 34.26571,-1.447941 33.383224,12.97554 65.833011,26.538933 98.901281,39.107205 4.33881,3.62087 8.09875,20.93015 13.0287,10.57305 3.90686,-10.94954 4.24105,-39.954065 24.1788,-29.032225 -2.15124,-30.213901 -8.13142,-60.158278 -9.07663,-90.4827635 8.62234,-7.5696538 30.91399,20.4490615 46.4845,27.8427535 10.67369,18.080331 39.94446,5.982766 39.20582,28.273495 17.97806,13.81925 42.99322,25.048389 38.87007,52.07511 3.577,22.22153 3.30396,45.64452 9.51635,67.08858 13.90874,16.77458 38.62852,26.05219 41.75133,49.60333 8.87214,13.47478 -4.50365,39.65092 -0.50463,46.94008 12.01035,-11.84624 19.55259,0.87187 27.91889,10.01368 43.21378,45.50177 88.45945,89.25485 130.10046,136.14172 -10.80234,10.63125 -48.36421,11.73045 -21.42661,29.96724 14.20651,7.07125 -10.84507,20.41729 -15.60755,8.38392 z"
       id="path1" />
  </g>
  <metadata
     id="metadata1">
    <rdf:RDF>
      <cc:Work
         rdf:about="">
        <dc:title>Dubaisat-1 Icon SVG</dc:title>
        <dc:source>https://upload.wikimedia.org/wikipedia/commons/c/ca/DubaiSat-1.jpg</dc:source>
      </cc:Work>
    </rdf:RDF>
  </metadata>
</svg>
