<svg xmlns="http://www.w3.org/2000/svg" baseProfile="tiny" width="512" height="464" xmlns:v="https://vecta.io/nano"><style><![CDATA[.B{fill:#687b92}.C{fill:#293239}.D{fill:#84876f}.E{fill:#a4cdef}]]></style><path d="M178.37 0q.61.77-.71 1.15-1.72-.39-3.89-.27l.01-.01q1.59-.2 2.93-.87h1.66z" class="D"/><path d="M181.95 0q.36.91 1.74 1.15 1.31 2.06 3.49 3.69 26.91 20.2 54.93 38.78 1.41 2.59 2.63 1.42 1.46.58 3.05.43.14.26-.02.57a.59.59 0 0 1-.61.32q-1.77-.25-2.6 2.08a1.03 1.02-48.1 0 0 .04.8c1.5 3.23-.81 6.4-2.94 8.56a.75.74-41.2 0 0-.07.97q1.99 2.65 3.95 3.52a1.16 1.16 0 0 0 1.23-.18l.75-.65a.41.41 0 0 1 .67.23q.29 1.59-1.75 2.23-1.21.15-2.52-.39a1.67 1.66 44.1 0 0-1.33.02c-1.93.87-5.35 1.2-6.17-1.18a.68.66 64.3 0 1 .26-.78q.78-.51 1.43-1.24a.58.58 0 0 0-.04-.82l-2.76-2.54a.77.76 39.8 0 0-1.14.1l-1.34 1.79a.7.68-68.6 0 1-.6.27q-2.95-.22-2.73-2.92.29-3.65-.17-5.84a.72.68 11.3 0 0-.31-.44l-5.79-3.85a.11.11 0 0 0-.17.1l.84 9.88a2.66 2.63-74.4 0 0 1.06 1.91l4.7 3.51a.65.65 0 0 1 .13.91l-.22.3a.81.81 0 0 1-1.16.13q-.61-.51-1.12-.52a.7.7 0 0 0-.72.7q.01 1.2.39 2.07a1.11 1.1-35.7 0 1-.2 1.18l-12.45 13.51a.27.27 0 0 0 .02.38l.19.17a.54.54 0 0 0 .77-.03q5.54-6.25 11.18-12.08c.67-.69.71-1.4.96-1.75a.55.55 0 0 1 .9 0q.64.91 1.54 1.34a.47.46-84.6 0 0 .65-.54q-.01-.01-.03-.06a.6.59 79.3 0 1 .58-.86q1.17.11 1.96-.56a2.51 2.02 42.8 0 1 2.86.2q2.95 2.3 4.2 3.06a2.13 2.08 56.5 0 0 1.35.29c3.3-.38 5.92-1.26 8.05.49a.46.46 0 0 0 .73-.2q.44-1.23-.11-2.69l.14-.44a.56.55 24 0 1 .81-.31q2.04 1.2 2.92 2.87c1.98 3.73 5.46 6.31 9.41 6.91a.77.77 0 0 1 .62.52l.66 2a.34.33 68.2 0 0 .46.2q2.45-1.07 4.54-.71a.76.75 2.5 0 1 .63.68l.18 2.01q.16 2.16 1.11 3.51c1 1.4 3.09 1.35 4.39 2.06a.67.67 0 0 0 .99-.65l-.14-1.68a2.87 2.85-75.1 0 0-1.2-2.08l-3.8-2.66-1.46-14.09q11.81 8.7 24.03 17.52 3.37 2.43 3.86 6.64 2.4 20.51 3.34 27.78c.28 2.2.12 4.76.73 6.93.75 2.67.18 6.1 1.04 9.1q.54 1.9.48 3.94c-.11 3.49 1.11 6.57 1.08 10.28q-.02 2 .75 5.04a7.93 7.71-52.4 0 1 .24 2.08q-.06 3.5.84 7.05a7.61 7.59 38.6 0 1 .23 2.01q-.06 3.66.82 6.75a4.67 4.35 38.9 0 1 .16 1.11q.02 1.81.28 3.71c.42 3.04 5.92 7.12 8.36 9.19q-3.89-1.72-6.76-5.04a.58.58 0 0 0-1.02.43l.18 2.17a1.73 1.72-23.1 0 1-.59 1.46l-2.15 1.86a1.22 1.21-47.1 0 1-1.52.06l-3.81-2.78-2.65-2.19-8.84-6.4a1.04 1.04 0 0 0-1.29.06l-2.77 2.4a.28.27 62.7 0 1-.45-.15q-.03-.12-.04-.3.09-.42.31-.75.32-.25.39-.73a1.04 1.03-56.6 0 0-.15-.74c-1.33-2.12-.1-3.99-3.43-4.82l-3.03-2.58a2.29 2.29 0 0 1-.79-1.54l-.56-6.48a1.05 1.04 16.2 0 0-.41-.74l-12.18-9.1a.94.94 0 0 0-1.5.83l.47 5.54a.41.4-74.8 0 1-.64.37q-14-10.07-31.59-23.06c-3.59-2.65-3.46-5.84-3.72-9.82a1.05 1.03 17.2 0 0-.41-.76l-11.83-8.84a1.09 1.09 0 0 0-1.74.97l.39 4.55a.73.73 0 0 1-.52.76q-.59.17-.89-.19-1.87-1.64-4.12-2.66a2.1 1.95-7.2 0 1-.64-.46l-1.72-1.83-17.91-12.82a1.35 1.33-78.7 0 1-.53-.81l-.68-3.05a.86.85-30.8 0 0-1.48-.37l-4.25 4.85a1.09.91-76.9 0 1-.29.22l-4.72 2.25a.51.5 7.9 0 1-.6-.79q4.5-5.11 8.01-8.29.52-.47.3-1.02 1.22.24 1.46-.33.26.54.85.34a.59.57-89.7 0 0 .38-.39q.29-.98-.83-1.31c0-5.74-1.13-12.8-1.56-16.91q-.77-7.4-1.31-10.87c-.58-3.83-.42-7.4-1.34-10.81a6.25 6.04 39.3 0 1-.2-1.7c.08-3.84-1.1-7.33-1.13-10.97q-.02-3-.66-4.99a5.08 5.03-54.2 0 1-.24-1.54q0-4.28-.81-7.9a9.47 9.14-52.1 0 1-.21-1.97q0-3.67-.59-7.2c-.87-5.24-.69-10.77-.59-16.18q1.32-.38.71-1.15h3.58zm20.21 29.27a1.5 1.5 0 0 0-.59-1.06l-4.5-3.37a.74.74 0 0 0-1.15.39q-.31 1.14.29 1.97a1.29 1.28 27 0 1 .25.76c.06 4.21 3.35 2.59 5.48 4.58a.29.28 19.2 0 0 .48-.23l-.26-3.04z" class="C"/><path d="M184.88 0q1 .68 2.34.87l.01.01q-1.47 0-3.54.27-1.38-.24-1.74-1.15h2.93z" class="D"/><path d="M201.94 32.54c-2.13-1.99-5.42-.37-5.48-4.58a1.29 1.28 27 0 0-.25-.76q-.6-.83-.29-1.97a.74.74 0 0 1 1.15-.39l4.5 3.37a1.5 1.5 0 0 1 .59 1.06l.26 3.04a.29.28 19.2 0 1-.48.23z" class="E"/><path d="M259.97 55.54q-1.23.43-1.05 1.21.15.67.94.54l10.51 7.79 1.46 14.09q-1.22-.33-1.4.56-.11.53.05.94l-.18-2.01a.76.75 2.5 0 0-.63-.68q-2.09-.36-4.54.71a.34.33 68.2 0 1-.46-.2l-.66-2a.77.77 0 0 0-.62-.52c-3.95-.6-7.43-3.18-9.41-6.91q-.88-1.67-2.92-2.87a.56.55 24 0 0-.81.31l-.14.44q-.58-2.4-3.67-3.02 2.04-.64 1.75-2.23a.41.41 0 0 0-.67-.23l-.75.65a1.16 1.16 0 0 1-1.23.18q-1.96-.87-3.95-3.52a.75.74-41.2 0 1 .07-.97c2.13-2.16 4.44-5.33 2.94-8.56a1.03 1.02-48.1 0 1-.04-.8q.83-2.33 2.6-2.08a.59.59 0 0 0 .61-.32q.16-.31.02-.57.97-.42 1.74-.18-.67 3.54 1.81-1.03.75-1.46 1.92-1.06c2.97 1.02 7.3 3.57 8.2 6.9a1.62 1.58-44.3 0 1-.02.86l-1.47 4.58zm-17.86-11.92q1.54.33 2.63 1.42-1.22 1.17-2.63-1.42z" class="D"/><path d="M251.34 44.26q-2.48 4.57-1.81 1.03l1.81-1.03z" class="C"/><path d="M246.44 63.92q3.09.62 3.67 3.02.55 1.46.11 2.69a.46.46 0 0 1-.73.2c-2.13-1.75-4.75-.87-8.05-.49a2.13 2.08 56.5 0 1-1.35-.29q-1.25-.76-4.2-3.06a2.51 2.02 42.8 0 0-2.86-.2q-.79.67-1.96.56a.6.59 79.3 0 0-.58.86q.02.05.03.06a.47.46-84.6 0 1-.65.54q-.9-.43-1.54-1.34a.55.55 0 0 0-.9 0c-.25.35-.29 1.06-.96 1.75q-5.64 5.83-11.18 12.08a.54.54 0 0 1-.77.03l-.19-.17a.27.27 0 0 1-.02-.38l12.45-13.51a1.11 1.1-35.7 0 0 .2-1.18q-.38-.87-.39-2.07a.7.7 0 0 1 .72-.7q.51.01 1.12.52a.81.81 0 0 0 1.16-.13l.22-.3a.65.65 0 0 0-.13-.91l-4.7-3.51a2.66 2.63-74.4 0 1-1.06-1.91l-.84-9.88a.11.11 0 0 1 .17-.1l5.79 3.85a.72.68 11.3 0 1 .31.44q.46 2.19.17 5.84-.22 2.7 2.73 2.92a.7.68-68.6 0 0 .6-.27l1.34-1.79a.77.76 39.8 0 1 1.14-.1l2.76 2.54a.58.58 0 0 1 .04.82q-.65.73-1.43 1.24a.68.66 64.3 0 0-.26.78c.82 2.38 4.24 2.05 6.17 1.18a1.67 1.66 44.1 0 1 1.33-.02q1.31.54 2.52.39z" class="E"/><path d="M259.97 55.54q-.64.6-.11 1.75-.79.13-.94-.54-.18-.78 1.05-1.21zm-79.38 35.63l-4.93.06a1.61 1.57 20.5 0 0-1.15.51l-6.76 7.34a1.87 1.86-38.8 0 0-.24 2.19l2.32 4.03a.68.68 0 0 0 1.09.12l1.73-1.88a.9.9 0 0 1 .99-.22l.37.15a.64.64 0 0 1 .21 1.04q-2.43 2.42-5.32 2.57-1.25.07-2.14 1.16-.9 1.11.2 2.01 1.07.88 2.39 1.38a1.03 1.02-50.9 0 0 .95-.1c6.63-4.38 16.37-5.74 23.18-1.93q1.71.95 1.29 3.03l-5.4 6.99a2.33 2.31-86.2 0 1-.71.63l-2.13 1.23a.15.14 27.3 0 0 .09.27l1.95-.17a.29.29 0 0 1 .24.49q-6.39 6.98-12.17 13.01c-3.31 3.45-6.13 7.07-9.59 10.63q-3.99 4.1-7.33 7.85c-3.38 3.79-6.83 7.18-11.09 12.09q-4.5 5.17-8.07 8.12a3.37 3.36-4.7 0 0-.69.81c-.72 1.24-1.07 2.03-2.75 2.93q-4.23 2.26-6.63 7.54a2.33 2.14-14 0 1-.41.62l-46.4 50.15a4.05 3.95 6.3 0 1-1.04.81q-1.9 1.04-2.42 1.59-6 6.39-6.53 7.03a1.79 1.75 8.7 0 1-.75.54q-3.19 1.24-6.31 1.84a5.13 4.96 27.5 0 0-1.08.32q-2.58 1.05-5.06 2.08-1.73.73-2.3 2.23a.35.35 0 0 0 .41.47q9.5-2.27 17.91-6.23 2.88 1.65-2.12 3.46l-15.72 5.42a1.36 1.36 0 0 0-.21 2.48q3.13 1.74 7.04 1.51l.77 2.86a.97.97 0 0 1-.26.95q-1.44 1.41-2.24 3.25a2.11 2.09-36.6 0 0-.16 1.06q.27 2.62.46 5.27.29 3.98-3.19 5.08a1.56 1.56 0 0 1-1.96-1.02q-2.1-6.64-2.92-9.3-.99-3.18-3.96-2.65a1.39 1.36-71.2 0 0-.73.37q-.99.97-3.45 1.32-7.49-12.29-11.15-27.05-.82-3.3-4.23-6.86 6.36-1.95 13.08-2.29a.67.67 0 0 1 .7.68q-.04 2.04.71 2.76a.68.67 17.9 0 1 .22.42l1.25 8.1q-.33.78-.2 1.3.2.79.98.37.79-.42 1.27-1.74 3.77-3.3 5.43-5.08c13.13-14.1 27.28-29.79 42.17-44.37a2.49 2.37-11.6 0 0 .54-.78c1.91-4.31 5.54-7.26 9.58-11.46a.89.88 32.9 0 0-.31-1.43l-31.96-13.04a2.54 2.48-4.1 0 1-1.16-.98q-7.48-11.81-16.32-25.84-1.03-1.64-3.77-5.17.02-2.84-2.72-2.89-.69.33-1.6-.45a.78.78 0 0 0-.81-.12q-.46.2-.62.1-1.09-1.57-2.16.98-4.35 4.24-8.56 8.76-1.49 1.59-3.02 2.67a.35.35 0 0 1-.48-.49q3.47-4.54 7.06-8.24c1.75-1.82 2.68-3.47 4.06-5.39a1.79 1.77-25.5 0 0 .31-.86q.14-2.1 2.05-3.31.26.79 1.4.26a.56.55-52.3 0 0-.13-1.05l-1.35-.25q-4.56-8.83-10.61-16.76.08-.98-.79-1.68-.72-.58-1.28-.09l-1.62-.15q.84-1.15-1.29-.79-3.5.6-6.06 1.54a.46.46 0 0 1-.5-.75l5.21-5.66a1.97 1.97 0 0 1 2.2-.49l6.13 2.5a.18.18 0 0 1 .03.32q-2.08 1.24-4.25 1.36a.28.28 0 0 0-.26.28v.37a.24.24 0 0 0 .24.24h4.85a2.11 2.09-23.5 0 1 1.42.55l.99.91a.64.63-81.3 0 0 1-.74q-3.02-6.49-8.43-14.19a.71.7-12.1 0 1 .71-1.09l1.22.23q.54.48.79.52a.65.65 0 0 0 .68-.97L36 85.17a1.16 1.15-15.1 0 0-.97-.55q-.11 0-.37 0a.4.34 49.7 0 1-.12-.02l-3.78-1.35a.38.38 0 0 0-.45.56q.99 1.55 1.31 3.19a2.03 1.99 17.2 0 0 .55 1.02l.54.51-.03.37a.4.39 12.7 0 1-.55.34l-7.18-2.93a1.45 1.42 47.3 0 0-.97-.05q-1.06.32-1.72 1.52a.43.42 25.2 0 1-.54.19l-.02-.01a.47.43-69 0 1-.22-.56l.61-1.89q.25-.04.65-.57.94-.93.22-1.62-.38-.35-.91-.37L9.78 62.63a.97.97 0 0 1-.05-.93c.89-1.94 1.68-3.02 4.22-2.28q6.07 1.77 11.19 3.68 10 3.75 37.6 14.68 73.67 29.17 83.49 33.02a4.76 4.75 83.6 0 1 2.21 1.77l9.12 13.53a.75.74 46.8 0 0 1.21.04c1.4-1.84 4.65-4.85 6-8.21a3.02 2.97 55 0 0 .21-1.25c-.17-3.48-1.25-7.09.81-10.76.83-1.48 1.43-2.88 1.18-4.93q-.22-1.83.26-2.5 3.2-4.54 5.79-6.72 3.15-2.66 7.57-.6zM55.08 115.12h.95a1.06 1.06 0 0 0 .98-1.47q-1.88-4.44-7.86-5.47a.39.39 0 0 0-.37.63q1.13 1.35 1.54 2.94a.86.86 0 0 0 1.34.47q.87-.64 2.05 2.01a1.51 1.5 77.8 0 0 1.37.89zm138.279-4.085a4.6 1.5-17 0 0-4.838-.09 4.6 1.5-17 0 0-3.96 2.779 4.6 1.5-17 0 0 4.838.09 4.6 1.5-17 0 0 3.96-2.779zm-15.445 5.024a1.04 1.04 0 0 0-1.357-.568l-4.534 1.859a1.04 1.04 0 0 0-.568 1.357l.03.074a1.04 1.04 0 0 0 1.357.568l4.534-1.859a1.04 1.04 0 0 0 .568-1.357l-.03-.074zm-127.635 7.257a1.72.75-171.5 0 0 1.59.996 1.72.75-171.5 0 0 1.812-.488 1.72.75-171.5 0 0-1.59-.996 1.72.75-171.5 0 0-1.812.488zm1.901 5.704q-.77-2.03-4.11-2.02a.72.71 63.3 0 0-.42 1.29l2.77 2.06a1.15 1.15 0 0 0 1.76-1.33zm12.42 3.08q.1.22.31.3 1.18.44 4.1 1.39a.44.44 0 0 0 .51-.64l-2.41-4.17a1.18 1.17-6.7 0 0-.72-.56l-2.59-.74a.67.66 13.4 0 0-.83.51q-.31 1.55 1.13 3.12a2.46.71 73.8 0 1 .5.79zm9.93 21.97q1.69 1.46 5.08 1.51a.46.46 0 0 0 .43-.65q-1.26-2.83-2.71-4.09-1.45-1.25-4.43-2.09a.46.46 0 0 0-.59.52q.54 3.35 2.22 4.8zm19.73 55.97l6.88-6.55a.27.27 0 0 0 .01-.38l-.33-.35a3.62 3.41-43.6 0 0-4.97.03l-2.03 1.93a3.62 3.41-43.6 0 0-.27 4.97l.33.34a.27.27 0 0 0 .38.01z" class="C"/><path d="M271.83 79.17l3.8 2.66a2.87 2.85-75.1 0 1 1.2 2.08l.14 1.68a.67.67 0 0 1-.99.65c-1.3-.71-3.39-.66-4.39-2.06q-.95-1.35-1.11-3.51-.16-.41-.05-.94.18-.89 1.4-.56z" class="E"/><path d="M22.09 85.51l-.61 1.89a.47.43-69 0 0 .22.56l.02.01a.43.42 25.2 0 0 .54-.19q.66-1.2 1.72-1.52a1.45 1.42 47.3 0 1 .97.05l7.18 2.93a.4.39 12.7 0 0 .55-.34l.03-.37q2.15-.08 4.32 1.2l-1.22-.23a.71.7-12.1 0 0-.71 1.09q5.41 7.7 8.43 14.19a.64.63-81.3 0 1-1 .74l-.99-.91a2.11 2.09-23.5 0 0-1.42-.55h-4.85a.24.24 0 0 1-.24-.24v-.37a.28.28 0 0 1 .26-.28q2.17-.12 4.25-1.36a.18.18 0 0 0-.03-.32l-6.13-2.5a1.97 1.97 0 0 0-2.2.49l-5.21 5.66a.46.46 0 0 0 .5.75q2.56-.94 6.06-1.54 2.13-.36 1.29.79c-2.32.37-5.23 3.24-6.88 4.79a1.01 1.01 0 0 1-1.4-.02q-2.42-2.37-6.63-4.45-.5-.25-3.91-1.59-4.99-1.96-7.64-6.46Q3.62 91.06 0 86.94v-.9l5.08-5.65a.79.78 29.8 0 1 .83-.22q6.46 2.22 12.64 4.78.7.29 3.54.56zm.65-.57q-.64-.96-.69-1.99.53.02.91.37.72.69-.22 1.62z" class="D"/><path d="M37.03 89.73q-2.17-1.28-4.32-1.2l-.54-.51a2.03 1.99 17.2 0 1-.55-1.02q-.32-1.64-1.31-3.19a.38.38 0 0 1 .45-.56l3.78 1.35a.4.34 49.7 0 0 .12.02q.26 0 .37 0a1.16 1.15-15.1 0 1 .97.55l2.5 4.11a.65.65 0 0 1-.68.97q-.25-.04-.79-.52z" class="E"/><path d="M180.59 91.17q2.02.51 3.85 2.71.22.55-.3 1.02-3.51 3.18-8.01 8.29a.51.5 7.9 0 0 .6.79l4.72-2.25a1.09.91-76.9 0 0 .29-.22l4.25-4.85a.86.85-30.8 0 1 1.48.37l.68 3.05a1.35 1.33-78.7 0 0 .53.81l17.91 12.82-.84 2.3a.82.82 0 0 0 .15.81l.31.36a.86.85 47.7 0 1-.05 1.18l-7.72 7.44q-2.2-2.53-4.14-.08a1.34 1.24 38.2 0 0 .29 1.83q.73.57.46 1.6a.7.69-47 0 1-1.33.05q-.59-1.77-1.73-1.49a1.49 1.48 6.8 0 0-.96.75q-3.34 6.28-10.94 10.38a1.03 1.02 72.5 0 0-.53 1.02q.2 1.63-.99 2.93-3.39 3.7-7.12 7.23a1.19 1.18-22.4 0 0-.37.88q.03 1.28 1.16 2.14a.39.39 0 0 1-.14.69q-.42.11-2.32-1.15a.98.98 0 0 0-1.32.24l-2.27 3.08a.3.2-82.7 0 1-.07.08l-5.77 6.39a1.25 1.2-83 0 1-.27.22q-1.83 1.06-2.1 1.41-5.2 6.54-12.33 13.94a2.03 2.02 52.6 0 0-.31 2.38q.01.02.94.64a1.81 1.72 36.6 0 1 .45 2.59q-1.66 2-1.82 2.71a.87.85 85.2 0 1-.49.59q-.96.43-1.97 1.38a1.62 1.48-43.2 0 1-2.21.03c-2.57-2.75-5.97 1.98-7.08 3.92a2.45 2.25 87.5 0 1-.52.62l-4.87 4.02a1.43 1.34 88.2 0 0-.29.33q-.95 1.56-2.99 3.23a4.2 4.18-2.6 0 0-.75.82q-2.13 3.14-3.89 4.66-.19.17-.95 1.09-3.71 4.46-17.44 18.69a2.77 2.59 80 0 0-.56.86l-.88 2.15a2.64 2.64 0 0 1-.96 1.19q-2.26 1.56-4.17 3.99a2.05 1.82-49.9 0 0 .07 2.63q.37.34.08 1.32a.51.5 8.9 0 1-.5.36q-.58-.02-.73-.82a.89.88 1.1 0 0-.67-.69q-1.15-.26-2.58 1.25a1.58 1.57 40.2 0 0 .2 2.34l1.49 1.11a1.23 1.22-50.2 0 1 .16 1.81l-6.38 6.93a.57.57 0 0 1-.66.14l-6.07-2.6a.14.12 88.5 0 1-.08-.09l-.08-.3a.27.26 47.9 0 0-.48-.03q-1.32 2.38-4.27 2.77 5-1.81 2.12-3.46 4.02-5.78 9.65-9.83a6.3 6.26 3.2 0 0 .97-.86l44.64-48.33a3.92 3.79-10.3 0 0 .53-.74q2.86-5.25 8.04-8.77a7.02 6.53 2.1 0 0 1.19-1.03q21.21-23.11 48.76-52.9 1.06-1.16.08-2.4a.58.56 47.6 0 1 .02-.74q3.92-4.29 4.42-5.1 1.83-2.96-.04-3.17.42-2.08-1.29-3.03c-6.81-3.81-16.55-2.45-23.18 1.93a1.03 1.02-50.9 0 1-.95.1q-1.32-.5-2.39-1.38-1.1-.9-.2-2.01.89-1.09 2.14-1.16 2.89-.15 5.32-2.57a.64.64 0 0 0-.21-1.04l-.37-.15a.9.9 0 0 0-.99.22l-1.73 1.88a.68.68 0 0 1-1.09-.12l-2.32-4.03a1.87 1.86-38.8 0 1 .24-2.19l6.76-7.34a1.61 1.57 20.5 0 1 1.15-.51l4.93-.06zm5.31 2.38l.4-1.36q1.12.33.83 1.31a.59.57-89.7 0 1-.38.39q-.59.2-.85-.34zM37.51 107.06q-1.33-.73-2.07-1.77.56-.49 1.28.09.87.7.79 1.68z" class="D"/><path d="M53.71 114.23q-1.18-2.65-2.05-2.01a.86.86 0 0 1-1.34-.47q-.41-1.59-1.54-2.94a.39.39 0 0 1 .37-.63q5.98 1.03 7.86 5.47a1.06 1.06 0 0 1-.98 1.47h-.95a1.51 1.5 77.8 0 1-1.37-.89z" class="B"/><ellipse cx="0" cy="0" transform="matrix(.956305 -.292372 .292372 .956305 188.96 112.38)" rx="4.6" ry="1.5" class="D"/><path d="M282.02 168.75q.29 1.01-.32 1.51-.29.25-.44.13-.2-.14-.35-.12a.49.49 0 0 0-.34.7q1.43 2.83 4.09 3.39a.65.64 86 0 1 .49.43q.05.12.06.25-.22.33-.31.75l-5.6 5.25a1.15 1.15 0 0 1-1.47.08l-.4-.3a.39.38-87 0 0-.56.51q2.26 3.91 6.09 6.05a.93.92-77 0 1 .48.78q.07 1.52-1.36 2.94c-8.9 8.85-17.51 19.82-27.21 28.36-5.54 4.89-11.46 10.67-15.51 17.09-1.82 2.89-4.62 5.61-6.14 7.37a1.02 1.01 28.1 0 1-1.05.31q-.95-.26-1.06-1.47a.91.91 0 0 0-1.27-.76q-5.8 2.48-6.64 5.7a1.22 1.22 0 0 0 .3 1.15q.62.64 2.14 1.45a.96.96 0 0 1 .26 1.5l-47.5 51.59a1.23 1.23 0 0 1-1.94-.16c-1.61-2.46-4.86-.48-6.26 1.21q-1.26 1.52-3.49 4.51a.67.66-53.1 0 0 .13.94l5.91 4.42a.86.85 28.3 0 1 .3.97q-.33.94.24 2.32a1.22 1.22 0 0 0 .4.51l3.42 2.56a.43.43 0 0 0 .67-.23l.08-.28q.08.65.28.91a.54.53-42.1 0 0 .81.04q3.01-3.1 5.87-6.53 1.18-1.42-.33-1.73l-.64-3.09 48.36-52.36q1.02.17 2.22 1.05-.46.89-.34 1.14a.92.92 0 0 0 1.52.24l3.83-4.21a2.39 2.34 77.1 0 0 .46-.75q.61-1.59-.54-1.61l-.52-2.54 50.84-55.62a.76.75 49.6 0 0 .07-.92l-.16-.23a.58.58 0 0 0-.91-.06l-19.53 21.5q-5.25 5.83-11.07 11.11-.9.21-1 .18a1.15 1.15 0 0 1-.54-1.84q3.1-3.7 5.22-6.32 2.26-2.79 5.41-6.16l14.45-15.79q2.2-2.54 3.88-4.06 1.67-1.51 2.52-.54a.31.3-44.4 0 0 .45 0l7.51-8.04a.65.35-28.2 0 0 .08-.12l2.23-3.63 2.65 2.19c-1.54 3.66-2.68 7.33-4.8 10.64q-1.38 2.15-2.84 4.33-.6 1.3-.02 1.59.77.37 1.4-.38 2.6-3.09 5.43-6.19.83-.9 1.38-.51.83.58 1.02 1.68a.88.88 0 0 0 1.69.17q.52-1.36 1.81-1.92a.67.66 61.8 0 1 .83.26l16.07 25.19 1.96 3.28 18.38 28.46c.68 1.85 2.95 3.14 4.48 4.31a.52.52 0 0 1 .1.72l-.24.32a.36.36 0 0 1-.5.07l-2.12-1.58a.81.8 40.9 0 0-1.05.07c-1.23 1.21-2.24 1.97-1.28 3.86q.93 1.85 1.01 3.16a.62.62 0 0 1-.19.49l-6.31 5.93a1.2 1.2 0 0 0-.22 1.47l2.29 3.96a1.06 1.06 0 0 1-.14 1.25l-27.24 29.6a.28.28 0 0 0 .01.4l.29.27a.38.38 0 0 0 .52-.02l25.72-27.94a1.59 1.59 0 0 1 1.85-.36q1.03.49 1.27-.17c.36-.98 2.22-2.47 2.83-2.92a2.06 1.96-4.5 0 0 .6-.67q.87-1.54 2.17-2.7a.98.97-56 0 1 .97-.19q1.17.4 1.85 2.26-.74 1.64-1.68 3.38-.65 1.21.78 1.8c-.02 2.52 1.28 2.24 2.63 3.73q2.53 2.79 9.19 9.57a1.09 1.09 0 0 1-.44 1.8l-4.77 1.58a2.34 2.34 0 0 1-2.41-.59l-5.19-5.38a2.82 2.81-5.4 0 0-.51-.42l-6.1-4.14a1.36 1.35-36.6 0 0-1.19-.17l-4.03 1.34a.42.42 0 0 0-.19.68l2.32 2.69a.84.84 0 0 1-.02 1.12l-3.53 3.84a.96.95-47.4 0 0 .05 1.34l4.15 3.82a1.1 1.09-32.9 0 1-.4 1.84L334 299.9a2.32 2.31 57 0 1-2.31-.49l-6.51-6a.44.44 0 0 0-.55-.04q-.65.44-1.06 1.28a.59.59 0 0 0 .25.77q1.58.85 3.38 3.36a.59.58 52.8 0 1-.1.79c-1.2.99-3.92 5.33-6.53 5.85l-.7-.34q-1.61-3.12-1.91-1.16-1.35.18-2.61 1.05.56-1.88 2.1-2.18a.36.36 0 0 0-.02-.71q-1.23-.18-1.95.68-3.48 4.16-6.74 7.82a.23.22 49.6 0 0-.02.28q.08.12.15.23-.73.04-.39-.14-1.85 1.12-2.65 2.94-.69 1.23-2.1 2.32-.49.04-.47.55-.21.27-.49.45-.4-.23-.78.26-.22.28.04.56l-3.83 4.16q-.69.34-.98 1.02-.33.15-.46.5l-1.53 1.75q-.5.03-.49.52l-5.2 5.51-1.2-.13a.49.49 0 0 1-.39-.71q.48-.91.42-1.15a.41.41 0 0 0-.68-.19c-1.45 1.36-2.51 3.01-3.78 4q-2.07 1.61-3.76 4.34a5.07 5.04-3.5 0 1-1.21 1.36c-1.43 1.12-2.92 2.38-4.2 3.83q-8.14 9.27-20.51 22.45a1 .96 24.1 0 0 .66 1.63q.32.03.31.34a.76.75 68.8 0 1-.22.51q-1.07 1.08-1.4 2.52l-11.38 12.53-10.2 10.39q-.88-.09-1.07.99-.94.09-1.02.99l-7.09 5.94q-1.14-.22-2.93.85l-6.08-6.74a1.02 1.01 59.7 0 0-1.09-.29l-2.85.94a.84.83 69.7 0 0-.51 1.11q1.54 3.63.17 7.7a1.14 1.13-11.2 0 1-.35.52l-1.17.97q-2.21-.01-2.09.97-.2.05-.42.02l-3.57.18a1.03 1.02 63.2 0 1-.71-.24q-1.07-.88-1.29-1.62a.53.47 19.7 0 0-.11-.2l-6.04-6.13a3.78 3.45-2.6 0 0-.6-.5q-1.67-1.13-2.83-2.25a3.06 2.98 82.6 0 0-.43-.34q-.76-.5-.76-.61a3.1 3.08 4.6 0 0-2.62-3.07q-1.25-.2-3.26 1.3a1.06.9 40.5 0 0 .26 1.61q1.58.96 1.51 2.56a.85.84 86.4 0 0 .98.87q1.05-.17 1.47.4a.46.43-56.7 0 1 .06.36l-.69 2.44a.95.93-56.1 0 0 .16.85c1.35 1.73 3.64 4.95 6.24 3.89a1.58 1.58 0 0 1 1.66.31l1.98 1.82a.7.7 0 0 1-.23 1.17l-6.74 2.53q-.06-.04-.12-.08l-2.56.03a.6.58 64.7 0 1-.39-.15l-6.17-5.69a.54.53 61.2 0 0-.44-.13q-2.14.29-3.38 1.63a.96.96 0 0 0-.18 1.01q.26.6.16.96a1.24.71-21.4 0 1-.45.56l-1.63 1.14q-1-.86-1.08-1.25-.71-2.33-4.06-3.42-3.02-3.14-7.1-5.26-.4-.64-1.06-.59-.29-.13-.39-.28-.61-1.44-2.4-1.73-.67-.31-.83-.71-2.52-2.62-5.81-4.27.04.29-.26 0-.05-.66-.75-.55l-.79-.59q-.12-.26-.47-.32-.2-.17-.16-.29l-5.04-4.12q-.9-.96-2.34-1.62l-5.57-3.81a.47.47 0 0 1-.08-.7l16.25-17.33q4.43 2.85 5.54 7.89c.02-1.28-.63-3-1.27-4.19a.37.36 89.6 0 1 .49-.5q1.02.55 1.61 1.49a1 .99-59.5 0 1 .15.59l-.28 4.8a.96.93-70.7 0 0 .38.82l2.75 2.06a.91.9 9.2 0 1 .32.44l2.5 7.56a1.26 1.25 62.4 0 0 1.94.61q1.15-.86 1.35-1.16a3.95 3.92-72.2 0 1 3.43-1.78l10.93.4a1.37 1.36 7.7 0 0 1.38-1.04q.47-1.99.74-2.87.37-1.23 1.09-1.35.7-.11 1.73.58 0 1.22 2.26 2.09 3.81 1.48 12.12 3.26l10.29 2.64a1.95 1.86 69 0 1 .63.3q1.47 1.07 4.11 1.23 3.24.2 4.22-2.78 3.45-10.62 2-21.74-.31-2.32-1.18-4.16a2.39 2.39 0 0 0-1.76-1.34q-2.05-.36-3.64-.03c-2.41-1.83-7.89-4.77-10.47-3.48a.1.1 0 0 0 .01.18l1.04.29a.37.36 38.7 0 1 .08.67q-2.36 1.26-5.13 1.62l-1.23-1.71a.19.19 0 0 0-.25-.05l-.26.15a.44.42 60.2 0 0-.15.59l1.67 2.89a.81.8-20.2 0 1-.55 1.19l-2.54.49q-3.57-2.09-4.85-4.61-1.38-2.74-3.17-3.62a1.65 1.59-8.3 0 1-.49-.35q-7.15-7.6-8.08-8.54-1.37-1.38-4.37-3.2a4.94 4.81 81.3 0 1-.73-.55q-2.54-2.36-5.39-3.4a1.65 1.3 65.7 0 1-.31-.16l-2.85-1.86a1.5 1.49-51.4 0 0-1.89.22c-3.94 4.09-5.66 5.53-6.62 10.77a.39.27 80 0 1-.07.15q-.25.3-.75.21-5.68-8.52-7.85-10.89-10.68-11.64-19.6-19.29-5.46-4.69-14.48-10.51a.06.06 0 0 1 0-.1l.17-.12a.2.2 0 0 0-.01-.33q-1.66-1.08-3.54-1.59l-6-6.55q-.66-3.09 2.03-4.28a1.13 1.1-52.6 0 1 .6-.09l4.62.57a.264.264 0 0 0 .09-.52l-3.8-.83q-.61-1.17-2.09-1.49.04-.34.15-.3l8.03 2.4a.27.27 0 0 1 .05.5q-.97.48-2.43.18-.04-.01-.12.22a.06.05 6.3 0 0 .06.07q2.89-.43 4.8.53a1.75 1.73-.4 0 1 .76.74q1.04 1.94 3.17 2.12c2.62.23 4.6 1.02 6.66 2.66a.68.68 0 0 0 1.1-.58l-.7-8.19a1.6 1.6 0 0 0-.64-1.15l-9.77-7.3a.97.96-58.2 0 0-1.44.34q-.54 1.06-1.33 1.53a.79.78 50.7 0 0-.12 1.25l7.95 7.33a.46.46 0 0 1-.43.79q-4.63-1.21-6.8-4.47c-4.38-6.54-11.12-12.54-17.42-16.98a.49.3 58.3 0 0-.16-.08l-3.07-.82a1.3 1.29-69.4 0 0-1.49.68q-1.61 3.3.12 7.55a1.22 1.22 0 0 1 0 .88c-1.98 4.85-6.62 7.36-9.69 11.38q-1.53 1.99-6.93 7.87a.92.92 0 0 1-.92.26l-5.93-1.68a1.12 1.11 24.8 0 0-1.23.45q-1.39 2.08-1.39 3.69a1.27 1.27 0 0 1-1.75 1.17l-11.09-4.53a.44.43 79.3 0 1-.2-.14l-.49-.53a.42.42 0 0 0-.68.09l-.22.39q-.63-.17-1.07-.55-.09-.53.3-.7.34-.16.82.05.56.24.75-.33a.6.6 0 0 1 .38-.37l17.3-5.72a1.46 1.44-74.5 0 0 .47-.27l5.11-4.42a5.33 5.31-17.1 0 0 1.79-3.36q.59-4.71 1.16-6.49.54-1.71-.04-2.57-1.14-1.7-1.69-2.14-7.71-6.29-15.65-12.72-3.91.23-7.04-1.51a1.36 1.36 0 0 1 .21-2.48l15.72-5.42q2.95-.39 4.27-2.77a.27.26 47.9 0 1 .48.03l.08.3a.14.12 88.5 0 0 .08.09l6.07 2.6a.57.57 0 0 0 .66-.14l6.38-6.93a1.23 1.22-50.2 0 0-.16-1.81l-1.49-1.11a1.58 1.57 40.2 0 1-.2-2.34q1.43-1.51 2.58-1.25a.89.88 1.1 0 1 .67.69q.15.8.73.82a.51.5 8.9 0 0 .5-.36q.29-.98-.08-1.32a2.05 1.82-49.9 0 1-.07-2.63q1.91-2.43 4.17-3.99a2.64 2.64 0 0 0 .96-1.19l.88-2.15a2.77 2.59 80 0 1 .56-.86q13.73-14.23 17.44-18.69.76-.92.95-1.09 1.76-1.52 3.89-4.66a4.2 4.18-2.6 0 1 .75-.82q2.04-1.67 2.99-3.23a1.43 1.34 88.2 0 1 .29-.33l4.87-4.02a2.45 2.25 87.5 0 0 .52-.62c1.11-1.94 4.51-6.67 7.08-3.92a1.62 1.48-43.2 0 0 2.21-.03q1.01-.95 1.97-1.38a.87.85 85.2 0 0 .49-.59q.16-.71 1.82-2.71a1.81 1.72 36.6 0 0-.45-2.59q-.93-.62-.94-.64a2.03 2.02 52.6 0 1 .31-2.38q7.13-7.4 12.33-13.94.27-.35 2.1-1.41a1.25 1.2-83 0 0 .27-.22l5.77-6.39a.3.2-82.7 0 0 .07-.08l2.27-3.08a.98.98 0 0 1 1.32-.24q1.9 1.26 2.32 1.15a.39.39 0 0 0 .14-.69q-1.13-.86-1.16-2.14a1.19 1.18-22.4 0 1 .37-.88q3.73-3.53 7.12-7.23 1.19-1.3.99-2.93a1.03 1.02 72.5 0 1 .53-1.02q7.6-4.1 10.94-10.38a1.49 1.48 6.8 0 1 .96-.75q1.14-.28 1.73 1.49a.7.69-47 0 0 1.33-.05q.27-1.03-.46-1.6a1.34 1.24 38.2 0 1-.29-1.83q1.94-2.45 4.14.08 1.17 1.44 3.11 1.34a1.43 1.38-24.3 0 1 1.03.37q.91.86 1.8 1.12a.65.65 0 0 0 .58-1.15q-.61-.46-1.67-.54a.43.43 0 0 1-.28-.72l2.8-3.04a.54.53-51 0 1 .7-.08l4.84 3.34a1.6 1.5 2.6 0 1 .37.38l1.44 2.14a5.37 5.33-89.8 0 0 1.38 1.4q8.43 5.94 10.07 7.03.41.28.6 1.16a.42.41 70.9 0 0 .59.29q.41-.21 1.12-.63a.49.49 0 0 0 .04-.81l-19.2-14.34a.78.77-63.7 0 1-.28-.84q.76-2.58 2.82-2.1l26.86 19.26a.66.65-53.5 0 0 .91-.14l.2-.27a.84.84 0 0 0-.24-1.22q-13.91-8.57-25.53-18.22.18-.5.57-.87.3.36.89.19a.73.73 0 0 0 .52-.76l-.39-4.55a1.09 1.09 0 0 1 1.74-.97l11.83 8.84a1.05 1.03 17.2 0 1 .41.76c.26 3.98.13 7.17 3.72 9.82q17.59 12.99 31.59 23.06a.41.4-74.8 0 0 .64-.37l-.47-5.54a.94.94 0 0 1 1.5-.83l12.18 9.1a1.05 1.04 16.2 0 1 .41.74l.56 6.48a2.29 2.29 0 0 0 .79 1.54l3.03 2.58zm-54.83-10.12q-1.09 1.11-2.05 2.56a.19.18-35.9 0 0-.03.15q.04.2.15.25a.1.1 0 0 0 .12-.03q1.79-2.03 2.25-2.49.46-.47 2.46-2.29a.1.1 0 0 0 .03-.12q-.06-.11-.26-.15a.19.18-54.9 0 0-.15.04q-1.43.98-2.52 2.08zm8.365 4.028a1.04 1.04 0 0 0-.23-1.453l-3.349-2.433a1.04 1.04 0 0 0-1.453.23l-.059.081a1.04 1.04 0 0 0 .23 1.453l3.349 2.433a1.04 1.04 0 0 0 1.453-.23l.059-.081zm2.616-1.172a6.59.19-144.1 0 0 5.227 4.018 6.59.19-144.1 0 0 5.45 3.71 6.59.19-144.1 0 0-5.227-4.018 6.59.19-144.1 0 0-5.45-3.71zm-11.113.904a2.45 1.14-146 0 0 1.394 2.315 2.45 1.14-146 0 0 2.669.425 2.45 1.14-146 0 0-1.394-2.315 2.45 1.14-146 0 0-2.669-.425zm6.582 4.583a2.51 1.01-142.8 0 0 1.389 2.322 2.51 1.01-142.8 0 0 2.61.713 2.51 1.01-142.8 0 0-1.389-2.322 2.51 1.01-142.8 0 0-2.61-.713zm7.959.287a.32.32 0 0 0-.04.51q.65.54 1 .23a.61.53-63.5 0 0-.27-1.03q-.21 0-.69.29zm-1.559 4.69a2.56 1.09-147.9 0 0 1.589 2.284 2.56 1.09-147.9 0 0 2.748.437 2.56 1.09-147.9 0 0-1.589-2.284 2.56 1.09-147.9 0 0-2.748-.437zm-91.846 5.228a1 .73-164.8 0 0 .774.967 1 .73-164.8 0 0 1.156-.442 1 .73-164.8 0 0-.774-.967 1 .73-164.8 0 0-1.156.442zm151.219 18.407a1.05.81-102.4 0 0-.566 1.199 1.05.81-102.4 0 0 1.017.852 1.05.81-102.4 0 0 .566-1.199 1.05.81-102.4 0 0-1.017-.852zm-10.267 4.48a.95.66-22.6 0 0-1.131-.244.95.66-22.6 0 0-.623.974.95.66-22.6 0 0 1.131.244.95.66-22.6 0 0 .623-.974zm6.853-.141a.99.73-66.2 0 0-1.067.611.99.73-66.2 0 0 .268 1.2.99.73-66.2 0 0 1.067-.611.99.73-66.2 0 0-.268-1.2zm24.56 28.136q.61-.12.71-.35a.71.56 6.7 0 0-.77-.77q-.5.04-.52.57a.53.49 86.2 0 0 .58.55zm8.6 14.01a.48.43-46.1 0 0 .82-.06q.34-.66 0-1.07a.43.41 34.6 0 0-.73.11q-.22.73-.09 1.02zM83.04 263.8q-.06 1.96 4.24.16l2.02.19a1.47 1.47 0 0 0 1.39-2.23q-2.21-3.61-5.17-5.08a2.9 2.9 0 0 1-.83-.61l-1.98-2.14a.48.48 0 0 0-.81.48l.27.8a.5.5 0 0 1-.42.65q-.34.04-.84.33a.86.84-3.9 0 0-.35.39l-1.34 2.93a.5.5 0 0 0 .41.71q1.85.17 2.09-1.44a.91.9-55.9 0 1 1.68-.33l.01.41a.8.8 0 0 1-.17.52q-.43.54-.45 1.29a.58.58 0 0 0 .76.57l.54-.18a.51.51 0 0 1 .65.65q-.28.83-1.7 1.93zm147.99-1.127a.94.72-37.1 0 0-1.184-.007.94.72-37.1 0 0-.315 1.141.94.72-37.1 0 0 1.184.007.94.72-37.1 0 0 .315-1.141zm6.672.567a1.03.87-57.6 0 0-1.286.404 1.03.87-57.6 0 0 .183 1.336 1.03.87-57.6 0 0 1.287-.404 1.03.87-57.6 0 0-.183-1.336zm97.557 1.19a.91.54-171.8 0 0 .824.664.91.54-171.8 0 0 .978-.405.91.54-171.8 0 0-.824-.664.91.54-171.8 0 0-.978.405zm.535 9.171a.93.56-47.8 0 0-1.04.313.93.56-47.8 0 0-.21 1.065.93.56-47.8 0 0 1.04-.313.93.56-47.8 0 0 .21-1.065zm-116.035.059q-.24-.07-.8.66a.61.6-53.8 0 0 .13.87q.84.57 1 .47a1.13 1.07 37.3 0 0-.33-2zm-132.7.84l.36 2.43a.27.27 0 0 0 .31.23l.14-.02a1.73 1.36-8.5 0 0 1.51-1.6l-.04-.28a1.73 1.36-8.5 0 0-1.91-1.09l-.14.02a.27.27 0 0 0-.23.31zm255 1.58q-.33.84.11 1.72a.57.57 0 0 0 1.08-.18q.11-.89.15-1.01.05-.13.57-.85a.57.57 0 0 0-.66-.86q-.92.35-1.25 1.18zm-94.72 3.17q-.44.07-.6.96a.49.46 85.1 0 0 .62.56q.67-.28.52-1.08-.09-.51-.54-.44zm-20.61 4.44q.08-.96 1.15-.8.92.13 1.09-.13.37-.57.04-1.24a.55.55 0 0 0-.75-.24q-.79.43-1.87 1.93a.37.27 80.8 0 0-.06.12q-.06.3.09.46a.18.18 0 0 0 .31-.1zm-2.414.382a2.46.73-48 0 0-2.189 1.34 2.46.73-48 0 0-1.104 2.317 2.46.73-48 0 0 2.189-1.34 2.46.73-48 0 0 1.104-2.317zm2.759 1.721a.69.69 0 0 0-.036-.975l-.044-.041a.69.69 0 0 0-.975.036l-3.935 4.234a.69.69 0 0 0 .036.975l.044.041a.69.69 0 0 0 .975-.036l3.935-4.234zm-17.277-.785a1.05.76-59.2 0 0-1.19.513 1.05.76-59.2 0 0 .115 1.291 1.05.76-59.2 0 0 1.19-.513 1.05.76-59.2 0 0-.115-1.291zm114.52 1.307a.74.58-16.9 0 0-.877-.34.74.58-16.9 0 0-.539.77.74.58-16.9 0 0 .877.34.74.58-16.9 0 0 .539-.77zm11.068.58a2.12 1.11-48.8 0 0-2.232.864 2.12 1.11-48.8 0 0-.561 2.326 2.12 1.11-48.8 0 0 2.232-.864 2.12 1.11-48.8 0 0 .561-2.326zm-115.333 3.628a1.02.76-66.7 0 0-1.102.636 1.02.76-66.7 0 0 .294 1.237 1.02.76-66.7 0 0 1.102-.636 1.02.76-66.7 0 0-.294-1.237zm37.54 4.389a.83.59-85.6 0 0-.652.782.83.59-85.6 0 0 .525.873.83.59-85.6 0 0 .652-.782.83.59-85.6 0 0-.525-.873zm-58.437 1.757a.88.69-65.4 0 0-.994.513.88.69-65.4 0 0 .261 1.087.88.69-65.4 0 0 .994-.513.88.69-65.4 0 0-.261-1.087zm125.053 2.379a2.33 1.19-48 0 0-2.443.935 2.33 1.19-48 0 0-.675 2.528 2.33 1.19-48 0 0 2.443-.935 2.33 1.19-48 0 0 .675-2.528zM245.77 312q1.07 1.15.84 2.31a1.49 1.41-19.4 0 1-.34.66q-2.25 2.42-4.5 5.65-.59.84-2.21.54a.32.32 0 0 0-.35.43q.17.41.25.43.95.22 1.95-.57.69-.55 6.28-6.76c2.19-2.44.85-3.57-.77-6.28q-1.16-1.92-2.81-3.87.01-.69-.88-1.05a1.13 1.13 0 0 0-1.25.28l-8.2 8.92a.33.32 49.7 0 0-.03.41l4.95 7.35a.06.05-35.2 0 0 .08.01l.21-.23a.18.17 51.9 0 0 .02-.2l-2.74-4.75a.71.7-34.5 0 1 .17-.9c1.68-1.33 4.47-.68 6.43-.22a.69.69 0 0 0 .7-.25q1.41-1.85 2.2-1.91zm-89.5-4.23q-1.65 4.55-3.75 6.49a.9.9 0 0 0 .07 1.38l4.55 3.4a1 .99-34.3 0 0 .86.16q1.82-.49 3.92-1.27 1.33-.49 2.09.34a.77.77 0 0 0 1.33-.61q-.37-3.03-3.54-5.24-2.94-2.06-4.87-4.74a.38.38 0 0 0-.66.09zm32.787.75a.85.69-4.7 0 0-.904-.618.85.69-4.7 0 0-.791.757.85.69-4.7 0 0 .904.618.85.69-4.7 0 0 .791-.757zm112.999 1.626a1.12.81-31.4 0 0-1.378-.108 1.12.81-31.4 0 0-.534 1.275 1.12.81-31.4 0 0 1.378.108 1.12.81-31.4 0 0 .534-1.275zm-34.153.788a.89.6-68 0 0-.89.6.89.6-68 0 0 .223 1.05.89.6-68 0 0 .89-.6.89.6-68 0 0-.223-1.05zm-80.111 6.616a.95.8-48.3 0 0-1.229.177.95.8-48.3 0 0-.035 1.241.95.8-48.3 0 0 1.229-.177.95.8-48.3 0 0 .035-1.241zm95.228 4.157a1.12.67-63.5 0 0-1.099.703 1.12.67-63.5 0 0 .1 1.301 1.12.67-63.5 0 0 1.099-.703 1.12.67-63.5 0 0-.1-1.301zm6.48 2.202q.64.09 1.01-.38a.79.67-82.4 0 0-.78-1.22q-.48.31-.66.94a.52.52 0 0 0 .43.66zm-4.165 1.607a1.33.48-141.8 0 0 .748 1.2 1.33.48-141.8 0 0 1.342.445 1.33.48-141.8 0 0-.748-1.2 1.33.48-141.8 0 0-1.342-.445zm-125.043 1.049a1.31 1.05-95.6 0 0-.917 1.406 1.31 1.05-95.6 0 0 1.173 1.201 1.31 1.05-95.6 0 0 .917-1.406 1.31 1.05-95.6 0 0-1.173-1.201zm117.632.167a1.17.77-74.4 0 0-1.056.92 1.17.77-74.4 0 0 .427 1.334 1.17.77-74.4 0 0 1.056-.92 1.17.77-74.4 0 0-.427-1.334zm-1.395 9.477q-.39.47-.47.84a.59.59 0 0 0 .46.71q1.13.22 1.54-.28.41-.49-.01-1.56a.59.59 0 0 0-.78-.33q-.35.16-.74.62zm-8.982 10.537a1.39.87-60.8 0 0-1.437.789 1.39.87-60.8 0 0 .081 1.638 1.39.87-60.8 0 0 1.438-.789 1.39.87-60.8 0 0-.081-1.638zm-10.487 11.169a1.53.98-62.3 0 0-1.579.899 1.53.98-62.3 0 0 .156 1.81 1.53.98-62.3 0 0 1.579-.899 1.53.98-62.3 0 0-.156-1.81zm-10.948 11.658a1.2.72-72.9 0 0-1.041.935 1.2.72-72.9 0 0 .335 1.359 1.2.72-72.9 0 0 1.041-.935 1.2.72-72.9 0 0-.335-1.359zm-84.003 9.397q-.12.59-.1.64a.37.37 0 0 0 .68-.06q.15-.55.07-.69a.35.35 0 0 0-.65.11zm64.57 3.54q.31.61 1.26.42a.96.92 43.2 0 0-.1-1.84q-.37-.07-1.12.99a.43.41-41.2 0 0-.04.43zm7.95.22q.78.21 1.23-.11a.56.51 24.9 0 0-.4-.94q-.64-.01-.97.48-.32.45.14.57zm-10.19 3.73a.66.66 0 0 0-1.32 0 .66.66 0 0 0 1.32 0zM194.77 112.63q1.87.21.04 3.17-.5.81-4.42 5.1a.58.56 47.6 0 0-.02.74q.98 1.24-.08 2.4-27.55 29.79-48.76 52.9a7.02 6.53 2.1 0 1-1.19 1.03q-5.18 3.52-8.04 8.77a3.92 3.79-10.3 0 1-.53.74l-44.64 48.33a6.3 6.26 3.2 0 1-.97.86q-5.63 4.05-9.65 9.83-8.41 3.96-17.91 6.23a.35.35 0 0 1-.41-.47q.57-1.5 2.3-2.23 2.48-1.03 5.06-2.08a5.13 4.96 27.5 0 1 1.08-.32q3.12-.6 6.31-1.84a1.79 1.75 8.7 0 0 .75-.54q.53-.64 6.53-7.03.52-.55 2.42-1.59a4.05 3.95 6.3 0 0 1.04-.81l46.4-50.15a2.33 2.14-14 0 0 .41-.62q2.4-5.28 6.63-7.54c1.68-.9 2.03-1.69 2.75-2.93a3.37 3.36-4.7 0 1 .69-.81q3.57-2.95 8.07-8.12c4.26-4.91 7.71-8.3 11.09-12.09q3.34-3.75 7.33-7.85c3.46-3.56 6.28-7.18 9.59-10.63q5.78-6.03 12.17-13.01a.29.29 0 0 0-.24-.49l-1.95.17a.15.14 27.3 0 1-.09-.27l2.13-1.23a2.33 2.31-86.2 0 0 .71-.63l5.4-6.99z" class="E"/><g class="B"><path d="M213.07 118.66q-.39.37-.57.87-.77-.84-1.57-.84a.69.68 5.2 0 0-.66.54q-.08.39.03.89-2.06-.48-2.82 2.1a.78.77-63.7 0 0 .28.84l19.2 14.34a.49.49 0 0 1-.04.81q-.71.42-1.12.63a.42.41 70.9 0 1-.59-.29q-.19-.88-.6-1.16-1.64-1.09-10.07-7.03a5.37 5.33-89.8 0 1-1.38-1.4l-1.44-2.14a1.6 1.5 2.6 0 0-.37-.38l-4.84-3.34a.54.53-51 0 0-.7.08l-2.8 3.04a.43.43 0 0 0 .28.72q1.06.08 1.67.54a.65.65 0 0 1-.58 1.15q-.89-.26-1.8-1.12a1.43 1.38-24.3 0 0-1.03-.37q-1.94.1-3.11-1.34l7.72-7.44a.86.85 47.7 0 0 .05-1.18l-.31-.36a.82.82 0 0 1-.15-.81l.84-2.3 1.72 1.83a2.1 1.95-7.2 0 0 .64.46q2.25 1.02 4.12 2.66z"/><rect x="-3.49" y="-1.08" transform="matrix(.92521 -.379456 .379456 .92521 174.7 117.42)" width="6.98" height="2.16" rx="1.04"/></g><path d="M212.5 119.53q11.62 9.65 25.53 18.22a.84.84 0 0 1 .24 1.22l-.2.27a.66.65-53.5 0 1-.91.14l-26.86-19.26q-.11-.5-.03-.89a.69.68 5.2 0 1 .66-.54q.8 0 1.57.84z" class="C"/><ellipse cx="0" cy="0" transform="matrix(-.989016 -.147809 .147809 -.989016 51.98 123.57)" rx="1.72" ry=".75" class="B"/><path d="M48.2 124.86q.29-1.2-.08-1.04l1.35.25a.56.55-52.3 0 1 .13 1.05q-1.14.53-1.4-.26z" class="D"/><path d="M52.18 129.02a1.15 1.15 0 0 1-1.76 1.33l-2.77-2.06a.72.71 63.3 0 1 .42-1.29q3.34-.01 4.11 2.02zm11.92 2.29q-1.44-1.57-1.13-3.12a.67.66 13.4 0 1 .83-.51l2.59.74a1.18 1.17-6.7 0 1 .72.56l2.41 4.17a.44.44 0 0 1-.51.64q-2.92-.95-4.1-1.39-.21-.08-.31-.3a2.46.71 73.8 0 0-.5-.79zm-15.16-.57q-.65.69-2.16.98 1.07-2.55 2.16-.98z" class="B"/><path d="M54.69 134.1l-2.72-2.89q2.74.05 2.72 2.89z" class="D"/><path d="M77.33 150.84q1.45 1.26 2.71 4.09a.46.46 0 0 1-.43.65q-3.39-.05-5.08-1.51-1.68-1.45-2.22-4.8a.46.46 0 0 1 .59-.52q2.98.84 4.43 2.09z" class="B"/><g class="C"><path d="M227.63 159.07q-.46.46-2.25 2.49a.1.1 0 0 1-.12.03q-.11-.05-.15-.25a.19.18-35.9 0 1 .03-.15q.96-1.45 2.05-2.56 1.09-1.1 2.52-2.08a.19.18-54.9 0 1 .15-.04q.2.04.26.15a.1.1 0 0 1-.03.12q-2 1.82-2.46 2.29z"/><rect x="-3.11" y="-1.09" transform="matrix(.809017 .587785 -.587785 .809017 233.01 160.87)" width="6.22" height="2.18" rx="1.04"/></g><ellipse cx="0" cy="0" transform="matrix(-.810042 -.586372 .586372 -.810042 243.51 165.35)" rx="6.59" ry=".19" class="B"/><g class="C"><ellipse cx="0" cy="0" transform="matrix(-.829038 -.559193 .559193 -.829038 229.09 163.76)" rx="2.45" ry="1.14"/><ellipse cx="0" cy="0" transform="matrix(-.79653 -.604599 .604599 -.79653 235.64 168.49)" rx="2.51" ry="1.01"/><path d="M241.6 167.26q.48-.29.69-.29a.61.53-63.5 0 1 .27 1.03q-.35.31-1-.23a.32.32 0 0 1 .04-.51z"/></g><path d="M285.21 175.04q-.01-.13-.06-.25a.65.64 86 0 0-.49-.43q-2.66-.56-4.09-3.39a.49.49 0 0 1 .34-.7q.15-.02.35.12.15.12.44-.13.61-.5.32-1.51c3.33.83 2.1 2.7 3.43 4.82a1.04 1.03-56.6 0 1 .15.74q-.07.48-.39.73z" class="B"/><ellipse cx="0" cy="0" transform="matrix(-.847122 -.531399 .531399 -.847122 242.21 173.31)" rx="2.56" ry="1.09" class="C"/><path d="M298.29 180.18l-2.23 3.63a.65.35-28.2 0 1-.08.12l-7.51 8.04a.31.3-44.4 0 1-.45 0q-.85-.97-2.52.54-1.68 1.52-3.88 4.06c-3.35 3.88-6.86 7.67-14.45 15.79q-3.15 3.37-5.41 6.16-2.12 2.62-5.22 6.32a1.15 1.15 0 0 0 .54 1.84q.1.03 1-.18c-2.81 3.35-6.29 6.47-8.73 9.68q-4.6 6.06-10.05 11.39-.91.89-1.24 1.67-.57 1.35.78 1.48l.52 2.54q-1.89 2.92-4.93 5.19-1.2-.88-2.22-1.05-.71-1.69-3.01.82-40.13 43.78-44.37 48.34-1.04 1.11-1.84 2.19a.62.61-51.4 0 0 .09.83q.19.17.77.18l.64 3.09-6.63 7.31-.08.28a.43.43 0 0 1-.67.23l-3.42-2.56a1.22 1.22 0 0 1-.4-.51q-.57-1.38-.24-2.32a.86.85 28.3 0 0-.3-.97l-5.91-4.42a.67.66-53.1 0 1-.13-.94q2.23-2.99 3.49-4.51c1.4-1.69 4.65-3.67 6.26-1.21a1.23 1.23 0 0 0 1.94.16l47.5-51.59a.96.96 0 0 0-.26-1.5q-1.52-.81-2.14-1.45a1.22 1.22 0 0 1-.3-1.15q.84-3.22 6.64-5.7a.91.91 0 0 1 1.27.76q.11 1.21 1.06 1.47a1.02 1.01 28.1 0 0 1.05-.31c1.52-1.76 4.32-4.48 6.14-7.37 4.05-6.42 9.97-12.2 15.51-17.09 9.7-8.54 18.31-19.51 27.21-28.36q1.43-1.42 1.36-2.94a.93.92-77 0 0-.48-.78q-3.83-2.14-6.09-6.05a.39.38-87 0 1 .56-.51l.4.3a1.15 1.15 0 0 0 1.47-.08l5.6-5.25q.01.18.04.3a.28.27 62.7 0 0 .45.15l2.77-2.4a1.04 1.04 0 0 1 1.29-.06l8.84 6.4z" class="D"/><ellipse cx="0" cy="0" transform="matrix(-.965016 -.262189 .262189 -.965016 149.16 177.44)" rx="1" ry=".73" class="B"/><path d="M316.61 184.21q8.83 7.11 16.98 15.2 1.03 1.02 2.85 3.27.69 1.63 2.61 2.47a1.69 1.67-1.4 0 1 .81.76q1.13 2.25 4.37 2.32.47.21.84.68-.53 2.18 1.14 2.6.15.64 1.11.66 2.08 2.99 1.66 6.83-2.53 2.82.3 2.77 1.63 4.64 4.68 8.85a1.79 1.7-64.7 0 1 .33 1q.09 4.3.02 12.85c-.04 4.87-1.01 9.4-1.18 14.19a1.47 1.23-39.9 0 1-.05.28l-.84 2.89q-1.32 1.66-1.82 3.71-.71 2.05-.5 5.02-.68-1.86-1.85-2.26a.98.97-56 0 0-.97.19q-1.3 1.16-2.17 2.7a2.06 1.96-4.5 0 1-.6.67c-.61.45-2.47 1.94-2.83 2.92q-.24.66-1.27.17a1.59 1.59 0 0 0-1.85.36l-25.72 27.94a.38.38 0 0 1-.52.02l-.29-.27a.28.28 0 0 1-.01-.4l27.24-29.6a1.06 1.06 0 0 0 .14-1.25l-2.29-3.96a1.2 1.2 0 0 1 .22-1.47l6.31-5.93a.62.62 0 0 0 .19-.49q-.08-1.31-1.01-3.16c-.96-1.89.05-2.65 1.28-3.86a.81.8 40.9 0 1 1.05-.07l2.12 1.58a.36.36 0 0 0 .5-.07l.24-.32a.52.52 0 0 0-.1-.72c-1.53-1.17-3.8-2.46-4.48-4.31q.11.05.25.04a.25.25 0 0 0 .2-.38q-2.04-3.65-2.82-7.29a5.92 5.73 24.5 0 0-.71-1.81l-7.81-12.9a2.96 2.83 4.6 0 0-.72-.81l-6.77-5.31-1.96-3.28q2.01-1.64-.03-4.85-7.24-11.47-7.25-11.48-.77-1.13-5.97-5.91a1.76 1.69 13 0 1-.48-.74l-.62-1.89a.67.67 0 0 0-.27-.33q-2.52-1.62-3.52-3.67a.5.5 0 0 0-.75-.18l-6.27 4.8a1.03 1.03 0 0 0-.24.24q-1.73 2.42-4.21 4.12 1.46-2.18 2.84-4.33c2.12-3.31 3.26-6.98 4.8-10.64l3.81 2.78a1.22 1.21-47.1 0 0 1.52-.06l2.15-1.86a1.73 1.72-23.1 0 0 .59-1.46l-.18-2.17a.58.58 0 0 1 1.02-.43q2.87 3.32 6.76 5.04zm15.49 34.07l-2.19-3.79a.54.53-38.3 0 0-.86-.1l-1.81 1.96a.67.66-67.8 0 0 .46 1.11q1.91.06 3.84 1.35a.4.4 0 0 0 .56-.53zm.82 4.7q-.5.59-.63.76a.53.53 0 0 0 .19.8q4.17 2.09 4.44 1.77.27-.33-2.54-4.05a.53.53 0 0 0-.83-.04q-.14.16-.63.76z" class="D"/><path d="M322.91 217.23l-16.07-25.19a.67.66 61.8 0 0-.83-.26q-1.29.56-1.81 1.92a.88.88 0 0 1-1.69-.17q-.19-1.1-1.02-1.68-.55-.39-1.38.51-2.83 3.1-5.43 6.19-.63.75-1.4.38-.58-.29.02-1.59 2.48-1.7 4.21-4.12a1.03 1.03 0 0 1 .24-.24l6.27-4.8a.5.5 0 0 1 .75.18q1 2.05 3.52 3.67a.67.67 0 0 1 .27.33l.62 1.89a1.76 1.69 13 0 0 .48.74q5.2 4.78 5.97 5.91.01.01 7.25 11.48 2.04 3.21.03 4.85z" class="C"/><g class="B"><path d="M238.84 250.72q-1.35-.13-.78-1.48.33-.78 1.24-1.67 5.45-5.33 10.05-11.39c2.44-3.21 5.92-6.33 8.73-9.68q5.82-5.28 11.07-11.11l19.53-21.5a.58.58 0 0 1 .91.06l.16.23a.76.75 49.6 0 1-.07.92l-50.84 55.62z"/><ellipse cx="0" cy="0" transform="matrix(-.214735 -.976672 .976672 -.214735 299.64 196.61)" rx="1.05" ry=".81"/><ellipse cx="0" cy="0" transform="matrix(.92321 -.384295 .384295 .92321 288.27 200.43)" rx=".95" ry=".66"/><ellipse cx="0" cy="0" transform="matrix(.403545 -.91496 .91496 .403545 295.6 200.83)" rx=".99" ry=".73"/></g><path d="M94.26 210.04a.27.27 0 0 1-.38-.01l-.33-.34a3.62 3.41-43.6 0 1 .27-4.97l2.03-1.93a3.62 3.41-43.6 0 1 4.97-.03l.33.35a.27.27 0 0 1-.01.38l-6.88 6.55z" class="D"/><g class="C"><path d="M344.23 208.23q-3.24-.07-4.37-2.32a1.69 1.67-1.4 0 0-.81-.76q-1.92-.84-2.61-2.47l7.79 5.55zm1.98 3.28q-1.67-.42-1.14-2.6.87.77 1.14 2.6z"/><path d="M347.32 212.17q-.96-.02-1.11-.66.52.09 1.11.66zm-15.22 6.11a.4.4 0 0 1-.56.53q-1.93-1.29-3.84-1.35a.67.66-67.8 0 1-.46-1.11l1.81-1.96a.54.53-38.3 0 1 .86.1l2.19 3.79zm16.88.72l.3 2.77q-2.83.05-.3-2.77zm-5.73 29.97l-18.38-28.46 6.77 5.31a2.96 2.83 4.6 0 1 .72.81l7.81 12.9a5.92 5.73 24.5 0 1 .71 1.81q.78 3.64 2.82 7.29a.25.25 0 0 1-.2.38q-.14.01-.25-.04zm-6.33-22.66q-.27.32-4.44-1.77a.53.53 0 0 1-.19-.8q.13-.17.63-.76.49-.6.63-.76a.53.53 0 0 1 .83.04q2.81 3.72 2.54 4.05z"/></g><path d="M320.56 228.06a.53.49 86.2 0 1-.58-.55q.02-.53.52-.57a.71.56 6.7 0 1 .77.77q-.1.23-.71.35zm-288.08 4.59q3.41 3.56 4.23 6.86 3.66 14.76 11.15 27.05l-9.99 3.45q-6.67-11.31-13.16-22.69-2.67-4.68-2.67-9.64 4.82-3.14 10.44-5.03z" class="B"/><path d="M22.04 237.68q0 4.96 2.67 9.64 6.49 11.38 13.16 22.69-.79.23-1.13.76-3.18-3.12-5.61-6.89-4.56-7.07-9.29-14-2.93-4.3-3.15-6.35-.38-3.58 3.35-5.85z" class="C"/><path d="M329.16 242.07q-.13-.29.09-1.02a.43.41 34.6 0 1 .73-.11q.34.41 0 1.07a.48.43-46.1 0 1-.82.06z" class="B"/><path d="M48.44 242.32q.59.56 2.05-.07-.48 1.32-1.27 1.74-.78.42-.98-.37-.13-.52.2-1.3z" class="D"/><path d="M234.43 258.45q3.04-2.27 4.93-5.19 1.15.02.54 1.61a2.39 2.34 77.1 0 1-.46.75l-3.83 4.21a.92.92 0 0 1-1.52-.24q-.12-.25.34-1.14z" class="B"/><path d="M87.28 263.96q1.58.04.92-3.13a.72.72 0 0 0-1.29-.27q-1.24 1.75-3.87 3.24 1.42-1.1 1.7-1.93a.51.51 0 0 0-.65-.65l-.54.18a.58.58 0 0 1-.76-.57q.02-.75.45-1.29a.8.8 0 0 0 .17-.52l-.01-.41a.91.9-55.9 0 0-1.68.33q-.24 1.61-2.09 1.44a.5.5 0 0 1-.41-.71l1.34-2.93a.86.84-3.9 0 1 .35-.39q.5-.29.84-.33a.5.5 0 0 0 .42-.65l-.27-.8a.48.48 0 0 1 .81-.48l1.98 2.14a2.9 2.9 0 0 0 .83.61q2.96 1.47 5.17 5.08a1.47 1.47 0 0 1-1.39 2.23l-2.02-.19z" class="D"/><path d="M232.21 257.4l-48.36 52.36q-.58-.01-.77-.18a.62.61-51.4 0 1-.09-.83q.8-1.08 1.84-2.19 4.24-4.56 44.37-48.34 2.3-2.51 3.01-.82z" class="B"/><path d="M54.8 298.41l-2.83.52a.96.88 25.7 0 0-.3.09q-6.61 3.23-10.75-2.78l-.04-3.47q-1.54-6.2-4.78-11.78-2.41-4.14-6.97-6.87a1.12 1.07 42.9 0 1-.11-1.84q.49-.34 1.24-.2 2.33.41 4.5.39a1.63 1.62-66.2 0 0 1.05-.41q.59-.53.93-1.29.34-.53 1.13-.76l9.99-3.45q2.46-.35 3.45-1.32a1.39 1.36-71.2 0 1 .73-.37q2.97-.53 3.96 2.65.82 2.66 2.92 9.3a1.56 1.56 0 0 0 1.96 1.02q3.48-1.1 3.19-5.08-.19-2.65-.46-5.27a2.11 2.09-36.6 0 1 .16-1.06q.8-1.84 2.24-3.25a.97.97 0 0 0 .26-.95l-.77-2.86q7.94 6.43 15.65 12.72.55.44 1.69 2.14.58.86.04 2.57-.57 1.78-1.16 6.49a5.33 5.31-17.1 0 1-1.79 3.36l-5.11 4.42a1.46 1.44-74.5 0 1-.47.27l-17.3 5.72a.6.6 0 0 0-.38.37q-.19.57-.75.33-.48-.21-.82-.05-.39.17-.3.7z" class="D"/><path d="M87.28 263.96q-4.3 1.8-4.24-.16 2.63-1.49 3.87-3.24a.72.72 0 0 1 1.29.27q.66 3.17-.92 3.13zm264.96-2.13q-.39 2.02-1.82 3.71.5-2.05 1.82-3.71z" class="C"/><g class="B"><ellipse cx="0" cy="0" transform="matrix(.797584 -.603208 .603208 .797584 230.28 263.24)" rx=".94" ry=".72"/><ellipse cx="0" cy="0" transform="matrix(.535827 -.844328 .844328 .535827 237.15 264.11)" rx="1.03" ry=".87"/><ellipse cx="0" cy="0" transform="matrix(-.989776 -.142629 .142629 -.989776 336.16 264.56)" rx=".91" ry=".54"/><path d="M506.64 422.48L361.66 273.26a.97.97 0 0 1-.24-.89q.42-1.8 2.49-3.09-.18-.49.31 0 70.99 72.27 122.47 126.04 11.69 12.21 22.94 24.58a.55.54 53.4 0 1-.12.83l-2.87 1.75z"/></g><path d="M363.91 269.28q-2.07 1.29-2.49 3.09a.97.97 0 0 0 .24.89l144.98 149.22q-7.36 3.85-13.39 5.72-1.27.39-1.44.71a.52.52 0 0 1-.49.27q-1.32-.09-1.68.28-.2.2-2.83 1.13-1.97.69-2.36.68a.99.99 0 0 0-.85.45q-.33.49-1.23.59c-1.18.14-1.97 1.11-3.2 1.48l-2.8.79a.73.73 0 0 0-.53.7v.55a.31.31 0 0 1-.58.14q-.23-.44-.13-1.18a1.47 1.46 26.3 0 0-.42-1.22l-9.12-9.12a.56.55-42.6 0 0-.75-.03q-2.74 2.34-4.79.77-.38-1.27.77-1.94a.87.82-54.5 0 1 .57-.11l1.79.26a.55.55 0 0 0 .53-.85l-1.57-2.33a.62.61 44.6 0 1-.01-.68q1.7-2.73 4-4.46a1.62 1.19-33.3 0 1 2.19.11q.92 1.9 3.8.32a.61.61 0 0 0 .13-.96l-5.9-5.9a1.29 1.28 52.4 0 0-1.55-.21l-1.32.76a.74.73 56.1 0 0-.21 1.09q.93 1.19 2.56 1.96a.49.48-60.4 0 1 .19.71c-1.24 1.9-3.02 2.57-4.42 3.88a3.53 3.52-74.9 0 1-1.44.83l-.66.18a1.26 1.23-75.1 0 0-.57.34l-4.19 4.18a.66.65-19.8 0 0-.17.35q-.16 1.47 2.31 2.72-4.45 5-8.44 10.02-.25.32-.7.06.66-.92.05-1.55-51.82-53.31-103.86-106.41-8.45-8.63-16.91-17.03-1.54-2.82-4.49-4.47-1.36.36-1.96-.64c2.61-.52 5.33-4.86 6.53-5.85a.59.58 52.8 0 0 .1-.79q-1.8-2.51-3.38-3.36a.59.59 0 0 1-.25-.77q.41-.84 1.06-1.28a.44.44 0 0 1 .55.04l6.51 6a2.32 2.31 57 0 0 2.31.49l4.58-1.51a1.1 1.09-32.9 0 0 .4-1.84l-4.15-3.82a.96.95-47.4 0 1-.05-1.34l3.53-3.84a.84.84 0 0 0 .02-1.12l-2.32-2.69a.42.42 0 0 1 .19-.68l4.03-1.34a1.36 1.35-36.6 0 1 1.19.17l6.1 4.14a2.82 2.81-5.4 0 1 .51.42l5.19 5.38a2.34 2.34 0 0 0 2.41.59l4.77-1.58a1.09 1.09 0 0 0 .44-1.8q-6.66-6.78-9.19-9.57c-1.35-1.49-2.65-1.21-2.63-3.73q2.27-.38 3.57-1.2 1.82-1.13 2.51-1.49 3.47-1.78 6.92-3.52.87-.44 1.89-.25zm117.94 142.85l-.94.08a.5.5 0 0 0-.4.75l.44.75a3.66 3.66 0 0 0 3.47 1.82l1.97-.17a1.13 1.13 0 0 0 .7-1.92l-3.81-3.81a1.32 1.32 0 0 0-1.6-.21l-2.14 1.24a.32.31-30.1 0 0-.12.44l.2.36a.52.51 61 0 0 .68.2q1.56-.82 1.8.11a.29.29 0 0 1-.25.36zm-24.36-.45a1.05 1.04 54.2 0 0-1.31-.22l-1.86 1.08a.51.5 55 0 0-.13.77l1.66 1.92a.86.86 0 0 0 .91.26q1.63-.51 3.52-.02a.2.2 0 0 0 .21-.32l-3-3.47zm-9.05 12.17q-.11.05-.26.12a.77.77 0 0 0-.17 1.25q3.55 3.28 6.33 1.1a.75.75 0 0 0 .08-1.11l-3.96-4.1a1.35 1.33 63.3 0 0-1.15-.39q-.97.13-2.62 1.71a.43.43 0 0 0 .36.74q1.01-.14 1.38.02a.36.36 0 0 1 .01.66z" class="C"/><path d="M109.61 290.34l-14.79 14.73a.15.15 0 0 0-.02.19l.02.03a.23.23 0 0 0 .33.03l7.05-6.1a.33.32 42.7 0 1 .42-.01l.26.22a.28.28 0 0 1 0 .44q-6.55 5.13-9.43 12.08-.57 1.36.04 2.59 1.76 3.56-1.2 6.72a1.2 1.18-60.5 0 1-1.2.34l-3.64-1.03a3.02 3.02 0 0 0-3.02.83l-6.36 6.75a1.61 1.48-79.3 0 1-.43.32q-3.85 1.83-6.92 6.17a.57.57 0 0 0-.03.6l3.76 6.5a3.61 3.6-37.9 0 1-.54 4.3c-2.85 2.92-5.31 6.32-8.32 5.86q-3.78-.58-6.39-3.23-.68-.69-1.02-.46-.33.23-.49 1.11-1.07-.36-.74-1.11-1.71-3.38-2.16-1.11l-1.68.04q.32-.9 1.21-1.28a.43.42-33 0 0 .15-.68q-.58-.64-1.46-.15-.8.45-1.48.82a1.9 1.84 28.4 0 1-.82.23l-4.59.12a.18.17-80.3 0 0-.16.12l-.11.41a.26.26 0 0 0 .27.33l4.25-.36a.38.38 0 0 1 .31.63l-2.37 2.58a.35.32-27.5 0 0-.09.25q.02.57-.9.82-.73.2-1.17 1.4-1.12 3.09-3.65 5.35l-2.48.02q-1.63-1.04-2.48-3.07.57-.88.14-1.77 3.51-4.25 10.69-11.79.35-.36-.34-1.15-.23-.6-.8-.85c-2.35-3.05-5.16-6.16-5.76-10.14a1.82 1.77 51.2 0 1 .09-.93q2.05-5.81 7.75-7.66 1.37-.44 4.2.62 3.23 1.2 4.36 1.19.39 2.55 2.12 1.71 1.34-.65 3.66-3.55a.3.3 0 0 1 .53.13q.08.34-.35.07a.42.42 0 0 1-.1-.62l7.82-9.55a.76.75 39.3 0 0-.11-1.06l-.24-.2a.64.63 42.1 0 0-.84.04q-1.41 1.39-2.08 2.9a.22.22 0 0 1-.41-.02q-.03-.08.01-.64-.28 1.4-2.41 2.09-1.63-2.25-3.48-2.46.04-.83.83-1a.5.49 60.4 0 0 .23-.85q-.34-.31-2.35-.21a.9.9 0 0 1-.95-.84q-.11-1.72-.89-2.35a.43.43 0 0 0-.68.22q-.33 1.2-1.45.78-.25-1.81.75-3.38a.9.87-41.8 0 0 .06-.86l-1.67-3.59.22-.39a.42.42 0 0 1 .68-.09l.49.53a.44.43 79.3 0 0 .2.14l11.09 4.53a1.27 1.27 0 0 0 1.75-1.17q0-1.61 1.39-3.69a1.12 1.11 24.8 0 1 1.23-.45l5.93 1.68a.92.92 0 0 0 .92-.26q5.4-5.88 6.93-7.87c3.07-4.02 7.71-6.53 9.69-11.38a1.22 1.22 0 0 0 0-.88q-1.73-4.25-.12-7.55a1.3 1.29-69.4 0 1 1.49-.68l3.07.82a.49.3 58.3 0 1 .16.08c6.3 4.44 13.04 10.44 17.42 16.98q2.17 3.26 6.8 4.47a.46.46 0 0 0 .43-.79l-7.95-7.33a.79.78 50.7 0 1 .12-1.25q.79-.47 1.33-1.53a.97.96-58.2 0 1 1.44-.34l9.77 7.3a1.6 1.6 0 0 1 .64 1.15l.7 8.19a.68.68 0 0 1-1.1.58c-2.06-1.64-4.04-2.43-6.66-2.66q-2.13-.18-3.17-2.12a1.75 1.73-.4 0 0-.76-.74q-1.91-.96-4.8-.53a.06.05 6.3 0 1-.06-.07q.08-.23.12-.22 1.46.3 2.43-.18a.27.27 0 0 0-.05-.5l-8.03-2.4z" class="D"/><g class="B"><ellipse cx="0" cy="0" transform="matrix(.671721 -.740805 .740805 .671721 335.17 274.29)" rx=".93" ry=".56"/><path d="M219.76 273.66a1.13 1.07 37.3 0 1 .33 2q-.16.1-1-.47a.61.6-53.8 0 1-.13-.87q.56-.73.8-.66z"/></g><path d="M87.06 274.5a.27.27 0 0 1 .23-.31l.14-.02a1.73 1.36-8.5 0 1 1.91 1.09l.04.28a1.73 1.36-8.5 0 1-1.51 1.6l-.14.02a.27.27 0 0 1-.31-.23l-.36-2.43zm256.34 2.11q-.04.12-.15 1.01a.57.57 0 0 1-1.08.18q-.44-.88-.11-1.72.33-.83 1.25-1.18a.57.57 0 0 1 .66.86q-.52.72-.57.85z" class="C"/><path d="M247.34 279.25q.45-.07.54.44.15.8-.52 1.08a.49.46 85.1 0 1-.62-.56q.16-.89.6-.96zm-20.92 4.54q-.15-.16-.09-.46a.37.27 80.8 0 1 .06-.12q1.08-1.5 1.87-1.93a.55.55 0 0 1 .75.24q.33.67-.04 1.24-.17.26-1.09.13-1.07-.16-1.15.8a.18.18 0 0 1-.31.1z" class="B"/><g class="C"><ellipse cx="0" cy="0" transform="matrix(.669131 -.743145 .743145 .669131 222.67 285.9)" rx="2.46" ry=".73"/><rect x="-.72" y="-3.58" transform="matrix(.732543 .680721 -.680721 .732543 224.58 287.42)" width="1.44" height="7.16" rx=".69"/></g><ellipse cx="0" cy="0" transform="matrix(.512043 -.85896 .85896 .512043 209.26 285.91)" rx="1.05" ry=".76" class="B"/><g class="C"><ellipse cx="0" cy="0" transform="matrix(.956814 -.290702 .290702 .956814 323.61 286.53)" rx=".74" ry=".58"/><ellipse cx="0" cy="0" transform="matrix(.658689 -.752415 .752415 .658689 333.99 288.49)" rx="2.12" ry="1.11"/><path d="M109.61 290.34q-.11-.04-.15.3.88.94 2.09 1.49l3.8.83a.26.26 0 0 1-.09.52l-4.62-.57a1.13 1.1-52.6 0 0-.6.09q-2.69 1.19-2.03 4.28 1.78 4.91 6 6.55 1.88.51 3.54 1.59a.2.2 0 0 1 .01.33l-.17.12a.06.06 0 0 0 0 .1q9.02 5.82 14.48 10.51 8.92 7.65 19.6 19.29 2.17 2.37 7.85 10.89.5 1.66.39 2.33-1.31 7.95-3.68 15.68a.66.66 0 0 1-.68.46l-2.51-.18-16.25 17.33a.47.47 0 0 0 .08.7l5.57 3.81.02.55-4.52-3.29a1.41 1.41 0 0 0-1.85.16l-19.17 19.88q-1.35 0-1.56 1.03-6.24-.84-7.86-1.43-9.88-3.57-18.22-9.97a1.1 1.09 65.4 0 0-.61-.23q-.51-.04-.93-.29.09-.6-.44-.97-.53-.38-.96.1-.69.75.08 1.28.09 1.74-.56 2.06-.71-2.66-.06-4.67 3.89-13.62 16.62-18.85a.67.67 0 0 1 .72.15q1.91 1.95 2.79 3.35.46.74 2.96 3.73 5.71 6.84 9.08 14.98a.39.39 0 0 0 .63.14c7.45-6.99 15.77-17.26 20.52-23.37 5.87-7.53 1.5-15.21 1.01-22.22q-.57-8.22 6.2-10.59c.47-.16 1.04-.79 1.17-1.22a.04.03-68.9 0 0-.01-.04q-.11-.08-.25-.08a.26.26 0 0 1-.25-.26v-2.74a1.05 1.04 24.3 0 0-.27-.7q-8.75-9.92-17.15-16.57-1.98-1.57-4.39-.95a1.28 1.24-36.9 0 1-.94-.12q-.41-.23-1.28-.32a.37.36 83.3 0 0-.38.49q.55 1.6 2.3 2.62a1.42 1.41-51.1 0 1 .24 2.28c-4.51 4.09-9.7 8.07-13.82 12.57-6.78 7.4-14.03 14.83-19.79 18.88-4.33 3.04-9.13 3.24-12.52 4.53-6.47 2.48-10.14 8.08-12.51 14.37q-5.75-7.22-8.3-15.91a3.46 3.08-57.6 0 1-.11-.68l-.18-5.15q.16-.88.49-1.11.34-.23 1.02.46 2.61 2.65 6.39 3.23c3.01.46 5.47-2.94 8.32-5.86a3.61 3.6-37.9 0 0 .54-4.3l-3.76-6.5a.57.57 0 0 1 .03-.6q3.07-4.34 6.92-6.17a1.61 1.48-79.3 0 0 .43-.32l6.36-6.75a3.02 3.02 0 0 1 3.02-.83l3.64 1.03a1.2 1.18-60.5 0 0 1.2-.34q2.96-3.16 1.2-6.72-.61-1.23-.04-2.59 2.88-6.95 9.43-12.08a.28.28 0 0 0 0-.44l-.26-.22a.33.32 42.7 0 0-.42.01l-7.05 6.1a.23.23 0 0 1-.33-.03l-.02-.03a.15.15 0 0 1 .02-.19l14.79-14.73z"/></g><path d="M111.55 292.13q-1.21-.55-2.09-1.49 1.48.32 2.09 1.49z" class="D"/><ellipse cx="0" cy="0" transform="matrix(.395546 -.918446 .918446 .395546 219.65 291.46)" rx="1.02" ry=".76" class="B"/><path d="M40.92 296.24l-.04-3.47.04 3.47z" class="C"/><g class="B"><ellipse cx="0" cy="0" transform="matrix(.076719 -.997053 .997053 .076719 257.53 295.74)" rx=".83" ry=".59"/><ellipse cx="0" cy="0" transform="matrix(.416281 -.909236 .909236 .416281 198.79 297.47)" rx=".88" ry=".69"/><path d="M114.01 303.83q-4.22-1.64-6-6.55l6 6.55z"/></g><g class="C"><ellipse cx="0" cy="0" transform="matrix(.669131 -.743145 .743145 .669131 322.65 300.78)" rx="2.33" ry="1.19"/><path d="M315.35 304.97l-6.48 6.12q-.07-.11-.15-.23a.23.22 49.6 0 1 .02-.28q3.26-3.66 6.74-7.82.72-.86 1.95-.68a.36.36 0 0 1 .02.71q-1.54.3-2.1 2.18zm4.52.11q-.94-.19-1.91-1.16.3-1.96 1.91 1.16z"/></g><path d="M244.11 304.54q-.06 3.88 1.66 7.46-.79.06-2.2 1.91a.69.69 0 0 1-.7.25c-1.96-.46-4.75-1.11-6.43.22a.71.7-34.5 0 0-.17.9l2.74 4.75a.18.17 51.9 0 1-.02.2l-.21.23a.06.05-35.2 0 1-.08-.01l-4.95-7.35a.33.32 49.7 0 1 .03-.41l8.2-8.92a1.13 1.13 0 0 1 1.25-.28q.89.36.88 1.05z" class="D"/><path d="M244.11 304.54q1.65 1.95 2.81 3.87c1.62 2.71 2.96 3.84.77 6.28q-5.59 6.21-6.28 6.76-1 .79-1.95.57-.08-.02-.25-.43a.32.32 0 0 1 .35-.43q1.62.3 2.21-.54 2.25-3.23 4.5-5.65a1.49 1.41-19.4 0 0 .34-.66q.23-1.16-.84-2.31-1.72-3.58-1.66-7.46zm-182.12 6.5q-4.12-.05-5.26-4.25 1.12.42 1.45-.78a.43.43 0 0 1 .68-.22q.78.63.89 2.35a.9.9 0 0 0 .95.84q2.01-.1 2.35.21a.5.49 60.4 0 1-.23.85q-.79.17-.83 1z" class="C"/><path d="M327.02 310.53l-4.49-4.47q2.95 1.65 4.49 4.47zm-170.75-2.76a.38.38 0 0 1 .66-.09q1.93 2.68 4.87 4.74 3.17 2.21 3.54 5.24a.77.77 0 0 1-1.33.61q-.76-.83-2.09-.34-2.1.78-3.92 1.27a1 .99-34.3 0 1-.86-.16l-4.55-3.4a.9.9 0 0 1-.07-1.38q2.1-1.94 3.75-6.49z" class="D"/><ellipse cx="0" cy="0" transform="matrix(.996637 -.081939 .081939 .996637 188.21 308.59)" rx=".85" ry=".69" class="B"/><path d="M57.87 322.2q5.27-3.62 7.6-8.7 2.13-.69 2.41-2.09-.04.56-.01.64a.22.22 0 0 0 .41.02q.67-1.51 2.08-2.9a.64.63 42.1 0 1 .84-.04l.24.2a.76.75 39.3 0 1 .11 1.06l-7.82 9.55a.42.42 0 0 0 .1.62q.43.27.35-.07a.3.3 0 0 0-.53-.13q-2.32 2.9-3.66 3.55-1.73.84-2.12-1.71z" class="C"/><ellipse cx="0" cy="0" transform="matrix(.853551 -.52101 .52101 .853551 301.1 310.73)" rx="1.12" ry=".81" class="D"/><g class="B"><ellipse cx="0" cy="0" transform="matrix(.374607 -.927184 .927184 .374607 267.57 311.76)" rx=".89" ry=".6"/><path d="M308.48 310.95q-.83 2-2.65 2.94.8-1.82 2.65-2.94zm-130.62 9.21l6.63-7.31q1.51.31.33 1.73-2.86 3.43-5.87 6.53a.54.53-42.1 0 1-.81-.04q-.2-.26-.28-.91zM85.6 391l-7.38-6.97-7.71-7.92q-1.7-1.22-2.97-3.5.26-.31-.11-.52-.27-.16-.28.17l-.87-1.2c2.37-6.29 6.04-11.89 12.51-14.37 3.39-1.29 8.19-1.49 12.52-4.53 5.76-4.05 13.01-11.48 19.79-18.88 4.12-4.5 9.31-8.48 13.82-12.57a1.42 1.41-51.1 0 0-.24-2.28q-1.75-1.02-2.3-2.62a.37.36 83.3 0 1 .38-.49q.87.09 1.28.32a1.28 1.24-36.9 0 0 .94.12q2.41-.62 4.39.95 8.4 6.65 17.15 16.57a1.05 1.04 24.3 0 1 .27.7v2.74a.26.26 0 0 0 .25.26q.14 0 .25.08a.04.03-68.9 0 1 .01.04c-.13.43-.7 1.06-1.17 1.22q-6.77 2.37-6.2 10.59c.49 7.01 4.86 14.69-1.01 22.22-4.75 6.11-13.07 16.38-20.52 23.37a.39.39 0 0 1-.63-.14q-3.37-8.14-9.08-14.98-2.5-2.99-2.96-3.73-.88-1.4-2.79-3.35a.67.67 0 0 0-.72-.15Q89.49 377.38 85.6 391z"/></g><path d="M303.73 316.21q-.12.36-.47.55-.02-.51.47-.55z" class="D"/><g class="B"><path d="M302.77 317.21q-.21.53-.74.82-.26-.28-.04-.56.38-.49.78-.26z"/><ellipse cx="0" cy="0" transform="matrix(.66523 -.746638 .746638 .66523 187.16 318.26)" rx=".95" ry=".8"/><ellipse cx="0" cy="0" transform="matrix(.446198 -.894934 .894934 .446198 282.52 322.71)" rx="1.12" ry=".67"/><path d="M289.07 323.25q.18-.63.66-.94a.79.67-82.4 0 1 .78 1.22q-.37.47-1.01.38a.52.52 0 0 1-.43-.66z"/></g><path d="M298.2 322.19q-.37.62-.98 1.02.29-.68.98-1.02z" class="D"/><path d="M297.22 323.21q-.16.31-.46.5.13-.35.46-.5z" class="B"/><g class="D"><ellipse cx="0" cy="0" transform="matrix(-.785857 -.618408 .618408 -.785857 286.38 326.34)" rx="1.33" ry=".48"/><path d="M295.23 325.46l-.49.52q-.01-.49.49-.52z"/></g><g class="B"><ellipse cx="0" cy="0" transform="matrix(-.097583 -.995227 .995227 -.097583 160.42 327.87)" rx="1.31" ry="1.05"/><ellipse cx="0" cy="0" transform="matrix(.26892 -.963163 .963163 .26892 277.61 327.86)" rx="1.17" ry=".77"/></g><path d="M289.54 331.49l-6.06 6.68q-1.25-.93-2.39 2.66l-5.56 5.91q-1.33.85-1.97 2.26l-8.76 9.48q-.49-.01-.51.56-.14.13-.22.1l-7.24 7.95q-1.06.15-.88 1.15l-.23.26q-.39.07-.45.46-.6.83-1.3 1.22-.52-.09-.39.11.33-1.44 1.4-2.52a.76.75 68.8 0 0 .22-.51q.01-.31-.31-.34a1 .96 24.1 0 1-.66-1.63q12.37-13.18 20.51-22.45c1.28-1.45 2.77-2.71 4.2-3.83a5.07 5.04-3.5 0 0 1.21-1.36q1.69-2.73 3.76-4.34c1.27-.99 2.33-2.64 3.78-4a.41.41 0 0 1 .68.19q.06.24-.42 1.15a.49.49 0 0 0 .39.71l1.2.13zm-90.65 30.11q-1.93.01-4.06.09-2.39.09-5.75 1.81-.81-1.26-3.3-.54l3.32-.56a1.32 1.31-21.2 0 0 .89-2q-1.9-2.98-2.84-4.98-.87-1.84-3.23-3.02-1.61-.8-3.57-2.22a2.27 2.26-38.1 0 0-2.19-.26q-2.06.85-3.51 2.26a2.24 2.22 74 0 0-.62 1.13q-.31 1.34-.97 2.23a1.18 1.17-62.5 0 0 .57 1.82q3.34 1.11 8.1.79 1.21-.08 2.5 1.18a.68.67-55.2 0 1 .13.76l-2.12 4.4a1.32 1.25-34 0 0-.12.54q.05 3.81-.52 4.92a.27.27 0 0 0 .31.38q.26-.07.77-1.17c.72-1.55 1.79-1.66 3.51-1.55a.62.62 0 0 1 .57.56l.17 2.09a.29.29 0 0 0 .37.26q.59-.17.34-1.14.01 0 .02 0a.03.02 90 0 1 .02.03q.25.79-.13 1.6.89 4.51.07 8.29-1.03-.69-1.73-.58-.72.12-1.09 1.35-.27.88-.74 2.87a1.37 1.36 7.7 0 1-1.38 1.04l-10.93-.4a3.95 3.92-72.2 0 0-3.43 1.78q-.2.3-1.35 1.16a1.26 1.25 62.4 0 1-1.94-.61l-2.5-7.56a.91.9 9.2 0 0-.32-.44l-2.75-2.06a.96.93-70.7 0 1-.38-.82l.28-4.8a1 .99-59.5 0 0-.15-.59q-.59-.94-1.61-1.49a.37.36 89.6 0 0-.49.5c.64 1.19 1.29 2.91 1.27 4.19q-1.11-5.04-5.54-7.89l2.51.18a.66.66 0 0 0 .68-.46q2.37-7.73 3.68-15.68.11-.67-.39-2.33.5.09.75-.21a.39.27 80 0 0 .07-.15c.96-5.24 2.68-6.68 6.62-10.77a1.5 1.49-51.4 0 1 1.89-.22l2.85 1.86a1.65 1.3 65.7 0 0 .31.16q2.85 1.04 5.39 3.4a4.94 4.81 81.3 0 0 .73.55q3 1.82 4.37 3.2.93.94 8.08 8.54a1.65 1.59-8.3 0 0 .49.35q1.79.88 3.17 3.62 1.28 2.52 4.85 4.61zm-12.87 14.44l.06-5.34a.68.68 0 0 0-.67-.69l-.53-.01a2.16 1.97-89.4 0 0-2 2.14l-.02 2.38a2.16 1.97-89.4 0 0 1.94 2.18l.53.01a.68.68 0 0 0 .69-.67zm92.04-38.56q-.41.5-1.54.28a.59.59 0 0 1-.46-.71q.08-.37.47-.84.39-.46.74-.62a.59.59 0 0 1 .78.33q.42 1.07.01 1.56z" class="D"/><path d="M283.48 338.17l-2.39 2.66q1.14-3.59 2.39-2.66zm-235.45 1.8q-.52-.31-.8-.85.57.25.8.85zm5.08 7.17q-4.34 4.47-8.59 9.12-.88.96-2.02 1.47 2.53-2.26 3.65-5.35.44-1.2 1.17-1.4.92-.25.9-.82a.35.32-27.5 0 1 .09-.25l2.37-2.58a.38.38 0 0 0-.31-.63l-4.25.36a.26.26 0 0 1-.27-.33l.11-.41a.18.17-80.3 0 1 .16-.12l4.59-.12a1.9 1.84 28.4 0 0 .82-.23q.68-.37 1.48-.82.88-.49 1.46.15a.43.42-33 0 1-.15.68q-.89.38-1.21 1.28zm3.84 1.07q-.77-1-2.16-1.11.45-2.27 2.16 1.11z" class="C"/><g class="B"><ellipse cx="0" cy="0" transform="matrix(.48786 -.872922 .872922 .48786 266.87 347.96)" rx="1.39" ry=".87"/><path d="M275.53 346.74l-1.97 2.26q.64-1.41 1.97-2.26z"/></g><path d="M185.78 362.96q.94 3.09 3.3.54 3.36-1.72 5.75-1.81 2.13-.08 4.06-.09l2.54-.49a.81.8-20.2 0 0 .55-1.19l-1.67-2.89a.44.42 60.2 0 1 .15-.59l.26-.15a.19.19 0 0 1 .25.05l1.23 1.71q.59 1.37 1.47 2.32a.96.93 63.2 0 0 .84.29l12.16-1.89q1.59-.33 3.64.03a2.39 2.39 0 0 1 1.76 1.34q.87 1.84 1.18 4.16 1.45 11.12-2 21.74-.98 2.98-4.22 2.78-2.64-.16-4.11-1.23a1.95 1.86 69 0 0-.63-.3L202 384.65q-.54-.96 1.48-.65 6.8 1.07 12.29 2.82a.86.85-83.7 0 0 1.11-.9q-.85-8.74.01-17.49a.43.42-89.4 0 0-.44-.46l-.35.03q-10.15-.66-20.27.28a.05.04-4.7 0 0-.05.05q0 .02-.01.05a.08.06 9.7 0 0 .09.09l20.24-.47q-10.58 1.02-21.18 1.35-3.04.09-7.37 1.66.38-.81.13-1.6a.03.02 90 0 0-.02-.03q-.01 0-.02 0 .25.97-.34 1.14a.29.29 0 0 1-.37-.26l-.17-2.09a.62.62 0 0 0-.57-.56c-1.72-.11-2.79 0-3.51 1.55q-.51 1.1-.77 1.17a.27.27 0 0 1-.31-.38q.57-1.11.52-4.92a1.32 1.25-34 0 1 .12-.54l2.12-4.4a.68.67-55.2 0 0-.13-.76q-1.29-1.26-2.5-1.18-4.76.32-8.1-.79a1.18 1.17-62.5 0 1-.57-1.82q.66-.89.97-2.23a2.24 2.22 74 0 1 .62-1.13q1.45-1.41 3.51-2.26a2.27 2.26-38.1 0 1 2.19.26q1.96 1.42 3.57 2.22 2.36 1.18 3.23 3.02.94 2 2.84 4.98a1.32 1.31-21.2 0 1-.89 2l-3.32.56zm-148.1-10.05q.43.89-.14 1.77-.36.24-.38-.44-.02-.56.52-1.33z" class="C"/><path d="M216.67 358.77l-12.16 1.89a.96.93 63.2 0 1-.84-.29q-.88-.95-1.47-2.32 2.77-.36 5.13-1.62a.37.36 38.7 0 0-.08-.67l-1.04-.29a.1.1 0 0 1-.01-.18c2.58-1.29 8.06 1.65 10.47 3.48z" class="B"/><path d="M42.5 357.73q-.15.42-.49.69-.35.29-.77.18-.63-.16-1.22-.85l2.48-.02z" class="C"/><g class="B"><ellipse cx="0" cy="0" transform="matrix(.464842 -.885394 .885394 .464842 256.35 359.27)" rx="1.53" ry=".98"/><path d="M264.8 358.48q-.19.38-.51.56.02-.57.51-.56z"/><path d="M264.07 359.14l-7.24 7.95 7.24-7.95zm-74.99 4.36q-2.36 2.55-3.3-.54 2.49-.72 3.3.54zm27.02 4.5l-20.24.47a.08.06 9.7 0 1-.09-.09q.01-.03.01-.05a.05.04-4.7 0 1 .05-.05q10.12-.94 20.27-.28z"/><path d="M256.83 367.09q0 .61-.88 1.15-.18-1 .88-1.15zM202 384.65q-8.31-1.78-12.12-3.26-2.26-.87-2.26-2.09.82-3.78-.07-8.29 4.33-1.57 7.37-1.66 10.6-.33 21.18-1.35l.35-.03a.43.42-89.4 0 1 .44.46q-.86 8.75-.01 17.49a.86.85-83.7 0 1-1.11.9q-5.49-1.75-12.29-2.82-2.02-.31-1.48.65zm53.72-16.15q-.18.29-.45.46.06-.39.45-.46z"/></g><ellipse cx="0" cy="0" transform="matrix(.29404 -.955793 .955793 .29404 245.76 370.72)" rx="1.2" ry=".72" class="C"/><path d="M186.02 376.04a.68.68 0 0 1-.69.67l-.53-.01a2.16 1.97-89.4 0 1-1.94-2.18l.02-2.38a2.16 1.97-89.4 0 1 2-2.14l.53.01a.68.68 0 0 1 .67.69l-.06 5.34z" class="B"/><path d="M253.97 370.18l-11.77 12.64 11.38-12.53q-.13-.2.39-.11zm-186.43 2.43l-.39-.35q.01-.33.28-.17.37.21.11.52zm10.68 11.42q-.79-.36-1.44-.97a.82.81 52.8 0 0-.9-.13q-1.13.54-2.1 3.05l.44-3.05q.84-.39.7-1.17-.2-1.21-1.6-1.64-1.86-1.65-2.81-4.01l7.71 7.92z" class="C"/><path d="M162.76 378.86q.08.14-.07.69a.37.37 0 0 1-.68.06q-.02-.05.1-.64a.35.35 0 0 1 .65-.11zm-88.54 4.07q-.68-1.03-.9-2.81 1.4.43 1.6 1.64.14.78-.7 1.17z" class="D"/><path d="M226.72 382.08q.75-1.06 1.12-.99a.96.92 43.2 0 1 .1 1.84q-.95.19-1.26-.42a.43.41-41.2 0 1 .04-.43z" class="B"/><path d="M234.63 382.73q-.46-.12-.14-.57.33-.49.97-.48a.56.51 24.9 0 1 .4.94q-.45.32-1.23.11z" class="C"/><path d="M78.22 384.03L85.6 391q-.65 2.01.06 4.67-.83 1.02-2.06 1.2-.76-1.5-1.72-1.92a.56.55 83.7 0 0-.67.84q1.48 1.99 1.67 3.88-1.29 4.26-5.34 5.11a1.89 1.87 49.1 0 1-1.04-.08q-2.96-1.06-5.24-3.34-.16-.27-.52-.32l-.53-.51q-.37-.53-.89-.77l-3.85-5.04a1.44 1.36-68.7 0 1-.27-.66q-.34-2.48 1.75-3.3a1.49 1.42-77.3 0 0 .48-.32l3.01-3.14q2.23.27 3.34-1.32.97-2.51 2.1-3.05a.82.81 52.8 0 1 .9.13q.65.61 1.44.97z" class="D"/><g class="B"><circle cx="223.78" cy="386.46" r=".66"/><path d="M144.58 388.41q-.35-.18-.84-.09l-1.48-.98-.02-.55q1.44.66 2.34 1.62z"/></g><path d="M70.44 387.3l-3.01 3.14a1.49 1.42-77.3 0 1-.48.32q-2.09.82-1.75 3.3a1.44 1.36-68.7 0 0 .27.66l3.85 5.04q-2.24-1.68-3.77-4.06c-2.51-3.9 1.01-7.79 4.89-8.4zm74.14 1.11l5.04 4.12-5.88-4.21q.49-.09.84.09z" class="C"/><path d="M87.54 393.2l-1.32.41q-.77-.53-.08-1.28.43-.48.96-.1.53.37.44.97zm117.96 13.98l-6.08 3.76a2.39 2.37 26.2 0 1-1.07.36l-3.25.27a2.42 2.28-57 0 0-.7.17q-2.14.85-4.46.77l6.74-2.53a.7.7 0 0 0 .23-1.17l-1.98-1.82a1.58 1.58 0 0 0-1.66-.31c-2.6 1.06-4.89-2.16-6.24-3.89a.95.93-56.1 0 1-.16-.85l.69-2.44a.46.43-56.7 0 0-.06-.36q-.42-.57-1.47-.4a.85.84 86.4 0 1-.98-.87q.07-1.6-1.51-2.56a1.06.9 40.5 0 1-.26-1.61q2.01-1.5 3.26-1.3a3.1 3.08 4.6 0 1 2.62 3.07q0 .11.76.61a3.06 2.98 82.6 0 1 .43.34q1.16 1.12 2.83 2.25a3.78 3.45-2.6 0 1 .6.5l6.04 6.13a.53.47 19.7 0 1 .11.2q.22.74 1.29 1.62a1.03 1.02 63.2 0 0 .71.24l3.57-.18zm-55.25-14.04q-.3-.07-.47-.32.35.06.47.32z" class="D"/><path d="M232 393.21q-.44.66-1.07.99.19-1.08 1.07-.99z" class="C"/><path d="M151.79 394.28q-.48-.13-.75-.55.7-.11.75.55z" class="D"/><path d="M230.93 394.2q-.35.66-1.02.99.08-.9 1.02-.99z" class="B"/><path d="M157.86 398.55q-3.26-1.64-5.81-4.27 3.29 1.65 5.81 4.27zm-74.26-1.68q-.75.96-.72 2.8-.19-1.89-1.67-3.88a.56.55 83.7 0 1 .67-.84q.96.42 1.72 1.92z" class="C"/><path d="M219.89 401.98q-1.52.5-2.57 2.82a.91.91 0 0 0 .07.88q2.5 3.81 5.8 6.88.72.68.32 1.91l-2.28-.95q-1.67-2.7-3.75-2.69l-9.47-4.64 1.17-.97a1.14 1.13-11.2 0 0 .35-.52q1.37-4.07-.17-7.7a.84.83 69.7 0 1 .51-1.11l2.85-.94a1.02 1.01 59.7 0 1 1.09.29l6.08 6.74z" class="D"/><path d="M161.09 400.99q-1.38-.65-2.4-1.73 1.79.29 2.4 1.73z" class="B"/><path d="M70.21 400.53q-.64-.24-.89-.77.52.24.89.77zm1.05.83q-.3-.06-.52-.32.36.05.52.32zm151.56-.23l-3.44 1.63a1.26 1.26 0 0 0-.61 1.66q1.95 4.33 5.54 8.2a1.47 1.46 44.1 0 1 .04 1.96q-.02.02-.84-.11.4-1.23-.32-1.91-3.3-3.07-5.8-6.88a.91.91 0 0 1-.07-.88q1.05-2.32 2.57-2.82 1.79-1.07 2.93-.85zm-60.28.73q-.47.13-1.06-.59.66-.05 1.06.59z" class="C"/><path d="M169.64 407.12l-7.1-5.26q4.08 2.12 7.1 5.26zm-52.92-3.03q-.08 1.15-1.56 1.03.21-1.03 1.56-1.03z" class="B"/><path d="M208.01 406.19q-1.02.91-2.09.97-.12-.98 2.09-.97z" class="C"/><path d="M189.82 412.43q-.44.66-1.06.78-.42-.05-.83.2l-1.98 1.42q-2.53.98-1.27 2.93 2.03 3.12 6.55 6.69-.24 0-.49.01l.14 1.01q-.42.79-1.13.31c-3.9-2.65-6.93-5.63-10.19-5.81a.89.88 76.5 0 1-.71-.44q-1.18-2.02-1.2-3.86a1.35 1.34 24.7 0 0-.33-.88l-2.54-3 1.63-1.14a1.24.71-21.4 0 0 .45-.56q.1-.36-.16-.96a.96.96 0 0 1 .18-1.01q1.24-1.34 3.38-1.63a.54.53 61.2 0 1 .44.13l6.17 5.69a.6.58 64.7 0 0 .39.15l2.56-.03z" class="D"/><path d="M173.7 410.54q-2.51-1.45-4.06-3.42 3.35 1.09 4.06 3.42z" class="B"/><path d="M460.05 425.19q-.45 2.43-3.17.25-2.47-1.25-2.31-2.72a.66.65-19.8 0 1 .17-.35l4.19-4.18a1.26 1.23-75.1 0 1 .57-.34l.66-.18a3.53 3.52-74.9 0 0 1.44-.83c1.4-1.31 3.18-1.98 4.42-3.88a.49.48-60.4 0 0-.19-.71q-1.63-.77-2.56-1.96a.74.73 56.1 0 1 .21-1.09l1.32-.76a1.29 1.28 52.4 0 1 1.55.21l5.9 5.9a.61.61 0 0 1-.13.96q-2.88 1.58-3.8-.32a1.62 1.19-33.3 0 0-2.19-.11q-2.3 1.73-4 4.46a.62.61 44.6 0 0 .01.68l1.57 2.33a.55.55 0 0 1-.53.85l-1.79-.26a.87.82-54.5 0 0-.57.11q-1.15.67-.77 1.94zm-1.625-4.706a1.39 1.2-117.2 0 0-.432 1.785 1.39 1.2-117.2 0 0 1.703.688 1.39 1.2-117.2 0 0 .432-1.785 1.39 1.2-117.2 0 0-1.703-.688zm23.675-8.714q-.24-.93-1.8-.11a.52.51 61 0 1-.68-.2l-.2-.36a.32.31-30.1 0 1 .12-.44l2.14-1.24a1.32 1.32 0 0 1 1.6.21l3.81 3.81a1.13 1.13 0 0 1-.7 1.92l-1.97.17a3.66 3.66 0 0 1-3.47-1.82l-.44-.75a.5.5 0 0 1 .4-.75l.94-.08a.29.29 0 0 0 .25-.36z" class="E"/><path d="M221.23 413.52q-2.06-.93-3.75-2.69 2.08-.01 3.75 2.69z" class="C"/><path d="M460.28 415.47q-1.89-.49-3.52.02a.86.86 0 0 1-.91-.26l-1.66-1.92a.51.5 55 0 1 .13-.77l1.86-1.08a1.05 1.04 54.2 0 1 1.31.22l3 3.47a.2.2 0 0 1-.21.32z" class="E"/><g class="C"><path d="M188.76 413.21q-.33.26-.83.2.41-.25.83-.2zm-2.81 1.62q.95 4.53 5.28 9.62-4.52-3.57-6.55-6.69-1.26-1.95 1.27-2.93z"/><ellipse cx="0" cy="0" transform="matrix(-.457098 -.889416 .889416 -.457098 459.06 421.72)" rx="1.39" ry="1.2"/></g><path d="M448.43 423.19q-.37-.16-1.38-.02a.43.43 0 0 1-.36-.74q1.65-1.58 2.62-1.71a1.35 1.33 63.3 0 1 1.15.39l3.96 4.1a.75.75 0 0 1-.08 1.11q-2.78 2.18-6.33-1.1a.77.77 0 0 1 .17-1.25q.15-.07.26-.12a.36.36 0 0 0-.01-.66z" class="E"/><path d="M479.17 433.79q-4.29 2.82-.64 6.71 6.86 7.34 13.77 14.31a.95.95 0 0 1-.01 1.36l-8.07 7.83h-1.32q-.11-1.98-2.22 0h-1.6c-5.91-5.86-11.86-13-19.14-17.11a.86.85-74.8 0 1-.43-.76l.06-5.27-1.41-12.31a.98.98 0 0 0-1.7-.55l-7.77 8.44a.31.3 54.1 0 0-.05.34q.06.12.12.24-.53-.16-.8.2-.24.29.09.59l-3.67 2.88a.48.48 0 0 1-.65-.7l4.01-4.47q.45.26.7-.06 3.99-5.02 8.44-10.02 2.72 2.18 3.17-.25 2.05 1.57 4.79-.77a.56.55-42.6 0 1 .75.03l9.12 9.12a1.47 1.46 26.3 0 1 .42 1.22q-.1.74.13 1.18a.31.31 0 0 0 .58-.14v-.55a.73.73 0 0 1 .53-.7l2.8-.79zm-13.94 7.86a.24.24 0 0 0-.39-.25l-2.73 2.73a.58.58 0 0 0 .32.98q1.17.19 2.07-.4a.74.72-20.3 0 0 .33-.69q-.1-.94.4-2.37z" class="D"/><g class="C"><path d="M190.88 425.47l-.14-1.01q.34-.05.39.29.05.44-.25.72zm268.69 15.39q-3.36.79-5.62-.11a1.72 1.71 82.5 0 1-.74-.57q-1.32-1.68-2.56-3.35-.66-.9-1.89.19-.06-.12-.12-.24a.31.3 54.1 0 1 .05-.34l7.77-8.44a.98.98 0 0 1 1.7.55l1.41 12.31z"/><path d="M448.76 437.02q-.18.53-.71.79-.33-.3-.09-.59.27-.36.8-.2zm16.47 4.63q-.5 1.43-.4 2.37a.74.72-20.3 0 1-.33.69q-.9.59-2.07.4a.58.58 0 0 1-.32-.98l2.73-2.73a.24.24 0 0 1 .39.25zM482.9 464h-2.22q2.11-1.98 2.22 0z"/></g></svg>