<?xml version="1.0" encoding="UTF-8" standalone="no"?>
<!-- Created with Inkscape (http://www.inkscape.org/) -->

<svg
   version="1.1"
   id="svg1"
   width="327.67999"
   height="371.20001"
   viewBox="0 0 327.67999 371.20001"
   xmlns="http://www.w3.org/2000/svg"
   xmlns:svg="http://www.w3.org/2000/svg"
   xmlns:rdf="http://www.w3.org/1999/02/22-rdf-syntax-ns#"
   xmlns:cc="http://creativecommons.org/ns#"
   xmlns:dc="http://purl.org/dc/elements/1.1/">
  <title
     id="title1">Odin Icon SVG</title>
  <defs
     id="defs1" />
  <g
     id="g1">
    <path
       style="fill:currentColor"
       d="m 125.22915,363.04001 c -3.35928,-19.49167 8.8404,-36.71708 10.72585,-55.41505 9.84148,-11.46651 11.62852,-28.76694 15.23278,-43.33793 2.42968,-17.1605 7.57023,-34.81138 6.09222,-52.00685 -17.33986,-7.51799 -34.20407,-15.60413 -47.72331,-28.97817 -8.58865,-7.25519 6.62199,-17.05262 1.54106,-25.3195 C 108.87784,142.91647 93.31751,152.761 83.56562,153.3912 67.815153,154.40404 51.719414,154.19495 35.960721,152.98523 20.426426,149.46843 7.3165344,137.38263 0,123.86373 -1.8383175,111.70305 5.8572687,101.5709 14.30273,93.646328 c 12.389479,-8.2611 25.989011,-17.133299 41.435081,-17.133255 20.252409,-7.747044 45.013289,-5.766725 63.696529,6.19423 8.23323,5.839026 13.46746,11.822229 22.89331,13.403179 -6.12648,9.605908 5.14485,17.401108 8.11951,3.942268 3.68234,-9.506693 2.85375,8.99781 13.99165,6.11029 12.35022,5.27442 20.7913,9.60671 32.82795,13.43457 14.74912,8.04387 22.32285,-17.49741 33.73817,-24.557607 6.70412,-8.83998 13.437,-16.42064 18.94931,-27.649813 9.15136,-14.981498 15.22958,-31.558055 22.15066,-47.614886 -3.86636,-15.0353588 17.23147,-12.7059719 26.62143,-17.4927198 6.97613,14.4653568 12.54795,29.8066078 21.74796,43.4406848 12.34509,14.366599 -3.50675,28.659295 -6.23912,44.516734 -7.16272,23.213817 -18.28906,44.827037 -28.39029,66.798057 -5.59346,-0.0252 -27.94024,-0.98991 -10.00489,2.51894 19.9251,0.52559 -0.80133,25.16361 -3.35608,35.66269 -2.20501,6.84523 -8.68359,17.32999 -10.6453,15.49553 -0.27264,18.45259 -16.21042,31.85143 -22.52861,48.49414 -14.75003,27.69827 -28.21022,56.10336 -43.78178,83.34939 -13.3989,11.78281 -32.9991,13.39502 -49.32246,19.81947 -11.20287,-0.23789 -13.15781,7.19195 -20.57436,8.82179 -0.13408,-2.72 -0.26817,-5.44 -0.40225,-8.16 z M 310.11378,195.25467 c 0.20475,-3.13202 2.89294,1.21752 0,0 z M 143.36,104.96 c 1.63516,-2.29597 1.63516,2.29597 0,0 z m -1.28,-1.92 c 1.63516,-2.29597 1.63516,2.29597 0,0 z m 6.05368,-1.32258 c -0.78183,-3.209897 2.08306,2.43745 0,0 z M 143.36,100.44223 c 1.05971,-1.429881 1.60021,2.19151 0,0 z"
       id="path1" />
  </g>
  <metadata
     id="metadata1">
    <rdf:RDF>
      <cc:Work
         rdf:about="">
        <dc:title>Odin Icon SVG</dc:title>
        <dc:source>https://www.eoportal.org/api/cms/documents/d/eoportal/odin_auto15-jpeg</dc:source>
      </cc:Work>
    </rdf:RDF>
  </metadata>
</svg>
