<svg xmlns="http://www.w3.org/2000/svg" baseProfile="tiny" width="512" height="241" xmlns:v="https://vecta.io/nano"><style><![CDATA[.B{fill:#353f61}.C{fill:#f1efed}.D{fill:#e7e6e4}.E{fill:#32292a}.F{fill:#efe3d5}.G{fill:#231b1c}]]></style><path d="M469.98 28.53q-10.28-.48-19.52-2.74-2.78-.68-5.03-1.01c-4.73-.68-8.55-3.23-13.19-4.03q-11.97-2.06-25.88-4.79c-2.08-.41-3.55-.3-5.74-.51a2.99 2.88 59.1 0 1-.85-.23q-1.79-.83-4.56-.82a.46.45 77.8 0 1-.41-.27q-.05-.12-.12-.23a1.03 1.02-12.1 0 0-.61-.39q-4.51-.91-9.11-2.06-3.87-.97-8.94-1.97-16.03-3.15-32.3-5.95a.22.22 0 0 0-.12.42q.27.11.44.71c-.47.09-.93.38-.91.92q.13 3-.14 3.84a.7.7 0 0 0 .36.85l.48.24a.3.3 0 0 1-.12.57l-10.77.42q1.05-.29 1.1-1c.17-2.9-.18-7.81 1.98-9.14a1.69 1.67 28.4 0 1 .9-.26q5.13.03 11.34-.54c3.07-.27 7.01 1.59 9.98 2.36q2.71.71 15.07 2.8 2.98.51 11.33 2.59c11.87 2.96 23.83 4.78 35.72 7.5q20.79 4.75 32.83 7.38.03 0 5.82 1.51 4.27 1.12 9.06 1.42 1.41.09 1.91 2.41z" class="C"/><path d="M469.98 28.53q-7.47 2.83-16.32-.74-.55-.36-1.14.06l-52.74-11.83q-.94-.98-2.08-.49l-20.87-4.34a1.43 1.43 0 0 0-1.68 1.11l-.26 1.21q-1.48.95-2.56.71-.72-.15-1.71-1.95-1.3-2.37-3.84-2.96-3.41-1.34-5.96-.89-4.07-2.05-9.34-1.92-1.87-.92-3.67.09a.52.51-30.9 0 1-.68-.17q-1.14-1.74-3.09-1.76-.17-.6-.44-.71a.22.22 0 0 1 .12-.42q16.27 2.8 32.3 5.95 5.07 1 8.94 1.97 4.6 1.15 9.11 2.06a1.03 1.02-12.1 0 1 .61.39q.07.11.12.23a.46.45 77.8 0 0 .41.27q2.77-.01 4.56.82a2.99 2.88 59.1 0 0 .85.23c2.19.21 3.66.1 5.74.51q13.91 2.73 25.88 4.79c4.64.8 8.46 3.35 13.19 4.03q2.25.33 5.03 1.01 9.24 2.26 19.52 2.74z" class="B"/><path d="M344.04 4.66q1.95.02 3.09 1.76a.52.51-30.9 0 0 .68.17q1.8-1.01 3.67-.09l-.24 2.22q-.16.18-.32.84-.15.62-.09.92.66 2.94-.5 5a1.04 1.04 0 0 0 .54 1.48l.64.25a.61.61 0 0 1 .28.93q-1.87 2.56-1.64 5.9a.94.92 9.2 0 0 .59.8c2.04.79 2.56-.29 3.82-1.39a.52.51-39.2 0 1 .75.07l.99 1.33a.74.74 0 0 0 1.31-.3q.49-2.48-.2-4.91a1.46 1.43 50.7 0 1 .09-1q.53-1.14 1.03-1.41a.36.36 0 0 1 .53.34q-.11 1.53.66 1.97l5.07-.29a.81.8 89.2 0 0 .76-.79q.1-3.6.44-7.21.06-.56-.56-1.19-.01-.99 1.35-.75 2.54.59 3.84 2.96.99 1.8 1.71 1.95 1.08.24 2.56-.71 0 .22 0 .44-.52.29 0 1.34c-.25 3.76 1.83 5.51 3.42 7.73a5.39 5.29 21.8 0 1 .89 2.02q1.27 6.1-2.38 12.77-.94 1.72-.02 4.4-.48 2.17-.67 5.81-.06 1.14-.93 2.14a.18.17-73.3 0 0 .15.29l3.14-.47q.58.64.75 1.75-1.39.2-1.76 1.01-.26.59.31 1.29l-1.1 1.58q-.99-1.58-2.6-1.33a.52.52 0 0 0-.34.81q.95 1.38 2.76 1.06 2.05 4.48 1.64 7.92-.81 6.82-1.39 11.93-.29 2.63-2.46 5.56-4.54 6.15-7.76 9.86a2.64 2.62-40.6 0 0-.25 3.13q2.09 3.36 2.87 8.29-4.35 1.6-4.88 5.82a.47.47 0 0 1-.63.39l-3.31-1.27a1.11 1.11 0 0 1-.69-.82q-.43-2.12.97-3.62a.69.68 38.2 0 0-.13-1.04l-.09-.06a1.06 1.05 40.4 0 0-1.28.1q-.5.45-.92.55a.54.54 0 0 1-.67-.52q-.03-4.43-3.67-8.16a.59.59 0 0 0-.82-.02q-2.61 2.43-3.2 4.97a1.08 1.07-7.4 0 1-.56.72q-.97.49-1.74.56a1.73 1.73 0 0 0-.94.39c-2.27 1.83-3.73 3.77-6.9 4.31q-1.28 1.18 2.23 4.54-.14 1.39-.77 2.25-.87 1.17-2.04.48-1.08-.64-1.57-1.15a.66.65 40.5 0 1-.07-.83q.38-.55.44-.91.09-.5-.89-.98-.9-.44-1.55-1.01l-.31-.51q-.54-1.36-.2-2.81.13-.6.03-.92-.19-.58-.55-.77-.84-.47-.91-1.09-.07-.55 1.24-1.52a1.21 1.2 58.9 0 0 .36-1.48l-1.07-2.3a1.04 1.04 0 0 0-.68-.56q-1.75-.48-3.13.51l-8.07.92a1.65 1.53 26.1 0 0-.63.19q-4.96 2.67-4.7 8.57.18.54-.2 1.09a1.27 1.25 13.4 0 1-.89.54q-.73.1-1.05.41a1.16 1.15 62.5 0 0-.33 1.07q.25 1.18.14 2.17l-1.67.68-.45-5.06a1.04.98-15.9 0 1 .58-.97q.3-.14.89-.13a.86.86 0 0 0 .84-.63q1-3.52-.67-5.94l-7.09-7.78a1.99 1.97 80.8 0 0-.66-.48q-2.7-1.21-4.31-3.32.03-.19.07-.33a.6.59-73.4 0 1 .79-.43l.6.23a.6.6 0 0 0 .82-.53q.48-11.76.65-17.74.03-.92-.89-1.13-.54-.12-.45-.8.02-.16-.02-.87-.19-3.68 1.41-5.68 1.5 2.04 1.91 3.51a.35.35 0 0 0 .62.1q1.49-2.21 2.93-1.57a.12.12 0 0 0 .15-.16l-.67-1.27a.67.53-83.7 0 0-.07-.11q-.53-.62-1.07-.09a.68.68 0 0 1-1.07-.14q-.3-.52-.3-1.77a.89.89 0 0 1 1.39-.74q.23.15.6.24a.62.62 0 0 0 .65-.97l-1.08-1.43a.98.9-67.1 0 1-.17-.48l-.3-7.28.02-2.77q-.14-1.61-1.73-3.18a1.72 1.7-68 0 1-.51-1.22l-.01-8.81q-.35-.81.19-2.08l4.19-5.04a.41.41 0 0 0-.18-.65q-.55-.18-1.53-.1.55-1.24.61-2.35 1.78-.15 2.41 1.13a.42.41 58.6 0 0 .61.15q4.63-3.3 7.31-8.87a.66.66 0 0 0-.33-.9q-1.04-.45-2.68-.12a.44.44 0 0 0-.02.86q1.4.35 1.1 2.25a1.02 1.02 0 0 1-1.92.31q-1.66-3.3-6.05-3.63.11-1.93 1.43-3.18 1.53 2.43 4.52 0l4.77 2.08q.4.26.85.1l2.66.08q1.55.35 2.33-.26.13-.04.26-.09l1-.07 3.25-.23.92.01q.6-.06.98.11l10.77-.42a.3.3 0 0 0 .12-.57l-.48-.24a.7.7 0 0 1-.36-.85q.27-.84.14-3.84c-.02-.54.44-.83.91-.92zm2.7 5.01q-.56.63-.6.7a.52.52 0 0 0 .29.73q.76.28 1.41-.46.65-.74.27-1.46a.52.52 0 0 0-.75-.19q-.07.05-.62.68zm-24.57 2.34q-.27-.05-.64.15a.29.28-51.8 0 0 .06.53q.12.03.61-.14a.28.28 0 0 0-.03-.54zm20.39 11.34l-.45-2.55a.64.64 0 0 0-1.08-.34q-1.14 1.13-1.64 3.27a1 1 0 0 0 1 1.22q1.34-.03 2.04-1.02a.75.74 58.1 0 0 .13-.58zm-.5 37.23q5.22 4.21 8.29-3.32a.47.47 0 0 0-.76-.51l-3.81 3.81a1 1 0 0 1-1.6-.27q-.84-1.72-1.07-4.51a.62.61.8 0 1 .68-.66l1.07.11a1.17 1.15 24.5 0 0 .96-.35q1.95-2.04 2.53-4.24a.6.6 0 0 1 1.06-.21l1.62 2.18a.34.34 0 0 0 .61-.24q-.23-2.12-1.79-4.66a.45.45 0 0 0-.74-.04q-1.03 1.36-3.81.76a.56.56 0 0 0-.68.6q.07.72.36.83a2.15 2.07 51.2 0 1-.36 4.07q-.08.01-.95.66a.43.43 0 0 1-.65-.17q-1.54-3.62.71-5.7a1.54 1.48-13.4 0 0 .41-.64q.25-.77.81-1.47a.47.47 0 0 0-.59-.7l-1.54.84-1.02.02a.52.52 0 0 1-.36-.91q2.81-2.5 7.02-1.26a2 1.91-19.7 0 1 .27.12l2.71 1.48a.38.38 0 0 0 .52-.51c-1.21-2.39-3.11-5.59-5.44-7.33q-2.18-1.63-2.63-2.11a1.27 1.26 24.3 0 1-.32-.84q.03-2.49.72-4.2a.98.98 0 0 0-.81-1.34l-1.69-.19a.99.99 0 0 0-1.09.97l-.08 3.18a1.18 1.16 72.6 0 1-.47.92l-.48.36a.81.81 0 0 1-1.29-.67l.09-3.53a1.55 1.54 85.8 0 0-1.8-1.56q-3.71.61-4.43-2.8a.51.51 0 0 0-.99-.02q-2.87 11.04-3.89 16.56c-1.08 5.8-.59 11.96-.36 20.14a.44.41 61.8 0 1-.06.22l-4.42 7.67a.95.93-71.6 0 1-.92.47l-5.7-.61a.24.24 0 0 0-.27.23l-.01.41a.39.39 0 0 0 .35.4l5.09.55a.84.84 0 0 1 .64.4c3.83 6.07 7.83 11.33 15.18 7.26q4.22-2.34 9.97-3.55.34-.07 1.93-1.47c1.23-1.08 1.69-3.49 2.59-4.81a.64.64 0 0 0-.07-.8q-3-3.15-7.08-5.59-1.23-.74-2.16-3.43zm-5.44-33.18q.04-.85-.11-1.27a.88.76-50.8 0 0-1.55.27q-.29 1.09 1.06 1.44a.49.48 8.4 0 0 .6-.44zm-25.01 26.4l1.97-6.25-.21-.07a2.65.74-72.5 0 0-1.5 2.3l-.38 1.21a2.65.74-72.5 0 0-.09 2.75l.21.06zm4.76-5.42q-.14 1.8-.12 1.86a.76.76 0 0 0 1.48-.19q.09-1.48-.74-1.99a.41.41 0 0 0-.62.32zm-2.53 7.97q-1.1-.67-1.73-.44a.41.41 0 0 0-.02.76q.59.26 1.63.18a.27.27 0 0 0 .12-.5zm1.55 11.49q.79 1.48.82 1.51a.66.66 0 0 0 1.14-.62q-.47-1.42-1.66-1.4a.35.34-15.2 0 0-.3.51zm23.47 19.95q-.7.13-1.36-.08-.31-.17-.69-.17a.83.83 0 0 0-.83.78q-.09 1.55.75 3.12a1.06 1.06 0 0 0 1.03.56c1.53-.12 2.7-1.07 4.63-.99q1.81.08 2.5.56a.9.89 14.6 0 0 1.4-.82l-.6-6.28a.57.56-68.7 0 0-.13-.3q-.32-.38-.55-.41a1.18 1.06-23.6 0 0-.91 2q.3.18.58.52a.84.84 0 0 1-.62 1.37l-5.2.14zm21.609 5.091a2.48.85-129.3 0 0 .913 2.457 2.48.85-129.3 0 0 2.229 1.381 2.48.85-129.3 0 0-.913-2.457 2.48.85-129.3 0 0-2.229-1.381z" class="F"/><path d="M366.78 9.31q-1.36-.24-1.35.75-2.14-.6-2.54 1.56-.54 2.96.24 5.38a.51.5-14.8 0 1-.38.64q-.29.07-1.18 0-1.09-.08-1.54.3-.6.5-.31 1.6-.77-.44-.66-1.97a.36.36 0 0 0-.53-.34q-.5.27-1.03 1.41a1.46 1.43 50.7 0 0-.09 1q.69 2.43.2 4.91a.74.74 0 0 1-1.31.3l-.99-1.33a.52.51-39.2 0 0-.75-.07c-1.26 1.1-1.78 2.18-3.82 1.39a.94.92 9.2 0 1-.59-.8q-.23-3.34 1.64-5.9a.61.61 0 0 0-.28-.93l-.64-.25a1.04 1.04 0 0 1-.54-1.48q1.16-2.06.5-5-.06-.3.09-.92.16-.66.32-.84 4.61 1.61 9.58-.3 2.55-.45 5.96.89z" class="D"/><path d="M347.84 10.64q-.65.74-1.41.46a.52.52 0 0 1-.29-.73q.04-.07.6-.7.55-.63.62-.68a.52.52 0 0 1 .75.19q.38.72-.27 1.46zm-31.92-.87q-2.99 2.43-4.52 0 1.67-1.1 4.52 0z" class="C"/><path d="M365.43 10.06q.62.63.56 1.19-.34 3.61-.44 7.21a.81.8 89.2 0 1-.76.79l-5.07.29q-.29-1.1.31-1.6.45-.38 1.54-.3.89.07 1.18 0a.51.5-14.8 0 0 .38-.64q-.78-2.42-.24-5.38.4-2.16 2.54-1.56z" class="B"/><path d="M331.96 11.39l-.92-.01.92.01zm-4.17.22l-1 .07 1-.07z" class="C"/><path d="M321.54 11.85q0 .05 0 .1-.45.16-.85-.1.42-.09.85 0z" class="B"/><path d="M324.21 11.82q0 .11-.01.21l-2.66-.08q0-.05 0-.1l2.67-.03z" class="C"/><path d="M326.53 11.77q-.78.61-2.33.26.01-.1.01-.21l2.32-.05z" class="B"/><path d="M322.2 12.55q-.49.17-.61.14a.29.28-51.8 0 1-.06-.53q.37-.2.64-.15a.28.28 0 0 1 .03.54zm-12.66 9.22l.43-8.82q4.39.33 6.05 3.63a1.02 1.02 0 0 0 1.92-.31q.3-1.9-1.1-2.25a.44.44 0 0 1 .02-.86q1.64-.33 2.68.12a.66.66 0 0 1 .33.9q-2.68 5.57-7.31 8.87a.42.41 58.6 0 1-.61-.15q-.63-1.28-2.41-1.13zm65.35-7.82v1.34q-.52-1.05 0-1.34zm24.89 2.07l-2.08-.49q1.14-.49 2.08.49zm-57.35 7.91q-.7.99-2.04 1.02a1 1 0 0 1-1-1.22q.5-2.14 1.64-3.27a.64.64 0 0 1 1.08.34l.45 2.55a.75.74 58.1 0 1-.13.58zm-33.5.19q.98-.08 1.53.1a.41.41 0 0 1 .18.65l-4.19 5.04-2.58-.27 5.06-5.52zm33.89 22.63q-6.43 4.29-4.95 11.55.47 2.28 4.19 2.28.93 2.69 2.16 3.43 4.08 2.44 7.08 5.59a.64.64 0 0 1 .07.8c-.9 1.32-1.36 3.73-2.59 4.81q-1.59 1.4-1.93 1.47-5.75 1.21-9.97 3.55c-7.35 4.07-11.35-1.19-15.18-7.26a.84.84 0 0 0-.64-.4l-5.09-.55a.39.39 0 0 1-.35-.4l.01-.41a.24.24 0 0 1 .27-.23l5.7.61a.95.93-71.6 0 0 .92-.47l4.42-7.67a.44.41 61.8 0 0 .06-.22c-.23-8.18-.72-14.34.36-20.14q1.02-5.52 3.89-16.56a.51.51 0 0 1 .99.02q.72 3.41 4.43 2.8a1.55 1.54 85.8 0 1 1.8 1.56l-.09 3.53a.81.81 0 0 0 1.29.67l.48-.36a1.18 1.16 72.6 0 0 .47-.92l.08-3.18a.99.99 0 0 1 1.09-.97l1.69.19a.98.98 0 0 1 .81 1.34q-.69 1.71-.72 4.2a1.27 1.26 24.3 0 0 .32.84q.45.48 2.63 2.11c2.33 1.74 4.23 4.94 5.44 7.33a.38.38 0 0 1-.52.51l-2.71-1.48a2 1.91-19.7 0 0-.27-.12q-4.21-1.24-7.02 1.26a.52.52 0 0 0 .36.91l1.02-.02z" class="C"/><path d="M336.62 27.4a.49.48 8.4 0 1-.6.44q-1.35-.35-1.06-1.44a.88.76-50.8 0 1 1.55-.27q.15.42.11 1.27z" class="D"/><path d="M453.66 27.79q-.24.22-1.14.06.59-.42 1.14-.06z" class="G"/><path d="M303.87 29.64l2.58.27q-.54 1.27-.19 2.08-1.33-.43-3.12-.14.16-1.23.73-2.21z" class="D"/><path d="M303.14 31.85q1.79-.29 3.12.14l.01 8.81a1.72 1.7-68 0 0 .51 1.22q1.59 1.57 1.73 3.18-1.46-1.07-3.22 2.67-.05-2.31.73-3.85a1.55 1.54 34.3 0 0-.36-1.87l-2.03-1.78a1.21 1.19 20.6 0 1-.4-.87l-.09-7.65z" class="C"/><path d="M378.49 49.98l-3.14.47a.18.17-73.3 0 1-.15-.29q.87-1 .93-2.14.19-3.64.67-5.81c1.52 2.41 1.12 5.12 1.69 7.77z" class="B"/><path d="M308.51 45.2l-.02 2.77q-1.3 1.98-3.08 2.25-.52-.16-.43-.41-.05-1.28.31-1.94 1.76-3.74 3.22-2.67z" class="D"/><path d="M342.06 60.58q-3.72 0-4.19-2.28-1.48-7.26 4.95-11.55l1.54-.84a.47.47 0 0 1 .59.7q-.56.7-.81 1.47a1.54 1.48-13.4 0 1-.41.64q-2.25 2.08-.71 5.7a.43.43 0 0 0 .65.17q.87-.65.95-.66a2.15 2.07 51.2 0 0 .36-4.07q-.29-.11-.36-.83a.56.56 0 0 1 .68-.6q2.78.6 3.81-.76a.45.45 0 0 1 .74.04q1.56 2.54 1.79 4.66a.34.34 0 0 1-.61.24l-1.62-2.18a.6.6 0 0 0-1.06.21q-.58 2.2-2.53 4.24a1.17 1.15 24.5 0 1-.96.35l-1.07-.11a.62.61.8 0 0-.68.66q.23 2.79 1.07 4.51a1 1 0 0 0 1.6.27l3.81-3.81a.47.47 0 0 1 .76.51q-3.07 7.53-8.29 3.32z" class="B"/><path d="M222.14 46.69q-2.44 4.19-7.45 4.45-16.27.85-26.33 1.72-1.36.12-5.95 1.04a.32.32 0 0 0-.02.63q3.61.94 8.51.88c9.54-.12 21.18-1.73 32.05-.62q5.11.53 13.23 3.31 3.28 1.12 14.68 4.9 4.45 1.48 8.7 1.56 5.99.12 11.93-.94l30.72 10.07-.52 12.74a1.1 1.04 37.2 0 0 .07.43l.23.55q1.61 2.11 4.31 3.32a1.99 1.97 80.8 0 1 .66.48l7.09 7.78q-.14 1.08-.59 1.01-.89-.12-.9 2.51a.88.87 0 0 1-.88.87c-4.68-.03-2.68-5.4-6.9-5.68a.27.27 0 0 1-.22-.4l.24-.41a.47.46 11.5 0 0-.46-.69l-14.17 1.79a.57.56 87.1 0 0-.49.55l-.12 5.13a.63.62 11.7 0 1-.86.56q-41.5-16.84-57.16-23.16-16.48-6.65-33.11-13.02c-8.32-3.18-17.15-6.94-25.75-10.31a1.87 1.79 18.8 0 1-1.13-2.18q.65-2.34-1.6-4.68 13.04-.81 25.92-1.86 1.37-.11 13.1-1.59 6.64-.85 13.17-.74z" class="E"/><path d="M271.49 63.62q-5.94 1.06-11.93.94-4.25-.08-8.7-1.56-11.4-3.78-14.68-4.9-8.12-2.78-13.23-3.31c-10.87-1.11-22.51.5-32.05.62q-4.9.06-8.51-.88a.32.32 0 0 1 .02-.63q4.59-.92 5.95-1.04 10.06-.87 26.33-1.72 5.01-.26 7.45-4.45l49.35 16.93z" class="G"/><path d="M311.61 53.8l-.21-.06a2.65.74-72.5 0 1 .09-2.75l.38-1.21a2.65.74-72.5 0 1 1.5-2.3l.21.07-1.97 6.25z" class="C"/><path d="M308.49 47.97l.3 7.28a.98.9-67.1 0 0 .17.48l1.08 1.43a.62.62 0 0 1-.65.97q-.37-.09-.6-.24a.89.89 0 0 0-1.39.74q0 1.25.3 1.77a.68.68 0 0 0 1.07.14q.54-.53 1.07.09a.67.53-83.7 0 1 .07.11l.67 1.27a.12.12 0 0 1-.15.16q-1.44-.64-2.93 1.57a.35.35 0 0 1-.62-.1q-.41-1.47-1.91-3.51-.52-4.61.44-9.91 1.78-.27 3.08-2.25z" class="B"/><path d="M316.99 48.06q.83.51.74 1.99a.76.76 0 0 1-1.48.19q-.02-.06.12-1.86a.41.41 0 0 1 .62-.32z" class="D"/><path d="M304.98 49.81q-.09.25.43.41-.96 5.3-.44 9.91-1.6 2-1.41 5.68.04.71.02.87-.09.68.45.8.92.21.89 1.13-.17 5.98-.65 17.74a.6.6 0 0 1-.82.53l-.6-.23a.6.59-73.4 0 0-.79.43q-.04.14-.07.33l-.23-.55a1.1 1.04 37.2 0 1-.07-.43l.52-12.74.81-17.64a3.13 2.88 57.9 0 1 .15-.81l1.81-5.43zm-135.03 1.07q2.25 2.34 1.6 4.68a1.87 1.79 18.8 0 0 1.13 2.18l25.75 10.31q16.63 6.37 33.11 13.02 15.66 6.32 57.16 23.16a.63.62 11.7 0 0 .86-.56l.12-5.13a.57.56 87.1 0 1 .49-.55l14.17-1.79a.47.46 11.5 0 1 .46.69l-.24.41a.27.27 0 0 0 .22.4c4.22.28 2.22 5.65 6.9 5.68a.88.87 0 0 0 .88-.87q.01-2.63.9-2.51.45.07.59-1.01 1.67 2.42.67 5.94a.86.86 0 0 1-.84.63q-.59-.01-.89.13a1.04.98-15.9 0 0-.58.97l.45 5.06q-.92.64-1.56 2.08.09-1.92-4.21-2.67a1.19 1.19 0 0 0-1.24 1.78q.51.86 1.12 1.2-.87.42-1.49 1.12a1.39 1.39 0 0 1-1.66.34l-2.66-1.31a1.25 1.22 52.1 0 0-.79-.11l-1.11.2a.58.58 0 0 1-.68-.59q.06-1.68-1.84-1.42-.04.01-.1.02a.04.03 44.8 0 0 .01.06q.23.08 1.02.34a.64.62-87.1 0 1 .43.49q.11.66-.01 1.02a.65.65 0 0 1-.84.4q-.4-.15-.74-.74a.32.32 0 0 0-.59.09q-.1.42-.12.46-.44.76-1.51.74a.66.65-78.9 0 1-.59-.89l1.01-2.64a.8.8 0 0 0-.25-.9q-1.82-1.44-3.93-.85a1.04 1.03 88.5 0 0-.71.75q-.11.5-.18 1.25a.79.74-74.6 0 1-1.09.66q-1.2-.61-1.12-2.3.05-1.23-.81-1.35a.44.43 17.8 0 1-.33-.63q.05-.11.06-.13a.6.59 14.4 0 0-.38-.63l-22.42-8.57a1.11 1.11 0 0 0-.88.04l-.31.14a.39.39 0 0 1-.6-.36q.05-.71-.08-1.18a.032.021-54.1 0 0-.05.01q-.19 2.21-1.23 3.67a1.4 1.4 0 0 1-2.54-.85l.1-4.06a.91.9 8 0 0-.69-.9q-4.54-1.16-6.3-2.03-.69-.34-15.86-6.43a1.13 1.12-68.1 0 0-1.46.63q-.51 1.31-.71 1.38-.97.36-1.37-.84-.23-.66.12-1.51a.89.87 40 0 0-.08-.79q-1.06-1.62-2.69-1.79a2.56 2.49-25.8 0 1-1.02-.34q-3.59-2.11-8.51-3.52a5.87 5.81 65.9 0 1-.93-.36q-4.42-2.21-6.05-2.64-.5-.14-2.18.3a.36.35-6.3 0 1-.44-.35l.02-.89a.74.72-79.3 0 0-.47-.7l-4.82-1.84a.45.45 0 0 1-.26-.57q.15-.4.08-.82-.08-.48-.95-.83-18.19-7.33-36.22-14.87c.64-1.88.69-5.12 2.78-5.81z" class="C"/><path d="M379.24 51.73q.09 1.25-1.45 2.3-.57-.7-.31-1.29.37-.81 1.76-1.01z" class="B"/><path d="M376.69 55.61q.11.25-.18.54-1.81.32-2.76-1.06a.52.52 0 0 1 .34-.81q1.61-.25 2.6 1.33zm-62.97 1.24q-1.04.08-1.63-.18a.41.41 0 0 1 .02-.76q.63-.23 1.73.44a.27.27 0 0 1-.12.5z" class="C"/><path d="M167.17 56.69q18.03 7.54 36.22 14.87.87.35.95.83.07.42-.08.82a.45.45 0 0 0 .26.57l4.82 1.84a.74.72-79.3 0 1 .47.7l-.02.89a.36.35-6.3 0 0 .44.35q1.68-.44 2.18-.3 1.63.43 6.05 2.64a5.87 5.81 65.9 0 0 .93.36q4.92 1.41 8.51 3.52a2.56 2.49-25.8 0 0 1.02.34q1.63.17 2.69 1.79a.89.87 40 0 1 .08.79q-.35.85-.12 1.51.4 1.2 1.37.84.2-.07.71-1.38a1.13 1.12-68.1 0 1 1.46-.63q15.17 6.09 15.86 6.43 1.76.87 6.3 2.03a.91.9 8 0 1 .69.9l-.1 4.06a1.4 1.4 0 0 0 2.54.85q1.04-1.46 1.23-3.67a.03.02-54.1 0 1 .05-.01q.13.47.08 1.18a.39.39 0 0 0 .6.36l.31-.14a1.11 1.11 0 0 1 .88-.04l22.42 8.57a.6.59 14.4 0 1 .38.63q-.01.02-.06.13a.44.43 17.8 0 0 .33.63q.86.12.81 1.35-.08 1.69 1.12 2.3a.79.74-74.6 0 0 1.09-.66q.07-.75.18-1.25a1.04 1.03 88.5 0 1 .71-.75q2.11-.59 3.93.85a.8.8 0 0 1 .25.9l-1.01 2.64a.66.65-78.9 0 0 .59.89q1.07.02 1.51-.74.02-.04.12-.46a.32.32 0 0 1 .59-.09q.34.59.74.74a.65.65 0 0 0 .84-.4q.12-.36.01-1.02a.64.62-87.1 0 0-.43-.49q-.79-.26-1.02-.34a.04.03 44.8 0 1-.01-.06q.06-.01.1-.02 1.9-.26 1.84 1.42a.58.58 0 0 0 .68.59l1.11-.2a1.25 1.22 52.1 0 1 .79.11l2.66 1.31a1.39 1.39 0 0 0 1.66-.34q.62-.7 1.49-1.12l.88.55q-2.69 1.4-2.9 2.55-.25 1.43-.08 3.86a.64.63.6 0 0 .58.58q1.45.12 2.5-.62a1.09 1.09 0 0 0 .46-.85q.09-3.51 1.37-5.3l1.52-1.08q.64-1.44 1.56-2.08l1.67-.68q1.99-1.18 4.6-1.22a1.27 1.25 23.9 0 0 .79-.3q.7-.6.51-1.27a1.31 1.1-8.8 0 1 1.24-1.41q4.81-.33 8.9-1.17a.7.7 0 0 0 .56-.77l-.04-.32a.55.55 0 0 0-.61-.47l-13.62 1.65q-.26-5.9 4.7-8.57a1.65 1.53 26.1 0 1 .63-.19l8.07-.92q.88-.19 1.63-.12a.65.65 0 0 1 .58.56l.75 5.95a.56.5 20.9 0 0 .17.33c1.32 1.28-.24 3.14 1.78 4.22l.31.51-4.04-.13a.17.17 0 0 0-.17.19q.04.33-.26.39a.21.2 79 0 1-.24-.17l-.05-.3a.48.47 70.7 0 0-.69-.34q-2.88 1.54-6.28.7a.7.7 0 0 0-.65 1.18l.37.36a.16.16 0 0 1-.11.27q-.26 0-.31.01a.66.66 0 0 0-.5.83c1.38 4.59 2.99 10.42 2.05 15.03a.85.85 0 0 1-.58.64q-11.96 3.79-15.89 16.1a4.42 4.41 54.9 0 0-.21 1.21l-.36 11.36a.3.3 0 0 1-.04.15q-1.69 2.73-3.24 3.33-4.29 1.67-7.38 3.48a1.2 1.18-12.1 0 0-.58.88c-.39 3.36-.75 6.69-.13 9.83q.32 1.62-.55 2.85a1.63 1.61 63.1 0 0-.3.94q-.04 3.83.27 9.95.11 2.24-2.16 3.95.02-1.01-1.97-1.9.43-.21.4-.41-.08-.66-.68-.89-3.54-1.34-6.47-3.24c-4.49-2.9-6.39-3.84-11.83-7.17a4.77 4.41 67.3 0 0-.94-.43q-2.82-.97-5.7-3.34-.48-.39-1.19.13.07-.33.27-.41.69-1.21.07-2.56-1.93-4.22-2.18-6.08a.39.39 0 0 0-.44-.34l-.29.04a.49.48 81.5 0 0-.41.57l.75 4.23a.79.79 0 0 1-1.39.65q-1.06-1.25-2.01-2.08-.34-.29-.58-.28-.62.02-.76-.45a.62.57 47.4 0 1 0-.37q.47-1.46.25-3.13a1.54 1.51-19.6 0 0-2.32-1.08q-1.74 1.06-2.42 4.28a.29.29 0 0 1-.55.05q-.08-.2.01-.67a.65.64 12.4 0 0-.48-.74l-4.07-1.07a1.33 1.31 79.1 0 1-.74-.51q-.65-.91-2.08-1.69-1.67-.92-11.86-6a.35.35 0 0 0-.51.31q0 .17-.05.22a.26.26 0 0 1-.38.01c-2.26-2.34-6.25-1.59-9.4-1.48q-1.45-3.13-5.26-4.03-.75-.17-1.1-1.26a.82.82 0 0 0-.67-.56l-1.91-.23q.73.06 1.2-.21a.67.67 0 0 0-.06-1.18q-2.22-1.01-4.6.23-.21.07-.48.01a.2.2 0 0 1 .02-.39l4.18-.53a.2.2 0 0 0 .09-.37q-1.21-.76-3.91-1.71a5.42 5.33-15.3 0 1-1.7-.95q-4.23-3.49-9.32-5.54-1.58-.29-2.91-1.79a1.81 1.72 77.5 0 0-.74-.5q-2.6-.92-5.06-.72a1.99 1.96-37.8 0 1-.76-.09l-2.03-.66a.92.91 13.2 0 1-.63-1l.01-.05a1.09 1.04 7.1 0 1 1.06-.79l2.1.03q1.25.77 2.47.84a.46.46 0 0 0 .49-.51q-.41-3.62-2.41-7.04a.98.98 0 0 0-1.81.33q-.03.13-.64.96l-1.04 1.07a1.19 1.17 18.1 0 1-.71.35l-4.63.59a.98.97-22.6 0 1-.89-.36c-2.02-2.55-5.36-3.91-8.41-5.07q-.6-.23-2.96-2.04-3.04-2.33-8.72-1.54 2.64-.79 2.96-1.96a.75.73 44.2 0 0-.01-.36q-1.1-3.99-.75-8.57l47.2 24.92a.88.87 30 0 0 1.15-.3q.88-1.39.84-3.41-.24-10.76-.59-32.22-.04-2.24-2.09-4.45a1.65 1.59-8.3 0 0-.49-.35l-45.82-20.62a3.01 3.01 0 0 1-1.77-2.74l-.01-4.64q.12-1.31.83-2.53c.99-1.69.66-2.58 1.09-4.15a1.07 1.07 0 0 1 .61-.69l2.26-.92zm1.597 2.393a1.17.9-45 0 0-1.464.191 1.17.9-45 0 0-.191 1.464 1.17.9-45 0 0 1.464-.191 1.17.9-45 0 0 .191-1.464zm2.742 1.337a1.1.6-91.1 0 0-.579 1.111 1.1.6-91.1 0 0 .621 1.088 1.1.6-91.1 0 0 .579-1.111 1.1.6-91.1 0 0-.621-1.088zm11.537 4.728a1.36 1.01-40.4 0 0-1.69.112 1.36 1.01-40.4 0 0-.381 1.651 1.36 1.01-40.4 0 0 1.69-.112 1.36 1.01-40.4 0 0 .381-1.651zm1.464 1.091q-.2 1.42.25 2.04a.76.76 0 0 0 .91.24q1.32-.57 1.74.65a.49.49 0 0 0 .88.09c.45-.74.35-1.75-.55-2.14q-.59-.25-2.53-1.24a.48.48 0 0 0-.7.36zm17.908 6.795a1.35 1.13-98.6 0 0-.915 1.504 1.35 1.13-98.6 0 0 1.319 1.166 1.35 1.13-98.6 0 0 .915-1.504 1.35 1.13-98.6 0 0-1.319-1.166zm125.39 28.593a.72.72 0 0 0-.881-.511l-4.039 1.075a.72.72 0 0 0-.511.881l.015.058a.72.72 0 0 0 .881.511l4.039-1.075a.72.72 0 0 0 .511-.881l-.015-.058zM283.94 172.89l4.15 1.53a.87.87 0 0 0 1.17-.79l1.02-43.08a1.39 1.39 0 0 0-.74-1.26l-4.12-2.17-49.91-22.87a1.79 1.78-68.5 0 0-2.43 1.06l-.43 1.29a1.11.89-40.9 0 0-.03.14q-.06 14.48.32 34.56.08 4.29 4.82 6.92 22.89 12.73 46.18 24.67zm-62.8-53.339a2.11.95-91.9 0 0-.879 2.14 2.11.95-91.9 0 0 1.019 2.077 2.11.95-91.9 0 0 .88-2.14 2.11.95-91.9 0 0-1.02-2.077zm81.4 1.366a5.1.92-56.7 0 0-3.569 3.757 5.1.92-56.7 0 0-2.031 4.768 5.1.92-56.7 0 0 3.569-3.757 5.1.92-56.7 0 0 2.031-4.768z" class="B"/><g class="C"><ellipse cx="0" cy="0" transform="matrix(.707107 -.707107 .707107 .707107 167.94 59.91)" rx="1.17" ry=".9"/><ellipse cx="0" cy="0" transform="matrix(-.019197 -.999816 .999816 -.019197 171.53 61.52)" rx="1.1" ry=".6"/></g><path fill="#f1f2ee" d="M163.96 108.79q.54-5.45-2.38-10.83-1.93-4.68-2.47-8.34-1-6.72.48-14.66l2.79-9.98.01 4.64a3.01 3.01 0 0 0 1.77 2.74l45.82 20.62a1.65 1.59-8.3 0 1 .49.35q2.05 2.21 2.09 4.45.35 21.46.59 32.22.04 2.02-.84 3.41a.88.87 30 0 1-1.15.3l-47.2-24.92zm3.25-9.41q1.6-.84 1.8-2.2a.4.4 0 0 1 .73-.16q1.94 2.88 2.1 4.18.32 2.71 1.41 6.61a.21.21 0 0 0 .41-.06q-.05-2.02-1.21-4.19a1.21 1.19-50.3 0 1-.08-.94l.26-.78a1.29 1.27-40.8 0 0 .05-.61l-2.27-12.72a.41.41 0 0 0-.67-.24q-.92.79-.82 2.54a.4.39-8.2 0 1-.32.42l-.33.05a.49.48-2.8 0 1-.57-.51q.21-2.82 1.91-4.62a1.14 1.12 61.7 0 0 .28-.97l-.99-5.56a.37.37 0 0 0-.74.02q-.71 5.72-1.79 10.61a1.24 1.22 12.1 0 0 .97 1.47q.93.18 1.41 1.04a.9.88 40.6 0 1 .06.7l-1.89 5.67a.21.21 0 0 0 .29.25zm7.96-12.4a.32.32 0 0 0-.52.31q.42 1.71 2.17 2.43 3.74 1.53 9.33 4.55c3.19 1.71 6.16 2 8.72 4.19a.34.34 0 0 0 .55-.32l-.19-1.05a.46.45-82.6 0 0-.26-.34q-15.19-6.84-17.77-8.22-.77-.42-2.03-1.55zm-.34 4.99l-.12.24a.7.7 0 0 0 .33.94q6.26 2.94 11.24 5.48c1.37.7 2.72.51 3.75 1.48 2.16 2.03 6.79 3.42 8.22 4.44a.27.26-58.9 0 0 .39-.1l.19-.38a.68.67-64.4 0 0-.31-.9L175.34 91.8a.38.38 0 0 0-.51.17zm22.59 15.807a.56.56 0 0 0-.251-.751l-21.801-10.869a.56.56 0 0 0-.751.251l-.018.036a.56.56 0 0 0 .251.751l21.801 10.869a.56.56 0 0 0 .751-.251l.018-.036zm-6.549 3.365a.75.75 0 0 0-.329-1.008l-14.786-7.501a.75.75 0 0 0-1.008.33l-.018.036a.75.75 0 0 0 .33 1.008l14.786 7.501a.75.75 0 0 0 1.008-.33l.018-.036z"/><g class="C"><ellipse cx="0" cy="0" transform="matrix(.761538 -.64812 .64812 .761538 182.01 66.03)" rx="1.36" ry="1.01"/><path d="M185.21 65.88q1.94.99 2.53 1.24c.9.39 1 1.4.55 2.14a.49.49 0 0 1-.88-.09q-.42-1.22-1.74-.65a.76.76 0 0 1-.91-.24q-.45-.62-.25-2.04a.48.48 0 0 1 .7-.36zm130.48 1.45q1.19-.02 1.66 1.4a.66.66 0 0 1-1.14.62q-.03-.03-.82-1.51a.35.34-15.2 0 1 .3-.51z"/><ellipse cx="0" cy="0" transform="matrix(-.149535 -.988756 .988756 -.149535 202.62 74.37)" rx="1.35" ry="1.13"/><path d="M159.59 74.96q-1.48 7.94-.48 14.66.54 3.66 2.47 8.34c-6.82-6.2-5.41-15.34-1.99-23zm7.62 24.42a.21.21 0 0 1-.29-.25l1.89-5.67a.9.88 40.6 0 0-.06-.7q-.48-.86-1.41-1.04a1.24 1.22 12.1 0 1-.97-1.47q1.08-4.89 1.79-10.61a.37.37 0 0 1 .74-.02l.99 5.56a1.14 1.12 61.7 0 1-.28.97q-1.7 1.8-1.91 4.62a.49.48-2.8 0 0 .57.51l.33-.05a.4.39-8.2 0 0 .32-.42q-.1-1.75.82-2.54a.41.41 0 0 1 .67.24l2.27 12.72a1.29 1.27-40.8 0 1-.05.61l-.26.78a1.21 1.19-50.3 0 0 .08.94q1.16 2.17 1.21 4.19a.21.21 0 0 1-.41.06q-1.09-3.9-1.41-6.61-.16-1.3-2.1-4.18a.4.4 0 0 0-.73.16q-.2 1.36-1.8 2.2z"/></g><path d="M337.5 87.71q-1.24.93-.27 2.76a.54.54 0 0 0 .7.24q3.18-1.45.93-2.92l5.2-.14a.84.84 0 0 0 .62-1.37q-.28-.34-.58-.52a1.18 1.06-23.6 0 1 .91-2q.23.03.55.41a.57.56-68.7 0 1 .13.3l.6 6.28a.9.89 14.6 0 1-1.4.82q-.69-.48-2.5-.56c-1.93-.08-3.1.87-4.63.99a1.06 1.06 0 0 1-1.03-.56q-.84-1.57-.75-3.12a.83.83 0 0 1 .83-.78q.38 0 .69.17z" class="D"/><g class="C"><path d="M175.17 86.98q1.26 1.13 2.03 1.55 2.58 1.38 17.77 8.22a.46.45-82.6 0 1 .26.34l.19 1.05a.34.34 0 0 1-.55.32c-2.56-2.19-5.53-2.48-8.72-4.19q-5.59-3.02-9.33-4.55-1.75-.72-2.17-2.43a.32.32 0 0 1 .52-.31zm163.69.81q2.25 1.47-.93 2.92a.54.54 0 0 1-.7-.24q-.97-1.83.27-2.76.66.21 1.36.08zM175.34 91.8l23.18 11.37a.68.67-64.4 0 1 .31.9l-.19.38a.27.26-58.9 0 1-.39.1c-1.43-1.02-6.06-2.41-8.22-4.44-1.03-.97-2.38-.78-3.75-1.48q-4.98-2.54-11.24-5.48a.7.7 0 0 1-.33-.94l.12-.24a.38.38 0 0 1 .51-.17z"/><ellipse cx="0" cy="0" transform="matrix(-.633381 -.77384 .77384 -.633381 362.04 94.8)" rx="2.48" ry=".85"/><path d="M369.16 102.84c2.11.51 5.41 1.27 6.12 3.68q-.66.14-.87.66.01-2.43-2.52-2.28a.45.45 0 0 0-.42.44l-.16 6.17-1.27.07a.72.72 0 0 0-.68.81l.2 1.61a.98.97 85.1 0 0 1 .85l5.24-.17a.77.75 31.4 0 0 .34-.08q2.39-1.2 4.53-.45a.36.35 55 0 1-.12.69q-2.53-.03-3.92 1.18a1.03 1.02-63.2 0 1-.71.24l-5.97-.3a.65.64-86.5 0 0-.68.61l-.56 11.04a.48.48 0 0 0 .36.49l12.47 3.27a.2.19-80.9 0 1 .14.2v.33a.1.08-89.3 0 1-.07.08l-5.37.48a.22.2 20.8 0 0-.15.06q-1.08.99-5.07 1.03a.62.62 0 0 1-.63-.61q-.02-2.42-1.4-1.68a1.24 1.24 0 0 0-.65 1.02l-2.17 42.22a.87.87 0 0 0 1.19.85q2.02-.8 2.81.17a.67.67 0 0 1-.75 1.05l-2.1-.8a.95.9-41.5 0 0-.62-.02q-.68.2-.89.52a.56.56 0 0 0 .21.81q2.61 1.34 4.35 1.57-.05 2.11-.19 3.68-.19 2.2-1.42 2.78-1.28.61-3.26-.07c1.57-.95 1.73-4.3-.59-4.67q-2.44-.39-3.91-.76-.79-.2-1.85.95a.28.28 0 0 0 .22.47q.74-.03.94 1.08c.19 1.07-.64 2.31-1.1 2.97a.62.62 0 0 0 .85.87q.75-.49 1.55-1.58a1.05 1.03-70.2 0 1 .87-.42q1.51.06 1.85.91l-5.29 4.06a6.83 6.79-69.3 0 1-2.84 1.29q-12.86 2.52-26.18 5.55-3.48.79-10.15 4.42-.2-1.24-.91-1.73-.63-.44-1.91.04-1.74.65-3.57 1.24-.73.21-1.69.12h-1.26c-3.1.27-6.89 1.61-9.76-.18-2.99-1.87-6.06-3.57-9.1-5.39 1.84-1.05 3.93-.14 4.57-2.88a.69.66-16.2 0 0-1.15-.6q-.74.7-1.52.82-.52.08-.45-.58.05-.42.33-.82 2.27-1.71 2.16-3.95-.31-6.12-.27-9.95a1.63 1.61 63.1 0 1 .3-.94q.87-1.23.55-2.85c-.62-3.14-.26-6.47.13-9.83a1.2 1.18-12.1 0 1 .58-.88q3.09-1.81 7.38-3.48 1.55-.6 3.24-3.33a.3.3 0 0 0 .04-.15l.36-11.36a4.42 4.41 54.9 0 1 .21-1.21q3.93-12.31 15.89-16.1a.85.85 0 0 0 .58-.64c.94-4.61-.67-10.44-2.05-15.03a.66.66 0 0 1 .5-.83q.05-.01.31-.01a.16.16 0 0 0 .11-.27l-.37-.36a.7.7 0 0 1 .65-1.18q3.4.84 6.28-.7a.48.47 70.7 0 1 .69.34l.05.3a.21.2 79 0 0 .24.17q.3-.06.26-.39a.17.17 0 0 1 .17-.19l4.04.13q.65.57 1.55 1.01.98.48.89.98-.06.36-.44.91a.66.65 40.5 0 0 .07.83q.49.51 1.57 1.15 1.17.69 2.04-.48.63-.86.77-2.25-.33-1 .67-1.05a.78.74-80.4 0 1 .71 1.06q-.42 1.09-.17 2.58a1.01.98 22.5 0 0 .18.42l4.04 5.41a6.67 6.65-73.4 0 1 .9 1.67q3.61 9.82 3.7 11.53.87 16.67-8.06 31.48a6.38 6.24-8.1 0 1-.93 1.21c-2.35 2.41-4.53 5.52-6.94 7.74q-10.56 9.7-25.52 8.94c-2.07-.11-4.23-1.16-6.34-1.11a.33.33 0 0 0-.25.54l.72.88a1.27 1.19-1.8 0 0 .34.3q9.99 6 22.07 2.41a.07.07 0 0 0 .05-.08v-.01a.13.12 83.7 0 0-.14-.12l-3.73.46a.31.31 0 0 1-.17-.58q4.17-2 6.94-3.06 3.97-1.53 6.63-3.61 6.8-5.31 9.19-8.8 12.9-18.86 8.74-40.66-.87-4.51-2.61-7.62-1.95-3.47-4.78-6.56a.5.5 0 0 1 .62-.77q2.05 1.2 3.51 3.39 3.6 5.4 5.75 11.5a.34.33 32.7 0 0 .65-.14c-.78-8.26-7.77-17.01-15.08-20.3q-1.4-.63-2.92-1.59c3.17-.54 4.63-2.48 6.9-4.31a1.73 1.73 0 0 1 .94-.39q.77-.07 1.74-.56a1.08 1.07-7.4 0 0 .56-.72q.59-2.54 3.2-4.97a.59.59 0 0 1 .82.02q3.64 3.73 3.67 8.16a.54.54 0 0 0 .67.52q.42-.1.92-.55a1.06 1.05 40.4 0 1 1.28-.1l.09.06a.69.68 38.2 0 1 .13 1.04q-1.4 1.5-.97 3.62a1.11 1.11 0 0 0 .69.82l3.31 1.27a.47.47 0 0 0 .63-.39q.53-4.22 4.88-5.82zm-10.54 37.12q-.12 2.38-.08 4.8.09 6.99-.05 8.74-.11 1.35.4 2.58a.27.27 0 0 0 .49.01c2.27-4.9 1.03-10.71 1.28-16.03s2.05-10.99.26-16.09a.27.27 0 0 0-.49-.03q-.63 1.18-.65 2.53-.03 1.76-.79 8.71-.26 2.4-.37 4.78zm-25.496-12.09a20.11 15.42-66.7 0 0-22.117 12.371 20.11 15.42-66.7 0 0 6.208 24.569 20.11 15.42-66.7 0 0 22.117-12.371 20.11 15.42-66.7 0 0-6.208-24.569zm2.046-20.85c-2.02-1.08-.46-2.94-1.78-4.22a.56.5 20.9 0 1-.17-.33l-.75-5.95a.65.65 0 0 0-.58-.56q-.75-.07-1.63.12 1.38-.99 3.13-.51a1.04 1.04 0 0 1 .68.56l1.07 2.3a1.21 1.2 58.9 0 1-.36 1.48q-1.31.97-1.24 1.52.07.62.91 1.09.36.19.55.77.1.32-.03.92-.34 1.45.2 2.81z"/><rect x="-12.74" y="-.58" transform="matrix(.894934 .446198 -.446198 .894934 186.01 102.11)" width="25.48" height="1.16" rx=".56"/><rect x="-2.81" y="-.75" transform="matrix(.966376 -.257133 .257133 .966376 325.1 102.38)" width="5.62" height="1.5" rx=".72"/></g><rect x="-9.04" y="-.77" transform="matrix(.891798 .452435 -.452435 .891798 182.8 107.07)" width="18.08" height="1.54" rx=".75" class="B"/><path fill="#f1f2ee" d="M285.42 127.12q-.31 1.05-.9 1.96c-1.2 1.86-1.2 3.65-1.26 5.92q-.23 8.61-.52 28.75-.06 4.15 1.7 7.86.21.46.08.76-.16.36-.58.52-23.29-11.94-46.18-24.67-4.74-2.63-4.82-6.92-.38-20.08-.32-34.56a1.11.89-40.9 0 1 .03-.14l.43-1.29a1.79 1.78-68.5 0 1 2.43-1.06l49.91 22.87zm-43.31-6.25l-3.28-3.28a.73.73 0 0 0-1.2.78q.69 1.74.46 3.66a1.33 1.29-60.7 0 0 .24.9c1.15 1.57.75 3.47 2.46 5.1a.77.76-36.9 0 0 .9.12q2.04-1.11 2.35-2.59c.67-3.16-.19-8.77-3.84-10.34a.82.82 0 0 0-.85 1.38q2.23 1.86 3.04 4.08a.18.17-78.3 0 1-.28.19zm4.231 1.285a2.09.81-94.1 0 0-.659 2.143 2.09.81-94.1 0 0 .957 2.027 2.09.81-94.1 0 0 .659-2.143 2.09.81-94.1 0 0-.957-2.027zm2.589 3.015q2.27-.28 2.44.97a.92.91 89.2 0 0 .8.78q.5.06.52.06a.91.85 45.7 0 0-.04-1.73q-1.78-.44-2.98-1.39a1.01.95 40 0 0-1.35.08q-.34.39.02.95a.61.6 69.7 0 0 .59.28zm5.616 1.387a1.18.72-137.8 0 0 .391 1.326 1.18.72-137.8 0 0 1.358.259 1.18.72-137.8 0 0-.391-1.326 1.18.72-137.8 0 0-1.358-.259zm-5.916.653q-.28.55.71.9.98.34 1.22-.49a1.07.9-28.1 0 0-1.93-.41zm4.751.614a1.15.9-51.2 0 0-1.422.332 1.15.9-51.2 0 0-.019 1.46 1.15.9-51.2 0 0 1.422-.332 1.15.9-51.2 0 0 .019-1.46zm5.57.726a.49.49 0 0 0-.505-.474l-.34.011a.49.49 0 0 0-.474.505l.119 3.778a.49.49 0 0 0 .505.474l.34-.011a.49.49 0 0 0 .474-.505l-.119-3.778zm-2.52 1.7a.89.89 0 1 0-1.78 0 .89.89 0 1 0 1.78 0zm4.28-.558a2.28 1.04-114.9 0 0 .017 2.506 2.28 1.04-114.9 0 0 1.903 1.63 2.28 1.04-114.9 0 0-.017-2.506 2.28 1.04-114.9 0 0-1.903-1.63zm4.735 1.949a.75.75 0 0 0-.788-.71l-.08.004a.75.75 0 0 0-.71.788l.168 3.196a.75.75 0 0 0 .788.71l.08-.004a.75.75 0 0 0 .71-.788l-.168-3.196zm-12.705.719q.18.47.91.74a.35.34 2.8 0 0 .46-.41q-.26-.98-.37-1.07a.65.63-80.5 0 0-1 .74zm15.733.422a.31.31 0 0 0-.314-.306l-.72.009a.31.31 0 0 0-.306.314l.053 4.36a.31.31 0 0 0 .314.306l.72-.009a.31.31 0 0 0 .306-.314l-.053-4.36zm-11.169 1.213a1.24.67-144.2 0 0 .614 1.269 1.24.67-144.2 0 0 1.398.182 1.24.67-144.2 0 0-.614-1.269 1.24.67-144.2 0 0-1.398-.182zm14.925.78a.64.64 0 0 0-.635-.644h-.08a.64.64 0 0 0-.644.636l-.019 2.78a.64.64 0 0 0 .635.644h.08a.64.64 0 0 0 .644-.636l.019-2.78zm2.626.745a2.25.89-89.1 0 0-.925 2.236 2.25.89-89.1 0 0 .855 2.264 2.25.89-89.1 0 0 .925-2.236 2.25.89-89.1 0 0-.855-2.264zm-11.858 1.308a.76.53-134.5 0 0 .155.914.76.53-134.5 0 0 .911.171.76.53-134.5 0 0-.155-.914.76.53-134.5 0 0-.911-.171zm2.077.792a.7.47-125.4 0 0 .022.843.7.47-125.4 0 0 .789.298.7.47-125.4 0 0-.022-.843.7.47-125.4 0 0-.789-.298zm13.115 3.731q.75-1.47.79-2.66a1.11 1.11 0 0 0-.78-1.1l-.12-.04a.48.47 6 0 0-.61.49l.22 3.21a.27.26-33.6 0 0 .5.1zm-33.522-2.789a.64.64 0 0 0-.69-.585l-.06.005a.64.64 0 0 0-.585.69l.28 3.409a.64.64 0 0 0 .69.585l.06-.005a.64.64 0 0 0 .585-.69l-.28-3.409zm26.292 1.879l-.06-.46a.82.82 0 0 0-1.3-.56q-.99.74.37 1.64a.64.64 0 0 0 .99-.62zm-23.04.63a.71.64 50 0 0 .04-1.27q-.89-.45-1.5.64a.4.39 16.5 0 0 .32.58q1.04.07 1.14.05zm24.208-.123a.86.67-137.3 0 0 .178 1.076.86.67-137.3 0 0 1.086.091.86.67-137.3 0 0-.178-1.076.86.67-137.3 0 0-1.086-.091zm-19.043 1.948a.89.63-128.6 0 0 .063 1.089.89.63-128.6 0 0 1.048.303.89.63-128.6 0 0-.063-1.089.89.63-128.6 0 0-1.048-.303zm1.435 3.526q-.49-.18-.6-.2a.8.76 66.2 0 0-.52 1.45q.66.42 1.35-.43a.52.52 0 0 0-.23-.82zm2.066 1.641a.75.43-106.6 0 0-.198.842.75.43-106.6 0 0 .626.596.75.43-106.6 0 0 .198-.842.75.43-106.6 0 0-.626-.596zm7.954 1.989q.04 0 .91-.26a.32.32 0 0 0 .19-.46q-.26-.5-.98-.37a.6.49-44.7 0 0-.12 1.09zm6.77 4.06q-.72 1.99-1.16 2.26a.44.44 0 0 0 .05.77q.52.23.82.19.67-.11.85-.81.38-1.41.06-2.4a.33.33 0 0 0-.62-.01z"/><path d="M314.53 111.04q.11-.99-.14-2.17a1.16 1.15 62.5 0 1 .33-1.07q.32-.31 1.05-.41a1.27 1.25 13.4 0 0 .89-.54q.38-.55.2-1.09l13.62-1.65a.55.55 0 0 1 .61.47l.04.32a.7.7 0 0 1-.56.77q-4.09.84-8.9 1.17a1.31 1.1-8.8 0 0-1.24 1.41q.19.67-.51 1.27a1.27 1.25 23.9 0 1-.79.3q-2.61.04-4.6 1.22z" class="C"/><path d="M374.41 107.18l-.1 2.79a1 .99 72 0 1-.39.77q-1.17.93-2.61.77l.16-6.17a.45.45 0 0 1 .42-.44q2.53-.15 2.52 2.28zm-34.71-2.04q1.52.96 2.92 1.59c7.31 3.29 14.3 12.04 15.08 20.3a.34.33 32.7 0 1-.65.14q-2.15-6.1-5.75-11.5-1.46-2.19-3.51-3.39a.5.5 0 0 0-.62.77q2.83 3.09 4.78 6.56 1.74 3.11 2.61 7.62 4.16 21.8-8.74 40.66-2.39 3.49-9.19 8.8-2.66 2.08-6.63 3.61-2.77 1.06-6.94 3.06a.31.31 0 0 0 .17.58l3.73-.46a.13.12 83.7 0 1 .14.12v.01a.07.07 0 0 1-.05.08q-12.08 3.59-22.07-2.41a1.27 1.19-1.8 0 1-.34-.3l-.72-.88a.33.33 0 0 1 .25-.54c2.11-.05 4.27 1 6.34 1.11q14.96.76 25.52-8.94c2.41-2.22 4.59-5.33 6.94-7.74a6.38 6.24-8.1 0 0 .93-1.21q8.93-14.81 8.06-31.48-.09-1.71-3.7-11.53a6.67 6.65-73.4 0 0-.9-1.67l-4.04-5.41a1.01.98 22.5 0 1-.18-.42q-.25-1.49.17-2.58a.78.74-80.4 0 0-.71-1.06q-1 .05-.67 1.05-3.51-3.36-2.23-4.54z" class="B"/><path d="M375.28 106.52q.89 1.49 2.26 2.46a2.16 2.1-25.4 0 0 1.12.38l5.52.29a3.19 2.95 53 0 1 .77.14l27.27 8.66q.91 2.13 5.06 1.71l8.28 2.82q2.23 1.26 5.02.98l9.12 2.9q.36.3.84.27.11.02.22.05 3.61 2.56 7.58 2.05l7.67 2.34-1.63 1.74a.28.28 0 0 0 .01.39l.24.24a.47.46 43.3 0 0 .67-.01q.81-.89 1.08-2.25l4.11 1.25c.29 2.14 2.2 2.58 3.49.92q3.52 1.74 6.34 2.3 14.7 2.94 22.04 5.49 9.2 3.19 13.41 4.13.38 1.71 4.52 1.64.33.43.33.58a.98.97-9.3 0 1-.68.94q-17.25 5.35-34.9 7.9-1.24-.23-1.06.2-1.22.46-3.92 1.05-21.9 4.81-41.79 8.05-6.94 1.13-14.24 3.15-21.41 5.91-43.66 9.37-1.74-.23-4.35-1.57a.56.56 0 0 1-.21-.81q.21-.32.89-.52a.95.9-41.5 0 1 .62.02l2.1.8a.67.67 0 0 0 .75-1.05q-.79-.97-2.81-.17a.87.87 0 0 1-1.19-.85l2.17-42.22a1.24 1.24 0 0 1 .65-1.02q1.38-.74 1.4 1.68a.62.62 0 0 0 .63.61q3.99-.04 5.07-1.03a.22.2 20.8 0 1 .15-.06l5.37-.48a.1.08-89.3 0 0 .07-.08v-.33a.2.19-80.9 0 0-.14-.2l-12.47-3.27a.48.48 0 0 1-.36-.49l.56-11.04a.65.64-86.5 0 1 .68-.61l5.97.3a1.03 1.02-63.2 0 0 .71-.24q1.39-1.21 3.92-1.18a.36.35 55 0 0 .12-.69q-2.14-.75-4.53.45a.77.75 31.4 0 1-.34.08l-5.24.17a.98.97 85.1 0 1-1-.85l-.2-1.61a.72.72 0 0 1 .68-.81l1.27-.07q1.44.16 2.61-.77a1 .99 72 0 0 .39-.77l.1-2.79q.21-.52.87-.66zm19.103 12.445a1.74.83-8.1 0 0-1.84-.576 1.74.83-8.1 0 0-1.606 1.067 1.74.83-8.1 0 0 1.839.576 1.74.83-8.1 0 0 1.606-1.067zm-8.699 1.236a2.42.7-4 0 0-2.463-.529 2.42.7-4 0 0-2.365.867 2.42.7-4 0 0 2.463.529 2.42.7-4 0 0 2.365-.867zm30.536 4.879l2.17.05a.49.49 0 0 0 .11-.97l-3.55-.67a2.08 1.58 52.9 0 1-.32-.09q-6.07-2.51-9.9-2.63-7.88-.26-8.5-.39a1.77 1.7 39.7 0 0-.95.07q-1.56.58-3.01.41a.76.76 0 0 0-.81.54q-.32 1.11-1.37 1.15a.52.52 0 0 0-.13 1.01q2.09.64 2.28 1.97a.41.41 0 0 0 .68.26q1.22-1.04 2.04.01a.62.59-16.8 0 0 .46.23l2.16.05a.46.45 56 0 0 .17-.88l-2.7-1.03a.95.95 0 0 1 .23-1.83q5.11-.56 9.54-.35 2.21.1 4.8.93 2.26.72 4.58 1.72a1.2 1.2 0 0 1 .33 1.99q-.96.86-1.64.72-1.22-.25-1.77.15-1.07.79-4.37 1.71a.16.15 82.8 0 0-.11.15l-.01.3a.23.23 0 0 0 .3.22q6.93-2.25 8.02-2.69 1.12-.45.86-1.62a.41.4-5.5 0 1 .41-.49zm-40.63 1.07q.5.95 1.88.47 1.44-.5 1.9-.98a.8.8 0 0 0-.56-1.35l-7.23-.21a1.18 1.18 0 0 0-1.21 1.32l.14.32a.9.9 0 0 0 .93.53l3.49-.44a.65.65 0 0 1 .66.34zm32.82-1.75q-1.53 1.38-2.99.23a1.14.91-75.4 0 0-1.49 1.12q.02 1.55 1.3 1.4 2.38-.27 3.82-1.58a.38.38 0 0 0 .11-.24l.01-.58a.46.45-20.2 0 0-.76-.35zm-16.12 5.03q-.36-.51-1.32-.58-.18-.01-2.68.32a2.06 1.97 52.1 0 1-1.07-.16q-3.69-1.62-5.78-1.89a.8.8 0 0 0-.4 1.54c3.11 1.25 4.43 2.01 7.42 1.24q1.78-.46 3.49.01a.31.31 0 0 0 .34-.48zm31.91-1.09q-1.38-.63-2.87.37a.32.32 0 0 0 .22.58l2.55-.32a.33.33 0 0 0 .1-.63zm-8.5 1.976a1.95.5-1.3 0 0-1.961-.456 1.95.5-1.3 0 0-1.938.544 1.95.5-1.3 0 0 1.961.456 1.95.5-1.3 0 0 1.938-.544zm32.83.596a1.02.53-155.8 0 0 .713.901 1.02.53-155.8 0 0 1.148-.065 1.02.53-155.8 0 0-.713-.901 1.02.53-155.8 0 0-1.148.065zm-23.68.728a.46.41 1.5 0 0-.55-.52q-.34.08-.39.24a.45.4.9 0 0 .55.51q.34-.08.39-.23zm23.85 5.26a.32.32 0 0 0 .04-.63q-4.27-1-4.92-1.06c-2.26-.22-3.31-2.47-5.82-1.88-3.66.85-7-1.81-10.45-2.22a.28.28 0 0 0-.13.54q5.63 2.06 11.34 3.08 4.3.76 7.19 1.4c.84.19 1.8.87 2.75.77zm-29.945-5.38a.82.33-157 0 0 .626.624.82.33-157 0 0 .884.017.82.33-157 0 0-.626-.624.82.33-157 0 0-.884-.017zm-30.115.704a1.53.42-166.9 0 0 1.395.756 1.53.42-166.9 0 0 1.585-.062 1.53.42-166.9 0 0-1.395-.756 1.53.42-166.9 0 0-1.585.062zm16.04 4.547a.16.16 0 0 0-.1-.19c-2.31-.83-5.03-1.35-6.62-2.92q-.93-.92-2.33-1.36a.38.38 0 0 0-.31.69q4.31 2.68 9.24 4.09a.03.02 9.2 0 0 .04-.02l.08-.29zm-23.362-1.599a2.83.75-2 0 0-2.855-.651 2.83.75-2 0 0-2.802.848 2.83.75-2 0 0 2.855.651 2.83.75-2 0 0 2.802-.848zm45.742.199l7.3 1.66.01-.07a3.54.85 12.8 0 0-3.26-1.61l-.39-.09a3.54.85 12.8 0 0-3.64.04l-.02.07zm31.233.173a.43.36-173.7 0 0 .388.405.43.36-173.7 0 0 .467-.311.43.36-173.7 0 0-.388-.405.43.36-173.7 0 0-.467.311zm-5.623 2.007l1.65.09a.52.52 0 0 0 .52-.35q.11-.32 0-.63-.14-.38-.72-.15-.61.23-1.52.73a.17.16 32.4 0 0 .07.31zm-73.964.23a1.14.58-163.7 0 0 .931.877 1.14.58-163.7 0 0 1.257-.237 1.14.58-163.7 0 0-.931-.877 1.14.58-163.7 0 0-1.257.237zm26.214-.073a1.41.39-143.3 0 0 .897 1.155 1.41.39-143.3 0 0 1.364.53 1.41.39-143.3 0 0-.897-1.155 1.41.39-143.3 0 0-1.364-.53zm30.97-.023a2.54.21-159.6 0 0 2.308 1.082 2.54.21-159.6 0 0 2.454.689 2.54.21-159.6 0 0-2.307-1.082 2.54.21-159.6 0 0-2.454-.689zm-39.179 4.235a.46.45 56.1 0 0 .17-.88q-1.62-.62-3.06-.43c-2.42.33-4.01.19-6.01-1.01q-1.83-1.09-4.4-1.46a.18.17-77.6 0 0-.2.13v.02a.22.22 0 0 0 .14.27l9.35 3.21a1.21 1.03 49.7 0 0 .36.06l3.65.09zm15.34-3.38l.47.48a.35.35 0 0 0 .49 0l.38-.39a.25.25 0 0 0-.14-.43q-.41-.06-1.1.04a.18.17-26.8 0 0-.1.3zm8.63 3.65q.29 1.72 2.23 1.81c3.52.16 6.83.6 9.58.77a1.17 1.17 0 0 0 1.13-1.66l-.69-1.45a2.14 2.14 0 0 0-2.47-1.17q-1.54.39-3.77-.13a1.74 1.72-45.3 0 0-.84.01l-.74.2a1.15 1.12-41 0 1-.72-.04l-5.17-1.98a1.5 1.49 30.7 0 0-1.66.42q-.81.92-1.36 2.33a.66.66 0 0 0 .31.81q1.6.85 2.75-.29a.86.79-28.1 0 1 1.42.37zm47.353-3.203a.45.27-142.6 0 0 .193.488.45.27-142.6 0 0 .522.059.45.27-142.6 0 0-.194-.488.45.27-142.6 0 0-.521-.059zm-27.207.497a2.55.2-159.9 0 0 2.326 1.064 2.55.2-159.9 0 0 2.463.689 2.55.2-159.9 0 0-2.326-1.064 2.55.2-159.9 0 0-2.463-.689zm19.275.106q-.42-.25-.67-.22a.25.25 0 0 0-.13.44q.08.06.63.2a.23.23 0 0 0 .17-.42zm-48 .16l-1.53 1.7a.19.17-28 0 0-.04.11q.03.33.46.31.28-.01.47-.34.37-.66.77-1.69a.08.08 0 0 0-.13-.09zm50.03 1.7l11.9 1.69.04-.27a5.77.34 8.1 0 0-5.67-1.15l-.47-.07a5.77.34 8.1 0 0-5.76-.48l-.04.28zm-75.34 1.97a.16.16 0 0 0 .22-.1l.16-.68a.12.12 0 0 0-.08-.13q-2.52-.88-4.61-.66a.28.28 0 0 0-.19.46l.47.6a.12.12 0 0 0 .1.04q2.24-.29 3.93.47zm60.516-1.613a.51.19-152.8 0 0 .367.402.51.19-152.8 0 0 .54.064.51.19-152.8 0 0-.367-.402.51.19-152.8 0 0-.54-.064zm4.774 1.657a2.92.61-178.7 0 0 2.905.676 2.92.61-178.7 0 0 2.933-.544 2.92.61-178.7 0 0-2.905-.676 2.92.61-178.7 0 0-2.933.544zm-50.125.075a1.22.37-174.3 0 0 1.177.489 1.22.37-174.3 0 0 1.251-.247 1.22.37-174.3 0 0-1.177-.489 1.22.37-174.3 0 0-1.251.247zm12.844.321q.07-.16.1-.37a.35.31-14.2 0 0-.52-.27q-.27.15-.11.54a.32.26 50.1 0 0 .53.1zm61.614.103a.56.21-157.2 0 0 .435.411.56.21-157.2 0 0 .598.023.56.21-157.2 0 0-.435-.411.56.21-157.2 0 0-.598-.023zm-40.847 1.871a1.86.4-158.7 0 0 1.588 1.048 1.86.4-158.7 0 0 1.878.303 1.86.4-158.7 0 0-1.588-1.048 1.86.4-158.7 0 0-1.878-.303zm22.773.056q.13.06.31.05a.05.04 60.4 0 0 .02-.08q-.13-.11-.22-.15a.11.1-15.9 0 0-.11.18zm-90.18 3.14a.62.62 0 0 0 .23 1.01l5.17 1.98a3.28 3.23 56.8 0 0 .97.21l10.31.74a1.26 1.24-84.8 0 0 1.33-1.12l.17-1.59a1.45 1.45 0 0 0-1.29-1.6l-11.32-1.22a1.61 1.46 55.9 0 1-.45-.11l-2.68-1.07a.95.94 19 0 0-1.26.61q-.38 1.32-1.18 2.16zm51.607-2.655a1.03.39-9.2 0 0-1.079-.22 1.03.39-9.2 0 0-.954.55 1.03.39-9.2 0 0 1.079.22 1.03.39-9.2 0 0 .954-.55zm41.883.545l-.86-.29a.17.17 0 0 0-.16.3q.47.4 1.01.27a.15.15 0 0 0 .01-.28zm19.163.301a2.64.7-177.2 0 0 2.603.828 2.64.7-177.2 0 0 2.671-.57 2.64.7-177.2 0 0-2.603-.828 2.64.7-177.2 0 0-2.671.57zm-17.563.607a.62.12-162 0 0 .553.306.62.12-162 0 0 .627.078.62.12-162 0 0-.553-.306.62.12-162 0 0-.627-.078zm-3.85 2.412q-2.87-.76-5.1-1.55-2.22-.78-2.71-.3a.42.42 0 0 0 .35.71q4.36-.67 6.62 2.63.62.92.94.8a1.2 1.2 0 0 0-.1-2.29zm-43.8-1.25q3.01 2.33 7.43 1.73a.26.25-34.9 0 0 .09-.48c-2.22-1.16-5.21-.71-7.39-1.48a.14.14 0 0 0-.13.23zm55.072.453a2.93.54-178.1 0 0 2.911.637 2.93.54-178.1 0 0 2.946-.443 2.93.54-178.1 0 0-2.91-.637 2.93.54-178.1 0 0-2.946.443zm-66.942 1.767q3.55 2.02 8.16.73a.27.27 0 0 0 .02-.52c-2.53-.91-5.64.02-8.07-.48a.15.15 0 0 0-.11.27zm24.76 1.04q.45.22.83.21 2.17 1.31 4.52 1.49a.08.08 0 0 0 .04-.15q-2.72-1.25-4.56-1.34l-.83-.21q-.88-.75-1.74-.67a.17.17 0 0 0-.06.33q.85.38 1.8.34zm43.588-.653a.66.36-60.2 0 0-.64.394.66.36-60.2 0 0-.016.752.66.36-60.2 0 0 .64-.394.66.36-60.2 0 0 .016-.752zm-18.668.673a2.21.29-161 0 0 1.995.994 2.21.29-161 0 0 2.184.445 2.21.29-161 0 0-1.995-.994 2.21.29-161 0 0-2.184-.445zm-81.404 1.587a1.94.65-20.6 0 0-2.045.074 1.94.65-20.6 0 0-1.587 1.291 1.94.65-20.6 0 0 2.045-.074 1.94.65-20.6 0 0 1.587-1.291zm15.344.673l8.8 2.61.08-.26a.51.26-73.5 0 0-.11-.56l-8.3-2.46a.51.26-73.5 0 0-.4.41l-.07.26zm80.55 1.36a.23.23 0 0 0 .09-.32l-.16-.27a.07.06 51.4 0 0-.08-.01q-3.01 1.64-6 .94a.48.47-78.8 0 0-.58.39l-.03.16a.45.44-84.9 0 0 .42.51q3.21.13 6.34-1.4zm1.41.03l.91.45a.46.46 0 0 0 .53-.74q-.07-.08-1.19-.38a.36.36 0 0 0-.25.67zm-34.357.234a2.67.61-177.3 0 0 2.638.735 2.67.61-177.3 0 0 2.696-.483 2.67.61-177.3 0 0-2.638-.735 2.67.61-177.3 0 0-2.696.483zm-60.842-.117a.52.44-140.2 0 0 .118.671.52.44-140.2 0 0 .681-.005.52.44-140.2 0 0-.118-.671.52.44-140.2 0 0-.681.005zm41.2-.239a.51.18-151.7 0 0 .364.4.51.18-151.7 0 0 .534.083.51.18-151.7 0 0-.364-.4.51.18-151.7 0 0-.534-.083zm-2.971 4.042l.12-.22a.03.02 34.6 0 0-.02-.04q-3.78-2-7.92-2.88a.32.32 0 0 0-.21.59q1.1.55 2.19.53c1.86-.02 3.8 1.24 5.67 2.07a.13.13 0 0 0 .17-.05zm-26.18 3.73a.12.11-73 0 0-.07-.15q-7.56-2.25-13.38-4.89c-1.89-.86-3.4-1.08-5.04-.21a.45.45 0 0 0 .19.85l5.45.28a.94.76 51.3 0 1 .18.04l12.48 4.17a.15.15 0 0 0 .19-.09zm24.252-.784a.27.27 0 0 0-.158-.347l-9.648-3.607a.27.27 0 0 0-.347.158l-.091.243a.27.27 0 0 0 .158.347l9.648 3.607a.27.27 0 0 0 .347-.158l.091-.244zm14.478-1.126q.35.02.44-.39a.2.19 26.8 0 0-.07-.2q-.18-.15-.39-.02a.35.28-53.2 0 0 .02.61zm-5.2 2.47q-.53-.19-1.29.25a.56.56 0 0 0 .43 1.03q.05-.01.94-.64a.36.36 0 0 0-.08-.64zm1.611.116a1 .67-137.6 0 0 .287 1.169 1 .67-137.6 0 0 1.19.179 1 .67-137.6 0 0-.287-1.169 1 .67-137.6 0 0-1.19-.179zm-36.941 2.374l7.22-.08v-.02a3.38 1.86-.6 0 0-3.4-1.82h-.46a3.38 1.86-.6 0 0-3.36 1.9v.02zm29.606-.257a1.13.68-4.9 0 0-1.184-.581 1.13.68-4.9 0 0-1.068.774 1.13.68-4.9 0 0 1.184.581 1.13.68-4.9 0 0 1.068-.774zm.546-.042a1.46.72-176.9 0 0 1.419.798 1.46.72-176.9 0 0 1.497-.64 1.46.72-176.9 0 0-1.419-.798 1.46.72-176.9 0 0-1.497.64zm-42.262 2.719l7.56.14a.05.05 0 0 0 .05-.05v-.02a3.6 2.03 1 0 0-3.56-2.1h-.46a3.6 2.03 1 0 0-3.64 1.96v.02a.05.05 0 0 0 .05.05zm-1.8-.7q-1.06-.54-1.25-.57a.47.46-31.3 0 0-.22.9q1.19.4 1.39.36a.37.37 0 0 0 .08-.69zm1.51 3.31a.34.34 0 0 0 .47.41q1.28-.56 1.02-1.29a.6.58 52.4 0 0-1.05-.16q-.24.37-.44 1.04z" class="D"/><path d="M311.3 113.8l-1.52 1.08-1.93-.22-.88-.55q-.61-.34-1.12-1.2a1.19 1.19 0 0 1 1.24-1.78q4.3.75 4.21 2.67z" class="F"/><path d="M309.78 114.88q-1.28 1.79-1.37 5.3a1.09 1.09 0 0 1-.46.85q-1.05.74-2.5.62a.64.63.6 0 1-.58-.58q-.17-2.43.08-3.86.21-1.15 2.9-2.55l1.93.22z" class="C"/><path d="M242.39 120.68q-.81-2.22-3.04-4.08a.82.82 0 0 1 .85-1.38c3.65 1.57 4.51 7.18 3.84 10.34q-.31 1.48-2.35 2.59a.77.76-36.9 0 1-.9-.12c-1.71-1.63-1.31-3.53-2.46-5.1a1.33 1.29-60.7 0 1-.24-.9q.23-1.92-.46-3.66a.73.73 0 0 1 1.2-.78l3.28 3.28a.18.17-78.3 0 0 .28-.19zm-1.18 4.55l-.96-3.59a.13.13 0 0 0-.16-.09l-.08.02a1.85 1.43 75 0 0-.9 2.16l.07.27a1.85 1.43 75 0 0 1.86 1.41l.08-.02a.13.13 0 0 0 .09-.16z" class="B"/><ellipse cx="0" cy="0" transform="matrix(.990024 -.140901 .140901 .990024 392.66 119.21)" rx="1.74" ry=".83" class="C"/><path d="M417.28 120.16q-4.15.42-5.06-1.71l5.06 1.71z" class="B"/><g class="C"><path d="M161.76 119.68q5.68-.79 8.72 1.54 2.36 1.81 2.96 2.04c3.05 1.16 6.39 2.52 8.41 5.07a.98.97-22.6 0 0 .89.36l4.63-.59a1.19 1.17 18.1 0 0 .71-.35l1.04-1.07q2.7 2.37 1.9 5.42l-2.1-.03a1.09 1.04 7.1 0 0-1.06.79l-.01.05a.92.91 13.2 0 0 .63 1l2.03.66a1.99 1.96-37.8 0 0 .76.09q2.46-.2 5.06.72a1.81 1.72 77.5 0 1 .74.5q1.33 1.5 2.91 1.79c.98 4.29 2.77 5.59 5.41 8.12a.33.32 54 0 1-.08.53l-17.73 8.31a2.7 2.68 41.7 0 1-2.01.11l-5.02-1.68a.66.65-80.5 0 1-.45-.64l.04-1.66a1.02 1 14.4 0 0-.55-.91q-2.52-1.29-5-.34a.71.71 0 0 0 .24 1.38l3.55.09a.5.5 0 0 1 .34.86l-.51.52a1.24 1.23 23.4 0 1-.92.36l-4.81-.11a1.19 1.18 15.6 0 0-1.06.59l-.67 1.16a.24.24 0 0 0 .23.36q1.71-.19 3.16.96 2.8 2.21 4.4 3.84a2.04 2.03 78 0 0 .75.49l3.32 1.24a1.62 1.58 74.8 0 1 .49.29q1.26 1.09 3.02 1.56.86.23 2.58-.67 1.5-.78 2.91-.53a1.01 1-51.3 0 0 .6-.07l2.28-1.07a1.28 1.26 40.4 0 1 .91-.07q1.99.56 4.69.2a.03.03 0 0 0 .02-.05q-.02-.02-.03-.04a.2.15 72.4 0 0-.17-.12l-2.75.16a.4.4 0 0 1-.26-.72l.85-.64a.69.69 0 0 1 .99.18q.19.3.28.34a1.09 1.08-54.9 0 0 1.17-.21q2.08-1.96 4.01-1.93a1.17 1.17 0 0 0 1.04-.6q.34-.6.74-.58a1.38 1.36 1.9 0 1 1.33 1.4q0 .13-2.01.07a.61.61 0 0 0-.62.48q-.52 2.46 1.99 3.36a.21.2-69.1 0 1 .12.28q-.01.02-.17.13a.18.18 0 0 0-.01.31q1.88 1.27 2.17 1.22a.65.64 81.8 0 1 .76.57q.08.87 1.26.98a1.57 1.54-12.9 0 1 1.15.71q1.33 2.08 4.16 2.68a1.18 1.17-61.5 0 0 1.07-.32l.3-.31a1.17 1.16 32.1 0 1 1.19-.27l2.97 1.02a.34.34 0 0 1 .03.63q-.49.21-3.52-.62a.81.81 0 0 0-1.02.71v.02a1.16 1.15 7.3 0 0 .96 1.23q1.67.27 2.65 2.37a.73.73 0 0 1-.33.96q-1.39.71-2.52 2.32a.9.88-39.3 0 0-.1.86q.62 1.53 1.56 1.42a.19.18 57.2 0 1 .13.03l4.71 3.45a.85.82-88.8 0 1 .23.25q1.27 2.04 1.86 2.63 5.9 5.9 10.08 10.24a.01.01 0 0 0 .02-.01q0-.02 0-.04a.15.03 46.4 0 0-.06-.1l-7.3-7.6a.83.78-88.1 0 1-.14-.16q-1.4-2.06-3.67-3.95a1.58 1.57-53.3 0 1-.3-2.07q.63-.95 2.48-1.73a1.23 1.21-43 0 1 1.04.03q2.55 1.3 4.62 3.71a.35.35 0 0 0 .58-.38q-.66-1.34-1.78-2.19a.97.97 0 0 1 .46-1.73l6.42-.81a.99.99 0 0 1 .99.51q.98 1.76 2.75 1.39a.52.52 0 0 1 .62.48q.08 1.38.9 1.59 1.85.46 5.54 1.16a1.36 1.32 36.3 0 0 .87-.12q.69-.33 1.46-.34v-.01q-1.43-.26-2.41-1.09a.94.93-34.4 0 0-.92-.17q-2.24.77-4.27.23a.22.22 0 0 1-.14-.13l-.27-.56a.36.35-5.3 0 1 .41-.49q1.08.26 2.55.02a.36.36 0 0 0 .24-.56q-.96-1.41-2.3-1.48-1.12-.06-1.61-.89a.3.3 0 0 1 .31-.44q1.35.26 3.63 2.12 1.72 1.4 8.12 4.08a.54.29 1.8 0 1 .12.07l6.65 4.23a.63.57 81.4 0 1 .16.13q1.43 1.54 3.77 2.6a.31.31 0 0 1-.13.6c-1.57-.02-3.6-.21-5.42-.01q.07 0 .38.01a.79.79 0 0 1 .39 1.45q-2.43 1.57-5.94 2.08a2.15 1.82 40.3 0 1-.49 0l-4.96-.65a.33.33 0 0 0-.32.51l1.94 2.86a.03.02 58.3 0 1 0 .03q-.08.13-.18.22a.22.22 0 0 0-.01.33q2.91 2.69 6.27 3.2a1.74 1.71 33.9 0 0 1.12-.21q1.83-1.04 3.83-1.02a3.39 3.28-53.7 0 0 1.19-.2q3.46-1.21 6.2-.63-12.85 3.62-28.7 6.02c-6.13.92-13.18 3.57-18.65 4.91q-23.44 5.74-30.68 7.39c-11.5 2.62-18.18 4.82-27.63 6.3q-.97.15-7.99 1.9-3.58.9-8.01 1.89-19.01 4.29-44.17 10.19-2.44.57-6.08 1.24c-4.96.91-8.3 2.16-11.42-1.66q-1.89-2.33-4.26-3.84a6.59 6.49-1.4 0 1-1.72-1.61q-.51-.69-5.49-6.55-1.78-2.1-4.47-3.48-1.76-.9-2.37-3.67a1.18 1.17 60.1 0 1 .27-1.02l3.55-4.04a1.67 1.67 0 0 0-.46-2.57l-.86-.47a1.31 1.28-35.2 0 0-.81-.13l-4.5.82q-.43-.64-1.56-.13-3.86-.81-7.03-3.56.23-1.05-.1-1.81-.11-.28-.35-.32-.32-.06-.5.06a.58.58 0 0 1-.65-.04q-.97-.76-2.2-1.1-4.65-5.55-10.02-10.62c-1.86-1.76-2.27-2.97-2.09-5.24a3.09 2.77-86.3 0 0-2.6-3.3q-5.09-.26-8.91-4.23-.22-1.85-1.87-2.21l-5.48-7.43a2.79 2.73-89.3 0 0-.43-.45q-1.97-1.55-2.74-4.15a2.42 2.4-76.5 0 0-.62-1.02q-1.04-1.04-1.59-1.53c-.99-.89-3.17-1.1-4.55-1.89q-.06-.45-.26-.76-.52-1.39-2.3-1c-2.76-3.33-6.55-6.57-8.52-10.41l4.68-1.19a.4.39 50.5 0 0 .07-.74q-.34-.16-.85.05c3.36-.49 6.96-1.64 9.9-2.19q24.84-4.65 49.76-8.74 6.64-1.09 10.82-1.96l17.76 9.64a2.92 2.89 59.8 0 0 1.3.35q3.02.1 4.77 2.75a.58.58 0 0 1-.5.9l-1.72-.05a.68.68 0 0 0-.23 1.33c2.28.77 4.69 1.86 7.5 1.45q1.46-.2 3.45.64a.49.49 0 0 0 .64-.26q.12-.27-.28-.6a.52.51-31.5 0 1 .22-.9q4.45-.96 6.83-1.21a2.36 2.18-60.5 0 0 .84-.27l1.49-.79a.32.32 0 0 0 .08-.51l-2.86-2.86a.34.34 0 0 0-.58.24q-.02.84-.82.7-3.1-.55-4.97.48a2.26 2.19-56.1 0 1-1.27.27q-2.33-.21-3.77.7a3.57 2.98 42.8 0 1-3.48-.18q-1.34-.84-2.89-2.3a1.6 1.59-22.1 0 0-1.05-.44l-1.77-.04a1.48 1.44-28.1 0 1-.72-.21l-6.59-3.96a.43.41-85 0 1-.19-.24c-.31-1.01-2.28-1.35-4.33-2a.54.54 0 0 1 .19-1.05q4.85.21 10.73-1.39a3.43 3.42 38.7 0 1 1.1-.12q2.12.09 3.63-1.26a1.04.99 36.2 0 0-.3-1.66q-1.03-.5-.8-1.18 4.59-.71 9.17-1.48 3.66-.62 9.07-2.04 7.95-2.09 15.95-3.3 3.42 4.12 10.01 3.86a1.11 1.11 0 0 0 1.03-1.4q-.13-.47 1.12-.76 2.22-.52 5.41-.91a1.42 1.4-30.1 0 1 1.01.26q.88.61 2.41.31a.19.19 0 0 0 .03-.36q-.09-.03-.29-.05a.56.56 0 0 1-.4-.86q.04-.05.31-.2a.57.56 56.5 0 0 .17-.86l-1.81-2.22 11.83-1.35zm2.28 3.61l.34.74a.64.63 60.3 0 0 .93.26q1.09-.74 1.86-.2 3.22 2.28 5.47 2.65a.3.3 0 0 0 .35-.26l.03-.33a.64.63 6.9 0 0-.55-.7q-2.37-.28-3.94-1.52c-1.2-.95-2.47-.76-3.99-1.22a.42.42 0 0 0-.5.58zm24.856 5.689a1.36 1.04-99.5 0 0-.801 1.513 1.36 1.04-99.5 0 0 1.25 1.17 1.36 1.04-99.5 0 0 .801-1.513 1.36 1.04-99.5 0 0-1.25-1.17zm-14.565 7.981q-2.07-1.02-3.66-2.45-.29-.26-.54-.2-.28.05-.4.42-6.68 1.13-13.71 1.45a1.07 1.04-24.6 0 1-.76-.27l-2.79-2.45a1.12 1.1-23.6 0 0-.7-.27l-2.45-.06a.76.7 55.4 0 1-.31-.07l-7.28-3.57a.15.15 0 0 0-.22.15l.06.44a.04.03 14.9 0 0 .02.03q4.36 1.53 7.26 4.17a1.28 1.27-27.2 0 0 1.01.32l1-.13a2.29 2.27-30.7 0 1 1.6.4l3.49 2.42a.33.33 0 0 1-.21.6q-1.09-.08-1.7.24a.59.58 38.2 0 0 .13 1.08l5.45 1.43a2.06 2.06 0 0 0 1.44-.16q1.43-.72 3.15-.02a.67.67 0 0 0 .9-.43q.01-.02.03-.41a.84.83 88.8 0 1 .73-.77l8.32-1.05a.45.44-35.6 0 0 .14-.84zm-54.01-4.37q.51.33 1.04.57a.23.23 0 0 0 .31-.3q-.25-.62-.87-1.01-.61-.4-1.28-.38a.23.23 0 0 0-.14.41q.43.38.94.71zm-6.91 1.25q2.01 1.88 4.47 2.52a.36.35-78.2 0 0 .44-.29l.01-.13a.38.37-84.4 0 0-.35-.43q-2.42-.15-4.32-2.09a.05.05 0 0 0-.06 0l-.18.16a.18.18 0 0 0-.01.26zm36.45 2.671a.86.51-8.6 0 0-.927-.376.86.51-8.6 0 0-.774.633.86.51-8.6 0 0 .927.376.86.51-8.6 0 0 .774-.633zm-25.642 4.476a.27.27 0 0 0-.344-.166l-.076.026a.27.27 0 0 0-.166.344l3.19 9.161a.27.27 0 0 0 .344.166l.076-.026a.27.27 0 0 0 .166-.344l-3.19-9.161zM148.87 143a.85.7-39.6 0 0 1.47 0q.21-.38-.3-.85a.4.38 48 0 0-.49-.04q-.74.51-.68.89zm-.6 4.18q.27-.19-1.5-2.93-.11-.18-.28-.16-.22.02-.35.12-.14.1-.23.29-.07.16.06.32 2.03 2.56 2.3 2.36zm4.033-2.246a1.23.77-60.1 0 0-1.281.683 1.23.77-60.1 0 0 .054 1.45 1.23.77-60.1 0 0 1.281-.683 1.23.77-60.1 0 0-.054-1.45zM92.36 146.76q-.71.25-1.12.52a.3.3 0 0 0 .09.54q1.06.3 1.51-.19a.53.49-76.4 0 0-.48-.87zm100.29 2.19a.34.34 0 0 0 .39-.55q-2.7-2.61-6.39-1.21a.51.51 0 0 0 .25.98l2.75-.35a1.84 1.82 54.3 0 1 1.05.18l1.95.95zm-36.07 3.17q-1.27-.78-1.83-2.23a1.2 1.2 0 0 0-.63-.66q-1.79-.8-3.62-.5a.67.67 0 0 0-.2 1.26q.31.16 1.12.02c2.85-.5 2.91 2.83 4.95 2.84a.4.39-29 0 0 .21-.73zm-64.78-1.61a.52.51-60.5 0 0-.95.28q0 .42.4.74a.31.31 0 0 0 .47-.11q.28-.57.08-.91zm26.66 6.1q-2.59-1.36-3.2-2.09a2.98 2.95 84 0 0-.82-.67l-3.81-2.12a.36.35-62.1 0 0-.5.16l-.14.28a.37.37 0 0 0 .17.5l3.1 1.52a2.02 2.01 85.1 0 1 .73.62q1.37 1.94 4.33 2.27a.25.25 0 0 0 .14-.47zm41.21-4.03q.43.51 1.81 1.62.32.26 1.06.17 1.11-.13 1.35-.31a.41.41 0 0 0-.12-.72l-3.79-1.22a.29.29 0 0 0-.31.46zm-67.745.921a.78.58-52.5 0 0-.935.266.78.58-52.5 0 0-.015.972.78.58-52.5 0 0 .935-.266.78.58-52.5 0 0 .015-.972zm60.848.353a1.6.7-165.3 0 0 1.37 1.083 1.6.7-165.3 0 0 1.725-.271 1.6.7-165.3 0 0-1.37-1.083 1.6.7-165.3 0 0-1.725.271zm4.023.672a1.07.84-153.1 0 0 .574 1.233 1.07.84-153.1 0 0 1.334-.265 1.07.84-153.1 0 0-.574-1.233 1.07.84-153.1 0 0-1.334.265zM88.5 157.04q-.14-1-.33-1.35a.6.6 0 0 0-1.13.36q.06.47 1.03 1.24a.27.27 0 0 0 .43-.25zm4.22 1.22l1.16-1.32a.38.38 0 0 0-.3-.63q-1.92.06-1.63 1.74a.45.44-29.4 0 0 .77.21zm29.65-1.767a1 .4-1 0 0-1.007-.382 1 .4-1 0 0-.993.417 1 .4-1 0 0 1.007.382 1 .4-1 0 0 .993-.417zm-32.91 2.118q-.22-.41-.57-.36a.27.27 0 0 0-.04.53l.4.1a.19.19 0 0 0 .21-.27zm35.35 3.52q.21-.04.37.1a.21.21 0 0 1-.02.33q-2.88 1.83-2.97 4.22-.09 2.16 2.38 2.14.84 0 .89.05.25.26.63.62a1.63 1.63 0 0 0 .93.45c2.39.34 4.63 1.56 7.21.71a.24.24 0 0 0-.07-.46q-.22-.01-.85-.36a.38.38 0 0 1-.03-.64q.93-.64 2.49.11a.81.8-66.9 0 0 1.1-.45q.48-1.27 1.5-.79a1.49 1.43 82.4 0 0 1.68-2.29q-.01-.02-.67-.25a.98.94 51 0 0-.47-.06l-10.18 1.06a.34.34 0 0 1-.36-.46l.12-.32a1.43 1.42-84.4 0 1 1.08-.89l2.15-.38a.9.9 0 0 0 .54-.32q1.75-2.13 6.24-2.88a2.81 2.81 0 0 0 1.68-.98l.14-.17a.42.42 0 0 0-.38-.69q-3.74.49-7.61-1.04-2.22-.87-5 .99a.2.2 0 0 0 .11.36q.05 0 1.37-.48a.92.92 0 0 1 .9 1.57q-2.1 1.74-4.9 1.2zm-28.7 1.47q-1.53-1.08-1.14-2.25a.71.7-70.5 0 0-.41-.87q-1.9-.73-3.97-.23a.39.39 0 0 0-.26.55l.18.39a.41.41 0 0 0 .49.22q1.32-.4 2.39-.14a1.03 1.02-.9 0 1 .76.73c.32 1.25.37 2 1.16 2.35q.54.24.81.03a.48.48 0 0 0-.01-.78zm4.98 2.09q1.32.51 2.12.11a.36.36 0 0 0 .05-.62q-.1-.08-1.7-.7-1.61-.62-1.74-.64a.36.36 0 0 0-.38.5q.32.83 1.65 1.35zm80.22 8.95q-1.04.27-2.37-.95-3.35-3.09-4.17-4.37a2.09 2.05 2 0 0-.56-.59l-4-2.87a1.18 1.16 13.6 0 1-.46-.74l-.06-.31a1.06 1.06 0 0 0-.86-.86q-2.25-.39-3.78.77a.66.66 0 0 0 .59 1.15q1.78-.56 3.56-.28a1.4 1.36-10.9 0 1 .96.63c.73 1.15 3.67 2.93 5.23 4.65q2.54 2.8 5.43 4.89a.72.66-77.9 0 0 1.03-.74q-.02-.18-.17-.31-.14-.12-.37-.07zm-86.55-8.16l-1.49-.87a.5.5 0 0 0-.58.8q.6.55 1.98.46a.21.21 0 0 0 .09-.39zm-42.195-.515a.88.71-110.3 0 0-.361 1.072.88.71-110.3 0 0 .971.579.88.71-110.3 0 0 .361-1.072.88.71-110.3 0 0-.971-.579zm44.465.335a.74.7-12.3 0 0-.8 1.18q.44.37 1.43.46a.35.35 0 0 0 .33-.53q-.58-.95-.96-1.11zm84 6.16q-1.72-2.93-4.4-4.55a.44.43-61.6 0 0-.62.19l-.06.15a.47.46-67.8 0 0 .26.63q2.81 1.03 4.38 3.99a.07.06-17.9 0 0 .07.03l.27-.13a.22.22 0 0 0 .1-.31zm-87.74-1.09q.08.52.75.43 1.08-.15 1.56-.56a.97.96-54.1 0 1 1.02-.17q.95.4 1.58-.12c.09-.07.09-.31.08-.4-.02-.09-.09-.32-.2-.36q-.77-.28-1.54.4a.97.96 35.4 0 1-1.02.17q-.59-.24-1.65-.03-.67.13-.58.64zm-66.137 1.934a1.45.53-176.6 0 0 1.416.615 1.45.53-176.6 0 0 1.479-.443 1.45.53-176.6 0 0-1.416-.615 1.45.53-176.6 0 0-1.479.443zm87.108 2.643a2.65.89-7 0 0-2.739-.56 2.65.89-7 0 0-2.522 1.206 2.65.89-7 0 0 2.739.56 2.65.89-7 0 0 2.522-1.206zm74.81 1.103q.56.2 1.12.33a.19.19 0 0 0 .19-.31q-.43-.49-1.07-.71-.63-.23-1.27-.12a.19.19 0 0 0-.05.36q.52.25 1.08.45zm-118.19.16l-1.45-.49a.38.38 0 0 0-.47.24l-.1.32a.31.31 0 0 0 .19.39q1.01.35 1.79.18a.33.33 0 0 0 .04-.64zm14.98-.36l-.99-.03a.41.41 0 0 0-.36.62q.51.85 1.5.57a.59.59 0 0 0-.15-1.16zm-8.99 1.56a.31.3-83.9 0 0 .28.35q1.29.09 2.81-.34a1.89 1.88 59.4 0 1 1.86.48l.93.93a.85.85 0 0 1-.24 1.37l-5.83 2.73a.72.72 0 0 0-.34.34q-.48 1-1.73.91a.87.86 28.7 0 0-.56.16q-.29.21-.27.73a.39.38-1.5 0 0 .39.36q1.14-.02 1.61-.71a.53.52-74.2 0 1 .42-.24c2.52-.17 4.07-3.03 7.09-2.63a.74.73-82.1 0 0 .82-.63q.26-1.86-1.08-3.72-.23-.32-.16-.95a.69.69 0 0 0-1.16-.58q-1.78 1.67-4.35 1.03a.38.37-77.7 0 0-.47.31l-.02.1zm-41.692-.823a.95.78-148.7 0 0 .407 1.16.95.78-148.7 0 0 1.217-.173.95.78-148.7 0 0-.406-1.16.95.78-148.7 0 0-1.217.173zm34.046 2.217a.83.47-49 0 0-.899.318.83.47-49 0 0-.19.935.83.47-49 0 0 .899-.318.83.47-49 0 0 .19-.935zm136.026 1.256a.06.04 45 0 0 .01.07q.74.66.9 1.77.03.18.41.37.39.19.69-.06a.37.35 55.1 0 0 .07-.46l-1.43-2.36a.04.04 0 0 0-.06 0l-.59.67zm-144.32.91q-1.51-.14-4.01-.18-.6-.01-.96.31-.44.41-.35.93a.61.61 0 0 0 .98.37q1.6-1.28 3.31-.37.74.39 1.34-.32a.45.45 0 0 0-.31-.74zm122.985 1.059a.95.43-75.7 0 0-.651.814.95.43-75.7 0 0 .182 1.027.95.43-75.7 0 0 .651-.814.95.43-75.7 0 0-.182-1.027zM79.3 187.35l-1.29-1.14a.57.57 0 0 0-.91.62q.4 1.11 2.02 1.03a.29.29 0 0 0 .18-.51zm88.51.56l-1.79-.47a.57.56 19 0 0-.67.32l-.39.9q-1.24.49-2.63.48a.26.25 13 0 0-.23.14q-.05.12-.04.26a.24.23 7.4 0 0 .17.21q1.25.34 1.6 1.04c.77 1.54 1.83 2.32 3.13 3.37a.57.56-49.9 0 0 .78-.07q.37-.41.9-.46 4.78-.38 7.21-1.61a.22.21 67.7 0 0 .1-.26q-.03-.09-.04-.16a.66.65 85.9 0 1 .59-.69q.67-.07 1 .55a.35.34-34.1 0 0 .53.1q.21-.18.83-.27a.25.24 59.2 0 0 .11-.44q-2.4-1.72-3.65-2.64-2.46-1.79-2.85-1.66-.37.12-.38.13a1.17.42-51.4 0 1-.7.43q-1.82.07-3.58.8zm-9.866.161a1.17.45-19.4 0 0-1.253-.036 1.17.45-19.4 0 0-.954.813 1.17.45-19.4 0 0 1.253.036 1.17.45-19.4 0 0 .954-.813zm-42.774 1.249q.06.58.59.61 1.09.06 1.49-.42a.34.34 0 0 0-.34-.55q-1.17.25-1.39.13a.23.23 0 0 0-.35.23zm92.1.7q1.16.03 3.51 1.18a.38.38 0 0 0 .44-.6q-1.43-1.51-3.21-1.5-.56 0-.95.47a.28.28 0 0 0 .21.45zm-2.865 4.21a.26.26 0 0 0-.143-.339l-11.796-4.814a.26.26 0 0 0-.339.143l-.053.13a.26.26 0 0 0 .143.339l11.796 4.814a.26.26 0 0 0 .339-.142l.053-.13zM87.29 191.91q-1.3-1.46-3.41-2.05-.2-.06-.5.15a.12.12 0 0 0 .01.2l3.59 2.08a.25.25 0 0 0 .31-.38zm-5.273-1.5a.82.34-4.9 0 0-.846-.269.82.34-4.9 0 0-.788.409.82.34-4.9 0 0 .846.269.82.34-4.9 0 0 .788-.409zm40.073 4.13q-1.45-1.3-2.12-3.59a.13.13 0 0 0-.08-.08l-.78-.2a.3.3 0 0 0-.36.38q.67 2.11 2.59 4.17a.12.12 0 0 0 .16.02l.58-.44a.17.17 0 0 0 .01-.26zm-5.583-1.364a1.39.76-109 0 0-.266 1.562 1.39.76-109 0 0 1.171 1.067 1.39.76-109 0 0 .266-1.562 1.39.76-109 0 0-1.171-1.067zm61.003.974l1.94.05a.39.39 0 0 0 .4-.38l.01-.33a.38.37-.7 0 0-.4-.38q-1.01.07-1.72-.2a.46.46 0 0 0-.63.42l-.01.39a.42.42 0 0 0 .41.43zm-36.27 1.26q-.27-.49-.26-.7a1.17 1.16-.7 0 0-1.21-1.17q-4.64.18-6.79.82a.99.99 0 0 0 .37 1.93q1.24-.12 2.42.77a1.12 1.11-31.4 0 0 .85.2l4.08-.73a.77.76 71 0 0 .54-1.12zm-51.914-.87a1.81.39-138.9 0 0 1.108 1.484 1.81.39-138.9 0 0 1.62.896 1.81.39-138.9 0 0-1.108-1.484 1.81.39-138.9 0 0-1.62-.896zm124.274 2.79a.79.78-16.5 0 0 1.37.73q.03-.03-.13-.55a.42.42 0 0 0-.41-.29q-.79.01-.83.11zm-92.7 5.08c2.62-.1 2.87-1.31 1.93-3.64q-.43-1.05-1.46-.54a.53.52-33.4 0 0-.17.81q1.58 1.84-.41 3a.2.2 0 0 0 .11.37zm58.65 4.56a.23.23 0 0 0-.07-.22l-6.99-7.32a2.38 2.37 68.8 0 0-1.63-.72l-5.02-.12a.43.43 0 0 0-.29.75c1.37 1.19 2.52 1.43 4.19.94q1.29-.37 1.52-.22a3.74 3.54-5.4 0 1 .69.54l6.93 6.83a.37.37 0 0 0 .63-.21l.04-.25zm-66.74-.16c-.84-.87-4.47-3.06-5.13-4.79q-.24-.62-.49-.76-.63-.34-1.12.04a.32.32 0 0 0-.02.49l6.33 5.56a.14.12-31.1 0 0 .12.02q.18-.05.25-.09a.31.31 0 0 0 .06-.47zm6.539-4.248a2.17.53-1.8 0 0-2.186-.462 2.17.53-1.8 0 0-2.152.598 2.17.53-1.8 0 0 2.186.461 2.17.53-1.8 0 0 2.152-.598zm97.834-.272a.77.53-174.8 0 0 .719.598.77.53-174.8 0 0 .815-.458.77.53-174.8 0 0-.719-.598.77.53-174.8 0 0-.815.458zm19.317 1.1l1.25 1.1a.55.52 67.3 0 0 .27.12q.61.09.9-.41.35-.6-.23-.89-.62-.32-2.08-.25a.19.19 0 0 0-.11.33zm-.99.15a.22.22 0 0 0-.14-.38q-2.46-.1-2.32 1.2a.71.71 0 0 0 1.21.43l1.25-1.25zm-143.109.679a.73.44-143.8 0 0 .329.786.73.44-143.8 0 0 .849.076.73.44-143.8 0 0-.329-.786.73.44-143.8 0 0-.849-.076zm11.989 2.191q.64-.15 1.02-1.3a.5.5 0 0 0-.88-.46q-.15.21-.57 1.26a.37.37 0 0 0 .43.5zm-2.388-.645a.09.03-150.1 0 0 .063.071.09.03-150.1 0 0 .093.019.09.03-150.1 0 0-.063-.071.09.03-150.1 0 0-.093-.019zm6.376 2.36a.79.45-107.1 0 0-.198.887.79.45-107.1 0 0 .662.623.79.45-107.1 0 0 .198-.887.79.45-107.1 0 0-.662-.623zm36.892 5.099a.55.44-138.2 0 0 .117.695.55.44-138.2 0 0 .703.039.55.44-138.2 0 0-.117-.695.55.44-138.2 0 0-.703-.039zm-47.7 1.207a.5.46-3.1 0 0-.69-.56q-.46.21-.51.45a.48.46-1.7 0 0 .59.54q.48-.13.61-.43zm26.519 1.701a.88.46-146.2 0 0 .475.872.88.46-146.2 0 0 .987.107.88.46-146.2 0 0-.475-.872.88.46-146.2 0 0-.987-.107z"/><ellipse cx="0" cy="0" transform="matrix(-.033155 -.99945 .99945 -.033155 221.21 121.66)" rx="2.11" ry=".95"/><ellipse cx="0" cy="0" transform="matrix(.997564 -.069756 .069756 .997564 383.27 120.37)" rx="2.42" ry=".7"/></g><path d="M415.81 125.57q.26 1.17-.86 1.62-1.09.44-8.02 2.69a.23.23 0 0 1-.3-.22l.01-.3a.16.15 82.8 0 1 .11-.15q3.3-.92 4.37-1.71.55-.4 1.77-.15.68.14 1.64-.72a1.2 1.2 0 0 0-.33-1.99q-2.32-1-4.58-1.72-2.59-.83-4.8-.93-4.43-.21-9.54.35a.95.95 0 0 0-.23 1.83l2.7 1.03a.46.45 56 0 1-.17.88l-2.16-.05a.62.59-16.8 0 1-.46-.23q-.82-1.05-2.04-.01a.41.41 0 0 1-.68-.26q-.19-1.33-2.28-1.97a.52.52 0 0 1 .13-1.01q1.05-.04 1.37-1.15a.76.76 0 0 1 .81-.54q1.45.17 3.01-.41a1.77 1.7 39.7 0 1 .95-.07q.62.13 8.5.39 3.83.12 9.9 2.63a2.08 1.58 52.9 0 0 .32.09l3.55.67a.49.49 0 0 1-.11.97l-2.17-.05a.41.4-5.5 0 0-.41.49zm-22.52-2.67c-.54.03-.75.52-.17.76q.49.2.67-.05a.51.45 13.4 0 0-.5-.71z" class="B"/><path d="M149.93 121.03l1.81 2.22a.57.56 56.5 0 1-.17.86q-.27.15-.31.2a.56.56 0 0 0 .4.86q.2.02.29.05a.19.19 0 0 1-.03.36q-1.53.3-2.41-.31a1.42 1.4-30.1 0 0-1.01-.26q-3.19.39-5.41.91-1.25.29-1.12.76a1.11 1.11 0 0 1-1.03 1.4q-6.59.26-10.01-3.86l19-3.19z" class="D"/><ellipse cx="0" cy="0" transform="matrix(.549023 -.835807 .835807 .549023 299.74 125.18)" rx="5.1" ry=".92" class="C"/><path d="M241.21 125.23a.13.13 0 0 1-.09.16l-.08.02a1.85 1.43 75 0 1-1.86-1.41l-.07-.27a1.85 1.43 75 0 1 .9-2.16l.08-.02a.13.13 0 0 1 .16.09l.96 3.59z" class="D"/><ellipse cx="0" cy="0" transform="matrix(-.071497 -.997441 .997441 -.071497 246.49 124.24)" rx="2.09" ry=".81" class="C"/><path d="M164.04 123.29a.42.42 0 0 1 .5-.58c1.52.46 2.79.27 3.99 1.22q1.57 1.24 3.94 1.52a.64.63 6.9 0 1 .55.7l-.03.33a.3.3 0 0 1-.35.26q-2.25-.37-5.47-2.65-.77-.54-1.86.2a.64.63 60.3 0 1-.93-.26l-.34-.74zm266.54.67q-2.79.28-5.02-.98 2.76.09 5.02.98z" class="B"/><path d="M393.12 123.66c-.58-.24-.37-.73.17-.76a.51.45 13.4 0 1 .5.71q-.18.25-.67.05z" class="C"/><path d="M360.66 140.06c-.25 5.32.99 11.13-1.28 16.03a.27.27 0 0 1-.49-.01q-.51-1.23-.4-2.58.14-1.75.05-8.74-.04-2.42.08-4.8.11-2.38.37-4.78.76-6.95.79-8.71.02-1.35.65-2.53a.27.27 0 0 1 .49.03c1.79 5.1-.01 10.77-.26 16.09z" class="B"/><path d="M248.34 124.89q-.36-.56-.02-.95a1.01.95 40 0 1 1.35-.08q1.2.95 2.98 1.39a.91.85 45.7 0 1 .04 1.73q-.02 0-.52-.06a.92.91 89.2 0 1-.8-.78q-.17-1.25-2.44-.97a.61.6 69.7 0 1-.59-.28zm126.59.92l-3.49.44a.9.9 0 0 1-.93-.53l-.14-.32a1.18 1.18 0 0 1 1.21-1.32l7.23.21a.8.8 0 0 1 .56 1.35q-.46.48-1.9.98-1.38.48-1.88-.47a.65.65 0 0 0-.66-.34z" class="C"/><path d="M408.41 124.4a.46.45-20.2 0 1 .76.35l-.01.58a.38.38 0 0 1-.11.24q-1.44 1.31-3.82 1.58-1.28.15-1.3-1.4a1.14.91-75.4 0 1 1.49-1.12q1.46 1.15 2.99-.23z" class="E"/><path d="M191.02 132.1q.8-3.05-1.9-5.42.61-.83.64-.96a.98.98 0 0 1 1.81-.33q2 3.42 2.41 7.04a.46.46 0 0 1-.49.51q-1.22-.07-2.47-.84z" class="D"/><g class="C"><ellipse cx="0" cy="0" transform="matrix(-.740805 -.671721 .671721 -.740805 255.42 127.35)" rx="1.18" ry=".72"/><path d="M248.63 127.21a1.07.9-28.1 0 1 1.93.41q-.24.83-1.22.49-.99-.35-.71-.9z"/></g><g class="B"><path d="M440.53 127.05q0 .04.01.08-.48.03-.84-.27.44-.06.83.19z"/><ellipse cx="0" cy="0" transform="matrix(.395546 -.918446 .918446 .395546 325.17 146.34)" rx="20.11" ry="15.42"/><path d="M392.29 129.43a.31.31 0 0 1-.34.48q-1.71-.47-3.49-.01c-2.99.77-4.31.01-7.42-1.24a.8.8 0 0 1 .4-1.54q2.09.27 5.78 1.89a2.06 1.97 52.1 0 0 1.07.16q2.5-.33 2.68-.32.96.07 1.32.58z"/></g><path d="M441.25 127.19q-.25.07-.49-.01-.11-.03-.22-.05-.01-.04-.01-.08l.72.14z" class="G"/><path d="M283.94 172.89q.42-.16.58-.52.13-.3-.08-.76-1.76-3.71-1.7-7.86.29-20.14.52-28.75c.06-2.27.06-4.06 1.26-5.92q.59-.91.9-1.96l4.12 2.17a1.39 1.39 0 0 1 .74 1.26l-1.02 43.08a.87.87 0 0 1-1.17.79l-4.15-1.53z" class="C"/><path d="M441.25 127.19l4.21 1.28q.31.45 1 .26l1.88.5q-3.97.51-7.58-2.05.24.08.49.01z" class="B"/><g class="C"><ellipse cx="0" cy="0" transform="matrix(.626604 -.779338 .779338 .626604 252.66 128.72)" rx="1.15" ry=".9"/><rect x="-.66" y="-2.38" transform="matrix(.999507 -.031411 .031411 .999507 258.35 130.46)" width="1.32" height="4.76" rx=".49"/></g><path d="M424.1 128.97l-2.55.32a.32.32 0 0 1-.22-.58q1.49-1 2.87-.37a.33.33 0 0 1-.1.63z" class="B"/><path d="M446.46 128.73q-.69.19-1-.26.56.03 1 .26z" class="C"/><ellipse cx="0" cy="0" transform="matrix(-.165048 -.986286 .986286 -.165048 189.12 130.32)" rx="1.36" ry="1.04" class="D"/><circle cx="255.54" cy="130.25" r=".89" class="C"/><path d="M174.33 136.96a.45.44-35.6 0 1-.14.84l-8.32 1.05a.84.83 88.8 0 0-.73.77q-.02.39-.03.41a.67.67 0 0 1-.9.43q-1.72-.7-3.15.02a2.06 2.06 0 0 1-1.44.16l-5.45-1.43a.59.58 38.2 0 1-.13-1.08q.61-.32 1.7-.24a.33.33 0 0 0 .21-.6l-3.49-2.42a2.29 2.27-30.7 0 0-1.6-.4l-1 .13a1.28 1.27-27.2 0 1-1.01-.32q-2.9-2.64-7.26-4.17a.04.03 14.9 0 1-.02-.03l-.06-.44a.15.15 0 0 1 .22-.15l7.28 3.57a.76.7 55.4 0 0 .31.07l2.45.06a1.12 1.1-23.6 0 1 .7.27l2.79 2.45a1.07 1.04-24.6 0 0 .76.27q7.03-.32 13.71-1.45.12-.37.4-.42.25-.06.54.2 1.59 1.43 3.66 2.45z" class="D"/><g class="C"><ellipse cx="0" cy="0" transform="matrix(-.421036 -.907044 .907044 -.421036 261.67 131.76)" rx="2.28" ry="1.04"/><ellipse cx="0" cy="0" transform="matrix(.999743 -.022687 .022687 .999743 413.75 130.36)" rx="1.95" ry=".5"/></g><ellipse cx="0" cy="0" transform="matrix(-.91212 -.409923 .409923 -.91212 449.46 131.33)" rx="1.02" ry=".53" class="B"/><path d="M96.74 131.04q-.23.68.8 1.18a1.04.99 36.2 0 1 .3 1.66q-1.51 1.35-3.63 1.26a3.43 3.42 38.7 0 0-1.1.12q-5.88 1.6-10.73 1.39a.54.54 0 0 0-.19 1.05c2.05.65 4.02.99 4.33 2a.43.41-85 0 0 .19.24l6.59 3.96a1.48 1.44-28.1 0 0 .72.21l1.77.04a1.6 1.59-22.1 0 1 1.05.44q1.55 1.46 2.89 2.3a3.57 2.98 42.8 0 0 3.48.18q1.44-.91 3.77-.7a2.26 2.19-56.1 0 0 1.27-.27q1.87-1.03 4.97-.48.8.14.82-.7a.34.34 0 0 1 .58-.24l2.86 2.86a.32.32 0 0 1-.08.51l-1.49.79a2.36 2.18-60.5 0 1-.84.27q-2.38.25-6.83 1.21a.52.51-31.5 0 0-.22.9q.4.33.28.6a.49.49 0 0 1-.64.26q-1.99-.84-3.45-.64c-2.81.41-5.22-.68-7.5-1.45a.68.68 0 0 1 .23-1.33l1.72.05a.58.58 0 0 0 .5-.9q-1.75-2.65-4.77-2.75a2.92 2.89 59.8 0 1-1.3-.35l-17.76-9.64 21.41-4.03z" class="D"/><rect x="-.79" y="-2.35" transform="matrix(.99863 -.052336 .052336 .99863 264.74 133.28)" width="1.58" height="4.7" rx=".75" class="C"/><path d="M120.8 131.85q.62.39.87 1.01a.23.23 0 0 1-.31.3q-.53-.24-1.04-.57-.51-.33-.94-.71a.23.23 0 0 1 .14-.41q.67-.02 1.28.38z" class="B"/><path d="M424.85 131.64q-.05.15-.39.23a.45.4.9 0 1-.55-.51q.05-.16.39-.24a.46.41 1.5 0 1 .55.52z" class="C"/><path d="M448.7 136.9c-.95.1-1.91-.58-2.75-.77q-2.89-.64-7.19-1.4-5.71-1.02-11.34-3.08a.28.28 0 0 1 .13-.54c3.45.41 6.79 3.07 10.45 2.22 2.51-.59 3.56 1.66 5.82 1.88q.65.06 4.92 1.06a.32.32 0 0 1-.04.63z" class="B"/><g class="C"><path d="M252.74 132.36a.65.63-80.5 0 1 1-.74q.11.09.37 1.07a.35.34 2.8 0 1-.46.41q-.73-.27-.91-.74z"/><ellipse cx="0" cy="0" transform="matrix(-.920505 -.390731 .390731 -.920505 419.51 131.84)" rx=".82" ry=".33"/></g><path d="M456.38 131.68q-.27 1.36-1.08 2.25a.47.46 43.3 0 1-.67.01l-.24-.24a.28.28 0 0 1-.01-.39l1.63-1.74q.17-.18.37.11z" class="B"/><ellipse cx="0" cy="0" transform="matrix(-.973976 -.226651 .226651 -.973976 390.13 132.57)" rx="1.53" ry=".42" class="C"/><path d="M404.56 137.08q-4.93-1.41-9.24-4.09a.38.38 0 0 1 .31-.69q1.4.44 2.33 1.36c1.59 1.57 4.31 2.09 6.62 2.92a.16.16 0 0 1 .1.19l-.08.29a.03.02 9.2 0 1-.04.02z" class="B"/><g class="C"><rect x="-.67" y="-2.49" transform="matrix(.999925 -.012217 .012217 .999925 267.83 134.97)" width="1.34" height="4.98" rx=".31"/><path d="M463.98 133.85c-1.29 1.66-3.2 1.22-3.49-.92q1.85.1 3.49.92z"/></g><path d="M113.41 133.84a.18.18 0 0 1 .01-.26l.18-.16a.05.05 0 0 1 .06 0q1.9 1.94 4.32 2.09a.38.37-84.4 0 1 .35.43l-.01.13a.36.35-78.2 0 1-.44.29q-2.46-.64-4.47-2.52z" class="B"/><g class="C"><ellipse cx="0" cy="0" transform="matrix(-.811064 -.584958 .584958 -.811064 258.31 134.72)" rx="1.24" ry=".67"/><rect x="-.68" y="-2.03" transform="matrix(.999976 .006981 -.006981 .999976 271.54 136.16)" width="1.36" height="4.06" rx=".64"/><ellipse cx="0" cy="0" transform="matrix(.999391 -.034899 .034899 .999391 378.49 135.27)" rx="2.83" ry=".75"/><path d="M427.06 135.37l.02-.07a3.54.85 12.8 0 1 3.64-.04l.39.09a3.54.85 12.8 0 1 3.26 1.61l-.01.07-7.3-1.66z"/></g><ellipse cx="0" cy="0" transform="matrix(-.993961 -.109734 .109734 -.993961 458.72 135.59)" rx=".43" ry=".36" class="B"/><ellipse cx="0" cy="0" transform="matrix(.015707 -.999877 .999877 .015707 274.82 137.77)" rx="2.25" ry=".89" class="C"/><ellipse cx="0" cy="0" transform="matrix(.988756 -.149535 .149535 .988756 149.01 136.64)" rx=".86" ry=".51" class="B"/><g class="C"><path d="M452.6 137.24q.91-.5 1.52-.73.58-.23.72.15.11.31 0 .63a.52.52 0 0 1-.52.35l-1.65-.09a.17.16 32.4 0 1-.07-.31z"/><ellipse cx="0" cy="0" transform="matrix(-.700909 -.71325 .71325 -.700909 263.53 137.37)" rx=".76" ry=".53"/><ellipse cx="0" cy="0" transform="matrix(-.579281 -.815128 .815128 -.579281 265.48 138.19)" rx=".7" ry=".47"/><path d="M278.19 141.35a.27.26-33.6 0 1-.5-.1l-.22-3.21a.48.47 6 0 1 .61-.49l.12.04a1.11 1.11 0 0 1 .78 1.1q-.04 1.19-.79 2.66z"/><ellipse cx="0" cy="0" transform="matrix(-.959805 -.280667 .280667 -.959805 379.8 138.1)" rx="1.14" ry=".58"/></g><ellipse cx="0" cy="0" transform="matrix(-.801776 -.597625 .597625 -.801776 406.05 138.55)" rx="1.41" ry=".39" class="B"/><path d="M211.1 147.15q1.3 1.15 3.46 1.16l1.91.23a.82.82 0 0 1 .67.56q.35 1.09 1.1 1.26 3.81.9 5.26 4.03 2.2 1.05 4.1.99a.75.72 55.6 0 1 .29.06l5.38 2.64a1.68 1.65 83.6 0 1 .59.48q1.57 1.97 2.91 2.72l4.75 2.86q.55-.07 1.27-.34a.82.81 67.3 0 1 1.03.43q.94 2.14 2.49 2.22a.39.39 0 0 0 .4-.47q-.3-1.25 1.32-.91 2.27.48 3.26.59a1.1 1.1 0 0 1 .88 1.56q-1.05 2.26-2.53 3.62a.97.95 63.1 0 0-.29.92q0 .02.38.85.37.82-.15 1.3-.66.62-1.82.44a.23.22 13.6 0 0-.25.15v.01a.26.26 0 0 0 .21.33q2.21.35 3.76-.41a1.09 1.07-12.6 0 0 .6-.93q.03-.75.38-1.19.18-.23.6-.18.43.05.81-.16.17-.1.32-.89.24-1.22 1.58-1.04 4.73.61 6.09.5a2.05 2-32.4 0 1 1.14.24q.56.31 1.44.43a.86.85 86.3 0 1 .7.62l.2.73q-.2.08-.27.41-.34.52-.32.96a.6.6 0 0 0 .75.54q1.8-.47 2.38.94a1.71 1.7-84.6 0 0 .64.78q1.64 1.03 3.64 1.47c3.23.7 5.9 3.04 10.28 5.72a2.2 2.14-.9 0 1 .69.65q1.3 1.92 2.35 2.11 3.28.59 6 2.18 1.99.89 1.97 1.9-.28.4-.33.82-.07.66.45.58.78-.12 1.52-.82a.69.66-16.2 0 1 1.15.6c-.64 2.74-2.73 1.83-4.57 2.88q-1.61-.22-2.75.12-9.57 2.95-19.15 4.96-2.74-.58-6.2.63a3.39 3.28-53.7 0 1-1.19.2q-2-.02-3.83 1.02a1.74 1.71 33.9 0 1-1.12.21q-3.36-.51-6.27-3.2a.22.22 0 0 1 .01-.33q.1-.09.18-.22a.03.02 58.3 0 0 0-.03l-1.94-2.86a.33.33 0 0 1 .32-.51l4.96.65a2.15 1.82 40.3 0 0 .49 0q3.51-.51 5.94-2.08a.79.79 0 0 0-.39-1.45q-.31-.01-.38-.01c1.82-.2 3.85-.01 5.42.01a.31.31 0 0 0 .13-.6q-2.34-1.06-3.77-2.6a.63.57 81.4 0 0-.16-.13l-6.65-4.23a.54.29 1.8 0 0-.12-.07q-6.4-2.68-8.12-4.08-2.28-1.86-3.63-2.12a.3.3 0 0 0-.31.44q.49.83 1.61.89 1.34.07 2.3 1.48a.36.36 0 0 1-.24.56q-1.47.24-2.55-.02a.36.35-5.3 0 0-.41.49l.27.56a.22.22 0 0 0 .14.13q2.03.54 4.27-.23a.94.93-34.4 0 1 .92.17q.98.83 2.41 1.09v.01q-.77.01-1.46.34a1.36 1.32 36.3 0 1-.87.12q-3.69-.7-5.54-1.16-.82-.21-.9-1.59a.52.52 0 0 0-.62-.48q-1.77.37-2.75-1.39a.99.99 0 0 0-.99-.51l-6.42.81a.97.97 0 0 0-.46 1.73q1.12.85 1.78 2.19a.35.35 0 0 1-.58.38q-2.07-2.41-4.62-3.71a1.23 1.21-43 0 0-1.04-.03q-1.85.78-2.48 1.73a1.58 1.57-53.3 0 0 .3 2.07q2.27 1.89 3.67 3.95a.83.78-88.1 0 0 .14.16l7.3 7.6a.15.03 46.4 0 1 .06.1q0 .02 0 .04a.01.01 0 0 1-.02.01q-4.18-4.34-10.08-10.24-.59-.59-1.86-2.63a.85.82-88.8 0 0-.23-.25l-4.71-3.45a.19.18 57.2 0 0-.13-.03q-.94.11-1.56-1.42a.9.88-39.3 0 1 .1-.86q1.13-1.61 2.52-2.32a.73.73 0 0 0 .33-.96q-.98-2.1-2.65-2.37a1.16 1.15 7.3 0 1-.96-1.23v-.02a.81.81 0 0 1 1.02-.71q3.03.83 3.52.62a.34.34 0 0 0-.03-.63l-2.97-1.02a1.17 1.16 32.1 0 0-1.19.27l-.3.31a1.18 1.17-61.5 0 1-1.07.32q-2.83-.6-4.16-2.68a1.57 1.54-12.9 0 0-1.15-.71q-1.18-.11-1.26-.98a.65.64 81.8 0 0-.76-.57q-.29.05-2.17-1.22a.18.18 0 0 1 .01-.31q.16-.11.17-.13a.21.2-69.1 0 0-.12-.28q-2.51-.9-1.99-3.36a.61.61 0 0 1 .62-.48q2.01.06 2.01-.07a1.38 1.36 1.9 0 0-1.33-1.4q-.4-.02-.74.58a1.17 1.17 0 0 1-1.04.6q-1.93-.03-4.01 1.93a1.09 1.08-54.9 0 1-1.17.21q-.09-.04-.28-.34a.69.69 0 0 0-.99-.18l-.85.64a.4.4 0 0 0 .26.72l2.75-.16a.2.15 72.4 0 1 .17.12q.01.02.03.04a.03.03 0 0 1-.02.05q-2.7.36-4.69-.2a1.28 1.26 40.4 0 0-.91.07l-2.28 1.07a1.01 1-51.3 0 1-.6.07q-1.41-.25-2.91.53-1.72.9-2.58.67-1.76-.47-3.02-1.56a1.62 1.58 74.8 0 0-.49-.29l-3.32-1.24a2.04 2.03 78 0 1-.75-.49q-1.6-1.63-4.4-3.84-1.45-1.15-3.16-.96a.24.24 0 0 1-.23-.36l.67-1.16a1.19 1.18 15.6 0 1 1.06-.59l4.81.11a1.24 1.23 23.4 0 0 .92-.36l.51-.52a.5.5 0 0 0-.34-.86l-3.55-.09a.71.71 0 0 1-.24-1.38q2.48-.95 5 .34a1.02 1 14.4 0 1 .55.91l-.04 1.66a.66.65-80.5 0 0 .45.64l5.02 1.68a2.7 2.68 41.7 0 0 2.01-.11l17.73-8.31a.33.32 54 0 0 .08-.53c-2.64-2.53-4.43-3.83-5.41-8.12q5.09 2.05 9.32 5.54a5.42 5.33-15.3 0 0 1.7.95q2.7.95 3.91 1.71a.2.2 0 0 1-.09.37l-4.18.53a.2.2 0 0 0-.02.39q.27.06.48-.01zm-6.16 4.63c3.93-.7 7.64 1.66 10.81 4.02a.34.33 37 0 0 .47-.06l.03-.05a.3.29 38.9 0 0-.05-.42q-4.18-3.27-8.3-5.51c-1.49-.82-2.13-2.11-4.07-1.9a.55.55 0 0 0-.22 1.01q1.09.67.72 2.27a.53.53 0 0 0 .61.64zm14.94 1.444a.78.62-159.3 0 0 .51.856.78.62-159.3 0 0 .949-.304.78.62-159.3 0 0-.51-.856.78.62-159.3 0 0-.949.304zm-15.17.756l2.43 2.13a.77.77 0 0 0 1.12-1.04q-.87-1.13-3.42-1.37a.16.16 0 0 0-.13.28zm-15.83 2.14q-.88-1.2-2.26-.92a.3.29 55.7 0 0-.1.54q1.07.7 2.09.83a.29.28-14.4 0 0 .27-.45zm3.16 4.09l-3.94-.43a.59.58-1.9 0 0-.64.68l.08.47a.91.9-10.2 0 0 1.05.72l3.48-.62a.41.41 0 0 0-.03-.82zm23.96 1.86a.19.18 6.7 0 0 .22-.17l.03-.79a.13.13 0 0 0-.12-.13q-3.02-.4-5.3.33a.32.32 0 0 0-.11.55l.66.57a.14.14 0 0 0 .12.02q2.44-.85 4.5-.38zm28.84 6.01q-.75-.47-1.78-2.18a.51.51 0 0 0-.71-.17l-.03.02a.41.41 0 0 0-.15.54q.49.95.66 1.55.3 1.01.67 1.07.7.1 1.34-.32a.3.3 0 0 0 0-.51zm27.09 12.16q-.4-.33-.68-.17a.3.3 0 0 0-.09.45q.29.35.67.32a.35.3 58.8 0 0 .1-.6zm1.596.903a1.29.52-94.2 0 0-.424 1.325 1.29.52-94.2 0 0 .613 1.248 1.29.52-94.2 0 0 .424-1.325 1.29.52-94.2 0 0-.613-1.248zm4.104 3.617a.36.3 58.4 0 0 .09-.61q-.47-.39-.84-.21a.34.32-39.6 0 0-.07.56q.41.3.82.26zm1.4 2.98q.86.09 2.51 1.15a.5.5 0 0 0 .7-.16l.01-.03a.4.4 0 0 0-.1-.54q-.84-.62-1.25-1.08-.7-.76-1.05-.65-.66.21-1.04.86a.3.29-71.5 0 0 .22.45zm12.72 3.422a1.29.83-.8 0 0-1.302-.812 1.29.83-.8 0 0-1.278.848 1.29.83-.8 0 0 1.302.812 1.29.83-.8 0 0 1.278-.848zm-14.845.097a2.11.36-175.9 0 0 2.079.51 2.11.36-175.9 0 0 2.13-.208 2.11.36-175.9 0 0-2.079-.51 2.11.36-175.9 0 0-2.13.208z" class="D"/><g class="C"><ellipse cx="0" cy="0" transform="matrix(-.937282 -.348572 .348572 -.937282 438.27 138.57)" rx="2.54" ry=".21"/><rect x="-.67" y="-2.35" transform="matrix(.996637 -.081939 .081939 .996637 244.14 140.32)" width="1.34" height="4.7" rx=".64"/></g><path d="M396.71 141.92l-3.65-.09a1.21 1.03 49.7 0 1-.36-.06l-9.35-3.21a.22.22 0 0 1-.14-.27v-.02a.18.17-77.6 0 1 .2-.13q2.57.37 4.4 1.46c2 1.2 3.59 1.34 6.01 1.01q1.44-.19 3.06.43a.46.45 56.1 0 1-.17.88zm15.44-3.68q.69-.1 1.1-.04a.25.25 0 0 1 .14.43l-.38.39a.35.35 0 0 1-.49 0l-.47-.48a.18.17-26.8 0 1 .1-.3zm8.53 3.95a.86.79-28.1 0 0-1.42-.37q-1.15 1.14-2.75.29a.66.66 0 0 1-.31-.81q.55-1.41 1.36-2.33a1.5 1.49 30.7 0 1 1.66-.42l5.17 1.98a1.15 1.12-41 0 0 .72.04l.74-.2a1.74 1.72-45.3 0 1 .84-.01q2.23.52 3.77.13a2.14 2.14 0 0 1 2.47 1.17l.69 1.45a1.17 1.17 0 0 1-1.13 1.66l-9.58-.77q-1.94-.09-2.23-1.81zm11.958.207a.99.77-29.9 0 0-1.242-.174.99.77-29.9 0 0-.474 1.161.99.77-29.9 0 0 1.242.174.99.77-29.9 0 0 .474-1.161z" class="B"/><g class="C"><ellipse cx="0" cy="0" transform="matrix(-.794415 -.607376 .607376 -.794415 468.39 139.26)" rx=".45" ry=".27"/><path d="M270.96 140.44a.64.64 0 0 1-.99.62q-1.36-.9-.37-1.64a.82.82 0 0 1 1.3.56l.06.46z"/><ellipse cx="0" cy="0" transform="matrix(-.939094 -.34366 .34366 -.939094 443.22 140.36)" rx="2.55" ry=".2"/><path d="M459.93 140.01q-.55-.14-.63-.2a.25.25 0 0 1 .13-.44q.25-.03.67.22a.23.23 0 0 1-.17.42zm-212.01 1.06q-.1.02-1.14-.05a.4.39 16.5 0 1-.32-.58q.61-1.09 1.5-.64a.71.64 50 0 1-.04 1.27z"/></g><path d="M412.23 139.84q-.4 1.03-.77 1.69-.19.33-.47.34-.43.02-.46-.31a.19.17-28 0 1 .04-.11l1.53-1.7a.08.08 0 0 1 .13.09z" class="B"/><rect x="-.31" y="-5.12" transform="matrix(.944376 -.328867 .328867 .944376 125.52 145.67)" width=".62" height="10.24" rx=".27" class="F"/><ellipse cx="0" cy="0" transform="matrix(-.734915 -.67816 .67816 -.734915 272.76 141.53)" rx=".86" ry=".67" class="C"/><path d="M462.13 141.45l.04-.28a5.77.34 8.1 0 1 5.76.48l.47.07a5.77.34 8.1 0 1 5.67 1.15l-.04.27-11.9-1.69z" class="B"/><g class="C"><path d="M386.79 143.42q-1.69-.76-3.93-.47a.12.12 0 0 1-.1-.04l-.47-.6a.28.28 0 0 1 .19-.46q2.09-.22 4.61.66a.12.12 0 0 1 .08.13l-.16.68a.16.16 0 0 1-.22.1z"/><ellipse cx="0" cy="0" transform="matrix(-.889416 -.457098 .457098 -.889416 447.76 142.04)" rx=".51" ry=".19"/></g><path d="M148.87 143q-.06-.38.68-.89a.4.38 48 0 1 .49.04q.51.47.3.85a.85.7-39.6 0 1-1.47 0z" class="B"/><g class="C"><ellipse cx="0" cy="0" transform="matrix(.866897 -.498488 .498488 .866897 431.78 142.89)" rx=".99" ry=".77"/><ellipse cx="0" cy="0" transform="matrix(-.62388 -.78152 .78152 -.62388 253.64 143.59)" rx=".89" ry=".63"/></g><ellipse cx="0" cy="0" transform="matrix(-.999743 -.022687 .022687 -.999743 455 143.53)" rx="2.92" ry=".61" class="B"/><g class="C"><ellipse cx="0" cy="0" transform="matrix(-.995056 -.09932 .09932 -.995056 403.17 143.66)" rx="1.22" ry=".37"/><path d="M414.8 143.86a.32.26 50.1 0 1-.53-.1q-.16-.39.11-.54a.35.31-14.2 0 1 .52.27q-.03.21-.1.37z"/></g><path d="M148.27 147.18q-.27.2-2.3-2.36-.13-.16-.06-.32.09-.19.23-.29.13-.1.35-.12.17-.02.28.16 1.77 2.74 1.5 2.93z" class="B"/><ellipse cx="0" cy="0" transform="matrix(-.921863 -.387516 .387516 -.921863 476.93 144.18)" rx=".56" ry=".21" class="C"/><g class="B"><ellipse cx="0" cy="0" transform="matrix(.498488 -.866897 .866897 .498488 151.69 146)" rx="1.23" ry=".77"/><ellipse cx="0" cy="0" transform="matrix(-.931691 -.363251 .363251 -.931691 437.3 146.51)" rx="1.86" ry=".4"/></g><path d="M458.45 145.71q.09.04.22.15a.05.04 60.4 0 1-.02.08q-.18.01-.31-.05a.11.1-15.9 0 1 .11-.18z" class="C"/><path d="M510.29 147.41q-4.14.07-4.52-1.64l4.52 1.64z" class="B"/><path d="M254.52 146.42a.52.52 0 0 1 .23.82q-.69.85-1.35.43a.8.76 66.2 0 1 .52-1.45q.11.02.6.2zm113.64 2.61q.8-.84 1.18-2.16a.95.94 19 0 1 1.26-.61l2.68 1.07a1.61 1.46 55.9 0 0 .45.11l11.32 1.22a1.45 1.45 0 0 1 1.29 1.6l-.17 1.59a1.26 1.24-84.8 0 1-1.33 1.12l-10.31-.74a3.28 3.23 56.8 0 1-.97-.21l-5.17-1.98a.62.62 0 0 1-.23-1.01z" class="C"/><g class="B"><ellipse cx="0" cy="0" transform="matrix(.987136 -.159881 .159881 .987136 418.75 146.54)" rx="1.03" ry=".39"/><path d="M461.64 147.2q-.54.13-1.01-.27a.17.17 0 0 1 .16-.3l.86.29a.15.15 0 0 1-.01.28z"/></g><ellipse cx="0" cy="0" transform="matrix(-.998806 -.04885 .04885 -.998806 483.45 147.35)" rx="2.64" ry=".7" class="C"/><path d="M92.36 146.76a.53.49-76.4 0 1 .48.87q-.45.49-1.51.19a.3.3 0 0 1-.09-.54q.41-.27 1.12-.52zm100.29 2.19l-1.95-.95a1.84 1.82 54.3 0 0-1.05-.18l-2.75.35a.51.51 0 0 1-.25-.98q3.69-1.4 6.39 1.21a.34.34 0 0 1-.39.55z" class="B"/><path d="M214.56 148.31q-2.16-.01-3.46-1.16 2.38-1.24 4.6-.23a.67.67 0 0 1 .06 1.18q-.47.27-1.2.21z" class="C"/><g class="B"><ellipse cx="0" cy="0" transform="matrix(-.951057 -.309017 .309017 -.951057 463.84 148.02)" rx=".62" ry=".12"/><path d="M4.85 147.96q.51-.21.85-.05a.4.39 50.5 0 1-.07.74l-4.68 1.19q-.99-2.35 3.9-1.88z"/></g><g class="C"><path d="M204.94 151.78a.53.53 0 0 1-.61-.64q.37-1.6-.72-2.27a.55.55 0 0 1 .22-1.01c1.94-.21 2.58 1.08 4.07 1.9q4.12 2.24 8.3 5.51a.3.29 38.9 0 1 .05.42l-.03.05a.34.33 37 0 1-.47.06c-3.17-2.36-6.88-4.72-10.81-4.02z"/><ellipse cx="0" cy="0" transform="matrix(-.285688 -.958323 .958323 -.285688 256.8 148.78)" rx=".75" ry=".43"/></g><path d="M459.5 152.53q-.32.12-.94-.8-2.26-3.3-6.62-2.63a.42.42 0 0 1-.35-.71q.49-.48 2.71.3 2.23.79 5.1 1.55a1.2 1.2 0 0 1 .1 2.29z" class="B"/><path d="M415.6 148.99a.14.14 0 0 1 .13-.23c2.18.77 5.17.32 7.39 1.48a.26.25-34.9 0 1-.09.48q-4.42.6-7.43-1.73z" class="C"/><path d="M156.58 152.12a.4.39-29 0 1-.21.73c-2.04-.01-2.1-3.34-4.95-2.84q-.81.14-1.12-.02a.67.67 0 0 1 .2-1.26q1.83-.3 3.62.5a1.2 1.2 0 0 1 .63.66q.56 1.45 1.83 2.23z" class="B"/><path d="M264.54 150.05a.6.49-44.7 0 1 .12-1.09q.72-.13.98.37a.32.32 0 0 1-.19.46q-.87.26-.91.26z" class="C"/><g class="B"><ellipse cx="0" cy="0" transform="matrix(-.99945 -.033155 .033155 -.99945 473.6 149.54)" rx="2.93" ry=".54"/><path d="M91.8 150.51q.2.34-.08.91a.31.31 0 0 1-.47.11q-.4-.32-.4-.74a.52.51-60.5 0 1 .95-.28z"/></g><path d="M403.84 150.94c2.43.5 5.54-.43 8.07.48a.27.27 0 0 1-.02.52q-4.61 1.29-8.16-.73a.15.15 0 0 1 .11-.27zm24.65 1.31q-.95.04-1.8-.34a.17.17 0 0 1 .06-.33q.86-.08 1.74.67z" class="C"/><g class="B"><ellipse cx="0" cy="0" transform="matrix(.496974 -.867765 .867765 .496974 471.75 152.17)" rx=".66" ry=".36"/><path d="M118.46 156.61a.25.25 0 0 1-.14.47q-2.96-.33-4.33-2.27a2.02 2.01 85.1 0 0-.73-.62l-3.1-1.52a.37.37 0 0 1-.17-.5l.14-.28a.36.35-62.1 0 1 .5-.16l3.81 2.12a2.98 2.95 84 0 1 .82.67q.61.73 3.2 2.09zm41.52-4.49l3.79 1.22a.41.41 0 0 1 .12.72q-.24.18-1.35.31-.74.09-1.06-.17-1.38-1.11-1.81-1.62a.29.29 0 0 1 .31-.46z"/></g><path d="M429.32 152.46q-.38.01-.83-.21l.83.21z" class="C"/><ellipse cx="0" cy="0" transform="matrix(-.945519 -.325568 .325568 -.945519 455.5 152.99)" rx="2.21" ry=".29" class="B"/><path d="M429.32 152.46q1.84.09 4.56 1.34a.08.08 0 0 1-.04.15q-2.35-.18-4.52-1.49z" class="C"/><ellipse cx="0" cy="0" transform="matrix(-.935444 -.353475 .353475 -.935444 220.61 153.5)" rx=".78" ry=".62" class="B"/><ellipse cx="0" cy="0" transform="matrix(.608761 -.793353 .793353 .608761 91.45 154.12)" rx=".78" ry=".58" class="E"/><g class="B"><ellipse cx="0" cy="0" transform="matrix(-.967268 -.253758 .253758 -.967268 154.32 154.26)" rx="1.6" ry=".7"/><path d="M271.93 154.12q.32.99-.06 2.4-.18.7-.85.81-.3.04-.82-.19a.44.44 0 0 1-.05-.77q.44-.27 1.16-2.26a.33.33 0 0 1 .62.01z"/></g><g class="C"><ellipse cx="0" cy="0" transform="matrix(.93606 -.351842 .351842 .93606 370.19 154.54)" rx="1.94" ry=".65"/><path d="M204.84 153.7q2.55.24 3.42 1.37a.77.77 0 0 1-1.12 1.04l-2.43-2.13a.16.16 0 0 1 .13-.28z"/></g><path d="M387.35 154.53l.07-.26a.51.26-73.5 0 1 .4-.41l8.3 2.46a.51.26-73.5 0 1 .11.56l-.08.26-8.8-2.61z" class="B"/><path d="M265.34 172.56l-.2-.73a.86.85 86.3 0 0-.7-.62q-.88-.12-1.44-.43a2.05 2-32.4 0 0-1.14-.24q-1.36.11-6.09-.5-1.34-.18-1.58 1.04-.15.79-.32.89-.38.21-.81.16-.42-.05-.6.18-.35.44-.38 1.19a1.09 1.07-12.6 0 1-.6.93q-1.55.76-3.76.41a.26.26 0 0 1-.21-.33v-.01a.23.22 13.6 0 1 .25-.15q1.16.18 1.82-.44.52-.48.15-1.3-.38-.83-.38-.85a.97.95 63.1 0 1 .29-.92q1.48-1.36 2.53-3.62a1.1 1.1 0 0 0-.88-1.56q-.99-.11-3.26-.59-1.62-.34-1.32.91a.39.39 0 0 1-.4.47q-1.55-.08-2.49-2.22a.82.81 67.3 0 0-1.03-.43q-.72.27-1.27.34c-.35.04-3.24-2.01-4.75-2.86q-1.34-.75-2.91-2.72a1.68 1.65 83.6 0 0-.59-.48l-5.38-2.64a.75.72 55.6 0 0-.29-.06q-1.9.06-4.1-.99c3.15-.11 7.14-.86 9.4 1.48a.26.26 0 0 0 .38-.01q.05-.05.05-.22a.35.35 0 0 1 .51-.31q10.19 5.08 11.86 6 1.43.78 2.08 1.69a1.33 1.31 79.1 0 0 .74.51l4.07 1.07a.65.64 12.4 0 1 .48.74q-.09.47-.01.67a.29.29 0 0 0 .55-.05q.68-3.22 2.42-4.28a1.54 1.51-19.6 0 1 2.32 1.08q.22 1.67-.25 3.13a.62.57 47.4 0 0 0 .37q.14.47.76.45.24-.01.58.28.95.83 2.01 2.08a.79.79 0 0 0 1.39-.65l-.75-4.23a.49.48 81.5 0 1 .41-.57l.29-.04a.39.39 0 0 1 .44.34q.25 1.86 2.18 6.08.62 1.35-.07 2.56z" class="C"/><ellipse cx="0" cy="0" transform="matrix(-.891798 -.452435 .452435 -.891798 157.75 155.01)" rx="1.07" ry=".84" class="B"/><path d="M188.61 156.57q-1.02-.13-2.09-.83a.3.29 55.7 0 1 .1-.54q1.38-.28 2.26.92a.29.28-14.4 0 1-.27.45z" class="C"/><path d="M467.9 155.89q-3.13 1.53-6.34 1.4a.45.44-84.9 0 1-.42-.51l.03-.16a.48.47-78.8 0 1 .58-.39q2.99.7 6-.94a.07.06 51.4 0 1 .08.01l.16.27a.23.23 0 0 1-.09.32z" class="E"/><path d="M469.31 155.92a.36.36 0 0 1 .25-.67q1.12.3 1.19.38a.46.46 0 0 1-.53.74l-.91-.45zm-381.24 1.37q-.97-.77-1.03-1.24a.6.6 0 0 1 1.13-.36q.19.35.33 1.35a.27.27 0 0 1-.43.25z" class="B"/><g class="C"><ellipse cx="0" cy="0" transform="matrix(-.99889 -.047106 .047106 -.99889 437.62 156.28)" rx="2.67" ry=".61"/><ellipse cx="0" cy="0" transform="matrix(-.768284 -.64011 .64011 -.768284 374.51 156.37)" rx=".52" ry=".44"/><ellipse cx="0" cy="0" transform="matrix(-.880477 -.474088 .474088 -.880477 415.76 156.04)" rx=".51" ry=".18"/></g><path d="M92.72 158.26a.45.44-29.4 0 1-.77-.21q-.29-1.68 1.63-1.74a.38.38 0 0 1 .3.63l-1.16 1.32z" class="E"/><ellipse cx="0" cy="0" transform="matrix(.999848 -.017452 .017452 .999848 121.37 156.51)" rx="1" ry=".4" class="B"/><path d="M412.34 159.84a.13.13 0 0 1-.17.05c-1.87-.83-3.81-2.09-5.67-2.07q-1.09.02-2.19-.53a.32.32 0 0 1 .21-.59q4.14.88 7.92 2.88a.03.02 34.6 0 1 .02.04l-.12.22zm62.7-3.01q-.49.22-1.06.2-.18-.43 1.06-.2z" class="C"/><path d="M385.97 163.66l-12.48-4.17a.94.76 51.3 0 0-.18-.04l-5.45-.28a.45.45 0 0 1-.19-.85c1.64-.87 3.15-.65 5.04.21q5.82 2.64 13.38 4.89a.12.11-73 0 1 .07.15.15.15 0 0 1-.19.09zm-296.72-4.78l-.4-.1a.27.27 0 0 1 .04-.53q.35-.05.57.36a.19.19 0 0 1-.21.27z" class="B"/><path d="M124.81 162.13q2.8.54 4.9-1.2a.92.92 0 0 0-.9-1.57q-1.32.48-1.37.48a.2.2 0 0 1-.11-.36q2.78-1.86 5-.99 3.87 1.53 7.61 1.04a.42.42 0 0 1 .38.69l-.14.17a2.81 2.81 0 0 1-1.68.98q-4.49.75-6.24 2.88a.9.9 0 0 1-.54.32l-2.15.38a1.43 1.42-84.4 0 0-1.08.89l-.12.32a.34.34 0 0 0 .36.46l10.18-1.06a.98.94 51 0 1 .47.06q.66.23.67.25a1.49 1.43 82.4 0 1-1.68 2.29q-1.02-.48-1.5.79a.81.8-66.9 0 1-1.1.45q-1.56-.75-2.49-.11a.38.38 0 0 0 .03.64q.63.35.85.36a.24.24 0 0 1 .07.46c-2.58.85-4.82-.37-7.21-.71a1.63 1.63 0 0 1-.93-.45q-.38-.36-.63-.62-.05-.05-.89-.05-2.47.02-2.38-2.14.09-2.39 2.97-4.22a.21.21 0 0 0 .02-.33q-.16-.14-.37-.1zm2.22 5.57q.09.06.18.12.53.51 1.05.15.35-.24.29-.52a.89.89 0 0 0-1.56-.41q-.36.42.04.66z" class="D"/><rect x="-5.42" y="-.4" transform="matrix(.936672 .350207 -.350207 .936672 405.29 161.01)" width="10.84" height=".8" rx=".27" class="B"/><path d="M192.04 160.21a.41.41 0 0 1 .03.82l-3.48.62a.91.9-10.2 0 1-1.05-.72l-.08-.47a.59.58-1.9 0 1 .64-.68l3.94.43z" class="C"/><path d="M96.12 164.38q-.27.21-.81-.03c-.79-.35-.84-1.1-1.16-2.35a1.03 1.02-.9 0 0-.76-.73q-1.07-.26-2.39.14a.41.41 0 0 1-.49-.22l-.18-.39a.39.39 0 0 1 .26-.55q2.07-.5 3.97.23a.71.7-70.5 0 1 .41.87q-.39 1.17 1.14 2.25a.48.48 0 0 1 .01.78z" class="E"/><path d="M11.77 161.25l-1.06.09q-.12-.09-.25-.19-.13-.64-.68-.57-.13-.22-.31-.33 1.78-.39 2.3 1z" class="B"/><path d="M10.46 161.15q-.39-.22-.68-.57.55-.07.68.57zm205.54.92q-2.06-.47-4.5.38a.14.14 0 0 1-.12-.02l-.66-.57a.32.32 0 0 1 .11-.55q2.28-.73 5.3-.33a.13.13 0 0 1 .12.13l-.03.79a.19.18 6.7 0 1-.22.17zm208.89-.41a.35.28-53.2 0 1-.02-.61q.21-.13.39.02a.2.19 26.8 0 1 .07.2q-.09.41-.44.39z" class="C"/><path d="M11.77 161.25l.02.67q-.58-.02-1.08-.58l1.06-.09z" class="G"/><path d="M12.03 162.01q-.12-.05-.24-.09l-.02-.67q.2.31.26.76z" class="B"/><path d="M101.56 164.48q1.6.62 1.7.7a.36.36 0 0 1-.05.62q-.8.4-2.12-.11-1.33-.52-1.65-1.35a.36.36 0 0 1 .38-.5q.13.02 1.74.64z" class="E"/><path d="M181.68 174.71q.15.13.17.31a.72.66-77.9 0 1-1.03.74q-2.89-2.09-5.43-4.89c-1.56-1.72-4.5-3.5-5.23-4.65a1.4 1.36-10.9 0 0-.96-.63q-1.78-.28-3.56.28a.66.66 0 0 1-.59-1.15q1.53-1.16 3.78-.77a1.06 1.06 0 0 1 .86.86l.06.31a1.18 1.16 13.6 0 0 .46.74l4 2.87a2.09 2.05 2 0 1 .56.59q.82 1.28 4.17 4.37 1.33 1.22 2.37.95.23-.05.37.07z" class="B"/><path d="M419.77 164.77q-.89.63-.94.64a.56.56 0 0 1-.43-1.03q.76-.44 1.29-.25a.36.36 0 0 1 .08.64z" class="E"/><g class="B"><ellipse cx="0" cy="0" transform="matrix(-.738455 -.674302 .674302 -.738455 422.04 164.92)" rx="1" ry=".67"/><path d="M384.36 166.62v-.02a3.38 1.86-.6 0 1 3.36-1.9h.46a3.38 1.86-.6 0 1 3.4 1.82v.02l-7.22.08zm-289.69.25q-1.38.09-1.98-.46a.5.5 0 0 1 .58-.8l1.49.87a.21.21 0 0 1-.09.39z"/></g><path d="M244.84 168.08a.3.3 0 0 1 0 .51q-.64.42-1.34.32-.37-.06-.67-1.07-.17-.6-.66-1.55a.41.41 0 0 1 .15-.54l.03-.02a.51.51 0 0 1 .71.17q1.03 1.71 1.78 2.18z" class="E"/><ellipse cx="0" cy="0" transform="matrix(.996345 -.085417 .085417 .996345 412.84 166.46)" rx="1.13" ry=".68" class="C"/><ellipse cx="0" cy="0" transform="matrix(-.998537 -.054079 .054079 -.998537 415.97 166.4)" rx="1.46" ry=".72" class="G"/><g class="B"><ellipse cx="0" cy="0" transform="matrix(-.346936 -.937889 .937889 -.346936 52.87 166.79)" rx=".88" ry=".71"/><path d="M97.03 166.3q.38.16.96 1.11a.35.35 0 0 1-.33.53q-.99-.09-1.43-.46a.74.7-12.3 0 1 .8-1.18z"/></g><path d="M127.21 167.82q.46-.06.54-.21a.24.24 0 0 0-.29-.35q-.4.15-.43.44-.4-.24-.04-.66a.89.89 0 0 1 1.56.41q.06.28-.29.52-.52.36-1.05-.15zm245.04 1.22a.05.05 0 0 1-.05-.05v-.02a3.6 2.03 1 0 1 3.64-1.96h.46a3.6 2.03 1 0 1 3.56 2.1v.02a.05.05 0 0 1-.05.05l-7.56-.14z" class="C"/><path d="M127.21 167.82q-.09-.06-.18-.12.03-.29.43-.44a.24.24 0 0 1 .29.35q-.08.15-.54.21zm53.82 4.64a.22.22 0 0 1-.1.31l-.27.13a.07.06-17.9 0 1-.07-.03q-1.57-2.96-4.38-3.99a.47.46-67.8 0 1-.26-.63l.06-.15a.44.43-61.6 0 1 .62-.19q2.68 1.62 4.4 4.55z" class="B"/><path d="M370.37 169.03q-.2.04-1.39-.36a.47.46-31.3 0 1 .22-.9q.19.03 1.25.57a.37.37 0 0 1-.08.69z" class="C"/><path d="M98.28 170.55c.01.09.01.33-.08.4q-.63.52-1.58.12a.97.96-54.1 0 0-1.02.17q-.48.41-1.56.56-.67.09-.75-.43-.09-.51.58-.64 1.06-.21 1.65.03a.97.96 35.4 0 0 1.02-.17q.77-.68 1.54-.4c.11.04.18.27.2.36z" class="E"/><path d="M371.96 171.65q.2-.67.44-1.04a.6.58 52.4 0 1 1.05.16q.26.73-1.02 1.29a.34.34 0 0 1-.47-.41z" class="C"/><ellipse cx="0" cy="0" transform="matrix(-.99824 -.059306 .059306 -.99824 28.6 173.39)" rx="1.45" ry=".53" class="B"/><path d="M291.48 188.32q-2.72-1.59-6-2.18-1.05-.19-2.35-2.11a2.2 2.14-.9 0 0-.69-.65c-4.38-2.68-7.05-5.02-10.28-5.72q-2-.44-3.64-1.47a1.71 1.7-84.6 0 1-.64-.78q-.58-1.41-2.38-.94a.6.6 0 0 1-.75-.54q-.02-.44.32-.96.71-.52 1.19-.13 2.88 2.37 5.7 3.34a4.77 4.41 67.3 0 1 .94.43c5.44 3.33 7.34 4.27 11.83 7.17q2.93 1.9 6.47 3.24.6.23.68.89.03.2-.4.41z" class="C"/><g class="B"><ellipse cx="0" cy="0" transform="matrix(.992546 -.121869 .121869 .992546 111.63 176.27)" rx="2.65" ry=".89"/><path d="M189.31 176.36q.64.22 1.07.71a.19.19 0 0 1-.19.31q-.56-.13-1.12-.33-.56-.2-1.08-.45a.19.19 0 0 1 .05-.36q.64-.11 1.27.12zm-118.43.85a.33.33 0 0 1-.04.64q-.78.17-1.79-.18a.31.31 0 0 1-.19-.39l.1-.32a.38.38 0 0 1 .47-.24l1.45.49zm14.98-.36a.59.59 0 0 1 .15 1.16q-.99.28-1.5-.57a.41.41 0 0 1 .36-.62l.99.03zm-8.5 1.15q2.57.64 4.35-1.03a.69.69 0 0 1 1.16.58q-.07.63.16.95 1.34 1.86 1.08 3.72a.74.73-82.1 0 1-.82.63c-3.02-.4-4.57 2.46-7.09 2.63a.53.52-74.2 0 0-.42.24q-.47.69-1.61.71a.39.38-1.5 0 1-.39-.36q-.02-.52.27-.73a.87.86 28.7 0 1 .56-.16q1.25.09 1.73-.91a.72.72 0 0 1 .34-.34l5.83-2.73a.85.85 0 0 0 .24-1.37l-.93-.93a1.89 1.88 59.4 0 0-1.86-.48q-1.52.43-2.81.34a.31.3-83.9 0 1-.28-.35l.02-.1a.38.37-77.7 0 1 .47-.31z"/><ellipse cx="0" cy="0" transform="matrix(-.854459 -.519519 .519519 -.854459 35.99 178.08)" rx=".95" ry=".78"/><path d="M29.31 180.69q-1.2-.82-1.87-2.21 1.65.36 1.87 2.21z"/><ellipse cx="0" cy="0" transform="matrix(.656059 -.75471 .75471 .656059 68.68 180.43)" rx=".83" ry=".47"/><path d="M365.5 185.04q-.77.06-1.17-.18-.34-.85-1.85-.91a1.05 1.03-70.2 0 0-.87.42q-.8 1.09-1.55 1.58a.62.62 0 0 1-.85-.87c.46-.66 1.29-1.9 1.1-2.97q-.2-1.11-.94-1.08a.28.28 0 0 1-.22-.47q1.06-1.15 1.85-.95 1.47.37 3.91.76c2.32.37 2.16 3.72.59 4.67z"/></g><path d="M271.93 180.24a.35.3 58.8 0 1-.1.6q-.38.03-.67-.32a.3.3 0 0 1 .09-.45q.28-.16.68.17z" class="C"/><path d="M205.9 180.39l1.43 2.36a.37.35 55.1 0 1-.07.46q-.3.25-.69.06-.38-.19-.41-.37-.16-1.11-.9-1.77a.06.04 45 0 1-.01-.07l.59-.67a.04.04 0 0 1 .06 0z" class="B"/><ellipse cx="0" cy="0" transform="matrix(-.073238 -.997314 .997314 -.073238 273.62 182.43)" rx="1.29" ry=".52" class="C"/><path d="M60.93 181.97a.45.45 0 0 1 .31.74q-.6.71-1.34.32-1.71-.91-3.31.37a.61.61 0 0 1-.98-.37q-.09-.52.35-.93.36-.32.96-.31 2.5.04 4.01.18z" class="E"/><g class="B"><ellipse cx="0" cy="0" transform="matrix(.246999 -.969016 .969016 .246999 183.68 183.95)" rx=".95" ry=".43"/><path d="M277.63 184.76q-.41.04-.82-.26a.34.32-39.6 0 1 .07-.56q.37-.18.84.21a.36.3 58.4 0 1-.09.61zm-198.51 3.1q-1.62.08-2.02-1.03a.57.57 0 0 1 .91-.62l1.29 1.14a.29.29 0 0 1-.18.51z"/></g><path d="M279.03 187.74a.3.29-71.5 0 1-.22-.45q.38-.65 1.04-.86.35-.11 1.05.65.41.46 1.25 1.08a.4.4 0 0 1 .1.54l-.01.03a.5.5 0 0 1-.7.16q-1.65-1.06-2.51-1.15z" class="C"/><path d="M164.96 188.66l.43-.31a.79.78-43.6 0 1 .96.02q.68.54 1.44.69a.47.46 83.9 0 0 .51-.65q-.13-.32-.49-.5 1.76-.73 3.58-.8a1.17.42-51.4 0 0 .7-.43q.01-.01.38-.13.39-.13 2.85 1.66 1.25.92 3.65 2.64a.25.24 59.2 0 1-.11.44q-.62.09-.83.27a.35.34-34.1 0 1-.53-.1q-.33-.62-1-.55a.66.65 85.9 0 0-.59.69q.01.07.04.16a.22.21 67.7 0 1-.1.26q-2.43 1.23-7.21 1.61-.53.05-.9.46a.57.56-49.9 0 1-.78.07c-1.3-1.05-2.36-1.83-3.13-3.37q-.35-.7-1.6-1.04a.24.23 7.4 0 1-.17-.21q-.01-.14.04-.26a.26.25 13 0 1 .23-.14q1.39.01 2.63-.48zm7.837-.346a1.44.8-107.1 0 0-.341 1.611 1.44.8-107.1 0 0 1.188 1.141 1.44.8-107.1 0 0 .341-1.612 1.44.8-107.1 0 0-1.188-1.141z" class="D"/><path d="M167.81 187.91q.36.18.49.5a.47.46 83.9 0 1-.51.65q-.76-.15-1.44-.69a.79.78-43.6 0 0-.96-.02l-.43.31.39-.9a.57.56 19 0 1 .67-.32l1.79.47z" class="B"/><ellipse cx="0" cy="0" transform="matrix(.943223 -.332161 .332161 .943223 156.84 188.46)" rx="1.17" ry=".45" class="E"/><g class="B"><ellipse cx="0" cy="0" transform="matrix(-.29404 -.955793 .955793 -.29404 173.22 189.69)" rx="1.44" ry=".8"/><path d="M115.52 189.09q.22.12 1.39-.13a.34.34 0 0 1 .34.55q-.4.48-1.49.42-.53-.03-.59-.61a.23.23 0 0 1 .35-.23zm91.54.48q.39-.47.95-.47 1.78-.01 3.21 1.5a.38.38 0 0 1-.44.6q-2.35-1.15-3.51-1.18a.28.28 0 0 1-.21-.45z"/></g><rect x="-6.63" y="-.33" transform="matrix(.925871 .377841 -.377841 .925871 198.24 191.79)" width="13.26" height=".66" rx=".26" class="F"/><g class="B"><path d="M86.98 192.29l-3.59-2.08a.12.12 0 0 1-.01-.2q.3-.21.5-.15 2.11.59 3.41 2.05a.25.25 0 0 1-.31.38z"/><ellipse cx="0" cy="0" transform="matrix(.996345 -.085417 .085417 .996345 81.2 190.48)" rx=".82" ry=".34"/></g><ellipse cx="0" cy="0" transform="matrix(.999903 -.013962 .013962 .999903 290.46 191.18)" rx="1.29" ry=".83" class="E"/><path d="M122.09 194.54a.17.17 0 0 1-.01.26l-.58.44a.12.12 0 0 1-.16-.02q-1.92-2.06-2.59-4.17a.3.3 0 0 1 .36-.38l.78.2a.13.13 0 0 1 .08.08q.67 2.29 2.12 3.59z" class="B"/><ellipse cx="0" cy="0" transform="matrix(-.997441 -.071497 .071497 -.997441 279.01 191.41)" rx="2.11" ry=".36" class="C"/><g class="B"><ellipse cx="0" cy="0" transform="matrix(-.325568 -.945519 .945519 -.325568 116.96 194.49)" rx="1.39" ry=".76"/><path d="M177.51 194.15a.42.42 0 0 1-.41-.43l.01-.39a.46.46 0 0 1 .63-.42q.71.27 1.72.2a.38.37-.7 0 1 .4.38l-.01.33a.39.39 0 0 1-.4.38l-1.94-.05z"/></g><path d="M140.7 196.53l-4.08.73a1.12 1.11-31.4 0 1-.85-.2q-1.18-.89-2.42-.77a.99.99 0 0 1-.37-1.93q2.15-.64 6.79-.82a1.17 1.16-.7 0 1 1.21 1.17q-.01.21.26.7a.77.76 71 0 1-.54 1.12z" class="F"/><g class="B"><ellipse cx="0" cy="0" transform="matrix(-.753563 -.657375 .657375 -.753563 90.69 195.73)" rx="1.81" ry=".39"/><path d="M213.6 197.33q.04-.1.83-.11a.42.42 0 0 1 .41.29q.16.52.13.55a.79.78-16.5 0 1-1.37-.73zm-92.81 4.71q1.99-1.16.41-3a.53.52-33.4 0 1 .17-.81q1.03-.51 1.46.54c.94 2.33.69 3.54-1.93 3.64a.2.2 0 0 1-.11-.37zm199.08-1.86q-3.02.77-6.39-.45 1.83-.59 3.57-1.24 1.28-.48 1.91-.04.71.49.91 1.73zm-140.99 7.25l-6.93-6.83a3.74 3.54-5.4 0 0-.69-.54q-.23-.15-1.52.22c-1.67.49-2.82.25-4.19-.94a.43.43 0 0 1 .29-.75l5.02.12a2.38 2.37 68.8 0 1 1.63.72l6.99 7.32a.23.23 0 0 1 .07.22l-.04.25a.37.37 0 0 1-.63.21zm132.91-7.58h-1.26 1.26zm-199.04 7.43q-.07.04-.25.09a.14.12-31.1 0 1-.12-.02l-6.33-5.56a.32.32 0 0 1 .02-.49q.49-.38 1.12-.04.25.14.49.76c.66 1.73 4.29 3.92 5.13 4.79a.31.31 0 0 1-.06.47z"/><ellipse cx="0" cy="0" transform="matrix(.999507 -.031411 .031411 .999507 117.18 202.63)" rx="2.17" ry=".53"/><ellipse cx="0" cy="0" transform="matrix(-.995884 -.090633 .090633 -.995884 217.95 202.36)" rx=".77" ry=".53"/></g><path d="M236.61 203.06q1.46-.07 2.08.25.58.29.23.89-.29.5-.9.41a.55.52 67.3 0 1-.27-.12l-1.25-1.1a.19.19 0 0 1 .11-.33zm-1.1.48l-1.25 1.25a.71.71 0 0 1-1.21-.43q-.14-1.3 2.32-1.2a.22.22 0 0 1 .14.38zm-178.78 3.75q-2.09-1.11-3.8-3.21 1.23.34 2.2 1.1a.58.58 0 0 0 .65.04q.18-.12.5-.06.24.04.35.32.33.76.1 1.81z" class="E"/><g class="B"><ellipse cx="0" cy="0" transform="matrix(-.80696 -.590606 .590606 -.80696 92.99 204.65)" rx=".73" ry=".44"/><path d="M103.96 205.91q.42-1.05.57-1.26a.5.5 0 0 1 .88.46q-.38 1.15-1.02 1.3a.37.37 0 0 1-.43-.5z"/></g><ellipse cx="0" cy="0" transform="matrix(-.866897 -.498488 .498488 -.866897 102.08 205.81)" rx=".09" ry=".03" class="F"/><ellipse cx="0" cy="0" transform="matrix(-.29404 -.955793 .955793 -.29404 108.61 208.88)" rx=".79" ry=".45" class="B"/><path d="M65.32 210.98l-1.56-.13q1.13-.51 1.56.13z" class="G"/><ellipse cx="0" cy="0" transform="matrix(-.745476 -.666532 .666532 -.745476 145.68 213.59)" rx=".55" ry=".44" class="B"/><path d="M97.57 214.43q-.13.3-.61.43a.48.46-1.7 0 1-.59-.54q.05-.24.51-.45a.5.46-3.1 0 1 .69.56z" class="D"/><ellipse cx="0" cy="0" transform="matrix(-.830984 -.556296 .556296 -.830984 124.82 216.62)" rx=".88" ry=".46" class="B"/></svg>