<?xml version="1.0" encoding="UTF-8" standalone="no"?>
<!-- Created with Inkscape (http://www.inkscape.org/) -->

<svg
   version="1.1"
   id="svg1"
   width="682.66669"
   height="321.33334"
   viewBox="0 0 682.66669 321.33334"
   xmlns="http://www.w3.org/2000/svg"
   xmlns:svg="http://www.w3.org/2000/svg"
   xmlns:rdf="http://www.w3.org/1999/02/22-rdf-syntax-ns#"
   xmlns:cc="http://creativecommons.org/ns#"
   xmlns:dc="http://purl.org/dc/elements/1.1/">
  <title
     id="title1">Planet-Dove Icon SVG</title>
  <defs
     id="defs1" />
  <g
     id="g1">
    <path
       style="fill:currentColor"
       d="M 118,319.81368 C 108.5665,314.87388 103.01823,304.99374 95.60967,298.29931 81.480835,296.57717 99.518329,281.33664 91.692933,281.467 77.307683,285.47133 67.946507,270.70418 59.382976,261.60631 52.365749,257.19527 54.165391,244.4662 45.07398,247.0475 34.140827,240.58479 28.744415,227.51504 21.325323,218.45995 11.458755,215.97238 4.7116799,206.82426 -0.04769459,198.26992 10.662756,195.43593 23.04231,194.47282 34.299514,191.62423 c 21.20854,-3.86304 42.552053,-7.91973 63.704695,-11.32542 19.768791,-6.72857 41.903411,-5.35028 61.639341,-12.57988 19.1879,-3.70643 38.39414,-7.28055 57.80009,-9.71892 0.0898,-10.26293 3.60847,-21.49224 -5.08988,-29.27843 -10.63459,-12.26347 0.0617,-28.42245 3.15864,-41.768174 0.93056,-9.971094 5.79038,-12.42307 9.99536,-19.575437 22.60405,-2.593016 45.82487,-3.46063 68.49225,-7.074861 36.21518,12.271439 72.26506,25.037188 108.66667,36.751083 0.0563,-11.127704 -1.22386,-22.375405 3.58971,-32.676767 4.11959,-8.663029 -7.47725,-12.147854 -3.58971,-21.765853 4.62194,-6.908768 11.82192,-12.870291 9.79644,-22.657087 -1.05092,-14.0654024 11.31665,-5.523083 19.04817,-5.287817 10.13975,2.363361 14.6629,-1.794947 13.98441,-11.9930664 9.21106,-3.8861693 20.65286,-2.41479991 30.29931,-0.2680366 15.33721,4.211025 31.28977,5.4199557 46.57022,10.285899 34.00804,6.608471 67.72838,14.66592 101.6077,21.767768 9.52213,6.409068 -8.9577,8.975371 -14.49298,5.19815 -35.6964,-8.12781 -71.45789,-16.103996 -107.29655,-23.699453 -7.48532,8.731616 8.15946,15.670355 4.48363,25.321443 -6.65848,9.411782 -2.03174,19.71111 0.12953,29.816534 -6.78342,4.596164 -1.6333,15.991408 -3.46092,23.411117 2.38849,12.882258 -10.44171,20.427508 -15.71453,30.863928 4.86239,7.49032 6.7006,11.94431 13.7748,16.79268 3.25631,6.84246 15.02378,0.36852 20.81331,6.58238 10.9144,3.29417 22.176,7.37962 32.99175,9.58183 8.37997,6.0754 20.39489,3.8034 29.46606,9.37765 11.83342,3.31059 23.36877,7.80131 35.51352,9.8793 2.71634,7.14451 14.65403,2.71293 21.10384,6.80457 13.65675,2.37605 26.1781,9.12828 40.04931,10.39814 -0.87713,9.32824 -14.11615,7.19368 -20.92409,10.3152 -19.09428,4.58817 -38.65483,6.79784 -57.53711,12.42946 -22.90751,3.40277 -45.71306,7.20855 -67.82755,14.17305 -13.23709,2.61717 -26.47417,5.23434 -39.71125,7.85151 1.97016,11.67776 -10.50364,5.41715 -15.22365,12.60164 -10.31639,5.57751 -23.48332,5.23408 -34.92086,8.46593 -9.77287,1.19282 -16.99015,10.02077 -27.52358,7.48411 -8.95295,0.68874 -17.90402,1.37064 -24.82306,-5.35354 -10.03406,-6.44973 -20.88131,4.20549 -31.66517,4.32943 -35.69108,7.42711 -71.15529,15.67602 -106.49815,24.60501 -42.0582,9.77078 -84.15817,19.51111 -126.33198,28.6738 -3.51693,0.0423 -7.4263,2.33326 -10.34725,-0.54942 z m 17.66667,-3.39944 c -18.67396,-0.47074 6.32119,1.99662 0,0 z M 476.00001,10.666667 c -16.275,-3.4250071 5.77703,4.694691 0.46425,0.148677 z"
       id="path1" />
  </g>
  <metadata
     id="metadata1">
    <rdf:RDF>
      <cc:Work
         rdf:about="">
        <dc:title>Planet-Dove Icon SVG</dc:title>
      </cc:Work>
    </rdf:RDF>
  </metadata>
</svg>
