<?xml version="1.0" encoding="UTF-8" standalone="no"?>
<svg xmlns="http://www.w3.org/2000/svg" version="1.2" baseProfile="tiny" viewBox="0.00 0.00 512.00 262.00" width="512.00" height="262.00">
<path fill="#1b1807" d="
  M 198.50 27.78
  Q 198.85 29.63 200.30 30.94
  Q 210.87 40.48 222.96 52.34
  A 2.59 2.57 -84.5 0 1 223.36 52.83
  Q 224.35 54.32 226.71 56.76
  Q 229.10 59.23 229.20 62.91
  A 1.55 1.51 61.3 0 1 228.96 63.77
  L 227.08 66.74
  A 1.57 1.55 47.9 0 0 227.01 68.29
  C 228.11 70.38 228.15 72.81 227.55 75.15
  Q 226.22 80.32 226.68 85.98
  A 3.65 3.57 51.2 0 1 226.55 87.31
  Q 225.19 92.02 223.89 105.32
  Q 223.63 107.97 221.92 110.88
  C 220.67 112.99 220.65 114.73 221.70 116.61
  A 2.08 1.93 31.5 0 1 221.94 117.47
  Q 222.09 120.57 220.97 123.83
  A 0.41 0.41 0.0 0 1 220.34 124.03
  L 220.04 123.81
  A 0.41 0.40 21.2 0 1 219.87 123.43
  L 220.77 117.53
  A 0.55 0.55 0.0 0 0 220.04 116.93
  C 218.33 117.54 216.91 121.02 216.72 122.22
  A 0.86 0.86 0.0 0 1 215.96 122.95
  L 211.12 123.54
  A 0.72 0.71 7.4 0 1 210.37 122.57
  Q 216.23 107.66 221.48 95.47
  C 222.75 92.53 225.45 89.75 224.58 85.34
  A 0.70 0.70 0.0 0 0 223.48 84.90
  Q 221.89 86.05 219.94 86.34
  A 1.01 0.98 10.5 0 0 219.22 86.82
  Q 218.80 87.53 218.56 88.75
  A 1.06 1.06 0.0 0 1 216.90 89.41
  L 214.33 87.58
  A 2.21 2.20 -51.4 0 0 211.40 87.91
  L 208.94 90.67
  A 1.77 1.77 0.0 0 0 208.81 92.85
  Q 209.61 94.01 211.32 95.43
  Q 212.18 96.15 212.87 95.90
  Q 213.59 95.64 213.89 94.61
  A 0.58 0.58 0.0 0 0 213.35 93.87
  L 211.64 93.82
  Q 215.65 92.87 214.26 88.81
  L 215.20 89.78
  A 0.66 0.60 -75.8 0 1 215.37 90.10
  Q 215.62 91.20 216.20 91.78
  Q 217.05 92.64 216.57 93.54
  Q 214.46 97.45 210.74 106.18
  C 208.28 111.95 206.82 116.96 203.64 122.35
  A 0.45 0.12 -75.1 0 1 203.60 122.42
  L 197.23 136.81
  A 0.90 0.89 30.4 0 0 197.52 137.89
  L 197.78 137.98
  A 0.52 0.52 0.0 0 0 198.42 137.73
  L 201.45 131.95
  A 2.92 2.90 10.3 0 1 203.69 130.41
  L 218.82 128.60
  A 0.46 0.45 81.7 0 1 219.33 128.99
  L 220.08 133.83
  A 8.59 8.49 44.7 0 1 220.11 136.33
  L 218.98 144.99
  L 213.01 145.17
  A 8.23 8.20 -39.0 0 1 210.88 144.95
  C 204.96 143.54 199.08 141.38 193.08 140.39
  Q 191.59 140.14 189.22 137.63
  Q 188.43 136.78 186.82 136.58
  A 0.63 0.61 12.0 0 0 186.14 137.01
  Q 185.87 137.85 184.72 137.61
  Q 181.60 136.98 180.76 136.90
  A 2.61 2.60 68.9 0 1 179.23 136.22
  Q 176.60 133.81 171.58 132.35
  A 0.67 0.60 -11.1 0 1 171.28 132.17
  Q 170.42 131.24 173.39 128.65
  A 2.07 2.07 0.0 0 0 173.23 125.41
  L 171.32 124.05
  A 2.49 2.49 0.0 0 0 167.85 124.64
  L 165.44 128.02
  A 1.17 1.17 0.0 0 0 165.36 129.25
  L 165.64 129.78
  A 1.07 1.07 0.0 0 1 164.38 131.32
  Q 159.78 129.83 155.77 129.49
  Q 153.37 129.29 145.64 126.36
  A 1.35 1.27 50.0 0 0 144.97 126.28
  Q 143.85 126.45 143.84 127.07
  A 2.09 1.66 14.3 0 1 141.00 128.35
  Q 138.99 127.50 138.20 126.89
  A 1.15 1.11 -31.5 0 0 137.27 126.68
  Q 136.66 126.80 130.99 125.57
  Q 129.41 125.22 123.25 124.70
  C 118.75 124.33 117.05 121.40 114.20 119.22
  A 1.88 1.80 61.9 0 0 113.07 118.85
  C 107.95 118.97 102.96 117.61 97.52 116.21
  A 3.97 3.88 64.1 0 1 96.71 115.92
  Q 92.36 113.85 88.79 113.74
  C 87.05 113.68 85.73 114.79 83.72 114.80
  Q 79.61 114.82 75.81 114.13
  Q 72.87 115.63 70.66 117.05
  C 66.48 119.74 66.55 124.70 66.92 129.60
  A 1.50 1.45 -75.5 0 0 67.53 130.68
  L 72.29 134.07
  A 1.07 1.06 -40.8 0 0 73.40 134.15
  Q 73.97 133.86 75.73 132.91
  C 78.75 131.29 83.56 132.97 87.59 134.14
  A 1.27 1.26 -73.1 0 1 88.44 135.75
  L 87.24 139.49
  A 0.68 0.68 0.0 0 0 87.49 140.26
  L 90.47 142.38
  A 0.94 0.92 53.7 0 0 91.29 142.51
  Q 95.52 141.09 98.05 137.47
  A 1.43 1.43 0.0 0 1 99.54 136.89
  C 104.85 138.08 112.94 139.61 117.08 144.10
  A 3.62 3.58 -25.6 0 0 120.29 145.21
  C 128.83 143.89 137.98 145.80 145.74 148.46
  Q 150.54 150.10 153.99 150.57
  C 158.17 151.15 163.96 151.78 167.82 154.15
  Q 173.26 157.49 174.32 158.06
  A 1.27 1.26 34.9 0 0 175.86 157.79
  L 177.29 156.18
  A 1.37 1.37 0.0 0 1 178.73 155.78
  L 186.82 158.39
  A 0.75 0.75 0.0 0 1 187.34 159.20
  L 186.52 165.29
  Q 184.65 163.54 183.74 161.30
  A 1.07 1.06 -14.2 0 0 182.62 160.64
  Q 180.54 160.91 176.79 160.10
  C 172.94 159.27 171.77 161.25 170.14 163.92
  A 2.30 2.27 89.6 0 1 169.44 164.64
  Q 164.66 167.66 161.73 170.52
  Q 161.30 170.93 159.28 172.45
  C 157.23 173.99 156.53 175.74 155.44 177.70
  A 2.44 2.42 1.2 0 1 154.43 178.66
  C 149.75 181.05 146.41 184.83 140.50 191.38
  A 4.54 4.53 3.4 0 1 139.72 192.07
  C 135.80 194.82 132.32 197.14 129.10 200.33
  Q 128.63 200.79 122.93 205.44
  Q 117.36 209.99 106.09 221.59
  Q 103.25 224.52 98.39 224.10
  A 3.29 3.23 59.6 0 1 97.28 223.80
  Q 89.69 220.30 82.34 216.14
  Q 66.12 206.98 65.73 206.72
  C 63.07 204.98 59.28 203.92 56.45 201.62
  A 3.13 2.55 -5.8 0 0 56.04 201.35
  L 40.58 193.24
  A 3.89 3.72 -23.6 0 0 39.65 192.90
  C 35.56 192.02 31.69 189.02 26.85 185.83
  C 22.71 183.10 17.29 181.02 13.17 179.42
  C 10.55 178.41 7.28 176.19 4.65 175.06
  A 2.23 2.20 0.9 0 1 3.49 173.88
  L 0.00 165.52
  L 0.00 155.08
  Q 1.69 152.06 1.86 148.53
  Q 2.01 145.55 4.42 143.20
  Q 8.62 139.10 12.90 136.40
  Q 15.57 134.72 23.81 127.27
  A 8.25 8.23 8.8 0 1 25.22 126.24
  Q 28.15 124.54 30.14 120.93
  A 2.22 1.95 -11.5 0 1 30.49 120.47
  L 49.58 101.38
  A 4.17 3.73 3.2 0 1 50.27 100.83
  Q 52.42 99.51 53.86 98.18
  C 56.70 95.56 59.47 94.06 61.76 91.98
  Q 73.11 81.63 78.32 75.81
  Q 88.84 64.05 101.56 53.90
  Q 113.08 44.71 115.95 42.07
  Q 122.91 35.66 128.96 28.70
  Q 135.04 21.70 137.66 19.42
  Q 149.17 9.44 161.18 0.79
  A 2.32 2.26 20.5 0 1 162.02 0.42
  Q 166.20 -0.47 169.03 2.23
  Q 174.72 7.65 180.73 13.77
  Q 181.28 14.32 183.57 15.99
  A 3.69 3.64 -0.4 0 1 184.26 16.66
  Q 187.95 21.36 189.43 22.43
  Q 192.35 24.55 194.47 26.35
  A 3.02 2.91 -15.5 0 0 195.54 26.93
  L 198.50 27.78
  Z
  M 188.6094 30.5889
  A 2.49 2.49 0.0 0 0 188.5664 27.0678
  L 186.3048 24.8608
  A 2.49 2.49 0.0 0 0 182.7836 24.9038
  L 180.5906 27.1511
  A 2.49 2.49 0.0 0 0 180.6336 30.6722
  L 182.8952 32.8792
  A 2.49 2.49 0.0 0 0 186.4164 32.8362
  L 188.6094 30.5889
  Z
  M 144.66 25.67
  Q 141.60 26.55 138.90 29.87
  A 0.93 0.92 52.2 0 0 138.78 30.85
  Q 139.31 32.00 140.76 31.85
  A 0.81 0.81 0.0 0 0 141.47 31.21
  Q 142.08 28.38 145.05 26.54
  A 0.48 0.48 0.0 0 0 144.66 25.67
  Z
  M 129.88 51.18
  Q 131.05 51.14 131.64 49.44
  A 0.46 0.45 -82.7 0 0 131.18 48.84
  C 128.51 49.05 126.06 46.82 127.38 44.09
  A 1.69 1.68 -7.3 0 1 127.83 43.51
  Q 129.12 42.42 129.48 41.43
  A 0.45 0.45 0.0 0 0 128.72 40.98
  L 125.19 44.96
  A 1.44 1.43 43.4 0 0 125.25 46.93
  L 129.25 50.94
  A 0.83 0.82 -23.8 0 0 129.88 51.18
  Z
  M 94.81 70.69
  L 92.64 72.87
  A 0.79 0.77 -34.6 0 0 92.47 73.73
  Q 92.90 74.73 94.40 75.08
  A 0.41 0.41 0.0 0 0 94.88 74.55
  Q 94.42 73.23 95.28 70.99
  A 0.29 0.28 -12.1 0 0 94.81 70.69
  Z
  M 197.5221 79.3646
  A 2.22 2.22 0.0 0 0 197.4454 76.2260
  L 195.5481 74.4192
  A 2.22 2.22 0.0 0 0 192.4095 74.4959
  L 189.8579 77.1754
  A 2.22 2.22 0.0 0 0 189.9346 80.3140
  L 191.8319 82.1208
  A 2.22 2.22 0.0 0 0 194.9705 82.0441
  L 197.5221 79.3646
  Z
  M 81.39 90.15
  C 79.60 87.35 82.07 85.92 84.08 84.53
  A 1.03 1.02 58.1 0 0 84.39 83.18
  L 84.23 82.89
  A 0.49 0.48 -37.1 0 0 83.46 82.79
  L 78.39 87.86
  A 1.06 1.06 0.0 0 0 78.71 89.58
  L 81.01 90.60
  A 0.31 0.31 0.0 0 0 81.39 90.15
  Z
  M 188.5661 89.0892
  A 2.32 2.32 0.0 0 0 188.5260 85.8084
  L 186.4648 83.7970
  A 2.32 2.32 0.0 0 0 183.1841 83.8371
  L 180.6139 86.4708
  A 2.32 2.32 0.0 0 0 180.6540 89.7516
  L 182.7152 91.7630
  A 2.32 2.32 0.0 0 0 185.9959 91.7229
  L 188.5661 89.0892
  Z
  M 203.6686 105.7644
  A 2.19 2.19 0.0 0 0 203.4795 102.6731
  L 201.4873 100.9105
  A 2.19 2.19 0.0 0 0 198.3959 101.0996
  L 195.8514 103.9756
  A 2.19 2.19 0.0 0 0 196.0405 107.0669
  L 198.0327 108.8295
  A 2.19 2.19 0.0 0 0 201.1241 108.6404
  L 203.6686 105.7644
  Z
  M 49.18 114.86
  L 52.82 118.20
  A 1.71 1.71 0.0 0 0 55.24 118.10
  L 57.90 115.20
  A 3.27 3.13 -47.4 0 0 57.81 110.68
  L 56.27 109.26
  A 3.27 3.13 -47.4 0 0 51.75 109.54
  L 49.08 112.44
  A 1.71 1.71 0.0 0 0 49.18 114.86
  Z
  M 44.19 126.57
  Q 44.55 128.70 42.31 130.16
  C 40.34 131.44 38.31 129.89 37.77 128.12
  A 0.93 0.92 -31.1 0 1 38.01 127.18
  Q 39.80 125.40 41.16 124.98
  A 0.79 0.79 0.0 0 0 41.51 123.70
  L 40.80 122.90
  A 0.95 0.94 -45.2 0 0 39.38 122.91
  L 35.45 127.32
  A 1.55 1.55 0.0 0 0 35.71 129.61
  L 40.26 132.86
  A 1.11 1.10 43.0 0 0 41.58 132.82
  Q 44.40 130.55 45.76 127.76
  A 1.07 1.06 53.0 0 0 45.85 127.11
  Q 45.71 126.35 44.58 126.18
  A 0.34 0.34 0.0 0 0 44.19 126.57
  Z
  M 58.16 139.48
  Q 60.12 141.65 62.65 143.05
  A 0.98 0.95 -52.8 0 0 63.80 142.88
  L 68.04 138.64
  A 1.05 1.04 45.2 0 0 68.04 137.17
  C 66.58 135.68 63.13 133.14 61.00 134.46
  Q 58.38 136.09 57.86 138.33
  A 1.29 1.28 30.7 0 0 58.16 139.48
  Z
  M 17.27 152.21
  A 1.27 1.26 -39.8 0 0 17.38 151.05
  Q 16.53 148.96 13.73 147.79
  C 11.46 146.84 8.51 149.84 7.33 151.52
  A 1.03 1.02 -54.4 0 0 7.56 152.94
  L 12.33 156.39
  A 0.96 0.94 43.6 0 0 13.48 156.38
  Q 15.71 154.62 17.27 152.21
  Z
  M 83.6678 152.7937
  A 1.86 1.86 0.0 0 0 83.5118 150.1679
  L 81.0590 147.9902
  A 1.86 1.86 0.0 0 0 78.4332 148.1462
  L 75.4322 151.5263
  A 1.86 1.86 0.0 0 0 75.5882 154.1521
  L 78.0410 156.3298
  A 1.86 1.86 0.0 0 0 80.6668 156.1738
  L 83.6678 152.7937
  Z
  M 68.15 182.79
  L 64.18 186.34
  A 1.52 1.51 38.0 0 0 64.49 188.81
  L 67.77 190.53
  A 2.31 2.30 37.8 0 0 70.36 190.21
  L 74.09 186.87
  A 0.64 0.63 -43.5 0 0 74.12 185.95
  Q 71.66 183.49 69.14 182.60
  A 0.99 0.97 33.4 0 0 68.15 182.79
  Z"
/>
<path fill="#1b1807" d="
  M 391.53 21.73
  Q 390.56 21.76 389.90 22.33
  A 1.39 1.37 68.0 0 0 389.42 23.48
  Q 389.59 25.56 388.57 27.27
  C 387.34 29.32 388.13 31.64 386.85 33.32
  C 385.45 35.15 386.66 35.25 386.64 37.10
  A 0.97 0.95 -20.2 0 1 386.31 37.80
  L 383.94 39.92
  A 0.48 0.48 0.0 0 0 384.01 40.68
  Q 386.02 41.92 385.33 43.43
  A 1.22 1.18 86.9 0 1 384.88 43.95
  L 383.24 44.98
  A 1.01 1.01 0.0 0 0 382.93 46.38
  C 383.92 47.91 384.47 49.77 382.56 50.63
  Q 381.45 51.13 381.08 51.60
  A 0.58 0.58 0.0 0 0 381.17 52.41
  Q 382.56 53.55 382.06 55.78
  A 2.53 2.53 0.0 0 1 380.02 57.74
  L 377.98 58.09
  A 1.19 1.19 0.0 0 1 376.89 56.13
  L 379.86 52.78
  A 0.65 0.65 0.0 0 0 379.80 51.85
  C 378.19 50.48 378.54 49.42 380.12 47.92
  Q 381.14 46.95 380.66 45.66
  C 379.65 42.92 380.82 41.84 383.14 40.92
  A 0.36 0.35 51.8 0 0 383.21 40.30
  L 382.10 39.48
  A 1.33 1.33 0.0 0 1 382.09 37.34
  C 384.07 35.87 383.43 34.91 383.30 32.75
  A 1.66 1.65 57.5 0 1 383.48 31.92
  L 384.57 29.85
  A 1.62 1.61 55.0 0 0 384.74 28.85
  Q 384.27 25.48 387.10 23.46
  A 0.32 0.32 0.0 0 0 386.86 22.89
  L 382.56 23.63
  A 0.98 0.98 0.0 0 0 381.84 24.99
  Q 382.73 27.00 380.85 29.38
  A 2.12 2.10 -31.1 0 0 380.43 31.04
  L 380.71 32.67
  A 1.76 1.73 -29.6 0 1 380.29 34.14
  L 379.11 35.46
  A 1.03 1.02 -28.3 0 0 378.87 36.24
  Q 378.94 36.77 379.29 37.19
  A 1.99 1.69 -45.5 0 1 379.12 39.57
  Q 377.39 41.61 378.13 43.21
  Q 378.73 44.52 376.22 47.04
  A 1.27 1.27 0.0 0 0 376.07 48.65
  Q 377.49 50.72 375.69 52.07
  A 3.02 2.61 -30.1 0 0 374.57 55.29
  Q 375.70 58.21 373.54 59.45
  L 371.71 60.04
  Q 370.25 60.40 370.01 59.50
  Q 369.58 57.89 371.81 55.07
  A 1.63 1.61 -35.2 0 0 372.08 53.58
  Q 371.23 50.97 373.10 49.75
  A 1.81 1.80 69.0 0 0 373.90 47.94
  Q 373.44 45.05 374.94 43.28
  A 1.62 1.60 -30.1 0 0 375.30 41.96
  L 374.94 39.87
  A 1.02 1.01 61.3 0 1 375.18 39.03
  L 377.05 36.93
  A 0.94 0.93 45.3 0 0 377.05 35.68
  L 376.75 35.35
  A 1.41 1.39 -52.1 0 1 376.56 33.77
  L 377.85 31.31
  A 1.09 1.05 56.0 0 0 377.96 30.69
  Q 377.63 27.62 379.74 25.67
  A 0.43 0.43 0.0 0 0 379.49 24.92
  Q 377.15 24.66 375.29 25.74
  A 0.90 0.90 0.0 0 0 375.01 27.05
  C 376.08 28.52 375.87 29.32 374.64 30.56
  Q 373.83 31.38 373.74 31.91
  A 1.76 1.68 39.5 0 0 373.85 32.85
  C 375.11 35.75 371.70 36.27 372.34 38.45
  A 3.47 2.90 28.5 0 0 372.55 38.98
  Q 372.89 39.65 373.05 40.17
  Q 373.21 40.72 372.29 41.31
  Q 371.03 42.12 370.65 42.55
  A 0.93 0.92 -36.4 0 0 370.50 43.52
  Q 371.68 46.26 369.60 48.39
  A 0.75 0.74 -30.5 0 0 369.41 49.12
  Q 370.02 51.41 369.75 52.04
  A 1.98 1.95 86.8 0 1 368.91 52.99
  Q 366.24 54.55 367.51 57.29
  A 2.22 1.98 61.4 0 1 366.88 59.98
  Q 365.33 60.98 363.41 60.94
  A 0.58 0.57 9.8 0 1 362.87 60.18
  Q 363.50 58.38 365.15 56.75
  C 367.02 54.90 363.56 52.78 367.45 50.30
  A 0.71 0.71 0.0 0 0 367.69 49.36
  C 366.17 46.68 367.22 45.79 368.91 44.39
  A 0.78 0.76 59.8 0 0 369.13 43.52
  Q 368.77 42.62 368.58 42.28
  A 1.77 1.73 -29.1 0 1 369.29 39.91
  Q 371.19 38.86 370.52 37.41
  C 369.54 35.28 369.70 34.18 371.68 33.19
  A 0.80 0.80 0.0 0 0 372.01 32.08
  Q 370.58 29.63 372.64 27.81
  A 0.73 0.73 0.0 0 0 371.92 26.57
  Q 369.93 27.25 369.19 28.98
  C 368.34 30.97 367.12 34.18 366.59 36.53
  Q 363.66 49.39 360.09 62.30
  Q 356.55 62.64 355.99 66.76
  Q 355.57 66.81 355.36 67.22
  Q 352.38 67.21 349.77 68.25
  A 1.54 1.28 23.5 0 1 349.43 68.35
  L 341.09 69.74
  A 1.17 0.97 23.7 0 0 340.88 69.80
  Q 336.96 71.44 332.79 71.52
  Q 338.04 69.67 343.42 68.35
  Q 345.38 67.87 348.66 67.57
  Q 351.31 67.33 354.24 65.67
  A 2.31 2.31 0.0 0 0 355.27 64.45
  Q 355.85 62.90 357.32 60.52
  C 358.85 58.04 359.54 54.23 360.84 51.86
  A 5.77 5.70 65.5 0 0 361.39 50.36
  Q 363.08 42.08 366.87 31.73
  C 367.64 29.65 367.88 27.65 370.17 26.86
  C 371.85 26.29 372.53 24.49 374.26 24.20
  Q 379.37 23.36 381.91 22.48
  A 5.44 5.24 -53.6 0 1 383.67 22.18
  Q 385.38 22.17 389.74 21.20
  Q 390.79 20.96 391.53 21.73
  Z"
/>
<path fill="#bc9423" d="
  M 391.53 21.73
  L 393.07 23.21
  Q 393.77 27.00 393.46 28.14
  Q 391.26 36.36 389.91 44.75
  A 6.74 6.54 -30.1 0 1 389.51 46.17
  Q 387.25 51.73 387.56 56.78
  L 378.39 58.99
  A 1.12 0.34 -28.2 0 1 378.24 59.02
  L 373.54 59.45
  Q 375.70 58.21 374.57 55.29
  A 3.02 2.61 -30.1 0 1 375.69 52.07
  Q 377.49 50.72 376.07 48.65
  A 1.27 1.27 0.0 0 1 376.22 47.04
  Q 378.73 44.52 378.13 43.21
  Q 377.39 41.61 379.12 39.57
  A 1.99 1.69 -45.5 0 0 379.29 37.19
  Q 378.94 36.77 378.87 36.24
  A 1.03 1.02 -28.3 0 1 379.11 35.46
  L 380.29 34.14
  A 1.76 1.73 -29.6 0 0 380.71 32.67
  L 380.43 31.04
  A 2.12 2.10 -31.1 0 1 380.85 29.38
  Q 382.73 27.00 381.84 24.99
  A 0.98 0.98 0.0 0 1 382.56 23.63
  L 386.86 22.89
  A 0.32 0.32 0.0 0 1 387.10 23.46
  Q 384.27 25.48 384.74 28.85
  A 1.62 1.61 55.0 0 1 384.57 29.85
  L 383.48 31.92
  A 1.66 1.65 57.5 0 0 383.30 32.75
  C 383.43 34.91 384.07 35.87 382.09 37.34
  A 1.33 1.33 0.0 0 0 382.10 39.48
  L 383.21 40.30
  A 0.36 0.35 51.8 0 1 383.14 40.92
  C 380.82 41.84 379.65 42.92 380.66 45.66
  Q 381.14 46.95 380.12 47.92
  C 378.54 49.42 378.19 50.48 379.80 51.85
  A 0.65 0.65 0.0 0 1 379.86 52.78
  L 376.89 56.13
  A 1.19 1.19 0.0 0 0 377.98 58.09
  L 380.02 57.74
  A 2.53 2.53 0.0 0 0 382.06 55.78
  Q 382.56 53.55 381.17 52.41
  A 0.58 0.58 0.0 0 1 381.08 51.60
  Q 381.45 51.13 382.56 50.63
  C 384.47 49.77 383.92 47.91 382.93 46.38
  A 1.01 1.01 0.0 0 1 383.24 44.98
  L 384.88 43.95
  A 1.22 1.18 86.9 0 0 385.33 43.43
  Q 386.02 41.92 384.01 40.68
  A 0.48 0.48 0.0 0 1 383.94 39.92
  L 386.31 37.80
  A 0.97 0.95 -20.2 0 0 386.64 37.10
  C 386.66 35.25 385.45 35.15 386.85 33.32
  C 388.13 31.64 387.34 29.32 388.57 27.27
  Q 389.59 25.56 389.42 23.48
  A 1.39 1.37 68.0 0 1 389.90 22.33
  Q 390.56 21.76 391.53 21.73
  Z"
/>
<path fill="#1b1807" d="
  M 404.28 57.98
  L 397.80 90.27
  A 0.39 0.38 -88.0 0 1 397.46 90.59
  L 386.11 91.95
  A 0.95 0.95 0.0 0 1 385.07 90.78
  L 389.78 71.96
  Q 390.96 70.49 393.74 69.56
  A 1.17 1.15 1.6 0 0 394.42 68.93
  Q 395.87 65.63 393.58 63.54
  A 2.79 2.79 0.0 0 1 392.68 61.63
  Q 392.58 59.63 391.37 59.90
  Q 389.24 56.52 387.56 56.78
  Q 387.25 51.73 389.51 46.17
  A 6.74 6.54 -30.1 0 0 389.91 44.75
  Q 391.26 36.36 393.46 28.14
  Q 393.77 27.00 393.07 23.21
  Q 395.75 26.15 393.85 30.62
  A 4.58 4.47 -29.0 0 0 393.56 31.59
  Q 392.70 36.57 391.74 41.03
  C 390.86 45.17 390.74 49.51 390.75 53.04
  Q 390.75 58.18 396.02 58.11
  Q 399.76 58.06 404.28 57.98
  Z"
/>
<path fill="#bc9423" d="
  M 186.4164 32.8362
  A 2.49 2.49 0.0 0 1 182.8952 32.8792
  L 180.6336 30.6722
  A 2.49 2.49 0.0 0 1 180.5906 27.1511
  L 182.7836 24.9038
  A 2.49 2.49 0.0 0 1 186.3048 24.8608
  L 188.5664 27.0678
  A 2.49 2.49 0.0 0 1 188.6094 30.5889
  L 186.4164 32.8362
  Z
  M 181.10 29.02
  Q 181.16 29.55 182.12 30.84
  A 1.23 1.21 73.3 0 0 183.01 31.33
  Q 186.12 31.56 187.95 28.57
  Q 187.97 28.55 187.97 28.43
  Q 187.97 28.36 187.96 28.26
  Q 187.95 28.16 187.93 28.09
  Q 187.91 27.97 187.88 27.96
  Q 185.44 25.44 182.46 26.34
  A 1.23 1.21 -85.9 0 0 181.70 27.01
  Q 181.04 28.48 181.10 29.02
  Z"
/>
<path fill="#bc9423" d="
  M 371.71 60.04
  L 360.09 62.30
  Q 363.66 49.39 366.59 36.53
  C 367.12 34.18 368.34 30.97 369.19 28.98
  Q 369.93 27.25 371.92 26.57
  A 0.73 0.73 0.0 0 1 372.64 27.81
  Q 370.58 29.63 372.01 32.08
  A 0.80 0.80 0.0 0 1 371.68 33.19
  C 369.70 34.18 369.54 35.28 370.52 37.41
  Q 371.19 38.86 369.29 39.91
  A 1.77 1.73 -29.1 0 0 368.58 42.28
  Q 368.77 42.62 369.13 43.52
  A 0.78 0.76 59.8 0 1 368.91 44.39
  C 367.22 45.79 366.17 46.68 367.69 49.36
  A 0.71 0.71 0.0 0 1 367.45 50.30
  C 363.56 52.78 367.02 54.90 365.15 56.75
  Q 363.50 58.38 362.87 60.18
  A 0.58 0.57 9.8 0 0 363.41 60.94
  Q 365.33 60.98 366.88 59.98
  A 2.22 1.98 61.4 0 0 367.51 57.29
  Q 366.24 54.55 368.91 52.99
  A 1.98 1.95 86.8 0 0 369.75 52.04
  Q 370.02 51.41 369.41 49.12
  A 0.75 0.74 -30.5 0 1 369.60 48.39
  Q 371.68 46.26 370.50 43.52
  A 0.93 0.92 -36.4 0 1 370.65 42.55
  Q 371.03 42.12 372.29 41.31
  Q 373.21 40.72 373.05 40.17
  Q 372.89 39.65 372.55 38.98
  A 3.47 2.90 28.5 0 1 372.34 38.45
  C 371.70 36.27 375.11 35.75 373.85 32.85
  A 1.76 1.68 39.5 0 1 373.74 31.91
  Q 373.83 31.38 374.64 30.56
  C 375.87 29.32 376.08 28.52 375.01 27.05
  A 0.90 0.90 0.0 0 1 375.29 25.74
  Q 377.15 24.66 379.49 24.92
  A 0.43 0.43 0.0 0 1 379.74 25.67
  Q 377.63 27.62 377.96 30.69
  A 1.09 1.05 56.0 0 1 377.85 31.31
  L 376.56 33.77
  A 1.41 1.39 -52.1 0 0 376.75 35.35
  L 377.05 35.68
  A 0.94 0.93 45.3 0 1 377.05 36.93
  L 375.18 39.03
  A 1.02 1.01 61.3 0 0 374.94 39.87
  L 375.30 41.96
  A 1.62 1.60 -30.1 0 1 374.94 43.28
  Q 373.44 45.05 373.90 47.94
  A 1.81 1.80 69.0 0 1 373.10 49.75
  Q 371.23 50.97 372.08 53.58
  A 1.63 1.61 -35.2 0 1 371.81 55.07
  Q 369.58 57.89 370.01 59.50
  Q 370.25 60.40 371.71 60.04
  Z"
/>
<path fill="#bc9423" d="
  M 144.66 25.67
  A 0.48 0.48 0.0 0 1 145.05 26.54
  Q 142.08 28.38 141.47 31.21
  A 0.81 0.81 0.0 0 1 140.76 31.85
  Q 139.31 32.00 138.78 30.85
  A 0.93 0.92 52.2 0 1 138.90 29.87
  Q 141.60 26.55 144.66 25.67
  Z"
/>
<path fill="#1b1807" d="
  M 187.96 28.26
  Q 187.97 28.36 187.97 28.43
  Q 187.97 28.55 187.95 28.57
  Q 186.12 31.56 183.01 31.33
  A 1.23 1.21 73.3 0 1 182.12 30.84
  Q 181.16 29.55 181.10 29.02
  Q 181.04 28.48 181.70 27.01
  A 1.23 1.21 -85.9 0 1 182.46 26.34
  Q 185.44 25.44 187.88 27.96
  Q 187.91 27.97 187.93 28.09
  Q 187.95 28.16 187.96 28.26
  Z"
/>
<path fill="#bc9423" d="
  M 223.01 36.57
  L 227.39 41.91
  A 1.67 1.67 0.0 0 0 229.49 42.32
  L 233.65 40.06
  Q 236.37 42.27 237.32 47.04
  L 238.13 54.65
  A 2.00 1.97 -84.1 0 0 239.47 56.32
  L 245.75 58.40
  Q 248.77 59.04 248.71 61.13
  A 2.57 2.14 86.8 0 1 246.95 63.51
  Q 241.71 64.52 238.21 62.01
  A 0.13 0.13 0.0 0 0 238.03 62.18
  L 243.22 71.18
  A 0.48 0.47 -13.9 0 0 243.61 71.41
  Q 244.36 71.43 244.65 71.26
  Q 246.98 69.85 250.81 68.11
  Q 252.58 67.31 252.86 65.81
  A 0.77 0.76 -7.9 0 1 253.28 65.26
  Q 254.69 64.61 255.91 63.23
  A 0.68 0.66 44.4 0 0 255.89 62.33
  L 254.79 61.19
  Q 259.06 61.72 263.73 63.93
  Q 264.78 64.43 265.33 63.32
  Q 266.04 63.43 266.24 65.62
  L 263.71 77.72
  A 0.67 0.67 0.0 0 0 264.48 78.52
  L 266.13 78.24
  A 0.56 0.53 -46.6 0 1 266.31 78.23
  Q 268.49 78.50 267.93 81.47
  Q 267.65 82.91 267.30 83.29
  A 0.47 0.47 0.0 0 0 267.46 84.04
  L 267.82 84.17
  A 0.72 0.71 29.8 0 0 268.58 83.97
  L 269.61 82.81
  A 0.64 0.64 0.0 0 1 270.68 83.01
  Q 271.25 84.55 270.54 85.66
  C 269.09 87.87 268.20 91.33 267.26 93.75
  A 1.28 1.28 0.0 0 0 268.39 95.50
  L 271.96 95.68
  L 266.73 95.90
  L 261.62 109.90
  A 5.44 5.22 -19.4 0 1 261.11 110.91
  Q 258.31 115.11 260.12 117.10
  L 258.14 120.48
  C 256.31 121.15 253.24 121.18 252.82 123.36
  A 0.42 0.41 -85.4 0 0 253.23 123.85
  Q 257.23 123.84 256.78 127.98
  L 253.53 136.29
  A 0.69 0.69 0.0 0 0 254.26 137.23
  L 258.14 136.76
  A 0.87 0.84 64.9 0 1 258.87 137.04
  L 260.90 139.31
  A 0.49 0.42 -12.4 0 0 261.16 139.45
  Q 263.35 139.78 263.79 137.98
  Q 265.13 132.46 266.18 130.29
  Q 266.91 130.17 266.85 129.60
  C 266.78 128.86 264.84 128.18 264.50 126.89
  A 1.46 1.43 -39.9 0 1 264.60 125.88
  Q 266.73 121.57 266.79 121.25
  Q 267.06 119.83 266.53 118.08
  Q 266.43 117.73 265.98 117.53
  Q 265.61 117.36 265.21 117.33
  Q 265.10 117.30 265.00 117.26
  C 266.28 116.85 267.70 117.67 268.40 117.42
  Q 269.91 116.87 270.88 115.52
  A 0.59 0.59 0.0 0 0 270.41 114.58
  Q 268.88 114.55 267.63 114.83
  Q 266.40 115.11 264.95 114.41
  Q 263.79 113.86 262.49 112.93
  L 264.47 109.09
  A 2.24 2.23 26.0 0 1 267.39 108.09
  Q 269.61 109.12 270.98 111.06
  A 1.49 1.49 0.0 0 0 273.61 110.69
  L 278.24 97.27
  L 278.58 98.33
  A 0.94 0.93 -3.6 0 0 279.31 98.97
  Q 284.01 99.80 285.09 105.24
  A 0.64 0.60 50.4 0 1 285.07 105.55
  L 283.58 110.20
  A 1.02 1.01 5.5 0 0 284.67 111.52
  L 295.46 110.23
  A 2.42 2.39 17.2 0 0 296.96 109.45
  L 298.16 108.10
  A 2.64 2.59 -73.4 0 1 299.69 107.25
  L 304.75 106.37
  A 2.21 2.18 -85.7 0 0 306.47 104.87
  L 313.65 82.56
  A 0.98 0.98 0.0 0 0 312.55 81.29
  L 306.00 82.42
  A 2.14 2.13 -85.8 0 0 304.34 83.86
  L 302.22 90.46
  A 1.48 1.46 -2.3 0 1 301.36 91.38
  C 297.44 92.91 294.09 94.36 291.16 91.78
  Q 288.11 89.08 283.43 84.00
  A 1.23 1.21 27.0 0 1 283.12 83.07
  Q 283.70 77.14 288.58 74.16
  Q 289.04 73.82 289.71 73.78
  L 293.95 73.46
  L 296.11 74.26
  L 300.28 77.93
  A 0.98 0.97 -30.7 0 0 301.16 78.15
  L 308.93 76.27
  L 332.02 71.78
  Q 332.54 71.85 332.79 71.52
  Q 336.96 71.44 340.88 69.80
  A 1.17 0.97 23.7 0 1 341.09 69.74
  L 349.43 68.35
  A 1.54 1.28 23.5 0 0 349.77 68.25
  Q 352.38 67.21 355.36 67.22
  Q 355.92 69.62 358.70 69.63
  Q 354.36 71.31 353.80 76.04
  A 0.75 0.74 -76.7 0 0 354.28 76.83
  Q 356.32 77.59 358.85 77.38
  A 0.81 0.81 0.0 0 0 359.43 76.08
  L 359.05 75.57
  Q 371.34 72.74 385.06 70.14
  A 1.69 1.69 0.0 0 1 386.99 71.34
  Q 387.29 72.39 389.78 71.96
  L 385.07 90.78
  A 0.95 0.95 0.0 0 0 386.11 91.95
  L 397.46 90.59
  A 0.39 0.38 -88.0 0 0 397.80 90.27
  L 404.28 57.98
  Q 405.90 57.70 406.48 58.46
  Q 409.42 63.33 413.19 67.39
  A 0.80 0.42 27.7 0 1 413.30 67.55
  L 415.63 72.11
  A 0.81 0.81 0.0 0 0 416.98 72.26
  Q 418.47 70.47 420.47 68.73
  Q 420.98 68.28 423.66 64.95
  Q 425.36 62.84 427.77 61.34
  Q 429.95 62.32 431.98 62.60
  Q 440.30 63.72 448.63 64.74
  A 4.84 4.75 -30.6 0 1 449.81 65.03
  L 456.23 67.49
  A 1.21 1.20 -9.9 0 1 456.75 67.85
  Q 460.12 71.77 460.33 72.19
  Q 463.91 79.49 468.16 85.52
  Q 470.35 93.04 472.73 98.27
  Q 473.53 100.03 475.17 101.25
  A 0.17 0.17 0.0 0 1 475.05 101.55
  Q 474.34 101.48 474.06 102.19
  A 0.15 0.15 0.0 0 1 473.78 102.15
  Q 473.65 100.90 472.40 100.84
  Q 471.43 100.79 471.26 101.71
  Q 470.90 103.67 469.85 105.83
  A 1.33 1.33 0.0 0 1 468.04 106.42
  L 465.66 105.17
  A 0.56 0.56 0.0 0 0 464.87 105.84
  Q 465.33 107.24 463.70 109.21
  A 0.27 0.27 0.0 0 0 463.96 109.64
  L 464.29 109.59
  A 0.51 0.51 0.0 0 1 464.88 110.22
  Q 463.61 115.25 459.35 119.24
  A 2.24 2.22 -67.4 0 1 457.91 119.84
  Q 456.22 119.91 454.28 119.86
  A 0.09 0.00 -18.9 0 0 454.21 119.88
  Q 454.20 119.88 454.18 119.88
  A 0.06 0.05 -28.9 0 1 454.22 119.77
  Q 458.77 120.37 462.71 119.12
  A 1.10 1.09 -27.2 0 1 463.94 119.51
  Q 468.83 126.01 471.53 130.73
  Q 472.61 132.63 477.59 139.69
  Q 478.02 140.30 478.40 142.23
  A 1.08 1.05 -68.0 0 0 478.57 142.65
  L 483.72 150.78
  A 3.91 3.80 88.7 0 0 484.95 151.99
  L 488.20 153.97
  A 1.80 1.79 -64.1 0 0 490.82 153.06
  Q 491.52 151.17 491.62 148.14
  Q 491.64 147.77 491.68 148.20
  Q 492.20 152.84 494.41 155.94
  A 1.60 1.60 0.0 0 1 494.70 157.03
  L 494.22 162.30
  A 0.12 0.11 -77.0 0 0 494.29 162.42
  L 494.30 162.42
  A 0.27 0.26 -78.2 0 0 494.60 162.22
  L 495.86 156.56
  A 1.29 1.29 0.0 0 1 497.85 155.78
  L 498.97 156.56
  A 0.08 0.07 -59.1 0 0 499.08 156.53
  L 499.22 156.27
  A 0.23 0.23 0.0 0 0 499.18 156.00
  Q 498.19 155.00 496.82 154.83
  C 494.12 154.48 495.39 151.92 494.67 150.10
  Q 493.29 146.61 492.94 144.39
  Q 492.90 144.19 492.77 144.17
  Q 492.42 144.13 492.33 144.07
  A 0.32 0.32 0.0 0 1 492.30 143.55
  Q 493.64 142.50 494.21 140.15
  A 1.92 1.90 -71.3 0 1 496.84 138.84
  Q 496.86 138.84 497.31 139.25
  A 2.08 2.06 10.4 0 1 497.86 140.04
  Q 497.90 140.15 498.82 144.07
  Q 499.26 145.92 497.44 145.52
  A 0.17 0.17 0.0 0 0 497.25 145.77
  L 501.46 153.07
  A 0.55 0.19 70.7 0 0 501.54 153.17
  Q 504.83 156.43 505.56 160.03
  Q 505.91 161.78 506.98 163.00
  Q 508.70 164.96 508.96 165.75
  A 2.32 2.15 -53.7 0 1 509.07 166.71
  L 508.56 171.84
  A 1.66 1.65 -0.7 0 1 507.11 173.32
  L 505.20 173.55
  A 1.07 1.06 -18.4 0 0 504.40 175.14
  L 505.59 177.20
  A 0.93 0.92 -54.2 0 1 505.69 177.84
  L 505.16 180.41
  A 0.48 0.47 -86.7 0 0 505.66 180.98
  Q 507.79 180.78 508.58 181.55
  L 503.12 180.96
  A 0.69 0.68 14.8 0 0 502.41 181.37
  Q 501.38 183.73 502.08 186.71
  Q 494.72 188.39 487.71 186.66
  A 2.01 2.00 72.8 0 1 486.86 186.21
  C 483.14 182.93 480.74 177.50 478.73 174.30
  C 476.27 170.39 469.50 169.47 465.51 169.86
  A 1.02 0.96 16.6 0 0 464.87 170.18
  L 461.85 173.58
  A 1.34 1.26 68.2 0 0 461.53 174.39
  Q 461.41 177.90 460.03 188.47
  C 459.46 192.84 459.47 198.31 459.58 201.79
  A 4.03 3.91 33.6 0 0 459.89 203.22
  Q 460.68 205.11 461.92 206.76
  Q 462.42 207.42 465.56 208.72
  Q 468.28 209.86 470.07 211.33
  L 469.79 213.13
  A 0.97 0.96 82.9 0 1 469.21 213.88
  Q 467.79 214.48 466.35 213.17
  C 464.68 211.65 463.00 209.77 460.60 208.47
  Q 459.43 207.83 458.17 206.63
  A 2.86 2.85 -33.6 0 0 455.22 206.04
  L 455.06 206.10
  A 1.07 1.06 56.3 0 0 454.71 207.87
  Q 455.67 208.77 456.01 209.71
  A 1.15 1.13 4.2 0 0 456.58 210.36
  Q 461.61 212.89 465.65 217.25
  A 1.21 1.19 68.9 0 0 466.51 217.64
  Q 467.10 217.66 467.62 217.47
  A 1.23 1.23 0.0 0 1 469.19 219.04
  Q 468.15 221.92 466.04 224.23
  A 6.31 6.30 68.1 0 0 464.40 228.09
  Q 464.04 234.11 463.86 237.50
  Q 463.75 239.68 463.14 241.31
  A 0.42 0.42 0.0 0 0 463.71 241.83
  L 465.33 241.04
  Q 463.26 251.43 463.11 261.41
  Q 461.80 261.40 461.58 259.37
  Q 460.90 253.13 461.67 243.12
  C 462.21 236.01 462.11 229.50 464.40 224.07
  Q 465.00 222.93 464.30 222.44
  L 461.26 217.23
  A 4.01 3.96 -86.3 0 0 460.36 216.19
  Q 458.43 214.63 457.02 212.86
  C 454.30 209.48 449.18 206.55 445.64 205.87
  C 442.68 205.30 440.33 203.78 437.00 203.67
  A 3.46 3.33 -32.1 0 1 435.85 203.43
  Q 434.44 202.86 429.97 201.33
  Q 429.04 201.00 427.07 198.42
  A 2.54 2.46 78.2 0 0 425.74 197.52
  Q 421.10 196.24 415.49 196.68
  A 1.72 1.69 56.0 0 1 414.56 196.49
  L 412.79 195.56
  A 1.66 1.65 -54.6 0 0 410.82 195.90
  Q 409.29 197.54 407.79 196.11
  A 3.02 2.58 44.3 0 0 403.89 195.85
  Q 399.49 200.17 395.11 204.60
  C 392.82 206.91 391.09 209.89 389.52 212.79
  L 386.21 212.86
  A 0.49 0.49 0.0 0 1 385.71 212.30
  Q 386.28 208.33 381.95 206.67
  Q 383.27 205.11 383.54 203.42
  A 0.40 0.39 4.2 0 0 383.14 202.96
  L 369.31 203.12
  Q 368.08 202.66 368.07 201.24
  C 371.57 197.61 374.01 199.41 377.96 199.49
  Q 380.38 199.53 382.80 199.37
  A 1.27 1.26 68.2 0 1 383.88 199.84
  Q 384.57 200.71 385.32 201.10
  Q 384.75 203.55 387.75 203.98
  Q 391.11 204.46 391.46 202.24
  L 394.95 199.17
  A 0.73 0.73 0.0 0 1 395.91 199.17
  L 396.91 200.07
  A 1.17 1.17 0.0 0 0 398.82 199.47
  Q 399.35 197.31 400.80 195.67
  A 1.83 1.80 -20.5 0 0 401.23 194.75
  L 402.45 185.90
  L 406.03 171.00
  A 5.41 5.40 -53.3 0 0 405.46 167.05
  L 403.20 163.14
  A 1.20 1.09 1.6 0 0 402.74 162.70
  C 400.50 161.54 399.35 160.95 399.92 158.26
  Q 401.47 150.88 401.86 148.04
  Q 402.08 146.40 403.47 146.64
  A 0.16 0.15 -15.1 0 0 403.62 146.39
  L 397.43 138.73
  A 0.21 0.19 -25.3 0 0 397.21 138.66
  A 0.15 0.14 65.1 0 0 397.14 138.86
  Q 398.39 141.19 397.76 142.52
  Q 395.26 147.83 393.95 154.35
  Q 393.31 157.52 393.82 159.10
  A 1.17 1.15 -39.2 0 1 393.72 160.04
  Q 392.07 162.83 389.62 161.91
  C 385.17 160.23 381.34 160.19 377.85 163.26
  A 1.86 1.84 -14.0 0 0 377.30 164.16
  Q 376.02 169.22 375.20 170.45
  Q 370.74 177.08 371.05 185.20
  L 368.06 194.73
  Q 363.69 195.22 361.71 193.90
  L 367.15 180.30
  A 5.14 4.71 -31.2 0 0 367.43 179.34
  Q 368.08 175.81 369.40 173.20
  A 0.82 0.79 89.1 0 1 369.72 172.86
  L 373.19 170.86
  A 1.76 1.74 -10.3 0 0 374.04 169.65
  L 376.52 155.58
  Q 377.81 151.63 378.73 147.64
  C 379.49 144.31 381.72 141.61 380.05 138.01
  C 379.30 136.42 379.41 135.19 379.07 133.54
  A 2.37 2.37 0.0 0 0 376.76 131.64
  Q 370.87 131.61 365.86 133.21
  A 1.91 1.90 -56.6 0 1 365.43 133.30
  L 354.99 134.28
  L 343.88 135.11
  Q 343.83 135.11 343.79 135.11
  Q 340.27 134.91 337.46 135.64
  Q 337.32 135.67 337.10 135.61
  Q 336.88 135.56 336.75 135.56
  A 0.18 0.11 31.3 0 0 336.89 135.83
  Q 338.10 135.89 339.18 136.65
  L 325.14 138.39
  A 1.18 1.16 -84.4 0 0 324.17 139.20
  L 321.51 147.46
  A 1.21 1.21 0.0 0 0 322.65 149.05
  L 327.99 149.14
  A 1.24 1.16 34.4 0 0 328.45 149.07
  Q 331.07 148.21 333.72 149.14
  L 324.04 149.26
  A 0.48 0.48 0.0 0 0 323.64 150.01
  Q 324.76 151.75 326.33 152.04
  Q 327.19 152.20 327.44 152.78
  Q 327.74 153.47 327.75 154.15
  A 1.59 1.59 0.0 0 0 329.22 155.70
  Q 330.19 155.78 331.49 155.64
  A 2.23 2.12 27.0 0 0 332.33 155.39
  Q 335.54 153.74 336.29 153.62
  Q 338.22 153.29 338.84 155.47
  A 1.02 1.00 -84.7 0 0 339.35 156.10
  L 342.42 157.71
  A 0.67 0.64 -1.5 0 1 342.62 157.89
  C 345.09 161.38 340.69 164.73 342.71 168.16
  Q 343.33 169.22 345.69 169.45
  Q 350.98 169.98 356.15 170.17
  Q 356.97 170.00 357.15 170.10
  A 1.31 1.30 -74.1 0 1 357.80 171.28
  L 357.14 185.51
  Q 357.14 185.56 357.14 185.61
  L 355.76 195.61
  A 0.76 0.75 -85.0 0 1 354.98 196.27
  L 352.23 196.14
  A 1.58 1.40 31.4 0 0 351.61 196.25
  Q 349.91 196.97 348.89 196.92
  A 0.67 0.66 -79.9 0 1 348.29 196.05
  Q 351.18 187.08 351.82 182.52
  Q 352.00 181.25 351.96 180.08
  A 0.58 0.58 0.0 0 0 350.83 179.93
  L 347.51 190.25
  A 2.44 2.44 0.0 0 1 346.40 191.62
  L 341.26 194.59
  A 2.39 2.38 76.5 0 0 340.07 196.55
  L 339.98 198.39
  A 1.12 1.12 0.0 0 1 338.70 199.44
  C 335.66 199.01 332.91 197.77 331.07 195.37
  Q 330.13 194.14 328.42 195.07
  A 2.22 2.13 -26.4 0 1 325.37 194.11
  Q 325.25 193.85 324.80 192.62
  A 1.01 1.01 0.0 0 0 323.35 192.09
  L 317.21 195.64
  A 0.69 0.69 0.0 0 1 316.42 195.57
  Q 316.17 195.37 316.03 195.09
  A 0.89 0.85 -58.3 0 0 314.40 195.52
  Q 314.32 197.18 314.12 198.26
  A 0.83 0.83 0.0 0 1 312.84 198.80
  Q 311.58 197.97 311.23 196.46
  A 1.35 1.35 0.0 0 0 310.64 195.64
  Q 308.10 194.07 305.63 194.86
  Q 298.64 189.77 291.83 183.60
  Q 291.98 182.85 288.84 181.53
  A 0.82 0.69 71.9 0 1 288.60 181.38
  L 278.03 171.98
  A 0.44 0.43 47.9 0 0 277.49 171.95
  Q 277.02 172.29 277.92 172.79
  A 0.82 0.82 0.0 0 1 278.34 173.32
  Q 279.49 177.42 281.75 180.89
  A 1.40 1.29 -24.9 0 1 280.94 182.87
  Q 280.71 182.95 280.34 182.90
  A 1.41 1.40 -17.7 0 1 279.54 182.49
  C 275.18 178.07 270.45 173.61 265.92 170.55
  A 1.24 1.21 55.2 0 0 264.95 170.36
  L 258.53 171.75
  A 1.05 1.02 -45.9 0 1 258.21 171.76
  Q 256.39 171.54 257.46 168.65
  A 0.32 0.32 0.0 0 0 257.02 168.25
  Q 251.74 170.89 252.52 174.21
  Q 252.65 177.68 253.81 180.01
  A 0.27 0.27 0.0 0 1 253.40 180.34
  Q 248.52 176.50 243.69 171.87
  Q 242.85 171.06 242.26 169.11
  A 0.72 0.71 57.6 0 1 242.41 168.42
  L 246.92 163.33
  A 0.52 0.50 -17.6 0 0 247.06 163.07
  L 249.00 153.74
  A 0.77 0.77 0.0 0 1 250.52 153.77
  Q 251.20 157.66 250.01 161.97
  A 1.18 1.17 -85.8 0 0 251.28 163.45
  L 260.71 162.32
  A 0.78 0.78 0.0 0 0 261.20 161.03
  L 254.57 153.61
  A 1.15 1.13 -61.2 0 1 254.29 152.62
  Q 254.99 149.03 251.83 147.55
  A 1.85 1.84 61.8 0 0 251.24 147.37
  L 247.90 146.84
  A 1.10 1.09 86.4 0 0 246.68 148.23
  Q 247.98 152.61 243.96 153.34
  A 1.03 1.03 0.0 0 0 243.17 153.99
  Q 242.72 155.18 242.94 156.16
  A 1.82 1.69 -9.2 0 1 241.33 158.23
  Q 234.73 158.94 228.57 157.48
  A 3.18 3.16 -43.0 0 0 227.30 157.44
  Q 223.79 158.03 220.70 157.11
  A 0.93 0.92 -51.1 0 1 220.52 155.41
  Q 223.52 153.78 225.36 156.05
  A 0.99 0.99 0.0 0 0 227.12 155.51
  L 227.34 152.84
  A 0.13 0.13 0.0 0 0 227.27 152.71
  A 0.16 0.16 0.0 0 0 227.08 152.84
  Q 226.94 153.77 226.52 154.32
  A 0.86 0.85 -60.3 0 1 225.55 154.59
  Q 221.87 153.16 222.22 148.81
  A 0.12 0.04 1.1 0 0 222.09 148.77
  Q 222.05 148.77 221.99 148.79
  A 0.47 0.15 81.7 0 0 221.92 149.22
  Q 221.97 149.71 221.90 149.77
  A 1.31 1.19 55.9 0 1 219.88 149.28
  Q 218.90 147.06 219.66 146.60
  Q 220.23 146.25 220.37 146.36
  Q 220.50 146.45 220.96 146.74
  A 0.21 0.21 0.0 0 0 221.26 146.46
  Q 220.99 145.91 220.39 145.58
  Q 219.36 145.03 218.98 144.99
  L 220.11 136.33
  A 8.59 8.49 44.7 0 0 220.08 133.83
  L 219.33 128.99
  A 0.46 0.45 81.7 0 0 218.82 128.60
  L 203.69 130.41
  A 2.92 2.90 10.3 0 0 201.45 131.95
  L 198.42 137.73
  A 0.52 0.52 0.0 0 1 197.78 137.98
  L 197.52 137.89
  A 0.90 0.89 30.4 0 1 197.23 136.81
  L 203.60 122.42
  A 0.45 0.12 -75.1 0 0 203.64 122.35
  C 206.82 116.96 208.28 111.95 210.74 106.18
  Q 214.46 97.45 216.57 93.54
  Q 217.05 92.64 216.20 91.78
  Q 215.62 91.20 215.37 90.10
  A 0.66 0.60 -75.8 0 0 215.20 89.78
  L 214.26 88.81
  Q 211.77 87.90 210.52 90.98
  Q 209.92 92.47 211.64 93.82
  L 213.35 93.87
  A 0.58 0.58 0.0 0 1 213.89 94.61
  Q 213.59 95.64 212.87 95.90
  Q 212.18 96.15 211.32 95.43
  Q 209.61 94.01 208.81 92.85
  A 1.77 1.77 0.0 0 1 208.94 90.67
  L 211.40 87.91
  A 2.21 2.20 -51.4 0 1 214.33 87.58
  L 216.90 89.41
  A 1.06 1.06 0.0 0 0 218.56 88.75
  Q 218.80 87.53 219.22 86.82
  A 1.01 0.98 10.5 0 1 219.94 86.34
  Q 221.89 86.05 223.48 84.90
  A 0.70 0.70 0.0 0 1 224.58 85.34
  C 225.45 89.75 222.75 92.53 221.48 95.47
  Q 216.23 107.66 210.37 122.57
  A 0.72 0.71 7.4 0 0 211.12 123.54
  L 215.96 122.95
  A 0.86 0.86 0.0 0 0 216.72 122.22
  C 216.91 121.02 218.33 117.54 220.04 116.93
  A 0.55 0.55 0.0 0 1 220.77 117.53
  L 219.87 123.43
  A 0.41 0.40 21.2 0 0 220.04 123.81
  L 220.34 124.03
  A 0.41 0.41 0.0 0 0 220.97 123.83
  Q 222.09 120.57 221.94 117.47
  A 2.08 1.93 31.5 0 0 221.70 116.61
  C 220.65 114.73 220.67 112.99 221.92 110.88
  Q 223.63 107.97 223.89 105.32
  Q 225.19 92.02 226.55 87.31
  A 3.65 3.57 51.2 0 0 226.68 85.98
  Q 226.22 80.32 227.55 75.15
  C 228.15 72.81 228.11 70.38 227.01 68.29
  A 1.57 1.55 47.9 0 1 227.08 66.74
  L 228.96 63.77
  A 1.55 1.51 61.3 0 0 229.20 62.91
  Q 229.10 59.23 226.71 56.76
  Q 224.35 54.32 223.36 52.83
  A 2.59 2.57 -84.5 0 0 222.96 52.34
  Q 210.87 40.48 200.30 30.94
  Q 198.85 29.63 198.50 27.78
  L 203.67 30.17
  Q 206.13 34.29 209.80 37.31
  A 0.50 0.50 0.0 0 0 210.62 36.91
  L 210.32 27.76
  Q 211.68 26.34 213.06 27.43
  Q 218.36 31.65 223.01 36.57
  Z
  M 231.10 51.17
  L 235.04 58.01
  A 0.61 0.61 0.0 0 0 236.18 57.66
  Q 235.63 49.45 235.37 47.22
  Q 235.28 46.45 234.23 42.72
  A 0.84 0.84 0.0 0 0 232.87 42.32
  L 231.32 43.71
  A 2.31 2.30 66.9 0 0 230.56 45.61
  L 230.93 50.64
  A 1.24 1.14 29.6 0 0 231.10 51.17
  Z
  M 325.27 92.75
  A 0.62 0.62 0.0 0 0 326.28 92.43
  Q 327.73 86.70 329.79 81.30
  Q 330.35 79.83 330.51 76.93
  A 1.59 1.59 0.0 0 0 328.65 75.28
  L 319.92 76.79
  A 2.90 2.90 0.0 0 0 317.74 78.49
  C 316.95 80.29 314.03 87.01 314.69 89.22
  Q 315.02 90.35 313.50 91.49
  A 1.14 1.14 0.0 0 0 314.37 93.52
  L 323.41 91.96
  A 0.80 0.79 -40.3 0 1 323.82 91.99
  Q 324.76 92.31 325.27 92.75
  Z
  M 332.10 99.33
  L 345.97 96.93
  A 1.74 1.70 -80.6 0 0 347.21 96.02
  L 348.32 93.91
  A 0.79 0.78 18.2 0 1 349.14 93.50
  Q 352.31 93.98 353.60 92.68
  A 1.13 1.09 -17.2 0 0 353.90 92.14
  L 355.28 85.47
  A 0.57 0.56 -88.9 0 0 354.63 84.79
  Q 337.66 87.73 337.14 87.81
  Q 334.84 88.17 334.14 90.17
  Q 332.77 94.05 331.56 98.74
  A 0.48 0.48 0.0 0 0 332.10 99.33
  Z
  M 438.17 91.14
  Q 436.69 89.51 434.52 89.29
  Q 427.96 88.60 422.47 85.91
  A 0.39 0.39 0.0 0 0 421.98 86.48
  C 425.43 91.45 430.64 91.66 437.15 92.96
  A 1.10 1.10 0.0 0 0 438.17 91.14
  Z
  M 381.13 114.62
  L 378.30 128.23
  A 0.83 0.83 0.0 0 0 379.21 129.23
  L 388.10 128.16
  A 0.77 0.77 0.0 0 0 388.73 127.68
  Q 389.98 124.41 390.10 123.56
  Q 391.01 117.25 394.76 103.53
  Q 395.46 100.94 395.60 99.93
  A 0.59 0.59 0.0 0 0 394.88 99.29
  C 391.33 100.14 388.52 100.10 385.08 102.53
  A 1.96 1.93 22.6 0 1 384.26 102.86
  C 380.53 103.42 379.41 100.41 377.85 97.75
  A 1.31 1.30 55.6 0 0 375.92 97.38
  C 371.57 100.78 370.59 108.23 369.60 114.27
  A 0.72 0.71 -88.8 0 0 370.39 115.10
  L 380.47 113.89
  A 0.61 0.60 -87.5 0 1 381.13 114.62
  Z
  M 347.21 102.09
  L 344.81 104.49
  A 2.16 2.15 -71.1 0 1 343.53 105.12
  L 335.54 106.08
  A 1.56 1.54 -84.1 0 0 334.24 107.15
  L 331.43 115.86
  A 0.59 0.59 0.0 0 0 331.93 116.63
  Q 334.47 116.90 336.26 116.56
  Q 344.68 114.94 352.58 114.59
  A 2.02 2.02 0.0 0 0 354.39 113.26
  Q 355.84 109.29 355.32 106.59
  A 0.90 0.90 0.0 0 0 354.73 105.91
  Q 354.29 105.75 353.50 106.10
  A 1.00 0.98 -38.9 0 1 352.56 106.01
  Q 350.98 104.92 350.44 103.81
  Q 349.82 102.56 348.18 101.90
  A 0.91 0.90 33.6 0 0 347.21 102.09
  Z
  M 273.97 117.27
  Q 271.87 117.64 271.62 118.92
  Q 270.67 123.89 268.54 128.18
  A 0.53 0.53 0.0 0 0 269.03 128.95
  Q 272.46 128.84 280.18 128.40
  Q 280.78 128.36 281.87 126.96
  L 278.45 137.51
  A 0.94 0.94 0.0 0 0 279.43 138.74
  Q 285.18 138.19 291.01 137.35
  Q 292.14 137.19 292.68 138.15
  A 0.78 0.77 43.2 0 0 294.05 138.11
  Q 296.19 133.62 297.26 130.25
  Q 298.82 125.34 294.43 124.33
  L 297.23 123.97
  A 1.62 1.62 0.0 0 0 298.55 122.86
  L 301.21 114.59
  A 0.86 0.86 0.0 0 0 300.28 113.47
  L 278.96 116.52
  Q 279.62 115.42 279.64 114.50
  A 1.79 1.77 -2.8 0 0 277.63 112.70
  Q 275.74 112.94 274.08 113.64
  A 2.25 2.03 -18.2 0 0 272.72 116.02
  Q 272.87 116.74 273.97 117.27
  Z
  M 314.57 132.32
  Q 315.32 129.10 316.83 125.64
  Q 317.50 124.09 319.03 117.68
  C 319.57 115.40 319.12 113.81 316.52 114.02
  Q 312.85 114.31 307.01 115.15
  A 1.73 1.72 4.7 0 0 305.63 116.31
  L 302.26 126.80
  A 1.87 1.83 51.6 0 0 302.18 127.56
  L 302.34 128.78
  A 1.36 1.34 59.9 0 1 302.10 129.72
  L 300.71 131.68
  A 1.11 1.11 0.0 0 0 301.76 133.43
  C 306.23 132.85 311.32 131.71 313.09 132.90
  A 0.97 0.97 0.0 0 0 314.57 132.32
  Z
  M 334.53 133.41
  A 0.87 0.87 0.0 0 0 335.25 132.81
  L 339.15 120.68
  A 0.87 0.87 0.0 0 0 338.22 119.55
  L 330.84 120.43
  A 0.87 0.87 0.0 0 0 330.12 121.03
  L 326.22 133.16
  A 0.87 0.87 0.0 0 0 327.15 134.29
  L 334.53 133.41
  Z
  M 307.87 157.67
  Q 306.39 157.49 304.99 158.26
  A 1.63 1.61 88.3 0 0 304.33 158.97
  Q 303.50 160.68 303.50 162.58
  Q 303.49 166.44 303.15 170.59
  Q 298.11 169.11 295.86 172.76
  A 1.43 1.42 -50.2 0 0 296.01 174.46
  L 297.76 176.43
  A 1.09 1.06 30.3 0 1 298.02 177.37
  L 297.39 180.38
  A 1.65 1.64 6.2 0 0 298.99 182.36
  C 302.15 182.39 305.82 185.55 309.11 183.47
  C 310.79 182.41 309.98 179.97 313.37 179.77
  A 2.29 2.07 -5.1 0 0 315.54 177.43
  Q 315.32 175.62 314.22 174.41
  A 1.87 1.86 79.7 0 0 313.53 173.93
  L 309.56 172.30
  Q 313.83 168.25 312.77 161.85
  Q 313.26 162.42 313.68 162.55
  Q 314.19 162.71 314.49 162.01
  C 316.68 156.99 318.98 152.73 317.95 148.46
  A 0.75 0.74 -16.4 0 0 316.97 147.93
  Q 316.28 148.18 314.78 148.15
  A 1.52 1.49 62.8 0 1 313.94 147.87
  Q 313.50 147.56 311.17 146.99
  A 0.36 0.36 0.0 0 0 310.82 147.57
  Q 311.41 148.27 311.38 149.33
  A 0.42 0.41 82.0 0 1 311.10 149.71
  L 307.28 151.00
  A 1.11 1.07 -80.6 0 0 306.77 151.38
  Q 302.85 156.88 307.87 157.67
  Z
  M 390.64 209.47
  L 390.83 207.04
  A 0.41 0.41 0.0 0 0 390.45 206.60
  L 390.08 206.57
  A 1.50 1.48 4.4 0 0 388.47 207.93
  L 388.45 208.23
  A 1.50 1.48 4.4 0 0 389.83 209.82
  L 390.20 209.85
  A 0.41 0.41 0.0 0 0 390.64 209.47
  Z"
/>
<path fill="#1b1807" d="
  M 210.32 27.76
  L 210.62 36.91
  A 0.50 0.50 0.0 0 1 209.80 37.31
  Q 206.13 34.29 203.67 30.17
  C 206.47 31.46 208.28 29.23 210.32 27.76
  Z"
/>
<path fill="#1b1807" d="
  M 233.65 40.06
  L 229.49 42.32
  A 1.67 1.67 0.0 0 1 227.39 41.91
  L 223.01 36.57
  C 224.56 37.31 226.50 37.97 227.67 39.19
  Q 228.34 39.87 229.18 40.26
  A 1.83 1.77 -34.1 0 0 230.09 40.42
  L 233.65 40.06
  Z"
/>
<path fill="#bc9423" d="
  M 129.25 50.94
  L 125.25 46.93
  A 1.44 1.43 43.4 0 1 125.19 44.96
  L 128.72 40.98
  A 0.45 0.45 0.0 0 1 129.48 41.43
  Q 129.12 42.42 127.83 43.51
  A 1.69 1.68 -7.3 0 0 127.38 44.09
  C 126.06 46.82 128.51 49.05 131.18 48.84
  A 0.46 0.45 -82.7 0 1 131.64 49.44
  Q 131.05 51.14 129.88 51.18
  A 0.83 0.82 -23.8 0 1 129.25 50.94
  Z"
/>
<path fill="#1b1807" d="
  M 230.93 50.64
  L 230.56 45.61
  A 2.31 2.30 66.9 0 1 231.32 43.71
  L 232.87 42.32
  A 0.84 0.84 0.0 0 1 234.23 42.72
  Q 235.28 46.45 235.37 47.22
  Q 235.63 49.45 236.18 57.66
  A 0.61 0.61 0.0 0 1 235.04 58.01
  L 231.10 51.17
  A 1.24 1.14 29.6 0 1 230.93 50.64
  Z"
/>
<path fill="#1b1807" d="
  M 265.33 63.32
  Q 264.78 64.43 263.73 63.93
  Q 259.06 61.72 254.79 61.19
  L 245.75 58.40
  L 239.47 56.32
  A 2.00 1.97 -84.1 0 1 238.13 54.65
  L 237.32 47.04
  C 238.65 50.50 238.80 52.76 241.98 55.79
  A 2.79 2.68 -12.5 0 0 242.90 56.35
  Q 246.90 57.77 250.78 59.19
  Q 251.70 59.53 253.22 59.75
  C 254.00 59.86 255.51 59.74 256.45 60.41
  Q 258.03 61.52 259.81 61.55
  C 261.59 61.57 263.46 62.79 265.33 63.32
  Z"
/>
<path fill="#ffffff" d="
  M 387.56 56.78
  Q 389.24 56.52 391.37 59.90
  Q 392.52 63.12 390.65 67.36
  A 1.07 1.06 -81.9 0 1 389.82 67.99
  Q 383.49 68.88 386.71 66.51
  Q 388.13 64.81 388.52 63.65
  Q 389.34 63.19 389.08 62.36
  A 0.72 0.72 0.0 0 0 388.45 61.85
  C 384.65 61.56 381.57 62.69 377.52 63.30
  Q 367.99 64.73 358.02 67.57
  Q 356.09 68.12 355.99 66.76
  Q 356.55 62.64 360.09 62.30
  L 371.71 60.04
  L 373.54 59.45
  L 378.24 59.02
  A 1.12 0.34 -28.2 0 0 378.39 58.99
  L 387.56 56.78
  Z"
/>
<path fill="#423613" d="
  M 245.75 58.40
  L 254.79 61.19
  L 255.89 62.33
  A 0.68 0.66 44.4 0 1 255.91 63.23
  Q 254.69 64.61 253.28 65.26
  A 0.77 0.76 -7.9 0 0 252.86 65.81
  Q 252.58 67.31 250.81 68.11
  Q 246.98 69.85 244.65 71.26
  Q 244.36 71.43 243.61 71.41
  A 0.48 0.47 -13.9 0 1 243.22 71.18
  L 238.03 62.18
  A 0.13 0.13 0.0 0 1 238.21 62.01
  Q 241.71 64.52 246.95 63.51
  A 2.57 2.14 86.8 0 0 248.71 61.13
  Q 248.77 59.04 245.75 58.40
  Z"
/>
<path fill="#1b1807" d="
  M 427.77 61.34
  Q 425.36 62.84 423.66 64.95
  Q 420.98 68.28 420.47 68.73
  Q 418.47 70.47 416.98 72.26
  A 0.81 0.81 0.0 0 1 415.63 72.11
  L 413.30 67.55
  A 0.80 0.42 27.7 0 0 413.19 67.39
  Q 409.42 63.33 406.48 58.46
  L 414.78 67.58
  A 0.98 0.96 64.9 0 0 415.61 67.89
  Q 417.79 67.63 418.64 66.89
  Q 423.26 62.86 427.77 61.34
  Z"
/>
<path fill="#97939b" d="
  M 389.78 71.96
  Q 387.29 72.39 386.99 71.34
  A 1.69 1.69 0.0 0 0 385.06 70.14
  Q 371.34 72.74 359.05 75.57
  Q 357.58 74.81 357.24 73.53
  A 1.29 1.28 77.1 0 1 358.23 71.94
  L 386.71 66.51
  Q 383.49 68.88 389.82 67.99
  A 1.07 1.06 -81.9 0 0 390.65 67.36
  Q 392.52 63.12 391.37 59.90
  Q 392.58 59.63 392.68 61.63
  A 2.79 2.79 0.0 0 0 393.58 63.54
  Q 395.87 65.63 394.42 68.93
  A 1.17 1.15 1.6 0 1 393.74 69.56
  Q 390.96 70.49 389.78 71.96
  Z"
/>
<path fill="#97939b" d="
  M 388.52 63.65
  L 358.70 69.63
  Q 355.92 69.62 355.36 67.22
  Q 355.57 66.81 355.99 66.76
  Q 356.09 68.12 358.02 67.57
  Q 367.99 64.73 377.52 63.30
  C 381.57 62.69 384.65 61.56 388.45 61.85
  A 0.72 0.72 0.0 0 1 389.08 62.36
  Q 389.34 63.19 388.52 63.65
  Z"
/>
<path fill="#1b1807" d="
  M 388.52 63.65
  Q 388.13 64.81 386.71 66.51
  L 358.23 71.94
  A 1.29 1.28 77.1 0 0 357.24 73.53
  Q 357.58 74.81 359.05 75.57
  L 359.43 76.08
  A 0.81 0.81 0.0 0 1 358.85 77.38
  Q 356.32 77.59 354.28 76.83
  A 0.75 0.74 -76.7 0 1 353.80 76.04
  Q 354.36 71.31 358.70 69.63
  L 388.52 63.65
  Z"
/>
<path fill="#1b1807" d="
  M 288.58 74.16
  Q 283.70 77.14 283.12 83.07
  A 1.23 1.21 27.0 0 0 283.43 84.00
  Q 288.11 89.08 291.16 91.78
  C 294.09 94.36 297.44 92.91 301.36 91.38
  A 1.48 1.46 -2.3 0 0 302.22 90.46
  L 304.34 83.86
  A 2.14 2.13 -85.8 0 1 306.00 82.42
  L 312.55 81.29
  A 0.98 0.98 0.0 0 1 313.65 82.56
  L 306.47 104.87
  A 2.21 2.18 -85.7 0 1 304.75 106.37
  L 299.69 107.25
  A 2.64 2.59 -73.4 0 0 298.16 108.10
  L 296.96 109.45
  A 2.42 2.39 17.2 0 1 295.46 110.23
  L 284.67 111.52
  A 1.02 1.01 5.5 0 1 283.58 110.20
  L 285.07 105.55
  A 0.64 0.60 50.4 0 0 285.09 105.24
  Q 284.01 99.80 279.31 98.97
  A 0.94 0.93 -3.6 0 1 278.58 98.33
  L 278.24 97.27
  Q 278.32 95.39 277.53 94.95
  Q 274.78 93.42 273.10 95.08
  L 271.96 95.68
  L 268.39 95.50
  A 1.28 1.28 0.0 0 1 267.26 93.75
  C 268.20 91.33 269.09 87.87 270.54 85.66
  Q 271.25 84.55 270.68 83.01
  A 0.64 0.64 0.0 0 0 269.61 82.81
  L 268.58 83.97
  A 0.72 0.71 29.8 0 1 267.82 84.17
  L 267.46 84.04
  A 0.47 0.47 0.0 0 1 267.30 83.29
  Q 267.65 82.91 267.93 81.47
  Q 268.49 78.50 266.31 78.23
  A 0.56 0.53 -46.6 0 0 266.13 78.24
  L 264.48 78.52
  A 0.67 0.67 0.0 0 1 263.71 77.72
  L 266.24 65.62
  Q 266.26 71.07 267.88 76.49
  A 2.85 2.84 88.3 0 0 269.94 78.44
  C 274.96 79.63 279.49 80.33 283.66 76.43
  Q 285.65 74.57 288.58 74.16
  Z"
/>
<path fill="#97939b" d="
  M 94.81 70.69
  A 0.29 0.28 -12.1 0 1 95.28 70.99
  Q 94.42 73.23 94.88 74.55
  A 0.41 0.41 0.0 0 1 94.40 75.08
  Q 92.90 74.73 92.47 73.73
  A 0.79 0.77 -34.6 0 1 92.64 72.87
  L 94.81 70.69
  Z"
/>
<path fill="#1b1807" d="
  M 332.79 71.52
  Q 332.54 71.85 332.02 71.78
  Q 332.36 71.47 332.79 71.52
  Z"
/>
<path fill="#1b1807" d="
  M 293.95 73.46
  L 289.71 73.78
  Q 291.74 72.46 293.95 73.46
  Z"
/>
<path fill="#97939b" d="
  M 194.9705 82.0441
  A 2.22 2.22 0.0 0 1 191.8319 82.1208
  L 189.9346 80.3140
  A 2.22 2.22 0.0 0 1 189.8579 77.1754
  L 192.4095 74.4959
  A 2.22 2.22 0.0 0 1 195.5481 74.4192
  L 197.4454 76.2260
  A 2.22 2.22 0.0 0 1 197.5221 79.3646
  L 194.9705 82.0441
  Z
  M 195.2201 75.7974
  A 2.84 2.45 -57.4 0 0 191.6260 76.8700
  A 2.84 2.45 -57.4 0 0 192.1599 80.5826
  A 2.84 2.45 -57.4 0 0 195.7540 79.5100
  A 2.84 2.45 -57.4 0 0 195.2201 75.7974
  Z"
/>
<path fill="#1b1807" d="
  M 308.93 76.27
  L 301.16 78.15
  A 0.98 0.97 -30.7 0 1 300.28 77.93
  L 296.11 74.26
  L 300.73 75.75
  A 5.63 5.49 54.3 0 0 302.20 76.01
  L 308.93 76.27
  Z"
/>
<ellipse fill="#1b1807" cx="0.00" cy="0.00" transform="translate(193.69,78.19) rotate(-57.4)" rx="2.84" ry="2.45"/>
<path fill="#ffffff" d="
  M 325.27 92.75
  Q 324.76 92.31 323.82 91.99
  A 0.80 0.79 -40.3 0 0 323.41 91.96
  L 314.37 93.52
  A 1.14 1.14 0.0 0 1 313.50 91.49
  Q 315.02 90.35 314.69 89.22
  C 314.03 87.01 316.95 80.29 317.74 78.49
  A 2.90 2.90 0.0 0 1 319.92 76.79
  L 328.65 75.28
  A 1.59 1.59 0.0 0 1 330.51 76.93
  Q 330.35 79.83 329.79 81.30
  Q 327.73 86.70 326.28 92.43
  A 0.62 0.62 0.0 0 1 325.27 92.75
  Z
  M 320.6281 88.6362
  A 0.87 0.65 -104.1 0 0 320.2096 89.6383
  A 0.87 0.65 -104.1 0 0 321.0519 90.3238
  A 0.87 0.65 -104.1 0 0 321.4704 89.3217
  A 0.87 0.65 -104.1 0 0 320.6281 88.6362
  Z"
/>
<path fill="#bc9423" d="
  M 81.39 90.15
  A 0.31 0.31 0.0 0 1 81.01 90.60
  L 78.71 89.58
  A 1.06 1.06 0.0 0 1 78.39 87.86
  L 83.46 82.79
  A 0.49 0.48 -37.1 0 1 84.23 82.89
  L 84.39 83.18
  A 1.03 1.02 58.1 0 1 84.08 84.53
  C 82.07 85.92 79.60 87.35 81.39 90.15
  Z"
/>
<path fill="#97939b" d="
  M 185.9959 91.7229
  A 2.32 2.32 0.0 0 1 182.7152 91.7630
  L 180.6540 89.7516
  A 2.32 2.32 0.0 0 1 180.6139 86.4708
  L 183.1841 83.8371
  A 2.32 2.32 0.0 0 1 186.4648 83.7970
  L 188.5260 85.8084
  A 2.32 2.32 0.0 0 1 188.5661 89.0892
  L 185.9959 91.7229
  Z
  M 186.4850 85.6317
  A 2.86 2.52 -49.3 0 0 182.7095 86.1567
  A 2.86 2.52 -49.3 0 0 182.7550 89.9683
  A 2.86 2.52 -49.3 0 0 186.5305 89.4433
  A 2.86 2.52 -49.3 0 0 186.4850 85.6317
  Z"
/>
<path fill="#1b1807" d="
  M 332.10 99.33
  A 0.48 0.48 0.0 0 1 331.56 98.74
  Q 332.77 94.05 334.14 90.17
  Q 334.84 88.17 337.14 87.81
  Q 337.66 87.73 354.63 84.79
  A 0.57 0.56 -88.9 0 1 355.28 85.47
  L 353.90 92.14
  A 1.13 1.09 -17.2 0 1 353.60 92.68
  Q 352.31 93.98 349.14 93.50
  A 0.79 0.78 18.2 0 0 348.32 93.91
  L 347.21 96.02
  A 1.74 1.70 -80.6 0 1 345.97 96.93
  L 332.10 99.33
  Z"
/>
<ellipse fill="#1b1807" cx="0.00" cy="0.00" transform="translate(184.62,87.80) rotate(-49.3)" rx="2.86" ry="2.52"/>
<path fill="#423613" d="
  M 468.16 85.52
  Q 473.13 89.97 476.59 95.65
  Q 483.60 107.16 483.91 107.96
  Q 484.17 108.62 489.86 118.37
  Q 494.13 125.68 497.84 133.45
  Q 499.13 136.16 504.78 145.68
  A 8.51 8.39 19.8 0 1 505.45 147.08
  Q 507.44 152.41 509.49 157.26
  C 510.52 159.73 511.19 162.68 512.00 165.40
  L 512.00 175.36
  Q 511.76 179.30 509.52 181.84
  L 508.58 181.55
  Q 507.79 180.78 505.66 180.98
  A 0.48 0.47 -86.7 0 1 505.16 180.41
  L 505.69 177.84
  A 0.93 0.92 -54.2 0 0 505.59 177.20
  L 504.40 175.14
  A 1.07 1.06 -18.4 0 1 505.20 173.55
  L 507.11 173.32
  A 1.66 1.65 -0.7 0 0 508.56 171.84
  L 509.07 166.71
  A 2.32 2.15 -53.7 0 0 508.96 165.75
  Q 508.70 164.96 506.98 163.00
  Q 505.91 161.78 505.56 160.03
  Q 504.83 156.43 501.54 153.17
  A 0.55 0.19 70.7 0 1 501.46 153.07
  L 497.25 145.77
  A 0.17 0.17 0.0 0 1 497.44 145.52
  Q 499.26 145.92 498.82 144.07
  Q 497.90 140.15 497.86 140.04
  A 2.08 2.06 10.4 0 0 497.31 139.25
  Q 496.86 138.84 496.84 138.84
  A 1.92 1.90 -71.3 0 0 494.21 140.15
  Q 493.64 142.50 492.30 143.55
  A 0.32 0.32 0.0 0 0 492.33 144.07
  Q 492.42 144.13 492.77 144.17
  Q 492.90 144.19 492.94 144.39
  Q 493.29 146.61 494.67 150.10
  C 495.39 151.92 494.12 154.48 496.82 154.83
  Q 498.19 155.00 499.18 156.00
  A 0.23 0.23 0.0 0 1 499.22 156.27
  L 499.08 156.53
  A 0.08 0.07 -59.1 0 1 498.97 156.56
  L 497.85 155.78
  A 1.29 1.29 0.0 0 0 495.86 156.56
  L 494.60 162.22
  A 0.27 0.26 -78.2 0 1 494.30 162.42
  L 494.29 162.42
  A 0.12 0.11 -77.0 0 1 494.22 162.30
  L 494.70 157.03
  A 1.60 1.60 0.0 0 0 494.41 155.94
  Q 492.20 152.84 491.68 148.20
  Q 491.64 147.77 491.62 148.14
  Q 491.52 151.17 490.82 153.06
  A 1.80 1.79 -64.1 0 1 488.20 153.97
  L 484.95 151.99
  A 3.91 3.80 88.7 0 1 483.72 150.78
  L 478.57 142.65
  A 1.08 1.05 -68.0 0 1 478.40 142.23
  Q 478.02 140.30 477.59 139.69
  Q 472.61 132.63 471.53 130.73
  Q 468.83 126.01 463.94 119.51
  A 1.10 1.09 -27.2 0 0 462.71 119.12
  Q 458.77 120.37 454.22 119.77
  A 0.06 0.05 -28.9 0 0 454.18 119.88
  Q 454.20 119.88 454.21 119.88
  A 0.09 0.00 -18.9 0 1 454.28 119.86
  Q 456.22 119.91 457.91 119.84
  A 2.24 2.22 -67.4 0 0 459.35 119.24
  Q 463.61 115.25 464.88 110.22
  A 0.51 0.51 0.0 0 0 464.29 109.59
  L 463.96 109.64
  A 0.27 0.27 0.0 0 1 463.70 109.21
  Q 465.33 107.24 464.87 105.84
  A 0.56 0.56 0.0 0 1 465.66 105.17
  L 468.04 106.42
  A 1.33 1.33 0.0 0 0 469.85 105.83
  Q 470.90 103.67 471.26 101.71
  Q 471.43 100.79 472.40 100.84
  Q 473.65 100.90 473.78 102.15
  A 0.15 0.15 0.0 0 0 474.06 102.19
  Q 474.34 101.48 475.05 101.55
  A 0.17 0.17 0.0 0 0 475.17 101.25
  Q 473.53 100.03 472.73 98.27
  Q 470.35 93.04 468.16 85.52
  Z"
/>
<path fill="#1b1807" d="
  M 438.17 91.14
  A 1.10 1.10 0.0 0 1 437.15 92.96
  C 430.64 91.66 425.43 91.45 421.98 86.48
  A 0.39 0.39 0.0 0 1 422.47 85.91
  Q 427.96 88.60 434.52 89.29
  Q 436.69 89.51 438.17 91.14
  Z"
/>
<path fill="#0f2631" d="
  M 214.26 88.81
  Q 215.65 92.87 211.64 93.82
  Q 209.92 92.47 210.52 90.98
  Q 211.77 87.90 214.26 88.81
  Z"
/>
<ellipse fill="#97939b" cx="0.00" cy="0.00" transform="translate(320.84,89.48) rotate(-104.1)" rx="0.87" ry="0.65"/>
<path fill="#ffffff" d="
  M 278.24 97.27
  L 273.61 110.69
  A 1.49 1.49 0.0 0 1 270.98 111.06
  Q 269.61 109.12 267.39 108.09
  A 2.24 2.23 26.0 0 0 264.47 109.09
  L 262.49 112.93
  Q 262.25 116.90 265.00 117.26
  Q 265.10 117.30 265.21 117.33
  L 265.57 117.48
  A 0.87 0.85 1.1 0 1 266.01 117.93
  Q 266.88 120.03 265.76 121.38
  A 1.49 1.48 65.5 0 1 263.14 120.39
  Q 263.16 119.48 262.52 118.21
  Q 262.30 117.59 260.12 117.10
  Q 258.31 115.11 261.11 110.91
  A 5.44 5.22 -19.4 0 0 261.62 109.90
  L 266.73 95.90
  L 269.44 96.15
  A 1.36 1.35 -61.7 0 1 270.16 98.56
  Q 269.14 99.37 269.09 100.28
  Q 268.85 101.00 268.87 101.73
  A 1.70 1.69 25.3 0 0 269.22 102.70
  Q 269.92 103.60 270.93 104.85
  Q 271.62 105.69 272.15 105.56
  Q 272.81 105.41 273.31 104.73
  A 1.41 1.40 34.1 0 0 272.91 102.68
  L 270.74 101.37
  C 270.80 98.56 273.26 97.98 273.10 95.08
  Q 274.78 93.42 277.53 94.95
  Q 278.32 95.39 278.24 97.27
  Z"
/>
<path fill="#97939b" d="
  M 273.10 95.08
  C 273.26 97.98 270.80 98.56 270.74 101.37
  Q 270.03 101.35 269.90 100.68
  Q 269.82 100.25 269.66 100.16
  Q 269.41 100.04 269.09 100.28
  Q 269.14 99.37 270.16 98.56
  A 1.36 1.35 -61.7 0 0 269.44 96.15
  L 266.73 95.90
  L 271.96 95.68
  L 273.10 95.08
  Z"
/>
<path fill="#1b1807" d="
  M 381.13 114.62
  A 0.61 0.60 -87.5 0 0 380.47 113.89
  L 370.39 115.10
  A 0.72 0.71 -88.8 0 1 369.60 114.27
  C 370.59 108.23 371.57 100.78 375.92 97.38
  A 1.31 1.30 55.6 0 1 377.85 97.75
  C 379.41 100.41 380.53 103.42 384.26 102.86
  A 1.96 1.93 22.6 0 0 385.08 102.53
  C 388.52 100.10 391.33 100.14 394.88 99.29
  A 0.59 0.59 0.0 0 1 395.60 99.93
  Q 395.46 100.94 394.76 103.53
  Q 391.01 117.25 390.10 123.56
  Q 389.98 124.41 388.73 127.68
  A 0.77 0.77 0.0 0 1 388.10 128.16
  L 379.21 129.23
  A 0.83 0.83 0.0 0 1 378.30 128.23
  L 381.13 114.62
  Z"
/>
<path fill="#1b1807" d="
  M 270.74 101.37
  L 272.91 102.68
  A 1.41 1.40 34.1 0 1 273.31 104.73
  Q 272.81 105.41 272.15 105.56
  Q 271.62 105.69 270.93 104.85
  Q 269.92 103.60 269.22 102.70
  A 1.70 1.69 25.3 0 1 268.87 101.73
  Q 268.85 101.00 269.09 100.28
  Q 269.41 100.04 269.66 100.16
  Q 269.82 100.25 269.90 100.68
  Q 270.03 101.35 270.74 101.37
  Z"
/>
<path fill="#97939b" d="
  M 201.1241 108.6404
  A 2.19 2.19 0.0 0 1 198.0327 108.8295
  L 196.0405 107.0669
  A 2.19 2.19 0.0 0 1 195.8514 103.9756
  L 198.3959 101.0996
  A 2.19 2.19 0.0 0 1 201.4873 100.9105
  L 203.4795 102.6731
  A 2.19 2.19 0.0 0 1 203.6686 105.7644
  L 201.1241 108.6404
  Z
  M 201.6634 102.5379
  A 2.79 2.25 -50.8 0 0 198.1564 103.2779
  A 2.79 2.25 -50.8 0 0 198.1366 106.8621
  A 2.79 2.25 -50.8 0 0 201.6436 106.1221
  A 2.79 2.25 -50.8 0 0 201.6634 102.5379
  Z"
/>
<path fill="#1b1807" d="
  M 348.18 101.90
  Q 349.82 102.56 350.44 103.81
  Q 350.98 104.92 352.56 106.01
  A 1.00 0.98 -38.9 0 0 353.50 106.10
  Q 354.29 105.75 354.73 105.91
  A 0.90 0.90 0.0 0 1 355.32 106.59
  Q 355.84 109.29 354.39 113.26
  A 2.02 2.02 0.0 0 1 352.58 114.59
  Q 344.68 114.94 336.26 116.56
  Q 334.47 116.90 331.93 116.63
  A 0.59 0.59 0.0 0 1 331.43 115.86
  L 334.24 107.15
  A 1.56 1.54 -84.1 0 1 335.54 106.08
  L 343.53 105.12
  A 2.16 2.15 -71.1 0 0 344.81 104.49
  L 347.21 102.09
  A 0.91 0.90 33.6 0 1 348.18 101.90
  Z"
/>
<ellipse fill="#1b1807" cx="0.00" cy="0.00" transform="translate(199.90,104.70) rotate(-50.8)" rx="2.79" ry="2.25"/>
<path fill="#bc9423" d="
  M 49.18 114.86
  A 1.71 1.71 0.0 0 1 49.08 112.44
  L 51.75 109.54
  A 3.27 3.13 -47.4 0 1 56.27 109.26
  L 57.81 110.68
  A 3.27 3.13 -47.4 0 1 57.90 115.20
  L 55.24 118.10
  A 1.71 1.71 0.0 0 1 52.82 118.20
  L 49.18 114.86
  Z
  M 57.3898 114.6255
  A 2.12 2.12 0.0 0 0 57.0972 111.6417
  L 56.1081 110.8292
  A 2.12 2.12 0.0 0 0 53.1243 111.1218
  L 52.2102 112.2345
  A 2.12 2.12 0.0 0 0 52.5028 115.2183
  L 53.4919 116.0308
  A 2.12 2.12 0.0 0 0 56.4757 115.7382
  L 57.3898 114.6255
  Z"
/>
<rect fill="#1b1807" x="-2.76" y="-2.84" transform="translate(54.80,113.43) rotate(39.4)" width="5.52" height="5.68" rx="2.12"/>
<path fill="#97939b" d="
  M 278.96 116.52
  L 273.97 117.27
  Q 272.87 116.74 272.72 116.02
  A 2.25 2.03 -18.2 0 1 274.08 113.64
  Q 275.74 112.94 277.63 112.70
  A 1.79 1.77 -2.8 0 1 279.64 114.50
  Q 279.62 115.42 278.96 116.52
  Z"
/>
<path fill="#1b1807" d="
  M 262.49 112.93
  Q 263.79 113.86 264.95 114.41
  Q 266.40 115.11 267.63 114.83
  Q 268.88 114.55 270.41 114.58
  A 0.59 0.59 0.0 0 1 270.88 115.52
  Q 269.91 116.87 268.40 117.42
  C 267.70 117.67 266.28 116.85 265.00 117.26
  Q 262.25 116.90 262.49 112.93
  Z"
/>
<path fill="#1b1807" d="
  M 294.43 124.33
  L 283.40 125.71
  A 1.53 1.48 19.4 0 0 282.57 126.09
  Q 282.14 126.47 281.87 126.96
  Q 280.78 128.36 280.18 128.40
  Q 272.46 128.84 269.03 128.95
  A 0.53 0.53 0.0 0 1 268.54 128.18
  Q 270.67 123.89 271.62 118.92
  Q 271.87 117.64 273.97 117.27
  L 278.96 116.52
  L 300.28 113.47
  A 0.86 0.86 0.0 0 1 301.21 114.59
  L 298.55 122.86
  A 1.62 1.62 0.0 0 1 297.23 123.97
  L 294.43 124.33
  Z"
/>
<path fill="#423613" d="
  M 218.98 144.99
  Q 219.36 145.03 220.39 145.58
  Q 220.99 145.91 221.26 146.46
  A 0.21 0.21 0.0 0 1 220.96 146.74
  Q 220.50 146.45 220.37 146.36
  Q 220.23 146.25 219.66 146.60
  Q 218.90 147.06 219.88 149.28
  A 1.31 1.19 55.9 0 0 221.90 149.77
  Q 221.97 149.71 221.92 149.22
  A 0.47 0.15 81.7 0 1 221.99 148.79
  Q 222.05 148.77 222.09 148.77
  A 0.12 0.04 1.1 0 1 222.22 148.81
  Q 221.87 153.16 225.55 154.59
  A 0.86 0.85 -60.3 0 0 226.52 154.32
  Q 226.94 153.77 227.08 152.84
  A 0.16 0.16 0.0 0 1 227.27 152.71
  A 0.13 0.13 0.0 0 1 227.34 152.84
  L 227.12 155.51
  A 0.99 0.99 0.0 0 1 225.36 156.05
  Q 223.52 153.78 220.52 155.41
  A 0.93 0.92 -51.1 0 0 220.70 157.11
  Q 223.79 158.03 227.30 157.44
  A 3.18 3.16 -43.0 0 1 228.57 157.48
  Q 234.73 158.94 241.33 158.23
  A 1.82 1.69 -9.2 0 0 242.94 156.16
  Q 242.72 155.18 243.17 153.99
  A 1.03 1.03 0.0 0 1 243.96 153.34
  Q 247.98 152.61 246.68 148.23
  A 1.10 1.09 86.4 0 1 247.90 146.84
  L 251.24 147.37
  A 1.85 1.84 61.8 0 1 251.83 147.55
  Q 254.99 149.03 254.29 152.62
  A 1.15 1.13 -61.2 0 0 254.57 153.61
  L 261.20 161.03
  A 0.78 0.78 0.0 0 1 260.71 162.32
  L 251.28 163.45
  A 1.18 1.17 -85.8 0 1 250.01 161.97
  Q 251.20 157.66 250.52 153.77
  A 0.77 0.77 0.0 0 0 249.00 153.74
  L 247.06 163.07
  A 0.52 0.50 -17.6 0 1 246.92 163.33
  L 242.41 168.42
  A 0.72 0.71 57.6 0 0 242.26 169.11
  Q 242.85 171.06 243.69 171.87
  Q 248.52 176.50 253.40 180.34
  A 0.27 0.27 0.0 0 0 253.81 180.01
  Q 252.65 177.68 252.52 174.21
  L 301.58 213.71
  L 299.36 214.83
  A 2.38 2.37 43.2 0 1 297.35 214.89
  Q 290.23 211.79 286.37 207.59
  A 2.93 2.91 76.8 0 0 285.01 206.74
  Q 281.98 205.84 278.37 201.44
  Q 274.43 196.63 268.34 196.63
  A 0.45 0.45 0.0 0 0 267.98 197.35
  L 272.39 203.08
  Q 268.77 203.23 265.65 201.78
  A 1.15 1.15 0.0 0 0 264.47 201.91
  Q 263.43 202.71 263.79 204.81
  A 0.13 0.13 0.0 0 1 263.63 204.96
  Q 263.46 204.92 263.46 204.77
  Q 263.32 202.49 263.41 202.20
  A 0.30 0.30 0.0 0 0 263.08 201.81
  L 262.02 201.98
  A 1.03 1.02 0.3 0 0 261.18 202.80
  C 260.68 205.34 259.95 208.17 258.91 210.51
  Q 258.14 212.25 257.82 213.96
  C 257.40 216.26 254.26 216.82 253.61 213.84
  Q 253.30 212.46 253.22 212.16
  A 0.91 0.90 -5.8 0 0 252.40 211.50
  Q 248.56 211.28 247.04 207.88
  A 1.37 1.33 3.4 0 0 246.47 207.26
  L 241.85 204.72
  A 0.97 0.92 82.2 0 1 241.54 204.47
  Q 240.05 202.66 237.79 202.08
  A 0.09 0.05 13.3 0 1 237.73 202.02
  Q 237.72 201.98 237.67 201.96
  A 0.05 0.04 60.1 0 1 237.68 201.87
  Q 239.44 202.38 240.16 202.80
  A 0.87 0.87 0.0 0 0 241.05 202.79
  Q 243.58 201.21 243.98 200.47
  Q 245.47 197.68 247.76 192.99
  Q 247.94 192.64 248.14 188.69
  A 0.82 0.81 -86.0 0 0 247.40 187.83
  Q 245.29 187.65 241.14 184.73
  A 2.41 2.39 -25.8 0 0 239.92 184.31
  Q 237.85 184.21 235.58 186.02
  A 0.97 0.97 0.0 0 1 234.02 185.40
  Q 233.74 183.40 235.28 180.98
  A 0.86 0.85 -56.0 0 0 235.06 179.82
  L 225.58 173.06
  A 0.83 0.83 0.0 0 0 224.32 173.46
  Q 223.52 175.70 223.91 177.69
  A 1.40 1.40 0.0 0 0 225.22 178.82
  L 227.18 178.91
  A 0.71 0.71 0.0 0 1 227.74 180.02
  Q 224.53 184.84 229.88 187.09
  L 228.23 187.19
  A 0.54 0.54 0.0 0 0 227.72 187.80
  L 227.89 189.01
  Q 224.23 185.77 220.02 183.21
  C 214.91 180.10 212.00 177.78 208.36 174.57
  A 0.96 0.96 0.0 0 1 208.83 172.91
  L 218.89 171.17
  A 0.75 0.74 -76.5 0 0 219.37 170.87
  L 220.90 168.73
  A 0.80 0.77 64.0 0 0 221.03 168.33
  L 221.21 164.40
  A 1.36 1.36 0.0 0 0 219.91 162.97
  L 214.03 162.70
  A 0.25 0.25 0.0 0 1 213.93 162.22
  L 214.65 161.88
  A 1.67 1.64 89.6 0 0 215.31 161.20
  Q 215.44 160.80 215.34 159.86
  A 1.32 1.29 64.8 0 1 215.71 158.79
  L 218.89 155.61
  A 0.88 0.88 0.0 0 0 218.15 154.12
  Q 209.29 155.38 199.27 152.98
  Q 196.64 152.35 194.54 150.61
  Q 190.15 146.98 190.11 146.95
  A 18.37 18.05 -17.5 0 0 186.20 144.96
  C 182.37 143.58 179.86 142.99 177.32 141.01
  Q 176.54 140.39 174.58 139.76
  Q 167.70 137.54 163.66 136.95
  C 157.46 136.04 152.13 134.09 145.63 132.57
  A 1.27 1.23 36.0 0 0 144.73 132.70
  L 141.99 134.28
  A 1.29 1.29 0.0 0 1 140.94 134.39
  Q 133.23 131.77 128.67 131.64
  A 1.93 1.85 58.1 0 1 127.85 131.43
  L 125.18 130.03
  A 0.99 0.92 -20.3 0 0 124.99 129.95
  L 119.50 128.48
  A 2.11 1.89 -16.6 0 1 118.80 128.15
  Q 115.57 125.82 114.25 125.52
  C 108.22 124.14 104.34 123.47 98.44 121.77
  C 94.41 120.61 90.07 120.06 85.27 120.53
  Q 80.50 121.00 75.47 118.93
  A 0.76 0.76 0.0 0 1 75.04 118.42
  Q 74.64 116.78 75.81 114.13
  Q 79.61 114.82 83.72 114.80
  C 85.73 114.79 87.05 113.68 88.79 113.74
  Q 92.36 113.85 96.71 115.92
  A 3.97 3.88 64.1 0 0 97.52 116.21
  C 102.96 117.61 107.95 118.97 113.07 118.85
  A 1.88 1.80 61.9 0 1 114.20 119.22
  C 117.05 121.40 118.75 124.33 123.25 124.70
  Q 129.41 125.22 130.99 125.57
  Q 136.66 126.80 137.27 126.68
  A 1.15 1.11 -31.5 0 1 138.20 126.89
  Q 138.99 127.50 141.00 128.35
  A 2.09 1.66 14.3 0 0 143.84 127.07
  Q 143.85 126.45 144.97 126.28
  A 1.35 1.27 50.0 0 1 145.64 126.36
  Q 153.37 129.29 155.77 129.49
  Q 159.78 129.83 164.38 131.32
  A 1.07 1.07 0.0 0 0 165.64 129.78
  L 165.36 129.25
  A 1.17 1.17 0.0 0 1 165.44 128.02
  L 167.85 124.64
  A 2.49 2.49 0.0 0 1 171.32 124.05
  L 173.23 125.41
  A 2.07 2.07 0.0 0 1 173.39 128.65
  Q 170.42 131.24 171.28 132.17
  A 0.67 0.60 -11.1 0 0 171.58 132.35
  Q 176.60 133.81 179.23 136.22
  A 2.61 2.60 68.9 0 0 180.76 136.90
  Q 181.60 136.98 184.72 137.61
  Q 185.87 137.85 186.14 137.01
  A 0.63 0.61 12.0 0 1 186.82 136.58
  Q 188.43 136.78 189.22 137.63
  Q 191.59 140.14 193.08 140.39
  C 199.08 141.38 204.96 143.54 210.88 144.95
  A 8.23 8.20 -39.0 0 0 213.01 145.17
  L 218.98 144.99
  Z
  M 171.3431 125.8204
  A 2.70 2.01 -48.1 0 0 168.0439 126.4877
  A 2.70 2.01 -48.1 0 0 167.7369 129.8396
  A 2.70 2.01 -48.1 0 0 171.0361 129.1723
  A 2.70 2.01 -48.1 0 0 171.3431 125.8204
  Z"
/>
<path fill="#ffffff" d="
  M 314.57 132.32
  A 0.97 0.97 0.0 0 1 313.09 132.90
  C 311.32 131.71 306.23 132.85 301.76 133.43
  A 1.11 1.11 0.0 0 1 300.71 131.68
  L 302.10 129.72
  A 1.36 1.34 59.9 0 0 302.34 128.78
  L 302.18 127.56
  A 1.87 1.83 51.6 0 1 302.26 126.80
  L 305.63 116.31
  A 1.73 1.72 4.7 0 1 307.01 115.15
  Q 312.85 114.31 316.52 114.02
  C 319.12 113.81 319.57 115.40 319.03 117.68
  Q 317.50 124.09 316.83 125.64
  Q 315.32 129.10 314.57 132.32
  Z
  M 308.5115 128.0100
  A 0.88 0.73 -89.9 0 0 307.7800 128.8887
  A 0.88 0.73 -89.9 0 0 308.5085 129.7700
  A 0.88 0.73 -89.9 0 0 309.2400 128.8913
  A 0.88 0.73 -89.9 0 0 308.5115 128.0100
  Z"
/>
<path fill="#bc9423" d="
  M 75.81 114.13
  Q 74.64 116.78 75.04 118.42
  A 0.76 0.76 0.0 0 0 75.47 118.93
  Q 80.50 121.00 85.27 120.53
  C 90.07 120.06 94.41 120.61 98.44 121.77
  C 104.34 123.47 108.22 124.14 114.25 125.52
  Q 115.57 125.82 118.80 128.15
  A 2.11 1.89 -16.6 0 0 119.50 128.48
  L 124.99 129.95
  A 0.99 0.92 -20.3 0 1 125.18 130.03
  L 127.85 131.43
  A 1.93 1.85 58.1 0 0 128.67 131.64
  Q 133.23 131.77 140.94 134.39
  A 1.29 1.29 0.0 0 0 141.99 134.28
  L 144.73 132.70
  A 1.27 1.23 36.0 0 1 145.63 132.57
  C 152.13 134.09 157.46 136.04 163.66 136.95
  Q 167.70 137.54 174.58 139.76
  Q 176.54 140.39 177.32 141.01
  C 179.86 142.99 182.37 143.58 186.20 144.96
  A 18.37 18.05 -17.5 0 1 190.11 146.95
  Q 190.15 146.98 194.54 150.61
  Q 196.64 152.35 199.27 152.98
  Q 209.29 155.38 218.15 154.12
  A 0.88 0.88 0.0 0 1 218.89 155.61
  L 215.71 158.79
  A 1.32 1.29 64.8 0 0 215.34 159.86
  Q 215.44 160.80 215.31 161.20
  A 1.67 1.64 89.6 0 1 214.65 161.88
  L 213.93 162.22
  A 0.25 0.25 0.0 0 0 214.03 162.70
  L 219.91 162.97
  A 1.36 1.36 0.0 0 1 221.21 164.40
  L 221.03 168.33
  A 0.80 0.77 64.0 0 1 220.90 168.73
  L 219.37 170.87
  A 0.75 0.74 -76.5 0 1 218.89 171.17
  L 208.83 172.91
  A 0.96 0.96 0.0 0 0 208.36 174.57
  C 212.00 177.78 214.91 180.10 220.02 183.21
  Q 224.23 185.77 227.89 189.01
  Q 228.12 191.34 230.16 192.64
  A 0.69 0.69 0.0 0 1 229.58 193.87
  L 221.06 191.13
  A 0.55 0.54 16.7 0 0 220.36 191.50
  Q 220.05 192.64 219.35 193.70
  L 215.60 192.58
  Q 215.62 192.04 215.74 191.61
  Q 215.86 191.15 216.21 190.79
  Q 217.22 189.76 217.59 188.98
  A 2.01 2.01 0.0 0 0 216.51 186.24
  L 214.19 185.32
  A 1.29 1.19 73.8 0 1 213.79 185.08
  Q 208.15 179.96 205.78 178.27
  Q 200.03 174.16 188.78 167.23
  Q 187.64 166.90 186.52 165.29
  L 187.34 159.20
  A 0.75 0.75 0.0 0 0 186.82 158.39
  L 178.73 155.78
  A 1.37 1.37 0.0 0 0 177.29 156.18
  L 175.86 157.79
  A 1.27 1.26 34.9 0 1 174.32 158.06
  Q 173.26 157.49 167.82 154.15
  C 163.96 151.78 158.17 151.15 153.99 150.57
  Q 150.54 150.10 145.74 148.46
  C 137.98 145.80 128.83 143.89 120.29 145.21
  A 3.62 3.58 -25.6 0 1 117.08 144.10
  C 112.94 139.61 104.85 138.08 99.54 136.89
  A 1.43 1.43 0.0 0 0 98.05 137.47
  Q 95.52 141.09 91.29 142.51
  A 0.94 0.92 53.7 0 1 90.47 142.38
  L 87.49 140.26
  A 0.68 0.68 0.0 0 1 87.24 139.49
  L 88.44 135.75
  A 1.27 1.26 -73.1 0 0 87.59 134.14
  C 83.56 132.97 78.75 131.29 75.73 132.91
  Q 73.97 133.86 73.40 134.15
  A 1.07 1.06 -40.8 0 1 72.29 134.07
  L 67.53 130.68
  A 1.50 1.45 -75.5 0 1 66.92 129.60
  C 66.55 124.70 66.48 119.74 70.66 117.05
  Q 72.87 115.63 75.81 114.13
  Z
  M 94.9032 138.5093
  A 2.41 2.03 -4.3 0 0 92.3478 136.6657
  A 2.41 2.03 -4.3 0 0 90.0968 138.8707
  A 2.41 2.03 -4.3 0 0 92.6522 140.7143
  A 2.41 2.03 -4.3 0 0 94.9032 138.5093
  Z
  M 214.80 161.49
  L 214.32 158.99
  A 0.55 0.55 0.0 0 0 213.67 158.56
  L 212.44 158.79
  A 15.24 1.82 -10.9 0 0 197.82 163.46
  A 15.24 1.82 -10.9 0 0 213.13 162.37
  L 214.36 162.13
  A 0.55 0.55 0.0 0 0 214.80 161.49
  Z"
/>
<path fill="#1b1807" d="
  M 260.12 117.10
  Q 262.30 117.59 262.52 118.21
  Q 261.88 121.17 259.04 122.01
  A 0.84 0.82 -39.0 0 1 258.41 121.95
  Q 257.52 121.48 258.14 120.48
  L 260.12 117.10
  Z"
/>
<path fill="#423613" d="
  M 266.18 130.29
  Q 264.17 128.55 263.90 126.81
  A 1.09 1.08 -78.9 0 0 263.40 126.06
  Q 261.48 124.86 258.65 125.04
  A 1.32 1.31 -0.9 0 0 257.41 126.32
  Q 257.39 126.96 256.78 127.98
  Q 257.23 123.84 253.23 123.85
  A 0.42 0.41 -85.4 0 1 252.82 123.36
  C 253.24 121.18 256.31 121.15 258.14 120.48
  Q 257.52 121.48 258.41 121.95
  A 0.84 0.82 -39.0 0 0 259.04 122.01
  Q 261.88 121.17 262.52 118.21
  Q 263.16 119.48 263.14 120.39
  A 1.49 1.48 65.5 0 0 265.76 121.38
  Q 266.88 120.03 266.01 117.93
  A 0.87 0.85 1.1 0 0 265.57 117.48
  L 265.21 117.33
  Q 265.61 117.36 265.98 117.53
  Q 266.43 117.73 266.53 118.08
  Q 267.06 119.83 266.79 121.25
  Q 266.73 121.57 264.60 125.88
  A 1.46 1.43 -39.9 0 0 264.50 126.89
  C 264.84 128.18 266.78 128.86 266.85 129.60
  Q 266.91 130.17 266.18 130.29
  Z"
/>
<path fill="#1b1807" d="
  M 334.53 133.41
  L 327.15 134.29
  A 0.87 0.87 0.0 0 1 326.22 133.16
  L 330.12 121.03
  A 0.87 0.87 0.0 0 1 330.84 120.43
  L 338.22 119.55
  A 0.87 0.87 0.0 0 1 339.15 120.68
  L 335.25 132.81
  A 0.87 0.87 0.0 0 1 334.53 133.41
  Z"
/>
<path fill="#97939b" d="
  M 44.19 126.57
  A 0.34 0.34 0.0 0 1 44.58 126.18
  Q 45.71 126.35 45.85 127.11
  A 1.07 1.06 53.0 0 1 45.76 127.76
  Q 44.40 130.55 41.58 132.82
  A 1.11 1.10 43.0 0 1 40.26 132.86
  L 35.71 129.61
  A 1.55 1.55 0.0 0 1 35.45 127.32
  L 39.38 122.91
  A 0.95 0.94 -45.2 0 1 40.80 122.90
  L 41.51 123.70
  A 0.79 0.79 0.0 0 1 41.16 124.98
  Q 39.80 125.40 38.01 127.18
  A 0.93 0.92 -31.1 0 0 37.77 128.12
  C 38.31 129.89 40.34 131.44 42.31 130.16
  Q 44.55 128.70 44.19 126.57
  Z"
/>
<path fill="#ffffff" d="
  M 294.43 124.33
  Q 298.82 125.34 297.26 130.25
  Q 296.19 133.62 294.05 138.11
  A 0.78 0.77 43.2 0 1 292.68 138.15
  Q 292.14 137.19 291.01 137.35
  Q 285.18 138.19 279.43 138.74
  A 0.94 0.94 0.0 0 1 278.45 137.51
  L 281.87 126.96
  Q 282.14 126.47 282.57 126.09
  A 1.53 1.48 19.4 0 1 283.40 125.71
  L 294.43 124.33
  Z"
/>
<path fill="#97939b" d="
  M 266.18 130.29
  Q 265.13 132.46 263.79 137.98
  Q 263.35 139.78 261.16 139.45
  A 0.49 0.42 -12.4 0 1 260.90 139.31
  L 258.87 137.04
  A 0.87 0.84 64.9 0 0 258.14 136.76
  L 254.26 137.23
  A 0.69 0.69 0.0 0 1 253.53 136.29
  L 256.78 127.98
  Q 257.39 126.96 257.41 126.32
  A 1.32 1.31 -0.9 0 1 258.65 125.04
  Q 261.48 124.86 263.40 126.06
  A 1.09 1.08 -78.9 0 1 263.90 126.81
  Q 264.17 128.55 266.18 130.29
  Z"
/>
<ellipse fill="#1b1807" cx="0.00" cy="0.00" transform="translate(169.54,127.83) rotate(-48.1)" rx="2.70" ry="2.01"/>
<ellipse fill="#a59074" cx="0.00" cy="0.00" transform="translate(308.51,128.89) rotate(-89.9)" rx="0.88" ry="0.73"/>
<path fill="#423613" d="
  M 376.52 155.58
  Q 375.20 153.86 373.67 152.53
  A 5.99 5.80 -89.1 0 1 372.79 151.59
  Q 368.24 145.56 362.31 139.43
  Q 361.04 138.11 359.69 135.37
  A 1.47 1.43 0.4 0 0 359.01 134.70
  Q 357.38 133.94 354.99 134.28
  L 365.43 133.30
  A 1.91 1.90 -56.6 0 0 365.86 133.21
  Q 370.87 131.61 376.76 131.64
  A 2.37 2.37 0.0 0 1 379.07 133.54
  C 379.41 135.19 379.30 136.42 380.05 138.01
  C 381.72 141.61 379.49 144.31 378.73 147.64
  Q 377.81 151.63 376.52 155.58
  Z"
/>
<path fill="#bc9423" d="
  M 57.86 138.33
  Q 58.38 136.09 61.00 134.46
  C 63.13 133.14 66.58 135.68 68.04 137.17
  A 1.05 1.04 45.2 0 1 68.04 138.64
  L 63.80 142.88
  A 0.98 0.95 -52.8 0 1 62.65 143.05
  Q 60.12 141.65 58.16 139.48
  A 1.29 1.28 30.7 0 1 57.86 138.33
  Z
  M 65.9119 137.7533
  A 2.89 2.58 -4.3 0 0 62.8366 135.3973
  A 2.89 2.58 -4.3 0 0 60.1481 138.1867
  A 2.89 2.58 -4.3 0 0 63.2234 140.5427
  A 2.89 2.58 -4.3 0 0 65.9119 137.7533
  Z"
/>
<path fill="#1b1807" d="
  M 354.99 134.28
  Q 357.38 133.94 359.01 134.70
  A 1.47 1.43 0.4 0 1 359.69 135.37
  Q 361.04 138.11 362.31 139.43
  Q 368.24 145.56 372.79 151.59
  A 5.99 5.80 -89.1 0 0 373.67 152.53
  Q 375.20 153.86 376.52 155.58
  L 374.04 169.65
  A 1.76 1.74 -10.3 0 1 373.19 170.86
  L 369.72 172.86
  A 0.82 0.79 89.1 0 0 369.40 173.20
  Q 368.08 175.81 367.43 179.34
  A 5.14 4.71 -31.2 0 1 367.15 180.30
  L 361.71 193.90
  Q 357.56 198.99 357.53 207.67
  L 355.81 209.72
  A 0.79 0.79 0.0 0 1 354.99 209.97
  Q 353.94 209.66 353.31 208.90
  Q 354.18 205.64 355.18 202.41
  Q 356.13 199.34 357.65 196.17
  Q 362.42 186.19 363.39 182.02
  Q 364.38 177.81 366.04 175.65
  A 1.22 1.20 69.3 0 0 366.29 175.08
  L 366.44 174.10
  A 0.61 0.61 0.0 0 1 366.73 173.66
  L 369.00 172.35
  A 0.76 0.74 61.0 0 0 369.28 171.34
  Q 368.25 169.48 365.74 168.93
  A 1.96 1.91 43.1 0 0 364.83 168.95
  C 361.81 169.81 359.18 168.94 356.15 170.17
  Q 350.98 169.98 345.69 169.45
  Q 343.33 169.22 342.71 168.16
  C 340.69 164.73 345.09 161.38 342.62 157.89
  A 0.67 0.64 -1.5 0 0 342.42 157.71
  L 339.35 156.10
  A 1.02 1.00 -84.7 0 1 338.84 155.47
  Q 338.22 153.29 336.29 153.62
  Q 335.54 153.74 332.33 155.39
  A 2.23 2.12 27.0 0 1 331.49 155.64
  Q 330.19 155.78 329.22 155.70
  A 1.59 1.59 0.0 0 1 327.75 154.15
  Q 327.74 153.47 327.44 152.78
  Q 327.19 152.20 326.33 152.04
  Q 324.76 151.75 323.64 150.01
  A 0.48 0.48 0.0 0 1 324.04 149.26
  L 333.72 149.14
  Q 335.54 149.46 336.38 147.80
  Q 338.84 142.90 339.18 136.65
  Q 338.10 135.89 336.89 135.83
  A 0.18 0.11 31.3 0 1 336.75 135.56
  Q 336.88 135.56 337.10 135.61
  Q 337.32 135.67 337.46 135.64
  Q 340.27 134.91 343.79 135.11
  Q 343.83 135.11 343.88 135.11
  L 354.99 134.28
  Z
  M 338.43 145.74
  Q 335.05 151.66 342.11 155.42
  A 2.26 2.19 60.0 0 0 343.02 155.68
  Q 346.71 155.89 350.07 152.31
  Q 354.50 147.31 355.91 140.36
  A 0.61 0.60 75.9 0 1 356.12 140.00
  L 357.98 138.34
  A 1.30 1.30 0.0 0 0 357.03 136.07
  Q 354.98 136.21 352.22 137.48
  A 1.49 1.45 33.6 0 1 351.59 137.60
  L 340.98 137.30
  A 0.84 0.84 0.0 0 0 340.12 138.18
  Q 340.30 142.28 338.43 145.74
  Z
  M 356.54 149.48
  Q 355.77 148.62 355.48 148.56
  A 1.57 1.57 0.0 0 0 354.22 151.36
  Q 354.97 151.93 356.41 151.27
  Q 360.81 151.74 366.25 149.26
  A 0.60 0.60 0.0 0 0 366.27 148.18
  L 365.92 148.01
  A 2.83 2.81 -38.0 0 0 364.08 147.79
  L 356.54 149.48
  Z
  M 355.88 157.53
  Q 358.05 157.97 358.34 154.77
  A 1.63 1.25 -85.2 0 0 357.22 153.03
  C 353.26 152.74 350.96 158.51 350.20 161.65
  A 1.23 1.13 69.2 0 1 350.08 161.95
  Q 349.13 163.72 347.56 163.02
  A 0.54 0.54 0.0 0 0 346.85 163.73
  Q 347.73 165.71 349.27 167.05
  A 2.18 2.16 73.0 0 0 350.11 167.50
  Q 354.80 168.76 358.41 165.68
  C 359.98 164.34 364.04 160.80 362.56 158.42
  A 1.29 1.26 33.1 0 0 360.20 158.89
  Q 359.97 160.72 358.07 161.85
  A 0.87 0.87 0.0 0 1 357.10 161.80
  Q 355.28 160.44 355.31 157.99
  A 0.48 0.48 0.0 0 1 355.88 157.53
  Z"
/>
<ellipse fill="#1b1807" cx="0.00" cy="0.00" transform="translate(63.03,137.97) rotate(-4.3)" rx="2.89" ry="2.58"/>
<path fill="#97939b" d="
  M 350.07 152.31
  Q 349.86 145.89 338.43 145.74
  Q 340.30 142.28 340.12 138.18
  A 0.84 0.84 0.0 0 1 340.98 137.30
  L 351.59 137.60
  A 1.49 1.45 33.6 0 0 352.22 137.48
  Q 354.98 136.21 357.03 136.07
  A 1.30 1.30 0.0 0 1 357.98 138.34
  L 356.12 140.00
  A 0.61 0.60 75.9 0 0 355.91 140.36
  Q 354.50 147.31 350.07 152.31
  Z"
/>
<ellipse fill="#1b1807" cx="0.00" cy="0.00" transform="translate(92.50,138.69) rotate(-4.3)" rx="2.41" ry="2.03"/>
<path fill="#97939b" d="
  M 339.18 136.65
  Q 338.84 142.90 336.38 147.80
  Q 335.54 149.46 333.72 149.14
  Q 331.07 148.21 328.45 149.07
  A 1.24 1.16 34.4 0 1 327.99 149.14
  L 322.65 149.05
  A 1.21 1.21 0.0 0 1 321.51 147.46
  L 324.17 139.20
  A 1.18 1.16 -84.4 0 1 325.14 138.39
  L 339.18 136.65
  Z"
/>
<path fill="#423613" d="
  M 402.45 185.90
  Q 400.09 182.62 396.67 180.72
  A 1.83 1.82 -69.6 0 1 395.78 178.76
  L 398.78 164.31
  A 1.89 1.89 0.0 0 0 396.69 162.05
  L 394.81 162.29
  A 3.01 2.99 2.1 0 0 392.24 164.66
  L 389.05 179.97
  A 1.95 1.95 0.0 0 1 387.05 181.52
  L 376.74 181.05
  A 1.82 1.81 -63.6 0 0 375.50 181.47
  L 371.05 185.20
  Q 370.74 177.08 375.20 170.45
  Q 376.02 169.22 377.30 164.16
  A 1.86 1.84 -14.0 0 1 377.85 163.26
  C 381.34 160.19 385.17 160.23 389.62 161.91
  Q 392.07 162.83 393.72 160.04
  A 1.17 1.15 -39.2 0 0 393.82 159.10
  Q 393.31 157.52 393.95 154.35
  Q 395.26 147.83 397.76 142.52
  Q 398.39 141.19 397.14 138.86
  A 0.15 0.14 65.1 0 1 397.21 138.66
  A 0.21 0.19 -25.3 0 1 397.43 138.73
  L 403.62 146.39
  A 0.16 0.15 -15.1 0 1 403.47 146.64
  Q 402.08 146.40 401.86 148.04
  Q 401.47 150.88 399.92 158.26
  C 399.35 160.95 400.50 161.54 402.74 162.70
  A 1.20 1.09 1.6 0 1 403.20 163.14
  L 405.46 167.05
  A 5.41 5.40 -53.3 0 1 406.03 171.00
  L 402.45 185.90
  Z"
/>
<path fill="#ffffff" d="
  M 350.07 152.31
  Q 346.71 155.89 343.02 155.68
  A 2.26 2.19 60.0 0 1 342.11 155.42
  Q 335.05 151.66 338.43 145.74
  Q 349.86 145.89 350.07 152.31
  Z"
/>
<path fill="#1b1807" d="
  M 312.77 161.85
  Q 311.76 159.02 307.87 157.67
  Q 302.85 156.88 306.77 151.38
  A 1.11 1.07 -80.6 0 1 307.28 151.00
  L 311.10 149.71
  A 0.42 0.41 82.0 0 0 311.38 149.33
  Q 311.41 148.27 310.82 147.57
  A 0.36 0.36 0.0 0 1 311.17 146.99
  Q 313.50 147.56 313.94 147.87
  A 1.52 1.49 62.8 0 0 314.78 148.15
  Q 316.28 148.18 316.97 147.93
  A 0.75 0.74 -16.4 0 1 317.95 148.46
  C 318.98 152.73 316.68 156.99 314.49 162.01
  Q 314.19 162.71 313.68 162.55
  Q 313.26 162.42 312.77 161.85
  Z"
/>
<path fill="#bc9423" d="
  M 17.27 152.21
  Q 15.71 154.62 13.48 156.38
  A 0.96 0.94 43.6 0 1 12.33 156.39
  L 7.56 152.94
  A 1.03 1.02 -54.4 0 1 7.33 151.52
  C 8.51 149.84 11.46 146.84 13.73 147.79
  Q 16.53 148.96 17.38 151.05
  A 1.27 1.26 -39.8 0 1 17.27 152.21
  Z
  M 9.4418 151.3932
  A 3.24 2.73 -175.1 0 0 12.4368 154.3900
  A 3.24 2.73 -175.1 0 0 15.8982 151.9468
  A 3.24 2.73 -175.1 0 0 12.9032 148.9500
  A 3.24 2.73 -175.1 0 0 9.4418 151.3932
  Z"
/>
<path fill="#bc9423" d="
  M 80.6668 156.1738
  A 1.86 1.86 0.0 0 1 78.0410 156.3298
  L 75.5882 154.1521
  A 1.86 1.86 0.0 0 1 75.4322 151.5263
  L 78.4332 148.1462
  A 1.86 1.86 0.0 0 1 81.0590 147.9902
  L 83.5118 150.1679
  A 1.86 1.86 0.0 0 1 83.6678 152.7937
  L 80.6668 156.1738
  Z
  M 81.1434 149.7068
  A 2.84 2.28 -57.8 0 0 77.7007 150.8950
  A 2.84 2.28 -57.8 0 0 78.1166 154.5132
  A 2.84 2.28 -57.8 0 0 81.5593 153.3250
  A 2.84 2.28 -57.8 0 0 81.1434 149.7068
  Z"
/>
<path fill="#bc9423" d="
  M 356.41 151.27
  L 356.96 150.36
  A 0.48 0.46 46.0 0 0 356.96 149.87
  Q 356.82 149.62 356.54 149.48
  L 364.08 147.79
  A 2.83 2.81 -38.0 0 1 365.92 148.01
  L 366.27 148.18
  A 0.60 0.60 0.0 0 1 366.25 149.26
  Q 360.81 151.74 356.41 151.27
  Z"
/>
<path fill="#97939b" d="
  M 356.54 149.48
  Q 356.82 149.62 356.96 149.87
  A 0.48 0.46 46.0 0 1 356.96 150.36
  L 356.41 151.27
  Q 354.97 151.93 354.22 151.36
  A 1.57 1.57 0.0 0 1 355.48 148.56
  Q 355.77 148.62 356.54 149.48
  Z"
/>
<ellipse fill="#1b1807" cx="0.00" cy="0.00" transform="translate(12.67,151.67) rotate(-175.1)" rx="3.24" ry="2.73"/>
<ellipse fill="#1b1807" cx="0.00" cy="0.00" transform="translate(79.63,152.11) rotate(-57.8)" rx="2.84" ry="2.28"/>
<path fill="#97939b" d="
  M 355.31 157.99
  Q 355.28 160.44 357.10 161.80
  A 0.87 0.87 0.0 0 0 358.07 161.85
  Q 359.97 160.72 360.20 158.89
  A 1.29 1.26 33.1 0 1 362.56 158.42
  C 364.04 160.80 359.98 164.34 358.41 165.68
  Q 354.80 168.76 350.11 167.50
  A 2.18 2.16 73.0 0 1 349.27 167.05
  Q 347.73 165.71 346.85 163.73
  A 0.54 0.54 0.0 0 1 347.56 163.02
  Q 349.13 163.72 350.08 161.95
  A 1.23 1.13 69.2 0 0 350.20 161.65
  C 350.96 158.51 353.26 152.74 357.22 153.03
  A 1.63 1.25 -85.2 0 1 358.34 154.77
  Q 358.05 157.97 355.88 157.53
  A 0.48 0.48 0.0 0 0 355.31 157.99
  Z"
/>
<path fill="#423613" d="
  M 307.87 157.67
  Q 311.76 159.02 312.77 161.85
  Q 313.83 168.25 309.56 172.30
  L 303.15 170.59
  Q 303.49 166.44 303.50 162.58
  Q 303.50 160.68 304.33 158.97
  A 1.63 1.61 88.3 0 1 304.99 158.26
  Q 306.39 157.49 307.87 157.67
  Z"
/>
<path fill="#1b1807" d="
  M 214.80 161.49
  A 0.55 0.55 0.0 0 1 214.36 162.13
  L 213.13 162.37
  A 15.24 1.82 -10.9 0 1 197.82 163.46
  A 15.24 1.82 -10.9 0 1 212.44 158.79
  L 213.67 158.56
  A 0.55 0.55 0.0 0 1 214.32 158.99
  L 214.80 161.49
  Z"
/>
<path fill="#1b1807" d="
  M 402.45 185.90
  L 401.23 194.75
  A 1.83 1.80 -20.5 0 1 400.80 195.67
  Q 399.35 197.31 398.82 199.47
  A 1.17 1.17 0.0 0 1 396.91 200.07
  L 395.91 199.17
  A 0.73 0.73 0.0 0 0 394.95 199.17
  L 391.46 202.24
  Q 393.59 195.89 388.55 193.87
  A 1.32 1.32 0.0 0 0 386.77 194.80
  L 385.32 201.10
  Q 384.57 200.71 383.88 199.84
  A 1.27 1.26 68.2 0 0 382.80 199.37
  Q 380.38 199.53 377.96 199.49
  C 374.01 199.41 371.57 197.61 368.07 201.24
  L 367.38 201.52
  A 0.75 0.75 0.0 0 1 366.37 200.62
  L 368.06 194.73
  L 371.05 185.20
  L 375.50 181.47
  A 1.82 1.81 -63.6 0 1 376.74 181.05
  L 387.05 181.52
  A 1.95 1.95 0.0 0 0 389.05 179.97
  L 392.24 164.66
  A 3.01 2.99 2.1 0 1 394.81 162.29
  L 396.69 162.05
  A 1.89 1.89 0.0 0 1 398.78 164.31
  L 395.78 178.76
  A 1.83 1.82 -69.6 0 0 396.67 180.72
  Q 400.09 182.62 402.45 185.90
  Z"
/>
<path fill="#1b1807" d="
  M 215.60 192.58
  L 212.61 187.39
  A 2.89 2.88 -81.8 0 0 212.29 186.96
  L 206.58 180.84
  A 4.79 4.57 85.0 0 0 205.76 180.12
  Q 198.57 175.06 193.27 171.71
  Q 190.62 170.04 188.78 167.23
  Q 200.03 174.16 205.78 178.27
  Q 208.15 179.96 213.79 185.08
  A 1.29 1.19 73.8 0 0 214.19 185.32
  L 216.51 186.24
  A 2.01 2.01 0.0 0 1 217.59 188.98
  Q 217.22 189.76 216.21 190.79
  Q 215.86 191.15 215.74 191.61
  Q 215.62 192.04 215.60 192.58
  Z"
/>
<path fill="#a59074" d="
  M 305.63 194.86
  Q 307.72 197.66 309.09 198.43
  C 311.75 199.92 314.21 202.55 315.86 203.88
  Q 319.69 206.98 323.75 210.22
  L 325.46 212.36
  A 1.91 1.91 0.0 0 1 325.42 214.79
  C 321.79 219.07 317.78 220.97 312.86 222.94
  A 5.61 5.61 0.0 0 0 309.64 226.31
  L 307.75 231.75
  L 310.22 222.27
  A 1.87 1.86 27.1 0 0 309.60 220.36
  L 301.58 213.71
  L 252.52 174.21
  Q 251.74 170.89 257.02 168.25
  A 0.32 0.32 0.0 0 1 257.46 168.65
  Q 256.39 171.54 258.21 171.76
  A 1.05 1.02 -45.9 0 0 258.53 171.75
  L 264.95 170.36
  A 1.24 1.21 55.2 0 1 265.92 170.55
  C 270.45 173.61 275.18 178.07 279.54 182.49
  A 1.41 1.40 -17.7 0 0 280.34 182.90
  Q 280.71 182.95 280.94 182.87
  A 1.40 1.29 -24.9 0 0 281.75 180.89
  Q 279.49 177.42 278.34 173.32
  A 0.82 0.82 0.0 0 0 277.92 172.79
  Q 277.02 172.29 277.49 171.95
  A 0.44 0.43 47.9 0 1 278.03 171.98
  L 288.60 181.38
  A 0.82 0.69 71.9 0 0 288.84 181.53
  Q 291.98 182.85 291.83 183.60
  Q 298.64 189.77 305.63 194.86
  Z"
/>
<path fill="#0f2631" d="
  M 353.31 208.90
  Q 351.01 208.00 348.84 207.99
  A 2.43 2.39 25.5 0 0 347.30 208.52
  Q 344.60 210.67 343.48 212.80
  Q 340.94 217.67 338.72 220.78
  A 0.99 0.99 0.0 0 1 337.15 220.84
  Q 335.72 219.11 335.62 216.88
  Q 335.47 213.64 334.74 203.30
  A 1.68 1.67 7.0 0 0 333.59 201.83
  L 325.80 199.33
  A 0.67 0.67 0.0 0 0 325.29 199.36
  L 320.98 201.31
  A 2.16 2.16 0.0 0 0 320.27 204.72
  Q 322.52 207.21 323.75 210.22
  Q 319.69 206.98 315.86 203.88
  C 314.21 202.55 311.75 199.92 309.09 198.43
  Q 307.72 197.66 305.63 194.86
  Q 308.10 194.07 310.64 195.64
  A 1.35 1.35 0.0 0 1 311.23 196.46
  Q 311.58 197.97 312.84 198.80
  A 0.83 0.83 0.0 0 0 314.12 198.26
  Q 314.32 197.18 314.40 195.52
  A 0.89 0.85 -58.3 0 1 316.03 195.09
  Q 316.17 195.37 316.42 195.57
  A 0.69 0.69 0.0 0 0 317.21 195.64
  L 323.35 192.09
  A 1.01 1.01 0.0 0 1 324.80 192.62
  Q 325.25 193.85 325.37 194.11
  A 2.22 2.13 -26.4 0 0 328.42 195.07
  Q 330.13 194.14 331.07 195.37
  C 332.91 197.77 335.66 199.01 338.70 199.44
  A 1.12 1.12 0.0 0 0 339.98 198.39
  L 340.07 196.55
  A 2.39 2.38 76.5 0 1 341.26 194.59
  L 346.40 191.62
  A 2.44 2.44 0.0 0 0 347.51 190.25
  L 350.83 179.93
  A 0.58 0.58 0.0 0 1 351.96 180.08
  Q 352.00 181.25 351.82 182.52
  Q 351.18 187.08 348.29 196.05
  A 0.67 0.66 -79.9 0 0 348.89 196.92
  Q 349.91 196.97 351.61 196.25
  A 1.58 1.40 31.4 0 1 352.23 196.14
  L 354.98 196.27
  A 0.76 0.75 -85.0 0 0 355.76 195.61
  L 357.14 185.61
  Q 357.14 185.56 357.14 185.51
  L 357.80 171.28
  A 1.31 1.30 -74.1 0 0 357.15 170.10
  Q 356.97 170.00 356.15 170.17
  C 359.18 168.94 361.81 169.81 364.83 168.95
  A 1.96 1.91 43.1 0 1 365.74 168.93
  Q 368.25 169.48 369.28 171.34
  A 0.76 0.74 61.0 0 1 369.00 172.35
  L 366.73 173.66
  A 0.61 0.61 0.0 0 0 366.44 174.10
  L 366.29 175.08
  A 1.22 1.20 69.3 0 1 366.04 175.65
  Q 364.38 177.81 363.39 182.02
  Q 362.42 186.19 357.65 196.17
  Q 356.13 199.34 355.18 202.41
  Q 354.18 205.64 353.31 208.90
  Z"
/>
<path fill="#1b1807" d="
  M 303.15 170.59
  L 309.56 172.30
  L 313.53 173.93
  A 1.87 1.86 79.7 0 1 314.22 174.41
  Q 315.32 175.62 315.54 177.43
  A 2.29 2.07 -5.1 0 1 313.37 179.77
  C 309.98 179.97 310.79 182.41 309.11 183.47
  C 305.82 185.55 302.15 182.39 298.99 182.36
  A 1.65 1.64 6.2 0 1 297.39 180.38
  L 298.02 177.37
  A 1.09 1.06 30.3 0 0 297.76 176.43
  L 296.01 174.46
  A 1.43 1.42 -50.2 0 1 295.86 172.76
  Q 298.11 169.11 303.15 170.59
  Z"
/>
<path fill="#bc9423" d="
  M 272.39 203.08
  Q 281.32 207.85 288.15 215.13
  Q 278.54 216.90 269.84 215.54
  Q 268.28 215.30 267.19 215.62
  C 265.18 216.22 263.70 214.64 262.03 215.63
  C 260.56 216.50 258.83 215.62 256.94 216.57
  C 253.27 218.42 250.61 216.51 248.01 213.60
  Q 245.87 211.21 243.04 208.22
  A 9.18 9.16 -9.3 0 0 240.15 206.15
  Q 237.50 204.96 232.55 203.22
  Q 230.73 202.59 224.57 199.06
  Q 225.30 197.52 227.99 198.30
  Q 231.73 199.40 233.91 200.20
  A 2.49 2.48 -66.5 0 0 236.98 198.99
  C 238.75 195.50 240.86 192.44 239.13 189.45
  A 1.37 1.36 80.6 0 0 238.21 188.79
  L 229.88 187.09
  Q 224.53 184.84 227.74 180.02
  A 0.71 0.71 0.0 0 0 227.18 178.91
  L 225.22 178.82
  A 1.40 1.40 0.0 0 1 223.91 177.69
  Q 223.52 175.70 224.32 173.46
  A 0.83 0.83 0.0 0 1 225.58 173.06
  L 235.06 179.82
  A 0.86 0.85 -56.0 0 1 235.28 180.98
  Q 233.74 183.40 234.02 185.40
  A 0.97 0.97 0.0 0 0 235.58 186.02
  Q 237.85 184.21 239.92 184.31
  A 2.41 2.39 -25.8 0 1 241.14 184.73
  Q 245.29 187.65 247.40 187.83
  A 0.82 0.81 -86.0 0 1 248.14 188.69
  Q 247.94 192.64 247.76 192.99
  Q 245.47 197.68 243.98 200.47
  Q 243.58 201.21 241.05 202.79
  A 0.87 0.87 0.0 0 1 240.16 202.80
  Q 239.44 202.38 237.68 201.87
  A 0.05 0.04 60.1 0 0 237.67 201.96
  Q 237.72 201.98 237.73 202.02
  A 0.09 0.05 13.3 0 0 237.79 202.08
  Q 240.05 202.66 241.54 204.47
  A 0.97 0.92 82.2 0 0 241.85 204.72
  L 246.47 207.26
  A 1.37 1.33 3.4 0 1 247.04 207.88
  Q 248.56 211.28 252.40 211.50
  A 0.91 0.90 -5.8 0 1 253.22 212.16
  Q 253.30 212.46 253.61 213.84
  C 254.26 216.82 257.40 216.26 257.82 213.96
  Q 258.14 212.25 258.91 210.51
  C 259.95 208.17 260.68 205.34 261.18 202.80
  A 1.03 1.02 0.3 0 1 262.02 201.98
  L 263.08 201.81
  A 0.30 0.30 0.0 0 1 263.41 202.20
  Q 263.32 202.49 263.46 204.77
  Q 263.46 204.92 263.63 204.96
  A 0.13 0.13 0.0 0 0 263.79 204.81
  Q 263.43 202.71 264.47 201.91
  A 1.15 1.15 0.0 0 1 265.65 201.78
  Q 268.77 203.23 272.39 203.08
  Z"
/>
<path fill="#1b1807" d="
  M 508.58 181.55
  L 509.52 181.84
  L 506.13 183.47
  A 6.16 6.05 -78.0 0 0 504.65 184.45
  L 502.08 186.71
  Q 501.38 183.73 502.41 181.37
  A 0.69 0.68 14.8 0 1 503.12 180.96
  L 508.58 181.55
  Z"
/>
<path fill="#0f2631" d="
  M 69.14 182.60
  Q 71.66 183.49 74.12 185.95
  A 0.64 0.63 -43.5 0 1 74.09 186.87
  L 70.36 190.21
  A 2.31 2.30 37.8 0 1 67.77 190.53
  L 64.49 188.81
  A 1.52 1.51 38.0 0 1 64.18 186.34
  L 68.15 182.79
  A 0.99 0.97 33.4 0 1 69.14 182.60
  Z
  M 66.19 187.37
  Q 66.65 189.36 68.88 188.60
  Q 71.71 187.63 71.37 186.17
  Q 71.03 184.71 68.06 185.09
  Q 65.73 185.38 66.19 187.37
  Z"
/>
<path fill="#1b1807" d="
  M 71.37 186.17
  Q 71.71 187.63 68.88 188.60
  Q 66.65 189.36 66.19 187.37
  Q 65.73 185.38 68.06 185.09
  Q 71.03 184.71 71.37 186.17
  Z"
/>
<path fill="#1b1807" d="
  M 229.88 187.09
  L 238.21 188.79
  A 1.37 1.36 80.6 0 1 239.13 189.45
  C 240.86 192.44 238.75 195.50 236.98 198.99
  A 2.49 2.48 -66.5 0 1 233.91 200.20
  Q 231.73 199.40 227.99 198.30
  Q 225.30 197.52 224.57 199.06
  L 219.35 193.70
  Q 220.05 192.64 220.36 191.50
  A 0.55 0.54 16.7 0 1 221.06 191.13
  L 229.58 193.87
  A 0.69 0.69 0.0 0 0 230.16 192.64
  Q 228.12 191.34 227.89 189.01
  L 227.72 187.80
  A 0.54 0.54 0.0 0 1 228.23 187.19
  L 229.88 187.09
  Z"
/>
<path fill="#0f2631" d="
  M 361.71 193.90
  Q 363.69 195.22 368.06 194.73
  L 366.37 200.62
  A 0.75 0.75 0.0 0 0 367.38 201.52
  L 368.07 201.24
  Q 368.08 202.66 369.31 203.12
  Q 364.66 202.23 366.97 208.82
  A 1.78 1.68 11.3 0 0 367.53 209.61
  C 370.93 212.35 374.24 211.82 378.32 211.14
  A 0.81 0.81 0.0 0 1 378.84 212.65
  Q 375.94 214.21 371.87 214.81
  L 362.31 205.08
  A 0.95 0.94 -54.6 0 0 360.78 205.34
  Q 359.94 207.09 357.53 207.67
  Q 357.56 198.99 361.71 193.90
  Z"
/>
<path fill="#ffffff" d="
  M 391.46 202.24
  Q 391.11 204.46 387.75 203.98
  Q 384.75 203.55 385.32 201.10
  L 386.77 194.80
  A 1.32 1.32 0.0 0 1 388.55 193.87
  Q 393.59 195.89 391.46 202.24
  Z"
/>
<path fill="#1b1807" d="
  M 301.58 213.71
  L 309.60 220.36
  A 1.87 1.86 27.1 0 1 310.22 222.27
  L 307.75 231.75
  Q 306.26 238.32 303.11 243.88
  L 300.26 242.38
  A 6.39 6.20 -26.0 0 0 298.19 241.70
  L 294.30 241.14
  Q 295.14 234.25 297.12 226.73
  C 297.60 224.93 298.36 223.52 298.97 221.88
  A 2.93 2.91 -62.9 0 0 297.87 218.44
  Q 293.44 215.44 288.15 215.13
  Q 281.32 207.85 272.39 203.08
  L 267.98 197.35
  A 0.45 0.45 0.0 0 1 268.34 196.63
  Q 274.43 196.63 278.37 201.44
  Q 281.98 205.84 285.01 206.74
  A 2.93 2.91 76.8 0 1 286.37 207.59
  Q 290.23 211.79 297.35 214.89
  A 2.38 2.37 43.2 0 0 299.36 214.83
  L 301.58 213.71
  Z"
/>
<path fill="#1b1807" d="
  M 381.95 206.67
  Q 381.25 207.72 381.07 208.90
  A 1.53 1.53 0.0 0 0 381.73 210.39
  Q 383.12 211.32 384.19 213.21
  A 1.59 1.59 0.0 0 1 384.14 214.88
  L 381.43 219.05
  Q 376.39 217.93 371.87 214.81
  Q 375.94 214.21 378.84 212.65
  A 0.81 0.81 0.0 0 0 378.32 211.14
  C 374.24 211.82 370.93 212.35 367.53 209.61
  A 1.78 1.68 11.3 0 1 366.97 208.82
  Q 364.66 202.23 369.31 203.12
  L 383.14 202.96
  A 0.40 0.39 4.2 0 1 383.54 203.42
  Q 383.27 205.11 381.95 206.67
  Z"
/>
<path fill="#1b1807" d="
  M 470.07 211.33
  Q 470.83 213.66 471.94 215.06
  A 1.55 1.37 81.1 0 0 472.41 215.45
  Q 474.65 216.66 473.99 219.55
  Q 473.41 219.89 473.17 219.91
  A 1.73 1.55 78.7 0 0 471.86 222.12
  Q 472.50 224.23 473.41 225.83
  A 1.72 1.65 34.4 0 1 473.61 226.80
  L 472.75 236.35
  A 0.89 0.89 0.0 0 1 472.19 237.10
  L 470.78 237.65
  Q 467.41 238.73 465.33 241.04
  L 463.71 241.83
  A 0.42 0.42 0.0 0 1 463.14 241.31
  Q 463.75 239.68 463.86 237.50
  Q 464.04 234.11 464.40 228.09
  A 6.31 6.30 68.1 0 1 466.04 224.23
  Q 468.15 221.92 469.19 219.04
  A 1.23 1.23 0.0 0 0 467.62 217.47
  Q 467.10 217.66 466.51 217.64
  A 1.21 1.19 68.9 0 1 465.65 217.25
  Q 461.61 212.89 456.58 210.36
  A 1.15 1.13 4.2 0 1 456.01 209.71
  Q 455.67 208.77 454.71 207.87
  A 1.07 1.06 56.3 0 1 455.06 206.10
  L 455.22 206.04
  A 2.86 2.85 -33.6 0 1 458.17 206.63
  Q 459.43 207.83 460.60 208.47
  C 463.00 209.77 464.68 211.65 466.35 213.17
  Q 467.79 214.48 469.21 213.88
  A 0.97 0.96 82.9 0 0 469.79 213.13
  L 470.07 211.33
  Z"
/>
<path fill="#97939b" d="
  M 390.64 209.47
  A 0.41 0.41 0.0 0 1 390.20 209.85
  L 389.83 209.82
  A 1.50 1.48 4.4 0 1 388.45 208.23
  L 388.47 207.93
  A 1.50 1.48 4.4 0 1 390.08 206.57
  L 390.45 206.60
  A 0.41 0.41 0.0 0 1 390.83 207.04
  L 390.64 209.47
  Z"
/>
<path fill="#97939b" d="
  M 389.52 212.79
  C 387.28 215.90 385.99 218.47 381.43 219.05
  L 384.14 214.88
  A 1.59 1.59 0.0 0 0 384.19 213.21
  Q 383.12 211.32 381.73 210.39
  A 1.53 1.53 0.0 0 1 381.07 208.90
  Q 381.25 207.72 381.95 206.67
  Q 386.28 208.33 385.71 212.30
  A 0.49 0.49 0.0 0 0 386.21 212.86
  L 389.52 212.79
  Z"
/>
<path fill="#bc9423" d="
  M 473.99 219.55
  L 473.98 234.19
  A 2.03 1.86 -42.5 0 1 473.95 234.53
  L 472.30 242.47
  Q 472.27 240.60 472.23 238.76
  Q 472.20 237.55 470.78 237.65
  L 472.19 237.10
  A 0.89 0.89 0.0 0 0 472.75 236.35
  L 473.61 226.80
  A 1.72 1.65 34.4 0 0 473.41 225.83
  Q 472.50 224.23 471.86 222.12
  A 1.73 1.55 78.7 0 1 473.17 219.91
  Q 473.41 219.89 473.99 219.55
  Z"
/>
<path fill="#1b1807" d="
  M 464.40 224.07
  L 464.30 222.44
  Q 465.00 222.93 464.40 224.07
  Z"
/>
<path fill="#ffffff" d="
  M 470.78 237.65
  Q 472.20 237.55 472.23 238.76
  Q 472.27 240.60 472.30 242.47
  L 472.13 243.19
  Q 471.82 244.30 471.89 245.43
  Q 471.38 254.86 468.64 262.00
  L 465.52 262.00
  L 463.11 261.41
  Q 463.26 251.43 465.33 241.04
  Q 467.41 238.73 470.78 237.65
  Z"
/>
<path fill="#bc9423" d="
  M 303.11 243.88
  L 299.07 253.40
  L 300.88 243.99
  A 0.88 0.87 80.3 0 0 299.58 243.07
  C 298.14 243.90 297.29 245.06 296.84 246.87
  Q 295.70 251.48 294.97 255.86
  Q 294.74 257.25 293.65 256.50
  L 294.30 241.14
  L 298.19 241.70
  A 6.39 6.20 -26.0 0 1 300.26 242.38
  L 303.11 243.88
  Z"
/>
<path fill="#1b1807" d="
  M 299.07 253.40
  Q 298.79 255.32 298.33 256.71
  A 2.16 2.15 11.5 0 1 296.09 258.18
  Q 293.94 257.98 293.65 256.50
  Q 294.74 257.25 294.97 255.86
  Q 295.70 251.48 296.84 246.87
  C 297.29 245.06 298.14 243.90 299.58 243.07
  A 0.88 0.87 80.3 0 1 300.88 243.99
  L 299.07 253.40
  Z"
/>
<path fill="#97939b" d="
  M 472.13 243.19
  Q 472.41 244.72 471.89 245.43
  Q 471.82 244.30 472.13 243.19
  Z"
/>
</svg>
