<?xml version="1.0" encoding="UTF-8" standalone="no"?>
<!-- Created with Inkscape (http://www.inkscape.org/) -->

<svg
   version="1.1"
   id="svg1"
   width="682.66669"
   height="349.33334"
   viewBox="0 0 682.66669 349.33334"
   xmlns="http://www.w3.org/2000/svg"
   xmlns:svg="http://www.w3.org/2000/svg"
   xmlns:rdf="http://www.w3.org/1999/02/22-rdf-syntax-ns#"
   xmlns:cc="http://creativecommons.org/ns#"
   xmlns:dc="http://purl.org/dc/elements/1.1/">
  <title
     id="title1">Metop-b Icon SVG</title>
  <defs
     id="defs1" />
  <g
     id="g1">
    <path
       style="fill:currentColor"
       d="m 614.89937,325.46026 c 0.37761,-15.99876 1.09728,-24.51629 2.18184,-25.8231 1.2866,-1.55026 1.20499,-2.29307 -0.39808,-3.62351 -1.10905,-0.92042 -2.01645,-2.1161 -2.01645,-2.65706 0,-1.73533 -8.85139,-10.4358 -13.50005,-13.26987 -2.47497,-1.50888 -5.81454,-2.74565 -7.42126,-2.74839 -1.60672,-0.003 -3.29213,-0.60499 -3.74535,-1.33832 -0.45323,-0.73334 -2.67292,-1.33334 -4.93265,-1.33334 -4.62556,0 -15.72107,-5.08148 -16.7073,-7.65156 -0.4148,-1.08096 -3.35712,-1.68177 -8.23604,-1.68177 -4.26751,0 -8.31546,-0.72478 -9.2462,-1.65552 -1.31847,-1.31847 -1.89802,-1.26315 -2.84662,0.27171 -1.01089,1.63566 -1.69651,1.65675 -4.53167,0.13942 -3.16283,-1.6927 -3.73497,-1.4114 -10.75338,5.28699 -4.07705,3.89114 -7.41281,7.84357 -7.41281,8.78318 0,0.93961 -0.75,2.1882 -1.66667,2.77463 -1.68292,1.07666 -4.25445,4.72166 -5.92586,8.39959 -0.49988,1.1 -1.84606,2.73092 -2.99151,3.62426 -2.41005,1.87963 -10.74929,2.28326 -10.74929,0.52029 0,-0.65384 -1.64984,-1.60288 -3.66631,-2.10898 -2.01647,-0.5061 -6.08969,-3.42114 -9.0516,-6.47787 -9.06652,-9.35678 -9.10394,-9.37222 -13.07934,-5.39682 -3.2265,3.2265 -3.83437,3.37242 -7.58199,1.82011 -5.90824,-2.44727 -9.49281,-0.24864 -13.94674,8.5544 -2.07721,4.10554 -4.22956,7.46461 -4.783,7.46461 -3.83742,0 -5.22436,-1.9847 -5.22436,-7.47598 0,-3.22154 -0.6,-5.85735 -1.33333,-5.85735 -0.73334,0 -1.33334,-2.925 -1.33334,-6.5 0,-6.21334 -0.18376,-6.53675 -4.16666,-7.33334 -9.60238,-1.92047 -13.20499,0.033 -8.83334,4.78966 2.62394,2.85505 5,7.48205 5,9.7367 0,2.41702 -12.65778,14.93888 -14.63389,14.47674 -1.20484,-0.28177 -4.63414,1.28329 -6.20354,2.83117 -0.82726,0.8159 -1.94655,3.54948 -2.4873,6.0746 -0.54076,2.52513 -1.44463,5.19114 -2.0086,5.92447 -0.56397,0.73333 -1.43326,3.24187 -1.93174,5.57454 -0.49849,2.33266 -1.76777,4.95612 -2.82063,5.82992 -1.05287,0.8738 -1.93338,2.86526 -1.9567,4.42547 -0.0233,1.5602 -0.92332,4.00141 -2,5.42491 -1.07668,1.42349 -1.9576,3.85349 -1.9576,5.4 0,3.71439 -2.45264,6.01183 -6.41797,6.01183 h -3.21798 l 0.50777,-18.48961 c 0.29935,-10.90003 1.12113,-19.24642 2.00202,-20.33334 0.82183,-1.01405 1.9072,-4.91719 2.41193,-8.67365 0.89766,-6.68092 0.83547,-6.85068 -2.85071,-7.7816 -2.07262,-0.52342 -16.18786,-0.7577 -31.36722,-0.52061 l -27.59883,0.43107 -4.00953,-4.64947 c -6.77526,-7.8566 -8.50268,-9.31613 -11.0261,-9.31613 -1.33836,0 -2.43338,-0.54726 -2.43338,-1.21613 0,-0.66888 -2.44178,-1.62868 -5.42617,-2.13289 -2.9844,-0.50421 -5.74859,-1.75695 -6.14265,-2.78386 -0.39407,-1.02692 -1.61594,-1.86712 -2.71527,-1.86712 -1.09934,0 -3.23588,-1.57271 -4.74788,-3.49491 -1.51201,-1.92219 -4.76965,-4.33914 -7.23922,-5.37099 -2.6732,-1.11694 -5.04806,-3.34358 -5.86894,-5.50266 -0.75835,-1.99461 -2.38705,-4.74542 -3.61934,-6.11292 -3.23647,-3.59159 -17.36763,-14.18519 -18.92209,-14.18519 -0.72514,0 -1.31844,-0.6 -1.31844,-1.33333 0,-0.73333 -0.69913,-1.33333 -1.55361,-1.33333 -1.50984,0 -14.4425,-13.0391 -14.45028,-14.5692 -0.002,-0.42028 -3.15213,-0.76414 -7,-0.76414 -5.81093,0 -7.20296,0.47078 -8.21712,2.77899 -1.1526,2.62328 -3.95755,4.68884 -8.98905,6.61952 -1.21554,0.46642 -2.54174,2.11636 -2.94712,3.66654 -0.40538,1.55017 -1.16216,2.39339 -1.68174,1.87382 -1.53239,-1.53239 -5.82775,3.21836 -5.82775,6.44561 0,1.95988 -1.02111,3.2382 -3,3.75569 -1.65,0.43149 -3.1271,0.65146 -3.28245,0.48884 -0.64366,-0.67381 -13.71755,13.05742 -13.71755,14.40726 0,0.80841 -2.1,2.47125 -4.66667,3.69521 -2.56666,1.22396 -4.66666,2.83509 -4.66666,3.58029 0,0.74519 -0.88204,1.3549 -1.96009,1.3549 -1.07804,0 -3.29088,1.8 -4.91741,4 -1.62653,2.2 -3.6803,4 -4.56393,4 -0.88363,0 -1.98492,0.98588 -2.44731,2.19084 -0.46238,1.20496 -1.22789,1.80365 -1.70111,1.33042 -1.16241,-1.1624 -5.74349,3.10646 -5.74349,5.35206 0,0.98634 -1.2,1.79335 -2.66667,1.79335 -1.46666,0 -2.67187,0.45 -2.67823,1 -0.006,0.55 -1.99141,3.1 -4.41123,5.66667 -2.41982,2.56666 -4.77966,5.67466 -5.2441,6.90665 -1.09294,2.89919 -11.60718,4.59913 -15.51394,2.50829 -1.55054,-0.82982 -2.81916,-1.20323 -2.81916,-0.82979 0,0.37344 -2.98276,-1.07971 -6.62836,-3.22923 -3.6456,-2.14953 -9.9456,-5.47753 -14,-7.39557 -4.05441,-1.91804 -7.371644,-3.97379 -7.371644,-4.56834 0,-0.59455 -1.05,-1.44523 -2.333333,-1.89039 -1.283334,-0.44517 -4.977704,-2.31515 -8.209712,-4.15551 -3.232008,-1.84036 -6.700839,-3.34612 -7.708513,-3.34612 -1.007674,0 -2.163428,-0.86333 -2.568342,-1.91852 -0.404914,-1.05519 -2.444624,-2.29376 -4.53269,-2.75237 -2.088065,-0.45862 -4.511408,-1.69528 -5.385206,-2.74814 -0.873798,-1.05287 -2.565257,-1.92764 -3.758798,-1.94395 -1.19354,-0.0163 -3.670074,-1.20296 -5.503407,-2.63702 -1.833333,-1.43405 -4.146319,-2.62071 -5.139967,-2.63701 -0.993649,-0.0163 -4.473728,-1.82965 -7.73351,-4.02965 -3.259782,-2.2 -6.496796,-4 -7.193366,-4 -0.69657,0 -1.266491,-0.55233 -1.266491,-1.2274 0,-0.67506 -1.758541,-1.61363 -3.907869,-2.0857 -2.149328,-0.47207 -4.622795,-1.71975 -5.496593,-2.77261 -0.873798,-1.05286 -2.565257,-1.91799 -3.758798,-1.92251 -1.193541,-0.005 -3.670074,-0.81351 -5.503407,-1.79777 C 15.5,241.20976 11.483598,239.07039 8.4079953,237.43986 3.2893999,234.72624 2.6822901,233.83432 1.2366987,226.9043 0.23354921,222.09531 -0.02902755,214.508 0.51693652,206.10638 c 0.85342718,-13.13306 0.89520508,-13.26085 5.88461328,-18 2.7637961,-2.62517 6.8040912,-5.91749 8.9784342,-7.31626 2.174342,-1.39877 4.433164,-3.34877 5.019603,-4.33333 0.58644,-0.98457 1.73292,-1.79012 2.547735,-1.79012 0.814814,0 3.035,-1.71367 4.933746,-3.80815 1.898747,-2.09448 4.802266,-4.51559 6.452266,-5.38024 1.65,-0.86466 3,-2.1765 3,-2.91521 0,-1.72562 28.223289,-29.37572 37.990466,-37.21892 4.102099,-3.29405 9.381971,-7.887 11.733049,-10.20656 2.351078,-2.31957 4.725092,-3.93902 5.275587,-3.5988 0.550495,0.34023 1.004061,0.13318 1.007923,-0.4601 0.01037,-1.59231 25.765231,-28.4495 27.326311,-28.495884 C 121.4,82.561017 123.8,80.198755 126,77.333336 c 2.2,-2.86542 4.76883,-5.237637 5.70852,-5.271594 0.93968,-0.03396 2.05387,-0.96174 2.47598,-2.06174 0.42211,-1.1 1.51124,-2 2.42029,-2 0.90905,0 3.81511,-2.1 6.45793,-4.666667 2.64281,-2.566667 5.21946,-4.666667 5.7259,-4.666667 0.83746,0 14.31009,-13.478072 32.10224,-32.115215 3.78997,-3.969965 8.51402,-8.418119 10.49788,-9.884786 1.98386,-1.466667 5.8557,-4.616667 8.60408,-7.0000001 2.74838,-2.3833334 5.39942,-4.3333334 5.89121,-4.3333334 0.49178,0 2.18219,-1.2 3.75648,-2.6666668 3.23066,-3.00982517 11.4622,-3.59749719 16.04395,-1.1454216 1.56336,0.8366848 6.23988,5.0366849 10.39227,9.3333339 4.1524,4.296648 8.53384,7.812088 9.73654,7.812088 1.21547,0 2.18674,1.064167 2.18674,2.395882 0,1.317735 1.81881,3.867735 4.0418,5.666667 2.22299,1.798931 4.88013,4.020785 5.90476,4.937452 1.02463,0.916666 2.95582,1.685748 4.29153,1.709071 1.33572,0.02332 3.59325,0.923322 5.01675,2 3.34412,2.529365 9.33763,2.507986 11.88802,-0.04241 3.08055,-3.08055 4.30449,-2.547619 12.24868,5.333334 4.06569,4.033333 8.19237,7.333333 9.17039,7.333333 0.97802,0 2.45549,0.816069 3.28328,1.813486 0.82778,0.997417 2.92609,1.541838 4.66291,1.209823 4.38657,-0.838546 8.34794,3.813086 9.43808,11.082665 0.48612,3.241715 1.40666,5.894027 2.04565,5.894027 0.63898,0 1.54541,1.208712 2.01429,2.686028 0.46889,1.477315 1.36786,2.367528 1.99772,1.978251 0.62987,-0.389278 1.48004,-0.166008 1.88928,0.496155 0.40924,0.662162 2.8507,1.599137 5.42547,2.082166 2.57476,0.483029 4.68139,1.369493 4.68139,1.969919 0,0.600426 2.82701,1.479169 6.28225,1.952762 11.55477,1.583757 13.49308,3.125826 14.41433,11.467635 1.26287,11.435032 2.27138,12.705572 10.1853,12.831522 5.24651,0.0835 7.49555,-0.5594 9.96581,-2.84876 1.75462,-1.626126 5.0889,-3.336328 7.40952,-3.800452 5.09627,-1.019255 17.07613,0.400143 17.07613,2.023216 0,0.638857 3.3,1.161556 7.33333,1.161556 4.03333,0 7.33333,-0.548805 7.33333,-1.219571 0,-0.670765 4.5,-1.641258 10,-2.15665 5.5,-0.515392 10,-1.388553 10,-1.940357 0,-0.551804 2.77421,-1.315973 6.16491,-1.698154 3.3907,-0.382181 6.5407,-1.29931 7,-2.038065 0.4593,-0.738754 4.43509,-1.735645 8.83509,-2.215313 4.4,-0.479667 9.28716,-1.136228 10.86035,-1.459024 3.0708,-0.630083 8.47299,-9.543797 8.47299,-13.980589 0,-1.444084 0.63541,-2.625608 1.41202,-2.625608 0.77661,0 1.0412,-0.6 0.58798,-1.333334 -0.45323,-0.733333 -0.26614,-1.333333 0.41575,-1.333333 0.68189,0 1.6471,-3.6 2.1449,-8 0.4978,-4.4 1.43854,-8 2.09053,-8 0.65198,0 1.59031,-2.700001 2.08518,-6.000001 0.49486,-3.3 1.36658,-6 1.93715,-6 0.57057,0 1.42457,-1.542624 1.89779,-3.428052 0.47321,-1.885429 1.57531,-3.189744 2.44911,-2.898477 0.8738,0.291267 2.78061,-0.580827 4.23734,-1.937985 1.45674,-1.357159 3.41969,-2.171675 4.3621,-1.810037 0.94242,0.361639 1.71348,0.162515 1.71348,-0.442496 0,-0.605012 4.29725,-1.499408 9.54944,-1.987548 8.67024,-0.805814 9.83645,-0.617907 12.66667,2.040952 3.27577,3.077422 4.395,11.148828 1.67185,12.056547 -0.87607,0.292022 -1.74111,6.900539 -2.19619,16.777778 l -0.75081,16.295986 8.65547,0 c 9.32804,0 12.77541,1.880985 17.71656,9.666667 2.49905,3.937699 8.68701,5.200369 8.68701,1.772607 0,-1.041733 1.8,-2.289406 4,-2.772607 2.2,-0.483201 4,-1.430874 4,-2.105941 0,-1.547012 7.59648,-1.625671 8.5465,-0.0885 0.38713,0.626393 6.21148,1.554665 12.943,2.062828 7.13061,0.538289 13.3935,1.732491 15.00482,2.861104 1.52114,1.065445 3.58602,1.937173 4.58864,1.937173 2.44282,0 6.06444,4.516994 10.42309,12.999997 1.97817,3.85 4.09856,7 4.71198,7 0.61342,0 1.11531,0.66185 1.11531,1.47076 0,0.80892 2.69649,4.46991 5.9922,8.13554 6.04285,6.7211 8.63787,10.67418 11.41819,17.3937 0.83443,2.01667 2.01802,3.66667 2.63019,3.66667 0.61218,0 1.53435,1.35 2.04928,3 0.51492,1.65 1.30535,3.3 1.75651,3.66667 1.19882,0.9743 5.19446,8.09461 6.92098,12.33333 0.82144,2.01667 1.98715,3.66667 2.59048,3.66667 0.60332,0 1.4923,1.8 1.9755,4 0.4832,2.2 1.3832,4 2,4 0.6168,0 1.5168,1.8 2,4 0.4832,2.2 1.43088,4 2.10594,4 0.67507,0 1.2274,0.76368 1.2274,1.69707 0,0.93339 2.02036,4.76484 4.4897,8.51434 2.46933,3.74949 4.89652,8.98581 5.39375,11.63626 0.49723,2.65045 1.37381,4.819 1.94797,4.819 2.9794,0 5.63916,29.72454 3.4041,38.04309 -0.40044,1.49036 -2.64225,3.54934 -4.9818,4.57549 -2.33955,1.02616 -4.95656,2.80677 -5.81557,3.95691 -1.16716,1.56272 -3.98743,2.08892 -11.16019,2.08225 -9.49977,-0.009 -9.64463,-0.0625 -14.10482,-5.22215 -2.47856,-2.86727 -4.50648,-6.01325 -4.50648,-6.99107 0,-0.97782 -0.50369,-1.77786 -1.11931,-1.77786 -0.61562,0 -1.76353,-1.41389 -2.5509,-3.14199 -0.9658,-2.11969 -3.70604,-3.88593 -8.42196,-5.42843 -6.96405,-2.27783 -7.00186,-2.27478 -10.04549,0.80866 -2.77257,2.80885 -3.14069,4.78042 -3.98025,21.31769 l -0.92512,18.2226 3.71621,3.44407 c 2.04392,1.89424 5.1286,3.44407 6.85485,3.44407 2.24975,0 3.13864,0.75522 3.13864,2.66667 0,1.46666 1.28772,3.95439 2.8616,5.52827 2.74716,2.74715 2.8309,3.6606 2.09381,22.83953 -0.43623,11.35053 -1.38411,20.59423 -2.19494,21.40506 -0.78493,0.78493 -1.43374,3.25714 -1.44181,5.49381 -0.008,2.23666 -0.38658,6.31666 -0.84113,9.06666 -0.82642,4.99986 -0.82663,5 -7.48405,5 h -6.65761 z m 6.68704,16.53975 c 0.29964,-2.56667 0.0653,-4.66667 -0.52079,-4.66667 -0.58608,0 -1.0656,2.1 -1.0656,4.66667 0,2.56667 0.23435,4.66667 0.52079,4.66667 0.28644,0 0.76596,-2.1 1.0656,-4.66667 z m 1.69,-13.90787 c 0.42191,-0.68266 0.15732,-1.61807 -0.58798,-2.07869 -0.74529,-0.46062 -1.35508,0.0979 -1.35508,1.2412 0,2.34204 0.80008,2.68688 1.94306,0.83749 z M 520.00002,268.22223 c 0,-0.61111 -0.9,-1.11111 -2,-1.11111 -1.1,0 -2,0.5 -2,1.11111 0,0.61111 0.9,1.11111 2,1.11111 1.1,0 2,-0.5 2,-1.11111 z m 0,-4.8102 c 0,-0.32339 -0.6,-0.9588 -1.33334,-1.41202 -0.73333,-0.45323 -1.33333,-0.18864 -1.33333,0.58797 0,0.77662 0.6,1.41203 1.33333,1.41203 0.73334,0 1.33334,-0.26459 1.33334,-0.58798 z M 385.20351,171.42572 c -0.35078,-0.35077 -1.43212,0.68494 -2.40298,2.30159 -1.68655,2.80841 -1.65814,2.83682 0.63778,0.63777 1.32163,-1.26587 2.11597,-2.58858 1.7652,-2.93936 z m 5.46317,-0.75905 c 0,-0.73333 -0.6,-1.33333 -1.33334,-1.33333 -0.73333,0 -1.33333,0.6 -1.33333,1.33333 0,0.73333 0.6,1.33334 1.33333,1.33334 0.73334,0 1.33334,-0.60001 1.33334,-1.33334 z"
       id="path1" />
  </g>
  <metadata
     id="metadata1">
    <rdf:RDF>
      <cc:Work
         rdf:about="">
        <dc:title>Metop-b Icon SVG</dc:title>
      </cc:Work>
    </rdf:RDF>
  </metadata>
</svg>
