<?xml version="1.0" encoding="UTF-8" standalone="no"?>
<!-- Created with Inkscape (http://www.inkscape.org/) -->

<svg
   version="1.1"
   id="svg1"
   width="163.84"
   height="133.44"
   viewBox="0 0 163.84 133.44"
   xmlns="http://www.w3.org/2000/svg"
   xmlns:svg="http://www.w3.org/2000/svg"
   xmlns:rdf="http://www.w3.org/1999/02/22-rdf-syntax-ns#"
   xmlns:cc="http://creativecommons.org/ns#"
   xmlns:dc="http://purl.org/dc/elements/1.1/">
  <title
     id="title1">Envisat Icon SVG</title>
  <defs
     id="defs1" />
  <g
     id="g1">
    <path
       style="fill:currentColor"
       d="m 161.03899,130.16 c -0.55361,-0.572 -1.22822,-1.57147 -1.49915,-2.22104 -0.27092,-0.64957 -1.14544,-1.72676 -1.94337,-2.39374 -0.79793,-0.66699 -1.76046,-1.86352 -2.13897,-2.65896 -0.3785,-0.79544 -1.53411,-2.22052 -2.56802,-3.16684 -1.0339,-0.94632 -2.22361,-2.38632 -2.64379,-3.2 -0.42017,-0.81368 -1.4255,-2.27142 -2.23405,-3.23942 -0.80855,-0.968 -1.84133,-2.53962 -2.29508,-3.4925 -0.52314,-1.09861 -1.69058,-2.57319 -3.19077,-4.0302 -1.30119,-1.26374 -2.36579,-2.50784 -2.36579,-2.76467 0,-0.25683 -0.38033,-1.23018 -0.84517,-2.163 -0.64469,-1.29372 -0.74971,-1.755023 -0.44275,-1.944737 0.25881,-0.159952 -0.17473,-0.440408 -1.21483,-0.785873 -1.88875,-0.627345 -3.61756,-2.353293 -4.22416,-4.217192 -0.58416,-1.794916 -0.82176,-2.061583 -4.08145,-4.580839 l -2.95164,-2.28118 0.0114,-2.469904 c 0.0185,-4.010764 0.53494,-8.754564 1.00245,-9.208882 0.23438,-0.227756 0.93014,-0.555672 1.54614,-0.728701 0.97835,-0.274812 0.78756,-0.31825 -1.50853,-0.34346 -3.11852,-0.03424 -8.98825,0.531317 -9.74806,0.939241 -0.61278,0.328984 -4.51956,0.822583 -8.74341,1.10468 -1.584,0.10579 -4.70731,0.33359 -6.94068,0.506223 -2.233369,0.172633 -4.177369,0.285807 -4.319997,0.251497 -0.142629,-0.03431 -1.195325,0.0324 -2.339325,0.148235 -1.144,0.11584 -4.955544,0.440828 -8.470098,0.722197 -3.514554,0.281368 -6.646553,0.64883 -6.96,0.816582 -0.838048,0.44851 -0.697916,1.095913 0.427934,1.977022 0.588874,0.460864 0.858996,0.866732 0.659076,0.990289 -0.46416,0.286867 -1.566249,-0.960507 -1.994136,-2.257017 -0.324606,-0.983565 -0.457781,-1.06781 -1.68802,-1.06781 -2.199299,0 -12.362924,1.240741 -12.950037,1.580896 -0.468711,0.271557 -0.399602,0.371674 0.495282,0.717505 1.082582,0.418368 1.277273,0.717186 0.699803,1.074082 -0.187108,0.115639 -0.871108,-0.352525 -1.52,-1.040365 l -1.179803,-1.250619 -6.275761,0.468541 -6.27576,0.468542 -1.856333,-1.329291 c -2.012652,-1.441228 -2.579431,-1.579186 -3.530985,-0.859468 -1.419345,1.073539 -3.062745,0.03347 -3.636609,-2.301522 -0.281854,-1.146834 -0.743522,-1.870452 -1.849615,-2.899086 l -1.474009,-1.370785 0.849536,-0.886725 c 0.467245,-0.487699 0.849536,-0.986845 0.849536,-1.109215 0,-0.122369 -1.503501,-0.22249 -3.341114,-0.22249 -1.837613,0 -3.419847,-0.127391 -3.516075,-0.283091 -0.09623,-0.155701 -0.31126,-1.245539 -0.477848,-2.421863 -0.301457,-2.128672 -0.859959,-3.31182 -1.335238,-2.828608 -0.137169,0.139459 -0.350168,1.860932 -0.47333,3.825496 -0.123163,1.964563 -0.329649,3.742987 -0.458859,3.952053 -0.323311,0.523129 -5.61398,1.859036 -9.11233,2.300886 l -2.885293,0.36442 -3.733591,-2.013012 C 12.292846,71.229125 10.096866,69.89805 9.4663651,69.378338 L 8.3199998,68.433407 V 63.016704 57.600001 H 9.548635 c 1.029559,0 1.29376,-0.142587 1.630563,-0.88 0.576387,-1.261969 0.823702,-4.101551 0.381054,-4.375123 -0.544851,-0.336736 -0.431537,-0.920704 0.136368,-0.702779 0.284776,0.109279 0.413223,0.05563 0.301114,-0.125763 -0.107528,-0.173984 -0.483505,-0.316335 -0.835505,-0.316335 -0.352,0 -0.559303,0.130571 -0.460673,0.290157 0.09863,0.159587 -0.08522,0.220978 -0.408545,0.136425 -0.3362122,-0.08792 -0.9870937,0.179557 -1.520442,0.624821 -1.1908751,0.994199 -2.5773714,1.684917 -3.8781962,1.932021 l -1.0256271,0.194827 -0.094373,-2.114949 -0.094373,-2.114948 -1.44,-0.430692 C 1.448,49.480782 0.61999999,49.352883 0.39999999,49.433442 0.11095983,49.539283 0,49.095306 0,47.832944 c 0,-2.456978 1.8521294,-7.34031 3.2700771,-8.621899 0.5774575,-0.521925 1.0156502,-1.056743 0.9737615,-1.188483 -0.041889,-0.131741 0.1617338,-0.14824 0.4524944,-0.03666 0.3522863,0.135185 0.4522188,0.07919 0.2995412,-0.167851 -0.1544025,-0.249828 -0.050054,-0.302002 0.32,-0.16 0.3700535,0.142003 0.4744024,0.08983 0.32,-0.16 -0.1544025,-0.249828 -0.050054,-0.302002 0.3199999,-0.16 0.3700536,0.142003 0.4744025,0.08983 0.32,-0.16 -0.1425205,-0.230603 -0.065259,-0.307837 0.2044227,-0.204351 0.5473036,0.21002 2.5568019,-0.61544 3.1043593,-1.275206 0.2275396,-0.274169 0.5978529,-0.498488 0.8229179,-0.498488 0.547779,0 1.830815,-2.214158 1.612583,-2.782863 -0.09529,-0.248313 -0.0309,-0.362663 0.143508,-0.254872 0.173984,0.107528 0.316335,0.03451 0.316335,-0.162265 0,-0.196774 0.137711,-0.272661 0.306024,-0.168638 0.168313,0.104024 0.22428,0.402155 0.124371,0.662515 -0.122732,0.319835 -0.03103,0.415583 0.282707,0.295189 0.255399,-0.09801 0.647748,0.04278 0.871887,0.312847 0.22414,0.270072 0.525261,0.418277 0.669157,0.329343 0.143897,-0.08893 0.36583,0.0069 0.493185,0.212967 0.158358,0.256228 0.08948,0.289038 -0.217889,0.103793 -0.383725,-0.231264 -0.383458,-0.189574 0.0018,0.28512 0.248198,0.305794 0.630668,0.487147 0.849934,0.403007 0.219266,-0.08414 0.664195,0.161306 0.988732,0.545437 l 0.590066,0.69842 -0.794486,-0.64 c -0.65635,-0.528725 -0.716564,-0.539597 -0.346318,-0.06253 0.246492,0.317609 0.697876,0.711111 1.003075,0.874449 0.45638,0.244247 0.525295,0.183735 0.388125,-0.340803 -0.130026,-0.497221 0.06,-0.716838 0.86225,-0.996503 0.75764,-0.264115 0.915405,-0.432282 0.598193,-0.637636 -0.317731,-0.205691 -0.26282,-0.265349 0.209161,-0.227244 2.147708,0.173395 2.248435,0.08674 2.129086,-1.831671 -0.08719,-1.401417 -0.210541,-1.74458 -0.57662,-1.604102 -0.2604,0.09992 -0.379518,0.03925 -0.270201,-0.137626 0.107528,-0.173984 0.07901,-0.31705 -0.06338,-0.317924 C 20.436498,29.757537 19.888,29.410842 19.36,28.987978 l -0.96,-0.768843 0.841343,0.160348 c 0.761044,0.145044 0.826202,0.08114 0.682695,-0.669567 C 19.836782,27.253462 19.580984,26.88 19.3556,26.88 18.794614,26.88 16.96,25.233215 16.96,24.729663 16.96,24.209 19.159545,21.76 19.627173,21.76 c 0.193986,0 1.11323,0.751081 2.042764,1.669069 0.929534,0.917988 1.690062,1.493988 1.690062,1.28 0,-0.213988 -0.168,-0.389069 -0.373333,-0.389069 -0.205333,0 -0.284007,-0.08933 -0.17483,-0.198503 0.109177,-0.109177 -0.243546,-1.074198 -0.783828,-2.144491 l -0.982332,-1.945988 0.913258,-0.728206 c 1.377291,-1.098214 2.65619,-1.552296 3.278093,-1.163912 0.287963,0.179836 1.327403,0.260314 2.309869,0.17884 1.72504,-0.143054 1.79845,-0.116748 2.140579,0.767063 0.194853,0.503359 0.449556,1.959767 0.566006,3.236463 0.11645,1.276695 0.363304,2.414945 0.548565,2.529442 0.211249,0.130559 0.240313,0.052 0.07795,-0.210708 -0.15916,-0.257526 -0.133103,-0.341148 0.06764,-0.21708 0.17959,0.110993 0.260109,0.549249 0.178932,0.973902 -0.162904,0.852173 -0.846655,0.712551 6.644119,1.35673 1.237882,0.106453 2.444739,0.387596 2.681905,0.624762 0.237166,0.237166 0.501337,0.361083 0.587048,0.275373 0.08571,-0.08571 0.09444,0.173146 0.0194,0.575238 -0.241907,1.296251 0.613877,2.015182 2.355298,1.978652 1.104471,-0.02317 1.362974,0.04407 0.905651,0.23556 -0.427356,0.178944 -0.03856,0.242878 1.170186,0.192423 1.039994,-0.04341 1.732459,0.04969 1.627505,0.218821 -0.101142,0.162985 0.06241,0.200329 0.366435,0.08366 0.370053,-0.142002 0.474402,-0.08983 0.32,0.16 -0.154403,0.249829 -0.05005,0.302003 0.32,0.16 0.302013,-0.115893 0.468309,-0.07997 0.369547,0.07983 -0.180764,0.292483 1.244771,0.87074 2.921941,1.185261 2.655974,0.498078 3.97801,0.641343 4.099799,0.444285 0.0748,-0.121036 0.284864,-3.376221 0.4668,-7.233744 0.349801,-7.416738 0.564314,-10.768189 0.861625,-13.461681 0.161766,-1.46552 0.109215,-1.671075 -0.474596,-1.856369 C 56.008164,10.301028 55.623003,9.9245376 55.513329,9.5789847 55.403655,9.2334319 55.216289,9.0094912 55.09696,9.0813387 54.977631,9.1531862 54.856413,8.4225429 54.827587,7.457687 54.758965,5.1608473 54.476594,4.074891 54.021175,4.3563554 53.812112,4.4855634 53.749524,4.4358339 53.871932,4.2377733 53.987883,4.0501616 53.831085,3.4581589 53.523494,2.9222116 52.792362,1.6482868 53.216475,1.1687952 54.698463,1.5938236 c 0.58996,0.1691982 1.218402,0.2175562 1.396538,0.1074621 0.178136,-0.1100941 0.230461,-0.049011 0.116278,0.1357405 -0.114182,0.1847514 0.01935,0.4230006 0.29673,0.5294427 0.758584,0.2910963 1.793858,0.2325208 1.594398,-0.090211 C 57.884632,1.9238903 58.700056,1.2067235 58.989442,1.4961097 59.105248,1.611916 59.199999,1.4066667 59.199999,1.04 c 0,-0.36666665 -0.18,-0.73929824 -0.4,-0.82807017 -0.22,-0.0887719 3.056,-0.14138436 7.28,-0.11691651 l 7.679999,0.044487 -6.4,0.17024985 c -3.519999,0.0936374 -6.219999,0.28674829 -5.999999,0.42913528 0.431876,0.27951625 0.553603,0.89471015 0.16,0.80862255 -0.532567,-0.1164814 -1.983162,0.4634916 -2.450298,0.9796717 -0.461528,0.5099821 -0.290162,0.6497539 2.376147,1.9380682 1.58045,0.7636463 3.030079,1.5770585 3.221397,1.8075825 0.392609,0.473064 0.134688,1.0871697 -0.456604,1.0871697 -0.725552,0 -4.688246,2.2775973 -5.010577,2.8798779 -0.175662,0.328228 -0.571539,0.67672 -0.879726,0.774426 -0.519928,0.164836 -0.553907,0.864519 -0.471147,9.701672 l 0.08919,9.524025 0.956363,0.548305 c 1.24661,0.71471 1.493013,1.434006 0.865677,2.527074 l -0.509408,0.887594 3.683549,0.870383 c 3.1,0.732497 3.727638,0.799045 3.961856,0.420072 0.23285,-0.376759 0.345705,-0.36125 0.690942,0.09496 0.511891,0.676424 7.335497,2.560749 8.890981,2.455226 0.61691,-0.04185 1.666435,0.169146 2.332277,0.468882 2.172713,0.978068 7.898774,2.214672 8.385297,1.810894 0.32697,-0.271361 0.497719,-0.242188 0.700203,0.119631 0.312103,0.557697 6.376286,2.219143 7.264603,1.990332 0.3304,-0.0851 0.922668,0.05621 1.316153,0.314032 0.92651,0.607073 5.169163,1.491917 5.956003,1.242181 0.33732,-0.107059 0.60712,-0.0409 0.60712,0.148874 0,0.18786 0.144,0.341564 0.32,0.341564 0.176,0 0.3222,-0.396 0.3249,-0.88 0.005,-0.873003 0.62011,-2.271633 0.6302,-1.432623 0.004,0.297587 0.22403,0.263793 0.81801,-0.125392 0.89934,-0.589273 1.29205,-0.470204 3.31421,1.004866 0.59803,0.436232 1.43951,0.793149 1.86996,0.793149 0.50416,0 0.84012,0.21984 0.94421,0.617857 0.17095,0.653734 0.80709,0.593224 1.69851,-0.161566 0.264,-0.223535 0.87674,-0.505446 1.36166,-0.626467 0.78216,-0.195206 0.93304,-0.09871 1.33698,0.855069 0.47145,1.113174 10.6263,10.736827 10.96845,10.394683 0.0999,-0.09994 0.24149,-2.597725 0.31455,-5.55064 0.14508,-5.862878 0.25362,-6.808936 0.7812,-6.808936 0.19286,0 1.48612,1.104971 2.8739,2.455492 l 2.52326,2.455493 0,4.725622 c 0,2.599092 0.12891,4.805294 0.28647,4.90267 0.41412,0.255941 0.67353,-0.619163 0.67353,-2.272116 0,-0.792272 0.13439,-1.392494 0.29864,-1.333828 0.16425,0.05867 1.22924,0.930703 2.36664,1.937859 l 2.06799,1.831192 0.21632,2.328808 c 0.26605,2.864147 0.42338,3.448808 0.92809,3.448808 0.73825,0 3.96417,3.178454 4.45724,4.39165 0.2701,0.664593 1.15124,1.850332 1.95808,2.634977 1.10622,1.075774 1.46752,1.66601 1.46911,2.4 0.001,0.535355 0.28821,1.405373 0.63789,1.933373 0.44152,0.666672 0.63642,1.502121 0.63789,2.734245 0.002,1.759111 0.0162,1.784963 1.64991,3.030879 2.02341,1.543067 2.82944,2.809396 2.831,4.447699 0.001,1.095024 0.24303,1.504664 1.9212,3.252302 1.42005,1.478834 1.92091,2.235837 1.92352,2.907178 0.007,1.933472 0.37619,3.264696 0.85346,3.081551 0.54112,-0.207646 2.28097,1.340737 2.69042,2.394347 0.28941,0.744718 0.44327,0.836065 1.9726,1.171169 0.81641,0.17889 0.88,0.308002 0.88,1.786727 0,1.306542 -0.10097,1.593022 -0.56,1.589002 -0.42909,-0.004 -0.46017,-0.0682 -0.13295,-0.2756 0.32221,-0.20425 0.25572,-0.31551 -0.27087,-0.45322 -0.38385,-0.100375 -0.88495,-0.110731 -1.11355,-0.023 -0.62501,0.23984 -1.09153,2.50333 -0.79903,3.87675 0.40068,1.88134 1.58186,20.52201 1.59175,25.11998 0.003,1.188 -0.11111,2.16 -0.25258,2.16 -0.14147,0 -0.71018,-0.468 -1.26378,-1.04 z m 2.08474,-31.499864 c -0.30595,-0.08009 -0.88195,-0.083 -1.28,-0.0065 -0.39805,0.07654 -0.14773,0.142073 0.55627,0.145625 0.704,0.0036 1.02968,-0.05907 0.72373,-0.139167 z M 70.166089,72.750102 c -0.216651,-0.08766 -0.648651,-0.09299 -0.96,-0.01186 -0.31135,0.08113 -0.134091,0.152852 0.393909,0.159374 0.528,0.0065 0.782741,-0.05986 0.566091,-0.147516 z m -10.00609,-6.315864 c 0,-0.06917 -0.223479,-0.211521 -0.49662,-0.316335 -0.284776,-0.109279 -0.413223,-0.05563 -0.301115,0.125764 0.187923,0.304065 0.797735,0.449743 0.797735,0.190571 z m 15.593333,-4.22757 c -0.106334,-0.106334 -0.382334,-0.117702 -0.613334,-0.02526 -0.255274,0.102152 -0.179448,0.177978 0.193334,0.193333 0.337333,0.01389 0.526333,-0.06174 0.42,-0.16807 z m 3.366666,-0.338597 c -0.22,-0.08877 -0.58,-0.08877 -0.8,0 -0.22,0.08877 -0.04,0.161404 0.4,0.161404 0.44,0 0.62,-0.07263 0.4,-0.161404 z M 22.953333,49.406668 C 22.846999,49.300334 22.570999,49.288966 22.34,49.381404 c -0.255275,0.102153 -0.179449,0.177979 0.193333,0.193334 0.337333,0.01389 0.526333,-0.06174 0.42,-0.16807 z m -1.28,-0.32 C 21.567,48.980334 21.291,48.968966 21.06,49.061404 c -0.255275,0.102153 -0.179449,0.177979 0.193333,0.193334 0.337333,0.01389 0.526333,-0.06174 0.42,-0.16807 z m 39.9244,-42.3630025 c 0.112109,-0.1813952 -0.01634,-0.2350424 -0.301114,-0.1257636 -0.554374,0.2127331 -0.655804,0.4420982 -0.195506,0.4420982 0.165613,0 0.389092,-0.1423505 0.49662,-0.3163346 z M 60.331024,6.0029903 C 60.034559,5.83708 59.706797,5.7865349 59.602664,5.8906677 c -0.104132,0.1041328 -0.01283,0.1893324 0.202887,0.1893324 0.21572,0 0.304241,0.1423506 0.196713,0.3163346 -0.114879,0.185878 0.02375,0.2321999 0.336141,0.1123226 0.493621,-0.1894201 0.493093,-0.2255879 -0.0074,-0.505667 z M 58.879999,1.92 c 0,-0.176 -0.0635,-0.32 -0.141115,-0.32 -0.07761,0 -0.230111,0.144 -0.338885,0.32 -0.108774,0.176 -0.04527,0.32 0.141114,0.32 0.186387,0 0.338886,-0.144 0.338886,-0.32 z M 55.11424,31.680001 c 0,-0.616 0.06585,-0.868 0.146343,-0.56 0.08049,0.308 0.08049,0.812 0,1.12 -0.08049,0.308 -0.146343,0.056 -0.146343,-0.56 z m -9.434241,-1.49193 c 0.22,-0.08877 0.58,-0.08877 0.8,0 0.22,0.08877 0.04,0.161403 -0.4,0.161403 -0.44,0 -0.62,-0.07263 -0.4,-0.161403 z m -4.374737,-1.574737 c 0.01535,-0.372782 0.09118,-0.448608 0.193334,-0.193333 0.09244,0.231 0.08107,0.507 -0.02526,0.613333 -0.106333,0.106333 -0.181965,-0.08267 -0.16807,-0.42 z M 55.462422,26.56 c 0,-1.144 0.05808,-1.612 0.129063,-1.04 0.07099,0.572 0.07099,1.508 0,2.080001 -0.07098,0.572 -0.129063,0.104 -0.129063,-1.040001 z M 38.639999,26.348071 c 0.22,-0.08877 0.58,-0.08877 0.8,0 0.22,0.08877 0.04,0.161403 -0.4,0.161403 -0.44,0 -0.62,-0.07263 -0.4,-0.161403 z M 54.450525,8.0000001 c 0,-0.44 0.07263,-0.62 0.161404,-0.4 0.08877,0.22 0.08877,0.58 0,0.8000001 -0.08877,0.22 -0.161404,0.04 -0.161404,-0.4000001 z m -0.308143,-2.4 c 0.0065,-0.528 0.07824,-0.7052594 0.159374,-0.3939098 0.08113,0.3113496 0.0758,0.7433496 -0.01186,0.96 -0.08766,0.2166504 -0.154038,-0.03809 -0.147517,-0.5660902 z M 0.02526316,0.72000001 c -0.01697283,-0.48372549 0.1585059,-0.718392 0.53473683,-0.71509992 0.34541774,0.00302246 0.42511286,0.09498628 0.2079821,0.24 C 0.57437225,0.37420505 0.33374068,0.69600001 0.23324526,0.96000002 0.11115313,1.2807343 0.04214391,1.2011014 0.02526316,0.72000001 Z"
       id="path1" />
  </g>
  <metadata
     id="metadata1">
    <rdf:RDF>
      <cc:Work
         rdf:about="">
        <dc:title>Envisat Icon SVG</dc:title>
        <dc:source>https://www.esa.int/var/esa/storage/images/esa_multimedia/images/2004/07/artist_s_impression_of_envisat/9613382-3-eng-GB/Artist_s_impression_of_Envisat_article.jpg</dc:source>
      </cc:Work>
    </rdf:RDF>
  </metadata>
</svg>
