<svg xmlns="http://www.w3.org/2000/svg" baseProfile="tiny" width="512" height="417" xmlns:v="https://vecta.io/nano"><style><![CDATA[.B{fill:#e2cfa1}.C{fill:#b6834a}.D{fill:#1b2023}.E{fill:#646576}]]></style><path d="M1.65 0L.77 3.23a.33.32 23.4 0 1-.49.19q-.15-.09-.28-.3V0h1.65zm191.08 0l4.91.36a.15.15 0 0 1 .14.14.14.13-87.6 0 1-.13.13l-7.48.37a.36.36 0 0 0-.2.65l2.15 1.62a.67.67 0 0 1-.39 1.21q-6.14.11-8.68 4.61a.72.71-62.4 0 0 .31 1q7.78 3.75 14.36 7.18 2.97 1.54 4.98 3.65a.35.34-38.2 0 1-.07.53q-2.34 1.45-4.16 1.51a1.84 1.83 27.4 0 0-.92.29q-4.08 2.7-10.1 5.39-.03.01-2.46 1.93a1.69 1.65 81.2 0 0-.52.73c-.58 1.6-1.58 2.39-3.58 2.9q-1.29.33-1.2 1.62a1.57 1.54-67.4 0 0 .34.85q.64.82.65 1.33.21 20.17-.14 47.12l.28 9.47a.79.78-79.6 0 0 .51.75q3.02 1.07 5.24 3.39a2.19 2.07 15.7 0 1 .51.85q.77 2.49-.83 4.77-1.28-.31-1.71.39-.27.45-.07.94-.17-.04-.27.17a.29.28 35.6 0 0 .06.34q1.24 1.17 2.97 1.6 11.51 2.87 21.26 4.91a.68.68 0 0 0 .68-.25q.02-.03 0-.61-.02-.65.4-1.02.23-.2.71-.13a.63.63 0 0 1 .53.5q.45 2.12 2.82 2.61 1 .21 1.32.3 5.25 1.52 12.03 3.27c2.39.61 4.74.4 6.62 2.03a1.06 1.04 56.3 0 0 1.01.21q1.71-.56 4.19-.09a1.45.74.1 0 1 .85.44q.15.2.68.25a.57.57 0 0 0 .59-.34q.35-.78 1.13-1.14a.75.74 57 0 1 .88.19q1.58 1.83 2.72 2.15 4.52 1.3 10.62 2.81 6.23 1.55 12.13 3.32l2.33 3.72a.61.61 0 0 0 1.08-.09q.63-1.53.67-3.22-.1-.94.39-1.49a.74.74 0 0 1 1.29.39q.07.56.18 1.15a.91.89-88.2 0 0 .67.73q15.64 3.99 19.45 4.7 1.67.32 4.17-.17a1.28 1.26-35 0 1 .88.15l3.51 2.02a2.1 2.05 66.2 0 0 .55.22l14.39 3.27a1.55 1.54-47.7 0 0 .81-.04l2.46-.8a.57.57 0 0 1 .75.53q.02.79.15 1.24a.94.94 0 0 0 1.83-.11l1.12-6.43.62.02q-.03.33.06.55a.47.47 0 0 0 .83.11q2.46-3.53 6.28-2.72a2.76 2.7-20.4 0 1 .97.43c3.85 2.76 5.43 5.75 10.7 6.18 2.51.2 3.01.91 3.24 3.27a.55.55 0 0 0 .83.42q1.32-.77 2.61-.92a1.36 1.36 0 0 0 .97-.56q2.25-3.03 6.58-2.94a1.99 1.99 0 0 1 1.89 1.55l.51 2.23a3.14 3.01-70.4 0 0 .5 1.11q2.07 2.86 4.84 5.04 4.42 3.48 8.58 7.1l1.1 3.62a1.22 1.19-78.8 0 0 .33.51l24.91 22.79a1.01.99 64.9 0 0 .73.27c3.5-.15 6.64-1.06 10.2-1.21q3.17-.13 6.49-.21-.82.74-1.21 1.45-.49.89-.71.97-.61.23-1.29-.07a.43.41 37.5 0 0-.44.05q-.08.06-.16.31a.32.31-80.8 0 0 .29.41q.92.01.78 1.46a.39.39 0 0 1-.59.3q-.51-.29-.74-1.07a.45.45 0 0 0-.7-.23q-.65.49-.73.81a.61.6 14.5 0 0 .43.72q1.03.3 1.27.6a.82.8 64.1 0 0 .81.29q1.14-.24 2.12.8a.4.4 0 0 0 .68-.32q-.19-1.78.27-3.18a.45.45 0 0 1 .69-.23q1.02.72 1.99.36.68 1.18.48 2.51a.55.55 0 0 0 .99.41l.72-.96a.51.51 0 0 1 .84.05l1.39 2.3a2.14 2.1-87.2 0 0 .57.64q2.04 1.54 4.11 4.63a3.12 3.05 1 0 0 .86.87q1.65 1.1 2.63 2.82a.63.57 8.6 0 0 .13.16l7.83 6.85a1.22 1.2-68.3 0 1 .42 1l-.26 4.44a.22.21-56.6 0 1-.41.09l-1.59-3.31a.85.81 5 0 0-.3-.34q-1.74-1.08-3.18-.16l-16.32-16.5a.45.44 44.6 0 0-.63 0q-.8.84-1.97.05a.82.81-38.9 0 0-.79-.08c-5.25 2.23-10.28 1.97-16.36 1.93q-1.22-.01-1.67.79a.64.63 4.6 0 1-.37.31q-2.77.85-4.67.11a1.43 1.36 44.8 0 0-.97-.02q-2.4.87-4.77.2a.13.13 0 0 0-.16.16q.04.15.1.21a.33.33 0 0 1-.16.55l-5.68 1.29a.3.29 85.7 0 1-.36-.31q.02-.29.02-.3a.31.3 77.8 0 0-.4-.26q-1.57.52-2.27-1.21a.43.43 0 0 0-.73-.11l-1.23 1.54q-1.11-1.17-1.99-1.47-.45-.03-.6-.19a.57.5-21.7 0 1 .43-.85q.87-.09 1.75.47a.72.71-55.4 0 0 .96-.18l.29-.38a.44.44 0 0 0-.41-.7l-5.67.76-1.4-.11a.76.75 14.6 0 0-.76.44c-.33.74-.88 1.2-1.76 1.24q-4.69.16-7.26 1.32a1.23 1.21-45.3 0 1-.98.01q-.78-.33-2.06.03-1.03.3-2.5.45-2.64.27-5.56 1.35a.27.26-27.3 0 0-.13.39l.35.53a.02.02 0 0 0 .03.01q4.85-2.01 9.84-1.69a1.9 1.77-54.2 0 0 .91-.18q3.13-1.44 6.41.09 1.78-.27 2.66.29a.27.27 0 0 1-.18.49q-4.69-.66-8.26.62a4.39 4.38-53.9 0 1-1.65.26l-3.52-.14a2.62 2.27 35 0 0-.77.08q-8.34 2.12-17.93 2.78a.05.05 0 0 1-.05-.07q.05-.12.08-.32a.26.26 0 0 0-.25-.3l-1.57-.09a.45.45 0 0 0-.46.58q.05.17.04.26a.54.54 0 0 1-.7.44q-1.62-.54-2.17-2.3 2.88-.55 3.26-5.65a.88.87 20.9 0 0-.35-.77l-1.85-1.4a1.1 1.1 0 0 0-1.7.52q-.35 1.04-.78 1.8c-.9 1.59-2.32.56-3.15-.35a.58.57-40.1 0 0-.79-.06q-1.31 1.03-1.4 1.36-.24.9 1.06 1.22 1.32.32 2.29 2.03.33.59-.16.87l-1.53-.64a.26.26 0 0 0-.34.35q.01.02.98.33a.6.6 0 0 1 .4.69l-.48 2.12a1.35 1.34-85.1 0 1-1.23 1.04l-12.85.85a.72.6 28.7 0 0-.26.05c-4.2 1.47-9.15 1.2-12.61 1.61a.21.21 0 0 1-.22-.13q-.04-.08-.1-.16a.63.62-28.3 0 0-.61-.18q-1.37.36-1.85-.35-.32-.47-.78-.4-.48.08-.72.38a.49.47-47.7 0 0 .02.61q.11.13.38.29a.61.23-12.2 0 1-.71.46q-1.17.07-1.71.26a1.13 1.11-32.9 0 1-1.16-.24q-.76-.72-1.35.19-.18.29-2.41.89-4.36 1.18-7.37 1.03a7.57 7.4-51.8 0 0-2.59.34q-.97.31-7.62 1.53-1.9.35-3.57-.16a.59.59 0 0 1-.4-.46q-.02-.08-.02-.1a.53.53 0 0 0-.84-.3q-1.04.8-1.64.45a.6.59-54.5 0 0-.77.13q-1.07 1.28-2.61.86a.26.24-61.6 0 0-.27.09l-4.74 6.3a1.84 1.83 47.8 0 1-3.04-.15q-.27-.45-.71-1.38a2.16 1.87 61.9 0 0-2.8-1.08q-1.41.87-2.78 1.12a1.72 1.71 85.2 0 1-2.02-1.71q.04-2.74 1.08-3.59a.66.66 0 0 0-.44-1.16q-2.88.06-5.39 1.02a.75.74 38.7 0 0 .16 1.43q1.24.19 3.44-.53a.31.31 0 0 1 .4.3v.26a.09.08 80.3 0 1-.05.08q-3.34 1.21-6.75.54a.7.68-85.9 0 1-.56-.66q-.05-1.54-1.24-1.33-4.14.74-10.12 1.33a1.17 1.16 3.4 0 0-1.03.91l-.01.05a.69.69 0 0 0 .68.85q2.18-.02 3.92-.77a.53.53 0 0 1 .64.17q.34.45.42 1.25a.3.3 0 0 1-.45.29l-1.05-.6a1.13 1.13 0 0 0-1.09-.02q-1.43.75-2.97.68a.53.52-1.8 0 0-.55.58c.08.68.52 1.41.49 2.21q-.34 9.4-.17 12.16.03.66-.37.72-.29.04-.79-.47a.17.17 0 0 0-.29.09q-.01.09-.02.11a1.22 1.19 4.8 0 1-.71.59q-1.07.34-4.8.48-12.46.47-20.99-.7-.19-.03-.33.01a.14.14 0 0 0 .01.27q.57.13.6.19a.49.48-8.5 0 1-.5.67q-2.72-.31-4.54-1.78a.48.48 0 0 1 .33-.86l4.65.27a.16.16 0 0 0 .17-.17v-.01a.2.2 0 0 0-.19-.19l-1.51-.03a.34.34 0 0 1-.34-.37l.45-7.73a.7.69-88.4 0 0-.69-.74q-2.83-.03-8.85.11-.54.01-1.36.21c-1.21.3-2.01-.46-3.43.04q-2.46.86-4.27.07a.62.62 0 0 0-.84.37q-.21.6-.89.67a.7.69-5.9 0 0-.62.75q.11 1.23-.89 2.45a.4.4 0 0 1-.59.02q-1.19-1.19-2.23-.02a.43.43 0 0 1-.75-.29q0-1.08-.42-1.36a.69.67 38.5 0 0-.87.09q-.7.73-.35 1.47a.98.97 76.6 0 0 .87.54q.04 0 .21-.04a.6.6 0 0 1 .74.49q.35 2.43-.64 5.58a.52.51 18.9 0 1-.68.33q-.72-.28-1.06-1.12a.75.74 80.2 0 0-.66-.47l-2.63-.16a.71.71 0 0 1-.63-.45q-.65-1.58-.52-2.87a.26.25 88.3 0 0-.29-.28h-.01a.14.14 0 0 0-.11.17q.22.92-.26 1.44a.61.61 0 0 1-.72.14q-.43-.22-.77.09a.52.52 0 0 1-.83-.2q-.73-1.84 1.02-3.08a.25.25 0 0 1 .39.19l.03.38a.45.44 4.3 0 0 .36.41q.26.05.43-.01a.32.32 0 0 0 .23-.31q.01-2.1-1.06-3.55a.27.27 0 0 1 .23-.43l.61.03a.61.61 0 0 0 .56-.3q.27-.47-.09-1.03-.24-.37-.71-.38-.68 0-.87-.06a.62.62 0 0 1-.36-.84q.55-1.19-1.42-1.98a.61.61 0 0 1 .06-1.15q.18-.06.71.01-.9-.08-1.73.2a.17.17 0 0 1-.22-.1q-.04-.12-.13-.2a.14.14 0 0 0-.23.08c-.17 1.16.22 1.73.24 2.66a.58.58 0 0 1-.63.59 20.48 20.48 0 0 1-4.38-.81q-1.92-.55-2.44 1.07a.51.5-69.4 0 1-.68.31q-.86-.37-1.5-.28a1.49 1.49 0 0 0-.9.49q-1.93 2.15-3.4 2.18-5.42.13-6.27.02a.92.91-68.4 0 0-.86.38q-1.06 1.52-3.27 2.06a1.57 1.49-71.6 0 0-.66.35l-3.27 3.06a.53.53 0 0 0 .23.9c3.02.75 2.6-3.2 5.6-3.41a1.87 1.86-62.7 0 0 .87-.28l2.1-1.29a1.25 1.25 0 0 1 1.06-.12q2.54.85 5.58-.23a.63.63 0 0 1 .82.44l.03.1a.45.45 0 0 1-.27.5l-5.98 2.31a1.06 1.02-50.9 0 1-.49.06q-2.97-.35-4.7.98a.51.51 0 0 0 .34.91l2.78-.18a.38.37 75.4 0 1 .37.22l.12.24a.45.45 0 0 1-.32.63l-3.32.67a1.02.81 17.9 0 0-.24.09q-2.7 1.55-5.52 1.68a.32.31-23.9 0 0-.21.54q1.12 1.12 2.4.97c1.58-.17 2.91-1.34 5.61-.85q1.96.35 3.76-.51a1.77 1.76 36.6 0 1 1.05-.15q2.19.4 3.97-.02a.22.14 31.7 0 1 .09 0l6.07 1.15a.36.36 0 0 1-.05.71l-6.53.43a.49.49 0 0 0-.46.5q.01 1.21-.15 1.41-.45.56-1.77.03-1.31-.52-2.68.15a.92.9 34.3 0 1-.51.09l-4.35-.4a.34.34 0 0 0-.29.57q.92 1.03 2.45.46.43-.15.6-.07.45.21.2.63a.35.35 0 0 0 .28.53l5.46.32a1.47 1.46 16.3 0 0 1.38-.75q.96-1.69 2.15-1.4a.57.57 0 0 1 .12 1.06q-1.11.56-1.88 1.62a.25.25 0 0 0 .08.37q.09.04.09.05a.63.63 0 0 1 .1.64q-.6 1.55-1.97 1.78a.47.47 0 0 0-.32.71q.08.12.09.16a.61.61 0 0 1-.61.81l-1.68-.08a.73.72-85.9 0 1-.69-.8q.08-.68.06-.71a.27.27 0 0 0-.49.15q0 .14.05.36a.64.64 0 0 1-.56.76q-1.27.12-2.41-.21a1.62 1.58-49.2 0 0-1.19.1q-1.55.76-3.1.93a.55.54-78.1 0 1-.53-.82l.46-.79a.35.35 0 0 0-.27-.52q-.62-.06-.91.9a1 .95-43.8 0 1-1.89.01q-.28-1.32-1.39-1.65l-1.42-5.94q.1-2.21-1.11-5.96a1.51 1.5-6.9 0 0-1.33-1.04q-1.82-.13-4.23.78l-.88-.95q2.3-1.06 4.76-1.08a.44.44 0 0 0 .13-.86q-2.42-.81-5.83.2 1.35-2.31 3.92-3.78a1.57 1.57 0 0 0-.63-2.93c-2.07-.19-3.87.23-6.16.18q-6.93-.13-13.21-.91a1.87 1.87 0 0 1-1.64-1.83q-.04-2.92-.51-4.24-.67-1.9-.56-4.07.12-2.24-1.43-5.53-1-2.12-3.23-1.12a1.27 1.26 79.9 0 0-.74 1.07l-.98 16.79a.8.3-65.3 0 1-.01.13l-.63 5.89a1.15 1.13 76.5 0 1-.52.86q-1.93 1.23-3.85 1.86-7.25 2.4-15.43 3.85c-1.98.36-4.21.19-5.92 1.02a1.15 1.09 28 0 1-.36.1l-10.17.69a1.16.8 36.9 0 1-.25-.01l-3.31-.59a2.31 2.09 64.3 0 1-.81-.33l-5.5-3.61 5.76 1.17a.58.58 0 0 0 .68-.45q.17-.78-.19-1.41-.27-.47-1.38-.25-.62.12-1.73.09a.91.8 13.8 0 1-.84-1.2q.42-.75-.38-1.23-1.75-1.04-1.93.47a.44.44 0 0 1-.65.33l-4.36-2.42a2.07 2.06-28.4 0 0-.88-.26q-.01 0-7.1-2.16a1.77 1.71-17 0 1-.53-.27l-7.71-5.97q-.24-12.09.27-24.87.06-1.52-.62-3.05-.48-1.09-.23-4.88a.59.59 0 0 1 .59-.56h7.1a.78.77 7.9 0 0 .75-.56l1.83-6.3a.24.17 79.1 0 1 .03-.07c1.07-1.68.23-3.35.98-4.64q.21-.37.43-3.02a1.23 1.21 21.3 0 0-.48-1.08l-4.24-3.18a3.11 3.11 0 0 0-3.99.2q-4.5 4.18-8.93 6.39-2.04 1.02-7.57 1.5a.59.59 0 0 1-.64-.65q.56-5.51.62-9.03.07-3.84-2.76-3.66c-1.5.09-1.64-1.16-2.92-.95q-.5.08-2.14-.64-1.76-.76-3.88-.34l-.41-6.51a3.88 3.61-43 0 1 .07-.98l.82-3.79q1.02-2.47 1.89-5.22 1.77-5.62 3.6-9.95c.79-1.89 2.11-3.8 3.92-5.13q4.93-3.65 12.28-6.19 4.17-1.45 8.15-5.01-.97 2.05-2.9 3.34-1.53 1.02-.95 2.61a.67.66-35.5 0 0 1.14.19l5.72-7.06q2.99-3.66 4.44-8.22a.39.39 0 0 1 .74 0q.25.84.92.96a.5.48-55.2 0 0 .34-.07l.75-.5a.78.76 51.8 0 1 .99.13q4.48 4.85 12.74 10.95a.61.6 21.6 0 0 .96-.41q.12-1.04-.72-2.73a.88.87 50.8 0 1 .09-.92q.9-1.21 2.22-1.13a2.14 2.12 31.9 0 0 1.23-.28q4.61-2.64 8.4-2.47a.56.56 0 0 0 .58-.56V94.63a.73.72 9.7 0 0-.49-.68q-3.77-1.28-7.7-4.42a.3.3 0 0 1 .21-.53l1.91.11a1.21 1.2-4.7 0 0 1.25-1.47l-.8-3.49a.86.86 0 0 0-.48-.6l-.24-.12q.03-.24.15-.42.1-.17.35-.25 5.35-1.82 10.5-4.51 1.58.09.73-2.74a1.53 1.28 25.8 0 0-.14-.31l-5.89-10.86q.49-.08.36-.58-.16-.67-.63-.66c-.21-.56.02-1.11.54-1.43 3.04-1.89 6.38-4.47 9.98-5.08a1.31 1.3-21.5 0 1 1.32.57l.72 1.1a1.64 1.64 0 0 0 1.84.67l3.19-.96a.7.65 33 0 1 .23-.04l5.28-.2a2.44 2.43-9.8 0 1 2.4 1.69q1.4 4.45 1.13 7.48c-.25 2.94 1.25 5.87.89 9.27a1.07 1.07 0 0 0 .33.88c.97.91 1.75 1.56 1.47 3.11-.52 2.9 2.95 2.54 5.2 2.6a2.71 2.58-31.4 0 1 .88.19q1.61.69 3.39.66 5.13-.1 9.86.19-1.79 2.96.24 5.14.34.37.2.66-.19.38-.6.4-.66.02-.94.53-.39.73-.18 1.23.28.65 1.05.29 1.14-.55 3.12.9.67.48 1.9 1.96a.3.3 0 0 0 .53-.22q-.09-1.41.36-2.42a1.63 1.54 9.1 0 0-1.66-2.16q-.89.06-1.7-.53a1 .96 18.9 0 1-.41-.79l-.01-4.51q3.09.08 6.25.5c3.14.42 3.65 2.25 3.84 5.32q.2 3.07 3.53 4.53 2.36 1.04 3.71.97 1.23-.06 1.87.6a.8.78-21.3 0 0 .57.24h7.42a2.85 2.79-33.8 0 1 1.02.19q3.85 1.48 7.54 3.42.03.01 2.58.64 1.65.4 2.11.66 1.31.75 1.99.63c1.37-.23 1.88 1.26 3.26.93 1.45-.36 2.18 1.07 3.83.95q4.03-.3 5.59.61a.45.45 0 0 0 .67-.3q.07-.37.67-1.15a2.06 2.03 62 0 0 .42-1.41q-.39-4.95.65-9.63a7.08 7.03 51.5 0 0 .17-1.54c.05-7.72-.24-11.79.61-18.55q.55-4.29.34-12.28a13.21 12.45-43.3 0 1 .12-2.02q.99-6.95.8-12.52a4.29 4.15 51.6 0 1 .11-1.12q1.1-5 .87-11a.94.93 8.5 0 0-.62-.83q-3.53-1.2-4.59-4.55c-.72-2.27-.03-5.14-1.09-7.58a1.86 1.85 33.5 0 1-.15-.73v-4.12a1.03 1.01-61.8 0 0-.16-.55l-5.33-8.11a.87.86-13.5 0 1 .82-1.33l5.06.56a2.15 2.14 63.6 0 1 .91.31q4.34 2.69 7.09 2.43 4.79-.46 5.68-4.21.47-1.99-1.76-4.24h8.82zM78.34 74.61a.08.08 0 0 0 .04-.11l-6.57-13.67a.48.47-25.2 0 0-.63-.22l-.25.13a.37.36-25.5 0 0-.18.49l6.51 13.54a.33.32 64.6 0 0 .43.16l.65-.32zm4.27 1.11q.06.94.52 1.9a.38.38 0 0 0 .69 0q.45-1-.14-2.19a.56.56 0 0 0-1.07.29zm8.76 13.57q.79 8.3.11 15.48a7.36 6.77-35.9 0 1-.31 1.52c-1.34 4.11-.98 6.1-1.07 11.27a1.05 1.05 0 0 0 .06.35l.97 2.62a.78.78 0 0 0 .83.5l9.37-1.22a2.24 2.24 0 0 0 1.52-.89q2.03-2.76 5.39-5.75.9-.81 1.31-2.05a1.6 1.55-10.5 0 1 .54-.76l1.1-.84a.86.82-16.2 0 0 .33-.57q.61-4.66.21-5.94a.71.6-54.5 0 1-.02-.23l.64-6.25a.89.87-51.6 0 0-.04-.37q-.6-1.58.16-2.85a1.25 1.24-36.1 0 0 .15-.94q-.58-2.44.04-5.28a.59.59 0 0 0-.65-.71l-17.12 2.23q-.02 0-.04 0l-3.12.26a.39.39 0 0 0-.36.42zm-9.45 1.26a1.5 1.5 0 0 0-2.13-1.61l-4.27 2.05a.93.93 0 0 0-.51.68l-.73 4.24a1.47 1.46 31.4 0 0 .28 1.14c.92 1.21 2.98 2.67 3.95.57a.45.45 0 0 1 .73-.12q.37.4.43.54a.55.53-41.1 0 0 .95.05q.54-.87.8-1.65a.52.52 0 0 0-.53-.69q-.23.01-.26.01a.92.92 0 0 1-.71-.78l-.26-2.17a.24.24 0 0 0-.46-.04q-.53 1.73-1.54 2a.53.52 81.9 0 1-.66-.5q-.03-1.99.95-3.32a1.61 1.59 9.9 0 1 .84-.58q1.57-.47 1.97.78a.55.55 0 0 0 1.07-.08l.09-.52zm3.52.43q-.5 1.18-2.15 1.93a.9.88-11.5 0 0-.51.75l-.66 11.25a.38.38 0 0 0 .29.38l5.08 1.16a.11.11 0 0 0 .13-.1l.42-11.78a1.02.95 43 0 0-.01-.14l-.36-3.13a1.17 1.16 53.1 0 0-2.23-.32zM71.6 92.46q-1.24.07-2.17.65a.99.98-14.3 0 0-.47.78l-.3 5.2a.39.39 0 0 0 .37.42l.36.02a.4.4 0 0 0 .43-.38q.22-3.69 2.05-6.18a.32.32 0 0 0-.27-.51zm56.34 13.04l-.22.79a1.03 1.03 0 0 1-.36.54l-1.41 1.17a1.03 1.03 0 0 0-.36 1q.31 1.49-.62 3.19a.69.69 0 0 1-1.28-.19q-.33-1.61-2.11-4a.82.81-44 0 1 .02-.99q.29-.35.28-.99a.35.35 0 0 0-.68-.13q-.12.31-.11.9 0-.57-.2-1.02a.49.49 0 0 0-.53-.27l-.29.05 2.04-1.95a.26.26 0 0 0 0-.38l-.32-.29a.38.37-42.4 0 0-.48-.02l-2.55 1.95a1.49 1.49 0 0 0-.1 2.28l2.9 2.66a1.04 1.04 0 0 1 .35.8q-.03 1.32.63 2.36 2.02 3.21.1 5.86c-.68.93-.95 1.89-.67 2.85a.6.6 0 0 0 1.17-.04q.03-.15-.03-1.67a.3.3 0 0 1 .25-.31l.34-.04a.14.14 0 0 1 .16.12l.71 5.51a1.31 1.3-68.4 0 0 .26.61q1.96 2.47 5.74 2.91a1.48 1.44-18.3 0 1 .88.43q.52.55.6.6a.521.521 0 0 0 .69-.78l-.87-.96a.36.35 50.8 0 1 .05-.52l.26-.21a.6.59-33 0 1 .88.18q1.52 2.67 4.71 1.82a.63.63 0 0 0 .37-.94q-.57-.88-.69-1.81-.09-.68.61-.61.47.05.81.86a.03.03 0 0 0 .05 0q.13-.31.03-.45a.1.1 0 0 1 .07-.16l1.2-.15a.32.3-4.1 0 1 .36.3q0 .2.02.32a.36.36 0 0 0 .54.24q.56-.36 1.83-.17a.36.35 7.7 0 0 .41-.31l.02-.16a.32.31 6.8 0 0-.29-.36q-1.57-.14-2.27-.48a.89.88 47 0 0-.73-.03c-1.37.54-2.55-.77-3.27-1.8a1.08 1.07 66.2 0 0-1.09-.43q-.88.17-1.78-.56a.47.47 0 0 1 .04-.76q.59-.37.84-.26a.97.86 71.5 0 0 .71-1.68q-1.01-.74-1.23.03-.38 1.32-1.05 2.34-.07.11-.45 3.57a.79.79 0 0 1-.68.69l-.41.05a.65.65 0 0 1-.71-.84q.66-2.01-.73-3.7.17-.2.33-.4.97-.7.14-1.67a.63.62-5.7 0 1 .78-.95q.33.18.76.14a.35.35 0 0 0 .23-.57l-1.52-1.74a.54.5 26 0 1-.13-.34l-.09-2.12a.2.2 0 0 0-.35-.13l-.18.21a.39.38 71.4 0 1-.66-.33q.34-1.88 1.29-2.29a.55.55 0 0 0 .28-.74q-.82-1.77-2.19-2.82-.52-.41-.52-.97 0-.55.29-1.14l.02-1.51a.84.83 80.2 0 1 .54-.77q.72-.27 1.19-.65a.64.6 32.2 0 0-.28-1.07q-.34-.09-.69.02a.76.75 1.6 0 0-.48.45l-1.12 2.83zm26.33.99l1.36-2.86a.67.67 0 0 0-1.02-.81q-1.9 1.52-2.36 3.25a.31.3 9.2 0 0 .28.38l1.63.1a.14.13-72.6 0 0 .11-.06zm-9.8-.6q-.47 1.8 2.3-.07a.41.4-46 0 0-.01-.68q-1.4-.88-1.95.39l-.96-1.38a.32.32 0 0 0-.59.18q-.01 1.43 1.21 1.56zm-8.87 3.88q.72-1.7 1.85-1.69a.65.64 21.9 0 0 .5-.21l1.98-2.17a.4.38 42.9 0 0-.03-.55l-.2-.18a.4.4 0 0 0-.58.04q-1.91 2.4-4.69 4.08a1.03 1.02-49.9 0 0 .15 1.83q.54.21 1.33.94a.55.55 0 0 0 .86-.65q-.3-.62-.89-.81a.48.47-69.6 0 1-.28-.63zm11.86 3.61l1.22.07a.54.54 0 0 0 .55-.68q-.25-.97-1.37-1.86a.45.45 0 0 0-.63.63q.88 1.11.19 1.69a.09.08-61 0 0 .04.15zm-32.13 3.82q-.51-1.29-1.61-.27l-.11-.39a.43.43 0 0 0-.76-.13q-.91 1.29.2 3.11a1.54 1.53 50.5 0 0 2.45.24l3.04-3.31a1.05 1.05 0 0 0-.78-1.76q-1.42 0-3.36.84a.45.44-29.5 0 0-.19.67q.13.18.67.11a.5.5 0 0 1 .56.49q.01.2-.11.4zm29.469-2.046a.63.63 0 0 0-.891-.003l-.057.056a.63.63 0 0 0-.003.891l2.213 2.228a.63.63 0 0 0 .891.003l.057-.056a.63.63 0 0 0 .003-.891l-2.213-2.228zM47.72 119.18q-3.67 1.64-1.17 4.82a1.6 1.53 28.3 0 1 .34 1.05q-.09 1.88.62 3.75a.98.97 89.2 0 0 .58.57c1.16.41 1.97-.52 3.35-.08q2.91.91 4.44 1.18a.35.35 0 0 0 .31-.59q-2.32-2.28-2.39-2.38-.79-1.16.03-1.55a.13.13 0 0 0-.02-.24q-.27-.07-.21-.46a.29.29 0 0 1 .13-.2l.59-.39a.23.23 0 0 0-.08-.42q-.98-.19-2.01-.2l-.27-1.39a.79.78 4 0 1 1.03-.89l1.45.5a.38.38 0 0 0 .51-.41l-.59-4.5a.9.9 0 0 0-1.01-.78l-5.75.75a.44.44 0 0 0-.27.14q-.59.69.39 1.72zm18.56 7.08a1.85 1.84 72.9 0 0-1.53-.82h-1.44a.87.86-11.1 0 1-.8-.53q-1.24-2.95-3.89-2.97a1.4 1.39-84.9 0 0-1.38 1.16l-.03.18a1.16 1.16 0 0 0 1.03 1.35q.9.1 2.28 1.15 1.72 1.31 5.8 2.35a.57.57 0 0 0 .62-.87l-.66-1zm79.63 5.18q-.41-1.07 1.1-1.64a.68.68 0 0 0 .44-.74l-.47-3.62a.63.63 0 0 0-1.22-.13q-.38 1-1.27 1.88a.6.6 0 0 0-.02.82q.75.85.17 1.88a.76.75 36.2 0 0 .15.93l.87.8a.16.16 0 0 0 .25-.18zm116.861-3.251a1.03.71-165.9 0 0 .826.94 1.03.71-165.9 0 0 1.172-.438 1.03.71-165.9 0 0-.826-.939 1.03.71-165.9 0 0-1.172.438zM38.51 131.19c.96 1.23 1.54 1.97 3.32 2.19q4.08.5 5.92.84a.67.67 0 0 0 .68-1.03l-.82-1.25a2.52 2.5-10.3 0 0-1.56-1.07c-2.38-.33-4.75-3.39-7.31-.72q-.57.59-.23 1.04zm33.95 1.55l-6.42-4.04a.1.1 0 0 0-.14.03l-.01.03a3.09 1.67 32.2 0 0 1.72 3.06l1.36.85a3.09 1.67 32.2 0 0 3.5.23l.02-.02a.1.1 0 0 0-.03-.14zm.46 4.07a1.31 1.31 0 0 0 .91 1.95l11.37 1.95a.73.73 0 0 0 .84-.89l-1.23-5.4a3.81 3.8-86.9 0 0-2.46-2.75l-7.61-2.66a1.02 1.02 0 0 0-1.13 1.61c1.64 2.03 5.36 5.3 8.01 4.2a1.02 1.02 0 0 1 .73-.02l1.44.5a.47.46 14.6 0 1 .31.52l-.05.29a.63.62-77.4 0 1-.78.5q-1.95-.53-3.92.25a1.14 1.1 48.5 0 1-.98-.08l-2.58-1.49a1.73 1.73 0 0 0-2.36.63l-.51.89zm81.462-3.687a.77.58-95.1 0 0-.509.819.77.58-95.1 0 0 .646.715.77.58-95.1 0 0 .509-.819.77.58-95.1 0 0-.646-.715zm-9.672 3.567q-.01-.01-.24-.06a1.09 1.02-55.8 0 1-.29-1.89q.93-.69 1.37.04a.58.49-71.2 0 1 .09.23q.21 1.05.58 1.4a.51.5 15.1 0 0 .84-.48q-.31-1.35-1.66-2.33a.9.88 50.7 0 0-.86-.1q-1.57.67-2.33 2.04a.65.65 0 0 0 .17.82q1.24.94 1.91 1.07a.45.45 0 0 0 .42-.74zm214.71 4.82q.57-.23.62-.74a.63.62-2.4 0 0-.74-.68q-1.33.26-2.27 1.1a.51.51 0 0 0 0 .75l9.42 8.63a.57.56-47.6 0 0 .79-.04l.2-.23a.3.3 0 0 0-.02-.43l-8.16-7.47a.54.54 0 0 1 .16-.89zM32.48 149.4l1.13-1.24a.88.84-67.7 0 1 .63-.28h3.11a1.55 1.52 26.6 0 0 .9-.29q1.43-1.04 1.89-2.16a.54.54 0 0 0-.34-.72q-5.98-1.85-7.85 4.39a.31.31 0 0 0 .53.3zm19.641-5.21a1.93 1.03-73.4 0 0-1.538 1.555 1.93 1.03-73.4 0 0 .436 2.144 1.93 1.03-73.4 0 0 1.538-1.555 1.93 1.03-73.4 0 0-.436-2.144zm158.683 1.447a2.02 1.18-95 0 0-.999 2.115 2.02 1.18-95 0 0 1.352 1.909 2.02 1.18-95 0 0 .999-2.115 2.02 1.18-95 0 0-1.352-1.91zm-4.346 1.668a1.45 1.12-128.5 0 0 .026 1.832 1.45 1.12-128.5 0 0 1.779.438 1.45 1.12-128.5 0 0-.026-1.832 1.45 1.12-128.5 0 0-1.779-.438zM171.9 151.01q-.03.9-1.38.64a.71.71 0 0 0-.79.43q-.55 1.4-.4 2.51a.96.96 0 0 1-.59 1.02q-1.13.45-1.66 1.36a1.13 1.11-78.4 0 1-.83.56l-2.34.3a.48.48 0 0 0-.35.73q.6.99 1.91.89a1.09 1.09 0 0 0 .76-.38q.98-1.15 1.83-1.57a.51.51 0 0 1 .73.36q.88 4.83-2.8 7.95a1.98 1.39-81.5 0 0-.19.2l-5.96 7.8a.19.18 62.2 0 0-.04.14q.22 1.22-.28 3.16a1.35 1.35 0 0 1-1.31 1.02h-4.01a.1.1 0 0 0-.1.13l.24.81a.12.1 77.6 0 0 .1.08l6.61.39a.57.56-89.1 0 0 .59-.58q-.08-2.83 1.94-3.82a.8.79 63.8 0 0 .36-1.07q-.44-.86.14-2.08a1.23 1.21 89.5 0 1 .56-.58q2.52-1.31 3.37-5.04a.14.12-88.9 0 1 .09-.1l.53-.15a.31.3-5.2 0 1 .39.32q-.43 4.39-.11 8.81.04.53-.71 1.05a.24.23 68.5 0 0-.09.22q.05.3.38.37a.37.34-57.7 0 0 .26-.07q.9-.69 1.51-.45.5.2.56.88.18 2.01 1.1 1.05a.45.12-75.1 0 0 .04-.07l.13-.37a.9.88-82.8 0 1 .76-.6c2.88-.26 5.12.68 7.64.96q4.61.53 8.32 1.3a2.85 2.77-42.4 0 0 .97.03q2.33-.3 4.45.91a1.01.98 58.9 0 0 .49.13h7.08a3.15 3.13-60.7 0 0 1.65-.47l1.6-1a.83.71-63.8 0 1 .23-.1l2.43-.65a1.1 1.09 85.9 0 0 .81-.95l.55-5.46a1.52 1.45 43.6 0 0-.02-.42q-.82-4.06.14-6.98.49-1.46-.05-2.43a1.15 1.12-54.5 0 1-.12-.77q.58-3.27.11-5.3a2.84 2.84 0 0 0-2.93-2.19q-4.52.29-8.8-1.58a.87.87 0 0 1-.52-.84l.08-1.28a.36.36 0 0 0-.59-.29q-.84.74-.79 1.75a.44.44 0 0 1-.24.42q-.44.21-.73-.07-.19-.18-.89-.45-.77-.3-.48-.95a.46.46 0 0 0-.24-.6q-.41-.16-.93.22a.72.7-14.6 0 0-.29.48q-.07.46-.22.56a.54.54 0 0 1-.45.07q-2.48-.77-5.25-.65a1.97 1.97 0 0 1-1.1-.27q-3.82-2.16-8.34-1.09a2.57 2.45 19.8 0 0-.86.38q-1.8 1.22-3.1.9a.46.45-82.3 0 0-.56.43zm175 6.73l11.58 2.63a.28.28 0 0 0 .33-.21l.1-.45a.29.29 0 0 0-.22-.35l-9.27-2.21a1.76 1.6-21.1 0 1-.36-.14l-1.23-.71a.56.55 29.6 0 0-.76.2l-.41.7a.37.36 21.3 0 0 .24.54zM250 189.96q.34-.18.41-.17a.98.94 35 0 1 .37 1.84q-.9.34-1.77-.52a.89.88 58.9 0 0-.86-.22q-.12.03-.56.06-.46.04-.62-.43-.11-.32-.07-.66a.32.32 0 0 0-.28-.37h-.02a.27.26-82.8 0 0-.3.24c-.17 1.45.18 2.71 1.96 2.97q4.78.7 13.27 1.87a.55.54-85.9 0 0 .62-.54v-.8a.66.65 83.1 0 0-.81-.64q-1.92.47-2.84-1.92a.6.6 0 0 1 .34-.78q.62-.24 1.21-1.01a1.63 1.62-71.4 0 1 1.3-.65h1.41a1.04 1.04 0 0 0 .84-.43q2.09-2.99.95-5.75a1.16 1.15-46.6 0 1-.02-.83q.72-1.95.09-3.56a1.76 1.58-58 0 1-.12-.68q.09-4.94.43-5.76a1.66 1.62-40.1 0 0 .09-.92q-.46-2.54.38-4.89a.72.71-85.9 0 0-.81-.94q-3.83.75-6.66-.73a1.46 1.44 54.3 0 0-.93-.16q-.84.14-1.18.07-4.67-.99-17.06-3.32a3.72 3.71-50.7 0 0-2.08.21l-5.78 2.34a.87.85-11.3 0 0-.54.79v20.88a1.11 1.1 5.4 0 0 .9 1.08l9.75 1.87a.84.81-45.8 0 0 .38-.01q.73-.18 1.13-.07 3.53.98 6.14 1.31a.67.67 0 0 1 .59.68q0 .26.01.27a.53.53 0 0 0 .74.28zM57.25 169.3q.01-.16-.79-1.04-2.05-2.25-4.54-3.29a.9.89 49.8 0 1 .14-1.7l1.94-.44a.96.96 0 0 0-.16-1.9l-6.24-.37a.92.91 16.5 0 0-.84.45l-.98 1.7a.82.82 0 0 0 .25 1.08q.84.58.28 1.27a.48.47-57.2 0 0 .15.72q4.83 2.48 10.68 3.71a.12.08-79.8 0 0 .1-.11q0-.04.01-.08zm257.05 20.03q-.07.17-.09.25a.07.07 0 0 1-.13 0q-.16-.76-.63-1.16-.08-.06-.17-1.32-.43-5.79.12-10.81a2.16 2.15-82.2 0 0-1.77-2.35l-8.76-1.5a1.15 1.15 0 0 1-.93-1.32l.62-3.58a.46.44 38.2 0 0-.04-.29l-.66-1.37a.51.51 0 0 1 .48-.73q.76.02.63-.45a.6.57-23.5 0 0-.87-.32q-2.34 1.37-4.81 1.75a.3.29 53.4 0 0-.08.56q1.75.83 2.89-.23a.45.44-36.5 0 1 .7.1q.32.58.86.99a.5.49-49.2 0 1 .05.75c-3.05 3-6.58 2.86-10.55 1.68a1.72 1.7 39.7 0 0-1.27.11q-3.81 1.87-5.54 2.67-.3.14-.6.55-.26.36-.05.75.21.39.19 1.16-.18 7.49-.05 8.79.35 3.6-.05 4.32a1.3 1.29-41.8 0 0-.07 1.15q.6 1.48.31 3.62a.93.92-84.5 0 0 .86 1.05l4.04.24a.67.66-62 0 1 .36 1.19l-.99.75a1.47 1.45 38.6 0 1-1.51.16q-2.5-1.2-5.27.66a.28.27-67 0 0 .2.5q4.75-.89 7.67-1.04.57-.02.66-.36.09-.37.08-.81a.87.86.9 0 1 .92-.89q.02 0 1.69 1.64a.29.29 0 0 0 .49-.25q-.11-.75-.11-.78a.89.89 0 0 1 1.72-.31q.07.19.11 1.2a.31.31 0 0 0 .54.19c1.36-1.6 2.04-.48 3.5-.64q1.8-.2 1.93-1.43.05-.56.4-.56.3 0 .7.15.27.1.3.63.03.54.4.5 3.71-.37 11.1-1.53a.69.68-4.5 0 0 .58-.67v-3.34a.051.051 0 0 0-.1-.02zm-210.71-19.69q0 .24-.02.36a.66.66 0 0 1-.84.53q-.97-.29-1.86.05a.53.53 0 0 0 .06 1.01q2.14.52 4.11.17a.75.75 0 0 0 .17-1.42q-.71-.31-1.15-.86a.26.26 0 0 0-.47.16zm23.83 9.36l.02-.32a.86.85 80.9 0 1 .54-.75c2.76-1.1 4.43-.03 7 .01a.71.71 0 0 0 .73-.67l.05-.74a1.33 1.33 0 0 0-1.25-1.4l-9.44-.55a.71.7 71.1 0 0-.57 1.17q1.09 1.24 2.29 1.93a1.87 1.83 5.4 0 1 .83.98q.23.61-.1.49a.15.14 13 0 1-.1-.15zm-33.24-1.5l-1.52.35a.58.58 0 0 0-.37.87q.35.57.34.78a.78.77-5.4 0 1-.63.76q-5.54 1.04-10.02 5.66a.36.34 62.6 0 0-.09.32l.28 1.24a.21.21 0 0 0 .33.11q5.31-4.18 10.68-6.37a.67.65 89.2 0 0 .37-.39l1.01-2.9a.33.33 0 0 0-.38-.43zm46.05 3.65q-4.89-.75-11.46-.48-1.32.05-1.33 1.26a.77.73-8.5 0 0 .99.69q1.99-.59 4.21-.05a.79.74 46.9 0 0 .3.02l7.36-.74a.27.27 0 0 0 .22-.17l.03-.09a.38.38 0 0 0-.32-.44zm16.32.82q-.27.6.5 1.51 1.17 1.38 3.22 1.36 1.76-.02 1.89-.31.13-.28-1-1.63-1.33-1.56-3.15-1.54-1.19.01-1.46.61zm183.84 3.98q.97.52 1.43.4a.61.57-38.9 0 0 .15-1.1q-.79-.35-1.58.06a.36.36 0 0 0 0 .64zm-180.57 6.47a.51.46-47.7 0 0-.77.08q-.26.38-.11.64a.52.46-49 0 0 .86-.11q.19-.4.02-.61zm-75.855 1.265a.56.56 0 0 0-.072-.789l-.031-.026a.56.56 0 0 0-.789.072l-3.559 4.272a.56.56 0 0 0 .072.789l.031.026a.56.56 0 0 0 .789-.072l3.559-4.272zm239.889 1.245a1.71.5-11.8 0 0-1.776-.14 1.71.5-11.8 0 0-1.572.839 1.71.5-11.8 0 0 1.776.14 1.71.5-11.8 0 0 1.572-.839zm-107.944 6.1l.22-1.28a.55.54 14.2 0 0-.37-.61q-.28-.09-.58-.08-.55.02-.55.64.01.54.82 1.46a.27.26-60.5 0 0 .46-.13zm40.45 4.27q-.5-.16-1.01-.06a.75.75 0 0 0-.23 1.39q1.37.79 1.59.36a1.3.94-65.8 0 0-.35-1.69zm-210.77 5.69q-.26-.2-.21-.33a.39.37-3.6 0 1 .23-.25q.37-.14.67-.39a.68.67-32.4 0 0 .19-.82l-1.12-2.33a.89.89 0 0 0-1.54-.11q-1.09 1.63-3.4 1.65a.72.72 0 0 0-.67.49q-.24.71.09 1.22a.74.73 61.5 0 0 .89.27q2.04-.87 2.4.48a.69.69 0 0 0 .76.51l1.67-.21a.1.1 0 0 0 .04-.18zm209.05-1.25q.57.26 1.46-.43a.64.63-55.9 0 0-.21-1.11q-.2-.05-.48-.18-.28-.13-.45-.23a.64.63-75.7 0 0-.97.57q.07 1.12.65 1.38zm-32.64 6.8q-.53-2.39-.14-2.94a.42.42 0 0 0-.37-.66l-1.85.11a.35.35 0 0 0-.27.54l2.09 3.18a.3.3 0 0 0 .54-.23zM44.97 213.1l-3.89 1.97a.15.15 0 0 0-.07.2l.02.04a2.19 2.15-26.8 0 0 2.92.93l.25-.13a2.19 2.15-26.8 0 0 .99-2.91l-.02-.03a.15.15 0 0 0-.2-.07zm12.37 1.95q-.15.57-.69 1.01a.74.73 56.3 0 0-.18.91q.75 1.37 2.63.48a1.21 1.21 0 0 0 .08-2.14l-1.03-.6a.55.54 21.9 0 0-.81.34zm147.99 5.07q-.11 1.15.75 2.07a.37.36-64.8 0 0 .63-.23l.38-6.38a.43.43 0 0 0-.61-.41l-.7.34a.03.03 0 0 0-.02.04q.53 2.58.06 4.64a.09.09 0 0 1-.13.06q-.12-.05-.23-.17a.08.07 27.5 0 0-.13.04zm16.31 4.46l-6.08-7.96a.67.67 0 0 0-1.12.07l-4.49 7.78a.37.37 0 0 0 .32.56h11.14a.28.28 0 0 0 .23-.45zm-173.61-4.46a.67.66-10.3 0 0-.85-.58q-1.99.58-1.62 1.47a1.4 1.26-53.5 0 0 2.5-.5q0-.02-.03-.39zm10.92 6.03l1.32.3a.64.64 0 0 0 .51-1.14q-.75-.53-1.91-.04a.47.46-50.3 0 0 .08.88zm3.36 3.43q-.48-.79-1.65-.5a.42.41 57 0 0-.15.73q.2.17 1.45.31a.36.36 0 0 0 .35-.54zm77.18 6.62q-.99-.05-1.67-.08-1.2-.05-1.74-.32-2.97-1.45-5.42-1.86a.43.43 0 0 0-.41.68l.38.49a2.03 2.02 77.4 0 0 1.17.75l6.65 1.47a1.97 1.92 45.7 0 0 .78.02q.23-.03.56-.33a.47.47 0 0 0-.3-.82zm-2.113 2.078a1.38.58-8 0 0-1.447-.382 1.38.58-8 0 0-1.286.767 1.38.58-8 0 0 1.447.382 1.38.58-8 0 0 1.286-.767z" class="C"/><path d="M78.34 74.61l-.65.32a.33.32 64.6 0 1-.43-.16l-6.51-13.54a.37.36-25.5 0 1 .18-.49l.25-.13a.48.47-25.2 0 1 .63.22l6.57 13.67a.08.08 0 0 1-.04.11zM67.23 64.34q-.31-.64-.27-1.24.47-.01.63.66.13.5-.36.58z" class="E"/><path d="M71.18 77.48l-7.99 3.7a.78.66-76.2 0 0-.25.18q-.52.58-1.13.69l-7.09-7.61 5.36-5.31a1.14 1.13 21.1 0 1 .75-.33q1.37-.07 2.85 1.28 3.63 3.33 7.5 7.4z" class="C"/><path d="M54.72 74.44l7.09 7.61q-.76.22-1.07-.02-1.95-1.53-6.9-5.93l.88-1.66zm27.89 1.28a.56.56 0 0 1 1.07-.29q.59 1.19.14 2.19a.38.38 0 0 1-.69 0q-.46-.96-.52-1.9z" class="B"/><path d="M53.84 76.1q4.95 4.4 6.9 5.93.31.24 1.07.02.61-.11 1.13-.69a.78.66-76.2 0 1 .25-.18l7.99-3.7q.24-.04 1.35.77-5.15 2.69-10.5 4.51-.25.08-.35.25-.12.18-.15.42-1.95.57-2.48-.33.15-.05.26-.09a.31.31 0 0 0 .1-.49q-2.64-3-6.43-4.94.35-1.44.86-1.48z" class="D"/><path d="M59.05 83.1l-6.07-5.52q3.79 1.94 6.43 4.94a.31.31 0 0 1-.1.49q-.11.04-.26.09z" class="C"/><path d="M115.61 83.8l1.9.48.01 4.51a1 .96 18.9 0 0 .41.79q.81.59 1.7.53a1.63 1.54 9.1 0 1 1.66 2.16q-.45 1.01-.36 2.42a.3.3 0 0 1-.53.22q-1.23-1.48-1.9-1.96-1.98-1.45-3.12-.9-.77.36-1.05-.29-.21-.5.18-1.23.28-.51.94-.53.41-.02.6-.4.14-.29-.2-.66-2.03-2.18-.24-5.14z" class="B"/><path d="M91.73 88.87l3.12-.26q.02 0 .04 0l17.12-2.23a.59.59 0 0 1 .65.71q-.62 2.84-.04 5.28a1.25 1.24-36.1 0 1-.15.94q-.76 1.27-.16 2.85a.89.87-51.6 0 1 .04.37l-.64 6.25a.71.6-54.5 0 0 .02.23q.4 1.28-.21 5.94a.86.82-16.2 0 1-.33.57l-1.1.84a1.6 1.55-10.5 0 0-.54.76q-.41 1.24-1.31 2.05-3.36 2.99-5.39 5.75a2.24 2.24 0 0 1-1.52.89l-9.37 1.22a.78.78 0 0 1-.83-.5l-.97-2.62a1.05 1.05 0 0 1-.06-.35c.09-5.17-.27-7.16 1.07-11.27a7.36 6.77-35.9 0 0 .31-1.52q.68-7.18-.11-15.48a.39.39 0 0 1 .36-.42z" class="E"/><path d="M81.92 90.55l-.09.52a.55.55 0 0 1-1.07.08q-.4-1.25-1.97-.78a1.61 1.59 9.9 0 0-.84.58q-.98 1.33-.95 3.32a.53.52 81.9 0 0 .66.5q1.01-.27 1.54-2a.24.24 0 0 1 .46.04l.26 2.17a.92.92 0 0 0 .71.78q.03 0 .26-.01a.52.52 0 0 1 .53.69q-.26.78-.8 1.65a.55.53-41.1 0 1-.95-.05q-.06-.14-.43-.54a.45.45 0 0 0-.73.12c-.97 2.1-3.03.64-3.95-.57a1.47 1.46 31.4 0 1-.28-1.14l.73-4.24a.93.93 0 0 1 .51-.68l4.27-2.05a1.5 1.5 0 0 1 2.13 1.61zm3.52.43a1.17 1.16 53.1 0 1 2.23.32l.36 3.13a1.02.95 43 0 1 .01.14l-.42 11.78a.11.11 0 0 1-.13.1l-5.08-1.16a.38.38 0 0 1-.29-.38l.66-11.25a.9.88-11.5 0 1 .51-.75q1.65-.75 2.15-1.93zm-13.57 1.99q-1.83 2.49-2.05 6.18a.4.4 0 0 1-.43.38l-.36-.02a.39.39 0 0 1-.37-.42l.3-5.2a.99.98-14.3 0 1 .47-.78q.93-.58 2.17-.65a.32.32 0 0 1 .27.51z" class="B"/><ellipse cx="0" cy="0" transform="matrix(.829038 -.559193 .559193 .829038 39.89 100.56)" rx=".61" ry=".49" class="C"/><path d="M128.76 106.2l-.29.13a.22.22 0 0 1-.29-.13l-.24-.7 1.12-2.83a.76.75 1.6 0 1 .48-.45q.35-.11.69-.02a.64.6 32.2 0 1 .28 1.07q-.47.38-1.19.65a.84.83 80.2 0 0-.54.77l-.02 1.51zm25.51.29a.14.13-72.6 0 1-.11.06l-1.63-.1a.31.3 9.2 0 1-.28-.38q.46-1.73 2.36-3.25a.67.67 0 0 1 1.02.81l-1.36 2.86z" class="B"/><path d="M120.07 105.55q-.88.78-.17 1.25.65.42 1.19-.01-.01-.59.11-.9a.35.35 0 0 1 .68.13q.01.64-.28.99a.82.81-44 0 0-.02.99q1.78 2.39 2.11 4a.69.69 0 0 0 1.28.19q.93-1.7.62-3.19a1.03 1.03 0 0 1 .36-1l1.41-1.17a1.03 1.03 0 0 0 .36-.54l.22-.79.24.7a.22.22 0 0 0 .29.13l.29-.13q-.29.59-.29 1.14 0 .56.52.97 1.37 1.05 2.19 2.82a.55.55 0 0 1-.28.74q-.95.41-1.29 2.29a.39.38 71.4 0 0 .66.33l.18-.21a.2.2 0 0 1 .35.13l.09 2.12a.54.5 26 0 0 .13.34l1.52 1.74a.35.35 0 0 1-.23.57q-.43.04-.76-.14a.63.62-5.7 0 0-.78.95q.83.97-.14 1.67-.92-1.13-2.78-.42a.71.71 0 0 0-.07 1.29q1.83.92 2.52-.47 1.39 1.69.73 3.7a.65.65 0 0 0 .71.84l.41-.05a.79.79 0 0 0 .68-.69q.38-3.46.45-3.57.67-1.02 1.05-2.34.22-.77 1.23-.03a.97.86 71.5 0 1-.71 1.68q-.25-.11-.84.26a.47.47 0 0 0-.04.76q.9.73 1.78.56a1.08 1.07 66.2 0 1 1.09.43c.72 1.03 1.9 2.34 3.27 1.8a.89.88 47 0 1 .73.03q.7.34 2.27.48a.32.31 6.8 0 1 .29.36l-.02.16a.36.35 7.7 0 1-.41.31q-1.27-.19-1.83.17a.36.36 0 0 1-.54-.24q-.02-.12-.02-.32a.32.3-4.1 0 0-.36-.3l-1.2.15a.1.1 0 0 0-.07.16q.1.14-.03.45a.03.03 0 0 1-.05 0q-.34-.81-.81-.86-.7-.07-.61.61.12.93.69 1.81a.63.63 0 0 1-.37.94q-3.19.85-4.71-1.82a.6.59-33 0 0-.88-.18l-.26.21a.36.35 50.8 0 0-.05.52l.87.96a.52.52 0 0 1-.69.78q-.08-.05-.6-.6a1.48 1.44-18.3 0 0-.88-.43q-3.78-.44-5.74-2.91a1.31 1.3-68.4 0 1-.26-.61l-.71-5.51a.14.14 0 0 0-.16-.12l-.34.04a.3.3 0 0 0-.25.31q.06 1.52.03 1.67a.6.6 0 0 1-1.17.04c-.28-.96-.01-1.92.67-2.85q1.92-2.65-.1-5.86-.66-1.04-.63-2.36a1.04 1.04 0 0 0-.35-.8l-2.9-2.66a1.49 1.49 0 0 1 .1-2.28l2.55-1.95a.38.37-42.4 0 1 .48.02l.32.29a.26.26 0 0 1 0 .38l-2.04 1.95zm10.82 22.59l-.21-3.3a1.04 1.04 0 0 0-1.06-.97q-1.17.01-1.26.79a.6.57-57.7 0 0 .06.3q.42.83 1.27 1.04.77.19.92.78.16.66-.6 1.18a.23.23 0 0 0 .12.42l.49.03a.25.25 0 0 0 .27-.27z" class="E"/><path d="M144.81 105.53l-.34.36q-1.22-.13-1.21-1.56a.32.32 0 0 1 .59-.18l.96 1.38zm41.44-1.18q-.63 1.53-1.78 1.33-.2-.49.07-.94.43-.7 1.71-.39z" class="B"/><path d="M144.47 105.89l.34-.36q.55-1.27 1.95-.39a.41.4-46 0 1 .01.68q-2.77 1.87-2.3.07z" class="D"/><path d="M135.88 110.4q.59.19.89.81a.55.55 0 0 1-.86.65q-.79-.73-1.33-.94a1.03 1.02-49.9 0 1-.15-1.83q2.78-1.68 4.69-4.08a.4.4 0 0 1 .58-.04l.2.18a.4.38 42.9 0 1 .03.55l-1.98 2.17a.65.64 21.9 0 1-.5.21q-1.13-.01-1.85 1.69a.48.47-69.6 0 0 .28.63z" class="B"/><path d="M121.09 106.79q-.54.43-1.19.01-.71-.47.17-1.25l.29-.05a.49.49 0 0 1 .53.27q.2.45.2 1.02z" class="D"/><path d="M34.19 110.32l-5.72 7.06a.67.66-35.5 0 1-1.14-.19q-.58-1.59.95-2.61 1.93-1.29 2.9-3.34 1.31-.74 3.01-.92z" class="B"/><path d="M147.42 113.23q.69-.58-.19-1.69a.45.45 0 0 1 .63-.63q1.12.89 1.37 1.86a.54.54 0 0 1-.55.68l-1.22-.07a.09.08-61 0 1-.04-.15z" class="D"/><g class="B"><path d="M113.72 116.93q-.01.52.14.86.19.45.69.43.64-.02.78-1.02.12-.2.11-.4a.5.5 0 0 0-.56-.49q-.54.07-.67-.11a.45.44-29.5 0 1 .19-.67q1.94-.84 3.36-.84a1.05 1.05 0 0 1 .78 1.76l-3.04 3.31a1.54 1.53 50.5 0 1-2.45-.24q-1.11-1.82-.2-3.11a.43.43 0 0 1 .76.13l.11.39z"/><rect x="-.67" y="-2.2" transform="matrix(.709571 -.704634 .704634 .709571 145.43 116.74)" width="1.34" height="4.4" rx=".63"/></g><path d="M52.23 124.04q-2.87-1.92-4.51-4.86-.98-1.03-.39-1.72a.44.44 0 0 1 .27-.14l5.75-.75a.9.9 0 0 1 1.01.78l.59 4.5a.38.38 0 0 1-.51.41l-1.45-.5a.79.78 4 0 0-1.03.89l.27 1.39z" class="E"/><path d="M115.33 117.2q-.14 1-.78 1.02-.5.02-.69-.43-.15-.34-.14-.86 1.1-1.02 1.61.27zm-63.1 6.84q1.03.01 2.01.2a.23.23 0 0 1 .08.42l-.59.39a.29.29 0 0 0-.13.2q-.06.39.21.46a.13.13 0 0 1 .02.24q-.82.39-.03 1.55.07.1 2.39 2.38a.35.35 0 0 1-.31.59q-1.53-.27-4.44-1.18c-1.38-.44-2.19.49-3.35.08a.98.97 89.2 0 1-.58-.57q-.71-1.87-.62-3.75a1.6 1.53 28.3 0 0-.34-1.05q-2.5-3.18 1.17-4.82 1.64 2.94 4.51 4.86z" class="D"/><path d="M130.63 121.66q-.16.2-.33.4-.69 1.39-2.52.47a.71.71 0 0 1 .07-1.29q1.86-.71 2.78.42z" class="B"/><path d="M66.32 128.13q-4.08-1.04-5.8-2.35-1.38-1.05-2.28-1.15a1.16 1.16 0 0 1-1.03-1.35l.03-.18a1.4 1.39-84.9 0 1 1.38-1.16q2.65.02 3.89 2.97a.87.86-11.1 0 0 .8.53h1.44a1.85 1.84 72.9 0 1 1.53.82l.66 1a.57.57 0 0 1-.62.87z" class="D"/><path d="M130.62 128.41l-.49-.03a.23.23 0 0 1-.12-.42q.76-.52.6-1.18-.15-.59-.92-.78-.85-.21-1.27-1.04a.6.57-57.7 0 1-.06-.3q.09-.78 1.26-.79a1.04 1.04 0 0 1 1.06.97l.21 3.3a.25.25 0 0 1-.27.27z" class="C"/><path d="M145.66 131.62l-.87-.8a.76.75 36.2 0 1-.15-.93q.58-1.03-.17-1.88a.6.6 0 0 1 .02-.82q.89-.88 1.27-1.88a.63.63 0 0 1 1.22.13l.47 3.62a.68.68 0 0 1-.44.74q-1.51.57-1.1 1.64a.16.16 0 0 1-.25.18z" class="B"/><g class="D"><path d="M272.48 127.61q-.04 1.69-.67 3.22a.61.61 0 0 1-1.08.09l-2.33-3.72q2.06.76 4.08.41z"/><ellipse cx="0" cy="0" transform="matrix(-.969872 -.243615 .243615 -.969872 263.77 128.44)" rx="1.03" ry=".71"/></g><path d="M38.51 131.19q-.34-.45.23-1.04c2.56-2.67 4.93.39 7.31.72a2.52 2.5-10.3 0 1 1.56 1.07l.82 1.25a.67.67 0 0 1-.68 1.03q-1.84-.34-5.92-.84c-1.78-.22-2.36-.96-3.32-2.19z" class="E"/><path d="M72.46 132.74a.1.1 0 0 1 .03.14l-.02.02a3.09 1.67 32.2 0 1-3.5-.23l-1.36-.85a3.09 1.67 32.2 0 1-1.72-3.06l.01-.03a.1.1 0 0 1 .14-.03l6.42 4.04zm.46 4.07l.51-.89a1.73 1.73 0 0 1 2.36-.63l2.58 1.49a1.14 1.1 48.5 0 0 .98.08q1.97-.78 3.92-.25a.63.62-77.4 0 0 .78-.5l.05-.29a.47.46 14.6 0 0-.31-.52l-1.44-.5a1.02 1.02 0 0 0-.73.02c-2.65 1.1-6.37-2.17-8.01-4.2a1.02 1.02 0 0 1 1.13-1.61l7.61 2.66a3.81 3.8-86.9 0 1 2.46 2.75l1.23 5.4a.73.73 0 0 1-.84.89l-11.37-1.95a1.31 1.31 0 0 1-.91-1.95zm252.78-3.82l-.62-.02q-.05-.53.15-.94a.26.26 0 0 1 .48.02q.11.28-.01.94z" class="D"/><g class="B"><ellipse cx="0" cy="0" transform="matrix(-.088894 -.996041 .996041 -.088894 154.45 133.89)" rx=".77" ry=".58"/><path d="M144.71 136.69a.45.45 0 0 1-.42.74q-.67-.13-1.91-1.07a.65.65 0 0 1-.17-.82q.76-1.37 2.33-2.04a.9.88 50.7 0 1 .86.1q1.35.98 1.66 2.33a.51.5 15.1 0 1-.84.48q-.37-.35-.58-1.4a.58.49-71.2 0 0-.09-.23q-.44-.73-1.37-.04a1.09 1.02-55.8 0 0 .29 1.89q.23.05.24.06z"/></g><path d="M399.47 133.31l-1.24 40.42a.24.24 0 0 1-.28.23l-.94-.16a.05.05 0 0 1-.04-.05l-.22-5.73q.71-14.61.93-29.29.03-2.11.3-4.2.09-.67 1.49-1.22z" class="C"/><path d="M451.17 212.97l-5.57-4.76a.82.82 0 0 0-1.34.73l.29 2.22a2.33 2.31-72.6 0 0 .73 1.41l3.54 3.24a.64.63-47.8 0 0 .9-.05q.98-1.11 1.56-2.53.59 1.5 1.85 2.79.06 1.77-2.48 3.38l-13.81-14.36q1.44-.92 3.18.16a.85.81 5 0 1 .3.34l1.59 3.31a.22.21-56.6 0 0 .41-.09l.26-4.44a1.22 1.2-68.3 0 0-.42-1l-7.83-6.85a.63.57 8.6 0 1-.13-.16q-.98-1.72-2.63-2.82a3.12 3.05 1 0 1-.86-.87q-2.07-3.09-4.11-4.63a2.14 2.1-87.2 0 1-.57-.64l-1.39-2.3a.51.51 0 0 0-.84-.05l-.72.96a.55.55 0 0 1-.99-.41q.2-1.33-.48-2.51-.29-2.33-2.76-3.43-3.32.08-6.49.21c-3.56.15-6.7 1.06-10.2 1.21a1.01.99 64.9 0 1-.73-.27l-24.91-22.79a1.22 1.19-78.8 0 1-.33-.51l-1.1-3.62 19.77 18.65a.81.8 25.7 0 0 1.35-.47l.54-4 .22 5.73a.05.05 0 0 0 .04.05l.94.16a.24.24 0 0 0 .28-.23l1.24-40.42 15.83 14.95a1.25 1.23 22.1 0 1 .39.9q-.06 25.03.05 28.32.02.62.36 1.14a1.27 1.23-45.1 0 0 2.09-.04c2.07-3.16.57-6.86.93-10.01a1.05 1.05 0 0 1 1.75-.66l11.49 10.52a4.97 4.97 0 0 1 1.62 3.65c.03 3.02-.11 6.26.63 9.4q.34 1.43.44 3.95.08 2.14 2.07 1.98a1.54 1.5-30.8 0 1 .92.22q3.87 2.41 9.93 8.64 2.99 3.09 3.2 6.7zm-49.16-69.587a1.12.65-117.1 0 0-.068 1.293 1.12.65-117.1 0 0 1.089.701 1.12.65-117.1 0 0 .068-1.293 1.12.65-117.1 0 0-1.089-.701zm9.17 8.684a.92.54-115.1 0 0-.099 1.062.92.54-115.1 0 0 .879.604.92.54-115.1 0 0 .099-1.062.92.54-115.1 0 0-.879-.604zm-9.61 11.698a1.02.77-118.7 0 0-.186 1.264 1.02.77-118.7 0 0 1.165.525 1.02.77-118.7 0 0 .186-1.264 1.02.77-118.7 0 0-1.165-.525zm9.409 8.46a1.02.57-110.7 0 0-.173 1.156 1.02.57-110.7 0 0 .894.753 1.02.57-110.7 0 0 .173-1.156 1.02.57-110.7 0 0-.894-.753zm12.001 5.524q.01-.62-.24-1.18a.72.66-35.7 0 0-1.13-.14q-.58.58.78 1.61a.37.37 0 0 0 .59-.29zm6.758 6.142a1.09.75-132.9 0 0 .193 1.309 1.09.75-132.9 0 0 1.291.288 1.09.75-132.9 0 0-.193-1.309 1.09.75-132.9 0 0-1.291-.288z" class="D"/><path d="M359.26 142.4l8.16 7.47a.3.3 0 0 1 .02.43l-.2.23a.57.56-47.6 0 1-.79.04l-9.42-8.63a.51.51 0 0 1 0-.75q.94-.84 2.27-1.1a.63.62-2.4 0 1 .74.68q-.05.51-.62.74a.54.54 0 0 0-.16.89z" class="B"/><path d="M1.34 142.74l-.82 3.79a3.88 3.61-43 0 0-.07.98l.41 6.51-.86-1.4v-8.49q.52-.85 1.34-1.39z" class="D"/><ellipse cx="0" cy="0" transform="matrix(-.455545 -.890213 .890213 -.455545 402.52 144.38)" rx="1.12" ry=".65" class="B"/><path d="M31.95 149.1q1.87-6.24 7.85-4.39a.54.54 0 0 1 .34.72q-.46 1.12-1.89 2.16a1.55 1.52 26.6 0 1-.9.29h-3.11a.88.84-67.7 0 0-.63.28l-1.13 1.24a.31.31 0 0 1-.53-.3z" class="E"/><g class="B"><ellipse cx="0" cy="0" transform="matrix(.285688 -.958323 .958323 .285688 51.57 146.04)" rx="1.93" ry="1.03"/><ellipse cx="0" cy="0" transform="matrix(-.087156 -.996195 .996195 -.087156 210.98 147.65)" rx="2.02" ry="1.18"/><ellipse cx="0" cy="0" transform="matrix(-.622515 -.782608 .782608 -.622515 207.36 148.44)" rx="1.45" ry="1.12"/></g><path d="M172.46 150.58q1.3.32 3.1-.9a2.57 2.45 19.8 0 1 .86-.38q4.52-1.07 8.34 1.09a1.97 1.97 0 0 0 1.1.27q2.77-.12 5.25.65a.54.54 0 0 0 .45-.07q.15-.1.22-.56a.72.7-14.6 0 1 .29-.48q.52-.38.93-.22a.46.46 0 0 1 .24.6q-.29.65.48.95.7.27.89.45.29.28.73.07a.44.44 0 0 0 .24-.42q-.05-1.01.79-1.75a.36.36 0 0 1 .59.29l-.08 1.28a.87.87 0 0 0 .52.84q4.28 1.87 8.8 1.58a2.84 2.84 0 0 1 2.93 2.19q.47 2.03-.11 5.3a1.15 1.12-54.5 0 0 .12.77q.54.97.05 2.43-.96 2.92-.14 6.98a1.52 1.45 43.6 0 1 .02.42l-.55 5.46a1.1 1.09 85.9 0 1-.81.95l-2.43.65a.83.71-63.8 0 0-.23.1l-1.6 1a3.15 3.13-60.7 0 1-1.65.47h-7.08a1.01.98 58.9 0 1-.49-.13q-2.12-1.21-4.45-.91a2.85 2.77-42.4 0 1-.97-.03q-3.71-.77-8.32-1.3c-2.52-.28-4.76-1.22-7.64-.96a.9.88-82.8 0 0-.76.6l-.13.37a.45.12-75.1 0 1-.04.07q-.92.96-1.1-1.05-.06-.68-.56-.88-.61-.24-1.51.45a.37.34-57.7 0 1-.26.07q-.33-.07-.38-.37a.24.23 68.5 0 1 .09-.22q.75-.52.71-1.05-.32-4.42.11-8.81a.31.3-5.2 0 0-.39-.32l-.53.15a.14.12-88.9 0 0-.09.1q-.85 3.73-3.37 5.04a1.23 1.21 89.5 0 0-.56.58q-.58 1.22-.14 2.08a.8.79 63.8 0 1-.36 1.07q-2.02.99-1.94 3.82a.57.56-89.1 0 1-.59.58l-6.61-.39a.12.1 77.6 0 1-.1-.08l-.24-.81a.1.1 0 0 1 .1-.13h4.01a1.35 1.35 0 0 0 1.31-1.02q.5-1.94.28-3.16a.19.18 62.2 0 1 .04-.14l5.96-7.8a1.98 1.39-81.5 0 1 .19-.2q3.68-3.12 2.8-7.95a.51.51 0 0 0-.73-.36q-.85.42-1.83 1.57a1.09 1.09 0 0 1-.76.38q-1.31.1-1.91-.89a.48.48 0 0 1 .35-.73l2.34-.3a1.13 1.11-78.4 0 0 .83-.56q.53-.91 1.66-1.36a.96.96 0 0 0 .59-1.02q-.15-1.11.4-2.51a.71.71 0 0 1 .79-.43q1.35.26 1.38-.64a.46.45-82.3 0 1 .56-.43z" class="D"/><ellipse cx="0" cy="0" transform="matrix(-.424199 -.905569 .905569 -.424199 411.57 152.9)" rx=".92" ry=".54" class="B"/><path d="M346.9 157.74a.37.36 21.3 0 1-.24-.54l.41-.7a.56.55 29.6 0 1 .76-.2l1.23.71a1.76 1.6-21.1 0 0 .36.14l9.27 2.21a.29.29 0 0 1 .22.35l-.1.45a.28.28 0 0 1-.33.21l-11.58-2.63zm-97.64 31.94q-.01-.01-.01-.27a.67.67 0 0 0-.59-.68q-2.61-.33-6.14-1.31-.4-.11-1.13.07a.84.81-45.8 0 1-.38.01l-9.75-1.87a1.11 1.1 5.4 0 1-.9-1.08v-20.88a.87.85-11.3 0 1 .54-.79l5.78-2.34a3.72 3.71-50.7 0 1 2.08-.21q12.39 2.33 17.06 3.32.34.07 1.18-.07a1.46 1.44 54.3 0 1 .93.16q2.83 1.48 6.66.73a.72.71-85.9 0 1 .81.94q-.84 2.35-.38 4.89a1.66 1.62-40.1 0 1-.09.92q-.34.82-.43 5.76a1.76 1.58-58 0 0 .12.68q.63 1.61-.09 3.56a1.16 1.15-46.6 0 0 .02.83q1.14 2.76-.95 5.75a1.04 1.04 0 0 1-.84.43h-1.41a1.63 1.62-71.4 0 0-1.3.65q-.59.77-1.21 1.01a.6.6 0 0 0-.34.78q.92 2.39 2.84 1.92a.66.65 83.1 0 1 .81.64v.8a.55.54-85.9 0 1-.62.54q-8.49-1.17-13.27-1.87c-1.78-.26-2.13-1.52-1.96-2.97a.27.26-82.8 0 1 .3-.24h.02a.32.32 0 0 1 .28.37q-.04.34.07.66.16.47.62.43.44-.03.56-.06a.89.88 58.9 0 1 .86.22q.87.86 1.77.52a.98.94 35 0 0-.37-1.84q-.07-.01-.41.17a.53.53 0 0 1-.74-.28zm7.53.51l-3.51-1.23a.38.38 0 0 0-.46.52l1.19 2.46a.71.71 0 0 0 .84.38q.99-.29 2.1-1.53a.37.37 0 0 0-.16-.6z" class="D"/><path d="M57.25 169.3q-.01.04-.01.08a.12.08-79.8 0 1-.1.11q-5.85-1.23-10.68-3.71a.48.47-57.2 0 1-.15-.72q.56-.69-.28-1.27a.82.82 0 0 1-.25-1.08l.98-1.7a.92.91 16.5 0 1 .84-.45l6.24.37a.96.96 0 0 1 .16 1.9l-1.94.44a.9.89 49.8 0 0-.14 1.7q2.49 1.04 4.54 3.29.8.88.79 1.04z" class="E"/><ellipse cx="0" cy="0" transform="matrix(-.480223 -.877146 .877146 -.480223 402.06 164.66)" rx="1.02" ry=".77" class="B"/><path d="M314.4 189.35v3.34a.69.68-4.5 0 1-.58.67q-7.39 1.16-11.1 1.53-.37.04-.4-.5-.03-.53-.3-.63-.4-.15-.7-.15-.35 0-.4.56-.13 1.23-1.93 1.43c-1.46.16-2.14-.96-3.5.64a.31.31 0 0 1-.54-.19q-.04-1.01-.11-1.2a.89.89 0 0 0-1.72.31q0 .03.11.78a.29.29 0 0 1-.49.25q-1.67-1.64-1.69-1.64a.87.86.9 0 0-.92.89q.01.44-.08.81-.09.34-.66.36-2.92.15-7.67 1.04a.28.27-67 0 1-.2-.5q2.77-1.86 5.27-.66a1.47 1.45 38.6 0 0 1.51-.16l.99-.75a.67.66-62 0 0-.36-1.19l-4.04-.24a.93.92-84.5 0 1-.86-1.05q.29-2.14-.31-3.62a1.3 1.29-41.8 0 1 .07-1.15q.4-.72.05-4.32-.13-1.3.05-8.79.02-.77-.19-1.16-.21-.39.05-.75.3-.41.6-.55 1.73-.8 5.54-2.67a1.72 1.7 39.7 0 1 1.27-.11c3.97 1.18 7.5 1.32 10.55-1.68a.5.49-49.2 0 0-.05-.75q-.54-.41-.86-.99a.45.44-36.5 0 0-.7-.1q-1.14 1.06-2.89.23a.3.29 53.4 0 1 .08-.56q2.47-.38 4.81-1.75a.6.57-23.5 0 1 .87.32q.13.47-.63.45a.51.51 0 0 0-.48.73l.66 1.37a.46.44 38.2 0 1 .04.29l-.62 3.58a1.15 1.15 0 0 0 .93 1.32l8.76 1.5a2.16 2.15-82.2 0 1 1.77 2.35q-.55 5.02-.12 10.81.09 1.26.17 1.32.47.4.63 1.16a.07.07 0 0 0 .13 0q.02-.08.09-.25a.051.051 0 0 1 .1.02zm-210.34-19.87q.44.55 1.15.86a.75.75 0 0 1-.17 1.42q-1.97.35-4.11-.17a.53.53 0 0 1-.06-1.01q.89-.34 1.86-.05a.66.66 0 0 0 .84-.53q.02-.12.02-.36a.26.26 0 0 1 .47-.16z" class="D"/><g class="B"><ellipse cx="0" cy="0" transform="matrix(-.353475 -.935444 .935444 -.353475 411.34 173.18)" rx="1.02" ry=".57"/><path d="M127.52 179.15q.33.12.1-.49a1.87 1.83 5.4 0 0-.83-.98q-1.2-.69-2.29-1.93a.71.7 71.1 0 1 .57-1.17l9.44.55a1.33 1.33 0 0 1 1.25 1.4l-.05.74a.71.71 0 0 1-.73.67c-2.57-.04-4.24-1.11-7-.01a.86.85 80.9 0 0-.54.75l-.02.32a.15.14 13 0 0 .1.15zm295.46-1.4a.37.37 0 0 1-.59.29q-1.36-1.03-.78-1.61a.72.66-35.7 0 1 1.13.14q.25.56.24 1.18zm-328.42.18l-1.01 2.9a.67.65 89.2 0 1-.37.39q-5.37 2.19-10.68 6.37a.21.21 0 0 1-.33-.11l-.28-1.24a.36.34 62.6 0 1 .09-.32q4.48-4.62 10.02-5.66a.78.77-5.4 0 0 .63-.76q.01-.21-.34-.78a.58.58 0 0 1 .37-.87l1.52-.35a.33.33 0 0 1 .38.43zm327.05 5.11q-.97.36-1.99-.36a.45.45 0 0 0-.69.23q-.46 1.4-.27 3.18a.4.4 0 0 1-.68.32q-.98-1.04-2.12-.8a.82.8 64.1 0 1-.81-.29q-.24-.3-1.27-.6a.61.6 14.5 0 1-.43-.72q.08-.32.73-.81a.45.45 0 0 1 .7.23q.23.78.74 1.07a.39.39 0 0 0 .59-.3q.14-1.45-.78-1.46a.32.31-80.8 0 1-.29-.41q.08-.25.16-.31a.43.41 37.5 0 1 .44-.05q.68.3 1.29.07.22-.08.71-.97.39-.71 1.21-1.45 2.47 1.1 2.76 3.43zm-281.38-1.89a.38.38 0 0 1 .32.44l-.03.09a.27.27 0 0 1-.22.17l-7.36.74a.79.74 46.9 0 1-.3-.02q-2.22-.54-4.21.05a.77.73-8.5 0 1-.99-.69q.01-1.21 1.33-1.26 6.57-.27 11.46.48zm21.93 3.38q-.13.29-1.89.31-2.05.02-3.22-1.36-.77-.91-.5-1.51.27-.6 1.46-.61 1.82-.02 3.15 1.54 1.13 1.35 1 1.63z"/><ellipse cx="0" cy="0" transform="matrix(-.680721 -.732543 .732543 -.680721 430.48 184.69)" rx="1.09" ry=".75"/></g><path d="M340.39 185.31q.79-.41 1.58-.06a.61.57-38.9 0 1-.15 1.1q-.46.12-1.43-.4a.36.36 0 0 1 0-.64z" class="D"/><path d="M436.84 205.04l13.81 14.36q2.98 3.42 6.22 6.48 1.47 1.38 2.88 4.29-1.33.76-2.7.47l-.98-.2a.45.44 7.5 0 1-.36-.46l.06-1.02a.35.35 0 0 0-.42-.36q-.96.19-2.72-.17a2.04 1.9 47 0 0-.28-.02l-30.97 2.03a.33.32 2.1 0 0-.3.27v.02a.4.39 89.2 0 0 .39.39c2.76.03 7.85-.48 9.52.31q.85.39 1.32-.24a1.43 1.42-71.1 0 1 1.13-.56q2.29 0 7.8-.54 1.38-.13 1.86.16a.69.68 35.1 0 0 .87-.15q.64-.75 1.89-.36c1.75.55 2.35-1.01 4.52-.12a1.81 1.79 45.4 0 0 1.32.02q2.37-.9 1.69 1.14l-6.07.88-46.37 3.35-1.79-.25q3.09-1.51 4.84-1.53 2.1-.01 2.8-.37.11-.09.26-.12a.33.32 6.7 0 0 .24-.18q.32-.66-.25-.72-.41-.21-.83-.23-20.11-.66-39.86 3.15-5.01-.18-7.11.02-7.33.69-20.18 1.73-2.03.16-3.54.08c-2.45-.12-4.26 1.05-6.13.53q-.74-.21-2.72 0-9.66 1.04-20.11 1.49a.69.69 0 0 0-.57 1.02l.49.88-8.47.42q.36-1.52 2.29-.77a.5.49 18 0 0 .66-.33q.06-.24.02-.39a.55.54 80.2 0 0-.56-.4q-13.96.92-24.24 1.98c-2.08.21-3.96-.2-5.64.49a2.8 2.74-55.9 0 1-1.08.22q-9.64 0-21.21 1.4-1.21.15-6.26-.25a2.74 2.71 38.9 0 0-.98.1q-2.06.57-2.29.59-11.78.59-17.06 1.4-.77.12-.67 1.74-2.65.56-5.52.15.62-1.21 2.14-1.21a.05.05 0 0 0 .05-.06l-.03-.25a.14.13 83.1 0 0-.14-.12l-6.89.45a.82.82 0 0 1-.87-.86l.25-4.12a.5.5 0 0 0-.47-.52l-.34-.02a.54.53-88 0 0-.57.54v4.6a.5.5 0 0 1-.46.5l-29.37 2.13a2.8 2.68 28.7 0 0-1 .27q-1.16.56-.77 1.39l-2.34.33-3.92-1.3a2.06 1.89-36.8 0 0-.79-.08l-13.68 1.62-11.09-7.53a1.94 1.93-42.9 0 0-2.07-.07l-5.03 2.96-.64-1.54a.62.61 75 0 1 .48-.85l3.62-.47a.31.31 0 0 0 0-.62q-4.38-.61-8.23 2.28-2.88-2.18-3.58-5.98 1.11.33 1.39 1.65a1 .95-43.8 0 0 1.89-.01q.29-.96.91-.9a.35.35 0 0 1 .27.52l-.46.79a.55.54-78.1 0 0 .53.82q1.55-.17 3.1-.93a1.62 1.58-49.2 0 1 1.19-.1q1.14.33 2.41.21a.64.64 0 0 0 .56-.76q-.05-.22-.05-.36a.27.27 0 0 1 .49-.15q.02.03-.06.71a.73.72-85.9 0 0 .69.8l1.68.08a.61.61 0 0 0 .61-.81q-.01-.04-.09-.16a.47.47 0 0 1 .32-.71q1.37-.23 1.97-1.78a.63.63 0 0 0-.1-.64q0-.01-.09-.05a.25.25 0 0 1-.08-.37q.77-1.06 1.88-1.62a.57.57 0 0 0-.12-1.06q-1.19-.29-2.15 1.4a1.47 1.46 16.3 0 1-1.38.75l-5.46-.32a.35.35 0 0 1-.28-.53q.25-.42-.2-.63-.17-.08-.6.07-1.53.57-2.45-.46a.34.34 0 0 1 .29-.57l4.35.4a.92.9 34.3 0 0 .51-.09q1.37-.67 2.68-.15 1.32.53 1.77-.03.16-.2.15-1.41a.49.49 0 0 1 .46-.5l6.53-.43a.36.36 0 0 0 .05-.71l-6.07-1.15a.22.14 31.7 0 0-.09 0q-1.78.42-3.97.02a1.77 1.76 36.6 0 0-1.05.15q-1.8.86-3.76.51c-2.7-.49-4.03.68-5.61.85q-1.28.15-2.4-.97a.32.31-23.9 0 1 .21-.54q2.82-.13 5.52-1.68a1.02.81 17.9 0 1 .24-.09l3.32-.67a.45.45 0 0 0 .32-.63l-.12-.24a.38.37 75.4 0 0-.37-.22l-2.78.18a.51.51 0 0 1-.34-.91q1.73-1.33 4.7-.98a1.06 1.02-50.9 0 0 .49-.06l5.98-2.31a.45.45 0 0 0 .27-.5l-.03-.1a.63.63 0 0 0-.82-.44q-3.04 1.08-5.58.23a1.25 1.25 0 0 0-1.06.12l-2.1 1.29a1.87 1.86-62.7 0 1-.87.28c-3 .21-2.58 4.16-5.6 3.41a.53.53 0 0 1-.23-.9l3.27-3.06a1.57 1.49-71.6 0 1 .66-.35q2.21-.54 3.27-2.06a.92.91-68.4 0 1 .86-.38q.85.11 6.27-.02 1.47-.03 3.4-2.18a1.49 1.49 0 0 1 .9-.49q.64-.09 1.5.28a.51.5-69.4 0 0 .68-.31q.52-1.62 2.44-1.07a20.48 20.48 0 0 0 4.38.81.58.58 0 0 0 .63-.59c-.02-.93-.41-1.5-.24-2.66a.14.14 0 0 1 .23-.08q.09.08.13.2a.17.17 0 0 0 .22.1q.83-.28 1.73-.2-.53-.07-.71-.01a.61.61 0 0 0-.06 1.15q1.97.79 1.42 1.98a.62.62 0 0 0 .36.84q.19.06.87.06.47.01.71.38.36.56.09 1.03a.61.61 0 0 1-.56.3l-.61-.03a.27.27 0 0 0-.23.43q1.07 1.45 1.06 3.55a.32.32 0 0 1-.23.31q-.17.06-.43.01a.45.44 4.3 0 1-.36-.41l-.03-.38a.25.25 0 0 0-.39-.19q-1.75 1.24-1.02 3.08a.52.52 0 0 0 .83.2q.34-.31.77-.09a.61.61 0 0 0 .72-.14q.48-.52.26-1.44a.14.14 0 0 1 .11-.17h.01a.26.25 88.3 0 1 .29.28q-.13 1.29.52 2.87a.71.71 0 0 0 .63.45l2.63.16a.75.74 80.2 0 1 .66.47q.34.84 1.06 1.12a.52.51 18.9 0 0 .68-.33q.99-3.15.64-5.58a.6.6 0 0 0-.74-.49q-.17.04-.21.04a.98.97 76.6 0 1-.87-.54q-.35-.74.35-1.47a.69.67 38.5 0 1 .87-.09q.42.28.42 1.36a.43.43 0 0 0 .75.29q1.04-1.17 2.23.02a.4.4 0 0 0 .59-.02q1-1.22.89-2.45a.7.69-5.9 0 1 .62-.75q.68-.07.89-.67a.62.62 0 0 1 .84-.37q1.81.79 4.27-.07c1.42-.5 2.22.26 3.43-.04q.82-.2 1.36-.21 6.02-.14 8.85-.11a.7.69-88.4 0 1 .69.74l-.45 7.73a.34.34 0 0 0 .34.37l1.51.03a.2.2 0 0 1 .19.19v.01a.16.16 0 0 1-.17.17l-4.65-.27a.48.48 0 0 0-.33.86q1.82 1.47 4.54 1.78a.49.48-8.5 0 0 .5-.67q-.03-.06-.6-.19a.14.14 0 0 1-.01-.27q.14-.04.33-.01 8.53 1.17 20.99.7 3.73-.14 4.8-.48a1.22 1.19 4.8 0 0 .71-.59q.01-.02.02-.11a.17.17 0 0 1 .29-.09q.5.51.79.47.4-.06.37-.72-.17-2.76.17-12.16c.03-.8-.41-1.53-.49-2.21a.53.52-1.8 0 1 .55-.58q1.54.07 2.97-.68a1.13 1.13 0 0 1 1.09.02l1.05.6a.3.3 0 0 0 .45-.29q-.08-.8-.42-1.25a.53.53 0 0 0-.64-.17q-1.74.75-3.92.77a.69.69 0 0 1-.68-.85l.01-.05a1.17 1.16 3.4 0 1 1.03-.91q5.98-.59 10.12-1.33 1.19-.21 1.24 1.33a.7.68-85.9 0 0 .56.66q3.41.67 6.75-.54a.09.08 80.3 0 0 .05-.08v-.26a.31.31 0 0 0-.4-.3q-2.2.72-3.44.53a.75.74 38.7 0 1-.16-1.43q2.51-.96 5.39-1.02a.66.66 0 0 1 .44 1.16q-1.04.85-1.08 3.59a1.72 1.71 85.2 0 0 2.02 1.71q1.37-.25 2.78-1.12a2.16 1.87 61.9 0 1 2.8 1.08q.44.93.71 1.38a1.84 1.83 47.8 0 0 3.04.15l4.74-6.3a.26.24-61.6 0 1 .27-.09q1.54.42 2.61-.86a.6.59-54.5 0 1 .77-.13q.6.35 1.64-.45a.53.53 0 0 1 .84.3q0 .02.02.1a.59.59 0 0 0 .4.46q1.67.51 3.57.16 6.65-1.22 7.62-1.53a7.57 7.4-51.8 0 1 2.59-.34q3.01.15 7.37-1.03 2.23-.6 2.41-.89.59-.91 1.35-.19a1.13 1.11-32.9 0 0 1.16.24q.54-.19 1.71-.26a.61.23-12.2 0 0 .71-.46q-.27-.16-.38-.29a.49.47-47.7 0 1-.02-.61q.24-.3.72-.38.46-.07.78.4.48.71 1.85.35a.63.62-28.3 0 1 .61.18q.06.08.1.16a.21.21 0 0 0 .22.13c3.46-.41 8.41-.14 12.61-1.61a.72.6 28.7 0 1 .26-.05l12.85-.85a1.35 1.34-85.1 0 0 1.23-1.04l.48-2.12a.6.6 0 0 0-.4-.69q-.97-.31-.98-.33a.26.26 0 0 1 .34-.35l1.53.64q-.24.46.06.83.18.23.6.09.23 1.37 2.06 1.65a.42.42 0 0 0 .48-.46q-.13-1.36-1.5-1.8.73-.83 1-2.02a.91.91 0 0 1 .63-.67q.64-.2 1.21-.13a.7.7 0 0 1 .21 1.33q-2.58 1.2-1.18 1.61.55 1.76 2.17 2.3a.54.54 0 0 0 .7-.44q.01-.09-.04-.26a.45.45 0 0 1 .46-.58l1.57.09a.26.26 0 0 1 .25.3q-.03.2-.08.32a.05.05 0 0 0 .05.07q9.59-.66 17.93-2.78a2.62 2.27 35 0 1 .77-.08l3.52.14a4.39 4.38-53.9 0 0 1.65-.26q3.57-1.28 8.26-.62a.27.27 0 0 0 .18-.49q-.88-.56-2.66-.29l2.9-1.71c.27 1.34 1.21 1.89 2.56 1.47q.73-.23 1.34-.42a1.32 1.31-40.6 0 1 .95.07q1.24.62 2.36-.75l1.23-1.54a.43.43 0 0 1 .73.11q.7 1.73 2.27 1.21a.31.3 77.8 0 1 .4.26q0 .01-.02.3a.3.29 85.7 0 0 .36.31l5.68-1.29a.33.33 0 0 0 .16-.55q-.06-.06-.1-.21a.13.13 0 0 1 .16-.16q2.37.67 4.77-.2a1.43 1.36 44.8 0 1 .97.02q1.9.74 4.67-.11a.64.63 4.6 0 0 .37-.31q.45-.8 1.67-.79c6.08.04 11.11.3 16.36-1.93a.82.81-38.9 0 1 .79.08q1.17.79 1.97-.05a.45.44 44.6 0 1 .63 0l16.32 16.5zm-201.48 4.82q.51 1.02 1.08 1.07a.6.59-16.5 0 0 .53-.96q-.39-.48-1.25-.61a.35.35 0 0 0-.36.5zm-2.851-.011a1.38.76-135.3 0 0 .446 1.511 1.38.76-135.3 0 0 1.516.43 1.38.76-135.3 0 0-.446-1.511 1.38.76-135.3 0 0-1.516-.43zM150.53 223.94h5.16a.54.53-68 0 0 .39-.17q.41-.44 1.88-1a.36.36 0 0 0-.05-.68l-.92-.21a1.65 1.6-51.5 0 0-1.1.14q-2.16 1.15-5.28 1.17a.27.27 0 0 0-.27.27v.29a.19.19 0 0 0 .19.19zm8.2 1.31a.4.4 0 0 0-.23-.75l-2.4.31a.66.66 0 0 0-.57.55l-.09.51a.55.55 0 0 0 .78.59l2.51-1.21zm30.48-.41q-.88.34-1.65.34a1.07 1.06 1.4 0 0-1.06 1l-.34 5.77a.22.21-84.2 0 0 .18.23l.34.06a.08.08 0 0 0 .09-.07l.15-2.62a.63.62-86.3 0 1 .66-.59l1.2.07a.68.66 6.3 0 0 .7-.55l.51-3a.58.58 0 0 0-.78-.64zm-31.16 3.77a.41.41 0 0 0-.18-.79q-3.41.3-5.7-1.04a1.11 1.06 58.4 0 0-.53-.14h-6.7a.7.69-1.9 0 0-.7.74l.02.27a.47.47 0 0 0 .5.44l3.62-.24a1.81 1.75 53.2 0 1 .74.12c1.91.74 3.28-.08 4.77.86q1.33.83 4.16-.22zm8.45 7.38q.39.23.49.63a.73.69-53 0 0 1.39-.23q.02-.94.02-5.75a1.67 1.54-57.9 0 0-.11-.59l-.51-1.28a.46.46 0 0 0-.88.17v5.15a1.04 1.03 77.2 0 1-.58.93l-.76.36a.26.25-10.2 0 0-.13.18q-.07.32.26.53.16.1.18.04.01-.02.17-.13a.44.43-45.6 0 1 .46-.01zm18.77 4.96q2.15-3.7 2.16-6.8a.74.74 0 0 0-.84-.73l-2.01.26a.82.81 80.7 0 0-.69.97q1.02 5.25.61 10.55a.55.55 0 0 0 .5.6l.03.01a.57.56-83 0 0 .61-.48l.5-3.36a.33.33 0 0 0-.36-.38q-.24.02-.29 0a.45.45 0 0 1-.22-.64zm-19.17-.81q.55-.72 1.02-2.37a.35.35 0 0 0-.46-.43q-1.36.51-1.09 2.65a.3.3 0 0 0 .53.15z" class="B"/><path d="M256.95 190.79q-1.11 1.24-2.1 1.53a.71.71 0 0 1-.84-.38l-1.19-2.46a.38.38 0 0 1 .46-.52l3.51 1.23a.37.37 0 0 1 .16.6z" class="C"/><path d="M332.61 197.31q-1.4-.41 1.18-1.61a.7.7 0 0 0-.21-1.33q-.57-.07-1.21.13a.91.91 0 0 0-.63.67q-.27 1.19-1 2.02-.64-.28-1.04.61-.42.14-.6-.09-.3-.37-.06-.83.49-.28.16-.87-.97-1.71-2.29-2.03-1.3-.32-1.06-1.22.09-.33 1.4-1.36a.58.57-40.1 0 1 .79.06c.83.91 2.25 1.94 3.15.35q.43-.76.78-1.8a1.1 1.1 0 0 1 1.7-.52l1.85 1.4a.88.87 20.9 0 1 .35.77q-.38 5.1-3.26 5.65z" class="D"/><path d="M375.46 191.92q-.47-.08-.82.14a.57.57 0 0 1-.53.02q-1.06-.53-2.55-.05-.47-.41-.37-.77.15-.49 1.02-.41l5.67-.76a.44.44 0 0 1 .41.7l-.29.38a.72.71-55.4 0 1-.96.18q-.88-.56-1.75-.47a.57.5-21.7 0 0-.43.85q.15.16.6.19z" class="B"/><path d="M372.21 190.85q-.87-.08-1.02.41-.1.36.37.77-.41.49-1.32.99l-2.9 1.71q-3.28-1.53-6.41-.09a1.9 1.77-54.2 0 1-.91.18q-4.99-.32-9.84 1.69a.02.02 0 0 1-.03-.01l-.35-.53a.27.26-27.3 0 1 .13-.39q2.92-1.08 5.56-1.35 1.47-.15 2.5-.45 1.28-.36 2.06-.03a1.23 1.21-45.3 0 0 .98-.01q2.57-1.16 7.26-1.32c.88-.04 1.43-.5 1.76-1.24a.76.75 14.6 0 1 .76-.44l1.4.11z" class="D"/><path d="M375.46 191.92q.88.3 1.99 1.47-1.12 1.37-2.36.75a1.32 1.31-40.6 0 0-.95-.07q-.61.19-1.34.42c-1.35.42-2.29-.13-2.56-1.47q.91-.5 1.32-.99 1.49-.48 2.55.05a.57.57 0 0 0 .53-.02q.35-.22.82-.14z" class="C"/><path d="M159.82 192.42q.17.21-.02.61a.52.46-49 0 1-.86.11q-.15-.26.11-.64a.51.46-47.7 0 1 .77-.08z" class="D"/><g class="B"><rect x="-.58" y="-3.34" transform="matrix(.768284 .64011 -.64011 .768284 81.74 195.45)" width="1.16" height="6.68" rx=".56"/><ellipse cx="0" cy="0" transform="matrix(.978867 -.204496 .204496 .978867 322.18 195.28)" rx="1.71" ry=".5"/></g><path d="M330.74 197.19q1.37.44 1.5 1.8a.42.42 0 0 1-.48.46q-1.83-.28-2.06-1.65.4-.89 1.04-.61z" class="C"/><path d="M215.45 201.16q-.81-.92-.82-1.46 0-.62.55-.64.3-.01.58.08a.55.54 14.2 0 1 .37.61l-.22 1.28a.27.26-60.5 0 1-.46.13zm40.91 4.14a1.3.94-65.8 0 1 .35 1.69q-.22.43-1.59-.36a.75.75 0 0 1 .23-1.39q.51-.1 1.01.06zm-210.81 5.87l-1.67.21a.69.69 0 0 1-.76-.51q-.36-1.35-2.4-.48a.74.73 61.5 0 1-.89-.27q-.33-.51-.09-1.22a.72.72 0 0 1 .67-.49q2.31-.02 3.4-1.65a.89.89 0 0 1 1.54.11l1.12 2.33a.68.67-32.4 0 1-.19.82q-.3.25-.67.39a.39.37-3.6 0 0-.23.25q-.05.13.21.33a.1.1 0 0 1-.04.18zm209.86-3.15q.28.13.48.18a.64.63-55.9 0 1 .21 1.11q-.89.69-1.46.43-.58-.26-.65-1.38a.64.63-75.7 0 1 .97-.57q.17.1.45.23z" class="B"/><path d="M451.17 212.97q.05.13.11.26-.58 1.42-1.56 2.53a.64.63-47.8 0 1-.9.05l-3.54-3.24a2.33 2.31-72.6 0 1-.73-1.41l-.29-2.22a.82.82 0 0 1 1.34-.73l5.57 4.76zm-215.45-3.61q.86.13 1.25.61a.6.59-16.5 0 1-.53.96q-.57-.05-1.08-1.07a.35.35 0 0 1 .36-.5z" class="C"/><ellipse cx="0" cy="0" transform="matrix(-.710799 -.703395 .703395 -.710799 233.49 210.82)" rx="1.38" ry=".76" class="D"/><path d="M222 216.54a.3.3 0 0 1-.54.23l-2.09-3.18a.35.35 0 0 1 .27-.54l1.85-.11a.42.42 0 0 1 .37.66q-.39.55.14 2.94zM44.97 213.1a.15.15 0 0 1 .2.07l.02.03a2.19 2.15-26.8 0 1-.99 2.91l-.25.13a2.19 2.15-26.8 0 1-2.92-.93l-.02-.04a.15.15 0 0 1 .07-.2l3.89-1.97zm2.93 13.87q-7.87-3.54-17.55-9.8-2.48-1.61-3.69-3.76l7.71 5.97a1.77 1.71-17 0 0 .53.27q7.09 2.16 7.1 2.16a2.07 2.06-28.4 0 1 .88.26l4.36 2.42a.44.44 0 0 0 .65-.33q.18-1.51 1.93-.47.8.48.38 1.23a.91.8 13.8 0 0 .84 1.2q1.11.03 1.73-.09 1.11-.22 1.38.25.36.63.19 1.41a.58.58 0 0 1-.68.45l-5.76-1.17z" class="B"/><path d="M58.15 214.71l1.03.6a1.21 1.21 0 0 1-.08 2.14q-1.88.89-2.63-.48a.74.73 56.3 0 1 .18-.91q.54-.44.69-1.01a.55.54 21.9 0 1 .81-.34zm147.31 5.37q.11.12.23.17a.09.09 0 0 0 .13-.06q.47-2.06-.06-4.64a.03.03 0 0 1 .02-.04l.7-.34a.43.43 0 0 1 .61.41l-.38 6.38a.37.36-64.8 0 1-.63.23q-.86-.92-.75-2.07a.08.07 27.5 0 1 .13-.04z" class="D"/><path d="M460.65 222.65q-.59.14-.93.37a.76.75 60.5 0 0-.26.95q.26.55.5.74a.98.97-57.8 0 1 .27 1.21q-.65 1.28.06 2.7-.63.37-.54 1.55-1.41-2.91-2.88-4.29-3.24-3.06-6.22-6.48 2.54-1.61 2.48-3.38l7.52 6.63z" class="C"/><path d="M221.41 225.03h-11.14a.37.37 0 0 1-.32-.56l4.49-7.78a.67.67 0 0 1 1.12-.07l6.08 7.96a.28.28 0 0 1-.23.45zm-173.38-4.91q.03.37.03.39a1.4 1.26-53.5 0 1-2.5.5q-.37-.89 1.62-1.47a.67.66-10.3 0 1 .85.58z" class="B"/><path d="M150.53 223.94a.19.19 0 0 1-.19-.19v-.29a.27.27 0 0 1 .27-.27q3.12-.02 5.28-1.17a1.65 1.6-51.5 0 1 1.1-.14l.92.21a.36.36 0 0 1 .05.68q-1.47.56-1.88 1a.54.53-68 0 1-.39.17h-5.16z" class="C"/><path d="M460.65 222.65q1.61 3 .74 6.86l-1.1-.89q-.71-1.42-.06-2.7a.98.97-57.8 0 0-.27-1.21q-.24-.19-.5-.74a.76.75 60.5 0 1 .26-.95q.34-.23.93-.37zm-339.88 2.57q-.8-.4-.94-1.74 3.41-1.01 5.83-.2a.44.44 0 0 1-.13.86q-2.46.02-4.76 1.08z" class="B"/><path d="M158.73 225.25l-2.51 1.21a.55.55 0 0 1-.78-.59l.09-.51a.66.66 0 0 1 .57-.55l2.4-.31a.4.4 0 0 1 .23.75zm30.48-.41a.58.58 0 0 1 .78.64l-.51 3a.68.66 6.3 0 1-.7.55l-1.2-.07a.63.62-86.3 0 0-.66.59l-.15 2.62a.08.08 0 0 1-.09.07l-.34-.06a.22.21-84.2 0 1-.18-.23l.34-5.77a1.07 1.06 1.4 0 1 1.06-1q.77 0 1.65-.34z" class="C"/><path d="M58.95 226.15a.47.46-50.3 0 1-.08-.88q1.16-.49 1.91.04a.64.64 0 0 1-.51 1.14l-1.32-.3zm69.37 6.24l-6.67-6.22q2.41-.91 4.23-.78a1.51 1.5-6.9 0 1 1.33 1.04q1.21 3.75 1.11 5.96z" class="B"/><path d="M158.05 228.61q-2.83 1.05-4.16.22c-1.49-.94-2.86-.12-4.77-.86a1.81 1.75 53.2 0 0-.74-.12l-3.62.24a.47.47 0 0 1-.5-.44l-.02-.27a.7.69-1.9 0 1 .7-.74h6.7a1.11 1.06 58.4 0 1 .53.14q2.29 1.34 5.7 1.04a.41.41 0 0 1 .18.79zm299 2.03l-3.66.14q.68-2.04-1.69-1.14a1.81 1.79 45.4 0 1-1.32-.02c-2.17-.89-2.77.67-4.52.12q-1.25-.39-1.89.36a.69.68 35.1 0 1-.87.15q-.48-.29-1.86-.16-5.51.54-7.8.54a1.43 1.42-71.1 0 0-1.13.56q-.47.63-1.32.24c-1.67-.79-6.76-.28-9.52-.31a.4.39 89.2 0 1-.39-.39v-.02a.33.32 2.1 0 1 .3-.27l30.97-2.03a2.04 1.9 47 0 1 .28.02q1.76.36 2.72.17a.35.35 0 0 1 .42.36l-.06 1.02a.45.44 7.5 0 0 .36.46l.98.2zM166.04 236q-.16.11-.17.13-.02.06-.18-.04-.33-.21-.26-.53a.26.25-10.2 0 1 .13-.18l.76-.36a1.04 1.03 77.2 0 0 .58-.93v-5.15a.46.46 0 0 1 .88-.17l.51 1.28a1.67 1.54-57.9 0 1 .11.59q0 4.81-.02 5.75a.73.69-53 0 1-1.39.23q-.1-.4-.49-.63a.44.43-45.6 0 0-.46.01z" class="C"/><path d="M460.29 228.62l1.1.89q1.04 1.88 2.61 3.52.52.54 1.39 3.58c1.03 3.57.56 8.68.75 11.76a.35.35 0 0 0 .66.15q.14-.25.55-.24a.76.74 62.3 0 1 .37.12q6.3 4.19 10.52 9.72a2.69 2.52 20.7 0 1 .43.87q1.5 5.38 1.21 9.51a1.31 1.31 0 0 0 .4 1.05l4.33 4.13a.56.56 0 0 1-.22.94q-.02 0-.28-.02a.46.46 0 0 0-.5.49l.07 1.07a.4.4 0 0 0 .7.23q.44-.52 1.28-.75a1.13 1.12 56.8 0 1 .98.21q3.78 3.04 4.99 7.02a.13.04 61.8 0 1 .01.05l1.13 14.39a.13.13 0 0 0 .14.12l.43-.03a.31.31 0 0 0 .29-.3q.09-2.36 1.08-3.68a.63.63 0 0 1 .85-.14c3.3 2.17 6.57 4.92 7.58 8.57a2.9 2.57 81.7 0 0 2.53 2.13q1.22.01 2.37.62c1.25.66 2.6.26 3.96.86v2.38l-7.72-.04a.43.43 0 0 0-.44.41l-.05.83a.43.43 0 0 0 .43.46l7.78-.04v3.78q-.52.62 0 1.01v.5q-.8.36-1.6.14a.37.37 0 0 1-.07-.69l.52-.25a.4.4 0 0 0 .06-.68q-3.03-2.18-6.27-.88a1.28 1.25 87.3 0 0-.75.84l-1.96 6.81q-1.68.86-.68 1.53-.52.46.66.96a1.08 1.06-87.7 0 1 .61.67c.74 2.36.28 4.96.79 7.06.92 3.78.69 7.7 1.09 12.99q1.32 17.3 1.88 32.25.1 2.67.64 5.4a3.59 2.94 71.9 0 1 .05.5l.48 20.8q-.4-.29-.76-.03-.36.26-.32.69.06.66 1.04.92l-.23 4.87a.66.65-69 0 1-1.07.48q-4.32-3.58-6.97-8.7a1.65 1.59-64.1 0 1-.19-.58q-.57-3.97-4.92-6.72-3.21-2.03-7.64-8.09a.25.15 31.7 0 1-.04-.08l-1.88-5.29a2.26 2.24-80.3 0 0-.7-1q-4.61-3.74-8-6.93-3.79-3.58-5.76-8.09.7-5.16-4.22-6.37-7.97-8.25-12.17-18.83a3.61 3.58 11.6 0 0-.82-1.23q-3.97-3.89-8.29-7.69-4.37-3.85-6.43-8.52-1.08-2.43-2.16-6.51-.99-4.02.29-4.86a.25.25 0 0 0 .02-.41q-.12-.09-.25-.12 0-.98-.63-1.16-2.44-.69-4.84-1.48-2.76-.92-4.58-2.14-6.59-4.43-8.96-12.2 1.27-.02.85-1.9c-.41-1.88-2.71-2.94-.57-5.11a1.42 1.42 0 0 0 .39-.81q.76-5.74.39-12.89-.32-6.13.02-12.84.15-2.9.12-15.27 0-.65-.41-1.7a2.67 2.66-51.5 0 1-.15-1.34l.68-4.76a.87.86-84.9 0 1 .89-.75l4.01.11a1.24.69-34.4 0 0 .21-.02q6.44-1.26 12.37-.58a1.7 1.65-53.9 0 0 .94-.16c3.15-1.6 5.98-1.53 10.2-1.3q.47.79 1.14.72a.74.74 0 0 0 .23-1.41q-.19-.08-.74-.07-.11-.2-.22-.39l6.07-.88 3.66-.14q1.37.29 2.7-.47-.09-1.18.54-1.55zm-5.461 3.708a.83.64-132.5 0 0 .089 1.044.83.64-132.5 0 0 1.033.179.83.64-132.5 0 0-.089-1.044.83.64-132.5 0 0-1.033-.179zM437 235.963a.96.96 0 0 0-.968-.951h-.02a.96.96 0 0 0-.952.968l.599 68.657a.96.96 0 0 0 .968.952h.02a.96.96 0 0 0 .951-.968L437 235.963zm24.724 2.782a.95.63-142.7 0 0 .374 1.077.95.63-142.7 0 0 1.137.075.95.63-142.7 0 0-.374-1.077.95.63-142.7 0 0-1.137-.075zm-40.187 6.997a1.19.74-115 0 0-.168 1.391 1.19.74-115 0 0 1.174.766 1.19.74-115 0 0 .168-1.391 1.19.74-115 0 0-1.174-.766zm18.136 2.208a1.11.77-120.1 0 0-.109 1.346 1.11.77-120.1 0 0 1.223.574 1.11.77-120.1 0 0 .11-1.346 1.11.77-120.1 0 0-1.223-.574zm15.787 4.44a.51.47 33.3 0 0 .9-.15q.14-1.02-.56-1.44a.38.37-75.4 0 0-.57.34q.03.95.23 1.25zm-24.1 2.96q.36-1.2-.2-1.98a.56.55 28.7 0 0-1.01.29q-.02.68.63 1.76a.32.32 0 0 0 .58-.07zm16.685-.923a1.12.72-100 0 0-.515 1.228 1.12.72-100 0 0 .904.978 1.12.72-100 0 0 .515-1.228 1.12.72-100 0 0-.904-.978zm21.082 2.104a.86.71-130 0 0 .009 1.115.86.71-130 0 0 1.097.202.86.71-130 0 0-.009-1.115.86.71-130 0 0-1.097-.202zm-5.717.789q-.49-.13-.76-.05a.76.63 51.4 0 0-.02 1.26q.81.57 1.13-.08a.85.68-68.6 0 0-.35-1.13zm13.66 5.87q.01-.53-.26-.83a.58.56 30 0 0-.98.24q-.1.48.74.91a.36.34-76.5 0 0 .5-.32zm-55.295 6.373a1.16.79-103.7 0 0-.493 1.314 1.16.79-103.7 0 0 1.042.94 1.16.79-103.7 0 0 .493-1.314 1.16.79-103.7 0 0-1.042-.94zm19.745 5.137q-.05-1.02-1.04-1.4a.35.35 0 0 0-.47.4q.27 1.27.51 1.5a.61.59-70.5 0 0 1-.5zm14.646-1.24a.9.45-111.1 0 0-.096 1.002.9.45-111.1 0 0 .744.678.9.45-111.1 0 0 .096-1.002.9.45-111.1 0 0-.744-.678zm14.069.956a.75.59-101.9 0 0-.423.856.75.59-101.9 0 0 .732.612.75.59-101.9 0 0 .423-.856.75.59-101.9 0 0-.732-.612zm-39.673 2.24a1.21.86-111.7 0 0-.352 1.442 1.21.86-111.7 0 0 1.247.806 1.21.86-111.7 0 0 .352-1.442 1.21.86-111.7 0 0-1.247-.806zm51.451 1.876a.98.79-152.1 0 0 .496 1.157.98.79-152.1 0 0 1.236-.24.98.79-152.1 0 0-.496-1.157.98.79-152.1 0 0-1.236.24zm-17.976.793a1.04.82-84.6 0 0-.914.958 1.04.82-84.6 0 0 .719 1.113 1.04.82-84.6 0 0 .914-.958 1.04.82-84.6 0 0-.719-1.113zm13.952 1.755a.71.71 0 0 0-1.42 0 .71.71 0 1 0 1.42 0zm11.555 2.85a.72.6-17.8 0 0-.869-.351.72.6-17.8 0 0-.502.791.72.6-17.8 0 0 .869.351.72.6-17.8 0 0 .502-.791zm-67.851 8.704a1.07.71-108.3 0 0-.338 1.239 1.07.71-108.3 0 0 1.01.793 1.07.71-108.3 0 0 .338-1.239 1.07.71-108.3 0 0-1.01-.793zm61.183 3.318a.97.83-133.1 0 0 .057 1.275.97.83-133.1 0 0 1.269.141.97.83-133.1 0 0-.057-1.275.97.83-133.1 0 0-1.269-.141zm-42.358.441a1.11.73-112.3 0 0-.254 1.304 1.11.73-112.3 0 0 1.097.75 1.11.73-112.3 0 0 .254-1.304 1.11.73-112.3 0 0-1.097-.75zm31.371.857a.66.66 0 0 0-1.32 0 .66.66 0 0 0 1.32 0zm-14.14 2.21a1.04 1-57.4 0 0-.31-1.52q-.34-.19-.43-.16a1.07 1 48.1 0 0-.04 1.95q.43.2.78-.27zm36.84.23a.7.56-1.9 0 0 .93-.8q-.18-.24-.69-.46-.5-.22-.77.36-.27.56.53.9zm-63.887-.248a1.17.93-108.8 0 0-.503 1.407 1.17.93-108.8 0 0 1.258.808 1.17.93-108.8 0 0 .503-1.407 1.17.93-108.8 0 0-1.257-.808zm58.937 1.468q-.27-.05-.42.25a1.03 1.02-79.4 0 0 1.01 1.49q.18-.02.31-.25a1.16.99 18.2 0 0-.9-1.49zm-12.219 1.337a.96.7-140.3 0 0 .291 1.152.96.7-140.3 0 0 1.186.075.96.7-140.3 0 0-.291-1.152.96.7-140.3 0 0-1.186-.075zm-28.607.162a1.23.83-107.8 0 0-.414 1.425 1.23.83-107.8 0 0 1.166.917 1.23.83-107.8 0 0 .414-1.425 1.23.83-107.8 0 0-1.166-.917zm51.476 2.081a.68.67 73.8 0 0 .62-1.15q-.19-.19-.6-.06-.52.17-.35.66.18.52.33.55zm-36.11.74q.23.53.69.34a1.03 1.01 46.1 0 0 .02-1.85q-.31-.14-.39-.06a1.45 1.42-34.2 0 0-.32 1.57zm41.243 1.01a2.56.48-177.1 0 0 2.532.609 2.56.48-177.1 0 0 2.581-.35 2.56.48-177.1 0 0-2.532-.609 2.56.48-177.1 0 0-2.581.35zm-51.823 2.073a.98.98 0 0 0-.978-.982l-13.96-.024a.98.98 0 0 0-.982.978v.28a.98.98 0 0 0 .978.982l13.96.024a.98.98 0 0 0 .982-.978v-.28zm41.441 7.072a1.07.8-144.3 0 0 .402 1.274 1.07.8-144.3 0 0 1.336-.025 1.07.8-144.3 0 0-.402-1.274 1.07.8-144.3 0 0-1.336.025zm-9.421 2.344a.88.88 0 0 0-1.76 0 .88.88 0 1 0 1.76 0zm-44.999.438a1.28.79-124.7 0 0 .079 1.502 1.28.79-124.7 0 0 1.378.603 1.28.79-124.7 0 0-.079-1.502 1.28.79-124.7 0 0-1.378-.603zm16.506 2.159a.86.69-134.5 0 0 .111 1.097.86.69-134.5 0 0 1.095.13.86.69-134.5 0 0-.111-1.097.86.69-134.5 0 0-1.095-.13zm15.453 1.353q.34-.14.22-1.02a.44.42-81.5 0 0-.24-.34q-.63-.31-.89-.02a.86.84-79.1 0 0 .91 1.38zm18.71 1.98a.62.55 59.2 0 0 .21-1.13q-.37-.21-.66-.15a.54.54 0 0 0-.25.92q.32.32.7.36zm-41.822 1.054a.88.63-110.1 0 0-.289 1.043.88.63-110.1 0 0 .894.61.88.63-110.1 0 0 .289-1.043.88.63-110.1 0 0-.894-.61zm29.702 2.316a.7.51 71.8 0 0 .38-1.16q-.39-.33-.64-.19-.41.22-.19.65.31.61.45.7zm-13.26.56q.25.01.32-.33a1.07.86 85.7 0 0-1.18-1.27q-.22.11-.16.53a1.25 1.04 85.9 0 0 1.02 1.07zm30.385 8.736a.88.7-140.1 0 0 .226 1.102.88.7-140.1 0 0 1.124.027.88.7-140.1 0 0-.226-1.101.88.7-140.1 0 0-1.124-.028zm-11.115 3.905q-.22.48.14 1.08a.63.61-54.6 0 0 1.13-.21q.11-.5-.11-.87a.68.63 42.9 0 0-1.16 0zm16.977 1.21a1.01.79-173.2 0 0 .909.904 1.01.79-173.2 0 0 1.096-.665 1.01.79-173.2 0 0-.909-.904 1.01.79-173.2 0 0-1.096.665zm-44.305.135a.93.71-113.3 0 0-.284 1.135.93.71-113.3 0 0 1.02.573.93.71-113.3 0 0 .284-1.135.93.71-113.3 0 0-1.02-.573zm16.048.774a.82.82 0 0 0-1.64 0 .82.82 0 0 0 1.64 0zm18.99 3.42a.58.58 0 0 0-1.16 0 .58.58 0 0 0 1.16 0zm-12.699 1.012a.76.61-93.7 0 0-.56.798.76.61-93.7 0 0 .658.719.76.61-93.7 0 0 .56-.798.76.61-93.7 0 0-.658-.719zm-14.721.798q.08.79.83 1.42a.37.36 22.1 0 0 .6-.25q.09-1.16-.27-1.6a.66.63 23.3 0 0-1.16.43zm32.044 10.852a.93.77-127.5 0 0-.045 1.206.93.77-127.5 0 0 1.177.269.93.77-127.5 0 0 .045-1.207.93.77-127.5 0 0-1.177-.269zm-10.444 2.478a.44.43-52.9 0 0-.79.11q-.28 1 .19 1.42.65.6.91-.27.15-.51-.31-1.26zm-12.58 2.1q-.05-.74-.45-1.1a.54.5 27.3 0 0-.87.24c-.08.45.1 1.82.94 1.45q.41-.19.38-.59zm29.603-.258a.94.74-93.5 0 0-.681.983.94.74-93.5 0 0 .796.893.94.74-93.5 0 0 .681-.983.94.74-93.5 0 0-.796-.893zm-11.083 4.418a.38.37-56 0 0 .66-.13q.24-.92-.07-1.22-.54-.53-.89.19-.23.46.3 1.16zm-11.12.83a.66.66 0 0 0-1.32 0 .66.66 0 0 0 1.32 0zm18.24 12.05q.05-1.18-.63-1.56a.46.46 0 0 0-.68.48q.12.7.75 1.3a.33.33 0 0 0 .56-.22zm-12.55.702a.84.59-103.1 0 0-.384.952.84.59-103.1 0 0 .765.684.84.59-103.1 0 0 .384-.952.84.59-103.1 0 0-.765-.684zm18.58 2.898a.75.75 0 1 0-1.5 0 .75.75 0 1 0 1.5 0zm-12.2 2.98q.29.09.69.01.18-.04.24-.21.06-.19.04-.34-.05-.57-.62-.5-.57.06-.67.46-.11.44.32.58zm7 12.49q.08-.53-.19-1.29a.32.32 0 0 0-.58-.04q-.42.8.07 1.49a.39.39 0 0 0 .7-.16zM61.96 230.12q-1.25-.14-1.45-.31a.42.41 57 0 1 .15-.73q1.17-.29 1.65.5a.36.36 0 0 1-.35.54z" class="D"/><path d="M406.8 232.86q-.09-.65.25-1.02.57.06.25.72a.33.32 6.7 0 1-.24.18q-.15.03-.26.12zm40.52-1.2q.11.19.22.39-.36.27-.63.76c-4.22-.23-7.05-.3-10.2 1.3a1.7 1.65-53.9 0 1-.94.16q-5.93-.68-12.37.58a1.24.69-34.4 0 1-.21.02l-4.01-.11a.87.86-84.9 0 0-.89.75l-.68 4.76a2.67 2.66-51.5 0 0 .15 1.34q.41 1.05.41 1.7.03 12.37-.12 15.27-.34 6.71-.02 12.84.37 7.15-.39 12.89a1.42 1.42 0 0 1-.39.81c-2.14 2.17.16 3.23.57 5.11q.42 1.88-.85 1.9l-2.16-5.53q.53-6.63.4-13.24-.23-11.63-.21-13.23.14-10.86.14-24.07a1.35 1.34-2.2 0 0-1.45-1.34l-3.09.24a1.16.88 26.3 0 0-.21.04q-4.4 1.36-8.64.93a.97.87-24 0 1-.4-.13q-.61-.36-.4-.79l46.37-3.35z" class="C"/><g class="B"><path d="M447.54 232.05q.55-.01.74.07a.74.74 0 0 1-.23 1.41q-.67.07-1.14-.72.27-.49.63-.76z"/><ellipse cx="0" cy="0" transform="matrix(-.67559 -.737277 .737277 -.67559 455.39 232.94)" rx=".83" ry=".64"/></g><path d="M185.49 241.59q.05.02.29 0a.33.33 0 0 1 .36.38l-.5 3.36a.57.56-83 0 1-.61.48l-.03-.01a.55.55 0 0 1-.5-.6q.41-5.3-.61-10.55a.82.81 80.7 0 1 .69-.97l2.01-.26a.74.74 0 0 1 .84.73q-.01 3.1-2.16 6.8a.45.45 0 0 0 .22.64z" class="C"/><path d="M139.79 237.02q-.33.3-.56.33a1.97 1.92 45.7 0 1-.78-.02l-6.65-1.47a2.03 2.02 77.4 0 1-1.17-.75l-.38-.49a.43.43 0 0 1 .41-.68q2.45.41 5.42 1.86.54.27 1.74.32.68.03 1.67.08a.47.47 0 0 1 .3.82z" class="B"/><path d="M366.36 234.76q-1.27 1.57-5.45 1.38-3.41-.56-6.05.65l-4.09.46q-4.05-.18-8-.43-.87-.06-2.54.67a.79.78-34.8 0 1-.87-.15q-1.21-1.12-2.5.29a.99.97 25.3 0 1-.87.3q-.52-.08-.95-.35a1.84 1.78-28.8 0 0-.99-.27q-2.87.03-1.13 1.54l-26.43 1.66-.49-.88a.69.69 0 0 1 .57-1.02q10.45-.45 20.11-1.49 1.98-.21 2.72 0c1.87.52 3.68-.65 6.13-.53q1.51.08 3.54-.08 12.85-1.04 20.18-1.73 2.1-.2 7.11-.02z" class="C"/><path d="M399.16 234.76l1.79.25q-.21.43.4.79a.97.87-24 0 0 .4.13q4.24.43 8.64-.93a1.16.88 26.3 0 1 .21-.04l3.09-.24a1.35 1.34-2.2 0 1 1.45 1.34q0 13.21-.14 24.07-.02 1.6.21 13.23.13 6.61-.4 13.24l-.39-.37v-.36a.13.12 20.8 0 0-.05-.1l-17.91-13.46a1.84 1.8-77.1 0 1-.68-1.11q-.4-2.28.59-8.32 1.31-8.06-.09-18.73.66-2.98.88-6.4.1-1.5 2-2.99zm1.45 5.16a.43.43 0 0 0-.68.31q-.11 1.22.65 1.57a.47.47 0 0 0 .67-.41q.04-1-.64-1.47zm9.356 7.678a1.2.65-110.7 0 0-.184 1.352 1.2.65-110.7 0 0 1.032.893 1.2.65-110.7 0 0 .184-1.352 1.2.65-110.7 0 0-1.032-.893zm-10.179 15.771a1.16.63-106.7 0 0-.27 1.292 1.16.63-106.7 0 0 .937.93 1.16.63-106.7 0 0 .27-1.292 1.16.63-106.7 0 0-.937-.93zm9.62 7.548a1.42.62-119.7 0 0 .165 1.541 1.42.62-119.7 0 0 1.242.926 1.42.62-119.7 0 0-.165-1.541 1.42.62-119.7 0 0-1.242-.926z" class="D"/><rect x="-.97" y="-35.29" transform="matrix(.999962 -.008727 .008727 .999962 436.33 270.3)" width="1.94" height="70.58" rx=".96" class="C"/><path d="M360.91 236.14q-2.91 1.22-6.05.65 2.64-1.21 6.05-.65zm-10.14 1.11l-17.85 1.6q-1.74-1.51 1.13-1.54a1.84 1.78-28.8 0 1 .99.27q.43.27.95.35a.99.97 25.3 0 0 .87-.3q1.29-1.41 2.5-.29a.79.78-34.8 0 0 .87.15q1.67-.73 2.54-.67 3.95.25 8 .43z" class="B"/><path d="M165.57 239.99q-.27-2.14 1.09-2.65a.35.35 0 0 1 .46.43q-.47 1.65-1.02 2.37a.3.3 0 0 1-.53-.15z" class="C"/><ellipse cx="0" cy="0" transform="matrix(.990268 -.139173 .139173 .990268 136.01 238.47)" rx="1.38" ry=".58" class="B"/><g class="C"><ellipse cx="0" cy="0" transform="matrix(-.795473 -.605988 .605988 -.795473 462.48 239.32)" rx=".95" ry=".63"/><path d="M298.02 240.93q-2.76.56-5.01.24-6.91-.36-13.91.52-.67.09-1.24.3-.88.32-1.47-.14a.73.7 60.9 0 0-.49-.15l-7.34.51a1.53 1.32 27.4 0 0-.38.09q-1.9.74-2.21.72-5.04-.38-9.68 1.03-2.79.71-6.05 1.16-2.02.28-2.47 2.94a.27.26 34.4 0 1-.49.09q-1.15-1.87-1.36-3.09a.41.4-4.1 0 0-.4-.34l-12.83.36a1.72.99-10.7 0 0-.24.03l-1.86.45a8.39 8.22 38.2 0 1-2.74.3q-3.57-.22-6.85.76-.1-1.62.67-1.74 5.28-.81 17.06-1.4.23-.02 2.29-.59a2.74 2.71 38.9 0 1 .98-.1q5.05.4 6.26.25 11.57-1.4 21.21-1.4a2.8 2.74-55.9 0 0 1.08-.22c1.68-.69 3.56-.28 5.64-.49q10.28-1.06 24.24-1.98a.55.54 80.2 0 1 .56.4q.04.15-.02.39a.5.49 18 0 1-.66.33q-1.93-.75-2.29.77z"/></g><path d="M400.61 239.92q.68.47.64 1.47a.47.47 0 0 1-.67.41q-.76-.35-.65-1.57a.43.43 0 0 1 .68-.31z" class="B"/><path d="M215.48 246.86q-3.22 1.26-6.69 1.21-1.97-.02-2.94.4c-2.1.91-4.28-.05-5.97 1.94a.41.41 0 0 1-.66-.06q-1.87-3.02-5.72-2.19c-5.21 1.13-10.94.58-16.49 1.42q-.39-.83.77-1.39a2.8 2.68 28.7 0 1 1-.27l29.37-2.13a.5.5 0 0 0 .46-.5v-4.6a.54.53-88 0 1 .57-.54l.34.02a.5.5 0 0 1 .47.52l-.25 4.12a.82.82 0 0 0 .87.86l6.89-.45a.14.13 83.1 0 1 .14.12l.03.25a.05.05 0 0 1-.05.06q-1.52 0-2.14 1.21z" class="C"/><path d="M293.01 241.17q-3.17.86-4.51.82-4.98-.13-9.51.52c-4.34.62-7.26.26-11.11.86q-5.63.89-11.59.68 4.64-1.41 9.68-1.03.31.02 2.21-.72a1.53 1.32 27.4 0 1 .38-.09l7.34-.51a.73.7 60.9 0 1 .49.15q.59.46 1.47.14.57-.21 1.24-.3 7-.88 13.91-.52z" class="B"/><path d="M138.09 245.51q-2.44.42-4.77-1.2 3.85-2.89 8.23-2.28a.31.31 0 0 1 0 .62l-3.62.47a.62.61 75 0 0-.48.85l.64 1.54zm276.33 40.72c-1.07-.7-2.32-1.2-3.29-1.94q-13.42-10.27-14.24-10.93c-2.43-1.95-2.01-4.58-1.73-7.84q.9-10.46 1.12-21.37 1.4 10.67.09 18.73-.99 6.04-.59 8.32a1.84 1.8-77.1 0 0 .68 1.11l17.91 13.46a.13.12 20.8 0 1 .05.1v.36z" class="C"/><g class="B"><ellipse cx="0" cy="0" transform="matrix(-.422618 -.906308 .906308 -.422618 422.04 246.82)" rx="1.19" ry=".74"/><ellipse cx="0" cy="0" transform="matrix(-.353475 -.935444 .935444 -.353475 410.39 248.72)" rx="1.2" ry=".65"/></g><g class="C"><ellipse cx="0" cy="0" transform="matrix(-.501511 -.865151 .865151 -.501511 440.23 248.91)" rx="1.11" ry=".77"/><path d="M174.67 249.91q-8.18.05-13.64.94-2.91.48-4.75-.7l13.68-1.62a2.06 1.89-36.8 0 1 .79.08l3.92 1.3zm280.79 2.48q-.2-.3-.23-1.25a.38.37-75.4 0 1 .57-.34q.7.42.56 1.44a.51.47 33.3 0 1-.9.15zm-204 .98q.09.8.72.78a.34.34 0 0 0 .3-.22l.23-.71 1.81-.4a.34.34 0 0 1 .38.48q-.62 1.28-2.2 2.07a.79.79 0 0 1-.83-.08q-1.85-1.43-2.66-3.09a.19.19 0 0 1 .29-.24l1.96 1.41z"/></g><path d="M204.8 253.21q-.16 1.64-1.86 1.81l-1.64-2.44a.14.14 0 0 1 .19-.2q1.7 1.09 3.31.83z" class="B"/><path d="M202.94 255.02q1.7-.17 1.86-1.81 3.37-.41-.04 2.42-.66.55-1.15.41-.57-.16-.67-1.02z" class="C"/><path d="M252.71 253.22l-.23.71a.34.34 0 0 1-.3.22q-.63.02-.72-.78l1.25-.15z" class="B"/><path d="M430.78 255.42q-.65-1.08-.63-1.76a.56.55 28.7 0 1 1.01-.29q.56.78.2 1.98a.32.32 0 0 1-.58.07z" class="E"/><ellipse cx="0" cy="0" transform="matrix(-.173648 -.984808 .984808 -.173648 448.24 255.53)" rx="1.12" ry=".72" class="C"/><ellipse cx="0" cy="0" transform="matrix(-.642788 -.766044 .766044 -.642788 469.68 257.19)" rx=".86" ry=".71" class="E"/><path d="M463.41 257.32a.85.68-68.6 0 1 .35 1.13q-.32.65-1.13.08a.76.63 51.4 0 1 .02-1.26q.27-.08.76.05z" class="C"/><g class="B"><path d="M477.07 263.19a.36.34-76.5 0 1-.5.32q-.84-.43-.74-.91a.58.56 30 0 1 .98-.24q.27.3.26.83z"/><ellipse cx="0" cy="0" transform="matrix(-.287361 -.957822 .957822 -.287361 400.12 264.48)" rx="1.16" ry=".63"/></g><ellipse cx="0" cy="0" transform="matrix(-.236838 -.971549 .971549 -.236838 422.05 270.69)" rx="1.16" ry=".79" class="E"/><ellipse cx="0" cy="0" transform="matrix(-.495459 -.868632 .868632 -.495459 410.11 272.15)" rx="1.42" ry=".62" class="C"/><path d="M441.52 274.7a.61.59-70.5 0 1-1 .5q-.24-.23-.51-1.5a.35.35 0 0 1 .47-.4q.99.38 1.04 1.4z" class="E"/><g class="C"><ellipse cx="0" cy="0" transform="matrix(-.359997 -.932954 .932954 -.359997 456.49 274.3)" rx=".9" ry=".45"/><ellipse cx="0" cy="0" transform="matrix(-.206204 -.978509 .978509 -.206204 470.39 275.15)" rx=".75" ry=".59"/><ellipse cx="0" cy="0" transform="matrix(-.369747 -.929133 .929133 -.369747 431.01 277.78)" rx="1.21" ry=".86"/><ellipse cx="0" cy="0" transform="matrix(-.883766 -.46793 .46793 -.883766 482.88 278.99)" rx=".98" ry=".79"/><ellipse cx="0" cy="0" transform="matrix(.094108 -.995562 .995562 .094108 463.94 280.36)" rx="1.04" ry=".82"/><circle cx="477.28" cy="281.08" r=".71"/><ellipse cx="0" cy="0" transform="matrix(.952129 -.305695 .305695 .952129 488.86 284.15)" rx=".72" ry=".6"/></g><ellipse cx="0" cy="0" transform="matrix(-.313992 -.949425 .949425 -.313992 422.03 293.65)" rx="1.07" ry=".71" class="B"/><ellipse cx="0" cy="0" transform="matrix(-.683274 -.730162 .730162 -.683274 483.54 296.66)" rx=".97" ry=".83" class="C"/><ellipse cx="0" cy="0" transform="matrix(-.379456 -.92521 .92521 -.379456 440.94 297.42)" rx="1.11" ry=".73" class="B"/><g class="C"><circle cx="471.23" cy="297.25" r=".66"/><path d="M457.75 299.46q-.35.47-.78.27a1.07 1 48.1 0 1 .04-1.95q.09-.03.43.16a1.04 1-57.4 0 1 .31 1.52zm36.84.23q-.8-.34-.53-.9.27-.58.77-.36.51.22.69.46a.7.56-1.9 0 1-.93.8z"/></g><ellipse cx="0" cy="0" transform="matrix(-.322266 -.946649 .946649 -.322266 431.08 300.55)" rx="1.17" ry=".93" class="B"/><g class="C"><path d="M489.64 300.91a1.16.99 18.2 0 1 .9 1.49q-.13.23-.31.25a1.03 1.02-79.4 0 1-1.01-1.49q.15-.3.42-.25z"/><ellipse cx="0" cy="0" transform="matrix(-.7694 -.638768 .638768 -.7694 478.16 302.86)" rx=".96" ry=".7"/></g><g class="B"><ellipse cx="0" cy="0" transform="matrix(-.305695 -.952129 .952129 -.305695 449.19 303.58)" rx="1.23" ry=".83"/><path d="M500.29 304.49q-.15-.03-.33-.55-.17-.49.35-.66.41-.13.6.06a.68.67 73.8 0 1-.62 1.15zm-36.11.74a1.45 1.42-34.2 0 1 .32-1.57q.08-.08.39.06a1.03 1.01 46.1 0 1-.02 1.85q-.46.19-.69-.34z"/></g><g class="C"><rect x="-7.96" y="-1.12" transform="matrix(.999998 .001745 -.001745 .999998 445.64 308.44)" width="15.92" height="2.24" rx=".98"/><path d="M435.98 309.11q.13.03.25.12a.25.25 0 0 1-.02.41q-1.28.84-.29 4.86-1.67-1.91-2.4-3.96a.55.54-19.4 0 1 .34-.7l2.12-.73z"/></g><ellipse cx="0" cy="0" transform="matrix(-.812084 -.583541 .583541 -.812084 495.91 316.01)" rx="1.07" ry=".8" class="E"/><g class="C"><circle cx="484.74" cy="317.73" r=".88"/><ellipse cx="0" cy="0" transform="matrix(-.56928 -.822144 .822144 -.56928 441.35 319.22)" rx="1.28" ry=".79"/></g><path d="M501.93 320.04q.09 1.08-.68 1.53-1-.67.68-1.53z" class="E"/><g class="C"><ellipse cx="0" cy="0" transform="matrix(-.700909 -.71325 .71325 -.700909 457.73 320.94)" rx=".86" ry=".69"/><path d="M472.58 321.68a.86.84-79.1 0 1-.91-1.38q.26-.29.89.02a.44.42-81.5 0 1 .24.34q.12.88-.22 1.02zm18.71 1.98q-.38-.04-.7-.36a.54.54 0 0 1 .25-.92q.29-.06.66.15a.62.55 59.2 0 1-.21 1.13z"/></g><ellipse cx="0" cy="0" transform="matrix(-.34366 -.939094 .939094 -.34366 449.77 325.54)" rx=".88" ry=".63" class="B"/><path d="M479.17 327.03q-.14-.09-.45-.7-.22-.43.19-.65.25-.14.64.19a.7.51 71.8 0 1-.38 1.16zm-13.26.56a1.25 1.04 85.9 0 1-1.02-1.07q-.06-.42.16-.53a1.07.86 85.7 0 1 1.18 1.27q-.07.34-.32.33z" class="E"/><ellipse cx="0" cy="0" transform="matrix(-.767165 -.64145 .64145 -.767165 496.97 336.89)" rx=".88" ry=".7" class="C"/><g class="E"><path d="M485.18 340.23a.68.63 42.9 0 1 1.16 0q.22.37.11.87a.63.61-54.6 0 1-1.13.21q-.36-.6-.14-1.08z"/><ellipse cx="0" cy="0" transform="matrix(-.992966 -.118404 .118404 -.992966 503.16 341.56)" rx="1.01" ry=".79"/></g><ellipse cx="0" cy="0" transform="matrix(-.395546 -.918446 .918446 -.395546 458.22 342.43)" rx=".93" ry=".71" class="C"/><g class="E"><circle cx="473.08" cy="342.35" r=".82"/><circle cx="492.31" cy="345.77" r=".58"/></g><g class="C"><ellipse cx="0" cy="0" transform="matrix(-.064532 -.997916 .997916 -.064532 480.24 347.54)" rx=".76" ry=".61"/><path d="M465.47 347.58a.66.63 23.3 0 1 1.16-.43q.36.44.27 1.6a.37.36 22.1 0 1-.6.25q-.75-.63-.83-1.42z"/></g><path d="M470.01 363.65l-4.22-6.37q4.92 1.21 4.22 6.37z" class="B"/><ellipse cx="0" cy="0" transform="matrix(-.608761 -.793353 .793353 -.608761 498.08 359.17)" rx=".93" ry=".77" class="E"/><path d="M487.07 360.91q.46.75.31 1.26-.26.87-.91.27-.47-.42-.19-1.42a.44.43-52.9 0 1 .79-.11zm-12.58 2.1q.03.4-.38.59c-.84.37-1.02-1-.94-1.45a.54.5 27.3 0 1 .87-.24q.4.36.45 1.1z" class="C"/><ellipse cx="0" cy="0" transform="matrix(-.061049 -.998135 .998135 -.061049 504.15 363.69)" rx=".94" ry=".74" class="B"/><g class="C"><path d="M493.01 367.17q-.53-.7-.3-1.16.35-.72.89-.19.31.3.07 1.22a.38.37-56 0 1-.66.13z"/><circle cx="481.23" cy="368" r=".66"/></g><g class="B"><path d="M499.57 380.27q-.63-.6-.75-1.3a.46.46 0 0 1 .68-.48q.68.38.63 1.56a.33.33 0 0 1-.56.22z"/><ellipse cx="0" cy="0" transform="matrix(-.226651 -.973976 .973976 -.226651 487.77 381.57)" rx=".84" ry=".59"/><circle cx="505.41" cy="383.65" r=".75"/><path d="M493.96 386.63q-.43-.14-.32-.58.1-.4.67-.46.57-.07.62.5.02.15-.04.34-.06.17-.24.21-.4.08-.69-.01zm7 12.49a.39.39 0 0 1-.7.16q-.49-.69-.07-1.49a.32.32 0 0 1 .58.04q.27.76.19 1.29z"/></g><path d="M507.45 402.2l-.04 1.58q-.98-.26-1.04-.92-.04-.43.32-.69.36-.26.76.03z" class="C"/></svg>