<?xml version="1.0" encoding="UTF-8" standalone="no"?>
<svg xmlns="http://www.w3.org/2000/svg" version="1.2" baseProfile="tiny" viewBox="0.00 0.00 512.00 560.00" width="512.00" height="560.00">
<path fill="#150423" d="
  M 171.63 0.00
  L 178.95 0.74
  A 0.24 0.19 -14.2 0 1 179.08 0.80
  Q 179.13 0.85 179.15 0.87
  A 0.07 0.06 62.2 0 1 179.12 0.99
  L 170.79 1.72
  A 0.91 0.91 0.0 0 0 170.29 3.32
  L 198.33 26.71
  L 198.65 27.87
  Q 185.11 16.75 171.58 5.65
  Q 169.67 4.09 167.96 2.30
  Q 165.86 0.11 163.07 0.77
  L 163.93 0.00
  L 171.63 0.00
  Z"
/>
<path fill="#fccd57" d="
  M 163.07 0.77
  Q 165.86 0.11 167.96 2.30
  Q 169.67 4.09 171.58 5.65
  Q 185.11 16.75 198.65 27.87
  L 205.50 32.67
  Q 206.48 33.10 206.86 33.76
  Q 208.42 35.54 210.25 37.01
  Q 222.26 46.62 234.21 56.30
  Q 235.27 57.16 236.50 57.76
  Q 236.64 58.04 237.25 58.37
  Q 237.35 58.66 237.71 58.79
  Q 237.99 59.09 238.29 59.23
  L 242.27 62.59
  L 242.45 62.80
  Q 242.88 63.52 243.75 63.76
  Q 244.00 64.07 244.44 64.28
  L 248.19 67.33
  L 261.30 77.81
  L 301.68 110.87
  Q 302.17 111.41 302.67 111.51
  Q 310.57 118.79 319.40 124.95
  Q 319.57 124.83 320.02 125.26
  Q 320.30 125.59 320.71 125.78
  L 320.94 126.07
  L 321.87 127.14
  L 346.22 146.52
  Q 346.54 147.29 347.48 147.54
  L 350.77 150.13
  Q 350.91 150.39 351.16 150.53
  Q 352.37 152.18 354.16 153.06
  L 388.23 180.54
  Q 389.78 182.79 392.48 184.02
  L 397.42 188.01
  Q 399.34 190.41 402.20 191.81
  L 404.03 193.25
  Q 404.30 193.59 404.71 193.78
  L 405.27 194.28
  Q 405.67 194.77 406.22 195.02
  Q 406.41 195.14 406.48 195.26
  L 412.70 200.32
  Q 413.26 201.20 414.19 201.50
  L 421.75 207.63
  Q 421.86 207.63 421.92 207.76
  Q 425.89 211.86 430.69 214.82
  L 435.61 218.81
  L 470.92 248.12
  A 0.79 0.78 -18.8 0 0 471.21 248.26
  Q 473.00 248.72 474.34 249.62
  A 1.18 1.11 58.8 0 0 475.03 249.81
  L 477.50 249.73
  Q 483.64 253.45 485.27 261.33
  Q 485.17 263.09 484.10 262.78
  A 0.66 0.47 -9.2 0 1 483.94 262.70
  Q 444.12 231.50 404.37 199.14
  Q 401.18 196.55 400.49 195.97
  Q 398.79 194.57 370.40 171.85
  Q 334.57 143.18 319.53 130.72
  C 304.75 118.47 292.22 108.76 274.72 94.57
  Q 272.38 92.68 266.66 88.32
  C 263.22 85.71 261.19 83.08 258.07 81.05
  Q 255.50 79.38 251.35 76.00
  Q 243.88 69.90 236.39 63.63
  C 233.58 61.27 231.09 59.80 228.12 57.16
  Q 227.09 56.24 222.14 52.22
  Q 204.92 38.24 203.82 37.30
  C 199.49 33.53 196.26 31.13 191.86 27.59
  Q 180.53 18.48 179.19 17.55
  C 175.19 14.78 172.68 12.19 167.97 8.54
  A 0.58 0.58 0.0 0 0 167.03 8.98
  Q 166.82 14.97 167.26 18.38
  Q 167.88 23.27 167.67 25.67
  Q 167.50 27.55 167.73 33.00
  Q 168.37 48.43 168.86 65.75
  C 168.90 67.17 169.31 68.78 169.13 69.84
  Q 168.81 71.80 169.69 84.01
  Q 170.05 88.90 171.09 118.23
  C 171.18 120.67 170.53 123.46 171.48 126.00
  A 1.49 1.46 44.4 0 1 171.50 127.00
  C 170.66 129.44 171.59 132.89 171.69 135.96
  Q 172.39 156.87 172.44 165.50
  Q 172.51 176.91 173.10 180.40
  A 1.59 1.53 -66.5 0 0 173.32 180.99
  L 174.49 182.83
  A 0.37 0.33 -62.6 0 1 174.55 183.06
  L 174.33 191.28
  A 1.86 1.60 -40.6 0 1 174.29 191.54
  Q 173.36 195.35 173.90 198.73
  C 174.23 200.82 173.65 202.68 173.86 204.74
  Q 174.11 207.24 174.08 209.23
  Q 173.88 224.71 175.15 240.28
  C 175.52 244.77 175.43 248.31 175.44 254.18
  Q 175.44 256.09 175.68 258.30
  C 175.93 260.73 175.30 263.38 175.99 265.55
  C 176.70 267.75 175.93 270.78 176.17 273.37
  Q 176.45 276.45 176.37 281.35
  A 5.40 5.09 -52.8 0 0 176.49 282.47
  C 177.22 285.75 176.44 288.87 177.22 292.84
  C 177.71 295.31 176.76 298.16 177.35 300.76
  C 177.93 303.34 176.91 306.44 177.45 308.29
  Q 178.34 311.33 177.93 313.14
  C 177.38 315.50 177.93 316.88 178.45 319.45
  A 4.63 4.55 -46.2 0 1 178.47 321.20
  Q 177.91 324.35 178.41 327.25
  C 178.82 329.63 178.29 331.62 178.33 334.26
  Q 178.38 336.88 180.86 338.39
  Q 190.08 343.96 210.78 356.68
  Q 226.82 366.54 229.90 368.08
  C 234.30 370.28 238.10 373.07 242.83 375.96
  Q 261.43 387.35 276.50 396.22
  Q 293.04 405.95 303.19 412.27
  Q 317.83 421.40 326.74 426.72
  Q 332.62 430.24 369.08 452.15
  Q 406.47 474.61 423.22 485.04
  C 429.31 488.82 435.43 492.08 441.17 495.97
  Q 444.99 498.56 454.64 504.10
  Q 473.05 514.67 493.31 527.53
  C 495.62 528.99 497.19 530.74 499.36 532.19
  A 1.08 1.08 0.0 0 0 500.02 532.37
  Q 500.16 532.36 500.19 532.36
  A 5.78 5.51 -24.6 0 1 501.23 532.72
  L 504.95 534.50
  A 1.77 1.70 78.1 0 1 505.42 534.82
  Q 507.68 536.93 510.48 537.79
  Q 510.53 536.36 512.00 536.52
  L 512.00 544.85
  Q 507.31 549.65 504.89 541.62
  Q 504.74 541.12 504.54 540.92
  A 0.24 0.24 0.0 0 0 504.15 541.17
  Q 505.33 544.41 502.09 545.34
  A 0.92 0.92 0.0 0 1 501.37 545.25
  Q 493.51 540.66 486.47 537.52
  Q 485.82 537.23 484.76 536.11
  A 1.30 1.29 -20.8 0 0 483.88 535.72
  Q 479.55 535.54 475.55 533.25
  Q 477.04 533.61 477.59 533.18
  A 0.85 0.84 -46.9 0 0 477.55 531.81
  Q 461.53 520.77 444.71 512.35
  Q 442.43 508.60 439.02 507.23
  Q 427.01 502.40 419.68 497.01
  A 3.18 3.16 -16.9 0 0 418.83 496.56
  Q 415.95 495.59 413.21 493.79
  Q 401.40 486.05 394.72 482.13
  Q 391.43 480.20 389.05 479.09
  C 384.89 477.14 381.78 474.57 377.95 472.27
  Q 373.39 469.54 365.34 463.95
  C 361.66 461.41 356.05 458.56 353.28 457.28
  A 1.86 1.77 60.6 0 0 352.76 457.12
  Q 351.18 456.89 350.34 455.94
  A 1.88 1.83 80.6 0 0 349.73 455.49
  Q 341.57 451.68 335.48 446.71
  A 3.08 2.93 77.5 0 0 334.99 446.38
  L 328.82 443.28
  A 5.86 5.73 76.6 0 1 327.84 442.66
  Q 325.17 440.53 322.04 438.97
  Q 321.96 438.93 321.88 438.82
  Q 321.73 438.61 321.58 438.54
  A 0.21 0.13 62.7 0 0 321.55 438.88
  Q 322.84 439.81 322.94 440.03
  A 0.44 0.44 0.0 0 1 322.62 440.66
  Q 321.93 440.78 318.12 439.68
  Q 315.82 439.03 315.47 438.08
  Q 315.31 437.65 315.40 437.41
  Q 315.53 437.07 315.84 436.97
  A 0.48 0.48 0.0 0 0 316.08 436.25
  Q 315.11 434.80 314.25 434.86
  A 0.74 0.73 78.1 0 1 313.52 434.38
  Q 313.39 434.00 312.75 433.54
  Q 308.26 430.22 303.64 428.59
  A 1.80 1.46 65.0 0 1 303.31 428.43
  L 290.70 420.85
  A 4.21 4.06 84.3 0 1 289.63 419.94
  Q 286.59 416.32 283.56 415.30
  A 1.27 1.26 5.9 0 0 281.90 416.64
  C 282.34 420.52 276.23 419.53 274.11 418.81
  Q 271.17 417.80 272.41 414.95
  A 0.68 0.67 38.9 0 1 273.58 414.83
  Q 274.96 416.78 276.60 417.66
  A 2.19 2.13 -29.5 0 0 277.59 417.92
  Q 278.82 417.92 279.69 416.36
  A 1.31 1.30 -36.8 0 0 279.83 415.43
  Q 279.43 413.60 277.24 412.76
  Q 274.50 411.71 271.89 409.86
  Q 266.46 406.03 263.37 403.83
  Q 259.94 401.39 258.86 401.11
  A 1.78 1.75 -17.3 0 1 258.18 400.76
  Q 254.72 397.88 251.85 396.47
  A 4.48 4.08 -9.8 0 1 251.02 395.94
  L 249.19 394.46
  A 2.71 2.59 69.2 0 0 248.10 393.94
  Q 245.95 393.48 242.00 391.24
  Q 235.33 387.45 226.16 382.06
  Q 221.87 379.54 216.19 376.85
  Q 210.89 374.34 206.53 371.01
  C 205.07 369.90 203.42 369.58 201.92 368.35
  A 3.34 3.34 0.0 0 0 201.25 367.93
  L 197.32 366.07
  A 0.91 0.75 -5.7 0 1 197.14 365.95
  Q 193.01 362.32 192.13 361.82
  Q 187.52 359.17 183.52 356.30
  A 0.80 0.46 59.9 0 0 183.38 356.22
  L 177.97 353.95
  A 3.81 3.72 -12.9 0 1 177.02 353.37
  Q 175.00 351.73 172.06 350.20
  Q 169.67 348.96 169.11 348.12
  C 167.41 345.56 167.64 341.79 168.03 338.90
  A 5.49 5.33 -48.7 0 0 167.93 336.89
  Q 167.00 333.02 167.06 329.16
  Q 167.11 325.76 167.00 323.33
  C 166.60 314.65 166.25 310.40 166.34 306.54
  Q 166.41 303.92 165.54 301.30
  A 2.99 2.88 -55.2 0 1 165.39 300.37
  L 165.15 262.25
  A 2.29 2.11 36.9 0 0 165.03 261.60
  Q 163.40 256.89 164.50 253.55
  A 6.40 6.32 -36.7 0 0 164.82 251.44
  Q 164.65 242.78 164.16 233.16
  C 163.32 216.84 163.05 200.23 162.40 183.75
  Q 161.97 172.76 162.08 166.75
  Q 162.12 164.87 160.57 163.81
  A 0.70 0.70 0.0 0 0 159.72 163.84
  Q 159.34 164.14 158.75 164.14
  A 0.01 0.01 0.0 0 1 158.75 164.12
  C 161.12 163.14 161.65 161.44 161.33 158.91
  Q 160.29 150.63 160.83 145.98
  C 161.21 142.71 159.91 139.07 160.63 136.11
  C 161.32 133.32 160.19 130.84 160.07 127.70
  C 160.00 125.92 158.63 123.83 159.22 121.91
  Q 160.50 117.71 160.24 117.03
  Q 160.09 116.63 160.04 116.60
  Q 159.92 116.50 159.67 116.46
  A 0.52 0.52 0.0 0 1 159.27 115.79
  Q 160.71 111.36 159.17 105.61
  Q 158.71 103.89 158.52 102.31
  A 2.48 2.43 50.2 0 1 158.60 101.33
  Q 159.88 96.77 157.96 92.58
  Q 160.29 91.30 160.13 89.32
  Q 159.02 75.18 159.33 59.25
  Q 159.42 54.61 158.22 45.87
  C 157.44 40.16 157.60 33.52 157.01 27.32
  Q 157.72 22.98 156.09 23.99
  C 154.86 20.44 152.55 15.73 151.48 11.13
  C 150.87 8.53 152.40 6.78 154.41 5.66
  Q 158.74 3.23 163.07 0.77
  Z
  M 165.5007 2.7875
  A 1.72 1.72 0.0 0 0 163.7102 1.1410
  L 163.4105 1.1536
  A 1.72 1.72 0.0 0 0 161.7640 2.9441
  L 162.3193 16.1925
  A 1.72 1.72 0.0 0 0 164.1098 17.8390
  L 164.4095 17.8264
  A 1.72 1.72 0.0 0 0 166.0560 16.0359
  L 165.5007 2.7875
  Z"
/>
<rect fill="#77746f" x="-1.87" y="-8.35" transform="translate(163.91,9.49) rotate(-2.4)" width="3.74" height="16.70" rx="1.72"/>
<path fill="#1b3161" d="
  M 485.27 261.33
  L 487.65 265.96
  A 2.26 2.22 88.1 0 0 488.72 266.98
  L 489.32 267.25
  A 0.27 0.27 0.0 0 1 489.29 267.75
  Q 488.98 267.83 488.47 267.71
  A 1.24 1.09 -77.6 0 0 487.13 268.70
  Q 486.27 272.77 488.47 276.29
  A 0.37 0.37 0.0 0 1 488.07 276.84
  Q 487.25 276.64 486.63 275.81
  A 0.92 0.92 0.0 0 0 484.97 276.41
  C 485.43 285.89 486.68 292.58 487.13 301.23
  Q 487.52 308.71 489.01 316.16
  Q 490.47 323.48 490.59 328.00
  Q 490.72 333.05 492.36 352.65
  C 492.88 358.98 493.82 363.31 494.61 369.12
  Q 494.91 371.29 496.67 372.52
  A 0.64 0.63 17.7 0 0 497.67 372.01
  L 497.67 366.64
  A 0.55 0.55 0.0 0 1 498.41 366.12
  Q 500.64 366.90 501.75 368.05
  Q 503.19 369.54 505.00 369.11
  Q 508.53 368.28 512.00 368.66
  L 512.00 370.15
  L 511.61 371.04
  A 0.42 0.41 -55.1 0 1 510.94 371.16
  Q 510.31 370.51 509.75 370.45
  Q 506.42 370.06 503.43 369.48
  A 3.52 3.52 0.0 0 0 499.86 370.94
  L 498.07 373.53
  A 1.91 1.89 -28.7 0 0 497.74 374.63
  L 497.87 381.39
  Q 496.43 381.60 496.34 384.00
  C 496.03 392.32 497.97 401.44 498.40 410.00
  Q 498.74 417.00 499.61 422.33
  A 0.69 0.69 0.0 0 1 499.14 423.09
  Q 498.67 423.24 498.02 423.09
  C 494.01 420.38 489.86 417.72 486.10 414.84
  Q 476.76 407.68 467.72 401.81
  Q 455.51 393.88 449.05 389.23
  Q 425.88 372.52 405.62 359.52
  Q 400.54 356.25 398.25 354.58
  C 392.10 350.06 388.40 347.72 382.04 343.03
  C 376.06 338.63 370.40 335.33 364.83 331.20
  C 363.33 330.08 362.36 328.77 362.50 326.99
  Q 362.79 323.38 361.91 318.52
  Q 361.71 317.44 362.08 316.90
  A 1.48 1.48 0.0 0 1 364.28 316.60
  L 368.64 320.35
  A 0.37 0.37 0.0 0 0 369.25 320.05
  L 368.41 304.79
  A 1.96 1.87 34.3 0 0 368.31 304.32
  Q 367.02 300.94 368.23 300.00
  Q 369.80 299.44 369.93 298.44
  C 370.37 294.90 369.04 290.21 365.36 289.01
  L 344.76 274.83
  A 0.58 0.57 -74.4 0 0 343.86 275.34
  L 345.16 296.09
  Q 345.17 296.15 345.18 296.21
  Q 346.03 299.92 346.05 303.98
  A 1.26 1.25 -75.2 0 0 346.68 305.07
  L 352.30 308.31
  A 4.36 4.34 -76.8 0 1 354.46 311.82
  L 355.10 322.39
  A 1.21 1.21 0.0 0 1 353.22 323.47
  C 350.97 321.98 349.12 319.91 346.91 318.57
  C 340.19 314.48 334.25 309.68 327.27 305.05
  Q 313.66 296.04 310.26 293.97
  C 308.78 293.07 307.17 291.44 307.19 289.77
  Q 307.23 285.33 306.50 278.32
  A 0.96 0.96 0.0 0 1 308.00 277.43
  L 313.82 281.45
  A 0.44 0.44 0.0 0 0 314.51 281.08
  Q 314.37 275.78 314.03 268.37
  C 313.90 265.54 313.01 263.06 313.69 260.48
  A 1.96 1.95 -71.1 0 0 312.56 258.17
  C 309.12 256.72 307.11 254.50 304.53 252.80
  Q 303.10 251.86 288.87 241.50
  A 0.32 0.32 0.0 0 0 288.36 241.78
  L 289.73 264.80
  A 1.53 1.53 0.0 0 0 290.74 266.15
  C 294.04 267.34 297.73 269.32 298.05 273.00
  Q 298.57 279.02 299.00 284.20
  A 0.86 0.86 0.0 0 1 297.66 284.98
  L 249.00 251.44
  A 0.70 0.70 0.0 0 0 247.90 252.01
  L 247.90 257.56
  A 2.67 2.66 16.6 0 0 249.11 259.79
  Q 259.06 266.26 262.58 268.96
  Q 266.13 271.70 268.10 272.83
  Q 271.03 274.53 271.31 274.94
  Q 271.65 275.43 297.37 292.41
  Q 304.58 297.18 314.01 303.92
  Q 319.32 307.72 330.63 315.61
  Q 334.60 318.38 336.26 319.54
  Q 343.75 324.82 352.01 329.78
  A 5.02 5.02 0.0 0 1 352.81 330.38
  C 354.07 331.55 355.30 332.78 356.81 333.67
  C 365.55 338.84 372.70 344.23 382.89 351.02
  Q 404.44 365.38 409.99 369.51
  C 423.65 379.68 438.80 389.16 453.67 399.67
  Q 463.42 406.57 474.14 413.61
  Q 488.48 423.02 497.48 429.50
  Q 498.75 430.42 500.10 432.66
  Q 498.90 433.35 497.98 432.92
  Q 497.28 432.59 494.63 431.26
  A 1.38 1.38 0.0 0 0 492.67 432.85
  Q 493.39 435.52 496.00 436.30
  A 2.43 2.34 53.2 0 0 496.61 436.40
  L 500.40 436.52
  L 501.58 440.82
  A 3.34 2.83 40.3 0 1 501.68 441.42
  Q 503.43 464.39 504.27 472.47
  Q 504.47 474.41 505.54 474.48
  L 506.52 479.51
  L 504.26 480.18
  A 1.07 1.07 0.0 0 1 503.20 479.91
  L 500.47 477.18
  A 0.79 0.79 0.0 0 0 499.12 477.78
  L 499.47 483.53
  A 1.18 1.17 -81.9 0 0 500.25 484.58
  Q 503.88 485.84 506.05 488.77
  C 506.28 490.79 506.62 492.67 506.63 494.76
  Q 506.64 500.30 507.63 506.01
  C 508.45 510.72 507.86 516.73 508.98 522.27
  Q 509.68 525.76 510.33 532.77
  Q 510.49 534.54 510.48 537.79
  Q 507.68 536.93 505.42 534.82
  A 1.77 1.70 78.1 0 0 504.95 534.50
  L 501.23 532.72
  A 5.78 5.51 -24.6 0 0 500.19 532.36
  Q 500.16 532.36 500.02 532.37
  A 1.08 1.08 0.0 0 1 499.36 532.19
  C 497.19 530.74 495.62 528.99 493.31 527.53
  Q 473.05 514.67 454.64 504.10
  Q 444.99 498.56 441.17 495.97
  C 435.43 492.08 429.31 488.82 423.22 485.04
  Q 406.47 474.61 369.08 452.15
  Q 332.62 430.24 326.74 426.72
  Q 317.83 421.40 303.19 412.27
  Q 293.04 405.95 276.50 396.22
  Q 261.43 387.35 242.83 375.96
  C 238.10 373.07 234.30 370.28 229.90 368.08
  Q 226.82 366.54 210.78 356.68
  Q 190.08 343.96 180.86 338.39
  Q 178.38 336.88 178.33 334.26
  C 178.29 331.62 178.82 329.63 178.41 327.25
  Q 177.91 324.35 178.47 321.20
  A 4.63 4.55 -46.2 0 0 178.45 319.45
  C 177.93 316.88 177.38 315.50 177.93 313.14
  Q 178.34 311.33 177.45 308.29
  C 176.91 306.44 177.93 303.34 177.35 300.76
  C 176.76 298.16 177.71 295.31 177.22 292.84
  C 176.44 288.87 177.22 285.75 176.49 282.47
  A 5.40 5.09 -52.8 0 1 176.37 281.35
  Q 176.45 276.45 176.17 273.37
  C 175.93 270.78 176.70 267.75 175.99 265.55
  C 175.30 263.38 175.93 260.73 175.68 258.30
  Q 175.44 256.09 175.44 254.18
  C 175.43 248.31 175.52 244.77 175.15 240.28
  Q 173.88 224.71 174.08 209.23
  Q 174.11 207.24 173.86 204.74
  C 173.65 202.68 174.23 200.82 173.90 198.73
  Q 173.36 195.35 174.29 191.54
  A 1.86 1.60 -40.6 0 0 174.33 191.28
  L 174.55 183.06
  A 0.37 0.33 -62.6 0 0 174.49 182.83
  L 173.32 180.99
  A 1.59 1.53 -66.5 0 1 173.10 180.40
  Q 172.51 176.91 172.44 165.50
  Q 172.39 156.87 171.69 135.96
  C 171.59 132.89 170.66 129.44 171.50 127.00
  A 1.49 1.46 44.4 0 0 171.48 126.00
  C 170.53 123.46 171.18 120.67 171.09 118.23
  Q 170.05 88.90 169.69 84.01
  Q 168.81 71.80 169.13 69.84
  C 169.31 68.78 168.90 67.17 168.86 65.75
  Q 168.37 48.43 167.73 33.00
  Q 167.50 27.55 167.67 25.67
  Q 167.88 23.27 167.26 18.38
  Q 166.82 14.97 167.03 8.98
  A 0.58 0.58 0.0 0 1 167.97 8.54
  C 172.68 12.19 175.19 14.78 179.19 17.55
  Q 180.53 18.48 191.86 27.59
  C 196.26 31.13 199.49 33.53 203.82 37.30
  Q 204.92 38.24 222.14 52.22
  Q 227.09 56.24 228.12 57.16
  C 231.09 59.80 233.58 61.27 236.39 63.63
  Q 243.88 69.90 251.35 76.00
  Q 255.50 79.38 258.07 81.05
  C 261.19 83.08 263.22 85.71 266.66 88.32
  Q 272.38 92.68 274.72 94.57
  C 292.22 108.76 304.75 118.47 319.53 130.72
  Q 334.57 143.18 370.40 171.85
  Q 398.79 194.57 400.49 195.97
  Q 401.18 196.55 404.37 199.14
  Q 444.12 231.50 483.94 262.70
  A 0.66 0.47 -9.2 0 0 484.10 262.78
  Q 485.17 263.09 485.27 261.33
  Z
  M 180.87 190.62
  A 2.35 2.33 8.5 0 0 182.13 192.31
  L 193.46 198.01
  A 0.87 0.86 -89.8 0 0 194.62 196.85
  C 193.72 195.03 192.57 193.69 190.39 192.79
  Q 186.74 191.28 181.95 188.02
  A 0.89 0.88 -77.9 0 0 180.58 188.91
  L 180.87 190.62
  Z
  M 181.5103 196.5084
  A 1.53 1.03 -132.3 0 0 181.7782 198.3332
  A 1.53 1.03 -132.3 0 0 183.5697 198.7716
  A 1.53 1.03 -132.3 0 0 183.3018 196.9468
  A 1.53 1.03 -132.3 0 0 181.5103 196.5084
  Z
  M 184.6528 280.7861
  A 1.98 0.82 -128.3 0 0 185.2365 282.8482
  A 1.98 0.82 -128.3 0 0 187.1072 283.8939
  A 1.98 0.82 -128.3 0 0 186.5235 281.8318
  A 1.98 0.82 -128.3 0 0 184.6528 280.7861
  Z
  M 203.6502 309.6892
  A 2.93 1.02 -137.2 0 0 205.1070 312.4284
  A 2.93 1.02 -137.2 0 0 207.9498 313.6708
  A 2.93 1.02 -137.2 0 0 206.4930 310.9316
  A 2.93 1.02 -137.2 0 0 203.6502 309.6892
  Z
  M 224.1896 313.1565
  A 2.20 0.80 -98.9 0 0 223.7396 315.4538
  A 2.20 0.80 -98.9 0 0 224.8704 317.5035
  A 2.20 0.80 -98.9 0 0 225.3204 315.2062
  A 2.20 0.80 -98.9 0 0 224.1896 313.1565
  Z
  M 459.7233 316.9695
  A 2.19 1.02 -124.7 0 0 460.1314 319.3507
  A 2.19 1.02 -124.7 0 0 462.2167 320.5705
  A 2.19 1.02 -124.7 0 0 461.8086 318.1893
  A 2.19 1.02 -124.7 0 0 459.7233 316.9695
  Z
  M 223.4342 321.7842
  A 2.61 0.99 -124.7 0 0 224.1061 324.4936
  A 2.61 0.99 -124.7 0 0 226.4058 326.0758
  A 2.61 0.99 -124.7 0 0 225.7339 323.3664
  A 2.61 0.99 -124.7 0 0 223.4342 321.7842
  Z
  M 203.41 326.65
  Q 203.44 326.69 204.54 327.10
  A 1.25 1.25 0.0 0 1 205.28 327.84
  L 206.23 330.39
  A 0.78 0.78 0.0 0 0 206.96 330.90
  L 207.29 330.90
  A 0.82 0.82 0.0 0 0 208.11 329.99
  Q 207.71 326.32 203.66 326.09
  A 0.33 0.33 0.0 0 0 203.41 326.65
  Z
  M 208.91 339.32
  A 0.31 0.30 -16.5 0 0 209.20 338.79
  Q 207.97 337.90 207.06 335.72
  A 0.72 0.72 0.0 0 0 205.68 335.92
  Q 205.53 337.27 206.28 338.24
  A 0.61 0.56 -6.6 0 0 206.54 338.43
  L 208.91 339.32
  Z
  M 226.91 343.52
  L 228.32 341.78
  A 0.16 0.16 0.0 0 0 228.30 341.56
  L 227.30 340.75
  A 5.03 1.25 39.1 0 0 222.60 338.54
  L 222.57 338.59
  A 5.03 1.25 39.1 0 0 225.68 342.73
  L 226.68 343.55
  A 0.16 0.16 0.0 0 0 226.91 343.52
  Z
  M 303.69 357.03
  Q 302.74 354.53 303.26 350.96
  A 1.40 1.39 22.1 0 0 302.68 349.61
  L 295.56 344.71
  A 0.70 0.69 17.3 0 0 294.47 345.28
  L 294.47 351.72
  A 1.31 1.28 -75.4 0 0 295.12 352.85
  L 303.15 357.49
  A 0.38 0.38 0.0 0 0 303.69 357.03
  Z
  M 319.94 368.68
  A 0.05 0.05 0.0 0 0 320.03 368.64
  L 319.52 360.14
  A 0.40 0.40 0.0 0 0 319.23 359.77
  Q 315.88 358.73 312.68 355.53
  A 0.66 0.66 0.0 0 0 311.57 356.12
  Q 312.26 359.70 311.39 362.83
  A 0.78 0.78 0.0 0 0 311.89 363.78
  Q 316.05 365.19 319.94 368.68
  Z
  M 227.17 355.89
  L 225.34 356.07
  A 0.28 0.28 0.0 0 0 225.09 356.37
  L 225.11 356.65
  A 3.08 1.15 84.4 0 0 226.56 359.61
  L 226.66 359.60
  A 3.08 1.15 84.4 0 0 227.50 356.42
  L 227.47 356.14
  A 0.28 0.28 0.0 0 0 227.17 355.89
  Z
  M 234.4327 361.6209
  A 2.10 1.23 -115.9 0 0 234.2435 364.0473
  A 2.10 1.23 -115.9 0 0 236.2673 365.3991
  A 2.10 1.23 -115.9 0 0 236.4565 362.9727
  A 2.10 1.23 -115.9 0 0 234.4327 361.6209
  Z
  M 330.40 375.10
  Q 332.41 376.15 334.86 378.27
  A 0.48 0.48 0.0 0 0 335.65 377.91
  L 335.65 371.09
  A 0.83 0.82 -76.3 0 0 335.21 370.36
  Q 334.79 370.14 333.24 369.33
  Q 331.22 368.28 328.77 366.16
  A 0.48 0.48 0.0 0 0 327.99 366.52
  L 327.99 373.34
  A 0.83 0.82 -76.3 0 0 328.42 374.07
  Q 328.84 374.29 330.40 375.10
  Z
  M 292.99 366.86
  Q 293.01 366.95 294.13 367.25
  Q 294.38 367.32 295.29 368.37
  Q 295.52 368.64 296.03 370.31
  A 0.72 0.72 0.0 0 0 297.44 370.17
  Q 297.54 369.11 296.80 368.00
  A 1.21 1.15 83.9 0 0 296.27 367.55
  L 293.65 366.37
  A 0.47 0.47 0.0 0 0 292.99 366.86
  Z
  M 351.07 388.07
  A 0.65 0.65 0.0 0 0 352.05 387.46
  L 351.71 381.68
  A 1.55 1.55 0.0 0 0 350.53 380.27
  Q 348.28 379.71 345.27 376.93
  A 0.79 0.78 -68.6 0 0 343.95 377.51
  L 343.95 382.82
  A 1.97 1.96 15.1 0 0 344.93 384.52
  L 351.07 388.07
  Z
  M 306.45 383.35
  L 305.36 380.40
  A 0.27 0.27 0.0 0 0 305.01 380.24
  L 304.73 380.35
  A 1.73 1.59 69.8 0 0 303.84 382.52
  L 303.91 382.73
  A 1.73 1.59 69.8 0 0 306.00 383.80
  L 306.29 383.70
  A 0.27 0.27 0.0 0 0 306.45 383.35
  Z
  M 367.70 399.39
  A 0.05 0.05 0.0 0 0 367.79 399.35
  L 367.21 391.02
  A 0.39 0.39 0.0 0 0 366.92 390.66
  Q 363.63 389.67 360.46 386.56
  A 0.65 0.64 16.4 0 0 359.38 387.15
  Q 360.09 390.66 359.27 393.73
  A 0.77 0.76 16.8 0 0 359.77 394.66
  Q 363.86 396.00 367.70 399.39
  Z
  M 383.05 409.09
  A 0.05 0.05 0.0 0 0 383.13 409.05
  L 382.42 400.80
  A 0.39 0.39 0.0 0 0 382.12 400.44
  Q 378.84 399.52 375.64 396.49
  A 0.64 0.64 0.0 0 0 374.58 397.09
  Q 375.34 400.56 374.58 403.62
  A 0.76 0.76 0.0 0 0 375.09 404.53
  Q 379.17 405.80 383.05 409.09
  Z
  M 392.55 415.16
  Q 394.48 415.92 396.83 418.23
  A 0.34 0.34 0.0 0 0 397.41 417.96
  L 396.98 410.68
  A 1.08 1.07 -82.8 0 0 396.25 409.73
  Q 395.42 409.46 394.66 409.16
  Q 392.72 408.40 390.37 406.10
  A 0.34 0.34 0.0 0 0 389.79 406.37
  L 390.22 413.65
  A 1.08 1.07 -82.8 0 0 390.95 414.59
  Q 391.78 414.87 392.55 415.16
  Z
  M 412.12 427.83
  A 0.05 0.05 0.0 0 0 412.20 427.79
  L 411.67 420.01
  A 0.37 0.36 6.6 0 0 411.40 419.68
  Q 408.33 418.75 405.37 415.85
  A 0.60 0.60 0.0 0 0 404.36 416.39
  Q 405.02 419.67 404.25 422.54
  A 0.72 0.71 16.9 0 0 404.71 423.40
  Q 408.53 424.66 412.12 427.83
  Z
  M 374.5951 417.7897
  A 2.32 0.93 -138.4 0 0 375.7125 420.0255
  A 2.32 0.93 -138.4 0 0 378.0649 420.8703
  A 2.32 0.93 -138.4 0 0 376.9475 418.6345
  A 2.32 0.93 -138.4 0 0 374.5951 417.7897
  Z
  M 390.6888 419.2161
  A 1.77 0.98 -103.1 0 0 390.1355 421.1621
  A 1.77 0.98 -103.1 0 0 391.4912 422.6639
  A 1.77 0.98 -103.1 0 0 392.0445 420.7179
  A 1.77 0.98 -103.1 0 0 390.6888 419.2161
  Z
  M 367.3227 420.5367
  A 3.10 0.96 -139.5 0 0 369.0565 423.2800
  A 3.10 0.96 -139.5 0 0 372.0373 424.5633
  A 3.10 0.96 -139.5 0 0 370.3035 421.8200
  A 3.10 0.96 -139.5 0 0 367.3227 420.5367
  Z
  M 383.1196 422.5788
  A 2.13 0.79 -116.8 0 0 383.3749 424.8362
  A 2.13 0.79 -116.8 0 0 385.0404 426.3812
  A 2.13 0.79 -116.8 0 0 384.7851 424.1238
  A 2.13 0.79 -116.8 0 0 383.1196 422.5788
  Z
  M 426.33 436.40
  L 425.52 428.90
  A 0.43 0.43 0.0 0 0 425.21 428.53
  Q 422.06 427.60 419.28 424.65
  A 0.32 0.32 0.0 0 0 418.73 424.89
  L 419.13 431.69
  A 0.76 0.75 -76.5 0 0 419.48 432.27
  L 426.21 436.47
  A 0.08 0.08 0.0 0 0 426.33 436.40
  Z
  M 440.45 444.87
  L 440.25 439.87
  A 2.57 2.57 0.0 0 0 439.17 437.89
  L 433.75 434.01
  A 0.60 0.59 16.6 0 0 432.81 434.52
  L 433.08 440.93
  A 1.01 1.00 -81.2 0 0 433.73 441.83
  Q 437.54 443.22 439.55 445.26
  A 0.52 0.52 0.0 0 0 440.45 444.87
  Z
  M 394.95 446.05
  L 392.54 442.08
  A 0.27 0.27 0.0 0 0 392.17 441.99
  L 392.04 442.07
  A 2.40 2.13 58.8 0 0 391.46 445.23
  L 391.65 445.56
  A 2.40 2.13 58.8 0 0 394.72 446.51
  L 394.86 446.42
  A 0.27 0.27 0.0 0 0 394.95 446.05
  Z
  M 454.21 453.57
  L 453.93 448.80
  A 2.46 2.45 -74.4 0 0 452.87 446.92
  L 447.62 443.31
  A 0.57 0.57 0.0 0 0 446.73 443.81
  L 447.10 449.93
  A 0.97 0.96 -82.2 0 0 447.74 450.78
  Q 451.40 452.04 453.36 453.96
  A 0.50 0.50 0.0 0 0 454.21 453.57
  Z
  M 467.04 462.03
  L 466.96 457.31
  A 2.42 2.42 0.0 0 0 465.99 455.41
  L 460.97 451.63
  A 0.56 0.56 0.0 0 0 460.07 452.09
  L 460.18 458.14
  A 0.95 0.95 0.0 0 0 460.77 459.01
  Q 464.33 460.40 466.18 462.38
  A 0.50 0.49 -67.1 0 0 467.04 462.03
  Z
  M 407.15 451.38
  L 405.35 452.64
  A 0.29 0.29 0.0 0 0 405.28 453.04
  L 405.55 453.43
  A 3.31 1.28 55.1 0 0 408.50 455.42
  L 408.68 455.29
  A 3.31 1.28 55.1 0 0 407.83 451.84
  L 407.56 451.45
  A 0.29 0.29 0.0 0 0 407.15 451.38
  Z
  M 481.06 472.11
  Q 479.78 468.74 480.26 465.72
  A 2.22 2.22 0.0 0 0 479.18 463.46
  L 474.31 460.65
  A 0.66 0.66 0.0 0 0 473.32 461.27
  L 473.71 467.81
  A 0.87 0.86 -87.6 0 0 474.45 468.62
  L 476.72 468.97
  A 1.10 1.06 -18.4 0 1 477.29 469.24
  L 480.67 472.38
  A 0.24 0.24 0.0 0 0 481.06 472.11
  Z
  M 493.63 479.02
  L 492.56 472.86
  A 2.01 1.99 4.9 0 0 491.25 471.32
  Q 489.28 470.64 487.42 468.96
  A 0.48 0.48 0.0 0 0 486.62 469.31
  L 486.62 475.00
  A 1.39 1.37 15.2 0 0 487.31 476.19
  L 492.99 479.47
  A 0.43 0.43 0.0 0 0 493.63 479.02
  Z"
/>
<path fill="#150423" d="
  M 157.01 27.32
  Q 156.08 25.50 156.09 23.99
  Q 157.72 22.98 157.01 27.32
  Z"
/>
<path fill="#1b3161" d="
  M 205.50 32.67
  L 198.65 27.87
  L 198.33 26.71
  L 205.50 32.67
  Z"
/>
<path fill="#150423" d="
  M 236.50 57.76
  Q 235.27 57.16 234.21 56.30
  Q 222.26 46.62 210.25 37.01
  Q 208.42 35.54 206.86 33.76
  L 236.50 57.76
  Z"
/>
<path fill="#150423" d="
  M 237.71 58.79
  Q 237.35 58.66 237.25 58.37
  Q 237.54 58.51 237.71 58.79
  Z"
/>
<path fill="#150423" d="
  M 242.27 62.59
  L 238.29 59.23
  L 242.27 62.59
  Z"
/>
<path fill="#150423" d="
  M 243.75 63.76
  Q 242.88 63.52 242.45 62.80
  Q 243.31 62.94 243.75 63.76
  Z"
/>
<path fill="#150423" d="
  M 244.44 64.28
  Q 244.00 64.07 243.75 63.76
  Q 244.25 63.87 244.44 64.28
  Z"
/>
<path fill="#150423" d="
  M 261.30 77.81
  L 248.19 67.33
  L 261.30 77.81
  Z"
/>
<path fill="#150423" d="
  M 301.68 110.87
  L 261.30 77.81
  L 301.68 110.87
  Z"
/>
<path fill="#77746f" d="
  M 157.96 92.58
  Q 159.88 96.77 158.60 101.33
  A 2.48 2.43 50.2 0 0 158.52 102.31
  Q 158.71 103.89 159.17 105.61
  Q 160.71 111.36 159.27 115.79
  A 0.52 0.52 0.0 0 0 159.67 116.46
  Q 159.92 116.50 160.04 116.60
  Q 160.09 116.63 160.24 117.03
  Q 160.50 117.71 159.22 121.91
  C 158.63 123.83 160.00 125.92 160.07 127.70
  C 160.19 130.84 161.32 133.32 160.63 136.11
  C 159.91 139.07 161.21 142.71 160.83 145.98
  Q 160.29 150.63 161.33 158.91
  C 161.65 161.44 161.12 163.14 158.75 164.12
  A 0.01 0.01 0.0 0 0 158.75 164.14
  Q 159.34 164.14 159.72 163.84
  A 0.70 0.70 0.0 0 1 160.57 163.81
  Q 162.12 164.87 162.08 166.75
  Q 161.97 172.76 162.40 183.75
  C 163.05 200.23 163.32 216.84 164.16 233.16
  Q 164.65 242.78 164.82 251.44
  A 6.40 6.32 -36.7 0 1 164.50 253.55
  Q 163.40 256.89 165.03 261.60
  A 2.29 2.11 36.9 0 1 165.15 262.25
  L 165.39 300.37
  A 2.99 2.88 -55.2 0 0 165.54 301.30
  Q 166.41 303.92 166.34 306.54
  C 166.25 310.40 166.60 314.65 167.00 323.33
  Q 167.11 325.76 167.06 329.16
  Q 167.00 333.02 167.93 336.89
  A 5.49 5.33 -48.7 0 1 168.03 338.90
  C 167.64 341.79 167.41 345.56 169.11 348.12
  Q 169.67 348.96 172.06 350.20
  Q 175.00 351.73 177.02 353.37
  A 3.81 3.72 -12.9 0 0 177.97 353.95
  L 183.38 356.22
  A 0.80 0.46 59.9 0 1 183.52 356.30
  Q 187.52 359.17 192.13 361.82
  Q 193.01 362.32 197.14 365.95
  A 0.91 0.75 -5.7 0 0 197.32 366.07
  L 201.25 367.93
  A 3.34 3.34 0.0 0 1 201.92 368.35
  C 203.42 369.58 205.07 369.90 206.53 371.01
  Q 210.89 374.34 216.19 376.85
  Q 221.87 379.54 226.16 382.06
  Q 235.33 387.45 242.00 391.24
  Q 245.95 393.48 248.10 393.94
  A 2.71 2.59 69.2 0 1 249.19 394.46
  L 251.02 395.94
  A 4.48 4.08 -9.8 0 0 251.85 396.47
  Q 254.72 397.88 258.18 400.76
  A 1.78 1.75 -17.3 0 0 258.86 401.11
  Q 259.94 401.39 263.37 403.83
  Q 266.46 406.03 271.89 409.86
  Q 274.50 411.71 277.24 412.76
  Q 279.43 413.60 279.83 415.43
  A 1.31 1.30 -36.8 0 1 279.69 416.36
  Q 278.82 417.92 277.59 417.92
  A 2.19 2.13 -29.5 0 1 276.60 417.66
  Q 274.96 416.78 273.58 414.83
  A 0.68 0.67 38.9 0 0 272.41 414.95
  Q 271.17 417.80 274.11 418.81
  C 276.23 419.53 282.34 420.52 281.90 416.64
  A 1.27 1.26 5.9 0 1 283.56 415.30
  Q 286.59 416.32 289.63 419.94
  A 4.21 4.06 84.3 0 0 290.70 420.85
  L 303.31 428.43
  A 1.80 1.46 65.0 0 0 303.64 428.59
  Q 308.26 430.22 312.75 433.54
  Q 313.39 434.00 313.52 434.38
  A 0.74 0.73 78.1 0 0 314.25 434.86
  Q 315.11 434.80 316.08 436.25
  A 0.48 0.48 0.0 0 1 315.84 436.97
  Q 315.53 437.07 315.40 437.41
  Q 315.31 437.65 315.47 438.08
  Q 315.82 439.03 318.12 439.68
  Q 321.93 440.78 322.62 440.66
  A 0.44 0.44 0.0 0 0 322.94 440.03
  Q 322.84 439.81 321.55 438.88
  A 0.21 0.13 62.7 0 1 321.58 438.54
  Q 321.73 438.61 321.88 438.82
  Q 321.96 438.93 322.04 438.97
  Q 325.17 440.53 327.84 442.66
  A 5.86 5.73 76.6 0 0 328.82 443.28
  L 334.99 446.38
  A 3.08 2.93 77.5 0 1 335.48 446.71
  Q 341.57 451.68 349.73 455.49
  A 1.88 1.83 80.6 0 1 350.34 455.94
  Q 351.18 456.89 352.76 457.12
  A 1.86 1.77 60.6 0 1 353.28 457.28
  C 356.05 458.56 361.66 461.41 365.34 463.95
  Q 373.39 469.54 377.95 472.27
  C 381.78 474.57 384.89 477.14 389.05 479.09
  Q 391.43 480.20 394.72 482.13
  Q 401.40 486.05 413.21 493.79
  Q 415.95 495.59 418.83 496.56
  A 3.18 3.16 -16.9 0 1 419.68 497.01
  Q 427.01 502.40 439.02 507.23
  Q 442.43 508.60 444.71 512.35
  Q 434.68 507.57 423.72 505.58
  Q 409.90 503.08 409.36 503.06
  A 4.39 3.94 37.8 0 0 408.40 503.13
  Q 406.77 503.44 401.05 505.06
  Q 399.33 505.54 398.03 506.54
  A 2.03 2.02 -33.5 0 0 397.50 509.13
  L 402.25 517.59
  Q 403.92 521.46 402.58 526.89
  Q 401.07 531.05 399.43 533.66
  Q 396.68 538.00 392.37 541.85
  Q 382.84 550.38 371.35 555.17
  L 355.90 560.00
  L 330.00 560.00
  Q 329.74 559.84 329.30 559.86
  Q 328.83 559.83 328.45 559.68
  A 0.36 0.33 87.1 0 1 328.24 559.47
  L 324.03 548.15
  A 4.83 4.78 -53.2 0 1 323.74 546.06
  C 324.54 536.28 329.00 528.05 334.40 519.93
  C 335.69 517.99 334.61 515.46 334.16 513.38
  Q 330.89 498.52 325.61 488.91
  C 322.63 483.49 316.22 479.78 309.78 475.65
  L 309.56 473.53
  A 0.64 0.64 0.0 0 0 308.70 473.00
  L 308.41 473.12
  A 0.82 0.82 0.0 0 1 307.40 472.72
  C 307.01 471.93 306.32 471.25 305.44 470.90
  Q 303.89 470.28 301.15 468.47
  Q 291.18 461.86 278.46 455.35
  Q 269.97 451.00 263.32 446.96
  Q 262.77 446.62 259.60 445.19
  A 4.12 4.08 75.1 0 1 258.90 444.78
  C 254.83 441.77 252.81 444.98 249.28 445.00
  L 251.34 443.57
  A 1.27 0.78 -52.4 0 1 251.48 443.50
  C 258.81 440.48 265.38 435.66 268.71 428.46
  Q 271.84 421.72 266.93 416.35
  C 258.53 407.15 243.66 408.16 232.64 411.68
  Q 224.19 414.37 217.93 420.46
  C 214.91 423.40 211.54 428.95 212.40 433.42
  C 214.34 443.46 225.94 447.21 234.94 446.62
  Q 241.81 446.18 248.74 444.90
  Q 248.32 446.60 249.05 446.61
  C 247.18 446.61 245.47 446.54 243.57 446.83
  C 232.73 448.47 219.78 449.80 208.95 454.24
  C 204.01 456.26 193.15 458.78 189.62 454.13
  Q 186.28 449.74 185.27 447.20
  Q 183.84 443.61 183.43 442.65
  A 3.72 3.71 -76.9 0 0 182.81 441.65
  Q 177.29 435.07 176.34 434.16
  C 165.58 423.83 155.70 413.70 142.54 406.72
  Q 141.47 406.16 131.48 401.54
  C 128.93 400.36 126.96 398.00 124.85 394.84
  C 120.96 389.01 115.33 384.91 109.02 382.15
  A 1.85 1.85 0.0 0 1 108.13 381.32
  Q 107.09 379.32 105.99 378.51
  C 101.63 375.26 93.33 370.51 87.84 370.51
  C 81.24 370.52 74.06 369.19 68.56 368.70
  A 0.54 0.53 -87.7 0 1 68.07 368.16
  L 68.07 365.11
  A 0.58 0.57 -80.6 0 1 68.83 364.56
  C 75.18 366.69 81.84 369.56 88.50 368.41
  A 1.36 1.35 84.5 0 0 89.62 367.05
  Q 89.56 364.54 88.19 362.88
  C 79.35 352.25 72.99 346.98 57.45 332.33
  Q 44.73 320.34 29.42 312.92
  A 0.65 0.64 25.3 0 1 29.11 312.08
  Q 29.19 311.89 29.62 311.44
  C 30.93 310.08 30.66 308.11 29.68 306.78
  Q 25.48 301.11 14.49 287.83
  C 11.50 284.22 8.73 281.96 7.60 277.16
  A 4.38 4.25 -50.5 0 1 7.50 275.92
  Q 8.30 264.48 13.73 254.74
  Q 15.34 251.86 20.90 243.40
  Q 24.32 238.19 37.94 218.25
  C 39.67 215.71 42.11 211.74 43.37 208.51
  Q 47.23 198.56 48.43 196.17
  Q 56.74 179.54 69.07 165.71
  L 76.64 176.36
  A 0.54 0.54 0.0 0 1 76.44 177.15
  C 71.84 179.45 68.13 179.61 61.63 180.16
  A 0.86 0.85 -82.2 0 0 60.91 180.71
  L 49.07 212.39
  A 1.42 1.41 10.8 0 0 50.37 214.30
  Q 53.00 214.34 54.17 216.63
  C 55.29 218.83 52.76 220.30 50.68 220.07
  Q 46.74 219.65 44.87 224.07
  Q 39.10 237.74 34.87 252.18
  A 6.04 5.54 -25.4 0 1 34.40 253.34
  L 31.79 258.25
  A 0.39 0.38 0.2 0 0 32.31 258.77
  Q 38.24 255.70 41.93 253.17
  Q 47.61 249.28 77.43 230.21
  Q 109.30 209.82 111.11 208.61
  A 1.53 1.53 0.0 0 0 111.02 206.01
  L 108.96 204.81
  A 1.82 1.82 0.0 0 1 108.23 204.05
  Q 106.77 201.15 106.51 200.82
  A 8.39 1.98 54.6 0 1 105.80 199.88
  Q 105.00 198.78 101.38 195.34
  C 97.14 191.32 94.03 187.42 89.42 182.05
  Q 88.32 180.77 81.67 174.31
  Q 76.04 168.84 72.07 162.42
  Q 83.07 152.25 93.46 143.96
  Q 125.60 118.35 157.96 92.58
  Z
  M 174.96 359.65
  A 0.34 0.34 0.0 0 0 174.32 359.49
  Q 173.48 361.01 172.37 361.86
  A 0.98 0.97 66.8 0 0 172.01 362.78
  Q 172.38 365.12 174.17 366.62
  A 0.48 0.48 0.0 0 0 174.96 366.26
  L 174.96 359.65
  Z"
/>
<path fill="#150423" d="
  M 302.67 111.51
  Q 302.17 111.41 301.68 110.87
  Q 302.34 110.72 302.67 111.51
  Z"
/>
<path fill="#150423" d="
  M 319.40 124.95
  Q 310.57 118.79 302.67 111.51
  Q 311.48 117.66 319.40 124.95
  Z"
/>
<path fill="#150423" d="
  M 320.71 125.78
  Q 320.30 125.59 320.02 125.26
  Q 320.47 125.39 320.71 125.78
  Z"
/>
<path fill="#77746f" d="
  M 321.89 126.84
  Q 321.88 126.99 321.87 127.14
  L 320.94 126.07
  Q 321.81 126.18 321.89 126.84
  Z"
/>
<path fill="#150423" d="
  M 346.22 146.52
  L 321.87 127.14
  Q 321.88 126.99 321.89 126.84
  L 346.22 146.52
  Z"
/>
<path fill="#150423" d="
  M 347.48 147.54
  Q 346.54 147.29 346.22 146.52
  Q 347.01 146.75 347.48 147.54
  Z"
/>
<path fill="#150423" d="
  M 351.16 150.53
  Q 350.91 150.39 350.77 150.13
  Q 351.09 150.22 351.16 150.53
  Z"
/>
<path fill="#150423" d="
  M 354.16 153.06
  Q 352.37 152.18 351.16 150.53
  Q 352.95 151.50 354.16 153.06
  Z"
/>
<path fill="#150423" d="
  M 72.07 162.42
  Q 76.04 168.84 81.67 174.31
  Q 88.32 180.77 89.42 182.05
  C 94.03 187.42 97.14 191.32 101.38 195.34
  Q 105.00 198.78 105.80 199.88
  A 8.39 1.98 54.6 0 0 106.51 200.82
  Q 106.77 201.15 108.23 204.05
  A 1.82 1.82 0.0 0 0 108.96 204.81
  L 111.02 206.01
  A 1.53 1.53 0.0 0 1 111.11 208.61
  Q 109.30 209.82 77.43 230.21
  Q 47.61 249.28 41.93 253.17
  Q 38.24 255.70 32.31 258.77
  A 0.39 0.38 0.2 0 1 31.79 258.25
  L 34.40 253.34
  A 6.04 5.54 -25.4 0 0 34.87 252.18
  Q 39.10 237.74 44.87 224.07
  Q 46.74 219.65 50.68 220.07
  C 52.76 220.30 55.29 218.83 54.17 216.63
  Q 53.00 214.34 50.37 214.30
  A 1.42 1.41 10.8 0 1 49.07 212.39
  L 60.91 180.71
  A 0.86 0.85 -82.2 0 1 61.63 180.16
  C 68.13 179.61 71.84 179.45 76.44 177.15
  A 0.54 0.54 0.0 0 0 76.64 176.36
  L 69.07 165.71
  L 72.07 162.42
  Z"
/>
<path fill="#150423" d="
  M 392.48 184.02
  Q 389.78 182.79 388.23 180.54
  L 392.48 184.02
  Z"
/>
<path fill="#77746f" d="
  M 180.87 190.62
  L 180.58 188.91
  A 0.89 0.88 -77.9 0 1 181.95 188.02
  Q 186.74 191.28 190.39 192.79
  C 192.57 193.69 193.72 195.03 194.62 196.85
  A 0.87 0.86 -89.8 0 1 193.46 198.01
  L 182.13 192.31
  A 2.35 2.33 8.5 0 1 180.87 190.62
  Z"
/>
<path fill="#150423" d="
  M 402.20 191.81
  Q 399.34 190.41 397.42 188.01
  Q 400.16 189.47 402.20 191.81
  Z"
/>
<path fill="#150423" d="
  M 404.71 193.78
  Q 404.30 193.59 404.03 193.25
  Q 404.46 193.40 404.71 193.78
  Z"
/>
<path fill="#150423" d="
  M 406.22 195.02
  Q 405.67 194.77 405.27 194.28
  Q 405.89 194.44 406.22 195.02
  Z"
/>
<path fill="#150423" d="
  M 412.70 200.32
  L 406.48 195.26
  L 412.70 200.32
  Z"
/>
<ellipse fill="#77746f" cx="0.00" cy="0.00" transform="translate(182.54,197.64) rotate(-132.3)" rx="1.53" ry="1.03"/>
<path fill="#150423" d="
  M 414.19 201.50
  Q 413.26 201.20 412.70 200.32
  Q 413.71 200.58 414.19 201.50
  Z"
/>
<path fill="#150423" d="
  M 421.75 207.63
  L 414.19 201.50
  L 421.75 207.63
  Z"
/>
<path fill="#150423" d="
  M 430.69 214.82
  Q 425.89 211.86 421.92 207.76
  L 430.69 214.82
  Z"
/>
<path fill="#1b3161" d="
  M 477.50 249.73
  L 475.03 249.81
  A 1.18 1.11 58.8 0 1 474.34 249.62
  Q 473.00 248.72 471.21 248.26
  A 0.79 0.78 -18.8 0 1 470.92 248.12
  L 435.61 218.81
  Q 447.24 227.85 458.63 237.12
  Q 466.33 243.38 477.50 249.73
  Z"
/>
<path fill="#fccd57" d="
  M 365.36 289.01
  Q 363.16 290.94 364.04 294.01
  Q 365.43 298.87 368.23 300.00
  Q 367.02 300.94 368.31 304.32
  A 1.96 1.87 34.3 0 1 368.41 304.79
  L 369.25 320.05
  A 0.37 0.37 0.0 0 1 368.64 320.35
  L 364.28 316.60
  A 1.48 1.48 0.0 0 0 362.08 316.90
  Q 361.71 317.44 361.91 318.52
  Q 362.79 323.38 362.50 326.99
  C 362.36 328.77 363.33 330.08 364.83 331.20
  C 370.40 335.33 376.06 338.63 382.04 343.03
  C 388.40 347.72 392.10 350.06 398.25 354.58
  Q 400.54 356.25 405.62 359.52
  Q 425.88 372.52 449.05 389.23
  Q 455.51 393.88 467.72 401.81
  Q 476.76 407.68 486.10 414.84
  C 489.86 417.72 494.01 420.38 498.02 423.09
  Q 501.44 424.34 502.63 428.32
  Q 502.25 430.50 500.10 432.66
  Q 498.75 430.42 497.48 429.50
  Q 488.48 423.02 474.14 413.61
  Q 463.42 406.57 453.67 399.67
  C 438.80 389.16 423.65 379.68 409.99 369.51
  Q 404.44 365.38 382.89 351.02
  C 372.70 344.23 365.55 338.84 356.81 333.67
  C 355.30 332.78 354.07 331.55 352.81 330.38
  A 5.02 5.02 0.0 0 0 352.01 329.78
  Q 343.75 324.82 336.26 319.54
  Q 334.60 318.38 330.63 315.61
  Q 319.32 307.72 314.01 303.92
  Q 304.58 297.18 297.37 292.41
  Q 271.65 275.43 271.31 274.94
  Q 271.03 274.53 268.10 272.83
  Q 266.13 271.70 262.58 268.96
  Q 259.06 266.26 249.11 259.79
  A 2.67 2.66 16.6 0 1 247.90 257.56
  L 247.90 252.01
  A 0.70 0.70 0.0 0 1 249.00 251.44
  L 297.66 284.98
  A 0.86 0.86 0.0 0 0 299.00 284.20
  Q 298.57 279.02 298.05 273.00
  C 297.73 269.32 294.04 267.34 290.74 266.15
  A 1.53 1.53 0.0 0 1 289.73 264.80
  L 288.36 241.78
  A 0.32 0.32 0.0 0 1 288.87 241.50
  Q 303.10 251.86 304.53 252.80
  C 307.11 254.50 309.12 256.72 312.56 258.17
  A 1.96 1.95 -71.1 0 1 313.69 260.48
  C 313.01 263.06 313.90 265.54 314.03 268.37
  Q 314.37 275.78 314.51 281.08
  A 0.44 0.44 0.0 0 1 313.82 281.45
  L 308.00 277.43
  A 0.96 0.96 0.0 0 0 306.50 278.32
  Q 307.23 285.33 307.19 289.77
  C 307.17 291.44 308.78 293.07 310.26 293.97
  Q 313.66 296.04 327.27 305.05
  C 334.25 309.68 340.19 314.48 346.91 318.57
  C 349.12 319.91 350.97 321.98 353.22 323.47
  A 1.21 1.21 0.0 0 0 355.10 322.39
  L 354.46 311.82
  A 4.36 4.34 -76.8 0 0 352.30 308.31
  L 346.68 305.07
  A 1.26 1.25 -75.2 0 1 346.05 303.98
  Q 346.03 299.92 345.18 296.21
  Q 345.17 296.15 345.16 296.09
  L 343.86 275.34
  A 0.58 0.57 -74.4 0 1 344.76 274.83
  L 365.36 289.01
  Z
  M 300.0088 255.8854
  A 5.37 1.83 -105.9 0 0 299.7200 261.5513
  A 5.37 1.83 -105.9 0 0 302.9512 266.2146
  A 5.37 1.83 -105.9 0 0 303.2400 260.5487
  A 5.37 1.83 -105.9 0 0 300.0088 255.8854
  Z"
/>
<ellipse fill="#1b3161" cx="0.00" cy="0.00" transform="translate(301.48,261.05) rotate(-105.9)" rx="5.37" ry="1.83"/>
<path fill="#150423" d="
  M 511.11 273.11
  Q 510.99 273.10 510.66 272.76
  A 0.30 0.29 75.8 0 1 510.95 272.27
  Q 511.04 272.29 511.34 272.53
  A 0.33 0.33 0.0 0 1 511.11 273.11
  Z"
/>
<ellipse fill="#77746f" cx="0.00" cy="0.00" transform="translate(185.88,282.34) rotate(-128.3)" rx="1.98" ry="0.82"/>
<path fill="#77746f" d="
  M 368.23 300.00
  Q 365.43 298.87 364.04 294.01
  Q 363.16 290.94 365.36 289.01
  C 369.04 290.21 370.37 294.90 369.93 298.44
  Q 369.80 299.44 368.23 300.00
  Z"
/>
<ellipse fill="#77746f" cx="0.00" cy="0.00" transform="translate(205.80,311.68) rotate(-137.2)" rx="2.93" ry="1.02"/>
<ellipse fill="#77746f" cx="0.00" cy="0.00" transform="translate(224.53,315.33) rotate(-98.9)" rx="2.20" ry="0.80"/>
<ellipse fill="#77746f" cx="0.00" cy="0.00" transform="translate(460.97,318.77) rotate(-124.7)" rx="2.19" ry="1.02"/>
<ellipse fill="#77746f" cx="0.00" cy="0.00" transform="translate(224.92,323.93) rotate(-124.7)" rx="2.61" ry="0.99"/>
<path fill="#77746f" d="
  M 203.66 326.09
  Q 207.71 326.32 208.11 329.99
  A 0.82 0.82 0.0 0 1 207.29 330.90
  L 206.96 330.90
  A 0.78 0.78 0.0 0 1 206.23 330.39
  L 205.28 327.84
  A 1.25 1.25 0.0 0 0 204.54 327.10
  Q 203.44 326.69 203.41 326.65
  A 0.33 0.33 0.0 0 1 203.66 326.09
  Z"
/>
<path fill="#77746f" d="
  M 206.28 338.24
  Q 205.53 337.27 205.68 335.92
  A 0.72 0.72 0.0 0 1 207.06 335.72
  Q 207.97 337.90 209.20 338.79
  A 0.31 0.30 -16.5 0 1 208.91 339.32
  L 206.54 338.43
  A 0.61 0.56 -6.6 0 1 206.28 338.24
  Z"
/>
<path fill="#77746f" d="
  M 226.91 343.52
  A 0.16 0.16 0.0 0 1 226.68 343.55
  L 225.68 342.73
  A 5.03 1.25 39.1 0 1 222.57 338.59
  L 222.60 338.54
  A 5.03 1.25 39.1 0 1 227.30 340.75
  L 228.30 341.56
  A 0.16 0.16 0.0 0 1 228.32 341.78
  L 226.91 343.52
  Z"
/>
<path fill="#fccd57" d="
  M 303.69 357.03
  A 0.38 0.38 0.0 0 1 303.15 357.49
  L 295.12 352.85
  A 1.31 1.28 -75.4 0 1 294.47 351.72
  L 294.47 345.28
  A 0.70 0.69 17.3 0 1 295.56 344.71
  L 302.68 349.61
  A 1.40 1.39 22.1 0 1 303.26 350.96
  Q 302.74 354.53 303.69 357.03
  Z"
/>
<path fill="#fccd57" d="
  M 319.94 368.68
  Q 316.05 365.19 311.89 363.78
  A 0.78 0.78 0.0 0 1 311.39 362.83
  Q 312.26 359.70 311.57 356.12
  A 0.66 0.66 0.0 0 1 312.68 355.53
  Q 315.88 358.73 319.23 359.77
  A 0.40 0.40 0.0 0 1 319.52 360.14
  L 320.03 368.64
  A 0.05 0.05 0.0 0 1 319.94 368.68
  Z"
/>
<path fill="#77746f" d="
  M 227.17 355.89
  A 0.28 0.28 0.0 0 1 227.47 356.14
  L 227.50 356.42
  A 3.08 1.15 84.4 0 1 226.66 359.60
  L 226.56 359.61
  A 3.08 1.15 84.4 0 1 225.11 356.65
  L 225.09 356.37
  A 0.28 0.28 0.0 0 1 225.34 356.07
  L 227.17 355.89
  Z"
/>
<path fill="#150423" d="
  M 174.96 359.65
  L 174.96 366.26
  A 0.48 0.48 0.0 0 1 174.17 366.62
  Q 172.38 365.12 172.01 362.78
  A 0.98 0.97 66.8 0 1 172.37 361.86
  Q 173.48 361.01 174.32 359.49
  A 0.34 0.34 0.0 0 1 174.96 359.65
  Z"
/>
<ellipse fill="#77746f" cx="0.00" cy="0.00" transform="translate(235.35,363.51) rotate(-115.9)" rx="2.10" ry="1.23"/>
<path fill="#fccd57" d="
  M 330.40 375.10
  Q 328.84 374.29 328.42 374.07
  A 0.83 0.82 -76.3 0 1 327.99 373.34
  L 327.99 366.52
  A 0.48 0.48 0.0 0 1 328.77 366.16
  Q 331.22 368.28 333.24 369.33
  Q 334.79 370.14 335.21 370.36
  A 0.83 0.82 -76.3 0 1 335.65 371.09
  L 335.65 377.91
  A 0.48 0.48 0.0 0 1 334.86 378.27
  Q 332.41 376.15 330.40 375.10
  Z"
/>
<path fill="#77746f" d="
  M 293.65 366.37
  L 296.27 367.55
  A 1.21 1.15 83.9 0 1 296.80 368.00
  Q 297.54 369.11 297.44 370.17
  A 0.72 0.72 0.0 0 1 296.03 370.31
  Q 295.52 368.64 295.29 368.37
  Q 294.38 367.32 294.13 367.25
  Q 293.01 366.95 292.99 366.86
  A 0.47 0.47 0.0 0 1 293.65 366.37
  Z"
/>
<path fill="#fccd57" d="
  M 351.07 388.07
  L 344.93 384.52
  A 1.97 1.96 15.1 0 1 343.95 382.82
  L 343.95 377.51
  A 0.79 0.78 -68.6 0 1 345.27 376.93
  Q 348.28 379.71 350.53 380.27
  A 1.55 1.55 0.0 0 1 351.71 381.68
  L 352.05 387.46
  A 0.65 0.65 0.0 0 1 351.07 388.07
  Z"
/>
<path fill="#77746f" d="
  M 306.45 383.35
  A 0.27 0.27 0.0 0 1 306.29 383.70
  L 306.00 383.80
  A 1.73 1.59 69.8 0 1 303.91 382.73
  L 303.84 382.52
  A 1.73 1.59 69.8 0 1 304.73 380.35
  L 305.01 380.24
  A 0.27 0.27 0.0 0 1 305.36 380.40
  L 306.45 383.35
  Z"
/>
<path fill="#77746f" d="
  M 497.87 381.39
  Q 499.38 388.22 502.27 394.42
  Q 501.74 398.58 502.93 402.34
  L 503.09 408.46
  L 503.15 411.21
  L 503.32 413.54
  L 503.34 415.00
  L 503.18 425.45
  Q 502.77 425.83 503.03 426.51
  L 502.63 428.32
  Q 501.44 424.34 498.02 423.09
  Q 498.67 423.24 499.14 423.09
  A 0.69 0.69 0.0 0 0 499.61 422.33
  Q 498.74 417.00 498.40 410.00
  C 497.97 401.44 496.03 392.32 496.34 384.00
  Q 496.43 381.60 497.87 381.39
  Z"
/>
<path fill="#fccd57" d="
  M 367.70 399.39
  Q 363.86 396.00 359.77 394.66
  A 0.77 0.76 16.8 0 1 359.27 393.73
  Q 360.09 390.66 359.38 387.15
  A 0.65 0.64 16.4 0 1 360.46 386.56
  Q 363.63 389.67 366.92 390.66
  A 0.39 0.39 0.0 0 1 367.21 391.02
  L 367.79 399.35
  A 0.05 0.05 0.0 0 1 367.70 399.39
  Z"
/>
<path fill="#1b3161" d="
  M 502.93 402.34
  Q 501.74 398.58 502.27 394.42
  L 504.56 397.71
  A 0.55 0.55 0.0 0 1 504.49 398.43
  Q 502.82 399.96 502.93 402.34
  Z"
/>
<ellipse fill="#150423" cx="0.00" cy="0.00" transform="translate(511.01,396.49) rotate(-52.1)" rx="0.67" ry="0.37"/>
<path fill="#fccd57" d="
  M 383.05 409.09
  Q 379.17 405.80 375.09 404.53
  A 0.76 0.76 0.0 0 1 374.58 403.62
  Q 375.34 400.56 374.58 397.09
  A 0.64 0.64 0.0 0 1 375.64 396.49
  Q 378.84 399.52 382.12 400.44
  A 0.39 0.39 0.0 0 1 382.42 400.80
  L 383.13 409.05
  A 0.05 0.05 0.0 0 1 383.05 409.09
  Z"
/>
<path fill="#fccd57" d="
  M 392.55 415.16
  Q 391.78 414.87 390.95 414.59
  A 1.08 1.07 -82.8 0 1 390.22 413.65
  L 389.79 406.37
  A 0.34 0.34 0.0 0 1 390.37 406.10
  Q 392.72 408.40 394.66 409.16
  Q 395.42 409.46 396.25 409.73
  A 1.08 1.07 -82.8 0 1 396.98 410.68
  L 397.41 417.96
  A 0.34 0.34 0.0 0 1 396.83 418.23
  Q 394.48 415.92 392.55 415.16
  Z"
/>
<path fill="#150423" d="
  M 503.15 411.21
  L 503.09 408.46
  L 503.15 411.21
  Z"
/>
<path fill="#150423" d="
  M 249.28 445.00
  Q 248.49 445.14 248.74 444.90
  Q 241.81 446.18 234.94 446.62
  C 225.94 447.21 214.34 443.46 212.40 433.42
  C 211.54 428.95 214.91 423.40 217.93 420.46
  Q 224.19 414.37 232.64 411.68
  C 243.66 408.16 258.53 407.15 266.93 416.35
  Q 271.84 421.72 268.71 428.46
  C 265.38 435.66 258.81 440.48 251.48 443.50
  A 1.27 0.78 -52.4 0 0 251.34 443.57
  L 249.28 445.00
  Z"
/>
<path fill="#150423" d="
  M 503.34 415.00
  L 503.32 413.54
  Q 503.46 414.27 503.34 415.00
  Z"
/>
<path fill="#fccd57" d="
  M 412.12 427.83
  Q 408.53 424.66 404.71 423.40
  A 0.72 0.71 16.9 0 1 404.25 422.54
  Q 405.02 419.67 404.36 416.39
  A 0.60 0.60 0.0 0 1 405.37 415.85
  Q 408.33 418.75 411.40 419.68
  A 0.37 0.36 6.6 0 1 411.67 420.01
  L 412.20 427.79
  A 0.05 0.05 0.0 0 1 412.12 427.83
  Z"
/>
<ellipse fill="#77746f" cx="0.00" cy="0.00" transform="translate(376.33,419.33) rotate(-138.4)" rx="2.32" ry="0.93"/>
<ellipse fill="#77746f" cx="0.00" cy="0.00" transform="translate(391.09,420.94) rotate(-103.1)" rx="1.77" ry="0.98"/>
<ellipse fill="#77746f" cx="0.00" cy="0.00" transform="translate(369.68,422.55) rotate(-139.5)" rx="3.10" ry="0.96"/>
<ellipse fill="#77746f" cx="0.00" cy="0.00" transform="translate(384.08,424.48) rotate(-116.8)" rx="2.13" ry="0.79"/>
<path fill="#fccd57" d="
  M 426.21 436.47
  L 419.48 432.27
  A 0.76 0.75 -76.5 0 1 419.13 431.69
  L 418.73 424.89
  A 0.32 0.32 0.0 0 1 419.28 424.65
  Q 422.06 427.60 425.21 428.53
  A 0.43 0.43 0.0 0 1 425.52 428.90
  L 426.33 436.40
  A 0.08 0.08 0.0 0 1 426.21 436.47
  Z"
/>
<path fill="#1b3161" d="
  M 503.18 425.45
  Q 503.21 426.07 503.03 426.51
  Q 502.77 425.83 503.18 425.45
  Z"
/>
<path fill="#fccd57" d="
  M 440.45 444.87
  A 0.52 0.52 0.0 0 1 439.55 445.26
  Q 437.54 443.22 433.73 441.83
  A 1.01 1.00 -81.2 0 1 433.08 440.93
  L 432.81 434.52
  A 0.60 0.59 16.6 0 1 433.75 434.01
  L 439.17 437.89
  A 2.57 2.57 0.0 0 1 440.25 439.87
  L 440.45 444.87
  Z"
/>
<path fill="#77746f" d="
  M 505.54 474.48
  Q 504.47 474.41 504.27 472.47
  Q 503.43 464.39 501.68 441.42
  A 3.34 2.83 40.3 0 0 501.58 440.82
  L 500.40 436.52
  Q 501.73 436.34 502.47 436.81
  A 1.04 1.03 -74.8 0 1 502.94 437.64
  C 503.13 443.06 503.03 447.71 503.74 453.74
  Q 504.95 464.08 505.54 474.48
  Z"
/>
<path fill="#77746f" d="
  M 394.95 446.05
  A 0.27 0.27 0.0 0 1 394.86 446.42
  L 394.72 446.51
  A 2.40 2.13 58.8 0 1 391.65 445.56
  L 391.46 445.23
  A 2.40 2.13 58.8 0 1 392.04 442.07
  L 392.17 441.99
  A 0.27 0.27 0.0 0 1 392.54 442.08
  L 394.95 446.05
  Z"
/>
<path fill="#fccd57" d="
  M 454.21 453.57
  A 0.50 0.50 0.0 0 1 453.36 453.96
  Q 451.40 452.04 447.74 450.78
  A 0.97 0.96 -82.2 0 1 447.10 449.93
  L 446.73 443.81
  A 0.57 0.57 0.0 0 1 447.62 443.31
  L 452.87 446.92
  A 2.46 2.45 -74.4 0 1 453.93 448.80
  L 454.21 453.57
  Z"
/>
<path fill="#1b3161" d="
  M 309.78 475.65
  Q 285.20 460.87 258.96 449.30
  Q 254.19 447.20 249.05 446.61
  Q 248.32 446.60 248.74 444.90
  Q 248.49 445.14 249.28 445.00
  C 252.81 444.98 254.83 441.77 258.90 444.78
  A 4.12 4.08 75.1 0 0 259.60 445.19
  Q 262.77 446.62 263.32 446.96
  Q 269.97 451.00 278.46 455.35
  Q 291.18 461.86 301.15 468.47
  Q 303.89 470.28 305.44 470.90
  C 306.32 471.25 307.01 471.93 307.40 472.72
  A 0.82 0.82 0.0 0 0 308.41 473.12
  L 308.70 473.00
  A 0.64 0.64 0.0 0 1 309.56 473.53
  L 309.78 475.65
  Z"
/>
<path fill="#fccd57" d="
  M 467.04 462.03
  A 0.50 0.49 -67.1 0 1 466.18 462.38
  Q 464.33 460.40 460.77 459.01
  A 0.95 0.95 0.0 0 1 460.18 458.14
  L 460.07 452.09
  A 0.56 0.56 0.0 0 1 460.97 451.63
  L 465.99 455.41
  A 2.42 2.42 0.0 0 1 466.96 457.31
  L 467.04 462.03
  Z"
/>
<path fill="#77746f" d="
  M 407.15 451.38
  A 0.29 0.29 0.0 0 1 407.56 451.45
  L 407.83 451.84
  A 3.31 1.28 55.1 0 1 408.68 455.29
  L 408.50 455.42
  A 3.31 1.28 55.1 0 1 405.55 453.43
  L 405.28 453.04
  A 0.29 0.29 0.0 0 1 405.35 452.64
  L 407.15 451.38
  Z"
/>
<path fill="#fccd57" d="
  M 480.67 472.38
  L 477.29 469.24
  A 1.10 1.06 -18.4 0 0 476.72 468.97
  L 474.45 468.62
  A 0.87 0.86 -87.6 0 1 473.71 467.81
  L 473.32 461.27
  A 0.66 0.66 0.0 0 1 474.31 460.65
  L 479.18 463.46
  A 2.22 2.22 0.0 0 1 480.26 465.72
  Q 479.78 468.74 481.06 472.11
  A 0.24 0.24 0.0 0 1 480.67 472.38
  Z"
/>
<path fill="#fccd57" d="
  M 493.63 479.02
  A 0.43 0.43 0.0 0 1 492.99 479.47
  L 487.31 476.19
  A 1.39 1.37 15.2 0 1 486.62 475.00
  L 486.62 469.31
  A 0.48 0.48 0.0 0 1 487.42 468.96
  Q 489.28 470.64 491.25 471.32
  A 2.01 1.99 4.9 0 1 492.56 472.86
  L 493.63 479.02
  Z"
/>
<path fill="#fccd57" d="
  M 506.52 479.51
  L 507.22 488.94
  Q 506.46 489.04 506.05 488.77
  Q 503.88 485.84 500.25 484.58
  A 1.18 1.17 -81.9 0 1 499.47 483.53
  L 499.12 477.78
  A 0.79 0.79 0.0 0 1 500.47 477.18
  L 503.20 479.91
  A 1.07 1.07 0.0 0 0 504.26 480.18
  L 506.52 479.51
  Z"
/>
<path fill="#77746f" d="
  M 507.22 488.94
  L 508.93 496.35
  A 0.76 0.76 0.0 0 0 509.57 496.93
  Q 510.05 496.98 510.24 496.76
  A 0.92 0.80 67.6 0 1 511.67 497.47
  Q 511.77 500.41 512.00 502.50
  L 512.00 536.52
  Q 510.53 536.36 510.48 537.79
  Q 510.49 534.54 510.33 532.77
  Q 509.68 525.76 508.98 522.27
  C 507.86 516.73 508.45 510.72 507.63 506.01
  Q 506.64 500.30 506.63 494.76
  C 506.62 492.67 506.28 490.79 506.05 488.77
  Q 506.46 489.04 507.22 488.94
  Z"
/>
<path fill="#1b3161" d="
  M 402.25 517.59
  C 405.45 520.35 411.46 520.50 415.58 521.37
  Q 442.97 527.14 470.42 532.62
  Q 472.96 533.12 475.55 533.25
  Q 479.55 535.54 483.88 535.72
  A 1.30 1.29 -20.8 0 1 484.76 536.11
  Q 485.82 537.23 486.47 537.52
  Q 493.51 540.66 501.37 545.25
  A 0.92 0.92 0.0 0 0 502.09 545.34
  Q 505.33 544.41 504.15 541.17
  A 0.24 0.24 0.0 0 1 504.54 540.92
  Q 504.74 541.12 504.89 541.62
  Q 507.31 549.65 512.00 544.85
  L 512.00 547.07
  Q 508.44 550.43 505.44 550.69
  Q 502.87 550.91 501.57 548.14
  Q 500.93 546.80 499.69 545.99
  Q 494.05 542.31 487.76 541.27
  Q 460.55 536.79 452.52 535.12
  C 447.51 534.08 443.61 532.48 438.80 531.59
  Q 428.40 529.67 420.87 528.08
  C 418.29 527.53 416.23 527.86 413.48 527.02
  Q 407.56 525.20 402.58 526.89
  Q 403.92 521.46 402.25 517.59
  Z"
/>
<path fill="#1b3161" d="
  M 371.35 555.17
  L 361.99 560.00
  L 355.90 560.00
  L 371.35 555.17
  Z"
/>
<path fill="#150423" d="
  M 486.49 558.79
  A 0.27 0.27 0.0 0 1 486.39 559.27
  Q 486.07 559.34 485.40 558.95
  A 0.23 0.23 0.0 0 1 485.55 558.52
  Q 486.23 558.60 486.49 558.79
  Z"
/>
<path fill="#150423" d="
  M 330.00 560.00
  L 329.36 560.00
  Q 329.33 559.93 329.30 559.86
  Q 329.74 559.84 330.00 560.00
  Z"
/>
</svg>
