<?xml version="1.0" encoding="UTF-8" standalone="no"?>
<!-- Created with Inkscape (http://www.inkscape.org/) -->

<svg
   version="1.1"
   id="svg1"
   width="682.66669"
   height="746.66669"
   viewBox="0 0 682.66669 746.66669"
   xmlns="http://www.w3.org/2000/svg"
   xmlns:svg="http://www.w3.org/2000/svg"
   xmlns:rdf="http://www.w3.org/1999/02/22-rdf-syntax-ns#"
   xmlns:cc="http://creativecommons.org/ns#"
   xmlns:dc="http://purl.org/dc/elements/1.1/">
  <title
     id="title1">PRISMA Icon SVG</title>
  <defs
     id="defs1" />
  <g
     id="g1">
    <path
       style="fill:currentColor"
       d="m 436.32635,743.33335 c -3.63219,-5.91939 -9.43007,-21.77958 -1.18666,-31.47848 2.82179,-10.82468 14.94277,-19.68127 7.52699,-28.01223 0.544,-10.79275 -2.85529,-13.98282 -5.33333,-22.50929 -1.34372,-7.22995 -8.10724,-14.48496 -16.87743,-20.66667 -9.84431,-5.33638 -15.09389,-9.60035 -22.50114,-14.41971 -9.50684,-2.52961 -18.22996,-9.6919 -25.91105,-13.53499 -8.5879,-1.56254 -11.71358,-7.38868 -21.87221,-9.51205 -9.53396,-7.30796 -19.59672,-6.04591 -32.15605,-5.86658 -8.81803,3.04399 -18.69627,3.36116 -28.48192,5.90288 -10.96139,3.26644 -19.74389,8.79937 -32.28475,6.48006 -13.28557,-1.76653 -8.36046,-20.22346 -19.39808,-25.63933 -14.9456,-13.8317 -29.8366,-31.81478 -47.18405,-40.22149 -5.23478,-3.54602 -13.85875,-3.70286 -17.33333,-9.00909 -9.26625,-3.20027 -10.34619,-17.58262 -21.4921,-20.85434 -16.36554,2.02939 -5.70361,-11.63503 -19.9042,-13.53795 -8.42601,-4.30851 -15.57617,-7.01764 -28.39413,-5.78741 -12.484453,7.65313 -22.164214,-12.35246 -7.754503,-9.48578 6.624103,2.88435 16.288433,9.14873 22.878263,3.47313 C 114.1688,477.87323 101.1536,470.67115 93.430189,461.24562 79.545887,448.52086 66.3761,431.5309 49.333335,425.33334 38.94403,420.07256 39.084599,416.4181 36.156721,406.51715 26.995178,393.88828 13.67676,382.9514 8.0000002,368.69021 c -0.2380251,-9.8666 3.0882068,-18.29745 7.3333338,-25.35687 8.720286,-18.01887 20.991423,-32.96101 31.599352,-49.25141 4.245689,-8.87463 10.77936,-13.25954 11.701692,-22.42787 4.20333,-12.68514 12.975691,-25.81697 20.122141,-35.65405 9.339326,-15.48075 26.618981,-31.00325 42.576821,-42.60734 29.63021,-25.42362 61.34146,-48.36759 90.72721,-74.05933 -1.76174,-26.000917 -0.46341,-52.83833 -4.14205,-78.315247 -0.80058,-11.270257 -5.22229,-15.063469 -6.99426,-25.1128 C 198.26337,5.5578625 213.10435,1.1707331 221.09493,0.01905862 243.1744,0.1235998 265.25387,0.22814098 287.33334,0.33268216 267.77698,3.9313056 247.79168,2.3670902 228.01661,3.3333334 c 14.65142,13.3906906 30.61075,24.1807826 45.43794,38.0000006 13.06946,8.081005 25.26786,20.427745 38.21514,29.943923 30.33277,25.655648 61.48532,49.671323 91.75229,74.722743 37.53344,29.42453 73.92877,60.18551 110.45756,89.66667 15.32631,11.05494 29.6346,24.1946 45.45381,35.52919 21.09493,18.08484 41.79226,35.35237 64.33418,51.6923 8.16572,6.4723 14.56591,7.01608 21.88216,16.9463 3.43818,12.55636 14.27816,16.64247 5.52058,21.83188 5.45898,12.23738 -7.51987,6.75513 -1.47113,22.33752 1.39824,24.82602 6.93527,48.55913 6.99288,73.38858 -0.76531,12.69601 4.95717,21.43278 3.4488,33.94057 3.06901,5.59019 3.09866,-12.67583 15.38622,-0.66667 12.94031,0.84663 7.38518,13.18838 -1.98782,4 -12.55353,-3.14954 -7.83659,17.72911 -5.28564,22.66667 0.70228,7.12961 8.7221,16.22638 14.51304,8 -1.18232,9.05988 -17.26107,8.15647 -9.6794,22.62665 2.66397,11.02154 2.03846,25.11301 -7.92823,32.16695 -17.92497,-3.94403 10.60357,-0.97792 6.94102,7.24434 1.71317,20.77024 4.53582,41.64603 5.98806,62.60765 0.58996,23.86033 4.23235,-14.72443 4.6761,9.26026 -0.006,24.47583 -0.0122,48.95166 -0.0183,73.42749 -12.27725,10.73064 -15.57748,-6.13295 -26.62778,-8.11512 -20.04732,-3.2551 -39.96746,-7.18082 -60.01808,-10.4156 -5.82168,-4.7589 -18.32545,-3.07508 -26.66453,-7.49228 -10.11953,0.72515 -23.40241,-6.51048 -31.36142,-1.80504 -4.56073,11.73416 -16.02517,22.45287 -27.18494,28.4947 -4.3014,4.9658 -15.34326,7.94347 -24.78912,13.27364 -16.77029,0.0199 -33.54058,0.0399 -50.31087,0.0598 l 0.37793,-1.97685 z m 45.67366,-2 c 7.56658,-4.65272 -13.10049,3.78006 -0.81751,0.3513 z m 12.40649,-4.20447 c 18.02285,-10.63795 -21.68649,8.67148 -0.77193,0.35403 z m 24.80591,-17.32454 c -5.61431,-0.4226 -17.99902,16.39209 -1.98512,3.06817 0.13045,-1.12887 4.44809,-1.42111 1.98512,-3.06817 z m 11.45427,-10.62837 c -4.75187,2.13158 -1.17251,0.14234 0,0 z m 102.66667,-0.30998 c -8.96717,-6.35989 -16.39332,-10.39392 -25.45851,-15.73781 -8.47811,-5.19797 -18.42881,-10.60068 -27.20783,-13.12816 -8.86674,-3.08034 -18.51905,-5.95468 -30.69562,-6.03503 -7.83573,-0.88536 -24.42897,-0.8288 -16.48023,9.59973 3.24892,7.97542 13.14712,7.93483 22.50334,10.4959 15.14265,2.38188 30.50161,6.26633 44.68516,8.60607 9.60587,3.19833 22.62535,5.3748 32.65369,6.1993 z M 479.6389,688.5278 c -8.27335,-1.36024 -0.35633,2.60292 0,0 z m 10.57749,-295.52779 c -2.36222,-3.62755 0.95983,11.11551 0,0 z m 129.98245,351.52825 c -3.35957,-8.9139 16.70135,8.02606 0.46799,0.52927 z m 24.59423,-0.013 c 6.6329,-6.42361 15.68263,8.2593 0.10453,0.27239 z M 621.9942,726.65728 c 1.60661,-9.37202 16.80099,6.29193 0,0 z m 58.81514,-140.7663 c -3.36324,-16.45324 6.18427,3.83621 0.0883,0.23 z m -4.80932,-209.89096 c 8.78348,-8.57972 9.84657,6.50175 0,0 z m -14.66667,-2.66667 c 5.28687,-6.64206 5.86721,6.12776 0,0 z m 18.1845,-8.66666 c -12.88277,-5.09832 8.24496,-6.33503 1.95816,2 -1.63067,0.75609 -1.54161,-0.98974 -1.95816,-2 z m -16.1845,-6 c 13.20359,-5.52033 1.62997,6.77954 0,0 z"
       id="path1" />
  </g>
  <metadata
     id="metadata1">
    <rdf:RDF>
      <cc:Work
         rdf:about="">
        <dc:title>PRISMA Icon SVG</dc:title>
        <dc:source>https://www.telespazio.com/o/adaptive-media/image/22321993/h_400/Prisma_hero.jpg</dc:source>
      </cc:Work>
    </rdf:RDF>
  </metadata>
</svg>
