<?xml version="1.0" encoding="UTF-8" standalone="no"?>
<!-- Created with Inkscape (http://www.inkscape.org/) -->

<svg
   version="1.1"
   id="svg1"
   width="163.84"
   height="135.03999"
   viewBox="0 0 163.84 135.03999"
   xmlns="http://www.w3.org/2000/svg"
   xmlns:svg="http://www.w3.org/2000/svg"
   xmlns:rdf="http://www.w3.org/1999/02/22-rdf-syntax-ns#"
   xmlns:cc="http://creativecommons.org/ns#"
   xmlns:dc="http://purl.org/dc/elements/1.1/">
  <title
     id="title1">Swarm Icon SVG</title>
  <defs
     id="defs1" />
  <g
     id="g1">
    <path
       style="fill:currentColor"
       d="m 0.00133453,126.95999 c 4.4484e-4,-2.69333 8.8968e-4,-5.38667 0.00133452,-8.08 5.33198585,-1.76186 10.60830095,-3.79 16.14924295,-4.80515 2.06728,-2.70076 2.748021,-5.03335 3.987153,-6.78229 3.555806,-2.49858 5.094508,-8.471694 6.995782,-9.657089 -0.571583,-0.843063 4.500414,-5.702513 5.521367,-9.243388 0.525583,-1.217325 1.202787,-1.101549 2.039028,-3.487716 1.231804,-1.530536 4.54238,-4.196525 3.25723,-6.714342 -1.051105,-4.854457 5.06941,-12.046732 2.794197,-15.658716 3.834221,-3.084055 9.307094,-9.318428 0.791703,-10.493214 C 37.628827,49.160434 31.145931,46.609943 36.043011,40.722522 39.015,32.45275 49.731865,35.884657 56.453314,35.623788 c 4.145499,0.407652 -1.210444,14.166662 2.147319,9.411828 3.812354,1.856365 4.869347,-5.316362 7.973463,-7.880441 2.186507,-4.229204 -0.791638,-5.048343 -0.689184,-8.579724 -3.568861,-0.946495 5.914341,-6.537478 7.775256,-8.482083 3.050144,-2.87025 2.740351,-2.927928 3.080292,-2.664032 1.730897,-2.276324 0.492016,-5.942754 1.246316,-8.7053494 -0.861447,-4.4439397 2.034253,-11.6693621 6.315663,-7.91043915 1.940996,5.05340595 -0.976544,16.45405055 7.758448,11.35109655 6.092778,-1.89314 12.184203,-2.8844882 17.502873,-4.6143772 2.51212,-2.1131408 12.00028,-4.4644304 11.42933,-1.9868996 -2.71703,4.0928983 5.00328,1.3136746 1.67815,-2.1752137 1.78812,-1.1049705 6.32209,-3.40187492 6.66894,0.2345546 2.14932,2.2667879 6.0659,-2.5427203 8.80942,1.3600782 5.31947,4.5756555 9.53834,7.1852097 14.43341,11.2770667 2.80815,2.341054 3.26876,1.375375 4.39716,2.907949 2.39109,3.308877 5.59406,4.826935 5.53241,8.829077 1.93256,1.692068 0.56588,4.189372 1.32768,7.304467 -0.61445,1.70947 -5.0609,-0.180466 -5.6,3.201219 -5.04647,4.790746 -13.88976,2.321919 -16.33031,9.349486 -5.76743,6.331896 -14.42952,-9.70999 -14.8606,2.067946 -1.68103,-2.561773 0.58436,-8.758909 -4.32039,-7.359163 -4.13332,0.692356 -11.69612,-2.727522 -12.64707,2.054095 1.12851,4.224612 -4.50795,9.877081 -4.6198,2.679726 1.19923,-5.333185 -2.64944,-5.714304 -7.14124,-5.181423 -3.0102,0.335906 -6.514563,-0.920031 -9.272452,0.253452 -5.357054,4.071199 -10.643544,8.245761 -17.012712,10.659074 -2.530077,2.710268 -1.786189,1.908712 -1.247753,2.438767 0.697811,0.344592 0.581397,9.254461 0.303021,5.404118 -0.423216,-5.755708 0.009,1.310492 -0.913873,0.993311 -1.130064,0.04395 -5.037244,-1.484144 -7.782256,-2.724256 -2.396092,0.57264 -3.016775,2.695654 -3.061878,2.822384 1.357313,1.157166 6.142151,-2.446418 3.956408,2.934302 -0.706303,0.245373 -3.0586,0.04066 -0.966236,2.411797 1.116088,-1.293349 0.950248,7.129569 -0.837689,4.957448 1.920096,4.002324 -2.011297,3.553469 -4.66293,3.350817 -2.932856,-0.03665 -3.007615,4.679208 -4.082512,6.243378 -4.217026,2.429315 -6.003804,7.815671 -9.412871,11.811415 -5.343235,7.645901 -10.090874,15.727541 -15.571648,23.248601 -0.602732,4.2054 1.158297,7.08688 0.491026,10.94983 -0.101004,2.35441 1.450796,6.94658 -1.442282,7.17232 -8.934738,0 -17.8694755,0 -26.804213,0 4.4484333e-4,-2.69333 8.8968667e-4,-5.38667 0.00133453,-8.08 z m 28.37726147,4.82 c -0.548651,-0.55016 0.276273,1.78898 0,0 z m -0.64,-5.12 c -0.548651,-0.55016 0.276273,1.78898 0,0 z M 54.226333,75.222108 c -0.07996,-1.568168 -0.760714,1.040589 0,0 z m -2.057632,-1.451627 c -2.343039,-6.75062 -1.815112,-0.29354 0,0 z m 2.01437,-1.90352 c -2.856696,-1.126231 -2.045259,-14.384434 -3.468762,-6.829987 0.09405,1.296759 3.248432,11.228418 3.468762,6.829987 z m 2.810741,-0.736056 c -0.954848,-2.905523 -0.708559,-1.986868 -0.652884,0.190187 -0.881911,-0.09101 -3.5916,-4.055044 -3.0495,-1.488746 0.840328,-3.385562 2.287379,7.40636 3.702384,1.298559 z m 4.617134,-1.921216 c -1.144007,-2.675509 0.473657,5.171007 0,0 z m -7.737585,-2.495545 c 0.658165,-3.574217 1.502332,-5.07335 1.836672,-5.594147 1.982493,-3.295149 -1.164596,-3.66428 -2.573038,0.31183 -3.641241,-3.881627 1.481027,10.345045 0.736366,5.282317 z m -0.411705,-2.730147 c -0.02351,-3.103784 0.849629,2.653603 0,0 z m 7.774063,3.376 c -0.107245,-1.757734 -0.948037,1.657924 0,0 z M 48.82519,65.992378 c -1.975933,-2.045563 1.644588,2.404825 0,0 z m 12.096907,-2.489001 c 0.02653,-1.346966 -0.949484,1.595601 0,0 z m -1.524118,-3.482029 c -1.132653,-3.500153 -4.817647,-7.339694 -1.863833,-1.230851 1.047363,3.597609 0.985372,-0.187481 2.506545,2.3295 z M 58.25378,54.777925 c -4.627624,-4.888795 1.935794,6.011886 0,0 z m 8.626219,0.262072 c -0.878707,-1.194554 -0.290107,1.103741 0,0 z M 65.979256,53.95662 c -0.125513,-3.121659 -1.406457,0.733046 0,0 z m -1.178049,-2.434286 c -1.923781,-3.305659 -1.595218,-0.476965 -5.304979,-3.129713 0.445224,1.952139 0.391823,2.230826 2.622746,3.600745 1.048482,-1.08947 4.125046,1.277307 2.682233,-0.471032 z M 63.55296,51.253331 c 0.384457,-0.950974 1.217524,0.934189 0,0 z m 96.68037,-17.206666 c -1.17806,-0.362941 -0.58788,0.557284 0,0 z M 103.36,30.719998 c -2.36339,-2.561658 0.75811,1.495974 -1.28,0.650044 0.3258,0.664174 1.70381,0.208406 1.28,-0.650044 z m 33.6,-20.855799 c 4.25068,-2.0250404 -4.10798,-1.7019468 -0.86735,0.546181 l 0.35172,-0.04099 z M 62.614557,73.919996 c 1.939708,-4.939214 0.394037,0.828002 0,0 z M 155.52,17.599999 c 0.81758,-1.147985 0.81758,1.147985 0,0 z m -78.669475,-1.6 c 0.239943,-1.769139 0.239939,1.769133 0,0 z m 81.229475,-2.88 c 0.81758,-1.147985 0.81758,1.147985 0,0 z M 77.145261,11.013333 c 0.205861,-1.2332695 0.324596,1.456497 0,0 z M 145.44,8.6399996 c -0.014,-1.0760303 0.98242,1.0660071 0,0 z"
       id="path1" />
  </g>
  <metadata
     id="metadata1">
    <rdf:RDF>
      <cc:Work
         rdf:about="">
        <dc:title>Swarm Icon SVG</dc:title>
        <dc:source>https://earth.esa.int/eogateway/documents/20142/0/swarm1.jpg/6284e757-344b-0410-7f05-39dbb2d47d8b?t=1608137836438</dc:source>
      </cc:Work>
    </rdf:RDF>
  </metadata>
</svg>
