<svg xmlns="http://www.w3.org/2000/svg" baseProfile="tiny" width="512" height="422" xmlns:v="https://vecta.io/nano"><style><![CDATA[.B{fill:#74747e}.C{fill:#17171d}.D{fill:#9fa1b5}.E{fill:#bebccd}.F{fill:#58596b}]]></style><path d="M253.71 0l4.66 5.03-1.06 7.75q-1.71-6.2-9.38-12.21.12-.28.23-.57h5.55z" class="B"/><path d="M260.3 0q-1.43 2.39-1.93 5.03L253.71 0h6.59z" class="D"/><path d="M262.25 0q.45.82.23 1.88-.89.21-1.04.14-1.74 3.8-2.32 9.33-1.02 9.8-1.68 19.6-.6 2.09-.21 3.45l-1.54 16.62q.14.39-.1.93-.8 9.67-1.91 19.3-.39 3.36-1.46 6.65a.67.66 9.3 0 1-.65.46l-5.25-.2q.04-1.32.63-2.33a.03.03 0 0 1 .06.02l-.01.27a.29.29 0 0 0 .35.29l3.94-.76-3.45 1.3a.4.4 0 0 0-.2.57l.17.3a.61.6 62.5 0 0 .77.25q.98-.43 1.8-.27a.51.51 0 0 0 .59-.4l.32-1.75 1.2-5.19 4.82-57.68 1.06-7.75q.5-2.64 1.93-5.03h1.95z" class="E"/><path d="M247.93.57q7.67 6.01 9.38 12.21l-4.82 57.68q-6.46 3.27-12.9 4.5-.19-2.08 1.44-3.77c3.74-3.86 5.32-11.13 5.83-17.29q2.2-26.54 2.42-30.63.48-8.81-2.68-17.05l1.33-5.65zm14.55 1.31q.55.6.6.82 1.31 4.82 2.25 11.79 1.46 10.73 2.33 21.18-.65 6.46 1.24 13.69l-10.86.87a.16.09-15.5 0 1-.08-.02q-.02-.01-.04-.02a.05.05 0 0 1 0-.1q4.79-.17 7.48-1.77a.25.25 0 0 0-.13-.47h-8.12a.24.23-1.2 0 1-.24-.22q-.15-3.66.69-8.26.45-2.44-.37-4.97-.39-1.36.21-3.45.01.46.1.52a.42.42 0 0 0 .64-.3l3.26-29.15q.15.07 1.04-.14z" class="F"/><path d="M261.44 2.02l-3.26 29.15a.42.42 0 0 1-.64.3q-.09-.06-.1-.52.66-9.8 1.68-19.6.58-5.53 2.32-9.33z" class="C"/><path d="M398.54 6.3q.11 1.34.04 2.7-.01.05 0 .05a.1.09-4 0 0 .13-.13q-.23-.35-.21-.38a.42.42 0 0 1 .75.06q.57 1.5-.09.47-.08-.14-.01-.29.08-.19.22-.23a.2.19-2.7 0 1 .26.23q-.52 1.92-.28 3.41a.84.84 0 0 0 .69.69q4.16.73 3.51-1.57l1.44 2.87a.95.94 78.7 0 0 .77.52l2.12.15q-1.78.05-2.87.62-.96.5-1.28 2.03-.26 1.21-.42 2.53-2.98 2.12-6.45 2.74a1.84 1.84 0 0 0-1.5 1.55q-.55 3.96 1.17 7.88c2.46 3.94 2.37 7.56 6.83 9.94a.57.57 0 0 1 .11.92c-4.29 3.94-.6 8.04 4.16 7.8a1.17 1.17 0 0 1 .81.28l2.51 2.16q-.89-.91-1.94-1.44a1.09 1.08-42.6 0 0-.9-.03l-6.88 2.92c-2.66-.25-7.91-1.36-8.33-4.64q-.25-1.89-.38-3.85a1.15 1.03-60.5 0 0-.08-.36l-2.96-8.02a.62.61-85.2 0 1 .88-.75q1.24.72 2.24.09a.78.68 46.5 0 0-.05-1.2c-4.61-3.57-4.03-5.82-3.96-11.09q-2.01-1.8-4.68-2.35l3.86-4.74a1.2 1.19-48 0 0-.08-1.6l-4.22-4.22a.72.72 0 0 1 .19-1.16q2.34-1.15 5.14-1.28-.74.9-.42 1.47a1.5 1.49-31.3 0 0 2.12.51q1.82-1.18.75-3.04c1.33-3.34 4.04-2.7 7.29-2.22zm.55 6.24q.05-1.3-.6-2.17a1.25 1.24 28.5 0 1-.25-.83q.03-.36-.05-1.05-.01-.01-.02-.01.04 2.89-1.11 5.17a1.02 1.02 0 0 0 1.42 1.35l2.18-1.26a.35.35 0 0 0-.15-.66q-.2-.02-.72.08a.6.6 0 0 1-.7-.62zm-2.288-2.45a.5.18-101.3 0 0-.079.526.5.18-101.3 0 0 .274.455.5.18-101.3 0 0 .079-.526.5.18-101.3 0 0-.274-.455zm-4.233 2.447a1.37.81-40.7 0 0-1.567.279 1.37.81-40.7 0 0-.51 1.508 1.37.81-40.7 0 0 1.567-.279 1.37.81-40.7 0 0 .51-1.508zm4.525 4.724a1.82.81-139.6 0 0 .861 1.796 1.82.81-139.6 0 0 1.911.563 1.82.81-139.6 0 0-.861-1.796 1.82.81-139.6 0 0-1.911-.563z" class="F"/><path d="M246.6 6.22q3.16 8.24 2.68 17.05-.22 4.09-2.42 30.63c-.51 6.16-2.09 13.43-5.83 17.29q-1.63 1.69-1.44 3.77-.56 1.24-.67 2.41a.51.5 3.7 0 0 .49.55l6.91.24 5.25.2a.67.66 9.3 0 0 .65-.46q1.07-3.29 1.46-6.65 1.11-9.63 1.91-19.3l.18 1.42a.26.26 0 0 0 .44.15l.28-.27a.67.65 22.8 0 1 .49-.19l9.29.3a1.3 1.29-10.3 0 1 1.15.79l.17.4a.77.77 0 0 1-.74 1.07l-3.22-.1a.08.08 0 0 0-.06.13q.08.09.25.08 2.7-.16 4.26.16a.63.62-83.3 0 0 .74-.59l.08-2.61a.96.96 0 0 0-.79-.98q-5.89-1.07-12.42-.69l1.54-16.62q.82 2.53.37 4.97-.84 4.6-.69 8.26a.24.23-1.2 0 0 .24.22h8.12a.25.25 0 0 1 .13.47q-2.69 1.6-7.48 1.77a.05.05 0 0 0 0 .1q.02.01.04.02a.16.09-15.5 0 0 .08.02l10.86-.87q2.31 1.64 8.19.96l-8.07.09a.19.19 0 0 0-.19.18v.01a.19.18 4.9 0 0 .17.19q.93.12 1.25.99l-.12 3.34a.7.69 1.2 0 0 .7.72h4.27a.34.34 0 0 1 .22.59q-2.82 2.49-5.19 5.93a.43.43 0 0 0 .66.55l5.12-5.12a.71.69 62.6 0 0 .19-.63q-.04-.16-.09-.31a1.06 1.05 58.1 0 1 .26-1.14q1.38-1.31.72-3.68-.43-1.11.1-1.71 2.16-.02 4.43.34 1.79.28 2.08-1.25a.41.41 0 0 0-.44-.49q-6.95.64-13.26-.76a.73.73 0 0 1-.05-1.41l51.85-15.17a.68.68 0 0 0 .48-.72q-.11-1.02-1.18-1.54l2.32-.55q.55 2.2 2.93 1.49 6.69-2.01 13.49-3.89-1.57 1.87-3.89 3.03a.24.24 0 0 0 .1.45h3.99a.9.9 0 0 0 .88-.73c.2-.99.22-1.99 1.18-2.29q1.36-.41 2.92.69a.55.54-50 0 1 .07.83l-1.81 1.81a.89.86-66.9 0 1-.62.26c-5.83-.03-8.69.63-12.19 4.18a7.8 7.78-78.1 0 1-2.83 1.85q-9.93 3.8-14.07 4.85-11.09 2.81-20.43 5.8-3.8 1.21-5.07 3.83-.19.08-.25.2a.67.66-68.7 0 0 .41.94q3 .88 4.12 4.24c2.02 3.28 3.23 6.98 2.92 10.82-.18 2.2-.14 4.49 1.37 6.12a.08.07 23.7 0 0 .13-.05V62.75a.71.71 0 0 1 1.29-.4l1.61 2.33a.97.93-88.8 0 0 .22.24q8.51 6.49 25.96 19.64c.77.58 2.16 1.02 2.75 1.47a.22.22 0 0 1-.13.39c-.8.02-2.23-.57-3.26-.53q-2.16.1-4.11.57-1.51.56-2.07 1.3a.6.59 40.2 0 0 .07.8q1.72 1.54 3.91 1.68-.07.26-.05.34.15.65.81.58 4.22-.49 8.49-.42a.02.01-9.2 0 0 .02-.02q0-.01-.01-.02a.11.05 73 0 0-.07-.08l-3.12-.1a.65.65 0 0 1-.62-.77l.41-2.23a.41.4 24.5 0 1 .65-.24l5.08 4.08 2.03.57a.52.51-58.1 0 1 .2.88q-.11.1-.27.2a.34.34 0 0 0 .13.62q1.4.23 1.26-.82a.54.53-88.5 0 1 .63-.6l107.72 20q6.11 1.31 11.94 2.02a1.59 1.55 31.4 0 0 1.01-.23q7.18-4.55 15.8-9.77.59-.35 1.53-1.45.28-.15.59-.15.29 0 .54.22 1.21 1.04 2.68 2.05a.85.84-61.6 0 0 1.26-.38q.32-.78.73-1.16a.75.74-48.9 0 1 .95-.07l1.59 1.14 5.69 2.33a.99.97 39.5 0 0 .91-.08L508.8 95.3q-.32.92-.3 1.53a.72.7-84.8 0 0 .54.67q1.4.32 2.96-.05v6.53q-3.79.16-7.36-1.15a.38.38 0 0 0-.51.32q-.22 2.7-1.33 2.72l-.12-5.17a.49.49 0 0 0-.71-.42q-3.64 1.87-5.37 4.51-5.75 1.26-3.75 4.54l-.45 10.77q-1.58-.5-2.34 1.33-2.77 1.32-4.88 3.52-.51.36-1.31.44c-1.81.17-2.38.84-3.26 2.49q-1.09 2.02-3.93 2.54-9.9 1.82-19.96 3.08.39-1.25.03-2.24a1.36 1.34-83.3 0 0-.5-.64q-1.73-1.18-3.4-1.31a1.36 1.36 0 0 1-1.21-1.68q.43-1.76.22-2.9a.69.68-25.8 0 0-1.13-.39q-.34.29-.42.86.06.76-.52.76-.39-.59-1.69-.38a.8.8 0 0 0-.66.79v2.9a.89.88 12.7 0 0 .51.8l4.59 2.2a.67.66-72 0 1 .36.72l-.27 1.57q-1.5.45-2.65 1.55a1.12 1.11-21.7 0 0-.35.81q0 4.87-2.33 8.99a5.81 5.81 0 0 1-2.18 2.18q-5.52 3.15-10.3 4.22-5.02 1.05-7.1.35a.69.69 0 0 1 .22-1.35h4.01a.98.97-8.2 0 0 .94-1.25l-.46-1.58a1.36 1.36 0 0 0-1.37-.98l-6.49.29q-.04 0-.08 0l-5.92-.39q-6.83-4.72-13.56-9.92-1.83-1.41-2.33-1.91-2.5-2.5-6.85-4.88-2.01-1.1-7.22-5.52c-6.01-5.1-15.7-12.18-19.18-14.77q-2.66-1.99-5.06-2.85a2.95 2.87 53.4 0 0-.92-.15q-7 .05-8.31-.22-4.81-1-9.44-1.11a2.95 2.88-57.6 0 0-1.44.34q-1.91 1.02-2.4.95a.5.49 85.9 0 0-.53.62q.19.73-.03 1.26a.35.35 0 0 0 .32.48l9.94.21a.86.78 55 0 1 .35.08l1.46.7a1.64 1.49-27.8 0 0 .58.15l9.58.6a4.9 4.86 57.5 0 1 1.47.33c1.09.4 3.28 1.64 4.61 2.63q15.95 11.87 31.53 23.87-2.48 8-3.6 16.4a.51.51 0 0 1-.83.32q-.16-.13-.22-.53-1.81-12.68-3.26-20.52a2.09 2.08 85.1 0 0-2.02-1.71l-46.28-.66q2.17-1.85 4.85-1.54 2.62-.38-1.51-2.14a4.1 3.75 57.9 0 0-.9-.25q-12.17-1.81-23.97-.5a.66.66 0 0 0-.04 1.3q3.59.62 5.4 2.04-.26.89-.01 1.47-2.4.31-3.5-.18-3.65-1.23-7.83-.37l-1.72-.6a2.91 2.91 0 0 0-.95-.18l-31.93-.73 25.49-17.61a1.35 1.28-73.2 0 1 .21-.12l6.15-2.81a4.31 4.26 33 0 1 1.94-.4l17.33.57a.5.49-.5 0 0 .51-.51q-.07-1.53-.74-1.6-3.3-1.3-5.45-1.49-7.73-.67-16.57.54-2.65.36-4.89 2.83l-19.79 14.13a2.11 2.08 89.5 0 0-.58.6c-.58.85-.96 1.46-2.22 1.93q-1.92.71-4.32 2.67-.97.8-4.86 2.95a5.3 5.09-81.1 0 0-1.26.96q-1.48 1.53-1.76 1.72-3.82 2.69-12.78 9.57a2.52 2.5-73.5 0 1-.75.41c-3.11 1.08-3.7-1.04-4.88-3.18q-3.66-6.62-7.25-13.13l25.13-39.37a.59.59 0 0 0-.08-.73l-.25-.24a.63.63 0 0 0-.98.1q-12.56 19.53-24.54 38.62-.97 1.55-.17 2.26.34.28.34.73 0 .4-.29.76-2.12 2.56-3.13 5.46a2.07 2.06 83.8 0 1-.84 1.05l-5.55 3.42a.18.18 0 0 0-.05.05c-.71 1.2-2.8 1.97-4.06 2.83q-5.63 3.81-8.74 5.51c-7.86 4.27-10.59 6.12-18.85 10.82a.63.63 0 0 0 .29 1.17l.37.01a.74.73 84.3 0 1 .69.57q.56 2.24-.06 3.85l-8.62-14.88 41.1-34.82a.7.7 0 0 0-.08-1.12q-1.44-.91-2.43-.99l-7.36-2.59c-2.97-.72-5.53-3.07-8.73-2.36a1.51 1.47 14.7 0 0-.79.45l-16.16 17.54q3.38-5.14 6.37-10.15c3.32-5.59 4.4-9.14-.16-13.92a.75.75 0 0 1 .25-1.2l1.26-.53a1.01 1.01 0 0 0 .23-1.73l-4.15-3.2a2.57 2.56-58.3 0 1-.74-3.14l1.01-2.11a.84.84 0 0 0-.8-1.2l-3.85.24a.73.73 0 0 1-.62-1.17q2.3-3.03 6.87-6.99c7.2-6.24 19.98-15.4 32.63-25.88 2.21-1.83 1.91-4.82 2.19-7.75q.28-2.94.31-4.14c.29-11.79 1.24-24.39 3.29-36.95zm37.37 55.09a.42.42 0 0 0 .84.04l.66-4.56a.67.58-51.8 0 0-.01-.25q-.76-2.77-.12-5.33a.52.52 0 0 0-.53-.64l-.29.02a1.19 1.19 0 0 0-1.12 1.26l.57 9.46zm5.4-6.1a1.1 1.1 0 0 0-2.2 0 1.1 1.1 0 1 0 2.2 0zm-17.32 14.04a.49.48 68.6 0 0 .83.37l3.24-3.24a1.63 1.62-17.5 0 0 .45-.86q.53-2.85-.02-5.14a.49.49 0 0 0-.82-.24l-3.27 3.27a.87.83-23.4 0 0-.24.56l-.17 5.28zm17.212 2.553a1.14.89-81.3 0 0-1.052.992 1.14.89-81.3 0 0 .707 1.261 1.14.89-81.3 0 0 1.052-.992 1.14.89-81.3 0 0-.707-1.261zM267.2 82.47q.97-.68 2.35-3.24a4.22 4.19 84.6 0 1 1.02-1.24l1.37-1.13a.79.79 0 0 0-.57-1.4q-1.35.12-2.08 2.77c-.49 1.76-2.18 1.63-2.63 3.89a.35.35 0 0 0 .54.35zm34.46-1.77q.29-1.18-.04-1.93a.72.72 0 0 0-1.38.28q-.02 1.06.44 1.81a.54.54 0 0 0 .98-.16zm-35.726 3.051a2.09.55-59.4 0 0-1.537 1.519 2.09.55-59.4 0 0-.59 2.079 2.09.55-59.4 0 0 1.537-1.519 2.09.55-59.4 0 0 .591-2.079zm52.146 16.509h3.88a2.16 2.15 0 0 0 2.16-2.15v-5.29a.77.76-90 0 0-.76-.77h-4.7a.83.83 0 0 0-.82.92q.21 1.89-.27 2.61a.77.77 0 0 0 .03.92q.57.72-.07 3.04a.57.57 0 0 0 .55.72zm13.33-7.82a.17.16-86.5 0 0-.17.16l-.17 5.32a1.11 1.1-84.7 0 1-1.27 1.06q-2.27-.34-4.81.94a.24.24 0 0 0 .05.45q2.72.7 6.66-.43a1.3 1.3 0 0 0 .94-1.21l.2-5.95a.29.29 0 0 0-.28-.3l-1.15-.04zm-41.88 12.12q6.11-.01 21.01.4a.44.44 0 0 0 .17-.85q-3.31-1.36-6.96-1.42-10.14-.18-14-.17-6.11 0-21.01-.4a.44.44 0 0 0-.17.85q3.31 1.36 6.96 1.42 10.14.17 14 .17zm99.06.82q-.61-.32-.79-.74a.86.85 78.7 0 0-.77-.52q-20.35-.55-37.84-.69-.32 0-.46.38-.23.61.64.74 1.1.17 3.97 1.11a1.7 1.65 53 0 0 .51.08l34.69-.15a.11.11 0 0 0 .05-.21zm-161.286 2.983a1.32.68-165.2 0 0 1.102.995 1.32.68-165.2 0 0 1.45-.32 1.32.68-165.2 0 0-1.102-.995 1.32.68-165.2 0 0-1.45.32zm264.286 3.447l.31-3.11a.69.69 0 0 0-.62-.76l-.3-.03a1.17 1.16-80.9 0 0-1.26.92q-.29 1.4 1 3.21a.48.48 0 0 0 .87-.23zm-68.42-3.11q-.6.11-.84.24a.45.44-50.2 0 0 .07.81q1.03.34 1.24-.38a.52.44-84.7 0 0-.47-.67zm65.58 5.33q.18-.86.29-2.27.12-1.67-1.37-1.64a.66.66 0 0 0-.52 1.04q.8 1.1.91 2.82a.35.35 0 0 0 .69.05zm-2.127-1.288a.9.9 0 0 0-.943-.855l-.26.013a.9.9 0 0 0-.855.943l.192 3.935a.9.9 0 0 0 .943.855l.26-.013a.9.9 0 0 0 .855-.943l-.192-3.935zM449.7 136.82a.96.95-44.9 0 0-1.79.01q-.06.15.16.41a1 .86 43.1 0 0 1.49.06q.2-.31.14-.48z" class="C"/><path d="M403.55 11.31q.65 2.3-3.51 1.57a.84.84 0 0 1-.69-.69q-.24-1.49.28-3.41a.2.19-2.7 0 0-.26-.23q-.14.04-.22.23-.07.15.01.29.66 1.03.09-.47a.42.42 0 0 0-.75-.06q-.02.03.21.38a.1.09-4 0 1-.13.13q-.01 0 0-.05.07-1.36-.04-2.7l3.24.06a1.34 1.34 0 0 1 1.31 1.18l.46 3.77zm-3.14-2.93a.04.04 0 1 0-.08 0 .04.04 0 1 0 .08 0z" class="E"/><circle cx="400.37" cy="8.38" r=".04" class="D"/><path d="M399.79 13.16q.52-.1.72-.08a.35.35 0 0 1 .15.66L398.48 15a1.02 1.02 0 0 1-1.42-1.35q1.15-2.28 1.11-5.17.01 0 .02.01.08.69.05 1.05a1.25 1.24 28.5 0 0 .25.83q.65.87.6 2.17a.6.6 0 0 0 .7.62z" class="C"/><path d="M391.25 8.52q1.07 1.86-.75 3.04a1.5 1.49-31.3 0 1-2.12-.51q-.32-.57.42-1.47l2.45-1.06z" class="E"/><ellipse cx="0" cy="0" transform="matrix(-.195946 -.980615 .980615 -.195946 396.9 10.58)" rx=".5" ry=".18" class="C"/><path d="M448.26 31.03c-2.85-1.66-5.55-3.13-7.9-5.54q-3.27-3.35-6.91-4.21a.9.88 84.5 0 1-.62-.52l-.55-1.32a.75.68 11.3 0 0-.17-.23q-2.77-2.48-6.15-3.92a2.08 2.02 52.7 0 0-.99-.15q-4.14.46-8.59 2.84a1.95 1.9 88.4 0 0-.85.92q-2.07 4.71 1.63 7.3a.56.56 0 0 1-.42 1.01l-3.52-.65a.44.43 10.7 0 1-.35-.5l1.34-7.22a.91.9-6.3 0 1 .53-.66l3.07-1.3a.28.27-36.9 0 0 .07-.47l-.25-.19a.14.12-31.1 0 0-.12-.02q-6.73 2.64-7 9.62a.26.26 0 0 1-.3.25l-.33-.07a.23.23 0 0 1-.19-.27l1.23-6.58a.84.83 81.5 0 1 .45-.61q.31-.17.33-.19a.23.23 0 0 0-.28-.35l-2.92 1.37a.82.82 0 0 0-.45.95q1.84 7.08 2.34 11.52c.4 3.49 2.25 5.21 5.62 5.7a.45.45 0 0 1 .34.65q-.08.14-.89.49a.48.47 71.3 0 1-.64-.32q-.26-1-3.22.04a1.02 1.01 67.7 0 1-1.26-.53l-4.98-10.73a3.64 3.61 32.8 0 1-.33-1.51l.03-6.29-1.75.69q.16-1.32.42-2.53.32-1.53 1.28-2.03 1.09-.57 2.87-.62l5.54-.09a1.97 1.95 18.7 0 0 1.48-.72q1.87-2.31 4.24-3.76a1.11 1.11 0 0 1 1.07-.05q7.41 3.65 13.48 6.83 2.95 1.55 6.47 5.52 3.86 4.35 8.1 8.45zm-29.44-18.1a.19.19 0 0 0-.38 0 .19.19 0 0 0 .38 0z" class="D"/><g class="B"><ellipse cx="0" cy="0" transform="matrix(.758134 -.652098 .652098 .758134 391.53 13.43)" rx="1.37" ry=".81"/><circle cx="418.63" cy="12.93" r=".19"/></g><path d="M375.91 15.79q-.15.12-.41.2-.8 0-1.61.33l-2.17-.25a.98.97-10.5 0 1-.75-.51q-.18-.36-.26-.85l6.91-1.29a.31.31 0 0 1 .27.54l-1.98 1.83z" class="E"/><path d="M370.5 14.79q0 .43-.16.76-.17.36-.6.39-.77.07-.95-.78.81-.36 1.71-.37z" class="C"/><path d="M370.71 14.71q.08.49.26.85a.98.97-10.5 0 0 .75.51l2.17.25q1.21.83 3.86.42l-5.38.4a.98.98 0 0 0-.76.44l-.57.84a.96.96 0 0 1-.64.42q-3.4.59-6.96-.01a.92.92 0 0 0-1.07.9l-.08 6.63-.41-6.72v5.81a.22.22 0 0 1-.21.22h-.01a.28.28 0 0 1-.27-.27l-.22-5.03a.97.95 60.8 0 1 .15-.55l.55-.81a.3.3 0 0 0-.21-.46l-3.23-.37q-.81-.14-1.21-.39-.01-.12-.01-.24.15-.06.3-.11.47.11.78-.15l10.5-2.13q.18.85.95.78.43-.03.6-.39.16-.33.16-.76.11-.04.21-.08z" class="B"/><path d="M448.26 31.03l1.95 1.95 4.42 4.24a1.02 1.01 35.1 0 1 .21 1.16l-2.73 5.69a1.75 1.73.3 0 1-.83.81l-8.95 4.16a1.02 1-55.7 0 1-.46.09l-1.65-.05a.26.18 21.1 0 0-.12.03q-.23.16-.19.46a.45.45 0 0 1-.28.48l-16.6 7.02a1.35 1.32 52 0 1-1.35-.18q-3.19-2.52-5.18-6.12a.71.7-37.7 0 1 .11-.84l1.19-1.24a.22.22 0 0 0-.02-.32q-.01-.03-.14-.14a.05.04 72.7 0 1 .04-.08q.38.12.63-.02a.27.27 0 0 0-.05-.5q-6.05-1.74-6.72-8.51l-2.67-.38-1.86-7.51a1.47 1.39-73.2 0 0-.3-.6q-3.69-4.33-3.04-10.18l1.39-1.11-.03 6.29a3.64 3.61 32.8 0 0 .33 1.51l4.98 10.73a1.02 1.01 67.7 0 0 1.26.53q2.96-1.04 3.22-.04a.48.47 71.3 0 0 .64.32q.81-.35.89-.49a.45.45 0 0 0-.34-.65c-3.37-.49-5.22-2.21-5.62-5.7q-.5-4.44-2.34-11.52a.82.82 0 0 1 .45-.95l2.92-1.37a.23.23 0 0 1 .28.35q-.02.02-.33.19a.84.83 81.5 0 0-.45.61l-1.23 6.58a.23.23 0 0 0 .19.27l.33.07a.26.26 0 0 0 .3-.25q.27-6.98 7-9.62a.14.12-31.1 0 1 .12.02l.25.19a.28.27-36.9 0 1-.07.47l-3.07 1.3a.91.9-6.3 0 0-.53.66l-1.34 7.22a.44.43 10.7 0 0 .35.5l3.52.65a.56.56 0 0 0 .42-1.01q-3.7-2.59-1.63-7.3a1.95 1.9 88.4 0 1 .85-.92q4.45-2.38 8.59-2.84a2.08 2.02 52.7 0 1 .99.15q3.38 1.44 6.15 3.92a.75.68 11.3 0 1 .17.23l.55 1.32a.9.88 84.5 0 0 .62.52q3.64.86 6.91 4.21c2.35 2.41 5.05 3.88 7.9 5.54z" class="E"/><path d="M375.91 15.79q-.16.72 1.63.56-.95.21-2.04.05a.12.11-76.9 0 1-.09-.15q.05-.13.09-.26.26-.08.41-.2z" class="C"/><path d="M375.5 15.99q-.04.13-.09.26a.12.11-76.9 0 0 .09.15q1.09.16 2.04-.05 2.56-.53 2.13.67-.91-.49-1.92-.28-2.65.41-3.86-.42.81-.33 1.61-.33z" class="F"/><path d="M379.67 17.02l-.52 3.12a1.92 1.86 62.5 0 1-.17.57q-1.39 3.06-4.45 3.07-5.74.03-12.24 2.58l.08-6.63a.92.92 0 0 1 1.07-.9q3.56.6 6.96.01a.96.96 0 0 0 .64-.42l.57-.84a.98.98 0 0 1 .76-.44l5.38-.4q1.01-.21 1.92.28z" class="E"/><ellipse cx="0" cy="0" transform="matrix(-.761538 -.64812 .64812 -.761538 398.48 18.44)" rx="1.82" ry=".81" class="B"/><path d="M358.29 17.29q-.31.26-.78.15l.78-.15zm-1.08.26q0 .12.01.24-.38-.11-.73-.07.3-.18.72-.17z" class="C"/><path d="M356.49 17.72q.35-.04.73.07.4.25 1.21.39.17 1.32-3.69.92-2.91 1.24-4.98.24l6.73-1.62z" class="E"/><path fill="#5c2122" d="M362.29 26.36q6.5-2.55 12.24-2.58l-.47 1.12a.62.61 15.6 0 0 .48.84q5.91.9 9.37-3.16 2.67.55 4.68 2.35l-22.39 7.93a.46.46 0 0 0-.17.75q5.53 5.6 11.6 9.24 1.97 3.8 6.27 4.81 7.21 5 9.79 6.37 3.15 1.67 7.54.72l6.88-2.92a1.09 1.08-42.6 0 1 .9.03q1.05.53 1.94 1.44.58.18.49.4l6.78 5.15a.7.69-38.9 0 1-.13 1.18l-6.75 3.17a.45.12-14.9 0 1-.07.04q-1.71 1.29-2.4 2.56a1.05 1.05 0 0 0 .29 1.35l5.46 4.1a1.38 1.34 70.3 0 0 .51.25q2.65.68 4.08 2.98l1.08.95q-.09.91-1.03.69a.61.61 0 0 0-.61.97q1.3 1.64 3.37 2.27a.28.28 0 0 1 .19.33l-.07.26a.27.26-65.3 0 1-.4.15l-6.03-4.09q-1.01-.86-2.57-.65a.94.93-16.4 0 1-.95-.51q-.1-.2-.04-.67a1.11 1.1-68 0 0-.42-1q-1.54-1.2-5.85-4.44-.85-.63-2.29-.78-1.5-.15-2.9-1.81-1.71-2.01-6.92-4.62a1.88 1.79 85.3 0 1-.73-.65q-1.11-1.71-2.34-2.49a1.25.57 89.7 0 1-.39-.85c-.07-.48-1.79-.8-2.64-1.35q-3.48-2.28-6.01-4.87a.92.8 75.5 0 0-.32-.22l-1.5-.64a.83.81 7.5 0 1-.49-.62q-.18-1.06-2.21-1.71a2.31 2.29 77.1 0 1-.95-.6q-1.28-1.31-4.11-3.37-.72-.53-.73-1.36a.97.95 19 0 0-.38-.76q-1.17-.89-3.43-1.82-3.59-1.47-7.17-5.28a1.13 1.12 66 0 0-.87-.34q-4.31.26-6.66 1.23-5.43 2.25-7.93 2.23a2.39 2.37-58.3 0 0-1.08.26q-5.07 2.57-8.3 2.95-1.71.2-2.02-1.15a.87.86-78.2 0 0-.32-.5l-2.13-1.65a.53.53 0 0 0-.8.19l-.13.26a.23.23 0 0 0 .07.28l1.71 1.32a.24.24 0 0 1-.14.43q-.51.02-.08.93a1.82 1.75-15.1 0 1-1.51 2.51c-2.91.27-5.24.63-7.98 2.18q-1.56.88-3.73 1.01a3.68 3.46 30.3 0 0-1.09.25q-7.25 2.88-15.16 5.09-2.85.8-4.27 3.24a.74.73-56.2 0 0 .18.95q2.04 1.57 5.25 4.04.67.52 4.73 1.52a1.07 1.06 41.9 0 0 .59-.03l9.04-3.07a1.96 1.95-29.9 0 1 2.1.56q3.62 4.16 9.16 7.22 1.15.64 4.01.53a2.25 2.18-60.5 0 0 1.05-.31q2.9-1.76 6.42-2.24a2.87 2.83-29.7 0 1 2.13.57l8.18 6.32a.28.27-52.9 0 0 .39-.06q.11-.17.26-.13a.43.4-4.7 0 1 .25.2q.65 1.19 1.42 1.52a1.44 1.42-44.1 0 0 1.07.01l7.86-3.08a.85.83 10.2 0 0 .31-.21q.81-.89-.46-1.65a.3.29-61.2 0 1-.11-.39l.02-.03a.24.23 28.6 0 1 .33-.09c.96.58 1.78.49 2.41 1.52.49.81 2.22 1.05 3.07 1.83q1.62 1.48 5.2 3.91a1.87 1.85 6.2 0 1 .66.81l.44 1.05a1.08 1.08 0 0 0 1.41.57l10.36-4.37a.71.69 51.4 0 1 .7.09l10.09 7.79a2.6 2.59 51.8 0 0 2.67.32l5.51-2.47a1.09 1.08-20.6 0 1 1.48.67q.16.44 1.1 1.21a.14.14 0 0 1-.15.24q-.19-.07-.28-.1a.54.54 0 0 0-.47.96l1.72 1.21a.72.71 20.6 0 1 .3.65q-.04.26-.41.67a.53.52 46.9 0 1-.81-.03q-.72-.93-1.66-1.23a.33.32 85.6 0 0-.39.46q1.31 2.53 3.62 1.92.59-.16.92.13.56.5.55.89a.42.42 0 0 1-.61.36q-.97-.5-6.09-1.43-4.59-.84-11.06-2.25c-1.45-.32-3.62-1.47-4.95-1.32-1.64.2-2.69-1.06-4.67-.78a.64.63-32.5 0 0-.26 1.16q4.63 3.01 7.5 6.4a3.89 3.64-1.9 0 0 .81.71q3.92 2.52 6.67 4.94 2.72 2.39 3.97 2.93 2.56 1.08 4.69 1.37 1.89.26 3.94 1.51a3.48 3.45-24.4 0 0 1.16.43l13.08 2.25 14.91 2.69 16.59 3.12a.36.36 0 0 0 .32-.6q-4.49-4.61-9.6-7.36-.64-.55-.75-1.17-3.74-3.51-6.86-5.66-2.01-1.39-4.83-1.8l-12.89-2.54-4.64-.78a.97.97 0 0 1-.28-1.83l5.14-2.6q1.41-.68 2.35-1.92.46-.61.86-.62.76-.02 1.05-.43a.44.43-56.5 0 0-.12-.61l-2.83-1.91a.37.33 12.7 0 1-.15-.21q-.18-.78.85-.65l6.43 4.16q4.08 4.02 8.67 6.16l10.26-4.83a.5.45-1.5 0 0 .21-.2q.32-.64 1-.61.75.04 1.69-.54 2.72-1.68 5.55-3.06l6.72-3.78 23.49-12.07a.95.94-10.4 0 0 .5-.72q.17-1.42-1.77-2.63c-3.85-2.39-8.92-6.46-14.39-8.07q-3.39-.32-5.71-2.47a.59.59 0 0 0-.84.03q-.27.29-.49.38a.25.24 1.5 0 1-.32-.33q1.14-2.2.17-5.14l-5.79-1.31a.59.58-84.4 0 1-.45-.56q-.07-4.3-4-6.6 1.37-.72 2.28.12 10.85 9.91 23.66 18.11a4.3 4.1-4.7 0 1 .78.63q1.26 1.32 2.27 2.33 2.6 2.61 4.8-.41a1.27 1.25-78.6 0 1 .71-.48q.32-.07.36-.06a.88.73-49.6 0 1-.02 1.49q-1.11.66-1.38 1.55a.92.92 0 0 0 .3.98l10.14 8.28q-2.28 1.07-6.28-.98-2.26-.17-4.12-1.72a1.51 1.49 49.7 0 0-1.71-.15l-2.91 1.68a.72.71-46.1 0 0 .02 1.25q3.77 2.01 6.56 5.34a1.35 1.35 0 0 0 1.2.47q3.46-.44 4.33-3.95l1.23.47a1.34 1.32-3 0 1 .69.61q.7 1.29 1.93 1.71l1.06.55q-.1 1.69-1.53 1.88a.49.48.7 0 0-.41.39q-.08.38.04.57a.42.41 54.2 0 0 .61.1q1.67-1.34 2.8-1.64a.25.25 0 0 1 .31.28l-.15.91a.04.03-14.9 0 1-.02.03q-1.39.35-2.19 1.28a.62.61-44.6 0 0-.01.8l4.6 5.5q.54-.18 1.7-.06-.77.06-.98.28a.57.54-42.6 0 0-.05.73l4.99 6.2q.02.52-.42.79-8.65 5.26-16.65 11.04a.89.87-47.4 0 1-.96.05q-1.21-.72-2.53-1.41-.56-.29-.76.13-.16.32.09.89-3.56-1.38-6.63-3.69-5.45-4.08-10.97-8.27-2.32-.74-4.06 1.3a.74.74 0 0 0-.08.85q.5.84 1.54 1.36 1.47.22 2.42 1.56a.29.29 0 0 1-.4.41l-6.08-4.09a1.94 1.93 46.5 0 0-2.05-.06l-8.2 4.73a.4.4 0 0 0-.05.66l8.72 6.73a1.25 1.24 48.9 0 0 1.38.1l7.69-4.45a.98.97-26.3 0 0 .42-1.22q-.58-1.42-.6-1.83a.33.33 0 0 1 .52-.29l5.61 3.76a.38.38 0 0 1-.13.69q-1.16.28-2.14 1.33l-14.68 8.84a3.57 3.54-54.9 0 1-2.48.44L336.59 88.11q-17.15-13.32-34.02-25.65-.08-.07-3.15-2.94-1.95-1.83-4.74-2.19c-2.16-2.89-2.44-5.06-6.71-6.4q1.27-2.62 5.07-3.83 9.34-2.99 20.43-5.8 4.14-1.05 14.07-4.85a7.8 7.78-78.1 0 0 2.83-1.85c3.5-3.55 6.36-4.21 12.19-4.18a.89.86-66.9 0 0 .62-.26l1.81-1.81a.55.54-50 0 0-.07-.83q-1.56-1.1-2.92-.69c-.96.3-.98 1.3-1.18 2.29a.9.9 0 0 1-.88.73h-3.99a.24.24 0 0 1-.1-.45q2.32-1.16 3.89-3.03l5.5-1.76 5.58 2.42a.88.88 0 0 0 1.21-1q-.5-2.17-.91-4.84v-.01q.69 2.41 1.37 4.99a.62.6 53.5 0 1-.06.45q-.4.71-1.29.48a.24.24 0 0 0-.3.21v.01a.2.19-87.3 0 0 .19.22l7.43-.05.56-.34 2.75-.69a.24.24 0 0 0 .02-.46q-.39-.14-.72-.07a.71.71 0 0 1-.83-.67q-.12-3.36-1.59-5.68l1.32 1.01a1.09 1.06-71.4 0 1 .41.85v4.05a.19.19 0 0 0 .14.18l.33.09a.22.22 0 0 0 .27-.21v-5a.83.82-86.5 0 0-.72-.82l-5.66-.63q3.86.4 3.69-.92l3.23.37a.3.3 0 0 1 .21.46l-.55.81a.97.95 60.8 0 0-.15.55l.22 5.03a.28.28 0 0 0 .27.27h.01a.22.22 0 0 0 .21-.22v-5.81c.01 1.92.2 4.17.41 6.72zm-5.94 3.07q-.3.11-.45.6a.39.38 36.8 0 0 .05.32q.21.32 1.39 1.53.83.85 1.47.31.47-.4.76-1.6a.38.38 0 0 0-.63-.37q-.89.78-1.64.54a.68.68 0 0 1-.46-.81q.02-.06.03-.1a.39.39 0 0 0-.52-.42zm-4.905 1.992a2.01.72-141.6 0 0 1.128 1.813 2.01.72-141.6 0 0 2.022.684 2.01.72-141.6 0 0-1.128-1.813 2.01.72-141.6 0 0-2.022-.684zM344.4 37.28q.57-.69-2.31-2.67-.53-.37-.86.02-.33.4.13.86 2.46 2.48 3.04 1.79zm-25.288 4.518a2.08.63-146.7 0 0 1.393 1.669 2.08.63-146.7 0 0 2.084.615 2.08.63-146.7 0 0-1.393-1.669 2.08.63-146.7 0 0-2.084-.615zm-12.353 3.5a2.38.72-147.7 0 0 1.627 1.88 2.38.72-147.7 0 0 2.396.663 2.38.72-147.7 0 0-1.627-1.88 2.38.72-147.7 0 0-2.396-.663zm-12.705 3.899a2.47.76-146.8 0 0 1.651 1.988 2.47.76-146.8 0 0 2.483.717 2.47.76-146.8 0 0-1.651-1.988 2.47.76-146.8 0 0-2.483-.717zM310.1 64.34a.08.08 0 0 0 .03.11l2.34 1.4a1.17 1.15 50.6 0 0 .96.1q1.78-.59 3.69 1.35a.4.39-40.3 0 0 .52.04l.03-.01a.33.32 53.3 0 0 .06-.45q-1.77-2.43-4.14-1.77a1.31 1.29 52 0 1-1.01-.13l-1.77-1.06a.39.38-59.2 0 0-.53.14l-.18.28zm26.12 6.75q-3.33.9-6.7.13-2.96-.68-7.02-1.99a1.88 1.77 53.9 0 0-.53-.1l-3.21-.1a.48.47-20.4 0 0-.37.8q5.23 5.59 10.14 6.87a1.47 1.45 81.9 0 1 .91.69l.62 1.07a1.44 1.43-87.1 0 0 .43.48q4.46 3.21 6.34 5.7a4.06 4.03-14.3 0 0 2.69 1.58q9.19 1.28 17.58 3.37c4.97 1.25 9.31 1.38 14.23 2.53q9.23 2.17 18.1 3.43 2.63.38 5.34-1.36a.49.49 0 0 0 .07-.77q-2.53-2.37-4.82-3.79a4.2 3.92 80.6 0 1-.74-.57q-3.9-3.7-5.15-4.25-.77-.34-2.93-2.46-1.69-1.65-3.75-2.09-7.78-1.65-13.73-3.28c-1.64-.45-3.21-.25-4.83-.55q-9.15-1.66-15.87-3.17c-.42-.1-.94-.49-1.18-.8q.21-.42.06-.62-1.79-2.47-4.23-1.76a.97.96 53.9 0 1-.82-.13l-1.83-1.23a.42.42 0 0 0-.58.12l-.19.29a.32.31 29.9 0 0 .13.47q1.21.55 1.84 1.49zm121.53 9.39l-3.13 1.55a.5.5 0 0 0-.09.84l8.21 6.34a1.97 1.95-45.8 0 0 2.44-.04q1.73-1.42 4.61-2.45a.49.49 0 0 0 .27-.68c-1.57-3.13-3.12-3.5-5.44-5.27q-.08-.56.1-.8a.93.91 36.7 0 1 1.28-.17q1.65 1.19 3.78 2.92a2.96 2.93-16.3 0 0 .96.52l2.56.83a.38.37 31.5 0 1 .15.62l-2.27 2.28a.86.86 0 0 0 .1 1.3l7.84 5.8a4.44 4.43 71.7 0 0 1.31.66q2.72.85 3.51 1.68 2.52 2.68 5.91 4.51a1.01 1-42.8 0 0 .9.03q3.96-1.81 4.69-2.34 6.36-4.6 11.87-7.6a.52.52 0 0 0 .02-.9q-4.49-2.68-6.19-4.32c-3.86-3.75-9.06-6.01-12.22-9.94a1.06.85 4.9 0 0-.19-.18l-8.06-5.87a2.09 2.09 0 0 0-2.49.01q-1.62 1.21-2.46 2.59a.99.98 44 0 0 .02 1.05q.29.43 2.05 2.3a.12.06 58.8 0 1 .01.17q-.06 0-.11-.04-.77-.62-2.31-2.14a1.2 1.19 66.1 0 0-.92-.36q-.5.03-1.29-.73a.87.86 49.2 0 0-1.1-.09q-4.53 3.24-9.86 5.07a5.04 4.76 16.8 0 0-1.12.56l-3.34 2.29zm-5.6 10.35q2.68 2.05 3.67 2.58a1.41 1.4-42.1 0 0 1.23.06l2.78-1.17a1.14 1.14 0 0 0 .24-1.96q-2.5-1.88-4.52-3.42-2.69-2.05-3.68-2.58a1.41 1.4-42.1 0 0-1.23-.06l-2.78 1.17a1.14 1.14 0 0 0-.24 1.96q2.5 1.88 4.53 3.42zm-7.565 1.366a1.46.87-152.5 0 0 .893 1.446 1.46.87-152.5 0 0 1.697-.097 1.46.87-152.5 0 0-.893-1.446 1.46.87-152.5 0 0-1.697.098zm7.425 5.824q.95 2.4 3.83 2.48a.28.28 0 0 0 .17-.5c-1.13-.82-1.13-2.23-2.77-2.12a.69.69 0 0 1-.71-.86l.34-1.27a.62.62 0 0 0-.41-.75q-.58-.19-1.17 0-.34.12-.43.78.05-1.3-1.01-.79a.6.6 0 0 0-.31.73q.65 1.87 2.47 2.3z"/><path d="M349.76 19.34q2.07 1 4.98-.24l5.66.63a.83.82-86.5 0 1 .72.82v5a.22.22 0 0 1-.27.21l-.33-.09a.19.19 0 0 1-.14-.18v-4.05a1.09 1.06-71.4 0 0-.41-.85l-1.32-1.01-1.07 6.45q-.37.49-.06.97.33.53.94.49l-7.43.05a.2.19-87.3 0 1-.19-.22v-.01a.24.24 0 0 1 .3-.21q.89.23 1.29-.48a.62.6 53.5 0 0 .06-.45q-.68-2.58-1.37-4.99v.01q.41 2.67.91 4.84a.88.88 0 0 1-1.21 1l-5.58-2.42q.53-1.02.31-1.33 1.47-2.23 2.08-2.9 1.02-1.12 2.13-1.04z" class="C"/><path d="M358.65 19.58q1.47 2.32 1.59 5.68a.71.71 0 0 0 .83.67q.33-.07.72.07a.24.24 0 0 1-.02.46l-2.75.69q.48-.88-.54-1.25-.34-.13-.9.13l1.07-6.45z" class="F"/><path d="M405.06 19.34l-1.39 1.11q-1.16 4.46.22 8.9a.97.96-3 0 0 .74.66l1.6.29a.17.17 0 0 1 .11.26q-.09.12-.14.25a1.62 1.6 51 0 0-.09.91q.67 3.81 2.76 7.02l2.67.38q-1.76.08-3.44-.12-1.32-.16-1.54-1.21-.74-3.55-1.03-6.42a.25.25 0 0 0-.37-.19l-.83.48a.05.03 80.8 0 0-.02.04l1.54 6.27a2.12 2.06-74.1 0 0 .52.97q3.09 3.28 5.96 8.72.08.15.27.26.36.19.45.15a.05.05 0 0 1 .07.07q-.08.15-.41.16a.48.47-17.8 0 1-.38-.19q-1.9-2.57-6.14-9.16-1.85-2.86-2-6.71a1.1 1.08-35.7 0 1 .09-.52l.43-.98a.41.41 0 0 0-.4-.57l-1.13.07a.67.66-6.3 0 1-.69-.55l-1.11-8.06q-.01.06-.02.12-.71 3.98-.2 8.18a.74.73-88.4 0 0 .59.63l1.76.33a.5.5 0 0 1 .4.59q-.86 4.59.68 7.42c2.33 4.27 3.41 9 8.71 11.42a.27.27 0 0 1 .02.48q-1.49.83-1.88 2.9.09-.22-.49-.4l-2.51-2.16a1.17 1.17 0 0 0-.81-.28c-4.76.24-8.45-3.86-4.16-7.8a.57.57 0 0 0-.11-.92c-4.46-2.38-4.37-6-6.83-9.94l3.95-.26a.53.52-3.3 0 1 .56.49l.49 8.11a.17.16-3.5 0 0 .18.15l1.28-.07a.17.17 0 0 0 .14-.23q-1.84-4.21-.75-8.41a.53.53 0 0 0-.42-.66l-1.25-.24a.84.83 88.9 0 1-.66-.64q-1.04-4.63.3-8.21a.2.19 18.8 0 0-.13-.26h-.01a.16.16 0 0 0-.2.12q-1.02 4.21-.65 8.49a.48.47 1.6 0 0 .42.43q.08.01.26.07a.03.02 48.6 0 1 0 .05l-.71.04a.67.67 0 0 1-.7-.54c-.49-2.55.21-5.3.66-7.8a.31.3 12.1 0 0-.23-.35l-.02-.01a.26.26 0 0 0-.31.17q-1.44 4.13-1.18 8.62a.3.3 0 0 1-.35.31l-.49-.09a.37.37 0 0 1-.29-.42l1.52-8.15a.22.22 0 0 0-.42-.14q-2.19 4.52-.99 9.43-1.72-3.92-1.17-7.88a1.84 1.84 0 0 1 1.5-1.55q3.47-.62 6.45-2.74l1.75-.69z" class="B"/><g class="D"><path d="M408.87 38.74q-2.09-3.21-2.76-7.02a1.62 1.6 51 0 1 .09-.91q.05-.13.14-.25a.17.17 0 0 0-.11-.26l-1.6-.29a.97.96-3 0 1-.74-.66q-1.38-4.44-.22-8.9-.65 5.85 3.04 10.18a1.47 1.39-73.2 0 1 .3.6l1.86 7.51z"/><path d="M411.54 39.12q.67 6.77 6.72 8.51a.27.27 0 0 1 .05.5q-.25.14-.63.02a.05.04 72.7 0 0-.04.08q.13.11.14.14a.22.22 0 0 1 .02.32l-1.19 1.24a.71.7-37.7 0 0-.11.84q1.99 3.6 5.18 6.12a1.35 1.32 52 0 0 1.35.18l16.6-7.02a.45.45 0 0 0 .28-.48q-.04-.3.19-.46a.26.18 21.1 0 1 .12-.03l1.65.05a1.02 1-55.7 0 0 .46-.09l8.95-4.16a1.75 1.73.3 0 0 .83-.81l2.73-5.69a1.02 1.01 35.1 0 0-.21-1.16l-4.42-4.24q2.04 2.17 4.19 2.74 3.93 2.3 4 6.6a.59.58-84.4 0 0 .45.56l5.79 1.31c-.74 5.69-4.88 8.28-9.29 10.71a.57.57 0 0 0 .43 1.04l5.41-1.58a1.22 1.21-7.3 0 1 1.56 1.2c-.17 6.03-3.13 7.41-7.4 11.15l-9.34 4.57q2.01-5.2 1.05-10.45a.39.39 0 0 0-.55-.29q-6.11 2.82-12.23 5.73-1.23.58-3.48 1l-1.62-.79q9.34-3.86 19.11-8.71a1.14 1.1 51.4 0 0 .18-1.87q-.35-.29-.44-.73a.46.46 0 0 1 .63-.52q.03.01.13.07a.53.53 0 0 0 .8-.37q.43-2.86-.46-5.83a.45.45 0 0 0-.63-.28c-1.99.94-3.97.25-5.34 2.7a.56.56 0 0 1-.63.27q-.64-.17-1.01-.02-9.6 3.92-19.83 8.58a.68.67 50.6 0 0-.11 1.16l7.19 5.25q-.38.09-.46.17a.52.52 0 0 0 .06.79l10.33 7.46a.14.14 0 0 1-.02.24l-8.95 3.78a.28.27-26.5 0 1-.34-.11l-4.57-7.91a.34.34 0 0 0-.41-.15c-2.1.72-5.02 1.38-5.2 4.03q-1.43-2.3-4.08-2.98a1.38 1.34 70.3 0 1-.51-.25l-5.46-4.1a1.05 1.05 0 0 1-.29-1.35q.69-1.27 2.4-2.56a.45.12-14.9 0 0 .07-.04l6.75-3.17a.7.69-38.9 0 0 .13-1.18l-6.78-5.15q.39-2.07 1.88-2.9a.27.27 0 0 0-.02-.48c-5.3-2.42-6.38-7.15-8.71-11.42q-1.54-2.83-.68-7.42a.5.5 0 0 0-.4-.59l-1.76-.33a.74.73-88.4 0 1-.59-.63q-.51-4.2.2-8.18.01-.06.02-.12c.39 2.34.58 5.07 1.11 8.06a.67.66-6.3 0 0 .69.55l1.13-.07a.41.41 0 0 1 .4.57l-.43.98a1.1 1.08-35.7 0 0-.09.52q.15 3.85 2 6.71 4.24 6.59 6.14 9.16a.48.47-17.8 0 0 .38.19q.33-.01.41-.16a.05.05 0 0 0-.07-.07q-.09.04-.45-.15-.19-.11-.27-.26-2.87-5.44-5.96-8.72a2.12 2.06-74.1 0 1-.52-.97l-1.54-6.27a.05.03 80.8 0 1 .02-.04l.83-.48a.25.25 0 0 1 .37.19q.29 2.87 1.03 6.42.22 1.05 1.54 1.21 1.68.2 3.44.12zm-15.01-6.92q-1.2-4.91.99-9.43a.221.221 0 0 1 .42.14l-1.52 8.15a.37.37 0 0 0 .29.42l.49.09a.3.3 0 0 0 .35-.31q-.26-4.49 1.18-8.62a.26.26 0 0 1 .31-.17l.02.01a.31.3 12.1 0 1 .23.35c-.45 2.5-1.15 5.25-.66 7.8a.67.67 0 0 0 .7.54l.71-.04a.031.021 48.6 0 0 0-.05q-.18-.06-.26-.07a.48.47 1.6 0 1-.42-.43q-.37-4.28.65-8.49a.16.16 0 0 1 .2-.12h.01a.2.19 18.8 0 1 .13.26q-1.34 3.58-.3 8.21a.84.83 88.9 0 0 .66.64l1.25.24a.53.53 0 0 1 .42.66q-1.09 4.2.75 8.41a.17.17 0 0 1-.14.23l-1.28.07a.17.16-3.5 0 1-.18-.15l-.49-8.11a.53.52-3.3 0 0-.56-.49l-3.95.26z"/></g><path d="M345.55 23.28q.22.31-.31 1.33l-5.5 1.76q-6.8 1.88-13.49 3.89-2.38.71-2.93-1.49 9.68-3.5 19.9-4.74 1.16-.14 2.33-.75z" class="E"/><path d="M401.23 54.75q-4.39.95-7.54-.72-2.58-1.37-9.79-6.37-2.62-3.14-6.27-4.81-6.07-3.64-11.6-9.24a.46.46 0 0 1 .17-.75l22.39-7.93c-.07 5.27-.65 7.52 3.96 11.09a.78.68 46.5 0 1 .05 1.2q-1 .63-2.24-.09a.62.61-85.2 0 0-.88.75l2.96 8.02a1.15 1.03-60.5 0 1 .08.36q.13 1.96.38 3.85c.42 3.28 5.67 4.39 8.33 4.64zm-14.747-19.714a.66.66 0 0 0-.133-.924l-5.285-3.954a.66.66 0 0 0-.924.133l-.024.032a.66.66 0 0 0 .133.924l5.285 3.954a.66.66 0 0 0 .924-.133l.024-.032z" class="C"/><path d="M359.02 27.15l-.56.34q-.61.04-.94-.49-.31-.48.06-.97.56-.26.9-.13 1.02.37.54 1.25z" class="D"/><path d="M321 29.32q1.07.52 1.18 1.54a.68.68 0 0 1-.48.72l-51.85 15.17a.73.73 0 0 0 .05 1.41q6.31 1.4 13.26.76a.41.41 0 0 1 .44.49q-.29 1.53-2.08 1.25-2.27-.36-4.43-.34-5.88.68-8.19-.96-1.89-7.23-1.24-13.69l1.05 6.5a1.14 1.14 0 0 0 1.42.92L321 29.32z" class="E"/><path d="M356.87 29.85q-.01.04-.03.1a.68.68 0 0 0 .46.81q.75.24 1.64-.54a.38.38 0 0 1 .63.37q-.29 1.2-.76 1.6-.64.54-1.47-.31-1.18-1.21-1.39-1.53a.39.38 36.8 0 1-.05-.32q.15-.49.45-.6a.39.39 0 0 1 .52.42z" class="C"/><g class="F"><rect x="-3.96" y="-.68" transform="matrix(.800731 .599024 -.599024 .800731 383.3 32.68)" width="7.92" height="1.36" rx=".66"/><ellipse cx="0" cy="0" transform="matrix(-.783693 -.621148 .621148 -.783693 353.02 32.67)" rx="2.01" ry=".72"/></g><path d="M344.4 37.28q-.58.69-3.04-1.79-.46-.46-.13-.86.33-.39.86-.02 2.88 1.98 2.31 2.67zm71.31 38.73l-4.81 3.34a.34.33-57.5 0 0 .13.6q1.27.25 1.11 1.55a.93.92 20.1 0 0 .43.91q.36.23.25.61a.41.4-72.7 0 0 .26.51q4.04 1.32 8.38.73l-5.14 2.6a.97.97 0 0 0 .28 1.83l4.64.78c.33 6.22 8.68 7.46 13.49 8.05q1.91.53 8.28 1.71.46.09 1.91.86a.36.32-26.3 0 0 .18.05q.65.03.72-.67.11.62.75 1.17l-9.28-1.29-5.47-.95-9.98-1.49a.54.54 0 0 0-.54.81l3.05 5.07-13.08-2.25a3.48 3.45-24.4 0 1-1.16-.43q-2.05-1.25-3.94-1.51-2.13-.29-4.69-1.37-1.25-.54-3.97-2.93-2.75-2.42-6.67-4.94a3.89 3.64-1.9 0 1-.81-.71q-2.87-3.39-7.5-6.4a.64.63-32.5 0 1 .26-1.16c1.98-.28 3.03.98 4.67.78 1.33-.15 3.5 1 4.95 1.32q6.47 1.41 11.06 2.25 5.12.93 6.09 1.43a.42.42 0 0 0 .61-.36q.01-.39-.55-.89-.33-.29-.92-.13-2.31.61-3.62-1.92a.33.32 85.6 0 1 .39-.46q.94.3 1.66 1.23a.53.52 46.9 0 0 .81.03q.37-.41.41-.67a.72.71 20.6 0 0-.3-.65l-1.72-1.21a.54.54 0 0 1 .47-.96q.09.03.28.1a.142.142 0 0 0 .15-.24q-.94-.77-1.1-1.21a1.09 1.08-20.6 0 0-1.48-.67l-5.51 2.47a2.6 2.59 51.8 0 1-2.67-.32l-10.09-7.79a.71.69 51.4 0 0-.7-.09l-10.36 4.37a1.08 1.08 0 0 1-1.41-.57l-.44-1.05a1.87 1.85 6.2 0 0-.66-.81q-3.58-2.43-5.2-3.91c-.85-.78-2.58-1.02-3.07-1.83-.63-1.03-1.45-.94-2.41-1.52a.24.23 28.6 0 0-.33.09l-.02.03a.3.29-61.2 0 0 .11.39q1.27.76.46 1.65a.85.83 10.2 0 1-.31.21l-7.86 3.08a1.44 1.42-44.1 0 1-1.07-.01q-.77-.33-1.42-1.52a.43.4-4.7 0 0-.25-.2q-.15-.04-.26.13a.28.27-52.9 0 1-.39.06l-8.18-6.32a2.87 2.83-29.7 0 0-2.13-.57q-3.52.48-6.42 2.24a2.25 2.18-60.5 0 1-1.05.31q-2.86.11-4.01-.53-5.54-3.06-9.16-7.22a1.96 1.95-29.9 0 0-2.1-.56l-9.04 3.07a1.07 1.06 41.9 0 1-.59.03q-4.06-1-4.73-1.52-3.21-2.47-5.25-4.04a.74.73-56.2 0 1-.18-.95q1.42-2.44 4.27-3.24 7.91-2.21 15.16-5.09a3.68 3.46 30.3 0 1 1.09-.25q2.17-.13 3.73-1.01c2.74-1.55 5.07-1.91 7.98-2.18a1.82 1.75-15.1 0 0 1.51-2.51q-.43-.91.08-.93a.24.24 0 0 0 .14-.43l-1.71-1.32a.23.23 0 0 1-.07-.28l.13-.26a.53.53 0 0 1 .8-.19l2.13 1.65a.87.86-78.2 0 1 .32.5q.31 1.35 2.02 1.15 3.23-.38 8.3-2.95a2.39 2.37-58.3 0 1 1.08-.26q2.5.02 7.93-2.23 2.35-.97 6.66-1.23a1.13 1.12 66 0 1 .87.34q3.58 3.81 7.17 5.28 2.26.93 3.43 1.82a.97.95 19 0 1 .38.76q.01.83.73 1.36 2.83 2.06 4.11 3.37a2.31 2.29 77.1 0 0 .95.6q2.03.65 2.21 1.71a.83.81 7.5 0 0 .49.62l1.5.64a.92.8 75.5 0 1 .32.22q2.53 2.59 6.01 4.87c.85.55 2.57.87 2.64 1.35a1.25.57 89.7 0 0 .39.85q1.23.78 2.34 2.49a1.88 1.79 85.3 0 0 .73.65q5.21 2.61 6.92 4.62 1.4 1.66 2.9 1.81 1.44.15 2.29.78 4.31 3.24 5.85 4.44a1.11 1.1-68 0 1 .42 1q-.06.47.04.67a.94.93-16.4 0 0 .95.51q1.56-.21 2.57.65zm-65.781-17.229a.41.41 0 0 0-.086-.574l-6.608-4.889a.41.41 0 0 0-.573.086l-.012.016a.41.41 0 0 0 .086.573l6.608 4.889a.41.41 0 0 0 .574-.086l.012-.016z" class="C"/><ellipse cx="0" cy="0" transform="matrix(-.835807 -.549023 .549023 -.835807 320.85 42.94)" rx="2.08" ry=".63" class="B"/><path d="M377.63 42.85q3.65 1.67 6.27 4.81-4.3-1.01-6.27-4.81zm94.2 8.87c-1.1 7.39-5.93 9.81-11.69 13.15a.152.152 0 0 0 .12.28l7.7-2.25a1.07 1.07 0 0 1 1.37.96q.4 7.22-5.33 11.35l-6.72 3.78 5.91-5.55a2.1 2.09-35.5 0 0 .42-2.49q-.76-1.45-.91-3.48a1.43 1.43 0 0 0-1.93-1.23q-2.44.92-5.42.47c4.27-3.74 7.23-5.12 7.4-11.15a1.22 1.21-7.3 0 0-1.56-1.2l-5.41 1.58a.57.57 0 0 1-.43-1.04c4.41-2.43 8.55-5.02 9.29-10.71q.97 2.94-.17 5.14a.25.24 1.5 0 0 .32.33q.22-.09.49-.38a.59.59 0 0 1 .84-.03q2.32 2.15 5.71 2.47z" class="F"/><ellipse cx="0" cy="0" transform="matrix(-.845262 -.534352 .534352 -.845262 308.77 46.57)" rx="2.38" ry=".72" class="B"/><path d="M429.18 66.48q-.21-.15-.41-.3l-7.19-5.25a.68.67 50.6 0 1 .11-1.16q10.23-4.66 19.83-8.58.37-.15 1.01.02a.56.56 0 0 0 .63-.27c1.37-2.45 3.35-1.76 5.34-2.7a.45.45 0 0 1 .63.28q.89 2.97.46 5.83a.53.53 0 0 1-.8.37q-.1-.06-.13-.07a.46.46 0 0 0-.63.52q.09.44.44.73a1.14 1.1 51.4 0 1-.18 1.87q-9.77 4.85-19.11 8.71z" class="E"/><ellipse cx="0" cy="0" transform="matrix(-.836764 -.547563 .547563 -.836764 296.12 50.55)" rx="2.47" ry=".76" class="B"/><path d="M255.59 51.95q.24-.54.1-.93 6.53-.38 12.42.69a.96.96 0 0 1 .79.98l-.08 2.61a.63.62-83.3 0 1-.74.59q-1.56-.32-4.26-.16-.17.01-.25-.08a.08.08 0 0 1 .06-.13l3.22.1a.77.77 0 0 0 .74-1.07l-.17-.4a1.3 1.29-10.3 0 0-1.15-.79l-9.29-.3a.67.65 22.8 0 0-.49.19l-.28.27a.26.26 0 0 1-.44-.15l-.18-1.42zm21.5-1.63q-.53.6-.1 1.71l-6.74-.25q-.32-.87-1.25-.99a.19.18 4.9 0 1-.17-.19v-.01a.19.19 0 0 1 .19-.18l8.07-.09z" class="F"/><path d="M283.97 61.31l-.57-9.46a1.19 1.19 0 0 1 1.12-1.26l.29-.02a.52.52 0 0 1 .53.64q-.64 2.56.12 5.33a.67.58-51.8 0 1 .01.25l-.66 4.56a.42.42 0 0 1-.84-.04zm4-10.38c4.27 1.34 4.55 3.51 6.71 6.4l1.89 2.51a.22.22 0 0 1-.26.33q-2.72-1.27-4.06-3.86-1.12-3.36-4.12-4.24a.67.66-68.7 0 1-.41-.94q.06-.12.25-.2zm-10.98 1.1q.66 2.37-.72 3.68a1.06 1.05 58.1 0 0-.26 1.14q.05.15.09.31a.71.69 62.6 0 1-.19.63l-5.12 5.12a.43.43 0 0 1-.66-.55q2.37-3.44 5.19-5.93a.34.34 0 0 0-.22-.59h-4.27a.7.69 1.2 0 1-.7-.72l.12-3.34 6.74.25z" class="B"/><path d="M464 75.21q5.73-4.13 5.33-11.35a1.07 1.07 0 0 0-1.37-.96l-7.7 2.25a.15.15 0 0 1-.12-.28c5.76-3.34 10.59-5.76 11.69-13.15 5.47 1.61 10.54 5.68 14.39 8.07q1.94 1.21 1.77 2.63a.95.94-10.4 0 1-.5.72L464 75.21z" class="C"/><g class="B"><rect x="-4.52" y="-.42" transform="matrix(.803857 .594823 -.594823 .803857 346.29 56.1)" width="9.04" height=".84" rx=".41"/><circle cx="288.27" cy="55.21" r="1.1"/></g><path d="M487.3 54.91q-.01.13-.21.22a.29.21-8.2 0 1-.41-.22q.13-.37.45-.24.19.08.17.24z" class="C"/><path d="M294.68 57.33q2.79.36 4.74 2.19 3.07 2.87 3.15 2.94 16.87 12.33 34.02 25.65-2.21.83-2.09 3.25l-5.08-4.08a.41.4 24.5 0 0-.65.24l-.41 2.23a.65.65 0 0 0 .62.77l3.12.1a.11.05 73 0 1 .07.08q.01.01.01.02a.02.01-9.2 0 1-.02.02q-4.27-.07-8.49.42-.66.07-.81-.58-.02-.08.05-.34 2.93-.17 2.19-1.99-.99-2.39-4.1-1.79 1.95-.47 4.11-.57c1.03-.04 2.46.55 3.26.53a.22.22 0 0 0 .13-.39c-.59-.45-1.98-.89-2.75-1.47q-17.45-13.15-25.96-19.64a.97.93-88.8 0 1-.22-.24l-1.61-2.33a.71.71 0 0 0-1.29.4V73.2a.08.07 23.7 0 1-.13.05c-1.51-1.63-1.55-3.92-1.37-6.12.31-3.84-.9-7.54-2.92-10.82q1.34 2.59 4.06 3.86a.22.22 0 0 0 .26-.33l-1.89-2.51z" class="F"/><path d="M272.05 69.25l.17-5.28a.87.83-23.4 0 1 .24-.56l3.27-3.27a.49.49 0 0 1 .82.24q.55 2.29.02 5.14a1.63 1.62-17.5 0 1-.45.86l-3.24 3.24a.49.48 68.6 0 1-.83-.37z" class="D"/><path d="M446.01 71.28l-5.54 2.7a.95.94-44 0 1-.85-.01Q434.93 71.49 431 68q-.22-.2-.2-.73 2.25-.42 3.48-1 6.12-2.91 12.23-5.73a.39.39 0 0 1 .55.29q.96 5.25-1.05 10.45z" class="E"/><path d="M310.81 63.92l1.77 1.06a1.31 1.29 52 0 0 1.01.13q2.37-.66 4.14 1.77a.33.32 53.3 0 1-.06.45l-.03.01a.4.39-40.3 0 1-.52-.04q-1.91-1.94-3.69-1.35a1.17 1.15 50.6 0 1-.96-.1l-2.34-1.4a.08.08 0 0 1-.03-.11l.18-.28a.39.38-59.2 0 1 .53-.14z" class="F"/><path d="M492.02 67.28q1.47 1.76 3.37 2.92-.87 3.51-4.33 3.95a1.35 1.35 0 0 1-1.2-.47q-2.79-3.33-6.56-5.34a.72.71-46.1 0 1-.02-1.25l2.91-1.68a1.51 1.49 49.7 0 1 1.71.15q1.86 1.55 4.12 1.72z" class="C"/><path d="M428.77 66.18q.2.15.41.3l1.62.79q-.02.53.2.73 3.93 3.49 8.62 5.97a.95.94-44 0 0 .85.01l5.54-2.7 9.34-4.57q2.98.45 5.42-.47a1.43 1.43 0 0 1 1.93 1.23q.15 2.03.91 3.48a2.1 2.09-35.5 0 1-.42 2.49l-5.91 5.55q-2.83 1.38-5.55 3.06-.94.58-1.69.54-.68-.03-1 .61a.5.45-1.5 0 1-.21.2l-10.26 4.83q4.01-3.68 8.57-5.34a.89.89 0 0 0 .25-1.54l-6.5-5.02a1.51 1.48 52 0 0-1.5-.2q-5.27 2.26-9.49 5.94l-6.43-4.16q-1.25-1.8-3.18-2.48l-1.08-.95c.18-2.65 3.1-3.31 5.2-4.03a.34.34 0 0 1 .41.15l4.57 7.91a.28.27-26.5 0 0 .34.11l8.95-3.78a.14.14 0 0 0 .02-.24l-10.33-7.46a.52.52 0 0 1-.06-.79q.08-.08.46-.17zm19.08 5.9l-5.96 3.1a.51.51 0 0 0-.07.86l6.84 5.1q5.19-.42 8.41-4.05a2.66 2.66 0 0 0 .67-1.94l-.39-6.49a.48.48 0 0 0-.67-.41l-8.83 3.83z" class="B"/><path d="M498.3 68.26q.85.58 1.52 1.51l-.27 2.2-.31 1.02q-1.23-.42-1.93-1.71a1.34 1.32-3 0 0-.69-.61l-1.23-.47q-1.9-1.16-3.37-2.92 4 2.05 6.28.98z" class="E"/><path d="M448.66 81.14q1.28-4.45-.81-9.06l8.83-3.83a.48.48 0 0 1 .67.41l.39 6.49a2.66 2.66 0 0 1-.67 1.94q-3.22 3.63-8.41 4.05z" class="D"/><path d="M341.84 72.46q-.76.06-1.21-.35-1.4-1.27-4.41-1.02-.63-.94-1.84-1.49a.32.31 29.9 0 1-.13-.47l.19-.29a.42.42 0 0 1 .58-.12l1.83 1.23a.97.96 53.9 0 0 .82.13q2.44-.71 4.23 1.76.15.2-.06.62z" class="F"/><path d="M336.22 71.09q3.01-.25 4.41 1.02.45.41 1.21.35c.24.31.76.7 1.18.8q6.72 1.51 15.87 3.17c1.62.3 3.19.1 4.83.55q5.95 1.63 13.73 3.28 2.06.44 3.75 2.09 2.16 2.12 2.93 2.46 1.25.55 5.15 4.25a4.2 3.92 80.6 0 0 .74.57q2.29 1.42 4.82 3.79a.49.49 0 0 1-.07.77q-2.71 1.74-5.34 1.36-8.87-1.26-18.1-3.43c-4.92-1.15-9.26-1.28-14.23-2.53q-8.39-2.09-17.58-3.37a4.06 4.03-14.3 0 1-2.69-1.58q-1.88-2.49-6.34-5.7a1.44 1.43-87.1 0 1-.43-.48l-.62-1.07a1.47 1.45 81.9 0 0-.91-.69q-4.91-1.28-10.14-6.87a.48.47-20.4 0 1 .37-.8l3.21.1a1.88 1.77 53.9 0 1 .53.1q4.06 1.31 7.02 1.99 3.37.77 6.7-.13zm128.4 9.68q-2.88-2.57-6.87-.29l3.34-2.29a5.04 4.76 16.8 0 1 1.12-.56q5.33-1.83 9.86-5.07a.87.86 49.2 0 1 1.1.09q.79.76 1.29.73a1.2 1.19 66.1 0 1 .92.36q1.54 1.52 2.31 2.14.05.04.11.04a.12.06 58.8 0 0-.01-.17q-1.76-1.87-2.05-2.3a.99.98 44 0 1-.02-1.05q.84-1.38 2.46-2.59a2.09 2.09 0 0 1 2.49-.01l8.06 5.87a1.06.85 4.9 0 1 .19.18c3.16 3.93 8.36 6.19 12.22 9.94q1.7 1.64 6.19 4.32a.52.52 0 0 1-.02.9q-5.51 3-11.87 7.6-.73.53-4.69 2.34a1.01 1-42.8 0 1-.9-.03q-3.39-1.83-5.91-4.51-.79-.83-3.51-1.68a4.44 4.43 71.7 0 1-1.31-.66l-7.84-5.8a.86.86 0 0 1-.1-1.3l2.27-2.28a.38.37 31.5 0 0-.15-.62l-2.56-.83a2.96 2.93-16.3 0 1-.96-.52q-2.13-1.73-3.78-2.92a.93.91 36.7 0 0-1.28.17q-.18.24-.1.8zm38.33-7.49q-.87.15-1.63-.36-1.29-.27-1.77-.95l.27-2.2 3.13 3.51z" class="C"/><g class="B"><path d="M252.49 70.46l-1.2 5.19-3.94.76a.29.29 0 0 1-.35-.29l.01-.27a.03.03 0 0 0-.06-.02q-.59 1.01-.63 2.33l-6.91-.24a.51.5 3.7 0 1-.49-.55q.11-1.17.67-2.41 6.44-1.23 12.9-4.5z"/><ellipse cx="0" cy="0" transform="matrix(.151261 -.988494 .988494 .151261 289.09 72.93)" rx="1.14" ry=".89"/><path d="M501.32 72.92l-1.02.62-1.06-.55.31-1.02q.48.68 1.77.95z"/></g><path d="M447.85 72.08q2.09 4.61.81 9.06l-6.84-5.1a.51.51 0 0 1 .07-.86l5.96-3.1zm53.47.84q.76.51 1.63.36l1.83 3.25q.05.34.38.47 2.41 1.61 2.33 3.72l-1.99-.44a.49.48-78.3 0 0-.59.39l-.56 2.97-4.6-5.5a.62.61-44.6 0 1 .01-.8q.8-.93 2.19-1.28a.04.03-14.9 0 0 .02-.03l.15-.91a.25.25 0 0 0-.31-.28q-1.13.3-2.8 1.64a.42.41 54.2 0 1-.61-.1q-.12-.19-.04-.57a.49.48.7 0 1 .41-.39q1.43-.19 1.53-1.88l1.02-.62z" class="E"/><path d="M266.66 82.12c.45-2.26 2.14-2.13 2.63-3.89q.73-2.65 2.08-2.77a.79.79 0 0 1 .57 1.4l-1.37 1.13a4.22 4.19 84.6 0 0-1.02 1.24q-1.38 2.56-2.35 3.24a.35.35 0 0 1-.54-.35z" class="B"/><path d="M423.47 77.91q-1.03-.13-.85.65a.37.33 12.7 0 0 .15.21l2.83 1.91a.44.43-56.5 0 1 .12.61q-.29.41-1.05.43-.4.01-.86.62-.94 1.24-2.35 1.92-4.34.59-8.38-.73a.41.4-72.7 0 1-.26-.51q.11-.38-.25-.61a.93.92 20.1 0 1-.43-.91q.16-1.3-1.11-1.55a.34.33-57.5 0 1-.13-.6l4.81-3.34 6.03 4.09a.27.26-65.3 0 0 .4-.15l.07-.26a.28.28 0 0 0-.19-.33q-2.07-.63-3.37-2.27a.61.61 0 0 1 .61-.97q.94.22 1.03-.69 1.93.68 3.18 2.48z" class="F"/><path d="M251.29 75.65l-.32 1.75a.51.51 0 0 1-.59.4q-.82-.16-1.8.27a.61.6 62.5 0 1-.77-.25l-.17-.3a.4.4 0 0 1 .2-.57l3.45-1.3z" class="D"/><path d="M438.57 88.23q-4.59-2.14-8.67-6.16 4.22-3.68 9.49-5.94a1.51 1.48 52 0 1 1.5.2l6.5 5.02a.89.89 0 0 1-.25 1.54q-4.56 1.66-8.57 5.34z" class="E"/><path d="M505.16 77q-.33-.13-.38-.47.31.23.38.47z" class="C"/><path d="M301.66 80.7a.54.54 0 0 1-.98.16q-.46-.75-.44-1.81a.72.72 0 0 1 1.38-.28q.33.75.04 1.93zm162.96.07c2.32 1.77 3.87 2.14 5.44 5.27a.49.49 0 0 1-.27.68q-2.88 1.03-4.61 2.45a1.97 1.95-45.8 0 1-2.44.04l-8.21-6.34a.5.5 0 0 1 .09-.84l3.13-1.55q3.99-2.28 6.87.29z" class="B"/><path d="M507.49 80.72q.2 2.75-1.44 2.86-1.16-.12-1.7.06l.56-2.97a.49.48-78.3 0 1 .59-.39l1.99.44z" class="C"/><ellipse cx="0" cy="0" transform="matrix(.509041 -.860742 .860742 .509041 264.87 85.55)" rx="2.09" ry=".55" class="B"/><path d="M452.15 90.83q-2.03-1.54-4.53-3.42a1.14 1.14 0 0 1 .24-1.96l2.78-1.17a1.41 1.4-42.1 0 1 1.23.06q.99.53 3.68 2.58 2.02 1.54 4.52 3.42a1.14 1.14 0 0 1-.24 1.96l-2.78 1.17a1.41 1.4-42.1 0 1-1.23-.06q-.99-.53-3.67-2.58zm-129.24-.59q-2.19-.14-3.91-1.68a.6.59 40.2 0 1-.07-.8q.56-.74 2.07-1.3 3.11-.6 4.1 1.79.74 1.82-2.19 1.99z" class="D"/><path d="M246.35 127.94q-.35.36-.89.64-.8-.71.17-2.26 11.98-19.09 24.54-38.62a.63.63 0 0 1 .98-.1l.25.24a.59.59 0 0 1 .08.73l-25.13 39.37z" class="E"/><path d="M336.59 88.11l121.94 23.03a3.57 3.54-54.9 0 0 2.48-.44l14.68-8.84q.58.34.79.92-.94 1.1-1.53 1.45-8.62 5.22-15.8 9.77a1.59 1.55 31.4 0 1-1.01.23q-5.83-.71-11.94-2.02l-107.72-20a.54.53-88.5 0 0-.63.6q.14 1.05-1.26.82a.34.34 0 0 1-.13-.62q.16-.1.27-.2a.52.51-58.1 0 0-.2-.88l-2.03-.57q-.12-2.42 2.09-3.25z" class="D"/><path d="M421.24 89.47l12.89 2.54q-.71 2.83.6 5.51c-4.81-.59-13.16-1.83-13.49-8.05z" class="B"/><path d="M471.18 90.32q.12.99-.67 1.72-.49.45-.81 1.11-.39.81-1.12.68-1.04-.52-1.54-1.36a.74.74 0 0 1 .08-.85q1.74-2.04 4.06-1.3z" class="D"/><path d="M488.78 102.28l3.69 1.84-6.32-1.81a.66.64-73.3 0 0-.8.44l-.53 1.68-1.59-1.14a.75.74-48.9 0 0-.95.07q-.41.38-.73 1.16a.85.84-61.6 0 1-1.26.38q-1.47-1.01-2.68-2.05-.25-.22-.54-.22-.31 0-.59.15-.21-.58-.79-.92.98-1.05 2.14-1.33a.38.38 0 0 0 .13-.69l-5.61-3.76a.33.33 0 0 0-.52.29q.02.41.6 1.83a.98.97-26.3 0 1-.42 1.22l-7.69 4.45a1.25 1.24 48.9 0 1-1.38-.1l-8.72-6.73a.4.4 0 0 1 .05-.66l8.2-4.73a1.94 1.93 46.5 0 1 2.05.06l6.08 4.09a.29.29 0 0 0 .4-.41q-.95-1.34-2.42-1.56.73.13 1.12-.68.32-.66.81-1.11.79-.73.67-1.72 5.52 4.19 10.97 8.27 3.07 2.31 6.63 3.69z" class="B"/><path d="M510.71 92.95q-.2-.7-.97-.16-5.2 3.68-6.76 4.62-5.51 3.3-10.51 6.71l-3.69-1.84q-.25-.57-.09-.89.2-.42.76-.13 1.32.69 2.53 1.41a.89.87-47.4 0 0 .96-.05q8-5.78 16.65-11.04.44-.27.42-.79 1.07.79 1.22 1.27.24.79-.52.89z" class="C"/><path d="M317.53 99.54q.64-2.32.07-3.04a.77.77 0 0 1-.03-.92q.48-.72.27-2.61a.83.83 0 0 1 .82-.92h4.7a.77.76-90 0 1 .76.77v5.29a2.16 2.15 0 0 1-2.16 2.15h-3.88a.57.57 0 0 1-.55-.72z" class="E"/><g class="D"><path d="M445.82 99.47q-.07.7-.72.67a.36.32-26.3 0 1-.18-.05q-1.45-.77-1.91-.86-6.37-1.18-8.28-1.71-1.31-2.68-.6-5.51 2.82.41 4.83 1.8 3.12 2.15 6.86 5.66z"/><ellipse cx="0" cy="0" transform="matrix(-.887011 -.461749 .461749 -.887011 445.88 92.87)" rx="1.46" ry=".87"/></g><path d="M332.84 92.78l-.2 5.95a1.3 1.3 0 0 1-.94 1.21q-3.94 1.13-6.66.43a.24.24 0 0 1-.05-.45q2.54-1.28 4.81-.94a1.11 1.1-84.7 0 0 1.27-1.06l.17-5.32a.17.16-86.5 0 1 .17-.16l1.15.04a.29.29 0 0 1 .28.3z" class="F"/><path d="M510.71 92.95l-1.91 2.35-17.38 11.38a.99.97 39.5 0 1-.91.08l-5.69-2.33.53-1.68a.66.64-73.3 0 1 .8-.44l6.32 1.81q5-3.41 10.51-6.71 1.56-.94 6.76-4.62.77-.54.97.16z" class="D"/><path d="M511.52 93.98q.01.01-.03.27a.04.03-61.2 0 1-.06.02q-.13-.15-.14-.23a.12.12 0 0 1 .23-.06zm-60.66 1.8l1.15 2.24q-1.82-.43-2.47-2.3a.6.6 0 0 1 .31-.73q1.06-.51 1.01.79z" class="C"/><path d="M452.01 98.02l-1.15-2.24q.09-.66.43-.78.59-.19 1.17 0a.62.62 0 0 1 .41.75l-.34 1.27a.69.69 0 0 0 .71.86c1.64-.11 1.64 1.3 2.77 2.12a.28.28 0 0 1-.17.5q-2.88-.08-3.83-2.48zm-20.19.38c.17 3.89 3.29 5.54 6.7 6.35q.05.36.74.73l-14.91-2.69-3.05-5.07a.54.54 0 0 1 .54-.81l9.98 1.49z" class="F"/><path d="M431.82 98.4l5.47.95 1.23 5.4c-3.41-.81-6.53-2.46-6.7-6.35z" class="B"/><path d="M437.29 99.35l9.28 1.29q5.11 2.75 9.6 7.36a.36.36 0 0 1-.32.6l-16.59-3.12q-.69-.37-.74-.73l-1.23-5.4z" class="D"/><path d="M502.8 105.87l-1.76 1.47a1.52 1.5 75 0 0-.52.92l-.53 3.11-4.01 10.03a.8.79 28.4 0 1-1.19.35l-2.39-1.65.45-10.77.02 6.39a.23.23 0 0 0 .4.16q.96-1.03 1.13-2.09a.84.83-9.8 0 1 .45-.63q.86-.44 1.29-.25a.69.57-89.8 0 0 .73-.88q-.96-3.09 1.07-3.39a.37.37 0 0 0 .24-.58l-.46-.13a.73.71 7.4 0 1-.52-.66q-.06-1.29-.6-2.48 1.73-2.64 5.37-4.51a.49.49 0 0 1 .71.42l.12 5.17zm-4.73-.27q.04.22.33.24.75.05.91-.73.07-.36-.16-.45a.83.82-85.4 0 0-1.08.94z" class="E"/><path d="M289.75 102.52q3.86-.01 14 .17 3.65.06 6.96 1.42a.44.44 0 0 1-.17.85q-14.9-.41-21.01-.4-3.86 0-14-.17-3.65-.06-6.96-1.42a.44.44 0 0 1 .17-.85q14.9.4 21.01.4z" class="F"/><path d="M512 103.98v8.61l-12.01-1.22.53-3.11a1.52 1.5 75 0 1 .52-.92l1.76-1.47q1.11-.02 1.33-2.72a.38.38 0 0 1 .51-.32q3.57 1.31 7.36 1.15z" class="D"/><path d="M388.59 105.38a.11.11 0 0 1-.05.21l-34.69.15a1.7 1.65 53 0 1-.51-.08q-2.87-.94-3.97-1.11-.87-.13-.64-.74.14-.38.46-.38 17.49.14 37.84.69a.86.85 78.7 0 1 .77.52q.18.42.79.74zm109.48.22a.83.82-85.4 0 1 1.08-.94q.23.09.16.45-.16.78-.91.73-.29-.02-.33-.24zm-1.47-.81q.54 1.19.6 2.48a.73.71 7.4 0 0 .52.66l.46.13a.37.37 0 0 1-.24.58q-2.03.3-1.07 3.39a.69.57-89.8 0 1-.73.88q-.43-.19-1.29.25a.84.83-9.8 0 0-.45.63q-.17 1.06-1.13 2.09a.23.23 0 0 1-.4-.16l-.02-6.39q-2-3.28 3.75-4.54z" class="B"/><path d="M333.71 107.43q-9.97.2-19.58-.13-1.64-.05-2.37 1.19a1.02 1.01-73.6 0 1-.93.51l-2.5-.15a1.02.89-49 0 0-.36.05l-1.17.41q2.24-2.47 4.89-2.83 8.84-1.21 16.57-.54 2.15.19 5.45 1.49z" class="F"/><path d="M418.57 147.4q2.08.59 2.95 1.57 1.05 1.18 1.77.77a.38.38 0 0 1 .55.23q.09.32.03.5-.06.19.77.11.2-.02.28.02a.2.2 0 0 1-.09.39q-1.24-.07-2.45.4-10.2-7.22-21.24-13.1-15.58-12-31.53-23.87c-1.33-.99-3.52-2.23-4.61-2.63a4.9 4.86 57.5 0 0-1.47-.33l-9.58-.6a1.64 1.49-27.8 0 1-.58-.15l-1.46-.7a.86.78 55 0 0-.35-.08l-9.94-.21a.35.35 0 0 1-.32-.48q.22-.53.03-1.26a.5.49 85.9 0 1 .53-.62q.49.07 2.4-.95a2.95 2.88-57.6 0 1 1.44-.34q4.63.11 9.44 1.11 1.31.27 8.31.22a2.95 2.87 53.4 0 1 .92.15q2.4.86 5.06 2.85c3.48 2.59 13.17 9.67 19.18 14.77q5.21 4.42 7.22 5.52 4.35 2.38 6.85 4.88.5.5 2.33 1.91 6.73 5.2 13.56 9.92zm-84.86-39.97q.67.07.74 1.6a.5.49-.5 0 1-.51.51l-17.33-.57a4.31 4.26 33 0 0-1.94.4l-6.15 2.81a1.35 1.28-73.2 0 0-.21.12l-25.49 17.61q-10.06 5.06-19.54 12.59-.04.04-6.36 5.74-4.84 4.36-10.36 6.84-13.97 6.29-27.85 12.61l-.64.41a.39.38-19.7 0 0-.18.37q.02.15.07.3-1 .15-1.99.97l-5.62 2.2a.62.62 0 0 1-.77-.27l-4-6.86q.62-1.61.06-3.85a.74.73 84.3 0 0-.69-.57l-.37-.01a.63.63 0 0 1-.29-1.17c8.26-4.7 10.99-6.55 18.85-10.82q3.11-1.7 8.74-5.51c1.26-.86 3.35-1.63 4.06-2.83a.18.18 0 0 1 .05-.05l5.55-3.42a2.07 2.06 83.8 0 0 .84-1.05q1.01-2.9 3.13-5.46.29-.36.29-.76 0-.45-.34-.73.54-.28.89-.64 3.59 6.51 7.25 13.13c1.18 2.14 1.77 4.26 4.88 3.18a2.52 2.5-73.5 0 0 .75-.41q8.96-6.88 12.78-9.57.28-.19 1.76-1.72a5.3 5.09-81.1 0 1 1.26-.96q3.89-2.15 4.86-2.95 2.4-1.96 4.32-2.67c1.26-.47 1.64-1.08 2.22-1.93a2.11 2.08 89.5 0 1 .58-.6l19.79-14.13 1.17-.41a1.02.89-49 0 1 .36-.05l2.5.15a1.02 1.01-73.6 0 0 .93-.51q.73-1.24 2.37-1.19 9.61.33 19.58.13zm-105.52 2.98c-5.25 2.62-9.09 7.37-13.22 10.89q-.88.75-1.91.82a1.33 1.26-67.7 0 0-.82.37l-20.56 20.1-2.06-2.7q1.88-.96 3.06-2.21 4.67-4.92 9.83-11.64l16.16-17.54a1.51 1.47 14.7 0 1 .79-.45c3.2-.71 5.76 1.64 8.73 2.36z" class="B"/><ellipse cx="0" cy="0" transform="matrix(-.966823 -.255446 .255446 -.966823 228.58 108.7)" rx="1.32" ry=".68" class="F"/><path d="M491.59 111.81a.48.48 0 0 1-.87.23q-1.29-1.81-1-3.21a1.17 1.16-80.9 0 1 1.26-.92l.3.03a.69.69 0 0 1 .62.76l-.31 3.11z" class="B"/><path d="M423.17 108.7a.52.44-84.7 0 1 .47.67q-.21.72-1.24.38a.45.44-50.2 0 1-.07-.81q.24-.13.84-.24z" class="F"/><path d="M488.75 114.03a.35.35 0 0 1-.69-.05q-.11-1.72-.91-2.82a.66.66 0 0 1 .52-1.04q1.49-.03 1.37 1.64-.11 1.41-.29 2.27z" class="B"/><path d="M145.81 110.59l-4.82 24.15a.87.87 0 0 1-1.64.22q-1.34-2.69-3.71-4.01-3.02-4.28-6.84-7.83c-2.34-2.17-3.97-4.47-5.83-6.88q-1.15-1.49.61-2.81l6.12-1.47q4.3.23 8.3-1.18l7.81-.19z" class="E"/><path d="M146.56 110.53q1.37 5.4.66 8.94-1.95 9.75-3.83 19.52a.51.51 0 0 0 .48.6l27.91.93-9.88.55a.49.49 0 0 0-.46.56l.09.57q-9.53-1.73-19.72-1.2a1.72 1.72 0 0 1-1.8-1.77l.06-1.76a.94.9 25.3 0 0-.25-.65l-5.81-6.06-.2-.61a.19.19 0 0 1 .28-.22l1.55 1.02q2.37 1.32 3.71 4.01a.87.87 0 0 0 1.64-.22l4.82-24.15.75-.06z" class="B"/><path d="M179.14 140.93q-3.06-1-7.36-.41l-27.91-.93a.51.51 0 0 1-.48-.6q1.88-9.77 3.83-19.52.71-3.54-.66-8.94 15.53.18 30.6 1.67 1.96.19 2.88.45a.75.74 7.4 0 1 .55.7q.21 7.12-.57 15.14-.65 6.64-.88 12.44z" class="C"/><g class="D"><path d="M228.19 110.41l7.36 2.59q-4.2 5.14-9.57 9.11-2.17 1.6-6.45 3.76c-5.94 3-9.32 5.89-14.3 11.76q-4.63 5.44-9.32 10.94l-4.23-5.98 20.56-20.1a1.33 1.26-67.7 0 1 .82-.37q1.03-.07 1.91-.82c4.13-3.52 7.97-8.27 13.22-10.89zm-90.19.37q-4 1.41-8.3 1.18l8.3-1.18z"/><rect x="-1.03" y="-2.87" transform="matrix(.998806 -.04885 .04885 .998806 485.69 114.76)" width="2.06" height="5.74" rx=".9"/></g><path d="M196.96 149.93q-.26-.73-1.05-1.36 4.69-5.5 9.32-10.94c4.98-5.87 8.36-8.76 14.3-11.76q4.28-2.16 6.45-3.76 5.37-3.97 9.57-9.11.99.08 2.43.99a.7.7 0 0 1 .08 1.12l-41.1 34.82z" class="B"/><path d="M123.58 113.43q-1.76 1.32-.61 2.81c1.86 2.41 3.49 4.71 5.83 6.88q3.82 3.55 6.84 7.83l-1.55-1.02a.19.19 0 0 0-.28.22l.2.61-14.99-15.43 4.56-1.9z" class="D"/><path d="M119.02 115.33l14.99 15.43 5.81 6.06a.94.9 25.3 0 1 .25.65l-.06 1.76a1.72 1.72 0 0 0 1.8 1.77q10.19-.53 19.72 1.2l8.32 1.5q-3.48-.01-6.7 1.66a.36.36 0 0 1-.51-.45q.06-.16.85-.21a.26.26 0 0 0 .17-.45l-1.51-1.51a.09.09 0 0 0-.15.07l.1 1.66a.37.37 0 0 1-.3.39q-.26.04-.42.27a.35.35 0 0 0 .22.54q.88.18.81.98a.68.68 0 0 1-.7.62q-2.08-.08-5.02-1.42a.96.82-23 0 0-.19-.06l-11.57-2.27a.24.24 0 0 0-.28.3l.22.82a.2.18 1.1 0 0 .13.12l18.99 4.76q.24.49.12.94a.85.85 0 0 1-1.04.61l-9.05-2.4a.12.06-16.8 0 0-.05-.01q-2.88-.26-5.75-1.39a.24.24 0 0 0-.25.4l6.61 6.53q2.81 4.23 6.67 4.04 4.89-.24 6.75.02l4.05.38a.67.66 37.7 0 1 .17 1.29q-1.21.44-.56 1.74a.34.34 0 0 1-.31.49l-1.79-.06a.47.47 0 0 1-.32-.8l.54-.54a.25.24 60 0 0 .06-.24q-.13-.46-.75-.36a.58.57-78.7 0 0-.41.28c-2.05 3.48-3.94 3.73-7.19 5.09a.21.21 0 0 0 .08.41q2.13.05 2.65.88-.28 1.33-.95 2.32.18-.51.29-.91.19-.73-.06-.92-.45-.35-.9-.38a.33.33 0 0 0-.34.44q.03.1.04.16a1.07 1.07 0 0 1-.32 1.03q-.54.48-.36 1.29a.99.95 12.4 0 0 .39.58q2.18 1.57 5.29 2.52 4.4 3.09-4.52-.09-2.56-.24-5.11 4.54-1.97 3.7-3.51 5.3-.28.1-.41.34-1.77.76-3.98.75a1.23 1.23 0 0 0-.87.36l-1.68 1.68a1.11 1.11 0 0 0-.31.86q.07.9-.4 1.15l-2.51-3.15 1.54-.83q1.06-.37 1.63-1.17a1.46 1.43-28.6 0 0 .28-.91q-.02-1.11-.73-1.57-.56-2.58-1.84-3.66l2.87-3.7a1.22 1.22 0 0 0-.34-1.8l-39.5-23.61a2.43 2.43 0 0 1-1.09-2.76q4.33-15.15 12.2-29.35zm10.08 33.35q.85.12 1.14.16a.22.22 0 0 1-.02.43l-5.88.36a.34.34 0 0 0-.13.64l1.97.94a.59.57 22.9 0 1 .3.72q-.23.65.23 1.26a.96.95-21.5 0 0 .89.38q3.82-.52 7.35-2.25a.88.87 50.2 0 1 .93.09l10.36 8a.43.43 0 0 0 .61-.07l.17-.23a.41.41 0 0 0-.07-.57l-33.63-25.98a.17.17 0 0 0-.26.06l-.12.26a.22.2-58 0 0 .05.25l17.16 13.94a.31.31 0 0 1-.13.55q-.68.15-1.08.53a.31.3-62.4 0 0 .16.53z" class="C"/><path d="M490.06 121.43q-1.31 3.34-4.88 3.52 2.11-2.2 4.88-3.52z" class="B"/><path d="M456.72 133.5l-1.72.46q.65-2.63-.83-3.14-2.95-1-3.92-2.53 1.01-1.34.06-3.09.08-.57.42-.86a.69.68-25.8 0 1 1.13.39q.21 1.14-.22 2.9a1.36 1.36 0 0 0 1.21 1.68q1.67.13 3.4 1.31a1.36 1.34-83.3 0 1 .5.64q.36.99-.03 2.24z" class="E"/><path d="M450.25 128.29q-.03-.13-.51 0l.05-2.33q.58 0 .52-.76.95 1.75-.06 3.09z" class="F"/><path d="M449.79 125.96l-.05 2.33q-.07.49.04.94a1.38 1.34-80.7 0 0 .53.76c1.68 1.15 3.45 1.67 4.02 3.98q-.63.38-1.7.59l.27-1.57a.67.66-72 0 0-.36-.72l-4.59-2.2a.89.88 12.7 0 1-.51-.8v-2.9a.8.8 0 0 1 .66-.79q1.3-.21 1.69.38z" class="E"/><path d="M349.78 130.05l-5.56-.37a.84.83-74.8 0 0-.81.47l-1.23 2.58a.97.95 9.5 0 1-.76.53q-6.89.72-12.66-2.76-1.81-1.42-5.4-2.04a.66.66 0 0 1 .04-1.3q11.8-1.31 23.97.5a4.1 3.75 57.9 0 1 .9.25q4.13 1.76 1.51 2.14z" class="D"/><path d="M450.25 128.29q.97 1.53 3.92 2.53 1.48.51.83 3.14l-.67.01c-.57-2.31-2.34-2.83-4.02-3.98a1.38 1.34-80.7 0 1-.53-.76q-.11-.45-.04-.94.48-.13.51 0z" class="C"/><path d="M349.78 130.05q-2.68-.31-4.85 1.54l-1.49 8.4q-.5.43-.2 1.54-.56 6.14-1.84 12.15-.59 2.75-2.63 4.26l-6.97-.31q-2.55-11.94-2.37-24.91-.58-.9-.68-.75-.25-.58.01-1.47 5.77 3.48 12.66 2.76a.97.95 9.5 0 0 .76-.53l1.23-2.58a.84.83-74.8 0 1 .81-.47l5.56.37zm-24.53 1.74q-3.95.65-7.83-.37 4.18-.86 7.83.37z" class="F"/><path d="M329.43 132.72q-.46-.07-.68-.75.1-.15.68.75z" class="C"/><path d="M128.94 148.15q.4-.38 1.08-.53a.31.31 0 0 0 .13-.55l-17.16-13.94a.22.2-58 0 1-.05-.25l.12-.26a.17.17 0 0 1 .26-.06l33.63 25.98a.41.41 0 0 1 .07.57l-.17.23a.43.43 0 0 1-.61.07l-10.36-8a.88.87 50.2 0 0-.93-.09q-3.53 1.73-7.35 2.25a.96.95-21.5 0 1-.89-.38q-.46-.61-.23-1.26a.59.57 22.9 0 0-.3-.72l-1.97-.94a.34.34 0 0 1 .13-.64l5.88-.36a.22.22 0 0 0 .02-.43q-.29-.04-1.14-.16a.31.3-62.4 0 1-.16-.53zm320.76-11.33q.06.17-.14.48a1 .86 43.1 0 1-1.49-.06q-.22-.26-.16-.41a.96.95-44.9 0 1 1.79-.01z" class="F"/><path d="M189.62 139.89l2.06 2.7 4.23 5.98q.79.63 1.05 1.36l8.62 14.88 4 6.86a.62.62 0 0 0 .77.27l5.62-2.2q-.95 4.19-.83 7.26.38 9.29-.09 15.86l-6.76-3.06.07-8.83a.34.34 0 0 0-.5-.3c-2.09 1.12-3.37.39-4.73-1.69q-2.48-3.79-4.42-6.17a.18.18 0 0 0-.26-.02h-.01a.21.2 52.3 0 0-.03.28c2.69 3.5 4.44 7.46 7.22 10.87q1.26 1.55 1.29 5.29l-.4-.2q-1.22-3.29-5.55-2.44-.1-.08-.2-.17.4-.4.57-.38a.92.86 79.4 0 0 .82-1.3q-1.17-2.61-2.84-4.71a.8.8 0 0 0-.83-.26l-.42.13a.87.86-25.6 0 1-.93-.32l-3.38-4.64.12-1.57a.11.11 0 0 1 .21-.05l3.33 5.78a.71.7-42 0 0 1.18.06q.26-.34.32-.9a1.16 1.1 37.2 0 0-.1-.62q-1.69-3.72-5.7-5.43a.24.24 0 0 0-.32.31l.96 2.42 1.88 4.1a.81.79 88.7 0 0 .41.4q.83.35.85 1.45a.63.63 0 0 1-.69.64l-11.62-1.18a.7.69 9.4 0 0-.75.53q-.97 3.94 2.74 6.26 1.82 3.43 4.49 5.91-.6 1.01-.73 2.04a.34.33-70.4 0 0 .14.31q.12.08.27.13a.41.41 0 0 0 .52-.45q-.07-.44.33-.54a1.19 1.03 7.6 0 1 1.38 1.57q-2.05 2.87-3.63 5.71a2.25 2.19-89.5 0 1-.82.83q-1.09.61-1.92.44l-7.36-5.68a.9.83-80.9 0 1-.3-.45l-2.71-9.24a.06.06 0 0 0-.11.02q.21 3.23-.95 6.36a.88.65 81.7 0 1-.07.13l-3.91 6.64-2.19 3.19a1.19 1.19 0 0 0-.14 1.05l1.9 5.59a4.35 4.29-80.9 0 0 1.44 2.02l7.53 5.82a1.48 1.47 35.5 0 1 .34 1.98l-8.19 12.66q-1.5 1.44-1.75 2.99-.72.9-1.48.76l-7.4-5.93-2.72-1.84q-.58-2.84-2.18-5.09a3.42 3.34 20.1 0 1-.52-1.09l-2.07-7.28c1.63 2.48 1.38 5.02 2.56 7.66a.2.2 0 0 0 .25.1l.25-.08a.39.39 0 0 0 .24-.5l-5.79-17.04a.03.03 0 0 0-.05-.01l-.03.01a.09.08-27.1 0 0-.04.1l2.61 9.76-5.01-10.25-1.79-6.64a1 .99 55.7 0 1 .16-.86l9.53-13.1q2.59-1.81 4.49-5.44a.41.41 0 0 0-.5-.58l-.57.2a1.88 1.88 0 0 0-.97.73q-1.84 2.67-2.57 3.33-2.21 1.98-2.38-.39 1.54-1.6 3.51-5.3 2.55-4.78 5.11-4.54-.54 2.96-2.72 5.32a.24.24 0 0 0 .32.35q.38-.3.72-.81a.32.32 0 0 1 .59.17q.02.61-.28 1.32a.34.34 0 0 0 .2.46l.04.01a.27.26-70.5 0 0 .33-.16q1.69-4.26 6.12-4.7a.22.21 33.5 0 1 .09.42q-1.66.49-3.23 1.57a.14.14 0 0 0-.04.18v.01a.17.16 54.2 0 0 .2.04l3.51-1.67a.23.22-27.1 0 1 .3.09l.23.4a.2.2 0 0 1-.11.29l-2.61.89a.05.05 0 0 0 .01.09q.19.02.32.05a.32.28 37.7 0 0 .17-.01l1.98-.75a.95.92-42.3 0 1 .72.02q.51.21.9.59a.13.12-30.4 0 1-.06.21l-.77.23a.63.62-80.1 0 0-.35.25q-3.14 4.8-8.35 7.76a.22.21-30.3 0 0-.08.29.16.15 63.4 0 0 .2.07q5.51-2.89 9.26-7.85a.69.68-52.4 0 1 .96-.13l1.3 1a.46.45-88.5 0 0 .65-.62q-2.59-3.8-4-6.48a3.24 2.6-32.1 0 1 1.28-3.68q.33-.22 1.25.02a.68.67-17 0 0 .62-1.16q-1.09-.96-1.16-2.22a.53.53 0 0 1 .57-.55q1.12.09 2.15-.18 1.22.82 1.95-.01c1.3-1.48 2.78-2.41 4.38-3.53a2.14 1.89 14.9 0 1 .48-.24q1.26-.42 2.48-1.54 1.49-.4 1.38-4.03a3.23 2.97-42.6 0 1 .06-.7l2.65-13.59q1.22-.04 2.23-.46zm-3.356 60.413a.97.54-153.2 0 0 .622.919.97.54-153.2 0 0 1.109-.045.97.54-153.2 0 0-.622-.919.97.54-153.2 0 0-1.109.045zm-11.246 19.905a1.17.65-136.7 0 0 .406 1.275 1.17.65-136.7 0 0 1.297.329 1.17.65-136.7 0 0-.406-1.275 1.17.65-136.7 0 0-1.297-.329zm-3.083 5.804a1 .64-132.4 0 0 .202 1.17 1 .64-132.4 0 0 1.147.307 1 .64-132.4 0 0-.202-1.17 1 .64-132.4 0 0-1.147-.307zm-3.874 5.23a1.11.58-144.9 0 0 .575 1.113 1.11.58-144.9 0 0 1.242.164 1.11.58-144.9 0 0-.575-1.113 1.11.58-144.9 0 0-1.242-.164z" class="E"/><path d="M343.44 139.99q.07.94-.2 1.54-.3-1.11.2-1.54z" class="C"/><path d="M179.14 140.93l.12 7.48-.62 2.15a.66.66 0 0 1-.68.47l-4.95-.38q-1.65.17-3.83-.61 1.26-1.04 1.87-2.18a.3.3 0 0 0-.46-.37q-.41.36-.6.15a.12.12 0 0 1 .04-.19l2.43-1.15a.09.08-18.9 0 0 .05-.09l-.03-.23a.27.26 80.7 0 0-.29-.22l-1.57.19q.17-1.24-.77-2.25l-8.32-1.5-.09-.57a.49.49 0 0 1 .46-.56l9.88-.55q4.3-.59 7.36.41zm-6.026 1.303a3.09 1.12-163.7 0 0 2.651 1.942 3.09 1.12-163.7 0 0 3.28-.208 3.09 1.12-163.7 0 0-2.652-1.942 3.09 1.12-163.7 0 0-3.28.208z" class="D"/><path d="M187.39 140.35l-2.65 13.59a3.23 2.97-42.6 0 0-.06.7q.11 3.63-1.38 4.03 1.3-1.58.93-3.03a1.11 1.08 1.1 0 0-.79-.8l-3.35-.89a.71.7-81.8 0 0-.88.66l-.12 3.66a.59.59 0 0 1-.41.55q-.49.16-.83-.29a.65.63-18.2 0 0-.51-.25l-9.34-.02q-1.86-.26-6.75-.02-3.86.19-6.67-4.04c4.05-.95 6.5.31 11.15 1.77a2.03 1.82-32.1 0 0 .52.09l11.8.38a.27.27 0 0 0 .28-.25l.05-.43a.37.37 0 0 0-.33-.4l-8.97-.91a.82.81 4.1 0 1-.73-.84l.04-1.17a.5.49 3.7 0 1 .55-.48l6.53.66a.24.24 0 0 0 .14-.44l-2.6-1.53 4.95.38a.66.66 0 0 0 .68-.47l.62-2.15 3.95-7.51a1.05 1.03 5.8 0 1 .66-.53q1.76-.44 3.52-.02z" class="B"/><ellipse cx="0" cy="0" transform="matrix(-.959805 -.280667 .280667 -.959805 176.08 143.1)" rx="3.09" ry="1.12" class="E"/><path d="M169.85 143.7q.94 1.01.77 2.25l-1.47 1.81a.98.96-68.8 0 1-.79.36c-1.75-.07-3.77-.36-4.37 1.4L145 144.76a.2.18 1.1 0 1-.13-.12l-.22-.82a.24.24 0 0 1 .28-.3l11.57 2.27a.96.82-23 0 1 .19.06q2.94 1.34 5.02 1.42a.68.68 0 0 0 .7-.62q.07-.8-.81-.98a.35.35 0 0 1-.22-.54q.16-.23.42-.27a.37.37 0 0 0 .3-.39l-.1-1.66a.09.09 0 0 1 .15-.07l1.51 1.51a.26.26 0 0 1-.17.45q-.79.05-.85.21a.36.36 0 0 0 .51.45q3.22-1.67 6.7-1.66z" class="F"/><path d="M169.18 150.04l-5.19-.52c.6-1.76 2.62-1.47 4.37-1.4a.98.96-68.8 0 0 .79-.36l1.47-1.81 1.57-.19a.27.26 80.7 0 1 .29.22l.03.23a.09.08-18.9 0 1-.05.09l-2.43 1.15a.12.12 0 0 0-.04.19q.19.21.6-.15a.3.3 0 0 1 .46.37q-.61 1.14-1.87 2.18z" class="B"/><path d="M163.99 149.52l5.19.52q2.18.78 3.83.61l2.6 1.53a.24.24 0 0 1-.14.44l-6.53-.66a.5.49 3.7 0 0-.55.48l-.04 1.17a.82.81 4.1 0 0 .73.84l8.97.91a.37.37 0 0 1 .33.4l-.05.43a.27.27 0 0 1-.28.25l-11.8-.38a2.03 1.82-32.1 0 1-.52-.09c-4.65-1.46-7.1-2.72-11.15-1.77l-6.61-6.53a.24.24 0 0 1 .25-.4q2.87 1.13 5.75 1.39a.12.06-16.8 0 1 .05.01l9.05 2.4a.85.85 0 0 0 1.04-.61q.12-.45-.12-.94zm270.83 2.79q-2.94 1.74-5.5 2.24a2.87 2.82-35.2 0 1-1.95-.32l-4.99-2.84q1.21-.47 2.45-.4a.2.2 0 0 0 .09-.39q-.08-.04-.28-.02-.83.08-.77-.11.06-.18-.03-.5a.38.38 0 0 0-.55-.23q-.72.41-1.77-.77-.87-.98-2.95-1.57l5.92.39q.04 0 .08 0l6.49-.29a1.36 1.36 0 0 1 1.37.98l.46 1.58a.98.97-8.2 0 1-.94 1.25h-4.01a.69.69 0 0 0-.22 1.35q2.08.7 7.1-.35zm-251.52 6.36q-1.22 1.12-2.48 1.54a2.14 1.89 14.9 0 0-.48.24c-1.6 1.12-3.08 2.05-4.38 3.53q-.73.83-1.95.01-1.4-1.42-4.74-.76-.97.2-1.64 1.68-.14.31 2.35 1.42a.27.27 0 0 1-.09.52l-3.86.24a.87.86-81.9 0 0-.77.59q-.86 2.63 1.11 3.7a.34.33 31.7 0 1 .12.48l-.01.02a.35.35 0 0 1-.53.06l-1.9-1.83a.83.83 0 0 1-.15-.99q.51-.93.32-2.3-.52-.83-2.65-.88a.21.21 0 0 1-.08-.41c3.25-1.36 5.14-1.61 7.19-5.09a.58.57-78.7 0 1 .41-.28q.62-.1.75.36a.25.24 60 0 1-.06.24l-.54.54a.47.47 0 0 0 .32.8l1.79.06a.34.34 0 0 0 .31-.49q-.65-1.3.56-1.74a.67.66 37.7 0 0-.17-1.29l-4.05-.38 9.34.02a.65.63-18.2 0 1 .51.25q.34.45.83.29a.59.59 0 0 0 .41-.55l.12-3.66a.71.7-81.8 0 1 .88-.66l3.35.89a1.11 1.08 1.1 0 1 .79.8q.37 1.45-.93 3.03z" class="F"/><path d="M338.77 157.94q-3.67 3.9-6.97-.31l6.97.31z" class="C"/><path d="M174.01 163.99q-1.03.27-2.15.18a.53.53 0 0 0-.57.55q.07 1.26 1.16 2.22a.68.67-17 0 1-.62 1.16q-.92-.24-1.25-.02a3.24 2.6-32.1 0 0-1.28 3.68q1.41 2.68 4 6.48a.46.45-88.5 0 1-.65.62l-1.3-1a.69.68-52.4 0 0-.96.13q-3.75 4.96-9.26 7.85a.16.15 63.4 0 1-.2-.07.22.21-30.3 0 1 .08-.29q5.21-2.96 8.35-7.76a.63.62-80.1 0 1 .35-.25l.77-.23a.13.12-30.4 0 0 .06-.21q-.39-.38-.9-.59a.95.92-42.3 0 0-.72-.02l-1.98.75a.32.28 37.7 0 1-.17.01q-.13-.03-.32-.05a.05.05 0 0 1-.01-.09l2.61-.89a.2.2 0 0 0 .11-.29l-.23-.4a.23.22-27.1 0 0-.3-.09l-3.51 1.67a.17.16 54.2 0 1-.2-.04v-.01a.14.14 0 0 1 .04-.18q1.57-1.08 3.23-1.57a.22.21 33.5 0 0-.09-.42q-4.43.44-6.12 4.7a.27.26-70.5 0 1-.33.16l-.04-.01a.34.34 0 0 1-.2-.46q.3-.71.28-1.32a.32.32 0 0 0-.59-.17q-.34.51-.72.81a.24.24 0 0 1-.32-.35q2.18-2.36 2.72-5.32 8.92 3.18 4.52.09-2.95-1.6-4.03-3.81.67-.99.95-2.32.19 1.37-.32 2.3a.83.83 0 0 0 .15.99l1.9 1.83a.35.35 0 0 0 .53-.06l.01-.02a.34.33 31.7 0 0-.12-.48q-1.97-1.07-1.11-3.7a.87.86-81.9 0 1 .77-.59l3.86-.24a.27.27 0 0 0 .09-.52q-2.49-1.11-2.35-1.42.67-1.48 1.64-1.68 3.34-.66 4.74.76zm-6.49 6.99q-.56-.85-.75-1.56a.15.15 0 0 0-.29.03l-.02.69a.2.19-59.8 0 1-.36.1l-.36-.62a.1.09 81.7 0 0-.06-.05q-.43-.12-.18.86a.26.25-84.8 0 0 .13.16l1.57.75a.25.25 0 0 0 .32-.36z" class="D"/><path d="M163.27 169.14q1.08 2.21 4.03 3.81-3.11-.95-5.29-2.52a.99.95 12.4 0 1-.39-.58q-.18-.81.36-1.29a1.07 1.07 0 0 0 .32-1.03q-.01-.06-.04-.16a.33.33 0 0 1 .34-.44q.45.03.9.38.25.19.06.92-.11.4-.29.91z" class="F"/><path d="M167.2 171.34l-1.57-.75a.26.25-84.8 0 1-.13-.16q-.25-.98.18-.86a.1.09 81.7 0 1 .06.05l.36.62a.2.19-59.8 0 0 .36-.1l.02-.69a.15.15 0 0 1 .29-.03q.19.71.75 1.56a.25.25 0 0 1-.32.36z" class="B"/><path d="M218.71 167.69q-.42.71-.51 1.33l-.24-.25q-.05-.15-.07-.3a.39.38-19.7 0 1 .18-.37l.64-.41z" class="F"/><path d="M217.96 168.77l.24.25 3.85 5a5.42 5.42 0 0 1 1.13 3.51l-.57 17.46a.57.57 0 0 1-.78.52l-6.78-2.65q.47-6.57.09-15.86-.12-3.07.83-7.26.99-.82 1.99-.97z" class="E"/><g class="D"><path d="M193.76 174.94l-.96-2.42a.24.24 0 0 1 .32-.31q4.01 1.71 5.7 5.43a1.16 1.1 37.2 0 1 .1.62q-.06.56-.32.9a.71.7-42 0 1-1.18-.06l-3.33-5.78a.11.11 0 0 0-.21.05l-.12 1.57zm14.53 14.86l-1.37-.57q-.03-3.74-1.29-5.29c-2.78-3.41-4.53-7.37-7.22-10.87a.21.2 52.3 0 1 .03-.28h.01a.18.18 0 0 1 .26.02q1.94 2.38 4.42 6.17c1.36 2.08 2.64 2.81 4.73 1.69a.34.34 0 0 1 .5.3l-.07 8.83z"/><path d="M200.77 186.42l-4.23-1.73a1.7 1.35 51.6 0 0-.34-.08q-5.52-.51-9.62 2.53-3.71-2.32-2.74-6.26a.7.69 9.4 0 1 .75-.53l11.62 1.18a.63.63 0 0 0 .69-.64q-.02-1.1-.85-1.45a.81.79 88.7 0 1-.41-.4l-1.88-4.1 3.38 4.64a.87.86-25.6 0 0 .93.32l.42-.13a.8.8 0 0 1 .83.26q1.67 2.1 2.84 4.71a.92.86 79.4 0 1-.82 1.3q-.17-.02-.57.38z"/></g><path d="M144.88 176.55q1.28 1.08 1.84 3.66-2.44 1.64-5.05.26l3.21-3.92z" class="B"/><path d="M156.66 184.85l-.78-.16a.64.64 0 0 0-.73.41q-.99 2.77-2.85 5.11a.19.18-50.4 0 1-.26.03l-.01-.01a.33.33 0 0 1-.01-.37l.73-1.14a.41.41 0 0 0-.47-.61l-2.31.79a.41.41 0 0 1-.39-.7l2.9-2.44q1.22-1.21 1.27-2.72.13-.24.41-.34.17 2.37 2.38.39.73-.66 2.57-3.33a1.88 1.88 0 0 1 .97-.73l.57-.2a.41.41 0 0 1 .5.58q-1.9 3.63-4.49 5.44zm-11.12-.99q-2.64-.58-4.91-2.09l1.04-1.3q2.61 1.38 5.05-.26.71.46.73 1.57a1.46 1.43-28.6 0 1-.28.91q-.57.8-1.63 1.17z" class="D"/><path d="M140.63 181.77q2.27 1.51 4.91 2.09l-1.54.83q-.33.05-.66.1-.01 0 0 0 .33-.05.66-.1l2.51 3.15q-2.33 2.18-1.19 4.39a.29.28-35.6 0 1-.06.34l-.79.79a.18.18 0 0 1-.3-.05l-.94-2.22a.4.4 0 0 0-.76.06q-.72 2.93-3.88 3.85a.7.7 0 0 0 .07 1.36l2.95.54a.5.49 14.9 0 1 .38.64l-1.78 5.35a1.49 1.47-10.3 0 1-.5.71q-2.97 2.34-3.48 3.13-2.65 4.17-5.2 6.45a7.27 7.24 75.3 0 0-2.26 3.88c-1.44 6.79-1.09 12.19-8.86 14.92q5.15-10.3 8.52-21.3c.87-2.85 2.01-7.74-.53-9.82a1.36 1.36 0 0 1-.29-1.78q5.76-9.07 13.02-17.31z" class="C"/><path d="M153.75 183.04q-.05 1.51-1.27 2.72-3.16 1.16-4.44 3.75-1.19 2.42-1.69 2.97-2.6 2.81-2.86 6.44a4.68 4.53-51.9 0 0 .17 1.62q1.79 6.23 1.91 7.77.26 3.12-.06 12.57c-.2 5.85.7 9.24 4.38 13.14a1.25 1.21-19.3 0 0 .82.38l5.09.3c-3.67.52-7.04-.05-10.65-.03q-2.12 0-4.24-.24 1.58-.38 3.81.06 3.89-.08-.26-2.49a2.17 2.13 60.2 0 0-.96-.27q-8.06-.29-14.83 1.25a.091.091 0 0 0 .02.18h3.66a1.7 1.69-31.9 0 1 .74.17q1.6.77 3.64.73l-9.12-.13a.07.06-79.2 0 1-.05-.09q.02-.04.21-.08a.104.073 27.8 0 0-.08-.16q-.51.05-.73.28-.31.31-.53.42-3.6 1.67-8.69 1.84 1.57-2.02 2.17-4.16c7.77-2.73 7.42-8.13 8.86-14.92a7.27 7.24 75.3 0 1 2.26-3.88q2.55-2.28 5.2-6.45.51-.79 3.48-3.13a1.49 1.47-10.3 0 0 .5-.71l1.78-5.35a.5.49 14.9 0 0-.38-.64l-2.95-.54a.7.7 0 0 1-.07-1.36q3.16-.92 3.88-3.85a.4.4 0 0 1 .76-.06l.94 2.22a.18.18 0 0 0 .3.05l.79-.79a.29.28-35.6 0 0 .06-.34q-1.14-2.21 1.19-4.39.47-.25.4-1.15a1.11 1.11 0 0 1 .31-.86l1.68-1.68a1.23 1.23 0 0 1 .87-.36q2.21.01 3.98-.75zm-9.75 1.65q-.33.05-.66.1-.01 0 0 0 .33-.05.66-.1z" class="F"/><path d="M156.66 184.85l-9.53 13.1a1 .99 55.7 0 0-.16.86l1.79 6.64q1.13 3.97 1.99 5.82 3.47 7.53 5.97 15.45 1.3 4.1.71 8.5l-1.63-.52-5.09-.3a1.25 1.21-19.3 0 1-.82-.38c-3.68-3.9-4.58-7.29-4.38-13.14q.32-9.45.06-12.57-.12-1.54-1.91-7.77a4.68 4.53-51.9 0 1-.17-1.62q.26-3.63 2.86-6.44.5-.55 1.69-2.97 1.28-2.59 4.44-3.75l-2.9 2.44a.41.41 0 0 0 .39.7l2.31-.79a.41.41 0 0 1 .47.61l-.73 1.14a.33.33 0 0 0 .01.37l.01.01a.19.18-50.4 0 0 .26-.03q1.86-2.34 2.85-5.11a.64.64 0 0 1 .73-.41l.78.16zm-10.746 14.43a.41.08-88.1 0 0-.094.407.41.08-88.1 0 0 .066.412.41.08-88.1 0 0 .094-.407.41.08-88.1 0 0-.066-.412zm7.426 33.05a.48.48 0 1 0-.96 0 .48.48 0 1 0 .96 0zm53.18-43.3l-5.55-2.44q4.33-.85 5.55 2.44zm-19.91 14.06q-2.07.86-3.87.49-4.33-.91-8.75-1.22a2.14 2.12-26.2 0 1-1.01-.34l-1.78-1.15 3.91-6.64a.88.65 81.7 0 0 .07-.13q1.16-3.13.95-6.36a.06.06 0 0 1 .11-.02l2.71 9.24a.9.83-80.9 0 0 .3.45l7.36 5.68z" class="B"/><path d="M197.27 203.61q-1.35-2.11-1.65-5.11a.85.85 0 0 0-1.57-.35l-3.89 6.51a.76.76 0 0 1-.92.31q-1.13-.44-2.06-.23-2.56.13-3.61.56-4.99 2.05-10.07 3.01a1.51 1.5-22 0 0-.98 2.3q2.6 4.01 6.33 5.19a1.17 1.14-52.8 0 0 1-.15q4.74-3.3 6.97-7.53a.34.34 0 0 1 .64.17l-.02.91-4.98 19.19-1.51 1.62q-4.15.55-6.55 4.98-3.8 5.53-8.56 14.85-2.46 4.82-7.11 10.18-2.4.08-4.11 2.61-10.93 16.12-17.11 25.63-3.22 4.95-4.58 6.59c-1.74 2.09-2.47 4.49-4.07 6.28q-1.31 1.47-3 3.92-13.23 19.24-25.28 39.28-.9 3.39-3.47 5.37-7.15 7.97-12.74 18.19l-5.98-2.58q-1.64-1.93-1.67-5.82a1.09 1.09 0 0 0-1.06-1.08l-13.18-.39-12.09-.4q7.43-11.16 14.65-22.8 1.64-2.63 5.18-6.81 3.09-3.65 5.13-6.84 10.72-16.8 39.3-62.01.6-.95 4.94-8.09c1.01-1.67.9-3.1.11-5q-2.22-5.27-1.96-9.93 5.09-.17 8.69-1.84.22-.11.53-.42.22-.23.73-.28a.1.07 27.8 0 1 .08.16q-.19.04-.21.08a.07.06-79.2 0 0 .05.09l9.12.13 1.05.08 3.13.29q2.12.24 4.24.24c3.61-.02 6.98.55 10.65.03l1.63.52q.37.94 1.07.97 4.45.14 5.63.37 2.95.57 4.53.37.76.14 1.48-.76c1.56 1.25 3.24-.76 3.31-2.28a.25.25 0 0 0-.37-.23l-.54.31a.42.42 0 0 1-.64-.36l-.01-.43 8.19-12.66a1.48 1.47 35.5 0 0-.34-1.98l-7.53-5.82a4.35 4.29-80.9 0 1-1.44-2.02l-1.9-5.59a1.19 1.19 0 0 1 .14-1.05l2.19-3.19 1.78 1.15a2.14 2.12-26.2 0 0 1.01.34q4.42.31 8.75 1.22 1.8.37 3.87-.49.83.17 1.92-.44a2.25 2.19-89.5 0 0 .82-.83q1.58-2.84 3.63-5.71a1.19 1.03 7.6 0 0-1.38-1.57q-.4.1-.33.54a.41.41 0 0 1-.52.45q-.15-.05-.27-.13a.34.33-70.4 0 1-.14-.31q.13-1.03.73-2.04 1.08.71 2.13.08 2.97-1.77 5.27.42a1.28 1.28 0 0 1 .38 1.17l-1.58 8.89zm-35.55 35q.38.49.4 1.53a.7.7 0 0 0 .68.69q4.9.12 7.45-2a.43.43 0 0 0-.45-.73q-2.94 1.34-6.73-.37a.93.91-41.6 0 0-.68-.03l-.45.15a.49.48-29.2 0 0-.22.76zm-7.168.279a1.08.76-52.9 0 0-1.258.403 1.08.76-52.9 0 0-.045 1.32 1.08.76-52.9 0 0 1.258-.403 1.08.76-52.9 0 0 .045-1.32zm-4.162 5.211q1.48-.75 1.58-1.34a.38.38 0 0 0-.59-.37q-.63.42-1.24 1.45a.19.19 0 0 0 .25.26zm-24.52 40.85a.44.43 44.9 0 0 .85 0l1.61-7.52a.03.03 0 0 0-.06-.03q-3.24 3.75-2.4 7.55zm-25.625 5.441a1.63.99-165.1 0 0 1.321 1.376 1.63.99-165.1 0 0 1.83-.538 1.63.99-165.1 0 0-1.321-1.376 1.63.99-165.1 0 0-1.83.538zm7.283.408a1.07.75-167 0 0 .874.971 1.07.75-167 0 0 1.211-.49 1.07.75-167 0 0-.874-.972 1.07.75-167 0 0-1.211.49zm10.129 2.968a3.15.59-52.3 0 0-2.393 2.132 3.15.59-52.3 0 0-1.459 2.853 3.15.59-52.3 0 0 2.393-2.132 3.15.59-52.3 0 0 1.46-2.853zm-26.118 10.499a1.05.78-166.6 0 0 .841 1.002 1.05.78-166.6 0 0 1.202-.515 1.05.78-166.6 0 0-.841-1.002 1.05.78-166.6 0 0-1.202.516zm8.891.415a.94.63-1.1 0 0-.952-.612.94.63-1.1 0 0-.928.648.94.63-1.1 0 0 .952.612.94.63-1.1 0 0 .928-.648zM86.99 338.45q-1.77 1.39-1.41 3.13a.29.29 0 0 0 .5.14l2.11-2.34-1.86 8.89a.06.06 0 0 0 .11.03q3.18-7.25 5.41-14.24.49-1.52 3.19-4.59a.37.36-46.8 0 0-.01-.5v-.01a.34.34 0 0 0-.47-.03q-4.82 3.91-7.57 9.52zm-14.48 18.22q2.09-.15 2.61.2a.23.23 0 0 0 .35-.25q-.2-.75.45-1.55a.15.15 0 0 1 .27.12l-.2 1.09a.44.44 0 0 0 .79.32l4.46-6.65a.42.4 48.3 0 0 .02-.44l-.17-.29a.41.4 47 0 0-.69-.03q-1.98 2.94-3.27 4.7-.72 1-1.78.78-.78-.16-1.55.42-1.11.83-1.47 1.12a.26.26 0 0 0 .18.46z" class="C"/><path d="M197.27 203.61q-.13 7.65 1.02 15.39.3 2.07-.06 7.87a3.66 3.49-34.2 0 1-.24 1.11q-1.58 4.17-6.03 8.3 1.1-4.94-.62-8.24a.77.76-15.6 0 0-.74-.41l-8.14.76 4.98-19.19q1.54-3.15-.26-4.46.93-.21 2.06.23a.76.76 0 0 0 .92-.31l3.89-6.51a.85.85 0 0 1 1.57.35q.3 3 1.65 5.11z" class="E"/><ellipse cx="0" cy="0" transform="matrix(.033155 -.99945 .99945 .033155 145.9 199.69)" rx=".41" ry=".08" class="D"/><ellipse cx="0" cy="0" transform="matrix(-.892586 -.450878 .450878 -.892586 187.13 200.74)" rx=".97" ry=".54" class="C"/><path d="M153.77 215.7l-2.61-9.76a.09.08-27.1 0 1 .04-.1l.03-.01a.03.03 0 0 1 .05.01l5.79 17.04a.39.39 0 0 1-.24.5l-.25.08a.2.2 0 0 1-.25-.1c-1.18-2.64-.93-5.18-2.56-7.66z" class="D"/><path d="M187.18 204.74q1.8 1.31.26 4.46l.02-.91a.34.34 0 0 0-.64-.17q-2.23 4.23-6.97 7.53a1.17 1.14-52.8 0 1-1 .15q-3.73-1.18-6.33-5.19a1.51 1.5-22 0 1 .98-2.3q5.08-.96 10.07-3.01 1.05-.43 3.61-.56z" class="F"/><path d="M153.77 215.7l2.07 7.28a3.42 3.34 20.1 0 0 .52 1.09q1.6 2.25 2.18 5.09-.07 1.03.29 1.72.36.69 1.12.61.63-.06 1.31-.49l7.4 5.93q-1.58.2-4.53-.37-1.18-.23-5.63-.37-.7-.03-1.07-.97.59-4.4-.71-8.5-2.5-7.92-5.97-15.45-.86-1.85-1.99-5.82l5.01 10.25z" class="D"/><g class="C"><ellipse cx="0" cy="0" transform="matrix(-.727773 -.685818 .685818 -.727773 175.87 221.01)" rx="1.17" ry=".65"/><ellipse cx="0" cy="0" transform="matrix(-.674302 -.738455 .738455 -.674302 172.61 226.75)" rx="1" ry=".64"/></g><path d="M191.96 236.28q-6.57.64-14.4-.67.81-.18 1.08-1.41a1.72 1.71-16.3 0 1 .46-.83q1.69-1.7 1.85-3.36l1.51-1.62 8.14-.76a.77.76-15.6 0 1 .74.41q1.72 3.3.62 8.24z" class="D"/><path d="M158.54 229.16l2.72 1.84q-.68.43-1.31.49-.76.08-1.12-.61-.36-.69-.29-1.72z" class="B"/><path d="M180.95 230.01q-.16 1.66-1.85 3.36a1.72 1.71-16.3 0 0-.46.83q-.27 1.23-1.08 1.41-1.29.63-3.16-.62 2.4-4.43 6.55-4.98z" class="E"/><g class="D"><circle cx="152.86" cy="232.33" r=".48"/><path d="M144.72 234.49q1.39-.4.85-1.19a2.26 2.25-30.9 0 0-2.88-.72q-2.03 1.03-4.91 1.56l-1.05-.08q-2.04.04-3.64-.73a1.7 1.69-31.9 0 0-.74-.17h-3.66a.09.09 0 0 1-.02-.18q6.77-1.54 14.83-1.25a2.17 2.13 60.2 0 1 .96.27q4.15 2.41.26 2.49z"/></g><ellipse cx="0" cy="0" transform="matrix(-.81815 -.575005 .575005 -.81815 168.97 231.88)" rx="1.11" ry=".58" class="C"/><g class="B"><path d="M144.72 234.49q-2.23-.44-3.81-.06l-3.13-.29q2.88-.53 4.91-1.56a2.26 2.25-30.9 0 1 2.88.72q.54.79-.85 1.19zm27.17-1.31l.01.43a.42.42 0 0 0 .64.36l.54-.31a.25.25 0 0 1 .37.23c-.07 1.52-1.75 3.53-3.31 2.28q.25-1.55 1.75-2.99zm-10.17 5.43a.49.48-29.2 0 1 .22-.76l.45-.15a.93.91-41.6 0 1 .68.03q3.79 1.71 6.73.37a.43.43 0 0 1 .45.73q-2.55 2.12-7.45 2a.7.7 0 0 1-.68-.69q-.02-1.04-.4-1.53z"/><ellipse cx="0" cy="0" transform="matrix(.603208 -.797584 .797584 .603208 153.9 239.75)" rx="1.08" ry=".76"/></g><path d="M150.14 243.84q.61-1.03 1.24-1.45a.38.38 0 0 1 .59.37q-.1.59-1.58 1.34a.19.19 0 0 1-.25-.26z" class="F"/><path d="M158.73 260.02q-20.31 27.41-36.18 51.78-12.7 19.51-21.97 32.53 12.05-20.04 25.28-39.28 1.69-2.45 3-3.92c1.6-1.79 2.33-4.19 4.07-6.28q1.36-1.64 4.58-6.59 6.18-9.51 17.11-25.63 1.71-2.53 4.11-2.61z" class="E"/><path d="M125.87 284.95q-.84-3.8 2.4-7.55a.03.03 0 0 1 .06.03l-1.61 7.52a.44.43 44.9 0 1-.85 0z" class="F"/><g class="B"><ellipse cx="0" cy="0" transform="matrix(-.966376 -.257133 .257133 -.966376 101.82 290.81)" rx="1.63" ry=".99"/><ellipse cx="0" cy="0" transform="matrix(-.97437 -.224951 .224951 -.97437 108.57 291.04)" rx="1.07" ry=".75"/><ellipse cx="0" cy="0" transform="matrix(.611527 -.791224 .791224 .611527 115.73 296.26)" rx="3.15" ry=".59"/><ellipse cx="0" cy="0" transform="matrix(-.972776 -.231748 .231748 -.972776 92.56 304.51)" rx="1.05" ry=".78"/><ellipse cx="0" cy="0" transform="matrix(.999816 -.019197 .019197 .999816 99.49 304.7)" rx=".94" ry=".63"/></g><path d="M88.19 339.38q-.94.56-1.2-.93 2.75-5.61 7.57-9.52a.34.34 0 0 1 .47.03v.01a.37.36-46.8 0 1 .01.5q-2.7 3.07-3.19 4.59-2.23 6.99-5.41 14.24a.06.06 0 0 1-.11-.03l1.86-8.89z" class="D"/><path d="M86.99 338.45q.26 1.49 1.2.93l-2.11 2.34a.29.29 0 0 1-.5-.14q-.36-1.74 1.41-3.13zm-14.66 17.76q.36-.29 1.47-1.12.77-.58 1.55-.42 1.06.22 1.78-.78 1.29-1.76 3.27-4.7a.41.4 47 0 1 .69.03l.17.29a.42.4 48.3 0 1-.02.44l-4.46 6.65a.44.44 0 0 1-.79-.32l.2-1.09a.15.15 0 0 0-.27-.12q-.65.8-.45 1.55a.23.23 0 0 1-.35.25q-.52-.35-2.61-.2a.26.26 0 0 1-.18-.46z" class="F"/><path d="M97.11 349.7l-10.56 16.49a3.22 3.18-34.5 0 0-.45 2.35q4.22 21.27 3.43 43.71-.12 3.62-2.05 8.01-.93-.88-.84-2.02.55-7.32-1.05-12.34a.46.27 48.6 0 1-.03-.15l-1.66-27.21a.72.71-36.4 0 1 .05-.31l1.3-3.48a1.33 1.21 53 0 0 .06-.63l-.94-6.23q5.59-10.22 12.74-18.19z" class="E"/><path d="M50.39 357.62l12.09.4q-2.49 2.28-3.11 4.83-1.36 5.52-3 10.99-.45-.74-.5-1.45-.08 1.55.03 2.68a1.55 1.53-71.1 0 0 .44.92q1.51 1.48 4.03.83a1.09 1.06-82.8 0 0 .65-.52l1.13-2.08 2.16-2.75a1.07 1.07 0 0 1 1.65-.04q.78.92 1.9 1.14a.58.57-82.1 0 1 .46.61l-.17 2.81a.6.6 0 0 0 .26.53l.88.59a.26.25 50.6 0 1-.04.45l-.43.19a.15.13-33.9 0 1-.14-.02q-1.93-1.66-2.79-4.15a.79.78-35.6 0 0-1.37-.22l-2.71 3.51a1.07 1.06-70.2 0 1-.86.41l-5.24-.09-2.25-1.06-2.7-.49a.3.3 0 0 1-.19-.46l.57-.86a.32.31 33.7 0 1 .43-.08l3.89 2.61a.08.08 0 0 0 .12-.08q-1.08-5.14.77-8.46.01-.02.02-.05 0-.01-.01.01-.05.13-.11.26a.12.12 0 0 1-.23-.07l.11-.56a.45.45 0 0 0-.63-.49c-3.2 1.46-4.71 5.12-6.98 9.06a.95.94 19.9 0 1-.99.46l-3.59-.67a.96.96 0 0 1-.76-1.17q1.11-4.7 4.66-8.37a.43.43 0 0 0-.1-.68c-4.89-2.65-10.78 2.71-12.44 6.96l-2.22-6.73a.94.94 0 0 1 .55-1.16q3.47-1.38 6.02-4.19a.21.21 0 0 0-.24-.34L27.3 365.7a1.28 1.28 0 0 0-.62 1.79l4.61 8.48q-1.2.01-2.47-.49c-.15-.03-.3-.05-.45-.08.15.03.3.05.45.08q-7.17.81-14.22-.45a.86.86 0 0 1-.72-.84l-.09-6.62 6.98-2.36 2.2 6.5a1.25 1.25 0 0 0 2.44-.47q-.26-4.66 2.88-8.67 10.22-3.95 22.1-4.95zm-3.97 16.2q.27 1 .13 1.8a.75.75 0 0 0 1.42.44l3.89-8.11a.86.85-9.3 0 0-1.37-.98q-4.11 3.98-4.57 4.44-.78.78-.49 3.43a.22.22 0 0 0 .42.07q.01-.03.15-1.06a.22.21-48.7 0 1 .42-.03z" class="B"/><path d="M78.39 365.31q1.68 2.87 1.75 6.23a.23.23 0 0 0 .44.1l1.2-2.5a.57.57 0 0 1 1.07.12q.56 2.61-1.66 4.31a.94.93 34.7 0 1-.84.15q-2.36-.71-5.39.66a.56.56 0 0 1-.78-.65c1.17-4.63-.75-9.52-.22-13.15a.67.67 0 0 0-.57-.76q-3.15-.4-5.62-.1-.73.08-.85.48-.06.23.07.61a1.19 1.17-43 0 1-.04.91l-6.69 13.94a1.71 1.71 0 0 1-2.89.32q-.56-.73-1-2.14 1.64-5.47 3-10.99.62-2.55 3.11-4.83l13.18.39a1.09 1.09 0 0 1 1.06 1.08q.03 3.89 1.67 5.82z" class="E"/><path d="M78.39 365.31l5.98 2.58.94 6.23a1.33 1.21 53 0 1-.06.63l-1.3 3.48a.72.71-36.4 0 0-.05.31l1.66 27.21a.46.27 48.6 0 0 .03.15q1.6 5.02 1.05 12.34-.09 1.14.84 2.02.69 1.37.03 1.74h-4.08c-4.76-.96-9.47-1.69-13.98-3.34-11.67-4.28-24.01-8.5-34.65-13.34a.73.73 0 0 1 .33-1.39q3.16.13 3.48.21c6.75 1.82 14.52 4.38 22.42 4.93a10.52 10.41-29.4 0 1 4.08 1.12q8.55 4.36 18.94 5.12a.56.56 0 0 0 .6-.59l-.21-3.43a.64.62-75.9 0 0-.28-.49l-11.84-7.95a.48.47-24.3 0 1 .33-.86q7.25.86 9.72-4.54 1.23-2.69.85-5.62c-1.3-10.12-5.59-11.03-13.64-14.98l-1.38-9.87 3.27-4.09a.27.27 0 0 0-.35-.4c-4.26 2.58-6.25 6.22-8.97 11.73l-1.13 2.08a1.09 1.06-82.8 0 1-.65.52q-2.52.65-4.03-.83a1.55 1.53-71.1 0 1-.44-.92q-.11-1.13-.03-2.68.05.71.5 1.45.44 1.41 1 2.14a1.71 1.71 0 0 0 2.89-.32l6.69-13.94a1.19 1.17-43 0 0 .04-.91q-.13-.38-.07-.61.12-.4.85-.48 2.47-.3 5.62.1a.67.67 0 0 1 .57.76c-.53 3.63 1.39 8.52.22 13.15a.56.56 0 0 0 .78.65q3.03-1.37 5.39-.66a.94.93 34.7 0 0 .84-.15q2.22-1.7 1.66-4.31a.57.57 0 0 0-1.07-.12l-1.2 2.5a.23.23 0 0 1-.44-.1q-.07-3.36-1.75-6.23zM35.3 373l.66.38a1.49 1.49 0 0 1-.36 2.73q-2.28.61-4.31-.14l-4.61-8.48a1.28 1.28 0 0 1 .62-1.79l12.11-5.12a.21.21 0 0 1 .24.34q-2.55 2.81-6.02 4.19a.94.94 0 0 0-.55 1.16L35.3 373zm-5.532-5.476a.59.35-127.9 0 0 .086.681.59.35-127.9 0 0 .639.251.59.35-127.9 0 0-.086-.681.59.35-127.9 0 0-.639-.251z" class="D"/><path d="M68.2 366.98q-.66 4.91 1.38 9.87c8.05 3.95 12.34 4.86 13.64 14.98q.38 2.93-.85 5.62-2.47 5.4-9.72 4.54a.48.47-24.3 0 0-.33.86l11.84 7.95a.64.62-75.9 0 1 .28.49l.21 3.43a.56.56 0 0 1-.6.59q-10.39-.76-18.94-5.12a10.52 10.41-29.4 0 0-4.08-1.12c-7.9-.55-15.67-3.11-22.42-4.93q-.32-.08-3.48-.21a.73.73 0 0 0-.33 1.39c10.64 4.84 22.98 9.06 34.65 13.34 4.51 1.65 9.22 2.38 13.98 3.34H75.9l-11.86-1.46q-13.94-4.13-26.48-9.28c-4.24-1.74-8.92-3.18-13.32-4.98q-10.85-4.41-21.98-8.84L.94 376.51a.4.4 0 0 1 .45-.42q5.15.68 10.44-.06a.35.35 0 0 0-.01-.69l-4.52-.54a.28.27-88.8 0 1-.23-.25.2.2 0 0 1 .21-.22l4.73.19a.1.1 0 0 0 .11-.1l.01-.32a.2.19-1.4 0 0-.22-.2l-6.7.63c2.41-2.11 5.72-3.77 7.41-6.49q.52-.42 1.17-.47l.09 6.62a.86.86 0 0 0 .72.84q7.05 1.26 14.22.45 1.27.5 2.47.49 2.03.75 4.31.14a1.49 1.49 0 0 0 .36-2.73l-.66-.38c1.66-4.25 7.55-9.61 12.44-6.96a.43.43 0 0 1 .1.68q-3.55 3.67-4.66 8.37a.96.96 0 0 0 .76 1.17l3.59.67a.95.94 19.9 0 0 .99-.46c2.27-3.94 3.78-7.6 6.98-9.06a.45.45 0 0 1 .63.49l-.11.56a.12.12 0 0 0 .23.07q.06-.13.11-.26.01-.02.01-.01-.01.03-.02.05-1.85 3.32-.77 8.46a.08.08 0 0 1-.12.08l-3.89-2.61a.32.31 33.7 0 0-.43.08l-.57.86a.3.3 0 0 0 .19.46l2.7.49q-2.84 1.51 2.25 1.06l5.24.09a1.07 1.06-70.2 0 0 .86-.41l2.71-3.51a.79.78-35.6 0 1 1.37.22q.86 2.49 2.79 4.15a.15.13-33.9 0 0 .14.02l.43-.19a.26.25 50.6 0 0 .04-.45l-.88-.59a.6.6 0 0 1-.26-.53l.17-2.81a.58.57-82.1 0 0-.46-.61q-1.12-.22-1.9-1.14a1.07 1.07 0 0 0-1.65.04l-2.16 2.75c2.72-5.51 4.71-9.15 8.97-11.73a.27.27 0 0 1 .35.4l-3.27 4.09zm-33.15 9.8l.02 1.54a.1.1 0 0 0 .1.1l4.38-.07a5.88.83-.9 0 0 5.87-.92v-.08a5.88.83-.9 0 0-5.89-.74l-4.38.07a.1.1 0 0 0-.1.1zm-6.76-14.21q-3.14 4.01-2.88 8.67a1.25 1.25 0 0 1-2.44.47l-2.2-6.5 7.52-2.64z" class="F"/><ellipse cx="0" cy="0" transform="matrix(-.614285 -.789084 .789084 -.614285 30.13 367.99)" rx=".59" ry=".35" class="E"/><path d="M46 373.85q-.14 1.03-.15 1.06a.22.22 0 0 1-.42-.07q-.29-2.65.49-3.43.46-.46 4.57-4.44a.86.85-9.3 0 1 1.37.98l-3.89 8.11a.75.75 0 0 1-1.42-.44q.14-.8-.13-1.8a.22.21-48.7 0 0-.42.03zm2.037-1.801a.38.16-67.3 0 0-.294.289.38.16-67.3 0 0 .001.412.38.16-67.3 0 0 .294-.289.38.16-67.3 0 0-.001-.412z" class="D"/><path d="M68.2 366.98l1.38 9.87q-2.04-4.96-1.38-9.87zm-55.58 1.06c-1.69 2.72-5 4.38-7.41 6.49l-3.1.33a.7.69 16.7 0 1-.61-1.13l2.24-2.75 3.7-1.23q2.63.22 4.54-1.54.32-.16.64-.17z" class="B"/><path d="M11.98 368.21q-1.91 1.76-4.54 1.54l4.54-1.54z" class="C"/><ellipse cx="0" cy="0" transform="matrix(.385906 -.922538 .922538 .385906 47.89 372.4)" rx=".38" ry=".16" class="E"/><path d="M3.74 370.98l-2.24 2.75a.7.69 16.7 0 0 .61 1.13l3.1-.33 6.7-.63a.2.19-1.4 0 1 .22.2l-.01.32a.1.1 0 0 1-.11.1l-4.73-.19a.2.2 0 0 0-.21.22.28.27-88.8 0 0 .23.25l4.52.54a.35.35 0 0 1 .01.69q-5.29.74-10.44.06a.4.4 0 0 0-.45.42l1.32 20.93 1.77 19.55a1.51 1.49 88.3 0 0 1.44 1.37l58.57 2.18L75.9 422H0v-50.39l3.74-.63z" class="C"/><path d="M28.82 375.48l-.45-.08.45.08z" class="D"/><path d="M35.05 376.78a.1.1 0 0 1 .1-.1l4.38-.07a5.88.83-.9 0 1 5.89.74v.08a5.88.83-.9 0 1-5.87.92l-4.38.07a.1.1 0 0 1-.1-.1l-.02-1.54zm18.41-.65l2.25 1.06q-5.09.45-2.25-1.06z" class="C"/><path d="M64.04 420.54l-58.57-2.18a1.51 1.49 88.3 0 1-1.44-1.37l-1.77-19.55q11.13 4.43 21.98 8.84c4.4 1.8 9.08 3.24 13.32 4.98q12.54 5.15 26.48 9.28z" class="D"/></svg>