<?xml version="1.0" encoding="UTF-8" standalone="no"?>
<!-- Created with Inkscape (http://www.inkscape.org/) -->

<svg
   version="1.1"
   id="svg1"
   width="682.66669"
   height="761.33331"
   viewBox="0 0 682.66669 761.33331"
   xmlns="http://www.w3.org/2000/svg"
   xmlns:svg="http://www.w3.org/2000/svg"
   xmlns:rdf="http://www.w3.org/1999/02/22-rdf-syntax-ns#"
   xmlns:cc="http://creativecommons.org/ns#"
   xmlns:dc="http://purl.org/dc/elements/1.1/">
  <title
     id="title1">Geotail Icon SVG</title>
  <defs
     id="defs1" />
  <g
     id="g1">
    <path
       style="fill:currentColor"
       d="m 334.49404,753.75318 c -10.94983,-21.95676 -11.75556,-56.55032 -46.09215,-41.9326 -43.93537,3.89355 -88.03741,0.81984 -131.76776,-3.12925 -6.03501,-11.60435 -13.2594,-11.61196 -24.58491,-19.48627 C 111.06889,629.5325 95.078137,566.91347 74.746739,506.51894 67.21688,477.7429 57.73092,445.16574 47.511168,415.29105 32.538863,365.47141 13.37779,315.73639 1.2377793,265.79018 23.439907,255.17586 21.868566,241.95091 18.421012,221.70125 c 21.566495,-12.85902 46.982366,-17.17354 50.72593,8.06943 27.942242,2.55553 24.222673,-21.82576 23.306212,-36.2979 20.612896,-8.37622 7.047792,13.48066 29.131936,5.78171 33.38083,5.1079 65.41413,-14.99219 98.93912,-22.17029 49.31242,1.75797 26.22326,-42.49436 19.90312,-70.55445 10.28936,-24.616341 -36.18558,6.20999 -45.43716,-7.009015 -31.36692,16.893975 -29.36493,-23.299312 -4.02602,-25.895673 14.42772,-18.019277 47.20897,-8.449563 56.76946,-30.155288 -23.93924,-6.916733 1.75039,-4.770713 -4.59697,-18.954456 -29.71927,-1.948636 32.80677,-21.1378204 7.58698,2.408037 5.43472,4.911905 7.49022,33.088317 16.25876,10.790193 19.63978,-30.3027935 60.48179,-15.702984 76.82601,3.734019 12.34141,-9.398053 52.46361,-7.086776 21.54057,8.070402 -28.03823,-0.304938 -18.37481,21.28103 -28.28969,38.938094 -13.73016,18.138497 -54.99386,11.419787 -31.24998,41.852777 12.60461,41.61272 66.34847,-3.59108 98.52064,-1.17933 23.98921,-10.59764 73.22916,-3.15415 80.20878,-24.45496 -16.76028,-29.996454 29.42264,-23.640747 46.85372,-32.547778 31.43176,-19.073282 24.28248,22.03139 37.04288,31.957918 32.66197,5.88 20.36735,55.94228 33.3468,81.40146 27.09307,115.43633 54.44047,230.81471 81.33077,346.29745 -4.82437,25.97853 -28.11308,41.70121 -38.30477,64.36194 -16.47538,11.91349 10.93315,51.04681 -18.2144,42.3848 0.46598,-16.73982 -29.25552,-15.33558 -43.49035,-10.79309 -75.34094,35.76233 -155.35022,61.52643 -237.32876,76.79618 1.77515,13.29743 12.66864,54.36576 -11.28056,49.21975 z M 38.666668,273.99999 c -1.703323,-2.39162 -1.703272,2.39164 0,0 z m 30.666667,-10.66666 c -1.703271,-2.39164 -1.703322,2.39162 0,0 z m -6.666666,-1.33334 c -1.703323,-2.39162 -1.703272,2.39164 0,0 z m -3.410183,-1.87565 c -3.384692,-2.6541 -6.212849,4.00335 0,0 z m 4.743516,-2.12435 c -1.703321,-2.39162 -1.70327,2.39164 0,0 z m 4,-2.66666 c -1.70327,-2.39164 -1.703321,2.39162 0,0 z m 2.666667,-2.66667 c -1.703297,-2.39165 -1.703297,2.39165 0,0 z m 48.000001,-9.33333 c -1.70326,-2.39163 -1.70331,2.39161 0,0 z m -1.33333,-16 c -1.70328,-2.39164 -1.70333,2.39162 0,0 z m -24.000004,-1.33334 c -1.703321,-2.39162 -1.70327,2.39164 0,0 z m 17.333334,-6.58797 c -4.05014,-16.03051 -3.82746,12.42905 0,0 z m 170.66667,2.58797 c -1.70332,-2.39163 -1.70327,2.39165 0,0 z m 3.33334,-0.66666 c 1.1454,-4.81699 -4.18423,4.98122 0,0 z m -158.00001,-3.33334 c -1.70331,-2.39161 -1.70326,2.39163 0,0 z m 175.55556,-0.22222 c -4.52622,-1.00429 0.32105,2.68758 0,0 z m -173.88456,-7.30678 c -2.59943,4.06125 3.21885,9.55476 0,0 z m 151.66234,6.19567 c -1.7033,-2.39165 -1.7033,2.39165 0,0 z m 28,0 c -1.70329,-2.39164 -1.70329,2.39164 0,0 z m -17.33333,-1.33333 c -1.70328,-2.39164 -1.70333,2.39162 0,0 z m 2.66666,0 c -1.70327,-2.39165 -1.70332,2.39163 0,0 z m 6.22222,-1.55556 c -4.5262,-1.00427 0.32106,2.68757 0,0 z m 9.33334,-1.33333 c -4.52622,-1.00429 0.32105,2.68758 0,0 z m -183.55556,-1.11111 c -1.70328,-2.39164 -1.70333,2.39162 0,0 z m 189.33334,0 c -1.70328,-2.39164 -1.70333,2.39162 0,0 z m 4,0 c -1.70328,-2.39164 -1.70333,2.39162 0,0 z M 280.50001,209.603 c 0.44335,-9.20066 -5.41071,3.85256 0,0 z m 44.83333,0.39699 c -1.70332,-2.39163 -1.70327,2.39165 0,0 z m 8,-1.33333 c -1.70329,-2.39166 -1.70329,2.39166 0,0 z m -223.11111,-2.88889 c -2.68758,-0.32106 1.00429,4.52622 0,0 z m 192.9071,-4.09183 c -2.38003,-8.42703 -13.88841,11.49658 2e-5,0 z M 99.381414,197.1564 c -5.530988,-9.10828 6.552886,21.72609 0,0 z M 298.0898,155.23168 c -9.78857,-24.31567 8.65308,28.53018 0,0 z M 328.00001,162 c -1.70326,-2.39163 -1.70331,2.39161 0,0 z m 126,-2 c 1.14543,-4.81699 -4.18422,4.98121 0,0 z m 3.33334,-2 c -1.70328,-2.39164 -1.70333,2.39162 0,0 z m 2.66666,-1.33334 c -1.70332,-2.39163 -1.70327,2.39165 0,0 z M 320.8889,152.44444 c -4.52622,-1.00429 0.32105,2.68758 0,0 z m 6.75,-1.25 c -4.90864,-1.51226 -2.44949,2.32201 0,0 z M 529.33335,146 c -1.70326,-2.39163 -1.70331,2.39161 0,0 z m -234.66667,-1.33334 c -1.70333,-2.39162 -1.70328,2.39164 0,0 z m 56,0 c -1.70333,-2.39162 -1.70328,2.39164 0,0 z m -57.33334,-4 c -1.70332,-2.39163 -1.70327,2.39165 0,0 z m -1.77778,-5.55555 c -2.68757,-0.32106 1.00432,4.52621 0,0 z m 247.77779,0.22073 c 15.21515,1.2054 41.99648,-16.59281 8.0216,-6.64527 -13.47661,-2.66618 31.39456,-3.32692 17.03065,-15.36672 4.66953,-15.297136 -31.484,-0.0782 -7.82578,-8.50967 9.51706,-10.702931 -26.96033,9.21567 -8.27121,-15.737842 -7.99853,-2.8172 -6.15894,24.559372 -16.48063,18.402952 -9.51464,1.8004 -43.3438,11.58026 -28.14128,-5.5864 11.80813,12.58254 -0.005,-16.571901 5.84589,-12.888892 6.99082,15.579622 30.83062,5.317801 14.51553,-6.666372 48.03475,-8.020453 -58.2441,-3.961913 -25.38184,22.809024 -6.31517,1.30143 8.67134,38.76243 2.68907,11.47635 24.32984,-14.89364 10.13996,35.53383 37.998,18.71284 z m -8,-4.66518 c 5.57053,-4.6127 1.33568,4.69449 0,0 z m 4.91667,-0.0833 c 6.34645,-7.78021 1.98064,4.77638 0,0 z m -18.91667,-5.32869 c 2.20772,-2.97892 3.33377,4.56565 0,0 z m 30,-7.92131 c 4.80797,-1.41896 1.52039,-0.80144 0,0 z m -50,-18.311789 c 6.45577,-9.408307 10.91816,-0.941111 0,0 z m 9.33333,-1.68821 c 3.66127,-4.97731 1.20879,4.598919 0,0 z m -12,-4.666667 c 1.70329,-2.391623 1.70329,2.391625 0,0 z m 18.1405,-3.10601 c 3.07091,-9.628906 11.44062,3.939036 0,0 z m -222.1405,43.106006 c -1.70333,-2.39162 -1.70328,2.39164 0,0 z m 220.88889,-5.55555 c -2.68759,-0.32107 1.00431,4.52621 0,0 z m -4.88889,-3.77778 c -1.70329,-2.39166 -1.70329,2.39166 0,0 z m 3.57749,-2.25 c -2.4676,-2.71606 1.33837,7.804 0,0 z M 520.00002,110 c -1.70328,-2.39164 -1.70333,2.39162 0,0 z m 5.33333,-2.66667 c -1.70329,-2.39164 -1.70329,2.39164 0,0 z m 4.66667,-0.66667 c 0.0583,-4.48346 -4.09337,4.44177 0,0 z M 513.33335,106 c -1.70326,-2.39163 -1.70331,2.39161 0,0 z m 8,0 c -1.70326,-2.39163 -1.70331,2.39161 0,0 z m -3.02778,-1.47223 c -4.90861,-1.51226 -2.4495,2.32204 0,0 z m 3.02778,-1.19444 c -1.70329,-2.39164 -1.70329,2.39164 0,0 z m 7.33333,-0.66667 c -7.06171,-4.871206 1.49476,4.59521 0,0 z m 32.24416,-4.249996 c -2.4676,-2.71607 1.33837,7.803996 0,0 z m -22.94506,-7.683787 c 3.22602,-15.488562 -4.09467,-3.70491 -3.36407,3.933787 z m 20.27839,-4.316213 c -2.46761,-2.716062 1.33839,7.803984 0,0 z m -230.24416,-1.75 c -1.70329,-2.391623 -1.70329,2.391625 0,0 z m 229.33334,-3.333333 c -3.66127,-4.977307 -1.20879,4.598915 0,0 z m -1.75585,-5.583333 c -2.46758,-2.716067 1.33838,7.803992 0,0 z m -0.0825,-3.366085 c -19.94596,2.410326 -15.83989,7.242638 0,0 z m -4.82836,4.282752 c -1.70329,-2.391645 -1.7033,2.391644 0,0 z m -212,-1.333334 c -1.70331,-2.391634 -1.7033,2.391636 0,0 z m -85.3333,-21.333332 c -1.70329,-2.391625 -1.70329,2.391623 0,0 z m 4,-1.347865 c -6.75296,-21.212508 -7.57797,-2.081162 0,0 z M 321.63818,40.59206 c -4.25432,-3.644113 1.39019,9.618356 0,0 z m 5.19857,-4.258728 c 4.11884,-6.002562 -7.4417,7.097481 0,0 z m -6.30741,-3.222222 c -7.92923,-4.352029 -2.15912,4.361441 0,0 z m 8.804,-0.444444 c -1.70329,-2.391645 -1.7033,2.391644 0,0 z m -18.66666,-1.333334 c -1.70331,-2.391634 -1.7033,2.391636 0,0 z m -62.96629,-6.741638 c -6.30549,-13.993175 3.743,19.454624 0,0 z m 72.96629,4.741639 c -7.06173,-4.871219 1.49473,4.595187 0,0 z m -71.33334,-10 c -1.70329,-2.391625 -1.70329,2.391623 0,0 z m 68,695.999977 c 1.70333,-2.39162 1.70328,2.39164 0,0 z m -144,-2.66666 c 1.70326,-2.39163 1.70331,2.39161 0,0 z m 2.66667,0 c 1.70327,-2.39165 1.70332,2.39163 0,0 z m 3.11111,-0.22222 c 4.52619,-1.00428 -0.32104,2.68755 0,0 z m 7.30555,-0.0219 c 7.45403,-1.15109 -2.29241,2.286 0,0 z m -23.75,-1.08919 c 1.70331,-2.39161 1.70326,2.39163 0,0 z m 153.33334,0 c 1.70331,-2.39161 1.70326,2.39163 0,0 z m 32,-5.33333 c 1.70329,-2.39164 1.70329,2.39164 0,0 z m -196.79399,-3.53934 c -0.52795,-3.3685 4.50189,4.88308 0,0 z m -24.53935,-20.46066 c 1.70331,-2.39161 1.70326,2.39163 0,0 z m -1.33333,-2.66666 c 1.70327,-2.39165 1.70332,2.39163 0,0 z m -10.66667,-35.33334 c 1.06705,-3.61532 1.06703,3.61533 0,0 z m 517.33335,-0.66666 c 1.70326,-2.39163 1.70331,2.39161 0,0 z m -13.33333,-14.66667 c 1.70329,-2.39166 1.70329,2.39166 0,0 z m 4,0 c 1.70329,-2.39166 1.70329,2.39166 0,0 z m -24.00001,-1.33333 c 1.70328,-2.39164 1.70333,2.39162 0,0 z M 108,622.66665 c 1.06704,-3.61533 1.06704,3.61533 0,0 z m 532.00002,-11.33333 c 1.70326,-2.39163 1.70331,2.39161 0,0 z m -537.33335,-6 c 1.06704,-3.61533 1.06704,3.61533 0,0 z m -6.666667,-22 c 1.70327,-2.39164 1.703321,2.39162 0,0 z m -5.333334,-17.33334 c 1.703323,-2.39162 1.703272,2.39164 0,0 z m -1.333333,-4 c 1.703321,-2.39162 1.70327,2.39164 0,0 z m -4,-13.33333 c 1.703321,-2.39162 1.70327,2.39164 0,0 z m -6.666667,-22 c 1.067043,-3.61533 1.067037,3.61534 0,0 z m -6.666667,-22 c 1.703323,-2.39162 1.703272,2.39164 0,0 z m -5.333333,-21.33333 c 1.703296,-2.39165 1.703296,2.39165 0,0 z m -5.333334,-17.33333 c 1.703272,-2.39164 1.703323,2.39162 0,0 z m -1.333333,-2.66667 c 1.703296,-2.39165 1.703296,2.39165 0,0 z m -5.333334,-17.33333 c 1.703272,-2.39164 1.703323,2.39162 0,0 z m -5.333333,-17.33333 c 1.703271,-2.39164 1.703322,2.39162 0,0 z m -1.333334,-2.66667 c 1.703297,-2.39165 1.703297,2.39165 0,0 z m -5.333333,-17.33333 c 1.70327,-2.39164 1.703321,2.39162 0,0 z m -1.333333,-4 c 1.703271,-2.39164 1.703322,2.39162 0,0 z m -5.333334,-16 c 1.70327,-2.39164 1.703321,2.39162 0,0 z m 614.666689,-1.33334 c 1.70332,-2.39163 1.70327,2.39165 0,0 z m -618.666689,-12 c 1.703321,-2.39162 1.70327,2.39164 0,0 z m -1.333333,-4 c 1.703322,-2.39162 1.703271,2.39164 0,0 z m -1.333334,-4 c 1.703323,-2.39162 1.703272,2.39164 0,0 z m -9.333333,-29.33333 c 1.703296,-2.39165 1.703296,2.39165 0,0 z m -1.333334,-4 c 1.703297,-2.39165 1.703297,2.39165 0,0 z m -5.333333,-17.33333 c 1.703271,-2.39164 1.703322,2.39162 0,0 z M 12,313.99999 c 1.703297,-2.39165 1.703297,2.39165 0,0 z M 8.0000002,300.66666 c 1.7032957,-2.39165 1.7032957,2.39165 0,0 z m -1.3333333,-4 c 1.7032955,-2.39165 1.7032955,2.39165 0,0 z M 1.3333334,279.33333 c 1.7032706,-2.39164 1.7033219,2.39162 0,0 z M 20.000001,248.66666 c 1.703296,-2.39165 1.703296,2.39165 0,0 z M 602.66668,183.33333 c 1.7033,-2.39165 1.7033,2.39165 0,0 z M 250.66667,166 c 1.70328,-2.39164 1.70333,2.39162 0,0 z m 346.66668,-6 c 1.06704,-3.61533 1.06704,3.61531 0,0 z M 314.66668,148.66666 c 1.70332,-2.39163 1.70327,2.39165 0,0 z m -68.00001,-9.33333 c 1.7033,-2.39165 1.7033,2.39165 0,0 z M 592.00002,138 c 1.70327,-2.39165 1.70332,2.39163 0,0 z m -1.33334,-6.66667 c 1.7033,-2.39165 1.7033,2.39165 0,0 z M 181.33334,124 c 3.40657,-4.78329 3.40663,4.78328 0,0 z m 166.31111,-1.49879 c 7.15847,-3.97251 -3.24893,4.09777 0,0 z m -107.64444,-3.16788 c 1.70329,-2.39166 1.70329,2.39166 0,0 z m 60,-12 c 1.70329,-2.39164 1.70329,2.39164 0,0 z m 32,-2.66667 c 1.70331,-2.39161 1.70326,2.39163 0,0 z m -90.66667,-1.33333 c 1.70329,-2.39164 1.70329,2.39164 0,0 z m -48.88889,-1.55555 c 4.52621,-1.00429 -0.32104,2.68756 0,0 z m 3.55556,-1.11112 c 1.70331,-2.391639 1.70328,2.39165 0,0 z m 38,-1.999996 c 6.13101,-4.741573 0.0863,4.554386 0,0 z m 7.33333,0.666667 c 1.70329,-2.391625 1.70329,2.391619 0,0 z m 106,-12.666667 c 4.09337,-4.441747 -0.0583,4.483458 0,0 z m 214.00001,-4 c 1.06704,-3.615324 1.06704,3.615327 0,0 z M 185.33334,76.809316 c 4.01794,-4.398709 4.06383,1.810007 0,0 z m 20,-13.475984 c 1.70329,-2.391625 1.70329,2.391623 0,0 z m 33.33333,-12 c 1.70331,-2.391637 1.70331,2.391637 0,0 z m 6.66667,-6 c 1.06704,-3.615327 1.06704,3.615327 0,0 z m 14,-1.333333 c -0.0583,-4.483455 4.09336,4.441741 0,0 z m -15.33333,-2 c 1.7033,-2.391646 1.7033,2.391646 0,0 z m 94.66667,-1.333333 c 1.70329,-2.391645 1.7033,2.391644 0,0 z M 261.77779,39.11111 c 4.5262,-1.004274 -0.32106,2.687567 0,0 z m -7.11112,-1.111111 c 1.70331,-2.391637 1.70331,2.391637 0,0 z m -18.66666,-2.666667 c 1.7033,-2.391644 1.70329,2.391645 0,0 z m 140,-1.333333 c 1.70329,-2.391626 1.70329,2.391626 0,0 z M 241.4386,27.222221 c 0.85778,-5.138605 1.35245,6.068723 0,0 z m 10.56141,-3.222222 c 1.06704,-3.615325 1.06704,3.615327 0,0 z m 108.44445,-4.888888 c 4.5262,-1.004275 -0.32106,2.687565 0,0 z M 238.66667,16.666666 c 1.70331,-2.391634 1.7033,2.391636 0,0 z M 260.8889,3.111111 c -3.32555,-7.5355706 6.76765,2.8510535 0,0 z"
       id="path1" />
  </g>
  <metadata
     id="metadata1">
    <rdf:RDF>
      <cc:Work
         rdf:about="">
        <dc:title>Geotail Icon SVG</dc:title>
        <dc:source>https://science.nasa.gov/wp-content/uploads/2023/05/Geotail.png</dc:source>
      </cc:Work>
    </rdf:RDF>
  </metadata>
</svg>
