<svg xmlns="http://www.w3.org/2000/svg" baseProfile="tiny" width="512" height="571" xmlns:v="https://vecta.io/nano"><style><![CDATA[.B{fill:#010102}.C{fill:#a9b8c8}]]></style><path d="M196.47 1.6q-.09.41-.69-.12a.16.15-13.5 0 1 .16-.26l.42.16a.19.19 0 0 1 .11.22zm-5.19 9.43q-4.91 3.5-7.27 1.39 2.44.64 7.27-1.39z" class="B"/><path d="M188.26 23.79q.1 1.29 1.11 1.29a.22.17 25.5 0 0 .09-.02l1.6-.61a.53.53 0 0 1 .72.5q0 .57-.5 1.28l-1.16.53q-.46 0-.75.33-.26.28-.22.78.05.67.35 1.39l4.27 9.19a.74.71-4.1 0 0 .47.39q.79.21 1.06-.63a.59.58 8.5 0 1 .54-.39q.57 0 .98.52a.48.48 0 0 1-.21.75q-.89.33-1.63.28a1.52 1.48-61.3 0 0-.98.3q-3.3 2.51-8.39 2.45a2.03 1.98-55.2 0 0-.83.16q-6.43 2.63-13.12 2.64a2.08 2.07 31.8 0 0-.91.21q-1.97.99-4.56.99a.47.47 0 0 0-.47.54l.05.38a.57.57 0 0 0 .65.48c6.09-1.06 12.89-1.74 18.55-4.25a.16.07-39.7 0 1 .07-.02l12.34-2.27a.8.8 0 0 0 .65-.71l.91-8.49q.91-1.31 1.31-2.75c2.95-3.92 4.53-7.69 9.84-9.38q6.2-1.97 12.38-3.59 1 .24 1.5-.07l6.55-.82 6.33.57q7.25 3.88 11.23 8.44 2.33 2.68 4.76 8.58-.11.54.42.68.33.09.53-.26l21.58-6.66 2.07.2 5.15 1.69a.6.6 0 0 1 .39.74q-.96 3.2-3.67 4.89-1.32.25-2.11 1.42l-1.18.34q-1.25.06-2.08.64-.11.05-.21.11-.39-.01-.68.16-.89.04-1.35.5-.35.28-.94.26-1.89.09-3.09.98-5.36 2.31-10.99 3.06a.6.59-10.9 0 0-.5.73c1.03 4.4 1.96 8.94.88 13.45l-.02 2.04-6.88 11.77a3.17 3.13-2 0 1-.99 1.05c-5.76 3.82-11.26 5.09-19.53 7.78a1.89 1.82-50.3 0 1-.71.08l-3.2-.29q-.6-.29-1.46-.26a.23.22 29.2 0 1-.12-.42q.75-.44 1.86.07a.1.08 52 0 0 .04.01l4.27-.2a.65.65 0 0 0 .58-.42q.26-.69 1.68-1.99a.4.4 0 0 0-.23-.69l-.68-.06a.51.49-66.6 0 0-.42.18l-.47.55a.48.48 0 0 1-.84-.25q-.1-.7-1.05-1.27a.36.36 0 0 0-.55.27l-.12 1.02a.04.01-73.2 0 1-.02.03q-.01.01-.02.01a.02.01-13.3 0 1-.03-.01l-.51-3.45a.31.29-36 0 1 .04-.21q.15-.26.42-.1a.28.28 0 0 0 .42-.21q.05-.45.12-.75a1.36 1.35-.7 0 1 1.01-1.03l4.09-.99a.38.37-51.5 0 0-.08-.74h-4.24a.73.71 74.6 0 1-.62-.36q-1.43-2.45-4.86-3.79-.59-.23-.12-.39.39-.13.26-.72a.26.25 10.2 0 0-.13-.18l-10.69-6.48a2.56 2.53 9.4 0 1-1.16-1.6q-.22-.73-1.35-.57a.35.35 0 0 0-.09.66q.88.38 1.49 1.7a.3.3 0 0 1-.49.32q-1.1-1.26-3.12-1.05a.44.43 75.2 0 0-.35.61q.38.88.93 1.26.03.02-.04.23-.06.2-.25.28a.26.25-20 0 1-.35-.16q-.24-.84-1.81-2.12a1.04 1.03-26.8 0 0-.74-.24c-1.54.08-2.2-1.68-.97-2.53q.05-.03.4.02.26.04.34-.06.19-.24.06-.55a.54.5-3.8 0 0-.37-.3q-1.71-.33-2.39-.93a.53.53 0 0 0-.73.01q-.2.2-.16.86a.45.45 0 0 0 .47.42q.82-.05 1.19.22a.64.63 35.8 0 1 .15.87q-.61.91-.16 1.64.13.21.48.34.15.06.57.18.42.12-.11.87-.54.78-.71 1.79a.58.58 0 0 1-.92.37q-.05-.03-.12-.07a.32.32 0 0 0-.41.46l1.34 1.88a.54.54 0 0 0 .96-.16q.19-.6.4-.64a.55.54-18.3 0 1 .55.27q.42.73 1.21.76c1.38.06 2.78 1.7 3.27 2.72a1.6 1.51-61.7 0 1 .16.6q.17 3.71 3.04 4.62a1.23 1.21 83.2 0 1 .69.55l1.1 1.9a.22.22 0 0 0 .42-.11v-.59a.45.45 0 0 1 .7-.38q.66.45.67 1.47a.82.78 22.1 0 0 .25.55l2.86 2.77a1.92 1.9 68.9 0 0 1.13.51l1.38.12a.53.53 0 0 1 .28.95q-.8.62-.93.99a.6.6 0 0 1-.76.37q-.9-.3-1.01.23a.33.33 0 0 1-.44.24q-1-.38-1.42.98-.23.76.54 1.02.26.09.65.02a.71.71 0 0 1 .74.37q1.44 2.79 1.32 4.66a.54.53 8.7 0 1-.66.48q-1.77-.43-3.9-1.99a.18.17 64.4 0 1 .11-.32q.15.01.39.17a.45.45 0 0 0 .67-.21q.21-.57-.53-.8-3.23-1.01-4.37-1.55a1.15 1.14 6.4 0 0-1.61 1.28q.6 2.7-.04 3.24a.49.49 0 0 0-.06.68q.64.77-.08 4.17a.42.42 0 0 0 .43.51q.31-.01.48.1a.28.28 0 0 1-.12.52q-.63.08-.83-.85a.26.25 51.9 0 0-.48-.06l-.89 1.82a.11.11 0 0 1-.21-.03q-.1-.65-.9-1.21a.13.12-67.1 0 0-.19.08q-.06.23-.12.26a.5.5 0 0 1-.73-.63l3.3-7.24a.87.85 52.6 0 0 .06-.48q-.09-.47-.57-.88a.39.38 50 0 1 .05-.62q.65-.38.02-1.19-1.21-1.56-2.08-2.15-.9-.63-1.35-1.08a.59.59 0 0 1 .14-.92q.48-.26.51-.3a.45.45 0 0 0-.59-.67l-3.16 1.94a1.42 1.4 87.8 0 0-.52.57q-1.14 2.22-3.82 1.81a.26.26 0 0 0-.3.24v.01a.29.29 0 0 0 .34.33l2.1-.33a1.27 1.21 13.6 0 0 .76-.44q.81-1.01 2.36-1.91a.99.99 0 0 1 1.14.11l1.63 1.44a.3.29-30.9 0 1-.13.51q-.05.02-.07.03a.79.78 62.4 0 0-.31 1.01q.37.82-.26 1.06a.68.67 73 0 0-.41.78q.42 1.78-1.27 2.9a.56.56 0 0 0 .51.99q1-.38 2.19-1.83a.33.33 0 0 1 .46-.04l.4.34a.16.15-52 0 1 .02.21q-2.17 2.72-2.93 6.03-.31 1.37.8 1.79.5.2.3.53-.17.29-.58.33-.43.05-.74.6-.71 1.28-1.93 1.42-1.94.24-3.86-.07a.72.72 0 0 0-.79.47q-.39 1.07-3.16 2.65a.5.49-37.1 0 1-.61-.08q-.46-.46-.21-1.03a.77.76 4.6 0 1 .53-.45l.32-.08a.8.79 44.8 0 0-.01-1.55q-1.16-.28-2.37-1-.83-.49-1.38-.22-.59.29-1 1.1a.7.69 15.7 0 1-.68.38l-2.44-.22a.52.51 59.9 0 0-.26.98q2.54 1.18 5.22-.43a.25.25 0 0 1 .38.24l-.13 1.48a.88.86-4.7 0 1-.67.77l-4.17 1.01a1.51 1.49 63.4 0 1-1.51-.51q-2.15-2.63-2.87-2.3.37-.71.05-1.38l.23-.66q.9-.2 1.24-.77a.64.63-55.9 0 0-.15-.83q-.36-.27-.79-.42l-.74-.96q-.46-2-2.12-4.82-.47-.79-.09-1.89a1.27 1.25-46.6 0 0-.02-.87q-.46-1.17-1.62-1.94l.03-1.01q.07-.13.13-.27c1.04-.12 1.96.17 2.88-.18q1.66-.64.38-2.05l-.15-.57q.7-1.46.42-3.17-.08-.15-.16-.31-.1-.77.35-1.29a.63.63 0 0 0 0-.82q-.24-.29-.38-.73a.73.72-10.8 0 0-.76-.51q-.86.08-1.62 1.06-.17-.03-.32-.05a.54.53-6.2 0 1-.44-.35q-.06-.17-.1-.34l-.04-.88a.53.53 0 0 0-.35-.47q-.74-.27-1.47.42l-12.27 3.85q-.32-.19-.74.08l-8.29 1.57q-.67-.11-1.21.18l-4.5.86-1.06-.08-1.26-3.16q1.7-1.93 4.59-1.81a.29.29 0 0 0 .3-.29v-.35a.27.27 0 0 0-.29-.27q-3.99.24-7.13 2.37l-15.44 3.89a.73.72 76.8 0 1-.88-.55c-.8-3.57.29-5.75-2.76-9.41a1.95 1.86 18.5 0 1-.39-.74q-.41-1.51.23-2.76a1.43 1.4-83.4 0 1 .89-.72l15.1-4.19q6.73-.37 13.08-2.91a.44.43 72.3 0 0 .26-.51l-.07-.28a.24.23-12.5 0 0-.28-.17l-3.08.75a.37.37 0 0 1-.37-.6q.86-1.03 2.15-1.56a.32.32 0 0 0-.12-.62q-2.18-.03-4.58.77a.42.42 0 0 0-.09.75q.93.6.65 1.29a.99.95 88.8 0 1-.46.5c-1.89.94-5.67 3.47-6.97.61l-.15-.5.9-3.17q2.45-.36 3.1-1.68l8.56-2.31a1.06 1.04-72.2 0 0 .38-.2l1.61-1.32a3.77 3.73-71.2 0 1 1.51-.75l18.23-4.4 9.77-2.32a.72.72 0 0 0 .55-.8l-1.23-8.69a2.22 2.2 9.3 0 0-1.22-1.68l-1.78-.87a1.18 1.17-43.8 0 0-.99-.02l-2.9 1.32q-1.04-.16-2.56.12-.49.09-.64-.14-.13-.19-.09-.46a.33.33 0 0 1 .18-.26l2.71-1.57 5.42-.76a.43.43 0 0 0 .35-.56l-1.95-5.74-.65-2.75q-.03-.56-.48-.71-.5-.16-.94.21l-.71.17-4.6 1.3a1.08 1.08 0 0 1-.98-1.88q1.44-1.19 4.21-1.56c1.94.15 3.24-1.29 2.2-3.06q2.33-.68 2.4.44 2.36 2.11 7.27-1.39.89.25 1.19 1.2a1.45 1.4-19.3 0 1-.87 1.73q-2.46.98-4.46 1.46a.89.88-13.6 0 0-.65 1.06l1.77 7.31zm39.32-1.7q-.87.12-1.44-.74a.58.58 0 0 0-.75-.19q-1.06.54-1.35 1.06a.61.61 0 0 0 .52.9q1.21.03 1.75.51a1.17 1.17 0 0 0 1.7-.15q.18-.23.03-1.06a.42.41-8.8 0 0-.46-.33zm2.36 2.16l-1.38.15a.39.39 0 0 0-.18.71q.82.56 1.08 1.02a1.08.99-65.5 0 0 1.88-.79q-.03-.22-.5-.74a1.05 1.04 66.1 0 0-.9-.35zm25.24 25.02l-.26-3.69a.6.58 30 0 0-.06-.21q-1.15-2.34-1.25-4.72a2.69 2.6 31.8 0 0-.27-1.07q-1.2-2.51-1.3-4.05a2.77 2.76 23.9 0 0-.59-1.52q-1.7-2.08-2.5-4.91a.3.28 78.8 0 0-.3-.21l-.31.04a.43.43 0 0 0-.38.51q.53 2.88 2.25 5.34a2 1.86-74.9 0 1 .28.53l2.44 6.62a2.99 2.94-55.3 0 1 .19 1.1q-.03 3.74 1.05 6.47a.53.52 32.1 0 0 1.01-.23zm-52.203-19.142a.44.44 0 0 0-.601-.161l-.121.07a.44.44 0 0 0-.161.601l2.19 3.793a.44.44 0 0 0 .601.161l.121-.07a.44.44 0 0 0 .161-.601l-2.19-3.793zM218.66 47.95q.46.09.8.77 1.25 2.48 4.25 3.77a.36.36 0 0 0 .49-.25l.09-.37a.46.45 16.7 0 0-.29-.53c-4.21-1.46-5.37-5.86-6.72-9.62a1.19 1.17 52.8 0 1 .14-1.08q1.23-1.78 1.23-2.28a.32.32 0 0 0-.55-.21c-3.34 3.69-.14 6.12.22 9.44a.41.4 1.9 0 0 .34.36zm5.93 1.29q-3.59-3.62-4.55-8.68a.17.17 0 0 0-.22-.13l-.29.1a.21.2-15.6 0 0-.14.24q1.05 5.21 4.61 8.96a.41.41 0 0 0 .58.02l.01-.02a.35.34 45.6 0 0 0-.49zm9.52-6a.38.38 0 0 0 .52-.14l1.29-2.24a.42.42 0 0 0-.58-.57q-1.27.78-1.88 2.06a.48.48 0 0 0 .19.62l.46.27zm-37.859.152a.88.65-171 0 0 .768.78.88.65-171 0 0 .971-.504.88.65-171 0 0-.768-.78.88.65-171 0 0-.971.504zM188.5 44.53q2.64 1.2 5.52.5a.41.4-16.3 0 0 .28-.52l-.12-.35a.45.44-10.3 0 0-.44-.3l-5.16.28a.21.2-34.1 0 0-.08.39zm45.48-.7q-2.47 1.6-6.57 2.27a2.86 2.85-86 0 0-2.28 1.99l-.02.05a1.39 1.38 8.6 0 0 1.34 1.81l7.45-.09a1.77 1.76 21.4 0 0 1.25-.54q.98-1 2.29-1.53a.84.84 0 0 0 .11-1.5q-1.94-1.15-2.84-2.33a.55.55 0 0 0-.73-.13zM221 52.37q-1.44-.41-2.49-.31a.64.63 83.2 0 1-.7-.56q-.13-1.14.33-2.13a.4.39-.7 0 0-.54-.52q-.45.22-.46 2.74a1.18 1.16 11.3 0 0 .73 1.08l3.48 1.4a.57.5 75.1 0 1 .18.12q1.33 1.35 2.93 1.72a.39.38 76.6 0 0 .38-.62q-1.65-2.04-2.83-2.55a7.8 7.39-22.7 0 0-1.01-.37zm-27.54 3.58q.44-.4 1.4-4.7a1.59 1.57-9 0 1 .76-1.03l.37-.21a.47.47 0 0 0-.11-.86q-.48-.14-1.71.05a1.26 1.26 0 0 0-1.07 1.17l-.3 5.3a.38.38 0 0 0 .66.28zm-29.913-5.378a1.68.53-69.9 0 0-1.075 1.396 1.68.53-69.9 0 0-.08 1.76 1.68.53-69.9 0 0 1.075-1.396 1.68.53-69.9 0 0 .08-1.76zM182.35 52.6a1.72 1.71 3.7 0 0 .85.96q2.2 1.1 4.32 3.43a.31.3-43.1 0 0 .44.01l.01-.02a.39.38 42.1 0 0-.03-.57q-1.7-1.36-1.57-2.97a.61.61 0 0 0-.62-.66q-1.24.03-3.3-1.72a.31.31 0 0 0-.5.34l.4 1.2zm17.96 6.44a.38.38 0 0 0 .47-.58q-1.09-1.31-2.42-1.74a.74.74 0 0 1-.51-.72q.01-.43-.59-1.39a.44.44 0 0 1 .42-.67l.61.05a.51.51 0 0 0 .49-.75q-.61-1.16-1.37-1.83a.47.47 0 0 0-.77.31l-.32 3.55a1.17 1.15 23.9 0 0 .38.96q2.39 2.15 3.61 2.81zm43.92-3.61l-2.56-3.13a.57.57 0 0 0-1 .26c-.42 2.14 1.51 2.48 2.88 3.56a.49.49 0 0 0 .68-.69zm-71.26 3.73l-6.46-6.46a.23.23 0 0 0-.39.23c.54 1.81 1.94 2.75 3.16 3.87q2.63 2.43 3.54 2.64a.17.16 73.4 0 0 .15-.28zm55.29 2.99q-6.8-4.82-8.72-6.21-.98-.7-6.01-2.56a.12.12 0 0 0-.14.05l-.14.25a.08.07 31.5 0 0 .03.1l14.66 8.94a.05.05 0 0 0 .06 0l.27-.22a.22.22 0 0 0-.01-.35zm9.5-4.02l-4.78-2.99a1.69 1.44 63.5 0 0-.33-.14l-6.68-1.63a.42.41 82.1 0 0-.46.61l.73 1.26a1.22 1.17 1.7 0 0 .41.42q2.7 1.65 5.22 1.47a1.72 1.69 56 0 1 .93.19q2.31 1.17 4.75 1.42a.33.33 0 0 0 .21-.61zm-35.675-4.027a1.03.62-99.2 0 0-.447 1.116 1.03.62-99.2 0 0 .777.918 1.03.62-99.2 0 0 .447-1.116 1.03.62-99.2 0 0-.777-.918zM166.46 60.15l.76-.45a.22.22 0 0 0 .08-.3l-.08-.14a5.7.65 59.7 0 0-3.44-4.59l-.01.01a5.7.65 59.7 0 0 2.31 5.25l.08.14a.22.22 0 0 0 .3.08zm18.71-1.6q.52-.03.71-.4a.53.53 0 0 0-.15-.66q-.81-.62-1.83-2.18a.67.67 0 0 0-1.07-.07l-.36.43a1.01 1-59.4 0 1-1.12.29q-1.58-.59-3.97-.25a.33.33 0 0 0-.17.58q1.88 1.58 3.82 1.59a1.54 1.32-49.5 0 0 .44-.07l1.33-.46a.64.64 0 0 1 .84.66l-.05.5a1.25 1.22 22.6 0 0 .46 1.07l4.85 3.94a1.7 1.65 75.6 0 0 .44.27q2.57 1.06 5.93.64 5.8-.72 7.35-1.5a.49.49 0 0 0-.33-.91q-2.88.64-3.19.83a2 1.97 31.7 0 1-1.17.27l-7.92-.57a1.16 1.13-25.2 0 1-.58-.2l-4.46-3.09a.39.39 0 0 1 .2-.71zm11.95-.32q-.69.37-1.06-.16a1.01 1 72.4 0 0-.82-.43q-2.75 0-5.14-1.62a.16.15-40.7 0 0-.17-.01l-.31.14a.26.25-38.1 0 0-.06.43l3.91 3.25a.89.78-11.9 0 0 .25.14q2.99 1.03 3.92-1.27a.37.37 0 0 0-.52-.47zm37.39 3.88l-11.37-5.56a.13.13 0 0 0-.18.06l-.11.23a.05.04 27.1 0 0 .02.05l8.05 5.28a2.81 2.8-28.2 0 0 1.54.46h1.93a.27.27 0 0 0 .12-.52zm-46.114-4.543a1.78.41-135.7 0 0 .988 1.537 1.78.41-135.7 0 0 1.56.95 1.78.41-135.7 0 0-.988-1.537 1.78.41-135.7 0 0-1.56-.95zm57.724.783q-1.41-.7-1.48-.72a.58.58 0 0 0-.4 1.07q1.23.72 1.91.29a.37.36-48.4 0 0-.03-.64zm-60.57 6.06l-4.3 2.43a2.22 2.21-51.3 0 1-1.72.19c-1.75-.66-2.47.83-3.86 1.38a.38.37-21.5 0 0-.21.47l.01.02a.35.35 0 0 0 .43.2q1.47-.49 3.72-1.44.49-.2 2.37.11a1.36 1.34-58 0 0 1.04-.25l2.93-2.2a.82.81 25.9 0 1 .5-.17q1.13-.01 1.24-.11a.59.59 0 0 0-.05-.88c-2.51-1.95-4.65-2.64-7.17-3.54a2.25 2.21 78.2 0 1-.94-.63q-1.31-1.45-3.4-2.34a.33.33 0 0 0-.39.5q1.09 1.43 2.89 2.28a.88.79 79.9 0 1 .31.24l1.17 1.43a1.29 1.28 78.2 0 0 .59.39l4.79 1.49a.24.24 0 0 1 .05.43zm68.325-6.65a1.92.64-58.1 0 0-1.558 1.292 1.92.64-58.1 0 0-.471 1.968 1.92.64-58.1 0 0 1.558-1.292 1.92.64-58.1 0 0 .471-1.968zm-19.735 2.17q-.19.36.11.52 1.32.7 2.3 1.55.42.36.78-.07a1.16 1.07 21.2 0 0-.87-1.78q-1.72-.14-2.13-.3a.17.16-65.1 0 0-.19.08zm-28.52 1q-.38.41-.14.92a.68.61 7.4 0 0 .23.28q2.92 1.93 3.08 1.76.16-.18-1.98-2.95a.68.61 78.4 0 0-.29-.21q-.53-.2-.9.2zm-38.911.328a.49.49 0 0 0-.626-.297l-.038.014a.49.49 0 0 0-.297.626l1.382 3.881a.49.49 0 0 0 .626.297l.038-.013a.49.49 0 0 0 .297-.626l-1.382-3.881zm-23.021-.061a1.63.49-29.5 0 0-1.66.376 1.63.49-29.5 0 0-1.177 1.229 1.63.49-29.5 0 0 1.66-.376 1.63.49-29.5 0 0 1.177-1.229zM175.93 63l-2-1.09a.44.44 0 0 0-.53.69q1.44 1.51 2.43 1.94a1.95 1.81-2.4 0 0 2.53-2.55q-.23-.38-1.17-.38a.55.54 87.1 0 0-.54.6q.05.46.04.49a.54.53-66.1 0 1-.76.3zm28.912 1.437a.96.45-11 0 0-1.028-.259.96.45-11 0 0-.856.625.96.45-11 0 0 1.028.258.96.45-11 0 0 .857-.625zm-22.587.017a1.73.93-25.2 0 0-1.961-.105 1.73.93-25.2 0 0-1.169 1.578 1.73.93-25.2 0 0 1.961.105 1.73.93-25.2 0 0 1.169-1.578zm-8.235 1.507c.31.95 1.38 1.24 2.08.62a.52.52 0 0 0-.5-.88q-.72.22-1.58.26-.39-1.37-1.78-1.02a.55.54 46.2 0 0-.02 1.05q.72.21 1.8-.03zm28.286-.702a.86.55-25.6 0 0-1.013-.124.86.55-25.6 0 0-.538.868.86.55-25.6 0 0 1.013.124.86.55-25.6 0 0 .538-.868zm6.604.482a.37.37 0 0 0-.71-.14q-.12.32-.06.92.05.51.36.85 1.55 1.75 2.52 2.48a.48.48 0 0 0 .71-.63q-.92-1.52-2.2-2.29a1.37 1.37 0 0 1-.62-.86q-.01-.02 0-.33zm-15.85 1.37c-1.46-2.21-5.69-.22-8.14.76a.47.46 69.9 0 0-.26.58l.09.26a.47.47 0 0 0 .6.29l5.18-1.77a1.6 1.59-43.7 0 1 1.07.02l1.03.4a.36.36 0 0 0 .43-.54zm-50.811.79a2.26.53-48.8 0 0-1.887 1.351 2.26.53-48.8 0 0-1.09 2.05 2.26.53-48.8 0 0 1.887-1.351 2.26.53-48.8 0 0 1.09-2.05zm59.261 1.56q.59.27 1.18.59.4.22.68.19.39-.05.7-.28a.29.28 34.5 0 0-.1-.5q-.97-.29-1.94-.72-.59-.26-1.17-.58-.41-.23-.69-.2-.39.05-.7.28a.29.28 34.5 0 0 .1.51q.97.28 1.94.71zm12.15.42a.82.79-26.1 0 0-.52 1.42q.24.19.51-.1.46-.47.29-1.07-.07-.26-.28-.25zm-12.29 1.44a.21.21 0 0 0-.11.39l4.55 2.63a.45.45 0 0 0 .54-.07l.27-.27a.41.41 0 0 0-.02-.6q-2.29-1.95-5.23-2.08zm-2.92 5.16q-1.34-1.75-3.65-2.61a.44.44 0 0 0-.57.3l-.01.04a.44.43 12.7 0 0 .34.53c.76.17 1.78.39 2.17 1.47q.4 1.13 2.61 1.62.29.06.6-.2.39-.34.24-.8a.52.51 67 0 0-.73-.3q-.04.02-.09.06a.64.63 51.7 0 1-.91-.11zm-45.79-1.63q.35-.16.12-.49-.28-.4-.82-.22a.34.32 58.8 0 0-.12.54q.35.39.82.17zm41.25 9.94q.99-1.5 1.17-2.39a2.01 1.97-48.9 0 0-.06-1l-1.24-3.81a.37.37 0 0 0-.45-.24l-.38.1a.35.35 0 0 0-.21.52q1.91 3.14.82 6.65a.2.2 0 0 0 .35.17zm-7.6.69q.89-2.31 1.68-5.22.27-.98.99-1.35a.27.27 0 0 0-.2-.5q-1.94.58-1.89 2.21c.07 2.06-1.44 3-1.16 4.8a.3.3 0 0 0 .58.06zm10.8-5.21q.02-.94-.25-1.21a.43.37 27.9 0 0-.71.17q-.06.85.4 1.27a.33.33 0 0 0 .56-.23zm9.12-.96q-.28-.27-1.04-.25a.28.28 0 0 0-.17.5q.42.33.66.35a.51.35-12.7 0 0 .55-.6zm-4.91 3.4a.7.7 0 1 0-1.4 0 .7.7 0 1 0 1.4 0zm4.27.64l-3.44.81a1.56 1.51 8.4 0 0-.96.69q-1.03 1.65-.07 2.54a.59.59 0 0 0 .97-.61q-.1-.33.01-1.17.05-.4.8-.71 1.45-.61 2.97-.93a.3.29-10.5 0 0 .23-.33v-.01a.43.42 73.1 0 0-.51-.28zm-13.654 4.414a.83.83 0 0 0-.535-1.045l-.095-.031a.83.83 0 0 0-1.045.535l-1.057 3.273a.83.83 0 0 0 .535 1.045l.095.031a.83.83 0 0 0 1.045-.535l1.057-3.273z" class="C"/><g class="B"><path d="M181.61 11.98c1.04 1.77-.26 3.21-2.2 3.06q2.25-.91 2.2-3.06zm55.24 3.76l-6.33-.57q3.41-.82 6.33.57zm-12.88.25q-.5.31-1.5.07l1.5-.07zm-41.06 1.52q-.38-.45-1.42-.5.44-.37.94-.21.45.15.48.71z"/><path d="M181.49 17.01q-.32.19-.71.17l.71-.17zm-1.75 10.31q.07-1.14.91-1.18 1.38-.08 2.39.13a1.19 1.19 0 0 0 1.4-1.39l-.88-4.62 1.95 5.74a.43.43 0 0 1-.35.56l-5.42.76zm48.3-4.9q.15.83-.03 1.06a1.17 1.17 0 0 1-1.7.15q-.54-.48-1.75-.51a.61.61 0 0 1-.52-.9q.29-.52 1.35-1.06a.58.58 0 0 1 .75.19q.57.86 1.44.74a.42.41-8.8 0 1 .46.33zm-36.76 3.81q.5-.71.5-1.28a.53.53 0 0 0-.72-.5l-1.6.61a.22.17 25.5 0 1-.09.02q-1.01 0-1.11-1.29c1.16 1.07 1.75.14 2.85-.04a.75.74-15.4 0 1 .82.46q.89 2.2-.65 2.02zm39.56-1.63q.47.52.5.74a1.08.99-65.5 0 1-1.88.79q-.26-.46-1.08-1.02a.39.39 0 0 1 .18-.71l1.38-.15a1.05 1.04 66.1 0 1 .9.35zm46.6 2.12l-2.07-.2 2.07.2zm-87.32.04q-.82.82-.62 2.5-.3-.72-.35-1.39-.04-.5.22-.78.29-.33.75-.33zm-12.18 15.93l8.06-7.21a2.1 2.1 0 0 0 .66-1.21q.4-2.3-.79-3.86-1.35-1.78-5.73-.78l2.9-1.32a1.18 1.17-43.8 0 1 .99.02l1.78.87a2.22 2.2 9.3 0 1 1.22 1.68l1.23 8.69a.72.72 0 0 1-.55.8l-9.77 2.32zm22.31-13.66q-.4 1.44-1.31 2.75.28-1.9 1.31-2.75zm54.93 20.24a.53.52 32.1 0 1-1.01.23q-1.08-2.73-1.05-6.47a2.99 2.94-55.3 0 0-.19-1.1l-2.44-6.62a2 1.86-74.9 0 0-.28-.53q-1.72-2.46-2.25-5.34a.43.43 0 0 1 .38-.51l.31-.04a.3.28 78.8 0 1 .3.21q.8 2.83 2.5 4.91a2.77 2.76 23.9 0 1 .59 1.52q.1 1.54 1.3 4.05a2.69 2.6 31.8 0 1 .27 1.07q.1 2.38 1.25 4.72a.6.58 30 0 1 .06.21l.26 3.69z"/><path d="M198.94 31.78l-.91 8.49a.8.8 0 0 1-.65.71l-12.34 2.27a.16.07-39.7 0 0-.07.02c-5.66 2.51-12.46 3.19-18.55 4.25a.57.57 0 0 1-.65-.48l-.05-.38a.47.47 0 0 1 .47-.54q2.59 0 4.56-.99a2.08 2.07 31.8 0 1 .91-.21q6.69-.01 13.12-2.64a2.03 1.98-55.2 0 1 .83-.16q5.09.06 8.39-2.45a1.52 1.48-61.3 0 1 .98-.3q.74.05 1.63-.28a.48.48 0 0 0 .21-.75q-.41-.52-.98-.52a.59.58 8.5 0 0-.54.39q-.27.84-1.06.63a.74.71-4.1 0 1-.47-.39l-4.27-9.19q2.37 4.56 6.85 7.3a1.22 1.22 0 0 0 1.81-1.39q-.46-1.58.78-3.39z"/><rect x="-.51" y="-2.63" transform="matrix(.866025 -.5 .5 .866025 203.63 32.28)" width="1.02" height="5.26" rx=".44"/><path d="M253.79 33.18q-.2.35-.53.26-.53-.14-.42-.68.12.31.95.42zm25.52.86q-.75 1.4-2.11 1.42.79-1.17 2.11-1.42zm-3.29 1.76q-.98.54-2.08.64.83-.58 2.08-.64zm-2.29.75q-.31.17-.68.16.29-.17.68-.16z"/><path d="M273.05 36.71q-.53.52-1.35.5.46-.46 1.35-.5zm-2.29.76q-1.43.87-3.09.98 1.2-.89 3.09-.98zm-52.44 10.12c-.36-3.32-3.56-5.75-.22-9.44a.32.32 0 0 1 .55.21q0 .5-1.23 2.28a1.19 1.17 52.8 0 0-.14 1.08c1.35 3.76 2.51 8.16 6.72 9.62a.46.45 16.7 0 1 .29.53l-.09.37a.36.36 0 0 1-.49.25q-3-1.29-4.25-3.77-.34-.68-.8-.77a.41.4 1.9 0 1-.34-.36zm6.27 1.65a.35.34 45.6 0 1 0 .49l-.01.02a.41.41 0 0 1-.58-.02q-3.56-3.75-4.61-8.96a.21.2-15.6 0 1 .14-.24l.29-.1a.17.17 0 0 1 .22.13q.96 5.06 4.55 8.68zm8.87-6.89q.61-1.28 1.88-2.06a.42.42 0 0 1 .58.57l-1.29 2.24a.38.38 0 0 1-.52.14l-.46-.27a.48.48 0 0 1-.19-.62z"/><ellipse cx="0" cy="0" transform="matrix(-.987688 -.156434 .156434 -.987688 197.12 43.53)" rx=".88" ry=".65"/><path d="M188.5 44.53a.21.2-34.1 0 1 .08-.39l5.16-.28a.45.44-10.3 0 1 .44.3l.12.35a.41.4-16.3 0 1-.28.52q-2.88.7-5.52-.5zm46.21-.57q.9 1.18 2.84 2.33a.84.84 0 0 1-.11 1.5q-1.31.53-2.29 1.53a1.77 1.76 21.4 0 1-1.25.54l-7.45.09a1.39 1.38 8.6 0 1-1.34-1.81l.02-.05a2.86 2.85-86 0 1 2.28-1.99q4.1-.67 6.57-2.27a.55.55 0 0 1 .73.13zm-12.7 8.78q1.18.51 2.83 2.55a.39.38 76.6 0 1-.38.62q-1.6-.37-2.93-1.72a.57.5 75.1 0 0-.18-.12l-3.48-1.4a1.18 1.16 11.3 0 1-.73-1.08q.01-2.52.46-2.74a.4.39-.7 0 1 .54.52q-.46.99-.33 2.13a.64.63 83.2 0 0 .7.56q1.05-.1 2.49.31a7.8 7.39-22.7 0 1 1.01.37zm-29.21 2.93l.3-5.3a1.26 1.26 0 0 1 1.07-1.17q1.23-.19 1.71-.05a.47.47 0 0 1 .11.86l-.37.21a1.59 1.57-9 0 0-.76 1.03q-.96 4.3-1.4 4.7a.38.38 0 0 1-.66-.28zm32.93 22.45c-4.47.58-1.22 4.21-.41 6.05l-.08 1.28-1.42 2.13q-.38-1.29-1.32-1.39-.99-.11-1.46.99a1.01.99-1.1 0 1-.49.5l-1.47.7a.55.55 0 0 0-.19.85l.17.21a.76.76 0 0 0 1.12.06q1.54-1.5 3.48-1.51-.19 1.24.51 1.83 1.32 1.13 2.24 2.65-2.33.5-1.83 1.77 5.01 12.61 9.62 25.55.55 1.54.72 2.9a.61.59 23.5 0 0 .12.29l3.81 4.66a.11.1 56.7 0 0 .11.03q.25-.05.42.05 2.8 1.81 5.61 4.21a.83.83 0 0 1-.2 1.39q-4.87 2.16-7.1 3.04-.54.21-1.14.05-1.5-.41-1.86 1.07a.45.45 0 0 1-.85.09c-2.1-4.43-5.88-9.65-7.15-14.69q-.06-.23-8.74-26.32a.85.85 0 0 0-1.03-.56l-2.58.68a1.02 1.02 0 0 0-.7 1.32q.52 1.45.5 2.35a.26.26 0 0 1-.5.1l-.36-.77a.13.13 0 0 0-.24.1l2.58 7.01a.23.22 66.6 0 1-.11.28l-.3.13a.21.21 0 0 1-.29-.11l-3.71-9.07a.38.38 0 0 0-.6-.15q-1.28 1.09-2.12 1.04a.84.84 0 0 0-.86.62q-.47 1.77.1 3.93.92 3.48 6.99 25.08.18.65 1.05 1.65a1.34 1.28-75.6 0 1 .24.43l3.18 10.76a.58.57 72.1 0 1-.35.7q-3.94 1.45-7.93 2.76-.53.17-.66-.53-1.33-.59-1.87.4a1.46 1.35-36.3 0 1-2.66-.31q-.78-6.06-.91-8.6-.25-5.03-.96-8.57-2.65-13.11-5.02-24.99a1.5 1.5 0 0 0-1.85-1.15l-5.85 1.56a1.46 1.45-13 0 0-1.06 1.68q2.38 12.4 4.72 26.92.03.21.72 1.82a1.57 1.52-55.3 0 1 .11.67l-1.04 12.97a.87.86 2.1 0 1-.87.8h-2.2a.64.64 0 0 1-.64-.7l.78-8.65a.51.51 0 0 0-.64-.53l-15.94 4.23a.49.49 0 0 1-.58-.28q-.66-1.59-1.91-1.18a.58.57 72.7 0 0-.37.72q.23.69.2.98a.66.65 1 0 1-.61.58q-3.35.22-5.22-.12-.33-.06-.61.13-.31.22-.47.37a1.04 1.03 26.8 0 1-.89.29q-2.26-.34-4.92.52a.44.44 0 0 1-.58-.45l.03-.35a.7.69 85.8 0 1 .51-.6l33.66-8.95a.52.52 0 0 0-.05-1.02q-1.12-.17-1.35-1.25-.52-2.48-.93-5.09l-3.59-23.55a2.03 1.9 47.6 0 1 .01-.71c.36-2.03-1.82-3.92-3-5.31q.72-.33 2.87 2.3a1.51 1.49 63.4 0 0 1.51.51l4.17-1.01a.88.86-4.7 0 0 .67-.77l.13-1.48a.25.25 0 0 0-.38-.24q-2.68 1.61-5.22.43a.52.51 59.9 0 1 .26-.98l2.44.22a.7.69 15.7 0 0 .68-.38q.41-.81 1-1.1.55-.27 1.38.22 1.21.72 2.37 1a.8.79 44.8 0 1 .01 1.55l-.32.08a.77.76 4.6 0 0-.53.45q-.25.57.21 1.03a.5.49-37.1 0 0 .61.08q2.77-1.58 3.16-2.65a.72.72 0 0 1 .79-.47q1.92.31 3.86.07 1.22-.14 1.93-1.42.31-.55.74-.6.41-.04.58-.33.2-.33-.3-.53-1.11-.42-.8-1.79.76-3.31 2.93-6.03a.16.15-52 0 0-.02-.21l-.4-.34a.33.33 0 0 0-.46.04q-1.19 1.45-2.19 1.83a.56.56 0 0 1-.51-.99q1.69-1.12 1.27-2.9a.68.67 73 0 1 .41-.78q.63-.24.26-1.06a.79.78 62.4 0 1 .31-1.01q.02-.01.07-.03a.3.29-30.9 0 0 .13-.51l-1.63-1.44a.99.99 0 0 0-1.14-.11q-1.55.9-2.36 1.91a1.27 1.21 13.6 0 1-.76.44l-2.1.33a.29.29 0 0 1-.34-.33v-.01a.26.26 0 0 1 .3-.24q2.68.41 3.82-1.81a1.42 1.4 87.8 0 1 .52-.57l3.16-1.94a.45.45 0 0 1 .59.67q-.03.04-.51.3a.59.59 0 0 0-.14.92q.45.45 1.35 1.08.87.59 2.08 2.15.63.81-.02 1.19a.39.38 50 0 0-.05.62q.48.41.57.88a.87.85 52.6 0 1-.06.48l-3.3 7.24a.5.5 0 0 0 .73.63q.06-.03.12-.26a.13.12-67.1 0 1 .19-.08q.8.56.9 1.21a.11.11 0 0 0 .21.03l.89-1.82a.26.25 51.9 0 1 .48.06q.2.93.83.85a.28.28 0 0 0 .12-.52q-.17-.11-.48-.1a.42.42 0 0 1-.43-.51q.72-3.4.08-4.17a.49.49 0 0 1 .06-.68q.64-.54.04-3.24a1.15 1.14 6.4 0 1 1.61-1.28q1.14.54 4.37 1.55.74.23.53.8a.45.45 0 0 1-.67.21q-.24-.16-.39-.17a.18.17 64.4 0 0-.11.32q2.13 1.56 3.9 1.99a.54.53 8.7 0 0 .66-.48q.12-1.87-1.32-4.66a.71.71 0 0 0-.74-.37q-.39.07-.65-.02-.77-.26-.54-1.02.42-1.36 1.42-.98a.33.33 0 0 0 .44-.24q.11-.53 1.01-.23a.6.6 0 0 0 .76-.37q.13-.37.93-.99a.53.53 0 0 0-.28-.95l-1.38-.12a1.92 1.9 68.9 0 1-1.13-.51l-2.86-2.77a.82.78 22.1 0 1-.25-.55q-.01-1.02-.67-1.47a.45.45 0 0 0-.7.38v.59a.22.22 0 0 1-.42.11l-1.1-1.9a1.23 1.21 83.2 0 0-.69-.55q-2.87-.91-3.04-4.62a1.6 1.51-61.7 0 0-.16-.6c-.49-1.02-1.89-2.66-3.27-2.72q-.79-.03-1.21-.76a.55.54-18.3 0 0-.55-.27q-.21.04-.4.64a.54.54 0 0 1-.96.16l-1.34-1.88a.32.32 0 0 1 .41-.46q.07.04.12.07a.58.58 0 0 0 .92-.37q.17-1.01.71-1.79.53-.75.11-.87-.42-.12-.57-.18-.35-.13-.48-.34-.45-.73.16-1.64a.64.63 35.8 0 0-.15-.87q-.37-.27-1.19-.22a.45.45 0 0 1-.47-.42q-.04-.66.16-.86a.53.53 0 0 1 .73-.01q.68.6 2.39.93a.54.5-3.8 0 1 .37.3q.13.31-.06.55-.08.1-.34.06-.35-.05-.4-.02c-1.23.85-.57 2.61.97 2.53a1.04 1.03-26.8 0 1 .74.24q1.57 1.28 1.81 2.12a.26.25-20 0 0 .35.16q.19-.08.25-.28.07-.21.04-.23-.55-.38-.93-1.26a.44.43 75.2 0 1 .35-.61q2.02-.21 3.12 1.05a.3.3 0 0 0 .49-.32q-.61-1.32-1.49-1.7a.35.35 0 0 1 .09-.66q1.13-.16 1.35.57a2.56 2.53 9.4 0 0 1.16 1.6l10.69 6.48a.26.25 10.2 0 1 .13.18q.13.59-.26.72-.47.16.12.39 3.43 1.34 4.86 3.79a.73.71 74.6 0 0 .62.36h4.24a.38.37-51.5 0 1 .08.74l-4.09.99a1.36 1.35-.7 0 0-1.01 1.03q-.07.3-.12.75a.28.28 0 0 1-.42.21q-.27-.16-.42.1a.31.29-36 0 0-.04.21l.51 3.45a.021.011-13.3 0 0 .03.01q.01 0 .02-.01a.04.01-73.2 0 0 .02-.03l.12-1.02a.36.36 0 0 1 .55-.27q.95.57 1.05 1.27a.48.48 0 0 0 .84.25l.47-.55a.51.49-66.6 0 1 .42-.18l.68.06a.4.4 0 0 1 .23.69q-1.42 1.3-1.68 1.99a.65.65 0 0 1-.58.42l-4.27.2a.1.08 52 0 1-.04-.01q-1.11-.51-1.86-.07a.23.22 29.2 0 0 .12.42q.86-.03 1.46.26zm-13.31 18.17l8.6-4.05a.52.52 0 0 0-.13-.98q-6.58-1.21-8.89 4.63a.31.31 0 0 0 .42.4zm20.096 26.711a.94.8-49.9 0 0-1.217.204.94.8-49.9 0 0 .006 1.234.94.8-49.9 0 0 1.217-.204.94.8-49.9 0 0-.006-1.234zm-22.856 8.109q1.08-.26 1.19-.45a1 .98 83.1 0 0-1.53-1.22q-.37.35-.29 1.22a.51.51 0 0 0 .63.45z"/><ellipse cx="0" cy="0" transform="matrix(.34366 -.939094 .939094 .34366 162.97 52.15)" rx="1.68" ry=".53"/><path d="M182.45 51.06q2.06 1.75 3.3 1.72a.61.61 0 0 1 .62.66q-.13 1.61 1.57 2.97a.39.38 42.1 0 1 .03.57l-.01.02a.31.3-43.1 0 1-.44-.01q-2.12-2.33-4.32-3.43a1.72 1.71 3.7 0 1-.85-.96l-.4-1.2a.31.31 0 0 1 .5-.34zm17.86 7.98q-1.22-.66-3.61-2.81a1.17 1.15 23.9 0 1-.38-.96l.32-3.55a.47.47 0 0 1 .77-.31q.76.67 1.37 1.83a.51.51 0 0 1-.49.75l-.61-.05a.44.44 0 0 0-.42.67q.6.96.59 1.39a.74.74 0 0 0 .51.72q1.33.43 2.42 1.74a.38.38 0 0 1-.47.58zm217.02-6.15l-49.45 13.42a.37.36 64.8 0 1-.4-.15q-.05-.08-.12-.22a.82.82 0 0 0-.52-.41l-4.6-1.14 48.77-12.87a2.14 2.06 43.9 0 1 1.03 0l5.29 1.37zm-269.68-1.22q-.65 1.32-3.1 1.68.36-1.13 3.1-1.68zm96.58 3.76a.49.49 0 0 1-.68.69c-1.37-1.08-3.3-1.42-2.88-3.56a.57.57 0 0 1 1-.26l2.56 3.13zm-71.41 4.01q-.91-.21-3.54-2.64c-1.22-1.12-2.62-2.06-3.16-3.87a.23.23 0 0 1 .39-.23l6.46 6.46a.17.16 73.4 0 1-.15.28zM143.68 59q.35-.85.12-1.98c1.3 2.86 5.08.33 6.97-.61a.99.95 88.8 0 0 .46-.5q.28-.69-.65-1.29a.42.42 0 0 1 .09-.75q2.4-.8 4.58-.77a.32.32 0 0 1 .12.62q-1.29.53-2.15 1.56a.37.37 0 0 0 .37.6l3.08-.75a.24.23-12.5 0 1 .28.17l.07.28a.44.43 72.3 0 1-.26.51q-6.35 2.54-13.08 2.91zm84.58 3.15a.22.22 0 0 1 .01.35l-.27.22a.05.05 0 0 1-.06 0l-14.66-8.94a.08.07 31.5 0 1-.03-.1l.14-.25a.12.12 0 0 1 .14-.05q5.03 1.86 6.01 2.56 1.92 1.39 8.72 6.21z"/></g><path d="M417.33 52.89q-.07.29-.14.58l2.46 11.34q.09 1.17.56 2 .04.5.24.93l2.33 10.2a.73.71 85.5 0 0 .64.56l3.37.27q.67.46 1.67.16.16.07.33.13 1.73.6 3.4.45 2.1.6 4.06 1.5c4.34 1.98 3.04 7.3.21 9.96-4.75 4.47-10.86 7.41-16.42 10.73-.49.3-1.2.37-1.59-.01a1.27 1.25-25.5 0 0-1.01-.35l-25.14 2.72a.48.47 85 0 0-.42.51q.11 1.97-1.88 3.34c-.82.57-1.67.09-2.81-.24a.51.51 0 0 1-.35-.64c.52-1.82-.68-2.63-2.46-2.42q-4.5.53-5.13.67-6.49 1.48-7.75 1.2a.12.12 0 0 0-.12.19l2.9 3.55a.47.47 0 0 0 .77-.06q.64-1.15 2.12-.88a.36.36 0 0 1 .21.59l-1.18 1.38a.24.24 0 0 0 .25.38l2.81-.87a1.54 1.53 61.7 0 1 1.62.49l.2.25a.73.73 0 0 1-.41 1.18q-2.53.57-3.87 1.09-.78.29-1.1.88a.36.36 0 0 0 .37.53l14.76-2.72a1.01.99-86.5 0 0 .77-.69q.79-2.66 3.66-3.58 1.55-.51 3.29 1.41 3.96 4.39 2.53 9.35-1.09 3.75-1.68 4.74a1.03 1.02 40.9 0 0 .09 1.2q.91 1.08 1.07 3.32a1.25 1.23-59.8 0 0 .13.51l1.24 2.64a.77.76 62.2 0 0 1.08.34q4.11-2.42 6.61-3.34c1.58-.58 3.5-2.48 4.93-2.24a.65.63 15.6 0 0 .71-.39q.35-.87 1.19-.59a.71.7-48.6 0 1 .08 1.31l-9.4 4.42a.41.4 39.1 0 0 .08.76q.92.22 1.04.77a.81.81 0 0 1-.25.79q-1.33 1.16-1.34 2.2a.46.46 0 0 1-.68.4q-1.03-.56-1.77-1.99a.37.37 0 0 1 .54-.48q.45.3 1.18.47a.38.38 0 0 0 .46-.45q-.11-.54-.2-.86a.77.77 0 0 0-1.12-.45l-3.65 2.11a.67.65-41.9 0 1-.71-.03q-.7-.48-.99-1.56a.5.49-24.3 0 0-.75-.28q-.75.5-.27 1.66a.38.38 0 0 1-.11.44l-3.31 2.71a.97.97 0 0 0-.34.92q.13.73-.35 1.13a.85.7-21.1 0 1-1.36-.45q.04-.4.05-.6a.5.5 0 0 0-.76-.44l-.86.53a.98.98 0 0 1-1.4-1.25q.01-.02.09-.1a.51.5 51 0 0 .07-.69c-1.99-2.6-1.52-6-2.5-8.77q-.97-2.75-.05-5.41.41-1.18 3.56-1.91a.37.37 0 0 1 .32.65l-3.5 2.86a.51.51 0 0 0 .31.91q3.31.11 6.3-1.01a.45.45 0 0 0 .13-.76l-2.23-1.88a1.17 1.15 20.3 0 1-.4-.85q-.04-1.37-.38-1.66-.97-.84-1.55-.1a.52.52 0 0 1-.44.19q-1.5-.12-3.09.68a.6.6 0 0 1-.81-.28q-.26-.54-.65-.93a.28.27-74.3 0 0-.46.26l5.95 24.61a.88.88 0 0 0 1.23.58l7.7-3.62a.35.34-24.7 0 1 .46.16l.45.96a.17.16-20.1 0 1-.11.23q-.6.15-.71 1.75a.64.64 0 0 1-.7.6q-2.01-.17-1.85.82.07.47-.25.65-.4.21-.71.21a.62.61-8.8 0 1-.57-.41c-.55-1.58-2.81-1.31-3.13.12q-.76 3.5-3.95 3.6a1.72 1.64 25.3 0 0-.9.3q-2.49 1.74-5.81 2.33a.19.19 0 0 1-.14-.35l2.55-1.72a1.5 1.47-63.2 0 1 .77-.26q3.62-.19 5.97-3.02a.46.46 0 0 0-.34-.75q-.25-.01-.4.02a.6.59 77.2 0 1-.69-.44l-3.79-15.41a.29.28-88.4 0 0-.17-.19q-.07-.03-.08-.03a.26.23-79.2 0 1-.08-.13l-1.64-8.42a.82.81-76.7 0 0-.28-.46q-.56-.44-.68-1.22a.58.58 0 0 0-.98-.33q-1.99 1.95-5.06 1.99-1.41.02-4.54 1.74a1.1 1.09 72.6 0 0-.56 1.08l.07.6a1 .99 74.5 0 1-.56 1l-5.63 2.64a.57.56 74.1 0 1-.8-.45l-.1-.92a.95.95 0 0 0-1.31-.78c-5.34 2.21-10.49 4.06-15.74 6.09-2.57 1-6.09 1.34-8.57 2.93a4.96 4.93-64.7 0 1-2.02.73q-2.62.34-5.78 2.1a4.76 4.25-64.9 0 1-.89.38l-37.5 11.89a.74.73 72.4 0 0-.48.93l.22.67a1.12 1.12 0 0 1-.18.99q-.25.35-4.63 1.94-3.78 1.38-5.03 1.34a1.01.86-49.7 0 0-.3.05l-10.1 3.54a1.84 1.74-49.4 0 1-.85.09q-1.59-.21-2.72.6a.43.42-33.7 0 1-.62-.12l-.03-.09a.69.68 73 0 1 .43-.81l3.25-1.22a.52.52 0 0 0-.17-1.01q-3.39-.05-4.79 2.57a.61.61 0 0 1-.54.33q-.49 0-.58-.9a.43.42-12.7 0 0-.57-.36q-.2.07-.48.4a.58.58 0 0 0-.03.71q.65.92-.45 1.8a.96.8-40.8 0 1-1.2.02q-.37-.38.14-1.35a.42.42 0 0 0-.47-.6q-1.43.34-9.01 2.47-2.04.57-3.13.23-1.87-.58-3.25.59a1.93 1.8 17.1 0 1-.84.41q-6.34 1.31-10.83 3.57a1.02 1.02 0 0 0 .64 1.92l.59-.11a.4.4 0 0 1 .47.44q-.12.86-.6 1.39a1.07 1.07 0 0 0-.24 1.04l2.44 7.95a.51.49 86.7 0 0 .37.34q.86.2.65 1.41a.5.5 0 0 1-.65.39q-.23-.08-.47.1-.45.32.03.97.85 1.16 2.26 1.07a.44.44 0 0 1 .35.75q-4.33 4.61-4.06 11.59.01.05.02.1l1.49 4.66a.34.34 0 0 0 .53.16q.79-.6 1.19-.34.56.36.34.75-.18.3-.77.5a.96.96 0 0 0-.65.75l-.32 1.83a1.92 1.9-49.4 0 0 .07.96q.81 2.38 2.39 4.26a1.78 1.67 44.4 0 0 2.69.06q1.08-1.4 3.21-.13 1.07.64 1.53 3.67a.29.29 0 0 1-.54.19l-1.88-3.27a.49.48 55.9 0 0-.71-.14q-1.82 1.41-.23 2.82 2.38 2.11 2.77 5.74a.76.76 0 0 0 1.38.35q.8-1.15 2.34-1.63a.22.22 0 0 1 .27.29l-1.54 4.01a.27.27 0 0 1-.38.14q-.25-.13-.26-.13a.47.47 0 0 0-.52.64q1.58 3.99 1.36 6.07a.34.33-23.1 0 0 .6.24q.99-1.27 1.72-.89a.26.25-79.2 0 1 .11.17l.13 1.28a.52.52 0 0 1-.52.58q-.74-.01-1.49.67c-1.17 1.05-3.4.62-4.33-.35a.33.33 0 0 0-.47 0q-.04.03-.06.35a.5.49 88.6 0 1-.43.46q-2.42.3-2.99-1.67-2.08-7.27-2.22-7.71a.62.61 73.2 0 0-.77-.42q-2.17.67-3.42.24a1.02 1.01-88.9 0 1-.64-.67l-2.32-7.76a1.43 1.43 0 0 1 .14-1.16q.04-.05.17-.19a.44.44 0 0 0-.17-.7l-1.31-.5a.91.85 84.2 0 1-.45-.39l-2.14-3.81a1.12 1.12 0 0 1-.13-.32q-.5-2.27-1.93-4.49a1.62 1.58 32.1 0 1-.25-1.04l.72-8.16a.35.33 27.2 0 0-.1-.28q-.97-.99-.2-1.42a.8.79-19 0 0 .4-.81q-.11-.77.09-1.29.16-.44 1.34-.49.99-.05 1.33-.45a.42.42 0 0 0 .08-.38l-4.59-16.6a1.14 1.12-32.5 0 1 .24-1.04q.03-.02.47-.26a.55.55 0 0 0-.4-1.02l-13.06 3.16a2.13 2.09-77.3 0 0-1.18.76q-1.49 1.94-4.16 2.04c-6.97.25-11.59 1.76-22.54 3.88a3.75.64 2.8 0 1-.98.12q-1.33.09-4.51.91-2.66.68-10.15 2.61c-6.91 1.77-13.92 4.63-20.87 4.91-1.37.05-1.75 1.05-3.07.9q-.79-.09-2.22.19-18.79 3.69-23.82 4.48c-2.56.41-4.83 1.67-7.25 1.94q-1.82.21-5.47 1.28-2.76.81-5.73 1.23a1.79.33-31.6 0 0-.93.36q-.47.23-2.7.73-8.14 1.79-9.37 2.11a77.18 51.06-11 0 1-10.69 2.2q-16.07 2.56-20.62 3.41-9.53 1.76-13.57 1.87-1.26.03-10.2.32-.08 0-10.21.63-5.59.35-10.34.02-5.76-.4-11.71-2.44L.71 201.3a.97.97 0 0 1 .06-.87c3.86-6.53 10.73-9.46 17.32-13.04q.35-.87-.3-1.18l-1.61-5.66q.03-.8-.41-1.32l-2.93-10.18a1.08 1.07-33.1 0 1 .21-.99l2.6-3.05a1.07 1.01-75.6 0 1 .54-.34l28.42-7.56a.71.71 0 0 1 .86.49l4.13 14.41q-.34 2.15.68 1.35c2.39-.56 6-.98 8.03-2.29q.63-.41 1.43-.14.42.15 1.45-.09c3.52-.79 5.98-1.04 7.25-1.95q.61-.43 1.52-.2a.88.87 19.2 0 0 1-.48q.44-.96.46-2 .08-.52-.14-.91c-1.59-3.47-2.68-7 .05-10.3q.58-.7-.13-2.29.19-.62-.33-1.06-.73-1.48-2.59-2.34a1.11 1.1-77.3 0 1-.64-1.02q.01-.83.65-1.94a1.57 1.55 7 0 1 .95-.73l8.77-2.33a.97.97 0 0 1 .96 1.6q-2.71 2.92-.21 6.56l-.98.51a1.29 1.26 82.4 0 0-.66.89q-.3 1.6-1.87 2.37a.47.46-28.1 0 0-.2.65l.14.25a.29.28-39.8 0 0 .46.04l3.75-4.43q2.62-.49 4.15-2.32a.8.8 0 0 1 .96-.21q.18.08.54.57a1.03 1.02-13.4 0 0 .63.38q3.57.55 4.55.34 1.79-.38 8.98-1.76a3.52 3.5 50.8 0 1 2.02.21q2.32.94 4.33 3.5a.67.67 0 0 0 1.09-.05q.91-1.39 2.27-1.14a1.43 1.39-45.9 0 0 .62-.02q5.71-1.52 8.29-3.32a1.07 1.04 34.6 0 1 .88-.15q1.05.29 1.7-.61a1.34 1.31 16.3 0 1 1.01-.54q3.91-.13 7.98-2.63a1.56 1.55 29.6 0 1 .85-.23q1.23.04 1.68-.08 3.1-.84 18.5-5.67 1.51-.47 1.97-.8c.91-.66 2.13-.34 3.43-.72q4.49-1.28 17.98-5.32 1.57-.47 2.27-1.05c.74-.63 2.25-.25 3.49-.63q5.4-1.67 11.41-3.32.41 2.61.93 5.09.23 1.08 1.35 1.25a.52.52 0 0 1 .05 1.02l-33.66 8.95a.7.69 85.8 0 0-.51.6l-.03.35a.44.44 0 0 0 .58.45q2.66-.86 4.92-.52a1.04 1.03 26.8 0 0 .89-.29q.16-.15.47-.37.28-.19.61-.13 1.87.34 5.22.12a.66.65 1 0 0 .61-.58q.03-.29-.2-.98a.58.57 72.7 0 1 .37-.72q1.25-.41 1.91 1.18a.49.49 0 0 0 .58.28l15.94-4.23a.51.51 0 0 1 .64.53l-.78 8.65a.64.64 0 0 0 .64.7h2.2a.87.86 2.1 0 0 .87-.8l1.04-12.97a1.57 1.52-55.3 0 0-.11-.67q-.69-1.61-.72-1.82-2.34-14.52-4.72-26.92a1.46 1.45-13 0 1 1.06-1.68l5.85-1.56a1.5 1.5 0 0 1 1.85 1.15q2.37 11.88 5.02 24.99.71 3.54.96 8.57.13 2.54.91 8.6a1.46 1.35-36.3 0 0 2.66.31q.54-.99 1.87-.4.13.7.66.53 3.99-1.31 7.93-2.76a.58.57 72.1 0 0 .35-.7l-3.18-10.76a1.34 1.28-75.6 0 0-.24-.43q-.87-1-1.05-1.65-6.07-21.6-6.99-25.08-.57-2.16-.1-3.93a.84.84 0 0 1 .86-.62q.84.05 2.12-1.04a.38.38 0 0 1 .6.15l3.71 9.07a.21.21 0 0 0 .29.11l.3-.13a.23.22 66.6 0 0 .11-.28l-2.58-7.01a.13.13 0 0 1 .24-.1l.36.77a.26.26 0 0 0 .5-.1q.02-.9-.5-2.35a1.02 1.02 0 0 1 .7-1.32l2.58-.68a.85.85 0 0 1 1.03.56q8.68 26.09 8.74 26.32c1.27 5.04 5.05 10.26 7.15 14.69a.45.45 0 0 0 .85-.09q.36-1.48 1.86-1.07.6.16 1.14-.05 2.23-.88 7.1-3.04a.83.83 0 0 0 .2-1.39q-2.81-2.4-5.61-4.21-.17-.1-.42-.05a.11.1 56.7 0 1-.11-.03l-3.81-4.66a.61.59 23.5 0 1-.12-.29q-.17-1.36-.72-2.9-4.61-12.94-9.62-25.55-.5-1.27 1.83-1.77l8.5 20.8a1.3 1.29 72.2 0 0 1.49.77l4.35-1.02q.5.15.79-.29l20.33-5.62 2.07 1.54a.77.75 53.9 0 0 .69.12l5.92-1.81a1.66 1.63 16.5 0 0 .51-.27l1.11-.92a.51.5 66.7 0 1 .82.33q.03.23.08.33a.52.52 0 0 0 .79.18q1.4-1.12 1.11-2.94l56.74-12.17c16.96-3.09 25.24-4.96 33.65-5.81a.41.41 0 0 0 .35-.5q-2.28-9.24-4.64-19.44-.2-.82 1.17-1.36l4.6 1.14a.82.82 0 0 1 .52.41q.07.14.12.22a.37.36 64.8 0 0 .4.15l49.45-13.42zm-44.71 41.1q.73.06.69.47a.97.97 0 0 1-1.89.22q-.01-.04.32-.42a.16.16 0 0 0-.08-.26l-.29-.07a.38.37 6.8 0 0-.47.36q-.01.37-.01.39a.79.79 0 0 1-1.57-.06q-.21-2-1.69-1.75a.6.58 69.6 0 1-.61-.29q-.27-.46-.43-.5a.39.39 0 0 0-.46.55q.27.53.24 1.49a.62.61 0 0 0 .64.63q1.4-.04 1.14.95a.54.54 0 0 0 .58.67l1.05-.11a.69.68 26.9 0 1 .42 1.27q-1.61.93-2.26 2.47a.43.43 0 0 0 .73.45l2.6-3.07a.97.96-72.6 0 1 .63-.33l1.43-.16a.71.7 30.6 0 1 .35 1.35q-2.13.89-2.1 3.56a.73.73 0 0 0 .63.72q.92.14 1.98-.42a2.05 1.96-60.3 0 1 .67-.2l7.23-.88a1.2 1.17 52.5 0 1 .62.09q.51.2.52.2a1.55 1.35 83.6 0 0 1.28-1.85q-.14-.72-.81-.54a.36.36 0 0 1-.45-.39q.08-.57-.87-2.89-.26-.64-.07-.93a.51.5-49.2 0 0-.04-.62q-.81-.93-1.23-3.68a.03.02 31.7 0 0-.01-.02l-.54-.2a.25.25 0 0 0-.34.28l1.42 7.75a.67.66 79.6 0 1-.53.78l-1.12.2a.55.55 0 0 1-.65-.48l-.05-.5a.47.47 0 0 0-.73-.34q-1.46.98-2.46.2a1.06 1.03-79.1 0 1-.38-.58l-1.13-4.71a.32.31 62 0 0-.51-.16q-.01.02.09.79a.17.17 0 0 1-.28.15l-.45-.38a.46.46 0 0 0-.65.05l-.27.33a.26.25-67.4 0 0 .17.42zm14.368 1.864a1.57.51-141.1 0 0 .901 1.383 1.57.51-141.1 0 0 1.542.589 1.57.51-141.1 0 0-.901-1.383 1.57.51-141.1 0 0-1.542-.589zm-45.608 6.016l-4.26.12a.14.14 0 0 0-.12.21l.53.9a.16.15 72.3 0 0 .15.08q1.12-.19 2.63.1a.32.31 30 0 1 .15.55q-1.05.9-1.68.94-5.59.35-9.52 2.93a2.9 2.79 22.6 0 1-1.1.43q-.92.16-2.19.64-8.51 3.2-16.91 4.58a.3.29 50.4 0 0-.05.57l6.03 2.32a1.45 1.41 48.3 0 0 .81.06l5.86-1.31a.73.7 1.9 0 0 .54-.49q.25-.82.53-1.1a.57.57 0 0 1 .89.09l.43.65a.64.64 0 0 0 .94.15l.29-.23a.48.47 37.4 0 1 .48-.06q.21.1 16.42-3.44c2.35-.52 4.48-1.33 4.93-3.98a.51.5-2.3 0 0-.62-.57l-6.63 1.61a1.4.9-39 0 1-.27.03q-4.23.05-8.72 1.74a.37.36 51.5 0 1-.34-.04l-.73-.47a.46.46 0 0 1 .13-.83l19.35-5.14a.43.42 42.3 0 0-.04-.83l-5.98-1.04a.41.35 32.4 0 0-.27.04l-1.07.62a1.26 1.21 27.7 0 1-.59.17zm-29.15 7.17q.24-.03.96-.57a.33.33 0 0 0-.24-.59q-.5.07-1.01.49a.38.38 0 0 0 .29.67zm81.48 2.07q-.72.9-.74.93a.28.28 0 0 0 .3.42q.86-.19 1.26-.68.4-.49.4-1.37a.28.28 0 0 0-.47-.21q-.03.02-.75.91zm4.706 1.752a3.28 1.33-94.8 0 0-1.051 3.38 3.28 1.33-94.8 0 0 1.6 3.157 3.28 1.33-94.8 0 0 1.051-3.38 3.28 1.33-94.8 0 0-1.6-3.157zm-6.107 1.512a3.5.86-14.5 0 0-3.604.044 3.5.86-14.5 0 0-3.173 1.709 3.5.86-14.5 0 0 3.604-.044 3.5.86-14.5 0 0 3.173-1.709zm-133.724.682a.86.51-27.3 0 0-.998-.059.86.51-27.3 0 0-.53.848.86.51-27.3 0 0 .998.059.86.51-27.3 0 0 .53-.848zm-11.454 6.784l5.28-3.58q.01 0 .03 0 1.42-.05 2.66-1.27a.59.58 7.5 0 0-.71-.92l-1.05.6a1.05.9 15.8 0 1-.24.11l-14.33 3.88a.55.55 0 0 0-.21.95l1.69 1.43a.92.9-37.8 0 0 1.01.12q.53-.28.81-.73a.48.48 0 0 1 .74-.09q.5.5 1.4.31a.5.49-16.4 0 0 .37-.66q-.18-.48-.19-1.07a.81.81 0 0 1 1.51-.41l.7 1.21a.37.37 0 0 0 .53.12zm105.72-2.94h1.03a.35.35 0 0 0 .31-.52l-.91-1.57a.36.36 0 0 0-.67.18v1.67a.24.24 0 0 0 .24.24zm-108.9 28.2l9.98-2.39a.07.07 0 0 0 .05-.09l-.01-.02a4.75 1.77-13.5 0 0-5.03-.61l-.87.21a4.75 1.77-13.5 0 0-4.21 2.83v.02a.07.07 0 0 0 .09.05zm-90.26-3.37q-.59.12-.95.35a.3.3 0 0 0 .12.55q.71.11 1.12-.44a.29.29 0 0 0-.29-.46zm79.95 8.06l6.66-1.77a.37.37 0 0 0 .25-.49q-.55-1.45.49-2.99a1.12 1.12 0 0 0-1.26-1.7c-1.8.55-6.05.54-6.86 2.62q-.13.32.36.75a.87.86-66.9 0 1 .29.73l-.23 2.6a.24.24 0 0 0 .3.25zm-13.33-2.36a.19.19 0 0 0-.25-.16l-9.46 2.9a.45.44-18.4 0 0-.29.57l1.42 4.15a.1.1 0 0 0 .13.07l8.84-2.14a.2.2 0 0 0 .16-.23l-.55-5.16zm17.69 9.84q-1.69-.35-4.24.84a2.47 2.25 25.9 0 1-.68.2l-37.45 5.3a.68.67 9.6 0 0-.5.35q-.07.12-.31.74-.32.82-.9.86-.47.04-1.18-.54a.47.46-63.5 0 0-.74.25q-.27 1.04-.86 1.15a.6.6 0 0 1-.71-.53q-.03-.31-.17-.61a.53.53 0 0 0-.89-.11q-.52.6-2.3.58a1.72 1.63 30.5 0 0-.82.19l-8.07 4.28a.16.16 0 0 0 .11.29l6.79-1.8a.34.32-30.4 0 1 .31.07q.5.46 1.62.16.01 0 8.87-3.41a2.48 1.85-53.3 0 1 .4-.12l22.62-4.13q.04 0 .08 0 1.56.04 3.16-.68a1.34 1.25-61 0 1 .31-.1l15.53-2.36a.44.44 0 0 0 .02-.87zm-57.64 4.35l5.8-2.59a.24.24 0 0 0 .12-.32l-.35-.78a3.27.37-24.1 0 0-3.13 1l-.28.12a3.27.37-24.1 0 0-2.83 1.68l.35.77a.24.24 0 0 0 .32.12zm7.358-3.73a1.2.94-57.3 0 0-1.439.502 1.2.94-57.3 0 0 .143 1.518 1.2.94-57.3 0 0 1.439-.502 1.2.94-57.3 0 0-.143-1.518zM94.77 171.43l.04-.44a.29.28-10.2 0 0-.41-.28q-2.1 1-2.47.94a.3.29-14.6 0 0-.28.47q.21.28-.04 1.59a1.83 1.75 38.8 0 0 .14 1.07q.54 1.18.35 3.11a.75.74-4.5 0 1-.56.65q-2.42.6-4.79 2.23a.42.41 23.4 0 0 .3.75q8.31-1.27 16-4.26.44-.17 1.58-.12a.81.8-53.4 0 0 .33-.05l13.28-4.3a1.14 1.13 83.7 0 0 .77-.97l.04-.42a.83.82-82.1 0 1 .97-.74q.67.13 1.04.57a.59.59 0 0 0 .64.2l5.4-1.66a1.19 1.18-17.1 0 0 .79-1.48l-2.1-6.82a.54.54 0 0 0-.62-.38q-4.35.8-6.8 3.24a.5.5 0 0 1-.83-.21l-.27-.89a.51.51 0 0 0-.64-.34l-6.92 2.12a1.12 1.12 0 0 0-.68 1.54q.85 1.8-.59 3.18-3.04 2.92-7.06 2.57a.55.54-55.6 0 1-.19-1.03q.86-.43 1.26-1.73a.39.38.8 0 0-.47-.48q-.98.26-1.28 1.46a.87.85 85.2 0 1-.49.59q-2.4 1.09-5.17.66a.32.31-84.2 0 1-.27-.34zm137.61-2.75q.47.21.75.16a.18.18 0 0 1 .2.26l-.67 1.37a.53.52 4.5 0 0 .63.73q1.44-.44 2.17-1.88a.63.59-84.8 0 0-.7-.89q-.81.28-1.57-.36-.08-.06-.36-.12-.07-.02-.43.11a.34.33-43.3 0 0-.02.62zm-2.56 1.55a.49.49 0 0 0 .75.6q.67-.59.8-1.38a.29.29 0 0 0-.48-.26q-.99.89-1.07 1.04zm3.695 10.867a1.18.65-53.9 0 0-1.22.57 1.18.65-53.9 0 0-.17 1.336 1.18.65-53.9 0 0 1.221-.57 1.18.65-53.9 0 0 .17-1.336zm-98.361.285a2.05.46-21.7 0 0-2.075.331 2.05.46-21.7 0 0-1.735 1.185 2.05.46-21.7 0 0 2.075-.331 2.05.46-21.7 0 0 1.735-1.185zM79.17 197.66q1.94-.23 6.14-2.36a.26.26 0 0 1 .36.12l.16.34a.83.83 0 0 0 .92.46q16.01-3.24 27.77-4.82c.99-.13 1.91.29 2.86-.23q5.09-2.77 12.56-7.36a.74.74 0 0 0-.53-1.36l-28.28 5.2a3.32 3.12 23.2 0 0-.99.36q-4.34 2.42-7.52 2.71a1.49 1.4-58.2 0 0-.52.14l-13.11 6.17a.33.33 0 0 0 .18.63zm-25.43-10.22q.66.02.87-2.11a.4.37 35.2 0 0-.06-.25q-.22-.39-.7-.41-.47-.02-.73.35a.4.37-30.4 0 0-.08.25q.03 2.14.7 2.17zm179.77 3.79q1.51-.08 2.04-2.63a.6.59 17.2 0 0-.36-.67q-1.77-.75-2.68 1.39a1.39 1.15-77.9 0 0 1 1.91zm-144.93 6.52a.21.21 0 0 0-.42 0 .21.21 0 1 0 .42 0zm144.04 6.85q.13.48 2.81-.04.4-.08.56-.29.2-.24.1-.6-.1-.36-.39-.47-.24-.1-.62.03-2.59.89-2.46 1.37zm4.22 6.52q.87.34 3.4.26a.37.37 0 0 0 .28-.6q-1.44-1.78-3.53-1.36a.89.89 0 0 0-.15 1.7z" class="C"/><g class="B"><path d="M144.55 53.35l-.9 3.17q-.78-1.65.9-3.17zm93.21 4.78a.33.33 0 0 1-.21.61q-2.44-.25-4.75-1.42a1.72 1.69 56 0 0-.93-.19q-2.52.18-5.22-1.47a1.22 1.17 1.7 0 1-.41-.42l-.73-1.26a.42.41 82.1 0 1 .46-.61l6.68 1.63a1.69 1.44 63.5 0 1 .33.14l4.78 2.99zm181.89 6.68l-2.46-11.34 2.46 11.34z"/><ellipse cx="0" cy="0" transform="matrix(-.159881 -.987136 .987136 -.159881 202.25 55.12)" rx="1.03" ry=".62"/><path d="M166.46 60.15a.22.22 0 0 1-.3-.08l-.08-.14a5.7.65 59.7 0 1-2.31-5.25l.01-.01a5.7.65 59.7 0 1 3.44 4.59l.08.14a.22.22 0 0 1-.08.3l-.76.45zm18.71-1.6a.39.39 0 0 0-.2.71l4.46 3.09a1.16 1.13-25.2 0 0 .58.2l7.92.57a2 1.97 31.7 0 0 1.17-.27q.31-.19 3.19-.83a.49.49 0 0 1 .33.91q-1.55.78-7.35 1.5-3.36.42-5.93-.64a1.7 1.65 75.6 0 1-.44-.27l-4.85-3.94a1.25 1.22 22.6 0 1-.46-1.07l.05-.5a.64.64 0 0 0-.84-.66l-1.33.46a1.54 1.32-49.5 0 1-.44.07q-1.94-.01-3.82-1.59a.33.33 0 0 1 .17-.58q2.39-.34 3.97.25a1.01 1-59.4 0 0 1.12-.29l.36-.43a.67.67 0 0 1 1.07.07q1.02 1.56 1.83 2.18a.53.53 0 0 1 .15.66q-.19.37-.71.4zm71.87-.82l.02-2.04q.23 1.03-.02 2.04zm-59.92.5a.37.37 0 0 1 .52.47q-.93 2.3-3.92 1.27a.89.78-11.9 0 1-.25-.14l-3.91-3.25a.26.25-38.1 0 1 .06-.43l.31-.14a.16.15-40.7 0 1 .17.01q2.39 1.62 5.14 1.62a1.01 1 72.4 0 1 .82.43q.37.53 1.06.16zm37.39 3.88a.27.27 0 0 1-.12.52h-1.93a2.81 2.8-28.2 0 1-1.54-.46l-8.05-5.28a.05.04 27.1 0 1-.02-.05l.11-.23a.13.13 0 0 1 .18-.06l11.37 5.56z"/><ellipse cx="0" cy="0" transform="matrix(-.715693 -.698415 .698415 -.715693 189.67 58.81)" rx="1.78" ry=".41"/><path d="M246.15 58.99q-.68.43-1.91-.29a.58.58 0 0 1 .4-1.07q.07.02 1.48.72a.37.36-48.4 0 1 .03.64zm-60.6 5.42a.24.24 0 0 0-.05-.43l-4.79-1.49a1.29 1.28 78.2 0 1-.59-.39l-1.17-1.43a.88.79 79.9 0 0-.31-.24q-1.8-.85-2.89-2.28a.33.33 0 0 1 .39-.5q2.09.89 3.4 2.34a2.25 2.21 78.2 0 0 .94.63c2.52.9 4.66 1.59 7.17 3.54a.59.59 0 0 1 .05.88q-.11.1-1.24.11a.82.81 25.9 0 0-.5.17l-2.93 2.2a1.36 1.34-58 0 1-1.04.25q-1.88-.31-2.37-.11-2.25.95-3.72 1.44a.35.35 0 0 1-.43-.2l-.01-.02a.38.37-21.5 0 1 .21-.47c1.39-.55 2.11-2.04 3.86-1.38a2.22 2.21-51.3 0 0 1.72-.19l4.3-2.43z"/><ellipse cx="0" cy="0" transform="matrix(.528438 -.848972 .848972 .528438 252.86 59.39)" rx="1.92" ry=".64"/><path d="M234.33 59.85q.41.16 2.13.3a1.16 1.07 21.2 0 1 .87 1.78q-.36.43-.78.07-.98-.85-2.3-1.55-.3-.16-.11-.52a.17.16-65.1 0 1 .19-.08zm-25.54 4.04q-.16.17-3.08-1.76a.68.61 7.4 0 1-.23-.28q-.24-.51.14-.92.37-.4.9-.2a.68.61 78.4 0 1 .29.21q2.14 2.77 1.98 2.95z"/><rect x="-.51" y="-2.55" transform="matrix(.942057 -.335452 .335452 .942057 166.92 63.37)" width="1.02" height="5.1" rx=".49"/><ellipse cx="0" cy="0" transform="matrix(.870356 -.492424 .492424 .870356 142.27 62)" rx="1.63" ry=".49"/><path d="M176.69 62.7q.01-.03-.04-.49a.55.54 87.1 0 1 .54-.6q.94 0 1.17.38a1.95 1.81-2.4 0 1-2.53 2.55q-.99-.43-2.43-1.94a.44.44 0 0 1 .53-.69l2 1.09a.54.53-66.1 0 0 .76-.3z"/><ellipse cx="0" cy="0" transform="matrix(.981627 -.190809 .190809 .981627 203.9 64.62)" rx=".96" ry=".45"/><ellipse cx="0" cy="0" transform="matrix(.904827 -.425779 .425779 .904827 180.69 65.19)" rx="1.73" ry=".93"/><path d="M420.21 66.81q-.47-.83-.56-2 .69.73.56 2zm-246.19-.85q-1.08.24-1.8.03a.55.54 46.2 0 1 .02-1.05q1.39-.35 1.78 1.02z"/><ellipse cx="0" cy="0" transform="matrix(.901833 -.432086 .432086 .901833 201.53 65.63)" rx=".86" ry=".55"/><path d="M208.91 65.74q-.01.31 0 .33a1.37 1.37 0 0 0 .62.86q1.28.77 2.2 2.29a.48.48 0 0 1-.71.63q-.97-.73-2.52-2.48-.31-.34-.36-.85-.06-.6.06-.92a.37.37 0 0 1 .71.14zm-34.89.22q.86-.04 1.58-.26a.52.52 0 0 1 .5.88c-.7.62-1.77.33-2.08-.62zm18.61 1.69l-1.03-.4a1.6 1.59-43.7 0 0-1.07-.02L185.35 69a.47.47 0 0 1-.6-.29l-.09-.26a.47.46 69.9 0 1 .26-.58c2.45-.98 6.68-2.97 8.14-.76a.36.36 0 0 1-.43.54zm227.82.09q-.2-.43-.24-.93.28-.08.24.93z"/><ellipse cx="0" cy="0" transform="matrix(.658689 -.752415 .752415 .658689 140.76 69.6)" rx="2.26" ry=".53"/><path d="M201.51 69.46q-.97-.43-1.94-.71a.29.28 34.5 0 1-.1-.51q.31-.23.7-.28.28-.03.69.2.58.32 1.17.58.97.43 1.94.72a.29.28 34.5 0 1 .1.5q-.31.23-.7.28-.28.03-.68-.19-.59-.32-1.18-.59zm-20.86 2q-.4-1.35-1.86-.93.73-.69 1.47-.42a.53.53 0 0 1 .35.47l.04.88zm33.01-1.58q.21-.01.28.25.17.6-.29 1.07-.27.29-.51.1a.82.79-26.1 0 1 .52-1.42zm-29.74 4.61q-.46-2.62-2.41-2.29.76-.98 1.62-1.06a.73.72-10.8 0 1 .76.51q.14.44.38.73a.63.63 0 0 1 0 .82q-.45.52-.35 1.29zm-34.46-.66q-.87-.66-2.53-.35 3.14-2.13 7.13-2.37a.27.27 0 0 1 .29.27v.35a.29.29 0 0 1-.3.29q-2.89-.12-4.59 1.81zm51.91-2.51q2.94.13 5.23 2.08a.41.41 0 0 1 .02.6l-.27.27a.45.45 0 0 1-.54.07l-4.55-2.63a.21.21 0 0 1 .11-.39zm-2.01 5.27q.05-.04.09-.06a.52.51 67 0 1 .73.3q.15.46-.24.8-.31.26-.6.2-2.21-.49-2.61-1.62c-.39-1.08-1.41-1.3-2.17-1.47a.44.43 12.7 0 1-.34-.53l.01-.04a.44.44 0 0 1 .57-.3q2.31.86 3.65 2.61a.64.63 51.7 0 0 .91.11zm-46.7-1.74q-.47.22-.82-.17a.34.32 58.8 0 1 .12-.54q.54-.18.82.22.23.33-.12.49zm13.86-.47q-.34-.08-.74.08.42-.27.74-.08zm17.14 3.59q-.26-1.47.42-3.17.28 1.71-.42 3.17zm-26.17-1.94q-.52.26-1.21.18.54-.29 1.21-.18zm-5.71 1.04q-.51.25-1.06-.08l1.06.08zm42.13 7.72a.2.2 0 0 1-.35-.17q1.09-3.51-.82-6.65a.35.35 0 0 1 .21-.52l.38-.1a.37.37 0 0 1 .45.24l1.24 3.81a2.01 1.97-48.9 0 1 .06 1q-.18.89-1.17 2.39zm-13.36-4.02q-.04-.48.19-.71.18-.18.7-.12 2.02.24 2.37-1.4 1.28 1.41-.38 2.05c-.92.35-1.84.06-2.88.18zm5.18 4.65c-.28-1.8 1.23-2.74 1.16-4.8q-.05-1.63 1.89-2.21a.27.27 0 0 1 .2.5q-.72.37-.99 1.35-.79 2.91-1.68 5.22a.3.3 0 0 1-.58-.06zm242.73-6.49q-1 .3-1.67-.16l1.67.16zM196.55 80.5q-.46-.42-.4-1.27a.43.37 27.9 0 1 .71-.17q.27.27.25 1.21a.33.33 0 0 1-.56.23zm9.68-1.19a.51.35-12.7 0 1-.55.6q-.24-.02-.66-.35a.28.28 0 0 1 .17-.5q.76-.02 1.04.25zm225.96.2q-1.67.15-3.4-.45 1.81-.09 3.4.45z"/><path d="M464.47 197.88q-1.86 1.85-2.88 4.91a3.7 3.52-16.9 0 1-.68 1.2l-7.48 8.8a.68.61-74.7 0 1-.34.22l-1.26.33a.66.63 1.4 0 0-.44.4q-.27.75.62 1.1a1.08 1.08 0 0 1 .69.88q.07.58.09.61a.41.41 0 0 0 .71-.4q-1.28-2.89 2.08-3.85a.63.62 73.5 0 1 .77.42q.39 1.27-.93 2.71a.83.79-64.3 0 0 .44 1.37q1.34.16 1.41-.99a.87.86-11.1 0 1 .5-.73q.15-.06.62-.47.18-.16 1.64-2.28 1.91-2.77 3.53-4.79a.44.42 58.9 0 0 .08-.37q-.02-.11-.02-.3a1.08 1.06-27.7 0 1 .2-.62l1.95-2.61 8.2 35.01-2.49 6.35q-.02.04-.04.08l-3.18 5.06a4.6 4.35 84 0 1-.55.72l-5.88 6.27a.47.47 0 0 0-.02.62l.26.31a.55.55 0 0 0 .85.01q3-3.56 6.15-7.03 2.83-3.12 5.47-10.15l36.39 154.38q-1.96 5.2-2.82 8.7-.08.35.35.44a.44.44 0 0 1 .34.52q-.49 2.12-1.19 3.7-2.32 5.23-6.53 10.67-6.57 8.51-14.36 15.19a.31.31 0 0 1-.5-.3l.35-1.42a.36.35 77.2 0 0-.57-.36q-2.02 1.7-1.94 3.59a1.15 1.15 0 0 1-.42.93l-7.91 6.48a.52.51 81.8 0 1-.8-.6q.11-.25.36-.63a.4.4 0 0 0-.51-.58q-2.11 1.02-2.85 3.03a.36.36 0 0 0 .49.45l1.11-.53a.25.25 0 0 1 .34.12l.14.3a.08.08 0 0 1-.03.1l-2.75 1.58a.27.27 0 0 1-.38-.12q-.16-.36-.92-.49a.61.6-2.9 0 0-.69.75q.09.29.24.37a.67.67 0 0 1 .04 1.16l-8.58 5.23a.14.14 0 0 1-.21-.11q0-.12-.05-.28a.45.45 0 0 0-.58-.32q-1.32.45-2.12 1.25a.42.42 0 0 0 .06.63q.01.01.31.02a.39.39 0 0 1 .19.73l-24.36 14.06a.48.47-5.2 0 1-.69-.57q.15-.41.12-.51a.6.59-17.7 0 0-.69-.35q-1.6.38-2.07 1.98a.19.19 0 0 0 .13.24q.25.07.27.08a.29.29 0 0 1-.03.52l-5.34 2.3a1.44.79-47.4 0 0-.16.09q-3.73 2.63-8.02 3.86a5.54 5.38 20.8 0 0-1.23.53q-3.43 2.07-6.22 2.84a2.74 2.72-72.7 0 0-1.04.55q-.92.77-2.89 1.47-8.89 3.13-14.89 6.07-1.43.7-5.54 1.86a.9.86-78.4 0 0-.46.32q-.27.37-3.4 1.48-2.84 1.01-5.53 2.26a.63.63 0 0 0-.26.93q.23.33.73.33-57.59 21.2-118 32.14a.41.41 0 0 0-.34.48l3.29 17.91a.71.64 55 0 1-.05.41c-.3.64-.7 1.39-.61 2.07q.46 3.59-.79 7.19a1.91 1.88 44.6 0 0 .02 1.28q1.19 3.26-1.63 6.14-2.28 2.32-3.88 3.22a.91.88 44.8 0 1-.89-.01l-4.55-2.63a2.12 2.12 0 0 1-1.06-1.95q.23-4.34-1.72-9.27a1.02 1-81.4 0 0-.26-.36l-1.78-1.51a1.26 1.25 13 0 1-.41-.65l-4.98-18.75a.6.59 78.2 0 0-.65-.43q-42.06 5.48-79.67 3.39-9.54-.53-21.2-2.5a2.9 2.89-48.8 0 0-1.32.09l-1.45.44a4.01 3.95-50.9 0 1-1.55.17l-15.01-1.35a1.5 1.5 0 0 1-1.32-1.11l-1.04-3.9a1.47 1.43-84.7 0 0-.75-.93c-5.86-3-16.18-9.04-18.52-15.74-.62-1.78-1.83-2.92-1.72-5.01a1.45 1.27 41.3 0 0-.06-.46L56.86 379.45a.54.49 42.1 0 1-.02-.2l.04-.89a1 1 0 0 0-.5-.9l-2.67-1.54a.87.87 0 0 1-.34-1.14l1.75-3.59a1.21 1.21 0 0 0 .07-.91L2.29 205.01q5.95 2.04 11.71 2.44 4.75.33 10.34-.02 10.13-.63 10.21-.63 8.94-.29 10.2-.32 4.04-.11 13.57-1.87 4.55-.85 20.62-3.41a77.18 51.06-11 0 0 10.69-2.2q1.23-.32 9.37-2.11 2.23-.5 2.7-.73a1.79.33-31.6 0 1 .93-.36q2.97-.42 5.73-1.23 3.65-1.07 5.47-1.28c2.42-.27 4.69-1.53 7.25-1.94q5.03-.79 23.82-4.48 1.43-.28 2.22-.19c1.32.15 1.7-.85 3.07-.9 6.95-.28 13.96-3.14 20.87-4.91q7.49-1.93 10.15-2.61 3.18-.82 4.51-.91a3.75.64 2.8 0 0 .98-.12c10.95-2.12 15.57-3.63 22.54-3.88q2.67-.1 4.16-2.04a2.13 2.09-77.3 0 1 1.18-.76l13.06-3.16a.55.55 0 0 1 .4 1.02q-.44.24-.47.26a1.14 1.12-32.5 0 0-.24 1.04l4.59 16.6a.42.42 0 0 1-.08.38q-.34.4-1.33.45-1.18.05-1.34.49-.2.52-.09 1.29a.8.79-19 0 1-.4.81q-.77.43.2 1.42a.35.33 27.2 0 1 .1.28l-.72 8.16a1.62 1.58 32.1 0 0 .25 1.04q1.43 2.22 1.93 4.49a1.12 1.12 0 0 0 .13.32l2.14 3.81a.91.85 84.2 0 0 .45.39l1.31.5a.44.44 0 0 1 .17.7q-.13.14-.17.19a1.43 1.43 0 0 0-.14 1.16l2.32 7.76a1.02 1.01-88.9 0 0 .64.67q1.25.43 3.42-.24a.62.61 73.2 0 1 .77.42q.14.44 2.22 7.71.57 1.97 2.99 1.67a.5.49 88.6 0 0 .43-.46q.02-.32.06-.35a.33.33 0 0 1 .47 0c.93.97 3.16 1.4 4.33.35q.75-.68 1.49-.67a.52.52 0 0 0 .52-.58l-.13-1.28a.26.25-79.2 0 0-.11-.17q-.73-.38-1.72.89a.34.33-23.1 0 1-.6-.24q.22-2.08-1.36-6.07a.47.47 0 0 1 .52-.64q.01 0 .26.13a.27.27 0 0 0 .38-.14l1.54-4.01a.22.22 0 0 0-.27-.29q-1.54.48-2.34 1.63a.76.76 0 0 1-1.38-.35q-.39-3.63-2.77-5.74-1.59-1.41.23-2.82a.49.48 55.9 0 1 .71.14l1.88 3.27a.29.29 0 0 0 .54-.19q-.46-3.03-1.53-3.67-2.13-1.27-3.21.13a1.78 1.67 44.4 0 1-2.69-.06q-1.58-1.88-2.39-4.26a1.92 1.9-49.4 0 1-.07-.96l.32-1.83a.96.96 0 0 1 .65-.75q.59-.2.77-.5.22-.39-.34-.75-.4-.26-1.19.34a.34.34 0 0 1-.53-.16l-1.49-4.66q-.01-.05-.02-.1-.27-6.98 4.06-11.59a.44.44 0 0 0-.35-.75q-1.41.09-2.26-1.07-.48-.65-.03-.97.24-.18.47-.1a.5.5 0 0 0 .65-.39q.21-1.21-.65-1.41a.51.49 86.7 0 1-.37-.34l-2.44-7.95a1.07 1.07 0 0 1 .24-1.04q.48-.53.6-1.39a.4.4 0 0 0-.47-.44l-.59.11a1.02 1.02 0 0 1-.64-1.92q4.49-2.26 10.83-3.57a1.93 1.8 17.1 0 0 .84-.41q1.38-1.17 3.25-.59 1.09.34 3.13-.23 7.58-2.13 9.01-2.47a.42.42 0 0 1 .47.6q-.51.97-.14 1.35a.96.8-40.8 0 0 1.2-.02q1.1-.88.45-1.8a.58.58 0 0 1 .03-.71q.28-.33.48-.4a.43.42-12.7 0 1 .57.36q.09.9.58.9a.61.61 0 0 0 .54-.33q1.4-2.62 4.79-2.57a.52.52 0 0 1 .17 1.01l-3.25 1.22a.69.68 73 0 0-.43.81l.03.09a.43.42-33.7 0 0 .62.12q1.13-.81 2.72-.6a1.84 1.74-49.4 0 0 .85-.09l10.1-3.54a1.01.86-49.7 0 1 .3-.05q1.25.04 5.03-1.34 4.38-1.59 4.63-1.94a1.12 1.12 0 0 0 .18-.99l-.22-.67a.74.73 72.4 0 1 .48-.93l37.5-11.89a4.76 4.25-64.9 0 0 .89-.38q3.16-1.76 5.78-2.1a4.96 4.93-64.7 0 0 2.02-.73c2.48-1.59 6-1.93 8.57-2.93l15.74-6.09a.95.95 0 0 1 1.31.78l.1.92a.57.56 74.1 0 0 .8.45l5.63-2.64a1 .99 74.5 0 0 .56-1l-.07-.6a1.1 1.09 72.6 0 1 .56-1.08q3.13-1.72 4.54-1.74 3.07-.04 5.06-1.99a.58.58 0 0 1 .98.33q.12.78.68 1.22a.82.81-76.7 0 1 .28.46l1.64 8.42a.26.23-79.2 0 0 .08.13q.01 0 .08.03a.29.28-88.4 0 1 .17.19l3.79 15.41a.6.59 77.2 0 0 .69.44q.15-.03.4-.02a.46.46 0 0 1 .34.75q-2.35 2.83-5.97 3.02a1.5 1.47-63.2 0 0-.77.26l-2.55 1.72a.19.19 0 0 0 .14.35q3.32-.59 5.81-2.33a1.72 1.64 25.3 0 1 .9-.3q3.19-.1 3.95-3.6c.32-1.43 2.58-1.7 3.13-.12a.62.61-8.8 0 0 .57.41q.31 0 .71-.21.32-.18.25-.65-.16-.99 1.85-.82a.64.64 0 0 0 .7-.6q.11-1.6.71-1.75a.17.16-20.1 0 0 .11-.23l-.45-.96a.35.34-24.7 0 0-.46-.16l-7.7 3.62a.88.88 0 0 1-1.23-.58l-5.95-24.61a.28.27-74.3 0 1 .46-.26q.39.39.65.93a.6.6 0 0 0 .81.28q1.59-.8 3.09-.68a.52.52 0 0 0 .44-.19q.58-.74 1.55.1.34.29.38 1.66a1.17 1.15 20.3 0 0 .4.85l2.23 1.88a.45.45 0 0 1-.13.76q-2.99 1.12-6.3 1.01a.51.51 0 0 1-.31-.91l3.5-2.86a.37.37 0 0 0-.32-.65q-3.15.73-3.56 1.91-.92 2.66.05 5.41c.98 2.77.51 6.17 2.5 8.77a.51.5 51 0 1-.07.69q-.08.08-.09.1a.98.98 0 0 0 1.4 1.25l.86-.53a.5.5 0 0 1 .76.44q-.01.2-.05.6a.85.7-21.1 0 0 1.36.45q.48-.4.35-1.13a.97.97 0 0 1 .34-.92l3.31-2.71a.38.38 0 0 0 .11-.44q-.48-1.16.27-1.66a.5.49-24.3 0 1 .75.28q.29 1.08.99 1.56a.67.65-41.9 0 0 .71.03l3.65-2.11a.77.77 0 0 1 1.12.45q.09.32.2.86a.38.38 0 0 1-.46.45q-.73-.17-1.18-.47a.37.37 0 0 0-.54.48q.74 1.43 1.77 1.99a.46.46 0 0 0 .68-.4q.01-1.04 1.34-2.2a.81.81 0 0 0 .25-.79q-.12-.55-1.04-.77a.41.4 39.1 0 1-.08-.76l9.4-4.42a.71.7-48.6 0 0-.08-1.31q-.84-.28-1.19.59a.65.63 15.6 0 1-.71.39c-1.43-.24-3.35 1.66-4.93 2.24q-2.5.92-6.61 3.34a.77.76 62.2 0 1-1.08-.34l-1.24-2.64a1.25 1.23-59.8 0 1-.13-.51q-.16-2.24-1.07-3.32a1.03 1.02 40.9 0 1-.09-1.2q.59-.99 1.68-4.74 1.43-4.96-2.53-9.35-1.74-1.92-3.29-1.41-2.87.92-3.66 3.58a1.01.99-86.5 0 1-.77.69l-14.76 2.72a.36.36 0 0 1-.37-.53q.32-.59 1.1-.88 1.34-.52 3.87-1.09a.73.73 0 0 0 .41-1.18l-.2-.25a1.54 1.53 61.7 0 0-1.62-.49l-2.81.87a.24.24 0 0 1-.25-.38l1.18-1.38a.36.36 0 0 0-.21-.59q-1.48-.27-2.12.88a.47.47 0 0 1-.77.06l-2.9-3.55a.12.12 0 0 1 .12-.19q1.26.28 7.75-1.2.63-.14 5.13-.67c1.78-.21 2.98.6 2.46 2.42a.51.51 0 0 0 .35.64c1.14.33 1.99.81 2.81.24q1.99-1.37 1.88-3.34a.48.47 85 0 1 .42-.51l25.14-2.72a1.27 1.25-25.5 0 1 1.01.35c.39.38 1.1.31 1.59.01 5.56-3.32 11.67-6.26 16.42-10.73 2.83-2.66 4.13-7.98-.21-9.96q-1.96-.9-4.06-1.5 1.42.06 2.8.42 5.46 1.4 4.41 7.18-.43 2.41.13 4.79 12.3 51.97 24.94 105.98zm-49.19-93.5q.5.74 1.11.26 1.58-1.23 1.2-1.8-.38-.57-2.13.42-.67.38-.18 1.12zm6.219 15.96a1.22.85-26.8 0 0-1.472-.209 1.22.85-26.8 0 0-.706 1.309 1.22.85-26.8 0 0 1.472.209 1.22.85-26.8 0 0 .706-1.309zm-4.559 7.06q.95.97 1.91.34a1.16 1.1-64.3 0 0-.68-2.1q-.08.01-1.22 1.12a.46.45 46.4 0 0-.01.64zm-84.992 11.428a1.34.89-10.4 0 0-1.479-.633 1.34.89-10.4 0 0-1.157 1.117 1.34.89-10.4 0 0 1.479.633 1.34.89-10.4 0 0 1.157-1.117zm60.802.382h-.9a.33.33 0 0 0-.09.65q.91.26 1.2-.28a.25.24-75.4 0 0-.21-.37zm32.82 14.01q.42 2.69.16 3.27a.55.55 0 0 0 .11.6l1.2 1.21a1.54 1.54 0 0 0 2.45-.34q1.17-2.13.65-5.45-.51-3.32-2.28-4.99a1.54 1.54 0 0 0-2.43.42l-.78 1.52a.55.55 0 0 0 .08.6q.42.48.84 3.16zm-104.15-4.67a.85.65-33.1 0 0-1.39-.11q-.9 1.11-1.54 1.66a.46.46 0 0 0 0 .7l.29.24a.23.22-49.4 0 0 .32-.03l.8-.94a.9.9 0 0 1 .68-.31q.94 0 .84-1.21zm-23.81 1.98a.46.42 38 0 0-.13-.77q-.75-.31-1.27.01a.55.53-54.1 0 0 .14 1q.7.15 1.26-.24zm1.19 3.69q-.3-.16-.48.01a.86.8 24.6 0 0 .58 1.41q.29.03.35-.28.16-.82-.45-1.14zm12.28 3.44q-2.23-2.3-3.81-2.91a.36.35 23.1 0 0-.45.18l-.14.28a.55.54-63.7 0 0 .24.72q1.52.78 2.36 1.37a.72.71 56.6 0 1-.26 1.29q-.47.09-.8.44a.6.59-34.6 0 0-.12.63l1.54 3.75a1.05 1.03 17.8 0 0 .1.19l3.91 6.19a.19.19 0 0 0 .34-.13q-.37-2.57-2.28-5.48a4.1 4.08 23.9 0 1-.62-1.59q-.28-1.72-1.15-2.94a.61.6-42.6 0 1 .04-.76q.3-.34.49-.14a.71.53 82.5 0 0 .61-1.09zm-66.282 6.593a1.04.74-29.2 0 0-1.269-.139 1.04.74-29.2 0 0-.547 1.153 1.04.74-29.2 0 0 1.269.139 1.04.74-29.2 0 0 .547-1.153zm64.152 4.307c-1.19 1.78-1.72 2.6.3 4.08a.47.47 0 0 0 .73-.27q.16-.71-.35-1.21-.63-.61-.53-1.01.11-.42.79-1.01a.32.32 0 0 0-.05-.52l-.32-.19a.43.42 31.7 0 0-.57.13zm4.32 7.99a.88.75 48.6 0 0 1.49.22q1.14-2.68-1.21-4.54a.43.43 0 0 0-.64.55l1.09 1.89a.72.71-34.3 0 1-.18.93q-.71.56-.55.95zm-72.05 3.83a.48.48 0 0 0 .62.71c1.41-.98 3.32-1.21 3.02-3.33a.56.56 0 0 0-.97-.31l-2.67 2.93zm85.84 6.94q-1.32.4-1.18.86a.48.48 0 0 1-.38.61q-.72.13-.97.49a.94.79-56.1 0 0 .13 1.25q1.04.66 1.98.49a.65.64 83.4 0 0 .53-.67q-.12-2.72 0-2.83a.12.12 0 0 0-.11-.2zm-86.35 1.29l-1.02.64a.62.62 0 0 0-.24.77q.08.17.66.69a.35.35 0 0 0 .57-.18l.41-1.65a.25.25 0 0 0-.38-.27zm2.14 3.45q.45.11.82-.07a1.17 1.05 43.4 0 0-.16-2q-.74-.36-1.14.57a1.17.88-70.6 0 0 .48 1.5zm7.32 23.46q-.67.58-.83.79a.55.44 22.2 0 0 .4.73q.6.13.96-.42a.73.48-82.5 0 0-.53-1.1zm63.39 25.95q-.32-.36-2.15.57-.56.28-.72.17-.43-.31-.41-.71a1.43 1.33 62.3 0 0-2.55-.9q-.26.5.02 1.4 1.7 5.26 2.68 10.63a.98.98 0 0 1-.25.85q-2.16 2.25-.7 5.39a.31.31 0 0 0 .59-.13v-3.78a.49.49 0 0 1 .97-.13l6.35 23.88a.97.97 0 0 0 .76.7q.95.16 1.43-.87a.71.71 0 0 1 .65-.42h1.14a.4.35 30.1 0 0 .15-.03l5.57-2.31a1.29 1.28 71.8 0 0 .76-1.51l-3.49-13.68a4.58 4.53-50.4 0 1-.12-1.34q.03-.65.37-1.32a.59.58-74.8 0 0-.48-.85q-1.15-.08-1.47-1.52-.33-1.46-.84-4.46a5.28 5.05-62.2 0 0-.27-.95q-1.15-2.84-2.04-7.65-.42-2.24-1.62-2.21a1 1 0 0 1-.97-.71q-.5-1.68-2.21-2.38a.8.77 2.9 0 1-.45-.48q-.2-.64-.66-.72a.54.52-58.9 0 0-.45.12q-1.78 1.51-2.63 3.09a.9.9 0 0 0 .4 1.23l1.08.54a.93.93 0 0 0 1.24-.43l.85-1.73a.5.5 0 0 1 .78-.17l.22.19a.68.67-49.8 0 1 .07.95l-1.42 1.68a.12.12 0 0 1-.18 0zm-84.99.92q.78-.31 1.17-1.05.34-.63-.44-1-.44-.2-.83.28a1.16.6-66 0 0 .1 1.77zm233.11 10.24l-.35-3.2a.14.14 0 0 0-.15-.13l-.05.01a1.73 1.7-6.2 0 0-1.54 1.87l.01.1a1.73 1.7-6.2 0 0 1.9 1.51l.05-.01a.14.14 0 0 0 .13-.15zm-21.94 42.32q-.69.69-.69.94a.62.61-1.3 0 0 .66.63q1.62-.13 2.2.97a.67.66-28.8 0 0 .92.26l.51-.3a.66.66 0 0 0 .14-1.04l-.71-.71a.39.37 31 0 1-.1-.37q.18-.65 1.09-.42.4.11.49.64.1.57.63 1.11a.4.4 0 0 0 .66-.12q.55-1.33.26-2.1-.29-.76-.08-1 .92-1.12 1.33-.31a.37.34 43.1 0 1 .02.3l-.2.53a.55.54-84.2 0 0 .59.73q1-.15 1.62-1.18a1.11 1.04-1.1 0 1 .38-.37l2.77-1.6a1.64 1.57 88.8 0 0 .66-.72q.53-1.11 1.67-1.39a2.81 2.26-11.6 0 0 2.19-2.65q0-.04-.47-.83a.79.79 0 0 1 .07-.91q2.06-2.42 5.38-3.54a1.99 1.95 9.1 0 0 .92-.65q1.3-1.66 2.82-2.53a.3.3 0 0 1 .43.36c-.76 2.04-3.7 2.37-4.95 3.98a1.24 1.22 13.1 0 1-.73.45q-1.95.38-2.71 2.97a.68.68 0 0 0 1.15.66q1.82-1.91 4.29-3.54.74-.49 1.16-1.43a1.18 1.16.5 0 1 .64-.62q1.66-.65 2.91-2.18.63-.78.32-1.45a.14.14 0 0 0-.26.04q-.05.38-.37.41a.51.48 11.2 0 1-.52-.72q1.15-1.91 2.65-3.85a1.9 1.89-26.4 0 0 .39-1.15v-.5a.43.43 0 0 0-.74-.3l-3.59 3.59a.51.51 0 0 0-.08.64q.51.82-.59 1.59a.29.28 72.9 0 1-.44-.24v-.77a.47.47 0 0 0-.63-.44q-.34.12-.52.4a.81.75 59.6 0 0-.12.54q.26 1.98-1.69 3.29a.4.39 44 0 1-.43 0q-.26-.17-.18-.55a.53.51 71.5 0 0-.9-.46c-1.65 2-3.62 2.6-5.52 4.59a1.32 1.31-25.7 0 0-.36 1.02c.09 1.06.88 2.13.83 2.83q-.02.36-.58.66a.33.33 0 0 1-.47-.37q.25-.96-.85-3.01a.52.52 0 0 0-.68-.23q-1.11.52-.82 2.77a.96.96 0 0 1-1.82.55q0-.01.08-.45a.53.53 0 0 0-.47-.63q-.42-.04-.82.42a.81.8 60.6 0 0-.19.7c.22 1.17.53 2.02-.75 2.67q-2.65 1.36-6.67 4.17a.62.54 19.4 0 1-.28.11l-.74.06a.15.13 17.3 0 0-.11.05zm-92.474 43.898a.92.59-36.9 0 0-1.09.081.92.59-36.9 0 0-.381 1.024.92.59-36.9 0 0 1.09-.081.92.59-36.9 0 0 .381-1.024zM318.26 350.74q2.01-.29 4.65-1.78l5.48-1.18a1.55 1.45 20.4 0 0 .53-.22q1.93-1.24.78-3.04a.44.44 0 0 0-.52-.18l-4.08 1.39a.72.72 0 0 1-.93-.85q.34-1.37 1.35-2.31a.19.19 0 0 0-.15-.33q-1.65.17-1.85.29-3.98 2.45-8.55 2.98a2.97 2.96-60.1 0 0-.92.25q-4.21 1.84-8.72 2.59-2.26.38-4.03 1.9a.25.25 0 0 0-.08.28l.13.37a.66.66 0 0 1-.2.71q-.94.76-1.81.84a.18.18 0 0 1-.13-.32l1.61-1.33a.44.44 0 0 0-.29-.78q-1.38.06-3.05 1-.31.17-.47.05-.12-.09-.47-.19a.62.62 0 0 0-.78.46q-.17.8.4 1.87a.38.38 0 0 1-.25.55l-6.91 1.67a.5.5 0 0 1-.61-.57q.06-.4.39-.66a.72.69 19.9 0 1 .32-.14l5.06-.61a.88.88 0 0 0 .7-.55l.27-.69a.32.32 0 0 0-.37-.42l-7.43 1.79a.87.86 10.1 0 0-.48.33c-1.21 1.73-7.38 2.55-8.46 2.51a.78.65 31.7 0 0-.21.03l-6.62 2.16a.7.7 0 0 0-.43.93l.25.38a1.26 1.24-21.3 0 0 1.28.55l12.64-2.32a.23.23 0 0 1 .25.32q-.2.49-.14.74a1.1 1.01-19.3 0 0 1.46.63q2.2-.93 4.25-.94a2.26 2.14-55.5 0 0 .89-.19q2.02-.9 3.87-1.07a1.76 1.74-66.8 0 0 .93-.38q.99-.8 2.57-1.2a1.04 1.03 57.8 0 1 .9.21q.84.7 1.08 2.17a.26.25 9.3 0 0 .14.19q.19.1.55.02a.37.36 60 0 0 .16-.63q-.99-.88-.28-1.84a1.7 1.64 7.9 0 1 .78-.57l7.99-2.74a.43.32 8 0 0 .09-.05q1.36-.95 2.88-.96a.88.77-48.9 0 0 .22-.03l4.37-1.09zm157.34 24.52l-.31-.65a.47.46 64.8 0 0-.62-.23q-.42.19-.53.8a.44.44 0 0 0 .36.51q.58.08.58 1.07.01 1.99.41 3.17.58 1.67.86 3.08.92 4.56 2.1 7.78.31.84.94 4.89a.61.61 0 0 0 .86.45l.77-.36a.27.27 0 0 1 .28.45q-2.01 1.67-2.18 3.61a.3.3 0 0 0 .51.24l8.36-8.16a4.44 4.38 79.6 0 0 1-1.47q.56-1.32-1.1-3.22a.28.28 0 0 0-.49.13q-.18.9.05 1.51a.44.43 77.6 0 1-.37.58q-.13.01-.31.01a1.19 1.19 0 0 0-.92.46q-1.19 1.51-2.76 2.59c-.85.58-.87 1.78-1.42 2.05a.53.52 67.2 0 1-.72-.3q-.64-1.77-.31-3.45a1.17 1.16 31.6 0 0-.23-.94q-.96-1.21-1.31-2.8-1.44-6.53-1.96-7.57a.71.7 61.9 0 1 .28-.94q.28-.16.36-.28a.72.72 0 0 0-.2-1.01q-.69-.44-.97-.83a.69.69 0 0 1 .1-.91l6.91-6.42a1.36 1.31 76.9 0 0 .4-.67l.42-1.73a.41.41 0 0 0-.74-.32q-1.16 1.83-2.77 3.02-.7.52-.93 1.12-.33.85-1.04.91c-1.09.07-1.74 1.41-2.36 1.9a.84.84 0 0 0-.28.92q.17.55-.38 1.07a.21.21 0 0 1-.34-.06zm5.24-.97a2.17 2.17 0 0 0-1.47 2.59q.91 3.61.75 6.97a2.02 1.96-89.7 0 0 2.03 2.11q.75-.03 1.26-.78c1.89-2.77 1.52-5.43-.01-9.66a2.03 2.03 0 0 0-2.5-1.25l-.06.02zm-143.09 37.27a.81.81 0 0 0-1.62 0 .81.81 0 0 0 1.62 0zm-27.3 11.25q.84 1.15.9 2.32a.74.73-85.4 0 0 .57.68q.48.11 1.5-.37a.46.46 0 0 1 .66.46l-.05.55a.89.88-77.6 0 0 .58.91q1.72.61 3.31-.83a1.22 1.22 0 0 0-1.28-2.03l-.29.12a.29.28 70.8 0 1-.38-.19l-.77-2.92a1.02 1.02 0 0 0-1.25-.73l-3.07.82a.78.78 0 0 0-.43 1.21zm15.81 4.59q.33-.93.98-1.28a1.11.96-48.2 0 0 .03-1.92q-.71-.21-1.44.16a.83.81 77.5 0 0-.46.74v2.15a.46.46 0 0 0 .89.15zm-19.758 1.123a1.05 1.05 0 0 0-1.376-.559l-1.492.63a1.05 1.05 0 0 0-.559 1.376l.062.147a1.05 1.05 0 0 0 1.376.559l1.492-.63a1.05 1.05 0 0 0 .559-1.376l-.062-.147zM474.4 440.45q-.21-.83.94-1.86 3.86-3.49 7.51-6.17a1.87 1.83 79.1 0 0 .71-1.07q.18-.79.06-1.52a.25.24-29.2 0 0-.43-.12q-2.14 2.54-4.4 3.98c-1.86 1.18-4.25 3.35-5.06 5.23a1.64 1.36-58.1 0 0 .24 1.73q.04.03.26.03a.18.18 0 0 0 .17-.23zm-172.28 34.66q0 .02.23.34.13.17-.3.54-1.03.86-1.93.26a.46.45-60 0 0-.66.18q-.72 1.49-.37 2.53a.64.63 73.4 0 0 .75.41q3.88-.99 5.27-1.6c1.83-.81 5.48-.56 6.72-1.41q1.89-1.28 6.93-2.1 1.17-.2 6.14-2.2a2.43 2.41 33.3 0 1 .94-.19h1.29a1.17 1.07 28 0 0 .55-.14q1.45-.78 3.96-1.21a6.51 6.49-61.5 0 0 1.45-.43q6.12-2.64 12.03-3.62a1.61 1.6 17.9 0 0 .89-.45l1.4-1.4a.97.94-58.1 0 1 .97-.24q1.01.32 1.68.96a.41.4 26.8 0 0 .68-.22q.02-.17.07-.34a1.21 1.2-1.1 0 1 .76-.78l2.84-.97a.5.5 0 0 0 .27-.72l-.97-1.69a.64.64 0 0 1 0-.66q.24-.38.13-.78a.37.37 0 0 0-.65-.12l-.26.34a.69.69 0 0 1-.34.25l-22.53 7.71a5.01 4.84 33.7 0 1-1.49.27c-1.99.05-3.49 1.09-5.08 1.57q-8.6 2.65-20.01 5.68-.55.15-1.09-.03a.21.21 0 0 0-.27.26zm87.99 11.22a1.04.65-33.2 0 0-1.226.026 1.04.65-33.2 0 0-.514 1.113 1.04.65-33.2 0 0 1.226-.026 1.04.65-33.2 0 0 .514-1.113zM180.42 81.04l-.03 1.01q-.07-.53.03-1.01z"/><path d="M184.24 91.57q-3.27-4.29-3.85-9.52 1.16.77 1.62 1.94a1.27 1.25-46.6 0 1 .02.87q-.38 1.1.09 1.89 1.66 2.82 2.12 4.82z"/><circle cx="200.62" cy="82.71" r=".7"/><path d="M205.59 83.35a.43.42 73.1 0 1 .51.28v.01a.3.29-10.5 0 1-.23.33q-1.52.32-2.97.93-.75.31-.8.71-.11.84-.01 1.17a.59.59 0 0 1-.97.61q-.96-.89.07-2.54a1.56 1.51 8.4 0 1 .96-.69l3.44-.81z"/></g><path d="M225.24 85.45l.08-1.28q.21.8-.08 1.28zm-1.42 2.13q-.14.17-.16.41-1.94.01-3.48 1.51a.76.76 0 0 1-1.12-.06l-.17-.21a.55.55 0 0 1 .19-.85l1.47-.7a1.01.99-1.1 0 0 .49-.5q.47-1.1 1.46-.99.94.1 1.32 1.39z" class="C"/><g class="B"><rect x="-.88" y="-2.55" transform="matrix(.951594 .307357 -.307357 .951594 190.57 89.13)" width="1.76" height="5.1" rx=".83"/><path d="M372.45 93.57l.27-.33a.46.46 0 0 1 .65-.05l.45.38a.17.17 0 0 0 .28-.15q-.1-.77-.09-.79a.32.31 62 0 1 .51.16l1.13 4.71a1.06 1.03-79.1 0 0 .38.58q1 .78 2.46-.2a.47.47 0 0 1 .73.34l.05.5a.55.55 0 0 0 .65.48l1.12-.2a.67.66 79.6 0 0 .53-.78l-1.42-7.75a.25.25 0 0 1 .34-.28l.54.2a.03.02 31.7 0 1 .01.02q.42 2.75 1.23 3.68a.51.5-49.2 0 1 .04.62q-.19.29.07.93.95 2.32.87 2.89a.36.36 0 0 0 .45.39q.67-.18.81.54a1.55 1.35 83.6 0 1-1.28 1.85q-.01 0-.52-.2a1.2 1.17 52.5 0 0-.62-.09l-7.23.88a2.05 1.96-60.3 0 0-.67.2q-1.06.56-1.98.42a.73.73 0 0 1-.63-.72q-.03-2.67 2.1-3.56a.71.7 30.6 0 0-.35-1.35l-1.43.16a.97.96-72.6 0 0-.63.33l-2.6 3.07a.43.43 0 0 1-.73-.45q.65-1.54 2.26-2.47a.69.68 26.9 0 0-.42-1.27l-1.05.11a.54.54 0 0 1-.58-.67q.26-.99-1.14-.95a.62.61 0 0 1-.64-.63q.03-.96-.24-1.49a.39.39 0 0 1 .46-.55q.16.04.43.5a.6.58 69.6 0 0 .61.29q1.48-.25 1.69 1.75a.79.79 0 0 0 1.57.06q0-.02.01-.39a.38.37 6.8 0 1 .47-.36l.29.07a.16.16 0 0 1 .08.26q-.33.38-.32.42a.97.97 0 0 0 1.89-.22q.04-.41-.69-.47a.26.25-67.4 0 1-.17-.42z"/></g><path d="M212 95.89q2.31-5.84 8.89-4.63a.52.52 0 0 1 .13.98l-8.6 4.05a.31.31 0 0 1-.42-.4z" class="C"/><g class="B"><path d="M184.68 94.55q.66-1.21.3-2.02.43.15.79.42a.64.63-55.9 0 1 .15.83q-.34.57-1.24.77zm-47.51-1.77a.11.11 0 0 1 .06.2q-.26.18-.39.06a.11.1 48.2 0 1 0-.16q.1-.09.33-.1zm47.28 2.43q.32.67-.05 1.38-.2-.86.05-1.38z"/><ellipse cx="0" cy="0" transform="matrix(-.778243 -.627963 .627963 -.778243 388.21 96.84)" rx="1.57" ry=".51"/><path d="M341.97 101.7l1.07-.62a.41.35 32.4 0 1 .27-.04l5.98 1.04a.43.42 42.3 0 1 .04.83l-19.35 5.14a.46.46 0 0 0-.13.83l.73.47a.37.36 51.5 0 0 .34.04q4.49-1.69 8.72-1.74a1.4.9-39 0 0 .27-.03l6.63-1.61a.51.5-2.3 0 1 .62.57c-.45 2.65-2.58 3.46-4.93 3.98q-16.21 3.54-16.42 3.44a.48.47 37.4 0 0-.48.06l-.29.23a.64.64 0 0 1-.94-.15l-.43-.65a.57.57 0 0 0-.89-.09q-.28.28-.53 1.1a.73.7 1.9 0 1-.54.49l-5.86 1.31a1.45 1.41 48.3 0 1-.81-.06l-6.03-2.32a.3.29 50.4 0 1 .05-.57q8.4-1.38 16.91-4.58 1.27-.48 2.19-.64a2.9 2.79 22.6 0 0 1.1-.43q3.93-2.58 9.52-2.93.63-.04 1.68-.94a.32.31 30 0 0-.15-.55q-1.51-.29-2.63-.1a.16.15 72.3 0 1-.15-.08l-.53-.9a.14.14 0 0 1 .12-.21l4.26-.12a1.26 1.21 27.7 0 0 .59-.17z"/></g><path d="M417.59 102.84q.38.57-1.2 1.8-.61.48-1.11-.26-.49-.74.18-1.12 1.75-.99 2.13-.42z" class="C"/><g class="B"><path d="M274.97 103.67q.29 1.82-1.11 2.94a.52.52 0 0 1-.79-.18q-.05-.1-.08-.33a.51.5 66.7 0 0-.82-.33l-1.11.92a1.66 1.63 16.5 0 1-.51.27l-5.92 1.81a.77.75 53.9 0 1-.69-.12l-2.07-1.54 13.1-3.44zm37.26 5.37a.38.38 0 0 1-.29-.67q.51-.42 1.01-.49a.33.33 0 0 1 .24.59q-.72.54-.96.57zm82.3 2.74q-.4.49-1.26.68a.28.28 0 0 1-.3-.42q.02-.03.74-.93.72-.89.75-.91a.28.28 0 0 1 .47.21q0 .88-.4 1.37zm-152.99.95q-.29.44-.79.29.34-.25.79-.29z"/><ellipse cx="0" cy="0" transform="matrix(-.083678 -.996493 .996493 -.083678 398.69 116.13)" rx="3.28" ry="1.33"/><ellipse cx="0" cy="0" transform="matrix(.968148 -.25038 .25038 .968148 388.92 115.25)" rx="3.5" ry=".86"/><ellipse cx="0" cy="0" transform="matrix(.888617 -.45865 .45865 .888617 257.82 115.45)" rx=".86" ry=".51"/><path d="M246.6 121.72l-.7-1.21a.81.81 0 0 0-1.51.41q.01.59.19 1.07a.5.49-16.4 0 1-.37.66q-.9.19-1.4-.31a.48.48 0 0 0-.74.09q-.28.45-.81.73a.92.9-37.8 0 1-1.01-.12l-1.69-1.43a.55.55 0 0 1 .21-.95l14.33-3.88a1.05.9 15.8 0 0 .24-.11l1.05-.6a.59.58 7.5 0 1 .71.92q-1.24 1.22-2.66 1.27-.02 0-.03 0l-5.28 3.58a.37.37 0 0 1-.53-.12zm106.01-3.06v-1.67a.36.36 0 0 1 .67-.18l.91 1.57a.35.35 0 0 1-.31.52h-1.03a.24.24 0 0 1-.24-.24z"/></g><g class="C"><ellipse cx="0" cy="0" transform="matrix(.892586 -.450878 .450878 .892586 420.41 120.89)" rx="1.22" ry=".85"/><ellipse cx="0" cy="0" transform="matrix(.644124 -.764921 .764921 .644124 231.91 123.72)" rx=".94" ry=".8"/><path d="M416.95 126.76q1.14-1.11 1.22-1.12a1.16 1.1-64.3 0 1 .68 2.1q-.96.63-1.91-.34a.46.45 46.4 0 1 .01-.64zm-207.92 3.9q-.08-.87.29-1.22a1 .98 83.1 0 1 1.53 1.22q-.11.19-1.19.45a.51.51 0 0 1-.63-.45z"/><ellipse cx="0" cy="0" transform="matrix(.983571 -.180519 .180519 .983571 330.63 139.07)" rx="1.34" ry=".89"/><path d="M392.96 139.58q-.29.54-1.2.28a.33.33 0 0 1 .09-.65h.9a.25.24-75.4 0 1 .21.37z"/></g><path d="M243.95 147.1a.07.07 0 0 1-.09-.05v-.02a4.75 1.77-13.5 0 1 4.21-2.83l.87-.21a4.75 1.77-13.5 0 1 5.03.61l.01.02a.07.07 0 0 1-.05.09l-9.98 2.39zm-89.97-2.91q-.41.55-1.12.44a.3.3 0 0 1-.12-.55q.36-.23.95-.35a.29.29 0 0 1 .29.46zm79.36 7.35l.23-2.6a.87.86-66.9 0 0-.29-.73q-.49-.43-.36-.75c.81-2.08 5.06-2.07 6.86-2.62a1.12 1.12 0 0 1 1.26 1.7q-1.04 1.54-.49 2.99a.37.37 0 0 1-.25.49l-6.66 1.77a.24.24 0 0 1-.3-.25z" class="B"/><path d="M430.14 152.51q.52 3.32-.65 5.45a1.54 1.54 0 0 1-2.45.34l-1.2-1.21a.55.55 0 0 1-.11-.6q.26-.58-.16-3.27-.42-2.68-.84-3.16a.55.55 0 0 1-.08-.6l.78-1.52a1.54 1.54 0 0 1 2.43-.42q1.77 1.67 2.28 4.99zm-4.091-3.352a.83.44-142.8 0 0 .395.852.83.44-142.8 0 0 .927.151.83.44-142.8 0 0-.395-.852.83.44-142.8 0 0-.927-.151zm2.431 6.567a.96.54-41.4 0 0-1.077.23.96.54-41.4 0 0-.363 1.04.96.54-41.4 0 0 1.077-.23.96.54-41.4 0 0 .363-1.04zm-107.06-7.175q.1 1.21-.84 1.21a.9.9 0 0 0-.68.31l-.8.94a.23.22-49.4 0 1-.32.03l-.29-.24a.46.46 0 0 1 0-.7q.64-.55 1.54-1.66a.85.65-33.1 0 1 1.39.11z" class="C"/><g class="B"><ellipse cx="0" cy="0" transform="matrix(-.79653 -.604599 .604599 -.79653 426.71 149.66)" rx=".83" ry=".44"/><path d="M220.7 154.82l-8.84 2.14a.1.1 0 0 1-.13-.07l-1.42-4.15a.45.44-18.4 0 1 .29-.57l9.46-2.9a.19.19 0 0 1 .25.16l.55 5.16a.2.2 0 0 1-.16.23z"/></g><path d="M297.61 150.53q-.56.39-1.26.24a.55.53-54.1 0 1-.14-1q.52-.32 1.27-.01a.46.42 38 0 1 .13.77z" class="C"/><path d="M79.4 151.73l-3.75 4.43a.29.28-39.8 0 1-.46-.04l-.14-.25a.47.46-28.1 0 1 .2-.65q1.57-.77 1.87-2.37a1.29 1.26 82.4 0 1 .66-.89l.98-.51.64.28zm-8.2.98q-.26-.46-.33-1.06.52.44.33 1.06z" class="B"/><path d="M298.8 154.22q.61.32.45 1.14-.06.31-.35.28a.86.8 24.6 0 1-.58-1.41q.18-.17.48-.01zm12.28 3.44a.71.53 82.5 0 1-.61 1.09q-.19-.2-.49.14a.61.6-42.6 0 0-.04.76q.87 1.22 1.15 2.94a4.1 4.08 23.9 0 0 .62 1.59q1.91 2.91 2.28 5.48a.19.19 0 0 1-.34.13l-3.91-6.19a1.05 1.03 17.8 0 1-.1-.19l-1.54-3.75a.6.59-34.6 0 1 .12-.63q.33-.35.8-.44a.72.71 56.6 0 0 .26-1.29q-.84-.59-2.36-1.37a.55.54-63.7 0 1-.24-.72l.14-.28a.36.35 23.1 0 1 .45-.18q1.58.61 3.81 2.91z" class="C"/><g class="B"><ellipse cx="0" cy="0" transform="matrix(.750111 -.661312 .661312 .750111 427.76 156.36)" rx=".96" ry=".54"/><path d="M238 159.27a.44.44 0 0 1-.02.87l-15.53 2.36a1.34 1.25-61 0 0-.31.1q-1.6.72-3.16.68-.04 0-.08 0l-22.62 4.13a2.48 1.85-53.3 0 0-.4.12q-8.86 3.41-8.87 3.41-1.12.3-1.62-.16a.34.32-30.4 0 0-.31-.07l-6.79 1.8a.16.16 0 0 1-.11-.29l8.07-4.28a1.72 1.63 30.5 0 1 .82-.19q1.78.02 2.3-.58a.53.53 0 0 1 .89.11q.14.3.17.61a.6.6 0 0 0 .71.53q.59-.11.86-1.15a.47.46-63.5 0 1 .74-.25q.71.58 1.18.54.58-.04.9-.86.24-.62.31-.74a.68.67 9.6 0 1 .5-.35l37.45-5.3a2.47 2.25 25.9 0 0 .68-.2q2.55-1.19 4.24-.84zm-57.64 4.35a.24.24 0 0 1-.32-.12l-.35-.77a3.27.37-24.1 0 1 2.83-1.68l.28-.12a3.27.37-24.1 0 1 3.13-1l.35.78a.24.24 0 0 1-.12.32l-5.8 2.59z"/><ellipse cx="0" cy="0" transform="matrix(.54024 -.841511 .841511 .54024 187.07 160.9)" rx="1.2" ry=".94"/><path d="M95.04 171.77q2.77.43 5.17-.66a.87.85 85.2 0 0 .49-.59q.3-1.2 1.28-1.46a.39.38.8 0 1 .47.48q-.4 1.3-1.26 1.73a.55.54-55.6 0 0 .19 1.03q4.02.35 7.06-2.57 1.44-1.38.59-3.18a1.12 1.12 0 0 1 .68-1.54l6.92-2.12a.51.51 0 0 1 .64.34l.27.89a.5.5 0 0 0 .83.21q2.45-2.44 6.8-3.24a.54.54 0 0 1 .62.38l2.1 6.82a1.19 1.18-17.1 0 1-.79 1.48l-5.4 1.66a.59.59 0 0 1-.64-.2q-.37-.44-1.04-.57a.83.82-82.1 0 0-.97.74l-.04.42a1.14 1.13 83.7 0 1-.77.97l-13.28 4.3a.81.8-53.4 0 1-.33.05q-1.14-.05-1.58.12-7.69 2.99-16 4.26a.42.41 23.4 0 1-.3-.75q2.37-1.63 4.79-2.23a.75.74-4.5 0 0 .56-.65q.19-1.93-.35-3.11a1.83 1.75 38.8 0 1-.14-1.07q.25-1.31.04-1.59a.3.29-14.6 0 1 .28-.47q.37.06 2.47-.94a.29.28-10.2 0 1 .41.28l-.04.44a.32.31-84.2 0 0 .27.34zm15.096-2.482a.95.82-125.7 0 0-.111 1.25.95.82-125.7 0 0 1.22.293.95.82-125.7 0 0 .112-1.25.95.82-125.7 0 0-1.22-.293zm-12.835 4.055a1.1.9-67.5 0 0-1.252.672 1.1.9-67.5 0 0 .41 1.361 1.1.9-67.5 0 0 1.252-.672 1.1.9-67.5 0 0-.41-1.361z"/></g><ellipse cx="0" cy="0" transform="matrix(.872922 -.48786 .48786 .872922 243.89 164.76)" rx="1.04" ry=".74" class="C"/><path d="M71.42 166.21l-.14-.91q.22.39.14.91zm160.98 1.85q.36-.13.43-.11.28.06.36.12.76.64 1.57.36a.63.59-84.8 0 1 .7.89q-.73 1.44-2.17 1.88a.53.52 4.5 0 1-.63-.73l.67-1.37a.18.18 0 0 0-.2-.26q-.28.05-.75-.16a.34.33-43.3 0 1 .02-.62z" class="B"/><g class="C"><path d="M308.95 168.56a.43.42 31.7 0 1 .57-.13l.32.19a.32.32 0 0 1 .05.52q-.68.59-.79 1.01-.1.4.53 1.01.51.5.35 1.21a.47.47 0 0 1-.73.27c-2.02-1.48-1.49-2.3-.3-4.08z"/><ellipse cx="0" cy="0" transform="matrix(-.583541 -.812084 .812084 -.583541 110.69 170.06)" rx=".95" ry=".82"/></g><path d="M229.82 170.23q.08-.15 1.07-1.04a.29.29 0 0 1 .48.26q-.13.79-.8 1.38a.49.49 0 0 1-.75-.6zm-179.54 3.13q-1.02.8-.68-1.35.13.89.68 1.35z" class="B"/><g class="C"><path d="M313.27 176.55q-.16-.39.55-.95a.72.71-34.3 0 0 .18-.93l-1.09-1.89a.43.43 0 0 1 .64-.55q2.35 1.86 1.21 4.54a.88.75 48.6 0 1-1.49-.22z"/><ellipse cx="0" cy="0" transform="matrix(.382683 -.92388 .92388 .382683 96.88 174.36)" rx="1.1" ry=".9"/><path d="M241.22 180.38l2.67-2.93a.56.56 0 0 1 .97.31c.3 2.12-1.61 2.35-3.02 3.33a.48.48 0 0 1-.62-.71z"/></g><g class="B"><path d="M16.18 180.55q-.33-.61-.41-1.32.44.52.41 1.32z"/><ellipse cx="0" cy="0" transform="matrix(.589196 -.80799 .80799 .589196 232.82 182.05)" rx="1.18" ry=".65"/><ellipse cx="0" cy="0" transform="matrix(.929133 -.369747 .369747 .929133 133.25 182.14)" rx="2.05" ry=".46"/><path d="M79.17 197.66a.33.33 0 0 1-.18-.63l13.11-6.17a1.49 1.4-58.2 0 1 .52-.14q3.18-.29 7.52-2.71a3.32 3.12 23.2 0 1 .99-.36l28.28-5.2a.74.74 0 0 1 .53 1.36q-7.47 4.59-12.56 7.36c-.95.52-1.87.1-2.86.23q-11.76 1.58-27.77 4.82a.83.83 0 0 1-.92-.46l-.16-.34a.26.26 0 0 0-.36-.12q-4.2 2.13-6.14 2.36zm-25.32-12.99q.48.02.7.41a.4.37 35.2 0 1 .06.25q-.21 2.13-.87 2.11-.67-.03-.7-2.17a.4.37-30.4 0 1 .08-.25q.26-.37.73-.35zm-35.76 2.72l-.3-1.18q.65.31.3 1.18z"/></g><path d="M327.17 187.52q-.12.11 0 2.83a.65.64 83.4 0 1-.53.67q-.94.17-1.98-.49a.94.79-56.1 0 1-.13-1.25q.25-.36.97-.49a.48.48 0 0 0 .38-.61q-.14-.46 1.18-.86a.12.12 0 0 1 .11.2z" class="C"/><path d="M233.51 191.23a1.39 1.15-77.9 0 1-1-1.91q.91-2.14 2.68-1.39a.6.59 17.2 0 1 .36.67q-.53 2.55-2.04 2.63z" class="B"/><path d="M241.09 188.88l-.41 1.65a.35.35 0 0 1-.57.18q-.58-.52-.66-.69a.62.62 0 0 1 .24-.77l1.02-.64a.25.25 0 0 1 .38.27zm1.76 3.18a1.17.88-70.6 0 1-.48-1.5q.4-.93 1.14-.57a1.17 1.05 43.4 0 1 .16 2q-.37.18-.82.07z" class="C"/><circle cx="88.37" cy="197.75" r=".21" class="B"/><path d="M464.47 197.88l.3 1.54-7.01 10.08a1.86 1.84-36.5 0 0-.25 1.59l.25.83a.64.64 0 0 0 1.1.22q3.64-4.29 5.79-9.83a.39.38-61.9 0 1 .58-.18l.22.15q.05.13.1.26-.01.4.13.75.05.07.09.13l-1.95 2.61a1.08 1.06-27.7 0 0-.2.62q0 .19.02.3a.44.42 58.9 0 1-.08.37q-1.62 2.02-3.53 4.79-1.46 2.12-1.64 2.28-.47.41-.62.47a.87.86-11.1 0 0-.5.73q-.07 1.15-1.41.99a.83.79-64.3 0 1-.44-1.37q1.32-1.44.93-2.71a.63.62 73.5 0 0-.77-.42q-3.36.96-2.08 3.85a.41.41 0 0 1-.71.4q-.02-.03-.09-.61a1.08 1.08 0 0 0-.69-.88q-.89-.35-.62-1.1a.66.63 1.4 0 1 .44-.4l1.26-.33a.68.61-74.7 0 0 .34-.22l7.48-8.8a3.7 3.52-16.9 0 0 .68-1.2q1.02-3.06 2.88-4.91z" class="C"/><path d="M464.77 199.42q.66 1.23.68 2.86l-.22-.15a.39.38-61.9 0 0-.58.18q-2.15 5.54-5.79 9.83a.64.64 0 0 1-1.1-.22l-.25-.83a1.86 1.84-36.5 0 1 .25-1.59l7.01-10.08zm.91 3.87q-.14-.35-.13-.75.13.35.13.75zm-229.59.38q.1.36-.1.6-.16.21-.56.29-2.68.52-2.81.04-.13-.48 2.46-1.37.38-.13.62-.03.29.11.39.47zm.75 7.45a.89.89 0 0 1 .15-1.7q2.09-.42 3.53 1.36a.37.37 0 0 1-.28.6q-2.53.08-3.4-.26z" class="B"/><path d="M250.17 215.52a.73.48-82.5 0 1 .53 1.1q-.36.55-.96.42a.55.44 22.2 0 1-.4-.73q.16-.21.83-.79zm63.57 25.95l1.42-1.68a.68.67-49.8 0 0-.07-.95l-.22-.19a.5.5 0 0 0-.78.17l-.85 1.73a.93.93 0 0 1-1.24.43l-1.08-.54a.9.9 0 0 1-.4-1.23q.85-1.58 2.63-3.09a.54.52-58.9 0 1 .45-.12q.46.08.66.72a.8.77 2.9 0 0 .45.48q1.71.7 2.21 2.38a1 1 0 0 0 .97.71q1.2-.03 1.62 2.21.89 4.81 2.04 7.65a5.28 5.05-62.2 0 1 .27.95q.51 3 .84 4.46.32 1.44 1.47 1.52a.59.58-74.8 0 1 .48.85q-.34.67-.37 1.32a4.58 4.53-50.4 0 0 .12 1.34l3.49 13.68a1.29 1.28 71.8 0 1-.76 1.51l-5.57 2.31a.4.35 30.1 0 1-.15.03h-1.14a.71.71 0 0 0-.65.42q-.48 1.03-1.43.87a.97.97 0 0 1-.76-.7l-6.35-23.88a.49.49 0 0 0-.97.13v3.78a.31.31 0 0 1-.59.13q-1.46-3.14.7-5.39a.98.98 0 0 0 .25-.85q-.98-5.37-2.68-10.63-.28-.9-.02-1.4a1.43 1.33 62.3 0 1 2.55.9q-.02.4.41.71.16.11.72-.17 1.83-.93 2.15-.57a.12.12 0 0 0 .18 0zm6.77 32.88a.36.36 0 0 1-.61.3q-1.15-1.1-1.68-2.5a.35.35 0 0 0-.67.16q.25 2.12.84 3.62a1.47 1.47 0 0 0 1.84.85l4.8-1.64a1.45 1.45 0 0 0 .93-1.75l-4.03-15.18a.68.67 58.9 0 0-1.15-.29l-2.26 2.47a.35.34 32.6 0 1-.38.08l-.01-.01a.24.22 36.6 0 1-.05-.26l2.4-5.09a2.85 2.85 0 0 0 .17-1.92l-1.15-4.33a.78.77-4.8 0 0-.68-.57l-1.03-.09a.47.47 0 0 1-.32-.76q1.66-2.11.24-5.1a.45.45 0 0 0-.85.15l-.37 4.18a.49.49 0 0 1-.53.44l-.36-.03a.63.62-4.6 0 1-.55-.46l-.23-.84a.57.56-18.3 0 0-.77-.38q-1.5.62-2.58-.94a.54.54 0 0 0-.98.39q.75 5.16 3.08 9.42a2.37 2.22 31.4 0 1 .28 1.01q.21 4.71 1.29 7.4c.59 1.49.24 4.29 1.48 5.37a.84.84 0 0 1 .28.78q-.2 1.13.21 1.88a.72.72 0 0 0 1.34-.21q.21-1.06.47-1.56a1.09.99 61.2 0 1 1.92.66q-.01 1.19-1.28 1.02a.46.46 0 0 0-.37.79q1.11 1.01 1.32 2.94zm-8.09-30.25q1.83.25 2.25-.81a.46.46 0 0 0-.45-.63q-1.03.05-1.95 1.04a.24.24 0 0 0 .15.4zm161.55-5.67l.57 2.24q-2.64 7.03-5.47 10.15-3.15 3.47-6.15 7.03a.55.55 0 0 1-.85-.01l-.26-.31a.47.47 0 0 1 .02-.62l5.88-6.27a4.6 4.35 84 0 0 .55-.72l3.18-5.06q.02-.04.04-.08l2.49-6.35zm-245.4 3.96a1.16.6-66 0 1-.1-1.77q.39-.48.83-.28.78.37.44 1-.39.74-1.17 1.05z" class="C"/><path d="M320.51 274.35q-.21-1.93-1.32-2.94a.46.46 0 0 1 .37-.79q1.27.17 1.28-1.02a1.09.99 61.2 0 0-1.92-.66q-.26.5-.47 1.56a.72.72 0 0 1-1.34.21q-.41-.75-.21-1.88a.84.84 0 0 0-.28-.78c-1.24-1.08-.89-3.88-1.48-5.37q-1.08-2.69-1.29-7.4a2.37 2.22 31.4 0 0-.28-1.01q-2.33-4.26-3.08-9.42a.54.54 0 0 1 .98-.39q1.08 1.56 2.58.94a.57.56-18.3 0 1 .77.38l.23.84a.63.62-4.6 0 0 .55.46l.36.03a.49.49 0 0 0 .53-.44l.37-4.18a.45.45 0 0 1 .85-.15q1.42 2.99-.24 5.1a.47.47 0 0 0 .32.76l1.03.09a.78.77-4.8 0 1 .68.57l1.15 4.33a2.85 2.85 0 0 1-.17 1.92l-2.4 5.09a.24.22 36.6 0 0 .05.26l.01.01a.35.34 32.6 0 0 .38-.08l2.26-2.47a.68.67 58.9 0 1 1.15.29l4.03 15.18a1.45 1.45 0 0 1-.93 1.75l-4.8 1.64a1.47 1.47 0 0 1-1.84-.85q-.59-1.5-.84-3.62a.35.35 0 0 1 .67-.16q.53 1.4 1.68 2.5a.36.36 0 0 0 .61-.3zm-6.2-26.729a1.14.76-92 0 0-.72 1.166 1.14.76-92 0 0 .799 1.113 1.14.76-92 0 0 .72-1.166 1.14.76-92 0 0-.799-1.113zm-1.89-3.521a.24.24 0 0 1-.15-.4q.92-.99 1.95-1.04a.46.46 0 0 1 .45.63q-.42 1.06-2.25.81z" class="B"/><g class="C"><ellipse cx="0" cy="0" transform="matrix(-.034899 -.999391 .999391 -.034899 314.35 248.76)" rx="1.14" ry=".76"/><path d="M461.68 252.63a.14.14 0 0 1-.13.15l-.05.01a1.73 1.7-6.2 0 1-1.9-1.51l-.01-.1a1.73 1.7-6.2 0 1 1.54-1.87l.05-.01a.14.14 0 0 1 .15.13l.35 3.2zm-21.83 42.27l.74-.06a.62.54 19.4 0 0 .28-.11q4.02-2.81 6.67-4.17c1.28-.65.97-1.5.75-2.67a.81.8 60.6 0 1 .19-.7q.4-.46.82-.42a.53.53 0 0 1 .47.63q-.08.44-.08.45a.96.96 0 0 0 1.82-.55q-.29-2.25.82-2.77a.52.52 0 0 1 .68.23q1.1 2.05.85 3.01a.33.33 0 0 0 .47.37q.56-.3.58-.66c.05-.7-.74-1.77-.83-2.83a1.32 1.31-25.7 0 1 .36-1.02c1.9-1.99 3.87-2.59 5.52-4.59a.53.51 71.5 0 1 .9.46q-.08.38.18.55a.4.39 44 0 0 .43 0q1.95-1.31 1.69-3.29a.81.75 59.6 0 1 .12-.54q.18-.28.52-.4a.47.47 0 0 1 .63.44v.77a.29.28 72.9 0 0 .44.24q1.1-.77.59-1.59a.51.51 0 0 1 .08-.64l3.59-3.59a.43.43 0 0 1 .74.3v.5a1.9 1.89-26.4 0 1-.39 1.15q-1.5 1.94-2.65 3.85a.51.48 11.2 0 0 .52.72q.32-.03.37-.41a.14.14 0 0 1 .26-.04q.31.67-.32 1.45-1.25 1.53-2.91 2.18a1.18 1.16.5 0 0-.64.62q-.42.94-1.16 1.43-2.47 1.63-4.29 3.54a.68.68 0 0 1-1.15-.66q.76-2.59 2.71-2.97a1.24 1.22 13.1 0 0 .73-.45c1.25-1.61 4.19-1.94 4.95-3.98a.3.3 0 0 0-.43-.36q-1.52.87-2.82 2.53a1.99 1.95 9.1 0 1-.92.65q-3.32 1.12-5.38 3.54a.79.79 0 0 0-.07.91q.47.79.47.83a2.81 2.26-11.6 0 1-2.19 2.65q-1.14.28-1.67 1.39a1.64 1.57 88.8 0 1-.66.72l-2.77 1.6a1.11 1.04-1.1 0 0-.38.37q-.62 1.03-1.62 1.18a.55.54-84.2 0 1-.59-.73l.2-.53a.37.34 43.1 0 0-.02-.3q-.41-.81-1.33.31-.21.24.08 1 .29.77-.26 2.1a.4.4 0 0 1-.66.12q-.53-.54-.63-1.11-.09-.53-.49-.64-.91-.23-1.09.42a.39.37 31 0 0 .1.37l.71.71a.66.66 0 0 1-.14 1.04l-.51.3a.67.66-28.8 0 1-.92-.26q-.58-1.1-2.2-.97a.62.61-1.3 0 1-.66-.63q0-.25.69-.94a.15.13 17.3 0 1 .11-.05zm12.61-6.39l-.34.54a1.07 1.06 13.1 0 1-.76.47q-1.23.14-1.62.84a.67.67 0 0 0 .39.95l.17.05a.84.84 0 0 0 1.05-.57q.3-1.02 1.42-1.5a.26.25-9.3 0 0 .14-.19l.03-.43a.26.26 0 0 0-.48-.16z"/></g><path d="M452.94 288.67l-.03.43a.26.25-9.3 0 1-.14.19q-1.12.48-1.42 1.5a.84.84 0 0 1-1.05.57l-.17-.05a.67.67 0 0 1-.39-.95q.39-.7 1.62-.84a1.07 1.06 13.1 0 0 .76-.47l.34-.54a.26.26 0 0 1 .48.16z" class="B"/><g class="C"><ellipse cx="0" cy="0" transform="matrix(.799685 -.60042 .60042 .799685 346.53 339.4)" rx=".92" ry=".59"/><path d="M322.91 348.96q-.45-.43-.09-1.03a.62.61-82.7 0 0-.7-.91l-5.39 1.66a.51.51 0 0 0 .05.98q1.05.21 1.48 1.08l-4.37 1.09a.88.77-48.9 0 1-.22.03q-1.52.01-2.88.96a.43.32 8 0 1-.09.05l-7.99 2.74a1.7 1.64 7.9 0 0-.78.57q-.71.96.28 1.84a.37.36 60 0 1-.16.63q-.36.08-.55-.02a.26.25 9.3 0 1-.14-.19q-.24-1.47-1.08-2.17a1.04 1.03 57.8 0 0-.9-.21q-1.58.4-2.57 1.2a1.76 1.74-66.8 0 1-.93.38q-1.85.17-3.87 1.07a2.26 2.14-55.5 0 1-.89.19q-2.05.01-4.25.94a1.1 1.01-19.3 0 1-1.46-.63q-.06-.25.14-.74a.23.23 0 0 0-.25-.32l-12.64 2.32a1.26 1.24-21.3 0 1-1.28-.55l-.25-.38a.7.7 0 0 1 .43-.93l6.62-2.16a.78.65 31.7 0 1 .21-.03c1.08.04 7.25-.78 8.46-2.51a.87.86 10.1 0 1 .48-.33l7.43-1.79a.32.32 0 0 1 .37.42l-.27.69a.88.88 0 0 1-.7.55l-5.06.61a.72.69 19.9 0 0-.32.14q-.33.26-.39.66a.5.5 0 0 0 .61.57l6.91-1.67a.38.38 0 0 0 .25-.55q-.57-1.07-.4-1.87a.62.62 0 0 1 .78-.46q.35.1.47.19.16.12.47-.05 1.67-.94 3.05-1a.44.44 0 0 1 .29.78l-1.61 1.33a.18.18 0 0 0 .13.32q.87-.08 1.81-.84a.66.66 0 0 0 .2-.71l-.13-.37a.25.25 0 0 1 .08-.28q1.77-1.52 4.03-1.9 4.51-.75 8.72-2.59a2.97 2.96-60.1 0 1 .92-.25q4.57-.53 8.55-2.98.2-.12 1.85-.29a.19.19 0 0 1 .15.33q-1.01.94-1.35 2.31a.72.72 0 0 0 .93.85l4.08-1.39a.44.44 0 0 1 .52.18q1.15 1.8-.78 3.04a1.55 1.45 20.4 0 1-.53.22l-5.48 1.18z"/></g><path d="M322.91 348.96q-2.64 1.49-4.65 1.78-.43-.87-1.48-1.08a.51.51 0 0 1-.05-.98l5.39-1.66a.62.61-82.7 0 1 .7.91q-.36.6.09 1.03z" class="B"/><path d="M475.94 375.32q.55-.52.38-1.07a.84.84 0 0 1 .28-.92c.62-.49 1.27-1.83 2.36-1.9q.71-.06 1.04-.91.23-.6.93-1.12 1.61-1.19 2.77-3.02a.41.41 0 0 1 .74.32l-.42 1.73a1.36 1.31 76.9 0 1-.4.67l-6.91 6.42a.69.69 0 0 0-.1.91q.28.39.97.83a.72.72 0 0 1 .2 1.01q-.08.12-.36.28a.71.7 61.9 0 0-.28.94q.52 1.04 1.96 7.57.35 1.59 1.31 2.8a1.17 1.16 31.6 0 1 .23.94q-.33 1.68.31 3.45a.53.52 67.2 0 0 .72.3c.55-.27.57-1.47 1.42-2.05q1.57-1.08 2.76-2.59a1.19 1.19 0 0 1 .92-.46q.18 0 .31-.01a.44.43 77.6 0 0 .37-.58q-.23-.61-.05-1.51a.28.28 0 0 1 .49-.13q1.66 1.9 1.1 3.22a4.44 4.38 79.6 0 1-1 1.47l-8.36 8.16a.3.3 0 0 1-.51-.24q.17-1.94 2.18-3.61a.27.27 0 0 0-.28-.45l-.77.36a.61.61 0 0 1-.86-.45q-.63-4.05-.94-4.89-1.18-3.22-2.1-7.78-.28-1.41-.86-3.08-.4-1.18-.41-3.17 0-.99-.58-1.07a.44.44 0 0 1-.36-.51q.11-.61.53-.8a.47.46 64.8 0 1 .62.23l.31.65a.21.21 0 0 0 .34.06zm4.9-1.03l.06-.02a2.03 2.03 0 0 1 2.5 1.25c1.53 4.23 1.9 6.89.01 9.66q-.51.75-1.26.78a2.02 1.96-89.7 0 1-2.03-2.11q.16-3.36-.75-6.97a2.17 2.17 0 0 1 1.47-2.59zm1.76 4.58q-.5-1.12-.56-2.29a1.18 1.14 23.2 0 0-.3-.72q-.24-.26-.45-.34a.73.57 74.9 0 0-.5 1.18q.87 1.01 1.23 2.53a.2.19-6.4 0 0 .21.16l.06-.01a.36.36 0 0 0 .31-.51z" class="C"/><path d="M482.6 378.87a.36.36 0 0 1-.31.51l-.06.01a.2.19-6.4 0 1-.21-.16q-.36-1.52-1.23-2.53a.73.57 74.9 0 1 .5-1.18q.21.08.45.34a1.18 1.14 23.2 0 1 .3.72q.06 1.17.56 2.29z" class="B"/><g class="C"><path d="M510.93 395.05q.75 6.67-1.77 12.56-7.39 17.31-22.92 29.9-.69.18-1.31.68a.47.47 0 0 0-.02.72q.48.44 1.39.56.56 3.78-2.17 5.15-1.36-.68.74-2.62a.41.41 0 0 0-.11-.67q-.11-.05-.34-.02-.35.04-.72.4-1.35 1.28-2.01 2.67a.4.4 0 0 1-.72 0l-.31-.64a.58.57 51.3 0 1 .06-.58q1.11-1.48 2.98-2.6a.3.3 0 0 0 .12-.38l-.24-.51a.26.26 0 0 0-.4-.09l-3.95 3.24a.62.61-47.5 0 0 .04.98q4.15 2.82 2.32 9.34.03 1.44-.95 2.5a.86.85-60.8 0 1-.84.24q-1.46-.39-2.52.09-.15-.11-.17-.31a.32.31-83.4 0 1 .41-.33q.54.18.59.15a.37.37 0 0 0-.05-.69q-.49-.14-2.35-.27-1.37-.09-2.95-1.56a.95.94 28 0 1-.27-.86q.27-1.43-.69-3.05a.46.46 0 0 0-.68-.12l-.7.58a.54.54 0 0 0-.15.64l1.42 3.02a.65.65 0 0 1-.92.84q-1.73-1.02-2.14-2.72a.56.56 0 0 0-.9-.3l-3.99 3.27a1.01 1 58 0 0-.27 1.2l.25.53a.43.43 0 0 0 .71.11q.58-.66.9-2.05a.86.83-7.1 0 1 .46-.57l.26-.12a.52.52 0 0 1 .73.53q-.25 2.03-1.58 3.09a1.17 1.16-25.1 0 0-.41 1.12q.13.67-.65 1.91a.76.76 0 0 0 .65 1.16h7.28a.72.72 0 0 1 .72.72v.6a.65.65 0 0 1-.65.65h-11.47a.82.82 0 0 1-.35-1.56l1.1-.52a.53.53 0 0 0 .18-.82q-1.56-1.86-2.39-.52a.79.73 62.7 0 0-.11.4v5.96a1.12 1.11-4.2 0 0 1.28 1.1q2.55-.37 4.2.09a.44.44 0 0 1-.12.87h-2.48a.47.47 0 0 0-.39.74q.56.81.56.83a.96.95-79.7 0 1-.91.64q-2.83-.06-3.92-2.63a1.02 1-81.4 0 0-.26-.36l-2.85-2.42a.33.32 40.5 0 1-.04-.45l.17-.2a.78.77-51.5 0 1 1.05-.12q.68.49 1.29.64a.41.41 0 0 0 .44-.63q-.05-.07-.16-.19a.56.52 24.7 0 1-.15-.37v-1.87a.58.56 7.2 0 0-.44-.55q-1.06-.25-.69-1.52a.31.31 0 0 0-.42-.37q-1.01.44-1.55 1a.4.39 31.3 0 0 .16.65q.75.25 1.15.19a.87.86 78.5 0 1 .98.65l.07.32a.49.48-19.4 0 1-.27.55l-2.2 1.04a.73.72 73.1 0 0-.41.78q.22 1.33 2.32 2.76a.5.5 0 0 1-.08.86q-.41.19-1.46-.18-.64-.22-.99-1.02-.82-1.82-2.75-2.34a.5.5 0 0 1-.26-.8q.61-.75 1.78-.26a.44.44 0 0 0 .6-.47q-.11-.7-.36-1.14a.54.54 0 0 0-.7-.22q-6.33 2.91-11.32 6.9-30.91 15.49-63 27.01-.5 0-.73-.33a.63.63 0 0 1 .26-.93q2.69-1.25 5.53-2.26 3.13-1.11 3.4-1.48a.9.86-78.4 0 1 .46-.32q4.11-1.16 5.54-1.86 6-2.94 14.89-6.07 1.97-.7 2.89-1.47a2.74 2.72-72.7 0 1 1.04-.55q2.79-.77 6.22-2.84a5.54 5.38 20.8 0 1 1.23-.53q4.29-1.23 8.02-3.86a1.44.79-47.4 0 1 .16-.09l5.34-2.3a.29.29 0 0 0 .03-.52q-.02-.01-.27-.08a.19.19 0 0 1-.13-.24q.47-1.6 2.07-1.98a.6.59-17.7 0 1 .69.35q.03.1-.12.51a.48.47-5.2 0 0 .69.57l24.36-14.06a.39.39 0 0 0-.19-.73q-.3-.01-.31-.02a.42.42 0 0 1-.06-.63q.8-.8 2.12-1.25a.45.45 0 0 1 .58.32q.05.16.05.28a.14.14 0 0 0 .21.11l8.58-5.23a.67.67 0 0 0-.04-1.16q-.15-.08-.24-.37a.61.6-2.9 0 1 .69-.75q.76.13.92.49a.27.27 0 0 0 .38.12l2.75-1.58a.08.08 0 0 0 .03-.1l-.14-.3a.25.25 0 0 0-.34-.12l-1.11.53a.36.36 0 0 1-.49-.45q.74-2.01 2.85-3.03a.4.4 0 0 1 .51.58q-.25.38-.36.63a.52.51 81.8 0 0 .8.6l7.91-6.48a1.15 1.15 0 0 0 .42-.93q-.08-1.89 1.94-3.59a.36.35 77.2 0 1 .57.36l-.35 1.42a.31.31 0 0 0 .5.3q7.79-6.68 14.36-15.19 4.21-5.44 6.53-10.67.7-1.58 1.19-3.7a.44.44 0 0 0-.34-.52q-.43-.09-.35-.44.86-3.5 2.82-8.7zM478.3 443.9q-.56-.16-1.01.32-.31.32.06.59.17.12.59-.05a.6.36-36.6 0 0 .36-.86zm.477 2.402a2.95 1.28-92.2 0 0-1.166 2.997 2.95 1.28-92.2 0 0 1.392 2.899 2.95 1.28-92.2 0 0 1.166-2.997 2.95 1.28-92.2 0 0-1.392-2.899zm-17.395 11.369a1.11.59-144.9 0 0 .569 1.121 1.11.59-144.9 0 0 1.247.156 1.11.59-144.9 0 0-.569-1.121 1.11.59-144.9 0 0-1.247-.156z"/><circle cx="336.94" cy="411.56" r=".81"/><path d="M310.45 422.81a.78.78 0 0 1 .43-1.21l3.07-.82a1.02 1.02 0 0 1 1.25.73l.77 2.92a.29.28 70.8 0 0 .38.19l.29-.12a1.22 1.22 0 0 1 1.28 2.03q-1.59 1.44-3.31.83a.89.88-77.6 0 1-.58-.91l.05-.55a.46.46 0 0 0-.66-.46q-1.02.48-1.5.37a.74.73-85.4 0 1-.57-.68q-.06-1.17-.9-2.32zm15.81 4.59a.46.46 0 0 1-.89-.15v-2.15a.83.81 77.5 0 1 .46-.74q.73-.37 1.44-.16a1.11.96-48.2 0 1-.03 1.92q-.65.35-.98 1.28z"/><rect x="-1.86" y="-1.13" transform="matrix(.921185 -.389124 .389124 .921185 304.82 429.32)" width="3.72" height="2.26" rx="1.05"/><path d="M474.23 440.68q-.22 0-.26-.03a1.64 1.36-58.1 0 1-.24-1.73c.81-1.88 3.2-4.05 5.06-5.23q2.26-1.44 4.4-3.98a.25.24-29.2 0 1 .43.12q.12.73-.06 1.52a1.87 1.83 79.1 0 1-.71 1.07q-3.65 2.68-7.51 6.17-1.15 1.03-.94 1.86a.18.18 0 0 1-.17.23z"/></g><g class="B"><path d="M486.24 437.51q-1 .77.06 1.96-.91-.12-1.39-.56a.47.47 0 0 1 .02-.72q.62-.5 1.31-.68zm-2.11 7.11q-1.58 1.89-1.64 3.88-.08 3.08-.9 4.64 1.83-6.52-2.32-9.34a.62.61-47.5 0 1-.04-.98l3.95-3.24a.26.26 0 0 1 .4.09l.24.51a.3.3 0 0 1-.12.38q-1.87 1.12-2.98 2.6a.58.57 51.3 0 0-.06.58l.31.64a.4.4 0 0 0 .72 0q.66-1.39 2.01-2.67.37-.36.72-.4.23-.03.34.02a.41.41 0 0 1 .11.67q-2.1 1.94-.74 2.62zm-5.83-.72a.6.36-36.6 0 1-.36.86q-.42.17-.59.05-.37-.27-.06-.59.45-.48 1.01-.32z"/><ellipse cx="0" cy="0" transform="matrix(-.038388 -.999263 .999263 -.038388 478.89 449.25)" rx="2.95" ry="1.28"/><path d="M477.28 455.97q.02 1.02.19 1.26 3.77 5.25.41 10.61a1.12 1.11 53.1 0 0-.12.9q.54 1.71 1.76 2.93l-1.46 2.83a.89.89 0 0 1-1.68-.3c-.29-2.39-.14-5.48-3.04-5.64a.64.64 0 0 0-.59.95q1.42 2.51 1.11 5.85a.57.56 1.6 0 1-.56.52q-1.61.02-1.74-.11a.32.31-23.6 0 1 .21-.53q1.78-.14.98-2.38-.71-2.03-.63-3.49a.82.82 0 0 0-.44-.76q-2.05-1.04-2.15.87l-.57-.49q-.38-.22-.92-.09l-3.41.12a1.69 1.68-70.9 0 0-1.22.6l-.7.82a2.6 2.59 33.1 0 1-3.11.65l-4.63-2.27a.12.06-16.8 0 0-.05-.01q-8.27-1.39-14.95-.23 4.99-3.99 11.32-6.9a.54.54 0 0 1 .7.22q.25.44.36 1.14a.44.44 0 0 1-.6.47q-1.17-.49-1.78.26a.5.5 0 0 0 .26.8q1.93.52 2.75 2.34.35.8.99 1.02 1.05.37 1.46.18a.5.5 0 0 0 .08-.86q-2.1-1.43-2.32-2.76a.73.72 73.1 0 1 .41-.78l2.2-1.04a.49.48-19.4 0 0 .27-.55l-.07-.32a.87.86 78.5 0 0-.98-.65q-.4.06-1.15-.19a.4.39 31.3 0 1-.16-.65q.54-.56 1.55-1a.31.31 0 0 1 .42.37q-.37 1.27.69 1.52a.58.56 7.2 0 1 .44.55v1.87a.56.52 24.7 0 0 .15.37q.11.12.16.19a.41.41 0 0 1-.44.63q-.61-.15-1.29-.64a.78.77-51.5 0 0-1.05.12l-.17.2a.33.32 40.5 0 0 .04.45l2.85 2.42a1.02 1-81.4 0 1 .26.36q1.09 2.57 3.92 2.63a.96.95-79.7 0 0 .91-.64q0-.02-.56-.83a.47.47 0 0 1 .39-.74h2.48a.44.44 0 0 0 .12-.87q-1.65-.46-4.2-.09a1.12 1.11-4.2 0 1-1.28-1.1v-5.96a.79.73 62.7 0 1 .11-.4q.83-1.34 2.39.52a.53.53 0 0 1-.18.82l-1.1.52a.82.82 0 0 0 .35 1.56h11.47a.65.65 0 0 0 .65-.65v-.6a.72.72 0 0 0-.72-.72h-7.28a.76.76 0 0 1-.65-1.16q.78-1.24.65-1.91a1.17 1.16-25.1 0 1 .41-1.12q1.33-1.06 1.58-3.09a.52.52 0 0 0-.73-.53l-.26.12a.86.83-7.1 0 0-.46.57q-.32 1.39-.9 2.05a.43.43 0 0 1-.71-.11l-.25-.53a1.01 1 58 0 1 .27-1.2l3.99-3.27a.56.56 0 0 1 .9.3q.41 1.7 2.14 2.72a.65.65 0 0 0 .92-.84l-1.42-3.02a.54.54 0 0 1 .15-.64l.7-.58a.46.46 0 0 1 .68.12q.96 1.62.69 3.05a.95.94 28 0 0 .27.86q1.58 1.47 2.95 1.56 1.86.13 2.35.27a.37.37 0 0 1 .05.69q-.05.03-.59-.15a.32.31-83.4 0 0-.41.33q.02.2.17.31zm-4.469 9.468a.7.7 0 0 0-.684-.716l-11.637-.264a.7.7 0 0 0-.716.684l-.005.24a.7.7 0 0 0 .684.716l11.637.264a.7.7 0 0 0 .716-.684l.005-.24z"/><ellipse cx="0" cy="0" transform="matrix(-.81815 -.575005 .575005 -.81815 462.29 458.31)" rx="1.11" ry=".59"/></g><g class="C"><path d="M302.39 474.85q.54.18 1.09.03 11.41-3.03 20.01-5.68c1.59-.48 3.09-1.52 5.08-1.57a5.01 4.84 33.7 0 0 1.49-.27l22.53-7.71a.69.69 0 0 0 .34-.25l.26-.34a.37.37 0 0 1 .65.12q.11.4-.13.78a.64.64 0 0 0 0 .66l.97 1.69a.5.5 0 0 1-.27.72l-2.84.97a1.21 1.2-1.1 0 0-.76.78q-.05.17-.07.34a.41.4 26.8 0 1-.68.22q-.67-.64-1.68-.96a.97.94-58.1 0 0-.97.24l-1.4 1.4a1.61 1.6 17.9 0 1-.89.45q-5.91.98-12.03 3.62a6.51 6.49-61.5 0 1-1.45.43q-2.51.43-3.96 1.21a1.17 1.07 28 0 1-.55.14h-1.29a2.43 2.41 33.3 0 0-.94.19q-4.97 2-6.14 2.2-5.04.82-6.93 2.1c-1.24.85-4.89.6-6.72 1.41q-1.39.61-5.27 1.6a.64.63 73.4 0 1-.75-.41q-.35-1.04.37-2.53a.46.45-60 0 1 .66-.18q.9.6 1.93-.26.43-.37.3-.54-.23-.32-.23-.34a.21.21 0 0 1 .27-.26z"/><rect x="-6.52" y="-.82" transform="matrix(.999743 .022687 -.022687 .999743 466.29 465.41)" width="13.04" height="1.64" rx=".7"/><path d="M479.52 471.67q.98.72.99 1.84c1.01 6.1-4.23 5.77-8.27 5.96q-1.69.08-2.04-1.9-1.54-1.93 0-3.35.3-.27.33-.56.04-.33-.03-.69.37-1.06-.27-.94-.53-1.07-.7-2.55.1-1.91 2.15-.87a.82.82 0 0 1 .44.76q-.08 1.46.63 3.49.8 2.24-.98 2.38a.32.31-23.6 0 0-.21.53q.13.13 1.74.11a.57.56 1.6 0 0 .56-.52q.31-3.34-1.11-5.85a.64.64 0 0 1 .59-.95c2.9.16 2.75 3.25 3.04 5.64a.89.89 0 0 0 1.68.3l1.46-2.83zm-10.56-2.68l-.92-.09q.54-.13.92.09z"/></g><path d="M470.5 472.97q-.24-.4-.27-.94.64-.12.27.94zm-.3 4.6q.35 1.98 2.04 1.9c4.04-.19 9.28.14 8.27-5.96q2.2 4.44-2.55 6.13c-2.43.87-8.21 2.19-7.76-2.07z" class="B"/><ellipse cx="0" cy="0" transform="matrix(.836764 -.547563 .547563 .836764 389.24 486.9)" rx="1.04" ry=".65" class="C"/></svg>