<?xml version="1.0" encoding="UTF-8" standalone="no"?>
<!-- Created with Inkscape (http://www.inkscape.org/) -->

<svg
   version="1.1"
   id="svg1"
   width="512"
   height="444"
   viewBox="0 0 512 444"
   xmlns="http://www.w3.org/2000/svg"
   xmlns:svg="http://www.w3.org/2000/svg"
   xmlns:rdf="http://www.w3.org/1999/02/22-rdf-syntax-ns#"
   xmlns:cc="http://creativecommons.org/ns#"
   xmlns:dc="http://purl.org/dc/elements/1.1/">
  <title
     id="title1">Sentinel-4 Icon SVG</title>
  <defs
     id="defs1" />
  <g
     id="g1">
    <path
       style="fill:currentColor"
       d="m 67.766795,435.04066 c -3.378093,-3.94655 -19.862634,-26.83809 -40.178322,-55.79433 -5.886084,-8.38952 -10.444093,-15.67092 -10.12891,-16.1809 0.315184,-0.50998 0.04619,-1.25286 -0.59776,-1.65084 -0.800714,-0.49487 -0.903245,-0.27963 -0.324353,0.6809 0.722698,1.19914 0.592417,1.19831 -0.891001,-0.006 -0.955607,-0.77562 -1.508183,-2.00772 -1.227946,-2.73801 0.280236,-0.73028 -0.03679,-1.22069 -0.704491,-1.08978 -0.667707,0.1309 -1.219751,-0.51774 -1.226766,-1.44142 -0.007,-0.92368 -0.416661,-2.04868 -0.910325,-2.5 -0.518736,-0.47424 -0.58834,-0.18748 -0.164912,0.67942 0.402962,0.825 -0.373811,0.20667 -1.7261643,-1.37406 C 6.929381,350.40397 6.3785496,345.32551 9,347.30271 c 0.825,0.62224 1.676625,1.24782 1.892501,1.39016 0.215875,0.14234 -0.143476,0.90461 -0.798559,1.69394 -0.8118269,0.97819 -0.8571989,1.64147 -0.1425003,2.08318 0.5767073,0.35642 1.0829883,0.50899 1.1250693,0.33903 0.04208,-0.16996 0.233316,-1.13775 0.424965,-2.15065 0.191649,-1.0129 0.678918,-2.1379 1.082818,-2.5 0.403901,-0.3621 0.45732,0.11472 0.118709,1.0596 -0.33861,0.94489 -0.177968,1.98849 0.356983,2.3191 0.534951,0.33062 0.759064,0.9467 0.498028,1.36906 -0.261035,0.42236 0.239243,1.7871 1.111728,3.03275 1.258537,1.79681 1.775134,1.98547 2.499995,0.91297 0.742289,-1.09829 0.883615,-1.0705 0.753478,0.14815 -0.508224,4.75923 2.85219,5.45471 7.326785,1.51636 3.034769,-2.67107 3.562093,-5.2675 1.25,-6.15473 -0.825,-0.31659 -1.5,-1.44159 -1.5,-2.5 0,-1.05842 -0.675,-2.18342 -1.5,-2.5 C 21.526845,346.60446 21.572175,345 23.566722,345 25.785394,345 32,340.0536 32,338.28769 c 0,-0.81121 -0.907239,-1.71218 -2.016087,-2.00215 -1.108849,-0.28997 -1.955531,-1.03534 -1.881518,-1.65638 0.340592,-2.85786 -0.209067,-3.83453 -1.908001,-3.39025 -1.492217,0.39023 -1.732864,-0.0234 -1.3865,-2.38336 C 25.156058,326.48335 24.869252,326 23.113499,326 21.951075,326 21,326.45 21,327 c 0,0.55 -0.675,1 -1.5,1 -0.825,0 -2.5125,1.0125 -3.75,2.25 -1.2375,1.2375 -2.475,2.28886 -2.75,2.33637 -1.928897,0.33318 -3.8949788,1.77454 -3.4352394,2.51841 C 9.8690609,335.59715 9.3899187,336 8.5,336 c -0.9807297,0 -1.3332375,0.46081 -0.8949721,1.16994 0.4795135,0.77587 0.1871894,0.9643 -0.8678699,0.55944 -0.8951936,-0.34352 -2.1695488,0.10343 -2.9140449,1.02202 C 2.8632227,339.93576 2.8431516,340.17776 3.75,339.63294 4.5366072,339.16036 5,339.45992 5,340.44098 5,341.29844 5.4362969,342 5.9695486,342 c 0.5332518,0 0.9105357,1.56975 0.8384087,3.48834 -0.1071548,2.85032 -0.3842552,3.27826 -1.5150576,2.33978 -0.7611547,-0.6317 -1.1690572,-1.70847 -0.9064499,-2.39281 0.3146587,-0.81999 -0.351792,-1.15323 -1.9544911,-0.9773 C 0.28525901,344.69366 0,344.33057 0,341.36249 0,339.51312 0.50004883,338 1.1112196,338 c 0.6111708,0 3.1986708,-1.73772 5.75,-3.86159 2.5513292,-2.12388 6.0768884,-4.59782 7.8345764,-5.49765 1.757688,-0.89983 8.732688,-5.61197 15.5,-10.47142 C 36.963108,313.30989 53.75,301.51905 67.5,291.96748 c 13.75,-9.55157 30.457732,-21.31157 37.12829,-26.13332 6.67056,-4.82175 16.12056,-11.41603 21,-14.65395 4.87944,-3.23793 14.45514,-10.23731 21.27933,-15.55418 6.82419,-5.31688 13.50246,-9.94183 14.84059,-10.27768 3.6011,-0.90382 8.53905,0.88663 28.34356,10.27706 9.84586,4.66848 18.91557,8.7355 20.1549,9.03784 4.42209,1.07875 14.27634,1.40697 15.58666,0.51913 0.79076,-0.53579 1.33334,-2.79759 1.33334,-5.55818 0,-4.0108 -0.68707,-5.58646 -4.9664,-11.38948 C 219.46875,224.53063 214.19341,216.775 210.47729,211 206.76116,205.225 202.65854,198.90081 201.36035,196.94625 200.06216,194.99169 199,192.64502 199,191.73143 199,189.87665 196.11414,188 193.26191,188 c -2.53601,0 -7.36159,-5.27098 -11.30549,-12.349 l -3.25908,-5.849 12.24656,-11.57316 12.24657,-11.57315 -2.59524,-1.35978 c -3.81785,-2.00038 -3.19491,-3.57331 0.76063,-1.92058 3.17923,1.32837 3.61346,1.24169 8.25,-1.64685 2.69178,-1.67696 7.14414,-3.84242 9.89414,-4.81212 6.3543,-2.24066 6.46938,-4.18146 0.30028,-5.06391 -8.58236,-1.22766 -8.84059,-2.81485 -1.68834,-10.37729 7.16879,-7.57994 12.23264,-9.86367 19.89852,-8.97395 5.30991,0.61628 6.46653,0.4093 10.31475,-1.84591 5.87254,-3.44154 7.28463,-5.21556 5.68536,-7.14257 -1.91926,-2.31256 -0.72796,-3.859373 6.78364,-8.80804 4.85304,-3.197199 7.29473,-5.521066 8.0364,-7.648617 C 269.67901,84.622348 270.47021,84 272.71585,84 c 1.55093,0 4.49544,-1.138573 6.54335,-2.530162 3.61671,-2.457621 3.81605,-2.482285 6.95272,-0.860251 3.21415,1.662105 3.27146,1.648316 12.25866,-2.9496 4.96618,-2.540731 10.64455,-4.860431 12.61859,-5.154889 l 3.58916,-0.535379 -0.75261,-4.23486 C 313.51178,65.405687 312.85667,62.4875 312.46992,61.25 311.93525,59.539202 312.1637,59 313.42321,59 c 5.21686,0 14.65946,8.165809 20.02013,17.313096 C 334.95402,78.890893 336.54988,81 336.98969,81 c 0.4398,0 3.81553,-0.931513 7.50161,-2.070029 7.44531,-2.299621 9.5137,-1.938131 4.51342,0.788806 -1.79638,0.979672 -5.34483,3.131223 -7.88544,4.781223 -4.2487,2.759326 -4.62795,3.340955 -4.72733,7.25 -0.0978,3.844729 0.11986,4.25 2.28211,4.25 3.63786,0 8.62713,-2.397219 16.91787,-8.1286 8.75693,-6.053661 10.59759,-8.26813 9.73363,-11.710398 -0.55715,-2.219869 -0.37633,-2.406057 1.77709,-1.829821 1.31854,0.35283 3.18485,0.647654 4.14735,0.655164 6.20607,0.04842 -5.90476,12.616844 -18.25,18.939553 -4.675,2.394337 -9.02527,4.76471 -9.66726,5.267495 -0.83459,0.653628 2.12306,6.099937 10.37804,19.110377 6.34991,10.00793 12.11874,18.81123 12.81963,19.56289 2.22669,2.38801 3.52535,-2.06616 4.56807,-15.66765 0.53544,-6.98446 1.15119,-13.21717 1.36833,-13.85047 0.21714,-0.63331 -0.47406,-1.37868 -1.53601,-1.65638 -2.44474,-0.63932 -2.47765,-3.08776 -0.0726,-5.4032 1.42118,-1.36826 2.10956,-4.342373 2.92719,-12.646907 0.58796,-5.971871 0.84567,-11.439998 0.57268,-12.151393 -0.54695,-1.425332 7.35722,-7.900895 12.14196,-9.94741 1.65,-0.705733 8.4,-5.079739 15,-9.720013 6.6,-4.640275 18.86452,-13.136297 27.2545,-18.88005 8.38997,-5.743753 22.99183,-15.737756 32.44858,-22.208895 13.80968,-9.4498048 17.43874,-11.5165727 18.43706,-10.5000002 1.26661,1.2897679 24.5036,70.6011172 27.88519,83.1760002 l 1.85829,6.910292 -5.94181,5.348366 c -3.268,2.9416 -14.67838,12.20697 -25.3564,20.58971 -28.99926,22.76574 -44.68854,35.27459 -53.47341,42.63362 -4.3384,3.63424 -8.30935,6.48407 -8.82433,6.33294 -0.51498,-0.15112 -0.71318,0.0863 -0.44044,0.52759 0.27274,0.4413 -1.26881,2.55654 -3.42567,4.70053 -4.39627,4.37005 -4.49278,4.97712 -2.76117,17.36908 1.07053,7.661 1.42827,8.52479 4.50128,10.86869 1.83608,1.40045 3.33833,2.87063 3.33833,3.26706 0,1.12336 -3.61158,2.44133 -15.37633,5.61127 l -10.87634,2.93056 0.74252,8.5 c 0.40839,4.675 0.90122,10.90942 1.09517,13.85426 0.19396,2.94484 1.181,6.76984 2.19341,8.5 1.49437,2.55378 2.48311,3.14574 5.25426,3.14574 2.9777,0 3.82048,0.61948 6.60108,4.85204 4.37842,6.66473 7.94912,10.26405 14.14269,14.25607 3.00927,1.9396 5.7224,4.57378 6.31428,6.13055 1.47073,3.86831 -0.28135,15.60062 -3.24979,21.76134 -1.88803,3.91841 -2.44714,6.8222 -2.58471,13.42373 -0.14592,7.00237 -0.64637,9.36445 -2.96589,13.99885 -2.48423,4.96348 -3.61265,6.03286 -10.28575,9.74754 -4.12247,2.29483 -7.63202,4.0358 -7.799,3.86882 -0.16698,-0.16699 2.00992,-2.51055 4.83755,-5.20793 l 5.14116,-4.90431 -2.19093,-3.71335 c -1.98331,-3.36145 -3.06861,-4.16256 -5.20739,-3.84377 -0.39271,0.0585 -0.50994,-0.45067 -0.26051,-1.13158 0.24943,-0.6809 0.027,-1.90924 -0.49434,-2.72964 -1.38278,-2.17609 -2.6861,-0.45098 -5.48121,7.25511 l -2.39808,6.61149 1.92407,3.77396 c 1.05825,2.07568 1.92408,4.05526 1.92408,4.39906 0,0.85561 -15.47248,8.3541 -21.36811,10.35572 -4.70522,1.59747 -4.82022,1.58646 -6.67652,-0.63912 -1.03886,-1.24552 -1.9038,-1.87367 -1.9221,-1.39589 -0.0183,0.47778 -1.54422,-0.28377 -3.39094,-1.69233 -2.51735,-1.92008 -3.64356,-2.27513 -4.5,-1.41869 -0.85644,0.85644 -1.14233,0.8003 -1.14233,-0.22434 0,-0.75166 -0.24894,-1.11772 -0.55321,-0.81345 -0.30427,0.30426 0.78152,2.51069 2.41286,4.90316 3.03387,4.44939 3.16306,5.87696 0.53184,5.87696 -0.81977,0 -8.10571,1.59159 -16.19099,3.53687 -8.08527,1.94528 -15.57392,3.72562 -16.64144,3.95632 -4.52415,0.97767 -8.34375,-2.56354 -20.84013,-19.3212 -24.6696,-33.08198 -33.85091,-46.39089 -33.15782,-48.0644 1.94345,-4.69255 2.05947,-4.62581 -7.45509,-4.28797 l -9.00133,0.31962 0.59269,-7.06962 C 259.2241,275.7869 259.09602,275 257.54669,275 c -0.95886,0 -6.47136,-4.94104 -12.25001,-10.98009 -9.21479,-9.63003 -10.86308,-10.94107 -13.4056,-10.66272 -1.59443,0.17455 -3.23469,0.68773 -3.64502,1.14041 -0.41033,0.45268 -0.0711,0.43952 0.75394,-0.0292 1.29308,-0.73472 1.31067,-0.61888 0.12756,0.83967 -1.53449,1.89172 -3.64605,2.33992 -2.53207,0.53745 0.45596,-0.73775 0.27275,-0.88209 -0.50751,-0.39986 -0.67157,0.41505 -0.97635,0.99934 -0.67727,1.29841 0.29907,0.29908 -0.79599,2.06967 -2.43347,3.93466 -1.63748,1.86499 -3.00887,3.93773 -3.04753,4.6061 -0.0386,0.66836 -0.45702,0.3152 -0.92971,-0.7848 -0.58913,-1.37098 -0.89133,0.35883 -0.96086,5.5 -0.0558,4.125 -0.36224,10.54384 -0.68103,14.2641 -0.34497,4.02592 -0.16618,7.2644 0.44166,8 1.78115,2.15551 2.46506,8.37255 1.18428,10.7657 -0.95245,1.77968 -1.37941,1.95556 -2.07622,0.8553 -0.59791,-0.94409 -0.88208,-0.23783 -0.89252,2.21821 -0.0277,6.52712 -1.2848,15.89669 -2.13277,15.89669 -0.4579,0 -0.55343,-1.39555 -0.2123,-3.10122 0.42327,-2.11635 0.17715,-3.38178 -0.775,-3.98468 -2.51299,-1.59123 -2.9715,-0.96225 -1.44726,1.98531 1.28987,2.49432 1.30176,3.0634 0.0851,4.07312 -0.77783,0.64553 -1.16342,1.82728 -0.85689,2.62611 0.42821,1.11588 0.87784,1.18642 1.94056,0.30444 1.73721,-1.44175 1.74147,-0.69627 0.0196,3.42473 -0.74998,1.79497 -4.23748,5.75923 -7.75,8.80947 C 196.99054,342.99397 162.6673,370.34108 139,388.6324 90.915229,425.7948 73.336988,439 71.952615,439 c -0.438223,0 -2.321842,-1.7817 -4.18582,-3.95934 z M 28.429973,367.88669 C 27.421139,366.25437 26,366.97708 26,369.12244 c 0,1.76626 0.24988,1.91507 1.48899,0.8867 0.818944,-0.67967 1.242386,-1.63477 0.940983,-2.12245 z m 7.694115,-0.15336 c -0.987616,-0.98026 -1.10248,-0.8654 -0.559795,0.5598 0.375531,0.98622 0.934692,1.54122 1.242579,1.23333 0.307887,-0.30789 6.34e-4,-1.11479 -0.682784,-1.79313 z m -5.485199,-1.3757 c -0.07639,-0.90331 0.486249,-1.86168 1.250307,-2.12973 0.847605,-0.29736 1.116991,-0.0469 0.690983,0.64237 C 32.196162,365.49162 32.358524,366 32.940983,366 33.523442,366 34,365.325 34,364.5 c 0,-1.90204 -1.924191,-1.87152 -4.495129,0.0713 -1.711473,1.29333 -1.78256,1.64206 -0.5,2.45288 0.822321,0.51986 1.557629,0.9521 1.634018,0.96052 0.07639,0.008 0.07639,-0.72376 0,-1.62706 z m -4.375954,-2.52619 c 1.124842,0.19056 1.690661,-0.0975 1.331855,-0.67807 -0.343107,-0.55516 0.282703,-1.2971 1.390689,-1.64876 1.962912,-0.62301 2.655448,-2.53035 1.381353,-3.80444 C 29.414482,356.74781 21,363.11857 21,364.79196 c 0,1.2381 0.244503,1.25001 1.653624,0.0805 0.909493,-0.75481 2.533683,-1.22329 3.609311,-1.04106 z M 25,365 c 0,-0.55 -0.198442,-1 -0.440983,-1 -0.242541,0 -0.719098,0.45 -1.059017,1 -0.339919,0.55 -0.141476,1 0.440983,1 C 24.523442,366 25,365.55 25,365 Z m 15.94457,-5.53426 c 0.616035,0.38073 0.792302,0.0121 0.436987,-0.9138 C 40.74649,356.89698 39,356.40669 39,357.88337 c 0,0.48585 -0.9,1.11872 -2,1.40638 -1.1,0.28766 -2,1.02551 -2,1.63968 0,0.68853 0.941674,0.49967 2.456024,-0.49257 1.350813,-0.88509 2.920659,-1.32209 3.488546,-0.97112 z m -3.500547,-3.86319 c 2.813099,-1.90902 3.200903,-2.52483 1.903531,-3.02268 -2.078179,-0.79747 -5.556393,0.2732 -4.810137,1.48067 0.311552,0.5041 -0.0864,0.66603 -0.884329,0.35983 C 32.000165,353.78609 30.571544,355.49773 31.5,357 c 0.928938,1.50305 2.062662,1.23651 5.944023,-1.39745 z m 5.73931,0.18078 C 42.465771,355.06577 42,355.00673 42,355.63333 c 0,1.33478 1.18261,2.51739 1.85,1.85 0.284167,-0.28416 -0.01583,-1.04916 -0.666667,-1.7 z m 1.54999,-6.67346 c -0.07926,-1.05222 -0.688684,-1.68049 -1.374709,-1.41724 -0.677781,0.26009 -0.987598,1.11065 -0.688483,1.89013 0.792096,2.06417 2.229486,1.73471 2.063192,-0.47289 z M 39.28841,332.99862 c 0.765039,-1.09224 1.688117,-1.68876 2.051285,-1.32559 C 41.702863,332.0362 42,331.83489 42,331.22568 c 0,-0.6092 -0.469712,-1.39794 -1.043805,-1.75275 -1.284235,-0.7937 -4.14077,1.4194 -3.393247,2.62892 0.29751,0.48138 -0.162548,0.60529 -1.022351,0.27536 -1.176179,-0.45135 -1.413302,-0.13899 -0.957605,1.26145 0.458229,1.40822 0.366488,1.52585 -0.376856,0.48322 -0.540391,-0.75796 -1.504692,-1.0554 -2.142891,-0.66097 -0.876995,0.54202 -0.878655,1.05658 -0.0068,2.1071 1.362293,1.64147 4.062267,0.52829 6.231963,-2.56939 z m -4.23625,-3.55414 c 2.136222,-2.27391 2.182981,-2.48531 0.424314,-1.91837 -1.85207,0.59706 -1.866324,0.5464 -0.226474,-0.80472 2.951825,-2.43209 1.945226,-2.76913 -1.753195,-0.587 C 29.51008,328.48661 28.617899,329.57273 29.5,331 c 1.040165,1.68302 3.03466,1.12423 5.55216,-1.55552 z m -3.23966,-0.12759 c 0.721875,-0.28887 1.584375,-0.25335 1.916667,0.0789 0.332291,0.33229 -0.258334,0.56864 -1.3125,0.52522 -1.164943,-0.048 -1.4019,-0.28494 -0.604167,-0.60416 z m 177.53047,-4.9162 c -1.64,-2.50297 -1.64031,-2.7101 -0.006,-3.90533 1.49325,-1.0919 1.55596,-1.64892 0.4648,-4.12877 -0.69373,-1.57662 -1.70746,-3.17962 -2.25273,-3.56222 -1.80818,-1.26874 0.13052,-1.8766 2.7766,-0.87056 1.43181,0.54437 2.81147,0.65293 3.06591,0.24123 0.25444,-0.41169 1.03093,-12.49107 1.72555,-26.84307 1.09184,-22.55959 1.06783,-26.28155 -0.17722,-27.47507 -0.79208,-0.75929 -7.27167,-4.14514 -14.39909,-7.52411 -11.79253,-5.59061 -13.07759,-5.99458 -14.27725,-4.48818 -1.20642,1.51487 -1.29478,1.49522 -1.04106,-0.23152 0.20558,-1.39912 -1.33162,-2.77577 -5.94637,-5.32532 C 172.89798,236.76384 171,236.69784 171,240 c 0,3.19095 -1.87824,3.24856 -3.78324,0.11604 -1.34345,-2.20914 -2.19055,-2.74478 -3.2654,-2.06482 -2.13848,1.35284 -2.51725,1.19696 -3.76941,-1.55122 -0.63895,-1.40236 -1.98157,-2.5 -3.05795,-2.5 -1.58532,0 -0.007,3.43308 9.08037,19.75 14.30598,25.68753 14.02493,25.22632 15.00389,24.62129 0.46271,-0.28597 0.71764,-0.12552 0.56652,0.35657 -0.393,1.25364 4.40302,11.27214 5.39616,11.27214 0.45598,0 0.82906,0.5074 0.82906,1.12757 0,0.99409 13.90568,26.75977 19.28432,35.7317 1.66986,2.78545 2.16561,3.08813 2.90219,1.77193 0.59489,-1.06301 0.31625,-2.46045 -0.84354,-4.23051 z M 193,299 c 0,-0.55 0.45,-1 1,-1 0.55,0 1,0.45 1,1 0,0.55 -0.45,1 -1,1 -0.55,0 -1,-0.45 -1,-1 z m 6,-11 c 0,-0.55 0.45,-1 1,-1 0.55,0 1,0.45 1,1 0,0.55 -0.45,1 -1,1 -0.55,0 -1,-0.45 -1,-1 z m 11,-26 c 0,-0.55 0.45,-1 1,-1 0.55,0 1,0.45 1,1 0,0.55 -0.45,1 -1,1 -0.55,0 -1,-0.45 -1,-1 z M 31,325.98469 c 1.278689,-0.83941 1.292069,-1.11858 0.09068,-1.89217 -0.775124,-0.49911 -2.125124,-0.68166 -3,-0.40567 -1.385934,0.43722 -1.397607,0.36293 -0.09068,-0.5772 0.927155,-0.66695 1.045167,-1.08487 0.309017,-1.09434 -1.626199,-0.0209 -2.604872,1.77132 -1.929015,3.53258 0.643483,1.67689 2.468143,1.8494 4.619998,0.4368 z m 3.664167,-3.55191 c 0.330769,-0.86197 0.02542,-2.09947 -0.678563,-2.75 -1.013099,-0.93618 -1.147417,-0.80709 -0.644237,0.61916 0.3779,1.07114 0.23481,1.55416 -0.352821,1.19098 -0.5437,-0.33602 -1.486589,-0.30315 -2.095309,0.0731 -0.77153,0.47683 -0.695806,0.94441 0.25,1.54371 1.977988,1.25331 2.844135,1.08679 3.52093,-0.67691 z M 404.12207,316.325 c -1.17884,-2.02721 -1.46351,-1.37835 -0.49853,1.13634 0.34294,0.8937 0.83419,1.41426 1.09166,1.15679 0.25747,-0.25747 -0.009,-1.28938 -0.59313,-2.29313 z m -365.629149,0.68645 c 0.350339,-0.56686 -0.05106,-0.7345 -0.940983,-0.39301 C 35.819521,317.28323 35.502551,318 36.940983,318 c 0.517541,0 1.215913,-0.44485 1.551938,-0.98855 z M 349.57872,280.22619 c -1.72194,-1.64929 -1.74325,-1.62798 -0.47833,0.47833 0.72815,1.21249 1.53915,1.98927 1.80223,1.72619 0.26308,-0.26308 -0.33267,-1.25511 -1.3239,-2.20452 z m -0.0681,-6.14808 c 1.26135,-1.53562 1.44042,-2.11905 0.48934,-1.5943 -2.92412,1.61332 -3.97063,2.75469 -3.38885,3.69603 0.32401,0.52427 0.66136,0.81078 0.74964,0.63669 0.0883,-0.17409 1.05573,-1.40638 2.14987,-2.73842 z m -1.5894,-1.47527 c 1.15893,-1.02565 2.83061,-1.20246 6.28659,-0.66494 2.58932,0.40273 5.28932,0.36335 6,-0.0875 0.95706,-0.60717 0.83832,-0.82373 -0.45785,-0.83507 -0.9625,-0.008 -1.75,-0.69031 -1.75,-1.51531 0,-0.825 0.70714,-1.5 1.57143,-1.5 1.42857,0 1.42857,-0.14286 0,-1.57143 C 358.70714,265.56429 358,264.50903 358,264.08356 c 0,-1.1906 3.57505,-4.15155 4.33948,-3.59408 0.37245,0.27162 0.19314,-0.0649 -0.39847,-0.74781 -0.8427,-0.97276 -1.35566,-0.86267 -2.36857,0.50833 -0.71111,0.9625 -2.48082,1.75 -3.93268,1.75 -2.11761,0 -2.63976,0.47335 -2.63976,2.39301 0,2.82309 -2.36182,4.0189 -5.07244,2.56822 C 346.57003,266.2347 346,266.25322 346,267.02383 c 0,0.60181 -0.51953,0.77312 -1.15451,0.38068 -0.6991,-0.43207 -0.8837,-0.27535 -0.46797,0.39731 0.37759,0.61096 1.34712,0.85734 2.15451,0.54752 0.92862,-0.35635 1.46797,0.0488 1.46797,1.10269 0,1.00467 -0.45829,1.38276 -1.15451,0.95248 -0.7153,-0.44208 -0.88306,-0.27432 -0.44098,0.44098 0.39244,0.63498 0.23697,1.15451 -0.34549,1.15451 -0.58246,0 -1.05902,0.45 -1.05902,1 0,1.3921 1.06272,1.24762 2.92126,-0.39716 z M 351,264.55902 c 0,-1.34254 -0.45,-2.7191 -1,-3.05902 -0.58342,-0.36058 -1,0.65628 -1,2.44098 0,1.68246 0.45,3.05902 1,3.05902 0.55,0 1,-1.09844 1,-2.44098 z m -10.44615,-2.47189 c -0.36954,-0.59792 -1.20783,-1.08024 -1.86287,-1.07182 -0.78303,0.0101 -0.71893,0.31431 0.18714,0.8882 0.8162,0.51698 1.06219,1.42814 0.60329,2.23469 -0.59939,1.05346 -0.48963,1.09851 0.48475,0.19893 0.69277,-0.63957 0.95723,-1.65207 0.58769,-2.25 z M 361,264 c 0,-0.55 -0.45,-1 -1,-1 -0.55,0 -1,0.45 -1,1 0,0.55 0.45,1 1,1 0.55,0 1,-0.45 1,-1 z m -140.98369,-3.48992 c 0.46502,0.2874 1.10373,0.10471 1.41935,-0.40598 0.31563,-0.51069 -0.19138,-0.81622 -1.12669,-0.67894 -0.9353,0.13727 -1.83745,0.88527 -2.00476,1.66221 -0.2061,0.95702 -0.1154,1.00747 0.2812,0.1564 0.32198,-0.69093 0.96588,-1.02109 1.4309,-0.73369 z m -0.3332,-12.69758 c -0.31922,-0.79773 -0.55618,-0.56078 -0.60416,0.60417 -0.0434,1.05416 0.19292,1.64479 0.52522,1.3125 0.33229,-0.3323 0.36781,-1.1948 0.0789,-1.91667 z m -33.31928,-7.30676 c -0.31537,-0.82184 -1.02429,-1.21559 -1.57538,-0.875 -0.6161,0.38078 -0.47947,0.95034 0.35479,1.47895 1.82081,1.15372 1.88322,1.12284 1.22059,-0.60395 z M 170,238.53518 c 0,-2.70431 -1.99483,-4.15339 -6.90954,-5.01924 -2.99778,-0.52814 -3.118,-0.43591 -2.04509,1.56883 0.83362,1.55763 1.43746,1.8324 2.24727,1.02259 1.86631,-1.86631 3.40692,-1.24689 4.70736,1.89264 1.50978,3.64494 2,3.77612 2,0.53518 z m 1,-4.92819 c 0,-0.21616 -0.69837,-0.661 -1.55194,-0.98855 -0.88992,-0.34149 -1.29132,-0.17385 -0.94098,0.39301 0.58726,0.95021 2.49292,1.40545 2.49292,0.59554 z m -7,-3.99036 c 0,-0.90929 -3.89829,-1.29567 -5.1393,-0.50937 -0.92513,0.58614 -0.32034,0.86702 1.8893,0.87743 1.7875,0.008 3.25,-0.15721 3.25,-0.36806 z M 412.45633,166.123 c -0.34265,-0.34265 -1.13471,-0.623 -1.76013,-0.623 -0.62542,0 -1.70112,-1.125 -2.39044,-2.5 l -1.25332,-2.5 0.22378,3.12129 c 0.15961,2.22627 0.62926,2.96609 1.63782,2.58006 0.84396,-0.32302 1.14578,-0.10715 0.74863,0.53545 -0.42528,0.68811 0.0712,0.88406 1.37561,0.54294 1.12258,-0.29356 1.7607,-0.8141 1.41805,-1.15674 z m 4.02026,0.91488 c 0.32704,-0.52917 -2.26518,-8.29167 -5.76049,-17.25 -3.49532,-8.95833 -11.48953,-29.45348 -17.76492,-45.54478 -6.2754,-16.091287 -11.86912,-29.092854 -12.43049,-28.892366 -0.56138,0.200488 -0.8757,1.216091 -0.69848,2.256895 0.17721,1.040804 0.46781,4.74509 0.64577,8.231746 0.29651,5.809373 0.16507,6.297928 -1.57221,5.84362 -1.28751,-0.336691 -1.91135,0.0357 -1.94433,1.160625 -0.0267,0.911009 -0.48816,6.15638 -1.02547,11.65638 -1.20073,12.29102 -1.18663,14.90656 0.0827,15.33333 1.71857,0.57784 1.08389,3.27044 -0.69782,2.96051 -1.50337,-0.26152 -1.65862,0.75124 -1.41122,9.20616 0.15289,5.225 0.75671,10.07886 1.34182,10.78636 C 376.35705,144.13537 404.57702,163 405.47938,163 405.76572,163 406,162.1 406,161 c 0,-1.1 0.64468,-2 1.43261,-2 0.78794,0 1.71826,0.9 2.06739,2 0.34913,1.1 1.26362,2 2.0322,2 1.57966,0 3.73319,3.40128 2.76595,4.36852 -0.34732,0.34731 -0.13304,0.63148 0.47617,0.63148 0.6092,0 1.37523,-0.43295 1.70227,-0.96212 z M 378.54271,138.0691 c -0.31644,-0.512 -0.11799,-1.21356 0.44098,-1.55902 0.55897,-0.34546 1.01631,0.0734 1.01631,0.9309 0,1.75653 -0.60006,2.01516 -1.45729,0.62812 z M 378,122 c 0,-0.55 0.45,-1 1,-1 0.55,0 1,0.45 1,1 0,0.55 -0.45,1 -1,1 -0.55,0 -1,-0.45 -1,-1 z m 19,0 c 0,-0.55 0.45,-1 1,-1 0.55,0 1,0.45 1,1 0,0.55 -0.45,1 -1,1 -0.55,0 -1,-0.45 -1,-1 z m -22,22.60699 c 0,-0.21616 -0.69837,-0.661 -1.55194,-0.98855 -0.88992,-0.34149 -1.29132,-0.17385 -0.94098,0.39301 0.58726,0.95021 2.49292,1.40545 2.49292,0.59554 z m 4.28567,-56.622574 C 378.99578,86.875845 378.3629,85.724287 377.87929,85.425399 376.46837,84.553398 376.86591,83 378.5,83 c 1.76308,0 1.88337,-0.924479 0.39035,-3 -0.91077,-1.266118 -0.99124,-1.227138 -0.51607,0.25 0.63559,1.975808 -0.93179,2.433569 -1.712,0.5 -0.27741,-0.6875 -0.53991,0.640139 -0.58333,2.95031 -0.0684,3.639281 1.16462,5.800103 3.57743,6.269281 0.086,0.01673 -0.0808,-0.876604 -0.37071,-1.985175 z M 361.29822,346.10591 c -0.9277,-1.48547 -0.92696,-1.87445 0.003,-1.73792 1.6534,0.24267 2.10493,0.9127 1.61187,2.39188 -0.28487,0.85461 -0.80442,0.64425 -1.61516,-0.65396 z M 18.5,341 c -0.339919,-0.55 -0.141476,-1 0.440983,-1 C 19.523442,340 20,340.45 20,341 c 0,0.55 -0.198442,1 -0.440983,1 -0.242541,0 -0.719098,-0.45 -1.059017,-1 z M 15,335.5 c 0,-0.825 0.45,-1.5 1,-1.5 0.55,0 1,0.675 1,1.5 0,0.825 -0.45,1.5 -1,1.5 -0.55,0 -1,-0.675 -1,-1.5 z m 381.65792,-1.94907 c -0.37092,-0.96661 -0.0755,-1.26467 0.88726,-0.89522 0.79383,0.30462 1.19436,0.95671 0.89006,1.44907 -0.76643,1.24011 -1.13272,1.12596 -1.77732,-0.55385 z M 403.5,331 c -0.33992,-0.55 0.11008,-1 1,-1 0.88992,0 1.33992,0.45 1,1 -0.33992,0.55 -0.78992,1 -1,1 -0.21008,0 -0.66008,-0.45 -1,-1 z M 354,101.89418 C 354,101.29513 356.44901,100 357.58179,100 357.8118,100 358,100.64703 358,101.43785 c 0,0.8214 -0.85746,1.37326 -2,1.2872 -1.1,-0.0829 -2,-0.45675 -2,-0.83087 z M 364,98.5 c 0,-0.825 0.45,-1.5 1,-1.5 0.55,0 1,0.675 1,1.5 0,0.825 -0.45,1.5 -1,1.5 -0.55,0 -1,-0.675 -1,-1.5 z M 270,79.118034 c 0,-1.65 0.45,-3.278115 1,-3.618034 0.58179,-0.359563 1,0.63661 1,2.381966 0,1.65 -0.45,3.278115 -1,3.618034 -0.58179,0.359563 -1,-0.63661 -1,-2.381966 z M 293.5,1 c -0.33992,-0.55 0.33508,-1 1.5,-1 1.16492,0 1.83992,0.45 1.5,1 -0.33992,0.55 -1.01492,1 -1.5,1 -0.48508,0 -1.16008,-0.45 -1.5,-1 z M 255.25,0.31067449 c 0.9625,-0.25152755 2.5375,-0.25152755 3.5,0 0.9625,0.25152754 0.175,0.45732281 -1.75,0.45732281 -1.925,0 -2.7125,-0.20579527 -1.75,-0.45732281 z"
       id="path1" />
  </g>
  <metadata
     id="metadata1">
    <rdf:RDF>
      <cc:Work
         rdf:about="">
        <dc:title>Sentinel-4 Icon SVG</dc:title>
        <dc:source>https://www.eoportal.org/api/cms/documents/163813/6584772/Sentinel-4_50.jpg/1f875470-3c1a-c939-ed9b-bef6aed29e80?t=1668130609504</dc:source>
      </cc:Work>
    </rdf:RDF>
  </metadata>
</svg>
