<?xml version="1.0" encoding="UTF-8" standalone="no"?>
<svg xmlns="http://www.w3.org/2000/svg" version="1.2" baseProfile="tiny" viewBox="0.00 0.00 1080.00 444.00" width="1080.00" height="444.00">
<path fill="#181819" d="
  M 8.41 0.00
  Q 32.29 1.08 52.97 4.08
  C 66.80 6.09 90.94 10.14 109.19 12.49
  Q 162.04 19.31 163.30 19.46
  Q 186.68 22.18 191.96 22.60
  Q 197.34 23.02 202.48 24.25
  A 3.05 3.03 3.0 0 1 204.78 26.79
  Q 205.03 28.66 205.19 31.00
  Q 205.63 37.67 206.38 69.50
  Q 207.42 113.66 208.41 160.82
  Q 208.46 163.27 208.17 166.67
  C 207.95 169.25 208.00 173.65 209.68 175.38
  A 2.22 2.21 75.5 0 0 210.71 175.99
  Q 218.56 178.03 225.63 181.78
  Q 222.64 182.11 227.80 183.52
  A 1.36 1.36 0.0 0 0 228.73 183.44
  L 229.54 183.07
  Q 230.03 183.04 230.44 183.17
  Q 230.15 183.09 230.03 183.32
  A 0.19 0.17 29.8 0 0 230.10 183.55
  Q 232.57 185.05 234.73 184.20
  Q 255.70 187.79 261.78 188.44
  Q 269.17 189.23 273.76 189.79
  Q 280.96 190.67 285.73 191.12
  Q 298.95 192.36 311.79 194.68
  Q 316.13 197.50 321.33 196.09
  Q 325.13 196.67 329.26 197.04
  Q 334.73 197.54 350.75 199.56
  Q 356.38 200.28 358.65 201.09
  Q 373.43 204.01 378.19 204.56
  Q 392.27 206.18 407.48 208.47
  C 409.86 208.83 412.17 208.96 414.59 209.22
  Q 416.15 209.38 419.82 210.29
  Q 426.14 211.85 432.57 211.50
  Q 433.39 211.55 434.43 213.03
  A 1.42 1.41 83.6 0 0 435.06 213.54
  Q 436.59 214.18 437.69 213.38
  A 1.16 1.15 38.2 0 1 438.83 213.25
  Q 441.58 214.43 443.45 212.25
  L 443.19 215.45
  C 440.00 217.71 439.90 219.81 438.59 222.83
  L 439.11 218.39
  A 2.22 2.20 -83.9 0 0 437.14 215.93
  Q 433.06 215.53 428.91 214.80
  Q 422.60 213.69 420.58 213.52
  Q 410.35 212.66 390.68 210.22
  Q 385.22 209.54 382.37 208.87
  C 378.74 208.02 375.24 208.28 371.23 207.55
  Q 354.73 204.54 336.14 202.38
  Q 333.65 202.10 325.19 201.90
  Q 323.77 201.86 314.54 200.25
  Q 307.72 199.06 303.91 198.58
  C 296.92 197.71 292.62 196.70 286.87 195.99
  Q 275.32 194.56 255.45 191.28
  A 9.96 9.82 47.8 0 0 253.28 191.16
  C 247.90 191.42 242.96 189.97 238.17 189.86
  Q 233.49 189.75 222.27 188.00
  Q 218.79 187.46 215.51 185.77
  Q 214.50 185.24 211.83 186.02
  A 1.04 0.97 -47.0 0 1 211.41 186.05
  L 209.19 185.74
  A 1.23 1.23 0.0 0 0 207.80 186.79
  Q 207.48 189.20 207.68 192.25
  C 208.42 203.13 209.54 214.87 209.58 228.26
  Q 209.62 241.85 210.20 265.38
  Q 210.32 270.56 211.01 283.60
  Q 211.66 296.06 211.10 308.56
  A 1.91 1.91 0.0 0 1 208.93 310.37
  C 204.78 309.80 200.30 309.50 196.72 308.87
  C 163.63 303.01 131.63 299.91 100.69 294.86
  Q 92.09 293.46 77.34 291.78
  Q 61.26 289.95 55.19 288.91
  C 43.65 286.94 34.15 285.20 23.96 284.11
  Q 15.83 283.24 14.74 283.02
  C 11.72 282.40 9.35 282.19 9.20 278.75
  C 8.84 270.36 7.86 256.27 7.85 246.41
  C 7.84 227.21 7.06 208.59 6.64 190.53
  Q 5.86 157.21 5.26 132.00
  Q 4.59 104.06 4.01 91.66
  Q 3.48 80.47 3.41 71.84
  C 3.35 63.00 2.61 54.27 2.38 45.39
  C 2.01 30.80 1.88 15.99 1.01 1.19
  A 0.60 0.58 -7.3 0 1 1.49 0.58
  L 4.26 0.00
  L 8.41 0.00
  Z
  M 216.3698 180.8483
  A 1.37 1.37 0.0 0 0 215.0386 179.4406
  L 214.3589 179.4216
  A 1.37 1.37 0.0 0 0 212.9512 180.7528
  L 212.8702 183.6517
  A 1.37 1.37 0.0 0 0 214.2014 185.0594
  L 214.8811 185.0784
  A 1.37 1.37 0.0 0 0 216.2888 183.7472
  L 216.3698 180.8483
  Z"
/>
<path fill="#d9d9d6" d="
  M 508.58 100.26
  L 498.57 109.06
  A 2.88 2.88 0.0 0 1 494.26 108.48
  L 493.39 107.14
  A 3.82 3.82 0.0 0 1 493.94 102.30
  L 498.18 98.23
  C 500.02 96.87 502.10 95.08 504.48 95.72
  Q 507.36 96.50 508.58 100.26
  Z"
/>
<path fill="#181819" d="
  M 498.18 98.23
  L 493.94 102.30
  A 3.82 3.82 0.0 0 0 493.39 107.14
  L 494.26 108.48
  A 2.88 2.88 0.0 0 0 498.57 109.06
  L 508.58 100.26
  Q 509.54 101.94 509.19 103.72
  Q 508.97 104.82 507.42 106.63
  Q 506.28 107.96 505.39 109.44
  C 503.70 108.59 502.60 110.69 501.97 111.85
  A 2.23 2.22 -64.4 0 1 499.15 112.85
  L 496.02 111.55
  A 1.60 1.54 47.9 0 0 495.03 111.48
  Q 491.78 112.39 489.31 110.86
  A 1.40 1.40 0.0 0 0 488.26 110.69
  Q 485.78 111.25 483.13 110.96
  L 483.79 109.09
  Q 485.18 109.04 486.59 108.50
  A 0.86 0.86 0.0 0 0 487.13 107.72
  Q 487.14 107.09 486.90 106.40
  C 486.32 104.72 487.20 103.79 488.75 103.32
  Q 490.25 103.04 490.85 102.06
  L 498.18 98.23
  Z"
/>
<path fill="#17181d" d="
  M 490.85 102.06
  Q 490.25 103.04 488.75 103.32
  Q 488.60 103.13 488.51 103.09
  Q 489.48 102.18 490.85 102.06
  Z"
/>
<path fill="#d5c9ac" d="
  M 488.51 103.09
  Q 488.60 103.13 488.75 103.32
  C 487.20 103.79 486.32 104.72 486.90 106.40
  Q 487.14 107.09 487.13 107.72
  A 0.86 0.86 0.0 0 1 486.59 108.50
  Q 485.18 109.04 483.79 109.09
  Q 484.06 104.14 488.51 103.09
  Z"
/>
<path fill="#d5c9ac" d="
  M 616.98 125.38
  Q 619.38 128.27 623.55 128.55
  Q 627.14 128.80 625.88 131.72
  C 624.53 134.83 624.53 137.50 623.29 140.47
  Q 617.50 154.40 612.82 164.40
  A 6.34 5.75 67.0 0 0 612.39 165.64
  Q 611.71 168.56 610.44 170.98
  Q 609.55 172.66 608.06 176.78
  Q 607.04 179.61 605.48 182.55
  L 598.68 181.99
  A 1.14 1.13 -14.1 0 1 597.84 181.49
  L 597.04 180.26
  A 0.94 0.90 71.6 0 0 596.24 179.84
  Q 593.08 179.94 591.00 180.57
  A 1.10 0.95 33.3 0 1 590.62 180.62
  L 584.28 180.31
  A 0.86 0.86 0.0 0 1 583.52 179.15
  L 590.20 161.46
  Q 595.32 152.24 599.16 142.34
  Q 600.26 139.51 603.32 140.10
  Q 604.71 140.38 613.18 141.38
  A 1.05 1.05 0.0 0 0 614.35 140.39
  L 614.36 140.06
  A 1.47 1.47 0.0 0 0 613.14 138.54
  C 609.46 137.90 605.19 136.65 601.39 136.65
  Q 599.54 136.64 598.18 136.72
  L 589.70 135.57
  Q 586.11 134.63 578.51 133.99
  Q 577.47 133.90 568.51 132.22
  Q 567.13 131.97 560.77 132.23
  A 1.67 1.60 26.2 0 0 559.95 132.49
  L 555.89 135.15
  A 1.16 1.15 23.4 0 1 555.43 135.33
  Q 551.39 135.97 547.90 134.74
  A 0.79 0.79 0.0 0 0 547.01 135.01
  Q 546.29 135.99 546.20 137.48
  Q 545.85 138.50 544.72 138.24
  Q 543.06 137.86 542.59 136.22
  Q 541.74 133.32 542.47 129.64
  Q 538.17 128.41 534.34 127.94
  Q 533.10 127.79 531.79 127.62
  Q 521.82 126.33 514.87 126.15
  Q 513.50 126.12 507.42 124.66
  C 502.04 123.37 498.04 123.23 491.75 122.46
  A 1.11 1.11 0.0 0 0 490.57 123.17
  Q 485.93 135.26 481.95 144.48
  Q 481.74 144.96 481.79 145.06
  A 0.92 0.91 -45.6 0 0 483.46 145.04
  Q 484.64 142.29 486.67 138.73
  C 489.08 134.51 489.97 131.44 491.94 127.22
  Q 492.97 125.04 495.00 125.40
  Q 500.71 126.41 506.46 127.10
  Q 507.78 127.36 507.45 128.41
  Q 505.04 136.10 499.30 145.78
  Q 498.34 147.40 497.99 147.59
  C 496.45 148.40 494.67 149.02 493.98 150.40
  Q 490.28 157.80 487.69 165.15
  Q 486.66 168.05 483.26 167.79
  Q 472.66 166.96 464.09 164.97
  C 466.11 158.46 468.07 152.11 470.98 146.05
  Q 473.90 139.97 476.88 133.43
  C 478.92 128.95 482.12 124.66 483.48 119.48
  A 3.02 2.74 -42.2 0 0 483.57 118.56
  L 483.13 110.96
  Q 485.78 111.25 488.26 110.69
  A 1.40 1.40 0.0 0 1 489.31 110.86
  Q 491.78 112.39 495.03 111.48
  A 1.60 1.54 47.9 0 1 496.02 111.55
  L 499.15 112.85
  A 2.23 2.22 -64.4 0 0 501.97 111.85
  C 502.60 110.69 503.70 108.59 505.39 109.44
  L 504.70 110.53
  Q 504.22 111.08 504.39 112.22
  A 1.21 1.19 -77.1 0 0 504.88 113.01
  Q 507.68 114.96 511.93 114.19
  L 519.79 114.95
  L 521.29 114.85
  L 522.04 114.70
  L 522.81 114.58
  C 526.92 109.59 531.09 106.43 538.05 107.38
  C 541.34 107.83 542.83 108.65 545.61 110.87
  Q 550.14 114.51 554.28 115.45
  C 560.29 116.82 568.10 117.07 574.51 118.63
  C 578.25 119.53 582.69 119.63 587.54 120.53
  Q 595.99 122.08 602.49 123.08
  C 606.13 123.65 612.04 125.08 616.98 125.38
  Z
  M 606.61 125.66
  A 1.42 1.41 4.2 0 0 605.33 124.18
  Q 600.98 123.78 599.07 123.37
  Q 596.09 122.74 592.87 122.92
  Q 587.38 123.22 582.45 121.92
  A 5.36 5.14 -34.9 0 0 581.43 121.76
  Q 575.05 121.39 571.62 120.68
  Q 564.68 119.24 561.84 119.15
  Q 558.31 119.04 538.91 116.10
  Q 535.51 115.59 534.23 114.96
  C 532.31 114.01 531.08 114.13 529.62 115.56
  A 0.94 0.94 0.0 0 0 529.80 117.03
  Q 531.32 117.93 533.01 117.97
  Q 539.32 118.14 542.42 118.89
  Q 549.10 120.50 551.75 120.67
  Q 560.13 121.20 565.22 121.29
  A 5.54 5.28 -35.8 0 1 566.53 121.47
  Q 573.90 123.32 579.91 123.96
  C 583.69 124.36 587.32 126.09 591.39 125.56
  C 596.31 124.92 601.77 126.24 605.55 126.90
  A 0.89 0.89 0.0 0 0 606.59 126.07
  L 606.61 125.66
  Z
  M 494.86 131.90
  L 495.02 133.61
  A 0.41 0.41 0.0 0 0 495.46 133.98
  L 495.67 133.96
  A 2.96 1.18 -5.2 0 0 498.51 132.52
  L 498.49 132.34
  A 2.96 1.18 -5.2 0 0 495.44 131.43
  L 495.23 131.45
  A 0.41 0.41 0.0 0 0 494.86 131.90
  Z
  M 606.8552 146.6089
  A 1.72 1.44 -20.1 0 0 604.7451 145.8477
  A 1.72 1.44 -20.1 0 0 603.6248 147.7911
  A 1.72 1.44 -20.1 0 0 605.7349 148.5523
  A 1.72 1.44 -20.1 0 0 606.8552 146.6089
  Z
  M 610.12 160.14
  L 607.29 161.19
  A 0.30 0.30 0.0 0 0 607.11 161.58
  L 607.17 161.74
  A 1.91 1.73 69.6 0 0 609.46 162.92
  L 609.61 162.87
  A 1.91 1.73 69.6 0 0 610.57 160.47
  L 610.51 160.31
  A 0.30 0.30 0.0 0 0 610.12 160.14
  Z"
/>
<path fill="#17181d" d="
  M 862.82 400.99
  Q 862.06 396.88 862.40 392.95
  Q 863.65 378.50 862.19 363.71
  Q 861.22 353.83 861.39 349.98
  C 861.64 344.13 862.09 333.33 862.08 325.46
  C 862.06 315.45 862.01 311.94 862.91 300.67
  Q 863.48 293.67 862.54 279.91
  Q 861.99 271.82 859.05 267.67
  Q 861.97 263.41 858.95 261.35
  Q 859.64 260.50 859.77 258.25
  Q 860.91 238.07 860.79 225.00
  Q 860.56 199.26 860.77 192.00
  C 861.13 178.92 860.64 169.17 860.79 156.01
  Q 861.02 136.58 861.06 116.75
  Q 861.07 113.43 861.82 109.88
  A 1.78 1.77 6.8 0 1 863.61 108.48
  C 875.52 108.87 892.60 112.57 907.01 114.14
  Q 934.25 117.12 967.80 121.98
  C 971.63 122.53 976.00 122.84 980.23 123.36
  Q 1024.41 128.85 1047.25 131.82
  Q 1065.42 134.18 1072.45 135.88
  Q 1074.32 136.34 1076.08 137.25
  A 2.14 2.12 -79.6 0 1 1077.20 138.89
  Q 1077.99 145.78 1078.08 153.00
  Q 1078.25 166.75 1077.84 176.33
  C 1077.10 193.90 1077.36 207.58 1077.02 225.25
  C 1076.96 228.61 1076.54 233.05 1076.59 236.92
  Q 1076.78 252.96 1076.52 264.31
  Q 1076.02 285.93 1076.02 286.69
  C 1075.98 306.97 1075.23 336.99 1075.43 364.10
  Q 1075.62 390.47 1074.76 418.00
  Q 1074.59 423.41 1073.71 427.92
  A 1.64 1.64 0.0 0 1 1072.49 429.20
  C 1067.78 430.35 1063.58 429.24 1056.80 427.78
  Q 1052.13 426.78 1047.59 426.12
  Q 1025.28 422.84 995.29 419.13
  Q 985.49 417.91 945.46 411.64
  Q 913.12 406.57 875.02 402.91
  C 871.04 402.53 866.87 401.68 862.82 400.99
  Z"
/>
<path fill="#17181d" d="
  M 504.70 110.53
  Q 506.65 113.29 511.93 114.19
  Q 507.68 114.96 504.88 113.01
  A 1.21 1.19 -77.1 0 1 504.39 112.22
  Q 504.22 111.08 504.70 110.53
  Z"
/>
<path fill="#d9d9d6" d="
  M 635.84 121.76
  Q 635.50 123.58 633.82 124.81
  C 631.13 126.79 624.12 129.51 623.52 124.02
  Q 621.09 121.15 621.14 117.16
  A 2.20 2.16 -28.8 0 1 621.48 116.03
  Q 622.82 113.90 626.28 112.75
  Q 630.96 111.20 632.96 115.61
  Q 634.33 118.63 635.84 121.76
  Z"
/>
<path fill="#181819" d="
  M 606.61 125.66
  L 606.59 126.07
  A 0.89 0.89 0.0 0 1 605.55 126.90
  C 601.77 126.24 596.31 124.92 591.39 125.56
  C 587.32 126.09 583.69 124.36 579.91 123.96
  Q 573.90 123.32 566.53 121.47
  A 5.54 5.28 -35.8 0 0 565.22 121.29
  Q 560.13 121.20 551.75 120.67
  Q 549.10 120.50 542.42 118.89
  Q 539.32 118.14 533.01 117.97
  Q 531.32 117.93 529.80 117.03
  A 0.94 0.94 0.0 0 1 529.62 115.56
  C 531.08 114.13 532.31 114.01 534.23 114.96
  Q 535.51 115.59 538.91 116.10
  Q 558.31 119.04 561.84 119.15
  Q 564.68 119.24 571.62 120.68
  Q 575.05 121.39 581.43 121.76
  A 5.36 5.14 -34.9 0 1 582.45 121.92
  Q 587.38 123.22 592.87 122.92
  Q 596.09 122.74 599.07 123.37
  Q 600.98 123.78 605.33 124.18
  A 1.42 1.41 4.2 0 1 606.61 125.66
  Z"
/>
<path fill="#181819" d="
  M 522.81 114.58
  L 522.04 114.70
  Q 522.36 114.52 522.81 114.58
  Z"
/>
<path fill="#181819" d="
  M 521.29 114.85
  L 519.79 114.95
  L 521.29 114.85
  Z"
/>
<path fill="#181819" d="
  M 646.03 128.92
  Q 638.61 131.02 630.99 131.81
  Q 629.33 131.98 628.76 132.65
  Q 627.98 133.56 628.81 134.91
  Q 633.39 142.37 637.74 149.55
  Q 639.08 151.77 641.35 152.79
  Q 641.49 156.42 642.40 157.80
  Q 648.22 166.64 652.17 174.40
  C 654.02 178.04 656.50 180.77 658.13 183.70
  C 660.20 187.39 664.55 190.90 666.77 193.72
  C 669.06 196.63 670.30 198.94 671.46 203.03
  Q 673.20 209.14 676.44 214.08
  Q 677.99 218.91 681.93 226.07
  Q 685.17 231.95 688.29 234.96
  Q 688.44 235.24 688.74 235.46
  L 691.48 242.64
  A 4.08 3.95 12.5 0 0 692.41 244.05
  C 696.44 247.98 701.58 247.97 707.93 248.43
  Q 712.17 248.74 718.50 249.52
  Q 740.58 252.22 762.86 255.93
  A 8.69 8.64 48.5 0 0 764.57 256.04
  L 766.50 255.98
  A 6.87 5.89 43.7 0 1 767.63 256.04
  L 837.19 265.64
  Q 843.28 267.34 849.29 266.93
  A 1.61 1.59 78.1 0 1 850.90 267.99
  L 851.89 270.80
  A 1.85 1.84 46.1 0 0 855.34 270.87
  Q 856.10 268.97 859.05 267.67
  Q 861.99 271.82 862.54 279.91
  Q 863.48 293.67 862.91 300.67
  C 862.01 311.94 862.06 315.45 862.08 325.46
  C 862.09 333.33 861.64 344.13 861.39 349.98
  Q 861.22 353.83 862.19 363.71
  Q 863.65 378.50 862.40 392.95
  Q 862.06 396.88 862.82 400.99
  C 860.97 400.81 859.95 400.21 859.75 398.20
  Q 859.50 395.49 859.50 393.25
  Q 859.66 346.87 860.05 317.44
  Q 860.16 308.76 860.06 305.56
  Q 859.79 297.66 860.60 291.79
  Q 861.14 287.87 860.77 284.16
  Q 860.07 277.18 859.95 276.57
  C 859.54 274.57 857.25 274.89 856.20 273.01
  A 1.31 1.30 -9.3 0 0 855.29 272.36
  C 853.20 271.97 849.83 272.48 846.93 272.09
  C 840.49 271.23 835.64 270.13 830.50 269.53
  Q 821.78 268.52 812.45 266.88
  C 806.23 265.77 801.52 265.39 795.83 264.64
  Q 792.67 264.22 789.16 263.97
  Q 772.60 262.80 766.26 261.67
  Q 762.97 261.08 756.75 260.12
  Q 723.44 254.95 715.53 253.96
  Q 707.52 252.95 702.50 252.57
  Q 701.45 252.48 700.25 253.07
  A 1.61 1.61 0.0 0 0 699.56 255.32
  C 701.65 258.99 702.67 262.71 701.62 266.99
  Q 700.12 273.17 698.92 275.69
  Q 692.34 289.45 691.43 291.95
  Q 686.69 305.04 681.49 316.63
  C 679.59 320.85 677.76 326.28 675.57 330.99
  Q 674.89 330.47 674.26 330.52
  Q 673.52 330.59 673.37 331.44
  Q 673.14 332.78 674.71 333.55
  L 656.62 379.51
  L 653.49 377.12
  A 1.03 1.02 55.7 0 0 652.61 376.95
  Q 649.20 377.91 647.34 380.74
  A 0.88 0.87 -83.7 0 0 648.38 382.04
  Q 648.47 382.00 648.65 380.71
  Q 648.78 379.84 649.31 379.58
  C 652.00 378.29 653.51 380.02 655.41 382.05
  Q 651.65 389.75 650.25 398.21
  Q 650.40 396.94 649.46 396.34
  Q 647.59 395.13 645.12 394.07
  A 0.83 0.83 0.0 0 0 644.00 395.11
  L 644.80 397.37
  A 2.05 2.02 -84.3 0 0 645.63 398.40
  Q 647.70 399.71 650.25 398.21
  L 649.16 401.44
  Q 648.49 402.94 649.14 404.32
  L 652.55 415.64
  A 1.94 1.88 38.4 0 1 652.63 416.25
  C 652.50 421.24 650.74 424.60 649.57 428.84
  L 643.25 428.34
  A 1.77 1.77 0.0 0 0 641.34 430.02
  L 641.32 430.47
  A 1.60 1.59 85.4 0 0 643.24 432.11
  Q 645.98 431.54 648.69 432.26
  Q 646.83 437.24 643.72 440.65
  Q 642.43 438.01 641.06 435.43
  C 638.58 430.75 634.74 426.89 633.49 421.98
  A 3.20 3.18 12.5 0 0 632.40 420.28
  Q 631.07 419.21 629.95 417.36
  Q 623.94 407.39 623.09 405.96
  A 1.76 1.70 -64.5 0 1 622.85 405.24
  L 622.66 403.29
  A 1.27 1.27 0.0 0 0 622.02 402.32
  Q 620.47 401.48 618.13 397.63
  Q 612.58 388.51 607.26 379.43
  Q 607.80 376.26 612.35 375.59
  A 1.59 1.58 -2.6 0 1 614.16 377.24
  L 614.03 379.96
  A 0.70 0.70 0.0 0 0 615.39 380.23
  L 618.61 371.16
  A 1.05 1.04 -1.6 0 0 617.22 369.85
  Q 615.79 370.44 614.20 372.07
  A 1.37 1.33 -69.0 0 1 613.31 372.48
  Q 611.19 372.61 610.26 371.51
  A 0.92 0.92 0.0 0 0 608.92 371.43
  Q 606.73 373.53 605.95 376.83
  C 603.88 373.84 599.95 369.02 600.09 365.61
  Q 601.19 362.25 601.87 357.87
  Q 602.20 355.75 604.07 353.62
  L 608.73 354.55
  A 1.12 1.11 73.0 0 0 609.73 352.66
  L 608.11 351.04
  A 1.22 1.21 -56.4 0 1 607.85 349.72
  L 608.76 347.54
  A 1.80 1.10 82.6 0 0 608.83 347.33
  Q 609.69 344.22 606.47 343.70
  Q 603.65 343.25 603.21 346.30
  Q 601.39 350.17 601.08 353.57
  Q 600.48 359.96 598.43 364.54
  Q 594.33 357.94 591.00 352.38
  C 589.35 349.63 588.69 347.09 586.92 345.00
  Q 585.45 343.27 583.45 339.74
  Q 581.11 335.61 574.64 324.91
  C 573.90 323.68 573.43 322.43 572.70 320.74
  A 4.09 3.95 15.4 0 0 572.19 319.88
  C 570.26 317.43 567.30 313.67 566.44 310.62
  A 2.44 2.44 0.0 0 1 566.40 309.43
  Q 566.81 307.52 567.66 302.21
  Q 568.02 299.96 572.45 291.43
  Q 573.01 290.34 572.63 288.41
  A 0.16 0.16 0.0 0 0 572.36 288.32
  L 569.26 291.22
  A 2.12 2.04 82.0 0 0 568.76 291.91
  C 566.76 296.30 566.25 301.39 565.74 306.35
  A 0.91 0.91 0.0 0 1 564.07 306.75
  L 558.12 297.64
  A 1.10 1.09 -47.0 0 1 558.09 296.49
  Q 560.09 293.17 561.66 289.17
  C 564.61 281.66 565.98 277.49 568.47 272.25
  Q 569.65 269.79 570.35 266.73
  A 5.30 5.24 65.9 0 1 570.85 265.40
  C 572.13 263.10 572.78 262.12 573.69 259.64
  Q 576.82 251.07 577.46 249.26
  A 4.78 4.66 72.5 0 1 577.99 248.21
  Q 579.30 246.30 579.46 245.92
  Q 581.71 240.45 583.66 234.79
  Q 584.07 232.58 585.20 230.23
  C 588.92 222.47 592.07 214.61 593.67 210.62
  Q 595.50 206.07 598.16 198.89
  Q 600.43 192.75 603.34 187.31
  A 1.04 1.04 0.0 0 1 605.16 187.28
  Q 608.81 193.58 609.27 194.30
  A 1.07 0.97 39.1 0 0 611.12 194.20
  Q 611.29 193.64 610.80 192.90
  Q 607.34 187.65 605.48 182.55
  Q 607.04 179.61 608.06 176.78
  Q 609.55 172.66 610.44 170.98
  Q 611.71 168.56 612.39 165.64
  A 6.34 5.75 67.0 0 1 612.82 164.40
  Q 617.50 154.40 623.29 140.47
  C 624.53 137.50 624.53 134.83 625.88 131.72
  Q 627.14 128.80 623.55 128.55
  Q 619.38 128.27 616.98 125.38
  Q 619.92 125.70 623.52 124.02
  C 624.12 129.51 631.13 126.79 633.82 124.81
  Q 635.50 123.58 635.84 121.76
  Q 638.37 123.66 642.71 126.04
  Q 644.34 126.94 646.03 128.92
  Z
  M 622.45 165.35
  Q 625.29 167.96 627.63 167.23
  A 1.71 1.71 0.0 0 1 629.62 168.00
  L 638.01 182.54
  A 1.61 1.58 77.1 0 0 639.25 183.33
  L 639.60 183.37
  A 0.58 0.58 0.0 0 0 640.15 182.50
  L 630.97 166.60
  A 0.70 0.69 -57.7 0 1 630.88 166.19
  L 631.26 160.70
  A 0.90 0.90 0.0 0 0 629.65 160.08
  Q 629.17 160.68 628.65 162.54
  A 1.02 1.02 0.0 0 1 627.44 163.25
  Q 624.63 162.62 622.61 163.81
  A 0.96 0.96 0.0 0 0 622.45 165.35
  Z
  M 644.7581 174.5383
  A 0.83 0.83 0.0 0 0 643.6232 174.2384
  L 643.6059 174.2485
  A 0.83 0.83 0.0 0 0 643.3061 175.3834
  L 679.2619 237.1617
  A 0.83 0.83 0.0 0 0 680.3968 237.4616
  L 680.4141 237.4515
  A 0.83 0.83 0.0 0 0 680.7139 236.3166
  L 644.7581 174.5383
  Z
  M 609.84 228.65
  Q 611.13 230.78 612.11 233.79
  A 1.77 1.75 -4.7 0 0 613.53 234.98
  L 619.65 235.84
  A 0.93 0.92 0.5 0 0 620.70 234.81
  Q 620.64 234.28 620.30 233.75
  Q 617.64 229.52 615.15 225.43
  Q 612.67 221.34 610.15 217.02
  Q 609.84 216.48 609.39 216.18
  A 0.93 0.92 -63.0 0 0 608.00 216.63
  L 605.93 222.46
  A 1.77 1.75 -57.8 0 0 606.33 224.26
  Q 608.55 226.53 609.84 228.65
  Z
  M 618.14 242.76
  A 0.53 0.52 22.5 0 0 617.85 242.07
  Q 613.57 240.34 611.53 242.76
  A 2.34 2.34 0.0 0 1 607.72 242.43
  L 602.86 234.02
  A 1.15 1.15 0.0 0 0 600.80 234.15
  L 599.17 238.05
  A 3.69 3.69 0.0 0 0 599.39 241.32
  L 609.62 259.05
  A 1.00 1.00 0.0 0 0 611.41 258.93
  L 618.14 242.76
  Z
  M 695.49 247.46
  Q 687.21 245.72 678.53 244.90
  C 665.47 243.65 651.16 240.98 638.29 239.36
  Q 634.41 238.87 633.49 238.67
  A 3.38 0.09 12.2 0 0 630.52 238.11
  Q 626.69 238.16 625.80 238.29
  A 0.09 0.09 0.0 0 0 625.72 238.38
  L 625.72 238.41
  A 0.11 0.10 84.9 0 0 625.80 238.48
  L 695.31 248.30
  A 0.10 0.10 0.0 0 0 695.39 248.26
  L 695.66 247.86
  A 0.27 0.26 22.4 0 0 695.49 247.46
  Z
  M 691.26 269.49
  Q 685.09 260.63 680.41 251.22
  A 1.43 1.42 -11.7 0 0 679.20 250.43
  L 678.73 250.41
  A 0.59 0.59 0.0 0 0 678.16 251.25
  Q 680.12 255.49 682.51 258.10
  C 685.26 261.11 685.63 263.87 685.97 267.40
  A 0.83 0.83 0.0 0 1 684.93 268.29
  Q 682.57 267.68 680.83 269.14
  A 0.79 0.78 47.3 0 0 680.79 270.30
  Q 682.11 271.59 683.36 272.46
  A 2.22 2.04 -57.1 0 0 686.37 271.68
  Q 687.90 269.18 690.67 270.24
  A 0.50 0.50 0.0 0 0 691.26 269.49
  Z
  M 694.1625 252.6688
  A 0.67 0.46 -103.6 0 0 693.8729 253.4282
  A 0.67 0.46 -103.6 0 0 694.4775 253.9712
  A 0.67 0.46 -103.6 0 0 694.7671 253.2118
  A 0.67 0.46 -103.6 0 0 694.1625 252.6688
  Z
  M 634.62 265.26
  Q 632.65 263.50 633.03 262.03
  Q 634.21 260.10 635.95 260.91
  A 0.56 0.56 0.0 0 0 636.74 260.47
  L 636.80 260.07
  A 0.68 0.68 0.0 0 0 636.22 259.30
  L 634.39 259.04
  A 1.60 1.57 70.3 0 1 633.52 258.62
  L 630.90 256.17
  A 1.53 1.52 65.1 0 0 629.79 255.76
  C 627.96 255.85 625.02 256.31 624.41 258.37
  A 1.25 1.10 -41.4 0 0 624.36 258.77
  L 624.43 261.72
  A 0.92 0.92 0.0 0 1 623.56 262.67
  Q 620.49 262.84 619.95 263.22
  A 1.30 1.27 -57.9 0 1 618.98 263.45
  L 615.91 262.92
  A 0.90 0.90 0.0 0 0 614.88 264.02
  Q 615.51 266.60 617.95 267.72
  A 2.23 2.13 -30.8 0 0 618.82 267.92
  Q 623.80 267.96 629.29 269.64
  A 2.27 2.22 75.0 0 1 630.25 270.21
  C 631.49 271.44 632.12 273.96 634.81 273.61
  Q 635.98 273.45 637.25 271.66
  Q 638.53 269.87 641.00 269.28
  A 1.51 1.46 -80.3 0 0 641.94 268.59
  C 642.95 266.88 643.12 262.52 640.65 261.67
  A 1.10 0.94 -77.1 0 0 639.40 262.60
  Q 639.16 264.19 638.51 265.38
  A 1.20 1.18 -77.8 0 1 637.56 266.00
  Q 635.96 266.12 634.62 265.26
  Z
  M 622.88 257.74
  L 618.43 256.00
  A 0.46 0.46 0.0 0 0 617.83 256.26
  L 617.78 256.40
  A 2.73 2.27 21.3 0 0 619.50 259.51
  L 619.72 259.60
  A 2.73 2.27 21.3 0 0 623.09 258.47
  L 623.14 258.33
  A 0.46 0.46 0.0 0 0 622.88 257.74
  Z
  M 690.9805 275.5695
  A 0.82 0.82 0.0 0 0 690.3642 274.5871
  L 690.3252 274.5782
  A 0.82 0.82 0.0 0 0 689.3429 275.1944
  L 685.2395 293.1105
  A 0.82 0.82 0.0 0 0 685.8558 294.0929
  L 685.8948 294.1018
  A 0.82 0.82 0.0 0 0 686.8771 293.4856
  L 690.9805 275.5695
  Z
  M 574.82 287.51
  Q 579.72 289.46 580.98 285.07
  Q 581.74 282.41 579.51 281.00
  A 1.00 0.99 14.1 0 0 577.99 281.91
  Q 578.11 283.84 576.05 284.77
  A 0.76 0.60 -52.0 0 1 575.89 284.81
  L 573.01 285.20
  A 1.08 1.07 -48.8 0 0 573.15 287.34
  L 573.90 287.34
  A 2.61 2.49 -33.1 0 1 574.82 287.51
  Z
  M 650.30 296.58
  L 653.23 296.72
  A 1.14 1.14 0.0 0 0 654.35 295.17
  Q 653.07 291.81 651.45 290.86
  A 1.63 1.59 -31.7 0 0 650.47 290.64
  Q 646.76 291.02 644.47 292.71
  A 1.43 1.43 0.0 0 1 642.84 292.78
  Q 641.10 291.69 638.94 291.17
  A 0.81 0.80 -6.2 0 0 638.03 292.30
  Q 639.80 295.97 642.57 294.27
  A 1.25 1.24 -84.6 0 1 644.14 296.17
  Q 643.18 297.23 642.50 297.41
  Q 640.11 298.06 636.85 297.68
  A 0.91 0.91 0.0 0 0 635.89 298.89
  L 636.74 301.31
  A 2.28 2.28 0.0 0 0 638.77 302.82
  L 650.84 303.40
  A 1.13 1.13 0.0 0 0 651.87 301.71
  L 649.59 297.75
  A 0.78 0.78 0.0 0 1 650.30 296.58
  Z
  M 580.25 323.76
  A 0.40 0.40 0.0 0 0 581.03 323.77
  Q 581.72 319.73 584.38 315.19
  A 1.03 1.03 0.0 0 0 582.92 313.82
  C 581.71 314.63 580.16 316.70 580.13 318.53
  Q 580.05 322.47 580.25 323.76
  Z
  M 574.43 320.39
  L 577.47 316.99
  A 0.24 0.24 0.0 0 0 577.45 316.65
  L 577.36 316.57
  A 2.37 2.36 41.8 0 0 574.02 316.75
  L 573.80 316.99
  A 2.37 2.36 41.8 0 0 574.00 320.33
  L 574.09 320.41
  A 0.24 0.24 0.0 0 0 574.43 320.39
  Z
  M 588.21 328.77
  L 586.49 328.24
  A 0.24 0.24 0.0 0 0 586.19 328.40
  L 585.84 329.55
  A 4.84 1.14 -73.1 0 0 585.53 334.51
  A 4.84 1.14 -73.1 0 0 588.02 330.21
  L 588.37 329.07
  A 0.24 0.24 0.0 0 0 588.21 328.77
  Z
  M 666.72 334.55
  Q 663.42 338.70 661.81 344.82
  Q 660.62 349.34 658.88 358.45
  Q 658.80 358.89 659.02 359.19
  A 0.46 0.45 -49.6 0 0 659.79 359.12
  Q 660.73 357.31 661.08 355.06
  Q 661.87 350.16 663.23 345.99
  A 4.07 3.98 -19.6 0 1 663.70 345.03
  Q 666.29 341.09 668.33 335.45
  A 0.93 0.93 0.0 0 0 666.72 334.55
  Z
  M 605.3693 336.8603
  A 1.86 1.00 -106.9 0 0 604.9532 338.9307
  A 1.86 1.00 -106.9 0 0 606.4507 340.4197
  A 1.86 1.00 -106.9 0 0 606.8668 338.3493
  A 1.86 1.00 -106.9 0 0 605.3693 336.8603
  Z
  M 591.95 346.25
  A 1.19 1.00 74.5 0 0 593.63 347.41
  Q 594.84 346.29 597.03 346.37
  A 1.36 1.34 29.7 0 0 597.82 346.16
  Q 598.73 345.58 598.84 344.58
  A 0.92 0.88 71.6 0 0 597.33 343.78
  Q 596.07 345.06 593.22 344.87
  Q 592.06 344.80 591.95 346.25
  Z
  M 653.51 375.71
  Q 653.71 375.62 657.53 372.48
  Q 657.93 372.15 657.59 371.72
  Q 657.24 371.29 656.76 371.39
  Q 653.17 372.08 651.31 371.65
  A 0.77 0.77 0.0 0 0 650.41 372.63
  Q 651.07 374.71 652.56 375.65
  A 0.97 0.96 48.4 0 0 653.51 375.71
  Z
  M 636.80 382.29
  A 1.24 1.24 0.0 0 0 635.12 383.76
  Q 635.61 385.64 637.42 387.43
  A 0.69 0.68 49.6 0 0 638.29 387.51
  C 640.65 385.90 643.72 383.11 641.73 380.05
  A 0.98 0.97 -58.8 0 0 639.94 380.49
  L 639.79 382.04
  A 1.06 1.06 0.0 0 1 638.32 382.92
  L 636.80 382.29
  Z
  M 622.5378 382.7428
  A 5.76 1.23 -65.4 0 0 619.0216 387.4680
  A 5.76 1.23 -65.4 0 0 617.7422 393.2172
  A 5.76 1.23 -65.4 0 0 621.2584 388.4920
  A 5.76 1.23 -65.4 0 0 622.5378 382.7428
  Z
  M 639.92 396.26
  L 641.27 394.21
  A 0.26 0.26 0.0 0 0 641.19 393.85
  L 641.02 393.73
  A 1.81 1.35 33.2 0 0 638.76 393.87
  L 638.61 394.10
  A 1.81 1.35 33.2 0 0 639.38 396.22
  L 639.56 396.34
  A 0.26 0.26 0.0 0 0 639.92 396.26
  Z
  M 635.43 411.50
  L 638.29 409.85
  A 1.30 1.29 -46.1 0 1 639.54 409.82
  Q 640.80 410.49 642.37 410.70
  A 1.28 1.28 0.0 0 0 643.75 409.03
  Q 643.45 408.11 642.10 406.91
  A 2.13 1.80 34.6 0 1 641.48 404.64
  Q 642.99 401.37 639.25 398.94
  A 0.98 0.98 0.0 0 0 637.90 399.22
  Q 637.25 400.19 636.99 401.25
  Q 635.67 406.50 634.90 411.13
  A 0.36 0.36 0.0 0 0 635.43 411.50
  Z
  M 632.30 399.04
  Q 629.08 401.93 625.30 401.97
  Q 624.95 401.97 624.51 402.34
  A 0.48 0.48 0.0 0 0 624.68 403.18
  C 628.18 404.24 632.40 404.01 632.87 399.33
  A 0.34 0.34 0.0 0 0 632.30 399.04
  Z
  M 634.19 417.90
  Q 633.86 419.01 633.97 419.35
  A 0.31 0.31 0.0 0 0 634.54 419.40
  Q 634.76 418.96 634.56 417.91
  A 0.19 0.19 0.0 0 0 634.19 417.90
  Z"
/>
<path fill="#181819" d="
  M 542.47 129.64
  Q 542.11 130.62 540.77 130.02
  Q 539.43 129.43 538.91 129.33
  C 534.14 128.44 528.99 127.52 523.71 127.63
  Q 519.90 127.70 517.22 126.79
  A 2.68 2.56 52.4 0 0 516.24 126.64
  C 512.84 126.75 510.42 126.01 506.46 127.10
  Q 500.71 126.41 495.00 125.40
  Q 492.97 125.04 491.94 127.22
  C 489.97 131.44 489.08 134.51 486.67 138.73
  Q 484.64 142.29 483.46 145.04
  A 0.92 0.91 -45.6 0 1 481.79 145.06
  Q 481.74 144.96 481.95 144.48
  Q 485.93 135.26 490.57 123.17
  A 1.11 1.11 0.0 0 1 491.75 122.46
  C 498.04 123.23 502.04 123.37 507.42 124.66
  Q 513.50 126.12 514.87 126.15
  Q 521.82 126.33 531.79 127.62
  Q 533.10 127.79 534.34 127.94
  Q 538.17 128.41 542.47 129.64
  Z"
/>
<path fill="#929191" d="
  M 542.47 129.64
  Q 541.74 133.32 542.59 136.22
  Q 543.06 137.86 544.72 138.24
  Q 545.85 138.50 546.20 137.48
  C 545.95 139.90 547.82 140.32 549.88 140.38
  Q 553.55 140.48 556.93 141.83
  A 1.65 1.64 10.1 0 0 559.19 140.26
  L 559.08 136.53
  A 2.00 1.91 57.1 0 1 559.25 135.64
  Q 560.28 133.34 562.56 133.01
  Q 567.68 132.26 576.33 134.59
  A 1.08 0.94 49.1 0 0 576.61 134.63
  L 580.50 134.63
  A 3.31 2.97 -34.1 0 1 581.37 134.75
  Q 585.45 135.95 589.70 135.57
  L 598.18 136.72
  Q 594.38 147.31 589.89 157.32
  Q 589.25 158.74 589.15 161.36
  A 0.34 0.34 0.0 0 0 589.61 161.69
  L 590.20 161.46
  L 583.52 179.15
  A 0.86 0.86 0.0 0 0 584.28 180.31
  L 590.62 180.62
  A 1.10 0.95 33.3 0 0 591.00 180.57
  Q 593.08 179.94 596.24 179.84
  A 0.94 0.90 71.6 0 1 597.04 180.26
  L 597.84 181.49
  A 1.14 1.13 -14.1 0 0 598.68 181.99
  L 605.48 182.55
  Q 607.34 187.65 610.80 192.90
  Q 611.29 193.64 611.12 194.20
  A 1.07 0.97 39.1 0 1 609.27 194.30
  Q 608.81 193.58 605.16 187.28
  A 1.04 1.04 0.0 0 0 603.34 187.31
  Q 600.43 192.75 598.16 198.89
  Q 595.50 206.07 593.67 210.62
  C 592.07 214.61 588.92 222.47 585.20 230.23
  Q 584.07 232.58 583.66 234.79
  Q 578.67 234.56 574.02 234.96
  Q 573.15 235.04 569.70 233.65
  A 2.25 2.07 58.7 0 0 569.25 233.52
  L 562.52 232.52
  A 2.33 2.33 0.0 0 0 560.25 233.50
  Q 558.07 236.65 556.58 240.61
  Q 554.19 247.01 551.70 253.71
  Q 548.71 254.75 547.47 257.96
  Q 542.62 270.56 539.12 277.65
  L 534.58 277.07
  A 2.94 2.93 71.3 0 1 532.87 276.22
  Q 531.51 274.82 529.23 274.47
  Q 517.97 272.70 511.74 272.19
  Q 510.41 272.09 501.29 270.36
  A 1.07 1.05 -3.9 0 1 500.50 269.68
  L 499.79 267.69
  A 2.83 2.81 84.3 0 0 497.53 265.83
  L 487.18 264.37
  A 1.58 1.57 17.6 0 0 485.57 265.20
  L 483.94 268.35
  A 0.89 0.88 23.0 0 1 482.86 268.78
  Q 474.25 265.78 464.76 265.69
  Q 462.04 265.67 460.40 265.43
  C 456.90 264.91 454.25 265.25 451.51 265.82
  A 1.58 1.05 -6.8 0 1 449.61 264.86
  L 449.70 263.67
  Q 452.18 259.16 453.08 254.12
  A 8.49 8.47 -26.5 0 1 453.85 251.83
  Q 454.65 250.28 455.46 248.74
  Q 457.38 245.13 455.67 243.28
  Q 456.65 243.28 457.13 242.27
  A 1.18 1.18 0.0 0 0 456.15 240.59
  L 450.26 240.16
  Q 452.82 239.72 454.97 240.18
  A 1.47 1.46 15.5 0 0 456.66 239.23
  L 459.31 231.52
  A 1.10 0.97 -23.0 0 1 459.42 231.29
  Q 462.72 226.28 464.41 220.75
  C 464.96 218.94 464.22 217.75 462.43 217.81
  Q 461.28 217.85 461.14 217.80
  A 0.26 0.26 0.0 0 1 461.13 217.32
  C 463.69 216.11 462.97 212.12 459.80 211.90
  C 457.77 211.75 456.58 214.33 456.06 215.79
  A 0.58 0.58 0.0 0 0 456.34 216.49
  L 456.67 216.66
  A 0.21 0.21 0.0 0 1 456.57 217.05
  L 450.42 216.88
  A 0.78 0.36 -20.3 0 1 450.29 216.87
  L 443.19 215.45
  L 443.45 212.25
  Q 444.62 210.42 445.62 208.45
  Q 455.43 189.34 458.25 183.65
  C 459.39 181.33 460.58 178.35 461.08 176.29
  Q 462.50 170.32 464.09 164.97
  Q 472.66 166.96 483.26 167.79
  Q 486.66 168.05 487.69 165.15
  Q 490.28 157.80 493.98 150.40
  C 494.67 149.02 496.45 148.40 497.99 147.59
  Q 498.34 147.40 499.30 145.78
  Q 505.04 136.10 507.45 128.41
  Q 507.78 127.36 506.46 127.10
  C 510.42 126.01 512.84 126.75 516.24 126.64
  A 2.68 2.56 52.4 0 1 517.22 126.79
  Q 519.90 127.70 523.71 127.63
  C 528.99 127.52 534.14 128.44 538.91 129.33
  Q 539.43 129.43 540.77 130.02
  Q 542.11 130.62 542.47 129.64
  Z
  M 497.30 179.87
  L 495.09 180.14
  A 0.70 0.70 0.0 0 0 494.47 180.80
  Q 494.36 182.49 494.99 184.52
  A 0.61 0.61 0.0 0 0 496.16 184.49
  Q 496.89 181.79 499.81 182.82
  Q 501.26 183.33 501.30 185.81
  A 0.53 0.53 0.0 0 0 501.94 186.32
  Q 505.17 185.63 507.63 186.85
  A 1.43 1.42 -63.3 0 0 509.52 186.22
  Q 512.03 181.37 513.41 175.76
  Q 513.95 173.55 511.32 172.43
  L 512.69 166.72
  A 1.33 1.33 0.0 0 0 511.58 165.09
  L 496.81 163.00
  A 2.31 2.31 0.0 0 0 494.29 164.56
  L 492.29 170.56
  A 0.80 0.79 70.9 0 1 492.21 170.73
  Q 490.07 174.23 489.19 176.88
  A 1.62 1.62 0.0 0 0 490.52 178.99
  L 497.30 179.87
  Z
  M 474.79 170.45
  L 475.25 173.60
  A 1.12 1.12 0.0 0 0 476.52 174.55
  L 476.66 174.53
  A 4.88 2.57 -8.2 0 0 481.12 171.29
  L 481.08 171.01
  A 4.88 2.57 -8.2 0 0 475.88 169.17
  L 475.74 169.19
  A 1.12 1.12 0.0 0 0 474.79 170.45
  Z
  M 554.46 187.40
  Q 554.19 189.98 554.84 192.37
  A 0.62 0.61 47.4 0 0 556.01 192.42
  C 556.45 191.25 557.87 190.13 559.24 190.89
  Q 560.37 191.53 561.34 193.40
  A 1.20 1.19 79.6 0 0 562.24 194.03
  L 567.51 194.78
  A 2.19 2.19 0.0 0 0 569.84 193.45
  L 573.58 184.45
  A 1.14 1.12 44.7 0 0 573.57 183.53
  Q 572.67 181.60 570.67 180.64
  L 572.43 174.97
  A 1.21 1.21 0.0 0 0 571.44 173.42
  L 557.16 171.40
  A 2.57 2.56 -71.3 0 0 554.56 172.69
  Q 551.09 178.88 549.37 185.41
  A 1.06 1.05 12.2 0 0 550.22 186.72
  L 554.46 187.40
  Z
  M 521.20 189.43
  L 527.09 189.98
  A 6.35 6.25 56.8 0 1 528.65 190.32
  Q 531.35 191.28 533.69 191.40
  A 2.94 2.93 -74.0 0 0 536.42 189.88
  Q 537.63 187.68 539.02 183.75
  C 539.69 181.84 539.21 180.24 537.19 180.02
  Q 528.76 179.08 526.14 178.71
  A 2.81 2.79 15.3 0 0 523.15 180.40
  L 520.13 187.65
  A 1.29 1.29 0.0 0 0 521.20 189.43
  Z
  M 590.6209 185.7633
  A 3.06 2.29 -12.2 0 0 587.1461 184.1717
  A 3.06 2.29 -12.2 0 0 584.6391 187.0567
  A 3.06 2.29 -12.2 0 0 588.1139 188.6483
  A 3.06 2.29 -12.2 0 0 590.6209 185.7633
  Z
  M 522.11 222.70
  A 1.13 1.13 0.0 0 0 521.17 221.14
  L 507.74 219.89
  A 1.13 1.13 0.0 0 0 506.59 220.58
  L 502.28 230.93
  A 1.13 1.13 0.0 0 0 503.22 232.49
  L 516.64 233.74
  A 1.13 1.13 0.0 0 0 517.79 233.05
  L 522.11 222.70
  Z
  M 572.5088 228.7479
  A 3.02 2.25 -15.6 0 0 568.9949 227.3929
  A 3.02 2.25 -15.6 0 0 566.6912 230.3721
  A 3.02 2.25 -15.6 0 0 570.2051 231.7271
  A 3.02 2.25 -15.6 0 0 572.5088 228.7479
  Z
  M 494.58 252.19
  A 0.40 0.40 0.0 0 1 494.33 252.92
  C 490.69 252.68 488.55 257.08 487.78 259.88
  A 0.88 0.88 0.0 0 0 488.66 261.00
  Q 492.44 260.86 494.26 261.09
  C 497.17 261.46 500.57 260.21 504.16 261.69
  A 2.04 2.03 -67.3 0 0 506.82 260.59
  L 511.41 249.56
  A 1.04 1.03 19.5 0 0 510.74 248.17
  L 501.30 245.38
  A 1.64 1.31 -25.0 0 0 501.05 245.32
  L 495.82 244.71
  A 2.20 2.19 19.1 0 0 493.72 245.72
  Q 492.67 247.41 492.74 250.17
  A 1.45 1.44 17.0 0 0 493.35 251.31
  L 494.58 252.19
  Z"
/>
<path fill="#d5c9ac" d="
  M 646.03 128.92
  Q 648.65 133.77 648.01 138.90
  Q 647.74 141.01 646.13 143.57
  C 644.23 146.59 642.32 149.28 641.35 152.79
  Q 639.08 151.77 637.74 149.55
  Q 633.39 142.37 628.81 134.91
  Q 627.98 133.56 628.76 132.65
  Q 629.33 131.98 630.99 131.81
  Q 638.61 131.02 646.03 128.92
  Z"
/>
<path fill="#181819" d="
  M 494.86 131.90
  A 0.41 0.41 0.0 0 1 495.23 131.45
  L 495.44 131.43
  A 2.96 1.18 -5.2 0 1 498.49 132.34
  L 498.51 132.52
  A 2.96 1.18 -5.2 0 1 495.67 133.96
  L 495.46 133.98
  A 0.41 0.41 0.0 0 1 495.02 133.61
  L 494.86 131.90
  Z"
/>
<path fill="#17181d" d="
  M 589.70 135.57
  Q 585.45 135.95 581.37 134.75
  A 3.31 2.97 -34.1 0 0 580.50 134.63
  L 576.61 134.63
  A 1.08 0.94 49.1 0 1 576.33 134.59
  Q 567.68 132.26 562.56 133.01
  Q 560.28 133.34 559.25 135.64
  A 2.00 1.91 57.1 0 0 559.08 136.53
  L 559.19 140.26
  A 1.65 1.64 10.1 0 1 556.93 141.83
  Q 553.55 140.48 549.88 140.38
  C 547.82 140.32 545.95 139.90 546.20 137.48
  Q 546.29 135.99 547.01 135.01
  A 0.79 0.79 0.0 0 1 547.90 134.74
  Q 551.39 135.97 555.43 135.33
  A 1.16 1.15 23.4 0 0 555.89 135.15
  L 559.95 132.49
  A 1.67 1.60 26.2 0 1 560.77 132.23
  Q 567.13 131.97 568.51 132.22
  Q 577.47 133.90 578.51 133.99
  Q 586.11 134.63 589.70 135.57
  Z"
/>
<path fill="#181819" d="
  M 598.18 136.72
  Q 599.54 136.64 601.39 136.65
  C 605.19 136.65 609.46 137.90 613.14 138.54
  A 1.47 1.47 0.0 0 1 614.36 140.06
  L 614.35 140.39
  A 1.05 1.05 0.0 0 1 613.18 141.38
  Q 604.71 140.38 603.32 140.10
  Q 600.26 139.51 599.16 142.34
  Q 595.32 152.24 590.20 161.46
  L 589.61 161.69
  A 0.34 0.34 0.0 0 1 589.15 161.36
  Q 589.25 158.74 589.89 157.32
  Q 594.38 147.31 598.18 136.72
  Z"
/>
<ellipse fill="#181819" cx="0.00" cy="0.00" transform="translate(605.24,147.20) rotate(-20.1)" rx="1.72" ry="1.44"/>
<path fill="#d9d9d6" d="
  M 622.45 165.35
  A 0.96 0.96 0.0 0 1 622.61 163.81
  Q 624.63 162.62 627.44 163.25
  A 1.02 1.02 0.0 0 0 628.65 162.54
  Q 629.17 160.68 629.65 160.08
  A 0.90 0.90 0.0 0 1 631.26 160.70
  L 630.88 166.19
  A 0.70 0.69 -57.7 0 0 630.97 166.60
  L 640.15 182.50
  A 0.58 0.58 0.0 0 1 639.60 183.37
  L 639.25 183.33
  A 1.61 1.58 77.1 0 1 638.01 182.54
  L 629.62 168.00
  A 1.71 1.71 0.0 0 0 627.63 167.23
  Q 625.29 167.96 622.45 165.35
  Z"
/>
<path fill="#929191" d="
  M 610.12 160.14
  A 0.30 0.30 0.0 0 1 610.51 160.31
  L 610.57 160.47
  A 1.91 1.73 69.6 0 1 609.61 162.87
  L 609.46 162.92
  A 1.91 1.73 69.6 0 1 607.17 161.74
  L 607.11 161.58
  A 0.30 0.30 0.0 0 1 607.29 161.19
  L 610.12 160.14
  Z"
/>
<path fill="#d9d9d6" d="
  M 511.32 172.43
  L 507.73 179.31
  A 2.51 2.50 -73.5 0 1 505.27 180.65
  L 497.30 179.87
  L 490.52 178.99
  A 1.62 1.62 0.0 0 1 489.19 176.88
  Q 490.07 174.23 492.21 170.73
  A 0.80 0.79 70.9 0 0 492.29 170.56
  L 494.29 164.56
  A 2.31 2.31 0.0 0 1 496.81 163.00
  L 511.58 165.09
  A 1.33 1.33 0.0 0 1 512.69 166.72
  L 511.32 172.43
  Z"
/>
<path fill="#d9d9d6" d="
  M 474.79 170.45
  A 1.12 1.12 0.0 0 1 475.74 169.19
  L 475.88 169.17
  A 4.88 2.57 -8.2 0 1 481.08 171.01
  L 481.12 171.29
  A 4.88 2.57 -8.2 0 1 476.66 174.53
  L 476.52 174.55
  A 1.12 1.12 0.0 0 1 475.25 173.60
  L 474.79 170.45
  Z"
/>
<path fill="#d9d9d6" d="
  M 570.67 180.64
  Q 569.24 183.52 567.94 186.34
  C 567.09 188.18 566.23 188.72 564.25 188.54
  Q 557.69 187.93 554.46 187.40
  L 550.22 186.72
  A 1.06 1.05 12.2 0 1 549.37 185.41
  Q 551.09 178.88 554.56 172.69
  A 2.57 2.56 -71.3 0 1 557.16 171.40
  L 571.44 173.42
  A 1.21 1.21 0.0 0 1 572.43 174.97
  L 570.67 180.64
  Z"
/>
<path fill="#17181d" d="
  M 497.30 179.87
  L 505.27 180.65
  A 2.51 2.50 -73.5 0 0 507.73 179.31
  L 511.32 172.43
  Q 513.95 173.55 513.41 175.76
  Q 512.03 181.37 509.52 186.22
  A 1.43 1.42 -63.3 0 1 507.63 186.85
  Q 505.17 185.63 501.94 186.32
  A 0.53 0.53 0.0 0 1 501.30 185.81
  Q 501.26 183.33 499.81 182.82
  Q 496.89 181.79 496.16 184.49
  A 0.61 0.61 0.0 0 1 494.99 184.52
  Q 494.36 182.49 494.47 180.80
  A 0.70 0.70 0.0 0 1 495.09 180.14
  L 497.30 179.87
  Z"
/>
<rect fill="#d9d9d6" x="-0.84" y="-36.57" transform="translate(662.01,205.85) rotate(-30.2)" width="1.68" height="73.14" rx="0.83"/>
<path fill="#d9d9d6" d="
  M 521.20 189.43
  A 1.29 1.29 0.0 0 1 520.13 187.65
  L 523.15 180.40
  A 2.81 2.79 15.3 0 1 526.14 178.71
  Q 528.76 179.08 537.19 180.02
  C 539.21 180.24 539.69 181.84 539.02 183.75
  Q 537.63 187.68 536.42 189.88
  A 2.94 2.93 -74.0 0 1 533.69 191.40
  Q 531.35 191.28 528.65 190.32
  A 6.35 6.25 56.8 0 0 527.09 189.98
  L 521.20 189.43
  Z"
/>
<rect fill="#d9d9d6" x="-1.71" y="-2.82" transform="translate(214.62,182.25) rotate(1.6)" width="3.42" height="5.64" rx="1.37"/>
<path fill="#17181d" d="
  M 554.46 187.40
  Q 557.69 187.93 564.25 188.54
  C 566.23 188.72 567.09 188.18 567.94 186.34
  Q 569.24 183.52 570.67 180.64
  Q 572.67 181.60 573.57 183.53
  A 1.14 1.12 44.7 0 1 573.58 184.45
  L 569.84 193.45
  A 2.19 2.19 0.0 0 1 567.51 194.78
  L 562.24 194.03
  A 1.20 1.19 79.6 0 1 561.34 193.40
  Q 560.37 191.53 559.24 190.89
  C 557.87 190.13 556.45 191.25 556.01 192.42
  A 0.62 0.61 47.4 0 1 554.84 192.37
  Q 554.19 189.98 554.46 187.40
  Z"
/>
<path fill="#929191" d="
  M 225.63 181.78
  L 227.45 182.38
  Q 227.50 183.45 229.31 182.97
  Q 229.43 183.02 229.54 183.07
  L 228.73 183.44
  A 1.36 1.36 0.0 0 1 227.80 183.52
  Q 222.64 182.11 225.63 181.78
  Z"
/>
<path fill="#d5c9ac" d="
  M 229.31 182.97
  Q 227.50 183.45 227.45 182.38
  L 229.31 182.97
  Z"
/>
<path fill="#d5c9ac" d="
  M 230.44 183.17
  L 234.73 184.20
  Q 232.57 185.05 230.10 183.55
  A 0.19 0.17 29.8 0 1 230.03 183.32
  Q 230.15 183.09 230.44 183.17
  Z"
/>
<ellipse fill="#d5c9ac" cx="0.00" cy="0.00" transform="translate(587.63,186.41) rotate(-12.2)" rx="3.06" ry="2.29"/>
<path fill="#17181d" d="
  M 311.79 194.68
  L 321.33 196.09
  Q 316.13 197.50 311.79 194.68
  Z"
/>
<path fill="#929191" d="
  M 358.65 201.09
  Q 366.84 201.71 374.88 203.11
  Q 378.90 203.81 382.15 203.95
  C 385.79 204.11 389.12 203.86 392.75 204.60
  L 393.46 204.71
  Q 393.62 204.76 393.79 204.82
  L 394.46 204.90
  L 398.22 205.55
  L 399.46 205.74
  L 405.79 206.54
  L 406.96 206.69
  L 407.52 206.82
  L 408.46 206.92
  L 409.54 207.08
  L 410.21 207.16
  L 413.03 207.61
  Q 413.73 207.56 413.94 207.81
  L 432.57 211.50
  Q 426.14 211.85 419.82 210.29
  Q 416.15 209.38 414.59 209.22
  C 412.17 208.96 409.86 208.83 407.48 208.47
  Q 392.27 206.18 378.19 204.56
  Q 373.43 204.01 358.65 201.09
  Z"
/>
<path fill="#181819" d="
  M 393.46 204.71
  L 392.75 204.60
  Q 393.13 204.59 393.46 204.71
  Z"
/>
<path fill="#181819" d="
  M 394.46 204.90
  L 393.79 204.82
  L 394.46 204.90
  Z"
/>
<path fill="#181819" d="
  M 399.46 205.74
  L 398.22 205.55
  Q 398.91 205.54 399.46 205.74
  Z"
/>
<path fill="#181819" d="
  M 406.96 206.69
  L 405.79 206.54
  L 406.96 206.69
  Z"
/>
<path fill="#181819" d="
  M 408.46 206.92
  L 407.52 206.82
  L 408.46 206.92
  Z"
/>
<path fill="#181819" d="
  M 410.21 207.16
  L 409.54 207.08
  L 410.21 207.16
  Z"
/>
<path fill="#181819" d="
  M 413.94 207.81
  Q 413.73 207.56 413.03 207.61
  Q 413.87 207.51 413.94 207.81
  Z"
/>
<path fill="#d5c9ac" d="
  M 450.26 240.16
  L 443.01 238.59
  A 2.00 2.00 0.0 0 0 440.74 239.78
  L 430.38 264.65
  A 0.55 0.55 0.0 0 0 430.62 265.34
  Q 432.17 266.20 433.55 265.00
  Q 433.27 266.05 433.61 266.91
  A 0.91 0.89 83.6 0 0 434.31 267.48
  C 439.71 268.32 446.47 268.66 449.70 263.67
  L 449.61 264.86
  A 1.58 1.05 -6.8 0 0 451.51 265.82
  C 454.25 265.25 456.90 264.91 460.40 265.43
  Q 462.04 265.67 464.76 265.69
  Q 474.25 265.78 482.86 268.78
  A 0.89 0.88 23.0 0 0 483.94 268.35
  L 485.57 265.20
  A 1.58 1.57 17.6 0 1 487.18 264.37
  L 497.53 265.83
  A 2.83 2.81 84.3 0 1 499.79 267.69
  L 500.50 269.68
  A 1.07 1.05 -3.9 0 0 501.29 270.36
  Q 510.41 272.09 511.74 272.19
  Q 517.97 272.70 529.23 274.47
  Q 531.51 274.82 532.87 276.22
  A 2.94 2.93 71.3 0 0 534.58 277.07
  L 539.12 277.65
  Q 538.19 281.58 540.99 280.90
  Q 542.25 282.81 544.27 283.04
  Q 554.02 284.13 559.22 276.02
  A 2.18 2.17 54.0 0 0 559.49 274.30
  Q 558.34 269.98 555.03 267.98
  A 1.98 1.97 38.1 0 1 554.65 264.89
  C 556.38 263.17 561.45 262.95 563.61 262.86
  A 1.11 1.11 0.0 0 0 564.35 260.97
  Q 562.44 259.07 559.19 257.81
  Q 562.15 258.29 564.99 258.10
  A 1.14 1.13 -22.9 0 0 565.76 256.21
  Q 565.24 255.63 564.01 255.37
  Q 558.82 254.24 551.70 253.71
  Q 554.19 247.01 556.58 240.61
  Q 558.07 236.65 560.25 233.50
  A 2.33 2.33 0.0 0 1 562.52 232.52
  L 569.25 233.52
  A 2.25 2.07 58.7 0 1 569.70 233.65
  Q 573.15 235.04 574.02 234.96
  Q 578.67 234.56 583.66 234.79
  Q 581.71 240.45 579.46 245.92
  Q 579.30 246.30 577.99 248.21
  A 4.78 4.66 72.5 0 0 577.46 249.26
  Q 576.82 251.07 573.69 259.64
  C 572.78 262.12 572.13 263.10 570.85 265.40
  A 5.30 5.24 65.9 0 0 570.35 266.73
  Q 569.65 269.79 568.47 272.25
  C 565.98 277.49 564.61 281.66 561.66 289.17
  Q 560.09 293.17 558.09 296.49
  A 1.10 1.09 -47.0 0 0 558.12 297.64
  L 564.07 306.75
  A 0.91 0.91 0.0 0 0 565.74 306.35
  C 566.25 301.39 566.76 296.30 568.76 291.91
  A 2.12 2.04 82.0 0 1 569.26 291.22
  L 572.36 288.32
  A 0.16 0.16 0.0 0 1 572.63 288.41
  Q 573.01 290.34 572.45 291.43
  Q 568.02 299.96 567.66 302.21
  Q 566.81 307.52 566.40 309.43
  A 2.44 2.44 0.0 0 0 566.44 310.62
  C 567.30 313.67 570.26 317.43 572.19 319.88
  A 4.09 3.95 15.4 0 1 572.70 320.74
  C 573.43 322.43 573.90 323.68 574.64 324.91
  Q 581.11 335.61 583.45 339.74
  Q 585.45 343.27 586.92 345.00
  C 588.69 347.09 589.35 349.63 591.00 352.38
  Q 594.33 357.94 598.43 364.54
  Q 597.85 363.29 600.09 365.61
  C 599.95 369.02 603.88 373.84 605.95 376.83
  Q 606.17 377.79 607.26 379.43
  Q 612.58 388.51 618.13 397.63
  Q 620.47 401.48 622.02 402.32
  A 1.27 1.27 0.0 0 1 622.66 403.29
  L 622.85 405.24
  A 1.76 1.70 -64.5 0 0 623.09 405.96
  Q 623.94 407.39 629.95 417.36
  Q 631.07 419.21 632.40 420.28
  A 3.20 3.18 12.5 0 1 633.49 421.98
  C 634.74 426.89 638.58 430.75 641.06 435.43
  Q 642.43 438.01 643.72 440.65
  Q 642.49 441.96 641.82 442.20
  A 2.16 2.16 0.0 0 1 639.29 441.39
  Q 636.27 436.96 633.73 434.00
  C 632.13 432.12 630.58 431.36 628.14 430.31
  A 1.93 1.91 86.3 0 1 627.24 429.51
  L 620.27 417.43
  A 3.81 3.80 -8.8 0 0 617.79 415.62
  Q 611.73 414.30 608.00 413.75
  Q 593.61 411.60 579.52 409.33
  C 566.87 407.29 554.70 405.85 542.24 404.28
  C 543.80 389.34 544.57 373.40 540.26 359.28
  Q 536.72 347.65 531.09 337.42
  A 2.50 2.43 0.0 0 0 530.05 336.41
  L 504.24 323.04
  A 1.52 1.46 -32.5 0 0 503.40 322.87
  Q 501.83 323.00 500.33 322.58
  C 497.94 321.91 497.08 321.97 494.56 321.70
  A 3.06 2.92 -46.4 0 0 493.56 321.75
  Q 484.93 323.57 482.63 324.30
  C 463.86 330.21 451.97 344.05 445.65 362.45
  Q 440.91 376.23 436.06 389.94
  Q 435.26 389.93 434.69 390.20
  Q 434.18 390.45 433.95 391.31
  Q 431.14 401.82 431.06 402.07
  Q 429.99 405.38 428.80 407.07
  A 3.31 3.29 21.7 0 1 425.65 408.42
  L 419.06 407.49
  A 1.92 1.92 0.0 0 1 417.57 406.36
  Q 416.75 404.49 416.81 401.25
  Q 416.97 392.21 416.65 373.00
  Q 416.02 335.47 415.57 293.37
  C 415.50 286.29 416.12 281.06 417.54 274.11
  Q 417.75 273.09 421.00 266.02
  A 18.60 17.87 -26.6 0 0 422.11 262.89
  Q 423.46 257.54 424.50 255.52
  Q 427.08 250.53 430.20 244.31
  Q 431.88 240.95 434.42 233.60
  Q 436.32 228.13 438.59 222.83
  C 439.90 219.81 440.00 217.71 443.19 215.45
  L 450.29 216.87
  A 0.78 0.36 -20.3 0 0 450.42 216.88
  L 456.57 217.05
  A 0.21 0.21 0.0 0 0 456.67 216.66
  L 456.34 216.49
  A 0.58 0.58 0.0 0 1 456.06 215.79
  C 456.58 214.33 457.77 211.75 459.80 211.90
  C 462.97 212.12 463.69 216.11 461.13 217.32
  A 0.26 0.26 0.0 0 0 461.14 217.80
  Q 461.28 217.85 462.43 217.81
  C 464.22 217.75 464.96 218.94 464.41 220.75
  Q 462.72 226.28 459.42 231.29
  A 1.10 0.97 -23.0 0 0 459.31 231.52
  L 456.66 239.23
  A 1.47 1.46 15.5 0 1 454.97 240.18
  Q 452.82 239.72 450.26 240.16
  Z
  M 430.95 385.99
  C 431.13 374.75 432.60 364.01 432.62 352.57
  Q 432.64 344.12 433.74 335.69
  C 434.16 332.43 433.30 327.20 433.62 322.79
  Q 434.33 313.26 434.09 301.51
  Q 433.99 296.88 432.24 291.28
  Q 431.60 289.26 431.30 288.82
  C 429.96 286.93 427.83 287.75 426.64 289.24
  A 1.28 1.26 61.6 0 0 426.37 290.18
  C 426.92 294.60 427.00 302.36 426.92 308.28
  Q 426.72 323.24 427.20 333.33
  C 428.11 352.48 428.03 363.36 428.97 382.09
  Q 429.11 384.94 430.51 386.19
  A 0.27 0.26 -69.0 0 0 430.95 385.99
  Z
  M 534.67 297.37
  L 537.12 296.50
  A 0.35 0.35 0.0 0 0 537.10 295.83
  L 532.41 294.44
  A 0.84 0.83 16.2 0 0 531.37 295.01
  L 528.80 303.68
  A 1.36 1.35 -73.6 0 0 529.71 305.36
  L 530.35 305.55
  A 1.24 1.24 0.0 0 0 531.89 304.71
  L 533.78 298.31
  A 1.44 1.42 88.9 0 1 534.67 297.37
  Z
  M 573.3021 353.1392
  A 6.98 1.71 -68.2 0 0 569.1223 358.9850
  A 6.98 1.71 -68.2 0 0 568.1179 366.1008
  A 6.98 1.71 -68.2 0 0 572.2977 360.2550
  A 6.98 1.71 -68.2 0 0 573.3021 353.1392
  Z"
/>
<path fill="#d9d9d6" d="
  M 676.44 214.08
  Q 679.94 218.14 684.31 225.15
  Q 687.61 230.44 688.73 234.64
  Q 688.52 234.86 688.29 234.96
  Q 685.17 231.95 681.93 226.07
  Q 677.99 218.91 676.44 214.08
  Z"
/>
<path fill="#929191" d="
  M 615.15 225.43
  Q 617.64 229.52 620.30 233.75
  Q 620.64 234.28 620.70 234.81
  A 0.93 0.92 0.5 0 1 619.65 235.84
  L 613.53 234.98
  A 1.77 1.75 -4.7 0 1 612.11 233.79
  Q 611.13 230.78 609.84 228.65
  Q 608.55 226.53 606.33 224.26
  A 1.77 1.75 -57.8 0 1 605.93 222.46
  L 608.00 216.63
  A 0.93 0.92 -63.0 0 1 609.39 216.18
  Q 609.84 216.48 610.15 217.02
  Q 612.67 221.34 615.15 225.43
  Z"
/>
<path fill="#d9d9d6" d="
  M 522.11 222.70
  L 517.79 233.05
  A 1.13 1.13 0.0 0 1 516.64 233.74
  L 503.22 232.49
  A 1.13 1.13 0.0 0 1 502.28 230.93
  L 506.59 220.58
  A 1.13 1.13 0.0 0 1 507.74 219.89
  L 521.17 221.14
  A 1.13 1.13 0.0 0 1 522.11 222.70
  Z"
/>
<ellipse fill="#d9d9d6" cx="0.00" cy="0.00" transform="translate(569.60,229.56) rotate(-15.6)" rx="3.02" ry="2.25"/>
<path fill="#929191" d="
  M 618.14 242.76
  L 611.41 258.93
  A 1.00 1.00 0.0 0 1 609.62 259.05
  L 599.39 241.32
  A 3.69 3.69 0.0 0 1 599.17 238.05
  L 600.80 234.15
  A 1.15 1.15 0.0 0 1 602.86 234.02
  L 607.72 242.43
  A 2.34 2.34 0.0 0 0 611.53 242.76
  Q 613.57 240.34 617.85 242.07
  A 0.53 0.52 22.5 0 1 618.14 242.76
  Z"
/>
<path fill="#d5c9ac" d="
  M 688.74 235.46
  Q 688.44 235.24 688.29 234.96
  Q 688.52 234.86 688.73 234.64
  Q 688.53 234.94 688.74 235.46
  Z"
/>
<path fill="#929191" d="
  M 695.49 247.46
  A 0.27 0.26 22.4 0 1 695.66 247.86
  L 695.39 248.26
  A 0.10 0.10 0.0 0 1 695.31 248.30
  L 625.80 238.48
  A 0.11 0.10 84.9 0 1 625.72 238.41
  L 625.72 238.38
  A 0.09 0.09 0.0 0 1 625.80 238.29
  Q 626.69 238.16 630.52 238.11
  A 3.38 0.09 12.2 0 1 633.49 238.67
  Q 634.41 238.87 638.29 239.36
  C 651.16 240.98 665.47 243.65 678.53 244.90
  Q 687.21 245.72 695.49 247.46
  Z"
/>
<path fill="#181819" d="
  M 450.26 240.16
  L 456.15 240.59
  A 1.18 1.18 0.0 0 1 457.13 242.27
  Q 456.65 243.28 455.67 243.28
  L 444.13 241.65
  A 2.11 2.11 0.0 0 0 441.86 242.99
  L 433.55 265.00
  Q 432.17 266.20 430.62 265.34
  A 0.55 0.55 0.0 0 1 430.38 264.65
  L 440.74 239.78
  A 2.00 2.00 0.0 0 1 443.01 238.59
  L 450.26 240.16
  Z"
/>
<path fill="#d9d9d6" d="
  M 455.67 243.28
  Q 457.38 245.13 455.46 248.74
  Q 454.65 250.28 453.85 251.83
  A 8.49 8.47 -26.5 0 0 453.08 254.12
  Q 452.18 259.16 449.70 263.67
  C 446.47 268.66 439.71 268.32 434.31 267.48
  A 0.91 0.89 83.6 0 1 433.61 266.91
  Q 433.27 266.05 433.55 265.00
  L 441.86 242.99
  A 2.11 2.11 0.0 0 1 444.13 241.65
  L 455.67 243.28
  Z
  M 442.97 260.92
  L 444.55 258.85
  A 0.51 0.51 0.0 0 0 444.45 258.14
  L 444.35 258.06
  A 2.40 1.78 37.2 0 0 441.36 258.03
  L 441.32 258.07
  A 2.40 1.78 37.2 0 0 442.16 260.94
  L 442.26 261.02
  A 0.51 0.51 0.0 0 0 442.97 260.92
  Z"
/>
<path fill="#d9d9d6" d="
  M 494.58 252.19
  L 493.35 251.31
  A 1.45 1.44 17.0 0 1 492.74 250.17
  Q 492.67 247.41 493.72 245.72
  A 2.20 2.19 19.1 0 1 495.82 244.71
  L 501.05 245.32
  A 1.64 1.31 -25.0 0 1 501.30 245.38
  L 510.74 248.17
  A 1.04 1.03 19.5 0 1 511.41 249.56
  L 506.82 260.59
  A 2.04 2.03 -67.3 0 1 504.16 261.69
  C 500.57 260.21 497.17 261.46 494.26 261.09
  Q 492.44 260.86 488.66 261.00
  A 0.88 0.88 0.0 0 1 487.78 259.88
  C 488.55 257.08 490.69 252.68 494.33 252.92
  A 0.40 0.40 0.0 0 0 494.58 252.19
  Z
  M 499.75 249.79
  Q 499.07 254.70 503.12 256.64
  A 0.99 0.98 15.8 0 0 504.52 255.86
  Q 504.78 253.52 501.94 251.64
  A 0.90 0.80 2.0 0 1 501.68 251.39
  L 500.52 249.62
  A 0.42 0.42 0.0 0 0 499.75 249.79
  Z"
/>
<path fill="#d5c9ac" d="
  M 500.52 249.62
  L 501.68 251.39
  A 0.90 0.80 2.0 0 0 501.94 251.64
  Q 504.78 253.52 504.52 255.86
  A 0.99 0.98 15.8 0 1 503.12 256.64
  Q 499.07 254.70 499.75 249.79
  A 0.42 0.42 0.0 0 1 500.52 249.62
  Z"
/>
<path fill="#d9d9d6" d="
  M 691.26 269.49
  A 0.50 0.50 0.0 0 1 690.67 270.24
  Q 687.90 269.18 686.37 271.68
  A 2.22 2.04 -57.1 0 1 683.36 272.46
  Q 682.11 271.59 680.79 270.30
  A 0.79 0.78 47.3 0 1 680.83 269.14
  Q 682.57 267.68 684.93 268.29
  A 0.83 0.83 0.0 0 0 685.97 267.40
  C 685.63 263.87 685.26 261.11 682.51 258.10
  Q 680.12 255.49 678.16 251.25
  A 0.59 0.59 0.0 0 1 678.73 250.41
  L 679.20 250.43
  A 1.43 1.42 -11.7 0 1 680.41 251.22
  Q 685.09 260.63 691.26 269.49
  Z"
/>
<ellipse fill="#929191" cx="0.00" cy="0.00" transform="translate(694.32,253.32) rotate(-103.6)" rx="0.67" ry="0.46"/>
<path fill="#17181d" d="
  M 559.19 257.81
  Q 555.55 256.81 552.42 257.09
  A 2.82 2.82 0.0 0 0 550.08 258.82
  L 540.99 280.90
  Q 538.19 281.58 539.12 277.65
  Q 542.62 270.56 547.47 257.96
  Q 548.71 254.75 551.70 253.71
  Q 558.82 254.24 564.01 255.37
  Q 565.24 255.63 565.76 256.21
  A 1.14 1.13 -22.9 0 1 564.99 258.10
  Q 562.15 258.29 559.19 257.81
  Z"
/>
<path fill="#929191" d="
  M 633.03 262.03
  Q 631.33 262.07 629.21 260.98
  A 1.01 1.01 0.0 0 0 627.78 262.17
  Q 628.31 263.96 630.51 265.05
  A 2.31 2.24 -31.2 0 0 631.51 265.28
  L 634.62 265.26
  Q 635.96 266.12 637.56 266.00
  A 1.20 1.18 -77.8 0 0 638.51 265.38
  Q 639.16 264.19 639.40 262.60
  A 1.10 0.94 -77.1 0 1 640.65 261.67
  C 643.12 262.52 642.95 266.88 641.94 268.59
  A 1.51 1.46 -80.3 0 1 641.00 269.28
  Q 638.53 269.87 637.25 271.66
  Q 635.98 273.45 634.81 273.61
  C 632.12 273.96 631.49 271.44 630.25 270.21
  A 2.27 2.22 75.0 0 0 629.29 269.64
  Q 623.80 267.96 618.82 267.92
  A 2.23 2.13 -30.8 0 1 617.95 267.72
  Q 615.51 266.60 614.88 264.02
  A 0.90 0.90 0.0 0 1 615.91 262.92
  L 618.98 263.45
  A 1.30 1.27 -57.9 0 0 619.95 263.22
  Q 620.49 262.84 623.56 262.67
  A 0.92 0.92 0.0 0 0 624.43 261.72
  L 624.36 258.77
  A 1.25 1.10 -41.4 0 1 624.41 258.37
  C 625.02 256.31 627.96 255.85 629.79 255.76
  A 1.53 1.52 65.1 0 1 630.90 256.17
  L 633.52 258.62
  A 1.60 1.57 70.3 0 0 634.39 259.04
  L 636.22 259.30
  A 0.68 0.68 0.0 0 1 636.80 260.07
  L 636.74 260.47
  A 0.56 0.56 0.0 0 1 635.95 260.91
  Q 634.21 260.10 633.03 262.03
  Z"
/>
<path fill="#929191" d="
  M 622.88 257.74
  A 0.46 0.46 0.0 0 1 623.14 258.33
  L 623.09 258.47
  A 2.73 2.27 21.3 0 1 619.72 259.60
  L 619.50 259.51
  A 2.73 2.27 21.3 0 1 617.78 256.40
  L 617.83 256.26
  A 0.46 0.46 0.0 0 1 618.43 256.00
  L 622.88 257.74
  Z"
/>
<path fill="#d9d9d6" d="
  M 559.19 257.81
  Q 562.44 259.07 564.35 260.97
  A 1.11 1.11 0.0 0 1 563.61 262.86
  C 561.45 262.95 556.38 263.17 554.65 264.89
  A 1.98 1.97 38.1 0 0 555.03 267.98
  Q 558.34 269.98 559.49 274.30
  A 2.18 2.17 54.0 0 1 559.22 276.02
  Q 554.02 284.13 544.27 283.04
  Q 542.25 282.81 540.99 280.90
  L 550.08 258.82
  A 2.82 2.82 0.0 0 1 552.42 257.09
  Q 555.55 256.81 559.19 257.81
  Z
  M 554.2541 272.8781
  A 2.19 1.65 -33.6 0 0 551.5169 272.7157
  A 2.19 1.65 -33.6 0 0 550.6059 275.3019
  A 2.19 1.65 -33.6 0 0 553.3431 275.4643
  A 2.19 1.65 -33.6 0 0 554.2541 272.8781
  Z"
/>
<path fill="#17181d" d="
  M 442.97 260.92
  A 0.51 0.51 0.0 0 1 442.26 261.02
  L 442.16 260.94
  A 2.40 1.78 37.2 0 1 441.32 258.07
  L 441.36 258.03
  A 2.40 1.78 37.2 0 1 444.35 258.06
  L 444.45 258.14
  A 0.51 0.51 0.0 0 1 444.55 258.85
  L 442.97 260.92
  Z"
/>
<path fill="#17181d" d="
  M 633.03 262.03
  Q 632.65 263.50 634.62 265.26
  L 631.51 265.28
  A 2.31 2.24 -31.2 0 1 630.51 265.05
  Q 628.31 263.96 627.78 262.17
  A 1.01 1.01 0.0 0 1 629.21 260.98
  Q 631.33 262.07 633.03 262.03
  Z"
/>
<path fill="#d9d9d6" d="
  M 858.95 261.35
  Q 861.97 263.41 859.05 267.67
  Q 856.10 268.97 855.34 270.87
  A 1.85 1.84 46.1 0 1 851.89 270.80
  L 850.90 267.99
  A 1.61 1.59 78.1 0 0 849.29 266.93
  Q 843.28 267.34 837.19 265.64
  Q 842.89 264.58 848.52 265.05
  Q 848.66 264.88 849.22 264.96
  Q 849.98 265.11 850.79 264.93
  L 851.53 264.85
  L 858.95 261.35
  Z"
/>
<path fill="#181819" d="
  M 849.22 264.96
  Q 848.66 264.88 848.52 265.05
  Q 848.65 264.76 849.22 264.96
  Z"
/>
<path fill="#181819" d="
  M 851.53 264.85
  L 850.79 264.93
  L 851.53 264.85
  Z"
/>
<ellipse fill="#17181d" cx="0.00" cy="0.00" transform="translate(552.43,274.09) rotate(-33.6)" rx="2.19" ry="1.65"/>
<rect fill="#d9d9d6" x="-0.84" y="-10.01" transform="translate(688.11,284.34) rotate(12.9)" width="1.68" height="20.02" rx="0.82"/>
<path fill="#929191" d="
  M 573.90 287.34
  L 573.15 287.34
  A 1.08 1.07 -48.8 0 1 573.01 285.20
  L 575.89 284.81
  A 0.76 0.60 -52.0 0 0 576.05 284.77
  Q 578.11 283.84 577.99 281.91
  A 1.00 0.99 14.1 0 1 579.51 281.00
  Q 581.74 282.41 580.98 285.07
  Q 579.72 289.46 574.82 287.51
  A 2.61 2.49 -33.1 0 0 573.90 287.34
  Z"
/>
<path fill="#929191" d="
  M 430.51 386.19
  Q 429.11 384.94 428.97 382.09
  C 428.03 363.36 428.11 352.48 427.20 333.33
  Q 426.72 323.24 426.92 308.28
  C 427.00 302.36 426.92 294.60 426.37 290.18
  A 1.28 1.26 61.6 0 1 426.64 289.24
  C 427.83 287.75 429.96 286.93 431.30 288.82
  Q 431.60 289.26 432.24 291.28
  Q 433.99 296.88 434.09 301.51
  Q 434.33 313.26 433.62 322.79
  C 433.30 327.20 434.16 332.43 433.74 335.69
  Q 432.64 344.12 432.62 352.57
  C 432.60 364.01 431.13 374.75 430.95 385.99
  A 0.27 0.26 -69.0 0 1 430.51 386.19
  Z"
/>
<path fill="#929191" d="
  M 650.30 296.58
  A 0.78 0.78 0.0 0 0 649.59 297.75
  L 651.87 301.71
  A 1.13 1.13 0.0 0 1 650.84 303.40
  L 638.77 302.82
  A 2.28 2.28 0.0 0 1 636.74 301.31
  L 635.89 298.89
  A 0.91 0.91 0.0 0 1 636.85 297.68
  Q 640.11 298.06 642.50 297.41
  Q 643.18 297.23 644.14 296.17
  A 1.25 1.24 -84.6 0 0 642.57 294.27
  Q 639.80 295.97 638.03 292.30
  A 0.81 0.80 -6.2 0 1 638.94 291.17
  Q 641.10 291.69 642.84 292.78
  A 1.43 1.43 0.0 0 0 644.47 292.71
  Q 646.76 291.02 650.47 290.64
  A 1.63 1.59 -31.7 0 1 651.45 290.86
  Q 653.07 291.81 654.35 295.17
  A 1.14 1.14 0.0 0 1 653.23 296.72
  L 650.30 296.58
  Z"
/>
<path fill="#929191" d="
  M 534.67 297.37
  A 1.44 1.42 88.9 0 0 533.78 298.31
  L 531.89 304.71
  A 1.24 1.24 0.0 0 1 530.35 305.55
  L 529.71 305.36
  A 1.36 1.35 -73.6 0 1 528.80 303.68
  L 531.37 295.01
  A 0.84 0.83 16.2 0 1 532.41 294.44
  L 537.10 295.83
  A 0.35 0.35 0.0 0 1 537.12 296.50
  L 534.67 297.37
  Z"
/>
<path fill="#929191" d="
  M 580.25 323.76
  Q 580.05 322.47 580.13 318.53
  C 580.16 316.70 581.71 314.63 582.92 313.82
  A 1.03 1.03 0.0 0 1 584.38 315.19
  Q 581.72 319.73 581.03 323.77
  A 0.40 0.40 0.0 0 1 580.25 323.76
  Z"
/>
<path fill="#929191" d="
  M 574.43 320.39
  A 0.24 0.24 0.0 0 1 574.09 320.41
  L 574.00 320.33
  A 2.37 2.36 41.8 0 1 573.80 316.99
  L 574.02 316.75
  A 2.37 2.36 41.8 0 1 577.36 316.57
  L 577.45 316.65
  A 0.24 0.24 0.0 0 1 577.47 316.99
  L 574.43 320.39
  Z"
/>
<path fill="#d9d9d6" d="
  M 542.24 404.28
  C 536.92 404.06 531.61 403.15 524.44 402.56
  Q 518.90 402.10 510.55 402.54
  Q 500.68 403.06 490.99 402.11
  C 487.65 401.78 485.24 402.54 483.25 405.62
  Q 482.98 406.03 478.40 412.10
  A 8.47 8.26 76.5 0 0 477.41 413.76
  Q 474.06 421.27 472.34 429.09
  A 3.09 2.93 67.9 0 1 472.03 429.88
  L 466.23 439.92
  A 0.57 0.56 -21.7 0 1 465.20 439.48
  Q 465.99 436.84 467.83 431.27
  C 469.73 425.52 473.88 417.35 474.87 412.82
  Q 475.99 407.70 477.56 401.87
  A 2.58 2.58 0.0 0 0 476.56 399.09
  C 470.97 395.16 463.92 393.38 456.24 392.37
  Q 446.13 391.04 436.06 389.94
  Q 440.91 376.23 445.65 362.45
  C 451.97 344.05 463.86 330.21 482.63 324.30
  Q 484.93 323.57 493.56 321.75
  A 3.06 2.92 -46.4 0 1 494.56 321.70
  C 497.08 321.97 497.94 321.91 500.33 322.58
  Q 501.83 323.00 503.40 322.87
  A 1.52 1.46 -32.5 0 1 504.24 323.04
  L 530.05 336.41
  A 2.50 2.43 0.0 0 1 531.09 337.42
  Q 536.72 347.65 540.26 359.28
  C 544.57 373.40 543.80 389.34 542.24 404.28
  Z
  M 479.91 342.30
  Q 491.15 335.48 503.35 341.13
  Q 507.53 343.07 509.87 344.53
  C 512.58 346.23 515.32 346.97 518.20 347.89
  A 1.07 1.06 26.4 0 0 519.40 347.49
  L 525.14 339.40
  A 1.82 1.81 -60.3 0 0 524.40 336.69
  L 511.50 330.88
  A 1.08 0.28 14.3 0 1 511.39 330.82
  Q 505.14 326.92 503.99 326.60
  Q 501.04 325.78 488.27 324.33
  C 483.68 323.80 479.77 325.00 478.74 329.48
  Q 477.42 335.18 479.14 341.99
  A 0.52 0.51 -22.7 0 0 479.91 342.30
  Z"
/>
<path fill="#929191" d="
  M 479.14 341.99
  Q 477.42 335.18 478.74 329.48
  C 479.77 325.00 483.68 323.80 488.27 324.33
  Q 501.04 325.78 503.99 326.60
  Q 505.14 326.92 511.39 330.82
  A 1.08 0.28 14.3 0 0 511.50 330.88
  L 524.40 336.69
  A 1.82 1.81 -60.3 0 1 525.14 339.40
  L 519.40 347.49
  A 1.07 1.06 26.4 0 1 518.20 347.89
  C 515.32 346.97 512.58 346.23 509.87 344.53
  Q 507.53 343.07 503.35 341.13
  Q 491.15 335.48 479.91 342.30
  A 0.52 0.51 -22.7 0 1 479.14 341.99
  Z"
/>
<path fill="#d5c9ac" d="
  M 588.21 328.77
  A 0.24 0.24 0.0 0 1 588.37 329.07
  L 588.02 330.21
  A 4.84 1.14 -73.1 0 1 585.53 334.51
  A 4.84 1.14 -73.1 0 1 585.84 329.55
  L 586.19 328.40
  A 0.24 0.24 0.0 0 1 586.49 328.24
  L 588.21 328.77
  Z"
/>
<path fill="#d9d9d6" d="
  M 675.57 330.99
  L 674.71 333.55
  Q 673.14 332.78 673.37 331.44
  Q 673.52 330.59 674.26 330.52
  Q 674.89 330.47 675.57 330.99
  Z"
/>
<path fill="#d9d9d6" d="
  M 666.72 334.55
  A 0.93 0.93 0.0 0 1 668.33 335.45
  Q 666.29 341.09 663.70 345.03
  A 4.07 3.98 -19.6 0 0 663.23 345.99
  Q 661.87 350.16 661.08 355.06
  Q 660.73 357.31 659.79 359.12
  A 0.46 0.45 -49.6 0 1 659.02 359.19
  Q 658.80 358.89 658.88 358.45
  Q 660.62 349.34 661.81 344.82
  Q 663.42 338.70 666.72 334.55
  Z"
/>
<ellipse fill="#d5c9ac" cx="0.00" cy="0.00" transform="translate(605.91,338.64) rotate(-106.9)" rx="1.86" ry="1.00"/>
<path fill="#d5c9ac" d="
  M 591.95 346.25
  Q 592.06 344.80 593.22 344.87
  Q 596.07 345.06 597.33 343.78
  A 0.92 0.88 71.6 0 1 598.84 344.58
  Q 598.73 345.58 597.82 346.16
  A 1.36 1.34 29.7 0 1 597.03 346.37
  Q 594.84 346.29 593.63 347.41
  A 1.19 1.00 74.5 0 1 591.95 346.25
  Z"
/>
<path fill="#d5c9ac" d="
  M 604.07 353.62
  Q 605.41 351.03 607.10 348.11
  Q 607.82 346.88 607.40 345.76
  Q 606.91 344.43 605.56 344.60
  Q 604.29 344.77 603.21 346.30
  Q 603.65 343.25 606.47 343.70
  Q 609.69 344.22 608.83 347.33
  A 1.80 1.10 82.6 0 1 608.76 347.54
  L 607.85 349.72
  A 1.22 1.21 -56.4 0 0 608.11 351.04
  L 609.73 352.66
  A 1.12 1.11 73.0 0 1 608.73 354.55
  L 604.07 353.62
  Z"
/>
<path fill="#929191" d="
  M 604.07 353.62
  Q 602.20 355.75 601.87 357.87
  Q 601.19 362.25 600.09 365.61
  Q 597.85 363.29 598.43 364.54
  Q 600.48 359.96 601.08 353.57
  Q 601.39 350.17 603.21 346.30
  Q 604.29 344.77 605.56 344.60
  Q 606.91 344.43 607.40 345.76
  Q 607.82 346.88 607.10 348.11
  Q 605.41 351.03 604.07 353.62
  Z"
/>
<ellipse fill="#17181d" cx="0.00" cy="0.00" transform="translate(570.71,359.62) rotate(-68.2)" rx="6.98" ry="1.71"/>
<path fill="#929191" d="
  M 607.26 379.43
  Q 606.17 377.79 605.95 376.83
  Q 606.73 373.53 608.92 371.43
  A 0.92 0.92 0.0 0 1 610.26 371.51
  Q 611.19 372.61 613.31 372.48
  A 1.37 1.33 -69.0 0 0 614.20 372.07
  Q 615.79 370.44 617.22 369.85
  A 1.05 1.04 -1.6 0 1 618.61 371.16
  L 615.39 380.23
  A 0.70 0.70 0.0 0 1 614.03 379.96
  L 614.16 377.24
  A 1.59 1.58 -2.6 0 0 612.35 375.59
  Q 607.80 376.26 607.26 379.43
  Z"
/>
<path fill="#d5c9ac" d="
  M 652.56 375.65
  Q 651.07 374.71 650.41 372.63
  A 0.77 0.77 0.0 0 1 651.31 371.65
  Q 653.17 372.08 656.76 371.39
  Q 657.24 371.29 657.59 371.72
  Q 657.93 372.15 657.53 372.48
  Q 653.71 375.62 653.51 375.71
  A 0.97 0.96 48.4 0 1 652.56 375.65
  Z"
/>
<path fill="#d5c9ac" d="
  M 656.62 379.51
  L 655.41 382.05
  C 653.51 380.02 652.00 378.29 649.31 379.58
  Q 648.78 379.84 648.65 380.71
  Q 648.47 382.00 648.38 382.04
  A 0.88 0.87 -83.7 0 1 647.34 380.74
  Q 649.20 377.91 652.61 376.95
  A 1.03 1.02 55.7 0 1 653.49 377.12
  L 656.62 379.51
  Z"
/>
<path fill="#d9d9d6" d="
  M 636.80 382.29
  L 638.32 382.92
  A 1.06 1.06 0.0 0 0 639.79 382.04
  L 639.94 380.49
  A 0.98 0.97 -58.8 0 1 641.73 380.05
  C 643.72 383.11 640.65 385.90 638.29 387.51
  A 0.69 0.68 49.6 0 1 637.42 387.43
  Q 635.61 385.64 635.12 383.76
  A 1.24 1.24 0.0 0 1 636.80 382.29
  Z"
/>
<ellipse fill="#d5c9ac" cx="0.00" cy="0.00" transform="translate(620.14,387.98) rotate(-65.4)" rx="5.76" ry="1.23"/>
<path fill="#929191" d="
  M 639.92 396.26
  A 0.26 0.26 0.0 0 1 639.56 396.34
  L 639.38 396.22
  A 1.81 1.35 33.2 0 1 638.61 394.10
  L 638.76 393.87
  A 1.81 1.35 33.2 0 1 641.02 393.73
  L 641.19 393.85
  A 0.26 0.26 0.0 0 1 641.27 394.21
  L 639.92 396.26
  Z"
/>
<path fill="#d9d9d6" d="
  M 650.25 398.21
  Q 647.70 399.71 645.63 398.40
  A 2.05 2.02 -84.3 0 1 644.80 397.37
  L 644.00 395.11
  A 0.83 0.83 0.0 0 1 645.12 394.07
  Q 647.59 395.13 649.46 396.34
  Q 650.40 396.94 650.25 398.21
  Z"
/>
<path fill="#d5c9ac" d="
  M 635.43 411.50
  A 0.36 0.36 0.0 0 1 634.90 411.13
  Q 635.67 406.50 636.99 401.25
  Q 637.25 400.19 637.90 399.22
  A 0.98 0.98 0.0 0 1 639.25 398.94
  Q 642.99 401.37 641.48 404.64
  A 2.13 1.80 34.6 0 0 642.10 406.91
  Q 643.45 408.11 643.75 409.03
  A 1.28 1.28 0.0 0 1 642.37 410.70
  Q 640.80 410.49 639.54 409.82
  A 1.30 1.29 -46.1 0 0 638.29 409.85
  L 635.43 411.50
  Z"
/>
<path fill="#929191" d="
  M 632.30 399.04
  A 0.34 0.34 0.0 0 1 632.87 399.33
  C 632.40 404.01 628.18 404.24 624.68 403.18
  A 0.48 0.48 0.0 0 1 624.51 402.34
  Q 624.95 401.97 625.30 401.97
  Q 629.08 401.93 632.30 399.04
  Z"
/>
<path fill="#17181d" d="
  M 649.16 401.44
  L 649.14 404.32
  Q 648.49 402.94 649.16 401.44
  Z"
/>
<path fill="#d5c9ac" d="
  M 634.56 417.91
  Q 634.76 418.96 634.54 419.40
  A 0.31 0.31 0.0 0 1 633.97 419.35
  Q 633.86 419.01 634.19 417.90
  A 0.19 0.19 0.0 0 1 634.56 417.91
  Z"
/>
<path fill="#d5c9ac" d="
  M 649.57 428.84
  L 648.69 432.26
  Q 645.98 431.54 643.24 432.11
  A 1.60 1.59 85.4 0 1 641.32 430.47
  L 641.34 430.02
  A 1.77 1.77 0.0 0 1 643.25 428.34
  L 649.57 428.84
  Z"
/>
</svg>
