<?xml version="1.0" encoding="UTF-8" standalone="no"?>
<!-- Created with Inkscape (http://www.inkscape.org/) -->

<svg
   version="1.1"
   id="svg1"
   width="682.66669"
   height="214.66667"
   viewBox="0 0 682.66669 214.66667"
   xmlns="http://www.w3.org/2000/svg"
   xmlns:svg="http://www.w3.org/2000/svg"
   xmlns:rdf="http://www.w3.org/1999/02/22-rdf-syntax-ns#"
   xmlns:cc="http://creativecommons.org/ns#"
   xmlns:dc="http://purl.org/dc/elements/1.1/">
  <title
     id="title1">Earthdaily Constellation Icon SVG</title>
  <defs
     id="defs1" />
  <g
     id="g1">
    <path
       style="fill:#000000"
       d="m 278.66667,201.46377 c 2.36678,-9.46371 -1.54589,-14.6979 -8.28791,-17.55696 3.52472,-32.2471 -0.0639,-65.33396 7.69023,-96.972575 -42.01075,-3.252809 -84.64157,-0.950853 -126.92526,-1.6009 -8.79176,-0.102091 -20.07692,-2.827982 -16.57584,10.005711 -1.58101,29.970604 -1.15901,59.994244 -1.23415,89.994294 -44.44458,0 -88.88916,0 -133.33374,0 C 0,123.55556 0,61.77778 0,0 c 44.88889,0 89.77778,0 134.66667,0 -0.0412,25.776626 0.59289,51.568729 -0.20431,77.333335 49.0726,0 98.14519,0 147.21779,0 -2.9742,-15.291966 11.96761,-29.315835 8.24005,-46.910522 2.82781,-15.549647 30.71096,-21.4974977 45.07981,-12.913958 -0.70621,8.916686 45.33783,-12.1652024 54.05032,4.564807 3.58819,18.124128 8.89412,31.78813 12.79775,44.375079 -3.73349,14.938949 10.5223,10.348297 19.78723,10.884594 42.16003,0 84.32007,0 126.48011,0 -1,-25.756751 -0.099,-51.558085 -0.1154,-77.333335 44.88889,0 89.77778,0 134.66667,0 0,61.77778 0,123.55556 0,185.33334 -44.44445,0 -88.88889,0 -133.33334,0 0.20763,-33.34314 -0.78761,-66.67494 -1.75917,-100.000005 -46.80557,0.415635 -93.69135,-1.018825 -140.43415,1.039888 3.16775,16.497327 3.5258,38.971517 3.90903,58.407727 2.609,19.41255 2.99283,38.89906 -6.86854,51.37322 2.46431,12.44246 -0.17076,24.73683 -14.7554,16.95185 -3.99069,-10.51698 7.39981,-30.45356 -11.17392,-25.10602 -27.86151,0 -55.72301,0 -83.58452,0 0,8.88889 0,17.77778 0,26.66667 -8.77655,0.10364 -20.03176,2.68594 -16.00001,-10.01872 0,-1.06139 0,-2.12279 0,-3.18418 z m 50.71208,-69.12767 c -10.22282,-2.73083 -22.53151,-0.82165 -5.14649,0.789 8.55638,-0.16285 25.72965,-0.31367 7.75522,-0.69727 l -1.43036,-0.0503 z M 274.38559,80.349576 c -14.813,-0.850873 -24.84683,1.005726 -2.77391,0.438741 -1.65448,0.335048 8.49668,-0.325936 2.77391,-0.438741 z m 11.91997,0.178204 c -5.69696,-1.520792 -1.45726,2.460513 0,0 z m 9.95438,118.80556 c 0.97822,-7.75346 0.57916,8.35467 0,0 z m 0.8234,-9.57749 c 7.33652,-0.71267 -2.05264,2.2168 0,0 z m 25.91667,-0.0442 c 16.09057,-0.66869 3.30329,1.60631 0,0 z m 16.01833,-0.002 c 11.66375,-1.15035 4.62971,1.95947 0,0 z m 14.67371,0.0328 c 11.38602,-1.14847 -1.89318,2.18661 0,0 z M 135.18897,166.66667 c 0.61161,-38.06325 0.75206,35.89693 0,0 z m 277.23781,-32 c 0.74081,-17.63393 0.69617,17.67316 0,0 z m -0.0636,-20 c 0.78458,-12.23115 0.74982,12.2578 0,0 z M 278.8772,73.333335 c 0.99978,-7.371565 0.99978,7.371565 0,0 z m 125.33334,0 c 0.99975,-7.371374 0.99975,7.371374 0,0 z m 141.38274,-10 c 0.97822,-7.753459 0.57916,8.354674 0,0 z m -409.33334,-4 c 0.89804,-7.580897 0.59813,8.312009 0,0 z m 0.0763,-38.666668 c 0.87796,-10.113709 0.53805,11.409649 0,0 z M 320.33334,11.0809 c 11.4329,-1.2971959 0.49094,2.147157 0,0 z"
       id="path1" />
  </g>
  <metadata
     id="metadata1">
    <rdf:RDF>
      <cc:Work
         rdf:about="">
        <dc:title>Earthdaily Constellation Icon SVG</dc:title>
      </cc:Work>
    </rdf:RDF>
  </metadata>
</svg>
