<?xml version="1.0" encoding="UTF-8" standalone="no"?>
<!-- Created with Inkscape (http://www.inkscape.org/) -->

<svg
   version="1.1"
   id="svg1"
   width="1080"
   height="444"
   viewBox="0 0 1080 444"
   xmlns="http://www.w3.org/2000/svg"
   xmlns:svg="http://www.w3.org/2000/svg"
   xmlns:rdf="http://www.w3.org/1999/02/22-rdf-syntax-ns#"
   xmlns:cc="http://creativecommons.org/ns#"
   xmlns:dc="http://purl.org/dc/elements/1.1/">
  <title
     id="title1">Earthdaily Constellation Icon SVG</title>
  <defs
     id="defs1" />
  <g
     id="g1">
    <path
       style="fill:currentColor"
       d="m 634.58049,439.53293 c -2.01324,-2.4569 -4.90469,-5.20208 -6.42544,-6.10041 -1.52076,-0.89834 -3.86527,-3.72565 -5.21003,-6.28293 -3.84029,-7.30293 -6.73155,-9.7502 -12.44502,-10.53394 -2.75,-0.37722 -7.475,-1.12834 -10.5,-1.66913 -3.025,-0.5408 -9.1,-1.41673 -13.5,-1.94652 -4.4,-0.52979 -10.25,-1.37153 -13,-1.87053 -12.3029,-2.23244 -26.4262,-4.09434 -31.1849,-4.11115 -2.8517,-0.0101 -6.25702,-0.42594 -7.56738,-0.92414 -1.31037,-0.4982 -12.63475,-1.05078 -25.16529,-1.22795 l -22.7828,-0.32213 -3.82076,4.47795 c -2.10143,2.46287 -4.3502,6.27795 -4.99728,8.47795 -0.64709,2.2 -1.58266,4.78139 -2.07905,5.73643 -0.4964,0.95504 -0.91949,2.75504 -0.94021,4 -0.0491,2.95375 -5.00214,12.81594 -7.07641,14.09026 -0.88774,0.54538 -2.40839,0.6868 -3.37922,0.31425 -1.40266,-0.53824 -1.65901,-1.46869 -1.24831,-4.5307 0.4389,-3.27224 4.45117,-13.23362 7.79249,-19.34667 0.52202,-0.95504 0.94912,-2.61598 0.94912,-3.69098 0,-1.07501 0.39812,-2.20061 0.8847,-2.50133 0.48659,-0.30073 1.11952,-1.78979 1.40651,-3.30902 0.287,-1.51923 0.8258,-3.71522 1.19734,-4.87997 1.44344,-4.52504 -10.52437,-8.59909 -29.00471,-9.87371 l -10.01616,-0.69082 -1.23384,3.41213 C 434.55523,398.10654 434,400.59051 434,401.7498 c 0,3.16722 -6.19315,9.2502 -9.41774,9.2502 -3.98244,0 -8.15713,-2.53632 -9.38667,-5.70284 -0.72734,-1.87316 -1.18679,-23.27795 -1.39086,-64.79716 -0.31154,-63.38532 -0.34751,-62.5842 3.23291,-72 0.41829,-1.1 1.30135,-3.575 1.96236,-5.5 1.97785,-5.75989 2.56407,-7.13205 6.8356,-16 5.45827,-11.33169 9.1644,-21.40199 9.1644,-24.90151 0,-3.55116 -2.65797,-4.72322 -12.5,-5.51203 -7.14556,-0.57269 -18.87081,-1.97251 -30.5,-3.64124 -3.575,-0.513 -10.325,-1.37156 -15,-1.90791 -4.675,-0.53635 -11.2,-1.45864 -14.5,-2.04954 -14.10538,-2.52569 -18.61252,-3.12854 -29.5,-3.94577 -6.325,-0.47477 -17.575,-1.80586 -25,-2.95799 -7.425,-1.15212 -18.9,-2.79218 -25.5,-3.64457 -6.6,-0.85239 -13.49147,-2.01942 -15.31438,-2.59342 -1.82291,-0.57399 -7.89791,-1.46259 -13.5,-1.97467 -27.33215,-2.4984 -35.40463,-3.60768 -36.25391,-4.98184 C 217.12935,188.40028 215.55852,188 213.94098,188 c -2.53785,0 -3.29901,0.72638 -3.14366,3 0.0188,0.275 0.52356,16.475 1.1217,36 1.52881,49.90453 1.67874,82.80224 0.38328,84.0977 -1.21199,1.21199 -14.50851,0.6718 -23.8023,-0.96701 -10.02459,-1.76767 -19.58805,-3.19955 -28,-4.19227 -4.4,-0.51927 -11.15,-1.37299 -15,-1.89716 -19.31301,-2.62947 -23.53738,-3.19308 -30,-4.00256 -3.85,-0.48224 -11.275,-1.59095 -16.5,-2.4638 -5.225,-0.87285 -16.869131,-2.50666 -25.875847,-3.6307 -9.006716,-1.12404 -18.681716,-2.5076 -21.5,-3.07459 C 44.806214,289.49797 36.05115,288.08517 27.5,286.97671 5.8605357,284.17166 7.4580065,285.15387 6.6509762,274.15765 6.3015066,269.39594 5.8020065,262.8 5.5409759,259.5 5.2799453,256.2 4.8230806,236.85 4.525721,216.5 3.6928934,159.50489 2.3803227,109.56141 1.6085165,105.5 1.3994788,104.4 0.8963364,80.2125 0.49042234,51.75 L -0.24760321,0 19.126198,0.07951676 C 41.754724,0.17239203 47.007742,0.64931617 74.5,5.1069315 c 3.3,0.5350645 9.15,1.3943496 13,1.9095224 3.85,0.5151729 10.15,1.3711024 14,1.9020657 6.74221,0.9298354 17.24168,2.2619934 32,4.0601164 13.01233,1.585394 22.99005,2.950891 25,3.421363 1.1,0.257479 7.625,0.96052 14.5,1.562313 18.87305,1.652024 29.26702,3.168504 31.62177,4.61362 1.16697,0.716173 2.4463,2.567068 2.84296,4.1131 0.64693,2.521535 1.67617,41.77384 3.10224,118.310968 0.56808,30.48897 -0.25318,28.11915 11.18837,32.28487 10.47565,3.81405 26.9693,6.99253 45.24466,8.71907 6.325,0.59755 12.85,1.33549 14.5,1.63987 5.25396,0.96922 16.79913,2.4519 23,2.95377 3.3,0.26708 6.9,0.88735 8,1.37837 1.1,0.49102 4.7,1.17849 8,1.52772 15.06768,1.59457 28.82675,3.25773 41,4.956 10.84751,1.51331 24.60652,3.07815 36,4.09436 6.93103,0.61819 12.8572,1.60807 27.5,4.59347 15.60888,3.18237 17.46615,2.76901 20.88153,-4.6475 1.45358,-3.15644 3.10604,-6.44618 7.79254,-15.51347 1.56733,-3.03241 3.3903,-7.30741 4.05104,-9.5 6.53944,-21.70016 8.90046,-28.65776 11.38196,-33.54103 1.59111,-3.1311 2.89293,-6.19974 2.89293,-6.8192 0,-0.61947 0.45,-1.1263 1,-1.1263 0.55,0 1,-0.47835 1,-1.06301 0,-0.58466 1.42091,-4.00918 3.15758,-7.61006 2.39667,-4.96933 3.1887,-8.02666 3.28667,-12.68699 0.17113,-8.13991 1.95778,-11.3642 8.05575,-14.53778 2.75,-1.431187 5.15,-2.93966 5.33333,-3.35216 0.18334,-0.4125 1.16928,-0.75 2.19099,-0.75 1.0217,0 2.13576,-0.45 2.47568,-1 0.33992,-0.55 2.45119,-1 4.69172,-1 6.78584,0 10.4925,6.24493 7.46943,12.58439 -1.52178,3.1912 -1.50561,3.42848 0.29936,4.39448 3.87893,2.07594 9.92262,1.2093 13.90936,-1.99454 7.28221,-5.85214 13.0907,-5.76188 23.00482,0.35746 6.18351,3.81668 8.0703,4.43562 15.62531,5.12566 5.6629,0.51723 15.92428,2.16799 22.26435,3.58169 2.34539,0.52297 5.63748,0.95086 7.31574,0.95086 1.67827,0 3.9541,0.48311 5.0574,1.07358 1.10331,0.59047 4.11122,1.20582 6.68426,1.36743 2.57304,0.16161 6.59075,0.63602 8.92825,1.05423 3.31052,0.59229 4.25123,0.45581 4.25558,-0.61743 0.0261,-6.44081 4.67345,-11.87944 10.14871,-11.87659 2.59916,0.001 7.84571,4.01396 7.84571,6.00046 0,1.51462 3.80869,5.18152 7.8796,7.58627 3.71968,2.19727 7.12063,8.19139 7.11961,12.5482 -4.3e-4,1.85012 -1.35043,6.21675 -3,9.70364 C 646.34964,149.32667 645,152.827 645,153.61831 c 0,1.68089 5.40622,12.68142 8.12666,16.53606 1.03034,1.4599 1.87334,3.16031 1.87334,3.77867 0,1.16691 9.14709,13.43382 11.98069,16.06696 3.17279,2.94834 5.7854,7.58725 7.37013,13.08629 0.88543,3.07246 3.81976,8.92246 6.52073,13 2.70098,4.07754 4.68604,7.78717 4.41125,8.24363 -0.27479,0.45645 0.48789,1.52159 1.69483,2.36697 1.29202,0.90496 2.00879,2.24705 1.74296,3.26356 -0.2561,0.97936 0.35579,2.23067 1.41396,2.89151 1.026,0.64074 1.86545,1.84228 1.86545,2.67008 0,1.55914 1.7571,5.0776 3.5,7.00848 1.54392,1.71044 5.17322,2.51914 15.5,3.45378 5.225,0.4729 14.45,1.59733 20.5,2.49875 6.05,0.90141 14.375,2.09521 18.5,2.65287 17.28433,2.33671 20.78967,2.85178 26.5,3.89386 3.3,0.60222 9.825,1.46938 14.5,1.92701 13.58551,1.32989 24.98965,2.94116 32.19741,4.54911 3.68357,0.82176 11.33357,1.49242 17,1.49036 8.40554,-0.003 10.8841,-0.35831 13.46065,-1.92939 2.96372,-1.80715 3.19513,-2.37617 3.76036,-9.24626 0.33127,-4.02634 0.73761,-37.02061 0.90298,-73.32061 0.34792,-76.36844 -0.17269,-72.06558 8.6986,-71.89403 5.40114,0.10444 17.26181,1.40641 29.98,3.29096 12.73312,1.88676 23.62198,3.29431 32,4.13649 10.12981,1.01827 20.97009,2.42334 30.35036,3.93388 3.7677,0.60673 10.9677,1.5244 16,2.03926 5.0323,0.51487 14.54964,1.6514 21.14964,2.52563 13.4972,1.78782 23.4798,3.07734 34.5,4.45661 4.125,0.51628 10.875,1.40508 15,1.97512 4.125,0.57005 9.8708,1.31777 12.7685,1.66162 2.8976,0.34385 5.5117,1.01877 5.809,1.49982 0.2973,0.48105 2.3436,0.87464 4.5473,0.87464 2.2037,0 4.9803,0.52107 6.1703,1.15794 5.1982,2.78199 4.9587,-1.78041 4.2321,80.62248 -1.6794,190.46435 -2.0008,211.66042 -3.2524,214.46958 -1.1717,2.6298 -1.5382,2.75 -8.384,2.75 -3.9373,0 -8.786,-0.43502 -10.7748,-0.96671 -3.7835,-1.01149 -29.755,-4.89914 -51.116,-7.65153 -6.875,-0.88585 -14.975,-2.00932 -18,-2.49661 -6.23961,-1.00512 -16.00993,-2.40334 -27,-3.86394 -4.125,-0.54822 -9.975,-1.47999 -13,-2.0706 -3.025,-0.59062 -8.65,-1.45821 -12.5,-1.92798 -14.80858,-1.80692 -23.25408,-2.93874 -30,-4.02043 -3.85,-0.61734 -11.5,-1.51795 -17,-2.00137 -25.97385,-2.28293 -30.11623,-3.43822 -31.09831,-8.67315 -0.34735,-1.85154 -0.32086,-27.09522 0.0589,-56.09706 0.87476,-66.81015 0.91935,-64.42405 -1.2279,-65.70057 -0.95296,-0.56653 -4.43266,-1.31311 -7.73266,-1.65907 -3.3,-0.34596 -8.925,-1.16597 -12.5,-1.82226 -6.9474,-1.27538 -15.06182,-2.35044 -29.5,-3.90837 -4.95,-0.53412 -13.95,-1.66307 -20,-2.50877 -6.05,-0.84569 -15.5,-2.03764 -21,-2.64876 -5.5,-0.61112 -15.175,-2.04081 -21.5,-3.17709 -16.13545,-2.8987 -22.2545,-3.79089 -32,-4.66577 -8.00917,-0.719 -11.54225,-0.21116 -9.08713,1.30619 2.77496,1.71502 -0.2195,18.59471 -4.08089,23.00385 -0.45759,0.5225 -0.83198,1.76 -0.83198,2.75 0,0.99 -0.45,1.8 -1,1.8 -0.55,0 -1,0.66131 -1,1.46958 0,0.80827 -0.9,3.07196 -2,5.03042 -1.1,1.95846 -2,4.64559 -2,5.9714 0,1.32581 -0.45,2.68868 -1,3.0286 -0.55,0.33992 -1,1.71648 -1,3.05902 0,1.34254 -0.45,2.44098 -1,2.44098 -0.55,0 -1,0.68111 -1,1.51357 0,0.83246 -0.40075,2.29496 -0.89056,3.25 -1.22016,2.37909 -5.19254,11.28913 -6.12414,13.73643 -0.41873,1.1 -2.36512,6.05 -4.32532,11 -1.9602,4.95 -4.54117,11.7 -5.73548,15 -1.19432,3.3 -2.56592,6.4275 -3.04799,6.95 -0.48208,0.5225 -0.87651,1.76611 -0.87651,2.76357 0,0.99746 -0.3975,2.59496 -0.88333,3.55 -0.86709,1.7045 -2.26296,5.02666 -3.98592,9.48643 -0.47809,1.2375 -1.88693,4.725 -3.13075,7.75 -3.53969,8.60859 -3.79261,9.27698 -4.96656,13.1248 -1.45133,4.75699 -1.52701,14.08444 -0.13537,16.68474 1.33436,2.49327 1.44557,10.22832 0.19256,13.39341 -0.50015,1.26338 -1.67469,4.9089 -2.61009,8.10116 C 649.21668,440.03005 645.83969,444 641.53157,444 c -2.68348,0 -3.96604,-0.82423 -6.95108,-4.46707 z"
       id="path1" />
  </g>
  <metadata
     id="metadata1">
    <rdf:RDF>
      <cc:Work
         rdf:about="">
        <dc:title>Earthdaily Constellation Icon SVG</dc:title>
      </cc:Work>
    </rdf:RDF>
  </metadata>
</svg>
