<?xml version="1.0" encoding="UTF-8" standalone="no"?>
<!-- Created with Inkscape (http://www.inkscape.org/) -->

<svg
   version="1.1"
   id="svg1"
   width="163.84"
   height="166.08"
   viewBox="0 0 163.84 166.08"
   xmlns="http://www.w3.org/2000/svg"
   xmlns:svg="http://www.w3.org/2000/svg"
   xmlns:rdf="http://www.w3.org/1999/02/22-rdf-syntax-ns#"
   xmlns:cc="http://creativecommons.org/ns#"
   xmlns:dc="http://purl.org/dc/elements/1.1/">
  <title
     id="title1">HotSat-1 Icon SVG</title>
  <defs
     id="defs1" />
  <g
     id="g1">
    <path
       style="fill:currentColor"
       d="m 158.31457,164.85654 c -3.91173,-1.99803 -8.08139,-1.95783 -12.23457,-3.25658 -4.83769,-2.53721 -9.04647,-4.39897 -15.35127,-3.81097 -3.49344,-0.87978 -9.60264,-1.84062 -11.04873,-3.76791 -2.92496,1.84379 -6.33939,0.006 -6.35431,-3.92762 -2.68101,-10.09013 -4.64429,-20.41362 -8.36569,-30.1766 -0.6725,-4.55532 -1.6922,-5.64944 -1.49097,-0.27429 -5.154087,4.77263 -2.6108,-4.72805 -6.349032,-3.80261 -0.447719,5.49043 -7.671503,9.57061 -12.698452,5.1229 -4.672684,0.81286 -5.892187,-6.8661 -9.274364,-1.3737 -6.193515,2.04806 -6.210738,-3.8987 -10.633803,-5.57951 -2.956949,-3.40119 -7.884858,-1.21157 -13.63338,-3.44602 -6.680075,-2.92055 -8.371986,-0.67988 -15.644721,-1.53441 -3.686156,-2.42564 -6.333126,-6.84126 -9.143539,-10.549249 C 17.446722,86.857824 8.9683282,75.130544 0.41193336,63.432356 0.01953682,57.906086 10.34599,64.149126 13.92,64.000001 c 4.858785,1.319041 9.962608,4.109534 14.588049,3.836106 0.806532,-1.834585 0.04942,-5.648445 0.253897,-8.245119 -0.04413,-10.948928 -0.475253,-21.97736 -0.478067,-32.856095 8.653452,-1.40144 3.829025,-6.723124 3.39612,-10.094893 3.63835,-1.059464 6.76126,-1.42527 4.93805,1.146833 0.933043,-0.419996 8.42065,0.600505 3.581798,-2.314553 5.608014,0.131859 9.896928,5.512123 15.559652,1.260279 3.825286,0.0038 5.644767,-3.304699 6.540008,-7.7637974 -0.85686,-6.6559782 6.917316,-10.085963 12.288245,-7.6940832 6.554988,1.4836227 13.25684,3.0868007 19.652249,4.8053197 6.297279,0.1063508 10.151989,4.0675139 15.519999,6.1245729 5.85945,-0.858204 11.45096,0.420974 17.16589,2.782301 2.8077,3.793328 9.87345,2.58343 14.19411,4.853126 9.04286,0.273763 6.14773,9.265477 6.71229,15.627651 0.24563,20.285034 1.26261,40.554307 1.78754,60.836048 2.49007,6.029033 -16.30115,5.096853 -4.42244,7.275143 3.29506,1.13042 3.4311,4.03654 3.97592,7.97414 1.06893,4.6748 2.65523,8.94529 3.5695,13.58937 1.15089,3.96253 1.53533,6.2222 2.77715,10.32432 1.88168,7.41872 3.54154,14.76418 5.44,22.29333 0.56566,4.48792 4.42284,8.96814 -2.64539,7.09654 z m -23.18848,-7.62644 c -1.84507,-0.2456 -0.78245,0.45687 0,0 z M 25.359999,68.588071 c -1.991294,-0.31744 -0.02482,0.553668 0,0 z M 148.05859,54.980001 c -0.54865,-0.550172 0.2763,1.788998 0,0 z M 86.158318,34.72 c -0.699973,-2.792308 -0.207965,2.787279 0,0 z m 61.275212,-3.592862 c -0.38291,2.70639 0.30291,3.239038 0,0 z M 86.079998,32.32 c -0.878706,-1.194554 -0.290106,1.103741 0,0 z m -0.406667,-2.433333 c -1.178074,-0.362939 -0.587871,0.557291 0,0 z M 89.599998,28.8 c -0.878705,-1.194554 -0.290108,1.103741 0,0 z m -1.83391,-0.849899 c -1.844997,-0.245584 -0.782539,0.456949 0,0 z M 36.479999,23.36 c -0.817582,-1.147985 -0.817582,1.147985 0,0 z m 1.193333,0.126667 c -1.178075,-0.362939 -0.58787,0.55729 0,0 z m -2.473333,-1.905552 c -0.487619,-1.228997 -0.824149,1.620281 0,0 z M 37.011929,21.04 c -0.555118,-0.103463 0.335956,2.1382 0,0 z m -0.53193,0.08 c -0.817582,-1.147985 -0.817582,1.147985 0,0 z m 13.92,95.68 c -0.01398,-1.07603 0.982406,1.06602 0,0 z M 153.28,67.520001 c 1.09358,-3.495661 0.41547,3.225501 0,0 z m -0.0413,-4.853334 c -0.973,-2.911055 2.05558,-1.143699 0,0 z M 38.079999,16.096 c 1.028977,-1.045249 3.32674,1.485723 0,0 z M 130.8,12.682654 c -5.35108,-5.1173514 6.62613,1.810569 0,0 z"
       id="path1" />
  </g>
  <metadata
     id="metadata1">
    <rdf:RDF>
      <cc:Work
         rdf:about="">
        <dc:title>HotSat-1 Icon SVG</dc:title>
        <dc:source>https://www.kpgeo.pl/wp-content/uploads/2024/11/HotSat1b.png</dc:source>
      </cc:Work>
    </rdf:RDF>
  </metadata>
</svg>
