<?xml version="1.0" encoding="UTF-8" standalone="no"?>
<!-- Created with Inkscape (http://www.inkscape.org/) -->

<svg
   version="1.1"
   id="svg1"
   width="682.66669"
   height="762.66669"
   viewBox="0 0 682.66669 762.66669"
   xmlns="http://www.w3.org/2000/svg"
   xmlns:svg="http://www.w3.org/2000/svg"
   xmlns:rdf="http://www.w3.org/1999/02/22-rdf-syntax-ns#"
   xmlns:cc="http://creativecommons.org/ns#"
   xmlns:dc="http://purl.org/dc/elements/1.1/">
  <title
     id="title1">KhalifaSat Icon SVG</title>
  <defs
     id="defs1" />
  <g
     id="g1">
    <path
       style="fill:currentColor"
       d="m 566.66668,760.56204 c -1.94451,-30.31303 -31.07382,-59.60175 -43.25886,-89.18739 -39.53755,-69.35519 -76.7655,-140.35713 -117.90859,-208.58014 4.40766,27.85458 31.46331,59.6854 44.38815,88.99159 13.84151,15.39819 25.20629,55.2503 -8.32644,35.59147 -14.93477,-0.586 -33.48259,-23.44592 -46.51339,-11.288 -17.50208,14.901 -34.97918,30.27681 -55.132,40.57711 12.42183,24.69266 -19.36295,-10.09374 -35.49323,0.85443 -36.51449,-1.7771 3.67665,3.76235 -3.03499,12.89483 -13.27719,6.4989 -6.87428,-10.88814 -19.61227,2.39584 -4.41185,-3.30926 -18.02307,5.25318 -5.7786,-13.47623 -20.48209,-10.356 -48.43696,2.47696 -55.06885,3.63061 -15.41431,4.24067 -26.50063,14.05885 -21.74502,30.74318 11.62773,44.62964 -43.49206,40.35407 -70.56944,30.17954 C 77.317121,666.95803 31.938988,631.83033 1.4044862,587.5205 -4.2580026,548.99105 25.822932,511.05152 62.000002,499.92212 66.747595,483.69289 71.49519,467.46366 76.242787,451.23443 55.838328,435.16793 56.266173,412.88745 51.235525,387.65637 c 4.917937,-16.95265 34.951756,-3.95448 14.09781,-23.1389 23.134927,-14.95263 42.129185,-22.16958 56.246565,-45.58895 26.67044,-24.72207 47.83168,-49.65375 70.55023,-77.78596 20.31166,-20.86838 37.10007,-46.70015 63.06708,-59.50686 C 227.90359,166.22869 224.63436,123.72887 203.33354,99.333336 185.54237,66.820637 166.63148,34.882735 149.5523,2.0032638 189.20477,21.008021 228.09714,41.563158 267.33334,61.411723 c 31.16883,50.043037 60.61163,101.216587 93.4833,150.157487 17.96055,25.797 42.54915,-3.50155 64.00299,-7.96218 30.36568,-9.2996 47.58056,39.34711 71.55287,55.14193 15.11085,16.06173 30.22169,32.12347 45.33254,48.18521 -15.57695,15.68861 -31.15391,31.37723 -46.73086,47.06584 8.62017,23.25958 44.10056,43.89128 16.52268,62.38004 -6.32615,27.28029 41.88434,25.2559 24.45395,55.08281 -5.81559,4.40999 -39.67269,-4.21386 -19.87371,9.33989 29.72607,19.23612 41.0915,61.53679 63.25304,89.87681 34.12732,57.20784 70.96302,112.98269 103.33659,171.11735 -28.58857,13.25032 -65.74972,10.58367 -97.57767,17.29872 -6.14283,0.43835 -12.2113,2.46218 -18.42238,1.46641 z M 199.10848,617.58181 c 5.56898,-16.25097 -13.0472,-28.16629 -4.40643,0.0135 l 1.30991,2.40473 z m -4.44181,-16.16977 c 2.85834,-7.15176 1.92005,4.61365 0,0 z m 10.83674,10.92131 c 4.46014,-6.3657 -8.1129,7.85608 0,0 z M 6.2222224,590.05867 c -1.989832,-4.86627 -1.0042831,5.99385 0,0 z M 105.71619,496.50605 c -9.496238,-16.866 -28.654761,-38.27799 -31.259967,-5.1202 -4.158692,11.59777 24.536141,3.90084 31.259967,5.1202 z M 85.853634,406.89848 c 3.824299,-13.52079 -24.352234,14.82684 -1.667468,7.08914 z M 256.17008,280.33334 c 4.11885,-6.00257 -7.44171,7.09749 0,0 z M 148.61185,11.911292 c -1.62887,-6.6872885 4.33973,5.077999 0,0 z"
       id="path1" />
  </g>
  <metadata
     id="metadata1">
    <rdf:RDF>
      <cc:Work
         rdf:about="">
        <dc:title>KhalifaSat Icon SVG</dc:title>
        <dc:source>https://upload.wikimedia.org/wikipedia/commons/thumb/6/6e/KhalifaSat_UAE_Satellite.jpg/960px-KhalifaSat_UAE_Satellite.jpg</dc:source>
      </cc:Work>
    </rdf:RDF>
  </metadata>
</svg>
