<?xml version="1.0" encoding="UTF-8" standalone="no"?>
<!-- Created with Inkscape (http://www.inkscape.org/) -->

<svg
   version="1.1"
   id="svg1"
   width="682.66669"
   height="292"
   viewBox="0 0 682.66669 292"
   sodipodi:docname="Jason-1-icon.svg"
   inkscape:version="1.4 (e7c3feb1, 2024-10-09)"
   xmlns:inkscape="http://www.inkscape.org/namespaces/inkscape"
   xmlns:sodipodi="http://sodipodi.sourceforge.net/DTD/sodipodi-0.dtd"
   xmlns="http://www.w3.org/2000/svg"
   xmlns:svg="http://www.w3.org/2000/svg"
   xmlns:rdf="http://www.w3.org/1999/02/22-rdf-syntax-ns#"
   xmlns:cc="http://creativecommons.org/ns#"
   xmlns:dc="http://purl.org/dc/elements/1.1/">
  <sodipodi:namedview
     id="namedview1"
     pagecolor="#ffffff"
     bordercolor="#000000"
     borderopacity="0.25"
     inkscape:showpageshadow="2"
     inkscape:pageopacity="0.0"
     inkscape:pagecheckerboard="0"
     inkscape:deskcolor="#d1d1d1"
     inkscape:zoom="0.78061086"
     inkscape:cx="313.85676"
     inkscape:cy="175.50358"
     inkscape:window-width="1104"
     inkscape:window-height="605"
     inkscape:window-x="0"
     inkscape:window-y="25"
     inkscape:window-maximized="0"
     inkscape:current-layer="svg1" />
  <title
     id="title1">Jason-1 Icon SVG</title>
  <defs
     id="defs1" />
  <g
     id="g1">
    <path
       style="fill:currentColor"
       d="m 672.33335,290.01218 c -2.38333,-1.0359 -4.33333,-1.63903 -4.33333,-1.34029 0,0.29873 -2.34575,-0.28448 -5.21279,-1.29603 -2.86703,-1.01154 -5.56703,-1.48493 -6,-1.05196 -0.43296,0.43297 -0.78721,0.21578 -0.78721,-0.48263 0,-0.69841 -1.05,-1.34936 -2.33333,-1.44655 -1.28334,-0.0972 -6.53334,-1.38956 -11.66667,-2.87194 -5.13333,-1.48237 -9.33333,-2.63539 -9.33333,-2.56226 0,0.0731 -2.1,-0.495 -4.66667,-1.26252 -12.4625,-3.72672 -25.73388,-7.31823 -28.38483,-7.68155 -1.62168,-0.22225 -8.04851,-1.88899 -14.28184,-3.70387 -6.23333,-1.81488 -12.83333,-3.69015 -14.66667,-4.16726 -1.83333,-0.47712 -12.63333,-3.27755 -24,-6.2232 -28.5827,-7.40713 -42.09022,-11.60861 -43.65733,-13.5795 -0.73293,-0.92177 -2.75986,-9.71591 -4.5043,-19.54251 -1.74444,-9.82661 -3.78918,-18.71152 -4.54387,-19.74424 -1.15646,-1.5825 -2.93807,-1.31686 -11.33333,1.68982 -5.47864,1.96212 -10.0846,3.67046 -10.23545,3.7963 -0.15086,0.12584 0.65986,2.90537 1.8016,6.17674 1.57086,4.50089 1.89128,8.9921 1.31707,18.46071 -0.41735,6.88202 -1.08807,12.84202 -1.49049,13.24444 -1.72649,1.72649 -4.05091,-3.26062 -8.09613,-17.37046 L 461.60871,214 l -8.88979,-0.3962 c -8.83056,-0.39356 -8.95059,-0.35113 -18.01315,6.36722 -5.01785,3.71989 -11.1499,9.00657 -13.62679,11.74818 l -4.50342,4.98476 -15.5904,-0.49491 -15.59039,-0.4949 0.83358,10.80959 c 1.06681,13.83413 -1.36063,14.60966 -3.57738,1.14293 -2.1507,-13.06549 -1.87369,-12.51122 -6.73911,-13.4843 -3.49122,-0.69824 -4.70151,-0.31499 -6.32504,2.00293 -1.92772,2.75221 -2.079,2.7689 -3.79726,0.41904 -0.98425,-1.34604 -1.78955,-3.42042 -1.78955,-4.60972 0,-1.18931 -1.85495,-3.92463 -4.12211,-6.0785 -5.41414,-5.14358 -8.63113,-11.59998 -10.62367,-21.32137 -1.35699,-6.62062 -1.26457,-10.19073 0.5604,-21.64815 1.20196,-7.54604 2.18538,-15.76993 2.18538,-18.27533 0,-4.86571 0.31143,-4.70981 -24.13329,-12.08073 -1.8731,-0.5648 -2.22412,1.97417 -2.87799,20.81665 -0.40959,11.80295 -0.96114,21.67634 -1.22566,21.94086 -0.26453,0.26453 -8.86943,-1.63347 -19.12201,-4.21777 -10.25258,-2.58429 -20.78729,-5.14628 -23.41047,-5.6933 -2.62318,-0.54702 -5.36522,-1.36281 -6.09343,-1.81287 -0.72821,-0.45006 -2.927,-1.10896 -4.88621,-1.46423 -1.95921,-0.35528 -5.70998,-1.4226 -8.33506,-2.37185 l -4.77287,-1.72589 0.70281,-22.03107 c 0.75138,-23.55354 -0.96826,-22.19726 -2.49642,1.96893 -1.14508,18.10807 -1.53059,19.66712 -4.62064,18.68638 -1.38365,-0.43916 -3.8116,-1.04803 -5.39543,-1.35305 -1.58383,-0.30501 -3.98383,-0.90501 -5.33333,-1.33333 -1.3495,-0.42832 -3.55157,-0.9925 -4.89349,-1.25374 -2.69572,-0.5248 -16.07455,-4.25268 -38.43985,-10.71091 l -14.66666,-4.23516 0.0346,-6.56676 c 0.0498,-9.438 1.68641,-31.09813 2.76303,-36.56676 0.50531,-2.56667 0.51374,-4.29785 0.0187,-3.84708 -0.495,0.45078 -1.09561,1.95078 -1.33468,3.33333 -0.23908,1.38256 -1.87026,10.83808 -3.62486,21.01225 -1.91638,11.11234 -3.86442,18.75908 -4.87881,19.15109 -1.87879,0.72606 -16.59897,-2.63536 -45.64469,-10.42316 C 95.867321,134.92011 95.893007,134.92978 96.648504,131.59611 98.170691,124.87937 103.23793,97.131351 104.42725,89 c 0.33718,-2.305285 -0.0733,-3.666667 -1.1056,-3.666667 -1.57455,0 -3.837493,8.254397 -9.451029,34.473907 -1.311844,6.12731 -3.107867,11.4179 -3.991162,11.75685 -0.883295,0.33895 -11.717521,-1.87834 -24.076058,-4.92732 -12.358536,-3.04899 -23.370066,-5.75501 -24.470066,-6.01339 -1.1,-0.25839 -10.828198,-2.6983 -21.618217,-5.42203 l -19.61821675,-4.95224 0.1655747,-4.4043 c 0.0910661,-2.42237 0.66926332,-4.09301 1.28488275,-3.71254 0.6156194,0.38048 1.119308,-0.0865 1.119308,-1.03772 0,-1.480174 18.0976473,-61.045174 27.2721713,-89.761217 C 32.610932,2.9697429 32.699755,1.9058359 30.793712,1.0937137 29.623838,0.59525621 51.166668,0.28652224 78.666669,0.40763819 L 128.66667,0.62784902 86.000003,1.0363101 43.333335,1.4447712 70.666669,10.827169 c 15.033334,5.160319 31.143141,10.609894 35.799571,12.110166 l 8.46624,2.727769 -0.92632,7.414025 c -0.50948,4.077714 -1.41636,8.702922 -2.0153,10.278241 -0.59893,1.575319 -1.43686,5.053239 -1.86206,7.728712 -0.4252,2.675473 -1.39851,7.655232 -2.16291,11.066132 -0.7644,3.4109 -1.09863,6.492819 -0.74274,6.848709 0.35589,0.355891 0.96194,-0.773725 1.34679,-2.510258 0.78614,-3.547331 4.45779,-21.381002 6.2662,-30.435739 0.65304,-3.269791 1.76404,-6.521773 2.4689,-7.226627 1.47501,-1.475014 0.008,-1.888418 42.46987,11.964602 l 31.10823,10.148842 -0.71088,11.529129 c -0.60787,9.858454 -0.52424,10.563068 0.57712,4.862461 0.7084,-3.666666 1.37196,-8.3538 1.47457,-10.415853 0.17652,-3.547376 0.44465,-3.704344 4.98131,-2.916114 2.63711,0.458189 17.69475,5.147355 33.46141,10.420368 l 28.66667,9.587296 0.66667,11.328819 0.66666,11.328818 0.70621,-9.595097 c 0.38842,-5.277303 1.00682,-9.895709 1.37424,-10.263124 0.81379,-0.813795 15.47363,3.477703 41.25289,12.076305 L 323.33334,95.333333 324.39379,112 c 1.61815,25.43175 1.50179,25.02292 7.58816,26.6618 2.86458,0.77135 11.69051,3.53315 19.61319,6.13733 l 14.40487,4.73488 9.62829,-10.43367 c 5.89696,-6.39022 9.64316,-11.59629 9.66667,-13.43367 0.0406,-3.17138 2.10966,-4.11947 3.02135,-1.38442 0.30296,0.90888 3.52064,-1.51099 7.35594,-5.53208 5.49593,-5.76215 6.72499,-7.87804 6.34056,-10.91563 -0.62665,-4.95154 6.14468,-11.224321 9.92973,-9.198628 1.89852,1.01606 2.37759,0.816272 2.23672,-0.932793 -0.0986,-1.224185 1.83443,-3.458189 4.29561,-4.964455 7.11818,-4.356407 28.8977,-24.949644 28.47015,-26.919448 -1.22168,-5.628453 6.90765,-10.671595 19.3975,-12.033514 5.66933,-0.618197 7.6177,-0.298349 9.70846,1.593761 4.20797,3.808167 3.39258,9.232094 -1.85319,12.327173 -5.89316,3.477048 -7.12845,7.926497 -2.75396,9.919646 1.77876,0.810458 3.38157,1.226095 3.56181,0.923639 C 475.18588,78.247464 476.24178,76.2 477.35208,74 c 3.04188,-6.027322 10.6667,-9.113041 24.11035,-9.757323 13.18887,-0.632071 27.24059,2.041688 37.1681,7.072337 6.65977,3.37476 13.36949,10.16636 13.36949,13.532642 0,1.087014 0.6,1.605569 1.33333,1.152344 0.73333,-0.453225 1.31448,-0.338635 1.29143,0.254644 -0.055,1.416373 -3.07071,3.484815 -20.62476,14.146356 -8.06667,4.89933 -16.26917,10.26338 -18.22778,11.92011 l -3.56112,3.01222 L 515.36621,130 c 3.79145,17.62485 4.01409,23.00149 1.08642,26.23652 -1.21772,1.34557 -1.96772,2.66067 -1.66666,2.92245 0.30106,0.26177 4.14738,1.65547 8.54738,3.09712 5.54303,1.81614 8.50583,3.61256 9.64701,5.8492 1.2361,2.42269 1.65192,2.6459 1.66667,0.89471 0.0108,-1.28333 0.5924,-2.33333 1.29242,-2.33333 0.70001,0 8.95001,2.62285 18.33333,5.82856 9.38331,3.20572 18.86057,6.44034 21.06057,7.18806 2.2,0.74772 9.1,2.95564 15.33333,4.90648 6.23334,1.95085 15.23334,4.96492 20,6.69794 4.76667,1.73302 16.46667,5.59979 26.00001,8.59283 9.53333,2.99304 18.05359,5.91138 18.9339,6.48519 1.46617,0.95567 4.75058,10.85011 15.14808,45.63427 2.08245,6.96667 5.36841,17.76667 7.30214,24 1.93374,6.23333 3.83336,12.38333 4.22139,13.66667 0.88561,2.92901 -3.63342,3.0861 -9.93885,0.34551 z M 384.91083,247.75 c -0.42563,-1.06364 -0.74158,-0.7477 -0.80556,0.80556 -0.0579,1.40555 0.25724,2.19305 0.7003,1.75 0.44305,-0.44306 0.49042,-1.59306 0.10526,-2.55556 z m -24.26931,-93.05553 c 2.73873,-3.02627 3.21519,-2.7116 -9.97484,-6.5877 -4.76667,-1.40076 -11.51667,-3.4391 -15,-4.52965 l -6.33334,-1.98281 v 4.36951 c 0,3.66908 0.58777,4.50756 3.66667,5.23071 2.01667,0.47365 7.86667,2.01407 13,3.42314 11.79101,3.23656 11.78201,3.23651 14.64151,0.0768 z M 259.63298,101.02388 c -0.29675,-2.396468 -0.54566,-0.75721 -0.55315,3.64279 -0.007,4.4 0.23531,6.36074 0.53955,4.35721 0.30423,-2.00353 0.31035,-5.60353 0.0136,-8 z M 187.59066,85.692043 c -0.33806,-1.297291 -0.63688,-0.55871 -0.66406,1.64129 -0.0272,2.2 0.24942,3.261419 0.61465,2.35871 0.36524,-0.90271 0.38747,-2.70271 0.0494,-4 z m 1.33333,-9.333334 C 188.58594,75.061419 188.28711,75.8 188.25994,78 c -0.0272,2.2 0.24942,3.261419 0.61465,2.358709 0.36523,-0.90271 0.38746,-2.70271 0.0494,-4 z M 0.10526316,97.888889 c 0.0639786,-1.553257 0.37992041,-1.869199 0.80555558,-0.805556 0.38516086,0.9625 0.33779236,2.1125 -0.10526316,2.555556 -0.44305557,0.443051 -0.75818716,-0.344445 -0.70029242,-1.75 z"
       id="path1" />
  </g>
  <metadata
     id="metadata1">
    <rdf:RDF>
      <cc:Work
         rdf:about="">
        <dc:title>Jason-1 Icon SVG</dc:title>
        <dc:source>https://upload.wikimedia.org/wikipedia/commons/5/57/Jason-1.jpg</dc:source>
      </cc:Work>
    </rdf:RDF>
  </metadata>
</svg>
