<?xml version="1.0" encoding="UTF-8" standalone="no"?>
<svg xmlns="http://www.w3.org/2000/svg" version="1.2" baseProfile="tiny" viewBox="0.00 0.00 512.00 444.00" width="512.00" height="444.00">
<path fill="#101227" d="
  M 37.70 0.00
  Q 37.86 2.23 35.18 0.00
  L 37.70 0.00
  Z"
/>
<path fill="#5253ad" d="
  M 376.23 73.08
  Q 371.84 66.80 368.53 59.73
  Q 368.10 58.81 367.63 58.60
  Q 367.00 58.32 366.25 58.83
  A 0.63 0.63 0.0 0 0 366.03 59.62
  L 373.66 75.36
  L 371.04 75.19
  L 305.12 98.31
  A 0.26 0.25 -73.9 0 1 304.88 97.87
  Q 339.69 69.66 371.82 44.32
  C 378.24 39.26 386.03 33.01 393.56 29.80
  Q 422.80 17.36 451.67 6.26
  A 0.29 0.28 13.5 0 1 451.97 6.74
  C 433.98 22.40 411.60 41.76 381.77 67.02
  Q 378.81 69.53 376.23 73.08
  Z"
/>
<path fill="#cfd3df" d="
  M 376.23 73.08
  Q 377.70 74.35 378.08 76.01
  L 383.01 84.92
  L 386.50 91.70
  Q 386.33 92.65 387.04 93.52
  Q 387.41 95.09 386.68 95.99
  A 1.31 1.30 -72.8 0 1 385.74 96.49
  Q 384.26 96.61 383.92 97.97
  A 0.36 0.36 0.0 0 1 383.39 98.19
  L 382.91 97.92
  A 0.48 0.48 0.0 0 1 382.69 97.63
  Q 382.44 96.79 383.63 96.24
  A 0.61 0.60 -26.4 0 0 383.91 95.42
  L 373.66 75.36
  L 366.03 59.62
  A 0.63 0.63 0.0 0 1 366.25 58.83
  Q 367.00 58.32 367.63 58.60
  Q 368.10 58.81 368.53 59.73
  Q 371.84 66.80 376.23 73.08
  Z"
/>
<path fill="#abb2a4" d="
  M 399.59 70.26
  L 399.65 75.14
  L 399.67 80.96
  Q 399.18 81.48 399.61 82.29
  L 399.41 84.71
  L 399.38 87.29
  L 399.37 105.05
  Q 397.53 105.69 397.03 104.88
  L 396.70 96.54
  C 397.18 92.86 397.02 88.94 397.33 85.50
  Q 398.05 77.50 397.78 69.48
  Q 397.95 69.05 397.88 68.49
  L 398.51 60.57
  A 0.44 0.44 0.0 0 1 398.95 60.16
  L 399.20 60.16
  A 0.18 0.17 0.0 0 1 399.38 60.33
  L 399.59 70.26
  Z"
/>
<path fill="#747479" d="
  M 397.88 68.49
  Q 397.95 69.05 397.78 69.48
  Q 397.92 69.01 397.88 68.49
  Z"
/>
<path fill="#101227" d="
  M 399.65 75.14
  L 399.59 70.26
  L 399.65 75.14
  Z"
/>
<path fill="#f9b025" d="
  M 373.66 75.36
  L 383.91 95.42
  A 0.61 0.60 -26.4 0 1 383.63 96.24
  Q 382.44 96.79 382.69 97.63
  A 0.48 0.48 0.0 0 0 382.91 97.92
  L 383.39 98.19
  A 0.36 0.36 0.0 0 0 383.92 97.97
  Q 384.26 96.61 385.74 96.49
  A 1.31 1.30 -72.8 0 0 386.68 95.99
  Q 387.41 95.09 387.04 93.52
  Q 387.21 94.03 387.51 94.09
  Q 387.91 94.17 388.22 93.80
  L 394.49 100.33
  A 0.98 0.97 21.7 0 0 396.17 99.61
  Q 396.10 98.28 396.70 96.54
  L 397.03 104.88
  Q 396.35 105.64 394.72 105.30
  Q 393.16 105.55 392.56 105.25
  Q 391.15 104.56 389.85 105.51
  C 388.20 105.51 385.43 106.11 383.96 105.49
  A 1.53 1.51 -39.7 0 0 383.03 105.41
  Q 380.02 106.07 377.31 104.78
  L 372.51 95.29
  A 0.29 0.28 -58.4 0 0 371.97 95.42
  L 371.97 97.20
  A 0.89 0.89 0.0 0 1 371.40 98.03
  Q 369.72 98.70 370.24 100.52
  Q 370.80 102.45 370.64 104.39
  A 0.59 0.58 -85.9 0 1 370.03 104.93
  Q 367.02 104.76 364.77 106.15
  L 357.48 110.69
  A 1.08 0.28 -14.3 0 1 357.37 110.75
  Q 352.89 112.72 349.14 115.82
  C 348.07 116.71 347.09 116.54 346.14 118.08
  A 0.44 0.43 25.6 0 0 346.37 118.72
  Q 347.90 119.23 348.99 117.99
  A 1.27 1.21 14.3 0 1 349.70 117.59
  Q 351.31 117.31 356.20 114.41
  A 0.24 0.24 0.0 0 1 356.55 114.71
  Q 355.87 116.27 354.10 117.08
  Q 350.64 118.65 348.19 120.58
  A 1.28 1.25 -63.7 0 1 347.40 120.86
  Q 344.74 120.88 344.16 119.88
  A 0.57 0.56 -29.7 0 0 343.38 119.67
  L 339.55 121.88
  A 0.53 0.53 0.0 0 0 339.36 122.07
  Q 338.80 122.96 337.77 122.85
  A 0.55 0.55 0.0 0 0 337.16 123.39
  Q 337.16 123.50 337.14 123.58
  A 0.97 0.96 -2.7 0 1 336.49 124.29
  Q 334.46 124.95 332.22 126.46
  C 327.69 129.52 325.56 131.22 321.69 133.15
  Q 318.16 134.90 314.52 137.84
  A 2.48 2.43 -72.2 0 1 313.65 138.30
  C 311.80 138.87 310.39 140.38 308.51 141.49
  Q 305.37 143.34 302.45 145.60
  Q 301.03 145.56 300.96 146.57
  Q 298.63 148.45 296.07 149.15
  A 1.03 1.01 2.1 0 0 295.38 149.78
  Q 295.27 150.06 295.00 150.58
  Q 294.96 150.65 292.14 151.86
  Q 290.62 152.51 288.62 154.29
  Q 288.54 154.35 288.46 154.41
  L 281.96 158.62
  A 1.62 1.59 27.0 0 1 281.17 158.87
  Q 279.98 158.92 279.29 159.54
  Q 276.86 161.72 274.98 162.88
  L 268.99 166.45
  Q 267.58 168.81 264.75 169.57
  A 2.58 2.58 0.0 0 0 263.92 169.96
  L 259.99 172.79
  Q 258.93 175.29 262.52 176.58
  Q 263.44 176.46 264.70 177.23
  Q 264.19 177.15 263.92 177.24
  A 0.44 0.43 65.3 0 0 263.69 177.88
  L 282.42 209.94
  L 284.41 217.22
  A 1.00 0.66 33.7 0 0 284.46 217.34
  Q 285.74 220.24 286.13 223.43
  Q 286.35 225.14 286.83 225.73
  Q 287.53 226.56 289.06 225.75
  Q 290.11 225.19 290.81 224.95
  L 298.96 238.42
  A 0.95 0.95 0.0 0 0 300.29 238.72
  Q 321.61 224.59 343.10 210.32
  Q 343.77 209.87 343.21 209.16
  Q 345.31 209.79 346.43 208.73
  Q 347.71 207.51 347.77 207.47
  Q 372.58 191.35 396.88 175.03
  A 1.34 1.33 58.6 0 0 397.30 173.28
  L 391.75 163.19
  L 411.46 151.00
  A 1.25 1.19 61.4 0 1 413.19 151.55
  L 413.26 151.71
  A 1.27 1.27 0.0 0 1 412.68 153.40
  Q 411.51 153.99 410.11 153.93
  A 0.67 0.66 -87.4 0 0 409.42 154.57
  C 409.30 157.25 410.34 157.11 411.28 158.90
  L 410.90 159.00
  A 0.54 0.53 71.2 0 0 410.55 159.73
  Q 413.68 166.82 416.45 172.50
  C 417.60 174.85 419.01 176.44 420.61 178.56
  A 1.60 1.59 50.6 0 0 422.93 178.79
  L 428.23 174.15
  Q 426.81 175.85 427.37 177.17
  Q 429.17 181.43 434.47 191.53
  Q 440.54 203.11 443.69 210.81
  Q 444.58 212.99 445.41 218.56
  Q 446.13 223.41 446.86 226.38
  Q 448.24 231.95 451.09 242.14
  Q 471.47 315.06 481.03 347.94
  Q 481.56 349.77 483.18 353.04
  A 3.18 3.11 9.9 0 0 483.82 353.93
  Q 483.94 354.05 488.81 359.14
  Q 491.98 362.45 491.03 365.85
  Q 489.86 370.05 490.24 372.24
  Q 491.27 378.18 495.00 391.22
  Q 495.37 392.52 496.44 393.05
  Q 497.21 393.63 498.46 393.22
  Q 499.18 393.20 499.66 393.38
  A 0.41 0.40 31.3 0 1 499.82 394.03
  L 498.75 395.18
  Q 498.17 394.01 497.26 394.06
  A 0.65 0.65 0.0 0 0 496.64 394.71
  L 496.64 397.08
  A 1.33 1.32 -7.4 0 1 495.65 398.36
  Q 493.82 398.84 492.35 399.88
  A 1.36 1.35 33.0 0 1 491.29 400.10
  Q 490.09 399.83 489.40 400.47
  Q 483.68 390.57 475.40 382.52
  A 2.56 2.53 -20.8 0 0 473.79 381.81
  Q 469.18 381.55 465.71 384.40
  L 452.62 390.55
  A 1.53 1.46 12.5 0 0 452.34 390.72
  Q 450.56 392.11 448.52 392.15
  A 2.45 2.44 31.8 0 0 447.53 392.38
  C 445.89 393.13 444.02 394.56 441.86 395.51
  Q 440.54 396.09 427.26 402.04
  Q 426.08 402.57 425.42 402.84
  Q 414.87 407.21 407.96 410.08
  Q 403.85 411.79 400.51 412.71
  Q 395.00 414.23 392.75 414.18
  Q 390.30 414.13 389.56 414.92
  Q 389.10 415.18 388.79 415.57
  Q 388.74 414.86 387.75 414.95
  Q 381.69 415.47 377.21 415.11
  L 372.65 417.32
  A 1.24 1.22 -53.0 0 1 371.92 417.43
  Q 369.02 417.04 367.84 419.46
  A 0.28 0.28 0.0 0 1 367.37 419.52
  Q 366.74 418.79 366.19 419.20
  Q 364.19 420.70 362.19 420.99
  L 353.91 413.09
  A 0.73 0.72 -53.3 0 1 353.79 412.20
  L 357.13 406.40
  A 0.64 0.64 0.0 0 0 357.01 405.60
  Q 350.62 399.90 343.41 395.70
  Q 339.91 391.87 335.02 390.05
  Q 322.44 380.30 309.61 370.86
  C 292.96 358.61 279.76 348.22 266.02 338.47
  Q 265.05 337.78 263.04 337.35
  A 3.81 3.70 68.6 0 1 261.61 336.70
  Q 258.71 334.58 256.64 331.61
  Q 251.47 324.22 246.75 316.02
  Q 230.14 287.22 210.32 258.26
  Q 210.24 258.15 208.26 255.62
  Q 206.41 253.25 205.64 250.24
  Q 205.28 248.97 204.20 248.38
  Q 203.69 246.58 202.62 245.45
  L 176.93 201.82
  A 2.04 2.03 48.1 0 1 177.05 199.58
  L 189.48 182.77
  A 8.97 8.73 75.7 0 0 190.44 181.10
  C 192.39 176.55 195.25 173.82 198.44 170.35
  A 6.87 6.41 84.6 0 0 199.21 169.35
  Q 201.57 165.59 202.41 165.14
  Q 207.64 162.38 218.07 156.66
  A 0.27 0.27 0.0 0 0 217.89 156.15
  Q 216.68 156.38 216.57 155.48
  L 233.74 144.03
  L 234.61 144.16
  Q 231.28 146.95 228.17 149.92
  Q 225.64 152.34 223.92 155.98
  A 1.75 1.75 0.0 0 0 225.33 158.47
  L 230.34 159.00
  Q 229.07 158.75 228.06 158.90
  A 0.85 0.83 -83.2 0 0 227.40 159.43
  C 226.47 161.80 223.37 161.72 221.94 163.67
  A 0.46 0.46 0.0 0 0 222.51 164.36
  L 227.36 162.02
  A 1.12 1.11 -31.1 0 1 228.75 162.36
  Q 230.50 164.73 232.51 164.66
  Q 239.16 164.44 245.23 161.88
  L 251.29 160.16
  A 2.70 2.42 -62.2 0 0 251.72 160.00
  L 259.23 156.33
  L 263.62 154.72
  A 1.04 1.03 -87.9 0 0 264.22 154.16
  Q 264.63 153.29 265.53 153.23
  C 267.16 153.14 269.53 151.93 270.98 151.22
  Q 280.32 146.65 289.96 140.75
  A 1.19 1.18 78.5 0 0 290.51 139.91
  Q 290.98 136.62 289.54 134.03
  A 0.99 0.99 0.0 0 1 289.56 133.02
  Q 290.49 131.56 291.74 131.12
  A 0.57 0.57 0.0 0 1 292.41 131.96
  C 291.12 134.05 291.84 136.53 291.44 138.60
  A 0.63 0.63 0.0 0 0 292.22 139.32
  Q 293.09 139.10 294.95 137.68
  Q 300.97 133.11 305.58 130.64
  Q 306.47 130.17 306.64 130.07
  Q 308.24 129.16 315.45 123.80
  Q 316.70 122.87 317.38 122.01
  Q 318.49 120.62 319.44 120.39
  A 0.91 0.90 -0.5 0 0 320.12 119.70
  Q 320.13 119.64 323.51 116.77
  Q 324.36 116.05 325.37 114.37
  A 0.17 0.09 -68.1 0 0 325.35 114.13
  Q 325.29 114.14 325.17 114.24
  A 0.15 0.11 84.2 0 1 325.00 114.05
  Q 325.41 112.49 326.04 111.49
  Q 326.58 110.62 325.56 110.04
  A 1.28 1.21 2.8 0 1 325.10 109.56
  C 323.89 107.32 322.83 105.64 323.51 103.38
  A 2.06 2.03 -75.0 0 0 322.03 100.78
  Q 319.38 100.18 317.00 100.61
  Q 315.12 100.95 314.47 100.76
  Q 313.33 100.43 312.12 101.07
  Q 310.18 102.10 309.24 101.72
  L 371.07 77.65
  A 2.16 2.12 80.4 0 0 372.42 75.71
  Q 372.43 75.45 371.04 75.19
  L 373.66 75.36
  Z
  M 417.71 183.75
  A 0.37 0.36 71.3 0 0 417.93 183.30
  Q 415.27 174.64 410.39 166.83
  A 0.68 0.68 0.0 0 0 409.14 167.19
  L 409.14 169.88
  A 1.66 1.66 0.0 0 0 409.34 170.67
  L 414.69 180.59
  A 0.48 0.36 10.1 0 0 414.85 180.76
  Q 416.32 181.60 417.15 183.55
  A 0.41 0.40 -21.5 0 0 417.66 183.77
  L 417.71 183.75
  Z
  M 408.68 174.89
  Q 407.55 178.46 409.29 181.36
  Q 410.34 183.11 412.21 185.56
  Q 413.89 187.77 414.84 189.82
  Q 416.99 194.47 417.23 198.28
  A 1.45 1.45 0.0 0 0 417.76 199.31
  C 418.96 200.26 419.28 202.43 420.19 203.92
  Q 424.47 210.86 424.94 211.96
  A 0.46 0.46 0.0 0 0 425.76 212.02
  Q 425.99 211.65 425.59 209.92
  A 1.02 1.00 12.4 0 0 425.19 209.31
  L 424.06 208.47
  A 0.82 0.81 16.4 0 1 423.74 207.89
  L 423.53 204.43
  A 2.04 1.89 -62.5 0 0 423.33 203.70
  L 413.12 182.49
  A 2.22 2.21 -81.7 0 0 412.64 181.84
  Q 409.96 179.28 409.68 175.01
  A 0.51 0.51 0.0 0 0 408.68 174.89
  Z
  M 221.12 260.17
  L 223.40 262.80
  A 0.68 0.67 54.6 0 0 224.26 262.95
  Q 225.04 262.48 225.51 261.19
  A 0.99 0.99 0.0 0 1 227.16 260.85
  L 228.77 262.54
  A 0.25 0.14 87.3 0 1 228.82 262.62
  Q 230.22 265.99 232.89 267.83
  Q 241.79 282.25 251.14 297.37
  C 252.84 300.12 254.04 302.83 255.93 305.46
  C 259.77 310.76 263.74 318.48 266.51 322.55
  Q 268.15 324.98 271.23 323.71
  A 1.19 0.97 24.3 0 1 271.53 323.63
  L 312.89 316.78
  A 1.66 1.21 -53.9 0 0 313.17 316.69
  Q 314.61 315.97 314.77 315.95
  Q 322.56 315.03 330.70 313.53
  A 0.69 0.69 0.0 0 0 331.17 312.49
  Q 325.49 303.02 318.14 289.80
  Q 317.18 288.08 316.35 286.03
  A 3.75 3.71 16.1 0 0 315.88 285.19
  Q 309.88 277.02 306.17 269.40
  A 5.93 5.68 14.7 0 0 305.60 268.47
  C 301.31 262.70 298.97 256.21 295.03 250.18
  Q 293.91 248.47 291.88 244.39
  Q 291.54 243.72 291.19 243.86
  L 291.00 242.85
  Q 292.94 242.62 292.91 240.93
  A 2.26 2.23 28.9 0 0 292.57 239.78
  L 284.80 227.28
  A 2.66 2.35 -75.1 0 1 284.61 226.90
  Q 282.40 221.15 279.30 217.67
  A 1.35 1.14 13.5 0 1 279.16 217.48
  L 263.29 189.23
  A 2.68 2.68 0.0 0 0 260.17 187.98
  L 186.17 210.44
  A 1.03 1.02 65.6 0 0 185.60 211.96
  Q 190.50 219.82 190.95 220.60
  Q 194.04 226.00 196.48 229.19
  Q 198.50 231.83 200.29 235.36
  Q 201.89 238.51 203.87 241.63
  Q 209.45 250.44 213.94 258.52
  Q 215.50 261.33 218.50 260.60
  Q 220.50 260.11 221.12 260.17
  Z"
/>
<path fill="#101227" d="
  M 383.01 84.92
  L 378.08 76.01
  Q 382.43 80.01 383.01 84.92
  Z"
/>
<path fill="#747479" d="
  M 399.67 80.96
  Q 399.83 81.64 399.61 82.29
  Q 399.18 81.48 399.67 80.96
  Z"
/>
<path fill="#747479" d="
  M 399.41 84.71
  L 399.38 87.29
  L 399.41 84.71
  Z"
/>
<path fill="#747479" d="
  M 388.22 93.80
  Q 387.91 94.17 387.51 94.09
  Q 387.21 94.03 387.04 93.52
  Q 386.33 92.65 386.50 91.70
  L 388.22 93.80
  Z"
/>
<path fill="#747479" d="
  M 377.31 104.78
  L 364.77 106.15
  Q 367.02 104.76 370.03 104.93
  A 0.59 0.58 -85.9 0 0 370.64 104.39
  Q 370.80 102.45 370.24 100.52
  Q 369.72 98.70 371.40 98.03
  A 0.89 0.89 0.0 0 0 371.97 97.20
  L 371.97 95.42
  A 0.29 0.28 -58.4 0 1 372.51 95.29
  L 377.31 104.78
  Z"
/>
<path fill="#cfd3df" d="
  M 259.23 156.33
  Q 257.88 154.30 258.53 150.45
  A 0.85 0.85 0.0 0 0 257.41 149.51
  Q 252.71 151.14 250.29 152.77
  A 2.80 2.67 17.4 0 1 249.62 153.10
  L 240.69 156.13
  L 230.34 159.00
  L 225.33 158.47
  A 1.75 1.75 0.0 0 1 223.92 155.98
  Q 225.64 152.34 228.17 149.92
  Q 231.28 146.95 234.61 144.16
  Q 235.36 143.44 234.94 143.19
  L 237.93 140.91
  L 238.49 140.93
  A 0.43 0.43 0.0 0 1 238.75 141.68
  L 231.33 147.96
  A 1.17 0.52 -24.0 0 0 231.24 148.06
  Q 228.40 151.55 227.25 153.23
  Q 226.50 154.32 226.57 155.20
  A 2.31 2.08 0.8 0 0 228.68 157.15
  Q 230.31 157.28 231.99 157.04
  Q 237.95 156.18 245.71 153.18
  Q 260.88 147.30 276.80 138.29
  Q 286.33 132.88 287.78 132.01
  Q 296.37 126.81 311.72 115.23
  Q 313.62 113.79 320.34 106.22
  A 0.52 0.50 -17.6 0 0 320.48 105.96
  L 320.95 103.92
  A 1.48 1.47 -83.9 0 0 319.50 102.12
  Q 314.46 102.18 311.21 103.50
  A 0.70 0.69 -59.3 0 1 310.98 103.56
  L 308.16 103.90
  A 2.56 2.46 27.7 0 0 307.40 104.12
  Q 302.81 106.36 298.17 106.24
  L 309.24 101.72
  Q 310.18 102.10 312.12 101.07
  Q 313.33 100.43 314.47 100.76
  Q 315.12 100.95 317.00 100.61
  Q 319.38 100.18 322.03 100.78
  A 2.06 2.03 -75.0 0 1 323.51 103.38
  C 322.83 105.64 323.89 107.32 325.10 109.56
  A 1.28 1.21 2.8 0 0 325.56 110.04
  Q 326.58 110.62 326.04 111.49
  Q 325.41 112.49 325.00 114.05
  A 0.15 0.11 84.2 0 0 325.17 114.24
  Q 325.29 114.14 325.35 114.13
  A 0.17 0.09 -68.1 0 1 325.37 114.37
  Q 324.36 116.05 323.51 116.77
  Q 320.13 119.64 320.12 119.70
  A 0.91 0.90 -0.5 0 1 319.44 120.39
  Q 318.49 120.62 317.38 122.01
  Q 316.70 122.87 315.45 123.80
  Q 308.24 129.16 306.64 130.07
  Q 306.47 130.17 305.58 130.64
  Q 300.97 133.11 294.95 137.68
  Q 293.09 139.10 292.22 139.32
  A 0.63 0.63 0.0 0 1 291.44 138.60
  C 291.84 136.53 291.12 134.05 292.41 131.96
  A 0.57 0.57 0.0 0 0 291.74 131.12
  Q 290.49 131.56 289.56 133.02
  A 0.99 0.99 0.0 0 0 289.54 134.03
  Q 290.98 136.62 290.51 139.91
  A 1.19 1.18 78.5 0 1 289.96 140.75
  Q 280.32 146.65 270.98 151.22
  C 269.53 151.93 267.16 153.14 265.53 153.23
  Q 264.63 153.29 264.22 154.16
  A 1.04 1.03 -87.9 0 1 263.62 154.72
  L 259.23 156.33
  Z
  M 313.35 122.93
  L 313.35 116.49
  A 0.30 0.30 0.0 0 0 313.11 116.20
  L 312.85 116.14
  A 0.35 0.35 0.0 0 0 312.42 116.43
  Q 312.16 118.27 312.47 119.34
  A 0.30 0.29 70.6 0 1 312.30 119.70
  Q 311.21 120.13 309.96 122.08
  A 0.50 0.49 22.8 0 0 310.27 122.83
  L 313.60 123.59
  A 0.26 0.26 0.0 0 0 313.84 123.15
  Q 313.82 123.14 313.54 123.13
  A 0.20 0.19 90.0 0 1 313.35 122.93
  Z"
/>
<path fill="#f9b025" d="
  M 237.93 140.91
  Q 245.98 135.47 252.19 128.79
  L 255.91 134.45
  A 0.84 0.84 0.0 0 0 257.45 133.99
  L 257.45 132.87
  A 1.32 1.31 -57.9 0 0 257.32 132.30
  L 253.83 125.02
  Q 256.30 126.91 260.49 124.41
  C 265.99 121.14 271.64 118.16 277.13 114.87
  Q 280.28 112.99 280.83 110.62
  Q 280.90 110.56 280.98 110.50
  L 284.75 116.70
  A 1.00 1.00 0.0 0 0 286.59 116.03
  Q 286.32 114.21 285.46 112.27
  A 1.50 1.43 -87.3 0 0 284.87 111.59
  Q 283.67 110.85 283.19 109.26
  Q 285.28 111.30 287.38 110.37
  Q 293.16 107.82 298.17 106.24
  Q 302.81 106.36 307.40 104.12
  A 2.56 2.46 27.7 0 1 308.16 103.90
  L 310.98 103.56
  A 0.70 0.69 -59.3 0 0 311.21 103.50
  Q 314.46 102.18 319.50 102.12
  A 1.48 1.47 -83.9 0 1 320.95 103.92
  L 320.48 105.96
  A 0.52 0.50 -17.6 0 1 320.34 106.22
  Q 313.62 113.79 311.72 115.23
  Q 296.37 126.81 287.78 132.01
  Q 286.33 132.88 276.80 138.29
  Q 260.88 147.30 245.71 153.18
  Q 237.95 156.18 231.99 157.04
  Q 230.31 157.28 228.68 157.15
  A 2.31 2.08 0.8 0 1 226.57 155.20
  Q 226.50 154.32 227.25 153.23
  Q 228.40 151.55 231.24 148.06
  A 1.17 0.52 -24.0 0 1 231.33 147.96
  L 238.75 141.68
  A 0.43 0.43 0.0 0 0 238.49 140.93
  L 237.93 140.91
  Z"
/>
<path fill="#5253ad" d="
  M 377.31 104.78
  Q 380.02 106.07 383.03 105.41
  A 1.53 1.51 -39.7 0 1 383.96 105.49
  C 385.43 106.11 388.20 105.51 389.85 105.51
  Q 390.49 107.59 392.33 108.75
  A 0.53 0.53 0.0 0 0 393.13 108.17
  L 392.66 106.21
  A 0.63 0.63 0.0 0 1 393.21 105.43
  L 394.72 105.30
  Q 396.35 105.64 397.03 104.88
  Q 397.53 105.69 399.37 105.05
  C 417.34 105.18 435.26 105.91 453.25 105.81
  C 457.76 105.79 461.89 106.68 466.20 106.56
  A 0.51 0.51 0.0 0 1 466.51 107.48
  C 453.42 117.04 438.62 126.98 423.00 136.63
  Q 415.92 141.01 401.48 150.47
  Q 371.07 170.42 351.14 183.39
  Q 346.29 186.55 341.74 188.70
  A 1.79 1.75 -52.2 0 1 340.66 188.85
  L 332.79 187.52
  Q 332.33 187.22 331.45 187.39
  L 317.22 184.33
  Q 317.20 183.52 317.53 183.11
  A 0.56 0.55 16.1 0 1 317.93 182.89
  C 319.72 182.71 322.95 182.34 323.98 180.97
  A 0.38 0.38 0.0 0 0 323.48 180.42
  Q 322.67 180.89 321.80 180.93
  A 0.53 0.53 0.0 0 1 321.44 180.00
  L 323.22 178.50
  A 0.94 0.94 0.0 0 0 322.15 176.97
  L 311.34 183.21
  L 306.79 182.31
  Q 308.79 181.37 311.98 178.46
  Q 313.35 177.20 316.29 177.37
  A 0.88 0.88 0.0 0 0 317.08 176.97
  Q 318.30 175.07 320.79 174.41
  A 1.11 0.97 -37.1 0 0 321.19 172.49
  C 320.18 172.03 318.53 172.47 317.51 173.45
  Q 316.03 174.89 313.61 175.63
  A 2.76 2.68 14.6 0 0 312.57 176.22
  C 310.73 177.82 306.65 180.86 303.62 180.62
  A 0.41 0.37 -59.2 0 0 303.36 180.70
  Q 302.92 181.04 303.27 181.60
  L 298.88 180.54
  Q 301.34 178.80 302.50 178.86
  Q 305.47 178.99 307.48 176.98
  A 0.43 0.43 0.0 0 0 306.98 176.29
  L 303.80 177.82
  A 0.33 0.32 55.5 0 1 303.41 177.74
  L 303.23 177.52
  A 0.46 0.45 -38.9 0 1 303.30 176.87
  L 305.77 174.98
  A 0.36 0.31 77.7 0 0 305.89 174.76
  Q 305.96 174.27 305.38 174.14
  A 0.70 0.66 -49.7 0 1 305.31 172.85
  Q 308.89 171.24 311.59 168.68
  A 0.65 0.65 0.0 0 0 310.86 167.62
  L 305.52 170.19
  A 0.84 0.82 -35.8 0 1 304.59 170.05
  Q 303.31 168.86 301.26 169.88
  A 1.66 1.65 -80.7 0 0 300.83 170.19
  Q 299.84 171.19 299.24 171.79
  C 298.21 172.82 296.30 172.58 295.15 173.81
  C 294.08 174.95 292.58 175.28 291.02 176.28
  A 4.26 4.26 0.0 0 1 289.10 176.93
  Q 287.11 177.09 286.85 178.05
  Q 284.89 178.31 283.10 177.30
  L 285.76 175.60
  A 1.70 1.70 0.0 0 1 286.85 175.34
  Q 288.81 175.54 290.35 174.45
  A 0.44 0.43 -69.3 0 0 290.00 173.67
  L 288.09 174.13
  A 0.45 0.45 0.0 0 1 287.75 173.30
  L 289.32 172.39
  A 0.72 0.71 60.4 0 0 289.58 171.42
  Q 288.88 170.19 290.39 169.39
  Q 292.63 168.21 294.92 166.15
  A 0.84 0.84 0.0 0 1 296.17 167.24
  Q 294.39 169.87 291.57 171.37
  A 0.27 0.26 -26.6 0 0 291.45 171.72
  L 291.62 172.07
  A 0.53 0.51 -23.9 0 0 292.29 172.32
  Q 294.08 171.58 295.45 170.75
  C 296.95 169.85 298.48 170.08 299.78 169.36
  A 3.74 3.51 -78.8 0 0 300.45 168.88
  Q 302.97 166.57 305.04 166.90
  Q 307.90 167.35 308.58 166.73
  A 0.14 0.14 0.0 0 0 308.62 166.61
  L 308.55 166.36
  A 0.44 0.44 0.0 0 0 308.03 166.03
  Q 305.34 166.61 303.89 166.15
  A 1.41 1.40 -50.9 0 0 302.76 166.27
  L 298.53 168.72
  A 1.00 0.99 52.5 0 1 297.33 168.56
  L 297.08 168.32
  A 1.26 1.26 0.0 0 1 297.57 166.57
  L 307.57 161.19
  A 3.06 3.03 33.1 0 1 309.28 160.84
  Q 311.81 161.07 313.67 159.57
  A 0.38 0.38 0.0 0 0 313.34 158.90
  L 311.65 159.31
  A 0.52 0.52 0.0 0 1 311.01 158.77
  Q 311.04 158.19 311.76 157.97
  Q 313.10 157.57 312.10 155.88
  A 0.68 0.68 0.0 0 1 312.61 154.86
  Q 314.83 154.63 316.28 152.57
  A 1.89 1.76 -1.4 0 1 316.75 152.11
  Q 317.68 151.51 318.54 151.40
  A 0.70 0.70 0.0 0 1 319.11 152.60
  Q 315.49 156.05 314.53 157.05
  Q 314.30 157.30 314.32 157.52
  A 0.57 0.53 -17.7 0 0 315.14 157.90
  Q 317.27 156.86 318.93 155.65
  A 1.66 1.63 24.5 0 1 319.81 155.33
  Q 321.71 155.21 323.17 154.54
  A 1.66 1.61 -82.9 0 0 323.79 154.04
  Q 324.86 152.65 326.85 151.98
  A 1.57 1.46 -47.1 0 1 327.65 151.92
  Q 329.67 152.32 332.11 151.54
  A 0.23 0.23 0.0 0 0 332.04 151.10
  L 326.43 151.10
  A 1.41 1.36 -60.7 0 0 325.67 151.33
  L 322.38 153.55
  A 1.94 1.93 -61.9 0 1 321.30 153.88
  L 320.05 153.88
  A 0.57 0.57 0.0 0 1 319.69 152.86
  Q 324.20 149.30 329.84 147.10
  Q 331.83 146.33 333.26 146.19
  Q 335.52 145.98 336.72 144.88
  A 0.45 0.45 0.0 0 0 336.50 144.11
  Q 336.11 144.03 334.24 145.09
  A 0.61 0.61 0.0 0 1 333.41 144.87
  Q 332.99 144.18 335.38 142.97
  A 0.45 0.44 -52.0 0 0 335.28 142.14
  L 334.33 141.92
  A 2.04 2.02 34.3 0 0 332.76 142.21
  Q 327.86 145.49 320.75 150.01
  Q 320.20 150.36 318.07 150.41
  A 1.70 1.57 28.9 0 0 317.38 150.58
  L 312.60 152.88
  A 1.01 1.00 48.3 0 1 311.61 152.82
  Q 310.59 152.16 308.93 152.46
  A 1.19 1.17 9.8 0 0 308.14 153.01
  C 306.86 155.19 304.48 155.06 302.60 156.62
  Q 298.89 159.69 293.66 160.38
  A 0.63 0.62 86.8 0 0 293.12 160.99
  L 293.12 161.01
  A 0.56 0.55 85.3 0 0 293.68 161.49
  L 298.38 161.37
  A 1.00 0.97 -64.5 0 0 299.02 161.13
  L 303.19 157.61
  A 1.25 1.22 17.4 0 1 303.72 157.34
  L 306.92 156.56
  A 1.65 1.64 12.7 0 0 307.81 156.00
  Q 309.15 154.34 310.93 153.90
  A 0.74 0.74 0.0 0 1 311.66 155.10
  Q 310.55 156.38 309.67 156.93
  Q 303.50 160.86 297.47 164.91
  Q 296.75 165.40 295.91 165.01
  Q 295.10 164.63 294.59 165.16
  C 293.74 166.03 291.93 166.37 290.11 167.25
  A 1.21 1.18 43.2 0 1 289.11 167.27
  C 286.53 166.18 285.55 167.32 283.99 169.06
  A 1.89 1.87 16.5 0 1 282.87 169.66
  C 281.12 169.91 280.35 171.44 278.57 172.04
  C 277.46 172.41 275.23 174.13 273.78 174.11
  Q 273.04 174.10 272.89 174.59
  Q 272.75 175.05 273.03 175.73
  L 269.98 174.86
  Q 269.86 174.88 269.71 174.78
  Q 269.08 174.09 267.74 174.28
  Q 268.95 172.97 269.74 172.84
  Q 271.24 172.59 272.53 171.78
  A 1.54 1.52 86.5 0 0 273.10 171.13
  Q 274.41 168.22 276.81 169.09
  A 1.49 1.45 -45.8 0 0 277.87 169.06
  L 289.02 164.19
  A 0.29 0.29 0.0 0 0 289.04 163.67
  Q 288.51 163.39 287.21 163.85
  Q 286.40 164.14 284.49 165.71
  A 1.93 1.90 -57.7 0 1 282.83 166.10
  L 282.24 165.97
  A 0.65 0.65 0.0 0 1 281.99 164.81
  Q 287.74 160.45 294.50 157.91
  A 1.05 1.04 -5.3 0 0 295.15 157.14
  Q 295.39 155.96 296.92 155.38
  A 0.58 0.57 65.3 0 0 297.22 154.55
  L 297.05 154.26
  A 0.82 0.81 56.7 0 0 295.86 154.01
  Q 291.59 157.16 286.16 160.03
  C 284.62 160.85 283.48 162.66 281.60 162.76
  Q 280.34 162.82 278.47 163.60
  Q 275.32 164.92 274.98 162.88
  Q 276.86 161.72 279.29 159.54
  Q 279.98 158.92 281.17 158.87
  A 1.62 1.59 27.0 0 0 281.96 158.62
  L 288.46 154.41
  Q 288.54 154.35 288.62 154.29
  Q 290.62 152.51 292.14 151.86
  Q 294.96 150.65 295.00 150.58
  Q 295.27 150.06 295.38 149.78
  A 1.03 1.01 2.1 0 1 296.07 149.15
  Q 298.63 148.45 300.96 146.57
  Q 302.26 148.45 302.89 150.74
  A 0.77 0.77 0.0 0 1 302.65 151.53
  L 299.05 154.57
  A 0.47 0.46 19.7 0 0 299.44 155.38
  C 301.51 155.00 302.81 153.18 304.71 152.93
  Q 305.76 152.79 307.44 152.12
  A 0.34 0.33 -49.6 0 0 307.39 151.48
  Q 305.64 151.11 306.07 149.42
  A 1.29 1.29 0.0 0 1 306.76 148.58
  L 316.92 143.68
  A 0.51 0.51 0.0 0 0 317.20 143.13
  Q 317.04 142.18 318.31 141.67
  A 0.41 0.41 0.0 0 0 318.47 141.02
  L 318.24 140.74
  A 0.83 0.83 0.0 0 0 317.15 140.59
  L 311.12 144.60
  A 2.09 2.05 -72.2 0 1 310.74 144.80
  Q 307.49 146.11 306.03 147.91
  A 0.87 0.86 -63.4 0 1 305.14 148.21
  Q 304.26 148.00 303.86 146.92
  Q 303.71 146.53 303.24 146.22
  Q 302.75 145.91 302.45 145.60
  Q 305.37 143.34 308.51 141.49
  C 310.39 140.38 311.80 138.87 313.65 138.30
  A 2.48 2.43 -72.2 0 0 314.52 137.84
  Q 318.16 134.90 321.69 133.15
  C 325.56 131.22 327.69 129.52 332.22 126.46
  Q 334.46 124.95 336.49 124.29
  A 0.97 0.96 -2.7 0 0 337.14 123.58
  Q 337.16 123.50 337.16 123.39
  A 0.55 0.55 0.0 0 1 337.77 122.85
  Q 338.80 122.96 339.36 122.07
  A 0.53 0.53 0.0 0 1 339.55 121.88
  L 343.38 119.67
  A 0.57 0.56 -29.7 0 1 344.16 119.88
  Q 344.74 120.88 347.40 120.86
  A 1.28 1.25 -63.7 0 0 348.19 120.58
  Q 350.64 118.65 354.10 117.08
  Q 355.87 116.27 356.55 114.71
  A 0.24 0.24 0.0 0 0 356.20 114.41
  Q 351.31 117.31 349.70 117.59
  A 1.27 1.21 14.3 0 0 348.99 117.99
  Q 347.90 119.23 346.37 118.72
  A 0.44 0.43 25.6 0 1 346.14 118.08
  C 347.09 116.54 348.07 116.71 349.14 115.82
  Q 352.89 112.72 357.37 110.75
  A 1.08 0.28 -14.3 0 0 357.48 110.69
  L 364.77 106.15
  L 377.31 104.78
  Z
  M 301.4314 149.5858
  A 3.00 0.92 -32.1 0 0 298.4011 150.4006
  A 3.00 0.92 -32.1 0 0 296.3486 152.7742
  A 3.00 0.92 -32.1 0 0 299.3789 151.9594
  A 3.00 0.92 -32.1 0 0 301.4314 149.5858
  Z"
/>
<path fill="#cfd3df" d="
  M 283.19 109.26
  Q 283.67 110.85 284.87 111.59
  A 1.50 1.43 -87.3 0 1 285.46 112.27
  Q 286.32 114.21 286.59 116.03
  A 1.00 1.00 0.0 0 1 284.75 116.70
  L 280.98 110.50
  Q 281.04 110.26 280.71 109.93
  L 279.22 105.63
  A 0.16 0.16 0.0 0 1 279.49 105.47
  L 283.19 109.26
  Z"
/>
<path fill="#cfd3df" d="
  M 394.72 105.30
  L 393.21 105.43
  A 0.63 0.63 0.0 0 0 392.66 106.21
  L 393.13 108.17
  A 0.53 0.53 0.0 0 1 392.33 108.75
  Q 390.49 107.59 389.85 105.51
  Q 391.15 104.56 392.56 105.25
  Q 393.16 105.55 394.72 105.30
  Z"
/>
<path fill="#747479" d="
  M 280.98 110.50
  Q 280.90 110.56 280.83 110.62
  Q 280.47 110.03 280.71 109.93
  Q 281.04 110.26 280.98 110.50
  Z"
/>
<path fill="#abb2a4" d="
  M 313.54 123.13
  Q 313.82 123.14 313.84 123.15
  A 0.26 0.26 0.0 0 1 313.60 123.59
  L 310.27 122.83
  A 0.50 0.49 22.8 0 1 309.96 122.08
  Q 311.21 120.13 312.30 119.70
  A 0.30 0.29 70.6 0 0 312.47 119.34
  Q 312.16 118.27 312.42 116.43
  A 0.35 0.35 0.0 0 1 312.85 116.14
  L 313.11 116.20
  A 0.30 0.30 0.0 0 1 313.35 116.49
  L 313.35 122.93
  A 0.20 0.19 -90.0 0 0 313.54 123.13
  Z"
/>
<path fill="#cfd3df" d="
  M 253.83 125.02
  L 257.32 132.30
  A 1.32 1.31 -57.9 0 1 257.45 132.87
  L 257.45 133.99
  A 0.84 0.84 0.0 0 1 255.91 134.45
  L 252.19 128.79
  L 249.25 120.95
  A 0.37 0.37 0.0 0 1 249.87 120.58
  L 253.83 125.02
  Z"
/>
<path fill="#cfd3df" d="
  M 300.96 146.57
  Q 301.03 145.56 302.45 145.60
  Q 302.75 145.91 303.24 146.22
  Q 303.71 146.53 303.86 146.92
  Q 304.26 148.00 305.14 148.21
  A 0.87 0.86 -63.4 0 0 306.03 147.91
  Q 307.49 146.11 310.74 144.80
  A 2.09 2.05 -72.2 0 0 311.12 144.60
  L 317.15 140.59
  A 0.83 0.83 0.0 0 1 318.24 140.74
  L 318.47 141.02
  A 0.41 0.41 0.0 0 1 318.31 141.67
  Q 317.04 142.18 317.20 143.13
  A 0.51 0.51 0.0 0 1 316.92 143.68
  L 306.76 148.58
  A 1.29 1.29 0.0 0 0 306.07 149.42
  Q 305.64 151.11 307.39 151.48
  A 0.34 0.33 -49.6 0 1 307.44 152.12
  Q 305.76 152.79 304.71 152.93
  C 302.81 153.18 301.51 155.00 299.44 155.38
  A 0.47 0.46 19.7 0 1 299.05 154.57
  L 302.65 151.53
  A 0.77 0.77 0.0 0 0 302.89 150.74
  Q 302.26 148.45 300.96 146.57
  Z"
/>
<path fill="#cfd3df" d="
  M 283.10 177.30
  Q 280.92 177.56 279.27 176.55
  L 286.08 172.21
  A 1.40 1.37 -84.4 0 0 286.40 171.94
  L 288.99 169.17
  A 0.51 0.51 0.0 0 0 288.53 168.32
  Q 286.17 168.73 285.17 170.43
  Q 284.62 171.35 283.52 171.36
  Q 281.02 171.39 280.97 171.95
  A 0.71 0.23 -81.2 0 1 280.57 172.75
  Q 280.26 172.46 279.79 172.60
  A 2.31 1.91 -67.9 0 0 278.99 173.03
  L 275.59 175.84
  L 273.03 175.73
  Q 272.75 175.05 272.89 174.59
  Q 273.04 174.10 273.78 174.11
  C 275.23 174.13 277.46 172.41 278.57 172.04
  C 280.35 171.44 281.12 169.91 282.87 169.66
  A 1.89 1.87 16.5 0 0 283.99 169.06
  C 285.55 167.32 286.53 166.18 289.11 167.27
  A 1.21 1.18 43.2 0 0 290.11 167.25
  C 291.93 166.37 293.74 166.03 294.59 165.16
  Q 295.10 164.63 295.91 165.01
  Q 296.75 165.40 297.47 164.91
  Q 303.50 160.86 309.67 156.93
  Q 310.55 156.38 311.66 155.10
  A 0.74 0.74 0.0 0 0 310.93 153.90
  Q 309.15 154.34 307.81 156.00
  A 1.65 1.64 12.7 0 1 306.92 156.56
  L 303.72 157.34
  A 1.25 1.22 17.4 0 0 303.19 157.61
  L 299.02 161.13
  A 1.00 0.97 -64.5 0 1 298.38 161.37
  L 293.68 161.49
  A 0.56 0.55 85.3 0 1 293.12 161.01
  L 293.12 160.99
  A 0.63 0.62 86.8 0 1 293.66 160.38
  Q 298.89 159.69 302.60 156.62
  C 304.48 155.06 306.86 155.19 308.14 153.01
  A 1.19 1.17 9.8 0 1 308.93 152.46
  Q 310.59 152.16 311.61 152.82
  A 1.01 1.00 48.3 0 0 312.60 152.88
  L 317.38 150.58
  A 1.70 1.57 28.9 0 1 318.07 150.41
  Q 320.20 150.36 320.75 150.01
  Q 327.86 145.49 332.76 142.21
  A 2.04 2.02 34.3 0 1 334.33 141.92
  L 335.28 142.14
  A 0.45 0.44 -52.0 0 1 335.38 142.97
  Q 332.99 144.18 333.41 144.87
  A 0.61 0.61 0.0 0 0 334.24 145.09
  Q 336.11 144.03 336.50 144.11
  A 0.45 0.45 0.0 0 1 336.72 144.88
  Q 335.52 145.98 333.26 146.19
  Q 331.83 146.33 329.84 147.10
  Q 324.20 149.30 319.69 152.86
  A 0.57 0.57 0.0 0 0 320.05 153.88
  L 321.30 153.88
  A 1.94 1.93 -61.9 0 0 322.38 153.55
  L 325.67 151.33
  A 1.41 1.36 -60.7 0 1 326.43 151.10
  L 332.04 151.10
  A 0.23 0.23 0.0 0 1 332.11 151.54
  Q 329.67 152.32 327.65 151.92
  A 1.57 1.46 -47.1 0 0 326.85 151.98
  Q 324.86 152.65 323.79 154.04
  A 1.66 1.61 -82.9 0 1 323.17 154.54
  Q 321.71 155.21 319.81 155.33
  A 1.66 1.63 24.5 0 0 318.93 155.65
  Q 317.27 156.86 315.14 157.90
  A 0.57 0.53 -17.7 0 1 314.32 157.52
  Q 314.30 157.30 314.53 157.05
  Q 315.49 156.05 319.11 152.60
  A 0.70 0.70 0.0 0 0 318.54 151.40
  Q 317.68 151.51 316.75 152.11
  A 1.89 1.76 -1.4 0 0 316.28 152.57
  Q 314.83 154.63 312.61 154.86
  A 0.68 0.68 0.0 0 0 312.10 155.88
  Q 313.10 157.57 311.76 157.97
  Q 311.04 158.19 311.01 158.77
  A 0.52 0.52 0.0 0 0 311.65 159.31
  L 313.34 158.90
  A 0.38 0.38 0.0 0 1 313.67 159.57
  Q 311.81 161.07 309.28 160.84
  A 3.06 3.03 33.1 0 0 307.57 161.19
  L 297.57 166.57
  A 1.26 1.26 0.0 0 0 297.08 168.32
  L 297.33 168.56
  A 1.00 0.99 52.5 0 0 298.53 168.72
  L 302.76 166.27
  A 1.41 1.40 -50.9 0 1 303.89 166.15
  Q 305.34 166.61 308.03 166.03
  A 0.44 0.44 0.0 0 1 308.55 166.36
  L 308.62 166.61
  A 0.14 0.14 0.0 0 1 308.58 166.73
  Q 307.90 167.35 305.04 166.90
  Q 302.97 166.57 300.45 168.88
  A 3.74 3.51 -78.8 0 1 299.78 169.36
  C 298.48 170.08 296.95 169.85 295.45 170.75
  Q 294.08 171.58 292.29 172.32
  A 0.53 0.51 -23.9 0 1 291.62 172.07
  L 291.45 171.72
  A 0.27 0.26 -26.6 0 1 291.57 171.37
  Q 294.39 169.87 296.17 167.24
  A 0.84 0.84 0.0 0 0 294.92 166.15
  Q 292.63 168.21 290.39 169.39
  Q 288.88 170.19 289.58 171.42
  A 0.72 0.71 60.4 0 1 289.32 172.39
  L 287.75 173.30
  A 0.45 0.45 0.0 0 0 288.09 174.13
  L 290.00 173.67
  A 0.44 0.43 -69.3 0 1 290.35 174.45
  Q 288.81 175.54 286.85 175.34
  A 1.70 1.70 0.0 0 0 285.76 175.60
  L 283.10 177.30
  Z"
/>
<path fill="#101227" d="
  M 234.94 143.19
  Q 235.36 143.44 234.61 144.16
  L 233.74 144.03
  L 234.94 143.19
  Z"
/>
<ellipse fill="#cfd3df" cx="0.00" cy="0.00" transform="translate(298.89,151.18) rotate(-32.1)" rx="3.00" ry="0.92"/>
<path fill="#abb2a4" d="
  M 259.23 156.33
  L 251.72 160.00
  A 2.70 2.42 -62.2 0 1 251.29 160.16
  L 245.23 161.88
  Q 244.16 159.73 242.73 158.37
  A 1.26 1.25 25.5 0 1 242.36 157.33
  Q 242.39 157.06 242.40 156.88
  A 0.69 0.68 -88.4 0 0 241.73 156.16
  L 240.69 156.13
  L 249.62 153.10
  A 2.80 2.67 17.4 0 0 250.29 152.77
  Q 252.71 151.14 257.41 149.51
  A 0.85 0.85 0.0 0 1 258.53 150.45
  Q 257.88 154.30 259.23 156.33
  Z"
/>
<path fill="#cfd3df" d="
  M 267.74 174.28
  Q 267.64 174.29 267.54 174.31
  L 266.21 174.13
  Q 265.73 174.14 265.66 174.03
  Q 265.29 173.46 265.89 173.07
  Q 269.60 170.71 273.53 168.15
  A 0.97 0.97 0.0 0 0 272.98 166.37
  L 268.99 166.45
  L 274.98 162.88
  Q 275.32 164.92 278.47 163.60
  Q 280.34 162.82 281.60 162.76
  C 283.48 162.66 284.62 160.85 286.16 160.03
  Q 291.59 157.16 295.86 154.01
  A 0.82 0.81 56.7 0 1 297.05 154.26
  L 297.22 154.55
  A 0.58 0.57 65.3 0 1 296.92 155.38
  Q 295.39 155.96 295.15 157.14
  A 1.05 1.04 -5.3 0 1 294.50 157.91
  Q 287.74 160.45 281.99 164.81
  A 0.65 0.65 0.0 0 0 282.24 165.97
  L 282.83 166.10
  A 1.93 1.90 -57.7 0 0 284.49 165.71
  Q 286.40 164.14 287.21 163.85
  Q 288.51 163.39 289.04 163.67
  A 0.29 0.29 0.0 0 1 289.02 164.19
  L 277.87 169.06
  A 1.49 1.45 -45.8 0 1 276.81 169.09
  Q 274.41 168.22 273.10 171.13
  A 1.54 1.52 86.5 0 1 272.53 171.78
  Q 271.24 172.59 269.74 172.84
  Q 268.95 172.97 267.74 174.28
  Z
  M 281.3597 163.5834
  A 3.26 1.04 -42.6 0 0 278.2560 165.0245
  A 3.26 1.04 -42.6 0 0 276.5603 167.9966
  A 3.26 1.04 -42.6 0 0 279.6640 166.5555
  A 3.26 1.04 -42.6 0 0 281.3597 163.5834
  Z"
/>
<path fill="#101227" d="
  M 216.57 155.48
  Q 216.68 156.38 217.89 156.15
  A 0.27 0.27 0.0 0 1 218.07 156.66
  Q 207.64 162.38 202.41 165.14
  Q 201.57 165.59 199.21 169.35
  A 6.87 6.41 84.6 0 1 198.44 170.35
  C 195.25 173.82 192.39 176.55 190.44 181.10
  A 8.97 8.73 75.7 0 1 189.48 182.77
  L 177.05 199.58
  A 2.04 2.03 48.1 0 0 176.93 201.82
  L 202.62 245.45
  Q 191.65 242.53 178.24 238.04
  C 171.92 235.92 163.83 233.81 157.13 231.67
  Q 139.02 225.89 134.27 224.52
  Q 132.07 223.88 131.39 225.33
  Q 125.88 225.63 120.28 228.57
  Q 119.18 229.14 117.06 228.35
  Q 122.98 225.09 128.82 221.80
  Q 133.14 219.37 137.36 217.62
  Q 141.18 216.04 145.90 213.34
  Q 149.06 211.54 150.85 211.10
  A 1.19 1.08 21.3 0 0 151.06 211.02
  L 170.60 201.20
  A 1.36 1.15 -76.3 0 0 170.93 200.96
  L 173.45 198.37
  A 1.55 0.64 -32.4 0 0 173.58 198.23
  L 195.11 167.69
  L 200.85 165.40
  A 0.66 0.64 -72.3 0 0 201.00 165.32
  L 216.57 155.48
  Z"
/>
<path fill="#747479" d="
  M 240.69 156.13
  L 241.73 156.16
  A 0.69 0.68 -88.4 0 1 242.40 156.88
  Q 242.39 157.06 242.36 157.33
  A 1.26 1.25 25.5 0 0 242.73 158.37
  Q 244.16 159.73 245.23 161.88
  Q 239.16 164.44 232.51 164.66
  Q 230.50 164.73 228.75 162.36
  A 1.12 1.11 -31.1 0 0 227.36 162.02
  L 222.51 164.36
  A 0.46 0.46 0.0 0 1 221.94 163.67
  C 223.37 161.72 226.47 161.80 227.40 159.43
  A 0.85 0.83 -83.2 0 1 228.06 158.90
  Q 229.07 158.75 230.34 159.00
  L 240.69 156.13
  Z"
/>
<path fill="#747479" d="
  M 425.22 169.32
  Q 418.96 166.09 414.42 162.03
  Q 416.48 162.69 419.13 159.23
  A 2.06 2.05 -53.1 0 1 421.99 158.82
  L 425.58 161.47
  A 0.92 0.92 0.0 0 1 425.84 162.64
  C 424.41 165.32 422.70 166.90 425.22 169.32
  Z"
/>
<path fill="#cfd3df" d="
  M 411.28 158.90
  L 414.42 162.03
  Q 418.96 166.09 425.22 169.32
  Q 425.98 169.41 426.79 169.81
  Q 428.94 171.43 430.80 169.52
  L 431.29 169.48
  A 0.39 0.39 0.0 0 1 431.62 170.12
  L 428.23 174.15
  L 422.93 178.79
  A 1.60 1.59 50.6 0 1 420.61 178.56
  C 419.01 176.44 417.60 174.85 416.45 172.50
  Q 413.68 166.82 410.55 159.73
  A 0.54 0.53 71.2 0 1 410.90 159.00
  L 411.28 158.90
  Z"
/>
<path fill="#747479" d="
  M 391.75 163.19
  L 397.30 173.28
  A 1.34 1.33 58.6 0 1 396.88 175.03
  Q 372.58 191.35 347.77 207.47
  Q 347.71 207.51 346.43 208.73
  Q 345.31 209.79 343.21 209.16
  L 298.59 191.29
  A 1.23 1.22 -73.5 0 0 296.94 192.19
  L 290.99 222.52
  L 289.27 214.50
  L 294.00 190.12
  A 0.64 0.63 18.1 0 0 293.64 189.42
  L 288.20 186.90
  Q 281.86 184.67 279.46 180.49
  L 343.19 193.86
  A 1.31 1.30 -53.2 0 0 344.12 193.72
  Q 350.64 190.00 351.45 189.48
  Q 371.58 176.39 391.75 163.19
  Z"
/>
<ellipse fill="#5253ad" cx="0.00" cy="0.00" transform="translate(278.96,165.79) rotate(-42.6)" rx="3.26" ry="1.04"/>
<path fill="#5253ad" d="
  M 266.21 174.13
  L 264.21 174.14
  L 263.08 174.01
  L 259.99 172.79
  L 263.92 169.96
  A 2.58 2.58 0.0 0 1 264.75 169.57
  Q 267.58 168.81 268.99 166.45
  L 272.98 166.37
  A 0.97 0.97 0.0 0 1 273.53 168.15
  Q 269.60 170.71 265.89 173.07
  Q 265.29 173.46 265.66 174.03
  Q 265.73 174.14 266.21 174.13
  Z"
/>
<path fill="#abb2a4" d="
  M 417.15 183.55
  Q 416.32 181.60 414.85 180.76
  A 0.48 0.36 10.1 0 1 414.69 180.59
  L 409.34 170.67
  A 1.66 1.66 0.0 0 1 409.14 169.88
  L 409.14 167.19
  A 0.68 0.68 0.0 0 1 410.39 166.83
  Q 415.27 174.64 417.93 183.30
  A 0.37 0.36 71.3 0 1 417.71 183.75
  L 417.66 183.77
  A 0.41 0.40 -21.5 0 1 417.15 183.55
  Z"
/>
<path fill="#5253ad" d="
  M 195.11 167.69
  L 173.58 198.23
  A 1.55 0.64 -32.4 0 1 173.45 198.37
  L 170.93 200.96
  A 1.36 1.15 -76.3 0 1 170.60 201.20
  L 151.06 211.02
  A 1.19 1.08 21.3 0 1 150.85 211.10
  Q 149.06 211.54 145.90 213.34
  Q 141.18 216.04 137.36 217.62
  Q 133.14 219.37 128.82 221.80
  Q 122.98 225.09 117.06 228.35
  Q 110.13 231.31 103.18 234.57
  Q 74.04 248.23 44.98 262.47
  Q 34.58 267.56 25.79 270.52
  A 0.70 0.65 33.0 0 1 25.56 270.56
  L 20.06 270.81
  A 0.53 0.53 0.0 0 1 19.54 270.09
  Q 20.24 268.27 21.81 267.13
  A 3.32 3.20 15.1 0 1 22.57 266.71
  Q 25.60 265.48 30.95 266.21
  Q 35.59 266.85 36.31 261.91
  A 0.38 0.38 0.0 0 0 35.81 261.49
  Q 32.49 262.57 28.57 261.95
  A 0.82 0.82 0.0 0 1 28.23 260.46
  L 34.74 255.98
  A 1.11 1.09 76.3 0 0 35.20 255.21
  Q 35.36 253.62 36.80 252.04
  C 44.02 244.15 52.99 238.74 62.57 233.77
  Q 126.47 200.64 190.00 170.04
  Q 192.51 168.83 195.11 167.69
  Z"
/>
<path fill="#cfd3df" d="
  M 298.88 180.54
  Q 296.73 180.64 294.92 179.73
  Q 299.19 176.60 303.51 173.86
  Q 303.93 173.60 304.78 171.55
  A 0.35 0.35 0.0 0 0 304.36 171.08
  C 303.15 171.42 301.39 172.14 300.81 173.27
  C 300.38 174.10 299.79 174.45 298.74 174.35
  Q 295.56 174.06 293.69 176.19
  Q 291.96 178.15 290.34 178.84
  Q 288.50 179.04 286.85 178.05
  Q 287.11 177.09 289.10 176.93
  A 4.26 4.26 0.0 0 0 291.02 176.28
  C 292.58 175.28 294.08 174.95 295.15 173.81
  C 296.30 172.58 298.21 172.82 299.24 171.79
  Q 299.84 171.19 300.83 170.19
  A 1.66 1.65 -80.7 0 1 301.26 169.88
  Q 303.31 168.86 304.59 170.05
  A 0.84 0.82 -35.8 0 0 305.52 170.19
  L 310.86 167.62
  A 0.65 0.65 0.0 0 1 311.59 168.68
  Q 308.89 171.24 305.31 172.85
  A 0.70 0.66 -49.7 0 0 305.38 174.14
  Q 305.96 174.27 305.89 174.76
  A 0.36 0.31 77.7 0 1 305.77 174.98
  L 303.30 176.87
  A 0.46 0.45 -38.9 0 0 303.23 177.52
  L 303.41 177.74
  A 0.33 0.32 55.5 0 0 303.80 177.82
  L 306.98 176.29
  A 0.43 0.43 0.0 0 1 307.48 176.98
  Q 305.47 178.99 302.50 178.86
  Q 301.34 178.80 298.88 180.54
  Z"
/>
<path fill="#5253ad" d="
  M 279.27 176.55
  L 277.29 176.42
  Q 276.45 175.62 275.98 176.02
  L 275.59 175.84
  L 278.99 173.03
  A 2.31 1.91 -67.9 0 1 279.79 172.60
  Q 280.26 172.46 280.57 172.75
  A 0.71 0.23 -81.2 0 0 280.97 171.95
  Q 281.02 171.39 283.52 171.36
  Q 284.62 171.35 285.17 170.43
  Q 286.17 168.73 288.53 168.32
  A 0.51 0.51 0.0 0 1 288.99 169.17
  L 286.40 171.94
  A 1.40 1.37 -84.4 0 1 286.08 172.21
  L 279.27 176.55
  Z"
/>
<path fill="#101227" d="
  M 430.80 169.52
  Q 428.94 171.43 426.79 169.81
  Q 428.83 170.02 430.80 169.52
  Z"
/>
<path fill="#5253ad" d="
  M 294.92 179.73
  Q 292.76 179.84 290.34 178.84
  Q 291.96 178.15 293.69 176.19
  Q 295.56 174.06 298.74 174.35
  C 299.79 174.45 300.38 174.10 300.81 173.27
  C 301.39 172.14 303.15 171.42 304.36 171.08
  A 0.35 0.35 0.0 0 1 304.78 171.55
  Q 303.93 173.60 303.51 173.86
  Q 299.19 176.60 294.92 179.73
  Z"
/>
<path fill="#cfd3df" d="
  M 306.79 182.31
  L 303.27 181.60
  Q 302.92 181.04 303.36 180.70
  A 0.41 0.37 -59.2 0 1 303.62 180.62
  C 306.65 180.86 310.73 177.82 312.57 176.22
  A 2.76 2.68 14.6 0 1 313.61 175.63
  Q 316.03 174.89 317.51 173.45
  C 318.53 172.47 320.18 172.03 321.19 172.49
  A 1.11 0.97 -37.1 0 1 320.79 174.41
  Q 318.30 175.07 317.08 176.97
  A 0.88 0.88 0.0 0 1 316.29 177.37
  Q 313.35 177.20 311.98 178.46
  Q 308.79 181.37 306.79 182.31
  Z"
/>
<path fill="#101227" d="
  M 259.99 172.79
  L 263.08 174.01
  Q 262.12 173.94 261.52 174.18
  Q 260.61 174.54 261.10 175.36
  Q 261.48 176.00 262.52 176.58
  Q 258.93 175.29 259.99 172.79
  Z"
/>
<path fill="#101227" d="
  M 264.21 174.14
  Q 263.52 174.19 263.08 174.01
  L 264.21 174.14
  Z"
/>
<path fill="#747479" d="
  M 267.74 174.28
  Q 269.08 174.09 269.71 174.78
  L 268.54 174.80
  L 267.54 174.31
  Q 267.64 174.29 267.74 174.28
  Z"
/>
<path fill="#747479" d="
  M 408.68 174.89
  A 0.51 0.51 0.0 0 1 409.68 175.01
  Q 409.96 179.28 412.64 181.84
  A 2.22 2.21 -81.7 0 1 413.12 182.49
  L 423.33 203.70
  A 2.04 1.89 -62.5 0 1 423.53 204.43
  L 423.74 207.89
  A 0.82 0.81 16.4 0 0 424.06 208.47
  L 425.19 209.31
  A 1.02 1.00 12.4 0 1 425.59 209.92
  Q 425.99 211.65 425.76 212.02
  A 0.46 0.46 0.0 0 1 424.94 211.96
  Q 424.47 210.86 420.19 203.92
  C 419.28 202.43 418.96 200.26 417.76 199.31
  A 1.45 1.45 0.0 0 1 417.23 198.28
  Q 416.99 194.47 414.84 189.82
  Q 413.89 187.77 412.21 185.56
  Q 410.34 183.11 409.29 181.36
  Q 407.55 178.46 408.68 174.89
  Z"
/>
<path fill="#101227" d="
  M 269.71 174.78
  Q 269.86 174.88 269.98 174.86
  Q 269.21 174.97 268.54 174.80
  L 269.71 174.78
  Z"
/>
<path fill="#747479" d="
  M 277.29 176.42
  Q 276.48 176.65 275.98 176.02
  Q 276.45 175.62 277.29 176.42
  Z"
/>
<path fill="#cfd3df" d="
  M 264.70 177.23
  L 265.44 177.35
  L 266.49 178.30
  Q 270.09 180.65 273.77 180.99
  A 2.30 2.30 0.0 0 1 275.79 182.73
  L 282.42 209.94
  L 263.69 177.88
  A 0.44 0.43 65.3 0 1 263.92 177.24
  Q 264.19 177.15 264.70 177.23
  Z"
/>
<path fill="#747479" d="
  M 267.98 177.98
  L 266.49 178.30
  L 265.44 177.35
  Q 266.83 177.18 267.98 177.98
  Z"
/>
<path fill="#cfd3df" d="
  M 317.22 184.33
  L 315.79 184.18
  Q 315.44 183.82 314.79 183.99
  L 311.34 183.21
  L 322.15 176.97
  A 0.94 0.94 0.0 0 1 323.22 178.50
  L 321.44 180.00
  A 0.53 0.53 0.0 0 0 321.80 180.93
  Q 322.67 180.89 323.48 180.42
  A 0.38 0.38 0.0 0 1 323.98 180.97
  C 322.95 182.34 319.72 182.71 317.93 182.89
  A 0.56 0.55 16.1 0 0 317.53 183.11
  Q 317.20 183.52 317.22 184.33
  Z"
/>
<path fill="#abb2a4" d="
  M 267.98 177.98
  L 272.47 179.06
  Q 273.05 179.38 273.77 179.26
  L 279.46 180.49
  Q 281.86 184.67 288.20 186.90
  Q 284.49 186.62 281.99 184.11
  A 0.74 0.74 0.0 0 0 280.75 184.80
  L 288.11 215.06
  A 0.46 0.46 0.0 0 0 288.98 215.14
  L 289.27 214.50
  L 290.99 222.52
  L 290.81 224.95
  Q 290.11 225.19 289.06 225.75
  Q 287.53 226.56 286.83 225.73
  Q 286.35 225.14 286.13 223.43
  Q 285.74 220.24 284.46 217.34
  A 1.00 0.66 33.7 0 1 284.41 217.22
  L 282.42 209.94
  L 275.79 182.73
  A 2.30 2.30 0.0 0 0 273.77 180.99
  Q 270.09 180.65 266.49 178.30
  L 267.98 177.98
  Z"
/>
<path fill="#101227" d="
  M 273.77 179.26
  Q 273.05 179.38 272.47 179.06
  Q 273.27 178.76 273.77 179.26
  Z"
/>
<path fill="#cfd3df" d="
  M 288.20 186.90
  L 293.64 189.42
  A 0.64 0.63 18.1 0 1 294.00 190.12
  L 289.27 214.50
  L 288.98 215.14
  A 0.46 0.46 0.0 0 1 288.11 215.06
  L 280.75 184.80
  A 0.74 0.74 0.0 0 1 281.99 184.11
  Q 284.49 186.62 288.20 186.90
  Z"
/>
<path fill="#747479" d="
  M 315.79 184.18
  Q 315.18 184.26 314.79 183.99
  Q 315.44 183.82 315.79 184.18
  Z"
/>
<path fill="#cfd3df" d="
  M 332.79 187.52
  Q 332.19 187.33 331.45 187.39
  Q 332.33 187.22 332.79 187.52
  Z"
/>
<path fill="#cfd3df" d="
  M 291.00 242.85
  L 221.12 260.17
  Q 220.50 260.11 218.50 260.60
  Q 215.50 261.33 213.94 258.52
  Q 209.45 250.44 203.87 241.63
  Q 201.89 238.51 200.29 235.36
  Q 198.50 231.83 196.48 229.19
  Q 194.04 226.00 190.95 220.60
  Q 190.50 219.82 185.60 211.96
  A 1.03 1.02 65.6 0 1 186.17 210.44
  L 260.17 187.98
  A 2.68 2.68 0.0 0 1 263.29 189.23
  L 279.16 217.48
  A 1.35 1.14 13.5 0 0 279.30 217.67
  Q 282.40 221.15 284.61 226.90
  A 2.66 2.35 -75.1 0 0 284.80 227.28
  L 292.57 239.78
  A 2.26 2.23 28.9 0 1 292.91 240.93
  Q 292.94 242.62 291.00 242.85
  Z"
/>
<path fill="#cfd3df" d="
  M 343.21 209.16
  Q 343.77 209.87 343.10 210.32
  Q 321.61 224.59 300.29 238.72
  A 0.95 0.95 0.0 0 1 298.96 238.42
  L 290.81 224.95
  L 290.99 222.52
  L 296.94 192.19
  A 1.23 1.22 -73.5 0 1 298.59 191.29
  L 343.21 209.16
  Z"
/>
<path fill="#cfd3df" d="
  M 202.62 245.45
  Q 203.69 246.58 204.20 248.38
  Q 203.33 247.92 202.35 248.12
  L 197.03 246.21
  Q 196.82 245.94 196.29 246.03
  L 131.39 225.33
  Q 132.07 223.88 134.27 224.52
  Q 139.02 225.89 157.13 231.67
  C 163.83 233.81 171.92 235.92 178.24 238.04
  Q 191.65 242.53 202.62 245.45
  Z"
/>
<path fill="#747479" d="
  M 291.00 242.85
  L 291.19 243.86
  Q 287.00 244.37 283.60 246.40
  A 2.71 2.71 0.0 0 1 282.83 246.72
  L 233.97 258.61
  A 1.43 1.40 -35.5 0 1 232.89 258.44
  C 232.46 258.18 232.03 258.00 231.45 258.21
  Q 229.73 258.84 228.68 259.28
  A 0.60 0.59 -26.7 0 0 228.39 260.13
  L 232.89 267.83
  Q 230.22 265.99 228.82 262.62
  A 0.25 0.14 87.3 0 0 228.77 262.54
  L 227.16 260.85
  A 0.99 0.99 0.0 0 0 225.51 261.19
  Q 225.04 262.48 224.26 262.95
  A 0.68 0.67 54.6 0 1 223.40 262.80
  L 221.12 260.17
  L 291.00 242.85
  Z"
/>
<path fill="#cfd3df" d="
  M 232.89 267.83
  L 228.39 260.13
  A 0.60 0.59 -26.7 0 1 228.68 259.28
  Q 229.73 258.84 231.45 258.21
  C 232.03 258.00 232.46 258.18 232.89 258.44
  A 1.43 1.40 -35.5 0 0 233.97 258.61
  L 282.83 246.72
  A 2.71 2.71 0.0 0 0 283.60 246.40
  Q 287.00 244.37 291.19 243.86
  Q 291.54 243.72 291.88 244.39
  Q 293.91 248.47 295.03 250.18
  C 298.97 256.21 301.31 262.70 305.60 268.47
  A 5.93 5.68 14.7 0 1 306.17 269.40
  Q 309.88 277.02 315.88 285.19
  A 3.75 3.71 16.1 0 1 316.35 286.03
  Q 317.18 288.08 318.14 289.80
  Q 325.49 303.02 331.17 312.49
  A 0.69 0.69 0.0 0 1 330.70 313.53
  Q 322.56 315.03 314.77 315.95
  Q 314.61 315.97 313.17 316.69
  A 1.66 1.21 -53.9 0 1 312.89 316.78
  L 271.53 323.63
  A 1.19 0.97 24.3 0 0 271.23 323.71
  Q 268.15 324.98 266.51 322.55
  C 263.74 318.48 259.77 310.76 255.93 305.46
  C 254.04 302.83 252.84 300.12 251.14 297.37
  Q 241.79 282.25 232.89 267.83
  Z
  M 272.14 290.69
  Q 273.69 291.06 274.26 290.95
  Q 276.44 290.55 278.24 290.61
  A 1.99 1.90 -27.2 0 1 279.16 290.88
  C 282.76 293.08 285.69 295.02 288.74 292.46
  Q 290.81 290.73 292.89 287.80
  C 294.93 284.93 296.13 283.68 298.64 280.83
  A 0.19 0.19 0.0 0 0 298.41 280.53
  L 281.47 288.68
  A 0.29 0.29 0.0 0 1 281.07 288.35
  Q 281.26 287.61 282.25 286.63
  Q 287.60 275.30 281.18 264.32
  A 2.89 2.73 -85.1 0 0 280.67 263.68
  L 277.93 261.10
  A 1.63 1.54 -9.7 0 0 277.60 260.88
  Q 270.93 257.74 266.68 263.65
  Q 264.45 266.76 263.87 269.31
  Q 261.48 279.70 267.97 287.98
  Q 269.27 289.64 272.14 290.69
  Z"
/>
<path fill="#747479" d="
  M 197.03 246.21
  L 196.29 246.03
  Q 196.82 245.94 197.03 246.21
  Z"
/>
<path fill="#747479" d="
  M 204.20 248.38
  Q 205.28 248.97 205.64 250.24
  L 202.35 248.12
  Q 203.33 247.92 204.20 248.38
  Z"
/>
<path fill="#101227" d="
  M 282.25 286.63
  Q 276.50 287.52 272.14 290.69
  Q 269.27 289.64 267.97 287.98
  Q 261.48 279.70 263.87 269.31
  Q 264.45 266.76 266.68 263.65
  Q 270.93 257.74 277.60 260.88
  A 1.63 1.54 -9.7 0 1 277.93 261.10
  L 280.67 263.68
  A 2.89 2.73 -85.1 0 1 281.18 264.32
  Q 287.60 275.30 282.25 286.63
  Z"
/>
<ellipse fill="#5253ad" cx="0.00" cy="0.00" transform="translate(14.33,276.84) rotate(-27.1)" rx="3.02" ry="0.33"/>
<path fill="#747479" d="
  M 272.14 290.69
  Q 276.50 287.52 282.25 286.63
  Q 281.26 287.61 281.07 288.35
  A 0.29 0.29 0.0 0 0 281.47 288.68
  L 298.41 280.53
  A 0.19 0.19 0.0 0 1 298.64 280.83
  C 296.13 283.68 294.93 284.93 292.89 287.80
  Q 290.81 290.73 288.74 292.46
  C 285.69 295.02 282.76 293.08 279.16 290.88
  A 1.99 1.90 -27.2 0 0 278.24 290.61
  Q 276.44 290.55 274.26 290.95
  Q 273.69 291.06 272.14 290.69
  Z"
/>
<path fill="#cfd3df" d="
  M 465.71 384.40
  C 467.40 388.98 469.11 392.89 469.56 397.54
  L 469.65 398.82
  Q 468.86 406.02 464.37 411.14
  Q 449.23 428.40 427.74 435.47
  Q 419.03 438.33 408.14 437.81
  A 2.08 1.99 -28.8 0 1 407.28 437.58
  Q 402.17 434.94 398.37 430.24
  Q 395.87 421.29 389.56 414.92
  Q 390.30 414.13 392.75 414.18
  Q 395.00 414.23 400.51 412.71
  Q 403.85 411.79 407.96 410.08
  Q 414.87 407.21 425.42 402.84
  Q 426.08 402.57 427.26 402.04
  Q 440.54 396.09 441.86 395.51
  C 444.02 394.56 445.89 393.13 447.53 392.38
  A 2.45 2.44 31.8 0 1 448.52 392.15
  Q 450.56 392.11 452.34 390.72
  A 1.53 1.46 12.5 0 1 452.62 390.55
  L 465.71 384.40
  Z"
/>
<path fill="#101227" d="
  M 343.41 395.70
  L 339.93 394.66
  A 1.47 1.35 -12.6 0 1 339.36 394.33
  L 335.02 390.05
  Q 339.91 391.87 343.41 395.70
  Z"
/>
<path fill="#101227" d="
  M 511.61 392.25
  Q 511.68 392.61 511.26 392.62
  Q 510.79 392.63 510.64 392.35
  A 0.33 0.29 -7.1 0 1 511.01 391.94
  Q 511.56 392.02 511.61 392.25
  Z"
/>
<path fill="#101227" d="
  M 498.46 393.22
  Q 497.21 393.63 496.44 393.05
  Q 497.51 392.72 498.46 393.22
  Z"
/>
<path fill="#cfd3df" d="
  M 498.75 395.18
  L 498.69 396.50
  Q 498.54 397.12 498.70 397.69
  Q 498.89 398.64 499.52 398.99
  L 500.36 400.46
  Q 498.00 400.88 496.93 402.07
  A 1.76 1.70 -81.5 0 1 496.50 402.40
  Q 493.44 404.02 492.48 404.34
  Q 490.45 405.02 490.36 403.21
  Q 490.35 403.13 490.34 403.06
  Q 490.79 402.60 490.26 402.20
  L 489.40 400.47
  Q 490.09 399.83 491.29 400.10
  A 1.36 1.35 33.0 0 0 492.35 399.88
  Q 493.82 398.84 495.65 398.36
  A 1.33 1.32 -7.4 0 0 496.64 397.08
  L 496.64 394.71
  A 0.65 0.65 0.0 0 1 497.26 394.06
  Q 498.17 394.01 498.75 395.18
  Z"
/>
<path fill="#101227" d="
  M 498.69 396.50
  L 498.70 397.69
  Q 498.54 397.12 498.69 396.50
  Z"
/>
<path fill="#f9b025" d="
  M 469.65 398.82
  L 469.56 397.54
  L 469.65 398.82
  Z"
/>
<path fill="#f9b025" d="
  M 499.52 398.99
  Q 498.89 398.64 498.70 397.69
  Q 499.46 398.18 499.52 398.99
  Z"
/>
<path fill="#747479" d="
  M 501.15 401.56
  L 495.33 405.22
  A 1.94 1.91 -3.0 0 0 494.69 405.92
  Q 493.48 408.22 495.76 410.11
  A 1.08 1.01 12.8 0 1 496.11 410.63
  Q 496.20 410.91 496.20 410.94
  A 1.00 0.99 28.7 0 1 494.38 411.47
  L 491.91 407.83
  A 0.88 0.87 57.8 0 0 490.74 407.56
  Q 490.57 407.65 490.31 408.23
  L 490.36 403.21
  Q 490.45 405.02 492.48 404.34
  Q 493.44 404.02 496.50 402.40
  A 1.76 1.70 -81.5 0 0 496.93 402.07
  Q 498.00 400.88 500.36 400.46
  Q 500.83 400.65 501.15 401.56
  Z"
/>
<path fill="#cfd3df" d="
  M 501.15 401.56
  L 503.04 404.23
  Q 503.27 405.19 503.84 405.16
  Q 507.22 410.36 512.00 413.90
  L 512.00 415.08
  Q 507.27 420.57 500.70 423.55
  Q 496.43 425.48 495.06 421.21
  Q 494.06 418.10 493.25 415.00
  Q 493.53 414.72 493.17 414.34
  Q 492.98 414.13 492.72 414.29
  L 492.54 414.02
  Q 492.43 413.65 491.96 413.49
  Q 489.30 411.92 490.31 408.23
  Q 490.57 407.65 490.74 407.56
  A 0.88 0.87 57.8 0 1 491.91 407.83
  L 494.38 411.47
  A 1.00 0.99 28.7 0 0 496.20 410.94
  Q 496.20 410.91 496.11 410.63
  A 1.08 1.01 12.8 0 0 495.76 410.11
  Q 493.48 408.22 494.69 405.92
  A 1.94 1.91 -3.0 0 1 495.33 405.22
  L 501.15 401.56
  Z"
/>
<path fill="#747479" d="
  M 490.34 403.06
  L 490.26 402.20
  Q 490.79 402.60 490.34 403.06
  Z"
/>
<path fill="#747479" d="
  M 503.84 405.16
  Q 503.27 405.19 503.04 404.23
  L 503.84 405.16
  Z"
/>
<path fill="#747479" d="
  M 492.54 414.02
  Q 492.19 413.91 491.96 413.49
  Q 492.43 413.65 492.54 414.02
  Z"
/>
<path fill="#747479" d="
  M 493.25 415.00
  Q 492.90 414.71 492.72 414.29
  Q 492.98 414.13 493.17 414.34
  Q 493.53 414.72 493.25 415.00
  Z"
/>
<path fill="#cfd3df" d="
  M 377.21 415.11
  Q 377.06 419.17 380.75 423.37
  Q 381.72 426.45 384.35 428.40
  Q 380.23 431.29 382.31 437.75
  A 0.52 0.52 0.0 0 1 381.57 438.37
  Q 380.27 437.66 379.05 435.95
  Q 378.82 434.43 376.54 434.86
  C 373.56 433.93 369.22 427.62 367.56 424.94
  Q 367.55 424.64 367.35 424.33
  Q 367.20 424.07 366.94 424.34
  L 362.19 420.99
  Q 364.19 420.70 366.19 419.20
  Q 366.74 418.79 367.37 419.52
  A 0.28 0.28 0.0 0 0 367.84 419.46
  Q 369.02 417.04 371.92 417.43
  A 1.24 1.22 -53.0 0 0 372.65 417.32
  L 377.21 415.11
  Z"
/>
<path fill="#abb2a4" d="
  M 398.37 430.24
  L 392.70 422.61
  A 0.89 0.86 83.0 0 0 392.38 422.35
  Q 390.69 421.49 389.79 424.31
  A 1.40 1.38 -9.2 0 1 389.27 425.02
  L 384.35 428.40
  Q 381.72 426.45 380.75 423.37
  Q 384.60 420.44 389.66 419.68
  A 0.58 0.58 0.0 0 0 390.16 419.09
  Q 390.15 417.29 388.79 415.57
  Q 389.10 415.18 389.56 414.92
  Q 395.87 421.29 398.37 430.24
  Z"
/>
<path fill="#747479" d="
  M 388.79 415.57
  Q 390.15 417.29 390.16 419.09
  A 0.58 0.58 0.0 0 1 389.66 419.68
  Q 384.60 420.44 380.75 423.37
  Q 377.06 419.17 377.21 415.11
  Q 381.69 415.47 387.75 414.95
  Q 388.74 414.86 388.79 415.57
  Z"
/>
<path fill="#abb2a4" d="
  M 367.56 424.94
  Q 367.19 424.76 366.94 424.34
  Q 367.20 424.07 367.35 424.33
  Q 367.55 424.64 367.56 424.94
  Z"
/>
<path fill="#747479" d="
  M 379.05 435.95
  L 376.54 434.86
  Q 378.82 434.43 379.05 435.95
  Z"
/>
</svg>
