<?xml version="1.0" encoding="UTF-8" standalone="no"?>
<!-- Created with Inkscape (http://www.inkscape.org/) -->

<svg
   version="1.1"
   id="svg1"
   width="512"
   height="444"
   viewBox="0 0 512 444"
   xmlns="http://www.w3.org/2000/svg"
   xmlns:svg="http://www.w3.org/2000/svg"
   xmlns:rdf="http://www.w3.org/1999/02/22-rdf-syntax-ns#"
   xmlns:cc="http://creativecommons.org/ns#"
   xmlns:dc="http://purl.org/dc/elements/1.1/">
  <title
     id="title1">Pleiades-1B Icon SVG</title>
  <defs
     id="defs1" />
  <g
     id="g1">
    <path
       style="fill:currentColor"
       d="m 380.04775,438.05067 c -6.11897,-2.41887 -14.4064,-13.1564 -20.92793,-18.84223 -11.30595,-3.34746 -2.57844,-17.64783 -8.31542,-17.39598 -5.32703,-2.08789 -11.64649,-9.26262 -16.70712,-10.06246 -0.99247,-0.71162 -8.89725,-11.34941 -14.40532,-10.62244 -0.94378,-3.93611 -8.02127,-4.66365 -10.00725,-9.55132 -5.9828,-3.44339 -10.0499,-4.58508 -9.55745,-6.88457 -5.31588,-1.1689 -7.42706,-6.02975 -10.71466,-7.29691 -1.69133,-0.34018 -9.2072,-8.76033 -19.308,-13.95988 -0.32062,-3.1364 -8.54693,-2.7868 -13.09746,-10.91027 -5.3159,-6.43383 -10.45457,-14.03019 -10.30026,-12.52375 -2.14681,-5.81271 -10.13028,-19.41044 -10.00403,-19.37422 -8.67212,-14.57227 -12.13317,-17.6065 -16.93967,-25.46289 -5.47941,-7.56905 -8.33767,-16.32008 -18.14686,-26.21405 -17.41694,-7.13283 -35.64983,-10.78779 -52.06935,-17.13269 -6.9692,-1.78385 -28.60591,-7.75901 -20.36741,-3.91185 -7.63475,1.06057 -18.79973,3.39338 -19.0892,5.90774 -13.929927,3.96061 -15.781423,7.56077 -32.09036,13.66567 7.675163,-3.51171 -22.696229,12.69416 -12.926626,6.26811 -5.812319,4.42004 -15.982858,7.16795 -13.303374,7.40695 -6.862523,2.07936 -25.434167,10.36332 -19.03782,8.83056 -12.413631,5.89713 -21.584111,-2.29968 -4.533965,-4.96395 16.27011,0.0864 -11.211014,-4.92597 2.662663,-8.93248 3.507342,1.67322 1.408836,-5.09418 7.475688,-6.00341 7.140919,-12.34646 34.873967,-19.35731 33.769367,-23.30565 2.290158,1.43687 17.394016,-10.51974 13.894067,-6.82146 11.695295,-4.59585 27.44264,-13.67041 27.06565,-14.19006 8.02552,-2.0625 8.42761,-4.1487 20.48755,-9.03816 -7.73133,1.60291 19.98432,-8.1839 11.6768,-6.88265 12.00449,-5.58171 6.10423,-1.01636 15.9082,-8.43178 7.14168,-0.36872 7.58578,-4.17825 18.00195,-7.22806 4.04592,-4.04461 21.31854,-7.34039 23.05003,-11.37865 8.33843,-3.43323 6.61127,-5.53994 13.39175,-7.30103 5.95056,-6.1658 11.29808,-8.5201 16.22077,-11.30758 7.00461,-5.09263 7.54565,-7.56093 17.54231,-13.02829 2.76662,-7.22411 -3.31734,-14.66276 6.79331,-6.17126 8.20342,-5.46628 10.69487,-3.97232 16.99988,-10.58541 0.86034,5.66124 11.81909,-10.93978 3.67459,-1.35283 -3.21394,-14.375571 18.04835,1.35544 8.57323,-5.31823 14.162,-2.02558 32.32393,-8.639008 44.88056,-16.634864 10.31058,-0.86419 40.64161,-13.251838 35.23342,-13.592109 -20.72516,6.237416 -40.63446,17.142337 -61.90838,20.378355 4.57963,-4.323094 8.485,-8.483533 17.90071,-14.388316 9.69178,-7.944939 -14.40241,10.228339 -0.78893,-1.119479 10.19472,-5.349474 8.05363,-6.77882 15.79401,-11.136833 7.3336,-7.169495 11.24774,-8.311705 12.63224,-11.491734 7.40949,-3.149006 0.95947,-1.543992 9.86742,-6.747486 -6.80348,2.341046 8.75043,-4.305688 2.82608,-3.201339 11.53908,-6.974672 3.00061,-1.517433 4.52081,-3.492006 9.05307,-4.853469 3.6395,-3.561831 9.90605,-6.95038 3.44417,-1.64786 10.00646,-9.224211 16.82579,-9.91831 10.71057,-5.474421 4.39606,-3.807903 16.67283,-7.841593 12.95652,-3.457592 3.04184,-4.124418 18.29006,-6.64349 6.09683,-3.02741 32.22077,-16.4842592 21.35908,-3.713666 -3.23558,-0.749695 -12.39644,11.243647 -1.50775,0.969271 -4.90458,7.30614 -10.3725,5.236938 -12.39002,10.767041 8.63183,-6.184844 -27.17664,20.97707 -3.84523,3.660764 -10.67135,10.359115 -17.49113,13.468935 -29.08067,23.734775 -9.93522,8.835348 14.53294,-11.318885 4.96795,-2.895333 -12.51986,9.716602 -15.48293,11.835545 -20.04205,16.499794 7.66859,-4.139827 -18.78245,9.356177 -5.75715,14.82837 1.42794,-1.309354 2.93982,9.803194 6.75715,13.232448 0.6147,-0.177831 9.8147,16.35861 7.67495,-0.175331 -0.38914,-10.493158 3.65738,-49.731907 3.97616,-18.636457 2.419,8.868896 -4.16122,26.485922 2.3226,31.264658 20.50499,0.18709 41.06389,-0.48938 61.52629,0.61836 -5.30944,-1.07973 7.73888,5.54334 -3.68501,7.45788 0.14107,3.05532 -13.29964,7.53124 -4.48362,4.93247 -11.9504,6.01078 -12.80472,8.13199 -18.83167,11.99122 -9.71297,4.51626 -17.60522,11.69393 -29.20094,17.66398 -12.58682,7.63028 -24.07004,15.75131 -29.21365,20.69779 -8.17948,0.27244 -8.27171,10.30228 -10.87962,5.4446 -5.22248,7.66345 -11.26273,5.2107 -22.96077,14.757 1.94654,8.31691 -16.68864,-0.14871 -0.0787,2.59935 -21.79167,-4.48074 -45.49199,-9.23596 -68.01214,-13.89968 -12.92168,-3.11301 -20.2988,-1.01328 -2.53842,1.51093 24.09835,4.0963 48.41055,14.73689 72.81309,13.26303 5.70972,-6.08506 9.49527,-5.35064 13.89179,-10.14795 15.04534,-8.50675 15.43967,-9.98908 29.55436,-17.96731 0.16045,-0.46758 23.24936,-19.78635 22.50864,-9.42167 -5.69436,0.31641 2.63478,11.79849 7.6974,2.19284 8.52374,3.20321 0.80384,15.34422 10.98093,15.05716 -1.7279,11.51975 -3.5464,-4.05653 -1.34423,10.25 1.64109,0.0134 4.56193,11.13795 6.26684,9.13153 6.80739,11.01248 9.93136,30.29855 12.80813,39.2936 -1.05529,-5.71241 6.9631,29.70422 10.02348,38.39254 3.46647,4.58374 5.89852,26.00373 8.19789,23.62295 -1.00894,6.70741 3.57039,17.97697 2.93771,10.55938 3.77962,18.60196 6.03857,40.38894 18.42754,55.45435 -7.02312,-13.83282 6.46833,12.53673 3.8996,22.51226 6.15728,15.40445 6.14836,13.78937 11.64774,23.53339 4.66158,2.91138 10.88112,17.42871 -2.29416,17.6594 -7.52481,9.17164 -12.36617,-15.21858 -14.76939,-22.42016 -4.49014,-4.93484 -4.73896,-9.10902 -15.17172,-17.23924 -10.63873,5.54069 4.5395,27.22255 -13.02896,32.82016 1.16001,2.94244 -12.0347,9.30404 -17.65934,14.86593 -16.55827,7.08087 -15.04401,7.10705 -35.69619,7.63156 -7.00508,-14.70646 -23.50118,-18.27419 -23.39191,1.37442 l -0.8423,0.13711 z m 36.72016,-1.7652 c -8.41051,-1.0026 -8.72487,1.44163 0,0 z m 18.92182,-4.92907 c -8.27404,1.1015 -6.77742,4.38191 0,0 z m 3.83673,-2.16327 c -4.34968,1.18781 -1.93312,2.83009 0,0 z M 445,426.42963 c -5.23698,0.88857 -5.47159,4.80525 0,0 z m 64,-13.80719 c -3.23766,-4.63196 -3.52199,-0.78294 0,0 z m -51.18816,-10.36096 c -5.70628,-8.60802 -1.52507,6.75263 0,0 z M 19.345077,270.45687 c -3.204034,-3.93792 1.093998,4.9581 0,0 z m 265.823373,-1.68842 c -2.93646,-1.2261 3.14261,6.93324 0,0 z m 5.08155,0.56927 c -6.22279,-0.992 -0.0776,1.73023 0,0 z M 322,205.03138 c -3.05611,-2.2113 -4.52749,3.49404 0,0 z m -16.08333,-8.74841 c -4.99443,-1.35716 -3.40578,5.746 0,0 z M 301,195.5 c -4.04306,-6.14394 -1.36124,5.3244 0,0 z m -11.21034,-3.09003 c -5.40706,-3.36224 -4.23523,5.91111 0,0 z M 424,158.5 c -10.82138,-5.18222 2.6911,4.09642 0,0 z M 244.59501,134.75 c 6.49752,-6.7756 -10.07513,7.69768 0,0 z M 452.12756,8.25 c 3.3451,-4.7742809 -6.08469,5.892083 0,0 z M 462,412.59106 c 2.61806,-4.40263 4.21185,-0.20356 0,0 z m -108.43571,-7.29793 c -1.25112,-4.37677 3.47251,4.67515 0,0 z M 509,392 c 3.68219,-4.02435 3.83641,3.91193 0,0 z m -184.03777,-7.07215 c -11.85994,-10.23551 13.71123,10.35332 0,0 z M 473,384.41669 c -5.85753,-5.08633 9.12858,4.77616 0,0 z M 492.19495,370.5 c 0.44973,-5.70268 0.96884,6.17479 0,0 z M 274,346.87794 c -9.11719,-8.64719 12.69382,10.14022 0,0 z m 202.57143,-19.44937 c -1.60841,-10.47684 3.44671,8.40992 0,0 z M 251.27814,327.75 c -7.27061,-11.32204 4.98393,4.65591 0,0 z M 473.2,315.3 c -3.27554,-13.712 5.0599,12.03738 0,0 z M 240,309 c -2.45201,-7.09778 4.75454,7.17619 0,0 z m -7.12756,-11.75 c -3.34509,-4.77429 6.08469,5.89208 0,0 z m -2.8925,-4.77417 c -3.40085,-6.52915 5.16481,5.4246 0,0 z M 10.916667,280.75 c -2.7265417,-10.41025 13.867699,-3.69785 0.103005,-0.84623 4.272698,-1.83795 2.457717,1.78736 -0.103005,0.84623 z m 10.711069,-7.6955 c 8.311436,-3.74958 7.513346,0.40508 0,0 z M 39,267.55136 c 8.085784,-6.04697 7.883862,-2.18341 0,0 z M 207.79783,258.75 c -11.21155,-16.248 9.80319,11.0686 0,0 z M 70,252.57037 c 5.471592,-4.80525 5.236975,-0.88857 0,0 z M 195,248 c -3.41434,-3.48351 8.06913,3.7276 0,0 z M 83,246.57037 c 5.471592,-4.80525 5.236975,-0.88857 0,0 z M 49.43257,239.1091 c 5.188763,-5.28509 4.769251,-0.69522 0,0 z M 98,239.55136 c 8.08578,-6.04697 7.88386,-2.18341 0,0 z M 56,234.9512 c 11.583771,-7.77923 -3.528433,4.38106 0,0 z m 7,-3.38083 c 5.471592,-4.80525 5.236975,-0.88857 0,0 z M 115,231 c 7.80324,-3.58796 -3.08334,3.35011 0,0 z m 24.50708,-0.98855 c 0.74575,-2.33903 4.2321,3.66689 0,0 z m -60.773747,-7.13554 c 5.36885,-2.97937 -2.436709,3.07332 0,0 z M 90,217.57037 c 5.471592,-4.80525 5.236975,-0.88857 0,0 z m 6,-3 c 5.47159,-4.80525 5.23698,-0.88857 0,0 z m 348.56429,-5.27724 c -1.25112,-4.37677 3.47251,4.67515 0,0 z M 439,197 c -2.45201,-7.09778 4.75454,7.17619 0,0 z m -112.5,-8 c -5.80125,-3.17006 14.31326,3.18729 0,0 z m 20.04271,0.0691 c 0.24987,-4.90052 2.37723,3.25184 0,0 z m -24.73021,-1.75221 c 5.59053,-0.8633 -1.71937,1.71436 0,0 z m -7,-1 c 5.59053,-0.8633 -1.71937,1.71436 0,0 z m 36.73021,-0.24779 c 0.24987,-4.90052 2.37723,3.25184 0,0 z M 308,185 c -6.22212,-2.89786 13.23727,2.73975 0,0 z m 48.61115,-1.82016 c 0.75087,-5.94439 3.75834,0.45911 0,0 z m -59.79865,-0.86295 c 5.59053,-0.8633 -1.71937,1.71436 0,0 z m -4,-1 c 5.59053,-0.8633 -1.71937,1.71436 0,0 z M 174,175.57037 c 5.47159,-4.80525 5.23698,-0.88857 0,0 z m 14,-6.96338 c 3.01346,-3.29904 3.04788,1.3575 0,0 z m 239.25,-1.29632 c 8.57468,-0.97291 0.36819,1.61039 0,0 z M 385,165.62244 c 3.23766,-4.63196 3.52199,-0.78294 0,0 z M 198,164 c 7.80324,-3.58796 -3.08334,3.35011 0,0 z m 190.57003,-1.88669 c 2.99884,-10.48149 3.02016,3.76894 0,0 z m 6,-4 c 2.99884,-10.48149 3.02016,3.76894 0,0 z m 8.17129,-4.20532 c 8.33368,-9.70088 3.92565,-0.941 0,0 z m -182.51513,-3.48671 c 7.07379,-5.01278 -4.42391,4.77031 0,0 z M 409,147.57037 c 5.47159,-4.80525 5.23698,-0.88857 0,0 z m 5,-2.94793 c 3.23766,-4.63196 3.52199,-0.78294 0,0 z m 12.22619,-8.20116 c 7.07379,-5.01278 -4.42391,4.77031 0,0 z M 430,134.65019 c 4.9249,-5.2531 5.6833,-1.55851 0,0 z m -181.43571,-4.94332 c 3.50436,-4.56352 -1.26619,4.16137 0,0 z m 197.51904,-5.98984 c 4.27931,-4.69074 4.75424,-0.79611 0,0 z m -1.80316,-20.4533 c 12.77209,-0.90086 11.09908,1.12934 0,0 z M 401.34281,95.5 c 0.24486,-15.366677 1.01215,15.05046 0,0 z m -96.60948,5.37591 c 5.36885,-2.97937 -2.43669,3.07332 0,0 z M 313,97.5 c 11.16189,-5.604887 -6.28319,5.34411 0,0 z m 79.40499,-0.641654 c -4.75477,-6.222657 7.47429,6.522364 0,0 z M 320,95 c 7.80324,-3.587972 -3.08334,3.350125 0,0 z m 58,-22.312909 c 7.63611,-8.20935 8.39484,-6.758569 0,0 z M 396.19495,62.5 c 0.44972,-5.702672 0.96886,6.174746 0,0 z m 5.46297,-2.050928 c 5.12303,-5.326407 0.23989,4.338876 0,0 z M 379.43257,36.109104 c 5.18875,-5.285091 4.76926,-0.695241 0,0 z M 390,29.55136 c 8.08578,-6.046973 7.88386,-2.183413 0,0 z M 427,13.5 c 11.16189,-5.6048867 -6.28319,5.344113 0,0 z m 16.73333,-6.6240877 c 5.36885,-2.9793796 -2.43669,3.0733163 0,0 z M 35.8125,2.316886 c 5.590519,-0.8633167 -1.719323,1.7145158 0,0 z M 35.75,0.3377193 c 6.222792,-0.99199832 0.07756,1.7302169 0,0 z"
       id="path1" />
  </g>
  <metadata
     id="metadata1">
    <rdf:RDF>
      <cc:Work
         rdf:about="">
        <dc:title>Pleiades-1B Icon SVG</dc:title>
        <dc:source>https://eo.belspo.be/sites/default/files/styles/xlarge/public/satellites/116._pleiades-1b.jpg?itok=Eo5QXkO0</dc:source>
      </cc:Work>
    </rdf:RDF>
  </metadata>
</svg>
