<?xml version="1.0" encoding="UTF-8" standalone="no"?>
<!-- Created with Inkscape (http://www.inkscape.org/) -->

<svg
   version="1.1"
   id="svg1"
   width="682.66669"
   height="682.66669"
   viewBox="0 0 682.66669 682.66669"
   xmlns="http://www.w3.org/2000/svg"
   xmlns:svg="http://www.w3.org/2000/svg"
   xmlns:rdf="http://www.w3.org/1999/02/22-rdf-syntax-ns#"
   xmlns:cc="http://creativecommons.org/ns#"
   xmlns:dc="http://purl.org/dc/elements/1.1/">
  <title
     id="title1">LARES Icon SVG</title>
  <defs
     id="defs1" />
  <g
     id="g1">
    <path
       style="fill:currentColor"
       d="m 270.66667,681.445 c -7.33381,-7.93845 -53.71915,-14.58709 -73.3546,-27.46154 C 116.82817,617.08784 53.83748,546.45796 21.129789,464.80035 17.791992,440.72291 -10.24546,402.69082 14.845899,389.60079 -4.4838285,386.83318 1.7545131,406.81001 0.5801083,379.46843 0.97924968,354.01592 -0.8368515,306.3288 1.815897,293.8044 7.0420062,273.47523 13.099345,237.77857 24.709072,214.0785 67.656808,104.62956 170.74439,22.009164 286.97518,4.0095591 303.25401,1.5333264 274.84057,0.47294686 298.20835,0.70601661 329.79615,0.51395828 361.41193,0.09169077 392.984,1.0972573 c -23.26579,2.4537978 31.31991,7.0360711 38.76429,12.3073477 126.30002,36.034347 225.99234,149.880335 243.4773,280.148605 1.56834,16.95373 9.4245,46.29225 -1.56875,46.57801 4.29149,18.74532 -29.26836,46.62399 -4.91456,57.26486 6.96136,-11.55487 10.9778,-69.529 10.36856,-29.75933 -6.93544,89.79185 -48.40138,176.85593 -117.61006,235.25175 -60.83549,53.50904 -142.74253,85.01605 -224.17571,79.61351 -22.20924,-0.28795 -44.494,0.29606 -66.6584,-1.05701 z m 118.13334,-75.57832 c -5.18517,-6.13165 2.04741,9.24062 0,0 z m -40.8,-101.72401 c -5.26091,-7.47503 -5.2518,5.11579 0,0 z m 26.61667,-6.75994 c 22.86044,-27.66472 -27.93355,3.00495 -17.83227,7.95062 7.25863,0.99107 13.44377,-1.98628 17.83227,-7.95062 z m -2.86667,-4.9602 c 7.45403,-1.15109 -2.29241,2.286 0,0 z m -119.75,10.46637 c -10.67534,-6.6536 -22.62123,-0.28582 0,0 z m 105.33333,-8.11111 c 12.19356,-17.71306 -19.88624,-7.18722 -2.52799,1.11616 l 1.80493,-0.15218 z m -124,-2.63512 c -6.55321,-7.79454 -1.90445,5.23855 0,0 z m 364.00001,-17.22524 c -9.52125,-13.08373 -27.35006,-11.37482 0,0 z m -168,-22.75416 c -5.71003,-11.05869 -4.97806,4.89143 0,0 z m -54.60046,-23.53083 c 7.21947,-16.86619 11.77072,-38.99414 11.58977,-59.95027 -11.81488,2.70475 -26.69317,7.84826 -27.69635,2.62623 -6.53452,12.35686 -10.78315,12.57901 -5.30278,24.14666 -17.52017,9.32967 -4.51331,-6.23101 -18.44642,-7.6785 7.77315,11.2586 -3.94794,15.02992 -1.71903,23.29471 17.93882,1.91214 26.55027,18.82847 41.57481,17.56117 z M 356.642,386.62675 c 2.55151,-11.02227 11.38593,5.46403 0,0 z m 17.51008,-4.71125 c -12.86275,-9.55259 15.02465,-0.57574 0,0 z m -122.40017,35.07046 c 1.80727,-13.99761 -1.45533,-34.93154 -7.23896,-30.31928 1.44992,-8.7423 -22.33728,8.5409 -23.84418,7.39687 12.30917,2.78533 7.77743,33.86208 31.08314,22.92241 z m 78.91477,-8.24059 c -2.54758,-4.74597 -3.58661,2.37421 0,0 z m 141.73584,-6.30618 c 17.5563,-4.84229 22.68925,-46.25633 3.70477,-15.32415 -10.55611,-3.08919 -24.97502,4.03411 -11.02062,18.08787 l 3.0407,-0.80727 z m -1.73584,-6.43918 c 3.66128,-4.9773 1.20877,4.59893 0,0 z m -149.79113,-1.33333 c 0.54582,-12.4949 -9.02056,11.12452 0,0 z m 321.03812,-0.13971 c -11.87471,-6.03892 -2.40264,7.93415 0,0 z m -432.58033,-9.40101 c -18.24712,-4.79625 -10.0646,18.44977 0,0 z m 248.00001,2.20738 c -3.30577,-7.0253 -3.30577,7.0253 0,0 z m -230.61269,-3.58407 c 14.29366,-17.80863 -16.38599,9.55088 0,0 z m -13.74843,-1.88815 c -4.90864,-1.51226 -2.44949,2.32201 0,0 z m -88.30556,-7.19444 c -5.81671,-3.18253 -0.0136,9.20789 0,0 z m 355.33334,-1.37018 c -4.56399,-3.00055 -2.89409,5.95568 0,0 z m -98.42222,-10.91871 c -4.73658,-2.84977 3.29387,6.93633 0,0 z m -41.49633,-14.86911 c -6.57588,-8.25444 -25.61247,32.13566 -3.15241,6.07261 1.41438,-1.41199 4.32977,-3.56764 3.15241,-6.07261 z m -1.64355,-7.09988 c 6.33585,-10.38525 -5.82806,-59.57042 -8.25135,-23.07546 2.18055,8.68743 -12.58614,35.73816 8.25135,23.07546 z m 58.91918,-39.09069 c 19.95027,-6.94555 4.00596,-47.32371 -6.05768,-29.02887 -6.52583,-17.27612 -12.30204,20.35015 -25.19661,9.0745 22.85767,-16.93492 -9.17947,-13.22532 -2.93272,2.63623 12.04052,6.19864 -26.02528,19.14367 1.74533,16.49928 6.48142,2.65056 21.88851,9.16484 32.44168,0.81886 z m -146.69042,-8.21858 c 20.20911,-5.99478 21.34847,-30.84735 16.92622,-36.28306 -0.619,9.69741 -19.08885,4.94421 -8.42112,17.1238 -6.10722,9.28622 -19.70054,6.81582 -13.76249,-3.19585 -16.5925,10.09843 1.23397,17.58806 -10.87326,24.71693 5.47446,0.19793 10.87067,-0.99474 16.13065,-2.36182 z M 503.39712,277.6854 c -9.97837,-4.15707 2.75092,13.88151 0,0 z m -2.83949,-3.82804 c 8.83318,-12.45981 -10.22931,0.91822 0,0 z m -119.22429,-4.52402 c -3.40658,-4.78326 -3.40658,4.78326 0,0 z m -254.75599,-2.81119 c 14.582,-12.69538 0.78192,-13.7092 -6.29881,2.66772 1.95504,-0.21605 4.10815,-5.64334 6.29881,-2.66772 z m 418.05738,-7.42911 c -3.26499,-25.45318 -5.95198,29.98503 0,0 z m -36.63471,6.94121 c -8.7088,-9.25495 -15.74229,1.78064 0,0 z M 238.65387,251.34697 c 13.98076,-7.06982 34.89149,-15.3543 6.17735,-6.973 -5.52853,-0.96966 -17.88172,16.882 -6.17735,6.973 z m 178.04153,-5.6803 c -4.31107,-18.9259 -1.096,16.14523 0,0 z m 55.57306,-12.24332 c 3.15536,-36.17094 -13.02589,23.99626 0,0 z m 129.45614,-5.63273 c 1.49735,-8.57309 -37.73859,5.56212 -4.89216,1.09159 z m -204.39125,-4.45728 c -5.60651,-8.59509 -4.28883,7.84095 0,0 z m 86.66666,-11.33333 c -1.20875,-4.59894 -3.66129,4.9773 0,0 z m -132,-28 c -11.4348,-14.80168 21.68957,-0.258 0.68588,-13.91825 -9.31145,-14.42329 -28.09899,-18.72146 -11.91312,1.41252 4.20933,-1.06892 9.43243,22.16508 11.22724,12.50573 z m 45.87176,-8.49862 c -12.65313,-13.04827 -16.77074,14.24732 0,0 z m -174.03307,1.62326 c 5.80846,-16.26865 -30.81625,8.02092 0,0 z m 14.82797,-5.20333 c -3.5437,-4.71718 -2.6307,7.14425 0,0 z m 12.87415,-1.98917 c 14.64403,-11.4512 24.32429,-23.57866 35.98924,-22.56697 8.91332,-10.19536 9.1433,-37.13759 25.80328,-25.49111 19.24587,2.41061 30.16098,-18.94314 44.0055,-17.86085 17.80637,-2.83262 51.73291,15.04525 32.43531,-15.654981 C 388.15819,53.322529 361.61683,27.992108 336.00001,8.6941138 315.96965,2.2601416 290.76324,15.53652 281.43904,35.02389 c -9.17589,17.088473 -5.82986,30.103234 5.70323,47.368412 -11.08797,8.684025 -17.37219,-36.944525 -18.86163,-5.674972 15.58586,18.40104 22.32241,40.43716 11.03522,62.28766 -10.36886,-29.54128 -11.38047,29.28327 -33.98252,29.66168 -10.25268,7.27817 4.60302,4.34631 6.20748,1.26548 z m 125.06892,-4.50668 c -0.84558,-7.87252 -10.48877,6.84392 0,0 z M 269.33334,164 c -1.20879,-4.59892 -3.66126,4.97732 0,0 z m 259.73157,-3.00887 c 1.87586,-13.07213 -32.0233,4.12656 -5.06489,3.28175 0.28545,3.95672 6.98043,-5.22638 5.06489,-3.28175 z M 198.33033,137.37907 c 6.25681,-14.24437 40.82869,-36.56191 7.5607,-15.33992 -16.02109,6.24669 -20.54208,55.86333 -7.5607,15.33992 z m 136.31593,0.8565 c -9.83263,-8.18347 -2.01624,14.26663 0,0 z m 199.16926,-2.90223 c -4.55313,-6.56507 0.71704,6.34104 0,0 z m -209.81551,-3.6 c -3.1499,-12.06556 -1.7812,14.02489 0,0 z m 89.49131,2.6 c 2.02403,-19.00286 -52.88882,-30.01535 -16.07881,-11.70909 5.09205,1.16329 11.96449,15.71002 16.07881,11.70909 z M 143.3879,121.44102 c -16.51575,-22.901633 11.14808,30.01118 0,0 z m 199.27878,1.26823 c 14.78459,-11.75143 -14.36066,-6.81076 0,0 z M 354.00001,116 c 0.0583,-4.48346 -4.09336,4.44176 0,0 z m 168.66667,0 c -3.66128,-4.9773 -1.20877,4.59894 0,0 z m -58.66667,-2.44444 c -2.42543,-6.94435 -4.98917,4.15532 0,0 z m -61.33333,-2.88889 c -10.40432,-4.78396 4.11112,4.46684 0,0 z m -151.6413,-0.87458 c -7.68748,-1.02327 -3.26058,1.904 0,0 z m 186.62759,-2.12542 c 11.86625,-18.105914 -30.62853,-25.805258 -9.65296,-2.34436 2.03301,2.50378 6.75889,5.78188 9.65296,2.34436 z M 243.3599,104.02716 c -3.9016,-10.85955 -4.2516,9.71817 0,0 z m 7.20826,0.75821 c 2.81367,-9.192004 -8.77705,6.69361 0,0 z m 303.23249,-3.49148 c -1.71,-22.850966 -41.0896,-20.872606 -12.22756,-1.08517 2.99658,3.99776 8.42269,3.92671 12.22756,1.08517 z m -79.28717,-1.817783 c 6.59643,-10.576011 -17.03019,6.014133 0,0 z M 255.33334,92.000003 c 18.64784,-10.236951 -3.6634,-27.943939 -5.1738,-5.573495 -1.45453,1.948781 5.51063,15.968622 5.1738,5.573495 z m -10,0.745356 c -2.54757,-4.745961 -3.58662,2.374193 0,0 z m 221.33334,-2.036843 c -3.6232,-2.709408 -4.86367,4.229191 0,0 z m -348.00001,-1.37518 c -3.4066,-4.78328 -3.4066,4.78328 0,0 z M 269.00668,57.666668 c -7.5678,-8.212197 -12.29148,8.461444 0,0 z m 154.7395,-2.666666 c -6.33122,-8.76 -5.95584,9.24989 0,0 z m 245.105,329.666678 c -0.16829,-6.51232 3.83978,6.58699 0,0 z"
       id="path1" />
  </g>
  <metadata
     id="metadata1">
    <rdf:RDF>
      <cc:Work
         rdf:about="">
        <dc:title>LARES Icon SVG</dc:title>
        <dc:source>https://upload.wikimedia.org/wikipedia/commons/1/1e/LARESball_public.JPG</dc:source>
      </cc:Work>
    </rdf:RDF>
  </metadata>
</svg>
