<?xml version="1.0" encoding="UTF-8" standalone="no"?>
<!-- Created with Inkscape (http://www.inkscape.org/) -->

<svg
   version="1.1"
   id="svg1"
   width="1298"
   height="1138"
   viewBox="0 0 1298 1138"
   xmlns="http://www.w3.org/2000/svg"
   xmlns:svg="http://www.w3.org/2000/svg">
  <defs
     id="defs1" />

   <!-- Metadata section -->
   <metadata>
      <rdf:RDF xmlns:rdf="http://www.w3.org/1999/02/22-rdf-syntax-ns#"
               xmlns:dc="http://purl.org/dc/elements/1.1/"
               xmlns:cc="http://creativecommons.org/ns#">
         <rdf:Description rdf:about="">
            <dc:title>Jason-3</dc:title>
            <dc:source>https://science.nasa.gov/wp-content/uploads/2023/05/Jason3.png</dc:source>
            <dc:description>SVG created from NASA mission icon archive.</dc:description>
          </rdf:Description>
      </rdf:RDF>
   </metadata>

  <g
     id="g1">
    <path
       style="display:inline;fill:currentColor;stroke:none;fill-opacity:1"
       d="M 282.95573,1109.8685 C 264.55508,1094.38 239.6,1073.3496 227.5,1063.1342 161.16547,1007.1319 53.191361,916.06242 19.856703,888 9.076734,878.925 0.45778719,870.97489 0.7034879,870.33308 1.1200011,869.24509 140.19473,744.08527 144.22522,741.17119 c 1.66204,-1.20166 8.19719,3.97971 68.29922,54.15076 l 66.46133,55.47956 7.20232,-7.42777 c 7.08479,-7.30658 7.17057,-7.45779 5.25711,-9.26652 C 290.37534,833.09591 261.0375,808.57231 226.25,779.61033 191.4625,750.64835 163,726.30559 163,725.51532 c 0,-0.79028 28.3868,-26.91597 63.08177,-58.05709 56.98001,-51.14346 63.24313,-56.48 64.75,-55.17064 0.91753,0.79726 29.0658,24.05698 62.55171,51.68825 l 60.88348,50.23868 6.26124,-6.35726 6.26125,-6.35726 -59.42187,-49 c -32.68203,-26.95 -60.39801,-49.74359 -61.59108,-50.65241 -1.69819,-1.29361 -1.96372,-2.08718 -1.22286,-3.65465 0.5205,-1.10122 25.62538,-24.1273 55.78862,-51.16907 49.1558,-44.06885 55.01416,-49.02027 56.5,-47.75315 1.60493,1.36867 101.76503,83.28335 111.46052,91.1566 l 4.80278,3.90011 5.36373,-5.2971 5.36372,-5.29709 -57.91651,-47.39592 C 454.06243,510.26957 428,488.36295 428,487.65595 c 0,-0.707 14.28563,-14.08132 31.74585,-29.7207 17.46022,-15.63939 36.13522,-32.40308 41.5,-37.25266 L 511,411.86519 v -8.55426 c 0,-23.27901 8.44314,-56.16898 20.74487,-80.81093 11.24453,-22.52425 27.47395,-41.36258 40.50513,-47.01642 l 6.75,-2.92863 v -10.59226 -10.59227 l -3.75,-1.76319 c -2.0625,-0.96975 -4.77642,-2.42259 -6.03094,-3.22854 -2.18533,-1.40392 -2.21254,-1.57881 -0.64907,-4.17202 0.89753,-1.48867 3.36562,-4.05667 5.48464,-5.70667 l 3.85276,-3 0.0463,-14.67857 c 0.0377,-11.96719 0.33657,-14.96884 1.61773,-16.25 1.79916,-1.79916 3.77878,-1.98955 6.35439,-0.61113 1.45726,0.7799 1.92187,2.79937 2.4732,10.75 1.29907,18.73331 1.33553,18.86625 5.71658,20.84183 4.20822,1.89764 4.67064,2.92161 2.43499,5.39197 -1.84344,2.03697 -0.41116,4.99892 1.62319,3.35676 2.73914,-2.21105 5.58439,0.50388 10.87541,10.3773 2.89486,5.40201 5.3889,9.98019 5.54231,10.17372 0.15341,0.19354 2.5985,-0.41855 5.43352,-1.36019 3.51877,-1.16875 4.82944,-2.03723 4.13003,-2.73664 C 622.77033,257.37033 625.6598,253 627.96002,253 c 0.9515,0 2.50239,0.85347 3.44641,1.89661 1.35546,1.49777 2.59722,1.7806 5.90499,1.34496 2.30372,-0.3034 5.16386,-1.18424 6.35587,-1.95742 1.72337,-1.11784 3.00353,-1.1806 6.25,-0.30642 2.24549,0.60465 4.08271,1.53201 4.08271,2.06081 0,0.5288 1.46297,0.96146 3.25105,0.96146 1.78808,0 12.7001,2.7 24.24895,6 11.54885,3.3 21.15585,6 21.34891,6 0.19305,0 -3.29398,-2.9429 -7.74895,-6.53979 C 690.64498,258.86333 687,255.51352 687,255.0162 c 0,-1.21686 74.88405,-68.2441 75.78843,-67.83672 0.39136,0.17628 21.06862,16.60711 45.94946,36.51294 l 45.2379,36.19241 5.65771,0.30759 c 3.63723,0.19773 5.80309,-0.10597 6.06478,-0.85044 0.22389,-0.63691 -20.87914,-18.13058 -46.89561,-38.87482 -26.01647,-20.74424 -47.6868,-38.06726 -48.15629,-38.4956 -0.4715,-0.43018 -0.4715,-1.42784 0,-2.22866 0.46949,-0.79742 11.84784,-11.30329 25.28521,-23.34638 C 833.61545,122.62281 837.73261,119 838.43111,119 c 0.35783,0 9.96971,7.40072 21.35974,16.44605 11.39003,9.04533 32.0741,25.47033 45.96459,36.5 C 919.64594,182.97572 931.37999,192 931.83113,192 c 1.01392,0 5.6704,-4.86721 5.08948,-5.31981 -0.23134,-0.18023 -21.0293,-16.65775 -46.21771,-36.61671 -41.85359,-33.16423 -45.6854,-36.44744 -44.5,-38.12889 2.29199,-3.2511 60.02643,-54.43459 61.40164,-54.43459 0.72934,0 10.45419,7.234789 21.61077,16.077308 11.15658,8.84252 31.01619,24.53829 44.13247,34.879492 l 23.84779,18.80218 2.38366,-2.38366 2.38367,-2.38366 -43.73146,-34.571003 C 932.13288,67.288973 914.5,52.682382 914.5,51.694741 c 0,-1.6118 55.34044,-51.97294738 56.54244,-51.45499654 0.33218,0.14314055 43.65966,34.16892554 96.28336,75.61285454 l 95.6793,75.352601 -2.6475,3.1474 c -1.4562,1.73107 -12.763,14.95362 -25.1263,29.38345 l -22.4787,26.23605 -3.6263,-2.84072 c -17.2983,-13.55094 -73.1147,-57.68103 -78.7435,-62.25696 l -7.1173,-5.78594 -2.3827,2.54438 -2.3828,2.54437 2.703,2.16139 c 1.4867,1.18876 21.5923,17.01138 44.6792,35.16138 23.0868,18.15 42.0074,33.225 42.0457,33.5 0.059,0.42678 -49.6883,58.96534 -53.435,62.87742 -1.1104,1.15947 -2.7965,0.19383 -10.656,-6.10278 -5.1353,-4.11412 -26.1703,-20.83769 -46.74453,-37.1635 l -37.40762,-29.68329 -2.79962,2.6822 -2.79961,2.6822 22.71405,18.10387 c 12.49272,9.95714 33.66803,26.79421 47.05623,37.41572 22.1223,17.55067 24.2107,19.4658 22.9003,21 -0.793,0.92849 -13.6549,15.95387 -28.5818,33.38974 -14.927,17.43587 -26.81023,31.89516 -26.40716,32.13176 0.40307,0.2366 8.38286,2.57857 17.73286,5.20438 10.1799,2.85887 17.9055,5.58658 19.2571,6.7992 l 2.2571,2.02501 2.0219,-2.17028 c 4.2958,-4.61104 7.855,-5.69562 18.4639,-5.62647 7.9884,0.0521 11.2069,0.53468 16,2.3992 11.6649,4.53768 21.6078,12.43788 25.6846,20.40781 2.104,4.11324 2.0987,8.68951 -0.024,20.95621 -0.9205,5.31784 -1.5192,6.29803 -6.8345,11.18938 -6.2546,5.75579 -7.8419,6.57692 -16.3256,8.44536 -4.4454,0.97906 -13.5809,3.80126 -14.7631,4.56075 -0.1447,0.093 0.4178,1.79867 1.25,3.79045 2.5217,6.03538 1.9611,13.85527 -1.4824,20.67683 l -2.9956,5.93414 4.0593,1.09306 c 2.2326,0.60118 7.3837,1.46587 11.4468,1.92153 4.0631,0.45566 9.7719,1.73376 12.6863,2.84021 10.6273,4.03483 10.4726,4.03137 22.6368,0.50592 6.236,-1.80732 12.8687,-3.28603 14.7393,-3.28603 1.8706,0 5.7685,-0.89977 8.6619,-1.9995 6.7033,-2.54781 7.3941,-2.51747 11.348,0.49833 1.8926,1.44355 6.7278,3.32322 11.4494,4.45095 5.5599,1.32793 10.1382,3.23092 14.3183,5.95137 7.2769,4.73585 10.952,6.34753 19.5584,8.57695 10.341,2.67875 19.2137,7.82354 38.4714,22.30741 18.6557,14.03116 41.6823,35.3089 50.3185,46.49696 6.152,7.96979 12.1579,21.30301 18.116,40.21753 9.9134,31.47119 9.9289,31.6955 4.475,64.5 -2.7085,16.29101 -1.9363,14.9216 -10.2043,18.09724 -4.0372,1.55067 -8.0868,3.49492 -8.9992,4.32057 -2.2072,1.99754 -11.4889,6.00383 -17.0908,7.37699 -12.8406,3.14754 -26.7701,2.39236 -45.3392,-2.45803 -9.317,-2.43367 -10.0501,-2.48722 -13.8132,-1.00905 -4.8803,1.91706 -6.0851,1.50335 -8.4591,-2.90482 -1.3473,-2.50179 -4.497,-5.02445 -11.3758,-9.11094 -24.0693,-14.29888 -36.9558,-24.25248 -55.6041,-42.94897 -9.1866,-9.21032 -14.0249,-13.33944 -16.1868,-13.81428 -3.7445,-0.82242 -4.3074,-1.54641 -6.6462,-8.54871 -1.0104,-3.025 -3.0749,-7.525 -4.5879,-10 -5.3826,-8.80512 -12.9216,-24.13077 -13.5696,-27.58475 -0.8926,-4.75821 -1.4394,-3.80684 -2.4375,4.24115 -0.6533,5.26752 -1.3717,7.25395 -3.1629,8.7456 -1.9779,1.64704 -2.0245,1.81351 -0.3177,1.13541 6.4959,-2.58084 10.8789,-0.5176 14.4142,6.78529 2.9363,6.06556 2.7246,10.26303 -0.6821,13.52609 -1.5224,1.45817 -3.5578,3.88871 -4.5231,5.40121 -0.9653,1.5125 -2.3651,2.75 -3.1107,2.75 -0.7456,0 -1.9368,1.40296 -2.6471,3.11769 -1.2623,3.04761 -1.4063,3.10419 -6.4033,2.51689 -4.3,-0.50539 -6.0604,-0.15222 -11.0843,2.22371 -9.722,4.59775 -12.8972,5.3921 -17.0121,4.25593 -6.3147,-1.74356 -7.8191,0.17661 -8.9207,11.38578 -0.9471,9.63671 -2.2152,16.58444 -3.2083,17.57753 -0.5512,0.55112 -2.5117,1.81167 -4.3569,2.80123 -2.7369,1.46784 -3.7489,2.97985 -5.4953,8.21021 -1.6374,4.90409 -2.5907,6.41103 -4.0554,6.41103 -1.6289,0 -2.0293,-1.03629 -2.6812,-6.93922 -0.4214,-3.81657 -1.3988,-7.64157 -2.172,-8.5 -0.7733,-0.85843 -1.7418,-2.90632 -2.1525,-4.55088 -0.4106,-1.64455 -1.4002,-3.64374 -2.1991,-4.44264 -1.27,-1.27005 -1.186,-1.66833 0.6687,-3.17019 2.4699,-2 2.7723,-3.89707 0.6212,-3.89707 -2.2332,0 -1.8148,-3.10493 0.5,-3.71025 2.3492,-0.61432 2.652,-2.82559 0.5,-3.65138 C 1010.2813,623.787 1010.6643,621 1013,621 c 1.1,0 2,-0.49005 2,-1.089 0,-1.74199 -7.2538,-8.911 -9.0164,-8.911 -0.8824,0 -4.2772,-1.04649 -7.54399,-2.32553 l -5.93961,-2.32553 -2.14253,3.233 c -1.53327,2.31367 -1.83561,3.53992 -1.06324,4.31229 1.34995,1.34995 -2.81416,6.10577 -5.3461,6.10577 -0.93678,0 -2.32084,0.75306 -3.07569,1.67347 -0.75484,0.92041 -4.60159,4.24548 -8.54832,7.38904 -22.84315,18.1945 -55.51346,27.94223 -93.62534,27.93467 -7.80933,-0.002 -18.24878,-0.54747 -23.19878,-1.21315 -12.9744,-1.74482 -14.41033,-1.60309 -31.30523,3.08991 -8.41787,2.33829 -16.06787,4.10559 -17,3.92734 -1.2209,-0.23347 -1.85971,-1.71893 -2.28469,-5.31269 -0.32445,-2.74372 -0.21195,-5.13859 0.25,-5.32192 1.72448,-0.68439 0.76572,-2.27789 -1.028,-1.70859 -1.02735,0.32607 -3.10228,0.12355 -4.61094,-0.45004 -2.27209,-0.86385 -2.66241,-1.51204 -2.27351,-3.77547 0.25823,-1.50291 0.75611,-3.40757 1.10641,-4.23257 0.4626,-1.0895 -1.07229,-2.42581 -5.60857,-4.88297 -8.27541,-4.48252 -17.0515,-10.42028 -23.49035,-15.89318 l -5.24489,-4.45806 -1.75511,2.1145 c -9.65703,11.63438 -71.87596,84.01093 -72.25512,84.0512 -0.275,0.0292 -23.71009,-18.95592 -52.07799,-42.18918 -28.36789,-23.23327 -54.83649,-44.90631 -58.81912,-48.16232 l -7.24113,-5.92001 -5.35896,5.42001 -5.35896,5.42001 47.05979,38.5 c 25.88289,21.175 52.3927,42.775 58.9107,48 8.31486,6.66541 11.73752,10.01191 11.4709,11.21563 -0.40814,1.84259 -95.58364,113.61725 -96.83348,113.72179 -0.41153,0.0344 -16.38653,-12.85589 -35.5,-28.64512 C 527.13829,784.50306 499.8,761.9405 485.5,750.15328 c -14.3,-11.78723 -26.69861,-22.03306 -27.55246,-22.76852 -1.3416,-1.15557 -2.40254,-0.47949 -7.81101,4.97749 l -6.25855,6.31468 19.31101,15.98343 c 17.39352,14.39636 105.78171,87.27617 106.67922,87.96154 0.33401,0.25507 -104.13093,122.73545 -109.34524,128.2023 l -2.21683,2.32421 -66.85068,-55.75668 -66.85069,-55.75667 -6.80095,7.43247 c -3.74053,4.08786 -6.6891,7.76433 -6.55239,8.16995 0.13671,0.40561 29.94857,25.51624 66.24857,55.80141 36.3,30.28516 66.14873,55.48698 66.33051,56.00405 0.30113,0.85655 -125.19441,148.10816 -126.74851,148.72186 -0.36879,0.1456 -15.72561,-12.4077 -34.12627,-27.8963 z M 819.25,653.67969 C 821.39608,651.24455 821.51599,649 819.5,649 c -0.825,0 -1.5,0.66643 -1.5,1.48095 0,0.81452 -1.125,1.7633 -2.5,2.10841 -1.50704,0.37824 -2.5,1.34158 -2.5,2.42543 0,2.31524 3.73636,1.51709 6.25,-1.3351 z m 9.25,-1.18392 c 1.89669,-0.66013 1.87491,-0.74419 -0.42165,-1.6272 -1.72946,-0.66497 -2.65405,-0.56488 -3.23469,0.35016 -1.75961,2.773 -1.20168,2.96786 3.65634,1.27704 z M 1032.8884,642.75 c 0.9918,-2.97337 0.9576,-3.08478 -0.4021,-1.30887 -0.8175,1.06762 -1.4863,2.53012 -1.4863,3.25 0,2.22995 0.7565,1.45236 1.8884,-1.94113 z m 17.3982,-123.73811 C 1050.9417,516.50696 1047.51,512 1044.9477,512 c -1.049,0 -3.6038,0.631 -5.6775,1.40222 -2.0736,0.77123 -4.6702,1.70422 -5.7702,2.07331 -1.894,0.63552 -1.8513,0.79966 0.8058,3.09777 2.3328,2.01765 3.8723,2.4267 9.1333,2.4267 5.474,0 6.3978,-0.2682 6.8475,-1.98811 z m -16.0634,-19.51139 c -0.9478,-1.26754 -1.772,-2.23619 -1.8317,-2.15256 -0.06,0.0836 -0.3673,1.83043 -0.6838,3.88176 l -0.5754,3.7297 2.4071,-1.57714 c 2.3229,-1.52204 2.3468,-1.65765 0.6838,-3.88176 z m 22.2768,-5.03787 c 2.75,-1.36115 6.6597,-2.75015 8.6883,-3.08666 2.0285,-0.33652 3.8921,-1.143 4.1412,-1.7922 0.2491,-0.6492 2.6985,-4.1102 5.4432,-7.69112 l 4.9902,-6.51076 -6.6315,-1.69934 c -3.6473,-0.93464 -7.9814,-1.70628 -9.6314,-1.71475 -1.65,-0.008 -6.7285,-0.83575 -11.2857,-1.83841 -4.5571,-1.00266 -8.4969,-1.48111 -8.7552,-1.06322 -0.2583,0.41789 -2.2672,1.06351 -4.4643,1.43472 -3.706,0.62611 -4.0056,0.92158 -4.1448,4.08701 -0.082,1.87665 -0.195,3.83052 -0.25,4.34193 -0.1428,1.3275 14.5637,18.07649 15.8391,18.0389 0.5835,-0.0172 3.3109,-1.14495 6.0609,-2.5061 z m -24.1489,-70.93526 c 0.794,-2.06908 -3.2823,-4.82937 -5.0119,-3.39389 -0.9367,0.7774 -1.0154,1.60308 -0.283,2.97153 1.2034,2.24851 4.4935,2.51095 5.2949,0.42236 z m 38.0931,-47.43713 C 1071.5211,374.34782 1069.7697,372 1067.393,372 c -1.6917,0 -2.393,0.56174 -2.393,1.91667 0,2.56972 4.1704,4.23472 5.4442,2.17357 z M 978.45,348.07775 c -0.5225,-0.50723 -20.71085,-16.72114 -44.86301,-36.03091 l -43.91301,-35.10868 -2.83699,2.71801 C 885.27665,281.15108 884,282.69658 884,283.09063 c 0,0.39404 16.50455,13.92235 36.67678,30.06291 l 36.67678,29.34646 10.57322,3.14551 c 5.81527,1.73003 10.77572,3.19253 11.02322,3.25 0.2475,0.0575 0.0225,-0.31052 -0.5,-0.81776 z M 596,266.84736 c 0,-6.1936 -0.2391,-7.09713 -2,-7.55761 -1.65968,-0.43402 -2,-1.36402 -2,-5.4654 0,-3.42803 -0.34727,-4.72776 -1.13338,-4.24192 -1.83762,1.13571 -0.21376,22.58224 1.82747,24.13554 2.61438,1.98945 3.30591,0.55227 3.30591,-6.87061 z"
       id="path1" />
  </g>
</svg>
