<?xml version="1.0" encoding="UTF-8" standalone="no"?>
<!-- Created with Inkscape (http://www.inkscape.org/) -->

<svg
   version="1.1"
   id="svg1"
   width="682.66669"
   height="384"
   viewBox="0 0 682.66669 384"
   xmlns="http://www.w3.org/2000/svg"
   xmlns:svg="http://www.w3.org/2000/svg"
   xmlns:rdf="http://www.w3.org/1999/02/22-rdf-syntax-ns#"
   xmlns:cc="http://creativecommons.org/ns#"
   xmlns:dc="http://purl.org/dc/elements/1.1/">
  <title
     id="title1">NPOESS-2 Icon SVG</title>
  <defs
     id="defs1" />
  <g
     id="g1">
    <path
       style="fill:currentColor"
       d="m 673.6984,381.38726 c -1.54245,-1.43701 -4.35559,-3.00206 -6.25142,-3.47788 -1.89583,-0.47583 -3.44696,-1.26262 -3.44696,-1.74844 0,-0.48582 -2.85,-2.37077 -6.33333,-4.18879 -3.48334,-1.81801 -6.63935,-3.70791 -7.01336,-4.19977 -0.37401,-0.49186 -2.32401,-1.3069 -4.33333,-1.81121 -2.00932,-0.50431 -3.65331,-1.45188 -3.65331,-2.10571 0,-0.65384 -0.45,-1.1239 -1,-1.04459 -2.194,0.31638 -7,-1.87283 -7,-3.1886 0,-0.77003 -0.35848,-1.04157 -0.79661,-0.60344 -0.43814,0.43814 -3.6545,-0.96186 -7.14747,-3.11111 C 623.22964,353.75847 619.68811,352 618.85255,352 c -0.83556,0 -1.5192,-0.55233 -1.5192,-1.22739 0,-0.67507 -1.8,-1.62274 -4,-2.10594 -2.2,-0.4832 -4,-1.36583 -4,-1.9614 0,-0.59557 -1.64399,-1.49546 -3.65331,-1.99977 -2.00932,-0.50431 -3.95932,-1.32288 -4.33333,-1.81905 -0.37402,-0.49617 -13.28003,-7.1986 -28.68003,-14.89429 -15.4,-7.69569 -28.3,-14.35098 -28.66666,-14.78954 -1.07844,-1.28988 -39.41591,-19.86929 -40.99907,-19.86929 -0.79496,0 -1.64538,-0.45 -1.88982,-1 -0.24445,-0.55 -7.04445,-4.3 -15.11112,-8.33333 -8.06666,-4.03333 -14.97267,-7.73576 -15.34669,-8.22762 -0.37401,-0.49186 -2.32401,-1.3069 -4.33333,-1.81121 -2.00932,-0.50431 -3.65331,-1.40421 -3.65331,-1.99977 0,-0.59557 -1.8,-1.4782 -4,-1.9614 -2.2,-0.4832 -4,-1.43087 -4,-2.10594 0,-0.67507 -0.74139,-1.22739 -1.64753,-1.22739 -1.77615,0 -15.91926,-6.76455 -17.01914,-8.14014 -0.36666,-0.45858 -2.16666,-1.29552 -4,-1.85986 -1.83333,-0.56435 -3.63333,-1.39522 -4,-1.84638 -0.36666,-0.45116 -5.46666,-3.22029 -11.33333,-6.15362 -5.86667,-2.93334 -10.97268,-5.73577 -11.34669,-6.22762 -0.37401,-0.49186 -2.32401,-1.30691 -4.33333,-1.81122 -2.00932,-0.5043 -3.65331,-1.45187 -3.65331,-2.10571 0,-0.65383 -0.45,-1.1239 -1,-1.04459 -2.01414,0.29045 -7.00001,-1.82241 -7.00001,-2.96637 0,-0.64781 -0.45,-1.02903 -1,-0.84718 -1.11618,0.36907 -16.6132,-7.12066 -17.68002,-8.54478 -0.37401,-0.49928 -2.32401,-1.32039 -4.33333,-1.8247 -2.00932,-0.50431 -3.65331,-1.38683 -3.65331,-1.96117 0,-0.57433 -1.64399,-1.45686 -3.65331,-1.96116 -2.00932,-0.50431 -3.95932,-1.33388 -4.33334,-1.84348 -0.37401,-0.50961 -5.9566,-3.56235 -12.40576,-6.78387 -6.44916,-3.22152 -12.00604,-6.31084 -12.34863,-6.86515 -0.34258,-0.55431 -2.416,-1.40167 -4.60759,-1.88303 -2.19159,-0.48135 -3.98471,-1.37984 -3.98471,-1.99664 0,-0.6168 -1.8,-1.5168 -4,-2 -2.2,-0.4832 -4,-1.36583 -4,-1.9614 0,-0.59556 -1.64399,-1.49546 -3.65331,-1.99977 -2.00932,-0.50431 -4.08803,-1.61935 -4.61935,-2.47788 -0.54448,-0.87979 -3.88139,-1.51876 -7.64688,-1.46426 -8.1253,0.11759 -12.08046,3.1122 -12.08046,9.14662 0,3.95091 -2.85317,9.60468 -5.92271,11.73627 -0.77584,0.53877 -0.95599,0.98877 -0.40034,1 0.55566,0.0112 -0.45177,1.67042 -2.23874,3.68709 -1.78696,2.01666 -4.48047,5.16666 -5.98557,7 -1.5051,1.83333 -3.32334,4.03197 -4.04054,4.88586 -0.7172,0.8539 -1.69337,3.1039 -2.16926,5 -0.47589,1.89611 -1.26275,3.44747 -1.74856,3.44747 -0.48582,0 -2.37078,2.85 -4.18879,6.33333 -1.81802,3.48334 -3.70792,6.63935 -4.19978,7.01336 -0.49186,0.37401 -1.3069,2.32401 -1.81121,4.33333 -0.50431,2.00932 -1.43304,3.65331 -2.06386,3.65331 -0.63082,0 -0.80158,0.9 -0.37947,2 0.42211,1.1 0.10327,2 -0.70852,2 -0.81179,0 -1.47598,0.9 -1.47598,2 0,1.1 -0.63541,2 -1.41203,2 -0.77661,0 -0.99974,0.66709 -0.49584,1.48241 0.5039,0.81532 0.17397,1.94111 -0.73317,2.50176 -0.90715,0.56064 -1.96205,3.79356 -2.34423,7.18426 -0.38218,3.3907 -1.21684,6.16491 -1.8548,6.16491 -0.63796,0 -1.15993,1.05888 -1.15993,2.35308 0,1.29419 -1.2,4.59201 -2.66667,7.3285 -2.12723,3.96895 -2.66667,7.52278 -2.66667,17.56823 0,6.95695 -0.59672,12.96161 -1.33333,13.41685 -0.73333,0.45323 -1.33333,2.26137 -1.33333,4.01809 0,2.82868 -2.38108,5.90581 -8.37155,10.81877 -1.00831,0.82694 -3.2872,1.95781 -5.0642,2.51304 -1.77701,0.55524 -3.57412,1.54125 -3.99358,2.19115 -0.41947,0.6499 -4.76947,1.55579 -9.66667,2.0131 -4.8972,0.45731 -8.904,1.3447 -8.904,1.97199 0,0.62729 -1.8,1.14053 -4,1.14053 -2.2,0 -4,-0.6 -4,-1.33333 0,-0.73334 -0.80701,-1.33334 -1.79335,-1.33334 -0.98635,0 -2.9285,-1.25432 -4.3159,-2.78738 -2.37061,-2.61949 -3.64123,-2.76003 -21.09638,-2.33333 -12.98523,0.31743 -18.73516,0.93875 -19.10998,2.06497 -0.29487,0.88601 -4.09449,2.01351 -8.44359,2.50556 -4.34911,0.49204 -7.90747,1.33974 -7.90747,1.88376 0,0.54402 -5.4,1.41157 -12,1.92787 -6.6,0.51631 -12,1.44603 -12,2.06604 0,0.62002 -1.800004,1.52265 -4.000004,2.00585 -2.2,0.4832 -4,1.36089 -4,1.95043 0,0.58954 -1.172318,1.37845 -2.605151,1.75315 -2.286511,0.59793 -2.507843,0.16848 -1.809575,-3.51116 0.437566,-2.30583 1.654126,-5.89818 2.703466,-7.983 1.04934,-2.08481 1.64441,-4.05405 1.322378,-4.37608 -0.322032,-0.32204 -1.34365,1.24479 -2.270262,3.48183 l -1.68475,4.06734 L 58.840141,347.69126 28.69084,347.33333 27.534514,341 c -0.635979,-3.48333 -1.648244,-6.33333 -2.249478,-6.33333 -0.601233,0 -1.50546,-3.3 -2.009391,-7.33334 C 22.771713,323.3 21.828539,320 21.179703,320 c -0.648836,0 -1.179702,-3.88857 -1.179702,-8.64126 0,-8.10537 0.206721,-8.69315 3.333333,-9.47788 1.833333,-0.46014 3.333333,-1.30344 3.333333,-1.87401 0,-0.57057 2.700001,-1.44229 6.000001,-1.93716 3.3,-0.49486 6,-1.41531 6,-2.04545 0,-0.63013 1.8,-1.54104 4,-2.02424 2.2,-0.4832 4,-1.43087 4,-2.10594 0,-0.67507 0.9,-1.22739 2,-1.22739 1.396826,0 2,-1.40741 2,-4.66667 0,-2.56667 -0.6,-4.66667 -1.333333,-4.66667 -1.668829,0 -1.764903,-4.90923 -0.116017,-5.92829 0.669524,-0.41379 1.621732,-3.14606 2.116017,-6.07171 0.494285,-2.92564 1.405752,-5.63273 2.025483,-6.01575 0.619731,-0.38301 1.863001,-3.98616 2.762823,-8.00698 0.899822,-4.02083 2.087824,-7.3106 2.640003,-7.3106 0.55218,0 1.409441,-2.4 1.905024,-5.33333 0.495584,-2.93334 1.448323,-5.33334 2.117198,-5.33334 0.668875,0 1.216136,-2.1 1.216136,-4.66666 C 64.000002,230.1 63.335809,228 62.524017,228 c -0.811792,0 -1.166359,-0.80687 -0.787926,-1.79305 0.378432,-0.98618 -0.425238,-2.59548 -1.785934,-3.57621 -1.360696,-0.98073 -2.170719,-2.27386 -1.800051,-2.87361 0.370667,-0.59976 0.03853,-1.09046 -0.738082,-1.09046 -0.776612,0 -1.412022,-0.90588 -1.412022,-2.01305 0,-1.10718 -1.2,-3.04053 -2.666667,-4.29632 -1.466667,-1.2558 -2.686654,-2.89993 -2.711082,-3.65362 -0.07183,-2.21616 -19.752329,-19.29233 -22.288919,-19.33941 -0.916667,-0.017 -1.666667,-0.56416 -1.666667,-1.21588 0,-0.65172 -2.1,-1.57891 -4.666666,-2.06042 -2.566667,-0.48151 -4.666667,-1.38324 -4.666667,-2.00384 0,-0.62061 -1.509184,-1.50716 -3.353743,-1.97011 -4.0860948,-1.02555 -8.6462575,-4.75806 -8.6462575,-7.07701 0,-0.93702 -0.6,-1.70368 -1.3333334,-1.70368 -2.464557,0 -1.3626294,-3.48689 2.4522658,-7.75985 2.9060409,-3.25498 4.8835511,-4.24015 8.5111581,-4.24015 3.603436,0 4.891068,-0.6329 5.422561,-2.66534 0.383351,-1.46593 0.205538,-2.96908 -0.395141,-3.34032 -0.600679,-0.37124 -1.49709,-3.07183 -1.992024,-6.00132 C 17.503886,146.39686 16.551678,144 15.882803,144 c -0.668875,0 -1.219832,-1.05 -1.22435,-2.33333 -0.0045,-1.28334 -0.847968,-3.94292 -1.874334,-5.91019 -1.026365,-1.96727 -2.270342,-5.41727 -2.764392,-7.66667 C 9.5256761,125.84042 8.7006686,124 8.1863767,124 7.6720848,124 6.42174,122.05 5.4078326,119.66667 l -1.8434679,-4.33334 -0.5514452,4 c -0.3032949,2.2 -1.105277,4.57 -1.7821824,5.26667 C 0.47813573,125.37457 0,101.41735 0,62.933333 L 0,0 23.666667,0.10526316 C 36.683334,0.16315789 46.583335,0.51315789 45.666668,0.88304094 44.750001,1.252924 44.000001,2.1409658 44.000001,2.8564671 c 0,0.7155014 0.6,0.9300912 1.333334,0.4768662 0.733333,-0.4532249 1.333333,-0.2659335 1.333333,0.4162031 0,1.0632912 9.72314,3.2354963 16.001597,3.5748485 1.100878,0.059503 2.600878,0.4733212 3.333333,0.9195967 0.732456,0.4462754 6.731738,1.2850089 13.331738,1.8638524 15.009528,1.316388 14.281156,1.220479 16.666667,2.194609 1.1,0.449189 6.799997,1.467574 12.666667,2.263078 26.22095,3.55549 30.82615,4.304715 33.33333,5.423044 1.46667,0.654205 4.46667,1.55313 6.66667,1.99761 2.2,0.44448 5.50729,2.129423 7.34953,3.744318 3.44792,3.02243 12.60116,16.936174 11.14155,16.936174 -0.44968,0 -0.21341,0.75 0.52503,1.666666 2.61968,3.251922 5.13283,22.333334 2.94145,22.333334 -2.05156,0 -1.49589,7.98548 0.70911,10.190476 1.1,1.1 2,3.157143 2,4.571428 0,1.414286 0.51642,2.571429 1.14761,2.571429 0.63119,0 1.51533,3.104789 1.96476,6.899531 0.44943,3.794742 1.50987,7.32766 2.35654,7.850929 0.84667,0.523269 1.12712,1.61848 0.62322,2.4338 -0.5039,0.81532 -0.35075,1.48241 0.34034,1.48241 1.20462,0 3.34497,4.92023 3.04506,7 -0.0793,0.55 0.30934,1 0.86365,1 0.55432,0 1.82732,1.85129 2.82889,4.11399 1.76395,3.98504 2.03536,4.0919 8.65881,3.40891 25.89037,-2.6697 44.55895,-5.12573 46.83779,-6.16195 2.55593,-1.16222 18.9264,-3.45564 21,-2.94199 0.55,0.13624 1,-0.30462 1,-0.97969 0,-0.67507 1.8,-1.62274 4,-2.10594 2.2,-0.4832 4,-1.43087 4,-2.10594 0,-0.67507 0.80819,-1.22739 1.79599,-1.22739 0.98779,0 3.17959,-1.2 4.87067,-2.66667 1.69109,-1.466667 3.83289,-2.666667 4.75957,-2.666667 0.92669,0 1.88488,-0.45 2.12932,-1 0.49895,-1.122626 15.03668,-8.486241 22.94061,-11.61982 5.76066,-2.28386 10.9695,-2.656788 12.07709,-0.864664 0.40185,0.650201 2.83726,1.577389 5.41202,2.060418 2.57477,0.483029 4.6814,1.403373 4.6814,2.04521 0,0.641837 1.8,1.562322 4,2.045523 2.2,0.483201 4.01245,1.280874 4.02767,1.772607 0.0152,0.491733 3.30277,2.39406 7.30566,4.227393 4.0029,1.833333 7.29044,3.73566 7.30566,4.22739 0.0152,0.49174 1.82767,1.28941 4.02767,1.77261 2.2,0.4832 4,1.39044 4,2.01609 0,0.62565 1.35,1.55884 3,2.07377 1.65,0.51492 3.3,1.31142 3.66667,1.77 0.36667,0.45858 4.12947,2.55573 8.36179,4.66033 4.23232,2.1046 7.9892,4.30237 8.34863,4.88393 0.35942,0.58156 2.44661,1.45122 4.63821,1.93257 2.19159,0.48136 3.98471,1.38708 3.98471,2.01273 0,0.62565 1.32201,1.55714 2.93781,2.06997 1.6158,0.51284 3.75865,1.75327 4.7619,2.75652 1.00325,1.00325 2.68124,1.82409 3.72886,1.82409 1.04762,0 1.90476,0.55233 1.90476,1.22739 0,0.67507 1.8,1.62274 4,2.10594 2.2,0.4832 4,1.41945 4,2.08054 0,0.6611 1.5,1.57847 3.33333,2.0386 1.83334,0.46014 3.33334,1.33114 3.33334,1.93556 0,0.60441 1.35,1.52024 3,2.03516 1.65,0.51493 3.3,1.33778 3.66666,1.82857 0.36667,0.49079 3.06667,2.14955 6,3.68613 2.93334,1.53659 8.03334,4.20416 11.33334,5.92795 3.3,1.72379 6.3,3.50329 6.66666,3.95445 0.36667,0.45116 2.01667,1.24159 3.66667,1.75652 1.65,0.51492 3,1.43075 3,2.03516 0,0.60442 1.5,1.47542 3.33333,1.93556 1.83334,0.46013 3.33334,1.3775 3.33334,2.0386 0,0.66109 1.8,1.59734 4,2.08054 2.2,0.4832 4,1.33276 4,1.88791 0,0.55515 3.15,2.64523 7,4.64461 7.76929,4.03475 11.99408,6.46156 13,7.46748 0.36666,0.36666 4.26666,2.46666 8.66666,4.66666 4.40001,2.2 8.20001,4.45 8.44445,5 0.24444,0.55 1.20264,1 2.12932,1 0.92668,0 3.06849,1.2 4.75957,2.66667 1.69108,1.46667 3.88289,2.66667 4.87068,2.66667 0.98779,0 1.79599,0.58857 1.79599,1.30793 0,0.71936 1.5,1.6844 3.33333,2.14454 1.83333,0.46014 3.33333,1.24003 3.33333,1.73309 0,0.49306 1.65,1.60623 3.66667,2.47371 3.56251,1.53244 8.31408,4.32148 9.66667,5.67406 1.19637,1.19638 5.93207,3.9771 9.09111,5.33816 1.70011,0.73248 5.05675,2.83105 7.45919,4.66348 2.40244,1.83243 4.79006,3.33169 5.30583,3.33169 2.78601,0 25.81815,17.45317 29.03238,22 2.07362,2.93334 4.672,6.50537 5.77419,7.93786 1.10218,1.43248 2.00396,3.23862 2.00396,4.01362 0,0.77501 1.38957,2.90769 3.08792,4.73929 1.69836,1.8316 4.81955,6.32547 6.93599,9.98637 2.11643,3.66091 4.19155,6.9562 4.61137,7.32286 0.41982,0.36667 2.2476,3.51667 4.06173,7 1.81413,3.48334 3.74945,6.33334 4.30071,6.33334 0.55126,0 1.00229,0.85714 1.00229,1.90476 0,1.04762 0.75,2.72296 1.66666,3.72297 2.12262,2.31563 4.57065,6.12773 6.6608,10.37227 0.90279,1.83333 2.39843,4.12619 3.32365,5.09523 0.92522,0.96905 1.68222,2.61905 1.68222,3.66667 0,1.04762 0.49365,1.90476 1.09699,1.90476 0.60335,0 2.50503,2.85 4.22595,6.33334 1.72093,3.48333 3.49114,6.63333 3.93381,7 1.79186,1.48422 5.40022,8.00141 4.44065,8.02041 -0.5669,0.0112 -0.43073,0.46123 0.3026,1 1.71318,1.25865 4.52252,5.65306 5.52755,8.64625 0.43091,1.28334 1.3489,2.33334 2.03998,2.33334 0.69108,0 0.88569,0.6 0.43247,1.33333 -0.45323,0.73333 -0.22907,1.33333 0.49813,1.33333 0.72719,0 1.74347,1.35 2.25839,3 0.51493,1.65 1.30536,3.3 1.75652,3.66667 1.09882,0.89303 3.80104,5.23931 5.80283,9.33333 0.89642,1.83334 1.94206,3.63334 2.32366,4 1.352,1.29912 6.6938,9.23625 6.6938,9.94601 0,1.74545 -5.08247,0.48591 -7.63495,-1.89208 z M 199.14884,267.33333 c -0.42211,-1.1 -0.93908,-2 -1.14883,-2 -0.20975,0 -0.72673,0.9 -1.14884,2 -0.46281,1.20607 -0.007,2 1.14884,2 1.15559,0 1.61164,-0.79393 1.14883,-2 z m -8.90468,-6.25 c -0.42564,-1.06364 -0.74158,-0.7477 -0.80556,0.80556 -0.0579,1.40555 0.25724,2.19305 0.70029,1.75 0.44306,-0.44306 0.49043,-1.59306 0.10527,-2.55556 z m -18.24415,-37.67131 c 0,-0.32338 -0.6,-0.9588 -1.33334,-1.41202 -0.73333,-0.45322 -1.33333,-0.18864 -1.33333,0.58798 0,0.77661 0.6,1.41202 1.33333,1.41202 0.73334,0 1.33334,-0.26459 1.33334,-0.58798 z m -4,-36.15738 c 0,-1.14328 -0.60979,-1.70182 -1.35509,-1.2412 -0.74529,0.46062 -1.00988,1.39603 -0.58797,2.07869 1.14298,1.84939 1.94306,1.50455 1.94306,-0.83749 z m -67.82993,-82.92131 c 1.65849,-2.11474 1.61133,-2.1619 -0.50341,-0.5034 -1.283334,1.00646 -2.333334,2.05646 -2.333334,2.33333 0,1.09738 1.094914,0.39107 2.836744,-1.82993 z m -5.33796,-3.35555 c -1.316821,-1.307025 -1.469973,-1.153874 -0.746393,0.74639 0.500708,1.31496 1.246256,2.05496 1.656772,1.64445 0.410516,-0.41052 8.45e-4,-1.4864 -0.910379,-2.39084 z m -4.832117,-6.311113 c -2.026661,-3.91913 -4.666667,-5.383189 -4.666667,-2.587978 0,0.776613 0.512263,1.095427 1.138363,0.708476 0.626099,-0.386951 1.813236,0.777639 2.638081,2.587977 0.824846,1.810339 1.827991,3.291525 2.229211,3.291525 0.401221,0 -0.201324,-1.8 -1.338988,-4 z M 51.025377,7.1254177 c -0.90271,-0.3652308 -2.70271,-0.3874632 -4,-0.049405 -1.29729,0.3380579 -0.558709,0.6368831 1.641291,0.664056 2.2,0.027173 3.261419,-0.2494199 2.358709,-0.6146507 z M 201.33334,360 c 0,-3.15802 0.84474,-3.34574 3.42857,-0.7619 2.58383,2.58383 2.39611,3.42857 -0.7619,3.42857 -1.77778,0 -2.66667,-0.88889 -2.66667,-2.66667 z"
       id="path1" />
  </g>
  <metadata
     id="metadata1">
    <rdf:RDF>
      <cc:Work
         rdf:about="">
        <dc:title>NPOESS-2 Icon SVG</dc:title>
        <dc:source>https://space.skyrocket.de/img_sat/npoes-1__2.jpg</dc:source>
      </cc:Work>
    </rdf:RDF>
  </metadata>
</svg>
