<svg xmlns="http://www.w3.org/2000/svg" baseProfile="tiny" width="512" height="288" xmlns:v="https://vecta.io/nano"><style><![CDATA[.B{fill:#030303}.C{fill:#a9a4b5}.D{fill:#ffc93a}.E{fill:#a0c4db}.F{fill:#3b5081}]]></style><path d="M29.63 0l1.24.55a.92.91 7.3 0 1 .54.69q.17 1 .79 1.48l-12.73-1.3q-.66-.13-1.53.82-2.12 2.37-1.11 5.69 1.53 5.03 2.19 7.59a2.72 2.71 50.3 0 1-.16 1.78q-1.74 3.8-3.63 7.42-1.47 2.82-1.82 4.09c-.77 2.81-1.98 6.86-3.74 8.81q-1.75 1.95-1.89 2.4a1.64 1.58-44 0 0-.03.88q.56 2.27-1.03 3.85a.63.63 0 0 1-.83.05L0 40.34V.78Q.32.33 1.02 0h28.61z" class="B"/><path d="M19.47 1.42q4.69 11.29 5.64 14.41 3.2 10.46 5.36 16.01a2.49 2.47-8.1 0 0 2.11 1.57c3.64.31 2.32 3.17 4.92 4.78q-1.2 1.02-2.79.26-.43-.21-.54-.41-.17-.32-.52-.52a1.15 1.14-32 0 0-.67-.15q-2.24.2-3.09-1.99-3.5-8.98-5.64-16.38a1.62.19 52.5 0 0-.57-.96q-.38-.54-.67-1.76-1.33-5.73-5.07-14.04.87-.95 1.53-.82z" class="D"/><path d="M32.2 2.72q2.13 1.04 5.03 1.59 16.49 3.12 30.83 4.84.55.06 1.88.64l11.61 27.99a1.03 1.03 0 0 1-1.15 1.41l-3.29-.63a.56.56 0 0 0-.62.76l.66 1.64a1.22 1.21 81 0 1-1.21 1.67q-4.46-.31-5.16-3.95a1.42 1.42 0 0 0-1.28-1.15l-2.44-.21a.62.62 0 0 0-.65.78l.62 2.33a.96.96 0 0 1-1.28 1.14q-2.68-1.07-5.82-1.04a1.55 1.54 78.4 0 1-1.44-.96l-.82-2.04a1.72 1.72 0 0 0-.44-.62q-1.34-1.2-3.51-1.15a.56.56 0 0 0-.51.77l.78 1.93a.87.87 0 0 1-.88 1.19l-6.39-.55a2.12 2.12 0 0 1-1.94-1.94q-.26-3.2-4.3-2.9a.55.55 0 0 0-.49.69l.65 2.44a.71.7-18.3 0 1-.43.84q-.74.28-1.78.16-.4-.22-.93-.2c-2.6-1.61-1.28-4.47-4.92-4.78a2.49 2.47-8.1 0 1-2.11-1.57q-2.16-5.55-5.36-16.01-.95-3.12-5.64-14.41l12.73 1.3z" class="E"/><path d="M17.94 2.24q3.74 8.31 5.07 14.04.29 1.22.67 1.76a1.62.19 52.5 0 1 .57.96q2.14 7.4 5.64 16.38.85 2.19 3.09 1.99a1.15 1.14-32 0 1 .67.15q.35.2.52.52.11.2.54.41 1.59.76 2.79-.26.53-.02.93.2l3.78.62a.52.52 0 0 1 .29.88q-1.37 1.43-3.32.56a1.34 1.32-44.1 0 0-1.07-.01q-1.19.49-1.89.41a.35.35 0 0 0-.35.51q.56 1.09 1.87 1.15 2.38.11 4.01.74a2.24 2.2 53 0 0 .99.15q2-.19 3.46.36a2.96 2.9 52.5 0 0 1.19.17q3.28-.23 5.99.8a4.25 4.23-31.9 0 0 1.18.27q3.04.23 4.39.55c1.52.36 2.89-.48 4-.44a6.02 5.89-37.5 0 1 .91.11l4.04.84a.55.55 0 0 1 .12 1.03c-3.57 1.67-6.67-.24-10.49-.24a3.44 3.39 53.1 0 1-1-.15q-2.91-.9-4.97-.5a1.97 1.85 46.8 0 1-.94-.06q-2.88-.92-6.21-.56a.57.57 0 0 0-.32.99q2.08 1.87.76 2.89l-5.8.03q-2.21-2.07-3.43-6.08a2.01 2-8.4 0 0-1.92-1.42h-3.51a1.72 1.7 80.3 0 1-1.61-1.16l-6.82-20.11q-.1-1.17-.43-1.31a1.45 1.44-68.1 0 0-1.94.83q-3.2 8.83-6.22 15.74-1.62 3.7-2.05 7.42-1.51.37-1.8 1.68-.65 2.94-1.74 4.06a1.61 1.55 70.5 0 0-.44.97q-.2 2.35-2.33 4.29a3.04 3.01 78 0 0-.88 1.37L1.5 63.73a.71.69-9.6 0 1-.27.37Q.54 64.59 0 64V40.34l5.89 4.46a.63.63 0 0 0 .83-.05q1.59-1.58 1.03-3.85a1.64 1.58-44 0 1 .03-.88q.14-.45 1.89-2.4c1.76-1.95 2.97-6 3.74-8.81q.35-1.27 1.82-4.09 1.89-3.62 3.63-7.42a2.72 2.71 50.3 0 0 .16-1.78q-.66-2.56-2.19-7.59-1.01-3.32 1.11-5.69z" class="F"/><path d="M71.68 10.08l11.16 28.8a.86.85 81.1 0 0 .73.54l3.9.34a2.23 2.2 87.6 0 1 2 1.86q.55 3.41 5.12 3.12a1.12 1.11 80.9 0 0 1.01-1.4l-.64-2.4a.46.46 0 0 1 .47-.58q1.19.07 2.55.7c1.45.68 1.59 3.18 2.76 4.04a2.04 1.93 64.4 0 0 .99.38q2.61.25 5.33.78a1.17 1.15 76 0 0 1.1-1.88q-.65-.83-.62-1.76a.63.63 0 0 1 .67-.61q4.15.28 5.02 4.03a.83.83 0 0 0 .73.65l13.13 1.25q-.89 3.97-.4 7.83a3.05 3.05 0 0 0 .42 1.21q2.52 4.21 3.33 8.99-2.96-1.87-3.43-5.27a1.54 1.39-64 0 0-.11-.38q-.87-2.01-2.93-2.26-8.9-1.09-33.38-3.44c-5.23-.51-9.17-1.85-14.15-1.91q-3.38-.04-7.98-.67-.23-.03-4.81-.42-8.24-.71-18.8-2.16 1.32-1.02-.76-2.89a.57.57 0 0 1 .32-.99q3.33-.36 6.21.56a1.97 1.85 46.8 0 0 .94.06q2.06-.4 4.97.5a3.44 3.39 53.1 0 0 1 .15c3.82 0 6.92 1.91 10.49.24a.55.55 0 0 0-.12-1.03l-4.04-.84a6.02 5.89-37.5 0 0-.91-.11c-1.11-.04-2.48.8-4 .44q-1.35-.32-4.39-.55a4.25 4.23-31.9 0 1-1.18-.27q-2.71-1.03-5.99-.8a2.96 2.9 52.5 0 1-1.19-.17q-1.46-.55-3.46-.36a2.24 2.2 53 0 1-.99-.15q-1.63-.63-4.01-.74-1.31-.06-1.87-1.15a.35.35 0 0 1 .35-.51q.7.08 1.89-.41a1.34 1.32-44.1 0 1 1.07.01q1.95.87 3.32-.56a.52.52 0 0 0-.29-.88l-3.78-.62q1.04.12 1.78-.16a.71.7-18.3 0 0 .43-.84l-.65-2.44a.55.55 0 0 1 .49-.69q4.04-.3 4.3 2.9a2.12 2.12 0 0 0 1.94 1.94l6.39.55a.87.87 0 0 0 .88-1.19l-.78-1.93a.56.56 0 0 1 .51-.77q2.17-.05 3.51 1.15a1.72 1.72 0 0 1 .44.62l.82 2.04a1.55 1.54 78.4 0 0 1.44.96q3.14-.03 5.82 1.04a.96.96 0 0 0 1.28-1.14l-.62-2.33a.62.62 0 0 1 .65-.78l2.44.21a1.42 1.42 0 0 1 1.28 1.15q.7 3.64 5.16 3.95a1.22 1.21 81 0 0 1.21-1.67l-.66-1.64a.56.56 0 0 1 .62-.76l3.29.63a1.03 1.03 0 0 0 1.15-1.41L69.94 9.79l1.74.29z" class="D"/><path d="M127.09 47.94l-13.13-1.25a.83.83 0 0 1-.73-.65q-.87-3.75-5.02-4.03a.63.63 0 0 0-.67.61q-.03.93.62 1.76a1.17 1.15 76 0 1-1.1 1.88q-2.72-.53-5.33-.78a2.04 1.93 64.4 0 1-.99-.38c-1.17-.86-1.31-3.36-2.76-4.04q-1.36-.63-2.55-.7a.46.46 0 0 0-.47.58l.64 2.4a1.12 1.11 80.9 0 1-1.01 1.4q-4.57.29-5.12-3.12a2.23 2.2 87.6 0 0-2-1.86l-3.9-.34a.86.85 81.1 0 1-.73-.54l-11.16-28.8q19.09 2 37.54 6.25 7.46 1.71 11.6 8.82c4.3 7.4 8.82 14.73 6.27 22.79z" class="E"/><path d="M21.76 20.72q-1.81 6.02-3.95 10.98-2.11 4.9-4.01 9.88-1.37 3.57-2.68 1.82.43-3.72 2.05-7.42 3.02-6.91 6.22-15.74a1.45 1.44-68.1 0 1 1.94-.83q.33.14.43 1.31z" class="B"/><path d="M21.76 20.72l6.82 20.11a1.72 1.7 80.3 0 0 1.61 1.16h3.51a2.01 2-8.4 0 1 1.92 1.42q1.22 4.01 3.43 6.08 1.13 5.84 4.08 10.42a.83.82 61 0 1-.34 1.2q-1.7.8-1.19 2.1.38.98.74 1.92 2.15 5.68 9.69 26.65a1.23 1.21-11.7 0 0 1.23.8q7.68-.54 15.36 2.32a.21.17-51.3 0 0 .18-.04q.03-.03.1-.02a.11.07-22.1 0 1-.11.15q-7.62-1.13-15.48-1.45a.67.66 81 0 0-.65.9q5.78 15.17 10.69 29.4 3.85 11.15 5.94 16.31 1.82 4.46 1.97 8.7-1.74.59-2.17 4.27-1.61.64-2.04-.18-1.11-2.08-1.56-4.56a.86.86 0 0 0-1.63-.22l-11.39 23.82a.25.25 0 0 1-.4.07q-1.3-1.26-1.94-3.35-1.87-6.06-3.31-11.73l13.75-28.12a3.61 3.57 47.3 0 0 .1-2.9l-2.64-6.53a.4.38-5.3 0 0-.29-.23l-1.23-.24a1.14 1.14 0 0 1-.58-1.93q.67-.65.94-1.65a.84.82 41.3 0 0-.04-.53l-3.17-7.2a.81.81 0 0 0-1.55.31q-.05 2.02-1.85 4.32l-2.92-5.3a.6.6 0 0 0-1.11.18l-.41 2.17a2.63 2.53-28 0 1-.19.58c-1.24 2.75-3.26 5.8-4.81 9.73q-2.24 5.66-6.19 10.6l-2.57-7.63a.36.36 0 0 1 .34-.48q1.08-.01 2.04.6a.53.52-84.6 0 0 .77-.64l-3.01-7.44a.56.56 0 0 0-.95-.15q-.45.52-.75 1.28a.58.58 0 0 1-1.08-.04l-2.54-7.71.43-1.19a.53.53 0 0 1 .69-.32q.48.19.75.14a1.17.92 77.2 0 0 .67-1.41q-.91-3.31-2.65-6.57a.53.53 0 0 0-.97.07l-1.68 4.52c-.98 2.02-3.57 6.6-2.44 8.52a1.4 1.39 68.5 0 1-.9 2.08q-.87.19-2 .76-1.35 2.64-2.84 2.43c-3.5-10.33-6.97-20.47-12.31-30.09a1.18 1.16-9.9 0 0-.88-.61q-1.15-.15-1.7 1.21a.24.24 0 0 1-.45-.01L0 85.76V64q.54.59 1.23.1a.71.69-9.6 0 0 .27-.37l2.43-7.96a3.04 3.01 78 0 1 .88-1.37q2.13-1.94 2.33-4.29a1.61 1.55 70.5 0 1 .44-.97q1.09-1.12 1.74-4.06.29-1.31 1.8-1.68 1.31 1.75 2.68-1.82 1.9-4.98 4.01-9.88 2.14-4.96 3.95-10.98zm-8.81 26.281a.98.98 0 0 0-.517-1.286l-.166-.071a.98.98 0 0 0-1.286.517L8.33 52.379a.98.98 0 0 0 .517 1.286l.166.071a.98.98 0 0 0 1.286-.517l2.652-6.218z" class="C"/><rect x="-1.07" y="-4.36" transform="matrix(.919821 .392337 -.392337 .919821 10.64 49.69)" width="2.14" height="8.72" rx=".98" class="B"/><path d="M44.85 49.46q10.56 1.45 18.8 2.16 4.58.39 4.81.42 4.6.63 7.98.67c4.98.06 8.92 1.4 14.15 1.91q24.48 2.35 33.38 3.44 2.06.25 2.93 2.26a1.54 1.39-64 0 1 .11.38q.47 3.4 3.43 5.27 3.23 12.19 9.98 22.86.38.61 1.79.77-.03.09-.05.18 3.46 3.24 8.59 5.68 7.2 3.42 24.04 12.25 1.64.86 4.19 1.71a6.55 6.42 74.5 0 1 2.26 1.31c.97.87 1.8 1.54 3.07 2.27q14.69 8.54 28.11 16.85c3.11 1.93 7.53 2.45 7.5 7.45a1.61 1.56 65.7 0 1-.35.97l-1.72 2.09a.64.64 0 0 0 .14.94l1.28.85q-6.94.46-5.92 8-1.24-.65-2.12-2 .03-1.78 1.84-3.05a1.17 1.15 78.6 0 0 .49-.75l.69-3.55a.56.53 73.2 0 1 .13-.26l2.64-2.87a.95.95 0 0 0 .17-1.01q-.75-1.76-2.9-1.04-1.68-.02-3.16-1.16-.49-.34-1.23-.53-1.67-.35-2.64-1.18-7.29-4.07-15.46-6.16l-4.23-1.08-9.6-3.54q-1.09-1.56-.89-2.34l1.24-.07a1.68 1.67-34.4 0 1 .82.15q.92.43 1.9.22a1.2 1.16 53.2 0 1 .82.13q4.05 2.3 7.24 3.04.13.03.8.02a1.15.98-31.1 0 1 .36.06l10.37 3.85a.38.38 0 0 0 .31-.69l-24.41-13.15-.81-.48-1.5-1.33a2.89 2.79 76.9 0 0-.68-.44q-4.5-2.08-8.67-4.8-4.46-2.92-8.49-4.82-4.33-2.04-9.05-3.98-4.44-2.55-7.96-7.11a2.12 2.12 0 0 0-2.79-.51q-1.86 1.14-2.06 3.9a.38.38 0 0 0 .55.37q.74-.37 1.28-1.47a1.08 1.07 6 0 1 .71-.57q.8-.18 1.36-.06a.35.35 0 0 1 .02.67q-2.03.59-2.41 2.34a1.68 1.64-23.6 0 1-.2.49l-3.91 6.63a.74.72-78.3 0 1-.52.35q-1.56.25-2.47-.49-4.75-1.47-8.94.74-2.78 3.34-.58 6.99 1.76 2.93 4.62 5.1l-2.69 9.17a1.31 1.3-9.4 0 1-.5.69q-.71.49-1.09.48l-8.91-23.36a1.57 1.57 0 0 0-2.33-.75l-.71.46-9.24 19.18q-1.1 1.94-1.8 2.04l-11.95-.9a.3.29-82.3 0 0-.31.24l-.1.52a.18.17-82.8 0 0 .16.21q5.44.46 10.7.68 1.28.05 1.13 1.71l-5.02 10.32a1.68 1.53-15.7 0 1-.2.32q-1.64 1.99-1.11 3.91.92 3.37 3.75 10.49a1.9 1.84-79.6 0 0 .44.66c2.19 2.14 10.61 1.92 12.01 1.57a1.13 1.12 57.5 0 1 .99.22q1.05.85 1.57 1.77.67 1.2-.56 1.52-.83.22-1.98-.44-.13-.35-1.11-.86-6.73-.28-8.66-.55-1.18-.17-3.37-1.08a7.28 7.22-32.5 0 0-2.48-.54c-5.79-.19-11.18-.94-17.16-.11a1.07 1.06 75.2 0 1-1.13-.66l-1.11-2.77q-.15-4.24-1.97-8.7-2.09-5.16-5.94-16.31-4.91-14.23-10.69-29.4a.67.66 81 0 1 .65-.9q7.86.32 15.48 1.45a.11.07-22.1 0 0 .11-.15q-.07-.01-.1.02a.21.17-51.3 0 1-.18.04q-7.68-2.86-15.36-2.32a1.23 1.21-11.7 0 1-1.23-.8q-7.54-20.97-9.69-26.65-.36-.94-.74-1.92-.51-1.3 1.19-2.1a.83.82 61 0 0 .34-1.2q-2.95-4.58-4.08-10.42l5.8-.03zm25.84 36.39q-2.4-.8-5.07-.25a2.08 2.05 50.8 0 1-1.28-.14q-4.69-2.16-6.09-2.71-2.55-1.01-3.3 1.13-1.19.96-.94 2.64a.93.92 5.1 0 0 .63.75l15.78 5.13q-.18 1.33-.62 1.99a.51.51 0 0 0 .13.71q.84.58 1.53 1.91a.78.77 53.2 0 1-.12.87q-.96 1.03-1.51 3.15a2.43 2.33 74.5 0 1-.57 1.06l-6.87 7.46a.61.59 50.6 0 0-.06.72q.99 1.58 2.17 2.98a2.39 2.09 57.2 0 0 2.57.74q.58-.24.46-1.95l4.19-4a3.06 2.79-77.9 0 1 .73-.52l4.04-2.06c1.22 1.99 4.1 2.57 5.14.26q1.71-3.76 4.02-7.42.37-.24.67-.84 1.72-4.67 5.4-7.88a2.1 1.99-9.7 0 0 .51-.68c2.12-4.72.09-8.21-2.22-12.34a2.16 2.16 0 0 0-2.75-.93q-1.01.43-2.83 2.6-.34.05-1.13 1.21l-5.07 4.07a3.19 3.05-51.8 0 1-3.21.46q-1.47-.65-3.22-2.75c-.96-1.14-1.07-2.36-1.71-3.53a1.57 1.35 79.9 0 0-.13-.17l-7.89-8.01a.2.19 51.6 0 0-.24-.03l-.03.01a.49.49 0 0 0-.13.66q3.04 4.78 6.94 7.71a2.03 2.03 0 0 1 .81 1.79q-.16 2.15 1.96 4.02a1.39 1.3 42.2 0 1 .16 1.93q-.2.22-.85.25zm-16.379-8.535a3.42.55-173.7 0 0 3.339.922 3.42.55-173.7 0 0 3.46-.171 3.42.55-173.7 0 0-3.339-.922 3.42.55-173.7 0 0-3.46.171z" class="E"/><path d="M241.65 64.43q1.69 3.89 3.3 7.09 1.21 2.39 1.27 2.53 1.26 2.94 3.12 5.68a4.41 4.31 17.8 0 1 .46.87q2.51 6.19 4.33 9.22c2.13 3.54 2.99 6.02 5.08 9.9q.31.57.67.56.45-.03.81-.46a.57.57 0 0 1 .87-.01q.46.54.44 1.82a.39.39 0 0 1-.37.38q-.94.08-.53 1.24 1.84 5.19 4.09 9.2c3.74 6.67 6.21 12.65 9.2 17.84a1.44 1.31 50.2 0 0 2.26.32q.74-.95 1.56.03 1.18 1.43 1.6 3.21.27 1.14.71 1.67.39.46.32 1.7a.09.09 0 0 1-.18.02q-.39-1.56-1.76-2.4a1.68 1.64-80.8 0 1-.76-1.08q-.22-1.02-.43-1.14a1.03 1.03 0 0 0-1.43 1.36q7.4 14.67 11.61 23.65.88 1.88 2.61 4.2a.63.63 0 0 0 .84.15q.49-.32 1.39-.42a.76.76 0 0 1 .71.32l1.97 2.73a1.21 1.21 0 0 1 .15 1.12l-.1.25a.53.53 0 0 1-.96.09q-.66-1.12-1.55-1.67a.59.59 0 0 0-.86.7q2.45 6.85 6.67 13.49-35.31-18.02-70.22-36.12-1.84-.95-2.4-2.39-.33-1.51-1.56-1.58a.51.51 0 0 0-.55.53l.06 1.94q-2.59.2-4.82 1.18l-1.28-.85a.64.64 0 0 1-.14-.94l1.72-2.09a1.61 1.56 65.7 0 0 .35-.97c.03-5-4.39-5.52-7.5-7.45Q199 121.54 184.31 113c-1.27-.73-2.1-1.4-3.07-2.27a6.55 6.42 74.5 0 0-2.26-1.31q-2.55-.85-4.19-1.71-16.84-8.83-24.04-12.25-5.13-2.44-8.59-5.68.53.05.82-.11c2.94-.01 5.67-.01 8.67-.45q4.93-.73 13.56-1.82 13.56-1.7 32.3-5.64 2.96 7.66 6.6 15.27 2.86 5.99 7.21 15.19c2.94 6.2 4.38 10.15 7.03 14.19a3.33 3.32 20.1 0 1 .41.88q1.11 3.83 3.37 8.06.53 1 1.41 1.32a.44.43-2.3 0 0 .55-.59l-25.21-54.69q11.53-6.05 22.65-12.17c4.17-2.3 9.75-4.81 13.43-5.81q2.85-.77 6.69 1.02z" class="D"/><path d="M278.82 83.71l3.93 8.02a.48.47 53.7 0 1-.08.54q-.19.21-.2.23a.75.74 41.1 0 0 .06.79q1.19 1.61 2.92 2.57a2.62 2.6-86.7 0 1 1.18 1.33l3.99 9.86a1.22 1.07-82 0 0 .25.38q1.99 2.05 2.68 3.73a.39.38 79 0 1-.35.53h-.54a.54.54 0 0 0-.25 1.02q2.15 1.14 3.08 2.41.66.92.61.91-2.34-.72-1.75-.39a7.34 7.16-20.9 0 0 1.32.57c2.76.85 1.81 4.93 2.99 6.53q.49.66 3.16 3.76a.89.85-77.3 0 1 .18.3l2.7 7.33a.96.93-88.9 0 0 .5.54c2.56 1.16 3.29 4.46 3.86 6.97a2.89 2.82 18.5 0 0 .63 1.23q2.39 2.73 3.83 7.12a2.01 1.9 36.3 0 1 .1.55q.02.66.03 1.25.01.45 1.11.92 1.43.61 1.93 1.78 2.24 5.26 4.91 9.76a1.76 1.72 33.7 0 1 .23 1.09q-.11 1.07.86 2.49.93 1.36.15 2.27a.71.71 0 0 0 .13 1.04q2.54 1.77 4.05 2.87.07.05.15.31.09.31-.26.27a.22.22 0 0 0-.18.38q1.35 1.37 1.8.49a.55.55 0 0 1 .75-.23l.89.49a.2.19-87.4 0 0 .27-.25q-2.07-4.82-5.11-8.65-.97-1.22-2.14-5.11a1.62 1.62 0 0 0-.64-.89q-2.51-1.71-2.64-5.52a1.51 1.5-69.5 0 0-.45-1q-3.29-3.17-4.39-7.16a2.25 2.25 0 0 0-.68-1.08q-1.47-1.3-2.07-3.53c-.45-1.7-1.74-2.71-2.19-4.3a.43.43 0 0 1 .13-.45q.17-.13.18-.15a.65.64 44.5 0 0-.01-.58q-1.87-3.6-5.52-9.92-.3-.52-.47-2.29a1.32 1.31 17.1 0 0-.48-.9q-2.17-1.73-3.5-3.9a2.28 2.2-65.1 0 1-.3-.87q-.32-2.52-2.1-4.63a1.15.96-85 0 1-.14-.2l-5.29-10.84a.19.18 54.7 0 1 .03-.21q.18-.17.19-.2a.51.51 0 0 0-.27-.68q-1.21-.48-2.16-1.76-.07-.09-.1-.3-.04-.31.16-.33a.62.34 79.8 0 0 .23-.69q-.61-3.16-2.33-5.37a1.4 1.37-61.3 0 1-.29-1.03q.31-2.85-1.71-4.15-.44-.28-.51-.6-.07-.34.38-.57 51.02 28.42 101.68 57.47 24.58 14.1 40.07 23.65 9.65 5.95 14.08 9.92 3.51 3.15 7.55 9.49c20.34 31.92 35.72 58.7 59.87 99.26a.11.11 0 0 1-.15.15c-5.05-3.24-10.84-6.72-16.24-9.55q-45.81-23.97-78.55-40.57-82.96-42.06-115.8-58.84-4.22-6.64-6.67-13.49a.59.59 0 0 1 .86-.7q.89.55 1.55 1.67a.53.53 0 0 0 .96-.09l.1-.25a1.21 1.21 0 0 0-.15-1.12l-1.97-2.73a.76.76 0 0 0-.71-.32q-.9.1-1.39.42a.63.63 0 0 1-.84-.15q-1.73-2.32-2.61-4.2-4.21-8.98-11.61-23.65a1.03 1.03 0 0 1 1.43-1.36q.21.12.43 1.14a1.68 1.64-80.8 0 0 .76 1.08q1.37.84 1.76 2.4a.091.091 0 0 0 .18-.02q.07-1.24-.32-1.7-.44-.53-.71-1.67-.42-1.78-1.6-3.21-.82-.98-1.56-.03a1.44 1.31 50.2 0 1-2.26-.32c-2.99-5.19-5.46-11.17-9.2-17.84q-2.25-4.01-4.09-9.2-.41-1.16.53-1.24a.39.39 0 0 0 .37-.38q.02-1.28-.44-1.82a.57.57 0 0 0-.87.01q-.36.43-.81.46-.36.01-.67-.56c-2.09-3.88-2.95-6.36-5.08-9.9q-1.82-3.03-4.33-9.22a4.41 4.31 17.8 0 0-.46-.87q-1.86-2.74-3.12-5.68-.06-.14-1.27-2.53-1.61-3.2-3.3-7.09 19.39 8.88 37.17 19.28zm50.308 100.276a6.12 1.08-124 0 0 2.527 5.678 6.12 1.08-124 0 0 4.318 4.47 6.12 1.08-124 0 0-2.527-5.678 6.12 1.08-124 0 0-4.318-4.47zm40.109 3.916a2.01 1.68-133.5 0 0 .165 2.614 2.01 1.68-133.5 0 0 2.602.302 2.01 1.68-133.5 0 0-.165-2.614 2.01 1.68-133.5 0 0-2.602-.302zM83.3 79.44q-.02.94-.4 1.77a1.26 1.21.1 0 1-.67.64q-8.42 3.36-11.81 10.55l-15.78-5.13a.93.92 5.1 0 1-.63-.75q-.25-1.68.94-2.64 4.43.54 8.34 2.59a3.89 3.89 0 0 0 2.57.37q2.53-.51 4.95.92a.75.7 16 0 0 1.12-.57q0-1.08-1.24-1.34.65-.03.85-.25a1.39 1.3 42.2 0 0-.16-1.93q-2.12-1.87-1.96-4.02a2.03 2.03 0 0 0-.81-1.79q-3.9-2.93-6.94-7.71a.49.49 0 0 1 .13-.66l.03-.01a.2.19 51.6 0 1 .24.03l7.89 8.01a1.57 1.35 79.9 0 1 .13.17c.64 1.17.75 2.39 1.71 3.53q1.75 2.1 3.22 2.75a3.19 3.05-51.8 0 0 3.21-.46l5.07-4.07z" class="C"/><path d="M86.32 97.46q-.01-.71-.61-.82-.45-.08-.86.24-.45.36-.95.28a.46.45-60.7 0 1-.22-.8c2.54-2.16 4.41-5.73 7.72-8.01a1.22 1.21 72.9 0 0 .52-1q0-.84-1.15-1.17a1.24 1.2 78.5 0 1-.64-.44l-5.7-7.51q1.82-2.17 2.83-2.6a2.16 2.16 0 0 1 2.75.93c2.31 4.13 4.34 7.62 2.22 12.34a2.1 1.99-9.7 0 1-.51.68q-3.68 3.21-5.4 7.88z" class="D"/><ellipse cx="0" cy="0" transform="matrix(-.993961 -.109734 .109734 -.993961 57.71 77.69)" rx="3.42" ry=".55" class="C"/><path d="M84.43 78.23l5.7 7.51a1.24 1.2 78.5 0 0 .64.44q1.15.33 1.15 1.17a1.22 1.21 72.9 0 1-.52 1c-3.31 2.28-5.18 5.85-7.72 8.01a.46.45-60.7 0 0 .22.8q.5.08.95-.28.41-.32.86-.24.6.11.61.82-.3.6-.67.84-4.97.26-6.1-2.05 1.86-.78 2.75-1.7c3-3.16 5.74-4.99 1.8-8.75a2 2 0 0 0-2.18-.39l-6.67 2.88a1.96 1.93 7.5 0 0-.74.56q-1.84 2.17-1.45 4.62a1.34 1.29-68.6 0 0 .23.56l1.62 2.25a.54.54 0 0 1-.16.77q-2.69 1.64-3.52 3.64-1.17 2.84-3.12 4.93-.94 1.01-1.77 1.76-1.24 1.13-1.18 2.07.09 1.37 2.37 2.59.12 1.71-.46 1.95a2.39 2.09 57.2 0 1-2.57-.74q-1.18-1.4-2.17-2.98a.61.59 50.6 0 1 .06-.72l6.87-7.46a2.43 2.33 74.5 0 0 .57-1.06q.55-2.12 1.51-3.15a.78.77 53.2 0 0 .12-.87q-.69-1.33-1.53-1.91a.51.51 0 0 1-.13-.71q.44-.66.62-1.99 3.39-7.19 11.81-10.55a1.26 1.21.1 0 0 .67-.64q.38-.83.4-1.77.79-1.16 1.13-1.21zm3.26 9.86a.43.43 0 0 0 .83-.23q-.23-1.36-.97-1.62a.34.34 0 0 0-.43.45l.57 1.4z" class="B"/><path d="M198.88 81.39l25.21 54.69a.44.43-2.3 0 1-.55.59q-.88-.32-1.41-1.32-2.26-4.23-3.37-8.06a3.33 3.32 20.1 0 0-.41-.88c-2.65-4.04-4.09-7.99-7.03-14.19q-4.35-9.2-7.21-15.19-3.64-7.61-6.6-15.27l1.37-.37z" class="F"/><path d="M70.69 85.85q1.24.26 1.24 1.34a.75.7 16 0 1-1.12.57q-2.42-1.43-4.95-.92a3.89 3.89 0 0 1-2.57-.37q-3.91-2.05-8.34-2.59.75-2.14 3.3-1.13 1.4.55 6.09 2.71a2.08 2.05 50.8 0 0 1.28.14q2.67-.55 5.07.25z" class="B"/><path d="M286.25 87.61q-.45.23-.38.57.07.32.51.6 2.02 1.3 1.71 4.15a1.4 1.37-61.3 0 0 .29 1.03q1.72 2.21 2.33 5.37a.62.34 79.8 0 1-.23.69q-.2.02-.16.33.03.21.1.3.95 1.28 2.16 1.76a.51.51 0 0 1 .27.68q-.01.03-.19.2a.19.18 54.7 0 0-.03.21l5.29 10.84a1.15.96-85 0 0 .14.2q1.78 2.11 2.1 4.63a2.28 2.2-65.1 0 0 .3.87q1.33 2.17 3.5 3.9a1.32 1.31 17.1 0 1 .48.9q.17 1.77.47 2.29 3.65 6.32 5.52 9.92a.65.64 44.5 0 1 .01.58q-.01.02-.18.15a.43.43 0 0 0-.13.45c.45 1.59 1.74 2.6 2.19 4.3q.6 2.23 2.07 3.53a2.25 2.25 0 0 1 .68 1.08q1.1 3.99 4.39 7.16a1.51 1.5-69.5 0 1 .45 1q.13 3.81 2.64 5.52a1.62 1.62 0 0 1 .64.89q1.17 3.89 2.14 5.11 3.04 3.83 5.11 8.65a.2.19-87.4 0 1-.27.25l-.89-.49a.55.55 0 0 0-.75.23q-.45.88-1.8-.49a.22.22 0 0 1 .18-.38q.35.04.26-.27-.08-.26-.15-.31-1.51-1.1-4.05-2.87a.71.71 0 0 1-.13-1.04q.78-.91-.15-2.27-.97-1.42-.86-2.49a1.76 1.72 33.7 0 0-.23-1.09q-2.67-4.5-4.91-9.76-.5-1.17-1.93-1.78-1.1-.47-1.11-.92-.01-.59-.03-1.25a2.01 1.9 36.3 0 0-.1-.55q-1.44-4.39-3.83-7.12a2.89 2.82 18.5 0 1-.63-1.23c-.57-2.51-1.3-5.81-3.86-6.97a.96.93-88.9 0 1-.5-.54l-2.7-7.33a.89.85-77.3 0 0-.18-.3q-2.67-3.1-3.16-3.76c-1.18-1.6-.23-5.68-2.99-6.53a7.34 7.16-20.9 0 1-1.32-.57q-.59-.33 1.75.39.05.01-.61-.91-.93-1.27-3.08-2.41a.54.54 0 0 1 .25-1.02h.54a.39.38 79 0 0 .35-.53q-.69-1.68-2.68-3.73a1.22 1.07-82 0 1-.25-.38l-3.99-9.86a2.62 2.6-86.7 0 0-1.18-1.33q-1.73-.96-2.92-2.57a.75.74 41.1 0 1-.06-.79q.01-.02.2-.23a.48.47 53.7 0 0 .08-.54l-3.93-8.02 7.43 3.9z" class="D"/><path d="M79.55 96.25q-1.57.27-.5 2.67.37.83.66 1.72a.71.71 0 0 1-.25.78q-2.33 1.79-2.97 4.04l-4.04 2.06a3.06 2.79-77.9 0 0-.73.52l-4.19 4q-2.28-1.22-2.37-2.59-.06-.94 1.18-2.07.83-.75 1.77-1.76 1.95-2.09 3.12-4.93.83-2 3.52-3.64a.54.54 0 0 0 .16-.77l-1.62-2.25a1.34 1.29-68.6 0 1-.23-.56q-.39-2.45 1.45-4.62a1.96 1.93 7.5 0 1 .74-.56l6.67-2.88a2 2 0 0 1 2.18.39c3.94 3.76 1.2 5.59-1.8 8.75q-.89.92-2.75 1.7zm-.27-5.8l-3.7-.71a.73.73 0 0 0-.84.9q.24.9 1.37 1.85 1.41 1.18 1.84.34.71-1.41 1.43-1.94a.25.25 0 0 0-.1-.44z" class="C"/><path d="M87.69 88.09l-.57-1.4a.34.34 0 0 1 .43-.45q.74.26.97 1.62a.43.43 0 0 1-.83.23z" class="D"/><path d="M147.33 97.34q4.66 5.65 10.84 9.15a5.7 5.14-5.7 0 1 1.02.75q3.85 3.6 8.98 8.9.88.91.37 1.92a1.64 1.56 30.9 0 0 .56 2.02c1.71 1.18 5.62 3.57 7.17 1.8a.81.8 30.5 0 1 .88-.22l.82.31 9.6 3.54q1.54 2.85 4.43 4.89 3.65 2.59 4.43 3.38 3.97 4.06 7.98 7.8a1.14 1.14 0 0 0 1.54 0l.02-.02a.98.98 0 0 0-.02-1.57l-4.33-3.19a.51.51 0 0 1 .44-.91q3.03.85 5.09 2.33a1.28 1.27-66.1 0 0 1.99-.77l.76-3.52q.74.19 1.23.53-.28 1.47.42 2.44a.73.72-36.6 0 1-.15 1c-1.03.79-3.19 2.01-3.27 3.48a.5.5 0 0 0 .68.5l4.07-1.65a.79.79 0 0 0 .48-.83q-.31-2.26.93-3.78 2.15-.72 2.9 1.04a.95.95 0 0 1-.17 1.01l-2.64 2.87a.56.53 73.2 0 0-.13.26l-.69 3.55a1.17 1.15 78.6 0 1-.49.75q-1.81 1.27-1.84 3.05-1.01-.33-1.31-1.34a.54.53 72.1 0 0-.69-.36q-.08.03-.2.15a1.91 1.78-44.4 0 1-2.67.07q-2.98-3.19-6.92-5.84-4.29-2.9-8.19-5.78-4.41-3.26-9.61-3.97a7.22 7.18 60.8 0 1-1.85-.53q-4.3-1.9-7.74-2.2a11.65 7.84 14.3 0 1-1.62-.22q-2.2-.4-6.66-3.65-1.56-1.13-9.44-4.74c-1.93-.88-4.02-.88-5.24-2.66a1.75 1.69-6.2 0 0-.8-.62l-5.54-2.06a.75.74 77.4 0 1-.31-.2l-.73-.76a1.13 1.13 0 0 0-.82-.33q-1.71.02-4.04-1.08a3.58 3.56 60.4 0 0-1.22-.34q-5.63-.56-6.58-.7-1.81-.26-3.09-2.44a1.24 1.23-26.3 0 0-1.53-.51l-.33.13a1.17 1.16-29.8 0 0-.49 1.79q.73.95 2.01 2.05 13.36 11.41 23.12 16.56 3.22 1.7 6.74 4 13.38 8.76 30.69 15.93c3.54 1.47 7.02 3.43 10.57 4.92q1.12.47 5.94 1.42 2.93.57 5.86 1.84-3.24.92-6.8-.14-6.86-2.03-8.25-2.21c-2.33-.3-4.57-1.81-7.38-2.5a3.13 3 64.6 0 1-.71-.27l-4.32-2.24q-2.2-1.22-7.51-3.39-9.01-3.68-27.95-15.5l-5.84-3.96q.17.27-.53-.07-1.6-.7-2.75-1.98-3.35-1.96-5.81-4.91a1.09.42-4.2 0 0-.78-.24q-.54-.02-1.4-.68l-4.48-3.88q-2.86-2.17-4.62-5.1-2.2-3.65.58-6.99 3.71.95 8.94-.74.91.74 2.47.49a.74.72-78.3 0 0 .52-.35l3.91-6.63a1.68 1.64-23.6 0 0 .2-.49q.38-1.75 2.41-2.34a.35.35 0 0 0-.02-.67q-.56-.12-1.36.06a1.08 1.07 6 0 0-.71.57q-.54 1.1-1.28 1.47a.38.38 0 0 1-.55-.37q.2-2.76 2.06-3.9a2.12 2.12 0 0 1 2.79.51q3.52 4.56 7.96 7.11zm2.66 9.83l9.68 4.8a.46.46 0 0 0 .53-.74q-4.27-4.29-9.86-7.69a.27.27 0 0 0-.41.29q.33 1.31-.69 2.46-.71.01-.93-.73-.28-.93-.31-1.01-.54-1.26-.71-3.26a2.24 2.21-70.3 0 0-.64-1.38l-6.01-6.01a.51.5-59.5 0 0-.84.22q-.37 1.23-1.57 2-3.42 2.21-3.61 6.41a.89.89 0 0 0 1.22.87l1.71-.69a1.33 1.32-15.7 0 0 .81-1.43q-.13-.88.11-2.75.32-2.41 3.1-1.4a.4.4 0 0 1 .19.61q-2.11 2.91-.18 6.34a1.23 1.21-5.1 0 0 .68.56l7.73 2.53z" class="B"/><path d="M142.98 89.67q-.29.16-.82.11.02-.09.05-.18l.77.07z" class="F"/><path d="M79.28 90.45a.25.25 0 0 1 .1.44q-.72.53-1.43 1.94-.43.84-1.84-.34-1.13-.95-1.37-1.85a.73.73 0 0 1 .84-.9l3.7.71z" class="B"/><path d="M149.24 106.29q-.09.74.75.88l-7.73-2.53a1.23 1.21-5.1 0 1-.68-.56q-1.93-3.43.18-6.34a.4.4 0 0 0-.19-.61q-2.78-1.01-3.1 1.4-.24 1.87-.11 2.75a1.33 1.32-15.7 0 1-.81 1.43l-1.71.69a.89.89 0 0 1-1.22-.87q.19-4.2 3.61-6.41 1.2-.77 1.57-2a.51.5-59.5 0 1 .84-.22l6.01 6.01a2.24 2.21-70.3 0 1 .64 1.38q.17 2 .71 3.26.03.08.31 1.01.22.74.93.73z" class="E"/><path d="M79.55 96.25q1.13 2.31 6.1 2.05-2.31 3.66-4.02 7.42c-1.04 2.31-3.92 1.73-5.14-.26q.64-2.25 2.97-4.04a.71.71 0 0 0 .25-.78q-.29-.89-.66-1.72-1.07-2.4.5-2.67z" class="D"/><path d="M175.72 112.71q-.9-.25-1.62.24-.53-1.16-1.48-1.6-5.77-2.7-11.15-5.56a2.58 2.52-7.9 0 1-.61-.45c-.75-.74-1.94-1.61-3.18-1.44q-.82.1-.87-.68a.13.13 0 0 0-.21-.1l-.29.21a.22.21 55.6 0 0-.05.3c.88 1.31 2.23 1.4 3.08 2.64a2.19 2.14 86.8 0 0 .7.64q1.78.99 7.05 5.52 1.66 1.43 4.37 1.97-.52.67.03 1.09.73.55 2.06.51l3.53 3.63q-.2.78.89 2.34l-.82-.31a.81.8 30.5 0 0-.88.22c-1.55 1.77-5.46-.62-7.17-1.8a1.64 1.56 30.9 0 1-.56-2.02q.51-1.01-.37-1.92-5.13-5.3-8.98-8.9a5.7 5.14-5.7 0 0-1.02-.75q-6.18-3.5-10.84-9.15 4.72 1.94 9.05 3.98 4.03 1.9 8.49 4.82 4.17 2.72 8.67 4.8a2.89 2.79 76.9 0 1 .68.44l1.5 1.33z" class="C"/><path d="M26.88 108.02q-.91-3.11-2.76-4.76l1.68-4.52a.53.53 0 0 1 .97-.07q1.74 3.26 2.65 6.57a1.17.92 77.2 0 1-.67 1.41q-.27.05-.75-.14a.53.53 0 0 0-.69.32l-.43 1.19z" class="F"/><path d="M119.75 125.05q-1.81 1.14-2.28-.01-4.7-11.59-9.67-23.64l.71-.46a1.57 1.57 0 0 1 2.33.75l8.91 23.36zm9.18-23.17q-5.23 1.69-8.94.74 4.19-2.21 8.94-.74z" class="D"/><path d="M119.75 125.05q.38.01 1.09-.48a1.31 1.3-9.4 0 0 .5-.69l2.69-9.17 4.48 3.88q-.76.33-1.62.05a1.25 1.22 14.8 0 0-1.59.9q-.45 2.16-.78 2.94-.84 2 .92 4.83.92 1.49 2.78 1.48a1.88 1.84 30.4 0 0 .88-.22q.56-.29 5.63-3.09.37-.21 1.31-.15a.5.49-1.4 0 0 .53-.55q-.02-.16-.07-.36 1.15 1.28 2.75 1.98c-2.42.85-4.75.59-6.31 3.17a.5.49 26.8 0 0 .24.71c2.69 1.1 4.36-.49 6.33-1.54q1.3-.69.27-2.27l5.84 3.96q-1.78 1.55.16 3.33l-3.46-.11q-.88.95-.07 1.53-1.52 1.53-2.49 3.55-.15 0-.31 0 .43-1.26.16-1.46a1.26 1.25 32.9 0 0-1.74.37l-3.78 5.89a.99.98 37.2 0 1-1.48.2q-1.8-1.59-2.98-4.14l5.38-4.73a.6.6 0 0 0-.34-1.05q-.93-.08-1.49.14-6.07 2.45-13.67 7.31a3.75 3.18-79.4 0 0-.58.47q-2.64 2.67-5.15 3.56-2.36.84-2.95 2.8-.21.68.62.93-.2.33-1.2.98-1.05.03-1.64 2.51-.68-1.78-2.85-1.95 2.01-1.46 3.33-3.74a1.94 1.92 60.9 0 0 .26-.93l.07-2.34q1.36-4.67 4.64-8.63a1.19 1.17-45.4 0 0 0-1.52q-.93-1.1-.68-2.6a2.37 2.34-55 0 0-.26-1.54q-.39-.71-.39-1.36a.18.18 0 0 0-.18-.18h-.01a.1.1 0 0 0-.09.09l-.6 6.82a1.33 1.3 60.3 0 1-.11.42l-3.11 7.13a1.64 1.64 0 0 1-3.12-.37l-1.22-6.73a1.73 1.66 22.5 0 0-.32-.73q-2.89-3.68-3.34-7.64a.95.73-64.2 0 0-.04-.19l-2.03-5.94 9.24-19.18q4.97 12.05 9.67 23.64.47 1.15 2.28.01zm2.69 2.06l-4.84 7.12a1.22 1.22 0 0 0 1.72 1.68l5.1-3.67a2.77 2.77 0 0 0 .85-3.51l-.77-1.5a1.2 1.2 0 0 0-2.06-.12zm-9.88 15.88q.61-1.04 1.66-1.44.16-.07.17-.33 0-.21-.1-.36-.19-.28-.46-.16-1.62.7-1.68 2.17a.22.22 0 0 0 .41.12z" class="C"/><path d="M174.1 112.95l-2.64 1.45q-2.71-.54-4.37-1.97-5.27-4.53-7.05-5.52a2.19 2.14 86.8 0 1-.7-.64c-.85-1.24-2.2-1.33-3.08-2.64a.22.21 55.6 0 1 .05-.3l.29-.21a.13.13 0 0 1 .21.1q.05.78.87.68c1.24-.17 2.43.7 3.18 1.44a2.58 2.52-7.9 0 0 .61.45q5.38 2.86 11.15 5.56.95.44 1.48 1.6z" class="D"/><path d="M24.12 103.26q1.85 1.65 2.76 4.76l2.54 7.71a.58.58 0 0 0 1.08.04q.3-.76.75-1.28a.56.56 0 0 1 .95.15l3.01 7.44a.53.52-84.6 0 1-.77.64q-.96-.61-2.04-.6a.36.36 0 0 0-.34.48l2.57 7.63q.51 1.59-.39 3.4a.53.52 68.5 0 1-.96-.42l.3-.82a1.02 1.01 44.6 0 0-.01-.74l-3.4-8.42a.74.73-45.8 0 0-1.37.02l-.51 1.37a1.13 1.13 0 0 0 .12 1.02q1.7 2.59.97 5.18a1.86 1.84-51.1 0 0 .14 1.36q1.83 3.43.15 1.93-.54-1.05-1.91-.9-1.6.17-2.46 2.03-1.93.84-2.44 3.44a.77.77 0 0 1-1.26.43q-3.63-3.14-4.56-7.98a3.41 3.22-66.5 0 0-.34-.94q-1.26-2.26-4.26-3.38a.4.39-78.8 0 0-.53.36l-.03 1.03a1.03.47-69.4 0 0 .01.15q.23.96 1.11.73a.63.63 0 0 1 .78.5c.45 2.41-.76 4.79-1.6 7.08l-1.67-1.02q1.32-1.98 1.98-3.68a2.45 2.27 15.3 0 0-1.93-3.1q-.49-.09-1.03-.89a.51.51 0 0 0-.73-.12l-.88.67q1.14-3.89-2.29-4.21 4.85-4.63 10.1-.96-.03 3.64 2.82 7.62a2.12 2.12 0 0 1 .39 1.09q.12 1.62 1.23 2.81a.93.93 0 0 0 1.57-.36l1.68-5.56a1.08 1.07-47.2 0 0-.02-.67l-4.62-13.66q1.13-.57 2-.76a1.4 1.39 68.5 0 0 .9-2.08c-1.13-1.92 1.46-6.5 2.44-8.52z" class="B"/><path d="M149.99 107.17q-.84-.14-.75-.88 1.02-1.15.69-2.46a.27.27 0 0 1 .41-.29q5.59 3.4 9.86 7.69a.46.46 0 0 1-.53.74l-9.68-4.8z" class="D"/><path d="M50.26 112.27l-.13 2.96a1.66 1.63 65.2 0 1-.33.93q-.71.94-.99 2.37a.32.32 0 0 0 .45.35q.64-.31 1.66-.33a.7.7 0 0 1 .68.49l2.31 7.02a.78.65-58.3 0 1 .03.21q.08 2.93-.51 4.13-4.23 8.71-5.18 10.33a2.9 2.82 65 0 0-.37 1.06c-.35 2.63-2.4 4.31-2.93 6.94q-.1.51-1.07 1.9-1.62 2.31-1.98 4.49a.65.64 4.5 0 0 .64.74h.59a1.24 1.21-22.8 0 1 .84.33q1.39 1.26 2.85.78 1.44 5.67 3.31 11.73.64 2.09 1.94 3.35a.25.25 0 0 0 .4-.07l11.39-23.82a.86.86 0 0 1 1.63.22q.45 2.48 1.56 4.56.43.82 2.04.18l-2.2 1.76a.92.91-30.8 0 0-.27 1.06l2.87 7.1a2.77 2.73-42.5 0 1-.12 2.32q-4.32 8.26-6.12 12.43-1.26 2.91-3.83 7.3-1.79 3.06-3.29 7.64a5.16 4.99 72 0 1-.61 1.25q-1.63 2.38-2.35 5.94a1.46 1.46 0 0 1-2.62.57l-.72-1a.57.57 0 0 0-.99.11q-.12.29-.14.74-.35-1.99-1.71-3.1a.52.52 0 0 0-.84.4v3.65a1.6 1.57 57.3 0 1-.13.63q-1.48 3.39-1.5 7.07-1.7 2.98-3.4 6.64-.71 1.53-3.27 2.47 1.69-5.97-.66-8.17l7.56-15.7a2.21 2.06-10.3 0 1 .5-.67q1.51-1.34 2.67-.34 2.22.55 3.24 1.85a.3.3 0 0 0 .54-.23q-.21-1.47-1.36-2.03.62-3.59-1.52-6.4a.49.49 0 0 0-.85.13l-.59 1.59a.95.93-79.6 0 1-.88.62l-2.21.01 4.55-14.3q.12-.72.01-1.42c-.69-3.87-3.51-7.24-5.4-10.47q-2.53-4.34-5.01-7.12-5.61-6.28-12.2-11.42-2.87-2.24-6.8-4.06-3.63-1.67-7.26-3.31c.84-2.29 2.05-4.67 1.6-7.08a.63.63 0 0 0-.78-.5q-.88.23-1.11-.73a1.03.47-69.4 0 1-.01-.15l.03-1.03a.4.39-78.8 0 1 .53-.36q3 1.12 4.26 3.38a3.41 3.22-66.5 0 1 .34.94q.93 4.84 4.56 7.98a.77.77 0 0 0 1.26-.43q.51-2.6 2.44-3.44 2.34 2.43 4.37-1.13 1.68 1.5-.15-1.93a1.86 1.84-51.1 0 1-.14-1.36q.73-2.59-.97-5.18a1.13 1.13 0 0 1-.12-1.02l.51-1.37a.74.73-45.8 0 1 1.37-.02l3.4 8.42a1.02 1.01 44.6 0 1 .01.74l-.3.82a.53.52 68.5 0 0 .96.42q.9-1.81.39-3.4 3.95-4.94 6.19-10.6c1.55-3.93 3.57-6.98 4.81-9.73a2.63 2.53-28 0 0 .19-.58l.41-2.17a.6.6 0 0 1 1.11-.18l2.92 5.3z" class="F"/><path d="M46.82 156.97q-1.46.48-2.85-.78a1.24 1.21-22.8 0 0-.84-.33h-.59a.65.64 4.5 0 1-.64-.74q.36-2.18 1.98-4.49.97-1.39 1.07-1.9c.53-2.63 2.58-4.31 2.93-6.94a2.9 2.82 65 0 1 .37-1.06q.95-1.62 5.18-10.33.59-1.2.51-4.13a.78.65-58.3 0 0-.03-.21l-2.31-7.02a.7.7 0 0 0-.68-.49q-1.02.02-1.66.33a.32.32 0 0 1-.45-.35q.28-1.43.99-2.37a1.66 1.63 65.2 0 0 .33-.93l.13-2.96q1.8-2.3 1.85-4.32a.81.81 0 0 1 1.55-.31l3.17 7.2a.84.82 41.3 0 1 .04.53q-.27 1-.94 1.65a1.14 1.14 0 0 0 .58 1.93l1.23.24a.4.38-5.3 0 1 .29.23l2.64 6.53a3.61 3.57 47.3 0 1-.1 2.9l-13.75 28.12zm6.41-45.34q-.25.6-.25 1.37 0 .82.93.41.28-.12.26-1.27a.63.45 64 0 0-.94-.51z" class="B"/><path d="M211.23 148.15q.88 1.35 2.12 2l-3.53 6.91q-.75-.69-1.28-.38-2.93-1.27-5.86-1.84-4.82-.95-5.94-1.42c-3.55-1.49-7.03-3.45-10.57-4.92q-17.31-7.17-30.69-15.93-3.52-2.3-6.74-4-9.76-5.15-23.12-16.56-1.28-1.1-2.01-2.05a1.17 1.16-29.8 0 1 .49-1.79l.33-.13a1.24 1.23-26.3 0 1 1.53.51q1.28 2.18 3.09 2.44.95.14 6.58.7a3.58 3.56 60.4 0 1 1.22.34q2.33 1.1 4.04 1.08a1.13 1.13 0 0 1 .82.33l.73.76a.75.74 77.4 0 0 .31.2l5.54 2.06a1.75 1.69-6.2 0 1 .8.62c1.22 1.78 3.31 1.78 5.24 2.66q7.88 3.61 9.44 4.74 4.46 3.25 6.66 3.65a11.65 7.84 14.3 0 0 1.62.22q3.44.3 7.74 2.2a7.22 7.18 60.8 0 0 1.85.53q5.2.71 9.61 3.97 3.9 2.88 8.19 5.78 3.94 2.65 6.92 5.84a1.91 1.78-44.4 0 0 2.67-.07q.12-.12.2-.15a.54.53 72.1 0 1 .69.36q.3 1.01 1.31 1.34z" class="D"/><path d="M53.23 111.63a.63.45 64 0 1 .94.51q.02 1.15-.26 1.27-.93.41-.93-.41 0-.77.25-1.37z" class="C"/><path d="M175.72 112.71l.81.48q-.7 1.56-2.98 2.81-1.33.04-2.06-.51-.55-.42-.03-1.09l2.64-1.45q.72-.49 1.62-.24z" class="B"/><path d="M177.08 119.63l-3.53-3.63q2.28-1.25 2.98-2.81l24.41 13.15a.38.38 0 0 1-.31.69l-10.37-3.85a1.15.98-31.1 0 0-.36-.06q-.67.01-.8-.02-3.19-.74-7.24-3.04a1.2 1.16 53.2 0 0-.82-.13q-.98.21-1.9-.22a1.68 1.67-34.4 0 0-.82-.15l-1.24.07z" class="D"/><path d="M18.78 114.62l4.62 13.66a1.08 1.07-47.2 0 1 .02.67l-1.68 5.56a.93.93 0 0 1-1.57.36q-1.11-1.19-1.23-2.81a2.12 2.12 0 0 0-.39-1.09q-2.85-3.98-2.82-7.62.94-2.73.21-6.3 1.49.21 2.84-2.43z" class="F"/><path d="M128.51 118.59q.86.66 1.4.68a1.09.42-4.2 0 1 .78.24q2.46 2.95 5.81 4.91.05.2.07.36a.5.49-1.4 0 1-.53.55q-.94-.06-1.31.15-5.07 2.8-5.63 3.09a1.88 1.84 30.4 0 1-.88.22q-1.86.01-2.78-1.48-1.76-2.83-.92-4.83.33-.78.78-2.94a1.25 1.22 14.8 0 1 1.59-.9q.86.28 1.62-.05z" class="E"/><path d="M109.42 143.55q-5.06 1.76-3.66 7.01 2.17.17 2.85 1.95l4.12.81a.8.79-83 0 1 .64.83l-.74 10.9a2.18 2.14-54.3 0 0 .15.98q.25.66.69 1.27.4.55.31 1.05-.09.51-.71.8-2.37-1.92-3.77.2-.52-.49-.78-1.06a1.02 1.02 0 0 1 .07-.94c.9-1.49.23-3.08-1.51-3.52q-.24-.06-2.05-.38a.9.89 16.6 0 1-.67-1.23l1.76-4.22a.63.54-40.6 0 0 .04-.26l-.17-2.11a.09.08-18.9 0 1 .05-.09q.1-.06.24-.12 1.15.66 1.98.44 1.23-.32.56-1.52-.52-.92-1.57-1.77a1.13 1.12 57.5 0 0-.99-.22c-1.4.35-9.82.57-12.01-1.57a1.9 1.84-79.6 0 1-.44-.66q-2.83-7.12-3.75-10.49-.53-1.92 1.11-3.91a1.68 1.53-15.7 0 0 .2-.32l5.02-10.32.37-2.46q.7-.1 1.8-2.04l2.03 5.94a.95.73-64.2 0 1 .04.19q.45 3.96 3.34 7.64a1.73 1.66 22.5 0 1 .32.73l1.22 6.73a1.64 1.64 0 0 0 3.12.37l3.11-7.13a1.33 1.3 60.3 0 0 .11-.42l.6-6.82a.1.1 0 0 1 .09-.09h.01a.18.18 0 0 1 .18.18q0 .65.39 1.36a2.37 2.34-55 0 1 .26 1.54q-.25 1.5.68 2.6a1.19 1.17-45.4 0 1 0 1.52q-3.28 3.96-4.64 8.63zm-5.295 5.682a1.37 1.02-19.1 0 0-1.628-.516 1.37 1.02-19.1 0 0-.961 1.412 1.37 1.02-19.1 0 0 1.628.516 1.37 1.02-19.1 0 0 .961-1.412z" class="B"/><path d="M96.76 122.62l-.37 2.46q.15-1.66-1.13-1.71-5.26-.22-10.7-.68a.18.17-82.8 0 1-.16-.21l.1-.52a.3.29-82.3 0 1 .31-.24l11.95.9zm-91.13 1.69q3.43.32 2.29 4.21l-.42 5.56q-6.08-3.74-1.87-9.77zm186.17 2.28q.03.14.06.28a.29.28 7.6 0 0 .14.18q7.24 3.62 15.26 5.7.97.83 2.64 1.18l-.76 3.52a1.28 1.27-66.1 0 1-1.99.77q-2.06-1.48-5.09-2.33a.51.51 0 0 0-.44.91l4.33 3.19a.98.98 0 0 1 .02 1.57l-.02.02a1.14 1.14 0 0 1-1.54 0q-4.01-3.74-7.98-7.8-.78-.79-4.43-3.38-2.89-2.04-4.43-4.89l4.23 1.08z" class="D"/><path d="M122.44 127.11a1.2 1.2 0 0 1 2.06.12l.77 1.5a2.77 2.77 0 0 1-.85 3.51l-5.1 3.67a1.22 1.22 0 0 1-1.72-1.68l4.84-7.12zm16.81-.71q.7.34.53.07 1.03 1.58-.27 2.27c-1.97 1.05-3.64 2.64-6.33 1.54a.5.49 26.8 0 1-.24-.71c1.56-2.58 3.89-2.32 6.31-3.17z" class="E"/><path d="M207.26 132.75q-8.02-2.08-15.26-5.7a.29.28 7.6 0 1-.14-.18q-.03-.14-.06-.28 8.17 2.09 15.46 6.16z" class="C"/><path d="M10.51 135.64l-3.01-1.56.42-5.56.88-.67a.51.51 0 0 1 .73.12q.54.8 1.03.89a2.45 2.27 15.3 0 1 1.93 3.1q-.66 1.7-1.98 3.68z" class="F"/><path d="M145.62 130.43q18.94 11.82 27.95 15.5 5.31 2.17 7.51 3.39-1.35 2.02-6.84.28l-5.77-3.22a.36.36 0 0 0-.53.31q-.01.78.54 1.71.51 2.06-2.55.33-1.58-1.26-.78-2.9.46-.94.07-.99-1.13-1.42-2.41-1.62l-2.82-1.25-8.88-4.86q-1.56-2.82-5.33-3.35-1.94-1.78-.16-3.33z" class="E"/><path d="M29.67 134.11q-2.03 3.56-4.37 1.13.86-1.86 2.46-2.03 1.37-.15 1.91.9zm116.11-.35q3.77.53 5.33 3.35 3 4.09 8.11 5.92a.51.51 0 0 0 .68-.4l.09-.66 2.82 1.25q-.96.64.86 2.52a.99.99 0 0 0 1.64-.34q.08-.21-.09-.56.39.05-.07.99-.8 1.64.78 2.9-2.4-.11-4.43-1.97a1.15.96-5 0 0-.2-.14l-7.59-3.57q-.56-.57-1.07-.67a.57.57 0 0 0-.67.5q-.25 1.99.85 1.39.87-.03 1.39.51a.7.7 0 0 1-.02.98l-1.03 1.04a.84.83-53.1 0 0 .18 1.32l10.54 5.79a1.06 1.06 0 0 1 .02 1.85l-8.48 4.9a1.22 1.21-48.4 0 1-1.09.07l-2.66-1.13a.81.81 0 0 0-.72.04q-.1.06-.28.18-.39.24-.68-.41-.26-.6-.26-1.4l-.52-11.45a.46.45-85.9 0 0-.36-.42l-.56-.11a.54.54 0 0 0-.63.56c.2 3.57-.7 7.18-.21 10.53.31 2.04.87 6.35-.4 8.09a.43.43 0 0 0 .16.64l4.73 2.35a.37.37 0 0 0 .52-.26l.32-1.67a.93.93 0 0 0-.44-.97q-1.24-.74-2.65-1.74-1.85-1.32-.51-2.65l4.17 2.84a1.04 1.03-42 0 0 1.1.05l10.88-6.29a1.95 1.95 0 0 1 2.89 1.31l1.48 7.42q-1.53 2.57-1.5 4.92-.52-.45-1.18-.21-.63.22-.94.86-.55 1.12-1.96.8a1.39 1.38-56.3 0 0-1.12.23l-.44.33q-1.46.48-1.45 1.12.13-1.09-3.59-.02-2.78.14-4.36-1.03a1.99 1.96-26 0 0-1.15-.39h-.68a.97.95 68.8 0 1-.72-.33q-2.06-2.32-4.13-2.6a3.47 3.46 68.3 0 1-1.73-.75q-1.97-1.63-3.89-3.28-.56-.49-1.89-.2l.54-.06a.44.44 0 0 0 .26-.74q-1.28-1.34-2.62-1.94a.44.43-53.1 0 1-.1-.73q.54-.46.61-.97a1.78 1.27 45 0 0-.14-.84l-1.06-2.45.41-6.07a.78.77-83 0 0-.63-.82q-1.73-.32-2.83-1.65a.53.53 0 0 1 .7-.78q2.46 1.63 4.36-.74l4.01-.6q5.34-1.13 1.77-7.24a1.09 1.07-8.6 0 0-.72-.52l-3.77-.81q.97-2.02 2.49-3.55.45.94 1.12 1.59a.38.38 0 0 0 .61-.11q1.35-2.8-1.66-3.01l3.46.11zm.361 6.31a1.44.89-164.7 0 0 1.154 1.239 1.44.89-164.7 0 0 1.624-.478 1.44.89-164.7 0 0-1.154-1.239 1.44.89-164.7 0 0-1.624.478z" class="D"/><path d="M129.63 139.59q-3.41.46 1.13 5.99a.48.48 0 0 1-.26.77q-.4.09-1.07 0a.32.32 0 0 0-.3.51q.16.2.64.52a2.05 1.89 29 0 1 .79 2.4q-.99 2.29-2.49 4.36a.96.96 0 0 1-.76.4l-4.01.07q-.18.02-.38.01a.92.9 76.8 0 1-.7-.44q-1.85-3.03-3.68-4.98-1.68-1.81-3.34-.57l-3.75.39q-.83-.25-.62-.93.59-1.96 2.95-2.8 2.51-.89 5.15-3.56a3.75 3.18-79.4 0 1 .58-.47q7.6-4.86 13.67-7.31.56-.22 1.49-.14a.6.6 0 0 1 .34 1.05l-5.38 4.73z" class="E"/><path d="M142.32 133.65q3.01.21 1.66 3.01a.38.38 0 0 1-.61.11q-.67-.65-1.12-1.59-.81-.58.07-1.53z" class="B"/><path d="M214.29 135.62q-1.24 1.52-.93 3.78a.79.79 0 0 1-.48.83l-4.07 1.65a.5.5 0 0 1-.68-.5c.08-1.47 2.24-2.69 3.27-3.48a.73.72-36.6 0 0 .15-1q-.7-.97-.42-2.44 1.48 1.14 3.16 1.16z" class="C"/><path d="M139.45 138.73l-3.63 5.58-2.66 2.93a1.88 1.88 0 0 0-.42.76q-.99 3.4-2.93 5.95-1.41 1.86-3.84 2.26-1.18.2-2.25 1.17a.94.94 0 0 0-.21 1.12l1.75 3.54q-2.16 7.3 5.47 9.42l.28.36a.5.5 0 0 1-.41.81l-2.93-.1a.05.05 0 0 1-.05-.05q0-.02 0-.04a.12.07-74.9 0 1 .13-.12q.15.17.24.16a.37.37 0 0 0 .13-.71q-.29-.13-.67-.11a.94.92 69.2 0 1-.82-.38l-4.45-6q.82-3.53.93-6.03.05-.96-.13-1.91-.48-2.61.32-2.73l4.01-.07a.96.96 0 0 0 .76-.4q1.5-2.07 2.49-4.36a2.05 1.89 29 0 0-.79-2.4q-.48-.32-.64-.52a.32.32 0 0 1 .3-.51q.67.09 1.07 0a.48.48 0 0 0 .26-.77q-4.54-5.53-1.13-5.99 1.18 2.55 2.98 4.14a.99.98 37.2 0 0 1.48-.2l3.78-5.89a1.26 1.25 32.9 0 1 1.74-.37q.27.2-.16 1.46zm11.66-1.62l8.88 4.86-.09.66a.51.51 0 0 1-.68.4q-5.11-1.83-8.11-5.92z" class="B"/><path d="M226.14 140.08q-1.35 1.12-2.05.89l-.06-1.94a.51.51 0 0 1 .55-.53q1.23.07 1.56 1.58z" class="C"/><path d="M139.76 138.73l3.77.81a1.09 1.07-8.6 0 1 .72.52q3.57 6.11-1.77 7.24-2.81-.45-4.76-1.64-1.09-.43-1.9-1.35l3.63-5.58q.16 0 .31 0z" class="E"/><ellipse cx="0" cy="0" transform="matrix(-.964557 -.263873 .263873 -.964557 147.53 140.45)" rx="1.44" ry=".89" class="C"/><path d="M112.15 142.87q.06-1.47 1.68-2.17.27-.12.46.16.1.15.1.36-.01.26-.17.33-1.05.4-1.66 1.44a.22.22 0 0 1-.41-.12z" class="F"/><path d="M153.71 143.05q.58.84-.89 1.22-1.1.6-.85-1.39a.57.57 0 0 1 .67-.5q.51.1 1.07.67z" class="B"/><path d="M165.93 148.73q3.06 1.73 2.55-.33 3.16 2.12 5.76 1.2 5.49 1.74 6.84-.28l4.32 2.24a3.13 3 64.6 0 0 .71.27c2.81.69 5.05 2.2 7.38 2.5q1.39.18 8.25 2.21 3.56 1.06 6.8.14.53-.31 1.28.38-9.15 10.26-15.26 21.75-5.72 10.75-13.33 26.49-.98 1.22-.43 3.19-.11 1.3-.8 2.25c-3.33-.37-5.73 3.9-6.66 6.37a1.19 1.19 0 0 1-2.28-.21l-.02-.11a1.01.97-29.6 0 1 .25-.85q1.3-1.42 1.6-3.03a.74.73-16.6 0 0-1.23-.66q-1.97 1.86-5.76 1.28.08-7.42.51-15.06c.05-.96-.28-1.6-.37-2.33a.64.64 0 0 1 .64-.72h10.51a.48.48 0 0 0 .48-.48v-.4a.43.43 0 0 0-.44-.43c-2.28.02-3.47-.8-5.62-.25q-2.14.55-5.13.04-1.38-.23-2.49-3.19.21-.59.06-1.36a.56.55 81.4 0 0-.6-.45c-1.6.14-5.31.06-4.71-2.41q.07-.39.25-.5-.36 1.09 0 1.5a1.01 1.01 0 0 0 1.67-.22q1.5-3.08 1.22-6.97.62-2.72 1.76-6.16.23-.67-.42-.95-.24-.1-.66-.02l.44-.33a1.39 1.38-56.3 0 1 1.12-.23q1.41.32 1.96-.8.31-.64.94-.86.66-.24 1.18.21.91 2.58.45 5.4a.56.56 0 0 0 .45.64q1.22.2 1.94-.45a1.04 1.02-26 0 0 .33-.93l-1.67-9.58-1.48-7.42a1.95 1.95 0 0 0-2.89-1.31l-10.88 6.29a1.04 1.03-42 0 1-1.1-.05l-4.17-2.84.55-2.9q0 .8.26 1.4.29.65.68.41.18-.12.28-.18a.81.81 0 0 1 .72-.04l2.66 1.13a1.22 1.21-48.4 0 0 1.09-.07l8.48-4.9a1.06 1.06 0 0 0-.02-1.85l-10.54-5.79a.84.83-53.1 0 1-.18-1.32l1.03-1.04a.7.7 0 0 0 .02-.98q-.52-.54-1.39-.51 1.47-.38.89-1.22l7.59 3.57a1.15.96-5 0 1 .2.14q2.03 1.86 4.43 1.97zm-1.67 1.07l-1.33-.11a1.63 1.61 72 0 1-1.08-.56q-1.58-1.87-4.08-2.28a.65.65 0 0 0-.72.85q.53 1.53 2.2 1.51a.7.7 0 0 1 .69.57q.15.73 2.72 1.96a.23.22 6.2 0 0 .32-.25q-.15-.63.05-1.11a.46.46 0 0 1 .63-.23q1.57.77.98-.12a.5.49-13.3 0 0-.38-.23z" class="C"/><path d="M162.81 143.22q1.28.2 2.41 1.62.17.35.09.56a.99.99 0 0 1-1.64.34q-1.82-1.88-.86-2.52z" class="F"/><path d="M109.42 143.55l-.07 2.34a1.94 1.92 60.9 0 1-.26.93q-1.32 2.28-3.33 3.74-1.4-5.25 3.66-7.01z" class="D"/><path d="M137.72 145.66q-2.12.69.75 2.24-1.9 2.37-4.36.74a.53.53 0 0 0-.7.78q1.1 1.33 2.83 1.65a.78.77-83 0 1 .63.82l-.41 6.07q-2.31-.53-2.62 1.15a.8.8 0 0 0 .34.8q1.86 1.23.51 2.97-.42.54-.65.88a.43.42 25 0 0 .24.65l4.69 1.28q1.33-.29 1.89.2 1.92 1.65 3.89 3.28a3.47 3.46 68.3 0 0 1.73.75q2.07.28 4.13 2.6a.97.95 68.8 0 0 .72.33h.68a1.99 1.96-26 0 1 1.15.39q1.58 1.17 4.36 1.03-1.46-.06-2.77-.06-.8 0-.97 1.35-.87.27-1.86 1.89a.21.21 0 0 0 .11.32q.22.07.26.16a.41.41 0 0 1-.12.49q-2.05 1.68-.75 4.17-1.95 1.31 2.49 2.19a2.19 2.17 76.7 0 1 1.3.81q1.03 1.35 2.38 1.1.61.42 1.15-.2c-.6 2.47 3.11 2.55 4.71 2.41a.56.55 81.4 0 1 .6.45q.15.77-.06 1.36-1.04 1.56-.75 2.79 1.94 8.03 1.46 17.76-.05 1.04.31 1.82a.42.42 0 0 1-.61.52l-10.45-7.11a.48.48 0 0 0-.75.35q-.15 1.73-2.24 1.58a.57.57 0 0 0-.61.51q-.06.48.41.84-.96.06-1.81 1.75.15-1.55-.77-2c-1.34-.65-2.84.71-4.65-.6a.58.58 0 0 0-.92.53c.18 1.59-.72 2.17-.72 3.63q.01 1.21.92 1.15-1.66 3.6 1 4.94a1.77 1.76 21 0 1 .91 2.04q-1.06 3.88-1.18 4.21-.87 2.45-3.4.81a.84.83-73.6 0 0-1.29.71v.75a1.39 1.38-81.9 0 0 .99 1.33q4.22 1.24 8.96.42-1.59 1.01-3.39 1.28a1.07 1.06-22.1 0 0-.71 1.67l2.28 3.16a.49.49 0 0 1-.17.72q-2.61 1.43-3.39 1.63a.43.43 0 0 1-.34-.79q.6-.37.91-1.09a1.21 1.19 44.4 0 0-.02-1.02l-2.24-4.58a.73.73 0 0 0-.77-.41q-1.16.17-2.08.79a1.44 1.44 0 0 1-1.42.11q-5.23-2.44-10.06-5.84-1.4-.98-1.53.41-.6-1.04-1.37-1.11-2.22-.21-3.76-1.49c-1.36-1.13-.67-2.76-.94-4.38q.91.86 2.31.85a.71.71 0 0 0 .44-1.27q-1.45-1.16-3.73-1.62a.48.44-87.5 0 0-.52.52q.03.48.5.89l-1.82.86q-1.73-1.78-3.23-2.73-4.36-2.78-10.78-5.84a1.12 1.09 84.5 0 1-.4-.34l-5.54-7.7a1.04.96-72.5 0 1-.17-.36l-5.22-19.61a.5.5 0 0 0-.8-.26q-.98.81-2.05.37a.92.86-43 0 1 .12-1.65q.57-.22 1.33-.26a.56.56 0 0 0 .52-.56q-.02-3.58-3.23-3.44a.47.47 0 0 1-.49-.52l.01-.05a.56.55 9.5 0 1 .67-.47q1.55.35 1.82-.82.15-.66.56-1.32 1.62-2.67 4.33-4.97l-2.69 6.86a1.86 1.86 0 0 0 .26 1.81c1.93 2.49 2.56 4.32 2.94 7.84q.65 6.02 1.09 7.03 3.36 7.8 3.75 9.29.06.23.48 2.26a.43.43 0 0 0 .61.3l.55-.26a.76.75-21 0 0 .4-.87l-1.03-3.88a1.28 1.27 71.6 0 1 .75-1.51q2.33-.93 4.54.19l-3.49.35a.58.58 0 0 0-.5.73l.85 3.2a1.27 1.27 0 0 0 2.14.56q2.91-3.03 2.63-5.49 1.1-1.06 4.26-1.3l-4.8 5.8a.46.46 0 0 0 .35.76h4.1a1.47 1.47 0 0 1 1.38 1.98l-1.74 4.69a.51.5 86.8 0 0 .7.63q1.69-.87 2.5-2.99l1.72 4.6a1.09 1.08 57.3 0 1-.25 1.17l-.34.35a.71.7 9.5 0 0 .81 1.13l1.25-.61a.96.94-43.1 0 1 .88.02l8.65 4.75a1.72 1.66 87 0 1 .59.55q.61.94 1.62 1.47c1.71.91 2.81 3.69 5.55 2.47q.5-.23 3.05-.84a2.46 2.4 18 0 0 .95-.47q1.52-1.25 2.09-1.99a2.45 1.94-53.2 0 0-.09-3.16q-.69-.5-2.13-.94a.67.66 22.9 0 0-.78.31l-3.24 5.9a.63.62-61.4 0 1-.84.25l-.33-.19a.65.64-63 0 1-.27-.84l1.13-2.41a.96.92-32.6 0 0 .1-.42q.07-4.19.9-6.78.1-.29-.09-.93a.66.66 0 0 0-1.29.18q-.01.98-.24 1.41a.79.79 0 0 1-.79.42q-3.22-.32-4.09 3.3a.1.06-13.3 0 1-.05.05l-.26.13a.4.4 0 0 1-.55-.5l1.12-3.01a.63.63 0 0 0-.96-.73l-2.79 2.01a.22.22 0 0 1-.34-.21q.48-3.08 2.2-5.39a.37.37 0 0 0-.17-.57l-.4-.16a.46.45-62.6 0 0-.52.17l-3.49 5.14a.44.44 0 0 1-.78-.4l1.63-4.38a.59.59 0 0 0-.95-.65q-.69.6-2.63 2.95a.39.39 0 0 1-.66-.08l-.13-.27a1.54 1.54 0 0 1 .04-1.44q.59-1.06.64-2.25a.49.48-9.3 0 0-.66-.47q-.03.01-.5.09a.57.57 0 0 1-.65-.67l1.18-6.13a1.13 1.13 0 0 0-.77-1.3q-1.37-.41-1.81.4.66-2.01-3.97-2.12 1.41-1.42 3.13-2.23a1.05 1.03 82.5 0 0 .59-.78l.54-3.38q4.27 4.29 6.69 5.6 13.92 7.58 16.43 8.88a1.82 1.77 55.9 0 0 .97.2q1.77-.14 2.85.51a1.82 1.81 55.7 0 0 1.2.23q2.97-.44 3.95 2.81a.23.23 0 0 0 .45-.03q.27-1.37-.28-3.03 2.67-.56 2.41-4.88-.22-3.62-1.98-6.39.52-1.04 1.63-3.09.55-1-.44-3.04a1.09 1.07 86.8 0 0-.59-.54l-4.83-1.79a1.3 1.3 0 0 0-1.37.3l-3.9 3.9a.39.38-27.6 0 0-.11.33q.06.36.05.41a1.21 1.18-16 0 1-.42.73l-1.92 1.6a.72.72 0 0 0-.18.89l.25.48-.06.5q-.14.03-.25-.01a.19.19 0 0 0-.25.2q.13.86-.05 1.83a.83.82 4.3 0 1-.79.67c-2.62.08-3.18-.48-4.79-2.76q-1.18-1.66-.44-2.39a.44.43-52.7 0 0-.09-.69l-.79-.43a1.51 1.48 2.4 0 1-.6-.64l-2.48-5.07a.77.76 31.3 0 0-1.45.35q.01.52-.29 1.06a.88.88 0 0 1-.95.44q-1.28-.25-1.83-1.72l.77-1.47q.92-2.17-.09-4.54a.7.69 65.2 0 0-.95-.35l-.53.26a.78.78 0 0 1-1.12-.69q-.03-1.9.44-3.3.29-.85.68-.92.42-.08 1.12-.11a.3.3 0 0 0 .17-.54c-.73-.53-2.08-.4-2.61.6a.44.44 0 0 1-.66.13q-2.75-2.26-.72-6.09.33.52 1.4.54a1.56 1.52-62.5 0 0 .91-.3q1.15-.83.61-2.06l4.45 6a.94.92 69.2 0 0 .82.38q.38-.02.67.11a.37.37 0 0 1-.13.71q-.09.01-.24-.16a.12.07-74.9 0 0-.13.12q0 .02 0 .04a.05.05 0 0 0 .05.05l2.93.1a.5.5 0 0 0 .41-.81l-.28-.36q1.17-.18.72-1.17-1.9-4.23-3.3-8.67a1.16 1.16 0 0 0-1.89-.5l-1 .92-1.75-3.54a.94.94 0 0 1 .21-1.12q1.07-.97 2.25-1.17 2.43-.4 3.84-2.26 1.94-2.55 2.93-5.95a1.88 1.88 0 0 1 .42-.76l2.66-2.93q.81.92 1.9 1.35zm8.5 27.3q.12.94-.33 1.75a1.63 1.63 0 0 1-1.17.81q-.89.14-1.63.63a.86.85 46.8 0 0-.04 1.39q1.13.87 2.41.59a1.35 1.32 13 0 0 .74-.45l1.87-2.28a.37.37 0 0 0-.27-.61q-1.86-.11-1.7-1.83a.06.06 0 0 1 .12 0zm-22.6 3.46a.49.49 0 0 0 .93.19l.99-2.07a.22.21 13.8 0 1 .21-.12q1.02.07.93-.7a1.98.86-73.2 0 1-.01-.23l.01-.22a.68.67 68.4 0 0-1.14-.5q-1.99 1.95-1.92 3.65zm16.14 3.22a.29.29 0 0 0-.4.41l1.22 1.7a.98.98 0 0 1-1.26 1.43l-4.25-2.33a.76.76 0 0 0-.86 1.24q2.06 1.8 1.56 3.48a1.19 1.19 0 0 0 1.83 1.31l5.35-3.86a1.26 1.26 0 0 0-.46-2.25q-1.58-.35-2.73-1.13zm1.535 30.911a1 1 0 0 0-.421-1.35l-1.665-.874a1 1 0 0 0-1.35.421l-.074.142a1 1 0 0 0 .421 1.35l1.665.874a1 1 0 0 0 1.35-.421l.074-.142z" class="C"/><path d="M137.72 145.66q1.95 1.19 4.76 1.64l-4.01.6q-2.87-1.55-.75-2.24zm12.01 12.35l-.55 2.9q-1.34 1.33.51 2.65 1.41 1 2.65 1.74a.93.93 0 0 1 .44.97l-.32 1.67a.37.37 0 0 1-.52.26l-4.73-2.35a.43.43 0 0 1-.16-.64c1.27-1.74.71-6.05.4-8.09-.49-3.35.41-6.96.21-10.53a.54.54 0 0 1 .63-.56l.56.11a.46.45-85.9 0 1 .36.42l.52 11.45zm24.51-8.41q-2.6.92-5.76-1.2-.55-.93-.54-1.71a.36.36 0 0 1 .53-.31l5.77 3.22z" class="B"/><path d="M164.64 150.03q.59.89-.98.12a.46.46 0 0 0-.63.23q-.2.48-.05 1.11a.23.22 6.2 0 1-.32.25q-2.57-1.23-2.72-1.96a.7.7 0 0 0-.69-.57q-1.67.02-2.2-1.51a.65.65 0 0 1 .72-.85q2.5.41 4.08 2.28a1.63 1.61 72 0 0 1.08.56l1.33.11a.5.49-13.3 0 1 .38.23z" class="F"/><path d="M123.3 154.61q-.8.12-.32 2.73.18.95.13 1.91-.11 2.5-.93 6.03.54 1.23-.61 2.06a1.56 1.52-62.5 0 1-.91.3q-1.07-.02-1.4-.54-.53-.66-.81-.75a.49.48-77.1 0 0-.63.4c-.32 2.34-.26 5.07.62 7.4q.39 1.04.79 2.83a4.52 4.51-72.4 0 0 1.04 2.01l3.26 3.66-.77 1.47q-1.4-.2-2.2-.82a1.17 1.17 0 0 1-.42-.67l-.47-2.01q-.98-.31-1.71.2a1.43 1.41 74.5 0 1-2.22-1.27q.08-1.47-.66-2.67a1.37 1.33 32.8 0 1-.2-.86c.1-.83.84-3 .7-3.34q-.25-.62-.94-.55a1 .99 65.4 0 1-.8-.3q-1.28-1.32-.77-2.68.62-.29.71-.8.09-.5-.31-1.05-.44-.61-.69-1.27a2.18 2.14-54.3 0 1-.15-.98l.74-10.9a.8.79-83 0 0-.64-.83l-4.12-.81q.59-2.48 1.64-2.51 1.7 3.43 4.95-1.37 1.66-1.24 3.34.57 1.83 1.95 3.68 4.98a.92.9 76.8 0 0 .7.44q.2.01.38-.01zm-6.952-1.597a.26.26 0 0 0-.25-.27l-.4-.015a.26.26 0 0 0-.27.25l-.517 13.45a.26.26 0 0 0 .25.27l.4.015a.26.26 0 0 0 .27-.25l.517-13.45z" class="D"/><ellipse cx="0" cy="0" transform="matrix(.944949 -.327218 .327218 .944949 102.83 149.68)" rx="1.37" ry="1.02" class="C"/><g class="B"><path d="M115.2 148.63q-3.25 4.8-4.95 1.37 1-.65 1.2-.98l3.75-.39zm-43.94.22l1.11 2.77a1.07 1.06 75.2 0 0 1.13.66c5.98-.83 11.37-.08 17.16.11a7.28 7.22-32.5 0 1 2.48.54q2.19.91 3.37 1.08 1.93.27 8.66.55l-9.11 16.73q-.38-1.47.51-2.82a1.01 1.01 0 0 0-1.17-1.51q-1.16.4-.97 1.24-2.71 2.3-4.33 4.97-.41.66-.56 1.32-.27 1.17-1.82.82a.56.55 9.5 0 0-.67.47l-.01.05a.47.47 0 0 0 .49.52q3.21-.14 3.23 3.44a.56.56 0 0 1-.52.56q-.76.04-1.33.26a.92.86-43 0 0-.12 1.65q1.07.44 2.05-.37a.5.5 0 0 1 .8.26l5.22 19.61a1.04.96-72.5 0 0 .17.36l5.54 7.7a1.12 1.09 84.5 0 0 .4.34q6.42 3.06 10.78 5.84 1.5.95 3.23 2.73.28.5.14.67a.75.72 42.4 0 1-1.1.03q-4.09-4.25-9.4-4.43a1.34 1.34 0 0 0-1.22.69l-6.57 11.97a.58.58 0 0 0 .23.79l20.64 11.34a.62.61-59.9 0 0 .82-.23q3.47-5.84 6-11.08.84-1.71-.65-3 .13-1.39 1.53-.41 4.83 3.4 10.06 5.84a1.44 1.44 0 0 0 1.42-.11q.92-.62 2.08-.79a.73.73 0 0 1 .77.41l2.24 4.58a1.21 1.19 44.4 0 1 .02 1.02q-.31.72-.91 1.09a.43.43 0 0 0 .34.79q.78-.2 3.39-1.63a.49.49 0 0 0 .17-.72l-2.28-3.16a1.07 1.06-22.1 0 1 .71-1.67q1.8-.27 3.39-1.28 5.81-.72 11.11-3.09l.92.26a.45.45 0 0 1 .29.63l-.21.42a1.14 1.1-89.5 0 1-.52.53l-2.77 1.34a.88.88 0 0 0-.46.57q-.06.2-.07.27a.91.89-84.3 0 1-.79.66q-2.23.2-3.55 2.1a1.53 1.51-79.4 0 1-.85.59l-1.53.41a.74.73 83.3 0 0-.55.7q-.02 1.59 1.38 2.59a1 1 0 0 1 .34 1.21l-2.02 4.55a.54.41 63.9 0 0-.04.2v1a.68.68 0 0 1-.47.65q-2.44.81-4.49.78-13.58-.22-32.78-1.08c-3.28-.15-6.81-1.14-9.72-.39a.63.62 80.4 0 0-.47.67q.18 2.03.83 2a.53.52-86.1 0 1 .54.62q-.16.78.31 1.1a1.05 1 59.8 0 1-.45 1.9q-5.96.24-9.6-.15-2.99-.32-4.83.22-.44.12-4.85.43a.41.41 0 0 1-.13-.81q2.03-.53 3.62-1.54c1.85-1.19.99-2.29 1.12-3.93q.55-7.03.61-7.57a.56.55-86.8 0 0-.55-.62h-.73a.74.73 4 0 0-.73.63l-.82 5.78a1.7 1.65 39 0 0 .1.84q.32.77.86 1.08a.74.71 59.7 0 1-.32 1.37q-1.24-.05-2.04-.88a1.18 1.18 0 0 0-1.9.26q-.88 1.62-1.76 4.12a.76.75 15.4 0 1-.85.48l-.36-.07a.74.74 0 0 1-.51-1.08q1.72-3.18 1.76-3.38a1.9 1.88 73 0 1 .5-.95q2.55-2.66 4.12-7.75a.61.61 0 0 0-.47-.79l-.94-.18a1.52 1.51 87.8 0 1-1.17-1.09l-.98-3.68a.8.79 71 0 1 .45-.93c2.29-1.03 1.74-5.68.92-7.94q-.26-.74-1.76-7.45a9.85 9.82 41.3 0 1-.2-3.05q.86-9.28-.91-19.02a1.63 1.61-37 0 1 .16-1.07q.66-1.23.31-2.52a.97.85-2.4 0 1 1.1-1.05q1.38.18 1.65-.14a1.42 1.06 29 0 0-.82-1.83q-1.3-.54-2.02-.91a1.55 1.55 0 0 1-.67-.7q-1.85-3.85-1.78-7.79a2.06 2.04-25.5 0 1 .45-1.25q2.43-3.01 1.78-7.55a.72.72 0 0 0-.9-.6l-.26.07a.72.72 0 0 0-.54.7v3.59a.18.17 73.2 0 1-.07.14l-.96.83a.23.23 0 0 1-.38-.19c.09-3.26.1-8.05-1.36-11.36a.51.51 0 0 0-.98.24q.38 5.98-.77 10.09a5.42 5.38-40.4 0 0-.17 2.03q.59 5.71 1.92 23.04.05.6-.14 1.05a.2.2 0 0 1-.36 0l-2.95-7.04a.58.48 39.3 0 1-.04-.2v-5.2a.94.77-57.9 0 0-.03-.23q-.47-1.74-1.36-2.48a1.27 1.26 19.6 0 1-.47-.98v-2.54a.46.45 67.2 0 0-.78-.32q-1.3 1.32-1.4 2.83a2.24 1.88-54 0 0 .04.58q.79 3.79-.71 6.63a.96.91-87.3 0 1-.43.41q-.65.3-.91.08a1.13 1.11 29.9 0 0-1.8.47q-1.74 5.19-3.38 8.52a2.81 2.78 50.7 0 0-.19 2l4.13 14.74a1.37.85-76.7 0 0 .08.24l3.12 7.47a4.16 4.15 1.4 0 0 2.02 2.12l6.12 2.92a1.4 1.38 6.5 0 1 .76.94q.48 2.08.76 5.53.06.76 1.52 3.84a.89.88 69.7 0 0 1.03.48l.45-.12a.72.72 0 0 1 .82 1.05l-3.98 7.25a.7.7 0 0 1-1.3-.16q-1.68-6.43-4.04-11.73-.31-.71-1.4-5-.98-3.87-3.83-4.85l-2.97-7.83a2.48 1.13 81.1 0 0-.73-1.11q-.09-.06-.2-.21a2.28 2.26-70.4 0 1-.47-1q-.49-2.39-1.83-2.83-3.04-.98-6.16.27a1.32 1.3-42.9 0 1-1.04-.03l-.38-.19a.56.55-78.7 0 0-.79.53l.06 1.45 5.95 19.27a2.29 2.25-77.6 0 0 .62.99q1.29 1.22 1.73 3.61.26 1.41-1.24 4.1-3.91 6.98-4.77 9.42-1.38 3.88-3.81 6.24l2.42-5.28a.53.53 0 0 0-.62-.73l-29.86 8.35q-4.68-11.9-6.12-19.33-1.14-5.91-1.26-10.7a3.25 3.24-16 0 1 1.6-2.88q.58-.34 3.19-1.32 6.87-2.56 13.58-5.2 2.38-.93 3.48-2.54 2.56-.94 3.27-2.47 1.7-3.66 3.4-6.64 3.72-4.07 4.18-8.65.02-.45.14-.74a.57.57 0 0 1 .99-.11l.72 1a1.46 1.46 0 0 0 2.62-.57q.72-3.56 2.35-5.94a5.16 4.99 72 0 0 .61-1.25q1.5-4.58 3.29-7.64 2.57-4.39 3.83-7.3 1.8-4.17 6.12-12.43a2.77 2.73-42.5 0 0 .12-2.32l-2.87-7.1a.92.91-30.8 0 1 .27-1.06l2.2-1.76q.43-3.68 2.17-4.27zm3.21 6.33l.84 4.51a.12.12 0 0 0 .14.09h.02a2.15 1.14 79.5 0 0 .73-2.32l-.1-.51a2.15 1.14 79.5 0 0-1.51-1.91l-.02.01a.12.12 0 0 0-.1.13zm17.07 29.19a1.03 1.03 0 1 0-2.06 0 1.03 1.03 0 1 0 2.06 0zm-5.202 4.119a.77.61-161.8 0 0 .541.82.77.61-161.8 0 0 .922-.339.77.61-161.8 0 0-.541-.82.77.61-161.8 0 0-.922.339zM24.33 230.63q-.03.31.2 1.05 2.16 6.92 2.72 10.5a4.47 4.37 25.9 0 0 .56 1.56q2.31 3.9 1.27 8.27a.83.82-82.3 0 0 .77 1.02l.33-.1a1.78 1.76-6.5 0 0 1.23-1.53l1.69-19.91a1.22 1.22 0 0 0-1.44-1.31q-2.33.41-5.12-.75a1.61 1.51 14.5 0 0-2.21 1.2zm68.56 10.2a1.16 1.15-.7 0 0 1.16-1.18q-.03-1.63.76-3.11a.76.76 0 0 1 .32-.32l4.43-2.56a.9.9 0 0 0-.06-1.59q-1.07-.5-2.3-.28a1.07 1.05-27.4 0 1-.94-.29l-1-1a.34.34 0 0 0-.48 0l-.2.2a.52.51-46.8 0 0 .02.75c2.18 1.94 1.2 3.95-1.02 5.3q-1.56.95-1.76 3.37a.66.66 0 0 0 .66.71h.41zm-55.73-9.33l-2.79.2a.22.22 0 0 0-.2.24l.01.18a8.88 1.6 85.9 0 0 2.23 8.74h.04a8.88 1.6 85.9 0 0 .96-8.97l-.01-.18a.22.22 0 0 0-.24-.21zm62.41 12.92q-.35-.09-.73.03a.18.17-40 0 0-.03.32q.64.35.81.28a.34.33 40.7 0 0-.05-.63z"/><rect x="-.46" y="-6.99" transform="matrix(.999263 .038388 -.038388 .999263 115.63 159.72)" width=".92" height="13.98" rx=".26"/></g><path d="M106.28 155.42q-.14.06-.24.12a.09.08-18.9 0 0-.05.09l.17 2.11a.63.54-40.6 0 1-.04.26l-1.76 4.22a.9.89 16.6 0 0 .67 1.23q1.81.32 2.05.38c1.74.44 2.41 2.03 1.51 3.52a1.02 1.02 0 0 0-.07.94q.26.57.78 1.06l1.28 4.51a.79.79 0 0 1-.28.85l-7.01 5.34.19-9.84a1.3 1.25 62.6 0 0-2.33-.79q-.55.89-.15 2.5.85 3.44-.4 6.39-.41.96.64 2.62l-.15 1.21a.55.54-86.7 0 0 .54.61q1.43 0 2.63-1.06 3.12-2.75 6.41-4.73a.89.88-29.8 0 1 1.23.33l4.07 7.32q-2.41.88-4.73 1.83-2.12.87-4.48 2.3-3.17 1.92-6.36 3.75-2.58-2.29-1.49-6.77.6 1.84 2.57 1.02a.46.45-39.5 0 0 .08-.8q-2.44-1.65-3.83-4l-3.29-6.25a.86.84-47.3 0 1-.02-.76l1.64-3.64 9.11-16.73q.98.51 1.11.86zm-31.81-.24a.12.12 0 0 1 .1-.13l.02-.01a2.15 1.14 79.5 0 1 1.51 1.91l.1.51a2.15 1.14 79.5 0 1-.73 2.32h-.02a.12.12 0 0 1-.14-.09l-.84-4.51z" class="C"/><path d="M136.46 157.96l1.06 2.45a1.78 1.27 45 0 1 .14.84q-.07.51-.61.97a.44.43-53.1 0 0 .1.73q1.34.6 2.62 1.94a.44.44 0 0 1-.26.74l-.54.06-4.69-1.28a.43.42 25 0 1-.24-.65q.23-.34.65-.88 1.35-1.74-.51-2.97a.8.8 0 0 1-.34-.8q.31-1.68 2.62-1.15z" class="B"/><path d="M130.73 171.46q-7.63-2.12-5.47-9.42l1-.92a1.16 1.16 0 0 1 1.89.5q1.4 4.44 3.3 8.67.45.99-.72 1.17z" class="E"/><path d="M159.91 226.35l8.86-2.67a1.9 1.88 18.7 0 0 .45-.22q2.07-1.4 4.94-.78l-2.69.81a.55.55 0 0 0-.37.64l2.84 12.68-.43 8.85a1.33 1.28-29.9 0 1-.18.62q-4.44 7.51-13.04 9.73-1.21-1.92-3.48-1.82a.5.5 0 0 0-.48.53l.11 2.25q-1.85 1.42-3.71 1.73l-.11-1.78a.91.9 75.4 0 0-1.29-.76q-2.21 1.04-4.11-.05a1.43 1.43 0 0 0-1.12-.14q-1.3.36-1.78.74a.83.83 0 0 0-.28.91l.5 1.57q-1.63.6-2.56-.29l1.19-1.56a.55.55 0 0 0-.07-.75q-2.03-1.84-4.64 1.39-1.7-1.26-1.72-2.26.27-.18.36-.4.13-.3-.13-.49-.24-.18-.72-.1l-6.44-.71a1.31.97 21.5 0 1-.18-.03q-4.3-1.13-6.15-.81-3.4.6-8.98-.13-1.97-.26-2.83.89-9.63-1.57-18.71-1.41c-2.65.05-5.46-.46-7.87-.41a2.02 1.97-30.7 0 1-.99-.24q-.94-.53-2.7-.55a1.95 1.91-61.8 0 0-1.15.36q-1.44 1.03-2.99.5a.7.69 19.1 0 0-.87.42l-3.79 10.67-4.38 2.5a.44.44 0 0 1-.65-.29q-.13-.54.04-1.29 1.07-1.28.58-2.2 2.83-5.69 3.95-11.72l-.03-2.38a1.13 1.11 68.5 0 1 .36-.85c1.98-1.84.11-4.86-.66-6.79l-4.34-15.21q2.85.98 3.83 4.85 1.09 4.29 1.4 5 2.36 5.3 4.04 11.73a.7.7 0 0 0 1.3.16l3.98-7.25a.72.72 0 0 0-.82-1.05l-.45.12a.89.88 69.7 0 1-1.03-.48q-1.46-3.08-1.52-3.84-.28-3.45-.76-5.53a1.4 1.38 6.5 0 0-.76-.94l-6.12-2.92a4.16 4.15 1.4 0 1-2.02-2.12l-3.12-7.47a1.37.85-76.7 0 1-.08-.24l-4.13-14.74a2.81 2.78 50.7 0 1 .19-2q1.64-3.33 3.38-8.52a1.13 1.11 29.9 0 1 1.8-.47q.26.22.91-.08a.96.91-87.3 0 0 .43-.41q1.5-2.84.71-6.63a2.24 1.88-54 0 1-.04-.58q.1-1.51 1.4-2.83a.46.45 67.2 0 1 .78.32v2.54a1.27 1.26 19.6 0 0 .47.98q.89.74 1.36 2.48a.94.77-57.9 0 1 .03.23v5.2a.58.48 39.3 0 0 .04.2l2.95 7.04a.2.2 0 0 0 .36 0q.19-.45.14-1.05-1.33-17.33-1.92-23.04a5.42 5.38-40.4 0 1 .17-2.03q1.15-4.11.77-10.09a.51.51 0 0 1 .98-.24c1.46 3.31 1.45 8.1 1.36 11.36a.23.23 0 0 0 .38.19l.96-.83a.18.17 73.2 0 0 .07-.14v-3.59a.72.72 0 0 1 .54-.7l.26-.07a.72.72 0 0 1 .9.6q.65 4.54-1.78 7.55a2.06 2.04-25.5 0 0-.45 1.25q-.07 3.94 1.78 7.79a1.55 1.55 0 0 0 .67.7q.72.37 2.02.91a1.42 1.06 29 0 1 .82 1.83q-.27.32-1.65.14a.97.85-2.4 0 0-1.1 1.05q.35 1.29-.31 2.52a1.63 1.61-37 0 0-.16 1.07q1.77 9.74.91 19.02a9.85 9.82 41.3 0 0 .2 3.05q1.5 6.71 1.76 7.45c.82 2.26 1.37 6.91-.92 7.94a.8.79 71 0 0-.45.93l.98 3.68a1.52 1.51 87.8 0 0 1.17 1.09l.94.18a.61.61 0 0 1 .47.79q-1.57 5.09-4.12 7.75a1.9 1.88 73 0 0-.5.95q-.04.2-1.76 3.38a.74.74 0 0 0 .51 1.08l.36.07a.76.75 15.4 0 0 .85-.48q.88-2.5 1.76-4.12a1.18 1.18 0 0 1 1.9-.26q.8.83 2.04.88a.74.71 59.7 0 0 .32-1.37q-.54-.31-.86-1.08a1.7 1.65 39 0 1-.1-.84l.82-5.78a.74.73 4 0 1 .73-.63h.73a.56.55-86.8 0 1 .55.62q-.06.54-.61 7.57c-.13 1.64.73 2.74-1.12 3.93q-1.59 1.01-3.62 1.54a.41.41 0 0 0 .13.81q4.41-.31 4.85-.43 1.84-.54 4.83-.22 3.64.39 9.6.15a1.05 1 59.8 0 0 .45-1.9q-.47-.32-.31-1.1a.53.52-86.1 0 0-.54-.62q-.65.03-.83-2a.63.62 80.4 0 1 .47-.67c2.91-.75 6.44.24 9.72.39q19.2.86 32.78 1.08 2.05.03 4.49-.78a.68.68 0 0 0 .47-.65v-1a.54.41 63.9 0 1 .04-.2l2.02-4.55a1 1 0 0 0-.34-1.21q-1.4-1-1.38-2.59a.74.73 83.3 0 1 .55-.7l1.53-.41a1.53 1.51-79.4 0 0 .85-.59q1.32-1.9 3.55-2.1a.91.89-84.3 0 0 .79-.66q.01-.07.07-.27a.88.88 0 0 1 .46-.57l2.77-1.34a1.14 1.1-89.5 0 0 .52-.53l.21-.42a.45.45 0 0 0-.29-.63l-.92-.26zm-92.746-35.631a3.21.73-111.3 0 0 .486 3.256 3.21.73-111.3 0 0 1.846 2.726 3.21.73-111.3 0 0-.486-3.256 3.21.73-111.3 0 0-1.846-2.725zM171.5 246.41q1.32-1.92 1.37-4.91.02-1.71-1.44-3.03a.56.56 0 0 0-.83.09q-1.69 2.32.07 4.11a1.67 1.66-64.8 0 1 .46 1.29l-.19 2.25a.31.31 0 0 0 .56.2zm-11.51.89l-2.53-.49a1.52 1.52 0 0 0-1.6 2.25l1.74 3.02a1.53 1.52-15 0 0 1.32.76h2.9a.94.94 0 0 0 .82-1.41l-2.2-3.82a.68.65 78.2 0 0-.45-.31z" class="C"/><path d="M119.26 167.1q-2.03 3.83.72 6.09a.44.44 0 0 0 .66-.13c.53-1 1.88-1.13 2.61-.6a.3.3 0 0 1-.17.54q-.7.03-1.12.11-.39.07-.68.92-.47 1.4-.44 3.3a.78.78 0 0 0 1.12.69l.53-.26a.7.69 65.2 0 1 .95.35q1.01 2.37.09 4.54l-3.26-3.66a4.52 4.51-72.4 0 1-1.04-2.01q-.4-1.79-.79-2.83c-.88-2.33-.94-5.06-.62-7.4a.49.48-77.1 0 1 .63-.4q.28.09.81.75z" class="B"/><path d="M168.2 171.16q-.03-2.35 1.5-4.92l1.67 9.58a1.04 1.02-26 0 1-.33.93q-.72.65-1.94.45a.56.56 0 0 1-.45-.64q.46-2.82-.45-5.4z" class="E"/><path d="M96.06 171.29l-1.64 3.64a.86.84-47.3 0 0 .02.76l3.29 6.25-1.18-.01a.8.8 0 0 0-.35 1.52q1.46.7 2.71 2.27-1.09 4.48 1.49 6.77l-.23 1.64a.99.99 0 0 0 1.31 1.07q8.08-2.83 14.1-7.85a.82.81 62 0 1 1.3.4q.15.52.13.95l-.54 3.38a1.05 1.03 82.5 0 1-.59.78q-1.72.81-3.13 2.23l-.78.22q-3.16.24-4.26 1.3-1.88.38-1.63.65-2.21-1.12-4.54-.19a1.28 1.27 71.6 0 0-.75 1.51l1.03 3.88a.76.75-21 0 1-.4.87l-.55.26a.43.43 0 0 1-.61-.3q-.42-2.03-.48-2.26-.39-1.49-3.75-9.29-.44-1.01-1.09-7.03c-.38-3.52-1.01-5.35-2.94-7.84a1.86 1.86 0 0 1-.26-1.81l2.69-6.86q-.19-.84.97-1.24a1.01 1.01 0 0 1 1.17 1.51q-.89 1.35-.51 2.82z" class="D"/><path d="M113.07 169.15q-.51 1.36.77 2.68a1 .99 65.4 0 0 .8.3q.69-.07.94.55c.14.34-.6 2.51-.7 3.34a1.37 1.33 32.8 0 0 .2.86q.74 1.2.66 2.67a1.43 1.41 74.5 0 0 2.22 1.27q.73-.51 1.71-.2-1.72.24-1.8 1.13-.07.92.92 1.47-1.34.31-1.77 1.63-.97.23-1.05-.24l-4.07-7.32a.89.88-29.8 0 0-1.23-.33q-3.29 1.98-6.41 4.73-1.2 1.06-2.63 1.06a.55.54-86.7 0 1-.54-.61l.15-1.21 2.05-.88 7.01-5.34a.79.79 0 0 0 .28-.85l-1.28-4.51q1.4-2.12 3.77-.2z" class="F"/><path d="M103.29 180.05l-2.05.88q-1.05-1.66-.64-2.62 1.25-2.95.4-6.39-.4-1.61.15-2.5a1.3 1.25 62.6 0 1 2.33.79l-.19 9.84zm42.81-7.09q-.16 1.72 1.7 1.83a.37.37 0 0 1 .27.61l-1.87 2.28a1.35 1.32 13 0 1-.74.45q-1.28.28-2.41-.59a.86.85 46.8 0 1 .04-1.39q.74-.49 1.63-.63a1.63 1.63 0 0 0 1.17-.81q.45-.81.33-1.75a.06.06 0 0 0-.12 0z" class="D"/><path d="M123.62 176.42q-.07-1.7 1.92-3.65a.68.67 68.4 0 1 1.14.5l-.01.22a1.98.86-73.2 0 0 .01.23q.09.77-.93.7a.22.21 13.8 0 0-.21.12l-.99 2.07a.49.49 0 0 1-.93-.19zm-74.78-1.96l.01-1.42q.11.7-.01 1.42z" class="B"/><path d="M162.56 173.17q.42-.08.66.02.65.28.42.95-1.14 3.44-1.76 6.16-2.09 2.56-2.89 5.69-.18.11-.25.5-.54.62-1.15.2-1.08-1.45-.43-2.55 1.22-2.06 2.36-4.83a1.39 1.36 83.8 0 1 .47-.6l1.39-1a1.26 1.24 74 0 0 .52-.96q.06-1.13-.79-2.46-.01-.64 1.45-1.12z" class="E"/><path d="M161.11 174.29q.85 1.33.79 2.46a1.26 1.24 74 0 1-.52.96l-1.39 1a1.39 1.36 83.8 0 0-.47.6q-1.14 2.77-2.36 4.83-.65 1.1.43 2.55-1.35.25-2.38-1.1a2.19 2.17 76.7 0 0-1.3-.81q-4.44-.88-2.49-2.19 5.36-2.22 2.36-7.03.17-1.35.97-1.35 1.31 0 2.77.06 3.72-1.07 3.59.02zm-3.517 1.617a1.26.91-122.5 0 0-.09 1.552 1.26.91-122.5 0 0 1.445.574 1.26.91-122.5 0 0 .09-1.552 1.26.91-122.5 0 0-1.445-.574z" class="B"/><path d="M153.78 175.56q3 4.81-2.36 7.03-1.3-2.49.75-4.17a.41.41 0 0 0 .12-.49q-.04-.09-.26-.16a.21.21 0 0 1-.11-.32q.99-1.62 1.86-1.89z" class="D"/><ellipse cx="0" cy="0" transform="matrix(-.5373 -.843391 .843391 -.5373 158.27 176.97)" rx="1.26" ry=".91" class="C"/><path d="M139.76 179.64q1.15.78 2.73 1.13a1.26 1.26 0 0 1 .46 2.25l-5.35 3.86a1.19 1.19 0 0 1-1.83-1.31q.5-1.68-1.56-3.48a.76.76 0 0 1 .86-1.24l4.25 2.33a.98.98 0 0 0 1.26-1.43l-1.22-1.7a.29.29 0 0 1 .4-.41zm22.12.66q.28 3.89-1.22 6.97a1.01 1.01 0 0 1-1.67.22q-.36-.41 0-1.5.8-3.13 2.89-5.69zm-42.21.32l.47 2.01a1.17 1.17 0 0 0 .42.67q.8.62 2.2.82.55 1.47 1.83 1.72a.88.88 0 0 0 .95-.44q.3-.54.29-1.06a.77.76 31.3 0 1 1.45-.35l2.48 5.07a1.51 1.48 2.4 0 0 .6.64l.79.43a.44.43-52.7 0 1 .09.69q-.74.73.44 2.39c1.61 2.28 2.17 2.84 4.79 2.76a.83.82 4.3 0 0 .79-.67q.18-.97.05-1.83a.19.19 0 0 1 .25-.2q.11.04.25.01l3.74 6.39a.98.98 0 0 0 1.7-.02l4.88-8.9a1.68 1.65 53.2 0 0 .16-1.19q-.71-2.79-3.29-3.21a.73.73 0 0 0-.62 1.26q2.03 1.93-.38 3.73-2.1 1.57-5.26.9a.68.66 22.9 0 0-.69.27l-.18.27-.25-.48a.72.72 0 0 1 .18-.89l1.92-1.6a1.21 1.18-16 0 0 .42-.73q.01-.05-.05-.41a.39.38-27.6 0 1 .11-.33l3.9-3.9a1.3 1.3 0 0 1 1.37-.3l4.83 1.79a1.09 1.07 86.8 0 1 .59.54q.99 2.04.44 3.04-1.11 2.05-1.63 3.09l-5.2 9.15a.58.58 0 0 0 .35.84l4.42 1.28q.55 1.66.28 3.03a.23.23 0 0 1-.45.03q-.98-3.25-3.95-2.81a1.82 1.81 55.7 0 1-1.2-.23q-1.08-.65-2.85-.51a1.82 1.77 55.9 0 1-.97-.2q-2.51-1.3-16.43-8.88-2.42-1.31-6.69-5.6.02-.43-.13-.95a.82.81 62 0 0-1.3-.4q-6.02 5.02-14.1 7.85a.99.99 0 0 1-1.31-1.07l.23-1.64q3.19-1.83 6.36-3.75 2.36-1.43 4.48-2.3 2.32-.95 4.73-1.83.08.47 1.05.24.58.31 1.12.38.73.1.96-.47.27-.64-.31-1.54-.99-.55-.92-1.47.08-.89 1.8-1.13zm-21.94 1.32q1.39 2.35 3.83 4a.46.45-39.5 0 1-.08.8q-1.97.82-2.57-1.02-1.25-1.57-2.71-2.27a.8.8 0 0 1 .35-1.52l1.18.01z" class="B"/><g class="C"><circle cx="90.51" cy="184.37" r="1.03"/><path d="M118.79 183.22q.58.9.31 1.54-.23.57-.96.47-.54-.07-1.12-.38.43-1.32 1.77-1.63z"/></g><ellipse cx="0" cy="0" transform="matrix(-.559193 -.829038 .829038 -.559193 332.55 189.06)" rx="6.12" ry="1.08" class="E"/><path d="M50.34 192.81q-1.55-.64-2.42.41-1.16-1-2.67.34a2.21 2.06-10.3 0 0-.5.67l-7.56 15.7q2.14-10.79 7.1-21.17l2.21-.01a.95.93-79.6 0 0 .88-.62l.59-1.59a.49.49 0 0 1 .85-.13q2.14 2.81 1.52 6.4z" class="C"/><g class="E"><path d="M137.81 193.28l.06-.5.18-.27a.68.66 22.9 0 1 .69-.27q3.16.67 5.26-.9 2.41-1.8.38-3.73a.73.73 0 0 1 .62-1.26q2.58.42 3.29 3.21a1.68 1.65 53.2 0 1-.16 1.19l-4.88 8.9a.98.98 0 0 1-1.7.02l-3.74-6.39z"/><ellipse cx="0" cy="0" transform="matrix(-.688355 -.725374 .725374 -.688355 370.62 189.36)" rx="2.01" ry="1.68"/></g><ellipse cx="0" cy="0" transform="matrix(-.949972 -.312335 .312335 -.949972 87.07 188.73)" rx=".77" ry=".61" class="C"/><g class="B"><ellipse cx="0" cy="0" transform="matrix(-.363251 -.931691 .931691 -.363251 68.33 193.71)" rx="3.21" ry=".73"/><path d="M163.99 190.71q1.11 2.96 2.49 3.19 2.99.51 5.13-.04c2.15-.55 3.34.27 5.62.25a.43.43 0 0 1 .44.43v.4a.48.48 0 0 1-.48.48h-10.51a.64.64 0 0 0-.64.72c.09.73.42 1.37.37 2.33q-.43 7.64-.51 15.06.82.33 1.18.67a.49.49 0 0 1-.06.77q-1.86 1.24-3.28.46-4.43-2.47-9.36-6.68a.63.63 0 0 0-1.02.33l-.41 1.61q-.45.34-.67-.03-.28-.53-1.52-.89-.47-.36-.41-.84a.57.57 0 0 1 .61-.51q2.09.15 2.24-1.58a.48.48 0 0 1 .75-.35l10.45 7.11a.42.42 0 0 0 .61-.52q-.36-.78-.31-1.82.48-9.73-1.46-17.76-.29-1.23.75-2.79zm-113.65 2.1q1.15.56 1.36 2.03a.3.3 0 0 1-.54.23q-1.02-1.3-3.24-1.85.87-1.05 2.42-.41z"/></g><path d="M149.27 203.87l-4.42-1.28a.58.58 0 0 1-.35-.84l5.2-9.15q1.76 2.77 1.98 6.39.26 4.32-2.41 4.88zm-36.52-8.78q4.63.11 3.97 2.12.06 5.11-2.26 8.97-.81 2.12-2.5 2.99a.51.5 86.8 0 1-.7-.63l1.74-4.69a1.47 1.47 0 0 0-1.38-1.98h-4.1a.46.46 0 0 1-.35-.76l4.8-5.8.78-.22z" class="E"/><path d="M114.46 206.18q2.32-3.86 2.26-8.97.44-.81 1.81-.4a1.13 1.13 0 0 1 .77 1.3l-1.18 6.13a.57.57 0 0 0 .65.67q.47-.08.5-.09a.49.48-9.3 0 1 .66.47q-.05 1.19-.64 2.25a1.54 1.54 0 0 0-.04 1.44l.13.27a.39.39 0 0 0 .66.08q1.94-2.35 2.63-2.95a.59.59 0 0 1 .95.65l-1.63 4.38a.44.44 0 0 0 .78.4l3.49-5.14a.46.45-62.6 0 1 .52-.17l.4.16a.37.37 0 0 1 .17.57q-1.72 2.31-2.2 5.39a.22.22 0 0 0 .34.21l2.79-2.01a.63.63 0 0 1 .96.73l-1.12 3.01a.4.4 0 0 0 .55.5l.26-.13a.1.06-13.3 0 0 .05-.05q.87-3.62 4.09-3.3a.79.79 0 0 0 .79-.42q.23-.43.24-1.41a.66.66 0 0 1 1.29-.18q.19.64.09.93-.83 2.59-.9 6.78a.96.92-32.6 0 1-.1.42l-1.13 2.41a.65.64-63 0 0 .27.84l.33.19a.63.62-61.4 0 0 .84-.25l3.24-5.9a.67.66 22.9 0 1 .78-.31q1.44.44 2.13.94a2.45 1.94-53.2 0 1 .09 3.16q-.57.74-2.09 1.99a2.46 2.4 18 0 1-.95.47q-2.55.61-3.05.84c-2.74 1.22-3.84-1.56-5.55-2.47q-1.01-.53-1.62-1.47a1.72 1.66 87 0 0-.59-.55l-8.65-4.75a.96.94-43.1 0 0-.88-.02l-1.25.61a.71.7 9.5 0 1-.81-1.13l.34-.35a1.09 1.08 57.3 0 0 .25-1.17l-1.72-4.6z" class="B"/><path d="M107.71 196.61q.28 2.46-2.63 5.49a1.27 1.27 0 0 1-2.14-.56l-.85-3.2a.58.58 0 0 1 .5-.73l3.49-.35q-.25-.27 1.63-.65z" class="E"/><path d="M48.7 200.34q-.46 4.58-4.18 8.65.02-3.68 1.5-7.07a1.6 1.57 57.3 0 0 .13-.63v-3.65a.52.52 0 0 1 .84-.4q1.36 1.11 1.71 3.1z" class="D"/><g class="B"><path d="M181.23 205.3l-.43 3.19q-.55-1.97.43-3.19z"/><rect x="-1.94" y="-1.08" transform="matrix(.885394 .464842 -.464842 .885394 139.54 209.72)" width="3.88" height="2.16" rx="1"/><path d="M148.95 211.52c-.5 2.2-1.77 3.99-4.23 2.63-.66-.36-1.28-.2-1.91.08q-.91.06-.92-1.15c0-1.46.9-2.04.72-3.63a.58.58 0 0 1 .92-.53c1.81 1.31 3.31-.05 4.65.6q.92.45.77 2zm-.789.449a1.55 1.12-11.2 0 0-1.738-.798 1.55 1.12-11.2 0 0-1.303 1.4 1.55 1.12-11.2 0 0 1.738.798 1.55 1.12-11.2 0 0 1.303-1.4z"/></g><path d="M165.9 213.53q3.79.58 5.76-1.28a.74.73-16.6 0 1 1.23.66q-.3 1.61-1.6 3.03a1.01.97-29.6 0 0-.25.85l.02.11a1.19 1.19 0 0 0 2.28.21c.93-2.47 3.33-6.74 6.66-6.37q-1.23 6.06-4.82 11.57-.51-.17-1.02.37-2.87-.62-4.94.78a1.9 1.88 18.7 0 1-.45.22l-8.86 2.67q-5.3 2.37-11.11 3.09-4.74.82-8.96-.42a1.39 1.38-81.9 0 1-.99-1.33v-.75a.84.83-73.6 0 1 1.29-.71q2.53 1.64 3.4-.81.12-.33 1.18-4.21a1.77 1.76 21 0 0-.91-2.04q-2.66-1.34-1-4.94c.63-.28 1.25-.44 1.91-.08 2.46 1.36 3.73-.43 4.23-2.63q.85-1.69 1.81-1.75 1.24.36 1.52.89l-.37 3.75a1.33 1.3 60.3 0 1-.11.42l-2.99 6.72a.24.23-88.7 0 0 .3.32l.6-.24a.91.88-87.8 0 0 .47-.45l2.35-4.9a.68.67 39.9 0 1 1.16-.1l2.56 3.55a1.24 1.24 0 0 1-.74 1.93q-2.21.49-3.28 1.57a.26.26 0 0 0 .25.43q5.46-1.42 10.04-4.31a2.12 1.94-38.3 0 1 2.53.18q.54.54 2 .81a.68.67 83 0 0 .74-.95q-.43-.93-1.76-1.99a.99.98 55.2 0 0-.93-.17q-1.59.51-2.25-.79a1.04 1.04 0 0 0-1.96.46q-.01.72.19 1.18a.67.67 0 0 1-.24.82c-1.37.94-2.74 1.24-3.82-.23q-1.48-2-3.36-3.07a1.12 1.11 14.1 0 1-.56-.93l-.15-3.98.41-1.61a.63.63 0 0 1 1.02-.33q4.93 4.21 9.36 6.68 1.42.78 3.28-.46a.49.49 0 0 0 .06-.77q-.36-.34-1.18-.67z" class="E"/><path d="M152.95 210.69l.15 3.98a1.12 1.11 14.1 0 0 .56.93q1.88 1.07 3.36 3.07c1.08 1.47 2.45 1.17 3.82.23a.67.67 0 0 0 .24-.82q-.2-.46-.19-1.18a1.04 1.04 0 0 1 1.96-.46q.66 1.3 2.25.79a.99.98 55.2 0 1 .93.17q1.33 1.06 1.76 1.99a.68.67 83 0 1-.74.95q-1.46-.27-2-.81a2.12 1.94-38.3 0 0-2.53-.18q-4.58 2.89-10.04 4.31a.26.26 0 0 1-.25-.43q1.07-1.08 3.28-1.57a1.24 1.24 0 0 0 .74-1.93l-2.56-3.55a.68.67 39.9 0 0-1.16.1l-2.35 4.9a.91.88-87.8 0 1-.47.45l-.6.24a.24.23-88.7 0 1-.3-.32l2.99-6.72a1.33 1.3 60.3 0 0 .11-.42l.37-3.75q.22.37.67.03z" class="C"/><g class="D"><ellipse cx="0" cy="0" transform="matrix(.980955 -.194234 .194234 .980955 146.64 212.27)" rx="1.55" ry="1.12"/><path d="M67.47 225.05l4.34 15.21q-4.03-1.38-7.63-.59-2.1-2.32.84-3.59a1.21 1.17-4.8 0 0 .67-.76q.36-1.22-.22-3.03a.63.63 0 0 0-.6-.44h-2.05a.82.81-25.9 0 1-.5-.17q-1.7-1.3-1.24-2.56a.78.77 30.3 0 0-.23-.85q-1.43-1.24-1.75-1.92-.61-1.3-1.29-6.12-.91-6.4-4.85-6.13l-.06-1.45a.56.55-78.7 0 1 .79-.53l.38.19a1.32 1.3-42.9 0 0 1.04.03q3.12-1.25 6.16-.27 1.34.44 1.83 2.83a2.28 2.26-70.4 0 0 .47 1q.11.15.2.21a2.48 1.13 81.1 0 1 .73 1.11l2.97 7.83z"/></g><path d="M64.18 239.67c-2.27 3.37-5.17 6.11-5.09 10.58a.66.65-3.2 0 0 .72.64l10.81-.96-3.29 7.97a1.91 1.91 0 0 1-1.65 1.17l-16.35.93-7.2-.37a.02.01 0 0 1-.02-.01l.01-.01a.02.02 0 0 1 .03-.02q6.35.9 9.29-1.86 2.43-2.36 3.81-6.24.86-2.44 4.77-9.42 1.5-2.69 1.24-4.1-.44-2.39-1.73-3.61a2.29 2.25-77.6 0 1-.62-.99l-5.95-19.27q3.94-.27 4.85 6.13.68 4.82 1.29 6.12.32.68 1.75 1.92a.78.77 30.3 0 1 .23.85q-.46 1.26 1.24 2.56a.82.81-25.9 0 0 .5.17h2.05a.63.63 0 0 1 .6.44q.58 1.81.22 3.03a1.21 1.17-4.8 0 1-.67.76q-2.94 1.27-.84 3.59zm52.8-20.94l1.82-.86 1 .63c.27 1.62-.42 3.25.94 4.38q1.54 1.28 3.76 1.49.77.07 1.37 1.11 1.49 1.29.65 3-2.53 5.24-6 11.08a.62.61-59.9 0 1-.82.23l-20.64-11.34a.58.58 0 0 1-.23-.79l6.57-11.97a1.34 1.34 0 0 1 1.22-.69q5.31.18 9.4 4.43a.75.72 42.4 0 0 1.1-.03q.14-.17-.14-.67z" class="F"/><path d="M119.8 218.5l-1-.63q-.47-.41-.5-.89a.48.44-87.5 0 1 .52-.52q2.28.46 3.73 1.62a.71.71 0 0 1-.44 1.27q-1.4.01-2.31-.85zm55.38 3.81l-.13 11.75a1.41 1.39-32.5 0 1-.14.61l-.97 2.14-2.84-12.68a.55.55 0 0 1 .37-.64l2.69-.81q.51-.54 1.02-.37z" class="B"/><path d="M24.33 230.63a1.61 1.51 14.5 0 1 2.21-1.2q2.79 1.16 5.12.75a1.22 1.22 0 0 1 1.44 1.31l-1.69 19.91a1.78 1.76-6.5 0 1-1.23 1.53l-.33.1a.83.82-82.3 0 1-.77-1.02q1.04-4.37-1.27-8.27a4.47 4.37 25.9 0 1-.56-1.56q-.56-3.58-2.72-10.5-.23-.74-.2-1.05zm67.49 9.49q.2-2.42 1.76-3.37c2.22-1.35 3.2-3.36 1.02-5.3a.52.51-46.8 0 1-.02-.75l.2-.2a.34.34 0 0 1 .48 0l1 1a1.07 1.05-27.4 0 0 .94.29q1.23-.22 2.3.28a.9.9 0 0 1 .06 1.59l-4.43 2.56a.76.76 0 0 0-.32.32q-.79 1.48-.76 3.11a1.16 1.15-.7 0 1-1.16 1.18h-.41a.66.66 0 0 1-.66-.71z" class="C"/><path d="M37.16 231.5a.22.22 0 0 1 .24.21l.01.18a8.88 1.6 85.9 0 1-.96 8.97h-.04a8.88 1.6 85.9 0 1-2.23-8.74l-.01-.18a.22.22 0 0 1 .2-.24l2.79-.2z" class="D"/><path d="M170.94 246.21l.19-2.25a1.67 1.66-64.8 0 0-.46-1.29q-1.76-1.79-.07-4.11a.56.56 0 0 1 .83-.09q1.46 1.32 1.44 3.03-.05 2.99-1.37 4.91a.31.31 0 0 1-.56-.2zm-99.13-5.95c.77 1.93 2.64 4.95.66 6.79a1.13 1.11 68.5 0 0-.36.85l.03 2.38q-.65-.63-1.52-.35l-10.81.96a.66.65-3.2 0 1-.72-.64c-.08-4.47 2.82-7.21 5.09-10.58q3.6-.79 7.63.59z" class="B"/><path d="M99.62 245.05q-.17.07-.81-.28a.18.17-40 0 1 .03-.32q.38-.12.73-.03a.34.33 40.7 0 1 .05.63z" class="C"/><path d="M160.44 247.61l2.2 3.82a.94.94 0 0 1-.82 1.41h-2.9a1.53 1.52-15 0 1-1.32-.76l-1.74-3.02a1.52 1.52 0 0 1 1.6-2.25l2.53.49a.68.65 78.2 0 1 .45.31z" class="B"/><path d="M51.44 257.73q-2.94 2.76-9.29 1.86a.02.02 0 0 0-.03.02l-.01.01a.02.01 0 0 0 .02.01l7.2.37-25.95.07 29.86-8.35a.53.53 0 0 1 .62.73l-2.42 5.28z" class="C"/><path d="M111.67 253.94q-13.12 4.68-26.44 6.54-.09.01-4.33.8c-3.24.6-4.97-.18-8.3 2l3.79-10.67a.7.69 19.1 0 1 .87-.42q1.55.53 2.99-.5a1.95 1.91-61.8 0 1 1.15-.36q1.76.02 2.7.55a2.02 1.97-30.7 0 0 .99.24c2.41-.05 5.22.46 7.87.41q9.08-.16 18.71 1.41z" class="F"/><path d="M160.29 256.01q-1.61 1.6-3.85.96l-.11-2.25a.5.5 0 0 1 .48-.53q2.27-.1 3.48 1.82zm-23.55-.29q-.33-.41-.49-.99.48-.08.72.1.26.19.13.49-.09.22-.36.4zm5.24 3.18q-2.65.06-3.52-.92 2.61-3.23 4.64-1.39a.55.55 0 0 1 .07.75l-1.19 1.56zm10.75-.2l-8.19.49-.5-1.57a.83.83 0 0 1 .28-.91q.48-.38 1.78-.74a1.43 1.43 0 0 1 1.12.14q1.9 1.09 4.11.05a.91.9 75.4 0 1 1.29.76l.11 1.78z" class="B"/><path d="M68.19 262q.49.92-.58 2.2-.06-1.26.58-2.2z" class="F"/><path d="M152.22 270.9q-.12-.26-.11-.44a.25.22 36.6 0 1 .45-.04q.09.18-.08.48a.15.15 0 0 1-.26 0z" class="B"/></svg>