<?xml version="1.0" encoding="UTF-8" standalone="no"?>
<!-- Created with Inkscape (http://www.inkscape.org/) -->

<svg
   version="1.1"
   id="svg1"
   width="682.66669"
   height="512"
   viewBox="0 0 682.66669 512"
   xmlns="http://www.w3.org/2000/svg"
   xmlns:svg="http://www.w3.org/2000/svg"
   xmlns:rdf="http://www.w3.org/1999/02/22-rdf-syntax-ns#"
   xmlns:cc="http://creativecommons.org/ns#"
   xmlns:dc="http://purl.org/dc/elements/1.1/">
  <title
     id="title15">Sentinel-2 </title>
  <defs
     id="defs1" />
  <g
     id="g1">
    <g
       id="g2">
      <path
         style="fill:#fefefe"
         d="M 0,256 C 0,170.66667 0,85.333333 0,0 c 227.55556,0 455.11113,0 682.66669,0 0,170.66667 0,341.33333 0,512 C 455.11113,512 227.55556,512 0,512 0,426.66667 0,341.33333 0,256 Z m 591.2243,148.52401 c -1.75638,-25.68673 -20.1055,-54.09609 -27.97171,-80.75909 -4.31573,-24.13676 -46.2668,-32.2156 -53.1563,-13.5112 -16.34236,-30.85391 6.3381,25.67612 -19.53235,24.69924 -33.41005,23.89927 -55.23648,-36.74947 -25.66808,-53.88278 -22.56082,-14.43989 -49.27388,-20.5144 -74.25302,-32.70418 -10.863,-19.57161 25.53153,-24.13115 9.85118,-46.16066 -3.95243,-27.29336 6.35218,-67.47963 -29.72691,-75.60111 -19.28797,-11.41987 -42.83585,-16.71291 -50.16671,-36.666944 -14.76353,1.143351 -5.62716,34.124444 -30.17792,25.194924 -2.89018,29.70934 -41.49438,28.97954 -59.66805,48.95268 -23.51509,21.22275 -46.28696,43.27642 -70.41314,63.81687 -4.28577,32.09399 -10.42241,64.09987 -12.09895,96.44119 21.96193,13.86778 54.8924,12.70409 80.78701,21.09502 10.24123,5.21858 19.34216,0.11057 28.45986,-4.84561 14.87355,-12.98404 21.70084,7.10129 25.98455,-13.66191 15.51858,-4.31801 33.93978,-26.81444 49.09209,-13.7592 24.32741,9.37677 30.61827,41.82078 58.08685,44.61932 33.08767,8.73774 67.02255,13.34932 99.47994,24.30908 33.17123,7.07059 65.89248,16.41547 99.10331,23.08879 z"
         id="path15" />
      <path
         style="fill:#afcaef"
         d="m 583.33335,404.40974 c -44.60322,-11.53001 -89.94773,-20.485 -134,-33.77916 -27.80915,-7.69178 -61.93788,-6.31589 -83.6976,-26.65673 -4.36055,-13.70335 -43.59993,-37.43717 -36.72898,-34.4085 29.71628,11.15837 38.34683,51.29268 74.15779,48.53632 25.12982,-1.81337 20.39205,-31.23538 25.93933,-49.12193 6.42537,-38.13879 15.25342,29.29791 18.81587,41.16499 -2.0288,14.60771 16.23042,26.53923 7.9312,5.80084 -5.16283,-25.82864 -19.85582,-52.58284 -14.90023,-78.81557 -6.34974,-11.68861 -32.39141,-19.75238 -49.39638,-26.41725 -18.62212,-16.71942 20.86527,9.11914 33.05449,11.81268 13.5528,9.82662 57.07859,9.42582 29.57204,33.10629 -17.9093,34.17136 29.12493,62.26693 49.48538,28.86664 1.98352,-13.03609 -5.00532,-38.54669 8.14885,-12.49836 8.17428,-26.47163 51.36487,-6.91493 53.24669,15.92157 5.91427,16.6301 25.95753,65.37479 23.62293,63.88706 -12.91438,-26.51282 -19.30663,-56.46075 -34.81013,-81.46841 -20.26189,-7.56595 -34.64041,49.41815 -43.53493,15.90687 7.31007,16.66899 -4.37432,28.3526 -19.35935,34.74414 -18.36559,4.64893 -24.52906,18.35382 0.35616,19.10743 32.74809,8.32111 65.47327,17.04462 98.70342,23.20313 6.00669,-17.3483 4.92225,8.66721 -6.60655,1.10795 z M 238.33334,347.11696 c 8.29705,-1.32266 0.10341,2.30694 0,0 z m 37.66667,-8.34124 c -0.8184,-9.61834 13.39301,-19.89544 2.89774,-0.55921 L 277.24349,340 Z M 388.11414,237.33333 c 2.45233,-13.93573 2.65422,2.07302 0,0 z m 6.19698,-12.16545 c 7.33107,-3.70397 -3.36856,4.25556 0,0 z m 6.10326,-2.10259 c 2.93178,-15.67798 3.53814,3.93088 0,0 z M 280.00001,135.33333 c 12.61103,-12.05174 -9.48682,11.84546 0,0 z m 5.54386,-14 c 0.99975,-7.3713 0.99973,7.37132 0,0 z m 75.45614,0.5707 c -12.85268,-8.77541 17.57207,7.75812 0,0 z m -57,-7.74077 c 4.31687,-6.17592 4.69599,-1.04397 0,0 z M 325.54387,96 c 0.99975,-7.371374 0.99975,7.37137 0,0 z m -8.54386,-6.216374 c 8.29705,-1.322661 0.10341,2.306954 0,0 z"
         id="path14" />
      <path
         style="fill:#e2cb98"
         d="m 221.08334,343.08918 c 7.33651,-0.71269 -2.05263,2.21681 0,0 z m -5.33333,-1.33333 c 7.3365,-0.71266 -2.05265,2.21677 0,0 z m -6.66667,-1.33334 c 7.33652,-0.71267 -2.05264,2.2168 0,0 z m -5.33333,-1.33333 c 7.3365,-0.71267 -2.05266,2.2168 0,0 z m -6.66667,-1.33333 c 7.33649,-0.71267 -2.05262,2.21678 0,0 z m -6.75,-1.30556 c 8.29706,-1.32267 0.1034,2.30697 0,0 z m -6.66667,-1.33333 c 8.29706,-1.32267 0.10343,2.30694 0,0 z m -6.66666,-1.33333 c 8.29705,-1.32265 0.10341,2.30694 0,0 z m -6.58334,-1.36112 c 7.33652,-0.71267 -2.05264,2.2168 0,0 z M 163.75,331.08918 c 7.33651,-0.71269 -2.05263,2.21681 0,0 z m -5.33333,-1.33333 c 7.33651,-0.71267 -2.05262,2.21678 0,0 z M 148.21053,316 c 0.9998,-7.37166 0.9998,7.37166 0,0 z m 169.86797,-7.29093 c 16.75613,-6.99668 -6.76362,6.65104 0,0 z m -168.6399,-4.15351 c 1.23195,-4.99037 0.56969,5.79346 0,0 z m 1.53741,-7.22223 c 0.73986,-9.10229 0.73986,9.10231 0,0 z M 152.25994,286 c 0.89804,-7.58089 0.59813,8.31201 0,0 z m 1.33333,-9.33333 c 0.97822,-7.75346 0.57916,8.35467 0,0 z M 154.97601,268 c 0.73986,-9.10231 0.73986,9.10231 0,0 z m 1.36024,-10 c 0.48046,-10.14571 1.26228,10.60612 0,0 z m 1.22726,-10 c 1.22448,-20.36826 4.19753,-6.97696 0,0 z m 2.5694,-16.90309 c 17.65625,-21.54743 41.22815,-38.41502 61.39709,-57.89465 -19.02276,21.05598 -43.5866,37.31384 -60.87753,59.47982 -0.65951,3.51132 -0.36538,-0.89895 -0.51956,-1.58517 z m 235.20044,-20.19536 c -11.51971,-12.31852 -4.1613,-10.37319 2,-6.56015 -2.2088,-14.67692 -41.97021,-33.50106 -8.00001,-26.80976 -15.74276,-3.90122 -30.94471,-13.64687 -40.89499,-24.62921 12.3529,38.4316 -19.47769,-40.0592 -7.8039,0.0353 -7.44882,2.44134 -16.24711,-27.01616 3.88414,-12.67671 7.6513,13.10504 22.60636,7.57959 6.282,-1.16641 -0.58241,-4.36831 18.0167,-5.47245 -1.50283,-6.69596 -18.85817,0.0673 -31.1081,2.71811 -26.78775,-19.63518 8.46086,7.17457 14.62542,19.16984 8.81411,-0.87366 -25.46088,-24.613418 31.07751,9.9197 22.48715,8.47774 -9.9051,14.84308 23.79528,-0.3204 30.23966,13.21517 24.30879,17.17053 11.18635,54.94855 16.97379,81.0396 l -5.69132,-3.72082 z m 1.97958,-32.56822 c -4.40668,-22.21849 -3.40825,15.35091 0,0 z m -3.94219,-15.59679 c 4.13004,-14.63318 -18.8966,-8.08504 -2.70406,0.49339 -0.58425,5.7395 6.8685,7.7777 2.70406,-0.49339 z M 378.66668,160 c -4.90959,-5.36579 -5.11522,5.21589 0,0 z m -1.33334,-12.07869 c -3.75885,-4.76449 -2.58578,7.06417 0,0 z m -9.88801,-4.5403 c -14.36182,-18.16141 6.71041,19.18019 0,0 z m 7.26109,-1.97342 c -12.2196,-14.46394 1.84614,10.80261 0,0 z m 15.96026,0.004 c -2.7371,-6.98977 -3.6893,4.63094 0,0 z m -50.35327,-25.70185 c -5.29133,-6.58809 1.92565,12.29804 0,0 z m 41.39567,86.9565 c -6.27421,-9.10949 -7.88103,-26.64868 1.59588,-6.94372 0.29201,-0.39114 1.33313,14.68655 -1.59588,6.94372 z M 368.66668,200 c 1.80592,-5.39844 7.20928,5.67218 0,0 z m -16.60612,-6.60103 c 5.95137,-18.3659 -15.42752,-12.10045 -12.30795,-14.90172 -0.33445,-30.47442 29.26625,23.20519 12.30795,14.90172 z m 15.23328,-5.95453 c -19.6199,-16.82851 8.00156,-8.96326 3.30484,4.55556 l -1.54885,-1.3382 -1.75595,-3.21736 z m -45.9605,-7.36575 c 7.33442,-8.03591 11.58729,5.97861 0,0 z M 323.63228,163 c -8.25479,-27.45818 17.55361,16.31883 0,0 z m -89.63227,-1.49433 c 19.05036,-17.78422 3.46074,-0.20563 0,0 z m 96.62563,-11.17234 c -18.19065,-19.2282 -0.0858,6.73224 3.18265,3.89849 z m -65.95897,-5 c 12.4011,-4.21431 -5.3277,4.10695 0,0 z m 6,-1.79974 c 6.56654,-7.00414 7.57773,-2.07802 0,0 z M 284.85653,132 c 3.22368,-12.31511 4.60863,-0.35243 0,0 z m 13.56015,-15.57749 c 7.33651,-0.71265 -2.05267,2.21679 0,0 z m -7.3913,-1.3465 c 11.38601,-1.14847 -1.89316,2.18661 0,0 z m 18.73381,-5.26126 c 4.46004,-15.546679 5.18757,-4.01984 0,0 z"
         id="path13" />
      <path
         style="fill:#93b1e0"
         d="m 582.33335,401.78363 c 8.29705,-1.32266 0.10341,2.30694 0,0 z m -17,-3.11696 c -21.39153,-7.21209 31.30352,6.41201 3.62813,0.93769 l -3.62813,-0.93772 z m -12.25,-3.57749 c 7.33651,-0.71269 -2.05263,2.21681 0,0 z m -5.33333,-1.33333 c 7.3365,-0.71266 -2.05265,2.21677 0,0 z m 39.65535,-0.30599 c -5.44223,-10.66627 -14.05563,-38.92879 -3.82456,-12.75045 0.10775,1.13316 7.22625,16.92928 3.82456,12.75045 z m -44.98869,-1.02735 c 7.33652,-0.71267 -2.05264,2.2168 0,0 z m -9.08333,-1.75584 c -8.29605,-3.86383 17.64951,3.65299 0,0 z m -12.33333,-3.54971 c 8.29705,-1.32265 0.10341,2.30694 0,0 z m -25.00001,-5.67068 c -20.05151,-0.83462 -31.36795,-12.64054 -8.30254,-18.87463 13.30128,-6.36216 30.2195,-16.14903 22.89271,-32.92108 -1.97675,-18.31198 11.43048,29.02328 17.41102,-0.45919 7.82742,-21.94752 30.12559,-29.42932 35.09638,-1.1553 5.95828,11.92983 13.78833,38.18688 3.63304,12.10687 -4.6179,-20.60143 -15.01299,-23.40703 -23.00144,-3.03247 -11.93856,6.7349 -18.95936,36.6162 -24.73063,8.15004 -10.20402,-19.23466 6.8144,25.45557 -14.37869,23.91448 -36.25215,9.24283 31.33539,18.90604 3.96813,15.4222 -4.20575,-1.01089 -8.39883,-2.07364 -12.58798,-3.15092 z m -39.74426,-16.57446 c -5.76834,-25.48465 6.18115,9.90935 0,0 z m -5.51887,-1.94446 c -7.70672,-31.98436 8.57581,18.94675 0,0 z m 124.07795,-1.74217 c -4.31937,-16.42977 6.53319,13.96646 0,0 z M 389.29076,355.4269 c -19.72415,-5.29713 -22.52569,-9.20823 -1.2536,-2.54634 13.57185,0.24409 16.74524,-22.48719 22.5415,-33.86743 -5.70056,-22.53838 34.82527,-56.77657 -6.49398,-62.0575 -17.66833,-4.48318 -26.7623,-17.44065 -4.56316,-3.33007 18.51048,10.53599 50.02362,11.95037 39.96884,37.6567 -0.96782,9.41057 14.17316,48.61204 8.48645,42.71774 -5.32493,-10.58098 2.61032,24.51141 -3.32105,-0.66667 -2.92655,-12.16623 -11.68567,-58.25588 -15.6519,-24.35359 -5.58981,17.70329 -0.72891,43.31605 -22.67957,49.38447 -5.76717,-0.35603 -11.42198,-1.63458 -17.03353,-2.93731 z m 46.68884,-71.76023 c -1.58266,-15.69573 -6.09094,-1.20832 -0.59273,4.33333 z m 16.12568,62.22222 c 1.23194,-4.99036 0.56969,5.79346 0,0 z m -140.4386,-56.28081 c -27.02474,-12.87213 37.94606,7.63767 0,0 z m 57.66666,-18.4637 c -18.19502,1.07109 -5.27879,-25.08191 3.85775,-17.56525 -0.5327,4.25069 0.17649,17.03791 -3.85775,17.56525 z"
         id="path12" />
      <path
         style="fill:#d1b989"
         d="m 189.08334,335.08918 c 7.33649,-0.71268 -2.05263,2.2168 0,0 z m -6.66667,-1.33333 c 7.33651,-0.71267 -2.05262,2.21678 0,0 z m 132.25001,-23.51171 c 9.36045,-11.12577 16.14718,-2.11152 0,0 z M 152.21053,292 c 0.9998,-7.37166 0.9998,7.37166 0,0 z m 2.5614,-18.11111 c 1.23195,-4.99037 0.56971,5.79346 0,0 z m 1.33334,-9.33333 c 1.23194,-4.99036 0.56969,5.79346 0,0 z M 157.59327,254 c 0.89805,-7.5809 0.59814,8.31202 0,0 z m 2.66667,-17.33333 c 0.89804,-7.58089 0.59813,8.31201 0,0 z m 1.0734,-6.90446 c 7.49007,-10.45953 5.52857,-3.35714 0,0 z m 16,-14.95506 c 8.83444,-9.11389 20.06769,-16.0797 3.31094,-1.80829 -1.3288,1.27485 -13.20173,11.54846 -6.39787,4.78569 z m 214.66667,-4.02183 c -14.61084,-1.4698 -15.21459,-25.896 -19.92966,-7.8162 -13.16219,-9.58194 -49.1546,-15.05697 -48.91878,-26.53888 14.69707,3.10764 24.54551,-2.41422 3.93263,-8.17047 -13.39132,-9.84814 -3.96565,-32.95043 4.10639,-6.58502 16.89082,10.23514 -16.82554,-18.40009 -10.16773,-30.74234 -1.40633,-15.43705 0.8419,-43.489178 12.21557,-15.61658 6.16784,25.46482 -17.82187,-19.773689 -9.20741,7.75409 -5.66483,18.20443 23.94534,3.05537 35.06975,10.80478 -8.51023,2.58972 -11.74878,4.2269 0.4928,12.95803 -8.35762,4.30742 -28.72744,-21.6028 -28.7916,-3.19791 11.8198,11.64365 10.47684,14.55194 6.91264,-4.46059 5.66319,10.60635 18.90716,40.35424 11.52888,12.82577 6.75952,16.10232 31.47126,19.70979 38.51007,26.18141 -36.98567,-12.22023 22.24588,25.72028 5.46986,25.06804 -16.90089,-14.42026 15.57265,22.25516 -1.22341,7.53587 z m -11.40999,-20.22928 c -13.15165,-17.75813 7.51312,32.18706 2.71494,5.16691 z M 372.66668,200 c -8.73163,-5.20949 -1.36307,5.24977 0,0 z m -16.80187,-12.33333 c -2.64552,-13.57646 -13.73905,-23.98261 -17.71283,-8.5773 3.85382,1.03692 16.78222,-2.9577 13.29927,13.50082 3.31977,4.52489 11.33738,1.36869 4.41356,-4.92352 z m 9.46853,1 c -7.6106,-5.51258 4.49171,8.62373 0,0 z M 371.99258,191 c -1.19045,-15.1286 -22.23946,-18.46219 -4.69874,-3.55556 -2.47697,-1.47465 4.71681,7.99759 4.69874,3.55556 z m -13.34632,-6.66667 c -1.78109,-10.77727 -5.49987,-2.02133 -0.43223,2.33334 z m -28.67041,-4.29424 c -6.36078,-9.07803 -15.02925,7.04148 0,0 z m 35.35749,-4.70576 c -6.80905,-7.09273 -4.35427,4.26648 0,0 z m 16,-0.66666 c -10.82286,-4.17694 -6.96794,2.35368 1.11106,1.03233 z m -51.20147,-11 c -7.58359,-21.83296 -13.00302,3.23206 1.41865,2.589 z m 27.44592,0.0444 c -4.73469,-2.86177 3.31658,6.9172 0,0 z m -24.2538,-12.0942 c -13.81141,-17.93241 -9.24626,-6.07342 1.97434,4.11855 z m 22.67602,-4.99209 c -6.19843,-8.88291 -6.57264,5.21115 0,0 z m -9.02955,-10.85437 c -19.44878,-6.02933 5.4455,8.78673 0,0 z m -145.63712,56.89622 c 23.02752,-21.80776 -20.28201,22.06523 0,0 z M 394.09069,179.2199 c -2.51393,-15.36858 6.78348,-2.24 2.05387,3.44673 z m -1.75734,-11.40847 c -7.42507,-8.42086 -11.14339,-20.31859 2.26429,-10.16244 -4.11413,2.06624 2.97413,12.73725 -2.26429,10.16244 z m -156.3285,-6.9339 c 20.22387,-17.24044 -11.53766,12.17028 0,0 z M 374.66668,160 c 4.90959,-5.36579 5.11522,5.21589 0,0 z m 0,-11.25464 c 3.15914,-7.31552 3.23748,5.53483 0,0 z m -9.18133,-2.85496 c -8.32364,-12.36605 5.05891,-4.28626 3.50788,2.89416 z m -96.15201,-1.08108 c 4.01794,-4.39871 4.06384,1.81 0,0 z m 101.99261,-3.48416 c -6.06691,-13.17723 11.79974,9.86771 0,0 z m 16.67406,-0.73718 c 3.0335,-4.94961 2.39684,6.29439 0,0 z m -34.33333,-13.21237 c -7.66388,-6.42444 5.84642,-10.588 0.23004,-1.5304 14.15719,-0.80631 14.25357,4.65937 -0.23004,1.5304 z m -14.90976,-10.10894 c 1.65156,-11.5347 2.42155,11.72488 0,0 z"
         id="path11" />
      <path
         style="fill:#9c9fa4"
         d="m 590.84826,401.10905 c -5.3355,-16.79657 3.78917,0.72131 0,0 z m -61.84824,-12.65876 c 8.29706,-1.32267 0.10339,2.30697 0,0 z m -1.44445,-5.33918 c -4.57526,-13.13892 8.38156,2.22624 0,0 z m -74.20419,-18.397 c -6.04007,-13.0734 -11.04776,-52.88167 -1.27328,-18.90933 9.5e-4,3.01269 9.29561,30.37154 1.27328,18.90933 z m -1.23821,-12.85386 c -4.44632,-8.0211 2.61884,11.99829 0,0 z m 63.95027,-6.12063 c -7.85175,-25.95017 9.68638,16.91636 0,0 z m -279.95232,0.4491 c 17.27531,-5.22201 7.97169,2.09551 0,0 z m 128.72125,-6.13527 c -2.64034,-14.79668 -41.94232,-30.04843 -35.33082,-32.8516 12.75059,8.73966 32.86214,21.21296 23.09719,-5.41493 -0.78916,-46.71473 9.7873,54.06015 13.76263,25.73511 2.74489,4.87915 7.43536,29.08854 -1.529,12.53142 z m -133.08236,4.36906 c 7.3365,-0.71265 -2.05266,2.21679 0,0 z m -6.75,-1.30555 c 8.29705,-1.32265 0.10341,2.30694 0,0 z m -5.25,-1.36111 c 7.3365,-0.71266 -2.05265,2.21677 0,0 z m 7.35916,-3.85924 c 4.84139,-15.71297 25.65955,7.16796 1.86163,1.45535 z M 262.66667,336 c 19.71885,-9.62821 -13.20768,9.28185 0,0 z m 10.81314,-2.2988 c -9.05917,-7.7512 53.22217,-27.75151 19.7748,-13.06253 -9.82164,0.53645 -13.105,13.68873 -19.7748,13.06253 z m -124.10927,-7.65637 c -5.26101,-11.1576 8.7265,7.46984 0,0 z M 149.64267,312 c 0.73988,-9.10231 0.73988,9.10231 0,0 z m 158.46845,0.84727 c 17.54682,-10.94213 0.17732,2.67319 0,0 z m 1.22222,-21.26214 c -31.36454,-16.49531 49.20039,-0.88239 7.39328,2.03381 l -3.27784,-0.85757 z m 15.13493,-0.49783 c -20.65802,-12.60019 -30.0568,0.25749 0,0 z m 108.70497,-8.42923 c -3.22007,-14.92721 -1.52965,10.29078 2.21363,5.34193 z m -72.35552,-6.89744 c 2.33583,-11.39611 -36.78047,-9.71287 -7.72302,-20.22092 12.94738,-10.48944 28.52736,-7.43948 10.64877,0.18178 -14.5294,15.20362 15.70458,11.52149 -3.0385,23.64926 -1.66515,4.16479 0.29074,-3.12466 0.11275,-3.61012 z m 23.28373,-29.94155 c 2.70181,-15.49785 5.37645,-2.7547 -2.1e-4,0 z m 3.90355,-12.35989 c 6.68345,-14.16021 14.60292,-13.75405 0,0 z m 11.32835,-15.39252 c 3.37025,-13.37791 2.85754,15.04499 0,0 z M 218.00001,177.45935 c 9.61988,-10.66315 21.81091,-17.68145 5,-3.44507 1.39224,-1.95138 -9.11867,8.88811 -5,3.44507 z m 43.08333,-30.37017 c 7.33651,-0.71269 -2.05263,2.21681 0,0 z m 20.63376,-11.43691 c 9.60044,-9.33934 7.33519,-30.82856 6.66316,-5.44185 -4.48771,5.07762 -19.54302,16.61612 -6.77297,5.54309 z m 77.1352,-11.69663 c -5.97628,-9.94401 14.7753,8.62715 0,0 z m -53.44466,-9.98272 c 19.85157,-17.814513 -8.70314,10.61296 0,0 z m 18.52011,-17.306253 c -5.306,-8.248415 -20.06288,5.112613 -5.32774,-5.979583 9.01627,-4.506933 6.19083,17.894026 5.32774,5.979583 z"
         id="path10" />
      <path
         style="fill:#6c91d3"
         d="m 567.33335,397.90164 c -30.55425,1.17004 -42.68722,-21.19 -47.00696,-47.97496 7.6662,25.77052 26.27269,-33.07202 38.40135,-26.61065 10.46379,23.29798 22.99866,50.59631 28.15549,73.2948 9.62104,13.09426 -12.9898,0.51679 -19.54988,1.29081 z m -7.33333,-7.79053 c 0.25777,-13.60293 6.14478,-15.04782 12.35044,-14.67971 -5.75433,-5.01783 -11.09752,-9.58615 0.87164,-6.85398 -9.08242,-23.83332 -61.63595,23.51159 -21.73417,23.44033 2.50903,0.0402 9.31227,3.33567 8.51209,-1.90664 z m -6,-4.77778 c -0.0583,-4.48345 4.09337,4.44175 0,0 z m -35.33334,0.54363 c -21.25221,-3.77737 -34.72649,-9.91695 -8.79808,-20.0153 13.0179,-3.76668 2.7865,-30.92826 10.79675,-3.20027 -0.6821,6.98875 16.22566,32.16539 -1.99867,23.21557 z M 381.60602,352.06875 c -16.94768,0.88227 -16.15729,-42.17844 -8.27268,-26.64557 6.9013,-10.45203 21.9709,-36.99799 -5.00591,-24.83532 -4.08709,4.68297 1.18324,21.29321 -3.63316,2.74547 -11.27562,-22.93334 9.04984,-33.57332 11.58486,-52.66666 20.20282,-1.30182 65.72525,12.43208 40.41878,39.82844 -9.58936,18.08358 -3.34981,40.82781 -19.86887,55.51823 -0.91595,9.45914 -8.30346,7.25128 -15.22302,6.05541 z"
         id="path9" />
      <path
         style="fill:#ad9566"
         d="m 211.66667,339.11696 c 8.29706,-1.32267 0.10343,2.30694 0,0 z m -5.25,-1.36111 c 7.33651,-0.71267 -2.05262,2.21678 0,0 z M 196.00001,336 c -7.56892,-3.7674 19.36405,3.80594 0,0 z m -8.33334,-2.21637 c 8.29706,-1.32267 0.10343,2.30694 0,0 z m -7.30796,-1.37428 c 10.65185,-1.05899 -1.14245,2.13281 0,0 z m -8.6087,-1.32017 c 7.3365,-0.71267 -2.05266,2.2168 0,0 z M 159.75,328.42251 c 7.33652,-0.71266 -2.05264,2.2168 0,0 z m 120.58334,-5.30555 c -6.15233,-8.20458 6.77749,2.60113 0,0 z m -130.78948,-4.45029 c 0.99976,-7.37142 0.99977,7.37141 0,0 z m 166.34798,-12.73873 c 17.44564,-19.97643 9.30765,7.59086 0,0 z m -163.6319,-6.59461 c 0.89804,-7.58089 0.59813,8.31201 0,0 z m 158.15674,-6.91082 c 7.33651,-0.71265 -2.05267,2.21679 0,0 z m 19.66905,-2.14668 c 3.54066,-5.67728 -1.02148,5.24078 0,0 z M 153.54386,288 c 0.99979,-7.37157 0.99979,7.37157 0,0 z m 2.04612,-12.66667 c 2.60264,-24.94505 0.20944,16.354 0,0 z m 204.62056,-2 c 0.99975,-7.3713 0.99973,7.37132 0,0 z m -15.42482,-6.47405 c 5.24459,-2.48551 7.40445,3.74261 0,0 z m -187.14305,-5.52595 c 0.73988,-9.10229 0.73987,9.10231 0,0 z m 160.69067,3.0809 c -9.14396,-8.24148 12.5645,2.97519 0,0 z m -159.47355,-11.0809 c -2.5683,-33.04927 33.37463,-45.67545 51.40133,-67.55928 12.07646,-6.824 -20.26794,17.16145 -20.26414,28.03971 -8.2423,11.51753 -11.03994,36.89627 -18.70727,12.1463 23.0192,-16.44308 -15.74615,1.94161 -9.72453,17.10535 -0.5432,1.32392 -1.7078,13.77572 -2.70539,10.26792 z m 41.9844,-29.04611 c -6.0765,-15.02863 22.19878,-38.02557 5.80241,-12.04285 -1.39922,2.40669 -1.33003,14.49126 -5.80241,12.04285 z m -8.17752,-9.62055 c 4.09337,-4.44177 -0.0583,4.48346 0,0 z m 200.08064,-2.53621 c -10.27388,-0.46011 -25.32118,-11.91568 -15.94007,-16.65775 -4.80852,9.33121 23.93306,18.11589 15.94007,16.65775 z M 270.14026,198.99929 c 4.93895,-22.73906 5.32991,-9.20798 0.85975,5 z m 95.85975,2.33404 c -21.01981,-10.14892 -54.21384,-12.55958 -46.66747,-42.26684 -2.76423,-12.71426 0.52949,-61.514341 2.22804,-53.49929 1.62286,12.88601 -5.04275,30.20456 3.09797,41.07538 10.10714,7.65792 17.42888,32.89186 2.60738,9.48489 -14.28779,-22.5581 -3.47359,24.83304 13.30641,20.02512 -10.36387,-1.66379 -32.45163,3.59978 -9.11976,7.29518 1.79349,3.61482 54.51814,24.49362 34.54743,17.88556 z m -31.33333,-26.66666 c -11.66693,-6.59163 -3.78103,5.98848 0,0 z m -98.33334,24.3537 c -10.08624,-15.38297 12.26156,9.24454 0,0 z m 0.58898,-8.08523 c -8.13677,-11.49148 10.15622,-5.10264 0,0 z M 364.00001,190 c -4.49171,-8.62373 7.6106,5.51258 0,0 z m -7.8359,-6.83897 c -2.65283,-15.01686 6.7319,11.9473 0,0 z m -68.1641,-4.46738 c 6.27092,-22.19918 7.04435,-4.53994 0,0 z m -52.70868,-7.54494 c -9.99336,-6.87142 21.63383,-25.06404 3.69859,-8.48377 3.06166,4.06811 0.003,26.70505 -3.69859,8.48377 z m 126.63019,4.22703 c -5.24888,-7.45284 10.46597,5.07249 0,0 z m 13.41182,-0.70907 c -4.38633,-4.667 16.94595,4.58671 0,0 z m -108.62426,-2.25465 c 3.91077,-12.14906 2.81408,6.79192 0,0 z m 6.64434,-0.74535 c 6.12369,-34.3364 20.06253,2.29543 0,0 z m 83.53548,-5.88889 c -4.09446,-6.6682 5.27783,1.3606 0,0 z m -88.3762,-19.74085 c 15.85829,-10.9257 19.84901,-14.67369 3.86202,-0.38759 -1.17278,2.30308 -12.39536,3.19153 -3.86202,0.38759 z m 83.52592,0.68182 c -3.99476,-7.09274 10.54189,3.67902 0,0 z m -8.70528,-9.12657 c -9.58961,-8.47719 13.76084,3.52484 0,0 z m 12.66667,-10.7852 c -13.93431,-11.34009 16.25577,2.14153 0,0 z m -57.66667,-9.02335 c 8.29706,-1.32267 0.10343,2.30694 0,0 z m 11,-4.9537 c 4.31688,-6.17594 4.69598,-1.04396 0,0 z m 4.30934,-10.16326 c 0.73986,-9.10231 0.73986,9.10229 0,0 z"
         id="path8" />
      <path
         style="fill:#5e79aa"
         d="m 587.12679,399.27583 c 0.16747,-9.83813 6.40906,7.3007 0,0 z m -39.79344,-8.12405 c -33.42914,-3.79627 20.46771,-45.94668 25.57389,-22.11396 -18.39408,-7.96438 8.81051,15.70903 -6.73522,4.88669 -11.75097,2.43791 3.80946,27.82323 -18.83867,17.22727 z m 8.66667,-5.81845 c -3.66129,-4.97731 -1.20876,4.59894 0,0 z m -28.44445,1.77778 c -2.99631,-9.36527 13.37761,3.97552 0,0 z m -2.62736,-9.35462 c -5.35689,-12.27167 -8.0498,-37.64667 0.87792,-11.50086 0.91189,2.94816 5.62251,12.04542 -0.87792,11.50086 z m -73.37264,-22.64538 c -3.22188,-7.86694 2.36079,-4.41998 0.94258,0.62293 z m -226.22223,-19.4129 c 4.70507,-10.43799 2.96433,4.8202 0,0 z m 138.07671,-1.36488 c -8.29168,-15.64278 8.43287,-3.9806 -0.0617,-26.12942 -3.60205,-14.18471 -3.69722,-41.08323 0.10812,-10.92834 6.56677,22.87381 -1.33736,9.85704 6.38279,3.24953 25.67413,-11.8346 9.61226,15.45626 3.49407,24.89808 -8.30594,-19.7117 -3.15633,11.3364 -9.92329,8.91015 z m -15.51581,-16.66666 c 1.58811,3.03275 12.31624,-11.68212 4.26903,2.33333 l -2.28668,-0.68542 z m 10.8777,-2.44445 c 1.23195,-4.99037 0.56969,5.79347 0,0 z m -26.10526,-6.59033 c -14.77655,-11.47111 18.46331,10.68529 0,0 z m 24.77193,-1.40967 c 1.23193,-4.99036 0.56969,5.79347 0,0 z m -5.22807,-1.88889 c 0.99975,-7.3713 0.99973,7.37132 0,0 z m -1.28393,-8.66666 c 0.89804,-7.58089 0.59813,8.31201 0,0 z m 5.17866,1.22222 c 1.23195,-4.99037 0.56971,5.79346 0,0 z M 216.03115,253.24797 c -22.06206,-10.54728 -3.79105,-58.24246 10.66109,-30.50409 -2.26507,9.4034 3.98422,44.01904 -8.4299,32.51502 l -1.26774,-1.1426 z m 157.30219,-4.5813 c -6.39978,-3.48213 16.00378,-2.53421 12.33334,-8.66903 0.10662,5.37597 -6.99938,15.75112 -12.33334,8.66903 z m 23.46675,-26.8985 c 5.33524,-9.64464 1.72072,3.35411 0,0 z"
         id="path7" />
      <path
         style="fill:#8b714a"
         d="m 228.00001,342.80571 c -5.61596,-6.74897 15.33279,1.63769 0,0 z m -24.66667,-6.22602 c -9.19397,-4.55059 -37.29419,-2.66381 -17.46454,-8.39199 -4.05989,-8.52775 38.81185,-8.66165 31.46454,11.70335 -4.67576,-1.06507 -9.33558,-2.1982 -14,-3.31136 z m 1.96139,-4.63177 c -10.10449,-5.15334 5.17673,6.99176 0,0 z m -39.96139,-2.61459 c -7.56891,-3.7674 19.36405,3.80594 0,0 z M 157,327.11696 c 8.29706,-1.32267 0.10343,2.30694 0,0 z m 61.54689,-4.41736 c -20.35662,-2.64242 -3.31196,-10.61955 -7.43829,-19.34177 11.68278,-2.6871 46.0062,-18.09486 45.6782,-10.16129 -21.27655,7.08261 1.78706,8.83718 -0.49085,8.78063 -0.11741,12.58068 -25.94269,-2.34357 -11.85413,11.08013 -10.97852,-3.66295 -33.11294,3.0145 -19.53021,13.14221 l -2.06949,-0.82825 z m 3.69613,-12.30235 c 15.21617,-12.23742 -2.08405,-10.02075 -4.04045,1.29181 z m 59.18097,11.26942 c -9.48666,-2.99467 2.52105,-8.23513 2.97565,2.22807 l -1.53426,-0.61107 -1.44135,-1.617 z m 29.24407,-11.74341 c -16.24047,-5.89423 -18.6737,-10.30215 0.93747,-4.13426 9.58989,-8.3713 -32.82526,-26.36975 -1.07995,-13.11795 16.92956,10.88291 15.77497,-11.74759 34.24882,-10.27906 9.90029,2.54513 -22.22233,12.76344 -18.39542,17.09613 -5.19441,-4.70678 -10.43817,10.06601 -15.71092,10.43514 z M 152,304.15738 c 3.91264,-7.72003 2.87196,3.55281 0,0 z m 123.23808,-2.82405 c -9.13741,-10.18365 9.91137,-4.08986 9.76193,-14.46883 22.82311,-4.71611 8.3034,28.64923 -9.76193,14.46883 z m -15.23807,-2.66666 c 3.40656,-4.78328 3.40661,4.78327 0,0 z m -106.35734,-4 c 0.73987,-9.10231 0.73988,9.10229 0,0 z m 4.35733,0 c 1.73991,-4.97377 5.55007,4.55379 0,0 z m 73.33334,-4 c 4.09335,-4.44176 -0.0582,4.48345 0,0 z m 7.58333,-1.41667 c 6.34645,-7.78021 1.98066,4.77637 0,0 z m -83.46977,-5.91667 c 1.42116,-17.92132 8.66451,-69.94713 22.93325,-60.58397 -19.95273,5.24191 11.16982,27.12842 4.64537,2.06496 7.50783,-10.87531 20.2495,-40.33626 31.52339,-36.52185 4.98588,12.54079 -23.66826,24.59031 -11.14791,34.93049 5.66477,-15.46845 2.0209,22.2908 -4.1386,19.00831 -18.15969,18.93356 9.46207,-44.00584 -12.31613,-17.66145 -11.71178,13.64746 16.76046,32.62896 -6.484,25.48206 9.93835,4.17546 11.91091,8.64324 -3.7535,11.89204 -6.2681,-34.34576 -7.33215,23.78991 -14.59734,11.05608 -4.99195,-16.00347 -7.20657,28.34139 -6.66453,10.33333 z m 39.21977,-68.66666 c -1.20875,-4.59894 -3.66129,4.9773 0,0 z m 77.3865,71.39738 c -3.7784,-15.86004 10.8499,3.54525 0,0 z m 78.61351,0.60262 c 3.66127,-4.97732 1.20878,4.59892 0,0 z M 241.33334,284 c 7.75551,-5.81617 14.6972,6.65397 0,0 z m 57.33334,-1.11111 c 6.33036,-10.10389 13.56591,3.90856 0,-5e-5 z m 18,1.11111 c 3.09007,-8.10866 8.33951,5.13647 0,0 z m -4.91667,-0.91082 c 7.33649,-0.71268 -2.05263,2.2168 0,0 z m 35.43419,-3.7856 c 11.58266,-9.81691 -15.96695,-3.82883 -6.95572,-14.7995 16.51004,2.89128 29.59428,14.44128 6.95572,14.7995 z m -18.43194,-4.74729 c 2.32345,-9.12081 -34.11814,-15.35143 -8.52461,-14.75046 9.40947,-1.44196 18.58154,12.43362 8.52461,14.75046 z m -7.41892,-11.22296 c -12.15862,-7.08877 1.43261,6.65508 0,0 z m -50.04824,9.92194 c -19.95836,-3.15644 8.50268,-4.89124 11.23332,-7.6484 -1.95828,1.64885 -7.43363,12.56794 -11.23332,7.6484 z m -36.80405,-3.82288 c -5.82817,-10.4745 25.2406,7.97752 3.05472,1.4921 z m -47.23984,-4.24813 c 1.41865,-8.82313 7.84348,4.8977 0,0 z m 107.42547,-7.77224 c 4.2482,-11.04741 6.10314,9.49333 0,0 z m 80,-25.15826 c 6.22329,-7.74741 3.44224,4.02187 0,0 z m -74.67337,-4.94071 c -3.66045,-17.89862 11.36623,8.54797 1.36181,2.72362 z m -37.49857,-1.64638 c -3.18335,-17.22408 11.52595,-56.86269 -4.04099,-60.88987 -6.43811,2.07799 11.53133,-12.36388 9.80209,-17.29463 14.30202,-0.33647 19.20348,-20.7991 24.48091,-16.68001 12.27599,13.67247 34.00933,-2.12087 25.97491,20.61858 2.89562,15.28085 4.29917,35.39496 -6.39959,29.36078 4.20845,8.63502 -15.19615,-6.9201 -5.31205,12.19127 -11.54023,-7.50126 -1.18777,22.26736 -18.08585,19.52274 3.47752,15.18564 -19.52467,-5.94467 -21.74652,11.98341 0.003,-0.43799 -4.04882,3.54025 -4.67291,1.18773 z m 9.50527,-25.49903 c 6.30187,-20.52024 -1.02989,-14.74333 -1.83981,2.20696 l 0.83981,1.62469 z m 12,-13.65648 c -5.39877,-9.1269 -8.22089,12.11282 0,0 z m 16,-0.66854 c -2.98335,-5.74755 -2.82129,9.74167 0,0 z m -16,-7.09726 c -4.98176,-17.06682 -2.7305,13.40344 0,0 z m 7.76631,-4.92473 c 4.5253,-22.74903 -9.61479,22.4977 0,0 z m -21.90115,-4.70548 c -6.27248,-0.52417 -1.02133,10.44695 0,0 z m 8.35853,2.11604 c 17.27546,-14.93695 -11.00036,-16.73359 -2.80414,2.05322 l 1.63619,-0.59692 z m 34.35927,-2.70571 c -3.07149,-11.43144 -4.3537,-16.92978 5.22528,-11.36436 -11.05236,-36.44387 -15.92576,23.39097 -5.22528,11.36436 z m -23.24963,-7.78012 c -4.89707,-14.72635 -3.52695,10.67541 0,0 z m 13.33334,-3.33334 c -2.7371,-6.98977 -3.6893,4.63094 0,0 z m -66.00001,63.92131 c -0.0583,-4.48346 4.09337,4.44177 0,0 z M 231.14644,205 c 1.58555,-11.04395 1.53518,-55.24241 5.9886,-27.66667 7.89865,-2.893 -2.70145,-21.2843 8.84956,-20.60407 -3.7893,14.86452 3.2554,51.57921 -10.65127,53.93741 -5.87509,11.15986 -4.31524,1.48296 -4.18689,-5.66667 z m 8.21834,-6.23427 c -9.83574,-14.00295 -1.32279,8.47072 0,0 z m 0.0496,-12.91767 c -10.14629,-10.15632 0.0625,16.9244 0,0 z m 10.58566,28.81861 c 9.70344,-4.96238 4.76915,4.24696 0,0 z M 206.79914,212 c 9.21645,-16.40266 7.46092,-6.10275 0,0 z m 168.61105,-5.20899 c 3.38472,-2.65409 6.21283,4.00335 0,0 z M 366.4966,203 c -1.52203,-4.13004 12.86277,7.15337 0,0 z m -10.49659,-4.35189 c 3.13126,-2.52551 12.84524,4.19598 0,0 z m -12,-4.64811 c -8.37758,-7.1255 14.88253,7.4732 0,0 z m -6.83674,-4.33333 c -4.46011,-6.3657 8.11289,7.85609 0,0 z m -11.82993,-3.72476 c -10.10195,-6.19808 22.50836,7.051 0,0 z m 4,-11.27524 c 0.17001,-5.84781 10.6261,4.92617 0,0 z m -17.95155,-47.03974 c -16.93201,-6.40918 9.18748,-3.55103 0,0 z m 5.54998,-6.57198 c 0.6334,-26.119971 3.55969,18.76449 0,0 z m -22.51509,-3.2991 c 7.3365,-0.71266 -2.05265,2.21677 0,0 z m 23.39001,-14.39954 c 6.91579,-12.142086 7.78156,1.59307 0,0 z"
         id="path6" />
      <path
         style="fill:#676156"
         d="m 238.41667,344.42251 c 7.33652,-0.71267 -2.05264,2.2168 0,0 z m -5.63404,-1.56823 c 25.2494,-6.63108 -13.69017,-18.86753 -5.53646,-1.92686 -36.04588,-12.3101 34.04099,-15.45778 12.61999,-0.37742 -5.57232,-1.56502 -2.99572,5.88353 -7.08353,2.30428 z m -29.52778,-10.1213 c -6.24806,-6.23784 10.15765,5.78308 0,0 z M 268.00001,332 c 10.40431,-4.78396 -4.11112,4.46683 0,0 z m 6,-5.55556 c 3.69154,-17.50649 2.85625,15.51807 0,0 z m -53.3239,-1.09583 c 0.99427,-3.11875 5.64284,4.88918 0,0 z m 140.7139,-1.68194 c -0.66007,-10.16865 -11.17112,-57.78741 -9.85233,-24.17451 12.26889,29.71924 -16.62867,12.48892 -24.09895,3.51333 14.96374,10.00541 30.98868,20.27655 22.15105,-5.54098 2.29486,-20.00203 -38.38687,12.14956 -13.52703,-5.46451 9.20071,-7.02871 19.28469,-12.17656 -1.83316,-7.47257 -9.4333,4.24402 -19.34162,-3.70606 -25.06831,-3.85448 17.30543,-2.7442 36.55938,-10.17954 47.32182,7.03166 8.17051,28.24272 -2.30485,-6.33553 -0.0855,-10.9915 3.40305,4.34489 13.82742,53.50528 4.99237,46.95356 z m 0.62914,-12.33334 c -5.14624,-27.36748 2.612,29.01503 0.74181,3.78177 z M 328.66668,284 c -4.75431,-5.15323 -7.32914,4.42035 0,0 z m -113.22121,37.81141 c -1.00591,-5.5273 6.42771,7.39793 0,0 z m -7.69546,-0.0556 c 7.3365,-0.71266 -2.05265,2.21677 0,0 z m 10.91666,-1.68799 c 10.89827,-14.7134 11.2743,-1.80789 0.78333,0.89374 z m 24,-1.52038 c -9.75267,-6.80115 9.34807,-1.73551 11.34438,-9.29795 2.87918,5.9148 -7.21371,8.97474 -11.34438,9.29795 z m 48.11112,0.95542 c 10.39838,-7.28984 9.91148,-1.51492 0,0 z m -25.69445,-4.41372 c 7.33651,-0.71269 -2.05263,2.21681 0,0 z m 40.686,-3.64416 c -3.48366,-6.69374 -9.15623,-9.46989 4.27739,-1.93837 0.8466,1.9331 -9.6977,5.28816 -4.27739,1.93837 z m -154.99741,-1.55613 c 1.23195,-4.99037 0.56971,5.79346 0,0 z M 292.66668,304 c -0.11188,-5.10845 6.0977,5.38049 0,0 z m -33.97959,-4.83674 c 4.51253,-7.84255 5.77944,0.95477 0,0 z m -2.68708,-5.02061 c 4.01794,-4.39871 4.06383,1.81002 0,0 z m 40.44778,-5.56561 c 0.32559,-11.72749 4.08792,6.94283 0,0 z m -94.24108,-26.24371 c -1.08115,-26.13257 8.06473,-50.26823 12.73075,-74.8153 1.02719,-15.22449 28.01341,-29.63656 17.48098,-1.74476 -5.60319,29.15065 8.20347,70.17184 -21.2563,87.91832 -14.39435,13.75944 -7.32059,-3.98134 -8.95543,-11.35826 z M 226.15632,236 c 7.46724,-13.39359 -11.47537,-31.01028 -17.74969,-17.43602 -8.85611,13.77138 5.32158,43.12064 16.0013,37.68399 1.24256,-6.66756 1.34156,-13.4968 1.74839,-20.24797 z m 111.93234,37.8785 c 0.15669,-13.44021 5.66296,10.13483 0,0 z m 17.91135,-2.54517 c -1.94536,-7.57354 7.15614,6.36017 0,0 z m -95.33334,-0.66666 c 6.131,-4.7416 0.0863,4.55439 0,0 z m 14.95629,-3.12033 c 6.54924,-15.72729 15.1401,-1.90021 0,0 z m 60.65617,-2.77649 c 25.67448,-14.63118 32.73494,-23.35253 47.67382,-46.10318 -17.91439,-9.07871 -29.28779,-24.22195 -11.95294,-12 4.63108,-1.28013 42.40401,8.54012 18.20226,21.97785 -5.01846,27.72434 -38.3518,16.43991 -53.83375,37.80035 z m 42.08229,-33.85409 c -2.84855,-4.32143 -5.06981,7.15832 0,0 z m -49.02808,31.75091 c -11.48483,-4.10182 14.13254,2.14558 0,0 z m -16,-5.33334 c -4.55245,-4.6447 10.75886,4.97017 0,0 z m -128.3509,-21.66666 c -0.18624,-20.01792 18.22543,-22.58201 9.22671,-1.9256 -0.15523,8.31424 -13.33041,16.75616 -9.22671,1.9256 z m 117.7895,-36.58798 c -7.63055,-13.41143 13.4177,-1.0562 2.40523,-18.11019 2.16568,3.11481 10.73126,6.48845 8.66949,-3.63517 13.61494,2.94958 -10.2881,15.72672 -11.07472,21.74536 z m 32.6399,-9.12109 c -5.58353,-6.28246 9.49484,6.4794 0,0 z m -38.0785,-2.46689 c 3.2145,-9.0573 2.82851,5.04154 0,0 z m -14.65512,-10.15738 c -6.20202,-5.04886 2.19123,0.84186 0,0 z m 26.65512,-8.4 c -11.45917,-20.80325 7.38993,-23.83809 9.24063,-12.69441 -13.7017,-5.85917 -3.13908,6.85749 -8.88452,14.98974 l -0.35615,-2.29533 z m 2.66667,-18.26666 c -4.90957,-5.36582 -5.11524,5.2159 0,0 z m -25.84208,11.26408 c -1.81425,-10.7965 6.70882,0.99354 0,0 z m 13.84208,-5.34277 c 3.0335,-4.94961 2.39684,6.29439 0,0 z m -40.28983,-7.66321 c 13.24811,-1.38995 -6.32352,3.69891 0,0 z m 22.9565,-11.59144 c 9.48769,-9.22928 0.30596,8.51448 0,0 z m 31.48734,1.58253 c -12.60293,-0.52724 -34.14906,-15.75317 -13.3826,-7.88617 4.25452,-14.60258 -7.05433,-10.40141 11.60736,-19.62458 8.58178,-23.6114 -5.38239,7.17838 4.54557,7.0077 -2.35583,10.63484 3.79983,18.0955 -2.77033,20.50305 z m -1.89475,-15.18994 c -18.56128,-3.22571 7.50129,10.99335 0,0 z M 315.6673,121 c -8.03307,-10.986 -2.19594,7.63866 0,0 z m -27.56203,0.88889 c 1.23195,-4.99037 0.56969,5.79346 0,0 z m 29.488,-13.22222 c 0.89805,-7.5809 0.59814,8.31202 0,0 z m -3.95744,-13.333337 c 16.17448,-3.924107 8.70045,-0.05047 0,0 z"
         id="path5" />
      <path
         style="fill:#665230"
         d="m 235.33334,342.66667 c -0.11186,-5.10848 6.0977,5.38051 0,0 z m 6.50682,-10.11738 c -20.24641,-1.04455 -44.23607,-15.96001 -57.19955,-6.77619 -2.00715,18.97474 -53.61925,-17.586 -26.66197,-0.8993 17.54045,-13.38477 34.24949,-28.5078 54.23395,-40.62309 11.25045,4.70388 5.24866,-15.68227 15.07902,2.25948 1.67854,-15.98915 8.1545,-35.51107 21.93628,-11.84352 26.26719,-15.83742 39.01318,-23.18879 29.53109,-52.23141 -9.55498,-1.9186 -20.09181,14.69222 -23.42566,-3.97855 -26.90807,-2.91353 16.83508,-6.4559 0.35376,-17.72626 0.17375,-29.36828 -14.93127,-8.70884 -11.69758,9.02888 -10.44397,4.85404 5.11714,33.92224 -9.29859,15.06642 -5.4283,18.47123 -7.7146,21.39444 -3.84734,-0.86742 3.53061,-15.41964 16.7012,-16.23036 12.90498,-38.46823 -2.89431,-22.55307 8.42425,-37.18049 20.41443,-34.53298 5.4462,9.71205 -20.91274,17.89429 0.85921,12.85105 2.77741,20.8125 -5.66988,43.43686 -0.62116,62.06367 8.60308,-15.2377 16.0943,-3.4279 27.02648,-10.88389 0.001,-7.06897 25.25604,-22.13344 22.97426,-35.29139 14.16858,7.42243 -15.64325,22.83852 -16.92582,34.97011 -20.6407,2.06464 -5.92053,25.07878 2.38375,24.39738 -15.8938,-12.04308 10.1993,-33.36151 5.64965,-5.80002 1.96489,14.60347 -12.85442,9.29778 -3.27961,24.591 -9.98646,7.11068 -40.65759,21.7859 -13.89723,26.61453 16.94865,-5.59979 22.62619,-18.59553 23.05013,-29.16795 -4.10578,15.07494 34.0007,12.02221 6.99738,24.37517 -13.53275,-5.32676 -33.75373,8.27203 -10.93284,14.82062 21.47545,17.04012 -23.58039,11.57634 -12.38477,-2.89695 -4.6767,-16.09206 -16.12833,5.53235 -19.12085,3.69679 -15.84537,7.75941 45.00281,13.6818 27.29552,14.38135 -16.25253,-9.08425 -17.30052,22.88802 -25.16134,6.70474 -7.29962,14.55245 -1.92058,14.68663 -11.79,7.16599 -15.05358,2.37582 -18.29752,12.98951 -24.44558,8.99997 z m -3.18588,-6.5361 c 7.01141,-15.89254 -11.17883,-1.25404 -11.98761,-7.56655 0.10544,5.40807 6.61716,15.90978 11.98761,7.56655 z m -14.25695,-4.43316 c 0.45099,-19.80645 35.44339,10.84455 30.11022,-17.99979 28.07697,-15.27268 -30.43579,6.358 1.47884,-9.13401 6.47865,-10.48202 -42.3853,7.1306 -47.25956,10.75721 13.35192,4.95689 -13.90017,14.54996 5.72351,15.79656 1.56914,2.80401 12.07254,9.78856 9.94699,0.58003 z m 21.4758,-8.7632 c -20.45634,-11.93121 15.58097,-4.7495 0,0 z m -23.94081,-7.10472 c 16.92389,-16.33541 -2.16922,13.16514 -3.63955,3.93151 z m 53.88353,8.90971 c 13.6189,0.141 6.93245,-14.21547 -4.63632,-4.92122 -0.22632,3.51053 0.81124,14.95815 4.63632,4.92122 z m -8.17695,0.57262 c -5.69698,-1.5208 -1.45725,2.46053 0,0 z m -55.93345,-17.88492 c -4.61701,-11.94817 -18.51177,14.39449 0,0 z m 58.34452,-1.39035 c 1.49125,-33.40925 -22.9952,-18.19779 0,0 z m -36.71663,-5.2525 c -1.20877,-4.59894 -3.66128,4.9773 0,0 z m 9.08333,-2.58334 c -1.95807,-5.43997 -5.87187,8.29844 0,0 z m 33.58334,-4.84776 c -5.55705,-15.08599 -4.883,15.24216 0,0 z m -26,0.76443 c -16.52336,-4.58082 -6.26319,4.62389 0,0 z m -4.66667,-6.66667 c -3.01128,-9.87674 -10.16954,8.79145 0,0 z m 31.59397,-4.66567 c 16.19335,-15.22884 -0.87396,-11.83622 -4.20096,-2.25145 -16.78903,-9.62283 -12.59559,8.72643 4.20096,2.25145 z m 42.8176,-2.82752 c -14.97734,-6.86983 6.03687,8.66996 0,0 z m -73.07824,1.52029 c -17.67668,-13.52302 -18.88943,2.57023 0,0 z m 52.70277,-12.75217 c -1.03189,-11.71793 -8.69287,5.26553 0,0 z m -6.63096,-2.72444 c -3.62813,-36.09194 -10.57647,4.22879 0,0 z M 287.2764,238.7588 c -0.33718,-7.12071 -4.58022,4.26936 0,0 z m 17.08128,-10.23564 c -0.0278,-17.48573 -11.21643,1.56422 -0.2143,2.34937 z m -65.69101,-7.18983 c -3.66129,-4.9773 -1.20875,4.59894 0,0 z m 16.66667,-6.66666 c 4.60616,-5.21652 -14.23843,4.21016 0,0 z m 0.2706,-40.26998 c 21.25004,-16.69204 -22.78979,7.15835 0,0 z M 152,313.25464 c 2.20773,-2.97892 3.33377,4.56567 0,0 z m 1.34468,-8.60164 c -0.33626,-14.70834 8.45545,6.66036 0,0 z m 175.31462,-1.99826 c -0.0815,-12.29689 23.92031,-12.93648 2.67585,-3.98807 -4.18307,-1.24353 1.03032,8.53965 -2.67585,3.98807 z m -173.98996,-9.44283 c 2.86761,-16.30131 2.09246,-29.33346 12.72009,-18.52233 -2.59194,-14.14882 6.98584,-36.18126 10.64641,-12.02291 16.4639,-7.04652 10.5001,-7.17484 2.42641,-12.61479 8.76696,1.80635 11.91101,1.11917 9.69545,-6.37647 9.40694,9.56104 12.86056,-16.10038 12.30658,7.79801 2.91666,23.74521 -4.80873,10.49191 -22.62076,20.81893 7.82519,3.33925 0.49587,15.48417 -13.5101,15.33574 0.50091,7.48856 -8.17327,14.78254 -11.66408,5.58382 z m 6.664,1.45476 c -3.87277,-5.59107 -5.05571,5.14818 0,0 z m -0.78161,-3.81403 c -1.01658,-7.09842 -8.30693,4.93011 0,0 z m 30.85341,-25.63548 c -0.26284,-9.10065 -8.73437,4.53826 0,0 z m 9.9282,-5.80514 c -3.69691,-13.57719 -4.5638,11.61821 0,0 z m -27.66667,36.96361 c -5.90698,-5.95454 10.57157,-0.69799 0,0 z m 171.41667,-6.61978 c 7.33651,-0.71267 -2.05262,2.21678 0,0 z m 9.25,-5.61361 c -6.59157,-11.93285 10.63759,5.55021 0,0 z m -31,-0.14224 c 4.75431,-5.15323 7.32914,4.42035 0,0 z m 11.66667,-5.37488 c -8.89406,-16.04104 3.94763,-17.92072 3.90562,-1.05144 15.23398,-14.78031 15.65402,5.06396 -3.90562,1.05144 z m 13.97222,-4.76401 c -5.69697,-1.52079 -1.45725,2.46051 0,0 z m -130.30556,-4.89679 c 7.67084,-8.39989 9.02216,-3.45834 0,0 z m 8.11413,-8.29765 c 0.80415,-8.35033 4.57097,-3.99085 0.32791,0.35416 z m 91.21921,-2.09045 c -3.33388,-4.99019 24.18087,8.43446 0,-2e-5 z M 228.7524,247.60916 c 3.54065,-5.67727 -1.0215,5.24079 0,0 z m 13.46983,-1.83138 c -5.31266,-15.22734 12.45494,5.94232 0,0 z m 8.08456,-13.44445 c -7.77791,-18.25547 13.87073,9.17453 0,0 z m 119.02655,-25.62482 c 4.07479,-2.94839 6.03667,4.65871 0,0 z M 312.66668,204 c 6.13101,-4.74156 0.0863,4.55438 0,0 z m 43.33333,-2.57673 c -15.40574,-6.48763 -27.54245,-15.22482 -4.48382,-3.90846 2.75919,-1.06276 13.60772,7.5175 4.48382,3.90846 z m -77.87637,-11.8899 c 0.8834,-12.41211 12.30477,1.58277 0,0 z m 47.2097,-2.20004 c -13.42583,-7.33855 21.81139,7.72305 0,0 z m -20,-4.66666 c 3.8792,-5.08894 4.97816,5.34639 0,0 z m -24,-4.22223 c 1.73683,-11.70508 2.45708,13.00722 0,0 z m 4.72361,-18.35231 c 0.33717,-7.12071 4.58022,4.26936 0,0 z M 315.33334,156 c -0.3815,-8.9856 6.4069,2.40158 0,0 z m -7.33333,-5.33333 c 4.90957,-5.36582 5.11524,5.2159 0,0 z m 7.61518,-14.1626 c -4.69991,-15.07892 8.18115,-8.35401 0,0 z m -20.94851,-6.18334 c -11.89018,-8.65031 5.93642,-17.64889 -3.2788,-5.99638 14.21441,-11.9508 17.81502,8.81227 3.2788,5.99638 z m 17.2057,-9.80785 c -2.41871,-7.7333 9.66182,7.64138 0,0 z m 0.92098,-7.31953 c -0.37339,-14.077882 12.6818,-22.671523 4.53998,-6.5736 6.16164,3.16346 -10.97362,14.82948 -4.53998,6.5736 z"
         id="path4" />
      <path
         style="fill:#4a371d"
         d="m 238.21469,343.10357 c 9.68191,-11.11334 3.56804,-9.85228 14.74032,-13.14512 10.1853,-15.47047 32.95207,-0.052 6.64159,5.39184 -7.00362,2.39675 -13.64973,8.49434 -21.38191,7.75328 z m -7.11626,-15.63886 c -10.45975,-15.68042 0.24737,-2.57398 7.64851,-10.40333 7.46757,4.39691 -5.63377,16.71361 -7.64851,10.40333 z m 7.56824,-4.79804 c -3.40656,-4.78328 -3.40661,4.78327 0,0 z m -85,1.78362 c -2.1854,-17.61233 0.64378,-23.91396 11.49521,-32.98842 1.075,-8.36007 28.16953,-7.25645 16.83813,-16.7952 -8.3867,-3.24574 23.07755,-10.30832 18.84445,-7.92464 -1.49828,26.45669 36.65273,-7.21199 29.31981,-23.4087 0.3429,-9.59523 4.07181,-26.80471 11.49771,-11.57919 -1.35493,-13.39015 0.93912,-42.68857 10.54545,-46.14689 5.08032,12.14409 13.1882,27.64417 -6.14286,28.52107 2.61955,8.70928 16.93506,0.33342 15.74665,15.19207 19.42718,-24.30136 19.95252,12.1524 18.61383,20.66086 0.63734,5.96494 -40.81114,31.88428 -33.31963,17.58108 9.04077,12.54961 36.491,-18.30828 29.88298,-33.39167 3.51393,-29.02947 -32.5741,23.29742 -32.60011,-11.28634 -2.48097,13.2559 14.25438,36.55801 -6.21272,38.11539 7.32598,8.82886 -13.29136,-5.6954 -5.56983,11.64101 -5.51665,7.01429 -7.23163,21.0477 -10.31972,4.62707 -3.81903,11.377 -24.71561,11.20019 -38.38245,27.04933 -9.92823,4.69447 -18.44029,20.85703 -30.2369,20.13317 z m 2.47173,-7.51189 c -6.29085,-2.70147 1.89723,6.4607 0,0 z m 10.37089,-3.86802 c 17.86361,-11.61162 -9.46909,-6.33586 -5.4123,2.7563 z m -10.67595,-4.73705 c -3.36238,-5.67412 -3.13888,6.31961 0,0 z m 22.96096,-5.15378 c 2.41871,-7.7333 -9.66182,7.64138 0,0 z m -18.03029,-3.87484 c -10.17012,-4.36231 5.53475,6.17801 0,0 z m 33.90266,-5.97138 c 8.19018,-4.23699 38.49176,-30.0295 12.78963,-15.62248 -8.52865,5.68011 -40.65971,11.78867 -18.56301,20.31853 l 2.69446,-2.1108 z m -17.33333,1.25465 c -7.42687,-5.93425 -6.03008,7.0677 0,0 z m 14.66667,-22.16326 c -2.64538,-8.8613 -6.89188,13.72107 -0.52566,2.49808 z m 35.23567,-1.9629 c 6.78637,-18.72216 -12.97825,14.71356 0,0 z m 18.64172,-27.12849 c -11.3298,-10.40904 3.0293,11.9748 0,0 z M 255.95565,233 c -8.19001,-19.59614 -9.65352,6.00906 0,0 z m 106.36081,88.27763 c -3.18683,-18.09754 -2.16931,-23.14805 0.8192,-3.61088 0.83074,-1.10839 0.65301,12.04114 -0.8192,3.61088 z m -78.31645,-1.12455 c 3.74942,-18.60824 35.06239,-9.95722 5.00322,-0.52877 -0.13784,-0.83332 -5.01929,3.43169 -5.00322,0.52877 z M 271.9818,317 c -4.94067,-19.80318 25.64175,-4.23113 3.83405,-2.37818 2.81621,1.65669 -4.79093,6.43595 -3.83405,2.37818 z m 10.68488,-7 c -3.37376,-6.94303 -2.71709,6.69317 0,0 z m 66.66666,6 c -2.20226,-15.07436 9.61495,5.58701 0,0 z M 202.02978,300.26347 c 6.11922,-15.61704 18.75739,3.18399 0,0 z M 329.43861,301 c 12.00604,-10.66874 29.32774,-11.90663 5.92344,-2.175 -1.69171,-0.85195 -6.20402,5.59507 -5.92344,2.175 z m 28.5614,-6.33333 c -3.04256,-23.9257 5.43826,20.52859 0,0 z m -93.2991,-1.26712 c -13.33727,-21.96346 10.44117,-18.41088 4.76529,3.31668 l -1.51067,0.6171 -3.25465,-3.93378 z m 4.63243,0.38253 c -5.40911,-29.08742 -10.59735,-5.99002 0,0 z M 156,290.80932 c 6.75528,-7.97963 5.67685,5.55146 0,0 z m 124.13407,-9.54978 c -11.93959,-13.48356 34.84351,-18.0352 18.45976,-36.5051 11.20471,1.60875 6.84827,-25.20281 8.73951,-0.34752 -2.22651,14.27754 16.22219,7.91297 0.44165,14.92641 11.58458,11.93438 -19.92783,30.41395 -27.64092,21.92621 z m 14.59487,-3.129 c 21.07407,-6.9667 9.22706,-25.15071 -5.78997,-8.80872 -16.54124,4.69014 -4.56786,19.37252 5.78997,8.80872 z m -55.3956,0.53613 c 2.84993,-14.48322 12.40543,6.22196 0,0 z m 107.08334,-4.91082 c 7.3365,-0.71266 -2.05264,2.21677 0,0 z m -29.75,-2.8111 c -10.49809,-9.11457 15.87667,5.43283 0,0 z M 197.99263,261.3214 c -1.6173,-13.37616 8.28478,3.15812 0,0 z m 129.79244,-0.68771 c -28.43995,-7.48432 21.48842,-0.38018 9.75881,1.28609 -3.20531,1.47321 -6.66177,-1.10315 -9.75881,-1.28609 z m -39.78506,-4.65411 c -0.51222,-11.21143 1.19665,-20.72015 4.93528,-1.55535 0.58707,2.50129 -3.56557,4.25204 -4.93528,1.55535 z m 80.46869,-11.65925 c -14.66645,-9.97058 -45.54422,-17.49128 -53.85115,-23.27467 17.20704,5.07256 34.21399,10.79024 51.30273,16.24191 16.75931,-15.54164 -1.63534,-0.21925 3.20705,7.50642 l -0.86561,0.28979 z m -72.80202,-4.42713 c -9.53089,-12.36393 -14.15515,-20.87834 3.75072,-26.00561 5.35793,-25.7765 28.92739,-35.01442 49.45304,-16.03319 14.6748,1.78604 14.28433,9.8017 27.12957,16.31864 -16.13018,-1.00436 -49.70128,-29.47186 -53.75912,-21.05149 5.45153,15.75548 -37.55632,23.5776 -13.32096,25.94061 -1.05371,18.15192 -10.53052,-14.23953 -14.08368,7.68367 -5.37308,3.3297 14.29956,16.9553 0.83043,13.14737 z M 315.33334,204 c 0.11188,-5.10845 -6.09771,5.3805 0,0 z m -30,33.92131 c 2.97815,-5.30378 1.48688,6.47777 0,0 z m 90.66667,-10.42472 c 4.31687,-6.17593 4.69599,-1.04394 0,0 z m 5.66667,-5.82992 c -7.60196,-13.3407 7.16132,-2.97686 0,0 z M 248.00001,174.58798 c 11.32051,-7.26229 19.54305,-6.07474 2.07505,1.34575 l -1.53453,-0.31089 z m 9.33333,-21.0127 c 3.04974,-6.67312 4.27545,1.49517 0,0 z m 33.33334,-31.02392 c 10.51924,-10.53774 8.79062,7.73139 0,0 z m 24.74351,-26.427015 c 8.96686,-5.308086 10.28732,3.291603 0,0 z"
         id="path3" />
      <path
         style="fill:#1e1a1b"
         d="m 236.00001,322.66667 c 3.40656,-4.78328 3.40661,4.78327 0,0 z m -82.04139,-4.06696 c -1.25287,-6.47313 6.2635,3.07515 0,0 z M 160,313.87517 c 7.76482,-14.65133 25.11292,-5.72399 0,0 z m 179.04782,-4.89638 c -22.8258,-7.88559 19.10404,-29.12723 11.15904,-2.34599 3.6199,12.75215 -6.14203,6.09199 -11.15904,2.34599 z M 280.00001,310 c 3.37375,-6.94302 2.71708,6.69317 0,0 z m -126.66667,-1.33333 c 2.79786,-6.20411 2.14591,5.28145 0,0 z m 21.66604,-5 c 8.03308,-10.98602 2.19594,7.63867 0,0 z m -17.0542,-3.75538 c -1.97479,-6.74945 9.87464,6.03915 0,0 z m 24.61269,-2.95319 c -6.27886,-20.7505 23.21406,-6.35842 30.02591,-22.41948 22.95783,-11.99495 -25.48352,30.22176 -30.02591,22.41948 z M 265.57847,291 c -8.5111,-20.93856 6.3359,-4.7287 2.34784,3.48606 z m 16.44696,-10.9719 c -5.45372,-16.35258 44.27863,-23.96754 16.56971,-4.65642 -4.55029,2.87184 -11.07013,9.97885 -16.56971,4.65642 z m -94.41684,-2.29669 c 0.47358,-16.8161 10.06717,-2.18778 0,0 z m 35.05808,-5.49899 c 9.27031,-19.78335 6.28064,5.45592 0,0 z m 25.89231,-2.18679 c -24.14123,-10.33889 12.27218,-12.01368 -2.57824,-30.95077 -4.9015,-24.33748 -0.33512,-9.8335 9.30006,-3.00985 13.15606,-14.36089 29.23435,-16.89825 21.06607,8.19753 2.22379,11.53794 -20.08192,29.63254 -27.78789,25.76309 z m 72.1077,-13.18061 c -12.73874,-0.54981 -15.56619,-8.43359 -13.55406,-19.89846 11.71276,-18.17696 -14.95892,-19.44386 -1.60227,-23.34682 20.98415,-2.23411 9.83949,-39.57492 28.75585,-17.08148 15.0354,10.4188 66.04748,15.36096 35.43869,37.02832 -6.97364,8.30024 -18.94564,-3.68003 -28.0653,-4.08714 -15.34636,-5.44912 -42.77552,-13.0664 -11.82884,-1.85925 13.88436,6.78726 57.79443,14.84977 21.81764,25.69971 -10.3909,6.88056 -19.38565,9.8588 -30.96171,3.54512 z M 316.00001,94.666667 c 6.16068,-5.392592 7.16955,5.219143 0,0 z"
         id="path2" />
    </g>
  </g>
  <metadata
     id="metadata15">
    <rdf:RDF>
      <cc:Work
         rdf:about="">
        <dc:title>Sentinel-2 </dc:title>
        <dc:description>https://sentiwiki.copernicus.eu/__attachments/1671710/image-20230517-132224.png?inst-v=96021aea-734a-44d2-9ca8-2228c7de7290</dc:description>
      </cc:Work>
    </rdf:RDF>
  </metadata>
</svg>
