<?xml version="1.0" encoding="UTF-8" standalone="no"?>
<!-- Created with Inkscape (http://www.inkscape.org/) -->

<svg
   version="1.1"
   id="svg1"
   width="442.62231"
   height="314.22858"
   viewBox="0 0 442.62232 314.22858"
   sodipodi:docname="Sentinel-2-icon.svg"
   inkscape:version="1.4 (e7c3feb1, 2024-10-09)"
   xmlns:inkscape="http://www.inkscape.org/namespaces/inkscape"
   xmlns:sodipodi="http://sodipodi.sourceforge.net/DTD/sodipodi-0.dtd"
   xmlns="http://www.w3.org/2000/svg"
   xmlns:svg="http://www.w3.org/2000/svg"
   xmlns:rdf="http://www.w3.org/1999/02/22-rdf-syntax-ns#"
   xmlns:cc="http://creativecommons.org/ns#"
   xmlns:dc="http://purl.org/dc/elements/1.1/">
  <title
     id="title1">Sentinel-2 vector</title>
  <defs
     id="defs1" />
  <sodipodi:namedview
     id="namedview1"
     pagecolor="#ffffff"
     bordercolor="#000000"
     borderopacity="0.25"
     inkscape:showpageshadow="2"
     inkscape:pageopacity="0.0"
     inkscape:pagecheckerboard="0"
     inkscape:deskcolor="#d1d1d1"
     inkscape:zoom="0.61618772"
     inkscape:cx="193.12296"
     inkscape:cy="174.45982"
     inkscape:window-width="1104"
     inkscape:window-height="562"
     inkscape:window-x="0"
     inkscape:window-y="25"
     inkscape:window-maximized="0"
     inkscape:current-layer="g1" />
  <g
     inkscape:groupmode="layer"
     inkscape:label="Image"
     id="g1"
     transform="translate(-148.7689,-90.666667)">
    <path
       style="fill:#000000"
       d="m 571.15567,401.30706 c -8.89772,-2.11507 -21.49772,-5.33243 -28,-7.14968 -6.50227,-1.81724 -18.42232,-4.55988 -26.48899,-6.09474 -37.2248,-7.08283 -58.42455,-13.47629 -60.22265,-18.16207 -0.64862,-1.69028 -0.99952,-1.65056 -2.40555,0.27231 -2.04655,2.79883 -6.14709,2.08684 -48.03847,-8.34105 -30.26453,-7.53365 -33.78582,-8.89718 -37.46061,-14.50562 -1.19043,-1.81682 -2.79149,-2.91576 -3.55791,-2.44208 -0.79834,0.4934 -0.99751,0.2205 -0.46633,-0.63896 1.34599,-2.17786 -2.69187,-9.2433 -5.85651,-10.24772 -1.48717,-0.47201 -3.59048,-2.97998 -4.67403,-5.57326 -1.34032,-3.20786 -2.59807,-4.47409 -3.93464,-3.9612 -1.08051,0.41464 -2.37649,0.0874 -2.87995,-0.72723 -0.5892,-0.95335 -0.24808,-1.12893 0.9573,-0.49274 1.02998,0.54361 0.37268,-0.25304 -1.46065,-1.77033 -1.83334,-1.51729 -4.1145,-2.47623 -5.06925,-2.13097 -0.95476,0.34525 -1.40708,0.0957 -1.00517,-0.55465 1.05361,-1.70478 -12.17699,-9.86776 -14.08372,-8.68933 -1.00048,0.61832 -1.23553,0.41191 -0.63585,-0.5584 1.50027,-2.42749 -2.22716,-1.84562 -12.44941,1.94341 -5.16778,1.91552 -9.07094,4.00864 -8.6737,4.6514 0.39725,0.64275 -0.30733,0.77355 -1.56571,0.29066 -1.54189,-0.59168 -1.97668,-0.37429 -1.33334,0.66667 0.64335,1.04095 0.20856,1.25834 -1.33333,0.66666 -1.67518,-0.64282 -1.99566,-0.405 -1.19657,0.88795 0.69315,1.12155 0.5736,1.44591 -0.32762,0.88893 -1.8651,-1.1527 -5.85289,0.40699 -4.91609,1.92275 0.40054,0.6481 -0.30133,0.78326 -1.55972,0.30037 -1.54189,-0.59168 -1.97668,-0.37428 -1.33333,0.66667 0.64334,1.04095 0.20855,1.25834 -1.33334,0.66667 -1.67517,-0.64283 -1.99566,-0.405 -1.19657,0.88795 0.71908,1.16349 0.57567,1.44718 -0.42038,0.83159 -3.41919,-2.11317 -6.7635,1.84272 -8.34237,9.86794 -1.72188,8.75216 -3.8912,10.64748 -3.8912,3.39973 0,-2.52339 -0.56086,-4.93461 -1.24635,-5.35826 -1.6462,-1.01741 -13.48338,4.76552 -12.61863,6.1647 0.36858,0.59638 -0.35944,0.68923 -1.61783,0.20635 -1.67518,-0.64283 -1.99566,-0.405 -1.19657,0.88795 0.72524,1.17347 0.57619,1.44751 -0.44427,0.81683 -0.84462,-0.522 -5.10879,0.65443 -9.47595,2.61429 -9.33384,4.18878 -4.5224,4.76516 -61.34784,-7.34903 -20.87109,-4.44935 -38.4824,-8.62469 -39.13625,-9.27854 -0.6962,-0.6962 1.12406,-19.06102 4.39277,-44.31923 7.0053,-54.13189 7.07146,-54.48077 10.90677,-57.51644 10.36458,-8.20364 17.05501,-14.63636 16.37205,-15.74142 -0.43236,-0.69958 -0.18475,-1.10709 0.55026,-0.90559 1.92447,0.5276 17.54823,-13.44614 17.17491,-15.36108 -0.17219,-0.88324 0.35155,-1.48434 1.16387,-1.33579 0.81233,0.14855 8.01233,-5.78324 16,-13.18176 7.98768,-7.39852 18.12306,-16.47637 22.52306,-20.17299 4.4,-3.69663 7.85719,-7.19325 7.68266,-7.77026 -0.17454,-0.57702 0.42546,-0.76583 1.33333,-0.4196 2.7479,1.04798 25.69238,-6.75757 25.28431,-8.60153 -0.20151,-0.91053 0.21947,-1.29343 0.9355,-0.8509 0.71603,0.44253 3.01417,-0.86287 5.10697,-2.90089 2.09281,-2.03803 2.57183,-2.8055 1.0645,-1.7055 -2.72486,1.98851 -2.72597,1.98272 -0.19322,-1.00817 1.40106,-1.6545 2.82995,-2.72561 3.17531,-2.38025 0.34536,0.34536 1.78014,0.0113 3.1884,-0.74239 2.1689,-1.16076 2.42452,-2.27692 1.67148,-7.29854 -1.23538,-8.23808 0.48521,-9.96771 8.92166,-8.96853 6.19772,0.73402 6.93831,0.49206 11.23215,-3.6697 4.05793,-3.9331 4.59695,-5.25347 4.59695,-11.26064 0,-7.921285 1.56651,-10.005113 7.52131,-10.005113 5.16659,0 5.57849,0.539651 6.01135,7.875633 0.31555,5.34791 0.71883,5.87804 6.82542,8.97249 3.56953,1.80881 7.58454,3.10796 8.92225,2.88698 1.3377,-0.22097 3.54687,0.57594 4.90926,1.77091 2.30289,2.0199 11.46171,7.00327 38.72765,21.07195 8.73115,4.5051 11.06466,6.34616 11.65349,9.19422 1.02445,4.95506 4.76261,58.43467 4.76261,68.13574 0,6.1797 0.51928,8.25017 2.32222,9.25915 3.0433,1.70312 1.5219,3.06132 -4.53133,4.04524 -2.69787,0.43853 -5.18233,1.62867 -5.52103,2.64477 -0.4208,1.26239 -0.0332,1.50985 1.22383,0.78141 1.08612,-0.62938 1.38453,-0.56887 0.72853,0.14774 -0.61111,0.66757 -1.81111,1.22824 -2.66667,1.24593 -0.85555,0.0177 -1.4733,1.06123 -1.37276,2.31898 0.10054,1.25776 -0.31702,1.97792 -0.92791,1.60038 -1.11863,-0.69136 -3.90029,7.51826 -3.91412,11.55188 -0.011,3.20884 1.79322,4.19571 19.25705,10.53334 10.62796,3.85689 17.5194,7.2163 20.70235,10.09191 3.74274,3.38134 5.27703,4.02742 7.1178,2.99728 1.7196,-0.96234 5.80706,-0.17469 15.29765,2.94781 20.50897,6.74767 33.70517,12.0394 32.97389,13.22264 -0.76103,1.23138 3.30948,3.14908 4.39022,2.06833 0.38393,-0.38392 -0.10194,-0.69805 -1.07972,-0.69805 -0.97778,0 -1.43592,-0.34185 -1.0181,-0.75968 0.99589,-0.99589 11.20998,4.23262 12.51691,6.4073 0.62283,1.03635 0.0156,0.91529 -1.5762,-0.31428 -2.37623,-1.83544 -2.44412,-1.81454 -0.82513,0.25408 0.97029,1.23974 2.62029,1.92555 3.66667,1.52401 1.04638,-0.40153 1.90251,0.008 1.90251,0.90918 0,1.27633 0.44976,1.26598 2.03147,-0.0467 2.40765,-1.99817 10.45131,-0.16583 36.41067,8.29433 14.16735,4.61714 16.7826,5.91833 18.90294,9.40495 2.37939,3.91259 4.91232,10.37345 23.12797,58.9935 4.67068,12.46667 9.05044,22.55818 9.7328,22.42558 0.68236,-0.13259 1.2152,2.55674 1.18407,5.97631 -0.0409,4.48938 -0.61244,6.2915 -2.05658,6.48407 -1.1,0.14668 -9.27995,-1.46382 -18.17768,-3.5789 z m -89.34015,-96.64039 c -0.42211,-1.1 -1.00328,-2 -1.29149,-2 -0.28821,0 -0.52402,0.9 -0.52402,2 0,1.1 0.58117,2 1.29149,2 0.71032,0 0.94613,-0.9 0.52402,-2 z m -3.76486,-0.58472 c -0.42537,-0.68827 0.28922,-1.93357 1.58798,-2.76734 2.22741,-1.42996 2.22282,-1.47243 -0.081,-0.74862 -1.34331,0.42204 -2.69331,0.76734 -3,0.76734 -0.30669,0 -0.55762,0.9 -0.55762,2 0,1.1 0.63541,2 1.41203,2 0.77661,0 1.06399,-0.56312 0.63862,-1.25138 z m 8.61602,-4.59311 c 0,-0.28114 -1.20083,-0.82518 -2.66851,-1.20899 -1.46767,-0.3838 -2.33226,-0.15378 -1.92131,0.51116 0.71767,1.16121 4.58982,1.74993 4.58982,0.69783 z M 306.66668,110 c 1.72232,-1.83333 3.4315,-3.33333 3.79817,-3.33333 0.36666,0 -0.74251,1.5 -2.46484,3.33333 -1.72233,1.83333 -3.4315,3.33333 -3.79817,3.33333 -0.36667,0 0.74251,-1.5 2.46484,-3.33333 z m 2.77193,-13.444444 c 0.064,-1.553258 0.37992,-1.8692 0.80555,-0.805556 0.38516,0.9625 0.33779,2.1125 -0.10526,2.555556 -0.44306,0.443055 -0.75819,-0.344445 -0.70029,-1.75 z"
       id="path1" />
  </g>
  <metadata
     id="metadata1">
    <rdf:RDF>
      <cc:Work
         rdf:about="">
        <dc:title>Sentinel-2 vector</dc:title>
      </cc:Work>
    </rdf:RDF>
  </metadata>
</svg>
