<?xml version="1.0" encoding="UTF-8" standalone="no"?>
<svg xmlns="http://www.w3.org/2000/svg" version="1.2" baseProfile="tiny" viewBox="0.00 0.00 512.00 191.00" width="512.00" height="191.00">
<path fill="#212d4a" d="
  M 486.61 0.00
  L 511.02 19.74
  A 0.71 0.71 0.0 0 1 510.81 20.96
  Q 490.55 28.06 465.76 36.72
  Q 465.04 36.97 464.72 36.87
  Q 464.10 36.68 463.70 37.07
  Q 463.11 37.64 462.34 37.91
  Q 435.75 47.20 409.17 56.49
  A 0.82 0.81 -31.6 0 1 408.32 56.29
  L 407.04 54.97
  Q 406.84 54.38 406.25 54.22
  L 405.00 52.99
  Q 404.61 51.31 402.94 50.78
  A 1.16 1.16 0.0 0 1 402.23 50.14
  Q 401.52 48.55 399.65 47.49
  A 0.76 0.76 0.0 0 1 399.29 46.99
  Q 399.27 46.87 399.22 46.71
  A 1.68 1.62 -79.0 0 0 398.74 45.97
  L 394.68 42.40
  A 1.28 1.24 64.2 0 0 393.83 42.09
  L 393.41 42.11
  Q 393.31 41.44 392.62 40.85
  Q 390.77 39.26 389.01 37.42
  A 1.67 1.60 74.9 0 0 388.25 36.96
  Q 386.84 36.57 386.33 35.16
  Q 385.70 33.51 383.84 33.05
  Q 383.80 32.86 383.25 32.69
  Q 382.72 32.14 382.72 31.58
  A 0.63 0.63 0.0 0 1 383.18 30.97
  Q 432.78 16.06 437.40 14.69
  Q 438.01 14.50 438.42 14.69
  A 0.77 0.76 34.1 0 0 439.28 14.53
  Q 439.91 13.88 441.46 13.43
  Q 463.73 6.93 485.91 0.00
  L 486.61 0.00
  Z
  M 440.27 16.05
  Q 441.06 17.14 442.10 17.84
  A 0.15 0.15 0.0 0 0 442.30 17.63
  Q 441.58 16.66 440.50 15.92
  L 440.03 15.22
  Q 438.71 14.80 440.27 16.05
  Z
  M 447.5684 22.3313
  A 6.72 0.23 -139.0 0 0 452.4891 26.9136
  A 6.72 0.23 -139.0 0 0 457.7116 31.1487
  A 6.72 0.23 -139.0 0 0 452.7909 26.5664
  A 6.72 0.23 -139.0 0 0 447.5684 22.3313
  Z
  M 459.7929 33.1900
  A 2.10 0.23 -142.1 0 0 461.3087 34.6615
  A 2.10 0.23 -142.1 0 0 463.1071 35.7700
  A 2.10 0.23 -142.1 0 0 461.5913 34.2985
  A 2.10 0.23 -142.1 0 0 459.7929 33.1900
  Z"
/>
<path fill="#9baabf" d="
  M 440.50 15.92
  Q 440.39 15.98 440.27 16.05
  L 440.03 15.22
  L 440.50 15.92
  Z"
/>
<path fill="#9baabf" d="
  M 350.55 31.58
  Q 351.59 32.44 353.53 31.01
  Q 356.91 32.04 360.26 31.13
  A 0.72 0.72 0.0 0 0 360.79 30.51
  L 361.10 27.67
  A 0.58 0.58 0.0 0 1 361.92 27.21
  Q 364.60 28.46 363.34 30.63
  A 0.46 0.46 0.0 0 0 363.61 31.30
  C 364.36 31.52 365.44 31.03 366.44 31.47
  Q 377.95 36.55 384.40 39.46
  A 0.28 0.27 -66.7 0 0 384.76 39.31
  L 384.77 39.30
  A 0.22 0.20 -71.9 0 0 384.64 39.02
  Q 383.46 38.66 383.42 37.17
  A 1.23 1.23 0.0 0 0 383.06 36.35
  L 382.60 35.88
  A 0.52 0.52 0.0 0 1 382.60 35.14
  L 383.48 34.26
  A 0.57 0.57 0.0 0 1 384.30 34.26
  L 385.80 35.75
  A 0.36 0.36 0.0 0 0 386.40 35.42
  Q 386.37 35.30 386.33 35.16
  Q 386.84 36.57 388.25 36.96
  A 1.67 1.60 74.9 0 1 389.01 37.42
  Q 390.77 39.26 392.62 40.85
  Q 393.31 41.44 393.41 42.11
  L 388.61 37.76
  A 0.21 0.19 -47.0 0 0 388.33 37.78
  L 388.34 37.79
  A 3.72 3.57 9.4 0 0 389.11 38.82
  L 398.73 47.82
  A 0.05 0.05 0.0 0 0 398.81 47.79
  L 398.86 47.37
  A 0.21 0.19 27.7 0 0 398.80 47.21
  L 393.41 42.11
  L 393.83 42.09
  A 1.28 1.24 64.2 0 1 394.68 42.40
  L 398.74 45.97
  A 1.68 1.62 -79.0 0 1 399.22 46.71
  Q 399.27 46.87 399.29 46.99
  A 0.76 0.76 0.0 0 0 399.65 47.49
  Q 401.52 48.55 402.23 50.14
  A 1.16 1.16 0.0 0 0 402.94 50.78
  Q 404.61 51.31 405.00 52.99
  Q 404.44 52.40 403.84 52.10
  A 0.25 0.25 0.0 0 0 403.55 52.49
  L 405.71 54.78
  A 0.07 0.05 35.8 0 1 405.73 54.84
  L 405.58 55.32
  A 0.06 0.06 0.0 0 1 405.48 55.35
  L 404.08 54.07
  A 1.01 1.01 0.0 0 0 402.80 54.00
  Q 402.21 54.42 400.30 54.08
  A 0.76 0.74 -17.4 0 1 399.92 53.89
  L 392.61 47.04
  A 0.75 0.75 0.0 0 0 391.36 47.70
  L 391.76 50.30
  A 1.78 1.77 16.4 0 0 392.33 51.34
  Q 393.49 52.38 392.62 53.18
  A 1.00 1.00 0.0 0 0 392.33 54.05
  L 395.59 74.90
  A 1.83 1.74 48.3 0 1 395.57 75.55
  L 394.56 79.98
  A 1.14 1.09 70.3 0 1 394.36 80.43
  L 378.14 102.50
  A 0.90 0.90 0.0 0 0 378.12 103.53
  L 378.68 104.35
  A 0.86 0.85 -44.7 0 1 378.67 105.31
  Q 378.24 105.94 377.48 106.14
  A 0.53 0.53 0.0 0 1 376.83 105.56
  Q 376.84 105.53 376.86 105.47
  A 0.43 0.43 0.0 0 0 376.55 104.91
  Q 373.15 104.14 370.24 104.64
  Q 369.15 103.56 366.92 103.84
  A 1.02 0.99 -27.4 0 1 366.12 103.60
  Q 365.34 102.91 364.82 103.47
  A 0.38 0.37 -39.9 0 1 364.23 103.42
  Q 363.73 102.68 362.50 102.90
  A 0.68 0.65 60.9 0 0 362.20 104.05
  Q 363.12 104.93 364.82 104.86
  Q 364.00 105.95 364.65 106.71
  A 0.76 0.76 0.0 0 0 365.82 106.68
  Q 366.38 105.96 366.24 104.95
  Q 366.78 104.74 367.20 105.08
  L 366.34 107.50
  A 1.00 1.00 0.0 0 1 365.58 108.13
  Q 364.71 108.27 363.66 107.54
  Q 363.08 107.15 363.36 106.68
  Q 363.58 106.28 363.49 106.12
  A 0.52 0.51 59.9 0 0 362.79 105.93
  Q 358.08 108.54 353.39 108.39
  C 351.83 108.35 350.77 109.34 349.33 109.62
  A 0.55 0.54 79.8 0 1 348.69 109.17
  L 348.65 108.90
  A 0.27 0.25 -16.1 0 1 348.82 108.61
  L 350.59 107.98
  A 0.84 0.84 0.0 0 0 351.13 107.14
  Q 350.98 105.26 353.54 104.75
  Q 357.62 103.94 359.55 103.31
  A 0.28 0.28 0.0 0 0 359.49 102.77
  L 349.81 101.85
  A 1.01 0.97 36.7 0 0 349.33 101.91
  L 339.86 105.55
  A 4.78 4.77 -52.3 0 1 337.61 105.84
  L 328.39 104.84
  A 0.81 0.81 0.0 0 1 328.21 103.27
  L 334.13 101.13
  A 0.55 0.55 0.0 0 0 334.00 100.06
  L 296.95 96.01
  A 0.54 0.53 -81.1 0 0 296.37 96.44
  L 295.74 99.30
  A 0.85 0.85 0.0 0 1 295.06 99.96
  Q 294.79 100.01 294.36 100.35
  Q 294.09 100.57 294.22 101.18
  Q 294.44 102.28 294.68 103.25
  A 0.77 0.75 79.1 0 1 294.06 104.18
  L 293.76 104.23
  A 0.71 0.71 0.0 0 1 292.95 103.64
  L 292.59 101.34
  A 0.83 0.83 0.0 0 0 292.03 100.68
  Q 290.80 100.27 291.19 98.66
  A 0.48 0.47 86.7 0 0 290.57 98.10
  L 289.17 98.61
  A 0.96 0.95 54.4 0 1 288.27 98.46
  C 287.10 97.55 283.04 95.92 281.01 96.35
  Q 279.85 96.59 278.96 95.46
  A 1.83 1.81 79.5 0 0 278.07 94.84
  L 265.25 90.88
  A 1.87 1.84 77.0 0 1 264.37 90.32
  Q 263.84 89.73 263.48 89.39
  Q 263.31 89.23 262.13 89.63
  Q 255.08 92.04 248.96 93.92
  A 0.34 0.34 0.0 0 0 248.79 94.46
  L 256.08 103.68
  A 0.70 0.70 0.0 0 1 256.16 104.43
  Q 256.00 104.74 254.71 104.42
  A 0.76 0.76 0.0 0 0 254.08 105.78
  Q 254.66 106.20 255.18 107.06
  A 0.44 0.43 60.9 0 1 255.01 107.67
  L 254.99 107.67
  A 0.36 0.36 0.0 0 1 254.51 107.53
  Q 253.08 105.02 250.46 103.92
  A 0.20 0.19 -7.7 0 0 250.23 104.22
  L 254.59 109.61
  A 0.37 0.36 31.7 0 1 254.66 109.90
  Q 254.62 110.15 254.40 110.26
  L 253.66 109.84
  A 1.43 1.34 -1.8 0 1 253.33 109.55
  L 227.41 77.76
  L 228.08 77.63
  A 0.87 0.85 64.3 0 1 228.91 77.93
  L 233.03 82.93
  A 0.76 0.75 40.2 0 0 234.27 82.83
  Q 234.29 82.81 234.02 82.12
  Q 234.95 81.79 234.13 80.52
  Q 235.10 79.76 236.00 79.73
  A 1.02 1.01 -21.0 0 1 236.82 80.09
  L 245.24 90.12
  A 0.47 0.47 0.0 0 0 245.73 90.26
  L 261.24 85.25
  A 0.54 0.54 0.0 0 0 261.60 84.62
  Q 258.75 72.27 256.38 58.12
  C 255.76 54.43 256.76 52.54 259.50 49.62
  Q 265.46 43.24 271.04 36.62
  Q 273.30 40.21 277.31 40.77
  A 0.85 0.85 0.0 0 0 277.77 39.15
  Q 276.51 38.59 275.76 37.58
  A 0.93 0.91 43.8 0 1 275.73 36.53
  Q 278.07 33.01 281.47 32.16
  A 2.68 2.66 -40.9 0 1 283.11 32.27
  Q 288.59 34.43 294.40 33.62
  A 0.23 0.22 83.4 0 0 294.59 33.37
  L 294.59 33.36
  A 0.24 0.23 -2.6 0 0 294.35 33.15
  Q 293.39 33.16 292.50 32.79
  Q 292.65 31.29 293.60 30.31
  A 0.86 0.86 0.0 0 1 294.48 30.08
  Q 297.09 30.87 299.09 32.39
  A 0.84 0.83 62.7 0 0 299.58 32.55
  L 312.76 32.55
  A 0.90 0.90 0.0 0 0 313.65 31.56
  Q 313.40 29.11 315.19 28.60
  A 0.57 0.57 0.0 0 0 315.60 27.96
  L 315.12 24.90
  A 0.60 0.59 81.3 0 1 315.61 24.22
  L 315.91 24.18
  A 0.91 0.90 81.3 0 1 316.95 24.95
  L 317.26 27.29
  A 1.12 1.11 6.1 0 0 317.99 28.19
  Q 318.08 28.23 318.32 28.28
  A 0.68 0.68 0.0 0 1 318.86 29.01
  L 318.55 31.81
  A 0.44 0.43 -87.7 0 0 318.99 32.29
  L 350.55 31.58
  Z
  M 341.56 38.95
  L 345.63 40.88
  A 0.98 0.97 -44.0 0 0 346.48 40.89
  Q 348.37 40.01 350.53 36.92
  A 0.48 0.48 0.0 0 0 350.38 36.24
  L 345.99 33.71
  A 1.30 1.29 33.0 0 0 344.30 34.06
  L 341.34 38.08
  A 0.58 0.58 0.0 0 0 341.56 38.95
  Z
  M 377.67 44.29
  Q 375.39 46.44 373.37 47.13
  A 1.64 1.64 0.0 0 1 371.27 45.09
  L 372.09 42.42
  A 0.21 0.21 0.0 0 0 371.73 42.21
  Q 369.52 44.66 369.78 47.29
  A 1.20 1.20 0.0 0 1 369.57 48.11
  Q 369.23 48.61 369.58 49.05
  A 0.31 0.31 0.0 0 0 370.08 49.03
  Q 370.19 48.86 370.22 48.84
  A 1.20 1.19 29.4 0 1 371.13 48.59
  Q 374.90 49.11 376.95 45.71
  A 0.62 0.62 0.0 0 1 377.92 45.60
  L 378.19 45.87
  A 0.21 0.21 0.0 0 0 378.55 45.69
  L 378.36 44.53
  A 0.41 0.41 0.0 0 0 377.67 44.29
  Z
  M 317.1105 44.2092
  A 1.43 0.31 -107.9 0 0 317.2550 45.6653
  A 1.43 0.31 -107.9 0 0 317.9895 46.9308
  A 1.43 0.31 -107.9 0 0 317.8450 45.4747
  A 1.43 0.31 -107.9 0 0 317.1105 44.2092
  Z
  M 355.39 61.04
  A 0.46 0.45 -49.4 0 0 355.33 60.23
  Q 353.97 59.66 353.59 59.36
  A 3.84 3.40 -40.2 0 0 349.41 59.26
  Q 347.56 60.39 345.38 60.62
  A 0.50 0.50 0.0 0 0 345.26 61.59
  Q 347.00 62.23 349.22 61.53
  A 1.61 1.61 0.0 0 1 350.37 61.61
  Q 351.61 62.19 352.59 61.37
  A 1.02 1.01 -54.1 0 1 353.60 61.20
  Q 354.55 61.56 355.39 61.04
  Z
  M 264.38 72.45
  L 269.51 68.99
  A 0.88 0.88 0.0 0 0 268.92 67.38
  Q 266.13 67.70 263.57 65.95
  A 0.42 0.42 0.0 0 0 262.92 66.37
  L 263.84 72.21
  A 0.35 0.35 0.0 0 0 264.38 72.45
  Z
  M 368.85 78.72
  Q 371.96 77.96 373.44 75.52
  A 0.44 0.44 0.0 0 0 373.12 74.86
  L 368.08 74.31
  A 0.33 0.32 75.9 0 0 367.78 74.82
  L 368.66 76.14
  A 0.80 0.79 55.6 0 0 369.76 76.35
  L 370.61 75.78
  A 0.35 0.35 0.0 0 1 371.04 75.79
  Q 371.41 76.08 371.29 76.59
  A 0.59 0.58 -84.7 0 1 370.75 77.05
  Q 368.86 77.12 368.41 78.20
  A 0.38 0.38 0.0 0 0 368.85 78.72
  Z
  M 354.72 86.68
  Q 354.74 86.71 354.79 86.76
  A 0.62 0.62 0.0 0 1 354.51 87.78
  L 353.48 88.07
  A 0.43 0.43 0.0 0 0 353.20 88.63
  L 353.39 89.16
  A 0.41 0.41 0.0 0 0 353.94 89.40
  Q 362.95 85.70 370.72 82.95
  C 373.23 82.06 375.31 80.65 376.12 78.47
  A 0.66 0.66 0.0 0 0 375.08 77.74
  L 373.32 79.21
  A 4.30 4.20 14.3 0 1 372.02 79.96
  L 354.93 86.12
  A 0.39 0.39 0.0 0 0 354.72 86.68
  Z
  M 363.15 80.04
  Q 362.64 79.84 362.52 79.43
  A 0.52 0.51 2.3 0 0 362.18 79.07
  L 360.99 78.71
  A 0.69 0.68 20.0 0 0 360.15 79.10
  Q 359.60 80.36 358.20 80.42
  Q 358.01 80.43 357.86 80.60
  Q 357.73 80.76 357.69 81.06
  A 0.76 0.75 -6.7 0 1 357.21 81.66
  Q 357.10 81.70 356.41 81.42
  Q 356.05 81.28 355.69 81.52
  Q 354.88 82.05 354.67 82.91
  A 0.35 0.35 0.0 0 0 355.12 83.33
  L 363.13 80.74
  A 0.37 0.37 0.0 0 0 363.15 80.04
  Z
  M 238.2829 88.6489
  A 0.27 0.27 0.0 0 0 237.9031 88.6096
  L 237.8720 88.6349
  A 0.27 0.27 0.0 0 0 237.8328 89.0147
  L 248.0371 101.5711
  A 0.27 0.27 0.0 0 0 248.4169 101.6104
  L 248.4480 101.5851
  A 0.27 0.27 0.0 0 0 248.4872 101.2053
  L 238.2829 88.6489
  Z"
/>
<path fill="#fffffe" d="
  M 287.03 32.39
  Q 287.62 33.06 288.02 32.73
  Q 288.55 32.96 289.22 32.90
  Q 290.09 33.13 290.72 32.90
  Q 291.51 33.11 292.50 32.79
  Q 293.39 33.16 294.35 33.15
  A 0.24 0.23 -2.6 0 1 294.59 33.36
  L 294.59 33.37
  A 0.23 0.22 83.4 0 1 294.40 33.62
  Q 288.59 34.43 283.11 32.27
  A 2.68 2.66 -40.9 0 0 281.47 32.16
  Q 278.07 33.01 275.73 36.53
  A 0.93 0.91 43.8 0 0 275.76 37.58
  Q 276.51 38.59 277.77 39.15
  A 0.85 0.85 0.0 0 1 277.31 40.77
  Q 273.30 40.21 271.04 36.62
  L 276.57 30.79
  A 0.68 0.65 12.8 0 1 276.89 30.60
  L 279.77 29.78
  A 1.22 1.20 -41.5 0 1 280.57 29.82
  L 287.03 32.39
  Z"
/>
<path fill="#fffffe" d="
  M 353.53 31.01
  Q 351.59 32.44 350.55 31.58
  L 352.31 29.89
  A 0.49 0.49 0.0 0 1 352.69 29.76
  Q 353.72 29.85 353.53 31.01
  Z"
/>
<path fill="#9baabf" d="
  M 289.57 30.19
  Q 290.99 30.50 290.67 31.97
  A 0.27 0.27 0.0 0 1 290.18 32.06
  Q 289.72 31.38 289.33 31.29
  Q 288.94 31.20 288.24 31.64
  A 0.27 0.27 0.0 0 1 287.83 31.34
  Q 288.15 29.88 289.57 30.19
  Z"
/>
<path fill="#9baabf" d="
  M 288.02 32.73
  Q 287.62 33.06 287.03 32.39
  Q 287.47 32.09 287.73 32.26
  Q 288.00 32.42 288.02 32.73
  Z"
/>
<path fill="#9baabf" d="
  M 290.72 32.90
  Q 290.09 33.13 289.22 32.90
  Q 290.46 32.45 290.72 32.90
  Z"
/>
<path fill="#9baabf" d="
  M 383.25 32.69
  Q 383.67 33.17 383.44 33.52
  Q 383.28 33.76 383.04 33.73
  Q 382.58 33.68 382.67 33.23
  Q 382.74 32.84 383.25 32.69
  Z"
/>
<path fill="#9baabf" d="
  M 386.33 35.16
  L 383.84 33.05
  Q 385.70 33.51 386.33 35.16
  Z"
/>
<path fill="#fffffe" d="
  M 341.34 38.08
  L 344.30 34.06
  A 1.30 1.29 33.0 0 1 345.99 33.71
  L 350.38 36.24
  A 0.48 0.48 0.0 0 1 350.53 36.92
  Q 348.37 40.01 346.48 40.89
  A 0.98 0.97 -44.0 0 1 345.63 40.88
  L 341.56 38.95
  A 0.58 0.58 0.0 0 1 341.34 38.08
  Z"
/>
<path fill="#212d4a" d="
  M 378.36 44.53
  L 378.55 45.69
  A 0.21 0.21 0.0 0 1 378.19 45.87
  L 377.92 45.60
  A 0.62 0.62 0.0 0 0 376.95 45.71
  Q 374.90 49.11 371.13 48.59
  A 1.20 1.19 29.4 0 0 370.22 48.84
  Q 370.19 48.86 370.08 49.03
  A 0.31 0.31 0.0 0 1 369.58 49.05
  Q 369.23 48.61 369.57 48.11
  A 1.20 1.20 0.0 0 0 369.78 47.29
  Q 369.52 44.66 371.73 42.21
  A 0.21 0.21 0.0 0 1 372.09 42.42
  L 371.27 45.09
  A 1.64 1.64 0.0 0 0 373.37 47.13
  Q 375.39 46.44 377.67 44.29
  A 0.41 0.41 0.0 0 1 378.36 44.53
  Z"
/>
<ellipse fill="#212d4a" cx="0.00" cy="0.00" transform="translate(317.55,45.57) rotate(-107.9)" rx="1.43" ry="0.31"/>
<path fill="#9baabf" d="
  M 407.04 54.97
  Q 406.52 54.70 406.25 54.22
  Q 406.84 54.38 407.04 54.97
  Z"
/>
<path fill="#fffffe" d="
  M 355.39 61.04
  Q 354.55 61.56 353.60 61.20
  A 1.02 1.01 -54.1 0 0 352.59 61.37
  Q 351.61 62.19 350.37 61.61
  A 1.61 1.61 0.0 0 0 349.22 61.53
  Q 347.00 62.23 345.26 61.59
  A 0.50 0.50 0.0 0 1 345.38 60.62
  Q 347.56 60.39 349.41 59.26
  A 3.84 3.40 -40.2 0 1 353.59 59.36
  Q 353.97 59.66 355.33 60.23
  A 0.46 0.45 -49.4 0 1 355.39 61.04
  Z"
/>
<path fill="#212d4a" d="
  M 263.84 72.21
  L 262.92 66.37
  A 0.42 0.42 0.0 0 1 263.57 65.95
  Q 266.13 67.70 268.92 67.38
  A 0.88 0.88 0.0 0 1 269.51 68.99
  L 264.38 72.45
  A 0.35 0.35 0.0 0 1 263.84 72.21
  Z"
/>
<path fill="#212d4a" d="
  M 368.41 78.20
  Q 368.86 77.12 370.75 77.05
  A 0.59 0.58 -84.7 0 0 371.29 76.59
  Q 371.41 76.08 371.04 75.79
  A 0.35 0.35 0.0 0 0 370.61 75.78
  L 369.76 76.35
  A 0.80 0.79 55.6 0 1 368.66 76.14
  L 367.78 74.82
  A 0.33 0.32 75.9 0 1 368.08 74.31
  L 373.12 74.86
  A 0.44 0.44 0.0 0 1 373.44 75.52
  Q 371.96 77.96 368.85 78.72
  A 0.38 0.38 0.0 0 1 368.41 78.20
  Z"
/>
<path fill="#212d4a" d="
  M 354.93 86.12
  L 372.02 79.96
  A 4.30 4.20 14.3 0 0 373.32 79.21
  L 375.08 77.74
  A 0.66 0.66 0.0 0 1 376.12 78.47
  C 375.31 80.65 373.23 82.06 370.72 82.95
  Q 362.95 85.70 353.94 89.40
  A 0.41 0.41 0.0 0 1 353.39 89.16
  L 353.20 88.63
  A 0.43 0.43 0.0 0 1 353.48 88.07
  L 354.51 87.78
  A 0.62 0.62 0.0 0 0 354.79 86.76
  Q 354.74 86.71 354.72 86.68
  A 0.39 0.39 0.0 0 1 354.93 86.12
  Z"
/>
<path fill="#212d4a" d="
  M 227.41 77.76
  L 253.33 109.55
  A 1.43 1.34 -1.8 0 0 253.66 109.84
  L 254.40 110.26
  L 153.89 145.70
  A 0.56 0.55 63.4 0 1 153.25 145.48
  L 149.02 139.21
  A 0.76 0.76 0.0 0 0 147.90 139.06
  L 147.87 139.09
  A 1.26 1.26 0.0 0 0 147.77 140.56
  L 150.80 145.44
  A 1.06 1.06 0.0 0 1 150.25 147.00
  L 24.65 191.00
  L 20.85 191.00
  L 0.00 148.69
  L 0.00 146.01
  L 125.61 108.30
  A 0.77 0.77 0.0 0 1 126.48 108.61
  L 130.48 114.53
  A 0.90 0.89 63.8 0 0 131.50 114.88
  L 131.90 114.75
  A 0.63 0.63 0.0 0 0 132.23 113.80
  L 128.94 108.93
  A 1.18 1.18 0.0 0 1 129.58 107.14
  L 227.41 77.76
  Z
  M 109.60 117.28
  L 109.67 116.67
  A 0.39 0.38 -79.1 0 0 109.40 116.26
  Q 108.50 115.98 108.39 116.52
  A 0.21 0.20 -66.9 0 0 108.48 116.75
  L 109.50 117.33
  A 0.07 0.07 0.0 0 0 109.60 117.28
  Z
  M 132.74 118.27
  L 142.50 132.95
  A 0.50 0.50 0.0 0 0 143.24 133.06
  L 144.17 132.28
  A 0.46 0.46 0.0 0 0 144.26 131.68
  L 134.64 117.21
  Q 135.06 116.55 133.69 116.15
  A 1.37 1.37 0.0 0 0 131.94 117.51
  Q 131.95 117.75 132.74 118.27
  Z
  M 91.33 121.91
  Q 90.95 121.25 90.29 121.66
  A 0.41 0.41 0.0 0 0 90.19 122.26
  Q 90.51 122.67 91.11 122.86
  A 0.65 0.38 73.0 0 0 91.33 121.91
  Z
  M 12.5047 154.1868
  A 2.51 1.10 -176.5 0 0 14.9428 155.4379
  A 2.51 1.10 -176.5 0 0 17.5153 154.4932
  A 2.51 1.10 -176.5 0 0 15.0772 153.2421
  A 2.51 1.10 -176.5 0 0 12.5047 154.1868
  Z
  M 27.46 173.55
  L 22.71 173.77
  A 0.10 0.10 0.0 0 0 22.61 173.87
  L 22.61 173.87
  A 2.24 1.86 -2.6 0 0 24.93 175.63
  L 25.41 175.61
  A 2.24 1.86 -2.6 0 0 27.57 173.65
  L 27.57 173.65
  A 0.10 0.10 0.0 0 0 27.46 173.55
  Z"
/>
<path fill="#212d4a" d="
  M 363.13 80.74
  L 355.12 83.33
  A 0.35 0.35 0.0 0 1 354.67 82.91
  Q 354.88 82.05 355.69 81.52
  Q 356.05 81.28 356.41 81.42
  Q 357.10 81.70 357.21 81.66
  A 0.76 0.75 -6.7 0 0 357.69 81.06
  Q 357.73 80.76 357.86 80.60
  Q 358.01 80.43 358.20 80.42
  Q 359.60 80.36 360.15 79.10
  A 0.69 0.68 20.0 0 1 360.99 78.71
  L 362.18 79.07
  A 0.52 0.51 2.3 0 1 362.52 79.43
  Q 362.64 79.84 363.15 80.04
  A 0.37 0.37 0.0 0 1 363.13 80.74
  Z"
/>
<path fill="#212d4a" d="
  M 234.13 80.52
  Q 234.95 81.79 234.02 82.12
  L 231.63 79.18
  A 0.06 0.06 0.0 0 1 231.64 79.09
  L 231.87 78.89
  A 0.21 0.21 0.0 0 1 232.16 78.92
  Q 232.98 79.95 234.13 80.52
  Z"
/>
<path fill="#212d4a" d="
  M 370.24 104.64
  L 367.20 105.08
  Q 366.78 104.74 366.24 104.95
  Q 365.55 104.75 364.82 104.86
  Q 363.12 104.93 362.20 104.05
  A 0.68 0.65 60.9 0 1 362.50 102.90
  Q 363.73 102.68 364.23 103.42
  A 0.38 0.37 -39.9 0 0 364.82 103.47
  Q 365.34 102.91 366.12 103.60
  A 1.02 0.99 -27.4 0 0 366.92 103.84
  Q 369.15 103.56 370.24 104.64
  Z"
/>
<path fill="#9baabf" d="
  M 109.50 117.33
  L 108.48 116.75
  A 0.21 0.20 -66.9 0 1 108.39 116.52
  Q 108.50 115.98 109.40 116.26
  A 0.39 0.38 -79.1 0 1 109.67 116.67
  L 109.60 117.28
  A 0.07 0.07 0.0 0 1 109.50 117.33
  Z"
/>
<path fill="#9baabf" d="
  M 134.64 117.21
  Q 133.64 116.92 132.74 118.27
  Q 131.95 117.75 131.94 117.51
  A 1.37 1.37 0.0 0 1 133.69 116.15
  Q 135.06 116.55 134.64 117.21
  Z"
/>
<path fill="#9baabf" d="
  M 91.33 121.91
  A 0.65 0.38 73.0 0 1 91.11 122.86
  Q 90.51 122.67 90.19 122.26
  A 0.41 0.41 0.0 0 1 90.29 121.66
  Q 90.95 121.25 91.33 121.91
  Z"
/>
<ellipse fill="#9baabf" cx="0.00" cy="0.00" transform="translate(15.01,154.34) rotate(-176.5)" rx="2.51" ry="1.10"/>
<path fill="#9baabf" d="
  M 27.46 173.55
  A 0.10 0.10 0.0 0 1 27.57 173.65
  L 27.57 173.65
  A 2.24 1.86 -2.6 0 1 25.41 175.61
  L 24.93 175.63
  A 2.24 1.86 -2.6 0 1 22.61 173.87
  L 22.61 173.87
  A 0.10 0.10 0.0 0 1 22.71 173.77
  L 27.46 173.55
  Z"
/>
</svg>
