<?xml version="1.0" encoding="UTF-8" standalone="no"?>
<!-- Created with Inkscape (http://www.inkscape.org/) -->

<svg
   version="1.1"
   id="svg1"
   width="682.66669"
   height="542.66669"
   viewBox="0 0 682.66669 542.66669"
   xmlns="http://www.w3.org/2000/svg"
   xmlns:svg="http://www.w3.org/2000/svg"
   xmlns:rdf="http://www.w3.org/1999/02/22-rdf-syntax-ns#"
   xmlns:cc="http://creativecommons.org/ns#"
   xmlns:dc="http://purl.org/dc/elements/1.1/">
  <title
     id="title1">GCOM-W Icon SVG</title>
  <defs
     id="defs1" />
  <g
     id="g1">
    <path
       style="fill:currentColor"
       d="m 567.22644,534.94534 c -2.99214,-2.71993 -23.39214,-21.7466 -45.33334,-42.28149 -21.9412,-20.53489 -41.99309,-39.04032 -44.55975,-41.12317 -2.56667,-2.08284 -12.49861,-11.16483 -22.07098,-20.18219 -18.87259,-17.77835 -22.30863,-23.19304 -19.61718,-30.91374 1.51788,-4.3542 0.89058,-24.16049 -0.98613,-31.13581 -0.79089,-2.9396 -3.38973,-6.48035 -6.96059,-9.48339 -3.13415,-2.63578 -14.09846,-12.43511 -24.36512,-21.7763 -10.26667,-9.34119 -20.46667,-17.97366 -22.66667,-19.18327 -3.24686,-1.78521 -8.01674,-2.1993 -25.33334,-2.1993 -11.73333,0 -24.12033,0.42989 -27.52666,0.9553 l -6.19333,0.95531 -0.89788,-4.78612 c -2.00691,-10.69775 -6.19183,-12.29529 -15.17053,-5.79116 -3.03701,2.2 -6.12704,4 -6.86672,4 -0.81411,0 -1.34488,-5.23225 -1.34488,-13.2577 l 0,-13.2577 -12.33333,-10.92307 c -6.78334,-6.00769 -14.5918,-12.42706 -17.35214,-14.26526 -4.85127,-3.23062 -5.10721,-3.2622 -7.66667,-0.94592 -2.60759,2.35984 -2.64786,2.29626 -2.64786,-4.18036 0,-3.88149 0.87773,-7.82978 2.14182,-9.63452 1.66617,-2.37879 1.93629,-4.7029 1.21631,-10.4654 l -0.92551,-7.40752 6.14618,-6.24001 6.14618,-6.24001 -17.69582,-16.65498 c -9.73271,-9.16024 -19.80176,-18.23764 -22.37568,-20.172 -6.48628,-4.87459 -18.88089,-10.90648 -61.13016,-29.74924 -20.06218,-8.94753 -37.20218,-17.09431 -38.08889,-18.10394 C 127.65906,124.68543 103.91057,101.8916 69.333335,69.617933 21.489488,24.961484 4.0000001,7.8819781 4.0000001,5.8161152 c 0,-1.7225343 6.1779659,-2.22644 54.6666679,-4.4588858 C 94.080818,-0.27325703 106.28283,-0.36364928 106.88889,1 c 0.67351,1.5154016 49.92042,46.799793 59.51367,54.725065 4.62141,3.817882 8.97141,6.941604 9.66667,6.941604 0.69526,0 1.26411,0.823584 1.26411,1.830187 0,1.006602 2.85,4.412959 6.33333,7.569681 3.48334,3.156723 16.53334,15.451457 29,27.321633 12.46667,11.87018 24.65972,23.31904 27.09566,25.44192 l 4.429,3.85978 -0.94569,11.65507 c -0.52013,6.41029 -1.39319,11.65507 -1.94015,11.65507 -1.44066,0 -2.59965,-5.1461 -2.62061,-11.63593 -0.0221,-6.83225 -2.38932,-8.70657 -14.01821,-11.09919 -14.96507,-3.07903 -66.92325,-1.22796 -73.73309,2.62683 -1.80933,1.0242 1.36638,3.00348 15.73309,9.80576 34.68218,16.42113 67.90498,30.62429 69.86994,29.87027 1.09061,-0.41851 2.38281,-2.89246 2.87155,-5.49767 1.15848,-6.17519 3.25851,-6.09893 3.25851,0.11832 0,3.92504 0.92346,5.64906 4.82076,9 2.65141,2.27972 10.36601,9.42172 17.14354,15.87111 l 12.32279,11.72618 2.73185,-6.39284 c 5.12196,-11.98599 5.84012,-16.66833 3.65917,-23.85754 -3.19507,-10.53213 -2.79855,-12.22057 3.2525,-13.84995 4.06373,-1.09425 6.59476,-3.15801 11.10077,-9.05139 4.82591,-6.31176 6.39673,-7.52823 9.0694,-7.02348 1.77791,0.33577 18.43952,0.45261 37.0258,0.25963 l 33.79324,-0.35086 7.12695,6.74038 c 6.60001,6.24202 7.61791,6.74037 13.76748,6.74037 6.3178,0 6.67809,0.1944 7.41315,4 0.42494,2.2 1.12028,5.8 1.54522,8 0.90489,4.68486 3.22739,5.3781 3.22739,0.96334 0,-4.02372 3.56865,-8.96334 6.4756,-8.96334 4.08271,0 5.5244,2.95763 5.5244,11.33333 0,4.54815 0.70528,8.83862 1.6,9.73333 2.31682,2.31682 11.74489,1.78635 16.4,-0.92275 4.69137,-2.7302 6.03296,-5.35092 15.43118,-30.14391 6.56449,-17.31746 7.06662,-19.46174 6.94719,-29.66667 l -0.12874,-11 h 4.43845 c 5.26401,0 6.29694,-2.26961 9.20293,-20.221227 1.9376,-11.969425 5.22602,-19.844812 11.74577,-28.129754 9.32239,-11.846393 25.56976,-16.242207 56.97905,-15.416 17.58421,0.462545 20.09432,0.839174 27.03189,4.055995 10.71461,4.968159 20.10596,14.675742 22.18489,22.931894 1.72709,6.858922 0.88923,14.71592 -1.41728,13.290418 -0.85041,-0.525581 -1.05008,0.155401 -0.52794,1.800528 1.06402,3.352419 -0.38219,7.285073 -2.25368,6.128425 -0.90693,-0.560513 -1.09381,-0.02716 -0.51709,1.475756 1.03327,2.692659 -5.49013,15.755855 -7.30723,14.632825 -0.6285,-0.38843 -1.14272,-0.0708 -1.14272,0.70578 0,0.77661 -0.0427,1.86202 -0.095,2.41202 -0.18463,1.94322 -4.63642,5.98291 -10.16137,9.22075 -4.07157,2.38609 -7.26968,6.0661 -11.75693,13.52847 -9.91876,16.49507 -25.38524,48.50118 -29.80347,61.67488 l -4.08483,12.17961 8.00309,9.50767 c 8.55407,10.16224 10.79369,15.08097 7.74565,17.01132 -3.39014,2.14701 -6.46032,1.24813 -10.17018,-2.97761 -2.02232,-2.30353 -6.94277,-5.64719 -10.93433,-7.43034 l -7.25738,-3.2421 -25.40929,12.62281 c -13.97511,6.94254 -26.66138,14.0362 -28.19172,15.76368 -1.53033,1.72748 -8.103,15.65741 -14.60591,30.9554 -7.3875,17.37895 -12.84677,28.46608 -14.55091,29.55113 -1.50008,0.95512 -9.17741,2.16025 -17.06075,2.67807 -7.88333,0.51781 -14.33333,1.40161 -14.33333,1.964 0,1.40813 20.97203,21.24228 35.44025,33.51737 14.11016,11.97131 27.75265,21.00799 37.89308,25.10008 4.03334,1.62762 12.43334,5.28225 18.66667,8.1214 6.23333,2.83916 15.83334,7.0444 21.33334,9.345 18.9438,7.92401 23.34183,9.92881 26.18086,11.93436 1.56614,1.10635 13.86614,12.54636 27.33333,25.42225 13.4672,12.87589 43.23581,41.02864 66.15248,62.56168 22.91666,21.53303 41.66666,39.91259 41.66666,40.84347 0,0.93088 -1.95,2.02561 -4.33333,2.43273 -3.71939,0.63536 -88.17244,4.81291 -94.19124,4.65926 -1.17815,-0.0301 -4.59021,-2.28008 -7.58234,-5 z M 525.72243,409.81769 c 4.92302,-1.07988 3.9463,-3.33135 -2.49518,-5.75173 -2.87498,-1.08027 -5.99505,-2.71199 -6.93348,-3.62604 -0.93844,-0.91406 -4.98844,-2.69654 -9,-3.96108 -4.01157,-1.26453 -7.29376,-2.72372 -7.29376,-3.24264 0,-0.51892 -3.9,-2.3203 -8.66666,-4.00308 -4.76667,-1.68277 -8.66667,-3.48359 -8.66667,-4.0018 0,-0.51822 -1.64774,-1.35577 -3.66164,-1.86123 -2.0139,-0.50546 -7.8639,-2.93619 -13,-5.40163 -5.1361,-2.46544 -12.18836,-5.24138 -15.67169,-6.16874 -3.48334,-0.92737 -6.37551,-2.31168 -6.42705,-3.07625 -0.0515,-0.76457 -0.60937,-0.19012 -1.23962,1.27654 -0.63025,1.46667 -1.18808,9.93576 -1.23962,18.82019 -0.0852,14.68857 0.17152,16.49072 2.83094,19.87162 l 2.92466,3.7181 37.40868,-0.88785 c 20.57477,-0.48832 39.08376,-1.25529 41.13109,-1.70438 z m 6.62253,-235.13659 c 1.249,-1.45873 4.31452,-6.70873 6.81227,-11.66666 8.41946,-16.71236 9.29798,-18.34591 10.22589,-19.01443 0.50894,-0.36667 2.27244,-3.36667 3.91889,-6.66667 l 2.99356,-6 -5.14778,5.99324 c -2.83127,3.29629 -6.39932,7.19629 -7.92899,8.66667 -1.52967,1.47038 -7.14203,7.75076 -12.47191,13.95639 l -9.6907,11.28297 3.54627,3.05036 c 4.32443,3.71973 4.87425,3.748 7.7425,0.39813 z m 4.97508,-29.48394 c 6.22601,-6.89177 12.07601,-13.0103 13,-13.59674 4.15691,-2.63832 0.40474,-3.49698 -17.32002,-3.96357 -10.45,-0.27509 -21.7,-1.21077 -25,-2.07929 -11.4965,-3.02574 -12.00001,-3.06196 -12.00001,-0.86317 0,2.42624 4.78101,12.18101 6.29769,12.84929 1.8489,0.81466 10.79759,14.95363 13.55548,21.4177 l 2.68562,6.29471 3.73061,-3.76422 c 2.05183,-2.07033 8.82461,-9.40295 15.05063,-16.29471 z m -25.32002,14.41052 c 0,-0.7096 -9.96099,-10.89747 -12.65282,-12.94101 -2.60693,-1.97908 -2.60857,-1.95946 -0.15676,1.87525 4.15047,6.49149 12.80958,13.9718 12.80958,11.06576 z m -40.38495,-8.52771 c 0.48277,-1.25808 0.16983,-2.485 -0.70851,-2.77778 -0.86527,-0.28842 -1.59447,-1.52441 -1.62046,-2.74663 -0.026,-1.22222 -0.90472,-3.72222 -1.95275,-5.55555 -1.69555,-2.96605 -1.91162,-3.03951 -1.96097,-0.66667 -0.0305,1.46667 -0.95177,4.38525 -2.04725,6.48574 -3.12855,5.99873 -2.58062,7.51426 2.71673,7.51426 3.19066,0 4.98726,-0.72641 5.57321,-2.25337 z m 1.71828,-21.00128 c 0,-3.22824 2.67753,-3.80453 5.75068,-1.23772 1.60379,1.33953 0.82529,0.17458 -1.73001,-2.58879 -4.24793,-4.59382 -4.79057,-4.82659 -6.33334,-2.71673 -1.83111,2.5042 -2.2162,6.15791 -0.79844,7.57567 1.51283,1.51283 3.11111,0.98244 3.11111,-1.03243 z m 15.40797,-1.95792 c -0.41218,-0.66691 -3.89759,-3.74515 -7.74536,-6.84053 l -6.99595,-5.62796 6.90088,6.84053 c 6.2851,6.23014 9.74953,8.71696 7.84043,5.62796 z"
       id="path1" />
  </g>
  <metadata
     id="metadata1">
    <rdf:RDF>
      <cc:Work
         rdf:about="">
        <dc:title>GCOM-W Icon SVG</dc:title>
        <dc:source>https://eospso.nasa.gov/sites/default/files/sat/GCOM-W1.jpg</dc:source>
      </cc:Work>
    </rdf:RDF>
  </metadata>
</svg>
