<?xml version="1.0" encoding="UTF-8" standalone="no"?>
<svg xmlns="http://www.w3.org/2000/svg" version="1.2" baseProfile="tiny" viewBox="0.00 0.00 512.00 407.00" width="512.00" height="407.00">
<path fill="#e1c620" d="
  M 78.09 0.00
  Q 106.45 26.44 119.83 38.42
  Q 123.07 41.31 130.53 46.96
  Q 129.91 48.59 132.51 49.28
  Q 132.51 49.45 132.54 49.61
  A 1.21 1.18 -68.4 0 0 132.80 50.23
  Q 137.24 55.67 143.33 58.93
  Q 143.06 60.96 144.95 61.53
  Q 147.63 64.46 148.64 65.36
  Q 160.35 75.89 171.54 86.96
  Q 173.74 89.14 176.29 91.19
  Q 178.50 92.96 181.24 95.22
  Q 178.47 95.32 177.48 96.28
  A 1.12 1.12 0.0 0 1 175.74 94.92
  Q 176.37 93.84 175.64 92.14
  L 129.74 49.66
  A 1.80 1.78 -26.1 0 0 128.34 49.19
  Q 126.50 49.35 114.37 49.63
  Q 113.65 49.64 113.41 49.50
  Q 112.69 49.10 112.38 49.71
  A 0.55 0.55 0.0 0 1 111.91 50.00
  L 106.87 50.13
  Q 102.27 49.38 98.81 49.61
  Q 97.26 49.71 94.96 50.57
  Q 83.60 50.47 72.26 51.26
  Q 71.65 51.30 71.41 51.47
  Q 70.96 51.78 70.56 51.57
  Q 69.99 51.27 69.28 51.35
  Q 67.30 51.57 64.76 51.34
  Q 63.43 51.22 60.26 51.46
  Q 56.49 51.74 52.36 51.74
  L 50.52 49.85
  Q 59.17 48.92 61.50 48.90
  Q 67.80 48.83 68.33 48.79
  Q 73.84 48.34 75.15 48.44
  C 80.01 48.81 86.07 48.13 91.31 48.30
  Q 94.11 48.39 105.68 47.58
  C 111.06 47.20 116.97 47.29 121.99 46.95
  Q 124.46 46.78 126.19 48.13
  A 0.61 0.61 0.0 0 0 126.97 48.10
  L 126.99 48.08
  A 0.36 0.36 0.0 0 0 127.01 47.58
  L 120.12 40.11
  A 4.31 4.16 84.0 0 0 119.37 39.48
  Q 118.50 38.97 115.03 35.71
  Q 106.55 27.72 80.06 3.15
  A 1.92 1.91 -19.3 0 0 79.08 2.68
  Q 74.91 2.00 71.74 2.44
  C 62.37 3.71 54.83 3.38 38.98 3.63
  Q 37.74 3.65 31.58 4.01
  Q 27.24 4.26 21.93 4.04
  Q 17.36 3.85 11.67 4.63
  Q 10.07 4.84 5.64 4.00
  Q 9.60 3.11 11.22 3.07
  Q 36.13 2.55 60.99 1.02
  Q 62.65 0.92 65.02 0.00
  L 78.09 0.00
  Z"
/>
<path fill="#312eb5" d="
  M 50.52 49.85
  Q 36.89 37.39 22.84 24.16
  Q 12.74 14.64 3.13 4.69
  A 0.45 0.44 -26.8 0 1 3.38 3.94
  Q 4.71 3.73 5.64 4.00
  Q 10.07 4.84 11.67 4.63
  Q 17.36 3.85 21.93 4.04
  Q 27.24 4.26 31.58 4.01
  Q 37.74 3.65 38.98 3.63
  C 54.83 3.38 62.37 3.71 71.74 2.44
  Q 74.91 2.00 79.08 2.68
  A 1.92 1.91 -19.3 0 1 80.06 3.15
  Q 106.55 27.72 115.03 35.71
  Q 118.50 38.97 119.37 39.48
  A 4.31 4.16 84.0 0 1 120.12 40.11
  L 127.01 47.58
  A 0.36 0.36 0.0 0 1 126.99 48.08
  L 126.97 48.10
  A 0.61 0.61 0.0 0 1 126.19 48.13
  Q 124.46 46.78 121.99 46.95
  C 116.97 47.29 111.06 47.20 105.68 47.58
  Q 94.11 48.39 91.31 48.30
  C 86.07 48.13 80.01 48.81 75.15 48.44
  Q 73.84 48.34 68.33 48.79
  Q 67.80 48.83 61.50 48.90
  Q 59.17 48.92 50.52 49.85
  Z
  M 79.39 12.11
  A 0.42 0.42 0.0 0 0 80.17 12.28
  Q 80.97 10.88 80.57 10.07
  A 0.70 0.70 0.0 0 0 79.25 10.43
  L 79.39 12.11
  Z
  M 18.4948 11.8507
  A 1.35 0.63 -88.1 0 0 17.8203 13.1791
  A 1.35 0.63 -88.1 0 0 18.4052 14.5493
  A 1.35 0.63 -88.1 0 0 19.0797 13.2209
  A 1.35 0.63 -88.1 0 0 18.4948 11.8507
  Z
  M 50.2150 13.4164
  A 1.10 0.85 -161.8 0 0 50.9945 14.5675
  A 1.10 0.85 -161.8 0 0 52.3050 14.1036
  A 1.10 0.85 -161.8 0 0 51.5255 12.9525
  A 1.10 0.85 -161.8 0 0 50.2150 13.4164
  Z
  M 75.6451 38.0573
  A 1.69 1.44 -168.3 0 0 77.0080 39.8101
  A 1.69 1.44 -168.3 0 0 78.9549 38.7427
  A 1.69 1.44 -168.3 0 0 77.5920 36.9899
  A 1.69 1.44 -168.3 0 0 75.6451 38.0573
  Z
  M 110.3601 38.0289
  A 1.07 0.82 -70.9 0 0 109.2351 38.7717
  A 1.07 0.82 -70.9 0 0 109.6599 40.0511
  A 1.07 0.82 -70.9 0 0 110.7849 39.3083
  A 1.07 0.82 -70.9 0 0 110.3601 38.0289
  Z
  M 49.14 42.60
  Q 49.66 41.41 49.19 40.35
  A 0.90 0.72 39.9 0 0 47.60 40.32
  Q 47.57 40.94 48.44 42.63
  A 0.39 0.38 -47.0 0 0 49.14 42.60
  Z"
/>
<path fill="#5f5f60" d="
  M 79.39 12.11
  L 79.25 10.43
  A 0.70 0.70 0.0 0 1 80.57 10.07
  Q 80.97 10.88 80.17 12.28
  A 0.42 0.42 0.0 0 1 79.39 12.11
  Z"
/>
<ellipse fill="#5f5f60" cx="0.00" cy="0.00" transform="translate(18.45,13.20) rotate(-88.1)" rx="1.35" ry="0.63"/>
<ellipse fill="#5f5f60" cx="0.00" cy="0.00" transform="translate(51.26,13.76) rotate(-161.8)" rx="1.10" ry="0.85"/>
<path fill="#d2d1d3" d="
  M 429.75 90.63
  Q 427.95 89.71 429.95 88.71
  Q 430.21 88.58 431.04 88.52
  A 0.51 0.51 0.0 0 0 431.49 87.88
  Q 431.29 87.14 430.79 86.87
  A 0.54 0.52 -40.8 0 0 430.35 86.85
  L 424.71 89.07
  A 0.48 0.48 0.0 0 0 424.41 89.59
  Q 424.46 89.75 424.84 89.94
  A 1.06 1.04 -41.7 0 1 424.71 91.86
  Q 423.49 92.31 422.80 92.97
  Q 422.15 93.58 420.89 94.03
  Q 418.22 94.97 417.02 98.12
  Q 414.65 100.15 413.70 101.20
  Q 402.65 113.53 391.74 125.98
  Q 390.90 126.94 390.14 127.94
  L 389.47 128.03
  L 388.32 125.62
  Q 388.72 125.57 389.03 125.28
  L 414.66 97.52
  Q 415.79 97.02 416.20 96.24
  Q 416.79 95.13 415.50 94.86
  Q 414.55 94.67 413.43 95.16
  L 410.97 95.12
  L 406.97 95.08
  L 406.50 95.00
  Q 402.29 94.25 398.04 94.90
  Q 391.94 94.55 385.74 93.99
  Q 381.36 93.59 376.21 92.09
  Q 374.07 91.46 371.78 91.47
  A 0.62 0.61 -86.9 0 0 371.17 92.02
  L 370.86 94.43
  Q 370.16 97.55 372.54 98.34
  Q 372.55 98.46 372.74 98.71
  Q 372.86 99.14 373.25 99.26
  L 384.88 116.29
  Q 384.52 117.43 384.24 117.21
  Q 383.56 116.66 382.71 116.27
  L 371.40 106.01
  L 361.55 96.68
  L 354.77 90.28
  Q 354.54 89.81 354.16 89.66
  Q 353.73 89.50 353.48 89.91
  Q 353.29 90.21 353.22 90.71
  Q 352.91 91.01 352.74 91.45
  Q 352.21 91.75 352.22 92.47
  L 351.56 94.85
  Q 349.23 98.54 348.40 102.73
  Q 348.18 103.07 348.23 103.43
  Q 347.46 103.80 347.50 105.21
  L 346.71 107.95
  Q 345.83 108.92 345.74 110.47
  L 344.57 113.75
  L 344.60 114.30
  Q 342.21 117.69 341.65 119.18
  Q 339.13 125.85 335.48 134.78
  A 0.35 0.34 -43.8 0 1 334.84 134.77
  Q 334.49 133.79 334.68 132.77
  L 347.17 99.63
  L 350.08 90.99
  A 1.18 1.03 77.9 0 1 350.24 90.70
  Q 353.00 87.24 353.93 82.85
  Q 356.74 77.82 357.08 72.03
  Q 357.88 71.84 357.21 70.05
  L 358.17 63.17
  A 1.64 1.31 65.0 0 1 358.23 62.92
  L 358.81 61.38
  Q 360.83 60.81 360.91 58.58
  A 2.03 1.99 -31.1 0 1 361.14 57.69
  Q 362.83 54.38 363.26 50.81
  Q 365.24 46.80 367.51 45.43
  L 377.36 39.84
  A 0.19 0.18 46.4 0 1 377.56 39.85
  Q 377.90 40.09 377.82 40.37
  A 0.38 0.37 -7.8 0 1 377.63 40.61
  L 374.83 42.16
  A 0.83 0.82 54.0 0 0 374.63 43.44
  Q 375.96 44.89 376.64 44.06
  Q 378.00 42.40 378.16 41.92
  A 0.91 0.89 2.3 0 1 378.79 41.35
  Q 380.28 40.97 381.07 41.99
  A 0.15 0.15 0.0 0 0 381.31 41.99
  L 381.76 41.39
  A 0.26 0.26 0.0 0 0 381.72 41.03
  L 379.83 39.60
  A 0.53 0.53 0.0 0 1 380.11 38.65
  L 400.24 37.06
  A 0.62 0.58 18.5 0 0 400.61 36.89
  Q 401.23 36.24 400.23 35.74
  A 0.51 0.50 33.1 0 1 400.06 34.96
  Q 400.39 34.56 401.00 34.22
  Q 410.20 33.70 419.50 35.03
  Q 434.21 37.13 442.69 48.55
  Q 446.00 53.00 446.08 58.92
  Q 446.15 63.80 443.94 69.72
  Q 439.24 82.30 429.75 90.63
  Z
  M 369.99 83.26
  L 370.27 78.87
  A 0.07 0.07 0.0 0 0 370.20 78.79
  L 370.18 78.79
  A 2.11 1.65 -86.4 0 0 368.40 80.80
  L 368.38 81.12
  A 2.11 1.65 -86.4 0 0 369.90 83.32
  L 369.92 83.33
  A 0.07 0.07 0.0 0 0 369.99 83.26
  Z
  M 355.26 87.96
  L 364.56 96.48
  Q 364.89 97.08 365.45 97.28
  L 365.77 97.58
  L 367.99 99.66
  A 0.44 0.44 0.0 0 0 368.73 99.37
  L 368.86 96.91
  A 0.73 0.73 0.0 0 0 368.22 96.14
  Q 367.96 96.10 367.68 96.17
  Q 367.47 95.57 367.20 95.61
  Q 366.35 93.61 364.95 92.10
  A 1.31 1.27 -67.3 0 1 364.60 91.21
  Q 364.59 89.83 365.00 88.03
  Q 365.62 85.36 363.60 84.46
  C 362.58 84.01 361.44 85.02 360.69 85.64
  A 1.52 1.52 0.0 0 1 358.21 84.59
  L 357.86 80.17
  A 0.37 0.37 0.0 0 0 357.14 80.07
  Q 355.91 83.46 354.60 86.49
  Q 354.26 87.30 355.26 87.96
  Z
  M 369.52 94.30
  C 369.65 93.26 369.25 90.73 367.71 90.68
  Q 366.86 90.65 366.59 91.30
  A 0.49 0.49 0.0 0 0 366.69 91.85
  L 369.24 94.40
  A 0.17 0.16 -64.3 0 0 369.52 94.30
  Z
  M 376.07 106.70
  Q 375.95 106.48 370.53 99.89
  A 0.37 0.37 0.0 0 0 369.88 100.11
  C 369.84 101.05 370.19 102.18 370.91 102.84
  Q 374.35 106.00 375.68 107.03
  A 0.26 0.26 0.0 0 0 376.07 106.70
  Z"
/>
<path fill="#5f5f60" d="
  M 401.00 34.22
  Q 400.39 34.56 400.06 34.96
  A 0.51 0.50 33.1 0 0 400.23 35.74
  Q 401.23 36.24 400.61 36.89
  A 0.62 0.58 18.5 0 1 400.24 37.06
  L 380.11 38.65
  A 0.53 0.53 0.0 0 0 379.83 39.60
  L 381.72 41.03
  A 0.26 0.26 0.0 0 1 381.76 41.39
  L 381.31 41.99
  A 0.15 0.15 0.0 0 1 381.07 41.99
  Q 380.28 40.97 378.79 41.35
  A 0.91 0.89 2.3 0 0 378.16 41.92
  Q 378.00 42.40 376.64 44.06
  Q 375.96 44.89 374.63 43.44
  A 0.83 0.82 54.0 0 1 374.83 42.16
  L 377.63 40.61
  A 0.38 0.37 -7.8 0 0 377.82 40.37
  Q 377.90 40.09 377.56 39.85
  A 0.19 0.18 46.4 0 0 377.36 39.84
  L 367.51 45.43
  Q 371.31 40.18 376.10 38.35
  Q 379.31 37.12 384.13 36.06
  Q 387.59 35.29 392.41 34.92
  Q 396.67 34.60 401.00 34.22
  Z"
/>
<ellipse fill="#5f5f60" cx="0.00" cy="0.00" transform="translate(77.30,38.40) rotate(-168.3)" rx="1.69" ry="1.44"/>
<ellipse fill="#5f5f60" cx="0.00" cy="0.00" transform="translate(110.01,39.04) rotate(-70.9)" rx="1.07" ry="0.82"/>
<path fill="#5f5f60" d="
  M 48.44 42.63
  Q 47.57 40.94 47.60 40.32
  A 0.90 0.72 39.9 0 1 49.19 40.35
  Q 49.66 41.41 49.14 42.60
  A 0.39 0.38 -47.0 0 1 48.44 42.63
  Z"
/>
<path fill="#5f5f60" d="
  M 132.51 49.28
  Q 129.91 48.59 130.53 46.96
  Q 132.40 46.84 132.51 49.28
  Z"
/>
<path fill="#312eb5" d="
  M 175.64 92.14
  Q 175.81 93.97 175.02 94.03
  Q 168.34 94.58 161.50 94.63
  L 158.52 94.97
  Q 151.57 94.97 144.65 95.03
  Q 139.57 95.07 131.42 95.71
  Q 124.73 96.24 118.17 96.37
  L 98.63 96.48
  Q 96.81 93.64 93.27 90.23
  Q 73.19 70.93 52.36 51.74
  Q 56.49 51.74 60.26 51.46
  Q 63.43 51.22 64.76 51.34
  Q 67.30 51.57 69.28 51.35
  Q 69.99 51.27 70.56 51.57
  Q 70.96 51.78 71.41 51.47
  Q 71.65 51.30 72.26 51.26
  Q 83.60 50.47 94.96 50.57
  L 106.87 50.13
  L 111.91 50.00
  A 0.55 0.55 0.0 0 0 112.38 49.71
  Q 112.69 49.10 113.41 49.50
  Q 113.65 49.64 114.37 49.63
  Q 126.50 49.35 128.34 49.19
  A 1.80 1.78 -26.1 0 1 129.74 49.66
  L 175.64 92.14
  Z
  M 129.9325 57.5799
  A 0.82 0.63 -143.3 0 0 130.2135 58.5751
  A 0.82 0.63 -143.3 0 0 131.2475 58.5601
  A 0.82 0.63 -143.3 0 0 130.9665 57.5649
  A 0.82 0.63 -143.3 0 0 129.9325 57.5799
  Z
  M 67.6938 59.1832
  A 1.31 0.75 -152.9 0 0 68.5183 60.4477
  A 1.31 0.75 -152.9 0 0 70.0262 60.3768
  A 1.31 0.75 -152.9 0 0 69.2017 59.1123
  A 1.31 0.75 -152.9 0 0 67.6938 59.1832
  Z
  M 100.5283 60.5685
  A 1.23 0.89 -170.1 0 0 101.5870 61.6567
  A 1.23 0.89 -170.1 0 0 102.9517 60.9915
  A 1.23 0.89 -170.1 0 0 101.8930 59.9033
  A 1.23 0.89 -170.1 0 0 100.5283 60.5685
  Z
  M 126.1154 84.0549
  A 1.99 0.86 -147.3 0 0 127.3254 85.8537
  A 1.99 0.86 -147.3 0 0 129.4646 86.2051
  A 1.99 0.86 -147.3 0 0 128.2546 84.4063
  A 1.99 0.86 -147.3 0 0 126.1154 84.0549
  Z
  M 161.62 86.03
  A 0.75 0.75 0.0 0 0 160.87 85.28
  A 0.75 0.75 0.0 0 0 160.12 86.03
  A 0.75 0.75 0.0 0 0 160.87 86.78
  A 0.75 0.75 0.0 0 0 161.62 86.03
  Z
  M 97.7799 87.0159
  A 1.34 0.75 -148.3 0 0 98.5259 88.3581
  A 1.34 0.75 -148.3 0 0 100.0601 88.4241
  A 1.34 0.75 -148.3 0 0 99.3141 87.0819
  A 1.34 0.75 -148.3 0 0 97.7799 87.0159
  Z"
/>
<path fill="#5f5f60" d="
  M 106.87 50.13
  L 94.96 50.57
  Q 97.26 49.71 98.81 49.61
  Q 102.27 49.38 106.87 50.13
  Z"
/>
<path fill="#5f5f60" d="
  M 363.26 50.81
  Q 362.83 54.38 361.14 57.69
  A 2.03 1.99 -31.1 0 0 360.91 58.58
  Q 360.83 60.81 358.81 61.38
  Q 360.23 55.62 363.26 50.81
  Z"
/>
<ellipse fill="#5f5f60" cx="0.00" cy="0.00" transform="translate(130.59,58.07) rotate(-143.3)" rx="0.82" ry="0.63"/>
<ellipse fill="#5f5f60" cx="0.00" cy="0.00" transform="translate(68.86,59.78) rotate(-152.9)" rx="1.31" ry="0.75"/>
<path fill="#5f5f60" d="
  M 144.95 61.53
  Q 143.06 60.96 143.33 58.93
  Q 144.47 59.92 144.95 61.53
  Z"
/>
<ellipse fill="#5f5f60" cx="0.00" cy="0.00" transform="translate(101.74,60.78) rotate(-170.1)" rx="1.23" ry="0.89"/>
<path fill="#5f5f60" d="
  M 357.21 70.05
  Q 357.88 71.84 357.08 72.03
  Q 356.95 70.98 357.21 70.05
  Z"
/>
<path fill="#5f5f60" d="
  M 369.99 83.26
  A 0.07 0.07 0.0 0 1 369.92 83.33
  L 369.90 83.32
  A 2.11 1.65 -86.4 0 1 368.38 81.12
  L 368.40 80.80
  A 2.11 1.65 -86.4 0 1 370.18 78.79
  L 370.20 78.79
  A 0.07 0.07 0.0 0 1 370.27 78.87
  L 369.99 83.26
  Z"
/>
<path fill="#5f5f60" d="
  M 367.20 95.61
  Q 362.34 90.42 356.65 86.63
  A 0.66 0.65 -31.6 0 0 356.21 86.53
  Q 355.15 86.63 355.26 87.96
  Q 354.26 87.30 354.60 86.49
  Q 355.91 83.46 357.14 80.07
  A 0.37 0.37 0.0 0 1 357.86 80.17
  L 358.21 84.59
  A 1.52 1.52 0.0 0 0 360.69 85.64
  C 361.44 85.02 362.58 84.01 363.60 84.46
  Q 365.62 85.36 365.00 88.03
  Q 364.59 89.83 364.60 91.21
  A 1.31 1.27 -67.3 0 0 364.95 92.10
  Q 366.35 93.61 367.20 95.61
  Z"
/>
<path fill="#5f5f60" d="
  M 353.93 82.85
  Q 353.00 87.24 350.24 90.70
  A 1.18 1.03 77.9 0 0 350.08 90.99
  L 347.17 99.63
  Q 349.03 91.56 347.76 82.61
  A 0.52 0.52 0.0 0 1 348.53 82.08
  Q 351.12 83.54 353.93 82.85
  Z"
/>
<ellipse fill="#5f5f60" cx="0.00" cy="0.00" transform="translate(127.79,85.13) rotate(-147.3)" rx="1.99" ry="0.86"/>
<circle fill="#5f5f60" cx="160.87" cy="86.03" r="0.75"/>
<ellipse fill="#5f5f60" cx="0.00" cy="0.00" transform="translate(98.92,87.72) rotate(-148.3)" rx="1.34" ry="0.75"/>
<path fill="#5f5f60" d="
  M 429.75 90.63
  Q 424.76 92.08 422.76 95.30
  Q 413.48 110.24 403.32 131.04
  C 402.27 133.19 401.35 136.15 399.97 138.60
  Q 393.10 132.60 389.65 129.12
  Q 389.22 128.69 389.47 128.03
  L 390.14 127.94
  L 390.30 128.55
  A 1.68 1.65 -75.9 0 0 390.77 129.35
  Q 393.96 132.46 395.52 133.48
  Q 396.85 134.34 398.58 133.50
  A 1.68 1.58 -83.0 0 0 399.17 133.01
  Q 404.19 126.35 407.13 118.71
  Q 407.15 118.64 407.33 117.68
  A 1.87 1.77 -21.6 0 1 407.74 116.80
  C 411.61 112.18 414.42 105.97 417.26 100.34
  Q 417.72 99.44 417.84 98.83
  Q 418.08 97.57 417.02 98.12
  Q 418.22 94.97 420.89 94.03
  Q 422.15 93.58 422.80 92.97
  Q 423.49 92.31 424.71 91.86
  A 1.06 1.04 -41.7 0 0 424.84 89.94
  Q 424.46 89.75 424.41 89.59
  A 0.48 0.48 0.0 0 1 424.71 89.07
  L 430.35 86.85
  A 0.54 0.52 -40.8 0 1 430.79 86.87
  Q 431.29 87.14 431.49 87.88
  A 0.51 0.51 0.0 0 1 431.04 88.52
  Q 430.21 88.58 429.95 88.71
  Q 427.95 89.71 429.75 90.63
  Z"
/>
<path fill="#5f5f60" d="
  M 354.77 90.28
  Q 353.90 89.94 353.22 90.71
  Q 353.29 90.21 353.48 89.91
  Q 353.73 89.50 354.16 89.66
  Q 354.54 89.81 354.77 90.28
  Z"
/>
<path fill="#5f5f60" d="
  M 353.22 90.71
  Q 353.11 91.23 352.74 91.45
  Q 352.91 91.01 353.22 90.71
  Z"
/>
<path fill="#5f5f60" d="
  M 369.24 94.40
  L 366.69 91.85
  A 0.49 0.49 0.0 0 1 366.59 91.30
  Q 366.86 90.65 367.71 90.68
  C 369.25 90.73 369.65 93.26 369.52 94.30
  A 0.17 0.16 -64.3 0 1 369.24 94.40
  Z"
/>
<path fill="#5f5f60" d="
  M 352.74 91.45
  Q 352.69 92.12 352.22 92.47
  Q 352.21 91.75 352.74 91.45
  Z"
/>
<path fill="#5f5f60" d="
  M 181.24 95.22
  Q 182.58 101.45 181.71 109.61
  Q 181.50 111.56 181.21 112.80
  A 0.50 0.50 0.0 0 1 180.23 112.72
  L 179.30 100.91
  A 2.08 2.08 0.0 0 0 177.90 99.11
  L 170.61 96.59
  Q 171.23 94.46 168.52 94.74
  Q 164.33 95.18 161.50 94.63
  Q 168.34 94.58 175.02 94.03
  Q 175.81 93.97 175.64 92.14
  Q 176.37 93.84 175.74 94.92
  A 1.12 1.12 0.0 0 0 177.48 96.28
  Q 178.47 95.32 181.24 95.22
  Z"
/>
<path fill="#e1c620" d="
  M 161.50 94.63
  Q 164.33 95.18 168.52 94.74
  Q 171.23 94.46 170.61 96.59
  L 158.52 94.97
  L 161.50 94.63
  Z"
/>
<path fill="#5f5f60" d="
  M 370.86 94.43
  L 372.54 98.34
  Q 370.16 97.55 370.86 94.43
  Z"
/>
<path fill="#5f5f60" d="
  M 406.50 95.00
  L 398.04 94.90
  Q 402.29 94.25 406.50 95.00
  Z"
/>
<path fill="#5f5f60" d="
  M 351.56 94.85
  L 351.79 97.70
  A 0.99 0.67 -67.7 0 0 351.84 97.94
  L 353.28 102.26
  A 0.33 0.33 0.0 0 0 353.85 102.36
  Q 355.53 100.26 355.39 97.52
  Q 355.34 96.69 356.84 95.52
  A 0.52 0.51 -28.4 0 1 357.65 95.76
  Q 357.98 96.76 359.39 98.43
  A 1.48 1.47 -57.5 0 0 361.94 97.86
  Q 361.94 97.85 361.55 96.68
  L 371.40 106.01
  Q 370.74 109.30 375.04 113.72
  Q 374.70 114.56 373.83 114.77
  A 0.80 0.79 3.6 0 0 373.28 115.25
  Q 373.24 115.34 373.21 115.39
  A 0.76 0.75 -58.7 0 1 372.19 115.64
  Q 371.11 115.01 369.49 115.65
  A 0.73 0.73 0.0 0 0 369.03 116.25
  L 367.36 131.09
  A 0.40 0.40 0.0 0 1 366.92 131.45
  L 366.63 131.42
  A 0.97 0.97 0.0 0 1 365.78 130.38
  Q 366.26 124.28 367.18 117.02
  Q 367.21 116.80 366.98 114.56
  A 0.78 0.77 -3.9 0 0 366.17 113.86
  Q 365.63 113.89 365.51 113.06
  A 0.24 0.23 59.6 0 0 365.09 112.95
  Q 363.17 115.49 359.14 115.20
  A 0.34 0.34 0.0 0 0 358.80 115.67
  L 364.38 129.14
  A 0.47 0.46 -17.4 0 1 364.05 129.77
  L 363.82 129.82
  A 1.24 1.23 80.7 0 1 362.71 129.02
  L 360.07 121.85
  A 1.62 0.35 73.7 0 0 359.99 121.68
  Q 358.19 118.69 357.88 116.77
  A 1.61 1.60 -75.1 0 0 357.32 115.80
  Q 356.18 114.88 355.87 112.89
  Q 356.12 116.27 352.71 115.63
  Q 354.10 115.65 354.14 113.97
  Q 354.20 111.28 353.87 110.32
  Q 352.71 106.97 351.21 103.79
  Q 350.19 101.62 348.40 102.73
  Q 349.23 98.54 351.56 94.85
  Z"
/>
<path fill="#5f5f60" d="
  M 410.97 95.12
  L 406.97 95.08
  L 410.97 95.12
  Z"
/>
<path fill="#5f5f60" d="
  M 414.66 97.52
  Q 415.43 95.43 413.43 95.16
  Q 414.55 94.67 415.50 94.86
  Q 416.79 95.13 416.20 96.24
  Q 415.79 97.02 414.66 97.52
  Z"
/>
<path fill="#5f5f60" d="
  M 118.17 96.37
  L 112.21 98.78
  A 1.10 1.09 -43.6 0 0 112.16 100.79
  L 169.52 126.93
  Q 170.93 131.08 176.88 130.42
  Q 179.19 128.42 179.59 127.06
  Q 180.25 124.80 180.80 122.02
  A 0.30 0.29 -48.7 0 1 181.37 121.98
  Q 182.11 124.25 181.82 127.54
  A 1.55 1.54 28.7 0 0 182.15 128.65
  Q 185.36 132.77 187.98 134.30
  C 189.69 135.30 192.52 136.81 192.84 138.63
  Q 192.97 139.42 194.01 139.60
  Q 194.44 139.68 195.34 140.61
  Q 198.99 144.37 202.34 148.10
  C 203.99 149.94 206.01 151.42 208.00 152.98
  Q 208.92 155.39 210.92 157.22
  A 0.37 0.37 0.0 0 0 211.54 156.93
  Q 211.52 156.48 211.88 156.27
  A 0.30 0.28 88.1 0 0 212.02 156.11
  L 222.79 125.08
  A 1.91 1.89 -81.3 0 1 224.50 123.81
  L 238.79 123.20
  A 1.27 1.26 -86.8 0 1 240.09 124.66
  Q 239.53 128.27 237.27 131.54
  A 1.70 1.67 10.8 0 1 236.22 132.24
  Q 234.32 132.64 234.25 135.36
  Q 234.20 137.75 233.97 138.64
  A 7.40 6.17 -31.7 0 1 233.66 139.57
  Q 232.00 143.64 231.95 143.83
  Q 231.39 145.81 230.25 148.05
  Q 228.99 150.54 227.08 155.89
  C 226.34 157.95 227.28 159.55 224.95 161.30
  A 0.94 0.71 -54.0 0 0 224.98 162.83
  Q 225.25 162.87 225.29 163.92
  Q 225.31 164.46 224.75 165.06
  Q 223.13 166.77 224.43 168.95
  Q 226.30 172.06 229.46 170.67
  A 0.68 0.68 0.0 0 1 230.41 171.22
  Q 230.51 172.23 231.14 172.76
  A 0.47 0.47 0.0 0 0 231.84 172.65
  Q 231.85 172.63 231.88 172.58
  A 0.50 0.50 0.0 0 1 232.67 172.45
  Q 233.75 173.48 233.35 176.31
  Q 233.01 178.70 230.80 178.04
  A 0.76 0.76 0.0 0 0 230.04 178.24
  Q 229.72 178.58 229.72 178.69
  A 0.73 0.71 -7.3 0 1 229.15 179.41
  Q 227.96 179.67 227.06 180.93
  A 1.55 1.41 -34.8 0 1 224.37 180.57
  Q 223.91 178.33 221.46 176.72
  A 0.64 0.64 0.0 0 0 220.51 177.04
  L 218.46 182.95
  A 1.08 1.08 0.0 0 1 217.34 183.67
  Q 214.33 183.36 211.59 184.29
  A 1.70 1.65 -53.0 0 1 211.08 184.37
  L 202.30 184.50
  A 1.17 1.16 88.5 0 1 201.13 183.38
  Q 201.07 181.88 201.65 180.64
  Q 204.75 174.00 207.31 166.21
  A 3.12 3.11 -53.3 0 0 206.91 163.47
  Q 206.39 162.73 204.46 161.81
  Q 204.44 160.62 204.01 160.23
  Q 189.56 147.39 180.91 138.92
  Q 175.62 133.74 171.87 131.40
  Q 167.15 128.45 161.45 125.81
  Q 134.80 113.51 122.70 108.51
  Q 119.77 107.29 115.38 105.13
  Q 112.00 103.46 107.99 101.98
  Q 106.79 101.53 101.38 98.87
  Q 99.19 97.79 98.63 96.48
  L 118.17 96.37
  Z
  M 183.45 139.42
  L 188.18 139.95
  A 0.63 0.63 0.0 0 0 188.88 139.39
  L 188.91 139.11
  A 0.74 0.73 -86.8 0 0 188.18 138.29
  Q 186.72 138.29 185.60 137.16
  Q 181.66 133.19 181.64 133.17
  A 0.78 0.78 0.0 0 0 180.34 133.91
  L 181.00 136.64
  A 0.73 0.72 6.7 0 0 181.38 137.11
  Q 182.16 137.50 182.76 138.90
  A 0.88 0.86 81.5 0 0 183.45 139.42
  Z
  M 225.4029 176.0879
  A 1.34 1.15 -153.3 0 0 226.0833 177.7174
  A 1.34 1.15 -153.3 0 0 227.7971 177.2921
  A 1.34 1.15 -153.3 0 0 227.1167 175.6626
  A 1.34 1.15 -153.3 0 0 225.4029 176.0879
  Z"
/>
<path fill="#5f5f60" d="
  M 365.77 97.58
  L 367.87 98.60
  A 0.61 0.60 -80.6 0 0 368.73 97.98
  Q 368.63 97.10 367.68 96.17
  Q 367.96 96.10 368.22 96.14
  A 0.73 0.73 0.0 0 1 368.86 96.91
  L 368.73 99.37
  A 0.44 0.44 0.0 0 1 367.99 99.66
  L 365.77 97.58
  Z"
/>
<path fill="#5f5f60" d="
  M 365.45 97.28
  Q 364.89 97.08 364.56 96.48
  Q 365.08 96.81 365.45 97.28
  Z"
/>
<path fill="#5f5f60" d="
  M 373.25 99.26
  Q 372.86 99.14 372.74 98.71
  Q 373.13 98.85 373.25 99.26
  Z"
/>
<path fill="#5f5f60" d="
  M 375.68 107.03
  Q 374.35 106.00 370.91 102.84
  C 370.19 102.18 369.84 101.05 369.88 100.11
  A 0.37 0.37 0.0 0 1 370.53 99.89
  Q 375.95 106.48 376.07 106.70
  A 0.26 0.26 0.0 0 1 375.68 107.03
  Z"
/>
<path fill="#5f5f60" d="
  M 348.40 102.73
  Q 348.55 103.06 348.23 103.43
  Q 348.18 103.07 348.40 102.73
  Z"
/>
<path fill="#5f5f60" d="
  M 348.23 103.43
  Q 348.23 104.51 347.50 105.21
  Q 347.46 103.80 348.23 103.43
  Z"
/>
<path fill="#e1c620" d="
  M 228.91 106.65
  Q 229.14 107.62 228.97 108.62
  A 0.62 0.62 0.0 0 0 229.47 109.33
  Q 230.15 109.45 230.63 108.49
  A 0.13 0.12 -34.6 0 1 230.87 108.53
  Q 230.88 108.64 230.88 108.67
  A 0.80 0.79 1.0 0 0 231.53 109.34
  Q 234.44 109.80 236.81 108.29
  Q 259.47 108.68 282.18 107.26
  A 1.23 1.21 -25.2 0 1 283.11 107.59
  L 292.30 116.14
  A 4.21 4.20 -24.6 0 0 295.33 117.26
  L 302.73 116.94
  A 0.75 0.74 -5.6 0 1 303.50 117.57
  L 304.92 126.64
  Q 304.75 128.21 305.62 129.58
  A 0.94 0.92 76.4 0 0 306.29 130.00
  L 309.78 130.39
  A 0.49 0.49 0.0 0 0 310.32 129.88
  L 310.10 124.61
  A 0.68 0.68 0.0 0 1 311.15 124.01
  Q 313.84 125.77 316.89 124.77
  Q 316.91 127.57 316.47 130.31
  C 315.99 133.33 315.95 135.29 318.44 136.91
  A 1.60 1.53 -27.1 0 0 319.31 137.17
  Q 322.26 137.15 325.54 138.21
  Q 326.91 138.65 327.35 137.78
  Q 327.77 136.94 328.81 136.50
  Q 332.63 134.89 334.68 132.77
  Q 334.49 133.79 334.84 134.77
  A 0.35 0.34 -43.8 0 0 335.48 134.78
  Q 339.13 125.85 341.65 119.18
  Q 342.21 117.69 344.60 114.30
  Q 344.40 115.46 345.23 115.54
  Q 346.75 115.68 352.71 115.63
  Q 356.12 116.27 355.87 112.89
  Q 356.18 114.88 357.32 115.80
  A 1.61 1.60 -75.1 0 1 357.88 116.77
  Q 358.19 118.69 359.99 121.68
  A 1.62 0.35 73.7 0 1 360.07 121.85
  L 362.71 129.02
  A 1.24 1.23 80.7 0 0 363.82 129.82
  L 364.05 129.77
  A 0.47 0.46 -17.4 0 0 364.38 129.14
  L 358.80 115.67
  A 0.34 0.34 0.0 0 1 359.14 115.20
  Q 363.17 115.49 365.09 112.95
  A 0.24 0.23 59.6 0 1 365.51 113.06
  Q 365.63 113.89 366.17 113.86
  A 0.78 0.77 -3.9 0 1 366.98 114.56
  Q 367.21 116.80 367.18 117.02
  Q 366.26 124.28 365.78 130.38
  A 0.97 0.97 0.0 0 0 366.63 131.42
  L 366.92 131.45
  A 0.40 0.40 0.0 0 0 367.36 131.09
  L 369.03 116.25
  A 0.73 0.73 0.0 0 1 369.49 115.65
  Q 371.11 115.01 372.19 115.64
  A 0.76 0.75 -58.7 0 0 373.21 115.39
  Q 373.24 115.34 373.28 115.25
  A 0.80 0.79 3.6 0 1 373.83 114.77
  Q 374.70 114.56 375.04 113.72
  Q 377.91 117.84 382.10 120.56
  L 388.01 125.11
  Q 387.99 125.16 387.96 125.21
  Q 388.11 125.44 388.32 125.62
  L 389.47 128.03
  Q 389.22 128.69 389.65 129.12
  Q 393.10 132.60 399.97 138.60
  L 393.92 156.19
  A 1.85 1.85 0.0 0 0 394.24 157.97
  Q 397.36 161.71 400.75 165.73
  C 403.17 168.60 406.54 172.60 406.26 175.73
  A 1.31 1.27 -16.4 0 1 405.74 176.65
  Q 402.28 179.25 399.46 175.85
  A 1.78 1.75 -72.7 0 1 399.11 175.17
  Q 398.58 173.24 396.75 171.96
  Q 394.84 170.62 388.64 167.89
  Q 385.59 166.54 383.47 167.00
  A 2.77 2.51 -61.8 0 0 382.85 167.22
  Q 370.02 173.31 352.58 182.08
  C 348.66 184.06 345.34 185.79 342.30 189.30
  A 2.93 2.88 -15.5 0 0 341.76 190.24
  Q 340.28 194.64 330.49 216.97
  Q 328.66 221.15 325.42 229.14
  Q 324.15 232.28 322.26 233.55
  A 1.46 1.34 22.5 0 1 321.63 233.78
  L 312.84 234.72
  L 299.45 221.25
  A 0.61 0.60 -23.5 0 1 299.86 220.22
  L 300.50 220.19
  A 0.79 0.79 0.0 0 0 300.95 218.77
  L 297.24 215.95
  A 1.11 1.11 0.0 0 0 296.52 215.73
  L 274.59 216.66
  A 1.37 1.37 0.0 0 0 273.80 219.10
  Q 279.19 223.34 281.60 226.00
  A 6.31 5.96 -1.6 0 0 282.53 226.83
  Q 286.64 229.78 288.49 232.95
  C 289.54 234.76 291.45 235.42 293.24 235.17
  Q 298.81 234.39 303.82 235.64
  L 296.87 236.46
  Q 295.74 236.78 293.72 236.18
  A 0.42 0.42 0.0 0 0 293.22 236.74
  L 294.55 239.94
  A 0.46 0.46 0.0 0 1 294.00 240.56
  Q 291.35 239.82 289.96 237.84
  A 2.34 2.31 83.3 0 0 288.91 237.00
  Q 285.52 235.61 287.12 238.93
  Q 282.69 237.14 280.49 237.05
  Q 276.14 236.88 248.71 237.09
  C 246.41 237.11 244.10 237.61 242.15 238.74
  A 0.70 0.69 77.2 0 1 241.11 238.08
  Q 241.39 234.30 239.54 230.22
  C 236.52 223.60 230.56 229.36 227.16 231.81
  Q 225.94 229.71 223.32 230.12
  L 224.10 215.20
  A 1.32 1.30 22.2 0 0 223.65 214.15
  L 201.38 194.78
  Q 199.47 191.15 197.39 192.63
  Q 195.46 192.48 194.02 194.49
  A 0.36 0.36 0.0 0 1 193.37 194.33
  Q 192.82 190.10 194.07 185.43
  A 1.63 1.61 -18.0 0 1 194.37 184.85
  L 196.18 182.75
  A 0.88 0.87 66.0 0 0 196.38 182.22
  Q 196.64 176.84 195.34 171.61
  A 1.09 1.08 -29.8 0 1 195.62 170.60
  L 204.46 161.81
  Q 206.39 162.73 206.91 163.47
  A 3.12 3.11 -53.3 0 1 207.31 166.21
  Q 204.75 174.00 201.65 180.64
  Q 201.07 181.88 201.13 183.38
  A 1.17 1.16 88.5 0 0 202.30 184.50
  L 211.08 184.37
  A 1.70 1.65 -53.0 0 0 211.59 184.29
  Q 214.33 183.36 217.34 183.67
  A 1.08 1.08 0.0 0 0 218.46 182.95
  L 220.51 177.04
  A 0.64 0.64 0.0 0 1 221.46 176.72
  Q 223.91 178.33 224.37 180.57
  A 1.55 1.41 -34.8 0 0 227.06 180.93
  Q 227.96 179.67 229.15 179.41
  A 0.73 0.71 -7.3 0 0 229.72 178.69
  Q 229.72 178.58 230.04 178.24
  A 0.76 0.76 0.0 0 1 230.80 178.04
  Q 233.01 178.70 233.35 176.31
  Q 233.75 173.48 232.67 172.45
  A 0.50 0.50 0.0 0 0 231.88 172.58
  Q 231.85 172.63 231.84 172.65
  A 0.47 0.47 0.0 0 1 231.14 172.76
  Q 230.51 172.23 230.41 171.22
  A 0.68 0.68 0.0 0 0 229.46 170.67
  Q 226.30 172.06 224.43 168.95
  Q 223.13 166.77 224.75 165.06
  Q 225.31 164.46 225.29 163.92
  Q 225.25 162.87 224.98 162.83
  A 0.94 0.71 -54.0 0 1 224.95 161.30
  C 227.28 159.55 226.34 157.95 227.08 155.89
  Q 228.99 150.54 230.25 148.05
  Q 231.39 145.81 231.95 143.83
  Q 232.00 143.64 233.66 139.57
  A 7.40 6.17 -31.7 0 0 233.97 138.64
  Q 234.20 137.75 234.25 135.36
  Q 234.32 132.64 236.22 132.24
  A 1.70 1.67 10.8 0 0 237.27 131.54
  Q 239.53 128.27 240.09 124.66
  A 1.27 1.26 -86.8 0 0 238.79 123.20
  L 224.50 123.81
  A 1.91 1.89 -81.3 0 0 222.79 125.08
  L 212.02 156.11
  A 0.30 0.28 88.1 0 1 211.88 156.27
  Q 211.52 156.48 211.54 156.93
  A 0.37 0.37 0.0 0 1 210.92 157.22
  Q 208.92 155.39 208.00 152.98
  L 214.23 136.29
  A 3.57 3.54 -42.2 0 0 214.34 134.16
  L 211.50 123.39
  A 2.95 2.72 42.7 0 1 211.42 122.39
  Q 211.69 119.81 215.32 119.50
  Q 215.74 120.68 216.91 120.56
  A 0.81 0.80 -74.9 0 0 217.47 120.23
  L 218.80 118.35
  Q 220.91 117.16 221.39 116.12
  Q 224.02 110.40 228.91 106.65
  Z
  M 264.62 110.12
  C 262.53 109.04 257.20 109.55 254.97 109.65
  A 1.08 1.08 0.0 0 0 254.01 110.37
  L 250.14 121.52
  A 0.99 0.99 0.0 0 0 251.15 122.83
  L 258.60 122.25
  A 2.18 2.18 0.0 0 0 260.43 120.92
  L 264.77 110.53
  A 0.33 0.32 25.3 0 0 264.62 110.12
  Z
  M 266.31 140.78
  Q 266.42 140.94 266.41 141.23
  A 0.52 0.52 0.0 0 0 266.77 141.74
  Q 268.20 142.18 268.88 141.11
  Q 269.71 139.82 272.12 132.72
  A 0.98 0.98 0.0 0 0 271.90 131.73
  Q 270.40 130.18 271.56 128.55
  C 273.04 126.46 273.79 125.25 272.22 122.63
  A 0.42 0.41 68.6 0 1 272.49 122.01
  C 274.22 121.65 276.14 119.83 275.83 117.91
  Q 275.68 117.03 276.08 116.65
  Q 276.95 115.81 276.66 115.09
  A 0.46 0.45 77.6 0 0 276.21 114.80
  L 265.21 115.26
  A 1.60 1.59 13.0 0 0 263.88 116.09
  L 261.43 120.62
  A 0.74 0.69 63.7 0 0 261.33 120.95
  Q 261.23 122.54 260.34 124.28
  C 259.14 126.64 258.73 128.74 258.00 130.87
  A 1.06 1.05 8.0 0 1 257.04 131.59
  L 254.08 131.72
  A 1.65 1.65 0.0 0 0 252.60 132.82
  Q 248.80 143.67 243.22 157.49
  Q 242.23 159.94 243.16 161.47
  A 0.63 0.61 -51.1 0 1 243.21 162.00
  L 238.26 176.25
  A 0.61 0.61 0.0 0 0 238.85 177.06
  Q 244.12 176.97 246.83 176.89
  Q 251.12 176.75 252.21 176.50
  C 255.08 175.83 256.18 171.54 256.27 169.00
  A 0.70 0.70 0.0 0 1 257.19 168.37
  L 258.54 168.84
  A 0.52 0.52 0.0 0 0 259.15 168.64
  Q 259.76 167.69 260.08 166.08
  A 0.84 0.83 24.4 0 0 259.76 165.24
  Q 259.57 165.10 259.21 164.67
  Q 259.06 164.49 259.15 163.33
  Q 259.29 161.53 258.16 161.09
  A 1.07 0.93 -64.1 0 1 257.77 159.63
  Q 259.89 155.84 260.54 152.62
  Q 260.73 151.68 262.22 149.50
  A 2.91 2.87 69.9 0 0 262.65 148.56
  Q 263.70 144.55 266.01 140.79
  A 0.18 0.18 0.0 0 1 266.31 140.78
  Z
  M 245.13 127.14
  Q 245.06 127.65 245.12 127.74
  A 0.23 0.23 0.0 0 0 245.54 127.61
  Q 245.51 126.65 246.07 125.80
  A 1.35 1.34 87.9 0 0 244.13 123.99
  C 242.77 125.03 241.98 127.81 244.51 128.47
  A 0.50 0.50 0.0 0 0 245.14 128.04
  Q 245.18 127.66 245.13 127.14
  Z
  M 236.41 137.45
  Q 235.09 141.20 233.48 144.77
  A 0.85 0.85 0.0 0 0 234.30 145.97
  L 243.80 145.57
  A 2.43 2.43 0.0 0 0 246.03 143.80
  Q 246.45 142.33 247.00 140.76
  Q 248.32 137.02 249.93 133.44
  A 0.85 0.85 0.0 0 0 249.11 132.24
  L 239.61 132.64
  A 2.43 2.43 0.0 0 0 237.38 134.41
  Q 236.96 135.88 236.41 137.45
  Z
  M 229.86 167.10
  Q 231.20 165.98 231.29 164.03
  A 0.58 0.58 0.0 0 0 230.56 163.45
  Q 228.07 164.15 227.61 166.38
  A 1.41 1.08 -19.8 0 0 229.86 167.10
  Z
  M 196.51 190.76
  A 1.19 1.19 0.0 0 0 195.32 189.57
  A 1.19 1.19 0.0 0 0 194.13 190.76
  A 1.19 1.19 0.0 0 0 195.32 191.95
  A 1.19 1.19 0.0 0 0 196.51 190.76
  Z
  M 264.42 199.37
  Q 259.36 193.80 255.19 191.36
  A 2.23 2.17 -26.4 0 0 254.35 191.09
  Q 248.01 190.49 242.78 191.74
  Q 241.57 192.03 237.69 191.20
  A 5.85 5.21 -36.2 0 0 236.44 191.08
  L 221.05 191.47
  A 4.96 4.88 -55.6 0 0 219.42 191.79
  Q 215.39 193.29 210.21 192.30
  C 208.22 191.92 205.17 191.77 203.35 192.62
  A 0.69 0.69 0.0 0 0 203.22 193.80
  L 210.23 199.13
  A 1.15 1.11 -83.9 0 1 210.59 199.59
  Q 211.13 200.80 212.71 201.76
  A 2.26 2.20 -26.6 0 0 213.69 202.07
  C 219.57 202.48 225.42 201.78 231.08 201.69
  Q 248.54 201.40 249.50 201.35
  Q 258.07 200.92 264.18 200.02
  A 0.40 0.39 -25.2 0 0 264.42 199.37
  Z
  M 273.13 212.35
  A 1.16 1.16 0.0 0 0 274.21 214.06
  L 301.68 212.89
  A 2.25 2.25 0.0 0 0 303.72 211.37
  L 309.78 193.92
  A 1.20 1.20 0.0 0 0 308.59 192.32
  L 281.43 193.47
  A 1.75 1.73 6.2 0 0 279.83 194.75
  Q 277.13 204.84 273.13 212.35
  Z
  M 305.50 213.34
  A 0.96 0.96 0.0 0 0 305.75 214.36
  L 322.77 230.21
  A 0.96 0.96 0.0 0 0 324.33 229.82
  L 330.90 210.91
  A 0.96 0.96 0.0 0 0 330.65 209.89
  L 313.62 194.05
  A 0.96 0.96 0.0 0 0 312.06 194.44
  L 305.50 213.34
  Z
  M 255.40 220.43
  Q 255.23 221.18 255.51 221.56
  A 0.87 0.87 0.0 0 0 256.94 221.55
  Q 257.71 220.42 258.65 218.96
  Q 258.79 218.74 258.38 218.60
  Q 258.33 218.31 258.45 218.02
  A 0.70 0.68 -48.4 0 0 258.42 217.42
  Q 257.38 215.54 255.68 214.64
  A 1.08 1.07 -73.1 0 1 255.11 213.57
  L 255.55 209.73
  A 1.08 1.08 0.0 0 0 254.31 208.55
  Q 249.09 209.33 247.73 209.30
  Q 247.51 209.30 247.09 209.10
  A 1.08 1.08 0.0 0 0 245.62 210.43
  L 248.76 219.62
  A 0.79 0.75 -82.7 0 0 249.03 219.99
  Q 249.66 220.49 250.23 220.59
  A 0.52 0.52 0.0 0 0 250.83 220.12
  Q 250.84 220.00 250.87 219.92
  A 0.74 0.62 -72.1 0 1 251.66 219.42
  L 255.40 220.43
  Z
  M 243.14 219.90
  Q 244.49 219.91 246.37 218.92
  A 0.50 0.49 -23.6 0 0 246.61 218.32
  L 243.47 209.13
  A 0.80 0.80 0.0 0 0 242.11 208.86
  Q 241.54 209.51 240.75 209.47
  Q 236.34 209.27 231.97 209.52
  A 0.55 0.55 0.0 0 0 231.62 210.46
  L 237.39 215.96
  A 1.02 0.99 -13.6 0 0 237.76 216.18
  Q 239.74 216.88 242.32 219.54
  A 1.19 1.17 68.0 0 0 243.14 219.90
  Z
  M 228.49 225.82
  L 230.76 221.90
  A 0.73 0.73 0.0 0 0 230.50 220.91
  Q 228.17 219.50 226.80 217.60
  A 0.60 0.60 0.0 0 0 225.71 217.91
  L 225.31 225.47
  A 0.80 0.80 0.0 0 0 225.52 226.06
  Q 226.28 226.94 227.99 226.26
  A 0.98 0.98 0.0 0 0 228.49 225.82
  Z
  M 263.69 217.66
  Q 263.18 219.08 263.48 219.98
  A 0.84 0.84 0.0 0 0 264.28 220.56
  Q 267.10 220.55 269.32 222.78
  A 0.45 0.45 0.0 0 0 270.01 222.22
  Q 267.91 219.06 264.77 217.26
  A 0.76 0.75 -65.0 0 0 263.69 217.66
  Z
  M 257.9413 222.8394
  A 1.32 0.81 -156.3 0 0 258.8244 224.1117
  A 1.32 0.81 -156.3 0 0 260.3587 223.9006
  A 1.32 0.81 -156.3 0 0 259.4756 222.6283
  A 1.32 0.81 -156.3 0 0 257.9413 222.8394
  Z
  M 234.35 224.17
  Q 233.10 223.12 232.38 223.10
  A 0.76 0.76 0.0 0 0 231.59 223.82
  Q 231.50 225.34 229.65 226.90
  A 0.43 0.42 11.2 0 0 230.12 227.60
  Q 232.30 226.49 234.35 224.73
  A 0.37 0.37 0.0 0 0 234.35 224.17
  Z
  M 305.73 223.72
  A 0.81 0.81 0.0 0 0 304.85 224.68
  L 304.95 225.18
  A 0.64 0.63 16.1 0 0 305.14 225.52
  L 311.59 231.53
  A 4.54 4.49 -21.8 0 0 314.41 232.72
  L 318.45 232.93
  A 1.42 1.42 0.0 0 0 319.38 230.38
  L 311.91 224.70
  A 2.02 2.00 -23.2 0 0 310.92 224.31
  L 305.73 223.72
  Z
  M 278.86 230.27
  L 275.64 226.80
  Q 272.28 224.77 273.05 229.63
  A 0.80 0.80 0.0 0 0 274.07 230.28
  Q 274.83 230.05 275.23 230.46
  A 0.57 0.57 0.0 0 1 275.12 231.33
  Q 273.89 232.13 272.68 232.40
  A 0.31 0.25 -63.2 0 0 272.53 232.47
  Q 272.03 232.82 272.12 233.17
  A 0.53 0.52 -21.9 0 1 271.86 233.76
  Q 271.24 234.10 270.75 233.74
  Q 270.25 233.38 270.16 232.84
  Q 269.72 230.42 266.82 231.33
  A 0.25 0.25 0.0 0 0 266.75 231.77
  L 270.17 234.21
  A 1.17 1.11 -16.8 0 0 270.55 234.40
  Q 275.64 235.77 277.45 231.88
  A 0.63 0.62 -63.4 0 1 278.31 231.59
  Q 279.67 232.28 280.40 232.01
  A 0.38 0.38 0.0 0 0 280.48 231.33
  L 278.86 230.27
  Z
  M 265.91 230.50
  L 267.45 229.87
  A 0.60 0.60 0.0 0 0 267.32 228.72
  Q 265.65 228.43 265.50 230.21
  A 0.30 0.29 -9.3 0 0 265.91 230.50
  Z
  M 249.97 229.63
  L 249.44 234.34
  A 1.01 1.00 -4.2 0 0 250.70 235.42
  Q 250.88 235.37 251.12 235.27
  Q 251.43 235.14 251.55 234.87
  Q 252.74 232.33 253.61 231.39
  A 0.67 0.67 0.0 0 0 253.61 230.49
  Q 252.28 229.05 250.60 229.06
  A 0.64 0.63 -87.0 0 0 249.97 229.63
  Z
  M 243.13 233.93
  A 1.39 1.23 46.0 0 0 243.24 236.50
  Q 243.54 236.58 244.25 236.36
  A 0.86 0.86 0.0 0 0 244.54 234.88
  Q 243.36 233.90 243.13 233.93
  Z"
/>
<path fill="#5f5f60" d="
  M 236.81 108.29
  Q 234.44 109.80 231.53 109.34
  A 0.80 0.79 1.0 0 1 230.88 108.67
  Q 230.88 108.64 230.87 108.53
  A 0.13 0.12 -34.6 0 0 230.63 108.49
  Q 230.15 109.45 229.47 109.33
  A 0.62 0.62 0.0 0 1 228.97 108.62
  Q 229.14 107.62 228.91 106.65
  Q 230.94 106.83 232.32 107.92
  A 1.12 1.07 64.0 0 0 232.97 108.16
  L 236.81 108.29
  Z"
/>
<path fill="#5f5f60" d="
  M 346.71 107.95
  Q 346.54 109.27 345.74 110.47
  Q 345.83 108.92 346.71 107.95
  Z"
/>
<path fill="#5f5f60" d="
  M 264.62 110.12
  A 0.33 0.32 25.3 0 1 264.77 110.53
  L 260.43 120.92
  A 2.18 2.18 0.0 0 1 258.60 122.25
  L 251.15 122.83
  A 0.99 0.99 0.0 0 1 250.14 121.52
  L 254.01 110.37
  A 1.08 1.08 0.0 0 1 254.97 109.65
  C 257.20 109.55 262.53 109.04 264.62 110.12
  Z"
/>
<path fill="#5f5f60" d="
  M 345.74 110.47
  Q 345.87 112.50 344.57 113.75
  L 345.74 110.47
  Z"
/>
<path fill="#5f5f60" d="
  M 266.01 140.79
  Q 263.70 144.55 262.65 148.56
  A 2.91 2.87 69.9 0 1 262.22 149.50
  Q 260.73 151.68 260.54 152.62
  Q 259.89 155.84 257.77 159.63
  A 1.07 0.93 -64.1 0 0 258.16 161.09
  Q 259.29 161.53 259.15 163.33
  Q 259.06 164.49 259.21 164.67
  Q 259.57 165.10 259.76 165.24
  A 0.84 0.83 24.4 0 1 260.08 166.08
  Q 259.76 167.69 259.15 168.64
  A 0.52 0.52 0.0 0 1 258.54 168.84
  L 257.19 168.37
  A 0.70 0.70 0.0 0 0 256.27 169.00
  C 256.18 171.54 255.08 175.83 252.21 176.50
  Q 251.12 176.75 246.83 176.89
  Q 244.12 176.97 238.85 177.06
  A 0.61 0.61 0.0 0 1 238.26 176.25
  L 243.21 162.00
  A 0.63 0.61 -51.1 0 0 243.16 161.47
  Q 242.23 159.94 243.22 157.49
  Q 248.80 143.67 252.60 132.82
  A 1.65 1.65 0.0 0 1 254.08 131.72
  L 257.04 131.59
  A 1.06 1.05 8.0 0 0 258.00 130.87
  C 258.73 128.74 259.14 126.64 260.34 124.28
  Q 261.23 122.54 261.33 120.95
  A 0.74 0.69 63.7 0 1 261.43 120.62
  L 263.88 116.09
  A 1.60 1.59 13.0 0 1 265.21 115.26
  L 276.21 114.80
  A 0.46 0.45 77.6 0 1 276.66 115.09
  Q 276.95 115.81 276.08 116.65
  Q 275.68 117.03 275.83 117.91
  C 276.14 119.83 274.22 121.65 272.49 122.01
  A 0.42 0.41 68.6 0 0 272.22 122.63
  C 273.79 125.25 273.04 126.46 271.56 128.55
  Q 270.40 130.18 271.90 131.73
  A 0.98 0.98 0.0 0 1 272.12 132.72
  Q 269.71 139.82 268.88 141.11
  Q 268.20 142.18 266.77 141.74
  A 0.52 0.52 0.0 0 1 266.41 141.23
  Q 266.42 140.94 266.31 140.78
  A 0.18 0.18 0.0 0 0 266.01 140.79
  Z"
/>
<path fill="#5f5f60" d="
  M 384.88 116.29
  Q 387.28 120.36 388.01 125.11
  L 382.10 120.56
  Q 384.63 120.71 384.33 119.42
  Q 383.95 117.77 382.71 116.27
  Q 383.56 116.66 384.24 117.21
  Q 384.52 117.43 384.88 116.29
  Z"
/>
<path fill="#5f5f60" d="
  M 218.80 118.35
  L 217.47 120.23
  A 0.81 0.80 -74.9 0 1 216.91 120.56
  Q 215.74 120.68 215.32 119.50
  Q 217.51 119.32 218.80 118.35
  Z"
/>
<path fill="#5f5f60" d="
  M 316.89 124.77
  Q 313.84 125.77 311.15 124.01
  A 0.68 0.68 0.0 0 0 310.10 124.61
  L 310.32 129.88
  A 0.49 0.49 0.0 0 1 309.78 130.39
  L 306.29 130.00
  A 0.94 0.92 76.4 0 1 305.62 129.58
  Q 304.75 128.21 304.92 126.64
  Q 305.61 129.04 307.54 129.57
  A 0.57 0.57 0.0 0 0 308.25 129.12
  Q 308.75 126.53 309.14 123.78
  A 3.81 3.04 87.8 0 1 311.33 120.81
  Q 316.04 119.29 316.89 124.77
  Z"
/>
<path fill="#5f5f60" d="
  M 245.13 127.14
  Q 245.18 127.66 245.14 128.04
  A 0.50 0.50 0.0 0 1 244.51 128.47
  C 241.98 127.81 242.77 125.03 244.13 123.99
  A 1.35 1.34 87.9 0 1 246.07 125.80
  Q 245.51 126.65 245.54 127.61
  A 0.23 0.23 0.0 0 1 245.12 127.74
  Q 245.06 127.65 245.13 127.14
  Z"
/>
<path fill="#5f5f60" d="
  M 389.03 125.28
  Q 388.72 125.57 388.32 125.62
  Q 388.11 125.44 387.96 125.21
  Q 388.51 125.34 389.03 125.28
  Z"
/>
<path fill="#d2d1d3" d="
  M 176.88 130.42
  Q 170.93 131.08 169.52 126.93
  L 176.88 130.42
  Z"
/>
<path fill="#5f5f60" d="
  M 247.00 140.76
  Q 246.45 142.33 246.03 143.80
  A 2.43 2.43 0.0 0 1 243.80 145.57
  L 234.30 145.97
  A 0.85 0.85 0.0 0 1 233.48 144.77
  Q 235.09 141.20 236.41 137.45
  Q 236.96 135.88 237.38 134.41
  A 2.43 2.43 0.0 0 1 239.61 132.64
  L 249.11 132.24
  A 0.85 0.85 0.0 0 1 249.93 133.44
  Q 248.32 137.02 247.00 140.76
  Z"
/>
<path fill="#d2d1d3" d="
  M 182.76 138.90
  Q 182.16 137.50 181.38 137.11
  A 0.73 0.72 6.7 0 1 181.00 136.64
  L 180.34 133.91
  A 0.78 0.78 0.0 0 1 181.64 133.17
  Q 181.66 133.19 185.60 137.16
  Q 186.72 138.29 188.18 138.29
  A 0.74 0.73 -86.8 0 1 188.91 139.11
  L 188.88 139.39
  A 0.63 0.63 0.0 0 1 188.18 139.95
  L 183.45 139.42
  A 0.88 0.86 81.5 0 1 182.76 138.90
  Z"
/>
<path fill="#5f5f60" d="
  M 229.86 167.10
  A 1.41 1.08 -19.8 0 1 227.61 166.38
  Q 228.07 164.15 230.56 163.45
  A 0.58 0.58 0.0 0 1 231.29 164.03
  Q 231.20 165.98 229.86 167.10
  Z"
/>
<ellipse fill="#d2d1d3" cx="0.00" cy="0.00" transform="translate(226.60,176.69) rotate(-153.3)" rx="1.34" ry="1.15"/>
<circle fill="#d2d1d3" cx="195.32" cy="190.76" r="1.19"/>
<path fill="#5f5f60" d="
  M 264.42 199.37
  A 0.40 0.39 -25.2 0 1 264.18 200.02
  Q 258.07 200.92 249.50 201.35
  Q 248.54 201.40 231.08 201.69
  C 225.42 201.78 219.57 202.48 213.69 202.07
  A 2.26 2.20 -26.6 0 1 212.71 201.76
  Q 211.13 200.80 210.59 199.59
  A 1.15 1.11 -83.9 0 0 210.23 199.13
  L 203.22 193.80
  A 0.69 0.69 0.0 0 1 203.35 192.62
  C 205.17 191.77 208.22 191.92 210.21 192.30
  Q 215.39 193.29 219.42 191.79
  A 4.96 4.88 -55.6 0 1 221.05 191.47
  L 236.44 191.08
  A 5.85 5.21 -36.2 0 1 237.69 191.20
  Q 241.57 192.03 242.78 191.74
  Q 248.01 190.49 254.35 191.09
  A 2.23 2.17 -26.4 0 1 255.19 191.36
  Q 259.36 193.80 264.42 199.37
  Z"
/>
<path fill="#5f5f60" d="
  M 201.38 194.78
  L 197.39 192.63
  Q 199.47 191.15 201.38 194.78
  Z"
/>
<path fill="#5f5f60" d="
  M 273.13 212.35
  Q 277.13 204.84 279.83 194.75
  A 1.75 1.73 6.2 0 1 281.43 193.47
  L 308.59 192.32
  A 1.20 1.20 0.0 0 1 309.78 193.92
  L 303.72 211.37
  A 2.25 2.25 0.0 0 1 301.68 212.89
  L 274.21 214.06
  A 1.16 1.16 0.0 0 1 273.13 212.35
  Z"
/>
<path fill="#d2d1d3" d="
  M 305.50 213.34
  L 312.06 194.44
  A 0.96 0.96 0.0 0 1 313.62 194.05
  L 330.65 209.89
  A 0.96 0.96 0.0 0 1 330.90 210.91
  L 324.33 229.82
  A 0.96 0.96 0.0 0 1 322.77 230.21
  L 305.75 214.36
  A 0.96 0.96 0.0 0 1 305.50 213.34
  Z
  M 315.8735 203.9008
  A 5.53 3.46 -91.0 0 0 312.5105 209.4904
  A 5.53 3.46 -91.0 0 0 316.0665 214.9592
  A 5.53 3.46 -91.0 0 0 319.4295 209.3696
  A 5.53 3.46 -91.0 0 0 315.8735 203.9008
  Z"
/>
<ellipse fill="#5f5f60" cx="0.00" cy="0.00" transform="translate(315.97,209.43) rotate(-91.0)" rx="5.53" ry="3.46"/>
<path fill="#5f5f60" d="
  M 258.38 218.60
  L 255.40 220.43
  L 251.66 219.42
  A 0.74 0.62 -72.1 0 0 250.87 219.92
  Q 250.84 220.00 250.83 220.12
  A 0.52 0.52 0.0 0 1 250.23 220.59
  Q 249.66 220.49 249.03 219.99
  A 0.79 0.75 -82.7 0 1 248.76 219.62
  L 245.62 210.43
  A 1.08 1.08 0.0 0 1 247.09 209.10
  Q 247.51 209.30 247.73 209.30
  Q 249.09 209.33 254.31 208.55
  A 1.08 1.08 0.0 0 1 255.55 209.73
  L 255.11 213.57
  A 1.08 1.07 -73.1 0 0 255.68 214.64
  Q 257.38 215.54 258.42 217.42
  A 0.70 0.68 -48.4 0 1 258.45 218.02
  Q 258.33 218.31 258.38 218.60
  Z"
/>
<path fill="#5f5f60" d="
  M 242.32 219.54
  Q 239.74 216.88 237.76 216.18
  A 1.02 0.99 -13.6 0 1 237.39 215.96
  L 231.62 210.46
  A 0.55 0.55 0.0 0 1 231.97 209.52
  Q 236.34 209.27 240.75 209.47
  Q 241.54 209.51 242.11 208.86
  A 0.80 0.80 0.0 0 1 243.47 209.13
  L 246.61 218.32
  A 0.50 0.49 -23.6 0 1 246.37 218.92
  Q 244.49 219.91 243.14 219.90
  A 1.19 1.17 68.0 0 1 242.32 219.54
  Z"
/>
<path fill="#5f5f60" d="
  M 312.84 234.72
  L 303.82 235.64
  Q 298.81 234.39 293.24 235.17
  C 291.45 235.42 289.54 234.76 288.49 232.95
  Q 286.64 229.78 282.53 226.83
  A 6.31 5.96 -1.6 0 1 281.60 226.00
  Q 279.19 223.34 273.80 219.10
  A 1.37 1.37 0.0 0 1 274.59 216.66
  L 296.52 215.73
  A 1.11 1.11 0.0 0 1 297.24 215.95
  L 300.95 218.77
  A 0.79 0.79 0.0 0 1 300.50 220.19
  L 299.86 220.22
  A 0.61 0.60 -23.5 0 0 299.45 221.25
  L 312.84 234.72
  Z"
/>
<path fill="#5f5f60" d="
  M 227.99 226.26
  Q 226.28 226.94 225.52 226.06
  A 0.80 0.80 0.0 0 1 225.31 225.47
  L 225.71 217.91
  A 0.60 0.60 0.0 0 1 226.80 217.60
  Q 228.17 219.50 230.50 220.91
  A 0.73 0.73 0.0 0 1 230.76 221.90
  L 228.49 225.82
  A 0.98 0.98 0.0 0 1 227.99 226.26
  Z"
/>
<path fill="#d2d1d3" d="
  M 263.69 217.66
  A 0.76 0.75 -65.0 0 1 264.77 217.26
  Q 267.91 219.06 270.01 222.22
  A 0.45 0.45 0.0 0 1 269.32 222.78
  Q 267.10 220.55 264.28 220.56
  A 0.84 0.84 0.0 0 1 263.48 219.98
  Q 263.18 219.08 263.69 217.66
  Z"
/>
<path fill="#d2d1d3" d="
  M 255.40 220.43
  L 258.38 218.60
  Q 258.79 218.74 258.65 218.96
  Q 257.71 220.42 256.94 221.55
  A 0.87 0.87 0.0 0 1 255.51 221.56
  Q 255.23 221.18 255.40 220.43
  Z"
/>
<ellipse fill="#5f5f60" cx="0.00" cy="0.00" transform="translate(259.15,223.37) rotate(-156.3)" rx="1.32" ry="0.81"/>
<path fill="#5f5f60" d="
  M 234.35 224.17
  A 0.37 0.37 0.0 0 1 234.35 224.73
  Q 232.30 226.49 230.12 227.60
  A 0.43 0.42 11.2 0 1 229.65 226.90
  Q 231.50 225.34 231.59 223.82
  A 0.76 0.76 0.0 0 1 232.38 223.10
  Q 233.10 223.12 234.35 224.17
  Z"
/>
<path fill="#5f5f60" d="
  M 305.73 223.72
  L 310.92 224.31
  A 2.02 2.00 -23.2 0 1 311.91 224.70
  L 319.38 230.38
  A 1.42 1.42 0.0 0 1 318.45 232.93
  L 314.41 232.72
  A 4.54 4.49 -21.8 0 1 311.59 231.53
  L 305.14 225.52
  A 0.64 0.63 16.1 0 1 304.95 225.18
  L 304.85 224.68
  A 0.81 0.81 0.0 0 1 305.73 223.72
  Z"
/>
<path fill="#5f5f60" d="
  M 275.64 226.80
  Q 275.21 226.58 274.68 226.63
  A 0.99 0.99 0.0 0 0 273.84 227.29
  L 273.21 229.11
  A 0.77 0.76 10.6 0 0 273.91 230.12
  L 278.86 230.27
  L 280.48 231.33
  A 0.38 0.38 0.0 0 1 280.40 232.01
  Q 279.67 232.28 278.31 231.59
  A 0.63 0.62 -63.4 0 0 277.45 231.88
  Q 275.64 235.77 270.55 234.40
  A 1.17 1.11 -16.8 0 1 270.17 234.21
  L 266.75 231.77
  A 0.25 0.25 0.0 0 1 266.82 231.33
  Q 269.72 230.42 270.16 232.84
  Q 270.25 233.38 270.75 233.74
  Q 271.24 234.10 271.86 233.76
  A 0.53 0.52 -21.9 0 0 272.12 233.17
  Q 272.03 232.82 272.53 232.47
  A 0.31 0.25 -63.2 0 1 272.68 232.40
  Q 273.89 232.13 275.12 231.33
  A 0.57 0.57 0.0 0 0 275.23 230.46
  Q 274.83 230.05 274.07 230.28
  A 0.80 0.80 0.0 0 1 273.05 229.63
  Q 272.28 224.77 275.64 226.80
  Z"
/>
<path fill="#d2d1d3" d="
  M 275.64 226.80
  L 278.86 230.27
  L 273.91 230.12
  A 0.77 0.76 10.6 0 1 273.21 229.11
  L 273.84 227.29
  A 0.99 0.99 0.0 0 1 274.68 226.63
  Q 275.21 226.58 275.64 226.80
  Z"
/>
<path fill="#d2d1d3" d="
  M 265.91 230.50
  A 0.30 0.29 -9.3 0 1 265.50 230.21
  Q 265.65 228.43 267.32 228.72
  A 0.60 0.60 0.0 0 1 267.45 229.87
  L 265.91 230.50
  Z"
/>
<path fill="#5f5f60" d="
  M 250.60 229.06
  Q 252.28 229.05 253.61 230.49
  A 0.67 0.67 0.0 0 1 253.61 231.39
  Q 252.74 232.33 251.55 234.87
  Q 251.43 235.14 251.12 235.27
  Q 250.88 235.37 250.70 235.42
  A 1.01 1.00 -4.2 0 1 249.44 234.34
  L 249.97 229.63
  A 0.64 0.63 -87.0 0 1 250.60 229.06
  Z"
/>
<path fill="#5f5f60" d="
  M 227.16 231.81
  L 224.56 233.45
  A 0.40 0.39 -21.9 0 1 223.96 233.20
  L 223.32 230.12
  Q 225.94 229.71 227.16 231.81
  Z"
/>
<path fill="#d2d1d3" d="
  M 243.13 233.93
  Q 243.36 233.90 244.54 234.88
  A 0.86 0.86 0.0 0 1 244.25 236.36
  Q 243.54 236.58 243.24 236.50
  A 1.39 1.23 46.0 0 1 243.13 233.93
  Z"
/>
<path fill="#5f5f60" d="
  M 296.87 236.46
  Q 309.84 249.53 323.55 261.26
  Q 325.40 262.84 326.82 263.85
  Q 329.64 265.84 330.03 266.62
  A 1.19 1.19 0.0 0 0 330.78 267.26
  C 332.92 267.89 333.62 270.50 335.37 270.95
  Q 335.84 271.07 338.76 273.45
  Q 339.92 274.39 342.23 275.70
  Q 348.94 279.50 353.84 281.65
  Q 356.30 282.73 358.65 283.25
  A 2.21 1.57 54.5 0 1 358.97 283.36
  L 387.04 295.69
  Q 387.80 301.47 392.20 298.42
  L 400.07 301.42
  Q 399.12 303.78 402.40 304.96
  A 3.59 3.45 -15.9 0 1 403.27 305.42
  Q 405.42 306.98 405.54 305.29
  L 407.06 306.63
  Q 406.43 307.50 405.75 307.75
  Q 404.69 308.14 402.77 308.12
  Q 401.46 308.11 399.49 308.46
  Q 399.07 308.53 398.93 308.16
  A 0.11 0.11 0.0 0 0 398.71 308.18
  L 398.53 309.76
  A 0.68 0.68 0.0 0 1 397.94 310.36
  L 397.30 310.46
  C 389.61 310.95 382.13 310.59 374.24 311.16
  Q 369.87 311.47 366.24 311.38
  Q 365.61 311.36 358.25 311.59
  C 351.58 311.79 347.27 311.46 342.25 311.84
  Q 339.81 312.03 337.29 311.65
  A 2.04 2.01 45.5 0 0 336.69 311.64
  L 330.71 312.30
  Q 329.02 311.20 328.76 308.92
  A 1.51 1.50 -71.4 0 0 328.30 307.99
  L 327.43 307.18
  A 1.49 1.49 0.0 0 1 326.96 306.22
  C 326.65 302.94 326.57 299.45 328.88 297.39
  A 0.34 0.34 0.0 0 1 329.45 297.62
  Q 329.85 303.27 330.18 303.95
  Q 333.04 309.92 338.49 309.84
  Q 366.44 309.40 374.80 309.41
  Q 378.13 309.42 384.67 308.66
  Q 388.80 308.18 394.55 308.22
  A 3.34 3.24 -78.7 0 0 397.60 306.12
  Q 398.01 305.09 396.44 303.82
  Q 395.28 302.89 395.25 302.86
  A 1.89 1.89 0.0 0 0 394.50 302.40
  Q 388.21 300.30 384.78 298.15
  Q 382.99 297.04 382.39 297.24
  A 0.42 0.42 0.0 0 1 381.84 296.88
  Q 381.80 296.32 380.90 296.25
  Q 380.34 296.21 379.82 295.93
  Q 376.07 293.88 371.48 292.26
  A 1.36 1.36 0.0 0 1 370.81 291.74
  Q 370.80 291.72 370.73 291.59
  A 0.41 0.41 0.0 0 0 370.30 291.38
  Q 369.32 291.52 368.72 291.06
  A 3.31 0.97 48.3 0 0 367.87 290.53
  Q 349.16 282.37 342.43 279.38
  Q 341.05 278.77 340.73 278.67
  Q 339.10 278.14 332.57 275.67
  A 1.60 1.59 11.8 0 0 330.41 277.08
  L 329.40 296.43
  A 0.25 0.24 -67.2 0 1 328.99 296.60
  Q 327.69 295.43 327.80 293.30
  Q 327.96 290.37 328.83 290.12
  A 0.38 0.37 58.4 0 0 328.98 289.48
  C 327.27 287.89 327.30 282.84 327.40 279.07
  C 327.50 274.91 323.15 271.05 319.85 268.58
  Q 317.44 266.78 314.04 263.54
  Q 300.90 251.02 287.12 238.93
  Q 285.52 235.61 288.91 237.00
  A 2.34 2.31 83.3 0 1 289.96 237.84
  Q 291.35 239.82 294.00 240.56
  A 0.46 0.46 0.0 0 0 294.55 239.94
  L 293.22 236.74
  A 0.42 0.42 0.0 0 1 293.72 236.18
  Q 295.74 236.78 296.87 236.46
  Z"
/>
<path fill="#d2d1d3" d="
  M 387.04 295.69
  L 392.20 298.42
  Q 387.80 301.47 387.04 295.69
  Z"
/>
<path fill="#d2d1d3" d="
  M 400.07 301.42
  Q 403.33 302.80 405.54 305.29
  Q 405.42 306.98 403.27 305.42
  A 3.59 3.45 -15.9 0 0 402.40 304.96
  Q 399.12 303.78 400.07 301.42
  Z"
/>
<path fill="#e1c620" d="
  M 407.06 306.63
  Q 447.03 344.84 487.53 382.47
  Q 495.73 390.08 503.52 398.08
  Q 503.36 398.23 503.21 398.30
  A 0.26 0.25 51.4 0 1 502.91 398.26
  L 458.93 357.35
  A 1.66 1.66 0.0 0 0 457.81 356.89
  L 444.97 356.69
  Q 439.72 356.60 425.00 357.60
  Q 423.82 357.68 405.59 357.93
  Q 405.40 357.93 401.10 357.78
  Q 396.62 357.63 392.93 358.45
  Q 392.20 358.61 390.21 358.12
  A 0.84 0.83 -0.5 0 1 389.61 357.54
  Q 389.41 356.88 389.09 356.43
  Q 397.62 356.30 406.21 356.19
  Q 415.31 356.08 423.30 355.56
  Q 435.67 354.77 449.06 355.19
  C 450.72 355.24 453.06 354.49 454.57 355.05
  A 0.77 0.77 0.0 0 0 455.48 353.90
  Q 454.46 352.37 450.04 348.54
  C 444.47 343.72 439.39 338.33 434.25 333.82
  Q 429.50 329.65 424.13 324.39
  Q 419.58 319.92 409.21 310.23
  A 1.03 0.56 38.8 0 0 407.90 309.99
  Q 407.78 310.27 407.33 309.89
  A 1.28 1.25 61.6 0 0 406.37 309.59
  L 397.30 310.46
  L 397.94 310.36
  A 0.68 0.68 0.0 0 0 398.53 309.76
  L 398.71 308.18
  A 0.11 0.11 0.0 0 1 398.93 308.16
  Q 399.07 308.53 399.49 308.46
  Q 401.46 308.11 402.77 308.12
  Q 404.69 308.14 405.75 307.75
  Q 406.43 307.50 407.06 306.63
  Z"
/>
<path fill="#312eb5" d="
  M 389.09 356.43
  L 379.19 357.31
  L 357.97 337.55
  A 0.93 0.86 -10.3 0 0 357.72 337.39
  L 356.44 336.87
  A 1.30 1.24 -10.9 0 1 356.05 336.62
  L 330.71 312.30
  L 336.69 311.64
  A 2.04 2.01 45.5 0 1 337.29 311.65
  Q 339.81 312.03 342.25 311.84
  C 347.27 311.46 351.58 311.79 358.25 311.59
  Q 365.61 311.36 366.24 311.38
  Q 369.87 311.47 374.24 311.16
  C 382.13 310.59 389.61 310.95 397.30 310.46
  L 406.37 309.59
  A 1.28 1.25 61.6 0 1 407.33 309.89
  Q 407.78 310.27 407.90 309.99
  A 1.03 0.56 38.8 0 1 409.21 310.23
  Q 419.58 319.92 424.13 324.39
  Q 429.50 329.65 434.25 333.82
  C 439.39 338.33 444.47 343.72 450.04 348.54
  Q 454.46 352.37 455.48 353.90
  A 0.77 0.77 0.0 0 1 454.57 355.05
  C 453.06 354.49 450.72 355.24 449.06 355.19
  Q 435.67 354.77 423.30 355.56
  Q 415.31 356.08 406.21 356.19
  Q 397.62 356.30 389.09 356.43
  Z
  M 409.87 318.40
  A 0.80 0.80 0.0 0 0 409.07 317.60
  A 0.80 0.80 0.0 0 0 408.27 318.40
  A 0.80 0.80 0.0 0 0 409.07 319.20
  A 0.80 0.80 0.0 0 0 409.87 318.40
  Z
  M 347.2085 319.6267
  A 1.25 0.70 -131.7 0 0 347.5174 321.0257
  A 1.25 0.70 -131.7 0 0 348.8715 321.4933
  A 1.25 0.70 -131.7 0 0 348.5626 320.0943
  A 1.25 0.70 -131.7 0 0 347.2085 319.6267
  Z
  M 379.1294 320.1799
  A 1.69 0.82 -149.8 0 0 380.1775 321.7387
  A 1.69 0.82 -149.8 0 0 382.0506 321.8801
  A 1.69 0.82 -149.8 0 0 381.0025 320.3213
  A 1.69 0.82 -149.8 0 0 379.1294 320.1799
  Z
  M 405.54 344.63
  L 405.02 345.93
  A 0.24 0.24 0.0 0 0 405.15 346.25
  L 405.44 346.36
  A 3.25 0.84 21.8 0 0 408.77 346.79
  L 408.84 346.60
  A 3.25 0.84 21.8 0 0 406.14 344.62
  L 405.85 344.50
  A 0.24 0.24 0.0 0 0 405.54 344.63
  Z
  M 438.8073 345.4795
  A 0.78 0.40 -127.3 0 0 438.9618 346.3424
  A 0.78 0.40 -127.3 0 0 439.7527 346.7205
  A 0.78 0.40 -127.3 0 0 439.5982 345.8576
  A 0.78 0.40 -127.3 0 0 438.8073 345.4795
  Z
  M 377.0163 348.0408
  A 1.01 0.85 -140.0 0 0 377.2436 349.3411
  A 1.01 0.85 -140.0 0 0 378.5637 349.3392
  A 1.01 0.85 -140.0 0 0 378.3364 348.0389
  A 1.01 0.85 -140.0 0 0 377.0163 348.0408
  Z"
/>
<circle fill="#5f5f60" cx="409.07" cy="318.40" r="0.80"/>
<ellipse fill="#5f5f60" cx="0.00" cy="0.00" transform="translate(348.04,320.56) rotate(-131.7)" rx="1.25" ry="0.70"/>
<ellipse fill="#5f5f60" cx="0.00" cy="0.00" transform="translate(380.59,321.03) rotate(-149.8)" rx="1.69" ry="0.82"/>
<path fill="#5f5f60" d="
  M 405.54 344.63
  A 0.24 0.24 0.0 0 1 405.85 344.50
  L 406.14 344.62
  A 3.25 0.84 21.8 0 1 408.84 346.60
  L 408.77 346.79
  A 3.25 0.84 21.8 0 1 405.44 346.36
  L 405.15 346.25
  A 0.24 0.24 0.0 0 1 405.02 345.93
  L 405.54 344.63
  Z"
/>
<ellipse fill="#5f5f60" cx="0.00" cy="0.00" transform="translate(439.28,346.10) rotate(-127.3)" rx="0.78" ry="0.40"/>
<ellipse fill="#5f5f60" cx="0.00" cy="0.00" transform="translate(377.79,348.69) rotate(-140.0)" rx="1.01" ry="0.85"/>
<path fill="#5f5f60" d="
  M 389.09 356.43
  Q 389.41 356.88 389.61 357.54
  A 0.84 0.83 -0.5 0 0 390.21 358.12
  Q 392.20 358.61 392.93 358.45
  Q 396.62 357.63 401.10 357.78
  Q 405.40 357.93 405.59 357.93
  Q 423.82 357.68 425.00 357.60
  Q 439.72 356.60 444.97 356.69
  Q 441.79 356.95 438.75 357.62
  Q 438.18 357.75 437.32 357.55
  A 2.34 2.30 -40.4 0 0 436.61 357.50
  Q 418.60 359.18 407.71 358.74
  Q 407.05 358.71 406.74 358.52
  A 0.96 0.96 0.0 0 0 405.79 358.50
  C 404.50 359.18 402.89 358.63 401.41 358.85
  Q 393.20 360.04 384.68 358.92
  A 0.83 0.82 21.5 0 0 383.89 359.26
  Q 383.40 359.94 382.46 360.34
  L 379.19 357.31
  L 389.09 356.43
  Z"
/>
<path fill="#312eb5" d="
  M 503.52 398.08
  L 504.76 399.47
  A 0.81 0.81 0.0 0 1 504.22 400.82
  L 492.72 401.75
  A 0.10 0.08 -52.0 0 1 492.68 401.76
  L 430.06 404.42
  A 0.77 0.73 -23.5 0 1 429.53 404.23
  L 382.46 360.34
  Q 383.40 359.94 383.89 359.26
  A 0.83 0.82 21.5 0 1 384.68 358.92
  Q 393.20 360.04 401.41 358.85
  C 402.89 358.63 404.50 359.18 405.79 358.50
  A 0.96 0.96 0.0 0 1 406.74 358.52
  Q 407.05 358.71 407.71 358.74
  Q 418.60 359.18 436.61 357.50
  A 2.34 2.30 -40.4 0 1 437.32 357.55
  Q 438.18 357.75 438.75 357.62
  Q 441.79 356.95 444.97 356.69
  L 457.81 356.89
  A 1.66 1.66 0.0 0 1 458.93 357.35
  L 502.91 398.26
  A 0.26 0.25 51.4 0 0 503.21 398.30
  Q 503.36 398.23 503.52 398.08
  Z
  M 459.1863 364.6973
  A 0.93 0.81 -117.8 0 0 458.9035 365.8978
  A 0.93 0.81 -117.8 0 0 460.0537 366.3427
  A 0.93 0.81 -117.8 0 0 460.3365 365.1422
  A 0.93 0.81 -117.8 0 0 459.1863 364.6973
  Z
  M 398.2390 366.4406
  A 1.47 0.73 -91.6 0 0 397.5503 367.9304
  A 1.47 0.73 -91.6 0 0 398.3210 369.3794
  A 1.47 0.73 -91.6 0 0 399.0097 367.8896
  A 1.47 0.73 -91.6 0 0 398.2390 366.4406
  Z
  M 489.1388 392.6286
  A 0.94 0.55 -125.9 0 0 489.2445 393.7125
  A 0.94 0.55 -125.9 0 0 490.2412 394.1514
  A 0.94 0.55 -125.9 0 0 490.1355 393.0675
  A 0.94 0.55 -125.9 0 0 489.1388 392.6286
  Z
  M 427.71 395.17
  Q 426.82 395.78 427.10 397.00
  A 0.39 0.39 0.0 0 0 427.71 397.23
  Q 428.54 396.62 428.64 396.55
  Q 428.75 396.48 429.62 395.93
  A 0.39 0.39 0.0 0 0 429.63 395.28
  Q 428.59 394.57 427.71 395.17
  Z"
/>
<ellipse fill="#d2d1d3" cx="0.00" cy="0.00" transform="translate(459.62,365.52) rotate(-117.8)" rx="0.93" ry="0.81"/>
<ellipse fill="#5f5f60" cx="0.00" cy="0.00" transform="translate(398.28,367.91) rotate(-91.6)" rx="1.47" ry="0.73"/>
<ellipse fill="#5f5f60" cx="0.00" cy="0.00" transform="translate(489.69,393.39) rotate(-125.9)" rx="0.94" ry="0.55"/>
<path fill="#5f5f60" d="
  M 428.64 396.55
  Q 428.54 396.62 427.71 397.23
  A 0.39 0.39 0.0 0 1 427.10 397.00
  Q 426.82 395.78 427.71 395.17
  Q 428.59 394.57 429.63 395.28
  A 0.39 0.39 0.0 0 1 429.62 395.93
  Q 428.75 396.48 428.64 396.55
  Z"
/>
</svg>
