<?xml version="1.0" encoding="UTF-8" standalone="no"?>
<svg xmlns="http://www.w3.org/2000/svg" version="1.2" baseProfile="tiny" viewBox="0.00 0.00 512.00 174.00" width="512.00" height="174.00">
<path fill="#0e121f" d="
  M 4.40 0.00
  Q 13.71 3.58 23.56 5.62
  A 4.56 4.53 76.8 0 1 26.23 7.29
  L 30.86 13.31
  Q 30.82 14.18 31.50 14.82
  A 0.46 0.46 0.0 0 0 32.26 14.36
  L 31.95 13.30
  L 31.53 7.52
  A 0.76 0.75 -88.5 0 1 32.38 6.71
  Q 41.06 7.84 49.92 9.86
  Q 54.35 10.87 55.49 11.75
  Q 58.05 13.73 61.00 18.94
  Q 60.90 20.68 61.88 20.61
  Q 61.28 21.11 61.71 22.26
  Q 62.25 23.70 63.22 24.78
  Q 63.02 25.70 63.76 26.61
  L 66.63 35.55
  A 0.74 0.73 81.4 0 0 67.33 36.07
  L 67.78 36.07
  A 0.41 0.40 -9.2 0 0 68.17 35.54
  L 65.65 28.00
  A 2.35 2.26 15.2 0 0 65.13 27.13
  L 64.58 26.55
  Q 64.76 25.48 64.08 24.83
  Q 64.60 22.64 62.44 20.52
  Q 62.90 20.16 62.17 19.34
  Q 62.77 16.18 61.96 13.04
  A 0.73 0.73 0.0 0 1 62.76 12.13
  Q 72.32 13.30 82.83 15.57
  C 85.68 16.19 87.77 17.35 89.24 19.52
  Q 91.57 22.98 92.86 24.47
  Q 92.74 24.44 92.54 24.61
  A 0.46 0.43 70.9 0 0 92.39 24.95
  Q 92.39 25.53 92.72 25.90
  A 0.87 0.77 30.7 0 0 94.17 25.62
  Q 94.38 24.36 93.52 24.41
  L 93.87 18.01
  A 0.43 0.43 0.0 0 1 94.36 17.60
  Q 105.17 19.15 116.06 21.29
  Q 120.03 22.07 121.94 24.17
  Q 124.16 26.61 124.61 30.58
  Q 126.31 34.30 126.68 38.84
  Q 128.06 41.28 127.89 43.83
  Q 128.66 45.71 128.64 47.51
  A 2.02 2.00 34.8 0 0 128.79 48.32
  L 129.98 51.37
  Q 128.41 52.40 130.21 53.50
  Q 129.95 55.17 131.03 56.74
  A 0.60 0.58 -25.5 0 0 131.69 56.96
  L 132.05 56.84
  A 0.61 0.60 -17.7 0 0 132.44 56.10
  L 131.50 52.71
  Q 132.28 52.46 131.82 51.53
  Q 131.61 51.13 131.14 50.98
  Q 131.00 47.13 129.75 44.30
  L 128.84 38.53
  L 127.49 33.32
  Q 127.65 33.33 127.89 33.03
  A 0.72 0.72 0.0 0 0 128.05 32.55
  Q 127.95 30.03 127.07 28.21
  A 2.57 2.57 0.0 0 1 129.33 24.53
  Q 136.59 24.34 145.46 26.20
  C 149.01 26.95 153.75 27.40 155.44 31.13
  Q 157.13 34.87 159.96 39.08
  L 160.61 45.54
  L 161.84 52.44
  Q 161.92 52.57 161.92 52.95
  L 163.87 62.87
  Q 162.25 65.51 158.76 65.12
  Q 150.25 64.17 141.89 61.96
  C 138.67 61.11 136.04 59.72 132.99 57.93
  Q 131.52 57.07 130.14 58.05
  C 127.12 60.20 117.09 57.46 112.16 56.43
  C 106.88 55.32 104.28 52.29 100.61 49.32
  L 98.43 39.54
  L 97.13 34.34
  A 0.81 0.81 0.0 0 0 96.09 33.77
  L 95.80 33.87
  A 1.04 1.03 69.5 0 0 95.17 35.26
  Q 95.93 37.08 95.87 38.75
  Q 95.85 39.38 96.49 39.37
  Q 96.34 39.38 96.27 39.60
  Q 96.21 39.77 96.28 39.92
  Q 98.08 43.97 98.97 48.22
  A 1.29 1.27 16.1 0 0 99.37 48.93
  Q 99.53 49.07 99.64 49.11
  Q 98.52 49.98 98.34 51.61
  A 0.76 0.75 -85.5 0 1 97.56 52.28
  C 89.40 52.04 79.29 51.30 72.32 47.44
  Q 71.22 44.08 69.20 41.66
  A 0.28 0.28 0.0 0 0 68.72 41.92
  L 70.42 47.18
  Q 63.02 46.73 54.44 44.56
  C 49.77 43.38 47.75 42.02 44.42 38.04
  Q 42.10 35.26 39.34 33.05
  Q 39.85 32.33 39.20 31.55
  A 0.70 0.70 0.0 0 0 37.97 32.13
  Q 37.99 32.20 38.22 32.62
  Q 37.90 32.57 37.71 32.85
  Q 37.56 33.09 37.59 33.44
  Q 37.88 36.25 38.40 40.12
  A 0.61 0.61 0.0 0 1 37.67 40.80
  Q 36.93 40.66 22.10 37.34
  Q 19.44 36.75 18.39 35.28
  Q 15.68 31.45 12.98 25.99
  Q 1.29 2.34 1.01 1.77
  Q 0.79 1.33 0.00 0.60
  L 0.00 0.00
  L 4.40 0.00
  Z
  M 8.85 10.50
  Q 8.83 10.99 8.97 11.29
  Q 9.22 11.55 9.45 11.56
  Q 9.74 11.57 9.78 11.19
  Q 9.95 9.89 8.85 10.50
  Z
  M 25.44 14.32
  A 0.38 0.31 74.6 0 0 25.71 13.72
  Q 25.43 13.37 25.02 13.20
  A 0.36 0.34 84.0 0 0 24.62 13.73
  Q 24.86 14.15 25.44 14.32
  Z
  M 39.18 17.04
  Q 38.57 15.55 38.37 15.44
  A 0.52 0.52 0.0 0 0 37.79 16.29
  L 38.89 17.25
  A 0.18 0.18 0.0 0 0 39.18 17.04
  Z
  M 55.85 19.90
  Q 55.55 18.83 55.49 18.69
  A 0.64 0.64 0.0 0 0 54.27 19.08
  Q 54.40 19.64 55.49 20.20
  A 0.26 0.25 -84.5 0 0 55.85 19.90
  Z
  M 34.89 20.28
  Q 34.31 19.80 34.11 19.80
  A 0.92 0.76 55.5 0 0 33.97 21.40
  Q 34.26 21.58 34.70 21.42
  A 0.67 0.66 54.9 0 0 34.89 20.28
  Z
  M 68.5016 20.9103
  A 0.98 0.41 -110.2 0 0 68.4552 21.9716
  A 0.98 0.41 -110.2 0 0 69.1784 22.7497
  A 0.98 0.41 -110.2 0 0 69.2248 21.6884
  A 0.98 0.41 -110.2 0 0 68.5016 20.9103
  Z
  M 86.30 25.67
  A 0.41 0.40 -83.1 0 0 86.87 25.22
  Q 86.62 24.07 85.73 24.05
  A 0.39 0.39 0.0 0 0 85.38 24.63
  Q 85.85 25.46 86.30 25.67
  Z
  M 100.55 28.21
  A 0.42 0.42 0.0 0 0 101.16 27.71
  Q 100.74 26.40 100.25 26.60
  Q 99.80 26.79 99.86 27.13
  Q 100.00 27.91 100.55 28.21
  Z
  M 93.41 29.06
  L 94.63 32.72
  A 0.51 0.50 69.4 0 0 95.31 33.03
  Q 96.08 32.69 95.90 31.81
  Q 95.55 30.11 95.36 29.54
  Q 95.13 28.90 93.73 28.68
  A 0.29 0.29 0.0 0 0 93.41 29.06
  Z
  M 118.4477 29.8421
  A 1.03 0.51 -110.0 0 0 118.3208 30.9844
  A 1.03 0.51 -110.0 0 0 119.1523 31.7779
  A 1.03 0.51 -110.0 0 0 119.2792 30.6356
  A 1.03 0.51 -110.0 0 0 118.4477 29.8421
  Z
  M 18.64 31.63
  A 0.29 0.29 0.0 0 0 18.15 31.92
  Q 18.25 32.27 18.74 32.65
  A 0.33 0.33 0.0 0 0 19.17 32.16
  L 18.64 31.63
  Z
  M 133.5314 32.6110
  A 1.02 0.52 -108.2 0 0 133.3560 33.7424
  A 1.02 0.52 -108.2 0 0 134.1686 34.5490
  A 1.02 0.52 -108.2 0 0 134.3440 33.4176
  A 1.02 0.52 -108.2 0 0 133.5314 32.6110
  Z
  M 33.3702 34.1917
  A 0.85 0.49 -130.3 0 0 33.5463 35.1569
  A 0.85 0.49 -130.3 0 0 34.4698 35.4883
  A 0.85 0.49 -130.3 0 0 34.2937 34.5231
  A 0.85 0.49 -130.3 0 0 33.3702 34.1917
  Z
  M 152.81 37.73
  A 0.54 0.43 -72.2 0 0 153.55 37.24
  Q 153.57 36.46 153.11 36.14
  A 0.56 0.51 14.8 0 0 152.23 36.60
  Q 152.35 37.31 152.81 37.73
  Z
  M 45.99 36.76
  Q 46.29 37.63 46.64 37.93
  A 0.39 0.39 0.0 0 0 47.28 37.68
  Q 47.31 37.44 46.33 36.54
  A 0.21 0.21 0.0 0 0 45.99 36.76
  Z
  M 68.61 37.97
  Q 68.67 36.95 67.90 36.53
  A 0.38 0.37 -77.7 0 0 67.35 36.89
  Q 67.41 37.93 67.88 38.28
  A 0.46 0.44 20.7 0 0 68.61 37.97
  Z
  M 68.46 40.41
  Q 68.20 40.85 68.48 41.20
  Q 68.73 41.52 69.01 41.23
  Q 69.21 41.01 69.04 40.60
  Q 70.03 40.70 70.02 39.66
  A 1.14 1.14 0.0 0 0 68.03 38.90
  Q 67.38 39.61 68.46 40.41
  Z
  M 62.13 40.14
  Q 62.11 40.52 62.43 40.85
  A 0.38 0.37 -67.5 0 0 63.07 40.58
  Q 63.07 40.10 62.59 39.85
  Q 62.16 39.63 62.13 40.14
  Z
  M 49.0969 40.7376
  A 1.61 0.26 -171.7 0 0 50.6525 41.2273
  A 1.61 0.26 -171.7 0 0 52.2831 41.2024
  A 1.61 0.26 -171.7 0 0 50.7275 40.7127
  A 1.61 0.26 -171.7 0 0 49.0969 40.7376
  Z
  M 53.2172 41.6747
  A 2.06 0.28 -172.6 0 0 55.2239 42.2177
  A 2.06 0.28 -172.6 0 0 57.3028 42.2053
  A 2.06 0.28 -172.6 0 0 55.2961 41.6623
  A 2.06 0.28 -172.6 0 0 53.2172 41.6747
  Z
  M 75.3925 42.3428
  A 0.82 0.44 -119.0 0 0 75.4052 43.2733
  A 0.82 0.44 -119.0 0 0 76.1875 43.7772
  A 0.82 0.44 -119.0 0 0 76.1748 42.8467
  A 0.82 0.44 -119.0 0 0 75.3925 42.3428
  Z
  M 58.35 42.89
  Q 60.02 43.31 61.40 43.21
  A 0.18 0.18 0.0 0 0 61.42 42.86
  Q 58.70 42.31 58.35 42.40
  A 0.25 0.25 0.0 0 0 58.35 42.89
  Z
  M 75.20 45.60
  Q 74.47 45.39 74.45 45.40
  A 0.33 0.33 0.0 0 0 74.49 46.01
  Q 75.11 46.23 75.23 46.18
  A 0.31 0.30 42.2 0 0 75.20 45.60
  Z
  M 92.16 45.44
  A 0.80 0.66 42.3 0 0 92.34 46.68
  Q 92.67 46.88 92.85 46.62
  Q 93.15 46.19 92.71 45.70
  Q 92.37 45.32 92.16 45.44
  Z
  M 80.69 46.72
  Q 80.09 46.55 79.65 46.63
  A 0.19 0.18 -43.9 0 0 79.64 46.99
  Q 80.53 47.18 80.69 47.14
  A 0.22 0.22 0.0 0 0 80.69 46.72
  Z
  M 81.86 46.84
  Q 81.73 46.80 81.36 46.95
  A 0.19 0.19 0.0 0 0 81.39 47.31
  Q 81.80 47.41 81.83 47.41
  A 0.30 0.29 -42.1 0 0 81.86 46.84
  Z
  M 86.06 47.52
  Q 85.57 47.31 85.30 47.45
  A 0.32 0.31 38.4 0 0 85.37 48.04
  Q 85.94 48.16 86.00 48.15
  A 0.33 0.33 0.0 0 0 86.06 47.52
  Z
  M 105.7813 48.3591
  A 0.77 0.51 -127.5 0 0 105.8454 49.2805
  A 0.77 0.51 -127.5 0 0 106.7187 49.5809
  A 0.77 0.51 -127.5 0 0 106.6546 48.6595
  A 0.77 0.51 -127.5 0 0 105.7813 48.3591
  Z
  M 124.31 52.82
  Q 124.31 51.67 123.65 51.44
  A 0.43 0.39 8.9 0 0 123.08 51.81
  Q 123.14 52.79 123.85 53.12
  A 0.33 0.33 0.0 0 0 124.31 52.82
  Z
  M 111.35 53.22
  Q 113.70 53.57 113.74 53.32
  Q 113.78 53.06 111.42 52.71
  Q 109.06 52.37 109.03 52.62
  Q 108.99 52.88 111.35 53.22
  Z
  M 114.0235 53.5666
  A 4.65 0.35 -169.8 0 0 118.5380 54.7345
  A 4.65 0.35 -169.8 0 0 123.1765 55.2134
  A 4.65 0.35 -169.8 0 0 118.6620 54.0455
  A 4.65 0.35 -169.8 0 0 114.0235 53.5666
  Z
  M 138.78 55.65
  Q 138.66 54.86 138.25 54.47
  A 0.54 0.54 0.0 0 0 137.34 54.88
  Q 137.34 55.55 138.22 56.04
  A 0.38 0.38 0.0 0 0 138.78 55.65
  Z
  M 155.9724 57.8472
  A 0.84 0.52 -109.3 0 0 155.7592 58.8119
  A 0.84 0.52 -109.3 0 0 156.5276 59.4328
  A 0.84 0.52 -109.3 0 0 156.7408 58.4681
  A 0.84 0.52 -109.3 0 0 155.9724 57.8472
  Z
  M 146.67 60.19
  Q 152.64 61.32 153.45 61.23
  A 0.17 0.06 -5.1 0 0 153.61 61.15
  Q 153.60 61.10 153.60 61.06
  A 0.42 0.22 5.5 0 0 153.29 60.85
  Q 149.91 60.20 146.78 59.61
  Q 143.64 59.01 140.26 58.39
  A 0.42 0.22 15.9 0 0 139.89 58.47
  Q 139.88 58.50 139.85 58.55
  A 0.17 0.06 26.6 0 0 139.97 58.67
  Q 140.69 59.06 146.67 60.19
  Z"
/>
<path fill="#503e37" d="
  M 8.97 11.29
  Q 9.25 11.28 9.34 11.25
  A 0.36 0.35 -38.5 0 0 9.42 10.62
  Q 9.24 10.50 8.85 10.50
  Q 9.95 9.89 9.78 11.19
  Q 9.74 11.57 9.45 11.56
  Q 9.22 11.55 8.97 11.29
  Z"
/>
<path fill="#7e85a0" d="
  M 8.97 11.29
  Q 8.83 10.99 8.85 10.50
  Q 9.24 10.50 9.42 10.62
  A 0.36 0.35 -38.5 0 1 9.34 11.25
  Q 9.25 11.28 8.97 11.29
  Z"
/>
<path fill="#7e85a0" d="
  M 25.44 14.32
  Q 24.86 14.15 24.62 13.73
  A 0.36 0.34 84.0 0 1 25.02 13.20
  Q 25.43 13.37 25.71 13.72
  A 0.38 0.31 74.6 0 1 25.44 14.32
  Z"
/>
<path fill="#7e85a0" d="
  M 30.86 13.31
  Q 31.36 13.20 31.95 13.30
  L 32.26 14.36
  A 0.46 0.46 0.0 0 1 31.50 14.82
  Q 30.82 14.18 30.86 13.31
  Z"
/>
<path fill="#7e85a0" d="
  M 38.89 17.25
  L 37.79 16.29
  A 0.52 0.52 0.0 0 1 38.37 15.44
  Q 38.57 15.55 39.18 17.04
  A 0.18 0.18 0.0 0 1 38.89 17.25
  Z"
/>
<path fill="#7e85a0" d="
  M 55.49 20.20
  Q 54.40 19.64 54.27 19.08
  A 0.64 0.64 0.0 0 1 55.49 18.69
  Q 55.55 18.83 55.85 19.90
  A 0.26 0.25 -84.5 0 1 55.49 20.20
  Z"
/>
<path fill="#7e85a0" d="
  M 62.17 19.34
  Q 62.90 20.16 62.44 20.52
  L 61.88 20.61
  Q 60.90 20.68 61.00 18.94
  L 62.17 19.34
  Z"
/>
<path fill="#bd9369" d="
  M 34.89 20.28
  A 0.67 0.66 54.9 0 1 34.70 21.42
  Q 34.26 21.58 33.97 21.40
  A 0.92 0.76 55.5 0 1 34.11 19.80
  Q 34.31 19.80 34.89 20.28
  Z"
/>
<ellipse fill="#7e85a0" cx="0.00" cy="0.00" transform="translate(68.84,21.83) rotate(-110.2)" rx="0.98" ry="0.41"/>
<path fill="#7e85a0" d="
  M 86.30 25.67
  Q 85.85 25.46 85.38 24.63
  A 0.39 0.39 0.0 0 1 85.73 24.05
  Q 86.62 24.07 86.87 25.22
  A 0.41 0.40 -83.1 0 1 86.30 25.67
  Z"
/>
<path fill="#7e85a0" d="
  M 92.86 24.47
  Q 93.19 24.44 93.52 24.41
  Q 94.38 24.36 94.17 25.62
  A 0.87 0.77 30.7 0 1 92.72 25.90
  Q 92.39 25.53 92.39 24.95
  A 0.46 0.43 70.9 0 1 92.54 24.61
  Q 92.74 24.44 92.86 24.47
  Z"
/>
<path fill="#bd9369" d="
  M 64.08 24.83
  Q 64.76 25.48 64.58 26.55
  Q 64.51 26.43 63.76 26.61
  Q 63.02 25.70 63.22 24.78
  Q 63.52 24.94 64.08 24.83
  Z"
/>
<path fill="#7e85a0" d="
  M 100.55 28.21
  Q 100.00 27.91 99.86 27.13
  Q 99.80 26.79 100.25 26.60
  Q 100.74 26.40 101.16 27.71
  A 0.42 0.42 0.0 0 1 100.55 28.21
  Z"
/>
<path fill="#bd9369" d="
  M 93.73 28.68
  Q 95.13 28.90 95.36 29.54
  Q 95.55 30.11 95.90 31.81
  Q 96.08 32.69 95.31 33.03
  A 0.51 0.50 69.4 0 1 94.63 32.72
  L 93.41 29.06
  A 0.29 0.29 0.0 0 1 93.73 28.68
  Z"
/>
<ellipse fill="#7e85a0" cx="0.00" cy="0.00" transform="translate(118.80,30.81) rotate(-110.0)" rx="1.03" ry="0.51"/>
<path fill="#0e121f" d="
  M 192.31 49.89
  L 188.67 59.62
  L 179.67 61.72
  A 1.65 1.63 16.6 0 0 178.92 62.12
  L 173.55 67.18
  A 2.19 2.19 0.0 0 1 170.64 67.27
  L 165.54 63.03
  A 0.73 0.70 72.6 0 0 165.32 62.91
  L 164.66 62.72
  L 164.19 55.02
  Q 164.07 52.12 163.15 49.80
  Q 163.68 48.94 163.09 48.18
  Q 163.36 46.85 162.65 45.37
  Q 162.96 41.82 161.82 38.48
  A 2.13 2.09 -52.0 0 1 161.71 37.51
  Q 162.09 34.45 160.89 31.07
  Q 163.85 29.69 166.78 31.01
  C 170.17 32.53 172.71 37.04 174.64 40.19
  A 8.47 8.36 1.1 0 0 177.19 42.81
  Q 184.32 47.47 192.31 49.89
  Z
  M 184.28 50.16
  Q 183.93 49.51 183.86 49.49
  A 0.67 0.56 81.8 0 0 183.26 50.46
  Q 183.52 50.96 183.98 50.72
  Q 184.46 50.48 184.28 50.16
  Z
  M 189.0362 53.6368
  A 0.92 0.78 -28.8 0 0 187.8542 53.3965
  A 0.92 0.78 -28.8 0 0 187.4238 54.5232
  A 0.92 0.78 -28.8 0 0 188.6058 54.7635
  A 0.92 0.78 -28.8 0 0 189.0362 53.6368
  Z
  M 171.51 61.94
  A 0.51 0.50 34.2 0 0 171.35 61.14
  Q 171.16 61.05 171.04 61.20
  Q 170.76 61.54 171.17 61.86
  Q 171.42 62.05 171.51 61.94
  Z
  M 174.6700 62.3833
  A 0.92 0.48 -159.2 0 0 175.3595 63.1587
  A 0.92 0.48 -159.2 0 0 176.3900 63.0367
  A 0.92 0.48 -159.2 0 0 175.7005 62.2613
  A 0.92 0.48 -159.2 0 0 174.6700 62.3833
  Z"
/>
<path fill="#7e85a0" d="
  M 127.10 31.03
  L 127.09 32.22
  Q 126.58 32.80 126.62 33.42
  Q 126.64 33.82 127.49 33.32
  L 128.84 38.53
  Q 127.42 37.68 126.68 38.84
  Q 126.31 34.30 124.61 30.58
  Q 126.77 30.12 127.10 31.03
  Z"
/>
<path fill="#0e121f" d="
  M 127.09 32.22
  L 127.10 31.03
  Q 127.21 31.61 127.09 32.22
  Z"
/>
<path fill="#7e85a0" d="
  M 18.64 31.63
  L 19.17 32.16
  A 0.33 0.33 0.0 0 1 18.74 32.65
  Q 18.25 32.27 18.15 31.92
  A 0.29 0.29 0.0 0 1 18.64 31.63
  Z"
/>
<path fill="#bd9369" d="
  M 39.34 33.05
  L 38.22 32.62
  Q 37.99 32.20 37.97 32.13
  A 0.70 0.70 0.0 0 1 39.20 31.55
  Q 39.85 32.33 39.34 33.05
  Z"
/>
<path fill="#bd9369" d="
  M 162.65 45.37
  Q 161.43 44.68 160.82 46.01
  Q 160.95 45.77 160.61 45.54
  L 159.96 39.08
  L 160.89 31.07
  Q 162.09 34.45 161.71 37.51
  A 2.13 2.09 -52.0 0 0 161.82 38.48
  Q 162.96 41.82 162.65 45.37
  Z"
/>
<ellipse fill="#7e85a0" cx="0.00" cy="0.00" transform="translate(133.85,33.58) rotate(-108.2)" rx="1.02" ry="0.52"/>
<ellipse fill="#7e85a0" cx="0.00" cy="0.00" transform="translate(33.92,34.84) rotate(-130.3)" rx="0.85" ry="0.49"/>
<path fill="#7e85a0" d="
  M 152.81 37.73
  Q 152.35 37.31 152.23 36.60
  A 0.56 0.51 14.8 0 1 153.11 36.14
  Q 153.57 36.46 153.55 37.24
  A 0.54 0.43 -72.2 0 1 152.81 37.73
  Z"
/>
<path fill="#7e85a0" d="
  M 46.33 36.54
  Q 47.31 37.44 47.28 37.68
  A 0.39 0.39 0.0 0 1 46.64 37.93
  Q 46.29 37.63 45.99 36.76
  A 0.21 0.21 0.0 0 1 46.33 36.54
  Z"
/>
<path fill="#bd9369" d="
  M 68.61 37.97
  A 0.46 0.44 20.7 0 1 67.88 38.28
  Q 67.41 37.93 67.35 36.89
  A 0.38 0.37 -77.7 0 1 67.90 36.53
  Q 68.67 36.95 68.61 37.97
  Z"
/>
<path fill="#7e85a0" d="
  M 98.43 39.54
  L 100.61 49.32
  L 99.64 49.11
  Q 99.53 49.07 99.37 48.93
  A 1.29 1.27 16.1 0 1 98.97 48.22
  Q 98.08 43.97 96.28 39.92
  Q 96.21 39.77 96.27 39.60
  Q 96.34 39.38 96.49 39.37
  Q 97.60 38.90 98.43 39.54
  Z"
/>
<path fill="#7e85a0" d="
  M 62.59 39.85
  Q 63.07 40.10 63.07 40.58
  A 0.38 0.37 -67.5 0 1 62.43 40.85
  Q 62.11 40.52 62.13 40.14
  Q 62.16 39.63 62.59 39.85
  Z"
/>
<ellipse fill="#856a52" cx="0.00" cy="0.00" transform="translate(50.69,40.97) rotate(-171.7)" rx="1.61" ry="0.26"/>
<path fill="#7e85a0" d="
  M 68.46 40.41
  L 69.04 40.60
  Q 69.21 41.01 69.01 41.23
  Q 68.73 41.52 68.48 41.20
  Q 68.20 40.85 68.46 40.41
  Z"
/>
<ellipse fill="#856a52" cx="0.00" cy="0.00" transform="translate(55.26,41.94) rotate(-172.6)" rx="2.06" ry="0.28"/>
<path fill="#7e85a0" d="
  M 72.32 47.44
  Q 71.39 47.52 70.42 47.18
  L 68.72 41.92
  A 0.28 0.28 0.0 0 1 69.20 41.66
  Q 71.22 44.08 72.32 47.44
  Z"
/>
<ellipse fill="#7e85a0" cx="0.00" cy="0.00" transform="translate(75.79,43.06) rotate(-119.0)" rx="0.82" ry="0.44"/>
<path fill="#503e37" d="
  M 206.35 44.94
  Q 202.70 47.32 198.85 47.85
  A 2.76 2.70 26.1 0 0 198.00 48.13
  Q 193.98 50.24 193.17 54.55
  A 0.50 0.50 0.0 0 0 194.09 54.90
  L 194.78 53.77
  Q 194.96 54.41 194.84 54.93
  A 1.12 1.08 78.7 0 1 194.43 55.57
  Q 192.56 57.03 194.49 57.29
  Q 193.28 58.66 195.50 62.07
  A 0.64 0.43 70.0 0 1 195.26 63.02
  Q 195.11 63.00 195.11 63.41
  A 0.45 0.45 0.0 0 0 195.71 63.84
  L 196.28 63.65
  A 0.67 0.66 -6.8 0 1 197.15 64.33
  Q 197.12 64.74 197.36 65.34
  A 1.40 1.37 -87.2 0 0 198.01 66.07
  Q 200.91 67.61 204.07 68.06
  A 0.38 0.37 -64.3 0 1 204.29 68.69
  L 203.95 69.06
  L 202.72 69.10
  C 198.92 68.69 196.93 66.57 194.33 64.79
  A 1.56 1.55 7.6 0 1 193.70 63.97
  L 192.04 59.01
  A 0.26 0.26 0.0 0 0 191.54 59.03
  C 190.34 64.68 195.40 69.35 200.15 71.57
  Q 200.91 71.93 201.88 71.46
  Q 202.44 71.53 202.46 71.39
  Q 205.59 71.66 208.67 71.63
  Q 210.97 71.61 210.93 69.75
  A 0.68 0.67 -10.1 0 1 211.39 69.10
  Q 213.65 68.30 214.17 67.65
  Q 216.48 64.78 218.41 62.75
  A 2.37 2.36 73.8 0 0 219.00 61.67
  Q 219.84 58.32 219.14 54.53
  Q 218.80 52.68 217.90 52.80
  L 216.39 50.41
  Q 216.82 50.37 217.32 50.55
  A 0.28 0.27 -89.6 0 0 217.67 50.20
  Q 217.51 49.75 217.04 49.48
  Q 215.47 48.60 214.42 47.14
  L 232.41 52.68
  A 0.69 0.68 16.5 0 1 232.87 53.52
  Q 232.33 55.48 230.77 56.90
  A 1.31 1.31 0.0 0 0 230.38 58.17
  L 231.07 61.03
  Q 230.05 60.77 229.35 61.14
  Q 228.62 61.52 228.64 62.53
  Q 228.67 64.01 228.85 65.13
  A 0.70 0.69 59.0 0 0 230.09 65.44
  Q 231.19 63.96 231.26 61.75
  L 232.44 65.62
  L 227.25 81.40
  A 2.18 2.02 58.7 0 0 227.14 81.94
  Q 226.97 84.46 225.98 86.53
  A 1.72 1.72 0.0 0 0 226.00 88.06
  Q 227.26 90.60 227.37 92.97
  A 0.70 0.69 -88.6 0 0 227.99 93.63
  L 228.79 93.73
  L 226.73 96.77
  Q 226.94 95.00 224.71 94.83
  A 0.59 0.59 0.0 0 1 224.18 94.10
  L 224.45 93.06
  A 0.53 0.53 0.0 0 0 223.81 92.41
  Q 223.41 92.52 222.89 92.94
  A 0.74 0.72 43.1 0 1 222.00 92.96
  Q 221.59 92.67 220.48 92.45
  A 0.70 0.70 0.0 0 0 219.66 92.98
  Q 219.31 94.48 218.19 95.95
  A 0.51 0.51 0.0 0 1 217.28 95.54
  L 217.40 94.93
  A 0.65 0.65 0.0 0 0 216.69 94.16
  Q 216.02 94.24 215.46 94.94
  A 0.49 0.49 0.0 0 1 214.60 94.71
  Q 214.34 93.23 214.51 92.12
  A 0.15 0.15 0.0 0 0 214.37 91.94
  Q 214.23 91.94 214.14 91.90
  A 0.53 0.53 0.0 0 1 213.85 91.31
  L 214.33 89.31
  A 0.67 0.67 0.0 0 1 215.37 88.91
  Q 217.82 90.66 220.64 91.34
  A 0.73 0.73 0.0 0 0 221.53 90.75
  L 221.54 90.72
  A 1.00 0.99 14.5 0 0 220.89 89.63
  Q 219.00 88.94 218.11 87.82
  A 0.26 0.26 0.0 0 1 218.23 87.42
  L 218.81 87.23
  A 0.05 0.05 0.0 0 1 218.86 87.24
  Q 219.85 88.80 221.16 88.95
  A 0.41 0.40 77.5 0 0 221.55 88.33
  Q 220.14 86.10 218.67 81.49
  C 218.42 80.69 217.77 80.25 217.25 79.78
  A 0.79 0.78 28.3 0 1 217.01 79.00
  L 217.93 75.44
  A 0.19 0.19 0.0 0 0 217.65 75.22
  Q 215.93 76.12 215.96 78.10
  A 0.79 0.78 -10.4 0 1 215.44 78.85
  Q 214.90 79.05 214.34 78.75
  C 212.84 77.96 210.78 78.47 208.75 78.91
  A 0.57 0.56 -16.5 0 0 208.34 79.66
  Q 209.14 81.71 208.85 84.03
  A 0.93 0.91 20.7 0 0 209.26 84.91
  Q 210.18 85.51 209.34 87.13
  A 0.11 0.10 -69.2 0 1 209.22 87.19
  L 208.87 87.12
  A 0.40 0.39 13.7 0 1 208.56 86.62
  Q 208.75 85.95 208.59 85.59
  A 0.79 0.64 75.1 0 0 207.98 85.14
  L 196.97 84.74
  C 194.01 84.61 193.52 83.10 191.47 81.94
  Q 190.61 81.81 190.59 80.77
  A 0.29 0.29 0.0 0 0 190.10 80.57
  L 189.84 80.83
  A 0.54 0.54 0.0 0 1 188.93 80.52
  L 188.84 79.85
  Q 190.28 77.79 193.34 77.46
  A 0.73 0.72 1.5 0 0 193.98 76.86
  Q 194.23 75.20 192.41 74.48
  A 1.02 1.01 -51.2 0 0 191.50 74.58
  Q 190.29 75.38 189.68 76.58
  A 0.97 0.95 -78.3 0 1 188.87 77.12
  L 187.33 77.20
  L 187.94 73.19
  L 196.37 74.30
  A 0.24 0.24 0.0 0 0 196.61 73.93
  Q 193.51 68.95 189.07 64.65
  Q 190.07 60.04 188.67 59.62
  L 192.31 49.89
  L 199.49 42.76
  A 0.62 0.62 0.0 0 1 200.27 42.68
  Q 202.89 44.43 206.35 44.94
  Z
  M 219.08 73.71
  L 222.61 60.03
  A 0.24 0.23 -67.7 0 0 222.50 59.76
  L 222.26 59.62
  A 0.27 0.27 0.0 0 0 221.86 59.80
  Q 219.97 68.58 212.17 72.49
  Q 208.81 74.17 205.68 75.03
  A 0.62 0.62 0.0 0 0 205.72 76.24
  L 214.41 77.90
  A 0.62 0.61 20.5 0 0 215.07 77.60
  L 216.76 74.68
  A 0.80 0.80 0.0 0 1 217.46 74.27
  L 218.36 74.27
  A 0.76 0.74 -82.4 0 0 219.08 73.71
  Z
  M 226.10 60.13
  L 224.74 63.94
  A 0.14 0.14 0.0 0 1 224.48 63.94
  Q 224.18 63.01 223.46 63.60
  A 0.87 0.85 -14.9 0 0 223.18 64.07
  L 222.36 68.36
  A 0.28 0.27 -6.9 0 0 222.75 68.66
  Q 225.10 67.60 224.87 65.06
  A 0.04 0.03 -14.9 0 1 224.89 65.03
  Q 224.90 65.03 224.91 65.02
  A 0.05 0.05 0.0 0 1 224.97 65.06
  Q 225.10 65.82 225.13 66.58
  A 0.01 0.00 -40.3 0 0 225.14 66.58
  Q 225.15 66.57 225.16 66.55
  A 0.13 0.01 84.3 0 0 225.16 66.43
  Q 224.92 63.33 226.39 60.17
  A 0.11 0.11 0.0 0 0 226.33 60.02
  L 226.32 60.02
  A 0.18 0.18 0.0 0 0 226.10 60.13
  Z
  M 224.00 68.81
  Q 221.36 73.65 220.28 79.25
  Q 220.08 80.32 221.83 81.99
  A 0.17 0.17 0.0 0 0 222.08 81.97
  L 222.28 81.71
  A 0.29 0.28 40.3 0 0 222.24 81.33
  Q 221.31 80.45 221.96 79.18
  C 223.09 76.98 222.97 74.80 224.40 72.34
  A 1.68 1.55 65.4 0 0 224.60 71.73
  L 224.92 69.11
  A 0.49 0.49 0.0 0 0 224.00 68.81
  Z
  M 223.1505 83.0016
  A 1.07 0.67 -23.6 0 0 221.9018 82.8160
  A 1.07 0.67 -23.6 0 0 221.1895 83.8584
  A 1.07 0.67 -23.6 0 0 222.4382 84.0440
  A 1.07 0.67 -23.6 0 0 223.1505 83.0016
  Z"
/>
<path fill="#503e37" d="
  M 58.35 42.40
  Q 58.70 42.31 61.42 42.86
  A 0.18 0.18 0.0 0 1 61.40 43.21
  Q 60.02 43.31 58.35 42.89
  A 0.25 0.25 0.0 0 1 58.35 42.40
  Z"
/>
<path fill="#7e85a0" d="
  M 127.89 43.83
  Q 128.73 44.87 129.75 44.30
  Q 131.00 47.13 131.14 50.98
  Q 130.66 50.91 129.98 51.37
  L 128.79 48.32
  A 2.02 2.00 34.8 0 1 128.64 47.51
  Q 128.66 45.71 127.89 43.83
  Z"
/>
<path fill="#856a52" d="
  M 214.42 47.14
  Q 215.47 48.60 217.04 49.48
  Q 217.51 49.75 217.67 50.20
  A 0.28 0.27 -89.6 0 1 217.32 50.55
  Q 216.82 50.37 216.39 50.41
  L 209.61 46.49
  Q 204.62 46.58 200.47 48.31
  A 1.82 1.81 -15.2 0 0 199.37 50.22
  L 199.75 53.02
  A 1.06 1.03 63.7 0 1 199.47 53.89
  Q 198.13 55.30 199.17 57.87
  Q 198.46 58.52 198.70 59.44
  A 0.74 0.74 0.0 0 0 199.88 59.83
  Q 200.52 59.31 201.37 58.91
  A 1.39 1.35 -89.6 0 0 202.02 58.25
  Q 202.58 57.08 201.19 57.19
  L 202.46 55.15
  Q 202.95 55.79 203.48 56.03
  A 0.37 0.37 0.0 0 0 204.01 55.69
  C 204.02 54.25 202.16 53.67 201.49 52.72
  L 200.67 52.06
  A 0.84 0.84 0.0 0 1 201.09 50.57
  L 205.01 50.04
  A 1.10 1.10 0.0 0 1 205.99 50.41
  L 208.76 53.54
  Q 209.82 55.84 211.37 57.39
  A 1.18 1.18 0.0 0 1 210.78 59.37
  Q 208.50 59.86 207.11 61.17
  L 204.57 60.35
  A 0.30 0.30 0.0 0 0 204.20 60.73
  Q 204.52 61.68 205.55 62.31
  Q 204.06 63.49 201.61 63.50
  A 0.68 0.68 0.0 0 0 201.02 64.51
  L 201.28 64.99
  Q 200.96 65.58 201.50 66.04
  Q 202.02 66.47 202.59 66.28
  Q 203.22 66.08 203.23 65.26
  Q 204.88 66.52 207.13 66.76
  A 0.89 0.02 34.9 0 1 207.83 67.23
  Q 208.17 67.47 208.52 67.42
  Q 210.62 67.11 212.09 67.12
  A 2.76 2.74 -72.9 0 0 214.37 65.90
  L 216.99 61.96
  A 1.94 1.86 -27.3 0 0 217.32 61.00
  L 217.90 52.80
  Q 218.80 52.68 219.14 54.53
  Q 219.84 58.32 219.00 61.67
  A 2.37 2.36 73.8 0 1 218.41 62.75
  Q 216.48 64.78 214.17 67.65
  Q 213.65 68.30 211.39 69.10
  A 0.68 0.67 -10.1 0 0 210.93 69.75
  Q 210.97 71.61 208.67 71.63
  Q 205.59 71.66 202.46 71.39
  C 204.07 71.21 206.83 71.39 207.03 69.11
  A 0.41 0.41 0.0 0 0 206.56 68.67
  L 203.95 69.06
  L 204.29 68.69
  A 0.38 0.37 -64.3 0 0 204.07 68.06
  Q 200.91 67.61 198.01 66.07
  A 1.40 1.37 -87.2 0 1 197.36 65.34
  Q 197.12 64.74 197.15 64.33
  A 0.67 0.66 -6.8 0 0 196.28 63.65
  L 195.71 63.84
  A 0.45 0.45 0.0 0 1 195.11 63.41
  Q 195.11 63.00 195.26 63.02
  A 0.64 0.43 70.0 0 0 195.50 62.07
  Q 193.28 58.66 194.49 57.29
  Q 195.59 55.44 195.96 53.28
  A 1.76 1.73 -14.8 0 1 196.60 52.20
  Q 197.90 51.17 198.83 49.31
  A 0.28 0.28 0.0 0 0 198.45 48.94
  Q 195.52 50.57 194.78 53.77
  L 194.09 54.90
  A 0.50 0.50 0.0 0 1 193.17 54.55
  Q 193.98 50.24 198.00 48.13
  A 2.76 2.70 26.1 0 1 198.85 47.85
  Q 202.70 47.32 206.35 44.94
  L 214.42 47.14
  Z
  M 206.7631 55.0548
  A 0.98 0.60 -72.6 0 0 205.8975 55.8106
  A 0.98 0.60 -72.6 0 0 206.1769 56.9252
  A 0.98 0.60 -72.6 0 0 207.0425 56.1694
  A 0.98 0.60 -72.6 0 0 206.7631 55.0548
  Z"
/>
<path fill="#503e37" d="
  M 75.23 46.18
  Q 75.11 46.23 74.49 46.01
  A 0.33 0.33 0.0 0 1 74.45 45.40
  Q 74.47 45.39 75.20 45.60
  A 0.31 0.30 42.2 0 1 75.23 46.18
  Z"
/>
<path fill="#7e85a0" d="
  M 92.16 45.44
  Q 92.37 45.32 92.71 45.70
  Q 93.15 46.19 92.85 46.62
  Q 92.67 46.88 92.34 46.68
  A 0.80 0.66 42.3 0 1 92.16 45.44
  Z"
/>
<path fill="#503e37" d="
  M 160.82 46.01
  L 161.84 52.44
  L 160.61 45.54
  Q 160.95 45.77 160.82 46.01
  Z"
/>
<path fill="#503e37" d="
  M 209.61 46.49
  Q 208.97 46.76 208.66 47.01
  A 0.38 0.38 0.0 0 0 208.71 47.64
  L 211.13 49.04
  A 0.30 0.30 0.0 0 1 210.98 49.60
  L 207.56 49.60
  A 0.45 0.45 0.0 0 0 207.20 50.33
  Q 208.24 51.68 208.76 53.54
  L 205.99 50.41
  A 1.10 1.10 0.0 0 0 205.01 50.04
  L 201.09 50.57
  A 0.84 0.84 0.0 0 0 200.67 52.06
  L 201.49 52.72
  Q 200.42 53.34 200.34 54.27
  A 0.34 0.33 -9.6 0 0 200.81 54.60
  Q 201.73 54.17 202.46 55.15
  L 201.19 57.19
  Q 200.95 58.60 199.17 57.87
  Q 198.13 55.30 199.47 53.89
  A 1.06 1.03 63.7 0 0 199.75 53.02
  L 199.37 50.22
  A 1.82 1.81 -15.2 0 1 200.47 48.31
  Q 204.62 46.58 209.61 46.49
  Z"
/>
<path fill="#503e37" d="
  M 80.69 47.14
  Q 80.53 47.18 79.64 46.99
  A 0.19 0.18 -43.9 0 1 79.65 46.63
  Q 80.09 46.55 80.69 46.72
  A 0.22 0.22 0.0 0 1 80.69 47.14
  Z"
/>
<path fill="#2b2829" d="
  M 209.61 46.49
  L 216.39 50.41
  L 217.90 52.80
  L 217.32 61.00
  A 1.94 1.86 -27.3 0 1 216.99 61.96
  L 214.37 65.90
  A 2.76 2.74 -72.9 0 1 212.09 67.12
  Q 210.62 67.11 208.52 67.42
  Q 208.17 67.47 207.83 67.23
  A 0.89 0.02 34.9 0 0 207.13 66.76
  Q 204.88 66.52 203.23 65.26
  Q 202.66 64.74 201.28 64.99
  L 201.02 64.51
  A 0.68 0.68 0.0 0 1 201.61 63.50
  Q 204.06 63.49 205.55 62.31
  Q 206.36 61.92 207.11 61.17
  Q 208.50 59.86 210.78 59.37
  A 1.18 1.18 0.0 0 0 211.37 57.39
  Q 209.82 55.84 208.76 53.54
  Q 208.24 51.68 207.20 50.33
  A 0.45 0.45 0.0 0 1 207.56 49.60
  L 210.98 49.60
  A 0.30 0.30 0.0 0 0 211.13 49.04
  L 208.71 47.64
  A 0.38 0.38 0.0 0 1 208.66 47.01
  Q 208.97 46.76 209.61 46.49
  Z
  M 207.7116 63.4497
  A 1.40 0.75 -22.7 0 0 206.1306 63.2981
  A 1.40 0.75 -22.7 0 0 205.1284 64.5303
  A 1.40 0.75 -22.7 0 0 206.7094 64.6819
  A 1.40 0.75 -22.7 0 0 207.7116 63.4497
  Z"
/>
<path fill="#503e37" d="
  M 81.83 47.41
  Q 81.80 47.41 81.39 47.31
  A 0.19 0.19 0.0 0 1 81.36 46.95
  Q 81.73 46.80 81.86 46.84
  A 0.30 0.29 -42.1 0 1 81.83 47.41
  Z"
/>
<path fill="#503e37" d="
  M 86.00 48.15
  Q 85.94 48.16 85.37 48.04
  A 0.32 0.31 38.4 0 1 85.30 47.45
  Q 85.57 47.31 86.06 47.52
  A 0.33 0.33 0.0 0 1 86.00 48.15
  Z"
/>
<ellipse fill="#7e85a0" cx="0.00" cy="0.00" transform="translate(106.25,48.97) rotate(-127.5)" rx="0.77" ry="0.51"/>
<path fill="#7e85a0" d="
  M 163.09 48.18
  Q 163.68 48.94 163.15 49.80
  Q 162.54 49.55 162.47 48.99
  Q 162.43 48.63 163.09 48.18
  Z"
/>
<path fill="#2b2829" d="
  M 194.49 57.29
  Q 192.56 57.03 194.43 55.57
  A 1.12 1.08 78.7 0 0 194.84 54.93
  Q 194.96 54.41 194.78 53.77
  Q 195.52 50.57 198.45 48.94
  A 0.28 0.28 0.0 0 1 198.83 49.31
  Q 197.90 51.17 196.60 52.20
  A 1.76 1.73 -14.8 0 0 195.96 53.28
  Q 195.59 55.44 194.49 57.29
  Z"
/>
<path fill="#856a52" d="
  M 184.28 50.16
  Q 184.46 50.48 183.98 50.72
  Q 183.52 50.96 183.26 50.46
  A 0.67 0.56 81.8 0 1 183.86 49.49
  Q 183.93 49.51 184.28 50.16
  Z"
/>
<path fill="#7e85a0" d="
  M 124.31 52.82
  A 0.33 0.33 0.0 0 1 123.85 53.12
  Q 123.14 52.79 123.08 51.81
  A 0.43 0.39 8.9 0 1 123.65 51.44
  Q 124.31 51.67 124.31 52.82
  Z"
/>
<path fill="#503e37" d="
  M 111.42 52.71
  Q 113.78 53.06 113.74 53.32
  Q 113.70 53.57 111.35 53.22
  Q 108.99 52.88 109.03 52.62
  Q 109.06 52.37 111.42 52.71
  Z"
/>
<path fill="#bd9369" d="
  M 131.50 52.71
  L 132.44 56.10
  A 0.61 0.60 -17.7 0 1 132.05 56.84
  L 131.69 56.96
  A 0.60 0.58 -25.5 0 1 131.03 56.74
  Q 129.95 55.17 130.21 53.50
  Q 130.93 52.91 131.50 52.71
  Z"
/>
<path fill="#0e121f" d="
  M 201.49 52.72
  C 202.16 53.67 204.02 54.25 204.01 55.69
  A 0.37 0.37 0.0 0 1 203.48 56.03
  Q 202.95 55.79 202.46 55.15
  Q 201.73 54.17 200.81 54.60
  A 0.34 0.33 -9.6 0 1 200.34 54.27
  Q 200.42 53.34 201.49 52.72
  Z"
/>
<path fill="#7e85a0" d="
  M 161.92 52.95
  Q 162.54 55.53 164.19 55.02
  L 164.66 62.72
  Q 164.27 62.79 163.87 62.87
  L 161.92 52.95
  Z"
/>
<ellipse fill="#503e37" cx="0.00" cy="0.00" transform="translate(188.23,54.08) rotate(-28.8)" rx="0.92" ry="0.78"/>
<ellipse fill="#503e37" cx="0.00" cy="0.00" transform="translate(118.60,54.39) rotate(-169.8)" rx="4.65" ry="0.35"/>
<path fill="#7e85a0" d="
  M 138.78 55.65
  A 0.38 0.38 0.0 0 1 138.22 56.04
  Q 137.34 55.55 137.34 54.88
  A 0.54 0.54 0.0 0 1 138.25 54.47
  Q 138.66 54.86 138.78 55.65
  Z"
/>
<ellipse fill="#2b2829" cx="0.00" cy="0.00" transform="translate(206.47,55.99) rotate(-72.6)" rx="0.98" ry="0.60"/>
<path fill="#bd9369" d="
  M 199.17 57.87
  Q 200.95 58.60 201.19 57.19
  Q 202.58 57.08 202.02 58.25
  A 1.39 1.35 -89.6 0 1 201.37 58.91
  Q 200.52 59.31 199.88 59.83
  A 0.74 0.74 0.0 0 1 198.70 59.44
  Q 198.46 58.52 199.17 57.87
  Z"
/>
<ellipse fill="#7e85a0" cx="0.00" cy="0.00" transform="translate(156.25,58.64) rotate(-109.3)" rx="0.84" ry="0.52"/>
<path fill="#856a52" d="
  M 146.78 59.61
  Q 149.91 60.20 153.29 60.85
  A 0.42 0.22 5.5 0 1 153.60 61.06
  Q 153.60 61.10 153.61 61.15
  A 0.17 0.06 -5.1 0 1 153.45 61.23
  Q 152.64 61.32 146.67 60.19
  Q 140.69 59.06 139.97 58.67
  A 0.17 0.06 26.6 0 1 139.85 58.55
  Q 139.88 58.50 139.89 58.47
  A 0.42 0.22 15.9 0 1 140.26 58.39
  Q 143.64 59.01 146.78 59.61
  Z"
/>
<path fill="#856a52" d="
  M 202.72 69.10
  Q 201.58 69.15 201.46 69.74
  Q 201.28 70.57 201.88 71.46
  Q 200.91 71.93 200.15 71.57
  C 195.40 69.35 190.34 64.68 191.54 59.03
  A 0.26 0.26 0.0 0 1 192.04 59.01
  L 193.70 63.97
  A 1.56 1.55 7.6 0 0 194.33 64.79
  C 196.93 66.57 198.92 68.69 202.72 69.10
  Z"
/>
<path fill="#2b2829" d="
  M 218.36 74.27
  L 217.46 74.27
  A 0.80 0.80 0.0 0 0 216.76 74.68
  L 215.07 77.60
  A 0.62 0.61 20.5 0 1 214.41 77.90
  L 205.72 76.24
  A 0.62 0.62 0.0 0 1 205.68 75.03
  Q 208.81 74.17 212.17 72.49
  Q 219.97 68.58 221.86 59.80
  A 0.27 0.27 0.0 0 1 222.26 59.62
  L 222.50 59.76
  A 0.24 0.23 -67.7 0 1 222.61 60.03
  L 219.08 73.71
  A 0.76 0.74 -82.4 0 1 218.36 74.27
  Z"
/>
<path fill="#856a52" d="
  M 226.10 60.13
  A 0.18 0.18 0.0 0 1 226.32 60.02
  L 226.33 60.02
  A 0.11 0.11 0.0 0 1 226.39 60.17
  Q 224.92 63.33 225.16 66.43
  A 0.13 0.01 84.3 0 1 225.16 66.55
  Q 225.15 66.57 225.14 66.58
  A 0.01 0.00 -40.3 0 1 225.13 66.58
  Q 225.10 65.82 224.97 65.06
  A 0.05 0.05 0.0 0 0 224.91 65.02
  Q 224.90 65.03 224.89 65.03
  A 0.04 0.03 -14.9 0 0 224.87 65.06
  Q 225.10 67.60 222.75 68.66
  A 0.28 0.27 -6.9 0 1 222.36 68.36
  L 223.18 64.07
  A 0.87 0.85 -14.9 0 1 223.46 63.60
  Q 224.18 63.01 224.48 63.94
  A 0.14 0.14 0.0 0 0 224.74 63.94
  L 226.10 60.13
  Z"
/>
<path fill="#bd9369" d="
  M 207.11 61.17
  Q 206.36 61.92 205.55 62.31
  Q 204.52 61.68 204.20 60.73
  A 0.30 0.30 0.0 0 1 204.57 60.35
  L 207.11 61.17
  Z"
/>
<path fill="#7e85a0" d="
  M 171.51 61.94
  Q 171.42 62.05 171.17 61.86
  Q 170.76 61.54 171.04 61.20
  Q 171.16 61.05 171.35 61.14
  A 0.51 0.50 34.2 0 1 171.51 61.94
  Z"
/>
<path fill="#bd9369" d="
  M 231.07 61.03
  L 231.26 61.75
  Q 231.19 63.96 230.09 65.44
  A 0.70 0.69 59.0 0 1 228.85 65.13
  Q 228.67 64.01 228.64 62.53
  Q 228.62 61.52 229.35 61.14
  Q 230.05 60.77 231.07 61.03
  Z"
/>
<ellipse fill="#856a52" cx="0.00" cy="0.00" transform="translate(175.53,62.71) rotate(-159.2)" rx="0.92" ry="0.48"/>
<ellipse fill="#bd9369" cx="0.00" cy="0.00" transform="translate(206.42,63.99) rotate(-22.7)" rx="1.40" ry="0.75"/>
<path fill="#2b2829" d="
  M 189.07 64.65
  Q 193.51 68.95 196.61 73.93
  A 0.24 0.24 0.0 0 1 196.37 74.30
  L 187.94 73.19
  L 189.07 64.65
  Z"
/>
<path fill="#bd9369" d="
  M 201.28 64.99
  Q 202.66 64.74 203.23 65.26
  Q 203.22 66.08 202.59 66.28
  Q 202.02 66.47 201.50 66.04
  Q 200.96 65.58 201.28 64.99
  Z"
/>
<path fill="#2b2829" d="
  M 187.26 78.71
  Q 187.70 79.21 187.80 80.62
  A 0.47 0.47 0.0 0 0 188.60 80.92
  Q 188.85 80.68 188.84 79.85
  L 188.93 80.52
  A 0.54 0.54 0.0 0 0 189.84 80.83
  L 190.10 80.57
  A 0.29 0.29 0.0 0 1 190.59 80.77
  Q 190.61 81.81 191.47 81.94
  Q 191.05 81.75 190.95 81.84
  A 0.75 0.75 0.0 0 0 190.98 82.97
  Q 192.96 84.59 190.99 84.87
  Q 189.45 83.84 188.60 82.43
  A 0.28 0.27 -62.2 0 0 188.09 82.59
  C 188.25 85.66 190.48 84.74 191.29 86.52
  Q 192.07 88.25 192.25 88.80
  A 2.83 2.74 16.1 0 0 192.76 89.69
  Q 195.43 92.77 196.61 97.12
  A 1.91 1.90 -72.7 0 0 197.00 97.87
  L 200.71 102.40
  L 164.41 94.48
  A 4.21 4.12 65.1 0 1 163.27 94.05
  C 158.27 91.29 152.09 91.26 146.54 90.38
  Q 147.01 89.60 146.30 89.13
  A 0.82 0.82 0.0 0 0 145.13 89.41
  Q 145.06 89.52 145.03 90.11
  L 124.14 85.36
  Q 124.42 83.90 122.94 85.02
  L 106.23 80.36
  A 1.83 1.82 -79.2 0 1 104.90 78.40
  Q 105.53 72.36 109.37 66.90
  A 2.50 2.49 -67.8 0 1 111.81 65.87
  Q 120.85 67.37 130.13 69.86
  Q 132.10 70.39 135.16 72.79
  A 1.28 1.28 0.0 0 0 136.37 72.99
  Q 139.92 71.73 146.22 72.82
  Q 152.88 73.97 182.31 79.22
  Q 185.31 79.75 187.26 78.71
  Z
  M 129.39 74.38
  Q 129.57 74.54 131.71 72.14
  Q 131.98 71.84 131.75 71.63
  Q 131.51 71.43 131.25 71.74
  Q 129.20 74.22 129.39 74.38
  Z
  M 134.13 73.96
  A 0.31 0.27 -20.9 0 0 134.66 74.15
  Q 134.89 73.88 134.87 73.59
  A 0.30 0.29 -33.5 0 0 134.31 73.48
  Q 134.20 73.69 134.13 73.96
  Z
  M 135.96 77.51
  Q 139.66 75.24 141.90 75.08
  A 0.56 0.55 -83.3 0 0 142.40 74.68
  Q 142.71 73.56 142.56 73.35
  A 0.43 0.43 0.0 0 0 141.83 73.39
  C 140.69 75.44 136.36 74.82 135.59 77.23
  A 0.25 0.25 0.0 0 0 135.96 77.51
  Z
  M 149.88 74.87
  Q 149.19 75.15 149.06 75.25
  A 0.69 0.66 -72.4 0 0 149.65 76.45
  Q 150.58 76.07 150.53 75.28
  A 0.48 0.47 -12.6 0 0 149.88 74.87
  Z
  M 142.65 76.56
  A 0.15 0.15 0.0 0 0 142.46 76.78
  C 145.68 81.30 142.60 82.19 139.36 83.51
  A 0.20 0.20 0.0 0 0 139.26 83.80
  L 139.49 84.20
  A 0.42 0.41 -29.4 0 0 140.05 84.35
  L 144.20 81.95
  A 1.23 1.21 71.8 0 0 144.80 80.74
  Q 144.41 77.63 142.65 76.56
  Z
  M 120.48 78.56
  Q 121.04 79.77 121.60 80.29
  A 0.26 0.26 0.0 0 0 122.03 80.07
  Q 121.86 78.52 120.85 78.16
  A 0.30 0.30 0.0 0 0 120.48 78.56
  Z
  M 148.42 80.05
  Q 148.88 79.84 149.20 78.68
  A 0.26 0.26 0.0 0 0 148.79 78.41
  Q 148.20 78.86 147.91 79.56
  A 0.38 0.38 0.0 0 0 148.42 80.05
  Z
  M 154.60 81.07
  Q 155.07 79.87 155.03 79.72
  A 0.26 0.25 -41.1 0 0 154.55 79.69
  Q 154.10 80.71 154.17 81.03
  A 0.23 0.22 49.8 0 0 154.60 81.07
  Z
  M 119.00 82.34
  Q 119.21 81.54 118.75 80.99
  A 0.39 0.39 0.0 0 0 118.07 81.20
  Q 118.04 81.49 118.46 82.38
  A 0.29 0.29 0.0 0 0 119.00 82.34
  Z
  M 126.64 82.49
  Q 126.55 83.80 127.05 84.15
  A 0.38 0.38 0.0 0 0 127.65 83.85
  Q 127.66 83.02 127.12 82.34
  A 0.27 0.27 0.0 0 0 126.64 82.49
  Z
  M 155.4887 85.1841
  A 1.51 0.39 -53.0 0 0 154.2685 86.1553
  A 1.51 0.39 -53.0 0 0 153.6713 87.5959
  A 1.51 0.39 -53.0 0 0 154.8915 86.6247
  A 1.51 0.39 -53.0 0 0 155.4887 85.1841
  Z"
/>
<path fill="#7e85a0" d="
  M 232.44 65.62
  L 236.76 78.80
  Q 234.70 79.49 233.25 81.00
  A 1.13 1.09 -27.6 0 0 232.95 81.91
  Q 233.35 85.16 232.09 88.12
  A 5.50 5.46 56.6 0 0 231.66 90.25
  L 231.66 93.50
  A 0.37 0.37 0.0 0 1 230.93 93.58
  Q 230.88 93.36 230.88 92.87
  A 1.19 1.16 -59.9 0 0 230.72 92.24
  Q 228.41 88.07 230.35 83.80
  A 0.46 0.45 -85.2 0 0 229.82 83.17
  C 226.27 84.13 228.74 91.35 229.70 93.52
  A 0.30 0.29 -23.6 0 1 229.54 93.91
  Q 229.41 93.97 229.21 93.97
  Q 229.00 93.85 228.79 93.73
  L 227.99 93.63
  A 0.70 0.69 -88.6 0 1 227.37 92.97
  Q 227.26 90.60 226.00 88.06
  A 1.72 1.72 0.0 0 1 225.98 86.53
  Q 226.97 84.46 227.14 81.94
  A 2.18 2.02 58.7 0 1 227.25 81.40
  L 232.44 65.62
  Z
  M 235.3589 76.8822
  A 1.23 0.65 -35.7 0 0 233.9807 77.0721
  A 1.23 0.65 -35.7 0 0 233.3611 78.3178
  A 1.23 0.65 -35.7 0 0 234.7393 78.1279
  A 1.23 0.65 -35.7 0 0 235.3589 76.8822
  Z"
/>
<path fill="#bd9369" d="
  M 202.46 71.39
  Q 202.44 71.53 201.88 71.46
  Q 201.28 70.57 201.46 69.74
  Q 201.58 69.15 202.72 69.10
  L 203.95 69.06
  L 206.56 68.67
  A 0.41 0.41 0.0 0 1 207.03 69.11
  C 206.83 71.39 204.07 71.21 202.46 71.39
  Z"
/>
<path fill="#0e121f" d="
  M 224.00 68.81
  A 0.49 0.49 0.0 0 1 224.92 69.11
  L 224.60 71.73
  A 1.68 1.55 65.4 0 1 224.40 72.34
  C 222.97 74.80 223.09 76.98 221.96 79.18
  Q 221.31 80.45 222.24 81.33
  A 0.29 0.28 40.3 0 1 222.28 81.71
  L 222.08 81.97
  A 0.17 0.17 0.0 0 1 221.83 81.99
  Q 220.08 80.32 220.28 79.25
  Q 221.36 73.65 224.00 68.81
  Z"
/>
<path fill="#bd9369" d="
  M 131.75 71.63
  Q 131.98 71.84 131.71 72.14
  Q 129.57 74.54 129.39 74.38
  Q 129.20 74.22 131.25 71.74
  Q 131.51 71.43 131.75 71.63
  Z"
/>
<path fill="#856a52" d="
  M 134.13 73.96
  Q 134.20 73.69 134.31 73.48
  A 0.30 0.29 -33.5 0 1 134.87 73.59
  Q 134.89 73.88 134.66 74.15
  A 0.31 0.27 -20.9 0 1 134.13 73.96
  Z"
/>
<path fill="#856a52" d="
  M 135.59 77.23
  C 136.36 74.82 140.69 75.44 141.83 73.39
  A 0.43 0.43 0.0 0 1 142.56 73.35
  Q 142.71 73.56 142.40 74.68
  A 0.56 0.55 -83.3 0 1 141.90 75.08
  Q 139.66 75.24 135.96 77.51
  A 0.25 0.25 0.0 0 1 135.59 77.23
  Z"
/>
<path fill="#bd9369" d="
  M 188.84 79.85
  Q 188.85 80.68 188.60 80.92
  A 0.47 0.47 0.0 0 1 187.80 80.62
  Q 187.70 79.21 187.26 78.71
  Q 187.06 77.86 187.33 77.20
  L 188.87 77.12
  A 0.97 0.95 -78.3 0 0 189.68 76.58
  Q 190.29 75.38 191.50 74.58
  A 1.02 1.01 -51.2 0 1 192.41 74.48
  Q 194.23 75.20 193.98 76.86
  A 0.73 0.72 1.5 0 1 193.34 77.46
  Q 190.28 77.79 188.84 79.85
  Z"
/>
<path fill="#856a52" d="
  M 150.53 75.28
  Q 150.58 76.07 149.65 76.45
  A 0.69 0.66 -72.4 0 1 149.06 75.25
  Q 149.19 75.15 149.88 74.87
  A 0.48 0.47 -12.6 0 1 150.53 75.28
  Z"
/>
<path fill="#bd9369" d="
  M 226.73 96.77
  Q 227.74 99.37 226.88 101.20
  A 1.48 1.43 52.6 0 0 226.77 102.15
  Q 227.06 103.43 228.43 104.08
  A 0.79 0.79 0.0 0 1 228.89 104.80
  L 228.89 106.01
  A 1.69 1.63 -61.8 0 0 229.14 106.89
  Q 229.92 108.14 229.93 109.72
  Q 227.04 109.96 223.79 110.41
  A 3.01 2.87 -88.3 0 0 221.33 112.84
  Q 221.16 113.73 220.80 114.70
  A 0.26 0.26 0.0 0 1 220.30 114.64
  L 219.73 109.57
  Q 221.12 110.05 221.93 109.46
  A 0.85 0.81 18.9 0 0 221.18 108.02
  Q 220.29 108.23 220.02 108.22
  A 0.95 0.95 0.0 0 1 219.14 107.39
  L 219.10 107.06
  A 0.49 0.49 0.0 0 1 219.76 106.55
  Q 221.58 107.23 223.63 106.99
  Q 224.24 106.92 224.25 107.28
  Q 224.27 107.72 224.28 107.81
  A 0.59 0.58 -10.5 0 0 225.03 108.32
  Q 225.37 108.22 225.81 107.88
  A 0.75 0.74 -27.6 0 0 226.07 107.06
  Q 226.06 107.03 226.05 107.02
  A 1.46 1.44 63.8 0 1 226.41 105.94
  Q 227.68 104.51 226.03 102.84
  A 1.07 1.05 -25.1 0 0 225.15 102.53
  Q 225.10 102.54 224.57 102.74
  Q 223.85 103.01 223.37 102.79
  Q 222.96 102.61 222.85 102.00
  A 0.93 0.93 0.0 0 0 222.11 101.26
  L 220.47 100.94
  A 0.60 0.59 -75.8 0 0 219.79 101.35
  Q 219.60 101.96 218.84 102.05
  A 0.72 0.71 57.0 0 0 218.57 103.38
  Q 219.45 103.91 219.10 104.74
  Q 218.78 105.49 218.07 105.31
  Q 217.68 105.21 217.40 105.13
  A 0.27 0.26 70.4 0 0 217.18 105.60
  L 217.62 105.93
  A 0.87 0.86 -67.8 0 1 217.95 106.72
  L 217.77 108.28
  L 207.16 108.03
  A 1.21 1.20 76.8 0 1 206.13 107.39
  Q 203.41 102.28 200.71 102.40
  L 197.00 97.87
  A 1.91 1.90 -72.7 0 1 196.61 97.12
  Q 195.43 92.77 192.76 89.69
  A 2.83 2.74 16.1 0 1 192.25 88.80
  Q 192.07 88.25 191.29 86.52
  C 190.48 84.74 188.25 85.66 188.09 82.59
  A 0.28 0.27 -62.2 0 1 188.60 82.43
  Q 189.45 83.84 190.99 84.87
  Q 192.85 85.11 193.39 86.92
  A 1.16 1.16 0.0 0 0 195.67 86.61
  Q 195.68 86.25 195.57 85.73
  A 0.67 0.67 0.0 0 1 196.08 84.93
  L 196.97 84.74
  L 207.98 85.14
  A 0.79 0.64 75.1 0 1 208.59 85.59
  Q 208.75 85.95 208.56 86.62
  A 0.40 0.39 13.7 0 0 208.87 87.12
  L 209.22 87.19
  A 0.11 0.10 -69.2 0 0 209.34 87.13
  Q 210.18 85.51 209.26 84.91
  A 0.93 0.91 20.7 0 1 208.85 84.03
  Q 209.14 81.71 208.34 79.66
  A 0.57 0.56 -16.5 0 1 208.75 78.91
  C 210.78 78.47 212.84 77.96 214.34 78.75
  Q 214.90 79.05 215.44 78.85
  A 0.79 0.78 -10.4 0 0 215.96 78.10
  Q 215.93 76.12 217.65 75.22
  A 0.19 0.19 0.0 0 1 217.93 75.44
  L 217.01 79.00
  A 0.79 0.78 28.3 0 0 217.25 79.78
  C 217.77 80.25 218.42 80.69 218.67 81.49
  Q 220.14 86.10 221.55 88.33
  A 0.41 0.40 77.5 0 1 221.16 88.95
  Q 219.85 88.80 218.86 87.24
  A 0.05 0.05 0.0 0 0 218.81 87.23
  L 218.23 87.42
  A 0.26 0.26 0.0 0 0 218.11 87.82
  Q 219.00 88.94 220.89 89.63
  A 1.00 0.99 14.5 0 1 221.54 90.72
  L 221.53 90.75
  A 0.73 0.73 0.0 0 1 220.64 91.34
  Q 217.82 90.66 215.37 88.91
  A 0.67 0.67 0.0 0 0 214.33 89.31
  L 213.85 91.31
  A 0.53 0.53 0.0 0 0 214.14 91.90
  Q 214.23 91.94 214.37 91.94
  A 0.15 0.15 0.0 0 1 214.51 92.12
  Q 214.34 93.23 214.60 94.71
  A 0.49 0.49 0.0 0 0 215.46 94.94
  Q 216.02 94.24 216.69 94.16
  A 0.65 0.65 0.0 0 1 217.40 94.93
  L 217.28 95.54
  A 0.51 0.51 0.0 0 0 218.19 95.95
  Q 219.31 94.48 219.66 92.98
  A 0.70 0.70 0.0 0 1 220.48 92.45
  Q 221.59 92.67 222.00 92.96
  A 0.74 0.72 43.1 0 0 222.89 92.94
  Q 223.41 92.52 223.81 92.41
  A 0.53 0.53 0.0 0 1 224.45 93.06
  L 224.18 94.10
  A 0.59 0.59 0.0 0 0 224.71 94.83
  Q 226.94 95.00 226.73 96.77
  Z
  M 201.53 87.00
  A 0.74 0.74 0.0 0 0 201.15 86.20
  Q 200.07 85.62 198.40 86.21
  A 0.42 0.42 0.0 0 0 198.46 87.01
  L 201.18 87.53
  A 0.25 0.24 -78.5 0 0 201.47 87.33
  L 201.53 87.00
  Z
  M 206.89 86.80
  L 204.42 86.17
  A 1.00 1.00 0.0 0 0 203.47 87.85
  Q 204.95 89.29 207.06 88.09
  A 0.70 0.70 0.0 0 0 206.89 86.80
  Z
  M 210.62 95.88
  L 209.68 93.07
  A 0.52 0.52 0.0 0 0 208.68 93.14
  Q 208.34 94.93 209.98 96.32
  A 0.40 0.40 0.0 0 0 210.62 95.88
  Z
  M 221.95 96.44
  Q 223.51 95.97 222.96 94.39
  Q 222.73 93.70 222.45 93.69
  A 1.69 1.55 83.1 0 0 220.95 95.78
  Q 221.14 96.58 221.02 97.22
  Q 220.87 97.98 221.08 98.26
  Q 221.34 98.62 222.27 98.67
  A 0.23 0.23 0.0 0 0 222.48 98.33
  L 221.72 97.01
  A 0.39 0.39 0.0 0 1 221.95 96.44
  Z"
/>
<path fill="#bd9369" d="
  M 142.65 76.56
  Q 144.41 77.63 144.80 80.74
  A 1.23 1.21 71.8 0 1 144.20 81.95
  L 140.05 84.35
  A 0.42 0.41 -29.4 0 1 139.49 84.20
  L 139.26 83.80
  A 0.20 0.20 0.0 0 1 139.36 83.51
  C 142.60 82.19 145.68 81.30 142.46 76.78
  A 0.15 0.15 0.0 0 1 142.65 76.56
  Z"
/>
<ellipse fill="#0e121f" cx="0.00" cy="0.00" transform="translate(234.36,77.60) rotate(-35.7)" rx="1.23" ry="0.65"/>
<path fill="#bd9369" d="
  M 120.85 78.16
  Q 121.86 78.52 122.03 80.07
  A 0.26 0.26 0.0 0 1 121.60 80.29
  Q 121.04 79.77 120.48 78.56
  A 0.30 0.30 0.0 0 1 120.85 78.16
  Z"
/>
<path fill="#bd9369" d="
  M 148.42 80.05
  A 0.38 0.38 0.0 0 1 147.91 79.56
  Q 148.20 78.86 148.79 78.41
  A 0.26 0.26 0.0 0 1 149.20 78.68
  Q 148.88 79.84 148.42 80.05
  Z"
/>
<path fill="#503e37" d="
  M 236.76 78.80
  Q 236.81 79.16 236.88 79.20
  Q 234.91 82.69 234.28 86.66
  C 234.05 88.05 234.65 89.01 234.18 90.16
  Q 234.12 90.30 234.56 91.81
  Q 234.92 93.04 232.92 94.92
  Q 232.37 94.18 229.99 94.52
  Q 229.39 94.60 229.21 93.97
  Q 229.41 93.97 229.54 93.91
  A 0.30 0.29 -23.6 0 0 229.70 93.52
  C 228.74 91.35 226.27 84.13 229.82 83.17
  A 0.46 0.45 -85.2 0 1 230.35 83.80
  Q 228.41 88.07 230.72 92.24
  A 1.19 1.16 -59.9 0 1 230.88 92.87
  Q 230.88 93.36 230.93 93.58
  A 0.37 0.37 0.0 0 0 231.66 93.50
  L 231.66 90.25
  A 5.50 5.46 56.6 0 1 232.09 88.12
  Q 233.35 85.16 232.95 81.91
  A 1.13 1.09 -27.6 0 1 233.25 81.00
  Q 234.70 79.49 236.76 78.80
  Z"
/>
<path fill="#856a52" d="
  M 154.17 81.03
  Q 154.10 80.71 154.55 79.69
  A 0.26 0.25 -41.1 0 1 155.03 79.72
  Q 155.07 79.87 154.60 81.07
  A 0.23 0.22 49.8 0 1 154.17 81.03
  Z"
/>
<path fill="#7e85a0" d="
  M 236.88 79.20
  L 237.86 81.97
  Q 237.81 82.11 237.76 82.26
  L 237.20 86.72
  A 0.66 0.65 11.2 0 0 237.68 87.43
  Q 239.97 88.06 241.25 89.11
  Q 239.60 89.89 237.39 88.98
  A 0.53 0.53 0.0 0 0 236.66 89.37
  Q 236.61 89.67 236.92 90.12
  Q 237.23 90.59 237.42 90.63
  Q 237.88 90.71 238.01 91.06
  Q 238.17 91.50 237.44 91.99
  Q 236.10 92.88 235.79 93.22
  A 0.47 0.47 0.0 0 0 236.05 93.99
  L 236.39 94.06
  A 0.36 0.34 81.0 0 1 236.64 94.25
  Q 236.89 94.81 236.36 94.71
  Q 236.17 94.67 235.62 94.41
  Q 234.74 93.99 232.92 94.92
  Q 234.92 93.04 234.56 91.81
  Q 234.12 90.30 234.18 90.16
  C 234.65 89.01 234.05 88.05 234.28 86.66
  Q 234.91 82.69 236.88 79.20
  Z"
/>
<path fill="#856a52" d="
  M 118.46 82.38
  Q 118.04 81.49 118.07 81.20
  A 0.39 0.39 0.0 0 1 118.75 80.99
  Q 119.21 81.54 119.00 82.34
  A 0.29 0.29 0.0 0 1 118.46 82.38
  Z"
/>
<path fill="#856a52" d="
  M 191.47 81.94
  C 193.52 83.10 194.01 84.61 196.97 84.74
  L 196.08 84.93
  A 0.67 0.67 0.0 0 0 195.57 85.73
  Q 195.68 86.25 195.67 86.61
  A 1.16 1.16 0.0 0 1 193.39 86.92
  Q 192.85 85.11 190.99 84.87
  Q 192.96 84.59 190.98 82.97
  A 0.75 0.75 0.0 0 1 190.95 81.84
  Q 191.05 81.75 191.47 81.94
  Z"
/>
<path fill="#0e121f" d="
  M 238.76 84.47
  Q 237.58 84.82 237.76 82.26
  Q 237.81 82.11 237.86 81.97
  L 238.76 84.47
  Z"
/>
<path fill="#856a52" d="
  M 127.12 82.34
  Q 127.66 83.02 127.65 83.85
  A 0.38 0.38 0.0 0 1 127.05 84.15
  Q 126.55 83.80 126.64 82.49
  A 0.27 0.27 0.0 0 1 127.12 82.34
  Z"
/>
<path fill="#503e37" d="
  M 237.76 82.26
  Q 237.58 84.82 238.76 84.47
  Q 239.63 87.00 241.18 87.19
  Q 242.21 87.60 241.25 89.11
  Q 239.97 88.06 237.68 87.43
  A 0.66 0.65 11.2 0 1 237.20 86.72
  L 237.76 82.26
  Z"
/>
<ellipse fill="#7e85a0" cx="0.00" cy="0.00" transform="translate(222.17,83.43) rotate(-23.6)" rx="1.07" ry="0.67"/>
<path fill="#7e85a0" d="
  M 124.14 85.36
  L 122.94 85.02
  Q 124.42 83.90 124.14 85.36
  Z"
/>
<ellipse fill="#856a52" cx="0.00" cy="0.00" transform="translate(154.58,86.39) rotate(-53.0)" rx="1.51" ry="0.39"/>
<path fill="#0e121f" d="
  M 201.18 87.53
  L 198.46 87.01
  A 0.42 0.42 0.0 0 1 198.40 86.21
  Q 200.07 85.62 201.15 86.20
  A 0.74 0.74 0.0 0 1 201.53 87.00
  L 201.47 87.33
  A 0.25 0.24 -78.5 0 1 201.18 87.53
  Z"
/>
<path fill="#856a52" d="
  M 206.89 86.80
  A 0.70 0.70 0.0 0 1 207.06 88.09
  Q 204.95 89.29 203.47 87.85
  A 1.00 1.00 0.0 0 1 204.42 86.17
  L 206.89 86.80
  Z"
/>
<path fill="#0e121f" d="
  M 244.48 87.76
  Q 243.31 87.70 243.50 88.46
  Q 244.33 91.82 247.86 90.80
  L 251.33 91.05
  A 1.00 0.99 -64.8 0 0 252.09 90.77
  L 256.21 86.65
  A 1.56 1.54 27.6 0 1 257.61 86.22
  L 262.74 87.20
  A 2.52 2.51 1.6 0 1 264.76 89.33
  L 265.50 94.82
  A 1.69 1.68 56.2 0 0 268.63 95.44
  L 271.32 90.79
  A 0.93 0.91 13.2 0 1 272.09 90.32
  Q 274.49 90.20 284.24 91.50
  Q 294.84 92.91 304.76 95.45
  Q 307.78 96.23 307.78 98.92
  Q 306.05 100.14 302.71 98.92
  A 0.47 0.47 0.0 0 0 302.28 99.74
  Q 305.12 101.77 308.13 100.14
  L 309.08 104.86
  A 1.12 1.12 0.0 0 0 311.07 105.32
  L 315.52 99.47
  A 2.84 2.82 22.7 0 1 318.20 98.38
  Q 334.93 100.95 351.24 104.95
  C 354.12 105.65 353.86 110.89 354.24 113.28
  Q 354.28 114.50 355.40 114.75
  Q 356.10 114.90 356.48 114.45
  Q 356.83 114.04 356.84 113.33
  L 361.75 108.26
  A 2.04 2.00 -63.7 0 1 363.45 107.67
  Q 382.03 110.18 400.60 114.51
  A 1.93 1.92 -83.4 0 1 402.08 116.39
  L 402.08 123.00
  A 0.80 0.79 -19.0 0 1 401.77 123.63
  Q 400.50 124.61 398.70 127.71
  Q 391.64 139.93 386.52 148.42
  A 2.69 2.68 19.7 0 1 383.83 149.69
  Q 367.59 147.27 351.85 143.26
  A 2.64 2.63 7.2 0 1 349.87 140.71
  L 349.87 134.69
  A 0.60 0.60 0.0 0 0 349.29 134.09
  C 346.50 134.04 342.88 138.20 341.12 139.43
  A 1.54 1.53 -58.5 0 1 340.04 139.69
  Q 325.23 137.69 311.25 133.44
  C 308.95 132.74 307.73 128.11 307.02 126.14
  A 1.62 1.61 57.7 0 0 304.36 125.54
  L 299.96 129.94
  A 1.27 1.26 25.6 0 1 298.92 130.30
  Q 283.31 128.53 270.98 124.58
  A 3.09 3.08 -85.1 0 1 268.85 122.04
  L 267.41 111.41
  A 0.64 0.64 0.0 0 0 266.59 110.88
  Q 264.80 111.42 264.22 112.70
  Q 263.40 114.51 260.71 121.12
  A 1.45 1.45 0.0 0 1 258.93 121.96
  C 255.83 120.99 252.45 117.33 249.86 114.77
  A 6.93 6.82 80.0 0 0 248.08 113.50
  C 245.35 112.15 238.53 108.93 235.57 109.44
  Q 235.05 106.90 233.74 104.96
  A 0.27 0.20 -0.0 0 0 233.62 104.87
  L 232.62 104.54
  A 0.38 0.38 0.0 0 0 232.18 105.11
  Q 233.48 107.05 234.13 109.50
  L 229.93 109.72
  Q 229.92 108.14 229.14 106.89
  A 1.69 1.63 -61.8 0 1 228.89 106.01
  L 228.89 104.80
  A 0.79 0.79 0.0 0 0 228.43 104.08
  Q 227.06 103.43 226.77 102.15
  A 1.48 1.43 52.6 0 1 226.88 101.20
  Q 227.74 99.37 226.73 96.77
  L 228.79 93.73
  Q 229.00 93.85 229.21 93.97
  Q 229.39 94.60 229.99 94.52
  Q 232.37 94.18 232.92 94.92
  Q 234.74 93.99 235.62 94.41
  Q 236.17 94.67 236.36 94.71
  Q 236.89 94.81 236.64 94.25
  A 0.36 0.34 81.0 0 0 236.39 94.06
  L 236.05 93.99
  A 0.47 0.47 0.0 0 1 235.79 93.22
  Q 236.10 92.88 237.44 91.99
  Q 238.17 91.50 238.01 91.06
  Q 237.88 90.71 237.42 90.63
  Q 237.23 90.59 236.92 90.12
  Q 236.61 89.67 236.66 89.37
  A 0.53 0.53 0.0 0 1 237.39 88.98
  Q 239.60 89.89 241.25 89.11
  Q 242.21 87.60 241.18 87.19
  Q 241.80 86.82 242.37 86.58
  Q 243.12 86.27 243.61 86.62
  Q 244.12 86.97 244.48 87.76
  Z
  M 249.0284 92.6809
  A 1.97 0.44 -2.3 0 0 247.0423 92.3204
  A 1.97 0.44 -2.3 0 0 245.0916 92.8391
  A 1.97 0.44 -2.3 0 0 247.0777 93.1996
  A 1.97 0.44 -2.3 0 0 249.0284 92.6809
  Z
  M 271.13 93.10
  Q 271.00 93.63 275.37 94.60
  Q 275.60 94.66 275.74 94.56
  Q 275.91 94.45 275.96 94.27
  Q 276.00 94.08 275.90 93.90
  Q 275.82 93.75 275.59 93.70
  Q 271.26 92.56 271.13 93.10
  Z
  M 257.1290 94.2125
  A 0.84 0.61 -167.8 0 0 257.8211 94.9862
  A 0.84 0.61 -167.8 0 0 258.7710 94.5675
  A 0.84 0.61 -167.8 0 0 258.0789 93.7938
  A 0.84 0.61 -167.8 0 0 257.1290 94.2125
  Z
  M 278.29 94.64
  Q 278.25 94.85 278.36 95.03
  Q 278.45 95.18 278.70 95.23
  Q 287.20 96.91 289.05 97.28
  Q 290.90 97.66 299.38 99.41
  Q 299.63 99.46 299.77 99.36
  Q 299.94 99.24 299.99 99.02
  Q 300.03 98.81 299.92 98.63
  Q 299.83 98.48 299.57 98.44
  Q 291.08 96.75 289.23 96.38
  Q 287.38 96.01 278.90 94.26
  Q 278.65 94.20 278.51 94.30
  Q 278.33 94.42 278.29 94.64
  Z
  M 276.38 98.99
  Q 277.10 98.97 277.41 98.41
  A 0.86 0.83 -84.5 0 0 276.43 97.17
  Q 275.80 97.40 275.82 98.45
  A 0.55 0.55 0.0 0 0 276.38 98.99
  Z
  M 237.09 101.14
  Q 236.96 100.61 236.60 100.29
  A 0.44 0.42 -82.9 0 0 235.95 100.82
  Q 236.13 101.20 236.42 101.48
  A 0.40 0.38 16.4 0 0 237.09 101.14
  Z
  M 299.78 103.72
  Q 300.14 103.85 300.62 103.63
  A 1.00 0.92 -51.9 0 0 300.47 101.79
  Q 300.11 101.74 299.80 101.97
  A 1.10 0.89 -50.4 0 0 299.78 103.72
  Z
  M 344.7202 108.0316
  A 0.29 0.29 0.0 0 0 344.4927 107.6904
  L 322.4288 103.2816
  A 0.29 0.29 0.0 0 0 322.0876 103.5092
  L 322.0798 103.5484
  A 0.29 0.29 0.0 0 0 322.3073 103.8896
  L 344.3712 108.2984
  A 0.29 0.29 0.0 0 0 344.7124 108.0708
  L 344.7202 108.0316
  Z
  M 241.76 104.67
  A 0.55 0.55 0.0 0 0 241.21 104.12
  A 0.55 0.55 0.0 0 0 240.66 104.67
  A 0.55 0.55 0.0 0 0 241.21 105.22
  A 0.55 0.55 0.0 0 0 241.76 104.67
  Z
  M 320.4207 105.9661
  A 1.01 0.80 -63.5 0 0 319.2541 106.5130
  A 1.01 0.80 -63.5 0 0 319.5193 107.7739
  A 1.01 0.80 -63.5 0 0 320.6859 107.2270
  A 1.01 0.80 -63.5 0 0 320.4207 105.9661
  Z
  M 265.99 107.37
  Q 266.49 107.50 266.84 107.67
  A 0.55 0.55 0.0 0 0 267.44 106.75
  Q 267.02 106.40 266.29 106.21
  Q 265.56 106.03 265.01 106.14
  A 0.55 0.55 0.0 0 0 265.10 107.23
  Q 265.50 107.25 265.99 107.37
  Z
  M 309.34 108.68
  Q 309.77 108.78 310.29 109.29
  A 0.44 0.44 0.0 0 0 311.03 108.91
  Q 310.82 107.59 309.63 107.33
  Q 308.43 107.08 307.70 108.20
  A 0.44 0.44 0.0 0 0 308.23 108.85
  Q 308.90 108.59 309.34 108.68
  Z
  M 345.6681 111.2549
  A 0.98 0.72 -48.6 0 0 344.4799 111.5139
  A 0.98 0.72 -48.6 0 0 344.3719 112.7251
  A 0.98 0.72 -48.6 0 0 345.5601 112.4661
  A 0.98 0.72 -48.6 0 0 345.6681 111.2549
  Z
  M 360.8323 111.4011
  A 2.30 0.37 -169.0 0 0 363.0194 112.2032
  A 2.30 0.37 -169.0 0 0 365.3477 112.2789
  A 2.30 0.37 -169.0 0 0 363.1606 111.4768
  A 2.30 0.37 -169.0 0 0 360.8323 111.4011
  Z
  M 390.3587 117.2654
  A 0.26 0.26 0.0 0 0 390.1547 116.9595
  L 368.8950 112.7114
  A 0.26 0.26 0.0 0 0 368.5891 112.9154
  L 368.5813 112.9546
  A 0.26 0.26 0.0 0 0 368.7853 113.2605
  L 390.0450 117.5086
  A 0.26 0.26 0.0 0 0 390.3509 117.3046
  L 390.3587 117.2654
  Z
  M 256.88 115.32
  A 0.55 0.55 0.0 0 0 256.33 114.77
  A 0.55 0.55 0.0 0 0 255.78 115.32
  A 0.55 0.55 0.0 0 0 256.33 115.87
  A 0.55 0.55 0.0 0 0 256.88 115.32
  Z
  M 366.3853 115.4355
  A 0.93 0.67 -50.2 0 0 365.2753 115.7211
  A 0.93 0.67 -50.2 0 0 365.1947 116.8645
  A 0.93 0.67 -50.2 0 0 366.3047 116.5789
  A 0.93 0.67 -50.2 0 0 366.3853 115.4355
  Z
  M 353.58 117.54
  Q 353.39 117.20 352.78 117.04
  A 0.40 0.40 0.0 0 0 352.30 117.55
  Q 352.45 118.03 353.32 118.87
  A 1.06 1.06 0.0 0 0 354.21 119.17
  Q 355.61 118.99 356.15 117.15
  A 0.21 0.20 81.1 0 0 355.84 116.92
  L 354.54 117.85
  A 0.64 0.63 62.7 0 1 353.58 117.54
  Z
  M 273.7539 117.8986
  A 0.99 0.76 -103.8 0 0 273.2519 119.0413
  A 0.99 0.76 -103.8 0 0 274.2261 119.8214
  A 0.99 0.76 -103.8 0 0 274.7281 118.6787
  A 0.99 0.76 -103.8 0 0 273.7539 117.8986
  Z
  M 304.96 122.43
  L 307.43 123.05
  A 0.36 0.36 0.0 0 0 307.86 122.79
  L 308.20 121.45
  A 2.42 1.48 -75.9 0 0 307.35 118.74
  L 307.06 118.67
  A 2.42 1.48 -75.9 0 0 305.04 120.65
  L 304.70 121.99
  A 0.36 0.36 0.0 0 0 304.96 122.43
  Z
  M 349.53 129.07
  Q 347.73 128.85 348.23 132.02
  A 1.20 1.20 0.0 0 0 350.51 132.34
  L 351.85 129.45
  L 354.13 121.20
  A 0.86 0.85 15.1 0 0 353.52 120.15
  L 352.86 119.98
  A 0.79 0.78 -74.9 0 0 351.91 120.53
  L 349.53 129.07
  Z
  M 392.7796 120.9094
  A 0.91 0.65 -56.7 0 0 391.7367 121.3131
  A 0.91 0.65 -56.7 0 0 391.7804 122.4306
  A 0.91 0.65 -56.7 0 0 392.8233 122.0269
  A 0.91 0.65 -56.7 0 0 392.7796 120.9094
  Z
  M 296.1350 122.8523
  A 0.98 0.85 -99.1 0 0 295.4507 123.9544
  A 0.98 0.85 -99.1 0 0 296.4450 124.7877
  A 0.98 0.85 -99.1 0 0 297.1293 123.6856
  A 0.98 0.85 -99.1 0 0 296.1350 122.8523
  Z
  M 314.9218 126.8802
  A 0.95 0.72 -91.1 0 0 314.2201 127.8438
  A 0.95 0.72 -91.1 0 0 314.9582 128.7798
  A 0.95 0.72 -91.1 0 0 315.6599 127.8162
  A 0.95 0.72 -91.1 0 0 314.9218 126.8802
  Z
  M 338.5766 132.1563
  A 0.74 0.60 -82.5 0 0 337.8851 132.8117
  A 0.74 0.60 -82.5 0 0 338.3834 133.6237
  A 0.74 0.60 -82.5 0 0 339.0749 132.9683
  A 0.74 0.60 -82.5 0 0 338.5766 132.1563
  Z
  M 357.44 137.40
  A 0.57 0.56 63.5 0 0 358.49 137.76
  Q 358.64 137.50 358.61 137.02
  A 0.49 0.45 70.4 0 0 357.88 136.63
  Q 357.49 136.93 357.44 137.40
  Z
  M 383.3822 142.0527
  A 0.80 0.52 -48.3 0 0 382.4617 142.3041
  A 0.80 0.52 -48.3 0 0 382.3178 143.2473
  A 0.80 0.52 -48.3 0 0 383.2383 142.9959
  A 0.80 0.52 -48.3 0 0 383.3822 142.0527
  Z"
/>
<path fill="#7e85a0" d="
  M 244.48 87.76
  Q 245.50 89.98 247.86 90.80
  Q 244.33 91.82 243.50 88.46
  Q 243.31 87.70 244.48 87.76
  Z"
/>
<path fill="#856a52" d="
  M 146.54 90.38
  L 145.03 90.11
  Q 145.06 89.52 145.13 89.41
  A 0.82 0.82 0.0 0 1 146.30 89.13
  Q 147.01 89.60 146.54 90.38
  Z"
/>
<ellipse fill="#856a52" cx="0.00" cy="0.00" transform="translate(247.06,92.76) rotate(-2.3)" rx="1.97" ry="0.44"/>
<path fill="#503e37" d="
  M 209.98 96.32
  Q 208.34 94.93 208.68 93.14
  A 0.52 0.52 0.0 0 1 209.68 93.07
  L 210.62 95.88
  A 0.40 0.40 0.0 0 1 209.98 96.32
  Z"
/>
<path fill="#503e37" d="
  M 275.96 94.27
  Q 275.91 94.45 275.74 94.56
  Q 275.60 94.66 275.37 94.60
  Q 271.00 93.63 271.13 93.10
  Q 271.26 92.56 275.59 93.70
  Q 275.82 93.75 275.90 93.90
  Q 276.00 94.08 275.96 94.27
  Z"
/>
<path fill="#503e37" d="
  M 221.72 97.01
  L 222.48 98.33
  A 0.23 0.23 0.0 0 1 222.27 98.67
  Q 221.34 98.62 221.08 98.26
  Q 220.87 97.98 221.02 97.22
  Q 221.14 96.58 220.95 95.78
  A 1.69 1.55 83.1 0 1 222.45 93.69
  Q 222.73 93.70 222.96 94.39
  Q 223.51 95.97 221.95 96.44
  A 0.39 0.39 0.0 0 0 221.72 97.01
  Z"
/>
<ellipse fill="#7e85a0" cx="0.00" cy="0.00" transform="translate(257.95,94.39) rotate(-167.8)" rx="0.84" ry="0.61"/>
<path fill="#503e37" d="
  M 289.23 96.38
  Q 291.08 96.75 299.57 98.44
  Q 299.83 98.48 299.92 98.63
  Q 300.03 98.81 299.99 99.02
  Q 299.94 99.24 299.77 99.36
  Q 299.63 99.46 299.38 99.41
  Q 290.90 97.66 289.05 97.28
  Q 287.20 96.91 278.70 95.23
  Q 278.45 95.18 278.36 95.03
  Q 278.25 94.85 278.29 94.64
  Q 278.33 94.42 278.51 94.30
  Q 278.65 94.20 278.90 94.26
  Q 287.38 96.01 289.23 96.38
  Z"
/>
<path fill="#7e85a0" d="
  M 275.82 98.45
  Q 275.80 97.40 276.43 97.17
  A 0.86 0.83 -84.5 0 1 277.41 98.41
  Q 277.10 98.97 276.38 98.99
  A 0.55 0.55 0.0 0 1 275.82 98.45
  Z"
/>
<path fill="#503e37" d="
  M 307.78 98.92
  L 308.13 100.14
  Q 305.12 101.77 302.28 99.74
  A 0.47 0.47 0.0 0 1 302.71 98.92
  Q 306.05 100.14 307.78 98.92
  Z"
/>
<path fill="#7e85a0" d="
  M 237.09 101.14
  A 0.40 0.38 16.4 0 1 236.42 101.48
  Q 236.13 101.20 235.95 100.82
  A 0.44 0.42 -82.9 0 1 236.60 100.29
  Q 236.96 100.61 237.09 101.14
  Z"
/>
<path fill="#856a52" d="
  M 219.73 109.57
  Q 219.28 108.17 217.77 108.28
  L 217.95 106.72
  A 0.87 0.86 -67.8 0 0 217.62 105.93
  L 217.18 105.60
  A 0.27 0.26 70.4 0 1 217.40 105.13
  Q 217.68 105.21 218.07 105.31
  Q 218.78 105.49 219.10 104.74
  Q 219.45 103.91 218.57 103.38
  A 0.72 0.71 57.0 0 1 218.84 102.05
  Q 219.60 101.96 219.79 101.35
  A 0.60 0.59 -75.8 0 1 220.47 100.94
  L 222.11 101.26
  A 0.93 0.93 0.0 0 1 222.85 102.00
  Q 222.96 102.61 223.37 102.79
  Q 223.85 103.01 224.57 102.74
  Q 225.10 102.54 225.15 102.53
  A 1.07 1.05 -25.1 0 1 226.03 102.84
  Q 227.68 104.51 226.41 105.94
  A 1.46 1.44 63.8 0 0 226.05 107.02
  Q 226.06 107.03 226.07 107.06
  A 0.75 0.74 -27.6 0 1 225.81 107.88
  Q 225.37 108.22 225.03 108.32
  A 0.59 0.58 -10.5 0 1 224.28 107.81
  Q 224.27 107.72 224.25 107.28
  Q 224.24 106.92 223.63 106.99
  Q 221.58 107.23 219.76 106.55
  A 0.49 0.49 0.0 0 0 219.10 107.06
  L 219.14 107.39
  A 0.95 0.95 0.0 0 0 220.02 108.22
  Q 220.29 108.23 221.18 108.02
  A 0.85 0.81 18.9 0 1 221.93 109.46
  Q 221.12 110.05 219.73 109.57
  Z"
/>
<path fill="#7e85a0" d="
  M 299.78 103.72
  A 1.10 0.89 -50.4 0 1 299.80 101.97
  Q 300.11 101.74 300.47 101.79
  A 1.00 0.92 -51.9 0 1 300.62 103.63
  Q 300.14 103.85 299.78 103.72
  Z"
/>
<rect fill="#856a52" x="-11.54" y="-0.31" transform="translate(333.40,105.79) rotate(11.3)" width="23.08" height="0.62" rx="0.29"/>
<circle fill="#7e85a0" cx="241.21" cy="104.67" r="0.55"/>
<path fill="#7e85a0" d="
  M 235.57 109.44
  L 234.13 109.50
  Q 233.48 107.05 232.18 105.11
  A 0.38 0.38 0.0 0 1 232.62 104.54
  L 233.62 104.87
  A 0.27 0.20 -0.0 0 1 233.74 104.96
  Q 235.05 106.90 235.57 109.44
  Z"
/>
<ellipse fill="#7e85a0" cx="0.00" cy="0.00" transform="translate(319.97,106.87) rotate(-63.5)" rx="1.01" ry="0.80"/>
<path fill="#7e85a0" d="
  M 266.29 106.21
  Q 267.02 106.40 267.44 106.75
  A 0.55 0.55 0.0 0 1 266.84 107.67
  Q 266.49 107.50 265.99 107.37
  Q 265.50 107.25 265.10 107.23
  A 0.55 0.55 0.0 0 1 265.01 106.14
  Q 265.56 106.03 266.29 106.21
  Z"
/>
<path fill="#856a52" d="
  M 309.63 107.33
  Q 310.82 107.59 311.03 108.91
  A 0.44 0.44 0.0 0 1 310.29 109.29
  Q 309.77 108.78 309.34 108.68
  Q 308.90 108.59 308.23 108.85
  A 0.44 0.44 0.0 0 1 307.70 108.20
  Q 308.43 107.08 309.63 107.33
  Z"
/>
<ellipse fill="#7e85a0" cx="0.00" cy="0.00" transform="translate(345.02,111.99) rotate(-48.6)" rx="0.98" ry="0.72"/>
<ellipse fill="#503e37" cx="0.00" cy="0.00" transform="translate(363.09,111.84) rotate(-169.0)" rx="2.30" ry="0.37"/>
<rect fill="#503e37" x="-11.10" y="-0.28" transform="translate(379.47,115.11) rotate(11.3)" width="22.20" height="0.56" rx="0.26"/>
<path fill="#bd9369" d="
  M 356.84 113.33
  Q 356.83 114.04 356.48 114.45
  Q 356.10 114.90 355.40 114.75
  Q 354.28 114.50 354.24 113.28
  L 356.84 113.33
  Z"
/>
<circle fill="#7e85a0" cx="256.33" cy="115.32" r="0.55"/>
<ellipse fill="#7e85a0" cx="0.00" cy="0.00" transform="translate(365.79,116.15) rotate(-50.2)" rx="0.93" ry="0.67"/>
<path fill="#856a52" d="
  M 354.54 117.85
  L 355.84 116.92
  A 0.21 0.20 81.1 0 1 356.15 117.15
  Q 355.61 118.99 354.21 119.17
  A 1.06 1.06 0.0 0 1 353.32 118.87
  Q 352.45 118.03 352.30 117.55
  A 0.40 0.40 0.0 0 1 352.78 117.04
  Q 353.39 117.20 353.58 117.54
  A 0.64 0.63 62.7 0 0 354.54 117.85
  Z"
/>
<path fill="#0e121f" d="
  M 453.63 126.82
  Q 453.65 126.92 453.41 127.44
  Q 451.75 131.00 448.09 136.84
  Q 442.04 146.49 433.91 157.92
  Q 432.20 160.32 429.25 159.90
  Q 415.34 157.90 399.87 153.37
  Q 396.43 152.36 395.70 151.95
  A 1.08 1.07 -69.8 0 1 395.18 150.82
  Q 395.81 147.49 396.64 145.44
  Q 402.37 131.30 404.77 124.57
  A 4.49 4.32 -15.7 0 1 405.61 123.14
  Q 408.81 119.51 411.26 117.91
  C 412.70 116.97 415.34 117.51 417.37 117.84
  Q 435.04 120.69 452.07 125.12
  A 2.12 2.11 -87.7 0 1 453.63 126.82
  Z
  M 409.2834 120.9103
  A 2.73 0.39 -165.8 0 0 411.8343 121.9581
  A 2.73 0.39 -165.8 0 0 414.5766 122.2497
  A 2.73 0.39 -165.8 0 0 412.0257 121.2019
  A 2.73 0.39 -165.8 0 0 409.2834 120.9103
  Z
  M 434.9294 126.3178
  A 0.31 0.31 0.0 0 0 434.6881 125.9518
  L 417.7806 122.4812
  A 0.31 0.31 0.0 0 0 417.4146 122.7226
  L 417.4106 122.7422
  A 0.31 0.31 0.0 0 0 417.6519 123.1082
  L 434.5594 126.5788
  A 0.31 0.31 0.0 0 0 434.9254 126.3374
  L 434.9294 126.3178
  Z
  M 415.0275 125.4581
  A 1.02 0.70 -41.2 0 0 413.7989 125.6033
  A 1.02 0.70 -41.2 0 0 413.4925 126.8019
  A 1.02 0.70 -41.2 0 0 414.7211 126.6567
  A 1.02 0.70 -41.2 0 0 415.0275 125.4581
  Z
  M 443.0026 131.0761
  A 1.11 0.65 -48.7 0 0 441.7817 131.4810
  A 1.11 0.65 -48.7 0 0 441.5374 132.7439
  A 1.11 0.65 -48.7 0 0 442.7583 132.3390
  A 1.11 0.65 -48.7 0 0 443.0026 131.0761
  Z
  M 403.86 146.51
  Q 403.13 146.40 402.91 147.06
  Q 402.76 147.52 402.99 147.76
  A 0.79 0.71 -70.6 0 0 404.22 147.09
  Q 404.21 146.56 403.86 146.51
  Z
  M 430.1732 152.3736
  A 0.80 0.57 -48.2 0 0 429.2151 152.5901
  A 0.80 0.57 -48.2 0 0 429.1068 153.5664
  A 0.80 0.57 -48.2 0 0 430.0649 153.3499
  A 0.80 0.57 -48.2 0 0 430.1732 152.3736
  Z"
/>
<ellipse fill="#7e85a0" cx="0.00" cy="0.00" transform="translate(273.99,118.86) rotate(-103.8)" rx="0.99" ry="0.76"/>
<path fill="#856a52" d="
  M 304.96 122.43
  A 0.36 0.36 0.0 0 1 304.70 121.99
  L 305.04 120.65
  A 2.42 1.48 -75.9 0 1 307.06 118.67
  L 307.35 118.74
  A 2.42 1.48 -75.9 0 1 308.20 121.45
  L 307.86 122.79
  A 0.36 0.36 0.0 0 1 307.43 123.05
  L 304.96 122.43
  Z"
/>
<path fill="#2b2829" d="
  M 351.85 129.45
  Q 350.40 129.45 349.53 129.07
  L 351.91 120.53
  A 0.79 0.78 -74.9 0 1 352.86 119.98
  L 353.52 120.15
  A 0.86 0.85 15.1 0 1 354.13 121.20
  L 351.85 129.45
  Z"
/>
<ellipse fill="#7e85a0" cx="0.00" cy="0.00" transform="translate(392.28,121.67) rotate(-56.7)" rx="0.91" ry="0.65"/>
<ellipse fill="#503e37" cx="0.00" cy="0.00" transform="translate(411.93,121.58) rotate(-165.8)" rx="2.73" ry="0.39"/>
<rect fill="#503e37" x="-8.94" y="-0.32" transform="translate(426.17,124.53) rotate(11.6)" width="17.88" height="0.64" rx="0.31"/>
<ellipse fill="#7e85a0" cx="0.00" cy="0.00" transform="translate(296.29,123.82) rotate(-99.1)" rx="0.98" ry="0.85"/>
<ellipse fill="#7e85a0" cx="0.00" cy="0.00" transform="translate(414.26,126.13) rotate(-41.2)" rx="1.02" ry="0.70"/>
<ellipse fill="#7e85a0" cx="0.00" cy="0.00" transform="translate(314.94,127.83) rotate(-91.1)" rx="0.95" ry="0.72"/>
<path fill="#0e121f" d="
  M 512.00 135.66
  L 512.00 136.41
  L 481.84 174.00
  L 479.38 174.00
  L 441.99 162.96
  A 1.33 1.33 0.0 0 1 441.21 161.04
  Q 449.12 146.93 458.79 133.31
  Q 461.45 129.56 461.79 129.26
  Q 463.68 127.62 466.52 128.10
  Q 489.25 131.91 512.00 135.66
  Z
  M 461.3574 131.6235
  A 2.32 0.38 -168.4 0 0 463.5536 132.4622
  A 2.32 0.38 -168.4 0 0 465.9026 132.5565
  A 2.32 0.38 -168.4 0 0 463.7064 131.7178
  A 2.32 0.38 -168.4 0 0 461.3574 131.6235
  Z
  M 488.9275 137.2761
  A 0.32 0.32 0.0 0 0 488.6791 136.8979
  L 469.8388 132.9963
  A 0.32 0.32 0.0 0 0 469.4606 133.2447
  L 469.4525 133.2839
  A 0.32 0.32 0.0 0 0 469.7009 133.6621
  L 488.5412 137.5637
  A 0.32 0.32 0.0 0 0 488.9194 137.3153
  L 488.9275 137.2761
  Z
  M 466.3013 135.8382
  A 1.10 0.70 -41.7 0 0 465.0143 136.0474
  A 1.10 0.70 -41.7 0 0 464.6587 137.3018
  A 1.10 0.70 -41.7 0 0 465.9457 137.0926
  A 1.10 0.70 -41.7 0 0 466.3013 135.8382
  Z
  M 495.8635 142.0786
  A 0.95 0.58 -38.5 0 0 494.7589 142.2161
  A 0.95 0.58 -38.5 0 0 494.3765 143.2614
  A 0.95 0.58 -38.5 0 0 495.4811 143.1239
  A 0.95 0.58 -38.5 0 0 495.8635 142.0786
  Z
  M 452.2256 157.1148
  A 0.84 0.61 -38.7 0 0 451.1886 157.1639
  A 0.84 0.61 -38.7 0 0 450.9144 158.1652
  A 0.84 0.61 -38.7 0 0 451.9514 158.1161
  A 0.84 0.61 -38.7 0 0 452.2256 157.1148
  Z
  M 480.1607 163.0517
  A 1.09 0.60 -35.2 0 0 478.9241 163.1897
  A 1.09 0.60 -35.2 0 0 478.3793 164.3083
  A 1.09 0.60 -35.2 0 0 479.6159 164.1703
  A 1.09 0.60 -35.2 0 0 480.1607 163.0517
  Z"
/>
<path fill="#856a52" d="
  M 349.53 129.07
  Q 350.40 129.45 351.85 129.45
  L 350.51 132.34
  A 1.20 1.20 0.0 0 1 348.23 132.02
  Q 347.73 128.85 349.53 129.07
  Z"
/>
<ellipse fill="#7e85a0" cx="0.00" cy="0.00" transform="translate(442.27,131.91) rotate(-48.7)" rx="1.11" ry="0.65"/>
<ellipse fill="#503e37" cx="0.00" cy="0.00" transform="translate(463.63,132.09) rotate(-168.4)" rx="2.32" ry="0.38"/>
<ellipse fill="#7e85a0" cx="0.00" cy="0.00" transform="translate(338.48,132.89) rotate(-82.5)" rx="0.74" ry="0.60"/>
<rect fill="#503e37" x="-9.94" y="-0.34" transform="translate(479.19,135.28) rotate(11.7)" width="19.88" height="0.68" rx="0.32"/>
<ellipse fill="#7e85a0" cx="0.00" cy="0.00" transform="translate(465.48,136.57) rotate(-41.7)" rx="1.10" ry="0.70"/>
<path fill="#7e85a0" d="
  M 357.44 137.40
  Q 357.49 136.93 357.88 136.63
  A 0.49 0.45 70.4 0 1 358.61 137.02
  Q 358.64 137.50 358.49 137.76
  A 0.57 0.56 63.5 0 1 357.44 137.40
  Z"
/>
<ellipse fill="#7e85a0" cx="0.00" cy="0.00" transform="translate(382.85,142.65) rotate(-48.3)" rx="0.80" ry="0.52"/>
<ellipse fill="#7e85a0" cx="0.00" cy="0.00" transform="translate(495.12,142.67) rotate(-38.5)" rx="0.95" ry="0.58"/>
<path fill="#7e85a0" d="
  M 403.86 146.51
  Q 404.21 146.56 404.22 147.09
  A 0.79 0.71 -70.6 0 1 402.99 147.76
  Q 402.76 147.52 402.91 147.06
  Q 403.13 146.40 403.86 146.51
  Z"
/>
<ellipse fill="#7e85a0" cx="0.00" cy="0.00" transform="translate(429.64,152.97) rotate(-48.2)" rx="0.80" ry="0.57"/>
<ellipse fill="#7e85a0" cx="0.00" cy="0.00" transform="translate(451.57,157.64) rotate(-38.7)" rx="0.84" ry="0.61"/>
<ellipse fill="#7e85a0" cx="0.00" cy="0.00" transform="translate(479.27,163.68) rotate(-35.2)" rx="1.09" ry="0.60"/>
</svg>
