<?xml version="1.0" encoding="UTF-8" standalone="no"?>
<!-- Created with Inkscape (http://www.inkscape.org/) -->

<svg
   version="1.1"
   id="svg1"
   width="682.66669"
   height="245.33333"
   viewBox="0 0 682.66669 245.33333"
   xmlns="http://www.w3.org/2000/svg"
   xmlns:svg="http://www.w3.org/2000/svg"
   xmlns:rdf="http://www.w3.org/1999/02/22-rdf-syntax-ns#"
   xmlns:cc="http://creativecommons.org/ns#"
   xmlns:dc="http://purl.org/dc/elements/1.1/">
  <title
     id="title1">ALOS-4 Icon SVG</title>
  <defs
     id="defs1" />
  <g
     id="g1">
    <path
       style="fill:currentColor"
       d="m 272.33334,240.85345 c -8.65996,-3.62646 18.34962,-19.15827 -1.95733,-13.95529 -2.75237,10.62319 -4.42607,21.09625 -17.04267,9.16251 23.53145,-17.61989 -22.13481,-16.15804 -33.60833,-19.99618 -29.16305,-5.55881 -58.98497,-6.02607 -88.28362,-10.67118 -15.68713,-8.96392 -35.900199,-13.64302 -51.63095,-22.72665 -13.532771,-9.13881 -49.7085,-9.60837 -45.251999,-28.36079 19.515521,4.39662 40.0234,12.52184 61.555843,12.52075 21.726846,2.55681 50.952016,10.22987 71.159416,7.92396 23.36637,-23.21299 44.94105,-48.1554 67.67987,-71.97827 0.88767,-14.261574 -3.93039,-29.537346 -19.29938,-12.940338 -13.1584,4.364854 -22.9245,19.146788 -37.33851,18.289098 C 118.84873,108.09871 59.381625,108.16081 -0.08516603,108 13.94338,86.932501 27.006509,64.516254 44.381145,46.090983 68.972773,43.72465 93.828783,44.362931 118.34448,41.527937 c 19.26777,-0.815642 42.48731,-4.307921 61.97109,-4.450277 22.39957,2.552894 52.50036,-0.09251 48.80955,-29.2030648 22.1443,-3.0533744 39.7372,-3.8234281 61.69006,-5.9425306 11.35118,9.7361544 14.2234,-1.39380705 20.01378,13.3099004 9.2949,8.312084 32.06428,9.826374 25.23419,26.758034 -4.373,23.965688 26.81219,-8.359099 38.07311,-12.453822 23.5383,-4.547276 49.84881,-2.259343 74.427,-5.044885 34.87448,-1.129953 69.31366,-5.753388 104.13379,-5.562682 22.96259,0.327463 42.82382,-7.310473 64.09902,-3.433697 20.30761,1.668502 53.29192,-9.8934464 64.24514,2.712303 -4.12293,28.87205 -5.52717,58.52013 -12.72634,86.730004 -30.11024,3.90753 -61.55151,-0.69123 -91.21555,4.03652 -28.98909,-3.87989 -59.17299,-1.42457 -88.62513,-2.26484 -34.81476,-0.36695 -69.43118,1.89693 -104.14239,0.13991 -12.8471,-2.29003 -29.14248,5.29681 -40.09653,0.36706 -6.97225,-9.075471 -18.69454,-26.78484 -16.323,-3.774 -2.20499,36.85715 -7.83435,73.57569 -8.75633,110.44076 21.5268,9.40952 49.02798,8.09095 73.53683,9.22347 25.65792,4.80709 37.65436,5.66153 61.64058,5.2749 10.29164,0.29691 37.36281,2.74361 36.33333,8.9424 -7.28487,5.86337 -20.34503,-3.97845 -31.89689,-2.45266 -22.50071,-0.65627 -43.40475,-3.91241 -65.86947,-3.79775 -14.3441,-1.84004 -33.31658,-5.03084 -45.58494,-3.00916 17.80209,10.66567 -27.28646,-4.13448 -34.74618,1.78861 -10.81552,-5.62701 -15.40817,4.05415 -19.56919,3.8039 -8.28231,-14.96193 -6.70835,14.61113 -17.26122,8.28423 l -3.40545,-1.09744 z m -26.47877,-52.18679 c -4.70727,-15.8066 -1.24764,-46.30702 -9.40543,-54.17177 -15.89773,15.56968 -31.81791,31.42778 -45.38492,49.06492 16.30177,-0.80799 44.26464,14.6304 54.79035,5.10685 z m -39.67315,-27 c 9.39768,-12.78738 27.04913,-23.05107 31.93227,-37.34473 -2.12396,-5.71311 -0.01,-25.258888 -7.68979,-12.8381 -20.49955,22.4365 -41.70922,44.32089 -61.53913,67.29466 16.36193,11.9553 26.49942,-7.3994 37.29665,-17.11183 z M 189.2925,97.999998 c -4.65068,0.96949 -1.29552,8.603372 0,0 z M 365.88732,67.373605 c 3.11669,-14.259858 23.18723,-40.091914 1.07116,-28.954493 -9.99806,3.248773 -13.44078,12.143453 -16.51145,21.255374 -7.83066,13.138226 -15.93006,39.580922 1.55298,37.881068 3.46117,0.977828 10.01471,-23.059031 13.88731,-30.181949 z M 200.00001,94.512224 c 8.42477,-12.76759 28.02241,-37.15038 21.42941,-49.230312 -15.81274,9.839234 -23.3454,35.160982 -30.63565,50.831261 2.95614,1.834559 6.59108,-0.904582 9.20624,-1.600949 z M 340.23654,75.942801 c 5.03011,-11.972166 19.1829,-38.211303 -2.5341,-20.11272 -7.88713,6.966737 -6.74828,46.474789 2.5341,20.11272 z m -115.50791,0.842924 c -3.6297,-18.15721 -17.80724,19.625106 -1.11492,3.234769 z m -30.81497,0.407894 c 8.5223,-7.203872 -1.32511,-23.290366 -11.97186,-27.83319 -16.57013,5.139299 4.97319,32.482364 11.97186,27.83319 z m -11.60254,-25.35907 c 7.78565,-4.303483 -3.54113,4.585569 0,0 z M 219.7425,40.631384 c -3.00096,0.810563 -2.53917,7.415524 0,0 z M 182.66667,112 c -1.96151,-4.96978 8.06052,3.33002 0,0 z m 30,-17.333335 c 4.08859,-4.286918 0.42132,4.594325 0,0 z m 12.66667,-7.842621 c 3.91263,-7.720041 2.87197,3.552806 0,0 z"
       id="path1" />
  </g>
  <metadata
     id="metadata1">
    <rdf:RDF>
      <cc:Work
         rdf:about="">
        <dc:title>ALOS-4 Icon SVG</dc:title>
      </cc:Work>
    </rdf:RDF>
  </metadata>
</svg>
