<?xml version="1.0" encoding="UTF-8" standalone="no"?>
<!-- Created with Inkscape (http://www.inkscape.org/) -->

<svg
   version="1.1"
   id="svg1"
   width="682.66669"
   height="684"
   viewBox="0 0 682.66669 684"
   xmlns="http://www.w3.org/2000/svg"
   xmlns:svg="http://www.w3.org/2000/svg"
   xmlns:rdf="http://www.w3.org/1999/02/22-rdf-syntax-ns#"
   xmlns:cc="http://creativecommons.org/ns#"
   xmlns:dc="http://purl.org/dc/elements/1.1/">
  <title
     id="title1">Meteosat-11 Icon SVG</title>
  <defs
     id="defs1" />
  <g
     id="g1">
    <path
       style="fill:currentColor"
       d="M 276.00001,682.66667 C 236.98137,676.04262 200.55901,658.55073 166.78409,639.05671 141.42494,620.82898 108.12726,627.86759 87.46267,601.89928 62.046078,580.63726 42.273047,554.16188 24.654516,526.46167 4.0297329,498.24664 -3.8683169,464.95008 1.063854,430.41223 -0.62765409,396.36543 -3.2240793,360.20903 19.552637,331.8375 37.817722,301.69882 60.432795,273.97077 73.289794,240.81929 93.82733,214.26143 103.2184,182.11155 123.96251,154.92126 150.54662,110.15736 175.42816,64.377775 204.69845,21.21898 225.41562,-5.2941364 263.89694,3.4777779 292.52446,5.6666667 c 14.53683,-1.1671762 28.44738,-7.5150212 44.35446,1.6900641 23.80363,-21.8415938 18.3508,17.0927252 40.09782,23.1140602 17.04285,14.063153 22.50631,-21.1050464 40.59034,-13.789899 24.52846,1.125543 46.67084,13.680874 67.76627,23.879831 31.35537,19.893821 63.55853,40.940129 89.22347,68.744937 26.51322,22.87821 51.46829,53.7265 59.79518,89.1145 -23.85176,23.80787 -5.08854,54.43051 18.47752,68.4823 9.85405,28.90612 32.09904,53.53109 29.83009,85.72484 7.45516,35.41633 -14.98491,61.97158 -40.7716,82.94056 -23.66181,17.7103 -43.21082,41.68737 -65.51852,62.34967 -30.82121,9.99661 -49.56093,33.62056 -70.43921,55.44232 -32.62777,23.32895 -47.46814,63.05251 -79.96606,86.59629 -22.80534,22.48055 -50.00083,46.94826 -84.93737,43.50768 -21.65087,0.22946 -43.44108,1.18922 -65.02684,-0.79715 z"
       id="path1" />
  </g>
  <metadata
     id="metadata1">
    <rdf:RDF>
      <cc:Work
         rdf:about="">
        <dc:title>Meteosat-11 Icon SVG</dc:title>
      </cc:Work>
    </rdf:RDF>
  </metadata>
</svg>
