<svg xmlns="http://www.w3.org/2000/svg" width="1024" height="926" viewBox="0 0 1024 926"><path d="M263 0c-3 20-29 29-47 44-27 29-97 45-102 79 29 50 70 94 85 151 13 31 34 56 64 25 29-12 34 11 14 19-14 14-12 36-17 61-5 32-3 71-4 101-41-15-93-16-91 63-29 70-76 131-116 195-14 28-44 51-49 83 14 6 38 15 55 25 40 20 79 44 121 60 39-43 63-100 95-148 25-37 44-78 73-111 15-30 42-15 51-2 21-8-17 1-1 9 39 50 96 82 139 128 39 33 96 29 131-6 27-29 85-64 59-107 3-4-36-37-38-54-14 55-12-14-13-40 2-19-2-40-8-27 6-26-30-65-6-80 8-9 41-42 13-14-21 30-36-3-36-28-29 6-2-1 11-2 19-3 44-5 61-13 4-16 68-23 96-29 29-5 47-13 76-15 41-4 83-16 125-20 6-12 34-37 15-47 2 41 2 7-5-17-6-40-18-85-20-123 9-19-1-13-10-10-95 17-188 41-283 55-41 0-100 0-127 27 2 25-3 55-29 25-10-38-51 9-77-17-26-5-59-25-79 3-31-25 26-34 36-52-10-35-46-53-71-76Q309 64 270 9c3-15 36-5 2-9zm727 149zM266 8l-1 2Zm-1 2-1 1zm-2 4zm0 1q-4 2 0 0m-4 1zm12 9c6 1-24 12 0 0m-17 1c-12 8-15 9 0 0m-21 14q-52 34-104 70-7 22 14 46l16 24q-19-27-36-56c11-22 40-38 66-55zm52 13c18 11 2 21-10 27 14-9 28-14 10-27m-1 0q-31 21-1 0zm-20 14zm-56 11q3 4 0 0m2 3v1zm-4 5q-10 6 0 0m116 10v2zm8 11q10 4 0 0m25 18q19 26 0 0m-185 6c22 10-21 28-9 22 9-7 22-10 9-22m211 11 2 2zm-12 1 2 2zm618 9q-1 1 0 0m-729 0c11 9 4 24 4 6zm108 2q-1 0 0 0m1 0c11 13-23 23 5 7q0-4-5-7m622 4 2 1zm2 1 2 1zm-58 6q-40 9 0 0m-673 3zm719 1c-12 2-25 3 0 0m-87 5c-32 7-36 8 0 0m-609 1c9 8 6 5 0 0m6 6q0 1 0 0m567 0-10 2zm-567 1c-18 15-25 17-1 2zm695 1c4 22 8 41 1 8zm-570 0q-13 12 0 0m415 4-5 1zm42 0q5 38 0 1m-704 5c19 15 23 44 40 65-26 1 13 40-1 23-20-13 6-19-2-29-15-18-18-43-34-56l-2-1zm629 4c-15 8-51 9-13 5l8-2zm-35 6c2 1-6-1 0 0m145 1q0 2 0 0m0 1zm-1 1zm-236 2q-28 4 0 0m-350 1q14 11 0 0m18 2c11 11-19 16-24 25l22-15c5-3 9-7 2-10m53 0c-20 12-25 13 0 0m485 1h1zm-547 2zm310 0q-10 2 0 0m-311 0zm346 3q1 5 0 0m-302 3q-15 5 0 0m228 2-5 1zm-224 0v1zm0 2zm217 0zm-216 1zm296 1q-1 0 0 0m0 1q1 0 0 0m-307 1zm0 0-1 1zm225 2c1 5 1 8 0 0m66 1q1 36 0 0m-287 1c24 18-14 29-26 39-23 7-27 24-44 28-8-2-12-12-7-11 6-17 55-38 77-56m79 4q-1 1 0 0m142 0zm0 1q-19 5 0 0m-302 1zm-49 1c-2 0-18 10 0 0m339 1zm-161 2q-3 2 0 0m-173 1c-1 13-42 23-14 13 4-4 16-6 14-13m38 1-2 1zm677 0q-11 3 0 0m-556 1zm11 0c-1 3-1-1 0 0m-135 1zm665 2zm-558 0q0 2 0 0m558 1q4 23 0 0m-558 0zm0 1zm-1 0q-1 0 0 0m577 3q1 7 0 0m-296 1zm-4 0zm-240 1c23 4 29 6 0 0m-5 1q-10 0 0 0m-12 1q-24 3 0 0m-40 2q-7 3 0 0m-47 0-4 3zm93 0q-1 0 0 0m-5 0c-1 6 7 26 2 29 4-10-3-19-2-29m4 1c1 3 3 7 0 0m-88 1-7 5Zm57 1c-10 2-28 14-9 3zm70 0 5 2zm-13 0q-6 17 0 0m-1 0-2 2zm35 1q4 23 0 0m-83 1c7 0-29 9 0 0m191 1v5zm-187 2q1 1 0 0m1 1q6 5 0 0m-10 1c3 10 0 37 2 13-5-4-1-8-2-13m-75 1-2 2zm172 0 2 2zm-120 1c-15 9-33 22 0 0m9 0c-5 4-11 5 0 0m59 1q11 8 0 0m-67 2zm44 0-5 13q0-7 5-13m-7 1zm37 0zm-60 0c-14-1 5 22-9 22 18 0-10-21 9-22m194 1c0 9-12 8-17 8 6 1 16 1 17-8m-73 2q-1 1 0 0m506 0c2 16 11 63 3 21l-2-10zm-419 1h-3zm200 1q-23 5 0 0m-292 0 2 1zm293 0zm-208 0zm208 1q1 13 0 0m-353 0zm155 1q-16 5 0 0m-158 0c7 5 4 4 0 0m289 1-4 1zm-222 0c2 5 0 1 0 0m-208 0-2 1zm292 2c4 14-2 4 0 0m126 1q-1 6 0 0m-160 0q-22 11 0 0m69 0q1 27 0 0m-119 0c1 16 13 38 0 7q-2-3 0-7m259 1 1 3zm-419 0c-14 14-19 18 0 0m295 1v1zm155 0zm-1 1zm-422 0c16 2-13 3-1 0zm18 0q5 5 0 0m-23 0q-1 3 0 0m-65 0zm60 1c6 0 3 1 0 0m-1 0zm0 0q0 3 0 0m-58 0zm472 2-2 1zm-250 0zm130 0zm116 1q-10 3 0 0m-204 0zm-40 1q1 0 0 0m-24 0q-16 10 0 0m62 0zm2 1c1 5-2 6 1 0zm-6 0zm-199 1q-2 1 0 0m151 0c3 15-4 65-1 22q4-11 1-22m41 1zm-206 1c6 17 26 1 3 8l-3-7zm175 0q0 2 0 0m-119 1c5-1-12 4 0 0m-22 0zm33 1c1 0-5 0 0 0m132 0c19 1 22 2 1 0zm-166 0v1zm110 1c4 9 1 8 0 0m43 1 1 1zm-285 0c-8 5-16 10 0 0m287 1h1zm1 0 2 1zm-152 1q-7 0 0 0m154 0h2zm-95 1 2 2zm180 0c1 16 2 51 1 15zm-86 1c7 1 3 0 0 0m-40 0c2 18-17 25 1 7zm34 1 4 3zm0 0zm28 0zm-29 0q0 1 0 0m29 0zm-158 1q-9 21 0 0m159 0q0 2 0 0m169 0c-13 3-23 2 0 0m-327 0-1 9zm-95 1q1-1 0 0m186 0zm67 0zm-67 0q0 1 0 0m14 0v2zm-14 1zm0 0zm42 0c6 20 3 44 2 8v-3h-1zm-84 1c2 17 3 32 0 0m79 0q-1 16 0 0m-229 1h1zm5 0zm62 1h2zm51 1c8 15 3 10 0 0m88 0v4zm49 1c2 8 0 0 0 0m-80 0c5-1 3 2 0 0m4 1q-15 17 0 0m-6 1q-4 4 0 0m-178 0zm0 0q1 2 0 0m21 1q-3 6 0 0m-21 0zm140 0q3 22 0 0m491 1c12 2-7-1 0 0m-480 0q-1 0 0 0m0 1zm-7 0q5 3 0 0m7 0q-1 13 0 0m97 0q1 1 0 0m-14 0c2 17 1 11 0 0m-46 0q-4 3 0 0m60 0q1 2 0 0m-181 1q-4 1 0 0m46 1c4 26 3 33 0 0m-94 0-1 1zm77 1q-7 30 0 0m159 0q3 5 0 0m467 1q-1 0 0 0m-539 0-1 1zm-84 2c0-1-1 11 0 0m-37 0q-10 11 0 0m115 1c-5 11 2 38-3 51 4-12-3-42 3-51m-27 1q-9 8 0 0m60 0v4zm45 0c-4 11 3 4-2 5l1-2zm-265 1c1 0-6 1 0 0m152 0q6 5 0 0m-42 1q0 1 0 0m259 0c-16 4-22 6 0 0m-373 1-2 2zm12 0c2 0-9 1 0 0m-5 0h2zm64 2q-2 3 0 0m44 1c9 21-1 5 0 0m108 1-1 4zm-153 0h-2zm48 0c0 10 0 3 0 0m136 1-1 4zm480 1c0 3-2 0 0 0m-465 1q-1 20 0 0m-16 2v3zm-82 1q-1 8 0 0m77 0-1 2zm-21 1q-2 6 0 0m24 0c-2 21-3 0 0 0m363 0 1 3zm-358 0v2zm-243 1q0 4 0 0m345 0q-28 11 0 0m359 0q-34 8 0 0m-493 1q-5 11 0 0m-105 0 3 4zm609 1q2 5 0 0m-471 0q8 19 0 0m-245 3-1 3zm677 0q-31 7 0 0m-470 1zm-195 0q-2 14 0 0m199 0q-4 9 0 0m-2 1q-2 1 0 0m48 0zm-169 1c-25 20-35 26 0 0m9 0 3 8zm161 1q2-1 0 0m391 1q-37 8 0 0m-416 0q-1 2 0 0m9 1 3 3zm-133 1-2 3Zm140 0c14 12 35 17 7 6l-6-5zm-95 1-5 7zm78 1c-7 15-11 25-2 4zm-136 1q-8 12 0 0m529 0h-6c-7 2 21-4 6 0m-390 0 2 1zm61 1-1 3zm-59 0 1 3zm6 2zm153 1c-14 2-24 3-4 0zm0 0c-1 9-1 12 0 0m-416 0q20 6 0 0m31 0q2 30 0 0m581 1c-19 4-43 8-12 3zm-288 1c5 11-1 15 1 0zm-213 0-1 2zm202 0-1 7zm-214 1c5 18 9 23 0 0m147 1q-10 23 0 0m78 0q1 2 0 0m-318 0q6 0 0 0m160 0-3 3zm381 1c8 12 15 11 0 0m-544 0q-1 3 0 0m539 1c-22 3-37 6-4 0Zm-433 0v1zm186 0q3 2 0 0m-194 0c11 8 5 4 0 0m197 1c8 5-1-1 0 0m11 0q-1 3 0 0m-37 1c4 4 1 3 0 0m-73 1q-1 7 0 0m102 0c5 2 8 2 0 0m-209 0q1 1 0 0m-9 0-1 3zm225 1zm-24 0c-8 6-16 5 0 0m-190 1q8 17 0 0m219 0q1 2 0 0m201 1q0 9 0 0m-500 0-1 4zm189 0q-4 6 0 0m64 1zm-44 0q1 0 0 0m42 0q1 1 0 0m-42 0-2 4zm-37 1c8 5-4-2 0 0m230 0 1 5zm-147 0h2zm-23 0c14 16 0 0 0 0m39 0q0 3 0 0m-19 1zm50 0q3 27 0 0m-212 0 2 3zm204 0q4 11 0 0m-33 0zm-21 0c0 2-4 5 0 0m14 1q0-1 0 0m-24 0q-16 23 0 0m-56 0zm-90 0c2 4 3 10 0 0m90 0q-2 1 0 0m-175 1v1zm208 1-2 3zm-134 0c12 7 17 11 0 0m106 1h-2zm224 0q-1 15 0 0m-227 1q4 6 0 0m310 1c-25 5-47 8-8 1zm-424 0c5 1-22 4 0 0m66 0c-16 7-20 8 0 0m-108 0 3 6zm275 1q1 26 0 0m-91 0-1 2zm-113 0q5 5 0 0m188 1q-6 2 0 0m-100 0zm101 1q0 1 0 0m-101 0zm-1 1-2 2zm97 0q1 1 0 0m-219 1zm172 0c0 8 0 3 0 0m48 0zm-100 1-2 2zm-176 0c1 20 1 23 0 0q-1 1 0 0m401 1q-25 6 0 0m-405 1q-16 11 0 0m233 1q-2 9 0 0m204 0q-4 0 0 0m-434 0v4zm171 1q-1 2 0 0m54 1 2 1zm197 0q-30 13 0 0m-196 1c5 7 3 10 0 0m1 0 1 1zm-57 0-2 1zm-143 1 3 3zm192 0q-7 7 0 0m0 0 2 1zm-52 1q-7 4 0 0m55 0q-1 1 0 0m74 0q-1 9 0 0m-296 1-1 5zm224 0 2 2zm-234 1v5zm293 1zm4 0q0 2 0 0m-3 1q0 1 0 0m-70 0q-13 16 0 0m-4 1zm-51 0-2 2zm-85 0c6 3-6 0 0 0m-2 1zm137 0q-16 18 0 0m85 1q5 11 0 0m-223 0zm-73 0-3 2zm6 1c6 5 3 23 2 24 1-8 4-17-2-24m-10 2zm78 0zm78 0q-17 9 0 0m-157 0zm412 0q-28 6 0 0m-333 1q-3 14 0 0m135 2c8 8 19 28 4 5zm-215 0q-7 11 0 0m305 0c0 15-1 26 0 0m-21 3h-1zm145 0h-1zm-282 0-2 1zm142 1q-7 9 0 0m-67 0c8 3 41 44 18 17zm53 0zm0 1q-1 0 0 0m22 0c2 0-5 6 0 0m-219 1zm7 0zm216 1q-1 0 0 0m-223 0zm129 0q-16 13 0 0m86 1c-7 11-36 11-9 8-4-2 9-5 9-9m-32 0zm-127 0-2 3zm80 1q-2 2 0 0m-146 0zm216 0q-10 8 0 0m12 0 1 1zm-278 1c8 9 8 16 2 1zm54 0c11 2-4 1 0 0m363 1c-12 7 9 1 0 0m-136 0s0 3 0 0m-87 0c-5 7-4 4 0 0m4 0q14 5 0 0m-118 3c9 1 5 0 0 0m100 0q1 5 0 0m-3 0c-3 7-51 30-23 15q13-5 23-15m17 1c3 5-1 1 0 0m-80 0c-11 3-18 5-2 1zm77 0q-3 5 0 0m215 0q0 1 0 0m7 1c-15 8-19 22 0 0m-435 1zm20 0q-2 4 0 0m195 0c14 29 1 7 0 0m-106 1-1 2zm185 0q10 26 0 0m-264 0c15 14 65 12 16 9-7 0-10-8-16-9m0 2q-2 1 0 0m323 0c-14 3-28 5 0 0m-210 1q-21 7 0 0m193 3 1 3zm-69 1q-13 9 0 0m149 0c-2 3 3 1 0 0m-284 0-9 3zm186 0c-8 0-8 13 0 0m-55 0-2 2zm-38 1c18 1-3-1 0 0m-62 0q-18 8 0 0m174 1 1 4zm-20 0v2zm-18 0q18 36 0 0m-12 1c-4 3-12 7 0 0m35 1c5 19 7 22-1 0zm-310 0c-3 4-1 0 0 0m189 0q5 4 0 0m59 1c0 3-10 3 0 0m57 0q4 10 0 0m-312 1c10 8-6-3 0 0m284 0c-3 4-19 13 0 0m49 0-1 9v1-1zm-84 1c4 2-1 5 0 0m-57 0q-1 0 0 0m-1 0c-2 6-4 1 0 0m-85 0c-2 3-3 6 0 0m-113 0c5 4-2 0 0 0m281 0q-4 7 0 0m-222 1c23 4 35 3 2 1q-2 0-2-1m243 0c12 22 23 45 6 11zm-105 2q2 1 0 0m-31 0zm88 0c-30 19-37 24 0 0m65 1c5 8 11 15 0 0m-126 0c3 1-15 6 0 0m32 0q-6 5 0 0m-139 1c9 12 33 3 39 15-7-12-29-2-39-15m242 1 1 5c1 4-8-31-1-5m-316 1zm278 0-46 29zm1 0q0 1 0 0m-104 0q-1 1 0 0m-30 1c-7 2-14 4 0 0m2 1c2 0 14 14 7 8q-2-5-7-8m-122 1c5-2-6 6 0 0m-34 0-7 2zm236 0zm-178 2c20 5 48-1 40 32 7-28-17-30-39-32zm-1 0q-1 1 0 0m79 0c3 0-7 3 0 0m1 0q11 10 0 0m74 1c-10 6-15 9 0 0m-88 1c37 1-16 1 0 0m-90 0q-1 3 0 0m88 1q-1 0 0 0m-89 1q-1 35 0 0m79 0c12 21 12 10-3 1-8 0-10 0 3-1m224 0q0 1 0 0m-237 1q5 9 0 0m6 0zm-2 0q-1 20 0 0m223 1zm-317 2q-4 3 0 0m292 1c-7 5-41 26-10 6zm26 0q2 1 0 0m-197 1c3 1 0 0 0 0m-22 0c10 23 13 29 1 3-4-10 1 16-1-3m204 0 2 3zm-5 1c1 8-5 0 0 0m-106 0q0 4 3 7c-5 3 0-6-3-7m20 1c-17 11-61 40-18 11zm-167 1q8 7 0 0m29 2zm214 0q-28 18 0 0m-85 0-5 3zm-129 0c1 8-1 1 0 0m152 2-67 43zm1 0q2 0 0 0m-199 0c9 6 16 6 0 0m138 0c5 7 5 27 3 6 0-2-4-3-3-6m162 1c0 16 0 5 0 0m-35 1c5 10 17 34 4 9zm-307 1q13 13 0 0m90 2c12 5-5 0 0 0m186 0zm-161 0c-5 16 0 0 0 0m274 0-1 1zm-109 0zm-222 1q-1-1 0 0m13 0c33 7 24 6 0 0m-15 0zm120 0c15 32 0-8-8 4zm-131 0c-7 6-13 5 0 1zm159 0q-18 12 0 0m76 0zm108 0zm-108 1c-19 11-83 54-35 22q16-12 35-22m43 0q1 2 0 0m-196 0v3zm-73 1q-1 1 0 0m113 0c-1 2-9 2 0 0m106 0q-9 5 0 0m8 0zm5 1-1 1zm-283 0q-9 3 0 0m40 0c9 1 5 2 0 0m72 1zm-119 0q1 0 0 0m393 0-3 2zm-107 0q0 2 0 0m-119 1q-1 1 0 0m-111 0zm-93 0h-1zm424 0q-3 4 0 0m-306 0c-8 11-13 15 0 0m-121 1zm207 0zm-65 0v2zm288 0-2 3zm-268 0q-2 3 0 0m224 0q1 6 0 0m-346 1h2zm105 0-1 3zm27 1q-1 1 0 0m-45 0c-7 9-11 12-1 1zm15 1-1 10v-1zm164 0q-27 16 0 0m-138 0q2 40 0 0m39 1c-6 25-7 30 0 0m-41 0q0 1 0 0m204 0q2 1 0 0m0 0c-5 3-8 0 0 0m-316 0v1zm173 1q2 5 0 0m143 0-2 1zm56 0q1 1 0 0m-282 0v3zm282 0zm-110 0-5 3zm111 1 2 29zm-261 0zm202 1v2zm21 0 5 9zm37 0zm-370 0 8 3zm369 1-2 4c-3 3 15-12 2-4m-195 1q-13 9 0 0m80 0q-28 18 0 0m-120 0c20 9-22-1 0 0m-26 1q-3 3 0 0m256 2q0 8 0 0m-59 0c-23 14-127 83-103 66zm62 1q-3 2 0 0m-256 0c0 11 0 14 0 0m-94 1q17 5 0 0m216 0c-13 9-24 16 0 0m132 0zm0 1zm-200 1c-4 8-50 21-31 26-8 1-7-9 7-11zm192 1q0 1 0 0m-17 2q9 21 0 0m-306 0q32 12 0 0m74 4c1 8-9 6 0 0m241 2c1 0-1 3 0 0m-298 0q36 14 0 0m297 2q6 15 0 0m-272 3q8 1 0 0m1 1zm84 1c8 13 12 20 0 0m-90 1zm134 0-8 6Zm153 0zm-271 0c2 10 26 21 0 0m193 2c-7 3-12 4 0 0m2 0q-1 1 0 0m78 2c1 34 1 37 0 0m-203 2c13 9-4-1 0 0m39 0-6 6zm-202 2 9 3zm375 1c5 1 0 0 0 0m-174 0q-3 2 0 0m174 1q4 2 0 0m-238 0c1 6 1 11 0 0m240 1zm-5 0q-1 2 0 0m-176 2zm0 1c0 6-8 2 0 0m181 0c5 1-4 0 0 0m-245 1h2zm244 0q-10 2 0 0m-466 1-6 8zm248 1q13 2 0 0m218 1c8 2 3 43 4 30-2-9 4-25-4-30m-387 1q16 7 0 0m140 1c-5 9-8 13 0 0m628 6c-2 2 2 2 0 0m-703 2q-17 24 0 0m-108 5c-4 14-8 16 1 1zm426 2c1 0 0 3 0 0m-471 0q8 8 0 0m235 1q-20 36-42 73 23-36 42-73m-144 1 23 9zm-76 0zm119 1c6-2-19 22 0 0m338 0v1zm-456 1c12 5 15 6 0 0m229 1c8 0-7 3 0 0m144 0-40 26zm-141 4 3 3zm249 1c1 19 1 13 0 0m-245 4q11 17 0 0m-4 7zm4 1 3 2zm-4 0zm-1 0zm9 3 2 3zm4 2q2 4 0 0m80 1q5 5 0 0m91 12-2 2zm68 3q2 30 0 0m-65 0-3 2zm-275 1q30 11 0 0m267 0c-18 13-33 22 0 0m-1 5-4 2zm8 1 7 12c-5-25-23 1-35 6l-40 26zm-254 1c-2 12-14 21 1 1zm-111 3q33 14 0 0zm-2 0c-2 2-6 8 0 0m82 2c27 12 31 13 0 0m264 1c-18 12-41 28 0 0m88 1q-4 12 0 0m-240 4q0 3 0 0m139 1q-24 17 0 0m-139 1q-10 11 0 0m-36 1zm84 0q21 33 0 0m-84 0zm0 0c13 9 18 11 0 0m-260 1-3 4zm255 1c21 12 11 1-1 1zm44 0-2 2zm-204 1q0 2 0 0m202 1 1 2zm-199 1q4 3 0 0m157 1c5 2 2 2 0 0m34 0zm-73 0c-19 25-23 31 0 0m74 1c1 0 27 13 0 0m-170 0q-6 8 0 0m302 0zm-162 2q12 23 0 0m237 1c5 9 3 1 0 0m-501 0zm292 0q10 11 0 0m-289 2q3 4 0 0m294 1v1zm222 1 3 2zm-221 0c2 0-3 0 0 0m246 1zm-39 0zm-93 0q0 2 0 0m0 1c-19 14-6 2 0 0m-115 0q-1 2 0 0m226 0q2 4 0 0m-114 0-6 4zm-105 1c1 2 4 3 0 0m-5 2q2 1 0 0m9 0 4 1zm216 0 1 2zm-212 1c16 4 20 5 0 0m-14 0q-1 0 0 0m227 2v2zm-128 0c3 0-1 0 0 0m2 1q-2 4 0 0m-80 1c24 3-5 2 0 0m170 0-2 3zm-171 1c10 3 1 3 0 0m207 0-1 2zm-162 1q0 1 0 0m161 1q-16 18 0 0m-39 1-2 1zm-161 0h1zm-48 0q1 1 0 0m0 0-1 1zm53 2q27 9 0 0m173 0c-20 10-26 12 0 0m-22 0q-1 0 0 0m-200 1q11 8 0 0m198 0zm-209 0q-4 3 0 0m-180 2c11 1-12 1 0 0m414 0c-3 12-3 15 0 0m-68 1c-18 12-29 18 0 0m-85 3q-2 1 0 0m-256 0-4 5zm474 0-1 6zm-88 1s-4 2 0 0m13 1c-4 0-15 6 0 0m-208 0v1zm192 1-2 1zm-131 1q-3 2 0 0m134 0c3 1 0 1 0 0m-8 0c-3 1-6 2 0 0m-186 2q14 23 0 0m66 0q9 5 0 0m107 0q-23 11 0 0m6 0q-20 11 0 0m-270 1-11 18zm277 0q1 0 0 0m1 0q2 1 0 0m2 2c-2 4-5 4 0 0m-121 1q8 4 0 0m136 0zm-56 0c14 8-19 21 4 7 1-2-2-7-4-7m68 1v3zm-11 1q6 5 0 0m-22 0zm13 0q9 28 0 0m78 1q2 1 0 0m-111 0q-7 5 0 0m-90 1c4 12 5 15 0 0m208 0v4zm-91 0zm84 0v1zm-109 1-2 1zm-2 1h-3 3m20 0-4 4zm-23 0q-16 12 0 0m56 1c-7 10-35 22-8 8 2-3 8-4 8-8m-78 1 2 2zm76 0q1 2 0 0m67 1-2 8zm-486 1-1 2zm481 0v1zm-4 0-2 11zm39 1zm0 0zm-170 0 1 3zm37 0q0 1 0 0m133 1zm-35 0q-4 15 0 0m35 0-1 2zm-1 2v2zm-135 0q-2 3 0 0m-33 1zm-72 0c8 3-2 5 0 0m119 0-1 3zm-14 1q5 3 0 0m-29 0-2 1zm-68 1q1 1 0 0m-5 1q29 21 0 0m114 1v1zm-45 1q-1 0 0 0m8 0q-1 5 0 0m37 0-1 1zm-35 0 1 1zm127 1c-3 18-7 30-1 4zm-93 1zm87 0c-3 8-4 11 0 0m-98 1c3-1-3 1 0 0m9 0zm-30 1zm29 0zm-5 0zm92 0-3 6zm-88 0zm-30 0zm1 1zm123 0q-1 0 0 0m0 0c-2 11-11 37-3 12zm-123 1zm-121 0c24 10 27 11 0 0m158 0-6 3zm-100 3c2 0-1 0 0 0m2 0q12 17 0 0m223 0v2zm-132 0c-10 6-8 3 0 0m-94 1q-4 4 0 0m181 0c-3 13-7 11 0 0m-120 1c-8-4 2 12 2 13 0-4-10-10-2-13m2 0 1 1zm1 2 1 8zm119 0zm-219 2 6 2zm-168 0-1 1zm292 1zm-295 0c-10 8-11 11 0 0m342 1q-1 0 0 0m0 0c0 7-29 18 0 1zm-2 0-8 6zm60 0-2 10zm-105 2-1 1zm-2 3v1zm-514 1c-15 23-23 36 0 0m613 2-1 6zm-101 0q-2 1 0 0m-77 1q2 5 0 0m73 2zm41 0-2 1zm-113 1q8 9 0 0m107 1q-2 1 0 0m-98 0q3 5 0 0m162 0q-1 3 0 0m-166 2 4 5zm171 2v5zm-165 0zm-444 0q0 1 0 0m443 4zm-243 4c4 15-14 28-20 42l-34 57c17-32 40-62 55-94l-2-3zm408 6q0 1 0 0m-1 1v1zm0 3q0 4 0 0m-630 1c-2 20-50 49-23 62-10 11-11 20 6 24l53 29c-14-19-86-23-59-52-24-9 7-30 12-45zm630 1zm2 2q-4 5 0 0m12 3c-4 4-8 8 0 0m-12 3v4zm7 1c-7 8-12 15 0 0m-7 4-1 4zm-482 32c0-1-11 16 0 0m167 8c-2 1 2 1 0 0m177 0 3 2zm6 2h1zm17 1q0 1 0 0m-20 1h1zm20 1-1 1zm-16 1h3zm14 1c-2 1-6 1 0 0m-340 0-6 10zM6 801c-10 3-5 17 0 0m604 4h2zm-500 2q-13 22 0 0M7 816q1 0 0 0m1 1c1 5-4 6 0 0m95 2zm1 1c11 5 14 7 0 0m114 12c-9 15-20 32-4 7zm55 7c-5 3 0 4 0 0m-106 50c-1 3-6-1 0 0"/></svg>