<svg xmlns="http://www.w3.org/2000/svg" width="682.7" height="617.3" viewBox="0 0 682.7 617.3"><path d="M107.3 601.2c-4.4-2.1-8.7-3.6-9.7-3.2q-1.5.4-1-.5c.3-.6-2.5-2.7-6.3-4.7-51.7-27-80-41-81.7-40.3q-1.9.6-1.2-.5c.4-.8-1-1.7-3.3-2.2-3.9-.8-4.1-1.1-4.1-7.2 0-5.2.7-7 4-10.7 2.3-2.4 3.8-5.2 3.4-6.2q-.5-1.6.6-1c1.2.7 8.8-8.6 10.4-12.7a98 98 0 0 1 9.6-14.7c1.8-1.4 60.4-93 64-100 1.5-3 2.4-6 1.8-6.9q-.9-1.5.9-.4 1.9 1.3.9-1.2-.8-2.1.4-1.5c.7.5 2-.8 2.8-2.9 4.3-11.5 12-26.9 20.2-40.4a130 130 0 0 0 10-18c.4.3 3-2.4 5.8-6 2.8-3.5 5.7-6.8 6.5-7.3s5.4.1 10.3 1.3l13.7 3.2 4.7 1 .2-28.1c.2-22 .9-31.5 3.1-44.1 1.6-8.8 3.3-18.4 3.7-21.3s2.2-7.2 3.9-9.5 2.6-4.5 2-5.1q-.6-.8 1.1-.5t1.6-1.6q-.4-1.7.5-1c1.2 1.2 7.2-4.1 7.2-6.4 0-1-1-2-2-2.5-3.3-1.2-8.9-1-8 .4q.4 1.1-1.7.6c-2.7-.7-13 3.9-21.2 9.4-3 2-6.6 3.5-8 3.3-1.2-.3-5.8-5.6-10-11.8-11.9-17.2-14-21.9-17.6-37.7-.5-2-1.5-3.4-2.2-3q-1.1.7-.4-1.4.9-2.3-.6-1.4t-.9-.8c.9-2.2-10.6-20-12-18.7q-1 .8-.2-.6c.5-.9-7.2-13.8-17.8-29.9A477 477 0 0 1 72 77c0-1.7 5-5.9 11-9 2.8-1.6 4.7-3.3 4.3-4q-.5-1.1 1-.6c2.6 1 67-41.4 65.7-43.3q-.3-1 1.7-1c1.3.2 2.1-.6 2-1.5q-.3-1.5 1-1c1.7 1.1 9.5-5.2 8.2-6.7q-.7-.8.7-.1c2 1.1 7.4-5.6 6.5-8-.6-1.5 3.6-1.7 21.6-1.5 21.8.3 21.9.3 5 .7-9.4.2-18 1-18.9 1.8-2 1.6-.8 5.6 1.2 4.3q1.2-.7.6.5c-1 1.6 2.6 6.8 20.2 29 18.9 23.8 27.2 33.4 28.5 33q1-.2.5.9c-1 1.5 2.5 4.5 3.7 3.2q.8-.6.2 1c-1 2.7 6.5 10 8.7 8.6q1.5-.9.8.3c-.4.8 1.6 2.4 4.6 3.8 8.3 3.7 33.2 32 33.2 37.8 0 2.5-5 7.6-11 11.4-2 1.3-3.3 3-2.8 3.8q.7 1.3-.6.4c-1.9-1.1-8.5 3-7.5 4.7q.5 1-1 .5c-1-.3-3.3.6-5 2.2l-3.4 2.7 2.9 4.9c1.5 2.7 3.3 4.6 4 4.2q1-.7.7-1.8-.2-.9.8-.3c1.4.8 4.6-2.4 3.5-3.6q-.5-.6 1.6-.5c1.4.1 2.4-.4 2.2-1.1-.3-2.3 12.3-2.3 20.9 0 4.5 1.1 8.8 1.6 9.6 1.1q1.4-.7.6.6-.7 1.5 4.1 2.3c2.8.5 10.4 2.4 16.9 4.2 12.4 3.5 16.3 3.5 26-.1 4.4-1.7 6.2-1.9 7.6-.7 1 .8 1.5 2.2 1 3q-.7 1.2.6.4c.9-.5 1.2-1.8.8-2.9s-.2-2 .5-2c1.8 0 5.3 5.6 6.4 10q1 3.6 2.8 2.8 1.6-.6 1.3.4c-.4.5 1.4 2.1 4 3.5 2.4 1.3 4.5 3 4.5 3.6 0 2 3.7 1.2 4.5-1 .5-1.2.8-8 .8-15.2q0-13.1 1.7-14.4c1.7-1.3 29.8-8 46.3-11 4.8-.9 19.2-2.1 32-2.7s25.2-1.5 27.4-2a25954 25954 0 0 1 144-29.3c8-1.8 17.5-3.6 21-4q6.1-1 6.3-2.8-.2-3 4.6-1c2.4 1 2.8 5.2.6 6.6s-.7 20 3.4 41.9l6.8 36c1.8 9.8 4 18.5 4.8 19.3q1.6 1.5.5-.5t.4-1c2.5 1.6 2 19-.4 20-1.2.4-1.9 1.5-1.7 2.4q.1 1.6-1.7 1.8-1.7.2-1.6 1.7.2 1.6-1.2 1.3c-.9-.2-2 1.2-2.4 3-.5 1.9-2 3.5-3.5 3.7-2.9.4-23.3 4-51.3 9-29.6 5.3-32.6 5.7-33 4.6-.3-.6-2.4-.3-4.7.6-2.4 1-5 1.5-6 1.1s-2.3 0-2.8.8-3.7 1.6-7.2 1.8c-3.4.2-6.3.7-6.3 1.2s-6.1 1.8-13.6 3a936 936 0 0 0-29 5.6c-8.5 1.8-16.6 3.3-18 3.3-1.5 0-4.7 1.2-7.1 2.7-2.4 1.4-5 2.3-5.7 1.9-1.9-1.2-10 1.8-12.1 4.4q-1.5 1.9-.3 1.2c.8-.5 2.2 0 3 1 1.3 1.5 1 1.8-1.5 1.8a84 84 0 0 0-13 2.6 223 223 0 0 1-22.7 4.3c-7 1-13 2.3-13.5 3.1-1 1.5 2.8 10.5 4 9.7.5-.2 1 2.3 1.2 5.6.3 7 .9 7.8 6 9 2.8.7 3.7.5 3.7-1.1 0-1.2 1.3-2.9 3-3.7a55 55 0 0 0 15.6-15.5c0-1 1.5-2.3 3.4-3s3.3-1.7 3.3-2.1q-.1-.8-1.9-.2c-1 .5-2.1-.3-2.5-1.7-.5-2.2-.2-2.4 2.6-1.3 4.2 1.6 4.5 1.6 4.5-.1q-.1-1.2-1.4-.6t-1.3-.6c0-.8 2-1.4 4.3-1.4h4.2l-4.3 4.4c-2.3 2.4-3.8 5-3.2 5.5q.8 1-.4.4c-.8-.5-8 5.6-15.8 13.6L434.4 317l1 5.8c.4 3.2 2 10 3.4 15.2 2.2 8.4 3.6 16.7 3.8 23.8 0 2.1.4 2.2 2.1.8 1.1-.9 2.3-1.4 2.5-1.1s1 12.2 1.4 26.5c1 28 1.6 34.7 3.3 34.7.7 0 1.9-3 2.8-6.8s2.2-6.5 3-6.2 2.3 3 3.3 6c1 3.1 2.4 5.4 3 5q1-.4.8 1.6 0 2.1 1.5 2 1.4 0 .9 1.6c-.8 2 6.3 7.7 9 7.1q1.6-.2 1.8 1a74.1 74.1 0 0 1 10 32.4q0 4-5.4 10c-3 3.4-5 6.8-4.6 7.6q.7 1.3-.4 1c-.7-.2-7.7 6.4-15.5 14.7-7.9 8.2-18.5 17.9-23.5 21.4-5 3.6-8.8 7-8.2 7.6q.7.9-.8 0c-2-1-11.3 4.3-10.2 6q.4 1.1-1.5.4-2.2-.7-1.5.4c1.4 2.3-6.9 2.4-28.1.6-7.8-.7-14.8-.9-15.5-.5q-1 .7-.4-.5c.4-.7-1.7-2.5-4.9-4-3-1.6-9-6-13.2-9.7-4.2-3.8-8.2-6.5-9-6q-1.2.5-1-1 .2-1.6-1.4-1.4t-1-.7c.3-.7-4-5.6-9.6-11.1-19-18.5-25.6-24-27.2-23q-1.4.7-.6-.5c1-1.6-16-14.4-19.2-14.4-1 0-1.7-.4-1.3-1 .8-1.1-10.8-13-12-12.3-.6.3-2.1-.7-3.5-2.3q-2.1-2.4-.8-1.9 1.5.9 1.6-.2c0-1.4-5.2-6.4-6.4-6q-.9 0-1.6-.6-.4-.6 1 .2c2.3 1.3 2.1-1.2-.2-3.1-1-.9-2.3-3.5-2.8-5.9-1.1-5.2-3.6-8.1-8.8-10.3-3.6-1.5-4.4-1.3-9.6 2.9-9.4 7.5-16.9 14.8-16.2 16q.5 1-.9 2-1.6 1-.4-1 1.6-2.3-1.1 0c-1.3 1-2.3 2.8-2.3 3.8 0 1.1-1.5 4-3.4 6.2-6.4 7.8-19.4 30.2-18.5 31.7q.9 1.5-.5.7c-1.8-1.1-27.3 41.4-26 43.5q.6 1.1-.5.6c-1.7-1-12.8 17.4-11.6 19.3q.7 1.3-.4.7c-1.4-.9-18.2 26-18.2 29q0 1.8-.7 1.4c-.3-.4-4.4 5.2-9.1 12.3-8.3 12.8-11.6 16.4-14.4 16.2-.7 0-5-1.8-9.4-4m154.5-286q.7-1.8-.5-1.2-1.2 1-1.3 2c0 2 1 1.6 1.8-.7m24.2-1.9q.7-1.2-.6-1.3-1.3.1-1.4 1.3 0 1.3.6 1.4.6-.1 1.4-1.4m72.8-45q2.6-3-.5-.5-3.4 2.8-1.8 2.9.6-.2 2.3-2.4m-10.8-2.9c0-.7 1.4-1.5 3-1.9q3-.6-.9-.4c-3.5.2-6.9 3.6-3.5 3.6q1.3-.1 1.4-1.3m.7-9.1c-.8-1-4.6 1.4-4 2.5.4.6 1.6.4 2.6-.5q1.6-1.5 1.4-2m-139.4-63.4-6.7.2c-6.4.5-6.7.6-4.6 3 2.1 2.3 2.4 2.3 6.8-.3 2.5-1.5 4.5-2.8 4.5-3m6.7-5.8c2.2-1.3 4-3 4-3.8s2-2 4.3-2.7c2.5-.7 4.2-2 4-3q-.2-1.5 1-1c1.6 1 17.6-8.5 16.7-10-.4-.5.4-.9 1.6-.8 3.2.3 3.7-3.6 1-7.7-1.8-2.8-2.7-3.1-4.8-2-1.4.7-2.1 2-1.6 2.8q.7 1.3-.4.7c-1.8-1-8.7 3.6-7.5 5q.8 1-.6.2c-2-1.2-12.6 5.7-11.5 7.6q.7 1.3-.6.4c-2-1.2-8.5 3-7.4 4.9q.7 1.3-.7.4c-1.8-1.1-12.6 6.4-11.2 7.8q.7.7-1.4 0c-3-1.2-7 2-4.6 3.7 2.6 1.8 15 .2 19.7-2.5m-10-4.4q1-1.3 2-1.4 1.3.1 1.3 1.4-.2 1.2-2 1.3-2-.1-1.3-1.3" style="fill:currentColor"/></svg>