<?xml version="1.0" encoding="UTF-8" standalone="no"?>
<!-- Created with Inkscape (http://www.inkscape.org/) -->

<svg
   version="1.1"
   id="svg1"
   width="682.66669"
   height="617.33331"
   viewBox="0 0 682.66669 617.33331"
   xmlns="http://www.w3.org/2000/svg"
   xmlns:svg="http://www.w3.org/2000/svg">
  <defs
     id="defs1" />
  <g
     id="g1">
    <path
       style="fill:currentColor"
       d="m 107.33334,601.22796 c -4.4,-2.1455 -8.781166,-3.60637 -9.735921,-3.24638 -0.954754,0.35999 -1.428585,0.15725 -1.052957,-0.45053 0.375628,-0.60778 -2.443209,-2.73474 -6.264083,-4.72659 C 38.630767,565.87922 10.229847,551.8823 8.5521836,552.52608 7.3883365,552.97269 6.878472,552.73596 7.3524508,551.96905 7.8058074,551.2355 6.33697,550.26738 4.0883677,549.81766 0.21188838,549.04236 0,548.67041 0,542.64099 c 0,-5.24693 0.71049731,-7.11958 4.0627609,-10.70819 2.2345184,-2.39206 3.7413911,-5.18668 3.3486059,-6.21026 -0.3927852,-1.02358 -0.1413455,-1.50704 0.5587548,-1.07436 1.2221394,0.75533 8.8348784,-8.5096 10.3926794,-12.6482 0.841309,-2.2351 8.326352,-13.62874 9.635253,-14.66666 1.848569,-1.46587 60.405955,-92.95127 63.980717,-99.95838 1.533814,-3.00653 2.373356,-6.13854 1.865648,-6.96003 -0.604113,-0.97747 -0.312863,-1.11646 0.842824,-0.40221 1.292951,0.79909 1.530776,0.4786 0.887951,-1.19657 -0.522416,-1.36139 -0.343181,-1.95745 0.442578,-1.47183 0.726307,0.44888 1.957674,-0.86995 2.736373,-2.93075 4.357465,-11.53186 12.063605,-26.87995 20.291285,-40.41356 5.12699,-8.43333 9.33918,-16.08333 9.36041,-17 0.0212,-0.91667 0.30654,-1.39873 0.63402,-1.07126 0.32747,0.32748 2.90003,-2.32015 5.71678,-5.88361 2.81676,-3.56347 5.7403,-6.86154 6.49676,-7.32906 0.75647,-0.46752 5.43391,0.10654 10.39433,1.2757 4.96042,1.16915 11.11894,2.59621 13.68561,3.17124 l 4.66667,1.04552 0.24368,-28.10427 c 0.19119,-22.05027 0.85968,-31.55085 3.10333,-44.10426 1.57281,-8.8 3.20631,-18.4 3.62999,-21.33333 0.42368,-2.93333 2.17431,-7.1862 3.89029,-9.45082 1.71597,-2.26462 2.67282,-4.56462 2.12633,-5.11112 -0.5465,-0.54649 -0.0936,-0.79362 1.00638,-0.54917 1.21212,0.26936 1.82491,-0.34344 1.55555,-1.55556 -0.24444,-1.1 0.011,-1.54451 0.56775,-0.9878 1.21744,1.21743 7.21003,-4.13124 7.21003,-6.4353 0,-0.89371 -0.94907,-1.98912 -2.10905,-2.43424 -3.23314,-1.24068 -8.80874,-0.961 -7.9678,0.39967 0.41096,0.66494 -0.319,0.93017 -1.62213,0.58939 -2.69823,-0.7056 -12.96669,3.82527 -21.20807,9.35787 -3.06554,2.05796 -6.64193,3.53603 -7.94753,3.28459 -1.30561,-0.25144 -5.8737,-5.55349 -10.15132,-11.78233 -11.81869,-17.20979 -13.99473,-21.88154 -17.56615,-37.71304 -0.46171,-2.04666 -1.415,-3.3655 -2.11844,-2.93075 -0.7384,0.45635 -0.90788,-0.17659 -0.40099,-1.49753 0.59168,-1.54189 0.37429,-1.97668 -0.66667,-1.33333 -0.94786,0.58581 -1.28566,0.27975 -0.87432,-0.79219 0.86733,-2.26022 -10.55274,-20.0627 -12.01728,-18.73346 -0.61112,0.55465 -0.70126,0.29363 -0.20031,-0.58004 0.51865,-0.90456 -7.13927,-13.7728 -17.786236,-29.88767 C 80.413671,90.959274 72.000002,77.670271 72.000002,76.992709 c 0,-1.725014 5.076314,-5.894702 11.047094,-9.074091 2.775901,-1.478144 4.694738,-3.257656 4.264083,-3.954471 -0.430656,-0.696816 -0.0018,-0.97173 0.952907,-0.610921 2.60092,0.982908 66.967334,-41.360762 65.783644,-43.276003 -0.37713,-0.610213 0.35785,-1.02722 1.63329,-0.926684 1.28257,0.101099 2.15525,-0.606376 1.95262,-1.582979 -0.20151,-0.971175 0.26078,-1.378174 1.02729,-0.904442 1.72262,1.064638 9.54674,-5.304926 8.26514,-6.7285955 -0.50933,-0.565798 -0.22411,-0.6268117 0.63384,-0.1355859 1.95334,1.1184094 7.44967,-5.6488103 6.53144,-8.0416802 -0.54409,-1.41787707 3.63084,-1.70129189 21.61717,-1.46748038 21.76628,0.2829487 21.88514,0.2996378 5.04455,0.70834637 -9.48582,0.23021371 -18.00015,1.04368231 -18.92075,1.80770811 -1.96231,1.6285725 -0.87953,5.5867388 1.18008,4.3138332 0.76979,-0.475761 1.01784,-0.2472704 0.55121,0.5077568 -0.98027,1.5860971 2.63328,6.7590625 20.24595,28.9830395 18.8428,23.776169 27.1845,33.433351 28.52483,33.023169 0.65844,-0.201503 0.85917,0.180513 0.44607,0.848924 -0.95382,1.543307 2.4749,4.484314 3.74603,3.213184 0.52128,-0.521285 0.60064,-0.04313 0.17634,1.062573 -1.00705,2.624329 6.46487,9.913462 8.72817,8.514661 0.97866,-0.604842 1.3081,-0.468857 0.81135,0.334901 -0.45998,0.744277 1.57576,2.440935 4.52388,3.770353 8.32846,3.755609 33.23378,32.111145 33.23378,37.837765 0,2.43512 -4.98089,7.61334 -10.98855,11.42391 -2.01037,1.27515 -3.26767,2.94553 -2.79399,3.71195 0.49371,0.79885 0.22041,0.99746 -0.64046,0.46541 -1.83268,-1.13266 -8.51005,3.00636 -7.4963,4.64664 0.39845,0.64472 -0.0567,0.89687 -1.01145,0.56033 -0.95476,-0.33653 -3.22076,0.6257 -5.03556,2.1383 l -3.29964,2.75018 2.82841,4.87698 c 1.55563,2.68233 3.34047,4.57697 3.96631,4.2103 0.62584,-0.36666 0.97303,-1.16126 0.77153,-1.76577 -0.20151,-0.60451 0.18051,-0.76111 0.84892,-0.34801 1.39095,0.85965 4.54707,-2.41215 3.41699,-3.54223 -0.4092,-0.40919 0.34601,-0.65399 1.67823,-0.54399 1.33222,0.11 2.32186,-0.40108 2.1992,-1.13575 -0.37416,-2.24085 12.2092,-2.24692 20.84152,-0.0101 4.4794,1.16073 8.81542,1.69567 9.63561,1.18877 0.88241,-0.54536 1.11983,-0.32068 0.58152,0.55033 -0.57526,0.93079 0.9422,1.79447 4.12732,2.34912 2.77038,0.48243 10.34338,2.37182 16.82889,4.19863 12.39483,3.49134 16.33412,3.46465 26.01943,-0.17629 4.42091,-1.66192 6.25166,-1.81909 7.65199,-0.65692 1.01239,0.84021 1.45462,2.15238 0.98272,2.91593 -0.48623,0.78673 -0.21623,0.99164 0.62312,0.47289 0.81461,-0.50346 1.14312,-1.79616 0.73002,-2.87268 -0.41309,-1.07651 -0.1559,-1.9573 0.57156,-1.9573 1.74875,0 5.28303,5.48932 6.40024,9.94065 0.58847,2.34465 1.53877,3.30333 2.79618,2.82082 1.04761,-0.40201 1.61028,-0.25447 1.25038,0.32785 -0.3599,0.58233 1.40894,2.16994 3.93075,3.52802 2.52181,1.35809 4.58511,2.97477 4.58511,3.59262 0,1.99501 3.68862,1.19134 4.52402,-0.98568 0.44512,-1.15997 0.80931,-7.98651 0.80931,-15.17007 0,-8.85988 0.5361,-13.48323 1.66667,-14.37362 1.65998,-1.30733 29.84281,-8.02828 46.33334,-11.04943 4.76666,-0.87327 19.16666,-2.09716 32,-2.71974 12.83333,-0.62258 25.13333,-1.50444 27.33333,-1.95968 19.66032,-4.06834 70.54524,-14.38126 112,-22.69921 9.53334,-1.91288 23.93334,-4.90259 32.00001,-6.6438 8.06666,-1.74121 17.51666,-3.558612 21,-4.038673 4.09052,-0.563741 6.33333,-1.52748 6.33333,-2.721445 0,-2.008128 1.27513,-2.2989 4.55762,-1.03929 2.4372,0.935243 2.82393,5.258148 0.59371,6.636498 -2.17088,1.34168 -0.61958,19.98707 3.48505,41.88752 1.85548,9.89999 4.88504,26.08369 6.73237,35.96375 1.84732,9.88007 4.0331,18.58007 4.85728,19.33334 1.07242,0.98014 1.19475,0.83708 0.43023,-0.50311 -0.71595,-1.25505 -0.5606,-1.55891 0.47106,-0.92131 2.44426,1.51063 2.02983,18.98714 -0.47302,19.94757 -1.1068,0.42472 -1.8568,1.51164 -1.66667,2.41538 0.19014,0.90374 -0.5543,1.69771 -1.6543,1.76437 -1.1,0.0667 -1.85,0.84394 -1.66666,1.72728 0.18333,0.88333 -0.36355,1.45606 -1.2153,1.27272 -0.85175,-0.18333 -1.92806,1.16352 -2.3918,2.993 -0.48409,1.9098 -1.95388,3.48284 -3.45136,3.69384 -2.86319,0.40343 -23.35508,4.0021 -51.27488,9.0046 -29.62234,5.30756 -32.6487,5.72797 -33.07762,4.59501 -0.22603,-0.59703 -2.32603,-0.30866 -4.66667,0.64082 -2.34064,0.94948 -5.0751,1.43114 -6.07658,1.07035 -1.00148,-0.36079 -2.22782,0.002 -2.7252,0.80726 -0.49739,0.80478 -3.72503,1.62791 -7.17255,1.82918 -3.44752,0.20127 -6.27118,0.7155 -6.2748,1.14273 -0.004,0.42724 -6.15658,1.82706 -13.67325,3.11072 -7.51666,1.28366 -20.56666,3.78658 -29,5.56204 -8.43333,1.77546 -16.53333,3.22788 -18,3.2276 -1.46667,-2.8e-4 -4.65274,1.21036 -7.08016,2.69032 -2.42742,1.47996 -4.98915,2.33505 -5.69273,1.90021 -1.84954,-1.14308 -10.04022,1.82343 -12.12045,4.3898 -0.97533,1.20326 -1.09131,1.77917 -0.25774,1.27981 0.83358,-0.49936 2.2055,-0.0766 3.04872,0.93938 1.23056,1.48273 0.93145,1.84609 -1.51559,1.84116 -1.67679,-0.003 -7.54872,1.17734 -13.04872,2.62382 -5.5,1.44648 -15.7,3.37915 -22.66666,4.29482 -6.96667,0.91567 -13.06128,2.29285 -13.54359,3.0604 -0.95503,1.51986 2.8242,10.48553 4.09664,9.71867 0.42915,-0.25864 0.90907,2.26585 1.06648,5.60997 0.32392,6.88159 0.90977,7.7559 6.04713,9.02468 2.82996,0.69892 3.66667,0.4269 3.66667,-1.19207 0,-1.1537 1.35,-2.81378 3,-3.68908 4.4672,-2.36978 15.66667,-13.42285 15.66667,-15.46187 0,-0.97524 1.5,-2.34347 3.33333,-3.0405 1.83333,-0.69703 3.33333,-1.64638 3.33333,-2.10965 0,-0.46328 -0.84087,-0.51965 -1.86861,-0.12527 -1.09808,0.42137 -2.1366,-0.30768 -2.51848,-1.768 -0.56173,-2.14805 -0.20613,-2.31636 2.62208,-1.24107 4.12429,1.56805 4.43168,1.55639 4.43168,-0.16804 0,-0.77661 -0.6,-1.0412 -1.33333,-0.58797 -0.73334,0.45322 -1.33334,0.18863 -1.33334,-0.58798 0,-0.77661 1.9177,-1.41202 4.26156,-1.41202 h 4.26156 l -4.28501,4.421 c -2.35675,2.43155 -3.82445,4.92774 -3.26155,5.5471 0.56289,0.61935 0.38177,0.76144 -0.4025,0.31575 -0.78427,-0.44569 -7.89962,5.68347 -15.81189,13.62035 l -14.38595,14.43069 0.94728,5.83255 c 0.521,3.20791 2.07767,10.03256 3.45926,15.16589 2.25504,8.37867 3.5898,16.73278 3.80737,23.82992 0.0639,2.08381 0.41255,2.21774 2.10876,0.81 1.11772,-0.92762 2.26297,-1.45109 2.545,-1.16326 0.28203,0.28784 0.8934,12.22334 1.3586,26.52334 0.9117,28.02524 1.54869,34.66666 3.32494,34.66666 0.62696,0 1.8663,-3.02782 2.75407,-6.7285 0.88778,-3.70068 2.26013,-6.51318 3.04966,-6.25 0.78953,0.26318 2.27426,2.99474 3.29939,6.07014 1.02513,3.07541 2.34489,5.29436 2.93279,4.93102 0.58791,-0.36334 0.98666,0.38292 0.88612,1.65836 -0.10053,1.27544 0.54562,2.17618 1.43589,2.00164 0.89028,-0.17453 1.30217,0.50748 0.91533,1.51558 -0.791,2.06131 6.32334,7.73368 8.9852,7.16405 0.9311,-0.19926 1.74871,0.23771 1.81691,0.97105 0.0682,0.73333 1.42632,3.41058 3.01805,5.94944 3.02911,4.83153 6.97916,19.80695 6.97916,26.45938 0,2.64184 -1.73389,5.85221 -5.4263,10.04701 -2.98447,3.39054 -5.03987,6.78987 -4.56756,7.55409 0.47231,0.76421 0.29369,1.22461 -0.39693,1.02311 -0.69062,-0.2015 -7.68844,6.38024 -15.55072,14.62609 -7.86228,8.24585 -18.43116,17.90651 -23.48642,21.46813 -5.05525,3.56161 -8.75203,6.9612 -8.21505,7.55464 0.53697,0.59343 0.21537,0.6406 -0.71467,0.10482 -2.02646,-1.16742 -11.31539,4.25159 -10.24807,5.97856 0.40932,0.6623 -0.28537,0.80909 -1.54375,0.3262 -1.31614,-0.50505 -1.95348,-0.33675 -1.50048,0.39622 1.40021,2.26559 -6.84772,2.44226 -28.05378,0.6009 -7.80514,-0.67773 -14.75752,-0.88222 -15.44973,-0.45441 -0.69221,0.42781 -0.89545,0.19031 -0.45165,-0.52777 0.4438,-0.71809 -1.74205,-2.544 -4.85745,-4.05757 -3.11541,-1.51358 -9.06963,-5.86418 -13.2316,-9.66799 -4.16198,-3.80382 -8.19829,-6.52602 -8.96957,-6.04934 -0.77129,0.47668 -1.23747,0.0721 -1.03597,-0.89908 0.2015,-0.97117 -0.42823,-1.6009 -1.39941,-1.3994 -0.97117,0.2015 -1.45127,-0.1425 -1.06689,-0.76445 0.38439,-0.62195 -3.92101,-5.61316 -9.56756,-11.09158 -19.009,-18.44302 -25.57327,-24.01743 -27.14117,-23.04842 -0.90527,0.55949 -1.1767,0.36665 -0.6602,-0.46906 0.98816,-1.59888 -16.00495,-14.3252 -19.13174,-14.32795 -1.1,-9.7e-4 -1.7,-0.42542 -1.33333,-0.94322 0.84705,-1.1962 -10.78658,-13.13829 -12.04268,-12.36198 -0.51384,0.31757 -2.06445,-0.71158 -3.44579,-2.28701 -1.38134,-1.57543 -1.76153,-2.42587 -0.84487,-1.88987 0.91667,0.536 1.66667,0.43213 1.66667,-0.23082 0,-1.45233 -5.258,-6.37715 -6.47332,-6.06312 -0.473,0.12222 -1.16001,-0.12397 -1.52668,-0.5471 -0.36667,-0.42313 0.0833,-0.33772 1,0.1898 2.30128,1.32433 2.10328,-1.17604 -0.24763,-3.12713 -1.05286,-0.87379 -2.31964,-3.49726 -2.81506,-5.82992 -1.11145,-5.23323 -3.6073,-8.17151 -8.75078,-10.30201 -3.64997,-1.51187 -4.38589,-1.29404 -9.57027,2.83272 -9.45859,7.52902 -16.91371,14.87412 -16.22612,15.98667 0.35935,0.58143 -0.0491,1.49132 -0.90774,2.02196 -1.06762,0.65983 -1.20432,0.37284 -0.43247,-0.90787 0.96123,-1.59492 0.79402,-1.60126 -1.12732,-0.0428 -1.24077,1.00646 -2.25594,2.72411 -2.25594,3.81701 0,1.09289 -1.54391,3.86942 -3.4309,6.17007 -6.3736,7.77078 -19.3962,30.17805 -18.43896,31.7269 0.56762,0.91844 0.36332,1.17309 -0.50874,0.63413 -1.81232,-1.12007 -27.35196,41.43388 -26.09147,43.4734 0.48515,0.78499 0.29274,1.06301 -0.42758,0.61784 -1.70577,-1.05423 -12.78308,17.42327 -11.5964,19.34336 0.49834,0.80633 0.33401,1.1125 -0.36517,0.68039 -1.40713,-0.86966 -18.2519,25.97323 -18.2519,29.08522 0,1.0753 -0.29491,1.66017 -0.65536,1.29972 -0.36045,-0.36045 -4.47126,5.18955 -9.13513,12.33333 -8.34655,12.78466 -11.56504,16.42169 -14.35324,16.21981 -0.7765,-0.0562 -5.01182,-1.85764 -9.41182,-4.00313 z M 261.84208,315.26407 c 0.45533,-1.18656 0.2318,-1.72176 -0.52401,-1.25464 -0.72493,0.44803 -1.31806,1.37919 -1.31806,2.06925 0,1.91791 0.95569,1.49528 1.84207,-0.81461 z m 24.15793,-1.93075 c 0.45322,-0.73333 0.18863,-1.33333 -0.58798,-1.33333 -0.77661,0 -1.41202,0.6 -1.41202,1.33333 0,0.73334 0.26459,1.33334 0.58798,1.33334 0.32338,0 0.95879,-0.6 1.41202,-1.33334 z m 72.83674,-45 c 1.6585,-2.11474 1.61133,-2.1619 -0.50341,-0.5034 -2.22099,1.74182 -2.9273,2.83674 -1.82992,2.83674 0.27687,0 1.32687,-1.05 2.33333,-2.33334 z m -10.83674,-2.90726 c 0,-0.68233 1.35,-1.52751 3,-1.87817 2.09285,-0.44479 1.82156,-0.57362 -0.89717,-0.42607 -3.55194,0.19277 -6.90631,3.54484 -3.54727,3.54484 0.79444,0 1.44444,-0.55827 1.44444,-1.2406 z m 0.72303,-9.12412 c -0.85653,-0.91516 -4.62499,1.44466 -3.97822,2.49116 0.40122,0.64919 1.53726,0.43632 2.52453,-0.47305 0.98727,-0.90937 1.64143,-1.81751 1.45369,-2.01811 z M 209.33417,192.86829 c 4.5e-4,-0.1109 -3.0378,0.009 -6.75167,0.26612 -6.4318,0.44554 -6.64834,0.58285 -4.55931,2.8912 2.11691,2.33916 2.35173,2.32991 6.75167,-0.26612 2.50716,-1.47926 4.55885,-2.7803 4.55931,-2.8912 z m 6.62285,-5.72167 c 2.22364,-1.31353 4.04299,-3.0348 4.04299,-3.82504 0,-0.79024 1.95,-2.01716 4.33333,-2.72648 2.42998,-0.72322 4.17241,-2.05915 3.96696,-3.04151 -0.2015,-0.96349 0.2496,-1.37112 1.00244,-0.90584 1.63683,1.01161 17.58251,-8.54874 16.68379,-10.00289 -0.34347,-0.55575 0.39606,-0.9282 1.64341,-0.82766 3.14286,0.25332 3.64106,-3.65538 0.98298,-7.71212 -1.81669,-2.77262 -2.6842,-3.1373 -4.78655,-2.01216 -1.41224,0.75581 -2.15821,2.0368 -1.6577,2.84665 0.50052,0.80985 0.32989,1.1139 -0.37916,0.67568 -1.74804,-1.08034 -8.7389,3.63103 -7.46691,5.03221 0.55591,0.61237 0.28176,0.69479 -0.60922,0.18314 -2.08243,-1.19582 -12.61221,5.71504 -11.48549,7.53811 0.48363,0.78254 0.20274,0.97611 -0.65088,0.44855 -1.97828,-1.22265 -8.46996,3.07123 -7.35954,4.86792 0.50673,0.81992 0.21647,0.99502 -0.7052,0.4254 -1.82334,-1.12688 -12.61459,6.34264 -11.20283,7.7544 0.51844,0.51844 -0.0967,0.54378 -1.36705,0.0563 -3.09555,-1.18787 -7.1357,2.0073 -4.67216,3.69499 2.62278,1.7968 15.11776,0.22933 19.68679,-2.46967 z m -9.95701,-4.47996 c 0.45322,-0.73333 1.38863,-1.33333 2.07869,-1.33333 0.69005,0 1.25464,0.6 1.25464,1.33333 0,0.73333 -0.93541,1.33333 -2.07869,1.33333 -1.14328,0 -1.70787,-0.6 -1.25464,-1.33333 z m 141.55556,-16.66667 c 0,-1.1 -0.65,-2.04217 -1.44445,-2.09371 -0.79444,-0.0515 -0.24444,-0.60937 1.22222,-1.23962 1.96127,-0.84278 2.10823,-1.17069 0.55556,-1.23962 -2.92041,-0.12964 -3.71426,0.95272 -2.9217,3.98349 0.79904,3.05554 2.58837,3.46303 2.58837,0.58946 z m 5.11111,-0.66666 c -0.45323,-0.73334 -1.38864,-1.33334 -2.07869,-1.33334 -0.69006,0 -1.25465,0.6 -1.25465,1.33334 0,0.73333 0.93541,1.33333 2.07869,1.33333 1.14328,0 1.70787,-0.6 1.25465,-1.33333 z M 180.00001,559.99998 c 0,-0.73333 0.6,-1.33333 1.33333,-1.33333 0.73333,0 1.33333,0.6 1.33333,1.33333 0,0.73333 -0.6,1.33333 -1.33333,1.33333 -0.73333,0 -1.33333,-0.6 -1.33333,-1.33333 z m 65.33333,-33.33333 c 0,-0.73333 0.9,-1.33333 2,-1.33333 1.1,0 2,0.6 2,1.33333 0,0.73333 -0.9,1.33333 -2,1.33333 -1.1,0 -2,-0.6 -2,-1.33333 z m 433.99262,-73.34151 c -2.70731,-2.99153 -2.17171,-4.4885 1.14989,-3.21389 1.20496,0.46239 2.19084,1.97651 2.19084,3.36472 0,3.16962 -0.35008,3.15381 -3.34073,-0.15083 z M 254.4966,424.33332 c -1.65849,-2.11474 -1.61133,-2.1619 0.50341,-0.50341 1.28333,1.00646 2.33333,2.05646 2.33333,2.33334 0,1.09737 -1.09491,0.39107 -2.83674,-1.82993 z M 452.8889,291.1111 c -1.53418,-1.53418 -0.97099,-3.11111 1.11111,-3.11111 1.1,0 2,0.9 2,2 0,2.0821 -1.57693,2.64529 -3.11111,1.11111 z m -25.63437,-2.93554 c 1.0026,-1.00344 2.4805,-1.41803 3.2842,-0.92131 2.5492,1.57549 1.58018,3.13727 -1.82292,2.93802 -2.77806,-0.16265 -3.00326,-0.47345 -1.46128,-2.01671 z"
       id="path1" />
  </g>
</svg>
