<svg xmlns="http://www.w3.org/2000/svg" width="1024" height="926" baseProfile="tiny" viewBox="0 0 1024 926"><path fill="#735b2a" d="M279.9 0q4.6.7 9.4.8l.2.1V1l-15.3.6-.4.2-3.7 3.4-.2.3c-1.2 3.2.7 4.4 1.6 7q-1-.6-1.9-1.6l-1-.7q-2-.6-2.3-2.5a.3.3 0 0 0-.5 0c-2.3 2.9-.7 6.3-5 8.1q-1.7.7-2.8-.9a.4.4 0 0 0-.6 0q-2.5 2.3-5.8 3.8 7.7-6.6 10.8-11.6.7-1 .7-4.9a1 1 0 0 0-.6-.9l-.2-.1a.4.4 0 0 1-.1-.7l1-.5z"/><path fill="#8e7b2d" d="m271.5 12.5.5.7q0 1.8 1.7 2.6 31 40.5 63.3 80 4.8 6 9.8 11.7c3.8 4.4 9.3 11.2 14.5 16.3q.2.7 1 1 2.2 2 3 2.4c4.4 2.9 15.2 6.8 21.7 12.3q4.7 4 11.3 11.7 11.7 13.6 21.8 27.5 3.4 4.7 5.3 9.5a3 3 0 0 1-.6 3q-.8 1-2.5 2.3-12.9 10.2-26.2 18.5-10.8 3.9-19.8 11.7a1 1 0 0 1-1 0q-1-1.2-.5-2.6l.5-.6 5.8-4.7 21.6-14c2.2-1.4 6.9-3.8 7-6.3a1 .8-60.8 0 0 0-.4l-2.3-4.5a3 3 59.2 0 1 1-3.6l5.2-3.7a1 1 53.1 0 0 .2-1.6q-25.2-31-31.2-38.1-1.8-2.2-3.1-2a.7.5-60.6 0 0-.2.1l-5.6 3.7a2 2-41.7 0 1-2.4-.1q-2-1.7-3.6-3.7-6.3-7.8-12.9-16.6l-3.2-3.2-.2-.4q-.1-.6-.4-.9l-10.8-13.3a2 2 52.3 0 0-2.3-.3l-2.5 1.8a3 3 39.8 0 1-3 .3q-1.2-.6-2.8-2.2-3.2-3.5-7.2-9.1a2 1.9-42.4 0 1 0-2.4l2.8-3.1a2 2 48.4 0 0 .1-2.1q-4.1-6.2-10.3-13.8-8.7-10.9-15.3-18.8l-12.4-15.8q-6.9-9-12.7-15.6a3 3 0 0 0-3.6-.7q-3.8 1.8-8 5.6a1.4 1.4-42.8 0 1-2 0c-3-3.3-4.9-7.2-9.6-3.8l-6.4 4.6q-3.2 1.8-17.2 11.3c-14.3 9.6-25.7 17-39.2 26.3-6.4 4.4-13.7 8.6-20.2 13.1-11 7.8-24 16-37.7 25.2-3.2 2.2-1.2 5.6.6 7.8a2 2 0 0 1-.6 3q-4.1 2.4-6.7 4.3-2 1.5-.7 3.4 5.4 7.6 6.4 9.3l33.6 51.7q2 3.1 4.8 6.4a2.9 2.8 75.6 0 0 1.5 1c3.2.6 4.7 1.2 6.8 4q3.4 4.3 6 9.2a2.3 2-32.8 0 1-.7 2.7q-2 1.6-.3 3.9c2.9 4 5.4 8.8 8.4 13.5l17.6 27.2a1.2 1.2 0 0 1-.3 1.6l-9.5 6.4a2.3 2.3 56.8 0 0-.7 3.1l27 41.7a2 2-33 0 0 2.3.5l10.6-6.9a1.5 1.4-34.6 0 1 1.9.4c1.6 2 3.4 5 6 5l.9-.2 31.8-21.1.6-.2 4.1-.1a1 1 7.8 0 0 .9-.6q.7-2.2 3.5-2.6a1 1 0 0 0 .7-.6l.5-1.8a1.8 1.7 70.3 0 1 .2-.4q1.4-2.4 4.1-3.9 3.3-1.6 4.4-2.5 3.7-2.8 11.7-8.2l2.8-1.9c2.7-1.3 4.8-3.2 7.2-4.8q21.5-13.8 25.2-16.5 2.5-1.9 4.7-3.2 8.3-4.7 15.8-10.5.7-.6 1.5-.8a1 1 0 0 1 .9 1.6c-.9 1-2 2.3-3 3L329 254.5l-7.2 5q-3.4 2.6-7.3 5-8.6 5-16.3 11.6-5.5 3-8.5 7.6-.6 1 .5 2.5-.2 2.8 3 3.8l1.4 3.1-3.7-2.7a.5.5 0 0 0-.7.5q1.8 5.5 5.8 9.4a.5.5 0 0 0 .8-.5q-.3-1.8 0-3.9l4.2 4a1 1 0 0 0 .9-.1l2.5-3.4.5-.5c4-2 8.4-3.5 11.8-7.4a.9.9 0 0 0-.7-1.5h-2.5v-.4q.3-.2 1.9-.2l1-.3c4-2.6 14.1-5.5 16-12.2a1 1 5.4 0 1 1-.7q5.4-.6 9.5-3.3l12.3-7.8q3.1-.3 6.2-2.3 2.4-1.6 4-2 5-1.4 10-4a4 3.9-64.7 0 1 .8-.3l19-5 .8-.1q4.5-.3 7.6-1.2a1.4 1.4 0 0 0 .1-2.7q-.7-.3-1.2-1l-.4-1q-.2-5.3-3-8.3 4.9-3.7 11-6.2a11 11 0 0 1 6.3-1q4.2.6 8.8 1.6l-2.1 4.7-.1.1-6.4 7.5a1 .8-79.8 0 1-.1.1q-2.1 1.5-3.3 3.7a1 1 0 0 0 1 1.5q6.9-.9 12.1-.8 1.9 0 2.2.8.4 1 2 1.4 7.9 1.6 13.7 2.4c1.8.3 3.1 1.2 5.2 1.2a2.7 2.6 53 0 1 .9 0q4.7 1.6 5.5 2 7.2 3.9 11.6 6 1.4.8 3 2 .8.6 3.1 1.5 1.8.7 4.6 2.5c1.7 1.1 5.2 3.4 7.3 5.4l7.4 7.3a1.2 1.2 0 0 0 1.7-.1l.1-.4a.1.1 0 0 1 .2 0l4.2 3.5a5.2 5-88.6 0 1 .8 1l11.4 15.8a.4.4 0 0 0 .8 0v-.4a.5.5 0 0 1 .8.2q1.2 3 2.6 5.6 2.5 4.6 2.4 10.3 0 4.8.8 9l.1 2.1-1.4 17v.1c-2.6 8.6-3.5 14-6.4 20.9q-2.7 6.4-7.7 16.2-.5 1-5.7 8.8-2.7 4.1-6.3 8.3-5.4 6.1-8.8 11c-1.6 2.3-4.5 3.8-6.7 6q-9.2 8.7-20.8 17.7c-2.5 2-5 3.2-7.5 5a3.7 3.5 16.7 0 1-1 .4l-3.3 1.1-11.7 6.6-.5.2q-2.7.4-4.5 2.5a2 2 0 0 0-.3 2.5q1.9 3.6 5.7 9.4.4.7.3 1.4a.2.2 0 0 1-.5 0q-.4-.7-1.3-.8a1 1 75.4 0 1-1-.5l-1.8-2.9-.1-.7q.1-1.6-.7-2.5a1 1 58.2 0 0-1-.3l-.5.2a1 1 0 0 1-1.3-.4l-1-1.6a2 2 0 0 0-2.6-1l-7.5 2q-3.2 2-2.7 4.7a1 1 0 0 1-.7 1q-1.5 0-1.7 1.1a.4.4 0 0 1-.7.1l-2.2-4.2a1 1 83.4 0 0-.7-.6q-1.9-.5-4 1a.3.3 0 0 0 0 .5q1.3.6 2.2.5h.1v.1l-.2.2c-4.2-.2-7.3.8-11.2 0q-1.7-.5-5.2-.1h-.1v.3a.1.1 0 0 0 .1.2q1-.2 2.2.1.8.2.5 1.7l-.4 3a.6.6 0 0 1-1.2.2v-1.4c0-1.7-1.6-2.6-3-1.7a.4.4 0 0 1-.6-.4q.4-2.7-1.5-2.5-2.6.2-4.4-.4a4 3.9 51.5 0 0-1.2-.2c-3 .2-7.3.4-9.5-.8a2.6 2.5 61.6 0 0-1-.3q-3.9-.4-10.5-2.3-3.6-1-4.4-3.7l-.7-.7q-3-1.6-4.4-1.9-10.7-1.8-21.4-1.7h-1.9a.6.6 0 0 1-.1-1.2l10.6-3a.6.6 0 0 0 0-1.3q-4.7-.7-10.1-.4-2.2.2-12.2-1.6c-5.3-1-10.4-4.7-14.8-7.9a.6.6 12.9 0 0-.9.5q0 .3.2.4a.3.3 0 0 1-.2.4q-1.2 0-1 1.5h-.1l-.1-.2v-1a1 1 0 0 0-.5-.7q-.8-.4-.8-1.1v-2.5a1.5 1.4-66.6 0 0-.3-.8l-3.5-4.5a1.1 1.1-59.5 0 0-2 .5q-.7 4.4-2 7.4-.2.6-.6.9a.7.7 0 0 1-1-.7l1.8-14a1 1 30 0 0-.2-.9q-1.6-2-1.2-4.7a1 1 28 0 0-.3-.9q-1.5-1.6-1.5-2.7a.3.3 0 0 0-.4-.2q-1.4 1-2 2.5a.7.7 0 0 1-1.2-.1q-.7-4.2.8-8.3l.1-.7.3-8.7a1 1 82.8 0 0-1-.7h-.2a1 1 80.6 0 0-.9 1.2q.2 7.5-1.7 13c-1 3.1-5.1 1.6-5.7 5.6a2.5 2.4 68 0 1-.5 1l-6.5 9.4a1 1-47.9 0 0 0 1.3q4.3 5 7.8 8 .7.5 1.5.6.6 0 1.3-.9l.1.1q-.1 1.4.8 1.4 1.4 0 2.2-.2a.1.1 0 0 1 .2 0v.2l.5.7 2.8 1.8a.2.2 0 0 1-.2.4h-.6a1 1-6.5 0 0-.7.9c0 3.4-.3 4.8-2.8 6.7l-.4.7q-.5 1.7-2 2.8a.2.2 0 0 1-.3-.3q.5-1 .4-2.2a1 1 1.5 0 0-.7-.7q-2.3-.4-4.2.1a.5.5 0 0 0-.3.8l3.1 4.5a1 1-35.2 0 0 .7 0q.5-.3 1.2.3 1.5 1.5 4.7 6a1 1-42 0 1 0 1.4q-1.1 1.2-1.3 2.6l-.2.7-2.8 4.3a.3.3 16.1 0 0 .3.4h.5a.3.3 0 0 1-.2.5c-2.6.5-4.8 5.5-7.1 9.3a2 2-32.6 0 0-.3 1.4q.4 4.7-.4 7.5a.4.4 0 0 1-.9-.1q0-1.4-.7-3a2.2 2-84.8 0 0-.5-.6q-2.3-2-4-3-.7-.2-1 .4-.2.4.2.9 1.9 2.4 3.3 5l-4.3 1.4q-2 .1-2.7-.7h1.2q.7-.2.4-.9-.2-.5-.8-.7l-.5-24q.2-.1.1-.7.2-.2.1-.4c4.4 0 9.2-2.4 11.7-3q2-.3 3.4.1a.4.4 0 0 0 .4-.4q-1.3-4.6-5.6-6c-.6-.3-1.7-1.1-2.1-2a1 1 55 0 0-1.5-.2l-6.3 6.6.2-21.2 5.4 5.8a3 3 0 0 0 2.8.7q2.2-.8 3.6-2.6a1.5 1.4-28 0 0 .3-1q0-2.4-2.6-4a2.5 2.3 82.7 0 1-.5-.4l-5.5-5.9-.4-.7q-1-2.7-3-3.9-.6-5.4 1-10.9l.4-2c.3-6.3-.1-10.2 1.1-15.7q.7-3 .7-7.7l.4-2.8q1.2-4.5 1.4-9.6a8.3 8.1 55.2 0 1 .4-1.8q1-3.3 1-6.7l2.5-1.5.3.3q-1.3 1.8-1.8 4a1 1 0 0 0 .4.6q5.5.9 9.6 2.9a.6.6 0 0 1-.3 1l-4.1-.1a2.2 2.1-80.5 0 0-2.2 1.5q-.6 2-.9 5-1.2 11.9-1.7 23.1-.2 3.6 1.7 11a.2.2 49.3 0 0 .4 0q.5-1.4.5-2.4c-.4-4.4-.8-6.5.3-9.6a2 2 88.7 0 1 1-1l5.2-2.4.4-.4q2-6 2.4-10.5 0-.6.6-1.7l.2-.9q-.1-2.3 1.7-10.3l3.6-16c.4-2 1.6-4.2 2.1-6.8q1.3-7.4 5.4-14.1.6-1 .5-1.8a1 1-14.1 0 0-.6-.4l-5.3 2.6a1.4 1.2-57.9 0 1-.4 0c-2 .5-5.5 1.3-6.3-.9a1 1-6.7 0 0-.8-.6c-4.4-.6-7 3-10 5.6 2-8.2 8.5-15 14.2-20.5l4.6 2.3a1 1 0 0 1 0 1.6l-4.4 2.3a.8.8 0 0 0 .4 1.4c7.5-.5 13-1.4 17.7-7.8a.4.4 0 0 0-.2-.6c-4.6-2.2-10.3-1.7-15.4-2q3-2.9 5.6-5.9c2.6-3 1.8-6-1.3-8.2a17 17 0 0 0-14.4-1.7q-11.3 3.3-22.7 9.5c-5.1 2.8-14.5 11.3-22.9 11.8a1 1-27.6 0 1-1-.3q-2.3-1.9-2.8-2.6-16.1-21.7-26-39.4c-4.6-8.2-6.8-17.8-9.2-27.2q.3-1.2-.6-1.2l-1.4-4.5c.6-.4.1-1.2-.3-.7q-1.4-4.7-3-7.5c-12.1-21-25.3-41.2-35.3-56.2-15-22.3-27.5-40.4-39.7-61a1.5 1.5 54.4 0 1 .3-1.9q4.2-3.5 9.7-7c8.7-5.3 19.8-11.9 28.5-17.6 20.1-13.2 36.8-23.6 55-35.9q17-11.3 40.8-28.4l8.1-6q3.3-1.6 5.8-4a.4.4 0 0 1 .6.1q1.1 1.6 2.8 1c4.3-1.9 2.7-5.3 5-8.3a.3.3 0 0 1 .5.1q.4 2 2.3 2.5l1 .7q.9 1 2 1.6M463 368.3q-1.7 3.4-.6 6.3a2 2 72.5 0 1-1 2.2c-4.4 1-4.3-4-2.4-6.2 1.1-1.3.9-3.8 1.5-5.5a42 42 0 0 0 1.5-21q-2.3-14.4-2.7-15.8a1 1 0 0 1 .4-1.1h1.2l1.6-.7q6-2.6 10.5-6.7a1.7 1.7 56.7 0 1 2.8.6l.5 1.2a2 2 0 0 0 2.7 1l7.2-3.5q3-1.4 2.4-4.8l-1.6-9.3q-.7-4.9-2.5-6.7a2 2 55.9 0 1 .6-3.2l4.8-2.2a3 3 0 0 1 4 1.7q4.5 11.5 3 23-.5 4.7-.5 7.9 0 7.2-2.4 13.7a2.9.9-61.7 0 1-.2.4l-2.3 4-.1.6q.3 3-.7 5.1a.4.4 16.1 0 0 .4.6q1.2.2 1.4-.7a.3.3 18.5 0 1 .4-.2h.2v.2l-1.5 2.4a1 1 0 0 0 .2 1l.3.1a1 1-55.3 0 0 1.3-.2l2-2.6a1 1 0 0 0-1.4-1.4l-.2.1a.3.3 0 0 1-.4-.3l.3-.5a1 1-28.5 0 0 .3-.9q-.2-2.2.9-3.5a1.6 1.4 44.9 0 1 2.2.1q.5.5 1 .3a1 1 0 0 0 .7-.7q1-3.5 1.7-8.6 0-.3.4-1l.2-1q0-5.1-.7-8.5a4.2 4 40.6 0 1-.1-1.1q.3-6.5 1.8-11.5.1-.4 1.6-2a1.1 1 69 0 0 .3-.6q.2-2.6-.8-4.6l-.2-1c-.2-2.5.2-5.9-.8-8.1a.4.4 0 0 0-.8.1q0 2-.6 6.4-.3 1.8 1 6.2a1 1 0 0 1-.6 1.2 1 1 69.9 0 1-1.2-.5q-2.6-8.8-5.4-16.2-1.2-3.3-1.2-5.4l.4-.8q.8-1 1-2l-.3-1q-2.7-4-7.3-6.7a1.3.6 63.4 0 1-.2-.1L471 262.5a.6.6 0 0 0-1 .6l2 9.3a.6.6 0 0 1-.9.7c-3.6-1.6-6.5-4.6-9.4-6.6-3.8-2.5-8.9-3.7-12.8-5.8-3-1.5-7.6-2.5-9.9-3.4q-2-.8-7.6-1.7l-9.2-1.2q-1.6-.2-6 .7a7 5.9 33.8 0 1-1 0l-5.7.2c-5.7 0-12.5 1.8-17 1.9l-1 .1q-5.5 1.6-9.6 2-2 .3-3.3 1.3-3.3 2.4-8.6 3h-.2l-10.4 5.8a1.6 1.4-79.1 0 0-.4.2q-3.4 3.2-7.7 4.8a7.2 6.9 14.4 0 0-2 1.1q-4.9 4-7.9 5.9-6 3.9-8 5.7-7.7 6.9-11.7 11.3-5.5 6.1-14.5 18.4l-.6 1.1q-1.2 3.6-2.4 4.5l-.3.3-3.3 6.4a1.5 1-34.1 0 0-.1.3l-2.7 9q-1.4 5-1.2 6.6v.7l-.8 1.5-.2 1q.4 3.6-.5 6.5a6 5.8-35.7 0 0-.2 1.3q-.6 10.5 1.4 20.4.6 3.5 1.6 5.5c2 4.4 3 8.6 6 12.6q5 7 12.5 13a1.6 1.5-20.5 0 0 .8.4l2 .3.6.5q.3.7 1.2 1.5 6.4 6 15 7.8 1.3.3 2.4-.8a.6.6 0 0 1 1 .6l.1 1.2a1 1 78.1 0 0 .8.5c2-.4 3 1.6 5.5.5a1 1 0 0 1 1 .3q1.2 1.5 5.2 2 9.7 1.2 15 .7l5 .2a1 1 0 0 1 .8.6q.2.9 1.2 2a1 1-53.4 0 1 .1 1q-.6 1.3-1.4 1.8a1 1 0 0 0 .6 1.7q7-.2 15-2.5l12.9-3.6q2-.6 3-2.3a1 1-67.6 0 0-.2-.7l-2.7-.6a1 1 0 0 1-.5-.6q.2-2 2.5-2.7 5.1-1.5 10.3-3.9 2.5-1 3.4-2.3l.2-.1 10-4.9h.4c3.8.9 5.6-3.4 8.3-5q1.4-.7 6.4-4.5a4 3.9 14.7 0 1 1-.5q2.9-1.2 4.8-3.6a.6.4-74.3 0 1 0-.1l2.7-1.3a2 1.9 0 0 0 .8-.8q1.6-3 4.5-4.5a1.2 1.2 50.1 0 0 .2-2l-2-1.6a1.2 1.2-40.7 0 1 .1-2q.6-.3 2.4-.3l.8.2c2.8 1.8 3.8-.4 5.5-2q2.4-2 3.3-4l.3-.6q.6-.1.7-.3a.4.4 0 0 0-.4-.6l-3.6.7a2 1.7-70.4 0 1-1-3q.6-1.1.7-2a.1.1 0 0 0-.2 0m-159.3-61.4-6 .7a.1.1 0 0 0-.2.1 3 2.3-6.6 0 0 3.3 2h.3a3 2.3-6.6 0 0 2.7-2.7zm183.1 67.5q-3.4 8.4-8.8 15-.8 1-.3 3.5l.4.1c5.4-6.9 9.7-11.2 10-18.3a.7.7-32.8 0 0-1.3-.3m-39.2 44.8q.3 0 .4-.5 0-.5-.5-.8c-4.2-2.2-9.5 2-13.5 3q-5.3 1.3-11.9 4.6a5.6 5.4-64.7 0 1-1 .4q-6.4 1.8-12.6 4.2-11.8 4.7-21.6 7-6.5 1.6-11.2 4.5a2 2 73.9 0 0-.8 1.5l.1 2a1 1 0 0 0 .6.6q13.2 1.4 25.5-1.7c3.9-1 12.7-3 18.9-5.9l7.9-3.5q2.3-1 12.7-8l3.6-1.9.4-.3 2.7-5z"/><path fill="#667c92" d="M381 215.8q-6.5 3.4-13.5 3.4l-1 .3-3 2.2a1 1-22.3 0 0-.3.8l.6 5.3q-7.5 5.8-15.8 10.5-2.2 1.3-4.7 3.2-3.7 2.7-25.2 16.5c-2.5 1.6-4.5 3.5-7.2 4.8l-2.8 1.9q-8 5.4-11.7 8.2-1.1.9-4.4 2.5-2.7 1.5-4.1 3.9a1.8 1.7 70.3 0 0-.2.4l-.5 1.8a1 1 0 0 1-.7.6q-2.8.4-3.5 2.6a1 1 7.8 0 1-.9.6l-4.1.1-.6.2-31.8 21.1-1 .3c-2.5-.1-4.3-3-5.9-5.1a1.5 1.4-34.6 0 0-2-.4l-10.5 6.9a1.7 1.7-33 0 1-2.4-.5L197 266.2a2.3 2.3 56.8 0 1 .7-3.1l9.5-6.4a1.2 1.2 0 0 0 .3-1.6q-10.5-16-17.6-27.2c-3-4.7-5.5-9.6-8.4-13.5q-1.8-2.3.3-3.9a2.3 2-32.8 0 0 .7-2.7q-2.6-4.9-6-9.2c-2-2.8-3.6-3.4-6.8-4a2.9 2.8 75.6 0 1-1.5-1q-2.8-3.3-4.8-6.4l-33.6-51.7q-1-1.7-6.4-9.3-1.3-2 .7-3.4 2.6-1.9 6.7-4.3a2 2 0 0 0 .6-3c-1.8-2.2-3.9-5.6-.6-7.8q20.9-13.6 37.7-25.2c6.5-4.5 13.8-8.7 20.2-13.1 13.5-9.2 25-16.7 39.2-26.3q14-9.5 17.2-11.3l6.4-4.6c4.7-3.4 6.6.5 9.6 3.7a1.4 1.4-42.8 0 0 2 0q4.2-3.7 8-5.5a3 3 0 0 1 3.6.7q5.8 6.6 12.7 15.5 7.2 9.4 12.4 15.9L315 76.3q6.2 7.6 10.3 13.8a2 2 48.4 0 1 0 2l-2.8 3.2a2 1.9-42.4 0 0-.1 2.4q4 5.6 7.2 9 1.6 1.7 2.7 2.3a3 3 39.8 0 0 3.1-.3l2.5-1.8a2 2 52.3 0 1 2.3.3l10.8 13.3q.3.3.4.9l.2.4 3.2 3.2q6.6 8.8 13 16.6 1.6 2 3.5 3.7a2 2-41.7 0 0 2.4.1l5.6-3.7a.7.5-60.6 0 1 .2 0q1.3-.3 3.1 1.9l31.2 38.1a1 1 53.1 0 1-.2 1.6l-5.3 3.7a3 3 59.2 0 0-.9 3.6l2.3 4.5a1 .8-60.8 0 1 0 .4c-.1 2.5-4.8 5-7 6.4zM286.6 54a2.6 2.6 0 0 0-3.5-.6l-18.1 12a2.6 2.6 0 0 0-.6 3.7l7.4 10a2.6 2.6 0 0 0 3.4.6l18.2-12a2.6 2.6 0 0 0 .6-3.7zm-90.1 30.2 2.6 4a2 2 0 0 0 2.2.5l7.4-4.9a3.5 3.3 56.7 0 0 .8-4.7l-.6-.9a3.5 3.3 56.7 0 0-4.6-1l-7.3 4.8a2 2 0 0 0-.5 2.3m-43.8 71.5a3 3 0 0 0 4 .7l18.1-12.7a3 3 0 0 0 .8-4l-6-8.4a3 3 0 0 0-3.9-.8l-18.6 12a3 3 0 0 0-.8 4.1zm105.5-3.3a2.3 2.3 0 0 0-3.2-.5l-3.2 2.5a2.3 2.3 0 0 0-.5 3.2l7.2 9.5a2.3 2.3 0 0 0 3.2.5l3.2-2.4a2.3 2.3 0 0 0 .5-3.2zm87.5 22a3.4 3.4 0 0 0 4.6 1l20-12.8a3.4 3.4 0 0 0 .4-5.4l-3.2-2.7a3.4 3.4 0 0 0-4-.3l-19 12.3a3.4 3.4 0 0 0-1 4.6zm-60.3 1.8a3.3 3.3 0 0 0-4.3-.5l-17.2 11.4a3.3 3.3 0 0 0-.6 5l2.9 3.2a3.3 3.3 0 0 0 4.3.6l17.2-11.5a3.3 3.3 0 0 0 .6-5zm32.1 31.4-1.5.7q-13 8-29.3 19.7c-1.7 1.2-3.2 1.8-2 3.8q1 2 3 4.7a1.6 1.6-36.6 0 1-.2 2.2l-7.6 5.3a2.3 2.3 0 0 0-.7 3.1q1.9 3.2 4.6 5.4a1.3 1.3 47.7 0 0 1.5 0l54.6-36.2a2.4 2.3 52.1 0 0 .5-3.6l-2.7-2.9a4 4 55 0 0-4.3-.8q-2.7 1.4-4.5 3c-4.2 3.8-7-2-9.4-4a2 2-33.9 0 0-2-.4m-98 51a3 3 0 0 0 3.8.6l20.3-13a2.8 2.8 0 0 0 .5-4.3l-3-3.2a3 3 0 0 0-3.5-.6l-20.2 12.3a3 3 0 0 0-.9 4z"/><path fill="#8e7b2d" d="m286.5 54.1 7.4 10a2.6 2.6 0 0 1-.6 3.6l-18.2 12a2.6 2.6 0 0 1-3.4-.5l-7.4-10a2.6 2.6 0 0 1 .6-3.6l18.1-12a2.6 2.6 0 0 1 3.5.5M196.4 84.4a2 2 0 0 1 .4-2.3l7.4-4.9a3.5 3.3 56.7 0 1 4.6 1.1l.6 1a3.5 3.3 56.7 0 1-.8 4.6l-7.4 4.8a2 2 0 0 1-2.2-.4z"/><path fill="#8e7b2d" d="m152.6 155.8-6.4-9a3 3 0 0 1 .8-4.2l18.6-12a3 3 0 0 1 4 .8l5.8 8.4a3 3 0 0 1-.7 4l-18 12.7a3 3 0 0 1-4.1-.7"/><path fill="#735b2a" d="M994.3 160h-.4a1 1-32.4 0 1-.9-.1q-1.9-1.5-4.8-1.6c-3 0-2.6-4.4-1.6-6q.3-.7 2.8-2.1 3-1.8.1-1.7 1.4.3 1.4-1.8l.1-1.7a2 2 0 0 1 2.5-1.3q3.7 1.3 5.7 3a1.7 1.7 0 0 1 0 2.5l-4 3.6a2 2 0 0 0-.6 1.4z"/><path fill="#8e7b2d" d="M989.5 148.5q2.9-.1-.1 1.7-2.5 1.4-2.8 2c-1 1.7-1.3 6 1.6 6q3 .2 4.8 1.7a1 1-32.4 0 0 1 .2l.3-.1-.2.9q-1.6 2.2 0 5.4 1 12.8 3.3 25.5 9.3 50.8 16.1 91.4 1.2 6.6 2.9 12.7.5 2 2.2 4.5 1 6.9 2.2 13.5.3 1.4 0 3.7a3.4 3.3 62.5 0 1-.3 1.3q-.6 1.2-3.9 4.2-3.5 3.4-11.6 14-5.6-5-9.9 1.4a1 1 35.9 0 0 .2 1.2l4 3.2a2 2 15.4 0 1 .7 1.2v.7a2 2-83.1 0 0 1.1 1.3l3 1.3H994c-3 1-6.6 1.3-9.1 1.8L919.6 361q-10.8 2-28.5 3.7a2.9 2-16 0 0-.4.1l-10.7 2.4a1 1 64.2 0 1-1.3-.4q-1.6-2-4.7-1c-3.1.9-6 2.7-9.4 3.2q-3 .4-7.1 0a1.7 1.5 11.1 0 0-1.7 1q-.4 1.2-1.7 1.5c-4.6 1-8.7 2-13.5 2.3q-3 .3-4.6-1.4a1.3 1.3 28.1 0 0-2.1.7q-.2 1 .2 2.2a1 1 76.7 0 1-.5.9q-41 7.2-81.6 15.2a83 83 0 0 0-24.1 8 1 1-41.2 0 1-.9-.1l-1.2-.9q-.4-.3-1.2-.1-12.1 3-21.6 10.5-6.2 2.8-11.4 7.3l-13 3c-3.6.8-6.3.7-9.3 1.6q-1.5.4-6.2.8-3 .3-6 1.2-1.9-.4-3.6.4-3.8.2-7.5 1.2a1.1 1-50.7 0 1-.2 0l-11.3 1.4-14.8 2.9a1 1 86.1 0 0-.5.6v1.8q.3-1.4-.9-2l-.6-.1-9.3 1.5h-.1l-.2.3a1 1 19.8 0 1-.6.3q-2.6-.4-6.3.6a.6.6 0 0 0-.3.9c2.6 3.2 1.5 12.4 1 16.8q-.8 5.4-.6 8.2.5 7.1 1.2 13.7.4 3.8-.2 7.8-.4 2.4 0 3.7l1.4 3.6q7.6 13 14.1 27.6c1 2.2 2.7 5.6 4.7 6.3a1 1-82 0 0 1.1-.9q0-1.5-.5-2.8-1.3-3.1-2.7-7.1v-.5q0-.2.3-.3a1 1 0 0 0 .4-.6q-.3-.8 0-1.5h.3l.4 2a.2.2 0 0 0 .5-.1l1.6-12h.3l4.7 2.7.1.3.4 13q.1 3.4 2.2 6.2a4 4 27 0 1 .7 2.1q0 6.9-1 14.4c-.3 2.7 0 6.4 1 8.6q3.5 6.7 5.1 10.3a.3.3 0 0 0 .5 0l.1-4.3h.1c.7 5.7 3.3 9.7 7.7 19a.4.4 0 0 0 .8-.2l-1.3-32.8a1.3 1.3 0 0 0-1.5-1.2q-1.6.3-2.2-1.5a.4.4 83.8 0 1 .4-.5q1.7.1 2.4-1.7a1.3 1.2-86.4 0 0-1.4-1.7c-2 .5-2.7 2.5-5.2.8l-.2.1-.4 1.1a.2.2 0 0 1-.4 0l.5-4.8a.3.3 0 0 1 .4-.2h.2l.1.3-.4 1a1 1 17.5 0 0 .4.8c2.3.5 4.4.9 5.1-1.5a1.4 1.4 0 0 0-1.2-1.8h-.9v-.2h1.7a.4.4 0 0 0 0-.8l-2.2-.1 3.6-.5a1.3 1.2 84.5 0 0 1-1.3l-1.7-28.3V486l.2-.7q2.3-3.5 6.2-6 5 18.2 9 37.2c2.2 10 3.6 20.8 5 31.4q0 6 .4 12.4l.6 12.3q.1 11 1.4 20.5c.6 5.1.5 9.2.8 15q0 1.7-1 5.1a1 1-83.6 0 1-.7.7q-.6 0-1.2-.3a.5.5.4 0 0-.6.6q2.2 6 5.7 13.4 1.3 2.8 3.7 4.6c.9.7 1.6 2 2.4 3q-.3-.4 0 .4l3.7 4a.9.9 24.6 0 0 1.6-.5v-5q3.2-9.3 4.3-19.3a.3.3 0 0 1 .5-.2q1.6 1.7 2.5 4 3.5 9.3 8.4 18.2-1.6 7.2-1.4 14.7a5.4 5.3 50.1 0 1-.1 1c-.6 3.4-1.2 6-1 9.5.1 8 .5 10.8-1.6 16.6-1 2.9-.2 5.9-.8 8.9q-2.3 10.8-4.4 18.3a4 3.6 55.8 0 0-.1 1q-.1 3.2-1 5.9-.6 1.6 0 3.2 1 2.4.3 5-1 3.3-1.2 5.7a3.8 3.6 60 0 1-.3 1.1q-1.4 3.5-1 7.9a.3.3-43.7 0 0 .7 0l.8-4.5q1.8-5.4 3-11.2 2-10.1 2.2-10.4l3.3-14.3a1 1 0 0 1 1.1-.7 1 1 13.4 0 1 .9 1.3q-1.4 9.4-3 15.7-2.7 10-3.3 13.8a7.3 6.7 62.1 0 1-.3 1.4q-2.5 6.5-3.3 11.3l-2.4 4v.2l-.9 6.2a.5.5 0 0 0 .8.5l.7-.6a2 2-14.6 0 0 .7-1l.4-3.5a.6.6 42.5 0 1 1.2 0q1 4.2-1.4 8.8a1 1 40.4 0 0 0 1l.3.3a.7.7 0 0 0 1.1 0q1.8-3 4-5.2l6.9-7.2q1.3-1.5 3.8-6.3a5.6 5.4 80.5 0 1 .8-1.2c8-8.8 14.6-17.9 24.6-31.1q2-2.8 2.2-5.5.3-5.2-1.8-10.7-1.4-3.6-3.7-8.8-1-2 .9-3.6a2 2 0 0 0 .2-2.1l-1.2-1.7a.8.7-65.7 0 1-.1-.4q-.1-1.4 1.1-1.5 1.4 3.2 2.6 7.8Q730 690 731 696c1 5.5-1.3 9-4.6 13.5q-5 6.6-10.5 12.8c-2.3 2.5-4.4 5.6-6.5 7.8-5.1 5.1-9.3 10.7-14.7 16.4q-5.4 5.8-13.7 14.3-15.6 16-35.9 27.8-18.2 10.7-26.9 15.6-3 1.8-6.6 1.1H610q-6.6.1-13-1c-4.5-.9-9.1-.8-12.1-.8-2.2 0-3.8-.5-6.5-1a9.8 8.4 42.6 0 0-1.3-.3 64 64 0 0 1-39.1-16q-10.4-8.7-13.5-11.6-7.7-7.4-14-13c-9.3-8.4-17.3-16.6-25.6-24.7-5-4.9-9.6-8.1-14.7-13.2a242 242 0 0 0-36-28.2c-15.9-10.7-27.6-25.8-40-41.3q-1.9-2.6-3.4-5.5l4.5-2a2.8 2.5-60.2 0 1 .5-.2q2.7-.6 5-2l.6-.6q.2-.7 1.2-.7l.6.3c2 2.2 5.2 3 9 4.4a.4.4 0 0 1 0 .7q-1 .8-.3 2a1.3 1.2-51.9 0 1 0 .8q-1 3.8 1.5 5.8v.3h-.2a1 1 0 0 0-.4 1.5l15.8 21.3a3 3-6.5 0 0 1.4 1q13.5 5.6 32.7 14c4.5 1.9 7.8 2.9 11 4.6q2.9 1.4 8.4 3.6c9.7 3.9 18.6 8 29.5 12.5q1.1.5 2 .3a.8.8 0 0 0 .3-1.3l-3.1-3-.2-.5q-.1-.5-.6-1.3-2.4-4-5.3-8.2v-.1l.3-.2h.4c2 2.7 6.4 8.9 9.6 12.6q3.1 3.6 3.7 5a1.4 1.4 0 0 0 2.6-.2q.8-2.4-.9-5.2-1.5-2.5-15.3-22.6a1.7 1.7-58.5 0 0-3 .7l-.2 1.3a1 1 0 0 1-2-.3l.2-3a1 1 0 0 0-.6-.7q-3.6-.1-7-2.2l-.7-.7q-3.2-4-9.2-8.6a.3.3 0 0 1 .2-.5q1.5 0 1.2-1a.1.1 0 0 1 .2-.2l6.3 4a.8.8 0 0 0 1.1-.8c-1.2-2.8-3.5-5.4-4.1-8.4q-.7-2.7-.8-5a2 2 11.2 0 0-1.1-1.5l-3.9-2a.7.7 0 0 1 .2-1.2l1.5-.3a.7.7 0 0 0 .2-1.3L478 657a1 1-72.7 0 1-.5-1l.4-3a1 1 0 0 0-1.6-1q-2.4 2-3.7 4.5a1 1 0 0 1-1.1.4l-.5-.2a1 1 0 0 1-.2-1.5l2.7-2.4a1.1 1.1 41.2 0 0-.2-1.8q-1-.6-2.8-1.2-5.9-1.6-16.6-5.7c-3.2-1.2-6.2-2.1-8.8-4.6a.6.6 0 0 1 .5-.9c5.9 1.7 8.7 2.9 12.9 2.6a.4.4 0 0 0 .1-.7q-2.6-1.2-7-2.2c-6.5-1.4-14.5-5-19.7-5a1 1 0 0 1-.8-1.2l1.9-4.2v-.7c-.5-3.5-2.3-4-4.2-5.5a2 2 31.5 0 1-.6-2.6q.6-1.3 2-2.4a1 1 56.4 0 0 .2-1.1l-1.8-3.1a.7.7-42.9 0 0-1.2 0c-1.1 1.5-1.6 4.2-3 5.5l-3.5 1.8a1.2 1.2 0 0 0 .5 2.3q.8 0 7.1 1.7 1.4.4 2.9 2.7a.5.5 64.1 0 1-.3.7q-3.2 1.2-4 2a1.3 1.2-65.2 0 1-.8.2q-2.3.2-2.8-1.2-.6-1.8-.8-2-2.8-2.3-3.7-.6a1 1 0 0 0 .1 1l2.3 3 .6.4q1.5 0 2.5.6a.3.3 0 0 1-.1.5h-.3a.5.5 0 0 0-.3.8q1 1.3 2.8 2a.4.4 0 0 1-.1.8q-1 0-1.8.7a.2.2 0 0 1-.3-.2l.1-1-.2-.8-2.4-2.7-.6-.3h-3.6l-.7-.4q-1.7-2-4-2.2a3.5 3.2 56.5 0 1-.8-.3q-5.7-2.3-10.3-3.6t-7.7-3q-6.6-3.4-7.3-4a1.3 1.3 30.6 0 0-2 .6l-.2.5a2.3 2.3 23.2 0 0 1.2 3l6 2.6.1.4-.1.1-.8-.3a.8.8-25.3 0 0-.5 1.3q3 4.1 5 7.9 2.3 4.6 6 7.6a.6.6 0 0 1-.1 1l-6.3 3-4.7 1.7q-.2-1-.7-1.8a10 10 0 0 1-1.2-6 3 3-65 0 0-.8-2.2c-3.4-3.7-13.1-11.5-18.4-9.5q-2.9 1-6.5 4-11.7 9.6-25.7 23c-2.4 2.4-5.2 4.7-6.6 7.7l-3.9 8.6a4 3.9 78.1 0 1-.7 1.2q-7 7.5-11.7 16.3-6.1 11.1-7.5 13.3-16.1 24-24.8 38.7-42.7 72.7-84.6 140.5c-3 4.8-8.2 12.7-12.3 18.3-2.3 3.2-5 6.4-8.7 7.6h-1q-2.8-.6-5.5-1.7a212 212 0 0 1-15.3-6.8q-32.6-16.5-75-38.7L50 843.5c-16.5-8.3-27.3-14-38.4-18.5q-.6-.8-1.5-.5l-7-1.3q5-1.8 5.1-5.7 0-1-.8-1.6-4-2.5-7.3-.8v-4.4q3.6-4.6 5.8-10L9 797a1 .8 84.8 0 0 0-.1q4-6.1 5.5-7.8 5.9-6.5 9.6-12.7c5.5-9.4 10.2-18.4 17.2-27.5q4.6-6 7.7-10.8l28-42.7c8-11.9 19.4-31.1 29-45.8l23-35.4q3-4.6 15-26c2.2-3.9 4.6-9.4 6.7-14.6q8.4-20.2 13.9-30.7a453 453 0 0 1 43.1-68.3q3.4-4.6 9.5-3.9 10 1.6 11.7 2l24.3 5.9 2.6 1-.1.3q.7.8 2.7.7.5 1.6-.3 2.2-.7.5-2.2 0-10.5-3-18.2-6c-4.5-1.6-7.4-2-12.4-3a2 2 0 0 0-2 .7l-4 5.7c-3 3.7-5.5 1-8.8.9q-2.6-.2-3.6 1.2c-4.5 6.5-8 13.3-12.2 19.5q-7.4 11-8.6 13.2c-2 3.5-5.1 7-7.7 11.5-3.4 6-8 12.8-10.7 17q-.6 1.3-1.4 3a3 3 0 0 0 .8 3.7q.4.4 1.7 1a3 3 0 0 1 1.3 4.2l-9 15.1c-2 3.1-4.6 6-6 8.6q-1.9 3.4-4.2 6.5c-4.5 6-8.8 14.1-12.9 20l-6.2 9.1c-1.7 2.8-2.6 5-4.1 6.7-2.6 2.9.5 5 2.8 6.3a1.7 1.7-59.7 0 1 .6 2.4l-14.4 22.5a3 3 15.1 0 1-2.7 1.5l-4.9.2a3 3 0 0 0-2 1l-3.5 4.6-.2.4q0 .4-.4 1-1.8 2.9-14.2 21.3-3 4.5-3.6 6.8a1 1 83.8 0 1-.6.7q-.4.2-.8.8L74 705.2q-4 5.8-6.7 10.3-2.8 4.7-6.7 10.3-4.4 6.3-8.8 13.7-4 6.8-8.5 13.7L35.6 765c-2 3.2-5.9 8.6-8.7 13.6l-7 10.2a1.6 1.6 0 0 0 .4 2.2q5.4 4.1 10.6 5.9a.5.5 25.9 0 1 .3.7l-9.1 14.2a1.2 1.2 0 0 0 .4 1.7q113.2 60.4 135.9 72.3 3.1 2 6 3.7a2 2 0 0 0 2.5-.6l8.6-13.5a2 2-58.3 0 1 3-.7l8 4.8a2 2-52.2 0 0 2.7-.4q1.3-1.3 1.8-2.1 6.8-11.7 13.3-22.3c3.3-5.4 6.1-11 9.5-16 2-3 3.5-6.4 5.3-9q3-4.4 4.2-6.8.9-2 16-26.9l35-57.7q1.6-2.7 4-7.5a1.4 1.4-55.6 0 0-.4-1.6q-2.6-2.6-.7-5.7 10.3-17.4 10.6-17.7 2.8-4.3 4.4-6.2a3 3-70.7 0 1 2.2-1q3.2-.2 5.2-3 3.2-4.8 7.6-12.5c8.4-14.7 17.1-27.6 25.4-42q4.6-8.3 12-19.4a1.5 1.5-58.4 0 1 2-.4q5.5 3 10.9 4.1a3 3 0 0 0 2.6-1.2l42.6-72.2a.8.7 26 0 0-.4-1.1l-11.6-4.5a2 2 27 0 1-1-3.1l4.9-7.5a2 2 0 0 0-.9-2.6Q379 527 366 522.9c-2.2-.6-4.2-1.8-6-2.8a1 1-81.3 0 1-.7-1l-.1-.5-.4-.6q-.8-.4-1-1.2-.2-.5.2-1l.8-.6 27.9 9.7 9.5 4.4a3 2.9 55.9 0 0 1.3.3q2.5 0 6 2a.5.5-88.8 0 0 .7-.8l-1.7-3.4a1.4 1.4 0 0 1 .8-2q1.4-.5 2-1a.7.7-69.1 0 0-.6-1.3l-2.9.4a1 1 0 0 1-1-1.6q.3-.2.4-.6a.3.3 0 0 0-.4-.4h-.3a.3.3 0 0 1 0-.6q11-5.9 12.8-7.1 14.3-9.8 26.3-17 .7-.3 3.3-3.1.7-.9 3.1-2l1-.5q15.6-10.7 36.9-24.2c5.8-3.7 11-8.3 17.1-12.2q11.1-7 16.2-9.8l1-.4h1.4a1 1 5.3 0 0 .6-.4q-.1-2.6-2.4-3a1 1 0 0 1-.6-.7q-.1-1.7-2.5-3.8-1.5-1.2-3-3.8l-.6-.7-1.5-1-.4-.4q-4.2-5.4-7.8-8.3-5.7-4.7-9-7.9l-1.5-1.2a.6.6 0 0 0-.8 1q2.5 3.6 4.8 6.1c4 4.6 10.4 9 13.9 12.1q4.5 4.1 8 8a.7.7 0 0 1-.2 1.1c-2.5 1.6-7.8 4.9-11 7.6-2.1 1.8-4.6 3-7.3 5.2q-7 5.6-14.6 9.8c-4.7 2.6-8.4 5.8-13.4 8.5a.1.1 0 0 1-.2-.1v-.2a.5.5 0 0 0-.5-.6l-1.7.3a1 1 0 0 1-.8-.7l.2-5.5a.9.9 0 0 0-1.7-.5c-2.3 3.6-1.9 6-2.1 10.3q0 .6.6.8v.1l-19.7 13.1a.5.5 0 0 1-.7-.3l-.3-2a.3.3 14.2 0 1 .4-.2q.4.3.7.1l.2-.4c.1-2 .2-5.6-1.2-6.8l-.3-.7v-3.5l-2.6-3.3-.1-.4-.2-1.5a.3.3 0 0 1 .6.1q.6 2.2 3 1.3 4.4-1.8 13.6-6.3 6.7-3.2 9.4-5.1l9-5.8q3.7-2.4 11.4-8.4 6.6-5 11.6-10.2a.5.5 21.7 0 0-.4-.9h-5.7a2.6 2.5 51.9 0 1-.7 0q-4.8-1.5-6.6 2.9h-.4l-6.2-9.6a1.4 1.4 0 0 1 1-2q.4-.1 1.5.5.2.1.4 0l.3-.7a1 1-71.5 0 0-.3-.6q-.7-.4-.8-1.2a.4.4 0 0 0-.6-.3l-3.4 2.6-.3-.2v-.3q.5-.6 1-2 .9-2 3.3-3.9.8-.5 1.5-2.2a.4.4-48.7 0 1 .7 0l1 1.8a1 1 0 0 0 .8.5c1.4.2 3.8-.1 5 .8q1.8 1.2 2.3 2.4a1.8 1.7-84.6 0 0 .6.8q.7.5 1.1 1a1 1 0 0 0 1 .2l.5-.3a1 1 0 0 0 .1-1.2q-4.3-4.6-7.1-10.2a2 1.4 68.1 0 0-.2-.2l-3.8-4.8h-.2q-.1.2-.3 0v-.2q.6-.4 2.6-3c2.2-3.1 5-5.5 7-8.5 1.3-2.2 2.7-2 4.6-.4h.4l.1-.4a.4.4 0 0 1 .6-.2q3 2.6 4.4 4.2a1.5 1.5 44.5 0 0 2.3 0q.2-.2 0-.7l-2.1-5a1 1 88.7 0 0-.8-.7l-1-.4a.1.1 0 0 1 0-.2q2.8.3 3.4 1.8a.6.6 0 0 0 1.3-.3q-.3-2.6.6-3.8a.2.2 68.6 0 1 .4.2l-.6 3q-1.3 7.2 3.7 12.3l6 6.8q2 2.6 5 3 7.8 1.6 14.5-1h.8l4.4 2.6a.8.7-4.1 0 1 .2 0l4.3 4.2a.4.4 0 0 1 0 .6q-.3 0-5.2 3.6c-3.9 2.8-9.3 5.4-12.3 7.7-2.5 1.9-5.7 2.8-7.8 4.5a2 2 0 0 0-.8 1.6v.5a1 1-13.6 0 0 1.4.8c2.6-1.5 4.3-3.2 7.4-5.3q7.9-5.2 12.4-8.6 1.7-1.3 3.9-2.2a1 .8-51.5 0 1 .3 0l7.3-.6q-.6.1-.8-.3v-.4q2.3-2.3 6-3.5l.8-.5 3-3.4a1 1 52.4 0 1 1.3.1q.5 1 1.4 1.4c1.5.6 2 1.9 3 2.8a.5.5-76.6 0 0 .9-.5q-.5-1.8-1.8-2.9c-.8-.6-2-.6-2.9-1.3a.5.5 0 0 1 0-.8q1.2-1.5 3.1-1a1 1 0 0 1 .8.8l.1.7.5.5q.8.1 1.2-.5a1.1 1 53 0 1 2 .3l.5 1.8.2 1.2q-.3 3 1.3 5.3l.3-.1.5-11.3-.2-.6q-.6-1-.4-1.9.8-2.5-.2-4.5-.3-.5-.7-.6h-1a1 1-75.6 0 1-.8-1.6q1.4-1.4 2.2-3l.3-.9c.6-5.6.2-9.3.3-13.9q.1-3-.4-8.3a2.1 2.1 71.6 0 0-3.2-1.6L567 378a2 2-2.7 0 0-.9 1l-.7 1.3a1 1 0 0 1-1 .7l-4.1.2a.8.7-23.5 0 1-.6-.2q-.6-.6-1-.5a1 1 3.9 0 0-.7.6c-.6 2.4-2.8 2.7-4.4 1.2q-1-1-1.7-1a1 1 80.5 0 1-.8-.7l-2-3.8q-.2-.6.2-1.3a1 1 0 0 0-.8-1.2q-3.6.1-8 2.2a1 1-18.3 0 1-1.3-.7v-.2a2 2-18 0 1 .9-1.8q3.6-1.7 7.5-2a.6.6 0 0 0 .3-1q-1.8-1.6-4.4-1.6a2.2 2.1 56.9 0 1-1-.2q-3-1.4-5.8-1a1 1 0 0 0-.6 1.5l2.3 2.5a.7.7-39.7 0 1 0 1.1l-2.5 1.8a1.1 1-61.1 0 1-.7.2q-3.5-.2-5.1-1.8a.7.7 0 0 0-1.2.9q1.4 2.5 3.3 2.3v.1l.2.1-.1.1q-8.2-.7-15.1 2.4a.4.4 0 0 1-.6-.6q.4-.8 1.3-1.6a.6.6 0 0 0-.2-1.1q-2.8-.8-5.8-2-1-.3-1.9.5a1.2 1.2 45.1 0 0 0 1.7l4.4 4a1 1 0 0 1 0 .7q-2.3 2-3.4 4.1a.4.4-55.2 0 1-.6.1q-1-.8-2.2.7l-.5.3-1.3.2a1 1 0 0 0-.5.6l.2 4.4a1.1 1.1 0 0 1-1.7 1l-3.7-2.1a1.2 1.2 0 0 1-.4-1.6q3-6 7.8-11.9a1.1 1 58.9 0 0 .2-1q-.3-1 .3-2.3l5.7-13.2c.9-2 2.5-3.5 2-6V353q4.2-11.8 4.8-24.6a5.4 5-51.1 0 0 0-1.2c-.8-4-1-6.2-1.6-9.4q-.4-1.8 0-3.4 1-4.4.4-7.8a.8.8 0 0 1 1.2-.9q4.5 2.8 5.4 8.1l1.8 10.8q.8 5.2-.6 14.6-.4 2.8 1.1 5.6a5.5 4.4 27.3 0 1 .3.7q2.7 7.4 4.6 9.8 2.8 3.7 6.1 5t6.7 2.2l1.7.8q5.8 2.9 9.8 5.3.4.2 1.8 0a.4.4 0 0 0 .2-.6l-1.2-.6-.2-.2h.3q1.4 1.1 2.9.6a1 1 57.1 0 1 .8.2q1.2 1.3 2.3 1.7a1 1 0 0 1 .2.6l.1.4.5.3q2.6-.1 4 .2 2.5.5 3-1.8.4-2.6.4-5.6-.4-13.9-.2-30.7 0-3.7-.4-12.5-.4-7.6-.4-12.5.1-10.4-.5-18.5-.1-2.5-1.4-4.5a.6.6 0 0 0-.9-.2l-7.7 5.2-1 .2-3.3-.4a.6.6 4.1 0 0-.7.6c0 3-1.5 3-3.8 2.5l-1 .2c-2.3 1.2-7 3.5-9.9 2.4q-4-1.6-6.8-.8a1 1 0 0 1-1.2-1l.2-5.4a1.2 1.2 0 0 1 1.3-1.2h2a1.8 1.6 31.4 0 0 .9 0q3.3-1.7 4-1.8 5.3-1 7.6-2a1.6 1.5-56 0 1 .7-.2l9.4.3a3 3 27.1 0 0 1.6-.5l5.5-4.1.3-.4.5-2.7a1 1 29 0 0-.3-1q-1.5-1.5-1.5-3 3-.6 3.7-1.2 1.2-1 2.4-4.4a3.6 3.5-34.3 0 0 .2-1c.1-6.8-.4-18 .5-26.5l1.2-12.4a3 3-15 0 1 1.4-2.5q2.4-1.6 5-2.3 30.9-8 68.1-15 6.6-1.2 14.9-1.5 12.1-.5 28.2-1.5 3.3-.2 8.8 1.1 3.6.9 9.8-.8l.7-.1q4 0 8-.7 125-25 250-50.5zM576.2 278.9q-1.2.1-1.3 2.2a2 2-86 0 0 1.6 1.8l3 .2q-1.1-.1-1.7.1a1 1 0 0 0-.3 1q1.5 2.6 1.4 6.6c-.2 12 .6 33.3.6 53.6q0 8.4.5 13.4 0 1.6-.7 3l-.6.7c-3.5 2.6-2.2 5-3 8.3a1 1 0 0 0 .4.6h1q-1 1.3-.5 1.9l1.5.9.1.4q-.2.3 0 .7.3.8 1.9 1.4 1.1 9.3.9 13.3-.3 4.3-.2 6.8c0 5.2 0 8.6.2 16a1 1 0 0 0 .8.8q4.9 0 9.2-1.7h.8l2.8 1.1.3.4 1 7a1.6 1.6 86.4 0 0 1.6 1.5c6.5 0 13-1.7 18.7-3.4a9.2 8.7 32.3 0 1 1.7-.3q14.6-1.6 18.5-2.6 9.3-2.5 19.8-3.6c7.5-.7 17.2-3.4 27-4.8a2 2 0 0 0 1.5-2.1q-.5-2 .1-3.8a2 2-50 0 0 0-1.2q-1.1-2 .8-2.5 7-2.2 13.4-3.2c3.8-.5 6.7-1.4 10-2.1a5.7 5.4-48.9 0 1 1.5-.2q5.7.3 12.3-2l1-.2c3 .1 6.7-1.3 9.9-1.7q13-1.6 30.5-5.6l11.3-.9a2.5 2.5-3.4 0 0 2.3-2.6l-.2-4.9a2 2 0 0 1 1.5-1.9l13.5-2.7q6.5-1.4 9-1.6 1.8 0 9.1-1a1 1-10.7 0 1 1 .8l1.1 4a2 2-7.8 0 0 2 1.4c4.3 0 9.5-.3 14.6-1.6 3.8-1 8.9-1.8 13.6-3q4-1 9.2-.7a3.5 3.4 40.1 0 0 .8 0l23.2-4.8a1.2.8 29 0 1 .2 0q4.5-.2 6-.6 9.7-2.3 12.2-2.6 5.5-.5 7.2-1.4a2.4 2.2 28 0 1 1-.2c4.6-.3 7-.3 11.2-1.4q6.8-1.7 18.5-3.8c4.5-.9 8.3-.7 12.6-1.7q4.1-1 10.3-1.8a5.6 5-55 0 0 1-.3c3.4-1.2 5.5-1.3 9.6-1.5q2.1 0 5.4-.8 11.7-2.7 17.4-3.6 2.8-.4 2.3-3.4-.7-4-2.6-11.3l.3-.4 18.7-4 .3-.2q.5-1.4.2-3-4.1-20.5-7.4-42.7c-1-6-2.8-13.5-3.8-19.7q-3.2-19.8-7.4-44.3c-1.4-8.3-4.2-20.6-5.6-30.6q-.9-6.5-2.2-12.4a2 2 0 0 0-2.3-1.6l-15.2 2.2a1 1 79.9 0 1-1.3-.9l-1.7-8.3a2 2-3 0 0-1.9-1.6c-1.4-.1-3.4 0-4.5.4-6.9 2.7-14.4 3-21.4 4.8q-10 2.5-20.8 4.2-3.7.5-20.5 4.3c-1.4.4-3.2.3-4.5.7-9.5 2.2-16 4.2-24.2 5.2-6.2.7-11 2.3-17.4 3.4q-6.7 1.1-16.9 3.6c-7 1.6-14.8 2.7-22.2 4.3q-4 .9-9.3 3.3l-1.9 1.2q-2.8 2.6-4.6 3.1-5.3 1.4-23 4.8c-1.6.3-4.7.6-6.4-1.3q-.7-1-2.7-.6l-15.5 2.6-44.2 9-5.7.8q-8.3 1.6-19.5 4.6a.4.4-6.4 0 1-.5-.5q.2-5-.1-9.4c-.2-1.8-2.3-2.8-4-2.1q-1.8.8-14 2.6-5.8.8-22 5l-.9.1q-1.6 0-2.6.2c-8.4 1.9-12 2.8-19 3.7q-3.5.5-10.7 2.2a4 3.7 23.3 0 0-.9.3q-2.6 1.3-5.5 1.5-2.5.1-2.9 2.5-.8 4.9-.3 9a2 2 0 0 1-1.5 2.4q-3 1-8.6 2.1-3 .4-3 3.4.3 10.7.1 20.4a7.8 7.3 42.9 0 0 .1 1.3q.6 3.3.4 6.1c0 2.2-1.8 1.7-2.7 3.4q-2.6 4.7.8 6.1m-58 76.8q-.3.2-.3.6a1 1 0 0 0 .6.8c1.8.8 3.1 1.3 3.4 3.6a1.5 1.4 26.3 0 0 .3.6q2.2 3.2 5.5 4.4a.6.6 0 0 0 .7-1l-4.2-4.6a.6.6 0 0 1 .6-1c2.5 1 4.8 3 8 3.2a.3.3 0 0 0 .3-.5q-1.9-2.9-4.5-4.7a.3.3-43.4 0 1 0-.5h.3a.5.5 0 0 0 .3-.9q-2.6-1.4-3.6-2.6l-.8-.7-1.7-.6a1 1-68.7 0 1-.5-1l2.7-7v-.9q-1-3.5.5-8.1a2.3 2.1 55.7 0 0 0-.7v-2.5a.7.7 0 0 0-1-.6c-1 .7-.7 2-1 2.7q-.8 2.5-1.1 7-.3 4-1.5 8-.3 1 .1 2.9a1 1 0 0 1-.7.8q-3-.3-2.7 1.3v.6q-.2.7.2.9a.3.3 0 0 1 0 .5m40.7 72q1 4 3 6.8a5 5 23.4 0 1 .8 1.8c.6 3.6.6 4.2 3 7 2.2 2.7 3.6 7.4 5.2 10.2l5.9 10.7q.9 1.6 4 10.4.4 1.1 2.4 3a.2.2-74.9 0 0 .3-.2q-1-4.6-3.3-8.4c-2.7-4.9-4.3-9.8-7-15q-6.6-12-12.5-24.5-.7-1.6-1.3-2.1a.3.3 0 0 0-.5.2m29.6 26.1-3.7-8.9a1.4 1.1 20.5 0 0-.2-.3l-1.7-2.2q-2-3.4-.2-6.8a.6.6 0 0 0-.7-1l-2.8.6a.6.6 0 0 0-.4 1q1.5 3 1.7 3.8.7 4 1.4 4.9 3.6 4.3 6.3 9l.3.1zm-36.2-16.7v-.1a.7.7 0 0 0-1.1-.2l-3.3 2.9q-.3.6-3 1.3-2 .5-3 3.3a.5.5 0 0 0 .8.6q4.9-1.7 9.4-6.4a1 1 0 0 0 .2-1.4m41.6 25q-.3-6.6-1.5-10.3-1-3-1.1-5.4c-.1-2.5-1.4-7.3-4.5-8.2a.5.5 0 0 0-.5.7c2.9 3.4 3.4 6.1 4 10.5a1.1.9 40.9 0 0 0 .1l1.6 4.8a2.2 2.1 57.1 0 1-.5 2q-1.6 2 1.5 6.2a.5.5 0 0 0 1-.4m-39.4-21.6-10.8 7.2v.1a5.6 2.3-33.8 0 0 6-1.2l1.5-1a5.6 2.3-33.8 0 0 3.4-5zm-113.3 86.7a1 1 0 0 0 1.1.2l113.9-73.6a1 1 0 0 0 .3-1.1l-2.7-4.4a1 1 0 0 0-1.1-.2l-45.4 29.3a1 1 0 0 1-1.2-.2l-4.4-7a1 1 0 0 0-1.2-.2l-67.2 43.4a1 1 0 0 0-.2 1.2zm101-50.1q-2.3.7 0 3.5a1.3 1.3 0 0 0 2-.2q.5-1 2.1-2 8-5.7 20.7-13.4a1 1 62.9 0 0 .3-1l-.9-2a1 1 0 0 0-.7-.2l-9.5 6.4q-12 8.3-14 8.9m29.1-9 1.1-3.8-.1-.2a2 1.9-73.7 0 0-2.4 1.4v.2a2 1.9-73.7 0 0 1.2 2.4zm6 26.2a1 1 67.5 0 0 .4-1L567 472.4a1 1 0 0 0-1.4-.4l-24.1 15.6a1 1 0 0 1-1.4-.5l-.9-3.2a1 1 0 0 0-.6-.3q-3.5 1.3-6.8 3.9c-2 1.5-4.6 2.7-6.2 3.8q-8.8 6-18.4 12-2.7 1.6-18 11.5-16.5 10.7-25.8 17c-4 2.7-8.4 4.9-12.3 8.2a1 1 53.3 0 0-.2 1.3l15 23a1.6 1.6-33.8 0 0 2.2.5c17.2-12 32.4-21.2 51.4-33.6q44-28.7 55.3-35.9.9-.5 2.5-1m-114.2 35-.7-.1a.9.9 0 0 1-.4-1.6q2.9-1.9 4.1-3l.6-.5q3-1.5 5.4-4a3.5 3.4-80.7 0 1 .7-.5q4-2.1 8.7-5.5 3.3-2.3 6.7-4a5.4 5.3-76.8 0 0 1-.6q5-4.1 10.9-6.8a2.5 2.3 13 0 0 .4-.2q18.4-13.4 35.9-24.1 1.1-.7 3.1-1.6a1 1 0 0 0 0-1.8c-3-1-4.9 1.1-6.8 3a4 3.8-82.1 0 1-.8.7q-16 9.4-33 21.5c-7 5-16.1 10.4-22.1 14.8q-5.7 4.3-8.3 5.5a3.1 2.9 7.7 0 0-.8.6q-2.9 2.7-6.2 5.4-1.6 1.3-1.9 2.8l-.2.5-2 2.4.1.1zM586.6 486l-.2-.1q-2.4 1-5 .9a1 1 0 0 0-.6 1.1l2 3.7a.4.4 0 0 0 .7-.3q-.7-3.6 3.1-4.5a.3.3 0 0 0 .2-.5zM554 517a6.4 1-21.9 0 0-6.4 1.4 6.4 1-21.9 0 0-5.5 3.3 6.4 1-21.9 0 0 6.3-1.4 6.4 1-21.9 0 0 5.6-3.4m-126 4.1a3.9 1.1-143.3 0 0 2.4 3.2 3.9 1.1-143.3 0 0 3.8 1.4 3.9 1.1-143.3 0 0-2.4-3.2 3.9 1.1-143.3 0 0-3.8-1.4m2.4 12.3a1 1 0 0 0-.8-1l-5.8-.2a1 1 0 0 0-.9.7v.1a1 1 0 0 0 .8.9l5.8.3a1 1 0 0 0 .9-.8M418.5 571q4.2 2.6 7 8a2 2 0 0 0 1.8.8 1 1 0 0 0 .6-1.4q-2.5-4.4-4-6.4-1.6-2.2-3.9-6.4-2.7-5.2-7.5-10.8a1 1 0 0 0-1.7.4l-.4 1.7a4 4 0 0 0 .6 2.8l3.4 5 .2.4q.1 2.1 2.2 3.6.7.6 1 1.3a2 1.9 7.8 0 0 .7 1M531 607.5a.3.3 0 0 0 .5.1l39.4-25.4v-.4l-14.3-26.3a.3.3 0 0 0-.5-.1l-40.4 26a.3.3 0 0 0 0 .5zm-116.4-37.7h-2.1a1 1 0 0 0-.6.4v.2a2.2 1.5-88 0 0 1.4 2.3h.3a2.2 1.5-88 0 0 1.5-2.2v-.1a.5.5 0 0 0-.5-.6m92.8 7.3a3.2 1.2-131.4 0 0 1.2 3.2 3.2 1.2-131.4 0 0 3 1.6 3.2 1.2-131.4 0 0-1.2-3.1 3.2 1.2-131.4 0 0-3-1.7m47.1 46.4a1 1 39.6 0 0 1.1 0q5.2-4.6 11.4-8.4l7.8-5 7.6-5.5a4.9 4.8 14 0 1 1-.6c3-1.3 5.7-3.7 8.6-5.3l4.4-2.5 1-.7q1.3-1.5 3.3-2.3a1 1-14.5 0 0 .4-.8q-.1-1.7-2-2.2a1 1 0 0 0-.8.3c-1 1.5-3 2.2-4.2 3.2q-5.4 4.2-13 8.9c-5.4 3.3-10.2 5.9-15.6 10.2q-6 5-11.6 8.7a1 1 0 0 0 0 1.7zm-64.6 17.9c.7-3.2 0-5-2.6-7.7q-1.8-1.8-3.8-4.7-5.5-8-8.7-14.2-1-2-3.8-5.2a2.6 2.3-81.7 0 1-.3-.5l-1.5-3a10.3 10 9.7 0 0-2-2.8l-4.3-4.2a.7.7 0 0 0-1 .8l27.6 41.6a.2.2 0 0 0 .4-.1m51.9 19.3a1 1 0 0 0 1.3.3l66.5-43a1 1 0 0 0 .4-1.3l-9.1-16.6a1 1 0 0 0-1.4-.3l-67.7 43.8a1 1 0 0 0-.3 1.3zm-150.4-46.2a.5.5 0 0 0-.4 1l10 6.4a3 3 0 0 0 2 .3l.6-.1a.6.6 0 0 0 .2-1q-5.4-3.8-12.4-6.6m210.8 52L591 678.6a2 2-56.8 0 1-2 .5l-.6-.3a1.4 1.4 0 0 1-.4-2.4l3.1-3a6 5.5-6.6 0 0 .8-1c2.1-3 5.4-5 7.1-8.4a1.5 1.4 89.1 0 1 .5-.6l2-1.2a1 1 67.7 0 0 .3-1q-.2-1.1-1.4-2-1-.9-2 .2-1.2 1.2-1 2.4a1 1 68.7 0 1-.3.8q-.2.1-.7 1.1a1 1-80.8 0 1-1 .8l-15.7 1.8a2.6 2.4 26.4 0 0-.8.3q-3 1.4-5.4 1.2a1 1 9.5 0 0-1 .7q-1.4 5.5-8 5-.7 0-3.5 1.8l-.5.6q-1.2 2.2-3.2 2.8a1 1 0 0 0-.7.8q0 .2-1.3 1.9l-.6.3q-3.7 1-5.1 4a1 1 0 0 0 0 1.1l13.1 20.2a1 1 0 0 0 1 .4h.3a1.3 1.3 70.4 0 0 1-2l-4.5-7.4a3 3 0 0 1 1-4.2l.8-.5a2.5 2.5 64.5 0 1 3.6 1.3q1.4 4.2 1.7 9.3.1 1.6 1 2.6c4.3 5.8 11.8 5.5 17.1 1.1q5.9-4.8 3.4-13.1 4.3-2.6 5.7-2.9c5-.9 9.8-4.3 13.9-7.6a2.8 1.7-11 0 1 .3-.3l18.4-11.2a3 3 81 0 0 1.4-2c.8-3.8.5-8.6-.6-12.4-1-4 0-6.6 2.2-9.9a1 1-48.8 0 1 .9 0q2.8 3 6 4.4a4.4 4.3-52.4 0 0 4.2-.6q4.6-3.5 8.5-8.5 4.5-5.7.4-11.6c-3.9-5.5-12.4-3.7-18-2a1.6 1.5-15.9 0 1-2-1l-.7-3a1.3 1.3 71.6 0 0-1.8-1q-6.1 2.6-10.3 7.3-1.2 1.2-1.1 5.3a2 1.9 60.4 0 1-.3 1q-2.5 4.4-7.4 6.8a1.8 1.7 46.6 0 1-1.6 0q-.8-.6-1.2.3c-.8 1.5-2.2 2-4.2 2.9q-4.3 1.8-13.7 8-3.2 2.1-13.1 6.8-1.6.8-2.9 3.1v.3l.5.5a.4.4 35.2 0 0 .6-.1q.5-1 1-1.2 4-1 6.6-2a5.8 5.6 18.3 0 0 1.4-.6q3.9-2.5 8.4-4l.4-.3a1 1 0 0 1 .9-.6q2.3-.2 3.9-1.1 1.5-1 3.4-1 3.8-.1 7.2-3a1 1-35.8 0 1 .9 0l.1.3v.2l-.6 1.5a1 1 0 0 0 .4 1q.9.2 1.3.7a2.5 2.4-36.8 0 0 3.2.4l4.5-3 .8-.3 3.4-.5a.3.3 0 0 1 .2.6q-2.2 1.1-4.2 2.5l-2.6 1.4q-1.7 1-3.9 3.2a1 1 0 0 0 0 .8l.8.4a1.4 1.4 87.9 0 1 1.6 1.6q-1.1 7.3 2.6 12.4a.8.8 61.5 0 1-.4 1.3h-.2a1.3 1.3 64.8 0 1-1.6-.5q-1.4-2.6-2.7-5.5c-1.1-2.6-1-5-.8-7.5a1 1 0 0 0-1-1q-4 .5-5.9 3.2m-63.4-36.3-.3-.1q-5.2 3-10.1 5-2 .9-2.6 1.8a1 1-66.9 0 1-.8.3l-1.1-.2a1 1 0 0 0-1.3 1.2q.3 1.7 1.6 2.2a.7.7 0 0 0 1-.5l.2-1.2a1 1 0 0 1 .8-.6q2.1 0 3.3-1 4.4-3.8 9.4-6.5v-.2zm16.7 46.6 1.4-1.9.2-.2 7.9-5.7a1 1 0 0 0 0-1.8q-2.4-1.6-2.6-4.2a1 1 0 0 0-1.4-.8q-4.1 1.8-7.6 5a4.3 4-80.1 0 1-.6.4l-2.6 1.6a.5.5 0 0 0 0 .8q4.7 2.1 4.9 6.6a.3.3 0 0 0 .4.2m131.6-11.2q0 1.2-1 3a5 5-28.5 0 0-.7 2q-.8 7.8-2.4 13.7-.7 3-4.6 14.3-.3.9.2 2.3a.4.4 0 0 0 .8 0q3-5.6 4.3-11.7l.3-.8q2.5-6.1 2.8-7.6.7-3.5 1.4-5.3 1.3-3.3 1-5.2-.4-3.4-1.5-4.9a.3.3 0 0 0-.6.2m1.1 21.6-.8 1.1a2.1 2-18.2 0 0-.2.5q-2.8 7.7-5 12.3a25 25 0 0 0-2.5 11.1q0 .6.2.9a.8.7-42.2 0 0 1.2 0c.9-1.2 1-2.7 1.3-3.7l6.7-21.8a.5.5 0 0 0-.9-.4M616 712.7c7.3-1.9 16.5-6.4 21.2-12.6a.8.8 0 0 0-1.2-1.2c-6.3 5.1-13.6 8.5-20.5 12.5a.8.8 22.6 0 0 .5 1.4m-69 77.8c4.6 4.2 14 5.4 20.6 6a1.8 1.7 31.9 0 0 1-.2q2.4-1.4 2.7-4.1a.8.8 0 0 0-1-.9l-1.7.5a7 7-49.2 0 1-2.5.2q-3.1-.3-9.1-.5-5.1-.2-9.2-2.3a.8.8 0 0 0-.9 1.3"/><rect width="8.6" height="16.5" x="-4.3" y="-8.3" fill="#8e7b2d" rx="2.3" transform="rotate(-36.7 370.1 -309.4)"/><path fill="#8e7b2d" d="m345.6 174.6-2.2-3.4a3.4 3.4 0 0 1 1-4.6l19-12.3a3.4 3.4 0 0 1 4 .3l3.2 2.7a3.4 3.4 0 0 1-.4 5.4l-20 12.9a3.4 3.4 0 0 1-4.6-1"/><path fill="#667c92" d="M580.1 375.7q4.2-.6 7.2-1.4 2.8-.8 3.6-4a2 2-48.7 0 0-.1-1.3l-2.2-5.9a.3.3 42.8 0 0-.6 0q-.4 1.2.3 2.2l.1.9-.4 1.8a1 1-88.5 0 1-.5.5l-10.4 2-1-.1a1 1 0 0 1-.4-.6c.8-3.2-.5-5.7 3-8.3l.6-.7q.8-1.4.7-3-.5-5-.5-13.4c0-20.3-.8-41.6-.6-53.6q.1-4-1.4-6.7a1 1 0 0 1 .3-.9q.6-.2 1.7-.1l5.5-2q1.5-.5 1.8-2a1.4 1.4 0 0 0-1.4-1.5q-4.4.2-9.2 1.3-3.4-1.4-.8-6.1c1-1.7 2.6-1.2 2.7-3.4q.2-2.8-.4-6a7.8 7.3 42.9 0 1-.1-1.4q.2-9.7-.1-20.4 0-2.9 3-3.4 5.6-1.1 8.6-2a2.3 2.3 0 0 0 1.5-2.6q-.5-4 .3-8.9.4-2.4 3-2.5 2.8-.2 5.4-1.5a4 3.7 23.3 0 1 .9-.3q7.2-1.7 10.7-2.2c7-.9 10.6-1.8 19-3.7q1-.2 2.6-.2h1q16.1-4.3 22-5.1 12-1.8 14-2.6c1.6-.7 3.7.3 3.9 2.1q.3 4.4 0 9.4a.4.4-6.4 0 0 .6.5q11.2-3 19.5-4.6l5.6-.8 44.3-9 15.5-2.6q2-.3 2.8.6c1.5 2 4.7 1.6 6.3 1.3q17.7-3.4 23-4.8 1.8-.5 4.6-3.1l1.9-1.2q5.4-2.4 9.3-3.3c7.4-1.6 15.2-2.7 22.2-4.3q10.2-2.5 16.9-3.6c6.3-1 11.2-2.7 17.4-3.4 8.3-1 14.7-3 24.3-5.2 1.2-.3 3-.3 4.4-.7q16.8-3.8 20.5-4.3 10.8-1.7 20.8-4.2c7-1.8 14.5-2.1 21.4-4.8 1.1-.4 3.1-.5 4.5-.4a2 2-3 0 1 1.9 1.6l1.7 8.3a1.2 1.2 79.9 0 0 1.3 1l15.2-2.2a2 2 0 0 1 2.3 1.5q1.3 5.9 2.2 12.4c1.4 10 4.2 22.3 5.6 30.6q4.2 24.5 7.4 44.3c1 6.2 2.9 13.6 3.8 19.7q3.3 22.2 7.4 42.6.3 1.7-.2 3l-.3.4-18.7 4-.3.3q2 7.3 2.6 11.3.5 3-2.3 3.4-5.7.9-17.4 3.6-3.3.8-5.4.8c-4.1.2-6.2.3-9.7 1.5a5.6 5-55 0 1-1 .3q-6 .8-10.2 1.8c-4.3 1-8.1.8-12.6 1.7q-11.7 2.1-18.5 3.8c-4.3 1.1-6.6 1-11.3 1.4a2.4 2.2 28 0 0-.9.2q-1.7.9-7.2 1.4-2.5.3-12.1 2.6-1.6.4-6.1.6a1.2.8 29 0 0-.2 0l-23.2 4.7a3.5 3.4 40.1 0 1-.8 0q-5.2-.2-9.2.8c-4.7 1.2-9.8 2-13.6 3-5.1 1.3-10.4 1.5-14.6 1.6a2 2-7.8 0 1-2-1.5l-1-4a1 1-10.7 0 0-1-.7q-7.4 1-9.3 1-2.4.2-9 1.6-4.4 1-13.4 2.7a2 2 0 0 0-1.5 1.9l.2 5a2.5 2.5-3.4 0 1-2.3 2.6l-11.2.8h-.1q-17.6 4-30.6 5.6c-3.1.4-6.7 1.8-9.7 1.7l-1 .2q-6.7 2.3-12.4 2a5.7 5.4-48.9 0 0-1.6.2c-3.2.7-6 1.6-9.9 2.1q-6.4 1-13.4 3.2-2 .6-.9 2.5a2 2-50 0 1 .1 1.2q-.6 1.7 0 3.8a2 2 0 0 1-1.5 2.1c-10 1.4-19.6 4-27.1 4.9q-10.5 1-19.8 3.5-3.9 1-18.5 2.6a9.2 8.7 32.3 0 0-1.7.3 62 62 0 0 1-18.7 3.4 2 2 86.4 0 1-1.6-1.4l-1-7-.3-.5-2.8-1h-.8q-4.3 1.6-9.2 1.6a1 1 0 0 1-.8-.8c-.2-7.4-.1-10.8-.2-16l.2-6.8q.2-4-.9-13.3M902.8 181a2 2 0 0 0-2.5-1.8l-28.1 6a2 2 0 0 0-1.7 2.3l3.2 22.2a2 2 0 0 0 2.5 1.7l28.2-6a2 2 0 0 0 1.6-2.3zm-230.2 45a1 1-6.4 0 0-1-.9l-11.2 2q-.4 0-3.5 1.6a1 1 75.9 0 0-.5.9l.9 22a2 2 0 0 0 1.6 1.5q6.9.3 13.9-2.7a1 1-12.9 0 0 .7-1.1zm288 18.7a1.6 1.6 0 0 0-1.8-1.3L945 246a1.6 1.6 0 0 0-1.3 1.9l2 10.8a1.6 1.6 0 0 0 1.9 1.2l13.8-2.6a1.6 1.6 0 0 0 1.3-1.8zM754 293.1a.5.5-10.2 0 0 .8.5q5.1-2 12.2-2.9c5.1-.6 10.2-2.4 15.6-2.8a1.2 1.2-3.4 0 0 1.1-1.3l-.2-7a1 1-9.4 0 0-1.4-.9q-6.8 2-11.4 2.6-3.2.4-4.8 1.2a5 5-55.9 0 1-2.2.4c-3.5-.1-7.4 0-10.3 2a1 1 59.2 0 0-.2.8q1 2 .8 7.4m-49.7 2.6a66 66 0 0 0 1.3 12.8 1 1 0 0 0 1.1.7q5.7-1.1 12.7-2 2.6-.3 3.4-1.2l.4-1q.2-1.8-.2-10.2c-.3-5.6-.5-8.8-1.4-12.7a1 1 0 0 0-1-.7q-5.7 1-12.7 2-2.6.2-3.5 1.1l-.4 1q-.1 1.8.3 10.3m-75.7-13.3-15 2.1a.6.6 0 0 0-.6.7c.4 6.6 0 12.9.5 20q.5 10.3 1 33c.1 3 .5 5 .8 7.9a.8.7 79.6 0 0 .9.6q4-1.2 9.2-1.5 2.3-.2 3.7-1a3 3 0 0 0 1.3-2.4l-.3-7.8a2 2-7.2 0 1 1.5-2l12.7-2.7a2 2-1.6 0 0 1.7-1.7v-2.9c-.4-6.2-.1-11.2-.4-16.3l-1-16.4a1.2 1.2 0 0 0-1.4-1.2c-4.3.6-9 2-13.2 1.2a1.2 1.2 11.5 0 1-1-1.4q1-3.5-.2-8zM888 351.3a1 1 0 0 0 1.1.4q2.2-1 3.7-1.2l28-4.8q3.4-.6 3-3.7-1.6-10.6-2.8-22.3a2 2-86.8 0 0-1.8-2q-1.9-.4-4.2.1l-24 4.9q-3.8.4-6 0a.8.8 0 0 0-.9 1l.6 1.3a2.4 2.2-58.3 0 1 .1.9q.2 7.2 1.3 12.7c.7 4 .3 9.6 1.9 12.7m-207.9 9.5-17.2 2.4a1.4 1.4 87.2 0 0-1.2 1.3q-.4 12.3.8 25.3a2 2 0 0 0 2 1.8h5.4a1.3 1.1 30.5 0 0 .3-.1q5-1.7 9.2-2.1a1.3 1.3 0 0 0 1.2-1.5q-.3-2.5 0-4c.4-3-.6-6.2-.6-9.2.2-4.2-.3-6.4-.5-10.7q0-1 .8-3z"/><path fill="#8e7b2d" d="m285.3 176.3 3 3.2a3.3 3.3 0 0 1-.7 5L270.4 196a3.3 3.3 0 0 1-4.3-.6l-3-3.2a3.3 3.3 0 0 1 .7-5l17.2-11.4a3.3 3.3 0 0 1 4.3.5M902.8 181 906 203a2 2 0 0 1-1.6 2.4l-28.2 6a2 2 0 0 1-2.5-1.8l-3.2-22.2a2 2 0 0 1 1.7-2.3l28.1-6a2 2 0 0 1 2.5 1.8"/><path fill="#8e7b2d" d="M317.4 207.7a2 2-33.9 0 1 2 .4c2.4 2 5.2 7.8 9.4 4q1.8-1.6 4.5-3a4 4 55 0 1 4.3.8l2.7 3a2.4 2.3 52.1 0 1-.5 3.5l-54.6 36.3a1.3 1.3 47.7 0 1-1.5-.1q-2.7-2.2-4.6-5.4a2.3 2.3 0 0 1 .7-3l7.6-5.4a1.6 1.6-36.6 0 0 .3-2.2q-2-2.6-3.1-4.7c-1.2-2 .3-2.6 2-3.8q16.3-11.7 29.3-19.7z"/><path fill="#735b2a" d="m396 212-18 13.4a1 1-26.9 0 0-.2.7c2 6.6 6.2 11.6 10.4 16.8a1 1 0 0 0 1.7 0q3.6-4.6 9.2-8.7 2.8 3 3 8.3l.4 1q.5.7 1.2 1a1.4 1.4 0 0 1 0 2.7q-3.2.9-7.7 1.2l-.8.1-19 5a4 3.9-64.7 0 0-.8.3q-5 2.6-10 4-1.6.4-4 2-3 2-6.2 2.3l17.6-11q7.8-4.8 3.5-11.7a36 36 0 0 0-6.4-7.4 2 2 51.5 0 0-2.5-.3q-3.6 1.8-7.5 5-2.7 2.3-7.2 5-23.8 14.6-47.7 31.8-2 1.4-6.8 2.6 7.7-6.5 16.3-11.6 3.9-2.4 7.3-5l7.2-5 34.1-22.9c1-.7 2.2-2 3-3a1 1 0 0 0-.8-1.6q-.8.2-1.5.8l-.6-5.3a1 1-22.3 0 1 .4-.8l3-2.2.9-.3q7 0 13.6-3.4l-5.8 4.7-.5.6q-.5 1.4.5 2.5a1 1 0 0 0 1 .1q9-7.8 19.8-11.7m-9.8 35.4a2 1.4-11.5 0 0-2.2-1 2 1.4-11.5 0 0-1.7 1.7 2 1.4-11.5 0 0 2.3 1 2 1.4-11.5 0 0 1.6-1.7"/><path fill="#8e7b2d" d="m672.6 226 .9 23.3a1 1-12.9 0 1-.7 1.1q-7 3-14 2.7a2 2 0 0 1-1.5-1.6l-.9-22a1 1 75.9 0 1 .5-.8q3-1.5 3.5-1.6l11.1-2a1 1-6.4 0 1 1 .9"/><path fill="#735b2a" d="m428.3 229.3-1.2 7.7a1.5 1.4 27.4 0 0 .5 1.3q.7.6 2.5 1.3a1 1 0 0 0 .8-.3l.8-1.3a1.8 1.7 19.7 0 1 2.2-1q7.1 2.6 13.3-1.3l.4-.6q.2-.6-.3-1 27.8 7.5 56 14l4 .4 1-.2c7.7-5.8 15.8-10.9 25.8-8.7 7.5 1.6 9.2 11.4 10.9 17.4l.5 1c2.4 2.4 5.8 3.5 11.8 6.5q3.2 1.6 8.8 7.2 0 1.5 1.5 3a1 1 29 0 1 .3 1l-.5 2.7-.3.4-5.5 4.1a3 3 27.1 0 1-1.6.5l-9.4-.3a1.6 1.5-56 0 0-.7.1q-2.3 1.2-7.6 2.1-.7.1-4 1.7a1.8 1.6 31.4 0 1-.8.2l-2.1-.1a1.2 1.2 0 0 0-1.3 1.2l-.2 5.4a1 1 0 0 0 1.2 1q2.8-.8 6.8.8c2.8 1.1 7.6-1.2 9.9-2.4l1-.2c2.3.5 3.8.5 3.8-2.5a.6.6 4.1 0 1 .7-.6l3.2.4 1-.2 7.8-5.2a.6.6 0 0 1 1 .2q1.2 2 1.3 4.5.6 8 .5 18.5 0 4.9.4 12.5.4 8.8.4 12.5-.1 16.8.2 30.8 0 2.9-.5 5.5-.4 2.3-2.8 1.8-1.5-.3-4-.2l-.6-.2v-.5a1 1 0 0 0-.4-.6q-1-.5-2.2-1.7a1 1 57.1 0 0-.9-.2q-1.4.6-2.8-.6h-.2l.1.2 1.2.6a.4.4 0 0 1-.2.7H558q-4-2.5-9.8-5.4l-1.7-.8q-3.4-1-6.7-2.3t-6-4.9q-2-2.4-4.7-9.8a5.5 4.4 27.3 0 0-.3-.7q-1.5-2.8-1-5.6 1.3-9.4.5-14.6l-1.8-10.8q-1-5.3-5.4-8a.8.8 0 0 0-1.2.8q.6 3.4-.4 7.8-.4 1.6 0 3.4l1.5 9.4a5.4 5-51.1 0 1 0 1.2q-.5 12.8-4.7 24.6v1.1c.5 2.5-1.1 4-2 6l-5.7 13.2q-.6 1.3-.3 2.4a1.1 1 58.9 0 1-.2 1q-4.8 5.8-7.8 11.8a1.2 1.2 0 0 0 .4 1.6l3.7 2.1a1.1 1.1 0 0 0 1.7-1l-.2-4.4a1 1 0 0 1 .5-.6l1.3-.2.5-.3q1.3-1.5 2.2-.7a.4.4-55.2 0 0 .6 0q1.1-2.2 3.4-4.2a.5.5 0 0 0 0-.8L510 376a1.2 1.2 45.1 0 1 0-1.7q1-.8 2-.4l5.7 1.9a.6.6 0 0 1 .2 1q-.9.9-1.3 1.7a.4.4 0 0 0 .6.6q7-3.1 15.1-2.4v-.2h-.1q-2 0-3.3-2.4a.7.7 0 0 1 1.2-1q1.6 1.7 5.1 2a1.1 1-61.1 0 0 .7-.3l2.4-1.8a1 1-39.7 0 0 .1-1l-2.2-2.6a1 1 0 0 1 .5-1.5q2.8-.4 5.8 1a2.2 2.1 56.9 0 0 1 .2q2.6 0 4.4 1.5a.6.6 0 0 1-.3 1q-3.9.3-7.5 2a2 2-18 0 0-1 2 1 1-18.3 0 0 1.5.8q4.3-2 7.9-2.2a1 1 0 0 1 .8 1.2q-.4.7-.2 1.3l2 3.8a1 1 80.5 0 0 .8.6q.8.2 1.7 1c1.6 1.6 3.8 1.3 4.4-1.1a1 1 3.9 0 1 .7-.6q.4 0 1 .5a.8.7-23.5 0 0 .6.2l4-.2a1 1 0 0 0 1.1-.7l.8-1.4.8-1 3-1.7a2 2 71.6 0 1 3.1 1.6q.5 5.3.4 8.3c-.1 4.6.3 8.3-.3 14l-.3.9q-.8 1.5-2.2 2.9a1 1-75.6 0 0 .8 1.7q.5-.2 1 0 .4 0 .6.5 1.1 2 .3 4.5-.2.9.4 1.9l.2.6-.5 11.3-.3.1q-1.6-2.3-1.3-5.3l-.1-1.2q-.3-.4-.7-1.8a1.1 1 53 0 0-1.9-.3q-.4.6-1.2.5l-.5-.5-.1-.7a1 1 0 0 0-.8-.8q-2-.5-3.1 1a.5.5 0 0 0 0 .8c1 .7 2 .7 2.9 1.3q1.3 1 1.8 3a.5.5-76.6 0 1-.9.4c-1-1-1.5-2.2-3-2.8q-.9-.3-1.4-1.4a1 1 52.4 0 0-1.3-.1l-3 3.4-.8.5q-3.7 1.2-6 3.5v.4q.2.4.8.3l-7.3.5a1 .8-51.5 0 0-.3.1q-2.2.9-3.9 2.2-4.5 3.4-12.4 8.6c-3 2-4.8 3.8-7.4 5.3a1 1-13.6 0 1-1.4-.8v-.5a2 2 0 0 1 .8-1.6c2.1-1.7 5.3-2.6 7.8-4.5 3-2.3 8.4-5 12.3-7.7l5.1-3.6a.4.4 0 0 0 .1-.6l-4.3-4.1a.8.7-4.1 0 0-.2-.1l-4.5-2.6h-.7q-6.7 2.6-14.6 1-2.9-.5-5-3l-5.9-6.8q-5-5.1-3.7-12.3l.6-3a.2.2 68.6 0 0-.4-.2q-.9 1.2-.7 3.8a.6.6 0 0 1-1.2.3q-.6-1.6-3.3-1.8a.1.1 0 0 0 0 .2l1 .4.6.7 2.1 5q.3.5.1.7a1.5 1.5 44.5 0 1-2.3 0q-1.3-1.6-4.4-4.2a.4.4 0 0 0-.6.2l-.1.4h-.4c-2-1.6-3.3-1.8-4.7.4-1.8 3-4.7 5.4-7 8.4q-1.9 2.7-2.5 3.1v.3l.3-.1h.2l3.8 4.8a2 1.4 68.1 0 1 .2.2q2.8 5.6 7.1 10.2a1 1 0 0 1-.1 1.2l-.4.3a1 1 0 0 1-1-.1q-.5-.6-1.2-1.1a1.8 1.7-84.6 0 1-.6-.8q-.5-1.2-2.2-2.4c-1.3-1-3.7-.6-5-.8a1 1 0 0 1-.8-.5L483 418a.4.4-48.7 0 0-.7 0q-.7 1.7-1.5 2.2-2.4 2-3.2 4l-1 1.9v.3l.1.2 3.5-2.6a.4.4 0 0 1 .6.3q0 .8.8 1.2a1 1-71.5 0 1 .3.6q0 .4-.3.6t-.4 0q-1-.5-1.5-.5a1.4 1.4 0 0 0-1 2.1l6.2 9.6h.4q1.8-4.4 6.6-3a2.6 2.5 51.9 0 0 .7.1h5.7a.5.5 21.7 0 1 .4.9q-5 5.2-11.6 10.2-7.7 6-11.4 8.4l-9 5.8q-2.7 1.9-9.4 5.1-9.2 4.5-13.6 6.3-2.4 1-3-1.3a.3.3 0 0 0-.6 0l.2 1.4.1.4 2.5 3.3.2.5-.1 3 .3.7c1.4 1.2 1.3 4.8 1.2 6.8l-.2.4q-.3.2-.7-.1a.3.3 14.2 0 0-.4.2l.3 2a.5.5 0 0 0 .7.3l19.8-13.1v-.1q-.8-.2-.7-.8c.2-4.3-.2-6.7 2.1-10.3a.9.9 0 0 1 1.7.5l-.2 5.6a1 1 0 0 0 .8.6l1.7-.3a.5.5 0 0 1 .6.6v.2h.1c5-2.6 8.7-5.8 13.4-8.4q7.6-4.2 14.6-9.8c2.7-2.1 5.2-3.4 7.3-5.2 3.2-2.7 8.5-6 11-7.6a1 1 0 0 0 .2-1q-3.5-4-8-8c-3.5-3.2-9.8-7.6-14-12.2q-2.2-2.5-4.7-6.2a.6.6 0 0 1 .8-.9q.4.2 1.4 1.2 3.4 3.1 9.1 7.9 3.6 2.9 7.8 8.3l.4.3 1.5 1.1.6.7q1.5 2.6 3 3.8 2.4 2.1 2.5 3.8a1 1 0 0 0 .6.7q2.3.4 2.4 3a.5.5 5.3 0 1-.6.5q-.8-.2-1.4 0l-1 .3q-5 2.8-16.2 9.8c-6.1 3.9-11.3 8.4-17.1 12.2q-21.4 13.6-36.9 24.2l-1 .5q-2.4 1.1-3.1 2-2.6 2.8-3.3 3.2-12 7.1-26.3 16.9-1.8 1.2-12.8 7.1a.3.3 0 0 0 0 .6h.3a.3.3 0 0 1 .4.4l-.3.6a1 1 0 0 0 1 1.6l2.8-.4a.7.7-69.1 0 1 .6 1.2q-.6.6-2 1.1a1.4 1.4 0 0 0-.8 2l1.7 3.4a.5.5-88.8 0 1-.7.7q-3.5-2-6-2a3 2.9 55.9 0 1-1.3-.2l-9.5-4.3-28-9.8q-3.2.3-6.6-2.3-3.6-3-6.6-3.7-18.6-5-35.2-11.8l-8-3q-3.2-1.1-9.7-4a14 13.7 63.9 0 0-2-.7l-19.8-5.3c-3.1-1.9-6.2-1-8-5.2q-1.4-2.7-3.3-5.1-.4-.6-.2-1t1-.2q1.7.9 4 2.9a2.2 2-84.8 0 1 .5.6q.8 1.6.7 3a.4.4 0 0 0 .9.1q.8-2.8.4-7.5a2 2-32.6 0 1 .3-1.4c2.3-3.8 4.5-8.8 7.1-9.3a.3.3 0 0 0 .2-.5h-.5a.3.3 16.1 0 1-.3-.4l2.8-4.3.2-.7q.2-1.4 1.2-2.6a1 1-42 0 0 .1-1.5q-3.2-4.4-4.7-5.9-.7-.6-1.2-.2a1 1-35.2 0 1-.6-.1l-3.2-4.5a.5.5 0 0 1 .3-.8q2-.5 4.3 0a1 1 1.5 0 1 .6.6q.1 1.3-.4 2.2a.2.2 0 0 0 .3.3q1.5-1.1 2-2.8l.4-.7c2.5-1.9 2.8-3.3 2.8-6.7a1 1-6.5 0 1 .7-1h.6a.2.2 0 0 0 .2-.3l-2.8-1.8-.5-.7v-.1a.1.1 0 0 0-.2-.2q-.8.3-2.2.3-1 0-.7-1.4h-.2q-.7.9-1.3.8-.8-.1-1.5-.7-3.6-2.9-7.7-7.9a1 1-47.9 0 1-.1-1.3l6.5-9.3a2.5 2.4 68 0 0 .5-1c.6-4.1 4.6-2.6 5.7-5.6q2-5.6 1.7-13.1a1 1 80.6 0 1 .9-1.2h.2a1 1 82.8 0 1 1 .7l-.3 8.7-.1.7q-1.5 4.1-.8 8.3a.7.7 0 0 0 1.3 0q.5-1.5 2-2.5l.3.3q0 1.1 1.5 2.7a1 1 28 0 1 .3.9q-.4 2.7 1.2 4.8l.2.8-1.9 14a.7.7 0 0 0 1.1.7q.4-.3.7-.9 1.2-3 1.9-7.4a1.1 1.1-59.5 0 1 2-.5l3.5 4.5a1.5 1.4-66.6 0 1 .3.8v2.4q0 .8.8 1.2l.4.6v1.1l.2.2q-.1-1.4 1.1-1.5a.3.3 0 0 0 .2-.4l-.2-.4a.6.6 12.9 0 1 1-.5c4.3 3.2 9.4 6.9 14.7 7.9q10 1.8 12.2 1.6 5.4-.3 10 .4a.6.6 0 0 1 .1 1.3l-10.6 3a.6.6 0 0 0 .1 1.2h1.9q10.7 0 21.4 1.7 1.4.3 4.4 1.8l.6.8q.9 2.7 4.5 3.7 6.6 2 10.5 2.3a2.6 2.5 61.6 0 1 1 .3c2.2 1.2 6.4 1 9.5.8a4 3.9 51.5 0 1 1.2.2q1.8.6 4.4.4 2-.2 1.5 2.5a.4.4 0 0 0 .6.4c1.4-.9 3 0 3 1.7v1.4a.6.6 0 0 0 1.2-.1l.4-3.1q.3-1.5-.5-1.7-1.2-.3-2.2-.1a.1.1 0 0 1-.1-.2v-.3q3.6-.4 5.3 0c3.9 1 7-.1 11.2 0l.2-.1-.1-.1q-.9.1-2.1-.5a.3.3 0 0 1 0-.6q2-1.4 4-.9l.6.6 2.2 4.2a.4.4 0 0 0 .7 0q.2-1.1 1.8-1.2a1 1 0 0 0 .6-1q-.6-2.7 2.6-4.6l7.6-2.1a2 2 0 0 1 2.5 1l1 1.6a1 1 0 0 0 1.4.4l.4-.2a1 1 58.2 0 1 1.1.3q.8 1 .7 2.5l.1.8 1.9 2.8a1 1 75.4 0 0 .9.5q1 .1 1.3.9a.2.2 0 0 0 .5 0q.1-.8-.3-1.5-3.8-5.8-5.7-9.4a2 2 0 0 1 .3-2.5q1.8-2.1 4.5-2.5l.5-.2 11.7-6.5 3.4-1.2a3.7 3.5 16.7 0 0 .9-.4c2.5-1.8 5-3 7.5-5q11.6-9 20.8-17.8c2.2-2 5.1-3.6 6.7-5.8q3.4-5 8.8-11.1 3.6-4.2 6.3-8.3l5.7-8.8q5-9.8 7.7-16.2c3-6.8 3.8-12.3 6.3-20.9v-.1l1.5-17v-2q-1-4.3-1-9.1.1-5.7-2.3-10.3-1.4-2.7-2.6-5.6a1 1 0 0 0-.7-.2l-.1.3a.4.4 0 0 1-.8.1l-11.4-15.9a5.2 5-88.6 0 0-.8-.9l-4.2-3.6a.1.1 0 0 0-.2.1l-.1.4a1.2 1.2 0 0 1-1.7.1l-7.4-7.3c-2-2-5.6-4.3-7.3-5.4q-2.8-1.8-4.6-2.5-2.3-.9-3.2-1.6-1.5-1.1-3-1.8l-11.5-6q-.8-.5-5.5-2a2.7 2.6 53 0 0-.9-.2c-2 .1-3.4-.8-5.2-1l-13.7-2.5q-1.6-.4-2-1.4-.3-.8-2.2-.8-5.2 0-12 .8a1 1 0 0 1-1-1.5q1-2.2 3.2-3.7a1 .8-79.8 0 0 .1-.1l6.4-7.5v-.1l2.2-4.7zm109.2 38.2v.4l.1.1q.2-.2 0-.5zm-25 18.3q.3 2.5 4.4 1.6a.5.5 63.4 0 0 .2-.8q-1.4-1.7-3.2-2.4a1 1 0 0 0-1.4.8v.8m4.4 6.9.8-2a1 1 0 0 0-.3-.6l-.2-.1a3.7 1.5 22.3 0 0-4 0 3.7 1.5 22.3 0 0 2.8 2.9h.3a1 1 0 0 0 .6-.2m35.1 2.9q1.3 2.5 4.3 2.4a1.5 1.5 0 0 0 1.4-1.5v-1.6a1 1 0 0 0-1.3-1l-4 .9a1 1-19.7 0 0-.4.8m2.3 5.5-8.5-2a2.4 2.3-37.4 0 0-.6 0h-9.6l-.1.1.1.2 5.2.6a2.7 2.6-21.7 0 1 1.2.5c1.6 1.2 3.3 1.4 4.3 3.1q1 1.6 2.4 2.2a1.7 1.7 0 0 1 .5 2.7q-2.2 2-3.6 5-1 2 .6 2.9a1 1-77.6 0 1 .7 1v.6l.2.1 4.9-4.4.4-.8.3-3.4c.2-2.5 1.7-5.6 2-7.7a1 1 0 0 0-.4-.7m-34.5-.5a1 1 0 0 0-.2 1.8l5.2 2.3a1.3 1.2 53.1 0 0 .6 0q3.6-.3 5.6 1l5.8 3.7a1.4 1.4 43.1 0 0 1.5 0 .7.7 45.8 0 0 0-1.2l-6-4.5a4 4-27.4 0 0-2.6-.9q-3.5.2-6.7-2a2.2 2-23.8 0 0-1-.4zm14.3 19.3 5.9 5.2a1.2 1.2 0 0 0 2-.5 2 2-62.9 0 0-.7-2.5q-3.7-2.4-7-2.8a.3.3-20.9 0 0-.2.6m8.7 8a.9.9 0 0 0-1.6-.4l-3.6 7.1a.7.7 0 0 0 1.1 1l2.3-1.8a1.3 1.2 66.4 0 0 .5-1.2q-.5-2.3 1-3.6l.3-.8zm-.2 22.7 1.3-15.8h-.1a3 2.7-85.3 0 0-3 2.6l-.8 10.1a3 2.7-85.3 0 0 2.4 3.2.1.1 0 0 0 .2-.1m15.6 34.5a1 1 0 0 0-1.1-.8l-3 .4a1 1 0 0 0-.8 1.2v.7a1 1 0 0 0 1.2.8l3-.5a1 1 0 0 0 .8-1.1zm3.2 15.8 2.2-1.2a1 1 0 0 0 .2-.7l-.1-.2a2.5 1.7 61 0 0-2.7-1.3 2.5 1.7 61 0 0-.4 3l.1.2a1 1 0 0 0 .7.2m-2 2.8a.2.2-74.9 0 0-.4.2l-1 8.6-.2.2q-1 2-1.8 2.8-1.7 1.6-8 5.7a.3.3 0 0 0 0 .6l.4.2h.3l8-3.8a5 5 0 0 0 2.8-3.8l.8-9.5a1 1 14.4 0 0-.6-1zm-15.6 10.5c1.6 4 11.2.9 12.5-2.5a1 1 0 0 0-1.2-1q-3.2 1.7-6.9 1a3.7 3.6 43.2 0 0-1.2 0l-2.3.5a1.5 1.5 71.3 0 0-1 2m-68.2 2.2-5.1 4.2a2.7 2.4-74.8 0 1-.4.3l-2.6 1.3a1 1 0 0 0-.6 1l-.1 2.4a.4.4-13.8 0 0 .5.3c3.9-2.2 6.5-5.6 8.7-9.1a.3.3-3.8 0 0-.4-.4m-9.5 22 2.8 1.5a1 1 0 0 0 .7-.2l.2-.3a2.2 2-62.3 0 0-.8-2.9h-.2a2.2 2-62.3 0 0-2.8 1l-.1.2a1 1 0 0 0 .2.6m-7.1 3.9a2.3 1.8-163.4 0 0 1.7 2.4 2.3 1.8-163.4 0 0 2.8-1 2.3 1.8-163.4 0 0-1.8-2.5 2.3 1.8-163.4 0 0-2.7 1m-3.4 2.8q-3.5 0-5.8 3a1 1-41.5 0 0-.1.8q1.6 2.6 2.9 3.5a3 3-49.2 0 0 3.8-.3q.2-.2-1.1-3.1a1 1 0 0 1 .2-.9q1.6-1.2 1-2.5a1 1 74.5 0 0-.9-.5m-147.9 35.1-4.8-.6a.4.4 43.5 0 1 0-.7q5.5-1 8-2 1.4-.5 1.4-2.1a1 1 0 0 0-1-1q-2.8-.1-5.7-.5c-6.8-1-3.1-8.5-1.3-12.4l.1-1.1-1.5-7.3a2.1 2-11.9 0 0-2.5-1.6h-.5a2 2 0 0 0-1.5 2.4q.4 1.3 1.1 2.3a.7.7 77.9 0 1-.7 1.1h-.3a.3.3 0 0 0-.4.4q2.4 3.9 1.5 6.8-2 6.5-1.5 8v.3l-1.5 3.6a.6.6 0 0 0 .8.8q3.1-1.2 7.2-.6a.8.7 13.8 0 1 .6 1l-.2.3a.8.7 5.5 0 1-.4.3l-6.2 2.6-.7.2-2.7.4 3.4.5a1 1-10.7 0 1 .9.6q.6 1 2.4 1.1 4 .3 6.3-2a.4.4 0 0 0-.2-.8m54.4 2.9.6 1.5a.7.7-54.4 0 0 1.4-.2v-3.6q-.8-7-2-14l-.4-.7q-2.8-3.2-2.1-6.7a1 1 0 0 0-1-1.3c-2.7-.3-8.1-.2-12-1q-3.1-.8-4.6-.5-6.2 1.3-12.1-1.2l-6.4-2.6a1 1 14.5 0 0-1.1.6 1.5 1.4 18.3 0 0 .7 1.6l7.9 3.8c4 2 8.7 2.4 12.5 3.4 5 1.4 5 5.2 4.7 9.4a1 1 1.8 0 0 1.1 1.3c1.2 0 1.7 0 2.7 1q3.1 3 5.6 6.5l.3.9q.7 6.6-.5 13.4-.4 2.7.3 4.6a.5.5 0 0 0 .9 0l1.5-8a1.2 1 51.3 0 0 0-.4q-.3-4 1.1-7.8a.5.5 43.2 0 1 .9 0m4.3-19.1c-.9-1.4.6-4.3-2.1-6a.3.3 0 0 0-.5.4l.8.5a1 1 9.6 0 1 .7 1l1.2 8.7.3.3h.3a.5.5 87.8 0 0 .5-.6l-.4-9.2a.8.7 84.8 0 1 .7-.7q3.8-.6 6.3.6 1.4.8 6 5.4l.5.9q.6 2 .4 4.7l1.5 12.9a1 1 0 0 1-1.9.7q-3.2-4.7-4-9.2-.5-2-1.5-3.8-1.1-2-.8-4.5l-.2-.9-1-1.6a.5.5 0 0 0-1 .3q.7 3.8 1.2 8c0 1 .8 1.8 1.2 2.7v1l-2.2 7a.5.5 0 0 0 .8.5q1.3-1 1.7-2.8a1 1 0 0 1 1.7-.6q1.8 1.4 1.6 3.4a1 1 0 0 1-.7.4h-.5a.4.4 0 0 0 .4.6q2.2-.2 4.6.7a1 1 0 0 1 .4 1q-1.2 5 .3 9.6a1.6 1.5-55.7 0 1 0 .4l.4 8.4a1.1 1-62.1 0 0 .1.4l1.3 2.8a.4.4 0 0 0 .7-.1l-.8-21.8v-.2q.5-.8 2.3 0a1 1 0 0 0 1.2-.8q-1.2-11.4-6-21.6c-1.2-2.4-.8-5.5-5-5.4q-6.1.2-8.7.1a1 1 0 0 0-1.2 1l-.2 5.3zm-52.3-1.6a1.5 1.3-71.7 0 0-1.6 1 1.5 1.3-71.7 0 0 .7 1.7 1.5 1.3-71.7 0 0 1.6-1 1.5 1.3-71.7 0 0-.7-1.7m81.3.5a1.4.9-95.5 0 0-.7 1.5 1.4.9-95.5 0 0 1 1.4 1.4.9-95.5 0 0 .7-1.5 1.4.9-95.5 0 0-1-1.4m-76.7 3.2a3 1.5-124.1 0 0 .5 3.2 3 1.5-124.1 0 0 2.8 1.7 3 1.5-124.1 0 0-.4-3.3 3 1.5-124.1 0 0-2.9-1.6m-1 9.7a4.4 1.6-52.4 0 0-3.9 2.5 4.4 1.6-52.4 0 0-1.4 4.4 4.4 1.6-52.4 0 0 4-2.5 4.4 1.6-52.4 0 0 1.3-4.4m31.5.3a2.2 1.5-147.2 0 0 1 2.4 2.2 1.5-147.2 0 0 2.6 0 2.2 1.5-147.2 0 0-1-2.5 2.2 1.5-147.2 0 0-2.6 0m-20.5 17.5c2.2.7 2.8 1 4.6-.8q3.2-3.4 4.4-5.4a3.3 3.1 85.5 0 1 .6-.7q2.4-2.2 3-4a1 1 0 0 1 2 .1v1.3l-8.4 9.7a1.1 1.1 0 0 0 1 1.8l1.9-.2a6 6 0 0 0 3-1.5l10.4-9.5a1.1 1-59.8 0 1 1-.2l3.3.7a.8.7 86.1 0 0 .8-1q-1.4-3.8-4.9-3.3a1.3 1.2-36.1 0 1-.6-.1l-2.7-1-.5-.1q-5.1-.1-6.5-.6-6-2.1-9.7-2.7a1 1-24 0 0-.7 1.7q2 1.2 5.2 2a1.4 1.4 32.3 0 1 .6 2.5q-4.5 3.8-8.4 9.8a1 1 25.2 0 0 .6 1.5m98.2-15.3-4.2 1.4-.1.4.2.2v.5q-.5 1.9 0 3.6a2.7 2.6 46.2 0 1 0 1.4q-2.2 7.4-2.4 9.5-.8 8.8-1.8 10.4l-.3.4q-.6.5-.6.7a.3.3 59.9 0 0 .6.2q.7-1.1 4.8-3l19.2-13.6a1 1 56.1 0 0 .2-1q-3.2-4.9-6.2-13a1 1 0 0 0-.8-.2q-.9.5-1.7 2l-.9.6-4.2 1.4a1.2 1.2 0 0 1-1.5-1.3v-.2a.3.3 4.1 0 0-.3-.4m-19.4 21 1.7-.5a2 1.9 51.1 0 0 .2-3.3q-1.7-1.4-2.6-3.3a1 1-9.6 0 0-.7-.5q-3.7-.3-5.7 2.8a.7.7 0 0 0 .8 1l3-1.5a2 2-20.1 0 1 2.5 1.1q.6 2.5.4 3.9a.4.4 84.6 0 0 .4.4m-27.6-6.9a1.4 1-80.8 0 0-1.3 1.2 1.4 1-80.8 0 0 .8 1.5 1.4 1-80.8 0 0 1.3-1.2 1.4 1-80.8 0 0-.8-1.5m-3.7 17.6 1.1.9h.4l.5-.7a5 1-52.8 0 0 2.4-4.6l-.2-.1a5 1-52.8 0 0-3.8 3.5l-.5.6z"/><path fill="#8e7b2d" d="M447.3 234q.5.5.3 1.1l-.4.6q-6.2 3.9-13.3 1.3a1.8 1.7 19.7 0 0-2.2 1l-.8 1.3a1 1 0 0 1-.8.3q-1.8-.7-2.5-1.3a1.5 1.4 27.4 0 1-.5-1.3l1.2-7.7zM219.5 258.6l-3-4a3 3 0 0 1 .8-4.1l20.2-12.2a3 3 0 0 1 3.6.5l3 3.2a3 3 0 0 1-.6 4.2l-20.2 13.1a3 3 0 0 1-3.8-.7"/><rect width="17.2" height="14.2" x="-8.6" y="-7.1" fill="#8e7b2d" rx="1.6" transform="rotate(-10.6 1833.1 -5011.8)"/><ellipse fill="#8e7b2d" rx="2" ry="1.4" transform="rotate(-11.5 1422.3 -1784.3)"/><path fill="#735b2a" d="M463.1 368.4q0 .8-.8 1.9a2 1.7-70.4 0 0 1.1 3l3.6-.7a.4.4 0 0 1 .4.6q-.1.2-.7.3l-.3.5q-.9 2-3.2 4.2c-1.7 1.5-2.7 3.7-5.6 1.9l-.8-.2q-1.8 0-2.4.4a1.2 1.2-40.7 0 0-.1 2l2 1.5a1.2 1.2 50.1 0 1-.2 2q-3 1.6-4.5 4.5a2 1.9 0 0 1-.8.8l-2.6 1.3a.6.4-74.3 0 0-.1 0q-2 2.5-4.9 3.7a4 3.9 14.7 0 0-1 .5q-5 3.8-6.3 4.5c-2.7 1.6-4.5 5.9-8.3 5h-.5l-10 4.9q-1 1.3-3.5 2.4-5.2 2.4-10.3 3.9-2.3.6-2.5 2.7a1 1 0 0 0 .5.6l2.7.6a.5.5-67.6 0 1 .3.7q-1 1.7-3.1 2.3l-13 3.6q-7.8 2.3-15 2.5a1 1 0 0 1-.5-1.7q.9-.5 1.4-1.8a1 1-53.4 0 0-.1-1q-1-1.1-1.2-2a1 1 0 0 0-.7-.6q-4.8-.3-5.1-.2-5.3.5-15-.7-4-.5-5.3-2a1 1 0 0 0-.9-.3c-2.6 1-3.4-.9-5.5-.5a1 1 78.1 0 1-.8-.5q-.2-.8-.1-1.2a.6.6 0 0 0-1-.6q-1 1-2.4.8-8.6-1.8-15-7.8-.9-.8-1.2-1.5a1 1-7.4 0 0-.7-.5l-2-.3a1.6 1.5-20.5 0 1-.7-.3q-7.4-6-12.5-13.1c-3-4-4-8.2-6-12.6q-1-2-1.6-5.5-2-10-1.4-20.4a6 5.8-35.7 0 1 .2-1.3q.9-2.9.5-6.5l.2-1 .7-1.5.1-.7q-.2-1.6 1.2-6.6l2.7-9a1.5 1-34.1 0 1 .1-.3l3.3-6.4.3-.3q1.2-1 2.4-4.4l.6-1.2q9-12.3 14.5-18.4 4-4.4 11.8-11.3 2-1.9 8-5.7 3-2 7.9-5.9a7.2 6.9 14.4 0 1 1.9-1q4.3-1.7 7.7-4.9a1.6 1.4-79.1 0 1 .4-.2l10.4-5.7h.2q5.3-.7 8.6-3.1 1.3-1 3.3-1.3 4.1-.4 9.5-2l1-.1c4.6 0 11.4-1.8 17-2h5.9a7 5.9 33.8 0 0 1-.1q4.3-1 5.9-.7l9.2 1.3q5.6.8 7.6 1.6c2.3 1 7 1.9 9.9 3.4 4 2 9 3.3 12.8 5.8 2.9 2 5.8 5 9.4 6.6a.6.6 0 0 0 1-.7l-2-9.3a.6.6 0 0 1 1-.6l15.8 13.8a1.3.6 63.4 0 0 .2.1q4.6 2.7 7.3 6.7l.2 1q0 1-1 2l-.3.8q0 2 1.2 5.4 2.8 7.4 5.4 16.2a1 1 69.9 0 0 1.1.5 1 1 0 0 0 .7-1.2q-1.3-4.4-1-6.2l.6-6.4a.4.4 0 0 1 .8-.1c1 2.2.5 5.6.8 8.2l.2 1q1 1.9.8 4.5a1.1 1 69 0 1-.3.7q-1.5 1.4-1.6 2-1.5 4.9-1.8 11.4a4.2 4 40.6 0 0 0 1.1q.9 3.4.8 8.6l-.2.9q-.4.7-.4 1-.7 5.1-1.7 8.6a1 1 0 0 1-.7.7q-.5.2-1-.3a1.6 1.4 44.9 0 0-2.2-.1q-1.1 1.3-1 3.5a1 1-28.5 0 1-.2.9l-.4.5a.3.3 0 0 0 .5.3l.2-.1a1 1 0 0 1 1.4 1.4l-2 2.6a1 1-55.3 0 1-1.3.2l-.3-.1a1 1 0 0 1-.2-1l1.5-2.4v-.1l-.2-.1-.4.1q-.2 1-1.4.8a.4.4 16.1 0 1-.4-.6q1-2 .7-5.1l.1-.7 2.3-4a2.9.9-61.7 0 0 .2-.3q2.5-6.5 2.4-13.7 0-3.2.6-8 1.4-11.4-3.2-23a3 3 0 0 0-4-1.6l-4.7 2.2a2 2 55.9 0 0-.6 3.2q1.8 1.8 2.6 6.7l1.5 9.3q.6 3.4-2.4 4.8l-7.2 3.4a2 2 0 0 1-2.7-1l-.5-1.1a1.7 1.7 56.7 0 0-2.8-.6q-4.4 4.1-10.5 6.7l-1.6.6h-1.2a1 1 0 0 0-.4 1.2q.4 1.4 2.7 15.7 2 11.5-1.5 21.1c-.6 1.7-.4 4.2-1.5 5.5-1.9 2.1-2 7.2 2.4 6.2a2 2 72.5 0 0 1-2.2q-1.1-3 .6-6.3a.1.1 0 0 1 .2 0M410.7 258a2.8 1.6-116.4 0 0-.2 3.2 2.8 1.6-116.4 0 0 2.7 1.9 2.8 1.6-116.4 0 0 .2-3.3 2.8 1.6-116.4 0 0-2.7-1.8m-55.4 31.5q0-.7.3-1.3a.2.2 0 0 1 .4 0l-.3 2.1a1 1-9.7 0 0 1.3.9l2.7-1.4.4-.4.2-.8a.8.8 0 0 1 1.2-.7l5.6 3a.7.7 51.5 0 1-.1 1.2q-2.9.8-2.9 2.6a3.4 2.5 6.4 0 0 2.9 2.6q1.8.3 2.9-1.2a1.6 1.5 66 0 0 .3-.8l.1-2.5.4-.7q1.7-1.5.4-3.9-1.7-2.9-5-9.7a.7.7-14 0 1 .5-1l6-.1a1 1 12.4 0 0 .7-.4q.4-.9.4-1.7a.9.9 0 0 1 1.5-.7q1.3 1.3 1.6 3.4.5 4.7 1.7 9.5 0 .5 2 2.6c.5.5 1 1.6 2.1 1.5q1.2-.2 1.6-1.5c.6-1.6-1-3.2-.6-4.4.4-1.5 1.4-2.8.6-4.4l-2.6-5.2a2.6 2.3 32 0 1-.2-.7q-.3-2.3 1-4.7a2 2 0 0 0-1.7-2.8l-4.2.2a.5.5 0 0 1-.4-1q6-4.3 12.6-4a1 1-16.7 0 1 1 .5q1.5 2 1.8 2.8.2.7 2.2 2c2.4 1.3 1.1 3.3 2.5 4.8q2.7 2.9 2.2 5.8l-.2.7q-1.4 3.8-2.3 8.4a2 2 20.9 0 0 .7 1.6l.4.3a1 1 0 0 0 1.6-.8l.7-5.5.1-.1q1-1.1 1-5 0-2.7 2.4-4.9l.9-.4q3-.4 3.2 2.5.2 5.8-1.2 12.8a.5.5 0 0 0 .7.5l.9-.7a2 2 0 0 0 .8-1.2l1.4-10.7a2.3 2.1 40.8 0 0-.1-1q-1.4-3.7-1.4-5t-1.5-3.6q-2.2-3.7-.3-8a.6.6 0 0 0-.8-.7q-2.8 1-6 1a3.7 3.3 35.5 0 0-.7 0l-3.4.9q-.8.2-1.4 0a1.5.2 28.4 0 0-.9-.4q-2.4-.3-4.9.7-3.6 1.4-9.7 2.8-3.3.8-4.2 2l-.3.3-7.7 2.3-1.1.6-4.8 3.6a1 1 0 0 0 1 1.7l7-3.5.3.1.1.5q-5 2.8-8.4 6.2a1.6.7-52.5 0 1-.2.1L345.3 288a1.8 1.5-2.6 0 0-.3.3q-2.7 3.1-6.4 5.1-2.6 1.4-2 4.7 1.4 8.3 9.6 9.7 1.3.2 3.2-2l.2-.8q-.2-2.6 1.5-5.4.3-.6-1.5-3.5a1 1 0 0 1 .1-.6l.9-.8a1.7 1.5 68.8 0 0 1-3h-.8a1 1 78.2 0 1-.7-.5q-.2-.8 0-1.8t1-.7q.7.2 1 .8a1.2 1.2 40.8 0 0 2-.1q.2-.3.6-.3a.2.2-3.2 0 1 .3.2v.3zm77.5-20 2.8-8a.1.1 0 0 0 0-.2 2 1.9-70.6 0 0-2.5 1.2l-1.6 4.6a2 1.9-70.6 0 0 1.1 2.5.1.1 0 0 0 .2 0m-5.5.4a1.4 1.4 0 0 0 0 2.4l4.8 2.8a1.3 1.3 0 0 0 1.5-2l-3.8-3.2a2 2 48 0 0-2.2-.2zm3.1 13.3c-.8-1.7.3-3.3-2-4.4a1 1 32.9 0 0-1 .2q-.7.8-.5 2.4l.5.7 2.4 1.6a.4.4 0 0 0 .6-.5M370 302.9h3.7a.3.3 0 0 0 .3-.4v-.1a4.7 2.1 89.3 0 0-2.2-4.7 4.7 2.1 89.3 0 0-2.1 4.7v.2zm3 49.4-13.6 10.1-.2.6q.7 9 4.5 19a.4.4 0 0 1-.4.4q-.8 0-2-1.2l-.3-.8q-.6-6-3.4-8.4-1.9-1.7-2-2a1 1 0 0 1 0-.9q1.6-2.6 2-6a.2.2 0 0 0-.4-.2l-8 7.3v.5q2.2 3.8 2.2 8.3a1 1 15.6 0 0 .5.9l10 6 1.2.3 4 .6a.8.4-16 0 1 .1 0q10.1 3 18.5 1.5 4.9-1 6.3-.6a1.5 1.4-49.6 0 0 .9 0l13-5.8.2-.1c4.6-1 7-3 11-5.6 3.7-2.3 6.3-5.7 9.8-8.3 2.3-1.7 4-4 6.2-5.8 6.5-5.3 7.5-14.2 9.6-21.3l.1-1.1q-.2-8.5 0-10.4.2-3.4-.3-7.1c-.6-3.8 1.3-9.5-2.1-13.8l-.8-.6-3.6-1.3c-2-.9-3.6-3.2-5.9-4q-1.1-.5-6.9-2.2a27.5 27.4-36.2 0 0-7.4-1.2h-6.9a2 1.6-29.6 0 1-.4-.1q-3.5-1-6.4-.1h-.7l-3.2-1.2a1 1 42.8 0 0-1 0q-1.8.8-3.3.1c-2-1-2.9.9-4.6 1.5q-2 .7-3.3 2l-1.3.7q-4.9 1.5-15.5 5.7c-3.7 1.5-6.4 6-11.2 3.9a.3.3 11.8 0 0-.4.2q0 2.2-2.3 3c-2 .7-1.6 3.3-2 4.6q-.5 1.3-1.5 1a1 1 21.6 0 0-.8.4q-2.4 3.7-3.4 4.3-4.3 2.3-4.9 7.4a1.8 1.8 0 0 1-2.6 1.5q-2.6-1.3-7-1.5a2 2 0 0 0-2 1.3q-.8 2.6-2.6 4a1 1 0 0 0 0 1.3l6.2 4.6.7.1 4-1a.5.5 0 0 1 .6.5l-1.1 15.3v.2l.9 3.3a1.2 1.2 77.9 0 1-1 1.5q-3 .5-4.6 2.2a1 1 0 0 0 .8 1.7l5.2-.2a1 1-9.3 0 1 1.2.8q.9 3 3.2 5.3a.6.6 0 0 0 1 0q2.6-3.2 0-5.7a.3.3 63.7 0 1 .2-.5q3.5-.4 4.9-1.2 10-5.8 18.9-13c6.4-5.4 4.2-11.7 5.5-17.2q2.2-9.3 4.6-17a.7.7-43.5 0 1 1.3 0l.6 2.3a1 1 52.2 0 1-.1 1q-1.8 3.4-1.9 5.3-.3 7-1.2 9.5-2.1 5.8-3.2 11.4a1 1 0 0 0 1 1q2-.2 2.8-1.4c4-6.5 4.4-15 2.7-22a2 2-26.9 0 1 .5-1.6q3.4-2.9 4.7-6.4c1-3 1.2-8 4.1-11a.7.7 0 0 1 1.3.5c0 4-.5 7.3-2.2 11.3q-2 4.6-2.7 8.9a.4.4-54.4 0 1-.7.1l-1.2-2.2a.8.8 0 0 0-1.4 0q-1 2.3.4 4.1a1 1 0 0 0 .9 0l.8-.6a1 1 54.4 0 1 .7.1l2.9 5.3v.5l.2 3.8a1 1-80.9 0 0 .5.7l.3.1a.6.6 11.5 0 0 .8-.5q.3-7.7.8-11.1.5-2.8 3-8 .7-1.3 1.3-7.4c.2-2.3.5-4 1.2-6.2a1 1 0 0 1 2 .4l-.5 14.2a10 10 36.6 0 0 .5 3.6c1.5 4.2 3.7 9.4 2 12.9q-3.6 7.5-3.8 15.6-.2 5.8-1 12.7a.5.5 0 0 1-1.1 0l-.3-8.6a1.5 1.5 0 0 0-2.6-1l-1.8 1.5a.5.5 0 0 1-.8-.4q.3-2.6 2.4-3.7a1 1-10.7 0 0 .6-.8l.4-4.7a1.3 1.2 26.5 0 0-.3-1 23 23 0 0 1-6.7-14.4.8.8 0 0 0-1.5-.2q-1.3 5.8-1.8 12.8c-.3 4 1 8.3 1.3 12.3a.7.7 0 0 1-1.2.4q-2-3.5-2.8-7.6a.4.4 63.2 0 0-.8-.3l-6.8 6.3a.2.2 0 0 1-.3-.2q.6-2 .4-3.7a.2.2 0 0 0-.4-.1m103.9-47.7c-1.5 1.9-.1 5 .7 6.4l.7.8q3.8 1.9 6.2-1.3a1.3 1.2 70.5 0 0 .2-.6l.6-4.6a2 2-60 0 0-.4-1.6l-2.7-3.6a1.5 1.5 0 0 0-2.1-.3l-.5.3a2 2 53.3 0 0-.4 2.6l3.3 4.4a2 2 0 0 1 0 2.3l-.2.3a1.1 1.1 47.1 0 1-1.9-.1l-3-5a.3.3 0 0 0-.5 0m-10.5 9.6a1.4 1.4-50.3 0 0-2.3.2c-.6 1.3-.3 2.3-2.2 3.5l-2.3 1.5a3.5 3.4 86.2 0 0-.6.8q-.6.9-1.1 2.2a1.3 1.3 0 0 0 1 1.7q.9 0 1.3-.2l6-3 .7-.6c2-1.6 4.3-3.1 3.2-5.7a1 1 0 0 0-1-.5q-2.2.8-2.7 0m-16.3 60.5-.6-.1q-2 .4-1 2.4.2.5.8.4 1.3-.2 1.6.3a.3.3 0 0 0 .5 0q.2-.7.9-.6a.2.2 0 0 0 .1-.4zm-117.6 9.6 1 2.2a.4.4 0 0 0 .5.3l.2-.1a7.7 1.5-22.5 0 0 6.5-4.4v-.1a7.7 1.5-22.5 0 0-7.8 1.5h-.1a.4.4 0 0 0-.3.6m20.7 35.1a1.3 1.3 85.4 0 0 1.2-1.4q-.6-5.7-3.7-7.8a.4.4-39 0 1 .1-.6q3.4-1.4 2.6-5.6-.6-3.4-4-2.6a2.6 2 64.7 0 0-.8 3.7q1.1 1.7 0 3l-.3.9q0 2-.9 4.9c-1.3 4 2.7 5.7 5.8 5.5"/><ellipse fill="#8e7b2d" rx="2.8" ry="1.6" transform="rotate(243.6 286.8 2.5)"/><path fill="#8e7b2d" d="M355 289.5v-.3a.2.2-3.2 0 0-.3-.2q-.4 0-.5.3a1.2 1.2 40.8 0 1-2.1 0q-.3-.5-1-.7t-1 .7q-.2 1 0 1.8a1 1 78.2 0 0 .7.5h.9a1.7 1.5 68.8 0 1-1.1 3l-.9.8v.6q1.8 2.9 1.4 3.5-1.7 2.8-1.5 5.4l-.2.9q-1.9 2-3.2 1.9-8.2-1.4-9.6-9.7-.6-3.3 2-4.7 3.7-2 6.4-5.1a1.8 1.5-2.6 0 1 .3-.3L360 277a1.6.7-52.5 0 0 .2-.1q3.4-3.4 8.4-6.2v-.5a.2.2-20.8 0 0-.4-.1l-7 3.5a1 1 0 0 1-1-1.7l4.8-3.6 1.1-.6 7.7-2.3.3-.3q1-1.2 4.2-2 6.2-1.4 9.7-2.8 2.5-1 5-.7a1.5.2 28.4 0 1 .8.3q.6.3 1.4 0l3.4-.8a3.7 3.3 35.5 0 1 .8 0q3 0 6-1a.6.6 0 0 1 .7.8q-2 4.2.3 7.9 1.4 2.4 1.5 3.7 0 1.2 1.4 5a2.3 2.1 40.8 0 1 0 1l-1.3 10.6a2 2 0 0 1-.8 1.3l-1 .6a.5.5 0 0 1-.7-.5q1.5-7 1.3-12.8-.1-2.9-3.2-2.5l-.9.4q-2.3 2.2-2.4 4.9 0 3.9-1 5v.1l-.8 5.5a1 1 0 0 1-1.6.8l-.4-.3a2 2 20.9 0 1-.7-1.6q.9-4.6 2.3-8.4l.2-.7q.5-3-2.2-5.8c-1.4-1.5-.1-3.5-2.5-4.9q-2-1.2-2.2-2-.3-.7-1.8-2.7a1 1-16.7 0 0-1-.5q-6.7-.3-12.6 4a.5.5 0 0 0 .3 1l4.3-.2a2 2 0 0 1 1.7 2.8q-1.3 2.4-1 4.7a2.6 2.3 32 0 0 .2.7l2.6 5.2c.8 1.6-.2 2.9-.6 4.4-.4 1.2 1.2 2.8.6 4.4q-.4 1.3-1.6 1.5c-1.1.1-1.6-1-2-1.5q-2-2.1-2.1-2.6-1.2-4.8-1.7-9.5-.3-2.1-1.6-3.4a.9.9 0 0 0-1.5.7q0 .8-.4 1.7l-.6.4-6 .2a.7.7-14 0 0-.6 1q3.3 6.7 5 9.6 1.3 2.4-.4 3.9l-.4.7-.1 2.5a1.6 1.5 66 0 1-.3.8q-1.1 1.5-3 1.2a3.4 2.5 6.4 0 1-2.8-2.6q0-1.8 2.9-2.6a.7.7 51.5 0 0 .1-1.2l-5.6-3a.8.8 0 0 0-1.2.7l-.2.8-.4.4-2.7 1.4a1 1-9.7 0 1-1.3-.9l.3-2a.2.2 0 0 0-.4-.1q-.3.6-.3 1.3zM432.8 269.5a.1.1 0 0 1-.2 0 2 1.9-70.6 0 1-1.1-2.4l1.6-4.6a2 1.9-70.6 0 1 2.4-1.2l.1.1zM537.5 267.5a.1.1 0 0 1 .2 0v.5h-.2zM427.3 270l.3-.3a2 2 48 0 1 2.2.2l3.8 3.2a1.3 1.3 0 0 1-1.5 2l-4.7-2.8a1.4 1.4 0 0 1-.1-2.4"/><path fill="#735b2a" d="m579.5 283-3-.1a2 2-86 0 1-1.6-1.8q.1-2 1.3-2.2 4.8-1 9.1-1.3a1.4 1.4 0 0 1 1.5 1.6q-.3 1.4-1.8 1.9z"/><path fill="#8e7b2d" d="M430.4 283.2a.4.4 0 0 1-.6.5l-2.4-1.6-.5-.7q-.2-1.6.4-2.4a1 1 32.9 0 1 1.1-.2c2.3 1.1 1.2 2.7 2 4.4M754 293.1q.2-5.4-.8-7.4a1 1 59.2 0 1 .2-.9c3-2 6.8-2 10.3-1.9a5 5-55.9 0 0 2.2-.4q1.6-.8 4.8-1.2 4.6-.5 11.4-2.6a1 1-9.4 0 1 1.4 1l.2 7a1.2 1.2-3.4 0 1-1.1 1.2c-5.4.4-10.5 2.2-15.6 2.9q-7 .8-12.2 2.8a.5.5-10.2 0 1-.7-.5M704.3 295.8q-.4-8.5-.2-10.4l.3-.9q.9-.9 3.5-1.2 7-.8 12.6-2a1 1 0 0 1 1.1.8c1 3.9 1.1 7 1.4 12.7q.4 8.4.2 10.3l-.4.9q-.8.9-3.4 1.2-7 .9-12.7 2a1 1 0 0 1-1-.7c-1-4-1.2-7.2-1.4-12.7M628.6 282.4l.2.2q1.1 4.5.3 8a1.2 1.2 11.5 0 0 1 1.4c4 .8 8.8-.6 13.1-1.2a1.2 1.2 0 0 1 1.4 1.1l1 16.5c.3 5.1 0 10 .4 16.4v2.8a2 2-1.6 0 1-1.7 1.7l-12.7 2.7a2 2-7.2 0 0-1.5 2l.3 7.8a3 3 0 0 1-1.3 2.4q-1.4.8-3.7 1-5.2.3-9.2 1.5a.8.7 79.6 0 1-1-.6c-.2-2.8-.6-5-.7-7.8q-.5-22.8-1-33.2c-.4-7 0-13.3-.5-19.9a.6.6 0 0 1 .6-.7zM512.5 285.8v-.8a1 1 0 0 1 1.4-.8q1.8.7 3.2 2.4a.5.5 63.4 0 1-.2.8q-4.1.9-4.4-1.6"/><path fill="#667c92" d="M295.3 287.3v.7q-1.3.9-2 2-3.3-1-3-3.8l1.1 1.2.3.1q.7 0 1.4-.9.4-.5 1-.5t1.2 1.2"/><path fill="#8e7b2d" d="M516.9 292.7a1 1 0 0 1-.6.2h-.2a3.7 1.5 22.3 0 1-2.9-2.8v-.2a3.7 1.5 22.3 0 1 4 0l.2.2a1 1 0 0 1 .3.6z"/><path fill="#735b2a" d="m294.6 293.2 2.1 2.7q-.2 2.1.1 3.9a.5.5 0 0 1-.9.4q-4-3.8-5.7-9.3a.5.5 0 0 1 .7-.5z"/><path fill="#8e7b2d" d="M552 295.6a.6.6-19.7 0 1 .4-.9l4-.8a1 1 0 0 1 1.2 1v1.6a1.5 1.5 0 0 1-1.3 1.5q-3 0-4.3-2.4M370 302.9l-.3-.3v-.2a4.7 2.1 89.3 0 1 2-4.7h.1a4.7 2.1 89.3 0 1 2.2 4.7v.1l-.3.3zM373.4 352.4q.2 1.7-.4 3.7a.2.2 0 0 0 .3.2l6.8-6.3a.4.4 63.2 0 1 .8.3q.7 4 2.8 7.6a.7.7 0 0 0 1.2-.4c-.3-4-1.6-8.3-1.3-12.3q.5-7 1.8-12.8a.8.8 0 0 1 1.5.2c.3 5.7 3.2 10.7 6.7 14.4a1.3 1.2 26.5 0 1 .3 1l-.4 4.7a1 1-10.7 0 1-.6.8q-2.1 1-2.4 3.7a.5.5 0 0 0 .8.4l1.8-1.6a1.5 1.5 0 0 1 2.6 1.1l.3 8.6a.5.5 0 0 0 1 0q.9-6.9 1-12.7.3-8.1 4-15.6c1.6-3.5-.6-8.7-2-13a10 10 36.6 0 1-.6-3.5l.5-14.2a1 1 0 0 0-2-.4c-.7 2.3-1 3.9-1.2 6.2q-.6 6.1-1.3 7.4-2.5 5.2-3 8-.4 3.4-.8 11.1a.6.6 11.5 0 1-.8.5l-.3-.1a1 1-80.9 0 1-.5-.7l-.1-3.8-.1-.5-3-5.3a1 1 54.4 0 0-.7-.1l-.7.7a1 1 0 0 1-.9-.1q-1.3-1.9-.4-4a.8.8 0 0 1 1.4-.1l1.2 2.2a.4.4-54.4 0 0 .7-.1q.7-4.4 2.7-9c1.7-3.9 2.3-7.2 2.2-11.2a.7.7 0 0 0-1.3-.5c-3 3-3.1 8-4.1 11q-1.2 3.5-4.7 6.4a2 2-26.9 0 0-.5 1.6c1.7 7 1.4 15.5-2.7 22q-.8 1.2-2.8 1.5a1 1 0 0 1-1-1.1q1-5.6 3.2-11.4 1-2.4 1.2-9.5.1-1.8 1.9-5.3a1 1 52.2 0 0 .1-1l-.6-2.3a.7.7-43.5 0 0-1.2 0q-2.5 7.7-4.7 17c-1.3 5.5 1 11.8-5.5 17.1q-8.8 7.3-19 13.1-1.3.8-4.8 1.2a.3.3 63.7 0 0-.2.5q2.6 2.4 0 5.7a.6.6 0 0 1-1 0q-2.3-2.3-3.2-5.3a1 1-9.3 0 0-1.2-.8l-5.2.2a1 1 0 0 1-.8-1.7q1.5-1.7 4.6-2.2a1.2 1.2 77.9 0 0 1-1.5l-1-3.3v-.2l1.2-15.3a.5.5 0 0 0-.6-.5l-4 1-.7-.1-6.2-4.6a1 1 0 0 1 0-1.3q1.8-1.4 2.6-4a2 2 0 0 1 2-1.3q4.4.2 7 1.5a1.8 1.8 0 0 0 2.6-1.4q.6-5.2 4.9-7.5 1-.6 3.4-4.3a1 1 21.6 0 1 .8-.3q1 .1 1.4-1c.5-1.4 0-4 2-4.7q2.4-.8 2.4-3a.3.3 11.8 0 1 .4-.2c4.8 2.1 7.5-2.4 11.2-3.9q10.6-4.2 15.5-5.7l1.3-.7q1.3-1.3 3.3-2c1.7-.6 2.6-2.4 4.6-1.5q1.5.7 3.3-.1a1 1 42.8 0 1 1 0l3.2 1.2h.7q3-.9 6.4 0a2 1.6-29.6 0 0 .4.1l6.9.1a27.5 27.4-36.2 0 1 7.4 1.2l7 2.1c2.2.9 3.7 3.3 5.8 4l3.6 1.4.8.6c3.4 4.3 1.5 10 2 13.8q.6 3.7.4 7.1-.2 2 0 10.4l-.1 1c-2 7.2-3.1 16-9.6 21.4-2.2 1.9-4 4.1-6.2 5.8-3.5 2.6-6.1 6-9.8 8.3-4 2.6-6.4 4.6-11 5.6h-.2l-13 5.8a1.5 1.4-49.6 0 1-1 .1q-1.3-.3-6.2.6-8.4 1.5-18.5-1.4a.8.4-16 0 0-.1 0l-4-.7-1.2-.4-10-6a1 1 15.6 0 1-.5-.8q0-4.5-2.2-8.3v-.5l8-7.3a.2.2 0 0 1 .4.2q-.4 3.4-2 6a1 1 0 0 0 0 1l2 1.9q2.8 2.5 3.4 8.4l.4.8q1 1.1 2 1.2a.4.4 0 0 0 .3-.5q-3.8-9.8-4.6-19l.3-.5 13.6-10.1a.2.2 0 0 1 .4.1m35.4-40a5.4 1-115.3 0 0 1.3 5.2 5.4 1-115.3 0 0 3.2 4.4 5.4 1-115.3 0 0-1.4-5.2 5.4 1-115.3 0 0-3.1-4.4m23.7 8L427 317a.3.3-80.3 0 0-.5.4q1.1 4.8.8 10.2a1 1-66.3 0 0 .4 1.1q1.3 1.3 3.2 2a1 1 0 0 0 .9-.1l3.6-3.3a3 2.9-17.7 0 0 1-1.8l.8-6.4a.6.6 0 0 0-1-.6l-3 2a1 1 44.3 0 1-.7 0m-66.8 46.9 5.2 4.5a.6.6 0 0 0 1-.4c.2-5.1 3.7-9.5 7-12.7a3 3 0 0 0 .7-2.2l-.2-1.3a.7.7 0 0 0-1.1-.3l-4 4.6a1 1-65.2 0 1-1.1.4q-5.1-.7-9.7 3.3l-.4.8c-.1 6.4 1 10.6 5.5 14.7a1 1 0 0 1 .4 1l-.5 3.7a2 2 0 0 0 .3 1.2q.7.7 1.9 1a.6.6 89.3 0 0 .7-.7c-.9-3-1.8-6.8-3.3-9.9q-2.8-5.4-3.2-6.7-.2-.9.4-1.1zM554.7 301.8c-.3 2.1-1.8 5.2-2 7.7l-.3 3.4-.4.8-4.9 4.4-.2-.1v-.6a1 1-77.6 0 0-.6-1q-1.7-.9-.7-2.9 1.4-3 3.6-5a1.7 1.7 0 0 0-.5-2.7q-1.4-.6-2.4-2.2c-1-1.7-2.7-1.9-4.3-3a2.7 2.6-21.7 0 0-1.2-.6l-5.2-.6-.1-.2h9.7a2.4 2.3-37.4 0 1 .6 0l8.5 2a1 1 0 0 1 .4.6M477.5 304.6l3 5a1 1 47.1 0 0 1.8 0l.2-.2a2 2 0 0 0 0-2.3l-3.2-4.4a2 2 53.3 0 1 .3-2.6l.5-.3a1.5 1.5 0 0 1 2.1.3l2.7 3.6a2 2-60 0 1 .4 1.6l-.6 4.6a1.3 1.2 70.5 0 1-.2.6q-2.4 3.2-6.2 1.3l-.7-.8c-.8-1.4-2.2-4.5-.7-6.4a.3.3 0 0 1 .6 0"/><path fill="#667c92" d="M1024 301v22.7q-.7 1.3-3 2a7 7 14.7 0 0-2.5 1.4q-2.4 2.3-4.6 3.8c-2.4 1.5-6.6 6-6.5 8.3q-.3.8-2.4-2 8-10.7 11.6-14 3.3-3.1 3.9-4.3a3.4 3.3 62.5 0 0 .4-1.3q.2-2.3 0-3.7l-2.3-13.5q2.7 1.1 4.4-.2a1 1 0 0 1 .7.2z"/><path fill="#8e7b2d" d="M519.8 300.6q1.3-.3 2.2-.2a2.2 2-23.8 0 1 1 .4q3.3 2.2 6.7 2a4 4-27.4 0 1 2.6.9l6 4.5a.7.7 45.8 0 1 0 1.2 1.4 1.4 43.1 0 1-1.5 0l-5.8-3.7q-2-1.3-5.6-1a1.3 1.2 53.1 0 1-.6 0l-5.2-2.3a1 1 0 0 1 .2-1.8"/><path fill="#735b2a" d="m303.6 306.9.1.1a3 2.3-6.6 0 1-2.7 2.7h-.3a3 2.3-6.6 0 1-3.3-2l.1-.1zM284.2 310.8c5 .2 10.8-.3 15.4 1.9a.4.4 0 0 1 .2.6c-4.7 6.4-10.2 7.3-17.7 7.8a.8.8 0 0 1-.4-1.5l4.4-2.2a1 1 0 0 0 0-1.6l-4.6-2.3z"/><ellipse fill="#735b2a" rx="5.3" ry="1" transform="rotate(244.7 306 28.4)"/><path fill="#8e7b2d" d="M466.4 314.2q.5.7 2.7 0a1 1 0 0 1 1 .4c1 2.6-1.2 4-3.2 5.7l-.7.5-6 3.1q-.4.3-1.2.2a1.3 1.3 0 0 1-1.1-1.7l1-2.2a3.5 3.4 86.2 0 1 .7-.8l2.3-1.5c1.9-1.2 1.6-2.2 2.2-3.5a1.4 1.4-50.3 0 1 2.3-.2"/><path fill="#735b2a" d="m433.1 320.5 3.1-2a.6.6 0 0 1 1 .5l-.9 6.4a3 2.9-17.7 0 1-.9 1.8l-3.6 3.3a1 1 0 0 1-1 .1q-1.8-.7-3-2a1 1-66.3 0 1-.5-1q.3-5.5-.8-10.3a.3.3-80.3 0 1 .5-.4l5.5 3.6z"/><path fill="#8e7b2d" d="M888 351.3c-1.6-3-1.2-8.7-2-12.7q-1-5.5-1.2-12.7a2.4 2.2-58.3 0 0-.1-.9l-.6-1.2a.8.8 0 0 1 .9-1.1q2.2.4 6 0l24-4.9q2.4-.5 4.2 0a2 2-86.8 0 1 1.8 1.9q1.2 11.7 2.8 22.3.4 3.1-3 3.7l-28 4.8q-1.5.3-3.7 1.2a1 1 0 0 1-1.1-.4M534.1 319.9a.3.3-20.9 0 1 .3-.6q3.2.4 6.9 2.8a2 2-62.9 0 1 .7 2.4v.1a1.2 1.2 0 0 1-2 .5zM542.8 327.9v.3l-.4.8q-1.4 1.3-1 3.6a1.3 1.2 66.4 0 1-.4 1.2l-2.3 1.7a.7.7 0 0 1-1-.9l3.5-7.1a.9.9 0 0 1 1.6.4"/><path fill="#735b2a" d="m263 357.8 4.4-23.8c3-2.6 5.5-6.2 10-5.6a1 1-6.7 0 1 .7.6c.8 2.1 4.2 1.4 6.3 1a1.4 1.2-57.9 0 0 .4-.1l5.3-2.6a1 1-14.1 0 1 .6.4q0 .9-.5 1.8-4 6.7-5.4 14c-.5 2.7-1.7 4.8-2.1 7q-2 8.4-3.6 16-1.8 8-1.7 10.2l-.2.9q-.6 1-.6 1.7-.4 4.5-2.4 10.5l-.4.4-5.2 2.3a2 2 88.7 0 0-1 1c-1.1 3.2-.7 5.3-.3 9.7q0 1-.5 2.4a.2.2 49.3 0 1-.4 0q-1.9-7.4-1.7-11 .5-11.2 1.7-23.1.3-3 1-5a2.2 2.1-80.5 0 1 2-1.5l4.2.1a.6.6 0 0 0 .3-1q-4.1-2-9.6-2.9a1 1 0 0 1-.4-.6q.5-2.2 1.8-4l-.3-.3zM518 355.2q-.3-.2-.1-.9v-.6q-.3-1.6 2.7-1.3a1 1 0 0 0 .7-.8q-.4-1.8-.1-2.8 1.2-4 1.5-8.1.3-4.5 1.1-7c.3-.8 0-2 1-2.7a.7.7 0 0 1 1 .6v2.4a2.3 2.1 55.7 0 1 0 .8q-1.5 4.6-.4 8.1v.9l-2.8 7a1 1-68.7 0 0 .5 1l1.7.6.8.7q1 1.2 3.6 2.6a.5.5 0 0 1-.3 1l-.3-.1a.3.3-43.4 0 0 0 .5q2.6 1.8 4.5 4.7a.3.3 0 0 1-.3.5c-3.2-.2-5.5-2.2-8-3.1a.6.6 0 0 0-.6.9l4.2 4.6a.6.6 0 0 1-.7 1q-3.3-1.2-5.5-4.4a1.5 1.4 26.3 0 1-.3-.6c-.2-2.3-1.6-2.7-3.4-3.6a1 1 0 0 1-.6-.8q0-.4.2-.6a.3.3 0 0 0 0-.5"/><path fill="#8e7b2d" d="M542.6 350.6h-.1a3 2.7-85.3 0 1-2.5-3l.9-10.2a3 2.7-85.3 0 1 2.8-2.7.1.1 0 0 1 .2.1z"/><path fill="#735b2a" d="M1005 337.1q2.1 2.9 2.4 2.1-.2 7.4-3.3 8.2l-3-1.3a2 2-83.1 0 1-1-1.3l-.1-.7a2 2 15.4 0 0-.7-1.2l-4-3.2a1 1 35.9 0 1-.2-1.2q4.3-6.4 9.9-1.4M365.7 367.3l-.4-.1q-.6.2-.4 1 .4 1.4 3.2 6.8c1.5 3 2.4 7 3.3 10a.6.6 89.3 0 1-.7.6q-1.2-.3-1.9-1a2 2 0 0 1-.3-1.2l.5-3.7a1 1 0 0 0-.4-1c-4.5-4-5.6-8.2-5.5-14.7l.4-.8q4.6-4 9.7-3.3a1 1-65.2 0 0 1-.4l4-4.6a.7.7 0 0 1 1.2.3l.2 1.3a3 3 0 0 1-.7 2.2c-3.3 3.2-6.8 7.6-7 12.7a.6.6 0 0 1-1 .4z"/><path fill="#8e7b2d" d="M680.3 361q-.8 2-.8 3c.2 4.3.7 6.5.5 10.7 0 3 1 6.2.5 9.1q-.2 1.6.1 4a1.3 1.3 0 0 1-1.2 1.6q-4.2.4-9.2 2a1.3 1.1 30.5 0 1-.3.1l-5.4.1a2 2 0 0 1-2-1.8q-1.2-13-.8-25.3a1.4 1.4 87.2 0 1 1.2-1.2l17.2-2.5z"/><path fill="#735b2a" d="M580.1 375.7q-1.6-.6-2-1.4-.1-.4.1-.7l-.1-.4q-1-.5-1.5-1t.5-1.8l10.4-2 .5-.4.4-1.8a1 1 0 0 0-.1-1q-.7-.9-.3-2a.3.3 42.8 0 1 .6 0l2.2 5.8v1.2q-.7 3.3-3.5 4-3 1-7.2 1.5M486.7 374.4a.7.7-32.8 0 1 1.3.3c-.3 7.1-4.6 11.4-10 18.3l-.4-.1q-.5-2.5.3-3.6 5.4-6.5 8.8-14.9"/><path fill="#8e7b2d" d="M452.3 377q-.7 0-1 .6l-.4.1q-.3-.5-1.6-.3-.6.1-.8-.4-1-2 1-2.4l.6.1 2.3 2a.2.2 0 0 1-.1.4M332.5 384.3a.4.4 0 0 1 .3-.5h.1a7.7 1.5-22.5 0 1 7.7-1.6v.1a7.7 1.5-22.5 0 1-6.4 4.4h-.2a.4.4 0 0 1-.5-.2z"/><rect width="5" height="2.7" x="-2.5" y="-1.3" fill="#8e7b2d" rx="1" transform="rotate(-9 2729 -3338)"/><path fill="#8e7b2d" d="M561.4 400.9a1 1 0 0 1-.7-.2v-.2a2.5 1.7 61 0 1 .3-3 2.5 1.7 61 0 1 2.7 1.3v.2a1 1 0 0 1-.1.7z"/><path fill="#667c92" d="M353.2 419.4c-3 .2-7-1.5-5.8-5.5q1-2.8.9-4.9l.3-.8q1.1-1.4 0-3.1a2.6 2 64.7 0 1 .9-3.7q3.3-.8 4 2.6.7 4.2-2.7 5.6a.4.4-39 0 0 0 .6q3 2 3.6 7.8a1.3 1.3 85.4 0 1-1.2 1.4"/><path fill="#8e7b2d" d="m559.4 403.7.3.2a1 1 14.4 0 1 .6 1l-.8 9.5a5 5 0 0 1-2.7 3.8l-8.1 3.8h-.3l-.3-.2a.3.3 0 0 1 0-.6q6.1-4.1 7.9-5.7.8-.7 1.8-2.8l.1-.2 1.1-8.6a.2.2-74.9 0 1 .4-.2"/><path fill="#735b2a" d="M703 408.9q-.5 1 .8 1.2l3 .3a.2.2 0 0 1 0 .4c-3.7 3-9.4 4.1-15.2 5.4q5.2-4.6 11.4-7.3"/><path fill="#8e7b2d" d="M543.8 414.2a1.5 1.5 71.3 0 1 1-2l2.2-.4a3.7 3.6 43.2 0 1 1.2 0q3.7.6 6.9-1.2a1 1 0 0 1 1.2 1.1c-1.3 3.4-11 6.6-12.5 2.5"/><path fill="#735b2a" d="m256.4 427 .2-12q2 1.2 3 3.9l.3.7 5.5 5.9a2.5 2.3 82.7 0 0 .5.4q2.6 1.6 2.6 4a1.5 1.4-28 0 1-.3 1q-1.4 1.8-3.6 2.6a3 3 0 0 1-2.9-.7z"/><path fill="#8e7b2d" d="M475.6 416.4a.3.3-3.8 0 1 .4.4c-2.2 3.5-4.8 6.9-8.7 9a.4.4-13.8 0 1-.5-.2v-2.4a1 1 0 0 1 .7-1l2.6-1.3a2.7 2.4-74.8 0 0 .4-.3z"/><path fill="#735b2a" d="m447.2 419.4-2.7 5-.4.3-3.6 1.9q-10.4 7-12.7 8l-8 3.5c-6 3-14.9 4.9-18.8 5.9q-12.3 3.1-25.5 1.8a1 1 0 0 1-.6-.7v-2a2 2 73.9 0 1 .8-1.5q4.7-3 11-4.5 9.9-2.3 21.7-7 6.2-2.4 12.5-4.2a5.6 5.4-64.7 0 0 1.1-.4q6.6-3.3 11.9-4.6c4-1 9.3-5.2 13.5-3q.5.3.5.8-.1.4-.4.5zM701.4 423.7a.1.1 0 0 1-.2 0v-.1a2.7 1.1-42.5 0 1 1.2-2.7l.2-.2a2.7 1.1-42.5 0 1 2.8-1 .1.1 0 0 1 0 .2zM657 422.8q-1.6.6-3.5.4 1.8-.8 3.5-.4M692.6 424.3l.5.1q.2.2-.5.1a.1.1-40.7 0 1 0-.2M700 425.2c-1 1.5-3.8 3.4-5.3 5.4q-2.7 3.4-7 6a.4.4 0 0 1-.6-.2c-1.1-3.6 1.1-4.4 4.4-5q3.1-.5 4.7-2.7 2.5-3.9 3.5-4a.3.3 0 0 1 .3.5M634.5 425.8c.4 3-2 3.9-.2 7.1q5.4 10.7 7.8 23a5.6 5.3-63.5 0 0 .3 1q1 2.5 1.1 4.3c0 3.2 2.5 5 5.3 4.3a1 1-17.4 0 1 .8.4c.6 1.4.8 2 2.4 2.2 4.1.5 8-3 8.5-6.7q.2-1.6.8-2 1.2-1 1.8-.7a2.9 2.8-54.8 0 0 3.3-.6q8.5-9 16.9-16.7h.2v.2l-33.1 33.9-.1-.6a.7.7-48.9 0 0-1.1.2c-1.3 1.8-3 2-4.3 4q-1.4 2.1-2.9 3.6a1.5 1.4 15.9 0 1-.7.5l-4 .8a2 2-5.1 0 0-1.4 1.7l-.3 7.8.2.6q.8 1.4.3 3.5a.2.2-79.4 0 0 .2.3l.3-.2q0-2.2 1.9-2.8a2 2-82.3 0 0 1-.7q2.3-3.7 2.4-6.5a.3.3 0 0 1 .4-.3l.6.2.2.3.3 5.9 1.7 28.3a1.3 1.2 84.5 0 1-1 1.3l-3.5.5h2a.4.4 0 0 1 .1.9H641v.2h1a1.4 1.4 0 0 1 1.1 1.8c-.7 2.4-2.9 2-5.1 1.5a1 1 17.5 0 1-.4-.8l.4-1v-.2l-.3-.1a.3.3 0 0 0-.4.2l-.5 4.7a.2.2 0 0 0 .5.1l.3-1 .2-.2c2.5 1.7 3.1-.3 5.2-.8a1.3 1.2-86.4 0 1 1.4 1.7q-.7 1.9-2.4 1.7a.4.4 83.8 0 0-.4.5q.6 1.8 2.2 1.5a1.3 1.3 0 0 1 1.5 1.2l1.3 32.8a.4.4 0 0 1-.8.1c-4.4-9.2-7-13.2-7.6-18.9h-.2l-.1 4.2a.3.3 0 0 1-.5.1q-1.6-3.6-5-10.3a17 17 0 0 1-1-8.6q.8-7.5 1-14.4a4 4 27 0 0-.8-2.1q-2-2.9-2.2-6.2l-.4-13v-.3l-4.8-2.8a.2.2 0 0 0-.3.2l-1.6 11.9a.2.2 0 0 1-.5 0l-.4-1.8h-.3q-.3.6 0 1.4a.5.5 0 0 1-.5.6l-.2.3v.5q1.4 4 2.7 7.1.5 1.3.5 2.8a1 1-82 0 1-1.1 1c-2-.8-3.7-4.2-4.7-6.4q-6.5-14.7-14.1-27.6l-1.3-3.6q-.5-1.3-.1-3.7.6-4 .2-7.8-.7-6.6-1.2-13.7-.2-2.8.6-8.2c.5-4.4 1.6-13.6-1-16.8a.6.6 0 0 1 .3-.9q3.7-1 6.3-.6a1 1 19.8 0 0 .6-.3l.2-.3 9.4-1.5h.6q1.3.7.8 2v-1.7a1 1 86.1 0 1 .6-.6zM559.4 427.4q.6.5 1.3 2 6 12.7 12.4 24.6c2.8 5.2 4.4 10.1 7.1 15q2.3 3.8 3.3 8.4a.2.2-74.9 0 1-.3.2q-2-1.9-2.4-3-3.1-8.8-4-10.4-3.8-7.2-5.9-10.7c-1.6-2.8-3-7.5-5.2-10.2-2.4-2.8-2.4-3.4-3-7a5 5 23.4 0 0-.8-1.9q-2-2.8-3-6.8a.3.3 0 0 1 .5-.2"/><ellipse fill="#735b2a" rx=".9" ry=".6" transform="rotate(236.4 457.1 34.7)"/><path fill="#735b2a" d="M588.5 453.8v.2h-.3q-2.7-4.8-6.3-9.1-.7-1-1.4-4.9-.2-.9-1.7-3.9a.6.6 0 0 1 .4-.9l2.8-.6a.6.6 0 0 1 .7 1q-1.7 3.3.1 6.8l1.8 2.2a1.4 1.1 20.5 0 1 .2.3z"/><path fill="#8e7b2d" d="M466 438.3a1 1 0 0 1-.1-.6v-.3a2.2 2-62.3 0 1 2.9-1l.2.1a2.2 2-62.3 0 1 .8 2.9l-.2.3a1 1 0 0 1-.7.2z"/><path fill="#735b2a" d="M552.3 437a1.3 1.3 0 0 1-.2 1.5q-4.5 4.7-9.5 6.4a.5.5 0 0 1-.6-.6q.8-2.8 3-3.3 2.6-.7 3-1.3l3.2-3a1 1 0 0 1 1 .3zM593 462.5q-3.2-4.2-1.6-6.1a2.2 2.1 57.1 0 0 .5-2.1l-1.6-4.8a1.1.9 40.9 0 1 0-.1c-.6-4.4-1.1-7.1-4-10.5a.5.5 0 0 1 .5-.7c3.1.9 4.4 5.7 4.5 8.2q.1 2.4 1 5.4 1.3 3.7 1.6 10.3a.5.5 0 0 1-1 .4"/><ellipse fill="#8e7b2d" rx="2.3" ry="1.8" transform="rotate(196.6 263 187.8)"/><path fill="#735b2a" d="M256.2 453.1v-4.9l6.3-6.6a1 1 55 0 1 1.5.3c.4.8 1.5 1.6 2.1 1.8q4.3 1.5 5.6 6a.4.4 0 0 1-.4.5q-1.5-.4-3.4 0c-2.5.5-7.3 2.8-11.7 2.9M554.5 440.5a5.6 2.3-33.8 0 1-3.3 5.1l-1.6 1a5.6 2.3-33.8 0 1-6 1.2h.1z"/><path fill="#8e7b2d" d="M456.4 445.6q.8 1.3-.9 2.5a1 1 0 0 0-.2.9q1.3 2.9 1.1 3a3 3-49.2 0 1-3.8.4q-1.4-1-2.9-3.5a1 1-41.5 0 1 0-.8q2.4-3 6-3a1 1 74.5 0 1 .7.5"/><path fill="#735b2a" d="m441.2 527.2-8.1-12.6a1 1 0 0 1 .2-1.2l67.2-43.4a1 1 0 0 1 1.2.2l4.4 7a1 1 0 0 0 1.2.2l45.4-29.3a1 1 0 0 1 1.1.2l2.7 4.4a1 1 0 0 1-.3 1l-113.9 73.7a1 1 0 0 1-1.1-.2"/><path fill="#8e7b2d" d="M308 481q-2.2 2.3-6.2 2-2 0-2.6-1.1a1 1-10.7 0 0-.8-.6l-3.4-.4v-.1l2.7-.4.7-.2 6.2-2.6a.8.7 5.5 0 0 .3-.3l.3-.4a.8.7 13.8 0 0-.6-1q-4-.5-7.2.7a.6.6 0 0 1-.8-.8l1.5-3.6v-.3q-.6-1.5 1.5-8 .9-2.9-1.5-6.8a.3.3 0 0 1 .4-.5l.3.1a.7.7 77.9 0 0 .7-1.1q-.7-1-1-2.3a2 2 0 0 1 1.4-2.3l.5-.1a2.1 2-11.9 0 1 2.5 1.6l1.5 7.3-.1 1c-1.8 4-5.5 11.6 1.3 12.5q2.9.4 5.8.5a1 1 0 0 1 1 1q0 1.6-1.5 2.2-2.5.8-8 1.9a.4.4 43.5 0 0 0 .7l4.9.6a.4.4 0 0 1 .2.8M362 483a.5.5 43.2 0 0-.8 0q-1.4 3.9-1 8a1.2 1 51.3 0 1 0 .3l-1.6 8a.5.5 0 0 1-.9 0q-.7-1.9-.3-4.6 1.2-6.8.5-13.4l-.3-.9q-2.5-3.5-5.6-6.6c-1-.9-1.5-1-2.7-1a1 1 1.8 0 1-1.1-1.2c.3-4.2.3-8-4.7-9.4-3.8-1-8.5-1.5-12.5-3.4L323 455a1.5 1.4 18.3 0 1-.7-1.5 1 1 14.5 0 1 1.1-.7l6.4 2.6q5.9 2.5 12 1.2 1.6-.3 4.8.4c3.8.9 9.3.8 12 1.1a1 1 0 0 1 .9 1.3q-.7 3.5 2 6.7l.4.7q1.3 7 2 14 .2 1.9 0 3.6a.7.7-54.4 0 1-1.3.2z"/><path fill="#8e7b2d" d="m366.8 463.9.2-5.2a1 1 0 0 1 1.2-1.1h8.8c4.1-.2 3.7 2.9 4.9 5.3q4.8 10.2 6 21.6a1 1 0 0 1-1.2.8q-1.8-.8-2.3 0v.2l.8 21.8a.4.4 0 0 1-.7.1l-1.3-2.8a1.1 1-62.1 0 1 0-.4l-.4-8.4a1.6 1.5-55.7 0 0-.1-.4q-1.5-4.7-.3-9.7a1 1 0 0 0-.4-.9q-2.4-.9-4.6-.7a.4.4 0 0 1-.4-.6h.5a1 1 0 0 0 .7-.4q.2-2-1.6-3.4a1 1 0 0 0-1.7.6q-.4 1.8-1.7 2.8a.5.5 0 0 1-.8-.6l2.2-7v-.9c-.4-1-1.1-1.7-1.2-2.7l-1.1-8a.5.5 0 0 1 .8-.3l1.1 1.6.2.9q-.3 2.5.8 4.5 1 1.8 1.4 3.8.9 4.5 4.1 9.2a1 1 0 0 0 2-.7L381 470v-.1q.2-2.8-.4-4.7l-.6-1q-4.5-4.6-6-5.3-2.4-1.2-6.2-.6a.8.7 84.8 0 0-.7.7l.4 9.2a.5.5 87.8 0 1-.5.6h-.3l-.3-.3-1.2-8.7a1 1 9.6 0 0-.7-1l-.8-.5a.3.3 0 0 1 .5-.4c2.7 1.7 1.2 4.6 2 6a.3.3 0 0 0 .5-.1"/><path fill="#735b2a" d="M542.2 477q2-.5 14-8.8l9.5-6.4a1 1 0 0 1 .7.2l1 2a1 1 62.9 0 1-.4 1q-12.7 7.7-20.7 13.3-1.6 1.1-2 2a1.3 1.3 0 0 1-2.1.3q-2.3-2.8 0-3.5"/><ellipse fill="#8e7b2d" rx="1.5" ry="1.3" transform="rotate(-71.7 477.7 14.8)"/><ellipse fill="#8e7b2d" rx="1.4" ry=".9" transform="rotate(-95.5 408.7 52.5)"/><ellipse fill="#8e7b2d" rx="3" ry="1.4" transform="rotate(235.9 284.5 149.3)"/><path fill="#735b2a" d="M577.3 494.3q-1.6.5-2.5 1-11.3 7.2-55.3 35.9c-19 12.3-34.2 21.6-51.4 33.6a1.6 1.6-33.8 0 1-2.3-.5l-14.9-23a1 1 53.3 0 1 .2-1.3c3.9-3.4 8.3-5.5 12.3-8.3l25.7-16.9 18.1-11.6q9.6-5.9 18.4-11.9c1.6-1.1 4.2-2.3 6.2-3.8q3.3-2.6 6.8-4a1 1 0 0 1 .6.4l.9 3.2a1 1 0 0 0 1.4.5l24-15.6a1 1 0 0 1 1.5.4l10.6 21a1 1 67.5 0 1-.4 1"/><path fill="#667c92" d="m258.4 480.5 4.3-1.3c1.8 4.2 4.9 3.3 8 5.2q-.8-.3-1.5-.2a.5.5 0 0 0-.4.7q.7 2 2.3 3.7l.7.5q5.3 1.8 9 3.4 6.6 2.7 9 3.4c4.6 1.2 9.4 3.4 14 4.9q18.8 6 37.2 13.4 4.1 1.7 7.9-.3a1 1 0 0 0-.3-1.7l-.8-.2a.1.1 0 0 1 0-.3l4.2 1.2q3.4 2.6 6.7 2.3l-.8.6q-.4.5-.2 1 .2.8 1 1.2l.4.6.1.6a1 1-81.3 0 0 .7.9q2.7 1.6 6 2.8 13 4 27.9 10.3a2 2 0 0 1 .8 2.5l-4.9 7.6a2 2 27 0 0 1 3l11.6 4.6a.8.7 26 0 1 .4 1l-42.6 72.3a3 3 0 0 1-2.6 1.2q-5.4-1-11-4.1a1.5 1.5-58.4 0 0-1.9.4q-7.4 11-12 19.3c-8.3 14.5-17 27.4-25.4 42.1q-4.4 7.7-7.6 12.4-2 2.9-5.2 3a3 3-70.7 0 0-2.2 1q-1.6 2-4.4 6.3-.3.3-10.6 17.7-1.9 3.1.7 5.7a1.4 1.4-55.6 0 1 .3 1.6q-2.3 4.8-4 7.5l-35 57.7q-15 25-16 26.9-1 2.4-4 6.7c-2 2.7-3.3 6-5.4 9-3.4 5.2-6.2 10.7-9.5 16.1q-6.5 10.6-13.3 22.3-.5.8-1.8 2.1a2 2-52.2 0 1-2.7.4l-8-4.8a2 2-58.3 0 0-3 .7l-8.6 13.5a2 2 0 0 1-2.6.6c-2-1.1-3.7-2.5-6-3.7L22.6 813.5a1.2 1.2 0 0 1-.4-1.7l9.1-14.2a1 1 25.9 0 0-.2-.7q-5.3-1.8-10.7-6a2 2 0 0 1-.4-2l7-10.3c2.9-5 6.7-10.4 8.7-13.6l7.6-11.8q4.6-7 8.6-13.7 4.4-7.4 8.8-13.7 4-5.6 6.7-10.3Q70 711 74 705.2l9.8-14.4q.4-.6.8-.8a1 1 83.8 0 0 .6-.7q.6-2.3 3.6-6.8l14.2-21.2q.4-.7.4-1.1l.2-.4 3.5-4.6a3 3 0 0 1 2-1l5-.2a3 3 15.1 0 0 2.6-1.5l14.4-22.5a1.7 1.7-59.7 0 0-.6-2.4c-2.3-1.2-5.4-3.4-2.8-6.3 1.5-1.7 2.5-4 4.1-6.7l6.2-9.1c4-5.9 8.4-14 12.9-20q2.3-3.1 4.2-6.5c1.4-2.6 4-5.5 6-8.6l9-15a3 3 0 0 0-1.3-4.4q-1.3-.5-1.7-.9a3 3 0 0 1-.8-3.7l1.4-3c2.6-4.2 7.3-11 10.7-17 2.6-4.4 5.8-8 7.7-11.5q1.2-2.2 8.6-13.2c4.2-6.2 7.7-13 12.2-19.5q1-1.4 3.6-1.2c3.3.2 5.9 2.8 8.8-1l4-5.6a2 2 0 0 1 2-.8c5 1.1 7.9 1.5 12.4 3.2q7.8 2.8 18.2 6 1.5.4 2.2-.1t.3-2.2M255 534l7.6 3a1.7 1.7 0 0 1 .7 2.5q-4.3 5.4-6.2 10.2a2 2-68.7 0 0 1 2.1l32.8 12.8a2.3 2.3 0 0 0 2.9-1l5.7-9.6a2.6 2.5-61.8 0 1 3.3-1c3.8 1.9 8.8 5 11.7 0q1-2 5.6-9a1 1 0 0 0 0-1q-.5-.9-2.7-1.5-5.4-1.4-13.1-4.6-9.8-4-24.7-9.1-6.3-2.2-16.7-6.5a2 2 0 0 0-2.5.8l-6.2 9.6a1.5 1.5 0 0 0 .8 2.3m-42.4 17.4a2.4 2.4 0 0 0-1-3.5l-19.5-8.3a2.4 2.4 0 0 0-3 1l-6.4 10a2.4 2.4 0 0 0 1 3.4l19.6 8.3a2.4 2.4 0 0 0 2.9-.9zm133.6 50.2-.6-.4q-15.8-5.8-21.4-8.2-3.8-1.6-5.6 1.4l-4 6.8c-1.2 2-1.8 3.5.6 4.6q14 6.1 20.6 9.3l.9.2q2 0 3.4-2l6.4-9.8a1.4 1.4 0 0 0-.3-2m-91.4 10.7-20.2-8.6a1.5 1.5-62.1 0 0-2 .5q-2.3 3.8-6.4 9.8-.8 1.1-1 3.6a1 1 21.6 0 0 .4 1q1.8 1.3 3.3 2 6.8 3 17 6.7a2 2 0 0 0 2-.7l7.6-12a1.6 1.6 0 0 0-.7-2.3M207.1 674c.7-1.8 2.1-3.2 3.2-5l7-12.2c1.1-1.7 2.8-3.2 3.5-4.4a2.3 2.3 23.2 0 0-1.4-3.2l-3-1a3 3-65.2 0 0-3.5 1.3l-13.8 21.7a1 1-58.2 0 0 .1.7l5.2 3.1a2 2 0 0 0 2.7-1m-130 42.7L61 741.8a2 2 0 0 0 .8 2.9l19.1 9.5a2 2 0 0 0 2.5-.4q1.5-1.6 2.4-3.2 8.3-13.2 14.2-23.2a1 1 28.6 0 0-.4-1.3l-18.9-9.3q-2-1-3.4-.4zm134.3 104.6a2.2 2.2 0 0 0 3-.9l14.5-24.7a2.2 2.2 0 0 0-1-3l-22.5-11.3a2 2 0 0 0-3 .8L188 807a2.2 2.2 0 0 0 1 3.1zm-97.2 3.9a1 1-60.1 0 0 1.1-.4l7.5-11.7a1 1 0 0 0-.2-1.4q-4.2-3.7-9.7-5.6a2.3 2.3-64 0 0-2.7 1l-6.9 10.7a1.5 1.5 0 0 0 .6 2.2z"/><path fill="#735b2a" d="m463 529.3-5.5 3-.1-.1 2-2.4.2-.5q.3-1.5 1.9-2.8 3.3-2.7 6.2-5.4a3.1 2.9 7.7 0 1 .8-.6q2.6-1.2 8.3-5.5c6-4.4 15-9.8 22.2-14.8q17-12 33-21.5a4 3.8-82.1 0 0 .7-.7c2-1.9 3.8-4 6.8-3a1 1 0 0 1 0 1.8q-2 .9-3.1 1.6-17.5 10.7-36 24a2.5 2.3 13 0 1-.3.3q-5.9 2.7-11 6.8a5.4 5.3-76.8 0 1-1 .6q-3.3 1.7-6.6 4-4.7 3.4-8.7 5.5a3.5 3.4-80.7 0 0-.7.5q-2.5 2.5-5.4 4l-.6.4q-1.2 1.2-4.1 3.1a.9.9 0 0 0 .4 1.6z"/><path fill="#667c92" d="m650.4 475.5-.6 3.9q-3.9 2.4-6.2 5.9l-.2.7v7.8l-.3-6-.2-.2-.6-.2a.3.3 0 0 0-.4.3q-.1 2.8-2.5 6.5a2 2-82.3 0 1-1 .7q-1.7.6-1.8 2.8l-.3.2a.2.2-79.4 0 1-.2-.3q.5-2.1-.3-3.5l-.2-.6.3-7.8a2 2-5.1 0 1 1.4-1.7l4-.8a1.5 1.4 15.9 0 0 .7-.4q1.5-1.6 2.9-3.8c1.2-1.9 3-2 4.3-4a1 1-48.9 0 1 1 0q.2.1.1.5"/><ellipse fill="#8e7b2d" rx="4.4" ry="1.6" transform="rotate(-52.4 644.5 -80.5)"/><ellipse fill="#8e7b2d" rx="2.2" ry="1.5" transform="rotate(212.8 245.7 187)"/><path fill="#8e7b2d" d="M328.7 493.6a1 1 25.2 0 1-.6-1.6q4-6 8.4-9.7a1.4 1.4 32.3 0 0-.6-2.4q-3.3-.9-5.2-2.1a1 1-24 0 1 .7-1.7q3.7.6 9.7 2.7 1.4.5 6.5.6h.5l2.7 1a1.3 1.2-36.1 0 0 .6.2q3.5-.5 5 3.3a.8.7 86.1 0 1-1 1l-3.2-.7a1.1 1-59.8 0 0-1 .2l-10.4 9.5a6 6 0 0 1-3 1.5l-2 .3a1.1 1.1 0 0 1-1-1.9l8.5-9.7v-1.3a1 1 0 0 0-2-.2q-.6 1.8-3 4a3.3 3.1 85.5 0 0-.6.8q-1.2 2-4.4 5.4c-1.8 1.8-2.4 1.5-4.6.8M427.3 478.7l-.1.2a1.2 1.2 0 0 0 1.4 1.3l4.3-1.4a2 2-83 0 0 .9-.7q.8-1.4 1.7-2a1 1 0 0 1 .8.4q3 8 6.2 13a1 1 56.1 0 1-.2 1l-19.2 13.4q-4 2-4.8 3a.3.3 59.9 0 1-.6-.1q0-.2.6-.7l.3-.4q1-1.6 1.8-10.4.2-2 2.4-9.6a2.7 2.6 46.2 0 0 0-1.3q-.5-1.7 0-3.6v-.5l-.2-.2.1-.4 4.2-1.4a.3.3 4.1 0 1 .4.4"/><path fill="#8e7b2d" d="m270.7 484.4 19.9 5.3a14 13.7 63.9 0 1 2 .7q6.4 2.9 9.6 4l8 3q16.6 6.9 35.2 11.8 3 .8 6.6 3.7l-4.1-1.2a.1.1 0 0 0-.1.3l.8.2a1 1 0 0 1 .3 1.7q-3.7 2-7.9.3-18.4-7.4-37.3-13.4c-4.5-1.5-9.3-3.7-14-5q-2.3-.6-9-3.3-3.6-1.6-8.9-3.4l-.7-.5q-1.6-1.8-2.3-3.7a.5.5 0 0 1 .4-.7z"/><path fill="#735b2a" d="M586.6 486.9q-3.8.9-3 4.5a.4.4 0 0 1-.8.3l-2-3.7a1 1 0 0 1 .7-1.1q2.5 0 4.9-1l.2.2.2.3a.3.3 0 0 1-.2.5"/><path fill="#8e7b2d" d="M407 499q.3-1.4-.3-3.9a2 2-20.1 0 0-2.5-1.1l-3 1.5a.7.7 0 0 1-.8-1q2-3 5.7-2.8a1 1-9.6 0 1 .7.5q.8 1.9 2.6 3.3a2 1.9 51.1 0 1-.2 3.3l-1.7.6a.4.4 84.6 0 1-.4-.4"/><ellipse fill="#8e7b2d" rx="1.4" ry="1" transform="rotate(-80.8 480 23.8)"/><ellipse fill="#735b2a" rx="6.4" ry="1" transform="rotate(-21.9 1616.4 -1156.3)"/><path fill="#8e7b2d" d="M254.9 533.9a1.5 1.5 0 0 1-.8-2.3l6.2-9.6a2 2 0 0 1 2.5-.8q10.4 4.3 16.7 6.4 14.9 5.2 24.7 9.2 7.7 3.2 13.1 4.6 2.2.6 2.8 1.5a1 1 0 0 1 0 1q-4.7 7-5.7 9c-3 5-7.9 1.9-11.7 0a2.6 2.5-61.8 0 0-3.3 1l-5.7 9.6a2.3 2.3 0 0 1-2.9 1L258 551.7a2 2-68.7 0 1-1-2.1q2-4.8 6.2-10.2a1.7 1.7 0 0 0-.7-2.5z"/><ellipse fill="#735b2a" rx="3.9" ry="1.1" transform="rotate(216.7 302.3 190.3)"/><rect width="7.5" height="1.7" x="-3.8" y="-.9" fill="#735b2a" rx=".8" transform="rotate(3.2 -9332.8 7902.2)"/><path fill="#8e7b2d" d="m212.5 551.3-6.4 10a2.4 2.4 0 0 1-3 1l-19.4-8.4a2.4 2.4 0 0 1-1-3.4l6.3-10a2.4 2.4 0 0 1 3-1l19.4 8.3a2.4 2.4 0 0 1 1.1 3.5"/><ellipse fill="#667c92" rx="1" ry=".5" transform="rotate(-92.2 772.1 -221.5)"/><path fill="#735b2a" d="M672.7 584.2q-.3.6 0 1 .6 19.4.7 38.8 0 4.3 2 11.1-1.2-1.7-2.5-2.9-2.4-1.9-3.7-4.6-3.5-7.5-5.7-13.4a.5.5.4 0 1 .6-.6q.6.3 1.2.3a1 1-83.6 0 0 .8-.7q1-3.4.9-5c-.3-5.9-.2-10-.8-15.1q-1.3-9.4-1.4-20.5 0-4.1-.6-12.3-.4-6.5-.3-12.4 4-.8 5-5.3a.7.7-49.9 0 1 1.4-.1q1.2 2.6 1.2 5.7 0 18 1.2 36M417.7 570.1q-.2-.7-1-1.3-2-1.5-2.1-3.6l-.2-.5-3.4-5a4 4 0 0 1-.6-2.7l.4-1.7a1 1 0 0 1 1.7-.4q4.8 5.6 7.5 10.8 2.3 4.2 3.9 6.4 1.5 2 4 6.4a1 1 0 0 1-.5 1.4h-.1a2 2 0 0 1-1.8-.8q-2.8-5.4-7-8a2 1.9 7.8 0 1-.8-1M531 607.5 515.7 582a.3.3 0 0 1 .1-.5l40.4-26a.3.3 0 0 1 .5 0l14.4 26.4-.1.4-39.4 25.4a.3.3 0 0 1-.5 0M414.6 569.8a.5.5 0 0 1 .5.6v.1a2.2 1.5-88 0 1-1.5 2.2h-.3a2.2 1.5-88 0 1-1.4-2.3v-.2a.5.5 0 0 1 .6-.5z"/><ellipse fill="#735b2a" rx="3.2" ry="1.1" transform="rotate(228.6 385.6 174.7)"/><path fill="#735b2a" d="m554.5 623.6-.6-.4a1 1 0 0 1 0-1.7q5.6-3.8 11.6-8.7c5.4-4.3 10.3-6.9 15.6-10.2q7.6-4.7 13-9c1.2-.9 3.1-1.6 4.2-3.1a1 1 0 0 1 .9-.3q1.8.5 2 2.2a1 1-14.5 0 1-.5.8q-2 .8-3.2 2.3l-1.1.8-4.4 2.4c-2.9 1.6-5.6 4-8.5 5.3a4.9 4.8 14 0 0-1 .6l-7.7 5.4q-2.4 1.7-7.8 5-6.2 3.9-11.4 8.5a1 1 39.6 0 1-1.1 0"/><path fill="#8e7b2d" d="M346 601.5a1.4 1.4 0 0 1 .4 2q-2.5 3.6-6.4 9.7-1.3 2-3.4 2l-1-.2q-6.5-3.2-20.5-9.3c-2.4-1-1.8-2.7-.6-4.6l4-6.8q1.8-3 5.6-1.4 5.6 2.4 21.4 8.2z"/><path fill="#735b2a" d="m489.5 641.5-27.6-41.6a.7.7 0 0 1 1-.8l4.3 4.2a10.3 10 9.7 0 1 2 2.7l1.5 3a2.6 2.3-81.7 0 0 .3.6q2.8 3.2 3.8 5.2 3.2 6.3 8.7 14.2 2 3 3.8 4.7c2.7 2.7 3.3 4.5 2.6 7.7a.2.2 0 0 1-.4 0M541.8 660.7 531.5 645a1 1 0 0 1 .3-1.3l67.7-43.8a1 1 0 0 1 1.4.3l9 16.6a1 1 0 0 1-.2 1.3L543 661a1 1 0 0 1-1.3-.3"/><path fill="#8e7b2d" d="M254.7 612.2a1.6 1.6 0 0 1 .8 2.4l-7.7 12a2 2 0 0 1-2 .6q-10.2-3.7-17-6.8-1.5-.6-3.3-2a1 1 21.6 0 1-.4-1q.2-2.4 1-3.5l6.5-9.7a2 2-62.1 0 1 1.8-.6z"/><path fill="#735b2a" d="M390.8 648.8q-.7-1.3-.2-2.5l4.6-1.6 6.4-3a.6.6 0 0 0 0-1 25 25 0 0 1-6-7.7q-1.9-3.8-4.9-8a1 1-25.3 0 1 .5-1.2l.8.3h.1l-.1-.4-6-2.7a2.3 2.3 23.2 0 1-1.2-3l.2-.5a1.3 1.3 30.6 0 1 2-.5q.7.5 7.3 4 3 1.5 7.7 2.9 4.6 1.3 10.3 3.6a3.5 3.2 56.5 0 0 .9.3q2.2.2 3.9 2.2l.7.3 3.6.1.6.3 2.4 2.7.3.8-.2 1a.2.2 0 0 0 .3.2q.7-.6 1.8-.7a.4.4 0 0 0 0-.9q-1.7-.6-2.7-1.9a.5.5 0 0 1 .3-.8h.3a.3.3 0 0 0 .1-.5q-1-.5-2.5-.6l-.6-.4-2.3-3a1 1 0 0 1 0-1q.8-1.7 3.6.6.2.2.8 2 .5 1.4 2.8 1.2a1.3 1.2-65.2 0 0 .8-.3q.8-.7 4-1.9a.5.5 64.1 0 0 .3-.7q-1.5-2.3-2.9-2.7-6.3-1.7-7.1-1.7a1.2 1.2 0 0 1-.5-2.3l3.5-1.8c1.4-1.3 1.9-4 3-5.6a.7.7-42.9 0 1 1.2 0l1.8 3.2a1 1 56.4 0 1-.2 1q-1.4 1.2-2 2.5a2 2 31.5 0 0 .6 2.6c2 1.5 3.7 2 4.3 5.5l-.1.7-2 4.2a1 1 0 0 0 .9 1.3c5.2 0 13.2 3.5 19.7 5q4.4.9 7 2a.4.4 0 0 1-.1.8c-4.2.3-7-1-12.9-2.6a.6.6 0 0 0-.5 1c2.6 2.4 5.6 3.3 8.8 4.5q10.7 4 16.6 5.7 1.9.6 2.8 1.2a1.1 1.1 41.2 0 1 .2 1.8l-2.7 2.4a1 1 0 0 0 .2 1.5l.5.2a1 1 0 0 0 1.1-.4q1.3-2.6 3.8-4.5a1 1 0 0 1 1.5 1l-.4 3a1 1-72.7 0 0 .5 1l5.4 2.7a.7.7 0 0 1-.1 1.3l-1.5.3a.7.7 0 0 0-.1 1.3l3.8 1.9a2 2 11.2 0 1 1 1.6q.2 2.2.9 5c.6 2.9 3 5.5 4.1 8.3a.8.8 0 0 1-1 .9l-6.4-4a.1.1 0 0 0-.2 0q.3 1.2-1.2 1a.3.3 0 0 0-.2.6q6 4.6 9.1 8.6l.9.7q3.3 2 6.9 2.2a1 1 0 0 1 .6.7l-.2 3a1 1 0 0 0 2 .3l.2-1.3a1.7 1.7-58.5 0 1 3-.7q13.8 20 15.3 22.6 1.7 2.8.9 5.2a1.4 1.4 0 0 1-2.6.1q-.6-1.3-3.7-5c-3.2-3.6-7.6-9.8-9.6-12.4h-.6v.2q2.8 4.2 5.2 8.2.5.8.6 1.3l.2.5 3 3a.8.8 0 0 1-.3 1.3q-.8.2-1.9-.2c-11-4.5-19.8-8.7-29.5-12.6q-5.5-2.2-8.3-3.6c-3.4-1.7-6.6-2.7-11-4.7q-19.3-8.3-32.8-13.8a3 3-6.5 0 1-1.4-1.1L412.9 659a1 1 0 0 1 .4-1.5h.1v-.3q-2.3-2-1.4-5.8a1.3 1.2-51.9 0 0 0-.8q-.6-1.2.4-2a.4.4 0 0 0-.1-.7c-3.8-1.4-7-2.2-9-4.4l-.6-.3q-1 0-1.2.7l-.5.5q-2.4 1.5-5.1 2a2.8 2.5-60.2 0 0-.5.2z"/><path fill="#735b2a" d="M391.4 614.5q7 2.8 12.4 6.6a.6.6 0 0 1-.2 1h-.5a3 3 0 0 1-2-.2l-10.2-6.5a.5.5 0 0 1 .5-.9M589 694.5l-1.9-2.8-.2-.9.5-5.3a.7.7 0 0 1 1-.6q5 3.2 9.3 0 1.8-1.2 3.2-5.3c1.5-4.2 3.7-7.5 3.2-13a1 1 0 0 0-.4-.5q-.6-.1-1.5.4 1.8-2.7 6-3.2a1 1 0 0 1 1 1c-.3 2.5-.4 4.9.7 7.5q1.3 2.9 2.7 5.5a1.3 1.3 64.8 0 0 1.6.6l.2-.1a.8.8 61.5 0 0 .4-1.3q-3.7-5.1-2.6-12.4a1.4 1.4 87.9 0 0-1.6-1.6l-.8-.4a1 1 0 0 1 0-.8q2.2-2.3 3.9-3.2l2.6-1.4q2-1.4 4.2-2.5a.3.3 0 0 0-.2-.6l-3.4.5-.8.3-4.5 3a2.5 2.4-36.8 0 1-3.2-.4q-.4-.5-1.3-.8a1 1 0 0 1-.4-.9l.6-1.5v-.2l-.1-.2a.6.6-35.8 0 0-.9-.2q-3.4 3-7.2 3.1-1.9 0-3.4 1-1.6 1-3.9 1.1a1 1 0 0 0-1 .5l-.3.3q-4.5 1.6-8.4 4.1a5.8 5.6 18.3 0 1-1.4.7q-2.7.9-6.6 1.9-.5.1-1 1.2a.4.4 35.2 0 1-.6 0l-.4-.4v-.3q1.2-2.3 2.8-3 9.9-4.8 13.1-7 9.4-6.1 13.7-8c2-.8 3.4-1.3 4.1-2.8q.5-.9 1.3-.4a1.8 1.7 46.6 0 0 1.6 0q5-2.3 7.4-6.7a2 1.9 60.4 0 0 .3-1q0-4.1 1-5.3 4.3-4.7 10.4-7.2a1.3 1.3 71.6 0 1 1.8.8l.7 3a1.6 1.5-15.9 0 0 2 1.1c5.6-1.7 14.1-3.5 18 2q4.1 5.9-.4 11.6-4 5-8.5 8.5a4.4 4.3-52.4 0 1-4.2.6q-3.2-1.3-6-4.4a1 1-48.8 0 0-.9 0c-2.3 3.3-3.3 6-2.1 10 1 3.7 1.3 8.5.5 12.3a3 3 81 0 1-1.4 2l-18.4 11.2a2.8 1.7-11 0 0-.3.3c-4 3.3-9 6.7-14 7.6q-1.3.3-5.6 2.9m20.3-41.1q1.6.3 3-.4 8.1-4.5 16.2-7a1 1 0 0 0 .4-.7l-.1-.4a1 1 0 0 0-1.2-.6q-7.9 2.7-14.5 6.9a1.8 1.6 18.3 0 1-.4.2l-3.4.9a.6.6-46.1 0 0 0 1m7.4 7.5a3.9.8-133.1 0 0 2 3.4 3.9.8-133.1 0 0 3.2 2.2 3.9.8-133.1 0 0-2-3.3 3.9.8-133.1 0 0-3.2-2.3m7 9.6a1.9 1.2-178.7 0 0 1.9 1.3 1.9 1.2-178.7 0 0 1.9-1.2 1.9 1.2-178.7 0 0-1.9-1.2 1.9 1.2-178.7 0 0-1.9 1.1M538.9 630.7q-5 2.6-9.4 6.3-1.2 1-3.3 1.1a1 1 0 0 0-.8.6l-.2 1.2a.7.7 0 0 1-1 .5q-1.3-.5-1.6-2.2a1 1 0 0 1 1.3-1.2l1 .2a1 1-66.9 0 0 .9-.3q.5-1 2.6-1.8 4.9-2 10-5h.4l.2.3zM680.6 634v5.1a.9.9 24.6 0 1-1.6.6l-3.6-4.1q2.4.2 5.2-1.6M696.3 636.8q3.3 6.5 7.6 9.3c9.8 6.3 16.8 11.5 20.1 22.5q-1.2.1-1.1 1.5a.8.7-65.7 0 0 0 .4l1.3 1.7a2 2 0 0 1-.2 2.1q-1.8 1.5-.9 3.6 2.3 5.2 3.7 8.8 2 5.5 1.8 10.7-.2 2.7-2.2 5.5c-10 13.2-16.6 22.3-24.6 31.1a5.6 5.4 80.5 0 0-.8 1.2q-2.5 4.8-3.9 6.3c-3 3.2-4.4 4.8-6.9 7.2q-2.1 2.1-3.9 5.2a.7.7 0 0 1-1.1 0l-.3-.3a1 1 40.4 0 1 0-1q2.3-4.6 1.4-8.8a.6.6 42.5 0 0-1.2 0l-.4 3.5a2 2-14.6 0 1-.7 1l-.7.6a.5.5 0 0 1-.8-.5l.8-6.2v-.1l2.5-4v-.1q.8-4.8 3.3-11.3a7.3 6.7 62.1 0 0 .3-1.4q.6-3.7 3.2-13.8 1.7-6.4 3-15.7a1 1 13.4 0 0-.7-1.3 1 1 0 0 0-1.2.7l-3.3 14.3q-.2.3-2.2 10.4-1.2 5.8-3 11.1a.6.3 75.1 0 0 0 .1l-.8 4.5a.3.3-43.7 0 1-.6 0q-.5-4.4.9-7.9a3.8 3.6 60 0 0 .3-1.1q.2-2.4 1.2-5.7.8-2.6-.3-5-.6-1.6 0-3.2.9-2.7 1-6a4 3.6 55.8 0 1 .1-.9q2.1-7.5 4.4-18.3c.6-3-.2-6 .8-8.9 2.1-5.8 1.7-8.6 1.5-16.6 0-3.5.5-6.1 1.1-9.5a5.4 5.3 50.1 0 0 0-1q-.1-7.5 1.5-14.7"/><path fill="#8e7b2d" d="M609.3 653.4a.6.6-46.1 0 1 0-1.1l3.4-1a1.8 1.6 18.3 0 0 .4-.1q6.6-4.2 14.5-7a1 1 0 0 1 1.2.7v.4a1 1 0 0 1-.3.7q-8.1 2.5-16.3 7-1.3.7-2.9.4M207.1 674a2 2 0 0 1-2.7 1l-5.2-3a.5.5-58.2 0 1-.1-.8l13.8-21.7a3 3-65.2 0 1 3.4-1.2l3.1.9a2.3 2.3 23.2 0 1 1.4 3.2c-.7 1.2-2.4 2.6-3.5 4.4l-7 12.2c-1 1.8-2.5 3.2-3.2 5"/><path fill="#735b2a" d="M602.2 666.5q1-.5 1.5-.4a1 1 0 0 1 .4.5c.5 5.5-1.7 8.8-3.2 13q-1.4 4-3.2 5.3-4.4 3.2-9.2 0a.7.7 0 0 0-1.1.6l-.5 5.3.2.9 2 2.8q2.4 8.3-3.5 13.1c-5.3 4.4-12.8 4.7-17.2-1q-.8-1.1-.9-2.7-.3-5.1-1.7-9.3a2.5 2.5 64.5 0 0-3.6-1.3l-.8.5a3 3 0 0 0-1 4.2l4.5 7.3a1.3 1.3 70.4 0 1-1 2h-.4a1 1 0 0 1-.9-.3l-13-20.2a1 1 0 0 1-.1-1q1.4-3.1 5.1-4l.6-.4q1.3-1.7 1.3-2a1 1 0 0 1 .7-.7q2-.6 3.1-2.8l.6-.6q2.8-1.8 3.6-1.7 6.5.4 8-5a1 1 9.5 0 1 .9-.8q2.4.2 5.4-1.2a2.6 2.4 26.4 0 1 .8-.3l15.6-1.8a1 1-80.8 0 0 1.1-.8q.5-1 .7-1.1a1 1 68.7 0 0 .4-.8q-.3-1.2.8-2.4 1-1 2.1-.2t1.4 2a1 1 67.7 0 1-.4 1l-1.9 1.2a1.5 1.4 89.1 0 0-.5.6c-1.7 3.5-5 5.4-7 8.5a6 5.5-6.6 0 1-.9 1l-3.1 3a1.4 1.4 0 0 0 .4 2.3l.6.3a2 2-56.8 0 0 2-.5zM563 684.1q2.5 1.3 3.1 4.1a1 1 0 0 0 1.9.2q.7-1.6-.4-2.5-1.6-1.4-2.3-3.5l-.5-.6q-.8-.3-2 .4a1.1 1.1 0 0 0 .2 2"/><ellipse fill="#8e7b2d" rx="3.9" ry=".8" transform="rotate(226.9 453.6 197.5)"/><path fill="#735b2a" d="M555 676.7q-.1-4.6-4.8-6.7a.5.5 0 0 1 0-.8l2.6-1.6a4.3 4-80.1 0 0 .6-.4q3.5-3.2 7.6-5a1 1 0 0 1 1.4.8q.2 2.6 2.5 4.2a1 1 0 0 1 0 1.8l-7.8 5.7-.2.2-1.4 1.9zM687.7 665.4q1.1 1.5 1.6 4.9.3 1.9-1.1 5.2-.7 1.8-1.4 5.3-.3 1.5-2.8 7.6l-.3.8q-1.3 6.1-4.4 11.7a.4.4 0 0 1-.7 0q-.5-1.4-.2-2.3 3.9-11.2 4.6-14.3 1.6-6 2.4-13.7a5 5-28.5 0 1 .6-2q1-1.8 1.1-3a.3.3 0 0 1 .6-.2"/><ellipse fill="#8e7b2d" rx="1.9" ry="1.2" transform="rotate(181.3 316.6 331.7)"/><path fill="#8e7b2d" d="M563 684.1a1.1 1.1 0 0 1-.1-1.9q1-.7 1.9-.4l.5.6q.7 2 2.3 3.5 1.1.9.4 2.5a1 1 0 0 1-1.9-.2q-.6-2.8-3.1-4"/><path fill="#735b2a" d="M688.2 687.2a.5.5 0 0 1 .9.4l-6.7 21.8c-.3 1-.4 2.5-1.3 3.7a.8.7-42.2 0 1-1.2 0q-.2-.3-.2-.9a25 25 0 0 1 2.4-11.2q2.3-4.5 5-12.2a2.1 2-18.2 0 1 .3-.5zM616 712.8a.8.8 22.6 0 1-.6-1.4c6.9-4 14.2-7.4 20.5-12.5a.8.8 0 0 1 1.2 1.2 42 42 0 0 1-21.2 12.6"/><path fill="#8e7b2d" d="M77.4 716.4q1.4-.6 3.3.4l19 9.3a1 1 28.6 0 1 .3 1.3q-6 10-14.2 23.2-1 1.6-2.4 3.2a2 2 0 0 1-2.5.4l-19.2-9.5a2 2 0 0 1-.7-2.9l16-25.1zM211.4 821.3l-22.6-11.2a2.2 2.2 0 0 1-1-3.2l14.7-24.7a2 2 0 0 1 2.9-.8l22.6 11.2a2.2 2.2 0 0 1 .9 3.1l-14.6 24.7a2 2 0 0 1-2.9.9"/><path fill="#735b2a" d="M546.8 790.5a.8.8 0 0 1 .9-1.3q4 2 9.2 2.3 6 .2 9.1.5a7 7-49.2 0 0 2.5-.2l1.8-.5a.8.8 0 0 1 1 .9q-.4 2.7-2.7 4a1.8 1.7 31.9 0 1-1 .3c-6.6-.6-16-1.8-20.8-6"/><ellipse fill="#735b2a" rx=".6" ry=".3" transform="rotate(-3.4 13487 -5855.5)"/><path fill="#735b2a" d="M5.8 800.7q-2.2 5.4-5.8 10v-6.8l.6-.4q.4-.2.7 0 .5.2 1 .1.3 0 .8-.5 1-1.2 2.7-2.4M611.7 805.4H610z"/><path fill="#8e7b2d" d="M114.2 825.2 104 820a1.5 1.5 0 0 1-.6-2.2l6.9-10.7a2.3 2.3-64 0 1 2.7-1q5.5 1.9 9.7 5.6a1 1 0 0 1 .2 1.4l-7.5 11.8a1 1-60.1 0 1-1 .3"/><path fill="#735b2a" d="M3 823.2q-2.3.6-3-.3v-7.8q3.4-1.7 7.3.8.9.6.8 1.6-.1 3.9-5.1 5.7M11.5 825q-1 0-1.5-.5 1-.3 1.5.5"/><ellipse fill="#735b2a" rx="1.1" ry=".5" transform="rotate(-64.6 800.6 204.7)"/></svg>