<?xml version="1.0" encoding="UTF-8" standalone="no"?>
<!-- Created with Inkscape (http://www.inkscape.org/) -->

<svg
   version="1.1"
   id="svg1"
   width="682.66669"
   height="428"
   viewBox="0 0 682.66669 428"
   xmlns="http://www.w3.org/2000/svg"
   xmlns:svg="http://www.w3.org/2000/svg"
   xmlns:rdf="http://www.w3.org/1999/02/22-rdf-syntax-ns#"
   xmlns:cc="http://creativecommons.org/ns#"
   xmlns:dc="http://purl.org/dc/elements/1.1/">
  <title
     id="title1">Light-1 Icon SVG</title>
  <defs
     id="defs1" />
  <g
     id="g1">
    <path
       style="fill:currentColor"
       d="m 117.33334,425.90638 c -3.7591,-3.10667 6.79338,-7.10828 5,-10.39574 1.75994,-0.50775 9.11105,-11.21775 10.70202,-13.91454 7.43037,-10.0396 6.6766,-9.45292 10.41689,-14.43364 1.25429,-2.04976 8.18637,-10.79005 9.58311,-13.56636 7.17939,-9.13166 5.05583,-8.17522 10.7745,-14.57601 -2.96877,-0.35322 8.22877,-7.06799 4.25506,-8.85912 5.72407,-2.60607 5.64592,-7.12097 8.55182,-10.0335 2.27154,-1.81949 4.66015,-8.91676 7.26815,-8.72279 3.32427,-8.89207 3.97005,-6.31332 7.59758,-12.16326 0.6326,-3.51633 7.35118,-6.88721 4.96198,-9.36079 7.23848,-5.39756 4.57856,-7.65395 9.71971,-10.38949 1.09841,-7.2064 4.0746,-4.03384 6.10009,-12.32087 1.98384,0.17166 3.61764,-3.51125 7.16004,-10.22661 4.33466,-6.13298 4.47244,-4.87209 5.46302,-22.73626 -19.5144,-3.1402 -7.1043,-16.3355 -3.59703,-23.01415 -2.99929,-30.44431 -1.7582,-61.03378 0.3714,-91.48763 -20.10386,-0.69226 -38.24811,-12.7755 -60.46106,-7.614 -53.4779,0.0621 -107.034463,3.90282 -160.4270646,3.2082 13.8343766,-10.40373 46.3993116,-2.59733 67.0799036,-5.99182 43.586671,-2.00918 87.675031,-0.0718 130.901701,-5.45118 12.00752,-3.32797 34.09609,-23.11259 8.37764,-22.08226 -9.82964,-1.5929 -52.91877,-12.162692 -36.51114,-13.690451 5.39048,6.235071 8.46516,3.535697 3.24808,-2.64668 18.95282,-11.863943 35.74106,-4.865283 54.33548,-14.791179 1.19086,-9.828745 52.58832,10.383668 30.13269,-10.949449 -14.95042,-16.381872 0.13155,1.385624 -4.06003,-2.51918 -3.9061,-4.94854 -20.71796,-26.357025 -9.64822,-11.239232 C 232.32593,35.523247 238.63531,39.909159 236.00001,34 226.22351,24.167964 212.85793,14.52626 209.98871,0.71404227 221.98102,4.3230423 229.83356,19.590147 234.66667,24.963424 c 14.11135,12.339891 16.49124,20.877908 30.09721,31.2567 -3.42711,11.787601 36.44023,11.3093 6.95754,6.274227 2.24666,-3.588135 36.60011,-12.291871 35.48212,-17.6132 3.39203,-8.195392 12.03501,-4.933524 17.94554,-8.328371 15.48672,17.05556 46.71509,-5.867013 67.75401,-4.805178 23.47843,-5.923169 49.001,-9.454359 74.01531,-2.586414 23.59,1.686153 48.60974,15.136011 71.1557,9.606478 14.21408,11.091743 33.65183,0.290837 45.30704,13.500133 13.21151,-6.466546 32.00878,3.951359 16.90153,15.571254 21.08602,6.802553 44.91061,9.872975 67.06664,13.209409 33.9437,6.017729 -22.33406,15.444513 -32.79759,21.559768 -7.20448,8.79556 -30.27099,1.8168 -31.88504,15.77215 -1.73875,14.26546 -7.92561,40.86669 -2.33333,48.18628 -6.27302,-26.55916 8.24518,7.25112 -1.19769,13.6501 -84.26255,32.58361 -170.17345,61.10499 -254.91805,92.45452 -0.19789,13.8556 17.48531,50.88331 6.99399,52.42827 -10.03588,-19.39405 -1.69189,-59.66683 -32.49131,-48.1051 -17.48112,-13.70164 -44.70482,-9.77309 -62.65577,-18.89259 -17.30318,-6.71415 -11.85744,13.80726 -24.63272,15.34173 -6.9487,6.54179 -4.46011,8.08578 -9.59595,11.06546 -2.18932,5.50093 -2.79721,7.75614 -8.23104,12.67648 0.70807,3.87472 -3.6404,6.91916 -8.01909,13.14163 0.79418,2.30577 -4.59707,5.82173 -6.2521,9.67278 -2.62423,4.12035 -4.98763,6.48032 -7.17298,11.26293 -0.46266,1.39257 -8.56335,7.62893 -5.93785,9.5232 -6.68253,6.53326 -5.76562,6.03117 -10.39492,13.32067 -1.65514,2.52838 -6.48826,6.35889 -7.4163,11.39641 -3.45666,-0.21279 -10.20145,9.60481 -7.61674,8.95725 -3.58247,3.38423 -4.14005,9.58092 -7.34554,8.80158 -3.86142,9.58806 -3.33133,5.78578 -9.10387,13.64315 -0.0855,2.96451 -4.58493,6.5693 -7.34429,10.42794 -1.22041,4.81454 -8.09697,9.05555 -7.90532,13.37616 -5.59747,-1.34859 -5.99004,12.65205 -11.76247,5.19715 z M 423.00001,164.45029 c -8.29706,-1.32267 -0.10339,2.30697 0,0 z m -6.02778,-1.25585 c -5.69697,-1.52079 -1.45724,2.46053 0,0 z m -16.63888,-4.07748 c -8.29706,-1.32267 -0.10343,2.30694 0,0 z m -5.77778,-0.92939 c -14.01456,-5.54006 -4.69391,2.10376 0,0 z M 384.66668,156 c -8.85861,-4.17194 -3.83148,2.43171 0,0 z m 82,-2.00007 c -9.33344,-4.13085 -6.23549,3.83865 0,0 z m -105.69445,-4.13882 c -5.69697,-1.52079 -1.45725,2.46051 0,0 z m -5.97222,-1.41082 c -8.29706,-1.32267 -0.1034,2.30697 0,0 z m -6.66667,-1.33333 c -8.29705,-1.32265 -0.10341,2.30694 0,0 z m 150.33334,-3.62037 c -4.31686,-6.17592 -4.69599,-1.04394 0,0 z m -5.69444,-5.63548 c -5.69698,-1.52079 -1.45726,2.46051 0,0 z m -9.97223,-4.07748 c -8.29705,-1.32265 -0.10341,2.30694 0,0 z m 19.30556,-1.25585 c -5.69698,-1.52081 -1.45727,2.46052 0,0 z m -53.33333,-6.66667 c -5.69698,-1.52079 -1.45726,2.46051 0,0 z M 343.33334,120 c 16.05833,-3.64134 20.58948,-6.74816 1.51492,-2.06319 -15.13017,3.23041 -26.41107,9.85506 -1.51492,2.06319 z m -47.71603,-2.16048 c -11.19973,-4.83174 -37.24717,-5.56028 -11.27475,-0.91355 3.32609,0.0968 8.80932,2.75853 11.27475,0.91355 z m 237.35493,-1.31174 c -5.69697,-1.52081 -1.45728,2.46051 0,0 z m -6.66667,-1.33334 c -5.69697,-1.52079 -1.45725,2.46053 0,0 z m -146.81623,-5.4525 c 44.83626,-13.67575 -56.73702,13.14209 0,0 z m 134.81623,2.78584 c -5.69695,-1.5208 -1.45728,2.46051 0,0 z m -113.63889,-8.63997 c -3.90048,-1.33038 -21.19163,-11.877729 -4.6473,1.19786 z M 207.6389,97.861111 c -5.69697,-1.520797 -1.45728,2.460509 0,0 z m -5.33334,-1.333333 c -5.69696,-1.52079 -1.45726,2.460512 0,0 z m -5.97222,-1.410819 c -8.29705,-1.322663 -0.10341,2.306957 0,0 z m 188.63889,0.07749 c -5.69696,-1.520793 -1.45727,2.460513 0,0 z m -16,-1.333333 c -5.69696,-1.520793 -1.45727,2.460513 0,0 z m -7.30555,-1.410819 c -8.29706,-1.322673 -0.10343,2.30696 0,0 z m 35.30555,0.07749 c -5.69696,-1.520792 -1.45726,2.460513 0,0 z m -41.97222,-1.410819 c -8.29705,-1.322663 -0.10341,2.306957 0,0 z m 35.30556,0.07749 c -5.69697,-1.520797 -1.45728,2.460511 0,0 z m -6.66667,-1.333333 c -5.69698,-1.520797 -1.45726,2.460514 0,0 z m -34.66667,-1.333333 c -5.69696,-1.520792 -1.45726,2.460513 0,0 z m 17.33334,0 c -5.69697,-1.520797 -1.45727,2.460512 0,0 z m -19.81343,-4.349207 c -6.95303,1.543355 -5.54261,6.757367 0,0 z M 455.14885,86 c -6.35096,-7.165663 1.70519,7.114007 0,0 z m -92.84328,-0.138889 c -5.69697,-1.520797 -1.45728,2.460511 0,0 z M 469.33335,83.82866 c -7.5912,-1.350525 -14.302,6.199406 0,0 z m -115.02778,0.699118 c -5.69697,-1.520797 -1.45727,2.460512 0,0 z m 314.66667,-1.333334 c -5.69696,-1.52079 -1.45727,2.460512 0,0 z M 362.66668,77.535759 c 17.67357,-3.640566 18.89438,-6.679284 -0.01,-1.518475 -12.59658,2.261082 -23.48255,7.638689 -4.18379,2.583987 z m 283.63889,1.658685 c -5.69696,-1.520795 -1.45726,2.460514 0,0 z m -227.63889,-6.66835 c -9.25243,-1.834808 -6.14006,3.934717 0,0 z m 191.63889,0.0017 c -5.69696,-1.520792 -1.45726,2.460513 0,0 z m -85.33333,-4 c -5.69697,-1.520797 -1.45727,2.460512 0,0 z m 5.33333,-1.333334 c -5.69696,-1.52079 -1.45727,2.460512 0,0 z M 390.66668,62.725199 c 7.5871,-1.587035 -12.05554,-5.335734 5.25911,-2.30014 0.6211,-6.763786 -48.33321,-3.272255 -27.41601,0.546182 7.22018,1.469591 14.83273,4.049505 22.1569,1.753958 z m -20,-3.989447 c 14.63397,-3.204311 14.24073,1.145348 -0.91064,0.438073 z m 187.63889,0.458708 c -5.69696,-1.520792 -1.45726,2.460515 0,0 z M 265.33334,58.20665 c -6.73349,-7.889886 -6.55173,-3.927326 0,0 z M 360.66668,52 c 0.0583,-4.483456 -4.09337,4.441747 0,0 z M 254.66667,46.20665 c -6.7335,-7.889877 -6.55171,-3.92734 0,0 z m -9.33333,-10.666667 c -6.73349,-7.889887 -6.55172,-3.927325 0,0 z m -12,-4 c -6.73349,-7.889887 -6.55172,-3.927325 0,0 z m 1.33333,-8 c -6.7335,-7.889881 -6.55171,-3.927335 0,0 z m -10.66666,-12.04339 c -4.31689,-6.1759289 -4.69598,-1.043956 0,0 z M 356.10527,317.88889 c 1.23195,-4.99037 0.56971,5.79346 0,0 z m -13.33333,-13.33333 c 1.23195,-4.99037 0.56969,5.79346 0,0 z m -1.33333,-5.33334 c 1.23193,-4.99036 0.56969,5.79347 0,0 z m 6.66666,-14.66666 c 1.23195,-4.99037 0.56971,5.79346 0,0 z m -43.02193,-12.13305 c 7.33652,-0.71267 -2.05264,2.2168 0,0 z m -21.33333,-5.33333 c 7.3365,-0.71268 -2.05265,2.2168 0,0 z m 80.25,-0.42251 c 10.40432,-4.78396 -4.11112,4.46684 0,0 z m -85.58334,-0.91082 c 7.33651,-0.71267 -2.05262,2.21678 0,0 z m -5.33333,-1.33334 c 7.33652,-0.71267 -2.05264,2.2168 0,0 z m -16,-4 c 7.33652,-0.71267 -2.05264,2.2168 0,0 z m -11.75,-1.75584 c 3.66126,-4.97732 1.2088,4.59891 0,0 z m 147.75001,-2.24416 c 7.33651,-0.71265 -2.05267,2.21679 0,0 z M 210.8772,241.33333 c 0.99975,-7.3713 0.99973,7.37132 0,0 z M 217.54387,216 c 0.99976,-7.37147 0.99976,7.37147 0,0 z m 385.22808,-39.44444 c 1.23194,-4.99036 0.56969,5.79346 0,0 z M 217.59327,164.66667 c 0.97822,-7.75346 0.57916,8.35467 0,0 z M 600.4571,143.33333 c 0.3242,-20.41349 1.36157,19.99019 0,0 z m -386.12376,-1.5497 c 8.29705,-1.32266 0.10341,2.30694 0,0 z M 5.7068977,137.68497 c 29.1491113,-1.42609 1.8996081,1.84952 0,0 z m 37.9597703,-1.33883 c 32.655292,-0.44975 10.24195,1.26385 0,0 z m 48.666668,-1.33722 c 10.949514,-0.75625 34.411754,0.56932 10.333334,0.45443 -1.58467,-0.0383 -16.985709,0.0966 -10.333334,-0.45443 z m 51.333334,-1.32524 c 27.42738,-0.46368 8.56957,1.31741 0,0 z M 17.000001,128.45029 c 8.29706,-1.32267 0.103404,2.30697 0,0 z m 49.416668,-1.36111 c 7.336506,-0.71268 -2.05264,2.21681 0,0 z m 58.666671,-1.33333 c 7.3365,-0.71266 -2.05264,2.21677 0,0 z m 479.29803,-5.08918 c 0.98711,-12.78579 0.59654,14.08191 0,0 z m -393.87315,-6.29145 c 2.78121,-10.25456 -0.16434,10.81085 0,0 z m 5.24179,-8.61937 c 7.3365,-0.71266 -2.05265,2.21677 0,0 z m -12.08334,-2.63889 c 8.29706,-1.32267 0.10343,2.30694 0,0 z M 658.66669,96 c 10.40431,-4.783962 -4.11112,4.46683 0,0 z M 202.33334,75.059023 c 14.57609,-1.255307 0.84897,2.040947 0,0 z M 260.66667,68 c -0.11185,-5.108467 6.0977,5.380516 0,0 z m -8.91666,-0.910819 c 7.3365,-0.712669 -2.05265,2.216795 0,0 z m -14.66667,-1.333333 c 7.33652,-0.712682 -2.05264,2.216803 0,0 z m 7.91667,0.02778 c 8.29706,-1.322658 0.1034,2.306951 0,0 z m 363.21053,-8.450293 c 0.99977,-7.37146 0.99977,7.371461 0,0 z m -333.79387,-0.91082 c 7.33652,-0.712678 -2.05263,2.216799 0,0 z m 312.58335,-6.674949 c 11.4329,-1.297189 0.49091,2.147156 0,0 z m 8.75,-1.325051 c 7.3365,-0.712669 -2.05265,2.216793 0,0 z m -264.00001,-8 c 7.33652,-0.712681 -2.05264,2.216801 0,0 z m 45.33333,-8 c 7.33652,-0.712678 -2.05263,2.216799 0,0 z m 104.00001,-2.666667 c 7.3365,-0.71267 -2.05265,2.216795 0,0 z m -85.33334,-1.333333 c 7.33652,-0.712681 -2.05264,2.216801 0,0 z m 12,-2.666667 c 7.33652,-0.712682 -2.05264,2.216803 0,0 z m 5.33334,-1.333333 c 7.33651,-0.712665 -2.05267,2.216791 0,0 z m 16,-2.666667 c 7.33651,-0.712666 -2.05267,2.216793 0,0 z"
       id="path1" />
  </g>
  <metadata
     id="metadata1">
    <rdf:RDF>
      <cc:Work
         rdf:about="">
        <dc:title>Light-1 Icon SVG</dc:title>
        <dc:source>https://www.nanosats.eu/img/sat/Light-1_3_NanoAvionics.jpg</dc:source>
      </cc:Work>
    </rdf:RDF>
  </metadata>
</svg>
