<svg xmlns="http://www.w3.org/2000/svg" baseProfile="tiny" width="512" height="321" xmlns:v="https://vecta.io/nano"><style><![CDATA[.B{fill:#4e5c66}.C{fill:#050607}.D{fill:#fdfefe}]]></style><path d="M209.47 49.62q-1.02 1.68 2.27.62l2.35-.46a.54.54 0 0 0 .01-1.06l-11.24-2.36a.51.51 0 0 1 0-.99l13.33-2.84 9.55-1.93a.25.25 0 0 0 .12-.43l-.39-.34q1.45-.24 2.4-.94a.9.9 0 0 0 .36-.86q-.29-2.03 1.35-2.66 1.08-.41 2.07-1.55.97-1.12 1.85-2.1.59.79 1.23.89.63.1 1.11-.79.3-.58 1.17-.41a1.2 1.16-53.2 0 0 .82-.13l3.88-2.2q.68-.07 1.23.35 4.23 3.18 10.04 3.82a4.49 4.4 41 0 0 1.48-.09q3.07-.73 22.04-4.91.76-.17 1.65.61a.42.41-53.5 0 0 .62-.1q.56-.91 1.06-1.08 1.64 1.22 4.45-.4a2.81 2.72 28.1 0 1 1.33-.38q1.81-.04 3.05-.73c1.36-.75 2.9-.49 4.51-1.21a2.95 2.78-56.2 0 1 1.14-.26q2.9-.06 4.35-1.34l20.57-4.9a4.9 4.9 0 0 1 2.03-.05l5.97 1.14a5.45 4.97-19.9 0 0 .75.09q9.67.55 12.53 1.1 22.12 4.17 37.21 6.61a5.07 4.93-28.7 0 1 1.12.31c6.15 2.46 12.53 2.19 18.44 3.9q1.39.4 2.59.56 3.96-3.05 7.22-.17 7.19 2.36 15.61 3.25a1.18 1.16 30.5 0 0 .8-.2l2.09-1.42a1.13 1.1 27.9 0 1 .67-.2q1.5.04 2.48.82a.98.97 22.3 0 1 .36.85q-.1.94.33 1.29a.98.94-21.3 0 0 .51.21q4.97.56 5.85 1.16 1.63 1.08 3.53 1.62-.71.64 1.25 1.1a.61.61 0 0 1-.08 1.2q-.74.07-1.36-.17a.53.48 42.1 0 0-.31 0l-8.66 3.06a.21.2-20.1 0 0-.13.27l.31.73a.4.4 0 0 0 .43.24q3.4-.61 6.77-2.04a4.44 4.2 26.6 0 1 .96-.29q6.82-1.25 13.23-4.1 3.28 1.08 2.9 4.61-1.69.66-.99 2.6-.09 1.23-1.41 1.63c-1.19-.17-3.08-.17-3.78 1.02q-.38.65-1.09.9-3.71 1.33-5.59 1.57a.62.62 0 0 0-.53.74l.24 1.21a.85.84-14 0 1-.59.97q-.32.08-1.04.74a.5.5 0 0 1-.8-.58l.79-1.72a.33.33 0 0 0-.39-.46L399.82 64.1a.5.5 0 0 0-.23.8q.77.89.8 1.61a.5.5 0 0 0 .71.44q1.19-.53 2.42-.14a1.13 1.09 45.9 0 0 .62.02q6.33-1.64 14.72-4.17c2.67-.8 5.17-.95 7.41-1.13a1.08.93-2.5 0 0 1.01-.95q0-.65.96-.85 2.68-.55 11.19-3.22c3.26-1.02 7.68-.9 9.9-2.4a1.04 1.04 0 0 1 .92-.12l4.57 1.54 11.44 1.44a2.35 2.3 61.5 0 1 .78.24l.94.49a2.69 2.46 61.6 0 0 .75.26c12.08 2.23 18.31 3.5 24.48 3.79a1.81 1.79-28.5 0 1 .82.24c2.61 1.51 5.76.64 7.61 3.68a1.35 1.33-26.7 0 0 1.66.54q1.76-.73 4.03-.83L452.1 84.57a.72.72 0 0 0-.49.67q-.04 9.76-.1 10.29a3.18 2.11 88.7 0 1-1.57 2.48q-.61.2-.98 1.12a1.92 1.84 56.8 0 0-.13.69l-.19 11.79-.55-10.25a1.35 1.33 24.8 0 0-.29-.77q-.8-.99-.64-2.58a.4.39-11.5 0 1 .21-.31q.19-.1.51-.9a.43.42 19.8 0 0-.27-.56q-.39-.12-.43-.49-.37-2.9.78-8.6a.67.67 0 0 0-.79-.79l-4.97 1.06a.35.3-62.9 0 0-.15.06q-1.88 1.22-4.25 1.5a1.1 1.05 32.1 0 0-.29.06l-44.29 14.45a3.86 3.85 41.7 0 1-1.95.11q-3.78-.76-4.97-.25-5.56 2.37-11.05 2.65a.07.05-69.7 0 0-.05.03q-.01.02-.02.03a.05.03-70.5 0 0 .02.07q1.64.09 3 .92a.84.83-39.1 0 1-.16 1.5l-5.93 2.09a.06.05-32.7 0 0-.02.09q.12.1.29.15.5.17-.29.45-.55.2-.77.37-.21.16-.25.81-.77 14.55-.66 18.99a.74.74 0 0 1-.5.73l-12.12 4.28a.63.63 0 0 1-.84-.61l.56-19.39a1.16 1.16 0 0 0-1.53-1.13c-2.44.82-4.92 1.97-7.51 2.75q-14.08 4.24-20.48 6.63-4.08 1.52-7.23.22a1.27 1.26 41.7 0 0-1.07.06q-2.49 1.34-4.39 1.04-5.8-.92-10.34-2.71a4.03 3.73 56 0 0-.98-.23q-2.77-.28-4.72-.7-5.56-1.2-22.16-5.36a.09.08 19.4 0 1-.06-.11l.08-.26a.01 0-58.3 0 0 0-.01q-3.45-.92-5.51-.81a2.26 2.08 47.3 0 1-.62-.05l-12.5-2.89a1.74 1.73-9 0 0-1.88 2.58q7.95 13.28 16.87 29.7c1.55 2.85 1.96 8.11 3.42 12.73a.54.53 71.7 0 0 .68.35l5.42-1.87a.88.88 0 0 1 1.13.59q.15.53-.26 1.83a.41.41 0 0 0 .76.29l1.06-2.32a.45.45 0 0 1 .84.08q.69 2.76-.45 5.19a.88.88 0 0 1-1.68-.42q.03-.47-.31-.94a.17.17 0 0 0-.3.13c.93 4.43-.56 8.15.02 12.34.08.63-.3 1.36-.8 1.81a.46.45 38.3 0 0 .09.74c4.69 2.51 13.88 1.64 18.09.48q7.95-2.18 10.31-2.64a.32.31-63.9 0 1 .2.59q-5.27 2.68-10.43 4.01c-4.14 1.08-9.89.92-14.07 1.92a.38.38 0 0 0-.07.71l.7.32a.71.71 0 0 1 .24 1.11q-.72.83-.69 1.73a.44.44 0 0 0 .59.39l24.88-8.77a.82.81 40.9 0 1 .45-.03q.24.05.25.05a.75.75 0 0 0 .81-.6l.38-1.8a1.32 1.29-56.9 0 0-.2-1.02q-2.15-3.08.75-4.92a.39.38-10.6 0 1 .59.4q-.12.59-.71 1.26a1.22 1.18-78.7 0 0 1.26 1.96q2.04-.74 2.11-.78a.71.6 10.9 0 1 .82 1.02q-.32.22-.23.8a.48.48 0 0 0 .64.38l7.15-2.52a1.28 1.08 31.3 0 1 .38-.06q.75.01.98.12a.4.39-75.1 0 0 .56-.33l.36-3.83a.56.55 3.3 0 1 .57-.5l1.54.05a.23.23 0 0 1 .22.28q-.32 1.45-1.14 2.8a.46.46 0 0 0 .54.67q17.1-5.94 36.31-12.86c1.67-.61 3.37-1.73 5.11-1.85a6.56 6.38-57.4 0 0 2.05-.48l18.84-7.84a2.15 2.13-48.8 0 1 1.39-.1q.81.21 1.12.1 20.31-7.29 35.71-12.95a.71.69-30.3 0 1 .76.19q.28.32.31 1.18a.54.54 0 0 0 .31.47l.5.23a.31.31 0 0 0 .44-.3q-.06-1.09-.35-1.79a.81.81 0 0 1 .65-1.11q2.25-.27 2.62-.86a.77.75 53.7 0 0 .08-.58q-.41-1.56.43-3.19a.66.66 0 0 1 .86-.3l.38.17a.86.86 0 0 1 .31 1.32q-1.01 1.24-.24 1.81a.48.46-36.9 0 0 .46.06l10.82-4.12q2.42 2.03.78 4.85a1.43 1.42-34.2 0 0-.18.92q.36 2.72-2.63 3.8-37.83 13.68-142.1 51.37c-6.51 2.36-13.02 4.08-18.44 5.99q-9.02 3.18-17.98 6.56.02-.48-.38-.33-.96.35-.66.71l-9.99 3.88a1.33 1.33 0 0 0-.8 1.56l9.41 38.11a1.15 1.15 0 0 1-1.36 1.4l-.58-.12a1.99 1.99 0 0 1-1.52-1.47L254.13 206a.71.71 0 0 0-.93-.5l-7.25 2.55a1.43 1.34-55 0 1-.43.09q-3.84.29-6.92-1.39l-.11-8.29a.94.94 0 0 1 .58-.87l2.43-1.01a.61.61 0 0 0-.23-1.18q-.91-.02-3.77-.65c-3.65-.82-4.31-5.52-3.44-8.37q.29-.94 1.7-.98a.39.39 0 0 0 .36-.54q-.59-1.46 1.38-1.56 1.31-.06 3.49.76.74.29 3.43.08a.68.68 0 0 0 .62-.63q.19-3.01 3.11-2.62a1.17 1.11 66.1 0 1 .53.22l1.66 1.25a.32.31-72 0 0 .5-.26q-.22-12.82.39-24.57.13-2.63.18-7.78.27-28.95.45-38.98c.01-.59.38-1.35.49-2.04a.48.47-88.1 0 0-.51-.55q-.01.01-2.32.47-.67.13-1.32 1.46-.61 1.23-2.69 1.47a1.73 1.73 0 0 1-1.93-1.75l.03-1.33a1 .99 12.7 0 0-.59-.92q-.61-.29-3.18-.38a.81.8-88.6 0 1-.78-.83l.23-7.94a1.02 1.02 0 0 1 1.01-1q1.07-.01 2.11-.48a1.04 1.03-50.8 0 1 .64-.07q1.35.26 1.88-.67a.85.84 15.6 0 1 .75-.42q.73.01 1.26-.42a.49.49 0 0 0-.1-.83l-.75-.35a.46.46 0 0 0-.6.21q-.2.4-.22.47-.05.21-.82.31-2.72.34-3.85-1.76a1.04 1.04 0 0 0-1.95.46l-.06 1.92a.93.92 6.5 0 1-1.11.88l-4.89-1.04a1.19 1.19 0 0 0-1.09 2l2.85 2.84a.48.48 0 0 1-.36.82l-.82-.03a1.49 1.47 75.1 0 1-1.23-.72q-.8-1.35-2.78-1.52a.47.46-4.5 0 0-.49.57q.06.26.59.77a.32.31-23.2 0 1-.22.54q-.57.01-1.23-.92a.53.53 0 0 1 .18-.77q.32-.18.4-.64a.4.4 0 0 0-.31-.46l-.35-.08a.41.4-74.1 0 0-.46.26q-.29.76-.3.78a.85.85 0 0 1-1.41-.83q.65-2.47 2.83-2.44a.28.28 0 0 0 .21-.48l-1.08-1.08a.94.93 73.7 0 0-.45-.25q-6.53-1.54-13.04-2.84-1.9-.38-4.29-.13a.49.48-10.6 0 0-.42.61q.23.89.01 2.44a1.19 1.19 0 0 1-1.8.84q-2.66-1.65-1.31-4.12a.47.47 0 0 0-.26-.67q-4.54-1.6-10.23-2.19a5.2 4.87 55.7 0 1-1.12-.25q-3.64-1.28-5.74-1.26a.74.73-29.5 0 0-.38 1.36q1.19.72 1.12 1.71-.02.31-2.13 2.56-.48.51-1.46.2a.55.55 0 0 1-.32-.78q.44-.81-.58-1.28a.83.82-77.7 0 1-.48-.75q-.02-1.52 1.06-2.08a.9.9 0 0 0-.22-1.68q-4.95-1.09-7.63-1.84-2.27-.64-3.72.23a1.04 1.01 76.3 0 0-.5.85l-.21 7.31a.68.68 0 0 0 .42.64q1.66.7 3.14.71a.95.95 0 0 1 .87.57q.04.08.04.53a.8.79 1.1 0 0 .78.8l1.96.06a.83.83 0 0 1 .25 1.62l-1.41.5a1.01.99-88.5 0 0-.6.58q-.74 1.81-2.01 2.5-.87.47-1.36-.36a.29.28 75.2 0 1 .25-.43l.68.02a.24.23 68.5 0 0 .17-.4q-1.09-1.12-.23-1.8a.25.24 38.5 0 0-.05-.41l-2.04-.93a.18.18 0 0 1-.01-.32q.24-.13.25-.14a.33.33 0 0 0-.11-.57c-1.89-.53-3.42-.84-3.75-2.59a.4.39-23.8 0 0-.63-.24q-1.05.82-1.36 2.33a.61.6-76.4 0 1-.76.47q-.02-.01-.41-.79c-.45-.92-3.66-.51-4.72-2.33q-.39-.67-.91-.98-.82-.48-1.15.17a.38.33-33.1 0 1-.69-.1q.04-.65.56-1.06a.36.32 81 0 0 .12-.19q.11-.51-.42-.64.48-.58.43-.96-.86-6.11 2.15-6.89c1.88.78 4.72-.52 6.56-1.19a.22.22 0 0 0 .06-.38q-.12-.08-.28-.18.27-.32-.47-.75-.38-.23-.93-.36-21.82-5.2-43.64-10.41a.37.37 0 0 1-.27-.44v-.02a.4.4 0 0 1 .47-.3q5.01 1.1 8.63 1.51 1.07.12 1.92-.33a.44.43 52.8 0 0 .09-.71q-.02-.02-2.55-.75-2.26-.64-1.96-3.2a.85.84-4.2 0 1 .62-.71q9.46-2.49 18.35-4.55c3.48-.8 6.37-.77 9.62.5a.64.64 0 0 0 .85-.75l-.27-1.09a1.29 1.29 0 0 1 .94-1.55l20.74-5.12a1.34 1.31-45.5 0 1 .58-.01c3.56.79 8.35 1.88 13.2 2.3q4.75.41 6.7.75a.2.2 0 0 0 .14-.37q-1.87-1.2-2.65-2.67c-.74-1.38-1.82-1.76-3.41-2.31a.61.6 16.1 0 1-.39-.69l.26-1.24a.66.65 30.8 0 0-.15-.57q-25.87-28.96-34.36-38.78-2.57-2.97-3.91-5.1-.19-.3-.06-.7.17-.56.78-.57a.56.55-10 0 1 .54.37l.09.26a.8.79-.6 0 0 .52.5q1.7.57 3.22 2.29 7.96 9.03 36.97 41.82 1.88 2.12 3.23 2.77a1.8 1.61-26.4 0 0 .58.16l6.24.58zm124.7-18.86l5.92 1.12a.08.08 0 0 0 .09-.06l.01-.03a1.68.97 10.7 0 0-1.47-1.27l-2.78-.52a1.68.97 10.7 0 0-1.83.64v.03a.08.08 0 0 0 .06.09zm-87.22 4.65q-1.46-1.05 2.03.88.14.08.49.06.65-.04.4-.77a.54.52-3.8 0 0-.39-.33l-5.82-1.23a.33.33 0 0 0-.26.58q1.38 1.02 3.24 1.16a.15.13 7.8 0 0 .14-.09q.05-.19.16-.21a.03.03 0 0 0 .01-.05zm6.66.96q-1.28-1.03-2.26-.82a.62.62 0 0 0 0 1.22l2.81.59a.72.72 0 0 0 .8-.4l.58-1.28a.32.32 0 0 0-.22-.45l-.27-.06a.47.46-77.9 0 0-.54.36l-.12.57a.48.48 0 0 1-.78.27zm101.21-.8q-.39-.06-1.41.6a.18.17 18.2 0 0 .16.31l1.3-.45a.24.24 0 0 0-.05-.46zm-94.28 2.25a.52.52 0 0 0 .52.78q1.42-.21 3.22-.53 1.06-.18 1.11-1.25a.58.56 59.5 0 0-1.08-.3q-.21.46-.49.58a.64.61-34.4 0 1-.67-.11q-.8-.75-1.64-.4a1.04 1-84.2 0 0-.45.38l-.52.85zm51.72.99q-.03-.01-.24.08a.56.56 0 0 1-.74-.31q-.5-1.32-1.82-1.31a.07.07 0 0 1-.07-.09q.07-.29.06-.36a.26.25-15.7 0 0-.35-.19l-.33.13a.17.16 62.6 0 0-.07.24q.52.76-.4 1.37-.83.54-1.79-.2a1.12 1.11-36.7 0 0-1.07-.15q-2.5.96-2.64.82a.08.08 0 0 0-.13.1c.5.79 2.93.51 4.24 1.1q2.28 1.03 4.73.72a1.25 1.23-28.9 0 1 .94.26q1.75 1.43 4.06.37a.55.55 0 0 0-.25-1.04q-1.37.05-1.61-.72a.25.24 59.6 0 0-.4-.11q-.97.92-2.19.19a.16.15 47.8 0 1 .01-.27q.18-.09.19-.1a.31.31 0 0 0-.13-.53zm-10.56 6.71a.38.38 0 0 0-.02-.73q-2.3-.59-14.13-3.09c-2.52-.53-5.46-.59-7.57.02q-1.2.35-11.67 2.82a.63.62-23.7 0 1-.66-.25q-.06-.09-.16-.27a.37.36-22.6 0 0-.43-.17l-5.48 1.79a.45.44 49.4 0 1-.35-.03q-.94-.52-2 .24a.47.46-55.4 0 0 .15.83l4.36 1.1a1.74 1.72 45.3 0 0 .84.01l2.1-.48a3.34 3.34 0 0 1 1.61.04l6.14 1.68a2.34 2.32 81.6 0 1 1.4 1.05q.02.04 1.04 2.11.89 1.8 3.37 1.06 11.73-3.51 16.55-4.76a1.07 1.06 89.2 0 0 .78-.81l.05-.25a1.1 1.1 0 0 1 .73-.82l3.35-1.09zm89.061-3.403a3.34.9-168.2 0 0 3.085 1.564 3.34.9-168.2 0 0 3.453-.198 3.34.9-168.2 0 0-3.085-1.564 3.34.9-168.2 0 0-3.453.198zm34.589 3.533a.84.82 49.2 0 0-.99-.08q-2.49 1.6-6.26 1.26a1.16 1.09-53.5 0 0-.6.11l-5.4 2.6a.7.7 0 0 0 .27 1.33q2.9.12 6.23-2.03a1.62 1.57-58.4 0 1 1.02-.26q2.89.25 7.51-2.17a.05.04 33.9 0 0-.02-.08q-1.16-.16-1.76-.68zm-165.73 13.8q-.05-.44-.31-.55-.33-.14-.67.13-.75.59-1.43.06a.36.36 0 0 0-.55.41q.16.41.96.75-.28.45-.34.9a.45.45 0 0 0 .55.51q1.27-.29 2.94.15a.08.08 0 0 1-.01.15l-10.57 2.61a.63.6 8.4 0 0-.37.26q-.38.58-1.22.84a.52.52 0 0 0 .04 1.01l5.31 1.11a1.46 1.46 0 0 0 .75-.04q2.9-.99 6.05.25-.29-.07-.47-.03a.27.27 0 0 0-.14.45q.98 1.01 1.11-.17l1.86 1.16a1.51 1.5 65.8 0 0 .47.18l16.85 3.18a2 1.91 38.9 0 0 1.08-.09q2.98-1.12 7 .14a1.27 1.27 0 0 1 .7.54q.83 1.31 2.98 1.44a.97.94-14.9 0 1 .73.41l1.34 1.98a.4.4 0 0 1-.22.61l-20.65 5.52a2.34 2.28-45.8 0 1-1.06.03l-6.23-1.31a.49.49 0 0 0-.5.76l1.21 1.78a.41.41 0 0 1-.23.62q-12.47 3.45-21.08 6.04-.31.1-1.46-.05a.62.6-75 0 0-.64.38q-.16.42.13 1.01a.65.64-7.3 0 0 .46.35l3.71.79a2.01 1.95 41.3 0 0 .98-.05q26.73-8.04 55.38-15.59 1.44-.38.95-1.69a.83.83 0 0 1 .19-.88q1.41-1.42 3.02-.9a.46.45-76.5 0 0 .58-.36q.16-.88-.05-1.2a.84.84 0 0 0-1.11-.25c-1 .59-1.88 1.49-3.23 1.19a.31.31 0 0 1-.01-.6l3.85-.95a1.19 1.18-39.1 0 1 .79.08q.81.36.88-.45a.56.56 0 0 1 .67-.5l1.74.37a.36.36 0 0 1 .18.61q-.42.43-1.67.53a.35.35 0 0 0-.31.43l.1.38a.39.39 0 0 0 .47.29q1.21-.3 2.05-1.15a1.31 1.29 21.8 0 1 .93-.39q2.01-.01 2.22.93a.66.65 77.8 0 0 .75.49q2.17-.4 2.67-.56a.7.7 0 0 0-.2-1.36l-1.84-.05a.9.89-23.4 0 1-.56-.22q-1.09-.92-2.3-.45a.88.8 38.8 0 1-.46.03l-9.27-2.06a.16.16 0 0 0-.08 0q-.16.05-.27.08a.29.29 0 0 0 .03.56l.49.11a.36.35 38.4 0 1 .08.67q-.33.15-.93-.03a.54.54 0 0 1-.36-.64q.42-1.75-1.11-1.81-1.05-.03-4.29-.03a6.3 6.22-40.2 0 1-1.17-.09l-18.21-3.01q-2.76.5-4.85-.48a.35.34 8.4 0 0-.49.36q.04.28.28.25-1.5.55-1.85-1.23a.55.55 0 0 0-.42-.43l-8.92-1.87a.05.05 0 0 1 0-.1q10.71-3.61 21.61-5.67a1.21 1.09 21.3 0 0 .42-.16l1.7-1.05a2.02 1.97 24.9 0 1 .88-.31l3.35-.41a.52.52 0 0 0 .45-.6q-.1-.6-.09-.83.03-.45.96-.71 3.97-1.09 5.08-1.19a.18.16-84.9 0 0 .15-.14l.16-.78a.27.27 0 0 0-.33-.32l-37.74 9.92zm169.14-8.31q.15-.43-.75-1.3a.42.42 0 0 0-.65.52q.01.02.79.9a.36.36 0 0 0 .61-.12zm-25.81.99q-2.51-.46-4.67.67l-3.7 1.56a1.68 1.41-12.1 0 0-1.02 1.32v.02a.76.76 0 0 0 .94.77l5.33-1.3a.23.23 0 0 0 .09-.4q-.88-.66-.66-1.58 1.47.94 3.18.36 3.04.09 5.51-.99a1.19 1.18 71.2 0 0 .67-1.37l-.08-.36a.97.96-19.2 0 0-1.34-.64l-4.25 1.94zm-189.7.27q-2.66-.74-2.33.04a.33.33 0 0 0 .29.2l1.99.06a.15.15 0 0 0 .05-.3zm213.84 2.09a.64.64 0 0 0 1.11.55q.96-1.08.65-2.1a.67.67 0 0 0-1.27-.04q-.36.94-.49 1.59zm-37.29 1.06q.04-.04.06-.27a.36.36 0 0 0-.63-.26l-.3.37a1.02.95-76.1 0 1-.52.34l-3.02.74a.94.94 0 0 0-.44 1.58l.37.36a1.37 1.36 60.3 0 0 1.3.36l3.84-.94a.5.49-19.9 0 0 .33-.69q-.23-.47-.95-1a.38.38 0 0 1-.04-.59zm-29.3-.17a.86.83 59.8 0 0-.62-.17l-3.92.51a.26.26 0 0 0-.12.47l.62.46a.34.32 58 0 0 .23.06l3.78-.5a.39.39 0 0 0 .2-.69l-.17-.14zm40.65-.01q-.14 0-.27.01h-.01q.08 0 .17 0 .06 0 .12 0a.01 0 23 0 0-.01-.01zm-93.56 1.48q-1.76.3-3.05-.45a.37.36-49.6 0 0-.42.04q-.2.19-.01.34.45.37 2.41.9 1.14.3 1.47-.21a.4.4 0 0 0-.4-.62zm-55.28 3.35l1.7-.56a.52.52 0 0 0 .33-.66l-.09-.28a2.3 1.29 71.7 0 0-1.95-1.78l-.24.08a2.3 1.29 71.7 0 0-.51 2.59l.1.28a.52.52 0 0 0 .66.33zm122.12.15q-2.12-.73-3.91.16a.3.3 0 0 0-.03.52q1.76 1.08 3.67.54 3.07.21 5.92-1.01a.44.44 0 0 0 .03-.79q-.78-.41-.65-1.24a.37.37 0 0 0-.52-.39l-4.51 2.21zm69.141-2.249a1.52 1.08-87.7 0 0-1.14 1.476 1.52 1.08-87.7 0 0 1.018 1.562 1.52 1.08-87.7 0 0 1.14-1.476 1.52 1.08-87.7 0 0-1.018-1.562zM357.24 59.38q.15-.29.13-.46a.17.17 0 0 0-.32-.07q-.12.18-.1.47a.15.15 0 0 0 .29.06zm2.96 4.38q-.93.69-2.08.62a.45.45 0 0 0-.46.55l.26 1.03a.66.65-6.7 0 0 .64.5q1.59 0 3.08-.71a.36.36 0 0 0 0-.65q-.02-.01-.13-.01a.63.63 0 0 1-.59-.72q.03-.22.02-.31a.47.47 0 0 0-.74-.3zm13.27-.47q-.12-.01-.35.17a.16.15-45.8 0 0 0 .25q.26.19.33.19a.31.31 0 0 0 .02-.61zm44.7 3.98q-.02-.01-.62.1a.3.3 0 0 0-.11.54q.05.04.61-.03a.33.33 0 0 0 .12-.61zm-71.24 1.649a2.97.9-.4 0 0-2.976-.879 2.97.9-.4 0 0-2.964.921 2.97.9-.4 0 0 2.976.879 2.97.9-.4 0 0 2.964-.921zm47-.009q.15.12.23.33a.42.41-22 0 1-.23.52q-.65.28-.54.58a1.38 1.36 34 0 0 2.64-.49q-.01-1.08-1.77-1.58a.37.37 0 0 0-.33.64zm20.358 1.383a3.24.6-170.1 0 0 3.089 1.148 3.24.6-170.1 0 0 3.295-.034 3.24.6-170.1 0 0-3.089-1.148 3.24.6-170.1 0 0-3.295.034zM330.09 72.57a.61.61 0 0 0-.55.02l-2.43 1.37a.8.8 0 0 0 .58 1.48l5.48-1.36a.05.05 0 0 0 .01-.1l-3.09-1.41zm-138.6 8.83q.17.83.03 1.5a.65.63 8.3 0 1-.7.51q-.78-.09-1.26-.55a.75.75 0 0 0-.82-.15q-.78.34-1.08-.34a.43.42-11.6 0 0-.39-.25l-2.07-.06a.29.29 0 0 0-.27.41q.84 1.84 2.93 1.26c1.35-.37 2.27.5 3.64.73q17.15 2.92 37.4 7.37a.48.47-6.3 0 1 .33.26q.06.12.16.2a.32.32 0 0 0 .53-.18q.09-.5.01-1.08-.02-.34.41-.4a.36.3 50.2 0 1 .22.04q2.59 1.3 5.2.52a.46.46 0 0 0 .25-.7q-1.31-1.93-4.25-2.24a2.3 2.21 60.2 0 1-.82-.24q-.88-.45-1.35-.46a.33.33 0 0 0-.28.52q.96 1.38.14 2.61l-6.04-2a.42.42 0 0 1 .06-.82q.62-.11.83-.21a.2.2 0 0 0-.05-.37L204.2 83.5a1.22 1.17-51 0 0-.72.09q-2.83 1.26-6.61-.03a.27.27 0 0 1-.01-.5q.25-.1 4.89.4a.27.27 0 0 0 .22-.46q-.69-.66-1.37-.6-3.67.36-5.23-1.18-.8-.79-.63-1.5a.47.47 0 0 0-.4-.57q-2.56-.31-5.29.38a.41.41 0 0 0-.32.39l-.01.39a.56.55-3.9 0 0 .65.56q1.18-.19 2.12.53zm197.69-1.13q.97.08 1.76.17a.31.31 0 0 0 .17-.6q-.96-.45-1.85-.52-.9-.07-1.91.23a.31.31 0 0 0 .07.62q.79.03 1.76.1zm-217.83.82a1 .97 47.8 0 0-.75-.05l-4.34 1.53a.3.3 0 0 0-.02.56l.82.38a.39.38 46 0 0 .28.01l4.18-1.48a.46.46 0 0 0 .06-.84l-.23-.11zm218.81 2.64a.71.71 0 0 1-.87.71q-10.45-2.4-10.79-2.42-1.98-.13-2.96.51a.42.42 0 0 0 .2.77l3.24.24a.45.44-4.2 0 1 .41.35q0 .04.01.06a1.16 1.16 0 0 0 .85.76l21.18 4.57a1 .99-83.6 0 0 1.2-.96q0-.01-.53-.09a1.4 1.37 73.7 0 1-.82-.46q-1.21-1.42-3.62-1.46a.35.35 0 0 1-.25-.58q.52-.55 1.39-.2.16.06.2.17.14.49.41.4a.14.13-22.1 0 0 .08-.18l-.88-2.12a.57.57 0 0 0-.83-.26q-1.13.73-2 .54a.52.52 0 0 0-.59.71l.21.5a.29.28 84.4 0 1-.32.39l-2.94-.62a.53.52 11.4 0 1-.41-.6q.08-.49.18-.91a.78.73-19.1 0 0-1.34-.6q-.42.48-.41.78zm-100.82.15q.12-.02.3-.08a.92.91 56.1 0 1 .98.2c1.44 1.43 3.38.31 5.13.24a.43.43 0 0 0 .11-.84q-.32-.1-.54.02a.46.46 0 0 1-.67-.31q-.14-.67-1.9-.64-1.98.03-3.53 1.07a.19.19 0 0 0 .12.34zm-125.075.751a1.15.44-132.4 0 0 .451 1.146 1.15.44-132.4 0 0 1.1.552 1.15.44-132.4 0 0-.451-1.146 1.15.44-132.4 0 0-1.1-.553zm164.965.359l.06.26a.37.37 0 0 1-.43.45l-.53-.11a.75.65-42.6 0 0-.35.01l-6.5 1.79a.84.84 0 0 0-.6.65q-.08.59-1.15.77-.26.05-.4.38-.17.42-.04.71a.47.45-11.8 0 0 .42.26q.94-.01 1.33.45.41.48.76.78 1.29 1.1 2.95-1.44a.56.55-76.9 0 0-.53-.86q-.81.11-1.29-.3a.57.57 0 0 1 .22-.99q1.26-.36 2.25-.2a1.03 1.02 30.3 0 0 .82-.21q1.06-.87 2.9-.65a.72.72 0 0 0 .8-.6q.1-.62-.6-1.21a.06.06 0 0 0-.09.06zm-50.85 1.91q.01.06 2.5.71a2.79 2.58 49 0 0 .8.09q2.75-.1 2.63-1.36-.11-1.25-2.83-.84a2.79 2.58-59.7 0 0-.78.23q-2.32 1.11-2.32 1.17zm123.34-.71q.19.03.33-.12a.09.09 0 0 0-.07-.15q-.12.01-.29.13a.08.08 0 0 0 .03.14zm-50.02 1.44q.23.53.26.57a.64.64 0 0 0 .92.01q1.31-1.29 1.19-1.57-.11-.28-1.95-.26a.64.64 0 0 0-.64.67q0 .05.22.58zm51.15.01a.45.41 1.9 0 0-.54-.52q-.35.08-.4.24a.45.4 1.2 0 0 .55.51q.34-.08.39-.23zm-129.37 1.09q-1.8-.45-4.75.09-2.43 2.42-4.95 2.68c-1.98.21-1.82.87-3.11 1.56a.74.72-9.6 0 0-.38.52q-.03.21-.03.24a.6.59 82.4 0 0 .72.56l9.65-2.15a.11.1-37.9 0 0 .03-.2q-.17-.08-.5-.09a.89.86 72.6 0 1-.66-.36q-.54-.76.53-.94 1.73.34 3.47-.32 3.43.09 6.53-1.09a.4.39 36.3 0 0-.12-.76c-1.5-.1-1.95-1.11-3.31-1q-1.19.1-1.36 1.18a.76.76 0 0 1-.84.63q-.53-.07-.92-.55zm-86.79 2.35q.46.05.63-.22a.41.32-79.3 0 0-.33-.62q-.04.02-.44.51a.2.2 0 0 0 .14.33zm157.75.06a3.69.6-169.7 0 0 3.523 1.25 3.69.6-169.7 0 0 3.738.07 3.69.6-169.7 0 0-3.523-1.25 3.69.6-169.7 0 0-3.738-.07zm-9.829 5.21q2.73.56 2.99.6a.23.23 0 0 0 .12-.45q-1.02-.41-2.98-.81-1.95-.4-3.05-.43a.23.23 0 0 0-.06.46q.25.07 2.98.63zm-88.16 2.56l-.66.16a.72.72 0 0 0-.01 1.39q1.27.33 1.07-1.28a.32.32 0 0 0-.4-.27zm-3.29 1.47a1.19.45-131.6 0 0 .454 1.189 1.19.45-131.6 0 0 1.127.591 1.19.45-131.6 0 0-.454-1.189 1.19.45-131.6 0 0-1.127-.591zm-1.03 4.07a.61.59 73.4 0 0 .53-1.02q-.43-.43-1.01-.37a.57.54-26.4 0 0-.35.96q.35.3.83.43zm-.78 1.03a.61.61 0 0 0-1.22 0 .61.61 0 1 0 1.22 0zm125.46 14.69q-.8 2.19-3.1 5.34-.5.69-.01 1.15a.4.39-47.1 0 0 .57-.03q3-3.4 3.94-5.94.93-2.54.86-7.08a.4.39 87.5 0 0-.42-.39q-.67.03-.73.88-.3 3.89-1.11 6.07zm-110.8 69.58q-.18-.4-.22-.43a.19.19 0 0 0-.27.23q.02.07-.09.45a.41.41 0 0 1-.3.3l-1.03.25a.08.07-50 0 0 .01.15q.47.03 1.63 1.34a1.44 1.43 25.5 0 1 .36 1l-.06 1.99a.66.65-1.6 0 0 .71.67l3.06-.26a.27.26-5.2 0 0 .25-.29q-.02-.16-.01-.28a.85.85 0 0 1 .58-.79q.84-.27 2.12-.55.99-.21 1.08-.6.18-.81-.08-1.31a.91.89-38.2 0 1 .13-1.02q.53-.6.91-2.2a.6.6 0 0 1 1.01-.28l.71.71a1.05 1.05 0 0 1 0 1.49l-1.19 1.2a.47.47 0 0 0 .49.77l19.25-6.79a.53.52-42.2 0 0 .05-.97l-.5-.23a.86.81-35.3 0 0-.49-.07q-7.28.96-13.6 3.9a.97.97 0 0 1-1.38-.91l.19-6.64a.53.53 0 0 0-.71-.51l-3.81 1.34a.55.54-16.5 0 1-.71-.38l-.9-3.63a.3.29-29.7 0 0-.5-.13q-.78.81-.1 1.8a.73.72 80.8 0 1-.79 1.11q-.59-.17-.65-.56-.34-2.23.89-4.09a.65.64-69.9 0 1 .62-.29q.41.05.62.67a.27.27 0 0 0 .52-.08l.17-6.08a1.01.86 40.3 0 0-.05-.3l-.62-1.77a.35.35 0 0 0-.63-.07q-.54.85.11 1.87a.65.64 83.9 0 1-.76.96q-.55-.21-.93-1.13a1.13 1.11 46.2 0 1 .01-.85l1.36-3.25a1.77 1.56-34.9 0 0 .13-.53c.54-7.13 2.25-20.56-4.76-25.25q-2.83-1.89-3.13-4.09a1.33 1.33 0 0 1 .13-.76q.27-.54.23-.71a.23.22-5 0 0-.21-.17q-.02 0-.15.07a.22.22 0 0 1-.32-.16q-.43-2.35.75-4.41a1.15 1.13-80.6 0 1 .78-.57l1.83-.36a.47.47 0 0 1 .43.78q-.02.02-.35.13a.44.44 0 0 0-.17.73l.33.33a.46.45-33.1 0 0 .49.1l1.48-.62a.83.82 68.1 0 0 .45-1.06l-4.89-12.73a1.37 1.36 33.8 0 0-2.64.52q0 .02.18.47a2.09 2.04 35.5 0 1 .13.72q-.18 33.38-.8 67.36-.02.82-.49 1.06a.41.4-21.2 0 0-.21.47q.69 2.31 2.68 2.55a.45.45 0 0 0 .49-.53q-.31-1.55-1.49-1.51-.25 0-.4-.32-.09-.2.03-.45a.4.4 0 0 1 .63-.12q.83.74 2.33 2.07.75.66.24 1.54a.11.11 0 0 1-.19-.01zm185.687-58.526a1.57.97-72.3 0 0-1.401 1.201 1.57.97-72.3 0 0 .447 1.791 1.57.97-72.3 0 0 1.401-1.201 1.57.97-72.3 0 0-.447-1.791zM258.62 134.66q.34-1.11.23-1.66a.53.52 41 0 0-1.04.07q-.05.65.34 1.61a.25.25 0 0 0 .47-.02zm188.95-.91a.34.33-19.2 0 0-.43-.2l-8.75 3.17a.54.54 0 0 0 .2 1.05q.7.04 9.03-3.53a.14.14 0 0 0 .07-.16l-.12-.33zm-22.7 3.32q-1.64 1.35-1.59 2.43a1.17 1.05-44 0 0 2.21-.08q.18-1 .01-2.11a.39.39 0 0 0-.63-.24zm-47.6 23.31q1.66-.59 1.99-1.3a.93.9 11.7 0 1 .82-.52q3.06-.06 6.9-2 .04-.02.08-.04l8.95-2.94a2.59 2.53 17.4 0 0 .77-.39q1.63-1.2 2.93-1.25 1.37-.05 3.42-.98 3.83-1.73 6.31-2.5 5.74-1.79 22.04-8.04a.4.4 0 0 0 .24-.49l-.09-.26a.4.39-18.4 0 0-.51-.25q-36.1 12.79-50.56 18.05c-1.06.39-2.25.35-3.25.86q-1.05.53-.61 1.78a.46.45-19.3 0 0 .57.27zm39.1-19.49q.31.21.33.39a.5.5 0 0 1-.29.51q-1.06.49-1 1.56a.58.58 0 0 0 1.08.27q1.03-1.73.54-3.4a.4.4 0 0 0-.57-.24q-.16.09-.25.59-.03.2.16.32zm-40.18 13.92q-.03.04-.19.78a.16.16 0 0 0 .31.1q.3-.67.29-.77a.23.23 0 0 0-.41-.11zm-32.22 16.29q.35.09.5.19.2.15.5.09 4.7-1.02 7.11-2.59a1.7 1.7 0 0 1 .92-.27q1.08 0 2.69-.6 6.25-2.32 12.6-4.36 1.47-.47 2.65-1.62a.47.46-75.7 0 0-.46-.78q-5.15 1.62-8.87 3.22c-.15.07-.43-.05-.51-.21a.25.25 0 0 1 .1-.34q2.38-1.28 1.04-4.35a.79.78-29.8 0 0-1.18-.32q-1.92 1.42-2.01 3.36a.29.29 0 0 0 .3.31h.01a.31.31 0 0 0 .31-.33q-.05-.89.28-1.63a.75.75 0 0 1 1.44.32q0 .56-.73 1.64a1.26 1.25 52 0 0-.13 1.11q.08.21.08.22a.71.7-8.7 0 1-.47.63l-16.19 5.96a.18.18 0 0 0 .02.35zm7.24-6.11q.79-.17 1.12.22a.39.39 0 0 0 .62-.03q.82-1.21-.07-2.37a.71.71 0 0 0-.88-.2q-1 .49-1.23 1.97a.37.36-1.7 0 0 .44.41zm-85.59 6.47q.1-.24-.1-2.38a.43.43 0 0 0-.82-.13q-.41.93.37 2.53a.3.3 0 0 0 .55-.02zm50.41 9.86q1.02.29 1.61.08 5.88-2.17 12.34-4.55 1.09-.4 2.06-.74a.31.31 0 0 0 .19-.37l-.24-.97a.23.23 0 0 0-.38-.12q-1.1.96-2.16 1.34-10.38 3.71-13.44 4.91a.22.22 0 0 0 .02.42zm-68.04 1.23q-.18-.09-.44.01a.35.35 0 0 0-.13.58q.02.02.42.01a.32.32 0 0 0 .15-.6zm42.19 3.04q.25.3 1.76.1a.58.58 0 0 0 .5-.65q-.07-.58-.42-.99-.34-.41-.9-.58a.58.58 0 0 0-.72.38q-.46 1.45-.22 1.74zm-18.213-1.848a1.11.42-26.1 0 0-1.182.111 1.11.42-26.1 0 0-.812.865 1.11.42-26.1 0 0 1.182-.111 1.11.42-26.1 0 0 .812-.865zm16.773 5.248q.67 1.33 3.26-.55a.9.9 0 0 0-.5-1.63l-1.21-.04a.69.69 0 0 0-.68.86q.22.84-.49.79a.4.39-11.9 0 0-.38.57zm-46.58.2a.9.71 59.5 0 0-.16 1.17q.26.41.65.27c.55-.21.66-1.18.03-1.44q-.29-.12-.52 0zm28.53 4.17a1.22.97 34.7 0 0-.63-2.07q-.49-.05-.91.64a.48.47 33.4 0 0 .14.64q1.23.84 1.4.79zm-28.576 7.304a.85.4-135.5 0 0 .326.881.85.4-135.5 0 0 .887.31.85.4-135.5 0 0-.326-.881.85.4-135.5 0 0-.887-.311zm-1.698 2.729a.77.32-128 0 0 .222.804.77.32-128 0 0 .726.41.77.32-128 0 0-.222-.804.77.32-128 0 0-.726-.41z" class="C"/><path d="M298.66 23.36q-1.45 1.28-4.35 1.34a2.95 2.78-56.2 0 0-1.14.26c-1.61.72-3.15.46-4.51 1.21q-1.24.69-3.05.73a2.81 2.72 28.1 0 0-1.33.38q-2.81 1.62-4.45.4l18.83-4.32zm-56.95 5.72l-3.88 2.2a1.2 1.16-53.2 0 1-.82.13q-.87-.17-1.17.41-.48.89-1.11.79-.64-.1-1.23-.89 3.96-.96 7.27-2.72.35-.19.94.08zm165.38 2.87q-3.26-2.88-7.22.17.5-1.92 1.62-2.16 4.77-1.05 5.6 1.99zm-72.92-1.19a.08.08 0 0 1-.06-.09v-.03a1.68.97 10.7 0 1 1.83-.64l2.78.52a1.68.97 10.7 0 1 1.47 1.27l-.01.03a.08.08 0 0 1-.09.06l-5.92-1.12zm-87.23 4.7q-.11.02-.16.21a.15.13 7.8 0 1-.14.09q-1.86-.14-3.24-1.16a.33.33 0 0 1 .26-.58l5.82 1.23a.54.52-3.8 0 1 .39.33q.25.73-.4.77-.35.02-.49-.06-3.49-1.93-2.03-.88a.03.03 0 0 1-.01.05zm7.45.64l.12-.57a.47.46-77.9 0 1 .54-.36l.27.06a.32.32 0 0 1 .22.45l-.58 1.28a.72.72 0 0 1-.8.4l-2.81-.59a.62.62 0 0 1 0-1.22q.98-.21 2.26.82a.48.48 0 0 0 .78-.27zm100.48-.07l-1.3.45a.18.17 18.2 0 1-.16-.31q1.02-.66 1.41-.6a.24.24 0 0 1 .05.46zm-94.33 1.79l.52-.85a1.04 1-84.2 0 1 .45-.38q.84-.35 1.64.4a.64.61-34.4 0 0 .67.11q.28-.12.49-.58a.58.56 59.5 0 1 1.08.3q-.05 1.07-1.11 1.25-1.8.32-3.22.53a.52.52 0 0 1-.52-.78zm51.85 1.52q-.01.01-.19.1a.16.15 47.8 0 0-.01.27q1.22.73 2.19-.19a.25.24 59.6 0 1 .4.11q.24.77 1.61.72a.55.55 0 0 1 .25 1.04q-2.31 1.06-4.06-.37a1.25 1.23-28.9 0 0-.94-.26q-2.45.31-4.73-.72c-1.31-.59-3.74-.31-4.24-1.1a.082.082 0 0 1 .13-.1q.14.14 2.64-.82a1.12 1.11-36.7 0 1 1.07.15q.96.74 1.79.2.92-.61.4-1.37a.17.16 62.6 0 1 .07-.24l.33-.13a.26.25-15.7 0 1 .35.19q.01.07-.06.36a.07.07 0 0 0 .07.09q1.32-.01 1.82 1.31a.56.56 0 0 0 .74.31q.21-.09.24-.08a.31.31 0 0 1 .13.53zm139.34-.01q-6.41 2.85-13.23 4.1a4.44 4.2 26.6 0 0-.96.29q-3.37 1.43-6.77 2.04a.4.4 0 0 1-.43-.24l-.31-.73a.21.2-20.1 0 1 .13-.27l8.66-3.06a.53.48 42.1 0 1 .31 0q.62.24 1.36.17a.61.61 0 0 0 .08-1.2q-1.96-.46-1.25-1.1 2.73.47 6.95-.53 2.33-.55 5.46.53zm-226.26.5l.39.34a.25.25 0 0 1-.12.43l-9.55 1.93 9.28-2.7z" class="B"/><path d="M301.7 45.52l-3.35 1.09a1.1 1.1 0 0 0-.73.82l-.05.25a1.07 1.06 89.2 0 1-.78.81q-4.82 1.25-16.55 4.76-2.48.74-3.37-1.06-1.02-2.07-1.04-2.11a2.34 2.32 81.6 0 0-1.4-1.05l-6.14-1.68a3.34 3.34 0 0 0-1.61-.04l-2.1.48a1.74 1.72 45.3 0 1-.84-.01l-4.36-1.1a.47.46-55.4 0 1-.15-.83q1.06-.76 2-.24a.45.44 49.4 0 0 .35.03l5.48-1.79a.37.36-22.6 0 1 .43.17q.1.18.16.27a.63.62-23.7 0 0 .66.25q10.47-2.47 11.67-2.82c2.11-.61 5.05-.55 7.57-.02q11.83 2.5 14.13 3.09a.38.38 0 0 1 .02.73zm-18.65 4.88q-.65-.25-1.02-.1a.42.38 42.6 0 0 .07.74q.17.08.93-.13a.27.27 0 0 0 .02-.51zm1.76.15l-.51-.11a.23.23 0 0 0-.26.3q.13.35.7.37a.28.28 0 0 0 .07-.56z" class="D"/><g class="B"><ellipse cx="0" cy="0" transform="matrix(-.978867 -.204496 .204496 -.978867 394.03 42.8)" rx="3.34" ry=".9"/><path d="M454.63 43.94q-.79 1.33-.99 2.6-.7-1.94.99-2.6zm-29.28 1.71q.6.52 1.76.68a.05.04 33.9 0 1 .02.08q-4.62 2.42-7.51 2.17a1.62 1.57-58.4 0 0-1.02.26q-3.33 2.15-6.23 2.03a.7.7 0 0 1-.27-1.33l5.4-2.6a1.16 1.09-53.5 0 1 .6-.11q3.77.34 6.26-1.26a.84.82 49.2 0 1 .99.08zm26.88 2.52c-1.64.3-2.85.73-2.63 2.61q.23 1.92 1.03 1.89.63-.03 1.06.22 1.23.71 2.75.41-.7.57.38 2.23l-4.57-1.54a1.04 1.04 0 0 0-.92.12c-2.22 1.5-6.64 1.38-9.9 2.4q-8.51 2.67-11.19 3.22-.96.2-.96.85a1.08.93-2.5 0 1-1.01.95c-2.24.18-4.74.33-7.41 1.13q-8.39 2.53-14.72 4.17a1.13 1.09 45.9 0 1-.62-.02q-1.23-.39-2.42.14a.5.5 0 0 1-.71-.44q-.03-.72-.8-1.61a.5.5 0 0 1 .23-.8l39.63-11.54a.33.33 0 0 1 .39.46l-.79 1.72a.5.5 0 0 0 .8.58q.72-.66 1.04-.74a.85.84-14 0 0 .59-.97l-.24-1.21a.62.62 0 0 1 .53-.74q1.88-.24 5.59-1.57.71-.25 1.09-.9c.7-1.19 2.59-1.19 3.78-1.02z"/></g><path d="M274.21 65.33q3.53 1.42 5.06-.13l18.21 3.01a6.3 6.22-40.2 0 0 1.17.09q3.24 0 4.29.03 1.53.06 1.11 1.81a.54.54 0 0 0 .36.64q.6.18.93.03a.36.35 38.4 0 0-.08-.67l-.49-.11a.29.29 0 0 1-.03-.56q.11-.03.27-.08a.16.16 0 0 1 .08 0l9.27 2.06a.88.8 38.8 0 0 .46-.03q1.21-.47 2.3.45a.9.89-23.4 0 0 .56.22l1.84.05a.7.7 0 0 1 .2 1.36q-.5.16-2.67.56a.66.65 77.8 0 1-.75-.49q-.21-.94-2.22-.93a1.31 1.29 21.8 0 0-.93.39q-.84.85-2.05 1.15a.39.39 0 0 1-.47-.29l-.1-.38a.35.35 0 0 1 .31-.43q1.25-.1 1.67-.53a.36.36 0 0 0-.18-.61l-1.74-.37a.56.56 0 0 0-.67.5q-.07.81-.88.45a1.19 1.18-39.1 0 0-.79-.08l-3.85.95a.31.31 0 0 0 .01.6c1.35.3 2.23-.6 3.23-1.19a.84.84 0 0 1 1.11.25q.21.32.05 1.2a.46.45-76.5 0 1-.58.36q-1.61-.52-3.02.9a.83.83 0 0 0-.19.88q.49 1.31-.95 1.69-28.65 7.55-55.38 15.59a2.01 1.95 41.3 0 1-.98.05l-3.71-.79a.65.64-7.3 0 1-.46-.35q-.29-.59-.13-1.01a.62.6-75 0 1 .64-.38q1.15.15 1.46.05 8.61-2.59 21.08-6.04a.41.41 0 0 0 .23-.62l-1.21-1.78a.49.49 0 0 1 .5-.76l6.23 1.31a2.34 2.28-45.8 0 0 1.06-.03l20.65-5.52a.4.4 0 0 0 .22-.61l-1.34-1.98a.97.94-14.9 0 0-.73-.41q-2.15-.13-2.98-1.44a1.27 1.27 0 0 0-.7-.54q-4.02-1.26-7-.14a2 1.91 38.9 0 1-1.08.09l-16.85-3.18a1.51 1.5 65.8 0 1-.47-.18l-1.86-1.16-.5-.25q-3.15-1.24-6.05-.25a1.46 1.46 0 0 1-.75.04l-5.31-1.11a.52.52 0 0 1-.04-1.01q.84-.26 1.22-.84a.63.6 8.4 0 1 .37-.26l10.57-2.61a.08.08 0 0 0 .01-.15q-1.67-.44-2.94-.15a.45.45 0 0 1-.55-.51q.06-.45.34-.9.83-.96 2-.8l37.74-9.92a.27.27 0 0 1 .33.32l-.16.78a.18.16-84.9 0 1-.15.14q-1.11.1-5.08 1.19-.93.26-.96.71-.01.23.09.83a.52.52 0 0 1-.45.6l-3.35.41a2.02 1.97 24.9 0 0-.88.31l-1.7 1.05a1.21 1.09 21.3 0 1-.42.16q-10.9 2.06-21.61 5.67a.05.05 0 0 0 0 .1l8.92 1.87a.55.55 0 0 1 .42.43q.35 1.78 1.85 1.23zm25.6 4.62l-.8-.02a.63.62-88.2 0 0-.64.61q-.08 2.4-2.28 2.35a.95.95 0 0 0-.97.92l-.02.84a1.06 1.06 0 0 0 1.03 1.09l2.09.06a.72.72 0 0 0 .48-1.28q-.91-.75-1.05-1.04a.33.33 0 0 1 .39-.46q2.12.67 2.63-1.98a.91.9-83.5 0 0-.86-1.09z" class="D"/><path d="M209.47 49.62q1.28 0 2.27.62-3.29 1.06-2.27-.62zm218.68 1.64q-.78-.88-.79-.9a.42.42 0 0 1 .65-.52q.9.87.75 1.3a.36.36 0 0 1-.61.12zm-25.71 2.29q.76-.77.51-1.42l4.25-1.94a.97.96-19.2 0 1 1.34.64l.08.36a1.19 1.18 71.2 0 1-.67 1.37q-2.47 1.08-5.51.99z" class="B"/><path d="M283.03 50.91q-.76.21-.93.13a.42.38 42.6 0 1-.07-.74q.37-.15 1.02.1a.27.27 0 0 1-.02.51z" class="C"/><path d="M284.74 51.11q-.57-.02-.7-.37a.23.23 0 0 1 .26-.3l.51.11a.28.28 0 0 1-.07.56z" class="B"/><path d="M402.95 52.13q.25.65-.51 1.42-1.71.58-3.18-.36-.3-.28-.98-.39 2.16-1.13 4.67-.67z" class="D"/><path d="M213.2 52.7l-1.99-.06a.33.33 0 0 1-.29-.2q-.33-.78 2.33-.04a.152.152 0 0 1-.05.3zm213.89 1.79q.13-.65.49-1.59a.67.67 0 0 1 1.27.04q.31 1.02-.65 2.1a.64.64 0 0 1-1.11-.55zm-28.81-1.69q.68.11.98.39-.22.92.66 1.58a.23.23 0 0 1-.09.4l-5.33 1.3a.76.76 0 0 1-.94-.77v-.02a1.68 1.41-12.1 0 1 1.02-1.32l3.7-1.56z" class="B"/><path d="M506.54 62.57l.48.45q-.26.4-.23.59a.85.81-16.1 0 0 1.15.6q1.34-.56 2.32-.66a.32.32 0 0 1 .2.6q-1.56.94-3.13 1.23-2.27.1-4.03.83a1.35 1.33-26.7 0 1-1.66-.54c-1.85-3.04-5-2.17-7.61-3.68a1.81 1.79-28.5 0 0-.82-.24c-6.17-.29-12.4-1.56-24.48-3.79a2.69 2.46 61.6 0 1-.75-.26l-.94-.49a2.35 2.3 61.5 0 0-.78-.24l-11.44-1.44q-1.08-1.66-.38-2.23c2.38.17 6.8.59 8.78 1.92.92.63 2.4.24 3.72.43q10.98 1.53 21.8 3.81.41.08 1.03.6a1.58 1.58 0 0 0 .8.35l15.97 2.16z" class="D"/><g class="B"><path d="M389.84 56.14q.72.53.95 1a.5.49-19.9 0 1-.33.69l-3.84.94a1.37 1.36 60.3 0 1-1.3-.36l-.37-.36a.94.94 0 0 1 .44-1.58l3.02-.74a1.02.95-76.1 0 0 .52-.34l.3-.37a.36.36 0 0 1 .63.26q-.02.23-.06.27a.38.38 0 0 0 .04.59zm-29.34-.76l.17.14a.39.39 0 0 1-.2.69l-3.78.5a.34.32 58 0 1-.23-.06l-.62-.46a.26.26 0 0 1 .12-.47l3.92-.51a.86.83 59.8 0 1 .62.17zm40.66 0q-.06 0-.12 0-.09 0-.17 0h.01q.13-.01.27-.01a.01 0 23 0 1 .01.01zm-93.17 2.09q-.33.51-1.47.21-1.96-.53-2.41-.9-.19-.15.01-.34a.37.36-49.6 0 1 .42-.04q1.29.75 3.05.45a.4.4 0 0 1 .4.62zm-55.68 2.73a.52.52 0 0 1-.66-.33l-.1-.28a2.3 1.29 71.7 0 1 .51-2.59l.24-.08a2.3 1.29 71.7 0 1 1.95 1.78l.09.28a.52.52 0 0 1-.33.66l-1.7.56zm121.85 1.37q.72-.8.27-1.22l4.51-2.21a.37.37 0 0 1 .52.39q-.13.83.65 1.24a.44.44 0 0 1-.03.79q-2.85 1.22-5.92 1.01z"/><ellipse cx="0" cy="0" transform="matrix(.040132 -.999194 .999194 .040132 443.51 59.62)" rx="1.52" ry="1.08"/><path d="M259.62 59.45q-1.17-.16-2 .8-.8-.34-.96-.75a.36.36 0 0 1 .55-.41q.68.53 1.43-.06.34-.27.67-.13.26.11.31.55zm97.33-.13q-.02-.29.1-.47a.17.17 0 0 1 .32.07q.02.17-.13.46a.15.15 0 0 1-.29-.06z"/></g><path d="M374.43 60.35q.45.42-.27 1.22-1.91.54-3.67-.54a.3.3 0 0 1 .03-.52q1.79-.89 3.91-.16z" class="D"/><path d="M507.02 63.02l-.48-.45q.49-.02.7.13a.14.13 22.3 0 1 .06.13q-.03.21-.28.19z" class="C"/><path d="M360.94 64.06q.01.09-.02.31a.63.63 0 0 0 .59.72q.11 0 .13.01a.36.36 0 0 1 0 .65q-1.49.71-3.08.71a.66.65-6.7 0 1-.64-.5l-.26-1.03a.45.45 0 0 1 .46-.55q1.15.07 2.08-.62a.47.47 0 0 1 .74.3zm12.51-.16q-.07 0-.33-.19a.16.15-45.8 0 1 0-.25q.23-.18.35-.17a.31.31 0 0 1-.02.61zm-94.18 1.3q-1.53 1.55-5.06.13-.24.03-.28-.25a.35.34 8.4 0 1 .49-.36q2.09.98 4.85.48z" class="B"/><path d="M125.56 65.29q1.18.22 1.19.23a.49.48 31 0 1 .18.73q-.61.8-1.66.61-1.05-.19-1.33-1.16a.49.48-10.1 0 1 .43-.62q.01 0 1.19.21z" class="C"/><path d="M418.05 67.88q-.56.07-.61.03a.3.3 0 0 1 .11-.54q.6-.11.62-.1a.33.33 0 0 1-.12.61zm-157.3.12l.5.25q-.13 1.18-1.11.17a.27.27 0 0 1 .14-.45q.18-.04.47.03z" class="B"/><ellipse cx="0" cy="0" transform="matrix(.999976 -.006981 .006981 .999976 343.96 68.94)" rx="2.97" ry=".9" class="D"/><path d="M393.93 68.91a.37.37 0 0 1 .33-.64q1.76.5 1.77 1.58a1.38 1.36 34 0 1-2.64.49q-.11-.3.54-.58a.42.41-22 0 0 .23-.52q-.08-.21-.23-.33z" class="B"/><path d="M300.67 71.04q-.51 2.65-2.63 1.98a.33.33 0 0 0-.39.46q.14.29 1.05 1.04a.72.72 0 0 1-.48 1.28l-2.09-.06a1.06 1.06 0 0 1-1.03-1.09l.02-.84a.95.95 0 0 1 .97-.92q2.2.05 2.28-2.35a.63.62-88.2 0 1 .64-.61l.8.02a.91.9-83.5 0 1 .86 1.09z" class="C"/><g class="B"><ellipse cx="0" cy="0" transform="matrix(-.985109 -.171929 .171929 -.985109 417.48 70.85)" rx="3.24" ry=".6"/><path d="M333.17 74.08l-5.48 1.36a.8.8 0 0 1-.58-1.48l2.43-1.37a.61.61 0 0 1 .55-.02l3.09 1.41a.05.05 0 0 1-.01.1zm-137.8 7.14q-2.8-.8-3.88.18-.94-.72-2.12-.53a.56.55-3.9 0 1-.65-.56l.01-.39a.41.41 0 0 1 .32-.39q2.73-.69 5.29-.38a.47.47 0 0 1 .4.57q-.17.71.63 1.5zm193.89-1.9q.89.07 1.85.52a.312.312 0 0 1-.17.6q-.79-.09-1.76-.17-.97-.07-1.76-.1a.312.312 0 0 1-.07-.62q1.01-.3 1.91-.23zm-220.05.54q.16.1.28.18a.22.22 0 0 1-.06.38c-1.84.67-4.68 1.97-6.56 1.19l6.34-1.75z"/></g><path d="M195.37 81.22q1.56 1.54 5.23 1.18.68-.06 1.37.6a.27.27 0 0 1-.22.46q-4.64-.5-4.89-.4a.27.27 0 0 0 .01.5q3.78 1.29 6.61.03a1.22 1.17-51 0 1 .72-.09l20.05 3.78a.2.2 0 0 1 .05.37q-.21.1-.83.21a.42.42 0 0 0-.06.82l6.04 2q.18.27.48.35.08.58-.01 1.08a.32.32 0 0 1-.53.18q-.1-.08-.16-.2a.48.47-6.3 0 0-.33-.26q-20.25-4.45-37.4-7.37c-1.37-.23-2.29-1.1-3.64-.73q-2.09.58-2.93-1.26a.29.29 0 0 1 .27-.41l2.07.06a.43.42-11.6 0 1 .39.25q.3.68 1.08.34a.75.75 0 0 1 .82.15q.48.46 1.26.55a.65.63 8.3 0 0 .7-.51q.14-.67-.03-1.5 1.08-.98 3.88-.18zm-.94 1.81a.35.35 0 0 0 .08-.61q-.73-.54-1.67-.04a.41.41 0 0 0 .05.75q.66.26 1.54-.1z" class="D"/><path d="M171.35 81.09l.23.11a.46.46 0 0 1-.06.84l-4.18 1.48a.39.38 46 0 1-.28-.01l-.82-.38a.3.3 0 0 1 .02-.56l4.34-1.53a1 .97 47.8 0 1 .75.05z" class="B"/><path d="M390.16 83.73q-.01-.3.41-.78a.78.73-19.1 0 1 1.34.6q-.1.42-.18.91a.53.52 11.4 0 0 .41.6l2.94.62a.29.28 84.4 0 0 .32-.39l-.21-.5a.52.52 0 0 1 .59-.71q.87.19 2-.54a.57.57 0 0 1 .83.26l.88 2.12a.14.13-22.1 0 1-.08.18q-.27.09-.41-.4-.04-.11-.2-.17-.87-.35-1.39.2a.35.35 0 0 0 .25.58q2.41.04 3.62 1.46a1.4 1.37 73.7 0 0 .82.46q.53.08.53.09a1 .99-83.6 0 1-1.2.96l-21.18-4.57a1.16 1.16 0 0 1-.85-.76q-.01-.02-.01-.06a.45.44-4.2 0 0-.41-.35l-3.24-.24a.42.42 0 0 1-.2-.77q.98-.64 2.96-.51.34.02 10.79 2.42a.71.71 0 0 0 .87-.71z" class="D"/><path d="M194.43 83.03q-.88.36-1.54.1a.41.41 0 0 1-.05-.75q.94-.5 1.67.04a.35.35 0 0 1-.08.61z" class="C"/><path d="M289.22 83.54q1.55-1.04 3.53-1.07 1.76-.03 1.9.64a.46.46 0 0 0 .67.31q.22-.12.54-.02a.43.43 0 0 1-.11.84c-1.75.07-3.69 1.19-5.13-.24a.92.91 56.1 0 0-.98-.2q-.18.06-.3.08a.19.19 0 0 1-.12-.34z" class="D"/><g class="B"><path d="M238.6 206.75q-.75-1.74-1.6-2.04-5.88-2.1-13.63-3.85-2.24-4.14-1.11-8.24a.85.77 51.6 0 0 .02-.31l-.51-6.08a.85.84 4.9 0 0-.64-.75l-6.25-1.54a.41.32-33.9 0 0-.15-.01q-2.11.14-3.76-.84a.66.66 0 0 0-.99.55l-.34 11.96a1.53 1.52-80.7 0 0 1.07 1.5l8.65 2.64q-12.59-2.98-24.99-6.13-5.26-1.33-10.61-2.04-1.6-.21-2.08 1.44-.4-1.9.92-4.28a.52.52 0 0 1 .82-.12q.33.33.57 1.55.04.2.29.39.35.26.7.12a.59.58-11.2 0 0 .35-.52q.06-1.87 1.79-2.39a.7.67-31 0 1 .66.15q.05.04.12.12a1.02 1.01-71.1 0 0 1.77-.87q-.41-1.9-2.02-2.85a.72.69-88.3 0 0-.96.94q.22.45.19.75a.28.28 0 0 1-.5.14c-.7-.94-2.06-1.11-2.55-2.2q-.34-.74-1.31-.37-1.08.42-.67 3.11a.61.61 0 0 1-.79.68q-1.24-.4-1.53.53-.45 1.46-.42 2.86a.48.47 38.1 0 1-.94.11q-.75-3.37 1.47-4.85a.68.66 65.3 0 0 .27-.75l-.69-2.34a.51.44-59.2 0 1-.03-.17l.22-7.67a1.34 1.28-62.1 0 0-.23-.81l-.38-.56a.48.48 0 0 1 .41-.75q1.12.05 1.81-.17a.84.84 0 0 0-.1-1.63q-.84-.15-2.25.03-.31.04-.28.16.1.38.02.52a.35.35 0 0 1-.58.02q-.48-.65-2.19-.75a1.53 1.51 26.9 0 0-1.03.33c-1.44 1.13-.59 4.21-.8 6.01a.43.43 0 0 1-.52.38l-4.78-1.01a.65.63-54.9 0 0-.47.09q-2.5 1.68-4.85 1.51l2.96-1.53a.82.81-16.2 0 0 .43-.78l-.8-11.71q1.73 1.34 3.01 1.02a.66.66 0 0 1 .74.34q.31.56.63.52a1.84 1.42 85.9 0 0 1.23-1.86q-.4-8.89.6-14.76a.72.71 5.5 0 1 .73-.6l2.92.09a.53.53 0 0 1 .29.97l-1.39.95a.43.43 0 0 0 .32.78q2.41-.39 4.49.16a.71.71 0 0 0 .84-.43q.26-.66-.11-1.15a.83.81 46 0 1 .01-1q.08-.11.17-.25a1.9 1.89 63.9 0 0 .32-.95q.88-14.35-.5-28.56a.12.12 0 0 0-.14-.11.05.05 0 0 0-.05.05l-.05 5.4a.32.32 0 0 1-.54.23l-.36-.35a.7.69-14.3 0 0-.34-.2l-12.85-3.27.24-15.74q1.56 2.06 1.7 4.46a1.19 1.19 0 0 0 1.69 1.01q1.61-.73 2.77-2.33a.84.84 0 0 0-1.16-1.18q-.02.02-.16.31a.54.53-68.4 0 1-.66.29q-1.11-.39-1.9-1.3a.39.39 0 0 1 .31-.64q1.38.04 2.38-1.25a.99.98-34.5 0 0 .17-.88q-.6-2.15-3.07-2.74a.65.58-41.4 0 0-.31 0l-6.32 1.56a1.48 1.41 42.7 0 1-.65.01l-3.46-.72a.62.62 0 0 1-.46-.78q.71-2.37.29-4.82-.7-4.07 1.25-6.48.63-.46 1.89-.77.53.13.42.64a.36.32 81 0 1-.12.19q-.52.41-.56 1.06a.38.33-33.1 0 0 .69.1q.33-.65 1.15-.17.52.31.91.98c1.06 1.82 4.27 1.41 4.72 2.33q.39.78.41.79a.61.6-76.4 0 0 .76-.47q.31-1.51 1.36-2.33a.4.39-23.8 0 1 .63.24c.33 1.75 1.86 2.06 3.75 2.59a.33.33 0 0 1 .11.57q-.01.01-.25.14a.18.18 0 0 0 .01.32l2.04.93a.25.24 38.5 0 1 .05.41q-.86.68.23 1.8a.24.23 68.5 0 1-.17.4l-.68-.02a.29.28 75.2 0 0-.25.43q.49.83 1.36.36 1.27-.69 2.01-2.5a1.01.99-88.5 0 1 .6-.58l1.41-.5a.83.83 0 0 0-.25-1.62l-1.96-.06a.8.79 1.1 0 1-.78-.8q0-.45-.04-.53a.95.95 0 0 0-.87-.57q-1.48-.01-3.14-.71a.68.68 0 0 1-.42-.64l.21-7.31a1.04 1.01 76.3 0 1 .5-.85q1.45-.87 3.72-.23 2.68.75 7.63 1.84a.9.9 0 0 1 .22 1.68q-1.08.56-1.06 2.08a.83.82-77.7 0 0 .48.75q1.02.47.58 1.28a.55.55 0 0 0 .32.78q.98.31 1.46-.2 2.11-2.25 2.13-2.56.07-.99-1.12-1.71a.74.73-29.5 0 1 .38-1.36q2.1-.02 5.74 1.26a5.2 4.87 55.7 0 0 1.12.25q5.69.59 10.23 2.19a.47.47 0 0 1 .26.67q-1.35 2.47 1.31 4.12a1.19 1.19 0 0 0 1.8-.84q.22-1.55-.01-2.44a.49.48-10.6 0 1 .42-.61q2.39-.25 4.29.13 6.51 1.3 13.04 2.84a.94.93 73.7 0 1 .45.25l1.08 1.08a.28.28 0 0 1-.21.48q-2.18-.03-2.83 2.44a.85.85 0 0 0 1.41.83q.01-.02.3-.78a.41.4-74.1 0 1 .46-.26l.35.08a.4.4 0 0 1 .31.46q-.08.46-.4.64a.53.53 0 0 0-.18.77q.66.93 1.23.92a.32.31-23.2 0 0 .22-.54q-.53-.51-.59-.77a.47.46-4.5 0 1 .49-.57q1.98.17 2.78 1.52a1.49 1.47 75.1 0 0 1.23.72l.82.03a.48.48 0 0 0 .36-.82l-2.85-2.84a1.19 1.19 0 0 1 1.09-2l4.89 1.04a.93.92 6.5 0 0 1.11-.88l.06-1.92a1.04 1.04 0 0 1 1.95-.46q1.13 2.1 3.85 1.76.77-.1.82-.31.02-.07.22-.47a.46.46 0 0 1 .6-.21l.75.35a.49.49 0 0 1 .1.83q-.53.43-1.26.42a.85.84 15.6 0 0-.75.42q-.53.93-1.88.67a1.04 1.03-50.8 0 0-.64.07q-1.04.47-2.11.48a1.02 1.02 0 0 0-1.01 1l-.23 7.94a.81.8-88.6 0 0 .78.83q2.57.09 3.18.38a1 .99 12.7 0 1 .59.92l-.03 1.33a1.73 1.73 0 0 0 1.93 1.75q2.08-.24 2.69-1.47.65-1.33 1.32-1.46 2.31-.46 2.32-.47a.48.47-88.1 0 1 .51.55c-.11.69-.48 1.45-.49 2.04q-.18 10.03-.45 38.98-.05 5.15-.18 7.78-.61 11.75-.39 24.57a.32.31-72 0 1-.5.26l-1.66-1.25a1.17 1.11 66.1 0 0-.53-.22q-2.92-.39-3.11 2.62a.68.68 0 0 1-.62.63q-2.69.21-3.43-.08-2.18-.82-3.49-.76-1.97.1-1.38 1.56a.39.39 0 0 1-.36.54q-1.41.04-1.7.98c-.87 2.85-.21 7.55 3.44 8.37q2.86.63 3.77.65a.61.61 0 0 1 .23 1.18l-2.43 1.01a.94.94 0 0 0-.58.87l.11 8.29zM191.39 89.6q.67.68 2.04.91 6.73 1.19 9.28 2.02a.18.18 0 0 0 .22-.22l-.29-1a.05.04 80.8 0 0-.04-.04L192.13 89a.58.57 21.8 0 0-.6.25q-.19.3-.14.35zm-.53 2.39q-.05.29.19.52a.49.46-17.2 0 0 .24.11q2.93.41 3-.12.08-.52-2.83-.99a.49.46 34.1 0 0-.27.05q-.29.14-.33.43zm5.45 1.26q1.06 1.13 2.12.93a.52.52 0 0 0 .01-1.02l-1.86-.39a.29.29 0 0 0-.27.48zm4.26 1.48l.49-.33a.46.46 0 0 1 .7.24q.27.87 1.14.41a.51.51 0 0 0-.03-.92q-.91-.4-2.24-.3-.34.03-.45.21-.11.2-.1.45a.32.31 70.8 0 0 .49.24zm-5.09.86l-.62-.91a.57.57 0 0 0-1.04.26q-.16 1.43 1.42 1.18a.35.34-20.9 0 0 .24-.53zm1.47.43q.41.64 2.71 1.14a.31.31 0 0 0 .37-.22q.08-.3-.09-.67a.43.42 60.7 0 0-.63-.18q-.47.32-1.97-.49a.3.29-2.2 0 0-.39.42zm-26.04 1.74a.53.53 0 1 0-1.06 0 .53.53 0 1 0 1.06 0zm60.12 84.68c2.42-1.78 5.07-4.09 5.06-7.69q-.05-15.65.32-52.96a1.95 1.88 28.8 0 0-.33-1.07l-5.48-8.03a1.78 1.77-10.7 0 0-1.11-.75l-43.11-9.07a.94.93 28 0 0-.87.26l-5.69 5.68a.95.95 0 0 0-.11 1.19l.27.39a.16.16 0 0 0 .25.02l5.67-5.67a1.19 1.17-61.1 0 1 1.09-.32l42.09 8.86a2.24 2.2 77.1 0 1 1.34.86q1.43 1.95 3.6 5.21c1.53 2.3 1.63 4.06 1.57 6.9q-.51 21.96-.06 47.24.03 1.93-.54 3.8a1.98 1.94 77.4 0 1-.5.81q-3.74 3.5-3.93 3.97a.31.31 0 0 0 .47.37zm18.59-58.32q.41-.55-.16-.89-2.29-1.35-4.84.57a.89.88-35.8 0 0-.2 1.2l.34.49a.61.6 52.9 0 0 .89.13q.61-.51 1.25.15.6.62 1.21.42.56-.19.93.16.39.39.04.81-.48.58-1.46.3-.37-.1-.64-.59-.72-1.28-1.09-.41a.32.3 39.7 0 0 .04.31l.97 1.43a.69.68-33.2 0 0 .93.19q2.33-1.45 1.79-4.27zm-3.67 27.03a1.71 1.7-34.7 0 0-.35 1.89q.64 1.47 2.39 2.57a.78.77-51.2 0 0 .96-.11l1.38-1.38a1.23 1.23 0 0 0-.87-2.1q-2.34.02-1.87-1.45a.4.4 0 0 0-.66-.4l-.98.98zm.44 29.36q.91-1.22 2.1-.6a.35.35 0 0 0 .48-.18q.13-.32-.06-.72a.48.48 0 0 0-.5-.27q-2.19.32-2.13-1.34a.55.55 0 0 0-.64-.57q-1.04.17-1.66 1.11-.49.72.16 1.61.39.53 1.39 1.13a.67.66 33.4 0 0 .86-.17zm-59.48 8.89q-.59-.08-.86.14a.2.2 0 0 0 .1.35q.33.05.8-.08a.21.21 0 0 0-.04-.41zm20.76 6.82q2.17-2 .39-4.46-.71-.98-1.2-.88a2.06 2.03 67.9 0 0-1.27 3.08q.92 1.48 1.26 2.11a.53.52 55 0 0 .82.15zm19.75 3.48q.95.42 1.65 1.61a.45.45 0 0 0 .73.07q2.03-2.33 1.28-4.86a.56.56 0 0 0-.9-.27q-1.59 1.35-2.5-.48a.64.6-43.2 0 0-1.08 0q-.53.84.18 1.74.29.38 2.37 1.14a.34.34 0 0 1 .22.27q.03.19-.16.4a.39.38-52.1 0 1-.51.07q-.95-.65-1.28-.5a.44.44 0 0 0 0 .81z"/><ellipse cx="0" cy="0" transform="matrix(-.674302 -.738455 .738455 -.674302 165.04 85.48)" rx="1.15" ry=".44"/><path d="M329.32 84.93q.7.59.6 1.21a.72.72 0 0 1-.8.6q-1.84-.22-2.9.65a1.03 1.02 30.3 0 1-.82.21q-.99-.16-2.25.2a.57.57 0 0 0-.22.99q.48.41 1.29.3a.56.55-76.9 0 1 .53.86q-1.66 2.54-2.95 1.44-.35-.3-.76-.78-.39-.46-1.33-.45a.47.45-11.8 0 1-.42-.26q-.13-.29.04-.71.14-.33.4-.38 1.07-.18 1.15-.77a.84.84 0 0 1 .6-.65l6.5-1.79a.75.65-42.6 0 1 .35-.01l.53.11a.37.37 0 0 0 .43-.45l-.06-.26a.06.06 0 0 1 .09-.06z"/></g><path d="M284.31 86.34q.12 1.26-2.63 1.36a2.79 2.58 49 0 1-.8-.09q-2.49-.65-2.5-.71 0-.06 2.32-1.17a2.79 2.58-59.7 0 1 .78-.23q2.72-.41 2.83.84z" class="D"/><path d="M401.72 86.19a.08.08 0 0 1-.03-.14q.17-.12.29-.13a.09.09 0 0 1 .07.15q-.14.15-.33.12zm46.92 25.42l-1.17 13.38a.64.62-79.6 0 0 .45.67l1.88.55-10.82 4.12a.48.46-36.9 0 1-.46-.06q-.77-.57.24-1.81a.86.86 0 0 0-.31-1.32l-.38-.17a.66.66 0 0 0-.86.3q-.84 1.63-.43 3.19a.77.75 53.7 0 1-.08.58q-.37.59-2.62.86a.81.81 0 0 0-.65 1.11q.29.7.35 1.79a.31.31 0 0 1-.44.3l-.5-.23a.54.54 0 0 1-.31-.47q-.03-.86-.31-1.18a.71.69-30.3 0 0-.76-.19q-15.4 5.66-35.71 12.95-.31.11-1.12-.1a2.15 2.13-48.8 0 0-1.39.1l-18.84 7.84a6.56 6.38-57.4 0 1-2.05.48c-1.74.12-3.44 1.24-5.11 1.85q-19.21 6.92-36.31 12.86a.46.46 0 0 1-.54-.67q.82-1.35 1.14-2.8a.23.23 0 0 0-.22-.28l-1.54-.05a.56.55 3.3 0 0-.57.5l-.36 3.83a.4.39-75.1 0 1-.56.33q-.23-.11-.98-.12a1.28 1.08 31.3 0 0-.38.06l-7.15 2.52a.48.48 0 0 1-.64-.38q-.09-.58.23-.8a.71.6 10.9 0 0-.82-1.02q-.07.04-2.11.78a1.22 1.18-78.7 0 1-1.26-1.96q.59-.67.71-1.26a.39.38-10.6 0 0-.59-.4q-2.9 1.84-.75 4.92a1.32 1.29-56.9 0 1 .2 1.02l-.38 1.8a.75.75 0 0 1-.81.6q-.01 0-.25-.05a.82.81 40.9 0 0-.45.03l-24.88 8.77a.44.44 0 0 1-.59-.39q-.03-.9.69-1.73a.71.71 0 0 0-.24-1.11l-.7-.32a.38.38 0 0 1 .07-.71c4.18-1 9.93-.84 14.07-1.92q5.16-1.33 10.43-4.01a.32.31-63.9 0 0-.2-.59q-2.36.46-10.31 2.64c-4.21 1.16-13.4 2.03-18.09-.48a.46.45 38.3 0 1-.09-.74c.5-.45.88-1.18.8-1.81-.58-4.19.91-7.91-.02-12.34a.17.17 0 0 1 .3-.13q.34.47.31.94a.88.88 0 0 0 1.68.42q1.14-2.43.45-5.19a.45.45 0 0 0-.84-.08l-1.06 2.32a.41.41 0 0 1-.76-.29q.41-1.3.26-1.83a.88.88 0 0 0-1.13-.59l-5.42 1.87a.54.53 71.7 0 1-.68-.35c-1.46-4.62-1.87-9.88-3.42-12.73q-8.92-16.42-16.87-29.7a1.74 1.73-9 0 1 1.88-2.58l12.5 2.89a2.26 2.08 47.3 0 0 .62.05q2.06-.11 5.51.81a.01 0-58.3 0 1 0 .01l-.08.26a.09.08 19.4 0 0 .06.11q16.6 4.16 22.16 5.36 1.95.42 4.72.7a4.03 3.73 56 0 1 .98.23q4.54 1.79 10.34 2.71 1.9.3 4.39-1.04a1.27 1.26 41.7 0 1 1.07-.06q3.15 1.3 7.23-.22 6.4-2.39 20.48-6.63c2.59-.78 5.07-1.93 7.51-2.75a1.16 1.16 0 0 1 1.53 1.13l-.56 19.39a.63.63 0 0 0 .84.61l12.12-4.28a.74.74 0 0 0 .5-.73q-.11-4.44.66-18.99.04-.65.25-.81.22-.17.77-.37.79-.28.29-.45-.17-.05-.29-.15a.06.05-32.7 0 1 .02-.09l5.93-2.09a.84.83-39.1 0 0 .16-1.5q-1.36-.83-3-.92a.05.03-70.5 0 1-.02-.07q.01-.01.02-.03a.07.05-69.7 0 1 .05-.03q5.49-.28 11.05-2.65 1.19-.51 4.97.25a3.86 3.85 41.7 0 0 1.95-.11l44.29-14.45a1.1 1.05 32.1 0 1 .29-.06q2.37-.28 4.25-1.5a.35.3-62.9 0 1 .15-.06l4.97-1.06a.67.67 0 0 1 .79.79q-1.15 5.7-.78 8.6.04.37.43.49a.43.42 19.8 0 1 .27.56q-.32.8-.51.9a.4.39-11.5 0 0-.21.31q-.16 1.59.64 2.58a1.35 1.33 24.8 0 1 .29.77l.55 10.25zm-79.94 31.93q.1-.14.18-.36a.55.55 0 0 1 .77-.32q1.28.64 2.88.97a.08.07-26.2 0 0 .05-.14l-5.92-2.71a.2.19-84.4 0 1-.11-.14q-.34-1.25-1.58-2.77a1.1 1.1 0 0 0-1.82.19q-2.08 3.97-.75 7.26a1.24 1.22 87.3 0 0 .78.72q1.45.45 2.36-.91a.49.49 0 0 1 .66-.15q1.63.95 2.86.63a.23.23 0 0 0-.01-.45l-2.5-.53a.62.62 0 0 1-.3-1.05q.57-.55.89-1.79a.54.53 19.5 0 1 .74-.35l.41.19a.55.55 0 0 1 .27.73l-.32.71a.27.27 0 0 0 .46.27zm-38.01 2.07a.26.26 0 0 0-.49-.07l-1.31 2.88a.9.89 35.3 0 0 .18 1.02l.18.18a.8.78 40.8 0 1 .08.97q-1.23 1.84-.42 4.74a1.02 1.01 72.9 0 0 1.29.69l8.75-2.85a1.93 1.92-8.2 0 0 1.33-1.77l.15-5.53a1.35 1.34-8.1 0 0-1.76-1.32l-6.78 2.21a.85.85 0 0 1-1.07-.55q-.08-.25-.13-.6zm40.83.21l-.8-.81a.56.56 0 0 0-.9.65q.25.49 1.48.62a.27.27 0 0 0 .22-.46zm-48.75 4.77q-1.35 1.8-1.44 4.35a1.75 1.75 0 0 0 .83 1.54c3.1 1.92 5.13-.81 4.36-3.56a.9.88-.5 0 0-.63-.61q-1.46-.39-2.5-1.72a.39.39 0 0 0-.62 0zm4.58 10.84q-1.23.92-2.16.13a.73.73 0 0 0-.72-.14l-3.84 1.36a1.61 1.61 0 0 0-1.06 1.75q.35 2.35.38 3.08.03.5-.17.74-.14.17-.53.58a.45.44 29.9 0 0 .2.72q.07.02.25 0a.34.34 0 0 1 .35.44q-.02.05-.14.33-.15.34.71.18 3.56-.67 6.46-3.32a.91.9-62.8 0 0-.5-1.57q-.16-.02-.76.82a.31.31 0 0 1-.56-.19l.06-2.07a.62.62 0 0 0-1.2-.26q-.39.92-2.01 1.49a1.01.92-2.6 0 1-1.33-1.1q.25-.8 1.39-.98 1.64-.26 2.53-.77.34-.2.58 0 .23.18.39.46a.73.73 0 0 0 .89.34q.87-.31 1.14-1.8a.22.22 0 0 0-.35-.22zm-9.37 4.48l.04-1.16a.33.33 0 0 0-.52-.28q-.49.35-.71.76-.19.35.03.6.25.31.81.38a.31.31 0 0 0 .35-.3zm-33.04 3.57c.2-.07.45-.23.58.07q.13.27.02.42a.46.45-66.9 0 1-.41.17q-.51-.06-.57-.06a.48.47 81.7 0 0-.45.61l.27.85a.81.81 0 0 0 1.45.21q1.22-1.86.64-4.7a.39.39 0 0 0-.69-.16q-1.26 1.6-1.27 2.28a.33.32-8.9 0 0 .43.31zm69.13-82.84q.12.28-1.19 1.57a.64.64 0 0 1-.92-.01q-.03-.04-.26-.57-.22-.53-.22-.58a.64.64 0 0 1 .64-.67q1.84-.02 1.95.26zm48.78 1q-.05.15-.39.23a.45.4 1.2 0 1-.55-.51q.05-.16.4-.24a.45.41 1.9 0 1 .54.52zm-172.92 3.39q-.3-.08-.48-.35.82-1.23-.14-2.61a.33.33 0 0 1 .28-.52q.47.01 1.35.46a2.3 2.21 60.2 0 0 .82.24q2.94.31 4.25 2.24a.46.46 0 0 1-.25.7q-2.61.78-5.2-.52a.36.3 50.2 0 0-.22-.04q-.43.06-.41.4zm43.57-.71l-.02-1.59q.39.48.92.55a.76.76 0 0 0 .84-.63q.17-1.08 1.36-1.18c1.36-.11 1.81.9 3.31 1a.4.39 36.3 0 1 .12.76q-3.1 1.18-6.53 1.09z" class="B"/><path d="M273.48 88.73l.02 1.59q-1.74.66-3.47.32-.71-.51-1.3-1.82 2.95-.54 4.75-.09z" class="D"/><path d="M191.39 89.6q-.05-.05.14-.35a.58.57 21.8 0 1 .6-.25l10.47 2.27a.05.04 80.8 0 1 .04.04l.29 1a.18.18 0 0 1-.22.22q-2.55-.83-9.28-2.02-1.37-.23-2.04-.91z" class="C"/><path d="M268.73 88.82q.59 1.31 1.3 1.82-1.07.18-.53.94a.89.86 72.6 0 0 .66.36q.33.01.5.09a.11.1-37.9 0 1-.03.2l-9.65 2.15a.6.59 82.4 0 1-.72-.56q0-.03.03-.24a.74.72-9.6 0 1 .38-.52c1.29-.69 1.13-1.35 3.11-1.56q2.52-.26 4.95-2.68zm-82.18 1.93q.4-.49.44-.51a.41.32-79.3 0 1 .33.62q-.17.27-.63.22a.2.2 0 0 1-.14-.33z" class="B"/><path d="M158.4 90.23q-1.95 2.41-1.25 6.48.42 2.45-.29 4.82a.62.62 0 0 0 .46.78l3.46.72a1.48 1.41 42.7 0 0 .65-.01l6.32-1.56a.65.58-41.4 0 1 .31 0q2.47.59 3.07 2.74a.99.98-34.5 0 1-.17.88q-1 1.29-2.38 1.25a.39.39 0 0 0-.31.64q.79.91 1.9 1.3a.54.53-68.4 0 0 .66-.29q.14-.29.16-.31a.84.84 0 0 1 1.16 1.18q-1.16 1.6-2.77 2.33a1.19 1.19 0 0 1-1.69-1.01q-.14-2.4-1.7-4.46.14-1.09-.74-1.02-5.9.46-10.46-2.79-.31-.72-.82-.41-3.58-.62-5.84-3.01a1.29 1.28 67.6 0 0-.92-.39q-23.15-.07-46.69.73l-24.68.63q-1.6.07-24.22.58-9.5.22-24.23.82-13.69.55-27.39.57v-2.16q4.32-.51 8.75-.61 78.49-1.83 138.23-3.67a2.35 2.35 0 0 0 1.84-.97c1.81-2.48 3.31-2.4 6.11-2.44a2.65 2.62 27.7 0 0 1.41-.43q.96-.63 2.06-.91z" class="C"/><ellipse cx="0" cy="0" transform="matrix(-.983885 -.178802 .178802 -.983885 348.07 91.8)" rx="3.69" ry=".6" class="B"/><path d="M194.29 92.5q-.07.53-3 .12a.49.46-17.2 0 1-.24-.11q-.24-.23-.19-.52.04-.29.33-.43a.49.46 34.1 0 1 .27-.05q2.91.47 2.83.99zm2.29.27l1.86.39a.52.52 0 0 1-.01 1.02q-1.06.2-2.12-.93a.29.29 0 0 1 .27-.48zm3.99 1.96a.32.31 70.8 0 1-.49-.24q-.01-.25.1-.45.11-.18.45-.21 1.33-.1 2.24.3a.51.51 0 0 1 .03.92q-.87.46-1.14-.41a.46.46 0 0 0-.7-.24l-.49.33zm-5.09.86a.35.34-20.9 0 1-.24.53q-1.58.25-1.42-1.18a.57.57 0 0 1 1.04-.26l.62.91z" class="C"/><path d="M334.74 95.69q1.96.4 2.98.81a.23.23 0 0 1-.12.45q-.26-.04-2.99-.6-2.73-.56-2.98-.63a.23.23 0 0 1 .06-.46q1.1.03 3.05.43z" class="B"/><g class="C"><path d="M197.34 95.6q1.5.81 1.97.49a.43.42 60.7 0 1 .63.18q.17.37.09.67a.31.31 0 0 1-.37.22q-2.3-.5-2.71-1.14a.3.29-2.2 0 1 .39-.42z"/><circle cx="170.38" cy="97.76" r=".53"/></g><g class="B"><path d="M246.45 98.91a.32.32 0 0 1 .4.27q.2 1.61-1.07 1.28a.72.72 0 0 1 .01-1.39l.66-.16z"/><ellipse cx="0" cy="0" transform="matrix(-.663926 -.747798 .747798 -.663926 243.95 101.27)" rx="1.19" ry=".45"/><path d="M154.79 101.9q-.56.01-.82-.41.51-.31.82.41z"/></g><path d="M230.56 182.07q.19-.47 3.93-3.97a1.98 1.94 77.4 0 0 .5-.81q.57-1.87.54-3.8-.45-25.28.06-47.24c.06-2.84-.04-4.6-1.57-6.9q-2.17-3.26-3.6-5.21a2.24 2.2 77.1 0 0-1.34-.86l-42.09-8.86a1.19 1.17-61.1 0 0-1.09.32l-5.67 5.67a.16.16 0 0 1-.25-.02l-.27-.39a.95.95 0 0 1 .11-1.19l5.69-5.68a.94.93 28 0 1 .87-.26l43.11 9.07a1.78 1.77-10.7 0 1 1.11.75l5.48 8.03a1.95 1.88 28.8 0 1 .33 1.07q-.37 37.31-.32 52.96c.01 3.6-2.64 5.91-5.06 7.69a.31.31 0 0 1-.47-.37z" class="C"/><g class="B"><path d="M242.13 104.45q-.48-.13-.83-.43a.57.54-26.4 0 1 .35-.96q.58-.06 1.01.37a.61.59 73.4 0 1-.53 1.02z"/><circle cx="240.74" cy="105.48" r=".61"/><path d="M368.21 120.69q-.94 2.54-3.94 5.94a.4.39-47.1 0 1-.57.03q-.49-.46.01-1.15 2.3-3.15 3.1-5.34.81-2.18 1.11-6.07.06-.85.73-.88a.4.39 87.5 0 1 .42.39q.07 4.54-.86 7.08zM256.2 189.76q.51-.88-.24-1.54-1.5-1.33-2.33-2.07a.4.4 0 0 0-.63.12q-.12.25-.03.45.15.32.4.32 1.18-.04 1.49 1.51a.45.45 0 0 1-.49.53q-1.99-.24-2.68-2.55a.41.4-21.2 0 1 .21-.47q.47-.24.49-1.06.62-33.98.8-67.36a2.09 2.04 35.5 0 0-.13-.72q-.18-.45-.18-.47a1.37 1.36 33.8 0 1 2.64-.52l4.89 12.73a.83.82 68.1 0 1-.45 1.06l-1.48.62a.46.45-33.1 0 1-.49-.1l-.33-.33a.44.44 0 0 1 .17-.73q.33-.11.35-.13a.47.47 0 0 0-.43-.78l-1.83.36a1.15 1.13-80.6 0 0-.78.57q-1.18 2.06-.75 4.41a.22.22 0 0 0 .32.16q.13-.07.15-.07a.23.22-5 0 1 .21.17q.04.17-.23.71a1.33 1.33 0 0 0-.13.76q.3 2.2 3.13 4.09c7.01 4.69 5.3 18.12 4.76 25.25a1.77 1.56-34.9 0 1-.13.53l-1.36 3.25a1.13 1.11 46.2 0 0-.01.85q.38.92.93 1.13a.65.64 83.9 0 0 .76-.96q-.65-1.02-.11-1.87a.35.35 0 0 1 .63.07l.62 1.77a1.01.86 40.3 0 1 .05.3l-.17 6.08a.27.27 0 0 1-.52.08q-.21-.62-.62-.67a.65.64-69.9 0 0-.62.29q-1.23 1.86-.89 4.09.06.39.65.56a.73.72 80.8 0 0 .79-1.11q-.68-.99.1-1.8a.3.29-29.7 0 1 .5.13l.9 3.63a.55.54-16.5 0 0 .71.38l3.81-1.34a.53.53 0 0 1 .71.51l-.19 6.64a.97.97 0 0 0 1.38.91q6.32-2.94 13.6-3.9a.86.81-35.3 0 1 .49.07l.5.23a.53.52-42.2 0 1-.05.97l-19.25 6.79a.47.47 0 0 1-.49-.77l1.19-1.2a1.05 1.05 0 0 0 0-1.49l-.71-.71a.6.6 0 0 0-1.01.28q-.38 1.6-.91 2.2a.91.89-38.2 0 0-.13 1.02q.26.5.08 1.31-.09.39-1.08.6-1.28.28-2.12.55a.85.85 0 0 0-.58.79q-.01.12.01.28a.27.26-5.2 0 1-.25.29l-3.06.26a.66.65-1.6 0 1-.71-.67l.06-1.99a1.44 1.43 25.5 0 0-.36-1q-1.16-1.31-1.63-1.34a.08.07-50 0 1-.01-.15l1.03-.25a.41.41 0 0 0 .3-.3q.11-.38.09-.45a.19.19 0 0 1 .27-.23q.04.03.22.43a.11.11 0 0 0 .19.01zm-1.43-11.9q.31 2.4 2.17 3.92.34.28.8-.05.16-.11.11-.3-.09-.36.26-.55 2.05-1.12 1.44-4.73a.52.51-27.9 0 0-.88-.27q-1.69 1.78-3.36 1.47a.46.46 0 0 0-.54.51z"/></g><path d="M165.78 164.43q-1.57-21.93-.03-42.98l12.85 3.27a.7.69-14.3 0 1 .34.2l.36.35a.32.32 0 0 0 .54-.23l.05-5.4a.05.05 0 0 1 .05-.05.12.12 0 0 1 .14.11q1.38 14.21.5 28.56a1.9 1.89 63.9 0 1-.32.95q-.09.14-.17.25a.83.81 46 0 0-.01 1q.37.49.11 1.15a.71.71 0 0 1-.84.43q-2.08-.55-4.49-.16a.43.43 0 0 1-.32-.78l1.39-.95a.53.53 0 0 0-.29-.97l-2.92-.09a.72.71 5.5 0 0-.73.6q-1 5.87-.6 14.76a1.84 1.42 85.9 0 1-1.23 1.86q-.32.04-.63-.52a.66.66 0 0 0-.74-.34q-1.28.32-3.01-1.02zm7.35-36.71q.36-.15.6-.1a.35.35 0 0 1 .27.33q0 .02.04.33a.392.201-68.2 0 0 .47-.4q-.2-1.98 1.72-1.75a.27.27 0 0 0 .31-.26v-.01a.16.16 0 0 0-.15-.18l-3.21-.31a1.15 1.09-28 0 1-.36-.1q-2.12-1.04-5.14-.93a.24.24 0 0 0-.04.47l4.27.9a.83.82 6.7 0 1 .66.83l-.02.77a.43.42 80.1 0 0 .58.41zm76.49-3.6q.54 2.82-1.79 4.27a.69.68-33.2 0 1-.93-.19l-.97-1.43a.32.3 39.7 0 1-.04-.31q.37-.87 1.09.41.27.49.64.59.98.28 1.46-.3.35-.42-.04-.81-.37-.35-.93-.16-.61.2-1.21-.42-.64-.66-1.25-.15a.61.6 52.9 0 1-.89-.13l-.34-.49a.89.88-35.8 0 1 .2-1.2q2.55-1.92 4.84-.57.57.34.16.89z" class="C"/><g class="B"><path d="M172.55 127.31l.02-.77a.83.82 6.7 0 0-.66-.83l-4.27-.9a.24.24 0 0 1 .04-.47q3.02-.11 5.14.93a1.15 1.09-28 0 0 .36.1l3.21.31a.16.16 0 0 1 .15.18v.01a.27.27 0 0 1-.31.26q-1.92-.23-1.72 1.75a.39.2-68.2 0 1-.47.4q-.04-.31-.04-.33a.35.35 0 0 0-.27-.33q-.24-.05-.6.1a.43.42 80.1 0 1-.58-.41z"/><ellipse cx="0" cy="0" transform="matrix(.304033 -.952661 .952661 .304033 441.22 132.72)" rx="1.57" ry=".97"/><path d="M258.15 134.68q-.39-.96-.34-1.61a.53.52 41 0 1 1.04-.07q.11.55-.23 1.66a.25.25 0 0 1-.47.02zm189.47-.44q-8.33 3.57-9.03 3.53a.54.54 0 0 1-.2-1.05l8.75-3.17a.34.33-19.2 0 1 .43.2l.12.33a.14.14 0 0 1-.07.16zm-22.12 3.07q.17 1.11-.01 2.11a1.17 1.05-44 0 1-2.21.08q-.05-1.08 1.59-2.43a.39.39 0 0 1 .63.24z"/></g><path d="M368.24 143.27l.32-.71a.55.55 0 0 0-.27-.73l-.41-.19a.54.53 19.5 0 0-.74.35q-.32 1.24-.89 1.79a.62.62 0 0 0 .3 1.05l2.5.53a.23.23 0 0 1 .01.45q-1.23.32-2.86-.63a.49.49 0 0 0-.66.15q-.91 1.36-2.36.91a1.24 1.22 87.3 0 1-.78-.72q-1.33-3.29.75-7.26a1.1 1.1 0 0 1 1.82-.19q1.24 1.52 1.58 2.77a.2.19-84.4 0 0 .11.14l5.92 2.71a.08.07-26.2 0 1-.05.14q-1.6-.33-2.88-.97a.55.55 0 0 0-.77.32q-.08.22-.18.36a.27.27 0 0 1-.46-.27z" class="C"/><path d="M376.7 160.11q-.44-1.25.61-1.78c1-.51 2.19-.47 3.25-.86q14.46-5.26 50.56-18.05a.4.39-18.4 0 1 .51.25l.09.26a.4.4 0 0 1-.24.49q-16.3 6.25-22.04 8.04-2.48.77-6.31 2.5-2.05.93-3.42.98-1.3.05-2.93 1.25a2.59 2.53 17.4 0 1-.77.39l-8.95 2.94q-.04.02-.08.04-3.84 1.94-6.9 2a.93.9 11.7 0 0-.82.52q-.33.71-1.99 1.3a.46.45-19.3 0 1-.57-.27zm39.51-19.54q.09-.5.25-.59a.4.4 0 0 1 .57.24q.49 1.67-.54 3.4a.58.58 0 0 1-1.08-.27q-.06-1.07 1-1.56a.5.5 0 0 0 .29-.51q-.02-.18-.33-.39-.19-.12-.16-.32z" class="B"/><path d="M330.69 145.61q.05.35.13.6a.85.85 0 0 0 1.07.55l6.78-2.21a1.35 1.34-8.1 0 1 1.76 1.32l-.15 5.53a1.93 1.92-8.2 0 1-1.33 1.77l-8.75 2.85a1.02 1.01 72.9 0 1-1.29-.69q-.81-2.9.42-4.74a.8.78 40.8 0 0-.08-.97l-.18-.18a.9.89 35.3 0 1-.18-1.02l1.31-2.88a.26.26 0 0 1 .49.07zm40.61.67q-1.23-.13-1.48-.62a.56.56 0 0 1 .9-.65l.8.81a.27.27 0 0 1-.22.46zm-123.71 4.29q-.47 1.47 1.87 1.45a1.23 1.23 0 0 1 .87 2.1l-1.38 1.38a.78.77-51.2 0 1-.96.11q-1.75-1.1-2.39-2.57a1.71 1.7-34.7 0 1 .35-1.89l.98-.98a.4.4 0 0 1 .66.4zm75.18.02a.39.39 0 0 1 .62 0q1.04 1.33 2.5 1.72a.9.88-.5 0 1 .63.61c.77 2.75-1.26 5.48-4.36 3.56a1.75 1.75 0 0 1-.83-1.54q.09-2.55 1.44-4.35z" class="C"/><path d="M376.19 154.81a.23.23 0 0 1 .41.11q.01.1-.29.77a.163.163 0 0 1-.31-.1q.16-.74.19-.78zm-32.24 15.94l16.19-5.96a.71.7-8.7 0 0 .47-.63q0-.01-.08-.22a1.26 1.25 52 0 1 .13-1.11q.73-1.08.73-1.64a.75.75 0 0 0-1.44-.32q-.33.74-.28 1.63a.31.31 0 0 1-.31.33h-.01a.29.29 0 0 1-.3-.31q.09-1.94 2.01-3.36a.79.78-29.8 0 1 1.18.32q1.34 3.07-1.04 4.35a.25.25 0 0 0-.1.34c.08.16.36.28.51.21q3.72-1.6 8.87-3.22a.47.46-75.7 0 1 .46.78q-1.18 1.15-2.65 1.62-6.35 2.04-12.6 4.36-1.61.6-2.69.6a1.7 1.7 0 0 0-.92.27q-2.41 1.57-7.11 2.59-.3.06-.5-.09-.15-.1-.5-.19a.18.18 0 0 1-.02-.35z" class="B"/><path d="M327.7 161.65q-.27 1.49-1.14 1.8a.73.73 0 0 1-.89-.34q-.16-.28-.39-.46-.24-.2-.58 0-.89.51-2.53.77-1.14.18-1.39.98a1.01.92-2.6 0 0 1.33 1.1q1.62-.57 2.01-1.49a.62.62 0 0 1 1.2.26l-.06 2.07a.31.31 0 0 0 .56.19q.6-.84.76-.82a.91.9-62.8 0 1 .5 1.57q-2.9 2.65-6.46 3.32-.86.16-.71-.18.12-.28.14-.33a.34.34 0 0 0-.35-.44q-.18.02-.25 0a.45.44 29.9 0 1-.2-.72q.39-.41.53-.58.2-.24.17-.74-.03-.73-.38-3.08a1.61 1.61 0 0 1 1.06-1.75l3.84-1.36a.73.73 0 0 1 .72.14q.93.79 2.16-.13a.22.22 0 0 1 .35.22z" class="C"/><path d="M350.77 164.58q.23-1.48 1.23-1.97a.71.71 0 0 1 .88.2q.89 1.16.07 2.37a.39.39 0 0 1-.62.03q-.33-.39-1.12-.22a.37.36-1.7 0 1-.44-.41z" class="B"/><path d="M317.63 166.21q-.56-.07-.81-.38-.22-.25-.03-.6.22-.41.71-.76a.33.33 0 0 1 .52.28l-.04 1.16a.31.31 0 0 1-.35.3zm-33.12 2.96q.01-.68 1.27-2.28a.39.39 0 0 1 .69.16q.58 2.84-.64 4.7a.81.81 0 0 1-1.45-.21l-.27-.85a.48.47 81.7 0 1 .45-.61q.06 0 .57.06a.46.45-66.9 0 0 .41-.17q.11-.15-.02-.42c-.13-.3-.38-.14-.58-.07a.33.32-8.9 0 1-.43-.31z" class="C"/><path d="M265.07 171.48q-.78-1.6-.37-2.53a.43.43 0 0 1 .82.13q.2 2.14.1 2.38a.3.3 0 0 1-.55.02z" class="B"/><path d="M181.68 193.01q.78.85.45 2.27a2.03 1.98-17.7 0 1-.48.9q-3.07 3.34-5.79 7.33-.47.69-2.12.81a2.72 2.66 20.7 0 0-1.65.72q-2.06 1.92-3.09 3.49-18.01 27.44-24.96 37.24-26.61 37.54-53.43 75.23h-2.69q.88-2.38 2.37-4.44 33.38-46.07 63.52-89.75 8.47-12.28 14.69-22.58a1.99 1.94 59 0 0 .28-1.18q-.07-1.03-.88-2.19a1.34 1.3-56.1 0 1-.19-1.06l1.56-6.24 7.49 1.36a.53.52 8.3 0 1 .43.57q-.04.35-.04.36a.23.23 0 0 0 .44-.01q.61-1.96.05-3.2a1.29 1.29 0 0 0-.83-.71l-7.53-2.09q-3.64-1.06-7.56-2.07-.28-.07-.39-.21-.14-.18-.12-.43l.35.01a.53.53 0 0 0 .55-.56l-.36-7.85q1.02-.72 1.44-.28 2.35.17 4.85-1.51a.65.63-54.9 0 1 .47-.09l4.78 1.01a.43.43 0 0 0 .52-.38c.21-1.8-.64-4.88.8-6.01a1.53 1.51 26.9 0 1 1.03-.33q1.71.1 2.19.75a.35.35 0 0 0 .58-.02q.08-.14-.02-.52-.03-.12.28-.16 1.41-.18 2.25-.03a.84.84 0 0 1 .1 1.63q-.69.22-1.81.17a.48.48 0 0 0-.41.75l.38.56a1.34 1.28-62.1 0 1 .23.81l-.22 7.67a.51.44-59.2 0 0 .03.17l.69 2.34a.68.66 65.3 0 1-.27.75q-2.22 1.48-1.47 4.85a.48.47 38.1 0 0 .94-.11q-.03-1.4.42-2.86.29-.93 1.53-.53a.61.61 0 0 0 .79-.68q-.41-2.69.67-3.11.97-.37 1.31.37c.49 1.09 1.85 1.26 2.55 2.2a.28.28 0 0 0 .5-.14q.03-.3-.19-.75a.72.69-88.3 0 1 .96-.94q1.61.95 2.02 2.85a1.02 1.01-71.1 0 1-1.77.87q-.07-.08-.12-.12a.7.67-31 0 0-.66-.15q-1.73.52-1.79 2.39a.59.58-11.2 0 1-.35.52q-.35.14-.7-.12-.25-.19-.29-.39-.24-1.22-.57-1.55a.52.52 0 0 0-.82.12q-1.32 2.38-.92 4.28zm-14.45-12.65q1.05.03 1.92-.54a.19.19 0 0 0-.09-.34q-.88-.06-1.79-.09-.91-.03-1.8-.03a.19.19 0 0 0-.11.34q.83.62 1.87.66zm-1.46 1.98q-.14-.32-.65-.69a.38.37-76.5 0 0-.59.37q.08.57.46.85a.51.47 8.4 0 0 .78-.53z" class="C"/><path d="M316.01 180.9q3.06-1.2 13.44-4.91 1.06-.38 2.16-1.34a.23.23 0 0 1 .38.12l.24.97a.31.31 0 0 1-.19.37q-.97.34-2.06.74-6.46 2.38-12.34 4.55-.59.21-1.61-.08a.22.22 0 0 1-.02-.42z" class="B"/><path d="M255.31 177.35q1.67.31 3.36-1.47a.52.51-27.9 0 1 .88.27q.61 3.61-1.44 4.73-.35.19-.26.55.05.19-.11.3-.46.33-.8.05-1.86-1.52-2.17-3.92a.46.46 0 0 1 .54-.51zm-9.78 3.33q-1-.6-1.39-1.13-.65-.89-.16-1.61.62-.94 1.66-1.11a.55.55 0 0 1 .64.57q-.06 1.66 2.13 1.34a.48.48 0 0 1 .5.27q.19.4.06.72a.35.35 0 0 1-.48.18q-1.19-.62-2.1.6a.67.66 33.4 0 1-.86.17z" class="C"/><path d="M161.75 178.73l.36 7.85a.53.53 0 0 1-.55.56l-.35-.01q-.56-3.83-.43-7.7.02-.44.28-.58.26-.15.69-.12zm5.52.66q.91.03 1.79.09a.19.19 0 0 1 .09.34q-.87.57-1.92.54-1.04-.04-1.87-.66a.19.19 0 0 1 .11-.34q.89 0 1.8.03zm-1.5 2.95a.51.47 8.4 0 1-.78.53q-.38-.28-.46-.85a.38.37-76.5 0 1 .59-.37q.51.37.65.69zm82.07.81q-.4.01-.42-.01a.35.35 0 0 1 .13-.58q.26-.1.44-.01a.32.32 0 0 1-.15.6z" class="B"/><path d="M223.37 200.86l-4.01-1.12-8.65-2.64a1.53 1.52-80.7 0 1-1.07-1.5l.34-11.96a.66.66 0 0 1 .99-.55q1.65.98 3.76.84a.41.32-33.9 0 1 .15.01l6.25 1.54a.85.84 4.9 0 1 .64.75l.51 6.08a.85.77 51.6 0 1-.02.31q-1.13 4.1 1.11 8.24z" class="C"/><g class="B"><path d="M292.02 184.05q.35.41.42.99a.58.58 0 0 1-.5.65q-1.51.2-1.76-.1-.24-.29.22-1.74a.58.58 0 0 1 .72-.38q.56.17.9.58z"/><ellipse cx="0" cy="0" transform="matrix(.898028 -.439939 .439939 .898028 270.97 184.23)" rx="1.11" ry=".42"/><path d="M289.12 188.42q.71.05.49-.79a.69.69 0 0 1 .68-.86l1.21.04a.9.9 0 0 1 .5 1.63q-2.59 1.88-3.26.55a.4.39-11.9 0 1 .38-.57z"/></g><path d="M186.95 189.81q-.47.13-.8.08a.2.2 0 0 1-.1-.35q.27-.22.86-.14a.21.21 0 0 1 .04.41z" class="C"/><path d="M242.16 189.19q.23-.12.52 0c.63.26.52 1.23-.03 1.44q-.39.14-.65-.27a.9.71 59.5 0 1 .16-1.17zm-72.89 4.37l.01-3.72 7.53 2.09a1.29 1.29 0 0 1 .83.71q.56 1.24-.05 3.2a.23.23 0 0 1-.44.01q0-.01.04-.36a.53.52 8.3 0 0-.43-.57l-7.49-1.36z" class="B"/><path d="M207.67 196.22a.53.52 55 0 1-.82-.15q-.34-.63-1.26-2.11a2.06 2.03 67.9 0 1 1.27-3.08q.49-.1 1.2.88 1.78 2.46-.39 4.46z" class="C"/><path d="M270.69 193.36q-.17.05-1.4-.79a.48.47 33.4 0 1-.14-.64q.42-.69.91-.64a1.22.97 34.7 0 1 .63 2.07z" class="B"/><path d="M227.42 198.89q.33-.15 1.28.5a.39.38-52.1 0 0 .51-.07q.19-.21.16-.4a.34.34 0 0 0-.22-.27q-2.08-.76-2.37-1.14-.71-.9-.18-1.74a.64.6-43.2 0 1 1.08 0q.91 1.83 2.5.48a.56.56 0 0 1 .9.27q.75 2.53-1.28 4.86a.45.45 0 0 1-.73-.07q-.7-1.19-1.65-1.61a.44.44 0 0 1 0-.81z" class="C"/><g class="B"><path d="M269.25 199.7l-1.04.38q-.3-.36.66-.71.4-.15.38.33z"/><ellipse cx="0" cy="0" transform="matrix(-.71325 -.700909 .700909 -.71325 242.72 201.26)" rx=".85" ry=".4"/><ellipse cx="0" cy="0" transform="matrix(-.615661 -.788011 .788011 -.615661 240.89 204)" rx=".77" ry=".32"/></g></svg>