<?xml version="1.0" encoding="UTF-8" standalone="no"?>
<!-- Created with Inkscape (http://www.inkscape.org/) -->

<svg
   version="1.1"
   id="svg1"
   width="682.66669"
   height="229.33333"
   viewBox="0 0 682.66669 229.33333"
   sodipodi:docname="alos-2-icon.svg"
   inkscape:version="1.4 (e7c3feb1, 2024-10-09)"
   xmlns:inkscape="http://www.inkscape.org/namespaces/inkscape"
   xmlns:sodipodi="http://sodipodi.sourceforge.net/DTD/sodipodi-0.dtd"
   xmlns="http://www.w3.org/2000/svg"
   xmlns:svg="http://www.w3.org/2000/svg"
   xmlns:rdf="http://www.w3.org/1999/02/22-rdf-syntax-ns#"
   xmlns:cc="http://creativecommons.org/ns#"
   xmlns:dc="http://purl.org/dc/elements/1.1/">
  <sodipodi:namedview
     id="namedview1"
     pagecolor="#ffffff"
     bordercolor="#000000"
     borderopacity="0.25"
     inkscape:showpageshadow="2"
     inkscape:pageopacity="0.0"
     inkscape:pagecheckerboard="0"
     inkscape:deskcolor="#d1d1d1"
     inkscape:zoom="0.45085601"
     inkscape:cx="197.40227"
     inkscape:cy="269.48737"
     inkscape:window-width="1104"
     inkscape:window-height="662"
     inkscape:window-x="0"
     inkscape:window-y="25"
     inkscape:window-maximized="0"
     inkscape:current-layer="svg1" />
  <title
     id="title1">ALOS-2 Icon SVG</title>
  <defs
     id="defs1" />
  <g
     id="g1">
    <path
       style="fill:currentColor"
       d="m 300.00001,227.95432 c 3.3,-0.5995 10.65,-1.13447 16.33333,-1.18883 5.68334,-0.0543 10.33334,-0.5545 10.33334,-1.11143 0,-2.28479 -5.42843,-4.10212 -14.90596,-4.99024 -9.65199,-0.90447 -10.07429,-0.82471 -10.82458,2.04442 -0.76967,2.94319 -0.84012,2.92623 -4.96101,-1.19466 -2.29914,-2.29914 -5.4841,-4.2066 -7.07769,-4.2388 -3.21405,-0.0649 -18.90986,-2.14986 -30.23077,-4.01562 -21.76926,-3.58772 -43.30398,-5.3687 -46.19667,-3.82057 -3.49365,1.86974 -7.13666,0.81644 -7.13666,-2.06341 0,-1.27592 -1.22087,-2.04185 -3.25464,-2.04185 -1.79006,0 -3.62547,-0.6 -4.07869,-1.33333 -1.24834,-2.01985 -14,-1.70088 -14,0.3502 0,0.92594 -1.5,2.80999 -3.33334,4.18676 -2.37678,1.78489 -3.33333,3.76623 -3.33333,6.90444 0,2.42067 -0.68233,4.82292 -1.51629,5.33833 -1.75877,1.08698 -6.41016,-4.40245 -6.45406,-7.6169 -0.0163,-1.19378 -0.88238,-4.21137 -1.92461,-6.70577 l -1.89495,-4.53526 -9.10505,1.08836 c -5.00777,0.59861 -16.84616,1.75773 -26.30753,2.57584 -15.6308,1.35156 -17.35232,1.28257 -18.84232,-0.75512 -1.27347,-1.74158 -1.79233,-1.84515 -2.32249,-0.46358 -1.44612,3.76854 -6.97513,4.54453 -64.299372,9.02432 -7.333334,0.57309 -17.233334,1.40875 -22.000001,1.85703 -4.766666,0.44829 -11.816667,1.05738 -15.6666668,1.35353 L 0,217.14065 -0.0117312,206.90366 C -0.02206648,197.88478 3.0994165,169.58797 6.7066841,146 c 0.6728844,-4.4 1.608473,-12.63751 2.0790858,-18.30557 1.01983,-12.28283 3.8905541,-16.18568 12.8903811,-17.52494 3.111451,-0.46301 11.057183,-1.71169 17.657184,-2.77483 6.6,-1.06315 17.7,-2.84288 24.666667,-3.95496 C 77.506894,101.28361 95.995948,98.125067 108,95.923048 c 10.51039,-1.92802 27.26993,-4.881301 37.33334,-6.578688 4.76666,-0.80399 9.92005,-2.085056 11.45196,-2.846813 2.51186,-1.249049 2.64844,-1.897733 1.39121,-6.607947 -0.76675,-2.872614 -1.87013,-5.222935 -2.45196,-5.222935 -0.58183,0 -1.05788,-1.08 -1.05788,-2.4 0,-1.32 -0.67967,-3.079669 -1.51038,-3.910377 -0.8307,-0.830707 -1.12554,-2.513236 -0.65519,-3.738953 0.69245,-1.804486 1.93135,-2.062203 6.51038,-1.354295 12.29095,1.900157 19.45316,0.170249 35.97043,-8.688034 1.27339,-0.682921 4.00871,-1.241674 6.0785,-1.241674 2.06979,0 4.92793,-0.880918 6.35142,-1.957595 2.99268,-2.263547 8.05444,-2.65136 9.25484,-0.709071 0.45521,0.736547 6.45829,1.333333 13.41203,1.333333 12.38821,0 12.58797,-0.05064 12.58797,-3.190682 0,-3.84369 2.83804,-5.185093 7.34492,-3.471583 2.32952,0.885683 3.32175,2.26848 3.32175,4.629264 0,4.386481 1.3244,4.24661 6,-0.633666 7.89398,-8.239537 14.35191,-2.210809 7.6786,7.168267 -4.36659,6.137073 -3.20025,8.987283 5.40118,13.198995 10.49893,5.140819 14.25356,5.850567 14.25356,2.694388 0,-8.674868 11.17065,-20.394983 19.43883,-20.394983 6.71605,0 13.8945,8.054458 13.8945,15.590091 0,3.275535 0.98481,5.058178 4.04376,7.319757 3.21742,2.378737 3.89073,3.68642 3.29491,6.399193 -0.44541,2.027954 0.06,4.47955 1.24717,6.050234 1.23517,1.634131 2.0203,5.690169 2.05972,10.640724 l 0.0637,8.000002 4.09997,-4.66667 c 4.97978,-5.66808 32.63454,-35.260636 41.85744,-44.790432 7.14106,-7.378685 16.29955,-11.201671 26.87188,-11.217002 2.82046,-0.0041 7.22812,-0.583268 9.79479,-1.287064 2.56666,-0.703796 9.16666,-1.926268 14.66666,-2.716606 24.41376,-3.508199 39.6294,-5.602407 43.33334,-5.964193 2.2,-0.214887 4.9,-0.692946 6,-1.062354 1.1,-0.369408 5.6,-1.365867 10,-2.214354 4.4,-0.848486 10.7,-2.124834 14,-2.836327 3.3,-0.711493 10.2,-1.901804 15.33333,-2.645135 5.13334,-0.743332 15.03334,-2.275079 22,-3.403883 6.96667,-1.128805 16.86667,-2.360411 22,-2.736902 5.13334,-0.376492 10.23334,-1.47477 11.33334,-2.440617 1.1,-0.965848 5,-2.060904 8.66666,-2.433458 3.66667,-0.372555 12.66667,-1.660465 20,-2.862023 26.10658,-4.2775321 37.52052,-6.0385813 51.58763,-7.9594216 7.83986,-1.07052 16.38002,-2.34519 18.97814,-2.8326 4.15088,-0.7787094 4.87034,-0.5009193 5.93153,2.2902231 2.77156,7.2897665 4.64739,45.4606855 4.73959,96.4454785 l 0.0965,53.33334 -21.33333,1.71305 c -11.73334,0.94218 -26.43334,2.22944 -32.66667,2.86058 -6.23333,0.63114 -19.73334,1.83308 -30,2.67098 -10.26667,0.83789 -21.36667,2.06413 -24.66667,2.72497 -3.3,0.66084 -12.9,1.55135 -21.33333,1.97891 -8.43334,0.42755 -18.93334,1.34424 -23.33334,2.03709 -4.4,0.69284 -16.7,1.96069 -27.33333,2.81743 -10.63334,0.85675 -24.13334,2.02891 -30,2.6048 -5.86667,0.5759 -21.16667,1.99782 -34,3.15982 -63.62833,5.7613 -58.84126,5.84088 -66.36148,-1.10314 C 358.83634,164.25878 357.33334,163.43618 357.33334,168 c 0,4.79252 -2.59453,2.80066 -4.09048,-3.14033 -1.14867,-4.56177 -3.72601,-8.05749 -12.0192,-16.30205 l -10.55698,-10.49506 0.0769,4.63538 c 0.0755,4.55577 3.8543,20.6884 5.45807,23.30206 0.44998,0.73333 1.22727,3.24187 1.72731,5.57453 0.50004,2.33266 1.7706,4.95613 2.82346,5.82993 1.05286,0.8738 1.9143,3.36141 1.9143,5.52803 0,4.97111 6.42756,11.73417 11.15208,11.73417 1.84646,0 3.67915,0.52092 4.07263,1.15759 0.39349,0.63668 3.63251,1.54455 7.19783,2.01751 3.56532,0.47296 9.02407,2.08792 12.13056,3.58882 4.19019,2.02448 6.10199,2.35226 7.40627,1.2698 1.29007,-1.07066 2.2394,-0.98969 3.56603,0.30418 2.78765,2.7188 10.55278,5.9572 16.66692,6.95084 4.81502,0.78252 5.80585,0.50018 7.70426,-2.19536 1.84412,-2.61846 2.37439,-2.78632 3.45392,-1.09338 0.70143,1.1 1.28452,3.05 1.29575,4.33334 0.0112,1.28333 0.88501,2.33333 1.94173,2.33333 3.21034,0 3.656,2.42269 0.94443,5.13425 -1.41066,1.41067 -3.18823,3.67878 -3.95014,5.04024 -1.32278,2.36367 -1.53376,2.33592 -4.67479,-0.61493 -3.17172,-2.97968 -3.80647,-3.05569 -17.72892,-2.12308 -9.86138,0.66057 -15.0611,1.58891 -16.40021,2.92803 -1.7255,1.72549 -1.67562,2.16931 0.41568,3.6985 1.97056,1.44092 -4.98824,1.73005 -40.74212,1.69284 -26.47346,-0.0275 -40.80239,-0.46564 -37.11858,-1.13486 z m 73.33333,-1.32066 c 0,-2.71812 -7.07695,-3.95378 -18.42255,-3.21662 -18.60267,1.20866 -19.7364,2.49813 -2.91078,3.31062 8.43333,0.40723 16.68333,0.86011 18.33333,1.00638 1.65,0.14628 3,-0.3489 3,-1.10038 z M 255.00001,208.45029 c -0.91667,-0.36989 -2.41667,-0.36989 -3.33334,0 -0.91666,0.36988 -0.16666,0.67251 1.66667,0.67251 1.83333,0 2.58333,-0.30263 1.66667,-0.67251 z M 296.38875,72.333332 c -0.47349,-1.283334 -1.41791,-2.707835 -2.09871,-3.165559 -2.31038,-1.55335 6.43825,-4.702942 11.44106,-4.118892 3.20455,0.374113 4.93558,0.02981 4.93558,-0.981697 0,-0.856844 0.65228,-1.154767 1.44951,-0.662051 1.04379,0.645098 1.04379,1.301565 0,2.345356 -0.79723,0.79723 -1.43127,2.079509 -1.40897,2.849509 0.0223,0.77 0.65918,0.337381 1.41528,-0.961376 0.75611,-1.298757 2.00214,-1.973619 2.76897,-1.499694 2.04799,1.265727 -0.0712,-4.939012 -2.71243,-7.941812 -1.67474,-1.903986 -3.45305,-2.32518 -7.76504,-1.839157 -3.07605,0.346716 -6.40214,1.458013 -7.3913,2.469549 -3.96423,4.053874 -6.35602,8.620638 -6.35602,12.135832 0,3.048769 0.58176,3.703325 3.29148,3.703325 2.57382,0 3.10378,-0.508752 2.43059,-2.333333 z m 11.19343,-4.139278 c -1.17749,-0.513133 -4.80424,3.71699 -4.8731,5.68382 -0.0233,0.666164 1.3076,-0.233836 2.9576,-2 1.65,-1.766165 2.51197,-3.423884 1.9155,-3.68382 z M 202.66667,214.66666 c 0,-2.07407 0.88889,-2.66666 4,-2.66666 3.11111,0 4,0.59259 4,2.66666 0,2.07408 -0.88889,2.66667 -4,2.66667 -3.11111,0 -4,-0.59259 -4,-2.66667 z m 142.13036,-30.31409 c -0.43836,-0.43836 -0.79702,-2.19702 -0.79702,-3.90813 0,-1.71111 -0.6,-3.11111 -1.33333,-3.11111 -0.73334,0 -1.33334,-1.83622 -1.33334,-4.08049 0,-3.88181 0.23687,-4.06034 4.86497,-3.66666 6.7632,0.57528 8.47921,3.71053 5.28116,9.64896 -2.46675,4.58048 -5.15824,6.64163 -6.68244,5.11743 z m -4.79702,-96.352572 c 0,-1.466667 0.6,-2.666667 1.33333,-2.666667 0.73334,0 1.33334,1.2 1.33334,2.666667 0,1.466667 -0.6,2.666667 -1.33334,2.666667 -0.73333,0 -1.33333,-1.2 -1.33333,-2.666667 z"
       id="path1" />
  </g>
  <metadata
     id="metadata1">
    <rdf:RDF>
      <cc:Work
         rdf:about="">
        <dc:title>ALOS-2 Icon SVG</dc:title>
      </cc:Work>
    </rdf:RDF>
  </metadata>
</svg>
