<?xml version="1.0" encoding="UTF-8" standalone="no"?>
<svg xmlns="http://www.w3.org/2000/svg" version="1.2" baseProfile="tiny" viewBox="0.00 0.00 512.00 172.00" width="512.00" height="172.00">
<path fill="#478db8" d="
  M 510.07 39.97
  Q 508.92 41.80 510.30 42.33
  L 510.55 51.72
  Q 509.80 77.84 512.00 103.83
  L 512.00 113.55
  Q 505.69 115.00 499.05 115.33
  Q 492.91 115.63 490.97 115.98
  C 484.98 117.06 480.14 116.70 473.68 117.68
  Q 469.48 118.32 464.42 118.49
  C 461.40 118.60 457.93 119.16 454.71 119.57
  L 452.29 119.69
  L 451.21 119.85
  L 450.28 119.86
  L 439.58 120.90
  Q 437.53 120.28 435.56 121.07
  A 1.27 1.26 62.3 0 1 434.04 120.59
  Q 432.45 118.15 432.50 115.25
  Q 432.51 114.64 432.30 94.43
  C 432.29 93.12 432.84 92.05 432.46 90.83
  Q 432.29 90.28 432.25 88.15
  Q 431.96 72.70 432.00 69.76
  Q 432.02 67.52 433.63 66.57
  A 0.25 0.24 36.3 0 0 433.56 66.12
  Q 431.93 65.77 431.90 63.75
  Q 431.17 23.99 431.38 17.57
  A 4.73 4.72 76.0 0 1 433.74 13.64
  L 434.53 13.18
  A 1.25 1.25 0.0 0 1 436.40 14.23
  L 437.33 49.81
  A 0.80 0.77 -16.5 0 1 436.93 50.52
  Q 435.62 51.28 433.67 51.97
  Q 433.62 51.99 433.62 52.03
  A 0.10 0.06 -10.8 0 0 433.73 52.07
  L 437.38 51.37
  A 1.25 1.25 0.0 0 1 438.82 52.92
  Q 438.47 54.28 438.51 55.49
  Q 438.99 71.08 438.90 78.54
  Q 438.88 80.59 437.92 81.67
  A 1.56 1.53 66.4 0 0 437.52 82.71
  Q 437.48 86.71 437.34 88.71
  Q 437.20 90.74 437.37 94.75
  Q 437.63 101.24 438.20 117.20
  A 0.18 0.18 0.0 0 0 438.37 117.37
  Q 438.38 117.37 438.38 117.36
  Q 438.81 108.70 438.35 92.15
  A 1.02 0.87 61.1 0 1 438.43 91.76
  L 438.72 91.07
  A 1.60 1.59 47.4 0 0 438.76 89.95
  C 438.28 88.46 437.74 83.63 439.86 82.59
  A 0.78 0.78 0.0 0 0 440.29 81.88
  L 439.51 52.44
  A 1.15 1.14 -15.9 0 1 440.07 51.44
  L 441.21 50.78
  A 0.17 0.16 -56.5 0 0 441.15 50.47
  L 440.03 50.37
  A 0.69 0.68 84.4 0 1 439.43 49.87
  L 438.41 46.09
  A 4.65 4.37 38.8 0 1 438.26 45.02
  L 437.49 12.66
  Q 456.58 9.67 475.50 6.56
  Q 486.25 4.80 493.24 3.77
  C 498.34 3.02 500.58 3.05 506.41 2.72
  A 0.78 0.77 85.3 0 1 507.22 3.41
  C 507.75 8.32 508.63 12.27 508.79 17.28
  Q 509.16 28.68 510.07 39.97
  Z
  M 490.46 17.55
  C 489.82 18.24 489.82 20.00 489.56 22.01
  A 0.84 0.84 0.0 0 0 490.45 22.96
  Q 495.18 22.62 495.43 22.58
  A 0.25 0.01 -39.5 0 0 495.62 22.44
  Q 495.64 22.42 495.70 22.36
  Q 495.75 22.30 495.77 22.28
  A 0.25 0.01 -55.3 0 0 495.89 22.08
  Q 495.91 21.83 495.85 17.08
  A 0.84 0.84 0.0 0 0 494.84 16.28
  C 492.85 16.71 491.10 16.85 490.46 17.55
  Z
  M 443.04 24.72
  L 443.44 30.10
  A 0.24 0.24 0.0 0 0 443.70 30.32
  L 446.66 30.10
  A 2.67 1.71 -4.3 0 0 449.19 28.20
  L 449.01 25.74
  A 2.67 1.71 -4.3 0 0 446.22 24.24
  L 443.26 24.46
  A 0.24 0.24 0.0 0 0 443.04 24.72
  Z
  M 446.9853 49.7889
  A 2.51 0.31 -6.2 0 0 444.4565 49.7518
  A 2.51 0.31 -6.2 0 0 441.9947 50.3311
  A 2.51 0.31 -6.2 0 0 444.5235 50.3682
  A 2.51 0.31 -6.2 0 0 446.9853 49.7889
  Z
  M 488.9417 59.1241
  A 3.49 1.43 -8.5 0 0 485.2786 58.2257
  A 3.49 1.43 -8.5 0 0 482.0383 60.1559
  A 3.49 1.43 -8.5 0 0 485.7014 61.0543
  A 3.49 1.43 -8.5 0 0 488.9417 59.1241
  Z
  M 457.8904 63.0739
  A 1.33 1.33 0.0 0 0 456.3803 61.9525
  L 452.8190 62.4784
  A 1.33 1.33 0.0 0 0 451.6975 63.9884
  L 451.7296 64.2061
  A 1.33 1.33 0.0 0 0 453.2397 65.3275
  L 456.8010 64.8016
  A 1.33 1.33 0.0 0 0 457.9225 63.2916
  L 457.8904 63.0739
  Z
  M 498.4619 95.8045
  A 1.04 1.04 0.0 0 0 497.3253 94.8709
  L 492.7672 95.3178
  A 1.04 1.04 0.0 0 0 491.8337 96.4544
  L 492.2181 100.3755
  A 1.04 1.04 0.0 0 0 493.3547 101.3091
  L 497.9128 100.8622
  A 1.04 1.04 0.0 0 0 498.8463 99.7256
  L 498.4619 95.8045
  Z
  M 450.1860 100.3628
  A 0.27 0.27 0.0 0 0 449.9009 100.1087
  L 444.4899 100.4207
  A 0.27 0.27 0.0 0 0 444.2359 100.7058
  L 444.5340 105.8772
  A 0.27 0.27 0.0 0 0 444.8191 106.1313
  L 450.2301 105.8193
  A 0.27 0.27 0.0 0 0 450.4841 105.5342
  L 450.1860 100.3628
  Z"
/>
<path fill="#2e2b00" d="
  M 437.49 12.66
  L 438.26 45.02
  A 4.65 4.37 38.8 0 0 438.41 46.09
  L 439.43 49.87
  A 0.69 0.68 84.4 0 0 440.03 50.37
  L 441.15 50.47
  A 0.17 0.16 -56.5 0 1 441.21 50.78
  L 440.07 51.44
  A 1.15 1.14 -15.9 0 0 439.51 52.44
  L 440.29 81.88
  A 0.78 0.78 0.0 0 1 439.86 82.59
  C 437.74 83.63 438.28 88.46 438.76 89.95
  A 1.60 1.59 47.4 0 1 438.72 91.07
  L 438.43 91.76
  A 1.02 0.87 61.1 0 0 438.35 92.15
  Q 438.81 108.70 438.38 117.36
  Q 438.38 117.37 438.37 117.37
  A 0.18 0.18 0.0 0 1 438.20 117.20
  Q 437.63 101.24 437.37 94.75
  Q 437.20 90.74 437.34 88.71
  Q 437.48 86.71 437.52 82.71
  A 1.56 1.53 66.4 0 1 437.92 81.67
  Q 438.88 80.59 438.90 78.54
  Q 438.99 71.08 438.51 55.49
  Q 438.47 54.28 438.82 52.92
  A 1.25 1.25 0.0 0 0 437.38 51.37
  L 433.73 52.07
  A 0.10 0.06 -10.8 0 1 433.62 52.03
  Q 433.62 51.99 433.67 51.97
  Q 435.62 51.28 436.93 50.52
  A 0.80 0.77 -16.5 0 0 437.33 49.81
  L 436.40 14.23
  A 1.25 1.25 0.0 0 0 434.53 13.18
  L 433.74 13.64
  A 4.73 4.72 76.0 0 0 431.38 17.57
  Q 431.17 23.99 431.90 63.75
  Q 431.93 65.77 433.56 66.12
  A 0.25 0.24 36.3 0 1 433.63 66.57
  Q 432.02 67.52 432.00 69.76
  Q 431.96 72.70 432.25 88.15
  Q 432.29 90.28 432.46 90.83
  C 432.84 92.05 432.29 93.12 432.30 94.43
  Q 432.51 114.64 432.50 115.25
  Q 432.45 118.15 434.04 120.59
  A 1.27 1.26 62.3 0 0 435.56 121.07
  Q 437.53 120.28 439.58 120.90
  Q 436.48 121.78 433.60 121.43
  Q 432.41 119.63 430.53 121.56
  L 426.98 121.92
  C 429.79 120.53 430.09 117.52 430.00 114.50
  Q 429.87 110.24 429.50 95.26
  C 429.47 93.66 429.14 92.53 429.30 91.24
  Q 429.43 90.13 429.40 88.23
  Q 428.58 38.72 428.59 21.75
  Q 428.59 17.65 427.13 15.59
  Q 431.61 12.87 437.49 12.66
  Z"
/>
<path fill="#478db8" d="
  M 427.13 15.59
  Q 428.59 17.65 428.59 21.75
  Q 428.58 38.72 429.40 88.23
  Q 429.43 90.13 429.30 91.24
  C 429.14 92.53 429.47 93.66 429.50 95.26
  Q 429.87 110.24 430.00 114.50
  C 430.09 117.52 429.79 120.53 426.98 121.92
  L 424.72 122.35
  Q 424.34 122.32 423.99 122.43
  L 422.97 122.60
  L 422.28 122.67
  L 421.22 122.82
  Q 420.54 122.73 419.95 122.95
  L 369.99 127.65
  Q 369.38 127.56 368.79 127.67
  L 364.96 127.86
  L 363.29 127.90
  L 355.30 128.75
  Q 354.75 128.72 354.50 129.02
  L 328.94 131.11
  L 324.06 131.34
  Q 323.15 131.76 321.96 131.82
  L 320.29 131.94
  Q 320.11 132.00 319.94 132.06
  L 314.83 132.47
  L 302.21 133.86
  L 300.96 133.91
  Q 299.70 134.16 298.53 134.00
  L 293.15 134.25
  A 1.39 1.39 0.0 0 1 291.72 133.14
  Q 291.22 130.65 291.28 129.25
  Q 291.62 120.99 291.95 106.44
  C 292.07 100.81 292.96 96.01 292.69 90.66
  C 292.57 88.29 293.47 85.80 293.12 84.04
  Q 292.72 82.03 292.81 78.99
  Q 293.64 52.51 294.12 42.36
  Q 294.24 39.83 295.67 37.64
  A 1.95 1.95 0.0 0 1 296.91 36.78
  L 307.25 34.53
  Q 331.05 30.56 344.75 28.55
  Q 349.85 27.81 356.51 28.05
  Q 356.75 45.06 356.55 62.01
  Q 356.19 92.76 356.14 99.23
  Q 356.01 118.76 356.13 120.25
  Q 356.43 124.01 355.18 127.83
  A 0.34 0.33 -83.7 0 0 355.53 128.27
  L 358.02 128.04
  A 0.85 0.85 0.0 0 0 358.77 126.98
  Q 358.07 124.26 358.13 121.75
  Q 358.53 104.92 358.74 83.25
  Q 358.78 78.77 359.55 76.78
  A 1.95 1.91 -42.7 0 0 359.61 75.63
  L 359.14 73.84
  A 2.96 2.61 41.3 0 1 359.05 73.14
  Q 359.06 35.78 359.22 30.51
  Q 359.30 27.70 361.69 25.56
  L 363.02 25.45
  Q 363.86 25.68 363.86 26.13
  Q 363.60 41.58 363.43 61.01
  A 1.01 1.00 -71.1 0 0 363.81 61.80
  Q 364.85 62.66 364.85 64.25
  Q 364.82 73.86 364.77 83.06
  Q 364.75 87.22 363.98 90.36
  Q 363.01 94.35 363.44 98.47
  A 0.59 0.59 0.0 0 1 363.15 99.04
  L 362.71 99.29
  A 0.46 0.46 0.0 0 0 362.77 100.12
  Q 363.36 100.46 363.37 101.01
  Q 363.39 101.79 363.09 112.00
  A 5.09 4.81 -50.5 0 0 363.15 112.89
  Q 363.71 116.36 363.34 120.21
  A 0.06 0.05 -85.3 0 0 363.39 120.28
  L 363.40 120.28
  A 0.25 0.25 0.0 0 0 363.67 120.04
  Q 363.98 113.10 363.97 102.75
  Q 363.97 101.11 364.43 99.94
  A 1.79 1.74 49.1 0 0 364.49 98.87
  Q 363.64 95.62 365.23 91.88
  A 4.81 4.68 57.8 0 0 365.60 90.14
  Q 366.06 72.01 366.10 68.10
  C 366.13 66.20 365.78 64.36 365.68 62.74
  Q 365.63 62.05 365.87 61.78
  Q 365.93 61.71 366.80 61.25
  A 0.32 0.32 0.0 0 0 366.78 60.68
  Q 365.01 59.90 364.77 56.77
  Q 364.28 50.42 364.73 41.91
  Q 364.93 38.06 364.85 33.57
  Q 364.78 29.44 364.83 25.24
  Q 381.28 21.99 387.74 21.01
  Q 402.54 18.76 417.33 16.38
  Q 423.10 15.45 427.13 15.59
  Z
  M 395.70 64.75
  Q 395.78 69.01 395.84 78.25
  Q 395.94 93.50 395.94 93.52
  Q 395.99 97.34 396.12 100.11
  A 0.22 0.22 0.0 0 0 396.35 100.32
  L 396.36 100.32
  A 0.22 0.21 -90.0 0 0 396.57 100.10
  Q 396.10 83.56 396.38 67.00
  Q 396.40 65.98 396.38 64.94
  Q 396.30 60.68 396.24 51.44
  Q 396.14 36.19 396.14 36.17
  Q 396.09 32.35 395.96 29.58
  A 0.22 0.22 0.0 0 0 395.73 29.37
  L 395.72 29.37
  A 0.22 0.21 -90.0 0 0 395.51 29.59
  Q 395.98 46.13 395.70 62.69
  Q 395.68 63.72 395.70 64.75
  Z
  M 412.00 29.72
  L 411.77 34.56
  A 0.31 0.31 0.0 0 0 412.06 34.88
  L 415.40 35.04
  A 1.53 1.31 2.7 0 0 416.99 33.80
  L 417.12 30.96
  A 1.53 1.31 2.7 0 0 415.66 29.58
  L 412.32 29.43
  A 0.31 0.31 0.0 0 0 412.00 29.72
  Z
  M 370.09 36.15
  L 369.70 40.96
  A 0.30 0.30 0.0 0 0 369.98 41.28
  L 373.19 41.54
  A 1.36 1.09 4.6 0 0 374.63 40.56
  L 374.89 37.33
  A 1.36 1.09 4.6 0 0 373.62 36.14
  L 370.41 35.88
  A 0.30 0.30 0.0 0 0 370.09 36.15
  Z
  M 298.37 40.40
  Q 298.19 53.40 298.19 53.42
  Q 298.40 56.81 297.90 60.95
  Q 297.50 64.32 297.76 68.50
  Q 297.80 69.06 297.52 69.80
  A 1.33 1.28 45.5 0 0 297.53 70.75
  Q 298.47 73.10 298.40 76.25
  Q 298.28 81.86 297.81 95.95
  A 1.72 1.58 59.3 0 1 297.69 96.52
  Q 297.25 97.61 297.05 99.50
  Q 296.02 109.24 296.44 115.52
  A 0.11 0.08 70.1 0 0 296.58 115.62
  Q 296.61 115.58 296.57 115.50
  Q 296.94 109.93 296.93 104.52
  A 3.50 3.27 55.2 0 1 297.07 103.55
  Q 298.26 99.66 298.34 98.72
  Q 299.04 90.13 299.16 70.52
  A 5.55 5.40 40.2 0 0 299.04 69.29
  C 297.77 63.36 298.28 57.75 298.80 51.26
  C 299.03 48.46 298.65 46.00 298.40 43.24
  C 298.31 42.31 298.86 40.78 298.68 40.34
  A 0.16 0.16 0.0 0 0 298.37 40.40
  Z
  M 346.27 41.09
  A 0.75 0.75 0.0 0 0 345.46 40.32
  Q 340.33 40.73 341.16 45.09
  A 1.40 1.39 -13.8 0 0 342.94 46.16
  L 345.67 45.33
  A 0.64 0.64 0.0 0 0 346.13 44.74
  L 346.27 41.09
  Z
  M 307.23 51.36
  A 0.85 0.85 0.0 0 0 307.84 50.62
  L 308.17 46.94
  A 0.79 0.79 0.0 0 0 307.16 46.11
  L 303.88 47.10
  A 0.59 0.58 84.8 0 0 303.47 47.60
  L 303.10 51.74
  A 0.60 0.60 0.0 0 0 303.87 52.38
  L 307.23 51.36
  Z
  M 409.5944 69.3908
  A 1.07 1.07 0.0 0 0 408.3955 68.4675
  L 404.6470 68.9543
  A 1.07 1.07 0.0 0 0 403.7237 70.1532
  L 403.7856 70.6292
  A 1.07 1.07 0.0 0 0 404.9845 71.5525
  L 408.7330 71.0657
  A 1.07 1.07 0.0 0 0 409.6563 69.8668
  L 409.5944 69.3908
  Z
  M 376.91 74.92
  Q 378.41 75.12 381.06 74.84
  Q 381.64 74.78 381.90 74.33
  Q 382.08 74.04 382.25 73.28
  A 1.05 0.93 10.5 0 0 381.36 72.14
  Q 378.14 71.65 376.50 73.97
  A 0.61 0.60 -68.5 0 0 376.91 74.92
  Z
  M 338.7015 78.5986
  A 0.68 0.68 0.0 0 0 337.9355 78.0172
  L 334.3886 78.5030
  A 0.68 0.68 0.0 0 0 333.8072 79.2690
  L 333.9185 80.0814
  A 0.68 0.68 0.0 0 0 334.6845 80.6628
  L 338.2314 80.1770
  A 0.68 0.68 0.0 0 0 338.8128 79.4110
  L 338.7015 78.5986
  Z
  M 314.3036 82.3750
  A 1.07 1.07 0.0 0 0 313.2006 81.3391
  L 309.9222 81.4421
  A 1.07 1.07 0.0 0 0 308.8863 82.5452
  L 308.8964 82.8650
  A 1.07 1.07 0.0 0 0 309.9994 83.9009
  L 313.2778 83.7979
  A 1.07 1.07 0.0 0 0 314.3137 82.6948
  L 314.3036 82.3750
  Z
  M 417.2044 103.8517
  A 0.27 0.27 0.0 0 0 416.9040 103.6161
  L 412.0593 104.2023
  A 0.27 0.27 0.0 0 0 411.8237 104.5028
  L 412.3956 109.2283
  A 0.27 0.27 0.0 0 0 412.6960 109.4639
  L 417.5407 108.8777
  A 0.27 0.27 0.0 0 0 417.7763 108.5772
  L 417.2044 103.8517
  Z
  M 374.01 113.28
  L 373.93 108.72
  A 0.28 0.28 0.0 0 0 373.64 108.44
  L 371.60 108.48
  A 2.10 1.76 -1.1 0 0 369.54 110.28
  L 369.57 111.88
  A 2.10 1.76 -1.1 0 0 371.70 113.60
  L 373.74 113.56
  A 0.28 0.28 0.0 0 0 374.01 113.28
  Z
  M 344.9258 112.0488
  A 0.27 0.27 0.0 0 0 344.6703 111.7650
  L 340.7956 111.5619
  A 0.27 0.27 0.0 0 0 340.5118 111.8174
  L 340.2742 116.3512
  A 0.27 0.27 0.0 0 0 340.5297 116.6350
  L 344.4044 116.8381
  A 0.27 0.27 0.0 0 0 344.6882 116.5826
  L 344.9258 112.0488
  Z
  M 305.8525 116.8995
  A 1.01 1.01 0.0 0 0 304.8372 115.8948
  L 302.8372 115.9053
  A 1.01 1.01 0.0 0 0 301.8325 116.9205
  L 301.8475 119.7805
  A 1.01 1.01 0.0 0 0 302.8628 120.7852
  L 304.8628 120.7747
  A 1.01 1.01 0.0 0 0 305.8675 119.7595
  L 305.8525 116.8995
  Z"
/>
<path fill="#2e2b00" d="
  M 495.70 22.36
  Q 495.64 22.42 495.62 22.44
  A 0.25 0.01 -39.5 0 1 495.43 22.58
  Q 495.18 22.62 490.45 22.96
  A 0.84 0.84 0.0 0 1 489.56 22.01
  C 489.82 20.00 489.82 18.24 490.46 17.55
  C 491.10 16.85 492.85 16.71 494.84 16.28
  A 0.84 0.84 0.0 0 1 495.85 17.08
  Q 495.91 21.83 495.89 22.08
  A 0.25 0.01 -55.3 0 1 495.77 22.28
  Q 495.75 22.30 495.70 22.36
  Z"
/>
<path fill="#2e2b00" d="
  M 443.04 24.72
  A 0.24 0.24 0.0 0 1 443.26 24.46
  L 446.22 24.24
  A 2.67 1.71 -4.3 0 1 449.01 25.74
  L 449.19 28.20
  A 2.67 1.71 -4.3 0 1 446.66 30.10
  L 443.70 30.32
  A 0.24 0.24 0.0 0 1 443.44 30.10
  L 443.04 24.72
  Z"
/>
<path fill="#2e2b00" d="
  M 364.83 25.24
  Q 364.78 29.44 364.85 33.57
  Q 364.93 38.06 364.73 41.91
  Q 364.28 50.42 364.77 56.77
  Q 365.01 59.90 366.78 60.68
  A 0.32 0.32 0.0 0 1 366.80 61.25
  Q 365.93 61.71 365.87 61.78
  Q 365.63 62.05 365.68 62.74
  C 365.78 64.36 366.13 66.20 366.10 68.10
  Q 366.06 72.01 365.60 90.14
  A 4.81 4.68 57.8 0 1 365.23 91.88
  Q 363.64 95.62 364.49 98.87
  A 1.79 1.74 49.1 0 1 364.43 99.94
  Q 363.97 101.11 363.97 102.75
  Q 363.98 113.10 363.67 120.04
  A 0.25 0.25 0.0 0 1 363.40 120.28
  L 363.39 120.28
  A 0.06 0.05 -85.3 0 1 363.34 120.21
  Q 363.71 116.36 363.15 112.89
  A 5.09 4.81 -50.5 0 1 363.09 112.00
  Q 363.39 101.79 363.37 101.01
  Q 363.36 100.46 362.77 100.12
  A 0.46 0.46 0.0 0 1 362.71 99.29
  L 363.15 99.04
  A 0.59 0.59 0.0 0 0 363.44 98.47
  Q 363.01 94.35 363.98 90.36
  Q 364.75 87.22 364.77 83.06
  Q 364.82 73.86 364.85 64.25
  Q 364.85 62.66 363.81 61.80
  A 1.01 1.00 -71.1 0 1 363.43 61.01
  Q 363.60 41.58 363.86 26.13
  Q 363.86 25.68 363.02 25.45
  L 364.83 25.24
  Z"
/>
<path fill="#2e2b00" d="
  M 361.69 25.56
  Q 359.30 27.70 359.22 30.51
  Q 359.06 35.78 359.05 73.14
  A 2.96 2.61 41.3 0 0 359.14 73.84
  L 359.61 75.63
  A 1.95 1.91 -42.7 0 1 359.55 76.78
  Q 358.78 78.77 358.74 83.25
  Q 358.53 104.92 358.13 121.75
  Q 358.07 124.26 358.77 126.98
  A 0.85 0.85 0.0 0 1 358.02 128.04
  L 355.53 128.27
  A 0.34 0.33 -83.7 0 1 355.18 127.83
  Q 356.43 124.01 356.13 120.25
  Q 356.01 118.76 356.14 99.23
  Q 356.19 92.76 356.55 62.01
  Q 356.75 45.06 356.51 28.05
  Q 358.77 26.18 361.69 25.56
  Z"
/>
<path fill="#2e2b00" d="
  M 395.70 64.75
  Q 395.68 63.72 395.70 62.69
  Q 395.98 46.13 395.51 29.59
  A 0.22 0.21 -90.0 0 1 395.72 29.37
  L 395.73 29.37
  A 0.22 0.22 0.0 0 1 395.96 29.58
  Q 396.09 32.35 396.14 36.17
  Q 396.14 36.19 396.24 51.44
  Q 396.30 60.68 396.38 64.94
  Q 396.40 65.98 396.38 67.00
  Q 396.10 83.56 396.57 100.10
  A 0.22 0.21 -90.0 0 1 396.36 100.32
  L 396.35 100.32
  A 0.22 0.22 0.0 0 1 396.12 100.11
  Q 395.99 97.34 395.94 93.52
  Q 395.94 93.50 395.84 78.25
  Q 395.78 69.01 395.70 64.75
  Z"
/>
<path fill="#2e2b00" d="
  M 412.00 29.72
  A 0.31 0.31 0.0 0 1 412.32 29.43
  L 415.66 29.58
  A 1.53 1.31 2.7 0 1 417.12 30.96
  L 416.99 33.80
  A 1.53 1.31 2.7 0 1 415.40 35.04
  L 412.06 34.88
  A 0.31 0.31 0.0 0 1 411.77 34.56
  L 412.00 29.72
  Z"
/>
<path fill="#2e2b00" d="
  M 216.48 53.06
  Q 216.30 55.79 217.90 57.87
  A 1.30 1.30 0.0 0 0 218.80 58.38
  Q 221.00 58.62 222.37 58.10
  A 0.38 0.38 0.0 0 1 222.88 58.55
  L 222.71 59.22
  A 0.63 0.63 0.0 0 0 222.92 59.85
  Q 223.81 60.55 224.91 60.30
  L 226.33 58.80
  A 0.57 0.57 0.0 0 1 227.31 59.16
  Q 227.38 60.51 227.17 61.11
  A 0.62 0.61 -69.3 0 0 227.51 61.87
  Q 229.38 62.66 230.40 61.89
  Q 233.73 59.38 234.94 54.62
  Q 234.53 52.99 235.17 52.07
  A 1.04 1.01 -70.5 0 1 236.06 51.63
  Q 236.77 51.66 237.21 51.58
  Q 237.90 51.45 238.17 50.37
  C 238.98 47.15 235.29 42.70 232.99 41.03
  C 239.13 43.89 238.29 48.99 239.53 54.06
  A 2.45 2.41 20.9 0 0 239.91 54.89
  Q 241.69 57.44 244.04 58.44
  A 0.79 0.79 0.0 0 1 244.53 59.24
  L 244.20 62.80
  A 1.01 0.93 35.2 0 0 244.31 63.32
  Q 248.37 70.45 247.13 78.99
  Q 246.88 80.68 248.47 80.77
  L 240.22 90.20
  A 1.38 1.29 69.7 0 0 239.90 90.96
  L 239.57 94.58
  A 1.27 1.26 27.2 0 0 239.88 95.53
  Q 241.22 97.06 241.44 99.77
  Q 241.67 102.57 242.38 104.14
  Q 242.42 104.22 245.16 112.80
  Q 245.73 114.57 246.28 117.77
  Q 246.86 121.12 247.52 122.75
  Q 249.86 128.57 250.03 130.50
  Q 250.21 132.55 250.51 133.66
  A 1.17 1.17 0.0 0 0 251.97 134.47
  L 252.41 134.33
  A 1.00 0.99 -17.8 0 0 253.07 133.06
  Q 252.51 131.43 252.56 129.69
  L 256.55 136.57
  A 1.28 1.23 30.9 0 1 256.70 137.12
  L 256.76 140.92
  A 1.37 1.33 -64.6 0 0 257.02 141.69
  Q 259.75 145.32 262.36 146.17
  C 264.71 146.93 267.13 147.85 269.67 148.34
  Q 275.52 149.47 281.86 151.69
  C 283.77 152.36 287.51 155.82 289.12 152.90
  A 0.83 0.82 36.5 0 1 290.42 152.71
  C 293.98 156.22 298.17 157.16 302.78 158.77
  Q 298.47 158.15 294.34 156.88
  C 291.89 156.14 291.72 154.21 288.29 154.56
  Q 284.34 154.96 280.89 151.94
  A 2.00 1.97 -16.6 0 0 280.06 151.50
  L 259.71 146.41
  A 1.09 1.08 -76.2 0 0 258.40 147.21
  Q 257.84 149.46 255.63 150.40
  Q 255.38 148.71 256.26 145.81
  A 0.38 0.38 0.0 0 0 255.90 145.32
  Q 252.76 145.23 252.20 147.97
  Q 251.42 151.74 253.67 153.59
  Q 253.32 155.08 249.88 154.64
  A 0.67 0.66 1.6 0 1 249.30 154.03
  Q 249.24 153.31 249.72 152.53
  L 250.94 149.38
  A 2.37 2.35 57.7 0 0 251.11 148.61
  Q 251.24 146.33 252.74 144.03
  A 0.72 0.71 54.1 0 0 252.83 143.42
  L 252.03 140.75
  A 0.56 0.56 0.0 0 1 252.96 140.19
  L 254.34 141.58
  A 0.86 0.86 0.0 0 0 255.80 141.11
  Q 256.47 137.12 253.13 136.03
  A 1.77 1.73 -76.1 0 0 250.88 137.42
  Q 250.63 138.85 248.97 139.18
  A 2.27 2.26 85.7 0 0 247.16 141.29
  Q 247.10 142.61 246.56 143.82
  L 190.95 131.52
  Q 189.14 130.65 186.29 131.16
  A 1.30 1.30 0.0 0 1 184.76 129.83
  Q 184.85 127.47 187.42 125.00
  A 0.80 0.80 0.0 0 0 186.79 123.63
  C 184.66 123.85 183.65 123.70 182.83 125.70
  A 0.98 0.83 -41.3 0 1 181.08 125.73
  Q 181.04 125.40 180.37 125.29
  A 0.42 0.41 11.7 0 0 179.89 125.60
  L 179.11 128.69
  A 1.21 1.21 0.0 0 1 177.07 129.25
  L 176.17 128.36
  A 1.59 1.59 0.0 0 1 175.76 126.87
  Q 176.06 125.63 177.01 124.25
  A 0.88 0.87 -70.1 0 0 176.37 122.88
  Q 175.00 122.77 174.63 124.34
  Q 174.30 125.74 174.25 127.58
  A 0.61 0.60 88.4 0 1 173.71 128.16
  L 170.55 128.45
  A 0.27 0.26 2.9 0 0 170.32 128.65
  Q 170.20 129.14 170.98 129.49
  L 162.10 127.59
  Q 161.47 127.01 160.65 126.88
  A 0.71 0.71 0.0 0 1 160.06 126.29
  Q 159.91 125.30 158.91 124.89
  A 1.51 1.48 41.1 0 1 158.70 122.21
  Q 160.22 121.35 160.84 119.56
  A 0.53 0.53 0.0 0 0 160.40 118.86
  Q 157.18 118.50 156.45 120.65
  C 155.57 123.25 154.55 124.14 151.92 124.43
  Q 148.14 124.84 144.79 122.38
  A 0.89 0.87 21.6 0 1 144.44 121.59
  Q 144.97 115.41 147.17 110.33
  A 2.24 2.21 -50.2 0 0 146.99 108.22
  L 146.91 108.11
  A 0.69 0.69 0.0 0 0 145.71 108.20
  Q 143.42 113.11 143.00 118.75
  A 2.04 2.03 -8.7 0 1 141.72 120.48
  L 141.60 120.53
  A 0.72 0.71 -8.8 0 1 140.61 119.81
  L 142.20 102.33
  A 0.69 0.69 0.0 0 0 141.27 101.62
  L 140.80 101.81
  A 1.41 1.41 0.0 0 0 139.92 102.99
  L 138.25 121.32
  A 0.54 0.53 -77.2 0 1 137.54 121.77
  Q 136.03 121.21 134.13 121.41
  A 1.39 1.37 -28.2 0 1 133.15 121.12
  Q 131.96 120.17 130.89 120.90
  A 1.14 1.11 -63.1 0 1 130.27 121.11
  L 125.64 121.27
  L 102.95 116.64
  L 101.32 115.87
  A 0.52 0.52 0.0 0 1 101.14 115.06
  Q 101.43 114.72 101.22 114.37
  A 0.40 0.40 0.0 0 1 101.54 113.77
  L 103.06 113.69
  L 125.36 119.14
  A 0.66 0.65 -83.4 0 0 126.16 118.50
  L 126.11 112.55
  A 3.49 3.35 52.0 0 1 126.18 111.86
  Q 127.03 107.73 127.15 103.52
  Q 127.17 102.59 128.27 99.93
  A 0.12 0.11 59.6 0 1 128.49 99.99
  L 126.93 117.01
  A 2.68 2.68 0.0 0 0 128.77 119.80
  L 129.03 119.88
  A 1.74 1.74 0.0 0 0 131.43 118.31
  L 131.73 106.23
  A 1.22 0.09 -85.6 0 1 131.75 106.10
  Q 132.86 99.60 132.55 93.73
  A 3.24 3.23 -70.2 0 0 131.52 91.53
  L 126.53 86.86
  Q 125.93 85.76 125.18 85.73
  Q 122.86 83.72 124.52 80.84
  Q 125.68 80.19 126.55 79.15
  C 128.25 77.12 129.80 75.18 129.23 72.27
  A 1.22 1.21 -18.2 0 0 127.52 71.41
  Q 126.32 71.97 123.47 73.55
  Q 122.64 74.02 122.05 75.51
  Q 118.79 74.27 120.86 68.95
  A 1.58 1.58 0.0 0 0 119.80 66.85
  L 117.43 66.22
  Q 119.53 65.58 120.98 64.31
  A 1.04 1.04 0.0 0 0 121.24 63.10
  L 117.93 55.79
  L 121.80 55.82
  A 2.56 2.54 34.6 0 0 122.69 55.66
  Q 125.93 54.48 126.95 54.47
  Q 131.55 54.39 133.91 54.06
  C 137.17 53.60 140.29 54.25 142.66 54.63
  A 6.38 6.21 45.8 0 0 144.16 54.67
  L 150.37 54.03
  Q 153.85 54.02 156.78 53.02
  Q 161.67 53.34 163.50 53.34
  C 168.23 53.34 166.63 50.03 169.22 48.41
  Q 171.73 46.83 172.58 46.79
  Q 178.99 46.49 182.17 44.26
  A 2.94 2.93 -20.2 0 0 183.41 41.58
  L 183.36 40.96
  A 0.80 0.80 0.0 0 0 182.08 40.41
  Q 179.89 42.08 178.55 43.03
  C 176.63 44.39 175.06 44.69 173.38 42.76
  A 1.02 1.02 0.0 0 0 171.71 42.94
  Q 169.66 46.70 165.97 45.55
  A 1.39 1.38 12.0 0 1 165.00 44.06
  Q 165.25 41.98 164.48 39.44
  C 167.86 40.40 171.48 41.21 174.86 40.02
  Q 177.75 38.99 181.43 39.51
  A 1.04 1.02 -71.7 0 0 182.46 38.98
  C 183.42 37.21 182.48 33.46 186.24 34.51
  C 190.08 35.58 188.52 38.56 189.56 41.21
  A 0.91 0.91 0.0 0 0 191.06 41.52
  L 197.54 35.05
  A 2.24 2.24 0.0 0 1 201.27 35.99
  L 201.64 37.22
  A 3.53 3.51 -31.2 0 1 200.78 40.70
  Q 197.69 43.88 197.03 45.30
  C 194.25 51.33 210.12 55.88 213.32 56.90
  A 1.86 1.86 0.0 0 0 215.66 55.69
  L 216.48 53.06
  Z
  M 199.5086 36.3845
  A 1.44 1.44 0.0 0 0 197.4724 36.3525
  L 188.5677 44.9818
  A 1.44 1.44 0.0 0 0 188.5357 47.0180
  L 188.5914 47.0755
  A 1.44 1.44 0.0 0 0 190.6276 47.1075
  L 199.5323 38.4782
  A 1.44 1.44 0.0 0 0 199.5643 36.4420
  L 199.5086 36.3845
  Z
  M 173.6772 51.0050
  A 2.04 1.38 -154.6 0 0 174.9281 53.1266
  A 2.04 1.38 -154.6 0 0 177.3628 52.7550
  A 2.04 1.38 -154.6 0 0 176.1119 50.6334
  A 2.04 1.38 -154.6 0 0 173.6772 51.0050
  Z
  M 185.78 54.26
  Q 186.89 55.09 188.61 55.16
  A 2.09 2.01 -24.5 0 1 189.80 55.58
  Q 191.54 56.89 193.50 57.33
  C 197.12 58.15 199.13 59.98 201.18 62.59
  C 202.57 64.36 204.67 65.74 205.74 66.96
  A 4.12 4.07 11.9 0 1 206.38 67.93
  L 207.98 71.21
  A 1.20 1.20 0.0 0 0 209.76 71.66
  Q 211.61 70.33 212.75 68.50
  A 0.60 0.60 0.0 0 0 212.09 67.61
  Q 209.74 68.24 207.78 67.18
  A 1.53 1.32 -4.1 0 1 207.46 66.94
  L 203.62 62.79
  Q 203.61 62.78 203.60 62.77
  Q 200.46 57.51 195.20 56.74
  A 4.57 4.38 59.2 0 1 194.15 56.45
  Q 188.47 54.04 186.81 53.21
  Q 186.37 52.99 186.08 53.03
  A 0.69 0.68 58.9 0 0 185.78 54.26
  Z
  M 232.68 70.98
  Q 231.13 71.62 230.31 69.92
  A 1.55 1.46 3.0 0 0 229.71 69.29
  Q 227.87 68.23 226.48 70.18
  A 0.90 0.90 0.0 0 0 227.22 71.60
  Q 230.36 71.55 232.69 73.16
  Q 233.09 78.62 231.94 84.06
  A 2.26 2.20 44.2 0 0 231.97 85.14
  Q 232.89 88.50 235.93 90.89
  A 0.48 0.47 12.4 0 0 236.69 90.41
  Q 236.29 88.75 235.63 87.86
  A 2.47 2.46 52.1 0 1 236.05 84.47
  C 237.82 83.04 240.36 81.51 240.27 79.22
  Q 240.29 77.98 240.96 77.56
  A 0.60 0.59 -45.5 0 1 241.56 77.55
  L 244.80 79.42
  A 1.07 1.06 -48.1 0 0 245.98 79.35
  L 246.20 79.19
  A 0.84 0.83 41.4 0 0 246.11 77.80
  L 241.72 75.26
  A 1.36 1.34 6.2 0 1 241.11 74.51
  Q 240.73 73.37 240.89 72.04
  Q 241.29 70.50 240.86 69.55
  A 0.66 0.66 0.0 0 0 240.03 69.20
  Q 238.29 69.80 236.99 70.96
  A 1.17 1.14 -25.5 0 0 236.61 71.99
  Q 236.66 72.33 236.66 72.37
  A 0.37 0.37 0.0 0 1 235.93 72.38
  Q 235.84 71.78 235.87 69.77
  A 0.83 0.83 0.0 0 1 236.46 69.00
  L 240.12 67.90
  A 0.92 0.92 0.0 0 0 240.50 66.37
  L 238.84 64.71
  A 1.30 1.29 -64.3 0 1 238.47 63.65
  Q 239.01 59.44 237.95 54.75
  A 0.53 0.53 0.0 0 0 237.02 54.54
  Q 236.81 54.81 236.64 55.04
  Q 236.45 55.30 236.44 55.66
  Q 236.38 56.95 235.07 57.91
  A 1.73 1.70 -8.0 0 0 234.48 58.68
  Q 233.72 60.75 231.84 62.25
  A 0.97 0.96 -28.0 0 0 231.52 63.28
  Q 232.41 66.29 233.31 69.14
  Q 233.61 70.08 232.68 70.98
  Z
  M 131.4309 58.1172
  A 1.33 0.89 -148.1 0 0 132.0897 59.5756
  A 1.33 0.89 -148.1 0 0 133.6891 59.5228
  A 1.33 0.89 -148.1 0 0 133.0303 58.0644
  A 1.33 0.89 -148.1 0 0 131.4309 58.1172
  Z
  M 243.99 60.88
  A 2.00 2.00 0.0 0 0 241.99 58.88
  A 2.00 2.00 0.0 0 0 239.99 60.88
  A 2.00 2.00 0.0 0 0 241.99 62.88
  A 2.00 2.00 0.0 0 0 243.99 60.88
  Z
  M 197.21 65.71
  C 201.60 62.44 193.67 59.67 193.43 63.60
  Q 193.19 67.50 195.97 68.74
  A 0.58 0.58 0.0 0 0 196.78 68.23
  L 196.84 66.42
  A 0.95 0.95 0.0 0 1 197.21 65.71
  Z
  M 172.1130 62.6504
  A 1.26 0.99 -88.5 0 0 171.0903 63.8841
  A 1.26 0.99 -88.5 0 0 172.0470 65.1696
  A 1.26 0.99 -88.5 0 0 173.0697 63.9359
  A 1.26 0.99 -88.5 0 0 172.1130 62.6504
  Z
  M 157.89 71.47
  Q 158.58 70.93 158.84 68.79
  A 0.67 0.66 -80.4 0 0 158.33 68.06
  Q 155.43 67.38 154.69 69.32
  Q 153.48 72.52 156.00 74.91
  A 0.60 0.60 0.0 0 0 156.99 74.62
  L 157.71 71.76
  A 0.57 0.52 -15.8 0 1 157.89 71.47
  Z
  M 168.1966 76.2270
  A 1.43 1.05 -33.2 0 0 166.4251 76.1314
  A 1.43 1.05 -33.2 0 0 165.8034 77.7930
  A 1.43 1.05 -33.2 0 0 167.5749 77.8886
  A 1.43 1.05 -33.2 0 0 168.1966 76.2270
  Z
  M 194.34 83.13
  C 194.67 81.33 192.66 80.08 191.19 80.95
  C 189.03 82.24 189.40 85.88 190.66 87.65
  A 1.19 1.18 -48.5 0 0 192.67 87.52
  Q 193.98 85.11 194.34 83.13
  Z
  M 154.49 84.04
  C 152.53 87.13 150.15 88.96 152.79 93.09
  A 1.69 1.69 0.0 0 0 155.68 93.03
  L 157.30 90.22
  A 0.85 0.79 -34.8 0 0 157.40 89.76
  L 156.92 84.62
  A 1.32 1.32 0.0 0 0 154.49 84.04
  Z
  M 221.3061 84.8647
  A 2.07 1.34 -147.4 0 0 222.3280 87.1089
  A 2.07 1.34 -147.4 0 0 224.7939 87.0953
  A 2.07 1.34 -147.4 0 0 223.7720 84.8511
  A 2.07 1.34 -147.4 0 0 221.3061 84.8647
  Z
  M 238.31 100.32
  L 238.23 99.66
  A 2.11 2.08 -82.1 0 0 236.96 97.96
  L 228.23 94.30
  A 1.64 1.42 72.3 0 1 227.82 94.05
  L 225.20 91.83
  A 1.58 1.34 -9.9 0 0 224.79 91.59
  L 218.31 89.33
  A 1.81 1.80 76.2 0 1 217.64 88.92
  C 217.01 88.31 216.80 87.34 215.77 87.34
  Q 215.09 87.34 214.30 88.77
  A 1.15 1.14 -68.4 0 0 215.02 90.44
  L 217.26 91.00
  A 2.26 2.15 68.3 0 1 218.02 91.35
  Q 220.22 92.89 223.08 93.77
  A 1.16 0.97 64.0 0 1 223.35 93.89
  L 227.25 96.45
  A 2.24 2.23 -18.7 0 0 227.74 96.69
  Q 234.87 99.14 237.28 100.87
  A 0.65 0.65 0.0 0 0 238.31 100.32
  Z
  M 182.5391 95.4987
  A 1.47 0.90 -2.0 0 0 181.0386 94.6505
  A 1.47 0.90 -2.0 0 0 179.6009 95.6013
  A 1.47 0.90 -2.0 0 0 181.1014 96.4495
  A 1.47 0.90 -2.0 0 0 182.5391 95.4987
  Z
  M 223.09 95.56
  L 220.07 95.19
  A 0.87 0.87 0.0 0 0 219.10 95.95
  L 219.07 96.18
  A 5.76 2.35 -83.0 0 0 220.70 102.18
  L 220.78 102.19
  A 5.76 2.35 -83.0 0 0 223.82 96.76
  L 223.84 96.53
  A 0.87 0.87 0.0 0 0 223.09 95.56
  Z
  M 208.61 105.27
  Q 209.20 105.36 209.51 103.97
  Q 210.09 101.37 210.58 98.76
  Q 210.81 97.57 209.76 97.42
  Q 208.72 97.27 208.59 98.47
  Q 208.31 101.11 208.11 103.76
  Q 208.01 105.18 208.61 105.27
  Z
  M 188.74 106.01
  L 191.50 99.70
  A 0.44 0.44 0.0 0 0 191.27 99.13
  L 191.14 99.07
  A 3.75 3.70 -66.4 0 0 186.25 101.02
  L 186.15 101.26
  A 3.75 3.70 -66.4 0 0 188.04 106.18
  L 188.16 106.24
  A 0.44 0.44 0.0 0 0 188.74 106.01
  Z
  M 153.10 104.33
  Q 150.65 104.42 150.22 104.69
  A 2.48 2.48 0.0 0 0 149.12 107.11
  L 149.39 109.12
  A 1.23 1.23 0.0 0 0 151.33 109.94
  L 153.40 108.42
  A 1.65 1.64 -9.8 0 0 154.02 107.55
  Q 154.38 106.33 153.97 104.95
  A 0.88 0.88 0.0 0 0 153.10 104.33
  Z
  M 233.98 115.50
  L 230.19 119.86
  A 0.97 0.94 -35.1 0 0 230.01 120.81
  Q 230.28 121.57 231.08 122.41
  A 0.83 0.81 38.4 0 1 231.20 123.39
  L 230.99 123.76
  A 0.50 0.50 0.0 0 1 230.13 123.76
  L 228.61 121.11
  A 0.93 0.93 0.0 0 0 226.87 121.66
  L 227.18 124.99
  A 0.54 0.54 0.0 0 1 226.26 125.43
  Q 224.32 123.54 225.07 121.58
  Q 225.61 120.18 224.90 119.62
  Q 223.89 118.81 221.89 119.17
  A 1.60 1.60 0.0 0 0 220.79 121.54
  L 225.39 129.57
  A 0.82 0.81 -32.9 0 1 225.16 130.63
  L 225.11 130.67
  A 0.65 0.65 0.0 0 1 224.12 130.38
  Q 222.74 126.96 221.24 124.43
  A 1.70 1.36 53.9 0 0 218.92 123.80
  Q 218.40 124.30 217.04 124.09
  A 0.71 0.70 -55.4 0 0 216.57 124.18
  L 215.09 125.03
  A 0.48 0.48 0.0 0 1 214.38 124.56
  Q 214.46 123.84 214.90 123.14
  A 0.73 0.72 24.4 0 1 215.71 122.84
  Q 216.18 122.98 216.59 123.35
  A 0.87 0.84 53.2 0 0 217.53 123.50
  Q 218.49 123.06 218.89 121.46
  A 0.99 0.99 0.0 0 0 217.88 120.23
  L 212.74 120.46
  L 208.72 121.24
  Q 205.68 124.65 207.03 129.40
  A 1.38 1.34 -42.3 0 1 206.97 130.33
  L 206.24 132.08
  A 0.73 0.73 0.0 0 0 206.68 133.05
  Q 213.51 135.36 220.66 133.76
  L 222.47 133.56
  Q 226.51 133.75 229.75 133.04
  A 0.76 0.54 28.4 0 1 229.92 133.02
  L 233.78 132.96
  A 2.04 1.86 -52.5 0 0 234.45 132.84
  Q 235.73 132.40 235.26 130.59
  A 0.22 0.22 0.0 0 1 235.36 130.36
  Q 235.54 130.26 235.83 130.33
  A 0.47 0.47 0.0 0 1 236.13 130.59
  Q 237.01 132.62 240.10 132.13
  A 0.62 0.61 -17.2 0 0 240.56 131.26
  L 239.36 128.73
  L 239.40 123.15
  A 0.74 0.74 0.0 0 0 238.86 122.44
  Q 237.95 122.20 237.69 121.59
  A 0.77 0.76 -10.4 0 1 238.43 120.53
  Q 240.43 120.62 240.62 119.78
  Q 241.42 116.25 241.01 112.83
  C 240.75 110.64 241.12 109.41 241.14 107.51
  Q 241.16 105.78 240.97 105.41
  A 1.12 1.12 0.0 0 0 239.01 105.35
  L 235.53 111.18
  A 5.70 5.46 -22.0 0 0 234.98 112.40
  L 233.98 115.50
  Z
  M 157.20 118.09
  A 1.21 1.21 0.0 0 0 158.06 116.97
  L 158.18 113.66
  A 1.57 1.54 55.7 0 1 158.25 113.27
  Q 159.05 111.04 159.13 108.40
  A 1.11 1.09 75.7 0 1 159.68 107.46
  L 160.37 107.06
  A 0.81 0.80 -57.5 0 0 160.04 105.56
  Q 158.34 105.41 157.95 106.70
  Q 156.43 111.67 156.03 117.43
  A 0.73 0.72 85.0 0 0 156.92 118.18
  L 157.20 118.09
  Z
  M 215.54 110.12
  L 216.81 112.13
  A 0.27 0.27 0.0 0 0 217.19 112.21
  L 217.33 112.12
  A 1.74 1.34 -32.3 0 0 218.09 110.06
  L 217.96 109.86
  A 1.74 1.34 -32.3 0 0 215.77 109.65
  L 215.63 109.74
  A 0.27 0.27 0.0 0 0 215.54 110.12
  Z
  M 226.2960 115.2540
  A 1.40 1.20 -122.1 0 0 226.0235 117.0777
  A 1.40 1.20 -122.1 0 0 227.7840 117.6260
  A 1.40 1.20 -122.1 0 0 228.0565 115.8023
  A 1.40 1.20 -122.1 0 0 226.2960 115.2540
  Z
  M 164.0865 115.6009
  A 3.10 0.82 -116.3 0 0 164.7249 118.7433
  A 3.10 0.82 -116.3 0 0 166.8335 121.1591
  A 3.10 0.82 -116.3 0 0 166.1951 118.0167
  A 3.10 0.82 -116.3 0 0 164.0865 115.6009
  Z
  M 171.18 120.70
  L 168.08 122.07
  A 0.68 0.68 0.0 0 0 167.73 122.97
  L 167.77 123.06
  A 2.58 2.27 66.1 0 0 170.89 124.50
  L 171.09 124.41
  A 2.58 2.27 66.1 0 0 172.12 121.13
  L 172.08 121.04
  A 0.68 0.68 0.0 0 0 171.18 120.70
  Z
  M 191.93 127.64
  Q 193.03 126.18 195.84 124.88
  Q 196.77 124.45 197.57 124.81
  A 0.44 0.43 -55.9 0 1 197.70 125.51
  Q 195.10 128.18 193.18 128.64
  A 0.71 0.71 0.0 0 0 193.17 130.02
  L 204.51 132.86
  A 0.68 0.67 10.8 0 0 205.34 132.30
  Q 205.82 128.80 204.80 126.63
  A 2.10 2.10 0.0 0 1 204.60 125.83
  Q 204.53 124.18 205.24 122.45
  A 0.87 0.86 88.2 0 0 204.06 121.34
  Q 202.27 122.23 201.26 122.19
  Q 196.30 121.99 190.80 123.70
  A 1.33 1.30 -85.6 0 0 189.99 124.41
  Q 188.87 126.83 187.25 127.98
  A 0.66 0.66 0.0 0 0 187.50 129.16
  Q 189.87 129.67 191.81 129.04
  A 0.23 0.22 -27.2 0 0 191.93 128.69
  Q 191.90 128.64 191.87 128.60
  A 0.87 0.87 0.0 0 1 191.93 127.64
  Z
  M 244.28 126.30
  A 2.03 2.03 0.0 0 0 242.25 124.27
  A 2.03 2.03 0.0 0 0 240.22 126.30
  A 2.03 2.03 0.0 0 0 242.25 128.33
  A 2.03 2.03 0.0 0 0 244.28 126.30
  Z"
/>
<path fill="#2e2b00" d="
  M 307.25 34.53
  L 296.91 36.78
  A 1.95 1.95 0.0 0 0 295.67 37.64
  Q 294.24 39.83 294.12 42.36
  Q 293.64 52.51 292.81 78.99
  Q 292.72 82.03 293.12 84.04
  C 293.47 85.80 292.57 88.29 292.69 90.66
  C 292.96 96.01 292.07 100.81 291.95 106.44
  Q 291.62 120.99 291.28 129.25
  Q 291.22 130.65 291.72 133.14
  A 1.39 1.39 0.0 0 0 293.15 134.25
  L 298.53 134.00
  L 289.85 134.72
  Q 287.02 133.09 284.46 131.54
  Q 281.42 129.69 281.79 126.46
  Q 282.05 124.13 282.05 124.02
  Q 282.57 101.33 283.99 48.06
  A 5.09 5.04 68.0 0 1 285.39 44.71
  L 293.17 36.56
  L 307.25 34.53
  Z"
/>
<rect fill="#a98912" x="-7.64" y="-1.48" transform="translate(194.05,41.73) rotate(-44.1)" width="15.28" height="2.96" rx="1.44"/>
<path fill="#2e2b00" d="
  M 370.09 36.15
  A 0.30 0.30 0.0 0 1 370.41 35.88
  L 373.62 36.14
  A 1.36 1.09 4.6 0 1 374.89 37.33
  L 374.63 40.56
  A 1.36 1.09 4.6 0 1 373.19 41.54
  L 369.98 41.28
  A 0.30 0.30 0.0 0 1 369.70 40.96
  L 370.09 36.15
  Z"
/>
<path fill="#a98912" d="
  M 293.17 36.56
  L 285.39 44.71
  A 5.09 5.04 68.0 0 0 283.99 48.06
  Q 282.57 101.33 282.05 124.02
  Q 282.05 124.13 281.79 126.46
  Q 281.42 129.69 284.46 131.54
  Q 287.02 133.09 289.85 134.72
  Q 284.81 135.68 281.36 132.89
  Q 277.81 130.02 272.03 124.53
  Q 270.34 122.35 268.24 120.57
  Q 267.42 119.88 265.24 117.46
  Q 263.56 115.59 261.15 114.97
  L 247.81 102.65
  Q 247.22 101.86 246.34 101.38
  A 1.38 1.27 84.3 0 1 245.96 101.04
  Q 245.15 100.00 245.13 99.09
  A 1.00 1.00 0.0 0 1 246.84 98.36
  Q 250.36 101.91 253.01 104.25
  Q 253.24 104.45 253.55 105.19
  Q 253.77 105.71 254.42 105.61
  A 1.49 1.28 -4.6 0 0 255.68 104.34
  Q 255.92 91.88 257.18 76.54
  A 0.85 0.84 -2.8 0 1 257.87 75.79
  L 257.89 75.78
  A 0.50 0.48 -2.1 0 1 258.43 76.27
  L 258.11 95.59
  A 0.88 0.86 15.9 0 0 258.55 96.36
  L 260.15 97.29
  A 1.09 1.08 6.0 0 1 260.66 97.91
  Q 261.37 100.14 259.12 100.93
  A 0.90 0.88 -4.4 0 0 258.55 101.58
  C 257.98 104.33 256.88 108.06 259.52 109.91
  C 260.97 110.93 262.28 111.85 263.24 112.97
  C 264.86 114.86 266.86 115.93 268.66 117.62
  Q 272.26 121.00 278.50 125.94
  A 0.44 0.44 0.0 0 0 279.21 125.61
  L 282.01 49.63
  A 0.47 0.47 0.0 0 0 281.21 49.28
  Q 273.66 56.76 266.63 63.88
  Q 264.34 66.20 263.02 68.83
  A 1.70 1.60 -89.1 0 1 262.33 69.54
  Q 259.85 70.86 258.67 73.20
  C 258.22 74.07 257.24 74.40 256.44 74.58
  A 1.70 1.68 12.8 0 0 255.49 75.17
  Q 250.93 80.65 243.03 88.94
  Q 241.32 90.73 241.17 94.21
  A 0.93 0.91 -61.1 0 0 241.33 94.79
  L 243.46 97.86
  A 1.02 0.97 -63.2 0 1 243.63 98.42
  Q 243.58 102.43 245.49 105.63
  A 2.35 2.26 29.8 0 1 245.81 106.72
  Q 245.92 109.56 247.42 111.42
  L 252.56 129.69
  Q 252.51 131.43 253.07 133.06
  A 1.00 0.99 -17.8 0 1 252.41 134.33
  L 251.97 134.47
  A 1.17 1.17 0.0 0 1 250.51 133.66
  Q 250.21 132.55 250.03 130.50
  Q 249.86 128.57 247.52 122.75
  Q 246.86 121.12 246.28 117.77
  Q 245.73 114.57 245.16 112.80
  Q 242.42 104.22 242.38 104.14
  Q 241.67 102.57 241.44 99.77
  Q 241.22 97.06 239.88 95.53
  A 1.27 1.26 27.2 0 1 239.57 94.58
  L 239.90 90.96
  A 1.38 1.29 69.7 0 1 240.22 90.20
  L 248.47 80.77
  Q 250.39 77.48 253.69 74.82
  Q 253.88 75.01 254.18 74.70
  Q 254.48 74.39 254.27 74.01
  Q 269.78 56.92 285.83 40.33
  Q 288.76 37.30 293.17 36.56
  Z"
/>
<path fill="#2e2b00" d="
  M 159.04 38.74
  Q 158.34 38.97 157.54 38.89
  L 159.04 38.74
  Z"
/>
<path fill="#a98912" d="
  M 164.48 39.44
  Q 165.25 41.98 165.00 44.06
  A 1.39 1.38 12.0 0 0 165.97 45.55
  Q 169.66 46.70 171.71 42.94
  A 1.02 1.02 0.0 0 1 173.38 42.76
  C 175.06 44.69 176.63 44.39 178.55 43.03
  Q 179.89 42.08 182.08 40.41
  A 0.80 0.80 0.0 0 1 183.36 40.96
  L 183.41 41.58
  A 2.94 2.93 -20.2 0 1 182.17 44.26
  Q 178.99 46.49 172.58 46.79
  Q 171.73 46.83 169.22 48.41
  C 166.63 50.03 168.23 53.34 163.50 53.34
  Q 161.67 53.34 156.78 53.02
  Q 157.99 52.27 159.41 52.07
  A 0.39 0.38 -2.6 0 0 159.75 51.70
  L 159.76 51.42
  A 0.62 0.62 0.0 0 0 159.13 50.77
  Q 156.84 50.80 154.19 51.96
  A 2.23 2.20 34.1 0 1 153.16 52.15
  Q 149.43 51.92 150.37 54.03
  L 144.16 54.67
  A 6.38 6.21 45.8 0 1 142.66 54.63
  C 140.29 54.25 137.17 53.60 133.91 54.06
  Q 131.55 54.39 126.95 54.47
  Q 125.93 54.48 122.69 55.66
  A 2.56 2.54 34.6 0 1 121.80 55.82
  L 117.93 55.79
  Q 116.15 53.30 115.79 49.06
  A 1.34 1.34 0.0 0 1 116.87 47.62
  Q 120.50 46.90 123.13 49.59
  A 2.80 2.79 -30.3 0 0 125.94 50.32
  L 134.32 47.79
  A 2.82 2.34 16.6 0 0 134.88 47.55
  Q 140.83 44.10 147.17 41.84
  Q 148.81 42.00 149.47 43.30
  A 1.41 1.39 32.5 0 1 149.61 43.91
  L 149.64 47.36
  A 1.53 1.53 0.0 0 0 150.99 48.86
  L 151.45 48.91
  A 0.77 0.77 0.0 0 0 152.31 48.22
  L 152.73 43.62
  A 0.77 0.76 71.3 0 1 152.99 43.09
  L 155.90 40.49
  Q 156.27 43.98 158.37 46.93
  A 1.57 1.57 0.0 0 0 159.04 47.46
  C 164.41 49.70 164.28 44.58 164.09 41.26
  A 1.18 1.18 0.0 0 0 161.82 40.77
  L 160.85 43.06
  A 0.92 0.92 0.0 0 1 159.11 42.93
  Q 158.82 41.81 158.91 40.74
  Q 158.99 39.69 158.27 39.43
  Q 157.63 39.20 156.69 39.78
  L 157.03 39.03
  Q 157.26 39.04 157.54 38.89
  Q 158.34 38.97 159.04 38.74
  L 164.48 39.44
  Z
  M 148.37 42.90
  L 147.66 42.60
  A 0.49 0.48 -50.4 0 0 147.20 42.65
  L 142.71 45.87
  A 1.11 1.07 84.2 0 0 142.34 46.34
  L 140.79 50.05
  A 1.00 1.00 0.0 0 0 142.00 51.40
  Q 145.09 50.49 146.97 50.65
  A 1.64 1.63 3.3 0 0 148.74 49.08
  L 148.94 43.79
  A 0.94 0.92 -78.3 0 0 148.37 42.90
  Z
  M 117.97 51.81
  L 117.99 54.27
  A 0.88 0.88 0.0 0 0 118.88 55.15
  L 119.62 55.14
  A 3.66 2.01 -0.5 0 0 123.26 53.10
  L 123.26 52.90
  A 3.66 2.01 -0.5 0 0 119.58 50.92
  L 118.84 50.93
  A 0.88 0.88 0.0 0 0 117.97 51.81
  Z"
/>
<path fill="#2e2b00" d="
  M 157.03 39.03
  L 156.69 39.78
  L 155.90 40.49
  L 152.99 43.09
  A 0.77 0.76 71.3 0 0 152.73 43.62
  L 152.31 48.22
  A 0.77 0.77 0.0 0 1 151.45 48.91
  L 150.99 48.86
  A 1.53 1.53 0.0 0 1 149.64 47.36
  L 149.61 43.91
  A 1.41 1.39 32.5 0 0 149.47 43.30
  Q 148.81 42.00 147.17 41.84
  L 152.65 40.75
  A 6.05 5.77 26.3 0 0 153.77 40.40
  L 157.03 39.03
  Z"
/>
<path fill="#f0d20e" d="
  M 155.90 40.49
  L 156.69 39.78
  Q 157.63 39.20 158.27 39.43
  Q 158.99 39.69 158.91 40.74
  Q 158.82 41.81 159.11 42.93
  A 0.92 0.92 0.0 0 0 160.85 43.06
  L 161.82 40.77
  A 1.18 1.18 0.0 0 1 164.09 41.26
  C 164.28 44.58 164.41 49.70 159.04 47.46
  A 1.57 1.57 0.0 0 1 158.37 46.93
  Q 156.27 43.98 155.90 40.49
  Z"
/>
<path fill="#2e2b00" d="
  M 231.54 40.27
  L 226.48 40.51
  Q 228.93 38.82 231.54 40.27
  Z"
/>
<path fill="#2e2b00" d="
  M 298.68 40.34
  C 298.86 40.78 298.31 42.31 298.40 43.24
  C 298.65 46.00 299.03 48.46 298.80 51.26
  C 298.28 57.75 297.77 63.36 299.04 69.29
  A 5.55 5.40 40.2 0 1 299.16 70.52
  Q 299.04 90.13 298.34 98.72
  Q 298.26 99.66 297.07 103.55
  A 3.50 3.27 55.2 0 0 296.93 104.52
  Q 296.94 109.93 296.57 115.50
  Q 296.61 115.58 296.58 115.62
  A 0.11 0.08 70.1 0 1 296.44 115.52
  Q 296.02 109.24 297.05 99.50
  Q 297.25 97.61 297.69 96.52
  A 1.72 1.58 59.3 0 0 297.81 95.95
  Q 298.28 81.86 298.40 76.25
  Q 298.47 73.10 297.53 70.75
  A 1.33 1.28 45.5 0 1 297.52 69.80
  Q 297.80 69.06 297.76 68.50
  Q 297.50 64.32 297.90 60.95
  Q 298.40 56.81 298.19 53.42
  Q 298.19 53.40 298.37 40.40
  A 0.16 0.16 0.0 0 1 298.68 40.34
  Z"
/>
<path fill="#2e2b00" d="
  M 510.07 39.97
  L 510.30 42.33
  Q 508.92 41.80 510.07 39.97
  Z"
/>
<path fill="#dad9d8" d="
  M 231.54 40.27
  L 232.99 41.03
  C 235.29 42.70 238.98 47.15 238.17 50.37
  Q 237.90 51.45 237.21 51.58
  Q 236.77 51.66 236.06 51.63
  A 1.04 1.01 -70.5 0 0 235.17 52.07
  Q 234.53 52.99 234.94 54.62
  Q 233.27 55.56 231.58 55.56
  A 0.58 0.48 -50.7 0 0 231.38 55.60
  L 225.82 57.76
  A 0.74 0.73 86.3 0 0 225.37 58.28
  L 224.91 60.30
  Q 223.81 60.55 222.92 59.85
  A 0.63 0.63 0.0 0 1 222.71 59.22
  L 222.88 58.55
  A 0.38 0.38 0.0 0 0 222.37 58.10
  Q 221.00 58.62 218.80 58.38
  A 1.30 1.30 0.0 0 1 217.90 57.87
  Q 216.30 55.79 216.48 53.06
  Q 217.71 45.60 223.74 41.75
  Q 224.87 41.50 225.76 40.75
  Q 226.25 40.77 226.48 40.51
  L 231.54 40.27
  Z"
/>
<path fill="#2e2b00" d="
  M 346.27 41.09
  L 346.13 44.74
  A 0.64 0.64 0.0 0 1 345.67 45.33
  L 342.94 46.16
  A 1.40 1.39 -13.8 0 1 341.16 45.09
  Q 340.33 40.73 345.46 40.32
  A 0.75 0.75 0.0 0 1 346.27 41.09
  Z"
/>
<path fill="#2e2b00" d="
  M 226.48 40.51
  Q 226.25 40.77 225.76 40.75
  Q 226.09 40.48 226.48 40.51
  Z"
/>
<path fill="#2e2b00" d="
  M 225.76 40.75
  Q 224.87 41.50 223.74 41.75
  Q 224.61 40.90 225.76 40.75
  Z"
/>
<path fill="#f0d20e" d="
  M 148.37 42.90
  A 0.94 0.92 -78.3 0 1 148.94 43.79
  L 148.74 49.08
  A 1.64 1.63 3.3 0 1 146.97 50.65
  Q 145.09 50.49 142.00 51.40
  A 1.00 1.00 0.0 0 1 140.79 50.05
  L 142.34 46.34
  A 1.11 1.07 84.2 0 1 142.71 45.87
  L 147.20 42.65
  A 0.49 0.48 -50.4 0 1 147.66 42.60
  L 148.37 42.90
  Z"
/>
<path fill="#2e2b00" d="
  M 303.10 51.74
  L 303.47 47.60
  A 0.59 0.58 84.8 0 1 303.88 47.10
  L 307.16 46.11
  A 0.79 0.79 0.0 0 1 308.17 46.94
  L 307.84 50.62
  A 0.85 0.85 0.0 0 1 307.23 51.36
  L 303.87 52.38
  A 0.60 0.60 0.0 0 1 303.10 51.74
  Z"
/>
<path fill="#2e2b00" d="
  M 247.81 102.65
  Q 246.47 102.36 246.55 103.23
  Q 246.93 107.19 247.42 111.42
  Q 245.92 109.56 245.81 106.72
  A 2.35 2.26 29.8 0 0 245.49 105.63
  Q 243.58 102.43 243.63 98.42
  A 1.02 0.97 -63.2 0 0 243.46 97.86
  L 241.33 94.79
  A 0.93 0.91 -61.1 0 1 241.17 94.21
  Q 241.32 90.73 243.03 88.94
  Q 250.93 80.65 255.49 75.17
  A 1.70 1.68 12.8 0 1 256.44 74.58
  C 257.24 74.40 258.22 74.07 258.67 73.20
  Q 259.85 70.86 262.33 69.54
  A 1.70 1.60 -89.1 0 0 263.02 68.83
  Q 264.34 66.20 266.63 63.88
  Q 273.66 56.76 281.21 49.28
  A 0.47 0.47 0.0 0 1 282.01 49.63
  L 279.21 125.61
  A 0.44 0.44 0.0 0 1 278.50 125.94
  Q 272.26 121.00 268.66 117.62
  C 266.86 115.93 264.86 114.86 263.24 112.97
  C 262.28 111.85 260.97 110.93 259.52 109.91
  C 256.88 108.06 257.98 104.33 258.55 101.58
  A 0.90 0.88 -4.4 0 1 259.12 100.93
  Q 261.37 100.14 260.66 97.91
  A 1.09 1.08 6.0 0 0 260.15 97.29
  L 258.55 96.36
  A 0.88 0.86 15.9 0 1 258.11 95.59
  L 258.43 76.27
  A 0.50 0.48 -2.1 0 0 257.89 75.78
  L 257.87 75.79
  A 0.85 0.84 -2.8 0 0 257.18 76.54
  Q 255.92 91.88 255.68 104.34
  A 1.49 1.28 -4.6 0 1 254.42 105.61
  Q 253.77 105.71 253.55 105.19
  Q 253.24 104.45 253.01 104.25
  Q 250.36 101.91 246.84 98.36
  A 1.00 1.00 0.0 0 0 245.13 99.09
  Q 245.15 100.00 245.96 101.04
  A 1.38 1.27 84.3 0 0 246.34 101.38
  Q 247.22 101.86 247.81 102.65
  Z
  M 244.4306 92.5237
  A 2.31 1.73 -120.7 0 0 244.1225 95.3932
  A 2.31 1.73 -120.7 0 0 246.7894 96.4963
  A 2.31 1.73 -120.7 0 0 247.0975 93.6268
  A 2.31 1.73 -120.7 0 0 244.4306 92.5237
  Z"
/>
<ellipse fill="#2e2b00" cx="0.00" cy="0.00" transform="translate(444.49,50.06) rotate(-6.2)" rx="2.51" ry="0.31"/>
<ellipse fill="#a98912" cx="0.00" cy="0.00" transform="translate(175.52,51.88) rotate(-154.6)" rx="2.04" ry="1.38"/>
<path fill="#f0d20e" d="
  M 117.97 51.81
  A 0.88 0.88 0.0 0 1 118.84 50.93
  L 119.58 50.92
  A 3.66 2.01 -0.5 0 1 123.26 52.90
  L 123.26 53.10
  A 3.66 2.01 -0.5 0 1 119.62 55.14
  L 118.88 55.15
  A 0.88 0.88 0.0 0 1 117.99 54.27
  L 117.97 51.81
  Z"
/>
<path fill="#f0d20e" d="
  M 156.78 53.02
  Q 153.85 54.02 150.37 54.03
  Q 149.43 51.92 153.16 52.15
  A 2.23 2.20 34.1 0 0 154.19 51.96
  Q 156.84 50.80 159.13 50.77
  A 0.62 0.62 0.0 0 1 159.76 51.42
  L 159.75 51.70
  A 0.39 0.38 -2.6 0 1 159.41 52.07
  Q 157.99 52.27 156.78 53.02
  Z"
/>
<path fill="#2e2b00" d="
  M 510.55 51.72
  L 512.00 68.76
  L 512.00 103.83
  Q 509.80 77.84 510.55 51.72
  Z"
/>
<path fill="#a98912" d="
  M 185.78 54.26
  A 0.69 0.68 58.9 0 1 186.08 53.03
  Q 186.37 52.99 186.81 53.21
  Q 188.47 54.04 194.15 56.45
  A 4.57 4.38 59.2 0 0 195.20 56.74
  Q 200.46 57.51 203.60 62.77
  Q 203.61 62.78 203.62 62.79
  L 207.46 66.94
  A 1.53 1.32 -4.1 0 0 207.78 67.18
  Q 209.74 68.24 212.09 67.61
  A 0.60 0.60 0.0 0 1 212.75 68.50
  Q 211.61 70.33 209.76 71.66
  A 1.20 1.20 0.0 0 1 207.98 71.21
  L 206.38 67.93
  A 4.12 4.07 11.9 0 0 205.74 66.96
  C 204.67 65.74 202.57 64.36 201.18 62.59
  C 199.13 59.98 197.12 58.15 193.50 57.33
  Q 191.54 56.89 189.80 55.58
  A 2.09 2.01 -24.5 0 0 188.61 55.16
  Q 186.89 55.09 185.78 54.26
  Z"
/>
<path fill="#f0d20e" d="
  M 240.89 72.04
  L 240.27 79.22
  C 240.36 81.51 237.82 83.04 236.05 84.47
  A 2.47 2.46 52.1 0 0 235.63 87.86
  Q 236.29 88.75 236.69 90.41
  A 0.48 0.47 12.4 0 1 235.93 90.89
  Q 232.89 88.50 231.97 85.14
  A 2.26 2.20 44.2 0 1 231.94 84.06
  Q 233.09 78.62 232.69 73.16
  L 232.68 70.98
  Q 233.61 70.08 233.31 69.14
  Q 232.41 66.29 231.52 63.28
  A 0.97 0.96 -28.0 0 1 231.84 62.25
  Q 233.72 60.75 234.48 58.68
  A 1.73 1.70 -8.0 0 1 235.07 57.91
  Q 236.38 56.95 236.44 55.66
  Q 236.45 55.30 236.64 55.04
  Q 236.81 54.81 237.02 54.54
  A 0.53 0.53 0.0 0 1 237.95 54.75
  Q 239.01 59.44 238.47 63.65
  A 1.30 1.29 -64.3 0 0 238.84 64.71
  L 240.50 66.37
  A 0.92 0.92 0.0 0 1 240.12 67.90
  L 236.46 69.00
  A 0.83 0.83 0.0 0 0 235.87 69.77
  Q 235.84 71.78 235.93 72.38
  A 0.37 0.37 0.0 0 0 236.66 72.37
  Q 236.66 72.33 236.61 71.99
  A 1.17 1.14 -25.5 0 1 236.99 70.96
  Q 238.29 69.80 240.03 69.20
  A 0.66 0.66 0.0 0 1 240.86 69.55
  Q 241.29 70.50 240.89 72.04
  Z"
/>
<path fill="#f0d20e" d="
  M 234.94 54.62
  Q 233.73 59.38 230.40 61.89
  Q 229.38 62.66 227.51 61.87
  A 0.62 0.61 -69.3 0 1 227.17 61.11
  Q 227.38 60.51 227.31 59.16
  A 0.57 0.57 0.0 0 0 226.33 58.80
  L 224.91 60.30
  L 225.37 58.28
  A 0.74 0.73 86.3 0 1 225.82 57.76
  L 231.38 55.60
  A 0.58 0.48 -50.7 0 1 231.58 55.56
  Q 233.27 55.56 234.94 54.62
  Z"
/>
<ellipse fill="#a98912" cx="0.00" cy="0.00" transform="translate(132.56,58.82) rotate(-148.1)" rx="1.33" ry="0.89"/>
<ellipse fill="#2e2b00" cx="0.00" cy="0.00" transform="translate(485.49,59.64) rotate(-8.5)" rx="3.49" ry="1.43"/>
<circle fill="#f0d20e" cx="241.99" cy="60.88" r="2.00"/>
<path fill="#dad9d8" d="
  M 196.84 66.42
  L 196.78 68.23
  A 0.58 0.58 0.0 0 1 195.97 68.74
  Q 193.19 67.50 193.43 63.60
  C 193.67 59.67 201.60 62.44 197.21 65.71
  A 0.95 0.95 0.0 0 0 196.84 66.42
  Z"
/>
<rect fill="#2e2b00" x="-3.13" y="-1.44" transform="translate(454.81,63.64) rotate(-8.4)" width="6.26" height="2.88" rx="1.33"/>
<ellipse fill="#a98912" cx="0.00" cy="0.00" transform="translate(172.08,63.91) rotate(-88.5)" rx="1.26" ry="0.99"/>
<path fill="#2e2b00" d="
  M 255.59 66.73
  Q 255.53 66.00 255.73 65.73
  A 0.39 0.33 63.0 0 1 256.34 65.99
  Q 256.43 66.59 256.14 66.86
  A 0.35 0.28 -26.1 0 1 255.59 66.73
  Z"
/>
<path fill="#478db8" d="
  M 117.43 66.22
  L 119.80 66.85
  A 1.58 1.58 0.0 0 1 120.86 68.95
  Q 118.79 74.27 122.05 75.51
  Q 122.56 78.40 124.52 80.84
  Q 122.86 83.72 125.18 85.73
  L 109.36 96.61
  A 0.70 0.69 58.0 0 0 109.15 97.53
  L 109.39 97.94
  A 0.72 0.71 56.8 0 0 110.43 98.16
  Q 112.30 96.80 117.58 93.85
  Q 121.42 91.70 126.53 86.86
  L 131.52 91.53
  A 3.24 3.23 -70.2 0 1 132.55 93.73
  Q 132.86 99.60 131.75 106.10
  A 1.22 0.09 -85.6 0 0 131.73 106.23
  L 131.43 118.31
  A 1.74 1.74 0.0 0 1 129.03 119.88
  L 128.77 119.80
  A 2.68 2.68 0.0 0 1 126.93 117.01
  L 128.49 99.99
  A 0.12 0.11 59.6 0 0 128.27 99.93
  Q 127.17 102.59 127.15 103.52
  Q 127.03 107.73 126.18 111.86
  A 3.49 3.35 52.0 0 0 126.11 112.55
  L 126.16 118.50
  A 0.66 0.65 -83.4 0 1 125.36 119.14
  L 103.06 113.69
  Q 94.73 112.97 86.97 114.13
  Q 88.75 96.20 90.28 78.06
  Q 90.56 74.84 91.89 71.09
  L 117.43 66.22
  Z
  M 97.11 80.19
  L 96.67 83.53
  A 0.52 0.52 0.0 0 0 97.12 84.11
  L 97.31 84.13
  A 2.21 2.13 7.5 0 0 99.78 82.31
  L 99.80 82.17
  A 2.21 2.13 7.5 0 0 97.88 79.77
  L 97.70 79.75
  A 0.52 0.52 0.0 0 0 97.11 80.19
  Z
  M 119.7333 107.6502
  A 1.86 1.24 -22.1 0 0 117.5435 107.2011
  A 1.86 1.24 -22.1 0 0 116.2867 109.0498
  A 1.86 1.24 -22.1 0 0 118.4765 109.4989
  A 1.86 1.24 -22.1 0 0 119.7333 107.6502
  Z
  M 101.75 109.41
  L 98.93 109.88
  A 0.27 0.27 0.0 0 0 98.70 110.19
  L 98.74 110.39
  A 1.77 1.55 80.6 0 0 100.55 111.88
  L 100.85 111.83
  A 1.77 1.55 80.6 0 0 102.09 109.83
  L 102.06 109.63
  A 0.27 0.27 0.0 0 0 101.75 109.41
  Z"
/>
<path fill="#dad9d8" d="
  M 157.71 71.76
  L 156.99 74.62
  A 0.60 0.60 0.0 0 1 156.00 74.91
  Q 153.48 72.52 154.69 69.32
  Q 155.43 67.38 158.33 68.06
  A 0.67 0.66 -80.4 0 1 158.84 68.79
  Q 158.58 70.93 157.89 71.47
  A 0.57 0.52 -15.8 0 0 157.71 71.76
  Z"
/>
<rect fill="#2e2b00" x="-2.96" y="-1.31" transform="translate(406.69,70.01) rotate(-7.4)" width="5.92" height="2.62" rx="1.07"/>
<path fill="#a98912" d="
  M 232.68 70.98
  L 232.69 73.16
  Q 230.36 71.55 227.22 71.60
  A 0.90 0.90 0.0 0 1 226.48 70.18
  Q 227.87 68.23 229.71 69.29
  A 1.55 1.46 3.0 0 1 230.31 69.92
  Q 231.13 71.62 232.68 70.98
  Z"
/>
<path fill="#2e2b00" d="
  M 91.89 71.09
  Q 90.56 74.84 90.28 78.06
  Q 88.75 96.20 86.97 114.13
  Q 86.49 114.96 84.88 114.60
  Q 84.20 114.44 84.41 113.54
  Q 85.68 111.33 85.81 110.27
  Q 86.86 101.36 89.10 73.99
  Q 89.26 72.15 86.22 72.19
  L 91.89 71.09
  Z"
/>
<path fill="#dad9d8" d="
  M 124.52 80.84
  Q 122.56 78.40 122.05 75.51
  Q 122.64 74.02 123.47 73.55
  Q 126.32 71.97 127.52 71.41
  A 1.22 1.21 -18.2 0 1 129.23 72.27
  C 129.80 75.18 128.25 77.12 126.55 79.15
  Q 125.68 80.19 124.52 80.84
  Z"
/>
<path fill="#a98912" d="
  M 240.89 72.04
  Q 240.73 73.37 241.11 74.51
  A 1.36 1.34 6.2 0 0 241.72 75.26
  L 246.11 77.80
  A 0.84 0.83 41.4 0 1 246.20 79.19
  L 245.98 79.35
  A 1.07 1.06 -48.1 0 1 244.80 79.42
  L 241.56 77.55
  A 0.60 0.59 -45.5 0 0 240.96 77.56
  Q 240.29 77.98 240.27 79.22
  L 240.89 72.04
  Z"
/>
<path fill="#2e2b00" d="
  M 376.91 74.92
  A 0.61 0.60 -68.5 0 1 376.50 73.97
  Q 378.14 71.65 381.36 72.14
  A 1.05 0.93 10.5 0 1 382.25 73.28
  Q 382.08 74.04 381.90 74.33
  Q 381.64 74.78 381.06 74.84
  Q 378.41 75.12 376.91 74.92
  Z"
/>
<path fill="#478db8" d="
  M 86.22 72.19
  Q 89.26 72.15 89.10 73.99
  Q 86.86 101.36 85.81 110.27
  Q 85.68 111.33 84.41 113.54
  Q 84.08 115.46 82.17 115.10
  Q 81.81 115.03 81.69 114.78
  Q 81.55 114.47 80.87 114.66
  A 0.47 0.44 -77.8 0 0 80.61 114.84
  Q 79.10 116.97 76.77 115.94
  Q 76.16 115.67 75.49 116.17
  A 1.16 1.13 23.8 0 1 74.93 116.38
  L 62.99 117.42
  Q 63.05 117.25 63.08 117.11
  A 0.26 0.26 0.0 0 0 62.66 116.87
  L 60.49 118.76
  Q 58.68 118.97 57.75 118.78
  Q 56.94 118.62 57.21 118.05
  Q 58.21 117.78 57.66 115.65
  A 0.99 0.99 0.0 0 0 56.08 115.13
  Q 54.47 116.42 55.41 118.03
  Q 54.65 118.85 53.36 119.50
  A 0.13 0.11 23.7 0 1 53.29 119.52
  L 44.25 120.18
  A 0.48 0.47 68.0 0 1 43.84 120.00
  Q 43.81 119.95 43.87 119.55
  L 48.85 78.58
  L 86.22 72.19
  Z
  M 80.1928 82.5750
  A 2.45 1.50 -80.3 0 0 78.3014 84.7373
  A 2.45 1.50 -80.3 0 0 79.3672 87.4050
  A 2.45 1.50 -80.3 0 0 81.2586 85.2427
  A 2.45 1.50 -80.3 0 0 80.1928 82.5750
  Z
  M 56.1724 87.8200
  A 1.20 1.20 0.0 0 0 54.9537 86.6390
  L 54.7937 86.6415
  A 1.20 1.20 0.0 0 0 53.6127 87.8602
  L 53.6476 90.0800
  A 1.20 1.20 0.0 0 0 54.8663 91.2610
  L 55.0263 91.2585
  A 1.20 1.20 0.0 0 0 56.2073 90.0398
  L 56.1724 87.8200
  Z
  M 82.07 102.82
  Q 82.86 102.45 83.59 101.60
  A 0.94 0.93 43.4 0 0 83.55 100.33
  L 83.28 100.06
  A 0.48 0.47 33.7 0 0 82.51 100.21
  L 81.61 102.37
  A 0.35 0.34 89.1 0 0 82.07 102.82
  Z
  M 73.09 116.14
  L 74.43 114.79
  A 0.45 0.45 0.0 0 0 74.42 114.15
  L 74.27 114.00
  A 2.25 1.31 44.6 0 0 71.74 113.35
  L 71.62 113.48
  A 2.25 1.31 44.6 0 0 72.30 115.99
  L 72.46 116.15
  A 0.45 0.45 0.0 0 0 73.09 116.14
  Z"
/>
<path fill="#2e2b00" d="
  M 254.27 74.01
  Q 254.48 74.39 254.18 74.70
  Q 253.88 75.01 253.69 74.82
  Q 253.65 74.44 254.27 74.01
  Z"
/>
<ellipse fill="#a98912" cx="0.00" cy="0.00" transform="translate(167.00,77.01) rotate(-33.2)" rx="1.43" ry="1.05"/>
<rect fill="#2e2b00" x="-2.47" y="-1.09" transform="translate(336.31,79.34) rotate(-7.8)" width="4.94" height="2.18" rx="0.68"/>
<path fill="#2e2b00" d="
  M 48.85 78.58
  L 43.87 119.55
  Q 43.93 120.95 41.82 120.67
  Q 43.95 113.87 44.07 106.67
  Q 44.09 105.68 44.23 104.66
  Q 45.68 93.60 46.05 87.32
  A 4.01 3.83 -37.4 0 1 46.18 86.49
  Q 47.04 83.21 46.66 80.29
  A 0.99 0.99 0.0 0 0 45.24 79.53
  Q 43.94 80.16 42.25 79.71
  L 48.85 78.58
  Z"
/>
<path fill="#478db8" d="
  M 41.82 120.67
  Q 39.50 120.32 38.32 121.33
  A 0.82 0.81 -48.3 0 1 37.34 121.39
  Q 37.32 121.38 37.22 121.29
  A 1.18 1.18 0.0 0 0 36.24 121.00
  Q 33.97 121.35 31.84 122.14
  Q 29.69 122.93 24.74 122.63
  Q 24.10 122.60 23.11 123.44
  Q 22.32 122.60 20.97 123.21
  A 0.43 0.43 0.0 0 0 21.01 124.01
  Q 21.53 124.19 22.21 124.05
  L 20.42 124.28
  Q 19.62 124.49 19.25 124.22
  A 0.89 0.89 0.0 0 0 17.99 125.45
  Q 19.35 127.41 21.49 127.69
  Q 31.79 129.02 41.97 131.19
  L 40.91 131.27
  A 0.35 0.35 0.0 0 0 40.83 131.95
  Q 41.70 132.22 41.55 133.25
  Q 40.09 143.27 39.08 157.57
  A 0.32 0.32 0.0 0 0 39.38 157.92
  L 39.84 157.93
  A 0.31 0.31 0.0 0 0 40.16 157.66
  L 43.09 131.54
  L 84.06 139.11
  Q 83.65 139.33 83.21 139.38
  A 0.32 0.32 0.0 0 0 82.92 139.69
  L 82.30 150.94
  Q 81.46 153.88 79.25 154.41
  Q 76.57 155.04 67.76 156.09
  Q 66.52 155.81 65.03 156.17
  L 17.46 160.34
  Q 17.01 160.30 16.77 160.48
  L 2.96 161.10
  A 1.36 1.30 22.1 0 0 2.13 161.43
  Q 0.80 162.60 0.00 162.08
  L 0.00 152.17
  Q 1.91 143.79 2.49 138.50
  Q 3.51 129.21 4.83 119.98
  Q 5.42 118.80 4.92 117.44
  L 8.14 91.17
  A 1.28 1.06 -39.6 0 1 8.19 90.91
  L 9.52 86.55
  A 1.48 1.47 86.9 0 1 10.34 85.63
  Q 13.31 84.32 14.21 84.18
  Q 20.38 83.24 26.49 82.21
  Q 27.13 82.63 27.57 82.14
  L 42.25 79.71
  Q 43.94 80.16 45.24 79.53
  A 0.99 0.99 0.0 0 1 46.66 80.29
  Q 47.04 83.21 46.18 86.49
  A 4.01 3.83 -37.4 0 0 46.05 87.32
  Q 45.68 93.60 44.23 104.66
  Q 44.09 105.68 44.07 106.67
  Q 43.95 113.87 41.82 120.67
  Z
  M 39.0820 90.5129
  A 1.12 1.12 0.0 0 0 37.9738 89.3813
  L 37.7538 89.3790
  A 1.12 1.12 0.0 0 0 36.6221 90.4872
  L 36.5980 92.7871
  A 1.12 1.12 0.0 0 0 37.7062 93.9187
  L 37.9262 93.9210
  A 1.12 1.12 0.0 0 0 39.0579 92.8128
  L 39.0820 90.5129
  Z
  M 15.2024 93.0592
  A 2.24 1.65 -82.5 0 0 13.2741 95.0646
  A 2.24 1.65 -82.5 0 0 14.6176 97.5008
  A 2.24 1.65 -82.5 0 0 16.5459 95.4954
  A 2.24 1.65 -82.5 0 0 15.2024 93.0592
  Z
  M 40.9440 105.8898
  A 1.73 0.53 -60.8 0 0 39.6374 107.1414
  A 1.73 0.53 -60.8 0 0 39.2560 108.9102
  A 1.73 0.53 -60.8 0 0 40.5626 107.6586
  A 1.73 0.53 -60.8 0 0 40.9440 105.8898
  Z
  M 29.5582 119.1566
  A 1.41 1.04 -147.7 0 0 30.1943 120.7891
  A 1.41 1.04 -147.7 0 0 31.9418 120.6634
  A 1.41 1.04 -147.7 0 0 31.3057 119.0309
  A 1.41 1.04 -147.7 0 0 29.5582 119.1566
  Z
  M 15.5560 120.4766
  A 1.58 0.95 -106.7 0 0 15.1001 122.2630
  A 1.58 0.95 -106.7 0 0 16.4640 123.5034
  A 1.58 0.95 -106.7 0 0 16.9199 121.7170
  A 1.58 0.95 -106.7 0 0 15.5560 120.4766
  Z
  M 73.22 144.87
  L 75.24 144.91
  A 0.30 0.30 0.0 0 0 75.55 144.62
  L 75.56 144.28
  A 4.28 1.21 -88.7 0 0 74.45 139.97
  L 74.25 139.97
  A 4.28 1.21 -88.7 0 0 72.94 144.22
  L 72.93 144.56
  A 0.30 0.30 0.0 0 0 73.22 144.87
  Z
  M 49.8003 142.9381
  A 2.45 1.44 -77.5 0 0 47.8641 145.0183
  A 2.45 1.44 -77.5 0 0 48.7397 147.7219
  A 2.45 1.44 -77.5 0 0 50.6759 145.6417
  A 2.45 1.44 -77.5 0 0 49.8003 142.9381
  Z
  M 32.3287 144.9301
  A 2.41 1.26 -78.3 0 0 30.6062 147.0345
  A 2.41 1.26 -78.3 0 0 31.3513 149.6499
  A 2.41 1.26 -78.3 0 0 33.0738 147.5455
  A 2.41 1.26 -78.3 0 0 32.3287 144.9301
  Z
  M 9.2100 147.5477
  A 2.25 1.38 -79.5 0 0 7.4431 149.5085
  A 2.25 1.38 -79.5 0 0 8.3900 151.9723
  A 2.25 1.38 -79.5 0 0 10.1569 150.0115
  A 2.25 1.38 -79.5 0 0 9.2100 147.5477
  Z"
/>
<path fill="#2e2b00" d="
  M 97.11 80.19
  A 0.52 0.52 0.0 0 1 97.70 79.75
  L 97.88 79.77
  A 2.21 2.13 7.5 0 1 99.80 82.17
  L 99.78 82.31
  A 2.21 2.13 7.5 0 1 97.31 84.13
  L 97.12 84.11
  A 0.52 0.52 0.0 0 1 96.67 83.53
  L 97.11 80.19
  Z"
/>
<path fill="#dad9d8" d="
  M 191.19 80.95
  C 192.66 80.08 194.67 81.33 194.34 83.13
  Q 193.98 85.11 192.67 87.52
  A 1.19 1.18 -48.5 0 1 190.66 87.65
  C 189.40 85.88 189.03 82.24 191.19 80.95
  Z"
/>
<rect fill="#2e2b00" x="-2.71" y="-1.23" transform="translate(311.60,82.62) rotate(-1.8)" width="5.42" height="2.46" rx="1.07"/>
<path fill="#2e2b00" d="
  M 27.57 82.14
  Q 27.13 82.63 26.49 82.21
  Q 27.08 82.00 27.57 82.14
  Z"
/>
<ellipse fill="#2e2b00" cx="0.00" cy="0.00" transform="translate(79.78,84.99) rotate(-80.3)" rx="2.45" ry="1.50"/>
<path fill="#dad9d8" d="
  M 154.49 84.04
  A 1.32 1.32 0.0 0 1 156.92 84.62
  L 157.40 89.76
  A 0.85 0.79 -34.8 0 1 157.30 90.22
  L 155.68 93.03
  A 1.69 1.69 0.0 0 1 152.79 93.09
  C 150.15 88.96 152.53 87.13 154.49 84.04
  Z"
/>
<ellipse fill="#a98912" cx="0.00" cy="0.00" transform="translate(223.05,85.98) rotate(-147.4)" rx="2.07" ry="1.34"/>
<path fill="#dad9d8" d="
  M 125.18 85.73
  Q 125.93 85.76 126.53 86.86
  Q 121.42 91.70 117.58 93.85
  Q 112.30 96.80 110.43 98.16
  A 0.72 0.71 56.8 0 1 109.39 97.94
  L 109.15 97.53
  A 0.70 0.69 58.0 0 1 109.36 96.61
  L 125.18 85.73
  Z"
/>
<rect fill="#2e2b00" x="-1.28" y="-2.31" transform="translate(54.91,88.95) rotate(-0.9)" width="2.56" height="4.62" rx="1.20"/>
<path fill="#a98912" d="
  M 238.31 100.32
  A 0.65 0.65 0.0 0 1 237.28 100.87
  Q 234.87 99.14 227.74 96.69
  A 2.24 2.23 -18.7 0 1 227.25 96.45
  L 223.35 93.89
  A 1.16 0.97 64.0 0 0 223.08 93.77
  Q 220.22 92.89 218.02 91.35
  A 2.26 2.15 68.3 0 0 217.26 91.00
  L 215.02 90.44
  A 1.15 1.14 -68.4 0 1 214.30 88.77
  Q 215.09 87.34 215.77 87.34
  C 216.80 87.34 217.01 88.31 217.64 88.92
  A 1.81 1.80 76.2 0 0 218.31 89.33
  L 224.79 91.59
  A 1.58 1.34 -9.9 0 1 225.20 91.83
  L 227.82 94.05
  A 1.64 1.42 72.3 0 0 228.23 94.30
  L 236.96 97.96
  A 2.11 2.08 -82.1 0 1 238.23 99.66
  L 238.31 100.32
  Z"
/>
<rect fill="#2e2b00" x="-1.23" y="-2.27" transform="translate(37.84,91.65) rotate(0.6)" width="2.46" height="4.54" rx="1.12"/>
<ellipse fill="#a98912" cx="0.00" cy="0.00" transform="translate(245.61,94.51) rotate(-120.7)" rx="2.31" ry="1.73"/>
<ellipse fill="#2e2b00" cx="0.00" cy="0.00" transform="translate(14.91,95.28) rotate(-82.5)" rx="2.24" ry="1.65"/>
<ellipse fill="#a98912" cx="0.00" cy="0.00" transform="translate(181.07,95.55) rotate(-2.0)" rx="1.47" ry="0.90"/>
<rect fill="#2e2b00" x="-3.33" y="-3.01" transform="translate(495.34,98.09) rotate(-5.6)" width="6.66" height="6.02" rx="1.04"/>
<path fill="#dad9d8" d="
  M 223.09 95.56
  A 0.87 0.87 0.0 0 1 223.84 96.53
  L 223.82 96.76
  A 5.76 2.35 -83.0 0 1 220.78 102.19
  L 220.70 102.18
  A 5.76 2.35 -83.0 0 1 219.07 96.18
  L 219.10 95.95
  A 0.87 0.87 0.0 0 1 220.07 95.19
  L 223.09 95.56
  Z"
/>
<path fill="#a98912" d="
  M 209.76 97.42
  Q 210.81 97.57 210.58 98.76
  Q 210.09 101.37 209.51 103.97
  Q 209.20 105.36 208.61 105.27
  Q 208.01 105.18 208.11 103.76
  Q 208.31 101.11 208.59 98.47
  Q 208.72 97.27 209.76 97.42
  Z"
/>
<path fill="#dad9d8" d="
  M 188.74 106.01
  A 0.44 0.44 0.0 0 1 188.16 106.24
  L 188.04 106.18
  A 3.75 3.70 -66.4 0 1 186.15 101.26
  L 186.25 101.02
  A 3.75 3.70 -66.4 0 1 191.14 99.07
  L 191.27 99.13
  A 0.44 0.44 0.0 0 1 191.50 99.70
  L 188.74 106.01
  Z"
/>
<rect fill="#2e2b00" x="-2.98" y="-2.86" transform="translate(447.36,103.12) rotate(-3.3)" width="5.96" height="5.72" rx="0.27"/>
<path fill="#2e2b00" d="
  M 82.07 102.82
  A 0.35 0.34 89.1 0 1 81.61 102.37
  L 82.51 100.21
  A 0.48 0.47 33.7 0 1 83.28 100.06
  L 83.55 100.33
  A 0.94 0.93 43.4 0 1 83.59 101.60
  Q 82.86 102.45 82.07 102.82
  Z"
/>
<path fill="#a98912" d="
  M 162.10 127.59
  Q 150.03 126.95 138.37 124.36
  Q 132.01 122.95 125.64 121.27
  L 130.27 121.11
  A 1.14 1.11 -63.1 0 0 130.89 120.90
  Q 131.96 120.17 133.15 121.12
  A 1.39 1.37 -28.2 0 0 134.13 121.41
  Q 136.03 121.21 137.54 121.77
  A 0.54 0.53 -77.2 0 0 138.25 121.32
  L 139.92 102.99
  A 1.41 1.41 0.0 0 1 140.80 101.81
  L 141.27 101.62
  A 0.69 0.69 0.0 0 1 142.20 102.33
  L 140.61 119.81
  A 0.72 0.71 -8.8 0 0 141.60 120.53
  L 141.72 120.48
  A 2.04 2.03 -8.7 0 0 143.00 118.75
  Q 143.42 113.11 145.71 108.20
  A 0.69 0.69 0.0 0 1 146.91 108.11
  L 146.99 108.22
  A 2.24 2.21 -50.2 0 1 147.17 110.33
  Q 144.97 115.41 144.44 121.59
  A 0.89 0.87 21.6 0 0 144.79 122.38
  Q 148.14 124.84 151.92 124.43
  C 154.55 124.14 155.57 123.25 156.45 120.65
  Q 157.18 118.50 160.40 118.86
  A 0.53 0.53 0.0 0 1 160.84 119.56
  Q 160.22 121.35 158.70 122.21
  A 1.51 1.48 41.1 0 0 158.91 124.89
  Q 159.91 125.30 160.06 126.29
  A 0.71 0.71 0.0 0 0 160.65 126.88
  Q 161.47 127.01 162.10 127.59
  Z"
/>
<rect fill="#2e2b00" x="-2.71" y="-2.65" transform="translate(414.80,106.54) rotate(-6.9)" width="5.42" height="5.30" rx="0.27"/>
<path fill="#dad9d8" d="
  M 153.97 104.95
  Q 154.38 106.33 154.02 107.55
  A 1.65 1.64 -9.8 0 1 153.40 108.42
  L 151.33 109.94
  A 1.23 1.23 0.0 0 1 149.39 109.12
  L 149.12 107.11
  A 2.48 2.48 0.0 0 1 150.22 104.69
  Q 150.65 104.42 153.10 104.33
  A 0.88 0.88 0.0 0 1 153.97 104.95
  Z"
/>
<path fill="#a98912" d="
  M 239.36 128.73
  L 239.16 123.47
  A 0.72 0.72 0.0 0 0 238.70 122.83
  Q 236.54 122.00 235.53 123.13
  A 0.60 0.60 0.0 0 1 234.55 123.02
  L 234.39 122.66
  A 1.13 1.12 -34.5 0 1 234.63 121.40
  L 236.27 119.75
  A 1.78 1.77 -17.4 0 0 236.76 118.82
  Q 237.38 115.53 233.98 115.50
  L 234.98 112.40
  A 5.70 5.46 -22.0 0 1 235.53 111.18
  L 239.01 105.35
  A 1.12 1.12 0.0 0 1 240.97 105.41
  Q 241.16 105.78 241.14 107.51
  C 241.12 109.41 240.75 110.64 241.01 112.83
  Q 241.42 116.25 240.62 119.78
  Q 240.43 120.62 238.43 120.53
  A 0.77 0.76 -10.4 0 0 237.69 121.59
  Q 237.95 122.20 238.86 122.44
  A 0.74 0.74 0.0 0 1 239.40 123.15
  L 239.36 128.73
  Z"
/>
<path fill="#a98912" d="
  M 157.20 118.09
  L 156.92 118.18
  A 0.73 0.72 85.0 0 1 156.03 117.43
  Q 156.43 111.67 157.95 106.70
  Q 158.34 105.41 160.04 105.56
  A 0.81 0.80 -57.5 0 1 160.37 107.06
  L 159.68 107.46
  A 1.11 1.09 75.7 0 0 159.13 108.40
  Q 159.05 111.04 158.25 113.27
  A 1.57 1.54 55.7 0 0 158.18 113.66
  L 158.06 116.97
  A 1.21 1.21 0.0 0 1 157.20 118.09
  Z"
/>
<ellipse fill="#2e2b00" cx="0.00" cy="0.00" transform="translate(40.10,107.40) rotate(-60.8)" rx="1.73" ry="0.53"/>
<ellipse fill="#2e2b00" cx="0.00" cy="0.00" transform="translate(118.01,108.35) rotate(-22.1)" rx="1.86" ry="1.24"/>
<path fill="#2e2b00" d="
  M 374.01 113.28
  A 0.28 0.28 0.0 0 1 373.74 113.56
  L 371.70 113.60
  A 2.10 1.76 -1.1 0 1 369.57 111.88
  L 369.54 110.28
  A 2.10 1.76 -1.1 0 1 371.60 108.48
  L 373.64 108.44
  A 0.28 0.28 0.0 0 1 373.93 108.72
  L 374.01 113.28
  Z"
/>
<path fill="#2e2b00" d="
  M 101.75 109.41
  A 0.27 0.27 0.0 0 1 102.06 109.63
  L 102.09 109.83
  A 1.77 1.55 80.6 0 1 100.85 111.83
  L 100.55 111.88
  A 1.77 1.55 80.6 0 1 98.74 110.39
  L 98.70 110.19
  A 0.27 0.27 0.0 0 1 98.93 109.88
  L 101.75 109.41
  Z"
/>
<path fill="#a98912" d="
  M 215.54 110.12
  A 0.27 0.27 0.0 0 1 215.63 109.74
  L 215.77 109.65
  A 1.74 1.34 -32.3 0 1 217.96 109.86
  L 218.09 110.06
  A 1.74 1.34 -32.3 0 1 217.33 112.12
  L 217.19 112.21
  A 0.27 0.27 0.0 0 1 216.81 112.13
  L 215.54 110.12
  Z"
/>
<rect fill="#2e2b00" x="-2.21" y="-2.54" transform="translate(342.60,114.20) rotate(3.0)" width="4.42" height="5.08" rx="0.27"/>
<path fill="#2e2b00" d="
  M 73.09 116.14
  A 0.45 0.45 0.0 0 1 72.46 116.15
  L 72.30 115.99
  A 2.25 1.31 44.6 0 1 71.62 113.48
  L 71.74 113.35
  A 2.25 1.31 44.6 0 1 74.27 114.00
  L 74.42 114.15
  A 0.45 0.45 0.0 0 1 74.43 114.79
  L 73.09 116.14
  Z"
/>
<path fill="#a98912" d="
  M 103.06 113.69
  L 101.54 113.77
  A 0.40 0.40 0.0 0 0 101.22 114.37
  Q 101.43 114.72 101.14 115.06
  A 0.52 0.52 0.0 0 0 101.32 115.87
  L 102.95 116.64
  Q 98.13 116.02 96.54 116.28
  Q 92.13 117.03 91.29 116.70
  A 1.51 1.51 0.0 0 0 90.32 116.67
  L 88.56 117.23
  A 1.63 1.63 0.0 0 1 87.44 117.18
  Q 84.53 115.99 83.78 118.25
  A 0.55 0.54 21.6 0 1 83.03 118.57
  Q 81.23 117.71 79.69 118.30
  Q 77.93 118.98 77.77 118.93
  Q 77.32 118.78 74.78 119.58
  A 5.11 5.09 -49.9 0 1 72.62 119.77
  L 69.28 119.35
  A 2.24 2.13 41.2 0 0 68.59 119.38
  L 62.93 120.66
  A 1.74 1.65 40.3 0 1 62.38 120.69
  Q 58.39 120.22 55.06 121.99
  A 2.09 2.08 34.3 0 1 53.78 122.23
  Q 49.05 121.60 45.07 123.17
  A 2.46 2.38 -57.3 0 1 44.39 123.33
  L 31.45 124.53
  A 2.40 2.09 30.4 0 0 31.08 124.60
  Q 25.84 126.27 20.42 124.28
  L 22.21 124.05
  L 23.11 123.44
  Q 24.10 122.60 24.74 122.63
  Q 29.69 122.93 31.84 122.14
  Q 33.97 121.35 36.24 121.00
  A 1.18 1.18 0.0 0 1 37.22 121.29
  Q 37.32 121.38 37.34 121.39
  A 0.82 0.81 -48.3 0 0 38.32 121.33
  Q 39.50 120.32 41.82 120.67
  Q 43.93 120.95 43.87 119.55
  Q 43.81 119.95 43.84 120.00
  A 0.48 0.47 68.0 0 0 44.25 120.18
  L 53.29 119.52
  A 0.13 0.11 23.7 0 0 53.36 119.50
  Q 54.65 118.85 55.41 118.03
  Q 56.45 117.78 57.21 118.05
  Q 56.94 118.62 57.75 118.78
  Q 58.68 118.97 60.49 118.76
  Q 61.59 119.22 62.99 117.42
  L 74.93 116.38
  A 1.16 1.13 23.8 0 0 75.49 116.17
  Q 76.16 115.67 76.77 115.94
  Q 79.10 116.97 80.61 114.84
  A 0.47 0.44 -77.8 0 1 80.87 114.66
  Q 81.55 114.47 81.69 114.78
  Q 81.81 115.03 82.17 115.10
  Q 84.08 115.46 84.41 113.54
  Q 84.20 114.44 84.88 114.60
  Q 86.49 114.96 86.97 114.13
  Q 94.73 112.97 103.06 113.69
  Z"
/>
<path fill="#2e2b00" d="
  M 57.21 118.05
  Q 56.45 117.78 55.41 118.03
  Q 54.47 116.42 56.08 115.13
  A 0.99 0.99 0.0 0 1 57.66 115.65
  Q 58.21 117.78 57.21 118.05
  Z"
/>
<path fill="#2e2b00" d="
  M 272.03 124.53
  L 269.88 123.14
  A 1.20 1.19 23.4 0 0 268.07 123.85
  L 267.46 126.30
  A 0.59 0.59 0.0 0 1 266.31 126.25
  Q 266.14 125.20 265.97 122.58
  A 1.78 1.76 26.4 0 0 265.67 121.70
  L 261.15 114.97
  Q 263.56 115.59 265.24 117.46
  Q 267.42 119.88 268.24 120.57
  Q 270.34 122.35 272.03 124.53
  Z"
/>
<ellipse fill="#a98912" cx="0.00" cy="0.00" transform="translate(227.04,116.44) rotate(-122.1)" rx="1.40" ry="1.20"/>
<path fill="#f0d20e" d="
  M 233.98 115.50
  Q 237.38 115.53 236.76 118.82
  A 1.78 1.77 -17.4 0 1 236.27 119.75
  L 234.63 121.40
  A 1.13 1.12 -34.5 0 0 234.39 122.66
  L 234.55 123.02
  A 0.60 0.60 0.0 0 0 235.53 123.13
  Q 236.54 122.00 238.70 122.83
  A 0.72 0.72 0.0 0 1 239.16 123.47
  L 239.36 128.73
  L 240.56 131.26
  A 0.62 0.61 -17.2 0 1 240.10 132.13
  Q 237.01 132.62 236.13 130.59
  A 0.47 0.47 0.0 0 0 235.83 130.33
  Q 235.54 130.26 235.36 130.36
  A 0.22 0.22 0.0 0 0 235.26 130.59
  Q 235.73 132.40 234.45 132.84
  A 2.04 1.86 -52.5 0 1 233.78 132.96
  L 229.92 133.02
  A 0.76 0.54 28.4 0 0 229.75 133.04
  Q 226.51 133.75 222.47 133.56
  L 218.68 126.41
  A 0.28 0.28 0.0 0 0 218.18 126.42
  Q 217.87 127.06 218.25 127.76
  Q 220.10 131.18 220.66 133.76
  Q 213.51 135.36 206.68 133.05
  A 0.73 0.73 0.0 0 1 206.24 132.08
  L 206.97 130.33
  A 1.38 1.34 -42.3 0 0 207.03 129.40
  Q 205.68 124.65 208.72 121.24
  Q 211.10 121.51 208.18 126.51
  A 0.66 0.66 0.0 0 0 209.21 127.31
  L 211.64 124.88
  A 0.81 0.77 73.2 0 0 211.86 124.44
  C 212.10 122.83 211.09 121.63 212.74 120.46
  L 217.88 120.23
  A 0.99 0.99 0.0 0 1 218.89 121.46
  Q 218.49 123.06 217.53 123.50
  A 0.87 0.84 53.2 0 1 216.59 123.35
  Q 216.18 122.98 215.71 122.84
  A 0.73 0.72 24.4 0 0 214.90 123.14
  Q 214.46 123.84 214.38 124.56
  A 0.48 0.48 0.0 0 0 215.09 125.03
  L 216.57 124.18
  A 0.71 0.70 -55.4 0 1 217.04 124.09
  Q 218.40 124.30 218.92 123.80
  A 1.70 1.36 53.9 0 1 221.24 124.43
  Q 222.74 126.96 224.12 130.38
  A 0.65 0.65 0.0 0 0 225.11 130.67
  L 225.16 130.63
  A 0.82 0.81 -32.9 0 0 225.39 129.57
  L 220.79 121.54
  A 1.60 1.60 0.0 0 1 221.89 119.17
  Q 223.89 118.81 224.90 119.62
  Q 225.61 120.18 225.07 121.58
  Q 224.32 123.54 226.26 125.43
  A 0.54 0.54 0.0 0 0 227.18 124.99
  L 226.87 121.66
  A 0.93 0.93 0.0 0 1 228.61 121.11
  L 230.13 123.76
  A 0.50 0.50 0.0 0 0 230.99 123.76
  L 231.20 123.39
  A 0.83 0.81 38.4 0 0 231.08 122.41
  Q 230.28 121.57 230.01 120.81
  A 0.97 0.94 -35.1 0 1 230.19 119.86
  L 233.98 115.50
  Z"
/>
<ellipse fill="#a98912" cx="0.00" cy="0.00" transform="translate(165.46,118.38) rotate(-116.3)" rx="3.10" ry="0.82"/>
<rect fill="#2e2b00" x="-2.01" y="-2.44" transform="translate(303.85,118.34) rotate(-0.3)" width="4.02" height="4.88" rx="1.01"/>
<path fill="#dad9d8" d="
  M 102.95 116.64
  L 125.64 121.27
  Q 132.01 122.95 138.37 124.36
  Q 150.03 126.95 162.10 127.59
  L 170.98 129.49
  Q 177.49 131.77 179.52 131.65
  Q 185.27 131.30 190.95 131.52
  L 246.56 143.82
  Q 249.56 147.31 249.72 152.53
  Q 249.24 153.31 249.30 154.03
  A 0.67 0.66 1.6 0 0 249.88 154.64
  Q 253.32 155.08 253.67 153.59
  Q 254.06 150.42 255.63 150.40
  Q 257.84 149.46 258.40 147.21
  A 1.09 1.08 -76.2 0 1 259.71 146.41
  L 280.06 151.50
  A 2.00 1.97 -16.6 0 1 280.89 151.94
  Q 284.34 154.96 288.29 154.56
  C 291.72 154.21 291.89 156.14 294.34 156.88
  Q 298.47 158.15 302.78 158.77
  Q 303.06 158.89 303.46 158.91
  L 305.91 159.37
  L 312.25 160.55
  L 316.17 161.59
  C 314.46 162.03 311.38 162.53 312.27 165.22
  L 311.74 167.05
  Q 310.70 167.31 310.36 166.38
  Q 309.95 165.25 309.90 163.97
  A 0.82 0.82 0.0 0 0 309.01 163.18
  Q 304.30 163.55 299.20 163.71
  Q 294.26 163.86 285.04 165.22
  C 284.00 165.37 283.68 165.01 282.91 165.02
  A 0.93 0.93 0.0 0 0 282.10 165.56
  Q 281.64 166.57 282.03 167.76
  L 281.69 168.49
  Q 281.22 168.69 280.75 168.40
  C 279.97 167.93 279.57 166.07 278.81 165.40
  A 1.37 1.35 -27.5 0 0 277.76 165.08
  C 275.21 165.39 273.13 165.06 270.72 165.28
  Q 259.72 166.29 248.80 167.98
  A 0.80 0.79 -1.4 0 0 248.12 168.69
  Q 248.04 169.46 247.85 170.76
  A 1.10 1.06 -61.3 0 1 245.97 171.35
  Q 245.67 170.99 245.55 170.34
  Q 245.81 169.78 245.87 169.16
  C 246.42 167.51 245.90 165.89 243.93 166.01
  Q 243.73 165.80 243.04 165.83
  L 242.28 165.65
  Q 240.35 164.96 238.30 165.03
  L 232.96 164.15
  L 232.04 164.06
  Q 231.97 164.06 231.89 164.07
  Q 229.24 163.09 226.70 163.13
  Q 225.82 163.15 225.48 163.62
  Q 225.10 164.14 225.27 164.95
  L 224.91 166.75
  A 0.45 0.45 0.0 0 1 224.19 167.02
  Q 223.68 166.61 223.48 165.29
  Q 223.64 163.92 223.01 163.09
  Q 222.51 162.42 221.00 162.23
  C 214.45 161.39 208.46 159.92 201.55 159.79
  L 198.69 159.38
  L 191.99 158.52
  Q 191.53 158.00 190.54 158.29
  Q 190.41 158.24 190.29 158.19
  Q 189.69 157.96 188.98 158.06
  L 187.71 157.91
  L 187.04 157.85
  L 185.71 157.67
  L 184.79 157.54
  Q 184.67 157.49 184.55 157.43
  Q 183.08 156.90 181.51 157.03
  L 177.96 156.43
  L 176.52 156.30
  Q 176.40 156.28 176.27 156.26
  L 168.28 154.99
  L 167.54 154.90
  L 166.27 154.73
  L 157.69 153.80
  L 154.76 153.00
  L 150.82 151.87
  Q 148.99 150.78 146.98 151.04
  Q 141.83 149.84 136.49 150.29
  L 134.03 150.32
  L 129.73 149.07
  A 3.31 3.30 48.4 0 0 128.23 148.98
  Q 126.13 149.33 124.70 148.41
  L 95.56 143.01
  A 5.06 4.98 -25.4 0 1 94.12 142.51
  Q 90.52 140.60 85.87 139.99
  Q 85.56 139.61 84.06 139.11
  L 43.09 131.54
  L 41.97 131.19
  Q 31.79 129.02 21.49 127.69
  Q 19.35 127.41 17.99 125.45
  A 0.89 0.89 0.0 0 1 19.25 124.22
  Q 19.62 124.49 20.42 124.28
  Q 25.84 126.27 31.08 124.60
  A 2.40 2.09 30.4 0 1 31.45 124.53
  L 44.39 123.33
  A 2.46 2.38 -57.3 0 0 45.07 123.17
  Q 49.05 121.60 53.78 122.23
  A 2.09 2.08 34.3 0 0 55.06 121.99
  Q 58.39 120.22 62.38 120.69
  A 1.74 1.65 40.3 0 0 62.93 120.66
  L 68.59 119.38
  A 2.24 2.13 41.2 0 1 69.28 119.35
  L 72.62 119.77
  A 5.11 5.09 -49.9 0 0 74.78 119.58
  Q 77.32 118.78 77.77 118.93
  Q 77.93 118.98 79.69 118.30
  Q 81.23 117.71 83.03 118.57
  A 0.55 0.54 21.6 0 0 83.78 118.25
  Q 84.53 115.99 87.44 117.18
  A 1.63 1.63 0.0 0 0 88.56 117.23
  L 90.32 116.67
  A 1.51 1.51 0.0 0 1 91.29 116.70
  Q 92.13 117.03 96.54 116.28
  Q 98.13 116.02 102.95 116.64
  Z
  M 257.33 152.54
  Q 257.17 153.39 257.32 153.72
  A 0.39 0.39 0.0 0 0 258.05 153.69
  Q 258.41 152.69 257.79 152.33
  A 0.31 0.31 0.0 0 0 257.33 152.54
  Z"
/>
<path fill="#2e2b00" d="
  M 62.99 117.42
  Q 61.59 119.22 60.49 118.76
  L 62.66 116.87
  A 0.26 0.26 0.0 0 1 63.08 117.11
  Q 63.05 117.25 62.99 117.42
  Z"
/>
<path fill="#2e2b00" d="
  M 4.92 117.44
  Q 5.42 118.80 4.83 119.98
  Q 4.64 118.74 4.92 117.44
  Z"
/>
<ellipse fill="#2e2b00" cx="0.00" cy="0.00" transform="translate(30.75,119.91) rotate(-147.7)" rx="1.41" ry="1.04"/>
<path fill="#2e2b00" d="
  M 454.71 119.57
  Q 453.52 119.83 452.29 119.69
  L 454.71 119.57
  Z"
/>
<path fill="#2e2b00" d="
  M 451.21 119.85
  L 450.28 119.86
  L 451.21 119.85
  Z"
/>
<ellipse fill="#2e2b00" cx="0.00" cy="0.00" transform="translate(16.01,121.99) rotate(-106.7)" rx="1.58" ry="0.95"/>
<path fill="#a98912" d="
  M 212.74 120.46
  C 211.09 121.63 212.10 122.83 211.86 124.44
  A 0.81 0.77 73.2 0 1 211.64 124.88
  L 209.21 127.31
  A 0.66 0.66 0.0 0 1 208.18 126.51
  Q 211.10 121.51 208.72 121.24
  L 212.74 120.46
  Z"
/>
<path fill="#478db8" d="
  M 433.60 121.43
  L 430.53 121.56
  Q 432.41 119.63 433.60 121.43
  Z"
/>
<path fill="#a98912" d="
  M 171.18 120.70
  A 0.68 0.68 0.0 0 1 172.08 121.04
  L 172.12 121.13
  A 2.58 2.27 66.1 0 1 171.09 124.41
  L 170.89 124.50
  A 2.58 2.27 66.1 0 1 167.77 123.06
  L 167.73 122.97
  A 0.68 0.68 0.0 0 1 168.08 122.07
  L 171.18 120.70
  Z"
/>
<path fill="#f0d20e" d="
  M 191.87 128.60
  Q 191.90 128.64 191.93 128.69
  A 0.23 0.22 -27.2 0 1 191.81 129.04
  Q 189.87 129.67 187.50 129.16
  A 0.66 0.66 0.0 0 1 187.25 127.98
  Q 188.87 126.83 189.99 124.41
  A 1.33 1.30 -85.6 0 1 190.80 123.70
  Q 196.30 121.99 201.26 122.19
  Q 202.27 122.23 204.06 121.34
  A 0.87 0.86 88.2 0 1 205.24 122.45
  Q 204.53 124.18 204.60 125.83
  A 2.10 2.10 0.0 0 0 204.80 126.63
  Q 205.82 128.80 205.34 132.30
  A 0.68 0.67 10.8 0 1 204.51 132.86
  L 193.17 130.02
  A 0.71 0.71 0.0 0 1 193.18 128.64
  Q 195.10 128.18 197.70 125.51
  A 0.44 0.43 -55.9 0 0 197.57 124.81
  Q 196.77 124.45 195.84 124.88
  Q 193.03 126.18 191.93 127.64
  A 0.87 0.87 0.0 0 0 191.87 128.60
  Z"
/>
<path fill="#2e2b00" d="
  M 424.72 122.35
  L 423.99 122.43
  Q 424.34 122.32 424.72 122.35
  Z"
/>
<path fill="#2e2b00" d="
  M 422.97 122.60
  L 422.28 122.67
  L 422.97 122.60
  Z"
/>
<path fill="#a98912" d="
  M 190.95 131.52
  Q 185.27 131.30 179.52 131.65
  Q 177.49 131.77 170.98 129.49
  Q 170.20 129.14 170.32 128.65
  A 0.27 0.26 2.9 0 1 170.55 128.45
  L 173.71 128.16
  A 0.61 0.60 88.4 0 0 174.25 127.58
  Q 174.30 125.74 174.63 124.34
  Q 175.00 122.77 176.37 122.88
  A 0.88 0.87 -70.1 0 1 177.01 124.25
  Q 176.06 125.63 175.76 126.87
  A 1.59 1.59 0.0 0 0 176.17 128.36
  L 177.07 129.25
  A 1.21 1.21 0.0 0 0 179.11 128.69
  L 179.89 125.60
  A 0.42 0.41 11.7 0 1 180.37 125.29
  Q 181.04 125.40 181.08 125.73
  A 0.98 0.83 -41.3 0 0 182.83 125.70
  C 183.65 123.70 184.66 123.85 186.79 123.63
  A 0.80 0.80 0.0 0 1 187.42 125.00
  Q 184.85 127.47 184.76 129.83
  A 1.30 1.30 0.0 0 0 186.29 131.16
  Q 189.14 130.65 190.95 131.52
  Z"
/>
<path fill="#2e2b00" d="
  M 421.22 122.82
  L 419.95 122.95
  Q 420.54 122.73 421.22 122.82
  Z"
/>
<path fill="#2e2b00" d="
  M 23.11 123.44
  L 22.21 124.05
  Q 21.53 124.19 21.01 124.01
  A 0.43 0.43 0.0 0 1 20.97 123.21
  Q 22.32 122.60 23.11 123.44
  Z"
/>
<circle fill="#f0d20e" cx="242.25" cy="126.30" r="2.03"/>
<path fill="#a98912" d="
  M 222.47 133.56
  L 220.66 133.76
  Q 220.10 131.18 218.25 127.76
  Q 217.87 127.06 218.18 126.42
  A 0.28 0.28 0.0 0 1 218.68 126.41
  L 222.47 133.56
  Z"
/>
<path fill="#2e2b00" d="
  M 369.99 127.65
  L 368.79 127.67
  Q 369.38 127.56 369.99 127.65
  Z"
/>
<path fill="#2e2b00" d="
  M 263.23 129.76
  Q 262.13 129.40 261.81 129.57
  A 2.95 2.94 -23.4 0 0 260.37 133.18
  Q 260.75 134.26 262.63 133.95
  Q 261.68 135.86 259.94 136.92
  A 0.46 0.45 68.7 0 1 259.26 136.62
  C 259.16 136.10 259.67 135.41 259.20 134.46
  C 258.10 132.26 255.81 132.13 256.85 128.82
  A 1.17 1.15 -89.8 0 1 257.61 128.05
  Q 261.44 126.84 263.23 129.76
  Z"
/>
<path fill="#2e2b00" d="
  M 364.96 127.86
  L 363.29 127.90
  L 364.96 127.86
  Z"
/>
<path fill="#2e2b00" d="
  M 355.30 128.75
  L 354.50 129.02
  Q 354.75 128.72 355.30 128.75
  Z"
/>
<path fill="#a98912" d="
  M 263.23 129.76
  Q 264.73 131.68 262.63 133.95
  Q 260.75 134.26 260.37 133.18
  A 2.95 2.94 -23.4 0 1 261.81 129.57
  Q 262.13 129.40 263.23 129.76
  Z"
/>
<path fill="#2e2b00" d="
  M 328.94 131.11
  L 324.06 131.34
  L 328.94 131.11
  Z"
/>
<path fill="#2e2b00" d="
  M 41.97 131.19
  L 43.09 131.54
  L 40.16 157.66
  A 0.31 0.31 0.0 0 1 39.84 157.93
  L 39.38 157.92
  A 0.32 0.32 0.0 0 1 39.08 157.57
  Q 40.09 143.27 41.55 133.25
  Q 41.70 132.22 40.83 131.95
  A 0.35 0.35 0.0 0 1 40.91 131.27
  L 41.97 131.19
  Z"
/>
<path fill="#2e2b00" d="
  M 321.96 131.82
  L 320.29 131.94
  L 321.96 131.82
  Z"
/>
<path fill="#2e2b00" d="
  M 319.94 132.06
  L 314.83 132.47
  L 319.94 132.06
  Z"
/>
<path fill="#2e2b00" d="
  M 302.21 133.86
  L 300.96 133.91
  L 302.21 133.86
  Z"
/>
<path fill="#f0d20e" d="
  M 249.72 152.53
  Q 249.56 147.31 246.56 143.82
  Q 247.10 142.61 247.16 141.29
  A 2.27 2.26 85.7 0 1 248.97 139.18
  Q 250.63 138.85 250.88 137.42
  A 1.77 1.73 -76.1 0 1 253.13 136.03
  Q 256.47 137.12 255.80 141.11
  A 0.86 0.86 0.0 0 1 254.34 141.58
  L 252.96 140.19
  A 0.56 0.56 0.0 0 0 252.03 140.75
  L 252.83 143.42
  A 0.72 0.71 54.1 0 1 252.74 144.03
  Q 251.24 146.33 251.11 148.61
  A 2.37 2.35 57.7 0 1 250.94 149.38
  L 249.72 152.53
  Z"
/>
<path fill="#2e2b00" d="
  M 84.06 139.11
  Q 85.56 139.61 85.87 139.99
  Q 83.08 144.03 83.97 152.24
  Q 82.58 149.32 82.30 150.94
  L 82.92 139.69
  A 0.32 0.32 0.0 0 1 83.21 139.38
  Q 83.65 139.33 84.06 139.11
  Z"
/>
<path fill="#2e2b00" d="
  M 73.22 144.87
  A 0.30 0.30 0.0 0 1 72.93 144.56
  L 72.94 144.22
  A 4.28 1.21 -88.7 0 1 74.25 139.97
  L 74.45 139.97
  A 4.28 1.21 -88.7 0 1 75.56 144.28
  L 75.55 144.62
  A 0.30 0.30 0.0 0 1 75.24 144.91
  L 73.22 144.87
  Z"
/>
<path fill="#478db8" d="
  M 124.70 148.41
  Q 124.06 148.92 123.74 149.89
  Q 118.04 151.60 112.32 151.56
  Q 111.90 151.71 111.51 151.59
  L 87.56 154.31
  L 85.48 154.36
  Q 83.64 153.39 83.97 152.24
  Q 83.08 144.03 85.87 139.99
  Q 90.52 140.60 94.12 142.51
  A 5.06 4.98 -25.4 0 0 95.56 143.01
  L 124.70 148.41
  Z"
/>
<ellipse fill="#2e2b00" cx="0.00" cy="0.00" transform="translate(49.27,145.33) rotate(-77.5)" rx="2.45" ry="1.44"/>
<ellipse fill="#2e2b00" cx="0.00" cy="0.00" transform="translate(31.84,147.29) rotate(-78.3)" rx="2.41" ry="1.26"/>
<path fill="#f0d20e" d="
  M 255.63 150.40
  Q 254.06 150.42 253.67 153.59
  Q 251.42 151.74 252.20 147.97
  Q 252.76 145.23 255.90 145.32
  A 0.38 0.38 0.0 0 1 256.26 145.81
  Q 255.38 148.71 255.63 150.40
  Z"
/>
<ellipse fill="#2e2b00" cx="0.00" cy="0.00" transform="translate(8.80,149.76) rotate(-79.5)" rx="2.25" ry="1.38"/>
<path fill="#2e2b00" d="
  M 124.70 148.41
  Q 126.13 149.33 128.23 148.98
  A 3.31 3.30 48.4 0 1 129.73 149.07
  L 134.03 150.32
  Q 133.81 151.81 132.77 152.32
  A 0.83 0.81 -38.4 0 1 131.90 152.23
  Q 130.21 150.86 129.22 150.72
  Q 126.45 150.35 126.41 153.55
  Q 125.87 150.34 123.74 149.89
  Q 124.06 148.92 124.70 148.41
  Z"
/>
<path fill="#f0d20e" d="
  M 136.49 150.29
  Q 137.11 152.67 135.80 154.01
  A 1.16 1.15 22.0 0 1 134.97 154.36
  Q 131.93 154.37 131.62 157.58
  Q 131.30 160.93 131.39 164.98
  Q 129.16 164.40 128.43 161.17
  Q 129.12 158.22 127.39 155.92
  L 126.41 153.55
  Q 126.45 150.35 129.22 150.72
  Q 130.21 150.86 131.90 152.23
  A 0.83 0.81 -38.4 0 0 132.77 152.32
  Q 133.81 151.81 134.03 150.32
  L 136.49 150.29
  Z"
/>
<path fill="#2e2b00" d="
  M 146.98 151.04
  L 147.05 151.44
  Q 145.15 151.51 141.61 150.59
  Q 140.01 150.17 138.26 151.39
  C 136.96 152.28 137.10 154.43 135.73 155.24
  Q 134.05 156.23 132.87 157.11
  A 1.01 1.01 0.0 0 0 132.45 157.95
  Q 132.54 161.66 131.39 164.98
  Q 131.30 160.93 131.62 157.58
  Q 131.93 154.37 134.97 154.36
  A 1.16 1.15 22.0 0 0 135.80 154.01
  Q 137.11 152.67 136.49 150.29
  Q 141.83 149.84 146.98 151.04
  Z"
/>
<path fill="#478db8" d="
  M 150.82 151.87
  Q 150.44 151.88 150.24 152.03
  L 147.05 151.44
  L 146.98 151.04
  Q 148.99 150.78 150.82 151.87
  Z"
/>
<path fill="#2e2b00" d="
  M 112.32 151.56
  Q 111.91 151.74 111.51 151.59
  Q 111.90 151.71 112.32 151.56
  Z"
/>
<path fill="#2e2b00" d="
  M 150.82 151.87
  L 154.76 153.00
  L 154.96 156.19
  Q 154.44 155.21 154.23 153.78
  A 0.79 0.79 0.0 0 0 153.69 153.14
  L 150.24 152.03
  Q 150.44 151.88 150.82 151.87
  Z"
/>
<path fill="#2e2b00" d="
  M 257.79 152.33
  Q 258.41 152.69 258.05 153.69
  A 0.39 0.39 0.0 0 1 257.32 153.72
  Q 257.17 153.39 257.33 152.54
  A 0.31 0.31 0.0 0 1 257.79 152.33
  Z"
/>
<path fill="#a98912" d="
  M 157.69 153.80
  L 157.81 157.36
  Q 156.56 158.15 154.96 156.19
  L 154.76 153.00
  L 157.69 153.80
  Z"
/>
<path fill="#2e2b00" d="
  M 166.27 154.73
  L 161.40 154.70
  A 1.37 1.36 24.7 0 0 160.52 155.02
  L 157.81 157.36
  L 157.69 153.80
  L 166.27 154.73
  Z"
/>
<path fill="#2e2b00" d="
  M 87.56 154.31
  Q 86.62 154.68 85.48 154.36
  L 87.56 154.31
  Z"
/>
<path fill="#2e2b00" d="
  M 167.54 154.90
  Q 166.78 154.98 166.27 154.73
  L 167.54 154.90
  Z"
/>
<path fill="#2e2b00" d="
  M 176.27 156.26
  L 168.28 154.99
  L 176.27 156.26
  Z"
/>
<path fill="#2e2b00" d="
  M 311.71 156.30
  Q 310.56 156.31 310.34 157.27
  Q 310.22 157.82 310.63 158.15
  Q 311.10 158.53 311.47 158.05
  Q 311.71 157.74 311.84 157.01
  L 312.25 160.55
  L 305.91 159.37
  Q 308.96 158.89 310.94 155.59
  A 0.44 0.44 0.0 0 1 311.72 155.65
  Q 311.80 155.85 311.71 156.30
  Z"
/>
<path fill="#2e2b00" d="
  M 67.76 156.09
  L 65.03 156.17
  Q 66.52 155.81 67.76 156.09
  Z"
/>
<path fill="#2e2b00" d="
  M 128.43 161.17
  Q 127.34 158.78 127.39 155.92
  Q 129.12 158.22 128.43 161.17
  Z"
/>
<path fill="#2e2b00" d="
  M 177.96 156.43
  L 176.52 156.30
  L 177.96 156.43
  Z"
/>
<path fill="#dad9d8" d="
  M 311.71 156.30
  Q 311.71 156.69 311.84 157.01
  Q 311.71 157.74 311.47 158.05
  Q 311.10 158.53 310.63 158.15
  Q 310.22 157.82 310.34 157.27
  Q 310.56 156.31 311.71 156.30
  Z"
/>
<path fill="#2e2b00" d="
  M 184.55 157.43
  Q 182.98 157.55 181.51 157.03
  Q 183.08 156.90 184.55 157.43
  Z"
/>
<path fill="#2e2b00" d="
  M 185.71 157.67
  L 184.79 157.54
  L 185.71 157.67
  Z"
/>
<path fill="#2e2b00" d="
  M 187.71 157.91
  L 187.04 157.85
  L 187.71 157.91
  Z"
/>
<path fill="#2e2b00" d="
  M 190.29 158.19
  Q 189.60 158.27 188.98 158.06
  Q 189.69 157.96 190.29 158.19
  Z"
/>
<path fill="#2e2b00" d="
  M 191.99 158.52
  L 190.54 158.29
  Q 191.53 158.00 191.99 158.52
  Z"
/>
<path fill="#2e2b00" d="
  M 198.69 159.38
  Q 195.22 159.59 191.99 158.52
  L 198.69 159.38
  Z"
/>
<path fill="#2e2b00" d="
  M 303.46 158.91
  Q 303.06 158.89 302.78 158.77
  L 303.46 158.91
  Z"
/>
<ellipse fill="#2e2b00" cx="0.00" cy="0.00" transform="translate(155.18,161.00) rotate(-173.1)" rx="1.80" ry="1.40"/>
<path fill="#2e2b00" d="
  M 223.48 165.29
  Q 218.17 161.49 210.62 161.08
  Q 205.12 160.79 201.55 159.79
  C 208.46 159.92 214.45 161.39 221.00 162.23
  Q 222.51 162.42 223.01 163.09
  Q 223.64 163.92 223.48 165.29
  Z"
/>
<path fill="#2e2b00" d="
  M 17.46 160.34
  L 16.77 160.48
  Q 17.01 160.30 17.46 160.34
  Z"
/>
<path fill="#2e2b00" d="
  M 316.17 161.59
  L 312.27 165.22
  C 311.38 162.53 314.46 162.03 316.17 161.59
  Z"
/>
<path fill="#2e2b00" d="
  M 231.89 164.07
  Q 227.06 163.50 225.27 164.95
  Q 225.10 164.14 225.48 163.62
  Q 225.82 163.15 226.70 163.13
  Q 229.24 163.09 231.89 164.07
  Z"
/>
<path fill="#2e2b00" d="
  M 311.74 167.05
  Q 311.77 167.40 311.37 167.58
  A 0.44 0.44 0.0 0 1 310.86 167.49
  L 308.71 165.34
  A 3.96 3.96 0.0 0 0 306.16 164.20
  Q 297.26 163.72 289.78 165.36
  A 12.41 11.99 -50.4 0 1 287.28 165.64
  C 284.68 165.68 283.25 165.52 282.03 167.76
  Q 281.64 166.57 282.10 165.56
  A 0.93 0.93 0.0 0 1 282.91 165.02
  C 283.68 165.01 284.00 165.37 285.04 165.22
  Q 294.26 163.86 299.20 163.71
  Q 304.30 163.55 309.01 163.18
  A 0.82 0.82 0.0 0 1 309.90 163.97
  Q 309.95 165.25 310.36 166.38
  Q 310.70 167.31 311.74 167.05
  Z"
/>
<path fill="#2e2b00" d="
  M 232.96 164.15
  L 232.04 164.06
  L 232.96 164.15
  Z"
/>
<path fill="#2e2b00" d="
  M 242.28 165.65
  Q 240.19 165.75 238.30 165.03
  Q 240.35 164.96 242.28 165.65
  Z"
/>
<path fill="#2e2b00" d="
  M 281.69 168.49
  Q 281.74 169.09 281.26 169.24
  A 0.50 0.49 63.0 0 1 280.72 169.06
  C 278.15 165.53 275.21 165.73 270.50 165.91
  Q 267.24 166.03 265.02 166.35
  Q 257.75 167.38 257.40 167.37
  A 13.40 13.32 -54.2 0 0 254.01 167.93
  L 249.80 169.19
  A 0.78 0.78 0.0 0 0 249.87 170.70
  Q 251.17 170.97 255.30 171.21
  A 0.12 0.12 0.0 0 1 255.42 171.34
  L 255.42 171.35
  A 0.15 0.13 -0.4 0 1 255.28 171.47
  L 249.24 172.00
  L 244.25 172.00
  L 240.61 171.38
  A 0.17 0.17 0.0 0 1 240.62 171.05
  L 245.55 170.34
  Q 245.67 170.99 245.97 171.35
  A 1.10 1.06 -61.3 0 0 247.85 170.76
  Q 248.04 169.46 248.12 168.69
  A 0.80 0.79 -1.4 0 1 248.80 167.98
  Q 259.72 166.29 270.72 165.28
  C 273.13 165.06 275.21 165.39 277.76 165.08
  A 1.37 1.35 -27.5 0 1 278.81 165.40
  C 279.57 166.07 279.97 167.93 280.75 168.40
  Q 281.22 168.69 281.69 168.49
  Z"
/>
<path fill="#2e2b00" d="
  M 243.93 166.01
  L 243.04 165.83
  Q 243.73 165.80 243.93 166.01
  Z"
/>
<path fill="#2e2b00" d="
  M 245.87 169.16
  Q 245.84 167.71 243.93 166.01
  C 245.90 165.89 246.42 167.51 245.87 169.16
  Z"
/>
</svg>
