<?xml version="1.0" encoding="UTF-8" standalone="no"?>
<svg xmlns="http://www.w3.org/2000/svg" version="1.2" baseProfile="tiny" viewBox="0.00 0.00 512.00 137.00" width="512.00" height="137.00">
<path fill="#010101" d="
  M 512.00 0.75
  L 512.00 2.36
  Q 509.35 9.63 508.12 17.27
  A 2.74 2.69 65.1 0 1 507.80 18.17
  Q 507.26 19.08 507.44 20.34
  A 1.99 1.99 0.0 0 1 507.11 21.75
  Q 507.07 21.81 506.99 21.92
  A 2.56 2.55 59.3 0 0 506.55 23.67
  Q 506.72 25.16 505.95 26.12
  A 1.59 1.58 -29.3 0 0 505.62 27.27
  Q 505.82 29.11 504.97 30.26
  A 1.49 1.43 61.0 0 0 504.70 31.28
  Q 504.75 31.75 504.62 33.27
  Q 504.47 35.12 503.89 36.50
  Q 503.44 37.56 503.03 38.54
  A 2.08 1.98 55.0 0 0 502.88 39.53
  C 503.05 41.36 501.77 42.32 501.92 44.30
  A 1.77 1.74 60.0 0 1 501.64 45.38
  C 500.61 46.96 501.38 48.22 500.48 49.74
  Q 499.94 50.64 500.07 51.99
  A 1.93 1.93 0.0 0 1 499.87 53.07
  C 499.38 54.03 499.13 54.34 499.14 55.58
  Q 499.16 56.83 498.75 57.40
  C 497.78 58.80 498.63 60.30 497.63 61.63
  A 1.55 1.53 -30.4 0 0 497.34 62.72
  Q 497.56 64.57 496.69 65.56
  A 1.27 1.26 61.2 0 0 496.40 66.58
  Q 496.68 68.35 495.86 69.38
  A 1.48 1.46 -29.1 0 0 495.55 70.44
  Q 495.75 72.28 494.91 73.30
  A 1.30 1.29 -29.6 0 0 494.63 74.30
  Q 494.89 76.00 493.93 77.22
  A 1.29 1.28 -31.4 0 0 493.69 78.20
  C 494.02 80.10 492.54 80.98 492.82 82.52
  Q 493.00 83.52 492.36 84.40
  C 491.50 85.61 492.31 86.94 491.38 88.27
  Q 490.85 89.02 490.91 90.29
  A 0.93 0.83 -41.4 0 1 490.87 90.61
  L 488.88 97.32
  A 1.94 1.93 -81.7 0 1 487.03 98.71
  C 485.34 98.71 483.76 99.52 482.20 99.55
  C 478.37 99.61 474.45 99.37 470.25 100.20
  A 11.92 11.36 -49.4 0 1 468.16 100.41
  Q 462.54 100.43 456.94 100.49
  C 454.02 100.52 451.69 101.36 448.73 101.35
  Q 441.73 101.31 435.39 101.41
  A 13.46 13.44 38.5 0 0 432.76 101.71
  Q 430.22 102.25 429.50 102.26
  C 419.75 102.29 413.62 101.99 405.28 102.84
  Q 398.75 103.49 390.85 103.08
  A 0.49 0.49 0.0 0 1 390.40 102.65
  Q 390.07 99.57 391.13 97.32
  A 1.45 1.45 0.0 0 0 390.70 95.55
  L 390.53 95.41
  A 0.81 0.81 0.0 0 0 389.26 95.83
  Q 388.26 99.37 385.94 101.78
  A 1.70 1.67 -68.2 0 1 384.75 102.30
  Q 383.94 102.32 383.21 102.84
  A 1.92 1.90 28.6 0 1 382.03 103.18
  Q 378.04 102.96 375.76 103.48
  Q 372.42 104.24 369.69 104.11
  Q 364.12 103.85 359.21 104.36
  Q 352.73 105.04 348.77 105.04
  Q 337.90 105.04 317.25 105.82
  Q 308.97 106.13 302.17 105.10
  A 0.73 0.73 0.0 0 1 301.60 104.12
  L 305.46 94.06
  A 0.68 0.67 -69.1 0 0 305.07 93.18
  L 304.65 93.02
  A 0.59 0.58 21.1 0 0 303.89 93.35
  L 300.10 103.23
  A 3.28 3.26 -86.1 0 1 297.81 105.24
  L 296.20 105.63
  A 3.31 2.69 -50.9 0 1 295.72 105.73
  L 287.21 106.87
  A 1.34 1.29 -46.0 0 1 286.93 106.88
  Q 281.85 106.62 275.66 107.71
  A 9.10 8.80 40.0 0 1 273.82 107.84
  Q 265.49 107.57 259.96 108.06
  C 249.78 108.96 243.37 108.64 232.25 108.70
  C 229.89 108.72 227.17 109.30 225.16 109.31
  A 0.54 0.54 0.0 0 1 224.62 108.69
  L 224.94 106.62
  A 0.32 0.31 -31.0 0 0 224.33 106.47
  Q 223.60 108.47 221.50 109.48
  A 1.96 1.92 -55.8 0 1 220.60 109.66
  Q 213.94 109.31 209.99 110.06
  Q 207.70 110.49 205.95 110.47
  C 202.40 110.44 199.90 110.46 195.79 111.02
  Q 191.42 111.63 187.38 111.37
  A 6.98 6.86 -50.0 0 0 185.11 111.59
  Q 181.79 112.50 174.00 112.36
  Q 173.58 112.35 172.19 112.97
  A 2.24 2.20 -56.8 0 1 171.27 113.17
  L 165.20 113.26
  A 1.67 1.62 26.1 0 0 164.28 113.56
  Q 163.35 114.21 162.22 114.06
  A 0.55 0.55 0.0 0 0 161.60 114.69
  Q 161.80 115.97 161.67 116.36
  Q 156.86 118.29 151.90 117.56
  A 0.34 0.34 0.0 0 1 151.84 116.90
  L 152.61 116.65
  A 1.07 1.07 0.0 0 0 152.45 114.57
  L 148.61 113.97
  A 0.98 0.97 -16.1 0 1 148.00 113.64
  L 147.62 113.19
  A 0.40 0.40 0.0 0 0 146.94 113.34
  Q 146.92 113.41 146.90 113.45
  A 0.46 0.45 -44.8 0 1 146.11 113.45
  Q 145.96 113.19 145.96 112.73
  A 0.59 0.58 -86.9 0 0 145.43 112.13
  Q 144.92 112.09 144.62 112.11
  A 0.65 0.65 0.0 0 0 144.09 113.07
  L 145.47 115.56
  Q 145.59 118.41 141.65 117.82
  Q 142.87 117.97 143.34 117.88
  A 1.69 1.69 0.0 0 0 144.08 114.89
  Q 142.39 113.55 139.99 113.61
  Q 136.43 113.70 134.20 114.60
  Q 131.55 115.13 129.30 114.79
  A 0.37 0.37 0.0 0 1 129.33 114.06
  C 130.05 114.02 130.82 113.95 131.63 113.87
  C 130.33 113.82 129.42 114.03 128.49 113.44
  A 0.17 0.17 0.0 0 0 128.25 113.66
  Q 128.50 114.12 128.21 114.41
  A 0.66 0.65 -63.8 0 1 127.69 114.59
  Q 124.19 114.14 118.66 114.49
  A 5.01 4.86 45.9 0 1 117.72 114.46
  L 113.87 113.98
  A 0.49 0.49 0.0 0 1 113.82 113.02
  Q 114.41 112.88 115.07 112.06
  Q 118.15 108.18 119.65 103.04
  Q 120.22 101.10 122.41 101.24
  A 1.52 1.50 67.7 0 1 123.35 101.64
  Q 127.49 105.45 128.73 108.29
  A 0.47 0.47 0.0 0 0 129.49 108.44
  Q 130.20 107.76 130.27 106.46
  Q 130.33 105.55 130.94 105.48
  A 0.32 0.32 0.0 0 0 131.23 105.21
  L 132.37 97.86
  A 0.60 0.53 -25.6 0 1 132.48 97.60
  L 133.56 96.29
  A 0.31 0.31 0.0 0 0 133.33 95.79
  L 131.67 95.73
  A 0.48 0.47 -10.1 0 0 131.21 96.38
  Q 131.61 97.36 131.06 98.13
  C 129.99 99.63 130.39 101.58 130.67 103.47
  A 1.10 1.09 24.1 0 1 128.67 104.23
  Q 128.19 103.51 127.94 101.39
  A 0.57 0.56 85.8 0 1 128.48 100.76
  Q 129.75 100.72 129.57 98.68
  A 0.71 0.71 0.0 0 0 128.73 98.05
  Q 125.33 98.70 123.79 96.33
  A 0.48 0.48 0.0 0 0 122.92 96.70
  Q 123.07 97.37 123.63 98.35
  A 0.29 0.28 3.2 0 1 123.21 98.72
  Q 121.94 97.82 121.67 96.26
  A 0.69 0.68 89.4 0 0 121.09 95.69
  L 111.79 94.24
  A 0.51 0.51 0.0 0 1 111.71 93.25
  Q 111.75 93.23 112.53 93.20
  Q 117.07 94.20 121.75 93.81
  Q 123.97 93.62 131.89 94.43
  Q 135.86 94.84 136.77 91.30
  Q 137.24 89.48 138.89 86.73
  Q 139.47 85.76 138.30 85.47
  A 0.78 0.78 0.0 0 1 137.71 84.69
  L 137.74 83.75
  A 0.93 0.91 -73.3 0 0 137.31 82.93
  Q 134.43 81.08 134.66 77.33
  L 137.72 77.01
  A 0.71 0.71 0.0 0 0 138.35 76.34
  Q 138.54 72.72 143.18 72.66
  A 0.97 0.97 0.0 0 0 143.94 72.29
  Q 145.19 70.66 145.74 67.42
  A 0.14 0.13 87.4 0 1 145.84 67.30
  L 146.07 67.24
  A 0.30 0.30 0.0 0 1 146.44 67.55
  Q 146.32 70.48 144.50 72.24
  Q 144.02 72.70 144.06 72.86
  Q 144.19 73.38 144.29 73.60
  Q 144.52 74.11 144.08 74.29
  Q 143.75 74.42 143.22 74.24
  Q 142.70 73.51 141.01 74.72
  A 1.59 1.57 -41.0 0 0 140.83 77.15
  Q 141.51 77.80 141.65 78.92
  A 1.41 1.41 0.0 0 1 141.36 79.96
  C 140.41 81.18 138.63 83.36 139.22 84.83
  A 0.35 0.35 0.0 0 0 139.82 84.92
  Q 142.19 81.85 143.16 78.50
  A 1.35 1.35 0.0 0 0 142.94 77.29
  Q 141.78 75.75 143.51 75.32
  Q 144.77 76.06 146.31 72.50
  Q 149.94 64.18 152.68 58.96
  A 1.10 1.10 0.0 0 0 152.68 57.92
  Q 151.93 56.52 152.12 54.66
  A 0.45 0.44 -61.0 0 1 152.91 54.43
  Q 153.39 55.04 153.31 54.69
  A 0.12 0.12 0.0 0 0 153.08 54.72
  Q 153.11 55.30 153.24 55.43
  A 0.61 0.60 -52.4 0 0 154.21 55.30
  Q 155.26 53.34 155.89 52.94
  A 0.86 0.03 -32.4 0 0 156.57 52.48
  Q 156.91 51.39 157.35 50.35
  A 0.65 0.64 12.0 0 1 157.96 49.96
  Q 158.01 49.96 158.05 49.96
  A 0.41 0.40 -8.0 0 0 158.46 49.42
  Q 158.35 49.15 158.50 48.97
  A 2.52 2.03 -21.3 0 0 158.97 48.15
  L 161.14 41.01
  A 0.45 0.45 0.0 0 0 160.87 40.46
  L 159.89 40.08
  A 0.77 0.77 0.0 0 1 159.93 38.62
  L 164.51 37.14
  A 0.45 0.43 -0.5 0 0 164.79 36.87
  Q 165.05 36.08 166.40 36.10
  A 0.48 0.45 66.3 0 1 166.73 36.24
  C 167.76 37.33 170.42 37.14 171.84 39.09
  A 0.69 0.68 72.2 0 0 172.37 39.37
  L 174.51 39.44
  A 0.40 0.40 0.0 0 0 174.76 38.71
  L 174.55 38.56
  A 0.17 0.17 0.0 0 1 174.66 38.25
  Q 175.80 38.29 175.97 38.62
  A 0.95 0.75 -4.8 0 0 176.61 39.04
  L 178.21 39.32
  Q 177.22 39.62 177.37 40.81
  A 1.32 1.30 61.0 0 1 177.09 41.82
  L 175.89 43.30
  A 0.99 0.96 55.6 0 0 175.73 44.22
  C 176.54 46.60 176.00 48.82 178.54 50.16
  Q 179.34 50.58 180.00 49.79
  A 1.21 1.16 -74.6 0 1 180.67 49.39
  L 185.70 48.40
  A 1.58 1.56 18.7 0 0 186.44 48.04
  Q 187.83 46.89 190.23 42.47
  Q 191.91 39.36 195.74 37.78
  A 3.09 2.97 -58.7 0 1 196.46 37.59
  Q 199.19 37.23 199.38 37.13
  C 201.25 36.10 203.48 36.88 205.40 36.15
  C 208.11 35.12 211.03 36.02 213.68 34.95
  A 2.96 2.89 -55.1 0 1 214.84 34.73
  C 216.91 34.74 218.27 34.77 220.76 34.22
  C 224.11 33.50 226.29 34.08 229.74 33.09
  A 4.90 4.73 36.9 0 1 231.28 32.90
  Q 234.96 33.02 236.65 32.57
  C 240.50 31.52 243.94 32.31 247.86 31.17
  A 1.62 1.61 -53.3 0 1 248.33 31.10
  L 255.65 31.01
  A 0.46 0.46 0.0 0 1 256.08 31.27
  L 256.21 31.52
  A 0.34 0.34 0.0 0 0 256.85 31.41
  Q 257.04 30.03 258.26 30.10
  Q 262.09 30.33 264.01 29.70
  C 266.61 28.86 268.82 29.56 271.18 28.89
  Q 273.97 28.09 275.94 28.27
  C 278.32 28.47 280.17 27.16 282.37 27.38
  C 285.50 27.71 288.60 26.24 291.66 26.44
  Q 294.06 26.60 295.25 26.13
  C 297.86 25.10 300.86 26.00 303.32 25.32
  Q 305.88 24.61 307.76 24.67
  Q 312.31 24.81 313.87 24.07
  A 3.20 3.18 36.3 0 1 315.74 23.79
  Q 318.81 24.26 325.30 23.02
  Q 327.69 22.56 328.18 25.53
  A 1.16 1.12 -34.5 0 1 328.02 26.32
  Q 327.34 27.46 327.30 29.48
  A 0.64 0.64 0.0 0 0 328.50 29.81
  C 330.27 26.72 332.23 22.88 335.83 22.16
  Q 338.37 21.65 347.15 20.39
  Q 349.45 20.06 351.38 20.10
  C 353.49 20.14 354.96 18.99 356.95 19.15
  Q 359.89 19.40 361.92 18.75
  C 364.84 17.81 367.67 18.81 369.96 17.85
  C 372.48 16.80 375.25 17.70 377.94 16.97
  C 381.11 16.10 383.70 16.94 386.24 16.06
  C 389.10 15.08 393.02 16.13 395.64 15.08
  C 397.26 14.43 399.15 14.67 401.23 14.68
  Q 402.47 14.68 405.21 13.96
  C 407.42 13.38 409.78 14.23 411.93 13.08
  A 0.86 0.86 0.0 0 1 413.09 14.25
  Q 412.15 16.04 412.32 17.44
  A 1.24 1.23 63.0 0 1 412.00 18.43
  Q 411.16 19.34 411.44 21.24
  A 1.37 1.35 -29.6 0 1 411.14 22.31
  Q 410.18 23.45 410.56 26.05
  A 0.80 0.80 0.0 0 0 412.10 26.22
  L 414.99 18.50
  A 0.22 0.17 64.5 0 0 415.01 18.41
  Q 415.15 15.75 416.83 13.25
  A 1.01 1.00 -70.7 0 1 417.75 12.80
  C 419.25 12.93 419.73 11.90 421.14 11.90
  Q 423.91 11.89 424.00 11.89
  A 3.80 3.79 35.3 0 0 425.60 11.62
  C 428.27 10.55 431.36 11.44 433.64 10.38
  C 435.28 9.62 437.18 10.40 439.08 9.63
  Q 440.61 9.00 443.09 9.11
  A 4.00 3.93 -54.5 0 0 444.79 8.81
  C 445.44 8.55 446.70 8.14 447.45 8.18
  Q 451.16 8.37 454.12 7.50
  A 5.21 5.11 -51.5 0 1 455.83 7.29
  Q 460.40 7.50 462.95 6.89
  C 466.37 6.07 470.63 6.92 473.30 5.97
  C 476.39 4.87 480.32 6.13 483.30 4.82
  A 2.93 2.87 -54.6 0 1 484.63 4.58
  C 486.03 4.66 490.13 4.94 491.63 3.98
  A 1.59 1.55 29.5 0 1 492.58 3.73
  Q 497.22 3.96 499.24 3.12
  C 501.25 2.28 504.03 3.36 506.28 2.03
  A 0.90 0.90 0.0 0 1 506.69 1.91
  L 510.05 1.73
  A 0.55 0.55 0.0 0 0 510.56 1.30
  Q 510.59 1.18 510.58 1.05
  A 0.37 0.36 -17.7 0 1 510.74 0.75
  Q 511.33 0.36 512.00 0.75
  Z
  M 480.75 19.76
  Q 480.92 19.87 481.09 20.15
  Q 481.19 20.33 480.91 20.80
  Q 480.17 22.06 480.32 23.12
  A 2.12 1.94 -3.4 0 0 482.39 24.80
  Q 485.88 24.82 487.33 22.00
  A 1.78 1.74 -35.1 0 0 487.52 20.99
  C 487.19 18.00 484.89 18.26 482.96 19.49
  A 0.87 0.86 -43.5 0 1 482.00 19.47
  L 481.21 18.92
  A 0.29 0.25 -26.0 0 0 481.02 18.87
  Q 480.58 18.92 480.60 19.50
  A 0.34 0.33 -75.8 0 0 480.75 19.76
  Z
  M 428.61 29.23
  Q 431.45 30.46 433.80 29.08
  Q 435.41 28.13 435.90 24.85
  A 0.64 0.62 8.8 0 0 435.37 24.14
  L 432.64 23.72
  A 0.82 0.82 0.0 0 0 431.71 24.40
  L 431.57 25.30
  A 0.42 0.41 8.8 0 1 431.09 25.65
  L 429.77 25.45
  A 0.76 0.76 0.0 0 0 428.97 25.86
  Q 428.24 27.29 428.11 28.36
  A 0.85 0.84 -75.0 0 0 428.61 29.23
  Z
  M 391.45 31.87
  A 1.92 1.75 -59.1 0 0 390.83 28.77
  Q 386.21 27.51 385.34 31.58
  A 1.84 1.84 0.0 0 0 387.45 33.78
  Q 390.05 33.33 391.45 31.87
  Z
  M 345.57 32.86
  L 342.65 33.16
  A 1.25 1.24 9.7 0 0 341.65 33.86
  Q 340.59 36.03 340.89 37.03
  A 1.17 1.16 87.7 0 0 341.74 37.82
  Q 344.76 38.51 346.87 34.89
  A 1.35 1.35 0.0 0 0 345.57 32.86
  Z
  M 307.75 36.62
  L 304.95 37.05
  A 1.20 1.19 6.9 0 0 304.02 37.77
  Q 303.10 39.91 303.44 40.86
  A 1.13 1.12 84.9 0 0 304.30 41.58
  Q 307.24 42.10 309.10 38.51
  A 1.30 1.30 0.0 0 0 307.75 36.62
  Z
  M 270.55 40.02
  Q 269.06 40.63 266.10 40.31
  A 1.20 1.19 12.1 0 0 264.84 41.12
  Q 263.84 44.18 263.27 45.70
  Q 263.11 46.12 262.81 46.30
  Q 262.19 46.68 262.11 46.92
  A 0.29 0.29 0.0 0 0 262.50 47.28
  Q 264.57 46.38 268.38 46.41
  A 0.52 0.51 -3.3 0 0 268.90 45.83
  Q 268.68 44.04 269.66 43.41
  A 0.87 0.84 84.5 0 0 269.99 43.00
  L 270.98 40.44
  A 0.33 0.33 0.0 0 0 270.55 40.02
  Z
  M 231.21 49.45
  C 232.68 48.17 234.40 48.17 236.06 46.00
  A 1.38 1.38 0.0 0 1 237.10 45.45
  Q 237.73 45.42 238.33 43.80
  A 0.13 0.13 0.0 0 0 238.12 43.67
  Q 237.85 43.96 234.40 43.78
  A 1.74 1.73 -62.3 0 0 233.22 44.15
  Q 231.58 45.40 230.99 49.33
  A 0.13 0.13 0.0 0 0 231.21 49.45
  Z
  M 197.40 48.67
  L 196.06 52.16
  A 0.36 0.36 0.0 0 0 196.43 52.65
  L 200.22 52.27
  A 0.34 0.33 -80.5 0 0 200.49 52.07
  L 202.27 48.18
  A 0.73 0.72 -80.6 0 0 201.54 47.15
  L 199.06 47.40
  A 2.01 2.00 7.5 0 0 197.40 48.67
  Z
  M 172.0333 50.3771
  A 2.72 1.38 -44.1 0 0 169.1196 51.2790
  A 2.72 1.38 -44.1 0 0 168.1267 54.1629
  A 2.72 1.38 -44.1 0 0 171.0404 53.2610
  A 2.72 1.38 -44.1 0 0 172.0333 50.3771
  Z
  M 469.03 80.51
  Q 468.30 79.93 467.86 79.14
  A 0.69 0.68 47.3 0 0 466.69 79.09
  C 463.08 84.49 471.12 84.84 473.11 80.88
  A 2.62 2.50 31.7 0 0 472.28 77.68
  Q 471.24 76.92 469.53 77.36
  A 0.66 0.66 0.0 0 0 469.05 78.12
  Q 469.20 78.99 469.80 79.74
  A 0.55 0.55 0.0 0 1 469.03 80.51
  Z
  M 415.11 83.27
  L 414.23 81.98
  A 0.92 0.91 -52.9 0 0 412.61 82.21
  Q 412.17 83.48 412.31 84.47
  A 2.23 1.99 -0.5 0 0 414.28 86.20
  Q 419.41 86.70 419.34 82.10
  A 1.61 1.61 0.0 0 0 417.98 80.53
  L 415.83 80.19
  A 0.90 0.90 0.0 0 0 414.94 81.56
  Q 415.81 82.91 415.69 83.21
  A 0.33 0.33 0.0 0 1 415.11 83.27
  Z
  M 394.99 81.50
  A 0.42 0.42 0.0 0 0 394.19 81.41
  Q 393.76 82.39 394.01 82.99
  A 0.47 0.46 -48.2 0 0 394.89 82.94
  Q 395.11 82.16 394.99 81.50
  Z
  M 369.45 83.69
  Q 369.12 84.56 368.64 85.13
  A 2.32 2.13 -67.0 0 0 369.98 88.90
  Q 373.12 89.05 374.45 85.10
  A 1.63 1.63 0.0 0 0 372.74 82.96
  L 370.03 83.24
  A 0.69 0.68 -82.5 0 0 369.45 83.69
  Z
  M 306.8544 85.3388
  A 0.92 0.66 -73.3 0 0 305.9578 86.0303
  A 0.92 0.66 -73.3 0 0 306.3256 87.1012
  A 0.92 0.66 -73.3 0 0 307.2222 86.4097
  A 0.92 0.66 -73.3 0 0 306.8544 85.3388
  Z
  M 327.7592 85.8138
  A 3.49 2.46 -44.5 0 0 323.5458 86.5054
  A 3.49 2.46 -44.5 0 0 322.7808 90.7062
  A 3.49 2.46 -44.5 0 0 326.9942 90.0146
  A 3.49 2.46 -44.5 0 0 327.7592 85.8138
  Z
  M 290.30 94.19
  L 291.81 88.86
  A 0.94 0.92 78.8 0 1 292.13 88.37
  Q 292.87 87.79 292.97 86.81
  A 0.43 0.42 -2.7 0 0 292.47 86.36
  L 287.01 87.34
  A 0.81 0.77 -30.7 0 1 286.37 87.19
  Q 286.19 87.04 286.16 87.02
  A 0.56 0.56 0.0 0 0 285.30 87.43
  L 285.21 88.25
  A 1.03 0.97 71.2 0 1 284.96 88.80
  Q 283.68 90.19 283.59 92.17
  A 1.48 1.42 -28.6 0 1 283.35 92.93
  L 282.18 94.68
  A 0.23 0.22 -62.4 0 0 282.28 95.01
  L 282.92 95.25
  A 0.09 0.08 -56.0 0 0 283.01 95.23
  Q 283.80 94.35 284.50 94.17
  A 1.11 1.03 -39.4 0 1 285.17 94.21
  Q 286.49 94.74 287.51 94.23
  A 1.21 1.19 -45.6 0 1 288.53 94.21
  Q 289.16 94.50 289.86 94.52
  A 0.44 0.44 0.0 0 0 290.30 94.19
  Z
  M 242.41 96.62
  L 248.86 96.13
  A 0.30 0.29 83.7 0 0 249.13 95.79
  Q 248.87 94.10 250.05 92.57
  Q 250.39 92.14 250.86 89.98
  A 0.44 0.44 0.0 0 0 250.45 89.45
  L 245.44 89.29
  A 0.59 0.59 0.0 0 0 244.86 89.67
  L 242.74 95.18
  A 0.67 0.67 0.0 0 1 242.47 95.51
  Q 241.09 96.33 242.36 96.62
  A 0.07 0.05 31.7 0 0 242.41 96.62
  Z
  M 211.21 96.83
  Q 214.68 95.91 215.25 93.69
  A 1.86 1.60 -14.9 0 0 212.30 92.26
  Q 210.37 93.74 210.56 96.38
  A 0.52 0.51 -9.9 0 0 211.21 96.83
  Z
  M 176.79 93.44
  L 174.55 99.28
  A 0.25 0.25 0.0 0 0 174.81 99.62
  L 178.65 99.23
  A 1.03 1.01 -81.9 0 0 179.50 98.58
  L 180.86 95.03
  A 1.04 1.04 0.0 0 0 179.76 93.62
  Q 177.34 93.92 176.97 93.42
  A 0.10 0.10 0.0 0 0 176.79 93.44
  Z
  M 150.3420 95.9355
  A 2.75 1.68 -47.1 0 0 147.2393 96.8064
  A 2.75 1.68 -47.1 0 0 146.5980 99.9645
  A 2.75 1.68 -47.1 0 0 149.7007 99.0936
  A 2.75 1.68 -47.1 0 0 150.3420 95.9355
  Z"
/>
<path fill="#7a7854" d="
  M 159.51 32.54
  Q 159.38 33.48 159.92 33.93
  Q 160.23 34.19 160.63 34.03
  Q 160.98 33.90 161.29 33.61
  L 167.49 33.52
  L 169.20 34.46
  A 0.44 0.44 0.0 0 0 169.85 34.18
  Q 170.01 33.48 169.85 32.34
  Q 172.14 30.55 176.10 33.65
  Q 177.48 34.72 181.29 37.17
  A 1.56 1.56 0.0 0 0 182.01 37.41
  L 185.46 37.67
  Q 185.39 38.26 185.52 38.71
  Q 184.67 39.04 183.81 39.00
  Q 182.44 38.64 181.93 39.17
  L 178.21 39.32
  L 176.61 39.04
  A 0.95 0.75 -4.8 0 1 175.97 38.62
  Q 175.80 38.29 174.66 38.25
  A 0.17 0.17 0.0 0 0 174.55 38.56
  L 174.76 38.71
  A 0.40 0.40 0.0 0 1 174.51 39.44
  L 172.37 39.37
  A 0.69 0.68 72.2 0 1 171.84 39.09
  C 170.42 37.14 167.76 37.33 166.73 36.24
  A 0.48 0.45 66.3 0 0 166.40 36.10
  Q 165.05 36.08 164.79 36.87
  A 0.45 0.43 -0.5 0 1 164.51 37.14
  L 159.93 38.62
  A 0.77 0.77 0.0 0 0 159.89 40.08
  L 160.87 40.46
  A 0.45 0.45 0.0 0 1 161.14 41.01
  L 158.97 48.15
  A 2.52 2.03 -21.3 0 1 158.50 48.97
  Q 158.35 49.15 158.46 49.42
  A 0.41 0.40 -8.0 0 1 158.05 49.96
  Q 158.01 49.96 157.96 49.96
  A 0.65 0.64 12.0 0 0 157.35 50.35
  Q 156.91 51.39 156.57 52.48
  A 0.86 0.03 -32.4 0 1 155.89 52.94
  Q 155.26 53.34 154.21 55.30
  A 0.61 0.60 -52.4 0 1 153.24 55.43
  Q 153.11 55.30 153.08 54.72
  A 0.12 0.12 0.0 0 1 153.31 54.69
  Q 153.39 55.04 152.91 54.43
  A 0.45 0.44 -61.0 0 0 152.12 54.66
  Q 151.93 56.52 152.68 57.92
  A 1.10 1.10 0.0 0 1 152.68 58.96
  Q 149.94 64.18 146.31 72.50
  Q 144.77 76.06 143.51 75.32
  Q 143.03 75.03 143.22 74.24
  Q 143.75 74.42 144.08 74.29
  Q 144.52 74.11 144.29 73.60
  Q 144.19 73.38 144.06 72.86
  Q 144.02 72.70 144.50 72.24
  Q 146.32 70.48 146.44 67.55
  A 0.30 0.30 0.0 0 0 146.07 67.24
  L 145.84 67.30
  A 0.14 0.13 87.4 0 0 145.74 67.42
  Q 145.19 70.66 143.94 72.29
  A 0.97 0.97 0.0 0 1 143.18 72.66
  Q 138.54 72.72 138.35 76.34
  A 0.71 0.71 0.0 0 1 137.72 77.01
  L 134.66 77.33
  L 134.95 75.46
  Q 136.57 75.99 137.47 75.29
  A 0.94 0.94 0.0 0 0 137.21 73.66
  Q 136.05 73.25 135.44 74.87
  Q 134.78 71.92 136.59 69.99
  A 1.29 1.28 -69.2 0 1 137.47 69.59
  Q 139.65 69.51 140.51 67.71
  Q 141.73 65.19 143.17 61.20
  Q 143.84 59.34 145.57 59.61
  A 0.97 0.97 0.0 0 0 146.43 59.31
  Q 148.56 57.05 149.26 55.40
  A 1.20 1.18 -87.5 0 1 149.96 54.75
  Q 151.11 54.37 151.67 54.00
  A 1.16 1.15 -49.5 0 0 151.52 51.98
  Q 150.51 51.52 151.11 49.93
  A 0.37 0.37 0.0 0 0 150.50 49.54
  C 150.21 49.83 149.98 50.21 149.42 50.30
  Q 148.84 50.40 148.06 49.72
  A 0.12 0.12 0.0 0 1 148.14 49.51
  L 149.80 49.56
  A 0.33 0.33 0.0 0 0 150.14 49.24
  L 150.15 48.95
  A 0.43 0.43 0.0 0 0 149.69 48.50
  Q 148.75 48.56 148.05 47.55
  A 1.14 1.12 -53.5 0 1 147.91 46.55
  Q 148.72 44.28 151.35 44.09
  A 0.60 0.59 -14.0 0 1 151.94 44.44
  Q 152.01 44.59 152.02 44.60
  A 0.61 0.60 -29.6 0 0 152.90 44.84
  Q 153.47 44.48 153.56 43.69
  A 0.89 0.89 0.0 0 0 153.17 42.85
  Q 152.15 42.17 152.32 41.05
  L 152.49 40.11
  A 0.95 0.87 -51.2 0 0 152.46 39.63
  L 147.91 25.60
  Q 147.85 21.83 149.36 18.82
  A 0.33 0.33 0.0 0 1 149.98 18.98
  L 149.80 24.34
  A 0.45 0.45 0.0 0 0 150.34 24.79
  Q 151.04 24.63 151.87 25.16
  A 2.58 2.53 61.3 0 0 153.22 25.57
  C 156.90 25.62 158.23 29.44 159.51 32.54
  Z
  M 155.16 44.27
  L 157.11 45.24
  A 0.79 0.79 0.0 0 0 158.17 44.88
  L 158.92 43.35
  A 2.65 1.78 -63.8 0 0 158.49 40.19
  L 158.31 40.10
  A 2.65 1.78 -63.8 0 0 155.55 41.69
  L 154.80 43.22
  A 0.79 0.79 0.0 0 0 155.16 44.27
  Z"
/>
<path fill="#c7bea8" d="
  M 480.60 19.50
  Q 480.58 18.92 481.02 18.87
  A 0.29 0.25 -26.0 0 1 481.21 18.92
  L 482.00 19.47
  A 0.87 0.86 -43.5 0 0 482.96 19.49
  C 484.89 18.26 487.19 18.00 487.52 20.99
  A 1.78 1.74 -35.1 0 1 487.33 22.00
  Q 485.88 24.82 482.39 24.80
  A 2.12 1.94 -3.4 0 1 480.32 23.12
  Q 480.17 22.06 480.91 20.80
  Q 481.19 20.33 481.09 20.15
  Q 480.92 19.87 480.75 19.76
  A 0.34 0.33 -75.8 0 1 480.60 19.50
  Z"
/>
<path fill="#010101" d="
  M 128.15 27.55
  Q 127.67 26.22 127.91 24.82
  A 0.13 0.12 9.1 0 0 127.80 24.68
  A 0.13 0.12 -80.9 0 0 127.66 24.79
  L 127.13 27.72
  L 127.70 22.01
  A 0.10 0.10 0.0 0 1 127.90 22.01
  L 128.15 27.55
  Z"
/>
<path fill="#c7bea8" d="
  M 428.11 28.36
  Q 428.24 27.29 428.97 25.86
  A 0.76 0.76 0.0 0 1 429.77 25.45
  L 431.09 25.65
  A 0.42 0.41 8.8 0 0 431.57 25.30
  L 431.71 24.40
  A 0.82 0.82 0.0 0 1 432.64 23.72
  L 435.37 24.14
  A 0.64 0.62 8.8 0 1 435.90 24.85
  Q 435.41 28.13 433.80 29.08
  Q 431.45 30.46 428.61 29.23
  A 0.85 0.84 -75.0 0 1 428.11 28.36
  Z"
/>
<path fill="#c7bea8" d="
  M 128.15 27.55
  L 129.07 31.14
  Q 128.78 33.02 129.97 33.55
  Q 130.59 33.82 130.88 33.21
  Q 130.99 32.97 130.71 32.68
  C 130.94 29.32 133.99 28.78 136.54 27.78
  C 138.02 27.21 139.32 27.65 140.56 26.88
  A 2.37 2.36 24.9 0 1 141.47 26.55
  C 142.91 26.34 143.18 26.73 144.90 25.92
  Q 146.13 25.34 147.91 25.60
  L 152.46 39.63
  A 0.95 0.87 -51.2 0 1 152.49 40.11
  L 152.32 41.05
  L 144.66 44.25
  A 1.81 1.78 10.0 0 0 144.02 44.69
  Q 142.24 46.61 140.05 46.30
  A 0.89 0.89 0.0 0 0 139.08 46.91
  Q 139.00 47.18 138.96 47.25
  A 1.79 1.76 5.6 0 1 138.07 47.97
  Q 136.03 48.76 130.19 52.15
  Q 127.33 53.81 125.12 51.46
  A 0.79 0.78 -22.8 0 0 124.50 51.21
  L 109.48 52.26
  Q 108.79 52.34 107.46 51.93
  Q 106.77 50.10 104.45 42.79
  Q 103.52 39.87 105.82 39.34
  L 108.04 38.70
  Q 108.46 38.74 108.79 38.55
  L 112.96 38.41
  L 113.79 38.36
  L 116.05 38.21
  Q 117.60 38.23 116.26 36.69
  L 113.96 28.49
  A 0.63 0.51 70.0 0 1 114.20 27.80
  L 114.23 27.79
  A 0.48 0.44 65.3 0 1 114.85 28.05
  L 118.03 35.46
  Q 118.11 36.86 118.82 37.90
  A 0.63 0.61 -18.7 0 0 119.39 38.17
  Q 120.20 38.10 120.52 37.04
  L 124.07 36.54
  A 2.46 2.45 -64.5 0 0 125.02 36.20
  L 126.87 35.06
  A 1.99 1.99 0.0 0 0 127.64 32.58
  Q 126.75 30.52 127.13 27.72
  L 127.66 24.79
  A 0.13 0.12 -80.9 0 1 127.80 24.68
  A 0.13 0.12 9.1 0 1 127.91 24.82
  Q 127.67 26.22 128.15 27.55
  Z"
/>
<path fill="#c7bea8" d="
  M 391.45 31.87
  Q 390.05 33.33 387.45 33.78
  A 1.84 1.84 0.0 0 1 385.34 31.58
  Q 386.21 27.51 390.83 28.77
  A 1.92 1.75 -59.1 0 1 391.45 31.87
  Z"
/>
<path fill="#010101" d="
  M 130.71 32.68
  Q 130.99 32.97 130.88 33.21
  Q 130.59 33.82 129.97 33.55
  Q 128.78 33.02 129.07 31.14
  Q 129.95 32.83 130.71 32.68
  Z"
/>
<path fill="#010101" d="
  M 161.29 33.61
  Q 160.98 33.90 160.63 34.03
  Q 160.23 34.19 159.92 33.93
  Q 159.38 33.48 159.51 32.54
  L 161.29 33.61
  Z"
/>
<path fill="#010101" d="
  M 169.85 32.34
  Q 170.01 33.48 169.85 34.18
  A 0.44 0.44 0.0 0 1 169.20 34.46
  L 167.49 33.52
  L 169.85 32.34
  Z"
/>
<path fill="#c7bea8" d="
  M 345.57 32.86
  A 1.35 1.35 0.0 0 1 346.87 34.89
  Q 344.76 38.51 341.74 37.82
  A 1.17 1.16 87.7 0 1 340.89 37.03
  Q 340.59 36.03 341.65 33.86
  A 1.25 1.24 9.7 0 1 342.65 33.16
  L 345.57 32.86
  Z"
/>
<path fill="#866930" d="
  M 106.71 38.04
  Q 106.06 38.06 105.71 38.54
  Q 105.65 38.54 105.58 38.54
  L 93.49 44.09
  A 0.98 0.97 68.8 0 0 92.97 45.27
  L 93.94 48.26
  A 0.65 0.65 0.0 0 0 95.21 48.09
  L 95.29 45.86
  A 1.23 1.21 -19.5 0 1 95.74 44.94
  Q 97.44 43.52 100.76 42.37
  A 0.58 0.58 0.0 0 1 101.49 42.74
  L 104.50 52.05
  A 0.75 0.74 80.5 0 0 105.22 52.57
  L 107.28 52.55
  Q 103.75 54.99 99.46 55.82
  A 3.84 3.50 -47.6 0 1 98.80 55.88
  L 95.51 55.82
  A 1.10 1.07 18.6 0 0 94.62 56.25
  Q 93.21 58.14 90.21 58.55
  A 1.25 1.22 57.3 0 1 89.34 58.35
  Q 86.39 56.33 85.77 54.05
  Q 85.87 50.72 83.86 47.89
  A 0.72 0.71 64.7 0 0 83.09 47.61
  Q 81.83 47.95 80.70 47.33
  Q 81.20 46.59 82.12 46.57
  A 1.13 1.13 0.0 0 0 82.83 46.32
  Q 83.60 45.69 84.43 45.41
  Q 85.62 45.99 86.50 45.00
  Q 86.74 44.73 86.69 43.66
  Q 93.42 39.25 102.61 35.34
  Q 104.34 34.60 105.86 34.40
  A 0.76 0.75 -17.0 0 1 106.62 34.80
  L 107.50 36.53
  A 0.94 0.94 0.0 0 1 107.39 37.54
  Q 107.12 37.87 106.71 38.04
  Z
  M 97.28 54.29
  L 92.25 47.10
  A 0.16 0.16 0.0 0 0 92.03 47.06
  L 91.91 47.14
  A 3.83 2.62 55.0 0 0 91.96 51.78
  L 92.79 52.96
  A 3.83 2.62 55.0 0 0 97.13 54.59
  L 97.24 54.51
  A 0.16 0.16 0.0 0 0 97.28 54.29
  Z"
/>
<path fill="#010101" d="
  M 120.52 37.04
  Q 120.20 38.10 119.39 38.17
  A 0.63 0.61 -18.7 0 1 118.82 37.90
  Q 118.11 36.86 118.03 35.46
  Q 119.18 36.67 120.52 37.04
  Z"
/>
<path fill="#010101" d="
  M 116.05 38.21
  L 116.26 36.69
  Q 117.60 38.23 116.05 38.21
  Z"
/>
<path fill="#c7bea8" d="
  M 307.75 36.62
  A 1.30 1.30 0.0 0 1 309.10 38.51
  Q 307.24 42.10 304.30 41.58
  A 1.13 1.12 84.9 0 1 303.44 40.86
  Q 303.10 39.91 304.02 37.77
  A 1.20 1.19 6.9 0 1 304.95 37.05
  L 307.75 36.62
  Z"
/>
<path fill="#010101" d="
  M 185.52 38.71
  Q 185.39 38.26 185.46 37.67
  Q 185.89 37.69 185.87 38.25
  Q 185.86 38.69 185.52 38.71
  Z"
/>
<path fill="#010101" d="
  M 106.71 38.04
  Q 106.28 38.58 105.71 38.54
  Q 106.06 38.06 106.71 38.04
  Z"
/>
<path fill="#010101" d="
  M 113.79 38.36
  L 112.96 38.41
  L 113.79 38.36
  Z"
/>
<path fill="#010101" d="
  M 105.58 38.54
  Q 105.52 38.73 105.82 39.34
  Q 103.52 39.87 104.45 42.79
  Q 106.77 50.10 107.46 51.93
  Q 107.65 52.18 107.28 52.55
  L 105.22 52.57
  A 0.75 0.74 80.5 0 1 104.50 52.05
  L 101.49 42.74
  A 0.58 0.58 0.0 0 0 100.76 42.37
  Q 97.44 43.52 95.74 44.94
  A 1.23 1.21 -19.5 0 0 95.29 45.86
  L 95.21 48.09
  A 0.65 0.65 0.0 0 1 93.94 48.26
  L 92.97 45.27
  A 0.98 0.97 68.8 0 1 93.49 44.09
  L 105.58 38.54
  Z"
/>
<path fill="#010101" d="
  M 108.79 38.55
  Q 108.46 38.74 108.04 38.70
  L 108.79 38.55
  Z"
/>
<path fill="#010101" d="
  M 183.81 39.00
  Q 183.05 39.32 181.93 39.17
  Q 182.44 38.64 183.81 39.00
  Z"
/>
<path fill="#866930" d="
  M 78.42 43.33
  L 78.63 44.21
  L 78.77 45.08
  Q 78.00 46.28 76.69 46.31
  L 75.04 43.11
  A 0.90 0.89 41.8 0 0 73.41 43.20
  L 72.49 45.60
  A 0.80 0.79 26.8 0 0 72.81 46.55
  Q 73.47 46.96 74.48 46.75
  L 71.31 47.31
  A 0.61 0.60 77.1 0 1 70.63 46.88
  Q 69.74 43.68 67.68 41.22
  Q 67.32 40.79 68.30 39.86
  Q 72.04 38.92 76.16 39.33
  A 1.24 1.22 -16.9 0 1 76.98 39.76
  Q 78.09 41.07 78.42 43.33
  Z"
/>
<path fill="#010101" d="
  M 67.44 39.79
  L 66.97 39.85
  A 0.45 0.44 67.5 0 0 66.68 40.56
  Q 67.94 42.22 68.39 44.95
  Q 68.78 47.26 70.11 48.16
  Q 69.55 51.44 65.93 52.50
  L 66.91 48.83
  A 0.83 0.72 -47.4 0 0 66.92 48.46
  Q 66.67 47.27 64.85 46.80
  A 0.26 0.26 0.0 0 1 64.80 46.32
  L 65.94 45.74
  A 0.68 0.67 -54.5 0 0 65.73 44.47
  Q 62.47 43.99 59.85 41.00
  Q 59.94 40.82 60.39 40.50
  A 1.23 1.22 25.1 0 1 61.04 40.27
  L 67.44 39.79
  Z"
/>
<path fill="#f3d86f" d="
  M 155.16 44.27
  A 0.79 0.79 0.0 0 1 154.80 43.22
  L 155.55 41.69
  A 2.65 1.78 -63.8 0 1 158.31 40.10
  L 158.49 40.19
  A 2.65 1.78 -63.8 0 1 158.92 43.35
  L 158.17 44.88
  A 0.79 0.79 0.0 0 1 157.11 45.24
  L 155.16 44.27
  Z"
/>
<path fill="#c7bea8" d="
  M 270.98 40.44
  L 269.99 43.00
  A 0.87 0.84 84.5 0 1 269.66 43.41
  Q 268.68 44.04 268.90 45.83
  A 0.52 0.51 -3.3 0 1 268.38 46.41
  Q 264.57 46.38 262.50 47.28
  A 0.29 0.29 0.0 0 1 262.11 46.92
  Q 262.19 46.68 262.81 46.30
  Q 263.11 46.12 263.27 45.70
  Q 263.84 44.18 264.84 41.12
  A 1.20 1.19 12.1 0 1 266.10 40.31
  Q 269.06 40.63 270.55 40.02
  A 0.33 0.33 0.0 0 1 270.98 40.44
  Z"
/>
<path fill="#7a7854" d="
  M 67.44 39.79
  Q 67.83 40.08 68.30 39.86
  Q 67.32 40.79 67.68 41.22
  Q 69.74 43.68 70.63 46.88
  A 0.61 0.60 77.1 0 0 71.31 47.31
  L 74.48 46.75
  L 76.69 46.31
  Q 78.00 46.28 78.77 45.08
  Q 79.57 45.51 79.54 47.04
  L 80.01 48.35
  Q 79.56 49.95 81.52 51.99
  Q 81.20 51.90 80.98 51.88
  A 0.54 0.54 0.0 0 0 80.43 52.59
  L 82.81 59.97
  A 0.48 0.44 9.0 0 0 83.00 60.21
  Q 83.46 60.50 83.79 61.42
  A 0.77 0.76 41.7 0 0 85.26 61.35
  Q 85.49 60.28 86.79 60.73
  Q 86.30 61.53 85.41 61.91
  A 1.03 1.03 0.0 0 0 85.66 63.88
  Q 89.79 64.52 92.94 62.00
  L 93.72 61.85
  A 0.56 0.56 0.0 0 1 94.35 62.62
  Q 94.29 62.77 94.25 62.86
  A 1.73 1.71 40.7 0 0 94.37 64.35
  L 95.22 65.80
  A 0.77 0.77 0.0 0 1 95.02 66.80
  L 91.49 69.48
  Q 90.73 69.94 89.94 69.87
  A 0.51 0.51 0.0 0 1 89.75 68.91
  L 92.66 67.43
  A 0.48 0.47 44.5 0 0 92.65 66.58
  Q 88.64 64.60 86.52 67.50
  A 1.43 1.43 0.0 0 1 85.50 68.08
  Q 83.05 68.31 80.32 69.71
  A 1.80 1.76 -53.2 0 1 79.21 69.88
  Q 78.68 69.78 78.26 69.45
  Q 77.85 69.12 76.77 69.62
  Q 75.97 69.98 74.63 70.11
  A 0.65 0.64 -2.5 0 0 74.05 70.74
  Q 74.03 71.69 74.48 72.22
  A 0.46 0.46 0.0 0 1 74.31 72.93
  Q 73.49 73.29 72.63 73.03
  A 0.56 0.55 -68.4 0 1 72.30 72.26
  Q 72.85 71.18 72.38 69.33
  A 0.74 0.73 -15.9 0 1 72.87 68.45
  L 73.63 68.20
  A 0.80 0.80 0.0 0 0 74.19 67.51
  L 74.44 65.02
  L 74.83 65.16
  A 0.64 0.62 -59.8 0 0 75.50 64.97
  Q 75.86 64.55 75.90 64.22
  Q 76.97 57.09 76.60 54.75
  Q 75.98 50.83 74.80 52.69
  Q 74.18 50.72 73.17 51.07
  C 74.96 48.42 72.20 46.20 70.11 48.16
  Q 68.78 47.26 68.39 44.95
  Q 67.94 42.22 66.68 40.56
  A 0.45 0.44 67.5 0 1 66.97 39.85
  L 67.44 39.79
  Z
  M 75.86 65.40
  Q 75.90 66.06 75.35 67.69
  A 0.60 0.59 86.9 0 0 76.16 68.42
  L 79.73 66.82
  A 1.54 1.54 0.0 0 0 79.10 63.87
  Q 78.58 63.86 76.34 64.68
  A 0.74 0.72 -12.1 0 0 75.86 65.40
  Z"
/>
<path fill="#866930" d="
  M 152.32 41.05
  Q 152.15 42.17 153.17 42.85
  A 0.89 0.89 0.0 0 1 153.56 43.69
  Q 153.47 44.48 152.90 44.84
  A 0.61 0.60 -29.6 0 1 152.02 44.60
  Q 152.01 44.59 151.94 44.44
  A 0.60 0.59 -14.0 0 0 151.35 44.09
  Q 148.72 44.28 147.91 46.55
  A 1.14 1.12 -53.5 0 0 148.05 47.55
  Q 148.75 48.56 149.69 48.50
  A 0.43 0.43 0.0 0 1 150.15 48.95
  L 150.14 49.24
  A 0.33 0.33 0.0 0 1 149.80 49.56
  L 148.14 49.51
  A 0.12 0.12 0.0 0 0 148.06 49.72
  Q 148.84 50.40 149.42 50.30
  C 149.98 50.21 150.21 49.83 150.50 49.54
  A 0.37 0.37 0.0 0 1 151.11 49.93
  Q 150.51 51.52 151.52 51.98
  A 1.16 1.15 -49.5 0 1 151.67 54.00
  Q 151.11 54.37 149.96 54.75
  A 1.20 1.18 -87.5 0 0 149.26 55.40
  Q 148.56 57.05 146.43 59.31
  A 0.97 0.97 0.0 0 1 145.57 59.61
  Q 143.84 59.34 143.17 61.20
  Q 141.73 65.19 140.51 67.71
  Q 139.65 69.51 137.47 69.59
  A 1.29 1.28 -69.2 0 0 136.59 69.99
  Q 134.78 71.92 135.44 74.87
  Q 135.25 74.70 134.95 75.46
  L 134.66 77.33
  Q 134.43 81.08 137.31 82.93
  A 0.93 0.91 -73.3 0 1 137.74 83.75
  L 137.71 84.69
  A 0.78 0.78 0.0 0 0 138.30 85.47
  Q 139.47 85.76 138.89 86.73
  Q 137.24 89.48 136.77 91.30
  Q 135.86 94.84 131.89 94.43
  Q 123.97 93.62 121.75 93.81
  Q 117.07 94.20 112.53 93.20
  Q 110.42 92.74 108.28 92.97
  L 98.44 92.51
  A 1.18 1.18 0.0 0 0 97.27 94.09
  L 99.38 99.93
  Q 97.70 96.52 95.94 95.25
  A 0.68 0.68 0.0 0 0 94.88 95.94
  L 95.88 100.62
  A 1.07 0.66 -76.7 0 0 95.93 100.77
  Q 97.30 103.52 97.66 106.83
  A 1.04 1.01 -74.3 0 0 98.05 107.55
  Q 99.20 108.47 98.95 110.18
  L 97.02 108.70
  A 1.61 1.60 -82.2 0 1 96.53 108.05
  Q 94.07 101.82 88.61 97.49
  A 1.22 1.17 -80.5 0 1 88.23 96.93
  L 87.56 94.86
  A 0.62 0.62 0.0 0 1 88.24 94.06
  Q 90.55 94.42 91.49 94.07
  A 0.91 0.91 0.0 0 0 91.56 92.40
  Q 90.23 91.78 88.50 91.67
  Q 79.22 91.13 70.75 90.44
  Q 67.93 90.21 64.16 90.53
  Q 65.57 88.11 67.13 85.65
  Q 67.34 85.31 67.67 83.01
  A 0.63 0.63 0.0 0 0 67.07 82.28
  L 60.00 82.04
  A 0.72 0.72 0.0 0 0 59.30 82.98
  L 59.96 85.03
  A 1.08 1.06 -42.5 0 1 59.92 85.78
  L 58.36 89.32
  Q 58.35 86.99 57.26 87.42
  Q 58.71 85.54 57.98 83.36
  A 0.87 0.85 -7.0 0 0 57.22 82.78
  L 54.34 82.61
  L 54.45 81.70
  L 65.62 80.64
  A 1.84 1.84 0.0 0 0 67.28 78.87
  L 67.35 76.74
  A 1.53 1.53 0.0 0 0 65.70 75.16
  L 54.94 75.97
  L 59.30 75.45
  A 0.44 0.44 0.0 0 0 59.62 74.79
  L 59.46 74.53
  L 67.87 73.56
  A 0.49 0.49 0.0 0 0 68.30 73.01
  L 67.92 69.68
  Q 68.69 70.35 69.44 68.88
  Q 69.05 73.73 72.97 74.11
  Q 76.71 74.48 76.80 74.55
  A 1.86 1.82 59.6 0 0 78.06 74.89
  L 81.59 74.52
  A 0.91 0.86 -38.5 0 1 81.94 74.55
  Q 84.45 75.18 85.33 74.80
  Q 87.41 73.91 91.30 71.67
  Q 92.39 71.04 92.38 69.98
  Q 92.38 69.72 91.49 69.48
  L 95.02 66.80
  A 0.77 0.77 0.0 0 0 95.22 65.80
  L 94.37 64.35
  A 1.73 1.71 40.7 0 1 94.25 62.86
  Q 94.29 62.77 94.35 62.62
  A 0.56 0.56 0.0 0 0 93.72 61.85
  L 92.94 62.00
  L 103.24 56.79
  A 1.24 1.24 0.0 0 1 104.15 56.71
  Q 105.68 57.14 107.16 56.32
  A 0.51 0.50 67.1 0 1 107.89 56.62
  Q 108.16 57.52 109.37 57.08
  Q 110.23 56.76 110.97 56.15
  A 0.41 0.41 0.0 0 0 110.67 55.43
  L 109.18 55.58
  A 0.73 0.73 0.0 0 1 108.73 54.22
  Q 110.11 53.39 110.63 53.77
  A 1.21 1.21 0.0 0 0 112.33 53.51
  Q 112.38 53.45 112.24 53.23
  A 0.46 0.45 -24.5 0 0 111.74 53.05
  Q 109.09 53.87 109.48 52.26
  L 124.50 51.21
  A 0.79 0.78 -22.8 0 1 125.12 51.46
  Q 127.33 53.81 130.19 52.15
  Q 136.03 48.76 138.07 47.97
  A 1.79 1.76 5.6 0 0 138.96 47.25
  Q 139.00 47.18 139.08 46.91
  A 0.89 0.89 0.0 0 1 140.05 46.30
  Q 142.24 46.61 144.02 44.69
  A 1.81 1.78 10.0 0 1 144.66 44.25
  L 152.32 41.05
  Z
  M 125.43 54.67
  A 0.46 0.45 -61.4 0 0 125.18 53.81
  L 113.63 54.97
  A 1.68 1.66 -68.6 0 0 112.73 55.37
  C 111.88 56.11 112.02 57.27 110.62 57.92
  Q 97.32 64.15 96.26 64.66
  A 0.97 0.97 0.0 0 0 96.03 66.24
  L 97.42 67.48
  A 2.05 2.05 0.0 0 0 99.71 67.78
  L 125.43 54.67
  Z
  M 109.41 64.07
  A 1.22 1.22 0.0 0 0 109.37 66.06
  Q 111.40 67.56 112.21 67.76
  A 1.61 1.60 12.8 0 0 114.16 66.54
  L 114.58 64.59
  A 1.23 1.22 10.8 0 0 113.58 63.13
  Q 111.35 62.77 109.41 64.07
  Z
  M 103.93 67.60
  A 0.46 0.46 0.0 0 0 103.41 66.92
  Q 100.12 67.85 98.86 70.71
  A 0.45 0.45 0.0 0 0 99.29 71.34
  Q 101.02 71.28 101.63 70.63
  Q 103.05 69.11 103.93 67.60
  Z
  M 128.7794 74.4121
  A 2.01 1.12 -96.3 0 0 127.8868 76.5329
  A 2.01 1.12 -96.3 0 0 129.2206 78.4079
  A 2.01 1.12 -96.3 0 0 130.1132 76.2871
  A 2.01 1.12 -96.3 0 0 128.7794 74.4121
  Z"
/>
<path fill="#7a7854" d="
  M 59.85 41.00
  Q 62.47 43.99 65.73 44.47
  A 0.68 0.67 -54.5 0 1 65.94 45.74
  L 64.80 46.32
  A 0.26 0.26 0.0 0 0 64.85 46.80
  Q 66.67 47.27 66.92 48.46
  A 0.83 0.72 -47.4 0 1 66.91 48.83
  L 65.93 52.50
  Q 59.42 51.09 58.83 43.51
  Q 58.76 42.66 59.85 41.00
  Z"
/>
<path fill="#f3d86f" d="
  M 76.69 46.31
  L 74.48 46.75
  Q 73.47 46.96 72.81 46.55
  A 0.80 0.79 26.8 0 1 72.49 45.60
  L 73.41 43.20
  A 0.90 0.89 41.8 0 1 75.04 43.11
  L 76.69 46.31
  Z"
/>
<path fill="#010101" d="
  M 78.63 44.21
  L 78.42 43.33
  Q 78.71 43.47 78.63 44.21
  Z"
/>
<path fill="#c7bea8" d="
  M 231.21 49.45
  A 0.13 0.13 0.0 0 1 230.99 49.33
  Q 231.58 45.40 233.22 44.15
  A 1.74 1.73 -62.3 0 1 234.40 43.78
  Q 237.85 43.96 238.12 43.67
  A 0.13 0.13 0.0 0 1 238.33 43.80
  Q 237.73 45.42 237.10 45.45
  A 1.38 1.38 0.0 0 0 236.06 46.00
  C 234.40 48.17 232.68 48.17 231.21 49.45
  Z"
/>
<path fill="#7a7854" d="
  M 86.69 43.66
  Q 86.74 44.73 86.50 45.00
  Q 85.62 45.99 84.43 45.41
  L 86.69 43.66
  Z"
/>
<path fill="#010101" d="
  M 183.85 43.94
  A 0.50 0.46 49.3 0 1 183.82 44.85
  Q 183.58 44.91 183.01 44.51
  A 0.33 0.33 0.0 0 1 183.08 43.93
  Q 183.52 43.77 183.85 43.94
  Z"
/>
<path fill="#010101" d="
  M 80.70 47.33
  Q 81.83 47.95 83.09 47.61
  A 0.72 0.71 64.7 0 1 83.86 47.89
  Q 85.87 50.72 85.77 54.05
  Q 83.33 51.32 81.49 49.26
  Q 80.84 48.54 80.01 48.35
  L 79.54 47.04
  L 79.70 47.35
  A 0.37 0.36 66.2 0 0 80.15 47.53
  L 80.70 47.33
  Z"
/>
<path fill="#c7bea8" d="
  M 197.40 48.67
  A 2.01 2.00 7.5 0 1 199.06 47.40
  L 201.54 47.15
  A 0.73 0.72 -80.6 0 1 202.27 48.18
  L 200.49 52.07
  A 0.34 0.33 -80.5 0 1 200.22 52.27
  L 196.43 52.65
  A 0.36 0.36 0.0 0 1 196.06 52.16
  L 197.40 48.67
  Z"
/>
<path fill="#f3d86f" d="
  M 97.28 54.29
  A 0.16 0.16 0.0 0 1 97.24 54.51
  L 97.13 54.59
  A 3.83 2.62 55.0 0 1 92.79 52.96
  L 91.96 51.78
  A 3.83 2.62 55.0 0 1 91.91 47.14
  L 92.03 47.06
  A 0.16 0.16 0.0 0 1 92.25 47.10
  L 97.28 54.29
  Z"
/>
<path fill="#f3d86f" d="
  M 80.01 48.35
  Q 80.84 48.54 81.49 49.26
  Q 83.33 51.32 85.77 54.05
  Q 86.39 56.33 89.34 58.35
  A 1.25 1.22 57.3 0 0 90.21 58.55
  Q 93.21 58.14 94.62 56.25
  A 1.10 1.07 18.6 0 1 95.51 55.82
  L 98.80 55.88
  A 3.84 3.50 -47.6 0 0 99.46 55.82
  Q 103.75 54.99 107.28 52.55
  Q 107.65 52.18 107.46 51.93
  Q 108.79 52.34 109.48 52.26
  Q 109.09 53.87 111.74 53.05
  A 0.46 0.45 -24.5 0 1 112.24 53.23
  Q 112.38 53.45 112.33 53.51
  A 1.21 1.21 0.0 0 1 110.63 53.77
  Q 110.11 53.39 108.73 54.22
  A 0.73 0.73 0.0 0 0 109.18 55.58
  L 110.67 55.43
  A 0.41 0.41 0.0 0 1 110.97 56.15
  Q 110.23 56.76 109.37 57.08
  Q 108.16 57.52 107.89 56.62
  A 0.51 0.50 67.1 0 0 107.16 56.32
  Q 105.68 57.14 104.15 56.71
  A 1.24 1.24 0.0 0 0 103.24 56.79
  L 92.94 62.00
  Q 89.79 64.52 85.66 63.88
  A 1.03 1.03 0.0 0 1 85.41 61.91
  Q 86.30 61.53 86.79 60.73
  Q 87.99 60.47 87.79 59.65
  A 0.62 0.54 22.5 0 0 87.67 59.41
  L 81.52 51.99
  Q 79.56 49.95 80.01 48.35
  Z"
/>
<ellipse fill="#c7bea8" cx="0.00" cy="0.00" transform="translate(170.08,52.27) rotate(-44.1)" rx="2.72" ry="1.38"/>
<path fill="#f3d86f" d="
  M 74.80 52.69
  L 74.44 65.02
  L 74.19 67.51
  A 0.80 0.80 0.0 0 1 73.63 68.20
  L 72.87 68.45
  A 0.74 0.73 -15.9 0 0 72.38 69.33
  Q 72.85 71.18 72.30 72.26
  A 0.56 0.55 -68.4 0 0 72.63 73.03
  Q 73.49 73.29 74.31 72.93
  A 0.46 0.46 0.0 0 0 74.48 72.22
  Q 74.03 71.69 74.05 70.74
  A 0.65 0.64 -2.5 0 1 74.63 70.11
  Q 75.97 69.98 76.77 69.62
  Q 77.85 69.12 78.26 69.45
  Q 78.68 69.78 79.21 69.88
  A 1.80 1.76 -53.2 0 0 80.32 69.71
  Q 83.05 68.31 85.50 68.08
  A 1.43 1.43 0.0 0 0 86.52 67.50
  Q 88.64 64.60 92.65 66.58
  A 0.48 0.47 44.5 0 1 92.66 67.43
  L 89.75 68.91
  A 0.51 0.51 0.0 0 0 89.94 69.87
  Q 90.73 69.94 91.49 69.48
  Q 92.38 69.72 92.38 69.98
  Q 92.39 71.04 91.30 71.67
  Q 87.41 73.91 85.33 74.80
  Q 84.45 75.18 81.94 74.55
  A 0.91 0.86 -38.5 0 0 81.59 74.52
  L 78.06 74.89
  A 1.86 1.82 59.6 0 1 76.80 74.55
  Q 76.71 74.48 72.97 74.11
  Q 69.05 73.73 69.44 68.88
  Q 69.15 68.00 69.81 67.01
  Q 72.84 66.90 72.22 63.52
  L 72.71 60.48
  L 73.17 51.07
  Q 74.18 50.72 74.80 52.69
  Z"
/>
<path fill="#010101" d="
  M 74.44 65.02
  L 74.80 52.69
  Q 75.98 50.83 76.60 54.75
  Q 76.97 57.09 75.90 64.22
  Q 75.86 64.55 75.50 64.97
  A 0.64 0.62 -59.8 0 1 74.83 65.16
  L 74.44 65.02
  Z"
/>
<path fill="#010101" d="
  M 81.52 51.99
  L 87.67 59.41
  A 0.62 0.54 22.5 0 1 87.79 59.65
  Q 87.99 60.47 86.79 60.73
  Q 85.49 60.28 85.26 61.35
  A 0.77 0.76 41.7 0 1 83.79 61.42
  Q 83.46 60.50 83.00 60.21
  A 0.48 0.44 9.0 0 1 82.81 59.97
  L 80.43 52.59
  A 0.54 0.54 0.0 0 1 80.98 51.88
  Q 81.20 51.90 81.52 51.99
  Z"
/>
<path fill="#f3d86f" d="
  M 125.43 54.67
  L 99.71 67.78
  A 2.05 2.05 0.0 0 1 97.42 67.48
  L 96.03 66.24
  A 0.97 0.97 0.0 0 1 96.26 64.66
  Q 97.32 64.15 110.62 57.92
  C 112.02 57.27 111.88 56.11 112.73 55.37
  A 1.68 1.66 -68.6 0 1 113.63 54.97
  L 125.18 53.81
  A 0.46 0.45 -61.4 0 1 125.43 54.67
  Z"
/>
<path fill="#7a7854" d="
  M 51.96 72.54
  Q 52.12 73.36 52.69 74.26
  Q 52.88 74.56 52.87 74.78
  Q 52.86 75.16 52.55 75.23
  L 50.89 75.12
  A 0.50 0.50 0.0 0 1 50.42 74.62
  Q 50.42 73.77 50.03 73.20
  L 49.98 72.87
  Q 50.58 68.64 47.66 68.05
  Q 45.29 64.81 42.30 61.96
  Q 41.56 61.25 40.77 61.21
  A 0.46 0.46 0.0 0 1 40.49 60.40
  C 45.26 56.27 49.97 59.24 52.24 64.13
  Q 52.75 65.22 52.34 68.07
  Q 52.01 70.27 51.96 72.54
  Z"
/>
<path fill="#7a7854" d="
  M 72.71 60.48
  L 72.22 63.52
  Q 72.13 61.66 72.71 60.48
  Z"
/>
<path fill="#7a7854" d="
  M 109.41 64.07
  Q 111.35 62.77 113.58 63.13
  A 1.23 1.22 10.8 0 1 114.58 64.59
  L 114.16 66.54
  A 1.61 1.60 12.8 0 1 112.21 67.76
  Q 111.40 67.56 109.37 66.06
  A 1.22 1.22 0.0 0 1 109.41 64.07
  Z"
/>
<path fill="#f3d86f" d="
  M 76.34 64.68
  Q 78.58 63.86 79.10 63.87
  A 1.54 1.54 0.0 0 1 79.73 66.82
  L 76.16 68.42
  A 0.60 0.59 86.9 0 1 75.35 67.69
  Q 75.90 66.06 75.86 65.40
  A 0.74 0.72 -12.1 0 1 76.34 64.68
  Z"
/>
<path fill="#7a7854" d="
  M 47.48 75.91
  Q 45.44 75.62 44.79 76.47
  Q 42.92 77.29 40.96 77.31
  Q 37.58 77.34 37.04 77.40
  Q 33.91 77.73 30.79 77.48
  L 40.14 76.80
  A 0.15 0.15 0.0 0 0 40.21 76.52
  L 37.51 74.74
  Q 35.52 72.29 35.00 69.78
  Q 35.28 68.44 34.96 67.21
  Q 35.31 66.48 35.85 66.11
  Q 36.37 65.76 37.16 66.06
  Q 43.74 68.50 46.36 75.13
  Q 46.54 75.56 47.48 75.91
  Z"
/>
<path fill="#f3d86f" d="
  M 67.42 66.78
  L 67.92 69.68
  L 68.30 73.01
  A 0.49 0.49 0.0 0 1 67.87 73.56
  L 59.46 74.53
  Q 58.93 74.20 58.62 73.75
  A 1.32 1.32 0.0 0 1 58.40 73.09
  Q 58.34 71.58 57.68 70.21
  Q 57.87 68.73 60.23 68.09
  Q 62.47 67.48 64.75 66.72
  Q 65.36 66.52 67.42 66.78
  Z"
/>
<path fill="#010101" d="
  M 69.81 67.01
  Q 69.15 68.00 69.44 68.88
  Q 68.69 70.35 67.92 69.68
  L 67.42 66.78
  L 69.81 67.01
  Z"
/>
<path fill="#f3d86f" d="
  M 103.93 67.60
  Q 103.05 69.11 101.63 70.63
  Q 101.02 71.28 99.29 71.34
  A 0.45 0.45 0.0 0 1 98.86 70.71
  Q 100.12 67.85 103.41 66.92
  A 0.46 0.46 0.0 0 1 103.93 67.60
  Z"
/>
<path fill="#010101" d="
  M 34.96 67.21
  Q 35.28 68.44 35.00 69.78
  Q 34.51 68.59 34.96 67.21
  Z"
/>
<path fill="#010101" d="
  M 49.98 72.87
  Q 49.30 70.12 47.66 68.05
  Q 50.58 68.64 49.98 72.87
  Z"
/>
<path fill="#010101" d="
  M 57.68 70.21
  Q 58.34 71.58 58.40 73.09
  A 1.32 1.32 0.0 0 0 58.62 73.75
  Q 58.93 74.20 59.46 74.53
  L 59.62 74.79
  A 0.44 0.44 0.0 0 1 59.30 75.45
  L 54.94 75.97
  Q 53.67 75.96 52.50 75.73
  Q 52.24 75.68 52.55 75.23
  Q 52.86 75.16 52.87 74.78
  Q 52.88 74.56 52.69 74.26
  Q 52.12 73.36 51.96 72.54
  Q 52.40 72.59 53.03 72.35
  A 0.82 0.80 61.7 0 1 53.99 72.65
  Q 54.11 72.81 54.36 73.00
  Q 54.63 73.21 55.08 72.95
  Q 56.73 71.99 57.68 70.21
  Z"
/>
<path fill="#866930" d="
  M 52.55 75.23
  Q 52.24 75.68 52.50 75.73
  Q 53.67 75.96 54.94 75.97
  Q 54.50 76.40 53.75 76.42
  Q 49.22 76.53 44.79 76.47
  Q 45.44 75.62 47.48 75.91
  Q 47.63 75.95 47.78 75.99
  Q 48.50 76.23 49.26 76.14
  A 0.52 0.51 1.5 0 0 49.70 75.73
  Q 49.77 75.31 49.48 75.03
  L 50.03 73.20
  Q 50.42 73.77 50.42 74.62
  A 0.50 0.50 0.0 0 0 50.89 75.12
  L 52.55 75.23
  Z"
/>
<path fill="#010101" d="
  M 134.95 75.46
  Q 135.25 74.70 135.44 74.87
  Q 136.05 73.25 137.21 73.66
  A 0.94 0.94 0.0 0 1 137.47 75.29
  Q 136.57 75.99 134.95 75.46
  Z"
/>
<path fill="#c7bea8" d="
  M 143.22 74.24
  Q 143.03 75.03 143.51 75.32
  Q 141.78 75.75 142.94 77.29
  A 1.35 1.35 0.0 0 1 143.16 78.50
  Q 142.19 81.85 139.82 84.92
  A 0.35 0.35 0.0 0 1 139.22 84.83
  C 138.63 83.36 140.41 81.18 141.36 79.96
  A 1.41 1.41 0.0 0 0 141.65 78.92
  Q 141.51 77.80 140.83 77.15
  A 1.59 1.57 -41.0 0 1 141.01 74.72
  Q 142.70 73.51 143.22 74.24
  Z"
/>
<ellipse fill="#010101" cx="0.00" cy="0.00" transform="translate(129.00,76.41) rotate(-96.3)" rx="2.01" ry="1.12"/>
<path fill="#010101" d="
  M 30.79 77.48
  Q 29.84 77.71 29.27 78.23
  Q 29.21 76.61 30.50 76.78
  Q 37.99 77.74 37.51 74.74
  L 40.21 76.52
  A 0.15 0.15 0.0 0 1 40.14 76.80
  L 30.79 77.48
  Z"
/>
<path fill="#010101" d="
  M 49.48 75.03
  Q 49.77 75.31 49.70 75.73
  A 0.52 0.51 1.5 0 1 49.26 76.14
  Q 48.50 76.23 47.78 75.99
  Q 49.03 75.97 49.48 75.03
  Z"
/>
<path fill="#f3d86f" d="
  M 54.45 81.70
  L 47.31 82.16
  A 1.14 1.12 -1.1 0 0 46.25 83.25
  L 46.11 87.43
  A 0.63 0.63 0.0 0 0 46.98 88.03
  Q 49.73 86.85 49.81 83.28
  A 0.19 0.19 0.0 0 1 50.18 83.24
  Q 50.69 85.65 50.37 86.77
  A 0.59 0.59 0.0 0 0 50.92 87.53
  L 53.70 87.63
  A 0.64 0.64 0.0 0 0 54.34 86.86
  Q 54.03 85.45 54.00 83.51
  Q 53.99 82.56 54.34 82.61
  L 57.22 82.78
  A 0.87 0.85 -7.0 0 1 57.98 83.36
  Q 58.71 85.54 57.26 87.42
  Q 56.18 88.32 56.35 89.70
  A 1.18 1.17 -5.1 0 1 55.23 91.03
  L 24.73 92.49
  C 22.98 92.35 21.51 91.82 22.25 89.86
  L 27.21 89.03
  Q 27.63 88.85 28.23 88.89
  Q 28.60 89.11 28.85 89.05
  Q 29.10 88.99 29.12 88.53
  Q 29.32 83.40 29.27 78.23
  Q 29.84 77.71 30.79 77.48
  Q 33.91 77.73 37.04 77.40
  Q 37.58 77.34 40.96 77.31
  Q 42.92 77.29 44.79 76.47
  Q 49.22 76.53 53.75 76.42
  Q 54.50 76.40 54.94 75.97
  L 65.70 75.16
  A 1.53 1.53 0.0 0 1 67.35 76.74
  L 67.28 78.87
  A 1.84 1.84 0.0 0 1 65.62 80.64
  L 54.45 81.70
  Z
  M 34.22 85.79
  Q 34.14 87.12 33.82 87.83
  A 0.50 0.50 0.0 0 0 34.19 88.53
  Q 35.84 88.81 36.96 88.20
  A 0.81 0.81 0.0 0 0 37.37 87.34
  Q 37.19 86.32 37.22 85.75
  Q 37.30 84.42 37.63 83.71
  A 0.50 0.50 0.0 0 0 37.26 83.01
  Q 35.61 82.73 34.49 83.34
  A 0.81 0.81 0.0 0 0 34.07 84.21
  Q 34.26 85.22 34.22 85.79
  Z"
/>
<path fill="#c7bea8" d="
  M 469.03 80.51
  A 0.55 0.55 0.0 0 0 469.80 79.74
  Q 469.20 78.99 469.05 78.12
  A 0.66 0.66 0.0 0 1 469.53 77.36
  Q 471.24 76.92 472.28 77.68
  A 2.62 2.50 31.7 0 1 473.11 80.88
  C 471.12 84.84 463.08 84.49 466.69 79.09
  A 0.69 0.68 47.3 0 1 467.86 79.14
  Q 468.30 79.93 469.03 80.51
  Z"
/>
<path fill="#c7bea8" d="
  M 415.11 83.27
  A 0.33 0.33 0.0 0 0 415.69 83.21
  Q 415.81 82.91 414.94 81.56
  A 0.90 0.90 0.0 0 1 415.83 80.19
  L 417.98 80.53
  A 1.61 1.61 0.0 0 1 419.34 82.10
  Q 419.41 86.70 414.28 86.20
  A 2.23 1.99 -0.5 0 1 412.31 84.47
  Q 412.17 83.48 412.61 82.21
  A 0.92 0.91 -52.9 0 1 414.23 81.98
  L 415.11 83.27
  Z"
/>
<path fill="#7a7854" d="
  M 394.99 81.50
  Q 395.11 82.16 394.89 82.94
  A 0.47 0.46 -48.2 0 1 394.01 82.99
  Q 393.76 82.39 394.19 81.41
  A 0.42 0.42 0.0 0 1 394.99 81.50
  Z"
/>
<path fill="#010101" d="
  M 54.45 81.70
  L 54.34 82.61
  Q 53.99 82.56 54.00 83.51
  Q 54.03 85.45 54.34 86.86
  A 0.64 0.64 0.0 0 1 53.70 87.63
  L 50.92 87.53
  A 0.59 0.59 0.0 0 1 50.37 86.77
  Q 50.69 85.65 50.18 83.24
  A 0.19 0.19 0.0 0 0 49.81 83.28
  Q 49.73 86.85 46.98 88.03
  A 0.63 0.63 0.0 0 1 46.11 87.43
  L 46.25 83.25
  A 1.14 1.12 -1.1 0 1 47.31 82.16
  L 54.45 81.70
  Z"
/>
<path fill="#f3d86f" d="
  M 64.16 90.53
  Q 61.36 90.22 59.09 90.74
  A 0.57 0.56 75.4 0 1 58.42 90.34
  Q 58.29 89.88 58.36 89.32
  L 59.92 85.78
  A 1.08 1.06 -42.5 0 0 59.96 85.03
  L 59.30 82.98
  A 0.72 0.72 0.0 0 1 60.00 82.04
  L 67.07 82.28
  A 0.63 0.63 0.0 0 1 67.67 83.01
  Q 67.34 85.31 67.13 85.65
  Q 65.57 88.11 64.16 90.53
  Z"
/>
<path fill="#c7bea8" d="
  M 370.03 83.24
  L 372.74 82.96
  A 1.63 1.63 0.0 0 1 374.45 85.10
  Q 373.12 89.05 369.98 88.90
  A 2.32 2.13 -67.0 0 1 368.64 85.13
  Q 369.12 84.56 369.45 83.69
  A 0.69 0.68 -82.5 0 1 370.03 83.24
  Z"
/>
<path fill="#010101" d="
  M 37.22 85.75
  Q 37.19 86.32 37.37 87.34
  A 0.81 0.81 0.0 0 1 36.96 88.20
  Q 35.84 88.81 34.19 88.53
  A 0.50 0.50 0.0 0 1 33.82 87.83
  Q 34.14 87.12 34.22 85.79
  Q 34.26 85.22 34.07 84.21
  A 0.81 0.81 0.0 0 1 34.49 83.34
  Q 35.61 82.73 37.26 83.01
  A 0.50 0.50 0.0 0 1 37.63 83.71
  Q 37.30 84.42 37.22 85.75
  Z"
/>
<ellipse fill="#c7bea8" cx="0.00" cy="0.00" transform="translate(306.59,86.22) rotate(-73.3)" rx="0.92" ry="0.66"/>
<ellipse fill="#c7bea8" cx="0.00" cy="0.00" transform="translate(325.27,88.26) rotate(-44.5)" rx="3.49" ry="2.46"/>
<path fill="#c7bea8" d="
  M 289.86 94.52
  Q 289.16 94.50 288.53 94.21
  A 1.21 1.19 -45.6 0 0 287.51 94.23
  Q 286.49 94.74 285.17 94.21
  A 1.11 1.03 -39.4 0 0 284.50 94.17
  Q 283.80 94.35 283.01 95.23
  A 0.09 0.08 -56.0 0 1 282.92 95.25
  L 282.28 95.01
  A 0.23 0.22 -62.4 0 1 282.18 94.68
  L 283.35 92.93
  A 1.48 1.42 -28.6 0 0 283.59 92.17
  Q 283.68 90.19 284.96 88.80
  A 1.03 0.97 71.2 0 0 285.21 88.25
  L 285.30 87.43
  A 0.56 0.56 0.0 0 1 286.16 87.02
  Q 286.19 87.04 286.37 87.19
  A 0.81 0.77 -30.7 0 0 287.01 87.34
  L 292.47 86.36
  A 0.43 0.42 -2.7 0 1 292.97 86.81
  Q 292.87 87.79 292.13 88.37
  A 0.94 0.92 78.8 0 0 291.81 88.86
  L 290.30 94.19
  A 0.44 0.44 0.0 0 1 289.86 94.52
  Z"
/>
<path fill="#010101" d="
  M 57.26 87.42
  Q 58.35 86.99 58.36 89.32
  Q 58.29 89.88 58.42 90.34
  A 0.57 0.56 75.4 0 0 59.09 90.74
  Q 61.36 90.22 64.16 90.53
  Q 67.93 90.21 70.75 90.44
  Q 79.22 91.13 88.50 91.67
  Q 90.23 91.78 91.56 92.40
  A 0.91 0.91 0.0 0 1 91.49 94.07
  Q 90.55 94.42 88.24 94.06
  A 0.62 0.62 0.0 0 0 87.56 94.86
  L 88.23 96.93
  A 1.22 1.17 -80.5 0 0 88.61 97.49
  Q 94.07 101.82 96.53 108.05
  A 1.61 1.60 -82.2 0 0 97.02 108.70
  L 98.95 110.18
  L 99.77 112.42
  A 0.59 0.59 0.0 0 1 98.74 112.97
  L 86.21 95.81
  Q 84.98 95.16 85.00 93.94
  A 0.54 0.53 -86.5 0 0 84.52 93.39
  Q 83.68 93.31 82.79 93.67
  Q 81.69 94.12 80.22 95.26
  Q 78.93 96.27 77.98 96.07
  A 0.49 0.48 31.9 0 1 77.78 95.22
  Q 78.80 94.39 78.87 93.30
  A 0.65 0.65 0.0 0 0 77.64 92.97
  Q 77.43 93.42 77.34 93.98
  A 0.62 0.62 0.0 0 1 76.29 94.33
  L 74.24 92.27
  A 0.28 0.27 -67.7 0 0 73.77 92.47
  Q 73.78 93.10 74.38 95.11
  A 0.56 0.56 0.0 0 1 73.88 95.83
  Q 70.83 96.04 70.18 95.82
  A 0.29 0.29 0.0 0 1 70.19 95.27
  Q 71.19 94.95 71.21 94.27
  A 0.54 0.53 -87.9 0 0 70.70 93.71
  L 67.26 93.60
  A 0.49 0.48 -6.2 0 0 66.77 94.20
  Q 66.94 94.89 66.90 95.10
  A 0.85 0.85 0.0 0 1 65.88 95.75
  L 60.74 94.54
  A 1.15 1.13 -6.8 0 1 59.98 93.95
  L 59.21 92.45
  A 0.33 0.32 36.1 0 0 58.60 92.54
  L 58.29 94.56
  L 52.42 94.88
  L 42.19 94.16
  A 11.32 10.97 -5.9 0 0 40.59 94.17
  L 35.56 94.54
  A 1.14 1.14 0.0 0 0 34.73 95.00
  L 34.10 95.87
  A 0.77 0.77 0.0 0 1 32.77 95.11
  Q 32.84 94.95 32.83 94.91
  A 0.98 0.98 0.0 0 0 31.88 94.06
  L 22.85 93.89
  A 0.29 0.29 0.0 0 1 22.56 93.59
  L 22.58 93.20
  A 0.32 0.31 -89.0 0 1 22.89 92.89
  Q 23.96 92.86 24.73 92.49
  L 55.23 91.03
  A 1.18 1.17 -5.1 0 0 56.35 89.70
  Q 56.18 88.32 57.26 87.42
  Z"
/>
<path fill="#010101" d="
  M 28.23 88.89
  Q 27.63 88.85 27.21 89.03
  Q 27.42 88.61 28.23 88.89
  Z"
/>
<path fill="#c7bea8" d="
  M 242.36 96.62
  Q 241.09 96.33 242.47 95.51
  A 0.67 0.67 0.0 0 0 242.74 95.18
  L 244.86 89.67
  A 0.59 0.59 0.0 0 1 245.44 89.29
  L 250.45 89.45
  A 0.44 0.44 0.0 0 1 250.86 89.98
  Q 250.39 92.14 250.05 92.57
  Q 248.87 94.10 249.13 95.79
  A 0.30 0.29 83.7 0 1 248.86 96.13
  L 242.41 96.62
  A 0.07 0.05 31.7 0 1 242.36 96.62
  Z"
/>
<path fill="#7a7854" d="
  M 22.25 89.86
  C 21.51 91.82 22.98 92.35 24.73 92.49
  Q 23.96 92.86 22.89 92.89
  A 0.32 0.31 -89.0 0 0 22.58 93.20
  L 22.56 93.59
  A 0.29 0.29 0.0 0 0 22.85 93.89
  L 31.88 94.06
  A 0.98 0.98 0.0 0 1 32.83 94.91
  Q 32.84 94.95 32.77 95.11
  A 0.77 0.77 0.0 0 0 34.10 95.87
  L 34.73 95.00
  A 1.14 1.14 0.0 0 1 35.56 94.54
  L 40.59 94.17
  A 11.32 10.97 -5.9 0 1 42.19 94.16
  L 52.42 94.88
  L 18.71 97.02
  Q 16.78 91.40 22.25 89.86
  Z"
/>
<path fill="#866930" d="
  M 86.21 95.81
  Q 84.13 96.82 83.75 94.77
  A 0.44 0.43 -39.4 0 0 82.92 94.69
  Q 82.73 95.16 82.76 95.81
  A 0.26 0.25 20.6 0 1 82.33 96.00
  Q 82.02 95.71 81.88 95.67
  A 0.81 0.77 -17.8 0 0 81.14 97.04
  Q 81.39 97.22 82.00 96.97
  A 0.36 0.36 0.0 0 1 82.50 97.33
  L 82.47 97.71
  Q 81.98 97.48 81.66 97.86
  Q 81.43 98.13 81.43 98.70
  Q 81.37 110.58 80.70 122.23
  Q 80.62 123.62 80.96 125.59
  A 0.63 0.62 -2.9 0 0 81.54 126.11
  Q 83.69 126.24 85.70 126.97
  A 0.33 0.33 0.0 0 1 85.54 127.60
  Q 80.94 126.89 81.56 128.78
  Q 80.19 127.91 79.36 127.92
  Q 79.26 126.90 77.93 127.04
  Q 76.52 127.18 76.05 127.14
  Q 72.41 126.84 68.78 126.96
  L 58.98 127.04
  C 60.93 124.90 60.49 121.93 59.49 119.40
  A 2.63 2.54 35.0 0 1 59.30 118.43
  Q 59.18 108.43 59.53 100.75
  Q 59.70 96.86 59.48 95.27
  Q 59.36 94.43 58.29 94.56
  L 58.60 92.54
  A 0.33 0.32 36.1 0 1 59.21 92.45
  L 59.98 93.95
  A 1.15 1.13 -6.8 0 0 60.74 94.54
  L 65.88 95.75
  A 0.85 0.85 0.0 0 0 66.90 95.10
  Q 66.94 94.89 66.77 94.20
  A 0.49 0.48 -6.2 0 1 67.26 93.60
  L 70.70 93.71
  A 0.54 0.53 -87.9 0 1 71.21 94.27
  Q 71.19 94.95 70.19 95.27
  A 0.29 0.29 0.0 0 0 70.18 95.82
  Q 70.83 96.04 73.88 95.83
  A 0.56 0.56 0.0 0 0 74.38 95.11
  Q 73.78 93.10 73.77 92.47
  A 0.28 0.27 -67.7 0 1 74.24 92.27
  L 76.29 94.33
  A 0.62 0.62 0.0 0 0 77.34 93.98
  Q 77.43 93.42 77.64 92.97
  A 0.65 0.65 0.0 0 1 78.87 93.30
  Q 78.80 94.39 77.78 95.22
  A 0.49 0.48 31.9 0 0 77.98 96.07
  Q 78.93 96.27 80.22 95.26
  Q 81.69 94.12 82.79 93.67
  Q 83.68 93.31 84.52 93.39
  A 0.54 0.53 -86.5 0 1 85.00 93.94
  Q 84.98 95.16 86.21 95.81
  Z"
/>
<path fill="#c7bea8" d="
  M 210.56 96.38
  Q 210.37 93.74 212.30 92.26
  A 1.86 1.60 -14.9 0 1 215.25 93.69
  Q 214.68 95.91 211.21 96.83
  A 0.52 0.51 -9.9 0 1 210.56 96.38
  Z"
/>
<path fill="#010101" d="
  M 108.28 92.97
  Q 108.76 93.91 107.17 94.25
  L 98.62 94.31
  A 0.24 0.23 -4.4 0 0 98.39 94.57
  L 98.42 94.87
  A 0.05 0.05 0.0 0 0 98.47 94.92
  L 105.67 94.99
  Q 105.97 95.42 106.08 95.83
  A 0.52 0.51 -10.1 0 1 105.63 96.47
  L 101.02 96.94
  A 0.47 0.47 0.0 0 0 100.61 97.53
  Q 102.64 105.40 106.35 112.53
  L 106.42 116.33
  A 0.59 0.59 0.0 0 0 107.54 116.56
  L 108.21 115.05
  L 111.27 118.66
  A 2.07 1.98 19.5 0 1 111.69 119.49
  L 112.81 124.71
  L 110.73 125.99
  L 110.64 124.74
  L 110.28 121.11
  A 0.86 0.86 0.0 0 0 109.76 120.40
  Q 108.04 119.64 106.75 120.92
  Q 105.22 119.60 104.26 117.22
  A 0.96 0.94 -40.8 0 1 104.33 116.35
  Q 105.33 114.74 104.44 112.50
  Q 101.85 106.00 99.38 99.93
  L 97.27 94.09
  A 1.18 1.18 0.0 0 1 98.44 92.51
  L 108.28 92.97
  Z"
/>
<path fill="#7a7854" d="
  M 112.53 93.20
  Q 111.75 93.23 111.71 93.25
  A 0.51 0.51 0.0 0 0 111.79 94.24
  L 121.09 95.69
  A 0.69 0.68 89.4 0 1 121.67 96.26
  Q 121.94 97.82 123.21 98.72
  A 0.29 0.28 3.2 0 0 123.63 98.35
  Q 123.07 97.37 122.92 96.70
  A 0.48 0.48 0.0 0 1 123.79 96.33
  Q 125.33 98.70 128.73 98.05
  A 0.71 0.71 0.0 0 1 129.57 98.68
  Q 129.75 100.72 128.48 100.76
  A 0.57 0.56 85.8 0 0 127.94 101.39
  Q 128.19 103.51 128.67 104.23
  A 1.10 1.09 24.1 0 0 130.67 103.47
  C 130.39 101.58 129.99 99.63 131.06 98.13
  Q 131.61 97.36 131.21 96.38
  A 0.48 0.47 -10.1 0 1 131.67 95.73
  L 133.33 95.79
  A 0.31 0.31 0.0 0 1 133.56 96.29
  L 132.48 97.60
  A 0.60 0.53 -25.6 0 0 132.37 97.86
  L 131.23 105.21
  A 0.32 0.32 0.0 0 1 130.94 105.48
  Q 130.33 105.55 130.27 106.46
  Q 130.20 107.76 129.49 108.44
  A 0.47 0.47 0.0 0 1 128.73 108.29
  Q 127.49 105.45 123.35 101.64
  A 1.52 1.50 67.7 0 0 122.41 101.24
  Q 120.22 101.10 119.65 103.04
  Q 118.15 108.18 115.07 112.06
  Q 114.41 112.88 113.82 113.02
  A 0.49 0.49 0.0 0 0 113.87 113.98
  L 117.72 114.46
  A 5.01 4.86 45.9 0 0 118.66 114.49
  Q 124.19 114.14 127.69 114.59
  A 0.66 0.65 -63.8 0 0 128.21 114.41
  Q 128.50 114.12 128.25 113.66
  A 0.17 0.17 0.0 0 1 128.49 113.44
  C 129.42 114.03 130.33 113.82 131.63 113.87
  C 130.82 113.95 130.05 114.02 129.33 114.06
  A 0.37 0.37 0.0 0 0 129.30 114.79
  Q 131.55 115.13 134.20 114.60
  Q 134.61 119.88 128.71 121.40
  Q 127.33 121.76 126.64 122.13
  A 1.77 1.74 -57.2 0 1 125.75 122.33
  Q 124.16 122.26 122.76 122.99
  Q 121.90 122.67 121.70 123.18
  L 119.66 123.12
  Q 119.07 122.32 118.20 122.30
  A 0.68 0.67 -81.3 0 0 117.53 122.80
  Q 117.31 123.67 116.83 124.22
  Q 115.04 124.04 112.81 124.71
  L 111.69 119.49
  A 2.07 1.98 19.5 0 0 111.27 118.66
  L 108.21 115.05
  L 109.35 98.96
  A 0.31 0.31 0.0 0 0 108.80 98.74
  Q 107.70 100.06 107.56 101.93
  Q 107.18 107.26 106.35 112.53
  Q 102.64 105.40 100.61 97.53
  A 0.47 0.47 0.0 0 1 101.02 96.94
  L 105.63 96.47
  A 0.52 0.51 -10.1 0 0 106.08 95.83
  Q 105.97 95.42 105.67 94.99
  Q 107.40 94.94 107.17 94.25
  Q 108.76 93.91 108.28 92.97
  Q 110.42 92.74 112.53 93.20
  Z
  M 117.8901 96.4660
  A 0.38 0.38 0.0 0 0 117.5108 96.0853
  L 111.3908 96.0747
  A 0.38 0.38 0.0 0 0 111.0101 96.4540
  L 111.0099 96.5740
  A 0.38 0.38 0.0 0 0 111.3892 96.9547
  L 117.5092 96.9653
  A 0.38 0.38 0.0 0 0 117.8899 96.5860
  L 117.8901 96.4660
  Z
  M 110.54 99.91
  Q 111.00 98.82 112.07 99.27
  Q 112.65 99.51 112.96 99.31
  Q 113.40 99.00 113.38 98.58
  A 0.62 0.61 81.1 0 0 112.60 98.01
  Q 111.33 98.36 110.72 97.76
  A 0.35 0.35 0.0 0 0 110.13 97.94
  Q 109.95 98.96 110.11 99.86
  A 0.23 0.23 0.0 0 0 110.54 99.91
  Z
  M 120.93 99.35
  Q 120.80 99.02 119.84 98.35
  Q 119.46 98.09 118.81 98.76
  Q 118.36 99.22 117.51 99.04
  A 0.31 0.31 0.0 0 0 117.13 99.33
  L 117.12 99.63
  A 0.42 0.41 2.0 0 0 117.53 100.06
  L 120.47 100.08
  A 0.51 0.51 0.0 0 0 120.93 99.35
  Z
  M 111.1712 111.5778
  A 0.86 0.73 -146.7 0 0 111.4892 112.6601
  A 0.86 0.73 -146.7 0 0 112.6088 112.5222
  A 0.86 0.73 -146.7 0 0 112.2908 111.4399
  A 0.86 0.73 -146.7 0 0 111.1712 111.5778
  Z
  M 115.38 119.16
  Q 116.43 121.40 116.51 121.57
  A 0.32 0.31 -88.0 0 0 116.64 121.71
  Q 116.97 121.90 117.17 121.73
  A 0.27 0.26 54.5 0 0 117.22 121.40
  Q 116.43 120.13 115.87 118.93
  Q 115.31 117.73 114.84 116.31
  A 0.27 0.26 75.4 0 0 114.56 116.13
  Q 114.30 116.18 114.23 116.55
  A 0.32 0.31 37.9 0 0 114.26 116.75
  Q 114.33 116.92 115.38 119.16
  Z"
/>
<path fill="#c7bea8" d="
  M 176.97 93.42
  Q 177.34 93.92 179.76 93.62
  A 1.04 1.04 0.0 0 1 180.86 95.03
  L 179.50 98.58
  A 1.03 1.01 -81.9 0 1 178.65 99.23
  L 174.81 99.62
  A 0.25 0.25 0.0 0 1 174.55 99.28
  L 176.79 93.44
  A 0.10 0.10 0.0 0 1 176.97 93.42
  Z"
/>
<path fill="#866930" d="
  M 107.17 94.25
  Q 107.40 94.94 105.67 94.99
  L 98.47 94.92
  A 0.05 0.05 0.0 0 1 98.42 94.87
  L 98.39 94.57
  A 0.24 0.23 -4.4 0 1 98.62 94.31
  L 107.17 94.25
  Z"
/>
<path fill="#f3d86f" d="
  M 58.98 127.04
  L 44.45 127.04
  C 44.60 123.01 45.60 119.52 43.59 115.80
  A 1.29 1.28 -9.5 0 0 42.66 115.14
  Q 41.47 114.95 40.30 115.31
  Q 39.80 115.47 39.58 116.03
  Q 39.34 116.65 39.40 117.12
  A 0.91 0.90 68.2 0 1 39.03 117.99
  Q 37.68 118.96 38.93 120.20
  A 1.98 1.96 19.2 0 1 39.51 121.38
  L 40.19 127.02
  L 35.50 127.10
  L 32.21 127.06
  L 17.20 127.11
  A 0.65 0.65 0.0 0 1 16.57 126.61
  Q 16.23 125.21 16.49 123.53
  Q 16.46 123.06 16.42 122.87
  A 0.78 0.78 0.0 0 0 15.40 122.31
  Q 14.72 122.56 14.96 123.05
  L 14.71 123.20
  L 12.40 123.91
  Q 7.71 123.91 3.66 127.18
  Q 2.75 126.57 0.94 127.73
  Q 0.70 127.66 1.27 126.96
  Q 8.34 121.14 15.54 115.55
  Q 16.47 114.83 16.58 113.80
  Q 16.85 113.47 16.87 113.05
  Q 17.32 111.47 16.98 109.77
  L 17.37 104.79
  L 17.49 102.05
  Q 17.12 99.18 18.71 97.02
  L 52.42 94.88
  L 58.29 94.56
  Q 59.36 94.43 59.48 95.27
  Q 59.70 96.86 59.53 100.75
  Q 59.18 108.43 59.30 118.43
  A 2.63 2.54 35.0 0 0 59.49 119.40
  C 60.49 121.93 60.93 124.90 58.98 127.04
  Z
  M 26.69 98.29
  C 24.66 101.10 26.47 105.50 26.39 107.40
  A 3.83 3.83 0.0 0 0 27.30 110.06
  L 29.34 112.46
  A 0.94 0.94 0.0 0 0 31.00 111.89
  L 31.19 106.04
  A 1.29 1.28 -17.4 0 1 31.71 105.05
  Q 33.17 103.95 33.96 102.79
  Q 42.84 101.30 51.63 98.28
  A 0.32 0.24 26.6 0 1 51.74 98.26
  L 54.58 97.85
  A 0.36 0.36 0.0 0 0 54.61 97.14
  Q 53.22 96.82 52.75 96.81
  Q 39.73 96.67 26.69 98.29
  Z
  M 57.2603 98.8105
  A 0.85 0.67 -92.0 0 0 56.6204 99.6834
  A 0.85 0.67 -92.0 0 0 57.3197 100.5095
  A 0.85 0.67 -92.0 0 0 57.9596 99.6366
  A 0.85 0.67 -92.0 0 0 57.2603 98.8105
  Z
  M 46.06 111.44
  L 45.91 115.96
  A 0.36 0.36 0.0 0 0 46.62 116.09
  Q 47.07 114.76 47.99 114.23
  Q 49.51 113.35 49.41 112.66
  Q 49.32 112.06 47.21 110.81
  A 0.76 0.76 0.0 0 0 46.06 111.44
  Z
  M 49.89 125.90
  L 50.32 124.15
  A 1.52 1.49 -15.9 0 1 50.74 123.41
  Q 52.79 121.41 54.42 117.95
  Q 54.78 117.17 54.52 116.74
  A 0.45 0.45 0.0 0 0 53.76 116.72
  Q 52.81 118.09 51.50 117.46
  Q 51.17 117.31 51.11 117.05
  Q 51.00 116.56 50.89 116.48
  A 0.49 0.48 -64.0 0 0 50.12 116.75
  Q 49.78 118.13 47.33 117.59
  A 1.26 0.92 9.2 0 0 45.85 118.34
  Q 45.82 118.79 45.93 120.09
  A 1.09 1.09 0.0 0 0 46.49 120.95
  Q 48.74 122.17 49.08 125.84
  A 0.41 0.41 0.0 0 0 49.89 125.90
  Z"
/>
<path fill="#7a7854" d="
  M 86.21 95.81
  L 98.74 112.97
  A 0.59 0.59 0.0 0 0 99.77 112.42
  L 98.95 110.18
  Q 99.20 108.47 98.05 107.55
  A 1.04 1.01 -74.3 0 1 97.66 106.83
  Q 97.30 103.52 95.93 100.77
  A 1.07 0.66 -76.7 0 1 95.88 100.62
  L 94.88 95.94
  A 0.68 0.68 0.0 0 1 95.94 95.25
  Q 97.70 96.52 99.38 99.93
  Q 101.85 106.00 104.44 112.50
  Q 105.33 114.74 104.33 116.35
  A 0.96 0.94 -40.8 0 0 104.26 117.22
  Q 105.22 119.60 106.75 120.92
  Q 107.48 124.10 108.39 124.87
  Q 109.75 126.01 110.64 124.74
  L 110.73 125.99
  L 102.12 131.60
  Q 102.08 130.51 101.76 129.85
  A 0.44 0.44 0.0 0 0 101.07 129.71
  Q 100.27 130.44 100.75 132.28
  Q 100.27 132.34 99.55 133.00
  L 96.62 131.03
  A 1.60 1.58 -83.5 0 1 96.00 130.24
  Q 95.54 128.92 95.65 126.73
  A 1.38 1.38 0.0 0 0 94.03 125.30
  Q 93.08 125.48 91.97 125.28
  A 0.73 0.73 0.0 0 0 91.15 125.77
  Q 90.40 128.02 91.87 130.57
  A 0.10 0.10 0.0 0 1 91.78 130.71
  L 87.98 130.58
  A 0.45 0.44 84.0 0 1 87.56 130.23
  Q 87.23 128.77 87.49 125.50
  A 2.73 2.71 12.8 0 0 85.75 122.75
  L 83.61 121.93
  A 0.72 0.71 -78.8 0 1 83.15 121.23
  L 83.74 103.36
  A 0.74 0.73 -12.9 0 1 84.15 102.72
  L 84.94 102.32
  A 0.38 0.37 36.4 0 0 84.83 101.62
  Q 82.39 101.18 84.00 99.01
  A 0.58 0.58 0.0 0 0 83.71 98.11
  L 82.47 97.71
  L 82.50 97.33
  A 0.36 0.36 0.0 0 0 82.00 96.97
  Q 81.39 97.22 81.14 97.04
  A 0.81 0.77 -17.8 0 1 81.88 95.67
  Q 82.02 95.71 82.33 96.00
  A 0.26 0.25 20.6 0 0 82.76 95.81
  Q 82.73 95.16 82.92 94.69
  A 0.44 0.43 -39.4 0 1 83.75 94.77
  Q 84.13 96.82 86.21 95.81
  Z
  M 85.49 98.20
  A 0.42 0.42 0.0 0 0 84.86 98.68
  L 85.82 101.33
  A 1.03 1.03 0.0 0 0 87.82 100.94
  Q 87.77 99.76 85.49 98.20
  Z
  M 85.81 103.77
  Q 85.07 104.43 85.00 104.53
  A 0.50 0.49 24.9 0 0 85.27 105.26
  Q 86.45 105.65 87.02 105.13
  Q 87.60 104.61 87.35 103.40
  A 0.50 0.49 71.6 0 0 86.66 103.05
  Q 86.55 103.10 85.81 103.77
  Z
  M 99.17 116.89
  Q 99.14 116.22 98.48 115.72
  A 0.48 0.48 0.0 0 0 97.71 116.03
  Q 97.65 116.48 98.76 117.46
  A 0.53 0.53 0.0 0 1 98.77 118.25
  Q 96.09 120.75 97.86 124.66
  A 0.62 0.62 0.0 0 0 98.62 124.99
  Q 99.25 124.78 99.75 123.33
  A 0.63 0.63 0.0 0 1 100.77 123.07
  Q 102.32 124.50 103.13 123.89
  A 0.80 0.78 -44.2 0 1 104.09 123.89
  Q 104.47 124.18 104.52 124.21
  Q 104.95 124.45 105.08 123.52
  Q 105.55 120.27 103.48 118.09
  Q 101.65 116.16 99.79 117.23
  A 0.42 0.41 -16.0 0 1 99.17 116.89
  Z
  M 104.00 129.44
  Q 105.41 127.04 104.95 125.95
  A 1.04 1.04 0.0 0 0 102.96 126.45
  L 103.22 129.27
  A 0.42 0.42 0.0 0 0 104.00 129.44
  Z"
/>
<ellipse fill="#c7bea8" cx="0.00" cy="0.00" transform="translate(148.47,97.95) rotate(-47.1)" rx="2.75" ry="1.68"/>
<rect fill="#010101" x="-3.44" y="-0.44" transform="translate(114.45,96.52) rotate(0.1)" width="6.88" height="0.88" rx="0.38"/>
<path fill="#7a7854" d="
  M 33.96 102.79
  L 26.69 98.29
  Q 39.73 96.67 52.75 96.81
  Q 53.22 96.82 54.61 97.14
  A 0.36 0.36 0.0 0 1 54.58 97.85
  L 51.74 98.26
  A 0.32 0.24 26.6 0 0 51.63 98.28
  Q 42.84 101.30 33.96 102.79
  Z"
/>
<path fill="#010101" d="
  M 82.47 97.71
  L 83.71 98.11
  A 0.58 0.58 0.0 0 1 84.00 99.01
  Q 82.39 101.18 84.83 101.62
  A 0.38 0.37 36.4 0 1 84.94 102.32
  L 84.15 102.72
  A 0.74 0.73 -12.9 0 0 83.74 103.36
  L 83.15 121.23
  A 0.72 0.71 -78.8 0 0 83.61 121.93
  L 85.75 122.75
  A 2.73 2.71 12.8 0 1 87.49 125.50
  Q 87.23 128.77 87.56 130.23
  A 0.45 0.44 84.0 0 0 87.98 130.58
  L 91.78 130.71
  A 0.10 0.10 0.0 0 0 91.87 130.57
  Q 90.40 128.02 91.15 125.77
  A 0.73 0.73 0.0 0 1 91.97 125.28
  Q 93.08 125.48 94.03 125.30
  A 1.38 1.38 0.0 0 1 95.65 126.73
  Q 95.54 128.92 96.00 130.24
  A 1.60 1.58 -83.5 0 0 96.62 131.03
  L 99.55 133.00
  L 98.37 133.73
  A 0.73 0.72 -22.1 0 0 98.04 134.50
  Q 98.27 135.55 99.35 137.00
  L 73.24 137.00
  L 73.08 133.42
  A 1.28 1.27 -60.7 0 0 72.92 132.84
  L 71.93 131.01
  Q 74.44 131.67 73.22 128.19
  A 0.76 0.74 79.9 0 0 72.52 127.69
  L 71.36 127.68
  Q 71.37 126.67 68.78 126.96
  Q 72.41 126.84 76.05 127.14
  Q 76.52 127.18 77.93 127.04
  Q 79.26 126.90 79.36 127.92
  Q 79.02 129.18 79.29 130.25
  A 0.74 0.74 0.0 0 0 80.09 130.81
  L 82.76 130.55
  A 0.42 0.42 0.0 0 0 83.07 129.91
  Q 82.69 129.28 81.56 128.78
  Q 80.94 126.89 85.54 127.60
  A 0.33 0.33 0.0 0 0 85.70 126.97
  Q 83.69 126.24 81.54 126.11
  A 0.63 0.62 -2.9 0 1 80.96 125.59
  Q 80.62 123.62 80.70 122.23
  Q 81.37 110.58 81.43 98.70
  Q 81.43 98.13 81.66 97.86
  Q 81.98 97.48 82.47 97.71
  Z"
/>
<path fill="#010101" d="
  M 110.11 99.86
  Q 109.95 98.96 110.13 97.94
  A 0.35 0.35 0.0 0 1 110.72 97.76
  Q 111.33 98.36 112.60 98.01
  A 0.62 0.61 81.1 0 1 113.38 98.58
  Q 113.40 99.00 112.96 99.31
  Q 112.65 99.51 112.07 99.27
  Q 111.00 98.82 110.54 99.91
  A 0.23 0.23 0.0 0 1 110.11 99.86
  Z"
/>
<path fill="#010101" d="
  M 85.49 98.20
  Q 87.77 99.76 87.82 100.94
  A 1.03 1.03 0.0 0 1 85.82 101.33
  L 84.86 98.68
  A 0.42 0.42 0.0 0 1 85.49 98.20
  Z"
/>
<path fill="#866930" d="
  M 26.69 98.29
  L 33.96 102.79
  Q 33.17 103.95 31.71 105.05
  A 1.29 1.28 -17.4 0 0 31.19 106.04
  L 31.00 111.89
  A 0.94 0.94 0.0 0 1 29.34 112.46
  L 27.30 110.06
  A 3.83 3.83 0.0 0 1 26.39 107.40
  C 26.47 105.50 24.66 101.10 26.69 98.29
  Z"
/>
<path fill="#010101" d="
  M 120.93 99.35
  A 0.51 0.51 0.0 0 1 120.47 100.08
  L 117.53 100.06
  A 0.42 0.41 2.0 0 1 117.12 99.63
  L 117.13 99.33
  A 0.31 0.31 0.0 0 1 117.51 99.04
  Q 118.36 99.22 118.81 98.76
  Q 119.46 98.09 119.84 98.35
  Q 120.80 99.02 120.93 99.35
  Z"
/>
<path fill="#c7bea8" d="
  M 108.21 115.05
  L 107.54 116.56
  A 0.59 0.59 0.0 0 1 106.42 116.33
  L 106.35 112.53
  Q 107.18 107.26 107.56 101.93
  Q 107.70 100.06 108.80 98.74
  A 0.31 0.31 0.0 0 1 109.35 98.96
  L 108.21 115.05
  Z"
/>
<ellipse fill="#7a7854" cx="0.00" cy="0.00" transform="translate(57.29,99.66) rotate(-92.0)" rx="0.85" ry="0.67"/>
<path fill="#866930" d="
  M 17.49 102.05
  L 17.37 104.79
  L 17.49 102.05
  Z"
/>
<path fill="#010101" d="
  M 87.02 105.13
  Q 86.45 105.65 85.27 105.26
  A 0.50 0.49 24.9 0 1 85.00 104.53
  Q 85.07 104.43 85.81 103.77
  Q 86.55 103.10 86.66 103.05
  A 0.50 0.49 71.6 0 1 87.35 103.40
  Q 87.60 104.61 87.02 105.13
  Z"
/>
<path fill="#866930" d="
  M 16.98 109.77
  Q 17.32 111.47 16.87 113.05
  L 16.73 110.78
  Q 16.77 110.24 16.98 109.77
  Z"
/>
<path fill="#010101" d="
  M 16.73 110.78
  L 16.87 113.05
  Q 16.85 113.47 16.58 113.80
  Q 16.30 112.23 16.73 110.78
  Z"
/>
<path fill="#866930" d="
  M 46.06 111.44
  A 0.76 0.76 0.0 0 1 47.21 110.81
  Q 49.32 112.06 49.41 112.66
  Q 49.51 113.35 47.99 114.23
  Q 47.07 114.76 46.62 116.09
  A 0.36 0.36 0.0 0 1 45.91 115.96
  L 46.06 111.44
  Z"
/>
<ellipse fill="#010101" cx="0.00" cy="0.00" transform="translate(111.89,112.05) rotate(-146.7)" rx="0.86" ry="0.73"/>
<path fill="#866930" d="
  M 161.67 116.36
  Q 162.60 123.21 160.63 127.39
  Q 159.44 129.93 156.10 130.99
  L 155.29 122.75
  A 0.47 0.47 0.0 0 0 154.77 122.33
  L 154.51 122.36
  A 1.03 1.02 84.2 0 0 153.59 123.49
  L 154.19 129.41
  A 0.45 0.44 -88.0 0 1 153.68 129.89
  L 150.51 129.40
  A 0.95 0.94 4.7 0 1 149.71 128.47
  Q 149.72 125.42 149.14 122.84
  C 148.93 121.91 149.31 120.68 150.10 120.12
  A 0.63 0.63 0.0 0 0 150.12 119.11
  L 145.47 115.56
  L 144.09 113.07
  A 0.65 0.65 0.0 0 1 144.62 112.11
  Q 144.92 112.09 145.43 112.13
  A 0.59 0.58 -86.9 0 1 145.96 112.73
  Q 145.96 113.19 146.11 113.45
  A 0.46 0.45 -44.8 0 0 146.90 113.45
  Q 146.92 113.41 146.94 113.34
  A 0.40 0.40 0.0 0 1 147.62 113.19
  L 148.00 113.64
  A 0.98 0.97 -16.1 0 0 148.61 113.97
  L 152.45 114.57
  A 1.07 1.07 0.0 0 1 152.61 116.65
  L 151.84 116.90
  A 0.34 0.34 0.0 0 0 151.90 117.56
  Q 156.86 118.29 161.67 116.36
  Z
  M 158.88 120.48
  Q 158.10 119.00 156.86 118.86
  A 0.90 0.90 0.0 0 0 155.88 119.57
  L 155.86 119.67
  A 0.83 0.83 0.0 0 0 156.57 120.66
  Q 157.41 120.78 158.07 121.21
  A 0.56 0.56 0.0 0 0 158.88 120.48
  Z"
/>
<path fill="#866930" d="
  M 44.45 127.04
  L 40.19 127.02
  L 39.51 121.38
  A 1.98 1.96 19.2 0 0 38.93 120.20
  Q 37.68 118.96 39.03 117.99
  A 0.91 0.90 68.2 0 0 39.40 117.12
  Q 39.34 116.65 39.58 116.03
  Q 39.80 115.47 40.30 115.31
  Q 41.47 114.95 42.66 115.14
  A 1.29 1.28 -9.5 0 1 43.59 115.80
  C 45.60 119.52 44.60 123.01 44.45 127.04
  Z"
/>
<path fill="#010101" d="
  M 99.79 117.23
  Q 101.65 116.16 103.48 118.09
  Q 105.55 120.27 105.08 123.52
  Q 104.95 124.45 104.52 124.21
  Q 104.47 124.18 104.09 123.89
  A 0.80 0.78 -44.2 0 0 103.13 123.89
  Q 102.32 124.50 100.77 123.07
  A 0.63 0.63 0.0 0 0 99.75 123.33
  Q 99.25 124.78 98.62 124.99
  A 0.62 0.62 0.0 0 1 97.86 124.66
  Q 96.09 120.75 98.77 118.25
  A 0.53 0.53 0.0 0 0 98.76 117.46
  Q 97.65 116.48 97.71 116.03
  A 0.48 0.48 0.0 0 1 98.48 115.72
  Q 99.14 116.22 99.17 116.89
  A 0.42 0.41 -16.0 0 0 99.79 117.23
  Z"
/>
<path fill="#7a7854" d="
  M 156.10 130.99
  L 149.63 132.03
  A 2.16 1.77 38.3 0 1 149.03 132.04
  Q 144.53 131.56 143.31 131.18
  Q 140.23 130.20 138.34 126.61
  A 1.61 1.54 -64.3 0 1 138.18 126.12
  L 137.52 121.71
  A 2.93 2.92 -13.2 0 1 139.52 118.49
  L 141.65 117.82
  Q 145.59 118.41 145.47 115.56
  L 150.12 119.11
  A 0.63 0.63 0.0 0 1 150.10 120.12
  C 149.31 120.68 148.93 121.91 149.14 122.84
  Q 149.72 125.42 149.71 128.47
  A 0.95 0.94 4.7 0 0 150.51 129.40
  L 153.68 129.89
  A 0.45 0.44 -88.0 0 0 154.19 129.41
  L 153.59 123.49
  A 1.03 1.02 84.2 0 1 154.51 122.36
  L 154.77 122.33
  A 0.47 0.47 0.0 0 1 155.29 122.75
  L 156.10 130.99
  Z"
/>
<path fill="#010101" d="
  M 115.87 118.93
  Q 116.43 120.13 117.22 121.40
  A 0.27 0.26 54.5 0 1 117.17 121.73
  Q 116.97 121.90 116.64 121.71
  A 0.32 0.31 -88.0 0 1 116.51 121.57
  Q 116.43 121.40 115.38 119.16
  Q 114.33 116.92 114.26 116.75
  A 0.32 0.31 37.9 0 1 114.23 116.55
  Q 114.30 116.18 114.56 116.13
  A 0.27 0.26 75.4 0 1 114.84 116.31
  Q 115.31 117.73 115.87 118.93
  Z"
/>
<path fill="#7a7854" d="
  M 49.89 125.90
  A 0.41 0.41 0.0 0 1 49.08 125.84
  Q 48.74 122.17 46.49 120.95
  A 1.09 1.09 0.0 0 1 45.93 120.09
  Q 45.82 118.79 45.85 118.34
  A 1.26 0.92 9.2 0 1 47.33 117.59
  Q 49.78 118.13 50.12 116.75
  A 0.49 0.48 -64.0 0 1 50.89 116.48
  Q 51.00 116.56 51.11 117.05
  Q 51.17 117.31 51.50 117.46
  Q 52.81 118.09 53.76 116.72
  A 0.45 0.45 0.0 0 1 54.52 116.74
  Q 54.78 117.17 54.42 117.95
  Q 52.79 121.41 50.74 123.41
  A 1.52 1.49 -15.9 0 0 50.32 124.15
  L 49.89 125.90
  Z"
/>
<path fill="#c7bea8" d="
  M 512.00 117.00
  L 512.00 117.62
  Q 511.57 117.95 511.37 117.90
  A 0.54 0.54 0.0 0 1 511.06 117.05
  Q 511.42 116.59 512.00 117.00
  Z"
/>
<path fill="#7a7854" d="
  M 158.88 120.48
  A 0.56 0.56 0.0 0 1 158.07 121.21
  Q 157.41 120.78 156.57 120.66
  A 0.83 0.83 0.0 0 1 155.86 119.67
  L 155.88 119.57
  A 0.90 0.90 0.0 0 1 156.86 118.86
  Q 158.10 119.00 158.88 120.48
  Z"
/>
<path fill="#f3d86f" d="
  M 110.64 124.74
  Q 109.75 126.01 108.39 124.87
  Q 107.48 124.10 106.75 120.92
  Q 108.04 119.64 109.76 120.40
  A 0.86 0.86 0.0 0 1 110.28 121.11
  L 110.64 124.74
  Z"
/>
<path fill="#866930" d="
  M 16.49 123.53
  Q 16.39 123.56 16.29 123.26
  Q 15.92 122.79 14.96 123.05
  Q 14.72 122.56 15.40 122.31
  A 0.78 0.78 0.0 0 1 16.42 122.87
  Q 16.46 123.06 16.49 123.53
  Z"
/>
<path fill="#010101" d="
  M 119.66 123.12
  L 116.83 124.22
  Q 117.31 123.67 117.53 122.80
  A 0.68 0.67 -81.3 0 1 118.20 122.30
  Q 119.07 122.32 119.66 123.12
  Z"
/>
<path fill="#010101" d="
  M 14.96 123.05
  Q 15.92 122.79 16.29 123.26
  L 14.71 123.20
  L 14.96 123.05
  Z"
/>
<path fill="#010101" d="
  M 122.76 122.99
  Q 122.28 123.27 121.70 123.18
  Q 121.90 122.67 122.76 122.99
  Z"
/>
<path fill="#010101" d="
  M 12.40 123.91
  L 3.66 127.18
  Q 7.71 123.91 12.40 123.91
  Z"
/>
<path fill="#010101" d="
  M 1.27 126.96
  Q 0.70 127.66 0.94 127.73
  Q 0.85 128.20 0.00 128.02
  L 0.00 126.13
  L 0.40 125.03
  A 0.14 0.14 0.0 0 1 0.67 125.04
  L 1.27 126.96
  Z"
/>
<path fill="#010101" d="
  M 103.22 129.27
  L 102.96 126.45
  A 1.04 1.04 0.0 0 1 104.95 125.95
  Q 105.41 127.04 104.00 129.44
  A 0.42 0.42 0.0 0 1 103.22 129.27
  Z"
/>
<path fill="#7a7854" d="
  M 35.50 127.10
  L 32.21 127.06
  L 35.50 127.10
  Z"
/>
<path fill="#7a7854" d="
  M 71.93 131.01
  Q 71.07 129.86 71.36 127.68
  L 72.52 127.69
  A 0.76 0.74 79.9 0 1 73.22 128.19
  Q 74.44 131.67 71.93 131.01
  Z"
/>
<path fill="#7a7854" d="
  M 81.56 128.78
  Q 82.69 129.28 83.07 129.91
  A 0.42 0.42 0.0 0 1 82.76 130.55
  L 80.09 130.81
  A 0.74 0.74 0.0 0 1 79.29 130.25
  Q 79.02 129.18 79.36 127.92
  Q 80.19 127.91 81.56 128.78
  Z"
/>
<path fill="#010101" d="
  M 102.12 131.60
  L 100.75 132.28
  Q 100.27 130.44 101.07 129.71
  A 0.44 0.44 0.0 0 1 101.76 129.85
  Q 102.08 130.51 102.12 131.60
  Z"
/>
</svg>
