<?xml version="1.0" encoding="UTF-8" standalone="no"?>
<!-- Created with Inkscape (http://www.inkscape.org/) -->

<svg
   version="1.1"
   id="svg1"
   width="512"
   height="137"
   viewBox="0 0 512 137"
   xmlns="http://www.w3.org/2000/svg"
   xmlns:svg="http://www.w3.org/2000/svg"
   xmlns:rdf="http://www.w3.org/1999/02/22-rdf-syntax-ns#"
   xmlns:cc="http://creativecommons.org/ns#"
   xmlns:dc="http://purl.org/dc/elements/1.1/">
  <title
     id="title1">JPSS-2 Icon SVG</title>
  <defs
     id="defs1" />
  <g
     id="g1">
    <path
       style="fill:currentColor"
       d="m 72.004594,132.01687 -1.356947,-4.98313 -12.073824,0.10997 C 25.97268,127.44065 16,127.05562 16,125.5 16,124.675 15.601676,124 15.114835,124 13.735767,124 3.7025498,127.0785 1.75,128.10075 c -1.50435839,0.78759 -1.73371728,0.45882 -1.63399865,-2.34228 0.0638007,-1.79216 0.32179662,-2.47097 0.57332416,-1.50847 0.61633929,2.3585 0.97890739,2.2568 5.34776109,-1.5 2.0787184,-1.7875 5.1728134,-4.375 6.8757664,-5.75 2.838786,-2.2921 3.149683,-3.1445 3.738449,-10.25 0.353193,-4.2625 0.935778,-7.75 1.294633,-7.75 0.358855,0 0.475066,-1.519535 0.258248,-3.376744 -0.308255,-2.640428 0.09818,-3.721633 1.86392,-4.958404 1.397435,-0.978802 2.819077,-1.267741 3.729823,-0.758062 2.593439,1.451361 5.062639,-2.255067 5.397937,-8.102653 L 29.5,76.5 33.349297,76.183715 c 3.449392,-0.283426 3.777324,-0.543152 3.156511,-2.5 C 36.124775,72.482672 35.579016,70.2625 35.293011,68.75 34.441815,64.248568 38.537497,65.116527 43.550822,70.5 48.301202,75.601113 49,75.896545 49,72.803751 c 0,-2.658995 -4.585551,-9.511577 -7.357642,-10.995155 -1.946965,-1.041984 -1.95063,-1.110014 -0.131449,-2.440231 2.946772,-2.154732 5.446637,-1.625322 8.68257,1.838755 2.564603,2.745416 2.910492,3.741221 2.402641,6.917143 -0.76191,4.764722 0.963664,5.502739 4.706885,2.013105 1.541652,-1.437213 3.341652,-2.639778 4,-2.672368 0.658347,-0.03259 3.293926,-0.420558 5.856841,-0.862152 l 4.659846,-0.802897 0.88726,-8.149975 c 0.487994,-4.482487 0.540246,-8.565793 0.116117,-9.074013 -0.437628,-0.524396 -1.842958,0.23247 -3.249357,1.75 -3.096609,3.341296 -3.837427,3.333772 -7.479721,-0.07596 -3.616664,-3.385741 -4.527914,-6.274316 -2.747471,-8.709216 1.069562,-1.462713 3.082939,-1.954279 9.533998,-2.327725 l 8.178098,-0.473423 1.591799,4.052324 c 1.797403,4.575745 2.333046,4.576305 9.073654,0.0095 4.73607,-3.208728 16.144441,-8.799445 17.958541,-8.800655 C 106.33305,34.000355 107.15087,34.9 107.5,36 c 0.49738,1.567106 1.51303,2 4.69239,2 4.46539,0 4.32877,0.523028 2.25503,-8.633337 -0.48755,-2.152731 -0.0638,-1.745954 1.70167,1.633337 2.42138,4.634893 4.24057,5.620987 8.43,4.569504 2.25918,-0.567017 2.42193,-1.057265 2.43622,-7.338556 C 127.02604,23.516026 127.32097,21.949274 128,23 c 0.53316,0.825 0.97627,2.8875 0.98469,4.583333 0.0199,4.016962 0.77911,4.652866 2.95596,2.47602 0.97569,-0.975689 4.98819,-2.561663 8.91666,-3.524386 6.07863,-1.489645 7.14497,-2.069544 7.158,-3.892686 C 148.02373,21.464026 148.46684,19.825 149,19 c 0.73898,-1.143489 0.97301,-0.750809 0.98469,1.652175 0.0126,2.598123 0.54329,3.336228 3.01913,4.199311 1.71306,0.597177 3.90403,2.572887 5.09877,4.597826 1.86846,3.166791 2.54379,3.549032 6.24619,3.535375 2.28317,-0.0084 4.82273,-0.439854 5.64347,-0.958738 1.05978,-0.670004 3.01166,-0.08593 6.73486,2.015312 C 179.61053,35.668568 182.84996,37 183.92583,37 c 2.18086,0 3.9468,1.952597 1.88319,2.082231 -7.25745,0.455901 -8.76963,1.592359 -8.79371,6.608752 -0.02,4.173433 0.85866,4.572599 6.10983,2.77556 3.32217,-1.136903 4.92984,-2.467077 6.68132,-5.528063 1.26855,-2.217002 3.5182,-4.491618 4.99923,-5.054702 3.64138,-1.38445 18.97354,-3.414297 40.69431,-5.387576 9.9,-0.899391 22.725,-2.27827 28.5,-3.064175 16.4652,-2.240708 44.59222,-5.362588 54.75,-6.076822 L 328,22.7048 l 0.0318,3.3976 c 0.0303,3.238955 0.10125,3.304214 1.51899,1.3976 3.61255,-4.858241 4.37051,-5.258093 12.07542,-6.370251 8.17469,-1.179965 52.7113,-6.470738 64.75967,-7.69319 l 6.88587,-0.698655 -0.7195,3.881048 C 412.15652,18.753528 411.62043,21.85 411.36093,23.5 l -0.47182,3 1.44777,-2.5 c 0.79628,-1.375 2.02047,-4.422561 2.72043,-6.772357 1.40971,-4.732447 1.07346,-4.576356 13.44269,-6.240127 4.4,-0.591839 10.25,-1.4936362 13,-2.0039934 2.75,-0.5103573 16.7,-2.0569946 31,-3.4369719 33.99646,-3.2807235 34.12909,-3.2979666 36.43266,-4.73656888 1.08701,-0.67884957 2.2625,-0.94815413 2.6122,-0.59845459 0.3497,0.34969954 -0.30646,4.60766477 -1.45814,9.46214507 C 508.93505,14.528153 505.73604,28.175 502.97781,40 c -8.13886,34.892765 -13.19524,55.387464 -14.10228,57.1599 -1.11333,2.175526 -4.44296,2.61579 -28.87553,3.81809 -11.275,0.55484 -24.775,1.22731 -30,1.49439 -7.75659,0.39649 -33.35415,0.77662 -38.88084,0.5774 -1.02492,-0.037 -1.23533,-1.01637 -0.81629,-3.79978 0.51539,-3.423358 0.44347,-3.575791 -0.8256,-1.75 -4.27627,6.15215 -3.16569,5.7689 -19.08128,6.58484 -26.63192,1.36532 -64.04598,2.21982 -66.81082,1.52589 -2.17593,-0.54612 -2.5899,-1.10682 -2.13671,-2.89404 l 0.56208,-2.21669 -1.13205,2.19166 c -0.62263,1.20542 -1.79152,2.44472 -2.59753,2.75402 -2.4319,0.93321 -22.67248,2.39845 -41.78096,3.02457 -36.59011,1.19895 -46.38713,1.78112 -86.25,5.12521 l -8.25,0.69209 v 4.79113 c 0,9.51006 -3.31012,13.05239 -12.27203,13.13292 -6.70737,0.0603 -9.48586,-1.38789 -11.38539,-5.93412 -2.01657,-4.82632 -1.0962,-8.05782 2.40986,-8.46129 4.44875,-0.51196 3.48571,-3.26697 -1.25244,-3.5829 -3.6502,-0.24339 -4.13118,0.019 -5.5,3 -1.17806,2.56559 -2.58407,3.62662 -6.55098,4.94362 -2.77803,0.9223 -7.11845,1.92007 -9.64536,2.21725 -5.93892,0.69847 -20.409143,9.60036 -18.579584,11.42992 C 100.12531,136.72531 97.241952,137 86.880771,137 H 73.361541 Z M 304.42679,95 c 0.46475,-1.737478 0.38603,-2.042487 -0.25808,-1 -0.50973,0.825 -1.2277,2.625 -1.5955,4 -0.46475,1.737478 -0.38603,2.04249 0.25808,1 0.50973,-0.825 1.2277,-2.625 1.5955,-4 z M 31,82.5 C 31,82.225 30.775,82 30.5,82 30.225,82 30,82.225 30,82.5 30,82.775 30.225,83 30.5,83 30.775,83 31,82.775 31,82.5 Z M 114,65 c 0,-0.55 -0.45,-1 -1,-1 -0.55,0 -1,0.45 -1,1 0,0.55 0.45,1 1,1 0.55,0 1,-0.45 1,-1 z m -2,-14 c 1.82797,-1.181322 0.24909,-1.181322 -2.5,0 -1.31874,0.566682 -1.48906,0.878155 -0.5,0.914402 0.825,0.03023 2.175,-0.381246 3,-0.914402 z m 8.38817,-0.819056 c 0.27841,-0.450481 -0.82003,-0.624406 -2.44098,-0.386501 C 116.32623,50.032349 115,50.400924 115,50.613499 c 0,0.761981 4.89266,0.369205 5.38817,-0.432555 z m 3.2785,-0.847611 c -0.36667,-0.366666 -0.96667,-0.366666 -1.33334,0 C 121.96667,49.7 122.26667,50 123,50 c 0.73333,0 1.03333,-0.3 0.66667,-0.666667 z m 27,-4 C 150.3,44.966667 150,45.266667 150,46 c 0,0.733333 0.3,1.033333 0.66667,0.666667 0.36666,-0.366667 0.36666,-0.966667 0,-1.333334 z M 511,117.5 c 0,-0.275 0.225,-0.5 0.5,-0.5 0.275,0 0.5,0.225 0.5,0.5 0,0.275 -0.225,0.5 -0.5,0.5 -0.275,0 -0.5,-0.225 -0.5,-0.5 z M 183,44 c 0,-0.733333 0.3,-1.033333 0.66667,-0.666667 0.36666,0.366667 0.36666,0.966667 0,1.333334 C 183.3,45.033333 183,44.733333 183,44 Z"
       id="path1" />
  </g>
  <metadata
     id="metadata1">
    <rdf:RDF>
      <cc:Work
         rdf:about="">
        <dc:title>JPSS-2 Icon SVG</dc:title>
        <dc:source>https://eospso.nasa.gov/sites/default/files/sat/jp5.jpg</dc:source>
      </cc:Work>
    </rdf:RDF>
  </metadata>
</svg>
