<?xml version="1.0" encoding="UTF-8" standalone="no"?>
<!-- Created with Inkscape (http://www.inkscape.org/) -->

<svg
   version="1.1"
   id="svg1"
   width="163.84"
   height="160.64"
   viewBox="0 0 163.84 160.64"
   xmlns="http://www.w3.org/2000/svg"
   xmlns:svg="http://www.w3.org/2000/svg"
   xmlns:rdf="http://www.w3.org/1999/02/22-rdf-syntax-ns#"
   xmlns:cc="http://creativecommons.org/ns#"
   xmlns:dc="http://purl.org/dc/elements/1.1/">
  <title
     id="title1">SORCE Icon SVG</title>
  <defs
     id="defs1" />
  <g
     id="g1">
    <path
       style="fill:currentColor"
       d="m 107.96549,159.36525 c -0.46398,-0.70111 -0.99227,-1.18287 -1.17399,-1.07056 -0.18707,0.11562 -0.23435,0.0488 -0.10899,-0.15404 0.26868,-0.43474 -1.36638,-3.00075 -1.7579,-2.75878 -0.1525,0.0943 -0.19703,-0.0378 -0.099,-0.29336 0.11862,-0.30911 -0.0165,-0.44862 -0.40366,-0.41662 -0.42487,0.0351 -0.59068,-0.18666 -0.61415,-0.82145 -0.0376,-1.01657 -0.69468,-1.93343 -1.17355,-1.63747 -0.19051,0.11774 -0.23781,0.0516 -0.11045,-0.15449 0.25837,-0.41805 -0.71193,-2.04834 -1.08273,-1.81918 -0.13687,0.0846 -0.22912,-0.0966 -0.20499,-0.40274 0.0243,-0.30782 -0.14553,-0.51726 -0.37992,-0.46863 -0.23308,0.0484 -0.3351,-0.0556 -0.2267,-0.23096 0.287,-0.46437 -0.709613,-1.84143 -1.478128,-2.0424 -0.367999,-0.0962 -0.59239,-0.35819 -0.508339,-0.59343 0.196263,-0.5493 -0.352854,-1.60993 -0.716989,-1.38488 -0.155008,0.0958 -0.386033,0.006 -0.513387,-0.20048 -0.152964,-0.2475 -0.09207,-0.28846 0.179402,-0.12068 0.275646,0.17036 0.357777,0.10761 0.249443,-0.19056 -0.08883,-0.2445 -0.334218,-0.40497 -0.5453,-0.35661 -0.211082,0.0484 -0.295097,-0.0556 -0.1867,-0.23096 0.246239,-0.39843 -0.763939,-1.99055 -1.122406,-1.769 -0.144587,0.0894 -0.367085,-0.006 -0.494439,-0.21219 -0.152964,-0.2475 -0.09207,-0.28846 0.179402,-0.12068 0.275646,0.17036 0.357777,0.10761 0.249443,-0.19056 -0.08883,-0.2445 -0.334218,-0.40497 -0.5453,-0.35661 -0.211082,0.0484 -0.296124,-0.0539 -0.188983,-0.22727 0.24114,-0.39017 -2.693651,-4.86682 -3.047294,-4.64826 -0.140643,0.0869 -0.359914,-0.0106 -0.487268,-0.21662 -0.144616,-0.234 -0.09284,-0.28894 0.137888,-0.14634 0.571799,0.35339 0.444076,-0.0304 -0.469607,-1.41105 -0.461478,-0.69734 -0.963828,-1.19078 -1.116335,-1.09652 -0.152506,0.0942 -0.190901,-0.0537 -0.08532,-0.32888 0.133057,-0.34674 0.04947,-0.44557 -0.272397,-0.32206 -0.546342,0.20965 -1.353031,-0.6356 -1.059648,-1.1103 0.291815,-0.47217 -0.433135,-1.67948 -0.852747,-1.42015 -0.202917,0.12541 -0.263508,0.073 -0.142302,-0.12314 0.230501,-0.37296 -3.269757,-5.66645 -3.556961,-5.37925 -0.404522,0.40453 -1.01979,-0.56822 -0.832187,-1.3157 l 0.196866,-0.78437 -1.239959,0.53194 c -0.681977,0.29257 -2.319959,0.92681 -3.639959,1.40942 -1.411053,0.51591 -2.363768,1.04039 -2.312071,1.27284 0.04836,0.21744 -0.05401,0.30763 -0.227481,0.20042 -0.680631,-0.42066 -2.546898,1.25674 -3.190227,2.86736 -0.351497,0.88 -1.136951,2.82428 -1.745452,4.32062 -0.723367,1.77881 -1.048436,3.02367 -0.939023,3.59602 0.119643,0.62588 0.01671,0.9332 -0.361124,1.07819 -0.6594,0.25304 -1.550922,2.32059 -1.343178,3.11501 0.204021,0.78018 -0.08614,1.49016 -0.609013,1.49016 -0.230504,0 -0.623812,0.612 -0.87402,1.36 -0.396516,1.18539 -0.574545,1.35973 -1.386666,1.35793 -0.51246,-0.001 -0.931744,-0.16015 -0.931744,-0.35335 0,-0.56927 -2.02997,-2.11327 -2.442892,-1.85807 -0.226839,0.14019 -0.290785,0.0945 -0.161198,-0.11517 0.259528,-0.41993 -1.048768,-1.40589 -1.497503,-1.12855 -0.174511,0.10785 -0.224447,0.0459 -0.110968,-0.13775 0.273352,-0.44229 -1.926464,-2.10522 -2.398765,-1.81332 -0.238196,0.14721 -0.279742,0.0851 -0.118044,-0.17656 0.185761,-0.30057 0.06468,-0.34506 -0.473886,-0.17413 -1.445308,0.45873 -3.354633,1.65326 -3.268816,2.04508 0.04836,0.2208 -0.06062,0.30965 -0.242184,0.19744 -0.422008,-0.26082 -2.313077,1.06862 -2.072887,1.45725 0.09921,0.16053 -0.01261,0.21781 -0.248478,0.1273 -0.600481,-0.23043 -2.300775,1.60488 -1.988031,2.1459 0.135443,0.2343 0.126859,0.31769 -0.01908,0.1853 -0.317943,-0.28842 -1.490473,0.69573 -1.264506,1.06135 0.08672,0.14032 -0.01093,0.35933 -0.216989,0.48668 -0.256229,0.15836 -0.289039,0.0895 -0.103793,-0.21789 0.230694,-0.38278 0.190564,-0.3843 -0.270557,-0.0103 -0.534808,0.43381 -0.789595,1.83197 -0.275999,1.51455 0.145986,-0.0902 0.242834,0.14264 0.215219,0.51749 -0.03568,0.48425 -0.407582,0.80526 -1.284785,1.10896 -1.069562,0.37029 -1.418728,0.35709 -2.612367,-0.0988 -1.174893,-0.44869 -1.587915,-0.46735 -2.804625,-0.12669 -0.784758,0.21971 -1.680138,0.67938 -1.989734,1.02148 -0.50564,0.55873 -0.953431,0.6147 -4.401923,0.55019 -2.317722,-0.0434 -4.161626,-0.2327 -4.653117,-0.47783 -0.447753,-0.22331 -1.478395,-0.63598 -2.290317,-0.91704 -1.146425,-0.39685 -1.807631,-0.93778 -2.959666,-2.42127 -0.815895,-1.05064 -1.655822,-1.91025 -1.866504,-1.91025 -0.210683,0 -1.652348,-0.65556 -3.203701,-1.4568 -1.551353,-0.80125 -2.985376,-1.355 -3.186717,-1.23056 -0.224185,0.13855 -0.27853,0.0846 -0.140208,-0.13922 0.141979,-0.22972 -0.264539,-0.56168 -1.094533,-0.89378 -0.876789,-0.35082 -1.58805,-0.9523 -2.117054,-1.7903 -0.526529,-0.83407 -0.958051,-1.20005 -1.272645,-1.07933 -0.261795,0.10046 -0.396676,0.0543 -0.299735,-0.10253 0.09694,-0.15685 -0.707764,-0.94211 -1.7882305,-1.74502 -1.9544606,-1.45238 -2.3286919,-1.90571 -3.3371059,-4.04246 -1.1146122,-2.36177 -1.4155817,-3.08997 -1.9177645,-4.64 -0.6389913,-1.97231 -1.3464107,-3.1232 -1.7619009,-2.86641 -0.1726287,0.10669 -0.2772183,0.0753 -0.2324214,-0.0698 0.1780299,-0.57658 -1.0424253,-3.01116 -1.3990155,-2.79077 -0.23219358,0.1435 -0.27734614,0.0833 -0.123822,-0.16512 0.1537847,-0.24883 -0.00276,-0.45489 -0.43055731,-0.56676 -0.50405378,-0.13181 -0.67097128,-0.42659 -0.6672969,-1.17846 0.00740021,-1.51427 0.38959122,-1.96143 1.22860421,-1.43745 0.6008511,0.37523 0.7628202,0.33461 1.402886,-0.35182 0.5911557,-0.63398 0.6064601,-0.6926 0.08361,-0.32024 -0.6333408,0.45106 -0.6336572,0.44837 -0.030404,-0.25869 0.6245256,-0.73198 1.0244181,-0.96729 0.6704039,-0.39448 -0.3845612,0.62223 0.2292973,0.30606 1.6228668,-0.83586 0.7758171,-0.63573 1.3178027,-1.30598 1.2044122,-1.48944 -0.1133905,-0.18347 -0.06113,-0.24395 0.1161352,-0.13439 0.4026893,0.24887 1.5365857,-0.55105 1.5365857,-1.08401 0,-0.21741 0.2591585,-0.43333 0.5759077,-0.47981 0.730309,-0.10719 1.5448412,-0.77167 1.3440923,-1.09649 -0.084124,-0.13612 0.089103,-0.4438 0.3849502,-0.68374 0.369951,-0.30005 0.462869,-0.31137 0.297591,-0.0363 -0.132172,0.22 -0.110132,0.4 0.04898,0.4 0.394542,0 1.391149,-1.13067 1.181447,-1.34037 -0.09264,-0.0926 0.07869,-0.36895 0.380728,-0.61403 0.363367,-0.29484 0.467857,-0.31027 0.308848,-0.0456 -0.405666,0.67523 0.285013,0.44352 1.024605,-0.34374 0.384289,-0.40906 0.58939,-0.85306 0.455781,-0.98667 -0.13361,-0.13361 -0.09893,-0.19611 0.07707,-0.13888 0.424592,0.13804 4.661791,-3.27657 4.463676,-3.59712 -0.08476,-0.13715 0.01448,-0.35357 0.220546,-0.48092 0.233993,-0.14462 0.288936,-0.0928 0.146335,0.13789 -0.310523,0.50243 0.344928,0.47256 0.670557,-0.0306 C 19.563501,105.3 19.68,104.616 19.68,104 c 0,-1.11375 0.008,-1.12 1.437158,-1.12 1.059686,0 1.439791,-0.12607 1.447181,-0.48 0.0055,-0.264 0.233267,-0.44355 0.50612,-0.399 0.479706,0.0783 1.757302,-1.0283 1.940708,-1.681 0.04945,-0.176 0.248649,-0.28355 0.442653,-0.239 0.362169,0.0832 1.636534,-1.108704 1.797347,-1.681 0.04946,-0.176 0.248649,-0.283549 0.442653,-0.238998 0.194005,0.04455 0.671399,-0.2582 1.060877,-0.67278 L 29.462839,96.73444 27.085962,96.327862 24.709086,95.921284 21.634543,87.057839 C 19.943544,82.182943 18.56,78.026862 18.56,77.822103 c 0,-0.263986 0.558554,-0.31391 1.92,-0.171611 1.343378,0.140411 1.919999,0.09089 1.919999,-0.164906 0,-0.514208 1.194883,-0.456809 1.5041,0.07225 0.147049,0.251598 1.072601,0.521562 2.1759,0.634665 1.264973,0.129676 1.701658,0.09715 1.28,-0.09535 -0.497581,-0.227156 -0.301755,-0.297178 0.88,-0.314664 1.081162,-0.016 1.52,0.103481 1.52,0.413839 0,0.328146 0.85291,0.489239 3.44,0.649728 1.892,0.117369 4.057737,0.298231 4.812749,0.401915 1.063386,0.146034 1.351846,0.08975 1.28,-0.249728 -0.05721,-0.270336 0.244413,-0.47704 0.787251,-0.5395 0.628568,-0.07232 0.88,0.04196 0.88,0.4 0,0.27569 0.18,0.510157 0.4,0.521038 0.22,0.01088 1.470175,0.126854 2.778167,0.257717 2.240986,0.224208 2.47651,0.184669 4.08302,-0.685454 0.99013,-0.536277 1.615783,-1.067507 1.49239,-1.26716 -0.119544,-0.193426 -0.06352,-0.25172 0.128103,-0.133291 0.187311,0.115765 0.554034,0.128565 0.81494,0.02845 0.408522,-0.156764 0.417137,-0.399009 0.06206,-1.745034 -0.488351,-1.851252 -1.612195,-3.551134 -2.198912,-3.325989 -0.564678,0.216687 -1.278317,-0.698531 -1.03635,-1.329086 0.222404,-0.579576 -3.496829,-6.114619 -4.012846,-5.972004 -0.17498,0.04836 -0.223046,-0.06595 -0.106812,-0.254017 0.252877,-0.409164 -0.441725,-1.337663 -0.823966,-1.101425 -0.350962,0.216906 -1.026415,-1.05345 -0.775762,-1.459014 0.212233,-0.343401 -3.65799,-6.127247 -3.970805,-5.934159 -0.106276,0.0656 -0.218403,-0.262909 -0.24917,-0.73002 -0.03561,-0.54067 0.26735,-1.198146 0.833712,-1.809293 0.489308,-0.528 0.981707,-1.248 1.09422,-1.6 0.124289,-0.388843 -0.282739,-0.106292 -1.03719,0.72 -0.682967,0.748 -1.36855,1.36 -1.523518,1.36 -0.154968,0 -0.757008,-0.794562 -1.337867,-1.765694 -0.580859,-0.971131 -1.180552,-1.688782 -1.33265,-1.59478 -0.152099,0.094 -0.380743,0.0023 -0.508098,-0.203749 -0.144615,-0.233993 -0.09284,-0.288935 0.137889,-0.146334 0.526153,0.32518 0.462152,0.06427 -0.301885,-1.230676 -0.36923,-0.625798 -0.79128,-1.06368 -0.937889,-0.973071 -0.146608,0.09061 -0.37076,-0.0039 -0.498115,-0.209919 -0.144615,-0.233993 -0.09284,-0.288935 0.137889,-0.146334 0.203193,0.12558 0.369442,0.07131 0.369442,-0.120601 0,-0.191911 -0.216,-0.416409 -0.48,-0.498885 -1.536255,-0.479942 -1.548945,-0.489012 -1.188487,-0.84947 0.414727,-0.414727 -0.09906,-1.672477 -0.565457,-1.38423 -0.155008,0.0958 -0.386032,0.0056 -0.513387,-0.20048 -0.144615,-0.233993 -0.09284,-0.288935 0.137889,-0.146334 0.512433,0.316701 0.461507,-0.01145 -0.145561,-0.937954 -0.283251,-0.432297 -0.633301,-0.712882 -0.777888,-0.623522 -0.144587,0.08936 -0.367085,-0.0061 -0.49444,-0.21219 -0.144615,-0.233993 -0.09284,-0.288935 0.137889,-0.146334 0.571799,0.353391 0.444075,-0.03039 -0.469608,-1.411055 -0.461477,-0.69734 -0.955527,-1.195904 -1.097888,-1.10792 -0.142361,0.08799 -0.363038,-0.0086 -0.490393,-0.214691 -0.144615,-0.233993 -0.09284,-0.288935 0.137889,-0.146334 0.203193,0.12558 0.364863,0.111829 0.359265,-0.03056 -0.01701,-0.432694 -0.757266,-1.246341 -1.32889,-1.46064 -0.296487,-0.111152 -0.706854,-0.515605 -0.911926,-0.898786 -0.291562,-0.544789 -0.287075,-0.643675 0.02058,-0.453533 0.25643,0.158482 0.337195,0.08835 0.231926,-0.201384 -0.08883,-0.244498 -0.334218,-0.404974 -0.5453,-0.356614 -0.211082,0.04836 -0.29274,-0.05939 -0.181462,-0.239438 C 24.727817,36.079023 23.805279,34.72 23.274259,34.72 c -0.216378,0 -0.393605,-0.216 -0.393837,-0.48 -6.09e-4,-0.69244 -1.445016,-2.914932 -1.765642,-2.716774 -0.148807,0.09197 -0.374757,-0.0014 -0.502112,-0.207449 -0.144615,-0.233993 -0.09284,-0.288935 0.137889,-0.146334 0.473478,0.292625 0.481483,-0.209403 0.01084,-0.680042 -0.264799,-0.264799 -0.05003,-0.866552 0.821046,-2.300505 0.648805,-1.068048 1.075925,-2.109727 0.949157,-2.314843 -0.136266,-0.220483 -0.09179,-0.287216 0.108806,-0.163243 0.443338,0.273998 6.276384,-9.262949 5.969331,-9.759771 -0.134428,-0.217509 -0.08895,-0.283602 0.11037,-0.160414 0.189522,0.117132 0.711112,-0.425457 1.182932,-1.230557 0.866388,-1.47838 1.561819,-1.822273 1.900461,-0.939786 0.107457,0.28003 0.35562,0.399145 0.563679,0.270557 0.226579,-0.140033 0.285496,-0.09024 0.150903,0.127537 -0.289851,0.468989 2.02586,3.949317 2.452371,3.685718 0.194428,-0.120163 0.230612,-0.04471 0.08868,0.184933 -0.301726,0.488204 1.325927,3.007414 1.766968,2.734836 0.540701,-0.334172 1.261664,0.527528 1.193194,1.426114 -0.07817,1.025858 0.297403,1.719271 0.77225,1.4258 0.205046,-0.126725 0.25547,-0.06603 0.123091,0.148167 -0.278472,0.450577 0.373445,1.73827 0.759299,1.499799 0.155008,-0.0958 0.386033,-0.0056 0.513387,0.20048 0.152964,0.2475 0.09207,0.288458 -0.179402,0.120677 -0.273944,-0.169307 -0.361554,-0.105775 -0.262776,0.190557 0.0815,0.244499 0.30418,0.444543 0.494847,0.444543 0.190667,0 0.466667,0.131087 0.613333,0.291304 0.154933,0.169246 0.09906,0.194854 -0.133333,0.06112 -0.540424,-0.311 -0.503109,-0.0073 0.115003,0.936092 0.283252,0.432297 0.626993,0.71678 0.76387,0.632185 0.136878,-0.0846 0.229126,0.09664 0.204998,0.402748 -0.02426,0.307817 0.14553,0.517258 0.379915,0.468627 0.233082,-0.04836 0.334422,0.05666 0.225201,0.233387 -0.298409,0.482836 0.418522,1.614598 0.904626,1.428063 0.451349,-0.173199 0.936189,0.300235 1.273047,1.243099 0.122717,0.343487 0.07811,0.497575 -0.110325,0.381115 -0.461643,-0.285311 -0.387741,0.0758 0.198668,0.970776 0.283252,0.432297 0.626993,0.71678 0.76387,0.632185 0.136878,-0.0846 0.229126,0.09664 0.204997,0.402748 -0.02426,0.307817 0.145531,0.517258 0.379915,0.468627 0.233083,-0.04836 0.335098,0.05557 0.226701,0.230962 -0.240435,0.389032 0.759739,1.99314 1.108387,1.777663 0.136877,-0.0846 0.229126,0.09664 0.204997,0.402748 -0.02426,0.307817 0.145531,0.517258 0.379915,0.468627 0.233082,-0.04836 0.335098,0.05557 0.226701,0.230962 -0.226034,0.365731 0.749392,1.999534 1.074003,1.798914 0.310485,-0.191891 0.197327,1.367566 -0.120145,1.655738 -0.146824,0.133273 -0.159741,0.02631 -0.02871,-0.237685 0.299854,-0.604118 -1.636254,1.560897 -2.074705,2.32 -0.601034,1.040585 0.2248,0.568901 1.260589,-0.72 1.196257,-1.488582 1.711999,-1.595494 2.228473,-0.461956 0.204999,0.449924 0.506163,0.735575 0.669253,0.63478 0.163091,-0.100795 0.400727,-0.01467 0.528082,0.191399 0.144616,0.233992 0.09284,0.288935 -0.137888,0.146334 -0.5718,-0.353391 -0.444076,0.03039 0.469607,1.411055 0.461477,0.69734 0.955527,1.195903 1.097888,1.107919 0.142362,-0.08798 0.363038,0.0086 0.490393,0.214692 0.144615,0.233992 0.09284,0.288935 -0.137888,0.146334 -0.564393,-0.348813 -0.443276,0.08487 0.335139,1.200044 0.898892,1.28777 1.242997,1.529477 1.939606,1.362423 0.787918,-0.188951 1.335661,0.892546 0.713541,1.40886 -0.401381,0.333117 -0.278664,0.660177 0.85309,2.273602 0.727051,1.036482 1.381545,1.884514 1.454431,1.884514 0.07289,0 0.04352,-0.144 -0.06525,-0.32 -0.321918,-0.520873 0.04536,-0.364727 0.520817,0.221426 0.298418,0.367892 0.310977,0.464404 0.03918,0.301115 -0.541221,-0.325154 -0.50297,-0.01718 0.115003,0.92597 0.283251,0.432296 0.633301,0.712881 0.777888,0.623521 0.144587,-0.08936 0.367085,0.0061 0.49444,0.212191 0.152963,0.2475 0.09207,0.288458 -0.179403,0.120677 -0.273944,-0.169307 -0.361553,-0.105775 -0.262776,0.190557 0.0815,0.244499 0.304181,0.444543 0.494848,0.444543 0.190666,0 0.466666,0.131087 0.613333,0.291304 0.154932,0.169246 0.09907,0.194854 -0.133333,0.06111 -0.22,-0.126604 -0.4,-0.106491 -0.4,0.0447 0,0.448569 0.729443,1.042886 1.28,1.042886 0.836105,0 1.286554,0.638188 0.894054,1.266681 -0.256121,0.410114 -0.202317,0.754797 0.217937,1.396187 0.306908,0.4684 0.676313,0.778524 0.8209,0.689164 0.144587,-0.08936 0.367085,0.0061 0.49444,0.212191 0.152963,0.2475 0.09207,0.288458 -0.179403,0.120677 -0.273944,-0.169307 -0.361553,-0.105775 -0.262776,0.190557 0.0815,0.244499 0.304181,0.444543 0.494848,0.444543 0.190666,0 0.466666,0.131087 0.613333,0.291304 0.154932,0.169246 0.09906,0.194854 -0.133333,0.06111 -0.540425,-0.311 -0.50311,-0.0073 0.115002,0.936093 0.283252,0.432296 0.633302,0.712881 0.777889,0.623521 0.144587,-0.08936 0.367085,0.0061 0.49444,0.212191 0.152963,0.2475 0.09207,0.288458 -0.179403,0.120677 -0.273944,-0.169307 -0.361553,-0.105775 -0.262776,0.190557 0.0815,0.244499 0.304181,0.444543 0.494848,0.444543 0.190666,0 0.466666,0.131087 0.613333,0.291304 0.154932,0.169246 0.09906,0.194854 -0.133333,0.06111 -0.22,-0.126604 -0.4,-0.08276 -0.4,0.09744 0,0.498498 1.200283,1.058013 1.439465,0.671009 C 68.108532,66.384389 68.471721,66.24 68.80655,66.24 c 0.434631,0 0.69811,-0.343276 0.921054,-1.2 1.284245,-4.935071 1.280633,-4.912275 0.807167,-5.093961 -0.725443,-0.278378 -0.526819,-1.366933 0.319804,-1.752681 0.647255,-0.294909 0.943611,-0.96443 1.802927,-4.073139 0.565593,-2.046121 1.091448,-3.88721 1.168567,-4.09131 0.07712,-0.2041 -0.158199,-0.465804 -0.522928,-0.581564 -0.888387,-0.281963 -0.83677,-0.607279 0.265157,-1.671126 0.686305,-0.662587 1.151536,-1.688705 1.78464,-3.936219 1.629147,-5.783462 1.311411,-5.323481 3.20706,-4.642803 0.352,0.126394 0.121755,-0.109269 -0.511655,-0.523695 L 76.896687,37.92 78.09481,33.515385 C 79.826338,27.149837 79.75656,27.52 79.22498,27.52 c -0.696224,0 -0.900536,-0.540901 -0.492381,-1.303544 0.221586,-0.414038 0.577787,-0.620392 0.917534,-0.531546 0.473314,0.123774 0.777382,-0.687078 2.058677,-5.489843 C 83.301087,14.226626 83.386013,13.76 82.879998,13.76 c -0.176,0 -0.32,-0.430302 -0.32,-0.956227 0,-0.790962 0.119871,-0.943053 0.693576,-0.88 0.638832,0.07021 0.817887,-0.378412 2.268509,-5.683773 0.866213,-3.168 1.699144,-5.88984076 1.850959,-6.04853502 0.162158,-0.16950644 1.085454,0.0625039 2.238145,0.56241214 1.079166,0.46802098 2.116374,0.75561248 2.304908,0.63909228 0.218566,-0.1350811 0.247865,-0.058266 0.08085,0.2119683 -0.191781,0.3103081 -0.114864,0.3673861 0.287178,0.2131081 0.302013,-0.1158932 0.476738,-0.093608 0.388278,0.049523 -0.223555,0.3617201 2.649036,1.7140331 3.077915,1.4489717 0.224472,-0.1387317 0.255313,-0.06454 0.08663,0.2083971 -0.191781,0.310308 -0.114864,0.367386 0.287178,0.2131081 0.302013,-0.1158933 0.476395,-0.093053 0.387516,0.050757 -0.227181,0.3675864 13.75791,7.2095865 14.19027,6.9423775 0.19992,-0.123558 0.31568,-0.03434 0.26602,0.205034 -0.0529,0.254968 0.19255,0.414345 0.61616,0.400087 0.38725,-0.01303 0.64376,0.07391 0.57003,0.193207 -0.20137,0.325822 1.44112,0.991205 1.8393,0.745115 0.2213,-0.136771 0.25132,-0.06118 0.0835,0.210315 -0.19179,0.310308 -0.11487,0.367386 0.28717,0.213108 0.37006,-0.142003 0.47441,-0.08983 0.32,0.16 -0.1544,0.249828 -0.05,0.302003 0.32,0.16 0.30202,-0.115893 0.47356,-0.08846 0.38122,0.06095 -0.0923,0.149417 0.41015,0.532334 1.11667,0.850926 0.70651,0.318593 1.22206,0.734693 1.14568,0.924668 -4.85212,12.067081 -4.83255,12.008932 -4.19872,12.472397 0.52762,0.385808 0.5546,0.55505 0.2093,1.312907 -0.29007,0.636624 -0.56565,0.825747 -1.02734,0.705014 C 112.28392,29.254163 112,29.206774 112,29.2396 c 0,0.03283 -0.72164,1.927235 -1.60363,4.209798 -0.882,2.282562 -1.53165,4.337702 -1.44367,4.566977 0.088,0.229276 0.0379,0.34141 -0.11134,0.249188 -0.14922,-0.09222 -0.49055,0.390461 -0.75851,1.07263 -0.4371,1.112744 -0.43665,1.290862 0.004,1.731864 0.44207,0.442077 0.43971,0.57068 -0.0235,1.277587 -0.28327,0.432316 -0.76224,0.764952 -1.06439,0.739192 -0.42325,-0.03608 -0.94531,0.981655 -2.27405,4.433164 -0.94857,2.464 -1.84923,4.606217 -2.00147,4.760482 -0.15776,0.159863 -1.33761,-0.291717 -2.74356,-1.050078 -1.356725,-0.731808 -2.543308,-1.254025 -2.636851,-1.160482 -0.220884,0.220884 -0.282043,0.176936 2.420557,1.739389 1.278184,0.738955 2.456924,1.261381 2.619434,1.160947 0.40773,-0.251993 0.0407,0.934704 -1.72123,5.56562 -1.414292,3.717134 -1.463938,3.952657 -0.918632,4.358066 0.808292,0.60093 0.312332,1.38 -1.452593,2.281776 -0.05998,0.03065 -0.739675,1.749078 -1.510434,3.818738 -1.043911,2.803134 -1.31256,3.870041 -1.053179,4.182576 0.191511,0.230756 0.269713,0.719698 0.173782,1.086538 -0.119583,0.457285 -0.04597,0.617692 0.234132,0.510205 0.528227,-0.202699 0.46835,0.937659 -0.109729,2.089814 -0.398986,0.795209 -0.35163,0.990856 0.598073,2.470839 0.567253,0.883987 1.199003,1.575371 1.403888,1.53641 0.204886,-0.03896 0.347719,0.209967 0.317406,0.553176 -0.03031,0.343208 0.12993,0.991208 0.356094,1.44 0.226165,0.448791 0.352945,0.978046 0.281735,1.176121 -0.213447,0.593713 1.431197,0.741865 1.692057,0.152423 0.12476,-0.281908 0.21048,-0.601043 0.19049,-0.709188 -0.02,-0.108145 0.42515,-0.09842 0.9892,0.02162 0.78398,0.166842 1.00941,0.372428 0.95707,0.872809 -0.0643,0.614459 0.20597,0.679658 4.41117,1.064272 4.21839,0.38582 4.50427,0.376013 4.90219,-0.168175 0.47035,-0.643253 1.47511,-0.456056 1.47511,0.27483 0,0.473858 0.25007,0.520339 6.56,1.219275 1.936,0.214447 3.62579,0.543373 3.7551,0.730948 0.1293,0.187575 0.2373,1.448547 0.24,2.80216 0.003,1.417031 0.15202,2.552041 0.35169,2.675447 0.24541,0.151666 0.28123,-0.623856 0.12253,-2.652499 -0.17884,-2.286103 -0.13565,-2.899518 0.21321,-3.028196 0.37826,-0.139527 2.68948,0.08062 8.95861,0.853312 1.2986,0.160057 1.50196,0.102958 1.65004,-0.463311 0.22629,-0.865308 1.51089,-0.867058 1.73701,-0.0024 0.20127,0.769629 0.41312,0.81812 5.53181,1.2662 2.2,0.192584 4.612,0.434036 5.36,0.53656 1.1151,0.152842 1.36,0.09343 1.36,-0.329926 0,-0.360371 0.28997,-0.516334 0.96,-0.516334 0.71488,0 0.96,0.148646 0.96,0.582183 0,0.523556 0.61905,0.637757 6.14738,1.134047 3.38106,0.303526 6.2125,0.616991 6.2921,0.696589 0.16993,0.169924 -1.18658,27.805231 -1.41719,28.871481 -0.12048,0.55708 -0.3212,0.68702 -0.86947,0.56283 -0.82257,-0.18633 -10.30166,-1.76713 -10.59635,-1.76713 -0.10806,0 -0.19647,0.216 -0.19647,0.48 0,0.29867 -0.30223,0.48 -0.8,0.48 -0.58667,0 -0.8,-0.17067 -0.8,-0.64 0,-0.352 -0.0405,-0.64 -0.0901,-0.64 -0.0495,0 -2.53009,-0.42796 -5.5123,-0.95102 -4.68661,-0.822 -5.45796,-0.88712 -5.6858,-0.48 -0.40212,0.71854 -1.51179,0.59451 -1.51179,-0.16898 0,-0.352 -0.0486,-0.64 -0.10792,-0.64 -0.2919,0 -9.08672,-1.64921 -9.57208,-1.79496 -0.44903,-0.13484 -0.56751,-0.56024 -0.59786,-2.1466 -0.0208,-1.08814 -0.15917,-2.41044 -0.30744,-2.93844 -0.18187,-0.64769 -0.23307,-0.0482 -0.15737,1.84289 0.0617,1.54159 -0.0162,2.88225 -0.17316,2.97925 -0.15695,0.097 -2.15955,-0.21239 -4.45023,-0.68754 -3.89554,-0.80805 -4.20289,-0.82949 -4.75312,-0.33154 -0.66939,0.60579 -1.50928,0.41451 -1.72012,-0.39175 -0.18609,-0.71159 -8.09089,-2.24913 -8.65631,-1.6837 -0.54467,0.54467 -1.44076,0.41698 -1.64763,-0.23479 -0.14234,-0.44848 -0.90327,-0.73688 -3.22156,-1.221 -1.669362,-0.3486 -3.035202,-0.52192 -3.035202,-0.38516 0,0.25732 1.513437,0.71531 3.600002,1.08942 1.36632,0.24497 1.45903,0.45031 0.56754,1.25709 -0.34785,0.3148 -0.56543,0.6808 -0.48352,0.81334 0.0819,0.13253 -0.10148,0.43729 -0.40755,0.67723 -0.51453,0.40338 -0.52071,0.38802 -0.082,-0.20374 0.46137,-0.6223 0.4562,-0.62447 -0.18673,-0.0786 -0.36368,0.30877 -0.82108,1.08223 -1.016446,1.7188 -0.289792,0.94423 -0.262679,1.29864 0.147206,1.9242 0.39886,0.60873 0.59509,0.68989 0.95196,0.39372 0.67774,-0.56248 1.42755,0.56832 0.99962,1.50753 -0.23791,0.52216 -0.18028,0.90342 0.23159,1.53201 0.30158,0.46027 0.66031,0.76764 0.79719,0.68305 0.13688,-0.0846 0.22913,0.0966 0.205,0.40274 -0.0243,0.30782 0.14553,0.51726 0.37991,0.46863 0.23309,-0.0484 0.33942,0.0486 0.2363,0.21543 -0.24381,0.3945 1.08006,2.64254 1.42913,2.4268 0.14661,-0.0906 0.37076,0.004 0.49812,0.20992 0.14461,0.234 0.0928,0.28894 -0.13789,0.14634 -0.51287,-0.31697 -0.46139,0.0116 0.14736,0.9407 0.28424,0.43381 0.68024,0.78653 0.88,0.78384 0.19976,-0.003 0.1472,-0.14449 -0.1168,-0.3151 -0.65543,-0.42357 -0.11277,-0.40287 0.68913,0.0263 0.48738,0.26084 0.59771,0.5429 0.44709,1.14302 -0.23236,0.92577 0.9519,3.12233 1.50055,2.78324 0.19355,-0.11962 0.24953,-0.0616 0.12891,0.13353 -0.11726,0.18973 0.38548,1.2998 1.11719,2.46681 0.77199,1.23125 1.21008,2.23752 1.04376,2.39745 -0.15765,0.15158 -1.00663,0.49374 -1.88663,0.76034 -0.88,0.26661 -1.37089,0.49477 -1.09086,0.50703 0.28003,0.0123 1.20808,-0.18806 2.06234,-0.44515 1.0005,-0.30111 1.68383,-0.35903 1.9203,-0.16278 0.20191,0.16757 0.48494,0.19792 0.62896,0.0674 0.14403,-0.13047 0.15666,-0.0546 0.0281,0.16862 -0.27261,0.47321 1.01481,2.71913 1.41641,2.47093 0.1488,-0.092 0.37475,0.001 0.50211,0.20745 0.14461,0.234 0.0928,0.28894 -0.13789,0.14634 -0.5718,-0.35339 -0.44408,0.0304 0.46961,1.41105 0.46148,0.69734 0.94922,1.1998 1.08387,1.11658 0.13465,-0.0832 0.22508,0.0992 0.20095,0.40525 -0.0282,0.35781 0.15013,0.52435 0.49942,0.46637 0.63502,-0.10542 1.39798,1.06039 0.89671,1.37019 -0.21417,0.13236 -0.20909,0.40932 0.0152,0.82838 0.1853,0.34625 0.49594,0.53126 0.69031,0.41114 0.21005,-0.12982 0.26304,-0.0722 0.13064,0.142 -0.26421,0.4275 0.71609,2.04577 1.09675,1.81051 0.14459,-0.0894 0.36708,0.006 0.49444,0.21219 0.14461,0.234 0.0928,0.28894 -0.13789,0.14634 -0.5718,-0.35339 -0.44408,0.0304 0.46961,1.41105 0.46147,0.69734 0.95552,1.1959 1.09789,1.10792 0.14236,-0.088 0.36303,0.009 0.49039,0.21469 0.15296,0.2475 0.0921,0.28846 -0.1794,0.12068 -0.27477,-0.16982 -0.35969,-0.10667 -0.25625,0.19056 0.0851,0.2445 0.38425,0.40395 0.6648,0.35435 0.57219,-0.10117 1.32251,1.04641 1.01233,1.54829 -0.28095,0.45459 1.76049,3.54628 2.17319,3.29122 0.19409,-0.11995 0.24247,-0.0554 0.11414,0.1522 -0.24603,0.39809 0.70323,2.05372 1.05343,1.83729 0.26423,-0.16331 0.26932,1.28924 0.005,1.55296 -0.16454,0.16444 -16.50061,2.10823 -17.71804,2.10823 -0.26834,0 -0.86751,-0.57364 -1.33148,-1.27475 z M 125.58401,104.72 c -0.30542,-2.5309 -0.78837,-3.26455 -0.57929,-0.88 0.1861,2.12251 0.31971,2.72 0.60826,2.72 0.10619,0 0.0932,-0.828 -0.029,-1.84 z M 41.892413,50.042388 c 0.908617,-1.155119 0.445559,-1.740711 -0.503758,-0.637063 -0.411761,0.4787 -0.748656,1.006334 -0.748656,1.172519 0,0.559786 0.588968,0.30798 1.252414,-0.535456 z M 95.218738,48.670321 C 94.958361,48.249023 92.277349,46.72 91.799016,46.72 c -0.607495,0 -0.01765,0.471343 1.768642,1.413318 1.713918,0.903808 1.919002,0.970511 1.65108,0.537003 z M 87.356037,44.24 c -0.0053,-0.319329 -1.891101,-1.527393 -2.868639,-1.837652 -0.67473,-0.21415 -0.71605,-0.186791 -0.312475,0.206896 0.5315,0.518477 2.585125,1.804485 2.945075,1.844245 0.132,0.01458 0.238218,-0.08149 0.236039,-0.213489 z m -6.041371,-3.618648 c -0.420932,-0.350545 -0.84242,-0.560266 -0.93664,-0.466047 -0.204046,0.204046 0.923316,1.104544 1.381972,1.103872 0.176,-2.58e-4 -0.0244,-0.287279 -0.445332,-0.637825 z M 120.9,159.7814 c 0.231,-0.0924 0.507,-0.0811 0.61333,0.0253 0.10633,0.10633 -0.0827,0.18196 -0.42,0.16807 -0.37278,-0.0154 -0.44861,-0.0912 -0.19333,-0.19334 z m -85.45627,-7.68772 c 0.398052,-0.0765 0.974052,-0.0736 1.28,0.006 0.305948,0.0801 -0.01973,0.14272 -0.723731,0.13917 -0.704,-0.004 -0.954321,-0.0691 -0.556269,-0.14562 z M 160.26,120.7414 c 0.231,-0.0924 0.507,-0.0811 0.61333,0.0253 0.10633,0.10633 -0.0827,0.18196 -0.42,0.16807 -0.37278,-0.0154 -0.44861,-0.0912 -0.19333,-0.19334 z m 2.7007,-3.4614 c 0.004,-0.704 0.0691,-0.95432 0.14562,-0.55627 0.0765,0.39805 0.0736,0.97405 -0.006,1.28 -0.0801,0.30595 -0.14272,-0.0197 -0.13916,-0.72373 z m 0.30168,-5.44 c 0.007,-0.528 0.0782,-0.70526 0.15937,-0.39391 0.0811,0.31135 0.0758,0.74335 -0.0119,0.96 -0.0877,0.21665 -0.15404,-0.0381 -0.14752,-0.56609 z M 26.819999,96.741403 c 0.231,-0.09244 0.507,-0.08107 0.613334,0.02526 0.106333,0.106334 -0.08267,0.181965 -0.42,0.16807 -0.372782,-0.01535 -0.448608,-0.09118 -0.193334,-0.193333 z m 136.000001,-6.4 c 0.231,-0.09244 0.507,-0.08107 0.61333,0.02526 0.10633,0.106334 -0.0827,0.181965 -0.42,0.16807 -0.37278,-0.01535 -0.44861,-0.09118 -0.19333,-0.193333 z M 146,88.739415 c 0.308,-0.08049 0.812,-0.08049 1.12,0 0.308,0.08049 0.056,0.146344 -0.56,0.146344 -0.616,0 -0.868,-0.06585 -0.56,-0.146344 z m -2.72,-0.311345 c 0.22,-0.08877 0.58,-0.08877 0.8,0 0.22,0.08877 0.04,0.161403 -0.4,0.161403 -0.44,0 -0.62,-0.07263 -0.4,-0.161403 z m -13.91391,-1.289827 c 0.31135,-0.08113 0.74335,-0.0758 0.96,0.01186 0.21665,0.08766 -0.0381,0.154038 -0.56609,0.147516 -0.528,-0.0065 -0.70526,-0.07824 -0.39391,-0.159373 z m -2.56,-0.32 c 0.31135,-0.08113 0.74335,-0.0758 0.96,0.01186 0.21665,0.08765 -0.0381,0.154038 -0.56609,0.147516 -0.528,-0.0065 -0.70526,-0.07824 -0.39391,-0.159373 z M 122.5,86.501403 c 0.231,-0.09244 0.507,-0.08107 0.61333,0.02526 0.10633,0.106334 -0.0827,0.181965 -0.42,0.168071 -0.37278,-0.01535 -0.44861,-0.09118 -0.19333,-0.193334 z m -12.33391,-1.28316 c 0.31135,-0.08113 0.74335,-0.0758 0.96,0.01186 0.21665,0.08766 -0.0381,0.154038 -0.56609,0.147516 -0.528,-0.0065 -0.70526,-0.07824 -0.39391,-0.159373 z m -3.2,-0.32 c 0.31135,-0.08113 0.74335,-0.0758 0.96,0.01186 0.21665,0.08765 -0.0381,0.154038 -0.56609,0.147516 -0.528,-0.0065 -0.70526,-0.07824 -0.39391,-0.159373 z m -3.75951,-0.428901 c 0.13253,-0.214434 2.07342,-0.0113 2.07342,0.217002 0,0.07354 -0.4947,0.100388 -1.09933,0.05967 -0.60462,-0.04072 -1.04296,-0.165221 -0.97409,-0.27667 z M 101.7,82.981403 c 0.231,-0.09244 0.507,-0.08107 0.61333,0.02526 0.10633,0.106334 -0.0827,0.181965 -0.42,0.168071 -0.37278,-0.01535 -0.44861,-0.09118 -0.19333,-0.193334 z M 96.14684,78.05871 c -0.116011,-0.18771 -0.142299,-0.40992 -0.05842,-0.493801 0.08388,-0.08388 0.237781,0.0697 0.342,0.34129 0.216379,0.563874 0.03195,0.663058 -0.283582,0.152511 z M 24.559999,77.54807 c 0.22,-0.08877 0.58,-0.08877 0.8,0 0.22,0.08877 0.04,0.161403 -0.4,0.161403 -0.44,0 -0.62,-0.07263 -0.4,-0.161403 z M 96.009798,72.16 c 0,-0.176 0.13959,-0.536 0.3102,-0.8 0.17061,-0.264 0.3102,-0.336 0.3102,-0.16 0,0.176 -0.13959,0.536 -0.3102,0.8 -0.17061,0.264 -0.3102,0.336 -0.3102,0.16 z M 56.599181,50.64 c -0.398039,-0.507538 -0.38672,-0.518856 0.120818,-0.120818 0.308,0.24155 0.56,0.49355 0.56,0.56 0,0.263371 -0.26278,0.09386 -0.680818,-0.439182 z M 116.4898,18.72 c 0,-0.176 0.13959,-0.536 0.3102,-0.8 0.17061,-0.264 0.3102,-0.336 0.3102,-0.16 0,0.176 -0.13959,0.536 -0.3102,0.8 -0.17061,0.264 -0.3102,0.336 -0.3102,0.16 z"
       id="path1" />
  </g>
  <metadata
     id="metadata1">
    <rdf:RDF>
      <cc:Work
         rdf:about="">
        <dc:title>SORCE Icon SVG</dc:title>
        <dc:source>https://upload.wikimedia.org/wikipedia/commons/thumb/c/c1/SORCE_spacecraft_model.png/1200px-SORCE_spacecraft_model.png</dc:source>
      </cc:Work>
    </rdf:RDF>
  </metadata>
</svg>
