<?xml version="1.0" encoding="UTF-8" standalone="no"?>
<!-- Created with Inkscape (http://www.inkscape.org/) -->

<svg
   version="1.1"
   id="svg1"
   width="163.84"
   height="193.92"
   viewBox="0 0 163.84 193.92"
   xmlns="http://www.w3.org/2000/svg"
   xmlns:svg="http://www.w3.org/2000/svg"
   xmlns:rdf="http://www.w3.org/1999/02/22-rdf-syntax-ns#"
   xmlns:cc="http://creativecommons.org/ns#"
   xmlns:dc="http://purl.org/dc/elements/1.1/">
  <title
     id="title1">QuikSCAT Icon SVG</title>
  <defs
     id="defs1" />
  <g
     id="g1">
    <path
       style="fill:currentColor"
       d="m 69.613664,193.53705 c -0.696484,-0.15104 -1.459963,-0.20031 -1.69662,-0.1095 -0.236657,0.0908 -0.346773,0.03 -0.244703,-0.13516 0.249625,-0.4039 -1.041329,-1.06812 -1.633968,-0.8407 -0.259388,0.0995 -0.418846,0.0746 -0.354351,-0.0554 0.0645,-0.12998 -0.313576,-0.66833 -0.840158,-1.19633 -0.526582,-0.528 -0.754354,-0.672 -0.506158,-0.32 0.446525,0.63328 0.443762,0.6336 -0.263222,0.0304 -0.731984,-0.62452 -0.967292,-1.02442 -0.394485,-0.6704 0.540529,0.33406 0.354061,-0.37401 -0.221427,-0.84082 -0.367891,-0.29842 -0.464403,-0.31098 -0.301115,-0.0392 0.350251,0.58299 0.03332,0.48927 -0.478276,-0.14143 -0.372659,-0.45942 -0.372306,-0.50114 0.0023,-0.27546 0.30532,0.18393 0.395805,0.12885 0.293333,-0.17857 -0.0815,-0.2445 -0.351991,-0.44454 -0.601092,-0.44454 -0.249101,0 -0.453768,-0.216 -0.454816,-0.48 -0.001,-0.264 -0.166881,-0.768 -0.368519,-1.12 -1.552623,-2.71042 -1.909032,-8.52782 -0.782438,-12.77119 0.773542,-2.91358 0.790393,-3.06881 0.333132,-3.06881 -0.186387,0 -0.259937,0.12774 -0.163444,0.28387 0.09649,0.15613 -0.07501,0.26413 -0.381114,0.24 -0.306106,-0.0241 -0.526203,0.11919 -0.489105,0.31848 0.0371,0.1993 -0.178902,0.3433 -0.48,0.32 -0.301098,-0.0233 -0.507883,0.14835 -0.459523,0.38143 0.04836,0.23309 -0.05666,0.33443 -0.233386,0.22521 -0.467751,-0.28909 -1.671469,0.44001 -1.414062,0.85651 0.131637,0.21299 0.07189,0.26283 -0.150381,0.12546 -0.410944,-0.25398 -2.335355,0.75693 -2.116141,1.11162 0.07653,0.12384 -0.111296,0.20542 -0.417402,0.18129 -0.346583,-0.0273 -0.540005,0.1661 -0.512686,0.51268 0.02495,0.31651 -0.10202,0.4664 -0.29438,0.34751 -0.212858,-0.13155 -0.260137,-0.005 -0.127536,0.34006 0.118979,0.31006 0.08004,0.46835 -0.08945,0.36361 -0.289145,-0.17871 -0.557942,0.87305 -0.730363,2.85779 -0.07823,0.90056 7.66e-4,0.96426 1.661305,1.33967 0.958895,0.21679 1.894895,0.30822 2.08,0.20318 0.185105,-0.10504 0.234678,-0.078 0.110163,0.06 -0.124516,0.13807 0.06493,0.48693 0.420994,0.77525 0.935093,0.75719 0.367155,2.20866 -0.898716,2.29683 -5.540095,0.38588 -13.967593,-0.17145 -15.864972,-1.0492 -0.873207,-0.40396 -1.433317,-1.5202 -1.063259,-2.11897 0.103349,-0.16722 1.470407,-0.40554 3.037907,-0.52961 l 2.85,-0.22557 2.274366,-6.52142 C 58.095051,143.62581 62.492086,131.31316 62.84009,131.04 c 0.453251,-0.35578 1.245793,-2.42078 1.016925,-2.64965 -0.08023,-0.0802 -0.240488,0.23112 -0.356133,0.69189 -0.115646,0.46077 -0.35406,0.83776 -0.52981,0.83776 -0.175751,0 -0.241712,-0.20284 -0.14658,-0.45074 0.128835,-0.33574 -0.413543,-0.58819 -2.125764,-0.98943 -1.264301,-0.29627 -2.550729,-0.60714 -2.858729,-0.69082 -0.452043,-0.12281 -0.56,0.0542 -0.56,0.91822 0,0.5887 -0.210916,1.37149 -0.468703,1.73953 -0.257786,0.36804 -0.365786,0.78317 -0.24,0.92251 0.125787,0.13933 0.07646,0.1669 -0.109621,0.0613 -0.186079,-0.10564 -1.163981,-0.08 -2.173117,0.0569 -1.145342,0.15543 -1.908565,0.12962 -2.031119,-0.0687 -0.118486,-0.19172 -0.03025,-0.21502 0.22256,-0.0588 0.285509,0.17645 0.341891,0.1343 0.177074,-0.13237 -0.132996,-0.2152 -0.450724,-0.31109 -0.706062,-0.21311 -0.259253,0.0995 -0.377923,0.0385 -0.268747,-0.13819 0.107528,-0.17398 0.04807,-0.31633 -0.132121,-0.31633 -0.625441,0 -0.932825,-1.12351 -0.682264,-2.49372 0.226526,-1.23878 0.172137,-1.42544 -0.589158,-2.02194 -1.03343,-0.80973 -1.351311,-1.58506 -0.88718,-2.16388 0.411619,-0.51333 0.831952,-3.28588 1.055227,-6.96036 l 0.15798,-2.59991 -0.869934,0.1663 c -0.609458,0.11651 -0.801167,0.055 -0.640264,-0.20531 0.12632,-0.20439 0.348633,-0.2981 0.494029,-0.20824 0.145397,0.0899 0.346927,-0.0518 0.447846,-0.31478 0.100918,-0.26299 0.04401,-0.47816 -0.126469,-0.47816 -0.170477,0 -0.309957,-0.288 -0.309957,-0.64 0,-0.42667 0.213333,-0.64 0.64,-0.64 0.352,0 0.615341,-0.108 0.585203,-0.24 -0.03014,-0.132 0.0359,-0.888 0.146757,-1.68 0.110855,-0.792 0.261105,-2.38924 0.333889,-3.54943 l 0.132334,-2.10942 -2.053912,-0.40825 c -1.129651,-0.22454 -2.227242,-0.57566 -2.439091,-0.78026 -0.39223,-0.37882 -1.680564,-0.80445 -4.54518,-1.50163 -0.88,-0.21418 -1.888,-0.54523 -2.24,-0.73569 -0.732722,-0.39645 -3.221553,-0.94551 -7.331272,-1.617353 C 31.260528,99.121603 29.87536,98.746656 29.750576,98.544752 29.625793,98.342848 28.964865,98.146428 28.281848,98.108262 26.914683,98.031869 2.7058918,91.728935 1.04,91.01565 0.43420869,90.756269 0,90.337255 0,90.012045 0,89.704976 0.73742308,85.778646 1.638718,81.286868 2.5400128,76.79509 3.3226541,72.831999 3.3779208,72.479999 3.6292217,70.879434 5.7933659,60.659967 5.9045586,60.548774 6.1392395,60.314093 9.4406018,61.141247 15.04,62.837651 l 5.6,1.696587 0.290238,-0.920881 c 0.173651,-0.550968 0.173651,-1.028049 0,-1.187669 C 20.645842,62.16427 19.131874,61.67777 9.4399998,58.7334 6.7999998,57.931374 4.0383449,57.052298 3.3029887,56.779898 1.725399,56.195507 1.7166499,56.79968 3.4208623,48.64 4.0273852,45.736 5.1630989,40.192 5.9446705,36.32 c 1.7186129,-8.514215 1.9339354,-9.241565 2.6473853,-8.942755 1.041707,0.436292 6.7045152,2.474439 11.9396412,4.297292 4.850115,1.688794 5.345512,1.803654 5.484637,1.271638 0.180694,-0.690975 0.678475,-0.466544 -6.811008,-3.070834 -3.25307,-1.131178 -6.007758,-2.159885 -6.121529,-2.286015 -0.258415,-0.286486 5.115369,-26.0319877 5.524308,-26.4666511 0.196418,-0.20877432 0.376086,-0.19352482 0.52522,0.044579 0.124671,0.1990471 9.730674,4.0630508 21.346674,8.5866749 11.616,4.5236245 21.170399,8.2739625 21.231997,8.3340855 0.0616,0.06012 -0.122991,2.818915 -0.4102,6.13065 C 61.014587,27.530399 60.568701,32.832 60.310938,36 c -0.664433,8.166102 -0.608182,7.930991 -1.83315,7.661943 -0.552858,-0.121428 -2.020529,-0.635043 -3.261492,-1.141366 -2.121863,-0.865739 -2.281115,-0.887223 -2.672823,-0.360583 -0.368913,0.495992 -0.277466,0.623059 0.8,1.111614 0.669089,0.303385 1.382823,0.555385 1.586076,0.56 0.387354,0.0088 0.377988,0.163596 -0.344171,5.688392 -0.352911,2.699902 -0.340234,2.96 0.14426,2.96 0.563039,0 1.377082,0.789488 1.667628,1.617327 0.166874,0.475466 3.823879,1.312166 6.082733,1.391691 0.484,0.01704 0.88,0.138981 0.88,0.270981 0,0.431359 1.847044,0.251682 2.018991,-0.196404 0.09211,-0.240022 1.247091,-1.065869 2.566636,-1.835216 1.319544,-0.769346 2.317342,-1.531213 2.217329,-1.693038 -0.10139,-0.164053 -0.0038,-0.184195 0.220567,-0.04553 0.41719,0.257838 3.6066,-1.05588 3.39669,-1.399097 -0.06415,-0.104896 0.337488,-0.200041 0.892538,-0.211434 1.495612,-0.0307 5.771275,-1.774345 5.257699,-2.144128 -0.293167,-0.211084 -0.249435,-0.243672 0.153049,-0.114044 0.838782,0.270146 2.635719,-0.14279 2.102312,-0.483111 -0.237237,-0.15136 2.833643,-0.215884 6.934188,-0.145697 6.073059,0.103948 7.766589,0.237125 9.685275,0.761635 2.529137,0.691389 3.171027,0.634559 6.607647,-0.58501 2.25409,-0.799921 2.95537,-0.673101 4.5395,0.820922 1.41314,1.332764 1.21628,1.715903 -0.92322,1.796829 -0.83006,0.0314 -1.5092,0.177737 -1.5092,0.325202 0,0.147464 0.22173,0.268117 0.49275,0.268117 0.27101,0 1.06795,0.293446 1.77097,0.652102 0.70303,0.358657 1.43954,0.552407 1.6367,0.430557 0.23459,-0.144987 0.26795,-0.07509 0.0965,0.202278 -0.19179,0.310308 -0.11487,0.367386 0.28717,0.213108 0.37006,-0.142003 0.47441,-0.08983 0.32,0.16 -0.15836,0.256245 -0.043,0.299296 0.37363,0.139422 0.33151,-0.127211 0.49946,-0.128012 0.37323,-0.0018 -0.30478,0.304775 2.06487,1.722714 2.48333,1.485965 0.17913,-0.101343 0.21737,-0.06486 0.085,0.08108 -0.13238,0.145934 -0.002,0.529021 0.2896,0.851304 0.56796,0.627596 2.9911,0.843061 2.9911,0.265968 0,-0.176 0.15777,-0.32 0.3506,-0.32 0.19283,0 0.78394,-0.308562 1.31357,-0.685694 l 0.96297,-0.685695 -0.23068,-6.45986 -0.23069,-6.459861 1.12533,0.02556 c 0.61893,0.01406 1.0705,0.115157 1.0035,0.22467 -0.22968,0.375369 16.123,6.4533 16.73291,6.219256 0.24515,-0.09407 0.36808,-0.0454 0.27317,0.108157 -0.23966,0.387779 1.61203,1.10991 2.08945,0.814852 0.23399,-0.144615 0.30606,-0.106462 0.18103,0.09584 -0.29071,0.470374 3.82898,2.077013 4.70076,1.833252 0.44933,-0.125638 0.54716,-0.09398 0.28195,0.09124 -0.27763,0.193891 0.48176,0.630226 2.4,1.379019 1.54337,0.60246 2.93417,1.150939 3.09067,1.218841 0.15918,0.06907 0.16736,-0.07106 0.0186,-0.318056 -0.22568,-0.374638 -0.18396,-0.374991 0.27546,-0.0023 0.63468,0.514827 0.71457,0.806294 0.14143,0.515973 -0.22,-0.111439 -0.15321,1.27e-4 0.14842,0.247925 0.44424,0.364959 0.82415,2.681583 2,12.195804 0.79837,6.459895 1.45158,11.940423 1.45158,12.178953 0,0.238529 -0.22348,0.519446 -0.49662,0.62426 -0.27314,0.104814 -0.41948,0.06575 -0.3252,-0.0868 0.21152,-0.342246 -1.67566,-0.75171 -2.14049,-0.464426 -0.18512,0.114409 -0.25024,0.06832 -0.14472,-0.102412 0.10682,-0.172844 -1.20801,-0.739321 -2.96666,-1.27814 -2.85019,-0.873254 -3.1723,-0.914927 -3.29992,-0.426929 -0.11622,0.444427 0.97494,0.934193 6.12386,2.748698 3.4459,1.214352 6.4907,2.42783 6.76622,2.696618 0.5112,0.498717 0.58796,0.950399 2.065,12.151295 1.34643,10.210451 1.58901,12.456191 1.36922,12.675981 -0.11739,0.11739 -2.55732,-0.51216 -5.42207,-1.39899 -6.69715,-2.07321 -7.28862,-2.19783 -7.28862,-1.53556 0,0.60924 0.3678,0.76402 5.00626,2.10675 1.96145,0.56779 3.74225,1.14111 3.95733,1.27404 0.508,0.31396 3.86873,27.59212 3.4509,28.00996 -0.10369,0.10368 -1.39137,-0.1687 -2.86151,-0.6053 -1.47014,-0.43659 -8.72098,-2.38803 -16.11298,-4.33652 -7.392,-1.94849 -14.68805,-3.87871 -16.21345,-4.28939 -2.42444,-0.65272 -2.87745,-0.69219 -3.6,-0.31361 -0.4546,0.23819 -0.82655,0.50898 -0.82655,0.60174 0,0.0928 0.16625,0.0659 0.36944,-0.0597 0.23073,-0.1426 0.2825,-0.0877 0.13789,0.14634 -0.12736,0.20606 -0.34906,0.30204 -0.49268,0.21327 -0.14362,-0.0888 -1.3381,0.33621 -2.6544,0.94438 -1.3163,0.60817 -3.06084,1.28431 -3.87676,1.50253 -0.81592,0.21823 -1.48349,0.51941 -1.48349,0.66929 0,0.14989 0.14235,0.18454 0.31633,0.077 0.3447,-0.21303 0.0849,0.72186 -0.36323,1.30718 -0.14715,0.1922 -0.1608,0.46728 -0.0303,0.61131 0.13048,0.14402 0.0765,0.17017 -0.12001,0.0581 -0.19647,-0.11207 -0.62847,0.11436 -0.96,0.50318 -0.59532,0.69821 -0.59486,0.70108 0.0372,0.23245 0.59176,-0.43872 0.60712,-0.43254 0.20374,0.082 -0.23994,0.30606 -0.54213,0.49104 -0.67154,0.41106 -0.35421,-0.21891 -1.65528,1.10387 -1.43551,1.45946 0.10498,0.16987 1.8e-4,0.26929 -0.23291,0.22093 -0.29075,-0.0603 -0.41702,0.26366 -0.40224,1.03207 0.0172,0.89187 -0.20067,1.3109 -1.06944,2.05723 l -1.09098,0.93724 -1.43039,-0.77724 c -2.1668,-1.17737 -3.63073,-2.49656 -3.63073,-3.27173 v -0.68791 l -0.48585,0.69365 c -0.26722,0.38151 -0.44722,0.87501 -0.4,1.09666 0.0472,0.22165 -0.0994,0.40955 -0.32582,0.41755 -0.22642,0.008 -0.53577,0.21533 -0.68744,0.46074 -0.22567,0.36515 -0.53987,0.37968 -1.73003,0.08 -2.305369,-0.5805 -2.353576,-0.55463 -2.597017,1.39381 -0.120943,0.968 -0.353536,1.76 -0.516871,1.76 -0.163336,0 -0.296974,0.432 -0.296974,0.96 0,0.528 0.152498,0.96 0.338885,0.96 0.186387,0 0.26896,-0.11314 0.183494,-0.25143 -0.08546,-0.13829 0.111464,-0.25143 0.437621,-0.25143 0.326156,0 0.507962,0.13762 0.404011,0.30581 -0.10872,0.17591 0.04424,0.21631 0.360114,0.0951 0.326169,-0.12516 0.469737,-0.0823 0.353609,0.10562 -0.107528,0.17399 -0.05935,0.31634 0.107058,0.31634 0.16641,0 0.36597,0.432 0.44347,0.96 0.0775,0.528 0.0218,0.96 -0.12368,0.96 -0.14552,0 -0.26458,0.2965 -0.26458,0.65888 0,0.36239 0.14235,0.57091 0.31633,0.46338 0.1879,-0.11612 0.23078,0.0274 0.10562,0.35361 -0.15058,0.39242 -0.0948,0.47746 0.19559,0.29801 0.32138,-0.19862 0.32965,-0.10788 0.0396,0.43412 -0.2017,0.37687 -0.26962,0.84235 -0.15093,1.03439 0.11868,0.19204 0.0173,0.4798 -0.22521,0.63947 -0.35978,0.23684 -0.3266,0.37757 0.18017,0.76422 0.34164,0.26066 0.86401,0.47392 1.16082,0.47392 0.29681,0 0.7176,0.21441 0.93509,0.47648 0.2175,0.26206 0.51318,0.40371 0.65707,0.31478 0.1439,-0.0889 0.36583,0.007 0.49319,0.21296 0.14461,0.23399 0.0928,0.28894 -0.13789,0.14634 -0.57679,-0.35648 -0.43337,0.31922 0.17198,0.81026 0.46674,0.37859 0.50381,0.37296 0.2687,-0.0408 -0.15998,-0.28156 -0.15399,-0.37144 0.0145,-0.21742 0.15797,0.14443 0.28906,0.50405 0.29131,0.79918 0.002,0.29512 0.17208,0.53696 0.37741,0.53741 0.20533,4.6e-4 0.49333,0.13192 0.64,0.29213 0.15813,0.17274 0.0817,0.18394 -0.18771,0.0275 -0.35472,-0.20594 -0.39752,-0.12945 -0.19513,0.34869 1.56658,3.70117 1.84183,4.86204 1.85238,7.8125 0.0115,3.23031 -0.52114,5.95928 -1.8549,9.50275 -0.43145,1.14624 -0.69099,2.23529 -0.57677,2.4201 0.11423,0.18482 0.0565,0.24261 -0.12823,0.12843 -0.40324,-0.24922 -0.81299,0.66418 -0.51457,1.14704 0.13368,0.21629 0.0558,0.24498 -0.21334,0.0786 -0.31031,-0.19178 -0.36739,-0.11487 -0.21311,0.28717 0.11983,0.31226 0.0803,0.46854 -0.0916,0.3623 -0.16625,-0.10275 -0.50455,0.14177 -0.75178,0.54338 -0.3735,0.60672 -0.3894,1.34397 -0.0941,4.35968 0.2042,2.08513 0.47601,3.51482 0.63879,3.36 0.15584,-0.14821 0.12491,0.0356 -0.0687,0.40844 -0.19365,0.37286 -0.24915,0.79195 -0.12334,0.93131 0.1258,0.13936 0.0645,0.15953 -0.13626,0.0448 -0.3289,-0.18793 -1.52619,1.19458 -1.54669,1.78595 -0.005,0.132 -0.10686,0.204 -0.2273,0.16 -0.12044,-0.044 -0.62444,0.3027 -1.12,0.77044 -0.495557,0.46775 -1.518143,1.03208 -2.272414,1.25407 -0.921492,0.27121 -1.236435,0.48926 -0.96,0.66466 0.281084,0.17834 0.292986,0.26258 0.03757,0.26593 -0.205606,0.003 -0.637606,0.0905 -0.96,0.19508 -0.397363,0.12893 -0.457971,0.0975 -0.188163,-0.0976 0.270819,-0.19586 -0.322931,-0.52004 -1.857994,-1.01444 -1.77181,-0.57064 -2.354404,-0.64492 -2.714485,-0.34608 -0.252166,0.20928 -0.389619,0.49193 -0.305451,0.62812 0.08417,0.13618 -0.09742,0.22787 -0.403523,0.20374 -0.341268,-0.0269 -0.515295,0.1418 -0.449889,0.43613 0.05867,0.264 0.0044,0.37774 -0.120571,0.25276 -0.351076,-0.35108 -2.119655,0.68169 -1.867116,1.09031 0.126145,0.20411 0.07545,0.26653 -0.118904,0.14642 -0.186345,-0.11517 -1.540594,0.36645 -3.009442,1.07026 -5.088699,2.43828 -10.949989,3.40528 -15.136968,2.4973 z M 57.081858,170.81829 c -0.131416,-0.21264 -0.0761,-0.26778 0.1367,-0.13626 0.465701,0.28781 3.66314,-1.33095 3.416665,-1.72976 -0.103656,-0.16772 0.0031,-0.23141 0.237338,-0.14155 0.234191,0.0899 0.66561,-0.0198 0.958708,-0.24366 0.682684,-0.52147 3.182023,-6.30194 2.913011,-6.73722 -0.113602,-0.18381 -0.04738,-0.23244 0.15022,-0.11032 0.437556,0.27042 1.138568,-0.95769 0.830854,-1.45558 -0.133838,-0.21655 -0.08177,-0.27478 0.129146,-0.14442 0.437556,0.27042 1.138568,-0.95769 0.830854,-1.45558 -0.132918,-0.21506 -0.08189,-0.27485 0.125298,-0.1468 0.199351,0.12321 0.770582,-0.39594 1.329443,-1.20821 1.056259,-1.53522 1.210292,-1.95928 0.579903,-1.59651 -0.232398,0.13374 -0.288265,0.10813 -0.133333,-0.0611 0.146667,-0.16021 0.422667,-0.2913 0.613333,-0.2913 0.190667,0 0.413349,-0.20005 0.494848,-0.44454 0.101352,-0.30406 0.0087,-0.36369 -0.293333,-0.1887 -0.260671,0.15105 -0.332288,0.13653 -0.174848,-0.0355 0.146667,-0.16021 0.434667,-0.29478 0.64,-0.29902 0.205333,-0.004 0.355723,-0.24191 0.3342,-0.52813 -0.02152,-0.28623 1.121856,-1.65076 2.540843,-3.03229 1.418986,-1.38152 2.390964,-2.25986 2.159951,-1.95186 -0.231014,0.308 -0.303674,0.56 -0.161467,0.56 0.461269,0 1.696788,-1.33746 1.583418,-1.71407 -0.06059,-0.20126 -0.198406,-0.76782 -0.306266,-1.25902 -0.10786,-0.4912 -0.310551,-0.82236 -0.450426,-0.73591 -0.139875,0.0865 -0.243653,-0.15966 -0.230619,-0.54691 0.02134,-0.6339 -0.111888,-0.69396 -1.336301,-0.6025 -1.277282,0.0954 -1.36,0.051 -1.36,-0.73028 0,-0.45752 -0.216,-1.34883 -0.48,-1.98067 -0.264,-0.63184 -0.480324,-1.23921 -0.48072,-1.34972 -3.97e-4,-0.11051 1.007603,-0.1531 2.239999,-0.0947 l 2.240721,0.10626 v -4.31414 -4.31414 l -2.48,-0.53901 c -1.364,-0.29645 -2.788531,-0.61063 -3.165625,-0.69818 -0.585915,-0.13603 -0.763825,0.0763 -1.22333,1.4597 -0.295736,0.89038 -0.432956,1.78835 -0.304931,1.9955 0.139374,0.22551 0.09519,0.2916 -0.110129,0.16471 -0.425542,-0.263 -1.500555,2.82023 -1.169871,3.35529 0.139374,0.22551 0.09519,0.2916 -0.110129,0.16471 -0.425542,-0.263 -1.500555,2.82023 -1.169871,3.35529 0.139374,0.22551 0.09519,0.2916 -0.110129,0.16471 -0.425542,-0.263 -1.500555,2.82023 -1.169871,3.35529 0.139375,0.22551 0.09519,0.2916 -0.110129,0.16471 -0.425542,-0.263 -1.500555,2.82023 -1.169871,3.35529 0.139375,0.22551 0.09519,0.2916 -0.110129,0.16471 -0.425542,-0.263 -1.500555,2.82023 -1.169871,3.35529 0.139375,0.22551 0.09519,0.2916 -0.110129,0.16471 -0.425542,-0.263 -1.500555,2.82023 -1.169871,3.35529 0.139375,0.22551 0.09519,0.2916 -0.110129,0.16471 -0.425542,-0.263 -1.500555,2.82023 -1.169871,3.35529 0.139375,0.22551 0.09519,0.2916 -0.110129,0.16471 -0.425542,-0.263 -1.500555,2.82023 -1.169871,3.35529 0.139375,0.22551 0.09519,0.2916 -0.110129,0.16471 -0.425542,-0.263 -1.500555,2.82023 -1.169871,3.35529 0.139375,0.22551 0.09519,0.2916 -0.110129,0.16471 -0.425542,-0.263 -1.500555,2.82023 -1.169871,3.35529 0.138419,0.22397 0.09525,0.29164 -0.106507,0.16695 -0.260615,-0.16107 -1.359606,2.17844 -1.359606,2.89431 0,0.0602 0.581086,-0.18695 1.291302,-0.54928 0.774245,-0.39499 1.202913,-0.80179 1.070557,-1.01594 z m -1.721859,0.62154 c 0,-0.23248 0.288,-0.42269 0.64,-0.42269 0.352,0 0.64,0.0361 0.64,0.0802 0,0.0441 -0.288,0.2343 -0.64,0.42269 -0.489859,0.26216 -0.64,0.24336 -0.64,-0.0802 z m 2.88,-1.33731 c 0,-0.088 0.288,-0.31414 0.64,-0.50252 0.352,-0.18839 0.64,-0.27052 0.64,-0.18252 0,0.088 -0.288,0.31413 -0.64,0.50252 -0.352,0.18838 -0.64,0.27052 -0.64,0.18252 z m 15.279999,-30.16836 c 0.396,-0.0763 1.044,-0.0763 1.44,0 0.396,0.0763 0.072,0.13868 -0.72,0.13868 -0.792,0 -1.116,-0.0624 -0.72,-0.13868 z m 0.66,-7.99276 c 0.231,-0.0924 0.507,-0.0811 0.613334,0.0253 0.106333,0.10633 -0.08267,0.18196 -0.42,0.16807 -0.372782,-0.0154 -0.448608,-0.0912 -0.193334,-0.19334 z m -1.54,19.5786 c 1.133832,-1.144 1.989512,-2.08 1.901512,-2.08 -0.088,0 -1.08768,0.936 -2.221512,2.08 -1.133831,1.144 -1.989511,2.08 -1.901511,2.08 0.088,0 1.08768,-0.936 2.221511,-2.08 z m 74.767962,-49.84282 c -0.17037,-0.67882 -0.96648,-0.97948 -8.11843,-3.066064 -4.36124,-1.272395 -8.05294,-2.308421 -8.20377,-2.302281 -0.15083,0.0061 -0.18848,0.234643 -0.0837,0.507784 0.10927,0.284776 0.0556,0.413223 -0.12577,0.301115 -0.17398,-0.107528 -0.31633,-0.07851 -0.31633,0.06449 0,0.255166 16.68639,5.522358 16.91843,5.340438 0.0651,-0.0511 0.0334,-0.43154 -0.0705,-0.84548 z m -19.81814,-5.648033 c 0.0298,-0.396234 -0.21981,-0.677569 -0.71058,-0.800744 -0.41612,-0.10444 -0.85759,-0.513557 -0.98104,-0.909148 -0.12346,-0.395591 -0.38505,-0.827256 -0.58133,-0.959256 -0.25271,-0.169948 -0.22913,-0.322354 0.0808,-0.522145 0.35208,-0.226983 0.39242,-1.034734 0.20636,-4.131477 -0.20005,-3.329406 -0.30938,-3.869754 -0.80949,-4.000535 -0.53901,-0.140955 -0.56848,0.101099 -0.43478,3.571477 0.0789,2.047474 0.21919,4.599476 0.3118,5.671116 0.17856,2.066346 0.16725,2.05524 2.70038,2.651126 0.0945,0.02224 0.19261,-0.234445 0.21792,-0.570414 z M 124.8,72.799999 c 0,-2.2 0.0626,-4 0.13917,-4 0.0765,0 0.49373,0.134807 0.92709,0.29957 0.99918,0.379886 1.2214,0.15516 0.78775,-0.796605 -0.21435,-0.470439 -0.8756,-0.934599 -1.76146,-1.236444 l -1.4183,-0.48326 0.20161,0.917906 c 0.11481,0.522745 0.0558,1.008031 -0.13713,1.127255 -0.2078,0.128429 -0.33873,1.690681 -0.33873,4.041723 0,3.718674 0.0188,3.822325 0.6328,3.49371 0.51627,-0.2763 0.59835,-0.24891 0.44576,0.148741 -0.10287,0.268072 -0.0276,0.487404 0.1672,0.487404 0.24009,0 0.35424,-1.288937 0.35424,-4 z m 19.84,1.885764 c 0,-0.333278 -0.17476,-0.447175 -0.49662,-0.323666 -0.27314,0.104815 -0.42151,0.06904 -0.32971,-0.0795 0.13215,-0.213818 -13.96579,-5.482598 -14.67006,-5.482598 -0.10099,0 -0.18361,0.254205 -0.18361,0.564899 0,0.519196 3.31102,1.752063 15.6,5.808693 0.044,0.01452 0.08,-0.204998 0.08,-0.487828 z m -89.748015,-6.626751 0.628014,-6.500988 -0.746526,-0.736486 c -0.931316,-0.918792 -1.305272,-0.591228 -1.460177,1.27903 -0.368353,4.447366 -0.959525,9.452015 -1.141374,9.662472 -0.115502,0.133672 -0.872109,0.04377 -1.681349,-0.19977 l -1.471346,-0.44281 -0.161356,0.83977 c -0.08875,0.461873 -0.138073,0.861648 -0.109615,0.888388 0.06277,0.05898 5.100588,1.647398 5.343729,1.684873 0.09459,0.01458 0.454592,-2.898936 0.8,-6.474479 z m -9.692206,2.81335 c 0.08492,-0.444201 0.0657,-0.860807 -0.0427,-0.925792 -0.371644,-0.222805 -15.2367,-4.752901 -15.717085,-4.789751 -0.264,-0.02025 -0.552,-0.111717 -0.64,-0.203258 -0.185743,-0.193219 -3.615989,-1.289499 -3.705321,-1.184193 -0.03295,0.03885 -0.150047,0.502631 -0.260207,1.030631 l -0.20029,0.96 9.842909,2.930632 c 5.4136,1.611847 10.006122,2.943847 10.205604,2.96 0.199483,0.01615 0.432171,-0.334069 0.517085,-0.778269 z m -19.91978,-6.232363 c 0,-0.176 0.152499,-0.32 0.338886,-0.32 0.186387,0 0.249888,0.144 0.141114,0.32 -0.108774,0.176 -0.261272,0.32 -0.338885,0.32 -0.07761,0 -0.141115,-0.144 -0.141115,-0.32 z m 70.559999,-7.36 c 0.108774,-0.176 0.05377,-0.32 -0.122229,-0.32 -0.176,0 -0.408997,0.144 -0.517771,0.32 -0.108774,0.176 -0.05377,0.32 0.122229,0.32 0.176,0 0.408997,-0.144 0.517771,-0.32 z M 48.959999,40.996814 c 0,-0.492721 -0.952303,-0.931046 -5.2,-2.393451 -2.86,-0.984647 -5.416,-1.829213 -5.68,-1.876815 -0.264,-0.0476 -0.552,-0.16699 -0.64,-0.265308 -0.088,-0.09832 -1.717684,-0.729434 -3.621521,-1.402479 -2.578118,-0.911418 -3.554028,-1.131212 -3.824,-0.86124 -0.5387,0.5387 -0.07725,0.8302 3.045521,1.92386 1.895132,0.663716 2.803289,0.854261 2.810177,0.589619 0.0065,-0.250652 0.150103,-0.210737 0.4,0.111201 0.354167,0.456266 11.366682,4.713379 12.309823,4.758614 0.22,0.01055 0.4,-0.252249 0.4,-0.584001 z M 30.079999,34.56 c 0,-0.176 0.144,-0.32 0.32,-0.32 0.176,0 0.32,0.144 0.32,0.32 0,0.176 -0.144,0.32 -0.32,0.32 -0.176,0 -0.32,-0.144 -0.32,-0.32 z m 68.419999,153.0614 c 0.231,-0.0924 0.507,-0.0811 0.613333,0.0253 0.106333,0.10634 -0.08267,0.18197 -0.42,0.16808 -0.372782,-0.0154 -0.448608,-0.0912 -0.193333,-0.19334 z m -48.819999,-2.89661 c 0.836,-0.0659 2.204,-0.0659 3.04,0 0.836,0.0659 0.152,0.11985 -1.52,0.11985 -1.672,0 -2.356,-0.0539 -1.52,-0.11985 z M 103.09052,181.12 c 0,-0.44 0.0726,-0.62 0.16141,-0.4 0.0888,0.22 0.0888,0.58 0,0.8 -0.0888,0.22 -0.16141,0.04 -0.16141,-0.4 z m -49.625258,-3.06667 c 0.01535,-0.37278 0.09118,-0.44861 0.193333,-0.19333 0.09244,0.231 0.08107,0.507 -0.02526,0.61333 -0.106333,0.10633 -0.181965,-0.0827 -0.16807,-0.42 z M 101.38,147.9414 c 0.231,-0.0924 0.507,-0.0811 0.61333,0.0253 0.10633,0.10633 -0.0827,0.18196 -0.42,0.16807 -0.37278,-0.0154 -0.44861,-0.0912 -0.19333,-0.19334 z M 53.146665,132.04403 c 0.07333,-0.0638 0.77385,-0.19791 1.556702,-0.29805 0.920829,-0.1178 1.25977,-0.0786 0.96,0.11107 -0.427653,0.27055 -2.816868,0.44806 -2.516702,0.18698 z M 57.662382,128.8 c 0.0065,-0.528 0.07824,-0.70526 0.159374,-0.39391 0.08113,0.31135 0.0758,0.74335 -0.01186,0.96 -0.08765,0.21665 -0.154037,-0.0381 -0.147516,-0.56609 z m -7.07712,-21.46667 c 0.01535,-0.37278 0.09118,-0.44861 0.193333,-0.19333 0.09244,0.231 0.08107,0.507 -0.02526,0.61333 -0.106333,0.10634 -0.181965,-0.0827 -0.16807,-0.42 z M 152.23466,77.400291 c 0.21707,-0.218694 0.47528,-0.317015 0.5738,-0.218491 0.0985,0.09852 -0.0791,0.277455 -0.39466,0.397626 -0.45607,0.173659 -0.49282,0.136902 -0.17914,-0.179135 z M 116.72,55.14807 c 0.22,-0.08877 0.58,-0.08877 0.8,0 0.22,0.08877 0.04,0.161403 -0.4,0.161403 -0.44,0 -0.62,-0.07263 -0.4,-0.161403 z m -7.58319,-4.257677 C 108.87776,50.730291 109.03247,50.64 109.56583,50.64 c 0.93103,0 1.04175,0.09187 0.40515,0.336157 -0.23596,0.09055 -0.61134,0.05195 -0.83417,-0.08576 z m -14.650722,-3.75215 c 0.31135,-0.08113 0.74335,-0.0758 0.96,0.01186 0.21665,0.08765 -0.03809,0.154037 -0.56609,0.147516 -0.528,-0.0065 -0.70526,-0.07824 -0.39391,-0.159373 z m -7.52609,-0.33517 c 1.1,-0.06249 2.9,-0.06249 4,0 1.1,0.06249 0.2,0.113612 -2,0.113612 -2.2,0 -3.1,-0.05113 -2,-0.113612 z M 19.52,0.62111456 C 19.52,0.43472757 19.664,0.37122601 19.84,0.48 c 0.176,0.10877398 0.32,0.26127242 0.32,0.33888543 0,0.077613 -0.144,0.14111456 -0.32,0.14111456 -0.176,0 -0.32,-0.15249844 -0.32,-0.33888543 z"
       id="path1" />
  </g>
  <metadata
     id="metadata1">
    <rdf:RDF>
      <cc:Work
         rdf:about="">
        <dc:title>QuikSCAT Icon SVG</dc:title>
        <dc:source>https://upload.wikimedia.org/wikipedia/commons/9/9c/QuikSCAT_spacecraft_model.png</dc:source>
      </cc:Work>
    </rdf:RDF>
  </metadata>
</svg>
