<?xml version="1.0" encoding="UTF-8" standalone="no"?>
<!-- Created with Inkscape (http://www.inkscape.org/) -->

<svg
   version="1.1"
   id="svg1"
   width="682.66669"
   height="218.66667"
   viewBox="0 0 682.66669 218.66667"
   xmlns="http://www.w3.org/2000/svg"
   xmlns:svg="http://www.w3.org/2000/svg"
   xmlns:rdf="http://www.w3.org/1999/02/22-rdf-syntax-ns#"
   xmlns:cc="http://creativecommons.org/ns#"
   xmlns:dc="http://purl.org/dc/elements/1.1/">
  <title
     id="title1">GOLD Icon SVG</title>
  <defs
     id="defs1" />
  <g
     id="g1">
    <path
       style="fill:currentColor"
       d="m 30.416668,217.75585 c 7.33651,-0.71266 -2.052648,2.2168 0,0 z m 612.250022,-4.56946 c -25.7033,-4.04471 -50.96624,-13.16194 -77.31225,-17.3791 -20.45724,-3.88674 -41.54136,-11.70695 -63.02293,-13.99882 -19.08874,-4.64332 -35.0707,-8.29162 -55.0011,-13.31182 -12.91074,2.8828 -1.72456,0.0744 -13.35681,7.46062 -6.90132,7.80979 -2.40927,1.39497 -10.75148,10.07506 -20.89255,-0.51259 -30.43777,-4.45557 -45.44596,0.87855 -3.45458,9.99448 12.18689,17.45392 -7.27737,14.05634 -17.63539,1.21393 3.72585,-27.948 -13.22805,-23.63387 -20.3618,-1.86771 2.95469,-26.55656 -2.98336,-44.54295 -13.72568,7.9465 -27.43046,7.43557 -44.21635,2.67802 -21.83859,-5.48681 -31.95279,-3.82079 -48.6812,-10.96533 -17.72269,-3.30205 -30.21356,-7.9337 -46.45765,-8.75102 C 199.74251,110.65162 178.56743,103.8217 159.28139,101.83546 145.97162,98.050486 137.4626,97.51308 121.26329,91.877607 105.77735,86.674424 88.928538,87.372819 78.936223,82.010766 61.787284,80.02191 43.7358,72.39462 31.09047,73.804025 22.4577,69.455108 3.9168125,72.44654 0.08477298,64.626639 6.8101184,45.235753 4.8327674,8.6365466 23.979581,2.5285044 c 21.580244,4.3341483 37.141855,9.8080836 58.18202,15.5954596 14.889262,5.838129 31.444219,4.921588 41.983519,10.975557 15.7469,5.628619 34.64546,8.058694 46.9497,11.953074 15.34845,3.398228 34.89874,11.122276 51.74533,12.84019 17.8215,7.430793 42.43886,12.962733 61.90744,16.642957 15.0404,4.926049 29.8966,5.174531 44.82257,12.75511 14.05636,5.752462 31.1303,-3.523001 32.5386,16.709148 23.50631,-11.345363 -3.80348,-13.50561 -7.91811,-22.015993 11.75573,-3.661753 19.09142,-12.941374 21.49935,-11.695498 16.80097,-8.773492 2.98837,-2.012176 6.10195,-4.531922 7.36422,-2.646405 19.73834,-16.214705 6.43381,-4.660391 15.38827,-11.46316 40.34829,-14.234529 57.92939,-6.168894 0.79795,9.019788 33.58185,0.68279 37.81032,14.358684 4.00238,22.896303 -36.4049,-1.757297 -37.02967,18.543573 8.34499,8.176411 4.46423,14.204884 -2.39644,17.709791 -5.73256,4.01853 -5.18921,35.48585 8.44658,18.97723 24.08269,-1.79185 49.43453,11.01403 73.85737,15.13075 40.24872,9.54099 80.81956,22.84156 120.60019,30.84112 18.37213,3.77413 40.01429,11.58908 24.02637,28.51389 -5.99406,3.8377 -8.40116,23.10409 -20.87401,19.98436 l -3.36589,-0.75659 -4.56329,-1.04372 z M 403.66668,156.41424 c -11.4329,-1.29719 -0.49094,2.14714 0,0 z m 29.21637,-4.74757 c -2.31297,-0.43111 1.39981,8.90916 0,0 z m -7.3041,-60.629268 c 8.15221,2.472447 15.58411,-6.530976 1.67755,-9.579722 -6.31364,0.07798 -4.50535,19.32889 -8.05726,0.752424 -6.45734,3.622197 0.48586,15.855903 6.37971,8.827298 z m -9.69289,-9.704067 c 2.11535,-8.122898 -19.08504,-7.859846 -1.33712,-0.995 -8.13068,0.445403 -3.91733,7.982494 1.33712,0.995 z m -16.81115,-3.602016 c -2.88136,-9.648392 -1.3106,5.587562 0,0 z m 5.59177,0.935349 c -0.35192,-4.889771 -4.00214,4.491715 0,0 z m 18,-0.587977 c -3.36331,-5.221282 -3.67209,2.802838 0,0 z m -17.78363,-6.412023 c -2.31297,-0.431096 1.39981,8.909162 0,0 z m 12.08918,-5.805555 c -5.69696,-1.520797 -1.45725,2.460516 0,0 z m 9.69445,-1.115756 c -3.36331,-5.221282 -3.67209,2.802841 0,0 z M 411.24096,60.12984 c -5.47687,1.831956 -6.20002,7.294238 0,0 z m 70.09239,3.366754 c -8.03636,-9.611786 -2.56364,0.895123 0,0 z m -74.66667,-4.023212 c -13.12284,-4.054041 -13.53822,2.718909 0,0 z m -2,-3.473381 c -0.54078,-6.267851 -11.04234,7.021437 0,0 z m -29,147.116959 c 8.29706,-1.32267 0.10339,2.30697 0,0 z m 185.41667,-6.69444 c 7.33651,-0.71267 -2.05262,2.21678 0,0 z m -182.31141,-7.86696 c 1.23195,-4.99037 0.56969,5.79347 0,0 z m 18.31141,-1.46637 c 7.3365,-0.71266 -2.05266,2.21677 0,0 z m 8,-1.33334 c 7.33651,-0.71265 -2.05267,2.21679 0,0 z m 98.66667,-2.66666 c 7.3365,-0.71266 -2.05266,2.21677 0,0 z m -150.06501,-4.04596 c 11.66375,-1.15034 4.6297,1.95946 0,0 z m 127.39834,-1.28738 c 7.3365,-0.71265 -2.05266,2.21679 0,0 z m -12,-2.66666 c 7.3365,-0.71266 -2.05264,2.21677 0,0 z M 349.54387,160 c 0.99975,-7.3713 0.99973,7.37132 0,0 z m 1.33333,-10.66666 c 0.99976,-7.37142 0.99977,7.37141 0,0 z m 1.33334,-12 c 0.99973,-7.37132 0.99975,7.3713 0,0 z m -5.8772,-0.88304 c 8.29706,-1.32267 0.10343,2.30694 0,0 z m 96.77086,-19.78363 c 0.88109,-17.900253 0.58601,19.53477 0,0 z M 166.33334,104.45029 c 8.29706,-1.32267 0.1034,2.30697 0,0 z m -5.25,-1.36111 c 7.3365,-0.71265 -2.05266,2.21679 0,0 z m 200.25,-4.946526 c 5.67741,-4.835087 3.22377,2.415846 0,0 z m 6.33334,-3.473623 c 3.25761,-6.447129 -8.93935,-9.03905 3,-4.165622 1.59823,1.347919 -6.44778,8.095224 -3,4.165622 z m -8.89474,-7.446807 c 1.23195,-4.990365 0.56969,5.793466 0,0 z m 89.22807,-0.555555 c 1.84702,-8.740074 2.15152,8.555039 0,0 z m -97.33333,-2.666667 c 10.40431,-4.783962 -4.11112,4.466834 0,0 z M 322.00001,65.922909 c -17.67965,-8.322325 -49.04151,-15.333651 -55,-32.609992 4.31411,-6.780619 4.49785,16.553799 21.73252,14.090225 16.78995,10.848278 43.98393,16.535391 58.26304,27.124026 -8.62542,-1.871088 -16.70303,-5.670229 -24.99556,-8.604259 z M 15.025376,72.409347 c 11.386021,-1.148489 -1.893184,2.186654 0,0 z M 7.6666669,71.116961 c 8.2970551,-1.322663 0.1034128,2.306954 0,0 z M 1,69.783627 c 8.2970566,-1.322665 0.103412,2.306957 0,0 z M 459.66668,52.450294 c 8.29705,-1.322661 0.10341,2.306954 0,0 z"
       id="path1" />
  </g>
  <metadata
     id="metadata1">
    <rdf:RDF>
      <cc:Work
         rdf:about="">
        <dc:title>GOLD Icon SVG</dc:title>
        <dc:source>https://upload.wikimedia.org/wikipedia/commons/thumb/c/ce/SES-14_with_GOLD_hosted_payload.jpg/1200px-SES-14_with_GOLD_hosted_payload.jpg</dc:source>
      </cc:Work>
    </rdf:RDF>
  </metadata>
</svg>
