<?xml version="1.0" encoding="UTF-8" standalone="no"?>
<svg xmlns="http://www.w3.org/2000/svg" version="1.2" baseProfile="tiny" viewBox="0.00 0.00 512.00 164.00" width="512.00" height="164.00">
<path fill="#5e6190" d="
  M 150.19 37.75
  L 149.14 41.79
  A 0.12 0.12 0.0 0 0 149.34 41.91
  Q 151.04 40.33 151.02 38.02
  C 153.49 38.56 155.96 38.65 158.32 39.53
  Q 161.14 40.57 165.27 41.69
  Q 200.65 51.24 232.32 58.79
  Q 236.10 59.69 246.50 62.83
  Q 253.62 64.98 260.87 66.27
  Q 264.21 66.81 266.65 68.40
  Q 265.46 70.47 266.91 71.23
  L 253.82 99.95
  Q 253.90 99.51 253.81 99.36
  A 0.72 0.71 -50.3 0 0 252.56 99.48
  Q 251.59 101.80 251.54 104.08
  Q 248.95 104.40 246.24 103.76
  Q 247.24 102.76 246.92 102.30
  A 2.35 2.35 0.0 0 0 243.99 101.55
  Q 243.28 101.90 243.29 103.24
  L 191.25 91.58
  Q 191.75 90.84 191.81 90.30
  A 0.28 0.27 75.7 0 0 191.38 90.04
  Q 190.19 90.84 188.21 90.88
  L 130.25 77.40
  Q 130.82 76.31 130.86 75.37
  A 0.26 0.26 0.0 0 0 130.35 75.27
  L 130.11 75.93
  A 0.67 0.67 0.0 0 1 129.28 76.35
  Q 126.34 75.48 124.27 76.08
  L 23.34 52.90
  L 0.00 47.91
  L 0.00 44.59
  Q 2.59 39.29 4.47 31.25
  Q 7.90 16.64 12.20 3.00
  A 1.73 1.72 -77.9 0 1 14.05 1.80
  Q 18.59 2.36 22.14 3.34
  C 52.13 11.62 67.79 16.12 89.24 21.30
  C 91.62 21.88 94.50 23.06 97.09 23.73
  Q 139.83 34.77 147.03 36.67
  Q 147.88 36.89 150.19 37.75
  Z
  M 80.08 33.18
  A 0.26 0.24 -1.0 0 0 79.92 33.33
  L 77.02 41.38
  A 0.17 0.17 0.0 0 0 77.08 41.56
  L 77.70 42.04
  A 0.34 0.34 0.0 0 0 78.24 41.78
  Q 78.47 37.64 80.75 33.62
  A 0.37 0.36 -84.3 0 0 80.32 33.09
  L 80.08 33.18
  Z
  M 77.67 43.49
  Q 76.87 43.01 76.38 43.01
  A 0.44 0.44 0.0 0 0 76.00 43.65
  Q 76.09 43.84 76.10 43.88
  A 2.69 2.68 45.9 0 1 76.08 45.57
  L 74.02 51.35
  A 0.64 0.63 1.7 0 1 73.59 51.75
  Q 73.37 51.81 73.34 51.82
  A 0.59 0.58 -43.6 0 0 73.31 52.86
  Q 74.34 53.42 74.73 52.96
  Q 74.92 52.74 74.89 52.40
  Q 74.88 52.38 74.86 51.71
  A 1.25 1.10 -41.4 0 1 74.91 51.31
  L 77.11 44.80
  A 0.69 0.69 0.0 0 1 77.50 44.38
  Q 77.94 44.19 77.87 43.79
  A 0.46 0.43 13.3 0 0 77.67 43.49
  Z
  M 148.59 45.00
  Q 149.34 43.53 149.35 43.49
  A 0.54 0.54 0.0 0 0 148.36 43.13
  Q 147.60 44.32 147.78 44.92
  A 0.44 0.44 0.0 0 0 148.59 45.00
  Z
  M 8.77 44.97
  Q 7.49 44.27 6.55 45.45
  Q 5.48 46.79 6.44 47.66
  A 0.24 0.24 0.0 0 0 6.84 47.48
  Q 6.76 44.72 8.69 45.17
  A 0.11 0.11 0.0 0 0 8.77 44.97
  Z
  M 147.5472 48.1174
  A 0.31 0.31 0.0 0 0 147.3620 47.7201
  L 147.2492 47.6790
  A 0.31 0.31 0.0 0 0 146.8519 47.8643
  L 143.2128 57.8626
  A 0.31 0.31 0.0 0 0 143.3980 58.2599
  L 143.5108 58.3010
  A 0.31 0.31 0.0 0 0 143.9081 58.1157
  L 147.5472 48.1174
  Z
  M 153.86 49.79
  Q 153.83 48.55 155.04 48.09
  A 0.35 0.34 46.2 0 0 155.05 47.45
  Q 154.60 47.26 154.24 47.69
  Q 153.16 49.02 153.49 49.87
  A 0.19 0.19 0.0 0 0 153.86 49.79
  Z
  M 80.66 55.88
  Q 81.08 54.99 82.37 55.14
  A 0.25 0.25 0.0 0 0 82.57 54.70
  Q 82.13 54.32 81.34 54.63
  Q 80.33 55.04 80.34 55.81
  A 0.17 0.17 0.0 0 0 80.66 55.88
  Z
  M 130.79 57.22
  Q 130.79 57.29 131.23 58.26
  A 0.36 0.36 0.0 0 0 131.89 58.26
  Q 131.97 58.09 131.73 57.08
  A 0.48 0.48 0.0 0 0 130.79 57.22
  Z
  M 138.75 69.19
  Q 137.67 70.60 138.28 71.35
  A 0.55 0.53 -40.8 0 0 139.07 71.40
  Q 140.87 69.73 140.75 67.98
  Q 140.89 64.07 143.22 60.37
  A 0.40 0.40 0.0 0 0 143.24 59.98
  Q 143.14 59.77 142.83 59.63
  A 0.48 0.48 0.0 0 0 142.18 59.90
  L 138.75 69.19
  Z
  M 214.16 65.44
  Q 213.78 64.29 214.80 63.86
  A 0.25 0.24 -26.5 0 0 214.92 63.52
  L 214.92 63.50
  A 0.24 0.23 59.8 0 0 214.59 63.41
  Q 213.21 64.30 213.41 65.82
  A 0.05 0.05 0.0 0 0 213.46 65.86
  L 213.81 65.88
  A 0.34 0.34 0.0 0 0 214.16 65.44
  Z
  M 150.34 72.85
  Q 150.13 74.52 146.76 73.44
  A 1.70 1.70 0.0 0 1 145.60 71.63
  Q 145.60 71.60 146.29 71.08
  A 0.26 0.26 0.0 0 0 146.09 70.61
  Q 145.47 70.71 145.11 72.29
  A 0.72 0.71 27.0 0 0 145.34 72.98
  Q 146.93 74.38 149.01 74.32
  Q 150.87 74.28 150.66 72.85
  A 0.16 0.16 0.0 0 0 150.34 72.85
  Z
  M 136.05 78.07
  Q 136.38 78.19 136.71 77.90
  A 0.57 0.54 77.9 0 0 136.88 77.62
  Q 137.89 73.40 137.74 73.35
  Q 137.60 73.30 135.69 77.19
  A 0.57 0.54 -38.3 0 0 135.65 77.52
  Q 135.72 77.95 136.05 78.07
  Z
  M 199.89 82.31
  L 200.01 82.53
  A 0.35 0.35 0.0 0 0 200.66 82.43
  Q 201.64 78.07 204.17 74.96
  A 0.33 0.32 -67.7 0 0 203.95 74.42
  L 203.20 74.36
  A 0.17 0.17 0.0 0 0 203.04 74.45
  L 199.88 82.10
  A 0.25 0.23 43.2 0 0 199.89 82.31
  Z
  M 204.5514 86.5186
  A 2.91 1.93 -178.2 0 0 207.3994 88.5390
  A 2.91 1.93 -178.2 0 0 210.3686 86.7014
  A 2.91 1.93 -178.2 0 0 207.5206 84.6810
  A 2.91 1.93 -178.2 0 0 204.5514 86.5186
  Z
  M 249.78 88.30
  Q 250.11 87.05 249.69 86.18
  A 0.44 0.43 -53.7 0 0 248.87 86.31
  Q 248.85 86.39 249.38 88.30
  A 0.21 0.21 0.0 0 0 249.78 88.30
  Z"
/>
<path fill="#525254" d="
  M 201.45 26.97
  Q 201.63 26.60 201.61 26.33
  Q 201.58 26.03 201.16 25.93
  Q 200.61 25.80 200.01 25.72
  Q 201.93 24.50 204.02 24.60
  A 0.50 0.50 0.0 0 1 204.22 25.55
  L 201.45 26.97
  Z"
/>
<path fill="#caced2" d="
  M 200.01 25.72
  Q 200.61 25.80 201.16 25.93
  Q 201.58 26.03 201.61 26.33
  Q 201.63 26.60 201.45 26.97
  Q 201.37 26.96 201.28 26.94
  L 199.02 27.11
  Q 197.95 26.34 200.01 25.72
  Z"
/>
<path fill="#010101" d="
  M 201.28 26.94
  L 201.18 27.97
  Q 200.79 27.81 200.55 28.32
  L 199.02 27.11
  L 201.28 26.94
  Z"
/>
<path fill="#5e6190" d="
  M 201.18 27.97
  L 204.32 30.77
  A 0.05 0.05 0.0 0 1 204.26 30.86
  Q 202.26 29.82 200.55 28.32
  Q 200.79 27.81 201.18 27.97
  Z"
/>
<path fill="#525254" d="
  M 80.75 33.62
  Q 78.47 37.64 78.24 41.78
  A 0.34 0.34 0.0 0 1 77.70 42.04
  L 77.08 41.56
  A 0.17 0.17 0.0 0 1 77.02 41.38
  L 79.92 33.33
  A 0.26 0.24 -1.0 0 1 80.08 33.18
  L 80.32 33.09
  A 0.37 0.36 -84.3 0 1 80.75 33.62
  Z"
/>
<path fill="#010101" d="
  M 215.18 36.10
  Q 214.86 36.50 215.06 37.83
  Q 214.32 37.63 213.79 37.19
  A 0.45 0.44 34.6 0 1 213.68 36.63
  Q 213.99 36.05 215.18 36.10
  Z"
/>
<path fill="#caced2" d="
  M 217.71 36.74
  Q 217.43 38.30 220.48 38.56
  L 259.54 55.09
  A 0.04 0.04 0.0 0 1 259.52 55.16
  Q 258.71 55.07 258.13 54.87
  Q 239.66 48.47 219.79 40.19
  Q 218.37 39.60 215.06 37.83
  Q 214.86 36.50 215.18 36.10
  Q 216.97 35.74 217.71 36.74
  Z"
/>
<path fill="#010101" d="
  M 331.94 38.63
  Q 326.92 36.91 321.54 37.48
  A 0.13 0.11 23.7 0 0 321.47 37.50
  L 316.29 39.13
  A 1.27 1.27 0.0 0 0 315.59 39.67
  Q 315.30 40.16 315.19 40.82
  Q 315.17 40.91 315.05 41.03
  Q 314.88 41.19 314.64 41.12
  A 0.20 0.19 2.3 0 1 314.49 40.96
  L 314.16 39.20
  A 0.99 0.99 0.0 0 0 313.49 38.44
  C 309.51 37.18 306.86 38.11 303.12 38.29
  Q 306.12 36.15 308.26 36.03
  Q 313.60 35.73 329.08 36.07
  A 1.84 1.80 60.2 0 1 329.96 36.32
  Q 331.33 37.14 331.94 38.63
  Z"
/>
<path fill="#010101" d="
  M 220.48 38.56
  Q 217.43 38.30 217.71 36.74
  L 220.48 38.56
  Z"
/>
<path fill="#caced2" d="
  M 331.94 38.63
  Q 334.39 40.17 333.42 41.64
  Q 331.72 44.04 327.96 44.84
  Q 321.25 46.27 317.46 45.19
  A 0.39 0.38 15.4 0 0 316.98 45.46
  L 316.97 45.49
  A 0.39 0.38 18.7 0 0 317.21 45.96
  Q 319.65 46.85 321.60 48.45
  Q 322.52 49.21 323.73 49.48
  C 324.10 49.56 324.22 49.92 324.21 50.25
  Q 324.20 50.44 323.64 50.48
  Q 322.44 50.56 322.22 52.76
  L 311.94 51.05
  A 2.37 2.30 65.8 0 1 310.98 50.67
  Q 309.27 49.51 306.75 48.76
  A 0.38 0.38 0.0 0 0 306.29 49.26
  Q 306.75 50.41 306.64 50.78
  A 0.44 0.44 0.0 0 1 305.95 51.01
  C 305.23 50.46 304.83 48.54 303.80 48.13
  Q 303.07 47.84 302.37 48.56
  Q 301.41 48.83 300.17 48.32
  A 0.45 0.45 0.0 0 0 299.55 48.73
  L 299.55 50.01
  A 0.58 0.57 85.0 0 0 300.22 50.58
  Q 301.82 50.30 302.44 49.09
  Q 303.94 50.95 306.39 52.07
  A 1.96 1.94 -68.8 0 1 307.43 54.45
  Q 307.00 55.74 308.45 57.53
  A 0.36 0.36 0.0 0 0 309.09 57.28
  Q 308.91 54.24 307.62 51.54
  A 0.73 0.73 0.0 0 1 308.28 50.50
  L 308.73 50.50
  A 1.16 1.16 0.0 0 1 309.87 51.44
  Q 310.43 54.35 310.12 56.15
  A 0.55 0.54 72.7 0 0 311.04 56.64
  L 313.31 54.37
  A 0.99 0.99 0.0 0 1 315.00 54.97
  Q 315.20 56.80 317.00 57.90
  A 0.40 0.40 0.0 0 0 317.49 57.28
  L 316.03 55.81
  A 0.19 0.18 -46.0 0 1 316.03 55.54
  L 316.25 55.32
  A 0.38 0.37 -46.1 0 1 316.77 55.30
  Q 320.58 58.77 323.58 54.70
  Q 325.89 54.45 326.41 52.80
  A 0.62 0.62 0.0 0 1 327.04 52.37
  Q 327.45 52.40 327.84 53.22
  Q 328.01 53.57 327.91 53.88
  Q 327.76 54.36 327.78 54.42
  A 0.51 0.51 0.0 0 0 328.57 54.64
  Q 330.10 53.47 331.93 53.13
  Q 332.10 54.34 331.74 55.02
  Q 331.95 53.49 330.08 55.04
  A 1.20 1.18 -16.5 0 0 329.66 55.80
  L 329.16 59.29
  L 329.29 61.46
  L 329.48 64.00
  A 0.42 0.42 0.0 0 0 330.24 64.21
  Q 331.03 63.10 332.25 63.00
  A 0.67 0.66 -8.8 0 0 332.84 62.20
  L 332.77 61.88
  L 332.79 61.33
  L 334.53 60.77
  Q 334.12 61.87 334.12 62.51
  Q 332.41 64.45 330.89 65.02
  A 1.19 1.19 0.0 0 0 330.29 65.53
  Q 329.23 67.40 329.75 68.17
  A 0.30 0.30 0.0 0 1 329.45 68.63
  Q 328.63 68.49 328.13 68.10
  A 0.92 0.87 63.2 0 0 327.57 67.90
  L 323.98 67.90
  A 0.97 0.97 0.0 0 0 323.32 68.16
  Q 322.53 68.86 322.61 69.74
  A 0.73 0.72 -41.6 0 0 324.04 69.82
  Q 324.11 69.44 324.48 69.39
  A 0.37 0.35 79.3 0 1 324.89 69.68
  Q 325.01 70.26 325.43 70.34
  Q 325.95 70.43 326.05 70.24
  Q 326.35 69.69 326.42 69.65
  A 0.42 0.42 0.0 0 1 327.01 70.11
  Q 326.95 70.45 326.22 70.85
  A 1.09 1.08 -14.5 0 0 325.65 71.80
  L 325.65 77.63
  A 0.64 0.64 0.0 0 0 326.14 78.25
  L 326.84 78.41
  A 0.28 0.27 9.2 0 0 327.18 78.17
  L 327.64 74.27
  A 1.41 1.41 0.0 0 0 327.56 73.61
  Q 326.97 72.08 328.38 71.74
  A 0.31 0.31 0.0 0 0 328.51 71.21
  Q 328.02 70.78 327.65 70.03
  A 0.27 0.26 -36.7 0 1 327.70 69.72
  L 327.92 69.50
  A 0.54 0.54 0.0 0 1 328.74 69.56
  Q 329.78 70.96 331.08 69.66
  A 0.40 0.40 0.0 0 1 331.76 69.87
  Q 331.98 71.08 333.34 71.50
  A 0.57 0.57 0.0 0 1 333.23 72.61
  Q 331.29 72.79 330.97 74.98
  Q 330.72 76.63 330.05 78.03
  A 1.11 1.10 -78.1 0 1 329.11 78.65
  Q 328.96 78.65 328.84 78.66
  A 0.39 0.39 0.0 0 0 328.55 79.28
  L 328.98 79.94
  A 1.27 1.20 32.2 0 1 329.17 80.69
  L 327.79 102.19
  A 6.08 5.91 -36.1 0 1 327.57 103.47
  Q 326.30 107.91 326.70 111.78
  Q 326.87 113.38 326.72 114.23
  C 326.35 116.37 327.35 117.61 325.33 119.26
  A 0.08 0.08 0.0 0 0 325.30 119.36
  L 325.39 119.63
  A 0.21 0.21 0.0 0 0 325.78 119.64
  Q 325.98 119.08 326.33 119.12
  A 0.34 0.33 -89.0 0 1 326.62 119.43
  Q 326.75 120.99 326.60 121.74
  A 1.28 1.28 0.0 0 1 324.44 122.40
  L 322.22 120.18
  A 1.63 1.62 69.8 0 0 321.21 119.71
  Q 318.84 119.49 315.56 117.95
  A 0.76 0.71 -3.3 0 0 314.58 118.98
  Q 314.88 119.41 314.72 119.96
  A 1.10 1.09 -55.2 0 0 314.89 120.93
  Q 315.59 121.85 316.52 121.78
  Q 316.54 122.41 316.79 122.79
  A 0.37 0.37 0.0 0 0 317.46 122.64
  Q 317.57 121.89 316.52 121.78
  L 315.56 120.23
  A 0.26 0.25 -39.2 0 1 315.60 119.91
  L 315.83 119.68
  A 0.47 0.47 0.0 0 1 316.58 119.80
  Q 316.92 120.47 316.77 121.04
  A 0.51 0.50 -77.5 0 0 317.16 121.66
  Q 318.42 121.91 319.56 121.31
  A 1.53 1.50 -48.7 0 1 320.77 121.22
  L 321.58 121.51
  A 0.58 0.58 0.0 0 1 321.63 122.58
  Q 317.68 124.48 313.75 122.28
  A 0.92 0.90 17.3 0 1 313.28 121.41
  Q 313.35 120.66 314.07 119.66
  A 0.33 0.32 -50.3 0 0 314.04 119.24
  L 313.85 119.06
  A 0.50 0.50 0.0 0 0 313.06 119.16
  Q 312.48 120.11 312.52 121.01
  A 0.48 0.47 -79.0 0 1 311.86 121.46
  L 308.12 119.81
  A 1.60 1.52 55.3 0 0 307.50 119.68
  Q 300.25 119.73 292.39 117.85
  A 0.28 0.28 0.0 0 1 292.34 117.32
  Q 294.63 116.25 297.20 116.17
  Q 297.88 116.30 298.29 115.86
  Q 299.42 116.16 300.29 116.00
  A 0.37 0.37 0.0 0 0 300.28 115.27
  Q 298.83 115.04 298.29 115.73
  L 297.05 115.91
  Q 297.74 114.47 297.05 114.17
  A 0.43 0.43 0.0 0 0 296.49 114.38
  Q 295.99 115.44 295.75 115.62
  A 0.27 0.27 0.0 0 1 295.32 115.38
  Q 295.40 114.37 293.92 114.14
  A 0.34 0.34 0.0 0 0 293.55 114.61
  Q 294.02 115.74 292.54 116.14
  A 0.44 0.44 0.0 0 1 291.99 115.69
  Q 292.52 108.39 293.21 102.87
  C 293.51 100.43 293.22 98.21 292.91 95.75
  A 0.29 0.29 0.0 0 1 293.40 95.51
  L 295.32 97.44
  A 0.27 0.26 -42.5 0 0 295.68 97.45
  Q 295.83 97.32 295.91 97.27
  A 0.48 0.47 -28.0 0 1 296.61 97.48
  Q 297.10 98.59 298.52 99.09
  A 0.50 0.50 0.0 0 0 299.18 98.71
  Q 299.31 97.94 300.11 97.02
  A 0.73 0.73 0.0 0 0 299.04 96.03
  L 298.85 96.22
  A 0.97 0.97 0.0 0 1 297.85 96.44
  L 294.89 95.38
  A 0.98 0.98 0.0 0 1 294.25 94.52
  L 293.95 89.78
  A 4.54 4.09 51.4 0 1 294.01 88.76
  Q 294.02 88.73 294.12 88.57
  A 0.60 0.59 -68.2 0 0 293.75 87.69
  Q 293.47 87.62 293.42 87.62
  A 0.66 0.65 2.8 0 1 292.77 86.91
  L 294.18 70.35
  A 0.54 0.53 22.6 0 1 295.06 69.99
  Q 296.00 70.78 297.03 70.63
  A 0.84 0.83 2.5 0 0 297.73 70.00
  L 299.25 63.40
  A 0.25 0.24 -88.4 0 0 298.97 63.10
  L 298.49 63.18
  A 0.01 0.01 0.0 0 0 298.48 63.19
  L 296.98 69.66
  A 0.64 0.63 -73.7 0 1 296.15 70.12
  L 295.79 69.99
  A 1.16 1.16 0.0 0 1 295.06 68.64
  L 296.75 61.31
  A 0.22 0.22 0.0 0 1 297.11 61.20
  Q 299.15 63.06 301.56 63.66
  A 0.61 0.60 -72.7 0 0 302.27 63.28
  L 302.99 61.28
  A 0.30 0.30 0.0 0 0 302.61 60.90
  L 299.99 61.79
  A 0.54 0.54 0.0 0 1 299.29 61.17
  Q 299.35 60.85 299.35 60.82
  A 0.87 0.87 0.0 0 0 298.45 59.90
  L 297.10 59.96
  A 0.86 0.85 -0.3 0 1 296.20 59.07
  Q 296.26 57.63 296.96 56.14
  A 1.30 1.27 -30.4 0 0 297.08 55.70
  L 297.61 47.42
  A 0.60 0.58 74.1 0 1 297.84 46.99
  Q 298.12 46.79 298.19 46.47
  Q 298.29 46.02 297.58 45.73
  Q 296.30 45.22 295.78 44.59
  A 0.92 0.91 -36.8 0 1 295.98 43.24
  L 297.89 41.94
  A 1.32 1.30 -8.1 0 0 298.40 41.27
  Q 299.04 39.40 301.24 39.25
  L 303.12 38.29
  C 306.86 38.11 309.51 37.18 313.49 38.44
  A 0.99 0.99 0.0 0 1 314.16 39.20
  L 314.49 40.96
  A 0.20 0.19 2.3 0 0 314.64 41.12
  Q 314.88 41.19 315.05 41.03
  Q 315.17 40.91 315.19 40.82
  Q 315.30 40.16 315.59 39.67
  A 1.27 1.27 0.0 0 1 316.29 39.13
  L 321.47 37.50
  A 0.13 0.11 23.7 0 1 321.54 37.48
  Q 326.92 36.91 331.94 38.63
  Z
  M 313.37 42.20
  L 312.63 42.94
  A 0.77 0.76 30.5 0 1 311.87 43.13
  Q 311.37 42.98 311.21 43.16
  A 0.31 0.31 0.0 0 0 311.54 43.66
  Q 312.29 43.41 313.49 44.60
  A 0.62 0.62 0.0 0 0 314.51 43.96
  L 313.96 42.34
  A 0.36 0.35 57.8 0 0 313.37 42.20
  Z
  M 305.64 45.32
  L 301.67 45.93
  A 0.11 0.11 0.0 0 0 301.58 46.06
  L 301.59 46.13
  A 1.94 1.34 -8.7 0 0 303.71 47.16
  L 304.06 47.10
  A 1.94 1.34 -8.7 0 0 305.78 45.49
  L 305.77 45.42
  A 0.11 0.11 0.0 0 0 305.64 45.32
  Z
  M 302.31 54.76
  Q 302.30 53.95 301.57 53.15
  Q 301.51 53.08 301.37 53.09
  Q 301.10 53.11 301.08 53.32
  A 0.44 0.34 -64.5 0 0 301.12 53.50
  L 301.72 54.89
  A 0.31 0.31 0.0 0 0 302.31 54.76
  Z
  M 299.93 57.12
  Q 300.76 59.69 300.82 59.86
  A 0.15 0.15 0.0 0 0 300.99 59.96
  Q 301.20 59.90 301.21 59.65
  Q 301.21 59.40 300.42 56.96
  Q 299.64 54.52 299.50 54.32
  Q 299.34 54.11 299.14 54.19
  A 0.15 0.15 0.0 0 0 299.05 54.37
  Q 299.10 54.54 299.93 57.12
  Z
  M 316.84 96.77
  Q 317.60 97.12 318.21 96.78
  A 0.33 0.32 -46.0 0 0 318.20 96.21
  Q 317.77 95.97 317.31 95.76
  Q 316.86 95.54 316.40 95.36
  A 0.33 0.32 -83.6 0 0 315.96 95.72
  Q 316.08 96.41 316.84 96.77
  Z
  M 300.47 105.43
  A 1.04 0.90 47.7 0 0 302.20 105.64
  Q 302.28 105.47 301.78 104.56
  A 0.61 0.57 -38.7 0 0 300.83 104.49
  Q 300.29 105.06 300.47 105.43
  Z
  M 317.62 116.39
  Q 317.01 115.14 316.27 115.08
  A 0.79 0.74 -23.7 0 0 315.69 116.44
  Q 316.21 116.81 317.26 116.91
  A 0.36 0.36 0.0 0 0 317.62 116.39
  Z"
/>
<path fill="#010101" d="
  M 151.02 38.02
  Q 151.04 40.33 149.34 41.91
  A 0.12 0.12 0.0 0 1 149.14 41.79
  L 150.19 37.75
  L 151.02 38.02
  Z"
/>
<path fill="#010101" d="
  M 301.24 39.25
  Q 299.04 39.40 298.40 41.27
  A 1.32 1.30 -8.1 0 1 297.89 41.94
  L 295.98 43.24
  A 0.92 0.91 -36.8 0 0 295.78 44.59
  Q 296.30 45.22 297.58 45.73
  Q 298.29 46.02 298.19 46.47
  Q 298.12 46.79 297.84 46.99
  A 0.60 0.58 74.1 0 0 297.61 47.42
  L 297.08 55.70
  A 1.30 1.27 -30.4 0 1 296.96 56.14
  Q 296.26 57.63 296.20 59.07
  A 0.86 0.85 -0.3 0 0 297.10 59.96
  L 298.45 59.90
  A 0.87 0.87 0.0 0 1 299.35 60.82
  Q 299.35 60.85 299.29 61.17
  A 0.54 0.54 0.0 0 0 299.99 61.79
  L 302.61 60.90
  A 0.30 0.30 0.0 0 1 302.99 61.28
  L 302.27 63.28
  A 0.61 0.60 -72.7 0 1 301.56 63.66
  Q 299.15 63.06 297.11 61.20
  A 0.22 0.22 0.0 0 0 296.75 61.31
  L 295.06 68.64
  A 1.16 1.16 0.0 0 0 295.79 69.99
  L 296.15 70.12
  A 0.64 0.63 -73.7 0 0 296.98 69.66
  L 298.48 63.19
  A 0.01 0.01 0.0 0 1 298.49 63.18
  L 298.97 63.10
  A 0.25 0.24 -88.4 0 1 299.25 63.40
  L 297.73 70.00
  A 0.84 0.83 2.5 0 1 297.03 70.63
  Q 296.00 70.78 295.06 69.99
  A 0.54 0.53 22.6 0 0 294.18 70.35
  L 292.77 86.91
  A 0.66 0.65 2.8 0 0 293.42 87.62
  Q 293.47 87.62 293.75 87.69
  A 0.60 0.59 -68.2 0 1 294.12 88.57
  Q 294.02 88.73 294.01 88.76
  A 4.54 4.09 51.4 0 0 293.95 89.78
  L 294.25 94.52
  A 0.98 0.98 0.0 0 0 294.89 95.38
  L 297.85 96.44
  A 0.97 0.97 0.0 0 0 298.85 96.22
  L 299.04 96.03
  A 0.73 0.73 0.0 0 1 300.11 97.02
  Q 299.31 97.94 299.18 98.71
  A 0.50 0.50 0.0 0 1 298.52 99.09
  Q 297.10 98.59 296.61 97.48
  A 0.48 0.47 -28.0 0 0 295.91 97.27
  Q 295.83 97.32 295.68 97.45
  A 0.27 0.26 -42.5 0 1 295.32 97.44
  L 293.40 95.51
  A 0.29 0.29 0.0 0 0 292.91 95.75
  C 293.22 98.21 293.51 100.43 293.21 102.87
  Q 292.52 108.39 291.99 115.69
  A 0.44 0.44 0.0 0 0 292.54 116.14
  Q 294.02 115.74 293.55 114.61
  A 0.34 0.34 0.0 0 1 293.92 114.14
  Q 295.40 114.37 295.32 115.38
  A 0.27 0.27 0.0 0 0 295.75 115.62
  Q 295.99 115.44 296.49 114.38
  A 0.43 0.43 0.0 0 1 297.05 114.17
  Q 297.74 114.47 297.05 115.91
  Q 297.28 115.70 297.20 116.17
  Q 294.63 116.25 292.34 117.32
  A 0.28 0.28 0.0 0 0 292.39 117.85
  Q 300.25 119.73 307.50 119.68
  A 1.60 1.52 55.3 0 1 308.12 119.81
  L 311.86 121.46
  A 0.48 0.47 -79.0 0 0 312.52 121.01
  Q 312.48 120.11 313.06 119.16
  A 0.50 0.50 0.0 0 1 313.85 119.06
  L 314.04 119.24
  A 0.33 0.32 -50.3 0 1 314.07 119.66
  Q 313.35 120.66 313.28 121.41
  A 0.92 0.90 17.3 0 0 313.75 122.28
  Q 317.68 124.48 321.63 122.58
  A 0.58 0.58 0.0 0 0 321.58 121.51
  L 320.77 121.22
  A 1.53 1.50 -48.7 0 0 319.56 121.31
  Q 318.42 121.91 317.16 121.66
  A 0.51 0.50 -77.5 0 1 316.77 121.04
  Q 316.92 120.47 316.58 119.80
  A 0.47 0.47 0.0 0 0 315.83 119.68
  L 315.60 119.91
  A 0.26 0.25 -39.2 0 0 315.56 120.23
  L 316.52 121.78
  Q 315.59 121.85 314.89 120.93
  A 1.10 1.09 -55.2 0 1 314.72 119.96
  Q 314.88 119.41 314.58 118.98
  A 0.76 0.71 -3.3 0 1 315.56 117.95
  Q 318.84 119.49 321.21 119.71
  A 1.63 1.62 69.8 0 1 322.22 120.18
  L 324.44 122.40
  A 1.28 1.28 0.0 0 0 326.60 121.74
  Q 326.75 120.99 326.62 119.43
  A 0.34 0.33 -89.0 0 0 326.33 119.12
  Q 325.98 119.08 325.78 119.64
  A 0.21 0.21 0.0 0 1 325.39 119.63
  L 325.30 119.36
  A 0.08 0.08 0.0 0 1 325.33 119.26
  C 327.35 117.61 326.35 116.37 326.72 114.23
  Q 326.87 113.38 326.70 111.78
  Q 326.30 107.91 327.57 103.47
  A 6.08 5.91 -36.1 0 0 327.79 102.19
  L 329.17 80.69
  A 1.27 1.20 32.2 0 0 328.98 79.94
  L 328.55 79.28
  A 0.39 0.39 0.0 0 1 328.84 78.66
  Q 328.96 78.65 329.11 78.65
  A 1.11 1.10 -78.1 0 0 330.05 78.03
  Q 330.72 76.63 330.97 74.98
  Q 331.29 72.79 333.23 72.61
  A 0.57 0.57 0.0 0 0 333.34 71.50
  Q 331.98 71.08 331.76 69.87
  A 0.40 0.40 0.0 0 0 331.08 69.66
  Q 329.78 70.96 328.74 69.56
  A 0.54 0.54 0.0 0 0 327.92 69.50
  L 327.70 69.72
  A 0.27 0.26 -36.7 0 0 327.65 70.03
  Q 328.02 70.78 328.51 71.21
  A 0.31 0.31 0.0 0 1 328.38 71.74
  Q 326.97 72.08 327.56 73.61
  A 1.41 1.41 0.0 0 1 327.64 74.27
  L 327.18 78.17
  A 0.28 0.27 9.2 0 1 326.84 78.41
  L 326.14 78.25
  A 0.64 0.64 0.0 0 1 325.65 77.63
  L 325.65 71.80
  A 1.09 1.08 -14.5 0 1 326.22 70.85
  Q 326.95 70.45 327.01 70.11
  A 0.42 0.42 0.0 0 0 326.42 69.65
  Q 326.35 69.69 326.05 70.24
  Q 325.95 70.43 325.43 70.34
  Q 325.01 70.26 324.89 69.68
  A 0.37 0.35 79.3 0 0 324.48 69.39
  Q 324.11 69.44 324.04 69.82
  A 0.73 0.72 -41.6 0 1 322.61 69.74
  Q 322.53 68.86 323.32 68.16
  A 0.97 0.97 0.0 0 1 323.98 67.90
  L 327.57 67.90
  A 0.92 0.87 63.2 0 1 328.13 68.10
  Q 328.63 68.49 329.45 68.63
  A 0.30 0.30 0.0 0 0 329.75 68.17
  Q 329.23 67.40 330.29 65.53
  A 1.19 1.19 0.0 0 1 330.89 65.02
  Q 332.41 64.45 334.12 62.51
  L 334.21 65.87
  A 2.50 2.41 89.7 0 0 336.58 68.31
  Q 337.57 68.32 338.97 68.99
  Q 335.64 68.87 336.61 72.35
  Q 333.49 73.27 331.54 75.76
  A 2.14 2.07 68.2 0 0 331.11 76.81
  Q 330.12 86.27 330.75 96.05
  Q 329.87 96.64 329.81 97.58
  A 0.28 0.28 0.0 0 0 330.25 97.82
  L 336.84 92.99
  Q 338.15 91.72 341.46 90.54
  L 331.29 112.42
  A 0.80 0.72 -32.6 0 0 331.21 112.71
  L 330.74 118.65
  A 0.77 0.75 88.1 0 1 330.11 119.34
  Q 328.66 119.55 327.31 120.82
  A 0.33 0.33 0.0 0 0 327.30 121.29
  L 327.69 121.68
  A 0.61 0.61 0.0 0 0 328.55 121.68
  L 329.10 121.14
  A 1.21 1.19 -61.5 0 1 330.19 120.81
  L 334.15 121.61
  A 0.27 0.27 0.0 0 1 334.33 122.01
  L 334.33 122.02
  A 0.29 0.28 25.4 0 1 333.93 122.16
  Q 333.15 121.75 331.99 121.59
  A 0.85 0.85 0.0 0 0 331.18 121.94
  Q 330.59 122.78 330.54 123.23
  A 0.90 0.88 19.4 0 0 330.96 124.08
  Q 331.56 124.44 331.39 125.06
  Q 329.76 127.37 327.75 128.71
  Q 327.22 128.31 326.91 127.78
  Q 326.48 127.05 327.02 126.70
  Q 327.48 126.40 328.50 126.73
  A 0.88 0.88 0.0 0 0 329.64 126.09
  L 329.87 125.08
  A 0.68 0.68 0.0 0 0 329.26 124.25
  L 327.10 124.12
  A 0.60 0.59 -0.5 0 1 326.55 123.59
  L 326.50 123.24
  A 0.26 0.25 48.9 0 0 326.01 123.20
  Q 326.00 123.23 325.97 123.29
  A 1.06 1.05 5.0 0 1 325.18 123.95
  Q 323.78 124.19 323.94 125.86
  Q 322.49 125.22 323.23 123.77
  A 0.30 0.30 0.0 0 0 322.96 123.33
  Q 321.74 123.34 321.57 124.29
  C 321.25 126.12 320.98 127.69 321.96 128.59
  A 0.28 0.28 0.0 0 0 322.42 128.34
  Q 322.25 127.30 323.43 126.81
  Q 323.69 126.70 323.82 126.42
  Q 323.96 126.14 323.94 125.86
  Q 325.22 125.64 325.89 126.14
  Q 326.86 126.85 326.02 127.39
  Q 325.62 127.65 324.58 127.48
  A 0.05 0.04 -20.5 0 0 324.54 127.56
  L 327.09 129.45
  Q 321.67 132.75 319.15 136.78
  Q 314.43 133.75 306.64 132.04
  A 0.48 0.48 0.0 0 0 306.29 132.92
  Q 312.86 136.75 319.81 139.18
  L 306.83 137.15
  A 1.51 1.28 40.3 0 0 306.42 137.15
  L 302.58 137.63
  Q 302.73 134.76 298.78 134.13
  A 0.40 0.40 0.0 0 0 298.63 134.91
  L 299.74 135.17
  A 0.47 0.46 -64.6 0 1 300.00 135.91
  Q 299.79 136.18 299.78 136.28
  A 0.70 0.61 -72.1 0 0 300.07 136.96
  L 301.55 137.78
  L 298.01 138.48
  A 1.18 1.16 53.4 0 1 297.23 138.36
  Q 296.26 137.81 295.56 136.88
  L 295.97 135.84
  Q 296.92 131.57 296.49 126.68
  L 298.00 123.02
  A 0.46 0.46 0.0 0 0 297.68 122.40
  L 292.71 121.26
  A 1.23 1.22 -80.2 0 0 291.21 122.32
  Q 290.88 125.42 291.88 128.77
  A 0.24 0.24 0.0 0 1 291.73 129.06
  L 291.43 129.16
  A 0.09 0.08 -15.6 0 1 291.32 129.10
  L 289.90 123.51
  A 0.75 0.74 -30.2 0 1 290.09 122.81
  L 290.30 122.61
  A 0.37 0.37 0.0 0 0 289.81 122.05
  Q 289.21 122.51 289.18 122.90
  A 0.25 0.24 -86.4 0 0 289.40 123.16
  Q 289.61 123.18 289.62 123.18
  A 0.48 0.48 0.0 0 1 289.78 123.80
  Q 288.90 125.47 289.29 128.21
  A 0.85 0.81 57.7 0 1 289.19 128.71
  L 288.43 130.00
  A 0.43 0.43 0.0 0 0 288.71 130.63
  Q 289.02 130.69 289.53 130.52
  A 0.58 0.57 54.1 0 1 290.05 130.61
  Q 290.19 130.73 290.13 131.11
  A 0.45 0.42 68.5 0 0 290.90 131.48
  Q 291.98 129.86 292.88 129.82
  Q 293.00 129.92 293.09 130.00
  A 0.46 0.46 0.0 0 1 293.21 130.50
  Q 292.37 132.76 292.57 135.04
  Q 292.26 135.78 292.35 136.24
  L 291.78 137.29
  A 0.63 0.62 -66.5 0 1 291.05 137.58
  Q 285.29 135.83 283.51 138.10
  Q 282.05 138.37 281.68 139.55
  A 0.83 0.83 0.0 0 1 281.05 140.13
  L 279.98 140.36
  Q 278.97 140.13 278.47 141.21
  C 278.04 142.32 277.52 143.81 278.56 144.73
  Q 279.51 145.57 280.87 144.89
  Q 282.46 147.46 285.42 148.84
  Q 283.55 150.43 281.54 149.10
  Q 280.99 148.74 279.50 149.27
  Q 278.72 149.55 278.47 150.40
  Q 277.58 150.48 276.80 150.09
  Q 277.66 149.54 276.87 148.67
  A 0.49 0.49 0.0 0 0 276.04 148.87
  L 275.80 149.69
  Q 274.66 149.62 273.64 149.07
  A 0.88 0.87 14.4 0 1 273.18 148.30
  L 273.18 133.47
  A 0.81 0.81 0.0 0 0 272.37 132.66
  L 263.56 132.66
  A 0.47 0.46 -86.7 0 1 263.10 132.14
  L 266.96 98.36
  A 0.43 0.43 0.0 0 0 266.31 97.94
  C 264.34 99.11 263.25 100.92 260.71 100.18
  L 260.61 99.70
  Q 263.53 98.15 265.56 95.79
  L 270.34 92.80
  A 1.36 1.33 -54.0 0 1 271.34 92.63
  L 272.19 92.83
  A 0.42 0.41 87.1 0 0 272.67 92.29
  L 272.44 91.62
  A 0.75 0.75 0.0 0 0 271.31 91.24
  L 265.30 95.34
  L 259.53 99.84
  Q 258.74 100.12 258.37 100.70
  Q 256.08 102.57 253.20 103.61
  Q 252.53 102.45 253.82 99.95
  L 266.91 71.23
  L 271.60 88.10
  A 1.76 1.59 22.1 0 0 271.87 88.66
  Q 272.83 89.95 272.60 90.34
  A 0.20 0.20 0.0 0 0 272.90 90.59
  L 273.70 89.97
  A 0.32 0.32 0.0 0 0 273.49 89.39
  Q 271.97 89.43 272.42 87.21
  A 0.76 0.73 -64.6 0 0 272.18 86.49
  Q 271.88 86.24 271.66 85.12
  Q 270.68 80.21 269.66 75.16
  C 273.88 75.88 276.52 72.88 279.13 69.92
  A 1.39 1.32 -25.6 0 0 279.47 69.03
  L 279.47 65.03
  A 0.55 0.54 -1.0 0 0 278.90 64.49
  Q 273.85 64.63 272.34 64.12
  Q 270.78 63.60 269.26 60.98
  L 270.09 60.93
  A 0.65 0.65 0.0 0 0 270.28 59.68
  Q 268.83 59.13 268.51 58.17
  Q 275.24 55.62 282.53 50.01
  A 1.44 1.18 -27.4 0 1 284.70 50.47
  Q 284.76 50.75 285.52 50.71
  A 0.86 0.86 0.0 0 0 286.27 50.21
  Q 287.30 47.95 287.94 47.43
  Q 292.85 43.46 298.55 38.51
  A 1.02 1.02 0.0 0 1 299.48 38.30
  Q 300.42 38.54 301.24 39.25
  Z
  M 274.22 93.07
  Q 274.54 92.91 277.09 94.06
  A 0.66 0.66 0.0 0 0 277.97 93.68
  L 278.95 90.97
  A 0.71 0.71 0.0 0 0 278.33 90.03
  L 277.27 89.96
  A 0.33 0.33 0.0 0 0 276.95 90.43
  Q 277.30 91.20 277.32 92.01
  A 0.61 0.60 -0.9 0 1 276.71 92.63
  Q 274.05 92.62 273.96 92.80
  A 0.20 0.20 0.0 0 0 274.22 93.07
  Z
  M 329.36 99.14
  Q 328.58 101.12 328.82 102.49
  A 0.41 0.41 0.0 0 0 329.64 102.43
  Q 329.76 99.16 329.75 99.14
  A 0.21 0.21 0.0 0 0 329.36 99.14
  Z
  M 308.87 121.10
  C 306.75 121.11 304.79 121.60 302.88 120.77
  A 2.11 2.02 53.8 0 0 301.93 120.60
  Q 300.13 120.68 298.08 119.94
  C 296.25 119.29 294.35 119.37 292.51 118.81
  A 0.57 0.56 12.0 0 0 291.78 119.28
  L 291.75 119.59
  A 0.73 0.73 0.0 0 0 292.31 120.39
  L 301.30 122.47
  A 0.41 0.40 -80.4 0 1 301.61 122.91
  L 300.77 130.24
  A 0.37 0.37 0.0 0 0 301.10 130.65
  L 301.44 130.69
  A 0.66 0.66 0.0 0 0 302.16 130.18
  L 303.77 123.25
  A 0.27 0.27 0.0 0 1 304.09 123.05
  L 318.91 126.47
  A 0.41 0.40 0.1 0 0 319.40 125.99
  Q 319.23 125.28 319.60 124.62
  A 0.36 0.36 0.0 0 0 319.30 124.09
  L 314.34 123.85
  A 1.34 1.31 -28.4 0 1 313.71 123.67
  L 312.14 122.75
  A 1.37 1.36 -34.6 0 0 311.24 122.59
  Q 310.06 122.78 309.71 121.71
  A 0.87 0.86 -8.9 0 0 308.87 121.10
  Z
  M 319.2641 120.0887
  A 0.62 0.45 -32.3 0 0 318.4995 120.0396
  A 0.62 0.45 -32.3 0 0 318.2159 120.7513
  A 0.62 0.45 -32.3 0 0 318.9805 120.8004
  A 0.62 0.45 -32.3 0 0 319.2641 120.0887
  Z
  M 274.27 124.55
  Q 274.18 124.66 275.45 126.86
  A 0.65 0.63 -15.0 0 0 276.02 127.17
  Q 276.50 127.16 276.82 126.79
  Q 277.15 126.42 277.10 125.95
  A 0.65 0.63 -82.5 0 0 276.71 125.42
  Q 274.36 124.44 274.27 124.55
  Z
  M 284.13 135.26
  A 0.53 0.53 0.0 0 0 284.76 134.89
  Q 285.87 130.92 285.55 126.26
  A 0.65 0.64 2.8 0 0 285.00 125.66
  Q 283.27 125.36 281.76 126.63
  A 1.21 1.00 -69.0 0 1 281.53 126.76
  L 276.13 128.60
  A 1.18 1.18 0.0 0 0 276.38 130.89
  Q 278.88 131.16 280.00 132.22
  A 0.79 0.78 28.7 0 1 280.22 132.96
  L 280.06 133.65
  A 0.66 0.65 13.3 0 0 280.55 134.43
  L 284.13 135.26
  Z"
/>
<path fill="#caced2" d="
  M 343.14 41.31
  L 352.72 50.41
  A 1.42 1.42 0.0 0 1 353.15 51.58
  L 353.10 51.98
  A 1.02 1.01 -64.5 0 0 353.40 52.83
  L 356.20 55.64
  A 0.33 0.33 0.0 0 1 356.22 56.08
  Q 356.01 56.33 355.54 56.38
  Q 346.85 56.84 338.56 55.35
  Q 332.72 52.61 330.52 46.96
  A 1.12 1.10 48.7 0 1 330.57 46.05
  Q 331.71 43.94 334.06 42.29
  Q 338.68 40.91 343.14 41.31
  Z"
/>
<path fill="#525254" d="
  M 355.54 56.38
  Q 356.01 56.33 356.22 56.08
  A 0.33 0.33 0.0 0 0 356.20 55.64
  L 353.40 52.83
  A 1.02 1.01 -64.5 0 1 353.10 51.98
  L 353.15 51.58
  A 1.42 1.42 0.0 0 0 352.72 50.41
  L 343.14 41.31
  Q 348.76 41.63 355.44 44.60
  Q 360.55 46.88 361.78 51.95
  C 362.57 55.21 357.66 56.70 355.54 56.38
  Z"
/>
<path fill="#010101" d="
  M 333.42 41.64
  Q 333.58 42.27 334.06 42.29
  Q 331.71 43.94 330.57 46.05
  A 1.12 1.10 48.7 0 0 330.52 46.96
  Q 332.72 52.61 338.56 55.35
  Q 334.53 56.55 334.53 60.77
  L 332.79 61.33
  Q 332.39 61.44 332.10 61.05
  A 0.67 0.66 -33.7 0 1 332.30 60.08
  Q 333.06 59.62 332.79 58.52
  Q 332.49 57.34 332.69 56.02
  Q 332.85 54.71 333.10 53.55
  A 0.75 0.74 -85.1 0 0 332.35 52.65
  Q 332.17 52.66 331.93 53.13
  Q 330.10 53.47 328.57 54.64
  A 0.51 0.51 0.0 0 1 327.78 54.42
  Q 327.76 54.36 327.91 53.88
  Q 328.01 53.57 327.84 53.22
  Q 327.45 52.40 327.04 52.37
  A 0.62 0.62 0.0 0 0 326.41 52.80
  Q 325.89 54.45 323.58 54.70
  L 322.22 52.76
  Q 322.44 50.56 323.64 50.48
  Q 324.20 50.44 324.21 50.25
  C 324.22 49.92 324.10 49.56 323.73 49.48
  Q 322.52 49.21 321.60 48.45
  Q 319.65 46.85 317.21 45.96
  A 0.39 0.38 18.7 0 1 316.97 45.49
  L 316.98 45.46
  A 0.39 0.38 15.4 0 1 317.46 45.19
  Q 321.25 46.27 327.96 44.84
  Q 331.72 44.04 333.42 41.64
  Z
  M 324.49 53.79
  Q 324.71 53.62 324.78 53.21
  A 0.23 0.23 0.0 0 0 324.39 53.00
  Q 324.17 53.22 324.14 53.34
  A 0.35 0.24 86.5 0 0 324.49 53.79
  Z"
/>
<path fill="#010101" d="
  M 313.96 42.34
  L 314.51 43.96
  A 0.62 0.62 0.0 0 1 313.49 44.60
  Q 312.29 43.41 311.54 43.66
  A 0.31 0.31 0.0 0 1 311.21 43.16
  Q 311.37 42.98 311.87 43.13
  A 0.77 0.76 30.5 0 0 312.63 42.94
  L 313.37 42.20
  A 0.36 0.35 57.8 0 1 313.96 42.34
  Z"
/>
<path fill="#525254" d="
  M 77.87 43.79
  Q 77.94 44.19 77.50 44.38
  A 0.69 0.69 0.0 0 0 77.11 44.80
  L 74.91 51.31
  A 1.25 1.10 -41.4 0 0 74.86 51.71
  Q 74.88 52.38 74.89 52.40
  Q 74.92 52.74 74.73 52.96
  Q 74.34 53.42 73.31 52.86
  A 0.59 0.58 -43.6 0 1 73.34 51.82
  Q 73.37 51.81 73.59 51.75
  A 0.64 0.63 1.7 0 0 74.02 51.35
  L 76.08 45.57
  A 2.69 2.68 45.9 0 0 76.10 43.88
  Q 76.09 43.84 76.00 43.65
  A 0.44 0.44 0.0 0 1 76.38 43.01
  Q 76.87 43.01 77.67 43.49
  A 0.46 0.43 13.3 0 1 77.87 43.79
  Z"
/>
<path fill="#caced2" d="
  M 147.78 44.92
  Q 147.60 44.32 148.36 43.13
  A 0.54 0.54 0.0 0 1 149.35 43.49
  Q 149.34 43.53 148.59 45.00
  A 0.44 0.44 0.0 0 1 147.78 44.92
  Z"
/>
<path fill="#010101" d="
  M 8.69 45.17
  Q 6.76 44.72 6.84 47.48
  A 0.24 0.24 0.0 0 1 6.44 47.66
  Q 5.48 46.79 6.55 45.45
  Q 7.49 44.27 8.77 44.97
  A 0.11 0.11 0.0 0 1 8.69 45.17
  Z"
/>
<path fill="#010101" d="
  M 305.64 45.32
  A 0.11 0.11 0.0 0 1 305.77 45.42
  L 305.78 45.49
  A 1.94 1.34 -8.7 0 1 304.06 47.10
  L 303.71 47.16
  A 1.94 1.34 -8.7 0 1 301.59 46.13
  L 301.58 46.06
  A 0.11 0.11 0.0 0 1 301.67 45.93
  L 305.64 45.32
  Z"
/>
<rect fill="#010101" x="-0.37" y="-5.63" transform="translate(145.38,52.99) rotate(20.0)" width="0.74" height="11.26" rx="0.31"/>
<path fill="#525254" d="
  M 153.49 49.87
  Q 153.16 49.02 154.24 47.69
  Q 154.60 47.26 155.05 47.45
  A 0.35 0.34 46.2 0 1 155.04 48.09
  Q 153.83 48.55 153.86 49.79
  A 0.19 0.19 0.0 0 1 153.49 49.87
  Z"
/>
<path fill="#010101" d="
  M 23.34 52.90
  Q 23.14 54.12 24.31 54.35
  A 0.16 0.16 0.0 0 1 24.44 54.54
  A 0.18 0.17 -77.6 0 1 24.24 54.67
  L 0.00 50.28
  L 0.00 47.91
  L 23.34 52.90
  Z"
/>
<path fill="#5e6190" d="
  M 322.22 52.76
  L 323.58 54.70
  Q 320.58 58.77 316.77 55.30
  A 0.38 0.37 -46.1 0 0 316.25 55.32
  L 316.03 55.54
  A 0.19 0.18 -46.0 0 0 316.03 55.81
  L 317.49 57.28
  A 0.40 0.40 0.0 0 1 317.00 57.90
  Q 315.20 56.80 315.00 54.97
  A 0.99 0.99 0.0 0 0 313.31 54.37
  L 311.04 56.64
  A 0.55 0.54 72.7 0 1 310.12 56.15
  Q 310.43 54.35 309.87 51.44
  A 1.16 1.16 0.0 0 0 308.73 50.50
  L 308.28 50.50
  A 0.73 0.73 0.0 0 0 307.62 51.54
  Q 308.91 54.24 309.09 57.28
  A 0.36 0.36 0.0 0 1 308.45 57.53
  Q 307.00 55.74 307.43 54.45
  A 1.96 1.94 -68.8 0 0 306.39 52.07
  Q 303.94 50.95 302.44 49.09
  Q 302.45 48.75 302.37 48.56
  Q 303.07 47.84 303.80 48.13
  C 304.83 48.54 305.23 50.46 305.95 51.01
  A 0.44 0.44 0.0 0 0 306.64 50.78
  Q 306.75 50.41 306.29 49.26
  A 0.38 0.38 0.0 0 1 306.75 48.76
  Q 309.27 49.51 310.98 50.67
  A 2.37 2.30 65.8 0 0 311.94 51.05
  L 322.22 52.76
  Z"
/>
<path fill="#010101" d="
  M 302.37 48.56
  Q 302.45 48.75 302.44 49.09
  Q 301.82 50.30 300.22 50.58
  A 0.58 0.57 85.0 0 1 299.55 50.01
  L 299.55 48.73
  A 0.45 0.45 0.0 0 1 300.17 48.32
  Q 301.41 48.83 302.37 48.56
  Z"
/>
<path fill="#5e6190" d="
  M 332.69 56.02
  Q 332.35 56.98 331.65 56.55
  Q 331.32 56.34 331.17 55.98
  L 331.74 55.02
  Q 332.10 54.34 331.93 53.13
  Q 332.17 52.66 332.35 52.65
  A 0.75 0.74 -85.1 0 1 333.10 53.55
  Q 332.85 54.71 332.69 56.02
  Z"
/>
<path fill="#010101" d="
  M 301.72 54.89
  L 301.12 53.50
  A 0.44 0.34 -64.5 0 1 301.08 53.32
  Q 301.10 53.11 301.37 53.09
  Q 301.51 53.08 301.57 53.15
  Q 302.30 53.95 302.31 54.76
  A 0.31 0.31 0.0 0 1 301.72 54.89
  Z"
/>
<path fill="#525254" d="
  M 324.49 53.79
  A 0.35 0.24 86.5 0 1 324.14 53.34
  Q 324.17 53.22 324.39 53.00
  A 0.23 0.23 0.0 0 1 324.78 53.21
  Q 324.71 53.62 324.49 53.79
  Z"
/>
<path fill="#5e6190" d="
  M 300.42 56.96
  Q 301.21 59.40 301.21 59.65
  Q 301.20 59.90 300.99 59.96
  A 0.15 0.15 0.0 0 1 300.82 59.86
  Q 300.76 59.69 299.93 57.12
  Q 299.10 54.54 299.05 54.37
  A 0.15 0.15 0.0 0 1 299.14 54.19
  Q 299.34 54.11 299.50 54.32
  Q 299.64 54.52 300.42 56.96
  Z"
/>
<path fill="#010101" d="
  M 331.74 55.02
  L 331.17 55.98
  Q 330.63 56.28 330.36 56.66
  A 0.84 0.82 -43.6 0 0 330.33 57.59
  Q 331.96 60.21 329.16 59.29
  L 329.66 55.80
  A 1.20 1.18 -16.5 0 1 330.08 55.04
  Q 331.95 53.49 331.74 55.02
  Z"
/>
<path fill="#010101" d="
  M 80.34 55.81
  Q 80.33 55.04 81.34 54.63
  Q 82.13 54.32 82.57 54.70
  A 0.25 0.25 0.0 0 1 82.37 55.14
  Q 81.08 54.99 80.66 55.88
  A 0.17 0.17 0.0 0 1 80.34 55.81
  Z"
/>
<path fill="#525254" d="
  M 331.17 55.98
  Q 331.32 56.34 331.65 56.55
  Q 332.35 56.98 332.69 56.02
  Q 332.49 57.34 332.79 58.52
  Q 333.06 59.62 332.30 60.08
  A 0.67 0.66 -33.7 0 0 332.10 61.05
  Q 332.39 61.44 332.79 61.33
  L 332.77 61.88
  L 329.29 61.46
  L 329.16 59.29
  Q 331.96 60.21 330.33 57.59
  A 0.84 0.82 -43.6 0 1 330.36 56.66
  Q 330.63 56.28 331.17 55.98
  Z"
/>
<path fill="#010101" d="
  M 130.79 57.22
  A 0.48 0.48 0.0 0 1 131.73 57.08
  Q 131.97 58.09 131.89 58.26
  A 0.36 0.36 0.0 0 1 131.23 58.26
  Q 130.79 57.29 130.79 57.22
  Z"
/>
<path fill="#525254" d="
  M 268.51 58.17
  Q 268.83 59.13 270.28 59.68
  A 0.65 0.65 0.0 0 1 270.09 60.93
  L 269.26 60.98
  Q 265.01 56.83 268.51 58.17
  Z"
/>
<path fill="#010101" d="
  M 140.75 67.98
  Q 139.61 69.23 138.75 69.19
  L 142.18 59.90
  A 0.48 0.48 0.0 0 1 142.83 59.63
  Q 143.14 59.77 143.24 59.98
  A 0.40 0.40 0.0 0 1 143.22 60.37
  Q 140.89 64.07 140.75 67.98
  Z"
/>
<path fill="#010101" d="
  M 332.77 61.88
  L 332.84 62.20
  A 0.67 0.66 -8.8 0 1 332.25 63.00
  Q 331.03 63.10 330.24 64.21
  A 0.42 0.42 0.0 0 1 329.48 64.00
  L 329.29 61.46
  L 332.77 61.88
  Z"
/>
<path fill="#525254" d="
  M 214.16 65.44
  A 0.34 0.34 0.0 0 1 213.81 65.88
  L 213.46 65.86
  A 0.05 0.05 0.0 0 1 213.41 65.82
  Q 213.21 64.30 214.59 63.41
  A 0.24 0.23 59.8 0 1 214.92 63.50
  L 214.92 63.52
  A 0.25 0.24 -26.5 0 1 214.80 63.86
  Q 213.78 64.29 214.16 65.44
  Z"
/>
<path fill="#010101" d="
  M 267.93 69.29
  L 266.65 68.40
  Q 264.21 66.81 260.87 66.27
  L 265.98 64.20
  A 0.98 0.98 0.0 0 1 267.32 64.97
  L 267.93 69.29
  Z"
/>
<path fill="#caced2" d="
  M 138.75 69.19
  Q 139.61 69.23 140.75 67.98
  Q 140.87 69.73 139.07 71.40
  A 0.55 0.53 -40.8 0 1 138.28 71.35
  Q 137.67 70.60 138.75 69.19
  Z"
/>
<path fill="#caced2" d="
  M 266.65 68.40
  L 267.93 69.29
  L 269.66 75.16
  Q 270.68 80.21 271.66 85.12
  Q 271.88 86.24 272.18 86.49
  A 0.76 0.73 -64.6 0 1 272.42 87.21
  Q 271.97 89.43 273.49 89.39
  A 0.32 0.32 0.0 0 1 273.70 89.97
  L 272.90 90.59
  A 0.20 0.20 0.0 0 1 272.60 90.34
  Q 272.83 89.95 271.87 88.66
  A 1.76 1.59 22.1 0 1 271.60 88.10
  L 266.91 71.23
  Q 265.46 70.47 266.65 68.40
  Z"
/>
<path fill="#caced2" d="
  M 338.97 68.99
  L 340.74 69.52
  A 0.45 0.44 40.3 0 1 340.81 70.35
  L 336.61 72.35
  Q 335.64 68.87 338.97 68.99
  Z"
/>
<path fill="#010101" d="
  M 150.66 72.85
  Q 150.87 74.28 149.01 74.32
  Q 146.93 74.38 145.34 72.98
  A 0.72 0.71 27.0 0 1 145.11 72.29
  Q 145.47 70.71 146.09 70.61
  A 0.26 0.26 0.0 0 1 146.29 71.08
  Q 145.60 71.60 145.60 71.63
  A 1.70 1.70 0.0 0 0 146.76 73.44
  Q 150.13 74.52 150.34 72.85
  A 0.16 0.16 0.0 0 1 150.66 72.85
  Z"
/>
<path fill="#010101" d="
  M 137.74 73.35
  Q 137.89 73.40 136.88 77.62
  A 0.57 0.54 77.9 0 1 136.71 77.90
  Q 136.38 78.19 136.05 78.07
  Q 135.72 77.95 135.65 77.52
  A 0.57 0.54 -38.3 0 1 135.69 77.19
  Q 137.60 73.30 137.74 73.35
  Z"
/>
<path fill="#525254" d="
  M 199.89 82.31
  A 0.25 0.23 43.2 0 1 199.88 82.10
  L 203.04 74.45
  A 0.17 0.17 0.0 0 1 203.20 74.36
  L 203.95 74.42
  A 0.33 0.32 -67.7 0 1 204.17 74.96
  Q 201.64 78.07 200.66 82.43
  A 0.35 0.35 0.0 0 1 200.01 82.53
  L 199.89 82.31
  Z"
/>
<path fill="#010101" d="
  M 130.25 77.40
  L 124.27 76.08
  Q 126.34 75.48 129.28 76.35
  A 0.67 0.67 0.0 0 0 130.11 75.93
  L 130.35 75.27
  A 0.26 0.26 0.0 0 1 130.86 75.37
  Q 130.82 76.31 130.25 77.40
  Z"
/>
<path fill="#525254" d="
  M 204.5514 86.5186
  A 2.91 1.93 -178.2 0 1 207.5206 84.6810
  A 2.91 1.93 -178.2 0 1 210.3686 86.7014
  A 2.91 1.93 -178.2 0 1 207.3994 88.5390
  A 2.91 1.93 -178.2 0 1 204.5514 86.5186
  Z
  M 205.0586 86.4284
  A 2.36 1.22 -175.1 0 0 207.3058 87.8455
  A 2.36 1.22 -175.1 0 0 209.7614 86.8316
  A 2.36 1.22 -175.1 0 0 207.5142 85.4145
  A 2.36 1.22 -175.1 0 0 205.0586 86.4284
  Z"
/>
<ellipse fill="#5e6190" cx="0.00" cy="0.00" transform="translate(207.41,86.63) rotate(-175.1)" rx="2.36" ry="1.22"/>
<path fill="#525254" d="
  M 249.38 88.30
  Q 248.85 86.39 248.87 86.31
  A 0.44 0.43 -53.7 0 1 249.69 86.18
  Q 250.11 87.05 249.78 88.30
  A 0.21 0.21 0.0 0 1 249.38 88.30
  Z"
/>
<path fill="#525254" d="
  M 191.25 91.58
  Q 191.10 91.52 190.96 91.46
  Q 190.53 91.33 190.03 91.38
  L 188.21 90.88
  Q 190.19 90.84 191.38 90.04
  A 0.28 0.27 75.7 0 1 191.81 90.30
  Q 191.75 90.84 191.25 91.58
  Z"
/>
<path fill="#525254" d="
  M 273.96 92.80
  Q 274.05 92.62 276.71 92.63
  A 0.61 0.60 -0.9 0 0 277.32 92.01
  Q 277.30 91.20 276.95 90.43
  A 0.33 0.33 0.0 0 1 277.27 89.96
  L 278.33 90.03
  A 0.71 0.71 0.0 0 1 278.95 90.97
  L 277.97 93.68
  A 0.66 0.66 0.0 0 1 277.09 94.06
  Q 274.54 92.91 274.22 93.07
  A 0.20 0.20 0.0 0 1 273.96 92.80
  Z"
/>
<path fill="#5e6190" d="
  M 405.20 141.56
  Q 404.94 141.00 404.04 141.29
  L 400.46 140.45
  L 399.79 140.34
  L 352.71 129.50
  Q 352.35 129.26 352.01 129.41
  L 331.39 125.06
  Q 331.56 124.44 330.96 124.08
  A 0.90 0.88 19.4 0 1 330.54 123.23
  Q 330.59 122.78 331.18 121.94
  A 0.85 0.85 0.0 0 1 331.99 121.59
  Q 333.15 121.75 333.93 122.16
  A 0.29 0.28 25.4 0 0 334.33 122.02
  L 334.33 122.01
  A 0.27 0.27 0.0 0 0 334.15 121.61
  L 330.19 120.81
  A 1.21 1.19 -61.5 0 0 329.10 121.14
  L 328.55 121.68
  A 0.61 0.61 0.0 0 1 327.69 121.68
  L 327.30 121.29
  A 0.33 0.33 0.0 0 1 327.31 120.82
  Q 328.66 119.55 330.11 119.34
  A 0.77 0.75 88.1 0 0 330.74 118.65
  L 331.21 112.71
  A 0.80 0.72 -32.6 0 1 331.29 112.42
  L 341.46 90.54
  Q 347.99 89.71 355.16 91.78
  Q 370.96 96.33 386.93 100.18
  Q 399.56 103.22 409.30 105.98
  Q 420.40 109.12 431.59 112.04
  Q 440.03 114.25 488.97 127.24
  Q 497.09 129.40 507.43 132.62
  A 1.32 1.32 0.0 0 1 508.25 134.39
  Q 507.39 136.41 506.23 138.49
  Q 501.16 147.60 492.87 160.25
  A 1.88 1.87 -66.9 0 1 490.87 161.06
  L 405.20 141.56
  Z
  M 381.99 114.21
  L 380.20 116.74
  A 0.06 0.05 49.7 0 0 380.20 116.81
  L 380.40 117.01
  A 0.42 0.42 0.0 0 0 381.01 116.99
  Q 381.80 116.10 382.29 114.36
  A 0.17 0.17 0.0 0 0 381.99 114.21
  Z
  M 430.42 116.24
  Q 429.20 115.58 428.89 115.57
  A 0.72 0.72 0.0 0 0 428.43 116.86
  Q 429.58 117.77 430.50 116.76
  A 0.34 0.33 -54.5 0 0 430.42 116.24
  Z
  M 429.0724 118.7726
  A 0.27 0.27 0.0 0 0 428.9564 118.4088
  L 428.7431 118.2987
  A 0.27 0.27 0.0 0 0 428.3793 118.4148
  L 423.4076 128.0474
  A 0.27 0.27 0.0 0 0 423.5236 128.4112
  L 423.7369 128.5213
  A 0.27 0.27 0.0 0 0 424.1007 128.4052
  L 429.0724 118.7726
  Z
  M 380.0982 118.6510
  A 0.26 0.26 0.0 0 0 379.9804 118.3027
  L 379.8549 118.2406
  A 0.26 0.26 0.0 0 0 379.5066 118.3585
  L 376.0418 125.3690
  A 0.26 0.26 0.0 0 0 376.1596 125.7173
  L 376.2851 125.7794
  A 0.26 0.26 0.0 0 0 376.6334 125.6615
  L 380.0982 118.6510
  Z
  M 468.61 128.80
  Q 469.01 129.12 470.66 127.40
  Q 471.29 126.73 470.66 126.23
  Q 470.03 125.73 469.52 126.49
  Q 468.20 128.48 468.61 128.80
  Z
  M 431.12 130.60
  Q 429.75 131.17 428.83 132.35
  A 0.21 0.20 6.4 0 0 429.08 132.66
  Q 432.29 131.16 433.67 128.23
  A 0.22 0.22 0.0 0 0 433.63 127.99
  L 433.39 127.76
  A 0.05 0.04 -52.2 0 0 433.32 127.77
  L 431.79 130.05
  A 1.46 1.45 -84.2 0 1 431.12 130.60
  Z
  M 423.6320 129.3250
  A 0.26 0.26 0.0 0 0 423.5282 128.9723
  L 423.3526 128.8765
  A 0.26 0.26 0.0 0 0 422.9999 128.9804
  L 419.4480 135.4950
  A 0.26 0.26 0.0 0 0 419.5518 135.8477
  L 419.7274 135.9435
  A 0.26 0.26 0.0 0 0 420.0801 135.8396
  L 423.6320 129.3250
  Z
  M 411.73 136.93
  A 0.28 0.28 0.0 0 0 411.68 137.48
  Q 414.78 138.40 414.87 135.25
  A 0.08 0.07 0.0 0 0 414.79 135.18
  L 414.50 135.18
  A 0.40 0.40 0.0 0 0 414.10 135.58
  L 414.10 136.25
  A 0.78 0.77 -82.5 0 1 413.13 137.00
  Q 412.47 136.83 411.73 136.93
  Z
  M 463.50 138.99
  A 0.23 0.21 9.2 0 0 463.35 139.09
  L 459.64 145.52
  A 0.15 0.15 0.0 0 0 459.66 145.69
  L 460.11 146.19
  A 0.30 0.29 -59.8 0 0 460.62 146.05
  Q 461.45 142.55 464.01 139.47
  A 0.32 0.31 -74.2 0 0 463.72 138.95
  L 463.50 138.99
  Z
  M 417.1975 140.1708
  A 1.43 0.37 -65.3 0 0 416.2639 141.3154
  A 1.43 0.37 -65.3 0 0 416.0025 142.7692
  A 1.43 0.37 -65.3 0 0 416.9361 141.6246
  A 1.43 0.37 -65.3 0 0 417.1975 140.1708
  Z
  M 494.34 147.10
  Q 494.74 146.07 495.58 145.89
  C 496.79 145.63 496.79 144.71 497.82 144.06
  A 0.33 0.33 0.0 0 0 497.88 143.54
  L 497.83 143.49
  A 0.24 0.23 -45.8 0 0 497.49 143.50
  Q 496.25 144.73 494.55 146.00
  Q 493.94 146.46 493.95 147.03
  A 0.20 0.20 0.0 0 0 494.34 147.10
  Z
  M 499.7504 145.4002
  A 2.65 0.47 -58.1 0 0 497.9510 147.4016
  A 2.65 0.47 -58.1 0 0 496.9496 149.8998
  A 2.65 0.47 -58.1 0 0 498.7490 147.8984
  A 2.65 0.47 -58.1 0 0 499.7504 145.4002
  Z"
/>
<path fill="#010101" d="
  M 190.96 91.46
  L 190.03 91.38
  Q 190.53 91.33 190.96 91.46
  Z"
/>
<path fill="#525254" d="
  M 265.56 95.79
  Q 265.43 95.57 265.30 95.34
  L 271.31 91.24
  A 0.75 0.75 0.0 0 1 272.44 91.62
  L 272.67 92.29
  A 0.42 0.41 87.1 0 1 272.19 92.83
  L 271.34 92.63
  A 1.36 1.33 -54.0 0 0 270.34 92.80
  L 265.56 95.79
  Z"
/>
<path fill="#caced2" d="
  M 336.84 92.99
  L 330.25 97.82
  A 0.28 0.28 0.0 0 1 329.81 97.58
  Q 329.87 96.64 330.75 96.05
  L 336.84 92.99
  Z"
/>
<path fill="#5e6190" d="
  M 317.31 95.76
  Q 317.77 95.97 318.20 96.21
  A 0.33 0.32 -46.0 0 1 318.21 96.78
  Q 317.60 97.12 316.84 96.77
  Q 316.08 96.41 315.96 95.72
  A 0.33 0.32 -83.6 0 1 316.40 95.36
  Q 316.86 95.54 317.31 95.76
  Z"
/>
<path fill="#caced2" d="
  M 265.30 95.34
  Q 265.43 95.57 265.56 95.79
  Q 263.53 98.15 260.61 99.70
  Q 260.33 99.85 260.21 100.18
  L 259.46 100.22
  Q 259.38 99.71 259.53 99.84
  L 265.30 95.34
  Z"
/>
<path fill="#5e6190" d="
  M 329.75 99.14
  Q 329.76 99.16 329.64 102.43
  A 0.41 0.41 0.0 0 1 328.82 102.49
  Q 328.58 101.12 329.36 99.14
  A 0.21 0.21 0.0 0 1 329.75 99.14
  Z"
/>
<path fill="#caced2" d="
  M 253.82 99.95
  Q 252.53 102.45 253.20 103.61
  Q 252.53 103.98 251.54 104.08
  Q 251.59 101.80 252.56 99.48
  A 0.72 0.71 -50.3 0 1 253.81 99.36
  Q 253.90 99.51 253.82 99.95
  Z"
/>
<path fill="#525254" d="
  M 259.53 99.84
  Q 259.38 99.71 259.46 100.22
  Q 259.01 100.67 258.37 100.70
  Q 258.74 100.12 259.53 99.84
  Z"
/>
<path fill="#525254" d="
  M 260.61 99.70
  L 260.71 100.18
  L 260.21 100.18
  Q 260.33 99.85 260.61 99.70
  Z"
/>
<path fill="#caced2" d="
  M 246.24 103.76
  L 243.29 103.24
  Q 243.28 101.90 243.99 101.55
  A 2.35 2.35 0.0 0 1 246.92 102.30
  Q 247.24 102.76 246.24 103.76
  Z"
/>
<path fill="#5e6190" d="
  M 300.47 105.43
  Q 300.29 105.06 300.83 104.49
  A 0.61 0.57 -38.7 0 1 301.78 104.56
  Q 302.28 105.47 302.20 105.64
  A 1.04 0.90 47.7 0 1 300.47 105.43
  Z"
/>
<path fill="#525254" d="
  M 381.99 114.21
  A 0.17 0.17 0.0 0 1 382.29 114.36
  Q 381.80 116.10 381.01 116.99
  A 0.42 0.42 0.0 0 1 380.40 117.01
  L 380.20 116.81
  A 0.06 0.05 49.7 0 1 380.20 116.74
  L 381.99 114.21
  Z"
/>
<path fill="#5e6190" d="
  M 317.26 116.91
  Q 316.21 116.81 315.69 116.44
  A 0.79 0.74 -23.7 0 1 316.27 115.08
  Q 317.01 115.14 317.62 116.39
  A 0.36 0.36 0.0 0 1 317.26 116.91
  Z"
/>
<path fill="#010101" d="
  M 298.29 115.86
  Q 298.29 115.80 298.29 115.73
  Q 298.83 115.04 300.28 115.27
  A 0.37 0.37 0.0 0 1 300.29 116.00
  Q 299.42 116.16 298.29 115.86
  Z"
/>
<path fill="#caced2" d="
  M 430.42 116.24
  A 0.34 0.33 -54.5 0 1 430.50 116.76
  Q 429.58 117.77 428.43 116.86
  A 0.72 0.72 0.0 0 1 428.89 115.57
  Q 429.20 115.58 430.42 116.24
  Z"
/>
<path fill="#5e6190" d="
  M 298.29 115.73
  Q 298.29 115.80 298.29 115.86
  Q 297.88 116.30 297.20 116.17
  Q 297.28 115.70 297.05 115.91
  L 298.29 115.73
  Z"
/>
<rect fill="#525254" x="-0.39" y="-5.69" transform="translate(426.24,123.41) rotate(27.3)" width="0.78" height="11.38" rx="0.27"/>
<rect fill="#525254" x="-0.33" y="-4.17" transform="translate(378.07,122.01) rotate(26.3)" width="0.66" height="8.34" rx="0.26"/>
<path fill="#caced2" d="
  M 309.71 121.71
  Q 310.06 122.78 311.24 122.59
  A 1.37 1.36 -34.6 0 1 312.14 122.75
  L 313.71 123.67
  A 1.34 1.31 -28.4 0 0 314.34 123.85
  L 319.30 124.09
  A 0.36 0.36 0.0 0 1 319.60 124.62
  Q 319.23 125.28 319.40 125.99
  A 0.41 0.40 0.1 0 1 318.91 126.47
  L 304.09 123.05
  A 0.27 0.27 0.0 0 0 303.77 123.25
  L 302.16 130.18
  A 0.66 0.66 0.0 0 1 301.44 130.69
  L 301.10 130.65
  A 0.37 0.37 0.0 0 1 300.77 130.24
  L 301.61 122.91
  A 0.41 0.40 -80.4 0 0 301.30 122.47
  L 292.31 120.39
  A 0.73 0.73 0.0 0 1 291.75 119.59
  L 291.78 119.28
  A 0.57 0.56 12.0 0 1 292.51 118.81
  C 294.35 119.37 296.25 119.29 298.08 119.94
  Q 300.13 120.68 301.93 120.60
  A 2.11 2.02 53.8 0 1 302.88 120.77
  C 304.79 121.60 306.75 121.11 308.87 121.10
  A 0.87 0.86 -8.9 0 1 309.71 121.71
  Z"
/>
<ellipse fill="#5e6190" cx="0.00" cy="0.00" transform="translate(318.74,120.42) rotate(-32.3)" rx="0.62" ry="0.45"/>
<path fill="#caced2" d="
  M 296.49 126.68
  Q 295.08 127.86 294.10 129.40
  Q 293.85 129.79 293.60 129.85
  Q 293.30 129.92 292.88 129.82
  Q 291.98 129.86 290.90 131.48
  A 0.45 0.42 68.5 0 1 290.13 131.11
  Q 290.19 130.73 290.05 130.61
  A 0.58 0.57 54.1 0 0 289.53 130.52
  Q 289.02 130.69 288.71 130.63
  A 0.43 0.43 0.0 0 1 288.43 130.00
  L 289.19 128.71
  A 0.85 0.81 57.7 0 0 289.29 128.21
  Q 288.90 125.47 289.78 123.80
  A 0.48 0.48 0.0 0 0 289.62 123.18
  Q 289.61 123.18 289.40 123.16
  A 0.25 0.24 -86.4 0 1 289.18 122.90
  Q 289.21 122.51 289.81 122.05
  A 0.37 0.37 0.0 0 1 290.30 122.61
  L 290.09 122.81
  A 0.75 0.74 -30.2 0 0 289.90 123.51
  L 291.32 129.10
  A 0.09 0.08 -15.6 0 0 291.43 129.16
  L 291.73 129.06
  A 0.24 0.24 0.0 0 0 291.88 128.77
  Q 290.88 125.42 291.21 122.32
  A 1.23 1.22 -80.2 0 1 292.71 121.26
  L 297.68 122.40
  A 0.46 0.46 0.0 0 1 298.00 123.02
  L 296.49 126.68
  Z"
/>
<path fill="#010101" d="
  M 316.52 121.78
  Q 317.57 121.89 317.46 122.64
  A 0.37 0.37 0.0 0 1 316.79 122.79
  Q 316.54 122.41 316.52 121.78
  Z"
/>
<path fill="#caced2" d="
  M 327.75 128.71
  Q 326.44 129.33 327.09 129.45
  L 324.54 127.56
  A 0.05 0.04 -20.5 0 1 324.58 127.48
  Q 325.62 127.65 326.02 127.39
  Q 326.86 126.85 325.89 126.14
  Q 325.22 125.64 323.94 125.86
  Q 323.78 124.19 325.18 123.95
  A 1.06 1.05 5.0 0 0 325.97 123.29
  Q 326.00 123.23 326.01 123.20
  A 0.26 0.25 48.9 0 1 326.50 123.24
  L 326.55 123.59
  A 0.60 0.59 -0.5 0 0 327.10 124.12
  L 329.26 124.25
  A 0.68 0.68 0.0 0 1 329.87 125.08
  L 329.64 126.09
  A 0.88 0.88 0.0 0 1 328.50 126.73
  Q 327.48 126.40 327.02 126.70
  Q 326.48 127.05 326.91 127.78
  Q 327.22 128.31 327.75 128.71
  Z"
/>
<path fill="#caced2" d="
  M 323.94 125.86
  Q 323.96 126.14 323.82 126.42
  Q 323.69 126.70 323.43 126.81
  Q 322.25 127.30 322.42 128.34
  A 0.28 0.28 0.0 0 1 321.96 128.59
  C 320.98 127.69 321.25 126.12 321.57 124.29
  Q 321.74 123.34 322.96 123.33
  A 0.30 0.30 0.0 0 1 323.23 123.77
  Q 322.49 125.22 323.94 125.86
  Z"
/>
<path fill="#525254" d="
  M 276.82 126.79
  Q 276.50 127.16 276.02 127.17
  A 0.65 0.63 -15.0 0 1 275.45 126.86
  Q 274.18 124.66 274.27 124.55
  Q 274.36 124.44 276.71 125.42
  A 0.65 0.63 -82.5 0 1 277.10 125.95
  Q 277.15 126.42 276.82 126.79
  Z"
/>
<path fill="#525254" d="
  M 284.13 135.26
  L 280.55 134.43
  A 0.66 0.65 13.3 0 1 280.06 133.65
  L 280.22 132.96
  A 0.79 0.78 28.7 0 0 280.00 132.22
  Q 278.88 131.16 276.38 130.89
  A 1.18 1.18 0.0 0 1 276.13 128.60
  L 281.53 126.76
  A 1.21 1.00 -69.0 0 0 281.76 126.63
  Q 283.27 125.36 285.00 125.66
  A 0.65 0.64 2.8 0 1 285.55 126.26
  Q 285.87 130.92 284.76 134.89
  A 0.53 0.53 0.0 0 1 284.13 135.26
  Z"
/>
<path fill="#caced2" d="
  M 470.66 126.23
  Q 471.29 126.73 470.66 127.40
  Q 469.01 129.12 468.61 128.80
  Q 468.20 128.48 469.52 126.49
  Q 470.03 125.73 470.66 126.23
  Z"
/>
<path fill="#5e6190" d="
  M 296.49 126.68
  Q 296.92 131.57 295.97 135.84
  Q 294.49 134.61 292.57 135.04
  Q 292.37 132.76 293.21 130.50
  A 0.46 0.46 0.0 0 0 293.09 130.00
  Q 293.00 129.92 292.88 129.82
  Q 293.30 129.92 293.60 129.85
  Q 293.85 129.79 294.10 129.40
  Q 295.08 127.86 296.49 126.68
  Z"
/>
<path fill="#caced2" d="
  M 431.79 130.05
  L 433.32 127.77
  A 0.05 0.04 -52.2 0 1 433.39 127.76
  L 433.63 127.99
  A 0.22 0.22 0.0 0 1 433.67 128.23
  Q 432.29 131.16 429.08 132.66
  A 0.21 0.20 6.4 0 1 428.83 132.35
  Q 429.75 131.17 431.12 130.60
  A 1.46 1.45 -84.2 0 0 431.79 130.05
  Z"
/>
<rect fill="#010101" x="-0.36" y="-3.97" transform="translate(421.54,132.41) rotate(28.6)" width="0.72" height="7.94" rx="0.26"/>
<path fill="#010101" d="
  M 352.71 129.50
  Q 352.31 129.34 352.01 129.41
  Q 352.35 129.26 352.71 129.50
  Z"
/>
<path fill="#525254" d="
  M 319.15 136.78
  Q 320.64 138.33 319.81 139.18
  Q 312.86 136.75 306.29 132.92
  A 0.48 0.48 0.0 0 1 306.64 132.04
  Q 314.43 133.75 319.15 136.78
  Z"
/>
<path fill="#caced2" d="
  M 302.58 137.63
  Q 302.01 137.83 301.55 137.78
  L 300.07 136.96
  A 0.70 0.61 -72.1 0 1 299.78 136.28
  Q 299.79 136.18 300.00 135.91
  A 0.47 0.46 -64.6 0 0 299.74 135.17
  L 298.63 134.91
  A 0.40 0.40 0.0 0 1 298.78 134.13
  Q 302.73 134.76 302.58 137.63
  Z"
/>
<path fill="#caced2" d="
  M 295.97 135.84
  L 295.56 136.88
  Q 294.11 136.10 292.35 136.24
  Q 292.26 135.78 292.57 135.04
  Q 294.49 134.61 295.97 135.84
  Z"
/>
<path fill="#525254" d="
  M 411.73 136.93
  Q 412.47 136.83 413.13 137.00
  A 0.78 0.77 -82.5 0 0 414.10 136.25
  L 414.10 135.58
  A 0.40 0.40 0.0 0 1 414.50 135.18
  L 414.79 135.18
  A 0.08 0.07 -0.0 0 1 414.87 135.25
  Q 414.78 138.40 411.68 137.48
  A 0.28 0.28 0.0 0 1 411.73 136.93
  Z"
/>
<path fill="#525254" d="
  M 283.51 138.10
  Q 282.44 140.13 282.48 141.84
  A 1.74 1.67 -30.3 0 1 282.21 142.79
  L 280.87 144.89
  Q 279.51 145.57 278.56 144.73
  C 277.52 143.81 278.04 142.32 278.47 141.21
  Q 278.74 142.02 279.24 141.71
  Q 280.52 140.94 279.98 140.36
  L 281.05 140.13
  A 0.83 0.83 0.0 0 0 281.68 139.55
  Q 282.05 138.37 283.51 138.10
  Z"
/>
<path fill="#525254" d="
  M 463.50 138.99
  L 463.72 138.95
  A 0.32 0.31 -74.2 0 1 464.01 139.47
  Q 461.45 142.55 460.62 146.05
  A 0.30 0.29 -59.8 0 1 460.11 146.19
  L 459.66 145.69
  A 0.15 0.15 0.0 0 1 459.64 145.52
  L 463.35 139.09
  A 0.23 0.21 9.2 0 1 463.50 138.99
  Z"
/>
<path fill="#5e6190" d="
  M 279.98 140.36
  Q 280.52 140.94 279.24 141.71
  Q 278.74 142.02 278.47 141.21
  Q 278.97 140.13 279.98 140.36
  Z"
/>
<path fill="#010101" d="
  M 400.46 140.45
  L 399.79 140.34
  L 400.46 140.45
  Z"
/>
<ellipse fill="#525254" cx="0.00" cy="0.00" transform="translate(416.60,141.47) rotate(-65.3)" rx="1.43" ry="0.37"/>
<path fill="#010101" d="
  M 405.20 141.56
  L 404.04 141.29
  Q 404.94 141.00 405.20 141.56
  Z"
/>
<path fill="#525254" d="
  M 493.95 147.03
  Q 493.94 146.46 494.55 146.00
  Q 496.25 144.73 497.49 143.50
  A 0.24 0.23 -45.8 0 1 497.83 143.49
  L 497.88 143.54
  A 0.33 0.33 0.0 0 1 497.82 144.06
  C 496.79 144.71 496.79 145.63 495.58 145.89
  Q 494.74 146.07 494.34 147.10
  A 0.20 0.20 0.0 0 1 493.95 147.03
  Z"
/>
<ellipse fill="#525254" cx="0.00" cy="0.00" transform="translate(498.35,147.65) rotate(-58.1)" rx="2.65" ry="0.47"/>
<path fill="#5e6190" d="
  M 276.80 150.09
  L 275.80 149.69
  L 276.04 148.87
  A 0.49 0.49 0.0 0 1 276.87 148.67
  Q 277.66 149.54 276.80 150.09
  Z"
/>
<path fill="#5e6190" d="
  M 285.42 148.84
  L 286.13 149.34
  A 0.34 0.34 0.0 0 1 286.01 149.94
  L 284.22 150.36
  Q 282.44 149.83 281.17 150.43
  L 278.47 150.40
  Q 278.72 149.55 279.50 149.27
  Q 280.99 148.74 281.54 149.10
  Q 283.55 150.43 285.42 148.84
  Z"
/>
<path fill="#525254" d="
  M 284.22 150.36
  L 281.17 150.43
  Q 282.44 149.83 284.22 150.36
  Z"
/>
<path fill="#010101" d="
  M 23.85 163.83
  L 23.29 163.77
  A 0.24 0.24 0.0 0 1 23.19 163.32
  Q 23.48 163.14 23.98 163.38
  A 0.24 0.24 0.0 0 1 23.85 163.83
  Z"
/>
</svg>
