<?xml version="1.0" encoding="UTF-8" standalone="no"?>
<svg xmlns="http://www.w3.org/2000/svg" version="1.2" baseProfile="tiny" viewBox="0.00 0.00 512.00 391.00" width="512.00" height="391.00">
<path fill="#6d6c67" d="
  M 30.84 0.00
  L 167.81 13.15
  A 1.75 1.73 82.4 0 1 169.28 14.29
  L 190.29 71.41
  A 1.96 1.96 0.0 0 1 188.39 74.05
  L 180.60 73.81
  A 0.71 0.71 0.0 0 0 179.87 74.52
  L 179.88 74.82
  A 0.35 0.35 0.0 0 0 180.22 75.16
  L 198.03 75.76
  A 1.41 1.39 -8.7 0 1 199.29 76.67
  L 210.46 107.05
  A 1.18 1.15 -84.7 0 0 210.94 107.64
  Q 212.70 108.73 213.09 110.83
  Q 212.74 111.24 211.77 111.14
  A 0.52 0.52 0.0 0 0 211.21 111.75
  Q 211.34 112.46 211.87 113.03
  A 1.13 1.11 -65.8 0 1 212.16 113.81
  L 212.07 116.39
  A 0.56 0.55 53.8 0 0 213.16 116.56
  Q 214.45 111.89 217.10 111.82
  L 222.82 111.42
  A 1.39 1.37 15.9 0 0 223.81 110.88
  L 224.37 110.16
  A 1.40 1.39 -76.1 0 1 225.27 109.61
  C 227.17 109.27 228.15 110.53 228.53 112.43
  Q 228.84 113.91 229.73 116.62
  A 1.08 1.07 86.2 0 0 230.54 117.33
  Q 232.82 117.78 235.19 117.09
  A 1.04 0.92 -48.6 0 1 235.43 117.06
  L 241.37 117.07
  A 0.62 0.62 0.0 0 0 242.00 116.49
  Q 242.43 109.47 236.70 109.41
  Q 242.24 108.81 247.96 110.81
  A 0.78 0.77 6.3 0 1 248.47 111.44
  L 249.71 121.22
  A 0.29 0.29 0.0 0 0 250.01 121.48
  L 250.30 121.47
  A 0.37 0.37 0.0 0 0 250.67 121.11
  L 250.99 111.73
  A 0.40 0.40 0.0 0 1 251.40 111.34
  L 256.59 111.58
  A 0.48 0.47 4.0 0 1 257.05 112.10
  L 256.22 121.05
  A 0.42 0.42 0.0 0 1 255.78 121.43
  L 254.81 121.39
  A 1.36 1.35 -86.0 0 0 253.40 122.62
  L 253.04 126.52
  A 1.15 1.14 2.0 0 0 254.21 127.77
  L 269.40 127.38
  A 1.05 0.93 48.4 0 1 269.74 127.42
  Q 270.76 127.70 273.38 128.20
  Q 273.43 128.20 273.60 128.35
  Q 273.76 128.49 273.78 128.62
  A 0.51 0.51 0.0 0 0 274.17 129.01
  Q 276.58 129.48 280.10 128.86
  Q 280.14 128.86 280.19 128.86
  L 293.71 128.30
  A 0.52 0.51 80.8 0 1 294.23 128.68
  Q 294.27 128.81 294.29 128.99
  A 0.15 0.15 0.0 0 0 294.56 129.05
  Q 294.59 129.00 294.63 128.75
  Q 294.65 128.51 294.49 128.28
  Q 294.17 127.84 294.19 127.25
  Q 294.49 120.35 294.92 115.23
  Q 295.03 113.88 295.86 113.94
  A 0.40 0.39 -85.9 0 0 296.29 113.56
  L 296.40 110.38
  A 1.18 1.14 -31.8 0 1 296.54 109.83
  Q 297.53 107.89 296.01 106.96
  A 0.26 0.25 42.7 0 1 295.99 106.54
  Q 296.16 106.41 296.17 106.38
  A 0.38 0.38 0.0 0 0 295.83 105.88
  Q 278.88 105.00 261.69 103.80
  C 257.92 103.54 252.92 104.18 249.95 102.98
  A 0.12 0.12 0.0 0 1 249.93 102.76
  Q 250.07 102.67 250.10 102.62
  A 0.25 0.25 0.0 0 0 249.88 102.24
  Q 239.57 102.18 228.66 99.50
  Q 227.78 99.28 227.24 98.44
  Q 227.91 98.58 228.42 98.52
  A 0.67 0.66 -3.1 0 0 228.99 97.89
  L 229.21 91.45
  A 0.85 0.85 0.0 0 1 230.18 90.63
  L 235.77 91.44
  A 0.89 0.89 0.0 0 0 236.79 90.51
  Q 236.75 89.68 237.07 89.02
  Q 237.34 88.47 238.33 88.47
  Q 240.45 88.47 243.85 88.79
  A 0.53 0.53 0.0 0 1 244.31 89.48
  C 243.80 91.14 244.27 92.18 246.18 92.29
  Q 247.80 92.38 254.09 93.26
  A 0.81 0.81 0.0 0 0 254.99 92.63
  L 255.69 89.45
  A 0.54 0.54 0.0 0 1 256.29 89.03
  L 269.91 91.00
  A 0.76 0.75 -5.2 0 0 270.74 90.01
  Q 270.41 89.04 270.91 88.22
  A 1.49 1.48 47.6 0 0 270.97 86.78
  Q 270.89 86.62 270.87 86.57
  A 0.57 0.57 0.0 0 1 271.31 85.75
  Q 274.51 85.36 275.00 87.81
  A 0.71 0.71 0.0 0 0 275.83 88.37
  Q 276.80 88.18 277.74 86.75
  A 0.76 0.76 0.0 0 1 279.12 87.04
  L 279.82 90.89
  A 0.78 0.78 0.0 0 0 280.56 91.53
  L 284.06 91.65
  A 1.79 1.76 18.6 0 0 285.56 90.92
  Q 286.73 89.31 288.08 89.45
  A 0.63 0.62 -81.5 0 0 288.76 88.94
  Q 288.83 88.55 289.10 88.57
  A 0.99 0.96 64.4 0 1 289.61 88.76
  L 290.37 89.36
  A 0.74 0.74 0.0 0 0 290.69 89.52
  Q 291.48 89.72 291.83 89.03
  A 3.74 3.72 -73.6 0 1 295.53 87.00
  Q 296.27 87.08 299.22 87.61
  A 4.08 3.97 -42.8 0 0 300.45 87.64
  Q 305.59 86.98 312.57 88.15
  Q 315.45 88.64 318.86 87.92
  A 1.71 1.57 -47.6 0 1 319.30 87.88
  L 331.79 88.45
  A 1.29 1.20 -24.6 0 1 332.42 88.66
  Q 333.59 89.45 334.14 90.37
  A 0.71 0.70 60.1 0 0 335.07 90.63
  Q 336.07 90.09 336.83 90.51
  Q 337.47 90.87 337.80 90.39
  Q 338.19 89.82 338.46 89.30
  A 0.67 0.66 -37.1 0 1 339.70 89.47
  L 340.57 93.57
  A 0.47 0.47 0.0 0 0 341.44 93.71
  L 344.17 88.98
  A 1.30 1.28 -75.2 0 1 345.27 88.33
  L 351.57 88.20
  A 0.38 0.37 -6.9 0 0 351.93 87.75
  L 351.84 87.31
  A 0.31 0.30 82.0 0 0 351.53 87.07
  Q 347.49 87.16 344.83 86.79
  A 3.77 3.68 45.7 0 0 343.97 86.77
  Q 337.99 87.27 332.22 86.93
  C 326.38 86.59 322.73 86.71 317.29 86.45
  Q 295.89 85.42 294.75 85.31
  Q 290.50 84.89 283.00 84.54
  Q 270.93 83.99 254.91 81.90
  A 0.12 0.07 14.5 0 1 254.79 81.78
  Q 254.84 81.73 254.85 81.68
  A 0.29 0.26 -77.7 0 1 255.17 81.45
  C 257.29 81.91 258.94 80.79 261.05 81.22
  Q 264.01 81.82 272.86 81.44
  Q 274.25 81.38 285.43 81.76
  C 291.06 81.94 294.07 81.78 298.75 82.32
  Q 301.53 82.64 306.96 82.03
  A 1.50 1.50 0.0 0 1 307.86 82.22
  L 308.33 82.49
  A 1.02 0.92 58.4 0 0 308.77 82.62
  C 326.11 83.35 339.02 83.66 353.32 86.03
  A 0.13 0.13 0.0 0 1 353.37 86.27
  Q 353.27 86.33 353.26 86.35
  A 2.22 2.13 67.3 0 0 352.89 87.31
  L 352.33 91.58
  A 0.85 0.84 5.2 0 0 353.14 92.54
  L 357.14 92.73
  A 1.04 1.00 -27.7 0 1 357.62 92.87
  Q 358.83 93.60 360.02 93.12
  A 0.64 0.63 -25.5 0 0 360.34 92.23
  L 356.02 84.29
  A 0.94 0.92 50.0 0 1 356.10 83.29
  L 358.10 80.67
  A 1.12 1.12 0.0 0 1 359.03 80.23
  L 364.27 80.49
  Q 366.38 80.48 365.84 79.44
  A 0.45 0.44 -10.7 0 0 365.48 79.20
  L 360.58 78.74
  Q 357.55 69.97 352.37 62.68
  A 0.21 0.21 0.0 0 0 351.99 62.81
  L 352.01 63.74
  L 338.02 37.98
  Q 338.55 36.17 336.77 35.72
  C 337.04 32.86 335.75 31.86 334.57 29.85
  Q 335.04 29.04 336.25 29.16
  Q 372.13 32.58 407.84 35.95
  A 1.92 1.90 76.7 0 1 409.28 36.85
  L 433.45 76.05
  Q 428.75 70.16 424.88 63.73
  Q 418.20 52.64 418.15 52.57
  Q 412.74 44.08 409.08 37.99
  A 2.53 2.52 77.5 0 0 407.17 36.77
  L 394.84 35.49
  A 0.36 0.36 0.0 0 0 394.72 35.49
  Q 392.91 35.80 390.38 35.54
  Q 355.71 32.00 351.99 31.65
  Q 345.35 31.02 337.58 30.44
  A 0.60 0.60 0.0 0 0 337.01 31.33
  L 361.14 75.73
  A 1.17 1.17 0.0 0 0 362.13 76.34
  L 435.23 78.67
  Q 436.38 79.61 435.38 80.65
  A 1.53 1.50 -68.3 0 1 434.31 81.12
  Q 433.38 81.15 430.81 81.14
  Q 430.22 81.13 429.61 80.46
  Q 428.88 79.65 428.12 79.63
  A 0.37 0.37 0.0 0 0 427.75 80.11
  Q 428.38 82.20 431.48 82.27
  Q 434.88 82.36 447.94 82.56
  Q 449.37 82.58 450.06 83.68
  Q 450.81 84.86 451.66 84.45
  A 0.35 0.35 0.0 0 1 452.17 84.79
  Q 452.03 86.86 452.55 87.68
  Q 456.24 93.51 465.42 107.96
  Q 466.61 109.83 467.15 110.49
  C 468.73 112.41 469.61 114.53 471.17 116.99
  Q 483.40 136.22 484.99 138.71
  A 3.43 3.39 -88.6 0 0 486.09 139.88
  L 487.24 140.62
  A 0.83 0.83 0.0 0 1 487.56 141.61
  C 486.55 144.22 483.21 147.23 480.41 145.17
  A 0.78 0.78 0.0 0 0 479.57 145.11
  L 478.14 145.89
  A 0.68 0.67 59.9 0 0 477.89 146.84
  L 512.00 201.49
  Q 512.00 201.76 512.00 202.02
  Q 507.01 204.20 500.71 204.85
  A 1.68 1.61 -34.5 0 1 499.84 204.71
  C 498.22 203.96 497.54 205.40 496.03 205.67
  Q 477.82 208.88 477.71 208.94
  A 1.02 1.00 47.8 0 1 476.62 208.88
  Q 475.51 208.06 474.60 208.86
  Q 473.68 209.68 472.37 209.90
  Q 466.56 210.88 452.24 213.47
  A 1.54 1.53 58.7 0 1 451.03 213.17
  Q 451.00 213.14 450.97 213.10
  A 0.99 0.98 -41.8 0 0 449.71 213.03
  L 448.57 213.89
  A 2.00 1.93 -67.3 0 1 447.78 214.23
  L 435.47 216.45
  A 0.81 0.80 -18.7 0 1 434.62 216.04
  L 401.10 154.38
  A 0.90 0.89 50.0 0 1 401.18 153.40
  L 402.05 152.26
  A 0.25 0.25 0.0 0 0 401.86 151.86
  Q 400.21 151.78 399.59 150.93
  A 0.70 0.70 0.0 0 0 398.57 150.80
  Q 395.36 153.46 391.88 151.74
  A 0.38 0.37 15.8 0 0 391.34 152.04
  L 390.89 156.94
  A 0.53 0.53 0.0 0 0 391.43 157.52
  L 398.87 157.37
  A 0.58 0.58 0.0 0 1 399.46 157.92
  L 400.39 174.46
  L 400.41 176.21
  L 400.60 180.28
  A 0.47 0.46 -1.8 0 1 400.14 180.76
  L 389.13 180.99
  A 0.36 0.36 0.0 0 0 388.77 181.32
  L 388.52 184.02
  A 0.40 0.40 0.0 0 0 388.88 184.46
  L 393.20 184.95
  Q 392.54 184.82 392.09 184.99
  A 0.38 0.38 0.0 0 0 392.16 185.72
  L 399.45 187.21
  A 0.05 0.01 31.7 0 1 399.48 187.22
  Q 399.89 187.57 399.86 187.96
  L 395.04 205.41
  A 0.64 0.64 0.0 0 1 394.32 205.88
  L 387.01 204.82
  A 0.47 0.46 6.6 0 0 386.48 205.23
  L 384.42 227.54
  A 1.18 1.16 -76.1 0 0 385.13 228.73
  L 393.69 232.40
  A 0.95 0.94 -5.3 0 1 394.12 232.75
  Q 395.48 234.79 395.76 234.93
  A 4.54 4.45 67.3 0 0 396.40 235.20
  Q 397.71 235.63 397.94 236.61
  A 0.42 0.41 88.6 0 1 397.46 237.12
  L 390.77 235.94
  Q 390.99 235.48 390.29 235.50
  L 381.16 231.88
  A 2.16 2.14 -8.4 0 1 380.26 231.22
  Q 377.26 227.51 371.83 225.79
  A 0.81 0.80 -20.2 0 0 371.16 227.24
  Q 373.25 228.55 375.03 229.02
  A 1.05 1.03 -4.2 0 1 375.71 229.60
  Q 376.66 231.75 376.45 233.28
  A 1.89 1.89 0.0 0 0 376.59 234.32
  Q 378.02 237.60 380.87 240.56
  A 0.47 0.47 0.0 0 0 381.66 240.38
  Q 382.62 237.39 381.33 234.45
  A 0.40 0.40 0.0 0 1 381.74 233.89
  Q 383.38 234.10 383.75 235.35
  A 0.97 0.94 -50.3 0 1 383.78 235.76
  L 382.06 250.32
  Q 381.39 250.15 380.77 250.22
  Q 379.64 248.63 377.95 248.29
  A 0.49 0.49 0.0 0 0 377.62 249.20
  Q 378.40 249.62 378.88 250.35
  A 0.42 0.42 0.0 0 1 378.56 251.00
  Q 375.54 251.25 376.33 252.52
  Q 377.84 253.73 377.30 254.83
  A 1.81 1.68 9.3 0 0 379.17 257.24
  Q 379.48 257.21 379.95 256.40
  A 0.93 0.93 0.0 0 1 380.62 255.96
  L 385.94 255.29
  A 1.43 1.42 17.1 0 0 386.81 254.83
  Q 387.84 253.69 387.62 252.67
  Q 388.80 252.53 390.07 252.96
  A 0.96 0.95 -87.3 0 1 390.69 253.65
  Q 391.23 255.94 389.12 257.07
  A 0.34 0.34 0.0 0 0 389.35 257.70
  L 396.40 256.20
  A 1.73 1.73 0.0 0 1 398.47 258.20
  Q 396.93 266.65 397.47 271.04
  A 1.20 0.95 -49.8 0 1 397.46 271.37
  L 396.64 276.31
  A 0.85 0.85 0.0 0 0 397.15 277.23
  L 398.33 277.73
  A 1.35 1.35 0.0 0 1 398.08 280.29
  L 394.27 281.10
  A 2.06 2.05 -0.1 0 0 392.69 282.67
  L 392.54 283.34
  A 0.79 0.79 0.0 0 0 393.60 284.25
  Q 396.99 282.93 398.09 284.16
  A 1.64 1.62 24.4 0 1 398.49 285.20
  Q 398.51 286.10 396.74 286.69
  A 0.71 0.70 -15.3 0 0 396.27 287.50
  Q 396.32 287.72 397.43 289.36
  C 398.85 291.46 397.57 292.88 397.39 294.94
  Q 396.96 299.85 396.42 305.25
  A 5.92 5.90 -28.5 0 1 395.76 307.46
  C 394.91 309.06 393.48 310.32 392.45 312.40
  Q 392.06 313.18 390.83 314.06
  Q 386.43 317.21 384.43 318.17
  A 0.95 0.94 81.1 0 0 383.91 318.89
  L 377.52 363.04
  A 1.13 1.12 79.4 0 1 376.97 363.85
  Q 371.22 367.18 363.98 372.52
  Q 361.61 374.26 359.29 375.71
  C 355.76 377.92 352.64 380.32 348.47 382.64
  Q 345.32 384.39 342.20 386.12
  L 338.71 387.65
  L 335.03 389.83
  A 1.01 0.98 38.7 0 1 334.18 389.91
  Q 332.42 389.25 331.76 391.00
  L 330.99 391.00
  Q 329.84 389.36 329.31 387.27
  A 1.39 1.38 4.6 0 0 328.52 386.35
  L 328.05 386.15
  A 0.67 0.67 0.0 0 1 327.75 385.16
  Q 328.26 384.38 329.55 383.01
  Q 330.14 382.39 330.16 382.21
  Q 330.20 381.81 330.26 381.69
  A 1.90 1.89 83.5 0 1 330.86 380.93
  C 332.94 379.37 335.10 378.20 337.11 376.38
  Q 345.80 368.51 348.55 365.92
  A 1.74 1.64 -11.6 0 0 348.96 365.34
  L 353.65 354.58
  A 2.57 2.20 67.1 0 0 353.79 354.14
  L 354.35 351.21
  L 354.38 350.21
  L 354.85 345.29
  Q 355.30 343.58 355.01 341.79
  L 356.06 328.80
  A 0.49 0.48 85.6 0 0 355.47 328.29
  Q 340.31 331.84 325.80 333.74
  Q 312.61 335.46 305.43 335.83
  Q 292.93 336.47 285.00 335.19
  Q 278.13 334.08 268.53 332.55
  Q 259.41 331.08 250.58 328.80
  Q 250.98 322.94 248.28 316.98
  A 1.35 1.34 -9.4 0 0 247.20 316.21
  C 238.34 315.27 231.16 311.75 224.18 305.34
  Q 220.52 301.99 213.75 296.45
  Q 210.05 293.43 205.02 286.94
  A 0.28 0.28 0.0 0 0 204.52 287.07
  L 203.05 296.61
  Q 198.43 291.45 196.62 284.97
  A 2.30 2.22 -49.7 0 1 196.56 284.03
  Q 196.72 282.92 196.66 282.51
  Q 196.08 278.42 196.31 276.49
  Q 197.35 267.85 197.87 263.22
  A 0.82 0.81 13.3 0 0 197.34 262.37
  Q 196.89 262.21 196.02 262.66
  A 1.13 1.11 -44.5 0 1 194.97 262.66
  Q 193.57 261.94 191.73 263.02
  A 1.11 1.10 -48.4 0 1 190.72 263.08
  Q 190.05 262.78 186.55 262.51
  Q 186.00 262.47 185.96 262.65
  Q 185.91 262.86 185.86 262.92
  A 0.32 0.32 0.0 0 1 185.37 262.94
  Q 184.52 261.99 182.27 262.78
  Q 180.12 263.54 177.00 263.38
  Q 172.15 263.14 163.79 264.61
  Q 129.80 270.61 124.74 271.54
  A 0.88 0.87 72.9 0 1 123.79 271.03
  Q 123.75 270.93 123.72 270.89
  A 1.00 0.99 69.3 0 0 122.65 270.40
  L 118.60 271.23
  A 1.72 1.65 -75.3 0 0 117.65 271.81
  L 117.09 272.51
  A 1.45 1.39 -74.6 0 1 116.23 273.02
  L 86.43 278.39
  A 0.69 0.69 0.0 0 1 85.63 277.86
  Q 84.43 272.09 83.55 268.29
  Q 80.71 256.04 65.06 180.77
  C 64.73 179.21 64.87 177.94 66.35 177.25
  A 0.29 0.29 0.0 0 0 66.20 176.70
  L 47.53 178.33
  A 0.85 0.84 -7.3 0 1 46.62 177.63
  L 46.52 177.09
  A 0.60 0.59 82.1 0 0 45.88 176.60
  L 40.89 177.03
  A 0.93 0.93 0.0 0 0 40.12 177.59
  L 39.84 178.24
  A 0.93 0.91 8.4 0 1 39.07 178.80
  L 29.68 179.62
  A 0.87 0.87 0.0 0 1 28.74 178.83
  L 28.43 175.26
  A 1.04 1.04 0.0 0 0 27.30 174.31
  L 24.51 174.55
  A 0.71 0.71 0.0 0 1 23.74 173.90
  L 23.45 170.53
  A 0.80 0.80 0.0 0 1 24.18 169.66
  L 26.61 169.45
  A 0.53 0.52 82.5 0 0 27.08 168.83
  L 25.05 157.57
  A 6.19 5.86 45.3 0 1 25.01 155.68
  Q 25.42 152.68 25.42 151.75
  Q 25.43 151.17 24.71 150.80
  Q 24.23 150.01 24.21 149.74
  Q 23.23 138.61 20.58 126.92
  C 20.07 124.63 20.26 122.24 19.71 120.21
  Q 19.09 117.96 18.88 116.79
  Q 16.54 103.80 16.46 103.51
  A 0.23 0.22 78.2 0 0 16.20 103.33
  L 16.19 103.33
  A 0.27 0.25 83.7 0 0 15.99 103.60
  L 16.23 106.48
  Q 14.93 102.11 15.29 96.50
  Q 15.36 95.49 14.35 94.76
  A 0.74 0.74 0.0 0 1 14.04 94.27
  L 10.76 76.09
  A 0.37 0.37 0.0 0 0 10.26 75.81
  L 7.90 76.67
  A 0.43 0.43 0.0 0 1 7.33 76.18
  Q 7.53 75.27 6.87 73.95
  A 0.72 0.72 0.0 0 1 7.26 72.95
  L 8.73 72.41
  A 0.62 0.61 65.1 0 1 9.48 72.69
  L 10.11 73.77
  A 0.53 0.53 0.0 0 0 11.09 73.46
  L 10.90 71.30
  A 0.84 0.83 -1.5 0 1 11.76 70.40
  L 56.23 71.90
  A 0.68 0.68 0.0 0 0 56.83 70.86
  Q 55.97 69.52 55.99 68.39
  A 0.56 0.54 -1.4 0 0 55.39 67.83
  L 54.95 67.87
  A 0.43 0.43 0.0 0 0 54.55 68.29
  L 54.51 69.38
  A 0.74 0.74 0.0 0 1 53.74 70.10
  L 42.59 69.73
  A 0.99 0.99 0.0 0 1 41.66 68.95
  L 27.23 0.00
  L 30.84 0.00
  Z
  M 43.48 65.29
  A 0.31 0.31 0.0 0 0 43.77 65.54
  L 187.91 70.40
  A 0.31 0.31 0.0 0 0 188.21 69.99
  L 167.83 14.56
  A 0.31 0.31 0.0 0 0 167.57 14.36
  L 30.30 1.63
  A 0.31 0.31 0.0 0 0 29.97 2.00
  L 43.48 65.29
  Z
  M 212.88 130.45
  Q 212.97 130.47 217.03 129.64
  A 0.46 0.46 0.0 0 0 217.37 129.03
  L 216.96 127.92
  A 0.73 0.72 73.4 0 0 216.11 127.46
  Q 213.13 128.16 211.91 127.14
  A 0.69 0.68 -44.6 0 0 211.04 127.14
  C 208.44 129.27 206.68 127.03 205.43 124.72
  A 0.87 0.87 0.0 0 0 204.54 124.28
  C 200.11 124.95 195.49 124.59 191.10 124.80
  C 190.25 124.84 189.22 124.38 188.72 124.43
  A 2.96 2.72 30.6 0 0 187.97 124.59
  Q 185.67 125.42 183.76 124.86
  A 0.45 0.45 0.0 0 1 183.88 123.97
  L 192.92 123.79
  A 0.57 0.57 0.0 0 0 193.43 122.99
  Q 192.14 120.01 190.77 115.73
  Q 190.36 114.45 189.95 114.31
  A 0.50 0.50 0.0 0 1 189.68 113.59
  Q 190.07 112.92 189.01 110.87
  Q 188.71 110.30 188.29 110.43
  Q 187.65 110.63 187.39 110.95
  A 0.50 0.50 0.0 0 1 186.90 111.13
  L 183.70 110.42
  A 1.31 1.30 40.1 0 0 182.96 110.48
  Q 180.72 111.38 178.79 110.51
  A 1.39 1.35 -41.7 0 0 177.78 110.47
  Q 175.29 111.34 173.07 110.48
  A 1.33 1.29 -45.8 0 0 172.05 110.51
  Q 169.51 111.64 167.12 110.46
  A 0.79 0.78 -47.9 0 0 166.36 110.50
  Q 164.02 111.92 161.68 110.46
  A 0.23 0.23 0.0 0 1 161.80 110.03
  L 198.57 109.29
  A 1.13 1.13 0.0 0 0 199.66 107.97
  Q 199.58 107.52 198.78 106.82
  A 0.48 0.47 42.7 0 0 198.13 106.84
  Q 198.10 106.87 198.00 106.98
  A 1.23 1.20 -67.6 0 1 197.13 107.35
  Q 185.91 107.42 178.49 107.28
  Q 175.80 107.23 174.47 107.58
  C 172.99 107.96 172.13 106.84 170.59 107.37
  Q 169.39 107.80 167.65 107.58
  Q 165.62 107.32 162.51 107.66
  C 161.58 107.77 161.23 107.46 160.66 107.27
  A 2.20 2.16 -42.6 0 0 159.40 107.23
  Q 156.77 107.94 154.75 107.27
  A 1.45 1.45 0.0 0 0 153.87 107.27
  Q 151.25 108.14 148.55 107.27
  A 0.64 0.60 -39.6 0 0 148.24 107.25
  Q 144.32 108.11 142.88 107.28
  A 0.97 0.95 -43.2 0 0 141.96 107.26
  Q 140.23 108.14 137.48 107.50
  Q 136.12 107.19 135.08 107.49
  Q 133.32 108.01 131.12 107.39
  A 0.45 0.45 0.0 0 1 130.80 106.86
  L 130.80 106.84
  A 0.34 0.33 8.0 0 1 131.15 106.58
  Q 135.52 106.82 139.46 106.56
  C 140.71 106.48 141.60 106.96 142.59 106.75
  Q 143.54 106.55 144.92 106.57
  Q 154.09 106.68 157.75 106.57
  Q 158.60 106.55 159.29 106.78
  A 1.49 1.49 0.0 0 0 160.27 106.78
  Q 161.88 106.19 164.00 106.57
  C 166.08 106.93 168.45 105.90 170.96 106.70
  A 1.39 1.39 0.0 0 0 171.89 106.67
  C 173.22 106.17 175.07 106.62 176.33 106.61
  Q 191.11 106.50 207.90 106.18
  A 0.50 0.50 0.0 0 0 208.39 105.60
  Q 208.24 104.70 207.36 103.55
  A 1.18 1.14 29.7 0 1 207.13 102.75
  Q 207.21 101.76 206.31 100.52
  A 0.62 0.62 0.0 0 0 205.46 100.38
  Q 204.64 100.97 203.01 100.52
  C 201.02 99.98 199.03 100.69 197.02 100.24
  A 2.16 2.12 -45.6 0 0 196.02 100.26
  Q 193.68 100.86 191.92 100.46
  A 1.04 0.92 48.6 0 0 191.68 100.43
  L 174.45 100.35
  A 2.61 2.33 -48.2 0 0 173.91 100.41
  Q 171.73 100.89 169.70 100.37
  A 2.20 2.18 -45.2 0 0 168.52 100.38
  Q 166.02 101.10 163.90 100.23
  A 1.13 1.10 40.9 0 0 162.92 100.29
  C 161.17 101.26 158.23 99.76 156.09 100.38
  Q 154.56 100.83 153.05 100.46
  C 151.06 99.97 149.01 101.10 146.73 100.27
  A 1.94 1.93 49.3 0 0 145.71 100.19
  Q 142.82 100.72 140.50 100.22
  A 1.61 1.53 -46.5 0 0 139.72 100.26
  Q 137.25 101.04 134.67 100.23
  A 1.45 1.43 -45.3 0 0 133.75 100.24
  Q 131.29 101.08 129.20 100.46
  Q 128.08 100.13 126.82 100.46
  Q 124.71 101.03 122.50 100.26
  A 1.27 1.24 -43.7 0 0 121.67 100.25
  Q 118.82 101.22 116.51 100.33
  A 0.49 0.49 0.0 0 1 116.68 99.38
  L 120.36 99.30
  A 0.88 0.84 -25.0 0 1 120.89 99.48
  Q 121.65 100.06 122.54 99.67
  Q 124.51 98.82 127.45 99.69
  A 1.56 1.54 43.3 0 0 128.36 99.67
  Q 130.87 98.84 133.53 99.72
  A 1.58 1.57 -42.9 0 0 134.40 99.75
  Q 137.23 98.98 139.52 99.73
  A 1.51 1.46 -41.5 0 0 140.38 99.77
  Q 142.52 99.25 145.27 99.77
  A 2.53 2.46 43.0 0 0 146.26 99.75
  C 149.19 99.11 151.55 99.72 154.34 99.36
  Q 155.01 99.28 156.97 99.76
  A 2.10 2.06 -45.5 0 0 158.03 99.74
  Q 160.52 99.06 162.65 99.62
  A 1.88 1.83 -42.9 0 0 163.50 99.64
  Q 164.83 99.36 165.50 99.37
  Q 177.87 99.60 188.44 99.61
  Q 194.70 99.62 205.47 99.60
  A 0.48 0.48 0.0 0 0 205.90 98.92
  Q 204.37 95.70 203.17 91.84
  Q 202.89 90.92 202.44 90.44
  A 1.09 1.08 -65.2 0 1 202.16 89.66
  Q 202.24 88.28 201.39 87.48
  A 0.86 0.86 0.0 0 1 201.11 86.78
  Q 201.21 85.36 200.18 84.36
  A 0.33 0.28 -84.8 0 1 200.09 84.23
  L 198.12 78.35
  A 0.91 0.89 81.5 0 0 197.30 77.73
  Q 182.77 77.30 179.13 77.36
  C 178.14 77.37 177.85 76.53 176.56 77.03
  C 174.32 77.91 172.68 76.47 170.39 77.04
  A 2.90 2.88 45.2 0 1 168.95 77.03
  Q 167.65 76.70 165.01 76.69
  Q 157.66 76.65 150.97 76.29
  C 148.77 76.17 146.66 76.87 144.76 76.00
  A 1.58 1.55 46.8 0 0 143.57 75.95
  Q 141.61 76.67 139.85 76.01
  C 138.09 75.35 137.09 76.27 135.28 75.97
  Q 133.52 75.69 131.75 75.73
  Q 126.96 75.84 120.61 75.44
  A 3.65 3.02 36.4 0 0 119.87 75.48
  Q 117.52 75.91 115.21 75.31
  A 1.90 1.90 0.0 0 0 114.31 75.31
  Q 111.41 76.07 108.99 75.06
  A 1.28 1.24 -42.8 0 0 108.07 75.04
  Q 105.79 75.85 103.71 75.18
  Q 102.02 74.64 100.75 75.00
  C 98.55 75.63 96.62 74.29 94.42 74.86
  C 91.96 75.49 90.58 74.25 88.25 74.74
  Q 85.85 75.24 83.99 74.53
  A 2.30 2.27 -41.0 0 0 82.70 74.45
  Q 79.63 75.19 77.29 74.17
  A 1.54 1.52 -42.7 0 0 76.17 74.13
  Q 74.18 74.83 71.37 74.12
  Q 69.91 73.75 68.73 74.17
  C 66.06 75.13 64.48 73.33 62.00 73.84
  Q 59.99 74.26 57.39 73.66
  A 3.39 3.32 45.6 0 0 56.01 73.63
  Q 52.72 74.21 50.52 73.52
  A 2.30 2.24 48.1 0 0 49.47 73.45
  Q 46.94 73.90 44.86 73.52
  C 42.00 73.00 39.26 74.13 36.34 73.16
  A 2.09 2.04 -42.8 0 0 35.10 73.13
  Q 32.46 73.89 29.88 73.17
  Q 28.37 72.75 26.63 73.17
  Q 24.63 73.66 22.27 72.84
  A 2.91 2.90 49.0 0 0 20.72 72.73
  Q 17.81 73.32 14.65 72.61
  A 0.47 0.46 -88.4 0 0 14.09 73.15
  L 31.84 171.66
  A 0.75 0.75 0.0 0 0 32.63 172.27
  L 212.97 159.89
  A 0.18 0.17 15.0 0 0 213.12 159.81
  Q 213.27 159.57 213.29 159.54
  A 0.98 0.97 -62.7 0 1 214.38 159.19
  C 215.41 159.54 216.58 159.74 217.63 159.66
  Q 224.88 159.08 227.97 159.15
  A 0.34 0.34 0.0 0 0 228.30 158.69
  L 226.11 152.72
  A 0.48 0.48 0.0 0 0 225.28 152.60
  L 225.00 152.98
  A 0.92 0.92 0.0 0 1 223.80 153.21
  Q 223.08 152.77 222.15 152.88
  A 0.46 0.46 0.0 0 1 221.63 152.45
  L 221.62 152.39
  A 0.54 0.54 0.0 0 1 222.04 151.83
  Q 223.69 151.47 225.09 151.67
  A 0.43 0.43 0.0 0 0 225.55 151.09
  L 225.00 149.58
  A 0.63 0.62 -18.1 0 0 224.24 149.20
  C 222.20 149.79 219.93 149.44 215.01 149.16
  A 2.56 2.36 -50.4 0 0 214.06 149.29
  Q 211.37 150.22 208.52 149.38
  A 0.69 0.67 39.4 0 0 208.04 149.42
  Q 207.90 149.49 207.77 149.84
  A 0.65 0.63 9.9 0 1 207.15 150.26
  L 202.47 150.10
  A 0.49 0.41 -50.3 0 0 202.31 150.13
  Q 200.66 150.70 199.03 150.44
  C 196.65 150.06 193.94 151.12 191.75 150.19
  A 0.66 0.66 0.0 0 0 190.91 150.48
  Q 190.86 150.58 190.52 150.92
  Q 190.32 151.12 189.48 150.95
  Q 188.88 150.83 187.94 151.17
  A 0.87 0.87 0.0 0 0 187.37 151.96
  L 187.35 152.69
  A 0.24 0.24 0.0 0 1 186.90 152.78
  Q 185.96 150.87 185.17 151.17
  Q 182.70 152.14 180.36 151.41
  A 1.27 1.26 43.2 0 0 179.57 151.43
  Q 176.80 152.43 174.61 151.27
  A 0.39 0.39 0.0 0 1 174.81 150.53
  Q 179.12 150.69 180.34 150.50
  Q 182.18 150.23 184.71 150.44
  Q 186.63 150.60 188.96 149.85
  A 1.94 1.87 -46.1 0 1 190.04 149.81
  C 191.63 150.21 192.56 149.48 194.18 149.51
  Q 196.93 149.56 203.27 149.21
  A 2.20 2.04 33.1 0 0 203.85 149.11
  Q 206.02 148.46 207.94 148.85
  A 2.13 2.11 -50.1 0 0 209.13 148.74
  Q 211.65 147.71 213.57 148.87
  A 0.71 0.70 -56.8 0 0 214.51 148.67
  Q 214.76 148.31 214.80 147.76
  A 0.44 0.44 0.0 0 1 215.33 147.35
  Q 216.32 147.54 216.40 148.00
  A 0.71 0.70 85.5 0 0 217.08 148.59
  L 219.51 148.63
  A 1.50 0.27 -29.4 0 0 220.45 148.30
  Q 221.49 147.79 223.85 148.39
  A 0.35 0.35 0.0 0 0 224.27 147.93
  L 222.05 141.89
  A 0.66 0.66 0.0 0 0 221.20 141.50
  L 220.71 141.68
  A 1.10 1.05 32.1 0 1 220.42 141.74
  L 212.65 142.15
  A 0.40 0.40 0.0 0 1 212.32 141.50
  Q 212.43 141.37 212.88 141.41
  A 0.91 0.91 0.0 0 0 213.67 141.09
  Q 214.30 140.32 215.10 140.35
  Q 215.58 140.36 215.70 140.82
  Q 215.87 141.50 216.11 141.57
  Q 216.53 141.71 216.91 141.56
  Q 217.11 141.48 217.24 140.87
  A 0.70 0.70 0.0 0 1 217.79 140.32
  Q 219.99 139.91 221.00 140.64
  A 0.30 0.30 0.0 0 0 221.48 140.36
  Q 221.30 139.06 220.76 138.53
  A 0.97 0.96 -26.5 0 0 219.94 138.26
  Q 217.96 138.58 216.47 138.02
  A 0.88 0.88 0.0 0 1 216.59 136.33
  Q 218.67 135.89 219.80 137.46
  A 0.30 0.30 0.0 0 0 220.33 137.18
  L 218.08 131.06
  A 0.55 0.54 -26.0 0 0 217.28 130.79
  Q 215.44 131.90 213.37 130.84
  A 0.86 0.86 0.0 0 0 212.53 130.87
  Q 211.32 131.61 207.86 131.29
  A 0.20 0.20 0.0 0 1 207.68 131.09
  L 207.69 130.80
  A 0.46 0.45 -88.7 0 1 208.14 130.36
  Q 212.37 130.37 212.88 130.45
  Z
  M 399.41 106.11
  Q 400.04 106.11 400.06 106.11
  A 0.65 0.64 -87.2 0 1 400.65 106.77
  L 400.62 109.10
  A 1.50 1.50 0.0 0 1 399.07 110.58
  L 380.86 109.96
  A 0.59 0.58 75.8 0 0 380.34 110.84
  L 381.59 113.01
  A 0.88 0.87 43.3 0 1 381.62 113.84
  Q 381.22 114.62 381.64 115.66
  A 0.81 0.79 82.0 0 0 382.27 116.15
  L 391.20 117.44
  A 0.46 0.46 0.0 0 1 391.58 117.96
  L 391.54 118.24
  A 0.07 0.06 -81.3 0 1 391.47 118.30
  L 386.11 118.12
  A 0.60 0.60 0.0 0 0 385.56 119.01
  L 385.92 119.67
  A 0.43 0.43 0.0 0 1 385.55 120.30
  L 381.07 120.46
  A 0.86 0.86 0.0 0 0 380.35 121.75
  L 381.87 124.39
  A 1.86 1.85 -15.3 0 0 383.49 125.31
  L 390.69 125.21
  A 0.98 0.97 82.2 0 1 391.66 125.95
  Q 391.71 126.12 391.58 126.61
  A 0.54 0.53 7.4 0 0 392.10 127.28
  Q 392.60 127.28 393.17 126.98
  A 0.89 0.89 0.0 0 1 393.88 126.91
  Q 395.30 127.37 396.77 126.95
  A 1.34 1.31 45.7 0 1 397.61 126.97
  Q 398.95 127.43 400.44 126.70
  A 1.64 1.53 -55.9 0 1 401.19 126.53
  Q 412.06 126.74 419.35 126.08
  Q 420.11 126.01 421.02 126.40
  Q 422.14 126.88 422.62 126.12
  A 0.47 0.46 15.2 0 1 422.99 125.91
  L 473.58 124.16
  A 0.25 0.24 -15.3 0 0 473.79 123.80
  Q 472.62 121.77 472.02 120.94
  Q 470.59 118.96 469.47 116.79
  Q 469.30 116.46 467.68 113.91
  Q 461.40 104.01 451.39 88.43
  Q 451.11 88.00 451.13 87.53
  Q 451.14 87.04 450.65 86.75
  A 1.12 1.10 7.7 0 1 450.13 86.08
  Q 449.58 84.17 448.30 84.16
  Q 435.54 84.06 402.05 83.05
  Q 368.53 82.03 361.03 81.91
  A 0.50 0.49 -13.6 0 0 360.58 82.64
  L 363.77 88.51
  A 1.61 1.61 0.0 0 0 365.14 89.36
  L 368.33 89.46
  A 0.38 0.37 34.9 0 0 368.52 89.43
  Q 369.98 88.78 370.71 89.43
  A 0.24 0.24 0.0 0 0 371.10 89.22
  Q 371.00 88.52 371.76 88.34
  A 0.80 0.77 -79.9 0 0 372.28 87.96
  C 373.54 85.77 375.35 86.28 377.47 86.15
  Q 384.19 85.74 389.48 87.56
  Q 389.82 87.68 390.05 88.11
  A 1.20 1.19 -5.7 0 0 390.81 88.73
  Q 393.30 89.39 394.94 91.71
  A 1.25 1.23 69.2 0 0 396.07 92.23
  Q 398.30 92.03 418.90 92.52
  Q 419.07 92.53 419.09 92.55
  Q 419.29 92.77 419.34 92.93
  A 0.28 0.27 82.9 0 1 419.07 93.28
  L 402.29 92.66
  A 1.77 1.56 37.3 0 0 401.88 92.69
  Q 399.18 93.19 397.04 92.62
  A 0.37 0.37 0.0 0 0 396.57 92.99
  L 396.74 97.88
  A 0.75 0.75 0.0 0 0 397.24 98.56
  Q 397.99 98.81 398.99 99.91
  A 0.33 0.33 0.0 0 1 398.68 100.46
  L 398.12 100.35
  A 0.27 0.27 0.0 0 0 397.92 100.84
  Q 397.97 100.87 398.36 100.91
  A 0.58 0.58 0.0 0 1 398.89 101.50
  Q 398.87 102.15 399.79 104.48
  Q 400.26 105.66 399.39 106.04
  Q 399.21 106.11 399.41 106.11
  Z
  M 394.63 132.88
  Q 394.13 132.81 393.69 132.93
  A 0.45 0.45 0.0 0 0 393.46 133.65
  Q 393.85 134.10 392.95 134.58
  A 0.48 0.48 0.0 0 0 393.18 135.49
  L 407.52 135.24
  A 0.20 0.17 -49.7 0 0 407.58 135.23
  Q 408.39 134.67 409.34 135.15
  A 0.39 0.39 0.0 0 1 409.18 135.89
  L 393.14 137.00
  A 0.49 0.48 -3.0 0 0 392.68 137.50
  Q 392.74 138.91 392.14 139.81
  A 0.05 0.05 0.0 0 0 392.18 139.89
  Q 392.46 139.91 392.55 139.98
  A 0.19 0.18 -51.5 0 1 392.58 140.26
  Q 391.74 141.07 393.15 142.90
  Q 394.28 144.36 395.28 146.63
  A 1.39 1.39 0.0 0 0 396.64 147.46
  L 484.83 141.40
  A 0.49 0.49 0.0 0 0 484.90 140.44
  Q 483.89 140.23 482.96 138.49
  Q 482.13 136.92 481.48 135.77
  Q 481.22 135.32 480.84 135.08
  A 1.33 1.31 9.2 0 1 480.27 134.30
  Q 480.03 133.36 478.92 132.35
  A 0.51 0.51 0.0 0 0 478.12 132.50
  Q 477.78 133.19 476.54 132.61
  A 0.85 0.82 -33.5 0 0 476.16 132.54
  L 463.89 132.91
  A 0.76 0.70 -55.4 0 0 463.58 132.98
  Q 462.73 133.38 461.81 132.83
  A 0.21 0.20 58.5 0 1 461.90 132.45
  L 476.88 131.42
  A 0.76 0.76 0.0 0 1 477.54 131.72
  Q 477.89 132.18 478.02 132.16
  A 0.58 0.58 0.0 0 0 478.45 131.30
  Q 475.69 126.37 474.53 125.07
  Q 474.02 124.50 473.40 124.83
  Q 472.99 125.06 472.17 125.07
  Q 453.93 125.47 442.37 126.00
  Q 420.45 127.00 419.18 127.00
  C 413.63 126.98 408.51 127.59 402.94 127.60
  Q 396.52 127.61 394.26 127.95
  Q 393.49 128.06 392.53 127.73
  A 0.76 0.75 82.0 0 0 391.67 128.88
  Q 391.93 129.24 392.82 129.70
  A 1.15 1.13 -31.4 0 0 393.33 129.82
  L 410.70 129.47
  A 0.79 0.75 -61.8 0 0 411.09 129.34
  Q 412.00 128.73 413.19 129.30
  A 0.12 0.12 0.0 0 1 413.13 129.53
  Q 412.67 129.49 412.26 130.01
  A 0.48 0.45 15.2 0 1 411.94 130.18
  Q 410.50 130.31 400.99 130.59
  Q 399.76 130.63 399.47 130.71
  A 2.53 1.62 -39.7 0 1 398.50 130.83
  Q 395.97 130.51 393.72 131.05
  A 0.92 0.92 0.0 0 0 393.93 132.86
  Q 394.08 132.86 394.63 132.88
  Z
  M 381.1682 127.9675
  A 0.47 0.47 0.0 0 0 380.7348 127.4636
  L 380.0966 127.4156
  A 0.47 0.47 0.0 0 0 379.5927 127.8490
  L 379.1518 133.7125
  A 0.47 0.47 0.0 0 0 379.5852 134.2164
  L 380.2234 134.2644
  A 0.47 0.47 0.0 0 0 380.7273 133.8310
  L 381.1682 127.9675
  Z
  M 344.42 142.18
  Q 344.25 141.91 343.99 141.84
  Q 339.98 140.81 337.26 140.84
  A 1.53 1.52 -3.4 0 0 335.75 142.52
  Q 335.91 144.08 334.69 144.39
  A 0.55 0.55 0.0 0 0 334.27 144.91
  L 333.67 157.98
  A 0.87 0.87 0.0 0 0 334.28 158.85
  L 342.65 161.43
  A 0.62 0.61 -76.5 0 0 343.44 160.94
  Q 343.74 159.10 344.49 158.17
  A 0.60 0.59 -27.0 0 1 345.55 158.51
  L 345.60 159.43
  A 0.03 0.02 -24.8 0 0 345.65 159.44
  Q 345.66 159.43 345.67 159.42
  A 0.17 0.12 -26.0 0 0 345.73 159.31
  Q 346.62 153.52 346.73 147.38
  Q 346.75 146.49 346.61 146.15
  Q 346.32 145.40 346.77 145.01
  A 0.88 0.74 42.9 0 0 346.62 143.78
  Q 345.73 143.05 345.58 142.05
  A 0.22 0.21 -34.8 0 0 345.18 141.98
  Q 345.10 142.12 345.09 142.14
  A 0.39 0.39 0.0 0 1 344.42 142.18
  Z
  M 326.48 159.79
  Q 326.56 159.51 326.57 159.49
  A 0.50 0.50 0.0 0 1 327.31 159.51
  L 327.74 160.01
  A 0.92 0.92 0.0 0 0 328.74 160.27
  L 330.84 159.49
  A 1.07 1.05 -7.5 0 0 331.54 158.59
  L 332.70 146.01
  A 4.33 4.32 16.8 0 0 330.43 141.79
  L 330.25 141.69
  A 1.98 1.97 -74.0 0 0 327.41 143.27
  Q 326.41 153.25 325.87 157.50
  Q 325.75 158.47 326.24 159.80
  A 0.13 0.13 0.0 0 0 326.48 159.79
  Z
  M 239.65 202.70
  Q 239.29 203.03 239.11 202.96
  A 0.19 0.19 0.0 0 0 238.87 203.20
  L 247.20 226.02
  A 0.80 0.79 78.7 0 0 247.99 226.55
  L 257.32 226.04
  A 1.18 1.03 -55.3 0 0 257.75 225.93
  Q 259.74 224.94 263.39 224.63
  A 1.61 1.59 -35.0 0 1 264.21 224.77
  Q 265.91 225.53 267.51 226.64
  Q 268.24 227.14 268.57 226.46
  A 0.19 0.19 0.0 0 1 268.93 226.51
  L 269.10 227.43
  A 0.03 0.03 0.0 0 0 269.15 227.45
  Q 269.16 227.43 269.17 227.42
  A 0.13 0.01 -84.8 0 0 269.19 227.31
  L 272.14 162.52
  A 0.48 0.47 -0.5 0 0 271.63 162.02
  L 270.61 162.09
  A 0.77 0.70 -36.2 0 1 270.34 162.06
  L 249.58 155.66
  A 0.45 0.45 0.0 0 1 249.26 155.26
  Q 249.22 154.64 248.80 154.99
  Q 248.60 155.16 247.76 154.89
  Q 241.37 152.82 232.24 149.77
  A 0.72 0.71 -37.7 0 1 232.42 148.38
  L 241.93 147.73
  A 2.81 2.80 51.1 0 1 242.95 147.84
  L 248.79 149.64
  A 0.43 0.43 0.0 0 0 249.35 149.20
  L 249.20 147.05
  A 0.56 0.55 -0.5 0 0 248.66 146.53
  L 232.15 145.97
  A 0.48 0.48 0.0 0 0 231.81 146.81
  Q 232.07 147.05 232.10 147.13
  A 0.78 0.77 72.4 0 1 231.56 148.18
  Q 230.37 148.45 228.89 148.43
  A 0.62 0.62 0.0 0 0 228.26 149.03
  L 228.12 153.07
  A 1.89 1.81 -55.8 0 0 228.24 153.78
  L 230.53 160.02
  A 1.14 1.14 0.0 0 1 230.43 161.03
  L 227.95 165.01
  A 1.18 1.08 65.0 0 0 227.79 165.52
  Q 227.31 172.16 227.82 173.41
  Q 229.41 177.27 229.41 177.50
  A 0.15 0.14 60.7 0 0 229.68 177.58
  L 230.17 176.69
  A 1.14 1.06 -31.7 0 0 230.32 176.14
  L 230.38 168.55
  A 0.50 0.50 0.0 0 1 231.06 168.08
  L 267.14 181.81
  A 0.77 0.75 12.2 0 1 267.64 182.56
  L 267.05 195.45
  A 0.35 0.35 0.0 0 1 266.57 195.76
  L 232.56 181.22
  A 1.04 1.04 0.0 0 0 231.17 182.54
  L 231.94 184.66
  A 5.73 5.70 1.5 0 0 235.06 187.94
  L 266.33 201.30
  A 0.64 0.63 -77.6 0 1 266.72 201.92
  L 266.12 215.14
  A 0.30 0.30 0.0 0 1 265.69 215.39
  L 240.08 202.70
  A 0.48 0.46 43.7 0 0 239.65 202.70
  Z
  M 500.64 190.44
  Q 499.60 190.88 498.23 190.58
  A 1.30 1.27 -48.2 0 0 497.48 190.63
  Q 495.73 191.26 493.37 191.62
  Q 474.47 194.52 468.92 195.44
  Q 468.60 195.49 468.09 195.41
  Q 467.58 195.33 467.27 195.43
  Q 463.58 196.62 459.71 196.50
  A 2.37 2.36 34.7 0 0 458.71 196.68
  Q 456.68 197.52 454.95 197.34
  A 0.49 0.49 0.0 0 0 454.81 197.34
  L 430.58 201.37
  A 0.30 0.30 0.0 0 0 430.37 201.81
  L 430.89 202.77
  A 0.59 0.59 0.0 0 0 431.51 203.08
  L 499.32 192.49
  A 0.25 0.24 1.6 0 1 499.60 192.78
  L 499.52 193.22
  A 0.03 0.01 -67.5 0 1 499.50 193.24
  Q 492.03 194.72 484.73 195.47
  Q 480.66 195.89 475.77 196.82
  Q 468.09 198.29 466.84 198.39
  Q 463.27 198.69 462.57 199.17
  A 1.48 1.46 28.6 0 1 461.63 199.44
  Q 458.27 199.23 455.72 200.26
  A 2.80 2.75 36.6 0 1 454.41 200.44
  Q 453.32 200.31 449.93 200.93
  Q 446.35 201.58 432.61 203.70
  A 0.72 0.71 71.5 0 0 432.09 204.75
  L 434.96 210.03
  A 1.32 1.31 -25.2 0 0 436.61 210.62
  Q 437.51 210.25 439.58 210.34
  A 3.23 3.20 -56.8 0 0 441.12 210.01
  Q 442.09 209.52 446.46 209.18
  Q 448.86 209.00 455.07 207.65
  Q 456.16 207.42 465.02 206.12
  A 2.30 2.26 -64.9 0 0 465.93 205.78
  C 466.92 205.16 468.51 205.42 469.85 205.17
  Q 479.02 203.47 488.60 202.03
  A 0.26 0.26 0.0 0 1 488.89 202.25
  L 488.94 202.51
  A 0.49 0.49 0.0 0 1 488.52 203.08
  Q 481.17 204.15 473.73 205.44
  Q 466.93 206.63 464.03 207.30
  Q 462.37 207.68 453.07 208.64
  A 1.20 1.13 -68.1 0 0 452.40 208.95
  C 451.57 209.75 450.47 209.18 449.54 209.39
  Q 440.13 211.47 436.34 211.65
  A 0.42 0.41 74.5 0 0 436.00 212.26
  L 436.21 212.65
  A 1.34 1.33 70.6 0 0 437.60 213.32
  L 509.13 200.85
  A 0.51 0.51 0.0 0 0 509.11 199.84
  Q 504.16 199.23 500.15 200.90
  Q 498.55 201.56 497.29 201.09
  A 0.39 0.39 0.0 0 1 497.37 200.34
  C 499.47 200.04 501.03 199.93 503.39 199.29
  Q 505.19 198.81 507.39 199.05
  A 0.63 0.63 0.0 0 0 507.96 198.04
  Q 505.75 195.18 503.47 190.74
  Q 501.47 186.85 499.14 183.20
  Q 489.53 168.12 484.01 158.87
  Q 483.41 157.87 482.68 157.18
  A 1.96 1.73 -86.4 0 1 482.40 156.82
  L 477.66 148.54
  A 1.07 1.07 0.0 0 0 476.44 148.05
  C 473.43 148.94 470.42 148.67 467.49 148.97
  Q 449.90 150.74 430.21 151.77
  Q 427.52 151.91 422.82 152.47
  Q 419.61 152.86 414.86 153.18
  Q 409.12 153.83 404.77 153.79
  A 0.35 0.34 -14.2 0 0 404.46 154.30
  L 409.03 162.70
  A 0.74 0.73 -28.5 0 0 410.03 162.99
  L 410.49 162.74
  A 1.35 1.33 -47.5 0 1 411.65 162.68
  Q 412.42 163.00 413.07 162.64
  Q 413.59 162.35 414.91 162.32
  Q 419.97 162.20 422.19 161.67
  A 0.73 0.72 -38.7 0 1 422.67 161.72
  Q 423.63 162.14 424.48 161.48
  A 0.54 0.53 -40.7 0 1 425.19 161.53
  Q 425.62 161.97 426.07 161.49
  A 1.14 1.13 -64.0 0 1 427.07 161.14
  Q 429.64 161.50 432.52 160.73
  A 4.55 3.88 31.1 0 1 433.24 160.61
  Q 442.02 160.07 444.25 159.85
  Q 444.86 159.79 444.98 159.52
  A 0.07 0.05 -69.7 0 1 445.03 159.49
  L 455.19 159.06
  A 0.25 0.23 61.2 0 1 455.37 159.12
  L 455.59 159.29
  A 0.15 0.15 0.0 0 1 455.51 159.56
  L 452.21 159.78
  A 2.68 1.00 4.4 0 0 451.86 159.81
  L 438.77 160.66
  A 1.36 0.45 -50.2 0 0 438.01 161.13
  Q 437.84 161.29 437.52 161.09
  Q 437.29 160.94 436.53 161.09
  Q 432.48 161.86 429.94 161.76
  Q 425.93 161.60 422.41 162.74
  A 1.14 0.94 -50.7 0 1 422.21 162.78
  L 410.26 163.63
  A 0.47 0.46 74.0 0 0 409.89 164.31
  L 410.26 164.99
  A 0.54 0.53 74.1 0 0 410.74 165.26
  L 416.79 165.05
  A 0.72 0.68 -68.2 0 0 417.27 164.83
  Q 417.93 164.10 418.74 164.49
  A 1.21 1.16 53.3 0 0 419.34 164.59
  Q 425.17 163.95 439.33 162.61
  Q 442.69 162.30 443.34 162.36
  Q 446.31 162.67 450.97 161.41
  Q 451.24 161.33 458.84 161.32
  A 0.18 0.18 0.0 0 1 459.02 161.51
  L 459.02 161.52
  A 0.16 0.15 -86.3 0 1 458.86 161.67
  Q 453.79 161.51 450.34 162.34
  Q 447.97 162.92 445.48 162.41
  Q 444.25 162.16 442.59 163.11
  A 1.15 1.05 25.6 0 1 442.13 163.25
  L 434.14 163.95
  A 1.31 1.24 53.2 0 1 433.50 163.84
  Q 432.22 163.26 431.48 164.08
  A 0.81 0.81 0.0 0 1 430.96 164.34
  L 411.29 166.06
  A 0.22 0.22 0.0 0 0 411.11 166.38
  L 413.16 170.15
  A 0.54 0.53 -35.9 0 0 414.00 170.28
  L 414.23 170.06
  A 0.92 0.91 30.1 0 1 414.96 169.87
  Q 417.03 170.23 419.93 169.45
  A 0.40 0.34 -49.7 0 1 420.05 169.43
  L 427.04 169.21
  A 2.40 2.37 30.7 0 0 427.97 168.98
  Q 429.02 168.46 429.29 168.55
  A 0.52 0.52 0.0 0 1 429.13 169.57
  L 422.09 169.63
  A 0.49 0.47 20.9 0 0 421.74 169.78
  L 421.37 170.14
  A 0.66 0.66 0.0 0 1 420.96 170.33
  L 415.29 170.83
  A 0.76 0.74 60.9 0 1 414.75 170.67
  Q 414.13 170.21 413.82 170.49
  Q 413.44 170.83 413.73 171.35
  Q 422.79 187.58 429.69 200.54
  A 0.57 0.57 0.0 0 0 430.62 200.64
  Q 431.24 199.92 432.11 200.23
  A 1.20 1.18 37.9 0 0 433.16 200.11
  C 434.26 199.39 435.51 199.75 436.86 199.51
  Q 445.28 198.00 450.94 197.51
  Q 451.56 197.46 452.59 197.23
  Q 454.72 196.75 486.98 191.79
  Q 494.50 190.64 494.68 190.63
  Q 497.43 190.60 500.48 189.65
  Q 500.50 189.64 500.77 189.62
  A 0.45 0.44 12.7 0 1 501.20 190.29
  Q 501.11 190.44 501.08 190.41
  Q 500.50 189.92 500.53 190.08
  Q 500.55 190.20 500.66 190.29
  A 0.09 0.08 -38.1 0 1 500.64 190.44
  Z
  M 213.27 162.07
  L 206.10 162.56
  A 0.80 0.80 0.0 0 0 205.36 163.23
  Q 204.91 166.08 201.14 166.44
  Q 193.96 167.11 186.75 167.60
  Q 160.25 169.38 143.01 170.86
  Q 142.38 170.91 141.96 170.01
  A 0.84 0.83 -14.2 0 0 141.14 169.53
  L 137.77 169.76
  A 1.09 1.08 -72.5 0 0 136.99 170.17
  L 136.25 171.08
  A 1.33 1.31 17.1 0 1 135.31 171.57
  L 87.56 174.85
  A 0.41 0.40 -16.5 0 0 87.23 175.45
  L 87.51 175.93
  A 0.05 0.04 62.9 0 0 87.56 175.95
  Q 114.01 173.94 130.37 172.65
  C 133.91 172.37 138.47 171.80 140.85 171.72
  Q 143.95 171.62 148.16 171.32
  Q 175.56 169.38 185.87 168.47
  C 191.92 167.93 197.82 167.74 203.53 167.14
  Q 204.47 167.04 204.90 166.71
  Q 205.64 166.16 206.32 166.32
  A 0.47 0.47 0.0 0 0 206.88 165.74
  Q 206.82 165.52 206.29 165.11
  A 0.40 0.40 0.0 0 1 206.36 164.43
  C 207.17 164.06 208.48 164.02 209.85 163.99
  Q 210.70 163.97 210.99 164.79
  A 3.86 2.40 7.8 0 0 213.26 166.67
  Q 213.63 166.79 214.36 165.85
  A 0.30 0.30 0.0 0 0 214.10 165.36
  L 213.01 165.44
  A 1.05 1.04 -61.9 0 1 212.42 163.49
  L 213.51 162.86
  A 0.42 0.42 0.0 0 0 213.27 162.07
  Z
  M 249.68 238.67
  Q 250.16 237.75 248.98 236.30
  A 1.29 1.29 0.0 0 1 248.69 235.43
  Q 248.72 234.49 247.78 232.72
  A 0.40 0.40 0.0 0 0 247.09 232.69
  Q 246.45 233.70 244.79 233.15
  A 0.38 0.37 -61.4 0 1 244.62 232.56
  Q 245.39 231.58 246.53 231.88
  A 0.58 0.58 0.0 0 0 247.22 231.12
  L 236.83 202.86
  A 0.26 0.26 0.0 0 0 236.53 202.70
  Q 234.47 203.19 233.99 202.71
  A 0.76 0.71 -20.7 0 1 234.59 201.50
  Q 234.89 201.50 235.64 201.68
  A 0.52 0.52 0.0 0 0 236.28 201.13
  Q 236.22 200.33 235.49 199.59
  A 1.11 1.11 0.0 0 1 235.17 198.70
  Q 235.27 197.56 234.56 196.57
  A 0.75 0.75 0.0 0 0 233.69 196.30
  L 230.76 197.38
  A 0.26 0.26 0.0 0 1 230.41 197.18
  L 230.33 196.75
  A 0.41 0.41 0.0 0 0 229.74 196.45
  Q 228.04 197.30 225.96 196.70
  A 0.23 0.23 0.0 0 1 225.92 196.27
  Q 227.73 195.42 229.22 195.84
  A 1.26 1.26 0.0 0 0 230.16 195.74
  Q 232.08 194.74 233.69 195.49
  A 0.26 0.26 0.0 0 0 234.05 195.17
  L 231.09 187.12
  A 0.70 0.69 73.8 0 0 230.30 186.68
  L 227.77 187.22
  A 0.41 0.41 0.0 0 1 227.27 186.87
  Q 227.09 185.54 230.19 185.57
  A 0.26 0.26 0.0 0 0 230.44 185.22
  L 228.99 181.30
  A 1.13 1.13 0.0 0 0 227.54 180.63
  Q 225.76 181.30 224.57 180.61
  A 1.04 1.01 -39.6 0 0 223.66 180.54
  Q 220.03 181.93 214.52 181.44
  Q 213.60 181.36 213.03 181.97
  A 0.72 0.70 18.3 0 1 212.55 182.20
  L 145.58 188.05
  A 0.19 0.15 -52.0 0 0 145.50 188.07
  Q 143.48 189.00 141.06 188.46
  A 0.86 0.83 45.8 0 0 140.72 188.45
  L 136.63 189.17
  A 0.39 0.39 0.0 0 1 136.20 188.92
  L 135.92 188.17
  A 0.23 0.23 0.0 0 1 136.11 187.86
  L 201.78 182.29
  A 1.31 0.97 -21.5 0 0 201.96 182.26
  Q 206.17 181.14 210.58 181.40
  A 3.18 3.02 37.0 0 0 211.63 181.28
  Q 215.01 180.33 219.07 180.55
  A 6.58 6.57 -50.8 0 0 221.04 180.35
  Q 223.32 179.75 226.26 179.37
  Q 227.33 179.23 227.82 179.57
  A 0.28 0.28 0.0 0 0 228.25 179.30
  Q 228.05 178.04 227.59 177.75
  A 1.15 1.13 -36.3 0 0 226.64 177.61
  Q 224.69 178.19 223.47 177.59
  A 1.23 1.23 0.0 0 0 222.53 177.54
  Q 218.69 178.84 214.44 178.48
  A 5.53 5.46 -48.1 0 0 212.93 178.57
  Q 206.72 179.86 200.23 179.62
  A 4.18 3.84 37.1 0 0 199.29 179.71
  Q 195.00 180.71 191.90 180.61
  C 189.92 180.54 188.45 181.21 186.64 181.27
  Q 178.55 181.51 176.43 181.65
  A 3.64 3.60 -55.6 0 0 175.55 181.82
  C 173.45 182.52 172.28 181.92 170.65 182.25
  Q 168.71 182.64 168.33 182.67
  Q 157.46 183.55 157.25 183.63
  C 156.59 183.89 155.42 183.31 154.34 183.84
  C 152.19 184.89 150.83 183.79 148.89 184.38
  Q 147.55 184.80 145.01 184.29
  A 1.45 1.41 36.2 0 0 144.03 184.43
  Q 142.95 185.02 140.51 185.03
  A 0.27 0.27 0.0 0 1 140.26 184.66
  L 140.50 184.08
  A 0.04 0.03 -75.1 0 1 140.53 184.06
  L 163.32 182.33
  A 4.34 4.28 -55.7 0 0 164.28 182.14
  L 165.53 181.75
  A 4.32 4.24 36.1 0 1 166.76 181.57
  C 170.31 181.59 174.20 181.95 175.18 180.87
  A 1.22 1.22 0.0 0 1 176.15 180.47
  Q 183.19 180.83 186.65 180.10
  Q 191.31 179.10 194.97 179.44
  A 2.98 2.63 -42.2 0 0 195.68 179.43
  Q 204.81 178.18 208.54 178.43
  Q 210.31 178.55 211.06 177.87
  A 0.56 0.52 -65.3 0 1 211.43 177.72
  L 219.54 177.55
  A 0.56 0.26 19.9 0 0 219.65 177.54
  Q 223.43 176.27 226.60 176.50
  A 0.41 0.41 0.0 0 0 227.02 175.94
  L 224.21 168.28
  A 0.61 0.60 61.7 0 0 223.29 168.00
  L 222.77 168.38
  A 1.17 1.14 -55.2 0 1 221.84 168.56
  C 219.27 167.92 218.12 169.20 215.50 168.56
  A 1.76 1.70 40.7 0 0 214.47 168.62
  Q 213.10 169.14 211.05 168.87
  A 2.00 1.95 -52.3 0 0 210.06 169.01
  Q 208.40 169.73 206.43 169.30
  A 2.01 1.90 46.7 0 0 205.91 169.27
  L 149.77 173.76
  A 1.35 1.33 -81.2 0 0 148.62 174.61
  Q 148.46 175.01 148.46 175.60
  A 0.28 0.28 0.0 0 1 147.92 175.68
  Q 147.76 175.17 147.91 174.62
  A 0.75 0.74 -4.3 0 0 146.89 173.75
  Q 144.64 174.71 142.63 174.43
  Q 141.10 174.22 136.19 174.78
  C 130.51 175.43 122.61 175.63 119.24 176.02
  Q 111.61 176.90 103.35 177.13
  A 2.75 2.73 -54.7 0 0 102.55 177.27
  C 100.36 178.03 98.43 177.25 96.35 177.72
  C 93.87 178.27 92.54 177.21 90.34 178.24
  Q 89.02 178.86 86.48 178.32
  A 1.66 1.64 32.7 0 0 85.17 178.60
  Q 83.26 180.00 80.61 178.84
  A 1.27 1.25 -49.0 0 0 79.43 178.93
  C 77.71 180.01 74.72 179.11 72.65 179.52
  Q 70.19 180.02 68.91 179.72
  A 0.61 0.61 0.0 0 0 68.17 180.44
  L 87.97 273.14
  A 1.01 1.00 -10.8 0 0 89.12 273.92
  L 252.09 245.50
  A 0.42 0.42 0.0 0 0 252.41 244.94
  L 251.94 243.67
  A 0.59 0.58 71.9 0 0 251.24 243.31
  Q 248.97 243.94 247.17 243.59
  A 0.99 0.98 -58.3 0 0 246.39 243.78
  Q 245.38 244.56 243.92 244.11
  A 0.37 0.37 0.0 0 1 243.84 243.44
  L 244.77 242.88
  A 0.78 0.74 35.0 0 1 245.36 242.79
  Q 247.11 243.23 248.77 242.29
  C 249.53 241.86 249.85 242.09 250.73 242.30
  A 0.41 0.41 0.0 0 0 251.23 241.84
  Q 251.00 240.34 249.80 239.31
  A 0.52 0.51 -55.8 0 1 249.68 238.67
  Z
  M 29.05 174.18
  L 28.55 171.32
  A 0.20 0.20 0.0 0 0 28.16 171.33
  Q 28.06 172.06 28.21 173.14
  A 1.77 1.64 42.8 0 1 28.23 173.40
  Q 28.26 175.06 28.90 174.56
  A 0.41 0.39 -24.6 0 0 29.05 174.18
  Z
  M 379.21 183.76
  L 380.63 183.75
  A 0.34 0.34 0.0 0 0 380.78 183.11
  Q 380.54 182.94 379.16 183.51
  A 0.13 0.13 0.0 0 0 379.21 183.76
  Z
  M 358.7378 187.0434
  A 1.33 1.00 -3.3 0 0 357.3524 186.1217
  A 1.33 1.00 -3.3 0 0 356.0822 187.1966
  A 1.33 1.00 -3.3 0 0 357.4676 188.1183
  A 1.33 1.00 -3.3 0 0 358.7378 187.0434
  Z
  M 319.60 220.95
  L 321.60 222.75
  A 0.14 0.14 0.0 0 0 321.83 222.67
  C 322.16 220.74 322.08 219.53 323.12 217.56
  Q 324.37 215.19 324.04 211.99
  A 0.90 0.89 -18.0 0 1 324.48 211.14
  L 325.59 210.50
  A 0.50 0.50 0.0 0 0 325.58 209.63
  Q 323.69 208.63 322.88 209.79
  A 1.15 1.06 67.4 0 0 322.69 210.31
  L 322.22 215.39
  A 0.65 0.64 -14.9 0 1 321.95 215.85
  Q 321.29 216.31 320.70 215.68
  A 0.46 0.45 26.6 0 0 319.91 215.94
  L 319.48 220.63
  A 0.38 0.38 0.0 0 0 319.60 220.95
  Z
  M 271.34 249.89
  A 0.63 0.63 0.0 0 0 271.62 250.21
  L 282.05 256.24
  A 0.63 0.63 0.0 0 0 282.59 256.29
  L 284.35 255.64
  A 0.63 0.63 0.0 0 0 284.44 254.51
  L 271.48 247.02
  A 0.63 0.63 0.0 0 0 270.57 247.78
  L 271.34 249.89
  Z
  M 348.17 253.40
  Q 347.53 253.97 346.86 253.77
  A 0.49 0.49 0.0 0 0 346.24 254.20
  L 345.84 258.54
  A 2.02 2.02 0.0 0 0 346.95 260.54
  L 351.40 262.74
  A 0.99 0.98 15.8 0 0 352.82 261.95
  L 353.25 257.30
  A 0.97 0.95 23.8 0 0 352.92 256.48
  Q 350.99 254.78 349.07 254.32
  Q 348.34 254.14 348.45 253.56
  A 0.17 0.17 0.0 0 0 348.17 253.40
  Z
  M 267.14 270.18
  L 280.18 272.35
  A 0.20 0.19 -80.0 0 0 280.39 272.20
  L 280.39 272.19
  A 0.22 0.21 11.9 0 0 280.23 271.95
  L 276.70 271.02
  A 0.55 0.55 0.0 0 1 276.72 269.95
  L 284.35 268.32
  A 0.40 0.40 0.0 0 1 284.72 268.45
  Q 285.19 269.02 286.19 268.12
  A 0.55 0.55 0.0 0 0 286.27 267.39
  Q 285.47 266.30 286.22 265.41
  Q 286.59 264.98 287.73 264.82
  Q 288.69 264.70 289.37 264.54
  A 0.51 0.50 -46.2 0 0 289.35 263.55
  Q 280.65 261.95 272.41 260.17
  C 271.76 260.03 270.61 260.20 269.77 260.12
  A 0.70 0.69 6.9 0 0 269.01 260.71
  L 269.01 260.74
  A 0.62 0.62 0.0 0 0 269.49 261.42
  L 283.45 264.49
  A 0.89 0.89 0.0 0 1 283.58 266.19
  Q 275.98 269.12 267.96 268.56
  L 268.55 259.28
  A 1.82 1.81 -70.2 0 0 267.80 257.68
  L 267.41 257.43
  A 0.75 0.75 0.0 0 0 266.24 258.00
  L 265.36 269.72
  A 1.69 1.37 48.4 0 0 265.38 270.15
  Q 265.67 271.92 265.65 272.98
  Q 265.36 286.01 264.01 307.28
  A 0.75 0.75 0.0 0 0 264.85 308.07
  L 265.12 308.01
  A 1.06 1.06 0.0 0 0 265.97 307.02
  L 266.24 301.08
  A 0.50 0.50 0.0 0 1 266.76 300.60
  L 269.04 300.70
  A 0.26 0.26 0.0 0 0 269.26 300.27
  Q 267.69 298.29 268.10 294.03
  Q 268.55 289.40 268.90 274.99
  Q 268.95 273.18 267.58 272.94
  A 0.84 0.82 -8.8 0 1 266.99 272.52
  Q 265.75 270.25 267.14 270.18
  Z
  M 200.58 259.60
  A 0.18 0.18 0.0 0 0 200.60 259.84
  L 221.24 278.43
  A 0.18 0.18 0.0 0 0 221.54 278.30
  L 221.65 275.13
  A 0.18 0.18 0.0 0 0 221.58 274.98
  L 201.02 259.31
  A 0.18 0.18 0.0 0 0 200.77 259.34
  L 200.58 259.60
  Z
  M 298.61 274.89
  L 296.39 273.61
  A 0.56 0.55 30.1 0 1 296.18 272.86
  L 297.08 271.30
  A 0.22 0.21 17.5 0 0 296.91 270.98
  Q 296.08 270.91 296.31 269.65
  A 0.25 0.25 0.0 0 0 296.07 269.36
  Q 296.01 269.36 295.85 269.53
  Q 295.70 269.69 295.39 269.64
  Q 294.85 269.56 294.74 268.83
  A 0.76 0.74 -73.7 0 0 294.50 268.38
  Q 292.81 266.80 291.85 265.38
  Q 291.42 264.75 291.35 264.74
  A 1.09 1.09 0.0 0 0 290.52 266.61
  Q 292.59 268.60 293.55 270.92
  A 1.19 1.18 44.7 0 1 293.56 271.82
  Q 292.88 273.52 291.14 273.61
  A 0.19 0.19 0.0 0 0 291.12 273.98
  L 298.55 275.05
  A 0.09 0.09 0.0 0 0 298.61 274.89
  Z
  M 279.56 282.50
  Q 279.52 282.22 280.28 281.13
  A 0.70 0.69 -51.6 0 0 280.18 280.21
  Q 279.28 279.40 280.03 278.54
  A 0.34 0.34 0.0 0 0 279.82 277.98
  L 276.90 277.56
  A 0.43 0.42 5.5 0 0 276.41 277.96
  L 276.28 281.91
  A 0.68 0.68 0.0 0 0 276.83 282.60
  L 279.05 283.01
  A 0.44 0.43 -0.4 0 0 279.56 282.50
  Z"
/>
<path fill="#f5dcf3" d="
  M 43.48 65.29
  L 29.97 2.00
  A 0.31 0.31 0.0 0 1 30.30 1.63
  L 167.57 14.36
  A 0.31 0.31 0.0 0 1 167.83 14.56
  L 188.21 69.99
  A 0.31 0.31 0.0 0 1 187.91 70.40
  L 43.77 65.54
  A 0.31 0.31 0.0 0 1 43.48 65.29
  Z
  M 84.8538 33.0728
  A 0.45 0.45 0.0 0 0 84.2961 32.7662
  L 83.5087 32.9949
  A 0.45 0.45 0.0 0 0 83.2021 33.5526
  L 84.9262 39.4872
  A 0.45 0.45 0.0 0 0 85.4839 39.7938
  L 86.2713 39.5651
  A 0.45 0.45 0.0 0 0 86.5779 39.0074
  L 84.8538 33.0728
  Z
  M 78.2153 36.2235
  A 2.57 1.33 -165.2 0 0 80.3603 38.1659
  A 2.57 1.33 -165.2 0 0 83.1847 37.5365
  A 2.57 1.33 -165.2 0 0 81.0397 35.5941
  A 2.57 1.33 -165.2 0 0 78.2153 36.2235
  Z
  M 161.00 45.43
  A 0.32 0.32 0.0 0 0 161.28 45.64
  L 172.30 46.14
  A 0.32 0.32 0.0 0 0 172.61 45.71
  L 169.33 36.80
  A 0.32 0.32 0.0 0 0 169.05 36.59
  L 158.03 36.08
  A 0.32 0.32 0.0 0 0 157.72 36.51
  L 161.00 45.43
  Z"
/>
<path fill="#5e6b95" d="
  M 334.57 29.85
  C 335.75 31.86 337.04 32.86 336.77 35.72
  L 334.45 31.53
  Q 334.52 30.98 334.34 30.46
  L 334.57 29.85
  Z"
/>
<path fill="#6d6c67" d="
  M 334.45 31.53
  Q 334.24 31.04 334.34 30.46
  Q 334.52 30.98 334.45 31.53
  Z"
/>
<path fill="#f5dcf3" d="
  M 433.45 76.05
  Q 434.34 76.42 435.23 78.67
  L 362.13 76.34
  A 1.17 1.17 0.0 0 1 361.14 75.73
  L 337.01 31.33
  A 0.60 0.60 0.0 0 1 337.58 30.44
  Q 345.35 31.02 351.99 31.65
  Q 355.71 32.00 390.38 35.54
  Q 392.91 35.80 394.72 35.49
  A 0.36 0.36 0.0 0 1 394.84 35.49
  L 407.17 36.77
  A 2.53 2.52 77.5 0 1 409.08 37.99
  Q 412.74 44.08 418.15 52.57
  Q 418.20 52.64 424.88 63.73
  Q 428.75 70.16 433.45 76.05
  Z
  M 359.31 50.93
  A 2.43 2.43 0.0 0 0 357.26 49.66
  L 352.09 49.48
  A 0.47 0.47 0.0 0 0 351.67 50.17
  L 354.95 56.22
  A 2.01 2.01 0.0 0 0 356.64 57.26
  L 361.83 57.44
  A 0.60 0.59 -13.5 0 0 362.37 56.56
  L 359.31 50.93
  Z
  M 397.31 52.91
  L 400.78 58.92
  A 2.28 2.27 -13.6 0 0 402.64 60.05
  L 407.00 60.25
  A 0.54 0.53 -13.8 0 0 407.49 59.45
  L 404.34 54.00
  A 2.50 2.50 0.0 0 0 402.30 52.75
  L 397.54 52.54
  A 0.25 0.25 0.0 0 0 397.31 52.91
  Z"
/>
<rect fill="#6d6c67" x="-0.86" y="-3.54" transform="translate(84.89,36.28) rotate(-16.2)" width="1.72" height="7.08" rx="0.45"/>
<ellipse fill="#6d6c67" cx="0.00" cy="0.00" transform="translate(80.70,36.88) rotate(-165.2)" rx="2.57" ry="1.33"/>
<path fill="#6d6c67" d="
  M 161.00 45.43
  L 157.72 36.51
  A 0.32 0.32 0.0 0 1 158.03 36.08
  L 169.05 36.59
  A 0.32 0.32 0.0 0 1 169.33 36.80
  L 172.61 45.71
  A 0.32 0.32 0.0 0 1 172.30 46.14
  L 161.28 45.64
  A 0.32 0.32 0.0 0 1 161.00 45.43
  Z
  M 167.9525 38.9913
  A 2.92 0.51 -107.9 0 0 168.3647 41.9268
  A 2.92 0.51 -107.9 0 0 169.7475 44.5487
  A 2.92 0.51 -107.9 0 0 169.3353 41.6132
  A 2.92 0.51 -107.9 0 0 167.9525 38.9913
  Z"
/>
<path fill="#5e6b95" d="
  M 338.02 37.98
  Q 337.19 36.93 336.77 35.72
  Q 338.55 36.17 338.02 37.98
  Z"
/>
<ellipse fill="#5e6b95" cx="0.00" cy="0.00" transform="translate(168.85,41.77) rotate(-107.9)" rx="2.92" ry="0.51"/>
<path fill="#6d6c67" d="
  M 359.31 50.93
  L 362.37 56.56
  A 0.60 0.59 -13.5 0 1 361.83 57.44
  L 356.64 57.26
  A 2.01 2.01 0.0 0 1 354.95 56.22
  L 351.67 50.17
  A 0.47 0.47 0.0 0 1 352.09 49.48
  L 357.26 49.66
  A 2.43 2.43 0.0 0 1 359.31 50.93
  Z"
/>
<path fill="#6d6c67" d="
  M 397.31 52.91
  A 0.25 0.25 0.0 0 1 397.54 52.54
  L 402.30 52.75
  A 2.50 2.50 0.0 0 1 404.34 54.00
  L 407.49 59.45
  A 0.54 0.53 -13.8 0 1 407.00 60.25
  L 402.64 60.05
  A 2.28 2.27 -13.6 0 1 400.78 58.92
  L 397.31 52.91
  Z"
/>
<path fill="#5e6b95" d="
  M 360.58 78.74
  L 352.01 63.74
  L 351.99 62.81
  A 0.21 0.21 0.0 0 1 352.37 62.68
  Q 357.55 69.97 360.58 78.74
  Z"
/>
<path fill="#f5dcf3" d="
  M 212.88 130.45
  Q 212.37 130.37 208.14 130.36
  A 0.46 0.45 -88.7 0 0 207.69 130.80
  L 207.68 131.09
  A 0.20 0.20 0.0 0 0 207.86 131.29
  Q 211.32 131.61 212.53 130.87
  A 0.86 0.86 0.0 0 1 213.37 130.84
  Q 215.44 131.90 217.28 130.79
  A 0.55 0.54 -26.0 0 1 218.08 131.06
  L 220.33 137.18
  A 0.30 0.30 0.0 0 1 219.80 137.46
  Q 218.67 135.89 216.59 136.33
  A 0.88 0.88 0.0 0 0 216.47 138.02
  Q 217.96 138.58 219.94 138.26
  A 0.97 0.96 -26.5 0 1 220.76 138.53
  Q 221.30 139.06 221.48 140.36
  A 0.30 0.30 0.0 0 1 221.00 140.64
  Q 219.99 139.91 217.79 140.32
  A 0.70 0.70 0.0 0 0 217.24 140.87
  Q 217.11 141.48 216.91 141.56
  Q 216.53 141.71 216.11 141.57
  Q 215.87 141.50 215.70 140.82
  Q 215.58 140.36 215.10 140.35
  Q 214.30 140.32 213.67 141.09
  A 0.91 0.91 0.0 0 1 212.88 141.41
  Q 212.43 141.37 212.32 141.50
  A 0.40 0.40 0.0 0 0 212.65 142.15
  L 220.42 141.74
  A 1.10 1.05 32.1 0 0 220.71 141.68
  L 221.20 141.50
  A 0.66 0.66 0.0 0 1 222.05 141.89
  L 224.27 147.93
  A 0.35 0.35 0.0 0 1 223.85 148.39
  Q 221.49 147.79 220.45 148.30
  A 1.50 0.27 -29.4 0 1 219.51 148.63
  L 217.08 148.59
  A 0.71 0.70 85.5 0 1 216.40 148.00
  Q 216.32 147.54 215.33 147.35
  A 0.44 0.44 0.0 0 0 214.80 147.76
  Q 214.76 148.31 214.51 148.67
  A 0.71 0.70 -56.8 0 1 213.57 148.87
  Q 211.65 147.71 209.13 148.74
  A 2.13 2.11 -50.1 0 1 207.94 148.85
  Q 206.02 148.46 203.85 149.11
  A 2.20 2.04 33.1 0 1 203.27 149.21
  Q 196.93 149.56 194.18 149.51
  C 192.56 149.48 191.63 150.21 190.04 149.81
  A 1.94 1.87 -46.1 0 0 188.96 149.85
  Q 186.63 150.60 184.71 150.44
  Q 182.18 150.23 180.34 150.50
  Q 179.12 150.69 174.81 150.53
  A 0.39 0.39 0.0 0 0 174.61 151.27
  Q 176.80 152.43 179.57 151.43
  A 1.27 1.26 43.2 0 1 180.36 151.41
  Q 182.70 152.14 185.17 151.17
  Q 185.96 150.87 186.90 152.78
  A 0.24 0.24 0.0 0 0 187.35 152.69
  L 187.37 151.96
  A 0.87 0.87 0.0 0 1 187.94 151.17
  Q 188.88 150.83 189.48 150.95
  Q 190.32 151.12 190.52 150.92
  Q 190.86 150.58 190.91 150.48
  A 0.66 0.66 0.0 0 1 191.75 150.19
  C 193.94 151.12 196.65 150.06 199.03 150.44
  Q 200.66 150.70 202.31 150.13
  A 0.49 0.41 -50.3 0 1 202.47 150.10
  L 207.15 150.26
  A 0.65 0.63 9.9 0 0 207.77 149.84
  Q 207.90 149.49 208.04 149.42
  A 0.69 0.67 39.4 0 1 208.52 149.38
  Q 211.37 150.22 214.06 149.29
  A 2.56 2.36 -50.4 0 1 215.01 149.16
  C 219.93 149.44 222.20 149.79 224.24 149.20
  A 0.63 0.62 -18.1 0 1 225.00 149.58
  L 225.55 151.09
  A 0.43 0.43 0.0 0 1 225.09 151.67
  Q 223.69 151.47 222.04 151.83
  A 0.54 0.54 0.0 0 0 221.62 152.39
  L 221.63 152.45
  A 0.46 0.46 0.0 0 0 222.15 152.88
  Q 223.08 152.77 223.80 153.21
  A 0.92 0.92 0.0 0 0 225.00 152.98
  L 225.28 152.60
  A 0.48 0.48 0.0 0 1 226.11 152.72
  L 228.30 158.69
  A 0.34 0.34 0.0 0 1 227.97 159.15
  Q 224.88 159.08 217.63 159.66
  C 216.58 159.74 215.41 159.54 214.38 159.19
  A 0.98 0.97 -62.7 0 0 213.29 159.54
  Q 213.27 159.57 213.12 159.81
  A 0.18 0.17 15.0 0 1 212.97 159.89
  L 32.63 172.27
  A 0.75 0.75 0.0 0 1 31.84 171.66
  L 14.09 73.15
  A 0.47 0.46 -88.4 0 1 14.65 72.61
  Q 17.81 73.32 20.72 72.73
  A 2.91 2.90 49.0 0 1 22.27 72.84
  Q 24.63 73.66 26.63 73.17
  Q 28.37 72.75 29.88 73.17
  Q 32.46 73.89 35.10 73.13
  A 2.09 2.04 -42.8 0 1 36.34 73.16
  C 39.26 74.13 42.00 73.00 44.86 73.52
  Q 46.94 73.90 49.47 73.45
  A 2.30 2.24 48.1 0 1 50.52 73.52
  Q 52.72 74.21 56.01 73.63
  A 3.39 3.32 45.6 0 1 57.39 73.66
  Q 59.99 74.26 62.00 73.84
  C 64.48 73.33 66.06 75.13 68.73 74.17
  Q 69.91 73.75 71.37 74.12
  Q 74.18 74.83 76.17 74.13
  A 1.54 1.52 -42.7 0 1 77.29 74.17
  Q 79.63 75.19 82.70 74.45
  A 2.30 2.27 -41.0 0 1 83.99 74.53
  Q 85.85 75.24 88.25 74.74
  C 90.58 74.25 91.96 75.49 94.42 74.86
  C 96.62 74.29 98.55 75.63 100.75 75.00
  Q 102.02 74.64 103.71 75.18
  Q 105.79 75.85 108.07 75.04
  A 1.28 1.24 -42.8 0 1 108.99 75.06
  Q 111.41 76.07 114.31 75.31
  A 1.90 1.90 0.0 0 1 115.21 75.31
  Q 117.52 75.91 119.87 75.48
  A 3.65 3.02 36.4 0 1 120.61 75.44
  Q 126.96 75.84 131.75 75.73
  Q 133.52 75.69 135.28 75.97
  C 137.09 76.27 138.09 75.35 139.85 76.01
  Q 141.61 76.67 143.57 75.95
  A 1.58 1.55 46.8 0 1 144.76 76.00
  C 146.66 76.87 148.77 76.17 150.97 76.29
  Q 157.66 76.65 165.01 76.69
  Q 167.65 76.70 168.95 77.03
  A 2.90 2.88 45.2 0 0 170.39 77.04
  C 172.68 76.47 174.32 77.91 176.56 77.03
  C 177.85 76.53 178.14 77.37 179.13 77.36
  Q 182.77 77.30 197.30 77.73
  A 0.91 0.89 81.5 0 1 198.12 78.35
  L 200.09 84.23
  A 0.33 0.28 -84.8 0 0 200.18 84.36
  Q 201.21 85.36 201.11 86.78
  A 0.86 0.86 0.0 0 0 201.39 87.48
  Q 202.24 88.28 202.16 89.66
  A 1.09 1.08 -65.2 0 0 202.44 90.44
  Q 202.89 90.92 203.17 91.84
  Q 204.37 95.70 205.90 98.92
  A 0.48 0.48 0.0 0 1 205.47 99.60
  Q 194.70 99.62 188.44 99.61
  Q 177.87 99.60 165.50 99.37
  Q 164.83 99.36 163.50 99.64
  A 1.88 1.83 -42.9 0 1 162.65 99.62
  Q 160.52 99.06 158.03 99.74
  A 2.10 2.06 -45.5 0 1 156.97 99.76
  Q 155.01 99.28 154.34 99.36
  C 151.55 99.72 149.19 99.11 146.26 99.75
  A 2.53 2.46 43.0 0 1 145.27 99.77
  Q 142.52 99.25 140.38 99.77
  A 1.51 1.46 -41.5 0 1 139.52 99.73
  Q 137.23 98.98 134.40 99.75
  A 1.58 1.57 -42.9 0 1 133.53 99.72
  Q 130.87 98.84 128.36 99.67
  A 1.56 1.54 43.3 0 1 127.45 99.69
  Q 124.51 98.82 122.54 99.67
  Q 121.65 100.06 120.89 99.48
  A 0.88 0.84 -25.0 0 0 120.36 99.30
  L 116.68 99.38
  A 0.49 0.49 0.0 0 0 116.51 100.33
  Q 118.82 101.22 121.67 100.25
  A 1.27 1.24 -43.7 0 1 122.50 100.26
  Q 124.71 101.03 126.82 100.46
  Q 128.08 100.13 129.20 100.46
  Q 131.29 101.08 133.75 100.24
  A 1.45 1.43 -45.3 0 1 134.67 100.23
  Q 137.25 101.04 139.72 100.26
  A 1.61 1.53 -46.5 0 1 140.50 100.22
  Q 142.82 100.72 145.71 100.19
  A 1.94 1.93 49.3 0 1 146.73 100.27
  C 149.01 101.10 151.06 99.97 153.05 100.46
  Q 154.56 100.83 156.09 100.38
  C 158.23 99.76 161.17 101.26 162.92 100.29
  A 1.13 1.10 40.9 0 1 163.90 100.23
  Q 166.02 101.10 168.52 100.38
  A 2.20 2.18 -45.2 0 1 169.70 100.37
  Q 171.73 100.89 173.91 100.41
  A 2.61 2.33 -48.2 0 1 174.45 100.35
  L 191.68 100.43
  A 1.04 0.92 48.6 0 1 191.92 100.46
  Q 193.68 100.86 196.02 100.26
  A 2.16 2.12 -45.6 0 1 197.02 100.24
  C 199.03 100.69 201.02 99.98 203.01 100.52
  Q 204.64 100.97 205.46 100.38
  A 0.62 0.62 0.0 0 1 206.31 100.52
  Q 207.21 101.76 207.13 102.75
  A 1.18 1.14 29.7 0 0 207.36 103.55
  Q 208.24 104.70 208.39 105.60
  A 0.50 0.50 0.0 0 1 207.90 106.18
  Q 191.11 106.50 176.33 106.61
  C 175.07 106.62 173.22 106.17 171.89 106.67
  A 1.39 1.39 0.0 0 1 170.96 106.70
  C 168.45 105.90 166.08 106.93 164.00 106.57
  Q 161.88 106.19 160.27 106.78
  A 1.49 1.49 0.0 0 1 159.29 106.78
  Q 158.60 106.55 157.75 106.57
  Q 154.09 106.68 144.92 106.57
  Q 143.54 106.55 142.59 106.75
  C 141.60 106.96 140.71 106.48 139.46 106.56
  Q 135.52 106.82 131.15 106.58
  A 0.34 0.33 8.0 0 0 130.80 106.84
  L 130.80 106.86
  A 0.45 0.45 0.0 0 0 131.12 107.39
  Q 133.32 108.01 135.08 107.49
  Q 136.12 107.19 137.48 107.50
  Q 140.23 108.14 141.96 107.26
  A 0.97 0.95 -43.2 0 1 142.88 107.28
  Q 144.32 108.11 148.24 107.25
  A 0.64 0.60 -39.6 0 1 148.55 107.27
  Q 151.25 108.14 153.87 107.27
  A 1.45 1.45 0.0 0 1 154.75 107.27
  Q 156.77 107.94 159.40 107.23
  A 2.20 2.16 -42.6 0 1 160.66 107.27
  C 161.23 107.46 161.58 107.77 162.51 107.66
  Q 165.62 107.32 167.65 107.58
  Q 169.39 107.80 170.59 107.37
  C 172.13 106.84 172.99 107.96 174.47 107.58
  Q 175.80 107.23 178.49 107.28
  Q 185.91 107.42 197.13 107.35
  A 1.23 1.20 -67.6 0 0 198.00 106.98
  Q 198.10 106.87 198.13 106.84
  A 0.48 0.47 42.7 0 1 198.78 106.82
  Q 199.58 107.52 199.66 107.97
  A 1.13 1.13 0.0 0 1 198.57 109.29
  L 161.80 110.03
  A 0.23 0.23 0.0 0 0 161.68 110.46
  Q 164.02 111.92 166.36 110.50
  A 0.79 0.78 -47.9 0 1 167.12 110.46
  Q 169.51 111.64 172.05 110.51
  A 1.33 1.29 -45.8 0 1 173.07 110.48
  Q 175.29 111.34 177.78 110.47
  A 1.39 1.35 -41.7 0 1 178.79 110.51
  Q 180.72 111.38 182.96 110.48
  A 1.31 1.30 40.1 0 1 183.70 110.42
  L 186.90 111.13
  A 0.50 0.50 0.0 0 0 187.39 110.95
  Q 187.65 110.63 188.29 110.43
  Q 188.71 110.30 189.01 110.87
  Q 190.07 112.92 189.68 113.59
  A 0.50 0.50 0.0 0 0 189.95 114.31
  Q 190.36 114.45 190.77 115.73
  Q 192.14 120.01 193.43 122.99
  A 0.57 0.57 0.0 0 1 192.92 123.79
  L 183.88 123.97
  A 0.45 0.45 0.0 0 0 183.76 124.86
  Q 185.67 125.42 187.97 124.59
  A 2.96 2.72 30.6 0 1 188.72 124.43
  C 189.22 124.38 190.25 124.84 191.10 124.80
  C 195.49 124.59 200.11 124.95 204.54 124.28
  A 0.87 0.87 0.0 0 1 205.43 124.72
  C 206.68 127.03 208.44 129.27 211.04 127.14
  A 0.69 0.68 -44.6 0 1 211.91 127.14
  Q 213.13 128.16 216.11 127.46
  A 0.73 0.72 73.4 0 1 216.96 127.92
  L 217.37 129.03
  A 0.46 0.46 0.0 0 1 217.03 129.64
  Q 212.97 130.47 212.88 130.45
  Z
  M 88.57 118.08
  Q 88.69 119.11 90.66 120.75
  A 0.22 0.21 -69.7 0 1 90.74 120.94
  L 90.69 121.26
  A 0.35 0.35 0.0 0 1 90.14 121.49
  Q 87.84 119.77 85.57 120.70
  A 0.97 0.97 0.0 0 0 85.96 122.57
  C 89.65 122.48 92.11 122.09 94.55 122.83
  A 0.41 0.41 0.0 0 0 95.07 122.36
  L 93.55 115.25
  A 1.17 1.16 77.1 0 0 92.13 114.36
  Q 90.06 114.88 85.90 114.95
  Q 84.74 114.97 84.03 115.38
  A 1.34 1.34 0.0 0 0 84.51 117.86
  L 87.88 118.35
  A 0.20 0.18 12.9 0 0 88.09 118.23
  Q 88.18 117.97 88.20 117.95
  A 0.22 0.22 0.0 0 1 88.57 118.08
  Z
  M 215.31 134.72
  L 218.33 134.76
  A 0.25 0.25 0.0 0 0 218.58 134.51
  L 218.58 134.35
  A 1.55 1.41 0.6 0 0 217.05 132.92
  L 216.63 132.92
  A 1.55 1.41 0.6 0 0 215.06 134.31
  L 215.06 134.47
  A 0.25 0.25 0.0 0 0 215.31 134.72
  Z
  M 215.7836 156.1982
  A 0.75 0.75 0.0 0 0 215.0697 155.4137
  L 212.8322 155.3082
  A 0.75 0.75 0.0 0 0 212.0477 156.0220
  L 212.0364 156.2618
  A 0.75 0.75 0.0 0 0 212.7503 157.0463
  L 214.9878 157.1518
  A 0.75 0.75 0.0 0 0 215.7723 156.4380
  L 215.7836 156.1982
  Z
  M 146.4700 160.9990
  A 2.58 0.66 -180.2 0 0 149.0523 161.6500
  A 2.58 0.66 -180.2 0 0 151.6300 160.9810
  A 2.58 0.66 -180.2 0 0 149.0477 160.3300
  A 2.58 0.66 -180.2 0 0 146.4700 160.9990
  Z"
/>
<path fill="#f5dcf3" d="
  M 399.39 106.04
  Q 400.26 105.66 399.79 104.48
  Q 398.87 102.15 398.89 101.50
  A 0.58 0.58 0.0 0 0 398.36 100.91
  Q 397.97 100.87 397.92 100.84
  A 0.27 0.27 0.0 0 1 398.12 100.35
  L 398.68 100.46
  A 0.33 0.33 0.0 0 0 398.99 99.91
  Q 397.99 98.81 397.24 98.56
  A 0.75 0.75 0.0 0 1 396.74 97.88
  L 396.57 92.99
  A 0.37 0.37 0.0 0 1 397.04 92.62
  Q 399.18 93.19 401.88 92.69
  A 1.77 1.56 37.3 0 1 402.29 92.66
  L 419.07 93.28
  A 0.28 0.27 82.9 0 0 419.34 92.93
  Q 419.29 92.77 419.09 92.55
  Q 419.07 92.53 418.90 92.52
  Q 398.30 92.03 396.07 92.23
  A 1.25 1.23 69.2 0 1 394.94 91.71
  Q 393.30 89.39 390.81 88.73
  A 1.20 1.19 -5.7 0 1 390.05 88.11
  Q 389.82 87.68 389.48 87.56
  Q 384.19 85.74 377.47 86.15
  C 375.35 86.28 373.54 85.77 372.28 87.96
  A 0.80 0.77 -79.9 0 1 371.76 88.34
  Q 371.00 88.52 371.10 89.22
  A 0.24 0.24 0.0 0 1 370.71 89.43
  Q 369.98 88.78 368.52 89.43
  A 0.38 0.37 34.9 0 1 368.33 89.46
  L 365.14 89.36
  A 1.61 1.61 0.0 0 1 363.77 88.51
  L 360.58 82.64
  A 0.50 0.49 -13.6 0 1 361.03 81.91
  Q 368.53 82.03 402.05 83.05
  Q 435.54 84.06 448.30 84.16
  Q 449.58 84.17 450.13 86.08
  A 1.12 1.10 7.7 0 0 450.65 86.75
  Q 451.14 87.04 451.13 87.53
  Q 451.11 88.00 451.39 88.43
  Q 461.40 104.01 467.68 113.91
  Q 469.30 116.46 469.47 116.79
  Q 470.59 118.96 472.02 120.94
  Q 472.62 121.77 473.79 123.80
  A 0.25 0.24 -15.3 0 1 473.58 124.16
  L 422.99 125.91
  A 0.47 0.46 15.2 0 0 422.62 126.12
  Q 422.14 126.88 421.02 126.40
  Q 420.11 126.01 419.35 126.08
  Q 412.06 126.74 401.19 126.53
  A 1.64 1.53 -55.9 0 0 400.44 126.70
  Q 398.95 127.43 397.61 126.97
  A 1.34 1.31 45.7 0 0 396.77 126.95
  Q 395.30 127.37 393.88 126.91
  A 0.89 0.89 0.0 0 0 393.17 126.98
  Q 392.60 127.28 392.10 127.28
  A 0.54 0.53 7.4 0 1 391.58 126.61
  Q 391.71 126.12 391.66 125.95
  A 0.98 0.97 82.2 0 0 390.69 125.21
  L 383.49 125.31
  A 1.86 1.85 -15.3 0 1 381.87 124.39
  L 380.35 121.75
  A 0.86 0.86 0.0 0 1 381.07 120.46
  L 385.55 120.30
  A 0.43 0.43 0.0 0 0 385.92 119.67
  L 385.56 119.01
  A 0.60 0.60 0.0 0 1 386.11 118.12
  L 391.47 118.30
  A 0.07 0.06 -81.3 0 0 391.54 118.24
  L 391.58 117.96
  A 0.46 0.46 0.0 0 0 391.20 117.44
  L 382.27 116.15
  A 0.81 0.79 82.0 0 1 381.64 115.66
  Q 381.22 114.62 381.62 113.84
  A 0.88 0.87 43.3 0 0 381.59 113.01
  L 380.34 110.84
  A 0.59 0.58 75.8 0 1 380.86 109.96
  L 399.07 110.58
  A 1.50 1.50 0.0 0 0 400.62 109.10
  L 400.65 106.77
  A 0.65 0.64 -87.2 0 0 400.06 106.11
  Q 400.04 106.11 399.41 106.11
  Q 399.21 106.11 399.39 106.04
  Z
  M 446.66 116.24
  A 0.72 0.71 -15.5 0 0 447.27 115.17
  L 443.26 108.23
  A 1.22 1.22 0.0 0 0 442.24 107.62
  L 429.89 107.20
  A 0.27 0.26 -86.6 0 0 429.62 107.45
  Q 429.57 107.94 430.16 107.86
  Q 431.74 107.63 432.84 108.07
  A 1.54 1.52 -44.1 0 0 433.97 108.08
  Q 436.31 107.18 437.81 110.58
  Q 438.78 112.78 438.79 112.79
  Q 440.09 114.23 440.23 114.97
  A 1.70 1.70 0.0 0 0 441.93 116.33
  L 446.66 116.24
  Z"
/>
<path fill="#5e6b95" d="
  M 227.24 98.44
  Q 227.78 99.28 228.66 99.50
  Q 239.57 102.18 249.88 102.24
  A 0.25 0.25 0.0 0 1 250.10 102.62
  Q 250.07 102.67 249.93 102.76
  A 0.12 0.12 0.0 0 0 249.95 102.98
  C 252.92 104.18 257.92 103.54 261.69 103.80
  Q 278.88 105.00 295.83 105.88
  A 0.38 0.38 0.0 0 1 296.17 106.38
  Q 296.16 106.41 295.99 106.54
  A 0.26 0.25 42.7 0 0 296.01 106.96
  Q 297.53 107.89 296.54 109.83
  A 1.18 1.14 -31.8 0 0 296.40 110.38
  L 296.29 113.56
  A 0.40 0.39 -85.9 0 1 295.86 113.94
  Q 295.03 113.88 294.92 115.23
  Q 294.49 120.35 294.19 127.25
  Q 294.17 127.84 294.49 128.28
  Q 294.65 128.51 294.63 128.75
  Q 294.59 129.00 294.56 129.05
  A 0.15 0.15 0.0 0 1 294.29 128.99
  Q 294.27 128.81 294.23 128.68
  A 0.52 0.51 80.8 0 0 293.71 128.30
  L 280.19 128.86
  Q 280.14 128.86 280.10 128.86
  Q 276.58 129.48 274.17 129.01
  A 0.51 0.51 0.0 0 1 273.78 128.62
  Q 273.76 128.49 273.60 128.35
  Q 273.43 128.20 273.38 128.20
  Q 270.76 127.70 269.74 127.42
  A 1.05 0.93 48.4 0 0 269.40 127.38
  L 254.21 127.77
  A 1.15 1.14 2.0 0 1 253.04 126.52
  L 253.40 122.62
  A 1.36 1.35 -86.0 0 1 254.81 121.39
  L 255.78 121.43
  A 0.42 0.42 0.0 0 0 256.22 121.05
  L 257.05 112.10
  A 0.48 0.47 4.0 0 0 256.59 111.58
  L 251.40 111.34
  A 0.40 0.40 0.0 0 0 250.99 111.73
  L 250.67 121.11
  A 0.37 0.37 0.0 0 1 250.30 121.47
  L 250.01 121.48
  A 0.29 0.29 0.0 0 1 249.71 121.22
  L 248.47 111.44
  A 0.78 0.77 6.3 0 0 247.96 110.81
  Q 242.24 108.81 236.70 109.41
  L 230.01 109.65
  A 0.43 0.42 3.3 0 1 229.57 109.16
  L 229.81 107.49
  A 0.62 0.62 0.0 0 0 229.29 106.80
  L 224.23 106.07
  A 0.67 0.66 -86.5 0 1 223.66 105.42
  L 223.62 102.29
  L 223.62 99.77
  Q 223.58 99.41 223.70 99.14
  Q 223.81 98.90 224.16 98.75
  Q 225.71 98.10 227.24 98.44
  Z
  M 271.2216 113.2738
  A 0.71 0.71 0.0 0 0 270.5748 112.5058
  L 260.5715 111.6482
  A 0.71 0.71 0.0 0 0 259.8034 112.2949
  L 259.5984 114.6862
  A 0.71 0.71 0.0 0 0 260.2452 115.4542
  L 270.2485 116.3118
  A 0.71 0.71 0.0 0 0 271.0166 115.6651
  L 271.2216 113.2738
  Z"
/>
<path fill="#6d6c67" d="
  M 223.62 102.29
  L 223.62 99.77
  L 223.62 102.29
  Z"
/>
<path fill="#5e6b95" d="
  M 24.71 150.80
  Q 24.52 150.81 24.35 150.77
  A 0.66 0.65 -88.8 0 1 23.83 150.22
  L 23.28 146.49
  Q 23.52 145.56 22.97 145.47
  Q 21.42 136.90 19.96 128.28
  Q 19.86 127.68 18.29 126.17
  Q 17.69 125.59 17.56 124.76
  Q 18.44 124.58 18.61 122.96
  Q 18.89 120.35 17.90 118.57
  L 17.21 112.47
  Q 17.57 111.16 16.78 109.79
  L 16.23 106.48
  L 15.99 103.60
  A 0.27 0.25 83.7 0 1 16.19 103.33
  L 16.20 103.33
  A 0.23 0.22 78.2 0 1 16.46 103.51
  Q 16.54 103.80 18.88 116.79
  Q 19.09 117.96 19.71 120.21
  C 20.26 122.24 20.07 124.63 20.58 126.92
  Q 23.23 138.61 24.21 149.74
  Q 24.23 150.01 24.71 150.80
  Z"
/>
<path fill="#6d6c67" d="
  M 446.66 116.24
  L 441.93 116.33
  A 1.70 1.70 0.0 0 1 440.23 114.97
  Q 440.09 114.23 438.79 112.79
  Q 438.78 112.78 437.81 110.58
  Q 436.31 107.18 433.97 108.08
  A 1.54 1.52 -44.1 0 1 432.84 108.07
  Q 431.74 107.63 430.16 107.86
  Q 429.57 107.94 429.62 107.45
  A 0.27 0.26 -86.6 0 1 429.89 107.20
  L 442.24 107.62
  A 1.22 1.22 0.0 0 1 443.26 108.23
  L 447.27 115.17
  A 0.72 0.71 -15.5 0 1 446.66 116.24
  Z"
/>
<path fill="#6d6c67" d="
  M 17.21 112.47
  Q 16.75 111.15 16.78 109.79
  Q 17.57 111.16 17.21 112.47
  Z"
/>
<path fill="#5e6b95" d="
  M 214.95 111.68
  L 215.71 111.64
  Q 216.61 111.89 217.10 111.82
  Q 214.45 111.89 213.16 116.56
  A 0.56 0.55 53.8 0 1 212.07 116.39
  L 212.16 113.81
  A 1.13 1.11 -65.8 0 0 211.87 113.03
  Q 211.34 112.46 211.21 111.75
  A 0.52 0.52 0.0 0 1 211.77 111.14
  Q 212.74 111.24 213.09 110.83
  Q 213.09 111.32 213.23 111.68
  A 0.58 0.58 0.0 0 0 213.96 112.01
  L 214.95 111.68
  Z"
/>
<path fill="#6d6c67" d="
  M 215.71 111.64
  L 214.95 111.68
  Q 215.34 111.57 215.71 111.64
  Z"
/>
<rect fill="#6d6c67" x="-5.73" y="-1.91" transform="translate(265.41,113.98) rotate(4.9)" width="11.46" height="3.82" rx="0.71"/>
<path fill="#6d6c67" d="
  M 88.20 117.95
  Q 88.18 117.97 88.09 118.23
  A 0.20 0.18 12.9 0 1 87.88 118.35
  L 84.51 117.86
  A 1.34 1.34 0.0 0 1 84.03 115.38
  Q 84.74 114.97 85.90 114.95
  Q 90.06 114.88 92.13 114.36
  A 1.17 1.16 77.1 0 1 93.55 115.25
  L 95.07 122.36
  A 0.41 0.41 0.0 0 1 94.55 122.83
  C 92.11 122.09 89.65 122.48 85.96 122.57
  A 0.97 0.97 0.0 0 1 85.57 120.70
  Q 87.84 119.77 90.14 121.49
  A 0.35 0.35 0.0 0 0 90.69 121.26
  L 90.74 120.94
  A 0.22 0.21 -69.7 0 0 90.66 120.75
  Q 88.69 119.11 88.57 118.08
  A 0.22 0.22 0.0 0 0 88.20 117.95
  Z"
/>
<path fill="#6d6c67" d="
  M 17.56 124.76
  Q 16.58 124.13 15.61 123.93
  A 1.25 1.25 0.0 0 1 15.91 121.46
  Q 17.27 121.49 17.90 118.57
  Q 18.89 120.35 18.61 122.96
  Q 18.44 124.58 17.56 124.76
  Z"
/>
<path fill="#f5dcf3" d="
  M 394.63 132.88
  Q 394.08 132.86 393.93 132.86
  A 0.92 0.92 0.0 0 1 393.72 131.05
  Q 395.97 130.51 398.50 130.83
  A 2.53 1.62 -39.7 0 0 399.47 130.71
  Q 399.76 130.63 400.99 130.59
  Q 410.50 130.31 411.94 130.18
  A 0.48 0.45 15.2 0 0 412.26 130.01
  Q 412.67 129.49 413.13 129.53
  A 0.12 0.12 0.0 0 0 413.19 129.30
  Q 412.00 128.73 411.09 129.34
  A 0.79 0.75 -61.8 0 1 410.70 129.47
  L 393.33 129.82
  A 1.15 1.13 -31.4 0 1 392.82 129.70
  Q 391.93 129.24 391.67 128.88
  A 0.76 0.75 82.0 0 1 392.53 127.73
  Q 393.49 128.06 394.26 127.95
  Q 396.52 127.61 402.94 127.60
  C 408.51 127.59 413.63 126.98 419.18 127.00
  Q 420.45 127.00 442.37 126.00
  Q 453.93 125.47 472.17 125.07
  Q 472.99 125.06 473.40 124.83
  Q 474.02 124.50 474.53 125.07
  Q 475.69 126.37 478.45 131.30
  A 0.58 0.58 0.0 0 1 478.02 132.16
  Q 477.89 132.18 477.54 131.72
  A 0.76 0.76 0.0 0 0 476.88 131.42
  L 461.90 132.45
  A 0.21 0.20 58.5 0 0 461.81 132.83
  Q 462.73 133.38 463.58 132.98
  A 0.76 0.70 -55.4 0 1 463.89 132.91
  L 476.16 132.54
  A 0.85 0.82 -33.5 0 1 476.54 132.61
  Q 477.78 133.19 478.12 132.50
  A 0.51 0.51 0.0 0 1 478.92 132.35
  Q 480.03 133.36 480.27 134.30
  A 1.33 1.31 9.2 0 0 480.84 135.08
  Q 481.22 135.32 481.48 135.77
  Q 482.13 136.92 482.96 138.49
  Q 483.89 140.23 484.90 140.44
  A 0.49 0.49 0.0 0 1 484.83 141.40
  L 396.64 147.46
  A 1.39 1.39 0.0 0 1 395.28 146.63
  Q 394.28 144.36 393.15 142.90
  Q 391.74 141.07 392.58 140.26
  A 0.19 0.18 -51.5 0 0 392.55 139.98
  Q 392.46 139.91 392.18 139.89
  A 0.05 0.05 0.0 0 1 392.14 139.81
  Q 392.74 138.91 392.68 137.50
  A 0.49 0.48 -3.0 0 1 393.14 137.00
  L 409.18 135.89
  A 0.39 0.39 0.0 0 0 409.34 135.15
  Q 408.39 134.67 407.58 135.23
  A 0.20 0.17 -49.7 0 1 407.52 135.24
  L 393.18 135.49
  A 0.48 0.48 0.0 0 1 392.95 134.58
  Q 393.85 134.10 393.46 133.65
  A 0.45 0.45 0.0 0 1 393.69 132.93
  Q 394.13 132.81 394.63 132.88
  Z"
/>
<rect fill="#f5dcf3" x="-0.79" y="-3.41" transform="translate(380.16,130.84) rotate(4.3)" width="1.58" height="6.82" rx="0.47"/>
<path fill="#6d6c67" d="
  M 215.31 134.72
  A 0.25 0.25 0.0 0 1 215.06 134.47
  L 215.06 134.31
  A 1.55 1.41 0.6 0 1 216.63 132.92
  L 217.05 132.92
  A 1.55 1.41 0.6 0 1 218.58 134.35
  L 218.58 134.51
  A 0.25 0.25 0.0 0 1 218.33 134.76
  L 215.31 134.72
  Z"
/>
<path fill="#5e6b95" d="
  M 345.09 142.14
  Q 345.10 142.12 345.18 141.98
  A 0.22 0.21 -34.8 0 1 345.58 142.05
  Q 345.73 143.05 346.62 143.78
  A 0.88 0.74 42.9 0 1 346.77 145.01
  Q 346.32 145.40 346.61 146.15
  Q 346.75 146.49 346.73 147.38
  Q 346.62 153.52 345.73 159.31
  A 0.17 0.12 -26.0 0 1 345.67 159.42
  Q 345.66 159.43 345.65 159.44
  A 0.03 0.02 -24.8 0 1 345.60 159.43
  L 345.55 158.51
  A 0.60 0.59 -27.0 0 0 344.49 158.17
  Q 343.74 159.10 343.44 160.94
  A 0.62 0.61 -76.5 0 1 342.65 161.43
  L 334.28 158.85
  A 0.87 0.87 0.0 0 1 333.67 157.98
  L 334.27 144.91
  A 0.55 0.55 0.0 0 1 334.69 144.39
  Q 335.91 144.08 335.75 142.52
  A 1.53 1.52 -3.4 0 1 337.26 140.84
  Q 339.98 140.81 343.99 141.84
  Q 344.25 141.91 344.42 142.18
  A 0.39 0.39 0.0 0 0 345.09 142.14
  Z"
/>
<path fill="#5e6b95" d="
  M 326.24 159.80
  Q 325.75 158.47 325.87 157.50
  Q 326.41 153.25 327.41 143.27
  A 1.98 1.97 -74.0 0 1 330.25 141.69
  L 330.43 141.79
  A 4.33 4.32 16.8 0 1 332.70 146.01
  L 331.54 158.59
  A 1.07 1.05 -7.5 0 1 330.84 159.49
  L 328.74 160.27
  A 0.92 0.92 0.0 0 1 327.74 160.01
  L 327.31 159.51
  A 0.50 0.50 0.0 0 0 326.57 159.49
  Q 326.56 159.51 326.48 159.79
  A 0.13 0.13 0.0 0 1 326.24 159.80
  Z"
/>
<path fill="#6d6c67" d="
  M 23.28 146.49
  Q 23.01 146.12 22.97 145.47
  Q 23.52 145.56 23.28 146.49
  Z"
/>
<path fill="#5e6b95" d="
  M 240.08 202.70
  L 265.69 215.39
  A 0.30 0.30 0.0 0 0 266.12 215.14
  L 266.72 201.92
  A 0.64 0.63 -77.6 0 0 266.33 201.30
  L 235.06 187.94
  A 5.73 5.70 1.5 0 1 231.94 184.66
  L 231.17 182.54
  A 1.04 1.04 0.0 0 1 232.56 181.22
  L 266.57 195.76
  A 0.35 0.35 0.0 0 0 267.05 195.45
  L 267.64 182.56
  A 0.77 0.75 12.2 0 0 267.14 181.81
  L 231.06 168.08
  A 0.50 0.50 0.0 0 0 230.38 168.55
  L 230.32 176.14
  A 1.14 1.06 -31.7 0 1 230.17 176.69
  L 229.68 177.58
  A 0.15 0.14 60.7 0 1 229.41 177.50
  Q 229.41 177.27 227.82 173.41
  Q 227.31 172.16 227.79 165.52
  A 1.18 1.08 65.0 0 1 227.95 165.01
  L 230.43 161.03
  A 1.14 1.14 0.0 0 0 230.53 160.02
  L 228.24 153.78
  A 1.89 1.81 -55.8 0 1 228.12 153.07
  L 228.26 149.03
  A 0.62 0.62 0.0 0 1 228.89 148.43
  Q 230.37 148.45 231.56 148.18
  A 0.78 0.77 72.4 0 0 232.10 147.13
  Q 232.07 147.05 231.81 146.81
  A 0.48 0.48 0.0 0 1 232.15 145.97
  L 248.66 146.53
  A 0.56 0.55 -0.5 0 1 249.20 147.05
  L 249.35 149.20
  A 0.43 0.43 0.0 0 1 248.79 149.64
  L 242.95 147.84
  A 2.81 2.80 51.1 0 0 241.93 147.73
  L 232.42 148.38
  A 0.72 0.71 -37.7 0 0 232.24 149.77
  Q 241.37 152.82 247.76 154.89
  Q 248.60 155.16 248.80 154.99
  Q 249.22 154.64 249.26 155.26
  A 0.45 0.45 0.0 0 0 249.58 155.66
  L 270.34 162.06
  A 0.77 0.70 -36.2 0 0 270.61 162.09
  L 271.63 162.02
  A 0.48 0.47 -0.5 0 1 272.14 162.52
  L 269.19 227.31
  A 0.13 0.01 -84.8 0 1 269.17 227.42
  Q 269.16 227.43 269.15 227.45
  A 0.03 0.03 0.0 0 1 269.10 227.43
  L 268.93 226.51
  A 0.19 0.19 0.0 0 0 268.57 226.46
  Q 268.24 227.14 267.51 226.64
  Q 265.91 225.53 264.21 224.77
  A 1.61 1.59 -35.0 0 0 263.39 224.63
  Q 259.74 224.94 257.75 225.93
  A 1.18 1.03 -55.3 0 1 257.32 226.04
  L 247.99 226.55
  A 0.80 0.79 78.7 0 1 247.20 226.02
  L 238.87 203.20
  A 0.19 0.19 0.0 0 1 239.11 202.96
  Q 239.29 203.03 239.65 202.70
  A 0.48 0.46 43.7 0 1 240.08 202.70
  Z"
/>
<path fill="#f5dcf3" d="
  M 500.66 190.29
  Q 500.55 190.20 500.53 190.08
  Q 500.50 189.92 501.08 190.41
  Q 501.11 190.44 501.20 190.29
  A 0.45 0.44 12.7 0 0 500.77 189.62
  Q 500.50 189.64 500.48 189.65
  Q 497.43 190.60 494.68 190.63
  Q 494.50 190.64 486.98 191.79
  Q 454.72 196.75 452.59 197.23
  Q 451.56 197.46 450.94 197.51
  Q 445.28 198.00 436.86 199.51
  C 435.51 199.75 434.26 199.39 433.16 200.11
  A 1.20 1.18 37.9 0 1 432.11 200.23
  Q 431.24 199.92 430.62 200.64
  A 0.57 0.57 0.0 0 1 429.69 200.54
  Q 422.79 187.58 413.73 171.35
  Q 413.44 170.83 413.82 170.49
  Q 414.13 170.21 414.75 170.67
  A 0.76 0.74 60.9 0 0 415.29 170.83
  L 420.96 170.33
  A 0.66 0.66 0.0 0 0 421.37 170.14
  L 421.74 169.78
  A 0.49 0.47 20.9 0 1 422.09 169.63
  L 429.13 169.57
  A 0.52 0.52 0.0 0 0 429.29 168.55
  Q 429.02 168.46 427.97 168.98
  A 2.40 2.37 30.7 0 1 427.04 169.21
  L 420.05 169.43
  A 0.40 0.34 -49.7 0 0 419.93 169.45
  Q 417.03 170.23 414.96 169.87
  A 0.92 0.91 30.1 0 0 414.23 170.06
  L 414.00 170.28
  A 0.54 0.53 -35.9 0 1 413.16 170.15
  L 411.11 166.38
  A 0.22 0.22 0.0 0 1 411.29 166.06
  L 430.96 164.34
  A 0.81 0.81 0.0 0 0 431.48 164.08
  Q 432.22 163.26 433.50 163.84
  A 1.31 1.24 53.2 0 0 434.14 163.95
  L 442.13 163.25
  A 1.15 1.05 25.6 0 0 442.59 163.11
  Q 444.25 162.16 445.48 162.41
  Q 447.97 162.92 450.34 162.34
  Q 453.79 161.51 458.86 161.67
  A 0.16 0.15 -86.3 0 0 459.02 161.52
  L 459.02 161.51
  A 0.18 0.18 0.0 0 0 458.84 161.32
  Q 451.24 161.33 450.97 161.41
  Q 446.31 162.67 443.34 162.36
  Q 442.69 162.30 439.33 162.61
  Q 425.17 163.95 419.34 164.59
  A 1.21 1.16 53.3 0 1 418.74 164.49
  Q 417.93 164.10 417.27 164.83
  A 0.72 0.68 -68.2 0 1 416.79 165.05
  L 410.74 165.26
  A 0.54 0.53 74.1 0 1 410.26 164.99
  L 409.89 164.31
  A 0.47 0.46 74.0 0 1 410.26 163.63
  L 422.21 162.78
  A 1.14 0.94 -50.7 0 0 422.41 162.74
  Q 425.93 161.60 429.94 161.76
  Q 432.48 161.86 436.53 161.09
  Q 437.29 160.94 437.52 161.09
  Q 437.84 161.29 438.01 161.13
  A 1.36 0.45 -50.2 0 1 438.77 160.66
  L 451.86 159.81
  A 2.68 1.00 4.4 0 1 452.21 159.78
  L 455.51 159.56
  A 0.15 0.15 0.0 0 0 455.59 159.29
  L 455.37 159.12
  A 0.25 0.23 61.2 0 0 455.19 159.06
  L 445.03 159.49
  A 0.07 0.05 -69.7 0 0 444.98 159.52
  Q 444.86 159.79 444.25 159.85
  Q 442.02 160.07 433.24 160.61
  A 4.55 3.88 31.1 0 0 432.52 160.73
  Q 429.64 161.50 427.07 161.14
  A 1.14 1.13 -64.0 0 0 426.07 161.49
  Q 425.62 161.97 425.19 161.53
  A 0.54 0.53 -40.7 0 0 424.48 161.48
  Q 423.63 162.14 422.67 161.72
  A 0.73 0.72 -38.7 0 0 422.19 161.67
  Q 419.97 162.20 414.91 162.32
  Q 413.59 162.35 413.07 162.64
  Q 412.42 163.00 411.65 162.68
  A 1.35 1.33 -47.5 0 0 410.49 162.74
  L 410.03 162.99
  A 0.74 0.73 -28.5 0 1 409.03 162.70
  L 404.46 154.30
  A 0.35 0.34 -14.2 0 1 404.77 153.79
  Q 409.12 153.83 414.86 153.18
  Q 419.61 152.86 422.82 152.47
  Q 427.52 151.91 430.21 151.77
  Q 449.90 150.74 467.49 148.97
  C 470.42 148.67 473.43 148.94 476.44 148.05
  A 1.07 1.07 0.0 0 1 477.66 148.54
  L 482.40 156.82
  A 1.96 1.73 -86.4 0 0 482.68 157.18
  Q 483.41 157.87 484.01 158.87
  Q 489.53 168.12 499.14 183.20
  Q 501.47 186.85 503.47 190.74
  Q 505.75 195.18 507.96 198.04
  A 0.63 0.63 0.0 0 1 507.39 199.05
  Q 505.19 198.81 503.39 199.29
  C 501.03 199.93 499.47 200.04 497.37 200.34
  A 0.39 0.39 0.0 0 0 497.29 201.09
  Q 498.55 201.56 500.15 200.90
  Q 504.16 199.23 509.11 199.84
  A 0.51 0.51 0.0 0 1 509.13 200.85
  L 437.60 213.32
  A 1.34 1.33 70.6 0 1 436.21 212.65
  L 436.00 212.26
  A 0.42 0.41 74.5 0 1 436.34 211.65
  Q 440.13 211.47 449.54 209.39
  C 450.47 209.18 451.57 209.75 452.40 208.95
  A 1.20 1.13 -68.1 0 1 453.07 208.64
  Q 462.37 207.68 464.03 207.30
  Q 466.93 206.63 473.73 205.44
  Q 481.17 204.15 488.52 203.08
  A 0.49 0.49 0.0 0 0 488.94 202.51
  L 488.89 202.25
  A 0.26 0.26 0.0 0 0 488.60 202.03
  Q 479.02 203.47 469.85 205.17
  C 468.51 205.42 466.92 205.16 465.93 205.78
  A 2.30 2.26 -64.9 0 1 465.02 206.12
  Q 456.16 207.42 455.07 207.65
  Q 448.86 209.00 446.46 209.18
  Q 442.09 209.52 441.12 210.01
  A 3.23 3.20 -56.8 0 1 439.58 210.34
  Q 437.51 210.25 436.61 210.62
  A 1.32 1.31 -25.2 0 1 434.96 210.03
  L 432.09 204.75
  A 0.72 0.71 71.5 0 1 432.61 203.70
  Q 446.35 201.58 449.93 200.93
  Q 453.32 200.31 454.41 200.44
  A 2.80 2.75 36.6 0 0 455.72 200.26
  Q 458.27 199.23 461.63 199.44
  A 1.48 1.46 28.6 0 0 462.57 199.17
  Q 463.27 198.69 466.84 198.39
  Q 468.09 198.29 475.77 196.82
  Q 480.66 195.89 484.73 195.47
  Q 492.03 194.72 499.50 193.24
  A 0.03 0.01 -67.5 0 0 499.52 193.22
  L 499.60 192.78
  A 0.25 0.24 1.6 0 0 499.32 192.49
  L 431.51 203.08
  A 0.59 0.59 0.0 0 1 430.89 202.77
  L 430.37 201.81
  A 0.30 0.30 0.0 0 1 430.58 201.37
  L 454.81 197.34
  A 0.49 0.49 0.0 0 1 454.95 197.34
  Q 456.68 197.52 458.71 196.68
  A 2.37 2.36 34.7 0 1 459.71 196.50
  Q 463.58 196.62 467.27 195.43
  Q 467.58 195.33 468.09 195.41
  Q 468.60 195.49 468.92 195.44
  Q 474.47 194.52 493.37 191.62
  Q 495.73 191.26 497.48 190.63
  A 1.30 1.27 -48.2 0 1 498.23 190.58
  Q 499.60 190.88 500.64 190.44
  A 0.09 0.08 -38.1 0 0 500.66 190.29
  Z
  M 439.81 183.60
  Q 439.88 183.63 448.76 182.38
  Q 454.49 181.57 457.30 181.36
  Q 463.23 180.90 468.73 179.70
  Q 469.88 179.45 474.34 180.27
  A 1.02 0.95 47.0 0 0 474.48 180.28
  L 478.68 180.39
  A 0.48 0.46 -60.6 0 0 478.94 180.31
  Q 479.59 179.81 480.27 180.51
  A 0.76 0.72 -23.0 0 0 480.84 180.72
  L 483.32 180.57
  A 0.38 0.38 0.0 0 0 483.43 179.84
  Q 483.22 179.73 481.24 180.23
  A 1.19 1.18 73.2 0 1 479.84 179.47
  Q 479.81 179.40 479.87 179.14
  A 0.55 0.52 38.1 0 0 479.82 178.81
  L 475.96 171.72
  A 2.63 2.61 -19.0 0 0 473.21 170.39
  L 468.32 171.24
  A 0.64 0.64 0.0 0 0 468.37 172.50
  Q 469.51 172.61 469.78 174.06
  A 1.08 1.05 -67.6 0 0 469.93 174.43
  L 472.21 178.09
  A 0.59 0.59 0.0 0 1 471.77 178.99
  Q 461.79 180.07 452.81 181.18
  Q 451.26 181.37 451.16 181.37
  Q 449.47 181.32 449.11 181.73
  A 0.07 0.05 -69.7 0 1 449.06 181.76
  L 439.92 182.84
  A 0.40 0.40 0.0 0 0 439.81 183.60
  Z
  M 466.39 177.09
  A 0.08 0.08 0.0 0 0 466.30 177.02
  L 437.67 180.49
  A 0.30 0.29 -67.7 0 0 437.51 180.56
  Q 436.90 181.11 435.97 180.71
  A 0.38 0.37 -34.9 0 0 435.78 180.68
  L 432.65 181.08
  A 0.73 0.73 0.0 0 1 431.91 180.68
  Q 431.61 180.06 431.56 179.45
  A 0.92 0.90 17.2 0 0 431.21 178.80
  Q 430.50 178.26 430.20 177.32
  A 0.35 0.34 -12.2 0 1 430.50 176.87
  L 443.95 175.48
  A 0.23 0.23 0.0 0 0 444.12 175.13
  L 444.09 175.07
  A 0.19 0.18 -4.9 0 0 443.89 174.91
  Q 430.92 176.02 430.25 176.11
  C 429.30 176.22 428.48 175.48 427.57 175.60
  Q 424.62 176.00 421.74 176.42
  A 1.32 1.29 -78.5 0 0 420.81 177.05
  Q 420.52 177.53 419.35 177.08
  A 0.18 0.18 0.0 0 0 419.18 177.39
  Q 419.93 177.97 420.04 177.92
  A 1.83 1.69 -26.0 0 1 422.41 178.63
  Q 425.55 184.95 425.57 185.17
  A 0.96 0.95 7.6 0 0 426.18 185.96
  Q 427.37 186.41 426.95 187.39
  A 0.39 0.39 0.0 0 0 427.44 187.92
  Q 428.86 187.43 430.70 187.75
  A 0.33 0.33 0.0 0 0 431.08 187.45
  L 431.08 187.40
  A 0.36 0.36 0.0 0 0 430.70 187.02
  L 428.02 187.13
  A 0.26 0.25 89.0 0 1 427.75 186.86
  L 427.76 186.50
  A 0.06 0.06 0.0 0 1 427.81 186.44
  L 433.28 185.63
  A 1.19 1.18 -80.1 0 0 434.14 185.02
  Q 434.88 183.64 436.89 183.95
  A 0.37 0.36 7.5 0 0 437.31 183.63
  L 437.31 183.62
  A 0.24 0.23 2.8 0 0 437.06 183.35
  L 434.08 183.52
  A 1.07 1.05 73.0 0 1 433.10 182.99
  L 432.90 182.64
  A 0.55 0.55 0.0 0 1 433.31 181.81
  L 466.21 177.64
  A 0.25 0.25 0.0 0 0 466.43 177.36
  L 466.39 177.09
  Z
  M 435.0388 192.0229
  A 2.95 0.45 -5.0 0 0 432.0608 191.8317
  A 2.95 0.45 -5.0 0 0 429.1612 192.5371
  A 2.95 0.45 -5.0 0 0 432.1392 192.7283
  A 2.95 0.45 -5.0 0 0 435.0388 192.0229
  Z
  M 473.38 199.76
  Q 477.46 199.90 481.59 198.53
  A 2.15 2.15 0.0 0 1 482.63 198.45
  C 484.01 198.70 485.51 197.95 487.10 197.71
  Q 493.94 196.69 502.06 195.34
  Q 502.93 195.20 504.02 195.58
  A 0.63 0.56 -89.4 0 0 504.72 194.80
  Q 504.64 194.51 504.37 194.31
  Q 504.13 194.12 503.81 194.18
  Q 492.19 196.24 473.35 199.21
  A 0.28 0.28 0.0 0 0 473.38 199.76
  Z"
/>
<rect fill="#6d6c67" x="-1.87" y="-0.87" transform="translate(213.91,156.23) rotate(2.7)" width="3.74" height="1.74" rx="0.75"/>
<ellipse fill="#6d6c67" cx="0.00" cy="0.00" transform="translate(149.05,160.99) rotate(-180.2)" rx="2.58" ry="0.66"/>
<path fill="#5e6b95" d="
  M 213.51 162.86
  L 212.42 163.49
  A 1.05 1.04 -61.9 0 0 213.01 165.44
  L 214.10 165.36
  A 0.30 0.30 0.0 0 1 214.36 165.85
  Q 213.63 166.79 213.26 166.67
  A 3.86 2.40 7.8 0 1 210.99 164.79
  Q 210.70 163.97 209.85 163.99
  C 208.48 164.02 207.17 164.06 206.36 164.43
  A 0.40 0.40 0.0 0 0 206.29 165.11
  Q 206.82 165.52 206.88 165.74
  A 0.47 0.47 0.0 0 1 206.32 166.32
  Q 205.64 166.16 204.90 166.71
  Q 204.47 167.04 203.53 167.14
  C 197.82 167.74 191.92 167.93 185.87 168.47
  Q 175.56 169.38 148.16 171.32
  Q 143.95 171.62 140.85 171.72
  C 138.47 171.80 133.91 172.37 130.37 172.65
  Q 114.01 173.94 87.56 175.95
  A 0.05 0.04 62.9 0 1 87.51 175.93
  L 87.23 175.45
  A 0.41 0.40 -16.5 0 1 87.56 174.85
  L 135.31 171.57
  A 1.33 1.31 17.1 0 0 136.25 171.08
  L 136.99 170.17
  A 1.09 1.08 -72.5 0 1 137.77 169.76
  L 141.14 169.53
  A 0.84 0.83 -14.2 0 1 141.96 170.01
  Q 142.38 170.91 143.01 170.86
  Q 160.25 169.38 186.75 167.60
  Q 193.96 167.11 201.14 166.44
  Q 204.91 166.08 205.36 163.23
  A 0.80 0.80 0.0 0 1 206.10 162.56
  L 213.27 162.07
  A 0.42 0.42 0.0 0 1 213.51 162.86
  Z"
/>
<path fill="#f5dcf3" d="
  M 249.80 239.31
  Q 251.00 240.34 251.23 241.84
  A 0.41 0.41 0.0 0 1 250.73 242.30
  C 249.85 242.09 249.53 241.86 248.77 242.29
  Q 247.11 243.23 245.36 242.79
  A 0.78 0.74 35.0 0 0 244.77 242.88
  L 243.84 243.44
  A 0.37 0.37 0.0 0 0 243.92 244.11
  Q 245.38 244.56 246.39 243.78
  A 0.99 0.98 -58.3 0 1 247.17 243.59
  Q 248.97 243.94 251.24 243.31
  A 0.59 0.58 71.9 0 1 251.94 243.67
  L 252.41 244.94
  A 0.42 0.42 0.0 0 1 252.09 245.50
  L 89.12 273.92
  A 1.01 1.00 -10.8 0 1 87.97 273.14
  L 68.17 180.44
  A 0.61 0.61 0.0 0 1 68.91 179.72
  Q 70.19 180.02 72.65 179.52
  C 74.72 179.11 77.71 180.01 79.43 178.93
  A 1.27 1.25 -49.0 0 1 80.61 178.84
  Q 83.26 180.00 85.17 178.60
  A 1.66 1.64 32.7 0 1 86.48 178.32
  Q 89.02 178.86 90.34 178.24
  C 92.54 177.21 93.87 178.27 96.35 177.72
  C 98.43 177.25 100.36 178.03 102.55 177.27
  A 2.75 2.73 -54.7 0 1 103.35 177.13
  Q 111.61 176.90 119.24 176.02
  C 122.61 175.63 130.51 175.43 136.19 174.78
  Q 141.10 174.22 142.63 174.43
  Q 144.64 174.71 146.89 173.75
  A 0.75 0.74 -4.3 0 1 147.91 174.62
  Q 147.76 175.17 147.92 175.68
  A 0.28 0.28 0.0 0 0 148.46 175.60
  Q 148.46 175.01 148.62 174.61
  A 1.35 1.33 -81.2 0 1 149.77 173.76
  L 205.91 169.27
  A 2.01 1.90 46.7 0 1 206.43 169.30
  Q 208.40 169.73 210.06 169.01
  A 2.00 1.95 -52.3 0 1 211.05 168.87
  Q 213.10 169.14 214.47 168.62
  A 1.76 1.70 40.7 0 1 215.50 168.56
  C 218.12 169.20 219.27 167.92 221.84 168.56
  A 1.17 1.14 -55.2 0 0 222.77 168.38
  L 223.29 168.00
  A 0.61 0.60 61.7 0 1 224.21 168.28
  L 227.02 175.94
  A 0.41 0.41 0.0 0 1 226.60 176.50
  Q 223.43 176.27 219.65 177.54
  A 0.56 0.26 19.9 0 1 219.54 177.55
  L 211.43 177.72
  A 0.56 0.52 -65.3 0 0 211.06 177.87
  Q 210.31 178.55 208.54 178.43
  Q 204.81 178.18 195.68 179.43
  A 2.98 2.63 -42.2 0 1 194.97 179.44
  Q 191.31 179.10 186.65 180.10
  Q 183.19 180.83 176.15 180.47
  A 1.22 1.22 0.0 0 0 175.18 180.87
  C 174.20 181.95 170.31 181.59 166.76 181.57
  A 4.32 4.24 36.1 0 0 165.53 181.75
  L 164.28 182.14
  A 4.34 4.28 -55.7 0 1 163.32 182.33
  L 140.53 184.06
  A 0.04 0.03 -75.1 0 0 140.50 184.08
  L 140.26 184.66
  A 0.27 0.27 0.0 0 0 140.51 185.03
  Q 142.95 185.02 144.03 184.43
  A 1.45 1.41 36.2 0 1 145.01 184.29
  Q 147.55 184.80 148.89 184.38
  C 150.83 183.79 152.19 184.89 154.34 183.84
  C 155.42 183.31 156.59 183.89 157.25 183.63
  Q 157.46 183.55 168.33 182.67
  Q 168.71 182.64 170.65 182.25
  C 172.28 181.92 173.45 182.52 175.55 181.82
  A 3.64 3.60 -55.6 0 1 176.43 181.65
  Q 178.55 181.51 186.64 181.27
  C 188.45 181.21 189.92 180.54 191.90 180.61
  Q 195.00 180.71 199.29 179.71
  A 4.18 3.84 37.1 0 1 200.23 179.62
  Q 206.72 179.86 212.93 178.57
  A 5.53 5.46 -48.1 0 1 214.44 178.48
  Q 218.69 178.84 222.53 177.54
  A 1.23 1.23 0.0 0 1 223.47 177.59
  Q 224.69 178.19 226.64 177.61
  A 1.15 1.13 -36.3 0 1 227.59 177.75
  Q 228.05 178.04 228.25 179.30
  A 0.28 0.28 0.0 0 1 227.82 179.57
  Q 227.33 179.23 226.26 179.37
  Q 223.32 179.75 221.04 180.35
  A 6.58 6.57 -50.8 0 1 219.07 180.55
  Q 215.01 180.33 211.63 181.28
  A 3.18 3.02 37.0 0 1 210.58 181.40
  Q 206.17 181.14 201.96 182.26
  A 1.31 0.97 -21.5 0 1 201.78 182.29
  L 136.11 187.86
  A 0.23 0.23 0.0 0 0 135.92 188.17
  L 136.20 188.92
  A 0.39 0.39 0.0 0 0 136.63 189.17
  L 140.72 188.45
  A 0.86 0.83 45.8 0 1 141.06 188.46
  Q 143.48 189.00 145.50 188.07
  A 0.19 0.15 -52.0 0 1 145.58 188.05
  L 212.55 182.20
  A 0.72 0.70 18.3 0 0 213.03 181.97
  Q 213.60 181.36 214.52 181.44
  Q 220.03 181.93 223.66 180.54
  A 1.04 1.01 -39.6 0 1 224.57 180.61
  Q 225.76 181.30 227.54 180.63
  A 1.13 1.13 0.0 0 1 228.99 181.30
  L 230.44 185.22
  A 0.26 0.26 0.0 0 1 230.19 185.57
  Q 227.09 185.54 227.27 186.87
  A 0.41 0.41 0.0 0 0 227.77 187.22
  L 230.30 186.68
  A 0.70 0.69 73.8 0 1 231.09 187.12
  L 234.05 195.17
  A 0.26 0.26 0.0 0 1 233.69 195.49
  Q 232.08 194.74 230.16 195.74
  A 1.26 1.26 0.0 0 1 229.22 195.84
  Q 227.73 195.42 225.92 196.27
  A 0.23 0.23 0.0 0 0 225.96 196.70
  Q 228.04 197.30 229.74 196.45
  A 0.41 0.41 0.0 0 1 230.33 196.75
  L 230.41 197.18
  A 0.26 0.26 0.0 0 0 230.76 197.38
  L 233.69 196.30
  A 0.75 0.75 0.0 0 1 234.56 196.57
  Q 235.27 197.56 235.17 198.70
  A 1.11 1.11 0.0 0 0 235.49 199.59
  Q 236.22 200.33 236.28 201.13
  A 0.52 0.52 0.0 0 1 235.64 201.68
  Q 234.89 201.50 234.59 201.50
  A 0.76 0.71 -20.7 0 0 233.99 202.71
  Q 234.47 203.19 236.53 202.70
  A 0.26 0.26 0.0 0 1 236.83 202.86
  L 247.22 231.12
  A 0.58 0.58 0.0 0 1 246.53 231.88
  Q 245.39 231.58 244.62 232.56
  A 0.38 0.37 -61.4 0 0 244.79 233.15
  Q 246.45 233.70 247.09 232.69
  A 0.40 0.40 0.0 0 1 247.78 232.72
  Q 248.72 234.49 248.69 235.43
  A 1.29 1.29 0.0 0 0 248.98 236.30
  Q 250.16 237.75 249.68 238.67
  A 0.52 0.51 -55.8 0 0 249.80 239.31
  Z
  M 229.50 209.54
  Q 227.38 203.44 227.11 202.95
  Q 226.52 201.88 225.02 201.88
  A 0.37 0.37 0.0 0 0 224.73 202.48
  Q 227.55 206.03 227.10 209.58
  A 0.53 0.53 0.0 0 0 227.61 210.18
  L 229.00 210.23
  A 0.52 0.51 81.4 0 0 229.50 209.54
  Z
  M 224.16 205.73
  Q 224.96 206.50 225.35 207.71
  A 0.40 0.39 54.8 0 0 226.04 207.83
  Q 226.29 207.50 225.85 206.56
  Q 225.40 205.58 224.83 205.03
  Q 224.27 204.48 223.27 204.06
  Q 222.32 203.65 222.00 203.91
  A 0.40 0.39 33.5 0 0 222.14 204.60
  Q 223.36 204.95 224.16 205.73
  Z
  M 137.81 223.81
  L 134.86 210.01
  A 1.15 1.15 0.0 0 0 133.59 209.11
  L 119.17 210.93
  A 1.01 1.00 9.9 0 0 118.42 211.45
  Q 117.82 212.58 118.68 213.35
  A 0.72 0.66 16.1 0 1 118.88 213.68
  L 121.79 225.65
  A 1.03 1.03 0.0 0 0 123.35 226.27
  L 123.86 225.94
  A 1.06 1.03 24.1 0 1 124.30 225.78
  L 137.60 224.10
  A 0.25 0.24 81.2 0 0 137.81 223.81
  Z"
/>
<path fill="#6d6c67" d="
  M 439.92 182.84
  L 449.06 181.76
  A 0.07 0.05 -69.7 0 0 449.11 181.73
  Q 449.47 181.32 451.16 181.37
  Q 451.26 181.37 452.81 181.18
  Q 461.79 180.07 471.77 178.99
  A 0.59 0.59 0.0 0 0 472.21 178.09
  L 469.93 174.43
  A 1.08 1.05 -67.6 0 1 469.78 174.06
  Q 469.51 172.61 468.37 172.50
  A 0.64 0.64 0.0 0 1 468.32 171.24
  L 473.21 170.39
  A 2.63 2.61 -19.0 0 1 475.96 171.72
  L 479.82 178.81
  A 0.55 0.52 38.1 0 1 479.87 179.14
  Q 479.81 179.40 479.84 179.47
  A 1.19 1.18 73.2 0 0 481.24 180.23
  Q 483.22 179.73 483.43 179.84
  A 0.38 0.38 0.0 0 1 483.32 180.57
  L 480.84 180.72
  A 0.76 0.72 -23.0 0 1 480.27 180.51
  Q 479.59 179.81 478.94 180.31
  A 0.48 0.46 -60.6 0 1 478.68 180.39
  L 474.48 180.28
  A 1.02 0.95 47.0 0 1 474.34 180.27
  Q 469.88 179.45 468.73 179.70
  Q 463.23 180.90 457.30 181.36
  Q 454.49 181.57 448.76 182.38
  Q 439.88 183.63 439.81 183.60
  A 0.40 0.40 0.0 0 1 439.92 182.84
  Z"
/>
<path fill="#5e6b95" d="
  M 28.90 174.56
  Q 28.26 175.06 28.23 173.40
  A 1.77 1.64 42.8 0 0 28.21 173.14
  Q 28.06 172.06 28.16 171.33
  A 0.20 0.20 0.0 0 1 28.55 171.32
  L 29.05 174.18
  A 0.41 0.39 -24.6 0 1 28.90 174.56
  Z"
/>
<path fill="#5e6b95" d="
  M 400.41 176.21
  L 400.39 174.46
  L 400.41 176.21
  Z"
/>
<path fill="#6d6c67" d="
  M 466.39 177.09
  L 466.43 177.36
  A 0.25 0.25 0.0 0 1 466.21 177.64
  L 433.31 181.81
  A 0.55 0.55 0.0 0 0 432.90 182.64
  L 433.10 182.99
  A 1.07 1.05 73.0 0 0 434.08 183.52
  L 437.06 183.35
  A 0.24 0.23 2.8 0 1 437.31 183.62
  L 437.31 183.63
  A 0.37 0.36 7.5 0 1 436.89 183.95
  Q 434.88 183.64 434.14 185.02
  A 1.19 1.18 -80.1 0 1 433.28 185.63
  L 427.81 186.44
  A 0.06 0.06 0.0 0 0 427.76 186.50
  L 427.75 186.86
  A 0.26 0.25 89.0 0 0 428.02 187.13
  L 430.70 187.02
  A 0.36 0.36 0.0 0 1 431.08 187.40
  L 431.08 187.45
  A 0.33 0.33 0.0 0 1 430.70 187.75
  Q 428.86 187.43 427.44 187.92
  A 0.39 0.39 0.0 0 1 426.95 187.39
  Q 427.37 186.41 426.18 185.96
  A 0.96 0.95 7.6 0 1 425.57 185.17
  Q 425.55 184.95 422.41 178.63
  A 1.83 1.69 -26.0 0 0 420.04 177.92
  Q 419.93 177.97 419.18 177.39
  A 0.18 0.18 0.0 0 1 419.35 177.08
  Q 420.52 177.53 420.81 177.05
  A 1.32 1.29 -78.5 0 1 421.74 176.42
  Q 424.62 176.00 427.57 175.60
  C 428.48 175.48 429.30 176.22 430.25 176.11
  Q 430.92 176.02 443.89 174.91
  A 0.19 0.18 -4.9 0 1 444.09 175.07
  L 444.12 175.13
  A 0.23 0.23 0.0 0 1 443.95 175.48
  L 430.50 176.87
  A 0.35 0.34 -12.2 0 0 430.20 177.32
  Q 430.50 178.26 431.21 178.80
  A 0.92 0.90 17.2 0 1 431.56 179.45
  Q 431.61 180.06 431.91 180.68
  A 0.73 0.73 0.0 0 0 432.65 181.08
  L 435.78 180.68
  A 0.38 0.37 -34.9 0 1 435.97 180.71
  Q 436.90 181.11 437.51 180.56
  A 0.30 0.29 -67.7 0 1 437.67 180.49
  L 466.30 177.02
  A 0.08 0.08 0.0 0 1 466.39 177.09
  Z
  M 427.9903 178.0054
  A 3.30 0.38 -120.8 0 0 429.3536 181.0346
  A 3.30 0.38 -120.8 0 0 431.3697 183.6746
  A 3.30 0.38 -120.8 0 0 430.0064 180.6454
  A 3.30 0.38 -120.8 0 0 427.9903 178.0054
  Z"
/>
<ellipse fill="#5e6b95" cx="0.00" cy="0.00" transform="translate(429.68,180.84) rotate(-120.8)" rx="3.30" ry="0.38"/>
<path fill="#5e6b95" d="
  M 379.16 183.51
  Q 380.54 182.94 380.78 183.11
  A 0.34 0.34 0.0 0 1 380.63 183.75
  L 379.21 183.76
  A 0.13 0.13 0.0 0 1 379.16 183.51
  Z"
/>
<path fill="#f5dcf3" d="
  M 393.20 184.95
  Q 396.35 185.47 399.49 186.01
  Q 399.92 186.09 400.07 186.53
  L 400.09 187.21
  L 399.86 187.96
  Q 399.89 187.57 399.48 187.22
  A 0.05 0.01 31.7 0 0 399.45 187.21
  L 392.16 185.72
  A 0.38 0.38 0.0 0 1 392.09 184.99
  Q 392.54 184.82 393.20 184.95
  Z"
/>
<ellipse fill="#5e6b95" cx="0.00" cy="0.00" transform="translate(357.41,187.12) rotate(-3.3)" rx="1.33" ry="1.00"/>
<path fill="#6d6c67" d="
  M 400.09 187.21
  L 400.07 186.53
  Q 400.23 186.75 400.09 187.21
  Z"
/>
<ellipse fill="#6d6c67" cx="0.00" cy="0.00" transform="translate(432.10,192.28) rotate(-5.0)" rx="2.95" ry="0.45"/>
<path fill="#6d6c67" d="
  M 473.38 199.76
  A 0.28 0.28 0.0 0 1 473.35 199.21
  Q 492.19 196.24 503.81 194.18
  Q 504.13 194.12 504.37 194.31
  Q 504.64 194.51 504.72 194.80
  A 0.63 0.56 -89.4 0 1 504.02 195.58
  Q 502.93 195.20 502.06 195.34
  Q 493.94 196.69 487.10 197.71
  C 485.51 197.95 484.01 198.70 482.63 198.45
  A 2.15 2.15 0.0 0 0 481.59 198.53
  Q 477.46 199.90 473.38 199.76
  Z"
/>
<path fill="#6d6c67" d="
  M 229.00 210.23
  L 227.61 210.18
  A 0.53 0.53 0.0 0 1 227.10 209.58
  Q 227.55 206.03 224.73 202.48
  A 0.37 0.37 0.0 0 1 225.02 201.88
  Q 226.52 201.88 227.11 202.95
  Q 227.38 203.44 229.50 209.54
  A 0.52 0.51 81.4 0 1 229.00 210.23
  Z"
/>
<path fill="#6d6c67" d="
  M 224.83 205.03
  Q 225.40 205.58 225.85 206.56
  Q 226.29 207.50 226.04 207.83
  A 0.40 0.39 54.8 0 1 225.35 207.71
  Q 224.96 206.50 224.16 205.73
  Q 223.36 204.95 222.14 204.60
  A 0.40 0.39 33.5 0 1 222.00 203.91
  Q 222.32 203.65 223.27 204.06
  Q 224.27 204.48 224.83 205.03
  Z"
/>
<path fill="#6d6c67" d="
  M 137.81 223.81
  A 0.25 0.24 81.2 0 1 137.60 224.10
  L 124.30 225.78
  A 1.06 1.03 24.1 0 0 123.86 225.94
  L 123.35 226.27
  A 1.03 1.03 0.0 0 1 121.79 225.65
  L 118.88 213.68
  A 0.72 0.66 16.1 0 0 118.68 213.35
  Q 117.82 212.58 118.42 211.45
  A 1.01 1.00 9.9 0 1 119.17 210.93
  L 133.59 209.11
  A 1.15 1.15 0.0 0 1 134.86 210.01
  L 137.81 223.81
  Z"
/>
<path fill="#f5dcf3" d="
  M 319.48 220.63
  L 319.91 215.94
  A 0.46 0.45 26.6 0 1 320.70 215.68
  Q 321.29 216.31 321.95 215.85
  A 0.65 0.64 -14.9 0 0 322.22 215.39
  L 322.69 210.31
  A 1.15 1.06 67.4 0 1 322.88 209.79
  Q 323.69 208.63 325.58 209.63
  A 0.50 0.50 0.0 0 1 325.59 210.50
  L 324.48 211.14
  A 0.90 0.89 -18.0 0 0 324.04 211.99
  Q 324.37 215.19 323.12 217.56
  C 322.08 219.53 322.16 220.74 321.83 222.67
  A 0.14 0.14 0.0 0 1 321.60 222.75
  L 319.60 220.95
  A 0.38 0.38 0.0 0 1 319.48 220.63
  Z"
/>
<path fill="#5e6b95" d="
  M 390.77 235.94
  Q 390.72 235.71 390.29 235.50
  Q 390.99 235.48 390.77 235.94
  Z"
/>
<path fill="#f5dcf3" d="
  M 271.34 249.89
  L 270.57 247.78
  A 0.63 0.63 0.0 0 1 271.48 247.02
  L 284.44 254.51
  A 0.63 0.63 0.0 0 1 284.35 255.64
  L 282.59 256.29
  A 0.63 0.63 0.0 0 1 282.05 256.24
  L 271.62 250.21
  A 0.63 0.63 0.0 0 1 271.34 249.89
  Z"
/>
<path fill="#5e6b95" d="
  M 382.06 250.32
  Q 381.05 250.81 380.77 250.22
  Q 381.39 250.15 382.06 250.32
  Z"
/>
<path fill="#5e6b95" d="
  M 387.62 252.67
  Q 387.84 253.69 386.81 254.83
  A 1.43 1.42 17.1 0 1 385.94 255.29
  L 380.62 255.96
  A 0.93 0.93 0.0 0 0 379.95 256.40
  Q 379.48 257.21 379.17 257.24
  A 1.81 1.68 9.3 0 1 377.30 254.83
  Q 377.84 253.73 376.33 252.52
  Q 378.48 252.81 380.27 253.42
  Q 381.90 253.98 387.62 252.67
  Z"
/>
<path fill="#5e6b95" d="
  M 348.45 253.56
  Q 348.34 254.14 349.07 254.32
  Q 350.99 254.78 352.92 256.48
  A 0.97 0.95 23.8 0 1 353.25 257.30
  L 352.82 261.95
  A 0.99 0.98 15.8 0 1 351.40 262.74
  L 346.95 260.54
  A 2.02 2.02 0.0 0 1 345.84 258.54
  L 346.24 254.20
  A 0.49 0.49 0.0 0 1 346.86 253.77
  Q 347.53 253.97 348.17 253.40
  A 0.17 0.17 0.0 0 1 348.45 253.56
  Z"
/>
<path fill="#f5dcf3" d="
  M 267.96 268.56
  Q 267.61 270.26 267.14 270.18
  Q 265.75 270.25 266.99 272.52
  A 0.84 0.82 -8.8 0 0 267.58 272.94
  Q 268.95 273.18 268.90 274.99
  Q 268.55 289.40 268.10 294.03
  Q 267.69 298.29 269.26 300.27
  A 0.26 0.26 0.0 0 1 269.04 300.70
  L 266.76 300.60
  A 0.50 0.50 0.0 0 0 266.24 301.08
  L 265.97 307.02
  A 1.06 1.06 0.0 0 1 265.12 308.01
  L 264.85 308.07
  A 0.75 0.75 0.0 0 1 264.01 307.28
  Q 265.36 286.01 265.65 272.98
  Q 265.67 271.92 265.38 270.15
  A 1.69 1.37 48.4 0 1 265.36 269.72
  L 266.24 258.00
  A 0.75 0.75 0.0 0 1 267.41 257.43
  L 267.80 257.68
  A 1.82 1.81 -70.2 0 1 268.55 259.28
  L 267.96 268.56
  Z"
/>
<path fill="#f5dcf3" d="
  M 200.58 259.60
  L 200.77 259.34
  A 0.18 0.18 0.0 0 1 201.02 259.31
  L 221.58 274.98
  A 0.18 0.18 0.0 0 1 221.65 275.13
  L 221.54 278.30
  A 0.18 0.18 0.0 0 1 221.24 278.43
  L 200.60 259.84
  A 0.18 0.18 0.0 0 1 200.58 259.60
  Z"
/>
<path fill="#5e6b95" d="
  M 267.14 270.18
  Q 267.61 270.26 267.96 268.56
  Q 275.98 269.12 283.58 266.19
  A 0.89 0.89 0.0 0 0 283.45 264.49
  L 269.49 261.42
  A 0.62 0.62 0.0 0 1 269.01 260.74
  L 269.01 260.71
  A 0.70 0.69 6.9 0 1 269.77 260.12
  C 270.61 260.20 271.76 260.03 272.41 260.17
  Q 280.65 261.95 289.35 263.55
  A 0.51 0.50 -46.2 0 1 289.37 264.54
  Q 288.69 264.70 287.73 264.82
  Q 286.59 264.98 286.22 265.41
  Q 285.47 266.30 286.27 267.39
  A 0.55 0.55 0.0 0 1 286.19 268.12
  Q 285.19 269.02 284.72 268.45
  A 0.40 0.40 0.0 0 0 284.35 268.32
  L 276.72 269.95
  A 0.55 0.55 0.0 0 0 276.70 271.02
  L 280.23 271.95
  A 0.22 0.21 11.9 0 1 280.39 272.19
  L 280.39 272.20
  A 0.20 0.19 -80.0 0 1 280.18 272.35
  L 267.14 270.18
  Z"
/>
<path fill="#5e6b95" d="
  M 298.55 275.05
  L 291.12 273.98
  A 0.19 0.19 0.0 0 1 291.14 273.61
  Q 292.88 273.52 293.56 271.82
  A 1.19 1.18 44.7 0 0 293.55 270.92
  Q 292.59 268.60 290.52 266.61
  A 1.09 1.09 0.0 0 1 291.35 264.74
  Q 291.42 264.75 291.85 265.38
  Q 292.81 266.80 294.50 268.38
  A 0.76 0.74 -73.7 0 1 294.74 268.83
  Q 294.85 269.56 295.39 269.64
  Q 295.70 269.69 295.85 269.53
  Q 296.01 269.36 296.07 269.36
  A 0.25 0.25 0.0 0 1 296.31 269.65
  Q 296.08 270.91 296.91 270.98
  A 0.22 0.21 17.5 0 1 297.08 271.30
  L 296.18 272.86
  A 0.56 0.55 30.1 0 0 296.39 273.61
  L 298.61 274.89
  A 0.09 0.09 0.0 0 1 298.55 275.05
  Z"
/>
<path fill="#5e6b95" d="
  M 279.05 283.01
  L 276.83 282.60
  A 0.68 0.68 0.0 0 1 276.28 281.91
  L 276.41 277.96
  A 0.43 0.42 5.5 0 1 276.90 277.56
  L 279.82 277.98
  A 0.34 0.34 0.0 0 1 280.03 278.54
  Q 279.28 279.40 280.18 280.21
  A 0.70 0.69 -51.6 0 1 280.28 281.13
  Q 279.52 282.22 279.56 282.50
  A 0.44 0.43 -0.4 0 1 279.05 283.01
  Z"
/>
<path fill="#5e6b95" d="
  M 250.58 328.80
  Q 241.46 327.18 233.74 323.01
  Q 233.59 322.29 232.77 322.51
  Q 232.65 322.45 232.53 322.38
  Q 232.75 322.21 232.44 321.94
  A 0.29 0.26 63.6 0 0 232.26 321.87
  L 231.73 321.84
  Q 225.35 317.20 220.27 311.05
  A 6.15 5.94 86.9 0 0 219.14 310.00
  C 212.31 305.15 207.74 302.01 203.05 296.61
  L 204.52 287.07
  A 0.28 0.28 0.0 0 1 205.02 286.94
  Q 210.05 293.43 213.75 296.45
  Q 220.52 301.99 224.18 305.34
  C 231.16 311.75 238.34 315.27 247.20 316.21
  A 1.35 1.34 -9.4 0 1 248.28 316.98
  Q 250.98 322.94 250.58 328.80
  Z"
/>
<path fill="#6d6c67" d="
  M 232.53 322.38
  L 231.73 321.84
  L 232.26 321.87
  A 0.29 0.26 63.6 0 1 232.44 321.94
  Q 232.75 322.21 232.53 322.38
  Z"
/>
<path fill="#6d6c67" d="
  M 233.74 323.01
  L 232.77 322.51
  Q 233.59 322.29 233.74 323.01
  Z"
/>
<path fill="#5e6b95" d="
  M 355.01 341.79
  Q 355.30 343.58 354.85 345.29
  Q 354.59 343.46 355.01 341.79
  Z"
/>
<path fill="#5e6b95" d="
  M 354.38 350.21
  L 354.35 351.21
  L 354.38 350.21
  Z"
/>
<path fill="#5e6b95" d="
  M 342.20 386.12
  Q 340.42 388.55 338.71 387.65
  L 342.20 386.12
  Z"
/>
</svg>
