<?xml version="1.0" encoding="UTF-8" standalone="no"?>
<!-- Created with Inkscape (http://www.inkscape.org/) -->

<svg
   version="1.1"
   id="svg1"
   width="163.84"
   height="125.12"
   viewBox="0 0 163.84 125.12"
   xmlns="http://www.w3.org/2000/svg"
   xmlns:svg="http://www.w3.org/2000/svg"
   xmlns:rdf="http://www.w3.org/1999/02/22-rdf-syntax-ns#"
   xmlns:cc="http://creativecommons.org/ns#"
   xmlns:dc="http://purl.org/dc/elements/1.1/">
  <title
     id="title1">CloudSat Icon SVG</title>
  <defs
     id="defs1" />
  <g
     id="g1">
    <path
       style="fill:currentColor"
       d="m 105.44478,124.49506 c -2.19019,-3.02809 2.64649,-4.02108 2.87495,-5.03609 -2.68486,1.88344 1.66948,-1.36693 2.39422,-2.01408 2.73361,-3.56061 5.98221,-15.46589 -2.19889,-11.15947 -9.249658,2.0119 -18.783979,1.67828 -27.915063,-0.77994 -6.235353,0.0193 -8.928872,-5.20099 -13.738874,-8.545448 -0.692699,0.485255 -4.1811,-4.492615 -0.781114,-0.16 -5.587329,-2.035884 -0.657548,-12.506815 -5.078197,-12.185318 -0.727539,-0.08738 -3.263602,-0.457101 -6.533849,0.09142 -8.028308,1.30701 -16.029772,2.18196 -23.916596,4.082948 C 23.827322,90.157734 26.498489,78.056971 23.915674,73.71406 21.81412,68.880326 22.843963,59.557581 19.470172,56.885541 15.213316,56.434351 10.241776,58.863532 7.5066525,55.824022 9.1755123,51.634631 7.0218108,45.575922 5.7456958,40.703306 4.3349609,36.721729 5.2265108,30.262058 3.3033818,25.212406 -1.343323,19.385964 18.401664,24.901184 12.94325,21.364865 11.628872,14.297208 9.6687574,7.1729668 8.7746276,0.13660713 22.854926,0.58796715 36.914047,2.6634375 50.985556,3.7517918 c 6.692054,0.3717601 5.466527,10.8039942 8.70527,15.3968692 -0.04063,4.245163 1.992286,4.499109 4.397259,5.776555 1.83938,3.502881 1.926301,8.957896 5.713059,10.594788 3.263712,-2.56184 5.17243,4.781791 7.242005,0.547941 -2.987119,-0.578977 -8.222418,-2.836496 -4.078251,-5.587941 1.958947,-4.536639 7.265401,0.30306 10.142011,-2.018894 3.937162,0.146938 4.871878,-2.121079 7.739731,0.571409 7.767938,-2.756416 -8.420391,-1.458808 -9.264568,-2.935873 10.4386,-0.209642 20.960178,-0.07886 31.329028,1.216318 -0.36876,1.771666 3.80314,4.113225 0.94112,-0.307337 2.02793,-5.768803 -6.43144,-11.759201 -6.65534,-17.5740077 7.63488,-0.1243812 15.25327,1.4417867 22.89999,1.7683847 4.48687,3.912817 6.45262,11.269656 10.26955,15.026109 7.24929,-0.388846 7.98638,9.748129 12.45654,14.093892 2.85493,2.723823 4.08765,6.284873 0.43595,6.906896 3.52631,5.781872 7.36393,11.392657 10.49764,17.399132 -6.72245,2.375887 -14.42793,2.549796 -21.43761,4.28329 -6.73965,1.2744 -7.26877,-10.033482 -11.28333,-14.213484 -1.2303,-2.221246 -3.47186,-8.958046 -5.59594,-4.563207 4.44587,-0.948799 2.31147,5.234575 2.72515,7.890103 -3.26809,0.06637 -4.7011,0.909873 -0.0169,1.477686 0.19825,4.026988 -2.20715,6.395178 -4.33782,6.991409 -0.27437,3.37076 -2.02874,7.813882 3.01371,7.817254 2.79325,4.341925 -6.47745,-2.48729 -4.01143,3.805806 -2.70389,4.040664 0.28629,1.489603 2.30769,3.261442 3.2858,-0.392974 3.10873,7.253567 1.59633,8.704477 0.19235,0.52995 1.20809,4.175459 0.84364,7.676922 -1.80828,1.50754 -6.13106,6.507469 -5.58023,11.513189 0.60341,3.63363 -2.88231,9.97375 -3.34066,8.8707 -2.35113,1.35214 -1.71463,1.96748 -4.24561,2.64421 -2.10091,2.0387 -5.84185,4.49046 -8.94867,3.70956 z M 94.997734,96.459042 c 2.17001,-5.839292 -0.950805,-10.139544 -7.154236,-9.269223 -3.615441,1.100364 -0.303138,5.747592 -1.551702,8.625315 2.457434,0.196637 5.154025,1.309219 4.935058,-2.801751 1.240706,1.469162 -0.861884,5.422381 3.77088,3.445659 z m -7.317736,-2.848997 c 1.070105,-3.240185 0.64639,3.455297 0,0 z m 5.76,0.469957 c 0.817582,-1.147985 0.817582,1.147985 0,0 z m -3.68,-0.64 c -0.01398,-1.076029 0.982406,1.066018 0,0 z m 3.68,-0.96 c 0.817582,-1.147985 0.817582,1.147985 0,0 z M 91.267381,91.98783 c 0.141076,-0.727221 -6.106685,-1.479306 -2.502358,-4.174956 1.359924,2.745456 2.911457,-2.022751 3.878132,2.533388 -2.038039,0.536916 0.629596,3.079402 -1.375774,1.641568 z m -1.347383,-0.147828 c -2.506548,-1.231853 2.10419,0.274307 0,0 z M 28.746483,88.473553 C 28.21452,87.719383 25.629894,78.801675 25.158382,74.781978 24.665543,69.139341 20.903251,61.773301 22.450941,57.193655 25.084475,56.71183 18.393092,56.845621 21.6231,59.841293 c 2.185957,9.574607 3.693857,19.335225 6.154872,28.82479 l 0.331936,-0.19886 z m 2.453516,-0.494952 c 1.502025,-0.146565 5.424162,-1.060136 0.199811,-0.594775 -4.729812,0.06125 1.603238,1.547544 -0.199811,0.594775 z m 5.12,-0.938599 c -2.328829,-1.190971 -1.144592,1.019271 0,0 z m 2.915859,-0.554825 c 3.187973,-0.344749 4.638853,-0.818993 7.854306,-1.443008 -1.554506,-0.572791 -14.502175,2.440404 -7.854306,1.443008 z m 64.677472,0.361492 c -1.36725,-0.364989 -0.34976,0.590519 0,0 z m 1.6,-0.32 c -1.36725,-0.364989 -0.34976,0.590519 0,0 z M 85.338595,85.380002 c -0.563792,-0.606978 0.201806,1.846516 0,0 z m 25.934735,-0.133333 c -1.36725,-0.364989 -0.34976,0.590519 0,0 z M 49.107385,84.779592 c 1.68804,-0.04548 10.049585,-1.875925 6.93553,-1.639138 -1.173801,0.184252 -10.900199,1.68296 -6.93553,1.639138 z m 52.469765,-7.834637 c 0.92694,-11.429538 1.10188,-22.9526 2.52955,-34.322599 1.63051,0.406505 0.82374,3.592092 4.60901,1.957228 3.39016,1.557203 5.77126,2.714723 6.33285,-0.519943 0.23024,-3.531814 3.27688,-3.636461 5.59301,-4.148659 2.91155,-5.446081 -4.49325,-5.174402 -5.71028,-1.319588 -2.09973,2.957441 -11.60286,7.507079 -8.8508,0.448603 3.56884,-3.686664 -7.032556,-4.334308 -6.240002,-1.243941 1.237262,3.982987 -1.706691,8.901002 0.305762,12.403474 -1.370678,6.344644 -1.268052,13.318261 -2.071151,19.898473 0.188054,4.092863 -3.057552,14.32931 3.018221,13.358492 0.18373,-2.168689 0.33429,-4.341117 0.48383,-6.51154 z m -3.914769,4.495047 c 0.234762,-1.860833 0.138991,2.005122 0,0 z m 0.28288,-4.186667 c 0.295659,-1.197688 0.136737,1.390431 0,0 z M 112.58,45.861405 c 1.8465,-0.201805 -0.607,0.563783 0,0 z m -9.47762,-1.541404 c 0.23506,-1.860812 0.13868,2.005252 0,0 z m 6.91762,-0.0586 c 1.8465,-0.201803 -0.607,0.563781 0,0 z m -4.31583,-0.312244 c 3.97235,-0.754576 5.13261,0.926432 0,0 z M 118.32,39.774166 c 3.49827,-0.301277 0.20375,0.48983 0,0 z M 59.279999,82.668072 c -1.991295,-0.317441 -0.02482,0.553672 0,0 z m 1.92,-0.32 c -1.991294,-0.31744 -0.02482,0.553668 0,0 z m 43.424251,-0.134587 c 4.85142,-1.708945 -6.441399,1.132794 0,0 z M 63.446089,82.030102 c -4.489394,-0.183908 0.802107,0.407005 0,0 z m 22.869826,-4.6701 c -0.400701,1.115073 0.184555,6.889104 0,0 z m -21.275916,4.34807 c -1.991294,-0.31744 -0.02482,0.553668 0,0 z m 1.92609,-0.31797 c -4.489394,-0.183908 0.802107,0.407005 0,0 z m 42.002381,-0.368299 c -1.36566,0.230405 -0.32557,0.862546 0,0 z m -40.408472,0.04627 c -1.991294,-0.31744 -0.02482,0.553668 0,0 z m 1.753334,-0.301404 c -1.578558,-0.546496 -0.228662,0.658418 0,0 z m 2.326666,-0.320903 c -1.979599,-0.724543 -1.029645,1.072639 0,0 z m 32.105742,0.170304 c 2.26157,-1.925227 4.35264,-4.326369 6.47204,-7.057626 4.53719,-2.410067 0.32886,-10.058607 -2.39966,-3.320776 -3.08363,1.904832 -0.11827,4.139869 -3.32625,4.783581 0.0854,-6.815614 -5.85045,8.526217 -0.74613,5.594821 z M 73.999998,80.108072 c -1.991294,-0.31744 -0.02482,0.553668 0,0 z m 2.246091,-0.31797 c -4.489137,-0.183914 0.801912,0.407008 0,0 z m 1.593909,-0.32203 c -1.991294,-0.31744 -0.02482,0.553668 0,0 z m 1.753334,-0.301404 c -1.578558,-0.546496 -0.228662,0.658418 0,0 z m 1.681766,-0.366666 c -0.651779,-0.975957 -1.023076,1.747613 0,0 z m 40.324902,0.24 c -0.29012,-1.103734 -0.87872,1.194559 0,0 z m -32.984347,-5.52 c 0.224262,-2.626823 -0.137801,-5.237857 -0.891856,-3.368296 -0.433648,-5.845765 -1.378593,14.087293 0.861082,6.270444 0.02757,-0.967103 0.03493,-1.934695 0.03077,-2.902148 z m 32.302667,4.3e-5 c -3.27336,-3.577147 2.24003,6.87178 0.83937,0.924451 z m 4.14453,1.279957 c -3.4002,-2.311037 -4.75303,-1.298833 -0.44572,0.180554 -0.0435,0.349568 1.26424,0.158935 0.44572,-0.180554 z M 86.634717,70.32846 c -0.409586,1.557902 0.294278,3.733353 -1.3e-5,0 z M 122.24,72.021566 c -3.13073,-2.809211 2.27213,-2.015121 0.32315,-6.421565 -4.0463,-2.864091 -2.02329,8.697636 -0.32315,6.421565 z m -0.26948,-4.181565 c 0.23999,-1.769511 0.23998,1.769489 0,0 z m -1.28,-0.96 c 0.23999,-1.769513 0.23998,1.769494 0,0 z m -79.951853,4.097772 c -1.963052,-4.380996 -1.720918,-0.347584 0,0 z m 1.021332,-2.177771 c -2.211143,-1.171504 0.338874,1.088025 0,0 z M 143.36,68.113612 c -2.6873,-0.28434 -4.00961,1.314006 0,0 z m 7.52,-1.223259 c 7.00563,-1.826001 -11.94569,2.042639 -1.25712,0.243616 z m -79.706174,0.115412 c 1.290047,-1.325909 -2.785218,-2.876807 -0.648798,0.119633 z M 105.92,66.061116 c -0.74935,-1.749433 -0.74062,2.242258 0,0 z m 4.58371,0.37017 c 0.0223,-2.295468 -1.49936,1.603079 0,0 z M 156.64,65.920001 c 0.7569,-0.829486 -5.00402,0.917366 0,0 z m 4.29333,-0.841002 c -2.68786,-0.302057 -4.47006,1.063441 0,0 z M 106.34732,63.73585 c -2.46928,-2.57096 0.17339,4.005865 0,0 z M 162.32,64.748072 c -1.99129,-0.31744 -0.0248,0.553668 0,0 z M 72.438666,64.066878 c -1.9823,-0.580452 -2.440655,0.841782 0,0 z M 109.08875,62.44388 c 3.01018,-2.619549 -0.73775,-4.637159 -1.39335,-1.223772 -0.0137,1.576166 -1.72356,-2.742045 -0.10334,1.950837 0.58779,0.488212 1.22501,-0.33655 1.49669,-0.727065 z M 137.6,59.077323 c -1.31143,-0.984599 -1.2669,0.464213 0,0 z M 12.4,56.782763 c -0.232814,-1.776293 -5.232791,1.326148 0,4e-6 z m 139.83333,0.303905 c -1.36726,-0.364987 -0.34976,0.590518 0,0 z M 26.479999,56.7308 c -3.375642,-0.170395 -1.397321,0.394732 0,0 z m -3.2,-0.620244 c 2.993994,-1.920018 -13.5621583,0.621625 -4.833381,0.41833 1.615395,-0.06971 3.235111,-0.161358 4.833381,-0.41833 z m 8.312863,0.29591 c -3.313279,-0.300804 -1.297492,0.421374 0,1.9e-5 z m 4.172868,-0.315113 c -2.691457,-0.320816 -2.791849,0.461206 0,0 z m 3.678669,-0.31661 c -3.324674,-0.2924 -1.036235,0.434528 0,0 z m 6.7956,-0.41376 c 4.393489,-0.821616 -11.057848,0.953456 -2.278,0.244402 l 1.15775,-0.123957 z M 104,54.720001 c -0.20783,-4.503271 -0.62765,4.507903 0,0 z m -88.48,0.63867 C 14.676075,55.126154 7.5648308,56.545276 9.2492959,51.308691 7.6188752,41.942091 5.6656638,32.589667 4.3172088,23.200844 8.8472871,22.453863 1.2972584,22.298771 4.2981516,25.798951 6.0842714,35.762768 7.8184861,45.736529 9.7160148,55.680003 11.654032,55.65798 13.599477,55.657792 15.52,55.358671 Z m 19.519999,-0.156578 c 3.265738,0.107541 12.904274,-1.273684 4.227555,-0.902628 -3.274594,-0.141211 -16.501885,1.732621 -6.641493,1.088542 l 1.123279,-0.08638 z M 21.04573,54.811353 c -2.691459,-0.320816 -2.791846,0.461207 0,0 z M 52.399999,54.8108 c -3.375642,-0.170395 -1.397321,0.394732 0,0 z m 20.239999,-0.862883 c -3.419101,-3.202321 -4.666342,0.0027 -9.671451,0.02856 2.914515,-0.424859 9.791721,-0.375762 9.671451,-0.02856 z m 79.273332,0.898751 c -1.36726,-0.364987 -0.34976,0.590518 0,0 z M 25.999999,54.488515 c -4.5254,-0.144199 -0.994887,0.358918 0,0 z m 30.08,0.0057 c -3.49826,-0.301273 -0.203757,0.489825 0,0 z m -26.08,-0.323367 c -3.375642,-0.170395 -1.397321,0.394732 0,0 z m 20.08,-0.07665 c 3.878364,-0.564553 13.877673,-0.569827 14.24132,-1.494573 -5.580858,0.495667 -14.139294,0.429807 -18.100983,1.780024 1.290035,-0.04412 2.573731,-0.183207 3.859663,-0.285451 z m 10.4844,0.08059 c -3.324674,-0.2924 -1.036235,0.434528 0,0 z M 34.80573,53.851353 c -2.691455,-0.320824 -2.791851,0.461213 0,0 z M 39.279999,53.5308 c -3.375642,-0.170395 -1.397321,0.394732 0,0 z m 5.432863,-0.324334 c -3.313279,-0.300804 -1.297492,0.421374 0,1.9e-5 z M 48.559999,52.8908 c -3.375642,-0.170395 -1.397321,0.394732 0,0 z m 4.32,-0.316633 c -3.498266,-0.301277 -0.203748,0.48983 0,0 z m 4.8,-0.32 c -3.498266,-0.301277 -0.203748,0.48983 0,0 z m 15.491018,-0.198518 c -1.219441,-0.791126 -2.475878,0.854637 0,0 z M 62.00373,51.940135 c -3.096225,-0.154274 -0.132433,0.430815 0,0 z m 5.600668,-0.325392 c -3.324674,-0.2924 -1.036234,0.434528 0,0 z m 1.748934,-0.288075 c -1.578516,-0.546449 -0.22867,0.6584 0,0 z m 1.926666,-0.02725 c -2.743899,-0.311327 -0.117819,0.515318 0,0 z m 41.677152,-1.37255 c 3.21867,-5.118198 -4.81555,2.768858 0,0 z M 131.52,48.731771 c -1.39015,-1.778148 -2.58507,1.285504 0,0 z m -58.949959,-0.84802 c 2.733588,-1.079658 -2.984432,-2.196965 0,0 z m 63.343289,0.562917 c -1.36726,-0.364987 -0.34976,0.590518 0,0 z m -8.64,-0.32 c -1.36726,-0.364987 -0.34976,0.590518 0,0 z m 5.7704,-0.346533 c -3.09624,-0.15427 -0.13242,0.430813 0,0 z m 3.842,-0.328782 c -2.69146,-0.320824 -2.79185,0.461213 0,0 z m 12.00036,0.01875 c -4.48939,-0.183908 0.80211,0.407005 0,0 z m -8.16236,-0.329966 c -3.09624,-0.15427 -0.13242,0.430813 0,0 z m 4.96067,-0.325392 c -3.32467,-0.2924 -1.03623,0.434528 0,0 z m 7.50893,-0.608075 c -1.57852,-0.546476 -0.22868,0.658392 0,0 z M 155.52,45.686582 c -1.02597,-0.241194 -1.02681,1.457633 0,0 z M 86.319998,43.958309 c 2.683642,-3.465198 -4.646823,0.01627 0,0 z M 70.607614,40.42095 c -2.522404,0.11806 1.248705,4.159263 0,0 z m -0.502352,0.672384 c 0.295659,-1.197688 0.136736,1.390432 0,0 z m -6.985263,-1.625263 c -1.991295,-0.317441 -0.02482,0.553672 0,0 z M 27.433333,38.206668 c -1.578566,-0.546503 -0.228659,0.65842 0,0 z m 42.528544,0.0016 c 1.864687,-4.383763 -4.139207,0.290108 0,0 z m -0.901879,-0.346874 c 1.846512,-0.201804 -0.606979,0.563785 0,0 z m -0.26,-0.722518 c 0.686003,-1.716422 0.46081,1.107277 0,0 z m 56.258662,-0.318187 c -2.82496,-3.50905 -3.69854,1.670009 6e-5,-3e-6 z m -0.17303,-3.567781 c -1.87872,-3.099423 -0.6271,2.315023 0,0 z m 2.78947,0.267083 c -1.35947,-3.224769 -1.27971,1.276612 0,0 z m -0.9551,-3.2 c -1.57486,-0.8121 -7.38272,0.437477 -1.9629,0.400628 l 1.36681,-0.116617 z m -16.836,-1.630182 c 1.43799,-2.928658 -2.88223,2.637451 0,0 z m 13.50144,0.138297 c 0.11821,-2.072431 -2.64644,-0.448387 0,0 z M 77.119998,28.605764 c -1.098694,-0.731021 -1.40672,1.229434 0,0 z M 108.16,28.411429 c -1.81606,-0.976941 -1.57787,0.87948 0,0 z m -6.8,-0.472013 c -2.743899,-0.311329 -0.11782,0.515322 0,0 z m 3.84373,7.19e-4 c -3.09624,-0.154272 -0.13242,0.430817 0,0 z m -7.523732,-0.331621 c -4.525397,-0.144197 -0.994887,0.358923 0,0 z M 59.753332,24.446667 c -1.578544,-0.546484 -0.22867,0.65841 0,0 z m 1.772757,-0.01657 c -4.48947,-0.183906 0.802164,0.407003 0,0 z m 1.59391,-0.002 c -1.991294,-0.31744 -0.02482,0.553668 0,0 z m -12.006667,-0.30143 c -1.57854,-0.546479 -0.228669,0.658409 0,0 z M 36.239999,23.788071 c -1.991294,-0.31744 -0.02482,0.553668 0,0 z m 1.92,0 c -1.991294,-0.31744 -0.02482,0.553668 0,0 z m 1.753333,0.0186 c -1.578545,-0.546484 -0.228666,0.658411 0,0 z M 26.32609,23.470101 c -4.489282,-0.183913 0.802021,0.40701 0,0 z m 1.92,0 c -4.489282,-0.183913 0.802021,0.40701 0,0 z M 10.96,23.148071 c -1.9912944,-0.31744 -0.02482,0.553668 0,0 z m 6.72,-0.025 c -7.8372683,-0.107945 -2.458069,0.303333 0,0 z m 26.559999,-0.308907 c -3.498266,-0.301277 -0.203748,0.48983 0,0 z M 17.92,22.4 c -0.290106,-1.103741 -0.878706,1.194554 0,0 z m 16.399999,0.0857 c -3.628747,-0.290527 -3.573278,0.356365 0,0 z m 19.033333,0.04097 c -1.578513,-0.546448 -0.228672,0.6584 0,0 z M 21.52,22.188071 c -1.991294,-0.31744 -0.02482,0.553668 0,0 z m 17.926089,0.002 c -4.489747,-0.183903 0.802377,0.407004 0,0 z M 15.44,21.854166 c -3.49826,-0.301273 -0.203757,0.489825 0,0 z m 17.926089,0.01593 c -4.489747,-0.183903 0.802377,0.407004 0,0 z m -9.12609,-0.339302 c -3.375643,-0.170395 -1.39732,0.394732 0,0 z M 14.72,21.204161 c -3.212503,-1.710205 0.855018,1.391295 0,0 z M 13.338596,19.46 c -0.56379,-0.606975 0.201806,1.846513 0,0 z M 12.69193,16.24 c -0.555118,-0.103463 0.335956,2.1382 0,0 z m -0.32,-1.6 c -0.555118,-0.103463 0.335956,2.1382 0,0 z m -0.313334,-1.26 c -0.56379,-0.606975 0.201806,1.846513 0,0 z M 11.73193,11.76 c -0.555118,-0.103463 0.335956,2.1382 0,0 z m 13.207828,0.215611 c 0.109351,-3.1582542 -0.902265,1.189252 0,0 z M 11.418596,10.5 c -0.56379,-0.6069753 0.201806,1.846513 0,0 z m -0.32,-1.5999998 c -0.56379,-0.6069762 0.201807,1.8465148 0,0 z m -0.64,-3.2000001 c -0.5637901,-0.606976 0.201807,1.8465152 0,0 z m -0.326666,-1.62 c -0.5551179,-0.1034638 0.335957,2.1381997 0,0 z m -0.3133337,-1.26 c -0.5637901,-0.6069751 0.2018027,1.8465113 0,0 z M 9.4985963,1.22 c -0.5637902,-0.60697481 0.2018025,1.8465115 0,0 z M 111.04,123.38252 c 1.7509,-1.53767 1.67584,-0.28434 0,0 z m 10.58526,-8.68918 c 0.29573,-1.19767 0.1366,1.39044 0,0 z M 112.71424,110.08 c 0.17754,-2.18456 0.17757,2.18455 0,0 z m 9.87102,-2.42666 c 0.29573,-1.19767 0.1366,1.39044 0,0 z m -35.605262,-0.35193 c 1.846509,-0.20173 -0.607008,0.56382 0,0 z m 18.220002,0.007 c 1.99131,-0.31745 0.0248,0.5537 0,0 z m 7.82238,-0.58807 c 0.23495,-1.86076 0.13899,2.00513 0,0 z M 106.8,106.98807 c 1.99131,-0.31745 0.0248,0.5537 0,0 z M 122.94238,105.44 c 0.23495,-1.86076 0.13899,2.00513 0,0 z m 0.28288,-1.94666 c 0.29573,-1.19767 0.1366,1.39044 0,0 z m 4.50526,-8.773338 c 0.23999,-1.769513 0.23998,1.769494 0,0 z m 0.29474,-1.466667 c 0.29574,-1.197666 0.13659,1.390458 0,0 z M 62.130525,90.880002 c 0.239943,-1.769139 0.239939,1.769133 0,0 z m 0,-3.52 c 0.239943,-1.769139 0.239939,1.769133 0,0 z m 0.269474,-2.056536 c -1.884757,-0.946549 0.67821,-1.015201 0,0 z m -6,-0.404048 c 2.743899,-0.311327 0.117819,0.515318 0,0 z M 127.3,58.661405 c 1.8465,-0.201805 -0.607,0.563783 0,0 z M 90.399998,28.57182 c 4.221046,-1.727582 -1.732409,0.881431 0,0 z m -5.12,-1.051819 c -1.542805,-1.24758 2.619801,0.866903 0,0 z m -2.46,-0.538597 c 1.84651,-0.201802 -0.606979,0.563781 0,0 z m 1.28,-1.6 c 1.84651,-0.201802 -0.606979,0.563781 0,0 z m 1.583731,-0.0077 c 3.667564,-0.121253 -0.347526,0.402132 0,0 z m 3.202,-0.0056 c 2.893992,-0.307948 1.035469,0.435266 0,3.5e-5 z"
       id="path1" />
  </g>
  <metadata
     id="metadata1">
    <rdf:RDF>
      <cc:Work
         rdf:about="">
        <dc:title>CloudSat Icon SVG</dc:title>
      </cc:Work>
    </rdf:RDF>
  </metadata>
</svg>
