<?xml version="1.0" encoding="UTF-8" standalone="no"?>
<!-- Created with Inkscape (http://www.inkscape.org/) -->

<svg
   version="1.1"
   id="svg1"
   width="245.75999"
   height="175.2"
   viewBox="0 0 245.75999 175.2"
   xmlns="http://www.w3.org/2000/svg"
   xmlns:svg="http://www.w3.org/2000/svg"
   xmlns:rdf="http://www.w3.org/1999/02/22-rdf-syntax-ns#"
   xmlns:cc="http://creativecommons.org/ns#"
   xmlns:dc="http://purl.org/dc/elements/1.1/">
  <title
     id="title1">GOCE Icon SVG</title>
  <defs
     id="defs1" />
  <g
     id="g1">
    <path
       style="fill:currentColor"
       d="m 31.199999,174.72 c 0,-0.264 0.432,-0.48 0.96,-0.48 0.528,0 0.96,-0.20751 0.96,-0.46113 0,-0.25362 -0.663751,-3.4298 -1.475003,-7.05817 -0.898531,-4.01873 -1.363886,-7.18934 -1.19069,-8.11256 0.18103,-0.96497 1.475827,-2.80378 3.564295,-5.06183 1.80399,-1.95047 4.851496,-5.16631 6.772235,-7.14631 1.920739,-1.98 4.868558,-5.037 6.550708,-6.79333 2.836779,-2.96188 3.058455,-3.35074 3.058455,-5.36512 0,-1.53102 -0.470546,-3.06721 -1.594842,-5.20667 -0.877163,-1.66919 -2.364315,-4.22288 -3.304782,-5.67488 -0.940467,-1.452 -2.28268,-3.25365 -2.982696,-4.00366 -0.700016,-0.75001 -1.606756,-1.8734 -2.014978,-2.49642 -0.408222,-0.62303 -1.656527,-1.57539 -2.77401,-2.11635 C 36.611208,114.20261 35.2251,113.76 34.648452,113.76 c -0.576649,0 -1.048453,-0.216 -1.048453,-0.48 0,-0.264 0.17436,-0.48 0.387467,-0.48 0.213106,0 1.077106,-0.57133 1.92,-1.26962 0.842893,-0.69829 1.532533,-1.45429 1.532533,-1.68 0,-0.22571 -2.7,-0.41038 -6,-0.41038 -3.3,0 -6,-0.16835 -6,-0.37411 0,-0.20575 2.106,-1.68816 4.68,-3.29424 l 4.68,-2.92013 0.307904,-2.82576 c 0.169347,-1.55417 0.331347,-4.848771 0.36,-7.321339 0.03638,-3.13957 -0.201274,-5.238925 -0.787904,-6.96 -0.462,-1.355432 -1.033475,-2.604623 -1.269944,-2.775979 -0.236469,-0.171355 -0.297249,-0.657355 -0.135065,-1.08 0.162184,-0.422644 0.08764,-0.768443 -0.165643,-0.768443 -0.253287,0 -0.948508,0.753516 -1.544935,1.674479 -0.747699,1.154549 -1.571316,1.767774 -2.652523,1.974941 -0.86246,0.165254 -2.58614,0.04412 -3.830399,-0.269189 -1.244259,-0.313308 -3.835886,-1.550431 -5.75917,-2.749161 -1.923284,-1.198731 -4.141604,-2.781773 -4.9296,-3.517871 C 13.604724,77.4971 12.96,76.537353 12.96,76.100427 c 0,-0.493698 0.863058,-1.155865 2.28,-1.749292 1.254,-0.525185 2.632711,-1.147076 3.063802,-1.38198 0.431091,-0.234905 2.375091,-0.752921 4.32,-1.151148 1.944909,-0.398227 5.874997,-0.973077 8.733531,-1.277444 2.858533,-0.304368 5.936533,-0.414721 6.84,-0.24523 0.903466,0.169492 1.639359,0.460379 1.635316,0.646416 -0.004,0.186037 -0.208641,0.656549 -0.454663,1.045581 -0.29501,0.466497 -0.251649,0.831716 0.127351,1.07265 0.316064,0.200925 2.248662,0.368626 4.294662,0.372669 3.038465,0.006 3.72,-0.128558 3.72,-0.734468 0,-0.408 -0.526456,-1.268275 -1.169902,-1.911721 -0.643446,-0.643446 -2.533446,-1.78998 -4.2,-2.547854 -1.666554,-0.757874 -4.866098,-1.974309 -7.110098,-2.703189 -2.244,-0.728881 -4.512,-1.592856 -5.04,-1.919947 -0.528,-0.32709 -3.336,-1.479749 -6.24,-2.561465 C 20.856,59.97229 16.655329,58.158618 14.425177,57.023624 12.195024,55.88863 9.9704691,54.408349 9.4817204,53.73411 8.9929718,53.059871 7.8480223,49.711871 6.9373882,46.29411 6.0267542,42.876349 5.0579922,39.693213 4.7845839,39.220474 4.5111756,38.747736 4.415543,38.153736 4.572067,37.900474 4.7285911,37.647213 4.6730794,37.439999 4.4487077,37.439999 c -0.2243716,0 -0.7771193,-1.385453 -1.2283281,-3.078784 -0.4512088,-1.693332 -0.8235608,-4.015332 -0.8274489,-5.16 C 2.3890427,28.056546 1.9799865,25.824 1.4839171,24.24 0.87162737,22.284897 0.72517167,21.090238 1.0278745,20.52 c 0.3382327,-0.637171 1.0561079,-0.84 2.9730136,-0.84 1.3899115,0 2.762168,-0.235057 3.049459,-0.522348 0.287291,-0.287291 2.706491,-0.6427 5.3759999,-0.789798 2.737426,-0.150841 4.85287,-0.08006 4.851858,0.162347 -9.87e-4,0.236389 -0.432986,1.137019 -0.96,2.0014 -0.527013,0.864381 -0.958205,1.792695 -0.958205,2.06292 0,0.270224 0.571541,1.021004 1.270091,1.668398 0.69855,0.647394 1.666434,1.177081 2.150855,1.177081 0.575553,0 0.974077,-0.457419 1.150043,-1.32 0.148103,-0.726 0.455999,-2.021993 0.684212,-2.879984 0.228212,-0.857991 0.324343,-1.937991 0.213624,-2.4 -0.11072,-0.462009 0.01909,-1.164016 0.288465,-1.560016 0.420695,-0.61845 0.607751,-0.572465 1.326242,0.326033 0.715056,0.894203 1.166013,1.007223 3.106882,0.778655 1.248729,-0.147058 2.153981,-0.455773 2.011672,-0.686033 -0.142309,-0.23026 0.09075,-0.418655 0.517913,-0.418655 0.447451,0 0.6369,0.226131 0.446945,0.533484 -0.233171,0.377279 0.355854,0.450076 2.011672,0.248624 1.287761,-0.156674 6.013383,-0.622972 10.501383,-1.03622 4.488,-0.413247 8.550151,-0.86754 9.027003,-1.00954 0.476852,-0.142 3.500852,-0.570388 6.72,-0.951975 3.219148,-0.381586 8.965543,-1.000324 12.769767,-1.374973 4.075247,-0.40134 7.059798,-0.912603 7.264925,-1.244504 0.234063,-0.378722 3.543038,-0.693759 10.097525,-0.961353 5.362155,-0.218916 10.840939,-0.523389 12.175076,-0.676607 1.374065,-0.157804 2.737845,-0.06362 3.145705,0.217243 0.58954,0.405982 0.60399,0.57069 0.0798,0.909022 -0.51974,0.335431 -0.50233,0.466124 0.0925,0.694382 0.40301,0.154648 1.37719,0.09635 2.16485,-0.129546 0.78767,-0.225898 1.7567,-0.59237 2.15341,-0.814381 0.39671,-0.222011 0.68264,-0.619656 0.63539,-0.883656 -0.0475,-0.265287 1.23857,-0.54347 2.87501,-0.62189 2.50372,-0.119981 3.10663,0.01453 3.90466,0.871119 0.51907,0.557154 2.15083,1.328215 3.62612,1.713469 1.4753,0.385253 4.43719,0.870102 6.58198,1.077441 3.84868,0.372056 3.90546,0.361623 4.34662,-0.798709 0.33839,-0.890054 0.25068,-1.392614 -0.36104,-2.06856 -0.59771,-0.660454 -0.64137,-0.89287 -0.16773,-0.89287 0.35217,0 1.33278,-0.7560002 2.17913,-1.6800001 0.84635,-0.924 1.99569,-1.68 2.55408,-1.68 0.5584,0 1.01527,0.2032523 1.01527,0.4516718 0,0.2484195 -0.216,0.5851672 -0.48,0.7483282 -0.264,0.1631609 -0.48,0.6865461 -0.48,1.1630782 0,0.6687324 0.35594,0.8539296 1.56,0.8116718 0.858,-0.030113 1.668,0.1612501 1.8,0.4252501 0.132,0.264 -0.57,0.680095 -1.56,0.924655 -0.99,0.244561 -1.8,0.702299 -1.8,1.017196 0,0.314897 0.81,0.706425 1.8,0.870062 0.99,0.163637 3.13983,0.299899 4.77741,0.302804 1.63758,0.0029 3.52758,-0.245388 4.2,-0.551764 0.67242,-0.306376 1.22259,-0.738376 1.22259,-0.96 0,-0.221624 -0.432,-0.402953 -0.96,-0.402953 -0.528,0 -0.96,-0.171054 -0.96,-0.380119 0,-0.209065 1.242,-0.941757 2.76,-1.6282036 1.518,-0.686447 4.704,-1.688642 7.08,-2.2271001 2.376,-0.538458 5.94,-1.2150264 7.92,-1.5034853 1.98,-0.288459 5.22,-0.5730619 7.2,-0.6324511 1.98,-0.059389 4.36735,0.055658 5.30522,0.2556603 1.37402,0.2930098 1.9077,0.1750116 2.74764,-0.6075099 0.57332,-0.5341328 1.58797,-1.1785736 2.25477,-1.4320906 0.77663,-0.2952733 1.65114,-0.2941182 2.43318,0.00321 0.67145,0.2552847 3.90588,0.4374422 7.18761,0.4047944 4.78225,-0.047575 6.20412,0.096148 7.16229,0.7239657 0.73203,0.4796422 2.19837,0.7833252 3.78231,0.7833252 2.08053,0 2.83536,-0.2303674 3.85688,-1.1770805 C 203.56806,3.3261402 204,2.4283295 204,1.4629194 204,0.15745339 204.15498,0 205.44,0 c 0.792,0 1.44,0.23881912 1.44,0.53070915 0,0.29189004 -0.55112,1.18567755 -1.22471,1.98619435 -0.67513,0.802337 -1.15978,1.91043 -1.08,2.4692908 0.12105,0.8480486 0.82869,1.1797383 4.32808,2.0286861 2.30086,0.5581843 4.89286,1.301921 5.76,1.6527484 0.86714,0.3508273 1.68463,0.7600899 1.81663,0.9094723 0.132,0.1493824 1.644,1.1216639 3.36,2.1606249 1.716,1.038961 3.336,2.138769 3.6,2.444018 0.26399,0.305248 1.23599,1.100479 2.15999,1.767179 0.924,0.666701 2.5274,1.405109 3.5631,1.640908 1.0357,0.2358 1.96565,0.676411 2.06656,0.979136 0.10091,0.302726 -0.20648,0.640725 -0.68309,0.751109 -0.60205,0.139436 -0.35376,0.343547 0.81343,0.668682 1.17651,0.32773 1.72597,0.783155 1.83339,1.519613 0.11703,0.802401 0.48003,1.051629 1.53167,1.051629 0.75806,0 1.4978,0.193366 1.64386,0.429703 0.14606,0.236337 -0.0572,0.553558 -0.45167,0.704935 -0.39449,0.151378 -0.71725,0.797397 -0.71725,1.4356 0,0.638202 0.85275,2.437362 1.89499,3.998134 1.04225,1.560772 3.14779,4.070766 4.67898,5.577766 1.53119,1.506999 2.85645,2.522618 2.94501,2.25693 0.0886,-0.265688 0.35902,-0.483069 0.60102,-0.483069 0.24223,0 0.44,2.589091 0.44,5.76 v 5.76 l -1.584,0 c -0.8712,0 -1.8432,0.2592 -2.16,0.576 -0.3168,0.3168 -0.576,1.369594 -0.576,2.339543 0,0.998546 -0.53182,2.715077 -1.22601,3.957112 -0.6743,1.206464 -1.94094,2.821289 -2.81474,3.588501 -0.87381,0.767211 -3.2921,2.099793 -5.37399,2.961293 -2.08189,0.8615 -4.00126,1.738401 -4.26526,1.94867 -0.264,0.210268 -2.748,1.301986 -5.51999,2.42604 -2.772,1.124053 -5.16007,2.222433 -5.30682,2.440844 -0.14675,0.218411 -1.3656,0.77621 -2.70856,1.239554 -1.90564,0.657478 -3.65902,1.995095 -7.98596,6.09233 -3.04932,2.887438 -5.43241,5.43079 -5.29576,5.651893 0.13665,0.221103 0.0561,0.342653 -0.1789,0.270112 -0.23505,-0.07254 -2.3571,1.623329 -4.71568,3.7686 -2.35858,2.14527 -5.63389,5.011452 -7.27846,6.369293 -1.64458,1.35784 -4.31916,3.274619 -5.94351,4.259508 -1.62435,0.984888 -3.62678,2.189269 -4.44986,2.676402 -0.82307,0.487132 -1.92849,1.283962 -2.45649,1.770736 -0.528,0.48677 -1.85747,1.08663 -2.95437,1.33302 -1.21528,0.27299 -3.37163,1.50926 -5.52,3.16471 -1.9391,1.4942 -4.60563,3.58802 -5.92563,4.65293 -1.32,1.06492 -3.03796,2.48105 -3.81767,3.14695 -0.77972,0.66591 -2.72372,1.86753 -4.32,2.67026 -1.59629,0.80274 -3.01033,1.61532 -3.14233,1.80575 -0.132,0.19043 -0.67306,0.57383 -1.20235,0.85201 -0.5293,0.27818 -2.24052,0.74207 -3.80272,1.03086 -1.56221,0.28879 -3.37052,0.87243 -4.01848,1.29699 -1.06814,0.69988 -1.15154,0.99632 -0.8934,3.17589 l 0.28472,2.40397 -3.46389,-0.2918 c -1.90513,-0.16049 -5.6002,-0.33411 -8.21126,-0.38583 l -4.74738,-0.094 -2.5791,2.79321 c -1.41851,1.53626 -2.7076,3.30519 -2.86466,3.93095 -0.27515,1.09629 -0.45034,1.13774 -4.80858,1.13774 -3.19561,0 -4.57961,0.17609 -4.71582,0.6 -0.10603,0.33 -0.40188,4.0073 -0.65745,8.17177 -0.32808,5.34623 -0.68085,7.90174 -1.2002,8.69437 -0.48173,0.73521 -2.52714,1.838 -5.92749,3.19583 -2.855568,1.1403 -5.299942,2.21841 -5.431942,2.39582 -0.132,0.1774 -2.35107,1.10998 -4.931267,2.07238 -2.580197,0.96241 -5.409789,1.74983 -6.287982,1.74983 -1.00165,0 -2.294378,-0.51242 -3.468732,-1.37495 -1.02961,-0.75622 -2.412019,-1.96405 -3.072019,-2.68407 -0.66,-0.72002 -1.562151,-1.50442 -2.00478,-1.7431 -0.547528,-0.29524 -1.541774,-0.11805 -3.110368,0.55433 -1.268073,0.54356 -2.417922,1.15878 -2.55522,1.36716 -0.137297,0.20838 -2.185512,1.28225 -4.551589,2.38639 -2.366076,1.10414 -4.418076,2.18616 -4.56,2.40449 -0.141923,0.21833 -2.256042,1.32217 -4.698042,2.45298 -2.442,1.1308 -4.44,2.25342 -4.44,2.49471 0,0.24129 -0.216,0.30522 -0.48,0.14206 -0.264,-0.16316 -0.480513,-0.12191 -0.481141,0.0917 -6.27e-4,0.21358 -1.187818,1.00838 -2.638203,1.76623 -1.450385,0.75785 -3.628421,2.25053 -4.840082,3.31708 -1.70542,1.50117 -2.154533,2.19281 -1.988359,3.0621 l 0.21466,1.12292 h -5.453437 c -3.315625,0 -5.453438,-0.18817 -5.453438,-0.48 z M 141.3727,99.4527 c -0.14779,-0.147786 -0.5351,-3.05e-4 -0.8607,0.327736 -0.47053,0.474054 -0.4154,0.529194 0.2687,0.268704 0.47338,-0.180257 0.73978,-0.448654 0.592,-0.59644 z M 154.56,62.879999 c 0,-0.264 -0.22875,-0.48 -0.50833,-0.48 -0.27958,0 -0.37483,0.216 -0.21167,0.48 0.16316,0.264 0.39191,0.48 0.50832,0.48 0.11642,0 0.21168,-0.216 0.21168,-0.48 z m -9.12,-13.92 c 0,-0.264 -0.22875,-0.48 -0.50833,-0.48 -0.27958,0 -0.37483,0.216 -0.21167,0.48 0.16316,0.264 0.39191,0.48 0.50832,0.48 0.11642,0 0.21168,-0.216 0.21168,-0.48 z m 5.12789,-2.01 c -0.15323,-0.382912 -0.26697,-0.269172 -0.29,0.29 -0.0208,0.506 0.0926,0.7895 0.25211,0.63 0.1595,-0.1595 0.17655,-0.5735 0.0379,-0.92 z M 161.76,44.908327 c 0,-0.116419 -0.20108,-0.335943 -0.44684,-0.487829 -0.24575,-0.151887 -0.5825,-0.05663 -0.74832,0.211672 -0.16583,0.268306 0.0352,0.487829 0.44683,0.487829 0.41158,0 0.74833,-0.09525 0.74833,-0.211672 z m 69.40634,19.966663 c -0.1661,-0.268761 -0.0681,-0.633211 0.21776,-0.809889 0.28587,-0.176678 0.65299,-0.188003 0.81583,-0.02517 0.16284,0.162836 0.0648,0.527285 -0.21776,0.809888 -0.34473,0.344727 -0.61321,0.353009 -0.81583,0.02517 z M 0,61.439999 c 0,-0.528 0.19289041,-0.96 0.42864536,-0.96 0.23575495,0 0.55975495,0.341666 0.71999994,0.759258 0.1602451,0.417592 0.2913547,0.849592 0.2913547,0.96 0,0.110408 -0.324,0.200742 -0.72000002,0.200742 C 0.31999999,62.399999 0,61.973332 0,61.439999 Z M 0,29.011671 c 0,-0.67558 0.20225546,-1.103327 0.44945658,-0.950548 0.24720112,0.152778 0.41723539,0.705526 0.37785393,1.228328 -0.0393815,0.522802 -0.24163692,0.950548 -0.44945658,0.950548 C 0.17003427,30.239999 0,29.687252 0,29.011671 Z M 245.07981,13.504423 c -0.20677,-0.334561 -0.24632,-0.737922 -0.0879,-0.896358 0.15844,-0.158436 0.41856,-0.157565 0.57806,0.0019 0.1595,0.1595 0.19905,0.562861 0.0879,0.896358 -0.16259,0.487764 -0.27565,0.487385 -0.57807,-0.0019 z m 0,-12.48 c -0.20677,-0.3345611 -0.24632,-0.73792219 -0.0879,-0.89635796 0.15844,-0.15843577 0.41856,-0.15756504 0.57806,0.001935 0.1595,0.15949999 0.19905,0.56286108 0.0879,0.896358 -0.16259,0.487764 -0.27565,0.4873855 -0.57807,-0.00194 z"
       id="path1" />
  </g>
  <metadata
     id="metadata1">
    <rdf:RDF>
      <cc:Work
         rdf:about="">
        <dc:title>GOCE Icon SVG</dc:title>
        <dc:source>https://www.arabnews.com/sites/default/files/styles/n_670_395/public/media/22/10/2013/1382361441768743900.jpg?itok=cuKViP2b</dc:source>
      </cc:Work>
    </rdf:RDF>
  </metadata>
</svg>
