<svg xmlns="http://www.w3.org/2000/svg" baseProfile="tiny" width="512" height="365" xmlns:v="https://vecta.io/nano"><style><![CDATA[.B{fill:#283c63}.C{fill:#131414}]]></style><path d="M431.08 0q-.68 3.29-3.8 5.61-.65.49-.7 1.02-.08.8-.74 1.11a.9.89 77.6 0 0-.51.81v2.66a1.11 1.08-64.2 0 0 .22.66q1.32 1.68 2.88 1.39a1.27 1.26-20.8 0 1 1.3.58q.05.07.09.12a1.26 1.25-22.1 0 0 1.13.47q2.23-.28 3.05.81a.73.72 71.2 0 0 .58.29h1.99a1.51 1.49-25.3 0 1 .94.33q1.23 1.01 2.94.91-.28.83 1.28.53.54.4 1.32.47.83.07 1.36.27 7.62 2.88 11.78 5.81 11.11 7.82 12.93 9.31 1.25 1.02 2.2 1.27a1.08 1.08 0 0 1 .79 1.03q.01.17.01.4a.77.77 0 0 0 .77.75h2.62a1.07 1.07 0 0 1 .87.45l.21.31a1.03 1.02 66 0 0 1.08.42q2.1-.49 3.74 1.48a.4.39 69.8 0 1-.3.65h-2.87a.31.3-32.6 0 0-.13.58l3.49 1.6a.82.79-38.2 0 0 .48.05q1.66-.34 3 1.14a.95.94-66.6 0 1 .25.64v3.24a.64.64 0 0 0 .64.64h4.9a.5.5 0 0 1 .41.79l-1.71 2.43q-1.86-.35-3.33 1.15a.63.63 0 0 1-1.08-.44v-1.23a.95.95 0 0 0-1.83-.35q-.65 1.6.81 2.04a.52.52 0 0 1 .01 1q-2.99.95-3.06 1.87a.7.69-1 0 0 .77.74q1.28-.15 2.09-.84a.81.81 0 0 1 1.33.62v2.31a.81.81 0 0 0 .46.73q.56.28 1.19.23a.61.6-11.3 0 0 .53-.79q-1.08-3.29 2.14-4.22l3.79 7.63q-1.34-.46-2.29-1.31a1.28 1.27 61.3 0 0-1.04-.31q-1.41.22-4.28.77-1.8.35-2.05-1.09a.32.32 0 0 0-.48-.22q-2.51 1.55-4.34.71a1.46 1.42 43.8 0 0-1.24.01q-2.06.97-4.03.79a.25.24 31.5 0 1-.11-.45q1.61-1.04 2.78-1.16a.54.54 0 0 0 .46-.42l.06-.27a.56.55-86 0 0-.58-.67q-1.52.11-2.31-.18a.81.81 0 0 0-.87.22q-1.21 1.33-1.31 2.79a.89.87 83.2 0 1-.6.78l-1.1.35a.36.36 0 0 1-.45-.46l3.05-8.42a.76.76 0 0 0-.71-1.02h-.48a1.88 1.88 0 0 0-1.68 1.04l-4.29 8.55a1.14 1.11 42.5 0 0 .06 1.1q.39.62.35 1.67a.41.41 0 0 1-.5.38l-4.67-.99a1.02 1.02 0 0 1-.27-1.9l1.32-.71a.54.54 0 0 0 .15-.83q-1.24-1.41-2.66-.45-2.83 1.92-7.31 6.57a2.36 2.34 14.1 0 1-1.05.62q-1.76.47-2.17.7a3.1 3.01-61.5 0 1-1.19.37q-5 .46-10.25 2.33a4.83 4.72 30.4 0 1-1.01.25q-5.32.8-6.24 1.36-1.72 1.04-3.58 1.82a1.03 1.01-6 0 0-.6.72q-.15.65-.87 1.55a.85.85 0 0 0 .17 1.22l1.68 1.2a1.82 1.82 0 0 1-.37 3.17q-.02.01-.38-.03a.41.32 33.9 0 0-.15.01l-5.79 2.18a.41.41 0 0 0-.07.74q2.47 1.48 4.39 3.8a.47.46-18.7 0 1-.38.76q-.3-.01-.69-.25-3.79-2.4-8.06-6.58c-1.02-.99-1.37-2.25-2.91-2.41a.88.87-67.3 0 0-.77.32c-2.9 3.53-5.21 5.6-9.75 6.86q-8.05 2.25-8.43 2.3-2.75.34-2.98.23a.31.31 0 0 0-.43.35c.25 1.17.21 1.53 1.36 2.28q3.11 2 4.45 4.35.75 1.3 2.21 2.22 2.45 1.54 3.09 4.28a1.33 1.33 0 0 0 .64.86q2.45 1.38 4.79 4.26a.75.75 0 0 1-.15 1.08l-.02.02a.88.88 0 0 1-1.14-.09q-2.31-2.33-5.46-3.02a.41.41 0 0 0-.48.54q.43 1.28 1.67 1.86a1.1 1.09-39.2 0 1-.21 2.06q-.25.06-.71-.06-.33-.09-.65-.36c-2.05-1.74-4.03-4.76-6.05-6.88q-8.76-9.2-10.7-11.54a.64.64 0 0 0-1.1.63q1.46 3.89-.51 6.68c-.84 1.2-2.94 2.28-4.17 3.22a2.01 1.99 62.6 0 0-.69 2.2c1.21 3.85-.49 9.52-1.52 13.79a.92.92 0 0 1-.61.66l-20.47 6.73a.38.38 0 0 0-.24.48v.01a.39.39 0 0 0 .48.25c7.12-2.24 14.3-4.09 21.49-6.34q17.05-5.34 48.04-15.02.4-.12 2.72-.87l47.19-15.08q13.6-4.62 33.43-10.66a1.53 1.43 40.8 0 1 .74-.03l1.85.42q1.19-1.69 2.64-2.55v4.08q-3.01 1.71-6.06 3.26-2.89 1.46-6.39 2.51-15.75 4.69-20.86 6.55-1.17.43-6.25 2.78-.69.32-2.43.43a4.45 4.24 33.9 0 0-.88.15q-14.65 4.3-24.99 8.07-5.3 1.93-8.3 2.65-2.74.66-8.22 2.84-3.26 1.29-5.03 1.27a.88.77-48.9 0 0-.22.03l-28.03 9.43a.18.17 35.2 0 0 .06.34h4.4a.46.39 57.5 0 1 .23.07q.61.43.5.81a1.16 1.02-1.1 0 0 1.45 1.23c3.9-1.02 6.73-2.32 10.79-3.08q5.48-1.02 12.96-4.36a9.2 8.93-64.3 0 1 1.23-.45q4.6-1.27 7.76-2.44 4.75-1.75 9.74-1.68a1 .96 17.7 0 0 .79-.39c1-1.35 3.32-3.43 4.94-2.3a.65.65 0 0 0 .79-.04q1.53-1.33 4.29-2.08 3.84-1.04 8.34-3.07 1.12-.51 3.72-.81a3.01 2.72-57.9 0 0 .95-.27c3.89-1.85 6.56-3.52 10.78-4.77q3.06-.91 16.89-5.59c.59-.2 1.08-.84 1.44-.91a.49.48.3 0 1 .58.58q-.44 2.05-.35 5.71a.021.011-34.7 0 0 .03 0q.01-.02.03-.04a.25.06-52.3 0 0 .08-.18q-.35-1.78-.17-2.37a1.25 1.25 0 0 1 2.44.38q-.03 2.86-2.18 2.62a.92.92 0 0 0-.84 1.46q1.84 2.46.3 4.67a1.21 1.14 67.8 0 0-.19.49q-.13.97.52 1.45a.88.85-70.7 0 1 .36.78l-.14 1.61a1.24 1.21 24.7 0 0 .38.99q.17.15.44.2.46.1.6.77.45 2.24-1.47 3.14a.35.35 0 0 1-.48-.2q-.06-.14-.07-.15a.34.34 0 0 0-.58.07q-.92 2.1-.77 4.38a.86.85 75.2 0 1-.47.81q-2.9 1.44-2.94 1.45-3.23 1.36-9.52 3.63c-4.23 1.52-7.8 4.36-12.58 5.18a4.1 4.05 24.3 0 0-1.4.52c-4.74 2.88-11.92 6.8-18.04 7.38a1.47 1.42 16.6 0 0-.95.49q-1.34 1.54-4.08 1.73a2.12 2.11-69.5 0 0-1.38.63c-2.98 3.01-7.14 3.5-10.61 5.66q-1.08.66-4.21 1.21a2.44 2.38-62.4 0 0-.67.22l-8.5 4.25a4.35 4.24-60.2 0 1-1.58.45q-2.69.24-5.61 1.81a.53.53 0 0 1-.68-.79q1.55-2.08.49-5.06a.63.63 0 0 0-.81-.38l-17.01 6.16a5.23 3.99-35.8 0 0-.67.28l-5.11 2.52a.59.59 0 0 1-.64-.99q2.25-1.85 6.28-3.33 10.24-3.76 12-4.89a8.73 8.53 7 0 0 1.18-.9l1.23-1.12a.84.82-65.7 0 1 .56-.22h1.7a3.64 3.57-56.5 0 0 1.46-.31q3.92-1.77 7.93-2.91c2.76-.79 6.96-3.22 9.03-3.93a.45.44-8.5 0 0 .31-.41l.26-4.57a.68.67 42.3 0 1 1.34-.06l.57 3.63a.4.39-13.3 0 0 .51.31l4.13-1.32a1.56 1.55-12.7 0 0 1.07-1.67l-.82-6.41a3.01 2.94-44.3 0 1 .02-.84l.71-4.19a.5.5 0 0 0-.54-.58q-2.38.22-3.23.5c-2.24.74-4.44 2.3-7.05 2.67-2.23.32-4 1.75-6.14 2.24-3.94.89-7.35 3.07-11 3.73q-4.32.77-8.17 3c-1.08.62-2.8.87-4.03 1.08a.49.49 0 0 1-.32-.91l8.26-4.46a1.26 1.26 0 0 0-.04-2.23l-1.62-.82a7.02 7-39.7 0 0-5.11-.47c-7.65 2.23-14.2 3.82-16.73 6.12a.33.33 0 0 0 .08.54q.12.07.37.01.21-.04.18.77-.05 1.77.14 3.09a2.8 2.49-15.6 0 1-1.79 2.78q-1.58.62-2.51 1.56a.93.92 20.6 0 0 .72 1.57q.21-.01.35 0a.57.56-87.8 0 1 .52.57v5.09a.85.82-30.2 0 1-.12.43l-1.01 1.64a.83.83 0 0 0 .29 1.16c1.92 1.09.23 2.77 1.16 4.11q.49.71.59 1.2.17.94-.88 1.46-.73.36-1.36 1.42a.59.59 0 0 0 .51.89q1.12 0 1.22 1.11c.14 1.36.54 2.68.46 3.77a1.44 1.4 68.6 0 1-.37.88q-1.92 2.18-4.73 3.3-.36.15-.66.6a1.01 1.01 0 0 1-.76.45q-4.2.28-6.36 1.08-2.27.84-7 4.16a4.94 4.75-72.7 0 1-.91.5q-2.72 1.1-4.21 2.8a2.92 2.84-81.6 0 1-.89.68q-1.81.87-2.77 1.77a.39.39 0 0 0 .42.64l141.93-59.83q-4.06 3.3-12.3 6.92-20.51 9-41.01 18.03-.85.38-2.12 1.6-.86-.14-1.43.1-94.28 40.96-177.42 76.77a4.16 4.13 46.6 0 1-3.52-.11l-.88-.43a.98.98 0 0 1 .03-1.76q5.45-2.53 20.3-9.04.23-.1.25-.1.37.01.32-.38a.24.24 0 0 0-.29-.2l-6.84 1.61a3.75 3.66 25.2 0 0-.75.26l-5.94 2.68a2.2 2.13-52.7 0 1-1.18.18q-1.16-.16-1.85.45a.69.69 0 0 1-.6.16l-3.93-.84a.96.95 86.8 0 1-.73-.66l-1.6-5.19a.85.84-20.9 0 1 .46-1.02q.53-.32 1.88-.44a.63.62 1.7 0 0 .57-.53q.27-1.71.02-2.11a.61.6 36.6 0 0-1.1.16q-.4 1.49-2.81 2.2a.44.43-15.1 0 0-.3.51l1.65 7.28a.88.87-64.4 0 1-1.64.58l-1.23-2.5a.06.05 69.2 0 0-.06-.03l-.25.09a.35.35 0 0 0-.24.43q.45 1.6 1.86 3.58a1.07 1.07 0 0 1-1.27 1.62q-2.6-1.03-4.09 1.12a.95.94-62.3 0 1-1.1.35l-2.95-1.06a.9.84-4.8 0 1-.41-.32l-4.07-5.9a.58.57-67.7 0 1-.11-.27l-.23-1.47a.65.65 0 0 0-1.28.01q-.18 1.28-1.29 3.09a.39.38 64.3 0 1-.71-.25q.44-3.71-.81-7.69-.58-1.84 1.49-2.6.42-.16.44.01.07.54.1.54a.64.64 0 0 0 .65-.68c-.13-2.39-.33-4.31-3.01-4.2a.68.68 0 0 0-.65.57q-.41 2.62-2.49 3.57a1.3 1.29 46.3 0 1-1.13-.03q-1.43-.73-2.77.31a.59.58-36.1 0 1-.84-.13q-.98-1.4-1.23-2.24h-.01q.66 2.07.49 2.59a.37.36 3.7 0 0 .42.47q1.3-.23 1.98 1.56a.19.18-11.2 0 1-.17.25q-.49.01-.53 0a.54.14 30 0 0 .54.54q.89.34.91 1.49.04 2.84 1 5.01a.52.52 0 0 1-.03.48q-.18.3-.4.32a.03.03 0 0 0 0 .06l.28.06a.26.26 0 0 1 .15.41q-1.83 2.26-4.12 3.32a.84.84 0 0 1-.96-.19l-.41-.44a.53.53 0 0 0-.79.01l-1.19 1.33a.53.53 0 0 1-.84-.07c-4.74-5.62-11.12-6.98-11.56-17.18q-.15-3.61-.63-4.63-2.22-4.78-3.38-8.03a.67.66-25.2 0 1 .29-.79q3.26-1.9 5.35-2.01c2.4-.12 2.4-2.37 5.46-1.06a.33.3-47 0 0 .28-.02l.86-.46a.32.32 0 0 0-.1-.6c-5.63-.88-12.75 2.41-15.78 3.28a1.55 1.5 42.4 0 1-.69.02l-9.01-1.91a2.21 2.19-47.3 0 0-1.11.05l-46.2 14.83a.55.55 0 0 1-.62-.84q.37-.54.09-1.54a.71.69-7.5 0 0-.68-.51h-1.05a.15.15 0 0 1-.04-.29q1.68-.5 4.38-2.48a.09.08-34 0 0 .02-.09l-.16-.28a.31.31 0 0 0-.41-.14q-2.47 1.15-3.94.97a1.7 1.68-76.5 0 0-1.8 1.11q-.96 2.7-2.14 2.75a.48.47-77.7 0 1-.44-.69l.36-.7a1.46 1.44-38.1 0 0 .12-.96q-.55-2.54-2.45-5.07-.41-.55-1.07-.45-.58.09-.89.95-.31.84-1.36 1.06-1.64.33-2.32 1.56a.54.54 0 0 1-.98-.09q-.99-2.91-2.79-5.48-.09-.12-1.27-1.99-9.26-14.72-15.52-25.46a.34.33-21.1 0 1 .22-.49l.69-.15a.13.11-20 0 1 .13.05q9.45 15.91 14.69 24.06c1.1 1.73 2.17 3.9 2.84 5.52a.8.79 69.8 0 0 .98.46l5.18-1.66a1.21 1.21 0 0 1 1.36.46l2.08 3.02a2.29 2.28-26.9 0 0 2.64.86q19.46-6.8 36.56-11.94 6.62-1.99 11.3-3.78.25-.1 11.37-3.58l52.59-16.97c6.94-2.23 14.47-5.29 20.91-6.87q8.1-1.98 11.35-3.82a.88.87 75.3 0 0 .44-.76q-.04-7.4 2.37-15.18c2.24-7.23 3.79-10.74 2.52-17.77a1.55 1.53 51.1 0 1 .09-.89q1.11-2.62 3.95-3.56a.54.54 0 0 0 .34-.68q-.44-1.38.51-2.7a.38.38 0 0 0-.34-.6q-3.38.29-8.96.89-4.25.46-10.71-1.89a.47.46-73.9 0 1-.29-.53l.36-1.68a.39.38 16.5 0 1 .52-.28l2.51.97a.12.11 16.3 0 0 .15-.08l.06-.24a.05.04 27.1 0 0-.02-.05q-2.72-1.12-4.08-3.05a.74.74 0 0 0-1.33.55q.53 3.1 2.17 4.83a.41.41 0 0 1-.17.67q-2.63.89-5.13-1.25a.29.29 0 0 0-.45.09l-.2.41a.28.27 32.3 0 0 .08.34q1.28.99 2.58 1.23a.27.27 0 0 1 .03.52l-19.57 6.29a.13.12 75.4 0 0-.08.15l.09.26a.04.04 0 0 0 .05.03l16.07-2.52a.67.67 0 0 1 .75.51q.31 1.4 1.96 1.56a.17.17 0 0 1 .07.31q-.9.54-1.09 1.13a.76.74 12.6 0 1-.81.5c-4.85-.69-8.81 1.07-13.16 1.76a1.06 1.06 0 0 1-1.03-.44l-.81-1.17a1.06 1.05 69 0 0-1.02-.46q-6.59.91-11.53 1.81-1.64.3-2.29-.54a.37.37 0 0 0-.61.03q-.07.11-1.49.64-1.55.58-2.01-.59-.76-1.91-2.51-3.38a1.18 1.15 60.6 0 0-.88-.26q-5.69.69-13.35 2.37-1.05.23-6.29-.07a1.5 1.5 0 0 0-1.03.34q-2.43 2.08-4.73 1.4a1.08 1.07 31.4 0 0-1.05.25q-1.74 1.63-3.9.84a.95.93 31.6 0 0-1 .23q-1.9 1.95-3.93-.33-.69-.78-.89-3.01a.89.89 0 0 0-.45-.7q-1.18-.64-1.41-1.45a1.73 1.7-13.5 0 1 1.34-2.14q2.32-.45 4.54-1.4a2.01 1.94-53.9 0 1 .91-.16q2.28.17 3.62-2.02a.38.38 0 0 0-.28-.57q-1.1-.12-1.43.47a.6.59-75.5 0 1-.52.31h-2.75a.69.61-48.6 0 0-.16.02l-8.78 2.04a.79.75 12 0 0-.41.25q-.45.52-1.05.45-2.82-.32-5.69.05a2.32 2.25 22 0 0-1.06.43q-1.02.79-1.91.8c-3.17.02-5.17 1.8-8.51 1.4a1.54 1.48-55.4 0 0-.93.19q-.88.51-3.24.36a1.33 1.32-64.4 0 0-.96.34q-2.04 1.86-4.16 1.34a2.08 2.06-45.3 0 0-1.04.01l-9.18 2.41a2.87 2.79-50.2 0 1-.85.09q-9.47-.39-19.88 3.96a1.29 1.28-38.2 0 0-.27 2.22q.74.54 1.36.43a.93.93 0 0 1 .97 1.39q-.79 1.37-.98 2.21a1.41 1.39-56.9 0 0 .22 1.08l1.37 2a.59.55-60.5 0 1 .1.41q-.12.99-1.32 1.03a.55.55 0 0 0-.52.49q-.05.58-.4.85-.43.33-2.8 1.54a2.44 2.43-45.1 0 1-2.18.01q-1.24-.62-1.83.73a2.87 2.71 23.8 0 1-3.76 1.33q-2.6-1.19-3.6.93a1.5 1.26 26.6 0 1-1.93.46q-2.71-1.4-5.08.27-1.35.95-3.11-.11a.87.86 46.3 0 0-.85-.02l-2.82 1.52a2.1 2.07 33.5 0 1-1.22.24l-4.21-.46a1.67 1.67 0 0 1-1.48-1.82q.28-2.83-1.13-4.19a1 .99-40.5 0 1 .13-1.54l4.56-3.15a.45.45 0 0 0-.31-.81q-7.14.91-14.64 2.72c-7.17 1.72-10.15-.98-12.4-7.3a.65.65 0 0 1 .34-.81q1.98-.94 4.01-2.99a.62.62 0 0 0-.6-1.04q-9.02 2.48-17.72 3.48-5.1.59-8.24-1.71a1.02 1.01 19.2 0 1-.42-.86q.22-5.1 2.46-9.71a.83.83 0 0 0-.93-1.17q-6.07 1.37-12.17 2.05-1.94.21-6.84-1.74a1.11 1.1-83.9 0 1-.68-.85l-.81-5.19a.43.41 54.7 0 1 .04-.28l2.06-4.12a1.52 1.52 0 0 0-.39-1.86l-3.26-2.67a1.26 1.23 18.2 0 1-.45-.86q-.53-6.39.71-11.43a1.37 1.34-54.1 0 0-.15-1.01q-1.35-2.27-1.94-6.02c-.37-2.37-1.18-3.52-2.55-5.75a.87.87 0 0 1 .45-1.28c4.99-1.8 11.17-1.77 16.31-2.2 2.97-.25 6.35-3.31 9.47-1.02a.98.94-35.4 0 0 .89.13c.94-.32 1.69-1.51 3.02-1.72q2.22-.34 4.94.86a.95.95 0 0 0 1.14-.3c1.25-1.68 3.67-2.8 5.53-1.49q.67.47 1.12.64a.77.77 0 0 0 .86-.2q1.23-1.38 1-2.88a.87.82 24.9 0 0-.12-.3l-1.84-2.66a.45.44-39.7 0 0-.68-.06q-.84.82-2.04.69a.63.61 86.6 0 1-.53-.48l-1.82-8.07a.61.61 0 0 1 .3-.67c1.21-.68 2.74-.4 3.98-1.3q2.16-1.57 3.09-2.04a1.88 1.76-56 0 1 .92-.21q1.42.03 2.85.71a1 .98 42.1 0 0 .95-.04q1.85-1.13 4.2-1.19a1.4 1.39 63.6 0 1 .94.32l1.63 1.33a.91.9 51.7 0 0 .97.12q1.21-.6 1.91-1.72a1.49 1.44 4.6 0 1 .74-.61q2.43-.91 3.68 1.76a.56.55-33.9 0 0 .88.17l2.46-2.31a1.28 1.27-73.5 0 1 .53-.29q2.13-.57 4.22.14a2.07 2.01 43.4 0 0 1.36-.02c1.83-.65 4.31-1.9 5.53-.23a1 .99-40.6 0 0 1.5.11q1.47-1.47 4.32-2.4a1.16 1.15 60.5 0 1 1.22.34q1.68 1.91 3.09.45c1.64-1.69 2.43-2.15 5.19-.54a1.17 1.16-44.3 0 0 1.15.01l2.82-1.52a1.18 1.18 0 0 1 .86-.1q1.43.38 2.12 1.56a.61.61 0 0 0 1.02.04q2.33-3.32 5.89-.93a.86.85 42.7 0 0 1.01-.04q2.71-2.13 5.86-.59a1.35 1.34 50.4 0 0 .91.09q1.09-.28 1.57-.68a2.74 2.47 37.9 0 1 2.93-.21q1.43.76 2.63.37a1.75 1.64-70.1 0 0 .45-.23c1.28-.87 2.19-1.34 3.61-1.01 1.34.32 1.91.53 3.27.11q2-.62 4.31-.43a1.4 1.36-58.9 0 0 .92-.24c1.42-.98 2.54-1.38 4.57-.79q2.44.7 4.7-1a.77.77 0 0 1 1.22.78l-.34 1.58a.49.49 0 0 0 .88.37q2.07-3.05 5.96-1.76a.94.93-82.6 0 1 .63.83l.08 1.64a.41.4 8.4 0 0 .28.37h.01a.23.23 0 0 0 .2-.15l1.22-4.11a1.82 1.82 0 0 1 2.56-1.11l1.67.84a1.35 1.34-61.9 0 0 1.77-.54q1.08-1.89 3.24-.09a1.32 1.3-30.9 0 0 1.15.28l9.96-2.25a.63.62-2.8 0 0 .48-.52q.31-2.14 2.04-3.43a.54.54 0 0 0-.3-.97c-4.09-.21-8.25.55-12.66.86q-15.72 1.13-43.04 3.92-.32.04-14.89 1.35-7.97.72-14.91 1.45-2.5.26-3.8.2c-2.61-.12-4.78.43-7.9.71q-19.88 1.8-38.97 3.6c-3.37.32-5.43.06-7.92.67q-1.6.39-5.9.52-3.99.12-7.95 1.06.07-2.28 2.32-2.33 8.5-.18 10.43-.87a3.91 3.7 35.6 0 1 1.52-.21q4.53.33 7.46-.48c4.16-1.16 8.69-.25 12.8-1.46a5.53 5.44-52.9 0 1 1.57-.23c5.37-.01 9.5-1.12 14.61-1.39q3.43-.18 18.21-2.93a8.39 7.89 39 0 1 1.89-.14q4.34.15 7.4-.81a6.45 6.39-51.2 0 1 2.45-.28q4.08.33 7.92-.6 2.02-.49 5.5-.48 4.43.01 8.61-1.08l3.59-.07 10.75-1.28a.36.35 51 0 0 .07-.69q-.36-.12-.64-.49a.41.4 70.6 0 1 .31-.66c4.69-.11 10.56-1.46 16.35-1.37q5.25.08 16.18-.12 2.91-.05 5.68-.48 3.83-.61 5.67-.63 4.48-.04 7.44-.08a.71.7-58.5 0 1 .32 1.34q-.45.22-1.86-.07a.66.66 0 0 0-.43 1.24l4.06 2.03a1.2 1.17 48.6 0 0 .92.07l8.13-2.6a.97.96-9.3 0 0 .66-.91v-1.52a1.03 1.01-7.9 0 1 .75-.98q4.49-1.2 8.85-.16 1.21.29 4.28 2.6 3.93 2.97 9.1 3.84.11.52 1.17.48l1.51.39 1.21.07q.13 0 .25.01h1l.58.1q.29.17.67.16c2.43 1.36 7.63.79 10.58.79a1.59 1.59 0 0 1 1.07.39q.02.02.1.09a1.18 1.16 63.9 0 0 1.05.37q2.04-.34 2.33-2.26l.46-.04a.79.76-84.7 0 0 .69-.59q.23-.86 0-1.71.19-2.77-2.32-4.1a.5.5 0 0 1 .26-.94c1.4.04 1.97-.3 2.85-1.59q1.37-1.99 3.6-3.82l-.18 6.04a1.28 1.26-26.8 0 1-.24.71q-.49.71-.43 1.27.25 2.19.01 3.73a1.25 1.24-8 0 1-.72.95q-2.18 1.01-2.18 1.03a1.22 1.06-16.1 0 0 1.94.89q1.42-1.07 3.08-1.03a.57.56-89.5 0 0 .57-.57q0-.89.31-1.31l4.76.4a1.2 1.17 65.9 0 1 .63.25l.53.44a1.34 1.3-25 0 0 .83.29h3.8a1.87 1.82 56.3 0 1 .75.16q2.93 1.25 6.5.6a4.5 3.51-49.4 0 0 .56-.14q1.73-.6 2.03-.59 1.15.04 2.99-1.06 2.92-1.76 2.18-4.06a.78.77-8.7 0 0-.74-.54h-2.13a.27.27 0 0 1-.17-.48q2.13-1.7 4-1.64a.98.98 0 0 0 .8-.36q.18-.22 2.59-1.08 14.5-5.15 23.17-6.23c2.42-.3 5.32-1.55 8.14-1.27a2.79 2.72-49.2 0 0 .93-.08l3.48-.93a.36.18-36.9 0 1 .11-.02q8.64-.07 16.24.03 1.17.01 1.95.56-.49.26-1.18.32a.02.02 0 0 0-.02.02q0 .01 0 .02a.05.05 0 0 0 .05.05q1.87-.18 2.52 1.52a.69.69 0 0 1-.8.92q-3.37-.8-7.43.15a3.72 3.55 38.7 0 1-1.04.09q-2.26-.11-4.49.84a3.43 3.37 33.9 0 1-1.49.28c-3.59-.13-9.28-.91-11.26 2.57a1.15 1.14-44.7 0 0-.01 1.12l.27.52a.48.48 0 0 0 .87-.07q.72-2.03 2.24-1.55 1.36.43 2.6.36 4.39-.22 7.96-.69a3.74 3.7 31.3 0 0 .76-.18c1.57-.56 3.59-1.27 5.22-.45q.65.34 1.87.35a1.1 1.09 18.3 0 1 .88 1.74q-1.8 2.43-1.79 5.87a.61.6 88.7 0 0 .63.61l8.34-.3a.18.17 4.3 0 0 .16-.13l.06-.28a.21.2-1.1 0 0-.26-.24q-1.7.42-2.67-.45a1.39 1.38-70.2 0 1-.44-.94q-.12-2.62.93-4.87a1.14 1.14 0 0 1 .87-.65q1.64-.25 1.58-2.17a.84.83-5.9 0 1 .7-.85l.51-.08a.04.04 0 0 0-.01-.08h-.93a.54.53 4.2 0 1-.53-.61l.39-2.55q5.22-5.43 11.34-3.95a1.19 1.13-17.9 0 1 .48.23l.65.54a.73.71 63.5 0 0 .45.16l5.28.01q.96.88-.39 1.16a1.43 1.4-45.6 0 1-.5.01l-2.79-.51a1.16 1.16 0 0 0-1.34.9l-.61 2.88a.92.92 0 0 0 .88 1.11q1.58.02 2.28 1.58a.86.84-14.9 0 0 .86.49q1.53-.14 2.71-.82a2.42 2.41 35.2 0 1 1.6-.27q1.46.25 2.57-.02a.55.54-2.5 0 1 .67.61q-.44 2.76-1.12 4.57-.41 1.09-1.67 1.2a.99.97-61.7 0 1-.53-1.84q1.1-.62.35-.98a.36.3 50.2 0 0-.22-.04l-3.34.52a1.05 1.05 0 0 0-.82.68l-1.69 4.66a.51.5 8.6 0 0 .5.67q5.11-.2 9.76-2.33a.78.77-12.7 0 0 .45-.7v-6.73a1.89 1.89 0 0 1 1.89-1.89h9.31a3.02 2.96-58.5 0 0 1.4-.35l.44-.24a.85.85 0 0 1 1.22.98q-.73 2.62-1.8 4.9a1.73 1.65 17.9 0 1-1.87.9q-.25-.05-.29-.47-.01-.1-.01 0 0 .13-.01.27a.25.25 0 0 0 .18.24l.44.14a.2.2 0 0 1 0 .39q-.16.08-.89.03a.5.5 0 0 0-.54.45q-.02.23.08.47.13.32.74.3 2.94-.07 5.49.06a.96.96 0 0 0 .93-.59q.35-.85.05-1.72a.58.58 0 0 1 .49-.76l2.89-.29a.6.58-60 0 0 .21-.06q2.78-1.45 7.55-1.06a1.36 1.36 0 0 1 1.19.94q.49 1.55.96 1.69a.05.05 0 0 1-.01.09h-3.25a1.15 1.11-68 0 0-.83.37q-.76.82-2.31.85a.44.43 82.5 0 0-.41.54q.07.28.23.47a1.85 1.73 41.9 0 1 .18 2.05q-1.71 2.83-2.77 5.19a1.02.99 44 0 0 .03.88q.01.02.09.13a1.34 1.31 32.7 0 1 .23 1.01q-.45 2.56-1.83 4.81a.16.16 0 0 0 .21.23l.38-.21a.38.38 0 0 1 .56.34q-.02 2.12-1.66 3a.48.47-20 0 1-.69-.32q-.05-.28-.06-.29a.19.19 0 0 0-.35 0c-.02.05.28 1.09.49 1.86a1.19 1.19 0 0 1-.16.97q-2.18 3.27-2.37 4.86-.36 2.98-1.18 6.2c-.45 1.76-2.3 2.72-2.03 4.72a.25.24-26 0 0 .41.14l1.07-1a1.74 1.74 0 0 1 2.92 1.43q-.27 2.69-2.21 4.78a.71.71 0 0 0 .46 1.19c4.37.41 6.12-1.41 7.73-5.42q1.03-2.55 2.06-3.75a.87.87 0 0 1 .8-.29q.34.05.41.03a.25.25 0 0 0 0-.48q-.48-.16-.65-.34a.66.66 0 0 1 .13-1.01q.08-.05.15-.08a.61.61 0 0 0 .22-.9q-.47-.66.14-1.49.64-.88.7-1.46.2-1.77 1.52-4.57a.78.69 68 0 0 .06-.17l1.89-7.2a.8.79-57.6 0 1 1.38-.31q.14.17.16.19a.2.2 0 0 0 .28-.11l2.64-7.1a.82.81-79.9 0 0-.76-1.1h-6.74a.46.46 0 0 1-.36-.75q.72-.92 1.94-1.45a.76.74 77.6 0 0 .45-.72q-.1-2.36 1.23-4.14a.82.82 0 0 0 .15-.67q-.03-.12-.03-.13a.41.4 9.8 0 1 .56-.39l.87.36a.54.54 0 0 0 .68-.26l1.44-2.87a.37.36 22 0 0-.22-.51l-3.4-1.07a.91.79 70.9 0 1-.26-.15l-4.47-3.66a.99.99 0 0 0-1.57.47q-1.55 5.02-7.35 4.24a.68.67 9.1 0 1-.58-.8q.41-2.07-.6-4.03a.26.26 0 0 1 .33-.36q.15.06.32.26 5.75-1.48 12.01-1.06a1.13 1.13 0 0 0 .95-.41q.01-.01.04-.05a1.2 1.14-78.9 0 1 .62-.44c4.36-1.31 4.09-5.77 4-10.18h5.68zm-100.4 26.31l-.36-2.31a.12.12 0 0 0-.13-.1q-.2.03-.26-.03a1.17.89 38 0 1-.32-1.23q1.37-2.61 1.63-3.19a.7.7 0 0 0-1.05-.86l-1.66 1.23a.63.58 20.8 0 1-.3.12q-.62.06-1.41-.66a.95.94 44.3 0 0-1.28.01l-.53.5a1.1 1.1 0 0 1-1.5 0q-1.07-.98-1.96.09-.23.27-.79.47-.46.16-.91-.19-.56-.44-1.28-.23-2 .59-3.3 1.34a1.65 1.65 0 0 0-.67.73q-.67 1.44-.16 2.64a.85.85 0 0 1-.26 1q-1.15.87-1.56 2.74a.75.75 0 0 0 .89.89c2.14-.47 2.73-1.51 2.13-3.69a.82.82 0 0 1 1.35-.83q1.63 1.5 5.29 2.62a.35.33 46.6 0 0 .18.01l5.44-.85a.8.79-72.1 0 0 .46-.24q.92-.96 1.93.2a.22.22 0 0 0 .39-.18zm44.09-2.35q.24 0 .75-.36c.96-.69 1.36-.45 2.66-.26a1.05 1.04 21.5 0 0 1.02-.44q.54-.78.71-2.13a.55.54 7.3 0 0-.48-.61q-2.31-.3-2.99 1.38c-.41 1.02-1.48 1.29-1.93 1.86a.35.35 0 0 0 .26.56zm56.99 5.35l-1.2-.4a.23.23 0 0 0-.29.15l-3.05 9.23a10.69.74-71.7 0 0-2.65 10.38l.22.08a10.69.74-71.7 0 0 4.06-9.92l3.05-9.23a.23.23 0 0 0-.14-.29zm-158.14 6.48q-2.36-1.18-3.54-2.83a.95.95 0 0 0-1.22-.29l-.32.18a1.08 1.06 49.8 0 1-1.18-.11q-1.94-1.55-3.87-1.62a1.36 1.36 0 0 0-1.26.75l-.8 1.59a.59.59 0 0 0 .54.86q3.75-.11 8.11 1.28a1.03 1.02-74.1 0 1 .68 1.23q-.46 1.8 1.61 2.74a.88.87-54.2 0 0 .96-.16q.7-.64.82-2.72a.96.95 14.8 0 0-.53-.9zm13.72-.75q-1.06 2.27-.99 5.45.06 2.64-2.05 5.94a1.42 1.38-81.7 0 1-.77.59l-3.18 1.02a.19.19 0 0 0-.12.24l.08.25a.26.26 0 0 0 .38.14q2.15-1.23 3.36-.29a.5.5 0 0 0 .74-.14q2.5-4.15 2.68-7.34.09-1.58.3-3.39a1.8 1.77-24.6 0 1 .32-.84q.94-1.29 2.97-1a.46.46 0 0 0 .51-.33l.09-.27a.37.37 0 0 0-.35-.49h-3.25a.81.79-77 0 0-.72.46zm-31.54 5.68q1.62-1.2 3.62-.93.75.1 1.34-.35.94-.71.86-1.16a.53.53 0 0 0-.77-.37q-1.08.58-3.59.65-1.77.04-1.88.14a1.44 1.43 64.7 0 0-.5 1.41l.07.29a.55.54-24 0 0 .85.32zm-79.879-.549a1.15 1.15 0 0 0-1.076-1.22l-.18-.011a1.15 1.15 0 0 0-1.22 1.075l-.187 2.974a1.15 1.15 0 0 0 1.075 1.22l.18.011a1.15 1.15 0 0 0 1.22-1.075l.187-2.974zm113.224 4.918a2.03.75-82.2 0 0-1.019 1.909 2.03.75-82.2 0 0 .468 2.113 2.03.75-82.2 0 0 1.019-1.909 2.03.75-82.2 0 0-.468-2.113zM249.48 49.36q-.87-1.73-1.08-3.78a.25.25 0 0 0-.29-.22l-.25.04a.13.13 0 0 0-.11.15l1.44 9.2a.71.71 0 0 0 1.41-.11v-4.35a.33.31 31.2 0 0-.05-.17q-.16-.25-.34-.24a.92.72 73.4 0 1-.73-.52zm-73.35-.67q1.16.02 1.52.91a.87.82-50.1 0 0 1.6-.19q.69-2.58-1.41-3.46a1.37 1.32 52.4 0 0-.68-.1l-4.65.54a.85.85 0 0 0-.75.84v3.25a.46.45-28 0 0 .83.25q1.41-2.07 3.54-2.04zm83.79.43l-1.73.23a.27.27 0 0 0-.23.3l.03.2a3.43 1.12 82.5 0 0 1.55 3.26l.04-.01a3.43 1.12 82.5 0 0 .67-3.55l-.03-.19a.27.27 0 0 0-.3-.24zm-119.94 1.97l-.04 3.1a.25.25 0 0 0 .24.26h.15a1.9 1.78.9 0 0 1.93-1.75v-.04a1.9 1.78.9 0 0-1.87-1.81h-.15a.25.25 0 0 0-.26.24zm-5.415.984a1.57.76-79.9 0 0-1.024 1.412 1.57.76-79.9 0 0 .473 1.679 1.57.76-79.9 0 0 1.023-1.412 1.57.76-79.9 0 0-.473-1.679zM90.07 55.58l1 5.51a.1.1 0 0 0 .11.08h.02a2.78 2 79.7 0 0 1.47-3.09l-.04-.24a2.78 2 79.7 0 0-2.46-2.38l-.02.01a.1.1 0 0 0-.08.11zm193.399 1.5a1.17.4-82.7 0 0-.546 1.11 1.17.4-82.7 0 0 .248 1.211 1.17.4-82.7 0 0 .546-1.11 1.17.4-82.7 0 0-.248-1.211zM82.98 57.6l.12 4.82a.16.16 0 0 0 .16.15h.09a2.4 2.07 88.6 0 0 2.01-2.45v-.34a2.4 2.07 88.6 0 0-2.13-2.35l-.09.01a.16.16 0 0 0-.16.16zm-7.8 1.05l-.27 3.9a.22.22 0 0 0 .2.23l.11.01a2.04 2.01-86.1 0 0 2.15-1.9l.02-.26a2.04 2.01-86.1 0 0-1.87-2.17l-.11-.01a.22.22 0 0 0-.23.2zm194.77 1.96q-.1 1.04.34 1.42a.47.47 0 0 0 .74-.16q.01-.04.12-1.14.11-1.09.1-1.14a.47.47 0 0 0-.69-.3q-.51.29-.61 1.32zm182.2.06q-2.31 2.55-5.33 1.75a3.77 3.76 40.9 0 0-2.4.17q-4.48 1.89-8.45 1.79a1.97 1.9-56.8 0 0-.97.22q-2.63 1.38-6.76 2.42c-1.2.3-2.08-.23-2.99-.15a.64.6 28.4 0 0-.19.05l-11.24 4.24a2.2 2.17 84.1 0 0-1.39 1.73l-.41 2.82a.59.59 0 0 1-.32.45q-.44.21-.46.49a.48.48 0 0 0 .44.53c2.16.17 2.55 1.74 4.63 2.72a.5.49 22 0 0 .67-.28l.26-.72a.93.92-84 0 1 .73-.6l3.73-.59a.76.76 0 0 0 .64-.87l-.23-1.46a.25.25 0 0 0-.28-.21l-1.1.18a.2.2 0 0 1-.14-.37c1.89-1.26 1.96-1.62 3.09-3.89a.16.15 52.6 0 1 .29.04q.03.14.06.35a.39.38-15.3 0 0 .53.3l3.8-1.63a1.39.61-39.7 0 1 .21-.06l13.04-2.38a1.67 1.63 20.5 0 0 .75-.33q1.14-.85 6.68-1.85 3.79-.68 3.78-4.6a.39.38 66.1 0 0-.67-.26zm-190.005.012a1.2.66-74.8 0 0-.952.985 1.2.66-74.8 0 0 .322 1.331 1.2.66-74.8 0 0 .952-.985 1.2.66-74.8 0 0-.322-1.331zm-32.132 4.484a1.66.63-73.8 0 0-1.068 1.418 1.66.63-73.8 0 0 .142 1.77 1.66.63-73.8 0 0 1.068-1.418 1.66.63-73.8 0 0-.142-1.77zM107.9 70.616a.62.62 0 0 0-.551-.682l-.139-.015a.62.62 0 0 0-.682.551l-.489 4.574a.62.62 0 0 0 .551.682l.139.015a.62.62 0 0 0 .682-.551l.489-4.574zm154.856 22.307a1.49.8-64.7 0 0-1.36 1.005 1.49.8-64.7 0 0 .087 1.689 1.49.8-64.7 0 0 1.36-1.005 1.49.8-64.7 0 0-.087-1.689zm-22.487.256a1.19.49-137.7 0 0 .55 1.163 1.19.49-137.7 0 0 1.21.439 1.19.49-137.7 0 0-.55-1.163 1.19.49-137.7 0 0-1.21-.438zM40.87 97.78a.37.37 0 0 0-.74 0 .37.37 0 1 0 .74 0zm198.8.6l.23 2.02a.56.56 0 0 0 1.11.04q.33-1.66-.9-2.35a.3.29 11.2 0 0-.44.29zm-10.12 4.45q.36.14 1.19.11.92-.03 1.07-1.03.08-.56-.11-1.46a.44.44 0 0 0-.77-.19l-1.56 1.89a.44.44 0 0 0 .18.68zm26.93 2.61q-.2-.04-.53.35-.36.42-.02.89.23.33.51.08a.87.59-54.1 0 0 .04-1.32zm211.506 13.777a2.14 1.37-3.3 0 0-2.215-1.245 2.14 1.37-3.3 0 0-2.058 1.491 2.14 1.37-3.3 0 0 2.215 1.245 2.14 1.37-3.3 0 0 2.058-1.491zM377.59 132.12q-4.97.61-9.57 2.4-.91.35-2.4 1.67a1.48 1.46-67.9 0 1-.86.37q-4.32.43-7.97 2.53a.16.16 0 0 0 .11.3q6.76-1.07 11.37 2.17a.37.37 0 0 1-.07.65q-2.06.86-6.45 2.22-1.71.54-2.89 1.45a.59.58 19.7 0 0 .49 1.03l4-.91a.92.84 21.2 0 0 .26-.1c2.31-1.35 4.43-2.61 6.89-2.53q1.41.04 2.16-1.06a1.16 1.16 0 0 1 1.07-.49q2.82.28 3.7-2.14a3.27 3.12-33.3 0 0 .19-.82q.02-.2-.28-5.31-.03-.53.44-1.09a.21.21 0 0 0-.19-.34zm-26.09 15.567a1.84.95-71.3 0 0-1.49 1.438 1.84.95-71.3 0 0 .31 2.047 1.84.95-71.3 0 0 1.49-1.438 1.84.95-71.3 0 0-.31-2.048zm-40.374 14.132a1.68.6-98.7 0 0-.339 1.751 1.68.6-98.7 0 0 .847 1.57 1.68.6-98.7 0 0 .339-1.752 1.68.6-98.7 0 0-.847-1.57zm.995 10.329a1.53.55-105.9 0 0-.11 1.622 1.53.55-105.9 0 0 .948 1.321 1.53.55-105.9 0 0 .11-1.622 1.53.55-105.9 0 0-.948-1.321zM301.68 187.58q.02.88.71 1.81a.27.27 0 0 0 .49-.15q.09-1.46-.16-1.91a.56.54 30.7 0 0-1.04.25zm-58.12 13.38a.35.34-10.5 0 0 .53.36q1.39-.92.81-2.38a.49.49 0 0 0-.93.08l-.41 1.94zm1.96 9.17v1.38a.56.56 0 0 0 1.08.2q.58-1.59-.49-1.99a.44.44 0 0 0-.59.41zm-4.7 1.67l.45 2a.37.37 0 0 0 .73-.05q.16-1.46-.77-2.2a.26.25 13.3 0 0-.41.25zM510.75.91a.48.44 21.6 0 1 .85-.33q.1.15-.18.62a.3.29 40.1 0 1-.48.04q-.13-.16-.19-.33z" class="B"/><path d="M407.78 12.14q-.17-.2-.32-.26a.26.26 0 0 0-.33.36q1.01 1.96.6 4.03a.68.67 9.1 0 0 .58.8q5.8.78 7.35-4.24a.99.99 0 0 1 1.57-.47l4.47 3.66a.91.79 70.9 0 0 .26.15l3.4 1.07a.37.36 22 0 1 .22.51l-1.44 2.87a.54.54 0 0 1-.68.26l-.87-.36a.41.4 9.8 0 0-.56.39q0 .01.03.13a.82.82 0 0 1-.15.67q-1.33 1.78-1.23 4.14a.76.74 77.6 0 1-.45.72q-1.22.53-1.94 1.45a.46.46 0 0 0 .36.75h6.74a.82.81-79.9 0 1 .76 1.1l-2.64 7.1a.2.2 0 0 1-.28.11q-.02-.02-.16-.19a.8.79-57.6 0 0-1.38.31l-1.89 7.2a.78.69 68 0 1-.06.17q-1.32 2.8-1.52 4.57-.06.58-.7 1.46-.61.83-.14 1.49a.61.61 0 0 1-.22.9q-.07.03-.15.08a.66.66 0 0 0-.13 1.01q.17.18.65.34a.25.25 0 0 1 0 .48q-.07.02-.41-.03a.87.87 0 0 0-.8.29q-1.03 1.2-2.06 3.75c-1.61 4.01-3.36 5.83-7.73 5.42a.71.71 0 0 1-.46-1.19q1.94-2.09 2.21-4.78a1.74 1.74 0 0 0-2.92-1.43l-1.07 1a.25.24-26 0 1-.41-.14c-.27-2 1.58-2.96 2.03-4.72q.82-3.22 1.18-6.2.19-1.59 2.37-4.86a1.19 1.19 0 0 0 .16-.97l-.49-1.86a.19.19 0 0 1 .35 0q.01.01.06.29a.48.47-20 0 0 .69.32q1.64-.88 1.66-3a.38.38 0 0 0-.56-.34l-.38.21a.16.16 0 0 1-.21-.23q1.38-2.25 1.83-4.81a1.34 1.31 32.7 0 0-.23-1.01q-.08-.11-.09-.13a1.02.99 44 0 1-.03-.88q1.06-2.36 2.77-5.19a1.85 1.73 41.9 0 0-.18-2.05q-.16-.19-.23-.47a.44.43 82.5 0 1 .41-.54q1.55-.03 2.31-.85a1.15 1.11-68 0 1 .83-.37h3.25a.05.05 0 0 0 .01-.09q-.47-.14-.96-1.69a1.36 1.36 0 0 0-1.19-.94q-4.77-.39-7.55 1.06a.6.58-60 0 1-.21.06l-2.89.29a.58.58 0 0 0-.49.76q.3.87-.05 1.72a.96.96 0 0 1-.93.59q-2.55-.13-5.49-.06-.61.02-.74-.3-.1-.24-.08-.47a.5.5 0 0 1 .54-.45q.73.05.89-.03a.2.2 0 0 0 0-.39l-.44-.14a.25.25 0 0 1-.18-.24q.01-.14.01-.27 0-.1.01 0 .04.42.29.47a1.73 1.65 17.9 0 0 1.87-.9q1.07-2.28 1.8-4.9a.85.85 0 0 0-1.22-.98l-.44.24a3.02 2.96-58.5 0 1-1.4.35h-9.31a1.89 1.89 0 0 0-1.89 1.89v6.73a.78.77-12.7 0 1-.45.7q-4.65 2.13-9.76 2.33a.51.5 8.6 0 1-.5-.67l1.69-4.66a1.05 1.05 0 0 1 .82-.68l3.34-.52a.36.3 50.2 0 1 .22.04q.75.36-.35.98a.99.97-61.7 0 0 .53 1.84q1.26-.11 1.67-1.2.68-1.81 1.12-4.57a.55.54-2.5 0 0-.67-.61q-1.11.27-2.57.02a2.42 2.41 35.2 0 0-1.6.27q-1.18.68-2.71.82a.86.84-14.9 0 1-.86-.49q-.7-1.56-2.28-1.58a.92.92 0 0 1-.88-1.11l.61-2.88a1.16 1.16 0 0 1 1.34-.9l2.79.51a1.43 1.4-45.6 0 0 .5-.01q1.35-.28.39-1.16l18.95-.02a.29.24 50.7 0 1 .1.02l3.98 1.44a1.08 1.06 1.4 0 1 .64.66l.38 1.13zm-47.31-.43q2.24.93 5.06.21l-.39 2.55a.54.53 4.2 0 0 .53.61h.93a.04.04 0 0 1 .01.08l-.51.08a.84.83-5.9 0 0-.7.85q.06 1.92-1.58 2.17a1.14 1.14 0 0 0-.87.65q-1.05 2.25-.93 4.87a1.39 1.38-70.2 0 0 .44.94q.97.87 2.67.45a.21.2-1.1 0 1 .26.24l-.06.28a.18.17 4.3 0 1-.16.13l-8.34.3a.61.6 88.7 0 1-.63-.61q-.01-3.44 1.79-5.87a1.1 1.09 18.3 0 0-.88-1.74q-1.22-.01-1.87-.35c-1.63-.82-3.65-.11-5.22.45a3.74 3.7 31.3 0 1-.76.18q-3.57.47-7.96.69-1.24.07-2.6-.36-1.52-.48-2.24 1.55a.48.48 0 0 1-.87.07l-.27-.52a1.15 1.14-44.7 0 1 .01-1.12c1.98-3.48 7.67-2.7 11.26-2.57a3.43 3.37 33.9 0 0 1.49-.28q2.23-.95 4.49-.84a3.72 3.55 38.7 0 0 1.04-.09q4.06-.95 7.43-.15a.69.69 0 0 0 .8-.92q-.65-1.7-2.52-1.52a.05.05 0 0 1-.05-.05q0-.01 0-.02a.02.02 0 0 1 .02-.02q.69-.06 1.18-.32zm-83.76 9.38q-1.13 2.09.49 2.06-.55.11-.59.44-.14 1.21-.07 3.87-.31.42-.31 1.31a.57.56-89.5 0 1-.57.57q-1.66-.04-3.08 1.03a1.22 1.06-16.1 0 1-1.94-.89q0-.02 2.18-1.03a1.25 1.24-8 0 0 .72-.95q.24-1.54-.01-3.73-.06-.56.43-1.27a1.28 1.26-26.8 0 0 .24-.71l.18-6.04 1.74-1.33a1.14 1.12-11.6 0 1 1.8 1.16q-.15.54-.88 1.32a1.62 1.61 71.4 0 0-.42.85q-.29 1.68.09 3.34zm165.02-3.79q-1.56.3-1.28-.53.94-.17 1.28.53zm-111.44 9.19q-1.01-1.16-1.93-.2a.8.79-72.1 0 1-.46.24l-5.44.85a.35.33 46.6 0 1-.18-.01q-3.66-1.12-5.29-2.62a.82.82 0 0 0-1.35.83c.6 2.18.01 3.22-2.13 3.69a.75.75 0 0 1-.89-.89q.41-1.87 1.56-2.74a.85.85 0 0 0 .26-1q-.51-1.2.16-2.64a1.65 1.65 0 0 1 .67-.73q1.3-.75 3.3-1.34.72-.21 1.28.23.45.35.91.19.56-.2.79-.47.89-1.07 1.96-.09a1.1 1.1 0 0 0 1.5 0l.53-.5a.95.94 44.3 0 1 1.28-.01q.79.72 1.41.66a.63.58 20.8 0 0 .3-.12l1.66-1.23a.7.7 0 0 1 1.05.86q-.26.58-1.63 3.19a1.17.89 38 0 0 .32 1.23q.06.06.26.03a.12.12 0 0 1 .13.1l.36 2.31a.22.22 0 0 1-.39.18zm44.22-3.09c.45-.57 1.52-.84 1.93-1.86q.68-1.68 2.99-1.38a.55.54 7.3 0 1 .48.61q-.17 1.35-.71 2.13a1.05 1.04 21.5 0 1-1.02.44c-1.3-.19-1.7-.43-2.66.26q-.51.36-.75.36a.35.35 0 0 1-.26-.56z" class="C"/><path d="M282.8 21.96q-.78-.24-1.37.24-1.69 1.44-4.23.95-1.62.03-.49-2.06 2.9.01 5.59-.24a.9.9 0 0 1 .98.88q.01.25-.48.23z" class="B"/><path d="M282.8 21.96q-.53.34-1.37.24.59-.48 1.37-.24zm-12.81 4.24q.23.85 0 1.71a.79.76-84.7 0 1-.69.59l-.46.04q.09-1.05 1.15-2.34z" class="C"/><path d="M512 27v.69q-.34.25-.74.18a.67.66 27.3 0 1-.37-1.13q.16-.16.41-.2a.45.42-25.4 0 1 .37.12l.33.34z" class="B"/><path d="M438.87 147.58l-9.61 9.11q-.81-1.58-3.35-.72-4.09 1.4-4.5 1.85a1.1 1.07 24 0 1-.89.33c-2.1-.23-4.55 1.29-6.91 2.57a5.22 4.77-66 0 1-.89.39q-8.13 2.7-12.24 4.69-5.47 2.65-12.05 5.1-8.33 3.1-13.31 5.79-4.35 2.36-6.42 2.74a2.37 1.69 17.5 0 0-.43.14q-18.89 8.37-23.98 10.17c-.85.3-1.45.96-2.16 1.24q-10.04 3.82-13.33 5.61-3.69 2-6.58 2.57-.41.08-2.67 1.81a.67.67 0 0 0-.02 1.05l.31.26a1.04 1.03-54.6 0 0 1.53-.26q.7-1.13 2.16-1.14a.94.92-63.1 0 0 .56-.19l1.29-.96a.88.65 8.3 0 1 .13-.07q2.79-.93 6.81-2.33 1.06-.37 2.7-1.27 3.74-2.06 6.01-3.03a.25.24 85.9 0 1 .33.29q-.02.05-.02.06a.68.68 0 0 0 .79.69q.66-.1 1.31-.62a1.3 1.25 71.4 0 1 2.04 1.06q0 1.33 1.16 1.44a.89.79-50.4 0 1 .06 1.64q-1.76.71-2.62 1.89a1.14 1.14 0 0 1-.83.46c-.86.06-1.36-.27-2.11.46q-.89.87-2.37.68a.93.91 21.8 0 0-.86.36q-.02.04-.04.06a1.39 1.35 25 0 1-1.09.38c-2-.2-2.25 1.61-3.84 1.5a1.28 1.25-61.4 0 0-.85.26q-5.13 3.99-10.91 1.56a.4.4 0 0 0-.44.65q1.06 1.09.52 2.85a1.23 1.2 82.6 0 1-.5.67q-3.05 1.95-6.13 2.59-1.17.25-1.8.81-.9.81-1.77.64a.78.77-84.2 0 0-.93.76v2.05a.34.34 0 0 0 .57.25l1.26-1.19a.77.77 0 0 1 .59-.2q1.45.11 3.23-.55 8.21-3.06 15.54-6.21 1.03-.45 4.37-2.26 3.11-1.7 4.96-1.95a1.67 1.51-61 0 0 .61-.21l4.96-2.99a1.39 1.29 20.6 0 1 .39-.16q3.74-1 8.14-3.72a2.67 2.62 25.5 0 1 1.04-.36l2.25-.26a.29.29 0 0 1 .25.48q-.71.83-.41 1.88a.47.46-25.8 0 0 .72.25q.69-.49 1.81-.16a1.83 1.82 34.4 0 0 1.64-.3q1.06-.81 2.78-1.26 1.16-.3 2.77-1.16 8.69-4.66 16.46-8.28 2.16-1.01 5.28-5.28a4.46 4.44-83.9 0 1 1.75-1.42l24.08-10.7q-11.19 10.44-16.67 15.3-5.79 5.14-13.05 10.31l-4.05-.22a1.49 1.46 30.1 0 0-.83.21l-4.17 2.59a5.06 4.9 19.4 0 1-1.13.52q-2.58.83-6.3 2.81a1.67 1.5 21.5 0 1-.43.16l-3.58.81a.471.471 0 0 1-.28-.9l3.83-1.45a4.47 3.73-64.2 0 0 .53-.24l21.05-11.38a.47.47 0 0 0-.32-.87q-5.65 1.19-9.93 4.53a3.15 3.08-73.9 0 1-.83.47c-2.75 1.09-5.64 1.18-7.96 3.04-2.03 1.62-4.07 1.34-6.34 2.54q-2.21 1.15-2.96 1.01-2.32-.46-4.77 1.05-2.4 1.47-1.14 3.37a.18.18 0 0 1-.22.27q-.7-.29-1.73.5-.97.73-1.91.94c-3.39.74-7.33 3.34-10.98 4.89q-3.74 1.59-10.12 5.12-.96.53-2.8.33a.52.52 0 0 1-.46-.62l.07-.36a.27.27 0 0 0-.04-.22q-.37-.58-.74.2a.56.56 0 0 0 .09.6q.62.7.56.94a.61.6 10.6 0 1-.63.43q-1.75-.14-1.99.26a.23.23 0 0 0 .29.33q1.24-.55 2.7.43a.43.43 0 0 1-.01.71q-2.07 1.33-3.18 3.07a.79.79 0 0 0 .9 1.18l4.69-1.51a.39.39 0 0 1 .42.62l-2.53 3.09a.33.33 0 0 0 .33.54q3.43-.76 5.31-1.75a.25.25 0 0 0-.04-.46q-.68-.21-3.44 1.02a.341.341 0 0 1-.36-.58c2.13-1.76 4.21-1.69 6.18-3.01q5.3-3.54 12.86-6.76.7-.3 1.82-.2a1.04 1.03-67.3 0 0 .89-.37q1.77-2.1 5.22-3.4a1.08.96-17.2 0 1 1.39.63q.05.23-.54.62-6.13 3.03-10.33 6.66-4.84 4.17-7.37 5.96-1.76-.7-3.36.56-2.83 2.23-4.95 2.97-.65.23-1.18.14-.81-.14-1.14.4a1 .99 57.3 0 0-.15.7q.25 1.67-.69 4.43l-11.48 7.35q-2.24-.99-3.43-2.73a1.2 1.2 0 0 0-2.18.85q.42 2.94 1.64 3.72-2.1 2.29-5.08 3.42a2.67 2.55-56.6 0 1-.74.17q-1.81.12-3.24.68-2.34-2.79-1.81-5.84a.81.81 0 0 0-1.04-.91q-5.55 1.75-10.62 4.96a.51.51 0 0 1-.65-.78q2.21-2.38 4.97-3.7 5.77-2.77 9.93-5.87a.59.59 0 0 0-.46-1.05q-6.4 1.15-11.57 5.26a.71.71 0 0 1-1.02-.15l-.15-.22a.89.89 0 0 1 .3-1.29q8.94-5.03 17.6-8.56c4.69-1.91 7.89-4.35 11.1-7.5a.52.52 0 0 0-.52-.87l-4.75 1.53a.41.4-35.9 0 1-.35-.05q-.61-.43-.56-.85a.66.65 5.4 0 1 .71-.58q7.64.56 8.62-6.03a.36.36 0 0 0-.52-.37l-7.47 3.82a.66.6-52.3 0 1-.39.07q-2.06-.29-3.27 1.15a.94.93 23.4 0 1-.85.33c-1.7-.24-2.66 1.04-4.31 1.29q-1.47.21-3.2 1.81a1.25 1.21 18.2 0 1-.64.31l-2.67.39a.22.22 0 0 1-.2-.36q2.17-2.63 6.31-5.39a1.66 1.65 53.8 0 0 .37-2.41q-.01-.02-.22-.19a.79.78-47.8 0 1-.05-1.12l5.03-5.29a1.63 1.62-80.1 0 1 .51-.36q1.78-.77 4.18-2.68a1.49 1.48-16.5 0 0 .53-.97q.1-.95.47-1.64a.46.46 0 0 0-.62-.62l-4.28 2.31a.45.44 49 0 1-.5-.04l-.23-.2a.96.94 54.3 0 0-.92-.16q-3.1 1.06-3.23 1.15-2.54 1.9-4.96 2.49a.44.1-31.7 0 0-.09.03l-22.64 9.6a.03.02-58.3 0 0-.02.01q-1.86.99-3.56 4.12-1.31 2.43-5.24 3.91a1.7 1.05-58.3 0 0-.26.13l-3 1.86a.5.5 0 0 1-.73-.23l-.14-.34a.28.26-29.6 0 1 .1-.33l7.3-5.04a1.86 1.57-83.5 0 0 .36-.34l1.38-1.81a.48.48 0 0 0-.66-.69l-7.2 4.9a.94.94 0 0 1-.64.16q-.43-.16-2.31.52-7.41 2.67-10.46 5.06a.66.66 0 0 1-.74.06q-.07-.04-.21-.03a.09.09 0 0 0-.07.07q-.04.53-.05.71a.02.02 0 0 1-.04 0v-.25a.79.79 0 0 0-1.22-.67l-6.01 3.85a.43.3-55.3 0 1-.08.03q-4.63 1.11-8.46 3.74a1.3 1.3 0 0 1-.53.22q-1.39.24-1.16-.99a.68.68 0 0 0-.93-.75l-19.1 8.1a.93.85-53.4 0 1-.41.08q-2.71-.1-3.76.13-.43.1-.47.15-.22.29-.43.28a.3.3 0 0 1-.14-.56q.58-.36.78-.52a.47.46 25.8 0 0-.29-.83h-.88a3.41 3.41 0 0 1-2.49-1.08l-4.36-4.66a1.42 1.41-32.8 0 0-1.58-.34l-6.1 2.59a.27.27 0 0 0-.07.46l.46.37a.23.22-28.4 0 0 .19.05l1.37-.31a.88.87-27.8 0 1 .83.25l6.5 6.95a.92.92 0 0 0 1.22.11q1.97-1.47 3.75-1.94a.39.39 0 0 1 .37.66q-2.03 1.94-4.17 2.89a2.21 2.21 0 0 1-2.52-.5l-4.35-4.65a.94.93 56.6 0 0-1.05-.22q-1.56.67-4.2.46a.6.58 76.7 0 0-.54.9q.33.55-.08.79a.52.51-40.6 0 0-.07.85q2.26 1.83 3.11 3.88a.12.12 0 0 0 .23-.04q.01-.34.02-.37a.34.34 0 0 1 .58 0c1.61 2.72-.17 5.36-2.21 7.61a3.89 3.54 81.6 0 0-.57.85c-2.21 4.68-2.3 7.56 3.73 8.13q1.92.18 11.14.57 3.86.17 11.13 2.44a.09.08-8.6 0 0 .1-.13q-.14-.18-.1-.25a.13.12-41 0 1 .22.01q1.16 2.7 4.48 1.51a1.15 1.14 69.8 0 1 1.46.68q.91 2.36 2.04 2.17a1.79 1.75-69.2 0 0 .84-.39q1.19-.99 2.91-.3a1.13 1.09-44 0 0 .79 0q.99-.37 1.25-1.13a.87.82-45.1 0 1 1.61-.05q.25.9.24.96a.26.26 0 0 0 .29.28l.73-.09a.26.26 0 0 0 .13-.46q-.63-.52-.26-1.28.08-.18.28-.29.28-.16.53-.1a.3.28-57.9 0 0 .27-.07l3.39-3.18a.47.39-66.3 0 1 .22-.11l1.94-.44a1.31 1.3-78.3 0 0 .73-.48q1.07-1.44 3.17-1.5a.59.59 0 0 1 .6.54q.15 1.48 1.39 1.22a.63.63 0 0 1 .61 1.01l-.84 1.03a.55.52-73 0 1-.32.18q-1.61.25-6.18 3.22-1.03.67-1.55-.75a.38.38 0 0 0-.37-.24q-.51.02-.6.44a.45.42 43.2 0 0 .01.16l.61 2.72a.75.75 0 0 0 1.2.41c1.36-1.1 3.56-2.78 5.42-2.44q-.52.64-.57 1.54a1.15 1.14 77.6 0 1-.59.93q-.82.44-.56 1.47a.53.52-6.9 0 1-.51.65h-16.31a3.12 3.12 0 0 0-2.76 1.66q-1.12 2.09-1.04 3.73a2.84 2.44 40.7 0 0 .09.6q.97 3.39.48 4.92c-1.43 4.4-1.16 10.19-1.03 14.44a7.69 7.3-40 0 1-.25 2.2c-1.17 4.42-.23 9.36-5.29 11.68q-17.22 7.89-34.11 14.84 2.62-7.29 3.08-15.74c.5-9.17-.97-17.61-7.78-24.31-6.55-6.43-11.24-10.24-12.02-18.38a.23.22-20.2 0 0-.35-.16q-5.34 3.51-5.96 3.75-.61.24-4.61.76a1.21 1.19-23.8 0 1-1.03-.39q-.38-.42-.42-.64a.73.72-5.9 0 0-.74-.59q-.91.04-2.13.46a.63.62-76.1 0 1-.63-1.05l.32-.3a.6.6 0 0 0-.03-.9l-.48-.4a1.33 1.33 0 0 1-.49-1.03q-.01-1.5-1.75-4.18a.7.69-86.9 0 1 1.02-.92l2.59 2.13a.94.94 0 0 1 .28 1.09q-.52 1.3-.32 2.15a1.32 1.17-46 0 0 2.4-.18q.61-1.96-1.21-2.74a.72.72 0 0 1-.42-.8q.31-1.66-1.52-2.13a1.54 1.54 0 0 1-.91-.68q-.81-1.35-2.17-1.19a.57.56 77.1 0 0-.46.75q.32.9.1 1.12a.52.51-32.1 0 1-.84-.19q-.22-.58-.22-.66a3.48 2.68-5.2 0 1 3.03-2.81q.11-.02.51.96a1.93 1.9-84.5 0 0 .69.85l3.61 2.49a1.55 1.55 0 0 0 1.48.15l4.4-1.86a.9.9 0 0 0 .19-1.55l-.35-.27a1.74 1.74 0 0 0-1.87-.14l-2.76 1.49a1.98 1.97 58.4 0 1-2.56-.62l-.96-1.4a1.28 1.28 0 0 1 .45-1.86q2.42-1.28 3.81-2.9a.99.96 7.2 0 1 .28-.21l3.45-1.55a1.14 1.14 0 0 0 .11-2.02q-1.19-.7-2.71.08a.91.91 0 0 1-1.19-.34q-.23-.37-.45-.53-.54-.38-1.48.07-1.96.93-3.27 1.62a.75.73-13.9 0 0-.41.66v.26a.42.42 0 0 1-.53.41q-.44-.13-.47-.13a1.45 1.44 33 0 0-1.05.22q-2.54 1.67-4.51 2.09a.84.82-3.8 0 0-.66.74q-.14 1.52.55 2.44a.54.54 0 0 0 .94-.14c1.15-3.27 3.71-1.97 5.7-4.74a.89.89 0 0 1 1.28-.17l.62.51a.9.89 50.6 0 1-.14 1.48l-7.74 4.19a.21.19 74.3 0 0-.11.21q.07.47.61.98a.64.64 0 0 1 .04.9q-3.08 3.33-3.59 7.8a2.11 2.07-24.7 0 1-.37.97q-.74 1.04-1.1 3.01-.32 1.77-1.38 3.47-1.95 3.12-2.59 7.84-.22 1.6-1.6 1.89a.65.64 13.3 0 1-.64-1.03q1.42-1.82 1.55-3.64a.61.6 5.5 0 0-.53-.64q-1.72-.21-3.45 3.04a.54.54 0 0 1-1.02-.33q.11-.87 1.31-2.57a1.64 1.64 0 0 1 .8-.62c8.49-3.05 5.17-18.06 5.63-23.06a.96.96 0 0 1 .29-.61q.21-.2.78-.13a.46.45 3.6 0 1 .4.45v1.12a1.5 1.45-65.9 0 0 .35.96q.85.97.67 1.89-.64 3.27-.8 6.09a.18.17 6.2 0 0 .14.17h.01a.2.2 0 0 0 .23-.15c.64-2.4 2.51-3.61 3.2-6.51a.77.71 42.7 0 0-.04-.5l-2.72-6.41a.56.56 0 0 0-.76-.29q-1.59.79-1.68.17-.22-1.57-1.19-3.61a2.15 2.13-56.6 0 1-.2-.99c.26-7.68-1.76-21.32-9.9-24.81a.35.34 7.2 0 0-.48.37q.54 3.37 2.04 7.24a.6.46 37 0 1 .04.14l3.45 14.43a3.11 3-55.3 0 1 .09.55l.58 7.79a.33.32-9.5 0 1-.25.34l-.29.06a.42.41 79 0 1-.5-.34q-.59-3.63-1.11-6.96-.49-3.04-1.55-6.79-2.86-10.16-5.35-18.88-5.13-17.95-15.85-37.49c-3.41-6.21-6.48-13.01-11.41-17.65-5.19-4.88-9.54-10.37-15.93-14.56a1.9 1.83 63.7 0 0-.8-.29l-4.14-.52a.41.41 0 0 1-.02-.81q1.18-.23 2.13-.41.51-.09.68-.54.15-.4.05-.92.83.83 1.43.83 5.76.07 10.62.19l8.28 6.38a1.12 1.05-88.1 0 1 .28.32c1.82 3.23 4.96 5.95 6.57 8.51a.49.49 0 0 1-.73.64l-3.77-3.23a.66.62 9.7 0 1-.18-.24q-.98-2.12-2.33-3.49a.75.71-21.3 0 0-.52-.21h-3.31a1.16 1.16 0 0 0-.74 2.06l1.16.94a1.1 1.09-72.1 0 1 .39.77q.08 1.44 1.22 1.55a.91.91 0 0 1 .75.58q.1.25.47.54.3.24 1.22.27 2.08.07 3.61 1.41 3.76 3.31 4.83 4.67.67.86 2.42 2.57 2.98 2.92 6.46 8.84 1.32 2.25 5.57 10.31 1.99 3.78 4.55 10.78 3.59 9.83 4.64 12.83a.46.46 0 0 0 .57.28h.02a.39.39 0 0 0 .26-.46q-.8-3.32-2.41-9.49-1.1-4.21-3.29-7.02a1.77 1.74 23.6 0 1-.36-.9q-.29-2.67-1.09-4.1-10.24-18.45-21.53-35.68-1.75-2.68-3.28-5.39a4.77 4.73 1.9 0 0-1.58-1.67l-2.32-1.47q.91-.1 1.17-.58.17.3.44.42a.41.41 0 0 0 .58-.34q.07-1.01-.85-1.35l-.16-2.32a2.37 2.33-72.6 0 0-.85-1.66l-5.92-4.85a1.79 1.79 0 0 0-1.32-.39q-.19.03-.22.03a.36.35 71.3 0 1-.42-.21q-.51-1.22-2.16-.85a.98.97 69.6 0 1-1.07-.49q-.28-.51-.88-.56-.44-.03-.94-.23-32.98-12.7-40.11-15.56a2.31.43 41 0 1-.85-.5q-.75-.55-1.72-.46a.8.79-14.4 0 1-.78-.45q-.34-.69-1.61-.66a1.15 1.13 69.4 0 1-.93-.43c-.74-.92-1.52-.27-2.4-1q-.33-.27-1.45-.71-7.55-2.95-12.9-6.51-2.38-1.59-4.19-5.81-2.44-5.68-5.33-15.98-3.69-13.12-7.04-23.94-1.6-5.2-1.19-12.45.35 1.07 1.17.34a.79.79 0 0 0 .21-.84q-.66-1.82-2.21-3.28-.16-.77-1.01-1.58a1.5 1.5 0 0 1-.46-1.25q.07-.72-.33-1.24c-1.1-1.42-.91-4.71-.8-5.54a.86.85-4.8 0 1 .61-.71q4.04-1.17 8.17-.99 1.41 1.86 3.55 3.23a.56.55-84.8 0 0 .81-.68l-1.05-2.62 1.88-.6q.17.36.54.64a1.6 1.57-24.6 0 0 .91.33q5.84.31 11.63 2.07a.41.41 0 0 1-.12.8h-7.57a.29.29 0 0 0-.27.41l3.16 7.45a.46.45-12.4 0 0 .45.28q1.6-.13 7.32-.21 1.44-.02.85-2.06 2.65 2.48 6.42 3.77a1.32 1.31-73.8 0 0 1.7-.94q.18-.73.89-1.57.24 1.03 2.21.37a.88.88 0 0 0 .51-1.23l-2.2-4.34q.73-.99.9-2.79.05-.56.98-1.27 3.96-.94 7.95-1.06 4.3-.13 5.9-.52c2.49-.61 4.55-.35 7.92-.67q19.09-1.8 38.97-3.6c3.12-.28 5.29-.83 7.9-.71q1.3.06 3.8-.2 6.94-.73 14.91-1.45 14.57-1.31 14.89-1.35 27.32-2.79 43.04-3.92c4.41-.31 8.57-1.07 12.66-.86a.54.54 0 0 1 .3.97q-1.73 1.29-2.04 3.43a.63.62-2.8 0 1-.48.52l-9.96 2.25a1.32 1.3-30.9 0 1-1.15-.28q-2.16-1.8-3.24.09a1.35 1.34-61.9 0 1-1.77.54l-1.67-.84a1.82 1.82 0 0 0-2.56 1.11l-1.22 4.11a.23.23 0 0 1-.2.15h-.01a.41.4 8.4 0 1-.28-.37l-.08-1.64a.94.93-82.6 0 0-.63-.83q-3.89-1.29-5.96 1.76a.49.49 0 0 1-.88-.37l.34-1.58a.77.77 0 0 0-1.22-.78q-2.26 1.7-4.7 1c-2.03-.59-3.15-.19-4.57.79a1.4 1.36-58.9 0 1-.92.24q-2.31-.19-4.31.43c-1.36.42-1.93.21-3.27-.11-1.42-.33-2.33.14-3.61 1.01a1.75 1.64-70.1 0 1-.45.23q-1.2.39-2.63-.37a2.74 2.47 37.9 0 0-2.93.21q-.48.4-1.57.68a1.35 1.34 50.4 0 1-.91-.09q-3.15-1.54-5.86.59a.86.85 42.7 0 1-1.01.04q-3.56-2.39-5.89.93a.61.61 0 0 1-1.02-.04q-.69-1.18-2.12-1.56a1.18 1.18 0 0 0-.86.1l-2.82 1.52a1.17 1.16-44.3 0 1-1.15-.01c-2.76-1.61-3.55-1.15-5.19.54q-1.41 1.46-3.09-.45a1.16 1.15 60.5 0 0-1.22-.34q-2.85.93-4.32 2.4a1 .99-40.6 0 1-1.5-.11c-1.22-1.67-3.7-.42-5.53.23a2.07 2.01 43.4 0 1-1.36.02q-2.09-.71-4.22-.14a1.28 1.27-73.5 0 0-.53.29l-2.46 2.31a.56.55-33.9 0 1-.88-.17q-1.25-2.67-3.68-1.76a1.49 1.44 4.6 0 0-.74.61q-.7 1.12-1.91 1.72a.91.9 51.7 0 1-.97-.12l-1.63-1.33a1.4 1.39 63.6 0 0-.94-.32q-2.35.06-4.2 1.19a1 .98 42.1 0 1-.95.04q-1.43-.68-2.85-.71a1.88 1.76-56 0 0-.92.21q-.93.47-3.09 2.04c-1.24.9-2.77.62-3.98 1.3a.61.61 0 0 0-.3.67l1.82 8.07a.63.61 86.6 0 0 .53.48q1.2.13 2.04-.69a.45.44-39.7 0 1 .68.06l1.84 2.66a.87.82 24.9 0 1 .12.3q.23 1.5-1 2.88a.77.77 0 0 1-.86.2q-.45-.17-1.12-.64c-1.86-1.31-4.28-.19-5.53 1.49a.95.95 0 0 1-1.14.3q-2.72-1.2-4.94-.86c-1.33.21-2.08 1.4-3.02 1.72a.98.94-35.4 0 1-.89-.13c-3.12-2.29-6.5.77-9.47 1.02-5.14.43-11.32.4-16.31 2.2a.87.87 0 0 0-.45 1.28c1.37 2.23 2.18 3.38 2.55 5.75q.59 3.75 1.94 6.02a1.37 1.34-54.1 0 1 .15 1.01q-1.24 5.04-.71 11.43a1.26 1.23 18.2 0 0 .45.86l3.26 2.67a1.52 1.52 0 0 1 .39 1.86l-2.06 4.12a.43.41 54.7 0 0-.04.28l.81 5.19a1.11 1.1-83.9 0 0 .68.85q4.9 1.95 6.84 1.74 6.1-.68 12.17-2.05a.83.83 0 0 1 .93 1.17q-2.24 4.61-2.46 9.71a1.02 1.01 19.2 0 0 .42.86q3.14 2.3 8.24 1.71 8.7-1 17.72-3.48a.62.62 0 0 1 .6 1.04q-2.03 2.05-4.01 2.99a.65.65 0 0 0-.34.81c2.25 6.32 5.23 9.02 12.4 7.3q7.5-1.81 14.64-2.72a.45.45 0 0 1 .31.81l-4.56 3.15a1 .99-40.5 0 0-.13 1.54q1.41 1.36 1.13 4.19a1.67 1.67 0 0 0 1.48 1.82l4.21.46a2.1 2.07 33.5 0 0 1.22-.24l2.82-1.52a.87.86 46.3 0 1 .85.02q1.76 1.06 3.11.11 2.37-1.67 5.08-.27a1.5 1.26 26.6 0 0 1.93-.46q1-2.12 3.6-.93a2.87 2.71 23.8 0 0 3.76-1.33q.59-1.35 1.83-.73a2.44 2.43-45.1 0 0 2.18-.01q2.37-1.21 2.8-1.54.35-.27.4-.85a.55.55 0 0 1 .52-.49q1.2-.04 1.32-1.03a.59.55-60.5 0 0-.1-.41l-1.37-2a1.41 1.39-56.9 0 1-.22-1.08q.19-.84.98-2.21a.93.93 0 0 0-.97-1.39q-.62.11-1.36-.43a1.29 1.28-38.2 0 1 .27-2.22q10.41-4.35 19.88-3.96a2.87 2.79-50.2 0 0 .85-.09l9.18-2.41a2.08 2.06-45.3 0 1 1.04-.01q2.12.52 4.16-1.34a1.33 1.32-64.4 0 1 .96-.34q2.36.15 3.24-.36a1.54 1.48-55.4 0 1 .93-.19c3.34.4 5.34-1.38 8.51-1.4q.89-.01 1.91-.8a2.32 2.25 22 0 1 1.06-.43q2.87-.37 5.69-.05.6.07 1.05-.45a.79.75 12 0 1 .41-.25l8.78-2.04a.69.61-48.6 0 1 .16-.02h2.75a.6.59-75.5 0 0 .52-.31q.33-.59 1.43-.47a.38.38 0 0 1 .28.57q-1.34 2.19-3.62 2.02a2.01 1.94-53.9 0 0-.91.16q-2.22.95-4.54 1.4a1.73 1.7-13.5 0 0-1.34 2.14q.23.81 1.41 1.45a.89.89 0 0 1 .45.7q.2 2.23.89 3.01 2.03 2.28 3.93.33a.95.93 31.6 0 1 1-.23q2.16.79 3.9-.84a1.08 1.07 31.4 0 1 1.05-.25q2.3.68 4.73-1.4a1.5 1.5 0 0 1 1.03-.34q5.24.3 6.29.07 7.66-1.68 13.35-2.37a1.18 1.15 60.6 0 1 .88.26q1.75 1.47 2.51 3.38.46 1.17 2.01.59 1.42-.53 1.49-.64a.37.37 0 0 1 .61-.03q.65.84 2.29.54 4.94-.9 11.53-1.81a1.06 1.05 69 0 1 1.02.46l.81 1.17a1.06 1.06 0 0 0 1.03.44c4.35-.69 8.31-2.45 13.16-1.76a.76.74 12.6 0 0 .81-.5q.19-.59 1.09-1.13a.17.17 0 0 0-.07-.31q-1.65-.16-1.96-1.56a.67.67 0 0 0-.75-.51l-16.07 2.52a.04.04 0 0 1-.05-.03l-.09-.26a.13.12 75.4 0 1 .08-.15l19.57-6.29a.27.27 0 0 0-.03-.52q-1.3-.24-2.58-1.23a.28.27 32.3 0 1-.08-.34l.2-.41a.29.29 0 0 1 .45-.09q2.5 2.14 5.13 1.25a.41.41 0 0 0 .17-.67q-1.64-1.73-2.17-4.83a.74.74 0 0 1 1.33-.55q1.36 1.93 4.08 3.05a.05.04 27.1 0 1 .02.05l-.06.24a.12.11 16.3 0 1-.15.08l-2.51-.97a.39.38 16.5 0 0-.52.28l-.36 1.68a.47.46-73.9 0 0 .29.53q6.46 2.35 10.71 1.89 5.58-.6 8.96-.89a.38.38 0 0 1 .34.6q-.95 1.32-.51 2.7a.54.54 0 0 1-.34.68q-2.84.94-3.95 3.56a1.55 1.53 51.1 0 0-.09.89c1.27 7.03-.28 10.54-2.52 17.77q-2.41 7.78-2.37 15.18a.88.87 75.3 0 1-.44.76q-3.25 1.84-11.35 3.82c-6.44 1.58-13.97 4.64-20.91 6.87l-52.59 16.97q-11.12 3.48-11.37 3.58-4.68 1.79-11.3 3.78-17.1 5.14-36.56 11.94a2.29 2.28-26.9 0 1-2.64-.86l-2.08-3.02a1.21 1.21 0 0 0-1.36-.46l-5.18 1.66a.8.79 69.8 0 1-.98-.46c-.67-1.62-1.74-3.79-2.84-5.52q-5.24-8.15-14.69-24.06a.13.11-20 0 0-.13-.05l-.69.15a.34.33-21.1 0 0-.22.49q6.26 10.74 15.52 25.46 1.18 1.87 1.27 1.99 1.8 2.57 2.79 5.48a.54.54 0 0 0 .98.09q.68-1.23 2.32-1.56 1.05-.22 1.36-1.06.31-.86.89-.95.66-.1 1.07.45 1.9 2.53 2.45 5.07a1.46 1.44-38.1 0 1-.12.96l-.36.7a.48.47-77.7 0 0 .44.69q1.18-.05 2.14-2.75a1.7 1.68-76.5 0 1 1.8-1.11q1.47.18 3.94-.97a.31.31 0 0 1 .41.14l.16.28a.09.08-34 0 1-.02.09q-2.7 1.98-4.38 2.48a.15.15 0 0 0 .04.29h1.05a.71.69-7.5 0 1 .68.51q.28 1-.09 1.54a.55.55 0 0 0 .62.84l46.2-14.83a2.21 2.19-47.3 0 1 1.11-.05l9.01 1.91a1.55 1.5 42.4 0 0 .69-.02c3.03-.87 10.15-4.16 15.78-3.28a.32.32 0 0 1 .1.6l-.86.46a.33.3-47 0 1-.28.02c-3.06-1.31-3.06.94-5.46 1.06q-2.09.11-5.35 2.01a.67.66-25.2 0 0-.29.79q1.16 3.25 3.38 8.03.48 1.02.63 4.63c.44 10.2 6.82 11.56 11.56 17.18a.53.53 0 0 0 .84.07l1.19-1.33a.53.53 0 0 1 .79-.01l.41.44a.84.84 0 0 0 .96.19q2.29-1.06 4.12-3.32a.26.26 0 0 0-.15-.41l-.28-.06a.03.03 0 0 1 0-.06q.22-.02.4-.32a.52.52 0 0 0 .03-.48q-.96-2.17-1-5.01-.02-1.15-.91-1.49a.54.14 30 0 1-.54-.54q.04.01.53 0a.19.18-11.2 0 0 .17-.25q-.68-1.79-1.98-1.56a.37.36 3.7 0 1-.42-.47q.17-.52-.49-2.59h.01q.25.84 1.23 2.24a.59.58-36.1 0 0 .84.13q1.34-1.04 2.77-.31a1.3 1.29 46.3 0 0 1.13.03q2.08-.95 2.49-3.57a.68.68 0 0 1 .65-.57c2.68-.11 2.88 1.81 3.01 4.2a.64.64 0 0 1-.65.68q-.03 0-.1-.54-.02-.17-.44-.01-2.07.76-1.49 2.6 1.25 3.98.81 7.69a.39.38 64.3 0 0 .71.25q1.11-1.81 1.29-3.09a.65.65 0 0 1 1.28-.01l.23 1.47a.58.57-67.7 0 0 .11.27l4.07 5.9a.9.84-4.8 0 0 .41.32l2.95 1.06a.95.94-62.3 0 0 1.1-.35q1.49-2.15 4.09-1.12a1.07 1.07 0 0 0 1.27-1.62q-1.41-1.98-1.86-3.58a.35.35 0 0 1 .24-.43l.25-.09a.06.05 69.2 0 1 .06.03l1.23 2.5a.88.87-64.4 0 0 1.64-.58l-1.65-7.28a.44.43-15.1 0 1 .3-.51q2.41-.71 2.81-2.2a.61.6 36.6 0 1 1.1-.16q.25.4-.02 2.11a.63.62 1.7 0 1-.57.53q-1.35.12-1.88.44a.85.84-20.9 0 0-.46 1.02l1.6 5.19a.96.95 86.8 0 0 .73.66l3.93.84a.69.69 0 0 0 .6-.16q.69-.61 1.85-.45a2.2 2.13-52.7 0 0 1.18-.18l5.94-2.68a3.75 3.66 25.2 0 1 .75-.26l6.84-1.61a.24.24 0 0 1 .29.2q.05.39-.32.38-.02 0-.25.1-14.85 6.51-20.3 9.04a.98.98 0 0 0-.03 1.76l.88.43a4.16 4.13 46.6 0 0 3.52.11q83.14-35.81 177.42-76.77.57-.24 1.43-.1zM3.624 45.267a1.84 1.27-115.3 0 0-.362 2.206 1.84 1.27-115.3 0 0 1.935 1.121 1.84 1.27-115.3 0 0 .362-2.206 1.84 1.27-115.3 0 0-1.935-1.121zM7.28 49.15l1.79 7.9a1.27 1.27 0 0 0 1.38.98l7.08-.83a.83.82-73.2 0 0 .53-.29q.15-.17.23-.25a.51.5 64.8 0 1 .85.31l.27 2.3a.87.87 0 0 0 .18.43l4.1 5.3a2.61 2.6-22.2 0 0 2.36.99l18.26-2.14a1.02 1.01-9.7 0 0 .88-1.23l-1.2-5.29a1.01 1.01 0 0 0-1.1-.78l-14.18 1.71a1.41 1.4 31.2 0 0-.33.08c-2.32.84-5.01 2.1-6.22-.52q-1.17-2.56-2.37-5.98c-.64-1.85-1.52-2.88-2.42-4.5a.59.58 72.2 0 0-.57-.3l-8.75 1.02a.9.9 0 0 0-.77 1.09zm130.84 76.78a3.77 3.77 0 0 0-2.46 2.55l-.13.4a1.1 1.1 0 0 0 1.29 1.4l44.05-9.97a1.78 1.77 75.6 0 0 1.31-2.23l-.01-.05a2.2 2.19-15.1 0 0-2.55-1.46q-3.63.78-6.76 1.29-2.33.37-6.74 1.44-6.18 1.48-12.57 2.99-2.67.63-4.17 1.28a6.3 6.12 31.5 0 1-2.27.51q-3.62.11-8.99 1.85zm98.91 5.36q.76-.5.14-1.42-2.08-3.11-2.81-2.63-.72.48 1.3 3.62.6.94 1.37.43zm-88.85 3.7a.98.98 0 0 0-.92-1.67q-5.65 1.52-10.78 4.14-1.29.66-1.33 1.88a.72.71 84.2 0 0 .88.72l8.9-2.13a.62.59-73.2 0 0 .28-.16l2.97-2.78zm17-1.45a.94.77 32.1 0 0-.23.03l-6.6 1.49a.92.92 0 0 0-.32 1.65q.63.44 2.06.87a2.65 2.55-43.1 0 0 1.38.02q5.44-1.41 6.12-1.07a.54.54 0 0 0 .71-.76q-1.3-2.25-3.12-2.23zm-39.82 9.05q.6.13 1.46-2.71a.56.52 43.1 0 0-.03-.38q-.18-.42-.62-.52-.43-.1-.78.2a.56.52-17.6 0 0-.19.34q-.44 2.93.16 3.07zm104.22-1.45q1.08.32 3.74-.18.27-.05.64-.55.4-.54.41-.67a.61.61 0 0 0-.82-.62l-3.99 1.5a.27.27 0 0 0 .02.52zm-19.53.88c1.14 1.35 3.66 2.47 2.37 4.79a.54.54 0 0 0 .46.8q1.39.01 2.25-.4a.89.89 0 0 0 .26-1.41l-4.5-4.8a.33.33 0 0 0-.4-.07l-.26.14a.63.62-34.5 0 0-.18.95zm-6.903 3.191a3.54 2.36-152.6 0 0 2.057 3.724 3.54 2.36-152.6 0 0 4.229-.466 3.54 2.36-152.6 0 0-2.057-3.724 3.54 2.36-152.6 0 0-4.229.466zm-.067 4.599q-.01-.02-1.24-1c-1.26-1.01-1.82-2.06-2.4-3.71a1.17 1.17 0 0 0-1.25-.76l-.05.01a.78.78 0 0 0-.66.97q.99 3.82 4.31 5.82a.95.95 0 0 0 1.29-1.33zm14.824-.117a.81.81 0 0 0-1.131-.179l-.065.047a.81.81 0 0 0-.179 1.131l3.527 4.854a.81.81 0 0 0 1.131.179l.065-.047a.81.81 0 0 0 .179-1.131l-3.527-4.854zm-13.994 3.597l-.8.59a.26.26 0 0 0-.05.37l3.11 4.16a2.42.39 53.2 0 0 1.76 1.71l.6-.45a2.42.39 53.2 0 0-1.14-2.17l-3.12-4.16a.26.26 0 0 0-.36-.05zm-12.86 23.59l.87-.56a.21.21 0 0 0 .07-.29l-.07-.11a8.34.63 57.3 0 0-5.04-6.68l-.17.11a8.34.63 57.3 0 0 3.98 7.36l.07.11a.21.21 0 0 0 .29.06zm-60.95 21.63a.43.35-84.6 0 0 .51-.51q-.12-.49-.63-.52-.38-.02-.29.29.19.61.41.74zm3.623-.728a2.46 1.29-92.5 0 0-1.181 2.514 2.46 1.29-92.5 0 0 1.396 2.401 2.46 1.29-92.5 0 0 1.181-2.514 2.46 1.29-92.5 0 0-1.396-2.401zm-1.813 8.308l.9 1.45a.29.29 0 0 0 .4.09l.21-.13a4.77 1.08-32 0 0 3.47-3.44l-.06-.11a4.77 1.08-32 0 0-4.62 1.62l-.21.12a.29.29 0 0 0-.09.4zm7.94 3.47l-5.56 1.42a.23.23 0 0 0-.16.28l.08.32a2.52 1.34-14.4 0 0 2.77.67l1.13-.28a2.52 1.34-14.4 0 0 2.11-1.93l-.09-.32a.23.23 0 0 0-.28-.16zm23.677 6.705a.53.4-97.9 0 0-.323.58.53.4-97.9 0 0 .469.47.53.4-97.9 0 0 .323-.58.53.4-97.9 0 0-.469-.47zm73.264 1.626a.85.85 0 0 0-1.007-.656l-.078.017a.85.85 0 0 0-.656 1.007l1.039 4.932a.85.85 0 0 0 1.007.656l.078-.017a.85.85 0 0 0 .656-1.007l-1.039-4.932zm-2.711 8.669l-1.23-7.62a.02.02 0 0 0-.02-.01h-.05a3.7 2.01 80.8 0 0-1.4 3.98l.06.35a3.7 2.01 80.8 0 0 2.58 3.34l.05-.01a.02.02 0 0 0 .01-.03zm-17.408.707a.83.83 0 0 0-1.005-.606l-.078.019a.83.83 0 0 0-.606 1.005l1.244 5.028a.83.83 0 0 0 1.005.606l.078-.019a.83.83 0 0 0 .606-1.005l-1.244-5.028zM327.89 228.6a.57.56 63.2 0 0-.75-.25q-1.73.84-2.26 1.22a1.28 1.21-49.1 0 0 .1 2.13q1.81.89 2.39-.77.7-1.99.52-2.33zm-19.26 15.11q1.39-1.56.87-3.33a1.09 1.07-33 0 1 .23-1.04q1.72-1.93 2.67-5.58a.22.22 0 0 0-.36-.21q-2.97 2.8-3.01 5.53a1.35 1.32-23.9 0 1-.34.86q-1.01 1.14-1.12 3.34a.61.61 0 0 0 1.06.43zm-100.65-7.43l.33-2.12a.41.41 0 0 0-.35-.46l-.1-.02a2.27 1.37 8.7 0 0-2.45 1.01l-.03.22a2.27 1.37 8.7 0 0 2.04 1.7l.09.01a.41.41 0 0 0 .47-.34zm114.657-1.882a.53.53 0 0 0-.734-.151l-3.039 2.004a.53.53 0 0 0-.151.734l.209.317a.53.53 0 0 0 .734.151l3.039-2.004a.53.53 0 0 0 .151-.734l-.209-.317zM208 237.93l.56 2.44a.14.14 0 0 0 .17.1l.22-.05a4.29 1.33-12.9 0 0 3.88-2.25l-.02-.12a4.29 1.33-12.9 0 0-4.48-.34l-.23.05a.14.14 0 0 0-.1.17zm96.008 3.12a1.55 1.07-80.8 0 0-1.304 1.359 1.55 1.07-80.8 0 0 .808 1.701 1.55 1.07-80.8 0 0 1.304-1.359 1.55 1.07-80.8 0 0-.808-1.701zM184.57 243.2l-9.17 3.01a2.09 2.09 0 0 0-1.39 2.42l.04.25a.97.97 0 0 0 1.42.71l9.05-4.89a.39.36-11.1 0 0 .19-.26l.17-.97a.24.24 0 0 0-.31-.27zm-8.63 9.04a.32.32 0 0 1-.53.32l-3.32-3.55a1.11 1.1-29.2 0 0-1.12-.31q-1.72.49-2.28.99a1.82 1.75 20.2 0 1-1.02.45q-2.58.23-4.19 2.13a.57.57 0 0 0 .54.93q1.18-.21 2.22-1.17a.85.85 0 0 1 1.38.36l.46 1.46a2.45 2.3 18.4 0 0 .39.72l3.89 4.9a1.58 1.58 0 0 0 1.95.43q4.52-2.33 8.39-2.87a.6.49 24.3 0 0 .15-.04l9.08-3.43a2 2 0 0 0 1.07-2.8q-1.13-2.15-3.55-4.38a.99.91 37.1 0 0-1.47.14q-.25.44-.93.37-.4-.03-1.07.22-2.21.84-8.53 2.61-2.18.61-1.51 2.52zm-11.621 2.843a4.51 1.11-134.5 0 0 2.369 3.995 4.51 1.11-134.5 0 0 3.953 2.439 4.51 1.11-134.5 0 0-2.369-3.995 4.51 1.11-134.5 0 0-3.953-2.439zm-.667 2.3a4.82 1.59-31.9 0 0-4.932 1.197 4.82 1.59-31.9 0 0-3.252 3.897 4.82 1.59-31.9 0 0 4.932-1.197 4.82 1.59-31.9 0 0 3.252-3.897zm74.852 14.807a1.35 1.16-89 0 0-1.183 1.33 1.35 1.16-89 0 0 1.136 1.37 1.35 1.16-89 0 0 1.183-1.33 1.35 1.16-89 0 0-1.136-1.37zm9.986-243.76q-1.06.04-1.17-.48.82.11 1.17.48zm-97.76.44l-3.59.07 3.59-.07zm100.48.02l-1.21-.07 1.21.07zm1.25.01h-1 1zm1.25.26q-.38.01-.67-.16l.67.16zm178.05.15a.23.23 0 0 1 .14.29l-3.05 9.23a10.69.74-71.7 0 1-4.06 9.92l-.22-.08a10.69.74-71.7 0 1 2.65-10.38l3.05-9.23a.23.23 0 0 1 .29-.15l1.2.4zm-157.61 7.38q-.12 2.08-.82 2.72a.88.87-54.2 0 1-.96.16q-2.07-.94-1.61-2.74a1.03 1.02-74.1 0 0-.68-1.23q-4.36-1.39-8.11-1.28a.59.59 0 0 1-.54-.86l.8-1.59a1.36 1.36 0 0 1 1.26-.75q1.93.07 3.87 1.62a1.08 1.06 49.8 0 0 1.18.11l.32-.18a.95.95 0 0 1 1.22.29q1.18 1.65 3.54 2.83a.96.95 14.8 0 1 .53.9zm13.91-2.11h3.25a.37.37 0 0 1 .35.49l-.09.27a.46.46 0 0 1-.51.33q-2.03-.29-2.97 1a1.8 1.77-24.6 0 0-.32.84q-.21 1.81-.3 3.39-.18 3.19-2.68 7.34a.5.5 0 0 1-.74.14q-1.21-.94-3.36.29a.26.26 0 0 1-.38-.14l-.08-.25a.19.19 0 0 1 .12-.24l3.18-1.02a1.42 1.38-81.7 0 0 .77-.59q2.11-3.3 2.05-5.94-.07-3.18.99-5.45a.81.79-77 0 1 .72-.46zM43.81 38.23q.16-.19.62-.03a.22.22 0 0 1 .11.33q-.2.28-.66.04a.23.22 33.7 0 1-.07-.34zm211.99 2.49a.55.54-24 0 1-.85-.32l-.07-.29a1.44 1.43 64.7 0 1 .5-1.41q.11-.1 1.88-.14 2.51-.07 3.59-.65a.53.53 0 0 1 .77.37q.08.45-.86 1.16-.59.45-1.34.35-2-.27-3.62.93z" class="C"/><path d="M33.04 50.23q.59 2.04-.85 2.06-5.72.08-7.32.21a.46.45-12.4 0 1-.45-.28l-3.16-7.45a.29.29 0 0 1 .27-.41h7.57a.41.41 0 0 0 .12-.8q-5.79-1.76-11.63-2.07a1.6 1.57-24.6 0 1-.91-.33q-.37-.28-.54-.64.32-.26.71-.45.48-.23.85-.19 2.77.31 4.92-.71a3.3 3.25-57.5 0 1 1.43-.33h11.19a.37.36-65.6 0 1 .24.64q-1.09.96-1.34 1.92a1.52 1.48 80.2 0 1-.57.83q-2.09 1.53-2.91 3.63a1.52 1.52 0 0 0 0 1.14q.77 1.92 2.38 3.23z" class="B"/><rect x="-1.24" y="-2.64" transform="matrix(.998027 .062791 -.062791 .998027 174.59 41.58)" width="2.48" height="5.28" rx="1.15" class="C"/><path d="M14.26 41.12l1.05 2.62a.56.55-84.8 0 1-.81.68q-2.14-1.37-3.55-3.23l3.31-.07z" class="B"/><ellipse cx="0" cy="0" transform="matrix(.135716 -.990748 .990748 .135716 288.87 47.1)" rx="2.03" ry=".75" class="C"/><ellipse cx="0" cy="0" transform="matrix(-.427358 -.904083 .904083 -.427358 4.41 46.93)" rx="1.84" ry="1.27" class="B"/><path d="M250.21 49.88q.18-.01.34.24a.33.31 31.2 0 1 .05.17v4.35a.71.71 0 0 1-1.41.11l-1.44-9.2a.13.13 0 0 1 .11-.15l.25-.04a.25.25 0 0 1 .29.22q.21 2.05 1.08 3.78a.92.72 73.4 0 0 .73.52zm-74.08-1.19q-2.13-.03-3.54 2.04a.46.45-28 0 1-.83-.25v-3.25a.85.85 0 0 1 .75-.84l4.65-.54a1.37 1.32 52.4 0 1 .68.1q2.1.88 1.41 3.46a.87.82-50.1 0 1-1.6.19q-.36-.89-1.52-.91z" class="C"/><path d="M42.05 51.49l.52-5.2 2.2 4.34a.88.88 0 0 1-.51 1.23q-1.97.66-2.21-.37zm-34-3.43l8.75-1.02a.59.58 72.2 0 1 .57.3c.9 1.62 1.78 2.65 2.42 4.5q1.2 3.42 2.37 5.98c1.21 2.62 3.9 1.36 6.22.52a1.41 1.4 31.2 0 1 .33-.08l14.18-1.71a1.01 1.01 0 0 1 1.1.78l1.2 5.29a1.02 1.01-9.7 0 1-.88 1.23l-18.26 2.14a2.61 2.6-22.2 0 1-2.36-.99l-4.1-5.3a.87.87 0 0 1-.18-.43l-.27-2.3a.51.5 64.8 0 0-.85-.31q-.08.08-.23.25a.83.82-73.2 0 1-.53.29l-7.08.83a1.27 1.27 0 0 1-1.38-.98l-1.79-7.9a.9.9 0 0 1 .77-1.09z" class="B"/><g class="C"><path d="M259.92 49.12a.27.27 0 0 1 .3.24l.03.19a3.43 1.12 82.5 0 1-.67 3.55l-.04.01a3.43 1.12 82.5 0 1-1.55-3.26l-.03-.2a.27.27 0 0 1 .23-.3l1.73-.23zm229.65 1.91q.49 1.31.03 2.82-3.22.93-2.14 4.22a.61.6-11.3 0 1-.53.79q-.63.05-1.19-.23a.81.81 0 0 1-.46-.73v-2.31a.81.81 0 0 0-1.33-.62q-.81.69-2.09.84a.7.69-1 0 1-.77-.74q.07-.92 3.06-1.87a.52.52 0 0 0-.01-1q-1.46-.44-.81-2.04a.95.95 0 0 1 1.83.35v1.23a.63.63 0 0 0 1.08.44q1.47-1.5 3.33-1.15zm-349.59.06a.25.25 0 0 1 .26-.24h.15a1.9 1.78.9 0 1 1.87 1.81v.04a1.9 1.78.9 0 1-1.93 1.75h-.15a.25.25 0 0 1-.24-.26l.04-3.1z"/><ellipse cx="0" cy="0" transform="matrix(.175367 -.984503 .984503 .175367 134.29 53.62)" rx="1.57" ry=".76"/><path d="M493.39 61.48q1.38 1.73 2.8 3.62c3.71 4.94 8.64 9.41 13.17 13.77l-1.85-.42a1.53 1.43 40.8 0 0-.74.03q-19.83 6.04-33.43 10.66c-16.51 5.59-28.33 9.04-47.19 15.08q-2.32.75-2.72.87-30.99 9.68-48.04 15.02c-7.19 2.25-14.37 4.1-21.49 6.34a.39.39 0 0 1-.48-.25v-.01a.38.38 0 0 1 .24-.48l20.47-6.73a.92.92 0 0 0 .61-.66c1.03-4.27 2.73-9.94 1.52-13.79a2.01 1.99 62.6 0 1 .69-2.2c1.23-.94 3.33-2.02 4.17-3.22q1.97-2.79.51-6.68a.64.64 0 0 1 1.1-.63q1.94 2.34 10.7 11.54c2.02 2.12 4 5.14 6.05 6.88q.32.27.65.36.46.12.71.06a1.1 1.09-39.2 0 0 .21-2.06q-1.24-.58-1.67-1.86a.41.41 0 0 1 .48-.54q3.15.69 5.46 3.02a.88.88 0 0 0 1.14.09l.02-.02a.75.75 0 0 0 .15-1.08q-2.34-2.88-4.79-4.26a1.33 1.33 0 0 1-.64-.86q-.64-2.74-3.09-4.28-1.46-.92-2.21-2.22-1.34-2.35-4.45-4.35c-1.15-.75-1.11-1.11-1.36-2.28a.31.31 0 0 1 .43-.35q.23.11 2.98-.23.38-.05 8.43-2.3c4.54-1.26 6.85-3.33 9.75-6.86a.88.87-67.3 0 1 .77-.32c1.54.16 1.89 1.42 2.91 2.41q4.27 4.18 8.06 6.58.39.24.69.25a.47.46-18.7 0 0 .38-.76q-1.92-2.32-4.39-3.8a.41.41 0 0 1 .07-.74l5.79-2.18a.41.32 33.9 0 1 .15-.01q.36.04.38.03a1.82 1.82 0 0 0 .37-3.17l-1.68-1.2a.85.85 0 0 1-.17-1.22q.72-.9.87-1.55a1.03 1.01-6 0 1 .6-.72q1.86-.78 3.58-1.82.92-.56 6.24-1.36a4.83 4.72 30.4 0 0 1.01-.25q5.25-1.87 10.25-2.33a3.1 3.01-61.5 0 0 1.19-.37q.41-.23 2.17-.7a2.36 2.34 14.1 0 0 1.05-.62q4.48-4.65 7.31-6.57 1.42-.96 2.66.45a.54.54 0 0 1-.15.83l-1.32.71a1.02 1.02 0 0 0 .27 1.9l4.67.99a.41.41 0 0 0 .5-.38q.04-1.05-.35-1.67a1.14 1.11 42.5 0 1-.06-1.1l4.29-8.55a1.88 1.88 0 0 1 1.68-1.04h.48a.76.76 0 0 1 .71 1.02l-3.05 8.42a.36.36 0 0 0 .45.46l1.1-.35a.89.87 83.2 0 0 .6-.78q.1-1.46 1.31-2.79a.81.81 0 0 1 .87-.22q.79.29 2.31.18a.56.55-86 0 1 .58.67l-.06.27a.54.54 0 0 1-.46.42q-1.17.12-2.78 1.16a.25.24 31.5 0 0 .11.45q1.97.18 4.03-.79a1.46 1.42 43.8 0 1 1.24-.01q1.83.84 4.34-.71a.32.32 0 0 1 .48.22q.25 1.44 2.05 1.09 2.87-.55 4.28-.77a1.28 1.27 61.3 0 1 1.04.31q.95.85 2.29 1.31zm-15.035 2.84a2.04.99-135.1 0 0 .746 2.141 2.04.99-135.1 0 0 2.144.739 2.04.99-135.1 0 0-.746-2.141 2.04.99-135.1 0 0-2.144-.739zm-16.825 2.53q.37.64 1.19 1.29a.77.77 0 0 1 .3.61v.6a.71.71 0 0 0 .74.71q1.75-.06 2.77-1.3a.93.93 0 0 0-1.04-1.46q-1.83.67-2.5-.83a.88.88 0 0 0-1.04-.49l-.06.01a.59.59 0 0 0-.36.86zm27.112 7.795a2.23 1-141.6 0 0 1.126 2.169 2.23 1-141.6 0 0 2.369.602 2.23 1-141.6 0 0-1.127-2.169 2.23 1-141.6 0 0-2.369-.602zm-73.6 12.111a2.58 1.13-140.4 0 0 1.268 2.515 2.58 1.13-140.4 0 0 2.708.774 2.58 1.13-140.4 0 0-1.268-2.515 2.58 1.13-140.4 0 0-2.708-.774zm4.148 11.085q.29-.27-.73-1.82-1.48-2.21-3.29-3.26a1.59 1.57 3.2 0 1-.67-.74q-.82-1.85-2.99-4-1.34-1.33-1.95-.78-.6.55.59 2.01 1.93 2.37 3.7 3.36a1.59 1.57-87.7 0 1 .67.74q.87 1.9 2.93 3.58 1.44 1.18 1.74.91zm1.173 1.095a3.11.72-131.9 0 0 1.541 2.796 3.11.72-131.9 0 0 2.613 1.834 3.11.72-131.9 0 0-1.541-2.796 3.11.72-131.9 0 0-2.613-1.834z"/></g><path d="M5.6 56.28q-1.34-2.54-.83-3.78 1.55 1.46 2.21 3.28a.79.79 0 0 1-.21.84q-.82.73-1.17-.34z" class="B"/><g class="C"><path d="M90.07 55.58a.1.1 0 0 1 .08-.11l.02-.01a2.78 2 79.7 0 1 2.46 2.38l.04.24a2.78 2 79.7 0 1-1.47 3.09h-.02a.1.1 0 0 1-.11-.08l-1-5.51z"/><ellipse cx="0" cy="0" transform="matrix(.127065 -.991894 .991894 .127065 283.32 58.24)" rx="1.17" ry=".4"/><path d="M82.98 57.6a.16.16 0 0 1 .16-.16l.09-.01a2.4 2.07 88.6 0 1 2.13 2.35v.34a2.4 2.07 88.6 0 1-2.01 2.45h-.09a.16.16 0 0 1-.16-.15l-.12-4.82zm-7.8 1.05a.22.22 0 0 1 .23-.2l.11.01a2.04 2.01-86.1 0 1 1.87 2.17l-.02.26a2.04 2.01-86.1 0 1-2.15 1.9l-.11-.01a.22.22 0 0 1-.2-.23l.27-3.9zm195.97 2.08q-.11 1.1-.12 1.14a.47.47 0 0 1-.74.16q-.44-.38-.34-1.42.1-1.03.61-1.32a.47.47 0 0 1 .69.3q.01.05-.1 1.14zm181.67.2q.01 3.92-3.78 4.6-5.54 1-6.68 1.85a1.67 1.63 20.5 0 1-.75.33l-13.04 2.38a1.39.61-39.7 0 0-.21.06l-3.8 1.63a.39.38-15.3 0 1-.53-.3q-.03-.21-.06-.35a.16.15 52.6 0 0-.29-.04c-1.13 2.27-1.2 2.63-3.09 3.89a.2.2 0 0 0 .14.37l1.1-.18a.25.25 0 0 1 .28.21l.23 1.46a.76.76 0 0 1-.64.87l-3.73.59a.93.92-84 0 0-.73.6l-.26.72a.5.49 22 0 1-.67.28c-2.08-.98-2.47-2.55-4.63-2.72a.48.48 0 0 1-.44-.53q.02-.28.46-.49a.59.59 0 0 0 .32-.45l.41-2.82a2.2 2.17 84.1 0 1 1.39-1.73l11.24-4.24a.64.6 28.4 0 1 .19-.05c.91-.08 1.79.45 2.99.15q4.13-1.04 6.76-2.42a1.97 1.9-56.8 0 1 .97-.22q3.97.1 8.45-1.79a3.77 3.76 40.9 0 1 2.4-.17q3.02.8 5.33-1.75a.39.38 66.1 0 1 .67.26z"/><ellipse cx="0" cy="0" transform="matrix(.262189 -.965016 .965016 .262189 261.83 61.84)" rx="1.2" ry=".66"/></g><ellipse cx="0" cy="0" transform="matrix(-.70834 -.705872 .705872 -.70834 479.8 65.76)" rx="2.04" ry=".99" class="B"/><ellipse cx="0" cy="0" transform="matrix(.278991 -.960294 .960294 .278991 229.55 66.76)" rx="1.66" ry=".63" class="C"/><path d="M461.53 66.85a.59.59 0 0 1 .36-.86l.06-.01a.88.88 0 0 1 1.04.49q.67 1.5 2.5.83a.93.93 0 0 1 1.04 1.46q-1.02 1.24-2.77 1.3a.71.71 0 0 1-.74-.71v-.6a.77.77 0 0 0-.3-.61q-.82-.65-1.19-1.29z" class="B"/><rect x="-.69" y="-2.92" transform="matrix(.994338 .106264 -.106264 .994338 106.97 72.83)" width="1.38" height="5.84" rx=".62" class="C"/><ellipse cx="0" cy="0" transform="matrix(-.783693 -.621148 .621148 -.783693 490.39 76.03)" rx="2.23" ry="1" class="B"/><path d="M512 80.4v18.76q-3.22.94-6.74.65a1.01 1.01 0 0 0-.78.27l-1.89 1.77a1.95 1.93 68 0 0-.61 1.46q.04 2.03.06 4.19.03 2.52-.82 3.11a.59.57-15.8 0 0-.23.39l-.09.89a1.9 1.89 60.2 0 1-.17.63q-2.47 5.32-6.43 8.51l-141.93 59.83a.39.39 0 0 1-.42-.64q.96-.9 2.77-1.77a2.92 2.84-81.6 0 0 .89-.68q1.49-1.7 4.21-2.8a4.94 4.75-72.7 0 0 .91-.5q4.73-3.32 7-4.16 2.16-.8 6.36-1.08a1.01 1.01 0 0 0 .76-.45q.3-.45.66-.6 2.81-1.12 4.73-3.3a1.44 1.4 68.6 0 0 .37-.88c.08-1.09-.32-2.41-.46-3.77q-.1-1.11-1.22-1.11a.59.59 0 0 1-.51-.89q.63-1.06 1.36-1.42 1.05-.52.88-1.46-.1-.49-.59-1.2c-.93-1.34.76-3.02-1.16-4.11a.83.83 0 0 1-.29-1.16l1.01-1.64a.85.82-30.2 0 0 .12-.43v-5.09a.57.56-87.8 0 0-.52-.57q-.14-.01-.35 0a.93.92 20.6 0 1-.72-1.57q.93-.94 2.51-1.56a2.8 2.49-15.6 0 0 1.79-2.78q-.19-1.32-.14-3.09.03-.81-.18-.77-.25.06-.37-.01a.33.33 0 0 1-.08-.54c2.53-2.3 9.08-3.89 16.73-6.12a7.02 7-39.7 0 1 5.11.47l1.62.82a1.26 1.26 0 0 1 .04 2.23l-8.26 4.46a.49.49 0 0 0 .32.91c1.23-.21 2.95-.46 4.03-1.08q3.85-2.23 8.17-3c3.65-.66 7.06-2.84 11-3.73 2.14-.49 3.91-1.92 6.14-2.24 2.61-.37 4.81-1.93 7.05-2.67q.85-.28 3.23-.5a.5.5 0 0 1 .54.58l-.71 4.19a3.01 2.94-44.3 0 0-.02.84l.82 6.41a1.56 1.55-12.7 0 1-1.07 1.67l-4.13 1.32a.4.39-13.3 0 1-.51-.31l-.57-3.63a.68.67 42.3 0 0-1.34.06l-.26 4.57a.45.44-8.5 0 1-.31.41c-2.07.71-6.27 3.14-9.03 3.93q-4.01 1.14-7.93 2.91a3.64 3.57-56.5 0 1-1.46.31h-1.7a.84.82-65.7 0 0-.56.22l-1.23 1.12a8.73 8.53 7 0 1-1.18.9q-1.76 1.13-12 4.89-4.03 1.48-6.28 3.33a.59.59 0 0 0 .64.99l5.11-2.52a5.23 3.99-35.8 0 1 .67-.28l17.01-6.16a.63.63 0 0 1 .81.38q1.06 2.98-.49 5.06a.53.53 0 0 0 .68.79q2.92-1.57 5.61-1.81a4.35 4.24-60.2 0 0 1.58-.45l8.5-4.25a2.44 2.38-62.4 0 1 .67-.22q3.13-.55 4.21-1.21c3.47-2.16 7.63-2.65 10.61-5.66a2.12 2.11-69.5 0 1 1.38-.63q2.74-.19 4.08-1.73a1.47 1.42 16.6 0 1 .95-.49c6.12-.58 13.3-4.5 18.04-7.38a4.1 4.05 24.3 0 1 1.4-.52c4.78-.82 8.35-3.66 12.58-5.18q6.29-2.27 9.52-3.63.04-.01 2.94-1.45a.86.85 75.2 0 0 .47-.81q-.15-2.28.77-4.38a.34.34 0 0 1 .58-.07q.01.01.07.15a.35.35 0 0 0 .48.2q1.92-.9 1.47-3.14-.14-.67-.6-.77-.27-.05-.44-.2a1.24 1.21 24.7 0 1-.38-.99l.14-1.61a.88.85-70.7 0 0-.36-.78q-.65-.48-.52-1.45a1.21 1.14 67.8 0 1 .19-.49q1.54-2.21-.3-4.67a.92.92 0 0 1 .84-1.46q2.15.24 2.18-2.62a1.25 1.25 0 0 0-2.44-.38q-.18.59.17 2.37a.25.06-52.3 0 1-.08.18q-.02.02-.03.04a.02.01-34.7 0 1-.03 0q-.09-3.66.35-5.71a.49.48.3 0 0-.58-.58c-.36.07-.85.71-1.44.91q-13.83 4.68-16.89 5.59c-4.22 1.25-6.89 2.92-10.78 4.77a3.01 2.72-57.9 0 1-.95.27q-2.6.3-3.72.81-4.5 2.03-8.34 3.07-2.76.75-4.29 2.08a.65.65 0 0 1-.79.04c-1.62-1.13-3.94.95-4.94 2.3a1 .96 17.7 0 1-.79.39q-4.99-.07-9.74 1.68-3.16 1.17-7.76 2.44a9.2 8.93-64.3 0 0-1.23.45q-7.48 3.34-12.96 4.36c-4.06.76-6.89 2.06-10.79 3.08a1.16 1.02-1.1 0 1-1.45-1.23q.11-.38-.5-.81a.46.39 57.5 0 0-.23-.07h-4.4a.18.17 35.2 0 1-.06-.34l28.03-9.43a.88.77-48.9 0 1 .22-.03q1.77.02 5.03-1.27 5.48-2.18 8.22-2.84 3-.72 8.3-2.65 10.34-3.77 24.99-8.07a4.45 4.24 33.9 0 1 .88-.15q1.74-.11 2.43-.43 5.08-2.35 6.25-2.78 5.11-1.86 20.86-6.55 3.5-1.05 6.39-2.51 3.05-1.55 6.06-3.26zm-4.51 6.74a.79.79 0 0 0-1.02-.66l-5.05 1.62a.36.35-11.8 0 0-.24.36l.5 6.5a.27.26-6.9 0 0 .31.24q6.32-1.19 5.5-8.06zm-75.962 35.097a2.01 1.1-57.9 0 0-2 1.118 2.01 1.1-57.9 0 0-.136 2.287 2.01 1.1-57.9 0 0 2-1.118 2.01 1.1-57.9 0 0 .136-2.287zm1.723 3.555a2.29 1.28-76.6 0 0-1.776 1.931 2.29 1.28-76.6 0 0 .714 2.524 2.29 1.28-76.6 0 0 1.776-1.931 2.29 1.28-76.6 0 0-.714-2.524zM381.81 146.34l.33-.11a1.29 1.29 0 0 0 .86-1.32l-.26-3.61a1.79 1.75 26.3 0 0-.3-.84q-.79-1.13-1.99.27a.69.68-43.4 0 0-.03.86q1.23 1.6.7 4.11a.55.55 0 0 0 .69.64zm-.04 8.96l.33-.07a1.27 1.27 0 0 0 .99-1.2l.12-3.56a1.76 1.72 32.5 0 0-.2-.86q-.65-1.19-1.98.05a.68.67-37.2 0 0-.12.84q1.04 1.69.25 4.09a.54.54 0 0 0 .61.71zm1.605 3.698a.71.71 0 0 0-.789-.621l-.536.064a.71.71 0 0 0-.621.789l.476 3.992a.71.71 0 0 0 .789.621l.536-.064a.71.71 0 0 0 .621-.789l-.476-3.992z" class="C"/><g class="B"><path d="M507.49 87.14q.82 6.87-5.5 8.06a.27.26-6.9 0 1-.31-.24l-.5-6.5a.36.35-11.8 0 1 .24-.36l5.05-1.62a.79.79 0 0 1 1.02.66z"/><ellipse cx="0" cy="0" transform="matrix(-.770513 -.637424 .637424 -.770513 417.03 88.4)" rx="2.58" ry="1.13"/><path d="M419.19 97.84q-.3.27-1.74-.91-2.06-1.68-2.93-3.58a1.59 1.57-87.7 0 0-.67-.74q-1.77-.99-3.7-3.36-1.19-1.46-.59-2.01.61-.55 1.95.78 2.17 2.15 2.99 4a1.59 1.57 3.2 0 0 .67.74q1.81 1.05 3.29 3.26 1.02 1.55.73 1.82z"/></g><g class="C"><ellipse cx="0" cy="0" transform="matrix(.427358 -.904083 .904083 .427358 262.12 94.27)" rx="1.49" ry=".8"/><ellipse cx="0" cy="0" transform="matrix(-.739631 -.673013 .673013 -.739631 241.15 93.98)" rx="1.19" ry=".49"/><circle cx="40.5" cy="97.78" r=".37"/><path d="M240.11 98.09q1.23.69.9 2.35a.56.56 0 0 1-1.11-.04l-.23-2.02a.3.29 11.2 0 1 .44-.29z"/></g><ellipse cx="0" cy="0" transform="matrix(-.667833 -.744312 .744312 -.667833 422.44 101.25)" rx="3.11" ry=".72" class="B"/><path d="M229.37 102.15l1.56-1.89a.44.44 0 0 1 .77.19q.19.9.11 1.46-.15 1-1.07 1.03-.83.03-1.19-.11a.44.44 0 0 1-.18-.68zm27.11 3.29a.87.59-54.1 0 1-.04 1.32q-.28.25-.51-.08-.34-.47.02-.89.33-.39.53-.35z" class="C"/><path d="M138.12 125.93q5.37-1.74 8.99-1.85a6.3 6.12 31.5 0 0 2.27-.51q1.5-.65 4.17-1.28 6.39-1.51 12.57-2.99 4.41-1.07 6.74-1.44 3.13-.51 6.76-1.29a2.2 2.19-15.1 0 1 2.55 1.46l.01.05a1.78 1.77 75.6 0 1-1.31 2.23l-44.05 9.97a1.1 1.1 0 0 1-1.29-1.4l.13-.4a3.77 3.77 0 0 1 2.46-2.55z" class="B"/><ellipse cx="0" cy="0" transform="matrix(.998342 -.057564 .057564 .998342 465.85 119.34)" rx="2.14" ry="1.37" class="C"/><g class="B"><ellipse cx="0" cy="0" transform="matrix(.531399 -.847122 .847122 .531399 430.46 123.94)" rx="2.01" ry="1.1"/><ellipse cx="0" cy="0" transform="matrix(.231748 -.972776 .972776 .231748 432.72 128.02)" rx="2.29" ry="1.28"/><path d="M1.09 127.3q-.22 1.23.11.99.28.55.1.79-.3.41-.77.22-.31-.12-.39-.57.13-.47-.01-.93-.02-.53.19-.86a.37.37 0 0 1 .64.03q.07.13.13.33z"/></g><path d="M1.2 128.29q-.33.24-.11-.99l.11.99z" class="C"/><path d="M234.36 127.24q.73-.48 2.81 2.63.62.92-.14 1.42-.77.51-1.37-.43-2.02-3.14-1.3-3.62z" class="B"/><path d="M.13 127.8q.14.46.01.93-.07.06-.14.12v-1.09q.07.02.13.04zm377.65 4.66q-.47.56-.44 1.09.3 5.11.28 5.31a3.27 3.12-33.3 0 1-.19.82q-.88 2.42-3.7 2.14a1.16 1.16 0 0 0-1.07.49q-.75 1.1-2.16 1.06c-2.46-.08-4.58 1.18-6.89 2.53a.92.84 21.2 0 1-.26.1l-4 .91a.59.58 19.7 0 1-.49-1.03q1.18-.91 2.89-1.45 4.39-1.36 6.45-2.22a.37.37 0 0 0 .07-.65q-4.61-3.24-11.37-2.17a.16.16 0 0 1-.11-.3q3.65-2.1 7.97-2.53a1.48 1.46-67.9 0 0 .86-.37q1.49-1.32 2.4-1.67 4.6-1.79 9.57-2.4a.21.21 0 0 1 .19.34z" class="C"/><g class="B"><path d="M148.18 134.99l-2.97 2.78a.62.59-73.2 0 1-.28.16l-8.9 2.13a.72.71 84.2 0 1-.88-.72q.04-1.22 1.33-1.88 5.13-2.62 10.78-4.14a.98.98 0 0 1 .92 1.67zm19.41 1.54q-.68-.34-6.12 1.07a2.65 2.55-43.1 0 1-1.38-.02q-1.43-.43-2.06-.87a.92.92 0 0 1 .32-1.65l6.6-1.49a.94.77 32.1 0 1 .23-.03q1.82-.02 3.12 2.23a.54.54 0 0 1-.71.76zm-41.42 2.45q.44.1.62.52a.56.52 43.1 0 1 .03.38q-.86 2.84-1.46 2.71-.6-.14-.16-3.07a.56.52-17.6 0 1 .19-.34q.35-.3.78-.2zm103.39 1.64l3.99-1.5a.61.61 0 0 1 .82.62q-.01.13-.41.67-.37.5-.64.55-2.66.5-3.74.18a.27.27 0 0 1-.02-.52zm152.25 5.72a.55.55 0 0 1-.69-.64q.53-2.51-.7-4.11a.69.68-43.4 0 1 .03-.86q1.2-1.4 1.99-.27a1.79 1.75 26.3 0 1 .3.84l.26 3.61a1.29 1.29 0 0 1-.86 1.32l-.33.11zm-171.76-4.32a.63.62-34.5 0 1 .18-.95l.26-.14a.33.33 0 0 1 .4.07l4.5 4.8a.89.89 0 0 1-.26 1.41q-.86.41-2.25.4a.54.54 0 0 1-.46-.8c1.29-2.32-1.23-3.44-2.37-4.79z"/><ellipse cx="0" cy="0" transform="matrix(-.887815 -.4602 .4602 -.887815 206.29 146.84)" rx="3.54" ry="2.36"/><path d="M203.08 149.81a.95.95 0 0 1-1.29 1.33q-3.32-2-4.31-5.82a.78.78 0 0 1 .66-.97l.05-.01a1.17 1.17 0 0 1 1.25.76c.58 1.65 1.14 2.7 2.4 3.71q1.23.98 1.24 1z"/></g><g class="C"><path d="M80.24 150.36q-1.19-.11-2.17 1.61a1.46 1.43 9.8 0 1-1.04.72l-1.76.28a2.32 2.32 0 0 0-1.11.48q-2.11 1.68-3.49 4.13-.64 1.15-1.2 4.97-.42 2.8-1.09 5.54-3.27 4.6-7.38 7.74l-15.8-3.52q-4.93-2.02-8.6-5.21l-7.88-9.72c.47-1.03 1.63-2.09 2.89-2.11q.49-.01.7-.49a.67.65 6.4 0 1 .5-.39l2.05-.32a.83.81 14 0 0 .53-.31q.71-.87 2.38-.66a1.27 1.27 0 0 0 .95-.26c1.74-1.37 3.47-.37 5.09-1.51 1-.69 2.81-.25 4.17-.81q.73-.3 1.55-.45 13.73-2.59 27.22-3.2 2.07-.1 4.3.87a.63.63 0 0 1 .36.71q-.28 1.33-1.17 1.91z"/><ellipse cx="0" cy="0" transform="matrix(.320613 -.94721 .94721 .320613 350.91 149.43)" rx="1.84" ry=".95"/></g><g class="B"><path d="M381.77 155.3a.54.54 0 0 1-.61-.71q.79-2.4-.25-4.09a.68.67-37.2 0 1 .12-.84q1.33-1.24 1.98-.05a1.76 1.72 32.5 0 1 .2.86l-.12 3.56a1.27 1.27 0 0 1-.99 1.2l-.33.07z"/><rect x="-.85" y="-3.81" transform="matrix(.809017 -.587785 .587785 .809017 218.98 152.62)" width="1.7" height="7.62" rx=".81"/><path d="M80.24 150.36l-.24.8a.73.73 0 0 0 .4.87l.42.17q.1.52-.05.92-.17.45-.68.54-.95.18-2.13.41a.41.41 0 0 0 .02.81l4.14.52a1.9 1.83 63.7 0 1 .8.29c6.39 4.19 10.74 9.68 15.93 14.56 4.93 4.64 8 11.44 11.41 17.65q10.72 19.54 15.85 37.49 2.49 8.72 5.35 18.88 1.06 3.75 1.55 6.79.52 3.33 1.11 6.96a.42.41 79 0 0 .5.34l.29-.06a.33.32-9.5 0 0 .25-.34l-.58-7.79a3.11 3-55.3 0 0-.09-.55l-3.45-14.43a.6.46 37 0 0-.04-.14q-1.5-3.87-2.04-7.24a.35.34 7.2 0 1 .48-.37c8.14 3.49 10.16 17.13 9.9 24.81a2.15 2.13-56.6 0 0 .2.99q.97 2.04 1.19 3.61.09.62 1.68-.17a.56.56 0 0 1 .76.29l2.72 6.41a.77.71 42.7 0 1 .04.5c-.69 2.9-2.56 4.11-3.2 6.51a.2.2 0 0 1-.23.15h-.01a.18.17 6.2 0 1-.14-.17q.16-2.82.8-6.09.18-.92-.67-1.89a1.5 1.45-65.9 0 1-.35-.96v-1.12a.46.45 3.6 0 0-.4-.45q-.57-.07-.78.13a.96.96 0 0 0-.29.61c-.46 5 2.86 20.01-5.63 23.06a1.64 1.64 0 0 0-.8.62q-1.2 1.7-1.31 2.57a.54.54 0 0 0 1.02.33q1.73-3.25 3.45-3.04a.61.6 5.5 0 1 .53.64q-.13 1.82-1.55 3.64a.65.64 13.3 0 0 .64 1.03q1.38-.29 1.6-1.89.64-4.72 2.59-7.84 1.06-1.7 1.38-3.47.36-1.97 1.1-3.01a2.11 2.07-24.7 0 0 .37-.97q.51-4.47 3.59-7.8a.64.64 0 0 0-.04-.9q-.54-.51-.61-.98a.21.19 74.3 0 1 .11-.21l7.74-4.19a.9.89 50.6 0 0 .14-1.48l-.62-.51a.89.89 0 0 0-1.28.17c-1.99 2.77-4.55 1.47-5.7 4.74a.54.54 0 0 1-.94.14q-.69-.92-.55-2.44a.84.82-3.8 0 1 .66-.74q1.97-.42 4.51-2.09a1.45 1.44 33 0 1 1.05-.22q.03 0 .47.13a.42.42 0 0 0 .53-.41v-.26a.75.73-13.9 0 1 .41-.66q1.31-.69 3.27-1.62.94-.45 1.48-.07.22.16.45.53a.91.91 0 0 0 1.19.34q1.52-.78 2.71-.08a1.14 1.14 0 0 1-.11 2.02l-3.45 1.55a.99.96 7.2 0 0-.28.21q-1.39 1.62-3.81 2.9a1.28 1.28 0 0 0-.45 1.86l.96 1.4a1.98 1.97 58.4 0 0 2.56.62l2.76-1.49a1.74 1.74 0 0 1 1.87.14l.35.27a.9.9 0 0 1-.19 1.55l-4.4 1.86a1.55 1.55 0 0 1-1.48-.15l-3.61-2.49a1.93 1.9-84.5 0 1-.69-.85q-.4-.98-.51-.96a3.48 2.68-5.2 0 0-3.03 2.81q0 .08.22.66a.52.51-32.1 0 0 .84.19q.22-.22-.1-1.12a.57.56 77.1 0 1 .46-.75q1.36-.16 2.17 1.19a1.54 1.54 0 0 0 .91.68q1.83.47 1.52 2.13a.72.72 0 0 0 .42.8q1.82.78 1.21 2.74a1.32 1.17-46 0 1-2.4.18q-.2-.85.32-2.15a.94.94 0 0 0-.28-1.09l-2.59-2.13a.7.69-86.9 0 0-1.02.92q1.74 2.68 1.75 4.18a1.33 1.33 0 0 0 .49 1.03l.48.4a.6.6 0 0 1 .03.9l-.32.3a.63.62-76.1 0 0 .63 1.05q1.22-.42 2.13-.46a.73.72-5.9 0 1 .74.59q.04.22.42.64a1.21 1.19-23.8 0 0 1.03.39q4-.52 4.61-.76.62-.24 5.96-3.75a.23.22-20.2 0 1 .35.16c.78 8.14 5.47 11.95 12.02 18.38 6.81 6.7 8.28 15.14 7.78 24.31q-.46 8.45-3.08 15.74c-5.74 2.23-10.38 4.57-15.38-.01q-6.11-5.6-11.59-10.44a2.36 2.35-37.8 0 0-2.63-.33l-32.69 16.84-6.05 1.54a1.72 1.69 13.2 0 0-.87.53q-1.31 1.48-2.46 1.77-2.03.5-3.35 1.77a.22.21-79.3 0 1-.1.07l-5.66 2.72a.83.83 0 0 1-1.19-.79l.08-1.42a.29.29 0 0 0-.32-.3h-.01a.28.28 0 0 0-.25.32q.44 2.57-2.09 3.5a.51.51 0 0 1-.67-.63q.58-1.83.21-3.4a.78.77-16.1 0 1 .5-.9q2.21-.79 2.68-2.45a.47.47 0 0 0-.72-.52l-3.2 2.21a1.68 1.64-62.2 0 1-.9.29c-1.29.03-5.02 2.39-8.82 4.49a1.06.99-62.9 0 1-.36.13l-1.58.28a3.73 3.6-61.2 0 0-.87.27l-12.47 5.65a.35.35 0 0 1-.47-.45q.66-1.66-.24-2.87a.7.7 0 0 1 .36-1.09q1.94-.56 2.61-2.37a.62.62 0 0 0-.34-.79q-.79-.33-2.93 1.14a.46.46 0 0 1-.71-.49q.47-1.8 0-3.5a.73.72 73.5 0 1 .48-.89q.43-.13.56-.09a1.44 1.21-88.8 0 0 1.48-1.69q-.39-2.3-.65-5.16a2.78 2.77-10.1 0 1 2.06-2.94q2.22-.58 3.73-2.11c1.16-1.18 2.84-1.28 4.18-1.53a.91.91 0 0 0 0-1.79q-1.29-.26-2.65.07a.44.43 1.5 0 1-.52-.54q.3-1.05-.44-2.33a.63.63 0 0 1 .23-.87c1.74-1.02 2.93-2.61 4.85-3.57q7.12-3.54 13.38-5.84a.56.56 0 0 0 .27-.84l-.18-.25a1.1 1.09-26.1 0 0-1.24-.42l-2.75.88a.4.4 0 0 1-.45-.61q.15-.21.48-.57.37-.39.02-1.37-.3-.87-.27-1.48a.83.79-17.7 0 1 .35-.64l3.93-2.84a1.55 1.48-73 0 1 .32-.18l14.01-6.12a.69.69 0 0 0-.33-1.32q-1.03.07-3.02 1.08a.56.56 0 0 1-.77-.71q.74-1.79.74-3.61a.62.46-36.7 0 1 .03-.1l.52-1.14a.72.71 83.6 0 0-1.08-.87q-2.81 2.15-5.5 4.92c-4.59 4.73-10.25 10.09-13.67 13.12q-11.91 10.58-24.95 23.19a.53.53 0 0 1-.9-.34q-.08-.82-1.74-1.21.52-1.66 1.07-2.41 3.91-5.39 9.19-10.81 19.83-20.38 30.25-31.62.66-.72.9-2.05.82-4.64.08-8.41a1.18 1.17-78 0 0-.47-.73q-.68-.47-.41-1.62a.61.6-75.1 0 0-.42-.73q-.59-.16-.71-1.16-.05-.42-.47-1.27-1.14-2.3-3.13-6.24a.86.82 87.4 0 0-.42-.4q-.18-.08-.33-.26-.17-.19-.15-.27.33-1.05-.57-1.61a1.07 1.04 7.2 0 1-.44-.55q-.67-1.92-2.87-3.99-.34-.33-.49-.95-.16-.66-.44-.92c-1.98-1.87-2.69-3.74-4.46-5.67q-2.22-2.41-4.05-5-.23-1.26-1.47-4.18-1.51-3.54-1.54-9.13a.62.6-4.2 0 1 .54-.61l5.39-.63a.67.61-66.2 0 0 .36-.16q1.98-1.69 1.87-3.73a1.66 1.65 57.8 0 1 .2-.9q2.43-4.37 3.67-5.36c3.54-2.8 6.22-4.62 8.18-7.25a.22.22 0 0 0-.24-.34L93 214.4a1.09 1.07 55.6 0 1-1.02-.2l-.26-.2a.66.66 0 0 1 .14-1.1q5.55-2.6 11.15-3.94 2.71-.65 3.19-1.85a.22.22 0 0 1 .4 0q1.39 3.39.87 5.58a.35.35 0 0 0 0 .2l1.42 6.28a.96.86-51.5 0 1 .02.33q-.11 1.45-2.2 3.45a1.01 1 28.9 0 1-.9.25l-.88-.19a.26.26 0 0 0-.29.38l3.87 7.16a1.37 1.35-60.4 0 1 .16.6q.1 2.29 1.27 4.77a.55.23 49.7 0 1 .04.13l.56 4.36a1.1 1.02 50 0 1-.02.41q-.64 2.79-3.12 3.08a1.17 1.17 0 0 0-.79 1.88q1.54 2 1.97 4.37a.82.79-75.1 0 1-1.31.79q-.2-.18-.35-.23a.36.36 0 0 0-.48.36c.32 5.92 2.8 9.25 6.67 15.26q.66 1.03.79 2.57a1.37 1.36 18.2 0 0 .46.9q1.63 1.36 3.38 3.46 3.5 4.22 9.14 7.07c1.51.76 3.06-.03 2.86-1.84a.72.71-20.6 0 1 .3-.65l1.42-.98a.46.46 0 0 1 .72.35l.09 1.06a.65.65 0 0 0 .59.59h.02a.57.56 2 0 0 .6-.55q0-.89.41-1.73a3.18 2.97-32.2 0 0 .29-1.1c.42-6.38.45-10.26 1.94-15.03a.58.58 0 0 0-.36-.72l-.69-.25a.38.38 0 0 0-.5.28l-1.22 5.72a.85.85 0 0 1-1.3.53q-1.13-.74-3.19-.75a2.37 2.37 0 0 1-1.24-.35q-8.87-5.42-8.6-15.86a1.03 1.02-8.1 0 0-1.34-1l-6.28 2.02a.86.85 81.3 0 1-1.11-.82q0-3.56 3.35-5.27c1.53-.78 3.59.05 4.48-2.35a.4.39 16.6 0 0-.29-.52l-3-.63a.79.79 0 0 0-.82.33q-.46.68-1.5.8a.7.7 0 0 1-.62-1.14l.61-.74a.57.52 67.3 0 0 .13-.36v-6.62a.86.86 0 0 1 .86-.86h1.21a.55.55 0 0 1 .55.55v5.68a.21.2 83.3 0 0 .25.2q1-.24 1.53-.89.38-.47-.11-1.85-.3-.83.43-2.69a.77.77 0 0 1 .72-.49h1.06a.69.69 0 0 0 .43-1.22l-2.6-2.13a1.58 1.55-71.8 0 1-.56-1.14l-.52-11.75a.41.41 0 0 0-.34-.39q-.4-.06-.77.2a.87.86-52.7 0 1-.77.11q-2.03-.66-2.37-2.89a.71.7-11.3 0 1 .54-.8l1.91-.43a.91.9-86.1 0 0 .64-.57l.68-1.88a.61.61 0 0 1 1.11-.07q.54 1.02.64 2.07a1.32 1.31-83.1 0 0 .85 1.09l.85.31a.39.39 0 0 0 .49-.52l-4.29-10.12a.75.73 82.9 0 0-.54-.43q-1.02-.17-1.26 1.03a.8.79-9.5 0 1-.38.53q-2.12 1.3-4.02.91a.92.91-86 0 1-.73-.85l-.53-10.33a1.03 1.02-68.2 0 0-.27-.64q-1.58-1.67-.53-4.73a1.57 1.54-47.5 0 0-.04-1.08q-2.72-6.58-8.39-13.62c-1.49-1.86-3.85-1.02-4.2-4.08a.94.92-87.9 0 0-.74-.81c-3.01-.6-3.24-4.37-4.99-6.1-2.9-2.87-7.49-5.28-11.37-3.96-4.59 1.57-5.53 6.05-7.13 10.95q-.62-.61-1.55-.97.67-2.74 1.09-5.54.56-3.82 1.2-4.97 1.38-2.45 3.49-4.13a2.32 2.32 0 0 1 1.11-.48l1.76-.28a1.46 1.43 9.8 0 0 1.04-.72q.98-1.72 2.17-1.61zm45.323 82.213a3.62 1.06-103.7 0 0-.172 3.768 3.62 1.06-103.7 0 0 1.887 3.266 3.62 1.06-103.7 0 0 .172-3.768 3.62 1.06-103.7 0 0-1.887-3.266zm13.367 31.957a.78.78 0 0 0-1.34.57q.04 1.46-.21 8.71c-.09 2.65-.93 4.66-2.45 6.5a.262.262 0 0 0 .36.38q2.26-1.67 2.67-4.73.66-4.85.35-9.92a1.67 1.64-29.1 0 1 .32-1.09q.31-.41.3-.42zm7.48 7.67a.52.52 0 0 0 .87-.22q.71-2.32 2.46-3.08a.65.64 72.3 0 0 .37-.73q-.36-1.71-1.53-1.13a1.7 1.65 2.6 0 0-.63.56l-1.87 2.87a1.23 1.22-49.3 0 0 .11 1.49l.22.24zm.8 20.84q.05-3.44 1.95-6.68 1.11-1.89-1.14-3.24a.37.37 0 0 0-.53.18l-.01.03a.56.56 0 0 0 .28.7q.87.4 1.07 1.09a1.22 1.2 56.3 0 1-.21 1.1q-2.36 2.91-2.23 7.03a.13.12 0 0 0 .13.12h.35a.34.33 0 0 0 .34-.33zm-28.37 2.23a1.03.82-74.8 0 0 1.01-.74q.17-.56-.41-.63a.78.69-1.8 0 0-.88.83q.11.5.28.54zm27.871-.397a1.45.52-86 0 0-.62 1.41 1.45.52-86 0 0 .418 1.483 1.45.52-86 0 0 .62-1.41 1.45.52-86 0 0-.418-1.483zm-31.732 8.578a1.04.75-87.3 0 0-.798 1.004 1.04.75-87.3 0 0 .7 1.074 1.04.75-87.3 0 0 .798-1.003 1.04.75-87.3 0 0-.7-1.074zm15.246.605a.95.6-61.4 0 0-.982.547.95.6-61.4 0 0 .072 1.121.95.6-61.4 0 0 .982-.547.95.6-61.4 0 0-.072-1.121zm9.894 2.648a.79.68-53.6 0 0-1.016.232.79.68-53.6 0 0 .078 1.039.79.68-53.6 0 0 1.016-.232.79.68-53.6 0 0-.079-1.039zm-19.179 1.792a.94.59-60 0 0-.981.519.94.59-60 0 0 .041 1.109.94.59-60 0 0 .981-.519.94.59-60 0 0-.041-1.109zm14.547.194a1.17.71-62.7 0 0-1.168.714 1.17.71-62.7 0 0 .094 1.365 1.17.71-62.7 0 0 1.168-.714 1.17.71-62.7 0 0-.094-1.365zm-20.327 2.15q-.32.55-.24 1.05a.52.51-34.9 0 0 .96.16q.31-.54.07-1a.54.39 50.7 0 0-.79-.21zm25.181 2.156a1.14.79-77.8 0 0-1.013.947 1.14.79-77.8 0 0 .531 1.281 1.14.79-77.8 0 0 1.013-.947 1.14.79-77.8 0 0-.531-1.281zm-14.142.606a.74.6-45.5 0 0-.947.107.74.6-45.5 0 0-.091.948.74.6-45.5 0 0 .947-.107.74.6-45.5 0 0 .091-.948zm-20.257 1.709a.93.7-64.4 0 0-1.033.536.93.7-64.4 0 0 .23 1.141.93.7-64.4 0 0 1.033-.536.93.7-64.4 0 0-.23-1.141zm15.482.297a.88.64-55.1 0 0-1.028.356.88.64-55.1 0 0 .021 1.088.88.64-55.1 0 0 1.028-.356.88.64-55.1 0 0-.021-1.088zm14.119.096a.69.6-78.1 0 0-.729.552.69.6-78.1 0 0 .445.799.69.6-78.1 0 0 .729-.552.69.6-78.1 0 0-.445-.799zm-4.112 2.955a.8.68 67.1 0 0-1.32-.66q-.13.26.09 1.01a.49.49 0 0 0 .48.35q.62-.01.75-.7zm-15.885-.758a.78.66-134.3 0 0 .072 1.019.78.66-134.3 0 0 1.017.097.78.66-134.3 0 0-.072-1.019.78.66-134.3 0 0-1.017-.097zm11.465 2.688a.69.69 0 1 0-1.38 0 .69.69 0 1 0 1.38 0zm-15.26-.44q-1.12-.22-1.08.57a.39.14 64.3 0 0 .01.09l.14.65a.44.43 67 0 0 .66.27q.5-.33.68-.91a.53.53 0 0 0-.41-.67zm9.84 3.61q.4-.22.76-1.11a.44.42-55.3 0 0-.07-.43q-.59-.66-1.23.45a.73.51-81.2 0 0 .54 1.09zm.905 5.363a.9.5-46.9 0 0-.98.315.9.5-46.9 0 0-.25.999.9.5-46.9 0 0 .98-.315.9.5-46.9 0 0 .25-.999zm-19.962 2.222a1.1.76-67.4 0 0-1.124.723 1.1.76-67.4 0 0 .279 1.308 1.1.76-67.4 0 0 1.124-.723 1.1.76-67.4 0 0-.279-1.308zM99.87 153.54l.17-1.27q.92.34.85 1.35a.41.41 0 0 1-.58.34q-.27-.12-.44-.42zm-1.17.58l2.32 1.47a4.77 4.73 1.9 0 1 1.58 1.67q1.53 2.71 3.28 5.39 11.29 17.23 21.53 35.68.8 1.43 1.09 4.1a1.77 1.74 23.6 0 0 .36.9q2.19 2.81 3.29 7.02 1.61 6.17 2.41 9.49a.39.39 0 0 1-.26.46h-.02a.46.46 0 0 1-.57-.28q-1.05-3-4.64-12.83-2.56-7-4.55-10.78-4.25-8.06-5.57-10.31-3.48-5.92-6.46-8.84-1.75-1.71-2.42-2.57-1.07-1.36-4.83-4.67-1.53-1.34-3.61-1.41-.92-.03-1.22-.27-.37-.29-.47-.54a.91.91 0 0 0-.75-.58q-1.14-.11-1.22-1.55a1.1 1.09-72.1 0 0-.39-.77l-1.16-.94a1.16 1.16 0 0 1 .74-2.06h3.31a.75.71-21.3 0 1 .52.21q1.35 1.37 2.33 3.49a.66.62 9.7 0 0 .18.24l3.77 3.23a.49.49 0 0 0 .73-.64c-1.61-2.56-4.75-5.28-6.57-8.51a1.12 1.05-88.1 0 0-.28-.32l-8.28-6.38q3.43-.36 5.83.9zm105.21-.83a.26.26 0 0 1 .36.05l3.12 4.16a2.42.39 53.2 0 1 1.14 2.17l-.6.45a2.42.39 53.2 0 1-1.76-1.71l-3.11-4.16a.26.26 0 0 1 .05-.37l.8-.59zm225.35 3.4l-14.09 13.77-24.08 10.7a4.46 4.44-83.9 0 0-1.75 1.42q-3.12 4.27-5.28 5.28-7.77 3.62-16.46 8.28-1.61.86-2.77 1.16-1.72.45-2.78 1.26a1.83 1.82 34.4 0 1-1.64.3q-1.12-.33-1.81.16a.47.46-25.8 0 1-.72-.25q-.3-1.05.41-1.88a.29.29 0 0 0-.25-.48l-2.25.26a2.67 2.62 25.5 0 0-1.04.36q-4.4 2.72-8.14 3.72a1.39 1.29 20.6 0 0-.39.16l-4.96 2.99a1.67 1.51-61 0 1-.61.21q-1.85.25-4.96 1.95-3.34 1.81-4.37 2.26-7.33 3.15-15.54 6.21-1.78.66-3.23.55a.77.77 0 0 0-.59.2l-1.26 1.19a.34.34 0 0 1-.57-.25v-2.05a.78.77-84.2 0 1 .93-.76q.87.17 1.77-.64.63-.56 1.8-.81 3.08-.64 6.13-2.59a1.23 1.2 82.6 0 0 .5-.67q.54-1.76-.52-2.85a.4.4 0 0 1 .44-.65q5.78 2.43 10.91-1.56a1.28 1.25-61.4 0 1 .85-.26c1.59.11 1.84-1.7 3.84-1.5a1.39 1.35 25 0 0 1.09-.38q.02-.02.04-.06a.93.91 21.8 0 1 .86-.36q1.48.19 2.37-.68c.75-.73 1.25-.4 2.11-.46a1.14 1.14 0 0 0 .83-.46q.86-1.18 2.62-1.89a.89.79-50.4 0 0-.06-1.64q-1.16-.11-1.16-1.44a1.3 1.25 71.4 0 0-2.04-1.06q-.65.52-1.31.62a.68.68 0 0 1-.79-.69q0-.01.02-.06a.25.24 85.9 0 0-.33-.29q-2.27.97-6.01 3.03-1.64.9-2.7 1.27-4.02 1.4-6.81 2.33a.88.65 8.3 0 0-.13.07l-1.29.96a.94.92-63.1 0 1-.56.19q-1.46.01-2.16 1.14a1.04 1.03-54.6 0 1-1.53.26l-.31-.26a.67.67 0 0 1 .02-1.05q2.26-1.73 2.67-1.81 2.89-.57 6.58-2.57 3.29-1.79 13.33-5.61c.71-.28 1.31-.94 2.16-1.24q5.09-1.8 23.98-10.17a2.37 1.69 17.5 0 1 .43-.14q2.07-.38 6.42-2.74 4.98-2.69 13.31-5.79 6.58-2.45 12.05-5.1 4.11-1.99 12.24-4.69a5.22 4.77-66 0 0 .89-.39c2.36-1.28 4.81-2.8 6.91-2.57a1.1 1.07 24 0 0 .89-.33q.41-.45 4.5-1.85 2.54-.86 3.35.72zm-400.54.69l7.88 9.72q-5.25-3.2-8.26-7.93-.71-1.11.38-1.79z"/></g><path d="M85.5 243.65l-3.22-3.24c.16-3.89-1.04-6.6-2.8-10.68q.44-1.04-1.03-2.03a1.73 1.71 61.9 0 0-.97-.3H53.87a.33.33 0 0 1-.17-.62q7.56-4.47 11.93-7.15 3.94-2.43 7.23-5.53a1.16 1.15 71.3 0 0 .36-.74l.47-5.79q1.03.7 1.61 4.31a.7.7 0 0 0 1.38.04l1.25-5.89a1.46 1.45-74 0 1 1.92-1.07l2.81 1.02a.48.48 0 0 0 .53-.15q.27-.33.18-.68a.43.42 89.1 0 1 .5-.52l1.04.22a2.51 2.5 41.8 0 0 1.3-.07l9.52-3.24a.63.17-30.1 0 1 .11-.03l5.65-.69a.3.29-29.2 0 0 .15-.52q-2.3-1.85-4.62-.58a.75.75 0 0 1-1.1-.5q-.82-3.74-1.36-6.4c-.43-2.07.03-4.14-.46-6.3a2.23 2.18 17.8 0 0-.54-1.02l-11.34-12.12a.41.41 0 0 0-.71.22q-.52 3.45 2.22 3.68a1.28 1.27-6.5 0 1 1.11.88l.71 2.21a.23.23 0 0 1-.3.28l-5.96-2.16a1.57 1.56-82.5 0 1-1.03-1.35q-.41-5.9 1-11.15 1.06-3.93 2.3-5.21a.89.89 0 0 0-.03-1.27l-.06-.05a.88.87-47.1 0 0-1.24.05q-.66.73-1.01 1.72-3.4 9.49-2.52 19.36a.61.6-58.9 0 1-1.16.29q-1.77-4.26-1.31-8.39.63-5.64 2.18-10.77a.52.5 10.9 0 0-.46-.65q-.27-.03-.45.18-2.57 2.87-3.28 7.26a2.2 1.8-47.4 0 0-.03.53q.24 3.45-.61 6.61l-1.65-6.59c1.6-4.9 2.54-9.38 7.13-10.95 3.88-1.32 8.47 1.09 11.37 3.96 1.75 1.73 1.98 5.5 4.99 6.1a.94.92-87.9 0 1 .74.81c.35 3.06 2.71 2.22 4.2 4.08q5.67 7.04 8.39 13.62a1.57 1.54-47.5 0 1 .04 1.08q-1.05 3.06.53 4.73a1.03 1.02-68.2 0 1 .27.64l.53 10.33a.92.91-86 0 0 .73.85q1.9.39 4.02-.91a.8.79-9.5 0 0 .38-.53q.24-1.2 1.26-1.03a.75.73 82.9 0 1 .54.43l4.29 10.12a.39.39 0 0 1-.49.52l-.85-.31a1.32 1.31-83.1 0 1-.85-1.09q-.1-1.05-.64-2.07a.61.61 0 0 0-1.11.07l-.68 1.88a.91.9-86.1 0 1-.64.57l-1.91.43a.71.7-11.3 0 0-.54.8q.34 2.23 2.37 2.89a.87.86-52.7 0 0 .77-.11q.37-.26.77-.2a.41.41 0 0 1 .34.39l.52 11.75a1.58 1.55-71.8 0 0 .56 1.14l2.6 2.13a.69.69 0 0 1-.43 1.22h-1.06a.77.77 0 0 0-.72.49q-.73 1.86-.43 2.69.49 1.38.11 1.85-.53.65-1.53.89a.21.2 83.3 0 1-.25-.2v-5.68a.55.55 0 0 0-.55-.55h-1.21a.86.86 0 0 0-.86.86v6.62a.57.52 67.3 0 1-.13.36l-.61.74a.7.7 0 0 0 .62 1.14q1.04-.12 1.5-.8a.79.79 0 0 1 .82-.33l3 .63a.4.39 16.6 0 1 .29.52c-.89 2.4-2.95 1.57-4.48 2.35q-3.35 1.71-3.35 5.27a.86.85 81.3 0 0 1.11.82l6.28-2.02a1.03 1.02-8.1 0 1 1.34 1q-.27 10.44 8.6 15.86a2.37 2.37 0 0 0 1.24.35q2.06.01 3.19.75a.85.85 0 0 0 1.3-.53l1.22-5.72a.38.38 0 0 1 .5-.28l.69.25a.58.58 0 0 1 .36.72c-1.49 4.77-1.52 8.65-1.94 15.03a3.18 2.97-32.2 0 1-.29 1.1q-.41.84-.41 1.73a.57.56 2 0 1-.6.55h-.02a.65.65 0 0 1-.59-.59l-.09-1.06a.46.46 0 0 0-.72-.35l-1.42.98a.72.71-20.6 0 0-.3.65c.2 1.81-1.35 2.6-2.86 1.84q-5.64-2.85-9.14-7.07-1.75-2.1-3.38-3.46a1.37 1.36 18.2 0 1-.46-.9q-.13-1.54-.79-2.57c-3.87-6.01-6.35-9.34-6.67-15.26a.36.36 0 0 1 .48-.36q.15.05.35.23a.82.79-75.1 0 0 1.31-.79q-.43-2.37-1.97-4.37a1.17 1.17 0 0 1 .79-1.88q2.48-.29 3.12-3.08a1.1 1.02 50 0 0 .02-.41l-.56-4.36a.55.23 49.7 0 0-.04-.13q-1.17-2.48-1.27-4.77a1.37 1.35-60.4 0 0-.16-.6l-3.87-7.16a.26.26 0 0 1 .29-.38l.88.19a1.01 1 28.9 0 0 .9-.25q2.09-2 2.2-3.45a.96.86-51.5 0 0-.02-.33l-1.42-6.28a.35.35 0 0 1 0-.2q.52-2.19-.87-5.58a.22.22 0 0 0-.4 0q-.48 1.2-3.19 1.85-5.6 1.34-11.15 3.94a.66.66 0 0 0-.14 1.1l.26.2a1.09 1.07 55.6 0 0 1.02.2l9.46-3.04a.22.22 0 0 1 .24.34c-1.96 2.63-4.64 4.45-8.18 7.25q-1.24.99-3.67 5.36a1.66 1.65 57.8 0 0-.2.9q.11 2.04-1.87 3.73a.67.61-66.2 0 1-.36.16l-5.39.63a.62.6-4.2 0 0-.54.61q.03 5.59 1.54 9.13 1.24 2.92 1.47 4.18zm10.632-68.8a4.06 1.53-78.6 0 0-2.302 3.678 4.06 1.53-78.6 0 0 .697 4.282 4.06 1.53-78.6 0 0 2.302-3.678 4.06 1.53-78.6 0 0-.697-4.282zm14.018 46.69q-.31.32-.16 2.71.12 1.99 2.37 1.58a1.45 1.38 65 0 0 .77-2.3q-.46-.58-2.09-2.03a.64.64 0 0 0-.89.04z" class="C"/><g class="B"><rect x="-.98" y="-2.72" transform="matrix(.992966 -.118404 .118404 .992966 382.64 161.11)" width="1.96" height="5.44" rx=".71"/><path d="M73.69 207.57q1.15-12.18.73-24.54a1.09.92-62.1 0 0-.07-.32l-2.77-7.06q.85-3.16.61-6.61a2.2 1.8-47.4 0 1 .03-.53q.71-4.39 3.28-7.26.18-.21.45-.18a.52.5 10.9 0 1 .46.65q-1.55 5.13-2.18 10.77-.46 4.13 1.31 8.39a.61.6-58.9 0 0 1.16-.29q-.88-9.87 2.52-19.36.35-.99 1.01-1.72a.88.87-47.1 0 1 1.24-.05l.06.05a.89.89 0 0 1 .03 1.27q-1.24 1.28-2.3 5.21-1.41 5.25-1 11.15a1.57 1.56-82.5 0 0 1.03 1.35l5.96 2.16a.23.23 0 0 0 .3-.28l-.71-2.21a1.28 1.27-6.5 0 0-1.11-.88q-2.74-.23-2.22-3.68a.41.41 0 0 1 .71-.22l11.34 12.12a2.23 2.18 17.8 0 1 .54 1.02c.49 2.16.03 4.23.46 6.3q.54 2.66 1.36 6.4a.75.75 0 0 0 1.1.5q2.32-1.27 4.62.58a.3.29-29.2 0 1-.15.52l-5.65.69a.63.17-30.1 0 0-.11.03l-9.52 3.24a2.51 2.5 41.8 0 1-1.3.07l-1.04-.22a.43.42 89.1 0 0-.5.52q.09.35-.18.68a.48.48 0 0 1-.53.15l-2.81-1.02a1.46 1.45-74 0 0-1.92 1.07l-1.25 5.89a.7.7 0 0 1-1.38-.04q-.58-3.61-1.61-4.31z"/></g><ellipse cx="0" cy="0" transform="matrix(-.151261 -.988494 .988494 -.151261 311.38 163.48)" rx="1.68" ry=".6" class="C"/><path d="M191.05 176.88a.21.21 0 0 1-.29-.06l-.07-.11a8.34.63 57.3 0 1-3.98-7.36l.17-.11a8.34.63 57.3 0 1 5.04 6.68l.07.11a.21.21 0 0 1-.07.29l-.87.56zM61 175.83q-7.65 1.24-15.8-3.52l15.8 3.52z" class="B"/><ellipse cx="0" cy="0" transform="matrix(-.273959 -.961741 .961741 -.273959 312.54 173.62)" rx="1.53" ry=".55" class="C"/><ellipse cx="0" cy="0" transform="matrix(.197657 -.980271 .980271 .197657 95.33 178.83)" rx="4.06" ry="1.53" class="B"/><path d="M301.68 187.58a.56.54 30.7 0 1 1.04-.25q.25.45.16 1.91a.27.27 0 0 1-.49.15q-.69-.93-.71-1.81z" class="C"/><g class="B"><path d="M385.45 196.07l-17.25 10.31a1.75 1.66-80.3 0 0-.28.21c-2.97 2.77-5.57 5.51-10.08 5.01q.59-.39.54-.62a1.08.96-17.2 0 0-1.39-.63q-3.45 1.3-5.22 3.4a1.04 1.03-67.3 0 1-.89.37q-1.12-.1-1.82.2-7.56 3.22-12.86 6.76c-1.97 1.32-4.05 1.25-6.18 3.01a.341.341 0 0 0 .36.58q2.76-1.23 3.44-1.02a.25.25 0 0 1 .04.46q-1.88.99-5.31 1.75a.33.33 0 0 1-.33-.54l2.53-3.09a.39.39 0 0 0-.42-.62l-4.69 1.51a.79.79 0 0 1-.9-1.18q1.11-1.74 3.18-3.07a.43.43 0 0 0 .01-.71q-1.46-.98-2.7-.43a.23.23 0 0 1-.29-.33q.24-.4 1.99-.26a.61.6 10.6 0 0 .63-.43q.06-.24-.56-.94a.56.56 0 0 1-.09-.6q.37-.78.74-.2a.27.27 0 0 1 .04.22l-.07.36a.52.52 0 0 0 .46.62q1.84.2 2.8-.33 6.38-3.53 10.12-5.12c3.65-1.55 7.59-4.15 10.98-4.89q.94-.21 1.91-.94 1.03-.79 1.73-.5a.18.18 0 0 0 .22-.27q-1.26-1.9 1.14-3.37 2.45-1.51 4.77-1.05.75.14 2.96-1.01c2.27-1.2 4.31-.92 6.34-2.54 2.32-1.86 5.21-1.95 7.96-3.04a3.15 3.08-73.9 0 0 .83-.47q4.28-3.34 9.93-4.53a.47.47 0 0 1 .32.87l-21.05 11.38a4.47 3.73-64.2 0 1-.53.24l-3.83 1.45a.471.471 0 0 0 .28.9l3.58-.81a1.67 1.5 21.5 0 0 .43-.16q3.72-1.98 6.3-2.81a5.06 4.9 19.4 0 0 1.13-.52l4.17-2.59a1.49 1.46 30.1 0 1 .83-.21l4.05.22zm-255.35 2.44q-.22-.13-.41-.74-.09-.31.29-.29.51.03.63.52a.43.35-84.6 0 1-.51.51z"/><ellipse cx="0" cy="0" transform="matrix(-.043619 -.999048 .999048 -.043619 133.83 200.24)" rx="2.46" ry="1.29"/></g><path d="M243.56 200.96l.41-1.94a.49.49 0 0 1 .93-.08q.58 1.46-.81 2.38a.35.34-10.5 0 1-.53-.36z" class="C"/><path d="M304.16 246.88c-1.79.65-3.47.3-5.04.82-3.43 1.12-5.94 1.62-8.05 4.8a1.05 1.04 61.4 0 0-.18.62l.2 6.73a.51.51 0 0 0 .15.36l.69.74a.38.38 0 0 1-.32.64c-2.77-.28-5.23-.9-7.47-.89q-1.43.01-15.39.02c-2.63 0-4.56-.49-6.84-1.02a3.59 3.58-56.9 0 0-2.97.63q-6.57 4.97-10.68 11.27c-1.86-.34-4.06 1.34-5.42 2.44a.75.75 0 0 1-1.2-.41l-.61-2.72a.45.42 43.2 0 1-.01-.16q.09-.42.6-.44a.38.38 0 0 1 .37.24q.52 1.42 1.55.75 4.57-2.97 6.18-3.22a.55.52-73 0 0 .32-.18l.84-1.03a.63.63 0 0 0-.61-1.01q-1.24.26-1.39-1.22a.59.59 0 0 0-.6-.54q-2.1.06-3.17 1.5a1.31 1.3-78.3 0 1-.73.48l-1.94.44a.47.39-66.3 0 0-.22.11l-3.39 3.18a.3.28-57.9 0 1-.27.07q-.25-.06-.53.1-.2.11-.28.29-.37.76.26 1.28a.26.26 0 0 1-.13.46l-.73.09a.26.26 0 0 1-.29-.28q.01-.06-.24-.96a.87.82-45.1 0 0-1.61.05q-.26.76-1.25 1.13a1.13 1.09-44 0 1-.79 0q-1.72-.69-2.91.3a1.79 1.75-69.2 0 1-.84.39q-1.13.19-2.04-2.17a1.15 1.14 69.8 0 0-1.46-.68q-3.32 1.19-4.48-1.51a.13.12-41 0 0-.22-.01q-.04.07.1.25a.09.08-8.6 0 1-.1.13q-7.27-2.27-11.13-2.44-9.22-.39-11.14-.57c-6.03-.57-5.94-3.45-3.73-8.13a3.89 3.54 81.6 0 1 .57-.85c2.04-2.25 3.82-4.89 2.21-7.61a.34.34 0 0 0-.58 0q-.01.03-.02.37a.12.12 0 0 1-.23.04q-.85-2.05-3.11-3.88a.52.51-40.6 0 1 .07-.85q.41-.24.08-.79a.6.58 76.7 0 1 .54-.9q2.64.21 4.2-.46a.94.93 56.6 0 1 1.05.22l4.35 4.65a2.21 2.21 0 0 0 2.52.5q2.14-.95 4.17-2.89a.39.39 0 0 0-.37-.66q-1.78.47-3.75 1.94a.92.92 0 0 1-1.22-.11l-6.5-6.95a.88.87-27.8 0 0-.83-.25l-1.37.31a.23.22-28.4 0 1-.19-.05l-.46-.37a.27.27 0 0 1 .07-.46l6.1-2.59a1.42 1.41-32.8 0 1 1.58.34l4.36 4.66a3.41 3.41 0 0 0 2.49 1.08h.88a.47.46 25.8 0 1 .29.83q-.2.16-.78.52a.3.3 0 0 0 .14.56q.21.01.43-.28.04-.05.47-.15 1.05-.23 3.76-.13a.93.85-53.4 0 0 .41-.08l19.1-8.1a.68.68 0 0 1 .93.75q-.23 1.23 1.16.99a1.3 1.3 0 0 0 .53-.22q3.83-2.63 8.46-3.74a.43.3-55.3 0 0 .08-.03l6.01-3.85a.79.79 0 0 1 1.22.67v.25a.02.02 0 0 0 .04 0q.01-.18.05-.71a.09.09 0 0 1 .07-.07q.14-.01.21.03a.66.66 0 0 0 .74-.06q3.05-2.39 10.46-5.06 1.88-.68 2.31-.52a.94.94 0 0 0 .64-.16l7.2-4.9a.48.48 0 0 1 .66.69l-1.38 1.81a1.86 1.57-83.5 0 1-.36.34l-7.3 5.04a.28.26-29.6 0 0-.1.33l.14.34a.5.5 0 0 0 .73.23l3-1.86a1.7 1.05-58.3 0 1 .26-.13q3.93-1.48 5.24-3.91 1.7-3.13 3.56-4.12a.03.02-58.3 0 1 .02-.01l22.64-9.6a.44.1-31.7 0 1 .09-.03q2.42-.59 4.96-2.49.13-.09 3.23-1.15a.96.94 54.3 0 1 .92.16l.23.2a.45.44 49 0 0 .5.04l4.28-2.31a.46.46 0 0 1 .62.62q-.37.69-.47 1.64a1.49 1.48-16.5 0 1-.53.97q-2.4 1.91-4.18 2.68a1.63 1.62-80.1 0 0-.51.36l-5.03 5.29a.79.78-47.8 0 0 .05 1.12q.21.17.22.19a1.66 1.65 53.8 0 1-.37 2.41q-4.14 2.76-6.31 5.39a.22.22 0 0 0 .2.36l2.67-.39a1.25 1.21 18.2 0 0 .64-.31q1.73-1.6 3.2-1.81c1.65-.25 2.61-1.53 4.31-1.29a.94.93 23.4 0 0 .85-.33q1.21-1.44 3.27-1.15a.66.6-52.3 0 0 .39-.07l7.47-3.82a.36.36 0 0 1 .52.37q-.98 6.59-8.62 6.03a.66.65 5.4 0 0-.71.58q-.05.42.56.85a.41.4-35.9 0 0 .35.05l4.75-1.53a.52.52 0 0 1 .52.87c-3.21 3.15-6.41 5.59-11.1 7.5q-8.66 3.53-17.6 8.56a.89.89 0 0 0-.3 1.29l.15.22a.71.71 0 0 0 1.02.15q5.17-4.11 11.57-5.26a.59.59 0 0 1 .46 1.05q-4.16 3.1-9.93 5.87-2.76 1.32-4.97 3.7a.51.51 0 0 0 .65.78q5.07-3.21 10.62-4.96a.81.81 0 0 1 1.04.91q-.53 3.05 1.81 5.84zm-172.25-40.79a.29.29 0 0 1 .09-.4l.21-.12a4.77 1.08-32 0 1 4.62-1.62l.06.11a4.77 1.08-32 0 1-3.47 3.44l-.21.13a.29.29 0 0 1-.4-.09l-.9-1.45zm7.94 3.47a.23.23 0 0 1 .28.16l.09.32a2.52 1.34-14.4 0 1-2.11 1.93l-1.13.28a2.52 1.34-14.4 0 1-2.77-.67l-.08-.32a.23.23 0 0 1 .16-.28l5.56-1.42z" class="B"/><path d="M246.11 209.72q1.07.4.49 1.99a.56.56 0 0 1-1.08-.2v-1.38a.44.44 0 0 1 .59-.41zm-4.88 1.83q.93.74.77 2.2a.37.37 0 0 1-.73.05l-.45-2a.26.25 13.3 0 1 .41-.25z" class="C"/><g class="B"><ellipse cx="0" cy="0" transform="matrix(-.137445 -.990509 .990509 -.137445 163.6 216.79)" rx=".53" ry=".4"/><rect x="-.89" y="-3.37" transform="matrix(.978509 -.206204 .206204 .978509 236.44 220.54)" width="1.78" height="6.74" rx=".85"/><path d="M234.08 226.56a.02.02 0 0 1-.01.03l-.05.01a3.7 2.01 80.8 0 1-2.58-3.34l-.06-.35a3.7 2.01 80.8 0 1 1.4-3.98h.05a.02.02 0 0 1 .02.01l1.23 7.62zm-123.04-5.06q1.63 1.45 2.09 2.03a1.45 1.38 65 0 1-.77 2.3q-2.25.41-2.37-1.58-.15-2.39.16-2.71a.64.64 0 0 1 .89-.04zm229.1 2.72l-11.47 9.2q.94-2.76.69-4.43a1 .99 57.3 0 1 .15-.7q.33-.54 1.14-.4.53.09 1.18-.14 2.12-.74 4.95-2.97 1.6-1.26 3.36-.56z"/><rect x="-.87" y="-3.42" transform="matrix(.970716 -.240228 .240228 .970716 216.45 229.99)" width="1.74" height="6.84" rx=".83"/><path d="M327.89 228.6q.18.34-.52 2.33-.58 1.66-2.39.77a1.28 1.21-49.1 0 1-.1-2.13q.53-.38 2.26-1.22a.57.56 63.2 0 1 .75.25zm-248.41 1.13c1.76 4.08 2.96 6.79 2.8 10.68q-2.08-.87-3.65-2.63a1.21 1.21 0 0 0-.89-.39h-.63a.71.7-17.3 0 1-.58-.3c-.9-1.26-3.34-.67-4.78-.9a.45.44-65.8 0 1-.27-.72l.63-.77a1.45 1.4-79 0 1 .61-.43q3.95-1.41 6.76-4.54z"/></g><ellipse cx="0" cy="0" transform="matrix(-.236838 -.971549 .971549 -.236838 126.42 236.09)" rx="3.62" ry="1.06" class="C"/><g class="B"><path d="M308.63 243.71a.61.61 0 0 1-1.06-.43q.11-2.2 1.12-3.34a1.35 1.32-23.9 0 0 .34-.86q.04-2.73 3.01-5.53a.22.22 0 0 1 .36.21q-.95 3.65-2.67 5.58a1.09 1.07-33 0 0-.23 1.04q.52 1.77-.87 3.33zm-100.65-7.43a.41.41 0 0 1-.47.34l-.09-.01a2.27 1.37 8.7 0 1-2.04-1.7l.03-.22a2.27 1.37 8.7 0 1 2.45-1.01l.1.02a.41.41 0 0 1 .35.46l-.33 2.12z"/><rect x="-2.35" y="-.72" transform="matrix(.834848 -.550481 .550481 .834848 320.78 235.85)" width="4.7" height="1.44" rx=".53"/><path d="M208 237.93a.14.14 0 0 1 .1-.17l.23-.05a4.29 1.33-12.9 0 1 4.48.34l.02.12a4.29 1.33-12.9 0 1-3.88 2.25l-.22.05a.14.14 0 0 1-.17-.1l-.56-2.44zm109.19 2.84l-3.97 1.84q-1.22-.78-1.64-3.72a1.2 1.2 0 0 1 2.18-.85q1.19 1.74 3.43 2.73z"/><ellipse cx="0" cy="0" transform="matrix(.159881 -.987136 .987136 .159881 303.76 242.58)" rx="1.55" ry="1.07"/><path d="M184.57 243.2a.24.24 0 0 1 .31.27l-.17.97a.39.36-11.1 0 1-.19.26l-9.05 4.89a.97.97 0 0 1-1.42-.71l-.04-.25a2.09 2.09 0 0 1 1.39-2.42l9.17-3.01zm-8.63 9.04q-.67-1.91 1.51-2.52 6.32-1.77 8.53-2.61.67-.25 1.07-.22.68.07.93-.37a.99.91 37.1 0 1 1.47-.14q2.42 2.23 3.55 4.38a2 2 0 0 1-1.07 2.8l-9.08 3.43a.6.49 24.3 0 1-.15.04q-3.87.54-8.39 2.87a1.58 1.58 0 0 1-1.95-.43l-3.89-4.9a2.45 2.3 18.4 0 1-.39-.72l-.46-1.46a.85.85 0 0 0-1.38-.36q-1.04.96-2.22 1.17a.57.57 0 0 1-.54-.93q1.61-1.9 4.19-2.13a1.82 1.75 20.2 0 0 1.02-.45q.56-.5 2.28-.99a1.11 1.1-29.2 0 1 1.12.31l3.32 3.55a.32.32 0 0 0 .53-.32z"/><ellipse cx="0" cy="0" transform="matrix(-.700909 -.71325 .71325 -.700909 167.48 258.3)" rx="4.51" ry="1.11"/><ellipse cx="0" cy="0" transform="matrix(.848972 -.528438 .528438 .848972 159.56 259.93)" rx="4.82" ry="1.59"/></g><path d="M138.93 264.53q.01.01-.3.42a1.67 1.64-29.1 0 0-.32 1.09q.31 5.07-.35 9.92-.41 3.06-2.67 4.73a.262.262 0 0 1-.36-.38c1.52-1.84 2.36-3.85 2.45-6.5q.25-7.25.21-8.71a.78.78 0 0 1 1.34-.57zm7.48 7.67l-.22-.24a1.23 1.22-49.3 0 1-.11-1.49l1.87-2.87a1.7 1.65 2.6 0 1 .63-.56q1.17-.58 1.53 1.13a.65.64 72.3 0 1-.37.73q-1.75.76-2.46 3.08a.52.52 0 0 1-.87.22z" class="C"/><ellipse cx="0" cy="0" transform="matrix(.017452 -.999848 .999848 .017452 238.48 273.54)" rx="1.35" ry="1.16" class="B"/><g class="C"><path d="M147.21 293.04a.34.33 0 0 1-.34.33h-.35a.13.12 0 0 1-.13-.12q-.13-4.12 2.23-7.03a1.22 1.2 56.3 0 0 .21-1.1q-.2-.69-1.07-1.09a.56.56 0 0 1-.28-.7l.01-.03a.37.37 0 0 1 .53-.18q2.25 1.35 1.14 3.24-1.9 3.24-1.95 6.68zm-23.69 43.28q-8.91 4.77-17.72 9.62c-4.36 2.4-8.72 5.53-12.1 7.62-2.24 1.39-4.68 3.78-6.2 5.45q-2.67 2.94.3 5.99H67.88l-.86-.49a.21.21 0 0 1 .1-.39q3.31-.11 2.95-1.97l.58 1.74a.63.63 0 0 0 .71.42q5.95-1.09 6.25-6.38a1.9 1.89 77.7 0 1 1-1.57l10.57-5.71a1.63 1.63 0 0 0 .85-1.48v-.29a1.01 1-13.7 0 0-1.43-.87c-5.79 2.74-11.88 4.51-13.12 9.63a.91.91 0 0 1-1.76.01l-.29-1.08a.7.7 0 0 0-1.14-.36q-1.39 1.19-3.43.9l-.03-2.46a.77.77 0 0 0-.34-.64c-.88-.63-.73-2.55-1.14-3.93q-3.05-10.3-4.01-17.54-.13-.98.5-2.22 1.66.39 1.74 1.21a.53.53 0 0 0 .9.34q13.04-12.61 24.95-23.19c3.42-3.03 9.08-8.39 13.67-13.12q2.69-2.77 5.5-4.92a.72.71 83.6 0 1 1.08.87l-.52 1.14a.62.46-36.7 0 0-.03.1q0 1.82-.74 3.61a.56.56 0 0 0 .77.71q1.99-1.01 3.02-1.08a.69.69 0 0 1 .33 1.32l-14.01 6.12a1.55 1.48-73 0 0-.32.18l-3.93 2.84a.83.79-17.7 0 0-.35.64q-.03.61.27 1.48.35.98-.02 1.37-.33.36-.48.57a.4.4 0 0 0 .45.61l2.75-.88a1.1 1.09-26.1 0 1 1.24.42l.18.25a.56.56 0 0 1-.27.84q-6.26 2.3-13.38 5.84c-1.92.96-3.11 2.55-4.85 3.57a.63.63 0 0 0-.23.87q.74 1.28.44 2.33a.44.43 1.5 0 0 .52.54q1.36-.33 2.65-.07a.91.91 0 0 1 0 1.79c-1.34.25-3.02.35-4.18 1.53q-1.51 1.53-3.73 2.11a2.78 2.77-10.1 0 0-2.06 2.94q.26 2.86.65 5.16a1.44 1.21-88.8 0 1-1.48 1.69q-.13-.04-.56.09a.73.72 73.5 0 0-.48.89q.47 1.7 0 3.5a.46.46 0 0 0 .71.49q2.14-1.47 2.93-1.14a.62.62 0 0 1 .34.79q-.67 1.81-2.61 2.37a.7.7 0 0 0-.36 1.09q.9 1.21.24 2.87a.35.35 0 0 0 .47.45l12.47-5.65a3.73 3.6-61.2 0 1 .87-.27l1.58-.28a1.06.99-62.9 0 0 .36-.13c3.8-2.1 7.53-4.46 8.82-4.49a1.68 1.64-62.2 0 0 .9-.29l3.2-2.21a.47.47 0 0 1 .72.52q-.47 1.66-2.68 2.45a.78.77-16.1 0 0-.5.9q.37 1.57-.21 3.4a.51.51 0 0 0 .67.63q2.53-.93 2.09-3.5a.28.28 0 0 1 .25-.32h.01a.29.29 0 0 1 .32.3l-.08 1.42a.83.83 0 0 0 1.19.79l5.66-2.72a.22.21-79.3 0 0 .1-.07q1.32-1.27 3.35-1.77 1.15-.29 2.46-1.77a1.72 1.69 13.2 0 1 .87-.53l6.05-1.54zm-4.68-41.05q-.17-.04-.28-.54a.78.69-1.8 0 1 .88-.83q.58.07.41.63a1.03.82-74.8 0 1-1.01.74z"/><ellipse cx="0" cy="0" transform="matrix(.069756 -.997564 .997564 .069756 146.61 296.32)" rx="1.45" ry=".52"/><ellipse cx="0" cy="0" transform="matrix(.047106 -.99889 .99889 .047106 114.93 304.49)" rx="1.04" ry=".75"/><ellipse cx="0" cy="0" transform="matrix(.478692 -.877983 .877983 .478692 129.77 304.89)" rx=".95" ry=".6"/><ellipse cx="0" cy="0" transform="matrix(.593419 -.804894 .804894 .593419 139.65 307.34)" rx=".79" ry=".68"/><ellipse cx="0" cy="0" transform="matrix(.5 -.866025 .866025 .5 120.47 309.31)" rx=".94" ry=".59"/><ellipse cx="0" cy="0" transform="matrix(.45865 -.888617 .888617 .45865 134.95 309.73)" rx="1.17" ry=".71"/><path d="M115.16 310.84a.54.39 50.7 0 1 .79.21q.24.46-.07 1a.52.51-34.9 0 1-.96-.16q-.08-.5.24-1.05z"/><ellipse cx="0" cy="0" transform="matrix(.211325 -.977416 .977416 .211325 140.1 314.11)" rx="1.14" ry=".79"/><ellipse cx="0" cy="0" transform="matrix(.700909 -.71325 .71325 .700909 125.68 314.13)" rx=".74" ry=".6"/><ellipse cx="0" cy="0" transform="matrix(.432086 -.901833 .901833 .432086 105.54 316.15)" rx=".93" ry=".7"/><ellipse cx="0" cy="0" transform="matrix(.572146 -.820152 .820152 .572146 120.92 316.33)" rx=".88" ry=".64"/><ellipse cx="0" cy="0" transform="matrix(.206204 -.978509 .978509 .206204 135.4 316.38)" rx=".69" ry=".6"/><path d="M131.43 318.66q-.13.69-.75.7a.49.49 0 0 1-.48-.35q-.22-.75-.09-1.01a.8.68 67.1 0 1 1.32.66z"/><ellipse cx="0" cy="0" transform="matrix(-.698415 -.715693 .715693 -.698415 116.09 318.46)" rx=".78" ry=".66"/><circle cx="126.32" cy="320.59" r=".69"/><path d="M112.16 320.82q-.18.58-.68.91a.44.43 67 0 1-.66-.27l-.14-.65a.39.14 64.3 0 1-.01-.09q-.04-.79 1.08-.57a.53.53 0 0 1 .41.67zm9.43 2.94a.73.51-81.2 0 1-.54-1.09q.64-1.11 1.23-.45a.44.42-55.3 0 1 .07.43q-.36.89-.76 1.11z"/><ellipse cx="0" cy="0" transform="matrix(.683274 -.730162 .730162 .683274 121.88 329.78)" rx=".9" ry=".5"/><ellipse cx="0" cy="0" transform="matrix(.384295 -.92321 .92321 .384295 102.11 332.36)" rx="1.1" ry=".76"/></g><path d="M70.07 362.15q.12-2.64-1.21-5.04 2.04.29 3.43-.9a.7.7 0 0 1 1.14.36l.29 1.08a.91.91 0 0 0 1.76-.01c1.24-5.12 7.33-6.89 13.12-9.63a1.01 1-13.7 0 1 1.43.87v.29a1.63 1.63 0 0 1-.85 1.48l-10.57 5.71a1.9 1.89 77.7 0 0-1 1.57q-.3 5.29-6.25 6.38a.63.63 0 0 1-.71-.42l-.58-1.74z" class="B"/></svg>