<?xml version="1.0" encoding="UTF-8" standalone="no"?>
<!-- Created with Inkscape (http://www.inkscape.org/) -->

<svg
   version="1.1"
   id="svg1"
   width="136.87637"
   height="62.75906"
   viewBox="0 0 136.87638 62.759061"
   sodipodi:docname="Sentinal-icon.svg"
   inkscape:version="1.4 (e7c3feb1, 2024-10-09)"
   xmlns:inkscape="http://www.inkscape.org/namespaces/inkscape"
   xmlns:sodipodi="http://sodipodi.sourceforge.net/DTD/sodipodi-0.dtd"
   xmlns="http://www.w3.org/2000/svg"
   xmlns:svg="http://www.w3.org/2000/svg"
   xmlns:rdf="http://www.w3.org/1999/02/22-rdf-syntax-ns#"
   xmlns:cc="http://creativecommons.org/ns#"
   xmlns:dc="http://purl.org/dc/elements/1.1/">
  <sodipodi:namedview
     id="namedview1"
     pagecolor="#ffffff"
     bordercolor="#000000"
     borderopacity="0.25"
     inkscape:showpageshadow="2"
     inkscape:pageopacity="0.0"
     inkscape:pagecheckerboard="0"
     inkscape:deskcolor="#d1d1d1"
     inkscape:zoom="2.2278277"
     inkscape:cx="75.409782"
     inkscape:cy="67.554596"
     inkscape:window-width="1104"
     inkscape:window-height="728"
     inkscape:window-x="0"
     inkscape:window-y="25"
     inkscape:window-maximized="0"
     inkscape:current-layer="svg1" />
  <title
     id="title1">Sentinel-1 Icon</title>
  <defs
     id="defs1" />
  <g
     id="g1"
     transform="translate(-13.762302,-17.999356)">
    <path
       style="fill:currentColor"
       d="m 125.30415,79.804008 c -5.36891,-1.0577 -5.41971,-1.061428 -5.86189,-0.430125 -0.24533,0.350252 -0.58651,0.550016 -0.75818,0.44392 -0.17166,-0.106096 -0.52011,-0.02029 -0.77431,0.190686 -0.36697,0.304555 -0.50179,0.280423 -0.65434,-0.117127 -0.29403,-0.766217 0.11898,-1.167606 1.24345,-1.208484 0.62463,-0.02271 0.77261,-0.09058 0.38112,-0.174803 -0.352,-0.07573 -4.888,-1.008025 -10.08,-2.071778 -5.192,-1.063753 -9.488002,-2.065092 -9.546669,-2.225197 -0.05867,-0.160106 -0.778667,-0.294537 -1.6,-0.298736 -0.821333,-0.0042 -2.069333,-0.156681 -2.773333,-0.33885 -0.704,-0.182169 -2.504,-0.546785 -4,-0.810259 -3.528109,-0.621367 -3.870661,-0.747178 -3.04,-1.116514 0.44864,-0.199478 0.257281,-0.232873 -0.64,-0.11169 -0.719761,0.09721 -2.750628,-0.112934 -4.64,-0.480122 -3.857673,-0.749714 -3.838769,-0.747735 -3.2,-0.334931 0.37404,0.241724 0.28574,0.311282 -0.4,0.3151 -0.865414,0.0048 -1.220172,-0.468375 -0.524896,-0.700134 0.195306,-0.0651 -0.740694,-0.302494 -2.08,-0.527537 -2.353433,-0.395447 -3.038463,-0.800573 -1.875104,-1.108936 0.308,-0.08164 -0.118842,-0.07333 -0.948538,0.01846 -1.595598,0.176528 -7.291461,-0.771177 -7.291461,-1.213188 0,-0.141261 0.252,-0.323634 0.56,-0.405273 0.308,-0.08164 -0.115899,-0.07373 -0.941998,0.01757 -1.517524,0.167715 -7.547422,-0.730033 -8.049995,-1.198505 -0.25192,-0.234827 0.934317,-0.654323 4.607883,-1.629515 1.363196,-0.361876 2.142503,-0.233868 12.24,2.010534 9.808203,2.180099 10.784109,2.343824 10.784109,1.809223 0,-0.601854 0.471525,-0.799278 0.767026,-0.321148 0.09064,0.146655 0.603136,0.202311 1.138885,0.12368 0.850064,-0.124763 0.974713,-0.04667 0.978989,0.613354 0.0077,1.191111 0.371354,1.469118 1.9151,1.464123 0.792,-0.0026 3.98945,0.570055 7.105444,1.272483 4.470888,1.007857 5.699868,1.187435 5.828708,0.851689 0.10249,-0.267102 -0.16007,-0.499394 -0.70545,-0.624119 -0.47778,-0.109267 -1.8767,-0.443361 -3.108702,-0.74243 l -2.24,-0.543763 -0.09243,-2.973061 c -0.05589,-1.797671 0.04427,-3.137782 0.253356,-3.389713 0.249992,-0.301221 0.241673,-0.451358 -0.03003,-0.541925 -0.390583,-0.130194 -0.119867,-1.548952 0.290671,-1.523334 0.393624,0.02456 2.618435,3.114594 2.618435,3.636733 0,0.2803 -0.251999,0.514015 -0.559999,0.519367 -0.521596,0.0091 -0.520263,0.03285 0.01944,0.346778 1.747359,1.016404 1.706099,-0.932227 -0.06337,-2.993095 -0.643848,-0.749877 -1.553351,-1.88069 -2.021117,-2.512917 l -0.850485,-1.149503 0.857769,-0.917849 c 0.471774,-0.504817 0.558431,-0.671541 0.192573,-0.370497 -0.928802,0.764258 -1.351845,0.682276 -1.177789,-0.228243 0.12578,-0.657973 0.0099,-0.791428 -0.764375,-0.88 l -0.912639,-0.104404 -0.09393,-2.700981 c -0.0932,-2.680166 -0.08635,-2.706907 0.88885,-3.470119 0.876517,-0.685977 0.960138,-0.895628 0.773395,-1.939019 -0.11516,-0.643435 -0.386751,-1.385881 -0.603537,-1.649881 -0.443528,-0.540127 -1.191176,-2.600272 -1.009571,-2.781877 0.06495,-0.06495 0.364866,0.258522 0.666474,0.718834 0.489006,0.746316 0.606298,0.786553 1.083347,0.371637 0.294233,-0.25591 2.334969,-1.051529 4.534974,-1.768041 3.65576,-1.190636 4.22807,-1.291432 6.65018,-1.171243 3.20222,0.1589 4.90121,0.581384 5.64555,1.403873 0.53267,0.588597 0.52615,0.632586 -0.14709,0.992894 -0.60269,0.322554 -0.67905,0.566345 -0.52864,1.687783 0.0967,0.720925 0.0271,1.58873 -0.15476,1.928456 -0.50893,0.950953 0.24135,2.082085 1.45978,2.200767 l 0.99498,0.09692 0.0934,2.671014 c 0.10019,2.863841 -0.21936,3.724495 -1.2602,3.394146 -0.76247,-0.241999 -1.12064,0.60904 -0.65505,1.556427 0.18878,0.384127 0.43512,2.570413 0.54741,4.858413 0.24792,5.051545 0.85093,6.766015 2.39517,6.809921 1.14071,0.03243 1.59923,0.279153 1.59923,0.860518 0,0.535278 -1.80346,2.08956 -2.42455,2.08956 -0.2505,0 -0.45545,0.198368 -0.45545,0.440818 0,0.542729 0.78104,1.231477 1.06944,0.943073 0.11581,-0.115807 0.21056,-0.03981 0.21056,0.168873 0,0.250632 0.28776,0.307206 0.84773,0.166663 0.61138,-0.153447 0.78234,-0.106963 0.61318,0.16673 -0.16847,0.2726 -0.002,0.321043 0.59227,0.171979 0.53795,-0.135016 0.82682,-0.07606 0.82682,0.168738 0,0.23063 0.2477,0.297637 0.64,0.173126 0.37192,-0.118044 0.64,-0.0575 0.64,0.144533 0,0.211048 0.31436,0.268762 0.8,0.146873 0.45968,-0.115372 0.8,-0.06265 0.8,0.123945 0,0.178603 0.288,0.249419 0.64,0.157369 0.352,-0.09205 0.64,-0.02005 0.64,0.16 0,0.18005 0.288,0.25205 0.64,0.16 0.352,-0.09205 0.64088,-0.04257 0.64195,0.109958 10e-4,0.152527 0.67958,0.296831 1.50778,0.320675 0.82821,0.02384 1.55963,0.204741 1.62538,0.401994 0.0657,0.197252 0.23578,0.286806 0.37784,0.199007 0.50955,-0.314917 8.86038,1.832048 8.86038,2.277967 0,0.469751 -0.89553,0.659281 -4.05333,0.857846 -1.49531,0.09403 -3.60242,-0.169132 -7.49585,-0.936157 z m -12.83341,-5.519939 c -0.27069,-0.27069 -1.12884,-0.332243 -0.96634,-0.06931 0.0811,0.131217 0.36978,0.238576 0.64152,0.238576 0.27174,0 0.41791,-0.07617 0.32482,-0.169263 z M 109.6,73.599998 c 0.10877,-0.176 -0.0627,-0.321966 -0.38112,-0.324369 -0.31838,-0.0024 -0.90288,-0.0912 -1.29888,-0.197322 -0.4121,-0.110439 -0.72,-0.04924 -0.72,0.143114 0,0.184837 0.396,0.396056 0.88,0.469376 0.484,0.07332 0.9795,0.154885 1.10111,0.181255 0.12162,0.02637 0.31011,-0.09605 0.41889,-0.272054 z m -3.04,-0.64 c 0,-0.176 -0.144,-0.32 -0.32,-0.32 -0.176,0 -0.32,0.144 -0.32,0.32 0,0.176 0.144,0.32 0.32,0.32 0.176,0 0.32,-0.144 0.32,-0.32 z m 1.04639,-0.496032 c 0.75169,-0.288452 0.0732,-2.703968 -0.75948,-2.703968 -0.47202,0 -0.67867,1.508002 -0.30286,2.210195 0.39567,0.739324 0.40778,0.744951 1.06234,0.493773 z M 89.833331,71.166665 c -0.106333,-0.106333 -0.382333,-0.117702 -0.613333,-0.02526 -0.255274,0.102152 -0.179448,0.177978 0.193333,0.193333 0.337334,0.0139 0.526334,-0.06174 0.42,-0.16807 z m -21.439999,-4.48 c -0.106334,-0.106333 -0.382334,-0.117702 -0.613334,-0.02526 -0.255274,0.102152 -0.179448,0.177978 0.193334,0.193333 0.337333,0.01389 0.526333,-0.06174 0.42,-0.16807 z m 1.28,-0.32 c -0.106334,-0.106333 -0.382334,-0.117702 -0.613334,-0.02526 -0.255274,0.102152 -0.179448,0.177979 0.193334,0.193333 0.337333,0.0139 0.526333,-0.06174 0.42,-0.16807 z m 39.383918,-3.474772 c 1.2732,-1.201183 1.20933,-1.462122 -0.49725,-2.031574 l -1.04,-0.347028 v 1.743354 c 0,0.958844 0.0816,1.743354 0.18136,1.743354 0.0998,0 0.7099,-0.498648 1.35589,-1.108106 z M 109.76,58.879999 c 0,-1.64687 -0.20939,-1.63637 -1.55653,0.07806 -0.38341,0.487941 -0.34447,0.592404 0.32,0.85846 1.17653,0.471087 1.23653,0.425644 1.23653,-0.936516 z m 2.45002,-0.596531 c 0.11129,-0.758233 -0.49259,-1.963469 -0.98378,-1.963469 -0.35477,0 -0.46649,0.410777 -0.45691,1.68 0.007,0.924 0.0858,1.798576 0.17509,1.943502 0.1845,0.299364 1.1672,-0.989598 1.2656,-1.660033 z M 112.32,51.519999 c 0,-0.176 -0.0635,-0.32 -0.14112,-0.32 -0.0776,0 -0.23011,0.144 -0.33888,0.32 -0.10878,0.176 -0.0453,0.32 0.14111,0.32 0.18639,0 0.33889,-0.144 0.33889,-0.32 z m -3.15465,-2.237088 c 0.50306,-0.526398 0.91465,-1.099654 0.91465,-1.273903 0,-0.401375 -1.44581,-0.776649 -2.06975,-0.537222 -0.92211,0.353848 -1.0398,2.768213 -0.13494,2.768213 0.20647,0 0.78699,-0.430689 1.29004,-0.957088 z m -1.57174,-3.922912 c -0.17861,-0.22 -0.39553,-0.688 -0.48206,-1.04 -0.12314,-0.500964 -0.16538,-0.454618 -0.19443,0.213333 -0.0313,0.719045 0.2198,1.061024 0.88206,1.201404 0.0655,0.0139 -0.027,-0.154737 -0.20557,-0.374737 z M 104.16,76.159998 c -0.10878,-0.176 0.0267,-0.32 0.30111,-0.32 0.27439,0 0.49889,0.144 0.49889,0.32 0,0.176 -0.1355,0.32 -0.30112,0.32 -0.16561,0 -0.39011,-0.144 -0.49888,-0.32 z m 44.42656,-4.417879 c -0.73339,-0.298166 -1.40961,-0.618341 -1.50271,-0.7115 -0.17431,-0.17441 -3.38971,-10.671287 -3.29612,-10.76038 0.0288,-0.02737 0.93213,0.350612 2.00753,0.839955 1.38988,0.632448 2.01405,1.109487 2.1586,1.64976 0.11184,0.418025 0.83787,2.740045 1.6134,5.160044 1.56088,4.870651 1.56442,4.856861 -0.9807,3.822121 z m -4.41576,-1.49487 -1.90921,-0.718719 -1.65085,-5.653151 c -1.85294,-6.345207 -1.93121,-6.056929 1.21519,-4.475676 1.44116,0.724267 1.5351,0.856682 2.18407,3.078557 0.37298,1.276956 1.09931,3.65546 1.61407,5.285565 0.51476,1.630104 0.93593,3.034104 0.93593,3.12 0,0.231 -0.28943,0.153886 -2.3892,-0.636576 z m -4.83739,-1.659923 -2.26659,-0.765053 -1.62704,-5.830844 c -0.89487,-3.206964 -1.58388,-5.874 -1.53113,-5.926746 0.0527,-0.05275 1.12269,0.363215 2.37766,0.924358 2.23381,0.998816 2.2916,1.054631 2.74962,2.655609 0.25731,0.899442 0.97829,3.420558 1.60216,5.602482 0.62387,2.181923 1.09552,3.998208 1.04811,4.03619 -0.0474,0.03798 -1.10617,-0.275216 -2.35279,-0.695996 z m -5.75904,-1.901132 -2.26562,-0.783277 -1.62045,-6.151459 c -0.89124,-3.383303 -1.59971,-6.169086 -1.57437,-6.190631 0.0253,-0.02154 1.21168,0.450999 2.63631,1.050095 l 2.59025,1.089267 0.84152,3.109905 c 0.46284,1.710447 1.19161,4.369905 1.61949,5.909905 0.51715,1.861268 0.65401,2.79153 0.40824,2.774736 -0.20336,-0.01389 -1.38927,-0.377738 -2.63537,-0.808541 z m -6.04735,-2.015985 -2.55298,-0.879635 -1.5307,-6.204263 c -0.84188,-3.412345 -1.49304,-6.311887 -1.44702,-6.443427 0.046,-0.13154 1.30383,0.298938 2.79513,0.956618 3.10968,1.371405 2.56351,0.355411 4.80618,8.940497 0.72772,2.785743 1.0533,4.550242 0.83679,4.534923 -0.19493,-0.01379 -1.50326,-0.420913 -2.9074,-0.904713 z M 67.735839,63.360287 c -2.39652,-0.638521 -2.990039,-0.960288 -1.771309,-0.960288 0.793476,0 4.755468,1.224203 4.755468,1.469377 0,0.218757 -0.701628,0.09906 -2.984159,-0.509089 z M 120.576,60.079999 c -1.91406,-1.98 -3.62584,-3.888 -3.80396,-4.24 -0.17812,-0.352 1.2313,0.988633 3.13205,2.979184 2.84865,2.983239 3.52952,3.545528 3.87487,3.2 0.34534,-0.345532 0.38122,-0.320074 0.2042,0.144891 -0.11812,0.310241 -0.037,0.778241 0.18022,1.04 0.21724,0.261758 0.28197,0.475925 0.14385,0.475925 -0.13812,0 -1.81717,-1.62 -3.73123,-3.6 z m -0.34142,-1.532903 C 118.52156,56.600147 117.12,54.855295 117.12,54.669648 c 0,-0.185647 0.35724,-0.618545 0.79386,-0.961996 0.43663,-0.34345 0.76063,-0.778175 0.72,-0.966054 -0.0406,-0.18788 0.12618,-0.414281 0.37068,-0.503113 0.30906,-0.112291 0.36349,-0.02696 0.17857,0.28 -0.20912,0.34715 -0.13315,0.34118 0.35546,-0.02794 0.94826,-0.716355 0.9847,-0.768026 0.39168,-0.55551 -0.30237,0.108355 -0.63707,0.05573 -0.74379,-0.116943 -0.10672,-0.172674 -0.0753,-0.279792 0.0697,-0.23804 0.14508,0.04175 0.58779,-0.103746 0.98379,-0.32333 0.61253,-0.339652 0.72,-0.323099 0.72,0.1109 0,0.28058 0.14235,0.422167 0.31633,0.314639 0.18195,-0.11245 0.23471,0.0172 0.1242,0.30519 -0.10567,0.275382 0.004,0.742503 0.24367,1.038047 0.3747,0.462013 0.3685,0.498594 -0.0442,0.260918 -0.39092,-0.225128 -0.38462,-0.162291 0.0339,0.338574 0.69587,0.832724 1.95191,5.976548 1.52397,6.24103 -0.206,0.127311 -0.15898,0.367175 0.12827,0.654428 0.2494,0.2494 0.36561,0.703902 0.25823,1.010004 -0.1522,0.433883 -0.8817,-0.223667 -3.30981,-2.983359 z M 80.159998,56.218428 c -2.464,-0.722597 -4.499687,-1.319352 -4.52375,-1.326121 -0.08897,-0.02503 -1.091304,-7.432129 -1.235792,-9.132308 -0.08226,-0.968 -0.279239,-2.624 -0.437721,-3.68 -0.158483,-1.056 -0.250018,-1.962914 -0.203412,-2.015365 0.07997,-0.09 0.964663,0.210348 6.960675,2.363143 2.215268,0.795365 2.480315,0.978043 2.482951,1.711318 0.003,0.822762 1.434806,10.927467 1.782728,12.580904 0.101845,0.484 0.06573,0.864754 -0.08025,0.846121 -0.145984,-0.01863 -2.281426,-0.625094 -4.745426,-1.347692 z m 7.275608,-0.655492 C 87.03719,55.365771 86.776097,55.035369 86.8554,54.828709 c 0.0793,-0.206659 -0.04799,-0.449492 -0.282883,-0.539627 -0.249135,-0.0956 -0.581327,-1.139903 -0.79731,-2.506482 -0.203631,-1.288431 -0.445799,-2.738601 -0.53815,-3.222601 -0.121006,-0.634178 -0.03767,-0.88 0.298333,-0.88 0.256434,0 0.652371,-0.22427 0.87986,-0.498378 0.361353,-0.435403 0.733157,-0.182684 2.94244,2 1.390853,1.374108 2.736441,2.891256 2.990196,3.371441 0.448397,0.848508 0.427494,0.894403 -0.743258,1.631886 -1.361447,0.857606 -3.204421,1.834893 -3.348739,1.77576 -0.05274,-0.02161 -0.421868,-0.200608 -0.820283,-0.397772 z m 29.064674,-1.046134 c -0.0193,-0.649265 1.44335,-1.95984 1.79489,-1.608299 0.0878,0.0878 -0.14881,0.324723 -0.52582,0.526488 -0.377,0.201765 -0.8122,0.681432 -0.96712,1.065927 l -0.28167,0.699081 z M 68.665082,52.842546 c -2.802204,-0.820626 -5.156766,-1.677595 -5.23236,-1.904377 -0.07559,-0.226781 -0.329531,-2.168644 -0.564305,-4.31525 l -0.426862,-3.90292 0.159789,3.2 c 0.08788,1.76 0.232238,3.452 0.320786,3.76 0.08855,0.308 0.0073,0.56 -0.180567,0.56 -0.187861,0 -0.361999,0.324 -0.386974,0.72 -0.02497,0.396 -0.148541,0.144 -0.27459,-0.56 -0.166735,-0.931234 -0.241554,-1.050651 -0.274591,-0.438271 l -0.04541,0.841728 -6.210156,-1.800253 -6.210155,-1.800254 -0.197816,-3.521475 c -0.1088,-1.936811 -0.282722,-4.512166 -0.386494,-5.72301 -0.155032,-1.808964 -0.110814,-2.154645 0.247972,-1.938574 0.341619,0.205733 0.358812,0.16254 0.079,-0.198464 -0.196708,-0.253785 -0.454738,-1.577702 -0.5734,-2.942039 l -0.215749,-2.480612 1.533399,0.598411 c 0.84337,0.329126 3.5854,1.360838 6.0934,2.292692 l 4.56,1.694281 0.05216,1.62792 0.05216,1.62792 0.187841,-1.76 c 0.164017,-1.536782 0.2252,-1.658537 0.482405,-0.96 0.162011,0.44 0.466715,2.24 0.677122,4 0.305748,2.55751 0.386475,2.846631 0.402074,1.44 0.01073,-0.968 -0.09587,-2.552 -0.236903,-3.52 -0.141031,-0.968 -0.229772,-1.792746 -0.197202,-1.83277 0.106463,-0.130826 10.17046,3.694726 10.437046,3.967356 0.142741,0.145978 0.347079,1.345414 0.454084,2.665414 0.192272,2.371863 0.920355,8.634485 1.274192,10.96 0.100422,0.66 0.07288,1.185284 -0.0612,1.167297 -0.13408,-0.01799 -2.536494,-0.704124 -5.338698,-1.52475 z m -7.234226,-9.313404 c -0.22857,-2.822097 -0.483467,-5.0632 -0.566438,-4.980229 -0.08297,0.08297 0.03615,2.459846 0.264723,5.281943 0.22857,2.822097 0.483467,5.0632 0.566438,4.980229 0.08297,-0.08297 -0.03615,-2.459846 -0.264723,-5.281943 z m 2.731408,8.634522 c -0.112109,-0.181395 0.01634,-0.235042 0.301114,-0.125763 0.554374,0.212733 0.655804,0.442098 0.195506,0.442098 -0.165613,0 -0.389092,-0.142351 -0.49662,-0.316335 z M 47.860419,47.279999 c -0.224559,-0.7517 -0.876222,-17.570865 -0.688077,-17.759009 0.103211,-0.103212 0.187657,0.112343 0.187657,0.479009 0,0.366667 0.149067,0.716356 0.33126,0.777087 0.197267,0.06576 0.454269,2.503512 0.635364,6.026667 0.167257,3.253935 0.354037,6.672246 0.415067,7.596246 0.08075,1.222582 -0.0024,1.68 -0.305321,1.68 -0.466623,0 -0.223232,0.969234 0.340289,1.3551 0.205878,0.140973 0.115113,0.237062 -0.226702,0.24 -0.313524,0.0027 -0.623816,-0.1751 -0.689537,-0.3951 z m 37.579579,-0.24 c 0,-0.176 0.144,-0.32 0.32,-0.32 0.176,0 0.32,0.144 0.32,0.32 0,0.176 -0.144,0.32 -0.32,0.32 -0.176,0 -0.32,-0.144 -0.32,-0.32 z M 46.559999,46.421631 c -0.352,-0.141791 -3.556,-1.095859 -7.12,-2.120152 l -6.48,-1.86235 v -5.859565 c 0,-4.468891 0.09493,-5.86198 0.4,-5.869742 0.261801,-0.0067 0.222746,-0.145184 -0.11304,-0.40094 -0.388205,-0.29568 -0.528758,-1.042889 -0.577635,-3.070826 -0.05946,-2.466887 -0.01865,-2.662157 0.51304,-2.454935 0.317699,0.123821 3.502065,1.313982 7.076369,2.644801 l 6.498733,2.419672 -0.06336,2.63455 c -0.03485,1.449002 0.01049,2.761294 0.10075,2.916203 0.181584,0.311641 0.679926,11.333754 0.510967,11.301368 -0.0582,-0.01116 -0.393822,-0.136294 -0.745822,-0.278084 z m -8.8,-14.261632 c 0,-0.264 -0.13948,-0.48 -0.309957,-0.48 -0.170476,0 -0.22707,0.216 -0.125763,0.48 0.101306,0.264 0.240787,0.48 0.309957,0.48 0.06917,0 0.125763,-0.216 0.125763,-0.48 z m -3.2,-0.621114 c 0,-0.07761 -0.144,-0.230112 -0.32,-0.338886 -0.176,-0.108774 -0.32,-0.04527 -0.32,0.141115 0,0.186387 0.144,0.338885 0.32,0.338885 0.176,0 0.32,-0.0635 0.32,-0.141114 z m 0.64,-0.498886 c 0,-0.176 -0.152498,-0.32 -0.338885,-0.32 -0.186387,0 -0.249889,0.144 -0.141115,0.32 0.108774,0.176 0.261273,0.32 0.338886,0.32 0.07761,0 0.141114,-0.144 0.141114,-0.32 z m 4.48,0.178886 c 0,-0.07761 -0.144,-0.230112 -0.32,-0.338886 -0.176,-0.108774 -0.32,-0.04527 -0.32,0.141115 0,0.186387 0.144,0.338885 0.32,0.338885 0.176,0 0.32,-0.0635 0.32,-0.141114 z m -8.589926,1.900861 c -0.07785,-6.685049 -0.0078,-9.439747 0.24,-9.439747 0.192459,0 0.349926,0.36 0.349926,0.8 0,0.44 0.144,0.8 0.32,0.8 0.2048,0 0.32,2.88 0.32,8 0,5.12 -0.1152,8 -0.32,8 -0.176,0 -0.32,0.288 -0.32,0.64 0,0.352 -0.108,0.639886 -0.24,0.639747 -0.132,-1.39e-4 -0.289467,-4.248139 -0.349926,-9.44 z m -4.210074,7.533982 c -1.842774,-0.543851 -3.005328,-1.047777 -2.951961,-1.279571 0.05855,-0.254297 -0.142464,-0.30923 -0.600073,-0.16399 -0.496525,0.157591 -0.620993,0.109796 -0.447042,-0.171662 0.134819,-0.218143 0.04674,-0.510165 -0.19985,-0.662564 -0.295969,-0.182918 -0.512451,-0.09226 -0.658506,0.275777 -0.119672,0.301555 -0.227706,-0.34322 -0.240076,-1.432833 C 21.770121,36.129272 21.616,35.148773 21.44,35.039999 c -0.343626,-0.212372 -0.35622,-0.1456 -0.407404,2.16 -0.02237,1.007841 -0.172399,1.52 -0.445249,1.52 -0.31028,0 -0.334175,-0.203398 -0.09714,-0.826853 0.322682,-0.848719 0.18325,-1.413147 -0.349095,-1.413147 -0.165613,0 -0.303319,0.468 -0.306015,1.04 -0.0034,0.71643 -0.09173,0.902909 -0.283995,0.599371 -0.153503,-0.242346 -0.213476,-1.070346 -0.133275,-1.84 0.118843,-1.140478 0.04919,-1.399371 -0.376475,-1.399371 -0.373104,0 -0.502664,0.251368 -0.453569,0.88 0.128775,1.648884 -0.0104,2.522943 -0.323079,2.029019 -0.157021,-0.24804 -0.21141,-0.64404 -0.120864,-0.88 0.09705,-0.252894 -0.05423,-0.429019 -0.368491,-0.429019 -0.293217,0 -0.462125,0.114876 -0.375351,0.255279 0.08677,0.140403 0.02548,0.464403 -0.136215,0.72 -0.214639,0.339294 -0.295308,0.189124 -0.298885,-0.556393 -0.0027,-0.561613 -0.1489,-1.110112 -0.3249,-1.218886 -0.176,-0.108774 -0.32,0.02673 -0.32,0.301115 0,0.582383 -0.528596,0.6731 -0.712219,0.122229 -0.07023,-0.210677 -0.300344,-0.268629 -0.522205,-0.131511 -0.304455,0.188163 -0.309553,0.350094 -0.02193,0.696656 0.404204,0.487036 0.07665,0.592708 -0.797471,0.257275 C 13.7133,36.713606 13.563506,35.839999 14.08,35.839999 c 0.176,0 0.317795,-0.324 0.3151,-0.72 -0.004,-0.5932 -0.06348,-0.635467 -0.337528,-0.24 -0.237038,0.342059 -0.285555,-0.255688 -0.168829,-2.08 0.09009,-1.408 0.169977,-3.763406 0.177528,-5.234236 0.01234,-2.404698 0.07017,-2.65458 0.573729,-2.479215 0.505407,0.17601 0.509789,0.155716 0.04495,-0.208169 -0.433752,-0.339552 -0.49,-0.923272 -0.356374,-3.69828 0.106828,-2.2185 0.275106,-3.256333 0.515044,-3.176466 0.196006,0.06524 3.84832,1.405116 8.116254,2.977495 l 7.759879,2.858871 1.21e-4,3.28 c 1.07e-4,2.906816 -0.06359,3.281107 -0.55988,3.289731 -0.533333,0.0093 -0.533333,0.02526 0,0.335901 0.497421,0.289721 0.56,0.91443 0.56,5.590269 0,4.011036 -0.09522,5.258257 -0.4,5.239555 -0.22,-0.0135 -1.768,-0.428276 -3.44,-0.921727 z m 0.526149,-1.133955 c 0.02833,-0.491044 -0.1253,-0.799774 -0.397993,-0.799774 -0.371402,0 -0.429871,0.584943 -0.151935,1.52 0.01308,0.044 0.131779,0.0799 0.263779,0.07977 0.132,-1.24e-4 0.260767,-0.360124 0.286149,-0.8 z m -2.286149,-0.799774 c -0.108774,-0.176 -0.34177,-0.32 -0.51777,-0.32 -0.176,0 -0.231004,0.144 -0.12223,0.32 0.108774,0.176 0.341771,0.32 0.517771,0.32 0.176,0 0.231003,-0.144 0.122229,-0.32 z m -0.694329,-1.68 c 0.310786,0.493115 0.854329,0.524953 0.854329,0.05004 0,-0.192477 -0.288,-0.425272 -0.64,-0.517322 -0.352,-0.09205 -0.64,-0.294569 -0.64,-0.450042 0,-0.155473 -0.144,-0.282678 -0.32,-0.282678 -0.370078,0 -0.437926,2.014455 -0.08,2.375271 0.132,0.133065 0.315054,-0.166935 0.406785,-0.666667 0.110806,-0.603641 0.2514,-0.774348 0.418886,-0.508604 z m 4.81005,0.88 c -0.101307,-0.264 -0.384787,-0.48 -0.629957,-0.48 -0.24517,0 -0.445764,-0.159406 -0.445764,-0.354236 0,-0.19483 0.216,-0.27135 0.48,-0.170043 0.264,0.101306 0.48,0.04471 0.48,-0.125764 0,-0.430585 -0.873054,-0.389524 -1.147137,0.05395 -0.125563,0.203166 0.113453,0.624066 0.541115,0.952884 0.934619,0.718606 0.951312,0.721456 0.721743,0.123207 z m -6.328445,-1.319792 c -0.015,-0.652956 -0.191482,-1.241856 -0.39218,-1.308668 -0.243537,-0.08107 -0.336931,0.335838 -0.2808,1.253492 0.100064,1.635893 0.09423,1.616915 0.43298,1.407553 0.147002,-0.09085 0.255002,-0.699422 0.24,-1.352377 z m 3.332724,-0.440208 c 0,-0.352 -0.13505,-0.64 -0.300112,-0.64 -0.165062,0 -0.278418,0.288 -0.251903,0.64 0.02652,0.352 0.161566,0.64 0.300113,0.64 0.138546,0 0.251902,-0.288 0.251902,-0.64 z m -5.886666,-0.873333 c -0.325285,-0.325285 -0.593679,0.164445 -0.32679,0.596282 0.201611,0.326214 0.276985,0.326466 0.385377,0.0013 0.07411,-0.222331 0.04775,-0.491239 -0.05859,-0.597572 z m 4.926666,0.732219 c 0,-0.07761 -0.144,-0.230112 -0.32,-0.338886 -0.176,-0.108774 -0.32,-0.04527 -0.32,0.141115 0,0.186387 0.144,0.338885 0.32,0.338885 0.176,0 0.32,-0.0635 0.32,-0.141114 z m 2.08,-0.498886 c -0.108774,-0.176 -0.34177,-0.32 -0.51777,-0.32 -0.176,0 -0.231004,0.144 -0.12223,0.32 0.108774,0.176 0.341771,0.32 0.517771,0.32 0.176,0 0.231003,-0.144 0.122229,-0.32 z M 16.96,34.879999 c 0,-0.176 -0.152499,-0.32 -0.338886,-0.32 -0.186387,0 -0.249888,0.144 -0.141114,0.32 0.108774,0.176 0.261272,0.32 0.338885,0.32 0.07761,0 0.141115,-0.144 0.141115,-0.32 z m 7.039999,-0.16 c 0,-0.264 -0.144,-0.48 -0.32,-0.48 -0.176,0 -0.32,0.216 -0.32,0.48 0,0.264 0.144,0.48 0.32,0.48 0.176,0 0.32,-0.216 0.32,-0.48 z m -5.759999,-0.48 c 0,-0.352 -0.144,-0.64 -0.32,-0.64 -0.176,0 -0.32,0.288 -0.32,0.64 0,0.352 0.144,0.64 0.32,0.64 0.176,0 0.32,-0.288 0.32,-0.64 z m 3.52,-0.16 c 0,-0.264 -0.144,-0.48 -0.32,-0.48 -0.176,0 -0.32,0.216 -0.32,0.48 0,0.264 0.144,0.48 0.32,0.48 0.176,0 0.32,-0.216 0.32,-0.48 z m 1.279999,-0.178885 c 0,-0.165613 -0.21148,-0.301115 -0.469956,-0.301115 -0.285467,0 -0.397926,0.187711 -0.286469,0.478162 0.188891,0.492244 0.756425,0.359408 0.756425,-0.177047 z m -6.20411,-0.852375 c 0.02817,-0.55837 -0.109398,-0.683858 -0.64,-0.583779 C 15.82415,32.53507 15.412,32.603141 15.28,32.61622 c -0.132,0.01308 -0.24,0.290311 -0.24,0.616072 0,0.939194 1.748253,0.76051 1.795889,-0.183553 z M 15.68,33.279999 c 0,-0.176 0.144,-0.32 0.32,-0.32 0.176,0 0.32,0.144 0.32,0.32 0,0.176 -0.144,0.32 -0.32,0.32 -0.176,0 -0.32,-0.144 -0.32,-0.32 z m 4.96,-0.32 c -0.108774,-0.176 -0.341771,-0.32 -0.517771,-0.32 -0.176,0 -0.231003,0.144 -0.122229,0.32 0.108774,0.176 0.34177,0.32 0.51777,0.32 0.176,0 0.231004,-0.144 0.12223,-0.32 z m 0.993333,-0.553333 c -0.325285,-0.325285 -0.59368,0.164445 -0.32679,0.596282 0.201611,0.326214 0.276985,0.326466 0.385377,0.0013 0.07411,-0.222331 0.04775,-0.491239 -0.05859,-0.597572 z m 7.966666,-2.966667 c -0.108774,-0.176 -0.341771,-0.32 -0.517771,-0.32 -0.176,0 -0.231003,0.144 -0.122229,0.32 0.108774,0.176 0.341771,0.32 0.517771,0.32 0.176,0 0.231003,-0.144 0.122229,-0.32 z m -3.04,-0.445763 c 0,-0.06917 -0.223479,-0.211521 -0.49662,-0.316335 -0.284776,-0.109279 -0.413223,-0.05563 -0.301114,0.125764 0.187922,0.304065 0.797734,0.449743 0.797734,0.190571 z m -1.28,-0.335351 c 0,-0.07761 -0.144,-0.230112 -0.32,-0.338886 -0.176,-0.108774 -0.32,-0.04527 -0.32,0.141115 0,0.186387 0.144,0.338885 0.32,0.338885 0.176,0 0.32,-0.0635 0.32,-0.141114 z m -1.12,-0.498886 c -0.108774,-0.176 -0.34177,-0.32 -0.51777,-0.32 -0.176,0 -0.231004,0.144 -0.12223,0.32 0.108774,0.176 0.341771,0.32 0.517771,0.32 0.176,0 0.231003,-0.144 0.122229,-0.32 z m -1.12,-0.32 c 0,-0.176 -0.152498,-0.32 -0.338885,-0.32 -0.186387,0 -0.249888,0.144 -0.141115,0.32 0.108774,0.176 0.261273,0.32 0.338886,0.32 0.07761,0 0.141114,-0.144 0.141114,-0.32 z M 21.993333,27.326666 C 21.887,27.220333 21.611,27.208964 21.38,27.301403 c -0.255275,0.102152 -0.179449,0.177978 0.193333,0.193333 0.337333,0.0139 0.526333,-0.06174 0.42,-0.16807 z m -2.289608,-0.98932 C 19.586657,25.539706 18.88,25.433318 18.88,26.213333 c 0,0.366666 0.203258,0.666666 0.451685,0.666666 0.248427,0 0.415845,-0.244194 0.37204,-0.542653 z M 17.28,25.919999 c 0,-0.176 -0.152499,-0.32 -0.338886,-0.32 -0.186387,0 -0.249888,0.144 -0.141114,0.32 0.108774,0.176 0.261272,0.32 0.338885,0.32 0.07761,0 0.141115,-0.144 0.141115,-0.32 z m 4.64,-0.64 c -0.108774,-0.176 -0.341771,-0.32 -0.517771,-0.32 -0.176,0 -0.231003,0.144 -0.122229,0.32 0.108774,0.176 0.34177,0.32 0.51777,0.32 0.176,0 0.231003,-0.144 0.12223,-0.32 z m 2.399999,0 c 0,-0.176 -0.252,-0.317795 -0.56,-0.315099 -0.478575,0.0042 -0.490207,0.05 -0.08,0.315099 0.603909,0.390276 0.64,0.390276 0.64,0 z m -8.159999,-0.64 c -0.108774,-0.176 -0.333273,-0.32 -0.498886,-0.32 -0.165613,0 -0.301114,0.144 -0.301114,0.32 0,0.176 0.224498,0.32 0.498885,0.32 0.274387,0 0.409889,-0.144 0.301115,-0.32 z m 10.239999,0 c -0.108774,-0.176 -0.34177,-0.32 -0.51777,-0.32 -0.176,0 -0.231004,0.144 -0.12223,0.32 0.108774,0.176 0.341771,0.32 0.517771,0.32 0.176,0 0.231003,-0.144 0.122229,-0.32 z M 16.873333,22.846666 C 16.767,22.740333 16.491,22.728964 16.26,22.821403 c -0.255275,0.102152 -0.179449,0.177978 0.193333,0.193333 0.337333,0.0139 0.526333,-0.06174 0.42,-0.16807 z M 15.68,37.101114 c 0,-0.186387 0.144,-0.249889 0.32,-0.141115 0.176,0.108774 0.32,0.261273 0.32,0.338886 0,0.07761 -0.144,0.141114 -0.32,0.141114 -0.176,0 -0.32,-0.152498 -0.32,-0.338885 z"
       id="path1" />
  </g>
  <metadata
     id="metadata1">
    <rdf:RDF>
      <cc:Work
         rdf:about="">
        <dc:title>Sentinel-1 Icon</dc:title>
      </cc:Work>
    </rdf:RDF>
  </metadata>
</svg>
