<?xml version="1.0" encoding="UTF-8" standalone="no"?>
<!-- Created with Inkscape (http://www.inkscape.org/) -->

<svg
   version="1.1"
   id="svg1"
   width="136.2365"
   height="62.782082"
   viewBox="0 0 136.2365 62.782083"
   sodipodi:docname="Sentinal.svg"
   inkscape:version="1.4 (e7c3feb1, 2024-10-09)"
   xmlns:inkscape="http://www.inkscape.org/namespaces/inkscape"
   xmlns:sodipodi="http://sodipodi.sourceforge.net/DTD/sodipodi-0.dtd"
   xmlns="http://www.w3.org/2000/svg"
   xmlns:svg="http://www.w3.org/2000/svg">
  <sodipodi:namedview
     id="namedview1"
     pagecolor="#ffffff"
     bordercolor="#000000"
     borderopacity="0.25"
     inkscape:showpageshadow="2"
     inkscape:pageopacity="0.0"
     inkscape:pagecheckerboard="0"
     inkscape:deskcolor="#d1d1d1"
     inkscape:zoom="2.018958"
     inkscape:cx="92.622034"
     inkscape:cy="39.872052"
     inkscape:window-width="1104"
     inkscape:window-height="634"
     inkscape:window-x="0"
     inkscape:window-y="25"
     inkscape:window-maximized="0"
     inkscape:current-layer="svg1" />
  <defs
     id="defs1" />
  <g
     id="g1"
     transform="translate(-14.0171,-18.156086)">
    <g
       id="g2">
      <path
         style="fill:#a7cbf1"
         d="m 129.22,80.741402 c 2.0325,0.04002 -1.44833,0.421987 0,0 z m 4.92655,-0.07738 c 6.35842,-1.21402 -13.18619,-3.764232 -2.53208,-2.244361 4.04217,-0.451647 6.88023,2.663511 1.94069,2.484358 -1.8873,-0.0024 -0.24743,-0.08653 0.59139,-0.239997 z M 127.62,80.421402 c 2.0325,0.04002 -1.44833,0.421987 0,0 z m -10.46634,-0.540844 c -0.96534,-2.462583 0.24835,-1.816523 0.43958,-0.0059 1.2898,0.7173 0.14178,0.568392 -0.43958,0.0059 z m 8.86634,0.220844 c 2.0325,0.04002 -1.44833,0.421987 0,0 z m -6.89268,-0.741404 c 3.36022,-2.399906 -2.04257,2.317598 0,0 z m 5.29268,0.421404 c 2.0325,0.04002 -1.44833,0.421987 0,0 z m -1.6,-0.32 c 2.0325,0.04002 -1.44833,0.421987 0,0 z m -1.6,-0.32 c 2.0325,0.04002 -1.44833,0.421987 0,0 z m -6.4,-1.28 c 2.0325,0.04002 -1.44833,0.421987 0,0 z m -1.6,-0.32 c 2.0325,0.04002 -1.44833,0.421987 0,0 z m -1.62,-0.313334 c 3.03668,0.007 -1.04797,0.429946 0,0 z m 9.04,-0.892027 c -2.68857,0.225677 -8.7612,-3.548017 -3.74905,-1.154814 2.69186,0.786977 10.06971,1.89788 9.80985,2.204193 -2.04634,-0.08934 -4.05892,-0.647575 -6.0608,-1.049379 z M 110,76.908068 c 3.03668,0.007 -1.04797,0.429946 0,0 z m -1.26,-0.326666 c 2.0325,0.04002 -1.44833,0.421987 0,0 z m -4.72415,-0.562299 c 0.30328,-1.161465 3.18982,1.062371 0,0 z m 3.12415,0.242299 c 2.0325,0.04002 -1.44833,0.421987 0,0 z m -4.8,-0.96 c 2.0325,0.04002 -1.44833,0.421987 0,0 z m -1.28,-0.32 c 2.0325,0.04002 -1.448329,0.421987 0,0 z m -1.700002,-0.421404 c -5.450597,-2.050908 3.851272,0.853365 0,0 z m -2.95391,-0.541757 c 3.618702,0.106457 -1.792567,0.352473 0,0 z m -1.74609,-0.316839 c 2.032518,0.04002 -1.448324,0.421984 0,0 z m -2.02,-0.421404 c -7.872317,-0.804852 6.617414,0.152806 0,0 z M 107.28,72.829367 c -0.91714,-0.401192 1.23876,-3.670246 0.56001,0.09883 2.17995,0.915186 0.21416,0.909244 -0.56001,-0.09883 z m 7.6,0.420673 c 1.18384,-1.098744 1.82507,0.684436 0,0 z M 89.839998,72.748069 c 3.036675,0.007 -1.047966,0.429943 0,0 z M 116.96,72.319998 c 2.40654,-2.3286 -1.65863,2.279627 0,0 z m -29.280002,-0.16 c -1.86381,-1.551433 4.279093,1.694856 0,0 z m 11.04,-0.63621 c -3.022066,-0.727719 -3.026736,-0.43152 -1.696,-1.187782 -0.869008,-1.145019 -0.0061,-6.106455 -0.237444,-5.767106 0.683148,1.986752 -1.052178,5.978698 1.922882,6.065191 3.066334,0.01389 6.771294,2.581301 1.297244,1.178537 L 98.719992,71.5238 Z m -0.566667,-0.677123 c -1.53267,-0.190225 -0.886992,0.505486 0,0 z m 51.818339,1.153841 c 1.21437,-2.396256 -1.84599,-6.756116 -2.52594,-9.895937 -6.03742,-4.70086 0.91186,11.284955 -2.94377,2.86175 0.17781,-5.562385 -4.94094,-6.19066 -8.90445,-8.151786 -3.79956,-0.351534 1.40264,8.121663 1.92657,10.901416 6.72169,4.360385 1.20193,-5.178688 2.21696,-6.715802 2.34206,3.344039 0.76555,10.242452 6.69159,9.449246 4.89116,3.15677 -7.22492,-2.213144 -8.99231,-2.432161 -3.95397,-2.551278 -12.44655,-1.20213 -13.43018,-6.812453 -1.01288,-4.289799 0.11121,4.260146 -2.37719,-0.111839 -1.55053,-2.42648 -5.56548,-3.900327 -4.83295,-7.255004 1.96722,-3.65349 5.82119,-0.212444 5.21411,-1.541949 1.63914,-2.74123 9.7858,3.677934 13.6047,4.199807 4.05027,3.028377 11.9793,2.688349 13.22298,8.40647 1.3168,2.237538 1.73376,8.77617 1.12988,7.098242 z m -13.9071,-5.790253 c -1.6855,-4.249709 -0.6095,-11.342908 -6.57941,-11.851418 -1.29947,1.980444 0.92941,8.498893 2.2658,11.533248 1.11207,0.12192 4.91265,2.471546 4.31361,0.31817 z m -5.70322,-1.187715 c -1.82297,-4.143409 -0.4466,-11.772857 -6.12922,-12.718924 -2.73487,8.83e-4 0.016,9.215465 1.71225,11.580908 1.38857,0.20254 3.02069,1.784984 4.41697,1.138016 z m -7.37639,-5.232256 c 0.29797,-1.98615 -0.31694,-4.812387 -1.59872,-6.54011 -2.74647,-3.344988 -6.76243,3.630405 -1.61322,5.025505 1.00736,0.684644 1.88065,3.387797 3.21194,1.514605 z M 83.759998,71.468069 c 3.036675,0.007 -1.047966,0.429943 0,0 z m -1.58,-0.326667 c 2.032518,0.04002 -1.448324,0.421984 0,0 z m -4.561161,-0.591581 c -1.470411,-1.39112 4.374495,1.716645 0,0 z m 2.961161,0.271581 c 2.03252,0.04002 -1.448324,0.421985 0,0 z m 14.08,-0.32 c 2.032518,0.04002 -1.448324,0.421984 0,0 z m -3.3,-0.572443 c -1.758506,-1.144391 6.528295,1.53137 0,-2.5e-5 z m 23.799182,-0.08896 c -0.75226,-1.394041 2.81162,1.948684 0,0 z m -39.379182,0.0214 c 2.03252,0.04002 -1.448324,0.421985 0,0 z M 88.63358,69.592262 c -1.687099,-2.134903 3.315955,2.00846 0,0 z M 74.079998,69.439995 c -3.299464,-0.463234 -3.205258,-0.888677 0.114693,-0.291602 1.184349,0.505353 1.810259,1.065921 -0.114693,0.291602 z m 40.160002,-0.96 c -0.78465,-2.27129 1.52146,2.29638 0,0 z m -44.540002,0.101404 c 2.03252,0.04002 -1.448324,0.421985 0,0 z m -1.6,-0.32 c 2.03252,0.04002 -1.448324,0.421985 0,0 z m 16.086667,0.101048 c 2.672709,-0.853874 3.479054,-0.234379 0.118457,0.107429 z M 66.399999,67.839995 c -3.469802,-0.416493 -3.011827,-0.998676 0.190301,-0.2068 0.913736,0.396743 0.814607,0.914544 -0.190301,0.2068 z m 16.399999,0.108071 c 3.036675,0.007 -1.047966,0.429943 0,0 z m -1.26,-0.326667 c 2.032518,0.04002 -1.448324,0.421984 0,0 z m -1.6,-0.32 c 2.03252,0.04002 -1.448324,0.421985 0,0 z m -18.259999,-0.31333 c 3.036675,0.007 -1.047966,0.429943 0,0 z m 16.659999,-0.0067 c 2.03252,0.04002 -1.448324,0.421985 0,0 z m 35.121242,-1.112075 c 1.48752,-3.795863 -2.23906,-5.804775 -2.54448,-6.491173 1.88296,0.847558 0.73284,-3.833311 2.03384,-0.736236 0.0976,-2.764081 0.80334,4.177312 0.73645,5.415039 0.0987,0.634756 0.20314,5.2827 -0.22581,1.81237 z m -53.381241,0.798742 c 3.036675,0.007 -1.047966,0.429943 0,0 z m 16.979999,-0.0067 c 2.03252,0.04002 -1.448324,0.421984 0,0 z m -18.239999,-0.32 c 2.032518,0.04002 -1.448324,0.421984 0,0 z m 16.959999,0 c 2.03252,0.04002 -1.448324,0.421984 0,0 z m 24.19991,-0.615288 c -1.13936,-3.511633 0.504262,-1.946436 0.820092,0.833885 -0.803584,-0.07031 -1.361842,0.362317 -0.820092,-0.833885 z m -42.059909,0.06812 c 1.499897,-2.526825 0.438665,1.421593 0,0 z m 16.259999,0.227167 c 2.03252,0.04002 -1.448324,0.421984 0,0 z m 34.794272,-0.05993 c -2.05949,-0.586675 -1.67511,-4.073152 -0.50101,-1.821835 2.57653,-1.912466 0.25607,-4.233806 4.11392,-1.567834 1.29839,1.873529 -0.89344,5.087503 -3.61291,3.389669 z M 72.899998,65.701402 c 2.03252,0.04002 -1.448324,0.421984 0,0 z m -1.94,-0.313333 c 3.036675,0.007 -1.047966,0.429943 0,0 z M 59.779999,64.741402 c 2.032518,0.04002 -1.448324,0.421984 0,0 z m 8.639999,0 c 2.03252,0.04002 -1.448324,0.421984 0,0 z m -1.28,-0.32 c 2.03252,0.04002 -1.448321,0.421985 0,0 z m -5.119999,-0.32 c 2.032518,0.04002 -1.448324,0.421984 0,0 z m 3.52,0 c 2.032518,0.04002 -1.448324,0.421984 0,0 z m -2.09391,-0.32316 c 3.618702,0.106457 -1.792567,0.352473 0,0 z m 3.790678,-0.543979 c -2.250074,-2.372966 4.97996,1.632033 0,0 z m 30.025518,-1.292921 c 0.426484,-3.004096 0.400739,1.615523 0,0 z m 9.962975,-0.36801 c -0.0164,-1.888564 0.36578,1.499067 0,0 z M 108.8,60.034235 c 0.83068,-0.899069 1.91118,-0.296764 0,0 z M 96.51953,59.347628 c -0.803475,-3.919183 0.961263,1.560583 0,0 z m 11.38447,0.108371 c -1.84513,-4.04717 4.43343,-2.19705 0.18454,-0.584146 0.11015,0.255333 0.66572,1.658369 -0.18454,0.584146 z m 2.90315,-1.856 c 0.10291,-4.478959 0.0884,4.251817 0,0 z M 79.853217,56.297034 c -7.743802,-0.726114 -4.375218,-10.49346 -6.27645,-15.907146 5.278005,-0.344579 11.919266,3.456878 10.612126,10.418733 0.389941,4.916152 3.155522,8.840068 -4.335676,5.488413 z m 4.807197,0.07604 c -1.501612,-4.034685 -0.316263,-10.043823 -2.709451,-13.22274 -4.102875,-1.59176 -10.143945,-4.676343 -7.212785,2.673396 1.125123,3.410956 -1.178395,9.625636 4.067379,9.654729 1.445353,0.13219 6.088999,2.78288 5.854857,0.894615 z m 10.388851,0.919429 c -1.341283,-1.350374 3.330798,1.223014 0,0 z M 113.92,57.053783 c 4.72499,-3.022485 -1.53251,1.891677 0,0 z M 86.865212,55.119999 c -3.503567,-4.066731 4.780084,4.002544 0,0 z m 7.598369,-1.080818 c -0.03485,-3.398757 1.122517,-4.028309 0.191273,-0.284828 -0.127367,2.311216 -0.115653,3.977801 -0.191273,0.284828 z M 90.24834,55.25902 c 2.413597,-2.157156 3.845029,-1.984652 0,0 z m 25.05408,-1.819021 c 0.0894,-5.934544 0.10371,5.849 0,0.032 z m -43.462422,0.473529 c -3.19295,-0.973391 -7.056421,-1.76512 -9.690386,-3.144453 -4.124331,-0.402196 -8.212766,-2.453479 -12.349978,-3.352356 -1.054589,-2.017052 -3.949101,-0.436328 -6.008821,-1.76053 -3.393072,-1.415669 -8.607471,-1.464024 -10.830814,-3.751231 -1.063926,-2.591878 -0.239888,-6.258185 -0.523616,-9.309045 -0.251397,-2.404796 0.441599,-5.203557 -0.368006,-7.375491 -2.069512,-0.161163 -0.576688,4.458714 -1.028386,6.241384 0,3.172772 0,6.345543 0,9.518315 2.338668,1.207019 -2.189676,0.335552 -3.395028,-0.219744 C 24.731004,40.436603 19.271114,36.164555 20.32,37.898215 18.595617,35.655972 13.63379,38.482357 14.040724,34.916771 14.20391,29.365719 13.887142,23.52855 14.683367,18.156086 c 4.345479,0.664288 9.115333,3.352688 13.588257,4.698375 2.677915,2.097555 5.157805,1.706587 8.064415,2.952139 8.058949,3.162336 16.187082,6.046555 24.301129,9.064907 1.326771,1.067566 4.261577,1.087485 6.140773,2.236 1.920567,1.292864 6.03281,0.859532 5.902675,3.76756 -0.993316,2.123229 4.396588,15.526763 -0.840618,13.038461 z m 1.709896,-2.141668 c -2.07984,-3.91971 1.418757,-11.844699 -3.847321,-13.112402 -3.17199,-0.768464 -6.165786,-3.113697 -9.515319,-2.311153 -1.424428,-3.365303 -9.028042,-4.025778 -11.413931,-4.927863 -0.312757,3.426666 1.356235,5.469887 3.92533,5.473113 0.859227,1.956954 8.577963,1.485345 5.452931,3.401649 -3.449338,-0.537072 -11.195972,-6.562616 -8.551585,0.964438 0.243976,2.724423 3.103469,1.852873 2.281134,4.031112 3.267077,2.760813 -5.177993,0.07428 0.297736,2.002829 3.733278,0.313355 6.915671,3.178618 10.70113,2.786409 0.175651,-2.33933 0.312031,-6.442245 0.643304,-1.792518 -0.547916,4.800563 6.271576,3.442907 9.173581,5.398301 1.785399,1.314752 0.587313,-1.659351 0.85301,-1.913915 z M 61.215891,47.999999 c 0.106993,-5.048097 0.107748,4.919154 0,0.1216 z m -0.328736,-3.52 c 0.102905,-4.478959 0.0884,4.251817 0,0 z m 1.907084,-0.32 c 0.133633,-3.293234 0.08139,3.316686 0,0 z m 2.80576,-1.92 c 1.768188,-1.183038 0.525818,1.467889 0,0 z m -3.152054,-1.978436 c -0.776414,-4.217142 2.412312,3.515989 -0.03641,1.292126 0.01214,-0.430708 0.02427,-0.861417 0.03641,-1.292126 z m -2.134893,0.346808 c -0.219844,-4.022017 1.437639,1.835097 0,0 z m 1.79221,-3.355038 c -0.01652,-1.888494 0.365792,1.499027 0,0 z m -8.2936,-0.768323 c 3.168932,-2.4745 1.437036,1.678722 0,0 z m -3.891663,-2.263896 c 0.04834,-1.078223 1.120909,1.198688 0,0 z m -1.125081,9.27099 c -0.98253,-3.345598 1.437567,-11.778186 -1.75909,-12.445355 -0.52118,4.180072 0.460446,8.779151 0.543054,13.08719 0.214123,3.877385 1.73462,1.233683 1.216036,-0.641835 z m -2.394919,0.78459 c -3.156762,-2.528306 -0.646839,-3.607691 4e-6,-4.545495 0.185271,-2.825884 0.105749,-3.615135 -1.329484,-4.161716 1.933585,-1.102525 1.414762,-4.348869 0.777226,-5.729478 -4.147397,-0.864252 -9.330939,-3.830969 -12.56775,-4.140051 1.584345,0.386044 3.180336,2.881786 0.96,4.737816 1.300144,-0.813856 4.311103,2.550267 3.025605,-0.124417 -0.670198,-1.297041 4.35273,-0.191267 4.349789,0.888352 -5.271818,0.07006 1.802014,3.627526 3.007922,2.638294 0.694281,-4.879246 1.712077,0.730844 0.05265,1.346325 -1.947666,-0.480289 -4.048514,1.896809 -4.035968,-0.626325 -5.60926,-0.584833 -0.319971,0.274738 0.32,2.879981 -1.611718,0.104554 -7.576969,0.632985 -3.227567,0.809735 3.185377,2.986772 0.633113,-0.07107 3.486375,0.482062 1.534465,1.286516 -0.397506,3.823927 1.724414,5.748208 1.14032,-0.06221 2.356524,0.15583 3.456782,-0.203291 z m -2.976987,-2.802496 c -0.03408,-3.199677 0.762179,2.256456 0,0 z m -0.06301,-2.434199 c -0.225022,-1.171349 1.90966,0.636755 0,0 z m -1.44,-9.28 c 0.853882,-2.852245 0.42065,2.945201 0,0 z m -2.24,-0.96 c 0.817582,-1.147985 0.817582,1.147985 0,0 z m -0.466842,8.02129 c -3.197364,-1.133706 -1.094132,1.453428 0,0 z M 22.825561,36.666482 c -0.631254,-2.523042 -3.318212,1.314065 -3e-6,0 z M 36.9221,34.063379 c 0.791427,-1.729284 -1.254081,1.592306 0,0 z M 16.64,32.959999 c -1.178302,-1.287793 -1.227653,1.251817 0,0 z m 11.924618,-7.551285 c 0.563126,-2.658388 -3.397706,0.03322 0,0 z m -2.324619,-2.065043 c -2.016289,-2.517025 -3.609462,0.109429 0,0 z M 21.12,21.938885 c -0.676363,-1.270936 -0.944243,0.437551 0,0 z m 64.345261,30.354447 c -0.01652,-1.888488 0.365794,1.499027 0,0 z m 4.41888,-2.498415 c -1.154834,-1.561222 -3.909878,-4.41854 -4.910615,-1.325353 -0.884484,-1.596104 3.747452,-2.377276 4.551484,0.572856 2.578619,2.441204 5.175331,5.673967 0.359131,0.752497 z m 19.819229,1.121185 c -2.93434,-0.129588 1.74071,-2.986994 -0.0424,-3.466666 2.09185,0.751967 4.23462,5.939727 0.0424,3.466666 z m 4.37663,-0.0361 c -2.9961,-0.820106 3.65941,0.216278 0,0 z m -28.909476,-0.64 c 0.194068,-2.373157 0.06554,2.427335 0,0 z m 11.010048,-0.413801 c 1.021922,-1.475753 -0.700441,1.826691 0,0 z m -0.32,-1.732398 c -0.771026,-1.737738 1.084481,1.40959 0,0 z M 108.23238,47.49643 c 3.22453,-1.763553 -2.08763,1.89915 0,0 z M 95.18684,47.018709 c -0.390928,-1.60495 1.041527,1.21872 0,0 z m -0.466206,-1.635962 c 3.110195,-0.8199 2.401526,0.925365 0,0 z m 18.793356,-0.608399 c 1.36603,-2.502567 -0.5666,2.622184 0,0 z M 111.3,42.981403 c 2.0325,0.04002 -1.44833,0.421987 0,0 z m -1.94,-0.313334 c 3.03668,0.007 -1.04797,0.429946 0,0 z m -4.14,-0.326666 c 2.0325,0.04002 -1.44833,0.421987 0,0 z"
         id="path9" />
      <path
         style="fill:#90b3e9"
         d="m 145.80409,70.119432 c -0.26397,-1.968149 -1.25232,-4.542333 -2.43963,-6.059665 -5.15165,-2.79827 1.90625,8.140006 -0.52981,5.475542 -1.14479,-1.602145 -4.00102,-13.36725 -2.84226,-5.796757 3.12594,4.637377 -0.40255,6.700586 -2.95275,2.847983 -3.0815,-4.068856 5.30073,5.437891 2.72237,-0.493754 0.99752,-2.161788 -3.54432,-10.267494 -0.60261,-7.150087 0.5651,-0.09817 0.22526,2.107274 1.9534,3.452251 4.06825,2.881128 1.18386,-3.206549 0.83872,-2.743719 2.60942,1.050019 3.93707,12.34539 3.49195,5.66724 -3.01049,-4.146219 2.06293,-4.710668 2.07624,-2.230311 -2.15871,-2.494026 -2.94285,-0.705383 -1.59431,1.829352 -0.49677,1.465817 2.23493,7.135268 -0.12131,5.201925 z M 135.52,66.879999 c 2.5743,-1.529086 -0.92159,1.429953 0,0 z m -0.11077,-2.289231 c -1.21712,-5.542022 1.72347,4.932976 0,0 z m -4.06239,0.987941 c -0.39089,-1.60495 1.04157,1.21875 0,0 z M 129.6,65.066374 c 2.61054,-2.255555 -0.68913,1.470382 0,0 z m 1.16,-1.426375 c -0.48274,-3.834221 1.11418,3.216966 0,0 z m -0.97715,-0.462858 c -0.5148,-3.352586 1.10298,2.691173 0,0 z m 5.92241,-0.323809 c -0.0164,-1.888564 0.36578,1.499067 0,0 z m -10.88,-0.32 c -0.0164,-1.888564 0.36578,1.499067 0,0 z m 9.92,-0.64 c -0.0164,-1.888564 0.36578,1.499067 0,0 z m -4.48,-0.32 c -0.0164,-1.888564 0.36578,1.499067 0,0 z m 4.8014,-0.96 c -1.20979,-5.099896 1.69217,4.477667 0,0 z m -5.7614,0.64 c -0.0164,-1.888564 0.36578,1.499067 0,0 z M 124.32,60.479999 c -0.52088,-3.903473 1.12648,3.167928 0,0 z m 9.95953,0.147629 c -0.83332,-2.890735 1.12999,1.584953 0,0 z m -4.47452,-0.534937 c -0.87525,-5.193645 0.98599,2.023412 0,0 z m -0.81975,-0.119359 c -0.0164,-1.888564 0.36578,1.499067 0,0 z m -0.65498,-2.131744 c 1.11602,-3.043229 -4.82972,-6.885903 -4.22443,-2.727745 1.53518,-0.798622 1.26262,-0.885319 1.42389,1.581589 -2.82025,-1.189591 -0.66717,4.876948 -1.8799,-0.02508 -3.79807,-5.562704 3.24157,-5.499978 4.2072,-1.345828 0.0968,0.239595 1.99408,6.192539 0.47324,2.517064 z m 5.45925,0.878411 c -1.60195,-5.163449 -0.0891,-0.762333 0.26165,-1.341115 1.29772,-2.468644 0.09,2.391971 -0.26165,1.341115 z M 79.999998,55.854498 c -2.586837,-0.635885 -5.364224,-1.116086 -4.656123,-4.454677 0.60217,-3.41284 -4.333192,-14.142953 2.643948,-9.60098 -5.282176,-2.422671 -2.687073,1.494733 -2.227825,3.195703 2.442683,0.342274 4.164079,-1.448226 2.649946,0.921883 1.145587,1.353642 6.015803,2.093842 3.890954,0.163585 2.560405,-3.683541 -7.150717,-4.583697 -0.415315,-2.942668 1.885283,0.545066 2.232011,9.195949 0.597189,4.979697 -2.635008,0.598867 -7.827017,-3.714182 -7.094287,0.122971 0.05723,2.156008 1.588548,4.22469 2.857047,4.995338 -0.700333,2.026068 7.31898,5.400721 5.830919,1.757896 -1.413358,0.08437 0.196609,-5.44843 -0.400543,-4.423635 0.06212,4.258765 3.901131,8.925268 -3.67591,5.284887 z m -3.2049,-1.694499 c -0.49421,-2.870581 -1.269108,0.986279 0,0 z m 52.190162,2.293333 c -0.0164,-1.888564 0.36578,1.499067 0,0 z M 128.64,54.879999 c 0.49776,-3.05149 0.5544,2.432867 0,0 z M 70.719998,53.084746 c -3.227302,-1.262693 -8.215217,-0.927592 -7.27821,-5.611218 -0.166874,-4.367011 -0.965025,3.726151 -0.568294,-1.768494 0.534968,-4.548022 -0.577976,0.482659 -0.451248,-2.828424 1.364397,-1.326852 0.454712,-3.128216 0.127138,-3.914858 -0.668008,4.131455 -0.282176,-0.348774 -0.223745,-2.15357 -1.835121,-1.314364 5.389621,0.974822 7.280957,1.822267 5.429847,1.001166 1.741632,8.945958 3.878555,12.680974 0.949773,3.380284 -0.247058,2.558215 -2.765153,1.773323 z m -3.52,-5.884747 c -1.191262,-2.438109 -1.482555,2.292227 0,0 z m 4.56,-0.644382 c -1.592158,-0.86822 -0.98986,1.602277 0,0 z m -1.84,-1.115618 c -2.664627,-1.062456 0.704055,1.44652 0,0 z m -3.519999,-3.2 c -2.664625,-1.062458 0.704051,1.44652 0,0 z m 4.412636,-0.959681 c -0.04894,-4.842043 -2.00776,0.324767 0,0 z m -4.572636,-0.640319 c 2.193198,-1.156008 4.141162,-2.740338 0.277912,-1.032336 -2.323047,-2.391224 -3.274044,-1.34209 -1.058912,0.806336 0.165188,0.264552 0.538644,0.964734 0.781,0.226 z m -7.52,8.748331 c -3.353097,-1.996516 -11.747249,-2.450419 -6.049631,-3.361742 -1.943849,-1.940681 0.427606,-2.448511 -3.070369,-3.856103 -1.485355,-5.536604 0.620735,-5.58939 5.100521,-3.114336 4.55174,2.328053 5.895264,-0.389111 0.218982,-0.868088 -1.930364,-1.024757 -3.347362,-1.806639 -5.033313,-2.07577 -2.202059,-3.126565 -1.42831,-7.245294 2.995426,-3.567235 3.124074,1.328975 8.330264,1.981405 7.918384,4.972055 -0.497101,1.216478 -0.754282,5.927468 0.295154,2.662808 0.0702,1.038408 -0.487092,6.498163 -0.05522,4.943448 0.692606,-3.259898 0.05709,3.19037 0.129896,4.461911 0.07334,-4.052561 1.736365,0.245863 -0.77383,0.353083 l -0.781,-0.2405 -0.895,-0.309534 z M 55.226171,36.479999 c 1.258558,-1.836411 -3.965525,1.250897 0,0 z m -4.666172,-2.061114 c -0.676362,-1.270937 -0.944245,0.437549 0,0 z m -8.320237,8.868849 c -1.256434,-1.842626 1.023655,-5.282938 -2.658576,-4.505287 1.440025,2.091141 -1.321622,-0.555694 -3.202336,-0.390739 -1.714891,-1.669181 7.576845,0.822281 3.579184,-2.820253 -4.673693,-0.227804 0.628254,-3.124856 0.681965,0.268563 1.262698,-0.849682 3.757242,0.220877 4.768034,-1.367679 0.241897,-3.382091 0.07695,-2.752235 -1.415695,-0.23234 -2.906808,-1.079401 -6.132949,-2.272646 -2.456971,-3.44 -0.436344,-0.218614 -5.837414,-2.297747 -3.919693,-0.154407 0.08796,2.251445 -2.365672,-1.089834 -3.375675,-0.546707 2.890426,-2.107437 -0.322384,-3.799223 -0.96,-4.808531 4.228154,1.796967 8.539713,3.399966 12.96,4.667599 0.239019,2.199235 0.202157,4.517925 -1.022731,5.993941 1.733111,-0.468749 1.081446,2.201838 1.182739,4.456923 -2.312315,-0.711431 -1.356629,2.958343 -0.507719,4.011461 -1.431237,-0.184152 -3.190201,0.838168 -3.652526,-1.132544 z m 1.468524,-2.566114 c -1.059273,0.257796 0.604976,2.378062 0,0 z m 0.451713,-1.681621 c -0.532139,-1.173904 -1.86234,0.679879 0,0 z m -1.44,-9.28 c -0.771162,-2.132633 -1.313679,1.07873 -0.4,0.56 z m -2.4,-0.96 c -0.817582,-1.147985 -0.817582,1.147985 0,0 z m 7.065263,15.173333 c -0.01652,-1.888486 0.365791,1.499026 0,0 z m 1.305263,-2.053333 c 0.194068,-2.373157 0.06554,2.427335 0,0 z m -1.588142,-4 c 0.171745,-3.074366 0.0212,3.024953 0,0 z m -8.787809,-0.73475 c -3.415804,-0.981496 3.649908,-0.351378 0,0 z m -1.834575,-2.926364 c 1.492962,-2.788626 0.107765,1.311496 0,0 z m 10.265263,-2.445552 c -0.01652,-1.888494 0.365791,1.499029 0,0 z M 27.583999,25.215999 c -0.592116,-3.038443 2.661892,1.278443 0,0 z M 24.449772,22.88039 c -1.666898,-2.870389 4.652377,2.597476 0,0 z M 20.48,21.741114 c 0.04835,-1.07822 1.120908,1.19869 0,0 z"
         id="path8" />
      <path
         style="fill:#7499db"
         d="m 149.88449,70.942624 c -0.0365,-3.608429 0.79334,3.760952 0,0 z m -5.7932,-1.168952 c -2.74475,-0.662323 -3.96211,-9.065113 -0.18787,-5.199508 0.25859,1.480645 4.142,7.539288 0.18787,5.199508 z m 1.25259,-0.717791 c -2.49391,-1.068032 0.79824,2.486925 0,0 z m 1.2344,0.174124 c 0.20803,-2.244003 -3.15705,-9.906243 1.02078,-6.142577 1.49634,4.360468 1.28058,2.094544 -0.75244,3.258038 -1.01583,0.536047 1.19867,6.138091 -0.26834,2.884539 z m 2.88698,0.02333 c -0.0164,-1.888572 0.36578,1.499071 0,0 z m -10.50342,-1.518674 c -2.28945,0.02819 -3.80985,-8.649156 -2.7938,-5.033173 1.25473,5.990651 3.11588,-3.859754 3.33288,0.42676 -1.30732,1.762424 3.44478,6.635355 -0.53908,4.606413 z M 133.76,66.372768 c -2.41248,-0.931589 3.81212,1.471703 1.35346,-2.501715 -0.18253,-0.333692 2.28494,4.888668 -1.35346,2.501715 z m -2.07774,-0.769101 c -0.56619,-1.05836 1.76036,1.108481 0,0 z m -4.4805,-1.430239 c -3.23712,-0.281625 -3.13383,-6.189543 -2.78692,-7.635966 1.73247,1.010177 1.12234,-4.386677 0.0442,-1.070441 -2.17566,-2.342923 2.73634,-3.251433 2.90695,-0.549673 1.22735,5.161276 3.1651,6.704306 -0.39201,2.522654 -2.63153,1.726868 -2.41895,6.327575 1.02572,6.653811 3.37951,0.05002 3.02793,1.666689 -0.79796,0.07962 z m 2.89758,-4.301839 c -2.19959,-4.027224 -0.39285,-6.902132 3.00798,-3.575266 0.85901,6.172904 1.0163,-0.51266 -1.91217,-0.746989 -4.41533,-2.739762 2.42206,14.650879 -0.51852,6.674616 -0.19243,-0.78412 -0.38486,-1.568241 -0.57729,-2.352361 z m -0.61981,3.316042 c -0.80347,-3.919182 0.96124,1.560585 0,0 z m 4.94031,-1.187629 c -1.81557,-6.40831 2.0828,4.924155 0,0 z m 7.34777,0.562285 c -4.5865,-2.195519 0.43028,-5.520684 1.3718,-0.722285 0.23332,1.081003 0.33562,1.90064 -1.3718,0.722285 z m -0.38396,-2.18977 c -0.53882,-2.820149 -1.92457,2.307819 0,0 z m -2.85645,-0.370181 c -0.45632,-3.205186 -6.05201,-3.817698 -2.8682,0.728849 -2.15985,-3.11656 -1.12844,-5.208224 1.98836,-2.705468 1.43992,-0.192851 1.7867,6.017745 0.87984,1.976619 z M 81.439998,55.868452 c -3.564219,-0.920545 -3.299545,-2.719927 -5.082605,-4.881763 -2.366299,-3.065703 -0.696544,-5.664196 2.901332,-3.422523 2.399836,-0.07263 4.657426,1.093347 4.355569,3.824658 -0.06417,2.836492 -0.359819,2.518186 0.77695,5.251175 -1.033226,0.05348 -1.992348,-0.503334 -2.951246,-0.771547 z m -5.2751,-2.188453 c 0.255628,-2.045605 0.569869,2.400602 0,0 z m -9.924899,-6.48 c 1.191263,-2.438101 1.482554,2.29222 0,0 z m 13.342872,-0.669737 c -2.622406,-0.922257 1.288019,-3.288984 -2.726037,-1.120459 -1.383178,-0.491521 -4.280774,-5.909257 0.01532,-3.827992 4.311343,0.721708 6.099103,2.363086 6.007845,5.547775 -0.669493,0.651943 -2.484749,-0.0011 -3.297128,-0.599324 z m -8.79306,0.140298 c 1.9817,-1.410923 0.166941,1.492608 0,0 z m -1.669813,-1.230561 c 1.768187,-1.183037 0.52582,1.467889 0,0 z m 0.905156,-4.8 c 0.113442,-4.68823 1.616851,3.82109 0,0 z m -4.425155,0 c -2.211854,-1.705449 -1.632751,-3.909392 0.737057,-1.107249 5.708019,-2.410915 0.719298,1.060186 -0.737057,1.107249 z"
         id="path7" />
      <path
         style="fill:#9b9fa2"
         d="m 124.96875,79.840695 c -2.70936,-0.843296 -5.47932,-1.089361 -7.69742,-0.174714 0.14483,-3.589462 -9.97663,-2.220802 -13.38866,-4.122049 -4.578216,-1.45894 -9.173285,-2.193213 -13.959993,-2.862433 -4.17128,-1.87245 -9.098852,-1.273846 -13.503753,-2.738595 -3.62754,-1.639663 -7.907475,-1.545995 -11.602925,-2.742656 -3.826734,0.102992 -9.589618,-1.441136 -2.896,-2.972623 6.549312,-0.431051 12.712844,2.459332 19.120066,3.438635 2.213232,0.962866 4.712399,0.55047 6.688287,0.413998 2.862719,4.144581 10.4237,2.062805 14.950008,4.121915 -0.0388,-1.928691 -7.319282,-0.27319 -5.590986,-4.419652 0.01378,-2.192864 -0.44229,-5.020186 0.758349,-6.383743 -0.232717,-3.374414 -3.499864,-4.015039 -3.060083,-7.128822 -1.507448,-2.784701 2.935149,-3.723729 1.311457,-6.158417 -3.349748,-3.999143 4.510233,-3.071581 7.222443,-5.064338 7.46658,-1.416762 -5.699629,1.712947 -7.553747,3.532381 3.091415,2.823966 -1.018779,4.378074 -0.725797,7.143212 -1.685569,3.17113 3.479196,3.681127 2.185535,5.723574 0.574403,2.516306 5.458919,4.90758 3.328839,7.331122 -2.049425,0.845508 -0.787778,-6.507317 -3.129498,-2.485371 -1.429204,4.617337 0.792995,6.948889 5.362638,6.992921 1.69161,3.525428 -8.505301,-1.345518 -10.855978,-0.565136 -2.498074,0.499982 -3.72893,-2.68451 -6.043009,-2.048518 -2.564562,0.525788 -5.298893,-1.628474 -7.816779,-0.759881 -4.383082,-2.094377 -9.470028,-2.378785 -14.173336,-3.694489 -2.855798,0.464443 -7.813343,2.145225 -1.480118,2.445881 2.044317,1.216555 9.964556,-1.866631 5.101604,0.821691 2.193518,1.228423 5.59737,1.113666 8.312971,0.774264 -1.681331,0.505616 2.941474,2.226215 6.035491,2.41542 2.451115,0.705542 4.930069,0.837419 7.437975,0.372682 -0.432929,2.855443 4.789265,0.516547 6.34625,2.586201 3.920614,-0.613421 7.138289,1.688472 10.985999,2.117686 8.76418,1.740801 17.48559,3.770204 26.32131,5.106738 -2.74007,0.300655 -5.33004,-0.492899 -7.99114,-1.016884 z M 100.8,65.777843 c -1.778426,-3.406721 -0.69324,-2.13581 -1.019512,0.742828 0.617982,0.01268 1.332742,0.371454 1.019512,-0.742828 z m 33.12,14.57751 c -0.55313,-1.792405 -11.45008,-2.772798 -15.51997,-4.148769 -1.26337,-0.7983 -9.19787,-0.668149 -6.06657,-2.96592 -0.77666,-0.75314 2.54901,0.386937 3.95651,-0.600666 2.49906,-2.024058 -1.86214,-1.786003 -2.11473,-3.884968 -1.20469,-2.222354 -4.41161,-1.699734 -6.49524,-2.717104 -0.61914,-3.634758 0.40427,1.169245 2.99544,0.145141 2.20213,0.905504 3.45489,-4.069126 0.88045,-4.054193 -4.07953,-1.743069 5.14685,1.127884 -0.63844,-1.394118 -0.7953,-2.097217 -1.41595,0.72873 -3.45601,0.378095 0.10096,1.426627 -0.70599,-3.52624 0.23611,-4.70052 2.61537,-0.472924 3.9929,-1.190822 3.08727,1.907668 -0.55446,3.041188 3.77498,1.638599 2.53223,5.36 0.002,2.373182 0.48641,6.677727 3.39528,6.719999 3.1659,1.808552 -2.62369,2.140499 -1.83233,3.890778 3.76897,2.920517 10.61849,2.166921 15.31139,4.133179 4.26327,0.124734 7.40703,2.595626 3.16884,2.05322 l 0.40023,-0.0871 z M 109.58708,58.302588 c 0.3566,-4.949932 -4.63922,1.773243 -0.31313,1.748243 0.72564,-0.07043 0.12383,-1.272771 0.31313,-1.748243 z m -2.16362,15.414205 c -3.14508,0.356977 -1.61477,-3.382826 -0.34512,-3.904383 0.38218,0.963019 3.63698,3.543633 1.91429,4.107588 -0.52837,-0.01015 -1.06349,0.05273 -1.56917,-0.203205 z M 108.4,73.254367 c -0.55159,-2.19799 -2.8916,-4.965627 -1.01224,-0.342561 -0.0116,0.588004 2.65749,1.057453 1.01224,0.342561 z m -1.12576,-10.214368 c 0.13363,-3.293234 0.0814,3.316686 0,0 z m 12.53295,-4.740138 c -6.37727,-2.456756 1.34844,-9.193622 2.32158,-3.490391 -0.4877,-4.451634 -7.77241,-0.188144 -2.20433,3.169086 2.61692,4.167858 3.74584,0.627112 2.41059,-2.500289 2.34234,2.881318 -0.39224,7.084844 -2.50778,2.843573 z m -7.36327,0.02014 c -3.44973,-3.416249 5.7087,-0.176661 1.77005,-4.812508 1.61972,-1.444414 -0.29735,-3.437033 -1.7068,-1.810534 -1.37248,0.528483 -4.55344,-0.705727 -5.62005,-2.157196 2.62691,-2.649171 -0.37666,-3.774382 8e-4,-5.699762 1.10673,2.950084 7.6941,6.286131 4.13281,2.695591 5.43735,-2.471605 -2.3885,-3.552444 -3.28104,-3.529801 1.68818,-0.7629 7.68553,0.165314 5.19527,2.541392 -0.82447,1.5212 -0.69431,3.485672 -0.18524,5.028159 3.40181,-0.366649 2.61806,3.650144 2.37162,5.824655 -1.31197,0.597399 -2.73408,1.400315 -2.67742,1.920004 z m -0.12392,-7.056 c -0.19838,-2.018423 -3.21811,-5.909321 -4.92866,-3.012194 -1.33754,2.417665 3.59066,3.200602 4.92866,3.012194 z m -25.297229,3.536 c -2.667727,-2.847154 2.919164,3.755458 4.322277,-0.667363 2.146225,-0.893959 -4.487694,-9.794212 -6.003884,-5.172637 -1.262948,0.974981 1.581918,-4.40972 3.171292,-0.609408 3.593501,2.521173 6.441675,6.518079 -0.08863,7.649408 l -0.534596,-0.3525 -0.866452,-0.8475 z m -1.422773,-2.96 c -0.703024,-5.674543 1.236943,4.951196 0,0 z M 112.64,52.978884 c 0.74267,-2.842428 0.36937,2.513331 0,0 z M 61.465455,45.999999 c 0.380826,-2.356851 -2.110405,-10.136817 0.327997,-9.435189 -0.0051,3.75181 2.408681,12.215516 0.0251,13.267317 -0.117701,-1.277376 -0.235401,-2.554752 -0.353101,-3.832128 z m 1.249644,3.2 c -0.501417,-4.559647 -1.258521,2.164752 0,0 z M 62.110197,44.88816 c -1.269176,-1.28568 0.90898,4.557084 0,0 z m -0.32,-3.52 c -1.312758,-1.500215 0.98381,4.908269 0,0 z m -0.325182,-3.711144 c -1.450395,-0.434886 1.146959,3.900814 0,0 z m -13.641003,8.077116 c -0.0031,-3.419788 -2.141886,-15.553204 0.428636,-13.849753 0.194236,4.633125 0.618096,9.266396 0.529534,13.904472 l -0.472418,0.278414 -0.485752,-0.333114 z m 0.703863,-1.974133 c -0.33396,-4.023326 -0.431703,-8.061089 -0.61034,-12.093194 -1.480711,0.63228 0.216194,6.706598 -0.170233,9.119738 -0.29027,0.693913 0.814426,8.229874 0.780573,2.973456 z M 31.183991,40.873672 c -0.215216,-5.247336 -0.0029,-10.503036 0.016,-15.753673 2.220191,0.309792 -1.046157,1.344582 0.1897,4.093184 0.04344,3.862272 0.08687,7.724544 0.130305,11.586816 1.475844,-0.971186 0.425095,-4.558472 0.869722,-6.597408 0.106764,-4.493107 0.147579,-2.543333 0.174407,0.772987 -0.391786,1.263464 1.164958,7.749831 -1.380134,5.898094 z"
         id="path6" />
      <path
         style="fill:#b69963"
         d="m 112.96,71.519998 c 0.35846,-3.676979 1.38102,2.096495 0,0 z m -5.22931,-1.263291 c -2.56739,-3.294835 -0.30875,-10.743832 -1.59172,-15.409777 -0.57352,-3.777742 0.19357,-8.280543 -0.95514,-11.744537 0.40191,-0.679647 4.5836,0.505139 1.37617,1.078711 0.0522,3.004495 4.90279,1.580865 5.76,3.908473 -0.707,0.09649 -7.0909,-3.252422 -5.29761,0.43689 -0.87344,3.093279 5.64849,3.473203 6.12046,3.313505 -2.25175,1.717712 2.31805,6.716192 -1.62121,4.40198 -1.49965,1.001824 -2.76862,-2.357179 -4.4921,-0.160293 -0.19288,2.390944 1.14086,4.029054 0.0146,5.852916 -0.8512,4.077959 2.08732,4.787175 5.17385,5.351927 4.08531,1.232944 -2.18606,0.286528 -0.858,3.303928 -1.48581,-1.521124 -2.60104,-0.297722 -3.62931,-0.333723 z m 3.47704,-8.687525 c -6.06307,-4.316197 4.89215,1.215261 0,0 z"
         id="path5" />
      <path
         style="fill:#5f78a7"
         d="m 130.64,80.410797 c 6.51783,0.04284 -2.65984,0.324207 0,0 z m 3.28,-0.410799 c -0.50053,-1.28408 1.85606,1.264184 0,0 z m -33.58116,-5.930177 c -1.778999,-1.769191 2.39205,0.971752 0,0 z m 8.14116,0.0475 c 1.73128,-1.179579 1.49584,0.348256 0,0 z m 0.64,-1.477322 c -2.23281,-1.292439 2.22449,0.907889 0,0 z m -19.877897,-0.56 c -2.37784,-3.784619 5.294002,-0.772484 -0.10419,-0.365571 0.719222,0.317474 1.325383,1.006849 0.10419,0.365571 z m 16.538467,-0.173801 c 1.02193,-1.475751 -0.70044,1.826691 0,0 z M 148.48,71.23077 c -1.90066,-0.629741 -2.36545,-3.964731 -1.29372,-5.63077 1.86134,-0.54979 4.47943,7.986083 1.29372,5.63077 z M 85.519998,71.1308 c 6.517829,0.04284 -2.659842,0.324207 0,0 z M 116.1,70.821402 c 2.0325,0.04002 -1.44833,0.421987 0,0 z m 28.72783,-1.161482 c -1.73347,-2.297151 2.71082,0.715279 0,0 z M 87.705261,69.253332 c -0.01652,-1.888496 0.365794,1.49903 0,0 z M 75.373664,69.14211 c 1.137539,-2.631652 0.248563,1.412496 0,0 z m -1.193666,-0.880708 c 2.03252,0.04002 -1.448324,0.421985 0,0 z m 1.82,-0.07782 c -1.349791,-1.094909 5.140303,0.256475 0,0 z m -8.48,-0.632081 c 2.131112,-2.821646 -0.182234,1.351986 0,0 z M 69.234284,66.4 c 3.717154,-1.885084 -0.916053,1.555276 0,0 z m -1.454286,-0.0586 c 2.03252,0.04002 -1.448324,0.421984 0,0 z M 133.28,65.974343 c -3.50411,-1.119011 -3.1094,-8.952224 -3.27386,-10.797619 5.15825,0.533497 3.85625,7.539901 5.41295,11.23745 -0.0386,0.588699 -2.01742,-0.727106 -2.13909,-0.439831 z M 59.114665,65.56029 c 1.908734,-0.757009 -1.388449,1.136457 0,0 z M 127.36,63.851865 c -3.03527,-0.571426 -2.69173,-5.433186 -0.19101,-6.251866 1.13815,0.71932 5.36573,10.240309 0.19101,6.251866 z m 9.33114,0.228134 c -2.5409,-3.925711 -1.35094,-9.708973 1.7545,-4.401578 0.98028,1.385056 0.54839,5.849665 -1.7545,4.401578 z m 3.62679,-3.606501 c 0.7325,-3.200639 1.68754,2.134322 0,0 z M 121.92,60.034235 c 0.83068,-0.899069 1.91118,-0.296764 0,0 z m -2.42013,-2.514236 c -3.16898,-3.41518 3.51995,3.336652 0,0 z M 95.150422,56.466198 c -0.339048,-2.159828 1.013911,1.749577 0,0 z M 114.56,54.662928 c -2.22554,-2.248229 1.21682,-4.410102 0.006,-0.732503 0.84559,0.304213 -0.0877,1.947158 -0.006,0.732503 z M 62.152956,48.719999 c -0.337354,-2.723159 1.231329,2.867472 0,0 z m 36.573175,-0.96 c 3.527039,-5.498716 1.239931,2.429288 -0.338604,0.821319 0.112868,-0.273773 0.225736,-0.547546 0.338604,-0.821319 z M 61.973332,46.826666 c -1.436826,-2.637593 1.38229,0.69845 0,0 z m 0,-1.28 c -1.046727,-2.52938 1.022632,0.15331 0,0 z m -13.62807,-1.573334 c -0.01652,-1.888486 0.365791,1.499026 0,0 z m 13.334737,-0.879505 c -1.005167,-5.650004 1.350282,1.417032 0,0 z M 47.705262,42.053332 c -0.01652,-1.888486 0.365791,1.499026 0,0 z m 13.654737,-2.555966 c -1.198958,-4.9621 1.435785,-0.1322 0,0 z M 48.050525,37.759999 c 0.194068,-2.373157 0.06554,2.427335 0,0 z m -15.917699,-6.08 c 0.02193,-1.289568 -0.05372,-8.051806 0.05841,-4.282641 0.216905,2.071366 -0.01744,11.128336 -0.05841,8.973841 0,-1.563733 0,-3.127467 0,-4.6912 z m 15.252436,3.973334 c -0.01652,-1.888494 0.365791,1.499029 0,0 z M 47.540573,31.7738 c -0.771026,-1.737738 1.084481,1.40959 0,0 z"
         id="path4" />
      <path
         style="fill:#5a5c5d"
         d="m 124.48,79.317174 c -7.73427,-1.586196 -15.46693,-3.180207 -23.2,-4.772258 -1.513899,-2.205101 -5.206266,0.07631 -7.040002,-1.817045 -3.478025,0.148179 -7.504009,-1.630893 -1.447046,-1.939527 1.954515,0.108862 13.876728,3.705545 9.204618,0.158447 -5.112999,0.458328 -5.461294,-3.318355 -4.43872,-7.414379 2.089103,-2.15266 0.778664,4.126192 3.23475,3.347587 1.6396,-2.4079 -2.051059,-4.652269 -3.318954,-6.844474 2.243995,-2.481161 -3.071909,-2.312742 -2.352353,-5.41218 -1.417527,-2.617137 2.187089,-3.554556 1.668063,-5.707238 -4.292468,-3.972341 8.645594,-7.000731 8.853214,-4.48808 0.44489,3.285672 0.22224,14.144014 -0.0635,5.140163 -1.73265,-2.257793 -2.22012,3.453996 -4.12534,4.324186 -2.231971,1.880366 -1.490742,-6.577204 -0.62722,-2.04287 1.59094,-0.305001 3.32791,-5.151801 -1.458784,-2.041774 -4.553047,-0.597173 -2.920221,4.193689 -3.68766,5.641865 0.930916,2.602096 4.265712,1.942813 2.881789,5.257149 2.528945,6.556057 7.463865,-2.120776 2.399685,-4.181244 -0.989479,-2.792341 7.32338,3.568196 2.94135,5.075395 -4.147883,2.398693 -1.25584,8.485393 2.288,8.055596 2.03946,-5.104096 -0.91191,2.46162 -0.67532,3.778565 2.16539,1.464732 6.51219,-0.05596 2.64338,-1.419223 -0.78164,-3.172082 1.76671,0.305975 1.92005,1.466657 -0.71157,1.987285 -6.34406,1.00945 -5.12004,-1.79575 -0.69227,-2.955814 -6.15719,-3.814502 -6.131892,-6.12257 0.398749,-3.163809 -2.262671,-0.828974 -1.22321,1.536219 -1.31464,4.250891 3.872322,2.237305 6.107462,4.049401 0.97186,2.755579 -4.535976,1.657112 -0.6889,3.325354 9.25032,1.834526 18.48765,4.061886 27.78548,5.509987 4.19425,0.126006 -2.5802,-0.904342 -3.86515,-1.354718 -5.24537,-1.21341 -10.49481,-2.409076 -15.74383,-3.606563 1.58229,-3.254076 -2.34529,-3.641754 -1.78115,-5.583849 1.95061,1.146429 3.39442,4.709117 5.32039,2.880032 3.98156,-0.315308 -0.35103,-0.944272 -0.51885,-2.988734 1.30064,1.706451 5.26422,2.642383 0.58104,3.308734 -0.89386,2.313689 -4.26079,-1.657377 -2.87628,2.159196 7.31177,1.82964 14.82133,3.02593 22.01432,5.232211 -1.14545,0.523156 -4.47733,0.340112 -6.42448,-0.09252 -1.01165,-0.207248 -2.0233,-0.414497 -3.03495,-0.621745 z M 99.946843,73.002138 c 1.663807,-0.540959 -4.135924,-1.085568 -5.460501,-1.627989 -3.615971,-0.654364 -4.273748,1.30062 -0.162213,0.623762 0.984822,1.73922 3.602739,1.184099 5.622714,1.004227 z m 0.158907,-25.454452 c 2.68901,-5.537204 -4.423373,4.233677 -0.297471,0.414222 l 0.238921,-0.332697 z m 5.48935,-0.107687 c -0.44087,-2.828736 -1.33617,1.12367 0,0 z M 79.839998,70.189227 c -4.450638,-0.223441 -5.274888,-2.15201 -0.43276,-2.318016 2.47204,1.019876 6.695357,0.418068 8.27276,1.141783 2.917366,2.945133 -1.472116,1.805136 -3.817412,1.963942 -1.347137,-0.192556 -2.681448,-0.537596 -4.022588,-0.787709 z m 7.425974,0.17729 c 0.0604,-2.444499 -2.560471,-0.602067 -4.671208,-1.622288 -1.28874,-1.033309 -6.192992,-0.226017 -4.84048,0.517937 3.329498,0.734463 6.643217,1.706086 10.085714,1.438371 L 87.485972,70.494533 Z M 112.64,70.171427 c 2.25846,-0.726785 0.64007,1.560062 0,0 z m -0.81884,-1.535825 c 6.38508,-0.373831 -1.24561,0.728887 0,0 z M 69.519998,68.072953 c -3.540413,-1.967581 4.870202,-2.581349 6.879915,-1.064586 3.998979,1.234875 -7.345361,1.693682 -6.879915,1.064586 z m 5.2,-0.431094 c 4.091409,-1.079121 -8.493319,-1.073213 -4.548305,0.02321 1.502692,0.621465 3.042526,0.305474 4.548305,-0.02321 z M 61.478246,66.38614 c -4.853595,-1.32802 5.114169,-3.018954 7.111759,-1.08081 4.4288,0.934826 -7.149127,2.130046 -7.111759,1.08081 z m 5.241753,-0.271728 c 4.160104,-0.769937 -4.660955,-2.314655 -5.714156,-0.500751 0.355209,0.719308 4.343262,1.165859 5.714156,0.500751 z M 106.6407,65.439999 c 0.0758,-4.202006 0.11663,4.598341 0,0 z m -0.55262,-4.194803 c -0.43391,-4.525675 1.1038,-1.427194 0.43588,1.391003 -0.006,2.427936 -0.53452,-1.9627 -0.43588,-1.391003 z m 13.89301,-3.399865 c -5.1146,-5.83302 3.16995,3.261091 2.77041,1.191399 -0.33472,2.152889 -2.13769,-0.499634 -2.77041,-1.191399 z M 105.8017,56.928535 c -0.22393,-4.367083 1.31645,1.546486 2.7e-4,0 z m 16.46356,0.484797 c -0.0164,-1.888564 0.36578,1.499067 0,0 z M 106.88,56.359181 c 2.01702,-2.734342 1.97632,0.675711 0,0 z m 6.55772,-0.04287 c 2.28084,-1.089693 -0.56185,-0.110459 -0.9606,-2.273424 1.70307,-3.275608 3.59889,4.216933 0.9606,2.273424 z m 8.50754,-0.182983 c -0.0164,-1.888564 0.36578,1.499067 0,0 z M 87.179867,54.639995 c -3.096755,-2.028193 3.931124,1.563668 1.195437,0.971994 z m 34.408623,0.32 c -0.58575,-4.641488 -6.73215,1.977527 -1.5758,-2.335573 0.65987,-0.611052 2.70392,3.647714 1.5758,2.335573 z M 90.879998,54.262516 c 1.75091,-1.537677 1.675832,-0.284339 0,0 z m -4.749474,-1.462517 c 0.194068,-2.373157 0.06554,2.427335 0,0 z M 113.1532,52.291121 c 1.25254,-3.722603 2.49067,1.812808 0,0 z M 89.590754,50.051112 c -4.259508,-3.090784 -2.857098,-3.47887 -0.06546,-0.366313 2.392505,2.272321 2.539031,2.98131 0.06546,0.36632 z m -3.78023,0.828887 c 0.194068,-2.373157 0.06554,2.427335 0,0 z m -0.370526,-2.061115 c 1.236044,-4.982514 -0.02083,3.343978 0,0 z M 106.62966,47.31056 c 2.9129,-2.461823 -0.0401,1.851791 0,0 z m 2.81692,-0.947693 c -2.70974,-2.315155 -2.41828,-3.338525 -0.26923,-0.53419 3.95127,1.755054 2.24699,-3.221438 2.1935,-2.180412 4.73565,-0.294144 -0.64654,3.839156 -1.92427,2.714602 z M 61.973332,46.186666 c -1.436826,-2.637593 1.38229,0.69845 0,0 z M 47.879143,41.86144 c 0.246909,-2.199022 -1.340722,-10.765791 -0.01768,-9.400796 0.06573,4.226882 0.763927,8.66276 0.439753,12.760796 -0.512794,0.392108 -0.231414,-2.69084 -0.422072,-3.36 z m 60.844587,1.432236 c 4.88751,0.02897 -2.28041,0.363186 0,0 z M 31.359999,33.146666 c 0,-2.515556 0,-5.031111 0,-7.546667 1.551121,1.457439 0.199551,5.850852 0.733609,8.336458 0.692748,2.034228 -0.52524,10.270609 -0.733609,4.299275 0,-1.696355 0,-3.392711 0,-5.089066 z"
         id="path3" />
      <path
         style="fill:#584d39"
         d="m 117.98774,77.601112 c -5.38935,-1.117649 -10.79,-2.183992 -16.16061,-3.389833 -0.99723,-1.523968 4.28364,-1.618056 0.75247,-3.537635 -3.462079,-0.410527 -6.072423,-0.745326 -4.972364,-4.802052 -0.446634,-3.581946 2.486674,-1.038421 1.094944,0.647691 2.35459,1.45588 6.37176,3.188521 6.25786,6.396258 0.3037,1.758327 6.17582,2.767085 5.12,-0.611384 -3.01369,0.39217 -0.72788,-4.442903 -0.48015,-1.33456 3.38647,-0.298878 -0.14395,5.06072 3.59685,4.5098 6.4844,1.476449 12.96609,2.964841 19.44331,4.472496 -4.97429,0.203458 -9.77372,-1.584472 -14.65231,-2.350781 z M 95.74043,73.0516 c -0.412236,-1.812961 -6.292126,-0.467735 -3.922727,-1.552943 2.760841,-0.935503 5.790336,0.962157 8.664157,1.218076 0.29561,0.486999 -3.677782,0.589918 -4.74143,0.334867 z m 17.42278,-0.25437 c -2.54955,-0.418313 -2.5803,-4.89751 0.28956,-4.196609 -0.21565,2.400785 5.35701,2.997917 1.80966,3.719377 -1.98988,-0.89543 -0.84789,1.794907 -2.09922,0.477232 z m 0.51472,-1.5952 c -0.36341,-3.940152 -1.56023,2.118133 0,0 z M 81.439998,70.070257 c -5.376142,0.06993 -4.602006,-2.216707 -0.488808,-1.691689 2.023654,0.492123 4.043087,1.082824 6.113665,0.478997 0.720723,2.619117 -0.188228,1.7536 -3.145716,1.733234 -0.82638,-0.173514 -1.652761,-0.347028 -2.479141,-0.520542 z M 104.88,69.690365 c -6.720672,-3.130904 0.18171,-7.279543 0.16597,-10.866772 -2.61198,-2.713119 -6.517955,-4.810425 -2.38648,-0.234672 2.8561,2.988457 -3.917463,7.580771 -4.541824,1.224573 3.591214,-2.697271 -4.894303,-2.687239 -1.797622,-4.773495 -2.561075,-4.437712 2.614041,-5.670091 5.996876,-5.971739 0.97491,0.414558 -1.85929,4.743901 -2.03774,1.491739 -1.484029,1.406032 1.10898,5.789737 2.52085,1.81442 2.11433,-7.069224 3.83095,-0.606778 3.02761,3.506955 -1.12598,3.663285 3.47826,12.748378 -0.84198,13.845455 z m -33.040002,-1.68277 c -7.845281,-0.768125 5.452705,-2.021377 3.355041,-0.45549 -1.11528,0.167997 -2.215859,0.559723 -3.355041,0.45549 z m -9.394155,-1.835456 c -4.394508,-0.7591 4.652216,-2.42817 5.779717,-0.524832 -1.447698,0.563725 -3.956925,1.218636 -5.779717,0.524832 z M 119.76,57.227819 c -4.61051,-3.775275 2.61923,-6.011409 2.29651,-0.682604 1.87236,3.876855 -0.76313,3.14096 -2.29651,0.682604 z m -6.08,-1.137669 c -1.54319,-1.577679 2.72721,-0.272192 0,0 z M 87.289274,54.479999 c -1.433289,-1.563857 -1.442377,-4.293706 -1.420362,-6.302264 2.247522,-1.634702 4.960379,3.89145 6.291086,5.249318 -1.545238,0.556023 -3.483176,3.124144 -4.870724,1.052946 z m 17.675626,-7.52 c 0.25579,-2.045607 0.57003,2.400601 0,0 z m 4.15011,-1.155551 c -5.5661,-3.485703 8.28679,-2.586259 1.73573,0.323211 l -0.52887,0.27234 z"
         id="path2" />
    </g>
  </g>
</svg>
