<?xml version="1.0" encoding="UTF-8" standalone="no"?>
<!-- Created with Inkscape (http://www.inkscape.org/) -->

<svg
   version="1.1"
   id="svg1"
   width="682.66669"
   height="580"
   viewBox="0 0 682.66669 580"
   xmlns="http://www.w3.org/2000/svg"
   xmlns:svg="http://www.w3.org/2000/svg"
   xmlns:rdf="http://www.w3.org/1999/02/22-rdf-syntax-ns#"
   xmlns:cc="http://creativecommons.org/ns#"
   xmlns:dc="http://purl.org/dc/elements/1.1/">
  <title
     id="title1">MTG-i1 Icon SVG</title>
  <defs
     id="defs1" />
  <g
     id="g1">
    <path
       style="fill:currentColor"
       d="m 84.666669,578.81079 c 5.939189,-1.3578 -8.655734,-9.93133 -5.009539,-5.37654 C 78.203103,570.76177 58.823981,559.76885 62.126685,559 c 5.442951,7.48182 -9.29641,-12.00234 -7.149661,-4.87332 0.05653,-4.36462 -15.576482,-10.59945 -11.259285,-10.4375 C 38.05635,540.75567 23.438949,525.42009 23.289545,528.26601 19.505673,526.9426 17.619783,520.96876 8.8439222,517.66667 1.5272969,505.91479 1.2048209,520.51608 0.68024876,500.79041 22.926891,489.05961 41.630852,465.6091 62.324336,449.09601 97.449267,418.43596 131.95356,384.29602 167.33895,355.73592 c 22.10903,-22.53735 56.01803,-28.87449 83.56712,-43.35869 21.04233,-6.48578 -9.96214,-30.6887 -12.23891,-43.88963 -8.34893,-14.71413 -30.15454,-49.88105 -28.06157,-47.26846 3.13678,-0.11956 -20.5399,-28.88895 -12.45957,-26.77407 -13.90556,-9.62332 -1.53822,-25.47744 9.61264,-11.71974 6.86129,-7.11369 27.66159,-25.73967 34.14516,-28.26608 16.05578,-15.42208 24.36238,-22.92303 42.19944,-35.30583 13.94605,-9.6731 25.88444,-21.711124 20.92246,-34.572151 15.17998,-10.229006 21.85211,0.382265 28.33413,6.341648 9.83978,-11.578215 6.96476,-19.41493 20.17633,-25.968993 -19.9099,11.655582 29.12436,-9.438739 31.89642,-2.283446 12.36728,9.909287 22.80345,48.528222 34.19096,37.09854 -14.59105,3.167402 13.1611,-9.626498 14.3193,5.300542 24.25391,-11.848052 1.7649,1.73019 9.30661,-4.74107 12.33349,-5.832092 34.37508,-26.266629 50.12876,-40.602174 21.5836,-19.415078 42.9476,-39.071885 64.27563,-58.76675732 40.02769,1.58237212 80.48761,-0.28279051 120.12182,5.01422082 -4.45601,13.2247395 -43.2618,40.8839875 -39.46943,44.0390915 -22.4138,20.896346 -42.76456,45.443663 -67.09958,64.966899 -1.44668,0.44907 -27.1025,21.54528 -47.46161,24.87893 -18.60825,6.74263 -60.45135,19.27389 -30.19122,39.34733 5.6003,-0.0934 19.66631,11.92379 15.86327,11.68231 10.89859,9.60802 0.36929,36.85706 8.3216,9.11685 -4.7415,6.68755 16.29887,-0.94469 11.77379,7.18545 7.6786,5.25438 41.62013,11.60408 18.77976,31.61555 -8.28679,8.07629 10.35185,-13.53356 -3.40323,1.87834 -3.52734,19.53245 -12.0985,27.39324 -10.2021,40.53857 27.95616,-0.75187 56.18457,-3.72075 83.52601,-9.12028 7.95516,-0.88527 10.05021,5.79852 5.8568,2.44565 13.55468,25.93155 24.41972,62.05379 -1.98615,84.08637 -12.63708,12.34792 -24.52655,30.24017 -4.67246,7.4228 7.79561,-9.50175 21.06748,-23.1664 5.52948,-5.03088 -16.72256,25.69475 -24.69751,25.87053 -50.67936,12.05676 -5.46254,-10.40243 -23.06159,-15.17104 -4.26123,-3.00055 -11.30147,-10.66816 -17.79015,-10.37798 -22.61303,-17.38315 -2.43972,16.34555 16.14591,45.18508 -0.995,49.59667 3.97071,-0.61349 -3.60217,11.79771 -6.98686,10.06527 -5.19692,1.84508 -6.49027,6.05216 -13.28583,14.80404 2.03653,-5.23722 -12.92991,12.61999 -16.72322,19.30497 -11.66439,11.28274 11.42193,-14.24344 -6.46177,4.23135 -0.60451,7.24685 -22.71729,25.47244 -3.71519,5.40794 -9.93314,14.36178 -16.35944,11.71279 -22.38359,-3.52513 9.41702,27.11199 -7.45271,-21.61345 -12.66551,-29.62248 -1.33281,-29.29315 38.90032,-48.8283 53.50405,-74.07952 21.16144,-27.29578 -19.57175,12.05351 -24.99663,20.06498 -15.20618,9.1709 -44.22767,65.47395 -37.94165,25.00184 9.40312,-18.41047 6.77484,-53.34406 -17.04683,-37.72496 -5.80513,4.75104 -23.34545,7.23141 -21.02228,24.04192 -10.40538,14.16713 -31.4472,-21.58455 -53.58029,-18.61929 -19.80294,-5.35924 -62.38031,-23.37645 -60.02338,-29.04267 -5.08226,11.24912 -9.18574,23.05614 -11.50415,35.39529 -5.92262,21.02182 -20.90869,33.0244 -33.55885,50.35925 -3.5872,5.44976 -15.84976,11.04867 -7.15927,8.25325 -20.40976,26.04034 -49.20007,45.47735 -72.26744,67.90309 -6.33561,6.15925 -34.21243,32.85995 -8.94934,9.3253 12.19033,-8.32972 -21.14333,23.03766 -27.27812,30.17339 -16.98027,19.14208 27.60192,-24.28373 0.45344,2.95464 -10.93512,11.08038 -36.52527,36.25085 -13.26583,11.53793 -11.73084,9.50321 -21.38586,23.85468 -33.800345,31.45137 -1.487972,-0.29693 -19.170854,0.30846 -9.066436,-1.14747 z m 16.064221,-25.6798 c 10.19313,-12.08929 -12.295915,-3.98358 -2.330887,1.26901 -13.047616,-2.61368 -5.844128,8.90725 2.330887,-1.26901 z M 142,529.33333 c 6.82103,-9.53639 -9.95012,9.69673 0,0 z M 150.08388,521 c 11.11658,-10.51483 -10.19207,6.92328 -4.33333,4.33333 z M 24.170074,501.66667 c 0.4432,-3.10358 -12.433511,2.21287 0,0 z M 31.555556,494 c -4.026401,-7.47956 -6.358791,7.75656 0,0 z M 217.24466,455.33333 c -11.80905,8.25455 -19.56052,20.76596 -3.00752,3.4394 z m 8.65306,-5.91511 c 13.21876,-20.42972 5.77865,-4.50696 0.72655,-8.16877 -6.30202,-25.07133 -28.82575,11.48971 -4.47099,4.77273 13.91532,-7.70883 -8.28762,9.5215 3.74444,3.39604 z m -74.02755,-9.9925 c -5.72204,4.65098 -3.76121,7.26374 0,0 z m -4.50155,-1.83488 c -5.79961,1.58379 -2.57748,3.77342 0,0 z m 370.1348,-3.92417 c 4.11886,-6.00256 -7.4417,7.09746 0,0 z M 242.33316,415.22204 c -6.12478,-2.16177 -1.40376,8.49386 0,0 z m 6.63907,-10.69426 c -4.90863,-1.51228 -2.44949,2.32203 0,0 z m 12.36111,-5.86111 c -19.71885,-9.62824 13.20768,9.28186 0,0 z M 272.62769,394.41 c 11.28683,-6.90228 -10.50845,-9.74035 9.64,-16.48714 5.83926,-10.51245 13.60139,-31.35351 8.44517,-40.98972 6.83409,8.31883 -17.35407,3.90172 -22.07277,-9.65125 11.99834,9.52118 -6.34834,-0.89967 -2.75718,-3.15248 -3.37815,-24.37841 -38.46827,11.35132 -55.80487,11.76202 -13.76153,6.09849 -17.31038,18.85744 -27.26532,12.70652 -22.05583,15.26411 20.19626,17.91663 30.19654,26.73691 19.13672,4.1959 41.53422,27.97018 59.61843,19.07514 z m -91.00142,-43.12061 c 13.8915,-10.90023 -12.18867,11.9199 0,0 z m 15.7479,-3.95606 c 3.8099,-12.47071 2.90768,1.64542 0,0 z m 77.2925,-3.41202 c -4.75361,-2.83368 10.35414,-11.98597 0.41422,1.2101 z m -56,-9.77866 c 4.01795,-4.39871 4.06385,1.81002 0,0 z m 29.33334,-12.80932 c 10.40431,-4.78396 -4.11112,4.46684 0,0 z m 10.66666,-4.52401 c 4.01794,-4.3987 4.06385,1.81 0,0 z m -10.66666,75.85735 c -14.88254,-7.47319 8.37758,7.12548 0,0 z m -13.33334,-6 c -10.40431,-4.78397 4.11113,4.46684 0,0 z M 224.00001,382 c -14.88253,-7.4732 8.37758,7.1255 0,0 z m 170.33863,-9.63668 c -27.84084,-18.97946 6.63903,7.11976 6.15176,6.31892 l -2.53721,-2.66022 z m -236.03335,4.84752 c -5.23832,-9.00191 -0.09,5.35719 0,0 z m 49.69472,-2.54417 c -10.40433,-4.78397 4.11111,4.46684 0,0 z m -45.33334,-5.33334 c -1.20879,-4.59892 -3.66126,4.97732 0,0 z m 33.33334,0 c -10.40433,-4.78397 4.11111,4.46684 0,0 z M 168.66667,368 c -8.77477,-4.85832 0.15589,3.80397 0,0 z m 131.14591,-36 c -4.25514,1.18963 -1.21083,11.92346 0,0 z m 280.8541,-25.33333 c 6.82104,-9.5364 -9.95012,9.6967 0,0 z M 459.21664,265.86029 c 6.52487,-8.33871 -13.85258,4.75449 0,0 z m 7.08893,-2.66585 c -4.90864,-1.51227 -2.44949,2.32204 0,0 z m 5.69444,-1.81926 c -4.07479,-2.94842 -6.03667,4.65872 0,0 z m -24.81719,-5.8204 c 5.7364,-5.05753 19.80184,-9.51034 13.3656,-6.68909 -6.14343,-2.12427 -32.41377,-21.59784 -34.03457,-6.9142 2.5202,7.95152 20.59951,-4.61169 13.60864,8.9479 3.39819,1.3046 6.19237,14.1842 7.06033,4.65539 z m -3.84947,-14.22145 c 0.091,-5.0536 8.82776,5.5734 0,0 z m -23.37574,-5.9504 c 13.65697,1.74375 -9.1872,-0.24658 -2,1.20524 l 1.39501,-1.42166 z m 92.56889,-9.07867 c -0.97432,-8.20939 -7.99923,5.46942 0,0 z m -49.85982,-4.5946 c -23.52205,-11.91087 -6.13984,0.92842 0,0 z M 527.5775,219.75 c -2.46759,-2.71606 1.33839,7.804 0,0 z m -76.83462,-0.32485 c -30.15878,-10.99304 -5.22708,1.43597 0,0 z m 74.70202,-7.04158 c -3.65366,-4.94454 2.65341,12.61537 0,0 z m -6.4458,-1.08206 c -0.49521,-12.87873 -4.42046,11.21622 0,0 z m -52.99909,-13.96818 c 6.37993,-8.66406 -4.52078,3.49219 0,0 z m 11.33334,0.52314 c -2.60962,-3.86898 -5.96503,2.28991 0,0 z m -20.36111,-3.99536 c -4.90864,-1.51226 -2.44949,2.32201 0,0 z m 5.33333,0 c -4.90864,-1.51226 -2.44949,2.32201 0,0 z m -28.97222,-1.11575 c -2.54757,-4.74597 -3.58662,2.37419 0,0 z m -11.33334,-3.41203 c 0.0583,-4.48345 -4.09337,4.44175 0,0 z m 84.00444,-2.65949 c -7.12553,-7.54977 -6.48895,-0.56197 0.36239,1.21503 z M 242.13429,175.31367 c -10.42735,-10.16693 -11.92405,13.34579 0,0 z m -10.80095,-0.647 c 6.82103,-9.5364 -9.95013,9.69672 0,0 z m 15.72318,-2.77307 c -26.09655,-7.86774 0.1285,7.77762 0,0 z m 261.61016,-31.86971 c 14.5281,-7.61373 48.7597,-20.24468 49.79521,-27.02568 -31.79622,-3.60524 -63.77637,-7.93883 -95.59243,-10.00089 11.034,17.02067 9.72771,22.98141 16.29301,42.90299 1.18218,13.94207 22.76655,-6.95839 29.50421,-5.87642 z m -27.83528,5.92456 c -3.4965,-9.7592 4.91211,6.24625 0,0 z m -3.28147,-8.00555 c -5.80534,-14.22332 7.13794,10.90317 0,0 z m -3.55191,-8.61584 c 6.30155,-20.19759 2.20145,2.93776 0,0 z m 16.00199,-7.99373 c 7.21742,-5.03478 1.45529,5.45181 0,0 z m 56.33334,-7.60764 c 14.57609,-1.2553 0.84898,2.04093 0,0 z m -12,-1.33333 c 14.57609,-1.2553 0.84898,2.04093 0,0 z m -12,-1.33334 c 14.5761,-1.25532 0.84897,2.04097 0,0 z m -11.33333,-1.31145 c 11.4329,-1.29718 0.49091,2.14714 0,0 z m -44.69172,-2.97402 c -0.63856,-7.829411 2.81887,6.96847 0,0 z m 34.05042,1.6358 c 10.96299,-1.65362 -1.55031,2.28794 0,0 z m -11.35871,-1.29239 c 8.29706,-1.32267 0.10343,2.30694 0,0 z m -10.58333,-1.36111 c 7.45403,-1.15109 -2.29241,2.286 0,0 z m 132.25,-29.249494 c 18.60042,-19.453374 -19.81155,17.868313 -25.40218,23.209799 -25.03068,24.142455 7.01418,-3.979989 15.91523,-13.689519 3.18639,-3.149308 6.35155,-6.320173 9.48695,-9.52028 z m -49.33333,24.784014 c 13.62405,-10.652668 -7.33518,2.61082 0,0 z M 474.66668,92 c -1.20878,-4.598919 -3.66127,4.977306 0,0 z M 656.66669,14.666667 c -1.80594,-5.3984599 -7.2093,5.672213 0,0 z M 562.00002,12 c -0.091,-5.0536121 -8.82777,5.573403 0,0 z M 101.33334,576.66667 c 12.61104,-12.05176 -9.486811,11.84544 0,0 z m -80.000006,-18 c 3.872776,-5.59107 5.055686,5.14818 0,0 z m 16,-5.33334 c 3.406618,-4.78327 3.406566,4.78328 0,0 z M 14.666667,552 c 3.406594,-4.78326 3.406594,4.78326 0,0 z m -1.333333,-27.92131 c 2.737084,-6.98976 3.689305,4.6309 0,0 z M 464.90565,435.27135 c -8.11876,-18.79958 9.44024,15.61081 0,0 z m -4.96675,-10.05221 c -4.0215,-11.29067 6.50695,9.82388 0,0 z m -0.93889,-15.34711 c -7.03746,-3.59584 29.50091,-30.69039 22.00137,-23.96604 -10.69656,9.32853 -21.32062,18.58424 -15.8657,17.69491 0.49655,0.78855 -11.95889,13.36351 -6.13567,6.27113 z m -10.74007,-6.5387 c 0.59956,-7.60357 1.292,8.23301 0,0 z m 1.17867,-6.77777 c 0.85779,-5.13861 1.35243,6.06872 0,0 z m 1.33333,-5.33334 c 0.85778,-5.13861 1.35245,6.06872 0,0 z m 28.4523,-8.16689 c 13.97704,-10.17523 26.76657,-32.38415 38.77512,-38.83193 -15.6046,14.64509 -25.36927,31.20232 -43.14507,43.58392 z m 23.44244,-22.38866 c 9.41493,-11.85358 -12.54784,12.03514 0,0 z m -86.43372,19.74535 c 5.22419,-29.72246 -0.3961,10.68727 0.17288,5.13685 -0.0576,-1.71228 -0.11525,-3.42457 -0.17288,-5.13685 z m 165.41593,-1.11411 c -20.74027,-15.58939 23.30853,14.52949 0,0 z m -31.48416,-5.34946 c -3.68206,-11.90042 4.85591,6.81309 0,0 z m -176.83139,-4.61512 c -4.55245,-4.6447 10.75886,4.97017 0,0 z m 83.1731,-5.5286 c 1.94394,-17.45213 1.2891,14.28929 0,0 z m -89.83976,2.86194 c -4.55246,-4.6447 10.75884,4.97016 0,0 z m -216.00001,-0.50341 c 4.31687,-6.17592 4.69599,-1.04397 0,0 z m 270.66668,0.037 c 6.56653,-7.00414 7.57772,-2.07804 0,0 z M 360.00001,364 c -4.55246,-4.6447 10.75885,4.97016 0,0 z m 78.50545,-9.70545 c 10.24153,-2.83061 6.2322,2.43024 0,0 z m -112.50545,-2.93207 c -17.12579,-10.30592 21.94063,9.80403 0,0 z m -11.33333,-4.69581 c -4.55246,-4.6447 10.75884,4.97016 0,0 z m 321.36604,-3.73984 c 4.72751,-10.64549 6.06161,-30.46308 4.26465,-6.73643 -0.005,3.83876 -11.5925,16.67657 -4.26465,6.73643 z m 0.78781,-39.74734 c -6.61544,-23.59215 8.80409,21.15108 0,0 z M 254.85903,303 c -3.32049,-9.78807 6.64382,11.82067 0,0 z m -11.01959,-20.66667 c -13.29553,-22.4082 6.86698,6.98039 0,0 z m 292.16058,-7.66666 c -1.22678,-9.23032 7.50613,9.35303 12.21531,4.89269 -4.9286,-1.37688 -20.23431,4.7359 -12.21531,-4.89269 z m 46.41666,0.42251 c 7.45403,-1.1511 -2.29242,2.28603 0,0 z m 9.33334,-1.33333 c 7.45401,-1.15108 -2.29243,2.286 0,0 z m 10.66666,-1.33334 c 7.45403,-1.15107 -2.29242,2.28602 0,0 z M 229.0275,255.66667 c -11.33062,-17.48751 4.32268,0.61113 0,0 z m 316.41111,-9.77778 c 0.85778,-5.13861 1.35245,6.06872 0,0 z M 200.00001,204 c -3.26933,-9.46372 6.33936,9.56826 0,0 z m -9.33334,-12 c 5.55018,-5.72948 10.14363,6.02882 0,0 z m 0.7788,-4.85526 c -1.00591,-5.5273 6.42771,7.39793 0,0 z m 297.14272,-11.88496 c -6.33377,-5.77668 9.73953,6.18726 0,0 z m -2.66667,-17.18623 c 12.98133,-6.71932 -6.41329,5.43984 0,0 z m 38.0785,-16.74022 c 10.40431,-4.78396 -4.11112,4.46684 0,0 z M 289.33334,111.49659 c 4.31689,-6.17592 4.69598,-1.04394 0,0 z M 304.00001,94 c -2.86487,-6.512895 6.55708,6.68184 0,0 z m 25.33333,-4.745356 c 2.20772,-2.978927 3.33378,4.565654 0,0 z m 72.92721,-5.938054 c -6.41714,-16.058303 8.9256,14.897233 0,0 z m -74.15528,1.238966 c 0.85778,-5.138608 1.35245,6.068724 0,0 z m -7.02193,-6.799708 c 7.45403,-1.151093 -2.29242,2.286025 0,0 z M 484.66668,64 c 10.02729,-9.702509 -6.91096,9.498443 0,0 z M 644.00002,44.829926 c 4.31686,-6.175928 4.69599,-1.043956 0,0 z M 660.67163,28 c 26.603,-26.0547765 -18.3166,20.256448 -0.60717,0.678921 z"
       id="path1" />
  </g>
  <metadata
     id="metadata1">
    <rdf:RDF>
      <cc:Work
         rdf:about="">
        <dc:title>MTG-i1 Icon SVG</dc:title>
      </cc:Work>
    </rdf:RDF>
  </metadata>
</svg>
