<?xml version="1.0" encoding="UTF-8" standalone="no"?>
<svg xmlns="http://www.w3.org/2000/svg" version="1.2" baseProfile="tiny" viewBox="0.00 0.00 512.00 335.00" width="512.00" height="335.00">
<path fill="#679ee7" d="
  M 457.83 0.00
  Q 473.88 1.48 490.00 1.66
  Q 492.87 1.69 495.68 1.85
  Q 496.66 2.52 497.57 1.84
  Q 499.09 1.63 500.47 2.11
  L 488.37 11.93
  A 2.02 1.89 10.1 0 1 488.00 12.17
  Q 484.89 13.64 483.47 15.45
  A 5.44 5.41 -84.0 0 1 481.64 16.94
  L 480.21 17.66
  A 4.07 3.83 7.6 0 0 479.18 18.40
  Q 474.85 22.79 469.00 26.19
  A 2.04 1.51 0.3 0 0 468.66 26.44
  L 466.71 28.25
  A 2.56 2.46 9.3 0 1 466.13 28.65
  Q 463.25 30.10 461.71 32.26
  A 2.36 2.35 -83.6 0 1 460.70 33.07
  Q 458.81 33.87 455.83 36.56
  Q 454.37 37.87 451.10 40.32
  Q 446.23 43.98 442.63 46.29
  A 4.33 4.28 -85.6 0 0 441.72 47.08
  Q 439.09 50.11 436.48 51.24
  C 434.41 52.13 433.49 53.99 431.50 55.28
  C 428.70 57.11 425.79 59.65 423.39 61.60
  A 1.58 1.57 -62.3 0 1 422.27 61.95
  C 416.70 61.53 410.86 61.72 405.51 61.12
  Q 390.10 59.38 385.30 59.13
  Q 378.67 58.77 371.49 57.69
  Q 368.47 57.24 357.63 56.60
  Q 354.06 56.39 350.08 55.34
  A 0.02 0.01 -30.7 0 1 350.09 55.31
  Q 351.13 55.41 351.78 54.39
  A 0.38 0.38 0.0 0 0 351.46 53.81
  L 345.61 53.81
  A 0.34 0.33 66.2 0 0 345.39 54.39
  Q 345.51 54.50 345.57 54.57
  A 0.24 0.24 0.0 0 1 345.40 54.98
  L 344.75 54.98
  A 1.04 1.03 -72.8 0 0 343.89 55.44
  Q 343.50 56.05 343.43 56.86
  Q 343.41 56.27 342.42 56.27
  Q 342.55 54.68 341.51 54.40
  C 339.48 53.87 338.98 55.37 337.45 55.45
  Q 336.43 55.51 336.28 54.53
  L 413.03 0.00
  L 457.83 0.00
  Z
  M 416.97 5.00
  A 0.74 0.70 -57.1 0 0 416.73 3.69
  Q 416.02 3.58 415.25 4.50
  A 0.40 0.40 0.0 0 0 415.48 5.14
  Q 416.50 5.33 416.97 5.00
  Z
  M 487.0888 5.6877
  A 1.20 0.66 -23.7 0 0 485.7247 5.5657
  A 1.20 0.66 -23.7 0 0 484.8912 6.6523
  A 1.20 0.66 -23.7 0 0 486.2553 6.7743
  A 1.20 0.66 -23.7 0 0 487.0888 5.6877
  Z
  M 409.4530 33.9946
  A 1.25 0.62 -166.8 0 0 410.5284 34.8836
  A 1.25 0.62 -166.8 0 0 411.8870 34.5654
  A 1.25 0.62 -166.8 0 0 410.8116 33.6764
  A 1.25 0.62 -166.8 0 0 409.4530 33.9946
  Z
  M 350.5899 51.4651
  A 1.27 0.59 -12.5 0 0 349.2223 51.1640
  A 1.27 0.59 -12.5 0 0 348.1101 52.0149
  A 1.27 0.59 -12.5 0 0 349.4777 52.3160
  A 1.27 0.59 -12.5 0 0 350.5899 51.4651
  Z
  M 419.0728 57.0323
  A 1.03 0.58 -10.5 0 0 417.9543 56.6497
  A 1.03 0.58 -10.5 0 0 417.0472 57.4077
  A 1.03 0.58 -10.5 0 0 418.1657 57.7903
  A 1.03 0.58 -10.5 0 0 419.0728 57.0323
  Z"
/>
<path fill="#8f93aa" d="
  M 497.57 1.84
  Q 496.66 2.52 495.68 1.85
  L 497.57 1.84
  Z"
/>
<path fill="#8f93aa" d="
  M 502.92 2.62
  Q 500.59 3.62 499.22 6.17
  Q 467.26 30.77 435.19 55.33
  Q 431.15 58.42 430.82 58.68
  Q 423.87 64.32 413.96 69.51
  C 410.28 71.44 410.52 75.19 404.69 74.80
  Q 402.75 74.67 400.63 75.36
  Q 378.31 82.64 358.11 89.82
  A 0.56 0.55 73.2 0 1 357.39 89.43
  L 357.12 88.34
  A 0.76 0.75 -19.0 0 1 357.55 87.47
  Q 363.12 85.01 365.46 84.43
  C 370.91 83.05 374.45 81.34 379.31 79.60
  C 382.09 78.61 384.96 78.48 387.45 77.43
  Q 396.13 73.74 402.57 72.04
  A 0.79 0.78 89.5 0 0 403.13 71.46
  Q 403.24 70.94 402.55 70.65
  A 0.90 0.86 -49.7 0 1 402.46 69.10
  Q 404.94 67.48 407.32 69.11
  A 1.63 1.60 -29.6 0 0 408.34 69.38
  Q 413.29 68.94 416.31 65.05
  Q 416.95 64.23 417.86 63.74
  A 0.23 0.23 0.0 0 0 417.77 63.31
  Q 401.78 62.05 382.07 60.61
  C 380.35 60.48 378.28 59.91 376.69 59.77
  Q 366.17 58.88 353.18 57.43
  C 350.23 57.10 346.68 57.24 343.43 56.86
  Q 343.50 56.05 343.89 55.44
  A 1.04 1.03 -72.8 0 1 344.75 54.98
  L 345.40 54.98
  A 0.24 0.24 0.0 0 0 345.57 54.57
  Q 345.51 54.50 345.39 54.39
  A 0.34 0.33 66.2 0 1 345.61 53.81
  L 351.46 53.81
  A 0.38 0.38 0.0 0 1 351.78 54.39
  Q 351.13 55.41 350.09 55.31
  A 0.02 0.01 -30.7 0 0 350.08 55.34
  Q 354.06 56.39 357.63 56.60
  Q 368.47 57.24 371.49 57.69
  Q 378.67 58.77 385.30 59.13
  Q 390.10 59.38 405.51 61.12
  C 410.86 61.72 416.70 61.53 422.27 61.95
  A 1.58 1.57 -62.3 0 0 423.39 61.60
  C 425.79 59.65 428.70 57.11 431.50 55.28
  C 433.49 53.99 434.41 52.13 436.48 51.24
  Q 439.09 50.11 441.72 47.08
  A 4.33 4.28 -85.6 0 1 442.63 46.29
  Q 446.23 43.98 451.10 40.32
  Q 454.37 37.87 455.83 36.56
  Q 458.81 33.87 460.70 33.07
  A 2.36 2.35 -83.6 0 0 461.71 32.26
  Q 463.25 30.10 466.13 28.65
  A 2.56 2.46 9.3 0 0 466.71 28.25
  L 468.66 26.44
  A 2.04 1.51 0.3 0 1 469.00 26.19
  Q 474.85 22.79 479.18 18.40
  A 4.07 3.83 7.6 0 1 480.21 17.66
  L 481.64 16.94
  A 5.44 5.41 -84.0 0 0 483.47 15.45
  Q 484.89 13.64 488.00 12.17
  A 2.02 1.89 10.1 0 0 488.37 11.93
  L 500.47 2.11
  Q 501.63 2.03 502.73 2.36
  Q 503.11 2.47 502.92 2.62
  Z"
/>
<path fill="#686c71" d="
  M 502.92 2.62
  Q 501.77 4.76 499.22 6.17
  Q 500.59 3.62 502.92 2.62
  Z"
/>
<path fill="#8f93aa" d="
  M 416.97 5.00
  Q 416.50 5.33 415.48 5.14
  A 0.40 0.40 0.0 0 1 415.25 4.50
  Q 416.02 3.58 416.73 3.69
  A 0.74 0.70 -57.1 0 1 416.97 5.00
  Z"
/>
<ellipse fill="#8f93aa" cx="0.00" cy="0.00" transform="translate(485.99,6.17) rotate(-23.7)" rx="1.20" ry="0.66"/>
<ellipse fill="#8f93aa" cx="0.00" cy="0.00" transform="translate(410.67,34.28) rotate(-166.8)" rx="1.25" ry="0.62"/>
<path fill="#8f93aa" d="
  M 301.10 56.50
  Q 300.93 58.08 302.02 57.95
  Q 302.34 58.07 302.47 58.31
  Q 301.42 58.61 301.43 59.58
  Q 301.43 59.85 301.53 59.90
  Q 301.73 60.00 301.83 60.10
  A 0.83 0.82 -59.1 0 1 302.03 60.93
  Q 301.67 62.12 302.01 64.32
  Q 302.20 65.57 302.44 65.27
  Q 303.44 64.04 303.02 64.47
  Q 302.69 64.81 302.36 65.15
  Q 302.32 65.19 302.16 65.35
  Q 301.95 65.57 302.05 65.74
  Q 302.49 66.56 301.44 66.87
  A 0.70 0.69 -9.1 0 0 300.93 67.56
  Q 301.03 70.05 299.77 72.68
  Q 298.43 75.48 297.58 77.54
  Q 296.91 79.20 293.97 83.02
  A 0.30 0.30 0.0 0 0 294.06 83.47
  L 298.95 86.30
  A 0.03 0.03 0.0 0 1 298.94 86.36
  Q 298.56 86.45 300.51 89.00
  A 0.40 0.38 63.2 0 0 300.91 89.14
  L 302.51 88.74
  A 0.35 0.35 0.0 0 1 302.88 89.27
  Q 301.62 91.12 299.40 92.09
  A 1.16 1.16 0.0 0 1 297.92 90.45
  L 298.30 89.79
  A 0.36 0.36 0.0 0 0 297.93 89.25
  Q 297.69 89.29 297.55 89.30
  A 0.52 0.52 0.0 0 1 296.98 88.64
  Q 297.10 88.23 296.58 87.83
  A 1.05 0.98 -26.4 0 0 295.91 87.63
  Q 293.75 87.76 291.69 86.87
  A 1.73 1.71 -53.1 0 0 289.92 87.13
  Q 285.70 90.61 280.60 92.39
  A 0.17 0.17 0.0 0 0 280.53 92.66
  Q 280.58 92.72 280.61 92.75
  A 0.41 0.41 0.0 0 1 280.41 93.41
  Q 279.47 93.70 278.35 93.59
  A 0.23 0.23 0.0 0 0 278.10 93.87
  Q 278.24 94.39 278.17 94.43
  A 0.29 0.28 -15.3 0 1 277.74 94.19
  Q 277.73 93.00 275.17 94.15
  A 0.88 0.80 -31.0 0 0 274.78 95.43
  Q 274.80 95.45 275.00 95.53
  A 0.10 0.10 0.0 0 1 275.00 95.72
  Q 274.57 95.84 274.31 95.58
  A 0.48 0.45 -69.5 0 1 274.19 95.29
  Q 274.17 94.74 273.84 94.88
  Q 273.80 94.90 273.58 95.11
  A 0.58 0.57 45.4 0 1 272.78 95.10
  Q 271.83 94.17 270.24 94.88
  A 1.42 1.42 0.0 0 1 269.33 94.97
  L 261.56 93.12
  A 1.05 0.91 -18.1 0 1 261.25 92.99
  L 252.84 88.04
  A 1.06 1.06 0.0 0 0 251.87 87.98
  Q 248.73 89.33 247.26 90.94
  A 0.72 0.45 -71.8 0 1 247.09 91.08
  L 243.72 93.07
  A 1.15 1.10 33.1 0 1 242.98 93.21
  Q 241.39 92.93 241.38 92.93
  A 0.65 0.59 -17.2 0 0 240.80 93.91
  Q 241.07 94.24 241.12 94.47
  A 0.51 0.51 0.0 0 1 240.60 95.08
  Q 239.64 95.05 237.94 96.04
  A 1.91 1.89 -88.2 0 0 237.33 96.62
  Q 235.45 99.55 232.21 100.95
  Q 229.13 102.28 228.80 102.36
  Q 225.78 103.05 225.22 100.71
  A 0.44 0.44 0.0 0 1 225.99 100.33
  Q 226.48 100.95 228.44 101.68
  A 0.78 0.76 29.4 0 0 229.29 101.45
  Q 230.43 100.03 230.07 98.19
  A 0.30 0.29 0.1 0 1 230.42 97.85
  Q 230.83 97.94 230.88 97.90
  A 0.22 0.22 0.0 0 0 230.74 97.51
  Q 229.83 97.50 229.69 96.22
  A 0.83 0.83 0.0 0 1 230.31 95.32
  L 232.71 94.73
  A 0.51 0.51 0.0 0 0 232.83 93.79
  Q 231.43 93.03 231.24 91.93
  A 0.69 0.69 0.0 0 1 232.27 91.21
  L 234.02 92.22
  A 0.79 0.79 0.0 0 1 234.40 93.02
  Q 234.25 93.88 234.93 94.51
  A 0.53 0.53 0.0 0 0 235.80 94.00
  L 235.11 91.22
  A 0.64 0.63 -2.7 0 0 234.58 90.74
  L 231.69 90.30
  A 0.75 0.75 0.0 0 1 231.05 89.69
  Q 230.97 89.29 230.86 89.01
  Q 230.58 88.26 229.94 88.33
  Q 229.29 88.40 229.01 88.94
  A 0.48 0.47 29.1 0 0 229.19 89.57
  L 230.19 90.14
  A 0.56 0.56 0.0 0 1 230.39 90.92
  Q 230.18 91.26 230.23 91.73
  A 0.15 0.15 0.0 0 1 229.97 91.84
  Q 229.85 91.70 229.73 91.68
  Q 226.91 91.14 225.85 93.61
  A 0.85 0.83 11.9 0 1 225.06 94.11
  C 222.49 94.05 217.36 93.39 213.26 92.45
  C 210.71 91.86 207.40 92.14 205.18 90.89
  A 2.18 2.12 58.1 0 0 204.05 90.61
  Q 195.95 90.78 187.08 88.57
  A 0.33 0.33 0.0 0 1 187.00 87.96
  Q 189.93 86.34 191.39 84.94
  A 3.15 3.06 -77.3 0 1 192.34 84.32
  Q 196.96 82.47 199.48 79.45
  A 0.97 0.90 -79.6 0 1 199.87 79.16
  L 202.35 78.16
  A 1.65 1.63 -76.4 0 0 202.72 77.93
  Q 208.08 73.39 213.36 70.67
  A 2.76 2.74 6.6 0 0 214.16 70.04
  C 215.52 68.45 217.88 67.73 219.68 66.50
  Q 223.60 63.82 225.65 62.22
  C 226.79 61.32 228.52 60.95 229.67 60.04
  C 231.32 58.75 231.39 57.38 233.98 56.77
  Q 239.84 55.39 245.48 56.92
  A 0.52 0.51 -6.6 0 0 246.07 56.18
  Q 244.80 53.83 246.57 53.68
  Q 249.36 50.40 252.37 46.86
  Q 258.72 39.39 267.32 35.89
  A 1.66 1.59 -54.2 0 1 267.98 35.77
  L 282.06 36.22
  A 4.09 4.08 58.2 0 1 283.59 36.58
  Q 290.84 39.91 295.62 46.06
  C 297.66 48.68 299.44 53.08 301.10 56.50
  Z
  M 233.58 88.26
  A 0.33 0.32 12.5 0 0 233.93 88.80
  Q 235.61 87.98 237.03 86.50
  A 3.56 3.36 4.7 0 1 237.78 85.90
  Q 242.32 83.13 244.85 81.36
  Q 245.36 81.01 245.40 80.07
  A 0.41 0.41 0.0 0 0 244.65 79.81
  Q 242.12 83.36 238.64 84.31
  A 0.54 0.43 12.4 0 0 238.42 84.42
  L 233.58 88.26
  Z"
/>
<path fill="#b49255" d="
  M 246.57 53.68
  Q 244.80 53.83 246.07 56.18
  A 0.52 0.51 -6.6 0 1 245.48 56.92
  Q 239.84 55.39 233.98 56.77
  C 231.39 57.38 231.32 58.75 229.67 60.04
  C 228.52 60.95 226.79 61.32 225.65 62.22
  Q 223.60 63.82 219.68 66.50
  C 217.88 67.73 215.52 68.45 214.16 70.04
  A 2.76 2.74 6.6 0 1 213.36 70.67
  Q 208.08 73.39 202.72 77.93
  A 1.65 1.63 -76.4 0 1 202.35 78.16
  L 199.87 79.16
  A 0.97 0.90 -79.6 0 0 199.48 79.45
  Q 196.96 82.47 192.34 84.32
  A 3.15 3.06 -77.3 0 0 191.39 84.94
  Q 189.93 86.34 187.00 87.96
  A 0.33 0.33 0.0 0 0 187.08 88.57
  Q 195.95 90.78 204.05 90.61
  A 2.18 2.12 58.1 0 1 205.18 90.89
  C 207.40 92.14 210.71 91.86 213.26 92.45
  C 217.36 93.39 222.49 94.05 225.06 94.11
  A 0.85 0.83 11.9 0 0 225.85 93.61
  Q 226.91 91.14 229.73 91.68
  Q 229.85 91.70 229.97 91.84
  A 0.15 0.15 0.0 0 0 230.23 91.73
  Q 230.18 91.26 230.39 90.92
  A 0.56 0.56 0.0 0 0 230.19 90.14
  L 229.19 89.57
  A 0.48 0.47 29.1 0 1 229.01 88.94
  Q 229.29 88.40 229.94 88.33
  Q 230.58 88.26 230.86 89.01
  Q 230.97 89.29 231.05 89.69
  A 0.75 0.75 0.0 0 0 231.69 90.30
  L 234.58 90.74
  A 0.64 0.63 -2.7 0 1 235.11 91.22
  L 235.80 94.00
  A 0.53 0.53 0.0 0 1 234.93 94.51
  Q 234.25 93.88 234.40 93.02
  A 0.79 0.79 0.0 0 0 234.02 92.22
  L 232.27 91.21
  A 0.69 0.69 0.0 0 0 231.24 91.93
  Q 231.43 93.03 232.83 93.79
  A 0.51 0.51 0.0 0 1 232.71 94.73
  L 230.31 95.32
  A 0.83 0.83 0.0 0 0 229.69 96.22
  Q 229.83 97.50 230.74 97.51
  A 0.22 0.22 0.0 0 1 230.88 97.90
  Q 230.83 97.94 230.42 97.85
  A 0.30 0.29 0.1 0 0 230.07 98.19
  Q 230.43 100.03 229.29 101.45
  A 0.78 0.76 29.4 0 1 228.44 101.68
  Q 226.48 100.95 225.99 100.33
  A 0.44 0.44 0.0 0 0 225.22 100.71
  Q 225.78 103.05 228.80 102.36
  Q 229.13 102.28 232.21 100.95
  Q 235.45 99.55 237.33 96.62
  A 1.91 1.89 -88.2 0 1 237.94 96.04
  Q 239.64 95.05 240.60 95.08
  A 0.51 0.51 0.0 0 0 241.12 94.47
  Q 241.07 94.24 240.80 93.91
  A 0.65 0.59 -17.2 0 1 241.38 92.93
  Q 241.39 92.93 242.98 93.21
  A 1.15 1.10 33.1 0 0 243.72 93.07
  L 247.09 91.08
  A 0.72 0.45 -71.8 0 0 247.26 90.94
  Q 248.73 89.33 251.87 87.98
  A 1.06 1.06 0.0 0 1 252.84 88.04
  L 261.25 92.99
  A 1.05 0.91 -18.1 0 0 261.56 93.12
  L 269.33 94.97
  A 1.42 1.42 0.0 0 0 270.24 94.88
  Q 271.83 94.17 272.78 95.10
  A 0.58 0.57 45.4 0 0 273.58 95.11
  Q 273.80 94.90 273.84 94.88
  Q 274.17 94.74 274.19 95.29
  A 0.48 0.45 -69.5 0 0 274.31 95.58
  Q 274.57 95.84 275.00 95.72
  A 0.10 0.10 0.0 0 0 275.00 95.53
  Q 274.80 95.45 274.78 95.43
  A 0.88 0.80 -31.0 0 1 275.17 94.15
  Q 277.73 93.00 277.74 94.19
  A 0.29 0.28 -15.3 0 0 278.17 94.43
  Q 278.24 94.39 278.10 93.87
  A 0.23 0.23 0.0 0 1 278.35 93.59
  Q 279.47 93.70 280.41 93.41
  A 0.41 0.41 0.0 0 0 280.61 92.75
  Q 280.58 92.72 280.53 92.66
  A 0.17 0.17 0.0 0 1 280.60 92.39
  Q 285.70 90.61 289.92 87.13
  A 1.73 1.71 -53.1 0 1 291.69 86.87
  Q 293.75 87.76 295.91 87.63
  A 1.05 0.98 -26.4 0 1 296.58 87.83
  Q 297.10 88.23 296.98 88.64
  A 0.52 0.52 0.0 0 0 297.55 89.30
  Q 297.69 89.29 297.93 89.25
  A 0.36 0.36 0.0 0 1 298.30 89.79
  L 297.92 90.45
  A 1.16 1.16 0.0 0 0 299.40 92.09
  Q 301.62 91.12 302.88 89.27
  A 0.35 0.35 0.0 0 0 302.51 88.74
  L 300.91 89.14
  A 0.40 0.38 63.2 0 1 300.51 89.00
  Q 298.56 86.45 298.94 86.36
  A 0.03 0.03 0.0 0 0 298.95 86.30
  L 294.06 83.47
  A 0.30 0.30 0.0 0 1 293.97 83.02
  Q 296.91 79.20 297.58 77.54
  Q 298.43 75.48 299.77 72.68
  Q 301.03 70.05 300.93 67.56
  A 0.70 0.69 -9.1 0 1 301.44 66.87
  Q 302.49 66.56 302.05 65.74
  Q 301.95 65.57 302.16 65.35
  Q 302.32 65.19 302.36 65.15
  Q 302.69 64.81 303.02 64.47
  Q 303.44 64.04 302.44 65.27
  Q 302.20 65.57 302.01 64.32
  Q 301.67 62.12 302.03 60.93
  A 0.83 0.82 -59.1 0 0 301.83 60.10
  Q 301.73 60.00 301.53 59.90
  Q 301.43 59.85 301.43 59.58
  Q 301.42 58.61 302.47 58.31
  L 308.77 58.73
  Q 309.10 59.38 310.07 58.83
  Q 311.76 58.75 313.03 57.21
  Q 313.28 57.16 313.46 57.25
  Q 313.66 57.35 313.67 57.62
  Q 313.72 58.77 314.12 60.18
  A 0.53 0.53 0.0 0 1 313.30 60.76
  Q 312.40 60.12 311.15 60.33
  A 0.07 0.06 85.3 0 0 311.10 60.40
  L 311.10 60.70
  A 0.21 0.21 0.0 0 0 311.33 60.91
  Q 313.53 60.74 314.03 62.69
  Q 314.54 64.64 314.87 66.52
  Q 315.08 67.69 314.39 68.10
  A 0.32 0.32 0.0 0 0 314.40 68.65
  L 314.68 68.82
  A 0.29 0.29 0.0 0 1 314.71 69.31
  Q 314.44 69.51 314.80 69.37
  A 0.72 0.65 -15.0 0 1 315.74 69.85
  Q 315.91 70.90 315.32 71.56
  Q 313.45 73.63 313.27 75.58
  A 1.40 1.12 -89.2 0 0 314.47 77.12
  Q 314.76 77.10 315.13 76.46
  A 1.41 1.28 -39.9 0 1 317.61 76.56
  Q 317.84 77.39 318.03 77.70
  A 0.65 0.65 0.0 0 0 319.21 77.56
  Q 319.49 76.65 319.04 75.77
  A 1.26 1.25 -52.2 0 1 318.94 74.93
  Q 319.40 72.91 320.94 72.70
  A 1.04 1.02 10.8 0 0 321.69 72.20
  L 322.71 70.43
  A 0.83 0.82 6.5 0 0 321.75 69.23
  Q 320.07 69.74 319.01 69.60
  A 0.99 0.97 -5.8 0 1 318.21 68.96
  Q 316.29 63.76 318.08 60.15
  L 326.85 60.44
  A 1.37 1.36 -60.9 0 0 327.64 60.21
  L 332.66 56.76
  Q 336.45 57.02 339.99 57.31
  Q 340.80 57.37 342.02 56.52
  Q 341.33 58.34 342.68 59.32
  A 1.48 1.46 -80.3 0 1 343.24 60.12
  Q 344.04 62.92 341.85 64.66
  A 0.24 0.24 0.0 0 0 341.83 65.02
  L 342.39 65.58
  A 0.03 0.03 0.0 0 0 342.44 65.55
  Q 342.27 65.19 343.36 64.99
  A 1.14 1.04 -87.2 0 1 344.53 66.41
  Q 344.46 66.67 344.35 66.95
  A 0.40 0.39 1.4 0 0 344.84 67.46
  Q 345.43 67.27 345.51 67.30
  A 0.28 0.27 47.5 0 1 345.49 67.83
  L 337.21 69.88
  A 0.42 0.42 0.0 0 0 337.23 70.70
  Q 343.05 71.83 346.27 68.13
  A 0.50 0.50 0.0 0 1 347.15 68.50
  Q 347.03 69.92 348.00 69.96
  Q 347.76 70.53 347.77 71.14
  Q 346.90 71.35 347.41 72.26
  A 1.44 1.42 -0.5 0 0 348.01 72.84
  Q 348.67 73.19 349.07 73.68
  A 0.85 0.85 0.0 0 1 349.06 74.75
  Q 348.77 75.08 348.54 75.23
  Q 348.11 75.51 348.22 75.88
  Q 348.31 76.19 348.81 76.38
  Q 347.95 76.86 348.31 78.01
  A 1.05 1.04 -23.8 0 0 349.84 78.60
  Q 350.46 78.23 350.31 76.99
  L 354.97 84.77
  A 1.03 1.02 40.8 0 1 355.04 85.66
  Q 354.48 87.04 354.61 87.87
  Q 353.49 88.71 353.75 89.49
  Q 353.28 89.02 352.75 89.14
  Q 352.37 89.23 352.45 89.81
  L 347.84 82.20
  A 2.83 2.57 -72.0 0 1 347.57 81.60
  Q 346.15 77.27 343.47 73.01
  A 1.50 1.49 -29.3 0 0 341.53 72.47
  Q 338.16 74.16 335.36 77.13
  A 2.62 2.58 6.2 0 1 334.69 77.66
  L 332.11 79.10
  A 3.22 3.01 5.2 0 0 331.43 79.63
  Q 328.84 82.30 324.95 84.40
  Q 324.70 84.53 319.32 88.72
  A 1.51 1.50 -20.6 0 0 318.73 90.01
  Q 318.89 92.62 321.36 96.19
  Q 322.95 98.49 326.01 105.87
  A 1.98 1.96 -83.1 0 0 326.67 106.72
  L 327.82 107.58
  A 0.51 0.51 0.0 0 1 327.56 108.50
  Q 327.43 108.51 327.28 108.51
  Q 326.61 107.88 325.68 107.67
  Q 319.09 106.22 311.01 105.33
  L 313.90 102.01
  A 2.64 2.58 -80.6 0 1 314.80 101.35
  Q 318.03 99.96 320.63 97.58
  A 0.96 0.96 0.0 0 0 320.70 96.25
  L 320.68 96.22
  A 0.93 0.92 -39.9 0 0 319.41 96.11
  L 307.39 105.64
  A 1.52 1.47 -63.3 0 1 306.47 105.96
  L 304.72 105.96
  A 0.76 0.75 -80.1 0 0 304.01 106.46
  Q 302.94 109.46 300.58 109.83
  A 0.78 0.78 0.0 0 0 300.18 111.19
  C 301.57 112.41 302.09 113.60 302.19 115.38
  Q 302.26 116.63 302.58 116.94
  Q 303.97 118.27 304.75 120.68
  A 1.07 1.07 0.0 0 0 306.52 121.10
  Q 309.09 118.52 311.95 120.30
  A 1.37 1.29 63.4 0 0 312.44 120.48
  L 317.68 121.26
  A 0.80 0.80 0.0 0 1 317.87 122.79
  Q 315.06 123.96 313.51 126.57
  Q 312.66 127.99 309.49 128.78
  A 0.54 0.53 80.6 0 1 308.84 128.31
  Q 308.75 127.47 309.23 126.86
  C 310.31 125.45 310.05 123.91 308.71 122.86
  A 0.66 0.65 -73.8 0 0 307.66 123.44
  Q 307.89 125.99 306.86 128.54
  A 1.13 1.11 85.9 0 1 306.41 129.07
  L 303.82 130.67
  A 1.10 1.05 -87.9 0 0 303.46 131.02
  Q 301.68 133.58 301.14 133.90
  Q 297.70 135.89 295.14 138.73
  Q 294.96 138.93 295.09 139.47
  A 0.42 0.42 0.0 0 1 294.94 139.91
  L 291.56 142.60
  A 0.40 0.39 -29.6 0 1 290.95 142.44
  Q 290.73 141.89 290.36 141.54
  A 0.21 0.21 0.0 0 0 290.07 141.53
  L 290.06 141.54
  A 0.13 0.13 0.0 0 0 290.04 141.72
  Q 291.02 143.04 291.13 144.32
  A 0.50 0.50 0.0 0 1 290.25 144.68
  Q 289.79 144.14 289.46 143.24
  A 0.07 0.06 34.0 0 0 289.33 143.25
  Q 289.35 143.34 289.34 143.41
  Q 289.26 143.72 289.28 143.73
  Q 290.04 144.33 290.01 144.74
  A 0.35 0.34 -62.7 0 1 289.40 144.94
  Q 286.31 141.12 282.44 138.79
  A 0.76 0.75 -77.2 0 0 281.31 139.51
  Q 281.85 145.30 285.00 150.50
  A 5.08 4.93 -65.2 0 1 285.67 152.41
  Q 286.09 155.62 287.45 159.21
  A 4.53 4.47 -58.7 0 1 287.73 160.39
  C 288.01 162.91 288.80 166.15 290.35 168.59
  Q 291.29 170.07 290.74 172.11
  A 0.50 0.50 0.0 0 1 289.80 172.17
  L 287.22 165.72
  Q 287.21 165.68 287.20 165.64
  Q 284.92 154.47 283.47 151.41
  Q 281.09 146.38 279.67 140.58
  A 0.39 0.38 38.9 0 0 278.91 140.66
  Q 278.83 143.93 279.88 146.54
  Q 280.46 147.98 280.72 148.73
  Q 284.33 159.00 287.05 172.33
  A 0.16 0.15 -14.1 0 1 286.94 172.51
  L 286.89 172.52
  A 0.17 0.17 0.0 0 1 286.69 172.41
  L 279.80 152.35
  A 0.15 0.15 0.0 0 0 279.51 152.37
  Q 279.10 155.19 279.94 158.06
  Q 282.47 166.67 286.25 177.20
  A 0.35 0.34 -26.7 0 1 286.11 177.60
  L 285.85 177.76
  A 0.52 0.52 0.0 0 1 285.10 177.50
  Q 283.35 172.86 279.06 169.92
  A 0.83 0.83 0.0 0 0 277.79 170.80
  L 278.87 175.15
  A 0.31 0.31 0.0 0 0 279.46 175.19
  L 279.69 174.59
  A 0.75 0.75 0.0 0 1 281.12 175.01
  Q 280.48 178.24 281.14 181.13
  A 0.71 0.71 0.0 0 0 282.00 181.66
  L 282.25 181.60
  A 0.22 0.21 83.2 0 0 282.41 181.39
  L 282.41 177.99
  A 0.34 0.34 0.0 0 1 283.03 177.80
  Q 284.00 179.25 285.75 183.43
  Q 285.91 183.82 285.96 184.21
  Q 286.02 184.82 286.83 185.17
  A 0.92 0.85 26.3 0 1 287.30 186.39
  Q 286.48 187.84 287.08 190.21
  A 1.14 1.14 0.0 0 0 287.63 190.93
  Q 288.78 191.59 289.26 193.28
  A 1.37 1.33 11.6 0 0 289.75 194.00
  Q 290.10 194.26 290.63 194.37
  A 0.56 0.55 8.6 0 1 291.09 194.99
  Q 290.81 197.13 293.18 198.83
  A 1.41 1.39 4.2 0 1 293.63 199.34
  L 295.49 203.01
  A 0.65 0.63 88.0 0 0 295.78 203.29
  Q 297.50 204.08 297.19 206.41
  A 0.28 0.27 72.2 0 0 297.65 206.65
  Q 299.36 205.02 300.25 205.31
  A 0.78 0.78 0.0 0 1 300.26 206.78
  Q 299.94 206.90 298.94 207.05
  A 0.72 0.72 0.0 0 0 298.73 208.40
  Q 299.78 208.92 300.78 208.75
  A 0.78 0.75 -85.5 0 1 301.61 209.76
  Q 301.24 210.90 301.98 212.20
  Q 302.15 212.49 302.61 212.47
  Q 303.00 212.45 303.04 211.94
  A 0.05 0.03 76.7 0 1 303.05 211.91
  L 308.70 205.71
  A 1.89 1.84 11.0 0 1 309.54 205.16
  Q 312.21 204.28 314.86 201.82
  A 0.43 0.43 0.0 0 1 315.53 202.35
  Q 314.45 204.26 310.10 206.17
  A 0.40 0.39 46.1 0 0 310.09 206.89
  Q 310.10 206.89 310.35 206.89
  A 0.54 0.54 0.0 0 1 310.88 207.60
  Q 310.77 207.93 310.81 208.17
  A 0.25 0.25 0.0 0 0 311.29 208.24
  Q 311.35 208.11 311.32 207.86
  A 1.20 1.12 28.7 0 1 313.53 207.30
  Q 313.81 207.79 313.87 208.04
  A 0.42 0.42 0.0 0 0 314.68 208.04
  Q 315.16 206.26 315.99 205.96
  A 0.50 0.50 0.0 0 0 316.27 205.68
  L 317.68 202.11
  A 0.34 0.33 9.7 0 1 318.00 201.89
  L 318.44 201.89
  A 0.38 0.38 0.0 0 1 318.79 202.43
  Q 317.91 204.44 317.77 206.24
  Q 313.09 211.34 307.03 215.27
  A 1.54 1.54 0.0 0 0 306.37 216.94
  L 307.58 221.83
  A 0.86 0.86 0.0 0 1 306.49 222.86
  Q 294.15 218.97 286.31 208.04
  Q 286.65 206.16 289.15 205.90
  A 0.52 0.52 0.0 0 0 289.34 204.93
  Q 288.16 204.30 287.08 205.32
  Q 284.06 208.18 280.04 211.14
  L 223.91 195.47
  A 0.74 0.72 41.2 0 0 223.50 195.49
  Q 222.77 195.74 222.20 196.98
  C 223.27 193.71 225.41 190.50 224.97 187.01
  Q 227.55 181.33 231.29 176.54
  A 0.70 0.70 0.0 0 0 230.38 175.51
  L 229.51 176.05
  A 0.68 0.68 0.0 0 1 228.72 174.94
  L 232.04 172.31
  A 1.05 1.05 0.0 0 1 232.95 172.12
  Q 236.12 172.92 238.85 172.64
  Q 240.37 172.27 240.20 171.55
  Q 238.88 165.89 234.68 162.60
  Q 232.26 160.71 227.95 159.06
  A 1.22 1.21 5.9 0 1 227.20 158.15
  L 226.64 155.11
  A 0.17 0.15 -87.1 0 0 226.55 155.00
  L 226.33 154.90
  A 0.31 0.31 0.0 0 0 226.04 155.26
  Q 226.50 158.70 223.81 159.36
  A 1.18 1.17 74.0 0 0 222.98 160.87
  L 224.89 166.63
  Q 223.36 166.75 221.96 166.36
  A 0.80 0.80 0.0 0 1 221.37 165.59
  L 221.37 163.59
  A 0.49 0.49 0.0 0 0 220.45 163.34
  Q 219.61 164.78 220.10 165.81
  A 0.69 0.69 0.0 0 1 219.91 166.64
  L 217.83 168.29
  A 1.62 1.61 34.5 0 1 216.34 168.56
  Q 214.07 167.85 213.65 169.41
  C 213.30 170.68 212.87 171.18 212.22 172.17
  Q 206.04 173.49 200.10 176.21
  A 0.60 0.60 0.0 0 0 200.05 177.27
  L 200.58 177.58
  A 2.21 2.20 -40.7 0 0 202.49 177.72
  L 213.24 173.44
  Q 216.49 175.00 221.10 173.83
  A 3.05 2.98 -41.0 0 1 222.97 173.94
  L 224.44 174.52
  A 1.73 1.72 13.2 0 1 225.53 176.27
  C 225.27 179.47 225.47 183.60 221.22 184.22
  Q 218.37 184.32 215.72 183.33
  A 1.89 1.87 -38.8 0 0 214.75 183.23
  Q 210.64 183.91 207.02 182.18
  Q 206.67 182.01 206.20 182.11
  A 0.56 0.55 78.9 0 0 205.77 182.76
  L 205.90 183.40
  Q 205.68 182.78 204.98 182.94
  Q 205.14 182.42 204.98 182.06
  Q 204.73 181.46 204.23 181.76
  C 203.74 182.07 203.69 182.80 203.00 183.17
  Q 200.73 184.36 198.47 185.79
  Q 199.62 182.64 196.75 181.20
  Q 195.75 180.70 193.15 179.85
  Q 194.08 179.61 195.53 179.56
  Q 195.88 179.55 196.04 179.34
  Q 196.29 179.00 196.14 178.60
  A 0.42 0.41 82.4 0 0 195.78 178.32
  Q 193.50 178.19 193.02 177.59
  Q 191.94 173.37 189.04 169.48
  Q 187.01 166.76 186.89 166.59
  Q 175.13 149.71 163.18 133.58
  Q 162.69 132.92 160.98 130.99
  A 1.11 1.11 0.0 0 0 160.16 130.63
  L 159.70 130.64
  C 159.76 130.28 160.04 129.85 160.36 129.67
  Q 163.41 127.97 166.24 125.72
  A 0.49 0.49 0.0 0 0 166.18 124.91
  L 165.83 124.71
  A 0.44 0.44 0.0 0 0 165.36 124.73
  L 159.49 128.68
  Q 155.38 122.52 151.43 116.31
  Q 149.27 112.90 148.32 109.02
  A 2.73 2.73 0.0 0 0 147.03 107.31
  L 143.53 105.28
  A 0.59 0.58 38.6 0 1 143.42 104.34
  Q 145.52 102.36 148.50 102.35
  A 0.76 0.71 61.9 0 1 148.94 102.50
  L 152.18 104.93
  A 1.44 1.39 -25.1 0 0 153.00 105.21
  Q 154.41 105.24 156.53 104.02
  Q 161.01 101.46 165.36 98.62
  Q 189.94 82.62 213.41 67.18
  Q 221.16 62.08 228.57 56.65
  A 1.58 1.57 -27.9 0 0 229.12 54.87
  Q 228.18 52.19 225.80 50.55
  A 0.28 0.28 0.0 0 1 225.82 50.08
  C 229.27 48.10 231.56 46.92 235.53 46.60
  Q 236.74 46.50 240.95 46.11
  A 0.65 0.64 -10.9 0 1 241.63 46.57
  C 242.63 49.96 241.67 52.55 246.57 53.68
  Z
  M 332.0511 73.4943
  A 0.97 0.69 -177.3 0 0 332.9875 74.2292
  A 0.97 0.69 -177.3 0 0 333.9889 73.5857
  A 0.97 0.69 -177.3 0 0 333.0525 72.8508
  A 0.97 0.69 -177.3 0 0 332.0511 73.4943
  Z
  M 314.38 79.92
  Q 314.50 80.65 317.69 80.16
  Q 318.47 80.04 318.34 79.26
  Q 318.21 78.48 317.44 78.61
  Q 314.26 79.18 314.38 79.92
  Z
  M 321.1359 81.0793
  A 1.13 0.95 -167.7 0 0 322.0376 82.2482
  A 1.13 0.95 -167.7 0 0 323.3441 81.5607
  A 1.13 0.95 -167.7 0 0 322.4424 80.3918
  A 1.13 0.95 -167.7 0 0 321.1359 81.0793
  Z
  M 309.65 89.19
  A 1.20 1.13 -39.2 0 0 311.95 89.35
  Q 312.13 88.66 311.34 88.29
  A 0.87 0.87 0.0 0 0 310.67 88.27
  Q 309.64 88.70 309.65 89.19
  Z
  M 170.46 102.68
  L 166.64 102.80
  A 1.00 0.95 59.3 0 0 166.23 104.62
  Q 166.45 104.76 167.37 104.63
  Q 167.94 104.54 168.51 104.71
  Q 172.36 105.86 177.51 105.97
  C 180.60 106.04 181.16 104.42 183.34 103.22
  Q 186.25 101.62 189.58 99.16
  A 0.54 0.54 0.0 0 0 189.36 98.20
  Q 187.21 97.75 187.69 98.61
  L 177.17 95.89
  A 1.60 1.60 0.0 0 0 175.86 96.13
  L 167.51 101.90
  A 0.22 0.21 31.5 0 0 167.61 102.29
  L 170.46 102.68
  Z
  M 182.92 109.45
  C 185.90 110.74 189.17 111.99 191.63 109.82
  Q 194.28 107.48 197.13 106.03
  A 0.57 0.56 -27.0 0 0 197.38 105.28
  L 197.37 105.26
  A 0.55 0.53 66.3 0 0 196.70 104.99
  Q 193.08 106.30 190.32 108.92
  A 2.64 2.63 -59.2 0 1 187.83 109.55
  Q 184.54 108.68 183.09 108.64
  A 0.42 0.42 0.0 0 0 182.92 109.45
  Z
  M 157.53 112.90
  Q 157.37 113.61 160.46 114.35
  Q 178.47 118.67 178.70 117.62
  Q 178.94 116.58 160.80 112.83
  Q 157.69 112.19 157.53 112.90
  Z
  M 277.85 113.89
  A 1.12 1.12 0.0 0 0 276.73 112.77
  A 1.12 1.12 0.0 0 0 275.61 113.89
  A 1.12 1.12 0.0 0 0 276.73 115.01
  A 1.12 1.12 0.0 0 0 277.85 113.89
  Z
  M 186.48 119.19
  Q 188.46 120.14 191.09 120.02
  A 1.65 1.62 -34.9 0 1 191.80 120.14
  L 196.83 122.12
  A 0.73 0.63 49.1 0 0 197.11 122.16
  Q 201.10 121.72 205.82 123.87
  A 0.50 0.50 0.0 0 0 206.52 123.50
  L 206.55 123.31
  A 0.63 0.63 0.0 0 0 206.12 122.63
  L 200.25 120.73
  A 0.32 0.24 -26.6 0 0 200.14 120.71
  Q 195.10 120.48 191.56 118.82
  A 1.56 1.54 -30.0 0 0 190.99 118.67
  L 186.73 118.28
  A 0.48 0.48 0.0 0 0 186.48 119.19
  Z
  M 181.99 118.93
  A 0.54 0.53 62.1 0 0 181.73 119.80
  Q 182.83 121.04 183.37 120.34
  A 0.86 0.86 0.0 0 0 182.84 118.97
  Q 182.25 118.87 181.99 118.93
  Z
  M 195.80 123.37
  Q 195.21 122.98 193.87 122.82
  A 0.30 0.30 0.0 0 0 193.63 123.33
  Q 194.34 124.05 195.69 123.85
  A 0.26 0.26 0.0 0 0 195.80 123.37
  Z
  M 267.8405 126.4565
  A 1.82 0.77 -65.3 0 0 266.3804 127.7882
  A 1.82 0.77 -65.3 0 0 266.3195 129.7635
  A 1.82 0.77 -65.3 0 0 267.7796 128.4318
  A 1.82 0.77 -65.3 0 0 267.8405 126.4565
  Z
  M 240.34 128.32
  L 237.15 128.32
  A 0.67 0.66 -72.0 0 0 236.61 128.60
  Q 235.86 129.63 235.02 129.34
  Q 234.04 128.99 233.22 129.14
  A 0.49 0.48 63.7 0 0 232.95 129.94
  L 233.39 130.44
  A 0.85 0.84 -35.6 0 0 234.43 130.61
  Q 235.27 130.14 236.16 130.97
  A 0.59 0.58 -45.4 0 0 236.96 130.96
  Q 238.41 129.56 240.39 129.63
  A 0.49 0.49 0.0 0 0 240.89 129.14
  L 240.89 128.88
  A 0.56 0.55 90.0 0 0 240.34 128.32
  Z
  M 253.7911 130.6721
  A 0.95 0.78 -30.2 0 0 252.5776 130.4759
  A 0.95 0.78 -30.2 0 0 252.1489 131.6279
  A 0.95 0.78 -30.2 0 0 253.3624 131.8241
  A 0.95 0.78 -30.2 0 0 253.7911 130.6721
  Z
  M 249.85 144.84
  A 0.64 0.63 1.6 0 0 250.61 144.13
  Q 250.41 142.87 249.83 142.50
  Q 249.36 142.20 248.31 143.07
  C 246.41 144.64 244.78 145.27 243.12 146.88
  Q 241.64 148.32 238.66 149.59
  A 0.44 0.44 0.0 0 0 238.61 150.37
  L 239.14 150.68
  A 1.39 1.39 0.0 0 0 240.70 150.56
  Q 245.11 147.11 247.29 145.54
  Q 248.62 144.58 249.85 144.84
  Z
  M 254.28 143.33
  A 0.73 0.54 52.7 0 0 254.30 144.57
  Q 255.07 145.00 255.47 144.73
  A 0.65 0.48 -41.7 0 0 255.66 143.81
  Q 255.01 143.34 254.28 143.33
  Z
  M 218.61 162.29
  L 217.89 161.26
  A 0.21 0.21 0.0 0 0 217.60 161.21
  L 217.44 161.32
  A 12.23 0.80 -34.9 0 0 207.86 168.97
  L 207.91 169.04
  A 12.23 0.80 -34.9 0 0 218.40 162.70
  L 218.56 162.58
  A 0.21 0.21 0.0 0 0 218.61 162.29
  Z
  M 202.01 178.05
  Q 201.29 177.88 200.67 177.96
  A 0.36 0.36 0.0 0 0 200.35 178.27
  L 200.30 178.61
  A 0.35 0.34 -84.9 0 0 200.63 179.01
  Q 201.52 179.03 202.06 178.84
  A 0.41 0.41 0.0 0 0 202.01 178.05
  Z
  M 230.14 185.65
  Q 229.61 182.28 229.58 181.69
  A 0.06 0.06 0.0 0 0 229.47 181.68
  Q 228.21 185.49 229.47 189.70
  C 230.31 192.49 231.19 195.59 234.29 195.57
  A 1.07 1.07 0.0 0 0 235.14 195.15
  Q 236.16 193.82 234.88 191.97
  Q 232.38 188.33 231.97 187.07
  A 1.30 1.27 3.0 0 0 231.27 186.31
  Q 231.19 186.27 230.40 185.42
  A 0.16 0.06 -52.3 0 0 230.25 185.51
  Q 230.22 185.55 230.21 185.60
  A 0.06 0.03 -60.0 0 1 230.14 185.65
  Z
  M 282.6301 186.9295
  A 0.77 0.64 -24.6 0 0 281.6636 186.6681
  A 0.77 0.64 -24.6 0 0 281.2299 187.5705
  A 0.77 0.64 -24.6 0 0 282.1964 187.8319
  A 0.77 0.64 -24.6 0 0 282.6301 186.9295
  Z"
/>
<ellipse fill="#8f93aa" cx="0.00" cy="0.00" transform="translate(349.35,51.74) rotate(-12.5)" rx="1.27" ry="0.59"/>
<path fill="#8f93aa" d="
  M 336.28 54.53
  Q 336.43 55.51 337.45 55.45
  C 338.98 55.37 339.48 53.87 341.51 54.40
  Q 342.55 54.68 342.42 56.27
  L 342.02 56.52
  Q 340.80 57.37 339.99 57.31
  Q 336.45 57.02 332.66 56.76
  L 336.28 54.53
  Z"
/>
<path fill="#8f93aa" d="
  M 318.08 60.15
  Q 316.29 63.76 318.21 68.96
  A 0.99 0.97 -5.8 0 0 319.01 69.60
  Q 320.07 69.74 321.75 69.23
  A 0.83 0.82 6.5 0 1 322.71 70.43
  L 321.69 72.20
  A 1.04 1.02 10.8 0 1 320.94 72.70
  Q 319.40 72.91 318.94 74.93
  A 1.26 1.25 -52.2 0 0 319.04 75.77
  Q 319.49 76.65 319.21 77.56
  A 0.65 0.65 0.0 0 1 318.03 77.70
  Q 317.84 77.39 317.61 76.56
  A 1.41 1.28 -39.9 0 0 315.13 76.46
  Q 314.76 77.10 314.47 77.12
  A 1.40 1.12 -89.2 0 1 313.27 75.58
  Q 313.45 73.63 315.32 71.56
  Q 315.91 70.90 315.74 69.85
  A 0.72 0.65 -15.0 0 0 314.80 69.37
  Q 314.44 69.51 314.71 69.31
  A 0.29 0.29 0.0 0 0 314.68 68.82
  L 314.40 68.65
  A 0.32 0.32 0.0 0 1 314.39 68.10
  Q 315.08 67.69 314.87 66.52
  Q 314.54 64.64 314.03 62.69
  Q 313.53 60.74 311.33 60.91
  A 0.21 0.21 0.0 0 1 311.10 60.70
  L 311.10 60.40
  A 0.07 0.06 85.3 0 1 311.15 60.33
  Q 312.40 60.12 313.30 60.76
  A 0.53 0.53 0.0 0 0 314.12 60.18
  Q 313.72 58.77 313.67 57.62
  Q 313.66 57.35 313.46 57.25
  Q 313.28 57.16 313.03 57.21
  L 313.49 56.76
  Q 313.66 56.78 313.82 56.72
  A 0.25 0.25 0.0 0 0 313.98 56.46
  L 313.90 55.69
  Q 314.02 54.00 315.63 55.63
  Q 317.85 57.89 318.08 60.15
  Z"
/>
<path fill="#686c71" d="
  M 313.90 55.69
  L 313.98 56.46
  A 0.25 0.25 0.0 0 1 313.82 56.72
  Q 313.66 56.78 313.49 56.76
  L 313.90 55.69
  Z"
/>
<path fill="#b49255" d="
  M 302.02 57.95
  Q 300.93 58.08 301.10 56.50
  L 302.02 57.95
  Z"
/>
<ellipse fill="#8f93aa" cx="0.00" cy="0.00" transform="translate(418.06,57.22) rotate(-10.5)" rx="1.03" ry="0.58"/>
<path fill="#8f93aa" d="
  M 310.07 58.83
  Q 309.10 59.38 308.77 58.73
  L 310.07 58.83
  Z"
/>
<path fill="#679ee7" d="
  M 347.77 71.14
  Q 347.76 70.53 348.00 69.96
  L 351.32 68.21
  A 0.60 0.60 0.0 0 1 352.07 69.12
  C 351.24 70.13 349.29 72.09 347.77 71.14
  Z"
/>
<path fill="#686c71" d="
  M 352.45 89.81
  Q 352.67 90.09 352.70 90.45
  L 354.91 95.97
  A 0.89 0.88 61.4 0 1 354.61 97.01
  L 347.35 102.30
  A 4.12 3.94 -3.9 0 0 346.29 103.46
  L 346.01 103.92
  A 2.01 1.96 7.4 0 1 344.81 104.82
  Q 342.26 105.47 342.63 106.53
  A 0.15 0.15 0.0 0 0 342.82 106.62
  Q 342.97 106.56 343.03 106.57
  A 0.22 0.22 0.0 0 1 343.16 106.93
  Q 340.78 109.77 338.02 109.83
  Q 334.75 109.89 333.64 110.11
  C 331.62 109.90 328.60 110.40 327.28 108.51
  Q 327.43 108.51 327.56 108.50
  A 0.51 0.51 0.0 0 0 327.82 107.58
  L 326.67 106.72
  A 1.98 1.96 -83.1 0 1 326.01 105.87
  Q 322.95 98.49 321.36 96.19
  Q 318.89 92.62 318.73 90.01
  A 1.51 1.50 -20.6 0 1 319.32 88.72
  Q 324.70 84.53 324.95 84.40
  Q 328.84 82.30 331.43 79.63
  A 3.22 3.01 5.2 0 1 332.11 79.10
  L 334.69 77.66
  A 2.62 2.58 6.2 0 0 335.36 77.13
  Q 338.16 74.16 341.53 72.47
  A 1.50 1.49 -29.3 0 1 343.47 73.01
  Q 346.15 77.27 347.57 81.60
  A 2.83 2.57 -72.0 0 0 347.84 82.20
  L 352.45 89.81
  Z"
/>
<ellipse fill="#8f93aa" cx="0.00" cy="0.00" transform="translate(333.02,73.54) rotate(-177.3)" rx="0.97" ry="0.69"/>
<path fill="#8f93aa" d="
  M 350.31 76.99
  Q 350.46 78.23 349.84 78.60
  A 1.05 1.04 -23.8 0 1 348.31 78.01
  Q 347.95 76.86 348.81 76.38
  Q 349.80 76.04 350.31 76.99
  Z"
/>
<path fill="#8f93aa" d="
  M 318.34 79.26
  Q 318.47 80.04 317.69 80.16
  Q 314.50 80.65 314.38 79.92
  Q 314.26 79.18 317.44 78.61
  Q 318.21 78.48 318.34 79.26
  Z"
/>
<path fill="#b49255" d="
  M 233.58 88.26
  L 238.42 84.42
  A 0.54 0.43 12.4 0 1 238.64 84.31
  Q 242.12 83.36 244.65 79.81
  A 0.41 0.41 0.0 0 1 245.40 80.07
  Q 245.36 81.01 244.85 81.36
  Q 242.32 83.13 237.78 85.90
  A 3.56 3.36 4.7 0 0 237.03 86.50
  Q 235.61 87.98 233.93 88.80
  A 0.33 0.32 12.5 0 1 233.58 88.26
  Z"
/>
<ellipse fill="#8f93aa" cx="0.00" cy="0.00" transform="translate(322.24,81.32) rotate(-167.7)" rx="1.13" ry="0.95"/>
<path fill="#8f93aa" d="
  M 353.75 89.49
  Q 353.49 88.71 354.61 87.87
  Q 355.35 87.73 355.64 87.86
  Q 356.87 88.41 355.67 89.53
  Q 354.91 90.23 353.75 89.49
  Z"
/>
<path fill="#8f93aa" d="
  M 309.65 89.19
  Q 309.64 88.70 310.67 88.27
  A 0.87 0.87 0.0 0 1 311.34 88.29
  Q 312.13 88.66 311.95 89.35
  A 1.20 1.13 -39.2 0 1 309.65 89.19
  Z"
/>
<path fill="#8f93aa" d="
  M 379.64 111.67
  L 380.36 115.96
  A 1.91 1.88 44.5 0 1 380.37 116.54
  C 379.62 122.27 380.03 127.01 375.59 129.96
  A 1.08 1.08 0.0 0 0 375.70 131.83
  L 377.87 132.94
  A 0.68 0.67 19.9 0 0 378.84 132.49
  Q 378.91 132.24 379.18 132.06
  A 0.95 0.95 0.0 0 1 380.02 131.94
  C 382.17 132.68 385.87 133.56 388.50 132.67
  A 0.23 0.22 -46.7 0 0 388.49 132.24
  L 382.44 130.56
  A 0.86 0.86 0.0 0 1 382.40 128.92
  Q 383.45 128.57 385.44 129.14
  A 0.37 0.37 0.0 0 0 385.91 128.69
  C 385.37 126.63 386.25 125.51 385.34 123.58
  Q 384.28 121.34 386.24 119.24
  Q 388.43 116.90 390.83 119.09
  Q 393.62 121.63 395.00 122.32
  C 396.75 123.20 397.72 124.85 399.48 125.61
  A 0.67 0.67 0.0 0 0 400.40 124.84
  Q 400.27 124.27 400.38 124.07
  A 0.56 0.55 -55.9 0 1 401.20 123.91
  Q 403.72 125.90 404.23 124.00
  L 412.88 128.65
  A 0.63 0.63 0.0 0 1 412.97 129.70
  L 403.54 137.17
  A 1.38 1.37 -56.4 0 0 404.02 139.57
  L 404.43 139.68
  A 0.58 0.58 0.0 0 1 404.78 140.52
  C 403.46 142.81 402.20 144.41 402.72 147.26
  Q 402.97 148.60 402.30 148.98
  C 400.85 149.82 400.97 150.31 400.32 151.92
  A 6.12 6.06 -13.2 0 1 399.21 153.69
  Q 396.80 156.36 394.81 159.80
  Q 394.19 160.86 394.19 160.87
  A 1.57 1.57 0.0 0 0 396.89 161.77
  L 402.23 156.07
  A 0.13 0.13 0.0 0 1 402.43 156.22
  Q 400.87 158.82 401.22 162.10
  A 0.28 0.27 84.6 0 0 401.51 162.35
  Q 424.18 160.82 450.00 158.26
  Q 453.57 157.91 456.55 157.38
  A 0.75 0.74 62.7 0 0 456.95 156.12
  L 456.58 155.76
  A 2.67 2.66 -22.7 0 0 454.67 154.98
  C 449.43 155.02 444.02 155.23 439.04 152.62
  A 0.56 0.56 0.0 0 1 439.40 151.57
  C 443.76 152.35 447.21 153.57 451.46 151.27
  Q 452.08 151.41 452.55 151.09
  Q 459.71 153.93 463.75 160.15
  C 466.03 163.66 467.56 168.91 469.42 173.30
  Q 469.35 174.90 470.43 176.57
  L 472.36 181.06
  A 1.70 1.52 -63.6 0 1 472.47 181.46
  Q 473.41 188.54 473.03 192.56
  Q 472.84 194.57 470.90 196.64
  Q 465.41 202.49 459.54 207.73
  Q 458.21 207.85 457.85 209.24
  Q 450.45 216.49 443.62 221.13
  Q 441.56 222.54 439.03 221.24
  C 426.41 214.76 414.29 207.64 401.60 201.09
  Q 401.46 200.79 400.97 201.55
  A 0.27 0.26 -48.5 0 1 400.54 201.58
  Q 400.41 201.42 400.53 201.20
  A 0.30 0.30 0.0 0 0 400.45 200.84
  Q 395.84 196.98 391.56 195.57
  A 1.23 1.22 81.7 0 1 390.91 195.08
  Q 390.34 194.22 390.35 193.75
  A 1.06 1.05 17.2 0 0 389.87 192.85
  Q 388.09 191.72 385.84 192.08
  Q 385.10 192.20 384.67 191.83
  Q 384.21 191.42 383.43 191.53
  A 0.73 0.70 -85.9 0 0 382.86 192.04
  Q 382.21 194.26 379.37 195.45
  A 0.93 0.89 -81.1 0 0 379.00 195.73
  L 378.06 196.93
  A 7.80 7.00 -88.7 0 1 377.26 197.78
  L 370.60 203.85
  A 0.82 0.78 -77.6 0 1 370.35 204.02
  C 368.27 205.05 365.02 207.25 362.85 209.77
  Q 361.48 211.35 359.26 212.47
  A 2.26 2.25 2.6 0 0 358.38 213.27
  C 356.96 215.53 354.38 216.79 352.18 218.65
  Q 347.72 222.42 342.35 227.10
  Q 341.49 227.85 340.10 227.61
  A 1.19 1.19 0.0 0 1 339.15 226.12
  L 344.56 206.62
  A 0.53 0.52 -76.5 0 1 345.17 206.24
  Q 345.98 206.39 346.62 207.12
  A 0.23 0.23 0.0 0 0 346.92 207.16
  L 346.95 207.14
  A 0.26 0.26 0.0 0 0 347.02 206.76
  Q 345.83 205.21 344.17 205.37
  A 0.54 0.52 -30.9 0 1 343.79 205.28
  L 337.94 201.49
  A 1.06 1.05 49.4 0 0 336.94 201.41
  L 333.56 202.88
  L 326.73 201.16
  A 1.00 0.98 31.9 0 0 325.84 201.36
  Q 322.18 204.39 317.77 206.24
  Q 317.91 204.44 318.79 202.43
  A 0.38 0.38 0.0 0 0 318.44 201.89
  L 318.00 201.89
  A 0.34 0.33 9.7 0 0 317.68 202.11
  L 316.27 205.68
  A 0.50 0.50 0.0 0 1 315.99 205.96
  Q 315.16 206.26 314.68 208.04
  A 0.42 0.42 0.0 0 1 313.87 208.04
  Q 313.81 207.79 313.53 207.30
  A 1.20 1.12 28.7 0 0 311.32 207.86
  Q 311.35 208.11 311.29 208.24
  A 0.25 0.25 0.0 0 1 310.81 208.17
  Q 310.77 207.93 310.88 207.60
  A 0.54 0.54 0.0 0 0 310.35 206.89
  Q 310.10 206.89 310.09 206.89
  A 0.40 0.39 46.1 0 1 310.10 206.17
  Q 314.45 204.26 315.53 202.35
  A 0.43 0.43 0.0 0 0 314.86 201.82
  Q 312.21 204.28 309.54 205.16
  A 1.89 1.84 11.0 0 0 308.70 205.71
  L 303.05 211.91
  A 0.05 0.03 76.7 0 0 303.04 211.94
  Q 303.00 212.45 302.61 212.47
  Q 302.15 212.49 301.98 212.20
  Q 301.24 210.90 301.61 209.76
  A 0.78 0.75 -85.5 0 0 300.78 208.75
  Q 299.78 208.92 298.73 208.40
  A 0.72 0.72 0.0 0 1 298.94 207.05
  Q 299.94 206.90 300.26 206.78
  A 0.78 0.78 0.0 0 0 300.25 205.31
  Q 299.36 205.02 297.65 206.65
  A 0.28 0.27 72.2 0 1 297.19 206.41
  Q 297.50 204.08 295.78 203.29
  A 0.65 0.63 88.0 0 1 295.49 203.01
  L 293.63 199.34
  A 1.41 1.39 4.2 0 0 293.18 198.83
  Q 290.81 197.13 291.09 194.99
  A 0.56 0.55 8.6 0 0 290.63 194.37
  Q 290.10 194.26 289.75 194.00
  A 1.37 1.33 11.6 0 1 289.26 193.28
  Q 288.78 191.59 287.63 190.93
  A 1.14 1.14 0.0 0 1 287.08 190.21
  Q 286.48 187.84 287.30 186.39
  A 0.92 0.85 26.3 0 0 286.83 185.17
  Q 286.02 184.82 285.96 184.21
  Q 285.91 183.82 285.75 183.43
  Q 284.00 179.25 283.03 177.80
  A 0.34 0.34 0.0 0 0 282.41 177.99
  L 282.41 181.39
  A 0.22 0.21 83.2 0 1 282.25 181.60
  L 282.00 181.66
  A 0.71 0.71 0.0 0 1 281.14 181.13
  Q 280.48 178.24 281.12 175.01
  A 0.75 0.75 0.0 0 0 279.69 174.59
  L 279.46 175.19
  A 0.31 0.31 0.0 0 1 278.87 175.15
  L 277.79 170.80
  A 0.83 0.83 0.0 0 1 279.06 169.92
  Q 283.35 172.86 285.10 177.50
  A 0.52 0.52 0.0 0 0 285.85 177.76
  L 286.11 177.60
  A 0.35 0.34 -26.7 0 0 286.25 177.20
  Q 282.47 166.67 279.94 158.06
  Q 279.10 155.19 279.51 152.37
  A 0.15 0.15 0.0 0 1 279.80 152.35
  L 286.69 172.41
  A 0.17 0.17 0.0 0 0 286.89 172.52
  L 286.94 172.51
  A 0.16 0.15 -14.1 0 0 287.05 172.33
  Q 284.33 159.00 280.72 148.73
  Q 280.46 147.98 279.88 146.54
  Q 278.83 143.93 278.91 140.66
  A 0.39 0.38 38.9 0 1 279.67 140.58
  Q 281.09 146.38 283.47 151.41
  Q 284.92 154.47 287.20 165.64
  Q 287.21 165.68 287.22 165.72
  L 289.80 172.17
  A 0.50 0.50 0.0 0 0 290.74 172.11
  Q 291.29 170.07 290.35 168.59
  C 288.80 166.15 288.01 162.91 287.73 160.39
  A 4.53 4.47 -58.7 0 0 287.45 159.21
  Q 286.09 155.62 285.67 152.41
  A 5.08 4.93 -65.2 0 0 285.00 150.50
  Q 281.85 145.30 281.31 139.51
  A 0.76 0.75 -77.2 0 1 282.44 138.79
  Q 286.31 141.12 289.40 144.94
  A 0.35 0.34 -62.7 0 0 290.01 144.74
  Q 290.04 144.33 289.28 143.73
  Q 289.26 143.72 289.34 143.41
  Q 289.35 143.34 289.33 143.25
  A 0.07 0.06 34.0 0 1 289.46 143.24
  Q 289.79 144.14 290.25 144.68
  A 0.50 0.50 0.0 0 0 291.13 144.32
  Q 291.02 143.04 290.04 141.72
  A 0.13 0.13 0.0 0 1 290.06 141.54
  L 290.07 141.53
  A 0.21 0.21 0.0 0 1 290.36 141.54
  Q 290.73 141.89 290.95 142.44
  A 0.40 0.39 -29.6 0 0 291.56 142.60
  L 294.94 139.91
  A 0.42 0.42 0.0 0 0 295.09 139.47
  Q 294.96 138.93 295.14 138.73
  Q 297.70 135.89 301.14 133.90
  Q 301.68 133.58 303.46 131.02
  A 1.10 1.05 -87.9 0 1 303.82 130.67
  L 306.41 129.07
  A 1.13 1.11 85.9 0 0 306.86 128.54
  Q 307.89 125.99 307.66 123.44
  A 0.66 0.65 -73.8 0 1 308.71 122.86
  C 310.05 123.91 310.31 125.45 309.23 126.86
  Q 308.75 127.47 308.84 128.31
  A 0.54 0.53 80.6 0 0 309.49 128.78
  Q 312.66 127.99 313.51 126.57
  Q 315.06 123.96 317.87 122.79
  A 0.80 0.80 0.0 0 0 317.68 121.26
  L 312.44 120.48
  A 1.37 1.29 63.4 0 1 311.95 120.30
  Q 309.09 118.52 306.52 121.10
  A 1.07 1.07 0.0 0 1 304.75 120.68
  Q 303.97 118.27 302.58 116.94
  Q 302.26 116.63 302.19 115.38
  C 302.09 113.60 301.57 112.41 300.18 111.19
  A 0.78 0.78 0.0 0 1 300.58 109.83
  Q 302.94 109.46 304.01 106.46
  A 0.76 0.75 -80.1 0 1 304.72 105.96
  L 306.47 105.96
  A 1.52 1.47 -63.3 0 0 307.39 105.64
  L 319.41 96.11
  A 0.93 0.92 -39.9 0 1 320.68 96.22
  L 320.70 96.25
  A 0.96 0.96 0.0 0 1 320.63 97.58
  Q 318.03 99.96 314.80 101.35
  A 2.64 2.58 -80.6 0 0 313.90 102.01
  L 311.01 105.33
  L 308.36 107.04
  A 1.03 1.02 -20.6 0 0 307.89 108.06
  Q 308.18 110.00 305.83 110.93
  A 0.45 0.45 0.0 0 0 305.92 111.79
  Q 312.59 112.89 317.52 112.62
  Q 320.77 112.44 324.40 113.25
  Q 327.07 113.85 332.11 114.22
  A 0.59 0.59 0.0 0 0 332.45 113.12
  L 331.53 112.59
  A 0.36 0.35 63.6 0 1 331.75 111.93
  Q 336.52 112.51 339.26 116.25
  A 1.10 1.10 0.0 0 0 341.15 116.05
  Q 341.68 114.84 341.63 113.79
  A 0.68 0.67 17.1 0 1 342.71 113.22
  L 351.15 119.55
  A 0.54 0.54 0.0 0 0 351.89 119.46
  L 351.91 119.44
  A 0.46 0.45 35.5 0 0 351.82 118.92
  L 348.32 115.23
  A 0.56 0.56 0.0 0 1 348.93 114.33
  Q 350.71 115.05 352.17 117.28
  A 0.57 0.57 0.0 0 0 353.14 117.26
  L 355.04 113.96
  A 1.47 1.46 -62.6 0 0 354.39 111.90
  C 352.75 111.15 350.56 110.92 348.78 111.28
  C 346.83 111.67 345.48 110.73 343.43 110.68
  Q 338.57 110.55 333.64 110.11
  Q 334.75 109.89 338.02 109.83
  Q 340.78 109.77 343.16 106.93
  A 0.22 0.22 0.0 0 0 343.03 106.57
  Q 342.97 106.56 342.82 106.62
  A 0.15 0.15 0.0 0 1 342.63 106.53
  Q 342.26 105.47 344.81 104.82
  A 2.01 1.96 7.4 0 0 346.01 103.92
  L 346.29 103.46
  A 4.12 3.94 -3.9 0 1 347.35 102.30
  L 354.61 97.01
  A 0.89 0.88 61.4 0 0 354.91 95.97
  L 352.70 90.45
  Q 354.48 91.22 355.93 90.65
  A 0.97 0.97 0.0 0 1 357.18 91.19
  L 361.03 100.86
  A 0.88 0.87 -1.4 0 0 361.56 101.36
  Q 369.90 104.21 372.16 106.05
  Q 375.91 109.10 379.64 111.67
  Z
  M 392.99 129.07
  C 392.61 128.41 391.69 127.75 391.44 126.76
  Q 390.79 124.09 389.87 120.91
  A 1.11 1.11 0.0 0 0 387.79 120.79
  C 386.90 122.91 388.20 125.34 389.40 128.47
  A 1.48 1.42 7.8 0 0 389.94 129.15
  Q 391.73 130.35 392.71 129.92
  A 0.60 0.60 0.0 0 0 392.99 129.07
  Z
  M 349.44 129.44
  C 347.05 129.49 345.87 127.67 343.78 126.95
  Q 337.84 124.90 334.14 123.08
  A 0.46 0.33 54.2 0 0 334.02 123.04
  L 325.45 120.98
  A 0.41 0.39 -65.5 0 0 325.03 121.15
  Q 324.13 122.48 321.68 122.97
  A 0.75 0.74 -84.7 0 0 321.14 123.42
  L 320.95 123.91
  A 0.46 0.46 0.0 0 0 321.37 124.54
  Q 324.94 124.64 327.91 125.92
  A 3.88 3.73 -31.5 0 0 329.32 126.23
  Q 332.40 126.32 334.68 127.70
  A 3.85 3.82 61.3 0 0 336.47 128.23
  Q 338.79 128.33 342.98 128.43
  Q 346.56 128.53 348.90 132.84
  A 0.51 0.49 62.9 0 0 349.55 133.06
  L 349.61 133.03
  A 0.58 0.58 0.0 0 0 349.90 132.26
  Q 349.37 131.09 349.85 130.08
  A 0.45 0.45 0.0 0 0 349.44 129.44
  Z
  M 310.56 146.67
  C 312.33 146.78 313.74 147.33 316.14 147.40
  Q 317.46 147.44 318.71 148.10
  Q 320.29 148.94 321.75 148.31
  A 0.52 0.51 41.2 0 0 321.68 147.34
  L 319.72 146.80
  A 0.57 0.57 0.0 0 1 319.58 145.77
  L 323.63 143.26
  A 0.81 0.80 -34.7 0 1 324.68 143.45
  L 326.92 146.27
  A 1.26 1.26 0.0 0 1 327.14 147.38
  L 326.69 149.01
  A 0.51 0.50 -74.7 0 0 327.04 149.64
  L 332.10 151.05
  A 0.53 0.53 0.0 0 0 332.75 150.39
  Q 332.44 149.40 333.21 148.61
  C 335.49 146.29 336.30 145.09 339.97 144.80
  Q 341.55 144.68 344.50 145.11
  A 0.37 0.37 0.0 0 1 344.54 145.84
  Q 342.16 146.42 341.23 147.48
  C 339.54 149.42 337.93 149.77 335.29 150.97
  A 1.13 1.13 0.0 0 0 334.91 152.75
  L 335.86 153.82
  A 2.68 2.68 0.0 0 0 339.24 154.35
  Q 343.80 151.63 350.27 151.30
  A 1.33 1.33 0.0 0 1 351.36 151.76
  L 354.58 155.40
  A 1.14 1.08 78.6 0 0 354.95 155.66
  L 356.65 156.35
  A 0.81 0.81 0.0 0 1 357.16 157.13
  Q 357.14 157.93 356.67 158.40
  A 0.30 0.30 0.0 0 0 356.87 158.91
  Q 357.77 158.94 358.01 158.58
  A 0.98 0.97 -33.8 0 0 358.16 157.84
  Q 357.79 156.06 355.95 155.33
  A 2.08 2.06 81.2 0 1 355.11 154.71
  L 351.38 150.21
  A 2.27 2.25 84.6 0 0 350.77 149.70
  C 347.86 148.05 345.13 149.74 342.21 149.98
  A 0.26 0.26 0.0 0 1 342.05 149.50
  L 346.53 146.73
  A 0.33 0.32 -36.0 0 0 346.61 146.24
  L 341.39 140.35
  A 1.87 1.85 73.4 0 0 340.27 139.74
  L 334.92 138.94
  A 7.19 7.19 0.0 0 1 333.00 138.37
  C 329.40 136.73 326.02 134.88 322.46 135.52
  A 1.23 1.23 0.0 0 1 322.02 135.52
  L 310.43 133.79
  A 2.37 2.36 -85.8 0 0 307.72 136.13
  L 307.72 144.54
  A 0.38 0.37 4.5 0 0 308.04 144.91
  L 308.33 144.95
  A 0.53 0.52 7.4 0 0 308.93 144.49
  Q 309.01 143.84 309.74 143.45
  Q 313.57 141.41 315.91 139.74
  A 0.11 0.11 0.0 0 1 316.03 139.74
  L 316.45 140.07
  A 0.27 0.27 0.0 0 1 316.45 140.49
  L 310.18 145.46
  A 0.68 0.68 0.0 0 0 310.56 146.67
  Z
  M 371.66 139.38
  Q 371.86 139.28 374.44 138.98
  A 1.00 1.00 0.0 0 0 374.66 137.04
  Q 374.13 136.85 372.81 137.42
  Q 370.22 138.52 368.64 138.91
  Q 367.74 139.14 367.87 139.87
  A 0.60 0.55 60.9 0 0 368.86 140.20
  Q 369.39 139.53 370.49 139.64
  A 0.49 0.48 -75.0 0 1 370.88 140.32
  Q 370.31 141.64 371.91 142.21
  Q 373.09 142.63 373.70 143.85
  A 0.42 0.41 82.7 0 1 373.25 144.44
  Q 370.99 144.00 369.46 142.24
  A 0.45 0.45 0.0 0 0 368.83 142.19
  L 368.69 142.30
  A 0.50 0.49 -35.9 0 0 368.58 142.95
  Q 370.91 146.66 374.91 144.78
  A 0.71 0.71 0.0 0 0 375.27 143.88
  Q 374.88 142.86 374.10 142.33
  A 0.51 0.51 0.0 0 1 374.39 141.40
  Q 377.72 141.47 379.47 141.02
  A 0.74 0.74 0.0 0 0 379.36 139.56
  Q 376.30 139.25 371.83 139.94
  A 0.30 0.29 -62.1 0 1 371.66 139.38
  Z
  M 304.71 138.71
  L 302.16 141.26
  A 1.06 1.05 52.0 0 0 302.01 142.55
  L 303.65 145.19
  A 0.62 0.62 0.0 0 0 304.79 144.95
  L 305.65 139.19
  A 0.56 0.55 71.9 0 0 304.71 138.71
  Z
  M 288.95 148.41
  L 303.23 171.50
  A 0.39 0.39 0.0 0 0 303.93 171.16
  L 302.90 168.15
  A 1.00 0.90 20.0 0 0 302.75 167.87
  Q 298.61 162.39 296.75 157.99
  A 0.82 0.51 31.7 0 0 296.66 157.81
  L 290.00 148.18
  A 0.43 0.42 -33.1 0 0 289.42 148.06
  L 288.96 148.34
  A 0.05 0.05 0.0 0 0 288.95 148.41
  Z
  M 419.00 180.15
  Q 420.54 179.52 422.38 179.93
  A 0.80 0.80 0.0 0 0 423.30 179.44
  L 423.34 179.35
  A 0.64 0.64 0.0 0 0 422.89 178.49
  Q 422.36 178.37 421.61 179.16
  A 0.69 0.69 0.0 0 1 420.92 179.34
  Q 420.08 179.08 419.97 178.52
  A 0.77 0.76 72.2 0 1 420.40 177.67
  Q 427.82 174.19 433.67 169.25
  C 434.78 168.31 436.87 167.34 437.95 166.25
  A 0.59 0.58 -53.3 0 0 437.82 165.33
  L 437.69 165.26
  A 1.28 1.27 -47.3 0 0 436.34 165.32
  C 435.52 165.88 435.22 166.63 434.27 167.27
  Q 429.04 170.80 426.76 172.26
  Q 423.35 174.43 421.32 175.23
  Q 420.25 175.64 415.94 178.41
  A 0.50 0.50 0.0 0 0 415.96 179.26
  Q 416.60 179.63 417.81 179.53
  A 0.44 0.43 76.8 0 1 418.24 179.80
  Q 418.27 179.88 418.28 179.91
  A 0.59 0.59 0.0 0 0 419.00 180.15
  Z
  M 413.12 167.59
  Q 415.46 170.00 417.31 170.15
  A 0.88 0.88 0.0 0 1 418.12 171.10
  Q 418.12 171.12 418.11 171.21
  A 0.49 0.48 -0.1 0 0 418.68 171.77
  Q 420.14 171.50 421.08 171.65
  A 0.60 0.59 3.3 0 0 421.76 171.05
  Q 421.73 169.88 422.69 169.93
  A 0.89 0.89 0.0 0 0 423.61 169.23
  Q 423.84 168.23 425.43 166.34
  A 0.33 0.33 0.0 0 0 425.12 165.80
  Q 422.19 166.28 421.82 169.42
  A 0.66 0.66 0.0 0 1 421.38 169.98
  Q 418.65 170.95 418.04 169.24
  A 1.05 1.02 2.3 0 0 417.45 168.62
  L 413.47 167.06
  A 0.33 0.32 78.6 0 0 413.12 167.59
  Z
  M 413.04 177.62
  Q 417.13 176.34 423.61 172.75
  A 2.60 2.59 1.4 0 0 424.53 171.88
  Q 425.57 170.24 426.31 169.93
  A 0.61 0.61 0.0 0 0 426.69 169.26
  Q 426.57 168.48 426.20 168.13
  A 0.65 0.64 29.2 0 0 425.13 168.42
  Q 424.54 170.65 422.44 171.70
  Q 419.41 173.21 412.81 177.11
  A 0.28 0.28 0.0 0 0 413.04 177.62
  Z
  M 407.06 184.72
  Q 408.44 188.58 412.66 187.56
  A 0.05 0.02 -34.5 0 0 412.70 187.50
  Q 412.65 187.52 412.63 187.47
  A 0.23 0.12 -22.8 0 0 412.38 187.45
  Q 412.11 187.57 411.47 187.54
  A 0.46 0.46 0.0 0 1 411.06 186.94
  Q 411.51 185.59 412.44 184.83
  A 0.86 0.86 0.0 0 0 411.89 183.30
  L 408.65 183.30
  A 1.31 1.27 -66.5 0 0 407.75 183.67
  L 407.16 184.27
  A 0.42 0.41 57.8 0 0 407.06 184.72
  Z
  M 397.26 189.18
  Q 396.56 190.32 397.42 192.28
  C 398.11 193.87 401.13 195.09 402.64 196.79
  A 0.88 0.88 0.0 0 0 404.17 196.07
  Q 404.15 195.92 403.59 195.65
  Q 400.46 194.10 399.08 192.32
  A 0.90 0.90 0.0 0 1 398.90 191.78
  L 398.90 189.64
  A 0.88 0.88 0.0 0 0 397.26 189.18
  Z
  M 318.26 195.13
  Q 316.93 195.46 316.88 195.48
  A 0.48 0.47 -45.8 0 0 316.89 196.37
  Q 317.94 196.76 318.62 196.59
  Q 319.30 196.43 320.04 195.59
  A 0.48 0.47 18.1 0 0 319.64 194.80
  Q 319.59 194.81 318.26 195.13
  Z
  M 294.5665 195.9130
  A 1.17 0.91 -8.7 0 0 293.2724 195.1905
  A 1.17 0.91 -8.7 0 0 292.2535 196.2670
  A 1.17 0.91 -8.7 0 0 293.5476 196.9895
  A 1.17 0.91 -8.7 0 0 294.5665 195.9130
  Z
  M 424.01 197.32
  Q 423.91 197.46 423.57 197.46
  Q 421.42 197.47 419.65 197.37
  A 0.55 0.55 0.0 0 0 419.31 198.37
  Q 423.43 201.22 425.38 205.50
  A 0.85 0.85 0.0 0 0 426.48 205.93
  L 426.53 205.91
  A 0.70 0.70 0.0 0 0 426.85 204.93
  L 423.52 198.86
  A 0.46 0.45 -14.9 0 1 423.91 198.19
  Q 424.27 198.18 424.32 198.16
  A 0.36 0.35 78.4 0 0 424.58 197.76
  Q 424.53 197.39 424.52 197.37
  A 0.30 0.30 0.0 0 0 424.01 197.32
  Z
  M 308.91 198.87
  C 310.50 198.93 313.89 200.02 315.40 199.49
  A 0.34 0.34 0.0 0 0 315.40 198.84
  Q 312.45 197.82 308.95 197.68
  Q 305.46 197.55 302.44 198.34
  A 0.34 0.34 0.0 0 0 302.39 198.98
  C 303.85 199.64 307.32 198.81 308.91 198.87
  Z"
/>
<path fill="#679ee7" d="
  M 187.69 98.61
  L 179.15 103.59
  A 1.61 1.57 -55.7 0 1 178.15 103.79
  L 170.46 102.68
  L 167.61 102.29
  A 0.22 0.21 31.5 0 1 167.51 101.90
  L 175.86 96.13
  A 1.60 1.60 0.0 0 1 177.17 95.89
  L 187.69 98.61
  Z"
/>
<path fill="#686c71" d="
  M 170.46 102.68
  L 178.15 103.79
  A 1.61 1.57 -55.7 0 0 179.15 103.59
  L 187.69 98.61
  Q 187.21 97.75 189.36 98.20
  A 0.54 0.54 0.0 0 1 189.58 99.16
  Q 186.25 101.62 183.34 103.22
  C 181.16 104.42 180.60 106.04 177.51 105.97
  Q 172.36 105.86 168.51 104.71
  Q 167.94 104.54 167.37 104.63
  Q 166.45 104.76 166.23 104.62
  A 1.00 0.95 59.3 0 1 166.64 102.80
  L 170.46 102.68
  Z"
/>
<path fill="#8f93aa" d="
  M 182.92 109.45
  A 0.42 0.42 0.0 0 1 183.09 108.64
  Q 184.54 108.68 187.83 109.55
  A 2.64 2.63 -59.2 0 0 190.32 108.92
  Q 193.08 106.30 196.70 104.99
  A 0.55 0.53 66.3 0 1 197.37 105.26
  L 197.38 105.28
  A 0.57 0.56 -27.0 0 1 197.13 106.03
  Q 194.28 107.48 191.63 109.82
  C 189.17 111.99 185.90 110.74 182.92 109.45
  Z"
/>
<path fill="#679ee7" d="
  M 311.01 105.33
  Q 319.09 106.22 325.68 107.67
  Q 326.61 107.88 327.28 108.51
  C 328.60 110.40 331.62 109.90 333.64 110.11
  Q 338.57 110.55 343.43 110.68
  C 345.48 110.73 346.83 111.67 348.78 111.28
  C 350.56 110.92 352.75 111.15 354.39 111.90
  A 1.47 1.46 -62.6 0 1 355.04 113.96
  L 353.14 117.26
  A 0.57 0.57 0.0 0 1 352.17 117.28
  Q 350.71 115.05 348.93 114.33
  A 0.56 0.56 0.0 0 0 348.32 115.23
  L 351.82 118.92
  A 0.46 0.45 35.5 0 1 351.91 119.44
  L 351.89 119.46
  A 0.54 0.54 0.0 0 1 351.15 119.55
  L 342.71 113.22
  A 0.68 0.67 17.1 0 0 341.63 113.79
  Q 341.68 114.84 341.15 116.05
  A 1.10 1.10 0.0 0 1 339.26 116.25
  Q 336.52 112.51 331.75 111.93
  A 0.36 0.35 63.6 0 0 331.53 112.59
  L 332.45 113.12
  A 0.59 0.59 0.0 0 1 332.11 114.22
  Q 327.07 113.85 324.40 113.25
  Q 320.77 112.44 317.52 112.62
  Q 312.59 112.89 305.92 111.79
  A 0.45 0.45 0.0 0 1 305.83 110.93
  Q 308.18 110.00 307.89 108.06
  A 1.03 1.02 -20.6 0 1 308.36 107.04
  L 311.01 105.33
  Z"
/>
<path fill="#679ee7" d="
  M 379.64 111.67
  L 404.23 124.00
  Q 403.72 125.90 401.20 123.91
  A 0.56 0.55 -55.9 0 0 400.38 124.07
  Q 400.27 124.27 400.40 124.84
  A 0.67 0.67 0.0 0 1 399.48 125.61
  C 397.72 124.85 396.75 123.20 395.00 122.32
  Q 393.62 121.63 390.83 119.09
  Q 388.43 116.90 386.24 119.24
  Q 384.28 121.34 385.34 123.58
  C 386.25 125.51 385.37 126.63 385.91 128.69
  A 0.37 0.37 0.0 0 1 385.44 129.14
  Q 383.45 128.57 382.40 128.92
  A 0.86 0.86 0.0 0 0 382.44 130.56
  L 388.49 132.24
  A 0.23 0.22 -46.7 0 1 388.50 132.67
  C 385.87 133.56 382.17 132.68 380.02 131.94
  A 0.95 0.95 0.0 0 0 379.18 132.06
  Q 378.91 132.24 378.84 132.49
  A 0.68 0.67 19.9 0 1 377.87 132.94
  L 375.70 131.83
  A 1.08 1.08 0.0 0 1 375.59 129.96
  C 380.03 127.01 379.62 122.27 380.37 116.54
  A 1.91 1.88 44.5 0 0 380.36 115.96
  L 379.64 111.67
  Z"
/>
<path fill="#8f93aa" d="
  M 178.70 117.62
  Q 178.47 118.67 160.46 114.35
  Q 157.37 113.61 157.53 112.90
  Q 157.69 112.19 160.80 112.83
  Q 178.94 116.58 178.70 117.62
  Z"
/>
<circle fill="#8f93aa" cx="276.73" cy="113.89" r="1.12"/>
<path fill="#8f93aa" d="
  M 186.48 119.19
  A 0.48 0.48 0.0 0 1 186.73 118.28
  L 190.99 118.67
  A 1.56 1.54 -30.0 0 1 191.56 118.82
  Q 195.10 120.48 200.14 120.71
  A 0.32 0.24 -26.6 0 1 200.25 120.73
  L 206.12 122.63
  A 0.63 0.63 0.0 0 1 206.55 123.31
  L 206.52 123.50
  A 0.50 0.50 0.0 0 1 205.82 123.87
  Q 201.10 121.72 197.11 122.16
  A 0.73 0.63 49.1 0 1 196.83 122.12
  L 191.80 120.14
  A 1.65 1.62 -34.9 0 0 191.09 120.02
  Q 188.46 120.14 186.48 119.19
  Z"
/>
<path fill="#8f93aa" d="
  M 181.99 118.93
  Q 182.25 118.87 182.84 118.97
  A 0.86 0.86 0.0 0 1 183.37 120.34
  Q 182.83 121.04 181.73 119.80
  A 0.54 0.53 62.1 0 1 181.99 118.93
  Z"
/>
<path fill="#679ee7" d="
  M 392.71 129.92
  Q 391.73 130.35 389.94 129.15
  A 1.48 1.42 7.8 0 1 389.40 128.47
  C 388.20 125.34 386.90 122.91 387.79 120.79
  A 1.11 1.11 0.0 0 1 389.87 120.91
  Q 390.79 124.09 391.44 126.76
  C 391.69 127.75 392.61 128.41 392.99 129.07
  A 0.60 0.60 0.0 0 1 392.71 129.92
  Z"
/>
<path fill="#679ee7" d="
  M 349.85 130.08
  Q 349.37 131.09 349.90 132.26
  A 0.58 0.58 0.0 0 1 349.61 133.03
  L 349.55 133.06
  A 0.51 0.49 62.9 0 1 348.90 132.84
  Q 346.56 128.53 342.98 128.43
  Q 338.79 128.33 336.47 128.23
  A 3.85 3.82 61.3 0 1 334.68 127.70
  Q 332.40 126.32 329.32 126.23
  A 3.88 3.73 -31.5 0 1 327.91 125.92
  Q 324.94 124.64 321.37 124.54
  A 0.46 0.46 0.0 0 1 320.95 123.91
  L 321.14 123.42
  A 0.75 0.74 -84.7 0 1 321.68 122.97
  Q 324.13 122.48 325.03 121.15
  A 0.41 0.39 -65.5 0 1 325.45 120.98
  L 334.02 123.04
  A 0.46 0.33 54.2 0 1 334.14 123.08
  Q 337.84 124.90 343.78 126.95
  C 345.87 127.67 347.05 129.49 349.44 129.44
  A 0.45 0.45 0.0 0 1 349.85 130.08
  Z"
/>
<path fill="#8f93aa" d="
  M 195.80 123.37
  A 0.26 0.26 0.0 0 1 195.69 123.85
  Q 194.34 124.05 193.63 123.33
  A 0.30 0.30 0.0 0 1 193.87 122.82
  Q 195.21 122.98 195.80 123.37
  Z"
/>
<path fill="#8f93aa" d="
  M 159.70 130.64
  Q 159.00 130.96 158.38 130.99
  A 0.28 0.28 0.0 0 1 158.14 130.55
  L 159.49 128.68
  L 165.36 124.73
  A 0.44 0.44 0.0 0 1 165.83 124.71
  L 166.18 124.91
  A 0.49 0.49 0.0 0 1 166.24 125.72
  Q 163.41 127.97 160.36 129.67
  C 160.04 129.85 159.76 130.28 159.70 130.64
  Z"
/>
<ellipse fill="#8f93aa" cx="0.00" cy="0.00" transform="translate(267.08,128.11) rotate(-65.3)" rx="1.82" ry="0.77"/>
<path fill="#8f93aa" d="
  M 240.34 128.32
  A 0.56 0.55 -90.0 0 1 240.89 128.88
  L 240.89 129.14
  A 0.49 0.49 0.0 0 1 240.39 129.63
  Q 238.41 129.56 236.96 130.96
  A 0.59 0.58 -45.4 0 1 236.16 130.97
  Q 235.27 130.14 234.43 130.61
  A 0.85 0.84 -35.6 0 1 233.39 130.44
  L 232.95 129.94
  A 0.49 0.48 63.7 0 1 233.22 129.14
  Q 234.04 128.99 235.02 129.34
  Q 235.86 129.63 236.61 128.60
  A 0.67 0.66 -72.0 0 1 237.15 128.32
  L 240.34 128.32
  Z"
/>
<ellipse fill="#8f93aa" cx="0.00" cy="0.00" transform="translate(252.97,131.15) rotate(-30.2)" rx="0.95" ry="0.78"/>
<path fill="#679ee7" d="
  M 310.56 146.67
  A 0.68 0.68 0.0 0 1 310.18 145.46
  L 316.45 140.49
  A 0.27 0.27 0.0 0 0 316.45 140.07
  L 316.03 139.74
  A 0.11 0.11 0.0 0 0 315.91 139.74
  Q 313.57 141.41 309.74 143.45
  Q 309.01 143.84 308.93 144.49
  A 0.53 0.52 7.4 0 1 308.33 144.95
  L 308.04 144.91
  A 0.38 0.37 4.5 0 1 307.72 144.54
  L 307.72 136.13
  A 2.37 2.36 -85.8 0 1 310.43 133.79
  L 322.02 135.52
  A 1.23 1.23 0.0 0 0 322.46 135.52
  C 326.02 134.88 329.40 136.73 333.00 138.37
  A 7.19 7.19 0.0 0 0 334.92 138.94
  L 340.27 139.74
  A 1.87 1.85 73.4 0 1 341.39 140.35
  L 346.61 146.24
  A 0.33 0.32 -36.0 0 1 346.53 146.73
  L 342.05 149.50
  A 0.26 0.26 0.0 0 0 342.21 149.98
  C 345.13 149.74 347.86 148.05 350.77 149.70
  A 2.27 2.25 84.6 0 1 351.38 150.21
  L 355.11 154.71
  A 2.08 2.06 81.2 0 0 355.95 155.33
  Q 357.79 156.06 358.16 157.84
  A 0.98 0.97 -33.8 0 1 358.01 158.58
  Q 357.77 158.94 356.87 158.91
  A 0.30 0.30 0.0 0 1 356.67 158.40
  Q 357.14 157.93 357.16 157.13
  A 0.81 0.81 0.0 0 0 356.65 156.35
  L 354.95 155.66
  A 1.14 1.08 78.6 0 1 354.58 155.40
  L 351.36 151.76
  A 1.33 1.33 0.0 0 0 350.27 151.30
  Q 343.80 151.63 339.24 154.35
  A 2.68 2.68 0.0 0 1 335.86 153.82
  L 334.91 152.75
  A 1.13 1.13 0.0 0 1 335.29 150.97
  C 337.93 149.77 339.54 149.42 341.23 147.48
  Q 342.16 146.42 344.54 145.84
  A 0.37 0.37 0.0 0 0 344.50 145.11
  Q 341.55 144.68 339.97 144.80
  C 336.30 145.09 335.49 146.29 333.21 148.61
  Q 332.44 149.40 332.75 150.39
  A 0.53 0.53 0.0 0 1 332.10 151.05
  L 327.04 149.64
  A 0.51 0.50 -74.7 0 1 326.69 149.01
  L 327.14 147.38
  A 1.26 1.26 0.0 0 0 326.92 146.27
  L 324.68 143.45
  A 0.81 0.80 -34.7 0 0 323.63 143.26
  L 319.58 145.77
  A 0.57 0.57 0.0 0 0 319.72 146.80
  L 321.68 147.34
  A 0.52 0.51 41.2 0 1 321.75 148.31
  Q 320.29 148.94 318.71 148.10
  Q 317.46 147.44 316.14 147.40
  C 313.74 147.33 312.33 146.78 310.56 146.67
  Z
  M 324.8729 140.1293
  A 0.65 0.65 0.0 0 0 323.9929 139.8636
  L 319.2339 142.4154
  A 0.65 0.65 0.0 0 0 318.9682 143.2954
  L 318.9871 143.3307
  A 0.65 0.65 0.0 0 0 319.8671 143.5964
  L 324.6261 141.0446
  A 0.65 0.65 0.0 0 0 324.8918 140.1646
  L 324.8729 140.1293
  Z"
/>
<path fill="#686c71" d="
  M 371.66 139.38
  A 0.30 0.29 -62.1 0 0 371.83 139.94
  Q 376.30 139.25 379.36 139.56
  A 0.74 0.74 0.0 0 1 379.47 141.02
  Q 377.72 141.47 374.39 141.40
  A 0.51 0.51 0.0 0 0 374.10 142.33
  Q 374.88 142.86 375.27 143.88
  A 0.71 0.71 0.0 0 1 374.91 144.78
  Q 370.91 146.66 368.58 142.95
  A 0.50 0.49 -35.9 0 1 368.69 142.30
  L 368.83 142.19
  A 0.45 0.45 0.0 0 1 369.46 142.24
  Q 370.99 144.00 373.25 144.44
  A 0.42 0.41 82.7 0 0 373.70 143.85
  Q 373.09 142.63 371.91 142.21
  Q 370.31 141.64 370.88 140.32
  A 0.49 0.48 -75.0 0 0 370.49 139.64
  Q 369.39 139.53 368.86 140.20
  A 0.60 0.55 60.9 0 1 367.87 139.87
  Q 367.74 139.14 368.64 138.91
  Q 370.22 138.52 372.81 137.42
  Q 374.13 136.85 374.66 137.04
  A 1.00 1.00 0.0 0 1 374.44 138.98
  Q 371.86 139.28 371.66 139.38
  Z"
/>
<path fill="#679ee7" d="
  M 304.71 138.71
  A 0.56 0.55 71.9 0 1 305.65 139.19
  L 304.79 144.95
  A 0.62 0.62 0.0 0 1 303.65 145.19
  L 302.01 142.55
  A 1.06 1.05 52.0 0 1 302.16 141.26
  L 304.71 138.71
  Z"
/>
<rect fill="#8f93aa" x="-3.35" y="-0.67" transform="translate(321.93,141.73) rotate(-28.2)" width="6.70" height="1.34" rx="0.65"/>
<path fill="#8f93aa" d="
  M 249.85 144.84
  Q 248.62 144.58 247.29 145.54
  Q 245.11 147.11 240.70 150.56
  A 1.39 1.39 0.0 0 1 239.14 150.68
  L 238.61 150.37
  A 0.44 0.44 0.0 0 1 238.66 149.59
  Q 241.64 148.32 243.12 146.88
  C 244.78 145.27 246.41 144.64 248.31 143.07
  Q 249.36 142.20 249.83 142.50
  Q 250.41 142.87 250.61 144.13
  A 0.64 0.63 1.6 0 1 249.85 144.84
  Z"
/>
<path fill="#8f93aa" d="
  M 254.28 143.33
  Q 255.01 143.34 255.66 143.81
  A 0.65 0.48 -41.7 0 1 255.47 144.73
  Q 255.07 145.00 254.30 144.57
  A 0.73 0.54 52.7 0 1 254.28 143.33
  Z"
/>
<path fill="#b49255" d="
  M 288.95 148.41
  A 0.05 0.05 0.0 0 1 288.96 148.34
  L 289.42 148.06
  A 0.43 0.42 -33.1 0 1 290.00 148.18
  L 296.66 157.81
  A 0.82 0.51 31.7 0 1 296.75 157.99
  Q 298.61 162.39 302.75 167.87
  A 1.00 0.90 20.0 0 1 302.90 168.15
  L 303.93 171.16
  A 0.39 0.39 0.0 0 1 303.23 171.50
  L 288.95 148.41
  Z"
/>
<path fill="#b49255" d="
  M 452.55 151.09
  Q 452.08 151.41 451.46 151.27
  Q 451.49 150.97 452.55 151.09
  Z"
/>
<path fill="#8f93aa" d="
  M 238.85 172.64
  Q 238.19 171.63 237.63 168.57
  Q 237.48 167.69 236.07 166.35
  A 0.58 0.57 49.4 0 0 235.35 166.29
  Q 233.80 167.36 232.67 167.94
  Q 231.88 168.35 229.93 167.53
  Q 227.48 166.50 224.89 166.63
  L 222.98 160.87
  A 1.18 1.17 74.0 0 1 223.81 159.36
  Q 226.50 158.70 226.04 155.26
  A 0.31 0.31 0.0 0 1 226.33 154.90
  L 226.55 155.00
  A 0.17 0.15 -87.1 0 1 226.64 155.11
  L 227.20 158.15
  A 1.22 1.21 5.9 0 0 227.95 159.06
  Q 232.26 160.71 234.68 162.60
  Q 238.88 165.89 240.20 171.55
  Q 240.37 172.27 238.85 172.64
  Z"
/>
<path fill="#8f93aa" d="
  M 218.61 162.29
  A 0.21 0.21 0.0 0 1 218.56 162.58
  L 218.40 162.70
  A 12.23 0.80 -34.9 0 1 207.91 169.04
  L 207.86 168.97
  A 12.23 0.80 -34.9 0 1 217.44 161.32
  L 217.60 161.21
  A 0.21 0.21 0.0 0 1 217.89 161.26
  L 218.61 162.29
  Z"
/>
<path fill="#686c71" d="
  M 224.89 166.63
  Q 227.48 166.50 229.93 167.53
  Q 231.88 168.35 232.67 167.94
  Q 233.80 167.36 235.35 166.29
  A 0.58 0.57 49.4 0 1 236.07 166.35
  Q 237.48 167.69 237.63 168.57
  Q 238.19 171.63 238.85 172.64
  Q 236.12 172.92 232.95 172.12
  A 1.05 1.05 0.0 0 0 232.04 172.31
  L 228.72 174.94
  A 0.68 0.68 0.0 0 0 229.51 176.05
  L 230.38 175.51
  A 0.70 0.70 0.0 0 1 231.29 176.54
  Q 227.55 181.33 224.97 187.01
  Q 223.06 183.81 220.83 190.60
  Q 219.78 189.08 218.31 188.04
  A 0.73 0.72 -76.6 0 0 217.18 188.74
  L 217.94 194.06
  Q 215.89 193.03 213.99 192.99
  A 0.55 0.54 -3.2 0 0 213.44 193.60
  Q 213.58 194.84 214.87 195.59
  A 0.32 0.32 0.0 0 1 214.70 196.18
  C 211.44 196.10 207.23 194.10 205.21 192.99
  A 2.33 2.33 0.0 0 1 204.32 192.10
  L 202.27 188.43
  A 1.09 1.09 0.0 0 1 202.21 187.48
  L 202.88 185.81
  Q 203.17 185.69 203.10 185.25
  Q 203.03 184.84 202.39 184.84
  L 204.98 182.94
  Q 205.68 182.78 205.90 183.40
  L 210.52 185.00
  A 1.56 1.51 45.9 0 0 211.44 185.03
  Q 214.52 184.16 218.80 185.69
  A 0.79 0.75 -7.3 0 1 219.17 185.96
  Q 219.81 186.85 220.39 186.97
  A 0.84 0.83 -68.1 0 0 221.27 186.59
  Q 222.03 185.35 221.22 184.22
  C 225.47 183.60 225.27 179.47 225.53 176.27
  A 1.73 1.72 13.2 0 0 224.44 174.52
  L 222.97 173.94
  A 3.05 2.98 -41.0 0 0 221.10 173.83
  Q 216.49 175.00 213.24 173.44
  L 214.80 173.28
  A 0.50 0.49 49.8 0 0 214.88 172.31
  Q 213.71 171.99 212.22 172.17
  C 212.87 171.18 213.30 170.68 213.65 169.41
  Q 214.07 167.85 216.34 168.56
  A 1.62 1.61 34.5 0 0 217.83 168.29
  L 219.91 166.64
  A 0.69 0.69 0.0 0 0 220.10 165.81
  Q 219.61 164.78 220.45 163.34
  A 0.49 0.49 0.0 0 1 221.37 163.59
  L 221.37 165.59
  A 0.80 0.80 0.0 0 0 221.96 166.36
  Q 223.36 166.75 224.89 166.63
  Z
  M 228.17 169.59
  A 0.96 0.96 0.0 0 0 227.21 168.63
  A 0.96 0.96 0.0 0 0 226.25 169.59
  A 0.96 0.96 0.0 0 0 227.21 170.55
  A 0.96 0.96 0.0 0 0 228.17 169.59
  Z"
/>
<path fill="#679ee7" d="
  M 418.28 179.91
  Q 418.27 179.88 418.24 179.80
  A 0.44 0.43 76.8 0 0 417.81 179.53
  Q 416.60 179.63 415.96 179.26
  A 0.50 0.50 0.0 0 1 415.94 178.41
  Q 420.25 175.64 421.32 175.23
  Q 423.35 174.43 426.76 172.26
  Q 429.04 170.80 434.27 167.27
  C 435.22 166.63 435.52 165.88 436.34 165.32
  A 1.28 1.27 -47.3 0 1 437.69 165.26
  L 437.82 165.33
  A 0.59 0.58 -53.3 0 1 437.95 166.25
  C 436.87 167.34 434.78 168.31 433.67 169.25
  Q 427.82 174.19 420.40 177.67
  A 0.77 0.76 72.2 0 0 419.97 178.52
  Q 420.08 179.08 420.92 179.34
  A 0.69 0.69 0.0 0 0 421.61 179.16
  Q 422.36 178.37 422.89 178.49
  A 0.64 0.64 0.0 0 1 423.34 179.35
  L 423.30 179.44
  A 0.80 0.80 0.0 0 1 422.38 179.93
  Q 420.54 179.52 419.00 180.15
  A 0.59 0.59 0.0 0 1 418.28 179.91
  Z"
/>
<path fill="#679ee7" d="
  M 413.12 167.59
  A 0.33 0.32 78.6 0 1 413.47 167.06
  L 417.45 168.62
  A 1.05 1.02 2.3 0 1 418.04 169.24
  Q 418.65 170.95 421.38 169.98
  A 0.66 0.66 0.0 0 0 421.82 169.42
  Q 422.19 166.28 425.12 165.80
  A 0.33 0.33 0.0 0 1 425.43 166.34
  Q 423.84 168.23 423.61 169.23
  A 0.89 0.89 0.0 0 1 422.69 169.93
  Q 421.73 169.88 421.76 171.05
  A 0.60 0.59 3.3 0 1 421.08 171.65
  Q 420.14 171.50 418.68 171.77
  A 0.49 0.48 -0.1 0 1 418.11 171.21
  Q 418.12 171.12 418.12 171.10
  A 0.88 0.88 0.0 0 0 417.31 170.15
  Q 415.46 170.00 413.12 167.59
  Z"
/>
<path fill="#679ee7" d="
  M 413.04 177.62
  A 0.28 0.28 0.0 0 1 412.81 177.11
  Q 419.41 173.21 422.44 171.70
  Q 424.54 170.65 425.13 168.42
  A 0.65 0.64 29.2 0 1 426.20 168.13
  Q 426.57 168.48 426.69 169.26
  A 0.61 0.61 0.0 0 1 426.31 169.93
  Q 425.57 170.24 424.53 171.88
  A 2.60 2.59 1.4 0 1 423.61 172.75
  Q 417.13 176.34 413.04 177.62
  Z"
/>
<circle fill="#8f93aa" cx="227.21" cy="169.59" r="0.96"/>
<path fill="#8f93aa" d="
  M 212.22 172.17
  Q 213.71 171.99 214.88 172.31
  A 0.50 0.49 49.8 0 1 214.80 173.28
  L 213.24 173.44
  L 202.49 177.72
  A 2.21 2.20 -40.7 0 1 200.58 177.58
  L 200.05 177.27
  A 0.60 0.60 0.0 0 1 200.10 176.21
  Q 206.04 173.49 212.22 172.17
  Z"
/>
<path fill="#b49255" d="
  M 470.43 176.57
  Q 469.35 174.90 469.42 173.30
  Q 470.74 174.53 470.43 176.57
  Z"
/>
<path fill="#8f93aa" d="
  M 193.02 177.59
  Q 193.50 178.19 195.78 178.32
  A 0.42 0.41 82.4 0 1 196.14 178.60
  Q 196.29 179.00 196.04 179.34
  Q 195.88 179.55 195.53 179.56
  Q 194.08 179.61 193.15 179.85
  L 190.54 182.26
  A 1.48 1.47 19.6 0 1 189.71 182.65
  L 183.48 183.48
  Q 181.62 183.10 179.91 184.43
  L 178.76 184.96
  Q 178.24 184.87 178.00 185.23
  Q 176.97 185.23 176.18 185.98
  Q 173.56 187.61 170.61 188.28
  Q 168.61 188.74 166.76 189.49
  Q 162.71 189.34 165.23 189.97
  L 162.04 190.70
  Q 161.28 190.45 160.79 191.23
  Q 153.42 194.16 145.39 196.05
  A 0.78 0.71 56.4 0 0 145.18 197.37
  Q 145.56 197.68 145.74 198.17
  A 0.57 0.56 -37.0 0 1 145.66 198.71
  L 142.47 202.97
  A 0.68 0.68 0.0 0 1 141.50 203.09
  Q 139.95 201.86 138.79 199.73
  A 1.06 1.06 0.0 0 0 137.17 199.44
  Q 135.58 200.80 133.66 200.87
  A 1.14 1.13 -81.7 0 0 132.63 201.65
  Q 132.10 203.21 129.92 205.23
  A 0.74 0.74 0.0 0 0 130.21 206.48
  L 135.24 207.97
  A 0.99 0.93 -14.8 0 1 135.61 208.17
  Q 136.46 208.93 137.58 209.39
  Q 138.01 209.56 144.28 211.83
  A 2.29 2.22 -36.4 0 0 145.17 211.95
  C 146.09 211.90 146.40 211.91 147.27 212.41
  Q 150.81 214.45 153.98 215.04
  Q 154.05 215.05 156.29 215.85
  Q 172.42 221.58 188.48 227.43
  L 188.13 227.99
  A 0.43 0.43 0.0 0 0 188.33 228.62
  L 197.90 232.39
  A 0.29 0.28 -61.7 0 1 198.03 232.83
  L 197.75 233.20
  A 0.15 0.14 -59.7 0 1 197.58 233.25
  L 183.96 227.89
  A 3.60 3.40 -30.7 0 0 182.98 227.67
  C 180.26 227.48 177.92 226.18 173.55 224.29
  A 0.11 0.10 20.8 0 1 173.49 224.17
  Q 173.50 224.13 173.56 224.06
  A 0.41 0.41 0.0 0 0 173.34 223.40
  Q 167.78 222.04 167.17 221.70
  Q 166.72 221.44 165.93 221.56
  Q 165.03 221.70 164.17 221.35
  Q 157.01 218.44 153.57 217.25
  A 2.46 2.26 -33.4 0 0 152.82 217.13
  L 151.65 217.13
  A 1.04 0.96 54.4 0 1 151.26 217.05
  L 138.59 211.92
  A 0.47 0.39 50.2 0 0 138.37 211.88
  Q 136.00 211.91 134.95 211.51
  Q 130.17 209.74 122.05 205.91
  Q 134.31 198.19 143.12 195.11
  Q 164.46 187.66 185.83 180.29
  Q 188.85 179.24 193.02 177.59
  Z"
/>
<path fill="#8f93aa" d="
  M 202.01 178.05
  A 0.41 0.41 0.0 0 1 202.06 178.84
  Q 201.52 179.03 200.63 179.01
  A 0.35 0.34 -84.9 0 1 200.30 178.61
  L 200.35 178.27
  A 0.36 0.36 0.0 0 1 200.67 177.96
  Q 201.29 177.88 202.01 178.05
  Z"
/>
<path fill="#8f93aa" d="
  M 230.21 185.60
  Q 230.22 185.55 230.25 185.51
  A 0.16 0.06 -52.3 0 1 230.40 185.42
  Q 231.19 186.27 231.27 186.31
  A 1.30 1.27 3.0 0 1 231.97 187.07
  Q 232.38 188.33 234.88 191.97
  Q 236.16 193.82 235.14 195.15
  A 1.07 1.07 0.0 0 1 234.29 195.57
  C 231.19 195.59 230.31 192.49 229.47 189.70
  Q 228.21 185.49 229.47 181.68
  A 0.06 0.06 0.0 0 1 229.58 181.69
  Q 229.61 182.28 230.14 185.65
  A 0.06 0.03 -60.0 0 0 230.21 185.60
  Z"
/>
<path fill="#8f93aa" d="
  M 204.98 182.94
  L 202.39 184.84
  L 202.00 185.24
  L 197.29 188.41
  A 0.43 0.43 0.0 0 1 196.67 188.27
  Q 196.30 187.61 197.24 187.02
  Q 198.18 186.79 198.02 186.27
  L 198.47 185.79
  Q 200.73 184.36 203.00 183.17
  C 203.69 182.80 203.74 182.07 204.23 181.76
  Q 204.73 181.46 204.98 182.06
  Q 205.14 182.42 204.98 182.94
  Z"
/>
<path fill="#8f93aa" d="
  M 221.22 184.22
  Q 222.03 185.35 221.27 186.59
  A 0.84 0.83 -68.1 0 1 220.39 186.97
  Q 219.81 186.85 219.17 185.96
  A 0.79 0.75 -7.3 0 0 218.80 185.69
  Q 214.52 184.16 211.44 185.03
  A 1.56 1.51 45.9 0 1 210.52 185.00
  L 205.90 183.40
  L 205.77 182.76
  A 0.56 0.55 78.9 0 1 206.20 182.11
  Q 206.67 182.01 207.02 182.18
  Q 210.64 183.91 214.75 183.23
  A 1.89 1.87 -38.8 0 1 215.72 183.33
  Q 218.37 184.32 221.22 184.22
  Z"
/>
<path fill="#686c71" d="
  M 407.16 184.27
  L 407.75 183.67
  A 1.31 1.27 -66.5 0 1 408.65 183.30
  L 411.89 183.30
  A 0.86 0.86 0.0 0 1 412.44 184.83
  Q 411.51 185.59 411.06 186.94
  A 0.46 0.46 0.0 0 0 411.47 187.54
  Q 412.11 187.57 412.38 187.45
  A 0.23 0.12 -22.8 0 1 412.63 187.47
  Q 412.65 187.52 412.70 187.50
  A 0.05 0.02 -34.5 0 1 412.66 187.56
  Q 408.44 188.58 407.06 184.72
  A 0.42 0.41 57.8 0 1 407.16 184.27
  Z"
/>
<path fill="#686c71" d="
  M 183.48 183.48
  Q 183.20 183.81 182.81 183.97
  Q 181.94 183.86 181.03 184.25
  Q 180.58 184.10 179.91 184.43
  Q 181.62 183.10 183.48 183.48
  Z"
/>
<path fill="#8f93aa" d="
  M 182.81 183.97
  Q 182.36 184.81 181.03 184.25
  Q 181.94 183.86 182.81 183.97
  Z"
/>
<path fill="#b49255" d="
  M 178.76 184.96
  Q 178.46 185.27 178.00 185.23
  Q 178.24 184.87 178.76 184.96
  Z"
/>
<path fill="#b49255" d="
  M 202.39 184.84
  Q 203.03 184.84 203.10 185.25
  Q 203.17 185.69 202.88 185.81
  Q 202.64 184.97 202.00 185.24
  L 202.39 184.84
  Z"
/>
<path fill="#b49255" d="
  M 178.00 185.23
  Q 177.30 186.04 176.18 185.98
  Q 176.97 185.23 178.00 185.23
  Z"
/>
<path fill="#679ee7" d="
  M 224.97 187.01
  C 225.41 190.50 223.27 193.71 222.20 196.98
  L 218.23 208.96
  Q 217.64 209.23 217.56 210.29
  L 217.03 211.65
  L 214.01 220.44
  A 2.20 2.13 78.5 0 1 213.48 221.27
  C 211.33 223.42 209.95 224.42 208.84 226.13
  Q 208.11 227.27 205.89 227.98
  Q 202.58 229.03 201.62 232.52
  A 1.45 1.43 -8.3 0 1 200.98 233.37
  Q 198.44 234.91 196.84 237.04
  Q 192.61 239.07 189.26 242.55
  C 181.77 246.03 175.49 251.49 169.90 256.41
  Q 166.68 259.25 163.36 261.29
  C 157.71 264.76 153.29 268.13 148.77 272.34
  A 2.07 1.93 88.0 0 0 148.50 272.65
  L 146.97 274.99
  Q 143.52 277.20 140.47 279.21
  Q 139.27 279.99 137.09 282.37
  A 2.04 2.01 -77.2 0 1 136.26 282.90
  C 133.52 283.80 132.61 285.09 130.12 287.63
  A 1.37 1.15 -76.5 0 1 129.74 287.91
  L 126.99 289.30
  A 2.14 1.94 7.2 0 0 126.49 289.65
  Q 122.76 293.20 118.02 296.25
  Q 117.10 296.84 114.86 299.36
  A 2.05 2.04 -80.4 0 1 114.12 299.89
  L 111.81 300.82
  A 1.96 1.90 -80.7 0 0 110.99 301.43
  Q 109.28 303.50 107.52 304.61
  C 104.21 306.70 101.45 309.10 96.14 312.96
  A 5.50 5.35 -86.4 0 0 95.40 313.63
  Q 93.02 316.26 89.65 317.59
  A 1.81 1.78 4.7 0 0 88.79 318.31
  Q 87.08 321.11 83.87 322.29
  A 3.86 3.72 13.8 0 0 82.75 322.94
  L 70.00 333.54
  Q 66.82 332.87 66.10 332.41
  Q 57.32 326.76 56.33 326.48
  A 2.53 2.49 74.3 0 1 55.23 325.85
  Q 52.48 323.22 47.89 321.10
  C 45.65 320.06 43.83 317.84 41.05 316.91
  Q 40.64 316.51 40.06 316.43
  L 32.73 311.56
  A 2.19 1.83 -14.6 0 0 32.20 311.31
  Q 29.73 310.52 27.78 308.76
  C 25.95 307.11 23.15 306.01 20.77 305.01
  Q 20.52 304.30 19.53 304.22
  Q 17.87 303.02 16.24 301.74
  Q 15.46 301.13 13.12 300.11
  Q 11.67 299.48 10.11 298.17
  Q 7.73 296.17 0.00 292.49
  L 0.00 290.54
  Q 2.53 290.38 5.53 288.28
  Q 44.29 261.08 82.56 233.97
  Q 86.31 233.74 88.29 229.86
  L 122.05 205.91
  Q 130.17 209.74 134.95 211.51
  Q 136.00 211.91 138.37 211.88
  A 0.47 0.39 50.2 0 1 138.59 211.92
  L 151.26 217.05
  A 1.04 0.96 54.4 0 0 151.65 217.13
  L 152.82 217.13
  A 2.46 2.26 -33.4 0 1 153.57 217.25
  Q 157.01 218.44 164.17 221.35
  Q 165.03 221.70 165.93 221.56
  Q 166.72 221.44 167.17 221.70
  Q 167.78 222.04 173.34 223.40
  A 0.41 0.41 0.0 0 1 173.56 224.06
  Q 173.50 224.13 173.49 224.17
  A 0.11 0.10 20.8 0 0 173.55 224.29
  C 177.92 226.18 180.26 227.48 182.98 227.67
  A 3.60 3.40 -30.7 0 1 183.96 227.89
  L 197.58 233.25
  A 0.15 0.14 -59.7 0 0 197.75 233.20
  L 198.03 232.83
  A 0.29 0.28 -61.7 0 0 197.90 232.39
  L 188.33 228.62
  A 0.43 0.43 0.0 0 1 188.13 227.99
  L 188.48 227.43
  L 197.90 230.10
  Q 197.94 230.25 198.11 230.31
  Q 198.24 230.36 198.39 230.29
  Q 198.88 230.09 198.38 229.64
  Q 203.37 227.92 206.46 225.50
  Q 211.04 221.37 211.22 218.01
  L 213.82 212.08
  L 215.00 208.32
  L 216.15 204.11
  Q 219.42 197.50 220.83 190.60
  Q 223.06 183.81 224.97 187.01
  Z
  M 123.9437 212.4560
  A 1.33 0.72 -19.5 0 0 122.4497 212.2213
  A 1.33 0.72 -19.5 0 0 121.4363 213.3440
  A 1.33 0.72 -19.5 0 0 122.9303 213.5787
  A 1.33 0.72 -19.5 0 0 123.9437 212.4560
  Z
  M 104.4073 220.1359
  A 2.94 0.55 -33.3 0 0 101.6480 221.2903
  A 2.94 0.55 -33.3 0 0 99.4927 223.3641
  A 2.94 0.55 -33.3 0 0 102.2520 222.2097
  A 2.94 0.55 -33.3 0 0 104.4073 220.1359
  Z
  M 184.3276 234.3789
  A 1.57 0.72 -23.7 0 0 182.6006 234.3507
  A 1.57 0.72 -23.7 0 0 181.4524 235.6411
  A 1.57 0.72 -23.7 0 0 183.1794 235.6693
  A 1.57 0.72 -23.7 0 0 184.3276 234.3789
  Z
  M 181.73 243.77
  Q 175.93 243.23 173.95 239.65
  Q 172.59 237.19 171.43 236.78
  Q 166.81 235.16 164.24 236.04
  Q 153.47 239.77 150.42 241.00
  A 0.20 0.20 0.0 0 0 150.31 241.25
  L 150.31 241.27
  A 0.42 0.41 -16.6 0 0 150.82 241.54
  Q 156.11 239.99 160.20 238.82
  C 164.82 237.50 167.90 237.83 171.30 240.79
  C 174.55 243.62 177.56 246.25 181.81 244.19
  A 0.22 0.22 0.0 0 0 181.73 243.77
  Z
  M 111.4634 253.5379
  A 1.57 0.88 -20.2 0 0 109.6861 253.2541
  A 1.57 0.88 -20.2 0 0 108.5166 254.6221
  A 1.57 0.88 -20.2 0 0 110.2939 254.9059
  A 1.57 0.88 -20.2 0 0 111.4634 253.5379
  Z
  M 19.3592 287.1874
  A 1.36 0.77 -26.3 0 0 17.7988 287.0997
  A 1.36 0.77 -26.3 0 0 16.9208 288.3926
  A 1.36 0.77 -26.3 0 0 18.4812 288.4803
  A 1.36 0.77 -26.3 0 0 19.3592 287.1874
  Z
  M 12.71 289.07
  L 12.26 289.99
  A 0.24 0.24 0.0 0 0 12.37 290.31
  L 14.70 291.44
  A 2.75 0.60 26.0 0 0 17.43 292.11
  L 17.56 291.84
  A 2.75 0.60 26.0 0 0 15.35 290.09
  L 13.03 288.96
  A 0.24 0.24 0.0 0 0 12.71 289.07
  Z
  M 69.57 313.07
  Q 70.09 313.04 70.72 312.48
  A 0.34 0.34 0.0 0 0 70.49 311.89
  Q 69.58 311.90 69.12 312.41
  Q 68.46 313.15 69.57 313.07
  Z
  M 66.27 321.44
  L 71.41 324.41
  A 0.85 0.84 -47.2 0 0 72.33 324.37
  L 78.68 319.80
  A 1.31 1.02 -63.6 0 1 78.99 319.65
  Q 80.92 319.02 84.02 316.19
  A 0.31 0.30 -50.9 0 0 83.97 315.70
  L 83.66 315.52
  A 0.33 0.33 0.0 0 0 83.31 315.54
  L 77.94 319.33
  A 2.78 2.40 -82.9 0 0 77.62 319.62
  Q 75.95 321.44 72.91 323.03
  A 1.45 1.44 -47.1 0 1 71.67 323.08
  Q 68.84 321.87 66.75 320.99
  Q 66.34 320.81 66.18 321.15
  A 0.22 0.22 0.0 0 0 66.27 321.44
  Z
  M 73.5238 317.7564
  A 1.77 0.77 -41.1 0 0 71.6838 318.3398
  A 1.77 0.77 -41.1 0 0 70.8562 320.0836
  A 1.77 0.77 -41.1 0 0 72.6962 319.5002
  A 1.77 0.77 -41.1 0 0 73.5238 317.7564
  Z"
/>
<path fill="#b49255" d="
  M 198.02 186.27
  Q 198.18 186.79 197.24 187.02
  Q 197.27 186.49 198.02 186.27
  Z"
/>
<ellipse fill="#8f93aa" cx="0.00" cy="0.00" transform="translate(281.93,187.25) rotate(-24.6)" rx="0.77" ry="0.64"/>
<path fill="#8f93aa" d="
  M 220.83 190.60
  Q 219.42 197.50 216.15 204.11
  L 217.94 194.06
  L 217.18 188.74
  A 0.73 0.72 -76.6 0 1 218.31 188.04
  Q 219.78 189.08 220.83 190.60
  Z"
/>
<path fill="#686c71" d="
  M 397.26 189.18
  A 0.88 0.88 0.0 0 1 398.90 189.64
  L 398.90 191.78
  A 0.90 0.90 0.0 0 0 399.08 192.32
  Q 400.46 194.10 403.59 195.65
  Q 404.15 195.92 404.17 196.07
  A 0.88 0.88 0.0 0 1 402.64 196.79
  C 401.13 195.09 398.11 193.87 397.42 192.28
  Q 396.56 190.32 397.26 189.18
  Z"
/>
<path fill="#b49255" d="
  M 166.76 189.49
  Q 166.01 189.94 165.23 189.97
  Q 162.71 189.34 166.76 189.49
  Z"
/>
<path fill="#686c71" d="
  M 162.04 190.70
  Q 161.97 190.83 161.90 190.96
  Q 161.41 191.00 160.97 191.29
  Q 160.88 191.26 160.79 191.23
  Q 161.28 190.45 162.04 190.70
  Z"
/>
<path fill="#8f93aa" d="
  M 161.90 190.96
  Q 161.66 191.57 160.97 191.29
  Q 161.41 191.00 161.90 190.96
  Z"
/>
<path fill="#686c71" d="
  M 401.60 201.09
  Q 400.72 203.17 401.94 205.80
  Q 405.84 214.20 410.78 223.23
  A 1.34 1.34 0.0 0 1 410.50 224.88
  L 359.88 269.71
  A 1.30 1.30 0.0 0 1 357.92 269.43
  Q 348.81 254.98 340.28 240.16
  Q 339.25 238.37 340.78 237.03
  Q 361.35 218.99 384.14 199.90
  Q 386.81 197.66 388.19 195.68
  A 1.30 1.30 0.0 0 0 387.48 193.69
  C 385.75 193.19 383.35 195.36 381.32 197.07
  Q 375.47 201.99 340.66 231.40
  Q 338.30 233.39 336.16 235.62
  A 1.75 1.74 60.3 0 0 335.72 237.25
  L 336.14 238.93
  A 0.31 0.31 0.0 0 1 335.56 239.14
  L 333.31 234.80
  A 2.19 2.17 -54.2 0 1 333.09 233.40
  C 333.23 232.64 334.20 231.17 334.42 230.09
  Q 335.86 223.18 338.45 217.03
  C 340.10 213.12 340.86 210.03 341.11 206.26
  A 1.51 1.50 -80.3 0 0 340.02 204.71
  L 333.56 202.88
  L 336.94 201.41
  A 1.06 1.05 49.4 0 1 337.94 201.49
  L 343.79 205.28
  A 0.54 0.52 -30.9 0 0 344.17 205.37
  Q 345.83 205.21 347.02 206.76
  A 0.26 0.26 0.0 0 1 346.95 207.14
  L 346.92 207.16
  A 0.23 0.23 0.0 0 1 346.62 207.12
  Q 345.98 206.39 345.17 206.24
  A 0.53 0.52 -76.5 0 0 344.56 206.62
  L 339.15 226.12
  A 1.19 1.19 0.0 0 0 340.10 227.61
  Q 341.49 227.85 342.35 227.10
  Q 347.72 222.42 352.18 218.65
  C 354.38 216.79 356.96 215.53 358.38 213.27
  A 2.26 2.25 2.6 0 1 359.26 212.47
  Q 361.48 211.35 362.85 209.77
  C 365.02 207.25 368.27 205.05 370.35 204.02
  A 0.82 0.78 -77.6 0 0 370.60 203.85
  L 377.26 197.78
  A 7.80 7.00 -88.7 0 0 378.06 196.93
  L 379.00 195.73
  A 0.93 0.89 -81.1 0 1 379.37 195.45
  Q 382.21 194.26 382.86 192.04
  A 0.73 0.70 -85.9 0 1 383.43 191.53
  Q 384.21 191.42 384.67 191.83
  Q 385.10 192.20 385.84 192.08
  Q 388.09 191.72 389.87 192.85
  A 1.06 1.05 17.2 0 1 390.35 193.75
  Q 390.34 194.22 390.91 195.08
  A 1.23 1.22 81.7 0 0 391.56 195.57
  Q 395.84 196.98 400.45 200.84
  A 0.30 0.30 0.0 0 1 400.53 201.20
  Q 400.41 201.42 400.54 201.58
  A 0.27 0.26 -48.5 0 0 400.97 201.55
  Q 401.46 200.79 401.60 201.09
  Z"
/>
<path fill="#b49255" d="
  M 318.62 196.59
  Q 317.94 196.76 316.89 196.37
  A 0.48 0.47 -45.8 0 1 316.88 195.48
  Q 316.93 195.46 318.26 195.13
  Q 319.59 194.81 319.64 194.80
  A 0.48 0.47 18.1 0 1 320.04 195.59
  Q 319.30 196.43 318.62 196.59
  Z"
/>
<ellipse fill="#b49255" cx="0.00" cy="0.00" transform="translate(293.41,196.09) rotate(-8.7)" rx="1.17" ry="0.91"/>
<ellipse fill="#8f93aa" cx="0.00" cy="0.00" transform="translate(206.00,197.11) rotate(-40.4)" rx="1.49" ry="0.65"/>
<path fill="#686c71" d="
  M 424.52 197.37
  Q 424.53 197.39 424.58 197.76
  A 0.36 0.35 78.4 0 1 424.32 198.16
  Q 424.27 198.18 423.91 198.19
  A 0.46 0.45 -14.9 0 0 423.52 198.86
  L 426.85 204.93
  A 0.70 0.70 0.0 0 1 426.53 205.91
  L 426.48 205.93
  A 0.85 0.85 0.0 0 1 425.38 205.50
  Q 423.43 201.22 419.31 198.37
  A 0.55 0.55 0.0 0 1 419.65 197.37
  Q 421.42 197.47 423.57 197.46
  Q 423.91 197.46 424.01 197.32
  A 0.30 0.30 0.0 0 1 424.52 197.37
  Z"
/>
<path fill="#b49255" d="
  M 308.95 197.68
  Q 312.45 197.82 315.40 198.84
  A 0.34 0.34 0.0 0 1 315.40 199.49
  C 313.89 200.02 310.50 198.93 308.91 198.87
  C 307.32 198.81 303.85 199.64 302.39 198.98
  A 0.34 0.34 0.0 0 1 302.44 198.34
  Q 305.46 197.55 308.95 197.68
  Z"
/>
<path fill="#8f93aa" d="
  M 286.31 208.04
  Q 283.35 210.31 280.04 211.14
  Q 284.06 208.18 287.08 205.32
  Q 288.16 204.30 289.34 204.93
  A 0.52 0.52 0.0 0 1 289.15 205.90
  Q 286.65 206.16 286.31 208.04
  Z"
/>
<path fill="#b49255" d="
  M 459.54 207.73
  L 457.85 209.24
  Q 458.21 207.85 459.54 207.73
  Z"
/>
<path fill="#b49255" d="
  M 215.00 208.32
  L 213.82 212.08
  Q 213.45 209.85 215.00 208.32
  Z"
/>
<path fill="#8f93aa" d="
  M 218.23 208.96
  L 217.90 210.25
  L 217.56 210.29
  Q 217.64 209.23 218.23 208.96
  Z"
/>
<path fill="#686c71" d="
  M 217.90 210.25
  L 217.43 212.01
  Q 217.23 211.83 217.03 211.65
  L 217.56 210.29
  L 217.90 210.25
  Z"
/>
<path fill="#8f93aa" d="
  M 217.03 211.65
  Q 217.23 211.83 217.43 212.01
  Q 215.23 216.10 216.67 219.90
  A 1.86 1.85 -32.0 0 1 216.20 221.91
  Q 214.09 223.85 211.42 224.90
  A 3.11 3.11 0.0 0 0 210.22 225.73
  Q 205.31 231.12 197.59 236.81
  Q 197.09 237.18 196.84 237.04
  Q 198.44 234.91 200.98 233.37
  A 1.45 1.43 -8.3 0 0 201.62 232.52
  Q 202.58 229.03 205.89 227.98
  Q 208.11 227.27 208.84 226.13
  C 209.95 224.42 211.33 223.42 213.48 221.27
  A 2.20 2.13 78.5 0 0 214.01 220.44
  L 217.03 211.65
  Z"
/>
<ellipse fill="#8f93aa" cx="0.00" cy="0.00" transform="translate(122.69,212.90) rotate(-19.5)" rx="1.33" ry="0.72"/>
<path fill="#8f93aa" d="
  M 211.22 218.01
  Q 211.04 221.37 206.46 225.50
  C 206.40 223.00 203.56 223.03 201.69 222.82
  A 0.38 0.38 0.0 0 1 201.45 222.18
  Q 203.29 220.17 205.88 219.65
  A 3.12 3.04 -66.0 0 0 206.91 219.24
  Q 208.72 218.08 211.22 218.01
  Z"
/>
<ellipse fill="#8f93aa" cx="0.00" cy="0.00" transform="translate(101.95,221.75) rotate(-33.3)" rx="2.94" ry="0.55"/>
<path fill="#8f93aa" d="
  M 198.38 229.64
  Q 198.88 230.09 198.39 230.29
  Q 198.24 230.36 198.11 230.31
  Q 197.94 230.25 197.90 230.10
  Q 198.80 229.67 198.38 229.64
  Z"
/>
<path fill="#8f93aa" d="
  M 88.29 229.86
  Q 86.31 233.74 82.56 233.97
  L 88.29 229.86
  Z"
/>
<ellipse fill="#8f93aa" cx="0.00" cy="0.00" transform="translate(182.89,235.01) rotate(-23.7)" rx="1.57" ry="0.72"/>
<path fill="#8f93aa" d="
  M 181.81 244.19
  C 177.56 246.25 174.55 243.62 171.30 240.79
  C 167.90 237.83 164.82 237.50 160.20 238.82
  Q 156.11 239.99 150.82 241.54
  A 0.42 0.41 -16.6 0 1 150.31 241.27
  L 150.31 241.25
  A 0.20 0.20 0.0 0 1 150.42 241.00
  Q 153.47 239.77 164.24 236.04
  Q 166.81 235.16 171.43 236.78
  Q 172.59 237.19 173.95 239.65
  Q 175.93 243.23 181.73 243.77
  A 0.22 0.22 0.0 0 1 181.81 244.19
  Z"
/>
<path fill="#8f93aa" d="
  M 196.84 237.04
  Q 193.68 240.38 189.26 242.55
  Q 192.61 239.07 196.84 237.04
  Z"
/>
<ellipse fill="#8f93aa" cx="0.00" cy="0.00" transform="translate(109.99,254.08) rotate(-20.2)" rx="1.57" ry="0.88"/>
<path fill="#8f93aa" d="
  M 146.97 274.99
  Q 145.86 276.77 144.39 277.89
  C 136.83 283.67 129.33 289.76 122.44 294.93
  Q 95.69 314.97 72.12 333.11
  A 0.63 0.57 -8.6 0 0 71.99 333.27
  L 71.02 335.00
  L 70.38 335.00
  Q 69.88 334.27 70.00 333.54
  L 82.75 322.94
  A 3.86 3.72 13.8 0 1 83.87 322.29
  Q 87.08 321.11 88.79 318.31
  A 1.81 1.78 4.7 0 1 89.65 317.59
  Q 93.02 316.26 95.40 313.63
  A 5.50 5.35 -86.4 0 1 96.14 312.96
  C 101.45 309.10 104.21 306.70 107.52 304.61
  Q 109.28 303.50 110.99 301.43
  A 1.96 1.90 -80.7 0 1 111.81 300.82
  L 114.12 299.89
  A 2.05 2.04 -80.4 0 0 114.86 299.36
  Q 117.10 296.84 118.02 296.25
  Q 122.76 293.20 126.49 289.65
  A 2.14 1.94 7.2 0 1 126.99 289.30
  L 129.74 287.91
  A 1.37 1.15 -76.5 0 0 130.12 287.63
  C 132.61 285.09 133.52 283.80 136.26 282.90
  A 2.04 2.01 -77.2 0 0 137.09 282.37
  Q 139.27 279.99 140.47 279.21
  Q 143.52 277.20 146.97 274.99
  Z"
/>
<ellipse fill="#8f93aa" cx="0.00" cy="0.00" transform="translate(18.14,287.79) rotate(-26.3)" rx="1.36" ry="0.77"/>
<path fill="#8f93aa" d="
  M 12.71 289.07
  A 0.24 0.24 0.0 0 1 13.03 288.96
  L 15.35 290.09
  A 2.75 0.60 26.0 0 1 17.56 291.84
  L 17.43 292.11
  A 2.75 0.60 26.0 0 1 14.70 291.44
  L 12.37 290.31
  A 0.24 0.24 0.0 0 1 12.26 289.99
  L 12.71 289.07
  Z"
/>
<ellipse fill="#8f93aa" cx="0.00" cy="0.00" transform="translate(11.78,302.10) rotate(-116.3)" rx="1.13" ry="0.82"/>
<path fill="#8f93aa" d="
  M 20.77 305.01
  Q 20.07 305.02 19.53 304.22
  Q 20.52 304.30 20.77 305.01
  Z"
/>
<path fill="#8f93aa" d="
  M 69.12 312.41
  Q 69.58 311.90 70.49 311.89
  A 0.34 0.34 0.0 0 1 70.72 312.48
  Q 70.09 313.04 69.57 313.07
  Q 68.46 313.15 69.12 312.41
  Z"
/>
<path fill="#8f93aa" d="
  M 66.18 321.15
  Q 66.34 320.81 66.75 320.99
  Q 68.84 321.87 71.67 323.08
  A 1.45 1.44 -47.1 0 0 72.91 323.03
  Q 75.95 321.44 77.62 319.62
  A 2.78 2.40 -82.9 0 1 77.94 319.33
  L 83.31 315.54
  A 0.33 0.33 0.0 0 1 83.66 315.52
  L 83.97 315.70
  A 0.31 0.30 -50.9 0 1 84.02 316.19
  Q 80.92 319.02 78.99 319.65
  A 1.31 1.02 -63.6 0 0 78.68 319.80
  L 72.33 324.37
  A 0.85 0.84 -47.2 0 1 71.41 324.41
  L 66.27 321.44
  A 0.22 0.22 0.0 0 1 66.18 321.15
  Z"
/>
<path fill="#8f93aa" d="
  M 41.05 316.91
  Q 40.31 317.03 40.06 316.43
  Q 40.64 316.51 41.05 316.91
  Z"
/>
<ellipse fill="#8f93aa" cx="0.00" cy="0.00" transform="translate(72.19,318.92) rotate(-41.1)" rx="1.77" ry="0.77"/>
<path fill="#8f93aa" d="
  M 18.11 321.86
  Q 17.85 321.91 17.69 321.87
  A 0.17 0.17 0.0 0 1 17.65 321.56
  Q 17.78 321.49 18.12 321.58
  A 0.15 0.14 47.8 0 1 18.11 321.86
  Z"
/>
</svg>
