<svg xmlns="http://www.w3.org/2000/svg" baseProfile="tiny" width="512" height="710" xmlns:v="https://vecta.io/nano"><style><![CDATA[.B{fill:#010102}.C{fill:#eef1d4}.D{fill:#bfb489}]]></style><path d="M94.88 0l2.77.72a.2.2 0 0 1 .01.38q-2.07.69-3.73.72c-3.17.06-4.09 2.04-3.67 4.71q.12.81 1.53 8.17a6.07 5.89-64.3 0 0 .49 1.47l6.61 13.59a.49.38 38 0 1 .05.2q.01 1.88 1.25 1.81a.65.62-66 0 0 .39-.16l1.81-1.66a.87.86 30.6 0 1 .79-.2c3.32.85 4.6 8.75 4.89 11.55q.63 6.14 1.27 8.35c2.65 9.16 5.41 18.4 11.13 24.4a2.42 2.25 16.4 0 1 .54.91c1.37 4.45 3.55 8.26 4.98 11.97q3.02 7.86 8.71 20.34 5.19 11.39 20.01 46.51c2.6 6.15 6.17 14.58 8.15 21.83q1.16 4.24 2.59 8.48a1.07 1.06 2.7 0 0 .59.64q1.17.51 2.79.38c-3.62 1.55-6.87 2.81-10.76 4.65q-1.92.9-6.21 2.13a.96.17-10 0 1-.11.04l-7.78 3.78a.66.66 0 0 1-.92-.4l-1.11-3.71a1.01 1 4.2 0 0-.54-.62q-1.51-.72-3.31-.5a.7.69 85.8 0 0-.6.7q.07 3.53 2.02 5.49a.5.5 0 0 1-.15.81q-9.11 3.97-18.71 8.47-.4.19-1.17.72-.85.6-1.44.54a.87.87 0 0 0-.54.12q-1.81 1.13-2.07 2.77-.62 4.01-1.85 8.31a4.33 4.3-38.1 0 0-.15 1.2q.08 5.47-1.42 10.41.11-4.74.12-9.42c.02-4.56 1-8.61 2.07-12.21q1.01-3.42 4.38-3.7a.75.74 4.1 0 0 .68-.58c1.03-4.42-1.52-12.25-5.87-14.32a1.92 1.76-56.6 0 0-2.17.55q-.64.76-1.05 1.11a.56.56 0 0 1-.86-.16q-2.47-4.6-2.7-5.12-10.57-24.79-16.65-45.86-.92-3.22-1.11-5.65a2.31 2.31 0 0 1 1.26-2.24l2.74-1.38a.95.94-6 0 0 .48-.59q.57-2.1-1.49-2.81-4.67-1.62-10.53-2.64c-5.02-.88-8.01-5.84-9.09-10.38a.78.78 0 0 0-.76-.6h-1.45a.79.78-72.5 0 1-.64-1.24c4.07-5.86 4.89-13.99 2.94-20.85-2.61-9.2-8.13-15.07-14.95-23.99-1.33-1.73-1.22-2.48-.31-4.14a1.44 1.44 0 0 0 .02-1.37q-3.41-6.68-5.85-9.42c-4.53-5.07-7.94-8.03-8.27-14.21q-.37-7.11-1.02-8.98-1.74-4.94-2.6-7.75a3.16 3.16 0 0 1 .8-3.16c3.12-3.11 7.67-5.42 14.57-9.31q3.01-1.69 3.56-4.62a1.61 1.57 31.2 0 1 2.81-.66q1.74 2.13 4.69.7Q71.9 2.05 78.4 0h16.48zm-7.92 8.21q-.22.11-.4.87-2.14 8.89-6.8 14.91-4.1 5.29-10.78 11.4-3.8 3.48-4.36 5.19-1.14 3.49-1.23 6.85c-.1 3.42 6.19 7.93 8.77 9a1.54 1.54 0 0 0 .95.09c8.23-1.84 12.47-16.12 17.88-22.7 2.1-2.56 5.68-6.31 4.5-8.89q-3.67-8-6.61-15.96a1.39 1.38 66.4 0 0-1.92-.76zM50.17 44.52q-.06-.32.03-.48a.13.13 0 0 1 .23.02l1.3 3.2a.94.83-81.3 0 0 .2.31q1.49 1.42 1.45 3.84a.03.03 0 0 0 .05.02q.08-.11.05-.26a.11.06 50.2 0 1 .16.06q.46 2.54 1.51 5.95a.51.51 0 0 0 1-.14q.06-9.43 4.82-16.87c3.04-4.76 8.26-7.25 10.52-11.9q1.84-3.79 1.85-8.69a1.23 1.2-70.8 0 0-.44-.94l-7.07-5.74a3.55 3.55 0 0 0-3.39-.6q-5.95 2.03-8.42 7.71-3.05 7.05-4.5 15.16-.57 3.22.63 9.34.08.41.02.01zm51.05-1.46q1.67 2.29 3.03 3.49a.52.52 0 0 0 .85-.5q-1.38-6.46-5.13-12.12c-.76-1.14-.79-2.61-1.75-3.73a.76.76 0 0 0-1.32.31c-1.32 5.25 1.24 8.33 4.32 12.55zm58.434 139.47a1.78.92-98.6 0 0-.643 1.898 1.78.92-98.6 0 0 1.176 1.622 1.78.92-98.6 0 0 .643-1.898 1.78.92-98.6 0 0-1.176-1.622zm-5.884 7.59l-3.05-4.58a.18.18 0 0 0-.25-.05l-.06.04a2.83 2.75 56.3 0 0-.71 3.88l.11.17a2.83 2.75 56.3 0 0 3.86.82l.05-.03a.18.18 0 0 0 .05-.25zm-33.536 9.503a1.95.79-93.4 0 0-.673 1.993 1.95.79-93.4 0 0 .904 1.9 1.95.79-93.4 0 0 .673-1.994 1.95.79-93.4 0 0-.904-1.9z" class="B"/><path d="M86.96 8.21a1.39 1.38 66.4 0 1 1.92.76q2.94 7.96 6.61 15.96c1.18 2.58-2.4 6.33-4.5 8.89-5.41 6.58-9.65 20.86-17.88 22.7a1.54 1.54 0 0 1-.95-.09c-2.58-1.07-8.87-5.58-8.77-9q.09-3.36 1.23-6.85.56-1.71 4.36-5.19 6.68-6.11 10.78-11.4 4.66-6.02 6.8-14.91.18-.76.4-.87zm-36.81 36.3q-1.2-6.12-.63-9.34 1.45-8.11 4.5-15.16 2.47-5.68 8.42-7.71a3.55 3.55 0 0 1 3.39.6l7.07 5.74a1.23 1.2-70.8 0 1 .44.94q-.01 4.9-1.85 8.69c-2.26 4.65-7.48 7.14-10.52 11.9q-4.76 7.44-4.82 16.87a.51.51 0 0 1-1 .14q-1.05-3.41-1.51-5.95a.11.06 50.2 0 0-.16-.06q.03.15-.05.26a.03.03 0 0 1-.05-.02q.04-2.42-1.45-3.84a.94.83-81.3 0 1-.2-.31l-1.3-3.2a.13.13 0 0 0-.23-.02q-.09.16-.03.48.06.4-.02-.01zm51.07-1.45c-3.08-4.22-5.64-7.3-4.32-12.55a.76.76 0 0 1 1.32-.31c.96 1.12.99 2.59 1.75 3.73q3.75 5.66 5.13 12.12a.52.52 0 0 1-.85.5q-1.36-1.2-3.03-3.49zm123.8 33.98q.11 1.19.73 2.18.03.39.19.74l.81 2.49q.16 1.81.99 3.35l.22.91.35 1.07q-.02.41.16.66.13 1.89 1.06 3.36l.15.66.38 1.32q.01.43.2.73.2 2.12 1.21 3.97l.35 1.26q0 .44.17.77.21 2.2 1.29 4.03-.08.38.19.72l.57 2q0 .47.18.73l1.71 6q1.12 4.64 2.64 9.15 4.23 12.63 9.49 27.65c3.25 9.29 3.94 16.27 8.16 23.83 1.12 1.99 2.21 5.03 2.73 6.63a.67.67 0 0 0 .98.37q7.02-4.24 14.76-5.32.14.14.27.28l.75.14 3.58.83 1.42.15q1.46.48 2.6 1.5l1.48 2.81a.91.9-9.3 0 0 .66.47c2.27.36 3.82-.38 6.36.56q.31 1.12-.13 2.26l-2.9 3.57a1.01.98-33.9 0 0-.19.88q.31 1.09 1.05 1.98c1.8 7.08 2.92 14 9.78 18.06q1.1.65 1.8 3.32-1.14 1.01-1.71 2.37a1.37 1.35-42.9 0 0-.04.93q3.17 9.69 5.86 14.5 1.01 1.81 4.46 2.7l1.49 4.58c-1.34 1.51-.23 3.43-.5 5.24.76 5.22 1.4 9.28 4.88 13.05a1.39 1.24-3.2 0 0 .3.24l7.25 4.19a5.06 5.04 52.1 0 0 3.88.49q17.44-4.86 39.64-10.67 13.36-3.5 25.01-4.83 3.82-.44 8.18.96.35.95 1.37.62 2.69 1.63 4.49 4.22.15 2.1 1.59 3.4l.6 1.85q-1.13 2.27.97 3.43l5.22 13.16q.03.66.4.72-.27.5-.12.97 2.14 6.8 5.1 13.25.43.94.98.83.03 1 .48 1.98-1.1 2.65 1.18 4.1l3.92 12.54q-4.26-7.03-5.97-14.38a5.03 4.77 26.8 0 0-.34-.95q-4.78-9.91-6.53-15.73-2.67-8.89-6.22-17.18a2 1.98 10.2 0 0-.5-.71q-1.46-1.32-2.39-3.31a.67.67 0 0 0-1.13-.13q-3.05 3.89-4.04 7.22a.7.69 80.8 0 0 1.06.77q1.79-1.26 2.39-3.6a.97.83-65.3 0 1 1.38-.64q.87.69 1.06 1.48.13.53-.77 1.58-2.42 2.83-4.82 5.66-.42-2.59-1.31-3.95a2.58 2.58 0 0 0-3.18-.93q-3.84 1.67-4.87 4.4a.73.72-84.1 0 1-.55.45l-3.94.74a1.44 1.43-5.3 0 0-1.17 1.41v8.51a.38.37 28.7 0 1-.69.2l-.64-1q1.96-4.36.37-7.02a1.99 1.92 25.6 0 1-.27-.73l-.1-.7a.05.03-76.7 0 0-.01-.03h-.01a.01.01 0 0 0-.01.01q.17.67-.03.96a.28.28 0 0 1-.51-.15q-.03-1.4.15-1.71a.19.19 0 0 0-.1-.28q-.06-.03-.26-.07a.06.06 0 0 1 0-.12l.72-.13a.33.33 0 0 0 .23-.48l-.89-1.67a1.43 1.43 0 0 1 .15-1.58l.89-1.09a.2.2 0 0 0-.26-.3l-3.16 1.82a.42.38-61.7 0 1-.17.06q-.5.09-.65-.59-.19-.88-.48-1.01-.37-.17-.73-.3a1.57 1.57 0 0 1-.86-.73q-.64-1.14-.79-.51a.16.16 0 0 0 .02.13l.83 1.58a1.69 1.69 0 0 1-.02 1.63l-2.25 3.89a1.05 1.02.7 0 1-.42.4l-5.69 2.9a.55.48-79.6 0 0-.19.15l-1.73 2.14a1.76 1.65-81.5 0 1-.57.45q-5.63 2.63-9.83 6.41a2.62 2.55-74.8 0 1-.88.52q-2.58.93-4.83 2.38-3.2 2.07-3.32 2.13-2.48 1.3-14.41 8.18a5.49 5.27-68 0 1-.98.44q-5.32 1.77-10.37 5.08a4.61 4.5 20.2 0 1-1.32.59q-2.18.58-6.92 3.74c-4.74 3.14-9.93 5.1-14.61 7.84q-.32.18-9.25 4.72c-1.9.96-3.88 1.45-5.79 2.6a.65.65 0 0 0 .37 1.21q4.88-.28 8.23-3.5a.31.28 3.2 0 1 .1-.08l4.97-2.76a1.36 1.36 0 0 1 2.02 1.17c.03 2.64-2.11 4.19-4.53 5.09-4.75 1.76-8.39 3.46-12.09 4.32a6.07 5.93 23.9 0 0-1.5.56l-22.99 12.26a3.44 2.23-57.1 0 1-.38.17l-3.75 1.53a.36.35-72.6 0 0-.11.06l-6.26 5a2.71 2.11-70.5 0 1-.33.21q-4.21 1.93-4.94 2.08-9.25 1.8-14.22 8.63c-5.28 2.18-10.6 5.46-15.53 7.12-8.14 2.73-14.23 6.4-22.16 8.97-4.93 1.6-10.87 4.92-16.65 6.35l-4.23-.64a1.5 1.5 0 0 0-1.62 2.05l.72 1.77a1.47 1.44 45.7 0 1 0 1.09q-.6 1.54-2.51 1.74a.77.76-2.7 0 1-.84-.76v-3.28a.44.44 0 0 0-.7-.35q-5.27 3.92-11.17 6.09a2.43 2.42-10 0 0-1.6 2.28v.88a.84.84 0 0 0 1.26.72q4.01-2.35 8.95-2.96a.48.44 53.7 0 1 .29.06q.71.42.37 1.84l-32.34 12.13a.08.08 0 0 0-.05.11l31.27 70.72-1.91 2.01-31.83-70.38a1.95 1.94 68 0 0-2.41-1.03l-27.49 9.61q-5.09-.79-10.17-1.52-2.4-.35-5.86-2.57-.53-1.29-.17-2.23c.59-1.58 2.4-.61 3.24-2.12a1.15 1.14 9 0 1 .79-.57l9.36-1.76a.94.89-78.3 0 0 .62-.43c1.1-1.78.65-3.78-.71-5.36q-1.2-1.39-1.31-1.58a1.45 1.42-58.3 0 1-.24-1.07l.43-2.48a1.39 1.37-61.1 0 0-.32-1.14l-2.99-3.41a2.66 2.65 13.3 0 1-.47-.76l-3.43-8.46a.75.75 0 0 0-1.21-.26c-1.46 1.38-5.92.44-7.78-.26a.84.83 41.3 0 1-.1-1.52q2.67-1.42 5.28-1.65 1.56-.15 1.41-1.67a1.26 1.26 0 0 0-1.73-1.04l-8.11 3.28a1.5 1.49-27.5 0 1-1.82-.57l-.55-.84a.89.89 0 0 0-1.63.53q.16 2.69 2.08 5.33.78 1.07-.11 3.21a.89.89 0 0 1-.79.55l-3.45.14a.99.99 0 0 0-.72.36l-2.56 3.16a1.39 1.38-77.1 0 1-.73.46q-3.23.8-4.86 2.6a1.23 1.22-24.9 0 0-.31.84q.02.77-.39 1.88a.85.85 0 0 1-.66.55c-4.57.75-3.86-.57-6.27-3.54q-.16-.19-1.29-2.38-.82-1.59-2.98-3.08l10.63-7.11 5.73-1.25a1.95 1.94 86.7 0 0 1.52-1.71q.2-1.95-.69-2.65l5.43-7.37a1.28 1.28 0 0 0 .16-1.23q-1.89-4.69-.96-10.62a2.21 2.18-23.2 0 1 .39-.95q1.03-1.45 1.5-3.9a1.17 1.17 0 0 0-1.58-1.31c-3.37 1.33-10.5 1.87-14.27-.7a.48.47 48.8 0 1 .05-.82l5.21-2.63a1.54 1.54 0 0 0 .59-2.21l-3.16-4.87a1.22 1.22 0 0 1 .16-1.53l1.19-1.19a1.79 1.78-45.1 0 0 0-2.53l-3.21-3.22a3.82 3.81-13.4 0 0-1.47-.9q-1.73-.56-2.75-1.49a2.67 2.65-24.9 0 0-1.88-.68l-6.35.26a1.13 1.13 0 0 1-.92-1.84l5.55-6.83a1.49 1.49 0 0 0-.21-2.08q-9.5-7.91-13.51-20.14 6.02.11 11.09-2.39a.74.74 0 0 0 .4-.82q-.98-4.64-3.56-8.42a.6.54-73.3 0 1-.11-.23q-.41-1.67 2.1-4.3l13.6-6.69q5.69-1.73 1.62-5.24l-3.78-7.78q-1.07-3.3-3.47-5.78-10.12-16.63-20.96-32.86-7.57-11.34-10.57-16.24-8.82-14.38-9.98-16.64-1.67-3.24-2.19-5.9a.39.38-81 0 1 .56-.41c1.79.96 4.72 5.65 5.99 7.41l3.21 5.09q7.18 13.8 15.91 26.83 9.79 14.61 19.44 29.27.45 1.78 2.09 3l2.06 3.07q1.19 3.31 4.07 5.33c2.26 3.08 4.71 5.76 8.88 4.46q11.65-3.62 22.94-9.59c3.84-2.04 6.01-4.28 5.72-8.74q.37-1.1-.18-1.01-.71-1.8-.6-3.31-2.51-8.11-7.76-15.47.07-.25-.2-.51-.29-1.7-1.49-2.5-13.73-26-29.71-50.72c-5.25-8.12-9.99-16.28-12.61-25.47a.67.67 0 0 1 1.14-.64l.4.43q1.99 5.34 5.47 10.03.42.57.43.21-.06.67.31 1.23 10.25 15.72 19.37 32.13.28.5 1.03 1.09l.51 1.3 17.43 30.28q.13.41.52.9.09.48.41.79l1.58 2.94q.1.56.4.76 3.04 7.37 7.84 12.72l2.85 1.95a.9.89 49.9 0 0 .88.08q1.76-.77 2.09-2.17.96-4.1 2.17-8.05 1.5-4.94 1.42-10.41a4.33 4.3-38.1 0 1 .15-1.2q1.23-4.3 1.85-8.31.26-1.64 2.07-2.77a.87.87 0 0 1 .54-.12q.59.06 1.44-.54.77-.53 1.17-.72 9.6-4.5 18.71-8.47a.5.5 0 0 0 .15-.81q-1.95-1.96-2.02-5.49a.7.69 85.8 0 1 .6-.7q1.8-.22 3.31.5a1.01 1 4.2 0 1 .54.62l1.11 3.71a.66.66 0 0 0 .92.4l7.78-3.78a.96.17-10 0 0 .11-.04q4.29-1.23 6.21-2.13c3.89-1.84 7.14-3.1 10.76-4.65l4.44-.08c1.79 1.04 3.89 2.08 5.34 3.3 3.45 2.9 6.43 5.52 10.12 7.39a.86.86 0 0 0 1.19-1.09q-.45-1.13-1.14-1.86l-1.29-3.56q-.15-.44-.09-.74l-6.95-18.71q-.22-1.95-1.36-3.56-.02-.1-.03-.2-2.27-6.26-4.43-12.49-1.64-4.72-4.71-12.37-3.9-9.71-6.98-20.01 3.52 3.52 5.22 8.58l.43.88q10.82 25.82 19.9 52.42c.76 7.08 3.74 14.36 9.13 19.13q3.3 2.92 7.71 1.47 17.81-5.83 38.88-14.64 3.06-1.27 8.94-4.35a1.25 1.21-6.7 0 0 .62-.76q.59-2.12.25-3.62c-1.28-5.62-2.47-11.2-4.3-16.64q-3.49-10.33-7.27-20.55-.08-1.77-.97-3.06l-1-2.43q-.23-1.68-.98-3.04-.21-.42-.06-.62-10.17-30.22-13.57-42.19-2.54-8.92-3.44-11.67l-.13-3.25-.03-.58.1-1.67q-.01-.68.17-1.08a.56.56 0 0 1 1.04.02l1.44 3.56z" class="C"/><g class="B"><path d="M222.37 74.54l-.1 1.67.1-1.67zm.06 5.5l-.13-3.25.13 3.25zm3.32-.82q-.62-.99-.73-2.18.7.99.73 2.18z"/><path d="M225.94 79.96q-.16-.35-.19-.74.22.3.19.74zm13.5 53.94q-.76-.67-1.12-1.69-8.76-24.84-15.85-50.21-.22-.77-.04-1.96.9 2.75 3.44 11.67 3.4 11.97 13.57 42.19zm-11.7-48.1q-.83-1.54-.99-3.35.99 1.41.99 3.35z"/><path d="M227.96 86.71l-.22-.91q.27.33.22.91zm.51 1.73q-.18-.25-.16-.66.17.3.16.66z"/><path d="M229.53 91.8q-.93-1.47-1.06-3.36 1.06 1.47 1.06 3.36z"/><path d="M229.68 92.46l-.15-.66q.16.26.15.66zm.58 2.05q-.19-.3-.2-.73l.2.73z"/><path d="M231.47 98.48q-1.01-1.85-1.21-3.97 1.06 1.81 1.21 3.97zm.52 2.03q-.17-.33-.17-.77l.17.77z"/><path d="M233.28 104.54q-1.08-1.83-1.29-4.03 1.08 1.83 1.29 4.03z"/><path d="M233.47 105.26q-.27-.34-.19-.72.16.31.19.72zm.75 2.73q-.18-.26-.18-.73.2.35.18.73z"/><path d="M235.93 113.99l-1.71-6q1.36 2.75 1.71 6z"/><path d="M274.69 176.3q-7.74 1.08-14.76 5.32a.67.67 0 0 1-.98-.37c-.52-1.6-1.61-4.64-2.73-6.63-4.22-7.56-4.91-14.54-8.16-23.83q-5.26-15.02-9.49-27.65-1.52-4.51-2.64-9.15 1.27 1.45 1.56 3.77a2.43 2.08-62.4 0 0 .11.48q2.21 6.39 3.29 9.89 3.7 12.04 8.75 23.96a6.13 6.06 31.5 0 1 .46 1.87q.35 4.6 1.97 8.5 3.34 8.04 6.58 14.71.85 1.75 2.45 2.34a1.26 1.24-50.1 0 0 1.04-.1q6.12-3.67 12.55-3.11zm-111.75-55.17q3.08 10.3 6.98 20.01 3.07 7.65 4.71 12.37 2.16 6.23 4.43 12.49-2.04-3.77-3.36-7.74-3.79-11.42-8.8-21.39-2.31-4.58-2.75-8.68a3.8 3.53 32.2 0 0-.28-1.05l-2.72-6.45a.49.49 0 0 1 .63-.64q1.15.45 1.16 1.08zm5.65 9.46l-.43-.88q.48-.17.43.88z"/><path d="M188.49 183.01q-9.08-26.6-19.9-52.42.6.46 1.17 1.61 3.52 7.08 5.38 12.31a8.54 7.74 22 0 0 .79 1.63q5.97 9.54 7.79 20.8a3.85 3.75 30.2 0 0 .26.93q3.1 7.33 4.51 15.14zm51.99-45.45q-.87-1.45-.98-3.04.75 1.36.98 3.04zm1.97 5.49q-.84-1.4-.97-3.06.89 1.29.97 3.06zM54.19 153.86q-3.48-4.69-5.47-10.03 3.4 4.55 5.47 10.03zm21.14 34.66q-.75-.59-1.03-1.09-9.12-16.41-19.37-32.13-.37-.56-.31-1.23 3.02 4.34 5.89 8.63 3.08 4.58 7.29 10.02 1.15 1.49 1.85 5.03.27 1.35 2.33 3.93a2.54 2.1 17.7 0 1 .27.42l3.08 6.42zm105.12-18.76l-1.36-3.56q1.14 1.61 1.36 3.56z"/><ellipse cx="0" cy="0" transform="matrix(-.577858 -.816138 .816138 -.577858 78.67 168.41)" rx="1.8" ry=".67"/><path d="M275.71 176.72l-.75-.14q.41 0 .75.14zm5 .98l-1.42-.15 1.42.15zm11.1 5.34c-2.54-.94-4.09-.2-6.36-.56a.91.9-9.3 0 1-.66-.47l-1.48-2.81 3.19 1.81a2.54 2.47 62.6 0 0 .96.32c1.54.2 3.68-.21 4.35 1.71z"/></g><ellipse cx="0" cy="0" transform="matrix(-.149535 -.988756 .988756 -.149535 159.92 184.29)" rx="1.78" ry=".92" class="C"/><path d="M18.62 189.4l-3.21-5.09 1.83.91a1.25 1.23 1 0 1 .55.56q.76 1.63.83 3.62zm170.16 3.37q.69.73 1.14 1.86a.86.86 0 0 1-1.19 1.09c-3.69-1.87-6.67-4.49-10.12-7.39-1.45-1.22-3.55-2.26-5.34-3.3q3.43.37 5.62 2.36 4.76 4.33 8.66 6.36a.58.58 0 0 0 .36.06q.72-.1.87-1.04zm102.9-7.47c-.31 2.76-1.61 4.06-2.04 6.43q-.74-.89-1.05-1.98a1.01.98-33.9 0 1 .19-.88l2.9-3.57z" class="B"/><path d="M153.77 190.12a.18.18 0 0 1-.05.25l-.05.03a2.83 2.75 56.3 0 1-3.86-.82l-.11-.17a2.83 2.75 56.3 0 1 .71-3.88l.06-.04a.18.18 0 0 1 .25.05l3.05 4.58z" class="C"/><path d="M187.49 189.21q-.3-.45-.09-.74-.06.3.09.74zM93.27 220.1l-17.43-30.28 5.53 6.8a4.05 3.97-76.9 0 1 .53.87q3.06 6.83 7.51 12.68a11.82 11.72 17.9 0 1 1.89 3.65l1.97 6.28z" class="B"/><ellipse cx="0" cy="0" transform="matrix(-.059306 -.99824 .99824 -.059306 120.35 201.57)" rx="1.95" ry=".79" class="C"/><g class="B"><path d="M301.22 213.11q1.72 2.08.92 4.41a3.21 2.97 30.5 0 0 1 3.35q1.61 1.37 2.23 1.9a.87.87 0 0 1 .28.87l-.29 1.23a1.51 1.5-47.2 0 0 .03.85q1.32 4.04 4.4 7.89-3.45-.89-4.46-2.7-2.69-4.81-5.86-14.5a1.37 1.35-42.9 0 1 .04-.93q.57-1.36 1.71-2.37zm-210.23 9.62l-1.49-2.5q1.2.8 1.49 2.5zm3.21-.94q-.32-.31-.41-.79.33.32.41.79zm4.75 16.92l-7.76-15.47q5.25 7.36 7.76 15.47zm-2.77-13.22q-.3-.2-.4-.76.38.36.4.76z"/><path d="M104.02 238.21q-4.8-5.35-7.84-12.72l7.84 12.72zm207.26-.02q.84 2.23-.5 5.24c.27-1.81-.84-3.73.5-5.24zm-211.55 4.84q-.24-.48-.18-1.01.55-.09.18 1.01zm-43.67 5.47q-1.64-1.22-2.09-3 1.46 1.22 2.09 3zm345.23-1.02q-1.02.33-1.37-.62.82.06 1.37.62zm-345.26 7.25l-3.47-5.78q2.4 2.48 3.47 5.78zm6.16 2.17q-2.88-2.02-4.07-5.33 2.57 2.25 4.07 5.33zm345.18-1.8q-1.44-1.3-1.59-3.4 1.48 1.2 1.59 3.4zm18.73 52.83q2.06 7.87 2.08 15.95a.63.63 0 0 0 .93.56l1.26-.67a.92.92 0 0 1 1.04.12q.74.65 1.06 1.57-1.55-.36-2.03 1.02-2.14 6.15-7.17 10.62l-6.34 8.15a.32.2-76.7 0 1-.09.09l-1.2.63a1.13 1.12-22.6 0 1-1.61-.66c-1.8-5.9-4.94-13.21-10.67-27.72q-.96-2.42-2.22-4.6a6.22 6.17-65.3 0 1-.7-1.92q-.62-3.5-2.62-7.92-2.61-5.76-5.07-12.65-3.38-9.42-4.68-12.14a.75.75 0 0 1 .29-.96q1.79-1.08 3.32-2.96a5.31 5.21 5.9 0 1 1.69-1.35q3.54-1.77 5.91-5.08 2.4-2.83 4.82-5.66.9-1.05.77-1.58-.19-.79-1.06-1.48a.97.83-65.3 0 0-1.38.64q-.6 2.34-2.39 3.6a.7.69 80.8 0 1-1.06-.77q.99-3.33 4.04-7.22a.67.67 0 0 1 1.13.13q.93 1.99 2.39 3.31a2 1.98 10.2 0 1 .5.71q3.55 8.29 6.22 17.18 1.75 5.82 6.53 15.73a5.03 4.77 26.8 0 1 .34.95q1.71 7.35 5.97 14.38zm-18.13-50.98q1.03 1.54.97 3.43-2.1-1.16-.97-3.43z"/></g><path d="M382.93 277.84l-.27-1.83a.58.57-13.2 0 0-.75-.46c-4.94 1.6-9.11 5.53-13.77 8.12q-6.75 3.75-16.41 10.19a1.22 1.21 60.5 0 0-.42 1.54q.93 1.9 1.17 4.4a.35.35 0 0 1-.23.37l-7.16 2.59a1.04 1.03-24.6 0 1-1.26-.46q-.42-.55-.64-2.19a.68.67 72.6 0 0-.98-.52c-4.08 2.13-8.48 3.86-13.12 6.47q-17.3 9.75-26.08 13.64c-6.55 2.9-13.21 6.43-23.7 12.1q-7.15 3.87-23.76 10.27a7.2 7.01 17.5 0 0-1.29.65q-5.33 3.42-10.64 5.24a1.17 1.16-14.8 0 0-.77 1.31l1.25 6.67a.54.54 0 0 1-.98.39c-1.36-2.13-2.87-1.06-4.18.25a2.14 1.95-77.3 0 1-.66.46q-11.64 5.07-18.47 8.25-3.41 1.58-6.87 2.71c-4.82 1.58-7.12 2.9-12.03 5.38-3.07 1.56-6.23 2.32-9.96 3.53q-2.58.84-7.34 2.99-3.44 1.55-7.53 3a.35.35 0 0 1-.45-.2l-.11-.27a.59.59 0 0 1 .31-.76c3.26-1.44 6.54-2.5 9.48-4.03q5.94-3.12 12.66-5.05a2.41 2.28 20.1 0 0 .42-.18l9.6-5.22a6.71 6.69-66.9 0 1 1.36-.55q3.57-1.02 4.57-1.47 8.96-4.04 16.38-7.27a1.64 1.64 0 0 0 .34-2.8q-.51-.38-2.43.24 4.97-6.83 14.22-8.63.73-.15 4.94-2.08a2.71 2.11-70.5 0 0 .33-.21l6.26-5a.36.35-72.6 0 1 .11-.06l3.75-1.53a3.44 2.23-57.1 0 0 .38-.17l22.99-12.26a6.07 5.93 23.9 0 1 1.5-.56c3.7-.86 7.34-2.56 12.09-4.32 2.42-.9 4.56-2.45 4.53-5.09a1.36 1.36 0 0 0-2.02-1.17l-4.97 2.76a.31.28 3.2 0 0-.1.08q-3.35 3.22-8.23 3.5a.65.65 0 0 1-.37-1.21c1.91-1.15 3.89-1.64 5.79-2.6q8.93-4.54 9.25-4.72c4.68-2.74 9.87-4.7 14.61-7.84q4.74-3.16 6.92-3.74a4.61 4.5 20.2 0 0 1.32-.59q5.05-3.31 10.37-5.08a5.49 5.27-68 0 0 .98-.44q11.93-6.88 14.41-8.18.12-.06 3.32-2.13 2.25-1.45 4.83-2.38a2.62 2.55-74.8 0 0 .88-.52q4.2-3.78 9.83-6.41a1.76 1.65-81.5 0 0 .57-.45l1.73-2.14a.55.48-79.6 0 1 .19-.15l5.69-2.9a1.05 1.02.7 0 0 .42-.4l2.25-3.89a1.69 1.69 0 0 0 .02-1.63l-.83-1.58a.16.16 0 0 1-.02-.13q.15-.63.79.51a1.57 1.57 0 0 0 .86.73q.36.13.73.3.29.13.48 1.01.15.68.65.59a.42.38-61.7 0 0 .17-.06l3.16-1.82a.2.2 0 0 1 .26.3l-.89 1.09a1.43 1.43 0 0 0-.15 1.58l.89 1.67a.33.33 0 0 1-.23.48l-.72.13a.06.06 0 0 0 0 .12q.2.04.26.07a.19.19 0 0 1 .1.28q-.18.31-.15 1.71a.28.28 0 0 0 .51.15q.2-.29.03-.96a.01.01 0 0 1 .01-.01h.01a.05.03-76.7 0 1 .01.03l.1.7a1.99 1.92 25.6 0 0 .27.73q1.59 2.66-.37 7.02z" class="D"/><g class="B"><path d="M58.19 267.75q2.55-1.19 1.62-5.24 4.07 3.51-1.62 5.24zm341.09.26q-2.37 3.31-5.91 5.08a5.31 5.21 5.9 0 0-1.69 1.35q-1.53 1.88-3.32 2.96a.75.75 0 0 0-.29.96q1.3 2.72 4.68 12.14 2.46 6.89 5.07 12.65 2 4.42 2.62 7.92a6.22 6.17-65.3 0 0 .7 1.92q1.26 2.18 2.22 4.6c5.73 14.51 8.87 21.82 10.67 27.72a1.13 1.12-22.6 0 0 1.61.66l1.2-.63a.32.2-76.7 0 0 .09-.09l6.34-8.15q3.43-2.28 5.23 2.17a.28.28 0 0 0 .51.01q2.79-6 4.05-12.54l3.73 9.4a1.73 1.52-61.9 0 1 .12.51l.71 8.65a4.78 4.78 0 0 0 .33 1.39q1.88 4.68 5 10.87.52 1.02 2.25 6.82a8.61 8.24 22.9 0 0 .77 1.78l4.25 7.28a1.12 1.05 24.6 0 1 .14.34l.74 3.57a1.34 1.33-81.1 0 1-1.97 1.44l-1.56-.9a.61.6 20.1 0 0-.9.41q-.63 3.38.7 6.24c2.29 4.91 3.53 10.78 5.47 14.39q1.15 2.16 3.11.26.88-.85 3.49-4.58a1.21 1.21 0 0 1 1.88-.11c2.3 2.56 2.64 8.07 2.53 11.82a3.87 3.84-27.9 0 1-.62 1.99q-2.17 3.35-2.86 7.9a2.71 2.69 39.6 0 0 .13 1.31c1.06 2.94 1.1 5.85 2.45 9q4.36 10.15 8.35 20.28 1.47 3.74 4.17 7.09a.36.35-45.5 0 0 .56-.01q.29-.37.2-.75-1.83-7.5-1.7-10.85a1.92 1.83-51.9 0 0-.05-.51l-2.07-9.44a.52.51 74.4 0 1 .33-.59l.03-.01a.61.61 0 0 1 .72.35l3.93 9.3a2.39 2.29 17.3 0 0 .22.4l3.45 5.05q-1.21 1.16-.67 3.92.71 3.63.9 4.35c.69 2.77-.3 5.13 1.98 7.73a1.91 1.84-77.6 0 1 .33.54l8.34 20.59a1.05 1.03 17.8 0 0 .1.19q1.57 2.66 1.68 3.33.92 6.1 3.75 11.39a1.13.79-80 0 1 .07.15l7.09 19.1a2.04 1.24 81.6 0 0 .11.25l3.72 7.33q.02.04.04.08l1.17 1.98a.82.69 33 0 1 .1.33l.16 4.04a.11.11 0 0 0 .13.1q.19-.04.16-.29-.41-3.56 1.75-4.28v14.95q-1.8 3.54-3.1 7.32-1.86 5.38-2.86 7.39-2.46 4.92-5.5 9.38-3.2 1.12-4.41-1.8a.3.29-19.4 0 0-.36-.17h-.02a.34.34 0 0 0-.22.48l1.13 2.19a2.99 2.98-42 0 1-.16 3.01l-3.69 5.58a2.94 2.16-42 0 1-.24.33l-10.42 12.83a1.07.8-10.2 0 1-.14.15q-7.46 6.74-8.96 8.31-4.21 4.44-8.81 8.01-13.31 10.34-27.1 20.28-.58.43-3.29 1.74-.9.43-2.61-1.08-.97-.78-2.2-.05-6.35 3.76-6.17 3.5a.031.021-3.3 0 0-.04-.03l-7.2 5.34a1.8 1.73 80.9 0 0-.62.89q-.41 1.36.56 2.59a1.23 1.22-37.7 0 1-.23 1.74q-6.38 4.81-13.09 6.57a7.76 7.63-66.4 0 0-1.72.69q-9.12 5.03-16.29 8.41c-1.92.9-4.28 2.8-5.81 3.48-7.87 3.55-16.39 8.02-24.49 11.35q-17.79 7.33-29.26 12.08c-4.48 1.86-10.27 3.26-13.34 4.23a1.91 1.9-13.8 0 1-2.46-1.49q-.18-1.04-.4-1.62-1-2.61-4.33-8.69a9.75 9.66-68.4 0 1-.72-1.69q-.7-2.18-.98-2.99-.59-1.69-1.62-3.74c-2.86-5.69-4.95-11.66-7.7-16.98q-6.64-12.83-13.69-29.38c-.72-1.67-1.2-3.47-2.05-5.41q-17.03-38.78-25.65-57.43-.98-2.12-1.18-3.88a1.72 1.71-12.7 0 1 1.15-1.81c5.7-1.97 11.22-3.67 17.69-6.52 4.85-2.15 11.63-4.31 16.6-6.55q7.62-3.45 16.61-7.3 1.05-.45 3.08-1.82a1.16 1.11-45.6 0 0 .03-1.91q-.98-.61-.73-1.43c.66-2.19 4.54-3.42 7.07-4.39a.96.95 74.3 0 1 1.28.72c.47 2.49 2.34 7.5 5.7 6.39q2.3-.76 4.53-1.96c2.02-1.09 2.85-.03 3.58 1.68q4.59 10.85 5.82 13.68a1 1 0 0 0 1.37.5l6.79-3.43a1.45 1.45 0 0 1 1.98.71l2.6 5.86a1.63 1.63 0 0 0 2.26.78l15.11-8.05a.65.64-22.2 0 1 .92.38l.6 2a1.52 1.51-23.8 0 0 2.23.86q9.15-5.45 13.18-7.52 3.08-1.58 7.61-4.87.86-.63 7.7-4.73 3.29-1.99 3.05-5.48-.1-1.47 1.21-2.5 4.02-3.15 10.46-7.66a2.1 2.1 0 0 0 .74-2.52l-2.23-5.5a1.99 1.98 59.8 0 1 .6-2.3l3.93-3.14a1.53 1.49-10.7 0 0 .49-.7q.87-2.5-.55-5.33-2.96-5.91-4.06-10.67a2.64 2.64 0 0 1 .83-2.57l2.62-2.27a3.08 3.07 61.3 0 0 .94-3.21l-1.74-5.75a1.99 1.99 0 0 1 .97-2.33l2.66-1.42a.93.93 0 0 1 1.14.21q2.34 2.68 5.34.22 10.57-8.7 20.72-18.46 1.05-1.02 2.58-2.86a2.08 2.07-33.8 0 0 .39-1.92l-.19-.62a.63.63 0 0 0-1.1-.2q-1.79 2.35-1.99 2.54-7.05 6.72-14.4 13.1-1.73 1.5-3.6 2.63a.7.7 0 0 1-.98-.28l-.55-1.09a1.48 1.48 0 0 0-2.12-.57l-9.46 6.15a1.1 1.1 0 0 1-1.6-.48l-5.75-12.96a2.78 2.78 0 0 1 .89-3.36c8.55-6.29 17.66-13.08 25.76-20.7q2.39-2.25 4.71-1.03c1.93 1.01 3.36.83 3.56-1.64a.22.21 13 0 1 .3-.18q.25.1.27.06.68-.97.13-2.28-1.85-4.44-2.57-5.49a.2.2 0 0 0-.37.1q-.11 1.65-1.89 3.36-11.16 10.76-23.95 19.8-2.11 1.49-3.23-.39a1.07 1.06-25.4 0 0-1.28-.45q-4.87 1.73-8.49 5.36a.47.46-33.5 0 1-.76-.15l-21.31-52.54a1.94 1.86 34.3 0 1-.14-.66l-.03-.6a.54.53-80.3 0 1 .73-.52c1.94.75 4.09-1.53 5.19-2.73a1.96 1.96 0 0 0 .38-2.06l-7.85-19.35a1.55 1.55 0 0 0-2.06-.84l-3.68 1.64a1.83 1.82 67 0 1-2.43-.99l-7.47-18.39a1.47 1.47 0 0 0-2.05-.75l-4.38 2.34a1.7 1.7 0 0 1-2.38-.86l-4.36-10.76a.83.82 66.4 0 0-1.11-.44l-5.56 2.55a1.34 1.33-18.1 0 1-1.86-.94l-.04-.15a2.09 2.08 66 0 1 .89-2.33l6.45-4.11a.73.62 16 0 1 .2-.09q2.42-.86 3.49-2a1.44 1.44 0 0 1 2.33.34l3.21 6.35a1.02 1.02 0 0 0 1.5.37q1.53-1.07 1.84-2.64a2.44 2.4 44.4 0 0-.02-1.02l-.6-2.35a1.31 1.3 69.6 0 1 .67-1.48l4.11-2.08a.99.96-5.4 0 0 .5-.59q.77-2.51-1.12-3.95a1.32 1.3 54.7 0 0-1.18-.21q-4.14 1.32-8.73 4.21c-4.18 2.65-6.36 3.56-11.18 6.17q-1.36.74-5.1 3.02-4.18 2.55-9.04 4.4a1.16 1.15 66.1 0 1-1.44-.56l-.86-1.69a1.36 1.36 0 0 0-1.83-.61l-32.26 16.32a2.49 2.48-14.5 0 0-1.36 2.31l.11 2.72a2 2 0 0 1-1.19 1.92l-25.17 11.16a1.86 1.68-74.5 0 0-.41.26q-2.78 2.39-5.55 2.96-3.2.67-5.03 1.9-.39.26-1.86.73a.61.61 0 0 1-.77-.4q-.12-.37-.1-.9l-3.34-5.49a2.01 2.01 0 0 1-.29-1.04q-.02-3.72-3.14-6.79a.61.61 0 0 0-.83-.03l-2.17 1.87a.54.53 51.6 0 0-.08.72q.23.3.44 1.04a.18.18 0 0 0 .34-.01q.01-.03.06-.36a.5.5 0 0 1 .76-.33q4.21 2.73 4.25 7.94a.88.86-77.9 0 0 .49.77q.91.44.82 1.74c-.09 1.38.92 1.88 2.13 1.49q.3.08.27.38a.28.26 82.9 0 1-.16.22q-.67.32-2.59 1.06-3.03 1.19-2.66 4.49a.93.92.8 0 0 .79.81l4.23.6a.91.88-52.9 0 0 .52-.08l3.95-2a1.05 1.05 0 0 1 1.35.37l3.17 4.88a1.13 1.1-58 0 1 .17.77q-.28 1.94 1.74 1.77 3.02-.25 5.36-.38a.67.67 0 0 0 .48-1.08q-3.24-4.06-4.04-10.06a1.48 1.46-74.4 0 0-.51-.92l-.77-.62a.79.79 0 0 1-.22-.95q.83-1.84 2.97-2.74 7.17-3 12.39-5.34 1.41-.63 2.84.14a1.18 1.18 0 0 1 0 2.08l-8.8 4.69a.73.73 0 0 0-.15 1.19c2.2 1.99 3.53 6.89 4.05 9.17a1.83 1.8-74.7 0 0 .48.86l1.68 1.7a.42.41-35.8 0 1-.11.66l-8.22 4.15a.92.84 2.6 0 0-.24.2c-1.98 2.55.11 5.59 1.78 8.22a3.42 3.24-74.4 0 1 .29.55l5.95 13.71a1.79 1.34 36.8 0 1 .1.34q.42 2.32 1.31 3.53a2.6 2.56 25.3 0 1 .5 1.36q.07 1.14.27 1.54 4.2 8.33 6.85 14.38 1.22 2.8-1.01 4.02a.77.77 0 0 0 .23 1.43l1.86.33a1.05 1.04-15.7 0 1 .63.35q1.73 2.02 2.6 5.23a.86.85-25.9 0 1-.32.92q-1.62 1.16-2.18 2.08a.7.69 14.3 0 1-.55.32l-3.2.13a1.22 1.21-84 0 0-1.14.93l-.11.47a.86.85 4.3 0 0 .89 1.03q1.3-.09 2.35.09a1.23 1.17 42 0 1 .18 2.35c-1.66.38-1.61 2.02-1.39 3.76q.27 2.2-1.82 3.29a.59.58 31.4 0 0 .27 1.1q.53.01 1.5-.43a.72.71 61.2 0 1 .91.27q2.95 4.6 4.53 9.63a5.43 5.15 22.9 0 0 .38.87q1.47 2.67 2.56 5.83-1.7.73-2.77 1.72a.82.82 0 0 0 .75 1.4l2.55-.64 2.57 1.98a2.05 2.02 52.2 0 0 2.02.27c2.21-.91 6.59-4.12 7.99-.71q2.7 6.58 5.82 13.93a.57.56 60.4 0 1-.18.66q-3.68 2.83-8.08 4.61-15.11 6.16-26.92 11.3c-10.85 4.72-21.05 8.36-32.04 12.76q-2.63 1.05-3.42-.65-1.79-3.86-1.88-4.09-2.8-6.81-4.61-10.19-.17-.29-.37-1.64a.96.82-67 0 0-.06-.19l-33.27-75.06a2.15 1.8 21.4 0 0-.17-.31q-2.06-3.08-3.24-6.78a3.02 2.86-74.4 0 0-.47-.89c-1.86-2.35-2.24-5.26-3.62-7.61a6.43 6.2-67.1 0 1-.7-1.82c-.39-1.76-1.17-4.07-1.88-5.66q-3.9-8.72-5.24-12.92a3.8 3.78-69.3 0 0-.39-.87q-1.05-1.72-1.7-3.16-3.24-7.13-6.21-14.33-.28-.67.92-.97c5.78-1.43 11.72-4.75 16.65-6.35 7.93-2.57 14.02-6.24 22.16-8.97 4.93-1.66 10.25-4.94 15.53-7.12q1.92-.62 2.43-.24a1.64 1.64 0 0 1-.34 2.8q-7.42 3.23-16.38 7.27-1 .45-4.57 1.47a6.71 6.69-66.9 0 0-1.36.55l-9.6 5.22a2.41 2.28 20.1 0 1-.42.18q-6.72 1.93-12.66 5.05c-2.94 1.53-6.22 2.59-9.48 4.03a.59.59 0 0 0-.31.76l.11.27a.35.35 0 0 0 .45.2q4.09-1.45 7.53-3 4.76-2.15 7.34-2.99c3.73-1.21 6.89-1.97 9.96-3.53 4.91-2.48 7.21-3.8 12.03-5.38q3.46-1.13 6.87-2.71 6.83-3.18 18.47-8.25a2.14 1.95-77.3 0 0 .66-.46c1.31-1.31 2.82-2.38 4.18-.25a.54.54 0 0 0 .98-.39l-1.25-6.67a1.17 1.16-14.8 0 1 .77-1.31q5.31-1.82 10.64-5.24a7.2 7.01 17.5 0 1 1.29-.65q16.61-6.4 23.76-10.27c10.49-5.67 17.15-9.2 23.7-12.1q8.78-3.89 26.08-13.64c4.64-2.61 9.04-4.34 13.12-6.47a.68.67 72.6 0 1 .98.52q.22 1.64.64 2.19a1.04 1.03-24.6 0 0 1.26.46l7.16-2.59a.35.35 0 0 0 .23-.37q-.24-2.5-1.17-4.4a1.22 1.21 60.5 0 1 .42-1.54q9.66-6.44 16.41-10.19c4.66-2.59 8.83-6.52 13.77-8.12a.58.57-13.2 0 1 .75.46l.27 1.83.64 1a.38.37 28.7 0 0 .69-.2v-8.51a1.44 1.43-5.3 0 1 1.17-1.41l3.94-.74a.73.72-84.1 0 0 .55-.45q1.03-2.73 4.87-4.4a2.58 2.58 0 0 1 3.18.93q.89 1.36 1.31 3.95zm-95.74 73.23l1.28-.53a.3.3 0 0 0 .16-.39l-.05-.11a16.4.96 67.4 0 0-7.18-14.78l-.06.03a16.4.96 67.4 0 0 5.42 15.51l.04.11a.3.3 0 0 0 .39.16zm128.91 3.94l-1.66-5.51a.31.3-46.6 0 0-.59.02q-.25 1.02.23 2.39.8 2.25 1.91 3.18a.07.07 0 0 0 .11-.08zm-2.98 48.54q.01-.06-.13-.48-1.17-3.53 0-6.23a.69.68 29.1 0 0-.24-.83c-2.04-1.43-2.68-3.82-4.22-7.44a.15.14 32.6 0 0-.28.06l.02.42a.3.3 0 0 1-.51.23l-.94-.94a.48.48 0 0 0-.78.54l6.4 14.76a.36.36 0 0 0 .68-.09zm-159.82 16.62q-.73-1.03-1.58-.93a.82.75-36.4 0 0-.3 1.5q.19.07 1.61-.01a.36.35-19.4 0 0 .27-.56zm205.03 49a.36.36 0 0 0-.27.47q2.8 8.2 3.92 12.06 1.46 4.97 3.91 10.55 3.23 7.33 4.12 10.48 1.73 6.08 3.72 10.58c4.31 9.75 6.14 15.45 11.18 27.87 1.24 3.06 2.32 6.65 3.57 9.9a.46.45 55.3 0 0 .76.14l.04-.04a1.24 1.23-31.4 0 0 .29-1.18c-.44-1.56-.71-3.44-1.22-4.92-2.77-8.11-5.84-14.92-8.79-23.09q-5.33-14.72-6.1-17.14-1.03-3.25-5.25-13.09-3.4-7.93-4.67-13.69a2.34 2.2 27.3 0 0-.19-.54l-4.42-8.29a.26.26 0 0 0-.27-.13l-.33.06zm-189.209 15.284a1.11.9-48.1 0 0-1.411.225 1.11.9-48.1 0 0-.071 1.427 1.11.9-48.1 0 0 1.411-.225 1.11.9-48.1 0 0 .071-1.427zm99.016 59.327a.36.36 0 0 0-.469-.197l-1.241.506a.36.36 0 0 0-.197.469l38.532 94.42a.36.36 0 0 0 .469.197l1.241-.506a.36.36 0 0 0 .197-.469l-38.532-94.42zm33.325 11.556a5.01 2.94-33.2 0 0-5.802.283 5.01 2.94-33.2 0 0-2.582 5.203 5.01 2.94-33.2 0 0 5.802-.283 5.01 2.94-33.2 0 0 2.582-5.203zM378.46 571.98l-1.54-2.71a1.27 1.27 0 0 0-1.73-.48l-4.29 2.44a4.9 2.68-29.7 0 0-2.93 4.76l.15.26a4.9 2.68-29.7 0 0 5.59-.1l4.28-2.44a1.27 1.27 0 0 0 .47-1.73zm36.1-297.72q-.37-.06-.4-.72.28.2.4.72z"/><path d="M420.52 289.31q-.55.11-.98-.83-2.96-6.45-5.1-13.25-.15-.47.12-.97.6 2.35 2.44 2.61a1 .98 86.9 0 1 .83.76l2.69 11.68zM44.59 274.44q-2.51 2.63-2.1 4.3a.6.54-73.3 0 0 .11.23q2.58 3.78 3.56 8.42a.74.74 0 0 1-.4.82q-5.07 2.5-11.09 2.39-1.91-5.48-1.06-10.9a.93.92 83 0 1 .54-.7l10.44-4.56zm377.59 20.95q-2.28-1.45-1.18-4.1 1.15 1.92 1.18 4.1z"/></g><path d="M431.24 626.56q.39 1.52 1.26 2.2a.78.78 0 0 1 .29.78l-.5 2.32-5.72 4.57-5.08 2.98q-3.18.81-5.26 3.34l-13.03 6.48q-1.11.05-.97.56-25.98 13.4-48.9 24.04-19.45 9.03-41.18 15.69-3.1.21-5.6 1.86.05.14.11.27-.77-.23-1.63-.2a.34.34 0 0 1-.33-.46q.76-1.94-.22-4.35a.87.87 0 0 0-.76-.54q-1.03-.07-2.69.67a.8.8 0 0 1-.93-.21q-.95-1.12-1.23-1.96c-.85-2.62-2.23-4.72-3.53-8.14-3.35-8.81-6.8-14.52-9.84-22.18-2.76-6.94-7.23-14.24-9.7-20.89q-1.57-4.24-4.39-9.41c-3.58-6.54-6.36-15.91-9.98-23.12q-2.49-4.96-3.3-7.05c-2.48-6.41-5.47-11.25-8.06-17.81q-4.06-10.25-9.85-22.68a1.68 1.68 0 0 0-1.93-.91q-4.4 1.11-7.7 2.21-14.87 4.97-22.29 6.65-1.18.27-4.55 1.96a.65.65 0 0 0-.3.85l6.15 13.62a1.14 1.14 0 0 1-.55 1.5l-.25.12a1.36 1.36 0 0 1-1.8-.68l-5.91-13.25a1.76 1.76 0 0 0-2-1l-36.14 8.13.64-2.94a1.24 1.24 0 0 0-1.16-1.5q-1.31-.06-2.77.39 1.67-1.38 4.05-.9c1.49.3 2.25-.76 3.67-.95q.46-.06 9.04-1.25c3.61-.49 7.27-2.35 10.68-3.28 4.78-1.31 7.07-1.87 9.73-3.3a1.19 1.19 0 0 0 .52-1.55q-7.73-16.91-14.11-30.98-.85-1.88-3.49-1.23-14.33 3.54-28.52 7.5l-1.78-.37a.75.74 1.8 0 1-.58-.61q-.49-2.92 1.1-3.15 1.54.43 2.26-.39.44-.49.15-1.08-8.86-17.93-16.56-36.74a2.02 2.02 0 0 0-2.24-1.22l-1.93.36a1.58 1.58 0 0 0-1.16 2.16l3 7.17q-.09 1.11-1.03 2.05l-2.92.37a.56.55-8 0 1-.62-.46q-.42-2.57-2.09-6.7-1.52-3.73-5.46-1.93a1.01 1.01 0 0 0-.58 1.08q.65 4.16 2.86 7.68a1.36 1.35 73.6 0 0 1.14.63h2.2a.181.181 0 0 1 .04.36q-3.47.83-4.63 1.12c-1.47.37-3.18.03-4.52.87a2.57 2.53 27.1 0 1-1.25.39q-3.11.17-6.77 1.54a2.47 2 22.5 0 1-.31.08l-13.57 2.7a1.24 1.23-15.5 0 1-1.41-.79q-1.52-4.23-3.72-8.22-.57-1.03-2.56-.61l-.54-3.2a1.47 1.47 0 0 0-1.39-1.22l-5.43-.2 11.08-1.95a.64.64 0 0 0 .46-.9l-32.12-68.47a.51.5 80.4 0 0-.4-.29q-.83-.09-1.75.2l1.38-3.62a1.02 1.01 23.7 0 0-.5-1.27l-4.41-2.15 12.83-3.6a1.34 1.33-20.5 0 0 .85-1.84l-.88-1.87a1.15 1.14-17.8 0 1 .83-1.61l1.44-.27a1.34 1.34 0 0 1 1.45.72q.52 1.06.43 2.51a.78.78 0 0 0 1.03.78l9.35-3.18q3.46 2.22 5.86 2.57 5.08.73 10.17 1.52l-2.6 1.36a1.05 1.04 63.8 0 0-.46 1.36l31.01 68.67a2.02 2.02 0 0 0 2.34 1.13q15.29-3.89 30.05-9.14 1.64-.58 1.39-1.58l1.91-2.01q.85 1.37 1.97 1.96a.92.91 48.8 0 0 .72.05q14.28-5 29.09-10.08 3.15-1.08 5.79-2.85a.69.69 0 0 0 .22-.9c-.28-.5-.92-.7-1.26-1.52q-4.53-10.81-7.71-17.48c-6.49-13.56-10.89-24.88-17.58-39.08q-1.92-4.09-5.67-13.7a.69.69 0 0 0-.84-.41l-3.61 1.05q.34-1.42-.37-1.84a.48.44 53.7 0 0-.29-.06q-4.94.61-8.95 2.96a.84.84 0 0 1-1.26-.72v-.88a2.43 2.42-10 0 1 1.6-2.28q5.9-2.17 11.17-6.09a.44.44 0 0 1 .7.35v3.28a.77.76-2.7 0 0 .84.76q1.91-.2 2.51-1.74a1.47 1.44 45.7 0 0 0-1.09l-.72-1.77a1.5 1.5 0 0 1 1.62-2.05l4.23.64q-1.2.3-.92.97 2.97 7.2 6.21 14.33.65 1.44 1.7 3.16a3.8 3.78-69.3 0 1 .39.87q1.34 4.2 5.24 12.92c.71 1.59 1.49 3.9 1.88 5.66a6.43 6.2-67.1 0 0 .7 1.82c1.38 2.35 1.76 5.26 3.62 7.61a3.02 2.86-74.4 0 1 .47.89q1.18 3.7 3.24 6.78a2.15 1.8 21.4 0 1 .17.31l33.27 75.06a.96.82-67 0 1 .06.19q.2 1.35.37 1.64 1.81 3.38 4.61 10.19.09.23 1.88 4.09.79 1.7 3.42.65c10.99-4.4 21.19-8.04 32.04-12.76q11.81-5.14 26.92-11.3 4.4-1.78 8.08-4.61a.57.56 60.4 0 0 .18-.66q-3.12-7.35-5.82-13.93c-1.4-3.41-5.78-.2-7.99.71a2.05 2.02 52.2 0 1-2.02-.27l-2.57-1.98q.06-2.32-.53-2.48-1.09-3.16-2.56-5.83a5.43 5.15 22.9 0 1-.38-.87q-1.58-5.03-4.53-9.63a.72.71 61.2 0 0-.91-.27q-.97.44-1.5.43a.59.58 31.4 0 1-.27-1.1q2.09-1.09 1.82-3.29c-.22-1.74-.27-3.38 1.39-3.76a1.23 1.17 42 0 0-.18-2.35q-1.05-.18-2.35-.09a.86.85 4.3 0 1-.89-1.03l.11-.47a1.22 1.21-84 0 1 1.14-.93l3.2-.13a.7.69 14.3 0 0 .55-.32q.56-.92 2.18-2.08a.86.85-25.9 0 0 .32-.92q-.87-3.21-2.6-5.23a1.05 1.04-15.7 0 0-.63-.35l-1.86-.33a.77.77 0 0 1-.23-1.43q2.23-1.22 1.01-4.02-2.65-6.05-6.85-14.38-.2-.4-.27-1.54a2.6 2.56 25.3 0 0-.5-1.36q-.89-1.21-1.31-3.53a1.79 1.34 36.8 0 0-.1-.34l-5.95-13.71a3.42 3.24-74.4 0 0-.29-.55c-1.67-2.63-3.76-5.67-1.78-8.22a.92.84 2.6 0 1 .24-.2l8.22-4.15a.42.41-35.8 0 0 .11-.66l-1.68-1.7a1.83 1.8-74.7 0 1-.48-.86c-.52-2.28-1.85-7.18-4.05-9.17a.73.73 0 0 1 .15-1.19l8.8-4.69a1.18 1.18 0 0 0 0-2.08q-1.43-.77-2.84-.14-5.22 2.34-12.39 5.34-2.14.9-2.97 2.74a.79.79 0 0 0 .22.95l.77.62a1.48 1.46-74.4 0 1 .51.92q.8 6 4.04 10.06a.67.67 0 0 1-.48 1.08q-2.34.13-5.36.38-2.02.17-1.74-1.77a1.13 1.1-58 0 0-.17-.77l-3.17-4.88a1.05 1.05 0 0 0-1.35-.37l-3.95 2a.91.88-52.9 0 1-.52.08l-4.23-.6a.93.92.8 0 1-.79-.81q-.37-3.3 2.66-4.49 1.92-.74 2.59-1.06a.28.26 82.9 0 0 .16-.22q.03-.3-.27-.38.65-.56.56-1.52-.02.53.1.9a.61.61 0 0 0 .77.4q1.47-.47 1.86-.73 1.83-1.23 5.03-1.9 2.77-.57 5.55-2.96a1.86 1.68-74.5 0 1 .41-.26l25.17-11.16a2 2 0 0 0 1.19-1.92l-.11-2.72a2.49 2.48-14.5 0 1 1.36-2.31l32.26-16.32a1.36 1.36 0 0 1 1.83.61l.86 1.69a1.16 1.15 66.1 0 0 1.44.56q4.86-1.85 9.04-4.4 3.74-2.28 5.1-3.02c4.82-2.61 7-3.52 11.18-6.17q4.59-2.89 8.73-4.21a1.32 1.3 54.7 0 1 1.18.21q1.89 1.44 1.12 3.95a.99.96-5.4 0 1-.5.59l-4.11 2.08a1.31 1.3 69.6 0 0-.67 1.48l.6 2.35a2.44 2.4 44.4 0 1 .02 1.02q-.31 1.57-1.84 2.64a1.02 1.02 0 0 1-1.5-.37l-3.21-6.35a1.44 1.44 0 0 0-2.33-.34q-1.07 1.14-3.49 2a.73.62 16 0 0-.2.09l-6.45 4.11a2.09 2.08 66 0 0-.89 2.33l.04.15a1.34 1.33-18.1 0 0 1.86.94l5.56-2.55a.83.82 66.4 0 1 1.11.44l4.36 10.76a1.7 1.7 0 0 0 2.38.86l4.38-2.34a1.47 1.47 0 0 1 2.05.75l7.47 18.39a1.83 1.82 67 0 0 2.43.99l3.68-1.64a1.55 1.55 0 0 1 2.06.84l7.85 19.35a1.96 1.96 0 0 1-.38 2.06c-1.1 1.2-3.25 3.48-5.19 2.73a.54.53-80.3 0 0-.73.52l.03.6a1.94 1.86 34.3 0 0 .14.66l21.31 52.54a.47.46-33.5 0 0 .76.15q3.62-3.63 8.49-5.36a1.07 1.06-25.4 0 1 1.28.45q1.12 1.88 3.23.39 12.79-9.04 23.95-19.8 1.78-1.71 1.89-3.36a.2.2 0 0 1 .37-.1q.72 1.05 2.57 5.49.55 1.31-.13 2.28-.02.04-.27-.06a.22.21 13 0 0-.3.18c-.2 2.47-1.63 2.65-3.56 1.64q-2.32-1.22-4.71 1.03c-8.1 7.62-17.21 14.41-25.76 20.7a2.78 2.78 0 0 0-.89 3.36l5.75 12.96a1.1 1.1 0 0 0 1.6.48l9.46-6.15a1.48 1.48 0 0 1 2.12.57l.55 1.09a.7.7 0 0 0 .98.28q1.87-1.13 3.6-2.63 7.35-6.38 14.4-13.1.2-.19 1.99-2.54a.63.63 0 0 1 1.1.2l.19.62a2.08 2.07-33.8 0 1-.39 1.92q-1.53 1.84-2.58 2.86-10.15 9.76-20.72 18.46-3 2.46-5.34-.22a.93.93 0 0 0-1.14-.21l-2.66 1.42a1.99 1.99 0 0 0-.97 2.33l1.74 5.75a3.08 3.07 61.3 0 1-.94 3.21l-2.62 2.27a2.64 2.64 0 0 0-.83 2.57q1.1 4.76 4.06 10.67 1.42 2.83.55 5.33a1.53 1.49-10.7 0 1-.49.7l-3.93 3.14a1.99 1.98 59.8 0 0-.6 2.3l2.23 5.5a2.1 2.1 0 0 1-.74 2.52q-6.44 4.51-10.46 7.66-1.31 1.03-1.21 2.5.24 3.49-3.05 5.48-6.84 4.1-7.7 4.73-4.53 3.29-7.61 4.87-4.03 2.07-13.18 7.52a1.52 1.51-23.8 0 1-2.23-.86l-.6-2a.65.64-22.2 0 0-.92-.38l-15.11 8.05a1.63 1.63 0 0 1-2.26-.78l-2.6-5.86a1.45 1.45 0 0 0-1.98-.71l-6.79 3.43a1 1 0 0 1-1.37-.5q-1.23-2.83-5.82-13.68c-.73-1.71-1.56-2.77-3.58-1.68q-2.23 1.2-4.53 1.96c-3.36 1.11-5.23-3.9-5.7-6.39a.96.95 74.3 0 0-1.28-.72c-2.53.97-6.41 2.2-7.07 4.39q-.25.82.73 1.43a1.16 1.11-45.6 0 1-.03 1.91q-2.03 1.37-3.08 1.82-8.99 3.85-16.61 7.3c-4.97 2.24-11.75 4.4-16.6 6.55-6.47 2.85-11.99 4.55-17.69 6.52a1.72 1.71-12.7 0 0-1.15 1.81q.2 1.76 1.18 3.88 8.62 18.65 25.65 57.43c.85 1.94 1.33 3.74 2.05 5.41q7.05 16.55 13.69 29.38c2.75 5.32 4.84 11.29 7.7 16.98q1.03 2.05 1.62 3.74.28.81.98 2.99a9.75 9.66-68.4 0 0 .72 1.69q3.33 6.08 4.33 8.69.22.58.4 1.62a1.91 1.9-13.8 0 0 2.46 1.49c3.07-.97 8.86-2.37 13.34-4.23q11.47-4.75 29.26-12.08c8.1-3.33 16.62-7.8 24.49-11.35 1.53-.68 3.89-2.58 5.81-3.48q7.17-3.38 16.29-8.41a7.76 7.63-66.4 0 1 1.72-.69q6.71-1.76 13.09-6.57a1.23 1.22-37.7 0 0 .23-1.74q-.97-1.23-.56-2.59a1.8 1.73 80.9 0 1 .62-.89l7.2-5.34a.031.021-3.3 0 1 .04.03q-.18.26 6.17-3.5 1.23-.73 2.2.05zm-135.49-275.6q-.28.12-.33.27a.29.28 3.8 0 0 .32.36q1.86-.3 2.24-.62 6.39-5.27 14.22-7.54c2.88-.84 5-.8 8.04-1.33q2.94-.52 6.08-.43 10.97.29 20.33 5.41a.6.59 29.4 0 0 .8-.22l.06-.1a.54.54 0 0 0-.22-.75q-7.96-4.1-16.94-5.58c-2.99-.49-6-.09-10.41.04q-6.1.19-11.88 3.1-6.31 3.18-8.41 4.61-2.45 1.67-3.39 1.85-.19.03-.26.18-.12.27-.12.3.02.39-.13.45zm3.36 108.06q0 .61 1.3 3.78c6.52 15.91 12.77 28.99 18.45 41.71 3.49 7.83 9.25 16.75 16.92 21.19q5.37 3.11 12.54 5.03 20.82 5.57 37.95-9.7c7.42-6.61 12.27-17.4 15.15-26.88q3.2-10.58 1.58-24.94-.77-6.93-6.4-20.44-.67-1.62-7.19-18.87-1.57-4.16-4.58-11.16c-3.29-7.68-5.81-14.74-9.21-22.77-4.19-9.9-8.32-20.08-14.12-30.76-3.17-5.84-11.1-11.92-16.8-15.22-7.15-4.15-14.59-5.03-23.04-4.6-10.92.55-21.03 5.94-28.42 13.14q-7.96 7.76-11.36 19.82-3.75 13.25-3.27 24.38c.28 6.37 1.59 11.09 3.9 17.04q8.15 20.96 14.6 35.17.93 2.03 1.77 3.31a1.41 1.4-61.8 0 1 .23.77zm-209.32-45.1q-7.6 3.19-17.83 5.36c-1.65.36-4.87 1.4-6.79 2.01a1.84 1.83-21.6 0 0-1.1 2.54Q77 450.93 94.45 489.5q.97 2.13 3.06 1.76 12.61-2.26 25.47-6.13a1.1 1.09 69.3 0 0 .68-1.51l-30.31-64.98q-1.03-2.1-2.37-4.33a.96.95-26.5 0 0-1.19-.39zm194.74 38.18c1.68-.21 3.78-1.51 2.34-3.71a.65.65 0 0 0-.84-.22l-1.73.87a1.12 1.12 0 0 0-.54 1.4q.18.49.11.97a.6.59-88.9 0 0 .66.69zm-.398 8.563a.89.62-176.3 0 0 .848.676.89.62-176.3 0 0 .928-.561.89.62-176.3 0 0-.848-.676.89.62-176.3 0 0-.928.561zM156.22 492.68q.59-.46 1.48-.52a1.23 1.2-13.5 0 0 1.06-1.68q-1.12-2.55-2.6-5.63a2.54 2.54 0 0 0-3.03-1.34l-1.91.58a1.62 1.61-21 0 0-1 2.23l2.88 6.15a1.7 1.68 4.5 0 0 .59.68l.58.37a.56.56 0 0 1-.07.98q-1.95.88-4.48.66-1.65-.15-3.59-7.42a2.05 2.04 74.1 0 0-2.56-1.43l-2.27.69a1.71 1.7 69.9 0 0-1.07 2.31q12.05 27.61 16.23 36.26.52 1.08 3.08 2.58a1.31 1.29 52.9 0 0 .95.14q14.69-3.57 17.9-4.65 13.54-4.59 28.1-8.87 8.34-2.45 11.92-5.64a1.87 1.77 13.9 0 1 .67-.38l5.34-1.61a.91.9 79 0 0 .64-.97q-.45-4.35-3.38-8.22c-2.26-2.97-3.68-8.47-5.58-12.87q-3.77-8.76-8.06-18.54a1.6 1.59 65.5 0 0-2.14-.81l-6.87 3.22a1.64 1.63-54.4 0 1-.88.15q-2.68-.3-4.14 1.54a1.27 1.27 0 0 0-.12 1.38l3.89 7.29a.51.51 0 0 1-.13.62q-2.9 2.39-5.95 1.85a.71.71 0 0 1-.59-.7v-1.62a1.05 1-57.7 0 0-.08-.4l-2.1-4.94a2.36 2.36 0 0 0-2.84-1.33l-1.97.6a1.98 1.98 0 0 0-1.24 2.72l2.98 6.6a1.24 1.23-33.8 0 1-.28 1.39q-1.47 1.37-2.5 1.57-6.78 1.31-12.88 4.22a.46.46 0 0 1-.64-.53l.14-.6a1.6 1.6 0 0 0-.11-1.08l-2.97-6.33a2.21 2.21 0 0 0-2.65-1.18l-2.21.66a1.63 1.62-20.6 0 0-1.01 2.22l2.57 5.69a1.62 1.6 84.8 0 0 1.07.9l2.49.6a.22.22 0 0 1 0 .43c-2.35.6-6.87 2.42-10.5 2.45a.25.25 0 0 1-.16-.44zm24.19-8.71l-2.66-5.89a2.6 2.6 0 0 0-2.84-1.48l-1.95.37a1.9 1.9 0 0 0-1.38 2.65l2.34 5.19a2.78 2.77 72.5 0 0 3.05 1.59l2.4-.45a1.42 1.42 0 0 0 1.04-1.98zm122.498-6.9a5.76.81-112.8 0 0 1.485 5.624 5.76.81-112.8 0 0 2.979 4.996 5.76.81-112.8 0 0-1.485-5.624 5.76.81-112.8 0 0-2.979-4.996zM118.1 503.15a1.63 1.63 0 0 0 1.47-2.32l-2.84-6.04a1.07 1 3.7 0 0-.45-.48q-1.64-.88-3.29-.6a1.29 1.29 0 0 0-1.02 1.64l1.4 4.63a4.45 4.45 0 0 0 4.26 3.17h.47zm-13.338-7.368a5.23 2.5-116.8 0 0 .127 5.795 5.23 2.5-116.8 0 0 4.59 3.541 5.23 2.5-116.8 0 0-.127-5.795 5.23 2.5-116.8 0 0-4.59-3.541zm-4.933 2.56a2.06 2.06 0 0 0-2.688-1.124l-.333.137a2.06 2.06 0 0 0-1.124 2.688l2.246 5.477a2.06 2.06 0 0 0 2.688 1.124l.333-.137a2.06 2.06 0 0 0 1.124-2.688l-2.246-5.477zM279.51 512.93q-6.41 1.8-12.51 5.16l-16.73 6.19a1.91 1.9-15.6 0 0-1.21 2.14l.55 2.95a.87.87 0 0 1-.61 1l-7.24 2.18a1.31 1.31 0 0 0-.83 1.76q1.54 3.65 5.39 12.38.81 1.84 1.75 2.65a1.19 1.17-26.8 0 0 .89.28q3.72-.42 5.49-1.16 18.86-7.77 22.98-9.58 7.19-3.14 8.28-3.14a.44.29 22.8 0 0 .16-.03l8.29-3.8a.5.5 0 0 0 .13-.82c-2.21-2.11-.74-3.77 1.41-4.87q6.92-3.51 14.57-6.73a1.53 1.52-23.6 0 0 .81-2.04l-6.81-15.08a.76.76 0 0 0-1.01-.38l-23.75 10.94zm121.94-9.33q-3.21 6.62-5.41 10.66-3.11 5.72-7.93 9.15c-1.82 1.29-2.54 2.76-4.25 3.86a.12.11 57.8 0 0-.03.16l.15.23a.31.3-32.1 0 0 .42.09c5.82-3.43 10.29-8.06 13.3-14.03q.92-1.83 3.2-5.2a2.89 2.82-21.9 0 0 .41-.93l.9-3.72a.41.41 0 0 0-.76-.27zm-164.52 41.78q-3.48-8.02-8.33-18.23-.33-.7-5.12-12.34-.53-1.27-1.7-2.35a1.82 1.79-29.2 0 0-1.57-.43q-3.64.72-6.43 1.75-11.19 4.12-22.84 7.64-2.5.75-4.61 2.03a.65.65 0 0 0-.26.83l14.7 33.16a.61.6-18.4 0 0 .7.34q7.85-1.9 17.91-4.73c6.71-1.88 11.14-3.85 17.1-6.53a.87.87 0 0 0 .45-1.14zm91.03-20.42q4.27 3.8 9.46 6.7.84.47 1.28.45a.61.61 0 0 0 .31-1.11q-1.11-.77-7.26-5.02-.03-.01-2.63-2.33-2.61-2.31-2.62-2.33-4.94-5.62-5.83-6.63a.61.61 0 0 0-1.07.44q.03.44.6 1.22 3.49 4.81 7.76 8.61zm31.55 10.44l-16.09-2.72a.11.11 0 0 0-.13.09v.02a8.03 1.83 9.6 0 0 7.61 3.15l.47.08a8.03 1.83 9.6 0 0 8.23-.47v-.02a.11.11 0 0 0-.09-.13zm-71.6 116.73a.49.49 0 0 0-.98 0 .49.49 0 1 0 .98 0zm15.63-310.89a.3.3 0 0 1-.39-.16l-.04-.11a16.4.96 67.4 0 1-5.42-15.51l.06-.03a16.4.96 67.4 0 1 7.18 14.78l.05.11a.3.3 0 0 1-.16.39l-1.28.53z" class="D"/><path d="M432.47 325.46q.45.62.59 1.28-1.26 6.54-4.05 12.54a.28.28 0 0 1-.51-.01q-1.8-4.45-5.23-2.17 5.03-4.47 7.17-10.62.48-1.38 2.03-1.02zm-.13 19.8q-1.11-.93-1.91-3.18-.48-1.37-.23-2.39a.31.3-46.6 0 1 .59-.02l1.66 5.51a.07.07 0 0 1-.11.08z" class="C"/><path d="M295.88 350.51q0-.03.12-.3.07-.15.26-.18.94-.18 3.39-1.85 2.1-1.43 8.41-4.61 5.78-2.91 11.88-3.1c4.41-.13 7.42-.53 10.41-.04q8.98 1.48 16.94 5.58a.54.54 0 0 1 .22.75l-.06.1a.6.59 29.4 0 1-.8.22q-9.36-5.12-20.33-5.41-3.14-.09-6.08.43c-3.04.53-5.16.49-8.04 1.33q-7.83 2.27-14.22 7.54-.38.32-2.24.62a.29.28 3.8 0 1-.32-.36q.05-.15.33-.27.15-.06.13-.45zm3 107.74q-.84-1.28-1.77-3.31-6.45-14.21-14.6-35.17c-2.31-5.95-3.62-10.67-3.9-17.04q-.48-11.13 3.27-24.38 3.4-12.06 11.36-19.82c7.39-7.2 17.5-12.59 28.42-13.14 8.45-.43 15.89.45 23.04 4.6 5.7 3.3 13.63 9.38 16.8 15.22 5.8 10.68 9.93 20.86 14.12 30.76 3.4 8.03 5.92 15.09 9.21 22.77q3.01 7 4.58 11.16 6.52 17.25 7.19 18.87 5.63 13.51 6.4 20.44 1.62 14.36-1.58 24.94c-2.88 9.48-7.73 20.27-15.15 26.88q-17.13 15.27-37.95 9.7-7.17-1.92-12.54-5.03c-7.67-4.44-13.43-13.36-16.92-21.19-5.68-12.72-11.93-25.8-18.45-41.71q-1.3-3.17-1.3-3.78a1.41 1.4-61.8 0 0-.23-.77zm22.15-12.6a1.25.98 38.4 0 0-2.1-.01q-.25 1.63 1.51 3.05a1.09 1.08 53.4 0 1-.27 1.85l-12.83 5.21a5.25 5.25 0 0 0-2.79 2.66l-1.95 4.22a1.12 1.08-35.7 0 0-.1.54q.39 5.07 3.2 9.1a2.11 2.11 0 0 0 2.63.7q12.9-6.04 19.8-18.9a1.03 1.02-59.7 0 0-.35-1.35q-3.91-2.55-6.75-7.07zm-23.59 4.53l.31 2.78a.89.89 0 0 0 .98.79l.31-.03a5.96 2.21-6.3 0 0 5.68-2.85l-.02-.16a5.96 2.21-6.3 0 0-6.17-1.55l-.31.04a.89.89 0 0 0-.78.98z" class="B"/><path d="M246.84 372.47q.09.96-.56 1.52c-1.21.39-2.22-.11-2.13-1.49q.09-1.3-.82-1.74a.88.86-77.9 0 1-.49-.77q-.04-5.21-4.25-7.94a.5.5 0 0 0-.76.33q-.05.33-.06.36a.18.18 0 0 1-.34.01q-.21-.74-.44-1.04a.54.53 51.6 0 1 .08-.72l2.17-1.87a.61.61 0 0 1 .83.03q3.12 3.07 3.14 6.79a2.01 2.01 0 0 0 .29 1.04l3.34 5.49z" class="C"/><path d="M64.71 369.38q.89.7.69 2.65a1.95 1.94 86.7 0 1-1.52 1.71l-5.73 1.25 6.56-5.61zM82 407.39l-9.35 3.18a.78.78 0 0 1-1.03-.78q.09-1.45-.43-2.51a1.34 1.34 0 0 0-1.45-.72l-1.44.27a1.15 1.14-17.8 0 0-.83 1.61l.88 1.87a1.34 1.33-20.5 0 1-.85 1.84l-12.83 3.6q-17.54 4.66-35.61 7.11-1.53.21-6.58-.03a.79.78-9.8 0 1-.7-.49l-2.68-6.49a2.28 2.06-81.4 0 0-.43-.65q-2.03-2.1-4.6-2.8c8.12-7.84 15.74-15 25.91-20.16q6.95-3.52 8.96-4.74 4.49-2.71 8.58-5.4 2.16 1.49 2.98 3.08 1.13 2.19 1.29 2.38c2.41 2.97 1.7 4.29 6.27 3.54a.85.85 0 0 0 .66-.55q.41-1.11.39-1.88a1.23 1.22-24.9 0 1 .31-.84q1.63-1.8 4.86-2.6a1.39 1.38-77.1 0 0 .73-.46l2.56-3.16a.99.99 0 0 1 .72-.36l3.45-.14a.89.89 0 0 0 .79-.55q.89-2.14.11-3.21-1.92-2.64-2.08-5.33a.89.89 0 0 1 1.63-.53l.55.84a1.5 1.49-27.5 0 0 1.82.57l8.11-3.28a1.26 1.26 0 0 1 1.73 1.04q.15 1.52-1.41 1.67-2.61.23-5.28 1.65a.84.83 41.3 0 0 .1 1.52c1.86.7 6.32 1.64 7.78.26a.75.75 0 0 1 1.21.26l3.43 8.46a2.66 2.65 13.3 0 0 .47.76l2.99 3.41a1.39 1.37-61.1 0 1 .32 1.14l-.43 2.48a1.45 1.42-58.3 0 0 .24 1.07q.11.19 1.31 1.58c1.36 1.58 1.81 3.58.71 5.36a.94.89-78.3 0 1-.62.43l-9.36 1.76a1.15 1.14 9 0 0-.79.57c-.84 1.51-2.65.54-3.24 2.12q-.36.94.17 2.23zm-.31-23.96l.26 1.6a.48.48 0 0 0 .55.4l1.29-.21a3.15 1.2-9.1 0 0 2.92-1.68l-.03-.18a3.15 1.2-9.1 0 0-3.3-.69l-1.29.21a.48.48 0 0 0-.4.55zm-5.22 5.78q.87-.71 1.29-.17a2.08 1.85 57.1 0 1-.46 3.02q-.16.08-.46.53a.71.71 0 0 0 .04.83q.55.68 2.12 1.57a.87.87 0 0 0 .92-.03c1.07-.7 2.96-.73 4.02-1.82q1.2-1.24 1.67-3.53a1.08 1.05 79.8 0 1 .46-.68l.7-.45a.86.86 0 0 0-.16-1.53q-1.39-.52-2.53.12-.5.28-.38.95.14.78.49 1.16a.42.42 0 0 1-.13.66l-2.78 1.31a.66.66 0 0 1-.75-1.07q.86-.85 1.69-1.09a1.47 1.46-30.8 0 0 .62-2.44l-3.41-3.41a1.06 1.05-21.8 0 0-.76-.32h-2.32a1.64 1.63-5.3 0 0-1.61 1.93l.78 4.11a.59.59 0 0 0 .95.35zm-8.16-.31l.16-1.65a.29.29 0 0 0-.26-.32l-.44-.04a2.47.92 5.5 0 0-2.54.68l-.04.4a2.47.92 5.5 0 0 2.37 1.15l.44.04a.29.29 0 0 0 .31-.26zm-4.673.855a1.37 1-116.6 0 0-.281 1.673 1.37 1-116.6 0 0 1.508.777 1.37 1-116.6 0 0 .281-1.673 1.37 1-116.6 0 0-1.508-.777zm-2.997 3.919a1.19 1.19 0 0 0-1.204-1.175l-.3.004a1.19 1.19 0 0 0-1.175 1.204l.041 3.32a1.19 1.19 0 0 0 1.204 1.175l.3-.004a1.19 1.19 0 0 0 1.175-1.204l-.041-3.32zm26.44.226a1.15 1.13 30.7 0 0-1.14.28l-4.57 4.57a1.11 1.11 0 0 0 .77 1.89q3.97.05 8.52-1.77a.56.56 0 0 0-.23-1.08l-3.83.16a.78.78 0 0 1-.58-1.33l1.71-1.72a.52.51-58.8 0 0-.21-.86l-.44-.14zm-36.6 7.29l-3.1.58a1.23 1.22-50.3 0 0 .22 2.43h1.7a1.34 1.32 14.6 0 0 1.16-.67l.75-1.3a.7.7 0 0 0-.73-1.04zm-19.3 15.14q-1.01-.67-1.47-1.49a1 1 0 0 0-1.66-.13c-2.82 3.61.09 5.46 3.48 3.93l10.45-2.05a1.35.8 14.3 0 0 .17-.05c4.43-1.58 8.63-1.61 13.02-3.05 1.77-.58 4.16-.23 6.13-1.64a1.76 1.75 26 0 1 .96-.33q2.37-.13 3.82-.76a.81.81 0 0 0-.2-1.55c-1.52-.23-3.26-.07-4.31-1.15a1.36 1.34-27.2 0 0-1.21-.38l-1.25.24a.47.47 0 0 0-.21.82q1.18.96 1.36 1.61a.53.53 0 0 1-.62.66q-4.65-.96-6.32 1.42a.51.51 0 0 1-.92-.42q.01-.04.99-2.11.56-1.18-1.47-1.46a1.23 1.22-87.3 0 0-1.39 1.27l.06 1.51a1.81 1.8 82.3 0 1-1.39 1.83l-6.88 1.6a1.17.8 29 0 1-.21.02q-5.58.1-10.93 1.66zm-7.86-.29l-3.75-3.4a.45.45 0 0 0-.63.03l-.09.09a3.02 2.97-47.8 0 0 .17 4.24l.02.01a3.02 2.97-47.8 0 0 4.23-.24l.08-.1a.45.45 0 0 0-.03-.63zm-7.663 1.526a1.14.72-4.2 0 0-1.19-.635 1.14.72-4.2 0 0-1.084.802 1.14.72-4.2 0 0 1.19.635 1.14.72-4.2 0 0 1.084-.802z" class="B"/><path d="M428.79 393.81l-6.4-14.76a.48.48 0 0 1 .78-.54l.94.94a.3.3 0 0 0 .51-.23l-.02-.42a.15.14 32.6 0 1 .28-.06c1.54 3.62 2.18 6.01 4.22 7.44a.69.68 29.1 0 1 .24.83q-1.17 2.7 0 6.23.14.42.13.48a.36.36 0 0 1-.68.09zm-347.1-10.38a.48.48 0 0 1 .4-.55l1.29-.21a3.15 1.2-9.1 0 1 3.3.69l.03.18a3.15 1.2-9.1 0 1-2.92 1.68l-1.29.21a.48.48 0 0 1-.55-.4l-.26-1.6zm-5.22 5.78a.59.59 0 0 1-.95-.35l-.78-4.11a1.64 1.63-5.3 0 1 1.61-1.93h2.32a1.06 1.05-21.8 0 1 .76.32l3.41 3.41a1.47 1.46-30.8 0 1-.62 2.44q-.83.24-1.69 1.09a.66.66 0 0 0 .75 1.07l2.78-1.31a.42.42 0 0 0 .13-.66q-.35-.38-.49-1.16-.12-.67.38-.95 1.14-.64 2.53-.12a.86.86 0 0 1 .16 1.53l-.7.45a1.08 1.05 79.8 0 0-.46.68q-.47 2.29-1.67 3.53c-1.06 1.09-2.95 1.12-4.02 1.82a.87.87 0 0 1-.92.03q-1.57-.89-2.12-1.57a.71.71 0 0 1-.04-.83q.3-.45.46-.53a2.08 1.85 57.1 0 0 .46-3.02q-.42-.54-1.29.17zm-8.16-.31a.29.29 0 0 1-.31.26l-.44-.04a2.47.92 5.5 0 1-2.37-1.15l.04-.4a2.47.92 5.5 0 1 2.54-.68l.44.04a.29.29 0 0 1 .26.32l-.16 1.65z" class="C"/><path d="M161.67 471.27l-31.27-70.72a.08.08 0 0 1 .05-.11l32.34-12.13 3.61-1.05a.69.69 0 0 1 .84.41q3.75 9.61 5.67 13.7c6.69 14.2 11.09 25.52 17.58 39.08q3.18 6.67 7.71 17.48c.34.82.98 1.02 1.26 1.52a.69.69 0 0 1-.22.9q-2.64 1.77-5.79 2.85-14.81 5.08-29.09 10.08a.92.91 48.8 0 1-.72-.05q-1.12-.59-1.97-1.96z" class="B"/><g class="C"><ellipse cx="0" cy="0" transform="matrix(-.447759 -.894154 .894154 -.447759 64.25 390.98)" rx="1.37" ry="1"/><rect x="-1.34" y="-2.85" transform="matrix(.999925 -.012217 .012217 .999925 59.32 395.35)" width="2.68" height="5.7" rx="1.19"/><path d="M87.08 393.9l.44.14a.52.51-58.8 0 1 .21.86l-1.71 1.72a.78.78 0 0 0 .58 1.33l3.83-.16a.56.56 0 0 1 .23 1.08q-4.55 1.82-8.52 1.77a1.11 1.11 0 0 1-.77-1.89l4.57-4.57a1.15 1.13 30.7 0 1 1.14-.28zm-36.6 7.29a.7.7 0 0 1 .73 1.04l-.75 1.3a1.34 1.32 14.6 0 1-1.16.67h-1.7a1.23 1.22-50.3 0 1-.22-2.43l3.1-.58z"/></g><path d="M159.76 473.28q.25 1-1.39 1.58-14.76 5.25-30.05 9.14a2.02 2.02 0 0 1-2.34-1.13L94.97 414.2a1.05 1.04 63.8 0 1 .46-1.36l2.6-1.36 27.49-9.61a1.95 1.94 68 0 1 2.41 1.03l31.83 70.38z" class="B"/><path d="M31.53 418.64q.85-1.22-.35-2.31 5.35-1.56 10.93-1.66a1.17.8 29 0 0 .21-.02l6.88-1.6a1.81 1.8 82.3 0 0 1.39-1.83l-.06-1.51a1.23 1.22-87.3 0 1 1.39-1.27q2.03.28 1.47 1.46-.98 2.07-.99 2.11a.51.51 0 0 0 .92.42q1.67-2.38 6.32-1.42a.53.53 0 0 0 .62-.66q-.18-.65-1.36-1.61a.47.47 0 0 1 .21-.82l1.25-.24a1.36 1.34-27.2 0 1 1.21.38c1.05 1.08 2.79.92 4.31 1.15a.81.81 0 0 1 .2 1.55q-1.45.63-3.82.76a1.76 1.75 26 0 0-.96.33c-1.97 1.41-4.36 1.06-6.13 1.64-4.39 1.44-8.59 1.47-13.02 3.05a1.35.8 14.3 0 1-.17.05l-10.45 2.05zm237.85-7.74q-1.42.08-1.61.01a.82.75-36.4 0 1 .3-1.5q.85-.1 1.58.93a.36.35-19.4 0 1-.27.56z" class="D"/><path d="M4.07 412.4q2.57.7 4.6 2.8a2.28 2.06-81.4 0 1 .43.65l2.68 6.49a.79.78-9.8 0 0 .7.49q5.05.24 6.58.03 18.07-2.45 35.61-7.11l4.41 2.15a1.02 1.01 23.7 0 1 .5 1.27l-1.38 3.62-18 5.58a.57.57 0 0 0-.38.72q1.32 4.02 3.13 6.45a1.95 1.84 21.5 0 1 .33.7q.89 3.86 2.79 6.84 1.42 2.24 1.55 3.8a1.34 1.29 21.4 0 0 .37.8l1.18 1.18a.78.77 29.8 0 1 .21.76q-.53 1.97 1.87 2.72a.75.75 0 0 1 .52.57q.1.52-.28.81a1.08 1.03 40.8 0 0 .17 1.76q.72.41 1.24.83a1.25 1.24 16.5 0 1 .47.86q.3 2.95 2.02 4.47a1.59 1.59 0 0 1 .51.99l.14 1.29a1.75 1.5 33.5 0 0 .14.49l7.29 15.03a.76.73 35.8 0 1 .08.44c-.1.99.29 1.93 1.13 2.63.91.77.63 1.54 1.19 2.29q1.4 1.93 2.22 4.73c.46 1.58 2.07 2.39 1.93 4.07q-.07.89.25 1.19a1.02.94-24.4 0 0 .76.25l9.9-.84 5.43.2a1.47 1.47 0 0 1 1.39 1.22l.54 3.2q-.83.42-.62 1 1.28 3.49 3.5 7.73a.99.98 75.1 0 1-.83 1.44l-2.02.08a1.43 1.41-13 0 1-1.36-.84l-3.54-7.83a1.61 1.6 76.4 0 0-1.53-.94l-.45.02a.92.92 0 0 0-.81 1.3l3.84 8.49a.49.49 0 0 1-.43.69l-2.59.11a1.19 1.17 76.6 0 1-1.12-.7l-3.18-7.04a2.98 2.97-5.4 0 0-2.02-1.67l-.26-.06a.76.76 0 0 0-.85 1.06l3.26 7.34a1.03 1.02 75.7 0 1-.85 1.44l-.21.02a2.53 2.52-15.5 0 1-2.52-1.42l-3.52-7.42a1.24 1.23 76.2 0 0-1.16-.71l-.39.02a.8.8 0 0 0-.7 1.13q10.05 21.97 16.3 35.2.97 2.06 2.46 3.07a.97.97 0 0 1-.35 1.76q-3.47.67-7.91-.11a.46.29-31.7 0 0-.13 0l-3.72.17a.28.28 0 0 0-.15.5c1.44 1.05 2.9.62 4.47.9q5.12.91 10.17.29a.58.57 80.2 0 0 .49-.71q-.27-1.2-1.47-2.14a.5.5 0 0 1 .32-.89c4.35.1 11.98.14 18.15-.9q3.16-.53 10.43-1.42a.92.89 3.4 0 1 1.01 1.1q-.13.55.15 1.22c1.66 3.62 3.23 7.88 4.76 10.99q4.75 9.65 9.74 19.99a2.1 2.09 75.5 0 0 2.01 1.19q12.55-.67 25-3.8 1.46-.45 2.77-.39a1.24 1.24 0 0 1 1.16 1.5l-.64 2.94q-11.25 2.19-22.63 3.6-4.43.55-5.97 1.31a2.45 2.34 29.6 0 1-.96.24l-22.62.92a.63.63 0 0 0-.54.9q14.23 29.91 28.14 60.14 1.22 2.63 3.48 6.44 1.46 2.45 3.41 6.38 10.93 21.98 16.33 34.49c2.16 5.02 5.72 10.12 7.15 14.97a.96.95 89.4 0 0 .67.66q3.01.82 4.67 1.02 3.88.48 17.65 1.34a.39.38-8 0 0 .39-.51q-2.49-7.25-6.07-14.09-1.67-3.19-3.01-6.64-2.13-5.47-2.87-6.73c-1.66-2.82-2.85-7.12-4.61-9.77-1.62-2.45-2.36-5.53-3.81-7.91a.53.49-64.7 0 1-.07-.22l-.32-3.47a.25.24-68.2 0 1 .43-.19c1.61 1.85 2.65 3.04 3.75 5.52q6.15 13.93 9.48 20.36 6.67 12.91 9.9 20.71.29.71.32 1.33.05.86.58 1.17a1.3 1.29-31.3 0 0 .76.18q3.33-.25 4.62.56a.15.15 0 0 0 .09.03l7.64.59a1.2 1.2 0 0 1 1.11 1.15l.11 3h-20.9q-8.61-1.78-17.49-1.85a2.1 1.89-31.3 0 1-.63-.12q-4.31-1.54-8.75-1.64a2.05 2.03-30.1 0 1-.92-.24q-1.89-.99-4.16-1.08l-13.77-6.58q1.23-5.45-1.65-7.94a1.51 1.49-76.3 0 1-.48-.8q-.43-1.74-1.08-2.51c-2.7-3.19-3.53-6.78-4.18-10.86a3.64 3.61 20.6 0 0-.81-1.76q-1.89-2.2-2.41-3.56-2.67-6.94-5.51-12.31-.41-.8.11-1.74a.37.37 0 0 1 .61-.07q1.29 1.48 1.84 2.65 3.75 7.94 6.63 13.09a2.54 2.44-61.7 0 1 .32 1.15q.02 1.05.67 1.78a3.09 3.07-73.6 0 1 .67 1.24q.37 1.35.66 1.67 2.74 3.01 4.37 6.98c2.22 5.43 3.03 9.41 6.21 11.52q1.86 1.24 7.03 3.33a2.52 2.5 59.3 0 0 .62.16l7.38.84a.72.72 0 0 0 .77-.93q-.36-1.19-1.5-3.72c-2.47-5.48-6.89-12.68-9.18-19.08q-.82-2.29-3.28-6.42-1.31-2.21-3.13-6.59-4.31-10.4-11.65-22.01a4.4 3.74-75.9 0 1-.37-.75q-1.42-3.81-3.62-7.49a11.84 11.14 20.6 0 1-.76-1.55q-3.38-8.61-7.36-15.89c-1.63-2.97-2.43-6.03-3.81-8.78q-5.02-9.99-11.35-23.72c-.69-1.48-1.68-1.87-1.36-3.82a1.07 1.07 0 0 0-1.1-1.24q-2.44.1-4.43-.81a3.96 3.76-28.1 0 0-1.16-.32q-5-.58-12.79-1.67-2.41-.34-11.04-3.83-.51-.2-1.85-.54c-1.94-.49-1.88-3.19-4.03-3.89l-6.94-14.72q1.01-1.69-1.06-2.39l-.62-1.42q.4-1.53-1.16-2.41l-6.06-13.43q.78-.17 1.75-.03a.67.66 7.8 0 0 .75-.56q.28-1.94.7-2.3a2.55 2.52-46.9 0 0-.11-3.98q-.33-.24-.57-1.16a2.38 2.15-68.7 0 0-.16-.42q-4.63-9.13-8.03-16.55a1.02 0 57 0 1-.55-.84q-1.08-1.62-.83-3.97a.34.33 12.8 0 1 .45-.28l.67.25a.1.09 16.2 0 1 .06.1q-.15 1.79 1.06 3.62 2.88 4.35 7.48 15.75.14.34.61.8a1.62 1.58 20.2 0 1 .48 1.01q.13 1.45 1.6 3.19a1.78 1.24 58.3 0 1-.14 2.55q-1.47.42-1.72 2.89a1.28 1.28 0 0 0 .95 1.37l.21.05a.84.84 0 0 0 1.05-.87q-.11-1.64.56-2.49a.51.5 43.8 0 1 .79-.01q1.29 1.52-.08 3.03a.46.45 22.5 0 0 .32.76q2.21.11 2.43 1.37a.7.65-37.7 0 0 1.27.12q.14-.28.08-.67-.08-.45-.42-.6c-1.37-.61-1.14-2.56-1.73-3.72q-3.39-6.56-7.99-16.73c-2.05-4.55-4.99-9.5-6.56-14.31a.77.77 0 0 0-1.4-.15l-.54.94a.81.81 0 0 1-1.51-.47q.25-3.26-.21-4.65a.94.92-32.8 0 1 .21-.94q.49-.5.97-.72a1.05.93-55.8 0 0-.25-1.93q-1.68.11-3.5-.7a.41.41 0 0 1 .15-.79l1.49-.06a1.25 1.25 0 0 0 .85-2.11q-1.16-1.21-1.45-2.66a.01 0-38 0 0-.01 0q-.01.01-.02.02a.13.05-57.2 0 0-.02.09q.17 1.05-.67 1.15a.61.6 87.8 0 0-.53.58q0 .13-.02.16a.4.4 0 0 1-.69.09q-2.9-3.81-3.87-7.67a1.76 1.75-81.8 0 0-.8-1.07q-1.65-.97-.77-2.54a.65.64-63.1 0 0-.29-.91q-1.3-.6-1.56-2.64c-.18-1.37-1.2-1.71-1.77-2.49a1.41 1.41 0 0 1-.25-1.02q.27-1.78-1.19-2.87a1.15 1.08-83.9 0 1-.38-.5l-1.24-3.22a.74.71 87 0 0-.46-.43q-1.25-.37-.54-2.51a.96.95-65.6 0 0-.42-1.13l-1.79-1.03a.61.61 0 0 1-.22-.84l.46-.8a.73.73 0 0 0-.27-1l-1.34-.77a1.16 1.15-60.2 0 1-.42-1.57l.17-.28a.73.73 0 0 0-.27-.99l-2.17-1.25a.5.49 37.2 0 1-.11-.77l.77-.76a.62.62 0 0 0 .01-.86q-.57-.62-1.25-.79a1.08 1.08 0 0 1-.8-1.22l.51-3.21a.56.56 0 0 0-.59-.65q-.11.01-.4.19-.34.2-.91-.07-.56-.27-.46-1.36.06-.62.78-1.07.65-.4.63-1.23a.53.53 0 0 0-.53-.53q-2.18.04-3.53-.66a.43.43 0 0 1 .02-.78l1.79-.81a.89.89 0 0 0-.37-1.7h-2.17a.86.86 0 0 1-.59-1.49q.8-.75 1.25-.89a.55.53 80.8 0 0 .37-.53l-.05-1.21a.44.43-24.3 0 0-.75-.28q-.69.71-2.71-.06a.032.021-32.3 0 1 .02-.05q.02-.01.07-.02a.09.04-19.3 0 0 .08-.08q-2.46-2.21-3.68-5.7-.22-.62.06-.71.41-.11.52-.16a.33.33 0 0 0-.08-.63l-1.19-.12a1.07 1.06-18.8 0 1-.66-.32q-.61-.62-1.33-.52-2.51.37-4-.52a1.08 1.08 0 0 0-1.62 1.07l.38 2.82L0 420.51v-3.9l.92-1.16 3.48 5.53a1.68 1.67-22.4 0 0 1.8.74l.32-.08a.8.8 0 0 0 .43-1.29l-4.91-5.99 2.03-1.96zm31.69 15.31l-3.8 1.5a.76.6-52 0 1-.16.04c-3.11.43-6.98.52-9.84 1.98a.84.84 0 0 0-.19 1.37q.96.89 1.04 1.77c.15 1.59 1.27 3.52 2.73 6.97q1.05 2.5 2.62 5.3 3.99 7.1 7.21 14.24 2.28 5.06 3.79 6.9a.76.75-65.7 0 1 .18.49v1.62a1.07 1.07 0 0 0 .42.85c1.39 1.09 1.41 3.11 2.1 4.62q2.33 5.05 5.6 11.51a2.18 2.1-84.8 0 0 .57.71l.97.8a1.1 1.08 24.2 0 1 .4 1.02c-.33 2.02 1.14 2.53 1 4.12q-.02.28.42 2.49a.28.27-3.9 0 0 .26.22l11.38.27a.38.37 34.9 0 0 .19-.03l3.61-1.25a.96.96 0 0 0 .53-1.36q-3.04-5.71-4.05-8.34c-.42-1.08-1.32-1.65-1.65-2.27a1.73 1.72-58.3 0 1-.21-.9q.07-1.46-.94-2.37a1.2 1.2 0 0 1-.4-.85q-.03-.9-.4-1.54-1.5-2.61-3.45-6.72c-.58-1.23-.57-2.8-1.72-3.68a.92.91 21.4 0 1-.36-.82q.12-1.23-.79-2.24c-1.49-1.64-1.73-2.89-3-4.9-1.07-1.68-1.09-4.08-2.74-5.39q-.32-.26-.45-.73-.19-.65-.2-1.06a1.62 1.58 32 0 0-.16-.65q-2.34-5.09-3.64-7.83c-.72-1.54-1.98-2.98-1.89-4.54a1.22 1.2 19.1 0 0-.53-1.07q-.95-.66-1.21-1.93c-.53-2.6-2.55-5.16-3.08-7q-.16-.54.11-1.01a.22.22 0 0 0-.27-.31zm18.226 73.845a.76.76 0 0 0-1.012-.361l-.036.017a.76.76 0 0 0-.361 1.012l16.857 35.501a.76.76 0 0 0 1.013.361l.036-.017a.76.76 0 0 0 .361-1.012l-16.857-35.501zm4.692.005a.81.81 0 0 0-1.078-.386l-.036.017a.81.81 0 0 0-.386 1.079l17.146 36.272a.81.81 0 0 0 1.078.386l.036-.017a.81.81 0 0 0 .386-1.079L58.678 501.56zm5.314-.009a.94.94 0 0 0-1.252-.446l-.054.026a.94.94 0 0 0-.446 1.252l17.449 36.748a.94.94 0 0 0 1.252.446l.054-.026a.94.94 0 0 0 .446-1.252L63.992 501.55zm25.128 57.83q3.7 1.11 6.68.98a.93.93 0 0 1 .8.4c.78 1.16.11 2.18 1.23 3.35q1.15 1.2 1.53 3.53a1.78 1.73 18.3 0 0 .51.98q1.38 1.36 1.84 2.64a.77.77 0 0 1-.91 1.02l-10.3-2.48a.65.65 0 0 1-.17-1.2q2.84-1.6 5.83-.29a.42.42 0 0 0 .57-.5q-.46-1.55-1.52-1.42c-2.43.29-7.52.86-8.21-1.48a.59.58-9.7 0 1 .54-.75l7.27-.4a.46.45 4.1 0 0 .42-.36v-.03a.51.5.6 0 0-.5-.5q-3.94-.11-7.13.29c-2.37.29-3.25-.61-4.18-2.54a.22.22 0 0 0-.41.1l.09 2.21a.76.74-77.5 0 0 .39.63c2.1 1.16.43 3.53 3.39 4.84a.63.63 0 0 1 .04 1.13l-.35.18a1.52 1.52 0 0 1-1.65-.13q-2.37-1.8-2.86-4.79-.09-.53-1.19-1.64a1.6 1.55-71.3 0 1-.45-.95q-.15-1.42-1.25-2.34a.37.31 13.9 0 1-.1-.14l-2.59-6.04a1.01 1-8.3 0 0-.83-.61q-.76-.07-1.1.23-.53.46.21 1.33 2.23 2.64 3.83 7.01a.68.68 0 0 1-1.14.7q-2.01-2.14-2.76-5.39-.31-1.36-1.66-1.88a.7.7 0 0 1-.43-.82q.44-1.83-1.16-3.05a1.5 1.47-81.7 0 1-.51-.7l-2-5.76a.78.77-83.7 0 0-.34-.43q-2.41-1.5-3.43-4.12a3.98 3.96 85.9 0 0-2.77-2.41l-1.19-.29a1.13 1.13 0 0 0-1.27 1.63l5.09 9.66a2.18 2.06-67.5 0 1 .23.6q1.24 4.99 3.88 9.87a2.45 2.32 4.5 0 0 .75.83q1.53 1.03 1.6 3.5a1.81 1.8 29.6 0 0 .24.86q1.47 2.62 2.29 3.1 2.2 1.32 4.72 2.81a3.96 3.95-28.5 0 0 1.86.55l4.79.19a1 .93 56.5 0 1 .33.08q1.04.47 2.25.65c1.62.24 3.46 1.85 5.3 1.76q5.16-.25 10.15-.05a.73.73 0 0 0 .65-1.11q-.24-.41-.57-.57a.71.69 88.2 0 1-.32-.31l-4.61-9.13a3.14 2.9 26.9 0 1-.23-.62q-.1-.65-1.39-3.2-1.37-2.75-6.27-13.37a.58.58 0 0 0-1.1.24v1.22a1.4 1.39 20.5 0 0 .49 1.06q2.31 2 2.23 4.27a.95.93 25.3 0 0 .24.65q.59.65 1.2 1.88a.53.53 0 0 1-.45.77l-6.08.24a.15.15 0 0 0-.03.29q3.79.87 6.23.43a1.66 1.65-18.8 0 1 1.74.85l.44.82a.82.81-10.4 0 1-.82 1.19q-2.64-.31-5.64.25zm3.45-16.69c3.36 5.05 6.32 13.56 9.71 19.79q1.5 2.76 4 7.93c.54 1.12.18 2.24.72 2.88a1.14 1.1 69.1 0 0 .85.4c9.49-.06 16.12.16 21.07-.76a.79.79 0 0 0 .58-1.1l-13.81-31.15a1.57 1.56-13.7 0 0-1.53-.92c-4.85.32-8.85 1.45-13.58 1.77q-2.1.14-5.81.73-.67.11-.99-.05-.67-.34-.89-.29a.5.5 0 0 0-.32.77zm-8.521 4.178a2.23.79-163.8 0 0 1.921 1.381 2.23.79-163.8 0 0 2.362-.136 2.23.79-163.8 0 0-1.921-1.381 2.23.79-163.8 0 0-2.362.136zm2.041 5.095a2.61.45-175 0 0 2.561.676 2.61.45-175 0 0 2.639-.221 2.61.45-175 0 0-2.561-.676 2.61.45-175 0 0-2.639.221zM23.32 416.04a.45.45 0 0 1 .03.63l-.08.1a3.02 2.97-47.8 0 1-4.23.24l-.02-.01a3.02 2.97-47.8 0 1-.17-4.24l.09-.09a.45.45 0 0 1 .63-.03l3.75 3.4z" class="C"/><path d="M89.79 413.92a.96.95-26.5 0 1 1.19.39q1.34 2.23 2.37 4.33c10.86 22 20.05 42.9 30.31 64.98a1.1 1.09 69.3 0 1-.68 1.51q-12.86 3.87-25.47 6.13-2.09.37-3.06-1.76Q77 450.93 64.07 423.83a1.84 1.83-21.6 0 1 1.1-2.54c1.92-.61 5.14-1.65 6.79-2.01q10.23-2.17 17.83-5.36zm-87.75.44l4.91 5.99a.8.8 0 0 1-.43 1.29l-.32.08a1.68 1.67-22.4 0 1-1.8-.74l-3.48-5.53q.22-.55 1.12-1.09z" class="B"/><path d="M31.18 416.33q1.2 1.09.35 2.31c-3.39 1.53-6.3-.32-3.48-3.93a1 1 0 0 1 1.66.13q.46.82 1.47 1.49z" class="C"/><ellipse cx="0" cy="0" transform="matrix(.997314 -.073238 .073238 .997314 14.52 417.65)" rx="1.14" ry=".72" class="D"/><path d="M55.69 533.93q-6.1-15.94-13.99-31.17L3.01 425.94l-.38-2.82a1.08 1.08 0 0 1 1.62-1.07q1.49.89 4 .52.72-.1 1.33.52a1.07 1.06-18.8 0 0 .66.32l1.19.12a.33.33 0 0 1 .08.63q-.11.05-.52.16-.28.09-.06.71 1.22 3.49 3.68 5.7a.09.04-19.3 0 1-.08.08q-.05.01-.07.02a.032.021-32.3 0 0-.02.05q2.02.77 2.71.06a.44.43-24.3 0 1 .75.28l.05 1.21a.55.53 80.8 0 1-.37.53q-.45.14-1.25.89a.86.86 0 0 0 .59 1.49h2.17a.89.89 0 0 1 .37 1.7l-1.79.81a.43.43 0 0 0-.02.78q1.35.7 3.53.66a.53.53 0 0 1 .53.53q.02.83-.63 1.23-.72.45-.78 1.07-.1 1.09.46 1.36.57.27.91.07.29-.18.4-.19a.56.56 0 0 1 .59.65l-.51 3.21a1.08 1.08 0 0 0 .8 1.22q.68.17 1.25.79a.62.62 0 0 1-.01.86l-.77.76a.5.49 37.2 0 0 .11.77l2.17 1.25a.73.73 0 0 1 .27.99l-.17.28a1.16 1.15-60.2 0 0 .42 1.57l1.34.77a.73.73 0 0 1 .27 1l-.46.8a.61.61 0 0 0 .22.84l1.79 1.03a.96.95-65.6 0 1 .42 1.13q-.71 2.14.54 2.51a.74.71 87 0 1 .46.43l1.24 3.22a1.15 1.08-83.9 0 0 .38.5q1.46 1.09 1.19 2.87a1.41 1.41 0 0 0 .25 1.02c.57.78 1.59 1.12 1.77 2.49q.26 2.04 1.56 2.64a.65.64-63.1 0 1 .29.91q-.88 1.57.77 2.54a1.76 1.75-81.8 0 1 .8 1.07q.97 3.86 3.87 7.67a.4.4 0 0 0 .69-.09q.02-.03.02-.16a.61.6 87.8 0 1 .53-.58q.84-.1.67-1.15a.13.05-57.2 0 1 .02-.09q.01-.01.02-.02a.01 0-38 0 1 .01 0q.29 1.45 1.45 2.66a1.25 1.25 0 0 1-.85 2.11l-1.49.06a.41.41 0 0 0-.15.79q1.82.81 3.5.7a1.05.93-55.8 0 1 .25 1.93q-.48.22-.97.72a.94.92-32.8 0 0-.21.94q.46 1.39.21 4.65a.81.81 0 0 0 1.51.47l.54-.94a.77.77 0 0 1 1.4.15c1.57 4.81 4.51 9.76 6.56 14.31q4.6 10.17 7.99 16.73c.59 1.16.36 3.11 1.73 3.72q.34.15.42.6.06.39-.08.67a.7.65-37.7 0 1-1.27-.12q-.22-1.26-2.43-1.37a.46.45 22.5 0 1-.32-.76q1.37-1.51.08-3.03a.51.5 43.8 0 0-.79.01q-.67.85-.56 2.49a.84.84 0 0 1-1.05.87l-.21-.05a1.28 1.28 0 0 1-.95-1.37q.25-2.47 1.72-2.89a1.78 1.24 58.3 0 0 .14-2.55q-1.47-1.74-1.6-3.19a1.62 1.58 20.2 0 0-.48-1.01q-.47-.46-.61-.8-4.6-11.4-7.48-15.75-1.21-1.83-1.06-3.62a.1.09 16.2 0 0-.06-.1l-.67-.25a.34.33 12.8 0 0-.45.28q-.25 2.35.83 3.97a1.02 0 57 0 0 .55.84q3.4 7.42 8.03 16.55a2.38 2.15-68.7 0 1 .16.42q.24.92.57 1.16a2.55 2.52-46.9 0 1 .11 3.98q-.42.36-.7 2.3a.67.66 7.8 0 1-.75.56q-.97-.14-1.75.03zm25.24-39.73l-9.9.84a1.02.94-24.4 0 1-.76-.25q-.32-.3-.25-1.19c.14-1.68-1.47-2.49-1.93-4.07q-.82-2.8-2.22-4.73c-.56-.75-.28-1.52-1.19-2.29-.84-.7-1.23-1.64-1.13-2.63a.76.73 35.8 0 0-.08-.44l-7.29-15.03a1.75 1.5 33.5 0 1-.14-.49l-.14-1.29a1.59 1.59 0 0 0-.51-.99q-1.72-1.52-2.02-4.47a1.25 1.24 16.5 0 0-.47-.86q-.52-.42-1.24-.83a1.08 1.03 40.8 0 1-.17-1.76q.38-.29.28-.81a.75.75 0 0 0-.52-.57q-2.4-.75-1.87-2.72a.78.77 29.8 0 0-.21-.76l-1.18-1.18a1.34 1.29 21.4 0 1-.37-.8q-.13-1.56-1.55-3.8-1.9-2.98-2.79-6.84a1.95 1.84 21.5 0 0-.33-.7q-1.81-2.43-3.13-6.45a.57.57 0 0 1 .38-.72l18-5.58q.92-.29 1.75-.2a.51.5 80.4 0 1 .4.29l32.12 68.47a.64.64 0 0 1-.46.9l-11.08 1.95zm-44.9-66.18q-.27.47-.11 1.01c.53 1.84 2.55 4.4 3.08 7q.26 1.27 1.21 1.93a1.22 1.2 19.1 0 1 .53 1.07c-.09 1.56 1.17 3 1.89 4.54q1.3 2.74 3.64 7.83a1.62 1.58 32 0 1 .16.65q.01.41.2 1.06.13.47.45.73c1.65 1.31 1.67 3.71 2.74 5.39 1.27 2.01 1.51 3.26 3 4.9q.91 1.01.79 2.24a.92.91 21.4 0 0 .36.82c1.15.88 1.14 2.45 1.72 3.68q1.95 4.11 3.45 6.72.37.64.4 1.54a1.2 1.2 0 0 0 .4.85q1.01.91.94 2.37a1.73 1.72-58.3 0 0 .21.9c.33.62 1.23 1.19 1.65 2.27q1.01 2.63 4.05 8.34a.96.96 0 0 1-.53 1.36l-3.61 1.25a.38.37 34.9 0 1-.19.03l-11.38-.27a.28.27-3.9 0 1-.26-.22q-.44-2.21-.42-2.49c.14-1.59-1.33-2.1-1-4.12a1.1 1.08 24.2 0 0-.4-1.02l-.97-.8a2.18 2.1-84.8 0 1-.57-.71q-3.27-6.46-5.6-11.51c-.69-1.51-.71-3.53-2.1-4.62a1.07 1.07 0 0 1-.42-.85v-1.62a.76.75-65.7 0 0-.18-.49q-1.51-1.84-3.79-6.9-3.22-7.14-7.21-14.24-1.57-2.8-2.62-5.3c-1.46-3.45-2.58-5.38-2.73-6.97q-.08-.88-1.04-1.77a.84.84 0 0 1 .19-1.37c2.86-1.46 6.73-1.55 9.84-1.98a.76.6-52 0 0 .16-.04l3.8-1.5a.22.22 0 0 1 .27.31z" class="B"/><path d="M321.03 445.65q2.84 4.52 6.75 7.07a1.03 1.02-59.7 0 1 .35 1.35q-6.9 12.86-19.8 18.9a2.11 2.11 0 0 1-2.63-.7q-2.81-4.03-3.2-9.1a1.12 1.08-35.7 0 1 .1-.54l1.95-4.22a5.25 5.25 0 0 1 2.79-2.66l12.83-5.21a1.09 1.08 53.4 0 0 .27-1.85q-1.76-1.42-1.51-3.05a1.25.98 38.4 0 1 2.1.01zm160.06 1.18l2.39 4.88q-.01 1.09.54 1.04.48.44.09.28L512 526.1v1.56q-2.16.72-1.75 4.28.03.25-.16.29a.11.11 0 0 1-.13-.1l-.16-4.04a.82.69 33 0 0-.1-.33l-1.17-1.98q-.02-.04-.04-.08l-3.72-7.33a2.04 1.24 81.6 0 1-.11-.25l-7.09-19.1a1.13.79-80 0 0-.07-.15q-2.83-5.29-3.75-11.39-.11-.67-1.68-3.33a1.05 1.03 17.8 0 1-.1-.19l-8.34-20.59a1.91 1.84-77.6 0 0-.33-.54c-2.28-2.6-1.29-4.96-1.98-7.73q-.19-.72-.9-4.35-.54-2.76.67-3.92z" class="C"/><path d="M283.87 451.41q.07-.48-.11-.97a1.12 1.12 0 0 1 .54-1.4l1.73-.87a.65.65 0 0 1 .84.22c1.44 2.2-.66 3.5-2.34 3.71a.6.59-88.9 0 1-.66-.69z" class="B"/><path d="M297.44 450.18a.89.89 0 0 1 .78-.98l.31-.04a5.96 2.21-6.3 0 1 6.17 1.55l.02.16a5.96 2.21-6.3 0 1-5.68 2.85l-.31.03a.89.89 0 0 1-.98-.79l-.31-2.78z" class="C"/><g class="B"><path d="M484.02 452.75q-.55.05-.54-1.04.44.41.54 1.04z"/><path d="M512 493.63v32.47l-27.89-73.07q1.76 2.55 3.63 4.7 7.53 8.63 9.93 20.46 1.95 9.63 9.94 19.89a.46.45-42 0 0 .69.03q1.64-1.77 1.79-2.84.42-3.12.74-5.64a.19.19 0 0 1 .2-.17h.01a.31.31 0 0 1 .31.31q-.02 1.97.65 3.86z"/></g><g class="C"><path d="M474.68 459.34l.33-.06a.26.26 0 0 1 .27.13l4.42 8.29a2.34 2.2 27.3 0 1 .19.54q1.27 5.76 4.67 13.69 4.22 9.84 5.25 13.09.77 2.42 6.1 17.14c2.95 8.17 6.02 14.98 8.79 23.09.51 1.48.78 3.36 1.22 4.92a1.24 1.23-31.4 0 1-.29 1.18l-.04.04a.46.45 55.3 0 1-.76-.14c-1.25-3.25-2.33-6.84-3.57-9.9-5.04-12.42-6.87-18.12-11.18-27.87q-1.99-4.5-3.72-10.58-.89-3.15-4.12-10.48-2.45-5.58-3.91-10.55-1.12-3.86-3.92-12.06a.36.36 0 0 1 .27-.47z"/><ellipse cx="0" cy="0" transform="matrix(-.997916 -.064532 .064532 -.997916 285.02 460.72)" rx=".89" ry=".62"/></g><path d="M156.38 493.12c3.63-.03 8.15-1.85 10.5-2.45a.22.22 0 0 0 0-.43l-2.49-.6a1.62 1.6 84.8 0 1-1.07-.9l-2.57-5.69a1.63 1.62-20.6 0 1 1.01-2.22l2.21-.66a2.21 2.21 0 0 1 2.65 1.18l2.97 6.33a1.6 1.6 0 0 1 .11 1.08l-.14.6a.46.46 0 0 0 .64.53q6.1-2.91 12.88-4.22 1.03-.2 2.5-1.57a1.24 1.23-33.8 0 0 .28-1.39l-2.98-6.6a1.98 1.98 0 0 1 1.24-2.72l1.97-.6a2.36 2.36 0 0 1 2.84 1.33l2.1 4.94a1.05 1-57.7 0 1 .08.4v1.62a.71.71 0 0 0 .59.7q3.05.54 5.95-1.85a.51.51 0 0 0 .13-.62l-3.89-7.29a1.27 1.27 0 0 1 .12-1.38q1.46-1.84 4.14-1.54a1.64 1.63-54.4 0 0 .88-.15l6.87-3.22a1.6 1.59 65.5 0 1 2.14.81q4.29 9.78 8.06 18.54c1.9 4.4 3.32 9.9 5.58 12.87q2.93 3.87 3.38 8.22a.91.9 79 0 1-.64.97l-5.34 1.61a1.87 1.77 13.9 0 0-.67.38q-3.58 3.19-11.92 5.64-14.56 4.28-28.1 8.87-3.21 1.08-17.9 4.65a1.31 1.29 52.9 0 1-.95-.14q-2.56-1.5-3.08-2.58-4.18-8.65-16.23-36.26a1.71 1.7 69.9 0 1 1.07-2.31l2.27-.69a2.05 2.04 74.1 0 1 2.56 1.43q1.94 7.27 3.59 7.42 2.53.22 4.48-.66a.56.56 0 0 0 .07-.98l-.58-.37a1.7 1.68 4.5 0 1-.59-.68l-2.88-6.15a1.62 1.61-21 0 1 1-2.23l1.91-.58a2.54 2.54 0 0 1 3.03 1.34q1.48 3.08 2.6 5.63a1.23 1.2-13.5 0 1-1.06 1.68q-.89.06-1.48.52a.25.25 0 0 0 .16.44z" class="B"/><ellipse cx="0" cy="0" transform="matrix(.667833 -.744312 .744312 .667833 284.73 475.45)" rx="1.11" ry=".9" class="C"/><g class="B"><path d="M180.41 483.97a1.42 1.42 0 0 1-1.04 1.98l-2.4.45a2.78 2.77 72.5 0 1-3.05-1.59l-2.34-5.19a1.9 1.9 0 0 1 1.38-2.65l1.95-.37a2.6 2.6 0 0 1 2.84 1.48l2.66 5.89z"/><ellipse cx="0" cy="0" transform="matrix(-.387516 -.921863 .921863 -.387516 305.14 482.38)" rx="5.76" ry=".81"/></g><path d="M289 480.12l-2.55.64a.82.82 0 0 1-.75-1.4q1.07-.99 2.77-1.72.59.16.53 2.48z" class="C"/><g class="B"><path d="M149.97 528.4l-1.06-1.35a3.85 3.85 0 0 1-.58-1.03q-1.36-3.54-3.06-6.92-2.18-4.33-3.26-6.83-1.95-4.56-3.93-9.06-1.5-3.38-4.59-4.55l-3-7.17a1.58 1.58 0 0 1 1.16-2.16l1.93-.36a2.02 2.02 0 0 1 2.24 1.22q7.7 18.81 16.56 36.74.29.59-.15 1.08-.72.82-2.26.39zm-17.51-27.69q2.62-.33 3.55 2.04 1.9 4.84 4.38 9.26c2.59 4.63 3.84 9.76 6.24 14.15q1.03 1.88 1.74 4.57a.99.98-12.8 0 1-.77 1.22l-27.24 5.11a.42.42 0 0 0 .04.83l2.84.23q-1.88.12-3.72.23-1.35.07-1.37 1.75-.28-.67-.15-1.22a.92.89 3.4 0 0-1.01-1.1q-7.27.89-10.43 1.42c-6.17 1.04-13.8 1-18.15.9a.5.5 0 0 0-.32.89q1.2.94 1.47 2.14a.58.57 80.2 0 1-.49.71q-5.05.62-10.17-.29c-1.57-.28-3.03.15-4.47-.9a.28.28 0 0 1 .15-.5l3.72-.17a.46.29-31.7 0 1 .13 0q4.44.78 7.91.11a.97.97 0 0 0 .35-1.76q-1.49-1.01-2.46-3.07-6.25-13.23-16.3-35.2a.8.8 0 0 1 .7-1.13l.39-.02a1.24 1.23 76.2 0 1 1.16.71l3.52 7.42a2.53 2.52-15.5 0 0 2.52 1.42l.21-.02a1.03 1.02 75.7 0 0 .85-1.44l-3.26-7.34a.76.76 0 0 1 .85-1.06l.26.06a2.98 2.97-5.4 0 1 2.02 1.67l3.18 7.04a1.19 1.17 76.6 0 0 1.12.7l2.59-.11a.49.49 0 0 0 .43-.69l-3.84-8.49a.92.92 0 0 1 .81-1.3l.45-.02a1.61 1.6 76.4 0 1 1.53.94l3.54 7.83a1.43 1.41-13 0 0 1.36.84l2.02-.08a.99.98 75.1 0 0 .83-1.44q-2.22-4.24-3.5-7.73-.21-.58.62-1 1.99-.42 2.56.61 2.2 3.99 3.72 8.22a1.24 1.23-15.5 0 0 1.41.79l13.57-2.7a2.47 2 22.5 0 0 .31-.08q3.66-1.37 6.77-1.54a2.57 2.53 27.1 0 0 1.25-.39c1.34-.84 3.05-.5 4.52-.87q1.16-.29 4.63-1.12a.181.181 0 0 0-.04-.36h-2.2a1.36 1.35 73.6 0 1-1.14-.63q-2.21-3.52-2.86-7.68a1.01 1.01 0 0 1 .58-1.08q3.94-1.8 5.46 1.93 1.67 4.13 2.09 6.7a.56.55-8 0 0 .62.46l2.92-.37zm-14.36 2.44h-.47a4.45 4.45 0 0 1-4.26-3.17l-1.4-4.63a1.29 1.29 0 0 1 1.02-1.64q1.65-.28 3.29.6a1.07 1 3.7 0 1 .45.48l2.84 6.04a1.63 1.63 0 0 1-1.47 2.32z"/><ellipse cx="0" cy="0" transform="matrix(-.450878 -.892586 .892586 -.450878 107.12 500.45)" rx="5.23" ry="2.5"/><rect x="-2.24" y="-5.02" transform="matrix(.92521 -.379456 .379456 .92521 98.88 501.93)" width="4.48" height="10.04" rx="2.06"/></g><path d="M149.97 528.4q-1.59.23-1.1 3.15a.75.74 1.8 0 0 .58.61l1.78.37q-1.64.39-1.26 1.45 3.45 9.73 10.95 26.56a3.9 3.61-76.5 0 0 .36.64q1.19 1.73 1.87 3.76a.5.5 0 0 1-.47.66h-.51a1.62 1.61-12.2 0 1-1.47-.94q-.93-2.07-3.94-9.22-.95-2.28-4.24-8.31-2.87-5.26-4.25-9.09-.95-2.64-1.92-3.22-1.71-1.02-3.81-.53-9.6 2.25-19.3 3.83l-2.84-.23a.42.42 0 0 1-.04-.83l27.24-5.11a.99.98-12.8 0 0 .77-1.22q-.71-2.69-1.74-4.57c-2.4-4.39-3.65-9.52-6.24-14.15q-2.48-4.42-4.38-9.26-.93-2.37-3.55-2.04.94-.94 1.03-2.05 3.09 1.17 4.59 4.55 1.98 4.5 3.93 9.06 1.08 2.5 3.26 6.83 1.7 3.38 3.06 6.92a3.85 3.85 0 0 0 .58 1.03l1.06 1.35z" class="C"/><g class="B"><rect x="-.78" y="-20.41" transform="matrix(.903335 -.428935 .428935 .903335 61.71 519.64)" width="1.56" height="40.82" rx=".76"/><rect x="-.83" y="-20.87" transform="matrix(.904083 -.427358 .427358 .904083 66.5 520.05)" width="1.66" height="41.74" rx=".81"/><rect x="-.97" y="-21.28" transform="matrix(.903335 -.428935 .428935 .903335 71.84 520.34)" width="1.94" height="42.56" rx=".94"/><path d="M267 518.09q.85-.07-.37 1.71a1.33 1.33 0 0 0 1.38 2.05q3.96-.86 9.03-3.76a.14.13-35.6 0 1 .17.02l.41.43a.29.29 0 0 1-.08.45l-4.62 2.47a1.59 1.58-19.4 0 0-.82 1.7l.07.32a1.21 1.21 0 0 0 1.73.79q1.72-.88 3.86-1.19a1.76 1.75-78.2 0 0 1.23-.81l3.01-4.87a1 .97-28.2 0 0 .16-.5q.07-1.88-1.14-2.41a1.73 1.7 53.5 0 0-.83-.13q-.91.08-1.33-.04a.37.37 0 0 1-.15-.63l.8-.76 23.75-10.94a.76.76 0 0 1 1.01.38l6.81 15.08a1.53 1.52-23.6 0 1-.81 2.04q-7.65 3.22-14.57 6.73c-2.15 1.1-3.62 2.76-1.41 4.87a.5.5 0 0 1-.13.82l-8.29 3.8a.44.29 22.8 0 1-.16.03q-1.09 0-8.28 3.14-4.12 1.81-22.98 9.58-1.77.74-5.49 1.16a1.19 1.17-26.8 0 1-.89-.28q-.94-.81-1.75-2.65-3.85-8.73-5.39-12.38a1.31 1.31 0 0 1 .83-1.76l7.24-2.18a.87.87 0 0 0 .61-1l-.55-2.95a1.91 1.9-15.6 0 1 1.21-2.14l16.73-6.19zm134.45-14.49a.41.41 0 0 1 .76.27l-.9 3.72a2.89 2.82-21.9 0 1-.41.93q-2.28 3.37-3.2 5.2c-3.01 5.97-7.48 10.6-13.3 14.03a.31.3-32.1 0 1-.42-.09l-.15-.23a.12.11 57.8 0 1 .03-.16c1.71-1.1 2.43-2.57 4.25-3.86q4.82-3.43 7.93-9.15 2.2-4.04 5.41-10.66zm-164.52 41.78a.87.87 0 0 1-.45 1.14c-5.96 2.68-10.39 4.65-17.1 6.53q-10.06 2.83-17.91 4.73a.61.6-18.4 0 1-.7-.34l-14.7-33.16a.65.65 0 0 1 .26-.83q2.11-1.28 4.61-2.03 11.65-3.52 22.84-7.64 2.79-1.03 6.43-1.75a1.82 1.79-29.2 0 1 1.57.43q1.17 1.08 1.7 2.35 4.79 11.64 5.12 12.34 4.85 10.21 8.33 18.23z"/></g><path d="M279.51 512.93l-.8.76a.37.37 0 0 0 .15.63q.42.12 1.33.04a1.73 1.7 53.5 0 1 .83.13q1.21.53 1.14 2.41a1 .97-28.2 0 1-.16.5l-3.01 4.87a1.76 1.75-78.2 0 1-1.23.81q-2.14.31-3.86 1.19a1.21 1.21 0 0 1-1.73-.79l-.07-.32a1.59 1.58-19.4 0 1 .82-1.7l4.62-2.47a.29.29 0 0 0 .08-.45l-.41-.43a.14.13-35.6 0 0-.17-.02q-5.07 2.9-9.03 3.76a1.33 1.33 0 0 1-1.38-2.05q1.22-1.78.37-1.71 6.1-3.36 12.51-5.16z" class="C"/><path d="M329.12 523.65q2.6 2.32 2.63 2.33 6.15 4.25 7.26 5.02a.61.61 0 0 1-.31 1.11q-.44.02-1.28-.45-5.19-2.9-9.46-6.7-4.27-3.8-7.76-8.61-.57-.78-.6-1.22a.61.61 0 0 1 1.07-.44q.89 1.01 5.83 6.63.01.02 2.62 2.33zm-169.46 44.82q-12.45 3.13-25 3.8a2.1 2.09 75.5 0 1-2.01-1.19q-4.99-10.34-9.74-19.99c-1.53-3.11-3.1-7.37-4.76-10.99q.02-1.68 1.37-1.75 1.84-.11 3.72-.23 9.7-1.58 19.3-3.83 2.1-.49 3.81.53.97.58 1.92 3.22 1.38 3.83 4.25 9.09 3.29 6.03 4.24 8.31 3.01 7.15 3.94 9.22a1.62 1.61-12.2 0 0 1.47.94h.51a.5.5 0 0 0 .47-.66q-.68-2.03-1.87-3.76a3.9 3.61-76.5 0 1-.36-.64q-7.5-16.83-10.95-26.56-.38-1.06 1.26-1.45 14.19-3.96 28.52-7.5 2.64-.65 3.49 1.23 6.38 14.07 14.11 30.98a1.19 1.19 0 0 1-.52 1.55c-2.66 1.43-4.95 1.99-9.73 3.3-3.41.93-7.07 2.79-10.68 3.28q-8.58 1.19-9.04 1.25c-1.42.19-2.18 1.25-3.67.95q-2.38-.48-4.05.9zm199.85-33.07a.11.11 0 0 1 .09.13v.02a8.03 1.83 9.6 0 1-8.23.47l-.47-.08a8.03 1.83 9.6 0 1-7.61-3.15v-.02a.11.11 0 0 1 .13-.09l16.09 2.72z" class="B"/><rect x="-1.03" y="-51.35" transform="matrix(.925871 -.377841 .377841 .925871 402.8 581.55)" width="2.06" height="102.7" rx=".36" class="D"/><path d="M89.12 559.38q3-.56 5.64-.25a.82.81-10.4 0 0 .82-1.19l-.44-.82a1.66 1.65-18.8 0 0-1.74-.85q-2.44.44-6.23-.43a.15.15 0 0 1 .03-.29l6.08-.24a.53.53 0 0 0 .45-.77q-.61-1.23-1.2-1.88a.95.93 25.3 0 1-.24-.65q.08-2.27-2.23-4.27a1.4 1.39 20.5 0 1-.49-1.06v-1.22a.58.58 0 0 1 1.1-.24q4.9 10.62 6.27 13.37 1.29 2.55 1.39 3.2a3.14 2.9 26.9 0 0 .23.62l4.61 9.13a.71.69 88.2 0 0 .32.31q.33.16.57.57a.73.73 0 0 1-.65 1.11q-4.99-.2-10.15.05c-1.84.09-3.68-1.52-5.3-1.76q-1.21-.18-2.25-.65a1 .93 56.5 0 0-.33-.08l-4.79-.19a3.96 3.95-28.5 0 1-1.86-.55q-2.52-1.49-4.72-2.81-.82-.48-2.29-3.1a1.81 1.8 29.6 0 1-.24-.86q-.07-2.47-1.6-3.5a2.45 2.32 4.5 0 1-.75-.83q-2.64-4.88-3.88-9.87a2.18 2.06-67.5 0 0-.23-.6l-5.09-9.66a1.13 1.13 0 0 1 1.27-1.63l1.19.29a3.98 3.96 85.9 0 1 2.77 2.41q1.02 2.62 3.43 4.12a.78.77-83.7 0 1 .34.43l2 5.76a1.5 1.47-81.7 0 0 .51.7q1.6 1.22 1.16 3.05a.7.7 0 0 0 .43.82q1.35.52 1.66 1.88.75 3.25 2.76 5.39a.68.68 0 0 0 1.14-.7q-1.6-4.37-3.83-7.01-.74-.87-.21-1.33.34-.3 1.1-.23a1.01 1-8.3 0 1 .83.61l2.59 6.04a.37.31 13.9 0 0 .1.14q1.1.92 1.25 2.34a1.6 1.55-71.3 0 0 .45.95q1.1 1.11 1.19 1.64.49 2.99 2.86 4.79a1.52 1.52 0 0 0 1.65.13l.35-.18a.63.63 0 0 0-.04-1.13c-2.96-1.31-1.29-3.68-3.39-4.84a.76.74-77.5 0 1-.39-.63l-.09-2.21a.22.22 0 0 1 .41-.1c.93 1.93 1.81 2.83 4.18 2.54q3.19-.4 7.13-.29a.51.5.6 0 1 .5.5v.03a.46.45 4.1 0 1-.42.36l-7.27.4a.59.58-9.7 0 0-.54.75c.69 2.34 5.78 1.77 8.21 1.48q1.06-.13 1.52 1.42a.42.42 0 0 1-.57.5q-2.99-1.31-5.83.29a.65.65 0 0 0 .17 1.2l10.3 2.48a.77.77 0 0 0 .91-1.02q-.46-1.28-1.84-2.64a1.78 1.73 18.3 0 1-.51-.98q-.38-2.33-1.53-3.53c-1.12-1.17-.45-2.19-1.23-3.35a.93.93 0 0 0-.8-.4q-2.98.13-6.68-.98zm-17.697-3a1.96.79-105.3 0 0-.245 2.099 1.96.79-105.3 0 0 1.279 1.682 1.96.79-105.3 0 0 .245-2.099 1.96.79-105.3 0 0-1.279-1.682zm7.107 9.571q-.66.77.03 1.25 2.05 1.44 2.49.93.45-.51-1.28-2.33-.58-.61-1.24.15zm14.36-24.031q.22-.05.89.29.32.16.99.05 3.71-.59 5.81-.73c4.73-.32 8.73-1.45 13.58-1.77a1.57 1.56-13.7 0 1 1.53.92l13.81 31.15a.79.79 0 0 1-.58 1.1c-4.95.92-11.58.7-21.07.76a1.14 1.1 69.1 0 1-.85-.4c-.54-.64-.18-1.76-.72-2.88q-2.5-5.17-4-7.93c-3.39-6.23-6.35-14.74-9.71-19.79a.5.5 0 0 1 .32-.77z" class="B"/><ellipse cx="0" cy="0" transform="matrix(.836764 -.547563 .547563 .836764 413.62 548.25)" rx="5.01" ry="2.94" class="D"/><g class="B"><ellipse cx="0" cy="0" transform="matrix(-.960294 -.278991 .278991 -.960294 86.19 547.49)" rx="2.23" ry=".79"/><path d="M62.91 549.77q-.85-1.15-1.16-2.41 1.56.88 1.16 2.41zm1.68 3.81l-1.06-2.39q2.07.7 1.06 2.39z"/><ellipse cx="0" cy="0" transform="matrix(-.996195 -.087156 .087156 -.996195 88.69 552.19)" rx="2.61" ry=".45"/><path d="M306.66 691.65q-15.61 5.55-31.39 10.21-3.48 1.02-5.73 1.34c-2.76.39-5.07 1.08-7.77 1.18q-7.35.28-15.64 2.34a.61.6-48.5 0 0 .07 1.19c5.39.62 10.78.77 16.43.96-3.99.54-8.07.79-12.1 1.13h-40.38l-.11-3a1.2 1.2 0 0 0-1.11-1.15l-7.64-.59a.15.15 0 0 1-.09-.03q-1.29-.81-4.62-.56a1.3 1.29-31.3 0 1-.76-.18q-.53-.31-.58-1.17-.03-.62-.32-1.33-3.23-7.8-9.9-20.71-3.33-6.43-9.48-20.36c-1.1-2.48-2.14-3.67-3.75-5.52a.25.24-68.2 0 0-.43.19l.32 3.47a.53.49-64.7 0 0 .07.22c1.45 2.38 2.19 5.46 3.81 7.91 1.76 2.65 2.95 6.95 4.61 9.77q.74 1.26 2.87 6.73 1.34 3.45 3.01 6.64 3.58 6.84 6.07 14.09a.39.38-8 0 1-.39.51q-13.77-.86-17.65-1.34-1.66-.2-4.67-1.02a.96.95 89.4 0 1-.67-.66c-1.43-4.85-4.99-9.95-7.15-14.97q-5.4-12.51-16.33-34.49-1.95-3.93-3.41-6.38-2.26-3.81-3.48-6.44-13.91-30.23-28.14-60.14a.63.63 0 0 1 .54-.9l22.62-.92a2.45 2.34 29.6 0 0 .96-.24q1.54-.76 5.97-1.31 11.38-1.41 22.63-3.6l36.14-8.13a1.76 1.76 0 0 1 2 1l5.91 13.25a1.36 1.36 0 0 0 1.8.68l.25-.12a1.14 1.14 0 0 0 .55-1.5l-6.15-13.62a.65.65 0 0 1 .3-.85q3.37-1.69 4.55-1.96 7.42-1.68 22.29-6.65 3.3-1.1 7.7-2.21a1.68 1.68 0 0 1 1.93.91q5.79 12.43 9.85 22.68c2.59 6.56 5.58 11.4 8.06 17.81q.81 2.09 3.3 7.05c3.62 7.21 6.4 16.58 9.98 23.12q2.82 5.17 4.39 9.41c2.47 6.65 6.94 13.95 9.7 20.89 3.04 7.66 6.49 13.37 9.84 22.18 1.3 3.42 2.68 5.52 3.53 8.14q.28.84 1.23 1.96a.8.8 0 0 0 .93.21q1.66-.74 2.69-.67a.87.87 0 0 1 .76.54q.98 2.41.22 4.35a.34.34 0 0 0 .33.46q.86-.03 1.63.2z"/></g><g class="C"><ellipse cx="0" cy="0" transform="matrix(-.263873 -.964557 .964557 -.263873 71.94 558.27)" rx="1.96" ry=".79"/><path d="M500.54 566.7q-10.91 17.33-22.55 28.29-18.64 17.54-39.12 32.9-1.81 1.36-3.47 2.81l-3.11 1.16.5-2.32a.78.78 0 0 0-.29-.78q-.87-.68-1.26-2.2 1.71 1.51 2.61 1.08 2.71-1.31 3.29-1.74 13.79-9.94 27.1-20.28 4.6-3.57 8.81-8.01 1.5-1.57 8.96-8.31a1.07.8-10.2 0 0 .14-.15l10.42-12.83a2.94 2.16-42 0 0 .24-.33l3.69-5.58a2.99 2.98-42 0 0 .16-3.01l-1.13-2.19a.34.34 0 0 1 .22-.48h.02a.3.29-19.4 0 1 .36.17q1.21 2.92 4.41 1.8zm-419.49 1.43q-.44.51-2.49-.93-.69-.48-.03-1.25.66-.76 1.24-.15 1.73 1.82 1.28 2.33z"/></g><path d="M143.53 698.49q-4.74-2.77-11.31-8.21c-3.31-2.75-4.65-4.51-6.33-8.42q-4.4-10.22-5.66-12.81-24.52-50.26-48.7-100.75c2.15.7 2.09 3.4 4.03 3.89q1.34.34 1.85.54 8.63 3.49 11.04 3.83 7.79 1.09 12.79 1.67a3.96 3.76-28.1 0 1 1.16.32q1.99.91 4.43.81a1.07 1.07 0 0 1 1.1 1.24c-.32 1.95.67 2.34 1.36 3.82q6.33 13.73 11.35 23.72c1.38 2.75 2.18 5.81 3.81 8.78q3.98 7.28 7.36 15.89a11.84 11.14 20.6 0 0 .76 1.55q2.2 3.68 3.62 7.49a4.4 3.74-75.9 0 0 .37.75q7.34 11.61 11.65 22.01 1.82 4.38 3.13 6.59 2.46 4.13 3.28 6.42c2.29 6.4 6.71 13.6 9.18 19.08q1.14 2.53 1.5 3.72a.72.72 0 0 1-.77.93l-7.38-.84a2.52 2.5 59.3 0 1-.62-.16q-5.17-2.09-7.03-3.33c-3.18-2.11-3.99-6.09-6.21-11.52q-1.63-3.97-4.37-6.98-.29-.32-.66-1.67a3.09 3.07-73.6 0 0-.67-1.24q-.65-.73-.67-1.78a2.54 2.44-61.7 0 0-.32-1.15q-2.88-5.15-6.63-13.09-.55-1.17-1.84-2.65a.37.37 0 0 0-.61.07q-.52.94-.11 1.74 2.84 5.37 5.51 12.31.52 1.36 2.41 3.56a3.64 3.61 20.6 0 1 .81 1.76c.65 4.08 1.48 7.67 4.18 10.86q.65.77 1.08 2.51a1.51 1.49-76.3 0 0 .48.8q2.88 2.49 1.65 7.94zm-36.029-116.25a.84.84 0 0 0-.775-.901l-6.581-.495a.84.84 0 0 0-.901.775l-.004.06a.84.84 0 0 0 .775.901l6.581.495a.84.84 0 0 0 .901-.775l.005-.06zm1.169 5.659q.04-1.49-.65-2.6a1.33 1.32 73.9 0 0-1.12-.62l-6.03.03a.8.79-14.2 0 0-.7 1.17l.02.04a1.61 1.6-9.8 0 0 1.35.94l6.19.4a.63.62 67.4 0 1 .4.17q.29.24.01.34a.07.07 0 0 0 .02.14l.5.01a.02.01 90 0 0 .01-.02z" class="B"/><path d="M378.46 571.98a1.27 1.27 0 0 1-.47 1.73l-4.28 2.44a4.9 2.68-29.7 0 1-5.59.1l-.15-.26a4.9 2.68-29.7 0 1 2.93-4.76l4.29-2.44a1.27 1.27 0 0 1 1.73.48l1.54 2.71z" class="D"/><g class="C"><rect x="-4.14" y="-.87" transform="matrix(.997185 .074979 -.074979 .997185 103.37 581.96)" width="8.28" height="1.74" rx=".84"/><path d="M108.66 587.92l-.5-.01a.07.07 0 0 1-.02-.14q.28-.1-.01-.34a.63.62 67.4 0 0-.4-.17l-6.19-.4a1.61 1.6-9.8 0 1-1.35-.94l-.02-.04a.8.79-14.2 0 1 .7-1.17l6.03-.03a1.33 1.32 73.9 0 1 1.12.62q.69 1.11.65 2.6a.02.01 90 0 1-.01.02z"/></g><path d="M435.4 630.7l-2.13 3.22a1.41 1.41 0 0 1-.77.58l-5.93 1.93 5.72-4.57 3.11-1.16zm-13.91 8.71q-2.11 2.43-5.26 3.34 2.08-2.53 5.26-3.34zm-18.29 9.82q-.36.39-.97.56-.14-.51.97-.56z" class="B"/><circle cx="287.42" cy="652.13" r=".49" class="C"/><path d="M312.15 689.52q-2.59 1.58-5.6 1.86 2.5-1.65 5.6-1.86zM189.25 710h-26.64c-2.65-.47-5.5-.82-8.24-.87 1.83 0 3.77-.31 5.65-.42q.6-.03.77-.2a1.2 1.2 0 0 0-.32-1.96q-1.52-.7-3.17-1.48 2.27.09 4.16 1.08a2.05 2.03-30.1 0 0 .92.24q4.44.1 8.75 1.64a2.1 1.89-31.3 0 0 .63.12q8.88.07 17.49 1.85z" class="B"/></svg>