<?xml version="1.0" encoding="UTF-8" standalone="no"?>
<!-- Created with Inkscape (http://www.inkscape.org/) -->

<svg
   version="1.1"
   id="svg1"
   width="646.73682"
   height="896.8421"
   viewBox="0 0 646.73682 896.8421"
   xmlns="http://www.w3.org/2000/svg"
   xmlns:svg="http://www.w3.org/2000/svg"
   xmlns:rdf="http://www.w3.org/1999/02/22-rdf-syntax-ns#"
   xmlns:cc="http://creativecommons.org/ns#"
   xmlns:dc="http://purl.org/dc/elements/1.1/">
  <title
     id="title1">Meteosat-3 Icon SVG</title>
  <defs
     id="defs1" />
  <g
     id="g1">
    <path
       style="fill:#000000"
       d="m 145.88057,895.49895 c 17.04782,-3.50535 79.38433,3.6632 32.22469,-12.55158 C 155.12097,872.4409 153.10783,848.51627 141.47368,828.63158 112.8293,768.04996 81.878016,708.48693 56.260162,646.47984 40.907741,618.40386 27.272531,587.54301 11.368421,558.31579 -5.0321035,514.47809 5.0485379,591.56615 2.1002605,608.49667 1.7813148,639.56348 0.99005708,670.62242 0.37871359,701.68421 0.28636115,642.31579 0.19400872,582.94737 0.1016563,523.57895 14.344078,507.01069 32.165182,494.94893 51.789472,486.31579 71.964922,483.23603 109.46744,431.72813 73.263155,436.11036 75.554204,428.56428 72.837604,405.28902 54.315787,402.94738 69.951056,388.6398 24.183999,363.52777 47.724318,348.9568 60.979349,343.59711 84.671985,335.11586 66.947369,319.73362 58.353088,306.0744 48.678964,285.75019 41.151635,277.46653 30.054469,261.3926 16.916551,243.88587 10.619976,224.56824 c 18.591177,3.19375 18.530656,31.00536 32.243259,44.15906 1.837077,10.36576 14.649625,17.72873 19.031502,30.5509 4.831218,5.436 21.467795,42.28801 41.684203,24.09023 29.97,-5.00024 17.68749,-33.00877 5.05263,-49.26316 -8.19427,-16.89936 -8.34008,-20.37602 -19.62692,-35.29078 -0.182132,-10.14067 -25.775252,-29.9286 -25.03453,-46.71476 -14.067596,-33.15757 16.881589,18.39861 24.450932,26.2926 6.786222,13.13373 10.579396,17.26931 20.210518,38.02873 1.68026,12.55463 34.23419,27.50368 10.10527,20.40818 7.926,19.76053 24.02475,33.28108 21.47368,1.06554 3.93326,-18.57846 15.40577,-36.36708 -4.68081,-36.63158 -9.85012,-23.13515 -18.54874,-43.66165 -24.37182,-68.21053 C 126.84684,156.86732 86.039444,160.237 85.658061,142.51363 103.05549,119.00124 76.914975,100.33522 69.473684,81.19487 66.49849,65.777921 46.273853,55.282644 51.789475,39.157935 39.837655,21.30439 70.185465,4.4167707 82.357894,5.3053031 101.83219,-5.3177822 171.33301,2.4934185 118.02057,3.9866301 c -9.6528,27.4028169 26.14049,33.7596299 22.18995,61.1405889 7.60947,21.391263 19.72382,39.333431 27.78947,61.188611 14.65783,34.63303 30.84667,68.48517 42.94737,104.21052 16.18392,5.74775 31.56768,15.95427 18.94737,-6.31578 -7.96834,-23.47345 -21.10998,-47.99102 -27.58873,-72.75818 18.2256,11.14275 25.38124,41.26775 32.64136,62.65291 4.56055,20.99903 11.7095,55.41937 40.42105,36 21.48153,-8.61186 60.23403,-13.56333 38.24505,-45.66776 -2.66445,-13.96795 -6.92068,-17.81815 -12.98189,-32.57348 -5.4561,-26.00607 -22.14135,-51.26325 -20.4625,-78.703758 16.0492,6.397165 7.77293,36.901808 17.93618,45.861658 6.3646,18.88633 8.20234,26.69673 14.8106,42.8013 7.76643,23.37381 9.84162,51.36121 40.4064,41.16991 29.0949,2.48547 8.77935,36.56395 30.38911,49.97969 12.66052,17.21981 5.04088,61.18745 35.65704,54.18507 30.23294,-4.39824 68.25816,-30.71036 94.80238,-9.46153 6.74009,19.04446 16.74132,33.49547 20.14499,53.59751 8.13503,27.29079 14.79324,52.45432 26.52631,78.39034 18.26358,20.99185 -2.41513,39.18326 14.53085,52.52453 24.70081,-11.53558 -1.05193,34.92857 15.78494,47.89652 9.87617,24.30876 4.74491,8.61475 6.90066,-5.71506 9.56572,21.99896 29.1918,39.40724 33.52039,63.82032 7.27817,21.92621 12.82524,16.63963 14.07056,-2.06477 1.15076,40.85701 1.3125,81.86142 -0.25245,122.69635 -1.26744,-17.53346 0.17782,-42.76141 -10.877,-12.31579 -21.17535,32.39739 -51.48621,57.14093 -82.13793,80.06408 -12.57621,14.30223 -32.80558,19.19433 -50.90844,29.51487 -39.73702,21.32011 -81.24718,39.54068 -124.42104,53.05263 -18.43065,9.97987 -79.74299,14.14172 -27.61985,14.09087 15.14943,0.89354 59.25738,0.37693 59.09431,2.53685 -87.5299,0.94651 -175.1339,1.52861 -262.64651,-0.2867 z m 96.30363,-1.94632 c -4.65031,-1.43263 -2.32052,2.19983 0,0 z M 80.998844,218.18947 c -4.198233,-3.26937 3.994294,6.88988 0,0 z M 288.96931,117.47257 c -5.69416,-7.41602 2.57779,10.00185 0,0 z M 93.909567,61.20868 c -4.047197,-4.974222 1.38189,6.26286 0,0 z m 8.406223,-3.103417 c -1.52764,-4.618287 -3.115305,4.499725 0,0 z M 90.947365,46.736842 c -3.227298,-4.53152 -3.227298,4.53152 0,0 z M 112.42105,18.947368 c -3.11532,-4.499728 -1.52762,4.618298 0,0 z M 81.763155,18.18421 c -4.650283,-1.432669 -2.320565,2.199819 0,0 z M 644.99997,596.05263 c -2.75778,-36.83857 5.36975,-5.08742 0,0 z M 101.02136,240.54935 c -2.070739,-13.50695 9.09628,10.55674 0,0 z m -4.179259,-25.39146 c -3.964576,-19.09978 15.392389,3.99021 0,0 z M 44.771752,46.62301 c 1.253991,-12.329648 11.417076,-1.20617 0,0 z"
       id="path1" />
  </g>
  <metadata
     id="metadata1">
    <rdf:RDF>
      <cc:Work
         rdf:about="">
        <dc:title>Meteosat-3 Icon SVG</dc:title>
      </cc:Work>
    </rdf:RDF>
  </metadata>
</svg>
