<?xml version="1.0" encoding="UTF-8" standalone="no"?>
<!-- Created with Inkscape (http://www.inkscape.org/) -->

<svg
   version="1.1"
   id="svg1"
   width="327.67999"
   height="214.39999"
   viewBox="0 0 327.67999 214.39999"
   xmlns="http://www.w3.org/2000/svg"
   xmlns:svg="http://www.w3.org/2000/svg"
   xmlns:rdf="http://www.w3.org/1999/02/22-rdf-syntax-ns#"
   xmlns:cc="http://creativecommons.org/ns#"
   xmlns:dc="http://purl.org/dc/elements/1.1/">
  <title
     id="title1">Meteosat-3 Icon SVG</title>
  <defs
     id="defs1" />
  <g
     id="g1">
    <path
       style="fill:currentColor"
       d="m 38.719999,213.92975 c 9.919063,0.41408 -3.407074,-5.58233 -3.869091,-4.86309 -4.103165,-4.13771 -11.730507,-6.46681 -14.306514,-9.18439 -8.799221,-6.93659 -11.6076932,-4.85736 -15.2629785,-8.38418 2.4886655,1.23647 -6.13180743,-3.80935 -4.93278669,-5.67369 7.18222199,-3.27631 11.97416419,-9.59283 18.61177819,-12.24865 5.233728,-4.82677 10.965777,-8.21302 13.874693,-10.57443 3.434831,-2.54395 8.045646,-5.22484 10.426014,-7.58018 5.355368,-3.08804 16.255618,-10.30706 23.753268,-15.9162 7.666035,-7.69852 18.988137,-12.46585 30.038662,-16.6351 6.685556,-4.7304 27.137846,-3.91047 23.982746,-13.40638 -1.59836,-1.27522 -4.34875,-5.66926 -4.03252,-5.32639 -2.95158,-2.97961 -7.40917,-12.092711 -8.93372,-12.035648 -3.76598,-5.333692 -3.90076,-6.297134 -7.85979,-10.49023 -2.773564,-4.091505 -3.969634,-8.532323 -8.129806,-13.031841 0.666479,-4.823569 10.390296,-0.578766 13.150606,-5.607817 6.33575,-5.377475 17.31127,-9.62476 23.32964,-15.980802 5.136,-3.864825 17.69444,-9.063131 16.46091,-12.971794 -1.90033,-4.294811 11.49333,-7.090603 12.64017,-0.498497 3.27843,-4.016009 7.38337,-8.756079 11.43158,-10.374223 7.9837,-1.48486 16.52214,0.02736 20.9272,5.446264 0.27477,5.514927 6.85763,11.652482 11.792,6.387795 5.8386,7.288265 11.79736,-0.598768 15.27445,-2.860855 5.71038,-3.511172 11.85994,-6.044204 17.28797,-12.161628 9.41804,-3.975543 18.7584,-12.2873313 26.94635,-18.870554 10.02017,-2.1192626 22.70358,-0.59365228 33.72169,-0.7951612 6.24319,1.5278925 31.55857,-2.8473383 24.55239,4.9879747 -1.00077,0.096698 -4.31142,2.9497827 -7.27501,5.2800005 -0.71176,0.971347 -4.80879,3.119965 -4.48471,3.565351 -3.21019,2.478925 -6.00058,3.661837 -7.43276,6.323491 -1.39759,-0.506642 -2.59062,1.171552 -8.24285,5.331782 8.9444,-5.646171 0.72962,-1.05729 -2.76145,2.947178 -1.88373,-0.618041 -5.354,4.841467 -5.40821,3.363462 -2.214,2.36297 -3.2815,2.281312 -4.63048,3.768569 -0.2434,-0.304856 -4.37607,4.797454 -4.57575,2.621271 -2.33949,3.468224 -12.7204,7.658391 -2.78425,3.334495 -11.24318,7.208949 -25.1586,9.46022 -37.88226,14.251633 -13.05908,4.468165 6.22472,11.669229 7.2102,13.770025 6.34182,2.564851 11.57103,8.686557 15.33936,8.271941 10.53066,2.180718 7.02276,7.782979 1.98418,10.830576 2.34399,2.154687 -0.8208,5.72532 -0.91195,11.725782 5.38442,6.03126 23.104,-0.770981 32.9455,-0.14387 5.44409,0.0358 -20.78196,-3.562603 -4.41621,-3.65951 5.28882,-3.141627 9.79465,3.18834 12.54341,9.12935 8.80914,11.89346 3.03553,25.39751 -8.79358,31.52715 7.60777,-5.51437 -7.65688,6.10115 -6.4987,5.20876 -3.90537,-0.70964 -11.0803,-4.0002 -13.26208,-6.40296 -4.4101,-1.80646 -5.02472,-2.29615 -10.12948,-5.64396 -8.45541,-1.06977 8.28104,12.17681 0.67156,15.87949 -5.93143,4.96925 -10.68454,10.0596 -17.12853,14.70056 -3.45297,4.62846 -10.22235,8.64132 -5.14993,5.39395 -3.35704,3.56003 -9.84048,8.99812 -11.78052,3.15361 -2.69089,-3.4294 -3.70204,-5.61861 -5.32577,-8.19281 -1.56043,-3.22501 -2.50385,-2.06288 -4.01912,-7.12706 1.25858,-6.0568 15.15692,-14.43653 21.41321,-21.0497 5.38719,-3.58057 14.31119,-14.12164 3.26558,-5.155 -8.4887,8.62979 -21.86874,14.65758 -26.52086,25.69272 -7.82504,-3.76181 3.2156,-14.5951 1.93767,-21.80813 -7.68402,-6.01824 -12.28727,0.94143 -15.40866,1.44413 -2.92671,3.83056 -4.18366,5.48217 -5.42555,4.68027 3.17753,7.14065 -5.82938,3.76384 -7.54374,1.50905 -4.23544,-1.27166 -4.14974,-7.61937 -12.8469,-5.08216 -10.78022,-0.50964 -26.17099,-12.2311 -34.38351,-6.29735 0.11258,10.71791 -9.10042,20.58442 -14.20327,23.25358 -1.12954,0.61279 -6.81361,5.69699 -11.16751,6.40874 -4.04638,5.11272 -10.29418,3.60333 -10.99413,6.19828 0.33833,3.99526 -7.450207,5.41439 -11.505092,11.99222 -4.756484,6.03739 -5.750047,5.66396 -10.813368,9.28475 -4.659774,4.25218 -2.502729,2.50588 -5.858789,4.90133 0.05415,1.05441 -4.469366,1.86074 -2.720303,2.66995 -2.912277,1.75358 -4.434393,2.1916 -5.419174,4.18612 -3.153153,1.46081 -3.700497,1.63845 -6.238854,4.8917 -1.306232,-0.94298 -3.443987,2.19869 -5.127863,3.39119 -1.355605,0.19626 -3.563402,2.68458 -4.394911,3.04004 -1.022848,1.45948 -4.346584,2.92102 -5.759987,4.46897 4.155679,0.79145 -14.760416,1.62857 -8.95951,0.82074 z m -0.96,-5.32099 c -6.822138,-4.47789 1.452972,2.57024 0,0 z m 9.6,-3.10885 c -4.076448,-2.56095 -3.980309,1.65226 0,0 z m -16,-0.30155 c -2.072095,-2.96444 -2.254075,-0.50112 0,0 z m 16.986316,-2.27579 c -4.15892,-2.80303 0.561943,2.83751 0,0 z m -24.346316,-2.60258 c -3.389618,-2.33818 0.717474,2.20571 0,0 z M 12.8,193.59999 c -4.7160668,-3.61662 2.279625,3.3826 0,0 z m 0.437193,-10.04 c -1.127584,-1.21392 0.403612,3.69302 0,0 z M 101.99144,164.16 c -3.105028,-3.33511 -0.0155,3.16178 0,0 z m 140.65019,-1.44 c 1.97705,-2.88124 -3.57203,3.40678 0,0 z M 100.16,162.56 c 0.0279,-2.15206 -1.964798,2.13205 0,0 z m 2.02386,-2.08 c -1.11025,-0.20694 0.67192,4.27641 0,0 z m 5.51105,-0.54055 c -5.17544,-4.9454 -2.00361,2.58322 0.76201,0.44752 z M 248.40163,157.6 c 2.14085,-3.05555 -3.89418,3.77092 0,0 z m 5.35836,-4.64 c 3.2741,-4.57747 -4.77606,4.65442 0,0 z m 5.76,-5.12 c 3.2741,-4.57747 -4.77606,4.65442 0,0 z m -130.14137,-2.16388 c 8.64489,0.27342 -6.37678,-5.01296 4.5449,-6.42002 4.12095,-5.28816 7.53618,-18.73008 0.96055,-13.85451 -5.40321,-0.15104 -6.14321,-7.67825 -8.92146,-5.86026 1.12166,-8.1434 -9.18549,0.42379 -14.13954,0.2757 -7.07966,3.14081 -17.50828,4.11599 -20.547318,9.74973 -1.724631,5.81994 -3.35189,-7.65086 -7.844938,2.75194 5.685603,-0.49484 9.521477,4.27982 17.612926,6.14293 10.45238,3.1099 15.23304,7.0878 26.28042,7.75074 l 2.05441,-0.53628 z M 117.44,133.76 c -0.0279,-2.15206 1.96479,2.13204 0,0 z m 13.12,-6.96164 c 2.01827,-4.42916 3.15709,1.49252 0,0 z m 4.48,-0.0784 c -2.18518,-2.22946 5.16425,2.38568 0,0 z m -6.74632,-5.16258 c -0.78185,-3.20991 2.08307,2.43742 0,0 z m 9.95031,13.48258 c 7.617,-21.83154 -6.09741,13.29821 0,0 z m 48.63601,2.95836 c -2.0721,-2.96445 -2.25409,-0.5011 0,0 z M 298.55999,129.92 c 9.78621,-10.89144 -10.95666,10.53192 0,0 z M 257.55688,97.704439 c -0.86642,-4.997597 -8.31187,12.848821 -0.80333,1.874948 z m -2.19886,2.295558 c 5.75015,-7.092434 -3.30053,5.492333 0,0 z m -36.14109,-3.236398 c -2.7313,0.460825 -0.65112,1.725087 0,0 z M 222.24,96.216138 c -3.98259,-0.634879 -0.0496,1.107338 0,0 z m -11.21334,-1.242807 c -2.73453,-0.729981 -0.69949,1.181046 0,0 z m 2.4088,-0.886003 c -0.47725,-1.496978 -2.70855,2.346797 0,0 z m -3.52526,-3.047331 c -1.0458,-4.098735 -1.31255,5.244498 0,0 z m 9.6098,0.805725 c -1.48271,-3.591682 -5.59381,2.85462 0,5e-6 z m -16.09168,-0.255525 c 1.68461,-3.17957 -4.41509,2.079354 0,0 z m 11.31776,-0.577446 c -3.70895,-2.197104 -2.72509,1.105855 0.22529,0.502152 z m 2.04058,-1.15942 c -2.73453,-0.729981 -0.69949,1.181046 0,0 z M 201.6,88.959997 c -0.5802,-2.207493 -1.75741,2.389109 0,0 z m 8.64,-0.122431 c 4.72657,-1.822439 -15.4678,-0.826204 -2.061,0.06263 l 2.061,-0.06262 z m -3,-0.954761 c 3.69301,-0.403591 -1.21396,1.12758 0,0 z m -5.48,-1.266667 c -3.98259,-0.634879 -0.0496,1.107339 0,0 z m 16.64,-5.12 c -3.98259,-0.634879 -0.0496,1.107339 0,0 z m 25.68419,-0.56938 c 0.0531,-2.693933 -1.89898,3.191202 0,0 z M 214.08,79.999998 c -0.25959,-3.008555 -5.30033,3.370285 0,0 z m 34.9878,-2.068192 c -1.51806,0.465428 1.71913,2.981787 0,0 z M 208.64,78.740084 c -1.95589,-1.415236 -2.89761,2.236179 0,0 z m 37.56768,-3.24638 c 4.28049,-2.724232 -5.519,-1.800036 -0.74142,-0.773706 -1.21153,0.744889 1.85667,3.815985 0.74142,0.773706 z M 114.08,65.496138 c -3.98259,-0.634879 -0.0496,1.107339 0,0 z M 269.11546,37.12733 c -0.47726,-1.496988 -2.70855,2.346806 0,0 z M 10.88,206.07999 c 1.635164,-2.29597 1.635164,2.29597 0,0 z m 7.04,-2.56 c 1.635164,-2.29597 1.635164,2.29597 0,0 z m 198.4,-52.72163 c 2.0721,-2.96444 2.25407,-0.50111 0,0 z m 2.56,-1.43889 c 3.29211,-5.71543 6.37155,-3.80857 0,0 z M 212.58105,146.56 c 0.47986,-3.53818 0.47986,3.53818 0,0 z m 10.78875,-1.03904 c 7.41747,-7.24628 15.38829,-13.97684 23.57946,-20.33687 -7.28194,7.0523 -16.43343,14.57852 -23.57946,20.33687 z m -25.55928,-3.8143 c 0.59131,-2.39536 0.27353,2.78088 0,0 z M 214.4196,140.48 c 1.82873,-5.98593 1.39568,0.78979 0,0 z m 1.95092,-5.81334 c 0.59131,-2.39536 0.27353,2.78088 0,0 z M 172.04,134.6028 c 3.69301,-0.40357 -1.214,1.12748 0,0 z m 35.23836,-3.5628 c 7.13484,-3.65287 -1.71903,2.55049 0,0 z M 156.04,130.1228 c 3.69301,-0.40357 -1.214,1.12748 0,0 z m 142.03075,-27.24685 c -4.51389,-7.659996 5.18617,7.28518 0,0 z m -36.13858,-0.91947 c 5.46531,-0.55127 -0.90879,1.04955 0,0 z m 20.30782,-2.145724 c 0.1459,-1.451842 5.8906,2.098274 0,0 z M 109.44,94.719997 c -4.04083,-6.800222 5.5212,6.883563 0,0 z m 175.53217,1.476486 c 5.46529,-0.551277 -0.90874,1.049577 0,0 z m -3.53218,-0.620345 c 3.98259,-0.634879 0.0496,1.107338 0,0 z M 94.373682,72.917418 c -0.781856,-3.209899 2.083073,2.437441 0,0 z m -2.000351,-2.51742 c 3.483334,-3.004774 0.662032,2.012975 0,0 z M 230.15906,59.815256 c -1.67832,-4.68442 2.3578,2.998192 0,0 z M 207.03188,37.284724 c 10.86006,-2.646384 -4.85958,1.582632 -1.01213,0.103162 l 0.76988,-0.07847 z M 138.12,0.20280701 c 3.52151,-0.34207786 -0.98528,1.06405929 0,0 z"
       id="path1" />
  </g>
  <metadata
     id="metadata1">
    <rdf:RDF>
      <cc:Work
         rdf:about="">
        <dc:title>Meteosat-3 Icon SVG</dc:title>
        <dc:source>https://www.eoportal.org/api/cms/documents/d/eoportal/mtg_auto22-jpeg</dc:source>
      </cc:Work>
    </rdf:RDF>
  </metadata>
</svg>
