<?xml version="1.0" encoding="UTF-8" standalone="no"?>
<!-- Created with Inkscape (http://www.inkscape.org/) -->

<svg
   width="154.46513mm"
   height="97.12635mm"
   viewBox="0 0 154.46513 97.12635"
   version="1.1"
   id="svg1"
   xml:space="preserve"
   sodipodi:docname="cfosat-icon.svg"
   inkscape:version="1.4.2 (ebf0e940, 2025-05-08)"
   xmlns:inkscape="http://www.inkscape.org/namespaces/inkscape"
   xmlns:sodipodi="http://sodipodi.sourceforge.net/DTD/sodipodi-0.dtd"
   xmlns="http://www.w3.org/2000/svg"
   xmlns:svg="http://www.w3.org/2000/svg"
   xmlns:rdf="http://www.w3.org/1999/02/22-rdf-syntax-ns#"
   xmlns:cc="http://creativecommons.org/ns#"
   xmlns:dc="http://purl.org/dc/elements/1.1/"><sodipodi:namedview
     id="namedview1"
     pagecolor="#ffffff"
     bordercolor="#000000"
     borderopacity="0.25"
     inkscape:showpageshadow="2"
     inkscape:pageopacity="0.0"
     inkscape:pagecheckerboard="0"
     inkscape:deskcolor="#d1d1d1"
     inkscape:document-units="mm"
     inkscape:zoom="0.59539908"
     inkscape:cx="482.86941"
     inkscape:cy="174.67276"
     inkscape:window-width="1456"
     inkscape:window-height="875"
     inkscape:window-x="8"
     inkscape:window-y="45"
     inkscape:window-maximized="0"
     inkscape:current-layer="layer1" /><title
     id="title1">SVG Icon CFOSAT</title><defs
     id="defs1" /><g
     id="layer1"
     transform="translate(-22.232095,-83.451241)"><path
       style="display:inline;fill:currentColor"
       d="m 103.89441,180.09325 c -0.49015,-0.26632 -0.96922,-0.68758 -1.0646,-0.93614 -0.19772,-0.51525 1.22884,-3.06124 1.54059,-2.74949 0.11228,0.11228 1.03627,-0.45957 2.0533,-1.27078 1.01703,-0.8112 2.77898,-2.21344 3.91543,-3.11608 1.13644,-0.90263 1.98547,-1.77189 1.88672,-1.93167 -0.0987,-0.15978 -1.17457,0.50254 -2.3907,1.47183 -1.21613,0.96928 -2.3164,1.76467 -2.44503,1.76752 -0.12863,0.003 -0.44018,0.13591 -0.69233,0.2957 -0.30329,0.19218 -0.26476,-0.005 0.11386,-0.58296 0.31477,-0.48041 0.48049,-1.02205 0.36827,-1.20363 -0.11223,-0.18159 -0.0492,-0.42589 0.14014,-0.54288 0.1893,-0.117 0.34419,0.0503 0.34419,0.37171 0,0.32143 0.0876,0.4968 0.19474,0.38969 0.1071,-0.10711 0.0887,-0.90155 -0.0408,-1.76542 -0.12955,-0.86388 -0.31467,-1.49155 -0.41139,-1.39483 -0.0967,0.0967 -0.42126,-0.3109 -0.7212,-0.90581 -0.45882,-0.91004 -0.85669,-1.15677 -2.50753,-1.555 -1.0792,-0.26034 -1.91037,-0.62877 -1.84705,-0.81873 0.0633,-0.18996 0.76321,-0.59877 1.55532,-0.90847 1.43379,-0.56059 1.43711,-0.56589 0.74638,-1.19098 -0.38159,-0.34534 -0.69844,-0.87097 -0.7041,-1.16807 -0.008,-0.41794 -0.0972,-0.38691 -0.39439,0.13716 -0.21125,0.37253 -0.54952,0.7893 -0.7517,0.92615 -0.53162,0.35981 -1.28913,0.31561 -1.05599,-0.0616 0.10905,-0.17645 -0.48196,-1.00104 -1.31336,-1.83244 -1.076068,-1.07607 -2.03622,-1.66414 -3.332225,-2.0409 -2.819374,-0.81961 -4.008067,-1.78828 -5.243001,-4.27252 -1.094295,-2.20134 -1.094295,-2.20134 -1.04277,-0.25546 0.02834,1.07024 -0.01799,2.0154 -0.102942,2.10035 -0.269728,0.26973 -4.949235,-0.82306 -8.334792,-1.94639 -3.69745,-1.22682 -4.068343,-1.57577 -5.291588,-4.97851 -0.515832,-1.4349 -1.000417,-2.24209 -1.391823,-2.3184 -0.521724,-0.10173 -0.576786,0.0759 -0.41987,1.35466 0.09933,0.80946 0.281781,1.87422 0.405448,2.36613 0.123668,0.49191 0.07438,0.98738 -0.10952,1.10104 -0.183904,0.11366 -1.487454,-0.014 -2.896779,-0.28362 -3.350444,-0.64104 -14.155006,-3.8619 -14.649587,-4.36706 -0.211486,-0.21601 -0.647783,-1.60442 -0.969548,-3.08535 -0.826073,-3.80202 -1.057457,-4.22584 -2.147861,-3.93422 -0.874438,0.23386 -0.887053,0.27977 -0.780223,2.8396 0.108586,2.60189 0.108586,2.60189 -1.529963,2.58434 -0.901203,-0.01 -3.01015,-0.39171 -4.68655,-0.84901 -1.6764,-0.45731 -5.1816,-1.37333 -7.789333,-2.03561 -7.033781,-1.78635 -10.404691,-2.89973 -11.20631,-3.70135 -0.552264,-0.55227 -0.804581,-1.44845 -1.102072,-3.91436 -0.212203,-1.75897 -0.844328,-6.91127 -1.404721,-11.44957 -1.100632,-8.9134 -1.180075,-10.06629 -0.713512,-10.35465 0.419919,-0.25952 4.054132,1.68564 5.214588,2.79104 0.661973,0.63057 1.238161,0.87256 1.909832,0.80211 1.414068,-0.14833 6.4556,1.92987 6.784077,2.7965 0.357459,0.9431 2.659321,14.04273 2.935182,16.70378 0.161147,1.55448 0.110238,2.11667 -0.191676,2.11667 -0.271155,0 -0.230107,0.181 0.12058,0.53168 0.292425,0.29243 0.620839,0.94013 0.72981,1.43934 0.330901,1.5159 0.443848,1.75431 0.831082,1.75431 0.215572,0 0.283414,-0.27947 0.161265,-0.66433 -0.115969,-0.36539 -0.279373,-2.07989 -0.36312,-3.81 -0.08375,-1.73012 -0.376562,-3.96521 -0.6507,-4.96687 -0.691188,-2.52552 -1.9682,-11.14772 -1.739377,-11.74403 0.281373,-0.73324 1.474589,-0.58137 4.044295,0.51477 2.938939,1.25364 4.575239,2.5039 5.184057,3.961 0.26441,0.63282 0.949372,3.24164 1.522138,5.79736 1.276523,5.69594 1.722256,6.8481 2.6493,6.8481 0.890175,0 0.896575,-0.73605 0.05042,-5.79813 -0.967625,-5.78874 -1.030028,-6.3657 -0.70989,-6.56356 0.311993,-0.19282 6.270728,2.35125 8.741312,3.73208 0.805127,0.45 2.025072,0.91972 2.710989,1.04382 2.673804,0.48379 5.103426,2.20106 6.093193,4.30669 0.387069,0.82346 1.075359,2.92683 1.529531,4.67415 0.971259,3.73669 1.748238,5.71695 2.243116,5.71695 0.499454,0 0.478758,-0.16561 -0.684142,-5.47479 -0.57205,-2.61167 -0.962051,-4.95186 -0.866669,-5.20043 0.09538,-0.24856 0.601523,-0.50102 1.124757,-0.56102 0.936483,-0.10739 0.928042,-0.12231 -0.540662,-0.95576 -1.491996,-0.84666 -1.491996,-0.84666 -2.586121,-5.24933 -1.200534,-4.83085 -1.624181,-6.08669 -2.166325,-6.42176 -0.483356,-0.29873 -0.454354,0.45967 0.148443,3.88176 0.498596,2.83053 0.664047,5.41867 0.346398,5.41867 -1.186761,0 -14.557895,-6.37909 -16.111773,-7.68659 -0.752753,-0.6334 -1.08406,-1.39945 -1.622426,-3.75134 -0.372082,-1.62547 -0.783205,-3.64121 -0.913607,-4.47941 -0.367226,-2.36047 -1.358213,-4.064 -2.36414,-4.064 -1.034221,0 -1.042485,0.2381 -0.141472,4.07592 0.384072,1.63593 0.650772,3.636 0.592667,4.44459 -0.102192,1.4221 -0.14151,1.46854 -1.202799,1.42061 -1.112849,-0.0503 -14.156436,-5.8762 -15.386929,-6.87259 -0.368563,-0.29844 -0.958345,-1.37765 -1.310626,-2.39824 -0.467076,-1.35316 -0.643506,-1.61094 -0.651568,-0.95199 -0.01549,1.26599 -0.339892,1.97504 -0.903614,1.97504 -0.893572,0 -4.508252,-2.02858 -5.027925,-2.8217 -0.64061,-0.9777 -0.984787,-2.86814 -1.890948,-10.3863 -1.167458,-9.68608 -1.209465,-10.149881 -0.956384,-10.559375 0.164454,-0.266093 1.313553,0.280895 3.564326,1.696673 1.826896,1.149151 3.673631,2.089365 4.103855,2.089365 0.43276,0 0.883596,0.264778 1.009127,0.592667 0.365967,0.955903 1.307319,1.577569 7.152952,4.723785 7.654749,4.119915 8.854435,5.229565 9.369858,8.666645 0.251037,1.67404 1.070594,2.61768 2.136625,2.46011 0.438884,-0.0649 0.574718,-0.47758 0.605788,-1.84057 0.02203,-0.96633 0.133272,-1.85018 0.24721,-1.96412 0.113938,-0.11394 1.467515,0.53125 3.007949,1.43375 1.540435,0.9025 4.857878,2.76134 7.372096,4.13075 5.101683,2.77871 6.251421,3.70602 6.788052,5.47485 0.622812,2.05289 1.426947,3.75413 1.774487,3.75413 0.204293,0 0.242983,-0.77776 0.101082,-2.032 -0.126442,-1.1176 -0.108027,-2.02755 0.04092,-2.02211 0.14895,0.005 1.490017,0.66557 2.98015,1.46696 8.211587,4.41618 9.6651,5.57026 10.936102,8.68315 0.76053,1.86267 0.76053,1.86267 0.626482,0.254 -0.174222,-2.09076 0.118198,-2.08382 4.002586,0.095 2.347519,1.31675 3.322568,1.68509 4.306923,1.62701 0.705902,-0.0417 1.351679,-0.28163 1.450438,-0.53899 0.09791,-0.25515 0.331494,-0.36905 0.519076,-0.25312 0.187583,0.11593 0.341059,0.0494 0.341059,-0.14787 0,-0.19726 0.27432,-0.35865 0.6096,-0.35865 0.33528,0 0.75438,-0.139 0.931333,-0.30888 0.176953,-0.16988 2.302933,-1.30965 4.724397,-2.53283 2.42147,-1.22317 6.53608,-3.40997 9.1436,-4.85954 4.74093,-2.6356 4.74093,-2.6356 5.12332,-4.83317 0.21031,-1.20867 0.40099,-2.0528 0.42373,-1.87585 0.0227,0.17695 0.22423,0.13885 0.44775,-0.0847 0.22352,-0.22352 0.73637,-0.4064 1.13966,-0.4064 0.75057,0 2.55736,1.20587 2.4395,1.62814 -0.22221,0.79614 0.95983,1.77121 2.95005,2.43351 2.20123,0.73253 2.20123,0.73253 8.38548,-2.18709 8.06117,-3.80574 14.16323,-6.89767 14.90491,-7.55237 0.32596,-0.28774 0.59266,-0.69104 0.59266,-0.89622 0,-0.23877 0.94476,-0.37624 2.62467,-0.38193 1.44357,-0.005 6.28234,-0.14153 10.75282,-0.30365 9.43779,-0.34227 8.66413,-0.61458 9.79238,3.44673 0.72503,2.60985 0.72503,2.60985 3.19918,3.52312 2.95631,1.09126 3.84145,1.80175 3.70365,2.97293 -0.12791,1.08714 -1.96749,2.154 -4.79783,2.78248 -2.87215,0.63776 -15.10987,0.6267 -18.41693,-0.0167 -1.86576,-0.36296 -2.65602,-0.38625 -3.2909,-0.097 -1.02334,0.46626 -2.281,2.89433 -4.62423,8.92763 -0.96474,2.48399 -1.86386,4.59255 -1.99803,4.68569 -0.13417,0.0931 -0.19514,0.61369 -0.13548,1.15679 0.0734,0.66795 -0.15994,1.30644 -0.72108,1.97332 -0.96133,1.14246 -1.06378,2.48077 -0.27602,3.60546 0.49352,0.70458 0.73067,0.76678 2.18712,0.57357 1.48442,-0.19691 1.68392,-0.13988 2.18478,0.62452 0.47367,0.72291 0.64521,0.78383 1.21973,0.43311 0.5802,-0.35418 0.80013,-0.26196 1.66436,0.6979 0.5477,0.60831 0.99581,1.33221 0.99581,1.60867 0,0.60969 0.46418,0.64152 1.34386,0.0921 0.92866,-0.57995 1.20232,-0.13048 1.15439,1.89608 -0.0289,1.22158 -0.42014,2.62611 -1.27,4.55903 -1.36788,3.11113 -1.44377,3.62257 -0.73909,4.98084 0.61481,1.18504 0.20538,2.06033 -1.07901,2.3067 -0.51378,0.0986 -2.45815,0.27855 -4.32081,0.4 -3.2789,0.21379 -3.43228,0.26028 -4.81986,1.46095 -1.57271,1.36086 -1.77103,2.16953 -1.27695,5.20686 0.18855,1.1591 0.13607,1.75437 -0.18921,2.14631 -0.40331,0.48597 -0.28591,0.53227 1.12893,0.44526 0.86848,-0.0534 1.68561,0.009 1.81585,0.13969 0.13024,0.13024 0.0971,0.24846 -0.0737,0.26271 -0.17075,0.0143 -0.61525,0.0996 -0.98778,0.18955 -0.37253,0.09 -1.16741,0.21009 -1.76638,0.26686 -1.33359,0.12639 -3.14429,0.84744 -3.14429,1.2521 0,0.16367 0.12601,0.29758 0.28002,0.29758 0.154,0 0.21291,0.4572 0.13089,1.016 -0.186,1.26733 -0.31773,1.26733 -4.98291,0 -4.60601,-1.25126 -4.91066,-1.26176 -4.91066,-0.16933 0,0.97684 -0.18636,1.04735 -0.89505,0.33866 -0.2794,-0.2794 -0.41566,-0.508 -0.3028,-0.508 0.11286,0 -0.2801,-0.47439 -0.87324,-1.05421 -0.98611,-0.96395 -1.22516,-1.04011 -2.79201,-0.88956 -1.71357,0.16466 -1.71357,0.16466 0.30477,-0.77939 1.11008,-0.51922 1.81883,-0.95712 1.57501,-0.97311 -0.24383,-0.016 -0.36856,-0.15004 -0.27718,-0.29789 0.0914,-0.14786 -1.02071,-0.65391 -2.47132,-1.12456 -2.63748,-0.85573 -2.63748,-0.85573 -4.38702,-0.19096 -1.34939,0.51273 -1.70779,0.79631 -1.567,1.2399 0.13409,0.42246 -0.17357,0.73571 -1.15903,1.18009 -1.12884,0.50903 -1.26879,0.67774 -0.88259,1.06395 0.25244,0.25244 0.5182,0.63664 0.59058,0.85378 0.10015,0.30044 0.53232,0.29992 1.80824,-0.002 0.92215,-0.21833 2.06868,-0.36227 2.54784,-0.31986 0.71132,0.063 0.84392,0.21984 0.72252,0.85488 -0.18214,0.95281 -0.0583,0.95851 1.66992,0.0768 0.7557,-0.38553 1.44666,-0.62829 1.53548,-0.53947 0.0888,0.0888 -0.0787,0.6259 -0.3722,1.19353 -0.6055,1.17091 -2.45859,2.68331 -7.81359,6.37708 -2.04893,1.41332 -4.50141,3.158 -5.44995,3.87708 -1.8647,1.4136 -3.06511,1.62201 -4.58522,0.79607 z m 21.71917,-12.52733 c 0,-0.0931 -0.0762,-0.16933 -0.16933,-0.16933 -0.0931,0 -0.16933,0.0762 -0.16933,0.16933 0,0.0931 0.0762,0.16933 0.16933,0.16933 0.0931,0 0.16933,-0.0762 0.16933,-0.16933 z m -0.45155,-1.07245 c -0.12418,-0.12417 -0.22578,-0.0226 -0.22578,0.22578 0,0.24836 0.1016,0.34996 0.22578,0.22578 0.12417,-0.12418 0.12417,-0.32738 0,-0.45156 z m -0.22578,-0.62088 c 0,-0.0931 -0.0762,-0.16934 -0.16933,-0.16934 -0.0931,0 -0.16934,0.0762 -0.16934,0.16934 0,0.0931 0.0762,0.16933 0.16934,0.16933 0.0931,0 0.16933,-0.0762 0.16933,-0.16933 z m -10.27289,-1.07245 c -0.12418,-0.12418 -0.32738,-0.12418 -0.45156,0 -0.12417,0.12418 -0.0226,0.22578 0.22578,0.22578 0.24836,0 0.34996,-0.1016 0.22578,-0.22578 z m 23.01295,-1.01428 c -0.28652,-0.5287 -0.52705,-0.85415 -0.5345,-0.72321 -0.0229,0.40256 0.76497,1.97496 0.91462,1.82531 0.0774,-0.0775 -0.0936,-0.5734 -0.38012,-1.1021 z m -31.84239,-0.5056 c 0.15843,-0.25635 0.0919,-0.29843 -0.19328,-0.12219 -0.28519,0.17626 -0.38337,0.11411 -0.28516,-0.18051 0.22132,-0.66397 0.9541,-0.80313 0.9541,-0.1812 0,0.62633 0.45063,0.68139 1.4034,0.17148 0.37484,-0.20061 0.93632,-0.25379 1.24773,-0.11818 1.0455,0.45528 1.41287,0.4263 1.41287,-0.11149 0,-0.29396 0.0964,-0.43804 0.2143,-0.32018 0.11786,0.11786 0.50992,-0.16154 0.87124,-0.62089 0.36133,-0.45935 0.85584,-0.83518 1.09891,-0.83518 0.55438,0 1.33934,-0.90858 0.92245,-1.06773 -0.4701,-0.17948 -0.84453,-1.6416 -0.42039,-1.6416 0.19882,0 0.36149,0.1524 0.36149,0.33866 0,0.18627 0.31507,0.33867 0.70016,0.33867 0.55564,0 0.65388,-0.14581 0.47595,-0.7064 -0.20071,-0.63238 -0.14914,-0.66623 0.49218,-0.32301 0.87766,0.46971 1.41899,0.19194 1.15003,-0.5901 -0.15699,-0.45645 -0.0831,-0.43587 0.34268,0.0955 0.33442,0.41731 0.54693,0.50715 0.55356,0.23401 0.006,-0.24382 0.16318,-0.34913 0.34944,-0.23401 0.18627,0.11512 0.33867,0.0316 0.33867,-0.18558 0,-0.21719 -0.2286,-0.30717 -0.508,-0.19995 -0.2794,0.10722 -0.508,0.0651 -0.508,-0.0936 0,-0.1587 0.30501,-0.3683 0.6778,-0.46579 0.37279,-0.0975 0.61739,-0.0772 0.54355,0.0452 -0.0738,0.12233 0.0784,0.41892 0.3382,0.6591 0.2831,0.26168 0.47245,0.29302 0.47245,0.0782 0,-0.21104 0.34031,-0.27306 0.82742,-0.15081 0.45508,0.11422 1.02658,0.0833 1.27,-0.0687 0.24342,-0.152 0.62399,-0.30392 0.84571,-0.33762 1.04543,-0.15886 3.10487,-0.98476 4.24681,-1.70311 0.69479,-0.43707 1.48237,-0.79467 1.75017,-0.79467 0.2678,0 1.27074,-0.39371 2.22877,-0.8749 1.66177,-0.83465 1.73162,-0.9242 1.51887,-1.94733 -0.21317,-1.02522 -0.1994,-1.04262 0.31275,-0.39511 0.42888,0.54222 0.40219,0.2798 -0.13381,-1.31554 -0.59203,-1.76214 -2.70669,-4.5576 -2.70669,-3.57808 0,0.19888 -0.1524,0.26741 -0.33867,0.15229 -0.18627,-0.11512 -0.33867,-0.0657 -0.33867,0.10985 0,0.31572 -1.26396,0.852 -1.80317,0.76505 -0.15354,-0.0248 -0.18737,0.10351 -0.0752,0.28505 0.1122,0.18153 -0.0928,0.48889 -0.45551,0.68302 -0.4834,0.25871 -0.70486,0.24064 -0.82941,-0.0677 -0.095,-0.23524 -0.1817,-0.14344 -0.19665,0.20828 -0.0176,0.41491 -0.19959,0.56257 -0.53474,0.43396 -0.2794,-0.10722 -0.51034,-0.009 -0.51319,0.21776 -0.004,0.292 -0.0896,0.27944 -0.29395,-0.0429 -0.2245,-0.35424 -0.51975,-0.22984 -1.32671,0.55899 -0.57087,0.55804 -1.11713,0.93543 -1.21392,0.83865 -0.0968,-0.0968 -0.39867,0.0327 -0.67085,0.28767 -0.90318,0.84619 -2.6985,2.15698 -2.95429,2.15698 -0.13859,0 -0.37898,0.13874 -0.5342,0.3083 -0.16397,0.17912 -0.10485,0.20622 0.14111,0.0647 0.5823,-0.3351 0.53213,0.0746 -0.0847,0.69141 -0.2794,0.2794 -0.508,0.37737 -0.508,0.21771 0,-0.15966 -0.29361,-0.29029 -0.65247,-0.29029 -0.35885,0 -0.61163,0.0817 -0.56172,0.18143 0.0499,0.0998 -0.21633,0.47459 -0.59166,0.83289 -0.5644,0.53881 -0.64479,0.55345 -0.46491,0.0847 0.26426,-0.68864 0.0139,-0.72893 -0.61597,-0.0991 -0.25722,0.25722 -0.36528,0.57008 -0.24013,0.69523 0.12515,0.12515 -0.007,0.13764 -0.29314,0.0277 -0.28643,-0.10991 -0.96168,0.14709 -1.50089,0.57123 -0.53912,0.42407 -1.44317,1.02595 -2.00899,1.33751 -0.56583,0.31156 -0.99068,0.73225 -0.94412,0.93487 0.12884,0.56059 -0.15649,0.44474 -0.91814,-0.37279 -0.69052,-0.74119 -0.69052,-0.74119 -0.69052,0.0362 0,0.51177 -0.15553,0.71775 -0.45513,0.60278 -0.32599,-0.12509 -0.41088,0.0568 -0.29919,0.6411 0.0877,0.45892 -0.006,0.81575 -0.21374,0.81575 -0.22615,0 -0.30371,0.42734 -0.19977,1.10067 0.14614,0.94674 0.1228,0.9941 -0.16689,0.33866 -0.18524,-0.4191 -0.4269,-0.762 -0.53702,-0.762 -0.11013,0 -0.09,0.1783 0.0446,0.39622 0.16465,0.26641 0.0603,0.32537 -0.31868,0.17996 -0.36798,-0.1412 -0.56356,-0.0436 -0.56356,0.28112 0,0.27355 0.2667,0.502 0.59267,0.50767 0.56344,0.01 0.56351,0.0273 0.002,0.35462 -0.4789,0.27897 -0.51104,0.43529 -0.16933,0.82349 0.52022,0.59099 0.81807,0.62099 1.13145,0.11393 z m 0.92722,-0.51212 c 0.12418,-0.12418 0.32738,-0.12418 0.45155,0 0.12418,0.12418 0.0226,0.22578 -0.22577,0.22578 -0.24836,0 -0.34996,-0.1016 -0.22578,-0.22578 z m -0.11289,-1.29822 c 0,-0.0931 0.0762,-0.16933 0.16933,-0.16933 0.0931,0 0.16934,0.0762 0.16934,0.16933 0,0.0931 -0.0762,0.16933 -0.16934,0.16933 -0.0931,0 -0.16933,-0.0762 -0.16933,-0.16933 z m 3.38667,-0.33867 c 0,-0.0931 0.0762,-0.16933 0.16933,-0.16933 0.0931,0 0.16933,0.0762 0.16933,0.16933 0,0.0931 -0.0762,0.16934 -0.16933,0.16934 -0.0931,0 -0.16933,-0.0762 -0.16933,-0.16934 z m 1.016,-0.52799 c 0,-0.19725 0.13513,-0.27513 0.30029,-0.17306 0.16516,0.10208 0.48723,-0.0397 0.71571,-0.31495 0.41701,-0.50246 1.016,-0.39712 1.016,0.17869 0,0.16943 -0.21319,0.22625 -0.47375,0.12626 -0.26056,-0.1 -0.57435,-0.019 -0.69732,0.17996 -0.28819,0.46631 -0.86093,0.46837 -0.86093,0.003 z m -4.74134,-0.14934 c 0,-0.0931 0.0762,-0.16933 0.16934,-0.16933 0.0931,0 0.16933,0.0762 0.16933,0.16933 0,0.0931 -0.0762,0.16933 -0.16933,0.16933 -0.0931,0 -0.16934,-0.0762 -0.16934,-0.16933 z m 1.69334,0 c 0,-0.0931 0.0762,-0.16933 0.16933,-0.16933 0.0931,0 0.16933,0.0762 0.16933,0.16933 0,0.0931 -0.0762,0.16933 -0.16933,0.16933 -0.0931,0 -0.16933,-0.0762 -0.16933,-0.16933 z m 1.016,0 c 0,-0.0931 0.0762,-0.16933 0.16933,-0.16933 0.0931,0 0.16933,0.0762 0.16933,0.16933 0,0.0931 -0.0762,0.16933 -0.16933,0.16933 -0.0931,0 -0.16933,-0.0762 -0.16933,-0.16933 z m 0.67733,-0.33867 c 0,-0.0931 0.0762,-0.16933 0.16933,-0.16933 0.0931,0 0.16934,0.0762 0.16934,0.16933 0,0.0931 -0.0762,0.16934 -0.16934,0.16934 -0.0931,0 -0.16933,-0.0762 -0.16933,-0.16934 z m -2.032,-0.33866 c 0,-0.0931 0.0762,-0.16934 0.16933,-0.16934 0.0931,0 0.16934,0.0762 0.16934,0.16934 0,0.0931 -0.0762,0.16933 -0.16934,0.16933 -0.0931,0 -0.16933,-0.0762 -0.16933,-0.16933 z m 0,-0.84667 c 0,-0.24836 0.1016,-0.34996 0.22578,-0.22578 0.12418,0.12418 0.12418,0.32738 0,0.45156 -0.12418,0.12417 -0.22578,0.0226 -0.22578,-0.22578 z m 1.69333,0.16933 c 0,-0.0931 0.0762,-0.16933 0.16934,-0.16933 0.0931,0 0.16933,0.0762 0.16933,0.16933 0,0.0931 -0.0762,0.16934 -0.16933,0.16934 -0.0931,0 -0.16934,-0.0762 -0.16934,-0.16934 z m 2.70934,0 c 0,-0.0931 0.0762,-0.16933 0.16933,-0.16933 0.0931,0 0.16933,0.0762 0.16933,0.16933 0,0.0931 -0.0762,0.16934 -0.16933,0.16934 -0.0931,0 -0.16933,-0.0762 -0.16933,-0.16934 z m 1.69333,-0.84666 c 0,-0.24836 0.1016,-0.34996 0.22578,-0.22578 0.12417,0.12418 0.12417,0.32738 0,0.45155 -0.12418,0.12418 -0.22578,0.0226 -0.22578,-0.22577 z m -4.3984,-0.34848 c 0.61922,-0.3915 1.01173,-0.41566 1.01173,-0.0623 0,0.14663 -0.34098,0.29228 -0.75773,0.32367 -0.59551,0.0449 -0.64989,-0.0111 -0.254,-0.26141 z m 2.3664,0.17914 c 0,-0.0931 0.0762,-0.16933 0.16933,-0.16933 0.0931,0 0.16934,0.0762 0.16934,0.16933 0,0.0931 -0.0762,0.16934 -0.16934,0.16934 -0.0931,0 -0.16933,-0.0762 -0.16933,-0.16934 z m 1.016,-0.33866 c 0,-0.0931 0.0762,-0.16934 0.16933,-0.16934 0.0931,0 0.16934,0.0762 0.16934,0.16934 0,0.0931 -0.0762,0.16933 -0.16934,0.16933 -0.0931,0 -0.16933,-0.0762 -0.16933,-0.16933 z m 0.67733,-0.33867 c 0,-0.0931 0.0762,-0.16933 0.16934,-0.16933 0.0931,0 0.16933,0.0762 0.16933,0.16933 0,0.0931 -0.0762,0.16933 -0.16933,0.16933 -0.0931,0 -0.16934,-0.0762 -0.16934,-0.16933 z m -1.895,-0.56033 c -0.14972,-0.24225 -0.0929,-0.29906 0.14934,-0.14934 0.21505,0.1329 0.391,0.30885 0.391,0.39099 0,0.28249 -0.29906,0.14875 -0.54034,-0.24165 z m 0.879,-0.117 c 0,-0.0931 0.0762,-0.16934 0.16934,-0.16934 0.0931,0 0.16933,0.0762 0.16933,0.16934 0,0.0931 -0.0762,0.16933 -0.16933,0.16933 -0.0931,0 -0.16934,-0.0762 -0.16934,-0.16933 z m 1.69334,0 c 0,-0.0931 0.0762,-0.16934 0.16933,-0.16934 0.0931,0 0.16933,0.0762 0.16933,0.16934 0,0.0931 -0.0762,0.16933 -0.16933,0.16933 -0.0931,0 -0.16933,-0.0762 -0.16933,-0.16933 z m -0.4886,-0.64965 c 0.36128,-0.26417 0.72889,-0.40828 0.81692,-0.32025 0.18639,0.18639 -0.68693,0.78776 -1.15505,0.79538 -0.1753,0.003 -0.0231,-0.21096 0.33813,-0.47513 z m 2.18193,0.31098 c 0,-0.0931 0.0762,-0.16933 0.16933,-0.16933 0.0931,0 0.16934,0.0762 0.16934,0.16933 0,0.0931 -0.0762,0.16933 -0.16934,0.16933 -0.0931,0 -0.16933,-0.0762 -0.16933,-0.16933 z m 4.74133,-0.16933 c 0,-0.24836 0.1016,-0.34996 0.22578,-0.22578 0.12418,0.12418 0.12418,0.32738 0,0.45155 -0.12418,0.12418 -0.22578,0.0226 -0.22578,-0.22577 z m -3.95111,-0.22578 c 0.12418,-0.12418 0.32738,-0.12418 0.45156,0 0.12417,0.12418 0.0226,0.22578 -0.22578,0.22578 -0.24836,0 -0.34996,-0.1016 -0.22578,-0.22578 z m 4.76544,-0.16522 c -0.14972,-0.24225 -0.0929,-0.29906 0.14935,-0.14934 0.21504,0.1329 0.39099,0.30885 0.39099,0.39099 0,0.28249 -0.29906,0.14875 -0.54034,-0.24165 z m -3.86233,-0.117 c 0,-0.0931 0.0762,-0.16934 0.16934,-0.16934 0.0931,0 0.16933,0.0762 0.16933,0.16934 0,0.0931 -0.0762,0.16933 -0.16933,0.16933 -0.0931,0 -0.16934,-0.0762 -0.16934,-0.16933 z m 4.74134,0 c 0,-0.0931 0.0762,-0.16934 0.16933,-0.16934 0.0931,0 0.16933,0.0762 0.16933,0.16934 0,0.0931 -0.0762,0.16933 -0.16933,0.16933 -0.0931,0 -0.16933,-0.0762 -0.16933,-0.16933 z m -6.66045,-0.39512 c 0.12418,-0.12417 0.32738,-0.12417 0.45156,0 0.12417,0.12418 0.0226,0.22578 -0.22578,0.22578 -0.24836,0 -0.34996,-0.1016 -0.22578,-0.22578 z m 2.93511,0.0565 c 0,-0.0931 0.0762,-0.16933 0.16934,-0.16933 0.0931,0 0.16933,0.0762 0.16933,0.16933 0,0.0931 -0.0762,0.16933 -0.16933,0.16933 -0.0931,0 -0.16934,-0.0762 -0.16934,-0.16933 z m 1.69334,0 c 0,-0.0931 0.0762,-0.16933 0.16933,-0.16933 0.0931,0 0.16933,0.0762 0.16933,0.16933 0,0.0931 -0.0762,0.16933 -0.16933,0.16933 -0.0931,0 -0.16933,-0.0762 -0.16933,-0.16933 z m -3.72534,-0.33867 c 0,-0.0931 0.0762,-0.16933 0.16934,-0.16933 0.0931,0 0.16933,0.0762 0.16933,0.16933 0,0.0931 -0.0762,0.16934 -0.16933,0.16934 -0.0931,0 -0.16934,-0.0762 -0.16934,-0.16934 z m 0.67734,-0.508 c 0,-0.24835 0.1016,-0.34995 0.22577,-0.22578 0.12418,0.12418 0.12418,0.32738 0,0.45156 -0.12417,0.12418 -0.22577,0.0226 -0.22577,-0.22578 z m 4.74133,0.16934 c 0,-0.0931 0.0762,-0.16934 0.16933,-0.16934 0.0931,0 0.16934,0.0762 0.16934,0.16934 0,0.0931 -0.0762,0.16933 -0.16934,0.16933 -0.0931,0 -0.16933,-0.0762 -0.16933,-0.16933 z m -1.016,-0.67734 c 0,-0.0931 0.0762,-0.16933 0.16933,-0.16933 0.0931,0 0.16934,0.0762 0.16934,0.16933 0,0.0931 -0.0762,0.16934 -0.16934,0.16934 -0.0931,0 -0.16933,-0.0762 -0.16933,-0.16934 z m 4.74133,0 c 0,-0.0931 0.0762,-0.16933 0.16934,-0.16933 0.0931,0 0.16933,0.0762 0.16933,0.16933 0,0.0931 -0.0762,0.16934 -0.16933,0.16934 -0.0931,0 -0.16934,-0.0762 -0.16934,-0.16934 z m 0.79022,-0.39511 c 0.12418,-0.12418 0.32738,-0.12418 0.45156,0 0.12418,0.12418 0.0226,0.22578 -0.22578,0.22578 -0.24835,0 -0.34995,-0.1016 -0.22578,-0.22578 z m -3.83822,-0.28222 c 0,-0.0931 0.0762,-0.16933 0.16934,-0.16933 0.0931,0 0.16933,0.0762 0.16933,0.16933 0,0.0931 -0.0762,0.16933 -0.16933,0.16933 -0.0931,0 -0.16934,-0.0762 -0.16934,-0.16933 z m -3.048,-0.33867 c 0,-0.0931 0.0762,-0.16933 0.16934,-0.16933 0.0931,0 0.16933,0.0762 0.16933,0.16933 0,0.0931 -0.0762,0.16934 -0.16933,0.16934 -0.0931,0 -0.16934,-0.0762 -0.16934,-0.16934 z m 1.016,0 c 0,-0.0931 0.0762,-0.16933 0.16934,-0.16933 0.0931,0 0.16933,0.0762 0.16933,0.16933 0,0.0931 -0.0762,0.16934 -0.16933,0.16934 -0.0931,0 -0.16934,-0.0762 -0.16934,-0.16934 z m 4.74134,0 c 0,-0.0931 0.0762,-0.16933 0.16933,-0.16933 0.0931,0 0.16933,0.0762 0.16933,0.16933 0,0.0931 -0.0762,0.16934 -0.16933,0.16934 -0.0931,0 -0.16933,-0.0762 -0.16933,-0.16934 z m -1.016,-0.33867 c 0,-0.0931 0.0762,-0.16933 0.16933,-0.16933 0.0931,0 0.16933,0.0762 0.16933,0.16933 0,0.0931 -0.0762,0.16934 -0.16933,0.16934 -0.0931,0 -0.16933,-0.0762 -0.16933,-0.16934 z m 1.69333,0 c 0,-0.0931 0.0762,-0.16933 0.16933,-0.16933 0.0931,0 0.16934,0.0762 0.16934,0.16933 0,0.0931 -0.0762,0.16934 -0.16934,0.16934 -0.0931,0 -0.16933,-0.0762 -0.16933,-0.16934 z m 3.048,0 c 0,-0.0931 0.0762,-0.16933 0.16933,-0.16933 0.0931,0 0.16933,0.0762 0.16933,0.16933 0,0.0931 -0.0762,0.16934 -0.16933,0.16934 -0.0931,0 -0.16933,-0.0762 -0.16933,-0.16934 z m -9.82133,-0.33866 c 0,-0.0931 0.0762,-0.16934 0.16933,-0.16934 0.0931,0 0.16933,0.0762 0.16933,0.16934 0,0.0931 -0.0762,0.16933 -0.16933,0.16933 -0.0931,0 -0.16933,-0.0762 -0.16933,-0.16933 z m 10.83733,-0.16934 c 0,-0.24835 0.1016,-0.34995 0.22578,-0.22577 0.12417,0.12417 0.12417,0.32737 0,0.45155 -0.12418,0.12418 -0.22578,0.0226 -0.22578,-0.22578 z m 0.81433,-0.39099 c -0.14972,-0.24225 -0.0929,-0.29906 0.14934,-0.14934 0.21505,0.1329 0.39099,0.30885 0.39099,0.39099 0,0.28249 -0.29906,0.14875 -0.54033,-0.24165 z m -6.91033,-0.11701 c 0,-0.0931 0.0762,-0.16933 0.16933,-0.16933 0.0931,0 0.16934,0.0762 0.16934,0.16933 0,0.0931 -0.0762,0.16934 -0.16934,0.16934 -0.0931,0 -0.16933,-0.0762 -0.16933,-0.16934 z m 5.75733,-0.508 c 0,-0.24835 0.1016,-0.34995 0.22578,-0.22577 0.12418,0.12417 0.12418,0.32737 0,0.45155 -0.12418,0.12418 -0.22578,0.0226 -0.22578,-0.22578 z m -4.064,-0.16933 c 0,-0.0931 0.0762,-0.16933 0.16934,-0.16933 0.0931,0 0.16933,0.0762 0.16933,0.16933 0,0.0931 -0.0762,0.16933 -0.16933,0.16933 -0.0931,0 -0.16934,-0.0762 -0.16934,-0.16933 z m 4.74133,-0.16933 c 0,-0.24836 0.1016,-0.34996 0.22578,-0.22578 0.12418,0.12418 0.12418,0.32738 0,0.45156 -0.12418,0.12417 -0.22578,0.0226 -0.22578,-0.22578 z m -2.032,-0.16934 c 0,-0.0931 0.0762,-0.16933 0.16934,-0.16933 0.0931,0 0.16933,0.0762 0.16933,0.16933 0,0.0931 -0.0762,0.16934 -0.16933,0.16934 -0.0931,0 -0.16934,-0.0762 -0.16934,-0.16934 z m 1.016,-0.33866 c 0,-0.0931 0.0762,-0.16934 0.16934,-0.16934 0.0931,0 0.16933,0.0762 0.16933,0.16934 0,0.0931 -0.0762,0.16933 -0.16933,0.16933 -0.0931,0 -0.16934,-0.0762 -0.16934,-0.16933 z m 0.67734,-0.33867 c 0,-0.0931 0.0762,-0.16933 0.16933,-0.16933 0.0931,0 0.16933,0.0762 0.16933,0.16933 0,0.0931 -0.0762,0.16933 -0.16933,0.16933 -0.0931,0 -0.16933,-0.0762 -0.16933,-0.16933 z m -1.016,-0.33867 c 0,-0.0931 0.0762,-0.16933 0.16933,-0.16933 0.0931,0 0.16933,0.0762 0.16933,0.16933 0,0.0931 -0.0762,0.16934 -0.16933,0.16934 -0.0931,0 -0.16933,-0.0762 -0.16933,-0.16934 z m 1.9045,-0.35175 c -0.3268,-0.85165 -0.2304,-1.07139 0.16884,-0.38484 0.19768,0.33993 0.28807,0.68941 0.20087,0.7766 -0.0872,0.0872 -0.25356,-0.0891 -0.36971,-0.39176 z m -3.59783,-1.84958 c 0,-0.24835 0.1016,-0.34995 0.22577,-0.22578 0.12418,0.12418 0.12418,0.32738 0,0.45156 -0.12417,0.12418 -0.22577,0.0226 -0.22577,-0.22578 z m 1.49166,-0.0523 c -0.14972,-0.24224 -0.0929,-0.29906 0.14934,-0.14934 0.21505,0.1329 0.39099,0.30885 0.39099,0.39099 0,0.2825 -0.29906,0.14875 -0.54033,-0.24165 z m -26.045,15.631 c 0.11512,-0.18627 0.0479,-0.33867 -0.14934,-0.33867 -0.19726,0 -0.35866,0.1524 -0.35866,0.33867 0,0.18627 0.0672,0.33867 0.14935,0.33867 0.0821,0 0.24353,-0.1524 0.35865,-0.33867 z m 0.508,-1.18533 c 0,-0.0931 -0.0762,-0.16934 -0.16933,-0.16934 -0.0931,0 -0.16933,0.0762 -0.16933,0.16934 0,0.0931 0.0762,0.16933 0.16933,0.16933 0.0931,0 0.16933,-0.0762 0.16933,-0.16933 z m 27.09333,-3.38667 c 0,-0.0931 -0.0762,-0.16933 -0.16933,-0.16933 -0.0931,0 -0.16933,0.0762 -0.16933,0.16933 0,0.0931 0.0762,0.16933 0.16933,0.16933 0.0931,0 0.16933,-0.0762 0.16933,-0.16933 z m 0.67734,-0.33867 c 0,-0.0931 -0.0762,-0.16933 -0.16934,-0.16933 -0.0931,0 -0.16933,0.0762 -0.16933,0.16933 0,0.0931 0.0762,0.16934 0.16933,0.16934 0.0931,0 0.16934,-0.0762 0.16934,-0.16934 z m 0.254,-1.46672 c 0.25258,-0.31349 0.42333,-0.36471 0.42333,-0.12699 0,0.24952 0.41136,0.14761 1.10067,-0.27267 0.60536,-0.3691 1.37215,-0.67166 1.70396,-0.67235 0.33181,-7e-4 0.69068,-0.22899 0.79749,-0.50732 0.1068,-0.27833 0.36872,-0.41912 0.58204,-0.31287 0.21331,0.10626 0.0433,-0.11085 -0.37773,-0.48245 -0.76557,-0.67565 -0.76557,-0.67565 -3.87075,0.65153 -1.70785,0.72995 -3.19214,1.33056 -3.29843,1.33471 -0.10629,0.004 0.17835,0.29314 0.63253,0.64223 0.88145,0.67749 1.62218,0.59599 2.30689,-0.25382 z m 1.524,0.73443 c -0.23284,-0.0939 -0.61384,-0.0939 -0.84667,0 -0.23283,0.094 -0.0423,0.17082 0.42333,0.17082 0.46567,0 0.65617,-0.0769 0.42334,-0.17082 z m -14.986,-5.36371 c 0,-0.0931 -0.0762,-0.16933 -0.16933,-0.16933 -0.0931,0 -0.16934,0.0762 -0.16934,0.16933 0,0.0931 0.0762,0.16933 0.16934,0.16933 0.0931,0 0.16933,-0.0762 0.16933,-0.16933 z m 15.62069,-0.93698 c -0.33447,-0.33198 -0.37337,-0.29308 -0.18958,0.18959 0.12718,0.334 0.31654,0.52196 0.42082,0.41769 0.10427,-0.10427 2.1e-4,-0.37755 -0.23124,-0.60728 z m -0.38069,-1.60302 c 0,-0.18627 -0.1614,-0.33867 -0.35866,-0.33867 -0.19726,0 -0.26446,0.1524 -0.14934,0.33867 0.11512,0.18627 0.27651,0.33867 0.35865,0.33867 0.0821,0 0.14935,-0.1524 0.14935,-0.33867 z M 132.31053,147.5 c -0.11295,-0.92269 -0.91125,-2.59889 -0.92743,-1.94734 -0.014,0.56429 0.68481,2.87867 0.86921,2.87867 0.0947,0 0.12093,-0.4191 0.0582,-0.93133 z m -4.1005,-2.00378 c -0.12418,-0.12418 -0.32738,-0.12418 -0.45156,0 -0.12418,0.12418 -0.0226,0.22578 0.22578,0.22578 0.24835,0 0.34995,-0.1016 0.22578,-0.22578 z m 3.83822,-0.62089 c 0,-0.0931 -0.0762,-0.16933 -0.16934,-0.16933 -0.0931,0 -0.16933,0.0762 -0.16933,0.16933 0,0.0931 0.0762,0.16933 0.16933,0.16933 0.0931,0 0.16934,-0.0762 0.16934,-0.16933 z m 20.65866,-1.016 c 0,-0.0931 -0.0762,-0.16933 -0.16933,-0.16933 -0.0931,0 -0.16933,0.0762 -0.16933,0.16933 0,0.0931 0.0762,0.16933 0.16933,0.16933 0.0931,0 0.16933,-0.0762 0.16933,-0.16933 z m -22.30997,-0.93698 c -0.33447,-0.33198 -0.37337,-0.29308 -0.18958,0.18959 0.12718,0.334 0.31654,0.52196 0.42082,0.41769 0.10427,-0.10427 2.1e-4,-0.37755 -0.23124,-0.60728 z M 111.72825,177.726 c 0,-0.0931 0.0762,-0.16933 0.16933,-0.16933 0.0931,0 0.16934,0.0762 0.16934,0.16933 0,0.0931 -0.0762,0.16933 -0.16934,0.16933 -0.0931,0 -0.16933,-0.0762 -0.16933,-0.16933 z m 2.032,-1.69333 c 0,-0.0931 0.0762,-0.16934 0.16933,-0.16934 0.0931,0 0.16934,0.0762 0.16934,0.16934 0,0.0931 -0.0762,0.16933 -0.16934,0.16933 -0.0931,0 -0.16933,-0.0762 -0.16933,-0.16933 z m 1.016,-0.67734 c 0,-0.0931 0.0762,-0.16933 0.16933,-0.16933 0.0931,0 0.16934,0.0762 0.16934,0.16933 0,0.0931 -0.0762,0.16934 -0.16934,0.16934 -0.0931,0 -0.16933,-0.0762 -0.16933,-0.16934 z m 4.74133,-8.128 c 0,-0.0931 0.0762,-0.16933 0.16934,-0.16933 0.0931,0 0.16933,0.0762 0.16933,0.16933 0,0.0931 -0.0762,0.16934 -0.16933,0.16934 -0.0931,0 -0.16934,-0.0762 -0.16934,-0.16934 z m 3.38667,-2.032 c 0,-0.0931 0.0762,-0.16933 0.16933,-0.16933 0.0931,0 0.16934,0.0762 0.16934,0.16933 0,0.0931 -0.0762,0.16934 -0.16934,0.16934 -0.0931,0 -0.16933,-0.0762 -0.16933,-0.16934 z m -21.336,-0.67733 c 0,-0.0931 0.0762,-0.16933 0.16933,-0.16933 0.0931,0 0.16934,0.0762 0.16934,0.16933 0,0.0931 -0.0762,0.16933 -0.16934,0.16933 -0.0931,0 -0.16933,-0.0762 -0.16933,-0.16933 z m 1.35467,-0.33867 c 0,-0.2794 0.14761,-0.508 0.32803,-0.508 0.18042,0 0.24032,0.2286 0.1331,0.508 -0.10721,0.2794 -0.25483,0.508 -0.32803,0.508 -0.0732,0 -0.1331,-0.2286 -0.1331,-0.508 z m -2.032,-1.69333 c 0,-0.0931 0.0762,-0.16933 0.16933,-0.16933 0.0931,0 0.16933,0.0762 0.16933,0.16933 0,0.0931 -0.0762,0.16933 -0.16933,0.16933 -0.0931,0 -0.16933,-0.0762 -0.16933,-0.16933 z m 9.25688,-70.837781 c 0.12418,-0.124178 0.32738,-0.124178 0.45156,0 0.12418,0.124177 0.0226,0.225777 -0.22578,0.225777 -0.24835,0 -0.34995,-0.1016 -0.22578,-0.225777 z m 29.94378,-8.126515 c 0.23283,-0.09395 0.61383,-0.09395 0.84667,0 0.23283,0.09395 0.0423,0.170818 -0.42334,0.170818 -0.46566,0 -0.65616,-0.07687 -0.42333,-0.170818 z"
       id="path1" /></g><metadata
     id="metadata1"><rdf:RDF><cc:Work
         rdf:about=""><dc:title>SVG Icon CFOSAT</dc:title><dc:source>https://www.eoportal.org/api/cms/documents/163813/6584772/bpc_cfosat-illustration.jpg/90ca18e5-d058-9e48-ce79-832a3f8b7c34?t=1668332406679</dc:source><dc:description>SVG icon representation of CFOSAT</dc:description></cc:Work></rdf:RDF></metadata></svg>
