<?xml version="1.0" encoding="UTF-8" standalone="no"?>
<!-- Created with Inkscape (http://www.inkscape.org/) -->

<svg
   version="1.1"
   id="svg1"
   width="163.84"
   height="129.28"
   viewBox="0 0 163.84 129.28"
   xmlns="http://www.w3.org/2000/svg"
   xmlns:svg="http://www.w3.org/2000/svg"
   xmlns:rdf="http://www.w3.org/1999/02/22-rdf-syntax-ns#"
   xmlns:cc="http://creativecommons.org/ns#"
   xmlns:dc="http://purl.org/dc/elements/1.1/">
  <title
     id="title1">FY-3C Icon SVG</title>
  <defs
     id="defs1" />
  <g
     id="g1">
    <path
       style="fill:currentColor"
       d="M 116.55951,112.4 C 100.30216,96.036516 84.207754,79.502826 67.670634,63.422697 66.1181,70.884049 66.346912,79.004646 61.644593,85.351083 60.530458,91.18011 60.80196,76.823669 57.037187,82.767651 c -1.792048,5.350045 -0.782886,-4.947664 -4.861467,-0.988708 -1.177207,6.15643 -4.183523,-4.716501 -5.612285,2.143914 -1.464399,1.291432 0.987538,-5.533502 -3.454451,-2.382038 -1.324934,4.529647 -3.387717,-0.135322 -3.098252,-1.310728 -1.506459,1.775986 -3.403563,6.907506 -2.945793,1.089123 3.555454,0.771576 -6.016356,-3.182025 -2.736385,-3.961831 -5.220867,-2.904387 -5.334115,-4.591519 -12.007977,-4.72738 -8.139561,-3.0817 0.974468,-2.055533 2.043284,-4.579951 1.661677,-6.462963 -1.009532,2.574562 -4.534144,-1.40712 C 14.512907,66.46313 6.5480649,65.40555 3.5961395,62.180244 10.562159,62.422517 2.5518823,57.647845 0.14515245,56.631322 0.33870632,52.732215 -0.77374758,50.988185 3.6232916,49.297089 8.1905928,47.550066 6.9256805,42.258778 7.8637508,38.380593 7.5158625,33.272233 9.9777794,29.716742 15.2,30.88 15.729559,24.88314 8.0496765,20.238749 11.826638,14.092128 16.139967,8.3738668 21.378095,18.495255 22.399313,18.89031 23.102566,12.516265 22.790083,6.1511396 22.109,0 27.800761,-0.25313245 33.636669,3.5423789 36.149244,8.5298313 33.120734,12.7918 27.743712,18.871548 27.324459,25.548138 c -3.316432,9.747307 8.055144,5.151775 13.226285,7.561179 6.440389,3.403339 12.93541,9.265518 18.120828,0.811605 C 65.91087,27.829595 73.080959,21.654277 80.374281,15.632618 108.28127,43.398183 136.2891,71.06928 163.84,99.187165 c -9.34473,9.982575 -18.94369,19.785295 -28.54945,29.525845 -6.34359,-1.06048 -10.83711,-9.7383 -16.28449,-13.83751 -0.81588,-0.82481 -1.63135,-1.65002 -2.44655,-2.4755 z M 25.599999,22.56 c 2.502923,-5.065524 6.761727,-10.709444 4.384,-14.8800001 -0.06502,5.9988971 -6.882794,-4.7424604 -5.943771,0.8287886 0.21468,4.7594675 -0.433609,9.7340095 0.578602,14.3219565 l 0.825542,0.13753 z"
       id="path1" />
  </g>
  <metadata
     id="metadata1">
    <rdf:RDF>
      <cc:Work
         rdf:about="">
        <dc:title>FY-3C Icon SVG</dc:title>
        <dc:source>https://img.nsmc.org.cn/PORTAL/NSMC/PIC/GALLERY/FY3C/FY-3C.jpg</dc:source>
      </cc:Work>
    </rdf:RDF>
  </metadata>
</svg>
