<?xml version="1.0" encoding="UTF-8" standalone="no"?>
<svg xmlns="http://www.w3.org/2000/svg" version="1.2" baseProfile="tiny" viewBox="0.00 0.00 512.00 404.00" width="512.00" height="404.00">
<path fill="#769bda" d="
  M 70.90 0.00
  Q 70.68 1.04 69.33 1.33
  L 68.78 0.78
  A 0.37 0.36 -47.6 0 1 68.76 0.30
  L 69.01 0.00
  L 70.90 0.00
  Z"
/>
<path fill="#1e1b1c" d="
  M 77.82 0.00
  Q 78.06 0.86 80.01 1.38
  Q 78.76 1.44 78.21 2.66
  A 2.23 2.15 -70.4 0 0 79.59 5.71
  Q 83.39 6.70 87.34 9.48
  Q 90.55 11.75 92.91 13.15
  Q 95.49 14.68 98.60 16.69
  A 0.66 0.65 45.7 0 1 98.59 17.80
  L 97.53 18.43
  Q 94.49 15.96 91.43 16.97
  A 1.87 1.81 66.1 0 0 90.45 19.63
  Q 91.13 20.85 92.65 21.93
  A 0.27 0.27 0.0 0 1 92.52 22.42
  Q 91.34 22.56 90.56 23.11
  Q 90.10 23.45 90.51 25.39
  Q 90.95 27.52 88.37 28.53
  L 83.04 25.22
  Q 81.32 22.49 78.89 22.23
  Q 77.08 21.18 75.29 19.61
  Q 74.86 19.23 74.55 19.25
  Q 74.14 19.28 73.87 19.73
  L 73.84 16.80
  A 1.17 1.15 -66.4 0 0 73.54 16.02
  L 70.80 12.99
  Q 70.58 10.73 69.71 11.19
  Q 67.09 5.95 69.33 1.33
  Q 70.68 1.04 70.90 0.00
  L 77.82 0.00
  Z
  M 74.4710 14.5878
  A 1.17 0.84 -138.7 0 0 74.7956 15.9911
  A 1.17 0.84 -138.7 0 0 76.2290 16.1322
  A 1.17 0.84 -138.7 0 0 75.9044 14.7289
  A 1.17 0.84 -138.7 0 0 74.4710 14.5878
  Z"
/>
<path fill="#ba9c6e" d="
  M 79.25 0.00
  L 84.06 2.39
  Q 82.13 2.46 80.01 1.38
  Q 78.06 0.86 77.82 0.00
  L 79.25 0.00
  Z"
/>
<path fill="#3e342a" d="
  M 80.01 1.38
  Q 82.13 2.46 84.06 2.39
  L 91.89 6.54
  L 103.56 14.77
  Q 107.08 16.94 109.54 20.60
  Q 108.58 21.54 108.72 22.63
  A 1.06 1.04 -69.6 0 0 108.97 23.19
  Q 111.71 26.32 112.89 29.74
  L 112.10 31.33
  L 107.36 26.04
  A 0.92 0.92 0.0 0 0 105.86 26.21
  Q 104.47 28.80 104.24 31.26
  Q 104.13 32.34 105.00 32.48
  A 0.57 0.55 -41.0 0 1 104.91 33.59
  Q 101.55 33.75 100.27 36.74
  Q 99.22 39.19 98.73 43.32
  L 97.05 47.29
  Q 94.05 49.94 92.34 53.58
  A 0.99 0.98 -4.5 0 1 91.97 54.01
  L 91.17 54.54
  A 0.47 0.47 0.0 0 1 90.46 54.00
  L 92.05 49.30
  A 0.67 0.65 87.1 0 1 92.39 48.91
  Q 94.49 47.88 94.72 45.05
  A 2.31 2.27 64.3 0 1 95.07 44.02
  Q 96.46 41.75 98.13 37.94
  Q 98.87 36.25 101.87 32.86
  C 103.27 31.29 103.71 27.65 105.09 25.63
  Q 105.82 24.56 108.01 20.31
  A 0.83 0.82 -40.9 0 0 108.06 19.65
  Q 107.73 18.68 106.81 18.89
  A 0.51 0.50 53.8 0 1 106.45 18.83
  L 102.79 16.62
  A 0.44 0.44 0.0 0 0 102.17 17.20
  Q 102.98 18.81 105.01 20.44
  A 1.11 1.10 33.3 0 1 105.30 21.81
  L 105.04 22.32
  A 0.92 0.92 0.0 0 1 103.71 22.66
  L 97.53 18.43
  L 98.59 17.80
  A 0.66 0.65 45.7 0 0 98.60 16.69
  Q 95.49 14.68 92.91 13.15
  Q 90.55 11.75 87.34 9.48
  Q 83.39 6.70 79.59 5.71
  A 2.23 2.15 -70.4 0 1 78.21 2.66
  Q 78.76 1.44 80.01 1.38
  Z"
/>
<path fill="#769bda" d="
  M 103.56 14.77
  L 91.89 6.54
  Q 98.31 9.94 103.56 14.77
  Z"
/>
<path fill="#3e342a" d="
  M 70.80 12.99
  Q 70.05 12.41 69.71 11.19
  Q 70.58 10.73 70.80 12.99
  Z"
/>
<path fill="#ba9c6e" d="
  M 73.87 19.73
  L 73.82 20.20
  Q 73.58 22.39 74.18 24.36
  Q 74.31 24.54 74.26 24.94
  Q 73.93 26.26 74.46 26.31
  L 74.61 41.71
  L 74.59 43.03
  A 0.33 0.33 0.0 0 1 74.04 43.27
  Q 73.90 43.14 73.81 43.08
  A 0.56 0.55 21.3 0 0 72.96 43.45
  Q 72.83 44.25 72.75 45.30
  Q 72.68 46.04 73.47 46.13
  Q 74.01 46.20 74.76 45.91
  L 74.67 51.21
  Q 74.52 50.16 74.06 49.78
  A 0.74 0.74 0.0 0 0 72.89 50.58
  Q 73.84 53.43 72.13 55.12
  A 1.05 1.04 -29.9 0 0 71.85 56.14
  Q 72.67 59.21 72.90 66.28
  Q 72.94 67.53 72.45 68.32
  A 0.93 0.92 -43.5 0 0 72.42 69.21
  Q 73.85 72.04 75.43 71.14
  Q 76.63 71.32 77.94 72.02
  Q 79.13 72.65 80.31 71.68
  Q 81.21 70.94 80.77 70.13
  A 0.53 0.53 0.0 0 1 80.99 69.41
  Q 81.80 69.00 82.43 67.69
  Q 85.94 60.31 89.08 53.14
  Q 89.89 51.27 92.76 47.00
  Q 97.07 40.58 98.43 32.70
  Q 99.52 32.59 100.39 31.09
  Q 101.35 29.44 101.37 27.70
  A 2.05 2.04 8.2 0 0 99.86 25.69
  Q 98.59 25.35 97.00 25.36
  Q 94.79 23.23 92.77 23.68
  A 2.07 1.85 81.0 0 0 91.35 25.88
  Q 91.55 27.74 91.66 29.72
  A 0.36 0.36 0.0 0 1 91.12 30.05
  L 88.37 28.53
  Q 90.95 27.52 90.51 25.39
  Q 90.10 23.45 90.56 23.11
  Q 91.34 22.56 92.52 22.42
  A 0.27 0.27 0.0 0 0 92.65 21.93
  Q 91.13 20.85 90.45 19.63
  A 1.87 1.81 66.1 0 1 91.43 16.97
  Q 94.49 15.96 97.53 18.43
  L 103.71 22.66
  A 0.92 0.92 0.0 0 0 105.04 22.32
  L 105.30 21.81
  A 1.11 1.10 33.3 0 0 105.01 20.44
  Q 102.98 18.81 102.17 17.20
  A 0.44 0.44 0.0 0 1 102.79 16.62
  L 106.45 18.83
  A 0.51 0.50 53.8 0 0 106.81 18.89
  Q 107.73 18.68 108.06 19.65
  A 0.83 0.82 -40.9 0 1 108.01 20.31
  Q 105.82 24.56 105.09 25.63
  C 103.71 27.65 103.27 31.29 101.87 32.86
  Q 98.87 36.25 98.13 37.94
  Q 96.46 41.75 95.07 44.02
  A 2.31 2.27 64.3 0 0 94.72 45.05
  Q 94.49 47.88 92.39 48.91
  A 0.67 0.65 87.1 0 0 92.05 49.30
  L 90.46 54.00
  A 0.47 0.47 0.0 0 0 91.17 54.54
  L 91.97 54.01
  A 0.99 0.98 -4.5 0 0 92.34 53.58
  Q 94.05 49.94 97.05 47.29
  Q 95.45 51.35 94.55 53.03
  Q 89.48 62.47 84.63 74.09
  Q 83.63 76.50 84.32 81.46
  A 0.99 0.98 -69.6 0 0 84.55 81.97
  L 85.00 82.50
  A 0.99 0.98 -68.1 0 1 85.22 83.03
  Q 85.51 85.73 85.08 87.10
  Q 84.09 90.23 84.23 90.54
  Q 84.28 90.66 83.69 93.13
  C 83.03 95.88 83.44 98.59 85.95 100.14
  A 2.03 1.95 59.6 0 0 86.98 100.43
  Q 103.08 100.37 106.94 100.59
  Q 108.62 100.69 110.73 101.57
  A 0.91 0.91 0.0 0 1 111.29 102.33
  Q 111.42 103.62 111.57 104.01
  A 0.37 0.37 0.0 0 0 112.29 103.91
  C 112.60 100.91 117.58 100.81 119.69 101.45
  C 120.95 101.84 121.34 102.94 123.29 102.58
  Q 122.40 109.05 121.45 115.44
  Q 121.34 116.21 120.35 117.06
  A 1.02 1.01 69.0 0 0 119.99 117.88
  Q 120.05 118.89 120.45 119.06
  A 0.66 0.63 7.2 0 1 120.84 119.54
  Q 121.10 121.14 120.38 121.70
  A 0.46 0.46 0.0 0 0 120.21 122.01
  L 119.65 126.98
  A 0.33 0.33 0.0 0 1 119.33 127.28
  Q 118.90 127.30 118.86 127.62
  C 118.26 132.56 118.22 135.85 117.08 138.23
  A 2.48 2.45 -31.2 0 0 116.83 139.22
  Q 116.65 143.56 115.61 146.86
  C 115.00 148.78 115.56 150.49 113.93 152.29
  A 1.44 1.44 0.0 0 0 113.72 153.94
  L 113.97 154.41
  A 1.28 1.26 36.2 0 1 114.10 155.21
  L 110.88 175.36
  A 0.87 0.86 -66.1 0 1 109.49 175.90
  Q 107.57 174.36 105.91 173.73
  Q 100.36 171.63 97.12 169.61
  A 0.92 0.90 -40.4 0 0 96.28 169.55
  Q 95.82 169.74 95.61 170.35
  A 0.70 0.61 -42.1 0 1 94.33 170.38
  Q 94.25 169.60 93.84 168.27
  Q 88.11 165.73 82.28 163.05
  Q 81.40 162.65 81.00 162.63
  Q 80.30 162.61 80.00 161.85
  A 1.20 1.15 2.5 0 0 79.40 161.22
  L 75.26 159.34
  A 2.22 2.22 0.0 0 0 73.36 159.38
  Q 72.02 160.06 70.01 159.10
  A 1.13 1.12 -37.1 0 0 69.34 159.01
  Q 68.05 159.25 67.98 162.12
  A 0.38 0.38 0.0 0 0 68.49 162.49
  Q 69.78 162.01 71.42 162.82
  Q 76.57 165.35 82.21 167.41
  L 80.26 178.99
  A 1.87 1.82 62.7 0 1 80.12 179.45
  L 77.28 185.68
  A 0.59 0.58 -60.0 0 0 77.47 186.40
  Q 80.58 188.61 83.94 189.13
  Q 84.97 189.30 90.21 192.58
  A 1.47 1.42 -29.1 0 0 91.00 192.79
  Q 92.87 192.75 95.23 194.28
  Q 99.73 197.18 102.69 198.99
  A 0.71 0.71 0.0 0 0 103.70 198.69
  L 107.27 191.16
  A 3.52 3.29 -29.1 0 0 107.55 190.29
  L 108.61 184.36
  A 1.28 1.13 49.8 0 0 108.62 183.95
  L 108.29 181.33
  A 0.43 0.43 0.0 0 1 108.92 180.90
  Q 111.51 182.31 113.72 182.89
  Q 116.57 183.64 116.07 186.24
  Q 116.33 187.28 117.14 187.45
  A 0.69 0.67 -60.1 0 0 117.74 187.28
  Q 118.46 186.63 118.79 185.64
  Q 119.04 184.88 119.69 184.84
  Q 120.20 184.81 120.96 185.53
  Q 121.61 186.14 122.34 186.54
  C 129.62 190.62 136.62 193.67 143.80 197.36
  Q 145.67 198.31 150.73 200.40
  Q 154.32 201.89 157.44 204.03
  A 1.10 1.08 -74.8 0 1 157.91 204.87
  Q 157.96 205.78 157.22 206.08
  A 0.73 0.71 -13.4 0 0 156.77 206.80
  Q 156.85 208.08 157.48 209.05
  Q 158.75 209.88 160.45 209.16
  A 0.44 0.44 0.0 0 1 161.05 209.52
  Q 161.46 213.58 160.04 217.58
  A 0.22 0.17 64.5 0 0 160.02 217.67
  L 157.48 233.51
  A 0.71 0.69 4.6 0 1 156.77 234.10
  L 117.16 233.23
  A 0.76 0.75 -84.3 0 0 116.40 233.86
  L 115.67 238.47
  A 1.59 1.53 -18.9 0 1 115.23 239.32
  L 114.71 239.84
  A 1.09 1.06 66.3 0 0 114.40 240.67
  L 114.61 243.69
  A 0.83 0.80 53.4 0 1 114.57 244.00
  L 112.67 249.26
  Q 112.05 246.99 110.63 247.48
  Q 112.37 243.68 112.55 241.50
  Q 112.60 240.77 111.49 239.43
  A 1.42 1.42 0.0 0 1 111.31 237.87
  L 112.35 235.85
  A 1.69 1.68 14.8 0 0 110.92 233.40
  L 91.72 232.58
  Q 90.22 230.97 94.61 230.96
  A 0.34 0.34 0.0 0 0 94.67 230.28
  Q 85.83 228.72 75.96 228.63
  Q 79.16 227.64 83.37 227.77
  L 90.74 228.08
  A 0.59 0.59 0.0 0 0 91.06 226.97
  L 80.92 221.22
  A 1.25 1.16 61.2 0 0 80.50 221.08
  Q 79.14 220.91 78.70 220.47
  A 1.26 1.25 36.3 0 1 78.47 219.01
  L 78.83 218.31
  A 0.72 0.72 0.0 0 1 79.92 218.07
  Q 81.30 219.15 84.93 220.85
  A 2.05 1.51 23.2 0 0 87.53 220.24
  Q 87.72 219.69 89.37 220.20
  Q 91.58 220.89 92.92 220.09
  Q 94.24 219.30 95.64 219.33
  Q 102.84 219.49 108.88 221.83
  A 0.47 0.47 0.0 0 0 109.35 221.03
  Q 108.44 220.26 105.70 219.61
  Q 104.20 219.26 104.04 217.19
  A 0.97 0.97 0.0 0 0 103.47 216.37
  Q 102.06 215.73 99.62 213.00
  A 1.16 1.15 -61.6 0 1 99.34 212.04
  L 99.79 209.22
  A 0.71 0.70 -72.3 0 0 99.41 208.48
  L 95.46 206.46
  A 0.44 0.43 -45.7 0 0 95.04 206.47
  Q 93.76 207.21 92.99 207.18
  A 0.29 0.29 0.0 0 1 92.74 206.75
  Q 93.85 204.66 93.79 202.75
  A 1.10 1.10 0.0 0 1 95.84 202.16
  L 97.74 205.44
  A 0.45 0.45 0.0 0 0 98.34 205.61
  L 98.36 205.60
  A 0.51 0.50 65.4 0 0 98.59 204.96
  Q 97.96 203.43 99.20 202.10
  A 0.98 0.97 69.3 0 1 100.88 202.86
  Q 100.81 203.60 101.29 205.12
  A 0.45 0.44 64.6 0 0 101.95 205.36
  Q 101.97 205.35 102.28 205.02
  C 104.31 202.89 106.31 203.92 107.52 206.53
  A 0.26 0.25 -26.6 0 0 107.87 206.64
  L 108.15 206.49
  A 0.55 0.55 0.0 0 0 108.38 205.74
  L 106.77 202.73
  A 0.83 0.81 88.6 0 0 106.38 202.35
  Q 103.17 200.84 101.89 204.03
  A 0.29 0.29 0.0 0 1 101.33 203.95
  L 101.23 202.41
  A 1.04 1.03 12.1 0 0 100.68 201.57
  L 96.28 199.32
  A 0.14 0.13 -78.4 0 0 96.09 199.45
  Q 96.10 199.64 96.08 199.73
  A 0.53 0.52 -81.6 0 1 95.49 200.17
  Q 94.33 200.04 93.49 199.49
  Q 90.19 197.36 86.51 196.78
  A 1.53 1.52 68.5 0 1 85.76 196.45
  L 83.13 194.26
  A 0.01 0.01 0.0 0 0 83.11 194.26
  L 82.48 195.15
  A 0.19 0.18 35.3 0 0 82.53 195.41
  Q 84.19 196.48 83.88 198.86
  A 1.07 1.06 -14.1 0 1 83.44 199.59
  L 81.81 200.83
  A 0.22 0.21 66.6 0 0 81.73 201.05
  A 0.02 0.02 0.0 0 0 81.76 201.06
  Q 82.66 200.82 82.98 200.49
  A 0.51 0.50 -54.0 0 1 83.56 200.39
  L 85.81 201.54
  A 2.47 2.46 11.8 0 1 87.14 203.57
  L 87.18 204.19
  A 0.63 0.62 -77.0 0 1 86.25 204.78
  Q 83.77 203.37 81.07 202.90
  A 0.40 0.37 70.4 0 1 80.86 202.79
  L 80.28 202.30
  A 0.58 0.58 0.0 0 0 79.54 202.27
  Q 79.23 202.52 78.77 202.48
  Q 78.88 201.89 78.79 201.50
  A 0.46 0.46 0.0 0 0 78.12 201.20
  Q 77.39 201.60 77.12 202.14
  Q 76.17 204.06 73.95 209.72
  Q 73.13 211.80 71.52 211.25
  Q 70.22 210.79 68.89 210.78
  Q 66.94 210.77 65.77 210.12
  Q 67.89 209.14 68.17 206.63
  A 0.45 0.45 0.0 0 1 68.87 206.31
  Q 69.05 206.44 69.30 207.11
  A 0.88 0.84 53.8 0 0 70.77 207.37
  C 72.77 204.80 69.50 203.64 67.75 202.58
  A 1.26 1.25 -69.9 0 0 65.86 203.46
  L 65.46 205.92
  A 0.59 0.58 12.0 0 1 64.73 206.39
  L 62.30 205.74
  L 55.77 201.77
  A 1.32 1.30 -22.1 0 0 55.36 201.60
  L 52.08 200.81
  A 1.66 1.64 45.4 0 0 51.34 200.80
  Q 48.21 201.44 46.19 200.05
  Q 41.02 196.49 38.74 194.93
  A 1.44 1.41 -30.4 0 0 37.81 194.70
  L 34.67 195.03
  A 0.44 0.40 48.2 0 1 34.49 195.01
  Q 33.42 194.67 33.62 193.62
  A 0.59 0.59 0.0 0 0 32.81 192.96
  Q 30.09 194.12 26.76 193.33
  A 0.65 0.64 -80.4 0 0 25.98 193.89
  Q 25.92 194.52 26.15 195.46
  A 0.40 0.40 0.0 0 1 25.65 195.94
  Q 22.93 195.19 19.87 195.85
  A 2.69 2.59 46.1 0 1 18.61 195.80
  Q 16.11 195.07 12.69 195.78
  A 0.62 0.62 0.0 0 0 12.57 196.95
  L 18.42 199.50
  A 0.60 0.58 60.0 0 0 18.63 199.56
  Q 20.45 199.84 22.00 200.92
  Q 16.73 199.68 11.05 196.60
  A 1.01 1.01 0.0 0 1 11.52 194.70
  Q 19.64 194.64 21.56 194.18
  A 1.56 1.56 0.0 0 0 21.19 191.11
  Q 20.13 191.11 17.82 190.16
  A 1.09 1.09 0.0 0 1 17.16 189.01
  Q 17.49 186.67 17.09 184.78
  A 1.49 1.48 5.4 0 0 16.20 183.71
  L 8.22 180.36
  Q 9.19 179.31 6.16 178.15
  Q 4.62 177.57 4.15 178.63
  L 0.00 177.01
  L 0.00 164.38
  Q 0.34 163.75 0.40 162.96
  A 0.03 0.03 0.0 0 1 0.45 162.95
  Q 0.54 163.07 0.58 163.18
  C 0.99 164.35 0.47 165.15 1.20 166.34
  A 0.43 0.43 0.0 0 0 1.98 166.24
  Q 2.78 163.68 1.92 161.23
  A 0.42 0.42 0.0 0 0 1.20 161.10
  Q 1.07 161.27 0.97 161.57
  A 0.08 0.08 0.0 0 1 0.82 161.57
  Q 0.79 161.43 0.83 161.26
  Q 1.33 159.06 3.15 158.82
  C 7.69 158.20 12.14 154.25 15.77 151.15
  C 17.41 149.74 19.43 148.94 20.83 147.51
  A 1.86 1.84 74.2 0 0 21.30 146.66
  Q 22.85 140.38 23.74 133.00
  Q 26.26 112.34 27.31 106.26
  Q 28.14 101.49 28.44 100.47
  C 29.21 97.93 30.65 97.21 33.37 97.19
  Q 41.75 97.13 47.40 96.97
  A 0.77 0.77 0.0 0 0 48.15 96.15
  L 47.33 84.20
  A 0.98 0.98 0.0 0 0 46.90 83.45
  Q 44.74 82.03 41.26 75.53
  Q 37.61 68.72 36.07 64.69
  Q 33.48 57.92 34.75 50.58
  Q 35.89 43.95 41.69 40.44
  A 3.35 3.26 22.2 0 1 42.68 40.04
  Q 50.76 38.14 57.01 43.73
  Q 65.66 51.47 68.31 62.05
  Q 69.34 67.50 67.20 69.90
  A 0.85 0.84 55.7 0 0 67.04 70.79
  Q 67.59 72.12 68.97 72.58
  A 0.57 0.57 0.0 0 1 69.30 73.38
  L 68.18 75.56
  A 0.86 0.85 22.9 0 0 68.67 76.76
  L 69.09 76.91
  A 1.30 1.29 23.0 0 0 70.65 76.28
  L 72.29 73.06
  A 0.79 0.79 0.0 0 0 72.20 72.18
  L 70.78 70.50
  A 1.60 1.58 -66.6 0 1 70.42 69.58
  L 70.04 61.84
  Q 70.12 59.90 70.14 57.78
  C 70.17 54.16 71.04 50.12 71.09 47.00
  Q 71.25 36.72 72.10 26.98
  Q 72.45 22.97 72.20 17.68
  A 3.75 3.62 35.8 0 0 72.02 16.68
  L 70.80 12.99
  L 73.54 16.02
  A 1.17 1.15 -66.4 0 1 73.84 16.80
  L 73.87 19.73
  Z
  M 61.2621 64.6810
  A 1.70 1.04 -113.5 0 0 60.9863 66.6547
  A 1.70 1.04 -113.5 0 0 62.6179 67.7990
  A 1.70 1.04 -113.5 0 0 62.8937 65.8253
  A 1.70 1.04 -113.5 0 0 61.2621 64.6810
  Z
  M 58.49 90.98
  L 60.65 90.36
  A 0.80 0.79 86.1 0 0 61.22 89.70
  L 61.32 88.96
  Q 62.58 85.18 56.45 87.19
  Q 55.20 87.60 54.82 85.92
  A 1.10 1.10 0.0 0 1 55.90 84.58
  L 57.27 84.60
  A 0.15 0.14 -82.1 0 0 57.41 84.49
  L 57.42 84.48
  A 0.15 0.15 0.0 0 0 57.27 84.31
  L 53.02 84.18
  A 0.87 0.86 -7.5 0 1 52.22 83.57
  Q 51.69 81.94 50.57 80.73
  A 0.59 0.58 14.9 0 0 49.58 81.30
  Q 49.94 82.45 50.58 83.14
  A 0.86 0.85 -55.4 0 1 50.74 84.05
  Q 50.40 84.91 49.72 85.12
  A 0.40 0.40 0.0 0 0 49.50 85.71
  Q 49.71 86.06 49.59 87.70
  A 0.85 0.84 -73.8 0 0 50.03 88.51
  Q 50.36 88.69 51.17 88.79
  A 1.28 1.26 -16.2 0 1 51.99 89.23
  C 53.31 90.80 56.46 92.53 58.49 90.98
  Z
  M 57.00 95.65
  L 57.00 95.38
  A 0.93 0.92 14.8 0 0 56.50 94.53
  L 50.31 91.36
  A 0.44 0.44 0.0 0 0 49.67 91.74
  L 49.59 95.63
  A 0.83 0.83 0.0 0 0 51.20 95.92
  Q 51.43 95.28 52.02 94.78
  Q 52.41 94.45 53.44 94.95
  Q 55.47 95.93 56.25 96.18
  A 0.57 0.57 0.0 0 0 57.00 95.65
  Z
  M 114.0499 108.4210
  A 1.21 0.69 -0.9 0 0 112.8292 107.7501
  A 1.21 0.69 -0.9 0 0 111.6301 108.4590
  A 1.21 0.69 -0.9 0 0 112.8508 109.1299
  A 1.21 0.69 -0.9 0 0 114.0499 108.4210
  Z
  M 19.69 150.02
  L 11.08 157.05
  A 0.81 0.81 0.0 0 0 11.57 158.48
  Q 19.92 158.76 21.45 150.60
  Q 21.75 148.95 21.54 148.44
  A 0.49 0.49 0.0 0 0 20.65 148.40
  L 19.99 149.66
  A 1.15 1.09 -6.7 0 1 19.69 150.02
  Z
  M 52.83 178.50
  L 51.06 185.79
  A 0.14 0.14 0.0 0 0 51.16 185.96
  L 51.17 185.96
  A 3.60 2.43 -76.3 0 0 54.38 183.04
  L 54.52 182.47
  A 3.60 2.43 -76.3 0 0 53.01 178.40
  L 53.00 178.40
  A 0.14 0.14 0.0 0 0 52.83 178.50
  Z"
/>
<ellipse fill="#ba9c6e" cx="0.00" cy="0.00" transform="translate(75.35,15.36) rotate(-138.7)" rx="1.17" ry="0.84"/>
<path fill="#3e342a" d="
  M 74.18 24.36
  Q 73.58 22.39 73.82 20.20
  Q 74.48 22.19 74.18 24.36
  Z"
/>
<path fill="#769bda" d="
  M 109.54 20.60
  Q 110.22 21.44 110.28 22.80
  A 2.43 2.37 27.2 0 0 110.70 24.05
  C 111.65 25.42 114.14 28.06 112.89 29.74
  Q 111.71 26.32 108.97 23.19
  A 1.06 1.04 -69.6 0 1 108.72 22.63
  Q 108.58 21.54 109.54 20.60
  Z"
/>
<path fill="#ba9c6e" d="
  M 83.04 25.22
  L 78.89 22.23
  Q 81.32 22.49 83.04 25.22
  Z"
/>
<path fill="#3e342a" d="
  M 74.46 26.31
  Q 73.93 26.26 74.26 24.94
  Q 74.46 25.43 74.46 26.31
  Z"
/>
<path fill="#3e342a" d="
  M 98.43 32.70
  Q 95.58 32.34 94.26 31.15
  L 96.02 26.06
  Q 96.78 25.68 97.00 25.36
  Q 98.59 25.35 99.86 25.69
  A 2.05 2.04 8.2 0 1 101.37 27.70
  Q 101.35 29.44 100.39 31.09
  Q 99.52 32.59 98.43 32.70
  Z"
/>
<path fill="#ba9c6e" d="
  M 96.02 26.06
  L 94.26 31.15
  Q 93.28 28.74 93.72 26.47
  A 0.79 0.79 0.0 0 1 94.33 25.85
  Q 95.08 25.71 96.02 26.06
  Z"
/>
<path fill="#ba9c6e" d="
  M 112.10 31.33
  Q 109.45 34.42 104.91 34.57
  A 2.06 2.00 29.9 0 0 104.01 34.80
  Q 101.12 36.30 100.70 38.01
  Q 100.06 40.66 98.73 43.32
  Q 99.22 39.19 100.27 36.74
  Q 101.55 33.75 104.91 33.59
  A 0.57 0.55 -41.0 0 0 105.00 32.48
  Q 104.13 32.34 104.24 31.26
  Q 104.47 28.80 105.86 26.21
  A 0.92 0.92 0.0 0 1 107.36 26.04
  L 112.10 31.33
  Z"
/>
<path fill="#1e1b1c" d="
  M 74.76 45.91
  Q 74.01 46.20 73.47 46.13
  Q 72.68 46.04 72.75 45.30
  Q 72.83 44.25 72.96 43.45
  A 0.56 0.55 21.3 0 1 73.81 43.08
  Q 73.90 43.14 74.04 43.27
  A 0.33 0.33 0.0 0 0 74.59 43.03
  L 74.61 41.71
  L 74.76 45.91
  Z"
/>
<path fill="#769bda" d="
  M 74.67 51.21
  Q 74.92 59.05 74.13 68.19
  Q 74.01 69.57 75.43 71.14
  Q 73.85 72.04 72.42 69.21
  A 0.93 0.92 -43.5 0 1 72.45 68.32
  Q 72.94 67.53 72.90 66.28
  Q 72.67 59.21 71.85 56.14
  A 1.05 1.04 -29.9 0 1 72.13 55.12
  Q 73.84 53.43 72.89 50.58
  A 0.74 0.74 0.0 0 1 74.06 49.78
  Q 74.52 50.16 74.67 51.21
  Z"
/>
<path fill="#3e342a" d="
  M 252.00 51.12
  L 251.92 52.22
  A 0.11 0.11 0.0 0 1 251.73 52.29
  L 251.24 51.72
  A 0.72 0.72 0.0 0 0 250.22 51.65
  L 153.54 135.01
  A 0.89 0.89 0.0 0 0 153.98 136.56
  L 154.40 136.63
  A 0.38 0.38 0.0 0 1 154.71 137.10
  Q 154.61 137.47 154.88 137.62
  Q 154.89 137.63 156.97 139.36
  A 3.86 3.81 -87.1 0 1 157.71 140.19
  Q 159.53 143.00 161.86 144.34
  A 2.52 2.42 85.2 0 1 162.61 145.00
  Q 163.17 145.73 165.98 149.15
  Q 167.34 150.81 167.94 151.05
  Q 169.50 151.66 169.82 153.13
  A 0.76 0.75 88.8 0 0 170.42 153.71
  Q 171.01 153.82 171.79 154.46
  Q 174.91 157.02 177.22 159.61
  A 0.91 0.88 21.7 0 1 177.45 160.12
  Q 177.46 160.18 177.47 160.21
  A 2.22 1.24 27.4 0 0 178.03 161.06
  L 184.26 167.13
  Q 181.40 166.51 178.87 165.13
  Q 173.64 162.31 170.07 160.20
  Q 166.73 158.22 165.69 154.58
  A 0.51 0.51 0.0 0 0 164.70 154.64
  L 164.36 156.81
  A 0.70 0.70 0.0 0 1 163.25 157.26
  Q 152.85 149.51 140.97 146.80
  A 0.35 0.35 0.0 0 0 140.62 147.37
  C 143.81 151.24 141.12 161.06 139.83 165.54
  A 0.41 0.41 0.0 0 1 139.07 165.61
  Q 135.65 158.89 133.40 154.38
  Q 132.42 152.41 130.75 151.35
  A 0.47 0.47 0.0 0 0 130.06 151.94
  Q 132.03 156.30 133.73 159.52
  Q 136.93 165.56 137.64 167.53
  Q 137.78 167.91 137.21 170.55
  A 0.72 0.72 0.0 0 1 136.49 171.12
  L 135.28 171.09
  A 1.47 1.46 22.2 0 0 134.20 171.54
  Q 132.88 172.93 131.05 174.05
  Q 127.79 176.06 122.23 178.89
  C 121.17 179.43 120.40 180.38 118.85 180.29
  A 0.71 0.71 0.0 0 0 118.21 180.63
  Q 116.58 183.29 116.07 186.24
  Q 116.57 183.64 113.72 182.89
  Q 111.51 182.31 108.92 180.90
  A 0.43 0.43 0.0 0 0 108.29 181.33
  L 108.62 183.95
  A 1.28 1.13 49.8 0 1 108.61 184.36
  L 107.55 190.29
  A 3.52 3.29 -29.1 0 1 107.27 191.16
  L 103.70 198.69
  A 0.71 0.71 0.0 0 1 102.69 198.99
  Q 99.73 197.18 95.23 194.28
  Q 92.87 192.75 91.00 192.79
  A 1.47 1.42 -29.1 0 1 90.21 192.58
  Q 84.97 189.30 83.94 189.13
  Q 80.58 188.61 77.47 186.40
  A 0.59 0.58 -60.0 0 1 77.28 185.68
  L 80.12 179.45
  A 1.87 1.82 62.7 0 0 80.26 178.99
  L 82.21 167.41
  L 90.24 169.65
  A 0.62 0.46 53.3 0 1 90.34 169.68
  L 92.79 170.85
  A 0.60 0.60 0.0 0 0 93.65 170.37
  L 93.84 168.27
  Q 94.25 169.60 94.33 170.38
  A 0.70 0.61 -42.1 0 0 95.61 170.35
  Q 95.82 169.74 96.28 169.55
  A 0.92 0.90 -40.4 0 1 97.12 169.61
  Q 100.36 171.63 105.91 173.73
  Q 107.57 174.36 109.49 175.90
  A 0.87 0.86 -66.1 0 0 110.88 175.36
  L 114.10 155.21
  A 1.28 1.26 36.2 0 0 113.97 154.41
  L 113.72 153.94
  A 1.44 1.44 0.0 0 1 113.93 152.29
  C 115.56 150.49 115.00 148.78 115.61 146.86
  Q 116.65 143.56 116.83 139.22
  A 2.48 2.45 -31.2 0 1 117.08 138.23
  C 118.22 135.85 118.26 132.56 118.86 127.62
  Q 118.90 127.30 119.33 127.28
  A 0.33 0.33 0.0 0 0 119.65 126.98
  L 120.21 122.01
  A 0.46 0.46 0.0 0 1 120.38 121.70
  Q 121.10 121.14 120.84 119.54
  A 0.66 0.63 7.2 0 0 120.45 119.06
  Q 120.05 118.89 119.99 117.88
  A 1.02 1.01 69.0 0 1 120.35 117.06
  Q 121.34 116.21 121.45 115.44
  Q 122.40 109.05 123.29 102.58
  Q 124.02 102.62 124.78 102.75
  Q 126.09 102.98 127.00 103.77
  Q 127.60 104.29 127.95 104.75
  Q 131.05 107.11 134.77 108.19
  Q 135.49 107.98 134.89 108.30
  Q 143.41 113.45 152.06 118.02
  Q 152.37 118.19 152.55 117.83
  Q 153.02 117.84 153.16 118.22
  Q 153.88 119.47 155.36 119.33
  Q 155.51 119.38 155.71 119.74
  Q 156.47 120.65 157.52 120.74
  L 162.00 123.46
  A 0.46 0.45 41.4 0 1 162.05 124.20
  L 157.68 127.71
  A 0.03 0.02 58.3 0 0 157.68 127.74
  L 157.81 127.95
  A 0.31 0.31 0.0 0 0 158.23 128.07
  Q 160.54 126.77 162.43 124.62
  Q 162.55 124.49 163.19 124.27
  A 2.18 2.10 -76.1 0 0 164.00 123.76
  Q 166.70 121.08 170.44 118.47
  Q 171.95 117.41 172.15 116.14
  Q 173.25 114.81 174.27 114.79
  Q 176.37 114.16 177.64 111.78
  Q 177.63 111.73 177.61 111.68
  A 0.16 0.14 -31.2 0 1 177.66 111.52
  L 249.67 51.05
  A 1.71 1.69 -69.6 0 1 250.44 50.69
  Q 251.47 50.51 252.00 51.12
  Z
  M 152.96 133.90
  Q 152.96 133.82 152.80 133.16
  Q 152.68 132.69 151.85 132.85
  Q 151.47 132.92 152.01 134.11
  A 0.50 0.50 0.0 0 0 152.96 133.90
  Z
  M 125.60 137.08
  L 127.94 137.77
  A 0.25 0.25 0.0 0 0 128.25 137.61
  L 128.31 137.39
  A 3.53 1.40 -73.5 0 0 127.98 133.61
  L 127.84 133.57
  A 3.53 1.40 -73.5 0 0 125.50 136.56
  L 125.43 136.77
  A 0.25 0.25 0.0 0 0 125.60 137.08
  Z
  M 107.8472 176.5433
  A 1.23 0.65 -135.2 0 0 108.2620 177.8712
  A 1.23 0.65 -135.2 0 0 109.5928 178.2767
  A 1.23 0.65 -135.2 0 0 109.1780 176.9488
  A 1.23 0.65 -135.2 0 0 107.8472 176.5433
  Z"
/>
<path fill="#769bda" d="
  M 304.98 103.20
  Q 305.50 104.78 306.83 104.96
  L 312.01 110.15
  Q 312.11 111.03 312.88 110.89
  L 512.00 309.50
  L 512.00 310.75
  Q 511.67 311.35 510.81 311.58
  A 1.30 1.24 -74.3 0 0 510.22 311.93
  L 420.82 404.00
  L 417.55 404.00
  L 405.19 391.40
  Q 404.17 388.68 401.19 387.26
  Q 399.39 386.13 398.57 384.45
  Q 397.43 381.96 394.76 380.69
  Q 393.97 379.03 392.26 378.15
  Q 391.06 377.82 390.84 376.71
  L 378.19 363.83
  Q 377.85 363.97 377.44 363.56
  Q 365.52 351.61 353.62 339.63
  Q 353.37 339.37 353.69 339.15
  Q 353.37 338.39 351.87 336.88
  Q 343.72 328.67 339.23 324.93
  L 212.47 197.99
  A 1.03 1.03 0.0 0 0 210.71 198.73
  Q 210.74 201.24 209.77 203.90
  A 3.24 3.23 -35.1 0 0 209.56 205.10
  Q 209.59 207.49 208.72 209.66
  A 3.76 3.70 55.2 0 0 208.46 211.18
  Q 208.56 213.47 207.78 215.55
  Q 206.76 212.62 208.47 209.70
  A 1.41 1.38 54.8 0 0 208.63 208.71
  C 208.14 206.20 209.39 204.50 209.40 202.41
  Q 209.41 199.96 211.18 194.89
  A 0.59 0.59 0.0 0 0 211.04 194.28
  L 207.81 191.05
  A 1.35 1.31 21.3 0 1 207.42 190.19
  Q 207.32 188.83 205.64 188.60
  A 0.86 0.85 82.4 0 1 204.98 188.09
  Q 204.16 186.18 200.81 183.90
  A 0.87 0.82 65.1 0 0 200.51 183.78
  Q 199.33 183.57 199.66 182.48
  A 0.43 0.42 -76.8 0 0 199.33 181.93
  Q 198.88 181.85 198.88 181.17
  A 0.70 0.69 -11.5 0 1 199.31 180.53
  Q 201.42 179.65 200.58 178.40
  A 0.73 0.33 24.4 0 0 200.51 178.32
  L 195.20 173.05
  A 0.88 0.87 36.5 0 0 193.82 173.25
  Q 193.31 174.17 192.30 174.59
  Q 191.83 174.64 191.52 174.48
  Q 191.06 174.24 191.29 173.83
  Q 191.73 173.03 192.69 172.47
  A 1.06 1.06 0.0 0 0 192.91 170.80
  L 187.71 165.60
  A 0.90 0.90 0.0 0 0 186.28 165.80
  Q 185.58 167.05 184.26 167.13
  L 178.03 161.06
  A 2.22 1.24 27.4 0 1 177.47 160.21
  Q 177.46 160.18 177.45 160.12
  A 0.91 0.88 21.7 0 0 177.22 159.61
  Q 174.91 157.02 171.79 154.46
  Q 171.01 153.82 170.42 153.71
  A 0.76 0.75 88.8 0 1 169.82 153.13
  Q 169.50 151.66 167.94 151.05
  Q 167.34 150.81 165.98 149.15
  Q 163.17 145.73 162.61 145.00
  A 2.52 2.42 85.2 0 0 161.86 144.34
  Q 159.53 143.00 157.71 140.19
  A 3.86 3.81 -87.1 0 0 156.97 139.36
  Q 154.89 137.63 154.88 137.62
  Q 154.61 137.47 154.71 137.10
  A 0.38 0.38 0.0 0 0 154.40 136.63
  L 153.98 136.56
  A 0.89 0.89 0.0 0 1 153.54 135.01
  L 250.22 51.65
  A 0.72 0.72 0.0 0 1 251.24 51.72
  L 251.73 52.29
  A 0.11 0.11 0.0 0 0 251.92 52.22
  L 252.00 51.12
  L 304.98 103.20
  Z
  M 243.01 181.48
  A 0.28 0.27 -31.4 0 0 242.89 181.95
  Q 243.19 182.20 243.35 182.18
  Q 243.61 182.14 243.63 181.82
  Q 243.63 181.76 243.50 181.37
  A 0.18 0.18 0.0 0 0 243.18 181.34
  Q 243.11 181.45 243.01 181.48
  Z
  M 333.75 225.92
  A 0.84 0.54 -9.9 0 0 332.94 226.66
  Q 332.98 226.78 333.42 226.87
  A 0.47 0.47 0.0 0 0 333.93 226.62
  L 334.14 226.22
  A 0.16 0.16 0.0 0 0 334.04 225.99
  Q 333.80 225.92 333.75 225.92
  Z
  M 445.27 247.96
  Q 444.55 248.05 444.18 249.20
  A 0.25 0.25 0.0 0 0 444.60 249.46
  L 445.54 248.52
  A 0.33 0.33 0.0 0 0 445.27 247.96
  Z
  M 443.73 284.38
  L 443.92 284.26
  A 0.23 0.23 0.0 0 0 443.92 283.88
  Q 443.47 283.57 442.74 284.04
  A 0.13 0.13 0.0 0 0 442.76 284.27
  Q 442.99 284.34 443.07 284.42
  A 0.67 0.66 -48.2 0 0 443.73 284.38
  Z
  M 489.94 324.71
  Q 490.77 324.94 492.62 326.64
  A 0.62 0.62 0.0 0 0 493.55 325.83
  Q 492.07 323.70 489.94 324.36
  A 0.18 0.18 0.0 0 0 489.94 324.71
  Z"
/>
<path fill="#769bda" d="
  M 70.04 61.84
  L 70.42 69.58
  A 1.60 1.58 -66.6 0 0 70.78 70.50
  L 72.20 72.18
  A 0.79 0.79 0.0 0 1 72.29 73.06
  L 70.65 76.28
  A 1.30 1.29 23.0 0 1 69.09 76.91
  L 68.67 76.76
  A 0.86 0.85 22.9 0 1 68.18 75.56
  L 69.30 73.38
  A 0.57 0.57 0.0 0 0 68.97 72.58
  Q 67.59 72.12 67.04 70.79
  A 0.85 0.84 55.7 0 1 67.20 69.90
  Q 69.34 67.50 68.31 62.05
  Q 68.64 62.75 70.04 61.84
  Z"
/>
<ellipse fill="#769bda" cx="0.00" cy="0.00" transform="translate(61.94,66.24) rotate(-113.5)" rx="1.70" ry="1.04"/>
<path fill="#3e342a" d="
  M 61.32 88.96
  Q 61.39 87.97 61.08 87.40
  A 0.64 0.64 0.0 0 0 60.21 87.14
  L 55.68 89.55
  A 0.82 0.82 0.0 0 0 56.11 91.09
  L 58.49 90.98
  C 56.46 92.53 53.31 90.80 51.99 89.23
  A 1.28 1.26 -16.2 0 0 51.17 88.79
  Q 50.36 88.69 50.03 88.51
  A 0.85 0.84 -73.8 0 1 49.59 87.70
  Q 49.71 86.06 49.50 85.71
  A 0.40 0.40 0.0 0 1 49.72 85.12
  Q 50.40 84.91 50.74 84.05
  A 0.86 0.85 -55.4 0 0 50.58 83.14
  Q 49.94 82.45 49.58 81.30
  A 0.59 0.58 14.9 0 1 50.57 80.73
  Q 51.69 81.94 52.22 83.57
  A 0.87 0.86 -7.5 0 0 53.02 84.18
  L 57.27 84.31
  A 0.15 0.15 0.0 0 1 57.42 84.48
  L 57.41 84.49
  A 0.15 0.14 -82.1 0 1 57.27 84.60
  L 55.90 84.58
  A 1.10 1.10 0.0 0 0 54.82 85.92
  Q 55.20 87.60 56.45 87.19
  Q 62.58 85.18 61.32 88.96
  Z"
/>
<path fill="#769bda" d="
  M 61.32 88.96
  L 61.22 89.70
  A 0.80 0.79 86.1 0 1 60.65 90.36
  L 58.49 90.98
  L 56.11 91.09
  A 0.82 0.82 0.0 0 1 55.68 89.55
  L 60.21 87.14
  A 0.64 0.64 0.0 0 1 61.08 87.40
  Q 61.39 87.97 61.32 88.96
  Z"
/>
<path fill="#3e342a" d="
  M 56.25 96.18
  Q 55.47 95.93 53.44 94.95
  Q 52.41 94.45 52.02 94.78
  Q 51.43 95.28 51.20 95.92
  A 0.83 0.83 0.0 0 1 49.59 95.63
  L 49.67 91.74
  A 0.44 0.44 0.0 0 1 50.31 91.36
  L 56.50 94.53
  A 0.93 0.92 14.8 0 1 57.00 95.38
  L 57.00 95.65
  A 0.57 0.57 0.0 0 1 56.25 96.18
  Z"
/>
<path fill="#3e342a" d="
  M 306.83 104.96
  Q 305.50 104.78 304.98 103.20
  Q 306.05 103.88 306.83 104.96
  Z"
/>
<path fill="#ba9c6e" d="
  M 134.77 108.19
  Q 131.05 107.11 127.95 104.75
  Q 131.65 105.88 134.77 108.19
  Z"
/>
<ellipse fill="#3e342a" cx="0.00" cy="0.00" transform="translate(112.84,108.44) rotate(-0.9)" rx="1.21" ry="0.69"/>
<path fill="#ba9c6e" d="
  M 152.55 117.83
  Q 152.37 118.19 152.06 118.02
  Q 143.41 113.45 134.89 108.30
  L 152.55 117.83
  Z"
/>
<path fill="#3e342a" d="
  M 312.88 110.89
  Q 312.11 111.03 312.01 110.15
  L 312.88 110.89
  Z"
/>
<path fill="#ba9c6e" d="
  M 177.64 111.78
  Q 176.37 114.16 174.27 114.79
  Q 175.54 112.79 177.64 111.78
  Z"
/>
<path fill="#ba9c6e" d="
  M 172.15 116.14
  Q 171.95 117.41 170.44 118.47
  Q 166.70 121.08 164.00 123.76
  A 2.18 2.10 -76.1 0 1 163.19 124.27
  Q 162.55 124.49 162.43 124.62
  Q 160.54 126.77 158.23 128.07
  A 0.31 0.31 0.0 0 1 157.81 127.95
  L 157.68 127.74
  A 0.03 0.02 58.3 0 1 157.68 127.71
  L 162.05 124.20
  A 0.46 0.45 41.4 0 0 162.00 123.46
  L 157.52 120.74
  L 162.19 123.11
  A 1.49 1.48 38.6 0 0 163.79 122.94
  L 172.15 116.14
  Z"
/>
<path fill="#ba9c6e" d="
  M 155.36 119.33
  Q 153.88 119.47 153.16 118.22
  L 155.36 119.33
  Z"
/>
<path fill="#ba9c6e" d="
  M 157.52 120.74
  Q 156.47 120.65 155.71 119.74
  Q 157.26 119.93 157.52 120.74
  Z"
/>
<path fill="#ba9c6e" d="
  M 152.96 133.90
  A 0.50 0.50 0.0 0 1 152.01 134.11
  Q 151.47 132.92 151.85 132.85
  Q 152.68 132.69 152.80 133.16
  Q 152.96 133.82 152.96 133.90
  Z"
/>
<path fill="#ba9c6e" d="
  M 125.60 137.08
  A 0.25 0.25 0.0 0 1 125.43 136.77
  L 125.50 136.56
  A 3.53 1.40 -73.5 0 1 127.84 133.57
  L 127.98 133.61
  A 3.53 1.40 -73.5 0 1 128.31 137.39
  L 128.25 137.61
  A 0.25 0.25 0.0 0 1 127.94 137.77
  L 125.60 137.08
  Z"
/>
<path fill="#1e1b1c" d="
  M 184.26 167.13
  Q 185.58 167.05 186.28 165.80
  A 0.90 0.90 0.0 0 1 187.71 165.60
  L 192.91 170.80
  A 1.06 1.06 0.0 0 1 192.69 172.47
  Q 191.73 173.03 191.29 173.83
  Q 191.06 174.24 191.52 174.48
  Q 191.83 174.64 192.30 174.59
  Q 192.35 174.73 192.37 174.86
  A 0.53 0.53 0.0 0 1 191.51 175.35
  L 186.99 171.57
  A 1.70 1.68 13.6 0 1 186.43 170.67
  Q 186.09 169.26 184.98 169.06
  A 0.59 0.58 -84.4 0 0 184.30 169.62
  L 184.17 175.31
  A 0.51 0.51 0.0 0 1 183.30 175.66
  L 182.60 174.96
  A 1.63 1.60 31.2 0 1 182.19 173.35
  Q 182.72 171.61 182.36 170.09
  A 0.84 0.81 9.2 0 0 181.97 169.57
  L 169.31 162.26
  A 1.53 1.44 65.1 0 0 168.91 162.10
  L 163.20 160.72
  A 1.92 1.89 -50.6 0 0 161.96 160.85
  Q 157.55 162.90 147.73 167.20
  Q 146.61 167.68 144.17 167.92
  A 0.77 0.77 0.0 0 0 143.56 169.05
  L 144.19 170.23
  A 0.99 0.99 0.0 0 1 143.31 171.69
  Q 142.49 171.68 141.98 172.04
  Q 141.73 172.21 142.11 172.99
  Q 145.75 180.29 147.71 183.54
  Q 150.80 188.67 151.93 191.17
  C 153.77 195.24 155.24 199.30 157.42 201.04
  A 0.96 0.95 50.3 0 0 158.46 201.14
  L 162.96 198.77
  Q 167.56 196.49 172.11 194.20
  Q 174.47 193.02 177.99 193.67
  Q 179.47 192.30 181.12 193.53
  A 0.95 0.94 -71.9 0 0 182.63 192.76
  Q 182.61 191.15 183.31 189.26
  L 197.56 180.49
  A 0.47 0.47 0.0 0 1 198.28 180.90
  L 198.26 181.41
  A 0.98 0.98 0.0 0 1 197.74 182.26
  L 186.01 188.51
  A 2.41 2.38 -7.6 0 0 184.81 190.06
  L 183.38 195.95
  A 0.89 0.89 0.0 0 0 183.46 196.58
  L 194.87 217.98
  A 0.42 0.41 84.2 0 0 195.11 218.18
  C 197.72 219.05 195.98 225.94 192.32 224.19
  A 1.96 1.94 81.3 0 1 191.74 223.76
  Q 189.26 221.01 187.65 220.09
  Q 179.44 215.39 165.33 208.19
  Q 163.88 207.44 160.95 205.59
  A 0.64 0.64 0.0 0 0 159.98 206.03
  L 159.65 208.10
  A 1.02 1.02 0.0 0 1 159.16 208.81
  Q 158.45 209.22 157.48 209.05
  Q 156.85 208.08 156.77 206.80
  A 0.73 0.71 -13.4 0 1 157.22 206.08
  Q 157.96 205.78 157.91 204.87
  A 1.10 1.08 -74.8 0 0 157.44 204.03
  Q 154.32 201.89 150.73 200.40
  Q 145.67 198.31 143.80 197.36
  C 136.62 193.67 129.62 190.62 122.34 186.54
  Q 121.61 186.14 120.96 185.53
  Q 120.20 184.81 119.69 184.84
  Q 119.04 184.88 118.79 185.64
  Q 118.46 186.63 117.74 187.28
  A 0.69 0.67 -60.1 0 1 117.14 187.45
  Q 116.33 187.28 116.07 186.24
  Q 116.58 183.29 118.21 180.63
  A 0.71 0.71 0.0 0 1 118.85 180.29
  C 120.40 180.38 121.17 179.43 122.23 178.89
  Q 127.79 176.06 131.05 174.05
  Q 132.88 172.93 134.20 171.54
  A 1.47 1.46 22.2 0 1 135.28 171.09
  L 136.49 171.12
  A 0.72 0.72 0.0 0 0 137.21 170.55
  Q 137.78 167.91 137.64 167.53
  Q 136.93 165.56 133.73 159.52
  Q 132.03 156.30 130.06 151.94
  A 0.47 0.47 0.0 0 1 130.75 151.35
  Q 132.42 152.41 133.40 154.38
  Q 135.65 158.89 139.07 165.61
  A 0.41 0.41 0.0 0 0 139.83 165.54
  C 141.12 161.06 143.81 151.24 140.62 147.37
  A 0.35 0.35 0.0 0 1 140.97 146.80
  Q 152.85 149.51 163.25 157.26
  A 0.70 0.70 0.0 0 0 164.36 156.81
  L 164.70 154.64
  A 0.51 0.51 0.0 0 1 165.69 154.58
  Q 166.73 158.22 170.07 160.20
  Q 173.64 162.31 178.87 165.13
  Q 181.40 166.51 184.26 167.13
  Z
  M 141.04 167.53
  Q 138.56 168.76 138.91 170.48
  A 1.37 1.37 0.0 0 0 141.56 170.60
  Q 141.75 169.95 142.00 168.81
  Q 144.83 166.28 148.29 164.80
  Q 153.86 162.43 160.80 158.81
  A 0.49 0.48 44.7 0 0 160.79 157.95
  L 144.87 149.79
  A 0.85 0.84 17.6 0 0 143.65 150.42
  L 141.04 167.53
  Z
  M 138.54 173.89
  A 1.04 1.04 0.0 0 0 137.03 172.83
  L 121.31 181.11
  A 1.04 1.04 0.0 0 0 121.33 182.96
  L 134.96 189.77
  A 1.04 1.04 0.0 0 0 136.45 188.98
  L 138.54 173.89
  Z
  M 137.36 190.65
  A 0.33 0.33 0.0 0 0 137.53 191.00
  L 153.50 199.17
  A 0.33 0.33 0.0 0 0 153.95 198.72
  L 140.66 173.81
  A 0.33 0.33 0.0 0 0 140.04 173.91
  L 137.36 190.65
  Z
  M 192.33 217.06
  C 191.31 215.74 189.76 213.23 188.95 211.32
  Q 185.28 202.68 182.22 196.49
  A 1.48 1.48 0.0 0 0 181.06 195.68
  C 173.77 194.86 168.30 197.98 161.69 201.31
  A 1.11 1.11 0.0 0 0 161.63 203.26
  C 167.64 206.74 173.70 209.26 180.31 213.30
  Q 186.40 217.03 191.54 218.28
  A 0.77 0.77 0.0 0 0 192.33 217.06
  Z"
/>
<path fill="#769bda" d="
  M 19.99 149.66
  L 20.65 148.40
  A 0.49 0.49 0.0 0 1 21.54 148.44
  Q 21.75 148.95 21.45 150.60
  Q 19.92 158.76 11.57 158.48
  A 0.81 0.81 0.0 0 1 11.08 157.05
  L 19.69 150.02
  A 1.15 1.09 -6.7 0 0 19.99 149.66
  Z"
/>
<path fill="#3e342a" d="
  M 142.00 168.81
  Q 142.02 167.39 141.04 167.53
  L 143.65 150.42
  A 0.85 0.84 17.6 0 1 144.87 149.79
  L 160.79 157.95
  A 0.49 0.48 44.7 0 1 160.80 158.81
  Q 153.86 162.43 148.29 164.80
  Q 144.83 166.28 142.00 168.81
  Z"
/>
<path fill="#1e1b1c" d="
  M 93.84 168.27
  L 93.65 170.37
  A 0.60 0.60 0.0 0 1 92.79 170.85
  L 90.34 169.68
  A 0.62 0.46 53.3 0 0 90.24 169.65
  L 82.21 167.41
  Q 76.57 165.35 71.42 162.82
  Q 69.78 162.01 68.49 162.49
  A 0.38 0.38 0.0 0 1 67.98 162.12
  Q 68.05 159.25 69.34 159.01
  A 1.13 1.12 -37.1 0 1 70.01 159.10
  Q 72.02 160.06 73.36 159.38
  A 2.22 2.22 0.0 0 1 75.26 159.34
  L 79.40 161.22
  A 1.20 1.15 2.5 0 1 80.00 161.85
  Q 80.30 162.61 81.00 162.63
  Q 81.40 162.65 82.28 163.05
  Q 88.11 165.73 93.84 168.27
  Z"
/>
<path fill="#3e342a" d="
  M 192.30 174.59
  Q 193.31 174.17 193.82 173.25
  A 0.88 0.87 36.5 0 1 195.20 173.05
  L 200.51 178.32
  A 0.73 0.33 24.4 0 1 200.58 178.40
  Q 201.42 179.65 199.31 180.53
  A 0.70 0.69 -11.5 0 0 198.88 181.17
  Q 198.88 181.85 199.33 181.93
  A 0.43 0.42 -76.8 0 1 199.66 182.48
  Q 199.33 183.57 200.51 183.78
  A 0.87 0.82 65.1 0 1 200.81 183.90
  Q 204.16 186.18 204.98 188.09
  A 0.86 0.85 82.4 0 0 205.64 188.60
  Q 207.32 188.83 207.42 190.19
  A 1.35 1.31 21.3 0 0 207.81 191.05
  L 211.04 194.28
  A 0.59 0.59 0.0 0 1 211.18 194.89
  Q 209.41 199.96 209.40 202.41
  C 209.39 204.50 208.14 206.20 208.63 208.71
  A 1.41 1.38 54.8 0 1 208.47 209.70
  Q 206.76 212.62 207.78 215.55
  Q 207.73 216.06 207.57 216.39
  Q 206.54 217.91 206.41 219.68
  Q 206.12 223.68 205.83 227.72
  L 205.21 230.89
  Q 204.61 231.04 204.50 232.02
  Q 203.91 237.45 202.51 242.75
  Q 202.10 244.31 201.19 250.51
  Q 200.21 254.95 197.83 255.79
  Q 195.09 255.29 194.36 260.39
  L 192.17 264.96
  Q 191.36 265.29 191.72 266.28
  Q 191.06 268.27 191.17 269.83
  A 2.13 2.10 65.4 0 1 190.57 271.47
  L 190.15 271.91
  A 0.67 0.66 62.0 0 1 189.02 271.56
  Q 188.70 269.76 189.18 268.21
  Q 190.70 263.28 191.19 261.24
  Q 192.84 258.84 193.04 255.72
  A 1.06 1.03 23.7 0 0 192.69 254.86
  Q 191.05 253.40 189.22 254.96
  Q 188.65 255.45 189.01 255.52
  Q 188.65 255.42 188.58 255.05
  Q 188.96 254.89 188.73 254.48
  Q 188.41 253.92 187.74 253.93
  Q 183.60 253.95 179.37 253.86
  A 1.20 1.17 27.3 0 0 178.65 254.08
  Q 177.97 254.55 178.30 254.99
  L 178.05 256.96
  Q 178.51 255.21 177.86 254.98
  A 1.65 1.44 -75.3 0 1 176.95 253.15
  Q 178.10 247.64 178.24 247.36
  A 1.28 1.27 -67.8 0 0 177.50 245.59
  L 175.91 245.07
  A 1.36 1.35 -80.0 0 0 174.13 246.32
  L 173.92 254.53
  Q 172.92 253.80 172.04 253.86
  Q 172.77 253.95 172.76 253.72
  Q 172.74 253.18 172.20 253.16
  Q 167.09 252.95 162.50 253.04
  Q 160.73 253.07 161.40 253.99
  Q 161.29 254.01 161.18 254.04
  Q 159.42 256.29 160.30 252.45
  A 1.05 1.04 63.7 0 0 158.33 251.78
  Q 158.22 252.02 157.53 252.68
  A 0.77 0.75 19.2 0 1 157.10 252.88
  Q 153.90 253.20 151.81 252.88
  C 149.63 252.54 148.36 253.44 147.96 255.32
  A 0.60 0.60 0.0 0 1 146.79 255.36
  Q 146.43 254.10 147.30 251.87
  A 1.10 1.10 0.0 0 1 148.00 251.21
  Q 149.11 250.85 149.30 249.71
  A 1.28 0.99 -81.9 0 0 149.31 249.53
  L 149.36 247.33
  A 1.25 1.24 65.6 0 1 149.64 246.57
  C 151.31 244.56 150.06 241.81 151.04 239.44
  A 1.02 1.02 0.0 0 0 150.89 238.41
  Q 149.87 237.14 148.47 237.40
  A 1.21 1.21 0.0 0 0 147.67 237.95
  Q 146.34 240.13 148.27 240.98
  A 0.63 0.63 0.0 0 1 148.60 241.80
  Q 147.87 243.51 148.22 245.94
  A 0.57 0.56 -18.7 0 1 147.93 246.52
  L 144.41 248.39
  A 0.68 0.66 81.8 0 0 144.07 248.86
  Q 143.57 251.41 145.41 252.32
  L 144.25 252.69
  L 134.19 252.59
  A 1.69 1.65 -59.8 0 0 133.33 252.83
  Q 131.86 253.74 132.76 254.52
  Q 134.22 255.00 134.94 255.92
  Q 135.14 256.18 135.13 256.48
  Q 135.11 256.92 134.80 256.93
  Q 131.93 256.99 131.99 259.78
  Q 130.60 261.30 129.04 261.17
  Q 128.59 261.13 128.39 260.81
  Q 128.15 260.46 128.27 260.05
  Q 131.31 258.52 131.89 254.94
  A 0.23 0.22 21.2 0 0 131.79 254.72
  Q 131.74 254.70 131.52 254.54
  A 0.52 0.50 22.9 0 1 131.30 254.03
  L 131.67 251.68
  A 0.64 0.64 0.0 0 0 131.11 250.94
  L 125.53 250.38
  L 123.26 249.50
  A 0.75 0.75 0.0 0 0 122.27 249.97
  L 118.84 260.90
  Q 117.83 260.26 117.42 258.77
  Q 119.76 256.45 118.51 250.63
  Q 120.81 247.03 113.61 250.40
  Q 112.70 249.86 112.67 249.26
  L 114.57 244.00
  A 0.83 0.80 53.4 0 0 114.61 243.69
  L 114.40 240.67
  A 1.09 1.06 66.3 0 1 114.71 239.84
  L 115.23 239.32
  A 1.59 1.53 -18.9 0 0 115.67 238.47
  L 116.40 233.86
  A 0.76 0.75 -84.3 0 1 117.16 233.23
  L 156.77 234.10
  A 0.71 0.69 4.6 0 0 157.48 233.51
  L 160.02 217.67
  A 0.22 0.17 64.5 0 1 160.04 217.58
  Q 161.46 213.58 161.05 209.52
  A 0.44 0.44 0.0 0 0 160.45 209.16
  Q 158.75 209.88 157.48 209.05
  Q 158.45 209.22 159.16 208.81
  A 1.02 1.02 0.0 0 0 159.65 208.10
  L 159.98 206.03
  A 0.64 0.64 0.0 0 1 160.95 205.59
  Q 163.88 207.44 165.33 208.19
  Q 179.44 215.39 187.65 220.09
  Q 189.26 221.01 191.74 223.76
  A 1.96 1.94 81.3 0 0 192.32 224.19
  C 195.98 225.94 197.72 219.05 195.11 218.18
  A 0.42 0.41 84.2 0 1 194.87 217.98
  L 183.46 196.58
  A 0.89 0.89 0.0 0 1 183.38 195.95
  L 184.81 190.06
  A 2.41 2.38 -7.6 0 1 186.01 188.51
  L 197.74 182.26
  A 0.98 0.98 0.0 0 0 198.26 181.41
  L 198.28 180.90
  A 0.47 0.47 0.0 0 0 197.56 180.49
  L 183.31 189.26
  Q 182.96 187.79 181.27 189.46
  A 0.98 0.87 86.4 0 0 181.13 189.64
  L 179.66 191.98
  A 0.70 0.70 0.0 0 1 178.87 192.28
  Q 177.96 192.01 177.35 192.25
  A 0.55 0.55 0.0 0 0 177.27 193.24
  L 177.99 193.67
  Q 174.47 193.02 172.11 194.20
  Q 167.56 196.49 162.96 198.77
  Q 163.56 198.21 163.70 197.32
  Q 164.85 189.96 166.59 180.76
  Q 166.66 180.40 167.14 179.31
  A 0.54 0.45 66.6 0 0 167.20 179.11
  L 168.81 168.59
  A 0.76 0.75 -74.0 0 0 168.37 167.78
  L 168.34 167.77
  A 0.55 0.55 0.0 0 0 167.61 168.19
  Q 166.89 172.00 166.29 174.71
  Q 165.79 176.96 165.16 181.28
  Q 163.94 189.77 162.33 196.97
  Q 161.97 198.61 162.96 198.77
  L 158.46 201.14
  A 0.96 0.95 50.3 0 1 157.42 201.04
  C 155.24 199.30 153.77 195.24 151.93 191.17
  Q 150.80 188.67 147.71 183.54
  Q 145.75 180.29 142.11 172.99
  Q 141.73 172.21 141.98 172.04
  Q 142.49 171.68 143.31 171.69
  A 0.99 0.99 0.0 0 0 144.19 170.23
  L 143.56 169.05
  A 0.77 0.77 0.0 0 1 144.17 167.92
  Q 146.61 167.68 147.73 167.20
  Q 157.55 162.90 161.96 160.85
  A 1.92 1.89 -50.6 0 1 163.20 160.72
  L 168.91 162.10
  A 1.53 1.44 65.1 0 1 169.31 162.26
  L 181.97 169.57
  A 0.84 0.81 9.2 0 1 182.36 170.09
  Q 182.72 171.61 182.19 173.35
  A 1.63 1.60 31.2 0 0 182.60 174.96
  L 183.30 175.66
  A 0.51 0.51 0.0 0 0 184.17 175.31
  L 184.30 169.62
  A 0.59 0.58 -84.4 0 1 184.98 169.06
  Q 186.09 169.26 186.43 170.67
  A 1.70 1.68 13.6 0 0 186.99 171.57
  L 191.51 175.35
  A 0.53 0.53 0.0 0 0 192.37 174.86
  Q 192.35 174.73 192.30 174.59
  Z
  M 131.47 240.59
  L 129.82 248.20
  A 0.38 0.38 0.0 0 0 130.12 248.65
  L 130.42 248.72
  A 1.61 0.79 12.2 0 0 132.16 248.28
  L 133.63 241.48
  A 1.61 0.79 12.2 0 0 132.22 240.37
  L 131.92 240.30
  A 0.38 0.38 0.0 0 0 131.47 240.59
  Z
  M 160.83 250.20
  Q 160.96 249.72 162.34 242.56
  Q 162.58 241.30 161.22 241.16
  A 1.65 1.48 -6.9 0 0 159.44 243.18
  Q 160.15 244.87 159.05 247.17
  A 1.90 1.88 -31.5 0 0 158.86 247.95
  Q 158.83 249.22 160.17 250.41
  A 0.41 0.40 -62.5 0 0 160.83 250.20
  Z
  M 120.80 245.69
  L 121.20 243.19
  A 0.49 0.48 -9.4 0 0 120.49 242.69
  Q 119.28 243.33 117.74 242.62
  A 0.84 0.84 0.0 0 0 116.74 242.85
  Q 116.16 243.56 116.42 244.55
  A 0.73 0.73 0.0 0 0 117.17 245.08
  Q 118.63 244.97 119.94 246.03
  A 0.54 0.53 -66.5 0 0 120.80 245.69
  Z
  M 146.52 244.96
  L 146.41 243.38
  A 0.25 0.25 0.0 0 0 146.15 243.15
  L 145.96 243.16
  A 4.66 1.03 -3.8 0 0 141.37 244.50
  L 141.38 244.52
  A 4.66 1.03 -3.8 0 0 146.09 245.24
  L 146.28 245.23
  A 0.25 0.25 0.0 0 0 146.52 244.96
  Z"
/>
<path fill="#ba9c6e" d="
  M 141.04 167.53
  Q 142.02 167.39 142.00 168.81
  Q 141.75 169.95 141.56 170.60
  A 1.37 1.37 0.0 0 1 138.91 170.48
  Q 138.56 168.76 141.04 167.53
  Z"
/>
<path fill="#ba9c6e" d="
  M 162.96 198.77
  Q 161.97 198.61 162.33 196.97
  Q 163.94 189.77 165.16 181.28
  Q 165.79 176.96 166.29 174.71
  Q 166.89 172.00 167.61 168.19
  A 0.55 0.55 0.0 0 1 168.34 167.77
  L 168.37 167.78
  A 0.76 0.75 -74.0 0 1 168.81 168.59
  L 167.20 179.11
  A 0.54 0.45 66.6 0 1 167.14 179.31
  Q 166.66 180.40 166.59 180.76
  Q 164.85 189.96 163.70 197.32
  Q 163.56 198.21 162.96 198.77
  Z"
/>
<path fill="#3e342a" d="
  M 138.54 173.89
  L 136.45 188.98
  A 1.04 1.04 0.0 0 1 134.96 189.77
  L 121.33 182.96
  A 1.04 1.04 0.0 0 1 121.31 181.11
  L 137.03 172.83
  A 1.04 1.04 0.0 0 1 138.54 173.89
  Z"
/>
<path fill="#3e342a" d="
  M 137.36 190.65
  L 140.04 173.91
  A 0.33 0.33 0.0 0 1 140.66 173.81
  L 153.95 198.72
  A 0.33 0.33 0.0 0 1 153.50 199.17
  L 137.53 191.00
  A 0.33 0.33 0.0 0 1 137.36 190.65
  Z"
/>
<ellipse fill="#ba9c6e" cx="0.00" cy="0.00" transform="translate(108.72,177.41) rotate(-135.2)" rx="1.23" ry="0.65"/>
<path fill="#769bda" d="
  M 8.22 180.36
  L 4.15 178.63
  Q 4.62 177.57 6.16 178.15
  Q 9.19 179.31 8.22 180.36
  Z"
/>
<path fill="#3e342a" d="
  M 52.83 178.50
  A 0.14 0.14 0.0 0 1 53.00 178.40
  L 53.01 178.40
  A 3.60 2.43 -76.3 0 1 54.52 182.47
  L 54.38 183.04
  A 3.60 2.43 -76.3 0 1 51.17 185.96
  L 51.16 185.96
  A 0.14 0.14 0.0 0 1 51.06 185.79
  L 52.83 178.50
  Z"
/>
<path fill="#3e342a" d="
  M 243.01 181.48
  Q 243.11 181.45 243.18 181.34
  A 0.18 0.18 0.0 0 1 243.50 181.37
  Q 243.63 181.76 243.63 181.82
  Q 243.61 182.14 243.35 182.18
  Q 243.19 182.20 242.89 181.95
  A 0.28 0.27 -31.4 0 1 243.01 181.48
  Z"
/>
<path fill="#ba9c6e" d="
  M 183.31 189.26
  Q 182.61 191.15 182.63 192.76
  A 0.95 0.94 -71.9 0 1 181.12 193.53
  Q 179.47 192.30 177.99 193.67
  L 177.27 193.24
  A 0.55 0.55 0.0 0 1 177.35 192.25
  Q 177.96 192.01 178.87 192.28
  A 0.70 0.70 0.0 0 0 179.66 191.98
  L 181.13 189.64
  A 0.98 0.87 86.4 0 1 181.27 189.46
  Q 182.96 187.79 183.31 189.26
  Z"
/>
<path fill="#3e342a" d="
  M 62.30 205.74
  L 56.17 206.19
  A 0.85 0.81 -69.6 0 0 55.61 206.46
  Q 55.12 206.98 55.06 208.02
  Q 52.59 209.13 50.63 207.40
  Q 47.57 204.84 43.09 205.82
  Q 40.76 205.74 38.27 204.50
  Q 34.84 202.55 32.37 201.62
  Q 28.65 200.21 24.41 201.37
  L 22.00 200.92
  Q 20.45 199.84 18.63 199.56
  A 0.60 0.58 60.0 0 1 18.42 199.50
  L 12.57 196.95
  A 0.62 0.62 0.0 0 1 12.69 195.78
  Q 16.11 195.07 18.61 195.80
  A 2.69 2.59 46.1 0 0 19.87 195.85
  Q 22.93 195.19 25.65 195.94
  A 0.40 0.40 0.0 0 0 26.15 195.46
  Q 25.92 194.52 25.98 193.89
  A 0.65 0.64 -80.4 0 1 26.76 193.33
  Q 30.09 194.12 32.81 192.96
  A 0.59 0.59 0.0 0 1 33.62 193.62
  Q 33.42 194.67 34.49 195.01
  A 0.44 0.40 48.2 0 0 34.67 195.03
  L 37.81 194.70
  A 1.44 1.41 -30.4 0 1 38.74 194.93
  Q 41.02 196.49 46.19 200.05
  Q 48.21 201.44 51.34 200.80
  A 1.66 1.64 45.4 0 1 52.08 200.81
  L 55.36 201.60
  A 1.32 1.30 -22.1 0 1 55.77 201.77
  L 62.30 205.74
  Z
  M 41.88 201.94
  Q 42.35 201.09 42.06 200.45
  A 0.64 0.61 -48.6 0 0 40.91 200.55
  Q 40.77 200.94 41.28 201.93
  A 0.34 0.34 0.0 0 0 41.88 201.94
  Z"
/>
<path fill="#3e342a" d="
  M 83.37 227.77
  L 75.16 227.44
  A 13.45 13.43 -32.8 0 1 70.78 226.50
  L 63.43 223.57
  Q 60.59 222.64 58.96 220.50
  A 1.39 1.39 0.0 0 1 59.79 218.30
  Q 67.16 216.78 74.74 217.04
  Q 76.61 217.10 76.73 215.31
  Q 78.91 213.83 77.23 211.89
  L 78.77 202.48
  Q 79.23 202.52 79.54 202.27
  A 0.58 0.58 0.0 0 1 80.28 202.30
  L 80.86 202.79
  A 0.40 0.37 70.4 0 0 81.07 202.90
  Q 83.77 203.37 86.25 204.78
  A 0.63 0.62 -77.0 0 0 87.18 204.19
  L 87.14 203.57
  A 2.47 2.46 11.8 0 0 85.81 201.54
  L 83.56 200.39
  A 0.51 0.50 -54.0 0 0 82.98 200.49
  Q 82.66 200.82 81.76 201.06
  A 0.02 0.02 0.0 0 1 81.73 201.05
  A 0.22 0.21 66.6 0 1 81.81 200.83
  L 83.44 199.59
  A 1.07 1.06 -14.1 0 0 83.88 198.86
  Q 84.19 196.48 82.53 195.41
  A 0.19 0.18 35.3 0 1 82.48 195.15
  L 83.11 194.26
  A 0.01 0.01 0.0 0 1 83.13 194.26
  L 85.76 196.45
  A 1.53 1.52 68.5 0 0 86.51 196.78
  Q 90.19 197.36 93.49 199.49
  Q 94.33 200.04 95.49 200.17
  A 0.53 0.52 -81.6 0 0 96.08 199.73
  Q 96.10 199.64 96.09 199.45
  A 0.14 0.13 -78.4 0 1 96.28 199.32
  L 100.68 201.57
  A 1.04 1.03 12.1 0 1 101.23 202.41
  L 101.33 203.95
  A 0.29 0.29 0.0 0 0 101.89 204.03
  Q 103.17 200.84 106.38 202.35
  A 0.83 0.81 88.6 0 1 106.77 202.73
  L 108.38 205.74
  A 0.55 0.55 0.0 0 1 108.15 206.49
  L 107.87 206.64
  A 0.26 0.25 -26.6 0 1 107.52 206.53
  C 106.31 203.92 104.31 202.89 102.28 205.02
  Q 101.97 205.35 101.95 205.36
  A 0.45 0.44 64.6 0 1 101.29 205.12
  Q 100.81 203.60 100.88 202.86
  A 0.98 0.97 69.3 0 0 99.20 202.10
  Q 97.96 203.43 98.59 204.96
  A 0.51 0.50 65.4 0 1 98.36 205.60
  L 98.34 205.61
  A 0.45 0.45 0.0 0 1 97.74 205.44
  L 95.84 202.16
  A 1.10 1.10 0.0 0 0 93.79 202.75
  Q 93.85 204.66 92.74 206.75
  A 0.29 0.29 0.0 0 0 92.99 207.18
  Q 93.76 207.21 95.04 206.47
  A 0.44 0.43 -45.7 0 1 95.46 206.46
  L 99.41 208.48
  A 0.71 0.70 -72.3 0 1 99.79 209.22
  L 99.34 212.04
  A 1.16 1.15 -61.6 0 0 99.62 213.00
  Q 102.06 215.73 103.47 216.37
  A 0.97 0.97 0.0 0 1 104.04 217.19
  Q 104.20 219.26 105.70 219.61
  Q 108.44 220.26 109.35 221.03
  A 0.47 0.47 0.0 0 1 108.88 221.83
  Q 102.84 219.49 95.64 219.33
  Q 94.24 219.30 92.92 220.09
  Q 91.58 220.89 89.37 220.20
  Q 87.72 219.69 87.53 220.24
  A 2.05 1.51 23.2 0 1 84.93 220.85
  Q 81.30 219.15 79.92 218.07
  A 0.72 0.72 0.0 0 0 78.83 218.31
  L 78.47 219.01
  A 1.26 1.25 36.3 0 0 78.70 220.47
  Q 79.14 220.91 80.50 221.08
  A 1.25 1.16 61.2 0 1 80.92 221.22
  L 91.06 226.97
  A 0.59 0.59 0.0 0 1 90.74 228.08
  L 83.37 227.77
  Z
  M 90.87 200.81
  Q 91.23 202.66 90.55 204.46
  A 0.61 0.61 0.0 0 0 91.30 205.25
  Q 92.38 204.93 92.65 203.34
  A 0.09 0.09 0.0 0 0 92.65 203.28
  Q 92.20 200.21 91.88 200.13
  A 0.80 0.63 4.6 0 0 90.87 200.81
  Z
  M 96.5220 209.7593
  A 0.88 0.88 0.0 0 0 95.6654 208.8566
  L 95.2255 208.8451
  A 0.88 0.88 0.0 0 0 94.3228 209.7018
  L 94.2380 212.9407
  A 0.88 0.88 0.0 0 0 95.0946 213.8434
  L 95.5345 213.8549
  A 0.88 0.88 0.0 0 0 96.4372 212.9982
  L 96.5220 209.7593
  Z
  M 96.0149 216.0964
  A 2.38 1.20 -171.7 0 0 98.1968 217.6274
  A 2.38 1.20 -171.7 0 0 100.7251 216.7836
  A 2.38 1.20 -171.7 0 0 98.5432 215.2526
  A 2.38 1.20 -171.7 0 0 96.0149 216.0964
  Z"
/>
<path fill="#3e342a" d="
  M 192.33 217.06
  A 0.77 0.77 0.0 0 1 191.54 218.28
  Q 186.40 217.03 180.31 213.30
  C 173.70 209.26 167.64 206.74 161.63 203.26
  A 1.11 1.11 0.0 0 1 161.69 201.31
  C 168.30 197.98 173.77 194.86 181.06 195.68
  A 1.48 1.48 0.0 0 1 182.22 196.49
  Q 185.28 202.68 188.95 211.32
  C 189.76 213.23 191.31 215.74 192.33 217.06
  Z"
/>
<path fill="#ba9c6e" d="
  M 90.87 200.81
  A 0.80 0.63 4.6 0 1 91.88 200.13
  Q 92.20 200.21 92.65 203.28
  A 0.09 0.09 0.0 0 1 92.65 203.34
  Q 92.38 204.93 91.30 205.25
  A 0.61 0.61 0.0 0 1 90.55 204.46
  Q 91.23 202.66 90.87 200.81
  Z"
/>
<path fill="#ba9c6e" d="
  M 41.28 201.93
  Q 40.77 200.94 40.91 200.55
  A 0.64 0.61 -48.6 0 1 42.06 200.45
  Q 42.35 201.09 41.88 201.94
  A 0.34 0.34 0.0 0 1 41.28 201.93
  Z"
/>
<path fill="#769bda" d="
  M 38.27 204.50
  L 31.50 202.43
  A 5.20 4.98 -34.3 0 0 30.12 202.20
  Q 27.29 202.11 24.41 201.37
  Q 28.65 200.21 32.37 201.62
  Q 34.84 202.55 38.27 204.50
  Z"
/>
<path fill="#769bda" d="
  M 65.77 210.12
  Q 63.35 205.59 55.06 208.02
  Q 55.12 206.98 55.61 206.46
  A 0.85 0.81 -69.6 0 1 56.17 206.19
  L 62.30 205.74
  L 64.73 206.39
  A 0.59 0.58 12.0 0 0 65.46 205.92
  L 65.86 203.46
  A 1.26 1.25 -69.9 0 1 67.75 202.58
  C 69.50 203.64 72.77 204.80 70.77 207.37
  A 0.88 0.84 53.8 0 1 69.30 207.11
  Q 69.05 206.44 68.87 206.31
  A 0.45 0.45 0.0 0 0 68.17 206.63
  Q 67.89 209.14 65.77 210.12
  Z"
/>
<path fill="#ba9c6e" d="
  M 50.63 207.40
  L 43.09 205.82
  Q 47.57 204.84 50.63 207.40
  Z"
/>
<rect fill="#ba9c6e" x="-1.10" y="-2.50" transform="translate(95.38,211.35) rotate(1.5)" width="2.20" height="5.00" rx="0.88"/>
<path fill="#ba9c6e" d="
  M 76.73 215.31
  Q 76.41 213.26 77.23 211.89
  Q 78.91 213.83 76.73 215.31
  Z"
/>
<ellipse fill="#ba9c6e" cx="0.00" cy="0.00" transform="translate(98.37,216.44) rotate(-171.7)" rx="2.38" ry="1.20"/>
<path fill="#ba9c6e" d="
  M 207.57 216.39
  L 205.83 227.72
  Q 206.12 223.68 206.41 219.68
  Q 206.54 217.91 207.57 216.39
  Z"
/>
<path fill="#769bda" d="
  M 83.37 227.77
  Q 79.16 227.64 75.96 228.63
  Q 69.56 227.25 63.43 223.57
  L 70.78 226.50
  A 13.45 13.43 -32.8 0 0 75.16 227.44
  L 83.37 227.77
  Z"
/>
<path fill="#3e342a" d="
  M 333.75 225.92
  Q 333.80 225.92 334.04 225.99
  A 0.16 0.16 0.0 0 1 334.14 226.22
  L 333.93 226.62
  A 0.47 0.47 0.0 0 1 333.42 226.87
  Q 332.98 226.78 332.94 226.66
  A 0.84 0.54 -9.9 0 1 333.75 225.92
  Z"
/>
<path fill="#ba9c6e" d="
  M 205.21 230.89
  Q 204.15 240.96 201.19 250.51
  Q 202.10 244.31 202.51 242.75
  Q 203.91 237.45 204.50 232.02
  Q 204.61 231.04 205.21 230.89
  Z"
/>
<path fill="#3e342a" d="
  M 110.63 247.48
  Q 107.44 247.37 105.33 244.34
  A 0.49 0.49 0.0 0 1 105.51 243.62
  Q 106.43 243.14 107.53 243.10
  Q 107.53 243.99 108.52 244.20
  Q 109.71 244.45 110.45 243.77
  A 0.94 0.89 43.9 0 0 110.39 242.40
  Q 109.66 241.79 108.32 240.96
  Q 106.08 239.57 98.50 236.13
  Q 98.19 235.99 97.77 236.44
  Q 97.23 236.34 97.08 236.08
  Q 97.20 236.00 97.29 235.87
  A 0.25 0.25 0.0 0 0 97.26 235.55
  Q 95.52 233.81 94.34 234.38
  Q 93.16 234.44 91.72 232.58
  L 110.92 233.40
  A 1.69 1.68 14.8 0 1 112.35 235.85
  L 111.31 237.87
  A 1.42 1.42 0.0 0 0 111.49 239.43
  Q 112.60 240.77 112.55 241.50
  Q 112.37 243.68 110.63 247.48
  Z"
/>
<path fill="#769bda" d="
  M 97.08 236.08
  Q 95.33 235.50 94.34 234.38
  Q 95.52 233.81 97.26 235.55
  A 0.25 0.25 0.0 0 1 97.29 235.87
  Q 97.20 236.00 97.08 236.08
  Z"
/>
<path fill="#ba9c6e" d="
  M 107.53 243.10
  Q 108.61 243.14 108.67 242.98
  A 1.03 1.03 0.0 0 0 108.17 241.68
  L 97.77 236.44
  Q 98.19 235.99 98.50 236.13
  Q 106.08 239.57 108.32 240.96
  Q 109.66 241.79 110.39 242.40
  A 0.94 0.89 43.9 0 1 110.45 243.77
  Q 109.71 244.45 108.52 244.20
  Q 107.53 243.99 107.53 243.10
  Z"
/>
<path fill="#ba9c6e" d="
  M 161.18 254.04
  L 162.05 255.53
  Q 161.54 255.68 160.97 255.61
  A 0.66 0.65 -74.3 0 0 160.29 256.00
  Q 159.08 258.82 158.83 261.71
  Q 158.27 262.31 157.53 262.06
  A 0.95 0.94 5.9 0 1 156.88 261.27
  Q 156.36 256.41 152.20 254.11
  C 149.00 252.34 146.61 259.23 145.71 261.70
  Q 145.49 262.28 144.41 263.53
  A 0.20 0.20 0.0 0 1 144.07 263.33
  Q 144.85 261.24 144.79 258.96
  A 2.89 2.85 -33.7 0 1 145.06 257.66
  Q 146.38 254.82 145.41 252.32
  Q 143.57 251.41 144.07 248.86
  A 0.68 0.66 81.8 0 1 144.41 248.39
  L 147.93 246.52
  A 0.57 0.56 -18.7 0 0 148.22 245.94
  Q 147.87 243.51 148.60 241.80
  A 0.63 0.63 0.0 0 0 148.27 240.98
  Q 146.34 240.13 147.67 237.95
  A 1.21 1.21 0.0 0 1 148.47 237.40
  Q 149.87 237.14 150.89 238.41
  A 1.02 1.02 0.0 0 1 151.04 239.44
  C 150.06 241.81 151.31 244.56 149.64 246.57
  A 1.25 1.24 65.6 0 0 149.36 247.33
  L 149.31 249.53
  A 1.28 0.99 -81.9 0 1 149.30 249.71
  Q 149.11 250.85 148.00 251.21
  A 1.10 1.10 0.0 0 0 147.30 251.87
  Q 146.43 254.10 146.79 255.36
  A 0.60 0.60 0.0 0 0 147.96 255.32
  C 148.36 253.44 149.63 252.54 151.81 252.88
  Q 153.90 253.20 157.10 252.88
  A 0.77 0.75 19.2 0 0 157.53 252.68
  Q 158.22 252.02 158.33 251.78
  A 1.05 1.04 63.7 0 1 160.30 252.45
  Q 159.42 256.29 161.18 254.04
  Z"
/>
<path fill="#ba9c6e" d="
  M 131.47 240.59
  A 0.38 0.38 0.0 0 1 131.92 240.30
  L 132.22 240.37
  A 1.61 0.79 12.2 0 1 133.63 241.48
  L 132.16 248.28
  A 1.61 0.79 12.2 0 1 130.42 248.72
  L 130.12 248.65
  A 0.38 0.38 0.0 0 1 129.82 248.20
  L 131.47 240.59
  Z"
/>
<path fill="#ba9c6e" d="
  M 160.17 250.41
  Q 158.83 249.22 158.86 247.95
  A 1.90 1.88 -31.5 0 1 159.05 247.17
  Q 160.15 244.87 159.44 243.18
  A 1.65 1.48 -6.9 0 1 161.22 241.16
  Q 162.58 241.30 162.34 242.56
  Q 160.96 249.72 160.83 250.20
  A 0.41 0.40 -62.5 0 1 160.17 250.41
  Z"
/>
<path fill="#ba9c6e" d="
  M 119.94 246.03
  Q 118.63 244.97 117.17 245.08
  A 0.73 0.73 0.0 0 1 116.42 244.55
  Q 116.16 243.56 116.74 242.85
  A 0.84 0.84 0.0 0 1 117.74 242.62
  Q 119.28 243.33 120.49 242.69
  A 0.49 0.48 -9.4 0 1 121.20 243.19
  L 120.80 245.69
  A 0.54 0.53 -66.5 0 1 119.94 246.03
  Z"
/>
<path fill="#ba9c6e" d="
  M 146.52 244.96
  A 0.25 0.25 0.0 0 1 146.28 245.23
  L 146.09 245.24
  A 4.66 1.03 -3.8 0 1 141.38 244.52
  L 141.37 244.50
  A 4.66 1.03 -3.8 0 1 145.96 243.16
  L 146.15 243.15
  A 0.25 0.25 0.0 0 1 146.41 243.38
  L 146.52 244.96
  Z"
/>
<path fill="#ba9c6e" d="
  M 178.05 256.96
  L 175.77 263.56
  A 0.92 0.92 0.0 0 1 173.99 263.29
  Q 173.88 260.20 175.99 257.69
  Q 176.18 257.50 176.22 257.31
  A 0.17 0.17 0.0 0 0 176.07 257.11
  Q 175.93 257.09 175.78 257.08
  Q 173.88 256.70 173.92 254.53
  L 174.13 246.32
  A 1.36 1.35 -80.0 0 1 175.91 245.07
  L 177.50 245.59
  A 1.28 1.27 -67.8 0 1 178.24 247.36
  Q 178.10 247.64 176.95 253.15
  A 1.65 1.44 -75.3 0 0 177.86 254.98
  Q 178.51 255.21 178.05 256.96
  Z"
/>
<path fill="#3e342a" d="
  M 445.54 248.52
  L 444.60 249.46
  A 0.25 0.25 0.0 0 1 444.18 249.20
  Q 444.55 248.05 445.27 247.96
  A 0.33 0.33 0.0 0 1 445.54 248.52
  Z"
/>
<path fill="#ba9c6e" d="
  M 118.51 250.63
  L 113.61 250.40
  Q 120.81 247.03 118.51 250.63
  Z"
/>
<path fill="#ba9c6e" d="
  M 128.27 260.05
  Q 127.79 259.19 127.87 258.75
  C 128.48 255.37 128.79 252.10 125.53 250.38
  L 131.11 250.94
  A 0.64 0.64 0.0 0 1 131.67 251.68
  L 131.30 254.03
  A 0.52 0.50 22.9 0 0 131.52 254.54
  Q 131.74 254.70 131.79 254.72
  A 0.23 0.22 21.2 0 1 131.89 254.94
  Q 131.31 258.52 128.27 260.05
  Z"
/>
<path fill="#ba9c6e" d="
  M 144.25 252.69
  C 141.44 254.51 137.23 253.67 134.02 253.77
  Q 133.23 253.79 132.76 254.52
  Q 131.86 253.74 133.33 252.83
  A 1.69 1.65 -59.8 0 1 134.19 252.59
  L 144.25 252.69
  Z"
/>
<path fill="#ba9c6e" d="
  M 172.04 253.86
  L 161.40 253.99
  Q 160.73 253.07 162.50 253.04
  Q 167.09 252.95 172.20 253.16
  Q 172.74 253.18 172.76 253.72
  Q 172.77 253.95 172.04 253.86
  Z"
/>
<path fill="#ba9c6e" d="
  M 188.58 255.05
  L 178.30 254.99
  Q 177.97 254.55 178.65 254.08
  A 1.20 1.17 27.3 0 1 179.37 253.86
  Q 183.60 253.95 187.74 253.93
  Q 188.41 253.92 188.73 254.48
  Q 188.96 254.89 188.58 255.05
  Z"
/>
<path fill="#ba9c6e" d="
  M 124.79 255.49
  Q 125.00 254.85 125.38 254.43
  A 0.54 0.53 -5.6 0 1 126.21 255.10
  Q 126.16 255.17 125.16 255.78
  A 0.25 0.25 0.0 0 1 124.79 255.49
  Z"
/>
<path fill="#ba9c6e" d="
  M 191.19 261.24
  Q 188.62 258.97 189.01 255.52
  Q 188.65 255.45 189.22 254.96
  Q 191.05 253.40 192.69 254.86
  A 1.06 1.03 23.7 0 1 193.04 255.72
  Q 192.84 258.84 191.19 261.24
  Z"
/>
<path fill="#ba9c6e" d="
  M 117.42 258.77
  Q 117.83 260.26 118.84 260.90
  L 117.69 263.14
  A 0.60 0.60 0.0 0 1 116.58 263.03
  C 116.00 261.08 115.37 257.90 115.84 255.71
  A 0.17 0.17 0.0 0 1 116.18 255.73
  Q 116.39 257.78 117.42 258.77
  Z"
/>
<path fill="#3e342a" d="
  M 162.05 255.53
  L 162.80 256.04
  Q 161.29 258.04 160.76 259.99
  Q 160.47 260.99 158.83 261.71
  Q 159.08 258.82 160.29 256.00
  A 0.66 0.65 -74.3 0 1 160.97 255.61
  Q 161.54 255.68 162.05 255.53
  Z"
/>
<path fill="#ba9c6e" d="
  M 197.83 255.79
  L 194.36 260.39
  Q 195.09 255.29 197.83 255.79
  Z"
/>
<path fill="#ba9c6e" d="
  M 160.76 259.99
  Q 161.29 258.04 162.80 256.04
  Q 163.53 256.44 162.97 257.69
  Q 162.44 258.86 160.76 259.99
  Z"
/>
<path fill="#ba9c6e" d="
  M 134.80 256.93
  Q 133.94 258.91 131.99 259.78
  Q 131.93 256.99 134.80 256.93
  Z"
/>
<path fill="#3e342a" d="
  M 175.99 257.69
  Q 176.27 257.36 175.78 257.08
  Q 175.93 257.09 176.07 257.11
  A 0.17 0.17 0.0 0 1 176.22 257.31
  Q 176.18 257.50 175.99 257.69
  Z"
/>
<path fill="#ba9c6e" d="
  M 192.17 264.96
  Q 192.26 265.83 191.72 266.28
  Q 191.36 265.29 192.17 264.96
  Z"
/>
<path fill="#3e342a" d="
  M 443.07 284.42
  Q 442.99 284.34 442.76 284.27
  A 0.13 0.13 0.0 0 1 442.74 284.04
  Q 443.47 283.57 443.92 283.88
  A 0.23 0.23 0.0 0 1 443.92 284.26
  L 443.73 284.38
  A 0.67 0.66 -48.2 0 1 443.07 284.42
  Z"
/>
<path fill="#3e342a" d="
  M 489.94 324.36
  Q 492.07 323.70 493.55 325.83
  A 0.62 0.62 0.0 0 1 492.62 326.64
  Q 490.77 324.94 489.94 324.71
  A 0.18 0.18 0.0 0 1 489.94 324.36
  Z"
/>
<path fill="#3e342a" d="
  M 353.69 339.15
  L 339.23 324.93
  Q 343.72 328.67 351.87 336.88
  Q 353.37 338.39 353.69 339.15
  Z"
/>
<path fill="#3e342a" d="
  M 390.84 376.71
  Q 390.32 376.65 390.07 376.39
  Q 384.38 370.51 378.57 364.74
  Q 378.14 364.31 378.19 363.83
  L 390.84 376.71
  Z"
/>
<path fill="#3e342a" d="
  M 394.76 380.69
  Q 393.17 379.96 392.26 378.15
  Q 393.97 379.03 394.76 380.69
  Z"
/>
<path fill="#3e342a" d="
  M 398.57 384.45
  Q 396.06 382.88 394.76 380.69
  Q 397.43 381.96 398.57 384.45
  Z"
/>
<path fill="#3e342a" d="
  M 405.19 391.40
  L 401.19 387.26
  Q 404.17 388.68 405.19 391.40
  Z"
/>
<ellipse fill="#3e342a" cx="0.00" cy="0.00" transform="translate(425.67,403.12) rotate(-180.0)" rx="1.16" ry="0.05"/>
</svg>
