<?xml version="1.0" encoding="UTF-8" standalone="no"?>
<!-- Created with Inkscape (http://www.inkscape.org/) -->

<svg
   width="682.67"
   height="384"
   version="1.1"
   viewBox="0 0 682.67 384"
   id="svg11"
   xmlns="http://www.w3.org/2000/svg"
   xmlns:svg="http://www.w3.org/2000/svg"
   xmlns:rdf="http://www.w3.org/1999/02/22-rdf-syntax-ns#"
   xmlns:cc="http://creativecommons.org/ns#"
   xmlns:dc="http://purl.org/dc/elements/1.1/">
  <defs
     id="defs11" />
  <title
     id="title1">Landsat9 SVG</title>
  <path
     d="m0 192v-192h682.67v384h-682.67v-192zm208.79 114.85c13.874-16.652 45.882-13.943 66.346-25.093 128.51-43.639 257.26-86.629 385.52-131 2.0404-23.802-14.575-51.666-20.027-76.67-7.2081-19.104-9.7469-55.484-36.614-34.379-118.95 51.893-238.32 102.85-357.06 155.25-15.458 4.5658-13.603 47.465-31.703 18.533-10.492-10.62-16.766-13.27-31.263-5.7101 3.3455-14.561-5.178-27.489-18.812-28.795-3.7284 9.9272-14.412 19.468-16.514 7.145-7.9082 11.086-22.204-14.263-32.739 4.9192-16.563 8.2562-29.61 3.7275-38.256 23.892 1.0135 8.3127 30.25 15.494 5.5641 12.421-24.606-7.8394-40.713 30.493-51.288 47.192 18.719 10.455 39.192 17.36 58.861 25.833 13.83-0.20551 31.694-24.033 37.752-13.951 10.472 4.8869 0.94927-18.115 17.111-2.0314 17.76 10.164 40.927 11.097 55.666 20.901-1.4608 5.9146 7.1154 8.5125 7.4562 1.5393zm-88.79-47.52c6.4644-7.5794 4.3788 6.6836 0 0zm122-4.6667c1.7399-4.9738 5.5501 4.5538 0 0zm-83.962-43.333c2.6495-18.581 4.3571 2.5069-0.23814 4.2041zm-11.371-3.4785c4.2965-20.331 4.2778 8.8295 0 0z"
     fill="#fdfdfd"
     id="path1" />
  <path
     d="m202.83 310.3c-4.9094-17.722-30.818-10.48-44.199-20.042-12.391-2.9886-26.672-19.89-26.763-1.8624-8.3755-15.719-23.046 10.832-38.354 10.953-9.6373 0.92006-19.187-7.0402-28.789-9.6668-16.288-6.2026-47.655-14.551-22.306-33.608 13.471-18.911 27.809-39.013 52.916-28.201-15.692-5.4614-22.342-13.522-7.6635-26.536 11.625-5.1005 29.858-9.7386 44.55-17.962 9.2549 11.572 19.616-0.68223 20.931 9.398 11.393-9.3882 14.054-21.469 27.151-5.2652 9.1411 3.5927-4.7573 29.479 13.698 16.988 16.51-10.369 33.871 41.65 41.926 5.5084 5.5814-23.515 39.304-23.104 57.279-35.472 106.49-45.953 212.66-92.595 319.26-138.26 26.604-11.759 22.043 38.899 33.651 54.832 0.52522 20.062 33.098 57.453 2.8014 63.968-136.21 45.935-272.03 93.112-408.63 137.88-15.542 4.7405-27.045 5.2578-4.5253-0.57672 88.179-27.23 175.06-58.636 262.53-88.085 32.982-12.491 67.71-21.49 101.06-33.798 20.169-12.789 76.18-8.1978 56.272-43.478-10.539-31.161-17.739-64.097-31.832-93.672-72.914 29.311-143.96 62.94-216.57 92.984-55.472 25.136-112.61 47.011-166.98 74.373-3.4378 15.448-13.063 48.785-22.515 16.863-10.575-4.6674-20.87-23.916-21.216-3.2789-21.696 5.9266-10.438-39.577-27.484-25.461 9.7549 7.9684 5.965 40.555-9.042 32-12.697-16.677-29.385 1.4852-38.727-13.079-7.9901 18.356-19.758 10.463-33.554 3.1377-28.115 5.7384 32.835 21.915-1.4707 19.617-24.368-13.71-42.35 27.807-51.992 43.8 17.816 10.245 37.635 16.532 56.441 24.787 17.106-3.6388 29.675-19.89 46.164-20.746 21.741 15.677 53.864 14.18 69.98 29.463 5.6247-12.033 13.239-11.897 1.9569-0.94022-0.16274 2.6246-3.4447 6.2155-5.9604 3.4429zm-69.496-25.629c-3.0535-6.9227-4.1684 6.6168 0 0zm27.223-76.667c0.13419-17.161-5.2919 24 0 0zm-10.634-4c-8e-3 -13.544-6.6038 19.398 0 0zm-13.158-1.4412c4.2847-16.372-22.78 7.6285-2.4252 2.0693zm-4.0428-9.3141c-0.73542-5.0389-13.725 4.7425-1.6747 1.0019l1.6747-1.0021zm109.88 79.975c-2.0924-11.37-14.536-10.082-11.87-25.164-28.891-5.7612 31.099 5.0631 5.2098-13.622 20.605-16.475 17.492 48.861 6.6606 38.785zm2.7278-18.552c-3.8728-5.5911-5.0557 5.1482 0 0zm-128 5.5605c10.071-16.973 13.344 12.176 0 0zm7.1488-0.8938c-3.5053-7.5162-6.6501 6.816 0 0zm-23.876-6.4326c1.1768-16.121 7.8442 7.73 0 0zm-26.629-1.8028c7.3115-38.152 17.36 9.7746 0 0zm132.1 0.54627c-6.1525-14.478 11.837 2.4595 0 0zm-67.368-17.978c9.9943-22.645 9.1472 9.2063 0 0zm63.291 1c-0.1119-5.1085 6.0977 5.3805 0 0zm-84.667-1.3333c-4.7675-6.6659 8.4278 2.4558 0 0zm393.44-39.444c1.2319-4.9904 0.56969 5.7935 0 0z"
     fill="#cececf"
     id="path2" />
  <path
     d="m203.51 308.29c3.1846-4.0223 5.0789 3.4463 0 0zm-1.2296-5.619c0.90034-10 3.0639 9.6391 0 0zm7.3546-3.4383c9.4317-6.6837-5.8986 6.3604 0 0zm-120.63-1.4447c8.2971-1.3227 0.10342 2.3069 0 0zm128.33-0.0691c9.6254-6.0307 5.6895 0.87378-1.2819 0.62955zm-121.33-1.7145c10.404-4.784-4.1111 4.4668 0 0zm89.333-0.12483c5.2735-4.2652 8.3444 2.4251 0 0zm-112-3.8752c-4.5525-4.6447 10.759 4.9702 0 0zm32 0c10.404-4.784-4.1111 4.4668 0 0zm125.7-1.3369c11.384-4.9284 24.917-2.5289 4.7222 1.8758-3.8378 0.97613-11.915 1.9555-4.7222-1.8758zm-78.359-3.9811c0.99429-3.1187 5.6428 4.8892 0 0zm-95.343-1.3486c-4.5525-4.6447 10.759 4.9702 0 0zm72.925 0.4807c-0.56837-10.1 7.7576 3.9421 0 0zm16.158-2.7248c7.3365-0.71269-2.0526 2.2168 0 0zm-25.439-1.9213c7.7856-4.3035-3.5411 4.5856 0 0zm121.03-2.4924c-17.994 3.3132-2.9764-32.432-27.022-31.224 20.424-10.334 5.2869-14.593 21.921-31.747-7.2942-15.2 26.17-26.97 22.093-23.719-12.369 21.718-2.2434 50.529-8.6227 75.418-1.4343 3.8328-0.64504 20.906-8.3689 11.272zm6.4852-6.3421c1.2355-12.584 8.2935-46.138-12.549-37.899 20.099 19.753-13.266 3.8281-13.398 13.535 14.756-2.6991 7.7074 18.366 19.299 21.741-1.0128 4.0529 5.7842 9.9206 6.6485 2.6228zm-13.827-44.958c-4.6994-9.5827-4.0655 10.739 0 0zm14.667-11.568c-8.4923-6.8506-11.029 7.7579 0 0zm-110.06 64.1c-15.837-10.495 6.9023 2.2214 0 0zm-97.942-1.2399c-4.5525-4.6447 10.759 4.9702 0 0zm87.75-0.91082c7.3365-0.71266-2.0526 2.2168 0 0zm-94.861-2.6447c9.5365-16.653 27.371-58.249 52.017-44.622 31.01 3.7954-17.794-15.213-3.9056-16.749-0.61492 9.7088 25.812 12.016 21.637 29.887-4.5475 23.933 32.299 1.4753 26.824 20.969-18.238-4.7459-47.523-4.3586-59.422-11.395 8.4787-13.028 7.3274-38.691-8.5368-16.702-9.7576 11.58-23.806 27.011-28.614 38.613zm92.204-16.111c-8.4875-11.322-11.966 12.737 0 0zm-21.093-9.1762c-8.4265-11.478-3.4741 16.809 0 0zm-22.215-2.275c-0.15089-34.561-18.091 24.329 0 0zm204.88 27.118c12.822-5.0071-3.9733 4.3655 0 0zm-147.91-7.7085c1.9557-20.096 5.966 8.4121 0 0zm-74.427-3.121c-18.123-20.915 22.958 7.7249 0 0zm136.65-11.383c-9.6591-9.3343-19.353-20.091 1.7665-11.629-14.715-5.887-10.289-24.549 3.5614-10.297 11.043 0.93101 7.1587 35.705-5.3278 21.926zm8.0863-3.6234c-8.5792-12.179-4.0789 12.478 0 0zm-5.7372-14.164c-6.131-4.7416-0.0863 4.5544 0 0zm155.33 16c10.404-4.784-4.1111 4.4668 0 0zm-209.33-7.6822c9.5113-19.919 5.973 7.7903 0 0zm236.48-2.3178c21.562-8.104-3.1628 5.631 0 0zm-251.14-3.8028c5.3325-26.454 24.558 4.1044 0.40425 2.2149zm8.0753-3.8638c7.2869-19.985-14.436 10.57 0 0zm-28.52 0.77778c-3.6264-12.788 6.7286 5.1662 0 0zm3.8635-1.3869c-0.88383-5.5898 3.7226 5.7369 0 0zm104.66-3.0575c-6.4077-28.507-44.95 0.9428-44.286-29.522 4.328-13.07-14.641-16.267-3.0563-1.2922 1.5559 17.946-7.4448 37.507-24.927 18.214-11.703-6.1345-24.622 9.5979-30.451-7.9285-5.9811 11.71-17.932 23.672-26.608 5.9534-21.154-14.542 22.538 20.395 22.043-2.7766 8.2402-12.654 13.192 13.513 23.528-0.49367 19.496 13.086 35.471 14.445 34.526-12.437-9.4718-10.475-4.0594-20.191 7.4508-6.8913-9.9044 17.399 18.517 32.259 17.893 11.08 5.2811 8.5151 25.155 15.793 23.888 26.094zm-21.411-22c-5.6065-8.5951-4.2888 7.8409 0 0zm236 16.667c10.404-4.784-4.1111 4.4668 0 0zm-311.6-19.48c-1.7874-15.853 23.523-1.46 1.8954 0.91345zm376.5-2.5908c9.4262-3.9489-0.81249-43.694 8.7047-15.262-0.30163 14.145 21.632 8.1314-0.7234 11.239-0.48792 2.8642-17.648 9.3586-7.9813 4.0237zm8.0129-8.8457c-2.3491-2.529 0.84085 7.6938 0 0zm-383.05-0.44872c15.252-3.0893-12.093 6.3138 0 0zm139.47-5.9679c10.404-4.784-4.1111 4.4668 0 0zm296.67-5.3333c12.401-4.2143-5.3277 4.107 0 0zm11.333-4c12.822-5.007-3.9733 4.3655 0 0zm-280-2.6667c10.46-5.9764 2.1652 1.7121-3.3333 2.5549zm290.15-0.6083c14.375-5.8186 7.9245-0.39533-2.517 1.3132zm15.853-5.2406c13.25-5.802 6.7494-0.14393-2.542 1.2967zm-98.672-6.4844c0.17273-11.614-10.053-41.635-2.718-42.508 0.59203 13.234 12.076 38.828 3.8319 45.627zm-173.99-2.3333c10.404-4.784-4.1111 4.4668 0 0zm9.3333-4c10.404-4.784-4.1111 4.4668 0 0zm319.96-7.2806c-1.0007-18.923-15.444-51.263-15.933-61.897 4.5792 17.692 20.864 52.868 15.933 61.897zm-289.29-6.0528c10.404-4.784-4.1111 4.4668 0 0zm13.601-3.6491c6.3351-8.4691 15.761-5.3234 0 0zm17.066-9.6843c10.404-4.784-4.1111 4.4668 0 0zm9.3333-4c10.404-4.784-4.1111 4.4668 0 0zm21.333-9.3333c10.404-4.784-4.1111 4.4668 0 0zm9.3333-4c10.404-4.784-4.1111 4.4668 0 0zm55.564-3.6271c-3.9046-12.399-8.6822-21.001 2.0025-20.143-4.2985 5.0094 5.0613 18.94-2.0025 20.143zm-24.897-9.7062c10.404-4.784-4.1111 4.4668 0 0zm9.3333-4c10.404-4.784-4.1111 4.4668 0 0zm21.333-9.3333c10.404-4.784-4.1111 4.4668 0 0zm9.3333-4c10.404-4.784-4.1111 4.4668 0 0zm126.81-8.1404c-7.3225-23.389 6.262 10.067 2.2957 6.4932l-1.077-2.8799zm-105.47-1.193c10.404-4.784-4.1111 4.4668 0 0zm9.3333-4c10.404-4.784-4.1111 4.4668 0 0zm21.333-9.3333c10.404-4.784-4.1111 4.4668 0 0zm66.807-10.807c-7.3225-23.389 6.262 10.067 2.2957 6.4932l-1.077-2.8799zm-57.474 6.807c10.404-4.784-4.1111 4.4668 0 0zm21.333-9.3333c10.404-4.784-4.1111 4.4668 0 0zm9.3333-4c10.404-4.784-4.1111 4.4668 0 0zm22-6.6667c0.35189-4.8898 4.0022 4.4917 0 0z"
     fill="#b0adb0"
     id="path3" />
  <path
     d="m203.39 306.75c5.5198-7.5968 10.125-11.515 1.207 0.99477zm-7.3863-9.419c-3.8188-4.8221 7.4112 4.3671 0 0zm-96-4c10.404-4.784-4.1111 4.4668 0 0zm86.417 0.42252c7.3365-0.71267-2.0526 2.2168 0 0zm44.016-6.5856c-5.4302-11.938 0.38633-39.647 2.0122-10.944 3.7413-0.82444 17.322 6.8825 16.299 4.7309 10.528 9.9223-20.411 11.077-18.312 6.2131zm-93.687-10.546c-8.1038-7.532 10.829 7.2059 0 0zm112.8-3.2909c0.99975-7.3713 0.99973 7.3713 0 0zm39.547-0.29061c6.9821-3.2279 4.3574 2.6975 0 0zm-254.11-2.5904c13-10.047 27.654-48.632 43.339-39.149-7.7866 16.152-11.235 32.183 12.686 26.502 25.035 5.0234-39.868-6.6984-12.526 12.163-11.617-1.9658-22.417-13.561-33.267-3.5575-3.3738 1.4055-6.5729 3.4122-10.232 4.0414zm36.563-6.2239c-11.598-20.294-15.302 4.4556 0 0zm-1.3787-12.489c9.1179-11.878 3.0855-37.402-2.2798-10.127-0.37889 3.1879-5.8538 16.363 2.2798 10.127zm67.647 12.817c10.72-27.855 9.123 22.995 0 0zm5.6016 1.1628c-1.4156-17.889-6.0208 12.563 0 0zm56.651 0.83358c6.8362-7.2735-2.9512 8.2247 0 0zm50.865-1.8858c0.89804-7.5809 0.59813 8.312 0 0zm-126.26 0.55659c7.8942 5.0725 6.2011-11.058 5.5768-10.487 8.547 1.4402 2.2104 16.882-5.5768 10.487zm-17.333-3.2714c-6.0973-5.8864 17.776 6.3818 0 0zm145.43-19.398c-2.4917-11.563 2.4893-51.718 4.3194-46.197-2.5532 14.578-2.3477 59.794-4.745 57.775 0.0463-3.8623 0.21379-7.7216 0.42558-11.578zm-145.37 13.113c-12.7-16.245 24.361 5.286 4.8374 1.6008l-3.1978-0.43322zm103.12-0.84581c17.164-12.493-18.175-43.059-14.919-21.622 17.395 12.963-0.29219 2.3165-6.1286 6.017 8.0799 6.8542 23.042 22.895 4.1368 8.9943-17.328-3.7899-16.28-21.709-16.479-26.029-0.63818 14.569-22.71-0.52788-4.9878 1.4244 2.0794-12.914 7.7235-32.946 3.7686-34.982 4.6386 8.3466 4.6318 34.494 22.368 26.059 12.031-11.246 37.7 26.799 16.103 6.0211-9.9101 3.1502-8.0945-13.106-20.387-0.90986 13.075 9.6169 26.481 16.251 34.731 17.05-5.9454 5.6751-22.633 15.105-1.5364 13.744 8.6938 12.055-13.332-6.6064-16.287 6.7161-4.8712 0.33103-3.7296 0.10026-0.38335-2.4828zm-18.524-22.154c-11.174-7.0913 0.32889 7.3034 0 0zm-10-19.333c-1.7399-4.9738-5.55 4.5538 0 0zm-33.371 31.882c-18.194-4.2188 15.782-20.603-7.742-19.036-6.3003-3.2598 21.273-1.943 19.637 13.769-2.2332 2.5508-9.0762 12.486-11.895 5.2675zm7.0855-4.1967c4.3058-14.877-12.804 13.27 0 0zm-54.271-3.3505c-3.2102-17.448 3.2844 6.393 1.3903 3.3624zm33.377-2e-3c1.1255-7.1007 4.451 11.472 0 0zm251.95-7.2546c-0.62205-31.671 10.43 13.007 0.2719 7.6944l-0.17796-3.3265zm-268.11 0.25465c-3.8188-4.8221 7.4112 4.3672 0 0zm112-2.524c4.9973-11.421 4.6287 8.8619 0 0zm-129.86-2.0223c-6.8646-14.997-4.7204-12.099 3.5979 0.12528-0.80173 1.0766-5.4773 3.3594-3.5979-0.12528zm7.3128-1.12c10.738-10.546 13.222-8.6478 0 0zm47.089-5.3333c-8.469-9.5716 10.87 9.9036 0 0zm-28.984 0.77777c-5.1912-11.993 10.767 5.281 17.719-6.9086-3.0666 4.8789-11.935 9.6052-17.719 6.9086zm-45.61-3.1998c-1.6289-6.6873 4.3397 5.078 0 0zm159.96-0.0667c4.9336-10.097 16.208 4.4197 0 0zm-156.88-4.0692c7.716-3.9501 0.13111 3.7008 0 0zm302.44-5.3473c-0.44444-8.6439-5.2761-56.969 2.6762-37.21-1.2085 7.2125 5.1062 42.674-2.6762 37.21zm-186.58 0.68305c-2.334-8.3502 7.8372 2.4727 0 0zm307.24-9.3838c7.5655-8.411-4.5164 7.7105 0 0zm6.9929-3.7848c-1.4112-7.649 8.7941 8.0982 0 0zm-6.8668-3.9425c0.97822-7.7535 0.57916 8.3547 0 0zm5.2839-4.6667c0.99977-7.3715 0.99978 7.3715 0 0zm-6.6173-4.6667c0.89805-7.5809 0.59814 8.312 0 0zm4.8472-3.5522c-14.147-13.963 10.137 3.7006 0 0zm-219.77-0.29231c5.4642-4.1025 5.2787 1.9342 0 0zm213.3-10.857c-3.7356-4.2493 2.8186-4.6009 5.1621-3.7749 0.91298 2.8799-2.5802 7.5512-5.1621 3.7749zm-2.3288-9.9656c0.73986-9.1023 0.73986 9.1023 0 0zm-116.83-2.8092c-9.2259-14.973 4.6679-24.446 2.3101-3.5451 0.69524-0.69237-1.1707 8.5848-2.3101 3.5451zm121.96-0.63528c1.232-4.9904 0.5697 5.7935 0 0zm-6.566-7.2222c-3.7514-23.903-2.0266 4.04 0.1611 3.1023l-0.0812-1.5644zm156.33 2.2628c1.6519-16.586-13.087-44.425-12.705-54.383 3.2843 14.972 19.168 48.14 12.705 54.383zm-151.09-1.7073c1.232-4.9904 0.56969 5.7935 0 0zm-1.2281-5.8889c0.99978-7.3715 0.99977 7.3715 0 0zm113.23-7.4444c1.232-4.9904 0.5697 5.7935 0 0zm-120.61-4.7222c0.38752-18.584 3.5901-14.738 1.3672 1.2483l-0.0431 2.586zm6.0439 1.5c0.99973-7.3713 0.99975 7.3713 0 0zm-1.4386-8.7778c1.232-4.9904 0.56969 5.7935 0 0zm-7.5211-14.41c-2.1676-11.796 3.8854 5.848 5.783-0.16112 0.0417 3.9421-5.5144 3.978-5.783 0.16112zm3.6264-7.4791c0.99976-7.3715 0.9998 7.3715 0 0zm-5.7778-4.4344c-0.11668-9.0622 2.7254 7.9824 0 0zm4.3887-3.069c5.2187-13.891 1.8197 4.1754 0 0zm142.63-11.284c-4.7742-20.735 7.1057 18.121 0 0zm-3.2898-9.9303c-3.4722-12.045 4.7083 6.604 0 0zm-2.7362-9.377c-2.1446-13.969 4.5956 11.213 0 0zm-8.4464-25.585c-3.3667-9.2704 5.824 8.0797 0 0z"
     fill="#8f8d91"
     id="path4" />
  <path
     d="m167.83 288.33c-4.1188-6.0026 7.4417 7.0975 0 0zm57.964-13.058c-1.4127-8.9993 4.2247 7.2899 0 0zm60.873-1.1126c4.3169-6.1759 4.696-1.044 0 0zm-88.842-5.0209c-3.5834-11.556-8.7651-21.639 4.2019-7.799 8.7681-0.50487-8.1958 19.408-4.2019 7.799zm4.0642-1.9999c1.7336-9.199-6.3866 7.9571 0 0zm-65.678 0.8575c0.9998-7.3717 0.9998 7.3717 0 0zm-88.348-2.7915c25.518-10.229-22.426 11.62 0 0zm98.716 2.2307c-0.24889-12.092-9.4109-15.827 5.9074-6.1059 7.1782-0.44267-7.0007 8.6497-5.9074 6.1059zm-13.604-3.5461c3.4348-6.2734-0.7477 7.1146 0 0zm94.415 1.5323c0.33718-7.1207 4.5802 4.2694 0 0zm-112.39-1.0112c11.433-1.2972 0.49093 2.1472 0 0zm137.21-3.0809c0.99977-7.3714 0.99976 7.3714 0 0zm-114.77-0.77777c1.232-4.9904 0.56969 5.7935 0 0zm129.97-0.44168c0.25493-7.1913 6.0153 3.0777 0 0zm22.19-2.1139c0.89805-7.5809 0.59814 8.312 0 0zm-209.24 1.0432c11.664-1.1504 4.6297 1.9595 0 0zm132.98-0.39109c0.0731-8.497 10.122-9.9923 0 0zm-58.024-4.0618c-18.36-10.19 8.6073-7.5092 5.0613-19.186 9.0472-3.3305 14.484-10.142 18.113-14.505 2.4439 20.933-4.1392 21.983-20.859 36.171l-1.3446-0.42479zm-27.642-0.80666c8.297-1.3227 0.10341 2.3069 0 0zm-61.849-3.4503c2.0936-13.49 8.661-30.151 3.383-7.1944-4.5624 11.121 8.3312 4.3894-3.3441 9.407l-0.0389-2.2126zm126.85-1.833c-7.8017-8.4278 14.248 11.33 0 0zm60.877 0.83305c0.99975-7.3713 0.99973 7.3713 0 0zm-181.44-6.1111c1.2319-4.9904 0.5697 5.7935 0 0zm183.05-13.889c-0.14432-19.895-1.3401 9.8795 0.14385 7.8312l-0.10521-2.9477zm-121.72 9.8889c1.232-4.9904 0.56969 5.7935 0 0zm6.2281 1.2281c8.2971-1.3227 0.1034 2.307 0 0zm151.36-7.117c0.68101-11.695 0.68101 11.695 0 0zm-71.03 3.476c4.4234-4.687 5.9383 2.5111 0 0zm-3.9614-2.0906c-5.0792-7.0364 7.6792 4.8676 0 0zm-28.483-0.94097c-2.3469-9.5346 11.572 5.7802 0 0zm203.32-1.7778c0.99979-7.3716 0.99979 7.3716 0 0zm-315.46-2.2758c-0.88382-5.5898 3.7226 5.737 0 0zm126.7-5.0575c-15.828-12.672 6.1372 0.61827 2.132-9.8947-0.58277 6.6221 14.576 6.4643 9.5618 5.7332-7.6983-1.2934-10.037 9.956-11.694 4.1615zm-102.6 0c3.7951-6.4594 0.2695 6.6727 0 0zm13.816-2.6667c12.611-12.052-9.4868 11.845 0 0zm178.67-11.333c1.9442-25.889 1.1024 26.775 0 0zm-200.25 4.4225c7.3365-0.71268-2.0526 2.2168 0 0zm52 0c7.3365-0.71269-2.0526 2.2168 0 0zm34.917-1.7558c3.8728-5.591 5.0556 5.1482 0 0zm207.28-2.7554c-2.0975-6.1449 8.9278 5.0029 0 0zm3.4934-6.0224c1.2319-4.9904 0.56969 5.7935 0 0zm-96.765-12.545c-0.20159-10.78 4.856 1.3163 0 0zm95.537-6.6772c0.99975-7.3713 0.99973 7.3713 0 0zm-95.317-4.5563c1.1844-10.193 3.9839 6.944 0 0zm91.317-0.77701c0.99976-7.3715 0.99976 7.3715 0 0zm119.79-2.588c2.8306-11.22 1.2847 9.1556 0 0zm38.258-15.598c0.33968-6.8671 12.997 3.3534 0 0zm-34.048-4.4807c0.99978-7.3715 0.99977 7.3715 0 0zm-123.66-1.5176c1.5986-4.3849 7.5252 1.0948 0 0zm-1.5768-7.8157c0.73986-9.1023 0.73986 9.1023 0 0zm4-5.3333c0.73986-9.1023 0.73986 9.1023 0 0zm219.69-2.4771c4.8547-6.0333 5.8386 1.1617 0 0zm-102.56-3.634c1.2319-4.9904 0.5697 5.7935 0 0zm112-2.6667c1.232-4.9904 0.56969 5.7935 0 0zm2.6667 0c1.2319-4.9904 0.5697 5.7935 0 0zm-115.89-8.5556c0.99975-7.3713 0.99973 7.3713 0 0zm141.62-20.623c-1.657-12.055 4.0956 7.0695 0 0z"
     fill="#847c82"
     id="path5" />
  <path
     d="m204 305.41c2.8584-7.1518 1.92 4.6137 0 0zm-67-32.998c-7.4442-1.6198-2.7817-22.835-2.2223-17.002 3.3939 2.299 4.3984 20.685 2.2223 17.002zm4.3333-0.93824c4.0179-4.3987 4.0638 1.81 0 0zm6.5403-3.9904c18.477-3.0011-15.651-17.218 3.496-16.717 6.273 16.218 28.739-15.82 9.8298 6.2454-3.2659 3.6724-9.6935 11.132-13.326 10.471zm-97.207-2.1523c23.57-10.506-14.84 9.4711 0 0zm146.77 0.55556c1.232-4.9904 0.56969 5.7935 0 0zm92.105-1.8889c0.99976-7.3715 0.99976 7.3715 0 0zm-95.047-3.6667c-4.1189-6.0026 7.4417 7.0975 0 0zm7.3065 1.0089c-14.117-9.3813 11.289 3.6151 0 0zm-108.8-0.94989c14.576-1.2553 0.84898 2.0409 0 0zm117.67-1.7257c-4.5524-4.6447 10.759 4.9702 0 0zm5.3333-2.524c6.6872-19.544 0.52611 14.861 0 0zm-22.234-3.6866c-7.5742-12.592 12.872 6.1183 0 0zm-125.68-1.7589c-1.3795-11.498 11.456-34.205 4.8433-9.8775-1.2057 2.0933-2.7888 10.761-4.8433 9.8775zm187.49-13.651c1.2318-27.45 2.9872 1.3672 0.1872 13.103-0.96659-4.3168-0.22999-8.7493-0.1872-13.103zm34.734 4.8152c-4.1673-8.7061 4.8326-0.73662 0 0zm-128.06-7.2038c7.1802-15.933 9.9104-3.1905 0 0zm199.75-9.324c4.0886-4.2869 0.42132 4.5943 0 0zm-163.23-5.8813c-2.9122-9.1487 6.4592 6.4223 0 0zm92.007-1.5632c1.2319-4.9904 0.5697 5.7935 0 0zm0-8c1.2319-4.9904 0.5697 5.7935 0 0zm123.89-3c3.6404-7.4972 9.1811 5.2521 0 0zm57.712-20.628c12.69-12.176-1.2966 9.5725 0 0zm-178.94-1.7051c1.2319-4.9904 0.56969 5.7935 0 0zm212.32-11.699c-3.1578-7.1046 9.4372 1.2978 0 0zm31.571-10.714c5.1401-10.646 9.5036 8.7992 0 0zm73.638-25.495c8.2951-17.559 8.6113 7.6652 0 0zm-82.175-39.106c0.50598-7.6936 6.6285 1.8765 0 0zm68.538-29.542c3.8792-5.0889 4.9781 5.3464 0 0z"
     fill="#81797c"
     id="path6" />
  <path
     d="m181.33 296.81c4.0179-4.3987 4.0638 1.81 0 0zm-29.503-12.476c-4.1188-6.0026 7.4417 7.0975 0 0zm98.587 1.4225c7.3365-0.71267-2.0526 2.2168 0 0zm-104-4c7.3365-0.71267-2.0526 2.2168 0 0zm103.02-2.5336c1.232-4.9904 0.5697 5.7935 0 0zm-50.772-6.5556c11.38-11.058-6.9674 10.711 0 0zm-120.25-1.5769c-7.5565-14.175 4.7273 1.2155 0 0zm148.59-0.08979c-5.4298-12.593 3.7553-8.1503 0 0zm64.003-13c0.87796-10.114 0.53805 11.41 0 0zm-217.92 1.0892c7.3365-0.71268-2.0526 2.2168 0 0zm216.25-14.423c1.6247-10.875 2.1265 10.605 0 0zm-33.228-0.11111c1.232-4.9904 0.56969 5.7935 0 0zm-111.36-1.2646c-5.5835-6.2825 9.4948 6.4794 0 0zm144.9-9.9576c0.73986-9.1023 0.73986 9.1023 0 0zm2.3426-1.6667c-3.9477-15.592 3.1144-12.462 0 0zm-176.24-3.2442c7.3365-0.71267-2.0526 2.2168 0 0zm37.583-0.42251c-3.8188-4.8222 7.4112 4.3672 0 0zm232.36-4c0.68101-11.695 0.68101 11.695 0 0zm5.3064 0.66667c0.87797-10.114 0.53804 11.41 0 0zm-263.67-2c2.0326-4.7752 11.683 3.2412 0 0zm163.44-8.7778c1.2319-4.9904 0.5697 5.7935 0 0zm-205.69-0.13304c7.3365-0.71267-2.0526 2.2168 0 0zm171.18-2.4225c0.97822-7.7535 0.57916 8.3547 0 0zm34.617-6c0.99978-7.3715 0.99977 7.3715 0 0zm2.5614-2.1111c1.2319-4.9904 0.56969 5.7935 0 0zm90.925-7.2222c0.68102-11.695 0.68102 11.695 0 0zm121.72 2.2758c5.038-6.6407-1.6888 6.0992 0 0zm-116.49-5.6092c0.89804-7.5809 0.59813 8.312 0 0zm78.407-2.5034c6.4047-8.9084 3.0003 2.6561 0 0zm-175.82-5.7188c-5.2218-15.25 3.6121 6.0839-5e-5 0zm91.924 0.11112c1.232-4.9904 0.5697 5.7935 0 0zm125.33-18.667c1.232-4.9904 0.56969 5.7935 0 0zm-121.33-1.3333c1.232-4.9904 0.5697 5.7935 0 0zm112-9.3333c1.2319-4.9904 0.56969 5.7935 0 0zm-117.33-1.3333c1.232-4.9904 0.56969 5.7935 0 0zm116.11-9.8889c0.99976-7.3715 0.99976 7.3715 0 0zm120.54-8.3908c5.038-6.6407-1.6888 6.0992 0 0zm-124.54-16.942c0.99973-7.3713 0.99975 7.3713 0 0zm3.1228-4c-6.1817-4.362 9.905 3.5954 0 0zm145.83-9c-4.1189-6.0026 7.4417 7.0975 0 0zm-10.286-36.333c0.99975-7.3714 0.99975 7.3714 0 0z"
     fill="#767983"
     id="path7" />
  <path
     d="m205.08 299.09c7.3365-0.71269-2.0526 2.2168 0 0zm-9.0833-3.0892c-3.5126-4.878 7.8582 3.5269 0 0zm-110.67-1.3333c-4.3106-4.1129 12.585 4.293 0 0zm11.351-1.362c11.565-8.7376 23.892-6.8839 3.5022-0.75193l-2.8768 1.1838zm87.316 0.0287c3.1932-5.3269 2.1264 4.9586 0 0zm-108-2.6667c-4.5525-4.6447 10.759 4.9702 0 0zm151.52 0c3.2237-12.315 4.6086-0.35246 0 0zm-58.796-2.8765c-19.028-7.7126 13.734 0.93154 0 0zm-99.394 0.20985c-4.5525-4.6447 10.759 4.9702 0 0zm180.11-4.7778c1.232-4.9904 0.5697 5.7935 0 0zm-196.11-1.8889c-4.5525-4.6447 10.759 4.9702 0 0zm96.947-1.3333c6.5468-9.2268 1.9676 8.1162 0 0zm75.72 0c-6.9703-10.828 10.01 7.773 0 0zm-85.653-2.8161c-12.644-0.34122-9.7166-14.036 0.72465-5.1008 21.582-2.8858 28.243-46.286 48.749-24.491 6.7212 7.0722 3.1745 42.771 15.504 17.718 1.0675-5.0034-18.628-16.849 0.54553-8.8029 10.498 12.554 15.875-9.7249 17.129-1.396-8.1795 8.1004 15.36-2.3447 1 8.8885 4.4317 10.527 1.338 7.2185-3.8253 1.2789-1.6932 5.3696-19.655 7.0206-26.206 10.84-15.937-7.3034 6.3535-13.225-5.3759-21.391 2.2386-14.262-17.369-15.587-21.338-1.5244-6.244 8.3912-26.413 23.019-26.907 23.98zm-102.99-3.1506c1.6298-10.002 42.758-11.678 13.615-3.9174-15.144-2.12-7.8393 7.9819-13.615 3.9174zm213.52-0.6999c0.99978-7.3715 0.99977 7.3715 0 0zm-176.67-1.933c-26.302-11.75 31.383 7.5184 0 0zm212.57-1.5706c1.9678-9.4484-0.16149-51.081 3.7734-21.83 5.9584-23.104 1.9531-43.456 0.49832-63.468-0.41611-5.9966 3.3714 22.949 4.2112 1.1395 1.8173 24.226-0.84122 48.659-2.8755 72.809-1.2876-23.9-5.8036 29.254-5.6074 11.349zm4.4065 0.26728c-3.1198-16.699 6.9669 8.8642 0 0zm-180.82-3.5075c-3.8644-6.1163-44.549-6.3126-21.649-5.8028 8.7628-1.1649 46.382 7.6452 21.649 5.8027zm142.64-4.1432c5.4143-12.779 3.1613-37.882 5.7409-41.896 4.4079 8.7362-8.4067 32.724 9.1925 24.961-7.5064 3.9581-16.296 13.833-15.072 21.543zm-179.7 0.85489c-4.5345-8.7055 6.8864 7.2328 0 0zm192.25-3.5277c9.404-12.927 5.3452 10.114 0 0zm5.1067-0.44006c-5.385-8.06-4.7133 7.7868 0 0zm-136-4c-18.922-5.1145 9.975-2.0656 2.6604 1.9096zm-24.843-5.4283c-17.899-13.721 31.209 12.495 4.6176 3.8409zm33.908 1.4659c4.0602-8.3995-12.16-14.244 4.1736-4.7101 1.4922 3.0412-9.5846 12.367-4.1736 4.7101zm166.33-5.9301c3.4937-14.006 15.258 5.8576 0 0zm-177.61-4.8317c-1.4127-8.9993 4.2247 7.2899 0 0zm251.11-0.19162c4.4096-19.626 4.527-5.2028 0 0zm-280.07-2.4691c-3.4965-9.7592 4.9121 6.2462 0 0zm288.68-4.2818c-0.23108-6.8635 6.7425 12.428 0 0zm-174.89-0.37503c-17.59-3.6261-9.9681-17.956 2.6189-7.2815-17.082-5.9291-11.915 3.0526 0.2844 7.1314 2.9682-18.418 5.0145 9.7335-2.9033 0.15013zm-60.629-2.625c-15.922-13.642 16.822 12.723 5-5.0257 4.5854-8.8967 9.6337 18.64-5 5.0257zm-44.667 0.5215c2.5263-9.0098-9.0472-1.4395 4.2818-11.188 3.8485-14.301 4.2556 16.384-4.2818 11.188zm244-1.6224c9.5473-16.211 12.443 3.6159 0 0zm8-4.2324c-1.9906-4.2136-3.0091 4.5793 0 0zm-74.935-5.6667c-2.8301-33.613 4.2669 3.8747 0.50769 6.8271l-0.2746-3.0737zm-163.62 3.8831c-2.7341-19.636-1.077 6.4594 10.551-1.631-2.8197 1.038-9.1489 9.0932-10.551 1.631zm-35.783-2.9664c-20.134-8.096 15.558-6.9616 8.3043 3.1436l-3.0247-0.866zm7-1.9168c-6.4441-4.8422-7.6993 2.9874 0 0zm57.207 2.3333c-8.469-9.5716 10.87 9.9036 0 0zm-12.96-0.17086c2.5962-8.044 14.288-2.743 2.0182-0.83646 5.3494 3.9325-0.65207 3.2103-2.0182 0.83646zm59.964-0.39626c-3.6341-8.978 9.5301-0.56952 0 0zm61.789-0.47473c6.1985-8.8829 6.5726 5.2112 0 0zm128.24-1.6248c-8.9293-1.1254-6.3878-22.576-24.765-8.7089-1.301-1.057 25.222-18.651 22.119 3.7773 2.7452-29.258 44.157-24.173 64.966-38.213 13.117-1.2216 45.824-24.885 46.682-13.159-35.531 11.202-70.63 23.983-105.24 37.758-3.8099 5.3989-1.9464 12.542-3.7598 18.545zm-37.574-4.775c10.353-5.3408 7.1989-0.2369-0.72331 0.72648zm-233.69-3.0571c7.7857-4.3035-3.5411 4.5856 0 0zm292.36-2.3484c8.0202-15.278 17.683 8.8336 0 0zm9.3333-1.3435c-6.7884-8.8446-10.13 6.5812 0 0zm-164.95-4.8093c0.98711-12.786 0.59654 14.082 0 0zm15.163 3.7662c-3.6341-8.978 9.5301-0.56952 0 0zm233.68-10.767c2.472-12.167 0.0879 12.606 0 0zm10.051-0.42083c-1.9303-6.3185 6.6324 5.3878 0 0zm-47.889-3.821c10.058-21.62 21.863 0.8826 0 0zm6.9442-2.8191c16.041-14.977-18.496 8.2086 0 0zm-90.228 0.61763c1.232-4.9904 0.5697 5.7935 0 0zm-72.105-1.059c6.3122-12.28 8.5796 4.6806 0 0zm77.775-9.8537c4.7559-23.626 46.754-21.16 65.949-35.468 15.559-2.078 46.998-29.017 40.548-8.7423-18.067-3.7594-42.46 14.14-62.995 19.862-13.981 5.61-27.962 11.22-41.944 16.83-0.59564 5.7332-1.9235 29.051-1.5722 12.043 5e-3 -1.5082 9e-3 -3.0164 0.014-4.5246zm114.44 7.6904c0.99978-7.3715 0.99977 7.3715 0 0zm9.2281 0.55556c1.232-4.9904 0.56969 5.7935 0 0zm-164.77-0.0376c11.729 0.82171 40.521-29.243 34.342-6.8512-2.3237-11.464-28.9 9.8801-34.342 6.8512zm154.18-8.6846c-3.6804-21.928 6.3072 0.50132 0.10041 1.9356l-0.0811-1.5644zm9.257 0.72222c1.2319-4.9904 0.5697 5.7935 0 0zm-2.3242-6.6452c0.73554-12.509 4.5354 7.5837 0 0zm-153.39-2.6185c0.77536-11.524 15.157 3.7691 0 0zm180.49-2.8475c-1.4254-8.8719 6.4538-10.132 1.5521-2.2969 7.7449-0.54549 3.5337 4.1236-1.5521 2.2969zm-154.02-5.1111c4.5484-2.6782 7.4612-29.03 6.1083-4.8055 2.3864 5.3342-6.9904 8.2525-6.1083 4.8055zm126.57 1.2222c1.232-4.9904 0.56969 5.7935 0 0zm38.561 0.58826c8.5006-1.6408-12.35-8.0451 3.3063-2.3154 1.462 3.1717-8.9878 5.133-3.3063 2.3154zm-38.23-5.3147c6.3483-13.81 47.831-16.52 65.468-28.027 21.814-11.015 50.784-13.654 68.356-29.768 11.182 19.231-27.041 9.1464-38.156 21.822-31.988 12.257-64.687 23.188-95.887 37.187l0.21873-1.2139zm-128.21-9.3847c-5.01-22.062 4.3818 11.911-4e-5 0zm117.37 2.2222c0.89805-7.5809 0.59814 8.312 0 0zm-90.927-3.1193c11.783-16.264 10.041 6.7726 0 0zm6-1.5474c-0.35191-4.8898-4.0021 4.4917 0 0zm240.18 3.1015c5.0653-11.791 2.2195 2.9005 0 0zm-147.41-2.546c1.232-4.9904 0.5697 5.7935 0 0zm-1.2281-5.8889c0.99979-7.3716 0.99979 7.3716 0 0zm99.132 1.3486c10.864-4.2994 17.291-3.0398 0.93301 0.99373zm3.5876-5.5182c6.434-9.4723 20.836-2.8691 4.7963-2.8453-1.436-0.61241-10.192 12.536-4.7963 2.8453zm-104.16-5.9415c1.2319-4.9904 0.5697 5.7935 0 0zm-42.439-4.1053c-4.084-10.65 22.049-3.3283 3.0269 0.70255zm42.054-2.206c17.991-11.348 46.457-17.889 68.056-28.088 18.285-3.9307 54.521-28.733 62.39-20.685-25.495 5.1747-49.31 19.148-74.135 27.655-17.965 5.4859-40.857 19.728-56.311 21.118zm-10.345-9.0594c5.7491-6.5918 10.456-10.009 7.8041 1.1484-1.9941-8.424-8.7289 6.8513-7.8041-1.1484zm153.4-0.62934c1.2319-4.9904 0.5697 5.7935 0 0zm-154.56-7.2222c0.99977-7.3715 0.99978 7.3715 0 0zm-1.3333-8c0.99975-7.3713 0.99973 7.3713 0 0zm7.8947 0.55556c1.232-4.9904 0.5697 5.7935 0 0zm26.132 1.2369c0.31824-13.249 22.072-6.1606 1.6304 0.48746zm6.7629-5.2371c-6.5176-1.5264-0.71224 7.5702 0 0zm-34.333-3.81c2.8728-9.126 1.4778 6.9046 0 0zm140.76-5.5073c-2.1446-13.969 4.5956 11.213 0 0zm-47.97-13.745c-8.8247-7.4659 26.616-7.0282 5.2688 0.21689zm11.208-4.1602c-4.9096-5.3658-5.1152 5.2159 0 0zm30.095-3.4286c-2.1446-13.969 4.5956 11.213 0 0zm-3.9619-13.371c-6.1198-25.269 8.2693 22.22 0 0z"
     fill="#6c6d73"
     id="path8" />
  <path
     d="m203.33 297.7c10.879-5.816 35.403-7.3628 10.122-1.7018-1.3323-0.22211-13.697 4.9057-10.122 1.7018zm-4.6667-1.3132c-12.018-5.7635-27.635-11.589-26.62-6.6644-4.1307-10.957-24.331 1.886-6.1267-7.5409 10.108 1.1045 35.741-2.4425 32.747 14.205zm-125.47-7.9273c-12.874-5.7025-53.256-17.299-16.994-19.869 10.998-4.7591 40.958 15.094 18.441-5.8618 7.4588-6.4676 47.681 5.9073 47.259 6.4969-4.2569 13.064-22.131-10.053-35.307-5.9656-24.977-6.4075 24.259 33.822 32.741 16.516 10.014-4.1252 13.611-10.999 8.6627-12.244 12.916 9.619-22.288 20.449-30.618 24.981-7.4257 5.5522-16.731-2.0189-24.184-4.0535zm154.13-1.926c-7.1286-12.161-7.9708-18.708-21.186-4.5185-15.707-1.2826-29.657-15.146-25.582-21.932-7.7334-1.0866-9.7068-13.609-19.092 1.3061-10.246 10.191-12.829 17.166 1.7184 9.7269-2.206 10.368-12.246 15.663-11.937 6.8034-10.227 12.41 2.2712-11.737-9.9208-1.0166 18.195-6.4791 31.267-49.768 49.333-25.595-5.3873 7.8923 8.9743 11.963-4.6511 17.78 9.1793 15.722 24.215-2.6386 33.916-1.838 2.8408-13.554 11.566 31.43 7.4016 19.284zm23.826-8.5217c-3.246-14.974 14.548-32.714 14.11-32.07-15.443 4.8354 0.0769-22.101-7.3094-29.564-3.7407-12.155 1.7896-30.564 11.989-26.723-22.857 8.4558-9.5577 41.122 11.97 20.657 12.431-2.8747 6.2363-32.989 3.4307-28.311 11.993 9.0753-0.49116 48.234 2.8114 68.664 9.5423 23.299-25.423 35.773-37.429 31.508zm34.244-20.016c11.802-22.821-21.01-12.408-17.737-3.4011 14.003-0.93662-1.0112 18.995-5.7812 7.0612-7.202 12.304-17.896 25.568 6.4479 16.393 10.344-2.3941 20.172-5.182 16.962-17.905l0.0786-1.5645zm-13.63 0.89524c-5.0108-10.848-9.6697 12.764 0 0zm4.9642-19.349c18.98-2.852 13.236-38.278-6.3038-18.907-14.117-1.564-12.778 28.278 1.4473 20.49zm-10.11-19.492c3.9948-7.0927-10.542 3.679 0 0zm-96.295 54.398c-13.997-13.882 23.116 6.4007 0 0zm122.43-18.117c3.6797-26.849 0.4308-54.198 6.0067-80.426 4.5196-1.3979-11.337 41.97 12.423 22.702 23.474-9.4523 46.954-18.892 70.431-28.337 2.8194-13.451-11.888-36.851-0.34796-24.386 11.277 26.444-14.038 32.701-32.777 40.39 15.019-3.801 41.531-22.822 35.501 7.2115 0.96054 13.808-36.176 20.187-7.421 12.539 12.943 0.65141 15.754 43.211-8.1954 39.794-9.4892 3.4803-32.722 10.168-11.478 2.5626 7.6458-5.9437 27.992-2.8874 26.292-15.316 1.0989-17.107 0.051-34.138-20.719-19.609-22.437 8.1154-44.744 16.581-67.111 24.888-0.0665 15.272-7.5497 40.74 16.621 25.467 22.996-9.7316-35.671 23.709-19.224-7.4814zm47.236-40.214c14-5.265 28-10.53 42-15.795 2.2546-13.95 1.3299-30.975-14.406-18.877-23.643 9.5505-47.285 19.101-70.928 28.652-3.1938 17.188 1.59 27.434 19.712 14.843 7.8813-2.9204 15.754-5.8645 23.621-8.8227zm20-4.3442c-4.1501-1.7913-12.432 6.4506 0 0zm-138.46 47.896c-5.6763-11.29 14.417 2.8756 0 0zm101.8 0.32907c12.401-4.2143-5.3277 4.1069 0 0zm13.333-4.7148c20.331-7.4053-10.708 6.7298 0 0zm-202-1.2852c-18.065-6.2657 20.422 4.599 2.8906-8.8833-11.127-9.1856 23.254 4.7175 0.41516 10.64l-1.6588-0.22922zm-23.763-4.6352c-10.653-13.03-7.1556-29.369-2.9673-5.6418 4.1829 3.9787 14.928 14.255 2.9673 5.6418zm198.76-1.0144c-6.639-19.432 25.465 0.80982 0 0zm6.9854-3.5082c3.0051-11.756-15.309 6.1635 0 0zm-185.96-6.2866c5.9796-12.4 5.8988-6.4319 0.0993 1.2177zm-11.03-2.514c5.7656-6.1482-7.5278-19.994 4.3553-16.042 1.5856 12.869 22.669-3.3009 15.567 2.874-6.1821-1.2259-21.528 17.506-19.923 13.168zm-7.1267-3.0415c-8.469-9.5716 10.87 9.9036 0 0zm281.79 2.117c8.297-1.3226 0.10341 2.3069 0 0zm5.8143-0.94101c15.43-6.05 41.308-14.974 51.062-16.774-16.639 5.7669-34.896 12.837-51.062 16.774zm-242.16-3.7336c-8.8659-5.3382-22.654-17.449-3.162-8.5173 10.046-0.0425 14.369 16.483 3.162 8.5173zm5.3505-1.1091c-0.35193-4.8898-4.0021 4.4917 0 0zm54.632 2.6105c-31.688-13.403 14.988-5.3296 0 0zm136.72 0.0707c1.8234-23.906 27.869 8e-3 0 0zm7.247-2.8952c12.721-14.42-17.152 5.6569 0 0zm30.55-11.119c0.98416-23.676 0.46309 24.944 0 0zm-281.15 10c2.022-5.0782 4.0714 4.2217 0 0zm-19.333-9.3333c-2.076-5.5336 11.368 4.827 0 0zm318.25-9.4323c2.4868-17.975 27.175 3.2136 3.2772 2.7656l-2.0319-0.78868zm11.412-0.8032c-1.5333-15.075-19.608 8.5009 0 0zm49.082 1.8108c11.275-5.7533 50.041-16.419 18.238-5.4852-6.0615 1.575-12.112 4.9407-18.238 5.4852zm-202.75-4.8134c9.6838-19.588 12.104 10.434 0 0zm7.24-2.913c-7.74-4.9082-2.0606 9.3663 0 0zm118.15-1.6501c34.828-14.595 70.434-27.716 106.55-38.747 4.0086 17.127 1.2035 16.764-1.0936 0.76456-35.44 11.479-70.01 27.005-105.45 37.982zm-2.1555-5.3044c0.10724-11.933-4.9551-28.996 11.728-30.099 30.306-11.967 60.302-24.789 91.036-35.62-5.2922 5.8523-39.721 14.769-55.149 23.01-15.395 6.2214-30.79 12.443-46.185 18.664-2.5474 16.392-0.97254 32.524 19.039 17.949 29.42-11.229 60.243-22.678 88.294-35.084-23.141 14.97-52.439 21.435-78.133 32.655-9.6992 1.8876-21.737 11.559-30.631 8.525zm113.02-4.2278c0.89804-7.5809 0.59813 8.312 0 0zm15.74 1.3333c13.992-5.4062 1.0391 3.1035-2.7083 1.2692zm-54.149-1.2419c12.206-26.019 17.576 4.919 9.3829-2.2369 12.997-14.692-10.965-0.89564-8.4137 3.5848l-0.96915-1.3479zm49.076-2.7581c0.97822-7.7535 0.57916 8.3547 0 0zm-204.93 0.65473c1.3859-17.394 22.774-2.4247 1.1722 1.0294zm7.3752-2.9881c4.5962-11.802-13.903 9.5946 0 0zm-41.368-0.33333c14.883-7.4732-8.3776 7.1255 0 0zm264.67-0.0481c20.331-7.4053-10.708 6.7298 0 0zm-37.74-2.6185c0.97822-7.7535 0.57916 8.3547 0 0zm10.667-2.6667c0.97822-7.7535 0.57916 8.3547 0 0zm35.871 2.8589c9.2664-5.0164 42.615-13.812 16.286-4.8011-4.8652 0.78184-12.12 5.3243-16.286 4.8011zm-37.265-10.359c-5.7547-44.829 2.8217 12.159 0 0zm-205.53-0.5c14.883-7.4732-8.3776 7.1255 0 0zm276.67-1.3815c20.331-7.4053-10.708 6.7298 0 0zm-228.4-0.88523c-3.4167-16.462 24.55-1.6848 1.7392 1.1123zm9.0667-3.8888c-10.225-11.72-10.447 13.623 0 0zm-48 2.1555c14.883-7.4732-8.3776 7.1255 0 0zm73.947-3.7379c-0.89009-14.919 0.52564-18.607 1.0632-1.7783 18.573-0.70946 40.991-14.73 61.042-21.251 13.538-5.4503 27.076-10.901 40.614-16.351 0.64919-6.993-3.8603-36.346-0.0295-15.549 6.5489 30.267-41.53 27.572-60.292 41.592-12.98 2.619-32.815 18.542-42.398 13.337zm145.53 0.96221c-5.3214-18.686 23.845-3.4686 15.172-3.8688-5.8086-14.522-25.175 9.5571-3.3262 2.3799-3.0486 0.59661-9.7872 6.2778-11.846 1.4889zm63.857 0.0609c20.331-7.4053-10.708 6.7298 0 0zm-271.33-2.6185c14.883-7.4732-8.3776 7.1255 0 0zm280.1 0.2192c10.83-5.5795 48.41-15.973 18.258-5.5418-5.7943 1.463-13.153 5.453-18.258 5.5418zm-270.77-4.2192c14.883-7.4732-8.3776 7.1255 0 0zm172.76-1.0891c43.63-18.23 88.019-34.954 132.77-50.25 11.988 8.7639-16.043-0.48475-23.352 9.3369-36.386 14.108-73.5 26.475-109.34 41.914zm-163.42-2.9109c14.882-7.4732-8.3776 7.1255 0 0zm162.22-2.8889c-4.9781-15.872 7.6426 7.7736 17.645-6.3941 37.977-14.602 76.365-28.191 114.05-43.524-0.78756-10.953-5.5128-23.7 1.3587-5.2492-9.9305 19.645-46.465 19.534-66.229 31.681-22.219 7.1315-44.562 18.96-66.823 23.487zm-151.56-1.7778c10.404-4.784-4.1111 4.4668 0 0zm140.21-2.1667c-5.4101-46.091 2.8334 14.011 0 0zm148.45 1.4518c20.331-7.4053-10.708 6.7298 0 0zm-239.09-2.9473c20.425-25.951 12.016 14.304 0 0zm7.7552-0.33784c8.3088-16.467-17.266 9.4048 0 0zm-45.333-1.3333c10.404-4.784-4.1111 4.4668 0 0zm137.54-4c0.99975-7.3713 0.99973 7.3713 0 0zm97.799 1.3486c0.99431-3.1187 5.6428 4.8892 0 0zm10.324-2.9551c19.702-16.657-13.724-3.6248-9.6337-2.3935 8.2738-19.632 29.493 2.4581 5.2665 4.6433zm-226.15-1.7268c6.351-7.1657-1.7052 7.114 0 0zm116.79-4.6667c0.73986-9.1023 0.73986 9.1023 0 0zm145.15-2.7879c-4.7742-20.735 7.1057 18.121 0 0zm-252.12 2.1212c14.883-7.4732-8.3776 7.1255 0 0zm10.667-4.6667c10.404-4.784-4.1111 4.4668 0 0zm50.333-1.4401c-5.9081-13.701 27.98-5.1513 5.3502 1.3111l-2.7267-0.24529zm8.9132-1.1935c11.674-14.957-22.488 4.4227 0 0zm36.196 0.83001c39.766-18.931 81.386-34.009 122.31-50.302 12.134-4.8416 12.58 18.895 4.5453-0.78824-42.002 18.056-85.137 33.47-126.84 52.186l-0.0108-1.0963zm-86.109-2.1963c10.404-4.784-4.1111 4.4668 0 0zm84.788-3.8039c-3.8441-12.13-3.2723-30.023-0.2823-7.2784 9.15 13.562 38.832-11.885 55.935-14.056 20.251-13.724 64.461-14.576 70.396-36.973-1.8839-7.8895-15.083-40.365-3.6007-15.372 23.123 36.276-35.714 34.714-55.927 49.675-21.983 7.2912-44.424 21.164-66.521 24.003zm-72.788-1.5294c10.404-4.784-4.1111 4.4668 0 0zm9.3333-4c10.404-4.784-4.1111 4.4668 0 0zm9.3333-4c10.404-4.784-4.1111 4.4668 0 0zm10.667-4.6667c14.883-7.4732-8.3776 7.1255 0 0zm10.667-4.6667c10.404-4.784-4.1111 4.4668 0 0zm52.889 0.44445c-5.1114-14.817 29.864-13.451 7.1687-0.89302-1.9339 1.1982-5.0583 2.8563-7.1687 0.89302zm10.081-4.9198c5.5508-16.035-21.997 14.209 0 0zm-44.149 2.251c-4.4833-11.66 3.3946-2.155 0 0zm-9.488-1.7757c10.404-4.784-4.1111 4.4668 0 0zm18.88-3.6198c12.758-26.753-3.271 14.75 0 0zm11.787-9.7136c10.404-4.784-4.1111 4.4668 0 0zm9.3333-4c10.404-4.784-4.1111 4.4668 0 0zm12-5.3333c10.404-4.784-4.1111 4.4668 0 0zm57-0.95501c-11.846-11.493 30.824-12.493 8.0479 0.28238l-2.6484 0.47285zm12.276-3.8452c2.5432-11.883-26.343 6.0011-4.8101 2.4557zm-59.943 0.80024c10.404-4.784-4.1111 4.4668 0 0zm9.3333-4c10.404-4.784-4.1111 4.4668 0 0zm10.667-4.6667c14.883-7.4732-8.3776 7.1255 0 0zm10.667-4.6667c10.404-4.784-4.1111 4.4668 0 0zm9.3333-4c10.404-4.784-4.1111 4.4668 0 0zm10.667-4.6667c14.882-7.4732-8.3776 7.1255 0 0zm10.667-4.6667c10.404-4.784-4.1111 4.4668 0 0zm9.3333-4c10.404-4.784-4.1111 4.4668 0 0z"
     fill="#4d5367"
     id="path9" />
  <path
     d="m182.09 294.28c5.038-6.6407-1.6888 6.0992 0 0zm17.334-1.2758c-10.052-12.962 16.136 5.5869 0 0zm12.581 0.39871c21.403-3.6208 3.7933 1.9276 0 0zm-36.333-5.9214c-9.0039-11.41 10.067 6.6653 0 0zm49.254-1.4138c-12.529-2.9632 0.62841-22.002-3.1273-4.7302 3.2167-0.54862 9.1932 9.4052 3.1273 4.7302zm-124.04-5.3266c-13.155-2.6843-35.332-30.539-13.132-10.961 7.6967 4.7153 45.057 18.623 17.071 12.64zm53.121 3.2631c11.835-9.8725 0.72901-0.61285 1.2443 0.89623zm7.3333 0.82993c4.3169-6.1759 4.696-1.044 0 0zm41.333-2.382c-8.29-7.0889 19.612 6.2741 0 0zm-32 0.21878c5.7634-4.6937 7.3381 2.508 0 0zm8.5963 0.11388c-4.1547-8.9549 7.6217 2.4664 0 0zm72.87-2.0606c1.584-7.1256 5.5419-11.116 10.906-18.106 8.4554 10.303 16.271-12.173 2.3809-9.0899 11.502-14.941 27.201-11.288 19.747 9.1678 3.9171 14.253-13.223 12.473-21.989 17.049-2.6824-0.13453-10.289 5.4529-11.046 0.97884zm-105.45-2.7053c-9.4406-7.027 7.4931-1.5205 0 0zm64.024 1.3186c5.816-13.182 8.3636-5.299 0 0zm-49.37-3.1267c8.3138-17.313 11.201-0.19401 0 0zm14.417 0.21586c7.3365-0.71265-2.0527 2.2168 0 0zm-50.417-0.81799c6.506-8.2562 8.4607-3.6138 0 0zm-16-2.2712c-4.5525-4.6447 10.759 4.9702 0 0zm12.431-0.16129c-0.50647-13.348 3.1938 4.0334 1e-5 0zm52.913-1.3257c-11.89-4.1911 17.321-2.3864 4.9478 2.6569l-4.9478-2.6569zm119.53-3.513c-10.077-35.732 27.958-39.115 52.392-49.036 13.268 0.18554 18.022-9.6292 35.409-12.398 10.171 26.738-6.1885 39.78-30.985 43.501-18.765 5.5648-38.498 15.078-56.816 17.933zm25.448-21.667c-1.8482-20.631-23.626 9.6219 0 0zm28.627-1.3333c-3.3884-13.058-0.25197 12.693 0 0zm7.1851-4.6787c1.547-17.969-3.1328 21.87-4.0137-4.7815-1.9085-17.322 0.2912 28.898 4.0137 4.7815zm4.3188-0.56913c-1.0682-11.918-4.5588 9.1136-1.2821 5.8701l0.74678-1.5804zm3.6879 1.8759c-2.2596-7.5841-2.9855 9.5364 0 0zm7.1905-14.784c-1.6761-29.394-1.3297 2.1429-2.6331 14.156-5.716-23.789-0.6681 16.67 2.5612-5.9372l0.0576-3.5961zm3.9116-1.1778c-0.68321-30.249-4.8187 3.5463-0.89648 15.333 1.2575-5.0198 0.77605-10.226 0.89648-15.333zm4.2881 9.6667c4.9621 9.9082 3.179-23.168 1.5134-26.767 0.35206 13.15-1.7227 30.568-2.0626 5.5981-2.5345-22.609-3.7456 41.048 0.54917 21.169zm-16.65-1.3333c-2.313-0.4311 1.3998 8.9092 0 0zm3.9464-5c-0.30505-24.001-26.578 13.962 0 0zm-14.613-5.6667c-2.313-0.43112 1.3998 8.9092 0 0zm10.667-8c-2.313-0.43113 1.3998 8.9092 0 0zm-268.88 51c-4.5525-4.6447 10.759 4.9702 0 0zm69.388-6c22.055-14.947 1.7371-2.3342-7.0251 8 2.3417-2.6667 4.6834-5.3333 7.0251-8zm14.191 2.4751c-2.0581-9.1193 15.715 2.8832 0 0zm-90.912 0.85824c-6.1557-4.2895 12.907 4.3404 0 0zm33.667-11.55c8.2971-1.3227 0.1034 2.307 0 0zm-5.1701-2.7836c-4.1189-6.0026 7.4417 7.0975 0 0zm25.333-2.6667c-4.1188-6.0026 7.4417 7.0975 0 0zm-31.086-1.5423c3.3847-2.6541 6.2129 4.0034 0 0zm-1.7406-7.4577c0.87797-10.114 0.53804 11.41 0 0zm155.14 2.5576c-8.8166-19.105 11.86-20.952 24.533-25.891 8.4636 17.427-9.4882 31.593-24.533 25.891zm130.99-20.558c-5.8172-29.358 37.005-26.743 55.549-39.053 14.777-6.0412 22.587-6.8124 3.5016 0.0756-20.061 13.325-66.982 9.4395-57.236 43.117-2.2543 22.24 33.202-6.8704 45.77-5.609 11.572-3.6584 44.182-15.348 44.327-13.991-30.038 9.9966-60.466 22.513-90.744 29.505-1.5304-4.4887-0.84529-9.3972-1.1687-14.045zm-96.854 1.0494c-3.668-12.728 8.772-14.17 17.817-17.991 22.19-8.9638 44.38-17.928 66.57-26.891 5.5146 15.346 2.5532 29.69-15.478 29.999-15.294 3.6029-41.91 18.07-62.435 23.745-9.6737 6.228-5.6799-3.2968-6.4737-8.8616zm65.965-21.299c-2.3491-2.529 0.84085 7.6938 0 0zm11.203-8.0634c-0.71676-25.715-2.9256 15.815-0.0372 7.0839l0.0894-3.262zm-6.7803 7.6468c-2.836-6.8474-2.2029 6.6207 0 0zm10.667-7.3333c-2.1997-27.005-1.5962 27.029 0 0zm-7.5178 6c-3.7951-6.4594-0.26949 6.6727 0 0zm11.441-4.412c-0.58909-26.91-5.5845 4.4477-0.3374 3.7177zm-16.346-8.5046c-2.3492-2.529 0.84086 7.6938 0 0zm4-1.3333c-2.3492-2.529 0.84086 7.6938 0 0zm-207.58 45.583c3.1932-5.3269 2.1264 4.9586 0 0zm97.981-21.775c-7.8289-15.369 24.613-26.62 29.714-22.4 2.253 15.502-1.5806 28.514-18.975 29.324-9.7729-1.1621-10.05 10.651-10.739-6.9241zm16.633-1.494c3.5186-21.728-19.723 9.4817 0 0zm135.86 7.6261c-17.157-22.759 35.282-8.5752 3.7353-0.28985zm8.906-3.6221c15.351-13.784-25.822-3.6638-4.2265 1.4629zm-122.98-18.633c0.73696-27.188 40.643-25.959 59.331-39.64 17.243-12.267 27.636-8.5116 24.152 13.028 2.1038 10.487-14.862 9.1055-21.391 14.219-20.486 8.2434-40.978 16.473-61.455 24.741-1.185-4.0192-0.55786-8.2434-0.63689-12.347zm20.882-3.6866c10.073-22.54-23.698 10.508 0 0zm45.416-18.446c4.5885-20.98-22.739 10.103 0 0zm4.8934-3.6107c-2.1866-1.8932 1.1485 11.386 0 0zm6.7227-13.359c-1.7037 4.1959 0.78505 25.975 0 0zm3.9439 12.025c-2.1866-1.8932 1.1485 11.386 0 0zm-7.946-11.323c-1.7938 8.3612 1.0532 18.004 2e-4 0zm6.6532-5.3686c-1.8361 2.9647 0.9906 17.474 0 0zm120.37 51.421c17.996-11.035-9.1948 7.9531 0 0zm-106.42-14.088c-0.0247-17.994 0.76724-4.4106 1.4629 5.4485 11.093 7.0584 41.644-16.033 59.106-17.986 11.173-4.2707 22.288-7.3435 4.5579-0.69129-20.812 5.8785-48.274 23.09-65.071 20.997l-0.0897-3.4977zm72.644 8.7778c-6.7288-20.728 33.626-14.443 10.444-1.6544-3.0995 0.17646-7.3114 3.9386-10.444 1.6544zm12.111-3.8695c16.07-25.3-29.904 11.071 0 0zm25.927 0.09168c0.89805-7.5809 0.59814 8.312 0 0zm13.228 0.33333c1.6243 3.4556 53.663-15.7 22.349-3.627-5.7943-0.10207-20.835 11.582-22.349 3.627zm-1.2775-7.6667c0.99973-7.3713 0.99975 7.3713 0 0zm-13.333-1.3333c0.99977-7.3714 0.99976 7.3714 0 0zm-106.54-3.3333c0.87797-10.114 0.53804 11.41 0 0zm159.06 2.1405c18.558-6.7998 7.1379 0.57005 0 0zm-40.527-6.8071c-3.7514-23.903-2.0266 4.04 0.1611 3.1023l-0.0812-1.5644zm-14.041 0.61512c-10.042-15.767 4.0801-12.139 0 0zm70.569 0.85869c18.558-6.7998 7.1379 0.57004 0 0zm-101.96-0.69418c13.293-6.705 26.973-8.2749 4.8521-0.89507 2.0444-2.549-6.1443 3.4699-4.8521 0.89507zm-75.402-1.9623c31.262-13.625 62.913-26.465 94.881-38.338-31.237 13.565-62.888 26.987-94.881 38.338zm193.4-2.7236c19.89-8.5012 6.2195 1.7849 0 0zm-50.481-0.9054c-1.2977-4.0217 34.358-9.1924 6.2969-0.56683l-3.2969 0.93716zm-63.633-2.9634c10.353-5.3408 7.1989-0.2369-0.72331 0.72648zm126.36-0.44955c7.716-3.95 0.13113 3.7008 0 0zm-207.51-8.1087c4.7588-16.094-2.7592 17.338 10.479 3.5731 10.947-4.4712 57.105-22.07 24.936-8.3586-8.9262-0.46016-38.06 24.538-35.415 4.7855zm142.94 3.702c5.2531-15.113 33.909 4.9133 7.2698-4.2849-4.2464-3.8585-8.4268 11.412-7.2698 4.2849zm72.697 1.8669c5.1941-10.711-3.4586-13.559 7.5227-2.4924 12.535-8.102-14.756 9.6939-7.5227 2.4924zm-125.15-0.31646c10.861-5.5222 26.954-13.506 6.8441-1.7557l-3.6771 1.3205zm29.333-2.1229c7.8032-9.1702 12.862-2.526 0 0zm-113.12-2.7962c0.99978-7.3715 0.99977 7.3715 0 0zm222.83-2.3333c0.63841-8.3811 2.7406 10.654 0 0zm4.6218 1.4503c4.5915-8.3823 4.2187 3.3774 0 0zm5.2672-10.752c-6.193-21.656 6.5076 9.3587 1.8977 6.0289l-0.93097-2.667zm-236.93 0.30218c-1.1616-16.187-6.3609 14.766-2.3333-8.3372 11.56-5.7431 43.262-20.284 44.893-19.06-11.547 9.8911-39.934 8.9017-41.442 24.835 0.9196 7.4296-1.3646 14.24-1.1181 2.5623zm11.417 2.644c-0.45187-18.564 28.71-7.5206 8.9486 2.9395-3.5734 2.053-8.9946 3.1414-8.9486-2.9395zm11.862-1.6304c12.291-18.561-23.963 5.3776-3.3818 2.6229zm110.05 4.9864c10.404-4.784-4.1111 4.4668 0 0zm110.22-0.33333c-3.0828-13.483 11.55 4.4735-0.45348 1.0843zm-239.34-2.3333c0.99978-7.3715 0.99977 7.3715 0 0zm112.24 0.5933c-0.85806-1.9328 40.009-10.454 11.589-1.9425-2.9249-0.52719-8.8558 5.4072-11.589 1.9425zm-13.451-3.9266c0.87796-10.114 0.53805 11.41 0 0zm36.997 3.5583c10.353-5.3408 7.1989-0.2369-0.72332 0.72648zm85.325-0.33606c-6.322-15.024 11.708-18.502 7.4064 1.1574-5.6352-19.899-8.7796-6.2497-7.4064-1.1574zm22.787-9.4027c-7.6707-26.652 7.452 11.833 2.3569 7.4302l-1.1382-3.2976zm7.4981 6.8596c-1.6287-11.427-11.968-44.225-2.2675-16.315-0.33831 12.903 16.877 17.656 2.2675 16.315zm-203.61-3.233c23.9-11.006-9.2287 6.8642 0 0zm62.877-0.77946c0.99977-7.3715 0.99978 7.3715 0 0zm39.789 1.5583c10.353-5.3408 7.1989-0.23689-0.72332 0.72648zm55.476-1.0007c-3.0699-12.748 19.612-21.118 2.524-6.3731-5.6019 1.7753 3.9818 12.648-2.524 6.3731zm-206.04-1.3354c1.2319-4.9904 0.5697 5.7935 0 0zm210.56 1.6c5.4643-4.1025 5.2787 1.9342 0 0zm24.337-12.985c-9.0501-30.512 8.2033 16.63 3.0708 9.3614l-1.4282-4.1691zm-96.337 11.054c10.353-5.3408 7.1989-0.2369-0.72332 0.72648zm22.667-1.3333c10.353-5.3408 7.1989-0.23689-0.72331 0.72648zm-102.67-0.60718c9.3926-6.1128 27.785-9.5766 6.0454-1.737l-3.7121 1.4657zm38.877-2.2844c0.99975-7.3713 0.99973 7.3713 0 0zm12.099-2.6667c0.73986-9.1023 0.73986 9.1023 0 0zm43.114 1.4822c9.7533-5.0203 9.7081-0.90229 0.42154 0.43091zm19.243 0.0761c10.353-5.3408 7.1989-0.2369-0.72331 0.72648zm9.3333-2.9238c14.118-8.9278 9.4645-0.48557 0 0zm-87.983-1.3398c14.922-5.2089-5.4035 5.2339 0 0zm70.341-0.18599c7.7161-3.9501 0.13107 3.7008 0 0zm-82.358-1.6626c23.9-11.006-9.2287 6.8642 0 0zm110.67-0.81162c14.118-8.9278 9.4646-0.48557 0 0zm30.254-0.54892c-5.3192-9.4069 8.6994 6.7061 0 0zm-160.59-0.79381c-8.6697-14.103 33.141-10.81 0.38988-5.9423-4.8671 11.433 28.008-1.024 4.8567 7.2326zm46.333 0.17103c7.8032-9.1702 12.862-2.526 0 0zm66.03 1e-3c10.729-5.9021 7.9733 0.42707 0 0zm-81.03-2.347c2.4029-7.9107-1.3893-24.778 2.6773-4.4456 3.9532 2.6025-5.8678 7.3382-2.6773 4.4456zm109.67-0.48245c14.118-8.9278 9.4646-0.48557 0 0zm-17.97-1.1706c10.729-5.9021 7.9733 0.42707 0 0zm-60.836-4.2526c19.171-7.8554-15.804 8.8455 0 0zm89.472 1.5971c10.188-8.7488 11.567 0.19994 0 0zm-17.97-1.3445c10.729-5.9021 7.9733 0.42707 0 0zm-88.677-2.4639c4.7511-1.7237 16.157 0.43186 0.3188 1.6479zm26.646-1.6666c10.404-4.784-4.1111 4.4668 0 0zm72.697 0.13058c10.729-5.9021 7.9733 0.42707 0 0zm18.125 0.60332c9.4757-4.9954 10.132-1.0603 0.58842 0.36432zm-177.49-2.7339c14.883-7.4732-8.3776 7.1255 0 0zm74.667 0.1128c23.9-11.006-9.2287 6.8642 0 0zm-15.98-3.7795c2.1999-11.472 1.3334 14.488 0 0zm39.53 1.1477c31.088-13.188-14.58 8.4974 0 0zm97.783 1.6856c-21.436-1.8159 7.997-2.8174 0 0zm-25.642-1.3913c7.716-3.9501 0.13112 3.7008 0 0zm-161.02-1.7754c14.882-7.4732-8.3776 7.1255 0 0zm80-1.775c10.353-5.3408 7.1989-0.2369-0.72332 0.72648zm91.691-0.44955c7.716-3.9501 0.13109 3.7008 0 0zm-135.6-2.4421c-9.3318-18.147 3.7931-4.7745 0 0zm-24.087-0.66666c14.883-7.4732-8.3776 7.1255 0 0zm165.33 0.66666c3.4066-4.7833 3.4066 4.7833 0 0zm-129.12-2.6667c0.99976-7.3714 0.99977 7.3714 0 0zm42.147 1.1087c7.716-3.9501 0.13112 3.7008 0 0zm19.786-0.98811c16.165-7.3859 4.9511 0.42011-3.9818 2.5168zm72.214 0.98811c7.7161-3.9501 0.13107 3.7008 0 0zm-113.55-1.8844c-5.1368-11.83 23.755-15.945 1.5803-6.7114-5.0744 18.471 25.559-9.6501 8.8836 6.3416-2.4854 1.6922-8.544 4.3902-10.464 0.3698zm-47.476-1.2243c14.883-7.4732-8.3776 7.1255 0 0zm78.667-0.44172c10.353-5.3408 7.1989-0.2369-0.72331 0.72648zm-53.073-4.8916c0.89804-7.5809 0.59813 8.312 0 0zm62.407 1.231c9.0628-5.8298 11.014-1.4546 0 0zm16 0.25787c5.4643-4.1025 5.2787 1.9342 0 0zm6.7422-2.6755c17.471-9.1479 26.156-5.8745 0 0zm-47.877-3.0356c-4.8681-8.1596 7.3853 5.4801 0 0zm35.801 1.1138c10.353-5.3408 7.1989-0.23691-0.72331 0.72648zm9.3333-3.6606c9.0628-5.8298 11.014-1.4546 0 0zm-76-1.8976c10.404-4.784-4.1111 4.4668 0 0zm100-1.3333c11.324-4.6692-4.8834 5.0868 0 0zm-8.6667-3.2643c17.91-8.5657 1.3144 2.9608-3.7715 2.0896zm-82 0.59758c10.404-4.784-4.1111 4.4668 0 0zm96 0.85464c15.497-8.6203 33.663-9.2551 7.3657-1.6404l-3.4629 1.1609zm-85.333-5.5213c14.883-7.4732-8.3776 7.1255 0 0zm82.667 0.0283c11.145-8.3944 9.359-0.76927 0 0zm-24.065-3.9616c-0.48788-10.208 6.719-10.079 1.7639-1.2424 10.638 1.8682 26.047-2.7295 5.2938 2.4204l-3.0452-0.03976zm-47.935-0.73333c10.404-4.784-4.1111 4.4668 0 0zm82.667 0c10.404-4.784-4.1111 4.4668 0 0zm5.9774-2.6301c13.228-8.1014 1.9892 2.6797 0 0zm-79.311-1.3699c10.404-4.784-4.1111 4.4668 0 0zm9.3333-4c10.404-4.784-4.1111 4.4668 0 0zm45.467-1.7273c-4.6181-8.0127 7.6268 8.6469 0 0zm-7.1093 0.16937c7.716-3.9501 0.13113 3.7008 0 0zm-30.178-1.7328c13.467-7.3964 13.715-2.879 0 0zm63.926-1.4871c1.232-4.9904 0.56969 5.7935 0 0zm-52.105-3.6686c8.5554-5.686 8.4833-0.40285 0 0zm10.667-4.887c10.404-4.784-4.1111 4.4668 0 0zm10.667-4.6667c14.883-7.4732-8.3776 7.1255 0 0zm6.8463-2.624c11.741-7.5048 11.336-0.93819 0 0zm17.154-4.5769c-11.639-1.4512 5.0978-2.1677 0 0z"
     fill="#394260"
     id="path10" />
  <path
     d="m200.73 296.1c10.073-8.9995-26.87-21.316-38.108-12.588-17.84 2.2296 8.3378-15.932 16.072-7.5451-1.4664-18.815-43.511 11.104-17.246-13.197 15.438-22.433 16.573 19.439 37.717 18.028 10.915 15.181 25.07-24.737 20.137 2.6712 23.453 7.654-14.414 12.23-18.573 12.63zm-24.429-3.5049c-12.144-16.936 18.339 8.2397 0 0zm-78.982-17.853c-12.476-4.2682-27.96-18.709-4.5149-8.3368 15.195-7.5945 17.446 17.436 32.272 5.4476-8.3594-12.53 16.961 3.8462-5.074 6.6161-6.2539 8.9709-15.429-1.4708-22.683-3.727zm46.075 4.021c-0.10893-7.1199 8.3423 6.1011 0 0zm-8.1501-26.077c-15.114 6.999-40.078-18.933-25.388-25.22 3.4053 28.054 40.396-22.925 21.916 7.458-5.219 7.8107 20.693 17.855 3.4714 17.762zm211.43-7.3482c1.523-13.076 2.0732 12.698 0 0zm4.2521-5.5689c-0.70303-22.505 2.6879 23.458 4.5454-4.1135 2.0311-2.878-3.9546 28.137-4.5454 4.1135zm6.6368 0.91226c0.29475-12.694 4.471 1.1561 0.95649 5.4189l-0.67552-1.348zm3.7778 2.2122c2.6923-10.14 2.31 8.1 0 0zm3.7789-5.0456c-0.20293-16.184 4.0402 16.583 3.8698-4.8751-1.5632-14.326 1.7311-28.871 1.6847-5.7904 1.6154 3.908-1.9633 26.848-5.5545 10.666zm7.0694-11.843c2.2696-47.091 3.213 45.121 0 0zm3.8184-1.3333c0.27889-24.707 3.0574-8.8533 3.4257 5.5045 1.3141-12.013 0.42097-32.665 2.4276-9.5255 2.4933 12.076-1.2666 19.229-2.9868 15.021-2.8272 14.328-2.8922-9.8168-2.8664-11zm-14.456 11.333c0.9998-7.3717 0.9998 7.3717 0 0zm33.452-14.992c-8.4184-29.887 34.436-25.614 52.179-38.003 20.463-3.6609 57.971-36.249 54.713 2.2509 1.6914 25.713-44.95 21.403-63.676 34.12-12.231-1.3257-48.107 28.273-43.237 3.0084zm31.478-13.736c-8.5575-22.807-30.895 13.395-6.1826 4.4976l4.1761-2.2753zm48.86-15.148c24.174-14.362-20.201-17.202-9.3476 2.2988 3.2763 0.38937 6.2802-1.6582 9.3476-2.2988zm-124.46 33.21c0.99977-7.3714 0.99976 7.3714 0 0zm6.6667-6.6667c0.99973-7.3713 0.99975 7.3713 0 0zm-237.98-0.53807c-1.0032-17.937 8.5908 5.0343 0 0zm241.98-0.79527c0.99978-7.3715 0.99977 7.3715 0 0zm-0.10526-16.778c1.2319-4.9904 0.56969 5.7935 0 0zm10.561-8.5556c-0.20115-25.222 3.391 11.947 0.25856 7.5887l-0.18911-3.3439zm-7.5556 7.3333c2.836-6.8474 2.2029 6.6207 0 0zm11.456 0.33334c-1.7336-16.753 2.6507-19.218 1.2375-1.075l-0.47083 2.7417zm-7.9-1.6667c1.6223-6.3227 2.6502 6.6338 0 0zm10.82-8.9213c1.5598-24.165 2.6776 29.697 0 0zm14.28-5.3215c1.9898-25.43 43.874-22.63 61.979-36.14 18.193-6.6311 47.814-26.496 41.768 7.9801-34.151 13.731-69.022 25.589-103.31 38.952-0.14434-3.5973-0.28868-7.1946-0.43302-10.792zm2.51-8.075c-1.975-1.3983 0.8665 14.032 0 0zm121.13 12.651c-6.7603-19.812-4.9384-37.101 19.554-38.869 34.385-11.984 68.423-27.032 103.04-37.024 6.4701-12.855 21.236 56.265 8.9201 22.844-3.828-14.268-9.3772-24.791-2.8121-4.212 5.763 11.114 1.9868 27.171-2.8707 6.8914-8.1047-24.896 6.5578 26.05-5.0159 8.2415-2.1423 19.734-14.514-28.919-6.1677 3.394-0.54272 12.734-13.561-4.1099-12.229 8.6381-6.0433-1.7238-8.8599 4.6176-11.889-8.4445 3.1674 24.453-37.544 19.18-53.268 30.242-10.701 1.2696-30.5 15.605-37.257 8.2987zm30.257-21.795c23.652-13.489-30.282-15.492-8.6429 2.4258l3.4916-0.98808zm71.93-21.024c-0.4905-17.556 12.225 18.523 5.4553-4.3846 6.0803-31.77-37.169 0.18189-14.184 2.7643 7.3434-10.441 10.428 15.837 8.7283 1.6203zm15.067-14.406c-7.7149-25.066-2.3802 2.0027 3.0113 12.328-0.44944-4.2298-1.8864-8.2546-3.0113-12.328zm-269.89 54.78c1.232-4.9904 0.56971 5.7935 0 0zm4-1.3333c1.232-4.9904 0.56971 5.7935 0 0zm0.15467-17.222c0.97822-7.7535 0.57916 8.3547 0 0zm6.8874-8.6667c-0.14651-18.008-1.3658 8.9272 0.1467 7.0854l-0.10729-2.6669zm3.7793 7.3333c0.89805-7.5809 0.59814 8.312 0 0zm-7.8028-8c0.84888-20.473 0.57681 22.27 0 0zm20.876 3.986c4.368-7.1919-3.8694-35.498 2.0539-11.632 0.49201 1.3117-2.9693-19.115 9.631-17.348 27.261-11.175 53.521-25.04 81.375-34.589 7.0836 6.3778 13.463 31.11-4.4898 30.896-29.455 11.055-58.286 24.806-88.37 33.416l-0.19957-0.74289zm6.2164-6.3193c-2.313-0.43113 1.3998 8.9092 0 0zm14.918-3.7971c24.381-14.363-19.377-18.755-5.8516 1.4638l5.8516-1.4638zm-14.918-4.2029c-2.313-0.43113 1.3998 8.9092 0 0zm0.0278-6.5833c-2.3491-2.529 0.84085 7.6938 0 0zm74.141-14.268c6.6536-25.065-34.182 7.685-2.4343 1.2088zm-94.625 25.185c0.74081-17.634 0.69617 17.673 0 0zm131.74-8.4187c-10.674-30.497 38.938-26.611 56.192-40.438 21.715-9.6086 45.615-16.736 66.262-27.144 13.106 18.684 8.541 30.736-12.164 34.068-36.472 12.868-72.394 27.489-108.97 40.428-0.43896-2.3049-0.87793-4.6098-1.3169-6.9146zm-4.7073-27.839c-7.0012-19.339-5.0765-32.333 18.329-35.082 32.49-13.861 64.78-28.215 97.293-41.994 8.106 16.209 15.832 35.457-8.2904 37.714-35.538 13.413-70.257 29.904-106.25 41.647zm26.166-13.149c32.283-30.499-35.383-0.67395 0 0zm69.372-28.45c18.896-21.614-33.997-4.3196-8.8388 1.1037l4.5819-0.26388 4.257-0.83983z"
     fill="#333c5b"
     id="path11" />
  <metadata
     id="metadata11">
    <rdf:RDF>
      <cc:Work
         rdf:about="">
        <dc:title>Landsat9 SVG</dc:title>
        <dc:description>SVG representation of landsat-9</dc:description>
        <dc:source>https://science.nasa.gov/wp-content/uploads/2023/05/landsat9.png</dc:source>
      </cc:Work>
    </rdf:RDF>
  </metadata>
</svg>
