<?xml version="1.0" encoding="UTF-8" standalone="no"?>
<!-- Created with Inkscape (http://www.inkscape.org/) -->

<svg
   version="1.1"
   id="svg1"
   width="682.66669"
   height="384"
   viewBox="0 0 682.66669 384"
   xmlns="http://www.w3.org/2000/svg"
   xmlns:svg="http://www.w3.org/2000/svg"
   xmlns:rdf="http://www.w3.org/1999/02/22-rdf-syntax-ns#"
   xmlns:cc="http://creativecommons.org/ns#"
   xmlns:dc="http://purl.org/dc/elements/1.1/">
  <title
     id="title1">Landsat-9 Icon SVG</title>
  <defs
     id="defs1" />
  <g
     id="g1">
    <path
       style="display:inline;fill:#000000"
       d="m 203.49987,308.61985 c -0.45695,-1.1908 -0.46631,-3.61741 -0.0208,-5.39247 0.61299,-2.44233 0.27226,-3.22738 -1.40073,-3.22738 -1.21592,0 -4.09389,-0.9738 -6.39549,-2.16401 -3.19836,-1.65393 -4.74252,-1.81567 -6.55112,-0.68618 -1.87192,1.16903 -2.2184,1.09218 -1.65816,-0.36779 0.38953,-1.01509 0.0673,-2.24172 -0.716,-2.72584 -0.78333,-0.48412 -1.42423,0.0198 -1.42423,1.11977 0,1.1 -0.57942,2.35811 -1.28761,2.79579 -1.68748,1.04292 -11.77184,-4.05156 -16.17278,-8.17026 -3.03711,-2.84233 -3.66513,-2.99178 -5.13412,-1.22176 -1.49163,1.79731 -2.13059,1.78545 -5.87294,-0.10895 -2.30957,-1.16912 -5.09922,-2.91057 -6.19922,-3.86988 -1.1,-0.95931 -2.6,-1.81317 -3.33333,-1.89747 -4.11712,-0.47328 -7.389,-1.88829 -9.33288,-4.03625 -2.12225,-2.34506 -2.44936,-2.34048 -9.7648,0.13681 -5.30844,1.79763 -8.1909,3.6544 -9.65134,6.21699 -1.58801,2.78643 -5.15282,4.83963 -15.01614,8.64875 l -12.933792,4.9949 -29.353021,-12.16919 c -26.996496,-11.19222 -29.28432,-12.39637 -28.49728,-14.99897 0.470657,-1.55639 1.896806,-4.02979 3.169219,-5.49646 1.272414,-1.46667 9.620069,-11.52038 18.550345,-22.34159 l 16.236867,-19.67493 5.164237,2.6346 c 5.308548,2.70821 25.428585,4.96857 25.428585,2.85673 0,-0.60224 -5.542772,-3.6341 -12.317266,-6.73747 -11.560381,-5.29575 -12.154387,-5.7616 -9.666667,-7.58115 3.779747,-2.76454 8.606111,-3.73401 10.275995,-2.06412 0.786586,0.78658 3.082254,1.09973 5.101484,0.69589 2.925262,-0.58506 3.853589,-0.16002 4.568218,2.09158 0.493289,1.55422 1.373506,2.53129 1.956036,2.17126 0.58252,-0.36002 2.1105,0.50715 3.39549,1.92706 2.31011,2.55264 2.39448,2.55198 7.51153,-0.0585 3.09823,-1.58061 5.17518,-3.59724 5.17518,-5.02491 0,-1.3116 0.83507,-3.52676 1.85571,-4.92257 1.57669,-2.15626 2.17813,-2.27027 4,-0.75825 1.17936,0.97878 2.19166,3.35613 2.24955,5.283 0.0579,1.92688 0.3934,2.79689 0.74557,1.93337 0.40509,-0.99328 2.32561,-1.29654 5.22807,-0.82554 6.13469,0.99552 5.80019,-1.09862 -0.76484,-4.78838 -2.94393,-1.65458 -4.99933,-3.57993 -4.56756,-4.27855 0.43177,-0.69863 0.29045,-1.16011 -0.31406,-1.02551 -1.80265,0.40135 -5.7973,-1.71562 -5.1657,-2.73757 0.32162,-0.5204 0.73053,-3.76214 0.90869,-7.20387 0.24984,-4.82649 1.01847,-6.71279 3.36067,-8.24746 3.88871,-2.54798 5.25001,-2.54352 3.13056,0.0102 -0.91292,1.1 -2.63638,2.04737 -3.82992,2.10527 -1.26252,0.0612 -1.50396,0.37621 -0.57733,0.75313 2.29504,0.93355 7.07392,-1.93913 7.07392,-4.25226 0,-1.38459 2.14362,-0.54343 7.24225,2.84188 7.07923,4.70034 8.25906,7.43475 3.92545,9.09771 -1.0777,0.41356 -1.78131,1.79648 -1.56358,3.07317 0.21773,1.27669 -0.35412,2.40972 -1.27079,2.51785 -0.91666,0.10812 -2.3071,0.27159 -3.08985,0.36325 -1.64034,0.1921 -0.26113,5.70994 1.75049,7.00325 0.71568,0.46011 2.32672,0.5684 3.5801,0.24063 1.25339,-0.32776 3.06043,0.34578 4.01567,1.49676 0.95523,1.15098 2.43598,2.0927 3.29055,2.0927 0.85458,0 3.63111,1.7422 6.17008,3.87155 l 4.6163,3.87156 3.01498,-10.20489 c 1.65823,-5.61269 2.67752,-8.10489 2.26508,-5.53822 -2.58544,16.08941 -2.52694,16.91154 1.25482,17.63447 1.94082,0.37101 3.91526,0.0492 4.38765,-0.71514 1.30078,-2.1047 5.59217,-26.75319 4.86319,-27.93271 -0.35016,-0.56657 -1.19519,-0.68492 -1.87785,-0.26302 -0.68266,0.42191 -1.2412,-0.78116 -1.2412,-2.6735 0,-2.40511 -1.03599,-3.91263 -3.44221,-5.00898 -3.37847,-1.53934 -3.38934,-1.58794 -0.58706,-2.62457 3.18924,-1.17978 12.99914,3.08485 14.18106,6.16489 0.37869,0.98686 0.10273,5.00975 -0.61325,8.93976 -1.79166,9.83436 -0.52168,11.09017 7.87023,7.7824 3.58622,-1.41356 7.65685,-3.27984 9.04586,-4.14728 1.389,-0.86745 3.47207,-1.21393 4.62904,-0.76996 1.68025,0.64477 1.8605,1.65481 0.8957,5.0189 -1.11849,3.89995 -0.99552,4.15614 1.66153,3.46131 4.34887,-1.13726 12.89635,4.31932 15.85714,10.12296 1.40589,2.75576 3.09489,5.01047 3.75334,5.01047 2.71047,0 5.41528,-1.73618 5.41528,-3.47599 0,-1.02154 0.85957,-1.85735 1.91015,-1.85735 1.05059,0 2.18643,-1.05 2.52411,-2.33333 1.41773,-5.3881 3.50563,-14.51098 3.85571,-16.84715 0.2612,-1.74303 3.85176,-4.03041 11.71003,-7.45993 6.23334,-2.72036 38.63334,-16.77871 72.00001,-31.24077 33.36666,-14.46207 62.46666,-27.1066 64.66666,-28.09897 7.66701,-3.45841 100.02192,-43.614492 102.91372,-44.747069 2.76482,-1.08285 2.99559,-0.633556 4.51626,8.793032 0.88141,5.463807 2.0337,9.934187 2.56065,9.934187 0.52695,0 0.15617,-4.61153 -0.82396,-10.247857 -0.98013,-5.636324 -1.64359,-10.369067 -1.47436,-10.517207 2.09964,-1.837946 129.86957,-56.184924 130.4926,-55.505063 0.85018,0.927735 37.18798,113.489347 37.16196,115.114577 -0.0146,0.91105 -23.6148,9.14625 -100.30691,35.00172 -41.46503,13.97924 -49.0551,16.17294 -49.58099,14.32995 -0.34151,-1.19686 -1.34181,-6.82612 -2.22288,-12.50945 -0.88107,-5.68333 -2.16006,-10.33333 -2.8422,-10.33333 -0.68214,0 -0.93837,1.05 -0.56941,2.33333 1.19245,4.14765 3.9021,23.05489 3.36392,23.4726 -0.69744,0.54131 -116.44122,39.62514 -118.73055,40.09238 -0.98515,0.20107 -2.69118,0.75024 -3.79118,1.22039 -2.85758,1.22134 -80.9725,27.71245 -122.47704,41.53563 -26.45381,8.8105 -35.39883,11.29188 -36.17548,10.03522 -0.77786,-1.25859 -2.05219,-0.91504 -5.17801,1.39598 -2.28043,1.68599 -6.70146,3.41311 -9.82452,3.83804 -5.00417,0.68088 -5.67443,1.17545 -5.64581,4.1659 0.0179,1.86632 -0.95773,4.43628 -2.16799,5.71104 -2.00303,2.10979 -2.27501,2.12349 -3.03129,0.15267 z m 47.86632,-58.28652 c 0.44277,-7.15 0.48989,-13 0.1047,-13 -0.38518,0 -1.91737,1.30634 -3.40486,2.90297 -1.48749,1.59664 -3.14349,2.46401 -3.68,1.9275 -0.5365,-0.5365 -0.39284,-1.39284 0.31926,-1.90296 0.71209,-0.51013 2.13159,-1.99366 3.15443,-3.29673 1.69436,-2.15856 1.51653,-2.34991 -2,-2.15205 -2.12284,0.11944 -5.54877,-0.46441 -7.61318,-1.29745 C 236.18213,232.68157 234.30493,232 234.07497,232 c -0.95812,0 -3.70273,8.15001 -2.98599,8.86675 0.42969,0.42969 1.17549,-0.78955 1.65735,-2.70942 0.48185,-1.91986 1.1505,-3.49066 1.48588,-3.49066 2.01801,0 5.7678,3.06441 5.7678,4.71358 0,1.07419 0.66419,1.95308 1.47598,1.95308 0.81179,0 1.11867,0.93117 0.68194,2.06925 -0.45533,1.18657 -0.2318,1.72177 0.52402,1.25465 0.72493,-0.44804 1.31806,0.19078 1.31806,1.41959 0,1.57776 -0.78351,2.02931 -2.66667,1.53685 -1.8699,-0.48899 -2.67277,-0.0375 -2.68708,1.51116 -0.0167,1.81093 -0.23456,1.87023 -1.20998,0.32942 -0.65425,-1.0335 -0.88087,-2.6835 -0.50359,-3.66667 0.41,-1.06845 -0.23855,-1.78758 -1.61213,-1.78758 -1.73233,0 -2.14122,0.82063 -1.66089,3.33333 0.38661,2.02242 0.0225,3.33334 -0.92595,3.33334 -1.03831,0 -1.55326,2.91498 -1.53366,8.68151 l 0.0295,8.68152 2.69655,-2.69656 c 2.26942,-2.26941 2.43604,-3.11371 1.05189,-5.33009 C 232.89777,256.67207 232.91265,256 235.0667,256 c 3.01522,0 5.05418,2.91449 3.41811,4.88583 -1.08405,1.3062 -0.90715,1.95827 0.6984,2.57438 1.18259,0.4538 2.15935,1.8109 2.17058,3.01578 0.0162,1.73762 0.25747,1.81655 1.16666,0.38166 0.86483,-1.36487 1.3878,-1.41819 2.13008,-0.21716 0.5411,0.87553 0.3161,2.25958 -0.5,3.07569 -2.30673,2.30672 -1.76353,4.4173 1.51617,5.89104 2.84413,1.27801 3.04922,0.99418 3.94724,-5.46292 0.52098,-3.74603 1.30951,-12.66097 1.75228,-19.81097 z m -6.03285,-3.74535 c 0,-1.50995 0.6,-2.37454 1.33333,-1.92131 0.73334,0.45322 1.33334,1.68863 1.33334,2.74535 0,1.05672 -0.6,1.92131 -1.33334,1.92131 -0.73333,0 -1.33333,-1.23541 -1.33333,-2.74535 z M 125.82629,261 c 1.42674,-5.32386 0.94791,-6.33333 -3.00411,-6.33333 -2.85978,0 -4.05042,0.76841 -4.64846,3 -1.42674,5.32386 -0.94791,6.33333 3.00411,6.33333 2.85978,0 4.05042,-0.76841 4.64846,-3 z m -20.51337,-5.41202 c 0.0112,-0.59328 -0.57958,-0.70787 -1.31292,-0.25465 -0.73333,0.45323 -1.33333,0.25283 -1.33333,-0.44532 0,-0.69816 0.9,-1.61474 2,-2.03685 2.13111,-0.81778 2.8228,-6.18449 0.7971,-6.18449 -1.8208,0 -4.02981,7.43011 -3.17773,10.68846 0.56756,2.17038 1.02564,2.4364 1.87853,1.09092 0.62036,-0.97866 1.13712,-2.26479 1.14835,-2.85807 z m -28.189115,-9.86534 c 0.889001,-3.08588 2.174257,-5.95548 2.856124,-6.3769 0.681866,-0.42142 0.06533,2.64732 -1.370085,6.81942 -1.435413,4.1721 -2.609842,7.69171 -2.609842,7.82135 0,0.12964 0.836968,0.23571 1.859928,0.23571 2.733568,0 5.314199,-9.09918 4.225898,-14.90032 -0.855524,-4.56033 -1.063055,-4.74441 -2.772305,-2.45895 -1.717229,2.29612 -1.797048,2.23525 -1.131543,-0.86295 0.563645,-2.62399 0.412009,-2.90773 -0.712565,-1.33333 -0.785718,1.1 -1.437766,3.66927 -1.448996,5.70949 -0.01123,2.04022 -0.920417,5.86349 -2.020417,8.49616 -1.1,2.63267 -2,5.44691 -2,6.25385 0,2.68348 3.483446,-3.70956 5.123803,-9.40353 z m 130.209535,8.06832 c -2.64229,-2.10481 -2.6403,-2.11802 0.21833,-1.44582 2.12459,0.49959 3.07632,-0.0532 3.61087,-2.09733 C 212.15082,246.46863 209.78308,244 205.17008,244 c -4.55881,0 -5.08873,2.01254 -0.83674,3.17779 1.77772,0.48718 2.43859,1.22958 1.62206,1.82218 -1.97093,1.43039 -1.62257,4.21959 0.71127,5.69491 3.16942,2.00353 3.59395,1.42792 0.66667,-0.90392 z m -104.05197,-9.45763 c 1.33552,-6.21942 -0.23683,-5.35493 -1.97049,1.0834 -0.80221,2.9792 -1.763533,6.4292 -2.136263,7.66666 -0.372729,1.23747 0.189446,0.74994 1.249273,-1.08339 1.05984,-1.83333 2.3457,-5.28333 2.85748,-7.66667 z M 228.91083,251.75 c -0.42564,-1.06364 -0.74158,-0.7477 -0.80556,0.80556 -0.0579,1.40555 0.25724,2.19305 0.70029,1.75 0.44306,-0.44306 0.49043,-1.59306 0.10527,-2.55556 z m -1.33882,-2.68452 c 4.66508,-1.68691 5.79012,-4.25748 2.428,-5.54765 -1.1,-0.42211 -2,-0.1863 -2,0.52402 0,0.71031 -0.88117,1.29148 -1.95816,1.29148 -1.30017,0 -1.67223,-0.78404 -1.10724,-2.33333 0.78875,-2.16289 0.66395,-2.17653 -1.70852,-0.18664 -1.40768,1.18067 -3.75942,2.87196 -5.22608,3.7584 -2.5673,1.55166 -2.55488,1.5881 0.33333,0.97814 1.98936,-0.42014 3,-0.002 3,1.24159 0,2.28458 0.605,2.31115 6.23867,0.27399 z M 155.417,240.43847 c 2.05342,-2.69218 3.05257,-4.47403 2.22033,-3.95968 -1.70696,1.05496 -7.47925,8.85454 -6.55304,8.85454 0.32957,0 2.27928,-2.20269 4.33271,-4.89486 z m 52.91634,0.0118 c -0.91667,-0.36988 -1.66667,-1.44905 -1.66667,-2.39814 0,-2.3385 -3.51507,-5.10268 -5.60355,-4.40652 -1.94107,0.64702 5.05642,7.75468 7.46492,7.58244 0.87077,-0.0623 0.79125,-0.37994 -0.1947,-0.77778 z m -66.26418,-4.33839 c -0.35255,-0.57044 1.12636,-2.73041 3.28647,-4.79993 3.87256,-3.71014 3.88967,-3.78923 1.22408,-5.65628 -3.74947,-2.62624 -6.99582,-1.16091 -5.91763,2.67108 0.50917,1.80964 0.39483,2.36423 -0.28722,1.39308 -0.83301,-1.18611 -1.56548,-0.92123 -2.76531,1 -0.89768,1.43742 -1.06749,2.61348 -0.37736,2.61348 0.69013,0 1.63841,1.20872 2.10729,2.68603 0.46888,1.47732 1.4191,2.33586 2.1116,1.90787 0.6925,-0.42799 0.97064,-1.24488 0.61808,-1.81533 z m 69.93085,0.0308 c 0,-1.47875 -4.10189,-3.15187 -5.15223,-2.10154 -0.4238,0.4238 0.11208,1.32874 1.19084,2.01097 2.49315,1.57672 3.96139,1.61029 3.96139,0.0906 z m -90.66667,-2.65388 c 0,-1.5577 -1.15823,-2.73264 -3.05033,-3.09434 -5.48268,-1.04808 -6.78929,0.41934 -2.74664,3.08466 4.77719,3.1496 5.79697,3.1513 5.79697,0.01 z m 110.62583,-2.15544 c 0,-0.73333 -0.58162,-0.43333 -1.2925,0.66667 -0.71087,1.1 -1.2925,2.6 -1.2925,3.33333 0,0.73334 0.58163,0.43334 1.2925,-0.66666 0.71088,-1.1 1.2925,-2.6 1.2925,-3.33334 z m -3.43491,0.31793 c 1.65868,-2.62957 0.38012,-4.2836 -2.46675,-3.19116 -2.3803,0.91341 -2.85624,6.69503 -0.48609,5.90499 0.86427,-0.2881 2.19305,-1.50932 2.95284,-2.71383 z M 388.91911,219 c -0.33537,-1.28333 -0.60976,-0.23333 -0.60976,2.33333 0,2.56667 0.27439,3.61667 0.60976,2.33334 0.33537,-1.28334 0.33537,-3.38334 0,-4.66667 z m -188.961,-8.07869 c 0.0446,-1.85933 -1.73902,-1.18125 -5.59333,2.12636 -1.26604,1.08646 -1.98008,2.49609 -1.58676,3.1325 0.94072,1.52211 7.12606,-3.00817 7.18009,-5.25886 z m -4.99412,-0.46635 c 2.12092,-1.51023 3.62342,-2.97867 3.33889,-3.26319 -0.78201,-0.78202 -12.96954,3.58745 -12.96954,4.64983 0,2.0539 6.01514,1.18783 9.63065,-1.38664 z m -61.99176,-3.26052 c -0.44306,-0.44305 -1.59306,-0.49042 -2.55556,-0.10526 -1.06364,0.42564 -0.7477,0.74158 0.80556,0.80556 1.40555,0.0579 2.19305,-0.25724 1.75,-0.7003 z m -2.98167,-9.84583 c 0.46712,-0.75582 -0.0681,-0.97935 -1.25464,-0.52402 -2.30989,0.88639 -2.73252,1.84208 -0.81461,1.84208 0.69006,0 1.62122,-0.59313 2.06925,-1.31806 z m 257.61913,-18.99973 c -0.31892,-1.65855 -0.59197,-0.61555 -0.60677,2.31779 -0.0148,2.93333 0.24614,4.29033 0.57987,3.01554 0.33372,-1.27478 0.34583,-3.67478 0.0269,-5.33333 z m 118.20805,-22.01555 c -0.94073,-5.68333 -2.70496,-16.93333 -3.9205,-25 -1.21554,-8.06666 -2.43968,-14.91666 -2.72031,-15.22222 -1.6488,-1.79521 -1.2055,3.00017 2.26999,24.55556 2.12831,13.2 3.87343,24.45 3.87804,25 0.005,0.55 0.50222,1 1.1058,1 0.60358,0 0.32772,-4.65 -0.61302,-10.33334 z m -119.56529,-8 c -0.33537,-1.28333 -0.60977,-0.23333 -0.60977,2.33334 0,2.56666 0.2744,3.61666 0.60977,2.33333 0.33537,-1.28333 0.33537,-3.38333 0,-4.66667 z M 130.22418,286.10339 c -0.44393,-1.15687 -0.4677,-2.98797 -0.0528,-4.06913 0.65765,-1.71379 1.01847,-1.70159 2.8153,0.0952 1.83569,1.8357 1.84147,2.28048 0.0528,4.06913 -1.78864,1.78864 -2.09637,1.77823 -2.81529,-0.0952 z M 88.752393,208.9425 c 0.500709,-1.31496 1.246256,-2.05496 1.656772,-1.64445 0.410516,0.41052 8.46e-4,1.48639 -0.910379,2.39084 -1.316821,1.30702 -1.469972,1.15387 -0.746393,-0.74639 z m 76.686207,-9.72028 c 0.064,-1.55326 0.37992,-1.8692 0.80556,-0.80555 0.38516,0.9625 0.33779,2.1125 -0.10527,2.55555 -0.44305,0.44306 -0.75818,-0.34444 -0.70029,-1.75 z M 143,199.0809 c 1.28334,-0.33537 2.33334,-1.20118 2.33334,-1.92402 0,-0.72284 0.66406,-0.90385 1.47568,-0.40224 1.79874,1.11169 -1.11768,3.27331 -4.14235,3.07027 -1.41712,-0.0951 -1.31997,-0.31196 0.33333,-0.74401 z m 23.80704,-6.18985 c 1.9579,-4.29712 3.85963,-4.62667 3.85963,-0.66883 0,1.58889 -0.39479,2.4941 -0.87732,2.01157 -0.48253,-0.48253 -1.71567,-0.18155 -2.74032,0.66883 -1.57857,1.3101 -1.61551,1.00299 -0.24199,-2.01157 z m -19.38033,-3.40664 c -0.40187,-0.65024 0.0926,-1.86556 1.09893,-2.7007 1.4087,-1.16912 2.0188,-1.02542 2.65199,0.62464 0.4523,1.1787 0.82237,2.39401 0.82237,2.7007 0,1.07256 -3.8493,0.5468 -4.57329,-0.62464 z m 17.33333,-8 c -0.40187,-0.65024 0.0926,-1.86556 1.09893,-2.7007 1.40871,-1.16912 2.0188,-1.02542 2.65199,0.62464 0.45231,1.1787 0.82238,2.39401 0.82238,2.7007 0,1.07256 -3.84931,0.5468 -4.5733,-0.62464 z"
       id="path1" />
  </g>
  <metadata
     id="metadata1">
    <rdf:RDF>
      <cc:Work
         rdf:about="">
        <dc:title>Landsat-9 Icon SVG</dc:title>
        <dc:description>Icon vector representation of landsat-9</dc:description>
        <dc:source>https://science.nasa.gov/wp-content/uploads/2023/05/landsat9.png</dc:source>
      </cc:Work>
    </rdf:RDF>
  </metadata>
</svg>
