<?xml version="1.0" encoding="UTF-8" standalone="no"?>
<svg xmlns="http://www.w3.org/2000/svg" version="1.2" baseProfile="tiny" viewBox="0.00 0.00 512.00 298.00" width="512.00" height="298.00">
<path fill="#73727b" d="
  M 313.76 72.59
  L 312.26 75.17
  A 1.13 1.11 -59.7 0 1 310.73 75.58
  L 310.02 75.17
  A 0.76 0.76 0.0 0 1 309.74 74.14
  L 310.92 72.10
  A 3.71 3.67 -7.9 0 1 311.44 71.42
  L 346.89 34.84
  L 360.26 21.83
  L 364.49 17.45
  L 365.96 15.95
  Q 366.22 15.70 366.47 15.60
  Q 372.00 9.66 378.24 4.49
  Q 378.31 4.44 378.37 4.37
  C 376.08 7.33 373.26 10.25 370.41 13.16
  C 352.01 31.98 333.03 50.26 315.13 69.62
  Q 313.80 71.07 313.76 72.59
  Z"
/>
<path fill="#81513d" d="
  M 366.47 15.60
  Q 366.22 15.70 365.96 15.95
  Q 366.24 15.46 366.47 15.60
  Z"
/>
<path fill="#81513d" d="
  M 364.49 17.45
  L 360.26 21.83
  Q 360.07 21.73 359.88 21.64
  L 364.49 17.45
  Z"
/>
<path fill="#373852" d="
  M 359.88 21.64
  Q 360.07 21.73 360.26 21.83
  L 346.89 34.84
  Q 346.74 34.65 346.60 34.46
  L 359.88 21.64
  Z"
/>
<path fill="#81513d" d="
  M 346.60 34.46
  Q 346.74 34.65 346.89 34.84
  L 311.44 71.42
  A 3.71 3.67 -7.9 0 0 310.92 72.10
  L 309.74 74.14
  A 0.76 0.76 0.0 0 0 310.02 75.17
  L 310.73 75.58
  A 1.13 1.11 -59.7 0 0 312.26 75.17
  L 313.76 72.59
  Q 314.80 72.91 315.52 73.78
  Q 314.40 73.73 314.37 75.19
  Q 314.24 80.88 314.66 89.40
  Q 315.08 97.86 315.29 103.60
  Q 316.78 144.54 317.97 175.50
  Q 318.47 188.61 318.76 190.86
  C 319.33 195.34 319.04 199.40 319.46 204.44
  C 320.12 212.43 319.80 223.12 320.50 232.19
  Q 320.93 237.69 321.16 251.48
  Q 321.16 251.52 321.30 252.54
  A 1.09 0.09 -72.0 0 1 321.09 253.42
  Q 320.96 253.87 321.50 254.48
  Q 318.81 254.29 318.48 255.48
  L 308.50 252.90
  A 0.79 0.78 6.2 0 0 307.52 253.68
  L 307.56 255.07
  A 1.16 1.16 0.0 0 0 308.54 256.18
  L 314.04 257.00
  A 1.38 1.33 68.5 0 1 314.67 257.29
  Q 315.92 258.34 317.23 257.81
  Q 315.00 260.97 311.82 261.56
  Q 304.77 262.87 300.91 266.86
  A 3.89 3.86 -77.1 0 1 299.38 267.83
  C 295.74 269.06 292.58 272.72 289.75 274.66
  Q 288.62 274.12 289.42 272.54
  A 0.34 0.34 0.0 0 0 289.08 272.05
  Q 288.40 272.11 287.69 272.49
  A 1.03 0.99 -10.5 0 0 287.18 273.20
  L 286.85 275.09
  Q 285.40 274.91 283.86 273.33
  A 2.48 2.44 -13.9 0 0 282.73 272.66
  L 274.23 270.45
  Q 275.93 270.10 277.78 270.32
  Q 280.27 270.62 281.28 270.51
  Q 286.42 269.96 290.28 269.19
  Q 290.99 269.05 291.25 269.23
  Q 291.71 269.54 291.81 270.26
  A 0.54 0.53 -1.3 0 0 292.29 270.71
  Q 292.96 270.76 293.30 270.39
  Q 293.65 270.01 293.44 269.44
  Q 293.00 268.28 293.16 267.92
  A 3.06 3.05 -4.9 0 1 294.33 266.54
  L 298.65 263.81
  A 0.27 0.26 -54.7 0 0 298.57 263.33
  L 270.00 257.00
  A 1.53 1.39 -21.1 0 1 269.59 256.84
  L 267.79 255.80
  A 0.54 0.54 0.0 0 0 266.98 256.26
  L 266.72 267.11
  A 0.74 0.74 0.0 0 0 267.32 267.86
  Q 270.16 268.40 272.40 269.94
  L 267.10 269.86
  A 0.52 0.52 0.0 0 0 266.57 270.37
  Q 266.56 273.92 267.25 277.66
  C 267.66 279.87 267.33 282.70 267.54 284.10
  C 267.96 287.02 265.58 288.35 263.12 288.06
  A 1.09 1.09 0.0 0 1 262.21 287.32
  C 260.75 283.06 260.75 279.39 263.12 275.39
  Q 264.11 273.73 264.86 271.32
  A 2.08 2.08 0.0 0 0 263.99 268.95
  Q 263.52 268.65 261.37 267.93
  Q 257.72 266.71 243.77 263.86
  C 241.24 263.34 239.73 263.49 236.59 263.45
  A 1.13 1.12 -6.2 0 1 235.50 262.58
  Q 234.25 257.44 234.58 251.99
  Q 235.52 236.33 235.55 220.34
  C 235.56 213.44 236.13 207.54 236.57 200.02
  C 236.91 194.25 236.69 186.00 237.25 178.95
  Q 238.19 194.48 237.63 209.93
  Q 237.49 213.66 236.47 216.94
  A 2.38 2.20 55.3 0 0 236.38 217.58
  L 236.37 261.66
  A 0.77 0.77 0.0 0 0 237.60 262.27
  L 258.99 246.30
  A 0.55 0.55 0.0 0 1 259.83 246.92
  Q 259.61 247.56 258.82 248.18
  A 1.20 1.14 -12.7 0 0 258.42 248.78
  Q 257.93 250.63 258.36 251.27
  A 2.35 1.76 -45.7 0 0 261.68 250.75
  Q 262.76 249.36 263.48 248.76
  A 1.25 1.24 82.6 0 1 265.39 250.25
  Q 264.91 251.34 265.00 252.73
  A 1.14 1.11 -79.6 0 0 265.62 253.66
  Q 267.81 254.73 269.08 253.20
  A 0.91 0.87 19.6 0 1 269.79 252.88
  Q 271.04 252.92 271.66 251.70
  A 0.83 0.81 -76.3 0 1 272.39 251.24
  Q 273.95 251.24 274.53 250.29
  C 275.12 249.31 274.48 247.96 274.51 247.27
  A 0.52 0.52 0.0 0 1 275.10 246.77
  C 275.95 246.89 277.57 247.76 278.94 248.02
  Q 290.20 250.11 299.45 252.75
  Q 300.60 253.08 301.65 253.05
  Q 303.05 253.02 303.10 254.62
  Q 303.14 255.98 303.84 256.59
  Q 304.55 257.22 305.90 256.70
  A 0.39 0.38 55.8 0 0 306.02 256.05
  Q 304.58 254.73 304.93 252.65
  A 0.75 0.75 0.0 0 0 304.36 251.80
  Q 289.15 248.08 274.41 244.60
  C 271.74 243.97 268.07 243.85 266.32 243.36
  Q 264.41 242.82 264.94 240.76
  A 0.31 0.31 0.0 0 0 264.45 240.44
  L 238.75 259.63
  A 0.55 0.54 72.1 0 1 237.88 259.18
  L 239.62 188.14
  A 0.20 0.20 0.0 0 1 239.95 187.99
  Q 239.97 188.01 240.04 188.08
  A 0.55 0.54 31.7 0 0 240.86 187.89
  L 241.30 187.01
  A 1.20 1.16 84.7 0 1 241.59 186.65
  L 264.25 166.79
  A 0.53 0.53 0.0 0 1 265.13 167.19
  L 265.13 209.84
  A 2.10 2.08 -18.6 0 1 264.29 211.51
  L 260.68 214.21
  A 0.57 0.57 0.0 0 0 260.73 215.16
  L 263.79 216.92
  A 2.59 2.58 -74.5 0 1 265.08 219.21
  L 264.76 238.45
  A 2.66 2.65 -72.3 0 0 265.92 240.70
  Q 265.96 240.72 265.95 241.35
  A 0.95 0.95 0.0 0 0 266.81 242.32
  Q 268.46 242.47 270.75 242.29
  Q 272.76 242.13 275.99 242.89
  Q 288.55 245.81 299.03 248.56
  Q 301.03 249.08 308.56 250.61
  Q 313.32 251.57 318.00 252.96
  Q 319.31 253.47 319.78 252.71
  A 0.50 0.48 53.7 0 0 319.83 252.32
  L 319.40 250.82
  A 1.20 1.16 50.2 0 1 319.46 250.03
  Q 320.41 247.92 317.58 246.98
  Q 311.90 245.08 308.27 244.65
  Q 310.22 243.26 310.51 241.58
  L 303.89 221.17
  L 305.20 222.46
  L 311.58 244.74
  A 0.56 0.56 0.0 0 0 312.65 244.77
  L 313.13 243.44
  A 2.16 2.15 -44.8 0 0 313.14 242.00
  L 306.17 222.21
  L 305.79 220.09
  Q 306.72 220.08 307.20 220.35
  L 313.69 243.27
  A 0.26 0.25 71.6 0 0 314.02 243.44
  Q 314.18 243.38 314.28 243.27
  Q 314.43 243.10 314.37 242.74
  Q 313.22 235.74 312.81 234.56
  Q 310.40 227.56 307.98 220.49
  Q 309.83 221.16 311.15 222.59
  Q 314.73 226.49 317.90 230.44
  A 0.47 0.46 23.6 0 0 318.73 230.12
  L 318.10 222.39
  Q 318.51 222.09 318.64 221.79
  Q 318.78 221.48 318.39 221.11
  Q 317.36 220.12 317.40 218.50
  Q 317.48 215.52 317.45 206.61
  Q 318.85 202.89 317.60 199.06
  A 2.11 2.03 34.5 0 1 317.50 198.57
  L 316.81 187.39
  A 0.22 0.18 28.8 0 0 316.76 187.26
  L 316.55 187.06
  A 0.74 0.72 -66.2 0 1 316.34 186.50
  C 316.54 182.58 315.98 178.82 316.14 175.12
  Q 316.50 167.25 315.57 157.46
  A 1.74 1.73 5.8 0 0 314.35 155.97
  L 271.13 142.65
  L 271.30 142.15
  A 0.60 0.60 0.0 0 1 272.01 141.75
  L 282.14 144.13
  A 2.34 2.34 0.0 0 1 282.73 144.35
  Q 286.76 146.44 287.81 146.59
  Q 295.81 147.72 302.02 150.76
  A 6.59 6.46 -25.3 0 0 303.55 151.29
  Q 308.55 152.36 313.23 154.47
  A 0.90 0.89 11.2 0 0 314.49 153.63
  L 314.20 143.56
  A 3.48 3.47 21.6 0 0 313.17 141.19
  L 306.88 134.89
  A 4.98 4.89 79.2 0 0 305.42 133.88
  C 302.76 132.68 299.43 132.17 295.96 131.09
  Q 282.10 126.76 280.16 126.35
  Q 276.17 125.48 272.59 128.62
  A 0.75 0.74 26.9 0 1 272.03 128.80
  Q 270.97 128.71 270.96 127.50
  L 276.73 124.64
  A 3.92 3.89 40.4 0 1 279.65 124.42
  Q 303.88 132.15 304.42 132.34
  Q 307.01 133.24 308.52 135.00
  Q 311.85 138.88 314.81 141.39
  A 0.39 0.39 0.0 0 0 315.44 140.99
  L 314.47 137.43
  A 2.68 2.31 40.8 0 1 314.39 136.89
  L 313.37 101.22
  A 2.55 2.54 -81.4 0 0 311.65 98.88
  L 292.23 92.21
  A 0.78 0.43 -16.0 0 0 292.10 92.18
  C 289.78 92.03 288.63 90.89 286.68 90.24
  Q 278.72 87.55 270.75 84.74
  L 271.04 70.99
  L 277.01 68.48
  A 2.05 2.03 43.2 0 1 278.47 68.44
  Q 288.40 71.93 298.42 75.59
  Q 300.78 76.45 303.95 76.57
  A 0.46 0.46 0.0 0 0 304.29 75.79
  L 302.09 73.59
  A 1.41 1.38 -12.0 0 0 301.63 73.30
  L 280.63 65.70
  A 1.09 0.92 -27.9 0 0 280.31 65.63
  L 277.23 65.56
  A 1.42 1.41 -28.9 0 1 276.56 65.37
  L 270.47 61.90
  Q 274.16 61.90 277.78 64.13
  A 0.99 0.99 0.0 0 0 279.25 63.01
  L 278.74 61.28
  Q 285.19 63.73 291.51 66.13
  C 292.65 66.57 293.93 66.46 294.63 67.31
  A 0.61 0.60 -14.1 0 0 294.99 67.52
  L 297.40 68.06
  A 0.55 0.55 0.0 0 1 297.70 68.24
  C 298.61 69.36 300.43 68.84 301.37 69.73
  Q 301.86 70.19 303.85 70.47
  A 2.19 2.11 -21.5 0 1 304.82 70.87
  Q 307.15 72.64 308.99 70.94
  C 321.79 59.04 334.18 46.76 346.60 34.46
  Z
  M 273.77 84.10
  Q 278.43 86.20 284.97 88.06
  Q 286.29 88.43 288.05 89.24
  Q 290.61 90.41 292.59 87.34
  Q 295.53 82.81 299.46 79.49
  A 1.12 1.11 43.1 0 0 299.40 77.74
  Q 296.74 75.78 293.09 74.63
  Q 285.52 72.25 279.84 70.15
  Q 278.24 69.56 276.86 70.23
  C 271.52 72.82 272.39 78.22 273.13 83.25
  A 1.12 1.11 -82.1 0 0 273.77 84.10
  Z
  M 305.57 78.11
  L 311.77 85.18
  A 0.55 0.55 0.0 0 0 312.70 84.64
  Q 311.66 81.51 311.88 79.93
  A 0.77 0.74 39.5 0 0 311.83 79.50
  L 311.15 77.75
  A 0.93 0.92 -10.7 0 0 310.29 77.17
  L 306.00 77.17
  A 0.57 0.57 0.0 0 0 305.57 78.11
  Z
  M 311.47 97.61
  A 1.14 1.14 0.0 0 0 312.68 96.39
  L 312.03 86.77
  A 0.98 0.94 22.4 0 0 311.76 86.16
  L 305.50 79.91
  A 1.13 1.12 46.7 0 0 303.96 79.86
  L 292.96 89.50
  A 1.12 1.12 0.0 0 0 293.37 91.42
  C 296.10 92.25 298.78 92.69 301.69 93.95
  C 306.08 95.86 309.12 97.47 311.47 97.61
  Z
  M 263.98 267.64
  A 0.97 0.97 0.0 0 0 265.37 266.76
  L 265.37 256.23
  A 0.99 0.99 0.0 0 0 264.59 255.26
  L 259.13 254.05
  A 2.52 2.50 32.8 0 0 257.06 254.49
  L 250.88 259.10
  A 1.68 1.67 -33.1 0 0 250.42 261.25
  Q 252.80 265.47 257.30 265.80
  Q 260.57 266.04 263.98 267.64
  Z"
/>
<path fill="#73727b" d="
  M 278.74 61.28
  L 279.25 63.01
  A 0.99 0.99 0.0 0 1 277.78 64.13
  Q 274.16 61.90 270.47 61.90
  L 270.70 69.85
  A 1.99 1.98 32.8 0 0 270.86 70.58
  L 271.04 70.99
  L 270.75 84.74
  L 270.49 85.88
  A 1.38 1.04 -48.2 0 0 270.46 86.23
  Q 271.04 99.10 270.17 111.21
  A 15.98 15.08 46.2 0 0 270.19 113.70
  Q 270.78 120.00 270.38 123.78
  Q 270.15 125.98 270.96 127.50
  Q 270.79 127.55 270.69 127.68
  A 0.28 0.26 64.6 0 0 270.64 127.84
  L 270.64 139.04
  L 270.66 192.84
  L 270.71 210.03
  L 270.80 217.40
  L 270.90 235.23
  Q 269.70 238.15 271.77 239.63
  Q 273.08 240.57 275.62 239.88
  A 1.02 1.01 -35.4 0 1 276.47 240.02
  L 278.10 241.10
  A 0.85 0.70 -13.7 0 0 278.35 241.22
  Q 285.63 243.34 295.79 245.54
  Q 300.46 246.56 304.10 247.64
  Q 304.87 247.87 306.33 247.94
  A 2.89 2.79 -32.0 0 1 307.27 248.14
  Q 310.60 249.46 313.67 249.32
  A 0.81 0.79 -19.1 0 1 314.35 249.64
  Q 314.72 250.13 315.16 250.13
  Q 317.48 250.13 318.75 251.68
  Q 319.43 252.51 318.87 252.73
  Q 318.55 252.86 318.00 252.96
  Q 313.32 251.57 308.56 250.61
  Q 301.03 249.08 299.03 248.56
  Q 288.55 245.81 275.99 242.89
  Q 272.76 242.13 270.75 242.29
  Q 268.46 242.47 266.81 242.32
  A 0.95 0.95 0.0 0 1 265.95 241.35
  Q 265.96 240.72 265.92 240.70
  A 2.66 2.65 -72.3 0 1 264.76 238.45
  L 265.08 219.21
  A 2.59 2.58 -74.5 0 0 263.79 216.92
  L 260.73 215.16
  A 0.57 0.57 0.0 0 1 260.68 214.21
  L 264.29 211.51
  A 2.10 2.08 -18.6 0 0 265.13 209.84
  L 265.13 167.19
  A 0.53 0.53 0.0 0 0 264.25 166.79
  L 241.59 186.65
  A 1.20 1.16 84.7 0 0 241.30 187.01
  L 240.86 187.89
  A 0.55 0.54 31.7 0 1 240.04 188.08
  Q 239.97 188.01 239.95 187.99
  A 0.20 0.20 0.0 0 0 239.62 188.14
  L 237.88 259.18
  A 0.55 0.54 72.1 0 0 238.75 259.63
  L 264.45 240.44
  A 0.31 0.31 0.0 0 1 264.94 240.76
  Q 264.41 242.82 266.32 243.36
  C 268.07 243.85 271.74 243.97 274.41 244.60
  Q 289.15 248.08 304.36 251.80
  A 0.75 0.75 0.0 0 1 304.93 252.65
  Q 304.58 254.73 306.02 256.05
  A 0.39 0.38 55.8 0 1 305.90 256.70
  Q 304.55 257.22 303.84 256.59
  Q 303.14 255.98 303.10 254.62
  Q 303.05 253.02 301.65 253.05
  Q 300.60 253.08 299.45 252.75
  Q 290.20 250.11 278.94 248.02
  C 277.57 247.76 275.95 246.89 275.10 246.77
  A 0.52 0.52 0.0 0 0 274.51 247.27
  C 274.48 247.96 275.12 249.31 274.53 250.29
  Q 273.95 251.24 272.39 251.24
  A 0.83 0.81 -76.3 0 0 271.66 251.70
  Q 271.04 252.92 269.79 252.88
  A 0.91 0.87 19.6 0 0 269.08 253.20
  Q 267.81 254.73 265.62 253.66
  A 1.14 1.11 -79.6 0 1 265.00 252.73
  Q 264.91 251.34 265.39 250.25
  A 1.25 1.24 82.6 0 0 263.48 248.76
  Q 262.76 249.36 261.68 250.75
  A 2.35 1.76 -45.7 0 1 258.36 251.27
  Q 257.93 250.63 258.42 248.78
  A 1.20 1.14 -12.7 0 1 258.82 248.18
  Q 259.61 247.56 259.83 246.92
  A 0.55 0.55 0.0 0 0 258.99 246.30
  L 237.60 262.27
  A 0.77 0.77 0.0 0 1 236.37 261.66
  L 236.38 217.58
  A 2.38 2.20 55.3 0 1 236.47 216.94
  Q 237.49 213.66 237.63 209.93
  Q 238.19 194.48 237.25 178.95
  L 237.87 158.29
  Q 237.76 158.80 237.87 158.88
  A 0.20 0.19 20.0 0 0 238.18 158.74
  Q 239.32 137.34 238.26 116.20
  Q 237.94 110.99 237.61 105.67
  Q 237.53 104.32 235.67 105.31
  Q 235.57 103.61 238.13 101.99
  A 1.03 1.03 0.0 0 0 238.62 101.23
  Q 238.80 99.86 237.62 99.26
  L 238.54 96.27
  Q 238.88 96.50 239.03 96.26
  Q 239.19 95.98 239.02 95.56
  Q 239.28 95.23 239.18 94.78
  L 240.36 87.18
  A 1.71 1.69 41.4 0 0 240.31 86.43
  Q 239.40 83.27 236.75 82.98
  Q 236.38 82.94 236.21 82.72
  Q 236.05 82.51 236.04 82.50
  A 0.80 0.77 80.7 0 0 235.65 82.21
  L 225.68 78.72
  A 0.33 0.33 0.0 0 1 225.74 78.09
  Q 226.98 77.88 228.37 78.18
  Q 233.23 79.24 237.81 79.43
  Q 238.96 79.48 239.72 80.44
  Q 238.58 80.03 237.41 80.32
  A 0.05 0.05 0.0 0 0 237.40 80.42
  L 244.77 83.09
  A 0.77 0.77 0.0 0 1 244.72 84.55
  Q 241.18 85.59 242.37 89.40
  A 0.18 0.17 -51.4 0 0 242.71 89.36
  Q 242.86 87.91 243.46 86.71
  L 243.14 92.91
  A 0.32 0.32 0.0 0 0 243.73 93.11
  Q 246.01 89.73 245.33 86.77
  L 258.90 91.01
  A 2.55 2.52 18.5 0 0 262.06 89.46
  L 262.13 89.29
  A 2.10 2.10 0.0 0 0 260.91 86.52
  L 250.99 82.85
  A 0.54 0.54 0.0 0 0 250.74 82.81
  Q 249.10 82.91 248.70 82.51
  A 0.79 0.79 0.0 0 1 248.67 81.41
  Q 255.22 74.19 260.92 67.93
  Q 262.03 66.71 260.94 65.20
  L 267.56 57.63
  A 1.51 1.49 31.9 0 1 269.27 57.24
  L 278.74 61.28
  Z
  M 241.19 149.54
  Q 241.46 148.57 242.33 148.12
  A 1.21 1.20 -4.0 0 0 242.93 147.44
  L 244.59 142.87
  A 0.32 0.24 63.4 0 0 244.61 142.76
  Q 244.69 142.12 243.89 141.89
  Q 243.76 141.84 243.66 141.63
  Q 243.64 141.59 243.61 141.20
  A 0.28 0.28 0.0 0 1 243.89 140.89
  L 245.92 140.94
  A 0.82 0.78 22.5 0 0 246.51 140.71
  L 260.32 126.90
  A 1.47 1.45 32.3 0 1 261.87 126.56
  L 264.36 127.46
  A 0.55 0.54 -79.8 0 0 265.08 126.95
  Q 265.12 124.66 265.69 119.67
  C 266.19 115.17 265.24 109.66 265.70 105.03
  Q 265.82 103.88 265.23 100.54
  Q 265.05 99.49 264.60 96.03
  Q 264.46 94.96 262.37 94.05
  A 0.37 0.37 0.0 0 0 261.86 94.43
  Q 261.86 94.46 263.65 96.53
  A 0.80 0.79 45.3 0 1 263.65 97.58
  Q 263.27 98.02 262.59 98.35
  A 0.78 0.73 -86.2 0 0 262.26 98.66
  L 259.60 103.26
  A 1.17 1.17 0.0 0 1 257.59 103.29
  L 257.29 102.79
  A 3.49 3.47 -47.2 0 1 257.17 99.33
  Q 258.61 96.61 260.67 94.70
  A 0.41 0.40 33.6 0 0 260.53 94.02
  L 260.21 93.90
  A 1.61 1.60 -53.4 0 0 258.69 94.13
  Q 257.39 95.12 256.36 96.89
  A 0.84 0.84 0.0 0 1 255.55 97.31
  Q 254.35 97.21 252.67 99.17
  Q 248.44 104.07 244.15 107.77
  A 0.44 0.43 -27.7 0 1 243.45 107.56
  C 242.53 104.09 243.06 99.94 243.15 96.60
  A 0.35 0.35 0.0 0 0 242.72 96.25
  L 242.11 96.40
  A 0.06 0.05 84.3 0 0 242.07 96.46
  Q 241.95 106.54 241.82 118.55
  Q 241.79 121.49 241.08 123.85
  C 239.97 127.49 241.35 131.49 241.19 135.23
  Q 240.82 144.25 240.93 149.51
  A 0.13 0.13 0.0 0 0 241.19 149.54
  Z
  M 242.0652 151.1903
  A 0.26 0.26 0.0 0 0 241.8098 150.9258
  L 241.2699 150.9164
  A 0.26 0.26 0.0 0 0 241.0054 151.1718
  L 240.7548 165.5297
  A 0.26 0.26 0.0 0 0 241.0102 165.7942
  L 241.5501 165.8036
  A 0.26 0.26 0.0 0 0 241.8146 165.5482
  L 242.0652 151.1903
  Z
  M 243.0635 163.9906
  A 2.04 0.70 -76.0 0 0 241.8908 165.8007
  A 2.04 0.70 -76.0 0 0 242.0765 167.9494
  A 2.04 0.70 -76.0 0 0 243.2492 166.1393
  A 2.04 0.70 -76.0 0 0 243.0635 163.9906
  Z"
/>
<path fill="#cf8631" d="
  M 270.47 61.90
  L 276.56 65.37
  A 1.42 1.41 -28.9 0 0 277.23 65.56
  L 280.31 65.63
  A 1.09 0.92 -27.9 0 1 280.63 65.70
  L 301.63 73.30
  A 1.41 1.38 -12.0 0 1 302.09 73.59
  L 304.29 75.79
  A 0.46 0.46 0.0 0 1 303.95 76.57
  Q 300.78 76.45 298.42 75.59
  Q 288.40 71.93 278.47 68.44
  A 2.05 2.03 43.2 0 0 277.01 68.48
  L 271.04 70.99
  L 270.86 70.58
  A 1.99 1.98 32.8 0 1 270.70 69.85
  L 270.47 61.90
  Z"
/>
<path fill="#373852" d="
  M 260.94 65.20
  Q 262.03 66.71 260.92 67.93
  Q 255.22 74.19 248.67 81.41
  A 0.79 0.79 0.0 0 0 248.70 82.51
  Q 249.10 82.91 250.74 82.81
  A 0.54 0.54 0.0 0 1 250.99 82.85
  L 260.91 86.52
  A 2.10 2.10 0.0 0 1 262.13 89.29
  L 262.06 89.46
  A 2.55 2.52 18.5 0 1 258.90 91.01
  L 245.33 86.77
  L 243.46 86.71
  Q 242.86 87.91 242.71 89.36
  A 0.18 0.17 -51.4 0 1 242.37 89.40
  Q 241.18 85.59 244.72 84.55
  A 0.77 0.77 0.0 0 0 244.77 83.09
  L 237.40 80.42
  A 0.05 0.05 0.0 0 1 237.41 80.32
  Q 238.58 80.03 239.72 80.44
  L 242.43 80.74
  A 1.33 1.30 -19.2 0 1 243.20 81.10
  Q 244.78 82.64 246.56 80.80
  Q 255.76 71.33 260.94 65.20
  Z"
/>
<path fill="#373852" d="
  M 273.13 83.25
  C 272.39 78.22 271.52 72.82 276.86 70.23
  Q 278.24 69.56 279.84 70.15
  Q 285.52 72.25 293.09 74.63
  Q 296.74 75.78 299.40 77.74
  A 1.12 1.11 43.1 0 1 299.46 79.49
  Q 295.53 82.81 292.59 87.34
  Q 290.61 90.41 288.05 89.24
  Q 286.29 88.43 284.97 88.06
  Q 278.43 86.20 273.77 84.10
  A 1.12 1.11 -82.1 0 1 273.13 83.25
  Z"
/>
<path fill="#73727b" d="
  M 315.52 73.78
  Q 317.78 76.50 317.52 79.89
  A 2.23 2.23 0.0 0 0 318.88 82.11
  Q 349.11 94.71 379.28 105.18
  Q 401.15 112.78 410.59 116.35
  Q 419.72 119.81 438.02 125.51
  C 440.53 126.30 443.62 127.77 446.11 128.68
  Q 474.91 139.22 503.99 149.77
  Q 504.51 149.95 507.49 151.56
  A 0.09 0.09 0.0 0 1 507.42 151.73
  C 490.06 146.50 472.00 139.40 455.15 133.41
  Q 421.38 121.40 401.69 114.60
  C 397.76 113.25 394.02 112.21 390.38 110.80
  Q 361.41 99.60 330.51 89.64
  C 326.13 88.23 322.21 87.38 318.44 85.39
  A 0.65 0.65 0.0 0 0 317.49 85.99
  L 322.13 201.27
  Q 321.99 202.59 322.29 203.73
  L 322.60 223.56
  L 322.73 229.17
  L 323.31 233.53
  Q 323.45 233.88 323.30 234.23
  L 323.88 253.68
  A 0.78 0.78 0.0 0 1 323.39 254.42
  Q 322.64 254.73 321.50 254.48
  Q 320.96 253.87 321.09 253.42
  A 1.09 0.09 -72.0 0 0 321.30 252.54
  Q 321.16 251.52 321.16 251.48
  Q 320.93 237.69 320.50 232.19
  C 319.80 223.12 320.12 212.43 319.46 204.44
  C 319.04 199.40 319.33 195.34 318.76 190.86
  Q 318.47 188.61 317.97 175.50
  Q 316.78 144.54 315.29 103.60
  Q 315.08 97.86 314.66 89.40
  Q 314.24 80.88 314.37 75.19
  Q 314.40 73.73 315.52 73.78
  Z"
/>
<path fill="#cf8631" d="
  M 305.57 78.11
  A 0.57 0.57 0.0 0 1 306.00 77.17
  L 310.29 77.17
  A 0.93 0.92 -10.7 0 1 311.15 77.75
  L 311.83 79.50
  A 0.77 0.74 39.5 0 1 311.88 79.93
  Q 311.66 81.51 312.70 84.64
  A 0.55 0.55 0.0 0 1 311.77 85.18
  L 305.57 78.11
  Z"
/>
<path fill="#373852" d="
  M 311.47 97.61
  C 309.12 97.47 306.08 95.86 301.69 93.95
  C 298.78 92.69 296.10 92.25 293.37 91.42
  A 1.12 1.12 0.0 0 1 292.96 89.50
  L 303.96 79.86
  A 1.13 1.12 46.7 0 1 305.50 79.91
  L 311.76 86.16
  A 0.98 0.94 22.4 0 1 312.03 86.77
  L 312.68 96.39
  A 1.14 1.14 0.0 0 1 311.47 97.61
  Z"
/>
<path fill="#cf8631" d="
  M 270.96 127.50
  Q 270.15 125.98 270.38 123.78
  Q 270.78 120.00 270.19 113.70
  A 15.98 15.08 46.2 0 1 270.17 111.21
  Q 271.04 99.10 270.46 86.23
  A 1.38 1.04 -48.2 0 1 270.49 85.88
  L 270.75 84.74
  Q 278.72 87.55 286.68 90.24
  C 288.63 90.89 289.78 92.03 292.10 92.18
  A 0.78 0.43 -16.0 0 1 292.23 92.21
  L 311.65 98.88
  A 2.55 2.54 -81.4 0 1 313.37 101.22
  L 314.39 136.89
  A 2.68 2.31 40.8 0 0 314.47 137.43
  L 315.44 140.99
  A 0.39 0.39 0.0 0 1 314.81 141.39
  Q 311.85 138.88 308.52 135.00
  Q 307.01 133.24 304.42 132.34
  Q 303.88 132.15 279.65 124.42
  A 3.92 3.89 40.4 0 0 276.73 124.64
  L 270.96 127.50
  Z
  M 309.7643 131.9537
  A 0.54 0.34 -131.2 0 0 309.8642 132.5840
  A 0.54 0.34 -131.2 0 0 310.4757 132.7663
  A 0.54 0.34 -131.2 0 0 310.3758 132.1360
  A 0.54 0.34 -131.2 0 0 309.7643 131.9537
  Z"
/>
<path fill="#81513d" d="
  M 245.33 86.77
  Q 246.01 89.73 243.73 93.11
  A 0.32 0.32 0.0 0 1 243.14 92.91
  L 243.46 86.71
  L 245.33 86.77
  Z"
/>
<path fill="#81513d" d="
  M 240.93 149.51
  Q 240.82 144.25 241.19 135.23
  C 241.35 131.49 239.97 127.49 241.08 123.85
  Q 241.79 121.49 241.82 118.55
  Q 241.95 106.54 242.07 96.46
  A 0.06 0.05 84.3 0 1 242.11 96.40
  L 242.72 96.25
  A 0.35 0.35 0.0 0 1 243.15 96.60
  C 243.06 99.94 242.53 104.09 243.45 107.56
  A 0.44 0.43 -27.7 0 0 244.15 107.77
  Q 248.44 104.07 252.67 99.17
  Q 254.35 97.21 255.55 97.31
  A 0.84 0.84 0.0 0 0 256.36 96.89
  Q 257.39 95.12 258.69 94.13
  A 1.61 1.60 -53.4 0 1 260.21 93.90
  L 260.53 94.02
  A 0.41 0.40 33.6 0 1 260.67 94.70
  Q 258.61 96.61 257.17 99.33
  A 3.49 3.47 -47.2 0 0 257.29 102.79
  L 257.59 103.29
  A 1.17 1.17 0.0 0 0 259.60 103.26
  L 262.26 98.66
  A 0.78 0.73 -86.2 0 1 262.59 98.35
  Q 263.27 98.02 263.65 97.58
  A 0.80 0.79 45.3 0 0 263.65 96.53
  Q 261.86 94.46 261.86 94.43
  A 0.37 0.37 0.0 0 1 262.37 94.05
  Q 264.46 94.96 264.60 96.03
  Q 265.05 99.49 265.23 100.54
  Q 265.82 103.88 265.70 105.03
  C 265.24 109.66 266.19 115.17 265.69 119.67
  Q 265.12 124.66 265.08 126.95
  A 0.55 0.54 -79.8 0 1 264.36 127.46
  L 261.87 126.56
  A 1.47 1.45 32.3 0 0 260.32 126.90
  L 246.51 140.71
  A 0.82 0.78 22.5 0 1 245.92 140.94
  L 243.89 140.89
  A 0.28 0.28 0.0 0 0 243.61 141.20
  Q 243.64 141.59 243.66 141.63
  Q 243.76 141.84 243.89 141.89
  Q 244.69 142.12 244.61 142.76
  A 0.32 0.24 63.4 0 1 244.59 142.87
  L 242.93 147.44
  A 1.21 1.20 -4.0 0 1 242.33 148.12
  Q 241.46 148.57 241.19 149.54
  A 0.13 0.13 0.0 0 1 240.93 149.51
  Z"
/>
<path fill="#81513d" d="
  M 239.18 94.78
  Q 239.28 95.23 239.02 95.56
  L 239.18 94.78
  Z"
/>
<path fill="#373852" d="
  M 239.02 95.56
  Q 239.19 95.98 239.03 96.26
  Q 238.88 96.50 238.54 96.27
  Q 238.73 95.83 239.02 95.56
  Z"
/>
<path fill="#595659" fill-opacity="0.584" d="
  M 237.62 99.26
  Q 238.80 99.86 238.62 101.23
  A 1.03 1.03 0.0 0 1 238.13 101.99
  Q 235.57 103.61 235.67 105.31
  L 222.32 119.88
  A 1.93 1.91 9.8 0 1 221.66 120.34
  L 221.10 120.58
  Q 220.88 120.09 220.87 119.67
  Q 220.86 119.26 221.23 118.84
  Q 225.87 113.39 231.04 108.47
  A 4.77 4.69 -4.7 0 0 231.60 107.82
  L 237.62 99.26
  Z"
/>
<path fill="#81513d" d="
  M 237.87 158.29
  L 238.26 116.20
  Q 239.32 137.34 238.18 158.74
  A 0.20 0.19 20.0 0 1 237.87 158.88
  Q 237.76 158.80 237.87 158.29
  Z"
/>
<path fill="#595659" fill-opacity="0.584" d="
  M 221.10 120.58
  L 212.36 129.64
  A 0.04 0.03 38.0 0 1 212.31 129.64
  L 212.06 129.39
  A 0.27 0.27 0.0 0 1 212.06 129.01
  L 220.61 120.47
  A 0.22 0.22 0.0 0 1 220.88 120.44
  Q 220.98 120.50 221.10 120.58
  Z"
/>
<path fill="#373852" d="
  M 271.13 142.65
  Q 270.37 141.45 270.64 139.04
  L 270.64 127.84
  A 0.28 0.26 64.6 0 1 270.69 127.68
  Q 270.79 127.55 270.96 127.50
  Q 270.97 128.71 272.03 128.80
  A 0.75 0.74 26.9 0 0 272.59 128.62
  Q 276.17 125.48 280.16 126.35
  Q 282.10 126.76 295.96 131.09
  C 299.43 132.17 302.76 132.68 305.42 133.88
  A 4.98 4.89 79.2 0 1 306.88 134.89
  L 313.17 141.19
  A 3.48 3.47 21.6 0 1 314.20 143.56
  L 314.49 153.63
  A 0.90 0.89 11.2 0 1 313.23 154.47
  Q 308.55 152.36 303.55 151.29
  A 6.59 6.46 -25.3 0 1 302.02 150.76
  Q 295.81 147.72 287.81 146.59
  Q 286.76 146.44 282.73 144.35
  A 2.34 2.34 0.0 0 0 282.14 144.13
  L 272.01 141.75
  A 0.60 0.60 0.0 0 0 271.30 142.15
  L 271.13 142.65
  Z"
/>
<path fill="#595659" fill-opacity="0.584" d="
  M 209.60 131.88
  Q 209.98 131.08 210.10 131.06
  A 0.36 0.36 0.0 0 1 210.44 131.64
  Q 209.97 132.20 209.95 132.21
  A 0.25 0.25 0.0 0 1 209.60 131.88
  Z"
/>
<ellipse fill="#81513d" cx="0.00" cy="0.00" transform="translate(310.12,132.36) rotate(-131.2)" rx="0.54" ry="0.34"/>
<path fill="#cf8631" d="
  M 270.64 139.04
  Q 270.37 141.45 271.13 142.65
  L 314.35 155.97
  A 1.74 1.73 5.8 0 1 315.57 157.46
  Q 316.50 167.25 316.14 175.12
  C 315.98 178.82 316.54 182.58 316.34 186.50
  A 0.74 0.72 -66.2 0 0 316.55 187.06
  L 316.76 187.26
  A 0.22 0.18 28.8 0 1 316.81 187.39
  L 317.50 198.57
  A 2.11 2.03 34.5 0 0 317.60 199.06
  Q 318.85 202.89 317.45 206.61
  Q 314.03 202.87 311.23 199.52
  C 309.97 198.01 308.39 196.79 306.67 196.34
  Q 299.25 194.40 291.74 192.16
  L 288.00 191.26
  L 279.84 188.91
  A 3.08 3.07 -51.0 0 0 277.50 189.16
  L 270.66 192.84
  L 270.64 139.04
  Z
  M 280.9717 149.2044
  A 6.48 5.01 -131.2 0 0 281.4704 157.3800
  A 6.48 5.01 -131.2 0 0 289.5083 158.9556
  A 6.48 5.01 -131.2 0 0 289.0096 150.7800
  A 6.48 5.01 -131.2 0 0 280.9717 149.2044
  Z
  M 276.2435 169.8305
  A 0.79 0.52 -146.2 0 0 276.6107 170.7021
  A 0.79 0.52 -146.2 0 0 277.5565 170.7095
  A 0.79 0.52 -146.2 0 0 277.1893 169.8379
  A 0.79 0.52 -146.2 0 0 276.2435 169.8305
  Z
  M 310.2690 179.7453
  A 0.69 0.52 -134.2 0 0 310.3772 180.6025
  A 0.69 0.52 -134.2 0 0 311.2310 180.7347
  A 0.69 0.52 -134.2 0 0 311.1228 179.8775
  A 0.69 0.52 -134.2 0 0 310.2690 179.7453
  Z
  M 278.00 185.07
  A 0.95 0.95 0.0 0 0 277.05 184.12
  A 0.95 0.95 0.0 0 0 276.10 185.07
  A 0.95 0.95 0.0 0 0 277.05 186.02
  A 0.95 0.95 0.0 0 0 278.00 185.07
  Z"
/>
<path fill="#81513d" d="
  M 280.9717 149.2044
  A 6.48 5.01 -131.2 0 1 289.0096 150.7800
  A 6.48 5.01 -131.2 0 1 289.5083 158.9556
  A 6.48 5.01 -131.2 0 1 281.4704 157.3800
  A 6.48 5.01 -131.2 0 1 280.9717 149.2044
  Z
  M 281.6980 149.9818
  A 5.45 4.03 -132.5 0 0 282.4088 156.7226
  A 5.45 4.03 -132.5 0 0 289.0620 158.0182
  A 5.45 4.03 -132.5 0 0 288.3512 151.2774
  A 5.45 4.03 -132.5 0 0 281.6980 149.9818
  Z"
/>
<ellipse fill="#73727b" cx="0.00" cy="0.00" transform="translate(285.38,154.00) rotate(-132.5)" rx="5.45" ry="4.03"/>
<rect fill="#373852" x="-0.53" y="-7.44" transform="translate(241.41,158.36) rotate(1.0)" width="1.06" height="14.88" rx="0.26"/>
<ellipse fill="#81513d" cx="0.00" cy="0.00" transform="translate(242.57,165.97) rotate(-76.0)" rx="2.04" ry="0.70"/>
<ellipse fill="#81513d" cx="0.00" cy="0.00" transform="translate(276.90,170.27) rotate(-146.2)" rx="0.79" ry="0.52"/>
<ellipse fill="#81513d" cx="0.00" cy="0.00" transform="translate(310.75,180.24) rotate(-134.2)" rx="0.69" ry="0.52"/>
<circle fill="#81513d" cx="277.05" cy="185.07" r="0.95"/>
<path fill="#7a7a93" d="
  M 288.00 191.26
  L 288.53 192.81
  C 294.22 198.97 297.16 208.68 298.13 216.87
  L 270.71 210.03
  L 270.66 192.84
  L 277.50 189.16
  A 3.08 3.07 -51.0 0 1 279.84 188.91
  L 288.00 191.26
  Z"
/>
<path fill="#73727b" d="
  M 291.74 192.16
  Q 294.41 195.75 296.43 200.60
  Q 301.09 211.77 302.76 217.40
  A 0.19 0.19 0.0 0 1 302.51 217.63
  L 300.42 216.87
  A 0.32 0.32 0.0 0 1 300.21 216.66
  Q 294.49 199.77 293.36 197.38
  Q 292.01 194.53 288.53 192.81
  L 288.00 191.26
  L 291.74 192.16
  Z"
/>
<path fill="#373852" d="
  M 317.45 206.61
  Q 317.48 215.52 317.40 218.50
  Q 317.36 220.12 318.39 221.11
  Q 318.78 221.48 318.64 221.79
  Q 318.51 222.09 318.10 222.39
  L 306.16 218.98
  A 0.20 0.17 49.7 0 1 306.10 218.97
  L 303.03 218.40
  Q 302.97 218.22 302.70 218.30
  L 298.13 216.87
  C 297.16 208.68 294.22 198.97 288.53 192.81
  Q 292.01 194.53 293.36 197.38
  Q 294.49 199.77 300.21 216.66
  A 0.32 0.32 0.0 0 0 300.42 216.87
  L 302.51 217.63
  A 0.19 0.19 0.0 0 0 302.76 217.40
  Q 301.09 211.77 296.43 200.60
  Q 294.41 195.75 291.74 192.16
  Q 299.25 194.40 306.67 196.34
  C 308.39 196.79 309.97 198.01 311.23 199.52
  Q 314.03 202.87 317.45 206.61
  Z
  M 304.49 217.85
  Q 301.74 205.19 294.90 194.44
  A 0.29 0.28 59.8 0 0 294.54 194.34
  L 294.53 194.35
  A 0.12 0.12 0.0 0 0 294.48 194.50
  L 303.66 217.95
  A 0.26 0.25 -4.7 0 0 303.83 218.09
  L 304.17 218.16
  A 0.26 0.26 0.0 0 0 304.49 217.85
  Z"
/>
<path fill="#73727b" d="
  M 304.49 217.85
  A 0.26 0.26 0.0 0 1 304.17 218.16
  L 303.83 218.09
  A 0.26 0.25 -4.7 0 1 303.66 217.95
  L 294.48 194.50
  A 0.12 0.12 0.0 0 1 294.53 194.35
  L 294.54 194.34
  A 0.29 0.28 59.8 0 1 294.90 194.44
  Q 301.74 205.19 304.49 217.85
  Z"
/>
<path fill="#81513d" d="
  M 322.29 203.73
  Q 321.99 202.59 322.13 201.27
  L 322.29 203.73
  Z"
/>
<path fill="#cf8631" d="
  M 298.13 216.87
  L 302.70 218.30
  Q 302.86 218.35 303.03 218.40
  L 306.10 218.97
  A 0.20 0.17 49.7 0 0 306.16 218.98
  L 318.10 222.39
  L 318.73 230.12
  A 0.47 0.46 23.6 0 1 317.90 230.44
  Q 314.73 226.49 311.15 222.59
  Q 309.83 221.16 307.98 220.49
  L 307.20 220.35
  Q 306.72 220.08 305.79 220.09
  Q 303.42 219.65 301.12 218.96
  Q 291.84 216.16 282.47 213.63
  Q 278.74 212.62 276.69 213.92
  Q 274.06 215.60 270.80 217.40
  L 270.71 210.03
  L 298.13 216.87
  Z"
/>
<path fill="#7a7a93" d="
  M 305.79 220.09
  L 306.17 222.21
  L 312.80 243.41
  A 0.07 0.05 66.6 0 1 312.79 243.47
  L 312.60 243.66
  A 0.28 0.27 60.5 0 1 312.14 243.53
  Q 309.37 232.73 305.20 222.46
  L 303.89 221.17
  Q 304.96 232.36 310.51 241.58
  Q 310.22 243.26 308.27 244.65
  L 270.90 235.23
  L 270.80 217.40
  Q 274.06 215.60 276.69 213.92
  Q 278.74 212.62 282.47 213.63
  Q 291.84 216.16 301.12 218.96
  Q 303.42 219.65 305.79 220.09
  Z"
/>
<path fill="#81513d" d="
  M 303.03 218.40
  Q 302.86 218.35 302.70 218.30
  Q 302.97 218.22 303.03 218.40
  Z"
/>
<path fill="#373852" d="
  M 307.20 220.35
  L 307.98 220.49
  Q 310.40 227.56 312.81 234.56
  Q 313.22 235.74 314.37 242.74
  Q 314.43 243.10 314.28 243.27
  Q 314.18 243.38 314.02 243.44
  A 0.26 0.25 71.6 0 1 313.69 243.27
  L 307.20 220.35
  Z"
/>
<path fill="#73727b" d="
  M 303.89 221.17
  L 310.51 241.58
  Q 304.96 232.36 303.89 221.17
  Z"
/>
<path fill="#73727b" d="
  M 305.20 222.46
  Q 309.37 232.73 312.14 243.53
  A 0.28 0.27 60.5 0 0 312.60 243.66
  L 312.79 243.47
  A 0.07 0.05 66.6 0 0 312.80 243.41
  L 306.17 222.21
  L 313.14 242.00
  A 2.16 2.15 -44.8 0 1 313.13 243.44
  L 312.65 244.77
  A 0.56 0.56 0.0 0 1 311.58 244.74
  L 305.20 222.46
  Z"
/>
<path fill="#81513d" d="
  M 322.73 229.17
  L 322.60 223.56
  L 322.73 229.17
  Z"
/>
<path fill="#595659" fill-opacity="0.584" d="
  M 323.30 234.23
  Q 323.45 233.88 323.31 233.53
  Q 323.47 233.87 323.30 234.23
  Z"
/>
<path fill="#cf8631" d="
  M 308.27 244.65
  Q 311.90 245.08 317.58 246.98
  Q 320.41 247.92 319.46 250.03
  A 1.20 1.16 50.2 0 0 319.40 250.82
  L 319.83 252.32
  A 0.50 0.48 53.7 0 1 319.78 252.71
  Q 319.31 253.47 318.00 252.96
  Q 318.55 252.86 318.87 252.73
  Q 319.43 252.51 318.75 251.68
  Q 317.48 250.13 315.16 250.13
  Q 314.72 250.13 314.35 249.64
  A 0.81 0.79 -19.1 0 0 313.67 249.32
  Q 310.60 249.46 307.27 248.14
  A 2.89 2.79 -32.0 0 0 306.33 247.94
  Q 304.87 247.87 304.10 247.64
  Q 300.46 246.56 295.79 245.54
  Q 285.63 243.34 278.35 241.22
  A 0.85 0.70 -13.7 0 1 278.10 241.10
  L 276.47 240.02
  A 1.02 1.01 -35.4 0 0 275.62 239.88
  Q 273.08 240.57 271.77 239.63
  Q 269.70 238.15 270.90 235.23
  L 308.27 244.65
  Z"
/>
<path fill="#73727b" d="
  M 318.48 255.48
  L 317.23 257.81
  Q 315.92 258.34 314.67 257.29
  A 1.38 1.33 68.5 0 0 314.04 257.00
  L 308.54 256.18
  A 1.16 1.16 0.0 0 1 307.56 255.07
  L 307.52 253.68
  A 0.79 0.78 6.2 0 1 308.50 252.90
  L 318.48 255.48
  Z"
/>
<path fill="#73727b" d="
  M 263.98 267.64
  Q 260.57 266.04 257.30 265.80
  Q 252.80 265.47 250.42 261.25
  A 1.68 1.67 -33.1 0 1 250.88 259.10
  L 257.06 254.49
  A 2.52 2.50 32.8 0 1 259.13 254.05
  L 264.59 255.26
  A 0.99 0.99 0.0 0 1 265.37 256.23
  L 265.37 266.76
  A 0.97 0.97 0.0 0 1 263.98 267.64
  Z"
/>
<path fill="#73727b" d="
  M 274.23 270.45
  Q 272.90 270.48 272.40 269.94
  Q 270.16 268.40 267.32 267.86
  A 0.74 0.74 0.0 0 1 266.72 267.11
  L 266.98 256.26
  A 0.54 0.54 0.0 0 1 267.79 255.80
  L 269.59 256.84
  A 1.53 1.39 -21.1 0 0 270.00 257.00
  L 298.57 263.33
  A 0.27 0.26 -54.7 0 1 298.65 263.81
  L 294.33 266.54
  A 3.06 3.05 -4.9 0 0 293.16 267.92
  Q 293.00 268.28 293.44 269.44
  Q 293.65 270.01 293.30 270.39
  Q 292.96 270.76 292.29 270.71
  A 0.54 0.53 -1.3 0 1 291.81 270.26
  Q 291.71 269.54 291.25 269.23
  Q 290.99 269.05 290.28 269.19
  Q 286.42 269.96 281.28 270.51
  Q 280.27 270.62 277.78 270.32
  Q 275.93 270.10 274.23 270.45
  Z"
/>
<path fill="#373852" d="
  M 289.75 274.66
  L 286.85 275.09
  L 287.18 273.20
  A 1.03 0.99 -10.5 0 1 287.69 272.49
  Q 288.40 272.11 289.08 272.05
  A 0.34 0.34 0.0 0 1 289.42 272.54
  Q 288.62 274.12 289.75 274.66
  Z"
/>
</svg>
