<?xml version="1.0" encoding="UTF-8" standalone="no"?>
<!-- Created with Inkscape (http://www.inkscape.org/) -->

<svg
   version="1.1"
   id="svg1"
   width="682.66669"
   height="397.33334"
   viewBox="0 0 682.66669 397.33334"
   xmlns="http://www.w3.org/2000/svg"
   xmlns:svg="http://www.w3.org/2000/svg">
  <defs
     id="defs1" />
  <g
     id="g1">
    <path
       style="fill:currentColor"
       d="m 349.60001,385.06668 c -2.24728,-2.24728 -1.99437,-14.67235 0.39179,-19.24759 3.58551,-6.87491 3.14852,-7.26411 -10.34152,-9.21058 -3.49235,-0.50391 -6.65615,-1.412 -7.03066,-2.01797 -0.37451,-0.60597 -4.85079,-1.51266 -9.9473,-2.01485 -7.56263,-0.74521 -9.41846,-1.3923 -10.0936,-3.51947 -0.45498,-1.43351 -0.11965,-28.8076 0.74517,-60.8313 0.86482,-32.0237 1.97074,-78.68663 2.45759,-103.6954 l 0.8852,-45.47048 -7.33334,7.73763 c -4.03333,4.2557 -13.63333,14.47177 -21.33333,22.70237 -17.08146,18.25854 -20.24849,21.36359 -21.01165,20.60043 -1.22177,-1.22177 5.90303,-9.42448 34.1032,-39.26266 11.4126,-12.0755 16.42277,-20.57308 17.49587,-29.67415 0.88518,-7.50727 0.77792,-7.93781 -2.16134,-8.67552 -1.70101,-0.42692 -3.09275,-1.21535 -3.09275,-1.75206 0,-0.53671 -3.31672,-1.77151 -7.37049,-2.74399 -4.0608,-0.97417 -7.15784,-2.41694 -6.89693,-3.21295 0.63623,-1.94112 10.06564,-2.62992 13.5109,-0.98695 1.51609,0.72299 5.45652,1.94444 8.75652,2.71434 l 6,1.3998 5.33334,-5.78526 c 11.55421,-12.533268 17.47011,-19.233061 20.53275,-23.253451 1.75969,-2.309973 3.70808,-4.19995 4.32978,-4.19995 0.62169,0 4.94006,1.8 9.59637,4 4.65631,2.2 9.30791,4.003696 10.33689,4.008214 1.02898,0.0045 3.60339,0.911744 5.7209,2.016058 2.11752,1.104314 7.21752,2.980137 11.33334,4.168496 4.11581,1.188358 7.79088,2.636096 8.1668,3.217194 0.37593,0.581098 2.22458,1.251579 4.10812,1.489957 4.4375,0.561604 10.96605,-5.087338 46.49804,-40.233253 30.25379,-29.925066 51.17837,-49.711565 53.32899,-50.4284394 0.75975,-0.2532481 1.37953,0.039549 1.3773,0.65066 -0.002,0.6111112 -19.65539,20.7516234 -43.6737,44.7566934 -24.0183,24.00507 -43.43864,44.338588 -43.1563,45.185595 0.28234,0.847008 -0.12304,1.146709 -0.90084,0.666004 -0.7778,-0.480706 -1.84834,-0.171518 -2.37899,0.687083 -0.53064,0.858602 -0.39345,1.207979 0.30487,0.776393 2.41557,-1.492904 4.68086,1.343925 5.40918,6.773906 0.7726,5.76016 3.77832,8.13909 13.0665,10.3417 2.2,0.52171 4.9,1.69089 6,2.59818 1.1,0.90729 5.3,2.7061 9.33333,3.99735 4.03334,1.29125 7.94132,2.82393 8.6844,3.40597 0.74309,0.58203 4.19309,1.77387 7.66667,2.64853 3.47358,0.87465 6.3156,2.0034 6.3156,2.50831 0,0.50491 4.2,2.00737 9.33333,3.33878 5.13334,1.33142 9.33334,2.85125 9.33334,3.3774 0,0.52616 3.32796,1.75501 7.39547,2.73079 4.0675,0.97578 7.66058,2.20311 7.9846,2.72739 0.32403,0.52429 4.64607,2.03485 9.60453,3.35681 4.95847,1.32196 9.3154,2.75254 9.68207,3.17906 0.36666,0.42652 3.66666,1.78271 7.33333,3.01376 16.0878,5.40131 22.81259,7.83288 24.86917,8.99228 1.21138,0.68291 6.01138,2.22698 10.66667,3.43126 4.65529,1.20429 9.06416,2.64286 9.79749,3.19684 0.73334,0.55398 4.18334,1.77832 7.66667,2.72075 3.48333,0.94243 6.33333,2.11987 6.33333,2.61654 0,0.49667 4.2,1.99237 9.33334,3.32379 5.13333,1.33141 9.33333,2.83364 9.33333,3.33829 0,0.50464 3.15,1.72082 7,2.70262 3.85,0.98179 8.2,2.52893 9.66667,3.43808 1.46667,0.90915 5.81667,2.43272 9.66667,3.38571 3.85,0.95299 7,2.10586 7,2.56192 0,0.45606 3.15,1.60892 7,2.56192 3.85,0.95299 8.2,2.4505 9.66666,3.32779 1.46667,0.8773 5.19148,2.32754 8.27736,3.22277 5.39726,1.56577 8.08798,3.63329 6.62822,5.09306 -0.38214,0.38213 -5.193,-0.85779 -10.69081,-2.75538 -5.49782,-1.89759 -10.94524,-3.45016 -12.1054,-3.45016 -1.16015,0 -2.10937,-0.52877 -2.10937,-1.17505 0,-0.64627 -2.816,-1.88412 -6.25777,-2.75077 -3.44178,-0.86665 -8.80886,-2.73788 -11.92685,-4.15829 -3.11799,-1.42041 -6.33491,-2.58256 -7.14871,-2.58256 -0.8138,0 -4.03072,-1.16215 -7.14871,-2.58256 -3.11799,-1.42041 -8.63507,-3.31766 -12.26018,-4.21612 -3.62511,-0.89846 -6.89111,-2.05679 -7.25778,-2.57406 -0.36667,-0.51728 -4.26667,-1.97674 -8.66667,-3.24324 -4.4,-1.26651 -8.6,-2.75293 -9.33333,-3.30315 -0.73333,-0.55023 -4.33333,-1.7991 -8,-2.77527 -3.66667,-0.97617 -6.96667,-2.16278 -7.33333,-2.63692 -0.36667,-0.47414 -4.39762,-1.89426 -8.95767,-3.15581 -4.56004,-1.26156 -9.96004,-3.16435 -12,-4.22843 -2.03995,-1.06407 -4.609,-1.94207 -5.709,-1.95111 -1.1,-0.009 -3.66905,-0.88703 -5.70901,-1.9511 -2.03995,-1.06408 -7.43995,-2.96687 -12,-4.22843 -4.56004,-1.26156 -8.59099,-2.67194 -8.95766,-3.13418 -0.71009,-0.89518 -13.23008,-5.32843 -25.33333,-8.97036 -4.03334,-1.21365 -7.6413,-2.65183 -8.01771,-3.19594 -0.3764,-0.54412 -3.6764,-1.7087 -7.33333,-2.58796 -3.65693,-0.87926 -7.84896,-2.33267 -9.31563,-3.2298 -1.46667,-0.89714 -5.96667,-2.41314 -10,-3.36889 -4.03333,-0.95576 -8.53333,-2.47922 -10,-3.38548 -1.46667,-0.90625 -5.81852,-2.37555 -9.67078,-3.2651 -3.85226,-0.88956 -7.33767,-2.15708 -7.74535,-2.81673 -0.40769,-0.65965 -1.28819,-1.19936 -1.95668,-1.19936 -1.43859,0 -0.48664,34.42259 1.38275,50 1.14349,9.52861 5.39656,141.37039 5.34422,165.66667 -0.0203,9.41667 -0.10703,9.66667 -3.35416,9.66667 -1.83333,0 -3.33333,0.63382 -3.33333,1.40849 0,2.67792 -8.5714,9.25818 -12.05963,9.25818 -1.90594,0 -5.82222,1.7833 -8.70286,3.9629 -2.88063,2.1796 -5.83751,3.98247 -6.57085,4.00637 -0.73333,0.0239 -3.61672,2.1406 -6.40753,4.70376 -4.9679,4.56267 -10.87652,6.14148 -11.86673,3.17086 -0.27306,-0.8192 -4.37306,-2.2476 -9.11111,-3.17423 -4.73805,-0.92663 -9.66463,-2.12057 -10.94796,-2.65321 -2.1137,-0.87727 -2.33334,0.0839 -2.33334,10.21124 0,9.55086 -0.39073,11.51422 -2.6819,13.47599 -3.19199,2.73306 -3.03617,2.71158 -5.05143,0.69632 z m 28.19344,-177.79085 c -0.43425,-1.13162 -1.0755,-1.77154 -1.425,-1.42204 -0.34951,0.34951 -0.23998,1.27538 0.2434,2.05751 1.31474,2.12728 2.08318,1.71401 1.1816,-0.63547 z"
       id="path2" />
  </g>
</svg>
