<?xml version="1.0" encoding="UTF-8" standalone="no"?>
<!-- Created with Inkscape (http://www.inkscape.org/) -->

<svg
   version="1.1"
   id="svg1"
   width="682.66669"
   height="658.66669"
   viewBox="0 0 682.66669 658.66669"
   xmlns="http://www.w3.org/2000/svg"
   xmlns:svg="http://www.w3.org/2000/svg"
   xmlns:rdf="http://www.w3.org/1999/02/22-rdf-syntax-ns#"
   xmlns:cc="http://creativecommons.org/ns#"
   xmlns:dc="http://purl.org/dc/elements/1.1/">
  <title
     id="title1">OrbView-2 Icon SVG</title>
  <defs
     id="defs1" />
  <g
     id="g1">
    <path
       style="fill:currentColor"
       d="m 468.97605,652.00002 c -40.16624,-53.18273 -92.22403,-98.00535 -125.34334,-156.66667 -9.7153,-19.56458 -29.53476,-47.13617 -33.46544,-35.60585 5.41703,-27.72288 -22.47601,-49.52871 -32.83532,-73.93636 -13.58939,-13.59395 -17.90454,-48.15884 -42.2041,-44.4578 -14.26676,0 -28.53352,0 -42.80028,0 2.4649,-30.77534 -34.8709,4.51052 -49.40907,9.02985 -29.36487,16.18014 -58.443125,33.72717 -89.127585,46.95826 -21.681539,2.04183 -42.753999,57.33637 -53.63528845,52.6638 C 1.9153828,421.91847 -1.8129485,389.69004 17.834476,367.11733 45.739615,325.07746 97.280944,309.18971 136.2388,279.99998 c 26.83193,-12.7636 63.86507,-35.22728 34.425,-66.63991 -18.24545,-38.3456 -48.86687,-70.28136 -62.50959,-111.2306 -11.185479,-23.44293 13.18515,-65.797038 29.17913,-70.717476 5.21405,32.972991 28.64242,53.727886 48.03424,79.254646 21.16789,17.49299 22.66362,57.50838 47.27534,63.88274 32.10567,-0.69828 63.5257,22.60567 91.235,-4.88438 36.71513,-25.79512 75.85291,-47.49655 114.98976,-69.35017 58.99975,-37.041299 122.38362,-67.580978 189.73234,-85.83282 11.89809,-3.665791 18.16539,23.502861 19.07504,-3.225706 19.48444,-16.0196201 17.03023,38.455567 22.33906,51.782321 10.9522,38.311105 -43.99475,33.911956 -67.26276,45.551365 -32.50665,9.41363 -66.64841,17.82486 -92.96949,40.23276 -27.02539,19.90551 -79.93388,22.00035 -72.32746,67.17611 -7.53273,28.15402 -2.35496,54.78881 30.86098,57.3288 28.02982,15.92243 70.42726,15.97295 88.92086,42.43236 12.0999,34.58816 10.47986,70.59573 -22.7816,92.41741 -19.87988,29.60235 -56.01086,2.27479 -81.62964,-4.01083 -18.82021,-4.91673 -70.08751,-37.01682 -61.77724,2.73814 21.60955,27.99207 35.0223,61.72107 62.25777,85.29379 26.3955,28.61043 54.49449,55.86697 78.45804,86.55669 -7.87263,29.08444 -37.54089,48.79746 -55.26255,73.07186 l -3.60045,2.83958 -3.92453,-2.66667 z M 446.87819,392.92153 c -7.04171,-16.14011 -47.44001,-9.21252 -16.65391,-3.6604 2.46036,-0.5348 18.14666,8.46254 16.65391,3.6604 z m -64.55702,-4.66409 c -0.15275,-4.67597 5.43214,-6.60911 -11.78979,-10.65637 3.45046,2.57157 11.91152,20.19715 11.78979,10.65637 z m 71.01218,-3.63261 c -6.32504,-10.75417 -9.46678,8.30597 0,0 z m -28.77923,-9.10403 c -12.27264,-20.69093 -18.7107,11.68871 0,0 z m 24.40653,-1.71344 c 17.72649,-1.4032 -1.32825,-33.72886 -15.41646,-12.44456 -20.92326,6.50127 7.6785,16.57841 15.41646,12.44456 z m 11.01895,-39.47402 c -5.01501,-3.65292 -1.52778,9.97834 0,0 z m 8.74191,-9.0887 c -1.11588,-7.85646 -20.43186,5.66895 0,0 z m -276.7215,-0.57796 c -1.70328,-2.39164 -1.70333,2.39162 0,0 z m -1.33334,-2.66667 c -1.70329,-2.39166 -1.70329,2.39166 0,0 z m 273.67415,-6.8429 c 26.08618,-1.80565 -5.64156,-21.89541 -9.66577,-9.13509 4.56619,2.13623 1.30207,17.26123 9.66577,9.13509 z m 0.32586,-4.49043 c -0.0583,-4.48347 4.09336,4.44173 0,0 z m 3.5689,-2.22285 c 4.63458,-8.95558 3.2578,7.91406 0,0 z m 3.73479,-12.11049 c -7.44654,-16.59168 -51.13628,-29.54514 -23.94542,-2 7.02332,4.26906 16.2597,3.43288 23.94542,2 z m -41.85461,-52.85195 c -1.71242,-18.36401 17.56874,-66.20198 -15.34987,-41.25972 -15.11213,6.19642 -50.54331,28.47775 -18.18028,31.60141 13.64021,-4.27733 28.14521,21.49087 33.53015,9.65831 z m -39.44908,-24.81472 c 1.06705,-3.61532 1.06703,3.61533 0,0 z M 583.1849,19.239405 c 3.29852,-9.9167201 4.2579,6.805705 0,0 z m 97.74434,-6.430242 c -0.69126,-12.57158568 3.73657,7.238283 0,0 z M 678.00002,1.3333334 c 3.28767,-5.0216297 6.99547,4.6317749 0,0 z"
       id="path1" />
  </g>
  <metadata
     id="metadata1">
    <rdf:RDF>
      <cc:Work
         rdf:about="">
        <dc:title>OrbView-2 Icon SVG</dc:title>
      </cc:Work>
    </rdf:RDF>
  </metadata>
</svg>
