<?xml version="1.0" encoding="UTF-8" standalone="no"?>
<svg xmlns="http://www.w3.org/2000/svg" version="1.2" baseProfile="tiny" viewBox="0.00 0.00 512.00 494.00" width="512.00" height="494.00">
<ellipse fill="#3b4079" cx="0.00" cy="0.00" transform="translate(510.28,0.82) rotate(-178.5)" rx="1.04" ry="0.17"/>
<path fill="#3b4079" d="
  M 326.20 195.42
  L 324.32 213.17
  A 1.26 1.25 -72.1 0 1 322.45 214.13
  L 322.00 213.88
  A 3.36 3.34 -71.5 0 1 320.35 210.55
  Q 321.82 199.16 322.44 189.00
  Q 322.54 187.47 322.18 187.44
  Q 323.23 186.26 323.20 185.43
  Q 323.00 179.76 323.15 175.75
  A 8.14 7.97 53.1 0 1 323.34 174.31
  Q 325.08 166.57 325.34 163.46
  Q 325.95 156.36 326.53 154.43
  A 3.39 3.24 55.0 0 0 326.68 153.44
  Q 326.70 149.36 327.89 143.95
  A 0.91 0.90 -8.5 0 0 326.56 142.97
  L 318.84 147.36
  A 0.13 0.07 0.0 0 1 318.78 147.39
  Q 310.74 150.00 302.66 155.44
  C 301.48 156.24 299.91 156.49 298.72 157.17
  Q 292.42 160.77 287.55 164.99
  Q 284.29 166.59 284.04 169.67
  A 1.32 1.32 0.0 0 1 282.09 170.72
  Q 281.01 170.13 279.46 170.08
  A 1.81 1.81 0.0 0 0 278.52 170.30
  Q 263.86 178.08 259.48 180.74
  Q 254.43 183.82 245.39 188.65
  Q 237.86 192.66 234.45 194.71
  C 230.53 197.06 227.64 199.10 223.62 200.33
  A 1.30 1.30 0.0 0 0 222.94 202.31
  L 277.79 281.01
  Q 276.75 281.92 277.18 283.53
  A 1.82 1.78 19.7 0 0 277.49 284.17
  L 286.08 295.68
  L 291.22 301.79
  Q 295.62 310.51 301.52 318.92
  Q 309.88 330.84 310.52 331.94
  Q 313.73 337.52 318.23 345.78
  A 15.20 15.17 -81.4 0 0 320.69 349.12
  C 324.81 353.38 327.91 357.42 331.88 361.55
  Q 340.89 370.92 348.90 379.62
  Q 350.00 380.81 355.14 386.35
  Q 364.99 396.94 374.92 407.33
  Q 380.57 413.25 392.82 427.38
  C 394.25 429.03 395.43 430.88 396.68 432.67
  Q 395.15 432.56 394.28 434.13
  A 1.21 1.20 -80.9 0 1 393.48 434.71
  Q 391.89 435.05 392.59 436.89
  A 1.69 1.66 59.1 0 0 395.26 437.59
  Q 396.53 436.46 398.20 435.88
  Q 398.74 438.23 397.92 439.47
  C 396.37 441.79 394.87 444.24 393.15 446.34
  Q 381.79 460.16 370.18 473.42
  Q 359.39 485.75 355.34 490.11
  A 1.27 1.27 0.0 0 1 353.41 490.04
  L 351.37 487.49
  A 1.05 1.04 25.4 0 1 351.15 486.88
  Q 351.13 485.80 350.29 485.26
  A 1.28 1.28 0.0 0 1 349.76 484.57
  C 349.10 482.50 346.55 480.87 345.66 479.28
  Q 345.25 478.55 338.21 470.68
  Q 324.00 454.79 307.95 436.81
  Q 297.63 425.27 287.96 413.30
  C 279.58 402.94 272.67 393.94 265.05 381.73
  Q 252.39 361.45 239.86 341.50
  Q 238.48 339.30 237.35 339.93
  Q 236.51 337.27 235.04 336.73
  Q 234.79 331.71 230.70 325.59
  Q 225.93 318.42 219.86 307.83
  Q 211.98 294.07 209.21 289.67
  Q 192.18 262.58 190.51 260.23
  Q 189.03 258.14 184.03 255.37
  A 0.98 0.98 0.0 0 0 183.56 255.25
  L 145.59 255.54
  A 0.56 0.56 0.0 0 1 145.03 254.97
  L 145.26 247.10
  C 149.62 251.29 154.72 253.76 160.81 253.94
  Q 165.06 254.07 166.77 253.73
  C 180.96 250.85 193.47 239.71 201.34 227.81
  Q 202.40 226.21 208.20 216.46
  C 210.52 212.55 211.71 208.59 213.73 204.91
  A 2.04 1.62 72.1 0 0 213.91 204.43
  L 216.98 191.89
  Q 216.99 191.84 217.00 191.79
  L 219.73 176.05
  A 0.96 0.66 61.3 0 0 219.75 175.86
  Q 219.99 169.90 219.39 161.55
  Q 219.19 158.66 216.79 150.94
  Q 214.59 143.87 211.26 139.32
  Q 212.21 139.91 213.79 139.43
  Q 214.76 140.24 215.08 141.48
  A 1.05 1.04 69.2 0 0 216.56 142.15
  Q 218.36 141.23 220.06 139.26
  Q 221.90 139.50 222.64 139.14
  Q 245.89 127.56 265.71 113.19
  Q 275.43 106.14 276.20 105.72
  Q 279.10 104.16 288.04 99.36
  Q 295.65 95.28 299.78 92.88
  Q 329.85 75.37 361.56 57.33
  Q 378.48 47.70 395.99 39.18
  L 396.48 40.57
  A 0.77 0.77 0.0 0 0 397.73 40.89
  Q 399.57 39.18 399.69 37.46
  Q 419.18 28.65 439.57 21.83
  Q 437.85 22.98 438.06 24.50
  A 1.64 1.64 0.0 0 0 440.19 25.83
  C 442.14 25.19 441.44 22.58 440.11 21.65
  Q 453.00 16.99 466.20 13.10
  Q 470.61 11.80 475.50 11.50
  C 478.54 11.31 479.98 15.49 481.32 18.43
  A 1.74 1.61 60.8 0 0 483.75 19.22
  C 484.79 18.51 485.39 17.56 485.36 16.08
  C 485.26 11.91 485.24 7.22 489.19 5.13
  A 2.44 2.26 54.7 0 1 492.03 5.73
  Q 494.07 8.01 494.85 11.00
  Q 498.58 25.21 499.79 35.46
  Q 500.26 39.42 500.40 39.70
  Q 501.18 41.39 501.11 43.87
  Q 501.04 46.27 502.03 48.90
  A 3.69 3.49 35.6 0 1 502.27 50.13
  L 502.51 62.71
  A 2.10 2.09 78.9 0 1 501.19 64.69
  L 492.47 68.13
  A 0.43 0.32 8.0 0 0 492.38 68.18
  Q 491.95 68.53 491.50 68.69
  Q 472.90 75.02 451.25 81.01
  Q 426.30 87.90 408.24 94.71
  Q 403.33 96.55 396.01 100.80
  C 391.36 103.50 387.83 107.91 382.49 110.46
  Q 377.68 112.75 372.42 116.91
  A 4.90 4.44 9.9 0 1 371.55 117.46
  C 369.39 118.50 368.03 119.39 365.42 120.29
  Q 348.72 125.99 333.97 135.34
  Q 331.06 137.18 329.45 140.61
  A 2.91 2.88 56.6 0 0 329.18 141.96
  C 329.29 144.23 329.55 145.89 328.41 147.54
  A 1.88 1.80 63.6 0 0 328.08 148.60
  L 328.08 156.32
  A 6.19 6.06 -35.4 0 1 327.70 158.44
  C 326.49 161.80 326.78 166.05 326.85 169.84
  Q 326.90 172.21 326.16 178.62
  Q 325.18 187.03 326.20 195.42
  Z
  M 501.0096 59.1970
  A 2.46 1.62 -59.2 0 0 498.3585 60.4805
  A 2.46 1.62 -59.2 0 0 498.4904 63.4230
  A 2.46 1.62 -59.2 0 0 501.1415 62.1395
  A 2.46 1.62 -59.2 0 0 501.0096 59.1970
  Z
  M 392.3930 98.0645
  A 2.13 0.90 -37.8 0 0 390.1584 98.6589
  A 2.13 0.90 -37.8 0 0 389.0270 100.6755
  A 2.13 0.90 -37.8 0 0 391.2616 100.0811
  A 2.13 0.90 -37.8 0 0 392.3930 98.0645
  Z
  M 330.0012 133.0242
  A 1.90 1.10 -45.1 0 0 327.8808 133.5935
  A 1.90 1.10 -45.1 0 0 327.3188 135.7158
  A 1.90 1.10 -45.1 0 0 329.4392 135.1465
  A 1.90 1.10 -45.1 0 0 330.0012 133.0242
  Z
  M 302.0454 148.7231
  A 1.83 0.99 -48.8 0 0 300.0951 149.4479
  A 1.83 0.99 -48.8 0 0 299.6346 151.4769
  A 1.83 0.99 -48.8 0 0 301.5849 150.7521
  A 1.83 0.99 -48.8 0 0 302.0454 148.7231
  Z
  M 220.87 156.88
  L 222.18 177.74
  A 0.10 0.10 0.0 0 0 222.28 177.83
  L 222.30 177.83
  A 10.35 2.34 86.4 0 0 223.99 167.35
  L 223.97 166.95
  A 10.35 2.34 86.4 0 0 220.98 156.77
  L 220.96 156.77
  A 0.10 0.10 0.0 0 0 220.87 156.88
  Z
  M 275.34 165.01
  A 1.13 1.13 0.0 0 0 274.21 163.88
  A 1.13 1.13 0.0 0 0 273.08 165.01
  A 1.13 1.13 0.0 0 0 274.21 166.14
  A 1.13 1.13 0.0 0 0 275.34 165.01
  Z
  M 248.5747 178.9230
  A 1.67 0.79 -45.3 0 0 246.8385 179.5543
  A 1.67 0.79 -45.3 0 0 246.2253 181.2970
  A 1.67 0.79 -45.3 0 0 247.9615 180.6657
  A 1.67 0.79 -45.3 0 0 248.5747 178.9230
  Z
  M 193.83 239.67
  Q 190.75 242.68 187.09 246.26
  A 0.60 0.60 0.0 0 0 187.74 247.26
  C 190.54 246.15 192.44 244.39 195.51 241.39
  C 198.58 238.39 200.37 236.52 201.55 233.75
  A 0.60 0.60 0.0 0 0 200.57 233.08
  Q 196.90 236.66 193.83 239.67
  Z
  M 248.4474 249.9328
  A 1.29 0.90 -60.9 0 0 247.0336 250.6223
  A 1.29 0.90 -60.9 0 0 247.1926 252.1872
  A 1.29 0.90 -60.9 0 0 248.6064 251.4977
  A 1.29 0.90 -60.9 0 0 248.4474 249.9328
  Z
  M 262.73 273.56
  Q 262.24 274.56 262.85 275.33
  A 0.66 0.66 0.0 0 0 263.75 275.46
  Q 263.83 275.40 264.35 274.36
  Q 264.86 273.33 264.86 273.22
  A 0.66 0.66 0.0 0 0 264.21 272.58
  Q 263.23 272.57 262.73 273.56
  Z
  M 229.7438 317.4939
  A 1.54 1.08 -74.8 0 0 228.2978 318.6968
  A 1.54 1.08 -74.8 0 0 228.9362 320.4661
  A 1.54 1.08 -74.8 0 0 230.3822 319.2632
  A 1.54 1.08 -74.8 0 0 229.7438 317.4939
  Z
  M 245.8253 342.1505
  A 1.93 1.00 -59.3 0 0 243.9801 343.2995
  A 1.93 1.00 -59.3 0 0 243.8547 345.4695
  A 1.93 1.00 -59.3 0 0 245.6999 344.3205
  A 1.93 1.00 -59.3 0 0 245.8253 342.1505
  Z
  M 326.15 365.40
  A 1.03 1.03 0.0 0 0 327.54 366.54
  L 330.66 365.31
  A 1.50 1.50 0.0 0 0 331.51 363.36
  L 331.13 362.39
  A 1.53 1.53 0.0 0 0 328.95 361.62
  Q 326.59 362.95 326.15 365.40
  Z
  M 261.6805 368.7966
  A 1.75 1.26 -82.1 0 0 260.1920 370.3568
  A 1.75 1.26 -82.1 0 0 261.1995 372.2634
  A 1.75 1.26 -82.1 0 0 262.6880 370.7032
  A 1.75 1.26 -82.1 0 0 261.6805 368.7966
  Z
  M 359.51 399.59
  Q 360.60 398.43 361.25 398.43
  A 1.73 1.34 75.4 0 0 362.27 396.06
  C 361.43 394.10 359.64 393.70 358.22 395.39
  Q 356.98 396.88 356.93 396.94
  A 1.53 1.53 0.0 0 0 357.06 398.86
  L 357.74 399.58
  A 1.21 1.21 0.0 0 0 359.51 399.59
  Z
  M 289.69 413.87
  Q 290.11 413.91 290.53 413.21
  Q 290.88 412.61 291.34 412.51
  Q 293.45 412.07 292.83 410.26
  A 1.70 1.59 56.2 0 0 290.03 409.60
  Q 289.12 410.73 288.58 411.66
  A 1.48 1.47 -71.9 0 0 289.69 413.87
  Z
  M 321.8293 442.6202
  A 1.48 1.48 0.0 0 0 319.7424 442.4596
  L 317.8139 444.1126
  A 1.48 1.48 0.0 0 0 317.6533 446.1994
  L 318.0307 446.6398
  A 1.48 1.48 0.0 0 0 320.1176 446.8004
  L 322.0461 445.1474
  A 1.48 1.48 0.0 0 0 322.2067 443.0606
  L 321.8293 442.6202
  Z"
/>
<path fill="#3b4079" d="
  M 175.25 133.03
  L 172.00 134.74
  A 0.55 0.31 -61.0 0 0 171.92 134.79
  Q 163.63 140.65 158.72 146.22
  Q 149.75 156.39 143.16 169.91
  Q 141.13 174.06 138.16 184.09
  C 137.92 181.26 139.40 179.93 137.81 176.95
  Q 129.04 160.54 122.91 148.36
  Q 120.08 142.73 116.87 138.32
  Q 101.91 117.73 89.13 93.63
  C 85.17 86.15 81.70 78.39 80.22 71.08
  Q 79.18 65.91 79.94 57.55
  A 3.66 3.58 -30.3 0 1 80.26 56.38
  Q 88.99 37.82 100.82 21.66
  A 0.49 0.49 0.0 0 1 101.64 21.71
  C 105.58 28.58 106.64 37.29 109.14 44.73
  Q 111.52 51.82 111.52 52.17
  A 0.73 0.73 0.0 0 0 112.07 52.88
  Q 114.78 53.61 117.48 56.79
  C 131.25 72.94 142.34 89.20 155.47 108.13
  Q 156.38 109.44 159.89 115.69
  C 161.81 119.11 163.86 124.34 163.26 128.48
  A 1.03 1.03 0.0 0 0 164.24 129.66
  Q 165.21 129.70 165.84 130.20
  A 2.45 2.44 65.1 0 0 167.38 130.77
  L 170.57 130.81
  A 2.07 1.97 -29.6 0 1 171.45 131.03
  L 175.25 133.03
  Z"
/>
<path fill="#d6d0d0" d="
  M 440.11 21.65
  C 441.44 22.58 442.14 25.19 440.19 25.83
  A 1.64 1.64 0.0 0 1 438.06 24.50
  Q 437.85 22.98 439.57 21.83
  L 440.11 21.65
  Z"
/>
<path fill="#d6d0d0" d="
  M 399.69 37.46
  Q 399.57 39.18 397.73 40.89
  A 0.77 0.77 0.0 0 1 396.48 40.57
  L 395.99 39.18
  L 399.69 37.46
  Z"
/>
<ellipse fill="#d6d0d0" cx="0.00" cy="0.00" transform="translate(499.75,61.31) rotate(-59.2)" rx="2.46" ry="1.62"/>
<ellipse fill="#d6d0d0" cx="0.00" cy="0.00" transform="translate(390.71,99.37) rotate(-37.8)" rx="2.13" ry="0.90"/>
<path fill="#d6d0d0" d="
  M 199.67 133.55
  Q 199.86 134.25 200.74 134.14
  Q 203.75 134.73 206.28 136.68
  Q 207.75 137.82 208.50 137.83
  Q 210.18 137.86 211.26 139.32
  Q 214.59 143.87 216.79 150.94
  Q 219.19 158.66 219.39 161.55
  Q 219.99 169.90 219.75 175.86
  A 0.96 0.66 61.3 0 1 219.73 176.05
  L 217.00 191.79
  Q 216.99 191.84 216.98 191.89
  L 213.91 204.43
  A 2.04 1.62 72.1 0 1 213.73 204.91
  C 211.71 208.59 210.52 212.55 208.20 216.46
  Q 202.40 226.21 201.34 227.81
  C 193.47 239.71 180.96 250.85 166.77 253.73
  Q 165.06 254.07 160.81 253.94
  C 154.72 253.76 149.62 251.29 145.26 247.10
  L 143.75 245.50
  Q 143.62 245.19 143.13 244.99
  Q 135.97 235.60 134.37 223.46
  Q 132.50 209.35 135.09 195.34
  Q 136.00 190.43 137.83 185.53
  Q 137.78 184.84 138.16 184.09
  Q 141.13 174.06 143.16 169.91
  Q 149.75 156.39 158.72 146.22
  Q 163.63 140.65 171.92 134.79
  A 0.55 0.31 -61.0 0 1 172.00 134.74
  L 175.25 133.03
  Q 176.28 132.92 176.56 132.18
  Q 183.49 131.47 190.46 132.57
  Q 192.79 132.94 195.06 133.08
  Q 197.44 133.22 199.67 133.55
  Z
  M 160.58 151.06
  Q 158.93 152.97 158.70 153.42
  Q 158.39 154.05 157.51 155.56
  A 3.59 3.56 -6.2 0 1 156.91 156.30
  Q 154.06 158.95 153.05 160.53
  Q 148.44 167.78 144.03 178.09
  A 6.59 6.15 64.1 0 0 143.64 179.36
  Q 142.98 182.91 142.50 183.86
  C 140.31 188.18 139.84 192.27 138.67 197.27
  C 137.41 202.68 137.65 205.75 137.61 212.69
  C 137.60 215.81 138.20 217.84 139.06 221.56
  Q 139.09 221.69 139.82 225.41
  Q 140.93 231.07 144.39 236.39
  Q 148.76 243.12 154.56 245.81
  A 0.22 0.22 0.0 0 0 154.84 245.72
  A 0.28 0.27 -58.5 0 0 154.76 245.35
  Q 147.56 240.46 144.44 233.25
  Q 143.49 231.06 141.52 226.09
  A 8.88 8.65 -59.0 0 1 140.92 223.55
  C 140.66 220.60 140.03 218.40 140.07 215.40
  Q 140.21 205.95 140.46 202.24
  C 140.89 195.86 143.09 189.89 144.22 183.56
  A 6.03 5.94 -28.6 0 1 144.60 182.30
  C 147.58 175.36 150.09 169.11 153.70 163.96
  C 156.48 160.00 160.01 152.12 165.29 148.29
  Q 173.75 142.14 175.49 141.02
  Q 185.29 134.66 196.96 136.97
  A 0.24 0.24 0.0 0 0 197.24 136.80
  L 197.25 136.79
  A 0.31 0.31 0.0 0 0 197.05 136.45
  L 193.53 135.10
  A 3.35 3.19 -31.5 0 0 192.55 134.89
  Q 182.84 134.28 174.56 139.27
  Q 168.73 142.77 165.72 145.72
  Q 162.26 149.12 160.58 151.06
  Z"
/>
<path fill="#7c632d" d="
  M 176.56 132.18
  Q 176.28 132.92 175.25 133.03
  Q 175.02 132.69 176.56 132.18
  Z"
/>
<ellipse fill="#d6d0d0" cx="0.00" cy="0.00" transform="translate(328.66,134.37) rotate(-45.1)" rx="1.90" ry="1.10"/>
<path fill="#3b4079" d="
  M 200.74 134.14
  Q 199.86 134.25 199.67 133.55
  Q 200.15 134.00 200.74 134.14
  Z"
/>
<path fill="#3b4079" d="
  M 160.58 151.06
  Q 162.26 149.12 165.72 145.72
  Q 168.73 142.77 174.56 139.27
  Q 182.84 134.28 192.55 134.89
  A 3.35 3.19 -31.5 0 1 193.53 135.10
  L 197.05 136.45
  A 0.31 0.31 0.0 0 1 197.25 136.79
  L 197.24 136.80
  A 0.24 0.24 0.0 0 1 196.96 136.97
  Q 185.29 134.66 175.49 141.02
  Q 173.75 142.14 165.29 148.29
  C 160.01 152.12 156.48 160.00 153.70 163.96
  C 150.09 169.11 147.58 175.36 144.60 182.30
  A 6.03 5.94 -28.6 0 0 144.22 183.56
  C 143.09 189.89 140.89 195.86 140.46 202.24
  Q 140.21 205.95 140.07 215.40
  C 140.03 218.40 140.66 220.60 140.92 223.55
  A 8.88 8.65 -59.0 0 0 141.52 226.09
  Q 143.49 231.06 144.44 233.25
  Q 147.56 240.46 154.76 245.35
  A 0.28 0.27 -58.5 0 1 154.84 245.72
  A 0.22 0.22 0.0 0 1 154.56 245.81
  Q 148.76 243.12 144.39 236.39
  Q 140.93 231.07 139.82 225.41
  Q 139.09 221.69 139.06 221.56
  C 138.20 217.84 137.60 215.81 137.61 212.69
  C 137.65 205.75 137.41 202.68 138.67 197.27
  C 139.84 192.27 140.31 188.18 142.50 183.86
  Q 142.98 182.91 143.64 179.36
  A 6.59 6.15 64.1 0 1 144.03 178.09
  Q 148.44 167.78 153.05 160.53
  Q 154.06 158.95 156.91 156.30
  A 3.59 3.56 -6.2 0 0 157.51 155.56
  Q 158.39 154.05 158.70 153.42
  Q 158.93 152.97 160.58 151.06
  Z"
/>
<path fill="#d6d0d0" d="
  M 220.06 139.26
  Q 218.36 141.23 216.56 142.15
  A 1.05 1.04 69.2 0 1 215.08 141.48
  Q 214.76 140.24 213.79 139.43
  L 220.06 139.26
  Z"
/>
<ellipse fill="#d6d0d0" cx="0.00" cy="0.00" transform="translate(300.84,150.10) rotate(-48.8)" rx="1.83" ry="0.99"/>
<path fill="#d6d0d0" d="
  M 220.87 156.88
  A 0.10 0.10 0.0 0 1 220.96 156.77
  L 220.98 156.77
  A 10.35 2.34 86.4 0 1 223.97 166.95
  L 223.99 167.35
  A 10.35 2.34 86.4 0 1 222.30 177.83
  L 222.28 177.83
  A 0.10 0.10 0.0 0 1 222.18 177.74
  L 220.87 156.88
  Z"
/>
<circle fill="#d6d0d0" cx="274.21" cy="165.01" r="1.13"/>
<path fill="#7c632d" d="
  M 289.79 165.15
  Q 289.31 165.27 289.20 165.78
  Q 288.81 165.38 289.03 165.01
  Q 289.21 164.69 289.79 165.15
  Z"
/>
<path fill="#c29d45" d="
  M 287.55 164.99
  Q 284.71 169.00 285.58 172.10
  Q 285.83 172.98 286.90 172.55
  A 0.59 0.59 0.0 0 1 287.63 172.81
  Q 289.02 175.31 291.68 175.93
  A 2.00 1.96 -45.6 0 0 292.64 175.91
  Q 295.30 175.16 296.11 176.24
  Q 300.29 178.75 304.37 180.48
  Q 306.48 181.37 308.61 181.95
  L 309.29 182.56
  Q 311.63 184.40 314.38 184.23
  Q 318.19 186.95 322.18 187.44
  Q 322.54 187.47 322.44 189.00
  Q 321.82 199.16 320.35 210.55
  A 3.36 3.34 -71.5 0 0 322.00 213.88
  L 322.45 214.13
  A 1.26 1.25 -72.1 0 0 324.32 213.17
  L 326.20 195.42
  L 334.69 199.69
  Q 340.18 206.02 346.51 210.99
  C 350.72 214.30 353.50 217.36 357.30 220.19
  A 1.59 1.54 10.4 0 1 357.87 220.99
  Q 358.47 222.99 359.47 224.13
  Q 358.69 224.15 358.68 225.48
  A 0.92 0.92 0.0 0 1 357.55 226.37
  Q 356.28 226.06 355.49 227.16
  Q 353.03 225.80 350.07 226.76
  L 349.01 226.69
  L 338.86 226.47
  Q 337.70 224.86 338.62 223.95
  Q 345.88 224.04 353.19 223.88
  Q 355.01 223.84 355.36 222.83
  Q 355.65 222.42 355.55 222.02
  Q 355.42 221.51 354.92 221.57
  Q 351.54 216.82 348.96 215.28
  Q 345.49 213.21 342.82 211.18
  Q 338.33 204.47 331.21 200.37
  Q 329.54 198.63 327.67 198.24
  A 0.39 0.39 0.0 0 0 327.20 198.66
  L 327.98 207.99
  L 328.61 214.32
  Q 330.85 226.73 331.44 238.91
  A 1.20 1.17 -61.3 0 0 331.59 239.45
  L 332.51 241.04
  A 0.97 0.96 -44.0 0 1 332.49 242.05
  Q 331.78 243.19 332.35 244.43
  A 1.85 1.84 -84.0 0 0 332.89 245.10
  C 336.47 247.88 338.63 249.60 340.19 253.51
  Q 340.68 254.74 344.54 259.21
  Q 345.52 260.34 345.66 261.54
  A 0.38 0.38 0.0 0 1 345.12 261.93
  Q 343.61 261.22 342.09 262.51
  Q 341.36 263.14 341.01 262.96
  A 1.56 1.49 -43.4 0 1 341.15 260.25
  Q 341.62 260.02 341.76 259.51
  A 0.70 0.69 -55.4 0 0 341.66 258.94
  L 337.22 252.56
  L 331.44 245.33
  A 0.93 0.93 0.0 0 0 329.94 245.39
  L 325.47 251.99
  L 300.37 283.80
  A 0.58 0.57 -75.4 0 0 300.91 284.73
  L 309.33 283.37
  L 318.68 283.30
  A 1.07 1.07 0.0 0 0 319.35 281.41
  L 311.14 274.63
  Q 313.98 273.09 316.22 274.50
  Q 317.82 275.52 318.59 275.70
  C 321.21 278.30 324.09 281.22 327.50 282.14
  L 329.21 282.13
  L 329.71 282.13
  L 332.23 282.14
  L 341.73 280.84
  Q 342.56 281.23 342.81 280.48
  Q 342.80 282.72 345.01 282.15
  L 340.93 284.13
  A 1.00 0.66 -56.3 0 1 340.81 284.18
  Q 335.73 285.77 331.45 284.74
  A 2.51 2.49 -42.4 0 0 330.46 284.70
  Q 330.17 284.75 330.13 284.77
  A 0.94 0.93 51.2 0 0 329.97 286.30
  Q 332.14 288.17 334.28 288.84
  Q 335.50 290.31 337.32 291.20
  Q 338.04 293.64 339.01 293.73
  Q 338.30 294.96 338.50 296.12
  Q 338.26 296.19 338.06 296.18
  Q 332.88 291.49 327.10 287.50
  C 325.81 286.61 324.90 285.72 323.26 285.75
  Q 321.96 285.76 317.53 286.28
  Q 316.77 286.12 316.22 286.49
  Q 315.09 286.16 314.95 286.74
  L 314.23 286.81
  Q 312.77 286.55 311.45 286.89
  L 308.98 286.98
  L 299.51 286.58
  A 1.05 1.05 0.0 0 0 298.67 286.95
  Q 297.91 287.86 297.83 288.74
  Q 296.90 289.59 295.40 289.21
  Q 297.04 285.47 298.58 283.07
  Q 304.94 273.20 310.76 262.78
  A 1.47 1.46 -71.2 0 0 309.70 260.61
  L 309.52 260.58
  A 2.92 2.91 -69.8 0 0 306.62 261.93
  L 291.03 287.12
  A 0.44 0.41 8.3 0 1 290.77 287.30
  Q 290.48 287.36 290.25 287.49
  C 288.68 285.25 285.06 284.69 282.57 284.19
  Q 280.16 283.70 277.79 281.01
  L 222.94 202.31
  A 1.30 1.30 0.0 0 1 223.62 200.33
  C 227.64 199.10 230.53 197.06 234.45 194.71
  Q 237.86 192.66 245.39 188.65
  Q 254.43 183.82 259.48 180.74
  Q 263.86 178.08 278.52 170.30
  A 1.81 1.81 0.0 0 1 279.46 170.08
  Q 281.01 170.13 282.09 170.72
  A 1.32 1.32 0.0 0 0 284.04 169.67
  Q 284.29 166.59 287.55 164.99
  Z"
/>
<path fill="#3b4079" d="
  M 289.79 165.15
  Q 290.34 165.17 290.35 165.42
  Q 290.38 165.82 290.00 165.95
  Q 289.57 166.10 289.20 165.78
  Q 289.31 165.27 289.79 165.15
  Z"
/>
<path fill="#d6d0d0" d="
  M 308.61 181.95
  Q 306.48 181.37 304.37 180.48
  Q 300.29 178.75 296.11 176.24
  Q 301.62 177.29 306.22 178.35
  Q 309.00 179.00 308.61 181.95
  Z"
/>
<ellipse fill="#d6d0d0" cx="0.00" cy="0.00" transform="translate(247.40,180.11) rotate(-45.3)" rx="1.67" ry="0.79"/>
<path fill="#3b4079" d="
  M 314.38 184.23
  Q 311.63 184.40 309.29 182.56
  L 310.91 179.84
  A 1.26 1.26 0.0 0 1 313.25 180.48
  Q 313.26 182.58 314.38 184.23
  Z"
/>
<path fill="#3b4079" d="
  M 137.83 185.53
  Q 136.00 190.43 135.09 195.34
  Q 132.50 209.35 134.37 223.46
  Q 135.97 235.60 143.13 244.99
  Q 140.27 243.76 136.98 244.84
  A 2.36 2.35 16.8 0 0 136.25 245.23
  Q 134.58 246.51 134.37 247.89
  A 3.52 3.07 0.6 0 1 131.27 250.53
  Q 129.97 250.65 128.13 251.63
  A 1.53 1.46 -57.0 0 1 127.46 251.79
  L 125.19 251.79
  A 0.56 0.56 0.0 0 0 124.64 252.26
  Q 124.46 253.28 123.04 253.05
  A 0.72 0.72 0.0 0 0 122.28 253.45
  Q 121.88 254.32 120.81 254.14
  A 1.42 1.39 33.4 0 0 119.83 254.33
  L 95.90 268.66
  A 0.63 0.57 -57.5 0 1 95.54 268.76
  Q 94.40 268.69 94.12 269.31
  A 0.17 0.13 -83.0 0 1 94.03 269.40
  L 89.76 271.31
  A 0.54 0.52 89.1 0 0 89.46 271.63
  Q 89.23 272.28 88.26 272.33
  Q 87.25 272.38 87.11 273.04
  Q 86.98 273.61 86.32 273.58
  Q 85.87 273.56 85.38 273.84
  Q 80.93 276.40 72.67 280.93
  Q 49.62 293.58 40.30 297.99
  A 1.47 1.46 -14.4 0 1 38.21 296.76
  L 37.86 291.32
  A 0.73 0.73 0.0 0 0 37.09 290.63
  L 36.78 290.65
  A 0.38 0.37 -89.1 0 0 36.43 290.99
  Q 35.77 297.47 34.56 299.83
  Q 33.37 302.15 30.08 304.58
  Q 23.93 309.12 19.61 314.11
  C 17.65 316.38 13.64 320.89 11.74 324.16
  Q 8.72 329.36 5.73 334.47
  Q 4.03 337.35 1.81 339.15
  A 1.63 1.60 77.8 0 0 1.26 340.02
  L 1.12 340.63
  A 0.36 0.36 0.0 0 1 0.47 340.74
  L 0.00 340.03
  L 0.00 325.08
  Q 1.08 319.61 1.17 313.99
  Q 1.19 312.86 1.96 310.61
  A 7.19 7.01 -36.5 0 0 2.36 308.15
  Q 2.32 305.56 3.35 302.03
  A 6.93 6.72 54.0 0 0 3.60 300.27
  C 3.63 296.61 4.46 294.52 5.01 290.81
  Q 5.61 286.68 8.29 284.00
  C 11.76 280.52 13.65 276.04 16.56 271.78
  Q 22.85 262.53 32.57 255.33
  Q 36.51 252.40 36.55 252.29
  A 0.53 0.53 0.0 0 1 37.12 251.92
  Q 37.83 252.00 39.45 250.34
  Q 40.02 249.74 41.60 248.72
  Q 54.73 240.15 60.62 236.62
  Q 77.50 226.51 92.23 217.36
  Q 96.90 214.45 97.34 214.19
  Q 113.50 204.40 122.80 198.01
  Q 124.45 196.87 126.20 195.89
  Q 130.44 193.53 134.76 189.76
  Q 135.73 188.90 137.83 185.53
  Z"
/>
<path fill="#3b4079" d="
  M 331.21 200.37
  Q 331.65 201.32 331.37 201.61
  Q 329.83 203.22 330.35 205.57
  Q 329.57 204.68 327.98 207.99
  L 327.20 198.66
  A 0.39 0.39 0.0 0 1 327.67 198.24
  Q 329.54 198.63 331.21 200.37
  Z"
/>
<path fill="#7c632d" d="
  M 412.73 229.59
  Q 410.03 233.26 404.23 233.16
  A 1.87 1.86 8.3 0 0 402.41 234.51
  L 397.11 253.10
  A 1.53 1.52 34.4 0 0 397.36 254.42
  Q 398.64 256.13 399.74 257.06
  C 407.16 263.32 413.53 268.52 418.30 273.47
  C 420.96 276.23 418.07 278.72 415.19 278.85
  Q 405.30 279.30 390.04 280.55
  A 1.73 1.72 2.1 0 0 388.47 282.00
  Q 386.73 293.04 382.52 303.20
  A 1.95 1.94 -53.0 0 0 382.79 305.17
  C 384.68 307.55 388.09 310.83 389.40 313.97
  A 1.04 1.01 49.5 0 1 389.34 314.87
  Q 388.70 315.94 389.52 315.87
  Q 388.04 316.22 386.62 316.07
  Q 370.40 311.12 354.24 306.04
  Q 352.51 305.49 350.96 306.66
  C 337.39 301.98 323.73 296.21 312.75 292.25
  Q 305.83 289.75 297.83 288.74
  Q 297.91 287.86 298.67 286.95
  A 1.05 1.05 0.0 0 1 299.51 286.58
  L 308.98 286.98
  Q 308.24 287.31 308.49 287.84
  A 0.40 0.34 1.8 0 0 308.71 288.04
  L 337.92 297.80
  A 0.52 0.52 0.0 0 0 338.54 297.06
  L 338.06 296.18
  Q 338.26 296.19 338.50 296.12
  C 340.63 298.02 344.01 298.37 346.76 298.97
  Q 347.52 299.14 347.59 300.10
  A 1.08 1.05 15.4 0 0 348.05 300.89
  Q 350.02 302.25 350.23 302.32
  Q 361.08 305.69 386.13 313.48
  A 0.38 0.38 0.0 0 0 386.49 312.83
  Q 383.94 310.67 382.44 308.13
  A 0.78 0.77 63.8 0 0 381.48 307.80
  Q 380.15 308.34 379.08 308.10
  Q 377.40 307.73 362.30 304.09
  C 357.96 303.04 352.18 300.90 348.41 299.48
  A 0.08 0.07 -73.0 0 1 348.37 299.39
  L 348.48 299.06
  A 0.29 0.29 0.0 0 1 348.84 298.88
  L 360.57 302.22
  A 1.30 1.30 0.0 0 0 362.17 301.33
  L 365.74 288.80
  A 2.20 2.18 -56.6 0 0 365.35 286.85
  L 362.47 283.25
  A 1.02 1.01 68.7 0 0 361.62 282.87
  L 342.97 284.05
  A 1.47 1.46 -82.6 0 0 341.67 285.06
  L 340.28 289.27
  Q 340.36 287.71 339.92 286.44
  A 1.22 1.21 78.4 0 0 338.71 285.64
  L 335.08 285.87
  A 0.92 0.91 8.6 0 0 334.29 286.45
  Q 333.87 287.53 334.28 288.84
  Q 332.14 288.17 329.97 286.30
  A 0.94 0.93 51.2 0 1 330.13 284.77
  Q 330.17 284.75 330.46 284.70
  A 2.51 2.49 -42.4 0 1 331.45 284.74
  Q 335.73 285.77 340.81 284.18
  A 1.00 0.66 -56.3 0 0 340.93 284.13
  L 345.01 282.15
  L 360.18 280.99
  A 0.28 0.28 0.0 0 0 360.38 280.54
  L 346.85 263.60
  A 1.19 1.17 72.0 0 0 346.00 263.16
  Q 341.77 262.96 340.90 265.61
  L 338.78 265.13
  Q 338.05 264.93 337.00 265.10
  Q 328.78 266.87 322.00 272.01
  Q 320.98 272.78 318.26 273.83
  A 0.64 0.64 0.0 0 0 317.86 274.58
  Q 317.99 275.15 318.59 275.70
  Q 317.82 275.52 316.22 274.50
  Q 313.98 273.09 311.14 274.63
  Q 309.28 277.90 308.64 280.23
  Q 308.23 281.70 309.33 283.37
  L 300.91 284.73
  A 0.58 0.57 -75.4 0 1 300.37 283.80
  L 325.47 251.99
  Q 330.22 249.94 332.48 251.26
  Q 335.43 252.97 337.22 252.56
  L 341.66 258.94
  A 0.70 0.69 -55.4 0 1 341.76 259.51
  Q 341.62 260.02 341.15 260.25
  A 1.56 1.49 -43.4 0 0 341.01 262.96
  Q 341.36 263.14 342.09 262.51
  Q 343.61 261.22 345.12 261.93
  A 0.38 0.38 0.0 0 0 345.66 261.54
  Q 345.52 260.34 344.54 259.21
  Q 340.68 254.74 340.19 253.51
  C 338.63 249.60 336.47 247.88 332.89 245.10
  A 1.85 1.84 -84.0 0 1 332.35 244.43
  Q 331.78 243.19 332.49 242.05
  A 0.97 0.96 -44.0 0 0 332.51 241.04
  L 331.59 239.45
  A 1.20 1.17 -61.3 0 1 331.44 238.91
  Q 330.85 226.73 328.61 214.32
  C 332.11 218.50 334.45 221.66 338.62 223.95
  Q 337.70 224.86 338.86 226.47
  Q 340.45 231.58 343.38 236.05
  A 1.21 1.21 0.0 0 1 343.53 237.04
  L 343.38 237.58
  A 0.99 0.98 -4.4 0 0 344.74 238.74
  L 347.72 237.36
  Q 348.68 239.38 351.43 236.95
  Q 352.32 237.78 354.03 237.23
  Q 354.02 237.40 354.04 237.54
  A 0.32 0.32 0.0 0 0 354.41 237.82
  L 372.36 235.20
  A 0.27 0.26 56.8 0 0 372.46 234.71
  L 368.38 232.17
  A 2.08 1.30 5.6 0 1 368.16 232.00
  L 359.47 224.13
  Q 358.47 222.99 357.87 220.99
  A 1.59 1.54 10.4 0 0 357.30 220.19
  C 353.50 217.36 350.72 214.30 346.51 210.99
  Q 340.18 206.02 334.69 199.69
  Q 343.84 203.18 352.34 206.28
  Q 378.81 215.96 405.09 226.12
  Q 408.75 227.53 412.73 229.59
  Z
  M 408.21 229.66
  Q 404.66 227.59 401.06 227.12
  Q 396.93 226.58 396.39 226.47
  Q 383.22 223.76 370.65 222.29
  C 366.12 221.76 362.95 220.51 359.34 218.60
  A 0.39 0.39 0.0 0 0 358.79 219.09
  C 359.44 220.74 360.05 221.98 361.59 223.27
  Q 366.79 227.58 373.87 234.09
  A 2.65 2.63 -27.8 0 0 376.06 234.76
  L 380.49 234.12
  A 0.95 0.92 3.2 0 0 381.26 233.45
  L 383.50 225.59
  A 0.89 0.89 0.0 0 1 385.03 225.26
  Q 385.92 226.30 387.05 226.71
  Q 392.43 228.68 397.30 231.08
  A 2.67 2.64 54.8 0 0 398.75 231.34
  L 408.07 230.33
  A 0.36 0.36 0.0 0 0 408.21 229.66
  Z
  M 387.60 228.52
  L 386.04 227.63
  A 0.20 0.20 0.0 0 0 385.76 227.71
  L 383.48 231.75
  A 2.06 0.75 -60.5 0 0 383.12 233.91
  L 383.73 234.26
  A 2.06 0.75 -60.5 0 0 385.39 232.83
  L 387.68 228.79
  A 0.20 0.20 0.0 0 0 387.60 228.52
  Z
  M 394.86 231.37
  Q 393.65 230.61 390.11 229.58
  A 0.99 0.97 -65.6 0 0 389.00 230.01
  L 387.29 232.77
  A 0.28 0.28 0.0 0 0 387.60 233.18
  Q 390.84 232.26 394.49 232.49
  A 0.61 0.61 0.0 0 0 394.86 231.37
  Z
  M 395.75 243.45
  Q 395.18 243.98 395.16 244.49
  A 1.21 1.11 -28.9 0 0 397.33 245.02
  C 399.58 241.71 398.48 238.39 400.00 234.82
  A 0.69 0.68 -74.9 0 0 399.46 233.87
  Q 396.40 233.48 396.46 236.25
  Q 396.53 239.44 396.20 242.58
  A 1.38 1.38 0.0 0 1 395.75 243.45
  Z
  M 387.98 241.72
  L 390.36 235.57
  A 0.40 0.40 0.0 0 0 389.93 235.03
  L 388.50 235.24
  A 1.71 1.70 -85.0 0 0 387.12 236.40
  L 385.42 241.47
  A 1.77 1.74 35.1 0 0 385.72 243.12
  L 387.49 245.33
  A 0.71 0.70 -25.0 0 0 388.19 245.58
  Q 388.97 245.41 388.90 244.56
  Q 388.88 244.25 388.91 243.43
  Q 388.97 242.00 388.17 242.00
  A 0.21 0.20 -79.2 0 1 387.98 241.72
  Z
  M 394.62 259.31
  L 393.89 264.80
  A 0.73 0.73 0.0 0 0 394.35 265.58
  L 414.64 273.42
  A 1.45 1.45 0.0 0 1 415.38 274.04
  Q 416.09 275.20 416.40 275.37
  A 0.44 0.43 -58.2 0 0 416.95 275.24
  L 417.10 275.02
  A 0.13 0.12 39.9 0 0 417.08 274.85
  L 396.29 256.31
  Q 394.82 250.55 390.81 252.45
  A 0.94 0.94 0.0 0 1 389.58 251.14
  Q 390.27 249.88 391.58 249.88
  A 0.71 0.71 0.0 0 0 392.29 249.12
  Q 392.01 244.63 393.95 241.04
  A 1.61 1.61 0.0 0 0 394.10 239.86
  Q 393.60 237.98 392.64 236.91
  A 0.98 0.97 -68.6 0 0 390.95 237.65
  Q 391.16 240.21 390.91 242.70
  C 390.73 244.55 389.81 246.09 390.09 247.98
  A 0.56 0.56 0.0 0 1 389.15 248.47
  L 382.71 242.53
  A 0.57 0.57 0.0 0 1 382.69 241.70
  Q 382.70 241.70 383.12 241.67
  A 0.83 0.82 1.2 0 0 383.90 240.93
  Q 384.11 238.99 385.81 236.89
  A 0.73 0.73 0.0 0 0 385.13 235.71
  L 382.85 236.04
  A 0.77 0.76 -5.4 0 0 382.19 236.83
  Q 382.24 238.39 381.33 239.25
  A 0.89 0.78 -17.2 0 0 381.12 239.59
  L 379.06 245.74
  A 0.68 0.67 9.8 0 0 379.69 246.62
  Q 381.13 246.64 381.54 245.81
  A 1.35 1.17 35.6 0 1 383.55 245.62
  Q 386.14 247.99 386.48 250.30
  A 2.04 1.98 48.0 0 1 386.45 251.07
  L 385.05 256.72
  A 0.66 0.66 0.0 0 0 386.00 257.46
  Q 386.61 257.13 387.69 256.06
  A 1.17 1.17 0.0 0 1 389.67 257.09
  L 388.82 261.98
  A 1.42 1.42 0.0 0 0 389.71 263.55
  L 391.37 264.19
  A 0.57 0.57 0.0 0 0 392.14 263.57
  L 390.75 254.06
  A 0.47 0.47 0.0 0 1 391.38 253.55
  L 393.68 254.44
  A 1.01 1.01 0.0 0 1 394.32 255.30
  L 394.62 259.31
  Z
  M 380.32 238.78
  L 380.56 236.73
  A 0.17 0.17 0.0 0 0 380.41 236.54
  L 380.01 236.50
  A 2.73 1.15 6.8 0 0 377.17 237.31
  L 377.16 237.41
  A 2.73 1.15 6.8 0 0 379.73 238.88
  L 380.13 238.93
  A 0.17 0.17 0.0 0 0 380.32 238.78
  Z
  M 374.25 257.84
  L 375.14 258.16
  A 0.80 0.80 0.0 0 0 375.91 258.03
  Q 378.91 255.71 380.39 251.43
  Q 381.02 249.57 381.93 248.55
  A 0.67 0.67 0.0 0 1 383.09 249.13
  Q 382.91 250.02 382.63 250.66
  Q 381.72 252.69 378.10 258.77
  A 0.53 0.53 0.0 0 0 378.64 259.57
  L 379.60 259.43
  A 0.65 0.65 0.0 0 1 380.32 259.90
  Q 380.66 261.12 382.58 260.85
  A 0.98 0.96 9.7 0 0 383.30 260.35
  Q 384.06 258.95 384.26 257.77
  A 0.74 0.74 0.0 0 0 383.60 256.91
  Q 383.06 256.85 382.90 256.95
  A 0.25 0.25 0.0 0 1 382.53 256.66
  L 384.65 250.00
  A 1.13 1.12 35.3 0 0 384.47 248.97
  Q 383.61 247.87 382.03 247.24
  A 0.50 0.49 19.7 0 0 381.38 247.54
  Q 381.25 247.90 379.90 248.84
  A 1.22 1.22 0.0 0 0 379.37 249.70
  Q 379.19 251.17 378.71 251.74
  Q 376.82 253.98 375.21 256.58
  Q 374.69 255.63 374.93 255.22
  Q 376.45 252.65 376.55 249.86
  A 0.88 0.77 -41.1 0 1 376.58 249.64
  L 378.80 242.11
  A 1.10 1.09 -59.3 0 0 378.53 241.02
  L 375.36 237.85
  A 1.91 1.91 0.0 0 0 373.75 237.31
  L 355.77 239.93
  A 2.38 2.37 1.2 0 0 353.79 241.82
  Q 353.26 244.55 350.36 247.08
  A 0.84 0.83 -54.8 0 0 350.60 248.49
  L 374.25 257.84
  Z
  M 350.88 240.74
  L 344.47 242.12
  A 1.13 1.13 0.0 0 0 343.60 243.46
  L 343.62 243.58
  A 4.24 4.05 -12.1 0 0 348.62 246.65
  L 348.95 246.58
  A 4.24 4.05 -12.1 0 0 352.25 241.73
  L 352.22 241.61
  A 1.13 1.13 0.0 0 0 350.88 240.74
  Z
  M 344.60 254.32
  Q 343.53 255.19 343.61 255.95
  A 0.51 0.51 0.0 0 0 343.73 256.25
  L 362.37 279.60
  A 2.17 2.12 -10.8 0 0 363.44 280.31
  Q 364.56 280.69 367.35 280.26
  A 1.02 1.00 -85.9 0 0 368.18 279.53
  L 373.54 260.72
  A 0.80 0.79 19.1 0 0 373.07 259.76
  L 348.95 250.45
  A 1.11 1.11 0.0 0 0 348.06 250.48
  Q 346.93 251.00 346.00 252.50
  Q 346.32 249.73 343.84 249.26
  A 1.15 1.14 3.5 0 0 342.48 250.46
  L 342.68 253.63
  A 0.79 0.79 0.0 0 0 343.34 254.36
  Q 343.93 254.46 344.60 254.32
  Z
  M 376.46 260.89
  Q 374.97 260.97 374.70 262.98
  Q 373.78 269.76 372.36 273.95
  A 2.67 2.60 -16.4 0 1 371.87 274.82
  Q 370.36 276.62 368.71 280.61
  A 0.37 0.37 0.0 0 0 369.08 281.12
  L 369.38 281.10
  A 1.13 1.12 14.4 0 0 370.28 280.57
  L 374.22 274.20
  A 0.49 0.48 -76.0 0 1 374.59 273.97
  L 374.99 273.95
  A 0.57 0.57 0.0 0 1 375.51 274.82
  L 372.46 279.74
  A 0.61 0.60 -76.4 0 0 373.02 280.66
  Q 374.55 280.54 375.61 280.85
  A 1.50 1.49 38.5 0 0 376.79 280.72
  L 378.79 279.57
  A 0.87 0.87 0.0 0 1 379.54 279.51
  Q 381.07 280.11 382.39 279.66
  A 0.77 0.77 0.0 0 0 382.91 278.88
  L 382.55 273.17
  A 0.62 0.62 0.0 0 0 381.89 272.59
  L 381.42 272.62
  A 0.60 0.60 0.0 0 1 380.81 271.82
  Q 382.01 268.31 381.27 267.01
  A 0.39 0.39 0.0 0 0 380.61 267.00
  L 377.41 272.17
  A 0.30 0.29 -76.2 0 0 377.68 272.62
  L 379.86 272.49
  A 0.60 0.60 0.0 0 1 380.49 273.19
  L 379.49 278.98
  A 0.22 0.22 0.0 0 1 379.10 279.08
  L 378.86 278.78
  A 0.76 0.76 0.0 0 0 377.87 278.59
  L 375.57 279.91
  A 0.46 0.46 0.0 0 1 374.98 279.23
  Q 377.10 276.57 377.09 273.83
  A 0.76 0.75 -79.1 0 0 376.62 273.13
  Q 375.75 272.78 375.87 271.72
  Q 376.12 269.34 377.95 266.12
  A 1.82 1.78 83.0 0 1 378.24 265.74
  Q 379.36 264.64 380.16 262.78
  A 0.50 0.50 0.0 0 0 379.72 262.09
  Q 377.41 261.97 376.96 264.11
  A 0.40 0.40 0.0 0 1 376.50 264.42
  L 376.15 264.36
  A 0.60 0.60 0.0 0 1 375.74 263.45
  L 376.88 261.61
  A 0.47 0.47 0.0 0 0 376.46 260.89
  Z
  M 385.42 275.33
  L 385.03 272.63
  A 0.65 0.61 55.2 0 1 385.09 272.22
  Q 386.05 270.35 386.13 266.04
  A 0.97 0.96 16.4 0 0 385.67 265.20
  L 383.85 264.07
  A 0.74 0.73 5.7 0 0 382.77 264.95
  Q 384.10 268.52 382.79 271.16
  Q 382.55 271.64 382.65 272.23
  Q 382.74 272.74 383.35 272.81
  A 0.71 0.71 0.0 0 1 383.97 273.41
  L 384.29 275.57
  A 0.36 0.36 0.0 0 0 384.70 275.88
  L 385.05 275.82
  A 0.43 0.43 0.0 0 0 385.42 275.33
  Z
  M 390.23 268.32
  L 391.63 269.19
  A 1.24 1.22 -69.0 0 1 392.19 270.47
  Q 391.42 274.59 389.83 277.16
  A 0.80 0.79 14.0 0 0 390.56 278.37
  L 416.38 276.73
  A 0.27 0.26 2.6 0 0 416.63 276.51
  L 416.64 276.47
  A 0.31 0.31 0.0 0 0 416.33 276.14
  Q 415.61 276.14 415.07 275.92
  Q 409.95 273.86 400.41 270.33
  C 396.82 269.00 394.51 267.58 390.54 267.33
  A 0.54 0.53 62.5 0 0 390.23 268.32
  Z
  M 382.36 282.29
  C 379.07 279.89 376.71 284.64 375.65 287.23
  Q 375.53 287.53 375.88 287.89
  A 0.59 0.59 0.0 0 0 376.79 287.83
  Q 378.62 285.33 379.42 284.27
  A 1.68 1.66 -69.8 0 1 380.85 283.60
  Q 381.80 283.66 382.35 283.26
  A 0.60 0.60 0.0 0 0 382.36 282.29
  Z
  M 384.87 282.32
  A 0.31 0.31 0.0 0 0 384.27 282.44
  L 384.31 289.79
  A 0.76 0.54 61.6 0 1 384.29 289.96
  Q 383.35 293.89 381.03 296.21
  A 0.68 0.67 -49.2 0 0 381.10 297.22
  L 381.19 297.28
  A 0.83 0.82 -49.6 0 0 382.29 297.19
  C 384.93 294.40 385.48 291.60 386.41 287.41
  A 2.57 2.53 -49.7 0 0 386.30 285.93
  L 384.87 282.32
  Z
  M 369.91 287.50
  L 371.55 284.85
  A 1.03 1.02 11.9 0 1 372.26 284.39
  Q 373.05 284.27 373.42 284.19
  A 1.10 0.99 -41.4 0 0 373.66 282.16
  Q 372.18 281.80 371.59 283.30
  A 1.13 1.11 3.5 0 1 370.82 283.97
  Q 369.45 284.29 368.41 286.20
  A 0.81 0.81 0.0 0 0 368.69 287.28
  L 369.29 287.65
  A 0.46 0.45 -58.3 0 0 369.91 287.50
  Z
  M 366.42 284.23
  Q 367.19 284.43 367.93 283.86
  A 0.49 0.49 0.0 0 0 367.81 283.01
  Q 367.02 282.70 366.84 282.66
  Q 366.65 282.61 365.81 282.49
  A 0.49 0.49 0.0 0 0 365.29 283.17
  Q 365.65 284.02 366.42 284.23
  Z
  M 373.59 285.91
  L 370.13 289.54
  A 0.08 0.08 0.0 0 0 370.13 289.65
  L 370.14 289.66
  A 1.41 1.17 43.6 0 0 371.96 289.79
  L 373.92 287.73
  A 1.41 1.17 43.6 0 0 373.71 285.91
  L 373.70 285.90
  A 0.08 0.08 0.0 0 0 373.59 285.91
  Z
  M 370.51 293.39
  A 0.72 0.71 -70.8 0 0 369.55 293.86
  L 367.84 299.86
  A 0.51 0.51 0.0 0 0 368.41 300.50
  L 369.71 300.31
  A 0.82 0.81 -6.4 0 0 370.41 299.44
  L 370.15 296.19
  A 1.24 1.23 58.9 0 1 370.33 295.45
  L 371.05 294.29
  A 0.54 0.54 0.0 0 0 370.79 293.50
  L 370.51 293.39
  Z
  M 375.35 300.20
  Q 374.11 298.71 373.79 297.33
  A 0.18 0.17 46.3 0 0 373.45 297.32
  Q 372.23 301.61 375.44 302.52
  A 0.94 0.93 83.6 0 0 376.50 301.17
  Q 376.31 300.81 375.68 300.47
  A 1.11 1.04 82.4 0 1 375.35 300.20
  Z
  M 370.94 301.17
  L 367.90 302.95
  A 0.25 0.25 0.0 0 0 367.82 303.29
  L 367.89 303.42
  A 2.08 1.95 59.6 0 0 370.63 304.23
  L 370.73 304.17
  A 2.08 1.95 59.6 0 0 371.36 301.39
  L 371.28 301.26
  A 0.25 0.25 0.0 0 0 370.94 301.17
  Z"
/>
<path fill="#7c632d" d="
  M 342.82 211.18
  L 339.26 210.49
  A 4.17 4.09 64.8 0 1 337.94 210.00
  L 330.35 205.57
  Q 329.83 203.22 331.37 201.61
  Q 331.65 201.32 331.21 200.37
  Q 338.33 204.47 342.82 211.18
  Z"
/>
<path fill="#ffe65e" d="
  M 408.21 229.66
  A 0.36 0.36 0.0 0 1 408.07 230.33
  L 398.75 231.34
  A 2.67 2.64 54.8 0 1 397.30 231.08
  Q 392.43 228.68 387.05 226.71
  Q 385.92 226.30 385.03 225.26
  A 0.89 0.89 0.0 0 0 383.50 225.59
  L 381.26 233.45
  A 0.95 0.92 3.2 0 1 380.49 234.12
  L 376.06 234.76
  A 2.65 2.63 -27.8 0 1 373.87 234.09
  Q 366.79 227.58 361.59 223.27
  C 360.05 221.98 359.44 220.74 358.79 219.09
  A 0.39 0.39 0.0 0 1 359.34 218.60
  C 362.95 220.51 366.12 221.76 370.65 222.29
  Q 383.22 223.76 396.39 226.47
  Q 396.93 226.58 401.06 227.12
  Q 404.66 227.59 408.21 229.66
  Z"
/>
<path fill="#7c632d" d="
  M 355.36 222.83
  Q 355.36 222.09 354.92 221.57
  Q 355.42 221.51 355.55 222.02
  Q 355.65 222.42 355.36 222.83
  Z"
/>
<path fill="#ffe65e" d="
  M 359.47 224.13
  L 368.16 232.00
  A 2.08 1.30 5.6 0 0 368.38 232.17
  L 372.46 234.71
  A 0.27 0.26 56.8 0 1 372.36 235.20
  L 354.41 237.82
  A 0.32 0.32 0.0 0 1 354.04 237.54
  Q 354.02 237.40 354.03 237.23
  Q 354.86 236.68 354.73 236.01
  Q 354.23 233.33 351.51 232.36
  A 0.84 0.82 6.1 0 1 350.96 231.70
  Q 350.66 229.78 352.21 229.11
  A 0.44 0.44 0.0 0 1 352.70 229.82
  L 352.47 230.04
  A 0.28 0.27 -33.4 0 0 352.41 230.31
  Q 353.28 232.75 355.71 233.66
  Q 356.12 232.76 355.84 231.77
  L 355.43 231.00
  A 0.27 0.27 0.0 0 1 355.69 230.60
  Q 356.12 230.64 356.27 230.72
  A 1.20 1.16 -5.6 0 0 357.77 228.95
  Q 356.96 227.98 355.49 227.16
  Q 356.28 226.06 357.55 226.37
  A 0.92 0.92 0.0 0 0 358.68 225.48
  Q 358.69 224.15 359.47 224.13
  Z"
/>
<path fill="#7c632d" d="
  M 350.07 226.76
  Q 349.74 227.35 349.01 226.69
  L 350.07 226.76
  Z"
/>
<path fill="#c29d45" d="
  M 387.60 228.52
  A 0.20 0.20 0.0 0 1 387.68 228.79
  L 385.39 232.83
  A 2.06 0.75 -60.5 0 1 383.73 234.26
  L 383.12 233.91
  A 2.06 0.75 -60.5 0 1 383.48 231.75
  L 385.76 227.71
  A 0.20 0.20 0.0 0 1 386.04 227.63
  L 387.60 228.52
  Z"
/>
<path fill="#c29d45" d="
  M 394.86 231.37
  A 0.61 0.61 0.0 0 1 394.49 232.49
  Q 390.84 232.26 387.60 233.18
  A 0.28 0.28 0.0 0 1 387.29 232.77
  L 389.00 230.01
  A 0.99 0.97 -65.6 0 1 390.11 229.58
  Q 393.65 230.61 394.86 231.37
  Z"
/>
<path fill="#ffe65e" d="
  M 389.52 315.87
  Q 388.70 315.94 389.34 314.87
  A 1.04 1.01 49.5 0 0 389.40 313.97
  C 388.09 310.83 384.68 307.55 382.79 305.17
  A 1.95 1.94 -53.0 0 1 382.52 303.20
  Q 386.73 293.04 388.47 282.00
  A 1.73 1.72 2.1 0 1 390.04 280.55
  Q 405.30 279.30 415.19 278.85
  C 418.07 278.72 420.96 276.23 418.30 273.47
  C 413.53 268.52 407.16 263.32 399.74 257.06
  Q 398.64 256.13 397.36 254.42
  A 1.53 1.52 34.4 0 1 397.11 253.10
  L 402.41 234.51
  A 1.87 1.86 8.3 0 1 404.23 233.16
  Q 410.03 233.26 412.73 229.59
  Q 414.39 230.06 415.77 231.57
  A 2.73 2.70 -73.9 0 1 416.36 232.65
  Q 417.43 236.70 418.11 240.58
  Q 421.30 258.74 423.50 274.51
  C 424.02 278.20 420.93 282.59 418.73 285.22
  C 414.33 290.46 410.62 294.51 405.20 300.70
  Q 399.07 307.68 392.23 313.98
  Q 391.32 314.83 389.52 315.87
  Z"
/>
<path fill="#c29d45" d="
  M 355.71 233.66
  L 355.84 231.77
  Q 356.12 232.76 355.71 233.66
  Z"
/>
<path fill="#d6d0d0" d="
  M 195.51 241.39
  C 192.44 244.39 190.54 246.15 187.74 247.26
  A 0.60 0.60 0.0 0 1 187.09 246.26
  Q 190.75 242.68 193.83 239.67
  Q 196.90 236.66 200.57 233.08
  A 0.60 0.60 0.0 0 1 201.55 233.75
  C 200.37 236.52 198.58 238.39 195.51 241.39
  Z"
/>
<path fill="#c29d45" d="
  M 396.20 242.58
  Q 396.53 239.44 396.46 236.25
  Q 396.40 233.48 399.46 233.87
  A 0.69 0.68 -74.9 0 1 400.00 234.82
  C 398.48 238.39 399.58 241.71 397.33 245.02
  A 1.21 1.11 -28.9 0 1 395.16 244.49
  Q 395.18 243.98 395.75 243.45
  A 1.38 1.38 0.0 0 0 396.20 242.58
  Z"
/>
<path fill="#d6d0d0" d="
  M 351.43 236.95
  Q 348.68 239.38 347.72 237.36
  L 350.61 235.34
  A 0.48 0.48 0.0 0 1 351.32 235.54
  Q 351.56 236.08 351.43 236.95
  Z"
/>
<path fill="#c29d45" d="
  M 388.17 242.00
  Q 388.97 242.00 388.91 243.43
  Q 388.88 244.25 388.90 244.56
  Q 388.97 245.41 388.19 245.58
  A 0.71 0.70 -25.0 0 1 387.49 245.33
  L 385.72 243.12
  A 1.77 1.74 35.1 0 1 385.42 241.47
  L 387.12 236.40
  A 1.71 1.70 -85.0 0 1 388.50 235.24
  L 389.93 235.03
  A 0.40 0.40 0.0 0 1 390.36 235.57
  L 387.98 241.72
  A 0.21 0.20 -79.2 0 0 388.17 242.00
  Z"
/>
<path fill="#c29d45" d="
  M 396.29 256.31
  Q 395.05 257.40 394.62 259.31
  L 394.32 255.30
  A 1.01 1.01 0.0 0 0 393.68 254.44
  L 391.38 253.55
  A 0.47 0.47 0.0 0 0 390.75 254.06
  L 392.14 263.57
  A 0.57 0.57 0.0 0 1 391.37 264.19
  L 389.71 263.55
  A 1.42 1.42 0.0 0 1 388.82 261.98
  L 389.67 257.09
  A 1.17 1.17 0.0 0 0 387.69 256.06
  Q 386.61 257.13 386.00 257.46
  A 0.66 0.66 0.0 0 1 385.05 256.72
  L 386.45 251.07
  A 2.04 1.98 48.0 0 0 386.48 250.30
  Q 386.14 247.99 383.55 245.62
  A 1.35 1.17 35.6 0 0 381.54 245.81
  Q 381.13 246.64 379.69 246.62
  A 0.68 0.67 9.8 0 1 379.06 245.74
  L 381.12 239.59
  A 0.89 0.78 -17.2 0 1 381.33 239.25
  Q 382.24 238.39 382.19 236.83
  A 0.77 0.76 -5.4 0 1 382.85 236.04
  L 385.13 235.71
  A 0.73 0.73 0.0 0 1 385.81 236.89
  Q 384.11 238.99 383.90 240.93
  A 0.83 0.82 1.2 0 1 383.12 241.67
  Q 382.70 241.70 382.69 241.70
  A 0.57 0.57 0.0 0 0 382.71 242.53
  L 389.15 248.47
  A 0.56 0.56 0.0 0 0 390.09 247.98
  C 389.81 246.09 390.73 244.55 390.91 242.70
  Q 391.16 240.21 390.95 237.65
  A 0.98 0.97 -68.6 0 1 392.64 236.91
  Q 393.60 237.98 394.10 239.86
  A 1.61 1.61 0.0 0 1 393.95 241.04
  Q 392.01 244.63 392.29 249.12
  A 0.71 0.71 0.0 0 1 391.58 249.88
  Q 390.27 249.88 389.58 251.14
  A 0.94 0.94 0.0 0 0 390.81 252.45
  Q 394.82 250.55 396.29 256.31
  Z"
/>
<path fill="#ffe65e" d="
  M 380.32 238.78
  A 0.17 0.17 0.0 0 1 380.13 238.93
  L 379.73 238.88
  A 2.73 1.15 6.8 0 1 377.16 237.41
  L 377.17 237.31
  A 2.73 1.15 6.8 0 1 380.01 236.50
  L 380.41 236.54
  A 0.17 0.17 0.0 0 1 380.56 236.73
  L 380.32 238.78
  Z"
/>
<path fill="#ffe65e" d="
  M 375.21 256.58
  L 374.25 257.84
  L 350.60 248.49
  A 0.84 0.83 -54.8 0 1 350.36 247.08
  Q 353.26 244.55 353.79 241.82
  A 2.38 2.37 1.2 0 1 355.77 239.93
  L 373.75 237.31
  A 1.91 1.91 0.0 0 1 375.36 237.85
  L 378.53 241.02
  A 1.10 1.09 -59.3 0 1 378.80 242.11
  L 376.58 249.64
  A 0.88 0.77 -41.1 0 0 376.55 249.86
  Q 376.45 252.65 374.93 255.22
  Q 374.69 255.63 375.21 256.58
  Z"
/>
<path fill="#3b4079" d="
  M 143.75 245.50
  Q 143.48 245.48 143.13 244.99
  Q 143.62 245.19 143.75 245.50
  Z"
/>
<path fill="#3b4079" d="
  M 337.22 252.56
  Q 335.43 252.97 332.48 251.26
  Q 330.22 249.94 325.47 251.99
  L 329.94 245.39
  A 0.93 0.93 0.0 0 1 331.44 245.33
  L 337.22 252.56
  Z"
/>
<path fill="#c29d45" d="
  M 374.25 257.84
  L 375.21 256.58
  Q 376.82 253.98 378.71 251.74
  Q 379.19 251.17 379.37 249.70
  A 1.22 1.22 0.0 0 1 379.90 248.84
  Q 381.25 247.90 381.38 247.54
  A 0.50 0.49 19.7 0 1 382.03 247.24
  Q 383.61 247.87 384.47 248.97
  A 1.13 1.12 35.3 0 1 384.65 250.00
  L 382.53 256.66
  A 0.25 0.25 0.0 0 0 382.90 256.95
  Q 383.06 256.85 383.60 256.91
  A 0.74 0.74 0.0 0 1 384.26 257.77
  Q 384.06 258.95 383.30 260.35
  A 0.98 0.96 9.7 0 1 382.58 260.85
  Q 380.66 261.12 380.32 259.90
  A 0.65 0.65 0.0 0 0 379.60 259.43
  L 378.64 259.57
  A 0.53 0.53 0.0 0 1 378.10 258.77
  Q 381.72 252.69 382.63 250.66
  Q 382.91 250.02 383.09 249.13
  A 0.67 0.67 0.0 0 0 381.93 248.55
  Q 381.02 249.57 380.39 251.43
  Q 378.91 255.71 375.91 258.03
  A 0.80 0.80 0.0 0 1 375.14 258.16
  L 374.25 257.84
  Z"
/>
<ellipse fill="#d6d0d0" cx="0.00" cy="0.00" transform="translate(247.82,251.06) rotate(-60.9)" rx="1.29" ry="0.90"/>
<path fill="#ffe65e" d="
  M 344.60 254.32
  L 345.09 253.73
  Q 346.05 253.34 345.75 252.54
  Q 346.07 252.05 346.00 252.50
  Q 346.93 251.00 348.06 250.48
  A 1.11 1.11 0.0 0 1 348.95 250.45
  L 373.07 259.76
  A 0.80 0.79 19.1 0 1 373.54 260.72
  L 368.18 279.53
  A 1.02 1.00 -85.9 0 1 367.35 280.26
  Q 364.56 280.69 363.44 280.31
  A 2.17 2.12 -10.8 0 1 362.37 279.60
  L 343.73 256.25
  A 0.51 0.51 0.0 0 1 343.61 255.95
  Q 343.53 255.19 344.60 254.32
  Z"
/>
<path fill="#7c632d" d="
  M 345.75 252.54
  Q 346.05 253.34 345.09 253.73
  Q 345.27 253.05 345.75 252.54
  Z"
/>
<path fill="#ffe65e" d="
  M 396.29 256.31
  L 417.08 274.85
  A 0.13 0.12 39.9 0 1 417.10 275.02
  L 416.95 275.24
  A 0.44 0.43 -58.2 0 1 416.40 275.37
  Q 416.09 275.20 415.38 274.04
  A 1.45 1.45 0.0 0 0 414.64 273.42
  L 394.35 265.58
  A 0.73 0.73 0.0 0 1 393.89 264.80
  L 394.62 259.31
  Q 395.05 257.40 396.29 256.31
  Z"
/>
<path fill="#3b4079" d="
  M 295.40 289.21
  Q 292.98 289.44 291.93 292.13
  A 1.66 1.47 60.1 0 0 291.82 292.66
  L 291.22 301.79
  L 286.08 295.68
  Q 288.79 291.70 290.31 288.25
  Q 290.42 288.01 290.25 287.49
  Q 290.48 287.36 290.77 287.30
  A 0.44 0.41 8.3 0 0 291.03 287.12
  L 306.62 261.93
  A 2.92 2.91 -69.8 0 1 309.52 260.58
  L 309.70 260.61
  A 1.47 1.46 -71.2 0 1 310.76 262.78
  Q 304.94 273.20 298.58 283.07
  Q 297.04 285.47 295.40 289.21
  Z"
/>
<path fill="#c29d45" d="
  M 376.88 261.61
  L 375.74 263.45
  A 0.60 0.60 0.0 0 0 376.15 264.36
  L 376.50 264.42
  A 0.40 0.40 0.0 0 0 376.96 264.11
  Q 377.41 261.97 379.72 262.09
  A 0.50 0.50 0.0 0 1 380.16 262.78
  Q 379.36 264.64 378.24 265.74
  A 1.82 1.78 83.0 0 0 377.95 266.12
  Q 376.12 269.34 375.87 271.72
  Q 375.75 272.78 376.62 273.13
  A 0.76 0.75 -79.1 0 1 377.09 273.83
  Q 377.10 276.57 374.98 279.23
  A 0.46 0.46 0.0 0 0 375.57 279.91
  L 377.87 278.59
  A 0.76 0.76 0.0 0 1 378.86 278.78
  L 379.10 279.08
  A 0.22 0.22 0.0 0 0 379.49 278.98
  L 380.49 273.19
  A 0.60 0.60 0.0 0 0 379.86 272.49
  L 377.68 272.62
  A 0.30 0.29 -76.2 0 1 377.41 272.17
  L 380.61 267.00
  A 0.39 0.39 0.0 0 1 381.27 267.01
  Q 382.01 268.31 380.81 271.82
  A 0.60 0.60 0.0 0 0 381.42 272.62
  L 381.89 272.59
  A 0.62 0.62 0.0 0 1 382.55 273.17
  L 382.91 278.88
  A 0.77 0.77 0.0 0 1 382.39 279.66
  Q 381.07 280.11 379.54 279.51
  A 0.87 0.87 0.0 0 0 378.79 279.57
  L 376.79 280.72
  A 1.50 1.49 38.5 0 1 375.61 280.85
  Q 374.55 280.54 373.02 280.66
  A 0.61 0.60 -76.4 0 1 372.46 279.74
  L 375.51 274.82
  A 0.57 0.57 0.0 0 0 374.99 273.95
  L 374.59 273.97
  A 0.49 0.48 -76.0 0 0 374.22 274.20
  L 370.28 280.57
  A 1.13 1.12 14.4 0 1 369.38 281.10
  L 369.08 281.12
  A 0.37 0.37 0.0 0 1 368.71 280.61
  Q 370.36 276.62 371.87 274.82
  A 2.67 2.60 -16.4 0 0 372.36 273.95
  Q 373.78 269.76 374.70 262.98
  Q 374.97 260.97 376.46 260.89
  A 0.47 0.47 0.0 0 1 376.88 261.61
  Z"
/>
<path fill="#ffe65e" d="
  M 345.01 282.15
  Q 342.80 282.72 342.81 280.48
  Q 342.65 280.25 342.67 279.79
  Q 342.75 279.23 342.63 278.70
  L 340.90 265.61
  Q 341.77 262.96 346.00 263.16
  A 1.19 1.17 72.0 0 1 346.85 263.60
  L 360.38 280.54
  A 0.28 0.28 0.0 0 1 360.18 280.99
  L 345.01 282.15
  Z"
/>
<path fill="#c29d45" d="
  M 385.42 275.33
  A 0.43 0.43 0.0 0 1 385.05 275.82
  L 384.70 275.88
  A 0.36 0.36 0.0 0 1 384.29 275.57
  L 383.97 273.41
  A 0.71 0.71 0.0 0 0 383.35 272.81
  Q 382.74 272.74 382.65 272.23
  Q 382.55 271.64 382.79 271.16
  Q 384.10 268.52 382.77 264.95
  A 0.74 0.73 5.7 0 1 383.85 264.07
  L 385.67 265.20
  A 0.97 0.96 16.4 0 1 386.13 266.04
  Q 386.05 270.35 385.09 272.22
  A 0.65 0.61 55.2 0 0 385.03 272.63
  L 385.42 275.33
  Z"
/>
<path fill="#3b4079" d="
  M 338.78 265.13
  L 337.00 265.10
  Q 338.05 264.93 338.78 265.13
  Z"
/>
<path fill="#ffe65e" d="
  M 390.23 268.32
  A 0.54 0.53 62.5 0 1 390.54 267.33
  C 394.51 267.58 396.82 269.00 400.41 270.33
  Q 409.95 273.86 415.07 275.92
  Q 415.61 276.14 416.33 276.14
  A 0.31 0.31 0.0 0 1 416.64 276.47
  L 416.63 276.51
  A 0.27 0.26 2.6 0 1 416.38 276.73
  L 390.56 278.37
  A 0.80 0.79 14.0 0 1 389.83 277.16
  Q 391.42 274.59 392.19 270.47
  A 1.24 1.22 -69.0 0 0 391.63 269.19
  L 390.23 268.32
  Z"
/>
<path fill="#c29d45" d="
  M 264.35 274.36
  Q 263.83 275.40 263.75 275.46
  A 0.66 0.66 0.0 0 1 262.85 275.33
  Q 262.24 274.56 262.73 273.56
  Q 263.23 272.57 264.21 272.58
  A 0.66 0.66 0.0 0 1 264.86 273.22
  Q 264.86 273.33 264.35 274.36
  Z"
/>
<path fill="#c29d45" d="
  M 342.67 279.79
  Q 342.65 279.75 342.62 279.71
  L 342.63 278.70
  Q 342.75 279.23 342.67 279.79
  Z"
/>
<path fill="#3b4079" d="
  M 342.67 279.79
  Q 342.65 280.25 342.81 280.48
  Q 342.56 281.23 341.73 280.84
  Q 342.65 280.91 342.62 279.71
  Q 342.65 279.75 342.67 279.79
  Z"
/>
<path fill="#c29d45" d="
  M 382.35 283.26
  Q 381.80 283.66 380.85 283.60
  A 1.68 1.66 -69.8 0 0 379.42 284.27
  Q 378.62 285.33 376.79 287.83
  A 0.59 0.59 0.0 0 1 375.88 287.89
  Q 375.53 287.53 375.65 287.23
  C 376.71 284.64 379.07 279.89 382.36 282.29
  A 0.60 0.60 0.0 0 1 382.35 283.26
  Z"
/>
<path fill="#7c632d" d="
  M 329.21 282.13
  L 327.50 282.14
  L 329.21 282.13
  Z"
/>
<path fill="#7c632d" d="
  M 332.23 282.14
  L 329.71 282.13
  L 332.23 282.14
  Z"
/>
<path fill="#c29d45" d="
  M 384.87 282.32
  L 386.30 285.93
  A 2.57 2.53 -49.7 0 1 386.41 287.41
  C 385.48 291.60 384.93 294.40 382.29 297.19
  A 0.83 0.82 -49.6 0 1 381.19 297.28
  L 381.10 297.22
  A 0.68 0.67 -49.2 0 1 381.03 296.21
  Q 383.35 293.89 384.29 289.96
  A 0.76 0.54 61.6 0 0 384.31 289.79
  L 384.27 282.44
  A 0.31 0.31 0.0 0 1 384.87 282.32
  Z"
/>
<path fill="#c29d45" d="
  M 369.91 287.50
  A 0.46 0.45 -58.3 0 1 369.29 287.65
  L 368.69 287.28
  A 0.81 0.81 0.0 0 1 368.41 286.20
  Q 369.45 284.29 370.82 283.97
  A 1.13 1.11 3.5 0 0 371.59 283.30
  Q 372.18 281.80 373.66 282.16
  A 1.10 0.99 -41.4 0 1 373.42 284.19
  Q 373.05 284.27 372.26 284.39
  A 1.03 1.02 11.9 0 0 371.55 284.85
  L 369.91 287.50
  Z"
/>
<path fill="#ffe65e" d="
  M 366.84 282.66
  Q 367.02 282.70 367.81 283.01
  A 0.49 0.49 0.0 0 1 367.93 283.86
  Q 367.19 284.43 366.42 284.23
  Q 365.65 284.02 365.29 283.17
  A 0.49 0.49 0.0 0 1 365.81 282.49
  Q 366.65 282.61 366.84 282.66
  Z"
/>
<path fill="#ffe65e" d="
  M 338.50 296.12
  Q 338.30 294.96 339.01 293.73
  Q 339.87 292.22 339.97 290.80
  L 340.28 289.27
  L 341.67 285.06
  A 1.47 1.46 -82.6 0 1 342.97 284.05
  L 361.62 282.87
  A 1.02 1.01 68.7 0 1 362.47 283.25
  L 365.35 286.85
  A 2.20 2.18 -56.6 0 1 365.74 288.80
  L 362.17 301.33
  A 1.30 1.30 0.0 0 1 360.57 302.22
  L 348.84 298.88
  A 0.29 0.29 0.0 0 0 348.48 299.06
  L 348.37 299.39
  A 0.08 0.07 -73.0 0 0 348.41 299.48
  C 352.18 300.90 357.96 303.04 362.30 304.09
  Q 377.40 307.73 379.08 308.10
  Q 380.15 308.34 381.48 307.80
  A 0.78 0.77 63.8 0 1 382.44 308.13
  Q 383.94 310.67 386.49 312.83
  A 0.38 0.38 0.0 0 1 386.13 313.48
  Q 361.08 305.69 350.23 302.32
  Q 350.02 302.25 348.05 300.89
  A 1.08 1.05 15.4 0 1 347.59 300.10
  Q 347.52 299.14 346.76 298.97
  C 344.01 298.37 340.63 298.02 338.50 296.12
  Z"
/>
<path fill="#c29d45" d="
  M 373.59 285.91
  A 0.08 0.08 0.0 0 1 373.70 285.90
  L 373.71 285.91
  A 1.41 1.17 43.6 0 1 373.92 287.73
  L 371.96 289.79
  A 1.41 1.17 43.6 0 1 370.14 289.66
  L 370.13 289.65
  A 0.08 0.08 0.0 0 1 370.13 289.54
  L 373.59 285.91
  Z"
/>
<path fill="#7c632d" d="
  M 317.53 286.28
  Q 316.94 286.60 316.22 286.49
  Q 316.77 286.12 317.53 286.28
  Z"
/>
<path fill="#7c632d" d="
  M 316.22 286.49
  Q 315.68 286.78 314.95 286.74
  Q 315.09 286.16 316.22 286.49
  Z"
/>
<path fill="#7c632d" d="
  M 314.23 286.81
  L 311.45 286.89
  Q 312.77 286.55 314.23 286.81
  Z"
/>
<ellipse fill="#3b4079" cx="0.00" cy="0.00" transform="translate(286.57,289.29) rotate(-134.0)" rx="1.33" ry="0.91"/>
<path fill="#3b4079" d="
  M 339.97 290.80
  Q 339.87 292.22 339.01 293.73
  Q 338.04 293.64 337.32 291.20
  Q 338.67 291.73 339.97 290.80
  Z"
/>
<path fill="#c29d45" d="
  M 371.05 294.29
  L 370.33 295.45
  A 1.24 1.23 58.9 0 0 370.15 296.19
  L 370.41 299.44
  A 0.82 0.81 -6.4 0 1 369.71 300.31
  L 368.41 300.50
  A 0.51 0.51 0.0 0 1 367.84 299.86
  L 369.55 293.86
  A 0.72 0.71 -70.8 0 1 370.51 293.39
  L 370.79 293.50
  A 0.54 0.54 0.0 0 1 371.05 294.29
  Z"
/>
<path fill="#ffe65e" d="
  M 375.68 300.47
  Q 376.31 300.81 376.50 301.17
  A 0.94 0.93 83.6 0 1 375.44 302.52
  Q 372.23 301.61 373.45 297.32
  A 0.18 0.17 46.3 0 1 373.79 297.33
  Q 374.11 298.71 375.35 300.20
  A 1.11 1.04 82.4 0 0 375.68 300.47
  Z"
/>
<path fill="#ffe65e" d="
  M 370.94 301.17
  A 0.25 0.25 0.0 0 1 371.28 301.26
  L 371.36 301.39
  A 2.08 1.95 59.6 0 1 370.73 304.17
  L 370.63 304.23
  A 2.08 1.95 59.6 0 1 367.89 303.42
  L 367.82 303.29
  A 0.25 0.25 0.0 0 1 367.90 302.95
  L 370.94 301.17
  Z"
/>
<path fill="#ffe65e" d="
  M 386.62 316.07
  Q 386.58 316.03 386.54 316.00
  L 385.77 315.98
  C 382.37 316.46 380.10 315.50 376.97 314.72
  Q 363.76 311.44 350.96 306.66
  Q 352.51 305.49 354.24 306.04
  Q 370.40 311.12 386.62 316.07
  Z"
/>
<path fill="#7c632d" d="
  M 386.54 316.00
  Q 386.00 316.26 385.77 315.98
  L 386.54 316.00
  Z"
/>
<ellipse fill="#d6d0d0" cx="0.00" cy="0.00" transform="translate(229.34,318.98) rotate(-74.8)" rx="1.54" ry="1.08"/>
<path fill="#d6d0d0" d="
  M 237.35 339.93
  C 236.84 342.66 235.28 346.99 232.89 348.54
  A 0.32 0.32 0.0 0 1 232.40 348.20
  L 233.84 342.22
  L 233.97 341.54
  L 235.04 336.73
  Q 236.51 337.27 237.35 339.93
  Z"
/>
<path fill="#3b4079" d="
  M 233.97 341.54
  L 233.84 342.22
  Q 233.82 341.84 233.97 341.54
  Z"
/>
<ellipse fill="#d6d0d0" cx="0.00" cy="0.00" transform="translate(244.84,343.81) rotate(-59.3)" rx="1.93" ry="1.00"/>
<path fill="#c29d45" d="
  M 326.15 365.40
  Q 326.59 362.95 328.95 361.62
  A 1.53 1.53 0.0 0 1 331.13 362.39
  L 331.51 363.36
  A 1.50 1.50 0.0 0 1 330.66 365.31
  L 327.54 366.54
  A 1.03 1.03 0.0 0 1 326.15 365.40
  Z"
/>
<ellipse fill="#d6d0d0" cx="0.00" cy="0.00" transform="translate(261.44,370.53) rotate(-82.1)" rx="1.75" ry="1.26"/>
<path fill="#d6d0d0" d="
  M 359.51 399.59
  A 1.21 1.21 0.0 0 1 357.74 399.58
  L 357.06 398.86
  A 1.53 1.53 0.0 0 1 356.93 396.94
  Q 356.98 396.88 358.22 395.39
  C 359.64 393.70 361.43 394.10 362.27 396.06
  A 1.73 1.34 75.4 0 1 361.25 398.43
  Q 360.60 398.43 359.51 399.59
  Z"
/>
<path fill="#c29d45" d="
  M 289.69 413.87
  A 1.48 1.47 -71.9 0 1 288.58 411.66
  Q 289.12 410.73 290.03 409.60
  A 1.70 1.59 56.2 0 1 292.83 410.26
  Q 293.45 412.07 291.34 412.51
  Q 290.88 412.61 290.53 413.21
  Q 290.11 413.91 289.69 413.87
  Z"
/>
<path fill="#d6d0d0" d="
  M 396.68 432.67
  Q 398.14 434.34 398.20 435.88
  Q 396.53 436.46 395.26 437.59
  A 1.69 1.66 59.1 0 1 392.59 436.89
  Q 391.89 435.05 393.48 434.71
  A 1.21 1.20 -80.9 0 0 394.28 434.13
  Q 395.15 432.56 396.68 432.67
  Z"
/>
<rect fill="#d6d0d0" x="-2.75" y="-1.77" transform="translate(319.93,444.63) rotate(-40.6)" width="5.50" height="3.54" rx="1.48"/>
</svg>
