<?xml version="1.0" encoding="UTF-8" standalone="no"?>
<!-- Created with Inkscape (http://www.inkscape.org/) -->

<svg
   version="1.1"
   id="svg1"
   width="682.66669"
   height="182.66667"
   viewBox="0 0 682.66669 182.66667"
   xmlns="http://www.w3.org/2000/svg"
   xmlns:svg="http://www.w3.org/2000/svg"
   xmlns:rdf="http://www.w3.org/1999/02/22-rdf-syntax-ns#"
   xmlns:cc="http://creativecommons.org/ns#"
   xmlns:dc="http://purl.org/dc/elements/1.1/">
  <title
     id="title1">CYGNESS Icon SVG</title>
  <defs
     id="defs1" />
  <g
     id="g1">
    <path
       style="fill:currentColor"
       d="M 260.00001,177.25046 C 232.54352,175.16753 214.71733,152.8602 193.55283,138.06209 180.23512,127.60994 166.9174,117.15779 153.59969,106.70564 147.3435,94.009404 154.84905,72.709984 146.72949,67.051093 115.54831,67.060091 85.376079,55.985766 54.549059,53.870363 39.977841,49.577997 13.378005,52.517169 6.895983,41.699392 49.882637,25.840392 94.362684,13.943147 138,-0.17811649 160.01915,1.795159 182.3809,4.5616212 203.9067,7.5609355 c 30.14285,1.3227883 59.50303,7.5294475 89.40862,9.4402445 19.02491,2.569624 40.37517,2.79725 55.49264,10.258796 25.80936,4.695079 51.28577,-2.135511 77.22668,4.291451 23.02984,1.507486 43.88128,7.519339 66.44563,7.626848 24.70153,3.858604 50.17644,3.846796 74.40135,10.041712 12.64875,2.896883 37.27466,0.439362 54.71512,4.518636 18.74123,4.941718 48.22111,-0.630429 60.07308,12.492529 -9.25493,13.789777 -3.05006,34.298118 -9.11462,43.850598 -6.26596,-8.09786 -10.91136,26.53109 -16.27049,34.99906 -14.49605,13.4387 -42.62759,-2.76196 -62.52644,-2.17146 -27.64123,-5.00929 -55.9788,-7.41657 -82.9076,-15.57148 5.61196,-16.242 -13.27693,8.42682 -24.39611,-1.79596 -20.2405,-3.20512 -40.42673,-6.74274 -60.63992,-10.11482 -12.5838,10.46596 -22.67076,23.29002 -37.31273,31.35422 -33.55243,13.48451 -68.17267,25.78846 -103.12548,35.72183 -8.54215,-1.29876 -16.94544,-3.39032 -25.37642,-5.25268 z m 128.42922,-38.968 c 8.61375,-4.95836 18.24174,-14.22048 2.35296,-2.47563 0.71411,-11.2416 -8.14617,-6.10035 -6.20483,-22.38373 0.92126,3.16477 -3.87948,41.18803 3.85187,24.85936 z m 136.58403,-30.06404 c 13.24371,-9.174009 29.61977,-35.044513 32.01606,-41.162328 -9.86696,10.669237 -35.0508,36.549738 -34.30024,41.369088 z M 406.03529,92.257507 c -4.32525,0.0637 -3.9168,5.030288 0,0 z M 280.00001,86.802058 c 20.37595,-12.210068 -2.2728,-7.198255 -8.98476,-0.181063 2.4201,-0.0014 7.60794,2.663436 8.98476,0.181063 z M 233.15646,74.155444 c 5.86619,-9.280846 -42.29451,-1.884498 -18.85733,-0.147293 6.12953,0.470591 13.06849,3.503009 18.85733,0.147293 z m 11.87575,-7.61863 c -13.04802,-5.430653 -34.92883,1.044783 -8.94222,3.14504 1.7444,3.189412 10.29383,-0.798444 8.94222,-3.14504 z m 50.44378,-4.645862 c -3.05885,-9.92038 -15.68079,6.38739 -0.065,1.621723 z m 36.52402,-5.918192 c 33.52923,-9.866483 -25.42322,-19.021118 -24.43108,-0.220317 15.39763,-7.124852 2.08418,17.664449 18.92851,3.302689 l 2.67303,-1.488702 z m -28.47619,-0.639425 c -13.79526,-7.395925 -1.40373,7.619451 0,0 z"
       id="path1" />
  </g>
  <metadata
     id="metadata1">
    <rdf:RDF>
      <cc:Work
         rdf:about="">
        <dc:title>CYGNESS Icon SVG</dc:title>
        <dc:source>https://science.nasa.gov/wp-content/uploads/2023/05/cygnss.png</dc:source>
      </cc:Work>
    </rdf:RDF>
  </metadata>
</svg>
