<svg xmlns="http://www.w3.org/2000/svg" baseProfile="tiny" width="512" height="137" xmlns:v="https://vecta.io/nano"><style><![CDATA[.B{fill:#c4a66e}.C{fill:#1c180e}.D{fill:#010101}.E{fill:#214589}]]></style><path d="M144.98 4.85l-9.82 2.57a.39.38 55 0 0-.12.69q.57.39 1.36.04 2.39-1.06 4.14-1.08a1.27 1.27 0 0 1 .97.45q.11.13.13.14a1.46 1.43 52 0 0 1.27.17l2.24-.78a.91.87-78.1 0 0 .42-.29q.69-.86 1.83-.83l.03 1.28q-1.25.01-2.23 1.8a.32.32 0 0 0 .46.41q3.29-2.32 8.13-3.29l26.76 2.73q-.34 1.03.46 1.14 1.25.18 1.19-.97l9.25.99q.54.62 1.54.15l2.26.21q.04 1.83-1.91 2.16a.57.57 0 0 0-.46.66q.02.11.07.37a.55.55 0 0 1-.62.65l-1.12-.19a.89.89 0 0 0-.73.23q-.95.93-2.4 1.52-.09.03-1.66.02-.85 0-1.46 1.25-1.72-.65-3.03-.14-10.85 4.25-19.97 8.7.2-2.52-2.51-.24.18.98-1.12 1.37-1.61.47-1.81.55-12.2 4.97-25.16 10.23-.17.06-.92.2-2.6.49-1.74 1.57-.25.42-.58.49-.45.1-.5-.37-.07-.58-.76-.74a.81.8 24.9 0 0-.81.29q-1.4 1.84-3.94 2.41a1.75 1.73-80.6 0 0-1.14.83q-1.43 2.52-4.59 2.25l.36-.88a.39.39 0 0 0-.35-.54q-.73-.02-1.15.53c-.8 1.04-3.12 1.68-6.14 2.94q-.83.34-1.74.27-1.13-.09-1.61.6a.67.67 0 0 1-.66.28l-13.72-2.23a.6.6 0 0 1 .03-1.19l2.27-.23a.29.29 0 0 0 .01-.57q-2.72-.4-3.63 1-7.01-2.4-14.03-2.96-.6-.04-1.02.31-.6-.39-1.42.17-.07-.8-1.46-1.05-5.2-.93-10.44-1.9.8-.36 1.14-.99a.99.99 0 0 1 .79-.53q4-.36 7.59-2 2.32-1.06 6.26-2.61.66-.26 54.53-19.15 2.5-.88 4.93-2.26l.83-.17a.18.18 0 0 0 .01-.35q-.5-.15-.82-.48l1.47-.83a.26.24-30.4 0 0 .1-.33l-.01-.01a.27.27 0 0 0-.38-.1q-1.27.78-2.92 1a.64.64 0 0 1-.7-.46q-.08-.26-.06-.49.01-.23-.8.05-49.88 17.16-59.53 20.56-1.48.53-3.41 1.55a1.63 1.62 33.4 0 1-.94.19q-4.5-.49-7.78 1.81-.23.75-1.52.97-4.77 1.96-9.71 3.41-.57.17-1.72.07-.07-.49-.52-.58-6.12-1.25-12.28-1.97-1.08-.36-1.5.21-.4-.72-1.24-.84-5.27-.71-10.5-1.65-.82-.14-1.33.47l-1.48-.32q0-.3-.24-.49a.37.32 65.1 0 0-.2-.09L9.46 30.97l-.32-.14a.29.29 0 0 1-.07-.49l.95-.76L15.2 28q2.65.1 4.65-1.43.46-.25 1.17-.3.93-.01 1.5-.49l4.23-1.22 12.39-3.68q-.37-.35.56-.27 8.25-1.69 15.82-4.87 3.59-2.44 7.82-2.44 13.87-3.06 26.95-8.33L103.7.51a1.94 1.93 38.4 0 1 .8-.09l40.48 4.43zM69.47 18.48q-.7-.01-1.12.17a.43.42-54.2 0 0 .13.81q4.68.48 9.5 1.33.87.16 1.71-.29a.32.32 0 0 0-.05-.59q-.33-.11-.86-.07c2.38.12 6.77.25 8.73-1.15a.17.16-72.5 0 0-.15-.29l-.39.14q-.01-.16-.03-.3a.81.8-.4 0 0-.67-.65l-8.74-1.38-8.11 1.48a.29.28 87.5 0 0-.23.26q-.04.31.28.53zm69.65 6.73q-.03-.33-.22-.57a.52.48-13.5 0 0-.32-.18q-6.01-.93-12.08-1.32-.49-.03-1.42.78.4-.78-.5-.36-2.18 1.01-4.97 1.02a.28.28 0 0 0-.03.56l10.65 1.41a.4.4 0 0 1 .15.05q1 .48 1.83.42a.46.46 0 0 1 .47.61q-.19.54.3.79a.37.37 0 0 0 .43-.07l.73-.73a1.49 1.43-74.2 0 1 .6-.35l6.44-1.88a.26.26 0 0 0-.03-.51q-1.05-.21-2.03.33zm-21.07 8.7q-.61-.29-1.59.1a.28.27 32.5 0 0 .12.53l1.36-.07a.3.29 56.4 0 0 .11-.56zm-17.27 6.7q-1.29-.04-1.47.09a.27.27 0 0 0 .1.49q.62.13 1.44-.18a.21.21 0 0 0-.07-.4z" class="E"/><path d="M90.29 4.97q-13.08 5.27-26.95 8.33 13.24-4.97 26.95-8.33z" class="D"/><path d="M147.4 5.93q-1.14-.03-1.83.83a.91.87-78.1 0 1-.42.29l-2.24.78a1.46 1.43 52 0 1-1.27-.17q-.02-.01-.13-.14a1.27 1.27 0 0 0-.97-.45q-1.75.02-4.14 1.08-.79.35-1.36-.04a.39.38 55 0 1 .12-.69l9.82-2.57q.56-.11 1.96.14.4.07.49.32.09.25-.03.62zm6.39.2q-4.84.97-8.13 3.29a.32.32 0 0 1-.46-.41q.98-1.79 2.23-1.8 4.01-1.94 6.36-1.08zm28.41 2.9q.06 1.15-1.19.97-.8-.11-.46-1.14.87-.11 1.65.17z" class="C"/><path d="M136.94 10.46c-1.75.84-3.27-.62-5.09.26q-1.92.92-4.95 1.95-11.29 3.86-56.26 19.72a.97.88-48 0 1-.48.05q-3.83-.48-8.18.96 3.28-2.3 7.78-1.81a1.63 1.62 33.4 0 0 .94-.19q1.93-1.02 3.41-1.55 9.65-3.4 59.53-20.56.81-.28.8-.05-.02.23.06.49a.64.64 0 0 0 .7.46q1.65-.22 2.92-1a.27.27 0 0 1 .38.1l.01.01a.26.24-30.4 0 1-.1.33l-1.47.83z" class="D"/><path d="M192.99 10.17q-1 .47-1.54-.15l1.54.15zm6.38 2.29l-.37.52a1.27 1.26-75.1 0 1-.89.52q-2.39.25-4.14 2.24-.02.02-.65.21-.31.09-.57.03a.51.51 0 0 0-.62.53q.03.49.36 1.04-1.12.81-2.02.61-.77-1.03-1.73-.62-1.63.71-3.29.94-.03-1.01-.49-1.43.61-1.25 1.46-1.25 1.57.01 1.66-.02 1.45-.59 2.4-1.52a.89.89 0 0 1 .73-.23l1.12.19a.55.55 0 0 0 .62-.65q-.05-.26-.07-.37a.57.57 0 0 1 .46-.66q1.95-.33 1.91-2.16c1.83.09 4.3-.12 4.12 2.08zm-62.43-2q.32.33.82.48a.18.18 0 0 1-.01.35l-.83.17q-.82-.2-1.39 0-19.37 6.9-55.73 19.59-.78.27-2.59 1.3a2.12 2.05 27.5 0 1-.91.27c-2.02.12-3.83 1.98-5.63 2.56q-3.91 1.27-6.51 1.25a.46.46 0 0 1-.23-.86q1.38-.82 2.93-1.45-.02 0-.05 0a.17.05-29.5 0 0-.08.02l-5.59 1.92a.83.8 77 0 1-1.06-.69q-.03-.28.38-1 1.29-.22 1.52-.97 4.35-1.44 8.18-.96a.97.88-48 0 0 .48-.05q44.97-15.86 56.26-19.72 3.03-1.03 4.95-1.95c1.82-.88 3.34.58 5.09-.26z" class="B"/><path d="M136.92 11.46q-2.43 1.38-4.93 2.26-53.87 18.89-54.53 19.15-3.94 1.55-6.26 2.61-3.59 1.64-7.59 2a.99.99 0 0 0-.79.53q-.34.63-1.14.99-1.03-.23-1.79.18a.49.49 0 0 0 .16.91l.45.08a.29.29 0 0 1-.08.57l-4.65-.51q-.17-.45-1.54-.36 3.83-1.84 8.16-2.89a.21.03-12.7 0 0 .21-.08q-.04-.07-.01-.18a.24.18-11.7 0 0-.36-.17c-1.37.77-2.55-.23-4.27.35q-5.18 1.75-6.55 2.08a11.88 7.98-37.1 0 1-4.4.25L4.28 32.11q2.1-1.98 5.74-2.53l-.95.76a.29.29 0 0 0 .07.49l.32.14q-.81-.28-1.21.11a.46.46 0 0 0 .24.79q5.45.9 11 1.7.38.06.69-.4l1.48.32q.62.74 1.82.89 4.91.61 9.77 1.55.8.15 1.48-.42.42-.57 1.5-.21-.21.46-.19.56a.63.63 0 0 0 .5.5q5.85 1.07 11.73 1.85.6.08.76-.36 1.15.1 1.72-.07 4.94-1.45 9.71-3.41-.41.72-.38 1a.83.8 77 0 0 1.06.69l5.59-1.92a.17.05-29.5 0 1 .08-.02q.03 0 .05 0-1.55.63-2.93 1.45a.46.46 0 0 0 .23.86q2.6.02 6.51-1.25c1.8-.58 3.61-2.44 5.63-2.56a2.12 2.05 27.5 0 0 .91-.27q1.81-1.03 2.59-1.3 36.36-12.69 55.73-19.59.57-.2 1.39 0zm68.87.35q-.69.63-2.52.94-1.54.25-4.14 1.88a3.27 3.01-65.8 0 1-.91.39q-3.09.73-5.73 2.53-.33-.55-.36-1.04a.51.51 0 0 1 .62-.53q.26.06.57-.03.63-.19.65-.21 1.75-1.99 4.14-2.24a1.27 1.26-75.1 0 0 .89-.52l.37-.52.08.3a.29.29 0 0 0 .43.19q2.8-1.6 5.91-1.14z" class="D"/><path d="M252.55 17.11q-4.13 3.53-9.02 5-.68.32-1.52.31a.68.68 0 0 0-.68.55l-.14.62-49.73 24.69q-1 .27-1.52 1.14l-5.68 2.34q-7.91-6.04-17.9-2.65a.63.63 0 0 0 .07 1.21l10.07 2.12a.06.05-79.8 0 1 .04.07l-.05.23a.25.24-80.7 0 1-.28.21q-6.92-.98-11.63-1.2-5.69-.27-9.55 3.78l-.38.03a.46.45-88.5 0 1-.5-.53l.09-.58a.58.57-83.6 0 0-.53-.67q-1.34-.1-2 .82a.89.89 0 0 1-.87.36l-14.73-2.39a.75.74 85.4 0 1-.59-.51q-.07-.19-.14-.35a.65.64 67.4 0 0-.82-.34l-1.81.7a.79.73 37.5 0 1-.42.04l-14.14-2.3a.76.76 0 0 1-.19-1.44l6.64-2.95a.86.81-50.7 0 1 .47-.06q1.25.21 1.76-.37c1.29-1.48 3.86-1.67 4.41-2.3.75-.88 3.36-.3 4.92-1.95a2.43 2.36-77.2 0 1 .94-.61l5.62-1.97a2.9 2.75-68.3 0 0 .5-.23q3.14-1.94 7.09-2.9a2.4 2.29 19.7 0 0 .72-.32q2.7-1.79 6.34-2.66a3.72 3.54 21.4 0 0 1.01-.41q3.89-2.36 5.01-2.29 1.33.09 4.08-1.81 1.02-.7 4.56-1.63a2.94 2.74-65.4 0 0 .78-.32q3.52-2.06 4.78-2.18 1.47-.14 3.46-1.48 1.43-.96 4.65-1.78a2.59 2.52 19.2 0 0 .86-.4q1.72-1.26 3.87-1.59.9.2 2.02-.61 2.64-1.8 5.73-2.53a3.27 3.01-65.8 0 0 .91-.39q2.6-1.63 4.14-1.88 1.83-.31 2.52-.94l46.76 5.3zm-75.31 15.68q-.9.19-1.32.62a.21.21 0 0 0 .19.35l2.21-.44 6.11.9a.61.61 0 0 0 .7-.56q.09-1.22 1.29-1.39a.4.4 0 0 1 .43.52q-.46 1.43-.91 1.55a.32.32 0 0 0-.12.55q.54.45.77.67.31.3 1.33-.07 1.51-.56 3.43-.4a.68.68 0 0 1 .61.53q.03.12.04.5.02.47.76.47.45 0 .53-.61a.9.89 85 0 1 .62-.75l6-1.89a.41.4-26.5 0 0 .21-.62q-.11-.11-1.24.02-.14.01-1.47.71a1.89 1.88 36.1 0 1-1.16.18l-5.9-.96a1 .99 21.5 0 0-.96.41q-.61.89-2.16 1.41a.24.23-76.7 0 1-.24-.39l1.28-1.28a.95.95 0 0 0-1.02-1.55q-2.37.95-4.72.49 0-.27-.06-.48a.6.6 0 0 0-.8-.38l-4.43 1.89zm8.64 7.33a.35.35 0 0 0 .15-.65q-.91-.56-1.36-.27-.62.39.07.85.25.17 1.14.07zm-9.409 2.961a1.32.75-178.3 0 0 1.297.789 1.32.75-178.3 0 0 1.342-.711 1.32.75-178.3 0 0-1.297-.789 1.32.75-178.3 0 0-1.342.711zm-7.341 4.109l1.64-.08a.36.35-32.8 0 0 .15-.67q-.78-.39-1.93.24a.27.27 0 0 0 .14.51zm-8.11 3.45q.41.33 1.38.38a.52.52 0 0 0 .38-.91q-.29-.26-1.53-.18a.4.4 0 0 0-.23.71z" class="E"/><path d="M55.52 15.74q-7.57 3.18-15.82 4.87l15.82-4.87zm22.01.47q-3.02-.08-3.9 2.17a.68.67-76.1 0 1-.69.42l-3.47-.32q-.32-.22-.28-.53a.29.28 87.5 0 1 .23-.26l8.11-1.48z" class="D"/><path d="M77.53 16.21l8.74 1.38a.81.8-.4 0 1 .67.65q.02.14.03.3l-1.14.24a2.09 1.99 42.2 0 1-.75.02q-5.27-.89-10.92.2a.31.31 0 0 0-.24.37l.02.1a.31.3-10.3 0 0 .34.23q2.3-.39 4.5.14.53-.04.86.07a.32.32 0 0 1 .05.59q-.84.45-1.71.29-4.82-.85-9.5-1.33a.43.42-54.2 0 1-.13-.81q.42-.18 1.12-.17l3.47.32a.68.67-76.1 0 0 .69-.42q.88-2.25 3.9-2.17z" class="B"/><g class="D"><path d="M184.96 17.05q.46.42.49 1.43-2.4-.87-3.68-.27-9.44 4.44-19.81 7.4 9.12-4.45 19.97-8.7 1.31-.51 3.03.14zm71.08.55L245.05 23a.77.75-33.4 0 1-.91-.18l-.61-.71q4.89-1.47 9.02-5l3.49.49z"/><path d="M190.47 18.16q-2.15.33-3.87 1.59a2.59 2.52 19.2 0 1-.86.4q-3.22.82-4.65 1.78-1.99 1.34-3.46 1.48-1.26.12-4.78 2.18a2.94 2.74-65.4 0 1-.78.32q-3.54.93-4.56 1.63-2.75 1.9-4.08 1.81-1.12-.07-5.01 2.29a3.72 3.54 21.4 0 1-1.01.41q-3.64.87-6.34 2.66a2.4 2.29 19.7 0 1-.72.32q-3.95.96-7.09 2.9a2.9 2.75-68.3 0 1-.5.23l-5.62 1.97a2.43 2.36-77.2 0 0-.94.61c-1.56 1.65-4.17 1.07-4.92 1.95-.55.63-3.12.82-4.41 2.3q-.51.58-1.76.37a.86.81-50.7 0 0-.47.06L118 48.37a.76.76 0 0 0 .19 1.44l14.14 2.3a.79.73 37.5 0 0 .42-.04l1.81-.7a.65.64 67.4 0 1 .82.34q.07.16.14.35a.75.74 85.4 0 0 .59.51l14.73 2.39a.89.89 0 0 0 .87-.36q.66-.92 2-.82a.58.57-83.6 0 1 .53.67l-.09.58a.46.45-88.5 0 0 .5.53l.38-.03 13.6 2.22a4.54 4.36 46.2 0 0 .94.04l2.84-.21a2.05 2.03-60.2 0 0 .76-.21l11.09-5.61 5.68-2.34.43.24a.58.57-43.6 0 1-.03 1.02l-15.62 7.73a6.37 6.36-53.4 0 1-3.84.57l-57.34-9.34 4.12-2.59 8.72-3.53a.13.07 0 0 0 .06-.03l4.6-2.42a1.03 1.02-40.5 0 1 1.1.08q1.03.77 2.79.02.7-.3.54-.91a.5.49-16.4 0 0-.64-.34q-.42.14-.59.08a.34.34 0 0 1 0-.63l14.61-5.61a1.51 1.39-54.6 0 1 .47-.1q.69-.02.93-.15 3.89-2.11 8.52-3.72.73-.25 1.32-.8.62-.57 1.28-.26a.6.59 45.6 0 0 .5.01l23.58-10.26q1.66-.23 3.29-.94.96-.41 1.73.62z"/></g><path d="M256.04 17.6q.69.7-.72 2.62-2.55.04-4.27 1.85a2 1.99-82.1 0 1-.5.38q-6.71 3.55-11.68 5.79-.58.26-.49.45.24.44.38.48a.32.31-50.2 0 1 .05.58q-.45.23-.77-.25a.6.58-27.6 0 0-.7-.21l-2.74 1.05a.27.26-4.4 0 0-.17.19q-.07.33.22.46.26.11.21.44-.05.33-.19.43a.37.36-28.3 0 1-.55-.16q-.05-.12-.08-.2a.56.56 0 0 0-.76-.27q-8.5 4.26-11.81 5.9c-1.12.55-2.5.67-3.06 1.51a1.14 1.08 1.5 0 1-.39.35q-17.8 8.96-41.13 21.01c-1.51.78-3.99 1.64-5.38 1.41q-26.19-4.38-50.07-8.34-5.71-.95-7.45-1.35l-.45-2.08 57.34 9.34a6.37 6.36-53.4 0 0 3.84-.57l15.62-7.73a.58.57-43.6 0 0 .03-1.02l-.43-.24q.52-.87 1.52-1.14.08 1.21.93 1.28a.37.32 30.1 0 0 .2-.04q14.64-7.38 36.42-18.28.07-.03 2.04-.88 1.43-.61 2.74-1.51 3.72-2.54 9.79-4.38.32-.1.44-.2a.13.13 0 0 0-.12-.22q-.52.19-1.08.19-1.13 0-1.63-.65l.14-.62a.68.68 0 0 1 .68-.55q.84.01 1.52-.31l.61.71a.77.75-33.4 0 0 .91.18l10.99-5.4zm-70.59.88l-23.58 10.26a.6.59 45.6 0 1-.5-.01q-.66-.31-1.28.26-.59.55-1.32.8-4.63 1.61-8.52 3.72-.24.13-.93.15a1.51 1.39-54.6 0 0-.47.1l-14.61 5.61a.34.34 0 0 0 0 .63q.17.06.59-.08a.5.49-16.4 0 1 .64.34q.16.61-.54.91-1.76.75-2.79-.02a1.03 1.02-40.5 0 0-1.1-.08l-4.6 2.42a.13.07 0 0 1-.06.03l-8.72 3.53q-1.9.65-3.09.62-.79-.73-1.12-1.68 2.24-2.56 2.93-1.54 3.16.27 4.59-2.25a1.75 1.73-80.6 0 1 1.14-.83q2.54-.57 3.94-2.41a.81.8 24.9 0 1 .81-.29q.69.16.76.74.05.47.5.37.33-.07.58-.49.91-.68 1.86-1.12.46-.22 1.91-.11.88.06 1.93-.39 9.42-4.05 25.02-10.27.85-.34 1.44-.05a.34.33 20.3 0 0 .47-.21q.09-.32.04-.49-.07-.21-.58-.45-.53-.25-1.34-.83 2.71-2.28 2.51.24 10.37-2.96 19.81-7.4 1.28-.6 3.68.27z" class="B"/><path d="M86.97 18.54l.39-.14a.17.16-72.5 0 1 .15.29c-1.96 1.4-6.35 1.27-8.73 1.15q-2.2-.53-4.5-.14a.31.3-10.3 0 1-.34-.23l-.02-.1a.31.31 0 0 1 .24-.37q5.65-1.09 10.92-.2a2.09 1.99 42.2 0 0 .75-.02l1.14-.24zm168.35 1.68l26.52 3.32a2.21 2.21 0 0 0 1.26-.2c2.39-1.15 4.13-2.69 7.14-2.21q-7.65 3.45-9.32 4.79-2.47 2.01-4.06 2.76-1.57.75-1.62.78-22.69 12.91-45.26 25.99l-.24-1.05a.59.58-21.9 0 1 .28-.64l32.58-18.82a.27.27 0 0 0-.1-.51l-24.08-3.18a.63.62-55.7 0 0-.36.07l-9.34 4.96a.99.98-52.7 0 1-.65.09q-.96-.19-1.36-.07-.63.2-.61.64.03.93.22 1.14a.23.23 0 0 1-.18.39l-1.07-.07a1.88 1.83 31.7 0 0-.99.22l-27.89 14.83a2.21 2.18-53.4 0 1-1.43.22q-2.4-.46-4.13.16a.39.39 0 0 0 .13.76h1.18a.47.47 0 0 1 .22.89l-9 4.79a4.17 2.23-26 0 1-.53.26q-.2.07-1.99.59a.48.48 0 0 0 .06.94l29.36 4.77a1.73 1.64-18.2 0 1 .85.4l.85.75a.69.64-18.3 0 0 .33.15q32.09 5.28 69.43 11.53 1.16.19 3.58-.28a1.22 1.19 21.2 0 0 .49-.21l3.83-2.92a1.57 1.56 32.2 0 1 1.3-.29l.39.08a.48.47 32.5 0 1 .19.84l-3.6 2.74a.77.77 0 0 0-.3.61v28.69a.93.9 72.5 0 1-.37.74q-1.36 1.02-1.19 2.55l-5.03 2.03q-1.01-3.28-.75-6.66.44.49 1.3-1.19 1.05.36 1.57-.07a.28.28 0 0 0 .11-.24l-.29-20.77a.6.6 0 0 0-.38-.56q-.45-.18-1.12-.06l-.84-1.54q1.39-.89 2.62.79a.38.38 0 0 0 .68-.28q-.16-1.19.21-1.88a.42.42 0 0 0-.4-.61l-2.87.21a1.86 1.7 47.6 0 1-.56-.05q-6.17-1.46-11.16-1.95c-2.38-.23-4.7-1.38-6.73-1.09a1.65 1.57-37.8 0 1-.79-.08l-2.24-.79a2.76 2.67 50.9 0 0-1.1-.13c-2.82.29-4.93-1.24-7.49-1.17q-1.69.05-3.93-.67c-1.28-.41-2.53.17-3.88-.42-2.45-1.07-5.58-.65-7.71-1.52a2.13 2.03 49.6 0 0-1.16-.12q-1.51.28-4.58-.66-2.57-.78-10.11-1.49a5.12 5.12 0 0 1-1-.2q-1.55-.51-4.82-.99c-1.69-.24-2.46-1.92-4.1-1.73q-1.02.12-2.49-.18-6.63-1.33-8.01-1.74a2.7 2.58 50.4 0 0-.85-.1q-2.45.11-4.41-.48c-2.22-.68-4.32-.22-6.48-1.11a2.94 2.79 56 0 0-.99-.22q-3.34-.15-9.47-1.28-.38-.06-.4-.19-.03-.23-.15-.38a.67.66-38.4 0 0-.9-.1q-1.93 1.39-5.72.31-2.89-.83-20.11-3.4c-3.21-.48-5.57-1.29-8.28-1.36-1.05-.03-2.25-.59-3.34-.84a.67.65 36.6 0 0-.47.06q-.87.5-4.78-.73-1.9-.6-10.45-1.65a2.66 2.52 57.9 0 1-.7-.18q-2.84-1.1-6.07-.16-.31.09.73.79-.12.46-.42.89-.76-.37-1.19-.01-.31.27-.27.67 1.01 9.06 2.23 17.72a.58.57-78.9 0 0 .27.41q.65.39 1.3-.23 1.1.55 2.09 2.29.14 2.72-1.51 4.82l-2.48-2.12a1.15 1.14-72.8 0 1-.38-.73l-1.36-11.32-.87-1.52a.88.86 45.6 0 1 0-.87q.31-.54.34-1.1-.39-4.63-.88-9.28-.06-.59.65-.71.59.1.93-.22.2-.19.15-.41-.05-.19-.26-.37.08-.69-.3-1.57 1.74.4 7.45 1.35 23.88 3.96 50.07 8.34c1.39.23 3.87-.63 5.38-1.41q23.33-12.05 41.13-21.01a1.14 1.08 1.5 0 0 .39-.35c.56-.84 1.94-.96 3.06-1.51q3.31-1.64 11.81-5.9a.56.56 0 0 1 .76.27q.03.08.08.2a.37.36-28.3 0 0 .55.16q.14-.1.19-.43.05-.33-.21-.44-.29-.13-.22-.46a.27.26-4.4 0 1 .17-.19l2.74-1.05a.6.58-27.6 0 1 .7.21q.32.48.77.25a.32.31-50.2 0 0-.05-.58q-.14-.04-.38-.48-.09-.19.49-.45 4.97-2.24 11.68-5.79a2 1.99-82.1 0 0 .5-.38q1.72-1.81 4.27-1.85zm-14.83 9.24q.14.08 1.58-.26a.66.66 0 0 1 .74.35q.52 1.06 2.21 1.03 4.14-.08 7.47.87a6.65 6.59-35.8 0 0 1.53.24c2.34.09 2.97.03 5.57.66q2.3.57 5.39-.36a1.58 1.55-78.7 0 0 .75-.51q.49-.62.93-.26a.87.86-39.5 0 0 .99.09q3.43-1.93 5.93-3.45 1.71-1.04 1.37-2.92a1.07 1.07 0 0 0-.88-.86q-8.08-1.3-17.58-1.95-.7-.05-1.32.87-.38.56-.63.61-.6.11-1.02-.07a.26.26 0 0 1 .09-.5l1.11-.05a.46.46 0 0 0 .41-.63l-.36-.95a.59.59 0 0 0-.97-.2q-2.07 2.14-4.46 3.1-4.52 1.83-8.81 3.97a.68.67 47 0 0-.04 1.18zm36.7-5.13q-1.22-.18-1.61.22a.61.6-86.1 0 0 .79.91l.93-.67a.26.25 31.8 0 0-.11-.46zm1.39 1.58q.64.2 1.24-.47a.41.41 0 0 0-.21-.67q-.8-.21-1.19-.05a.67.6 40.4 0 0 .16 1.19zm.119 1.309a1.74.78-2 0 0-1.766-.719 1.74.78-2 0 0-1.712.84 1.74.78-2 0 0 1.766.719 1.74.78-2 0 0 1.712-.84zM214.33 42.23q-.08-.04-.25-.09a.25.25 0 0 0-.27.38q.15.22.38.21a.28.27-30.3 0 0 .14-.5zm-3.98 2.06q-.29-.22-.62-.04a.28.26-41.1 0 0-.05.46q.23.16.57.02a.28.24-36.4 0 0 .1-.44zm-3.778 2.003a1.07.55-37.2 0 0-1.185.209 1.07.55-37.2 0 0-.52 1.085 1.07.55-37.2 0 0 1.185-.209 1.07.55-37.2 0 0 .52-1.085zm-5.032 2.337q-.5.1-.97.52a.38.38 0 0 0 .36.64q.71-.21.98-.6a.36.36 0 0 0-.37-.56zm-4.33 3a.48.39-22.1 0 0-.8-.25q-.44.46.04 1a.25.24 43 0 0 .38-.01q.3-.38.38-.74zm-9.406 4.639a.99.51-22.6 0 0-1.11-.09.99.51-22.6 0 0-.718.851.99.51-22.6 0 0 1.11.09.99.51-22.6 0 0 .718-.851zm-5.234 2.28q-1.05-.08-1.41.66a.61.58-81.3 0 0 .6.87q.39-.07 1.06-1a.34.34 0 0 0-.25-.53zm-65.834 18.679a1.69 1.16-118.8 0 0-.202 2.04 1.69 1.16-118.8 0 0 1.831.922 1.69 1.16-118.8 0 0 .202-2.04 1.69 1.16-118.8 0 0-1.831-.922zM285.65 109.21l.16-28.72a.1.1 0 0 0-.1-.1h-.02a7 1.26-89.7 0 0-1.3 7l-.08 14.92a7 1.26-89.7 0 0 1.22 7h.02a.1.1 0 0 0 .1-.1zm-4.879-.018a1.93 1.62-132.7 0 0 .118 2.517 1.93 1.62-132.7 0 0 2.499.32 1.93 1.62-132.7 0 0-.118-2.517 1.93 1.62-132.7 0 0-2.499-.32zM39.14 20.88l-12.39 3.68 12.39-3.68z" class="D"/><path d="M240.49 29.46a.68.67 47 0 1 .04-1.18q4.29-2.14 8.81-3.97 2.39-.96 4.46-3.1a.59.59 0 0 1 .97.2l.36.95a.46.46 0 0 1-.41.63l-1.11.05a.26.26 0 0 0-.09.5q.42.18 1.02.07.25-.05.63-.61.62-.92 1.32-.87 9.5.65 17.58 1.95a1.07 1.07 0 0 1 .88.86q.34 1.88-1.37 2.92-2.5 1.52-5.93 3.45a.87.86-39.5 0 1-.99-.09q-.44-.36-.93.26a1.58 1.55-78.7 0 1-.75.51q-3.09.93-5.39.36c-2.6-.63-3.23-.57-5.57-.66a6.65 6.59-35.8 0 1-1.53-.24q-3.33-.95-7.47-.87-1.69.03-2.21-1.03a.66.66 0 0 0-.74-.35q-1.44.34-1.58.26z" class="B"/><path d="M307.81 23.34q7.98 2.32 15.47 2.61 1.51.05 2.11-.93.96-.03 1.79.32.22.89 1.38 1.1 8.07 1.39 16.46 1.18.19-.05.38-.1-2.58 3.35-6.56 5.78a.31.3-56.5 0 0 .11.56l.27.04q-1.45-.2-2.34.32-.73-.59-1.22 1.33a1.27 1.26 85.2 0 1-.71.85q-2.43 1.11-4.3 3.07a3.77 3.56 5.8 0 1-.95.73c-1.45.79-2.01.68-3.14 2.18q-1.04 1.38-3.65 2.29a2.15 2.14 7.6 0 0-1.07.81q-1.37 1.97-3.65 2.85a2.18 2.14-80.9 0 0-.89.66q-1.5 1.9-4.21 3.2a3.8 3.67 7.3 0 0-1.1.82q-1.82 1.99-4.75 3.47a3.19 3.02-80.3 0 0-.84.63q-2.05 2.26-4.76 3.59a1.46 1.22 5.2 0 0-.32.22l-3.99 3.46q-1.45.18-2.04.85-.94-1.05-1.05.6a1.42 1.4-23.1 0 1-.34.83q-2.32 2.68-5.07 3.17a.64.63-89.2 0 0-.52.52q-.09.52-.89 1.28-3.2 3.07-6.56 2.98l-21.24-3.4-3.54.78a2.26 2.18-46 0 1-.86.03l-17.54-2.85a.68.67 9.4 0 1-.56-.77l.11-.68a.54.54 0 0 0-.52-.63q-1.57-.05-2.17 1.05a.72.71 18.7 0 1-.74.36l-17.74-2.88a1.1 1.1 0 0 1-.36-2.05l12.99-7.31q1.23-.11 1.29-.81 22.57-13.08 45.26-25.99.05-.03 1.62-.78 1.59-.75 4.06-2.76 1.67-1.34 9.32-4.79l17.57 2.21zm-14.83 9.28q-.77-.13-1.2.02a.44.42 47.5 0 0-.02.8q.67.32 1.37-.14a.37.37 0 0 0-.15-.68zM277.3 43.73l12.61 2.21a.3.29 29.3 0 0 .23-.06q.51-.39.15-.48a.01 0 53.3 0 1 0-.01q.4.02.81-.04.42-.06.78.09 1.89.76 3.62.26 1.05.52 1.74-.58a1.32 1.3 10 0 1 .87-.6q1.68-.36 2.85-1.68a.25.25 0 0 0-.15-.41q-.11-.01-.27.03.23-.66-1.01-.84-3.66-.51-7.44-.97a1.81 1.79 69.7 0 1-1.01-.47q-.97-.91-2.53-1.09-.24-.03-1.47.64-.76.42-1.66.17-1.59-.45-3.14-.42-.26-.66-.89-.33-.63.33-.75 1.18a.65.64 2.2 0 1-.59.54q-1.43.13-3.23 1.49a1.69 1.68 26.3 0 1-1.07.36q-.26 0-.34.01a.35.34 66.8 0 0-.23.59q.91.96 2.12.41zm-6.15 3.69a.27.27 0 0 0 .19-.45q-.94-1.05-2.56-.41a.29.28-42.9 0 0-.02.52q.86.43 2.39.34zm-8.52 3.02q-.21.92.93.99 1.96.14 2.07-.32.1-.46-1.74-1.18-1.05-.41-1.26.51zm-3.76 4.48q-1.28-1.38-2.18-.67a.67.67 0 0 0 .48 1.19l1.56-.16a.22.22 0 0 0 .14-.36zm-9.621 3.841a1.62.62-174 0 0 1.546.786 1.62.62-174 0 0 1.676-.447 1.62.62-174 0 0-1.546-.786 1.62.62-174 0 0-1.676.447zm-4.329 4.309q-.83-.7-1.88-.5a.94.68 35.5 0 0 .51 1.53q.26.04 1.24-.32a.42.42 0 0 0 .13-.71z" class="E"/><path d="M325.39 25.02q-.6.98-2.11.93-7.49-.29-15.47-2.61l17.58 1.68z" class="B"/><path d="M125.08 23.92q.87.47 2.64.41.5-.01.7.03a.24.24 0 0 1 .02.47l-.89.26a.39.39 0 0 0 .06.76l2.34.31a.56.55 5.2 0 0 .63-.52q.06-.97.87-.79 3.24.72 6.8.93.69.04.87-.57.98-.54 2.03-.33a.26.26 0 0 1 .03.51l-6.44 1.88a1.49 1.43-74.2 0 0-.6.35l-.73.73a.37.37 0 0 1-.43.07q-.49-.25-.3-.79a.46.46 0 0 0-.47-.61q-.83.06-1.83-.42a.4.4 0 0 0-.15-.05l-10.65-1.41a.28.28 0 0 1 .03-.56q2.79-.01 4.97-1.02.9-.42.5.36z" class="D"/><path d="M139.12 25.21q-.18.61-.87.57-3.56-.21-6.8-.93-.81-.18-.87.79a.56.55 5.2 0 1-.63.52l-2.34-.31a.39.39 0 0 1-.06-.76l.89-.26a.24.24 0 0 0-.02-.47q-.2-.04-.7-.03-1.77.06-2.64-.41.93-.81 1.42-.78 6.07.39 12.08 1.32a.52.48-13.5 0 1 .32.18q.19.24.22.57z" class="B"/><path d="M241.19 23.59q.5.65 1.63.65.56 0 1.08-.19a.13.13 0 0 1 .12.22q-.12.1-.44.2-6.07 1.84-9.79 4.38-1.31.9-2.74 1.51-1.97.85-2.04.88-21.78 10.9-36.42 18.28a.37.32 30.1 0 1-.2.04q-.85-.07-.93-1.28l49.73-24.69z" class="D"/><path d="M277.3 24.79l-.93.67a.61.6-86.1 0 1-.79-.91q.39-.4 1.61-.22a.26.25 31.8 0 1 .11.46z" class="B"/><path d="M278.58 25.91a.67.6 40.4 0 1-.16-1.19q.39-.16 1.19.05a.41.41 0 0 1 .21.67q-.6.67-1.24.47z" class="E"/><path d="M345.02 27.62q-8.39.21-16.46-1.18-1.16-.21-1.38-1.1 8.82.37 17.84 2.28z" class="B"/><path d="M159.45 25.37q.81.58 1.34.83.51.24.58.45.05.17-.04.49a.34.33 20.3 0 1-.47.21q-.59-.29-1.44.05-15.6 6.22-25.02 10.27-1.05.45-1.93.39-1.45-.11-1.91.11-.95.44-1.86 1.12-.86-1.08 1.74-1.57.75-.14.92-.2 12.96-5.26 25.16-10.23.2-.08 1.81-.55 1.3-.39 1.12-1.37z" class="D"/><path d="M22.52 25.78q-.57.48-1.5.49.6-.53 1.5-.49zm-2.67.79q-2 1.53-4.65 1.43l4.65-1.43z" class="C"/><ellipse cx="0" cy="0" transform="matrix(.999391 -.034899 .034899 .999391 276.96 27.28)" rx="1.74" ry=".78" class="B"/><path d="M349.24 27.85l-7.95 6.35a.53.5-19.1 0 0-.2.38q-.06.71-.81.74-.56.03-1.35.65-3.76 2.94-13.15 9.93a.71.69-49.6 0 1-.73.07q-1.42-.7-2.6.73a.35.34-68.3 0 0 .24.56q.95.08.97.09a.33.32 49.5 0 1-.04.58q-.97.4-1.59.34a.54.54 0 0 0-.59.48q-.12 1.17-.12 4.65 0 .53-.2.7-.3.26-.9.25a1 .99-63.7 0 0-.61.21l-6.47 5.13a1.81.2-24.3 0 1-.86.51q-.79.4-1.68 1.39-.88 1-5.11 3.94-.86-.04-.92-.8a.49.48-21.1 0 1 .19-.42l15.14-11.55a1.93 1.91-19 0 0 .75-1.52l-.01-.33a.56.55 71.2 0 0-.89-.44L299.39 66a.25.23-66.4 0 1-.11.05q-.25.01-.31 0a.58.56 30.8 0 0-.51.12l-12.45 10.11a1.13.94 11.7 0 1-.32.17q-3.04.99-7.66.24-31.47-5.13-38.4-6.39-4.66-.84-6.87-1.1-4.52-.55-19.3-3.18a.49.48 11.1 0 1-.39-.57q.03-.17.73-.46a.1.1 0 0 0 .05-.14q-.14-.24-.37-.23a.22.18 11.1 0 0-.15.08q-.77 1.12-1.81 1.15a.84.84 0 0 1-.42-1.59q4.39-2.28 14.96-8.42 1.67-.97 2.63.42l-12.99 7.31a1.1 1.1 0 0 0 .36 2.05l17.74 2.88a.72.71 18.7 0 0 .74-.36q.6-1.1 2.17-1.05a.54.54 0 0 1 .52.63l-.11.68a.68.67 9.4 0 0 .56.77l17.54 2.85a2.26 2.18-46 0 0 .86-.03l3.54-.78q-.68 1.37.42 1.59 5.31 1.09 19.39 3.13.8.12 1.14-.19.42-.38.29-1.13 3.36.09 6.56-2.98.8-.76.89-1.28a.64.63-89.2 0 1 .52-.52q2.75-.49 5.07-3.17a1.42 1.4-23.1 0 0 .34-.83q.11-1.65 1.05-.6-.59 1.62 3.31.58a.61.61 0 0 0-.03-1.18l-1.24-.25 3.99-3.46a1.46 1.22 5.2 0 1 .32-.22q2.71-1.33 4.76-3.59a3.19 3.02-80.3 0 1 .84-.63q2.93-1.48 4.75-3.47a3.8 3.67 7.3 0 1 1.1-.82q2.71-1.3 4.21-3.2a2.18 2.14-80.9 0 1 .89-.66q2.28-.88 3.65-2.85a2.15 2.14 7.6 0 1 1.07-.81q2.61-.91 3.65-2.29c1.13-1.5 1.69-1.39 3.14-2.18a3.77 3.56 5.8 0 0 .95-.73q1.87-1.96 4.3-3.07a1.27 1.26 85.2 0 0 .71-.85q.49-1.92 1.22-1.33-.89 2.24 2.98.38a.36.35-42.6 0 0 .03-.62q-.24-.14-.67-.08l-.27-.04a.31.3-56.5 0 1-.11-.56q3.98-2.43 6.56-5.78 1.19-.41 3.84.33zm-63.15 46.56q1.22-.45 1.66-.97 1.44-1.69 3.84-3.03 1.07-.61 1.29-1a.3.3 0 0 0-.45-.37q-2.32 1.85-2.94 2a1.57 1.53 8.9 0 0-.93.66q-.8 1.23-2.71 2.2a.27.27 0 0 0-.13.33v.01a.29.29 0 0 0 .37.17z" class="D"/><path d="M349.57 31.96l-.47.83a1.02 1.01 7.7 0 1-.68.51q-3.21.71-2.69 3.17-.62.01-1.9.85a.3.28 34.9 0 1-.22.03q-.1-.03-.07-.27a.34.33 9.8 0 0-.26-.36q-3.01-.74-3.69 1.28a.88.87-85 0 1-.7.59q-.58.09-.78.23-3.67 2.58-15.41 11.87a.72.71-35.9 0 0-.16.95l.16.24a.19.19 0 0 0 .26.04l18.79-14.34a.53.53 0 0 1 .74.1l.22.28a.33.32-37 0 1-.07.46l-35.32 26.95a.29.29 0 0 0 .13.52q.97.16 1.21.63a.71.71 0 0 1-.32.97q-1.5.74-3.07-.17l.22-1.79q4.23-2.94 5.11-3.94.89-.99 1.68-1.39a1.81.2-24.3 0 0 .86-.51l6.47-5.13a1 .99-63.7 0 1 .61-.21q.6.01.9-.25.2-.17.2-.7 0-3.48.12-4.65a.54.54 0 0 1 .59-.48q.62.06 1.59-.34a.33.32 49.5 0 0 .04-.58q-.02-.01-.97-.09a.35.34-68.3 0 1-.24-.56q1.18-1.43 2.6-.73a.71.69-49.6 0 0 .73-.07q9.39-6.99 13.15-9.93.79-.62 1.35-.65.75-.03.81-.74a.53.5-19.1 0 1 .2-.38l7.95-6.35q1.31-.33 2.14 1.02a.97.97 0 0 1-.03 1.06q-.59.87-1.85 1.31a.36.35 61.5 0 0-.16.55q.1.12.23.17z" class="B"/><path d="M358.22 29l-.15.53c-2.04-.68-4.86 2.8-6.04 4.33a2.82 2.71-86.4 0 1-.71.65c-3.23 2.1-5.77 3.62-8.78 6.03q-18.04 14.48-20.15 16.11-7.91 6.11-10.55 8.47-3.74 3.34-4.86 4.32-4.19 3.67-8.74 6.17a1.17 1.17 0 0 0-.58.76q-.13.61.08 1.15-1.37.95.47 1.31 10.44 2.03 20.86 3.48a.62.6-68.3 0 0 .6-.27q.16-.24-.02-.92 2.27-.65 3.07.56-.12 1.51 3.01 1.85c6.51.71 13.02 1.97 19.49 3.05q.64.11.67-.65 1.87-.23 3.29.36-.3.91.95 1.11 10.93 1.77 22.15 3.57.7.11 1.32-.23.16-.08.06-.59.04-.15.17-.31a.57.57 0 0 1 .4-.19c2.76-.07 3.51-1.82 5.16-3.79a1.5 1.49 68.6 0 0 .35-.81q0-.03-.01-.24a1.07 1.04 71.9 0 1 .46-.93q1.12-.75 3.44-3.29.5-.54.47-.81-.03-.34-.22-.74a.62.62 0 0 1 .29-.83c2.2-1.04 4.91-1.57 4.33-4.16a.62.6 76.5 0 1 .43-.72q2.6-.71 3.95-4.01a1.98 1.98 0 0 1 .61-.8q1.86-1.5 2.07-1.81 1.89-2.92 3.11-3.8c1.4-1.02 1.68-2.53 2.93-3.62q1.04-.91 2.34-2.53 3.64-4.53 5.84-6.8c1.16-1.2 1.58-2.8 3.04-3.67.81-.48 1.2-1.38 1.13-2.3q.73.1 1.04.28 1.32.57 2.56.26a.47.46-13.6 0 0 .35-.56q-.02-.1-.02-.17a.6.59 2.6 0 1 .65-.59q.48.04.93.4.76 1.11-.31 1.6-2.37 2.51-4.72 5.2-12.27 14.11-18.9 21.87-3.02 3.54-5.82 6.78-.4.47-.64.24-.26-.25-.32-.57a.83.81-2.8 0 0-.73-.65q-1.85-.18-2.81.53a.66.66 0 0 0 .42 1.19l2.55-.12a.53.53 0 0 1 .18 1.04q-1.43.45-3.55.43a.97.96 22.9 0 0-.67.27l-2.85 2.85a.71.71 0 0 0 .02 1.02q1.33 1.26 3.25 1.57-.04.65-1.56.54a1.42 1.41-68.1 0 0-1.21.52l-3.03 3.81a1.18 1.17 14.2 0 1-.69.41q-2.97.57-5.82.1-44.26-7.23-45.42-7.47c-3.16-.63-5.43-1.27-8.8-1.61q-3.23-.33-25.15-4.5a.77.76 20.4 0 0-.8.36q-.11.2-.17.86a.39.39 0 0 1-.78.03q-.36-2.5 1.12-3.14a1.6 1.59 2.3 0 0 .76-.7q.7-1.33 2.07-1.73a1.42 1.4-89.1 0 0 .94-.92l.18-.54a.54.54 0 0 1 .76-.31q1.84.96 4.57.06.39-.13 3.66-2.7a.56.55-41.4 0 0 .06-.83l-.82-.82a.55.55 0 0 1 .29-.93q.23-.05.55-.03 1.57.91 3.07.17a.71.71 0 0 0 .32-.97q-.24-.47-1.21-.63a.29.29 0 0 1-.13-.52l35.32-26.95a.33.32-37 0 0 .07-.46l-.22-.28a.53.53 0 0 0-.74-.1l-18.79 14.34a.19.19 0 0 1-.26-.04l-.16-.24a.72.71-35.9 0 1 .16-.95q11.74-9.29 15.41-11.87.2-.14.78-.23a.88.87-85 0 0 .7-.59q.68-2.02 3.69-1.28a.34.33 9.8 0 1 .26.36q-.03.24.07.27a.3.28 34.9 0 0 .22-.03q1.28-.84 1.9-.85 3.55-1.22 6.03-3.24.67-.55.43-1.38-.07-.22-.75-.44c2.4-1.35 3.3-3.35 6.78-2.41zm17.65 61.8l1.8-.26a.7.68-74 0 0 .43-.25l2.73-3.36a.12.12 0 0 0 0-.16l-.12-.15a.34.34 0 0 0-.5.06c-.94 1.28-2.45 3.5-4.38 3.53a.28.28 0 0 0-.28.27v.01a.28.28 0 0 0 .32.31z" class="D"/><path d="M397.74 33.59q-19.88-1.01-39.67-4.06l.15-.53q19.76 1.56 39.52 4.59z" class="B"/><path d="M358.07 29.53q19.79 3.05 39.67 4.06l22.23 2.28q.04.1.17.22a.28.27 54.1 0 1-.07.45q-.07.03-.09.05a.17.16-66.2 0 0 .11.29q.42-.02.44.01a.84.83-37.6 0 1-.17 1.28q-3.71 2.24-6.41 5.82c.07.92-.32 1.82-1.13 2.3-1.46.87-1.88 2.47-3.04 3.67q-2.2 2.27-5.84 6.8-1.3 1.62-2.34 2.53c-1.25 1.09-1.53 2.6-2.93 3.62q-1.22.88-3.11 3.8-.21.31-2.07 1.81a1.98 1.98 0 0 0-.61.8q-1.35 3.3-3.95 4.01a.62.6 76.5 0 0-.43.72c.58 2.59-2.13 3.12-4.33 4.16a.62.62 0 0 0-.29.83q.19.4.22.74.03.27-.47.81-2.32 2.54-3.44 3.29a1.07 1.04 71.9 0 0-.46.93q.01.21.01.24a1.5 1.49 68.6 0 1-.35.81c-1.65 1.97-2.4 3.72-5.16 3.79a.57.57 0 0 0-.4.19q-.13.16-.17.31-.44-.43-1.2-.55-10.48-1.69-20.94-3.43-1.44-.24-2.34.12-1.42-.59-3.29-.36-.08-.46-.68-.57-10.57-1.98-22.49-3.68-.8-1.21-3.07-.56l-21.91-3.6q-.21-.54-.08-1.15a1.17 1.17 0 0 1 .58-.76q4.55-2.5 8.74-6.17 1.12-.98 4.86-4.32 2.64-2.36 10.55-8.47 2.11-1.63 20.15-16.11c3.01-2.41 5.55-3.93 8.78-6.03a2.82 2.71-86.4 0 0 .71-.65c1.18-1.53 4-5.01 6.04-4.33zm12.62 8.58q-1.03-.25-1.48.12a.43.42-59.5 0 0 .19.74q.82.17 1.41-.25a.34.34 0 0 0-.12-.61zm-8.2 7.17q-.89-.29-1.3-.04a.47.47 0 0 0 .11.84q.72.23 1.28-.16a.36.36 0 0 0-.09-.64zm-8.14 8.1q1.06 1.2 3.21 1.38 8.38.72 16.68 2.05 1.15.19 1.51-.39.18-.28.07-.97l.05.68a.51.51 0 0 0 .87.31q1.44-1.5 3.17-2.67a.65.64-47.9 0 0-.05-1.1q-.17-.09-.59.27.12-.66-.54-.77-10.15-1.71-20.39-2.7-.14-.35-.42-.52-.36-.2-.68.02-.58.42-.56 1.3a1.11 1.1-21 0 1-.39.86q-1.87 1.6-3.5 1.92a.55.55 0 0 0-.06 1.06q1.25.41 1.62-.73zm-6.69 4.68q.5.27 1.35.07a.41.4 62.2 0 0 .2-.66q-.61-.69-1.56-.11a.41.4-46.4 0 0 .01.7zm-5.039 3.836a1.05.57-166 0 0 .881.807 1.05.57-166 0 0 1.157-.299 1.05.57-166 0 0-.881-.807 1.05.57-166 0 0-1.157.299zm-3.671 4.144q-.56-.21-1.24.06a.54.53 46.3 0 0-.02.98q.83.39 1.26.21a.68.66-45.8 0 0 0-1.25zm-4.81 5.64a1.18 1.15-8 0 0-1.38-1.01q-.9.16-.76.62a1.3 1.19-21.6 0 0 1.78.68q.37-.17.36-.29zm-7.45 4.04a1.09.77 7.6 0 0 1.32 1.23q.43-.1.41-.55-.01-.47-.49-.58-1.09-.25-1.24-.1z" class="E"/><path d="M182.53 31.76q-.42.15-.61.36a.19.19 0 0 0 .12.32q.11.01.33-.12a.3.29-14.2 0 0 .14-.23q.01-.17.02-.33 2.35.46 4.72-.49a.95.95 0 0 1 1.02 1.55l-1.28 1.28a.24.23-76.7 0 0 .24.39q1.55-.52 2.16-1.41a1 .99 21.5 0 1 .96-.41l5.9.96a1.89 1.88 36.1 0 0 1.16-.18q1.33-.7 1.47-.71 1.13-.13 1.24-.02a.41.4-26.5 0 1-.21.62l-6 1.89a.9.89 85 0 0-.62.75q-.08.61-.53.61-.74 0-.76-.47-.01-.38-.04-.5a.68.68 0 0 0-.61-.53q-1.92-.16-3.43.4-1.02.37-1.33.07-.23-.22-.77-.67a.32.32 0 0 1 .12-.55q.45-.12.91-1.55a.4.4 0 0 0-.43-.52q-1.2.17-1.29 1.39a.61.61 0 0 1-.7.56l-6.11-.9q-.95-.02-1.08-.53l4.43-1.89a.6.6 0 0 1 .8.38q.06.21.06.48z" class="D"/><path d="M9.46 30.97l10.28 1.62a.37.32 65.1 0 1 .2.09q.24.19.24.49-.31.46-.69.4-5.55-.8-11-1.7a.46.46 0 0 1-.24-.79q.4-.39 1.21-.11zm220.52 24.48q-.06.7-1.29.81-.96-1.39-2.63-.42-10.57 6.14-14.96 8.42a.84.84 0 0 0 .42 1.59q1.04-.03 1.81-1.15a.22.18 11.1 0 1 .15-.08q.23-.01.37.23a.1.1 0 0 1-.05.14q-.7.29-.73.46a.49.48 11.1 0 0 .39.57q14.78 2.63 19.3 3.18 2.21.26 6.87 1.1 6.93 1.26 38.4 6.39 4.62.75 7.66-.24a1.13.94 11.7 0 0 .32-.17l12.45-10.11a.58.56 30.8 0 1 .51-.12q.06.01.31 0a.25.23-66.4 0 0 .11-.05l20.36-15.53a.56.55 71.2 0 1 .89.44l.01.33a1.93 1.91-19 0 1-.75 1.52l-15.14 11.55a.49.48-21.1 0 0-.19.42q.06.76.92.8l-.22 1.79q-.32-.02-.55.03a.55.55 0 0 0-.29.93l.82.82a.56.55-41.4 0 1-.06.83q-3.27 2.57-3.66 2.7-2.73.9-4.57-.06a.54.54 0 0 0-.76.31l-.18.54a1.42 1.4-89.1 0 1-.94.92q-1.37.4-2.07 1.73a1.6 1.59 2.3 0 1-.76.7q-1.48.64-1.12 3.14a.39.39 0 0 0 .78-.03q.06-.66.17-.86a.77.76 20.4 0 1 .8-.36q21.92 4.17 25.15 4.5c3.37.34 5.64.98 8.8 1.61q1.16.24 45.42 7.47 2.85.47 5.82-.1a1.18 1.17 14.2 0 0 .69-.41l3.03-3.81a1.42 1.41-68.1 0 1 1.21-.52q1.52.11 1.56-.54l2.06-1.84a.89.89 0 0 1 .79-.21l1.12.24a.49.48 27.3 0 1 .26.8q-.74.81.05 1.36-.75.1-.83.68-.05.39.34 1.12.74 1.34-.53 2.51a1.71 1.62-60.5 0 0 .71 2.9q12.23 2.14 34.97 5.77 14.37 2.3 59.75 9.74 2.79.45 5.24.45 2.67-.01 2.95-1.6.2.05.39.1l-.87 2.96a1.08 1.06 87.8 0 1-.63.69q-2.38.92-4.1.65-20.46-3.28-97.22-15.74-.96-.15-1.95-1.57a.74.74 0 0 0-.83-.29q-1.86.58-3.21-1.43a1.55 1.39-28.5 0 1 .75-2.11q1.69-.75 2.56-2.85a.29.29 0 0 0-.44-.35q-1.09.82-2.24.68a1.35 1.35 0 0 0-1.2.47l-3.61 4.26a1.4 1.35-75.3 0 1-.74.45q-2.85.64-3.6.51-14.01-2.29-27.97-4.76-.29-.2-.75-.15l-.74-.14q-.3-.27-.83-.15l-24.65-4.13a1.21 1.2-61.5 0 0-1 .3l-8.08 7.35a1.45 1.44-12 0 0-.41.63q-.22.68-.18.98a.52.51-3.1 0 1-.46.51l-.96.09a1.26 1.22 20.4 0 0-.71.31q-4.94 4.29-13.05 11.69-.36.32-.7 1.44-.34 1.12-.87.73-.39-.29-.71-.5a1.2 1.2 0 0 0-.95-.2q-3.83.81-5.64 3-.17-1.53 1.19-2.55a.93.9 72.5 0 0 .37-.74V80.23a.77.77 0 0 1 .3-.61l3.6-2.74a.48.47 32.5 0 0-.19-.84l-.39-.08a1.57 1.56 32.2 0 0-1.3.29l-3.83 2.92a1.22 1.19 21.2 0 1-.49.21q-2.42.47-3.58.28-37.34-6.25-69.43-11.53a.69.64-18.3 0 1-.33-.15l-.85-.75a1.73 1.64-18.2 0 0-.85-.4l-29.36-4.77a.48.48 0 0 1-.06-.94q1.79-.52 1.99-.59a4.17 2.23-26 0 0 .53-.26l9-4.79a.47.47 0 0 0-.22-.89h-1.18a.39.39 0 0 1-.13-.76q1.73-.62 4.13-.16a2.21 2.18-53.4 0 0 1.43-.22l27.89-14.83a1.88 1.83 31.7 0 1 .99-.22l1.07.07a.23.23 0 0 0 .18-.39q-.19-.21-.22-1.14-.02-.44.61-.64.4-.12 1.36.07a.99.98-52.7 0 0 .65-.09l9.34-4.96a.63.62-55.7 0 1 .36-.07l24.08 3.18a.27.27 0 0 1 .1.51l-32.58 18.82a.59.58-21.9 0 0-.28.64l.24 1.05zm72.844 12.179a1.17.45-36.2 0 0-1.21.328 1.17.45-36.2 0 0-.678 1.054 1.17.45-36.2 0 0 1.21-.328 1.17.45-36.2 0 0 .678-1.054zm7.026 18.621q.77.02 1.19-.75a.95.82-87.8 0 0-1.06-1.33q-.21.12-.58 1.48a.48.47-81.9 0 0 .45.6zm5.78-.81a1.23 1.19 21.9 0 0-.76.31l-6.03 5.49a.55.53-42.7 0 0-.04.76l.83.91a.5.49 47.5 0 0 .7.04l7.57-6.88a.42.41-67.7 0 0-.3-.72l-1.97.09zm-12.51 3.129a.55.55 0 0 0-.459-.628l-.356-.055a.55.55 0 0 0-.628.459l-.698 4.506a.55.55 0 0 0 .459.628l.356.055a.55.55 0 0 0 .628-.459l.698-4.506zm3.57 4.761a.65.65 0 0 0-.71.11l-12.35 11.23a1.12 1.11 47.7 0 0-.07 1.58l.51.57a.47.47 0 0 0 .67.03l13.83-12.57a.05.05 0 0 0-.01-.08l-1.87-.87zm-15.98 13.61l-2.32 2.12a.36.35 19.9 0 0 .29.61q2.73-.37 2.65-2.47a.37.37 0 0 0-.62-.26z" class="B"/><path d="M351.44 31.41q.68.22.75.44.24.83-.43 1.38-2.48 2.02-6.03 3.24-.52-2.46 2.69-3.17a1.02 1.01 7.7 0 0 .68-.51l.47-.83q.85-.55 1.87-.55z" class="E"/><path d="M182.53 31.76q-.01.16-.02.33a.3.29-14.2 0 1-.14.23q-.22.13-.33.12a.19.19 0 0 1-.12-.32q.19-.21.61-.36zm-128.3 8.11q-2.59 1.85-4.98 1.45Q27 37.61 4.75 33.93q-.93-.15-.47-1.82l42.73 7.12a11.88 7.98-37.1 0 0 4.4-.25q1.37-.33 6.55-2.08c1.72-.58 2.9.42 4.27-.35a.24.18-11.7 0 1 .36.17q-.03.11.01.18a.21.03-12.7 0 1-.21.08q-4.33 1.05-8.16 2.89z" class="B"/><path d="M292.98 32.62a.37.37 0 0 1 .15.68q-.7.46-1.37.14a.44.42 47.5 0 1 .02-.8q.43-.15 1.2-.02z" class="C"/><path d="M177.24 32.79q.13.51 1.08.53l-2.21.44a.21.21 0 0 1-.19-.35q.42-.43 1.32-.62zM34.73 35.51q-.68.57-1.48.42-4.86-.94-9.77-1.55-1.2-.15-1.82-.89.51-.61 1.33-.47 5.23.94 10.5 1.65.84.12 1.24.84zm83.32-1.6a.3.29 56.4 0 1-.11.56l-1.36.07a.28.27 32.5 0 1-.12-.53q.98-.39 1.59-.1zm221.17-.01q.43-.06.67.08a.36.35-42.6 0 1-.03.62q-3.87 1.86-2.98-.38.89-.52 2.34-.32zM49.03 37.85q-.16.44-.76.36-5.88-.78-11.73-1.85a.63.63 0 0 1-.5-.5q-.02-.1.19-.56 6.16.72 12.28 1.97.45.09.52.58z" class="B"/><path d="M425.04 38.99q-.09-.32-.32-.37a.22.21 21.7 0 0-.24.1q-.71 1.26-2.82 1.04-3.49-.36-4.34 2.71a.7.7 0 0 1-.59.52q-1.61.2-1.74 1.28-.31-.18-1.04-.28 2.7-3.58 6.41-5.82a.84.83-37.6 0 0 .17-1.28q-.02-.03-.44-.01a.17.16-66.2 0 1-.11-.29q.02-.02.09-.05a.28.27 54.1 0 0 .07-.45q-.13-.12-.17-.22 2.42.01 4.74 1.06a.95.93-89.4 0 1 .45.47q.32.75-.12 1.59zm10.69-1.37q-.2.24-.39.48-2.01.05-3.04 2.21-1.52 3.19-3.21 4.51a1.73 1.73 0 0 0-.27.27Q415.18 62.22 401 81.13c-2.19 2.93-3.55 5.57-6.37 8.11a.79.73-65.5 0 1-.48.2l-1.66.07a.21.21 0 0 0-.05.41q.08.02 1.1-.2a.45.45 0 0 1 .49.66q-.42.75-1.18 1.41a.72.72 0 0 0 .03 1.11l.5.39q-.3.48-.12.8.21.37.64.44 12.44 2.07 24.81 4.02a1.1.93 40.3 0 0 .35 0q1.2-.23.35-1.35.3-.58 1.67-.39a1.39 1.37 71.2 0 1 .82.41l1.31 1.36q-.07.76 1.05.95 12.99 2.16 26.04 3.95.84.12.7-1.17 1.41.93 3.72.54-.41.99-.28 1.16a1.63 1.58-14.1 0 0 .99.57l27.76 4.47a.43.42 10.5 0 0 .49-.33l.11-.52a.53.53 0 0 0-.42-.64l-3.93-.76q.39-.78 2.71-.23 1.31.31 2.79.55a1.24 1.23-66.6 0 0 1.18-.47q1.3-1.7 1.69-4.64a.58.57-82.3 0 0-.48-.64l-1.57-.26a.14.14 0 0 1-.12-.17l.04-.29a.09.07-1 0 1 .07-.06l2.26-.23a1.17 1.16-86.6 0 0 1.03-.92l.84-3.9a.48.48 0 0 0-.46-.59h-1.06a.33.32-61 0 1-.17-.6q.19-.13 1.13-.1a1.36 1.35 21 0 0 1.07-.47q1.17-1.35 1.76-3.91a.65.64 12.4 0 0-.5-.77l-1.17-.25a.27.27 0 0 1 .03-.54l1.42-.14a.98.96-77.3 0 0 .73-.47q1.22-1.99 1.33-3.73.04-.7-2.14-.84a.15.15 0 0 1-.06-.29q.36-.16 1.73-.17a1.1 1.08-70.3 0 0 .85-.41q.97-1.22 1.55-3.59a.49.49 0 0 0-.51-.6q-.8.06-.81.05a.5.5 0 0 1 .25-.89q2.9-.37 2.15-3.28c-.61-2.37 3.67-3.77 1.82-6.13a.37.36 60 0 1 .15-.57q1.92-.75 1.74-3.11-.04-.56-.18-.6-.51-.12-.64-.3a.43.43 0 0 1 .29-.66q2.45-.36 2.22-3.4c-.15-1.93 1.96-2.06 1.28-4.75a.92.89 62.9 0 1 .28-.91c.41-.34.77-.41 1.05-.99q1.88-3.81.75-6.32 2.22.25 2.37-.68 3.45.52 3.11 2.39-4.55 10.98-7.43 22.41-1.57.75-3.42.77a1.35 1.34 5.9 0 0-1.3 1.05l-.41 1.88a.92.92 0 0 0 .57 1.05l2.76 1.05-10.57 32.65q-.28 1.59-2.95 1.6-2.45 0-5.24-.45-45.38-7.44-59.75-9.74-22.74-3.63-34.97-5.77a1.71 1.62-60.5 0 1-.71-2.9q1.27-1.17.53-2.51-.39-.73-.34-1.12.08-.58.83-.68.17.95.64 1.47.35.39.63.18.27-.2.25-.57a.63.62-88 0 1 .69-.65q1.82.2 3.64-.16a.79.78-73.8 0 0 .38-.21l2.61-2.61a.85.84-37.4 0 0 .14-1.02q-.58-1.01-1.89-1.42l24.59-31.81 2.65-3.8a1.09 1.06 63.8 0 0 .19-.58q.01-1.04-.86-1.28a.78.78 0 0 1-.57-.63l-.21-1.45q.93-.61 1.51-.09.16.14.12.33-.06.28-.05.43a.67.66-88.9 0 0 .55.58q2.36.4 5.27-.36a1.76 1.76 0 0 0 .93-2.81q-.17-.21-1.52-.35-.06-.08-.12-.16l2.68-2.6a1.04 1.03-64.5 0 1 .81-.29l3.83.27zm-8.433 7.884a1.04.66-4.2 0 0-1.085-.582 1.04.66-4.2 0 0-.989.734 1.04.66-4.2 0 0 1.085.582 1.04.66-4.2 0 0 .989-.734zm79.841 9.586a1.02.77-3.4 0 0-1.064-.708 1.02.77-3.4 0 0-.972.829 1.02.77-3.4 0 0 1.064.708 1.02.77-3.4 0 0 .972-.829zM399.46 80.59q-.49-.06-1.54.34a.38.38 0 0 0-.1.65q.91.72 1.68.33a.74.63-51.2 0 0-.04-1.32zm92.522 14.376a1.05.67-160.3 0 0 .763.985 1.05.67-160.3 0 0 1.214-.277 1.05.67-160.3 0 0-.763-.985 1.05.67-160.3 0 0-1.214.277z" class="C"/><path d="M435.34 38.1q5.38 1.77 11.15 1.57a7.96 7.95 48.6 0 1 1.59.1q3.83.62 7.66 1.16 1.11.15.8-1.02l26.79 3q-.42.98 2.2 1.22 9.86.91 20.23 2.08 1.13 2.51-.75 6.32c-.28.58-.64.65-1.05.99a.92.89 62.9 0 0-.28.91c.68 2.69-1.43 2.82-1.28 4.75q.23 3.04-2.22 3.4a.43.43 0 0 0-.29.66q.13.18.64.3.14.04.18.6.18 2.36-1.74 3.11a.37.36 60 0 0-.15.57c1.85 2.36-2.43 3.76-1.82 6.13q.75 2.91-2.15 3.28a.5.5 0 0 0-.25.89q.01.01.81-.05a.49.49 0 0 1 .51.6q-.58 2.37-1.55 3.59a1.1 1.08-70.3 0 1-.85.41q-1.37.01-1.73.17a.15.15 0 0 0 .06.29q2.18.14 2.14.84-.11 1.74-1.33 3.73a.98.96-77.3 0 1-.73.47l-1.42.14a.27.27 0 0 0-.03.54l1.17.25a.65.64 12.4 0 1 .5.77q-.59 2.56-1.76 3.91a1.36 1.35 21 0 1-1.07.47q-.94-.03-1.13.1a.33.32-61 0 0 .17.6h1.06a.48.48 0 0 1 .46.59l-.84 3.9a1.17 1.16-86.6 0 1-1.03.92l-2.26.23a.09.07-1 0 0-.07.06l-.04.29a.14.14 0 0 0 .12.17l1.57.26a.58.57-82.3 0 1 .48.64q-.39 2.94-1.69 4.64a1.24 1.23-66.6 0 1-1.18.47q-1.48-.24-2.79-.55-2.32-.55-2.71.23l-24.72-3.95q-2.31.39-3.72-.54-13.02-2.32-26.24-4.35-1.59-.25-1.55.62l-1.31-1.36a1.39 1.37 71.2 0 0-.82-.41q-1.37-.19-1.67.39l-26.03-3.91-.5-.39a.72.72 0 0 1-.03-1.11q.76-.66 1.18-1.41a.45.45 0 0 0-.49-.66q-1.02.22-1.1.2a.21.21 0 0 1 .05-.41l1.66-.07a.79.73-65.5 0 0 .48-.2c2.82-2.54 4.18-5.18 6.37-8.11q14.18-18.91 27.82-36.04a1.73 1.73 0 0 1 .27-.27q1.69-1.32 3.21-4.51 1.03-2.16 3.04-2.21zm19.52 6.71q.67.37 1.01.12a.51.46 28.5 0 0-.3-.86q-.01 0-.66.19a.3.3 0 0 0-.05.55zm-.98 3.45q-.91-.54-1.74-.38a.36.35-28.8 0 0-.18.61q.75.69 1.86.31a.3.3 0 0 0 .06-.54zm-4.37 4.18q.37.64 1.56.44a.37.37 0 0 0 .18-.64q-.57-.51-1.14-.55a.58.5-10.6 0 0-.6.75zm-2.945 3.841a1.06.56-170.3 0 0 .95.731 1.06.56-170.3 0 0 1.139-.373 1.06.56-170.3 0 0-.95-.731 1.06.56-170.3 0 0-1.139.373zM444.13 65.3q.4.63 1.12.72 9.78 1.18 19.5 2.67 1.94.3 3.19-.38.34.51.88.71a.66.66 0 0 0 .78-.27q1.75-2.84 1.37-4.24-4.63-1.31-7.94-1.17a2.3 2.06 48.2 0 1-.62-.07l-3.75-.95a2.51 1.91-26.1 0 0-.31-.06l-12.26-.85q-.42-1.14-1.25-1.23a.57.56 2.3 0 0-.62.57q.04 2.95-2.78 4.16a.61.6 32.4 0 0 .26 1.16q1.82-.05 2.43-.77zm-6.804 4.133a1.81.53-159.4 0 0 1.508 1.133 1.81.53-159.4 0 0 1.881.141 1.81.53-159.4 0 0-1.508-1.133 1.81.53-159.4 0 0-1.881-.141zm-3.186 5.407q1.07-.1 1.57.71a.74.73-21.4 0 0 .77.33q1.2-.27 1.79-.26a.12.05-21.6 0 0 .14-.14q-.15 0-.24-.03-.2-.07-.22-.07-1.34.02-1.69-.74a.68.68 0 0 0-.59-.38q-1.46-.05-1.71.18a.23.23 0 0 0 .18.4zm-2.6 5.15q.81 1.15 1.28 1.25a.54.53-7.9 0 0 .59-.77q-.5-.92-1.63-.95a.3.29 72.3 0 0-.24.47zm-1.88 6.79q.32.06.51.03a.32.32 0 0 0 .19-.53q-1.37-1.52-3-1.06a.2.19 42.4 0 0 .02.38q1.43.3 1.68.75a.93.9 79.7 0 0 .6.43zm-2.24 5.35q-1.16 0-1.61-.92a.8.78-15.7 0 0-.8-.44q-1.32.16-1.95.09a.13.06-16 0 0-.16.13q.16.02.25.06.21.1.23.1 1.44.12 1.74.97a.73.73 0 0 0 .59.48q1.57.2 1.86-.02a.25.25 0 0 0-.15-.45z" class="E"/><path d="M435.73 37.62l20.81 2.29q.31 1.17-.8 1.02-3.83-.54-7.66-1.16a7.96 7.95 48.6 0 0-1.59-.1q-5.77.2-11.15-1.57.19-.24.39-.48z" class="B"/><path d="M370.81 38.72q-.59.42-1.41.25a.43.42-59.5 0 1-.19-.74q.45-.37 1.48-.12a.34.34 0 0 1 .12.61z" class="C"/><path d="M425.04 38.99q-.2.81-.9 1.43-1.31.05-.58 1.21.19.31.5.24.29-.06.57-.28l2.83-1.12q.42.21 1.07-.07 1.35.14 1.52.35a1.76 1.76 0 0 1-.93 2.81q-2.91.76-5.27.36a.67.66-88.9 0 1-.55-.58q-.01-.15.05-.43.04-.19-.12-.33-.58-.52-1.51.09-1.06 1.11-2.26.94-.45-.36-.93-.4a.6.59 2.6 0 0-.65.59q0 .07.02.17a.47.46-13.6 0 1-.35.56q-1.24.31-2.56-.26.13-1.08 1.74-1.28a.7.7 0 0 0 .59-.52q.85-3.07 4.34-2.71 2.11.22 2.82-1.04a.22.21 21.7 0 1 .24-.1q.23.05.32.37z" class="E"/><path d="M61.68 39q5.24.97 10.44 1.9 1.39.25 1.46 1.05l-.9.44a.39.34-48.9 0 1-.22.03l-10.92-1.78a.15.15 0 0 0-.17.15v.5a.38.37 90 0 0 .37.38h4.17a1.69 1.6-34 0 1 .54.09q2.95 1.02 5.31.99a6.54 6.42-39.2 0 1 1.52.14q11.7 2.4 15.61 2.76.63.06 1.78.33a1.65.03 13.4 0 0 1.34.29q5.51.63 9.51 1.56 6.39 1.49 11.93-1.84.33.95 1.12 1.68-4.97 3.36-9.32 2.63-24.58-4.14-49.17-8.22a.56.56 0 0 1-.46-.44q-.13-.68.15-1.41l4.65.51a.29.29 0 0 0 .08-.57l-.45-.08a.49.49 0 0 1-.16-.91q.76-.41 1.79-.18z" class="B"/><path d="M282.28 39.48l-.07.63a.67.67 0 0 0 .46.71q2.63.84 4.74.3a.17.17 0 0 1 .2.11q.03.09.07.32a.34.33-9.8 0 1-.27.38q-1.04.19-1.19 1.04a.64.63-81.6 0 1-.69.52q-4.35-.47-6.83-1.01-.58-.13-1.23.13-.37.15-.17 1.12-1.21.55-2.12-.41a.35.34 66.8 0 1 .23-.59q.08-.01.34-.01a1.69 1.68 26.3 0 0 1.07-.36q1.8-1.36 3.23-1.49a.65.64 2.2 0 0 .59-.54q.12-.85.75-1.18.63-.33.89.33z" class="D"/><path d="M185.88 40.12q-.89.1-1.14-.07-.69-.46-.07-.85.45-.29 1.36.27a.35.35 0 0 1-.15.65z" class="C"/><path d="M300.54 42.46q-.51.33-1.04.36-4.12.21-8.25-.96a.19.18-85.7 0 0-.23.2l.17 1.7a.26.25 3.3 0 0 .2.22l4.27.92a.32.31 31.2 0 1 .14.55l-.3.25q-1.73.5-3.62-.26-.36-.15-.78-.09-.41.06-.81.04a.01 0 53.3 0 0 0 .01q.36.09-.15.48a.3.29 29.3 0 1-.23.06l-12.61-2.21q-.2-.97.17-1.12.65-.26 1.23-.13 2.48.54 6.83 1.01a.64.63-81.6 0 0 .69-.52q.15-.85 1.19-1.04a.34.33-9.8 0 0 .27-.38q-.04-.23-.07-.32a.17.17 0 0 0-.2-.11q-2.11.54-4.74-.3a.67.67 0 0 1-.46-.71l.07-.63q1.55-.03 3.14.42.9.25 1.66-.17 1.23-.67 1.47-.64 1.56.18 2.53 1.09a1.81 1.79 69.7 0 0 1.01.47q3.78.46 7.44.97 1.24.18 1.01.84z" class="B"/><path d="M427.35 40.24q.07.08.11.23l-2.83 1.12q.59-1.76 2.72-1.35z" class="C"/><path d="M428.41 40.24q.06.08.12.16-.65.28-1.07.07-.04-.15-.11-.23h1.06z" class="B"/><path d="M100.85 41.01q-.82.31-1.44.18a.27.27 0 0 1-.1-.49q.18-.13 1.47-.09a.21.21 0 0 1 .07.4z" class="C"/><path d="M424.14 40.42q-.3 1.21.49 1.17-.28.22-.57.28-.31.07-.5-.24-.73-1.16.58-1.21z" class="B"/><path d="M73.58 41.95q.82-.56 1.42-.17-.39.78.75 1.08 7.09 1.85 14.3 1.57.91-1.4 3.63-1a.29.29 0 0 1-.01.57l-2.27.23a.6.6 0 0 0-.03 1.19l13.72 2.23a.67.67 0 0 0 .66-.28q.48-.69 1.61-.6.91.07 1.74-.27c3.02-1.26 5.34-1.9 6.14-2.94q.42-.55 1.15-.53a.39.39 0 0 1 .35.54l-.36.88q-.69-1.02-2.93 1.54-5.54 3.33-11.93 1.84-4-.93-9.51-1.56a1.65.03 13.4 0 1-1.34-.29q-1.15-.27-1.78-.33-3.91-.36-15.61-2.76a6.54 6.42-39.2 0 0-1.52-.14q-2.36.03-5.31-.99a1.69 1.6-34 0 0-.54-.09h-4.17a.38.37 90 0 1-.37-.38v-.5a.15.15 0 0 1 .17-.15l10.92 1.78a.39.34-48.9 0 0 .22-.03l.9-.44z" class="D"/><path d="M90.05 44.43q-7.21.28-14.3-1.57-1.14-.3-.75-1.08.42-.35 1.02-.31 7.02.56 14.03 2.96zm124.28-2.2a.28.27-30.3 0 1-.14.5q-.23.01-.38-.21a.25.25 0 0 1 .27-.38q.17.05.25.09z" class="B"/><path d="M300.54 42.46q.16-.04.27-.03a.25.25 0 0 1 .15.41q-1.17 1.32-2.85 1.68a1.32 1.3 10 0 0-.87.6q-.69 1.1-1.74.58l.3-.25a.32.31 31.2 0 0-.14-.55l-4.27-.92a.26.25 3.3 0 1-.2-.22l-.17-1.7a.19.18-85.7 0 1 .23-.2q4.13 1.17 8.25.96.53-.03 1.04-.36z" class="D"/><g class="B"><ellipse cx="0" cy="0" transform="matrix(-.99956 -.029666 .029666 -.99956 177.79 43.12)" rx="1.32" ry=".75"/><path d="M421.72 42.67l.21 1.45a.78.78 0 0 0 .57.63q.87.24.86 1.28a1.09 1.06 63.8 0 1-.19.58l-2.65 3.8q-1.15-.56-1.37-1.26-.24-.74.74-1.58.73-.62 1.38-1.41a.47.47 0 0 0-.48-.75l-.9.26q.13-.22-.74-.46 1.07-.49.31-1.6 1.2.17 2.26-.94zm61.61.24l24.8 2.62q-.15.93-2.37.68-10.37-1.17-20.23-2.08-2.62-.24-2.2-1.22zm-272.98 1.38a.28.24-36.4 0 1-.1.44q-.34.14-.57-.02a.28.26-41.1 0 1 .05-.46q.33-.18.62.04z"/></g><path d="M454.91 44.26q.65-.19.66-.19a.51.46 28.5 0 1 .3.86q-.34.25-1.01-.12a.3.3 0 0 1 .05-.55z" class="C"/><ellipse cx="0" cy="0" transform="matrix(.997314 -.073238 .073238 .997314 426.26 45.58)" rx="1.04" ry=".66" class="B"/><path d="M362.58 45.92q-.56.39-1.28.16a.47.47 0 0 1-.11-.84q.41-.25 1.3.04a.36.36 0 0 1 .09.64z" class="C"/><path d="M419.15 45.21q.87.24.74.46l-30.43 36.07q-1.02.41-.79 1.16a.41.4 73.4 0 0 .49.27l.62-.18q.43.36 1.56.71l3.92-1.54.67.06q1.31.41 1.89 1.42a.85.84-37.4 0 1-.14 1.02l-2.61 2.61a.79.78-73.8 0 1-.38.21q-1.82.36-3.64.16a.63.62-88 0 0-.69.65q.02.37-.25.57-.28.21-.63-.18-.47-.52-.64-1.47-.79-.55-.05-1.36a.49.48 27.3 0 0-.26-.8l-1.12-.24a.89.89 0 0 0-.79.21l-2.06 1.84q-1.92-.31-3.25-1.57a.71.71 0 0 1-.02-1.02l2.85-2.85a.97.96 22.9 0 1 .67-.27q2.12.02 3.55-.43a.53.53 0 0 0-.18-1.04l-2.55.12a.66.66 0 0 1-.42-1.19q.96-.71 2.81-.53a.83.81-2.8 0 1 .73.65q.06.32.32.57.24.23.64-.24 2.8-3.24 5.82-6.78 6.63-7.76 18.9-21.87 2.35-2.69 4.72-5.2z" class="E"/><path d="M168.99 46.68q1.15-.63 1.93-.24a.36.35-32.8 0 1-.15.67l-1.64.08a.27.27 0 0 1-.14-.51z" class="C"/><ellipse cx="0" cy="0" transform="matrix(.79653 -.604599 .604599 .79653 205.72 46.94)" rx="1.07" ry=".55" class="B"/><path d="M271.15 47.42q-1.53.09-2.39-.34a.29.28-42.9 0 1 .02-.52q1.62-.64 2.56.41a.27.27 0 0 1-.19.45z" class="C"/><path d="M184.26 51.76l-11.09 5.61a2.05 2.03-60.2 0 1-.76.21l-2.84.21a4.54 4.36 46.2 0 1-.94-.04l-13.6-2.22q3.86-4.05 9.55-3.78 4.71.22 11.63 1.2a.25.24-80.7 0 0 .28-.21l.05-.23a.06.05-79.8 0 0-.04-.07l-10.07-2.12a.63.63 0 0 1-.07-1.21q9.99-3.39 17.9 2.65z" class="B"/><path d="M453.88 48.26a.3.3 0 0 1-.06.54q-1.11.38-1.86-.31a.36.35-28.8 0 1 .18-.61q.83-.16 1.74.38z" class="C"/><path d="M511.24 47.92l-7.14 23.04q-.3-.34-.29-.63 2.88-11.43 7.43-22.41zm-309.33 1.27q-.27.39-.98.6a.38.38 0 0 1-.36-.64q.47-.42.97-.52a.36.36 0 0 1 .37.56z" class="B"/><path d="M358.34 49.47q-.25.67-.17.83a.87.86 80.9 0 0 .63.46q9.89 1.56 19.91 2.6.37.04.56-.42.42-.36.59-.27a.65.64-47.9 0 1 .05 1.1q-1.73 1.17-3.17 2.67a.51.51 0 0 1-.87-.31l-.05-.68-5.33-.83a.77.75-2.9 0 1-.61-.54c-.41-1.42-1.98-1.55-3.67-1.84q-1-.17-1 .12a1.48 1.47-83.5 0 1-1.8 1.44q-4.6-1.08-9.06-.42-.37 1.14-1.62.73a.55.55 0 0 1 .06-1.06q1.63-.32 3.5-1.92a1.11 1.1-21 0 0 .39-.86q-.02-.88.56-1.3.32-.22.68-.02.28.17.42.52z" class="D"/><path d="M379.27 52.94q-.19.46-.56.42-10.02-1.04-19.91-2.6a.87.86 80.9 0 1-.63-.46q-.08-.16.17-.83 10.24.99 20.39 2.7.66.11.54.77z" class="B"/><path d="M161.25 49.93q1.24-.08 1.53.18a.52.52 0 0 1-.38.91q-.97-.05-1.38-.38a.4.4 0 0 1 .23-.71z" class="D"/><path d="M265.63 51.11q-.11.46-2.07.32-1.14-.07-.93-.99.21-.92 1.26-.51 1.84.72 1.74 1.18z" class="C"/><path d="M197.21 51.63q-.08.36-.38.74a.25.24 43 0 1-.38.01q-.48-.54-.04-1a.48.39-22.1 0 1 .8.25z" class="B"/><path d="M449.51 52.44a.58.5-10.6 0 1 .6-.75q.57.04 1.14.55a.37.37 0 0 1-.18.64q-1.19.2-1.56-.44z" class="C"/><path d="M375.82 55.45q.11.69-.07.97-.36.58-1.51.39-8.3-1.33-16.68-2.05-2.15-.18-3.21-1.38 4.46-.66 9.06.42a1.48 1.47-83.5 0 0 1.8-1.44q0-.29 1-.12c1.69.29 3.26.42 3.67 1.84a.77.75-2.9 0 0 .61.54l5.33.83zm-261.53-2.16q.21.18.26.37.05.22-.15.41-.34.32-.93.22.29-.59.82-1z" class="B"/><path d="M258.73 55.28l-1.56.16a.67.67 0 0 1-.48-1.19q.9-.71 2.18.67a.22.22 0 0 1-.14.36zm21.68 27.87L115.95 55.38q-1.04-.7-.73-.79 3.23-.94 6.07.16a2.66 2.52 57.9 0 0 .7.18q8.55 1.05 10.45 1.65 3.91 1.23 4.78.73a.67.65 36.6 0 1 .47-.06c1.09.25 2.29.81 3.34.84 2.71.07 5.07.88 8.28 1.36q17.22 2.57 20.11 3.4 3.79 1.08 5.72-.31a.67.66-38.4 0 1 .9.1q.12.15.15.38.02.13.4.19 6.13 1.13 9.47 1.28a2.94 2.79 56 0 1 .99.22c2.16.89 4.26.43 6.48 1.11q1.96.59 4.41.48a2.7 2.58 50.4 0 1 .85.1q1.38.41 8.01 1.74 1.47.3 2.49.18c1.64-.19 2.41 1.49 4.1 1.73q3.27.48 4.82.99a5.12 5.12 0 0 0 1 .2q7.54.71 10.11 1.49 3.07.94 4.58.66a2.13 2.03 49.6 0 1 1.16.12c2.13.87 5.26.45 7.71 1.52 1.35.59 2.6.01 3.88.42q2.24.72 3.93.67c2.56-.07 4.67 1.46 7.49 1.17a2.76 2.67 50.9 0 1 1.1.13l2.24.79a1.65 1.57-37.8 0 0 .79.08c2.03-.29 4.35.86 6.73 1.09q4.99.49 11.16 1.95a1.86 1.7 47.6 0 0 .56.05l2.87-.21a.42.42 0 0 1 .4.61q-.37.69-.21 1.88a.38.38 0 0 1-.68.28q-1.23-1.68-2.62-.79z" class="C"/><ellipse cx="0" cy="0" transform="matrix(.99824 -.059306 .059306 .99824 506.12 55.15)" rx="1.02" ry=".77" class="B"/><path d="M280.41 83.15l.84 1.54q-.22.01-.37.18-.14.14-.14.38.09 10.26.26 20.47a.79.73-62.7 0 0 .11.4q.14.23.25.27-.86 1.68-1.3 1.19l-8.94-1.83a1.94 1.88 76.2 0 1-1.13-.71l-1.42-1.86a.36.36 0 0 0-.64.14q-.09.38.03.95a.54.53 88.8 0 1-.61.64q-5.65-.92-8.89-1.62-2.03-.44-2.69-2.34-.08-.26-.26-.3c-.44-.11-.65.19-.62.66q.04.61-.21 1.03a.42.41 21.2 0 1-.44.19l-9.82-2.12a1 .98-11.5 0 1-.59-.38l-1.24-1.61a.26.26 0 0 0-.47.17q.08 1.41-.87 1.3-2.4-.28-8.98-1.73-.67-.15-1.63-1.18a.52.51 46.2 0 0-.73-.02q-.87.86-2.6.47-3.44-.77-5.39-1.08a.25.25 0 0 0-.22.42l2.07 2.17 1.03 19.48q-.13.87-.81.73-24.51-5-75.68-16.25-1.68-.36-1.89-1.56l-2.04-18.8.12-.59a.7.7 0 0 0-.69-.83q-2.62.02-4.67-1.67a.79.78 46 0 0-.97-.02q-.17.14-.18.14a1.46 1.44-59.1 0 1-1.2.31l-6.47-1.18a1.1 1.09 86.4 0 1-.84-.74q-.25-.76-1.07-1.41a.33.33 0 0 0-.53.32q.17.96-.17 1.2a.99.67 24.5 0 1-.64.11l-7.11-1.06q-.99-1.74-2.09-2.29l-2.34-18.56q.3-.43.42-.89l164.46 27.77zm-129.31-.66q-.74-.43-1.5-1.78a.57.56-52 0 0-1.03.13q-.1.34.16.97c.41 1.03 1.43 1.11 2.25 1.1a.23.23 0 0 0 .12-.42zm10.77 2.2q-.47-.24-1.79-2.53a.4.4 0 0 0-.73.07q-.23.64-.14 1.53a.91.88 11.7 0 0 .49.72q1.38.67 2.12.56a.19.18 53.8 0 0 .05-.35zm-8.05-.13q.27.32 1 1.31a.28.28 0 0 0 .5-.14q.03-.44-.24-1.97-.04-.18-.06-.2-.01-.03-.19-.09-1.46-.54-1.89-.59a.28.28 0 0 0-.23.47q.85.89 1.11 1.21zm16.54 1.79q.51.71 1.85.67a.32.32 0 0 0 .23-.52q-.45-.52-.84-1.05-.38-.53-.73-1.12a.32.32 0 0 0-.57.06q-.45 1.26.06 1.96zm-5.69.26q.47.55.95 1.05a.26.26 0 0 0 .45-.14q.17-1.15-.37-1.78-.55-.64-1.7-.64a.26.26 0 0 0-.21.42q.42.55.88 1.09zm19.23 2.03q-.96-.33-1.6-2.13a.39.39 0 0 0-.76.15l.07 1.5a.78.77-84.4 0 0 .58.71q1.39.34 1.71.21a.23.23 0 0 0 0-.44zm-9.49-1.44l2.1 2.75a.24.23-59.4 0 0 .42-.11l.22-1.68a.55.55 0 0 0-.43-.61l-2.23-.48a.08.08 0 0 0-.08.13zm18.69 3.57q.42.55 1.6.32a.32.32 0 0 0 .19-.51q-.32-.41-.57-.74-.26-.34-.57-.75a.32.32 0 0 0-.54.05q-.53 1.07-.11 1.63zm-4.72 1.1l-.13-1.24a.94.94 0 0 0-.39-.68q-1.1-.78-1.69-.85a.37.37 0 0 0-.32.61l2.12 2.34a.24.23 21 0 0 .41-.18zm16.69-.62q-.08.3-.16.94-.09.79.36 1.02.28.14 1.13.34a.31.31 0 0 0 .34-.46l-1.1-1.91a.31.31 0 0 0-.57.07zm-5.24 2.63l.19-1.17a.67.66 12.5 0 0-.48-.75q-.74-.21-1.68-.17a.25.25 0 0 0-.18.42l1.65 1.82a.29.29 0 0 0 .5-.15zm17.42 1.59q.44.53 1.46.41a.3.3 0 0 0 .2-.47q-.31-.4-.65-.8-.34-.4-.67-.76a.3.3 0 0 0-.51.12q-.28.98.17 1.5zm-6.89-.05q.85 1 .86 1.01a.37.37 0 0 0 .57-.24q.21-1.16-.28-1.74-.49-.57-1.67-.56a.37.37 0 0 0-.33.52q.01.01.85 1.01z" class="E"/><ellipse cx="0" cy="0" transform="matrix(.92321 -.384295 .384295 .92321 186.89 56.65)" rx=".99" ry=".51" class="B"/><ellipse cx="0" cy="0" transform="matrix(-.985703 -.168489 .168489 -.985703 447.61 56.46)" rx="1.06" ry=".56" class="D"/><path d="M115.53 56.27l2.34 18.56q-.65.62-1.3.23a.58.57-78.9 0 1-.27-.41q-1.22-8.66-2.23-17.72-.04-.4.27-.67.43-.36 1.19.01z" class="B"/><path d="M347.66 58.06a.41.4-46.4 0 1-.01-.7q.95-.58 1.56.11a.41.4 62.2 0 1-.2.66q-.85.2-1.35-.07z" class="D"/><ellipse cx="0" cy="0" transform="matrix(-.994522 -.104528 .104528 -.994522 250.86 58.93)" rx="1.62" ry=".62" class="C"/><path d="M182.82 59.08q-.67.93-1.06 1a.61.58-81.3 0 1-.6-.87q.36-.74 1.41-.66a.34.34 0 0 1 .25.53z" class="B"/><path d="M446.09 61.41q2.34 1.5 5.59 1.27a.47.47 0 0 1 .5.46q.02 1.11.62 2.05a.3.3 0 0 1-.26.46q-3.86-.12-7.79-.84-.49-.09-.62.49-.61.72-2.43.77a.61.6 32.4 0 1-.26-1.16q2.82-1.21 2.78-4.16a.57.56 2.3 0 1 .62-.57q.83.09 1.25 1.23z" class="D"/><path d="M470.97 64.51q-5.02.54-8.48-.27a.52.51-72 0 0-.58.3q-.01.02-.03.19a.75.75 0 0 1-.64.64q-3.69.52-7.68-.62a.44.44 0 0 0-.55.31l-.02.09a.38.37 15.6 0 0 .27.47q6.51 1.69 13.24 1.89.98.02 1.44.8-1.25.68-3.19.38-9.72-1.49-19.5-2.67-.72-.09-1.12-.72.13-.58.62-.49 3.93.72 7.79.84a.3.3 0 0 0 .26-.46q-.6-.94-.62-2.05a.47.47 0 0 0-.5-.46q-3.25.23-5.59-1.27l12.26.85a2.51 1.91-26.1 0 1 .31.06l3.75.95a2.3 2.06 48.2 0 0 .62.07q3.31-.14 7.94 1.17z" class="B"/><g class="C"><ellipse cx="0" cy="0" transform="matrix(-.970296 -.241922 .241922 -.970296 343.64 62.15)" rx="1.05" ry=".57"/><path d="M244.79 63.78q-.98.36-1.24.32a.94.68 35.5 0 1-.51-1.53q1.05-.2 1.88.5a.42.42 0 0 1-.13.71z"/></g><path d="M113.7 64.28q-.03.56-.34 1.1a.88.86 45.6 0 0 0 .87l.87 1.52q-2.21-.37-2.3-1.5a.52.52 0 0 1 .16-.42l1.61-1.57z" class="B"/><path d="M470.97 64.51q.38 1.4-1.37 4.24a.66.66 0 0 1-.78.27q-.54-.2-.88-.71-.46-.78-1.44-.8-6.73-.2-13.24-1.89a.38.37 15.6 0 1-.27-.47l.02-.09a.44.44 0 0 1 .55-.31q3.99 1.14 7.68.62a.75.75 0 0 0 .64-.64q.02-.17.03-.19a.52.51-72 0 1 .58-.3q3.46.81 8.48.27z" class="D"/><path d="M297.33 64.38l1.24.25a.61.61 0 0 1 .03 1.18q-3.9 1.04-3.31-.58.59-.67 2.04-.85z" class="B"/><g class="C"><path d="M338.95 66.04a.68.66-45.8 0 1 0 1.25q-.43.18-1.26-.21a.54.53 46.3 0 1 .02-.98q.68-.27 1.24-.06z"/><ellipse cx="0" cy="0" transform="matrix(.80696 -.590606 .590606 .80696 301.88 68.32)" rx="1.17" ry=".45"/></g><path d="M286.09 74.41a.29.29 0 0 1-.37-.17v-.01a.27.27 0 0 1 .13-.33q1.91-.97 2.71-2.2a1.57 1.53 8.9 0 1 .93-.66q.62-.15 2.94-2a.3.3 0 0 1 .45.37q-.22.39-1.29 1-2.4 1.34-3.84 3.03-.44.52-1.66.97z" class="B"/><ellipse cx="0" cy="0" transform="matrix(-.93606 -.351842 .351842 -.93606 439.02 70.07)" rx="1.81" ry=".53" class="C"/><path d="M503.81 70.33q-.01.29.29.63l-.14.64q-.57 3.13-1.95 4.53l-2.76-1.05a.92.92 0 0 1-.57-1.05l.41-1.88a1.35 1.34 5.9 0 1 1.3-1.05q1.85-.02 3.42-.77z" class="E"/><path d="M334.14 71.68q.01.12-.36.29a1.3 1.19-21.6 0 1-1.78-.68q-.14-.46.76-.62a1.18 1.15-8 0 1 1.38 1.01z" class="C"/><path d="M280.86 74.61q.13.75-.29 1.13-.34.31-1.14.19-14.08-2.04-19.39-3.13-1.1-.22-.42-1.59l21.24 3.4zm210.97 34.27q-.19-.05-.39-.1l10.57-32.65q1.38-1.4 1.95-4.53l2.6 2.78a2.02 2 33 0 1 .44 2.04q-.65 1.88-.14 4.3a1.43 1.41 50.7 0 1-.08.87q-.4.97-.9 1.12a1.35 1.34 1.2 0 1-1.67-1.73q.57-1.58.89-3.38a.42.42 0 0 0-.63-.44c-2.28 1.34-2.79 1.13-3.68 3.95q-4.4 13.92-8.96 27.77z" class="B"/><path d="M434.14 74.84a.23.23 0 0 1-.18-.4q.25-.23 1.71-.18a.68.68 0 0 1 .59.38q.35.76 1.69.74.02 0 .22.07.09.03.24.03a.12.05-21.6 0 1-.14.14q-.59-.01-1.79.26a.74.73-21.4 0 1-.77-.33q-.5-.81-1.57-.71z" class="C"/><path d="M326.69 75.72q.15-.15 1.24.1.48.11.49.58.02.45-.41.55a1.09.77 7.6 0 1-1.32-1.23z" class="D"/><path d="M144.38 82.54l-.66-.02a.68.68 0 0 0-.69.75l1.69 16.74a.64.6-61.6 0 0 .05.19q.72 1.73 1.65 1.14.21 1.2 1.89 1.56 51.17 11.25 75.68 16.25.68.14.81-.73 1.38.44 1.82-.3a.43.38-32.3 0 0 .06-.21l-.91-18.82a.72.72 0 0 0-.55-.67q-1.14-.29-1.45.52l-2.07-2.17a.25.25 0 0 1 .22-.42q1.95.31 5.39 1.08 1.73.39 2.6-.47a.52.51 46.2 0 1 .73.02q.96 1.03 1.63 1.18 6.58 1.45 8.98 1.73.95.11.87-1.3a.26.26 0 0 1 .47-.17l1.24 1.61a1 .98-11.5 0 0 .59.38l9.82 2.12a.42.41 21.2 0 0 .44-.19q.25-.42.21-1.03c-.03-.47.18-.77.62-.66q.18.04.26.3.66 1.9 2.69 2.34 3.24.7 8.89 1.62a.54.53 88.8 0 0 .61-.64q-.12-.57-.03-.95a.36.36 0 0 1 .64-.14l1.42 1.86a1.94 1.88 76.2 0 0 1.13.71l8.94 1.83q-.26 3.38.75 6.66-49.65 17.15-64.83 22.26-.62.22-1.31.08 1.01-1.62.68-5.3.33-2.43.18-8.32-.07-2.4-2.28-2.85.83-.6.42-1.4a.73.73 0 0 0-.5-.38l-17.02-3.68a.38.38 0 0 0-.45.47l.39 1.38q-.32.28-.92-.01a1.44 1.44 0 0 0-.9-.12q-.84.16-1.01-.52.47-.13.51-.72.06-.95-.9-1.15-7.89-1.71-15.62-3.36a.78.78 0 0 0-.77 1.24q.33.43.81.6.35 1.23-.58 1.4-.9.17-.82 1.11.35 3.99.62 7.83a2.16 2.14 26.4 0 0 .35 1.03q.48.72.93.92l-.1 1.47q-.48.45-.62 1.75l-58.62-46.03q1.65-2.1 1.51-4.82l7.11 1.06a.99.67 24.5 0 0 .64-.11q.34-.24.17-1.2a.33.33 0 0 1 .53-.32q.82.65 1.07 1.41a1.1 1.09 86.4 0 0 .84.74l6.47 1.18a1.46 1.44-59.1 0 0 1.2-.31q.01 0 .18-.14a.79.78 46 0 1 .97.02q2.05 1.69 4.67 1.67a.7.7 0 0 1 .69.83l-.12.59zm17.249 29.851a1.56 1.13-120.9 0 0-.168 1.919 1.56 1.13-120.9 0 0 1.771.758 1.56 1.13-120.9 0 0 .168-1.919 1.56 1.13-120.9 0 0-1.771-.758zm67.289 14.959a1.82 1.35-132.6 0 0 .238 2.254 1.82 1.35-132.6 0 0 2.226.426 1.82 1.35-132.6 0 0-.238-2.253 1.82 1.35-132.6 0 0-2.226-.426z" class="C"/><g class="B"><ellipse cx="0" cy="0" transform="matrix(-.481754 -.876307 .876307 -.481754 117.55 78.71)" rx="1.69" ry="1.16"/><path d="M297.74 77.52l21.91 3.6q.18.68.02.92a.62.6-68.3 0 1-.6.27q-10.42-1.45-20.86-3.48-1.84-.36-.47-1.31z"/></g><path d="M431.78 79.52q1.13.03 1.63.95a.54.53-7.9 0 1-.59.77q-.47-.1-1.28-1.25a.3.29 72.3 0 1 .24-.47zm-280.8 3.39c-.82.01-1.84-.07-2.25-1.1q-.26-.63-.16-.97a.57.56-52 0 1 1.03-.13q.76 1.35 1.5 1.78a.23.23 0 0 1-.12.42z" class="C"/><path d="M285.65 109.21a.1.1 0 0 1-.1.1h-.02a7 1.26-89.7 0 1-1.22-7l.08-14.92a7 1.26-89.7 0 1 1.3-7h.02a.1.1 0 0 1 .1.1l-.16 28.72zm113.81-28.62a.74.63-51.2 0 1 .04 1.32q-.77.39-1.68-.33a.38.38 0 0 1 .1-.65q1.05-.4 1.54-.34zm-4.2 1.57l-3.92 1.54q-.2-2.18 1.72-2.67a1.06 1.06 0 0 1 .88.17l1.32.96z" class="B"/><path d="M161.82 85.04q-.74.11-2.12-.56a.91.88 11.7 0 1-.49-.72q-.09-.89.14-1.53a.4.4 0 0 1 .73-.07q1.32 2.29 1.79 2.53a.19.18 53.8 0 1-.05.35z" class="C"/><path d="M322.72 81.68q11.92 1.7 22.49 3.68.6.11.68.57-.03.76-.67.65c-6.47-1.08-12.98-2.34-19.49-3.05q-3.13-.34-3.01-1.85zm66.74.06q-.25.45.32 1.25l-.62.18a.41.4 73.4 0 1-.49-.27q-.23-.75.79-1.16zm-245.08.8l2.04 18.8q-.93.59-1.65-1.14a.64.6-61.6 0 1-.05-.19l-1.69-16.74a.68.68 0 0 1 .69-.75l.66.02z" class="B"/><path d="M155.02 83.56q.02.02.06.2.27 1.53.24 1.97a.28.28 0 0 1-.5.14q-.73-.99-1-1.31-.26-.32-1.11-1.21a.28.28 0 0 1 .23-.47q.43.05 1.89.59.18.06.19.09z" class="C"/><path d="M309.4 85.65q.37-1.36.58-1.48a.95.82-87.8 0 1 1.06 1.33q-.42.77-1.19.75a.48.47-81.9 0 1-.45-.6z" class="D"/><path d="M171.6 85.45q.39.53.84 1.05a.32.32 0 0 1-.23.52q-1.34.04-1.85-.67-.51-.7-.06-1.96a.32.32 0 0 1 .57-.06q.35.59.73 1.12z" class="C"/><path d="M281.25 84.69q.67-.12 1.12.06a.6.6 0 0 1 .38.56l.29 20.77a.28.28 0 0 1-.11.24q-.52.43-1.57.07-.11-.04-.25-.27a.79.73-62.7 0 1-.11-.4q-.17-10.21-.26-20.47 0-.24.14-.38.15-.17.37-.18z" class="B"/><path d="M165.7 85.74q.54.63.37 1.78a.26.26 0 0 1-.45.14q-.48-.5-.95-1.05-.46-.54-.88-1.09a.26.26 0 0 1 .21-.42q1.15 0 1.7.64z" class="C"/><path d="M317.9 86.07l-7.57 6.88a.5.49 47.5 0 1-.7-.04l-.83-.91a.55.53-42.7 0 1 .04-.76l6.03-5.49a1.23 1.19 21.9 0 1 .76-.31l1.97-.09a.42.41-67.7 0 1 .3.72z" class="D"/><path d="M429.06 86.35q-.25-.45-1.68-.75a.2.19 42.4 0 1-.02-.38q1.63-.46 3 1.06a.32.32 0 0 1-.19.53q-.19.03-.51-.03a.93.9 79.7 0 1-.6-.43zM183.9 89.08q-.32.13-1.71-.21a.78.77-84.4 0 1-.58-.71l-.07-1.5a.39.39 0 0 1 .76-.15q.64 1.8 1.6 2.13a.23.23 0 0 1 0 .44z" class="C"/><path d="M373.66 90.15q.1.51-.06.59-.62.34-1.32.23-11.22-1.8-22.15-3.57-1.25-.2-.95-1.11.9-.36 2.34-.12 10.46 1.74 20.94 3.43.76.12 1.2.55zm2.21.65a.28.28 0 0 1-.32-.31v-.01a.28.28 0 0 1 .28-.27c1.93-.03 3.44-2.25 4.38-3.53a.34.34 0 0 1 .5-.06l.12.15a.12.12 0 0 1 0 .16l-2.73 3.36a.7.68-74 0 1-.43.25l-1.8.26z" class="B"/><path d="M174.49 87.07l2.23.48a.55.55 0 0 1 .43.61l-.22 1.68a.24.23-59.4 0 1-.42.11l-2.1-2.75a.08.08 0 0 1 .08-.13z" class="C"/><rect x="-.73" y="-2.83" transform="matrix(.988228 .152986 -.152986 .988228 302.05 90.71)" width="1.46" height="5.66" rx=".55" class="D"/><path d="M194.32 89.84q.25.33.57.74a.32.32 0 0 1-.19.51q-1.18.23-1.6-.32-.42-.56.11-1.63a.32.32 0 0 1 .54-.05q.31.41.57.75zm-6.35 2.21l-2.12-2.34a.37.37 0 0 1 .32-.61q.59.07 1.69.85a.94.94 0 0 1 .39.68l.13 1.24a.24.23 21 0 1-.41.18z" class="C"/><path d="M345.04 90.16q-.49.06-.83-.15.53-.12.83.15zm1.49.29l-.75-.15q.46-.05.75.15z" class="D"/><path d="M427.57 92.58q-.29.22-1.86.02a.73.73 0 0 1-.59-.48q-.3-.85-1.74-.97-.02 0-.23-.1-.09-.04-.25-.06a.13.06-16 0 1 .16-.13q.63.07 1.95-.09a.8.78-15.7 0 1 .8.44q.45.92 1.61.92a.25.25 0 0 1 .15.45zm-221.93-1.4l1.1 1.91a.31.31 0 0 1-.34.46q-.85-.2-1.13-.34-.45-.23-.36-1.02.08-.64.16-.94a.31.31 0 0 1 .57-.07zm-6.31 2.85l-1.65-1.82a.25.25 0 0 1 .18-.42q.94-.04 1.68.17a.67.66 12.5 0 1 .48.75l-.19 1.17a.29.29 0 0 1-.5.15z" class="C"/><path d="M419.41 97.2q.85 1.12-.35 1.35a1.1.93 40.3 0 1-.35 0q-12.37-1.95-24.81-4.02-.43-.07-.64-.44-.18-.32.12-.8l26.03 3.91z" class="B"/><path d="M218.26 94.61q.34.4.65.8a.3.3 0 0 1-.2.47q-1.02.12-1.46-.41-.45-.52-.17-1.5a.3.3 0 0 1 .51-.12q.33.36.67.76z" class="C"/><path d="M306.69 93.33l1.87.87a.05.05 0 0 1 .01.08l-13.83 12.57a.47.47 0 0 1-.67-.03l-.51-.57a1.12 1.11 47.7 0 1 .07-1.58l12.35-11.23a.65.65 0 0 1 .71-.11z" class="D"/><path d="M211.51 94.45q.49.58.28 1.74a.37.37 0 0 1-.57.24q-.01-.01-.86-1.01-.84-1-.85-1.01a.37.37 0 0 1 .33-.52q1.18-.01 1.67.56z" class="C"/><g class="B"><ellipse cx="0" cy="0" transform="matrix(-.941471 -.337095 .337095 -.941471 492.97 95.32)" rx="1.05" ry=".67"/><path d="M451 102.31q.14 1.29-.7 1.17-13.05-1.79-26.04-3.95-1.12-.19-1.05-.95-.04-.87 1.55-.62 13.22 2.03 26.24 4.35zm-226.2 16.11l-1.03-19.48q.31-.81 1.45-.52a.72.72 0 0 1 .55.67l.91 18.82a.43.38-32.3 0 1-.06.21q-.44.74-1.82.3zm254.64-11.62l3.93.76a.53.53 0 0 1 .42.64l-.11.52a.43.42 10.5 0 1-.49.33l-27.76-4.47a1.63 1.58-14.1 0 1-.99-.57q-.13-.17.28-1.16l24.72 3.95z"/></g><path d="M291.33 107.2q.08 2.1-2.65 2.47a.36.35 19.9 0 1-.29-.61l2.32-2.12a.37.37 0 0 1 .62.26z" class="C"/><g class="B"><ellipse cx="0" cy="0" transform="matrix(-.67816 -.734915 .734915 -.67816 282.08 110.61)" rx="1.93" ry="1.62"/><path d="M193.26 115.85l-15.97-3.39q-.48-.17-.81-.6a.78.78 0 0 1 .77-1.24q7.73 1.65 15.62 3.36.96.2.9 1.15-.04.59-.51.72z"/><ellipse cx="0" cy="0" transform="matrix(-.513541 -.858065 .858065 -.513541 162.43 113.73)" rx="1.56" ry="1.13"/></g><path d="M193.26 115.85q.17.68 1.01.52a1.44 1.44 0 0 1 .9.12q.6.29.92.01l17.16 3.61q2.21.45 2.28 2.85.15 5.89-.18 8.32-2.07.35-2.48 1.26l-16.33-3.58q-1.51-.94-1.75-.39l-17-3.82q-.45-.2-.93-.92a2.16 2.14 26.4 0 1-.35-1.03q-.27-3.84-.62-7.83-.08-.94.82-1.11.93-.17.58-1.4l15.97 3.39z" class="E"/><path d="M213.25 120.11l-17.16-3.61-.39-1.38a.38.38 0 0 1 .45-.47l17.02 3.68a.73.73 0 0 1 .5.38q.41.8-.42 1.4zm-18.46 8.46q.15.7.03 1a.59.58-72.4 0 1-.67.36l-16.46-3.71.1-1.47 17 3.82z" class="B"/><path d="M177.69 126.22l16.46 3.71a.59.58-72.4 0 0 .67-.36q.12-.3-.03-1 .24-.55 1.75.39c.03.9.18 1.65 1.18 1.89q8.24 1.98 16.33 3.81a.58.58 0 0 0 .69-.69q-.33-1.45-1.87-1.43.41-.91 2.48-1.26.33 3.68-.68 5.3l-37.6-8.61q.14-1.3.62-1.75z" class="D"/><g class="B"><ellipse cx="0" cy="0" transform="matrix(-.676876 -.736097 .736097 -.676876 230.15 128.69)" rx="1.82" ry="1.35"/><path d="M212.87 132.54q1.54-.02 1.87 1.43a.58.58 0 0 1-.69.69q-8.09-1.83-16.33-3.81c-1-.24-1.15-.99-1.18-1.89l16.33 3.58z"/></g></svg>