<?xml version="1.0" encoding="UTF-8" standalone="no"?>
<!-- Created with Inkscape (http://www.inkscape.org/) -->

<svg
   version="1.1"
   id="svg1"
   width="512"
   height="256"
   viewBox="0 0 512 256"
   xmlns="http://www.w3.org/2000/svg"
   xmlns:svg="http://www.w3.org/2000/svg"
   xmlns:rdf="http://www.w3.org/1999/02/22-rdf-syntax-ns#"
   xmlns:cc="http://creativecommons.org/ns#"
   xmlns:dc="http://purl.org/dc/elements/1.1/">
  <title
     id="title1">Kalpana-1 Icon SVG</title>
  <defs
     id="defs1" />
  <g
     id="g1">
    <path
       style="fill:currentColor"
       d="m 140.75,255.29427 c 3.14132,-0.60505 2.81335,-2.939 -0.5,-3.55815 -1.5125,-0.28264 -11.075,-0.23235 -21.25,0.11174 -19.173986,0.64841 -48.007819,0.45831 -51.5,-0.33955 -1.290749,-0.29489 -3.016889,-2.68245 -4.867501,-6.73262 C 61.055374,241.32406 59.01124,237.6 58.089979,236.5 c -0.92126,-1.1 -2.987794,-4.925 -4.592297,-8.5 -1.604502,-3.575 -3.437721,-7.175 -4.07382,-8 -0.636099,-0.825 -3.76011,-6 -6.942248,-11.5 -7.530247,-13.01526 -7.254317,-12.69201 -9.711497,-11.37697 -1.597747,0.85509 -2.565607,0.67355 -4.631213,-0.86865 -3.541131,-2.64383 -3.854886,-6.85786 -0.57195,-7.68183 C 28.905129,188.23669 30,187.6065 30,187.17212 c 0,-0.43438 -1.473636,-3.2383 -3.274748,-6.23095 C 21.095104,171.58637 10.314213,149.65266 9.6633425,146.22873 9.3213246,144.42953 7.9073014,141.73429 6.5210686,140.2393 2.9283701,136.36473 -1.7016737,125.83027 0.89286606,127.43379 1.5017897,127.81012 2,127.62852 2,127.03022 2,125.84793 35.925626,57.695074 49.802628,31 54.52012,21.925 59.081911,13.968782 59.939943,13.319516 c 1.118901,-0.846665 12.504057,-1.270838 40.261227,-1.5 26.82347,-0.221454 39.04433,-0.663039 39.8193,-1.438817 1.23289,-1.2341794 1.78685,-3.4554526 1.90302,-7.630699 0.0729,-2.61880882 0.31233,-2.75 5.01981,-2.75 3.97464,0 5.24833,0.43550606 6.5,2.2225062 1.98521,2.8342917 1.97851,5.1825303 -0.0195,6.840747 -1.30624,1.0840898 -1.73443,1.0622428 -2.5,-0.1275553 C 150.12608,7.6959398 149.86561,7.7047156 149.01531,9 c -1.65459,2.520478 -1.24645,2.750896 5.73469,3.237553 10.96125,0.764112 27.08804,-0.956992 32.22346,-3.438992 4.38157,-2.1176571 4.63466,-2.1287308 12.32215,-0.5391295 7.27943,1.5052236 8.15173,1.9642065 12.02655,6.3281055 4.99663,5.627308 6.58886,8.235974 6.66052,10.912463 0.0295,1.1 1.3954,4.434396 3.03544,7.409769 C 222.65815,35.885142 224,38.740188 224,39.254316 224,40.717897 233.15899,54 234.16824,54 c 0.49617,0 0.43791,-0.867401 -0.12947,-1.927558 -1.23164,-2.301348 -0.63988,-4.215952 1.76782,-5.719581 2.32882,-1.454374 7.72706,1.078134 10.60496,4.975169 2.06085,2.790659 2.0628,2.846821 0.14732,4.25 C 245.49125,56.360113 243.8555,57 242.92388,57 c -0.93162,0 -2.45168,1.156577 -3.3779,2.570172 -1.58128,2.41334 -1.57894,2.730576 0.0384,5.198879 1.18303,1.80553 1.36122,2.749098 0.56903,3.013161 C 238.24874,68.417087 238.85301,70 241,70 c 1.27733,0 2,0.666667 2,1.845012 0,1.014757 0.9,2.659502 2,3.654988 1.1,0.995486 2,2.176825 2,2.625197 0,0.448373 2.21505,4.091128 4.92233,8.095013 2.70728,4.003884 6.46626,10.20479 8.35329,13.77979 7.78674,14.75206 10.9507,20.53439 11.5701,21.1451 0.35985,0.35481 8.18759,0.96503 17.39497,1.35605 15.65264,0.66473 16.78622,0.5923 17.44115,-1.11443 0.38525,-1.00394 3.36686,-6.56416 6.62579,-12.35604 3.25893,-5.79187 6.92286,-12.33068 8.14205,-14.53068 5.6666,-10.225194 20.11642,-34.335075 22.32511,-37.25 2.27397,-3.001073 5.25194,-4.7203 3.62972,-2.095492 -0.45075,0.729323 -0.27336,0.882471 0.48166,0.415844 0.65735,-0.406266 0.95686,-1.488295 0.66557,-2.404509 -0.45705,-1.437585 0.46228,-1.694902 6.70932,-1.877914 C 359.24248,51.17129 375.1,50.650648 390.5,50.130947 c 15.4,-0.519702 48.7925,-1.279247 74.20555,-1.68788 41.11271,-0.661076 46.25278,-0.919327 46.634,-2.343017 C 511.5752,45.220022 511.71794,60.025 511.65676,79 L 511.54553,113.5 511.02277,84 510.5,54.5 l -2.25,4.565724 c -1.2375,2.511149 -2.25,5.596794 -2.25,6.856989 0,1.539415 -0.4537,2.117163 -1.38266,1.760688 -0.9015,-0.345936 -2.35957,1.269829 -4.18988,4.643011 -1.54396,2.845474 -4.07078,7.172638 -5.61515,9.615922 -2.11185,3.341082 -2.49861,4.64256 -1.56012,5.250025 0.89159,0.577117 0.64029,0.974617 -0.88029,1.392421 -1.17046,0.3216 -2.65077,1.559089 -3.2896,2.749974 -3.97977,7.41907 -6.32636,10.372336 -8.59278,10.814346 -1.51045,0.29458 -1.91209,1.04573 -1.66795,3.11945 0.17686,1.5023 -0.11851,2.73145 -0.65638,2.73145 -0.53788,0 -0.7426,0.9 -0.45494,2 0.35508,1.35782 0.0307,2 -1.01029,2 -0.84331,0 -1.76153,0.5625 -2.0405,1.25 -0.38169,0.94068 -0.76971,0.87881 -1.56802,-0.25 -0.80487,-1.13809 -1.06451,-0.25056 -1.07613,3.67857 -0.008,2.84822 -0.57781,5.79062 -1.26531,6.53867 -0.6875,0.74805 -1.73375,2.2427 -2.32501,3.32143 -2.75338,5.02347 -16.33143,29.23791 -19.76274,35.24391 -2.11077,3.69458 -5.00337,8.96742 -6.428,11.71742 -1.42464,2.75 -3.45664,6.25975 -4.51556,7.79945 -1.92932,2.80529 -6.89678,11.53535 -13.48576,23.70055 -1.93631,3.575 -4.13085,7.21043 -4.87675,8.07874 -0.7459,0.86831 -1.35618,2.08998 -1.35618,2.71482 0,3.13059 -4.33729,3.30512 -77.49196,3.11809 -66.54339,-0.17012 -73.67241,-0.034 -75.93769,1.4503 -3.62388,2.37445 -5.21401,2.06394 -10.15205,-1.98241 C 251.98823,216.38828 250,215.22876 250,215.80281 250,217.13092 245.09726,223 243.98783,223 c -0.45891,0 -2.23791,-1.18099 -3.95334,-2.62443 -1.71543,-1.44344 -3.27003,-2.45594 -3.45468,-2.25 -1.31882,1.47091 -15.52791,25.13554 -16.0164,26.67463 -0.33796,1.06482 -1.55009,2.78288 -2.69364,3.81792 -1.92504,1.74238 -4.4249,1.90772 -33.72447,2.2305 -29.55101,0.32554 -31.76369,0.47445 -33.43426,2.25 -1.73416,1.84315 -1.69843,1.90138 1.16667,1.90138 1.62559,0 3.18386,-0.5625 3.46283,-1.25 0.39389,-0.97076 0.69912,-0.98016 1.36633,-0.0421 0.52775,0.742 4.31782,1.33768 9.82613,1.54437 4.93185,0.18505 0.642,0.36771 -9.533,0.40591 -10.175,0.0382 -17.4875,-0.12556 -16.25,-0.36391 z M 77.969374,222.5 c 0,-0.55 -0.436218,-0.325 -0.969374,0.5 -0.533156,0.825 -0.969374,1.95 -0.969374,2.5 0,0.55 0.436218,0.325 0.969374,-0.5 0.533156,-0.825 0.969374,-1.95 0.969374,-2.5 z M 246.91971,218 c 1.12265,-2.35727 1.10183,-2.38918 -0.36454,-0.55887 -0.85535,1.06762 -1.55517,2.38012 -1.55517,2.91667 0,1.27054 0.4619,0.70323 1.91971,-2.3578 z M 89,203.55902 c 0,-0.24254 -0.45,-0.7191 -1,-1.05902 -0.55,-0.33992 -1,-0.14148 -1,0.44098 0,0.58246 0.45,1.05902 1,1.05902 0.55,0 1,-0.19844 1,-0.44098 z M 263.49911,193 c 1.49005,0 2.46524,-1.01249 3.36093,-3.4895 0.69401,-1.91923 1.81332,-4.05673 2.48738,-4.75 1.22678,-1.26177 4.05542,-6.14615 11.1541,-19.2605 2.08397,-3.85 4.23779,-7.57337 4.78626,-8.27417 1.38359,-1.76783 0.90937,-1.99104 -4.78778,-2.25354 -7.66059,-0.35297 -8.23363,-0.17522 -8.95477,2.77771 -0.36937,1.5125 -1.76816,4.4375 -3.10841,6.5 C 259.9338,177.33521 256,184.39433 256,186.5676 c 0,0.82315 0.68533,3.13686 1.52295,5.14157 1.16802,2.79546 1.79727,3.37061 2.7,2.46788 C 260.87033,193.52967 262.3446,193 263.49911,193 Z M 72.124088,176.73333 c -0.987616,-0.98026 -1.10248,-0.8654 -0.559795,0.5598 0.375531,0.98622 0.934692,1.54122 1.242579,1.23333 0.307887,-0.30789 6.34e-4,-1.11479 -0.682784,-1.79313 z m 208.257472,-4.28527 c 0.34149,-0.88992 0.17385,-1.29132 -0.39301,-0.94098 -0.5437,0.33602 -0.98855,1.0344 -0.98855,1.55194 0,1.43843 0.71677,1.12146 1.38156,-0.61096 z m 1.30155,-4.63556 c -0.31922,-0.79773 -0.55618,-0.56078 -0.60416,0.60417 -0.0434,1.05416 0.19293,1.64479 0.52522,1.3125 0.33229,-0.3323 0.36781,-1.1948 0.0789,-1.91667 z m 1.80004,-27.77926 C 286.69926,133.68657 286.64866,133 282.96482,133 c -2.69092,0 -2.91777,0.21939 -2,1.93426 1.51377,2.82851 1.32302,6.39017 -0.3087,5.76402 -0.96255,-0.36936 -1.21322,0.16777 -0.88342,1.89302 0.25325,1.32478 0.62541,2.4087 0.82703,2.4087 0.20162,0 1.49916,-2.23504 2.88342,-4.96676 z M 490.25,49.294267 c -1.2375,-0.238353 -3.2625,-0.238353 -4.5,0 -1.2375,0.238353 -0.225,0.433369 2.25,0.433369 2.475,0 3.4875,-0.195016 2.25,-0.433369 z m 7.47917,0.101566 c -0.33229,-0.332291 -1.1948,-0.367818 -1.91667,-0.07895 -0.79773,0.319226 -0.56078,0.556183 0.60417,0.604167 1.05416,0.04342 1.64479,-0.192928 1.3125,-0.52522 z m 12,0 c -0.33229,-0.332291 -1.1948,-0.367818 -1.91667,-0.07895 -0.79773,0.319226 -0.56078,0.556183 0.60417,0.604167 1.05416,0.04342 1.64479,-0.192928 1.3125,-0.52522 z M 491.5,251.469 c -3.05608,-2.50503 -2.83233,-3.25241 0.44809,-1.49678 0.99914,0.53472 2.08043,1.65972 2.40288,2.5 0.74372,1.9381 0.73258,1.93419 -2.85097,-1.00322 z M 505,231 c 0.825,-0.53316 1.95,-0.96937 2.5,-0.96937 0.55,0 0.325,0.43621 -0.5,0.96937 -0.825,0.53316 -1.95,0.96937 -2.5,0.96937 -0.55,0 -0.325,-0.43621 0.5,-0.96937 z m -27.5,-27 c 0.33992,-0.55 0.81648,-1 1.05902,-1 0.24254,0 0.44098,0.45 0.44098,1 0,0.55 -0.47656,1 -1.05902,1 -0.58246,0 -0.7809,-0.45 -0.44098,-1 z m 33.732,-8 c 0,-1.925 0.2058,-2.7125 0.45733,-1.75 0.25152,0.9625 0.25152,2.5375 0,3.5 -0.25153,0.9625 -0.45733,0.175 -0.45733,-1.75 z M 0.19494872,137.5 c 0.0203797,-1.65 0.24449859,-2.20394 0.498042,-1.23097 0.25354341,0.97297 0.23686912,2.32297 -0.037054,3 C 0.38201364,139.94606 0.17456903,139.15 0.19494872,137.5 Z M 349.67013,49.582759 c -0.29911,-0.779483 0.12611,-1.674328 0.94495,-1.988546 0.84014,-0.32239 1.22261,-0.140601 0.87784,0.417241 C 351.13405,48.592119 352.35044,49 354.44098,49 356.39844,49 358,49.45 358,50 c 0,1.597225 -7.70494,1.211286 -8.32987,-0.417241 z"
       id="path1" />
  </g>
  <metadata
     id="metadata1">
    <rdf:RDF>
      <cc:Work
         rdf:about="">
        <dc:title>Kalpana-1 Icon SVG</dc:title>
        <dc:source>https://space.skyrocket.de/php/resize-img.php?pth=0&amp;img=metsat-1__1.jpg</dc:source>
      </cc:Work>
    </rdf:RDF>
  </metadata>
</svg>
