<svg xmlns="http://www.w3.org/2000/svg" baseProfile="tiny" width="512" height="256" xmlns:v="https://vecta.io/nano"><style><![CDATA[.B{fill:#3e3844}.C{fill:#a8b7d9}.D{fill:#ebb010}.E{fill:#f7f6fc}]]></style><path d="M150.38 0q2.51 1.93 3.94 4.58a1.94 1.94 0 0 1 .19 1.33q-1.02 4.77-3.52 2.45 3.56-1.76 1.08-4.73-3.12-3.74-7.82-2.95a1.52 1.51 71.8 0 0-1.1 2.18q1.39 2.77 4.11 4.38l.95.9a.72.7-56.1 0 1 .15.83q-.56 1.19-.62 1.33a1.86 1.77 81.8 0 0 2.79 2.2q.77-.69 2.27-.09c2.47.98 5.16.42 7.31 1.34a1.95 1.95 0 0 0 1.23.09q5.71-1.46 12.78-.83.53.04 1.02-.21.54-.28.84-.63l1.56 3.36a1.29 1.29 0 0 0 2.3.07l.27-.5a.77.77 0 0 1 1.44.47l-.59 4.3a.98.95-63.5 0 0 .25.79q2.01 2.1-.52 4.06a.9.89 81.5 0 0-.3.41l-3.36 9.81-13.28-2.23a2.93 2.93 0 0 0-.9 0l-7.95 1.34a.85.85 0 0 0-.61 1.25q2 3.59 2.37 6.96a.58.58 0 0 1-1.07.37l-4.66-7.27a1.34 1.31-17.3 0 0-1.19-.61q-1.08.04-2.76.98a2.61 2.53 25.3 0 1-.88.3q-10.67 1.74-15.14 9.28-6.22 10.5-1.59 21.5a1.71 1.71 0 0 0 1.58 1.05h30.71a.94.94 0 0 0 .94-.94v-5.71a.1.1 0 0 1 .18-.06q.11.12.08.36-.32 3.26.73 7.22a1.2 1.19-7.3 0 1-1.16 1.49h-30.12a.94.94 0 0 0-.83 1.38q5.78 11.01 14.84 18.38 2.99 2.43 9.11 5.7c6.79 3.63 9.73 5.27 15.77 7.62a.17.17 0 0 1 .09.2h-.01a.14.14 0 0 1-.18.09q-.96-.33-1.13-.27a.96.96 0 0 0-.15 1.75q8.68 4.79 18.43 4.27a3.15 3.14-34.1 0 1 1.47.28q1.59.71 3.49-1.25a.7.67-27.4 0 0 .19-.56l-.18-1.35a.39.39 0 0 1 .57-.39c2.52 1.36 9.13-.21 11.98-1.01q3-.83 5.46-2.72a.64.63-55.3 0 0-.2-1.11c-1.76-.54-1.41-2.67-1.42-4.79a2.97 2.96-54.9 0 0-.17-.99c-3.02-8.48-1.21-15.63.66-24.09a.53.52 4.2 0 1 .49-.42q4.89-.23 8.83 2.08a.3.3 0 0 0 .44-.32q-.42-1.85-1.57-3.62a.99.98-16.2 0 0-.83-.45h-11.85a.75.74-85.9 0 1-.73-.85l.04-.31a.92.92 0 0 1 .91-.79h9.77a.77.77 0 0 0 .61-1.25q-5.5-6.93-7.56-9.43-.78-.94-1.84-1.62a.25.25 0 0 0-.38.22l.26 5.6q-.34-4.28-1.56-7.02-.4-2.45-2.32-4.24a.98.97 47.8 0 1 .07-1.49q1.95-1.48 3.64-4.65a.34.34 0 0 1 .62.05q.06.15-.2.63-.32.6.33.99.22.13.56-.02a.76.75-29.3 0 1 .91.25q.95 1.28 1.72 1.18a.83.83 0 0 1 .85.44q.24.48.56.63 6.77 3.05 14.33 8.17a3.32 3.32 0 0 0 .84.42q2.64.92 4.75 3.16a.06.05-49.7 0 1 0 .07q-.01.01-.1.01a.11.09-35.9 0 0-.05.2q.87.07 1.48.48a.65.64-57.7 0 0 .92-.21q1.69-2.9 1.36-5.71-3.35-5.27 1.58-7.28a1.59 1.54 38.7 0 1 .85-.08q5.24 1.01 8.22 4.98c2.91 3.89-.57 5.37-3.81 4.79a1.94 1.92-76.7 0 0-2.18 1.37q-.64 2.17-2.15 3.59a1.62 1.61-36.6 0 0-.3 1.99l2.71 4.68a.3.3 0 0 1-.22.44l-1.54.2-7.07-.1a1.75 1.74-26.5 0 0-1.06 3.15q.84.62 2.12.91a2.6 2.55-20 0 1 1.03.47q5.77 4.22 12.89 6.52 1.81 3.23 4.54 6.09a1.35 1.14 13.5 0 1 .14.19l8.72 14.52a3 3 0 0 1 .31.7c.63 1.9.84 2.73 1.97 4.33q.88 1.25 1.25 2.5a3.47 3.46-72.4 0 0 .61 1.18q4.09 5.24 6.31 11.93l-.02 2.57q-.29 1.42 1 1.72a.92.92 0 0 0 1.11-1q-.1-.84.7-1.25 2.63 5.9 6.43 10.09 2.05 3.86 1.58 7.44a.37.37 0 0 1-.6.25q-.49-.37-.61-1.23a.47.47 0 0 0-.94.06l-.03 3.06q-2.19-.34-2.31 1.56-.32 5.1-2.68 8.09a1.57 1.48 69.7 0 0-.3.71q-.09.64.14 1.03c-.85.28-1.58.71-1.92 1.58-1.43 3.7-2.39 7.06-5.13 10.11a5.92 5.9 77.6 0 0-1.06 1.66c-.95 2.18-1.2 3.33-2.69 4.95-2.25 2.46-2.65 5.71-4.99 7.98a1.82 1.74-16.3 0 0-.49.85q-.52 2.19-1.49 3.19c-1.8 1.85.21 6.01.99 8.17q-.22.5.28.75l.43 1.54q-.36 1.73.22 3.11a.57.57 0 0 0 1.04.02q.64-1.39 2-2.43a2 1.97-65.4 0 1 1.08-.41q2.99-.24 6.04-.47 1.6-.12 2.52-1.15a.95.95 0 0 1 1.61.33q.39 1.17.48 1.24a2.55 2.55 0 0 1 .91 1.84q.2 4.87-1.23 8.4-.58 1.42-2.99 3.4a1.31 1.29-65.1 0 1-.8.3q-1.16.01-1.51-.26a.78.78 0 0 0-1.27.66q.36 5.16-1.39 9.95-.67 1.32-2.26 2.34a2.08 2.03-62.7 0 1-.93.31q-2.18.17-3.71-1.2-4.86-4.34-7.2-6.2.56-1.01.25-2.55a1.15 1.12 6.8 0 0-.63-.78q-1.44-.65-2.83-1.9-6.09-5.42-10.25-9.81-.67-.72-1.01-.63a.24.24 0 0 1-.3-.26l.2-2.2a.88.88 0 0 0-1.4-.78q-1.01.77-1.99 2.54-3.46 6.29-3.75 6.7a.99.98 52.9 0 0-.12.91q1.63 4.61 2.47 5.27 3.91 3.08 5.99 6.11-2.62 3.95-5.15 7.75-2.46 3.7-4.83 7.94-3.34 5.98-4.88 7.87c-2.17 2.64-2.21 6.36-5.49 8.67a2.28 2.22 26.8 0 1-1.3.41c-5.96-.07-11.85.66-18.43.68q-28.46.08-44.8.05a1.23 1.23 0 0 0-1.2.95q-.54 2.34-2.15 2.74a.52.52 0 0 0-.3.8q.25.35.87.53a.27.27 0 0 1 .07.49l-.37.23h-4.19q-1.67-.93-1.39-3.54a.65.65 0 0 0-.41-.68q-1.97-.8-3.01-.81-11.41-.08-24-.03-2.2.01-4.32.58.16-1.04-.87-1.03-3.74.02-4.56-.11a.54.53 2 0 1-.46-.49q-.04-.72-.85-.79-9.4-.82-10.91-.94a3.25 3.18 41.2 0 0-.91.05q-6.18 1.13-11.84.23c-1.13-.18-1.94-.89-2.88-.87a1.05 1.03 19.6 0 0-.8.37c-1.32 1.53-3.34.69-4.96.8q-2.17.15-3.78.38a.63.62-19 0 1-.63-.3q-8-13.37-14.83-26.52-.39-.75-.9-.94-.67-.26-1.18.37l-15.76-25.85a.9.89 51.9 0 0-1.39-.17q-3.22 3.2-7.13-.47-1.91-1.79-.31-4.13.68-1.02.26-1.48 2.39-.68 3.39-2.38a.95.95 0 0 0 .04-.88q-3.01-6.39-6.54-11.2-.48-.67-2.19-4.65-.85-1.99-2.34-4.62-4.97-8.81-7.13-13.62-1.68-3.75-2.93-10.82a.74.72 85.1 0 0-.7-.6q-.02 0-.06.01a.36.36 0 0 1-.46-.36q.07-1.44-1.16-1.45c-2.26-.01-4.07-5.15-4.77-7.2q-.9-2.66.66-5.58 1.52 4.36 2.63 8.64.38 1.46 1.63 3.32a.62.61 18.1 0 0 1.09-.55l-4.79-12.94q1.31-2.89 2.71-5.71 24.29-49.17 46.65-92.57 3.23-6.26 6.26-11.7a3.42 3.41 14.1 0 1 2.93-1.75l9.88-.12.67-.06q18.15-.05 36.29-.39.39 0 1.27.27a1.63 1.59 45.6 0 0 .96.02q3-.85 5.43-.39 1.9 4.35 6.99 5a.64.64 0 0 0 .48-1.14l-4.92-3.95 11.8-.01c-.41 2.5 2.36 5.05 4.02 6.68a.97.97 0 0 1-.84 1.65q-.46-.08-1.8.18-.64.13-.86 1.58-.23 1.56-.78 2.03a3.72 3.03 41.9 0 1-4.2-.2q-3.04-2.23-4.74-3.16a1.47 1.44 57.6 0 0-.72-.17l-6.73.21a1.51 1.4-33.3 0 1-.48-.08l-2.22-.8a.65.64-49.7 0 0-.56.05q-.72.44-1.25-.39a.45.44 25.8 0 1-.08-.22l-.28-2.74a.48.48 0 0 0-.87-.22c-1.54 2.29-3.49 2.33-6.53 3.45q-1.19.45-1.54 1.32a1.13.97 12.1 0 0 1.02 1.34q3.07.26 5.65 2.27a.72.72 0 0 0 1.16-.57V22a.52.52 0 0 1 .96-.27q2.7 4.42 1.98 10.03-.45 3.56-1.39 9.06a1.31 1.3-10.7 0 1-.63.91l-1.17.67a.76.76 0 0 0 .19 1.4q1.22.32 1.71 1.15a.26.26 0 0 0 .47-.05q0-.01-.25-1.41a1.92 1.86-41.9 0 1 .07-.99q1.88-5.58 1.84-12.45a.98.97-3.7 0 1 .85-.96l.42-.05a.69.68 86.3 0 1 .77.68v8.63a.35.34 56.8 0 0 .66.14q1.28-3 .92-4.46-1.08-4.49.97-7.13a.95.95 0 0 0-1.23-1.41q-1.58.91-2.95-.03a.61.61 0 0 1 .36-1.11q1.56.05 3.44-.37a3.84 3.38-20.6 0 1 3.93 1.49q.25.4.92.61.51.16 1.21.02 3.56-.73 6.99 1.59a.91.91 0 0 0 .92.06q2.33-1.2 3.25-3.86a1.6 1.56-15.8 0 1 .31-.54q1.05-1.22 2.24-1.47a.84.84 0 0 1 .98.58l.02.08a.76.76 0 0 1-.52.95q-1.97.59-2.05 2.2a1 .92-31.4 0 1-.12.42l-2.1 3.66a1.62 1.58-30.9 0 0-.21.79v.98a.41.41 0 0 1-.38.41q-.38.04-.53-.39a.62.61-9.3 0 0-.58-.41h-1.83a.5.5 0 0 1-.36-.85q.66-.69.65-1.21a.67.65-78.8 0 0-.38-.59q-4.1-1.96-7.93-.98-.32.09-1.93-.55a.59.59 0 0 0-.78.35q-1.28 3.51.61 6.05 2.82 3.78 6.77 7.14a1.54 1.53-39.6 0 0 1.76.16l6.11-3.53a3.2 3.19 75.1 0 0 1.6-2.77v-4.99a2.36 2.35 75 0 1 1.17-2.04l2.81-1.61a1.2 1.2 0 0 1 1.19-.02l.22.12a.63.63 0 0 1 .08 1.06q-2.51 1.85-2.61 4.95a.32.32 0 0 0 .52.26q.36-.29.39-.92.03-.52.77-1.18.9-.78 1.75-1.46a1.36 1.34-13.8 0 0 .47-.76c.32-1.37 1.98-5.5 3.99-4.64a.9.84-47 0 1 0 1.56q-1.73 1.01-1.51 3.04a.72.7 2.2 0 0 .6.63q4.04.65 6.53-2.15a.72.72 0 0 0 .09-.84q-1.62-2.9-3.21-4.21a1.73 1.7-25.2 0 0-1.08-.38q-5.03.03-9.77-2.42a2.02 2-6.6 0 1-.56-.44l-4.82-5.6c2.32-.36 4.2-.8 6.69-.78 3.23.02 3.59-4.21 4.48-6.61a1.73 1.65-41.6 0 0 .08-.95l-.8-3.99h8.22zM50.23 53.06q-2.69 6.73-6.11 11.58a3.72 3.71-42.2 0 0-.2 3.96l19.3 34.39a1.89.82 50.7 0 0 .13.22l7.39 10.93a.59.57 70.1 0 0 .51.25q.88-.07 1.3-1.1Q77.21 102.07 84 91.6a1.18 1.17 46.4 0 0 .03-1.24L57.11 43.74a.85.85 0 0 0-1.55.15q-1.36 4.05-4.86 8.37a3.35 3.04 78.2 0 0-.47.8zm185.086-4.391a5.55 3.11-151 0 0 3.346 5.411 5.55 3.11-151 0 0 6.362-.029 5.55 3.11-151 0 0-3.346-5.411 5.55 3.11-151 0 0-6.362.029zM227.16 63.59l-3.63-4.22a.46.46 0 0 1 .45-.74q1.4.31 1.9.23a.7.7 0 0 0 .29-1.27l-8.99-6.08a.36.35 72.6 0 0-.11-.06q-2.2-1.02-5.07-3.12a.39.39 0 0 0-.6.44l.32.93a1.09 1.08 10.1 0 0 .33.47l8 6.88a3.09 3.07 7.5 0 1 .77 1q1.6 3.28 4.54 5.72.28.23 1.34 1.72.54.77 1.73 1.37a.16.16 0 0 0 .22-.19l-.56-1.6a.63.6-86.4 0 0-.28-.33q-.7-.4-.6-.97a.22.21 31 0 0-.05-.18zm-117.587-3.748a5.64 3.02-146.2 0 0 3.007 5.647 5.64 3.02-146.2 0 0 6.367.628 5.64 3.02-146.2 0 0-3.007-5.647 5.64 3.02-146.2 0 0-6.367-.628zM96.63 71.22a1.74 1.71 32.3 0 0 .28 1.2l5.6 8.28a.68.67-12.8 0 0 .48.3l9.08 1.25a1.53 1.52-71.3 0 0 1.53-.76l.29-.5a.64.64 0 0 0-.47-.95l-9.37-1.29a1.21 1.18-10.4 0 1-.89-.6q-1.08-1.97-2.47-3-.01-.01-.02-.02l-3.02-5.23a.46.46 0 0 0-.86.16l-.16 1.16zM30.38 82.66q-.58 2.66.35 4.9.81 1.94-.24 3.73c-2.19 3.72-4.67 7.86-6.22 12.19q-.96 2.72-2.49 4.28a1.71 1.48 85.9 0 0-.18.24l-7.16 13.44a1.59 1.57 44 0 0 .04 1.57c4.32 7.28 5.81 10.13 8.76 14.31q1.8 2.56 2.54 5.21a.93.83-72.6 0 0 .13.29l3.68 5.45a1.3 1.26-68.2 0 1 .19.46c.35 1.92 1.6 2.91 2.49 4.39q6.39 10.59 7.34 12.24c.83 1.45.97 2.27 1.49 3.35a.46.46 0 0 0 .76.1q1.35-1.62 1.88-2.59 7.58-13.83 16.06-29.83a2.88 2.86 44.4 0 0-.04-2.75L33.54 88.62c-1.06-1.89-1.71-3.87-2.37-5.99a.41.41 0 0 0-.79.03zm167.755 27.922a7.11 3.9-153.9 0 0 4.669 6.63 7.11 3.9-153.9 0 0 8.101-.374 7.11 3.9-153.9 0 0-4.669-6.63 7.11 3.9-153.9 0 0-8.101.374zM95.02 158.84q-1.91.08-3.83 1.58-.2 2.15 1.37 3.13c1.07.66 2.16-.13 3.11 1.11a1.07 1.06 41.1 0 1 .08 1.15l-1.5 2.79a.99.99 0 0 0 1.52 1.21q1.02-.89 2.01-2.83 2.13-4.2 3.2-7.09a.5.5 0 0 1 .71-.27l.08.13a1.07 1.06-47.9 0 1 .05 1.03l-1.85 3.78a.15.14-59.2 0 0 .04.18l.01.01a.12.11-59.9 0 0 .15-.05q1.77-3.11 2.53-5.76a1.38 1.09-76.1 0 0-.76-1.68q-1.41-.26-1.71-2.2-.64-4.12.97-8.11a2.24 2.19-34.3 0 0 .17-.85q0-.06 3.41-19.13c.55-3.08 1.86-5.81 1.8-8.85-.03-1.83.7-4.08 1.01-6.14a1.66 1.65 4.2 0 0-1.64-1.89h-3.94a2.57 2.56 2.2 0 0-2.56 2.37c-.59 7.72-1.35 11.42-1.52 18.34q-.13 4.9-1.53 9.5-.21.68.81 2.29a1.35 1.31 34.3 0 1 .19.92q-.85 5.11-.31 11.73.18 2.29-2.07 3.6zm-8.3 58q-1.45 3.14 2.12 4.09a.59.58-44.7 0 1-.01 1.13l-1.3.35a1.02 1 12.6 0 0-.53.33q-4.97 5.78-6.21 13.88a.77.76-11.1 0 0 1.15.77q.11-.07.38-.54 1.57-2.76 6.55-12.78a2.53 2.25 83.2 0 1 .43-.62q1.91-1.97 2.64-4.86a3.75 3.59 68.2 0 1 .35-.87l7.54-13.15a1.86 1.85 34.5 0 0-.45-2.37q-2.91-2.34-2.71-4.79a2.76 2.71-60.7 0 0-.48-1.76q-3.31-4.67-8.48-7.27a1.67 1.66-87.2 0 1-.8-.89q-.6-1.6-1.99-3.23a1.69 1.64-6 0 0-.56-.44q-.91-.44-1.41-1.52a.22.22 0 0 0-.4-.01l-.36.65a1.07 1.07 0 0 0 .11 1.17q1.9 2.4 3.17 3.62c.73.71.66 1.32.63 2.42a2.01 1.98-60 0 0 .27 1.04l4.86 8.42a.54.54 0 0 1-.83.68q-2.56-2.27-2.5-.04-8.77-14.8-17.21-29.92-.98-1.75-2.58-3.66a.72.72 0 0 1 .9-1.09l2.07 1.11a.76.76 0 0 0 .96-.19q1.63-2 2.02-2.7 15.88-28.87 18.07-32.71a1.61 1.61 0 0 0-.01-1.61l-7.06-12.24a1.14 1.14 0 0 0-1.99.03l-24.6 45.58a.93.92-44.7 0 0-.01.86l4.52 8.78a.7.69-44.6 0 1-.01.64l-16.46 30.51a1.23 1.22-46.3 0 0 .02 1.22l5.79 9.81a1.24.8 19 0 0 .18.23q1.66 1.68.91 3.73a.56.56 0 0 0 .28.69c3.17 1.57 4.4 5.51 6.33 8.97.7 1.25.89 3.2 1.75 3.99 1.15 1.04 1.25 3.08 2.76 4.21a1.55 1.54 9.4 0 1 .51.71q.71 2.09 3.11 4.55a1.47 1.47 0 0 0 2.35-.32l3.07-5.7a.93.93 0 0 1 .67-.47q3.87-.6 4.57-5.27a.61.6 26.7 0 0-.18-.53q-.25-.25-.43-.16a.62.55-87.1 0 1-.69-.86q2.05-4.28 4.92-9.79.98-1.89 2.28-3.16a.39.39 0 0 1 .66.28v.34a.68.65-67.7 0 0 .18.46q.44.45 1.17.27zm98.73-93.96q-.09.01-.63-.12a.14.14 0 0 1 0-.27q.22-.05.35-.54a.27.27 0 0 0-.2-.33q-1.73-.37-3.23-1.41a.51.5.5 0 0-.71.69l.87 1.29a1.14 1.12 29 0 1 .18.61v1.9a1.5 1.44 28.8 0 0 .26.83l5.3 7.84a1.88 1.85-16.7 0 0 1.55.82h.52a.8.8 0 0 0 .64-1.29l-6.73-8.89a.69.69 0 0 1 .42-1.09q.53-.11 1.41-.04zm5.49 13.21q-.25.98-1.1 1.33a.79.79 0 0 0-.43 1.05l.03.06a.67.67 0 0 0 .93.33q2.57-1.33 3.88-1.21 3.42.32 6.48-.2a2.76 2.59 42.5 0 1 .83-.01l2.38.33a1.22 1.2 15.4 0 0 1.27-.71l.19-.43a.88.88 0 0 0-.81-1.24h-12.74a.94.93 7.1 0 0-.91.7zm25.61 14.17q-2.7-.88-4.6-1.34-.89-.21-2.56-1.98-.62-.66-.5-2.06a1.47 1.41-2.8 0 0-1.71-1.49q-2.43.41-5.47-.17a.93.92-1.4 0 1-.73-.69q-.11-.45.53-1.3a.45.45 0 0 0-.51-.7l-8.09 2.83a1.21 1.2 39.2 0 0 .24 2.33l1.94.27a.83.83 0 0 0 .8-.36l1.19-1.77a.73.72-24.2 0 1 1.32.5l-.15 1.07a.45.45 0 0 0 .47.51q2.38-.11 3.52-.72c1.01-.53 3.29-.3 4.04-.13a1.18 1.16 80.8 0 1 .76.56q1.85 3.27 1.63 7.65-.12 2.37.05 4.98a1.42 1.41-3.5 0 0 1.5 1.32q3.37-.19 5.89.58a.36.35-1.6 0 0 .44-.46q-.02-.04-1.95-1.37a1.31 1.3 21.3 0 1-.56-1.27l.57-4.14a1.01 1-15.2 0 1 .4-.69l1.66-1.26a.4.4 0 0 0-.12-.7zm8.05 11.89l2.97 1.6a.89.88 22.9 0 0 1.27-.51l.43-1.38a.87.85-47.4 0 0-.02-.57l-1.96-4.79a1.37 1.35.7 0 0-.72-.73q-1.32-.55-2.29.34c-2.03 1.84-.8 3.94.11 5.82a.54.51 2.9 0 0 .21.22zm-43.3 7.36q-.21-.4-.8-.53c.78-1.06 2.38-1.61 2.65-3.35a.5.5 0 0 0-.49-.58c-3.16-.05-2.53-3.38-2.23-5.81a.84.84 0 0 0-1.5-.6l-3.66 4.91a2.27 2.25-18.3 0 0-.32.63q-1.09 3.5-.65 7.23a5.54 5.4 48.4 0 1-.08 1.74q-1.13 5.46 1.46 3.14-.05 3.49 1.67 5.84-3.81-1.52-2.23 4.45.39 1.5 1.17 2.97 1.19 2.29 1.59 2.92a.69.69 0 0 0 1.26-.27c.39-2.52.93-4.77-.58-6.44a.3.29 42.3 0 1-.02-.35l.19-.29a.2.2 0 0 1 .31-.02l1.17 1.35q.43 1.76-.42 3.25a1.12.99-33.4 0 0-.14.52v2.9a.57.57 0 0 1-.88.47l-.36-.24a.31.31 0 0 0-.47.36q.27.81 1.26 1.64 5.44 6.41 14.1 8.1 12.21 2.39 24.31-1.09a6.18 6.1 22.2 0 0 1.26-.52q2.61-1.43 6.71-3 1.27-.49 5.97-4.17a3.01 3.01 0 0 0 .82-1q.85-1.66 2.44-2.88a1.86 1.73 85.9 0 0 .53-.66q2.58-5.63 2.8-7.05.59-3.9-.76-8.41a2.66 2.6 19.3 0 0-.41-.83q-3.31-4.5-7.38-7.41c-5.92-3.61-11.38-4.53-18.46-5.29a1.6 1.52-20.9 0 1-.84-.35q-1.59-1.31-4.27-.54-1.89.54-1.92 1.93.25-1.18-1.38-1.92a.66.66 0 0 1-.35-.82q.53-1.51.19-3.19a.49.49 0 0 0-.78-.29q-.17.14-.29.8a1 .99-15.9 0 1-.32.57q-1.79 1.58-3.31 1.54a.86.85-79.3 0 0-.81.56l-.5 1.4a1.7 1.69.7 0 1-1.04 1.01l-5.51 1.8a1.65 1.3-65.7 0 0-.31.16l-8.39 5.71zm50.59-8.16c.47 4.93 1.33 5.93 4.42 9.37a1.36.92 20.1 0 1 .18.25l1.26 2.17a.48.47-67.4 0 0 .87-.36l-2.95-10.99a3.1 3.03 17.8 0 0-.66-1.25l-2.78-3.24a.56.56 0 0 0-.98.26q-.25 1.31.44 2.98a2.85 2.84-59 0 1 .2.81zm-139.046 6.72a.72.72 0 0 0-.648-.786l-2.269-.219a.72.72 0 0 0-.786.648l-.084.876a.72.72 0 0 0 .648.786l2.27.218a.72.72 0 0 0 .786-.648l.084-.876zm-5.094 4.28q-.02-.01-.58.08a.36.36 0 0 1-.36-.56q.54-.78.2-1.35a.3.3 0 0 0-.55.08q-.19.71-.06 1.83a.69.69 0 0 1-.45.74q-1.59.6-2.34 2.95a.35.34-10.8 0 0 .55.37q.02-.02.17-.16a.28.28 0 0 1 .31-.05q3.14 1.36 5.24-.11a1.12 1.12 0 0 0-.34-2l-2.56-.71a.35.35 0 0 1 .08-.68l.56-.02a.23.23 0 0 0 .13-.41zm55.53 38.04l-20.31-.63q-4.52-2.7-8.41-7.82a1.15 1.14 71.7 0 1 .92-1.84l15.5.21a1.66 1.6 58 0 1 .76.19l1.78.96a.58.58 0 0 0 .86-.49q.07-1.69 1.11-2.97a1.01 1.01 0 0 0-.59-1.63q-3.67-.7-6.07-.34c-2.1.31-4.05-.14-6.25-.03q-3.97.19-9.84-.5-2.68-.32-3.82 2.17-4.78 10.45-6.9 14.07c-1 1.71-1.64 4.3-2.46 5.59a1.01 1.01 0 0 0-.13.82q.39 1.49 1.59 1.24a.39.39 0 0 1 .45.5q-.3.9.32 1.96a2.51 2.48-62.4 0 1 .33 1.08q.53 7.87 1.05 13.56.22 2.43 1.92 3.26 4.68 2.27 8.86 1.09a.36.36 0 0 1 .42.52l-3.14 5.82a.59.59 0 0 0 .59.87q3.45-.46 6.94-.44 22.94.11 38.93-.2c2.62-.05 5.42 1.31 7.32-1.85q3.11-5.15 4.11-6.94c1.09-1.94 3.23-2.91 3.23-5.63a1.61 1.55 64.5 0 1 .32-.96c2.11-2.79 3.73-4.28 4.57-7.8a1.73 1.65 70.2 0 1 .22-.5l8.05-11.99a.55.55 0 0 0-.44-.86q-31.68-.8-35.57-.85-.46-.01-3.73-1.21a.11.11 0 0 0-.14.13q.04.18.13.25a.58.55 57 0 1-.19 1.03q-1.08.16-2.29.16zm115.26-9.6l-2.56 4.19a.36.36 0 0 0 .29.54q2.94.15 4.9-1.68a.52.52 0 0 0-.06-.82l-1.76-1.17a.84.82-74.8 0 1-.36-.65q-.01-.25-.01-.3a.24.24 0 0 0-.44-.11zm-73.31 36.53l-1.65.19q-.42-1.91-1.98-.28a.9.63-88.7 0 0-.14.19l-4.86 9.01a.7.7 0 0 0 .45 1.02q.94.21 2.27.06a.64.64 0 0 0 .57-.6q.19-2.69 2.49-5.01a.99.98 21.8 0 1 .71-.3h5.3a.88.88 0 0 1 .71 1.39l-1.43 1.97a1.07 1.07 0 0 0 1.29 1.62q.89-.39 1.69-1.96.82-1.64 3.65-6.93a1.99 1.97-48 0 0-.1-2.05l-2.38-3.51a2.47 2.45 80.4 0 0-1.38-.99l-2.72-.76a.85.85 0 0 0-.87 1.38l3.93 4.57a.43.43 0 0 1-.3.71l-5.25.28zm21.91 5.35q-.33 1.28-1.32 2.43a.88.87-36.7 0 0-.14.92c.47 1.09 2.05 1.31 2.59.19q1.99-4.14 4.31-7.91a1.39 1.38 42.6 0 0-.07-1.54q-.88-1.17-1.23-2.04c-.9-2.28-2.14-2.83-4.04-.99a.76.75 37.1 0 0 .17 1.21l2.01 1.09a.61.61 0 0 1-.28 1.15h-8.08a1.89 1.87 14 0 0-1.66.99l-4.38 8.1a.78.77-72 0 0 .57 1.13l.28.04a1.94 1.94 0 0 0 1.96-.99l1.99-3.7a2.37 2.37 0 0 1 2.4-1.22l4.58.63a.41.41 0 0 1 .34.51z" class="D"/><path d="M150.99 8.36q-1.31-1.56-3.73-1.12-2.72-1.61-4.11-4.38a1.52 1.51 71.8 0 1 1.1-2.18q4.7-.79 7.82 2.95 2.48 2.97-1.08 4.73z" class="B"/><path d="M222.87 39.14l-5.59-7.65a.4.4 0 0 0-.64-.02q-2.27 2.84-4.86 4.11-2.81.4-4.81.13a.71.7-46.7 0 1-.04-1.39q8.72-1.72 8.19-10.72a2.64 2.5 33.5 0 0-.21-.91q-3.97-9.16-13.79-12c-5.24-1.51-11.81-1.44-15.09 3.35q-3.38 4.94.84 11.19 1.93 2.87 4.78 5.74 4.2 4.24 10.48 4.31a.81.81 0 0 1 .74 1.13c-2.49 5.77-5.3 10.45-10.9 14.11q4.97-5.38 7.44-12.32a.77.76-56.4 0 0-.15-.78q-1.27-1.41-2.7-1.33a1.4 1.38 55.5 0 1-.67-.13l-4.94-2.32q-3.09.33-4.2 3.45-2.72 7.63-4.36 11.18a.28.27 21.3 0 1-.34.14v-.01a.27.27 0 0 1-.17-.32l2.02-7.29a.09.09 0 0 0 0-.06q-.01-.02-.01-.04a.02.01-41.4 0 0-.03 0l-.92 2.49a.19.14-68.1 0 1-.2.12h-.01a.2.15-73.4 0 1-.08-.22c1.11-4.62 4.06-10.05 2.81-14.94q-.55-2.15-1.66-2.74a1.86 1.61-67.3 0 0-2.36 1.17q-1.1 3.21-1.81 7.26a1.99 1.99 0 0 1-.4.88q-1.74 2.11-2.2.23l3.36-9.81a.9.89 81.5 0 1 .3-.41q2.53-1.96.52-4.06a.98.95-63.5 0 1-.25-.79l.59-4.3a.77.77 0 0 0-1.44-.47l-.27.5a1.29 1.29 0 0 1-2.3-.07l-1.56-3.36 7.37-.83a1.65 1.58 25.3 0 0 .63-.21q3.16-1.88 3.21-1.9c5.26-2.62 11.09-.8 18.76.95a3.28 3.26-13 0 1 1.81 1.12c1.67 2.06 6.02 5.66 8.37 9.99 1.09 2.01 1.27 4.21 1.88 6.87a6.97 6.96-66.8 0 0 .78 1.96q2.39 4.05 4.73 8.11.3.52-.65.91z" class="C"/><path d="M211.78 35.58q-.13.1-.25.19c-7.56 1.74-10.28 6.89-14.7 13.79l-3.35 2.7q-3.94 2.63-7.44 5.98c-2.72 2.6-5.53 4.59-8.7 4.65q-2.46.04-2.63.11a.24.24 0 0 0-.01.44q3.84 1.58 5.69 1.18 6.61-1.43 13.08 1.3 5.8 2.45 11.91.01a1.6 1.6 0 0 0 .71-.57q1.42-2.05.6-5.16l-.26-5.6a.25.25 0 0 1 .38-.22q1.06.68 1.84 1.62 2.06 2.5 7.56 9.43a.77.77 0 0 1-.61 1.25h-9.77a.92.92 0 0 0-.91.79l-.04.31a.75.74-85.9 0 0 .73.85h11.85a.99.98-16.2 0 1 .83.45q1.15 1.77 1.57 3.62a.3.3 0 0 1-.44.32q-3.94-2.31-8.83-2.08a.53.52 4.2 0 0-.49.42c-1.87 8.46-3.68 15.61-.66 24.09a2.97 2.96-54.9 0 1 .17.99c.01 2.12-.34 4.25 1.42 4.79a.64.63-55.3 0 1 .2 1.11q-2.46 1.89-5.46 2.72c-2.85.8-9.46 2.37-11.98 1.01a.39.39 0 0 0-.57.39l.18 1.35a.7.67-27.4 0 1-.19.56q-1.9 1.96-3.49 1.25a3.15 3.14-34.1 0 0-1.47-.28q-9.75.52-18.43-4.27a.96.96 0 0 1 .15-1.75q.17-.06 1.13.27a.14.14 0 0 0 .18-.09h.01a.17.17 0 0 0-.09-.2c-6.04-2.35-8.98-3.99-15.77-7.62q-6.12-3.27-9.11-5.7-9.06-7.37-14.84-18.38a.94.94 0 0 1 .83-1.38h30.12a1.2 1.19-7.3 0 0 1.16-1.49q-1.05-3.96-.73-7.22.03-.24-.08-.36a.1.1 0 0 0-.18.06v5.71a.94.94 0 0 1-.94.94h-30.71a1.71 1.71 0 0 1-1.58-1.05q-4.63-11 1.59-21.5 4.47-7.54 15.14-9.28a2.61 2.53 25.3 0 0 .88-.3q1.68-.94 2.76-.98a1.34 1.31-17.3 0 1 1.19.61l4.66 7.27a.58.58 0 0 0 1.07-.37q-.37-3.37-2.37-6.96a.85.85 0 0 1 .61-1.25l7.95-1.34a2.93 2.93 0 0 1 .9 0l13.28 2.23q.46 1.88 2.2-.23a1.99 1.99 0 0 0 .4-.88q.71-4.05 1.81-7.26a1.86 1.61-67.3 0 1 2.36-1.17q1.11.59 1.66 2.74c1.25 4.89-1.7 10.32-2.81 14.94a.2.15-73.4 0 0 .08.22h.01a.19.14-68.1 0 0 .2-.12l.92-2.49a.023.011-41.4 0 1 .03 0q0 .02.01.04a.09.09 0 0 1 0 .06l-2.02 7.29a.27.27 0 0 0 .17.32v.01a.28.27 21.3 0 0 .34-.14q1.64-3.55 4.36-11.18 1.11-3.12 4.2-3.45c-4.68 5.48-6.98 14.02-8.57 20.91a.49.48-12.4 0 0 .77.49q9.45-7.2 13.49-18.55a.11.1 24.6 0 1 .15-.05l1.28.69a.44.42 22.9 0 1 .21.5q-2.05 6.95-7.28 12.56a.37.37 0 0 0 .22.62q.21.02.75-.29c5.6-3.66 8.41-8.34 10.9-14.11a.81.81 0 0 0-.74-1.13q-6.28-.07-10.48-4.31-2.85-2.87-4.78-5.74-4.22-6.25-.84-11.19c3.28-4.79 9.85-4.86 15.09-3.35q9.82 2.84 13.79 12a2.64 2.5 33.5 0 1 .21.91q.53 9-8.19 10.72a.71.7-46.7 0 0 .04 1.39q2 .27 4.81-.13zm-37.59 18.27l.18-3.3a2.32 2.23-60.2 0 0-.33-1.32q-3.66-6.01-4.71-13.1a.03.02 0 0 0-.03-.02h-.29a.18.17 0 0 0-.18.17q.04 7.68 4.73 13.56a1.59 1.56-64.2 0 1 .34 1.01q-.07 2.7.01 3.03a.141.141 0 0 0 .28-.03zm-55.23-41.59l4.92 3.95a.64.64 0 0 1-.48 1.14q-5.09-.65-6.99-5 1.68-.3 2.55-.09zm12.75.07l4.82 5.6a2.02 2-6.6 0 0 .56.44q4.74 2.45 9.77 2.42a1.73 1.7-25.2 0 1 1.08.38q1.59 1.31 3.21 4.21a.72.72 0 0 1-.09.84q-2.49 2.8-6.53 2.15a.72.7 2.2 0 1-.6-.63q-.22-2.03 1.51-3.04a.9.84-47 0 0 0-1.56c-2.01-.86-3.67 3.27-3.99 4.64a1.36 1.34-13.8 0 1-.47.76q-.85.68-1.75 1.46-.74.66-.77 1.18-.03.63-.39.92a.32.32 0 0 1-.52-.26q.1-3.1 2.61-4.95a.63.63 0 0 0-.08-1.06l-.22-.12a1.2 1.2 0 0 0-1.19.02l-2.81 1.61a2.36 2.35 75 0 0-1.17 2.04v4.99a3.2 3.19 75.1 0 1-1.6 2.77l-6.11 3.53a1.54 1.53-39.6 0 1-1.76-.16q-3.95-3.36-6.77-7.14-1.89-2.54-.61-6.05a.59.59 0 0 1 .78-.35q1.61.64 1.93.55 3.83-.98 7.93.98a.67.65-78.8 0 1 .38.59q.01.52-.65 1.21a.5.5 0 0 0 .36.85h1.83a.62.61-9.3 0 1 .58.41q.15.43.53.39a.41.41 0 0 0 .38-.41v-.98a1.62 1.58-30.9 0 1 .21-.79l2.1-3.66a1 .92-31.4 0 0 .12-.42q.08-1.61 2.05-2.2a.76.76 0 0 0 .52-.95l-.02-.08a.84.84 0 0 0-.98-.58q-1.19.25-2.24 1.47a1.6 1.56-15.8 0 0-.31.54q-.92 2.66-3.25 3.86a.91.91 0 0 1-.92-.06q-3.43-2.32-6.99-1.59-.7.14-1.21-.02-.67-.21-.92-.61a3.84 3.38-20.6 0 0-3.93-1.49q-1.88.42-3.44.37a.61.61 0 0 0-.36 1.11q1.37.94 2.95.03a.95.95 0 0 1 1.23 1.41q-2.05 2.64-.97 7.13.36 1.46-.92 4.46a.35.34 56.8 0 1-.66-.14v-8.63a.69.68 86.3 0 0-.77-.68l-.42.05a.98.97-3.7 0 0-.85.96q.04 6.87-1.84 12.45a1.92 1.86-41.9 0 0-.07.99q.25 1.4.25 1.41a.26.26 0 0 1-.47.05q-.49-.83-1.71-1.15a.76.76 0 0 1-.19-1.4l1.17-.67a1.31 1.3-10.7 0 0 .63-.91q.94-5.5 1.39-9.06.72-5.61-1.98-10.03a.52.52 0 0 0-.96.27v2.46a.72.72 0 0 1-1.16.57q-2.58-2.01-5.65-2.27a1.13.97 12.1 0 1-1.02-1.34q.35-.87 1.54-1.32c3.04-1.12 4.99-1.16 6.53-3.45a.48.48 0 0 1 .87.22l.28 2.74a.45.44 25.8 0 0 .08.22q.53.83 1.25.39a.65.64-49.7 0 1 .56-.05l2.22.8a1.51 1.4-33.3 0 0 .48.08l6.73-.21a1.47 1.44 57.6 0 1 .72.17q1.7.93 4.74 3.16a3.72 3.03 41.9 0 0 4.2.2q.55-.47.78-2.03.22-1.45.86-1.58 1.34-.26 1.8-.18a.97.97 0 0 0 .84-1.65c-1.66-1.63-4.43-4.18-4.02-6.68q.68-.08.95.08zm-59.25.51l-.67.06.67-.06z" class="B"/><path d="M222.87 39.14q-.22.34-.22.82a1.11 1.09-73.1 0 0 .46.88c1.84 1.28 2.48 3.13 3.53 4.61q3.31 4.66 6.55 9.32.9.68.09 1.31a.27.26-46 0 1-.3.01q-11.57-8.2-24.1-14.96-1.76-.95 0-2.57l.61.02a.2.2 0 0 0 .18-.29q-.24-.44.21-.9.81-.82 1.65-1.62.12-.09.25-.19 2.59-1.27 4.86-4.11a.4.4 0 0 1 .64.02l5.59 7.65zm-10.42-3.2q-.04.46.14 1.23a.65.65 0 0 0 1.28-.09q.08-.85-.03-1.26a.71.71 0 0 0-1.39.12z" class="D"/><path d="M190.95 33.64l4.94 2.32a1.4 1.38 55.5 0 0 .67.13q1.43-.08 2.7 1.33a.77.76-56.4 0 1 .15.78q-2.47 6.94-7.44 12.32-.54.31-.75.29a.37.37 0 0 1-.22-.62q5.23-5.61 7.28-12.56a.44.42 22.9 0 0-.21-.5l-1.28-.69a.11.1 24.6 0 0-.15.05q-4.04 11.35-13.49 18.55a.49.48-12.4 0 1-.77-.49c1.59-6.89 3.89-15.43 8.57-20.91z" class="E"/><path d="M212.45 35.94a.71.71 0 0 1 1.39-.12q.11.41.03 1.26a.65.65 0 0 1-1.28.09q-.18-.77-.14-1.23z" class="B"/><path d="M211.53 35.77q-.84.8-1.65 1.62-.45.46-.21.9a.2.2 0 0 1-.18.29l-.61-.02q-3.78.66-5.02 2.31-3.38 4.5-7.03 8.69c4.42-6.9 7.14-12.05 14.7-13.79zm-37.62 18.11q-.08-.33-.01-3.03a1.59 1.56-64.2 0 0-.34-1.01q-4.69-5.88-4.73-13.56a.18.17 0 0 1 .18-.17h.29a.03.02 0 0 1 .03.02q1.05 7.09 4.71 13.1a2.32 2.23-60.2 0 1 .33 1.32l-.18 3.3a.141.141 0 0 1-.28.03z" class="C"/><path d="M208.88 38.56q-1.76 1.62 0 2.57 12.53 6.76 24.1 14.96a.27.26-46 0 0 .3-.01q.81-.63-.09-1.31 1.14-.08 2.21-1.23.33 2.81-1.36 5.71a.65.64-57.7 0 1-.92.21q-.61-.41-1.48-.48a.11.09-35.9 0 1 .05-.2q.09 0 .1-.01a.06.05-49.7 0 0 0-.07q-2.11-2.24-4.75-3.16a3.32 3.32 0 0 1-.84-.42q-7.56-5.12-14.33-8.17-.32-.15-.56-.63a.83.83 0 0 0-.85-.44q-.77.1-1.72-1.18a.76.75-29.3 0 0-.91-.25q-.34.15-.56.02-.65-.39-.33-.99.26-.48.2-.63a.34.34 0 0 0-.62-.05q-1.69 3.17-3.64 4.65a.98.97 47.8 0 0-.07 1.49q1.92 1.79 2.32 4.24-1.65-.13-3-2.72a.72.72 0 0 0-1.11-.21l-11.26 9.67a.18.17 46.2 0 1-.24-.01l-.25-.25a.38.37-45.6 0 1 0-.53l7.87-7.87a.47.47 0 0 0 0-.67l-.19-.19a.62.62 0 0 0-.94.07q-.93 1.28-2.53 1.79l3.35-2.7q3.65-4.19 7.03-8.69 1.24-1.65 5.02-2.31z" class="B"/><path d="M50.7 52.26q3.5-4.32 4.86-8.37a.85.85 0 0 1 1.55-.15l26.92 46.62A1.18 1.17 46.4 0 1 84 91.6q-6.79 10.47-11.45 21.69-.42 1.03-1.3 1.1a.59.57 70.1 0 1-.51-.25l-7.39-10.93a1.89.82 50.7 0 1-.13-.22L43.92 68.6a3.72 3.71-42.2 0 1 .2-3.96q3.42-4.85 6.11-11.58a3.35 3.04 78.2 0 1 .47-.8z" class="C"/><ellipse cx="0" cy="0" transform="matrix(-.87462 -.48481 .48481 -.87462 240.17 51.36)" rx="5.55" ry="3.11" class="B"/><path d="M512 48.89v1.74q-28.85.44-57.69-.24-1.8-.05-4.93-.76l-.01-.01q4.22-.62 8.7-.72 15.96-.06 37.93-.69 7.54-.22 16 .68z" class="E"/><path d="M227.21 63.77q-.1.57.6.97a.63.6-86.4 0 1 .28.33l.56 1.6a.16.16 0 0 1-.22.19q-1.19-.6-1.73-1.37-1.06-1.49-1.34-1.72-2.94-2.44-4.54-5.72a3.09 3.07 7.5 0 0-.77-1l-8-6.88a1.09 1.08 10.1 0 1-.33-.47l-.32-.93a.39.39 0 0 1 .6-.44q2.87 2.1 5.07 3.12a.36.35 72.6 0 1 .11.06l8.99 6.08a.7.7 0 0 1-.29 1.27q-.5.08-1.9-.23a.46.46 0 0 0-.45.74l3.63 4.22a.22.21 31 0 1 .05.18zm222.75-14.92l-3.5.11 3.5-.11z" class="B"/><path d="M458.07 48.9q-4.48.1-8.7.72l.01.01q3.13.71 4.93.76 28.84.68 57.69.24v6.25l-.39 15.97a.09.09 0 0 1-.09.09q-.12.01-.12-.16-.34-10.56-.24-18.89a.2.2 0 0 0-.36-.12q-3.43 4.86-5.13 9.11a3.31 3.23-15.7 0 1-.45.78q-4.52 5.79-7.56 13.09-.19.44-.86.88a1.24 1.21 89.3 0 0-.4.42q-7.91 13.49-8.28 14.31c-.74 1.6-2.43 2.48-2.7 4.36a1.74 1.69-21.9 0 1-.36.81l-3.13 3.94a.94.87 2.3 0 1-.27.23q-1.09.63-2-.28a.35.35 0 0 0-.6.22q-.1.95-1.3 1.16a.44.43-33 0 0-.17.79q1.76 1.2.64 3.65a.71.7 12.5 0 1-.66.41l-1.1-.02a.35.33 18 0 0-.27.13q-.5.62.76 1.69.56.48.36 1.29-.31 1.16-1.72 1.09a.74.74 0 0 0-.75.54l-.42 1.51a.21.21 0 0 1-.41-.03l-.15-1.2a1.02 1.02 0 0 0-1.97-.22l-.53 1.45a1.3 1.25 46 0 0 0 .85q1.31 3.74-1.15 8.19a1.41 1.39 1.9 0 1-.63.58c-1.44.64-1.34 2.43-2.1 3.82q-6.02 10.88-6.37 11.5-1.1 1.96-2.07 3.57-3.71 6.16-6.07 11.08a6.04 6.02 77.6 0 1-.76 1.19q-1.43 1.75-2.45 3.92c-2.93 6.22-7.12 11.5-9.01 16.17q-1.07 2.62-1.38 3-1.38 1.62-2.12 3.06c-1.81 3.49-3.68 5.87-5.37 9.5q-1.04 2.25-3.66 6.21-1.79 2.72-3.57 6.23-4.96 9.78-8.51 14.65-.66.91-2.7.51-.76-.13-1.42.07l-24.83.39-10.86.1q-39.01.47-78.02.17-2.49-.02-4.01-1.03a1.92 1.9-27.9 0 0-1.06-.32l-8.27-.1 2.8-7.53a.49.48 6.6 0 0-.52-.65l-8.84 1.11a.38.37 16 0 1-.34-.61l1.95-2.42a3.78 3.7-16.6 0 0 .61-1.1l4.37-12.09a.49.48 17.7 0 0-.33-.63l-6.14-1.7a1.13 1.13 0 0 0-1.23.46l-1.7 2.53a.31.3 26 0 1-.36.12l-.35-.12a.46.45 23.8 0 1-.25-.63q5.05-9.87 6.68-20.78 6.44-11.36 8.94-15.38 1.07-1.73 1.34-3.29a.66.65-79.7 0 0-.52-.76q-2.77-.54-4.31 2.06.49-1.51-.78-1.54-6.1-.16-12.21-.53-.23-.39-.14-1.03a1.57 1.48 69.7 0 1 .3-.71q2.36-2.99 2.68-8.09.12-1.9 2.31-1.56-.09 2.01.56 3.64a.53.53 0 0 0 .89.16c3.18-3.65 5.25-8.79 6.91-13.33q.41 0 .13-.52-.2-.38-.64-.19-2.95-.55-7.25.66-3.8-4.19-6.43-10.09 6.54-.23 13.27.25c6.73.48 11.69.33 17.54.74q1.1.08 1.87-.19 1.2-.41.86-1.44 1.23 1.86 2.45 1.79a1.17 1.16-76.1 0 0 .95-.58q19.14-33.37 20.41-35.52.14-.22 5.7-10.84 1.24-2.37 2.3-5.45 1.12-3.25 2.08-5.58 3.48-.16 5.67-6.74 1.38-2 3.03-4.39 1.08-1.56-.62-2.67a.32.32 0 0 1-.11-.43l.14-.26a.12.11 31.4 0 1 .17-.04q2.07 1.39 4.47 1.01l3.7.04q4.15.17 8.28-1.11a4.3 4.12-52.9 0 1 1.18-.19l15.26-.12 1.5-.03q.14.02.28.04l6.78-.02q11.78-.48 23.58-.83c2.82-.08 5.63-1 8.56-.21a1.34 1.14-33.6 0 0 .42.05l14.89-.45q.98.35 1.26-.13l2.78-.21.95-.02 3.75-.16 3.5-.11 8.11.05zm-162.55 99.51l9.31-16.26a.27.27 0 0 0-.1-.37l-.15-.09a3.4 3.21-60.2 0 0-4.48 1.36l-6.2 10.83a3.4 3.21-60.2 0 0 1.1 4.54l.15.09a.27.27 0 0 0 .37-.1z" class="C"/><g class="B"><path d="M442.71 49.12l-.95.02.95-.02z"/><ellipse cx="0" cy="0" transform="matrix(-.994522 -.104528 .104528 -.994522 354.22 50.08)" rx="3.77" ry=".72"/></g><path d="M438.98 49.35q-.28.48-1.26.13.53-.22 1.26-.13z" class="D"/><path d="M205.13 53.18q1.22 2.74 1.56 7.02.82 3.11-.6 5.16a1.6 1.6 0 0 1-.71.57q-6.11 2.44-11.91-.01-6.47-2.73-13.08-1.3-1.85.4-5.69-1.18a.24.24 0 0 1 .01-.44q.17-.07 2.63-.11c3.17-.06 5.98-2.05 8.7-4.65q3.5-3.35 7.44-5.98 1.6-.51 2.53-1.79a.62.62 0 0 1 .94-.07l.19.19a.47.47 0 0 1 0 .67l-7.87 7.87a.38.37-45.6 0 0 0 .53l.25.25a.18.17 46.2 0 0 .24.01l11.26-9.67a.72.72 0 0 1 1.11.21q1.35 2.59 3 2.72z" class="C"/><g class="B"><path d="M383.21 50.9l-1.5.03 1.5-.03zm7.06.02l-6.78.02 6.78-.02zm-33.28 1.43l-3.7-.04 3.7.04zm-10.78 6.74q-2.19 6.58-5.67 6.74 1.77-3.23.03-2.92l5.44-7.92a.282.282 0 0 1 .49.28q-.48 1.05-.77 2.59-.34 1.82.48 1.23z"/><ellipse cx="0" cy="0" transform="matrix(-.830984 -.556296 .556296 -.830984 114.26 62.98)" rx="5.64" ry="3.02"/></g><path d="M340.57 62.91q1.74-.31-.03 2.92-.96 2.33-2.08 5.58-1.06 3.08-2.3 5.45-5.56 10.62-5.7 10.84-1.27 2.15-20.41 35.52a1.17 1.16-76.1 0 1-.95.58q-1.22.07-2.45-1.79 5.85-10.39 11.67-21.03 1.02-1.88 2.79-4.58 1.48-2.25 2.8-4.6 8.17-14.54 16.66-28.89z" class="E"/><ellipse cx="0" cy="0" transform="matrix(.657375 -.753563 .753563 .657375 505.13 66.67)" rx=".74" ry=".31" class="C"/><path d="M238.56 68.22q-1 3.24.25 4.26.28.22.57.14.28-.09.48-.39 1.68.05 1.74.41 3.9 3.56 4.87 6.53-7.12-2.3-12.89-6.52a2.6 2.55-20 0 0-1.03-.47q-1.28-.29-2.12-.91a1.75 1.74-26.5 0 1 1.06-3.15l7.07.1zM97.65 69.9l3.02 5.23q.01.01.02.02 1.39 1.03 2.47 3a1.21 1.18-10.4 0 0 .89.6l9.37 1.29a.64.64 0 0 1 .47.95l-.29.5a1.53 1.52-71.3 0 1-1.53.76L102.99 81a.68.67-12.8 0 1-.48-.3l-5.6-8.28a1.74 1.71 32.3 0 1-.28-1.2l.16-1.16a.46.46 0 0 1 .86-.16z" class="B"/><path d="M241.6 72.64q-.06-.36-1.74-.41-.3-.78-.29-.8a1.55 1.55 0 0 1 2.91-.2q.25.58-.88 1.41z" class="D"/><path d="M30.38 82.66a.41.41 0 0 1 .79-.03c.66 2.12 1.31 4.1 2.37 5.99 8.53 15.16 17.68 29.99 26.22 45.02a2.88 2.86 44.4 0 1 .04 2.75q-8.48 16-16.06 29.83-.53.97-1.88 2.59a.46.46 0 0 1-.76-.1c-.52-1.08-.66-1.9-1.49-3.35q-.95-1.65-7.34-12.24c-.89-1.48-2.14-2.47-2.49-4.39a1.3 1.26-68.2 0 0-.19-.46l-3.68-5.45a.93.83-72.6 0 1-.13-.29q-.74-2.65-2.54-5.21c-2.95-4.18-4.44-7.03-8.76-14.31a1.59 1.57 44 0 1-.04-1.57L21.6 108a1.71 1.48 85.9 0 1 .18-.24q1.53-1.56 2.49-4.28c1.55-4.33 4.03-8.47 6.22-12.19q1.05-1.79.24-3.73-.93-2.24-.35-4.9zm462.63 5.4q.02.25-.49.71a.3.3 0 0 1-.5-.27q0-.05.38-.6a.34.33-29.8 0 1 .61.16z" class="C"/><ellipse cx="0" cy="0" transform="matrix(-.898028 -.439939 .439939 -.898028 204.52 113.71)" rx="7.11" ry="3.9" class="B"/><path d="M91.19 160.42q.81.03 1.23 1.03a1.05 1.03-7.4 0 0 .82.62q1.32.16 3.03-.02a1.33 1.31 74.1 0 0 1.04-1.9q-.5-1.02-2.29-1.31 2.25-1.31 2.07-3.6-.54-6.62.31-11.73a1.35 1.31 34.3 0 0-.19-.92q-1.02-1.61-.81-2.29 1.4-4.6 1.53-9.5c.17-6.92.93-10.62 1.52-18.34a2.57 2.56 2.2 0 1 2.56-2.37h3.94a1.66 1.65 4.2 0 1 1.64 1.89c-.31 2.06-1.04 4.31-1.01 6.14.06 3.04-1.25 5.77-1.8 8.85q-3.41 19.07-3.41 19.13a2.24 2.19-34.3 0 1-.17.85q-1.61 3.99-.97 8.11.3 1.94 1.71 2.2a1.38 1.09-76.1 0 1 .76 1.68q-.76 2.65-2.53 5.76a.12.11-59.9 0 1-.15.05l-.01-.01a.15.14-59.2 0 1-.04-.18l1.85-3.78a1.07 1.06-47.9 0 0-.05-1.03l-.08-.13a.5.5 0 0 0-.71.27q-1.07 2.89-3.2 7.09-.99 1.94-2.01 2.83a.99.99 0 0 1-1.52-1.21l1.5-2.79a1.07 1.06 41.1 0 0-.08-1.15c-.95-1.24-2.04-.45-3.11-1.11q-1.57-.98-1.37-3.13zm-3.29 39.83l2.51 3.99q-.64 1.37-1.32 2.7a.66.65-3 0 0 .95.84q.38-.24.77.01.17.11.29.46.09.3.21.53l-4.59 8.06q-.73.18-1.17-.27a.68.65-67.7 0 1-.18-.46v-.34a.39.39 0 0 0-.66-.28q-1.3 1.27-2.28 3.16-2.87 5.51-4.92 9.79a.62.55-87.1 0 0 .69.86q.18-.09.43.16a.61.6 26.7 0 1 .18.53q-.7 4.67-4.57 5.27a.93.93 0 0 0-.67.47l-3.07 5.7a1.47 1.47 0 0 1-2.35.32q-2.4-2.46-3.11-4.55a1.55 1.54 9.4 0 0-.51-.71c-1.51-1.13-1.61-3.17-2.76-4.21-.86-.79-1.05-2.74-1.75-3.99-1.93-3.46-3.16-7.4-6.33-8.97a.56.56 0 0 1-.28-.69q.75-2.05-.91-3.73a1.24.8 19 0 1-.18-.23l-5.79-9.81a1.23 1.22-46.3 0 1-.02-1.22l16.46-30.51a.7.69-44.6 0 0 .01-.64l-4.52-8.78a.93.92-44.7 0 1 .01-.86l24.6-45.58a1.14 1.14 0 0 1 1.99-.03l7.06 12.24a1.61 1.61 0 0 1 .01 1.61q-2.19 3.84-18.07 32.71-.39.7-2.02 2.7a.76.76 0 0 1-.96.19l-2.07-1.11a.72.72 0 0 0-.9 1.09q1.6 1.91 2.58 3.66 8.44 15.12 17.21 29.92zM70.6 227.1q.33.86.35 1.76a.88.76 76.6 0 0 1.14.82q.31-.17.52-.56 4.43-8.27 12.12-23.36a3.17 3.16 43.5 0 0-.08-3.02l-.83-1.44a.82.82 0 0 0-1.51.24q-.52 2.42-2.15 3.81a.71.71 0 0 0-.25.56q0 .48-.49.97a1.01 1.01 0 0 1-.9.3q-3.63-.56-5.86 1.66a1.04.9-14.1 0 0-.12.17l-7.23 13.04a1.08 1.08 0 0 0 .83 1.6c2.11.22 2.23 1.97 3.89 2.81a1.19 1.18 3.5 0 1 .57.64z" class="C"/><path d="M185.45 122.88q-.88-.07-1.41.04a.69.69 0 0 0-.42 1.09l6.73 8.89a.8.8 0 0 1-.64 1.29h-.52a1.88 1.85-16.7 0 1-1.55-.82l-5.3-7.84a1.5 1.44 28.8 0 1-.26-.83v-1.9a1.14 1.12 29 0 0-.18-.61l-.87-1.29a.51.5.5 0 1 .71-.69q1.5 1.04 3.23 1.41a.27.27 0 0 1 .2.33q-.13.49-.35.54a.14.14 0 0 0 0 .27q.54.13.63.12zm84.85.3l.02-2.57 1.17 1.26a.43.43 0 0 1-.1.66l-1.09.65zM3.36 124.75l4.79 12.94a.62.61 18.1 0 1-1.09.55q-1.25-1.86-1.63-3.32-1.11-4.28-2.63-8.64-.19-.4.56-1.53z" class="B"/><path d="M295.52 148.41a.27.27 0 0 1-.37.1l-.15-.09a3.4 3.21-60.2 0 1-1.1-4.54l6.2-10.83a3.4 3.21-60.2 0 1 4.48-1.36l.15.09a.27.27 0 0 1 .1.37l-9.31 16.26z" class="E"/><path d="M287.3 132.79q-.21-.46-.51-.71.44-.19.64.19.28.52-.13.52zm-95.45 2.6h12.74a.88.88 0 0 1 .81 1.24l-.19.43a1.22 1.2 15.4 0 1-1.27.71l-2.38-.33a2.76 2.59 42.5 0 0-.83.01q-3.06.52-6.48.2-1.31-.12-3.88 1.21a.67.67 0 0 1-.93-.33l-.03-.06a.79.79 0 0 1 .43-1.05q.85-.35 1.1-1.33a.94.93 7.1 0 1 .91-.7zm24.82 15.57l-1.66 1.26a1.01 1-15.2 0 0-.4.69l-.57 4.14a1.31 1.3 21.3 0 0 .56 1.27q1.93 1.33 1.95 1.37a.36.35-1.6 0 1-.44.46q-2.52-.77-5.89-.58a1.42 1.41-3.5 0 1-1.5-1.32q-.17-2.61-.05-4.98.22-4.38-1.63-7.65a1.18 1.16 80.8 0 0-.76-.56c-.75-.17-3.03-.4-4.04.13q-1.14.61-3.52.72a.45.45 0 0 1-.47-.51l.15-1.07a.73.72-24.2 0 0-1.32-.5l-1.19 1.77a.83.83 0 0 1-.8.36l-1.94-.27a1.21 1.2 39.2 0 1-.24-2.33l8.09-2.83a.45.45 0 0 1 .51.7q-.64.85-.53 1.3a.93.92-1.4 0 0 .73.69q3.04.58 5.47.17a1.47 1.41-2.8 0 1 1.71 1.49q-.12 1.4.5 2.06 1.67 1.77 2.56 1.98 1.9.46 4.6 1.34a.4.4 0 0 1 .12.7z" class="B"/><path d="M281.33 173.15L271 190.68a.93.92-76.4 0 1-.74.46q-2.32.16-4.39 2.37 1.2-4.44 4.28-8.43-.46.29.18-.55l16.45-28.75q1.54-2.6 4.31-2.06a.66.65-79.7 0 1 .52.76q-.27 1.56-1.34 3.29-2.5 4.02-8.94 15.38z" class="E"/><path d="M224.39 161.93c-.91-1.88-2.14-3.98-.11-5.82q.97-.89 2.29-.34a1.37 1.35.7 0 1 .72.73l1.96 4.79a.87.85-47.4 0 1 .02.57l-.43 1.38a.89.88 22.9 0 1-1.27.51l-2.97-1.6a.54.51 2.9 0 1-.21-.22zm-20.29.25q1.12 2.88.81 4.79-.53 3.37.18 5.36 2.05 2.85 1.9 5.03a.7.7 0 0 0 1.3.4l1.67-2.79q1.48.03 1.12.62-1.42 2.29-2.65 4.55-1.34.24-1.08 1.28a.53.51-77.5 0 0 .17.28l2.15 1.83a.74.71 26.2 0 1 .25.69q-.16.84.7 1.64a.72.69 18.6 0 1 .23.44q.19 1.37 2.01 4.45.22.37-.08 1.32a.17.17 0 0 1-.31.03l-4.15-7.18a2.53 2.52 74.9 0 0-2.18-1.26h-.36a1.02 1.01-13.9 0 0-.9 1.49q3.68 6.92 8.93 12.87a.53.52 67.5 0 1-.36.87q-1.34.1-2.15-.86-1.95-2.31-3.85-3.52a2.01 2-86.3 0 1-.76-.87l-4.38-9.51q.43-.88.23-1.56-.2-.67-1.15-.9-4.57-1.12-10.08-2.68a.36.36 0 0 1-.27-.35v-.32a.3.29 0 0 1 .3-.29h2.2a1.21 1.2-79.9 0 0 1.13-.79l.68-1.9a.48.48 0 0 0-.54-.64q-7.33 1.45-13.06-3.41a1.2 1.19 18.9 0 1-.41-.83l-.04-.95 8.39-5.71a1.65 1.3-65.7 0 1 .31-.16l5.51-1.8a1.7 1.69.7 0 0 1.04-1.01l.5-1.4a.86.85-79.3 0 1 .81-.56q1.52.04 3.31-1.54a1 .99-15.9 0 0 .32-.57q.12-.66.29-.8a.49.49 0 0 1 .78.29q.34 1.68-.19 3.19a.66.66 0 0 0 .35.82q1.63.74 1.38 1.92zm-8.06 17.18l6.33 1.38a1 1 0 0 0 1.19-.76l.06-.31a5.61 4.16-77.7 0 0-2.86-6.36l-.16-.04a5.61 4.16-77.7 0 0-5.26 4.6l-.07.3a1 1 0 0 0 .77 1.19zm35.65-18.82q-.69-1.67-.44-2.98a.56.56 0 0 1 .98-.26l2.78 3.24a3.1 3.03 17.8 0 1 .66 1.25l2.95 10.99a.48.47-67.4 0 1-.87.36l-1.26-2.17a1.36.92 20.1 0 0-.18-.25c-3.09-3.44-3.95-4.44-4.42-9.37a2.85 2.84-59 0 0-.2-.81zm-51.19 8.44l-4.82 7.31q-2.59 2.32-1.46-3.14a5.54 5.4 48.4 0 0 .08-1.74q-.44-3.73.65-7.23a2.27 2.25-18.3 0 1 .32-.63l3.66-4.91a.84.84 0 0 1 1.5.6c-.3 2.43-.93 5.76 2.23 5.81a.5.5 0 0 1 .49.58c-.27 1.74-1.87 2.29-2.65 3.35zm-85.48-10.14q1.79.29 2.29 1.31a1.33 1.31 74.1 0 1-1.04 1.9q-1.71.18-3.03.02a1.05 1.03-7.4 0 1-.82-.62q-.42-1-1.23-1.03 1.92-1.5 3.83-1.58z" class="B"/><path d="M229.59 166.43q-1.19-.11-.1 2.03.65 1.27.2 2.57-2.68 7.78-9.85 12.73a1.1 1.09-13.8 0 0-.47.77l-.08.66-9.02-2.26a1.39 1.34 78.2 0 1-.75-.51q-.69-.93-1.09-2.28 1.23-2.26 2.65-4.55.36-.59-1.12-.62.42-1.89-.15-3.67a.88.86 86.4 0 0-.65-.58q-3.09-.56-4.07 1.61-.71-1.99-.18-5.36.31-1.91-.81-4.79.03-1.39 1.92-1.93 2.68-.77 4.27.54a1.6 1.52-20.9 0 0 .84.35c7.08.76 12.54 1.68 18.46 5.29z" class="C"/><g class="B"><path d="M229.59 166.43q4.07 2.91 7.38 7.41a2.66 2.6 19.3 0 1 .41.83q1.35 4.51.76 8.41-.22 1.42-2.8 7.05a1.86 1.73 85.9 0 1-.53.66q-1.59 1.22-2.44 2.88a3.01 3.01 0 0 1-.82 1q-4.7 3.68-5.97 4.17-4.1 1.57-6.71 3a6.18 6.1 22.2 0 1-1.26.52q-12.1 3.48-24.31 1.09-8.66-1.69-14.1-8.1 1.48-1.94 2.12-4.02a1.52 1.47-10.9 0 1 .54-.77q1.51-1.11.47-2.42a1.56 1.25 5 0 0-.23-.22l-1.89-1.47-1.17-1.35a.2.2 0 0 0-.31.02l-.19.29a.3.29 42.3 0 0 .02.35c1.51 1.67.97 3.92.58 6.44a.69.69 0 0 1-1.26.27q-.4-.63-1.59-2.92-.78-1.47-1.17-2.97-1.58-5.97 2.23-4.45 2.09 1.55 3.43 3.28a2.69 2.54 87.8 0 0 .53.52q5.87 4.17 12.91 3.99a1.51 1.5 12.2 0 0 1.3-.83q.62-1.27 1.67-2.06-.96 1.74.03 3.57a1.39 1.36 1.1 0 0 .55.56l2.11 1.13a2.21 2.16-89.4 0 1 .92.96q1.48 3.06 4.78 6.31a.32.31 67.4 0 1-.22.54h-.64a1.6 1.6 0 0 1-1.28-.64l-6.94-9.16a1.12 1.12 0 0 0-1.75-.06l-1.2 1.4a1.58 1.58 0 0 0-.11 1.92l4.02 5.95a5.01 5 82.2 0 0 2.56 1.95q5.68 1.92 11.39.62a14.09 14.09 0 0 0 8.74-6.04q.84-1.28.47-5.6a2.01 1.92-64.5 0 0-.29-.88q-.8-1.33-3.29-2.9a.33.33 0 0 1 .09-.59q.6-.16 1.5.44 1.4.95 2.55.22a.67.66 34.5 0 0-.23-1.21l-1.66-.33.08-.66a1.1 1.09-13.8 0 1 .47-.77q7.17-4.95 9.85-12.73.45-1.3-.2-2.57-1.09-2.14.1-2.03z"/><rect x="-1.86" y="-1.16" transform="matrix(.995396 .095846 -.095846 .995396 90.95 168.33)" width="3.72" height="2.32" rx=".72"/></g><path d="M180.5 168.98q.59.13.8.53l.04.95a1.2 1.19 18.9 0 0 .41.83q5.73 4.86 13.06 3.41a.48.48 0 0 1 .54.64l-.68 1.9a1.21 1.2-79.9 0 1-1.13.79h-2.2a.3.29 0 0 0-.3.29v.32a.36.36 0 0 0 .27.35q5.51 1.56 10.08 2.68.95.23 1.15.9.2.68-.23 1.56-.16.68-1.82 1.2-1.49-.39-2.25 1.26l-1.05.44q-1.05.79-1.67 2.06a1.51 1.5 12.2 0 1-1.3.83q-7.04.18-12.91-3.99a2.69 2.54 87.8 0 1-.53-.52q-1.34-1.73-3.43-3.28-1.72-2.35-1.67-5.84l4.82-7.31z" class="C"/><path d="M87.62 172.76l-.56.02a.35.35 0 0 0-.08.68l2.56.71a1.12 1.12 0 0 1 .34 2q-2.1 1.47-5.24.11a.28.28 0 0 0-.31.05q-.15.14-.17.16a.35.34-10.8 0 1-.55-.37q.75-2.35 2.34-2.95a.69.69 0 0 0 .45-.74q-.13-1.12.06-1.83a.3.3 0 0 1 .55-.08q.34.57-.2 1.35a.36.36 0 0 0 .36.56q.56-.09.58-.08a.23.23 0 0 1-.13.41z" class="B"/><path d="M209.96 174.97l-1.67 2.79a.7.7 0 0 1-1.3-.4q.15-2.18-1.9-5.03.98-2.17 4.07-1.61a.88.86 86.4 0 1 .65.58q.57 1.78.15 3.67z" class="D"/><path d="M196.04 179.36a1 1 0 0 1-.77-1.19l.07-.3a5.61 4.16-77.7 0 1 5.26-4.6l.16.04a5.61 4.16-77.7 0 1 2.86 6.36l-.06.31a1 1 0 0 1-1.19.76l-6.33-1.38z" class="C"/><path d="M281.33 173.15q-1.63 10.91-6.68 20.78a.46.45 23.8 0 0 .25.63l.35.12a.31.3 26 0 0 .36-.12l1.7-2.53a1.13 1.13 0 0 1 1.23-.46l6.14 1.7a.49.48 17.7 0 1 .33.63l-4.37 12.09a3.78 3.7-16.6 0 1-.61 1.1l-1.95 2.42a.38.37 16 0 0 .34.61l8.84-1.11a.49.48 6.6 0 1 .52.65l-2.8 7.53q-2.37.81-4.96.87-4.47.11-5.03.17-5.03.52-10.56.79 1.75-4.79 1.39-9.95a.78.78 0 0 1 1.27-.66q.35.27 1.51.26a1.31 1.29-65.1 0 0 .8-.3q2.41-1.98 2.99-3.4 1.43-3.53 1.23-8.4a2.55 2.55 0 0 0-.91-1.84q-.09-.07-.48-1.24a.95.95 0 0 0-1.61-.33q-.92 1.03-2.52 1.15-3.05.23-6.04.47a2 1.97-65.4 0 0-1.08.41q-1.36 1.04-2 2.43a.57.57 0 0 1-1.04-.02q-.58-1.38-.22-3.11 1.07.87 2.51.56a1.46 1.34-70.7 0 0 .69-.37q1.14-1.13 2.32-1.06 1.64.1 2.63-.11 2.07-2.21 4.39-2.37a.93.92-76.4 0 0 .74-.46l10.33-17.53z" class="B"/><path d="M208.43 180.14q.4 1.35 1.09 2.28a1.39 1.34 78.2 0 0 .75.51l9.02 2.26 1.66.33a.67.66 34.5 0 1 .23 1.21q-1.15.73-2.55-.22-.9-.6-1.5-.44a.33.33 0 0 0-.09.59q2.49 1.57 3.29 2.9a2.01 1.92-64.5 0 1 .29.88q.37 4.32-.47 5.6a14.09 14.09 0 0 1-8.74 6.04q-5.71 1.3-11.39-.62a5.01 5 82.2 0 1-2.56-1.95l-4.02-5.95a1.58 1.58 0 0 1 .11-1.92l1.2-1.4a1.12 1.12 0 0 1 1.75.06l6.94 9.16a1.6 1.6 0 0 0 1.28.64h.64a.32.31 67.4 0 0 .22-.54q-3.3-3.25-4.78-6.31a2.21 2.16-89.4 0 0-.92-.96l-2.11-1.13a1.39 1.36 1.1 0 1-.55-.56q-.99-1.83-.03-3.57l1.05-.44q1.17 3.44 3.94 5.9a.41.4-78.9 0 0 .65-.44l-2.34-6.72q1.66-.52 1.82-1.2l4.38 9.51a2.01 2-86.3 0 0 .76.87q1.9 1.21 3.85 3.52.81.96 2.15.86a.53.52 67.5 0 0 .36-.87q-5.25-5.95-8.93-12.87a1.02 1.01-13.9 0 1 .9-1.49h.36a2.53 2.52 74.9 0 1 2.18 1.26l4.15 7.18a.17.17 0 0 0 .31-.03q.3-.95.08-1.32-1.82-3.08-2.01-4.45a.72.69 18.6 0 0-.23-.44q-.86-.8-.7-1.64a.74.71 26.2 0 0-.25-.69l-2.15-1.83a.53.51-77.5 0 1-.17-.28q-.26-1.04 1.08-1.28z" class="D"/><path d="M86.72 216.84l4.59-8.06 2.17-3.81a.62.62 0 0 0-.75-.89q-1.47.53-2.32.16l-2.51-3.99q-.06-2.23 2.5.04a.54.54 0 0 0 .83-.68l-4.86-8.42a2.01 1.98-60 0 1-.27-1.04c.03-1.1.1-1.71-.63-2.42q-1.27-1.22-3.17-3.62a1.07 1.07 0 0 1-.11-1.17l.36-.65a.22.22 0 0 1 .4.01q.5 1.08 1.41 1.52a1.69 1.64-6 0 1 .56.44q1.39 1.63 1.99 3.23a1.67 1.66-87.2 0 0 .8.89q5.17 2.6 8.48 7.27a2.76 2.71-60.7 0 1 .48 1.76q-.2 2.45 2.71 4.79a1.86 1.85 34.5 0 1 .45 2.37l-7.54 13.15a3.75 3.59 68.2 0 0-.35.87q-.73 2.89-2.64 4.86a2.53 2.25 83.2 0 0-.43.62q-4.98 10.02-6.55 12.78-.27.47-.38.54a.77.76-11.1 0 1-1.15-.77q1.24-8.1 6.21-13.88a1.02 1 12.6 0 1 .53-.33l1.3-.35a.59.58-44.7 0 0 .01-1.13q-3.57-.95-2.12-4.09z" class="B"/><path d="M270.33 184.53q-.64.84-.18.55-.65.05.18-.55z" class="C"/><path d="M200.49 185.33l2.34 6.72a.41.4-78.9 0 1-.65.44q-2.77-2.46-3.94-5.9.76-1.65 2.25-1.26z" class="B"/><path d="M179.2 195.35q-.99-.83-1.26-1.64a.31.31 0 0 1 .47-.36l.36.24a.57.57 0 0 0 .88-.47v-2.9a1.12.99-33.4 0 1 .14-.52q.85-1.49.42-3.25l1.89 1.47a1.56 1.25 5 0 1 .23.22q1.04 1.31-.47 2.42a1.52 1.47-10.9 0 0-.54.77q-.64 2.08-2.12 4.02z" class="C"/><path d="M26.99 189.63q.42.46-.26 1.48l-.81-.39a.44.44 0 0 1 .07-.82l1-.27zm230.3 3.32q-.5-.25-.28-.75.25.37.28.75zm-6.96 21.32q-1.09 2.38-3.91 6.41-1.9 2.72-4.33.74-2.23-1.82-5.13-4.53-2.08-3.03-5.99-6.11-.84-.66-2.47-5.27a.99.98 52.9 0 1 .12-.91q.29-.41 3.75-6.7.98-1.77 1.99-2.54a.88.88 0 0 1 1.4.78l-.2 2.2a.24.24 0 0 0 .3.26q.34-.09 1.01.63 4.16 4.39 10.25 9.81 1.39 1.25 2.83 1.9a1.15 1.12 6.8 0 1 .63.78q.31 1.54-.25 2.55zm-5.73 1.54q-.81.06-1.86-.55a.75.72-83.4 0 1-.34-.45l-1.76-6.55a.88.87 88.2 0 0-.66-.63q-2.84-.59-3.24-.55-3.25.37-4.73.06a.48.48 0 0 0-.49.74q1.15 1.67 2.8 3.05 4.59 3.84 9.12 8.03a.73.73 0 0 0 1.02-.04q.85-.89.91-2.37a.71.71 0 0 0-.77-.74z" class="B"/><path d="M122.97 209.76c1.15 5.96 4.82 9.86 9.62 15.89q2.2 2.76 5.41 4.76a.54.53 30.1 0 0 .76-.2l9.31-17.25a1.62 1.62 0 0 0-1.34-2.39l-3.45-.18q1.21 0 2.29-.16a.58.55 57 0 0 .19-1.03q-.09-.07-.13-.25a.11.11 0 0 1 .14-.13q3.27 1.2 3.73 1.21 3.89.05 35.57.85a.55.55 0 0 1 .44.86l-8.05 11.99a1.73 1.65 70.2 0 0-.22.5c-.84 3.52-2.46 5.01-4.57 7.8a1.61 1.55 64.5 0 0-.32.96c0 2.72-2.14 3.69-3.23 5.63q-1 1.79-4.11 6.94c-1.9 3.16-4.7 1.8-7.32 1.85q-15.99.31-38.93.2-3.49-.02-6.94.44a.59.59 0 0 1-.59-.87l3.14-5.82a.36.36 0 0 0-.42-.52q-4.18 1.18-8.86-1.09-1.7-.83-1.92-3.26-.52-5.69-1.05-13.56a2.51 2.48-62.4 0 0-.33-1.08q-.62-1.06-.32-1.96a.39.39 0 0 0-.45-.5q-1.2.25-1.59-1.24a1.01 1.01 0 0 1 .13-.82c.82-1.29 1.46-3.88 2.46-5.59q2.12-3.62 6.9-14.07 1.14-2.49 3.82-2.17 5.87.69 9.84.5c2.2-.11 4.15.34 6.25.03q2.4-.36 6.07.34a1.01 1.01 0 0 1 .59 1.63q-1.04 1.28-1.11 2.97a.58.58 0 0 1-.86.49l-1.78-.96a1.66 1.6 58 0 0-.76-.19l-15.5-.21a1.15 1.14 71.7 0 0-.92 1.84q3.89 5.12 8.41 7.82zm-3.168.526a2.89.99-49.1 0 0-2.641 1.536 2.89.99-49.1 0 0-1.144 2.833 2.89.99-49.1 0 0 2.641-1.536 2.89.99-49.1 0 0 1.144-2.833zM258.98 200.9q0 .05.01.3a.84.82-74.8 0 0 .36.65l1.76 1.17a.52.52 0 0 1 .06.82q-1.96 1.83-4.9 1.68a.36.36 0 0 1-.29-.54l2.56-4.19a.24.24 0 0 1 .44.11z" class="C"/><path d="M70.03 226.46c-1.66-.84-1.78-2.59-3.89-2.81a1.08 1.08 0 0 1-.83-1.6l7.23-13.04a1.04.9-14.1 0 1 .12-.17q2.23-2.22 5.86-1.66a1.01 1.01 0 0 0 .9-.3q.49-.49.49-.97a.71.71 0 0 1 .25-.56q1.63-1.39 2.15-3.81a.82.82 0 0 1 1.51-.24l.83 1.44a3.17 3.16 43.5 0 1 .08 3.02q-7.69 15.09-12.12 23.36-.21.39-.52.56a.88.76 76.6 0 1-1.14-.82q-.02-.9-.35-1.76a1.19 1.18 3.5 0 0-.57-.64z" class="B"/><path d="M91.31 208.78q-.12-.23-.21-.53-.12-.35-.29-.46-.39-.25-.77-.01a.66.65-3 0 1-.95-.84q.68-1.33 1.32-2.7.85.37 2.32-.16a.62.62 0 0 1 .75.89l-2.17 3.81zm153.29 7.03a.71.71 0 0 1 .77.74q-.06 1.48-.91 2.37a.73.73 0 0 1-1.02.04q-4.53-4.19-9.12-8.03-1.65-1.38-2.8-3.05a.48.48 0 0 1 .49-.74q1.48.31 4.73-.06.4-.04 3.24.55a.88.87 88.2 0 1 .66.63l1.76 6.55a.75.72-83.4 0 0 .34.45q1.05.61 1.86.55z" class="D"/><g class="B"><path d="M143.28 210.39l3.45.18a1.62 1.62 0 0 1 1.34 2.39l-9.31 17.25a.54.53 30.1 0 1-.76.2q-3.21-2-5.41-4.76c-4.8-6.03-8.47-9.93-9.62-15.89l20.31.63z"/><ellipse cx="0" cy="0" transform="matrix(.654741 -.755853 .755853 .654741 117.91 212.47)" rx="2.89" ry=".99"/><path d="M413.45 217.91l-1.42.07q.66-.2 1.42-.07zm-26.25.46l-10.86.1 10.86-.1z"/></g><path d="M111.68 251.52l-14.69.31a5.37 5.25-52 0 0-.97.13q-3.65.86-7.27.16c-2.41-.47-5.36-.33-8.03-1.21l-8.68.04-2.39.66q-1.33-.79-2.4-.93l-1.22-.54q-.37-.74-.46-1.59l-8.53-14.29q.18.04.31-.06a.15.14-30.3 0 0 .05-.17q-.1-.31-.31-.37l-5.77-11.93q.51-.63 1.18-.37.51.19.9.94 6.83 13.15 14.83 26.52a.63.62-19 0 0 .63.3q1.61-.23 3.78-.38c1.62-.11 3.64.73 4.96-.8a1.05 1.03 19.6 0 1 .8-.37c.94-.02 1.75.69 2.88.87q5.66.9 11.84-.23a3.25 3.18 41.2 0 1 .91-.05q1.51.12 10.91.94.81.07.85.79a.54.53 2 0 0 .46.49q.82.13 4.56.11 1.03-.01.87 1.03zm71.9-14.01q-.65.84.23 1.51a1.07 1.07 0 0 0 1.72-.84q.01-.3-.3-.86l5.25-.28a.43.43 0 0 0 .3-.71l-3.93-4.57a.85.85 0 0 1 .87-1.38l2.72.76a2.47 2.45 80.4 0 1 1.38.99l2.38 3.51a1.99 1.97-48 0 1 .1 2.05q-2.83 5.29-3.65 6.93-.8 1.57-1.69 1.96a1.07 1.07 0 0 1-1.29-1.62l1.43-1.97a.88.88 0 0 0-.71-1.39h-5.3a.99.98 21.8 0 0-.71.3q-2.3 2.32-2.49 5.01a.64.64 0 0 1-.57.6q-1.33.15-2.27-.06a.7.7 0 0 1-.45-1.02l4.86-9.01a.9.63-88.7 0 1 .14-.19q1.56-1.63 1.98.28zm23.22 4.65l-4.58-.63a2.37 2.37 0 0 0-2.4 1.22l-1.99 3.7a1.94 1.94 0 0 1-1.96.99l-.28-.04a.78.77-72 0 1-.57-1.13l4.38-8.1a1.89 1.87 14 0 1 1.66-.99h8.08a.61.61 0 0 0 .28-1.15l-2.01-1.09a.76.75 37.1 0 1-.17-1.21c1.9-1.84 3.14-1.29 4.04.99q.35.87 1.23 2.04a1.39 1.38 42.6 0 1 .07 1.54q-2.32 3.77-4.31 7.91c-.54 1.12-2.12.9-2.59-.19a.88.87-36.7 0 1 .14-.92q.99-1.15 1.32-2.43a.41.41 0 0 0-.34-.51z" class="C"/><path d="M57.04 234.26q-.16-.61.05-.6.21.06.31.37a.15.14-30.3 0 1-.05.17q-.13.1-.31.06zm128.19 3.06q.31.56.3.86a1.07 1.07 0 0 1-1.72.84q-.88-.67-.23-1.51l1.65-.19zm-119.2 12.82q-.58.39-.46-1.59.09.85.46 1.59zm3.62 1.47q-1.76.41-2.4-.93 1.07.14 2.4.93zm11.07-.7l-8.68.04 8.68-.04zm74.44 3.89q.02-.22.51-.71a.17.17 0 0 1 .24 0q.26.27.12.66a.5.38-40.7 0 1-.87.05z" class="B"/></svg>