<?xml version="1.0" encoding="UTF-8" standalone="no"?>
<!-- Created with Inkscape (http://www.inkscape.org/) -->

<svg
   version="1.1"
   id="svg1"
   width="163.84"
   height="135.67999"
   viewBox="0 0 163.84 135.67999"
   xmlns="http://www.w3.org/2000/svg"
   xmlns:svg="http://www.w3.org/2000/svg">
  <defs
     id="defs1" />
  <g
     id="g1">
    <path
       style="fill:currentColor"
       d="m 84.972332,135.27999 c -0.07017,-0.22 -0.278111,-1.76029 -0.462095,-3.42288 l -0.334516,-3.02288 -0.487861,-0.27302 c -0.6491,-0.36325 -0.61614,-0.82987 0.186847,-2.64515 l 0.67471,-1.5253 -0.213196,-3.07538 c -0.219367,-3.16442 -0.678843,-7.59903 -1.006623,-9.71539 -0.232286,-1.49979 -1.00971,-1.60801 -1.149325,-0.16 l -0.100275,1.04 -1.2,0.29644 -1.2,0.29644 -0.01845,0.82356 c -0.01015,0.45296 -0.284464,1.83156 -0.609596,3.06356 -0.325133,1.232 -0.478844,2.35879 -0.34158,2.50398 0.137263,0.14518 -0.0058,0.93718 -0.317897,1.76 l -0.567466,1.49602 -1.232507,0.24767 c -0.677879,0.13621 -5.156508,0.33606 -9.952507,0.4441 l -8.72,0.19643 v 0.84002 0.84002 l -0.72,0.31588 c -0.396,0.17374 -0.925988,0.78388 -1.17775,1.35588 l -0.457749,1.04 h -1.542251 -1.54225 v 1.08455 c 0,0.5965 -0.252,1.3819 -0.56,1.74532 l -0.56,0.66077 -1.92,0.0634 c -1.056,0.0349 -2.136,0.16842 -2.4,0.29682 -0.264,0.1284 -10.11321,0.33883 -21.887134,0.46762 L 3.7457309,132.55261 1.8728655,131.65746 0,130.76232 l 0,-0.67688 0,-0.67688 1.1126881,-0.40235 c 0.6119785,-0.2213 3.9599784,-2.30999 7.4399999,-4.64155 3.480021,-2.33155 9.747312,-6.45516 13.927311,-9.16356 l 7.6,-4.92437 0,-0.55294 0,-0.55294 0.97919,-0.21507 0.979189,-0.21507 0.300811,-0.79119 c 0.34599,-0.91002 0.40335,-5.59683 0.08781,-7.17455 l -0.213004,-1.065018 -0.186996,0.527908 c -0.102848,0.29035 -0.109481,2.01161 -0.01474,3.82502 0.186923,3.57788 0.126168,4.09711 -0.479395,4.09711 h -0.398668 l -0.0085,-2 c -0.01293,-3.05635 -0.06211,-3.49237 -0.372291,-3.30066 -0.38581,0.23844 -0.565,-1.68834 -0.637917,-6.859335 -0.0335,-2.376 -0.145483,-4.85922 -0.248842,-5.518266 -0.219933,-1.402357 0.25984,-2.161734 1.36578,-2.161734 0.414754,0 1.657122,-0.279326 2.760818,-0.620725 1.103695,-0.341399 2.858556,-0.809399 3.89969,-1.04 l 1.89297,-0.419275 0.08525,-0.604503 c 0.04689,-0.332478 -0.125923,-0.92679 -0.384019,-1.320694 l -0.469265,-0.71619 0.383855,-0.842471 0.383856,-0.842472 -0.667645,-0.716835 -0.667645,-0.716834 0.248546,-1.28 c 0.239971,-1.23584 0.525771,-1.852487 3.443362,-7.429447 l 1.342232,-2.565669 -0.446888,-1.694073 c -0.245789,-0.931741 -0.60654,-1.792744 -0.801669,-1.91334 -0.53388,-0.329956 -1.577415,-3.940146 -1.253804,-4.337633 0.253529,-0.311407 -1.737244,-7.653785 -2.224163,-8.203169 -0.108867,-0.122833 -1.92594,-0.524368 -4.03794,-0.892301 -2.112,-0.367933 -4.588833,-0.816155 -5.504073,-0.996049 L 27.551853,50.841235 18.544769,39.638441 C 13.590874,33.476903 9.629154,28.344178 9.7409483,28.232383 9.9587887,28.014543 9.925775,28.00968 36.93782,32.238222 l 17.89782,2.801776 1.44024,2 c 0.792132,1.1 1.622957,2 1.846279,2 0.223321,0 0.541822,0.242633 0.707781,0.539184 l 0.301743,0.539185 0.914158,-0.610348 c 0.502787,-0.335691 1.022158,-0.578324 1.154158,-0.539184 0.132,0.03914 0.214032,-0.03684 0.182295,-0.168837 -0.09453,-0.393136 1.151158,-2.316264 1.497705,-2.312208 0.305152,0.0036 2.4,2.333962 2.4,2.669854 0,0.08838 0.137499,0.522341 0.305554,0.964358 l 0.305554,0.803668 2.654445,-0.894342 2.654446,-0.894341 -0.0042,-1.408495 c -0.0023,-0.774671 -0.09663,-2.020526 -0.20956,-2.768566 -0.112926,-0.74804 -0.09902,-1.294374 0.03091,-1.214076 0.129925,0.0803 0.236227,-0.05734 0.236227,-0.305852 0,-0.248516 -0.0975,-0.391589 -0.216665,-0.317941 -0.119166,0.07365 -0.369687,-0.364686 -0.556715,-0.974076 -0.192002,-0.6256 -0.213771,-1.107983 -0.05,-1.107983 0.159526,0 0.02528,-0.264767 -0.298325,-0.588372 l -0.588373,-0.588373 0.188373,-1.408647 0.188372,-1.408648 0.944768,-0.163484 0.944767,-0.163484 2.639695,-13.119495 C 75.90106,6.3837728 77.095914,0.37199998 77.10446,0.23999999 c 0.05818,-0.89858803 5.634874,1.23804891 16.495538,6.32004441 1.408,0.6588409 8.679132,3.8554896 16.158072,7.1036626 7.47894,3.248174 13.65784,5.965535 13.73088,6.03858 0.15741,0.157411 -10.4885,27.367174 -10.87039,27.783505 -0.15008,0.163615 -1.42827,-0.215162 -2.98983,-0.886004 -1.50023,-0.644489 -2.94842,-1.256503 -3.21821,-1.360031 L 105.92,45.051525 v 0.763034 c 0,0.419669 0.23332,1.096146 0.51849,1.503283 0.28517,0.407137 0.60917,1.473321 0.72,2.369299 l 0.20151,1.62905 2.32,0.961972 c 1.44887,0.600765 2.32,1.14567 2.32,1.451204 0,0.269078 -0.24021,1.118207 -0.5338,1.886953 l -0.53379,1.39772 -0.75889,-0.145071 c -0.41739,-0.07979 -0.71718,-0.05152 -0.66621,0.06282 0.051,0.114338 1.09052,2.462693 2.3101,5.218567 l 2.21741,5.01068 0.98259,-0.179509 c 0.54042,-0.09873 1.31267,-0.385268 1.7161,-0.636751 0.40344,-0.251483 1.19544,-0.402485 1.76,-0.335561 0.56457,0.06692 1.94116,-0.08488 3.0591,-0.337329 l 2.03262,-0.459009 1.22563,0.913561 c 0.6741,0.502459 7.96036,6.025561 16.19169,12.273561 8.23132,6.247999 15.69311,11.853491 16.58175,12.456649 3.09215,2.098787 5.99512,4.571927 5.70595,4.861101 -0.15719,0.157181 -6.10979,0.921374 -13.22802,1.698206 L 137.12,98.828374 131.2402,94.614185 c -3.23389,-2.317805 -6.04189,-4.172624 -6.24,-4.121822 -1.69795,0.435411 -8.78376,3.488834 -9.1602,3.94732 -0.51894,0.632045 -4.06496,1.976821 -4.5014,1.707088 -0.14647,-0.09052 -2.23053,0.656129 -4.63125,1.659226 l -4.36494,1.823813 -0.28731,0.75567 -0.28731,0.75568 0.3961,0.63918 0.39611,0.63918 -0.46472,0.28912 c -0.2556,0.15902 -0.58383,0.21551 -0.72941,0.12554 -0.14558,-0.09 -0.76882,0.92753 -1.384972,2.26111 l -1.12028,2.4247 h -1.251425 c -1.300378,0 -1.651485,0.27645 -1.790091,1.40943 -0.04512,0.36881 -0.876128,2.69631 -1.846683,5.1722 -2.238556,5.71057 -2.772421,7.79498 -2.772421,10.82456 v 2.43381 h -0.429335 c -0.247633,0 -0.67964,0.8267 -1.020766,1.95336 -0.538802,1.77955 -1.163539,2.57967 -1.641226,2.10198 -0.101049,-0.10105 -0.257039,-0.83416 -0.346645,-1.62914 l -0.16292,-1.44542 -0.560921,0.30019 -0.560921,0.3002 -0.218944,2.80942 c -0.120419,1.54518 -0.291508,3.06141 -0.380197,3.36941 -0.186888,0.64903 -0.719793,0.74316 -0.905791,0.16 z m -33.016613,-27.28 c 0.101307,-0.264 0.04471,-0.48 -0.125763,-0.48 -0.170477,0 -0.309957,0.216 -0.309957,0.48 0,0.264 0.05659,0.48 0.125763,0.48 0.06917,0 0.208651,-0.216 0.309957,-0.48 z m 9.056209,-7.6 c -0.08877,-0.22 -0.161403,-0.04 -0.161403,0.4 0,0.44 0.07263,0.62 0.161403,0.4 0.08877,-0.22 0.08877,-0.58 0,-0.8 z M 36.319999,99.519995 c -0.879707,-0.378024 -1.384949,-0.378024 -0.8,0 0.264,0.17061 0.696,0.302283 0.96,0.292608 l 0.48,-0.01759 z m 24.371929,-1.68 c -0.08877,-0.22 -0.161403,-0.04 -0.161403,0.4 0,0.44 0.07263,0.62 0.161403,0.4 0.08877,-0.22 0.08877,-0.58 0,-0.8 z M 110.72,94.851522 c 0,-0.453478 3.2772,-1.731527 4.44002,-1.731527 0.47469,0 2.76751,-0.764361 5.09515,-1.69858 l 4.23208,-1.698579 -6.26739,-4.560584 C 114.77279,82.653931 111.77,80.53165 111.54698,80.446071 l -0.40548,-0.155597 -3.91051,8.73476 c -2.15078,4.804118 -3.98553,8.905669 -4.07723,9.114558 -0.0917,0.208888 1.57319,-0.36391 3.69975,-1.272884 2.12657,-0.908974 3.86649,-1.815898 3.86649,-2.015386 z m 2.87073,-0.119028 c 0.2589,-0.163735 0.38751,-0.38092 0.2858,-0.482632 -0.25208,-0.25208 -1.23653,0.149468 -1.23653,0.504369 0,0.364732 0.35237,0.356675 0.95073,-0.02174 z M 60.775406,93.839995 c -0.01353,-0.308 -0.205143,-1.136 -0.425817,-1.84 l -0.401225,-1.28 0.0931,1.76 c 0.0512,0.968 0.09882,1.796 0.105817,1.84 0.007,0.044 0.156719,0.08 0.332719,0.08 0.176,0 0.308933,-0.252 0.295407,-0.56 z M 47.316764,61.628879 c 1.786216,-3.504114 3.180412,-6.438372 3.098211,-6.520572 -0.210806,-0.210806 -10.181157,-2.008795 -10.327548,-1.862404 -0.22659,0.226589 1.962287,7.393649 2.355946,7.714094 0.512037,0.416806 1.501291,3.891763 1.231967,4.327538 -0.188019,0.304221 0.115803,3.05349 0.310978,2.814024 0.04553,-0.05586 1.544229,-2.968565 3.330446,-6.47268 z m -4.888478,1.172738 c -0.349568,-0.349568 -0.589272,0.206354 -0.338297,0.784579 l 0.249055,0.573801 0.138765,-0.585047 c 0.07632,-0.321775 0.05403,-0.669775 -0.04952,-0.773333 z m 34.314306,-27.940862 0.997886,-2.259244 -1.67024,-0.776504 -1.67024,-0.776505 -0.107129,0.494783 c -0.05892,0.27213 0.121079,1.065131 0.4,1.762223 0.278921,0.697093 0.507129,1.840527 0.507129,2.540966 0,0.700438 0.12256,1.273524 0.272354,1.273524 0.149795,0 0.721403,-1.01666 1.27024,-2.259243 z m 5.177406,0.410902 1.44,-0.177637 -1.587203,-0.732028 -1.587202,-0.732027 -0.412797,0.981756 c -0.532808,1.267177 -0.522524,1.341735 0.147202,1.067161 0.308,-0.126273 1.208,-0.309525 2,-0.407225 z"
       id="path1" />
  </g>
</svg>
