<?xml version="1.0" encoding="UTF-8" standalone="no"?>
<!-- Created with Inkscape (http://www.inkscape.org/) -->

<svg
   version="1.1"
   id="svg1"
   width="682.66669"
   height="569.33331"
   viewBox="0 0 682.66669 569.33331"
   xmlns="http://www.w3.org/2000/svg"
   xmlns:svg="http://www.w3.org/2000/svg"
   xmlns:rdf="http://www.w3.org/1999/02/22-rdf-syntax-ns#"
   xmlns:cc="http://creativecommons.org/ns#"
   xmlns:dc="http://purl.org/dc/elements/1.1/">
  <title
     id="title1">Sentinel-5 (a) Icon SVG</title>
  <defs
     id="defs1" />
  <g
     id="g1">
    <path
       style="fill:currentColor"
       d="m 278.66667,555.43156 c -15.76666,-7.50228 -28.66666,-14.41487 -28.66666,-15.36132 0,-0.94644 4.8,-4.42831 10.66666,-7.73748 5.86667,-3.30918 10.9493,-6.27043 11.29472,-6.58056 2.25937,-2.02851 -30.48021,-14.9441 -45.03237,-17.76503 -16.86808,-3.26988 -17.58265,-3.5887 -18.51729,-8.26191 -0.65678,-3.2839 -1.25469,-3.78651 -3.59966,-3.02595 -1.54664,0.50163 -4.70926,1.20897 -7.02806,1.57187 -5.05429,0.79102 -7.82791,-2.54699 -9.18578,-11.05496 -0.84297,-5.28174 -1.19581,-5.60263 -11.40072,-10.3685 -5.79196,-2.70495 -10.53084,-5.49812 -10.53084,-6.20704 0,-0.70893 2.18725,-6.75377 4.86056,-13.43297 5.59441,-13.97755 6.17726,-12.81046 -8.92633,-17.87395 -13.21113,-4.42904 -15.29662,-6.05935 -17.94296,-14.02672 -2.9375,-8.84399 -9.57305,-12.51478 -18.42613,-10.19336 -2.70404,0.70904 -6.15712,0.0324 -12.22741,-2.39614 -10.1765,-4.07125 -12.19148,-4.12697 -23.302751,-0.64447 -8.078545,2.53199 -9.035552,2.57326 -14.933903,0.644 -3.466218,-1.13374 -11.488531,-4.53743 -17.827363,-7.56375 -11.395763,-5.44062 -11.515807,-5.54908 -10.693028,-9.6612 0.457666,-2.28734 1.362651,-9.2588 2.011078,-15.49213 0.648427,-6.23334 1.600849,-12.68458 2.116493,-14.33609 0.803167,-2.57241 0.198541,-3.31434 -4.218695,-5.17675 -5.399456,-2.27654 -9.582337,-2.54606 -17.8461,-1.14991 -3.860458,0.65222 -5.140896,0.36028 -5.785323,-1.31908 -0.481783,-1.2555 -0.276841,-1.81629 0.490465,-1.34207 0.724934,0.44804 1.318061,0.1792 1.318061,-0.59741 0,-0.77662 -0.9,-1.41203 -2,-1.41203 -2.903454,0 -2.461351,-1.76841 1.333333,-5.33333 2.662441,-2.50123 3.333334,-4.42651 3.333334,-9.56575 0,-5.47348 -0.385277,-6.43425 -2.580195,-6.43425 -1.48742,0 -4.169739,2.24097 -6.333333,5.29125 -3.642141,5.13477 -6.764622,7.47505 -8.13931,6.10036 -0.369139,-0.36914 0.616738,-4.03665 2.190838,-8.15003 3.398493,-8.88081 3.487878,-9.90825 0.861999,-9.90825 -1.1,0 -2,-0.59999 -2,-1.33333 0,-0.73333 0.9,-1.33333 2,-1.33333 2.68373,0 2.551428,-2.53876 -0.187065,-3.58962 -2.009905,-0.77127 -2.003442,-0.97352 0.07979,-2.49682 1.444536,-1.05627 1.754233,-1.97438 0.853732,-2.53092 -0.777217,-0.48034 -1.413121,-1.48688 -1.413121,-2.23674 0,-0.74987 2.02082,-0.11446 4.490712,1.41202 2.469892,1.52648 5.769892,2.77541 7.333333,2.77541 2.678323,0 2.842622,-0.65505 2.842622,-11.33333 0,-10.56758 -0.186247,-11.33333 -2.756517,-11.33333 -3.001253,0 -2.777716,-2.31898 0.92543,-9.60046 1.157462,-2.27591 1.831087,-8.09592 1.831087,-15.82029 l 0,-12.21985 -7.666667,0.92776 c -8.333551,1.00846 -13.6666671,3.63999 -13.6666671,6.74357 0,1.0831 -0.5358068,1.96927 -1.1906817,1.96927 -1.4443332,0 -2.8093185,-3.29217 -2.8093185,-6.77572 0,-1.40669 -0.6,-2.55762 -1.3333333,-2.55762 C 0.49673204,257.33332 0,248.88888 0,234.66666 v -22.66667 h 3.0666668 c 5.8569874,0 8.6160122,7.05703 4.1938716,10.72708 -1.1400373,0.94615 -2.6865116,2.86701 -3.4366094,4.26858 -1.2739174,2.38034 -0.901292,2.5194 5.6530543,2.10966 6.6468247,-0.41552 7.1748977,-0.20676 10.0134697,3.9586 1.648131,2.41848 3.206685,5.02749 3.463454,5.7978 0.256769,0.77031 3.226682,1.71163 6.599807,2.09183 4.918181,0.55435 6.911368,0.11577 10.062879,-2.21424 2.161458,-1.59804 10.174656,-4.72873 17.807106,-6.95709 7.63245,-2.22837 15.991746,-5.13034 18.576212,-6.44884 2.584467,-1.31849 8.982319,-3.69827 14.217449,-5.28839 14.23027,-4.32231 14.31549,-4.42825 15.23422,-18.93642 l 0.78788,-12.4419 -4.45306,-5.00384 c -2.487697,-2.79539 -4.453064,-6.45261 -4.453064,-8.28642 0,-5.43757 8.365984,-8.15328 12.471014,-4.04825 5.16208,5.16208 15.77219,6.11013 22.49676,2.01016 5.25147,-3.20182 8.12721,-3.3687 10.4211,-0.60473 2.60955,3.14432 -0.70911,5.62843 -12.20021,9.13217 l -9.85533,3.00498 -0.88319,6.56463 c -1.3875,10.31305 -1.25958,19.2313 0.27584,19.2313 1.88111,0 13.66254,-2.88937 49.27402,-12.08434 16.5,-4.26034 33.3,-8.14052 37.33333,-8.6226 4.03334,-0.48209 7.36685,-0.97025 7.40782,-1.0848 0.041,-0.11454 3.08321,-4.40826 6.76055,-9.54159 15.79145,-22.04385 19.6334,-27.97837 24.83274,-38.35824 5.14632,-10.27401 5.53367,-11.84412 6.06377,-24.57908 0.46467,-11.16317 0.0611,-15.26716 -2.2493,-22.873654 -3.42061,-11.261588 -3.48493,-13.362484 -0.48224,-15.751538 7.16628,-5.701783 28.99119,-20.437487 30.26975,-20.437487 0.82595,0 8.93464,9 18.01932,20 9.08468,10.999999 17.0111,19.999999 17.61426,19.999999 2.504,0 0.41622,-3.437093 -12.99568,-21.394604 -7.75079,-10.377723 -14.39289,-19.651798 -14.76022,-20.609057 -0.83367,-2.172492 2.00006,-2.800397 48.50992,-10.748967 19.97821,-3.414291 37.67821,-5.851516 39.33333,-5.416055 2.54867,0.670551 9.09783,7.488964 28.77745,29.96055 4.46594,5.099532 1.04988,0.163879 -10.82297,-15.637441 -5.71349,-7.603967 -10.16921,-14.499426 -9.90159,-15.323242 0.56769,-1.747513 14.38319,-4.674902 44.50271,-9.429754 32.34769,-5.106604 28.46208,-6.202495 45.85159,12.931905 14.74311,16.222454 22.27915,22.823199 13.1889,11.552024 -22.15938,-27.475845 -24.38091,-30.552023 -22.06379,-30.552023 0.28763,0 10.93763,-1.767305 23.66666,-3.927344 12.72904,-2.160039 26.93576,-4.217506 31.57049,-4.57215 l 8.4268,-0.644808 8.63263,7.323293 8.63264,7.323292 -6.09146,-8.274665 c -3.35031,-4.551066 -5.69491,-8.63908 -5.21023,-9.084475 0.48468,-0.445395 1.1597,-0.02801 1.50004,0.927527 0.48792,1.369889 0.94281,1.32234 2.15079,-0.224814 1.93447,-2.4776224 20.52597,-5.0262626 21.40117,-2.9338073 0.41966,1.0033276 0.9184,1.0005916 1.69599,-0.0093 1.45193,-1.8857057 6.17236,-3.6354218 5.09207,-1.887472 -0.44804,0.7249334 0.1208,1.3180607 1.26408,1.3180607 1.14328,0 2.07869,-0.5820589 2.07869,-1.2934643 0,-2.0191519 9.79152,-0.9427056 11.76554,1.2934643 0.97105,1.1 1.41127,1.2914589 0.97825,0.4254644 -0.43301,-0.8659945 -0.1775,-1.9514047 0.56779,-2.4120226 0.7453,-0.4606178 1.35509,-0.1020768 1.35509,0.7967578 0,0.8988347 0.3855,1.2487444 0.85667,0.7775773 0.47116,-0.4711672 0.0977,-1.7711671 -0.82993,-2.8888888 -1.41813,-1.7087416 -1.24996,-2.0322212 1.05653,-2.0322212 3.79128,0 9.87787,2.4448328 9.12387,3.6648294 -0.34099,0.5517361 0.88876,2.8028596 2.73277,5.002497 1.84401,2.199637 2.89419,3.156635 2.33374,2.126662 -0.72304,-1.328765 -0.51324,-1.560099 0.72232,-0.796476 1.40211,0.866547 1.35459,1.361238 -0.24391,2.539345 -2.9984,2.209851 -2.4721,6.373754 1.32075,10.449234 1.8697,2.009017 2.95611,4.096092 2.41426,4.637945 -0.54185,0.541853 -3.34855,-1.701889 -6.2371,-4.986092 -2.88855,-3.284203 -5.85147,-5.821278 -6.58428,-5.637945 -0.7328,0.183333 -1.18236,-0.116667 -0.99903,-0.666667 0.18334,-0.55 -0.26666,-1.15 -1,-1.333333 -0.73333,-0.183333 -1.40833,0.266667 -1.5,1 -0.0917,0.733333 -0.24166,1.997527 -0.33333,2.809318 -0.0917,0.811792 -1.00279,1.155133 -2.02473,0.76298 -2.57444,-0.987906 -8.25451,5.12206 -6.0362,6.493051 0.90179,0.557337 1.32364,0.470635 0.93745,-0.192671 -0.3862,-0.663307 0.29252,-2.225567 1.50827,-3.47169 2.078,-2.129926 2.21045,-2.115819 2.21045,0.235441 0,1.375616 -0.56594,2.151349 -1.25765,1.72385 -0.71666,-0.442918 -0.93437,0.458947 -0.50613,2.096564 0.41334,1.580609 0.17195,3.232032 -0.53642,3.66983 -0.72613,0.448774 -0.34165,1.487948 0.88143,2.38228 1.9435,1.421127 1.89259,1.586284 -0.48899,1.586284 -1.4621,0 -2.39263,-0.429969 -2.06784,-0.955487 0.32479,-0.525519 -0.029,-1.338406 -0.78631,-1.806417 -0.75725,-0.468011 -0.95187,-1.55947 -0.43247,-2.425465 0.66074,-1.101655 0.3301,-1.07746 -1.10093,0.08056 -1.12491,0.910304 -2.59008,1.213301 -3.25594,0.673327 -0.66586,-0.539974 0.53116,0.943897 2.66004,3.297491 2.12889,2.353594 4.27889,4.02699 4.77778,3.718657 0.49889,-0.308332 0.97192,0.163002 1.05117,1.04741 0.0792,0.884409 0.38823,2.808015 0.68662,4.274682 0.61138,3.005034 -1.68875,7.509776 -3.3198,6.501733 -1.95789,-1.210039 -1.09666,0.480589 1.18948,2.335007 1.53288,1.243408 1.93501,1.295735 1.25464,0.16326 -0.56268,-0.936586 -0.34829,-1.666667 0.48941,-1.666667 0.8199,0 1.0626,-0.692705 0.53935,-1.539344 -0.60837,-0.984364 -0.36362,-1.176094 0.67887,-0.5318 0.89664,0.55415 1.31555,1.82764 0.93091,2.829978 -0.38463,1.002338 -0.11575,2.183107 0.59752,2.62393 0.71327,0.440824 0.89436,1.452744 0.40243,2.248712 -0.5159,0.834729 -0.27764,1.066014 0.56297,0.546492 0.80156,-0.495397 2.10921,0.161898 2.90587,1.460655 1.36409,2.223812 1.42712,2.216797 1.08195,-0.120416 -0.28503,-1.929944 0.59946,-2.562742 3.97776,-2.845838 2.38937,-0.200225 5.35454,-1.183418 6.58928,-2.184874 1.23474,-1.001455 1.82894,-1.126723 1.32045,-0.278372 -1.75248,2.923762 8.93047,-1.347092 11.85709,-4.740254 2.11327,-2.450161 2.77778,-2.70614 2.77778,-1.070051 0,1.1828 -0.45854,1.867152 -1.01898,1.520781 -0.56044,-0.34637 -1.39585,-0.01998 -1.85647,0.725319 -0.46062,0.745295 -0.0521,1.345894 0.90787,1.334665 2.13648,-0.02499 6.33283,-2.597209 4.28382,-2.625832 -0.8148,-0.01138 -1.46154,-2.399356 -1.46154,-5.396486 0,-3.305842 0.56281,-5.188464 1.46154,-4.888888 0.80384,0.267948 1.46154,1.187179 1.46154,2.042735 0,1.589512 2.13205,1.950263 3.33333,0.56401 0.36667,-0.423127 -0.17604,-0.280422 -1.20601,0.317123 -1.28837,0.747454 -1.56335,0.58594 -0.8813,-0.517644 0.76347,-1.235316 1.42766,-1.242008 2.88912,-0.02911 1.21385,1.007403 1.45218,2.111852 0.66135,3.064745 -0.68002,0.819369 -1.33742,2.089761 -1.46089,2.823095 -0.12347,0.733333 -0.57069,1.633333 -0.99382,2 -0.42312,0.366666 -0.27693,-0.233334 0.32488,-1.333334 0.63907,-1.168103 0.59641,-1.544908 -0.10256,-0.905894 -3.69717,3.380035 1.20292,10.335298 7.10256,10.081474 l 3.66667,-0.157753 -4,-1.017827 c -3.80891,-0.969203 -3.73767,-1.025363 1.49129,-1.17558 5.23831,-0.150486 6.01005,0.385126 16.75155,11.6261 13.72226,14.360333 27.75716,30.561445 27.75716,32.041324 0,1.227691 -25.08477,10.355358 -67.01819,24.386098 -22.69974,7.59523 -30.3636,9.58654 -38.95907,10.12279 l -10.7004,0.66758 -7.57125,-6.16749 c -4.16418,-3.39212 -7.93155,-6.16749 -8.37194,-6.16749 -0.44039,0 1.00983,3.43788 3.22271,7.63974 3.19028,6.05776 3.68258,7.97944 2.37744,9.28022 -2.70805,2.69903 -42.14978,15.59731 -60.30272,19.72028 -3.77205,0.85672 -4.99209,-0.13776 -22.32846,-18.20033 -10.08612,-10.50862 -18.34058,-18.4269 -18.34326,-17.59619 -0.003,0.83071 5.74606,9.71527 12.77498,19.74347 7.02891,10.0282 12.50487,18.94965 12.16879,19.82546 -0.90739,2.36464 -61.24707,23.11777 -74.31548,25.55994 -5.19897,0.97157 -6.08508,0.18228 -31.06702,-27.67229 -9.53993,-10.6369 -14.08347,-14.25667 -12.51058,-9.96697 0.33611,0.91667 1.33071,1.5018 2.21021,1.3003 0.87951,-0.2015 1.20839,0.26584 0.73083,1.03853 -0.47755,0.77269 4.95164,9.55492 12.06487,19.51606 7.11323,9.96114 13.21183,19.17688 13.55246,20.47944 0.45258,1.73065 -2.19418,4.49264 -9.83064,10.25865 -5.74748,4.3397 -12.72072,9.26838 -15.49609,10.95262 l -5.04613,3.06225 -17.62054,-8.47059 -17.62053,-8.47059 -17.60907,-0.46277 c -17.3128,-0.45498 -17.86241,-0.37928 -32.66667,4.49942 -8.28168,2.7292 -15.57654,5.43639 -16.21081,6.01598 -0.63427,0.57959 1.3596,2.64008 4.43082,4.57886 7.79841,4.92291 45.29426,23.3685 47.50307,23.3685 2.86822,0 5.53161,6.54987 7.90188,19.43245 2.23389,12.14138 7.66147,35.09172 10.14573,42.90089 1.32522,4.16576 1.65003,4.33333 8.39974,4.33333 6.7978,0 7.20216,0.21459 12.70798,6.74417 3.12772,3.70929 6.07164,6.38362 6.54205,5.94294 0.4704,-0.44068 3.25528,-5.4176 6.18861,-11.05983 5.57136,-10.71645 13.57417,-18.1707 18.33518,-17.07839 1.28434,0.29466 2.06259,0.0947 1.72944,-0.44434 -0.69922,-1.13136 4.22392,-3.34606 21.93539,-9.86778 19.11281,-7.03773 18.46067,-7.11959 24.66666,3.09656 2.94054,4.84065 5.7741,8 7.17503,8 1.27341,0 3.41192,0.80188 4.75225,1.78195 2.34075,1.7116 2.29818,2.19865 -1.0785,12.33788 -1.93349,5.80576 -3.51544,11.27568 -3.51544,12.15538 0,1.90187 8.10844,4.35327 14.66666,4.43411 2.56667,0.0317 11.26667,2.94429 19.33334,6.47254 11.24455,4.91822 15.28887,7.38336 17.33333,10.56521 2.05043,3.19114 3.64954,4.16208 6.91989,4.20157 5.11152,0.0617 20.86484,7.11268 19.42753,8.69548 -0.55775,0.61421 -0.2377,0.66884 0.71122,0.12139 3.90811,-2.25467 12.89645,6.34001 15.10601,14.44443 1.87178,6.86544 0.852,48.30674 -1.2402,50.39895 -1.03478,1.03478 -2.59233,0.96658 -5.50812,-0.24118 -4.6909,-1.94303 -6.04252,-5.75308 -7.58024,-21.36771 l -0.9848,-10 -3.02119,15.79216 c -1.66165,8.68568 -3.93288,17.18356 -5.04716,18.88418 -2.95382,4.5081 -13.99474,13.68429 -31.59863,26.26187 -11.25342,8.0403 -18.8689,14.84665 -27.88063,24.91833 -12.05281,13.47046 -12.46656,14.14985 -14.84946,24.38348 -1.34815,5.78982 -3.73916,13.05437 -5.31335,16.14346 -2.81185,5.51782 -36.70259,41.20667 -41.68383,43.89542 -1.76878,0.95474 -7.53742,0.84877 -18.94837,-0.34809 l -16.40541,-1.72072 -9.91777,4.90163 c -5.45478,2.6959 -11.84147,6.69862 -14.19264,8.89495 -2.67206,2.49607 -5.59677,3.94435 -7.80053,3.8627 -1.93911,-0.0718 -16.42566,-6.26885 -32.19233,-13.77113 z M 649.33335,68.949875 c 0,-0.210901 -3.15,-3.3609 -7,-7 l -7,-6.616544 6.61655,7 c 6.14821,6.504525 7.38345,7.611466 7.38345,6.616544 z m -52.44444,-5.557892 c 0,-1.067742 -0.50979,-1.626283 -1.13286,-1.241203 -0.62308,0.385081 -0.78767,1.258688 -0.36576,1.941349 1.07817,1.744509 1.49862,1.548077 1.49862,-0.700146 z m 6.77777,-2.058652 c 1.16112,0 1.75633,-0.354784 1.32271,-0.788408 -1.39515,-1.395152 -6.41102,0.900149 -5.43129,2.485398 0.6776,1.096378 1.07504,1.070314 1.46381,-0.096 0.29351,-0.880547 1.48366,-1.600995 2.64477,-1.600995 z m 9,-2.361478 c 2.2,-0.785397 3.28906,-1.475364 2.42014,-1.533259 -3.00783,-0.200404 -8.42005,2.502621 -8.39972,4.195069 0.014,1.167214 0.32729,1.240183 1,0.232927 0.53877,-0.806708 2.77958,-2.109339 4.97958,-2.894737 z m -40.66666,-7.475262 c 0,-0.276874 -1.05,-1.326874 -2.33334,-2.333333 -2.11474,-1.658494 -2.1619,-1.611334 -0.5034,0.503407 1.74182,2.220997 2.83674,2.927305 2.83674,1.829926 z m 9.90663,-6.012184 c 0.40187,-0.650241 -0.26029,-2.000241 -1.47148,-2.999999 -1.7282,-1.426531 -2.32347,-1.457258 -2.76586,-0.142769 -0.31005,0.921236 -1.07101,1.361449 -1.69104,0.978251 -0.62003,-0.383198 -1.47164,-0.139607 -1.89247,0.541313 -0.87737,1.419617 1.78073,1.230396 4.23228,-0.301282 1.1312,-0.70675 1.40127,-0.379936 0.85735,1.037494 -0.83433,2.174226 1.47263,2.923436 2.73122,0.886992 z m 14.2682,-27.273753 c -0.81677,-0.98414 -1.19024,-2.18414 -0.82993,-2.666667 0.3603,-0.482526 0.25379,-0.576012 -0.2367,-0.207745 -0.49049,0.368266 -2.14049,-0.372354 -3.66667,-1.645823 -1.52617,-1.273469 -1.01261,-0.374778 1.14126,1.997091 3.79076,4.174446 6.60042,6.148023 3.59204,2.523144 z M 8.0000002,270.82992 c 0,-1.70501 3.9205028,-4.6872 4.8888888,-3.71882 0.968386,0.96839 -2.01381,4.88889 -3.718815,4.88889 -0.6435406,0 -1.1700738,-0.52653 -1.1700738,-1.17007 z M 586.69343,55.365553 c -0.92763,-1.117722 -1.46313,-2.078128 -1.19001,-2.134237 4.10621,-0.843537 4.84987,-0.703733 4.61914,0.868362 -0.43784,2.983177 -1.63663,3.425713 -3.42913,1.265875 z m 6.45216,-1.04446 c 0.82175,-0.821755 2.47859,-1.638594 3.68186,-1.815196 1.61545,-0.237097 1.79691,0.06976 0.69366,1.173006 -0.82175,0.821755 -2.47859,1.638594 -3.68186,1.815196 -1.61545,0.237097 -1.79691,-0.06976 -0.69366,-1.173006 z m 10.85443,-1.511776 c 0,-0.288209 0.93116,-0.881336 2.06925,-1.318061 1.18657,-0.455329 1.72176,-0.231799 1.25464,0.524015 -0.78301,1.266937 -3.32389,1.87393 -3.32389,0.794046 z M 585.7778,43.391983 c 0,-1.067741 0.50978,-1.626282 1.13286,-1.241202 0.62307,0.385081 0.78766,1.258687 0.36575,1.941348 -1.07817,1.74451 -1.49861,1.548078 -1.49861,-0.700146 z m 28.44444,1.05246 c -0.48889,-0.488889 -0.88889,-1.508889 -0.88889,-2.266667 0,-0.835472 0.62103,-0.75675 1.57778,0.2 0.86778,0.867778 1.26778,1.887778 0.88889,2.266667 -0.37889,0.378889 -1.08889,0.288889 -1.57778,-0.2 z m -0.0849,-10.888889 c -0.37769,-0.611111 0.16051,-1.111111 1.19599,-1.111111 1.03548,0 1.57368,0.5 1.19599,1.111111 -0.37768,0.611111 -0.91588,1.111111 -1.19599,1.111111 -0.28011,0 -0.8183,-0.5 -1.19599,-1.111111 z m -27.72068,-9.13304 c 0.9625,-0.385161 2.1125,-0.337793 2.55556,0.105263 0.44306,0.443055 -0.34444,0.758187 -1.75,0.700292 -1.55326,-0.06398 -1.8692,-0.37992 -0.80556,-0.805555 z M 679.33335,1.3333333 C 678.88013,0.59999998 679.48013,0 680.66669,0 c 1.18656,0 1.78656,0.59999998 1.33333,1.3333333 -0.45322,0.7333333 -1.05322,1.3333333 -1.33333,1.3333333 -0.28011,0 -0.88011,-0.6 -1.33334,-1.3333333 z"
       id="path1" />
  </g>
  <metadata
     id="metadata1">
    <rdf:RDF>
      <cc:Work
         rdf:about="">
        <dc:title>Sentinel-5 (a) Icon SVG</dc:title>
        <dc:source>https://www.esa.int/var/esa/storage/images/esa_multimedia/images/2017/02/sentinel-5_on_metop_second_generation_satellite/16829208-1-eng-GB/Sentinel-5_on_MetOp_Second_Generation_satellite_pillars.jpg</dc:source>
      </cc:Work>
    </rdf:RDF>
  </metadata>
</svg>
