<?xml version="1.0" encoding="UTF-8" standalone="no"?>
<!-- Created with Inkscape (http://www.inkscape.org/) -->

<svg
   version="1.1"
   id="svg1"
   width="163.84"
   height="94.080002"
   viewBox="0 0 163.84 94.080002"
   xmlns="http://www.w3.org/2000/svg"
   xmlns:svg="http://www.w3.org/2000/svg"
   xmlns:rdf="http://www.w3.org/1999/02/22-rdf-syntax-ns#"
   xmlns:cc="http://creativecommons.org/ns#"
   xmlns:dc="http://purl.org/dc/elements/1.1/">
  <title
     id="title1">TIMED Icon SVG</title>
  <defs
     id="defs1" />
  <g
     id="g1">
    <path
       style="fill:currentColor"
       d="m 149.33333,93.866668 c -0.37257,-0.372572 -0.22968,-0.793998 0.18667,-0.550545 0.22,0.12864 0.12875,-0.07547 -0.20277,-0.453569 -0.33152,-0.378103 -0.70659,-0.623294 -0.83349,-0.544869 -0.24421,0.150931 -1.60774,-1.159307 -1.50437,-1.445576 0.0334,-0.09234 -2.45937,-2.880179 -5.53937,-6.195195 -3.08,-3.315017 -5.6,-6.254431 -5.6,-6.532031 0,-0.303029 1.53453,-1.429533 3.84,-2.818944 2.112,-1.272819 3.80043,-2.480557 3.75207,-2.683862 -0.0484,-0.203306 0.0404,-0.290355 0.19717,-0.193444 0.15681,0.09691 1.09519,-0.262556 2.08529,-0.798817 0.9901,-0.536261 2.0729,-0.928849 2.40623,-0.872417 0.33333,0.05643 4.00652,3.443463 8.16264,7.526736 l 7.5566,7.424135 -0.0503,2.015866 c -0.0487,1.954194 -0.0561,1.970686 -0.24,0.539097 l -0.18972,-1.476769 -5.69834,3.396769 -5.69834,3.396769 2.65834,0.180383 c 2.58487,0.175398 2.55148,0.18203 -1.20833,0.24 -2.12667,0.03279 -3.96267,-0.03638 -4.08,-0.153717 z M 131.91116,74.408725 c -1.39807,-1.315203 -2.64602,-2.287203 -2.77322,-2.160001 -0.1272,0.127203 -0.18328,0.06206 -0.12461,-0.144762 0.23589,-0.831593 -7.56281,-9.517868 -8.29356,-9.237454 -0.23816,0.09139 -0.35512,0.04013 -0.25992,-0.113914 0.0952,-0.154042 -0.0316,-0.449997 -0.28188,-0.657677 -0.4521,-0.375209 -0.57624,-1.701056 -0.13366,-1.427527 0.12731,0.07868 0.33581,-0.02578 0.46333,-0.23212 0.16682,-0.269913 -0.0432,-0.320156 -0.74859,-0.179079 -0.93945,0.187889 -1.42681,-0.252981 -11.64976,-10.538389 -5.86811,-5.903964 -10.633292,-10.865728 -10.589292,-11.026141 0.044,-0.160413 -0.06359,-0.29166 -0.239078,-0.29166 -0.175493,0 -0.878129,-0.505069 -1.561413,-1.122375 l -1.242335,-1.122375 -0.35282,1.401174 c -0.194051,0.770646 -0.451886,1.659337 -0.572967,1.974869 -0.163019,0.424821 -0.110165,0.505723 0.203675,0.311758 0.284103,-0.175585 0.347488,-0.138423 0.192269,0.112726 -0.127355,0.206064 -0.346359,0.303709 -0.486676,0.216989 -0.272087,-0.16816 -1.497015,1.03371 -1.407322,1.38083 0.02933,0.113522 -0.02975,0.278404 -0.131304,0.366404 -0.10155,0.088 -0.08105,-0.02 0.04555,-0.24 0.126605,-0.22 0.08619,-0.4 -0.08981,-0.4 -0.320424,0 -0.823659,0.612274 -0.832871,1.013333 -0.0027,0.117333 -0.135987,0.333333 -0.296204,0.48 -0.169247,0.154932 -0.194854,0.09907 -0.06112,-0.133333 0.311,-0.540424 0.0073,-0.503109 -0.936092,0.115003 -0.432297,0.283251 -0.712881,0.633301 -0.623522,0.777888 0.08936,0.144587 -0.0061,0.367085 -0.21219,0.49444 -0.2475,0.152963 -0.288458,0.09207 -0.120677,-0.179403 0.170358,-0.275645 0.107615,-0.357776 -0.190557,-0.249442 -0.244499,0.08883 -0.404975,0.334217 -0.356614,0.545299 0.04836,0.211082 -0.05541,0.295198 -0.230603,0.186923 -0.175192,-0.108275 -0.747609,0.02502 -1.272037,0.296215 -1.244316,0.64346 -1.945289,0.625111 -1.945289,-0.05092 0,-0.423111 -0.08533,-0.458667 -0.384,-0.16 -0.2112,0.2112 -0.8952,0.401037 -1.52,0.421861 l -1.136,0.03786 0.96,0.268109 c 0.678694,0.189545 0.256736,0.238923 -1.44,0.16851 C 79.146332,45.223797 78.423644,45.005563 74.767674,43.34578 72.476038,42.305395 70.47204,41.18687 70.241316,40.819408 69.784187,40.091365 69.114825,28.450613 69.117769,21.28 c 0.0014,-3.332419 -0.120282,-4.4783 -0.611502,-5.76 -0.725658,-1.8934 -0.675852,-1.892881 -4.459394,-0.04645 -1.521781,0.742654 -3.414874,1.593487 -4.206874,1.890739 -1.691931,0.635013 -8.80613,2.349812 -10.88,2.622503 -0.792,0.104139 -2.88,0.541491 -4.64,0.971894 -9.188462,2.247009 -11.483783,2.7188 -11.680303,2.400822 -0.136393,-0.220687 -0.679041,-0.16306 -1.62232,0.172286 -3.334176,1.185333 -13.828751,3.754938 -13.560063,3.320192 0.301533,-0.487892 -0.446456,-0.339883 -4.148262,0.820837 -3.8807408,1.216826 -11.0535431,2.849351 -11.3252704,2.577624 -0.093746,-0.09375 -0.1104473,-0.212437 -0.037114,-0.263758 0.9341105,-0.653715 2.9909565,-1.883892 4.0717896,-2.435292 0.8214175,-0.419056 1.2763242,-0.838039 1.1434033,-1.05311 -0.1310366,-0.212021 -0.076158,-0.267813 0.1350392,-0.137286 0.3991162,0.246667 3.9800643,-1.657587 3.7666003,-2.00298 -0.07508,-0.121483 0.104917,-0.238876 0.399995,-0.260873 C 11.758572,24.075153 13.296,23.6227 14.88,23.0917 c 1.584,-0.531001 5.904,-1.63422 9.599999,-2.451598 3.696,-0.817378 8.931002,-1.991629 11.633337,-2.609446 2.70321,-0.618016 5.256987,-1.037052 5.677305,-0.931559 0.420183,0.105459 1.300756,-0.03254 1.956829,-0.306665 2.814015,-1.17577 13.620506,-3.568223 13.792156,-3.05345 0.0553,0.165831 0.696053,0.0752 1.439999,-0.203685 0.737206,-0.276355 2.420374,-0.826778 3.740374,-1.223162 1.433907,-0.430589 2.405855,-0.896091 2.414545,-1.156416 0.008,-0.239645 0.197435,-0.396574 0.420967,-0.34873 0.223531,0.04784 1.005124,-0.425479 1.736872,-1.0518281 0.731748,-0.6263494 1.694313,-1.2253502 2.139034,-1.3311129 1.274452,-0.3030886 1.608581,-0.7316559 1.608581,-2.0632302 0,-0.8896157 0.13586,-1.2408177 0.48,-1.2408177 0.38696,0 0.48,0.4998762 0.48,2.5788855 0,1.6653651 0.115203,2.5076864 0.32522,2.3778884 C 72.504089,9.9662259 72.553002,9.7057274 72.433914,9.4978887 72.314826,9.29005 72.33176,9.2232835 72.471546,9.3495186 72.611332,9.4757538 73.063735,9.3131399 73.476887,8.9881544 74.052608,8.5352927 74.573343,8.4361888 75.706212,8.5638796 77.027998,8.7128639 77.172227,8.6664661 77.069721,8.1252437 76.983985,7.6725601 76.512077,7.4353347 75.197544,7.1841112 73.756486,6.908707 73.421551,6.7211729 73.337555,6.1426806 73.177812,5.0425175 74.07511,4.958602 76.131381,5.8814014 c 1.027755,0.4612293 2.03064,0.8385987 2.228632,0.8385987 0.199792,0 0.359985,-0.5111737 0.359985,-1.1487064 0,-1.5388438 1.103173,-2.5314391 2.064835,-1.8578646 1.035628,0.7253821 1.200195,0.53727 1.084734,-1.2399264 -0.06026,-0.9275735 0.03443,-1.75557352 0.210431,-1.84 0.183654,-0.0880982 0.361452,0.4915672 0.417287,1.3604601 0.104801,1.6308973 0.851493,2.4860373 2.17076,2.4860373 0.377104,0 1.063673,0.2973578 1.525708,0.6607951 0.462036,0.3634373 0.989024,0.5687339 1.171084,0.4562145 0.18206,-0.1125194 0.29145,-0.038518 0.24309,0.1644474 -0.04836,0.2029654 1.275837,1.0416689 2.942662,1.8637856 2.408067,1.1877139 3.037748,1.6396066 3.065429,2.1999159 0.01916,0.3878374 -0.08461,0.6313384 -0.230592,0.5411144 -0.145985,-0.09022 -0.265428,-0.04618 -0.265428,0.09787 0,0.144051 0.290313,0.443214 0.64514,0.664807 0.508174,0.31736 0.627064,0.688717 0.56,1.74918 -0.06438,1.018029 0.0319,1.348545 0.39486,1.355561 0.759856,0.01469 1.92,0.785567 1.92,1.275781 0,0.245823 -0.432,0.754562 -0.96,1.130531 -0.943176,0.671601 -0.96,0.73334 -0.96,3.522905 0,1.561629 0.137304,2.924183 0.30512,3.027899 0.167816,0.103716 1.511652,-0.463785 2.986302,-1.261114 1.47465,-0.797329 2.872,-1.44969 3.10523,-1.44969 0.23322,0 2.10305,1.658332 4.15518,3.685183 2.05212,2.02685 3.82947,3.61085 3.94965,3.52 0.12019,-0.09085 0.1445,-0.06717 0.054,0.05263 -0.25217,0.333934 1.49836,2.026654 1.86289,1.801365 0.17626,-0.108935 0.22962,-0.05106 0.11858,0.128612 -0.20306,0.328555 0.71822,1.376148 1.11634,1.269407 0.11733,-0.03146 0.33333,0.07389 0.48,0.234107 0.15493,0.169246 0.0991,0.194853 -0.13333,0.06111 -0.93125,-0.535906 -0.2725,0.433788 1.45802,2.146247 1.02191,1.011247 1.98099,1.726739 2.1313,1.589983 0.15031,-0.136757 0.18159,-0.08789 0.0695,0.108585 -0.18825,0.330033 0.86462,1.562767 1.33474,1.562767 0.11353,0 0.17469,0.09516 0.13591,0.211477 -0.11244,0.337322 7.88669,8.757089 8.23546,8.668523 0.17327,-0.044 0.27904,0.05137 0.23504,0.211933 -0.1131,0.412699 4.52709,5.470699 4.93701,5.38156 0.18589,-0.04042 0.37983,0.174879 0.43098,0.478446 0.12017,0.713104 3.00104,3.761842 3.4723,3.674629 0.19784,-0.03661 0.325,0.109548 0.28258,0.3248 -0.0872,0.442723 3.75603,4.676399 4.01242,4.420008 0.28196,-0.281964 0.99554,0.4923 0.83625,0.90738 -0.14121,0.367997 1.26762,1.961244 1.73424,1.961244 0.11782,0 0.18312,0.09329 0.14511,0.207322 -0.13633,0.40898 2.53322,3.150827 2.86693,2.944581 0.20852,-0.128871 0.24664,-0.05801 0.0981,0.182343 -0.25552,0.413448 1.02478,2.03254 1.41603,1.790733 0.1204,-0.07441 0.19658,0.167862 0.16928,0.538388 -0.0273,0.370526 -0.47074,1.037676 -0.98543,1.482556 -0.51468,0.444879 -0.89623,0.937746 -0.84786,1.09526 0.0484,0.157513 -0.0623,0.193563 -0.24584,0.08011 -0.46499,-0.287382 -2.61404,1.095772 -2.35464,1.51548 0.11959,0.193511 0.0616,0.24953 -0.13344,0.128967 -0.47237,-0.29194 -2.68431,1.053996 -2.42409,1.47503 0.12178,0.197055 0.0564,0.243835 -0.15669,0.11213 -0.20111,-0.124292 -1.34773,0.357458 -2.54806,1.070557 -1.20032,0.713098 -2.27008,1.296542 -2.37723,1.296542 -0.10716,0 -1.33871,-1.076074 -2.73678,-2.391276 z M 80.551485,42.160001 c -0.07098,-0.572 -0.129063,-0.104 -0.129063,1.04 0,1.144 0.05808,1.612 0.129063,1.04 0.07098,-0.572 0.07098,-1.508 0,-2.08 z m 4.221008,-8.96 c -0.0186,-6.545152 -0.124887,-9.369107 -0.328208,-8.720001 -0.165388,0.528 -0.233506,2.544001 -0.151375,4.480001 0.09798,2.309556 0.05531,3.134859 -0.124074,2.4 -0.192728,-0.789512 -0.250638,-0.105459 -0.196253,2.3182 0.04243,1.89101 0.173959,3.53501 0.292282,3.653334 0.35943,0.359429 0.240403,2.195196 -0.168867,2.604466 -0.298667,0.298666 -0.298667,0.384 0,0.384 0.227996,0 0.384,0.470929 0.384,1.159182 0,0.977056 -0.073,1.098598 -0.464627,0.773576 -0.255545,-0.212084 -0.723545,-0.31842 -1.04,-0.236303 -0.451811,0.117241 -0.420752,0.157276 0.144627,0.186424 0.396,0.02042 0.72,0.181121 0.72,0.357121 0,0.176 0.216,0.32 0.48,0.32 0.416694,0 0.476373,-1.276665 0.452495,-9.68 z m -0.587232,-0.106667 c 0.01535,-0.372782 0.09118,-0.448608 0.193334,-0.193333 0.09244,0.231 0.08107,0.507 -0.02526,0.613333 -0.106333,0.106333 -0.181964,-0.08267 -0.16807,-0.42 z m -0.124679,4.746667 c -0.08049,-0.308 -0.146343,-0.056 -0.146343,0.56 0,0.616 0.06585,0.868 0.146343,0.56 0.08049,-0.308 0.08049,-0.812 0,-1.12 z M 72.670008,35.10201 c -0.253346,-0.253346 -0.35001,-0.170312 -0.35001,0.300657 0,0.845998 0.447506,1.295052 0.59001,0.592051 0.0605,-0.298484 -0.04749,-0.700202 -0.24,-0.892708 z m 0.68999,-8.753939 c -0.22,-0.08877 -0.401551,-0.329404 -0.403448,-0.534737 C 72.954653,25.608 72.380205,24.216 71.679998,22.72 L 70.406896,20 l -0.0034,1.647337 c -0.0051,2.449004 1.511067,4.878123 3.036551,4.864909 0.176,-0.0015 0.14,-0.0754 -0.08,-0.164175 z M 78.760816,13.2 c 0.398039,-0.507538 0.38672,-0.518856 -0.120818,-0.120817 -0.308,0.24155 -0.56,0.49355 -0.56,0.56 0,0.263371 0.26278,0.09386 0.680818,-0.439183 z m -9.566577,26.160001 c 0,-0.616 0.06585,-0.868 0.146344,-0.56 0.08049,0.308 0.08049,0.812 0,1.12 -0.08049,0.308 -0.146344,0.056 -0.146344,-0.56 z M 95.147584,19.52 c 0,-1.32 0.05649,-1.86 0.125524,-1.2 0.06904,0.66 0.06904,1.74 0,2.4 -0.06904,0.66 -0.125524,0.12 -0.125524,-1.2 z"
       id="path1" />
  </g>
  <metadata
     id="metadata1">
    <rdf:RDF>
      <cc:Work
         rdf:about="">
        <dc:title>TIMED Icon SVG</dc:title>
        <dc:source>https://upload.wikimedia.org/wikipedia/commons/c/c4/TIMED.jpg</dc:source>
      </cc:Work>
    </rdf:RDF>
  </metadata>
</svg>
