<?xml version="1.0" encoding="UTF-8" standalone="no"?>
<!-- Created with Inkscape (http://www.inkscape.org/) -->

<svg
   version="1.1"
   id="svg1"
   width="512"
   height="433"
   viewBox="0 0 512 433"
   xmlns="http://www.w3.org/2000/svg"
   xmlns:svg="http://www.w3.org/2000/svg"
   xmlns:rdf="http://www.w3.org/1999/02/22-rdf-syntax-ns#"
   xmlns:cc="http://creativecommons.org/ns#"
   xmlns:dc="http://purl.org/dc/elements/1.1/">
  <title
     id="title2">Sentinel-3 Icon</title>
  <defs
     id="defs1" />
  <g
     id="g1">
    <path
       style="fill:currentColor"
       d="m 341.75,429.34152 c -12.16006,-6.86081 6.5857,-10.13307 -7.75,-15.1688 -8.1833,-11.02009 -29.29774,-29.98134 -26,-11.67272 -4.45277,-11.57419 -11.85427,-5.04669 -13.97514,0.0299 -7.4088,-19.09191 -1.31521,-37.39324 3.41926,-57.54705 -0.96798,-22.10431 26.93322,-12.755 28.31363,-31.09968 -11.36824,-8.42547 -20.38453,-14.55038 -25.88887,-24.54121 -6.46808,4.26197 -12.23476,-8.77768 -19.29663,-8.09201 -5.54739,-3.86159 -32.31944,2.85212 -35.85389,10.45566 C 231.76152,285.94345 217.64742,306.08116 206.11944,296 197.78955,284.86482 181.44408,279.19528 176.333,271.26618 164.37077,259.54204 152.10869,258.44306 139.4982,247.51335 126.41261,236.8104 115.16565,229.86023 101.50929,219.23359 92.556842,215.373 85.697029,208.51823 77.377428,199.61279 67.249111,190.21774 59.166483,185.40523 48.343276,175.82232 36.173319,170.90488 22.427308,152.34386 6.2690997,147.40564 -4.6134731,130.2585 17.986215,122.84198 23.75,106.39641 35.914605,97.62466 47.437849,85.648886 58.706871,72.55674 68.346459,62.843261 76.216728,53.070115 86.799974,43.98222 89.532591,30.404055 113.68042,25.039887 116.43126,8.3589828 124.77048,5.4192076 129.81479,4.6695953 127.31571,1.1389862 138.20354,14.02233 148.53452,29.258613 163.10633,39.4711 c 6.01523,12.990039 21.85217,21.47638 25.22717,29.088275 11.37455,7.058493 15.56004,17.972524 26.25957,29.184079 9.06809,11.270076 22.25672,22.868206 30.21951,31.878696 5.52534,3.53571 16.99237,12.23372 22.7278,22.34434 9.05846,15.28309 36.32752,25.40135 33.73016,42.77584 3.92925,13.38396 -6.87247,33.80109 -5.99737,48.46529 -11.95575,22.83507 17.03257,30.32395 27.20904,44.69684 11.20064,15.74352 25.74976,25.5526 39.0635,6.66703 13.2519,-13.99511 23.56473,-31.05821 42.37868,-38.97648 12.7064,-13.56998 31.35822,-10.65237 23.57569,-0.59501 11.08529,-0.52838 25.53862,26.92814 23.80389,7.97486 17.00552,-23.49614 23.145,14.97987 40.12807,21.72119 15.47131,7.14808 12.91614,32.83601 16.73936,42.07527 -15.5727,13.41534 -36.29821,23.26423 -48.83335,40.76174 -13.06367,14.44165 -32.23191,16.85666 -47.74856,27.61172 3.76173,26.71464 -31.77431,3.80563 -38.31981,22.37648 -8.50127,5.46333 -20.27396,16.6483 -31.51968,11.82026 z M 359,420 c -12.42375,-2.98905 -21.11188,2.46914 -3.02529,0.79759 -1.76082,-0.36653 5.39471,0.2353 3.02529,-0.79759 z m 9.93946,-5.42706 c -4.95324,-2.70219 -14.26487,4.49311 -1.84478,0.91122 z m -73.00975,-19.48961 c -1.76581,-7.59533 -1.70617,15.82346 0,0 z m 82.46187,-10.29169 c -1.49432,-8.39893 -5.868,6.34476 0,0 z M 337.4732,312.80578 c 11.32425,-7.71594 -10.97091,-6.25765 -8.55199,-15.14123 -14.81641,-6.85962 -9.20759,18.83477 2.82354,9.15691 -8.63422,3.3844 0.7816,13.43966 5.72845,5.98432 z m -20.49326,-8.32995 c -5.83862,-3.84464 3.54173,4.85919 0,0 z m 73.06423,-7.21323 c 16.78758,-5.91686 4.18419,-35.75992 -5.77331,-13.72016 -12.90355,4.50362 -10.36724,31.02538 5.77331,13.72016 z m -69.9866,-0.33529 c 7.25053,-20.46489 -16.96784,13.79957 0,0 z m -7.87445,-2.38141 c 6.44583,-2.65132 5.59575,-11.04925 -0.55018,-12.2959 -5.7749,-6.16919 -11.60087,-9.54903 -16.15256,-14.25 1.04233,-7.99184 -16.48776,-0.0576 -10.05501,7.12876 7.27055,5.83764 20.20946,21.23405 26.75775,19.41714 z m -91.45395,-1.15007 c -3.68154,-1.13412 -1.83703,1.74158 0,0 z m 4.40754,-2.18359 c -6.19546,0.46536 0.36589,2.39429 0,0 z m 2.8397,-2.69772 c 13.82306,-6.04522 43.26435,-12.58293 49.26114,-16.13432 12.70822,-10.32752 13.25629,-13.17897 14.68804,-29.71333 1.2977,-15.0284 7.31589,-35.33024 5.08972,-45.03345 -11.20091,4.31031 -18.98974,17.63268 -28.40245,28.72189 -7.39057,8.73201 -22.5369,14.16563 -23.90286,27.06228 -5.4991,4.68933 -15.46945,4.22318 -14.32625,6.09531 -2.41374,13.91148 -7.26488,16.37779 -14.46865,23.46014 -5.70167,13.53056 3.70598,7.96328 12.06131,5.54148 z m 2.60654,-20.38031 c -0.66136,-6.193 3.00297,2.38061 0,0 z m 49.64599,-51.32103 c 4.79581,-5.50657 1.86868,3.22671 0,0 z M 296.99317,287.25 c -8.04994,-7.78064 -22.53312,-17.65135 -6.56275,-4.35386 2.17874,0.37201 4.3121,6.70168 6.56275,4.35386 z M 251,283 c 3.41434,-3.48351 -8.06913,3.7276 0,0 z m -34.31689,-29.1875 c -1.71452,-1.71931 0.86336,5.59056 0,0 z M 82.541119,199.93347 c 1.447717,-4.7389 -4.974307,4.04086 0,0 z M 158,179.65499 c -5.21262,-6.09666 -4.8218,-2.83943 0,0 z M 88.683114,150.8125 c -1.714519,-1.71932 0.863321,5.59053 0,0 z M 27.127555,137.25 c 3.089137,-4.50193 -5.581276,5.32311 0,0 z m -4.331226,-1.20452 c -5.233037,-5.6268 3.392268,6.58385 0,0 z m 4.437004,-3.25659 c -8.84103,-4.46109 0.544853,3.17645 0,0 z M 127.17126,30.345012 c 5.30479,-0.710942 -12.07658,-1.780482 -0.24277,-4.443513 -7.23708,-5.584217 -6.66163,10.595583 0.24277,4.443513 z M 129.12756,8.25 c 0.27821,-3.1403981 -11.94506,1.764073 0,0 z M 326.5,420 c -3.691,-6.44443 6.87222,6.72885 0,0 z m 3.5,1.09362 c 4.23045,-2.16145 6.00949,3.36685 0,0 z m -13.99444,-5.579 c -14.39337,-14.08759 3.49757,-7.37215 2.95962,1.50401 l -1.80039,0.40112 z M 444.5,262 c -0.0437,-3.36259 3.07003,3.33131 0,0 z M 106,226 c 2.74597,-3.73298 0.90658,3.44919 0,0 z M 3,146 c 2.5549442,-3.58745 2.5549442,3.58745 0,0 z m -3,-7.12724 c 1.2990524,-17.10644 2.3014385,17.44668 0,0 z"
       id="path2" />
  </g>
  <metadata
     id="metadata2">
    <rdf:RDF>
      <cc:Work
         rdf:about="">
        <dc:title>Sentinel-3 Icon</dc:title>
      </cc:Work>
    </rdf:RDF>
  </metadata>
</svg>
