<?xml version="1.0" encoding="UTF-8" standalone="no"?>
<!-- Created with Inkscape (http://www.inkscape.org/) -->

<svg
   version="1.1"
   id="svg1"
   width="682.66669"
   height="370.66666"
   viewBox="0 0 682.66669 370.66666"
   xmlns="http://www.w3.org/2000/svg"
   xmlns:svg="http://www.w3.org/2000/svg">
  <defs
     id="defs1" />
  <g
     id="g1">
    <path
       style="fill:currentColor"
       d="m 327.33334,369.33332 c 3.73,-1.60283 12.34273,-1.60283 13.33334,0 0.51822,0.83851 -2.29782,1.29856 -7.58798,1.23962 -5.93465,-0.0661 -7.62668,-0.43118 -5.74536,-1.23962 z m 24,0 c 0.45323,-0.73333 1.98864,-1.33333 3.41203,-1.33333 1.42338,0 2.58797,0.6 2.58797,1.33333 0,0.73334 -1.53541,1.33334 -3.41202,1.33334 -1.93516,0 -3.05534,-0.57713 -2.58798,-1.33334 z m 295.33335,-8.86942 c -2.21609,-0.73009 -5.62684,-2.06175 -10.66667,-4.16461 -3.61205,-1.50712 -8.26579,-3.29366 -9.33333,-3.58302 -5.51287,-1.49424 -11.62219,-3.8178 -16.31525,-6.20517 -1.27338,-0.64778 -2.9827,-1.17778 -3.79849,-1.17778 -0.81579,0 -3.67393,-0.96117 -6.35143,-2.13594 -2.67749,-1.17477 -6.06817,-2.5945 -7.53484,-3.15494 -1.46666,-0.56045 -4.16666,-1.63581 -6,-2.38969 -1.83333,-0.75388 -6.33333,-2.38075 -10,-3.61528 -3.66666,-1.23452 -8.01666,-2.79799 -9.66666,-3.47437 -1.65,-0.67638 -4.35,-1.78202 -6,-2.45698 -7.81734,-3.19781 -16.62096,-5.43946 -21.36235,-5.43946 -4.0993,0 -5.37042,-0.57277 -5.91799,-2.66667 -0.51503,-1.96947 -1.81869,-2.66667 -4.98628,-2.66667 -2.35892,0 -4.73894,-0.45 -5.28894,-1 -0.55,-0.55 -1.4,-1.02949 -1.88889,-1.06554 -1.36116,-0.10036 -7.20346,-1.9554 -10.55555,-3.35159 -6.61957,-2.75712 -9.3305,-3.70231 -17.00001,-5.92724 -4.4,-1.27644 -9.04185,-2.84614 -10.31524,-3.48822 -1.27338,-0.64207 -3.40338,-1.1674 -4.73333,-1.1674 -1.32995,0 -2.98809,-0.47895 -3.68476,-1.06433 -0.69667,-0.58538 -4.56667,-2.14655 -8.6,-3.46927 -4.03333,-1.32272 -10.39314,-3.84377 -14.1329,-5.60234 -3.73975,-1.75857 -7.19629,-3.1974 -7.68119,-3.1974 -0.4849,0 -3.7251,-1.25979 -7.20044,-2.79954 -8.28868,-3.6723 -10.38048,-4.49023 -18.3188,-7.16298 -3.66667,-1.23452 -8.01667,-2.79799 -9.66667,-3.47437 -6.62459,-2.71559 -9.27981,-3.70858 -15.66667,-5.85896 -3.66667,-1.23452 -8.16667,-2.87827 -10,-3.65276 -6.67951,-2.82178 -8.81197,-3.55453 -16.66667,-5.72699 -4.4,-1.21695 -9.04185,-2.76279 -10.31524,-3.43519 -1.27338,-0.6724 -3.48797,-1.22254 -4.92131,-1.22254 -1.43334,0 -2.97689,-0.6 -3.43011,-1.33333 -0.45323,-0.73334 -1.96828,-1.33334 -3.36679,-1.33334 -1.39851,0 -4.8131,-0.99325 -7.58798,-2.20723 -2.77488,-1.21397 -8.04523,-3.5304 -11.7119,-5.1476 -3.66667,-1.61721 -8.76667,-3.68451 -11.33333,-4.594 -4.70617,-1.66762 -8.16333,-3.0085 -13.66667,-5.3007 -4.97338,-2.07146 -9.57459,-3.29071 -11.23279,-2.97651 -0.86137,0.16322 -1.94678,-0.31915 -2.41202,-1.07193 -0.46525,-0.75278 -2.57508,-1.36869 -4.68852,-1.36869 -2.11345,0 -4.21345,-0.6 -4.66667,-1.33334 -0.45323,-0.73333 -2.58864,-1.33333 -4.74536,-1.33333 -2.15672,0 -3.92131,-0.6 -3.92131,-1.33333 0,-0.73334 -1.46459,-1.33334 -3.25464,-1.33334 -1.79006,0 -3.59546,-0.55144 -4.012,-1.22542 -1.23826,-2.00354 -13.30999,-4.06305 -18.69413,-3.18932 l -4.99774,0.81102 0.5647,7.80695 c 0.59136,8.17539 3.03054,11.66598 8.21381,11.75437 2.08126,0.0355 25.38301,10.3983 33.16191,14.74784 1.27338,0.71201 3.23152,1.29456 4.35143,1.29456 1.1199,0 3.07804,0.52675 4.35142,1.17056 5.60177,2.83218 12.56221,5.49611 14.36048,5.49611 1.07512,0 1.95476,0.45353 1.95476,1.00785 0,0.94672 1.76687,1.82344 13.33334,6.61602 2.56666,1.0635 5.70852,2.4832 6.9819,3.15489 1.27339,0.67168 3.22339,1.22124 4.33334,1.22124 1.10995,0 2.01809,0.6 2.01809,1.33333 0,0.73334 1.07303,1.33334 2.38452,1.33334 2.68407,0 15.81303,4.41977 17.17515,5.78189 0.48663,0.48662 2.43477,0.88775 4.32922,0.8914 1.89444,0.004 5.14091,1.36421 7.21437,3.02348 3.6819,2.94643 3.7288,3.14862 2.00869,8.66005 -0.96867,3.10374 -2.21514,5.64318 -2.76992,5.64318 -0.55478,0 -1.02866,0.75 -1.05305,1.66666 -0.0244,0.91667 -1.17058,3.01667 -2.54706,4.66667 -2.2162,2.65657 -3.73458,3 -13.26357,3 -10.36966,0 -10.79133,0.12133 -11.59848,3.33726 -0.46068,1.8355 -2.61814,4.8355 -4.79437,6.66667 -3.63836,3.06148 -5.02294,3.3294 -17.20589,3.3294 -14.5612,0 -16.00362,0.5012 -24.94212,8.66667 -6.16398,5.63089 -16.68073,12.66666 -18.93356,12.66666 -0.73549,0 -1.33727,0.6 -1.33727,1.33334 0,0.73333 -1.15,1.33333 -2.55555,1.33333 -1.40556,0 -2.77803,0.66741 -3.04993,1.48313 -0.27191,0.81572 -3.48904,1.5283 -7.14919,1.58352 -5.63437,0.085 -7.87569,-0.71625 -14.61674,-5.22528 -4.37905,-2.92912 -11.41192,-7.03981 -15.62859,-9.13488 -4.21666,-2.09506 -7.66666,-4.3111 -7.66666,-4.92451 0,-0.61342 -0.9,-1.11531 -2,-1.11531 -1.1,0 -2,-1.02 -2,-2.26667 0,-1.74847 -0.36163,-1.90504 -1.5818,-0.68487 -1.22017,1.22017 -2.11408,1.10008 -3.91008,-0.52528 -1.28056,-1.15888 -2.06781,-2.80069 -1.74946,-3.64846 0.31836,-0.84776 -1.37211,-2.67202 -3.75658,-4.0539 -12.57137,-7.28552 -18.60687,-10.33873 -17.77429,-8.99158 1.17672,1.90396 -1.25706,1.93904 -4.7522,0.0685 -1.66654,-0.89191 -2.37922,-2.22572 -1.88182,-3.52192 0.68054,-1.77346 0.48086,-1.82097 -1.33154,-0.31682 -1.37365,1.14004 -2.45173,1.29111 -3.03052,0.42467 -0.49411,-0.73967 -1.79838,-1.75624 -2.89838,-2.25906 -1.1,-0.50281 -3.8,-2.00954 -6,-3.34828 -2.2,-1.33874 -6.93039,-4.06658 -10.51197,-6.06186 -3.58158,-1.99527 -8.67086,-5.09478 -11.30951,-6.88779 -2.63865,-1.79301 -5.4848,-3.26001 -6.32478,-3.26001 -0.83997,0 -2.24156,-0.86073 -3.11464,-1.91272 -0.87307,-1.05199 -3.90252,-3.11942 -6.73211,-4.59428 -7.34454,-3.82819 -11.23978,-6.05392 -12.00699,-6.86079 -0.36667,-0.38561 -5.90333,-3.28087 -12.30368,-6.43391 -9.460767,-4.6607 -13.477357,-5.87198 -21.477863,-6.47705 -6.636448,-0.50192 -10.145034,-0.25208 -10.775012,0.76724 -0.513789,0.83133 -2.548751,1.53059 -4.522139,1.55391 -1.973388,0.0233 -4.752655,0.92332 -6.17615,2 -1.984596,1.50107 -2.116533,1.9576 -0.565753,1.9576 3.13522,0 7.820592,5.78434 7.820592,9.65494 0,2.57547 -1.095686,4.02968 -4.204851,5.58073 -2.312667,1.15371 -5.277257,2.09766 -6.587977,2.09766 -1.31072,0 -2.697497,0.50866 -3.081726,1.13036 -0.38423,0.62169 -6.050422,1.51024 -12.591537,1.97454 -9.370109,0.66511 -12.774081,0.40461 -16.046757,-1.22801 -4.677632,-2.33351 -4.91267,-2.99609 -2.3204,-6.54123 1.306808,-1.78717 3.5954,-2.54047 7.967812,-2.62265 5.964207,-0.1121 10.337925,-2.35163 8.392326,-4.29723 -0.529099,-0.5291 -2.736505,-0.2922 -4.905346,0.52645 -2.3118,0.87261 -4.254123,0.9856 -4.69447,0.27311 -0.413116,-0.66844 0.0913,-1.21534 1.120919,-1.21534 2.666186,0 6.28534,-4.38669 6.28534,-7.61831 0,-3.28038 5.278743,-7.04836 9.8744,-7.04836 1.815855,0 3.672375,-0.6 4.1256,-1.33333 0.453225,-0.73333 3.596037,-1.33333 6.984026,-1.33333 4.963686,0 13.575238,-1.89436 16.174705,-3.55809 0.581557,-0.37221 -3.340208,-4.44191 -4.280447,-4.44191 -0.624802,0 -13.46958,-8.11752 -16.251595,-10.27053 -1.257045,-0.97283 -6.549134,-4.01085 -13.293356,-7.63128 -1.466667,-0.78734 -2.966667,-1.80633 -3.333333,-2.26443 -0.366667,-0.4581 -2.766667,-1.97047 -5.333334,-3.36082 -6.103451,-3.3062 -24.005855,-16.43082 -23.9795835,-17.57992 0.097681,-4.27246 6.8430895,-6.84712 26.2047845,-10.00212 5.257194,-0.85666 10.007194,-2.00757 10.555556,-2.55757 0.548362,-0.55 3.561611,-1 6.69611,-1 3.134499,0 6.069909,-0.6 6.523134,-1.33333 0.453225,-0.73334 2.696036,-1.33334 4.984026,-1.33334 2.287989,0 6.05695,-0.68595 8.37547,-1.52434 l 4.215491,-1.52434 -0.62229,-10.14232 c -0.342259,-5.57828 -1.146631,-11.15288 -1.787493,-12.38801 -0.640862,-1.23512 -1.165204,-4.34971 -1.165204,-6.92131 0,-2.57159 -0.656501,-5.08137 -1.458893,-5.57727 -0.802391,-0.49591 -1.19134,-2.30126 -0.864332,-4.01189 0.369718,-1.93406 -0.143809,-3.39359 -1.357939,-3.85949 -1.570699,-0.60273 -1.630485,-1.13725 -0.305742,-2.73347 2.162856,-2.60608 -0.445622,-5.98422 -4.620798,-5.98422 -1.621318,0 -3.306511,-0.35866 -3.744872,-0.79702 -1.4352,-1.4352 0.585065,-4.53631 2.955244,-4.53631 1.274551,0 3.359575,-1.15163 4.633387,-2.55918 1.885857,-2.08385 2.145667,-3.92266 1.398823,-9.90019 -1.366023,-10.93328 -4.788792,-13.24974 -24.313903,-16.45517 -2.39013,-0.392387 -4.67554,-1.247138 -5.078689,-1.899447 -0.403149,-0.652308 -2.07797,-1.186016 -3.721823,-1.186016 -4.733371,0 -9.650897,-2.905226 -11.172828,-6.600796 C 20.911037,87.529639 19.564378,78.199998 18.688395,68.666665 16.560921,45.513339 15.050026,32.239116 13.950129,27.037836 c -0.798387,-3.775477 -0.477523,-4.491797 2.650418,-5.916982 2.772967,-1.263448 5.251765,-1.271803 11.22604,-0.03784 10.335148,2.13469 24.088758,2.038838 26.735094,-0.186322 C 58.16956,17.863026 67.210607,16 78.324769,16 91.074649,16 92.362352,15.015818 91.153353,6.1952102 L 90.304205,0 114.81877,0.20978904 C 133.50181,0.36967343 137.11312,0.64745072 130,1.3775084 c -5.13333,0.5268617 -14.28333,1.0324566 -20.33333,1.1235443 -9.731133,0.1465101 -11,0.4485305 -11,2.6182605 0,4.4111026 5.76185,5.5453288 28.39607,5.5897958 11.88216,0.02334 29.40393,0.959997 38.93726,2.081451 9.53334,1.121454 23.93334,2.553587 32.00001,3.182519 23.9134,1.864449 26,3.515029 26,20.567033 l 0,9.747972 11.66666,-0.04738 c 6.41667,-0.02606 16.46667,0.677655 22.33334,1.563806 5.86666,0.886151 16.96666,2.188734 24.66667,2.89463 20.42682,1.872625 25.60294,2.749371 28.87011,4.890106 2.56983,1.683813 3.43892,1.652758 7.1275,-0.254683 5.37372,-2.778859 21.26161,-3.192578 34.9905,-0.911149 16.57612,2.754576 66.21468,5.9846 114.34522,7.440541 9.16667,0.27729 21.46667,1.190849 27.33334,2.030131 21.46921,3.071373 82.72176,7.773616 138,10.594 15.03334,0.767025 32.28334,2.117671 38.33334,3.001437 l 11,1.606846 -0.0326,13.451813 C 682.61617,99.946681 681.97643,108.7 681.21246,112 c -0.76397,3.3 -1.9632,11.7 -2.66497,18.66666 -1.61024,15.98535 -3.52515,33.56614 -4.50206,41.33334 -0.41505,3.3 -1.38011,12.29999 -2.14458,19.99999 -0.76446,7.7 -1.93891,18.5 -2.60988,24 -0.67098,5.5 -1.82262,15.1 -2.55922,21.33334 -0.7366,6.23333 -2.28099,19.13333 -3.43198,28.66666 -3.11683,25.81585 -4.69344,44.82365 -3.83336,46.21528 0.41975,0.67918 0.1426,1.98263 -0.6159,2.89656 -0.7585,0.91393 -1.73015,7.33765 -2.15924,14.27493 -0.42909,6.93728 -1.44503,16.96323 -2.25765,22.2799 -1.50844,9.86918 -2.18549,10.63604 -7.76693,8.79724 z M 242.66667,330.03423 c 0,-0.67403 -7.36728,-4.70091 -8.60045,-4.70091 -1.8914,0 -0.41584,2.41207 2.26712,3.70601 3.2005,1.54354 6.33333,2.03568 6.33333,0.9949 z m 16.58378,-6.19078 c 2.88774,-1.38057 5.89662,-2.51013 6.68641,-2.51013 0.78978,0 3.52709,-1.11207 6.08289,-2.47128 2.55581,-1.3592 6.97079,-2.90025 9.81107,-3.42454 2.84028,-0.5243 6.14028,-1.43897 7.33333,-2.03261 5.64889,-2.81077 13.54931,-5.93051 20.83586,-8.22773 4.4,-1.38718 9.2,-3.10415 10.66667,-3.8155 1.46666,-0.71134 6.12617,-2.55539 10.35446,-4.09788 l 7.68779,-2.80453 -6.35446,-3.22405 c -3.49495,-1.77323 -6.74853,-3.22656 -7.23017,-3.22963 -0.48164,-0.003 -4.98164,-1.84778 -10,-4.09937 -5.01836,-2.25158 -9.42429,-4.11374 -9.79096,-4.13813 -0.36666,-0.0244 -2.26281,-0.86974 -4.21366,-1.87857 -4.52566,-2.34031 -11.78634,-0.20982 -11.78634,3.45844 0,2.07827 -0.51831,2.22991 -3.66666,1.07275 -4.40954,-1.6207 -11.00001,0.48423 -11.00001,3.5133 0,1.59413 -0.69166,1.73703 -3.40826,0.70418 -2.53927,-0.96543 -4.49403,-0.7438 -7.66667,0.86923 -5.65972,2.87752 -5.83492,3.10162 -3.55312,4.54467 2.77635,1.75582 -0.75537,1.70506 -4.05007,-0.0582 -1.58006,-0.84562 -3.63697,-0.88561 -5.57901,-0.10847 -1.69191,0.67704 -4.23292,1.60192 -5.6467,2.05529 -2.25581,0.72339 -1.97881,1.22636 2.2626,4.10847 2.6582,1.8063 5.50778,3.28418 6.3324,3.28418 0.82462,0 2.50645,1.01642 3.73741,2.25872 2.09742,2.11677 2.07049,2.19039 -0.42858,1.17145 -13.12496,-5.35142 -15.59401,-5.92225 -19.10518,-4.41702 -1.95882,0.83974 -3.79698,1.69081 -4.08482,1.89127 -1.38677,0.9658 3.81539,5.05605 10.06798,7.91605 3.83348,1.75347 7.36426,3.82611 7.84617,4.60587 2.01346,3.25783 -1.25811,2.79736 -8.76773,-1.23404 -8.66017,-4.64907 -9.93885,-4.19531 -9.05585,3.2136 0.30234,2.53677 1.80318,4.36307 4.97972,6.05958 2.50083,1.33563 5.1883,3.06977 5.97217,3.85364 1.72598,1.72598 7.58062,0.6096 14.73132,-2.809 z m 9.42566,-13.16152 c -0.46711,-0.75581 0.0681,-0.97934 1.25465,-0.52401 2.30989,0.88638 2.73251,1.84207 0.8146,1.84207 -0.69005,0 -1.62121,-0.59313 -2.06925,-1.31806 z m -6.7546,-3.3062 c -1.42349,-1.07668 -1.98817,-1.9576 -1.25484,-1.9576 0.73334,0 2.49802,0.88092 3.92151,1.9576 1.4235,1.07668 1.98817,1.95759 1.25484,1.95759 -0.73333,0 -2.49801,-0.88091 -3.92151,-1.95759 z m -10.74286,-38.26718 c 3.01841,-0.85695 6.05802,-2.05695 6.75469,-2.66666 0.69667,-0.60971 2.61126,-1.10856 4.25465,-1.10856 5.05585,0 4.82768,-2.43443 -0.48207,-5.14326 -6.10731,-3.11572 -9.19571,-3.60864 -14.07998,-2.24724 -2.92121,0.81423 -3.52947,1.59394 -2.86837,3.67689 0.70224,2.21255 0.38281,2.49873 -1.95927,1.75538 -2.42702,-0.7703 -2.79829,-0.3455 -2.79829,3.20171 0,4.69275 1.9842,5.14214 11.17864,2.53174 z M 42.000001,259.99999 c 0.453225,-0.73333 0.224046,-1.33333 -0.509288,-1.33333 -0.733333,0 -1.704154,0.6 -2.157378,1.33333 -0.453225,0.73334 -0.224046,1.33334 0.509288,1.33334 0.733333,0 1.704153,-0.6 2.157378,-1.33334 z m 12.333957,-0.33333 c -0.305213,-0.91667 -1.634171,-1.87587 -2.953239,-2.13156 -2.077642,-0.40273 -2.152006,-0.18667 -0.556178,1.61595 2.227614,2.51628 4.275753,2.8172 3.509417,0.51561 z m 70.576862,-33.25 c -0.42563,-1.06364 -0.74157,-0.7477 -0.80555,0.80556 -0.0579,1.40555 0.25723,2.19305 0.70029,1.75 0.44305,-0.44306 0.49042,-1.59306 0.10526,-2.55556 z m -50.355262,-1.90575 c 0.305555,-0.28101 0.216866,-0.84961 -0.197088,-1.26356 -1.257037,-1.25704 -10.392523,0.95219 -9.553201,2.31024 0.689256,1.11524 8.286249,0.29971 9.750289,-1.04668 z M 242.41667,213.41666 c 0.33334,-1 -0.16666,-1.5 -1.16666,-1.16667 -0.9625,0.32084 -2.0125,1.37084 -2.33334,2.33334 -0.33333,1 0.16667,1.5 1.16667,1.16666 0.9625,-0.32083 2.0125,-1.37083 2.33333,-2.33333 z m 4.25,-0.0833 c 0,-0.73334 -0.26459,-1.33334 -0.58797,-1.33334 -0.32339,0 -0.9588,0.6 -1.41203,1.33334 -0.45322,0.73333 -0.18863,1.33333 0.58798,1.33333 0.77661,0 1.41202,-0.6 1.41202,-1.33333 z M 48.600001,210.49751 c 0.696667,-0.6403 3.811257,-1.16418 6.921311,-1.16418 3.110055,0 6.025465,-0.6 6.47869,-1.33334 0.453225,-0.73333 3.124442,-1.33333 5.936038,-1.33333 4.745957,0 7.842888,-2.4433 5.749872,-4.53631 -1.50349,-1.50349 -9.176409,-0.79689 -11.745452,1.08164 -1.754759,1.28311 -3.30526,1.48474 -4.891057,0.63605 -1.560527,-0.83517 -3.872692,-0.59462 -7.051625,0.73362 -2.601384,1.08693 -5.590341,1.64601 -6.642127,1.2424 -1.051787,-0.40361 -4.187084,0.0398 -6.967328,0.98534 -2.780244,0.94554 -6.254989,1.58162 -7.721655,1.4135 -2.509518,-0.28765 -2.488372,-0.15191 0.358825,2.30341 2.51267,2.16684 4.320671,2.48419 10.666667,1.87223 4.202646,-0.40527 8.211175,-1.26073 8.907841,-1.90103 z M 170.15477,165.58333 c -1.86463,-1.86463 -2.15476,-1.8829 -2.15476,-0.13572 0,1.11048 0.7425,2.76155 1.65,3.66905 1.19161,1.19162 1.79022,1.22932 2.15476,0.13572 0.27762,-0.83286 -0.46488,-2.48393 -1.65,-3.66905 z m 419.51191,-50.46637 c -0.91666,-0.36989 -2.41666,-0.36989 -3.33333,0 -0.91667,0.36988 -0.16667,0.67251 1.66667,0.67251 1.83333,0 2.58333,-0.30263 1.66666,-0.67251 z m 8.33334,-9.8953 c -4.4,-0.42809 -8.6,-0.42809 -9.33334,0 -1.71558,1.00148 12.68377,2.37897 15.33334,1.46685 1.1,-0.37868 -1.6,-1.03876 -6,-1.46685 z m -18,-1.22166 c 0,-0.73334 -0.63541,-1.33334 -1.41203,-1.33334 -0.77661,0 -1.0412,0.6 -0.58797,1.33334 0.45322,0.73333 1.08863,1.33333 1.41202,1.33333 0.32339,0 0.58798,-0.6 0.58798,-1.33333 z m -12.42252,-2.91667 c -0.42563,-1.06364 -0.74157,-0.7477 -0.80555,0.80556 -0.0579,1.40555 0.25723,2.19305 0.70029,1.75 0.44305,-0.44306 0.49042,-1.59306 0.10526,-2.55556 z m 73.75585,-1.67131 c 0,-0.323388 -0.6,-0.958798 -1.33333,-1.412023 -0.73333,-0.453225 -1.33333,-0.188635 -1.33333,0.587978 0,0.776612 0.6,1.412022 1.33333,1.412022 0.73333,0 1.33333,-0.26459 1.33333,-0.587977 z m -49.33333,-4.745356 c 0,-0.733333 -1.35,-1.324146 -3,-1.312916 -2.42592,0.01651 -2.61728,0.26775 -1,1.312916 2.58501,1.670563 4,1.670563 4,0 z m 37.33333,-8 c 0,-0.733333 -0.26459,-1.333333 -0.58798,-1.333333 -0.32338,0 -0.95879,0.6 -1.41202,1.333333 -0.45322,0.733334 -0.18863,1.333334 0.58798,1.333334 0.77661,0 1.41202,-0.6 1.41202,-1.333334 z m -22.66667,-1.209933 c 0,-1.448895 -13.83468,-2.48264 -17.06441,-1.275076 -1.56843,0.58642 -0.82817,1.035095 2.39775,1.453284 8.60522,1.115531 14.66666,1.04188 14.66666,-0.178208 z m 10.66667,-0.1234 c 0,-0.733333 -0.6,-1.333333 -1.33333,-1.333333 -0.73333,0 -1.33334,0.6 -1.33334,1.333333 0,0.733333 0.60001,1.333333 1.33334,1.333333 0.73333,0 1.33333,-0.6 1.33333,-1.333333 z M 164,63.333332 c 0,-1.1 -0.6,-2 -1.33333,-2 -0.73333,0 -1.33333,0.9 -1.33333,2 0,1.1 0.6,2 1.33333,2 0.73333,0 1.33333,-0.9 1.33333,-2 z M 102.66667,22.666666 c 0,-0.733333 -0.63541,-1.333333 -1.41202,-1.333333 -0.77662,0 -1.04121,0.6 -0.58798,1.333333 0.45322,0.733333 1.08863,1.333333 1.41202,1.333333 0.32339,0 0.58798,-0.6 0.58798,-1.333333 z M 390.66668,350.66666 c 0,-0.73334 0.9,-1.33334 2,-1.33334 1.1,0 2,0.6 2,1.33334 0,0.73333 -0.9,1.33333 -2,1.33333 -1.1,0 -2,-0.6 -2,-1.33333 z m 82,-22.66667 c -0.45322,-0.73333 0.44678,-1.33333 2,-1.33333 1.55323,0 2.45323,0.6 2,1.33333 -0.45322,0.73333 -1.35322,1.33333 -2,1.33333 -0.64677,0 -1.54677,-0.6 -2,-1.33333 z m 10,-2.66667 c 0,-0.73333 1.2,-1.33333 2.66667,-1.33333 1.46666,0 2.66666,0.6 2.66666,1.33333 0,0.73334 -1.2,1.33334 -2.66666,1.33334 -1.46667,0 -2.66667,-0.6 -2.66667,-1.33334 z m -282.66667,-2.74535 c 0,-0.77661 0.6,-1.0412 1.33333,-0.58798 0.73333,0.45323 1.33333,1.08864 1.33333,1.41202 0,0.32339 -0.6,0.58798 -1.33333,0.58798 -0.73333,0 -1.33333,-0.63541 -1.33333,-1.41202 z m 294.66667,0.0787 c 0,-0.73334 0.86459,-1.33334 1.92131,-1.33334 1.05672,0 2.29213,0.6 2.74536,1.33334 0.45322,0.73333 -0.41137,1.33333 -1.92131,1.33333 -1.50995,0 -2.74536,-0.6 -2.74536,-1.33333 z m -298.66667,-1.33334 c 0,-0.73333 0.63541,-1.33333 1.41202,-1.33333 0.77661,0 1.0412,0.6 0.58798,1.33333 -0.45323,0.73334 -1.08864,1.33334 -1.41203,1.33334 -0.32338,0 -0.58797,-0.6 -0.58797,-1.33334 z m -5.91737,-3.43779 c -1.40505,-1.02739 -2.11581,-2.30681 -1.57947,-2.84315 0.53634,-0.53634 1.39254,-0.3325 1.90267,0.45297 0.51012,0.78547 1.79795,1.70824 2.86183,2.0506 1.06388,0.34237 1.35726,0.97913 0.65196,1.41503 -0.7053,0.4359 -2.43195,-0.048 -3.83699,-1.07545 z m -6.08263,-4.56221 c 0,-0.73333 0.6,-1.33333 1.33333,-1.33333 0.73333,0 1.33333,0.6 1.33333,1.33333 0,0.73334 -0.6,1.33334 -1.33333,1.33334 -0.73333,0 -1.33333,-0.6 -1.33333,-1.33334 z"
       id="path1" />
  </g>
</svg>
