<?xml version="1.0" encoding="UTF-8" standalone="no"?>
<svg xmlns="http://www.w3.org/2000/svg" version="1.2" baseProfile="tiny" viewBox="0.00 0.00 512.00 422.00" width="512.00" height="422.00">
<path fill="#cacecd" d="
  M 488.02 1.75
  Q 488.16 2.20 488.45 2.55
  L 488.66 3.51
  Q 489.23 6.96 491.27 9.82
  A 1.64 1.63 27.0 0 1 491.57 10.73
  Q 491.59 11.88 491.75 12.25
  Q 496.32 22.93 500.12 32.18
  Q 501.04 34.43 503.15 35.88
  L 504.54 39.12
  Q 503.42 38.77 502.78 37.34
  A 0.17 0.17 0.0 0 0 502.46 37.44
  Q 503.37 41.82 505.63 42.20
  L 509.36 40.74
  A 0.53 0.52 64.0 0 1 510.01 40.97
  L 511.69 43.87
  A 0.34 0.34 0.0 0 1 511.52 44.35
  L 507.30 45.99
  Q 505.97 46.67 508.28 48.85
  L 509.82 51.75
  A 0.58 0.58 0.0 0 1 509.63 52.50
  L 439.96 98.87
  L 438.39 96.32
  A 0.25 0.25 0.0 0 0 437.93 96.49
  Q 438.98 104.02 439.81 107.91
  C 440.27 110.12 440.24 112.73 440.98 115.28
  A 5.32 4.94 35.7 0 1 441.16 116.17
  Q 442.82 133.07 447.12 149.49
  Q 448.41 149.95 446.75 150.96
  Q 391.79 184.40 336.88 218.05
  L 237.15 278.77
  A 1.08 1.06 -50.9 0 1 236.25 278.87
  Q 233.79 278.02 234.56 275.28
  Q 238.27 262.18 241.83 249.48
  L 242.83 245.72
  A 0.33 0.32 89.1 0 0 242.42 245.32
  L 241.00 245.78
  Q 240.48 241.98 242.95 241.39
  Q 244.02 241.08 244.21 240.56
  Q 246.24 235.17 247.55 229.44
  Q 249.06 225.01 250.32 220.32
  Q 250.52 219.58 252.27 218.73
  Q 252.94 218.75 252.17 219.89
  A 0.37 0.27 80.8 0 0 252.11 220.01
  L 236.67 273.61
  A 0.24 0.24 0.0 0 0 237.03 273.88
  L 273.22 251.63
  A 1.25 1.24 80.3 0 0 273.79 250.82
  L 278.00 230.39
  A 0.12 0.12 0.0 0 0 277.82 230.27
  L 271.41 234.41
  A 0.24 0.24 0.0 0 1 271.05 234.16
  L 273.19 223.73
  A 1.38 1.38 0.0 0 1 273.79 222.86
  L 280.64 218.43
  A 1.09 1.08 -10.9 0 0 281.12 217.73
  L 282.64 210.37
  A 0.59 0.58 79.6 0 1 282.88 210.01
  L 289.59 205.47
  A 0.14 0.14 0.0 0 1 289.81 205.61
  L 281.45 246.21
  A 0.19 0.19 0.0 0 0 281.74 246.41
  L 440.43 148.87
  A 1.47 1.46 70.4 0 0 441.11 147.42
  L 434.07 97.84
  A 0.24 0.24 0.0 0 0 433.68 97.68
  Q 430.14 100.24 426.51 102.28
  Q 426.28 102.41 426.01 102.38
  Q 425.77 102.35 425.53 102.20
  Q 425.58 101.51 425.40 101.05
  A 0.56 0.56 0.0 0 0 424.56 100.80
  L 420.99 103.29
  A 2.52 2.51 -8.6 0 0 420.02 104.60
  Q 420.01 104.64 420.03 104.78
  A 0.65 0.65 0.0 0 1 419.30 105.51
  Q 415.07 104.99 417.60 108.45
  L 397.81 121.66
  A 1.76 1.74 72.6 0 0 397.04 123.15
  L 397.92 152.74
  A 1.34 1.31 73.1 0 1 397.32 153.89
  L 370.19 171.43
  A 0.55 0.55 0.0 0 1 369.34 170.91
  L 370.40 160.58
  A 0.84 0.84 0.0 0 1 370.79 159.95
  L 388.05 148.79
  A 0.55 0.54 -18.2 0 0 388.29 148.32
  L 388.15 143.56
  A 0.06 0.06 0.0 0 0 388.05 143.51
  L 379.84 148.82
  A 0.66 0.66 0.0 0 1 378.82 148.28
  L 378.80 147.81
  A 1.68 1.66 -17.4 0 1 379.56 146.38
  L 387.90 140.98
  A 1.08 1.07 -17.3 0 0 388.40 140.04
  L 388.06 128.65
  A 0.22 0.22 0.0 0 0 387.71 128.47
  Q 349.96 153.84 322.27 172.09
  C 321.15 172.83 320.96 173.90 319.47 174.15
  A 1.48 1.45 -65.6 0 0 318.93 174.36
  Q 315.09 176.77 313.93 177.86
  A 0.29 0.24 4.7 0 1 313.86 177.91
  L 305.85 183.21
  A 1.08 0.28 -14.3 0 1 305.74 183.27
  Q 304.87 183.60 304.26 184.04
  Q 299.57 187.38 291.42 192.73
  A 0.81 0.80 -42.9 0 1 290.47 192.70
  Q 290.36 192.61 290.07 192.13
  Q 289.87 191.78 289.54 191.83
  Q 289.31 191.87 288.94 192.28
  A 0.33 0.32 -61.1 0 0 289.09 192.81
  Q 289.51 192.92 289.67 193.10
  A 0.52 0.48 52.1 0 1 289.60 193.86
  L 278.15 201.15
  L 277.69 200.44
  A 0.64 0.64 0.0 0 0 276.78 200.27
  L 274.64 201.87
  L 270.81 204.31
  A 0.44 0.44 0.0 0 0 270.86 205.08
  L 271.18 205.23
  A 0.69 0.69 0.0 0 1 271.27 206.44
  L 263.28 211.61
  Q 261.73 210.31 262.41 207.68
  Q 266.07 193.45 269.29 182.12
  A 1.29 1.29 0.0 0 1 269.85 181.36
  L 276.59 177.00
  A 2.89 2.87 -12.3 0 0 277.88 175.00
  L 278.44 171.33
  A 0.76 0.73 -22.1 0 1 278.60 170.97
  Q 279.22 170.20 279.13 169.42
  A 1.04 1.02 -13.8 0 0 277.72 168.59
  Q 276.86 168.93 273.26 170.61
  A 0.52 0.51 -18.6 0 1 272.54 170.26
  Q 272.40 169.71 272.95 169.41
  L 277.02 154.62
  A 0.34 0.34 0.0 0 0 276.49 154.25
  L 271.80 157.66
  A 1.58 1.58 0.0 0 1 269.36 155.92
  L 279.83 121.68
  L 271.07 153.54
  A 0.23 0.22 -10.2 0 0 271.42 153.78
  L 387.23 69.60
  A 1.09 1.09 0.0 0 0 387.68 68.68
  L 387.46 61.17
  A 0.17 0.16 71.3 0 0 387.20 61.04
  L 380.99 65.56
  A 0.50 0.49 56.5 0 1 380.28 65.41
  L 380.10 65.12
  A 0.57 0.57 0.0 0 1 380.25 64.36
  L 386.96 59.48
  A 1.30 1.29 71.5 0 0 387.50 58.39
  L 387.45 56.80
  A 0.36 0.35 71.3 0 0 386.89 56.52
  L 374.15 65.78
  A 0.45 0.45 0.0 0 1 373.44 65.37
  L 373.94 60.47
  A 2.08 2.07 -15.5 0 1 374.78 59.00
  L 394.12 44.94
  A 0.25 0.24 -18.6 0 1 394.51 45.13
  L 395.04 63.06
  A 0.24 0.24 0.0 0 0 395.43 63.25
  L 425.68 41.27
  A 0.70 0.69 68.1 0 0 425.95 40.63
  L 422.14 13.38
  L 424.19 11.91
  A 0.56 0.56 0.0 0 1 424.95 12.01
  L 425.69 12.90
  L 429.24 37.31
  Q 429.13 39.21 429.84 40.48
  A 1.02 1.02 0.0 0 1 429.55 41.81
  L 280.07 150.46
  A 1.60 1.57 80.3 0 0 279.48 151.31
  L 274.58 168.33
  A 0.52 0.52 0.0 0 0 275.39 168.90
  L 291.93 156.88
  A 0.34 0.34 0.0 0 1 292.47 157.22
  L 289.80 170.18
  A 3.00 2.96 -11.9 0 1 288.59 172.01
  L 270.83 184.39
  A 0.94 0.93 80.5 0 0 270.47 184.90
  L 264.44 205.84
  A 0.29 0.29 0.0 0 0 264.89 206.16
  Q 293.15 187.11 410.21 107.94
  Q 411.80 106.87 410.96 104.45
  A 1.95 1.94 -26.7 0 1 411.71 102.20
  L 419.07 97.21
  A 0.41 0.41 0.0 0 1 419.71 97.54
  L 419.81 100.93
  A 0.31 0.31 0.0 0 0 420.29 101.18
  L 448.42 82.13
  A 0.82 0.82 0.0 0 0 448.66 81.02
  L 448.45 80.67
  A 0.89 0.88 -33.0 0 1 448.71 79.47
  L 457.61 73.44
  A 0.49 0.49 0.0 0 1 458.36 73.94
  L 458.22 74.58
  A 0.48 0.48 0.0 0 0 458.95 75.07
  L 488.86 54.81
  A 1.04 1.03 69.0 0 0 489.30 53.81
  L 489.14 52.67
  A 0.83 0.82 -21.5 0 1 489.49 51.88
  L 498.64 45.69
  A 0.80 0.79 -28.3 0 0 498.93 44.75
  L 482.65 3.26
  L 486.11 0.73
  A 0.64 0.64 0.0 0 1 486.92 0.77
  L 488.02 1.75
  Z
  M 384.43 56.80
  L 388.73 54.24
  A 0.12 0.12 0.0 0 0 388.77 54.08
  L 388.74 54.03
  A 2.51 1.78 -30.8 0 0 385.67 53.78
  L 385.48 53.89
  A 2.51 1.78 -30.8 0 0 384.24 56.71
  L 384.27 56.76
  A 0.12 0.12 0.0 0 0 384.43 56.80
  Z
  M 382.06 57.17
  Q 382.05 57.21 382.08 58.19
  A 0.52 0.36 -13.8 0 0 382.75 58.45
  Q 383.25 58.27 383.11 57.31
  A 0.55 0.55 0.0 0 0 382.06 57.17
  Z
  M 380.89 161.95
  A 0.23 0.23 0.0 0 0 381.24 162.13
  Q 389.07 157.14 390.51 156.26
  Q 391.42 155.70 391.20 153.86
  A 0.34 0.33 67.5 0 0 390.66 153.63
  L 389.45 154.61
  A 0.66 0.66 0.0 0 1 388.43 154.38
  Q 387.98 153.41 386.83 153.77
  Q 386.39 153.91 384.01 155.88
  A 1.11 1.10 -21.2 0 0 383.61 156.77
  L 383.65 158.28
  A 0.35 0.35 0.0 0 1 383.02 158.51
  L 381.62 156.78
  A 0.49 0.49 0.0 0 0 380.75 157.11
  L 380.89 161.95
  Z
  M 276.46 229.21
  Q 281.43 226.05 283.60 224.36
  Q 284.40 223.74 284.21 222.39
  A 0.45 0.45 0.0 0 0 283.52 222.07
  Q 283.48 222.10 283.45 222.12
  A 0.99 0.98 -43.9 0 1 282.27 222.10
  Q 282.11 221.98 281.54 221.70
  A 0.65 0.64 33.5 0 0 280.78 221.85
  L 279.06 223.81
  A 0.78 0.77 -48.4 0 1 277.96 223.88
  L 277.59 223.56
  A 0.40 0.40 0.0 0 0 276.93 223.78
  L 275.89 228.82
  A 0.38 0.37 -10.3 0 0 276.46 229.21
  Z"
/>
<ellipse fill="#888c8b" cx="0.00" cy="0.00" transform="translate(490.24,1.21) rotate(-12.4)" rx="2.06" ry="0.36"/>
<path fill="#888c8b" d="
  M 488.45 2.55
  Q 488.16 2.20 488.02 1.75
  Q 488.72 1.93 488.45 2.55
  Z"
/>
<path fill="#2c16c0" d="
  M 482.65 3.26
  L 498.93 44.75
  A 0.80 0.79 -28.3 0 1 498.64 45.69
  L 489.49 51.88
  A 0.83 0.82 -21.5 0 0 489.14 52.67
  L 489.30 53.81
  A 1.04 1.03 69.0 0 1 488.86 54.81
  L 458.95 75.07
  A 0.48 0.48 0.0 0 1 458.22 74.58
  L 458.36 73.94
  A 0.49 0.49 0.0 0 0 457.61 73.44
  L 448.71 79.47
  A 0.89 0.88 -33.0 0 0 448.45 80.67
  L 448.66 81.02
  A 0.82 0.82 0.0 0 1 448.42 82.13
  L 420.29 101.18
  A 0.31 0.31 0.0 0 1 419.81 100.93
  L 419.71 97.54
  A 0.41 0.41 0.0 0 0 419.07 97.21
  L 411.71 102.20
  A 1.95 1.94 -26.7 0 0 410.96 104.45
  Q 411.80 106.87 410.21 107.94
  Q 293.15 187.11 264.89 206.16
  A 0.29 0.29 0.0 0 1 264.44 205.84
  L 270.47 184.90
  A 0.94 0.93 80.5 0 1 270.83 184.39
  L 288.59 172.01
  A 3.00 2.96 -11.9 0 0 289.80 170.18
  L 292.47 157.22
  A 0.34 0.34 0.0 0 0 291.93 156.88
  L 275.39 168.90
  A 0.52 0.52 0.0 0 1 274.58 168.33
  L 279.48 151.31
  A 1.60 1.57 80.3 0 1 280.07 150.46
  L 429.55 41.81
  A 1.02 1.02 0.0 0 0 429.84 40.48
  Q 429.13 39.21 429.24 37.31
  Q 429.67 36.18 429.13 34.52
  Q 429.83 36.02 429.70 37.79
  Q 429.63 38.25 429.97 38.54
  Q 429.92 39.50 430.23 40.52
  Q 430.07 40.69 430.15 40.83
  Q 430.23 40.98 430.45 40.99
  Q 430.69 41.00 430.76 40.80
  L 482.65 3.26
  Z
  M 409.23 76.94
  A 0.54 0.54 0.0 0 0 408.39 76.51
  L 384.50 92.68
  A 0.54 0.54 0.0 0 0 384.26 93.15
  L 384.52 102.02
  A 0.54 0.54 0.0 0 0 385.36 102.45
  L 409.25 86.28
  A 0.54 0.54 0.0 0 0 409.49 85.81
  L 409.23 76.94
  Z"
/>
<path fill="#888c8b" d="
  M 497.71 20.89
  Q 497.32 20.82 497.25 21.29
  A 0.46 0.44 -59.6 0 0 497.33 21.63
  Q 499.01 24.05 499.64 26.40
  L 503.15 35.88
  Q 501.04 34.43 500.12 32.18
  Q 496.32 22.93 491.75 12.25
  Q 491.59 11.88 491.57 10.73
  A 1.64 1.63 27.0 0 0 491.27 9.82
  Q 489.23 6.96 488.66 3.51
  Q 489.54 4.18 489.89 4.87
  Q 492.92 10.85 495.71 18.23
  A 4.62 4.61 13.6 0 0 496.61 19.70
  L 497.71 20.89
  Z"
/>
<path fill="#888c8b" d="
  M 429.13 34.52
  Q 429.67 36.18 429.24 37.31
  L 425.69 12.90
  L 429.13 34.52
  Z"
/>
<path fill="#2c16c0" d="
  M 422.14 13.38
  L 425.95 40.63
  A 0.70 0.69 68.1 0 1 425.68 41.27
  L 395.43 63.25
  A 0.24 0.24 0.0 0 1 395.04 63.06
  L 394.51 45.13
  A 0.25 0.24 -18.6 0 0 394.12 44.94
  L 374.78 59.00
  A 2.08 2.07 -15.5 0 0 373.94 60.47
  L 373.44 65.37
  A 0.45 0.45 0.0 0 0 374.15 65.78
  L 386.89 56.52
  A 0.36 0.35 71.3 0 1 387.45 56.80
  L 387.50 58.39
  A 1.30 1.29 71.5 0 1 386.96 59.48
  L 380.25 64.36
  A 0.57 0.57 0.0 0 0 380.10 65.12
  L 380.28 65.41
  A 0.50 0.49 56.5 0 0 380.99 65.56
  L 387.20 61.04
  A 0.17 0.16 71.3 0 1 387.46 61.17
  L 387.68 68.68
  A 1.09 1.09 0.0 0 1 387.23 69.60
  L 271.42 153.78
  A 0.23 0.22 -10.2 0 1 271.07 153.54
  L 279.83 121.68
  L 307.30 100.74
  L 305.03 111.15
  A 1.49 1.47 -12.1 0 1 304.46 112.02
  L 300.09 115.19
  A 2.90 2.87 -10.4 0 0 299.01 116.74
  L 297.45 122.16
  A 0.37 0.37 0.0 0 0 297.97 122.59
  Q 300.37 121.38 301.58 119.56
  L 303.05 119.22
  C 303.55 120.11 302.36 121.88 302.35 123.08
  A 0.29 0.29 0.0 0 0 302.81 123.32
  L 307.88 119.63
  A 1.28 1.26 78.5 0 0 308.39 118.84
  L 312.79 96.56
  L 422.14 13.38
  Z"
/>
<path fill="#cacecd" d="
  M 497.71 20.89
  Q 499.26 22.86 500.51 24.97
  Q 501.12 25.99 499.64 26.40
  Q 499.01 24.05 497.33 21.63
  A 0.46 0.44 -59.6 0 1 497.25 21.29
  Q 497.32 20.82 497.71 20.89
  Z"
/>
<path fill="#888c8b" d="
  M 504.54 39.12
  Q 505.30 40.26 505.63 42.20
  Q 503.37 41.82 502.46 37.44
  A 0.17 0.17 0.0 0 1 502.78 37.34
  Q 503.42 38.77 504.54 39.12
  Z"
/>
<path fill="#888c8b" d="
  M 429.97 38.54
  Q 429.63 38.25 429.70 37.79
  Q 429.99 38.07 429.97 38.54
  Z"
/>
<path fill="#888c8b" d="
  M 430.76 40.80
  Q 430.69 41.00 430.45 40.99
  Q 430.23 40.98 430.15 40.83
  Q 430.07 40.69 430.23 40.52
  L 430.76 40.80
  Z"
/>
<path fill="#888c8b" d="
  M 507.30 45.99
  Q 507.48 47.40 508.28 48.85
  Q 505.97 46.67 507.30 45.99
  Z"
/>
<path fill="#888c8b" d="
  M 384.43 56.80
  A 0.12 0.12 0.0 0 1 384.27 56.76
  L 384.24 56.71
  A 2.51 1.78 -30.8 0 1 385.48 53.89
  L 385.67 53.78
  A 2.51 1.78 -30.8 0 1 388.74 54.03
  L 388.77 54.08
  A 0.12 0.12 0.0 0 1 388.73 54.24
  L 384.43 56.80
  Z"
/>
<path fill="#888c8b" d="
  M 382.06 57.17
  A 0.55 0.55 0.0 0 1 383.11 57.31
  Q 383.25 58.27 382.75 58.45
  A 0.52 0.36 -13.8 0 1 382.08 58.19
  Q 382.05 57.21 382.06 57.17
  Z"
/>
<path fill="#cacecd" d="
  M 409.23 76.94
  L 409.49 85.81
  A 0.54 0.54 0.0 0 1 409.25 86.28
  L 385.36 102.45
  A 0.54 0.54 0.0 0 1 384.52 102.02
  L 384.26 93.15
  A 0.54 0.54 0.0 0 1 384.50 92.68
  L 408.39 76.51
  A 0.54 0.54 0.0 0 1 409.23 76.94
  Z
  M 400.53 89.10
  Q 399.06 89.80 398.34 88.85
  A 0.68 0.67 -33.7 0 0 397.46 88.68
  Q 395.45 89.85 394.62 91.03
  A 0.64 0.63 -33.5 0 0 394.51 91.56
  L 394.93 93.41
  A 0.22 0.22 0.0 0 0 395.26 93.54
  L 400.88 89.73
  A 0.36 0.36 0.0 0 0 400.53 89.10
  Z"
/>
<path fill="#888c8b" d="
  M 400.53 89.10
  A 0.36 0.36 0.0 0 1 400.88 89.73
  L 395.26 93.54
  A 0.22 0.22 0.0 0 1 394.93 93.41
  L 394.51 91.56
  A 0.64 0.63 -33.5 0 1 394.62 91.03
  Q 395.45 89.85 397.46 88.68
  A 0.68 0.67 -33.7 0 1 398.34 88.85
  Q 399.06 89.80 400.53 89.10
  Z"
/>
<path fill="#888c8b" d="
  M 439.96 98.87
  Q 439.48 99.52 439.69 100.76
  Q 443.79 124.89 447.12 149.49
  Q 442.82 133.07 441.16 116.17
  A 5.32 4.94 35.7 0 0 440.98 115.28
  C 440.24 112.73 440.27 110.12 439.81 107.91
  Q 438.98 104.02 437.93 96.49
  A 0.25 0.25 0.0 0 1 438.39 96.32
  L 439.96 98.87
  Z"
/>
<path fill="#cacecd" d="
  M 312.79 96.56
  L 308.39 118.84
  A 1.28 1.26 78.5 0 1 307.88 119.63
  L 302.81 123.32
  A 0.29 0.29 0.0 0 1 302.35 123.08
  C 302.36 121.88 303.55 120.11 303.05 119.22
  Q 302.89 118.76 302.98 118.30
  Q 303.08 117.82 303.51 117.58
  Q 304.86 116.82 305.57 115.98
  A 1.42 1.37 -74.2 0 1 306.36 115.52
  Q 307.02 115.39 307.04 115.27
  A 1.27 1.20 76.9 0 0 305.15 114.01
  Q 301.73 116.51 301.58 119.56
  Q 300.37 121.38 297.97 122.59
  A 0.37 0.37 0.0 0 1 297.45 122.16
  L 299.01 116.74
  A 2.90 2.87 -10.4 0 1 300.09 115.19
  L 304.46 112.02
  A 1.49 1.47 -12.1 0 0 305.03 111.15
  L 307.30 100.74
  L 312.79 96.56
  Z"
/>
<path fill="#2c16c0" d="
  M 252.27 218.73
  L 263.28 211.61
  L 271.27 206.44
  A 0.69 0.69 0.0 0 0 271.18 205.23
  L 270.86 205.08
  A 0.44 0.44 0.0 0 1 270.81 204.31
  L 274.64 201.87
  Q 274.32 204.82 278.15 201.15
  L 289.60 193.86
  A 0.52 0.48 52.1 0 0 289.67 193.10
  Q 289.51 192.92 289.09 192.81
  A 0.33 0.32 -61.1 0 1 288.94 192.28
  Q 289.31 191.87 289.54 191.83
  Q 289.87 191.78 290.07 192.13
  Q 290.36 192.61 290.47 192.70
  A 0.81 0.80 -42.9 0 0 291.42 192.73
  Q 299.57 187.38 304.26 184.04
  Q 304.87 183.60 305.74 183.27
  A 1.08 0.28 -14.3 0 0 305.85 183.21
  L 313.86 177.91
  A 0.29 0.24 4.7 0 0 313.93 177.86
  Q 315.09 176.77 318.93 174.36
  A 1.48 1.45 -65.6 0 1 319.47 174.15
  C 320.96 173.90 321.15 172.83 322.27 172.09
  Q 349.96 153.84 387.71 128.47
  A 0.22 0.22 0.0 0 1 388.06 128.65
  L 388.40 140.04
  A 1.08 1.07 -17.3 0 1 387.90 140.98
  L 379.56 146.38
  A 1.68 1.66 -17.4 0 0 378.80 147.81
  L 378.82 148.28
  A 0.66 0.66 0.0 0 0 379.84 148.82
  L 388.05 143.51
  A 0.06 0.06 0.0 0 1 388.15 143.56
  L 388.29 148.32
  A 0.55 0.54 -18.2 0 1 388.05 148.79
  L 370.79 159.95
  A 0.84 0.84 0.0 0 0 370.40 160.58
  L 369.34 170.91
  A 0.55 0.55 0.0 0 0 370.19 171.43
  L 397.32 153.89
  A 1.34 1.31 73.1 0 0 397.92 152.74
  L 397.04 123.15
  A 1.76 1.74 72.6 0 1 397.81 121.66
  L 417.60 108.45
  Q 421.45 105.83 425.45 103.15
  Q 425.85 102.89 425.53 102.20
  Q 425.77 102.35 426.01 102.38
  Q 426.28 102.41 426.51 102.28
  Q 430.14 100.24 433.68 97.68
  A 0.24 0.24 0.0 0 1 434.07 97.84
  L 441.11 147.42
  A 1.47 1.46 70.4 0 1 440.43 148.87
  L 281.74 246.41
  A 0.19 0.19 0.0 0 1 281.45 246.21
  L 289.81 205.61
  A 0.14 0.14 0.0 0 0 289.59 205.47
  L 282.88 210.01
  A 0.59 0.58 79.6 0 0 282.64 210.37
  L 281.12 217.73
  A 1.09 1.08 -10.9 0 1 280.64 218.43
  L 273.79 222.86
  A 1.38 1.38 0.0 0 0 273.19 223.73
  L 271.05 234.16
  A 0.24 0.24 0.0 0 0 271.41 234.41
  L 277.82 230.27
  A 0.12 0.12 0.0 0 1 278.00 230.39
  L 273.79 250.82
  A 1.25 1.24 80.3 0 1 273.22 251.63
  L 237.03 273.88
  A 0.24 0.24 0.0 0 1 236.67 273.61
  L 252.11 220.01
  A 0.37 0.27 80.8 0 1 252.17 219.89
  Q 252.94 218.75 252.27 218.73
  Z"
/>
<path fill="#888c8b" d="
  M 425.53 102.20
  Q 425.85 102.89 425.45 103.15
  Q 421.45 105.83 417.60 108.45
  Q 415.07 104.99 419.30 105.51
  A 0.65 0.65 0.0 0 0 420.03 104.78
  Q 420.01 104.64 420.02 104.60
  A 2.52 2.51 -8.6 0 1 420.99 103.29
  L 424.56 100.80
  A 0.56 0.56 0.0 0 1 425.40 101.05
  Q 425.58 101.51 425.53 102.20
  Z"
/>
<path fill="#888c8b" d="
  M 303.05 119.22
  L 301.58 119.56
  Q 301.73 116.51 305.15 114.01
  A 1.27 1.20 76.9 0 1 307.04 115.27
  Q 307.02 115.39 306.36 115.52
  A 1.42 1.37 -74.2 0 0 305.57 115.98
  Q 304.86 116.82 303.51 117.58
  Q 303.08 117.82 302.98 118.30
  Q 302.89 118.76 303.05 119.22
  Z"
/>
<path fill="#63634c" d="
  M 191.31 133.27
  Q 191.51 133.86 191.24 134.22
  A 0.40 0.38 -76.1 0 1 191.01 134.37
  Q 189.79 134.65 189.56 135.47
  Q 189.53 134.67 189.54 133.90
  Q 189.56 132.94 190.08 132.89
  Q 190.53 132.84 191.31 133.27
  Z"
/>
<path fill="#888c8b" d="
  M 194.66 174.58
  Q 193.84 176.43 194.08 179.62
  A 0.65 0.64 -89.0 0 0 194.65 180.22
  L 196.52 180.41
  A 0.70 0.69 61.3 0 1 196.82 180.50
  L 204.07 184.55
  A 0.95 0.86 -24.7 0 0 204.42 184.66
  C 209.06 185.27 212.44 185.54 214.49 189.65
  A 0.45 0.45 0.0 0 1 214.19 190.29
  L 210.16 191.21
  A 0.68 0.68 0.0 0 0 209.64 191.95
  Q 210.28 197.35 209.41 203.59
  A 0.60 0.60 0.0 0 0 210.10 204.26
  Q 214.71 203.57 217.99 199.36
  Q 217.76 201.21 218.97 202.33
  A 0.42 0.41 -10.3 0 1 218.50 203.00
  Q 217.77 202.65 216.93 203.44
  Q 215.82 204.47 214.79 205.27
  A 0.53 0.52 -61.7 0 0 215.07 206.21
  Q 216.59 206.32 218.17 205.30
  A 1.94 1.91 89.6 0 0 218.81 204.64
  Q 220.31 202.16 219.63 199.62
  Q 220.73 199.40 221.84 199.93
  Q 224.65 201.28 232.88 205.15
  A 0.78 0.77 21.3 0 1 233.29 206.07
  L 230.59 215.46
  A 0.72 0.71 -87.8 0 1 230.06 215.96
  L 226.54 216.77
  A 1.99 1.99 0.0 0 1 224.80 216.33
  L 216.55 209.08
  A 0.47 0.47 0.0 0 0 215.77 209.36
  Q 214.89 215.24 211.51 221.79
  A 0.62 0.62 0.0 0 1 210.70 222.07
  L 205.02 219.39
  A 0.71 0.70 26.2 0 0 204.09 219.70
  Q 202.87 222.04 199.30 228.06
  Q 191.18 241.81 177.70 251.78
  Q 172.63 255.53 168.50 252.23
  A 2.85 0.76 30.1 0 1 167.82 251.55
  Q 167.43 251.01 166.64 251.01
  A 0.81 0.77 31.2 0 1 166.23 249.52
  Q 171.62 246.97 176.26 242.79
  Q 189.86 230.54 197.13 214.10
  A 0.45 0.44 -60.8 0 1 197.78 213.91
  L 202.09 216.81
  A 1.53 1.52 29.7 0 0 204.32 216.20
  L 206.56 211.43
  A 1.56 1.55 29.7 0 0 206.02 209.47
  L 200.93 206.03
  A 0.88 0.87 23.6 0 1 200.56 205.10
  Q 200.70 204.50 201.59 201.43
  C 202.71 197.56 204.59 183.26 197.77 182.43
  Q 195.26 182.12 192.12 182.12
  A 2.30 2.26 -59.1 0 0 191.01 182.41
  Q 179.72 188.52 173.66 195.14
  Q 172.28 196.66 166.92 203.61
  C 163.82 207.64 161.48 212.88 159.07 216.81
  A 0.87 0.86 18.2 0 1 158.25 217.22
  L 156.87 217.08
  A 0.72 0.71 87.7 0 1 156.25 216.50
  L 155.95 214.91
  L 163.95 201.96
  Q 168.12 198.13 170.82 193.52
  L 182.81 183.59
  A 1.88 1.84 73.6 0 0 183.47 182.35
  L 187.80 140.06
  A 1.19 1.18 73.9 0 1 188.24 139.25
  L 190.02 137.80
  A 0.99 0.99 0.0 0 0 190.37 136.80
  Q 190.21 136.11 189.56 135.47
  Q 189.79 134.65 191.01 134.37
  A 0.40 0.38 -76.1 0 0 191.24 134.22
  Q 191.51 133.86 191.31 133.27
  Q 192.47 133.38 193.27 134.47
  A 1.46 1.46 0.0 0 0 194.28 135.05
  L 195.19 135.14
  A 0.80 0.79 5.7 0 1 195.91 136.01
  L 195.74 137.64
  A 1.03 1.02 21.8 0 0 196.14 138.56
  L 197.15 139.35
  A 1.09 1.08 -69.2 0 1 197.58 140.31
  L 194.66 174.58
  Z"
/>
<path fill="#888c8b" d="
  M 272.95 169.41
  Q 272.40 169.71 272.54 170.26
  A 0.52 0.51 -18.6 0 0 273.26 170.61
  Q 276.86 168.93 277.72 168.59
  A 1.04 1.02 -13.8 0 1 279.13 169.42
  Q 279.22 170.20 278.60 170.97
  A 0.76 0.73 -22.1 0 0 278.44 171.33
  L 277.88 175.00
  A 2.89 2.87 -12.3 0 1 276.59 177.00
  L 269.85 181.36
  A 1.29 1.29 0.0 0 0 269.29 182.12
  Q 266.07 193.45 262.41 207.68
  Q 261.73 210.31 263.28 211.61
  L 252.27 218.73
  Q 250.52 219.58 250.32 220.32
  Q 249.06 225.01 247.55 229.44
  L 242.38 237.77
  A 1.09 1.08 -36.1 0 0 242.25 238.58
  L 242.95 241.39
  Q 240.48 241.98 241.00 245.78
  Q 238.15 248.06 241.83 249.48
  Q 238.27 262.18 234.56 275.28
  Q 233.79 278.02 236.25 278.87
  A 1.08 1.06 -50.9 0 0 237.15 278.77
  L 336.88 218.05
  L 343.47 223.10
  A 0.57 0.57 0.0 0 1 342.94 224.09
  Q 342.66 223.99 342.22 223.73
  A 0.48 0.47 -78.7 0 0 341.51 224.21
  L 345.89 255.11
  A 0.24 0.24 0.0 0 0 346.24 255.28
  L 351.27 252.37
  A 0.17 0.16 -21.1 0 0 351.35 252.20
  L 349.25 237.34
  A 0.45 0.44 84.0 0 1 349.66 236.83
  L 352.34 236.65
  L 354.94 254.14
  A 1.03 1.03 0.0 0 0 356.98 254.09
  L 357.26 251.36
  A 0.97 0.97 0.0 0 1 358.85 250.72
  Q 361.84 253.27 362.16 256.14
  A 1.41 1.30 29.6 0 1 359.57 256.74
  Q 358.91 255.56 358.90 255.55
  A 2.01 1.98 52.7 0 0 357.69 255.38
  Q 354.97 255.86 355.17 256.78
  A 0.36 0.35 83.3 0 0 355.53 257.07
  L 356.62 257.04
  A 0.45 0.45 0.0 0 1 357.08 257.54
  Q 356.96 258.52 357.44 259.10
  A 0.85 0.85 0.0 0 1 357.62 259.83
  L 357.26 261.59
  A 0.50 0.48 -88.9 0 1 356.88 261.97
  Q 356.09 262.14 356.23 263.00
  Q 362.21 301.89 362.71 305.40
  A 2.25 2.24 -77.5 0 0 363.71 306.98
  L 382.19 319.02
  Q 381.48 320.06 383.39 321.91
  A 3.32 3.16 -83.3 0 1 383.99 322.71
  C 386.48 327.34 389.25 331.88 387.67 336.36
  A 2.14 2.08 50.6 0 0 387.58 337.41
  L 391.42 360.58
  A 0.78 0.72 24.2 0 0 391.54 360.86
  Q 392.56 362.27 392.45 365.04
  A 1.56 1.00 85.6 0 0 392.46 365.26
  L 395.60 383.71
  A 1.66 1.60 28.0 0 0 395.75 384.17
  Q 400.53 393.78 392.79 400.91
  Q 384.70 408.35 373.11 412.13
  Q 345.05 421.29 315.68 414.17
  Q 311.37 413.13 305.34 410.00
  C 300.03 407.25 294.51 402.38 294.45 396.43
  Q 294.36 388.06 293.69 380.75
  Q 293.48 378.42 293.61 376.56
  Q 293.67 375.71 294.21 375.08
  Q 294.62 374.59 294.33 374.08
  Q 294.06 373.63 294.41 373.02
  Q 295.13 371.74 294.02 370.36
  A 0.83 0.83 0.0 0 1 293.92 369.45
  L 294.87 367.53
  A 0.40 0.40 0.0 0 0 294.34 366.99
  Q 292.27 367.97 290.96 369.34
  C 288.26 372.14 284.93 372.64 281.86 370.02
  Q 284.52 367.94 287.97 368.42
  A 1.30 1.24 68.1 0 1 288.63 368.72
  L 289.34 369.34
  A 0.74 0.74 0.0 0 0 290.41 369.24
  L 294.19 364.34
  A 1.11 1.11 0.0 0 0 294.00 362.79
  Q 292.11 361.28 292.06 358.99
  Q 291.98 355.00 291.79 350.40
  A 0.94 0.93 -88.3 0 0 290.95 349.50
  L 290.64 349.47
  A 0.63 0.63 0.0 0 0 289.94 350.12
  L 290.21 359.39
  A 0.16 0.16 0.0 0 1 290.03 359.56
  L 285.06 359.05
  A 0.20 0.19 -88.4 0 1 284.89 358.86
  L 284.22 336.21
  A 1.21 1.21 0.0 0 0 282.52 335.14
  L 281.31 335.68
  A 1.72 1.70 -13.0 0 0 280.30 337.28
  L 280.96 359.47
  A 0.89 0.86 73.8 0 1 280.56 360.23
  L 278.36 361.66
  A 0.90 0.87 -19.8 0 0 277.95 362.50
  Q 278.22 364.94 279.88 366.57
  A 1.53 1.53 0.0 0 1 280.31 367.89
  L 280.14 368.95
  L 273.70 372.01
  A 0.77 0.76 -7.9 0 0 273.28 372.56
  Q 273.07 373.62 274.26 374.37
  A 0.39 0.39 0.0 0 1 274.36 374.94
  L 274.21 375.14
  A 0.17 0.17 0.0 0 1 273.99 375.19
  L 254.22 365.36
  A 1.33 1.32 -45.2 0 0 253.02 365.37
  C 250.72 366.53 246.26 369.19 243.04 369.63
  C 237.35 370.42 233.31 369.83 227.60 366.86
  Q 226.95 366.53 213.80 360.22
  Q 212.47 359.58 210.92 357.93
  A 2.21 2.03 -77.8 0 1 210.45 357.13
  C 208.99 352.72 214.90 350.57 218.68 348.64
  A 0.48 0.48 0.0 0 0 218.68 347.78
  L 181.57 329.34
  A 2.60 2.60 0.0 0 0 178.65 329.75
  Q 176.66 331.59 173.33 331.48
  A 1.30 1.30 0.0 0 1 172.37 331.03
  Q 172.30 330.96 171.93 330.29
  Q 171.63 329.74 171.12 329.71
  Q 170.59 329.69 170.32 330.26
  Q 170.09 330.75 169.74 330.80
  Q 169.36 330.85 169.04 330.41
  Q 168.43 330.13 167.29 330.38
  Q 166.48 330.04 167.32 327.88
  A 0.52 0.52 0.0 0 0 167.07 327.23
  L 165.64 326.52
  A 0.76 0.76 0.0 0 1 165.60 325.18
  L 167.74 323.95
  A 0.86 0.86 0.0 0 0 167.90 322.58
  Q 166.82 321.57 167.59 317.88
  A 1.32 1.31 -71.0 0 0 166.89 316.44
  L 150.28 308.19
  A 0.94 0.94 0.0 0 1 150.80 306.41
  L 152.07 306.54
  A 1.21 1.16 -57.2 0 0 152.82 306.36
  L 157.65 303.22
  Q 163.47 306.64 168.10 301.94
  A 0.36 0.35 -55.3 0 0 168.00 301.37
  L 162.10 298.59
  A 1.12 1.11 40.7 0 0 160.99 298.67
  C 158.54 300.33 157.08 301.98 153.81 299.32
  Q 155.14 294.61 153.69 293.68
  L 172.34 282.24
  A 1.59 1.58 -12.8 0 0 173.09 281.05
  L 175.66 255.93
  A 1.23 1.22 -13.7 0 1 176.21 255.03
  L 180.91 251.99
  A 0.81 0.80 -46.3 0 1 181.74 251.97
  L 186.95 254.98
  A 0.86 0.86 0.0 0 1 187.38 255.82
  L 185.65 272.69
  A 0.38 0.38 0.0 0 0 186.24 273.05
  L 211.03 256.83
  A 0.16 0.08 -63.4 0 0 211.07 256.80
  L 214.30 253.47
  A 1.71 1.48 85.9 0 0 214.48 253.23
  L 219.25 245.06
  A 0.78 0.78 0.0 0 0 219.32 244.85
  L 219.50 243.51
  A 2.04 2.04 0.0 0 1 222.54 242.01
  L 226.25 244.16
  A 0.59 0.58 28.4 0 1 226.49 244.93
  Q 226.29 245.33 226.01 245.65
  A 1.40 1.25 -80.5 0 0 227.40 247.86
  C 228.69 247.16 228.30 245.58 227.95 244.03
  A 0.87 0.87 0.0 0 1 228.05 243.41
  L 251.61 202.60
  A 0.72 0.71 -58.3 0 0 251.39 201.64
  L 246.83 198.57
  A 1.22 1.22 0.0 0 1 246.29 197.54
  L 246.76 163.46
  A 1.07 1.07 0.0 0 0 245.91 162.40
  L 237.26 160.62
  A 0.33 0.30 -64.2 0 0 236.93 160.75
  Q 236.69 161.09 236.97 161.49
  A 1.02 1.01 42.0 0 1 237.03 162.54
  Q 235.99 164.42 236.60 166.78
  A 0.43 0.43 0.0 0 1 235.79 167.07
  L 234.56 164.33
  A 1.57 1.56 83.6 0 0 233.44 163.43
  L 230.09 162.74
  A 1.08 1.07 22.4 0 0 228.97 163.20
  L 227.75 165.01
  A 0.85 0.84 50.0 0 1 226.28 164.88
  L 223.49 158.66
  A 0.25 0.24 83.5 0 1 223.76 158.31
  L 232.13 160.03
  A 0.49 0.49 0.0 0 0 232.50 159.14
  L 227.10 155.65
  Q 228.99 154.15 231.38 156.02
  A 0.39 0.38 -68.3 0 0 232.00 155.75
  L 232.22 153.64
  A 0.88 0.88 0.0 0 0 231.73 152.76
  Q 230.69 152.25 230.87 151.58
  A 0.96 0.91 -64.0 0 1 232.33 151.03
  Q 237.90 155.42 243.89 159.60
  A 1.64 1.63 -45.5 0 0 245.78 159.58
  L 252.06 155.02
  A 0.73 0.73 0.0 0 1 252.93 155.03
  L 264.20 163.45
  A 2.24 2.18 68.6 0 0 265.06 163.84
  Q 267.39 164.35 269.14 165.68
  A 1.59 1.57 10.2 0 1 269.73 166.52
  Q 270.38 168.68 272.95 169.41
  Z
  M 253.01 166.06
  Q 252.52 165.63 251.46 165.30
  A 0.27 0.27 0.0 0 0 251.16 165.70
  Q 251.75 166.63 252.09 166.79
  Q 252.56 167.03 252.98 166.51
  Q 253.13 166.32 253.03 166.09
  A 0.05 0.01 41.4 0 0 253.01 166.06
  Z
  M 253.57 169.22
  Q 253.51 168.88 253.10 168.34
  A 0.26 0.26 0.0 0 0 252.63 168.50
  Q 252.64 169.25 252.93 169.50
  A 0.39 0.35 18.0 0 0 253.57 169.22
  Z
  M 253.22 186.03
  Q 254.96 188.91 255.89 184.13
  Q 256.31 183.49 256.34 182.41
  A 1.58 1.53 65.1 0 1 256.64 181.55
  Q 257.38 180.55 258.13 180.22
  A 1.20 1.18 -4.6 0 0 258.79 179.46
  L 259.39 177.37
  A 0.24 0.24 0.0 0 1 259.70 177.21
  Q 260.18 177.37 261.09 176.40
  A 3.42 3.38 7.8 0 1 261.93 175.77
  Q 264.67 174.35 266.97 173.65
  Q 264.05 171.99 260.76 169.46
  A 0.66 0.65 -52.2 0 0 259.85 169.58
  Q 257.89 172.10 253.12 174.77
  A 2.85 2.83 74.6 0 0 251.68 177.33
  L 251.97 187.15
  A 0.29 0.29 0.0 0 0 252.16 187.42
  Q 252.88 187.67 253.22 186.03
  Z
  M 241.62 236.28
  A 0.47 0.46 39.7 0 0 242.32 236.22
  Q 245.48 231.90 247.40 226.65
  Q 248.09 224.76 248.11 223.49
  A 0.76 0.76 0.0 0 0 246.94 222.84
  L 240.14 227.25
  A 0.98 0.98 0.0 0 0 239.96 228.75
  Q 240.49 229.31 240.82 229.32
  A 0.49 0.49 0.0 0 1 241.30 229.86
  L 241.00 232.70
  A 0.96 0.94 -6.9 0 1 240.36 233.50
  Q 239.93 233.64 239.80 233.74
  A 0.99 0.89 35.9 0 0 240.14 235.32
  Q 241.01 235.69 241.62 236.28
  Z
  M 334.07 255.92
  A 0.07 0.05 -20.3 0 0 334.10 255.87
  L 334.15 254.24
  A 0.94 0.94 0.0 0 1 334.68 253.41
  Q 337.16 252.25 337.27 251.71
  A 0.17 0.16 -68.8 0 1 337.51 251.60
  L 343.92 255.30
  A 0.51 0.51 0.0 0 0 344.68 254.84
  Q 344.50 250.85 343.61 247.54
  A 7.62 7.49 -54.8 0 1 343.40 246.26
  Q 343.23 243.87 342.41 239.55
  Q 341.00 232.03 341.25 225.84
  A 0.66 0.66 0.0 0 0 340.25 225.25
  L 331.46 230.66
  A 2.51 2.50 -19.2 0 0 330.28 233.09
  L 333.00 255.90
  A 0.44 0.44 0.0 0 0 333.71 256.20
  L 334.07 255.92
  Z
  M 326.25 259.39
  Q 325.96 259.97 324.07 260.06
  A 1.12 0.43 62.1 0 1 323.35 259.43
  Q 323.23 259.22 322.74 259.38
  C 322.08 259.60 316.99 255.84 312.43 252.70
  A 0.87 0.87 0.0 0 0 311.08 253.52
  Q 312.06 261.30 312.34 266.94
  A 0.71 0.65 -86.3 0 1 311.57 267.68
  Q 311.36 267.64 311.22 267.40
  A 0.12 0.12 0.0 0 0 310.99 267.45
  Q 310.97 267.77 310.59 268.04
  Q 309.00 269.20 305.74 271.02
  A 1.26 1.26 0.0 0 0 305.65 273.16
  L 320.77 283.34
  A 1.05 1.04 46.9 0 0 321.87 283.38
  L 327.84 279.93
  A 0.94 0.94 0.0 0 0 328.30 278.98
  Q 327.93 276.37 326.61 263.95
  Q 326.61 263.94 326.71 263.13
  Q 326.82 262.22 325.52 261.06
  A 0.07 0.07 0.0 0 1 325.58 260.94
  Q 328.34 261.30 330.16 259.37
  Q 330.79 258.72 330.44 256.63
  A 0.32 0.32 0.0 0 0 329.86 256.50
  Q 329.85 256.51 329.93 257.07
  A 0.66 0.66 0.0 0 1 329.44 257.81
  Q 328.43 258.09 327.70 259.03
  Q 327.52 259.26 327.29 259.28
  Q 326.92 259.32 326.76 259.24
  A 0.37 0.37 0.0 0 0 326.25 259.39
  Z
  M 218.08 263.36
  L 222.77 265.70
  A 3.36 3.35 40.1 0 0 226.23 265.41
  L 231.20 261.79
  A 0.85 0.85 0.0 0 0 231.08 260.34
  L 225.13 257.37
  A 0.62 0.60 34.5 0 0 224.43 257.49
  Q 221.36 260.61 218.21 261.60
  A 0.95 0.95 0.0 0 0 218.08 263.36
  Z
  M 188.10 278.13
  A 0.34 0.34 0.0 0 0 188.61 278.48
  L 217.78 259.61
  A 1.04 1.04 0.0 0 0 218.18 258.35
  L 218.14 258.26
  A 1.01 1.00 61.9 0 0 216.67 257.81
  L 188.97 275.86
  A 1.32 1.31 79.3 0 0 188.40 276.70
  L 188.10 278.13
  Z
  M 229.25 271.58
  A 0.90 0.90 0.0 0 0 227.86 270.73
  L 222.20 274.38
  A 2.26 2.22 76.7 0 0 221.20 276.03
  L 220.65 281.33
  A 1.04 1.03 -72.5 0 0 221.16 282.32
  L 226.63 285.48
  A 0.85 0.84 -72.2 0 0 227.89 284.83
  L 229.25 271.58
  Z
  M 264.47 276.87
  Q 264.68 278.80 265.65 279.30
  A 0.61 0.61 0.0 0 0 266.48 279.02
  Q 267.08 277.76 268.68 276.66
  A 0.72 0.71 29.4 0 0 268.31 275.36
  Q 265.99 275.23 264.87 276.00
  A 0.94 0.92 70.2 0 0 264.47 276.87
  Z
  M 334.60 292.12
  L 341.18 296.55
  A 1.28 1.27 59.2 0 0 342.04 296.77
  Q 344.18 296.56 343.93 294.14
  Q 342.61 281.58 342.59 280.98
  A 0.93 0.92 77.2 0 0 341.29 280.16
  L 340.12 280.69
  A 1.52 1.51 77.3 0 0 339.22 282.12
  L 339.41 288.40
  A 0.56 0.55 -16.9 0 1 339.14 288.89
  L 334.62 291.50
  A 0.36 0.36 0.0 0 0 334.60 292.12
  Z
  M 351.16 302.55
  L 348.41 283.18
  A 0.62 0.62 0.0 0 0 347.54 282.70
  L 345.88 283.45
  A 0.79 0.79 0.0 0 0 345.42 284.28
  L 347.07 295.89
  A 1.44 1.43 57.9 0 1 346.84 296.90
  L 345.48 298.91
  A 0.46 0.45 -56.3 0 0 345.60 299.54
  L 350.60 302.90
  A 0.36 0.36 0.0 0 0 351.16 302.55
  Z
  M 159.47 298.07
  Q 159.41 297.31 160.44 296.68
  Q 161.60 295.96 171.59 289.40
  A 1.85 1.84 -16.4 0 0 172.42 287.88
  L 172.42 287.59
  A 0.53 0.52 -15.8 0 0 171.61 287.14
  Q 161.24 293.80 159.13 295.40
  Q 157.69 296.50 158.72 298.30
  A 0.40 0.40 0.0 0 0 159.47 298.07
  Z
  M 233.72 298.05
  Q 233.52 298.60 233.84 298.82
  Q 233.91 298.87 233.98 298.92
  L 243.88 304.58
  A 1.92 1.90 51.7 0 0 245.35 304.76
  Q 246.81 304.36 247.02 304.78
  A 0.42 0.41 62.9 0 0 247.60 304.97
  L 252.08 302.54
  A 0.45 0.45 0.0 0 0 252.09 301.76
  L 234.00 291.32
  A 0.55 0.55 0.0 0 0 233.18 291.81
  Q 233.25 294.14 233.03 296.75
  Q 233.00 297.14 233.56 297.55
  A 0.43 0.43 0.0 0 1 233.72 298.05
  Z
  M 227.8642 298.2791
  A 0.98 0.98 0.0 0 0 226.5326 297.8947
  L 220.6145 301.1617
  A 0.98 0.98 0.0 0 0 220.2301 302.4933
  L 220.3558 302.7209
  A 0.98 0.98 0.0 0 0 221.6874 303.1053
  L 227.6055 299.8383
  A 0.98 0.98 0.0 0 0 227.9899 298.5067
  L 227.8642 298.2791
  Z
  M 184.13 303.42
  A 0.39 0.38 -72.2 0 0 184.30 303.76
  L 187.96 306.22
  A 0.40 0.39 -55.9 0 1 188.06 306.77
  L 187.89 307.02
  A 0.36 0.35 -48.6 0 1 187.33 307.06
  Q 185.90 305.44 184.18 304.88
  A 0.27 0.26 11.6 0 0 183.83 305.10
  L 183.56 307.74
  A 0.25 0.25 0.0 0 0 183.69 307.99
  Q 190.65 311.84 195.08 314.08
  Q 196.37 314.73 196.68 314.56
  Q 197.21 314.28 198.10 313.87
  A 0.42 0.41 -38.7 0 0 198.18 313.17
  Q 198.04 313.05 198.03 313.05
  A 1.20 1.19 -63.8 0 1 197.73 312.16
  L 198.04 307.74
  A 1.65 1.63 16.1 0 0 197.17 306.19
  L 184.39 299.43
  A 0.02 0.01 13.3 0 0 184.36 299.44
  L 184.13 303.42
  Z
  M 228.80 346.38
  L 233.24 346.83
  A 0.12 0.12 0.0 0 0 233.38 346.71
  L 233.91 308.07
  A 0.93 0.93 0.0 0 0 232.70 307.17
  Q 230.73 307.77 229.83 308.51
  A 1.32 1.31 69.2 0 0 229.36 309.56
  Q 229.60 315.48 229.42 322.18
  Q 229.02 337.40 228.52 346.05
  A 0.31 0.31 0.0 0 0 228.80 346.38
  Z
  M 201.31 326.47
  Q 201.43 326.43 201.46 326.27
  A 0.20 0.10 59.7 0 1 201.71 326.44
  Q 201.84 326.89 202.73 328.13
  A 2.01 1.99 -4.3 0 0 203.40 328.70
  L 212.25 333.27
  A 0.72 0.72 0.0 0 0 212.95 333.24
  Q 213.73 332.74 214.89 333.27
  Q 215.56 333.57 215.89 332.83
  Q 216.12 332.32 216.90 332.09
  Q 219.00 331.46 222.56 328.80
  A 0.92 0.88 78.1 0 0 222.89 328.27
  Q 222.94 328.04 222.89 327.75
  A 0.38 0.38 0.0 0 1 223.37 327.33
  Q 223.51 327.38 223.52 327.38
  A 0.71 0.71 0.0 0 0 224.29 326.69
  L 224.40 321.65
  A 0.76 0.75 -5.9 0 1 224.99 320.93
  Q 225.39 320.83 225.44 320.80
  Q 225.95 320.52 225.70 319.65
  Q 225.45 318.76 225.92 318.53
  A 0.35 0.34 46.2 0 0 225.93 317.92
  L 221.31 315.35
  A 0.62 0.59 -1.2 0 1 221.06 315.12
  Q 219.80 313.22 218.09 313.37
  A 0.79 0.71 52.9 0 1 217.68 313.29
  L 212.25 310.59
  A 0.27 0.17 58.3 0 1 212.19 310.56
  Q 211.05 310.20 208.97 312.17
  A 0.69 0.68 23.2 0 1 208.46 312.37
  Q 208.26 312.36 208.25 312.36
  A 0.69 0.69 0.0 0 0 207.71 313.03
  L 207.71 313.85
  A 0.18 0.18 0.0 0 1 207.37 313.92
  Q 207.32 313.81 207.28 313.67
  A 0.69 0.69 0.0 0 0 206.31 313.26
  Q 204.81 314.03 205.02 316.12
  A 0.74 0.73 -74.2 0 1 203.84 316.78
  L 202.65 315.87
  A 0.69 0.69 0.0 0 0 201.82 315.86
  Q 199.86 317.32 200.30 319.38
  A 0.89 0.88 -82.6 0 0 200.75 319.97
  Q 201.51 320.38 201.37 321.24
  Q 200.84 324.34 201.25 326.43
  A 0.05 0.05 0.0 0 0 201.31 326.47
  Z
  M 335.55 342.14
  A 2.07 2.07 0.0 0 0 338.64 341.74
  L 354.58 318.07
  A 1.16 1.14 58.6 0 0 354.76 317.30
  L 354.16 312.27
  A 2.03 2.03 0.0 0 0 351.13 310.75
  L 340.61 316.82
  A 0.61 0.60 43.6 0 0 340.64 317.88
  Q 341.67 318.41 343.08 319.18
  Q 343.57 319.45 343.59 320.03
  Q 343.60 320.63 343.31 321.35
  A 0.70 0.67 53.9 0 0 343.26 321.73
  Q 343.32 322.25 343.73 322.60
  Q 344.11 322.93 344.79 322.35
  Q 345.57 321.68 345.94 321.71
  A 0.79 0.78 4.5 0 1 346.66 322.54
  Q 346.44 326.24 343.02 328.42
  A 0.88 0.86 81.9 0 1 341.73 327.43
  Q 341.89 326.85 341.64 326.04
  A 0.54 0.54 0.0 0 0 340.82 325.75
  Q 338.57 327.26 335.66 325.51
  A 1.72 1.72 0.0 0 0 333.07 327.18
  L 334.74 341.18
  A 1.07 1.05 12.0 0 0 335.27 341.98
  Q 335.54 342.14 335.55 342.14
  Z
  M 265.34 334.08
  Q 264.67 334.14 264.79 333.71
  A 0.57 0.56 85.3 0 1 265.08 333.36
  L 268.53 331.51
  A 1.38 1.37 -50.0 0 0 268.31 328.99
  Q 267.73 328.81 267.75 328.42
  A 1.40 1.39 77.5 0 1 268.48 327.26
  L 282.25 319.87
  A 0.53 0.52 -30.4 0 0 282.45 319.12
  L 282.43 319.10
  A 0.45 0.44 58.8 0 0 281.84 318.95
  L 268.56 326.12
  A 0.47 0.47 0.0 0 1 267.91 325.90
  L 267.84 325.77
  A 0.38 0.38 0.0 0 0 267.16 325.79
  Q 266.86 326.44 266.23 326.87
  A 0.95 0.94 -20.0 0 0 265.83 327.71
  Q 265.88 328.34 265.75 328.69
  A 1.54 1.52 86.1 0 1 265.01 329.55
  L 261.04 331.62
  A 0.51 0.51 0.0 0 0 260.80 332.27
  Q 261.50 334.02 263.24 335.43
  A 0.26 0.26 0.0 0 0 263.56 335.44
  L 265.39 334.21
  A 0.07 0.07 0.0 0 0 265.34 334.08
  Z
  M 182.46 319.50
  L 181.43 319.41
  A 1.03 1.02 -76.0 0 0 180.41 320.03
  Q 179.94 321.14 180.45 322.35
  Q 180.69 322.94 181.76 322.79
  Q 182.63 322.68 182.65 321.75
  A 0.56 0.56 0.0 0 1 183.20 321.21
  Q 183.44 321.20 183.45 321.19
  A 1.20 1.19 -75.5 0 0 182.46 319.50
  Z
  M 240.19 324.87
  Q 240.18 327.43 240.35 330.03
  Q 240.35 330.07 240.41 330.18
  Q 240.48 330.29 240.67 330.39
  A 0.07 0.06 2.4 0 0 240.76 330.31
  Q 240.65 329.99 240.88 329.62
  A 0.33 0.30 2.2 0 1 241.02 329.50
  L 244.24 328.05
  A 0.58 0.58 0.0 0 0 244.45 327.14
  L 241.73 323.97
  Q 242.16 322.70 241.81 322.17
  A 1.15 1.14 -50.1 0 0 239.81 322.35
  Q 239.11 323.92 240.19 324.87
  Z
  M 256.64 327.78
  L 259.57 331.06
  A 0.66 0.66 0.0 0 0 260.56 331.05
  L 261.16 330.36
  A 0.13 0.13 0.0 0 0 261.11 330.15
  Q 260.91 330.07 260.90 330.01
  A 0.38 0.37 72.3 0 1 261.11 329.58
  Q 263.35 328.58 264.00 327.37
  A 0.62 0.61 33.4 0 0 263.84 326.60
  L 261.70 324.96
  A 0.50 0.49 37.7 0 0 261.00 325.04
  L 260.79 325.32
  A 0.45 0.45 0.0 0 1 260.01 325.19
  L 259.80 324.53
  Q 259.71 323.63 258.73 323.64
  Q 256.67 323.67 256.43 324.72
  Q 256.01 326.46 256.64 327.78
  Z
  M 246.04 333.20
  Q 245.94 333.36 245.89 333.49
  A 0.48 0.48 0.0 0 0 246.16 334.12
  L 251.76 336.41
  A 0.54 0.53 1.4 0 1 252.07 336.73
  Q 252.18 337.05 252.41 337.21
  A 0.26 0.26 0.0 0 0 252.81 336.92
  Q 252.39 335.46 251.51 334.98
  A 1.68 1.66 88.4 0 1 250.90 334.40
  Q 249.93 332.83 248.53 331.73
  Q 248.84 330.47 248.62 329.79
  A 0.89 0.89 0.0 0 0 247.11 329.46
  Q 246.49 330.15 245.84 330.74
  Q 245.16 331.36 245.13 332.07
  Q 245.09 332.89 246.04 333.20
  Z
  M 266.35 339.03
  A 0.14 0.13 56.7 0 0 266.51 339.07
  Q 269.85 337.66 274.03 335.36
  A 2.06 2.01 64.7 0 0 274.91 332.80
  Q 274.52 331.82 271.70 331.06
  A 0.02 0.02 0.0 0 0 271.67 331.07
  L 271.05 332.10
  A 1.63 1.62 -88.4 0 1 270.43 332.69
  L 263.95 336.09
  A 0.19 0.19 0.0 0 0 263.90 336.38
  L 266.35 339.03
  Z
  M 314.72 347.29
  A 0.68 0.68 0.0 0 0 315.06 346.68
  L 314.79 337.76
  A 0.68 0.68 0.0 0 0 313.77 337.19
  L 309.88 339.44
  A 0.68 0.68 0.0 0 0 309.54 340.05
  L 309.81 348.97
  A 0.68 0.68 0.0 0 0 310.83 349.54
  L 314.72 347.29
  Z
  M 307.50 341.91
  L 299.54 345.85
  A 0.24 0.24 0.0 0 0 299.41 346.08
  L 299.74 357.39
  A 0.61 0.61 0.0 0 0 300.60 357.93
  L 309.35 354.00
  A 0.37 0.37 0.0 0 0 309.30 353.31
  L 308.87 353.18
  A 0.94 0.93 7.3 0 1 308.19 352.31
  L 307.89 342.14
  A 0.27 0.27 0.0 0 0 307.50 341.91
  Z
  M 328.18 345.54
  L 322.51 342.12
  A 0.51 0.51 0.0 0 0 321.74 342.50
  Q 321.10 348.02 326.14 349.21
  A 1.84 1.79 87.4 0 0 328.23 346.86
  Q 328.06 346.31 328.24 346.15
  A 0.38 0.38 0.0 0 0 328.18 345.54
  Z
  M 324.17 353.11
  Q 323.80 350.85 324.24 350.57
  A 0.21 0.21 0.0 0 0 324.22 350.21
  L 321.24 348.66
  A 0.77 0.74 -42.3 0 0 320.58 348.64
  L 311.83 352.57
  A 1.22 1.20 -9.5 0 0 311.12 353.55
  L 310.97 355.06
  A 0.89 0.89 0.0 0 0 311.56 355.99
  Q 313.67 356.72 314.42 358.10
  A 0.66 0.65 60.9 0 0 315.31 358.36
  C 315.70 358.14 315.89 357.52 316.56 357.28
  Q 319.90 356.12 323.72 354.05
  A 0.90 0.88 71.2 0 0 324.17 353.11
  Z
  M 220.76 355.64
  Q 220.76 355.80 220.86 355.93
  A 0.09 0.08 -3.6 0 0 220.91 355.96
  Q 221.73 356.30 225.47 358.15
  Q 225.48 358.16 225.66 358.16
  Q 225.84 358.16 225.86 358.15
  Q 229.59 356.28 230.41 355.94
  A 0.09 0.08 3.3 0 0 230.45 355.91
  Q 230.55 355.77 230.55 355.61
  Q 230.55 355.46 230.45 355.32
  A 0.09 0.08 -3.6 0 0 230.40 355.29
  Q 229.58 354.95 225.85 353.10
  Q 225.83 353.09 225.65 353.09
  Q 225.47 353.09 225.46 353.10
  Q 221.73 354.97 220.91 355.31
  A 0.09 0.08 3.3 0 0 220.86 355.35
  Q 220.76 355.48 220.76 355.64
  Z
  M 239.71 367.60
  A 0.30 0.30 0.0 0 0 239.99 367.59
  L 248.86 362.47
  A 0.30 0.30 0.0 0 0 248.84 361.94
  L 244.29 359.79
  A 0.30 0.30 0.0 0 0 244.01 359.80
  L 235.14 364.92
  A 0.30 0.30 0.0 0 0 235.16 365.45
  L 239.71 367.60
  Z
  M 285.04 369.99
  Q 285.05 370.37 285.29 370.64
  A 0.54 0.52 69.0 0 0 285.66 370.81
  Q 287.86 370.86 287.84 369.93
  Q 287.82 369.00 285.62 369.15
  A 0.54 0.52 -71.6 0 0 285.26 369.33
  Q 285.03 369.61 285.04 369.99
  Z"
/>
<path fill="#888c8b" d="
  M 380.89 161.95
  L 380.75 157.11
  A 0.49 0.49 0.0 0 1 381.62 156.78
  L 383.02 158.51
  A 0.35 0.35 0.0 0 0 383.65 158.28
  L 383.61 156.77
  A 1.11 1.10 -21.2 0 1 384.01 155.88
  Q 386.39 153.91 386.83 153.77
  Q 387.98 153.41 388.43 154.38
  A 0.66 0.66 0.0 0 0 389.45 154.61
  L 390.66 153.63
  A 0.34 0.33 67.5 0 1 391.20 153.86
  Q 391.42 155.70 390.51 156.26
  Q 389.07 157.14 381.24 162.13
  A 0.23 0.23 0.0 0 1 380.89 161.95
  Z"
/>
<path fill="#cacecd" d="
  M 227.10 155.65
  L 232.50 159.14
  A 0.49 0.49 0.0 0 1 232.13 160.03
  L 223.76 158.31
  A 0.25 0.24 83.5 0 0 223.49 158.66
  L 226.28 164.88
  A 0.85 0.84 50.0 0 0 227.75 165.01
  L 228.97 163.20
  A 1.08 1.07 22.4 0 1 230.09 162.74
  L 233.44 163.43
  A 1.57 1.56 83.6 0 1 234.56 164.33
  L 235.79 167.07
  A 0.43 0.43 0.0 0 0 236.60 166.78
  Q 235.99 164.42 237.03 162.54
  A 1.02 1.01 42.0 0 0 236.97 161.49
  Q 236.69 161.09 236.93 160.75
  A 0.33 0.30 -64.2 0 1 237.26 160.62
  L 245.91 162.40
  A 1.07 1.07 0.0 0 1 246.76 163.46
  L 246.29 197.54
  A 1.22 1.22 0.0 0 0 246.83 198.57
  L 251.39 201.64
  A 0.72 0.71 -58.3 0 1 251.61 202.60
  L 228.05 243.41
  A 0.87 0.87 0.0 0 0 227.95 244.03
  C 228.30 245.58 228.69 247.16 227.40 247.86
  A 1.40 1.25 -80.5 0 1 226.01 245.65
  Q 226.29 245.33 226.49 244.93
  A 0.59 0.58 28.4 0 0 226.25 244.16
  L 222.54 242.01
  A 2.04 2.04 0.0 0 0 219.50 243.51
  L 219.32 244.85
  A 0.78 0.78 0.0 0 1 219.25 245.06
  L 214.48 253.23
  A 1.71 1.48 85.9 0 1 214.30 253.47
  L 211.07 256.80
  A 0.16 0.08 -63.4 0 1 211.03 256.83
  L 186.24 273.05
  A 0.38 0.38 0.0 0 1 185.65 272.69
  L 187.38 255.82
  A 0.86 0.86 0.0 0 0 186.95 254.98
  L 181.74 251.97
  A 0.81 0.80 -46.3 0 0 180.91 251.99
  L 176.21 255.03
  A 1.23 1.22 -13.7 0 0 175.66 255.93
  L 173.09 281.05
  A 1.59 1.58 -12.8 0 1 172.34 282.24
  L 153.69 293.68
  L 151.46 291.90
  Q 151.26 291.42 150.81 291.03
  L 150.76 290.45
  A 1.17 1.14 -74.2 0 0 150.33 289.66
  L 137.74 279.89
  L 134.15 277.21
  A 0.83 0.81 -67.4 0 1 133.84 276.44
  L 134.94 269.29
  L 136.96 256.40
  Q 139.47 257.14 141.45 254.94
  A 0.38 0.38 0.0 0 0 141.15 254.31
  Q 140.37 254.35 139.68 254.03
  A 1.00 1.00 0.0 0 1 139.09 253.06
  C 139.33 248.53 139.53 243.53 142.88 240.83
  A 0.60 0.59 -59.1 0 0 142.62 239.78
  Q 140.20 239.35 139.83 238.67
  L 142.83 232.49
  L 148.02 236.42
  A 1.41 1.41 0.0 0 0 148.92 236.70
  Q 149.35 236.67 149.37 236.67
  A 0.71 0.70 6.4 0 1 149.98 237.43
  Q 149.73 240.63 150.88 244.67
  C 152.28 249.56 156.57 251.26 159.79 253.52
  A 3.54 3.49 -87.3 0 1 160.83 254.68
  C 162.68 258.09 165.27 260.85 169.24 261.30
  A 0.38 0.38 0.0 0 0 169.51 260.62
  Q 167.45 259.03 165.77 255.05
  A 2.87 2.86 -85.4 0 0 164.66 253.74
  Q 160.91 251.34 157.66 250.88
  A 1.66 1.65 -13.9 0 1 156.56 250.22
  Q 153.46 245.95 153.30 244.31
  Q 152.47 235.80 155.18 226.79
  A 1.63 1.62 32.5 0 0 154.83 225.24
  Q 153.57 223.85 153.53 223.25
  A 0.16 0.16 0.0 0 0 153.23 223.18
  Q 151.81 225.77 150.22 224.91
  L 153.89 218.15
  Q 153.76 218.05 154.06 217.55
  L 155.95 214.91
  L 156.25 216.50
  A 0.72 0.71 87.7 0 0 156.87 217.08
  L 158.25 217.22
  A 0.87 0.86 18.2 0 0 159.07 216.81
  C 161.48 212.88 163.82 207.64 166.92 203.61
  Q 172.28 196.66 173.66 195.14
  Q 179.72 188.52 191.01 182.41
  A 2.30 2.26 -59.1 0 1 192.12 182.12
  Q 195.26 182.12 197.77 182.43
  C 204.59 183.26 202.71 197.56 201.59 201.43
  Q 200.70 204.50 200.56 205.10
  A 0.88 0.87 23.6 0 0 200.93 206.03
  L 206.02 209.47
  A 1.56 1.55 29.7 0 1 206.56 211.43
  L 204.32 216.20
  A 1.53 1.52 29.7 0 1 202.09 216.81
  L 197.78 213.91
  A 0.45 0.44 -60.8 0 0 197.13 214.10
  Q 189.86 230.54 176.26 242.79
  Q 171.62 246.97 166.23 249.52
  A 0.81 0.77 31.2 0 0 166.64 251.01
  Q 167.43 251.01 167.82 251.55
  A 2.85 0.76 30.1 0 0 168.50 252.23
  Q 172.63 255.53 177.70 251.78
  Q 191.18 241.81 199.30 228.06
  Q 202.87 222.04 204.09 219.70
  A 0.71 0.70 26.2 0 1 205.02 219.39
  L 210.70 222.07
  A 0.62 0.62 0.0 0 0 211.51 221.79
  Q 214.89 215.24 215.77 209.36
  A 0.47 0.47 0.0 0 1 216.55 209.08
  L 224.80 216.33
  A 1.99 1.99 0.0 0 0 226.54 216.77
  L 230.06 215.96
  A 0.72 0.71 -87.8 0 0 230.59 215.46
  L 233.29 206.07
  A 0.78 0.77 21.3 0 0 232.88 205.15
  Q 224.65 201.28 221.84 199.93
  Q 220.73 199.40 219.63 199.62
  L 217.99 199.36
  Q 214.71 203.57 210.10 204.26
  A 0.60 0.60 0.0 0 1 209.41 203.59
  Q 210.28 197.35 209.64 191.95
  A 0.68 0.68 0.0 0 1 210.16 191.21
  L 214.19 190.29
  A 0.45 0.45 0.0 0 0 214.49 189.65
  C 212.44 185.54 209.06 185.27 204.42 184.66
  A 0.95 0.86 -24.7 0 1 204.07 184.55
  L 196.82 180.50
  A 0.70 0.69 61.3 0 0 196.52 180.41
  L 194.65 180.22
  A 0.65 0.64 -89.0 0 1 194.08 179.62
  Q 193.84 176.43 194.66 174.58
  Q 205.78 166.09 216.63 157.73
  C 217.94 156.72 219.61 155.72 221.27 156.55
  Q 221.58 156.78 222.04 156.70
  L 222.46 156.82
  Q 222.77 157.15 223.58 157.03
  Q 224.97 157.41 227.10 155.65
  Z
  M 237.15 193.51
  Q 236.31 193.83 236.65 194.78
  Q 237.38 196.86 238.94 200.28
  A 0.76 0.75 -30.1 0 0 240.07 200.58
  L 243.11 198.38
  A 1.69 1.68 -17.9 0 0 243.80 197.04
  Q 243.98 188.81 243.95 183.96
  Q 243.94 183.05 243.62 182.48
  Q 243.14 181.64 243.75 180.89
  A 1.03 1.01 -26.6 0 0 243.97 180.26
  L 244.16 166.74
  A 0.54 0.54 0.0 0 0 243.92 166.29
  L 237.73 162.13
  A 0.02 0.02 0.0 0 0 237.70 162.14
  Q 237.86 168.29 237.57 176.38
  Q 237.56 176.54 237.48 176.71
  Q 237.34 176.98 237.33 177.00
  A 3.65 2.63 -49.8 0 0 237.29 177.51
  L 237.68 192.72
  A 0.83 0.83 0.0 0 1 237.15 193.51
  Z
  M 191.46 191.54
  Q 192.05 192.73 192.88 192.21
  A 0.70 0.65 -6.9 0 0 193.15 191.89
  L 194.21 189.24
  A 0.45 0.45 0.0 0 0 193.71 188.63
  Q 192.23 188.88 191.39 187.77
  A 0.55 0.55 0.0 0 0 190.54 187.74
  Q 189.91 188.46 189.49 189.34
  Q 189.20 189.95 189.65 190.41
  Q 190.05 190.82 190.83 191.03
  A 1.02 1.00 -5.3 0 1 191.46 191.54
  Z
  M 223.24 198.39
  L 223.74 193.45
  A 0.66 0.66 0.0 0 0 222.67 192.87
  L 219.09 195.76
  A 0.65 0.64 -57.3 0 0 219.33 196.88
  Q 220.80 197.28 222.28 198.74
  A 0.57 0.57 0.0 0 0 223.24 198.39
  Z
  M 166.87 206.63
  A 1.67 1.67 0.0 0 0 165.41 209.40
  Q 166.46 210.59 166.64 211.16
  A 0.53 0.52 -24.0 0 0 167.40 211.45
  Q 169.93 209.98 169.79 206.90
  A 0.39 0.39 0.0 0 0 169.08 206.70
  L 168.70 207.27
  A 0.69 0.68 39.6 0 1 167.65 207.36
  Q 166.94 206.64 166.87 206.63
  Z
  M 188.01 227.16
  Q 191.47 225.86 190.87 222.16
  A 0.39 0.38 59.7 0 0 190.19 221.98
  Q 190.18 221.99 190.14 222.26
  A 0.61 0.60 -78.5 0 1 189.39 222.76
  Q 189.00 222.66 188.48 222.08
  A 0.86 0.80 39.2 0 0 187.14 222.16
  Q 186.59 223.12 186.22 223.84
  A 0.71 0.70 -61.7 0 0 186.49 224.76
  Q 187.21 225.19 187.37 226.76
  A 0.48 0.47 76.9 0 0 188.01 227.16
  Z
  M 165.22 241.89
  Q 163.87 241.74 162.57 240.72
  A 0.98 0.97 -57.9 0 0 161.10 241.06
  L 160.52 242.23
  A 1.05 1.04 -67.1 0 0 161.11 243.69
  Q 162.04 244.00 162.51 245.00
  A 0.61 0.61 0.0 0 0 163.39 245.26
  Q 164.99 244.26 165.61 242.53
  A 0.48 0.48 0.0 0 0 165.22 241.89
  Z
  M 173.30 260.91
  L 168.90 255.48
  A 1.19 1.14 77.6 0 0 168.33 255.10
  L 167.66 254.88
  A 0.21 0.21 0.0 0 0 167.42 255.20
  L 171.43 261.12
  A 0.50 0.49 72.4 0 0 171.84 261.34
  L 173.08 261.36
  A 0.28 0.28 0.0 0 0 173.30 260.91
  Z"
/>
<path fill="#888c8b" d="
  M 222.04 156.70
  Q 221.58 156.78 221.27 156.55
  Q 221.69 156.51 222.04 156.70
  Z"
/>
<path fill="#888c8b" d="
  M 223.58 157.03
  Q 222.77 157.15 222.46 156.82
  Q 223.11 156.69 223.58 157.03
  Z"
/>
<path fill="#63634c" d="
  M 237.68 192.72
  L 237.29 177.51
  A 3.65 2.63 -49.8 0 1 237.33 177.00
  Q 237.34 176.98 237.48 176.71
  Q 237.56 176.54 237.57 176.38
  Q 237.86 168.29 237.70 162.14
  A 0.02 0.02 0.0 0 1 237.73 162.13
  L 243.92 166.29
  A 0.54 0.54 0.0 0 1 244.16 166.74
  L 243.97 180.26
  A 1.03 1.01 -26.6 0 1 243.75 180.89
  Q 243.14 181.64 243.62 182.48
  Q 243.94 183.05 243.95 183.96
  Q 243.98 188.81 243.80 197.04
  A 1.69 1.68 -17.9 0 1 243.11 198.38
  L 240.07 200.58
  A 0.76 0.75 -30.1 0 1 238.94 200.28
  Q 237.38 196.86 236.65 194.78
  Q 236.31 193.83 237.15 193.51
  A 0.83 0.83 0.0 0 0 237.68 192.72
  Z"
/>
<path fill="#cacecd" d="
  M 253.03 166.09
  Q 253.13 166.32 252.98 166.51
  Q 252.56 167.03 252.09 166.79
  Q 251.75 166.63 251.16 165.70
  A 0.27 0.27 0.0 0 1 251.46 165.30
  Q 252.52 165.63 253.01 166.06
  A 0.05 0.01 41.4 0 1 253.03 166.09
  Z"
/>
<path fill="#cacecd" d="
  M 253.57 169.22
  A 0.39 0.35 18.0 0 1 252.93 169.50
  Q 252.64 169.25 252.63 168.50
  A 0.26 0.26 0.0 0 1 253.10 168.34
  Q 253.51 168.88 253.57 169.22
  Z"
/>
<path fill="#63634c" d="
  M 255.89 184.13
  L 253.22 186.03
  Q 252.88 187.67 252.16 187.42
  A 0.29 0.29 0.0 0 1 251.97 187.15
  L 251.68 177.33
  A 2.85 2.83 74.6 0 1 253.12 174.77
  Q 257.89 172.10 259.85 169.58
  A 0.66 0.65 -52.2 0 1 260.76 169.46
  Q 264.05 171.99 266.97 173.65
  Q 264.67 174.35 261.93 175.77
  A 3.42 3.38 7.8 0 0 261.09 176.40
  Q 260.18 177.37 259.70 177.21
  A 0.24 0.24 0.0 0 0 259.39 177.37
  L 258.79 179.46
  A 1.20 1.18 -4.6 0 1 258.13 180.22
  Q 257.38 180.55 256.64 181.55
  A 1.58 1.53 65.1 0 0 256.34 182.41
  Q 256.31 183.49 255.89 184.13
  Z"
/>
<path fill="#cacecd" d="
  M 255.89 184.13
  Q 254.96 188.91 253.22 186.03
  L 255.89 184.13
  Z"
/>
<path fill="#63634c" d="
  M 190.83 191.03
  Q 190.05 190.82 189.65 190.41
  Q 189.20 189.95 189.49 189.34
  Q 189.91 188.46 190.54 187.74
  A 0.55 0.55 0.0 0 1 191.39 187.77
  Q 192.23 188.88 193.71 188.63
  A 0.45 0.45 0.0 0 1 194.21 189.24
  L 193.15 191.89
  A 0.70 0.65 -6.9 0 1 192.88 192.21
  Q 192.05 192.73 191.46 191.54
  A 1.02 1.00 -5.3 0 0 190.83 191.03
  Z"
/>
<path fill="#888c8b" d="
  M 223.24 198.39
  A 0.57 0.57 0.0 0 1 222.28 198.74
  Q 220.80 197.28 219.33 196.88
  A 0.65 0.64 -57.3 0 1 219.09 195.76
  L 222.67 192.87
  A 0.66 0.66 0.0 0 1 223.74 193.45
  L 223.24 198.39
  Z"
/>
<path fill="#cacecd" d="
  M 170.82 193.52
  Q 168.12 198.13 163.95 201.96
  Q 166.26 196.08 170.82 193.52
  Z"
/>
<path fill="#63634c" d="
  M 219.63 199.62
  Q 220.31 202.16 218.81 204.64
  A 1.94 1.91 89.6 0 1 218.17 205.30
  Q 216.59 206.32 215.07 206.21
  A 0.53 0.52 -61.7 0 1 214.79 205.27
  Q 215.82 204.47 216.93 203.44
  Q 217.77 202.65 218.50 203.00
  A 0.42 0.41 -10.3 0 0 218.97 202.33
  Q 217.76 201.21 217.99 199.36
  L 219.63 199.62
  Z"
/>
<path fill="#888c8b" d="
  M 278.15 201.15
  Q 274.32 204.82 274.64 201.87
  L 276.78 200.27
  A 0.64 0.64 0.0 0 1 277.69 200.44
  L 278.15 201.15
  Z"
/>
<path fill="#63634c" d="
  M 166.87 206.63
  Q 166.94 206.64 167.65 207.36
  A 0.69 0.68 39.6 0 0 168.70 207.27
  L 169.08 206.70
  A 0.39 0.39 0.0 0 1 169.79 206.90
  Q 169.93 209.98 167.40 211.45
  A 0.53 0.52 -24.0 0 1 166.64 211.16
  Q 166.46 210.59 165.41 209.40
  A 1.67 1.67 0.0 0 1 166.87 206.63
  Z"
/>
<path fill="#888c8b" d="
  M 154.06 217.55
  Q 153.76 218.05 153.89 218.15
  Q 153.71 218.08 153.53 218.02
  Q 153.73 217.73 154.06 217.55
  Z"
/>
<path fill="#2c16c0" d="
  M 153.53 218.02
  Q 153.71 218.08 153.89 218.15
  L 150.22 224.91
  Q 149.95 224.91 149.26 224.40
  Q 150.99 222.07 151.70 219.39
  Q 152.27 218.70 153.53 218.02
  Z"
/>
<path fill="#cacecd" d="
  M 151.70 219.39
  Q 150.99 222.07 149.26 224.40
  Q 148.41 224.51 147.99 224.18
  Q 147.63 223.90 147.78 223.22
  Q 147.89 222.72 148.05 222.17
  L 151.70 219.39
  Z"
/>
<path fill="#63634c" d="
  M 187.37 226.76
  Q 187.21 225.19 186.49 224.76
  A 0.71 0.70 -61.7 0 1 186.22 223.84
  Q 186.59 223.12 187.14 222.16
  A 0.86 0.80 39.2 0 1 188.48 222.08
  Q 189.00 222.66 189.39 222.76
  A 0.61 0.60 -78.5 0 0 190.14 222.26
  Q 190.18 221.99 190.19 221.98
  A 0.39 0.38 59.7 0 1 190.87 222.16
  Q 191.47 225.86 188.01 227.16
  A 0.48 0.47 76.9 0 1 187.37 226.76
  Z"
/>
<path fill="#888c8b" d="
  M 275.89 228.82
  L 276.93 223.78
  A 0.40 0.40 0.0 0 1 277.59 223.56
  L 277.96 223.88
  A 0.78 0.77 -48.4 0 0 279.06 223.81
  L 280.78 221.85
  A 0.65 0.64 33.5 0 1 281.54 221.70
  Q 282.11 221.98 282.27 222.10
  A 0.99 0.98 -43.9 0 0 283.45 222.12
  Q 283.48 222.10 283.52 222.07
  A 0.45 0.45 0.0 0 1 284.21 222.39
  Q 284.40 223.74 283.60 224.36
  Q 281.43 226.05 276.46 229.21
  A 0.38 0.37 -10.3 0 1 275.89 228.82
  Z"
/>
<path fill="#888c8b" d="
  M 148.05 222.17
  Q 147.89 222.72 147.78 223.22
  Q 147.63 223.90 147.99 224.18
  Q 148.41 224.51 149.26 224.40
  Q 149.95 224.91 150.22 224.91
  Q 151.81 225.77 153.23 223.18
  A 0.16 0.16 0.0 0 1 153.53 223.25
  Q 153.57 223.85 154.83 225.24
  A 1.63 1.62 32.5 0 1 155.18 226.79
  Q 152.47 235.80 153.30 244.31
  Q 153.46 245.95 156.56 250.22
  A 1.66 1.65 -13.9 0 0 157.66 250.88
  Q 160.91 251.34 164.66 253.74
  A 2.87 2.86 -85.4 0 1 165.77 255.05
  Q 167.45 259.03 169.51 260.62
  A 0.38 0.38 0.0 0 1 169.24 261.30
  C 165.27 260.85 162.68 258.09 160.83 254.68
  A 3.54 3.49 -87.3 0 0 159.79 253.52
  C 156.57 251.26 152.28 249.56 150.88 244.67
  Q 149.73 240.63 149.98 237.43
  A 0.71 0.70 6.4 0 0 149.37 236.67
  Q 149.35 236.67 148.92 236.70
  A 1.41 1.41 0.0 0 1 148.02 236.42
  L 142.83 232.49
  Q 140.52 229.80 138.66 229.17
  Q 138.76 227.32 138.42 226.06
  A 2.44 2.37 70.4 0 1 139.71 223.24
  Q 142.39 222.01 144.61 223.02
  C 146.07 223.68 146.97 223.10 148.05 222.17
  Z"
/>
<path fill="#63634c" d="
  M 241.62 236.28
  Q 241.01 235.69 240.14 235.32
  A 0.99 0.89 35.9 0 1 239.80 233.74
  Q 239.93 233.64 240.36 233.50
  A 0.96 0.94 -6.9 0 0 241.00 232.70
  L 241.30 229.86
  A 0.49 0.49 0.0 0 0 240.82 229.32
  Q 240.49 229.31 239.96 228.75
  A 0.98 0.98 0.0 0 1 240.14 227.25
  L 246.94 222.84
  A 0.76 0.76 0.0 0 1 248.11 223.49
  Q 248.09 224.76 247.40 226.65
  Q 245.48 231.90 242.32 236.22
  A 0.47 0.46 39.7 0 1 241.62 236.28
  Z"
/>
<path fill="#cacecd" d="
  M 382.19 319.02
  L 363.71 306.98
  A 2.25 2.24 -77.5 0 1 362.71 305.40
  Q 362.21 301.89 356.23 263.00
  Q 356.09 262.14 356.88 261.97
  A 0.50 0.48 -88.9 0 0 357.26 261.59
  L 357.62 259.83
  A 0.85 0.85 0.0 0 0 357.44 259.10
  Q 356.96 258.52 357.08 257.54
  A 0.45 0.45 0.0 0 0 356.62 257.04
  L 355.53 257.07
  A 0.36 0.35 83.3 0 1 355.17 256.78
  Q 354.97 255.86 357.69 255.38
  A 2.01 1.98 52.7 0 1 358.90 255.55
  Q 358.91 255.56 359.57 256.74
  A 1.41 1.30 29.6 0 0 362.16 256.14
  Q 361.84 253.27 358.85 250.72
  A 0.97 0.97 0.0 0 0 357.26 251.36
  L 356.98 254.09
  A 1.03 1.03 0.0 0 1 354.94 254.14
  L 352.34 236.65
  L 351.87 232.57
  A 1.52 1.52 0.0 0 1 354.31 231.20
  L 359.52 235.21
  A 0.29 0.29 0.0 0 0 359.98 234.94
  L 358.82 226.73
  A 1.40 1.40 0.0 0 1 361.06 225.43
  L 389.20 247.13
  A 13.95 13.77 -0.4 0 1 391.48 249.35
  L 411.65 274.26
  A 5.94 5.90 19.5 0 1 412.82 276.69
  Q 418.52 302.47 424.40 327.49
  C 425.04 330.21 427.55 331.83 426.43 334.83
  A 2.17 2.16 49.2 0 0 426.34 336.10
  L 428.72 346.50
  A 1.52 1.52 0.0 0 1 426.40 348.11
  L 382.19 319.02
  Z
  M 385.39 265.93
  L 385.70 262.88
  A 0.54 0.54 0.0 0 1 386.31 262.40
  C 389.22 262.76 390.10 264.09 392.70 266.78
  A 0.15 0.14 -46.3 0 1 392.70 266.99
  L 392.70 267.00
  A 0.03 0.03 0.0 0 1 392.66 267.00
  L 387.11 263.13
  A 0.53 0.52 13.0 0 0 386.29 263.64
  C 388.18 275.34 398.78 283.59 407.26 290.50
  A 0.25 0.25 0.0 0 0 407.64 290.20
  L 402.33 279.43
  A 1.08 0.85 19.9 0 0 402.20 279.22
  Q 393.44 267.37 391.31 264.65
  Q 389.52 262.36 386.15 262.13
  A 0.51 0.51 0.0 0 0 385.62 262.76
  Q 385.69 263.09 385.69 263.10
  A 0.33 0.32 50.2 0 1 385.08 263.04
  Q 384.97 262.57 385.28 261.84
  A 0.85 0.84 23.1 0 1 386.39 261.40
  Q 386.82 261.59 388.01 261.60
  A 0.13 0.13 0.0 0 0 388.07 261.35
  L 385.38 260.08
  A 0.85 0.85 0.0 0 0 384.18 260.69
  Q 383.31 265.14 384.35 270.09
  A 0.09 0.03 73.2 0 0 384.37 270.12
  A 0.01 0.01 0.0 0 0 384.39 270.12
  L 384.04 261.11
  A 0.02 0.01 -0.0 0 1 384.06 261.10
  L 384.38 260.97
  A 0.09 0.09 0.0 0 1 384.51 261.04
  L 385.21 265.93
  A 0.09 0.09 0.0 0 0 385.39 265.93
  Z
  M 397.20 267.20
  L 400.73 271.47
  A 0.13 0.13 0.0 0 0 400.91 271.49
  L 400.97 271.44
  A 2.76 1.47 50.4 0 0 400.35 268.37
  L 400.17 268.16
  A 2.76 1.47 50.4 0 0 397.28 266.97
  L 397.21 267.02
  A 0.13 0.13 0.0 0 0 397.20 267.20
  Z
  M 372.80 288.81
  Q 372.39 286.50 372.10 286.10
  Q 368.35 280.81 363.66 273.39
  Q 362.79 272.01 360.36 270.46
  A 0.29 0.29 0.0 0 0 359.91 270.73
  C 360.37 276.37 362.09 278.09 365.83 281.93
  C 367.98 284.15 369.46 286.95 372.42 289.05
  A 0.24 0.24 0.0 0 0 372.80 288.81
  Z"
/>
<path fill="#cacecd" d="
  M 333.00 255.90
  L 330.28 233.09
  A 2.51 2.50 -19.2 0 1 331.46 230.66
  L 340.25 225.25
  A 0.66 0.66 0.0 0 1 341.25 225.84
  Q 341.00 232.03 342.41 239.55
  Q 343.23 243.87 343.40 246.26
  A 7.62 7.49 -54.8 0 0 343.61 247.54
  Q 344.50 250.85 344.68 254.84
  A 0.51 0.51 0.0 0 1 343.92 255.30
  L 337.51 251.60
  A 0.17 0.16 -68.8 0 0 337.27 251.71
  Q 337.16 252.25 334.68 253.41
  A 0.94 0.94 0.0 0 0 334.15 254.24
  L 334.10 255.87
  A 0.07 0.05 -20.3 0 1 334.07 255.92
  L 333.71 256.20
  A 0.44 0.44 0.0 0 1 333.00 255.90
  Z"
/>
<path fill="#2c16c0" d="
  M 138.66 229.17
  Q 140.52 229.80 142.83 232.49
  L 139.83 238.67
  Q 136.24 237.52 132.38 236.52
  Q 129.68 235.82 129.32 238.50
  Q 128.55 244.13 127.52 249.24
  A 2.11 2.10 20.3 0 0 128.56 251.49
  L 133.86 254.47
  L 86.81 288.87
  A 0.21 0.21 0.0 0 1 86.51 288.60
  L 91.32 280.27
  A 3.09 2.92 88.4 0 1 92.18 279.31
  C 93.71 278.20 95.21 277.40 95.73 275.82
  A 0.19 0.19 0.0 0 0 95.44 275.61
  L 93.64 276.92
  A 0.24 0.23 -6.4 0 1 93.28 276.64
  Q 94.52 273.87 96.01 272.97
  C 101.17 269.83 102.24 267.81 105.35 262.36
  A 0.24 0.24 0.0 0 0 105.00 262.05
  L 95.78 268.76
  A 1.38 1.38 0.0 0 0 95.38 269.21
  L 83.25 290.66
  A 7.41 7.37 -3.5 0 1 81.19 292.98
  L 70.00 301.22
  L 69.89 300.28
  L 88.65 267.92
  A 6.13 6.09 86.5 0 1 90.26 266.09
  L 138.66 229.17
  Z"
/>
<path fill="#63634c" d="
  M 247.55 229.44
  Q 246.24 235.17 244.21 240.56
  Q 244.02 241.08 242.95 241.39
  L 242.25 238.58
  A 1.09 1.08 -36.1 0 1 242.38 237.77
  L 247.55 229.44
  Z"
/>
<path fill="#63634c" d="
  M 139.83 238.67
  Q 140.20 239.35 142.62 239.78
  A 0.60 0.59 -59.1 0 1 142.88 240.83
  C 139.53 243.53 139.33 248.53 139.09 253.06
  A 1.00 1.00 0.0 0 0 139.68 254.03
  Q 140.37 254.35 141.15 254.31
  A 0.38 0.38 0.0 0 1 141.45 254.94
  Q 139.47 257.14 136.96 256.40
  Q 137.07 255.60 135.75 255.57
  Q 134.87 254.28 133.86 254.47
  L 128.56 251.49
  A 2.11 2.10 20.3 0 1 127.52 249.24
  Q 128.55 244.13 129.32 238.50
  Q 129.68 235.82 132.38 236.52
  Q 136.24 237.52 139.83 238.67
  Z
  M 130.12 241.07
  Q 130.12 244.56 129.05 248.96
  Q 128.87 249.72 129.10 249.99
  Q 129.44 250.41 129.98 250.47
  A 0.54 0.53 3.3 0 0 130.58 249.94
  Q 130.62 246.67 130.88 245.87
  Q 132.21 241.65 132.50 239.30
  Q 132.64 238.21 131.79 237.43
  A 0.44 0.44 0.0 0 0 131.06 237.65
  C 130.90 238.29 130.56 240.36 130.49 240.40
  A 0.80 0.62 81.1 0 0 130.12 241.07
  Z"
/>
<path fill="#888c8b" d="
  M 130.49 240.40
  C 130.56 240.36 130.90 238.29 131.06 237.65
  A 0.44 0.44 0.0 0 1 131.79 237.43
  Q 132.64 238.21 132.50 239.30
  Q 132.21 241.65 130.88 245.87
  Q 130.62 246.67 130.58 249.94
  A 0.54 0.53 3.3 0 1 129.98 250.47
  Q 129.44 250.41 129.10 249.99
  Q 128.87 249.72 129.05 248.96
  Q 130.12 244.56 130.12 241.07
  A 0.80 0.62 81.1 0 1 130.49 240.40
  Z"
/>
<path fill="#63634c" d="
  M 165.61 242.53
  Q 164.99 244.26 163.39 245.26
  A 0.61 0.61 0.0 0 1 162.51 245.00
  Q 162.04 244.00 161.11 243.69
  A 1.05 1.04 -67.1 0 1 160.52 242.23
  L 161.10 241.06
  A 0.98 0.97 -57.9 0 1 162.57 240.72
  Q 163.87 241.74 165.22 241.89
  A 0.48 0.48 0.0 0 1 165.61 242.53
  Z"
/>
<path fill="#63634c" d="
  M 241.83 249.48
  Q 238.15 248.06 241.00 245.78
  L 242.42 245.32
  A 0.33 0.32 89.1 0 1 242.83 245.72
  L 241.83 249.48
  Z"
/>
<path fill="#63634c" d="
  M 326.76 259.24
  Q 326.92 259.32 327.29 259.28
  Q 327.52 259.26 327.70 259.03
  Q 328.43 258.09 329.44 257.81
  A 0.66 0.66 0.0 0 0 329.93 257.07
  Q 329.85 256.51 329.86 256.50
  A 0.32 0.32 0.0 0 1 330.44 256.63
  Q 330.79 258.72 330.16 259.37
  Q 328.34 261.30 325.58 260.94
  A 0.07 0.07 0.0 0 0 325.52 261.06
  Q 326.82 262.22 326.71 263.13
  Q 326.61 263.94 326.61 263.95
  Q 327.93 276.37 328.30 278.98
  A 0.94 0.94 0.0 0 1 327.84 279.93
  L 321.87 283.38
  A 1.05 1.04 46.9 0 1 320.77 283.34
  L 305.65 273.16
  A 1.26 1.26 0.0 0 1 305.74 271.02
  Q 309.00 269.20 310.59 268.04
  Q 310.97 267.77 310.99 267.45
  A 0.12 0.12 0.0 0 1 311.22 267.40
  Q 311.36 267.64 311.57 267.68
  A 0.71 0.65 -86.3 0 0 312.34 266.94
  Q 312.06 261.30 311.08 253.52
  A 0.87 0.87 0.0 0 1 312.43 252.70
  C 316.99 255.84 322.08 259.60 322.74 259.38
  Q 323.23 259.22 323.35 259.43
  A 1.12 0.43 62.1 0 0 324.07 260.06
  Q 325.96 259.97 326.25 259.39
  A 0.37 0.37 0.0 0 1 326.76 259.24
  Z"
/>
<path fill="#cacecd" d="
  M 133.86 254.47
  Q 134.87 254.28 135.75 255.57
  L 68.31 304.19
  Q 67.78 303.07 69.30 301.51
  Q 69.64 301.30 70.00 301.22
  L 81.19 292.98
  A 7.41 7.37 -3.5 0 0 83.25 290.66
  L 95.38 269.21
  A 1.38 1.38 0.0 0 1 95.78 268.76
  L 105.00 262.05
  A 0.24 0.24 0.0 0 1 105.35 262.36
  C 102.24 267.81 101.17 269.83 96.01 272.97
  Q 94.52 273.87 93.28 276.64
  A 0.24 0.23 -6.4 0 0 93.64 276.92
  L 95.44 275.61
  A 0.19 0.19 0.0 0 1 95.73 275.82
  C 95.21 277.40 93.71 278.20 92.18 279.31
  A 3.09 2.92 88.4 0 0 91.32 280.27
  L 86.51 288.60
  A 0.21 0.21 0.0 0 0 86.81 288.87
  L 133.86 254.47
  Z
  M 99.1968 268.6525
  A 1.98 0.60 -48.7 0 0 97.4392 269.7440
  A 1.98 0.60 -48.7 0 0 96.5832 271.6275
  A 1.98 0.60 -48.7 0 0 98.3408 270.5360
  A 1.98 0.60 -48.7 0 0 99.1968 268.6525
  Z"
/>
<path fill="#888c8b" d="
  M 173.30 260.91
  A 0.28 0.28 0.0 0 1 173.08 261.36
  L 171.84 261.34
  A 0.50 0.49 72.4 0 1 171.43 261.12
  L 167.42 255.20
  A 0.21 0.21 0.0 0 1 167.66 254.88
  L 168.33 255.10
  A 1.19 1.14 77.6 0 1 168.90 255.48
  L 173.30 260.91
  Z"
/>
<path fill="#2c16c0" d="
  M 136.96 256.40
  L 134.94 269.29
  Q 134.30 269.37 134.14 269.22
  L 124.88 275.70
  A 3.16 3.16 0.0 0 0 123.86 276.88
  L 116.71 291.14
  A 0.19 0.19 0.0 0 0 116.98 291.38
  L 128.58 283.52
  A 0.08 0.08 0.0 0 1 128.69 283.62
  L 119.31 303.51
  A 4.54 4.50 -4.6 0 1 117.74 305.34
  L 43.20 355.81
  A 0.26 0.26 0.0 0 1 42.84 355.45
  L 44.64 352.77
  A 0.30 0.30 0.0 0 0 44.38 352.30
  Q 42.97 352.39 41.97 353.78
  Q 41.50 354.44 39.61 357.71
  A 4.10 4.08 87.9 0 1 38.36 359.06
  L 29.53 365.03
  A 0.35 0.35 0.0 0 1 28.99 364.79
  Q 28.94 364.45 28.93 364.43
  A 0.55 0.55 0.0 0 0 28.20 364.35
  Q 26.86 365.34 25.71 367.17
  A 4.03 3.87 -2.5 0 1 24.60 368.33
  L 16.42 373.86
  A 0.49 0.49 0.0 0 1 15.78 373.79
  Q 15.25 373.21 14.08 373.49
  L 44.60 322.69
  A 4.42 4.39 87.4 0 1 45.75 321.42
  Q 56.72 313.34 67.91 305.16
  Q 68.34 304.85 68.31 304.19
  L 135.75 255.57
  Q 137.07 255.60 136.96 256.40
  Z
  M 62.76 320.83
  A 0.31 0.31 0.0 0 0 62.66 320.93
  L 56.77 331.13
  A 0.31 0.31 0.0 0 0 57.22 331.55
  L 66.55 325.23
  A 0.31 0.31 0.0 0 0 66.65 325.13
  L 72.53 314.93
  A 0.31 0.31 0.0 0 0 72.09 314.51
  L 62.76 320.83
  Z"
/>
<path fill="#cacecd" d="
  M 218.08 263.36
  A 0.95 0.95 0.0 0 1 218.21 261.60
  Q 221.36 260.61 224.43 257.49
  A 0.62 0.60 34.5 0 1 225.13 257.37
  L 231.08 260.34
  A 0.85 0.85 0.0 0 1 231.20 261.79
  L 226.23 265.41
  A 3.36 3.35 40.1 0 1 222.77 265.70
  L 218.08 263.36
  Z"
/>
<path fill="#cacecd" d="
  M 188.10 278.13
  L 188.40 276.70
  A 1.32 1.31 79.3 0 1 188.97 275.86
  L 216.67 257.81
  A 1.01 1.00 61.9 0 1 218.14 258.26
  L 218.18 258.35
  A 1.04 1.04 0.0 0 1 217.78 259.61
  L 188.61 278.48
  A 0.34 0.34 0.0 0 1 188.10 278.13
  Z"
/>
<path fill="#888c8b" d="
  M 385.21 265.93
  L 384.51 261.04
  A 0.09 0.09 0.0 0 0 384.38 260.97
  L 384.06 261.10
  A 0.02 0.01 -0.0 0 0 384.04 261.11
  L 384.39 270.12
  A 0.01 0.01 0.0 0 1 384.37 270.12
  A 0.09 0.03 73.2 0 1 384.35 270.09
  Q 383.31 265.14 384.18 260.69
  A 0.85 0.85 0.0 0 1 385.38 260.08
  L 388.07 261.35
  A 0.13 0.13 0.0 0 1 388.01 261.60
  Q 386.82 261.59 386.39 261.40
  A 0.85 0.84 23.1 0 0 385.28 261.84
  Q 384.97 262.57 385.08 263.04
  A 0.33 0.32 50.2 0 0 385.69 263.10
  Q 385.69 263.09 385.62 262.76
  A 0.51 0.51 0.0 0 1 386.15 262.13
  Q 389.52 262.36 391.31 264.65
  Q 393.44 267.37 402.20 279.22
  A 1.08 0.85 19.9 0 1 402.33 279.43
  L 407.64 290.20
  A 0.25 0.25 0.0 0 1 407.26 290.50
  C 398.78 283.59 388.18 275.34 386.29 263.64
  A 0.53 0.52 13.0 0 1 387.11 263.13
  L 392.66 267.00
  A 0.03 0.03 0.0 0 0 392.70 267.00
  L 392.70 266.99
  A 0.15 0.14 -46.3 0 0 392.70 266.78
  C 390.10 264.09 389.22 262.76 386.31 262.40
  A 0.54 0.54 0.0 0 0 385.70 262.88
  L 385.39 265.93
  A 0.09 0.09 0.0 0 1 385.21 265.93
  Z"
/>
<path fill="#888c8b" d="
  M 397.20 267.20
  A 0.13 0.13 0.0 0 1 397.21 267.02
  L 397.28 266.97
  A 2.76 1.47 50.4 0 1 400.17 268.16
  L 400.35 268.37
  A 2.76 1.47 50.4 0 1 400.97 271.44
  L 400.91 271.49
  A 0.13 0.13 0.0 0 1 400.73 271.47
  L 397.20 267.20
  Z"
/>
<ellipse fill="#888c8b" cx="0.00" cy="0.00" transform="translate(97.89,270.14) rotate(-48.7)" rx="1.98" ry="0.60"/>
<path fill="#888c8b" d="
  M 372.42 289.05
  C 369.46 286.95 367.98 284.15 365.83 281.93
  C 362.09 278.09 360.37 276.37 359.91 270.73
  A 0.29 0.29 0.0 0 1 360.36 270.46
  Q 362.79 272.01 363.66 273.39
  Q 368.35 280.81 372.10 286.10
  Q 372.39 286.50 372.80 288.81
  A 0.24 0.24 0.0 0 1 372.42 289.05
  Z"
/>
<path fill="#cacecd" d="
  M 134.14 269.22
  L 129.83 274.57
  A 2.23 1.97 -14.9 0 0 129.59 274.93
  L 126.79 280.45
  A 0.73 0.73 0.0 0 0 127.84 281.40
  L 132.74 278.24
  A 0.26 0.26 0.0 0 1 133.11 278.57
  Q 127.57 290.38 122.14 301.60
  Q 120.56 304.85 121.19 306.82
  L 116.48 309.73
  A 1.13 1.10 -55.4 0 1 115.71 309.88
  Q 114.74 309.72 113.66 310.39
  A 0.48 0.47 60.6 0 0 113.49 311.02
  Q 113.84 311.64 113.12 312.12
  Q 77.22 336.17 50.05 354.22
  A 1.15 1.13 -2.9 0 0 49.70 354.60
  L 42.31 367.40
  A 0.15 0.15 0.0 0 0 42.52 367.60
  L 44.82 366.11
  A 0.38 0.38 0.0 0 1 45.35 366.62
  Q 44.22 368.55 41.85 369.66
  A 3.45 3.41 2.2 0 0 40.32 371.06
  L 37.89 375.28
  A 0.27 0.26 89.0 0 0 38.26 375.64
  L 44.40 371.67
  A 0.28 0.28 0.0 0 1 44.80 372.04
  L 39.16 381.80
  A 1.84 1.70 -3.7 0 1 38.58 382.41
  L 28.81 388.73
  A 0.40 0.40 0.0 0 1 28.24 388.19
  L 45.48 358.34
  A 0.43 0.42 89.9 0 0 44.90 357.76
  Q 43.98 358.29 42.84 359.41
  Q 42.45 359.79 42.28 359.69
  Q 41.81 359.41 41.77 359.36
  A 0.81 0.80 -35.1 0 0 40.61 359.16
  L 36.97 361.95
  A 0.15 0.15 0.0 0 0 37.11 362.21
  L 37.96 361.93
  A 0.24 0.23 19.6 0 1 38.16 362.35
  L 31.83 366.44
  A 1.18 1.12 -2.3 0 0 31.49 366.79
  Q 29.48 370.08 28.28 372.36
  Q 28.11 372.67 27.87 372.80
  Q 27.61 372.93 27.29 372.92
  Q 26.87 373.11 26.74 373.54
  L 14.67 381.22
  A 0.88 0.88 0.0 0 1 13.66 381.17
  L 11.23 379.30
  A 0.62 0.61 34.7 0 1 11.08 378.49
  L 14.08 373.49
  Q 15.25 373.21 15.78 373.79
  A 0.49 0.49 0.0 0 0 16.42 373.86
  L 24.60 368.33
  A 4.03 3.87 -2.5 0 0 25.71 367.17
  Q 26.86 365.34 28.20 364.35
  A 0.55 0.55 0.0 0 1 28.93 364.43
  Q 28.94 364.45 28.99 364.79
  A 0.35 0.35 0.0 0 0 29.53 365.03
  L 38.36 359.06
  A 4.10 4.08 87.9 0 0 39.61 357.71
  Q 41.50 354.44 41.97 353.78
  Q 42.97 352.39 44.38 352.30
  A 0.30 0.30 0.0 0 1 44.64 352.77
  L 42.84 355.45
  A 0.26 0.26 0.0 0 0 43.20 355.81
  L 117.74 305.34
  A 4.54 4.50 -4.6 0 0 119.31 303.51
  L 128.69 283.62
  A 0.08 0.08 0.0 0 0 128.58 283.52
  L 116.98 291.38
  A 0.19 0.19 0.0 0 1 116.71 291.14
  L 123.86 276.88
  A 3.16 3.16 0.0 0 1 124.88 275.70
  L 134.14 269.22
  Z
  M 23.32 371.15
  Q 24.18 370.89 25.94 372.30
  A 0.51 0.51 0.0 0 0 26.46 372.37
  Q 26.74 372.24 26.91 371.80
  A 0.45 0.45 0.0 0 0 26.58 371.19
  Q 25.71 371.00 25.32 370.43
  A 0.85 0.85 0.0 0 0 24.08 370.25
  L 23.21 370.95
  A 0.12 0.12 0.0 0 0 23.32 371.15
  Z
  M 34.91 382.86
  Q 35.18 382.63 35.36 382.65
  A 0.88 0.88 0.0 0 0 36.19 382.27
  L 37.92 379.73
  A 0.54 0.54 0.0 0 0 37.19 378.96
  Q 34.86 380.40 34.52 382.64
  A 0.24 0.24 0.0 0 0 34.91 382.86
  Z"
/>
<path fill="#888c8b" d="
  M 134.94 269.29
  L 133.84 276.44
  A 0.83 0.81 -67.4 0 0 134.15 277.21
  L 137.74 279.89
  L 126.80 303.03
  A 0.89 0.89 0.0 0 0 127.06 304.12
  L 127.29 304.29
  A 0.95 0.94 -58.9 0 1 127.57 305.44
  L 101.44 361.21
  Q 101.41 360.73 101.27 360.40
  A 0.60 0.59 -17.7 0 0 100.58 360.05
  Q 100.23 360.13 100.19 360.11
  A 0.54 0.54 0.0 0 1 99.95 359.40
  L 126.06 304.01
  A 0.41 0.40 -4.0 0 0 125.47 303.50
  Q 124.34 304.25 123.53 305.92
  Q 122.81 305.44 121.19 306.82
  Q 120.56 304.85 122.14 301.60
  Q 127.57 290.38 133.11 278.57
  A 0.26 0.26 0.0 0 0 132.74 278.24
  L 127.84 281.40
  A 0.73 0.73 0.0 0 1 126.79 280.45
  L 129.59 274.93
  A 2.23 1.97 -14.9 0 1 129.83 274.57
  L 134.14 269.22
  Q 134.30 269.37 134.94 269.29
  Z"
/>
<path fill="#63634c" d="
  M 229.25 271.58
  L 227.89 284.83
  A 0.85 0.84 -72.2 0 1 226.63 285.48
  L 221.16 282.32
  A 1.04 1.03 -72.5 0 1 220.65 281.33
  L 221.20 276.03
  A 2.26 2.22 76.7 0 1 222.20 274.38
  L 227.86 270.73
  A 0.90 0.90 0.0 0 1 229.25 271.58
  Z"
/>
<path fill="#cacecd" d="
  M 264.87 276.00
  Q 265.99 275.23 268.31 275.36
  A 0.72 0.71 29.4 0 1 268.68 276.66
  Q 267.08 277.76 266.48 279.02
  A 0.61 0.61 0.0 0 1 265.65 279.30
  Q 264.68 278.80 264.47 276.87
  A 0.94 0.92 70.2 0 1 264.87 276.00
  Z"
/>
<path fill="#cacecd" d="
  M 334.62 291.50
  L 339.14 288.89
  A 0.56 0.55 -16.9 0 0 339.41 288.40
  L 339.22 282.12
  A 1.52 1.51 77.3 0 1 340.12 280.69
  L 341.29 280.16
  A 0.93 0.92 77.2 0 1 342.59 280.98
  Q 342.61 281.58 343.93 294.14
  Q 344.18 296.56 342.04 296.77
  A 1.28 1.27 59.2 0 1 341.18 296.55
  L 334.60 292.12
  A 0.36 0.36 0.0 0 1 334.62 291.50
  Z"
/>
<path fill="#cacecd" d="
  M 351.16 302.55
  A 0.36 0.36 0.0 0 1 350.60 302.90
  L 345.60 299.54
  A 0.46 0.45 -56.3 0 1 345.48 298.91
  L 346.84 296.90
  A 1.44 1.43 57.9 0 0 347.07 295.89
  L 345.42 284.28
  A 0.79 0.79 0.0 0 1 345.88 283.45
  L 347.54 282.70
  A 0.62 0.62 0.0 0 1 348.41 283.18
  L 351.16 302.55
  Z"
/>
<path fill="#cacecd" d="
  M 159.47 298.07
  A 0.40 0.40 0.0 0 1 158.72 298.30
  Q 157.69 296.50 159.13 295.40
  Q 161.24 293.80 171.61 287.14
  A 0.53 0.52 -15.8 0 1 172.42 287.59
  L 172.42 287.88
  A 1.85 1.84 -16.4 0 1 171.59 289.40
  Q 161.60 295.96 160.44 296.68
  Q 159.41 297.31 159.47 298.07
  Z"
/>
<path fill="#63634c" d="
  M 151.46 291.90
  Q 150.82 291.65 150.81 291.03
  Q 151.26 291.42 151.46 291.90
  Z"
/>
<path fill="#63634c" d="
  M 233.56 297.55
  Q 233.00 297.14 233.03 296.75
  Q 233.25 294.14 233.18 291.81
  A 0.55 0.55 0.0 0 1 234.00 291.32
  L 252.09 301.76
  A 0.45 0.45 0.0 0 1 252.08 302.54
  L 247.60 304.97
  A 0.42 0.41 62.9 0 1 247.02 304.78
  Q 246.81 304.36 245.35 304.76
  A 1.92 1.90 51.7 0 1 243.88 304.58
  L 233.98 298.92
  Q 233.91 298.87 233.84 298.82
  Q 233.52 298.60 233.72 298.05
  A 0.43 0.43 0.0 0 0 233.56 297.55
  Z"
/>
<rect fill="#cacecd" x="-4.36" y="-1.11" transform="translate(224.11,300.50) rotate(-28.9)" width="8.72" height="2.22" rx="0.98"/>
<path fill="#cacecd" d="
  M 157.65 303.22
  Q 156.99 302.09 155.17 301.57
  Q 154.39 301.36 153.81 299.32
  C 157.08 301.98 158.54 300.33 160.99 298.67
  A 1.12 1.11 40.7 0 1 162.10 298.59
  L 168.00 301.37
  A 0.36 0.35 -55.3 0 1 168.10 301.94
  Q 163.47 306.64 157.65 303.22
  Z"
/>
<path fill="#63634c" d="
  M 184.13 303.42
  L 184.36 299.44
  A 0.02 0.01 13.3 0 1 184.39 299.43
  L 197.17 306.19
  A 1.65 1.63 16.1 0 1 198.04 307.74
  L 197.73 312.16
  A 1.20 1.19 -63.8 0 0 198.03 313.05
  Q 198.04 313.05 198.18 313.17
  A 0.42 0.41 -38.7 0 1 198.10 313.87
  Q 197.21 314.28 196.68 314.56
  Q 196.37 314.73 195.08 314.08
  Q 190.65 311.84 183.69 307.99
  A 0.25 0.25 0.0 0 1 183.56 307.74
  L 183.83 305.10
  A 0.27 0.26 11.6 0 1 184.18 304.88
  Q 185.90 305.44 187.33 307.06
  A 0.36 0.35 -48.6 0 0 187.89 307.02
  L 188.06 306.77
  A 0.40 0.39 -55.9 0 0 187.96 306.22
  L 184.30 303.76
  A 0.39 0.38 -72.2 0 1 184.13 303.42
  Z"
/>
<path fill="#888c8b" d="
  M 69.89 300.28
  L 70.00 301.22
  Q 69.64 301.30 69.30 301.51
  Q 69.43 300.91 69.89 300.28
  Z"
/>
<path fill="#cacecd" d="
  M 101.44 361.21
  L 2.58 421.31
  A 1.27 1.27 0.0 0 1 0.77 419.67
  Q 1.18 418.82 1.74 418.29
  Q 33.21 399.05 64.12 380.14
  C 66.40 378.74 69.76 377.02 70.63 375.35
  Q 73.62 369.62 90.11 337.20
  Q 90.93 335.60 94.21 333.91
  A 0.24 0.24 0.0 0 1 94.53 334.23
  L 91.18 340.98
  A 0.12 0.12 0.0 0 0 91.36 341.14
  L 94.04 339.19
  A 0.55 0.55 0.0 0 1 94.84 339.91
  Q 92.89 343.35 90.38 348.73
  Q 89.68 350.24 86.13 352.32
  A 4.21 4.19 88.2 0 0 84.49 354.07
  L 75.15 372.87
  A 0.21 0.21 0.0 0 0 75.44 373.14
  L 97.00 359.89
  A 4.61 4.61 0.0 0 0 98.72 357.97
  L 123.53 305.92
  Q 124.34 304.25 125.47 303.50
  A 0.41 0.40 -4.0 0 1 126.06 304.01
  L 99.95 359.40
  A 0.54 0.54 0.0 0 0 100.19 360.11
  Q 100.23 360.13 100.58 360.05
  A 0.60 0.59 -17.7 0 1 101.27 360.40
  Q 101.41 360.73 101.44 361.21
  Z
  M 89.9123 345.5251
  A 2.44 1.18 -51.7 0 0 87.4740 346.7087
  A 2.44 1.18 -51.7 0 0 86.8877 349.3549
  A 2.44 1.18 -51.7 0 0 89.3260 348.1713
  A 2.44 1.18 -51.7 0 0 89.9123 345.5251
  Z"
/>
<path fill="#2c16c0" d="
  M 123.53 305.92
  L 98.72 357.97
  A 4.61 4.61 0.0 0 1 97.00 359.89
  L 75.44 373.14
  A 0.21 0.21 0.0 0 1 75.15 372.87
  L 84.49 354.07
  A 4.21 4.19 88.2 0 1 86.13 352.32
  Q 89.68 350.24 90.38 348.73
  Q 92.89 343.35 94.84 339.91
  A 0.55 0.55 0.0 0 0 94.04 339.19
  L 91.36 341.14
  A 0.12 0.12 0.0 0 1 91.18 340.98
  L 94.53 334.23
  A 0.24 0.24 0.0 0 0 94.21 333.91
  Q 90.93 335.60 90.11 337.20
  Q 73.62 369.62 70.63 375.35
  C 69.76 377.02 66.40 378.74 64.12 380.14
  Q 33.21 399.05 1.74 418.29
  L 27.43 373.96
  Q 27.38 373.72 27.54 373.36
  A 0.22 0.22 0.0 0 0 27.52 373.13
  Q 27.44 373.01 27.29 372.92
  Q 27.61 372.93 27.87 372.80
  Q 28.11 372.67 28.28 372.36
  Q 29.48 370.08 31.49 366.79
  A 1.18 1.12 -2.3 0 1 31.83 366.44
  L 38.16 362.35
  A 0.24 0.23 19.6 0 0 37.96 361.93
  L 37.11 362.21
  A 0.15 0.15 0.0 0 1 36.97 361.95
  L 40.61 359.16
  A 0.81 0.80 -35.1 0 1 41.77 359.36
  Q 41.81 359.41 42.28 359.69
  Q 42.45 359.79 42.84 359.41
  Q 43.98 358.29 44.90 357.76
  A 0.43 0.42 89.9 0 1 45.48 358.34
  L 28.24 388.19
  A 0.40 0.40 0.0 0 0 28.81 388.73
  L 38.58 382.41
  A 1.84 1.70 -3.7 0 0 39.16 381.80
  L 44.80 372.04
  A 0.28 0.28 0.0 0 0 44.40 371.67
  L 38.26 375.64
  A 0.27 0.26 89.0 0 1 37.89 375.28
  L 40.32 371.06
  A 3.45 3.41 2.2 0 1 41.85 369.66
  Q 44.22 368.55 45.35 366.62
  A 0.38 0.38 0.0 0 0 44.82 366.11
  L 42.52 367.60
  A 0.15 0.15 0.0 0 1 42.31 367.40
  L 49.70 354.60
  A 1.15 1.13 -2.9 0 1 50.05 354.22
  Q 77.22 336.17 113.12 312.12
  Q 113.84 311.64 113.49 311.02
  A 0.48 0.47 60.6 0 1 113.66 310.39
  Q 114.74 309.72 115.71 309.88
  A 1.13 1.10 -55.4 0 0 116.48 309.73
  L 121.19 306.82
  Q 122.81 305.44 123.53 305.92
  Z"
/>
<path fill="#cacecd" d="
  M 228.52 346.05
  Q 229.02 337.40 229.42 322.18
  Q 229.60 315.48 229.36 309.56
  A 1.32 1.31 69.2 0 1 229.83 308.51
  Q 230.73 307.77 232.70 307.17
  A 0.93 0.93 0.0 0 1 233.91 308.07
  L 233.38 346.71
  A 0.12 0.12 0.0 0 1 233.24 346.83
  L 228.80 346.38
  A 0.31 0.31 0.0 0 1 228.52 346.05
  Z"
/>
<path fill="#63634c" d="
  M 201.25 326.43
  Q 200.84 324.34 201.37 321.24
  Q 201.51 320.38 200.75 319.97
  A 0.89 0.88 -82.6 0 1 200.30 319.38
  Q 199.86 317.32 201.82 315.86
  A 0.69 0.69 0.0 0 1 202.65 315.87
  L 203.84 316.78
  A 0.74 0.73 -74.2 0 0 205.02 316.12
  Q 204.81 314.03 206.31 313.26
  A 0.69 0.69 0.0 0 1 207.28 313.67
  Q 207.32 313.81 207.37 313.92
  A 0.18 0.18 0.0 0 0 207.71 313.85
  L 207.71 313.03
  A 0.69 0.69 0.0 0 1 208.25 312.36
  Q 208.26 312.36 208.46 312.37
  A 0.69 0.68 23.2 0 0 208.97 312.17
  Q 211.05 310.20 212.19 310.56
  A 0.27 0.17 58.3 0 0 212.25 310.59
  L 217.68 313.29
  A 0.79 0.71 52.9 0 0 218.09 313.37
  Q 219.80 313.22 221.06 315.12
  A 0.62 0.59 -1.2 0 0 221.31 315.35
  L 225.93 317.92
  A 0.35 0.34 46.2 0 1 225.92 318.53
  Q 225.45 318.76 225.70 319.65
  Q 225.95 320.52 225.44 320.80
  Q 225.39 320.83 224.99 320.93
  A 0.76 0.75 -5.9 0 0 224.40 321.65
  L 224.29 326.69
  A 0.71 0.71 0.0 0 1 223.52 327.38
  Q 223.51 327.38 223.37 327.33
  A 0.38 0.38 0.0 0 0 222.89 327.75
  Q 222.94 328.04 222.89 328.27
  A 0.92 0.88 78.1 0 1 222.56 328.80
  Q 219.00 331.46 216.90 332.09
  Q 216.12 332.32 215.89 332.83
  Q 215.56 333.57 214.89 333.27
  Q 213.73 332.74 212.95 333.24
  A 0.72 0.72 0.0 0 1 212.25 333.27
  L 203.40 328.70
  A 2.01 1.99 -4.3 0 1 202.73 328.13
  Q 201.84 326.89 201.71 326.44
  A 0.20 0.10 59.7 0 0 201.46 326.27
  Q 201.43 326.43 201.31 326.47
  A 0.05 0.05 0.0 0 1 201.25 326.43
  Z"
/>
<path fill="#cacecd" d="
  M 335.55 342.14
  Q 335.54 342.14 335.27 341.98
  A 1.07 1.05 12.0 0 1 334.74 341.18
  L 333.07 327.18
  A 1.72 1.72 0.0 0 1 335.66 325.51
  Q 338.57 327.26 340.82 325.75
  A 0.54 0.54 0.0 0 1 341.64 326.04
  Q 341.89 326.85 341.73 327.43
  A 0.88 0.86 81.9 0 0 343.02 328.42
  Q 346.44 326.24 346.66 322.54
  A 0.79 0.78 4.5 0 0 345.94 321.71
  Q 345.57 321.68 344.79 322.35
  Q 344.11 322.93 343.73 322.60
  Q 343.32 322.25 343.26 321.73
  A 0.70 0.67 53.9 0 1 343.31 321.35
  Q 343.60 320.63 343.59 320.03
  Q 343.57 319.45 343.08 319.18
  Q 341.67 318.41 340.64 317.88
  A 0.61 0.60 43.6 0 1 340.61 316.82
  L 351.13 310.75
  A 2.03 2.03 0.0 0 1 354.16 312.27
  L 354.76 317.30
  A 1.16 1.14 58.6 0 1 354.58 318.07
  L 338.64 341.74
  A 2.07 2.07 0.0 0 1 335.55 342.14
  Z"
/>
<path fill="#cacecd" d="
  M 62.76 320.83
  L 72.09 314.51
  A 0.31 0.31 0.0 0 1 72.53 314.93
  L 66.65 325.13
  A 0.31 0.31 0.0 0 1 66.55 325.23
  L 57.22 331.55
  A 0.31 0.31 0.0 0 1 56.77 331.13
  L 62.66 320.93
  A 0.31 0.31 0.0 0 1 62.76 320.83
  Z
  M 63.14 325.90
  Q 63.56 325.62 65.59 324.10
  Q 66.56 323.37 66.67 322.22
  A 0.56 0.56 0.0 0 0 65.64 321.85
  L 63.01 325.77
  A 0.09 0.09 0.0 0 0 63.14 325.90
  Z"
/>
<path fill="#63634c" d="
  M 265.39 334.21
  L 263.56 335.44
  A 0.26 0.26 0.0 0 1 263.24 335.43
  Q 261.50 334.02 260.80 332.27
  A 0.51 0.51 0.0 0 1 261.04 331.62
  L 265.01 329.55
  A 1.54 1.52 86.1 0 0 265.75 328.69
  Q 265.88 328.34 265.83 327.71
  A 0.95 0.94 -20.0 0 1 266.23 326.87
  Q 266.86 326.44 267.16 325.79
  A 0.38 0.38 0.0 0 1 267.84 325.77
  L 267.91 325.90
  A 0.47 0.47 0.0 0 0 268.56 326.12
  L 281.84 318.95
  A 0.45 0.44 58.8 0 1 282.43 319.10
  L 282.45 319.12
  A 0.53 0.52 -30.4 0 1 282.25 319.87
  L 268.48 327.26
  A 1.40 1.39 77.5 0 0 267.75 328.42
  Q 267.73 328.81 268.31 328.99
  A 1.38 1.37 -50.0 0 1 268.53 331.51
  L 265.08 333.36
  A 0.57 0.56 85.3 0 0 264.79 333.71
  Q 264.67 334.14 265.34 334.08
  A 0.07 0.07 0.0 0 1 265.39 334.21
  Z"
/>
<path fill="#63634c" d="
  M 182.46 319.50
  A 1.20 1.19 -75.5 0 1 183.45 321.19
  Q 183.44 321.20 183.20 321.21
  A 0.56 0.56 0.0 0 0 182.65 321.75
  Q 182.63 322.68 181.76 322.79
  Q 180.69 322.94 180.45 322.35
  Q 179.94 321.14 180.41 320.03
  A 1.03 1.02 -76.0 0 1 181.43 319.41
  L 182.46 319.50
  Z"
/>
<path fill="#888c8b" d="
  M 63.01 325.77
  L 65.64 321.85
  A 0.56 0.56 0.0 0 1 66.67 322.22
  Q 66.56 323.37 65.59 324.10
  Q 63.56 325.62 63.14 325.90
  A 0.09 0.09 0.0 0 1 63.01 325.77
  Z"
/>
<path fill="#cacecd" d="
  M 241.73 323.97
  L 240.19 324.87
  Q 239.11 323.92 239.81 322.35
  A 1.15 1.14 -50.1 0 1 241.81 322.17
  Q 242.16 322.70 241.73 323.97
  Z"
/>
<path fill="#cacecd" d="
  M 259.80 324.53
  Q 259.97 325.46 259.51 325.76
  Q 258.06 326.69 256.64 327.78
  Q 256.01 326.46 256.43 324.72
  Q 256.67 323.67 258.73 323.64
  Q 259.71 323.63 259.80 324.53
  Z"
/>
<path fill="#63634c" d="
  M 241.73 323.97
  L 244.45 327.14
  A 0.58 0.58 0.0 0 1 244.24 328.05
  L 241.02 329.50
  A 0.33 0.30 2.2 0 0 240.88 329.62
  Q 240.65 329.99 240.76 330.31
  A 0.07 0.06 2.4 0 1 240.67 330.39
  Q 240.48 330.29 240.41 330.18
  Q 240.35 330.07 240.35 330.03
  Q 240.18 327.43 240.19 324.87
  L 241.73 323.97
  Z"
/>
<path fill="#63634c" d="
  M 256.64 327.78
  Q 258.06 326.69 259.51 325.76
  Q 259.97 325.46 259.80 324.53
  L 260.01 325.19
  A 0.45 0.45 0.0 0 0 260.79 325.32
  L 261.00 325.04
  A 0.50 0.49 37.7 0 1 261.70 324.96
  L 263.84 326.60
  A 0.62 0.61 33.4 0 1 264.00 327.37
  Q 263.35 328.58 261.11 329.58
  A 0.38 0.37 72.3 0 0 260.90 330.01
  Q 260.91 330.07 261.11 330.15
  A 0.13 0.13 0.0 0 1 261.16 330.36
  L 260.56 331.05
  A 0.66 0.66 0.0 0 1 259.57 331.06
  L 256.64 327.78
  Z"
/>
<path fill="#cacecd" d="
  M 248.53 331.73
  L 246.04 333.20
  Q 245.09 332.89 245.13 332.07
  Q 245.16 331.36 245.84 330.74
  Q 246.49 330.15 247.11 329.46
  A 0.89 0.89 0.0 0 1 248.62 329.79
  Q 248.84 330.47 248.53 331.73
  Z"
/>
<path fill="#63634c" d="
  M 169.04 330.41
  L 167.29 330.38
  Q 168.43 330.13 169.04 330.41
  Z"
/>
<path fill="#63634c" d="
  M 263.95 336.09
  L 270.43 332.69
  A 1.63 1.62 -88.4 0 0 271.05 332.10
  L 271.67 331.07
  A 0.02 0.02 0.0 0 1 271.70 331.06
  Q 274.52 331.82 274.91 332.80
  A 2.06 2.01 64.7 0 1 274.03 335.36
  Q 269.85 337.66 266.51 339.07
  A 0.14 0.13 56.7 0 1 266.35 339.03
  L 263.90 336.38
  A 0.19 0.19 0.0 0 1 263.95 336.09
  Z"
/>
<path fill="#63634c" d="
  M 246.04 333.20
  L 248.53 331.73
  Q 249.93 332.83 250.90 334.40
  A 1.68 1.66 88.4 0 0 251.51 334.98
  Q 252.39 335.46 252.81 336.92
  A 0.26 0.26 0.0 0 1 252.41 337.21
  Q 252.18 337.05 252.07 336.73
  A 0.54 0.53 1.4 0 0 251.76 336.41
  L 246.16 334.12
  A 0.48 0.48 0.0 0 1 245.89 333.49
  Q 245.94 333.36 246.04 333.20
  Z"
/>
<path fill="#cacecd" d="
  M 281.86 370.02
  L 280.14 368.95
  L 280.31 367.89
  A 1.53 1.53 0.0 0 0 279.88 366.57
  Q 278.22 364.94 277.95 362.50
  A 0.90 0.87 -19.8 0 1 278.36 361.66
  L 280.56 360.23
  A 0.89 0.86 73.8 0 0 280.96 359.47
  L 280.30 337.28
  A 1.72 1.70 -13.0 0 1 281.31 335.68
  L 282.52 335.14
  A 1.21 1.21 0.0 0 1 284.22 336.21
  L 284.89 358.86
  A 0.20 0.19 -88.4 0 0 285.06 359.05
  L 290.03 359.56
  A 0.16 0.16 0.0 0 0 290.21 359.39
  L 289.94 350.12
  A 0.63 0.63 0.0 0 1 290.64 349.47
  L 290.95 349.50
  A 0.94 0.93 -88.3 0 1 291.79 350.40
  Q 291.98 355.00 292.06 358.99
  Q 292.11 361.28 294.00 362.79
  A 1.11 1.11 0.0 0 1 294.19 364.34
  L 290.41 369.24
  A 0.74 0.74 0.0 0 1 289.34 369.34
  L 288.63 368.72
  A 1.30 1.24 68.1 0 0 287.97 368.42
  Q 284.52 367.94 281.86 370.02
  Z
  M 288.09 363.19
  A 1.62 1.62 0.0 0 0 286.47 361.57
  A 1.62 1.62 0.0 0 0 284.85 363.19
  A 1.62 1.62 0.0 0 0 286.47 364.81
  A 1.62 1.62 0.0 0 0 288.09 363.19
  Z
  M 280.7273 362.7657
  A 1.58 1.13 -114.8 0 0 280.3642 364.6740
  A 1.58 1.13 -114.8 0 0 282.0527 365.6343
  A 1.58 1.13 -114.8 0 0 282.4158 363.7260
  A 1.58 1.13 -114.8 0 0 280.7273 362.7657
  Z
  M 291.9182 362.9161
  A 1.40 1.00 -66.5 0 0 290.4429 363.8013
  A 1.40 1.00 -66.5 0 0 290.8018 365.4839
  A 1.40 1.00 -66.5 0 0 292.2771 364.5987
  A 1.40 1.00 -66.5 0 0 291.9182 362.9161
  Z"
/>
<path fill="#63634c" d="
  M 314.72 347.29
  L 310.83 349.54
  A 0.68 0.68 0.0 0 1 309.81 348.97
  L 309.54 340.05
  A 0.68 0.68 0.0 0 1 309.88 339.44
  L 313.77 337.19
  A 0.68 0.68 0.0 0 1 314.79 337.76
  L 315.06 346.68
  A 0.68 0.68 0.0 0 1 314.72 347.29
  Z"
/>
<path fill="#cacecd" d="
  M 307.50 341.91
  A 0.27 0.27 0.0 0 1 307.89 342.14
  L 308.19 352.31
  A 0.94 0.93 7.3 0 0 308.87 353.18
  L 309.30 353.31
  A 0.37 0.37 0.0 0 1 309.35 354.00
  L 300.60 357.93
  A 0.61 0.61 0.0 0 1 299.74 357.39
  L 299.41 346.08
  A 0.24 0.24 0.0 0 1 299.54 345.85
  L 307.50 341.91
  Z"
/>
<path fill="#63634c" d="
  M 328.24 346.15
  Q 328.06 346.31 328.23 346.86
  A 1.84 1.79 87.4 0 1 326.14 349.21
  Q 321.10 348.02 321.74 342.50
  A 0.51 0.51 0.0 0 1 322.51 342.12
  L 328.18 345.54
  A 0.38 0.38 0.0 0 1 328.24 346.15
  Z"
/>
<ellipse fill="#888c8b" cx="0.00" cy="0.00" transform="translate(88.40,347.44) rotate(-51.7)" rx="2.44" ry="1.18"/>
<path fill="#63634c" d="
  M 323.72 354.05
  Q 319.90 356.12 316.56 357.28
  C 315.89 357.52 315.70 358.14 315.31 358.36
  A 0.66 0.65 60.9 0 1 314.42 358.10
  Q 313.67 356.72 311.56 355.99
  A 0.89 0.89 0.0 0 1 310.97 355.06
  L 311.12 353.55
  A 1.22 1.20 -9.5 0 1 311.83 352.57
  L 320.58 348.64
  A 0.77 0.74 -42.3 0 1 321.24 348.66
  L 324.22 350.21
  A 0.21 0.21 0.0 0 1 324.24 350.57
  Q 323.80 350.85 324.17 353.11
  A 0.90 0.88 71.2 0 1 323.72 354.05
  Z"
/>
<path fill="#63634c" d="
  M 225.65 353.09
  Q 225.83 353.09 225.85 353.10
  Q 229.58 354.95 230.40 355.29
  A 0.09 0.08 -3.6 0 1 230.45 355.32
  Q 230.55 355.46 230.55 355.61
  Q 230.55 355.77 230.45 355.91
  A 0.09 0.08 3.3 0 1 230.41 355.94
  Q 229.59 356.28 225.86 358.15
  Q 225.84 358.16 225.66 358.16
  Q 225.48 358.16 225.47 358.15
  Q 221.73 356.30 220.91 355.96
  A 0.09 0.08 -3.6 0 1 220.86 355.93
  Q 220.76 355.80 220.76 355.64
  Q 220.76 355.48 220.86 355.35
  A 0.09 0.08 3.3 0 1 220.91 355.31
  Q 221.73 354.97 225.46 353.10
  Q 225.47 353.09 225.65 353.09
  Z"
/>
<path fill="#63634c" d="
  M 239.71 367.60
  L 235.16 365.45
  A 0.30 0.30 0.0 0 1 235.14 364.92
  L 244.01 359.80
  A 0.30 0.30 0.0 0 1 244.29 359.79
  L 248.84 361.94
  A 0.30 0.30 0.0 0 1 248.86 362.47
  L 239.99 367.59
  A 0.30 0.30 0.0 0 1 239.71 367.60
  Z"
/>
<circle fill="#63634c" cx="286.47" cy="363.19" r="1.62"/>
<ellipse fill="#63634c" cx="0.00" cy="0.00" transform="translate(281.39,364.20) rotate(-114.8)" rx="1.58" ry="1.13"/>
<ellipse fill="#63634c" cx="0.00" cy="0.00" transform="translate(291.36,364.20) rotate(-66.5)" rx="1.40" ry="1.00"/>
<path fill="#63634c" d="
  M 287.84 369.93
  Q 287.86 370.86 285.66 370.81
  A 0.54 0.52 69.0 0 1 285.29 370.64
  Q 285.05 370.37 285.04 369.99
  Q 285.03 369.61 285.26 369.33
  A 0.54 0.52 -71.6 0 1 285.62 369.15
  Q 287.82 369.00 287.84 369.93
  Z"
/>
<path fill="#888c8b" d="
  M 23.21 370.95
  L 24.08 370.25
  A 0.85 0.85 0.0 0 1 25.32 370.43
  Q 25.71 371.00 26.58 371.19
  A 0.45 0.45 0.0 0 1 26.91 371.80
  Q 26.74 372.24 26.46 372.37
  A 0.51 0.51 0.0 0 1 25.94 372.30
  Q 24.18 370.89 23.32 371.15
  A 0.12 0.12 0.0 0 1 23.21 370.95
  Z"
/>
<path fill="#888c8b" d="
  M 27.29 372.92
  Q 27.44 373.01 27.52 373.13
  A 0.22 0.22 0.0 0 1 27.54 373.36
  Q 27.38 373.72 27.43 373.96
  L 26.74 373.54
  Q 26.87 373.11 27.29 372.92
  Z"
/>
<path fill="#888c8b" d="
  M 34.52 382.64
  Q 34.86 380.40 37.19 378.96
  A 0.54 0.54 0.0 0 1 37.92 379.73
  L 36.19 382.27
  A 0.88 0.88 0.0 0 1 35.36 382.65
  Q 35.18 382.63 34.91 382.86
  A 0.24 0.24 0.0 0 1 34.52 382.64
  Z"
/>
</svg>
