<?xml version="1.0" encoding="UTF-8" standalone="no"?>
<!-- Created with Inkscape (http://www.inkscape.org/) -->

<svg
   version="1.1"
   id="svg1"
   width="682.66669"
   height="562.66669"
   viewBox="0 0 682.66669 562.66669"
   xmlns="http://www.w3.org/2000/svg"
   xmlns:svg="http://www.w3.org/2000/svg"
   xmlns:rdf="http://www.w3.org/1999/02/22-rdf-syntax-ns#"
   xmlns:cc="http://creativecommons.org/ns#"
   xmlns:dc="http://purl.org/dc/elements/1.1/">
  <title
     id="title1">ICEsat Icon SVG</title>
  <defs
     id="defs1" />
  <g
     id="g1">
    <path
       style="fill:currentColor"
       d="M 0.70393168,561.39365 C 0.27120249,560.69348 7.698331,546.75602 17.208662,530.42151 c 9.510331,-16.3345 17.071137,-29.91947 16.801792,-30.18882 -0.269346,-0.26934 -3.081884,1.26601 -6.250086,3.4119 -8.510083,5.76406 -8.429043,5.73871 -11.490188,3.5946 -2.78696,-1.95206 -2.473561,-2.57632 20.116044,-40.06855 l 22.947111,-38.08559 15.27232,-11.32616 c 8.399776,-6.22939 15.392759,-12.02352 15.539962,-12.87585 0.147204,-0.85233 6.596392,-12.34425 14.331533,-25.53761 l 14.06388,-23.98792 32.39616,-24.75368 c 24.57669,-18.77888 32.50744,-25.54016 32.85724,-28.01208 0.7169,-5.06613 2.91772,-6.89133 7.46307,-6.18933 2.58347,0.399 4.9512,-0.1423 6.46655,-1.47837 2.21041,-1.94889 2.32852,-1.91239 1.56599,0.48405 -0.78179,2.45701 -0.7391,2.45312 0.82025,-0.0748 0.90474,-1.46666 3.26279,-4.53817 5.24013,-6.82557 1.97734,-2.2874 6.70952,-9.55516 10.51596,-16.15058 4.63444,-8.0301 8.77293,-13.36716 12.52721,-16.15529 3.08353,-2.28999 7.81688,-6.12223 10.51856,-8.51609 l 4.91214,-4.35247 2.84035,-28.66667 c 1.93181,-19.49713 3.41073,-29.10954 4.62355,-30.05122 1.07341,-0.83344 1.50811,-2.82369 1.09208,-5 -0.80069,-4.18853 -0.11857,-4.39924 4.81226,-1.48652 6.57895,3.88627 7.13215,7.28598 5.00299,30.74597 -1.05448,11.61881 -1.73226,21.3227 -1.50617,21.56421 0.22609,0.2415 5.71348,-3.6886 12.1942,-8.73356 12.64924,-9.84689 15.11646,-11.56689 15.11646,-10.53829 0,0.36187 -6.3,5.53661 -14,11.49941 -16.53026,12.80087 -17.4354,15.11046 -7.61202,19.42318 3.45328,1.51607 8.97868,3.61607 12.27868,4.66666 4.98165,1.58596 6.45261,2.86375 8.66667,7.52852 2.84617,5.99653 4.67213,6.92154 7.33334,3.71498 2.75307,-3.31726 4,-2.28515 4,3.31087 0,5.03373 0.3479,5.48717 6.66666,8.68913 3.66667,1.85804 6.66667,4.16126 6.66667,5.11828 0,0.95701 -0.93484,4.48361 -2.07742,7.8369 -2.75171,8.07583 -7.17553,9.22899 -13.63786,3.55499 -2.44441,-2.14622 -5.10116,-3.4963 -5.90389,-3.00018 -0.84263,0.52077 -1.08147,0.29034 -0.56509,-0.54518 0.49193,-0.79597 0.33346,-1.79391 -0.35216,-2.21765 -0.68563,-0.42374 -1.67188,1.18481 -2.19168,3.57454 -2.67888,12.31582 -14.61445,32.02451 -27.96403,46.17577 l -8.45861,8.96656 -0.95772,11.80347 c -0.71831,8.85276 -0.56904,11.56324 0.59711,10.84252 0.85517,-0.52852 1.15235,-1.61219 0.66042,-2.40816 -0.52172,-0.84416 -0.27645,-1.06528 0.58861,-0.53064 0.81567,0.50411 8.31496,-3.63355 16.66509,-9.19481 15.09014,-10.05017 15.95986,-10.96567 23.59723,-24.83915 1.1,-1.99818 9.65,-16.60935 19,-32.46927 l 17,-28.83621 v -23.09372 c 0,-22.82193 -0.0353,-23.10317 -3,-23.89768 -5.83013,-1.56241 -6.94846,-0.76245 -2.72018,1.9458 l 4.27982,2.74125 -0.0107,20.63382 c -0.01,18.67815 -0.25734,20.88047 -2.61316,23.23628 -6.78363,6.78363 -9.57557,-0.17334 -9.35795,-23.31821 0.16079,-17.10148 -1.06396,-22.70575 -5.19836,-23.78692 -1.30914,-0.34235 -2.97675,0.49068 -3.88107,1.93874 -2.10095,3.36415 -3.85009,2.05812 -6.95989,-5.19673 -2.23923,-5.22392 -3.00695,-5.92241 -5.90131,-5.36912 -2.58836,0.4948 -3.0131,0.25757 -1.91274,-1.06829 0.97135,-1.17041 2.60355,-1.36331 5.21009,-0.61577 2.36324,0.67777 4.33184,0.55235 5.21653,-0.33233 0.7815,-0.7815 2.79221,-1.57221 4.46824,-1.75713 4.53686,-0.50056 4.53683,-0.50054 2.3918,-1.85667 -1.5294,-0.96692 -1.62498,-1.62126 -0.41378,-2.83247 1.21121,-1.2112 2.5438,-0.75994 5.76842,1.9534 2.30634,1.94066 4.89254,3.12826 5.74712,2.63912 0.85457,-0.48915 1.12411,-0.41351 0.59898,0.16809 -0.965,1.06875 4.40255,6.03676 6.52225,6.03676 0.63076,0 3.35177,-1.49829 6.04669,-3.32953 3.14548,-2.13741 5.21416,-2.82095 5.77771,-1.9091 0.48283,0.78123 1.74834,1.08639 2.81225,0.67813 1.06392,-0.40826 1.60907,-0.21592 1.21146,0.42743 -0.82767,1.3392 5.71121,6.60485 12.58443,10.134 2.56666,1.31789 5.52458,3.61232 6.57314,5.09872 1.78729,2.53359 2.05645,2.17074 4.30522,-5.8039 1.32629,-4.70331 1.866,-8.83571 1.20718,-9.24289 -0.65536,-0.40503 -0.40331,-1.81442 0.56011,-3.13198 1.30299,-1.78194 1.92213,-1.95054 2.41712,-0.65822 0.36599,0.95554 0.59493,0.33447 0.50875,-1.38015 -0.15132,-3.01049 -0.22674,-3.03099 -2.19744,-0.59727 -1.93776,2.39302 -2.98451,3.04809 -4.87068,3.04809 -0.45645,0 -0.14906,0.82039 0.68311,1.8231 1.14438,1.37889 1.06483,2.19507 -0.3265,3.34977 -1.40102,1.16274 -2.20761,1.08318 -3.38355,-0.33375 -1.20127,-1.44743 0.0174,-7.03496 5.48976,-25.1703 l 7.03378,-23.30987 16.45497,-12.51281 c 48.32693,-36.74912 60.84462,-46.66994 60.51199,-47.95846 -0.2015,-0.78057 0.24661,-1.04039 0.9958,-0.57736 1.79291,1.10808 21.4717,-14.068011 20.4292,-15.754805 -0.44219,-0.715481 -0.1798,-0.91511 0.58309,-0.44362 1.69409,1.047007 33.17308,-22.663046 32.65858,-24.598531 -0.2015,-0.758036 0.15811,-1.054103 0.79914,-0.657927 1.74436,1.078073 12.38276,-7.202555 11.36631,-8.847209 -0.51369,-0.831174 -0.2471,-1.03048 0.64276,-0.48052 1.699,1.050044 23.18259,-14.97803 22.20225,-16.564248 -0.33846,-0.547646 0.42815,-0.913462 1.7036,-0.812926 1.28257,0.101099 2.15524,-0.606376 1.95261,-1.582979 -0.2015,-0.971175 0.17348,-1.432126 0.8333,-1.024335 0.65982,0.407791 5.22016,-2.302144 10.13408,-6.022079 4.91392,-3.719934 9.17719,-6.520727 9.47393,-6.223985 0.29674,0.296743 1.66008,8.460085 3.02965,18.140761 1.36956,9.680677 2.88131,17.992421 3.35943,18.470543 1.46507,1.46507 0.93851,-4.855731 -1.79735,-21.575132 -3.1365,-19.167794 -3.11135,-18.695568 -0.89807,-16.858714 0.99171,0.823043 2.84058,8.655197 4.20898,17.829927 1.34221,8.999167 2.80193,17.079486 3.24382,17.956266 0.5119,1.015694 13.86187,-7.93484 36.79102,-24.666668 29.86799,-21.7952293 36.83782,-26.31735879 40.98758,-26.59334591 2.75,-0.18289348 5,0.26710654 5,1.00000001 0,0.7328935 -1.2101,1.3325337 -2.68912,1.3325337 -2.63475,0 -2.62583,0.128084 0.44083,6.3333335 1.72148,3.4833337 3.92869,8.4333337 4.90491,11.0000007 0.97622,2.566666 2.98757,6.022131 4.46966,7.67881 1.48209,1.656678 2.84882,4.969042 3.03718,7.360808 0.18836,2.391767 1.86852,7.636303 3.73369,11.654525 2.57063,5.538038 4.08543,7.305858 6.26022,7.305858 3.87709,0 6.59868,4.261091 3.84263,6.016281 -1.1,0.700537 -2.53322,1.461197 -3.18493,1.690356 -0.65172,0.229159 -0.26215,2.17786 0.86571,4.330445 l 2.05064,3.913792 -28.51861,19.024564 C 636.86093,99.43895 623.68595,108 623.26843,108 c -0.41752,0 -0.32752,-0.75 0.2,-1.66666 0.55725,-0.96833 0.45055,-1.20111 -0.25464,-0.55556 -0.66758,0.61111 -1.21377,1.76111 -1.21377,2.55556 0,0.79444 -0.83352,1.72228 -1.85226,2.06186 -1.23472,0.41157 -1.49944,0.0465 -0.79399,-1.0949 0.69909,-1.13115 0.52843,-1.38486 -0.50282,-0.74751 -0.8586,0.53065 -1.26214,1.44854 -0.89674,2.03976 0.52207,0.84472 -11.37998,9.33326 -30.07311,21.44814 -0.60029,0.38904 1.33678,15.90316 4.3046,34.47581 2.96782,18.57265 4.89015,34.25829 4.27184,34.85697 -1.49774,1.45021 -115.25975,70.74994 -117.67625,71.68416 -1.30286,0.50368 -1.54818,0.18326 -0.79399,-1.03705 0.7316,-1.18376 0.57676,-1.44786 -0.46969,-0.80112 -0.8586,0.53065 -1.2345,1.49325 -0.83533,2.13912 0.39916,0.64586 -0.4516,1.80441 -1.8906,2.57453 -3.4015,1.82043 -4.51337,1.77399 -3.33101,-0.13911 0.59417,-0.96139 0.36524,-1.1771 -0.60973,-0.57454 -0.8586,0.53065 -1.24508,1.47613 -0.85884,2.10107 0.38623,0.62495 -2.83247,3.28349 -7.15267,5.90787 -8.26672,5.02177 -10.27962,5.76857 -8.71209,3.23227 0.60793,-0.98367 0.36366,-1.17613 -0.67669,-0.53316 -0.89543,0.55341 -1.29334,1.34091 -0.88425,1.75 0.4091,0.4091 0.16152,1.44542 -0.55017,2.30296 -0.89958,1.08393 -0.0833,2.45425 2.67824,4.49592 3.7073,2.74093 5.81098,6.81742 2.44442,4.73677 -1.05047,-0.64922 -1.297,0.0552 -0.78909,2.25465 0.40629,1.75938 1.81416,10.84887 3.12861,20.19887 1.31444,9.35 2.75485,17 3.20091,17 0.44606,0 1.79303,-0.75 2.99327,-1.66667 1.95408,-1.4924 2.00369,-2.69646 0.47453,-11.51561 -1.55572,-8.97226 -1.50811,-9.90114 0.53484,-10.43539 1.51828,-0.39703 2.05471,-1.5692 1.66091,-3.62925 -0.82433,-4.31221 2.73174,-5.19813 7.09347,-1.76719 l 3.60652,2.83689 -0.91178,-6.08019 c -0.66404,-4.42816 -0.44344,-6.25321 0.81191,-6.71696 0.94803,-0.35023 10.87694,6.43356 22.06425,15.07508 19.29844,14.90688 28.18265,23.15386 26.62305,24.71346 -0.38585,0.38585 -1.81051,-0.87264 -3.16591,-2.79665 -2.59321,-3.6811 -42.26333,-35.35086 -44.28113,-35.35086 -0.67273,0 -0.67701,2.65111 -0.01,6.22118 0.63924,3.42164 0.8781,6.50531 0.53082,6.8526 -0.34728,0.34728 -2.71086,-0.95464 -5.2524,-2.89317 -2.54154,-1.93852 -4.83811,-3.07219 -5.1035,-2.51926 -0.26538,0.55292 0.47007,7.30532 1.63434,15.00532 1.64825,10.90086 2.41945,13.4715 3.48382,11.61256 1.95218,-3.40953 5.46184,-1.5892 7.43001,3.85368 1.00704,2.78493 3.73363,5.92339 7.04031,8.10382 2.96821,1.95723 7.63058,5.02506 10.36082,6.81738 6.2737,4.1185 8.52669,3.23938 9.71439,-3.79059 0.66357,-3.92762 1.71237,-5.78971 3.5285,-6.26464 1.97599,-0.51673 2.49116,-1.64603 2.18866,-4.79774 -0.52712,-5.49202 2.63717,-6.07046 8.09325,-1.47947 2.29779,1.93346 4.1778,3.06906 4.1778,2.52354 0,-0.54551 1.2,0.0942 2.66666,1.42146 3.27796,2.96651 3.56583,5.69836 0.33334,3.16326 -2.11151,-1.65596 -2.16053,-1.60949 -0.5156,0.48873 0.99976,1.27526 2.27362,2.0369 2.8308,1.69255 0.55718,-0.34436 4.69586,3.86102 9.19707,9.34529 l 8.184,9.97139 8.0079,35.17673 c 4.40435,19.34719 8.93782,37.04078 10.07438,39.31907 1.13657,2.2783 1.68535,4.75905 1.21951,5.51279 -0.46583,0.75373 -0.106,4.68141 0.79962,8.72817 1.17644,5.25687 1.23648,7.76787 0.21027,8.79407 -1.0262,1.0262 -9.80439,-4.08419 -30.74321,-17.89777 -28.17313,-18.58613 -29.20095,-19.1356 -26.56823,-14.2033 1.50626,2.82193 3.23387,4.82473 3.83913,4.45066 0.60526,-0.37408 0.76409,0.19648 0.35294,1.26791 -0.41114,1.07142 -0.15079,4.10924 0.57855,6.7507 0.93277,3.37822 0.90361,4.54157 -0.0983,3.92234 -0.92673,-0.57275 -1.16191,0.23732 -0.67313,2.31855 0.41319,1.75937 1.8281,9.48001 3.14424,17.15695 1.8235,10.63637 2.63173,13.1748 3.39625,10.66667 0.66962,-2.1968 0.78471,-1.51773 0.34606,2.04191 -0.36147,2.93334 0.63788,11.93334 2.22078,20 4.29857,21.90603 4.40881,23.76111 1.71309,28.82726 -1.31874,2.47834 -2.27435,4.95608 -2.12357,5.50608 0.15077,0.55 -0.44859,0.85 -1.33193,0.66667 -0.88333,-0.18334 -1.63333,0.56666 -1.66667,1.66666 -0.0333,1.1 -0.6606,2.02697 -1.39393,2.05993 -0.73334,0.033 -6.43334,2.56004 -12.66667,5.61574 -17.85278,8.75178 -31.42681,11.55625 -55.33334,11.43217 -15.92768,-0.0827 -22.13507,-0.67797 -30.48581,-2.92361 -5.7672,-1.55088 -11.10991,-2.43409 -11.87268,-1.96267 -0.76278,0.47143 -1.01297,0.25216 -0.55599,-0.48724 0.97841,-1.58311 -5.36956,-4.79483 -7.21847,-3.65215 -0.69655,0.43049 -1.10159,-0.0119 -0.90008,-0.98306 0.2015,-0.97118 -0.6606,-1.77274 -1.91578,-1.78125 -1.25517,-0.009 -3.02517,-0.75851 -3.93333,-1.66667 -0.90816,-0.90815 -1.18226,-1.65119 -0.60911,-1.65119 0.57314,0 -0.26491,-2.11475 -1.86234,-4.69944 -2.62435,-4.24629 -2.92412,-6.67281 -3.10875,-25.16389 l -0.20433,-20.46445 -3.17981,2.49723 c -3.57061,2.80413 -8.3315,3.20937 -12.36214,1.05223 -2.91704,-1.56115 -10.45805,0.6156 -10.45805,3.01877 0,0.68765 0.59313,0.88369 1.31807,0.43566 0.73422,-0.45378 0.99122,0.0371 0.5802,1.10821 -0.40582,1.05755 -2.14137,1.83871 -3.85678,1.73592 -1.71541,-0.1028 -2.89532,-0.54917 -2.62202,-0.99193 0.79515,-1.28819 -6.13913,-3.98627 -7.72539,-3.0059 -0.79169,0.48929 -1.07203,0.29514 -0.62297,-0.43144 0.44905,-0.72658 -2.65894,-2.98215 -6.90664,-5.01236 l -7.7231,-3.69131 -5.77885,2.94815 c -9.90359,5.05244 -18.16225,4.1955 -34.66252,-3.59665 -7.7,-3.63628 -14.79606,-7.58205 -15.76902,-8.76838 -3.0035,-3.66218 -1.32646,-7.99165 4.31971,-11.15188 l 5.21735,-2.92022 -24.20332,-12.11583 c -23.51881,-11.77317 -28.51729,-13.55595 -30.23139,-10.78249 -0.97109,1.57126 -7.33333,1.81485 -7.33333,0.28077 0,-0.57891 -1.64198,-1.02891 -3.64885,-1 -2.00687,0.0289 -3.66606,-0.54744 -3.68709,-1.28077 -0.021,-0.73333 -0.54676,-2.13561 -1.1683,-3.11618 -0.66537,-1.0497 -0.5199,-2.39302 0.35375,-3.26666 0.8161,-0.81611 1.48382,-3.37703 1.48382,-5.69095 0,-3.93613 -0.74829,-4.59651 -11.61759,-10.25278 -11.55021,-6.01059 -14.90396,-9.00677 -10.08169,-9.00677 1.38761,0 3.65366,-0.8268 5.03566,-1.83735 2.36162,-1.72685 2.37687,-1.97321 0.25364,-4.09643 -1.46346,-1.46346 -1.97989,-3.37147 -1.46636,-5.41756 0.8674,-3.45596 -4.23519,-9.47522 -15.14422,-17.86485 l -5.68723,-4.37379 -6.9052,14.45542 c -3.79787,7.95048 -6.82227,15.5564 -6.72091,16.90204 0.10136,1.34564 -7.5742,19.04332 -17.05681,39.32819 l -17.2411,36.88157 -66.312253,40.34472 C 33.25087,544.51156 2.9784368,562.66669 2.4505344,562.66669 c -0.5279023,0 -1.3138735,-0.57287 -1.74660272,-1.27304 z M 45.538303,508.21546 c 2.48076,-4.48256 8.879585,-8.87954 7.330539,-5.03722 -2.419205,6.00071 -2.137928,6.2863 1.003599,1.01901 4.21917,-7.07414 4.270333,-7.58206 0.497552,-4.9395 -4.149013,2.90608 -5.392837,2.58554 -3.587027,-0.9244 0.848899,-1.65 0.95027,-2.4 0.225267,-1.66667 -0.725002,0.73334 -3.549192,5.53334 -6.275976,10.66667 -2.726785,5.13334 -4.157045,8.32826 -3.178356,7.09983 0.978688,-1.22842 2.771669,-4.0264 3.984402,-6.21772 z M 19.695329,499.2509 c -0.446934,-0.44693 -1.531309,0.58878 -2.409721,2.30159 -1.526826,2.97714 -1.491064,3.0129 0.812608,0.81261 1.325346,-1.26588 2.044048,-2.66726 1.597113,-3.1142 z m 79.509792,-0.79167 c -0.342316,-0.55388 2.433549,-7.09673 6.168589,-14.53967 3.73505,-7.44295 6.60393,-13.71704 6.37531,-13.94244 -0.43412,-0.42799 -17.082351,30.76058 -17.082351,32.00185 0,0.39067 1.161191,-0.0149 2.580423,-0.90119 1.419232,-0.88632 2.300345,-2.06467 1.958029,-2.61855 z m -42.686356,-8.03186 c -0.353145,-0.5714 0.0068,-2.25131 0.799823,-3.73313 0.793047,-1.48182 1.132988,-2.69422 0.755424,-2.69422 -0.377564,0 -1.920377,2.41864 -3.428473,5.37475 -2.682159,5.25746 -2.684632,5.33893 -0.113343,3.73313 1.445757,-0.90289 2.339714,-2.10913 1.986569,-2.68053 z m 325.447645,-1.09402 c 0.96156,0 2.12623,-0.98487 2.58814,-2.18859 0.67049,-1.74728 0.46608,-1.87839 -1.01378,-0.65023 -1.42356,1.18146 -2.23063,1.08409 -3.47864,-0.41966 -2.11778,-2.55177 -0.4565,-5.15567 2.7537,-4.31618 1.38317,0.3617 2.85087,0.11398 3.26154,-0.55051 1.23216,-1.99367 -9.36269,-1.36132 -12.15585,0.72552 -2.52531,1.88672 -2.51978,1.9165 0.22795,1.22591 3.34198,-0.83994 5.63639,3.16129 2.50239,4.36393 -1.08343,0.41575 -1.61262,1.33394 -1.17599,2.04042 0.43663,0.70649 1.68226,0.94362 2.76806,0.52696 1.0858,-0.41666 2.76092,-0.75757 3.72248,-0.75757 z M 62.000002,478.66668 c 1.137664,-2.2 1.76848,-4 1.401814,-4 -0.366667,0 -1.597483,1.8 -2.735148,4 -1.137664,2.2 -1.76848,4 -1.401813,4 0.366666,0 1.597483,-1.8 2.735147,-4 z m -6,-2.82404 c 0,-0.73333 -0.6,-0.96251 -1.333334,-0.50929 -0.733333,0.45323 -1.333333,1.42405 -1.333333,2.15738 0,0.73333 0.6,0.96251 1.333333,0.50929 0.733334,-0.45323 1.333334,-1.42405 1.333334,-2.15738 z m 354.107078,-8.3073 c -0.42555,-2.12776 -0.77373,-5.28395 -0.77373,-7.01375 0,-3.12939 -0.0233,-3.13398 -4.66667,-0.91972 -4.88908,2.33144 -5.456,4.11814 -3.85178,12.13923 l 0.81488,4.07442 4.62551,-2.20576 c 4.08523,-1.94811 4.53514,-2.65764 3.85179,-6.07442 z m -295.44041,-3.53532 c 0.78494,-1.46667 1.12716,-2.66667 0.76049,-2.66667 -0.36667,0 -1.30889,1.2 -2.09382,2.66667 -0.78494,1.46666 -1.12716,2.66666 -0.76049,2.66666 0.36666,0 1.30888,-1.2 2.09382,-2.66666 z m 455.41646,-4.33334 c -0.50428,-2.38333 -1.41336,-7.03333 -2.02017,-10.33333 -2.19648,-11.94511 -6.85666,-28.11874 -8.74986,-30.36734 -1.06475,-1.26463 -5.09578,-7.09669 -8.95783,-12.96013 -6.15488,-9.34446 -13.72319,-16.67253 -17.2191,-16.67253 -0.62488,0 -1.13615,2.04304 -1.13615,4.54009 v 4.54009 l -7.37589,-1.92611 c -6.47039,-1.68966 -7.61716,-1.68484 -9.34123,0.0392 -4.09618,4.09618 -6.98025,3.77918 -14.90924,-1.63876 -4.23884,-2.89643 -10.1803,-7.58111 -13.20325,-10.41039 -5.25523,-4.91855 -5.56994,-5.67042 -7.17616,-17.14415 -0.92394,-6.6 -2.21442,-13.2 -2.86773,-14.66667 -1.02411,-2.29909 -1.10641,-2.2072 -0.59709,0.66667 0.32491,1.83333 2.18538,14.13333 4.13438,27.33333 3.59696,24.36116 4.3243,28.12839 5.24967,27.19084 0.28455,-0.2883 -0.0679,-3.7358 -0.78333,-7.66111 -0.71539,-3.92532 -1.03273,-7.40492 -0.7052,-7.73244 0.65101,-0.65101 8.9084,16.40372 8.9084,18.39932 0,0.6768 -1.35,0.53599 -3,-0.31291 -1.65,-0.8489 -2.4,-0.93392 -1.66667,-0.18893 1.4774,1.50087 81.01143,53.63857 81.82356,53.63857 0.28038,0 0.0972,-1.95 -0.40711,-4.33334 z m -445.24506,-5.32385 c 0.67712,-1.12689 0.25735,-1.06774 -1.28101,0.18052 -3.29835,2.67635 -4.1467,0.94942 -1.51025,-3.07432 1.24294,-1.89696 1.71044,-3.44901 1.03889,-3.44901 -0.67154,0 -2.54013,2.71519 -4.15242,6.03376 l -2.93142,6.03376 3.91452,-2.02428 c 2.15299,-1.11335 4.36775,-2.77855 4.92169,-3.70043 z m 328.49528,-7.67615 c 3.89128,-5.73017 4.85114,-8 3.38301,-8 -1.12732,0 -2.05145,-0.75 -2.0536,-1.66666 -0.002,-1.00563 -1.9163,-1.70897 -4.82555,-1.77333 l -4.82161,-0.10665 0.81395,6.77332 c 0.44767,3.72533 0.81917,8.12332 0.82554,9.77332 0.006,1.65 0.28923,3 0.62858,3 0.33934,0 3.06169,-3.6 6.04968,-8 z M 82.666669,435.2743 c 0,-2.32295 7.24436,-10.25215 8.353414,-9.14309 0.420126,0.42012 1.493098,-0.59872 2.384381,-2.2641 3.023163,-5.64883 -9.489347,4.81767 -12.865802,10.76202 -2.831121,4.98428 -2.865933,5.28307 -0.465875,3.9986 1.426635,-0.76351 2.593882,-2.27255 2.593882,-3.35343 z M 469.33335,419.30112 c 0,-1.81561 -0.31995,-3.3011 -0.71099,-3.3011 -0.39105,0 -3.79987,1.56525 -7.57516,3.47833 -5.67368,2.87507 -6.47535,3.69592 -4.62234,4.73292 1.233,0.69002 2.24182,2.10594 2.24182,3.14649 0,1.07309 0.80722,1.58214 1.86513,1.17618 1.02583,-0.39365 2.29205,-0.025 2.81382,0.81929 1.29493,2.09523 5.98772,-5.78297 5.98772,-10.05211 z M 167.87062,390.00001 c 0,-0.73333 -2.04178,2.56667 -4.53728,7.33334 -2.49551,4.76666 -4.53728,9.26666 -4.53728,10 0,0.73333 2.04177,-2.56667 4.53728,-7.33334 2.4955,-4.76666 4.53728,-9.26666 4.53728,-10 z m 134.26067,9.02017 c -0.80718,-0.80717 -7.46461,2.70312 -7.46461,3.9359 0,0.65708 1.78154,0.14232 3.95897,-1.14393 2.17744,-1.28624 3.75498,-2.54263 3.50564,-2.79197 z m 164.53539,1.0343 c 0,-4.27637 -3.15334,-21.3878 -3.9414,-21.3878 -0.92451,0 0.64373,14.92613 1.9335,18.40258 0.35421,0.95476 0.0509,1.36935 -0.67404,0.92132 -1.47173,-0.90958 -1.81722,1.06583 -0.42917,2.45388 1.30763,1.30763 3.11111,1.08156 3.11111,-0.38998 z M 228.75563,384.31119 c -0.58194,-0.58194 -16.75562,10.05429 -16.75562,11.01893 0,0.31024 3.89378,-1.91832 8.65286,-4.95237 4.75908,-3.03405 8.40532,-5.764 8.10276,-6.06656 z m 227.98212,2.02216 c -0.53652,-4.58334 -1.02199,-9.08334 -1.07883,-10 -0.0568,-0.91667 -0.68235,-1.66667 -1.39002,-1.66667 -0.73468,0 -0.97509,2.32298 -0.5604,5.41475 0.64108,4.77958 0.34886,5.58671 -2.49111,6.88069 -4.09651,1.86649 -4.03861,2.53939 0.45167,5.24933 5.74751,3.46867 6.11316,3.04463 5.06869,-5.8781 z m -237.93757,-3.75432 c 11.23911,-7.37869 11.1863,-7.28255 12.58705,-22.91235 l 0.92608,-10.33333 h -4.99343 c -4.10126,0 -6.09461,-1.06243 -11.15665,-5.94632 -3.38977,-3.27048 -8.35939,-7.95664 -11.04359,-10.4137 -3.71805,-3.40342 -5.09478,-5.89718 -5.78064,-10.4708 -1.08786,-7.25439 -5.16128,-10.83363 -7.96527,-6.99895 -1.41137,1.93018 -1.37852,2.68211 0.18549,4.24612 1.64503,1.64503 1.64509,2.19303 4.6e-4,4.07545 -2.35192,2.69197 -4.45592,15.55282 -2.32939,14.23855 0.79001,-0.48825 1.43638,-0.27343 1.43638,0.47738 0,0.75081 -1.35,2.07604 -3,2.94496 -1.65,0.86892 -3.37132,2.14814 -3.82517,2.84271 -1.0302,1.57666 -4.42961,24.91514 -3.70512,25.43737 0.29166,0.21024 4.51537,3.49887 9.38602,7.30807 4.87064,3.8092 9.85605,6.92582 11.07869,6.92582 1.22263,0 1.85214,0.6 1.39892,1.33334 -0.45323,0.73333 -0.45323,1.93333 0,2.66666 1.71288,2.7715 6.84283,1.1162 16.80017,-5.42098 z m -45.43107,-5.89024 c 0.55998,0.34608 1.3522,-0.24133 1.76051,-1.30535 0.61432,-1.60089 0.17746,-1.6772 -2.53259,-0.44242 -4.78497,2.18017 -5.60898,0.23872 -2.39165,-5.63495 l 2.83491,-5.17552 -3.27704,2.1472 c -1.80238,1.18097 -5.37425,6.31169 -7.93749,11.40161 l -4.66045,9.2544 7.59284,-5.4371 c 4.17605,-2.99041 8.05099,-5.15395 8.61096,-4.80787 z m -6.70244,-5.94342 c 0,-0.69005 0.59313,-1.62122 1.31806,-2.06925 0.75582,-0.46712 0.97935,0.0681 0.52402,1.25464 -0.88639,2.30989 -1.84208,2.73252 -1.84208,0.81461 z m -50,10.58798 c 1.13766,-2.2 1.76848,-4 1.40181,-4 -0.36666,0 -1.59748,1.8 -2.73514,4 -1.13767,2.2 -1.76848,4 -1.40182,4 0.36667,0 1.59749,-1.8 2.73515,-4 z m 6.66667,-12 c 1.13766,-2.2 1.76848,-4 1.40181,-4 -0.36667,0 -1.59748,1.8 -2.73515,4 -1.13766,2.2 -1.76848,4 -1.40181,4 0.36667,0 1.59748,-1.8 2.73515,-4 z m 148.25257,-11.98881 c 10.12775,-6.59385 17.89613,-11.99385 17.26305,-12.00001 -1.04713,-0.0102 -33.13762,20.33667 -36.11562,22.89897 -4.16438,3.58306 2.73813,-0.40739 18.85257,-10.89896 z M 130,358.66668 c 1.32732,-1.46667 2.1133,-2.66667 1.74664,-2.66667 -0.36667,0 -1.75265,1.2 -3.07997,2.66667 -1.32731,1.46667 -2.1133,2.66667 -1.74663,2.66667 0.36666,0 1.75265,-1.2 3.07996,-2.66667 z m 6.08257,-2.82094 c 1.17494,-2.1954 1.13726,-2.69678 -0.16993,-2.26105 -0.9238,0.30793 -1.82897,1.57735 -2.01149,2.82093 -0.44808,3.05293 0.35873,2.84585 2.18142,-0.55988 z m 320.02672,-34.44008 c -1.4269,-9.71767 -2.92301,-17.99716 -3.32471,-18.39886 -0.4017,-0.4017 -3.21626,0.91473 -6.25458,2.9254 -5.31176,3.51516 -5.49502,3.86879 -4.76501,9.19512 0.41757,3.04665 1.17581,9.60584 1.685,14.57598 0.85753,8.37042 1.09169,8.88648 3.17622,7 2.88688,-2.61259 3.9813,-2.53502 8.02055,0.5685 1.82238,1.40021 3.48069,2.37855 3.68514,2.1741 0.20445,-0.20445 -0.79572,-8.32256 -2.22261,-18.04024 z m -90.60587,14.92769 c 1.65849,-2.11475 1.61133,-2.16191 -0.50341,-0.50341 -2.221,1.74182 -2.9273,2.83674 -1.82993,2.83674 0.27688,0 1.32688,-1.05 2.33334,-2.33333 z M 221.7095,331.52452 c 6.39102,-2.69439 17.54402,-11.99192 23.64748,-19.71336 5.1955,-6.57281 5.31412,-6.93913 3.26144,-10.07192 -2.74923,-4.19586 -0.59139,-7.17258 4.74874,-6.55082 3.50885,0.40855 4.06976,-0.21855 7.94247,-8.8797 7.83613,-17.52516 10.11947,-34.57033 5.39376,-40.26447 -2.21311,-2.66664 -9.71566,-2.61052 -15.10293,0.11296 -7.80798,3.94726 -17.84231,12.46945 -24.17965,20.53587 -6.1898,7.87864 -6.32717,8.5085 -1.75414,8.04332 3.09487,-0.31481 2.94772,1.59888 -0.419,5.44923 -1.88872,2.16003 -2.96951,2.62475 -3.44445,1.48105 -1.56977,-3.78019 -4.31453,-1.09822 -8.86958,8.66666 -5.62567,12.06004 -7.52261,19.50554 -7.56771,29.70333 -0.0546,12.35306 5.3239,16.13361 16.34357,11.48785 z m -7.02873,-5.50753 c -2.05449,-2.4755 -0.6555,-6.54841 1.911,-5.56355 1.04644,0.40155 2.16638,0.0138 2.48876,-0.86166 0.45362,-1.23189 0.97009,-1.23043 2.28435,0.006 1.37033,1.28964 1.26786,2.25499 -0.53074,5 -2.56019,3.90734 -3.84264,4.20303 -6.15337,1.41877 z m 38.05664,-70.87651 c -1.08355,-4.31719 0.35028,-5.9704 4.28559,-4.94129 3.48485,0.91131 3.83224,3.42178 0.88177,6.37225 -2.95269,2.95269 -4.15038,2.62103 -5.16736,-1.43096 z m 121.06063,59.51634 c 0.4943,2.47148 0.51236,6.63476 0.0401,9.25173 -0.47222,2.61697 -0.54302,4.45813 -0.15734,4.09146 0.62202,-0.59134 6.35022,-27.13327 6.29876,-29.18566 -0.0112,-0.44788 -0.46123,-0.16306 -1,0.63295 -0.53877,0.796 -2.15356,2.08924 -3.58843,2.87385 -1.9191,1.04941 -3.40034,4.89696 -5.60251,14.55272 -3.85044,16.88279 -3.74269,20.81144 0.14283,5.20774 2.71843,-10.9168 3.04337,-11.54076 3.86656,-7.42479 z m 1.07916,-1.32348 c 0,-1.83333 0.30264,-2.58333 0.67252,-1.66666 0.36988,0.91666 0.36988,2.41666 0,3.33333 -0.36988,0.91667 -0.67252,0.16667 -0.67252,-1.66667 z m 0.65703,-7.29063 c -0.4131,-1.07651 -0.30184,-2.23495 0.24723,-2.57429 0.54908,-0.33935 1.08558,0.54143 1.19224,1.9573 0.23066,3.06208 -0.39783,3.33147 -1.43947,0.61699 z m -8.12893,-0.2636 c 0.40664,-7.17673 0.80219,-8.33192 3.10301,-9.06217 1.37956,-0.43785 3.92956,-2.03194 5.66666,-3.54241 l 3.15837,-2.74631 0.68082,3.7859 c 0.51655,2.87241 1.18404,1.14686 2.76643,-7.15152 l 2.08561,-10.9374 -3.64762,2.1547 c -2.71147,1.6017 -3.85897,3.56407 -4.47112,7.64615 -0.68167,4.5457 -1.71805,6.04431 -6.01775,8.70167 -3.85748,2.38405 -5.41195,4.37066 -6.04016,7.71928 -0.46524,2.47997 -1.20704,5.45016 -1.64843,6.6004 -0.65606,1.70967 -0.3437,1.83458 1.71154,0.68441 1.38273,-0.77382 2.57642,-2.50753 2.65264,-3.8527 z m -164.22988,-7.84835 c 0.45532,-1.18657 0.23179,-1.72176 -0.52402,-1.25464 -0.72493,0.44803 -1.31806,1.37919 -1.31806,2.06925 0,1.91791 0.95569,1.49528 1.84208,-0.81461 z m 149.49126,-20.59742 c 0.45322,-0.73333 0.18863,-1.33333 -0.58798,-1.33333 -0.77661,0 -1.41202,0.6 -1.41202,1.33333 0,0.73334 0.26459,1.33334 0.58797,1.33334 0.32339,0 0.9588,-0.6 1.41203,-1.33334 z m 10,-7.51491 c 0,-0.36667 -1.8,0.61504 -4,2.18158 -2.2,1.56654 -4,3.14825 -4,3.51492 0,0.36666 1.8,-0.61505 4,-2.18159 2.2,-1.56654 4,-3.14825 4,-3.51491 z m 120,-5.24558 c 0,-0.36666 -1.2,-0.0244 -2.66667,0.76049 -1.46666,0.78494 -2.66666,1.72716 -2.66666,2.09383 0,0.36666 1.2,0.0244 2.66666,-0.76049 1.46667,-0.78494 2.66667,-1.72716 2.66667,-2.09383 z m -105.65546,-3.53818 c 3.12283,-2.11467 6.28769,-3.46796 7.03303,-3.00732 0.74534,0.46065 1.1903,0.19856 0.9888,-0.58241 -0.36416,-1.41138 123.51916,-85.6557 255.63364,-173.838418 17.6,-11.747509 32.19174,-21.506516 32.42609,-21.686683 0.40915,-0.314555 -1.84534,-6.169068 -8.44105,-21.919838 -3.91163,-9.341106 -13.42802,-33.2618353 -14.46651,-36.3635299 -0.65965,-1.9701906 -1.21779,-2.0972105 -3.3538,-0.763249 -2.33269,1.4567856 -2.39632,1.9676141 -0.70959,5.6968626 1.76406,3.9002383 20.54486,51.6246903 20.54486,52.2071563 0,0.152959 -3,2.203201 -6.66667,4.556095 -3.66667,2.352893 -6.66667,5.092948 -6.66667,6.08901 0,2.2795 -41.78976,30.541724 -42.40981,28.681554 -0.2744,-0.823185 -1.73961,-0.527168 -3.67834,0.74314 -1.77226,1.16123 -2.83473,2.7384 -2.36106,3.50482 0.51266,0.8295 0.21457,0.99384 -0.73652,0.40604 -1.83935,-1.13679 -5.80007,1.64704 -4.75324,3.34085 C 599.98961,109.06185 561.3422,136 559.36525,136 c -0.38421,0 -0.69857,-1.23541 -0.69857,-2.74535 0,-1.52009 -0.60478,-2.37158 -1.35508,-1.90787 -0.74529,0.46062 -1.01413,1.38916 -0.59742,2.06342 0.41672,0.67426 -0.0235,0.94969 -0.97825,0.61208 -2.65963,-0.9405 -6.12183,2.36306 -6.62128,6.31789 -0.3864,3.05964 -12.72598,11.82274 -89.7813,63.75925 -79.08693,53.30586 -97.4302,65.91569 -90.00001,61.86929 1.1,-0.59905 4.55505,-2.81936 7.67788,-4.93404 z m 122.98879,-7.12848 c 0,-0.36667 -1.2,-0.0245 -2.66666,0.76049 -1.46667,0.78493 -2.66667,1.72715 -2.66667,2.09382 0,0.36667 1.2,0.0245 2.66667,-0.76049 1.46666,-0.78494 2.66666,-1.72716 2.66666,-2.09382 z m 17.33334,-10.66667 c 0,-0.36667 -1.2,-0.0245 -2.66667,0.76049 -1.46666,0.78494 -2.66666,1.72716 -2.66666,2.09382 0,0.36667 1.2,0.0245 2.66666,-0.76049 1.46667,-0.78493 2.66667,-1.72715 2.66667,-2.09382 z M 383.58234,228.79274 c 2.15917,-1.99143 5.87336,-18.34992 3.89732,-17.16507 -7.73213,4.63623 -16.5208,12.13118 -15.46418,13.18781 2.62217,2.62217 -1.13941,10.6916 -6.69896,14.37073 -2.92408,1.93507 -5.31651,4.15111 -5.31651,4.92455 0,1.21422 19.13064,-11.21218 23.58233,-15.31802 z m 140.41768,10.44678 c 0,-0.36667 -1.2,-0.0245 -2.66667,0.76049 -1.46667,0.78493 -2.66667,1.72716 -2.66667,2.09382 0,0.36667 1.2,0.0245 2.66667,-0.76049 1.46667,-0.78493 2.66667,-1.72715 2.66667,-2.09382 z m 10.66666,-6.66667 c 0,-0.36666 -1.2,-0.0244 -2.66666,0.76049 -1.46667,0.78494 -2.66667,1.72716 -2.66667,2.09383 0,0.36666 1.2,0.0244 2.66667,-0.76049 1.46666,-0.78494 2.66666,-1.72716 2.66666,-2.09383 z m 6.66667,-4 c 0,-0.36667 -1.2,-0.0244 -2.66667,0.76049 -1.46666,0.78494 -2.66666,1.72716 -2.66666,2.09383 0,0.36666 1.2,0.0244 2.66666,-0.76049 1.46667,-0.78494 2.66667,-1.72716 2.66667,-2.09383 z m -40.48841,-5.88304 c 5.80628,-3.68224 6.27893,-4.39409 6.37964,-9.60837 0.0933,-4.83123 0.668,-5.92399 4.0441,-7.68979 2.16444,-1.13207 5.1053,-3.08756 6.53526,-4.34554 1.42996,-1.25797 3.03406,-2.01891 3.56467,-1.69098 1.52048,0.93971 1.16306,7.78109 -0.51544,9.86612 -0.8359,1.03836 0.72275,0.43836 3.46367,-1.33333 4.97258,-3.21418 4.98352,-3.24171 4.99201,-12.55458 0.005,-5.13333 -0.37294,-14.23309 -0.83917,-20.22169 l -0.84769,-10.88836 -4.46115,2.88836 c -4.32465,2.79998 -4.46165,3.16178 -4.47765,11.8243 l -0.0165,8.93595 -6,4.12811 c -3.3,2.27046 -6,4.42091 -6,4.77879 0,0.35787 2.23928,-0.87095 4.97618,-2.73072 6.34385,-4.31076 7.02382,-4.24926 7.02382,0.63526 0,3.59866 -1.23735,4.80693 -11.89001,11.61057 l -11.89002,7.59391 -0.44332,6.39026 c -0.24382,3.51464 -0.31415,6.38988 -0.15629,6.38942 0.15787,-4.5e-4 3.10892,-1.79042 6.5579,-3.97769 z m 51.15508,-0.78363 c 0,-0.36666 -1.2,-0.0244 -2.66667,0.76049 -1.46667,0.78494 -2.66667,1.72716 -2.66667,2.09383 0,0.36666 1.2,0.0244 2.66667,-0.76049 1.46667,-0.78494 2.66667,-1.72716 2.66667,-2.09383 z m 6.66666,-4 c 0,-0.36666 -1.2,-0.0244 -2.66666,0.76049 -1.46667,0.78494 -2.66667,1.72716 -2.66667,2.09383 0,0.36666 1.2,0.0244 2.66667,-0.76049 1.46666,-0.78494 2.66666,-1.72716 2.66666,-2.09383 z m 10.66667,-6.66666 c 0,-0.36667 -1.2,-0.0245 -2.66667,0.76049 -1.46666,0.78493 -2.66666,1.72715 -2.66666,2.09382 0,0.36667 1.2,0.0245 2.66666,-0.76049 1.46667,-0.78494 2.66667,-1.72716 2.66667,-2.09382 z m 6.66667,-4 c 0,-0.36667 -1.2,-0.0245 -2.66667,0.76049 -1.46667,0.78493 -2.66667,1.72715 -2.66667,2.09382 0,0.36667 1.2,0.0245 2.66667,-0.76049 1.46667,-0.78494 2.66667,-1.72716 2.66667,-2.09382 z m 8.66666,-5.21537 2.66667,-2.17125 -2.66667,1.30919 c -1.46666,0.72005 -3.86666,2.28625 -5.33333,3.48044 l -2.66667,2.17125 2.66667,-1.30918 c 1.46667,-0.72006 3.86667,-2.28626 5.33333,-3.48045 z M 425.33335,161.51737 c 52.74975,-38.46175 87.69697,-64.16116 90.58778,-66.616243 5.91536,-5.023759 -3.95422,1.748076 -23.92112,16.413033 -12.1,8.88702 -43.3,31.66944 -69.33333,50.62762 -26.03333,18.95818 -48.23334,35.37031 -49.33334,36.47142 -3.19031,3.19351 4.55984,-2.30549 52.00001,-36.89583 z m 167.3098,31.16177 c -0.37985,-2.20686 -2.46926,-15.71247 -4.64313,-30.01247 -5.46403,-35.94306 -5.31658,-35.21675 -6.83984,-33.6935 -0.87178,0.87179 0.30508,12.73381 3.4633,34.90786 2.63108,18.47304 4.40437,34.20126 3.94064,34.95159 -0.46373,0.75034 0.41974,0.57557 1.96326,-0.38838 2.16548,-1.35236 2.64868,-2.66902 2.11577,-5.7651 z m -182.4031,-34.82386 c 0.41583,-1.08365 0.39644,-2.32991 -0.0431,-2.76945 -1.17102,-1.17102 -4.46827,1.92509 -5.25531,4.93472 -0.58214,2.2261 -0.3045,2.39897 1.93123,1.20244 1.43611,-0.76858 2.95134,-2.28405 3.36718,-3.36771 z m -9.62869,0.72189 c -0.42101,-0.68122 1.5192,-3.33548 4.31159,-5.89835 4.95323,-4.54612 5.09479,-4.58683 5.8039,-1.66929 0.48095,1.97881 1.32968,-0.39247 2.50883,-7.00952 0.9801,-5.5 2.09001,-10.80942 2.46648,-11.7987 0.56271,-1.47869 0.20471,-1.49907 -2.01229,-0.11453 -1.71462,1.0708 -3.29521,4.35823 -4.33992,9.0265 -1.19968,5.36072 -2.86305,8.49285 -6.16321,11.60529 -4.05877,3.82792 -6.52525,10.01142 -3.16498,7.93466 0.7453,-0.46062 1.01062,-1.39485 0.5896,-2.07606 z m 122.44076,-32.93271 c -0.39606,-3.01004 0.48132,-4.31522 5.04016,-7.49773 4.47093,-3.12114 5.7439,-3.50115 6.69971,-2 0.64901,1.0193 0.8917,2.63832 0.53932,3.59781 -0.35239,0.9595 1.74111,0.0595 4.6522,-2 5.25429,-3.71722 6.13209,-6.02632 4.54285,-11.95017 -0.71222,-2.6548 -1.92239,-2.05141 -15.98179,7.96853 l -15.21122,10.84083 v 5.71706 5.71705 l 5.09915,-3.37446 c 4.18759,-2.77121 5.01342,-4.02597 4.61962,-7.01892 z M 532.17009,123 c 1.65849,-2.11474 1.61133,-2.1619 -0.50341,-0.5034 -2.22099,1.74182 -2.9273,2.83674 -1.82992,2.83674 0.27687,0 1.32687,-1.05 2.33333,-2.33334 z m -4.83674,-36.783666 c 2.2,-0.99179 4.9,-2.930167 6,-4.307506 1.55952,-1.952719 1.15285,-1.851381 -1.84648,0.460128 -2.11556,1.630409 -4.34305,2.96438 -4.94996,2.96438 -0.60692,0 -1.27601,-5.431374 -1.48686,-12.06972 l -0.38337,-12.06972 -12.20888,9.06972 c -9.29075,6.9019 -12.3425,9.944175 -12.76789,12.728264 l -0.559,3.658544 4.10122,-3.158653 c 2.25567,-1.737259 4.31059,-4.213453 4.56649,-5.502653 0.6277,-3.162298 7.10901,-8.732477 9.27065,-7.967397 0.95475,0.337922 1.39496,0.06274 0.97825,-0.611527 -0.41672,-0.674261 -0.14788,-1.602799 0.59741,-2.063416 0.78305,-0.483949 1.35509,0.60287 1.35509,2.574535 0,1.876613 -0.6,3.412023 -1.33334,3.412023 -0.76408,0 -1.33333,4.05421 -1.33333,9.495963 v 9.495963 l 3,-2.152837 c 1.65,-1.184061 4.8,-2.964302 7,-3.956091 z m 15.50341,-11.216331 c 1.65849,-2.114741 1.61133,-2.161902 -0.50341,-0.503407 -1.28333,1.006459 -2.33333,2.056459 -2.33333,2.333333 0,1.097379 1.09491,0.391071 2.83674,-1.829926 z m 5.33333,-4 c 1.65849,-2.114741 1.61133,-2.161902 -0.50341,-0.503407 -1.28333,1.006459 -2.33333,2.056459 -2.33333,2.333333 0,1.097379 1.09491,0.391071 2.83674,-1.829926 z m 5.33333,-4.000001 c 1.6585,-2.11474 1.61134,-2.161901 -0.5034,-0.503407 -1.28334,1.00646 -2.33334,2.05646 -2.33334,2.333334 0,1.097379 1.09492,0.391071 2.83674,-1.829927 z M 388.33626,506.00002 c 0.0148,-2.93334 0.28784,-3.97634 0.60677,-2.31779 0.31892,1.65855 0.30681,4.05855 -0.0269,5.33333 -0.33373,1.27479 -0.59466,-0.0822 -0.57986,-3.01554 z"
       id="path1" />
  </g>
  <metadata
     id="metadata1">
    <rdf:RDF>
      <cc:Work
         rdf:about="">
        <dc:title>ICEsat Icon SVG</dc:title>
        <dc:source>https://science.nasa.gov/wp-content/uploads/2023/05/icesat.png</dc:source>
      </cc:Work>
    </rdf:RDF>
  </metadata>
</svg>
