<?xml version="1.0" encoding="UTF-8" standalone="no"?>
<svg xmlns="http://www.w3.org/2000/svg" version="1.2" baseProfile="tiny" viewBox="0.00 0.00 512.00 640.00" width="512.00" height="640.00">
<path fill="#91919c" d="
  M 100.91 0.00
  L 106.17 5.43
  L 151.29 54.42
  Q 151.73 55.64 153.05 56.44
  Q 153.73 57.00 153.64 57.25
  Q 155.40 59.95 157.97 61.90
  Q 158.31 61.84 158.71 62.53
  Q 158.75 63.00 159.20 63.05
  Q 159.28 63.86 160.04 63.96
  Q 160.16 64.09 160.15 64.19
  Q 161.40 66.09 163.23 67.29
  L 170.44 75.29
  Q 170.54 75.76 170.97 75.79
  L 173.22 78.27
  Q 173.39 78.98 174.19 79.30
  L 178.62 84.23
  Q 180.65 87.88 184.33 89.78
  L 195.49 102.48
  Q 194.73 103.70 193.40 104.52
  Q 188.82 99.42 184.65 93.94
  C 182.22 90.75 178.95 89.03 176.28 85.95
  Q 173.56 82.80 168.67 77.72
  A 4.86 4.44 10.0 0 1 168.00 76.85
  Q 166.14 73.80 164.75 72.53
  Q 156.06 64.59 149.44 56.27
  Q 146.07 52.05 141.82 47.95
  Q 132.09 38.57 122.97 28.31
  Q 119.00 24.89 115.51 20.72
  Q 109.77 13.86 109.59 13.66
  C 104.91 8.55 101.02 3.88 96.33 0.97
  A 0.38 0.38 0.0 0 1 96.40 0.29
  L 97.17 0.00
  L 100.91 0.00
  Z"
/>
<path fill="#212028" d="
  M 101.39 0.00
  Q 104.22 1.78 106.17 5.43
  L 100.91 0.00
  L 101.39 0.00
  Z"
/>
<path fill="#ebe8b1" d="
  M 193.40 104.52
  Q 196.61 107.83 199.84 111.13
  C 204.24 115.61 207.67 120.10 211.91 125.12
  Q 213.83 127.39 218.25 131.37
  Q 221.27 134.08 224.24 138.16
  C 226.43 141.16 229.01 143.67 230.90 145.94
  Q 232.21 147.51 235.83 150.91
  Q 241.57 156.31 244.47 160.03
  Q 249.49 166.45 253.06 169.56
  C 256.70 172.73 258.68 175.41 261.51 178.21
  C 264.50 181.16 267.13 185.75 270.20 188.68
  Q 279.68 197.72 285.01 204.19
  Q 288.39 208.29 291.08 210.77
  Q 291.85 211.47 297.15 217.30
  Q 301.57 222.17 305.85 227.36
  Q 307.41 229.27 311.25 232.85
  Q 316.30 237.59 319.60 243.86
  Q 317.99 244.86 318.06 246.28
  A 1.17 1.16 19.5 0 0 318.46 247.11
  Q 322.92 251.06 326.22 255.96
  Q 317.80 254.21 310.91 249.41
  A 0.78 0.78 0.0 0 0 309.69 250.07
  Q 309.84 255.70 310.04 258.51
  Q 310.17 260.20 309.20 261.27
  A 0.60 0.60 0.0 0 0 309.35 262.20
  L 309.67 262.39
  A 1.05 1.04 -72.7 0 1 310.19 263.39
  Q 309.61 270.05 310.47 276.53
  C 310.17 278.60 312.78 279.01 313.39 280.83
  A 1.14 1.12 55.9 0 1 313.19 281.91
  Q 311.07 284.48 313.59 286.50
  L 312.66 286.41
  A 0.56 0.56 0.0 0 0 312.05 287.06
  Q 312.17 287.81 312.26 287.85
  A 0.62 0.61 -60.5 0 1 312.51 288.78
  L 311.55 290.11
  A 0.10 0.10 0.0 0 1 311.39 290.11
  Q 311.29 289.94 311.27 289.85
  A 0.04 0.03 59.9 0 0 311.21 289.83
  Q 308.78 292.69 303.65 300.17
  C 300.82 304.28 296.38 308.84 293.32 311.97
  C 291.43 313.91 289.85 316.66 287.85 318.38
  A 3.08 2.97 86.5 0 0 287.21 319.13
  L 284.64 323.37
  A 0.79 0.78 -44.4 0 1 283.29 323.36
  L 280.50 318.52
  A 0.75 0.74 29.5 0 1 280.39 318.13
  Q 280.32 316.15 279.08 314.43
  A 0.30 0.30 0.0 0 0 278.55 314.70
  Q 279.57 317.79 279.15 319.34
  A 0.77 0.77 0.0 0 0 279.27 320.02
  L 282.72 324.72
  A 0.80 0.80 0.0 0 1 282.68 325.71
  L 279.99 328.85
  A 0.28 0.27 -50.9 0 0 280.02 329.24
  Q 280.03 329.24 280.15 329.28
  A 0.41 0.41 0.0 0 1 280.34 329.93
  C 274.92 336.30 266.55 346.07 260.06 355.57
  Q 256.31 361.06 251.94 363.05
  Q 245.94 362.24 239.80 362.89
  A 1.51 1.51 0.0 0 0 238.45 364.42
  C 238.51 367.36 238.72 371.59 235.87 373.14
  C 233.92 374.20 232.26 371.68 232.05 369.99
  Q 231.79 367.97 232.01 364.49
  A 1.34 1.34 0.0 0 0 230.62 363.06
  L 213.64 363.65
  A 1.08 1.08 0.0 0 0 212.59 364.73
  L 212.59 371.10
  A 1.90 1.83 58.0 0 1 212.43 371.86
  Q 211.55 373.87 209.71 374.18
  C 205.89 374.80 206.72 368.16 206.79 364.99
  A 1.00 1.00 0.0 0 0 205.81 363.97
  L 205.78 363.97
  A 0.95 0.95 0.0 0 0 204.86 364.90
  L 204.56 376.09
  A 1.55 1.54 -3.1 0 1 203.21 377.58
  L 199.90 378.02
  A 1.80 1.80 0.0 0 0 198.37 380.16
  Q 199.12 383.85 196.03 385.04
  Q 196.76 382.72 196.64 380.64
  A 0.33 0.32 -86.8 0 0 196.37 380.33
  Q 196.23 380.32 196.10 380.30
  Q 196.19 379.95 196.10 379.71
  Q 195.85 379.00 195.14 379.24
  Q 193.90 379.65 192.78 380.54
  Q 192.46 380.21 192.32 380.38
  Q 192.84 379.27 193.59 379.04
  Q 194.70 378.70 194.75 377.48
  Q 195.07 369.91 195.21 362.88
  A 0.81 0.80 -78.3 0 0 194.72 362.12
  Q 193.10 361.42 191.27 361.59
  Q 185.07 359.84 178.55 361.29
  Q 178.07 361.40 177.94 361.87
  Q 177.83 362.26 178.26 362.76
  Q 173.00 362.44 170.36 366.60
  Q 166.80 367.69 166.96 370.54
  Q 164.80 368.69 162.56 371.01
  L 162.29 366.17
  A 2.15 2.15 0.0 0 0 160.46 364.15
  L 149.04 362.48
  A 1.91 1.81 -28.2 0 1 148.71 362.39
  L 145.81 361.25
  A 1.72 1.70 41.8 0 0 144.41 361.32
  L 139.11 364.01
  Q 136.53 360.23 136.49 358.72
  C 136.33 353.61 135.94 348.37 135.96 343.42
  Q 136.05 315.52 136.09 287.47
  Q 136.66 287.41 137.58 288.85
  A 1.70 1.68 -50.3 0 1 137.71 290.39
  C 136.97 292.19 136.25 295.87 138.47 297.01
  A 1.25 1.25 0.0 0 0 139.44 297.08
  Q 141.87 296.26 145.34 296.40
  A 2.16 2.11 28.6 0 0 146.58 296.05
  Q 147.42 295.50 147.75 296.14
  Q 147.92 296.47 147.89 296.54
  Q 147.82 296.70 147.61 296.93
  A 1.05 1.02 -25.2 0 0 147.34 297.65
  Q 147.44 301.14 147.41 301.20
  A 0.22 0.21 54.9 0 1 147.01 301.13
  Q 146.71 299.24 147.02 298.29
  A 1.23 1.22 -85.0 0 0 145.69 296.70
  L 139.08 297.56
  A 2.26 2.25 -3.8 0 0 137.12 299.79
  L 137.12 302.07
  A 1.88 1.87 0.0 0 0 139.00 303.94
  L 143.87 303.94
  A 0.34 0.34 0.0 0 1 143.96 304.60
  Q 142.72 304.96 139.60 304.60
  A 2.30 2.29 7.4 0 0 137.07 306.55
  L 136.90 307.70
  A 2.01 2.00 3.1 0 0 138.96 309.99
  L 145.67 309.75
  A 0.12 0.09 -54.2 0 0 145.73 309.73
  C 146.99 309.04 148.63 309.74 150.22 309.70
  Q 160.81 309.44 165.53 309.28
  Q 171.77 309.08 176.60 308.70
  Q 181.83 308.28 187.66 308.26
  Q 188.39 308.26 188.78 307.88
  Q 189.36 307.29 189.91 307.65
  Q 190.55 308.06 191.65 307.93
  Q 195.53 307.45 211.38 306.68
  A 0.98 0.94 -67.6 0 0 211.99 306.41
  L 212.22 306.18
  A 0.61 0.60 -45.3 0 1 213.08 306.17
  Q 213.56 306.65 214.74 306.56
  Q 219.87 306.17 223.72 305.62
  A 6.31 5.92 39.7 0 1 224.71 305.56
  Q 229.43 305.72 233.26 305.27
  Q 234.91 305.08 235.39 304.13
  A 0.33 0.33 0.0 0 1 235.98 304.13
  Q 238.15 308.40 237.54 312.34
  A 0.25 0.25 0.0 0 0 237.84 312.63
  L 238.35 312.52
  A 0.30 0.30 0.0 0 0 238.59 312.27
  Q 238.85 310.58 238.27 309.61
  A 1.12 1.09 -60.2 0 1 238.13 309.07
  L 238.13 306.16
  A 1.25 1.24 -2.2 0 1 239.28 304.92
  L 259.03 303.49
  A 0.47 0.46 80.6 0 0 259.44 302.91
  L 258.84 300.70
  A 4.64 4.55 39.9 0 1 258.69 299.20
  Q 258.87 296.30 258.49 287.76
  Q 258.48 287.45 258.20 287.15
  A 0.40 0.39 25.9 0 1 258.11 286.90
  L 258.46 268.21
  A 1.31 1.30 11.7 0 0 257.64 266.97
  Q 257.41 266.88 257.40 266.87
  A 0.47 0.47 0.0 0 1 257.37 266.05
  Q 257.46 266.00 257.51 265.96
  A 1.12 1.12 0.0 0 0 257.98 265.01
  Q 257.93 263.34 258.09 261.01
  Q 258.19 259.67 257.59 258.99
  A 0.80 0.79 -53.0 0 1 257.47 258.13
  Q 257.80 257.41 257.51 256.15
  C 257.13 254.55 257.92 253.34 257.38 251.49
  A 2.19 2.19 0.0 0 1 257.34 250.44
  Q 258.15 246.80 256.60 243.49
  A 0.07 0.07 0.0 0 1 256.63 243.40
  L 256.93 243.22
  A 0.71 0.70 -10.7 0 0 257.28 242.71
  Q 257.68 240.02 256.78 237.32
  A 1.65 1.65 0.0 0 1 256.78 236.26
  Q 257.67 233.64 256.87 230.07
  C 256.26 227.34 257.61 225.06 256.78 222.16
  A 0.60 0.59 -9.6 0 0 256.17 221.73
  Q 251.77 221.98 248.28 222.56
  Q 246.83 222.80 246.23 223.34
  A 0.70 0.69 -50.9 0 1 245.41 223.43
  L 244.91 223.14
  A 2.00 1.96 -34.3 0 0 243.62 222.91
  L 233.31 224.60
  Q 233.28 224.60 233.24 224.60
  C 229.34 224.47 224.95 225.50 220.90 225.88
  C 216.08 226.34 212.88 226.37 210.71 227.38
  A 1.74 1.73 -53.2 0 1 209.75 227.52
  C 205.14 226.90 200.31 229.29 196.08 229.13
  Q 192.70 229.01 189.07 229.56
  Q 186.71 229.92 178.99 230.05
  A 1.62 1.62 0.0 0 0 177.40 231.63
  L 177.32 235.13
  A 0.20 0.20 0.0 0 1 177.09 235.33
  L 177.08 235.33
  A 0.24 0.23 2.7 0 1 176.86 235.10
  L 176.81 231.80
  A 1.29 1.28 85.6 0 0 175.36 230.55
  L 137.02 235.57
  A 1.24 1.23 5.7 0 0 136.01 236.39
  Q 134.95 239.48 136.72 241.42
  A 0.74 0.73 43.4 0 1 136.75 242.38
  L 136.46 242.73
  A 1.56 1.53 -23.0 0 0 136.13 243.52
  Q 135.86 246.09 136.49 248.67
  A 1.18 1.08 42.3 0 1 136.53 249.09
  L 135.84 256.23
  L 135.34 243.71
  Q 135.67 242.45 135.24 241.25
  Q 135.37 238.11 135.08 235.02
  Q 134.59 229.97 134.56 228.83
  Q 134.14 212.79 133.62 189.74
  Q 133.56 187.02 136.68 186.51
  A 1.59 1.58 87.7 0 0 138.00 185.07
  L 138.57 178.17
  A 1.02 1.02 0.0 0 1 140.59 178.12
  Q 140.81 179.76 140.50 184.66
  A 0.87 0.87 0.0 0 0 141.47 185.58
  C 153.14 184.29 163.76 182.11 176.35 180.00
  Q 195.98 176.71 199.86 175.90
  Q 201.93 175.47 201.27 172.83
  Q 205.25 172.79 209.12 171.87
  Q 213.08 170.94 214.52 170.92
  Q 217.16 170.90 219.84 171.98
  A 0.57 0.57 0.0 0 1 219.70 173.08
  L 210.49 174.28
  A 0.69 0.69 0.0 0 0 209.89 174.96
  L 209.89 179.61
  A 1.96 1.94 -68.0 0 0 210.47 181.00
  L 212.83 183.37
  A 1.51 1.50 -25.6 0 0 214.06 183.80
  L 221.42 183.00
  A 0.85 0.77 -38.4 0 1 221.73 183.02
  L 225.06 184.05
  A 0.96 0.95 11.2 0 0 226.30 183.22
  Q 226.48 181.33 227.55 180.01
  A 1.02 1.01 21.6 0 1 228.44 179.63
  Q 230.17 179.77 230.14 178.76
  Q 230.48 176.81 229.49 175.54
  A 0.90 0.88 -8.6 0 1 230.52 174.18
  Q 231.28 174.45 231.57 174.45
  A 0.59 0.58 -89.5 0 0 232.16 173.86
  L 232.15 173.18
  A 0.58 0.58 0.0 0 0 231.60 172.60
  L 228.02 172.43
  Q 226.20 171.54 226.82 170.84
  Q 230.53 171.25 234.55 170.32
  A 7.89 7.63 36.5 0 1 235.91 170.14
  Q 241.29 169.95 246.75 168.71
  A 1.28 1.28 0.0 0 0 247.60 166.85
  C 245.32 162.56 242.56 159.04 238.91 155.57
  Q 231.27 148.30 223.78 139.52
  Q 222.06 137.50 212.91 128.19
  C 208.80 124.01 206.07 120.53 202.39 116.08
  Q 199.88 113.05 197.98 111.21
  Q 192.16 105.58 183.03 94.76
  Q 181.85 93.36 172.36 83.91
  C 168.83 80.39 164.09 73.82 159.98 69.77
  Q 151.66 61.56 145.98 55.00
  C 140.75 48.95 134.03 43.00 128.90 36.10
  Q 128.40 35.42 125.73 32.33
  Q 124.12 30.46 122.97 28.31
  Q 132.09 38.57 141.82 47.95
  Q 146.07 52.05 149.44 56.27
  Q 156.06 64.59 164.75 72.53
  Q 166.14 73.80 168.00 76.85
  A 4.86 4.44 10.0 0 0 168.67 77.72
  Q 173.56 82.80 176.28 85.95
  C 178.95 89.03 182.22 90.75 184.65 93.94
  Q 188.82 99.42 193.40 104.52
  Z
  M 237.21 189.27
  Q 238.03 189.31 237.91 187.61
  A 0.85 0.85 0.0 0 0 237.13 186.83
  L 234.94 186.65
  A 1.13 1.10 -14.6 0 1 234.10 186.17
  Q 233.64 185.52 232.43 184.72
  A 0.61 0.61 0.0 0 0 231.57 185.54
  Q 232.86 187.74 231.82 188.61
  A 2.17 1.74 37.6 0 0 232.58 191.74
  C 233.92 192.51 237.30 191.89 236.84 189.69
  A 0.35 0.35 0.0 0 1 237.21 189.27
  Z
  M 294.91 218.36
  L 293.73 216.74
  A 1.44 1.41 -4.8 0 0 293.16 216.27
  Q 288.22 214.01 285.90 208.41
  A 1.99 1.69 18.5 0 0 285.67 208.03
  Q 283.35 205.18 281.71 204.91
  Q 280.20 204.65 279.01 203.89
  A 1.71 1.70 24.0 0 0 276.44 204.87
  Q 275.56 208.07 271.43 209.78
  A 1.39 1.38 77.6 0 0 270.58 211.12
  Q 270.73 214.13 272.75 215.19
  Q 273.05 215.35 273.12 215.79
  Q 273.20 216.26 272.68 216.34
  A 0.27 0.26 -28.3 0 0 272.54 216.80
  Q 273.16 217.32 272.78 217.85
  A 0.62 0.62 0.0 0 1 272.31 218.12
  Q 270.36 218.28 269.14 217.54
  A 0.95 0.91 82.2 0 0 268.06 219.03
  C 269.03 220.04 270.48 219.56 272.01 219.35
  A 1.89 1.89 0.0 0 1 273.21 219.58
  Q 276.84 221.69 278.20 225.05
  A 0.94 0.92 -52.5 0 1 278.26 225.55
  L 278.01 227.28
  A 0.60 0.60 0.0 0 0 278.37 227.92
  Q 279.21 228.28 279.83 227.93
  A 0.56 0.56 0.0 0 0 279.97 227.05
  Q 279.31 226.35 279.89 225.56
  A 0.40 0.40 0.0 0 1 280.54 225.56
  L 281.40 226.73
  A 0.87 0.87 0.0 0 0 282.72 226.82
  Q 283.72 225.80 282.00 224.12
  A 0.95 0.95 0.0 0 1 282.05 222.72
  Q 284.72 220.41 287.97 222.04
  C 291.38 223.74 292.49 222.51 293.79 219.45
  A 0.78 0.78 0.0 0 1 294.51 218.97
  Q 294.66 218.97 294.68 218.96
  A 0.38 0.38 0.0 0 0 294.91 218.36
  Z
  M 194.37 224.90
  Q 194.69 224.67 194.77 224.67
  A 1.21 1.07 62.5 0 0 195.29 222.58
  Q 192.40 220.17 192.03 219.91
  A 2.83 2.82 34.7 0 1 191.32 216.03
  Q 191.72 215.45 191.94 214.44
  A 0.77 0.76 -7.6 0 0 190.84 213.60
  Q 189.27 214.40 188.49 215.60
  A 0.98 0.97 33.3 0 0 188.78 216.95
  Q 189.89 217.67 190.23 219.11
  A 1.79 1.75 13.0 0 0 190.87 220.11
  Q 191.37 220.51 193.19 222.29
  A 1.96 1.65 51.7 0 1 193.10 225.20
  Q 192.29 225.63 192.83 227.66
  A 1.55 1.48 -13.4 0 0 194.65 228.72
  Q 196.04 228.41 196.93 227.67
  A 0.65 0.65 0.0 0 0 196.52 226.52
  Q 195.06 226.51 194.29 225.60
  A 0.48 0.47 52.0 0 1 194.37 224.90
  Z
  M 248.2260 217.7328
  A 1.66 0.84 -99.5 0 0 247.6715 219.5086
  A 1.66 0.84 -99.5 0 0 248.7740 221.0072
  A 1.66 0.84 -99.5 0 0 249.3285 219.2314
  A 1.66 0.84 -99.5 0 0 248.2260 217.7328
  Z
  M 309.27 234.90
  Q 309.10 235.32 308.28 235.36
  Q 304.73 235.54 302.76 235.09
  A 2.31 2.27 38.0 0 0 301.25 235.26
  Q 300.54 235.61 297.92 235.67
  Q 289.45 235.88 279.82 234.93
  C 274.94 234.45 270.92 233.49 266.05 234.64
  A 0.67 0.67 0.0 0 0 265.53 235.24
  L 265.16 239.78
  A 2.92 2.91 4.7 0 0 267.83 242.92
  L 279.22 243.85
  A 0.16 0.16 0.0 0 0 279.30 243.85
  Q 283.25 243.04 288.21 243.72
  C 292.03 244.25 297.58 242.66 300.74 243.53
  Q 306.13 245.01 310.67 243.77
  A 1.28 1.23 6.6 0 0 311.40 243.21
  Q 312.44 241.52 313.76 241.18
  A 1.27 1.27 0.0 0 0 314.27 239.00
  L 309.49 234.85
  A 0.14 0.14 0.0 0 0 309.27 234.90
  Z
  M 300.2484 244.6799
  A 1.89 1.24 -103.2 0 0 299.4728 246.8032
  A 1.89 1.24 -103.2 0 0 301.1116 248.3601
  A 1.89 1.24 -103.2 0 0 301.8872 246.2368
  A 1.89 1.24 -103.2 0 0 300.2484 244.6799
  Z
  M 202.4884 362.7760
  A 0.73 0.73 0.0 0 0 201.7909 362.0148
  L 201.7310 362.0122
  A 0.73 0.73 0.0 0 0 200.9698 362.7097
  L 200.7116 368.6240
  A 0.73 0.73 0.0 0 0 201.4091 369.3852
  L 201.4690 369.3878
  A 0.73 0.73 0.0 0 0 202.2302 368.6903
  L 202.4884 362.7760
  Z"
/>
<path fill="#212028" d="
  M 153.05 56.44
  Q 151.73 55.64 151.29 54.42
  L 153.05 56.44
  Z"
/>
<path fill="#212028" d="
  M 512.00 55.70
  L 512.00 62.03
  Q 509.58 65.25 506.73 68.24
  Q 503.11 72.04 501.38 74.33
  Q 494.45 83.51 487.01 91.01
  Q 485.28 92.76 481.82 97.32
  C 475.77 105.29 468.86 111.41 463.08 119.10
  C 457.38 126.68 448.95 134.87 444.66 140.66
  Q 441.04 145.55 438.33 148.34
  C 432.86 153.98 427.74 160.19 423.27 166.23
  Q 421.08 169.19 417.39 172.88
  Q 414.55 175.72 413.36 179.23
  L 409.84 182.34
  A 0.55 0.55 0.0 0 0 410.19 183.30
  Q 412.16 183.35 413.79 184.33
  Q 412.24 186.55 407.13 186.21
  A 1.71 1.68 23.4 0 0 405.80 186.72
  Q 401.05 191.66 399.06 195.78
  Q 397.58 199.58 396.08 199.61
  Q 388.08 206.47 381.92 214.93
  Q 379.23 218.64 378.17 219.72
  Q 376.04 221.91 374.35 224.47
  Q 373.56 225.67 369.59 229.51
  Q 366.66 232.35 364.62 235.74
  C 362.37 237.06 364.16 240.06 364.31 242.14
  A 0.83 0.72 -80.7 0 1 363.27 243.00
  Q 363.04 242.89 362.78 242.49
  Q 359.76 237.87 355.73 234.69
  A 1.18 1.18 0.0 0 0 354.08 234.90
  Q 350.39 239.67 345.70 245.19
  Q 344.90 246.14 343.78 248.30
  A 0.75 0.75 0.0 0 1 342.58 248.47
  C 339.79 245.64 331.60 237.56 331.59 234.46
  A 0.43 0.42 87.1 0 1 331.97 234.03
  Q 332.10 234.01 332.24 234.02
  C 336.94 236.92 340.96 236.16 346.19 236.27
  Q 346.85 236.28 349.25 235.65
  Q 351.62 235.02 353.16 233.72
  A 1.42 1.39 21.1 0 1 353.90 233.40
  Q 356.28 233.10 357.74 233.89
  A 1.34 1.33 34.7 0 0 359.39 233.60
  C 366.36 225.64 373.55 215.94 380.64 208.76
  C 383.26 206.12 384.75 203.32 386.34 201.08
  A 5.86 5.34 87.3 0 1 387.01 200.27
  L 390.91 196.46
  A 0.61 0.38 -84.8 0 0 391.00 196.34
  Q 394.20 191.58 397.63 189.06
  A 3.06 3.02 -3.9 0 0 398.48 188.10
  C 400.03 185.34 404.01 183.52 404.18 180.02
  C 407.54 176.42 410.56 172.49 414.01 169.05
  Q 418.24 164.81 421.82 160.08
  C 428.61 151.12 436.79 143.33 443.89 134.10
  C 446.75 130.38 450.71 126.51 453.25 123.50
  Q 475.33 97.42 498.84 70.54
  Q 498.93 70.43 504.71 63.07
  Q 507.90 58.99 512.00 55.70
  Z"
/>
<path fill="#212028" d="
  M 157.97 61.90
  Q 155.40 59.95 153.64 57.25
  Q 156.18 59.21 157.97 61.90
  Z"
/>
<path fill="#212028" d="
  M 159.20 63.05
  Q 158.75 63.00 158.71 62.53
  Q 159.04 62.71 159.20 63.05
  Z"
/>
<path fill="#212028" d="
  M 160.04 63.96
  Q 159.28 63.86 159.20 63.05
  Q 159.78 63.35 160.04 63.96
  Z"
/>
<path fill="#212028" d="
  M 163.23 67.29
  Q 161.40 66.09 160.15 64.19
  L 163.23 67.29
  Z"
/>
<path fill="#212028" d="
  M 170.97 75.79
  Q 170.54 75.76 170.44 75.29
  Q 170.77 75.43 170.97 75.79
  Z"
/>
<path fill="#212028" d="
  M 174.19 79.30
  Q 173.39 78.98 173.22 78.27
  Q 173.82 78.70 174.19 79.30
  Z"
/>
<path fill="#212028" d="
  M 184.33 89.78
  Q 180.65 87.88 178.62 84.23
  L 184.33 89.78
  Z"
/>
<path fill="#212028" d="
  M 256.93 167.50
  L 267.39 179.11
  Q 270.04 179.46 269.25 181.57
  Q 270.03 183.15 271.77 184.50
  L 281.96 194.72
  L 283.11 196.02
  L 285.05 198.57
  Q 285.83 201.87 287.54 201.70
  Q 290.48 204.51 293.03 207.73
  Q 294.60 209.73 296.77 209.44
  L 298.78 210.85
  A 0.61 0.60 -32.8 0 0 299.27 210.95
  Q 299.62 210.87 300.00 211.09
  A 0.17 0.17 0.0 0 1 299.91 211.41
  L 299.15 211.41
  A 1.09 1.09 0.0 0 0 298.28 213.15
  C 300.36 216.00 302.92 218.33 305.04 221.26
  C 307.78 225.05 310.71 228.70 314.41 230.96
  A 2.77 2.74 -89.7 0 1 315.39 231.96
  L 316.21 233.37
  A 1.24 1.24 0.0 0 0 317.01 233.96
  Q 319.09 234.39 319.65 232.34
  A 0.67 0.67 0.0 0 1 320.71 232.00
  L 324.43 235.05
  L 325.29 235.41
  A 0.73 0.73 0.0 0 1 325.67 236.37
  Q 323.54 241.18 319.60 243.86
  Q 316.30 237.59 311.25 232.85
  Q 307.41 229.27 305.85 227.36
  Q 301.57 222.17 297.15 217.30
  Q 291.85 211.47 291.08 210.77
  Q 288.39 208.29 285.01 204.19
  Q 279.68 197.72 270.20 188.68
  C 267.13 185.75 264.50 181.16 261.51 178.21
  C 258.68 175.41 256.70 172.73 253.06 169.56
  Q 249.49 166.45 244.47 160.03
  Q 241.57 156.31 235.83 150.91
  Q 232.21 147.51 230.90 145.94
  C 229.01 143.67 226.43 141.16 224.24 138.16
  Q 221.27 134.08 218.25 131.37
  Q 213.83 127.39 211.91 125.12
  C 207.67 120.10 204.24 115.61 199.84 111.13
  Q 196.61 107.83 193.40 104.52
  Q 194.73 103.70 195.49 102.48
  C 199.80 106.96 204.47 111.41 208.27 115.95
  Q 213.90 122.67 217.57 126.19
  Q 223.35 131.71 226.94 135.87
  Q 231.65 141.33 236.07 145.68
  C 241.53 151.05 243.01 152.33 246.94 157.45
  Q 249.46 160.75 253.99 165.76
  Q 255.26 167.16 256.93 167.50
  Z"
/>
<path fill="#212028" d="
  M 366.20 173.52
  Q 361.44 174.74 356.64 173.98
  A 0.80 0.80 0.0 0 0 355.72 174.80
  L 356.02 183.20
  A 0.53 0.53 0.0 0 1 355.46 183.75
  Q 347.30 183.27 343.45 183.36
  A 2.92 2.74 -79.7 0 1 340.91 179.42
  Q 341.30 178.38 340.70 176.38
  A 1.40 1.39 -33.3 0 1 340.98 175.05
  Q 341.60 174.33 343.01 173.71
  A 0.55 0.55 0.0 0 0 343.06 172.73
  L 342.52 172.41
  A 1.31 1.31 0.0 0 0 341.22 172.41
  L 339.75 173.26
  A 0.59 0.59 0.0 0 1 339.36 173.34
  L 333.92 172.66
  A 0.94 0.76 51.3 0 1 333.74 172.62
  Q 329.75 171.34 324.43 171.74
  A 0.74 0.74 0.0 0 0 323.74 172.48
  L 323.74 179.78
  A 0.89 0.88 0.0 0 1 322.85 180.66
  L 307.25 180.66
  A 0.52 0.52 0.0 0 1 306.76 179.97
  Q 308.22 175.80 306.15 172.40
  A 0.59 0.58 -56.8 0 0 305.07 172.63
  Q 304.75 174.82 304.84 177.92
  A 1.54 1.43 84.5 0 1 303.67 179.45
  Q 303.45 179.49 302.95 179.20
  L 304.03 168.32
  C 307.67 166.27 310.79 167.24 314.67 167.81
  A 1.42 1.41 -81.6 0 0 316.27 166.61
  Q 317.11 161.06 317.25 155.50
  C 317.32 152.52 321.11 148.47 323.61 152.37
  Q 324.63 153.98 324.59 156.26
  Q 324.46 163.85 324.59 166.80
  A 1.67 1.67 0.0 0 0 326.28 168.40
  Q 329.20 168.36 331.92 169.53
  A 7.89 7.87 56.6 0 0 335.03 170.17
  L 347.81 170.17
  A 0.84 0.84 0.0 0 0 348.65 169.32
  Q 348.62 165.94 348.92 159.70
  Q 349.06 156.78 350.67 155.65
  C 353.29 153.81 354.90 154.63 356.53 156.80
  C 357.57 158.19 357.04 164.11 356.99 169.21
  A 0.80 0.80 0.0 0 0 357.76 170.02
  L 362.87 170.25
  A 0.48 0.46 -32.0 0 1 363.06 170.29
  C 364.78 170.95 364.02 173.52 366.20 173.52
  Z
  M 322.4403 153.1830
  A 1.04 1.04 0.0 0 0 321.4542 152.0918
  L 321.3943 152.0887
  A 1.04 1.04 0.0 0 0 320.3030 153.0748
  L 319.5997 166.9570
  A 1.04 1.04 0.0 0 0 320.5858 168.0482
  L 320.6457 168.0513
  A 1.04 1.04 0.0 0 0 321.7370 167.0652
  L 322.4403 153.1830
  Z
  M 354.3779 156.8856
  A 1.09 1.09 0.0 0 0 353.3286 155.7564
  L 353.2486 155.7535
  A 1.09 1.09 0.0 0 0 352.1194 156.8028
  L 351.6621 169.2744
  A 1.09 1.09 0.0 0 0 352.7114 170.4036
  L 352.7914 170.4065
  A 1.09 1.09 0.0 0 0 353.9206 169.3572
  L 354.3779 156.8856
  Z
  M 349.3788 172.9077
  A 1.58 0.90 -11.4 0 0 347.6521 172.3378
  A 1.58 0.90 -11.4 0 0 346.2812 173.5323
  A 1.58 0.90 -11.4 0 0 348.0079 174.1022
  A 1.58 0.90 -11.4 0 0 349.3788 172.9077
  Z"
/>
<rect fill="#91919c" x="-1.07" y="-7.99" transform="translate(321.02,160.07) rotate(2.9)" width="2.14" height="15.98" rx="1.04"/>
<rect fill="#91919c" x="-1.13" y="-7.33" transform="translate(353.02,163.08) rotate(2.1)" width="2.26" height="14.66" rx="1.09"/>
<path fill="#91919c" d="
  M 226.82 170.84
  Q 226.20 171.54 228.02 172.43
  L 225.38 172.66
  A 1.01 1.00 -2.5 0 0 224.46 173.66
  L 224.46 177.81
  A 0.56 0.55 -88.4 0 0 224.98 178.37
  L 230.14 178.76
  Q 230.17 179.77 228.44 179.63
  A 1.02 1.01 21.6 0 0 227.55 180.01
  Q 226.48 181.33 226.30 183.22
  A 0.96 0.95 11.2 0 1 225.06 184.05
  L 221.73 183.02
  A 0.85 0.77 -38.4 0 0 221.42 183.00
  L 214.06 183.80
  A 1.51 1.50 -25.6 0 1 212.83 183.37
  L 210.47 181.00
  A 1.96 1.94 -68.0 0 1 209.89 179.61
  L 209.89 174.96
  A 0.69 0.69 0.0 0 1 210.49 174.28
  L 219.70 173.08
  A 0.57 0.57 0.0 0 0 219.84 171.98
  Q 217.16 170.90 214.52 170.92
  Q 213.08 170.94 209.12 171.87
  Q 205.25 172.79 201.27 172.83
  Q 200.79 171.29 201.16 170.14
  A 0.89 0.87 -85.3 0 1 201.84 169.55
  Q 206.16 168.84 211.71 167.64
  C 215.90 166.74 221.83 168.78 225.12 169.63
  Q 226.15 169.89 226.82 170.84
  Z
  M 217.1050 177.5064
  A 1.13 1.13 0.0 0 0 216.0009 176.3510
  L 215.0812 176.3301
  A 1.13 1.13 0.0 0 0 213.9258 177.4342
  L 213.8750 179.6736
  A 1.13 1.13 0.0 0 0 214.9791 180.8290
  L 215.8988 180.8499
  A 1.13 1.13 0.0 0 0 217.0542 179.7458
  L 217.1050 177.5064
  Z"
/>
<path fill="#ebe8b1" d="
  M 281.73 169.45
  L 280.51 171.94
  A 0.84 0.78 54.6 0 0 280.44 172.48
  L 281.64 178.09
  A 1.29 1.29 0.0 0 1 280.32 179.65
  L 267.39 179.11
  L 256.93 167.50
  L 281.73 169.45
  Z"
/>
<path fill="#91919c" d="
  M 304.03 168.32
  L 302.95 179.20
  L 302.66 183.25
  A 1.62 1.56 67.8 0 1 302.31 184.13
  Q 301.65 184.93 301.57 186.11
  A 0.55 0.55 0.0 0 0 302.29 186.66
  L 303.03 186.41
  A 0.39 0.39 0.0 0 1 303.49 186.97
  Q 303.20 187.48 301.42 189.00
  Q 301.09 189.27 301.24 190.01
  Q 301.43 190.93 302.11 191.26
  A 0.48 0.48 0.0 0 1 302.23 192.05
  L 301.24 192.95
  A 2.53 2.44 -10.2 0 0 300.69 193.71
  Q 300.52 194.14 296.22 206.48
  Q 295.48 208.61 296.77 209.44
  Q 294.60 209.73 293.03 207.73
  Q 290.48 204.51 287.54 201.70
  C 288.75 199.33 290.33 194.64 288.76 192.31
  A 0.76 0.75 -51.2 0 0 287.43 192.46
  L 285.05 198.57
  L 283.11 196.02
  Q 284.58 194.75 285.47 192.71
  Q 286.33 190.76 285.55 189.10
  A 0.78 0.78 0.0 0 0 284.11 189.15
  L 281.96 194.72
  L 271.77 184.50
  Q 272.75 183.20 273.15 181.88
  A 0.58 0.57 -71.1 0 0 272.82 181.18
  Q 270.71 180.33 269.25 181.57
  Q 270.04 179.46 267.39 179.11
  L 280.32 179.65
  A 1.29 1.29 0.0 0 0 281.64 178.09
  L 280.44 172.48
  A 0.84 0.78 54.6 0 1 280.51 171.94
  L 281.73 169.45
  L 290.63 168.09
  A 5.35 5.14 39.8 0 1 291.60 168.02
  L 304.03 168.32
  Z
  M 288.11 174.40
  L 288.07 171.50
  A 0.83 0.83 0.0 0 0 287.23 170.68
  L 285.60 170.70
  A 1.56 1.35 -0.7 0 0 284.06 172.06
  L 284.08 173.92
  A 1.56 1.35 -0.7 0 0 285.66 175.26
  L 287.29 175.24
  A 0.83 0.83 0.0 0 0 288.11 174.40
  Z
  M 275.71 181.91
  L 276.38 183.69
  A 0.52 0.52 0.0 0 0 277.05 183.99
  L 277.26 183.91
  A 2.48 1.37 -20.7 0 0 279.09 181.75
  L 279.02 181.57
  A 2.48 1.37 -20.7 0 0 276.22 181.16
  L 276.01 181.24
  A 0.52 0.52 0.0 0 0 275.71 181.91
  Z
  M 285.24 187.93
  C 286.08 185.96 288.24 187.02 288.71 184.42
  A 1.54 1.25 -82.5 0 0 287.62 182.64
  Q 286.83 182.58 285.60 183.08
  A 1.30 1.28 3.3 0 0 284.96 183.64
  L 283.21 186.66
  A 0.85 0.84 -60.1 0 0 283.52 187.82
  L 284.27 188.26
  A 0.69 0.69 0.0 0 0 285.24 187.93
  Z"
/>
<path fill="#ebe8b1" d="
  M 288.11 174.40
  A 0.83 0.83 0.0 0 1 287.29 175.24
  L 285.66 175.26
  A 1.56 1.35 -0.7 0 1 284.08 173.92
  L 284.06 172.06
  A 1.56 1.35 -0.7 0 1 285.60 170.70
  L 287.23 170.68
  A 0.83 0.83 0.0 0 1 288.07 171.50
  L 288.11 174.40
  Z"
/>
<path fill="#ebe8b1" d="
  M 366.20 173.52
  C 370.40 173.32 375.44 174.03 378.61 174.13
  C 387.27 174.40 391.84 174.41 395.79 175.07
  C 398.08 175.45 399.28 176.52 399.43 178.64
  A 1.41 1.40 -1.3 0 0 400.80 179.94
  L 404.18 180.02
  C 404.01 183.52 400.03 185.34 398.48 188.10
  A 3.06 3.02 -3.9 0 1 397.63 189.06
  Q 394.20 191.58 391.00 196.34
  A 0.61 0.38 -84.8 0 1 390.91 196.46
  L 387.01 200.27
  A 5.86 5.34 87.3 0 0 386.34 201.08
  C 384.75 203.32 383.26 206.12 380.64 208.76
  C 373.55 215.94 366.36 225.64 359.39 233.60
  A 1.34 1.33 34.7 0 1 357.74 233.89
  Q 356.28 233.10 353.90 233.40
  A 1.42 1.39 21.1 0 0 353.16 233.72
  Q 351.62 235.02 349.25 235.65
  Q 346.85 236.28 346.19 236.27
  C 340.96 236.16 336.94 236.92 332.24 234.02
  Q 332.13 233.77 331.96 233.62
  Q 331.80 233.47 331.49 233.46
  Q 327.34 233.26 324.43 235.05
  L 320.71 232.00
  A 0.67 0.67 0.0 0 0 319.65 232.34
  Q 319.09 234.39 317.01 233.96
  A 1.24 1.24 0.0 0 1 316.21 233.37
  L 315.39 231.96
  A 2.77 2.74 -89.7 0 0 314.41 230.96
  C 310.71 228.70 307.78 225.05 305.04 221.26
  C 302.92 218.33 300.36 216.00 298.28 213.15
  A 1.09 1.09 0.0 0 1 299.15 211.41
  L 299.91 211.41
  A 0.17 0.17 0.0 0 0 300.00 211.09
  Q 299.62 210.87 299.27 210.95
  A 0.61 0.60 -32.8 0 1 298.78 210.85
  L 296.77 209.44
  Q 295.48 208.61 296.22 206.48
  Q 300.52 194.14 300.69 193.71
  A 2.53 2.44 -10.2 0 1 301.24 192.95
  L 302.23 192.05
  A 0.48 0.48 0.0 0 0 302.11 191.26
  Q 301.43 190.93 301.24 190.01
  Q 301.09 189.27 301.42 189.00
  Q 303.20 187.48 303.49 186.97
  A 0.39 0.39 0.0 0 0 303.03 186.41
  L 302.29 186.66
  A 0.55 0.55 0.0 0 1 301.57 186.11
  Q 301.65 184.93 302.31 184.13
  A 1.62 1.56 67.8 0 0 302.66 183.25
  L 302.95 179.20
  Q 303.45 179.49 303.67 179.45
  A 1.54 1.43 84.5 0 0 304.84 177.92
  Q 304.75 174.82 305.07 172.63
  A 0.59 0.58 -56.8 0 1 306.15 172.40
  Q 308.22 175.80 306.76 179.97
  A 0.52 0.52 0.0 0 0 307.25 180.66
  L 322.85 180.66
  A 0.89 0.88 0.0 0 0 323.74 179.78
  L 323.74 172.48
  A 0.74 0.74 0.0 0 1 324.43 171.74
  Q 329.75 171.34 333.74 172.62
  A 0.94 0.76 51.3 0 0 333.92 172.66
  L 339.36 173.34
  A 0.59 0.59 0.0 0 0 339.75 173.26
  L 341.22 172.41
  A 1.31 1.31 0.0 0 1 342.52 172.41
  L 343.06 172.73
  A 0.55 0.55 0.0 0 1 343.01 173.71
  Q 341.60 174.33 340.98 175.05
  A 1.40 1.39 -33.3 0 0 340.70 176.38
  Q 341.30 178.38 340.91 179.42
  A 2.92 2.74 -79.7 0 0 343.45 183.36
  Q 347.30 183.27 355.46 183.75
  A 0.53 0.53 0.0 0 0 356.02 183.20
  L 355.72 174.80
  A 0.80 0.80 0.0 0 1 356.64 173.98
  Q 361.44 174.74 366.20 173.52
  Z
  M 299.21 202.63
  L 301.46 207.06
  A 0.12 0.12 0.0 0 0 301.62 207.11
  L 301.64 207.10
  A 2.49 1.77 63.1 0 0 302.10 204.07
  L 302.00 203.88
  A 2.49 1.77 63.1 0 0 299.29 202.46
  L 299.26 202.47
  A 0.12 0.12 0.0 0 0 299.21 202.63
  Z"
/>
<ellipse fill="#91919c" cx="0.00" cy="0.00" transform="translate(347.83,173.22) rotate(-11.4)" rx="1.58" ry="0.90"/>
<path fill="#fefcf7" d="
  M 228.02 172.43
  L 231.60 172.60
  A 0.58 0.58 0.0 0 1 232.15 173.18
  L 232.16 173.86
  A 0.59 0.58 -89.5 0 1 231.57 174.45
  Q 231.28 174.45 230.52 174.18
  A 0.90 0.88 -8.6 0 0 229.49 175.54
  Q 230.48 176.81 230.14 178.76
  L 224.98 178.37
  A 0.56 0.55 -88.4 0 1 224.46 177.81
  L 224.46 173.66
  A 1.01 1.00 -2.5 0 1 225.38 172.66
  L 228.02 172.43
  Z"
/>
<rect fill="#212028" x="-1.59" y="-2.25" transform="translate(215.49,178.59) rotate(1.3)" width="3.18" height="4.50" rx="1.13"/>
<path fill="#91919c" d="
  M 413.36 179.23
  Q 415.38 180.15 413.79 184.33
  Q 412.16 183.35 410.19 183.30
  A 0.55 0.55 0.0 0 1 409.84 182.34
  L 413.36 179.23
  Z"
/>
<path fill="#ebe8b1" d="
  M 271.77 184.50
  Q 270.03 183.15 269.25 181.57
  Q 270.71 180.33 272.82 181.18
  A 0.58 0.57 -71.1 0 1 273.15 181.88
  Q 272.75 183.20 271.77 184.50
  Z"
/>
<path fill="#ebe8b1" d="
  M 275.71 181.91
  A 0.52 0.52 0.0 0 1 276.01 181.24
  L 276.22 181.16
  A 2.48 1.37 -20.7 0 1 279.02 181.57
  L 279.09 181.75
  A 2.48 1.37 -20.7 0 1 277.26 183.91
  L 277.05 183.99
  A 0.52 0.52 0.0 0 1 276.38 183.69
  L 275.71 181.91
  Z"
/>
<path fill="#ebe8b1" d="
  M 288.71 184.42
  C 288.24 187.02 286.08 185.96 285.24 187.93
  A 0.69 0.69 0.0 0 1 284.27 188.26
  L 283.52 187.82
  A 0.85 0.84 -60.1 0 1 283.21 186.66
  L 284.96 183.64
  A 1.30 1.28 3.3 0 1 285.60 183.08
  Q 286.83 182.58 287.62 182.64
  A 1.54 1.25 -82.5 0 1 288.71 184.42
  Z"
/>
<path fill="#91919c" d="
  M 236.84 189.69
  C 237.30 191.89 233.92 192.51 232.58 191.74
  A 2.17 1.74 37.6 0 1 231.82 188.61
  Q 232.86 187.74 231.57 185.54
  A 0.61 0.61 0.0 0 1 232.43 184.72
  Q 233.64 185.52 234.10 186.17
  A 1.13 1.10 -14.6 0 0 234.94 186.65
  L 237.13 186.83
  A 0.85 0.85 0.0 0 1 237.91 187.61
  Q 238.03 189.31 237.21 189.27
  A 0.35 0.35 0.0 0 0 236.84 189.69
  Z
  M 233.5266 188.5746
  A 1.20 0.74 -174.0 0 0 234.6426 189.4359
  A 1.20 0.74 -174.0 0 0 235.9134 188.8254
  A 1.20 0.74 -174.0 0 0 234.7974 187.9641
  A 1.20 0.74 -174.0 0 0 233.5266 188.5746
  Z"
/>
<ellipse fill="#ebe8b1" cx="0.00" cy="0.00" transform="translate(234.72,188.70) rotate(-174.0)" rx="1.20" ry="0.74"/>
<path fill="#ebe8b1" d="
  M 283.11 196.02
  L 281.96 194.72
  L 284.11 189.15
  A 0.78 0.78 0.0 0 1 285.55 189.10
  Q 286.33 190.76 285.47 192.71
  Q 284.58 194.75 283.11 196.02
  Z"
/>
<path fill="#ebe8b1" d="
  M 287.54 201.70
  Q 285.83 201.87 285.05 198.57
  L 287.43 192.46
  A 0.76 0.75 -51.2 0 1 288.76 192.31
  C 290.33 194.64 288.75 199.33 287.54 201.70
  Z"
/>
<path fill="#fefcf7" d="
  M 399.06 195.78
  Q 400.12 204.45 400.36 212.27
  Q 400.55 218.33 400.98 223.70
  Q 401.43 229.45 401.49 235.14
  Q 401.11 238.30 401.37 244.24
  Q 402.16 262.48 403.12 272.31
  L 403.35 278.01
  Q 403.06 278.95 403.33 278.55
  Q 402.02 283.39 403.54 285.40
  Q 404.07 289.71 403.99 292.75
  Q 403.53 310.25 403.76 327.75
  Q 403.78 329.42 404.29 332.00
  Q 404.08 332.13 403.94 332.33
  Q 402.67 331.55 401.99 330.19
  A 1.55 1.48 1.3 0 0 401.32 329.52
  Q 396.97 327.30 395.48 323.02
  Q 395.40 318.51 393.67 315.56
  A 2.26 1.90 -73.7 0 1 393.45 315.06
  Q 392.80 312.84 392.82 310.51
  Q 392.87 303.97 392.71 298.45
  C 392.66 296.53 393.53 293.10 392.62 291.56
  A 1.67 1.59 31.9 0 1 392.40 290.71
  Q 392.49 287.72 391.72 282.91
  C 390.84 277.43 391.01 271.97 391.06 266.49
  C 391.10 262.58 390.62 260.17 390.19 255.37
  Q 390.19 255.31 390.19 255.24
  L 390.57 247.80
  A 0.95 0.73 64.2 0 1 390.61 247.61
  Q 392.10 243.05 395.51 240.99
  A 0.35 0.34 -32.8 0 0 395.62 240.50
  L 395.58 240.44
  A 0.33 0.31 -34.9 0 0 395.13 240.37
  Q 393.45 241.60 391.71 241.89
  A 1.25 1.25 0.0 0 1 390.46 239.97
  Q 391.44 238.48 391.65 236.32
  A 0.32 0.32 0.0 0 0 391.11 236.06
  Q 390.58 236.56 390.04 235.93
  A 0.61 0.59 21.4 0 1 389.88 235.58
  L 389.18 229.71
  A 2.85 2.43 -48.6 0 1 389.19 229.10
  Q 389.71 225.36 389.55 221.58
  A 0.99 0.98 -19.4 0 1 389.95 220.75
  L 390.99 219.98
  A 0.45 0.45 0.0 0 0 390.89 219.20
  Q 389.90 218.78 389.79 217.75
  A 0.89 0.86 -19.1 0 1 390.20 216.93
  Q 391.40 216.18 392.55 214.68
  A 0.30 0.30 0.0 0 0 392.33 214.19
  L 390.19 214.01
  A 0.65 0.65 0.0 0 1 389.59 213.31
  L 389.93 209.23
  A 2.87 2.86 -25.6 0 1 390.42 207.84
  L 396.08 199.61
  Q 397.58 199.58 399.06 195.78
  Z
  M 395.51 207.77
  Q 394.93 208.43 395.61 208.93
  Q 397.59 210.38 397.98 209.93
  Q 398.38 209.47 396.67 207.71
  Q 396.09 207.11 395.51 207.77
  Z
  M 399.27 231.98
  Q 396.23 229.23 392.84 232.11
  A 0.36 0.36 0.0 0 0 392.97 232.73
  C 395.20 233.39 397.75 235.48 399.40 232.90
  A 0.73 0.72 -53.5 0 0 399.27 231.98
  Z
  M 392.12 252.02
  Q 391.87 253.22 393.00 254.00
  A 0.34 0.34 0.0 0 0 393.53 253.78
  Q 393.73 252.65 393.79 252.36
  Q 393.85 252.06 394.11 250.94
  A 0.34 0.34 0.0 0 0 393.71 250.53
  Q 392.36 250.82 392.12 252.02
  Z"
/>
<path fill="#ebe8b1" d="
  M 396.08 199.61
  L 390.42 207.84
  A 2.87 2.86 -25.6 0 0 389.93 209.23
  L 389.59 213.31
  A 0.65 0.65 0.0 0 0 390.19 214.01
  L 392.33 214.19
  A 0.30 0.30 0.0 0 1 392.55 214.68
  Q 391.40 216.18 390.20 216.93
  A 0.89 0.86 -19.1 0 0 389.79 217.75
  Q 389.90 218.78 390.89 219.20
  A 0.45 0.45 0.0 0 1 390.99 219.98
  L 389.95 220.75
  A 0.99 0.98 -19.4 0 0 389.55 221.58
  Q 389.71 225.36 389.19 229.10
  A 2.85 2.43 -48.6 0 0 389.18 229.71
  L 389.88 235.58
  A 0.61 0.59 21.4 0 0 390.04 235.93
  Q 390.58 236.56 391.11 236.06
  A 0.32 0.32 0.0 0 1 391.65 236.32
  Q 391.44 238.48 390.46 239.97
  A 1.25 1.25 0.0 0 0 391.71 241.89
  Q 393.45 241.60 395.13 240.37
  A 0.33 0.31 -34.9 0 1 395.58 240.44
  L 395.62 240.50
  A 0.35 0.34 -32.8 0 1 395.51 240.99
  Q 392.10 243.05 390.61 247.61
  A 0.95 0.73 64.2 0 0 390.57 247.80
  L 390.19 255.24
  Q 390.19 255.31 390.19 255.37
  C 390.62 260.17 391.10 262.58 391.06 266.49
  C 391.01 271.97 390.84 277.43 391.72 282.91
  Q 392.49 287.72 392.40 290.71
  A 1.67 1.59 31.9 0 0 392.62 291.56
  C 393.53 293.10 392.66 296.53 392.71 298.45
  Q 392.87 303.97 392.82 310.51
  Q 392.80 312.84 393.45 315.06
  A 2.26 1.90 -73.7 0 0 393.67 315.56
  Q 395.40 318.51 395.48 323.02
  Q 390.87 318.24 386.99 313.76
  Q 377.93 303.33 369.04 292.91
  C 367.49 291.09 366.08 290.02 364.45 288.71
  A 1.52 1.51 -58.0 0 1 364.03 286.87
  C 364.70 285.47 366.16 283.47 364.61 281.98
  Q 364.18 282.03 363.59 280.71
  L 365.58 277.74
  A 1.13 1.12 -44.8 0 0 365.59 276.52
  L 362.76 272.11
  A 0.91 0.57 17.9 0 0 362.60 271.92
  L 357.48 267.36
  Q 357.56 266.07 358.02 265.34
  L 357.75 258.74
  L 357.41 256.43
  L 365.08 247.18
  Q 371.03 246.26 373.00 246.43
  Q 377.24 246.80 381.74 246.22
  Q 382.76 246.09 382.82 245.33
  A 0.53 0.53 0.0 0 1 383.39 244.84
  Q 383.97 244.89 385.14 244.24
  A 1.76 1.62 41.2 0 0 384.81 241.23
  Q 384.07 240.90 383.72 240.18
  A 2.25 2.23 76.3 0 0 381.64 238.90
  Q 376.18 239.06 373.47 238.23
  C 371.18 237.53 369.81 238.31 367.39 238.03
  A 1.06 1.04 -10.8 0 1 366.58 237.49
  Q 365.64 235.78 364.62 235.74
  Q 366.66 232.35 369.59 229.51
  Q 373.56 225.67 374.35 224.47
  Q 376.04 221.91 378.17 219.72
  Q 379.23 218.64 381.92 214.93
  Q 388.08 206.47 396.08 199.61
  Z"
/>
<path fill="#91919c" d="
  M 299.21 202.63
  A 0.12 0.12 0.0 0 1 299.26 202.47
  L 299.29 202.46
  A 2.49 1.77 63.1 0 1 302.00 203.88
  L 302.10 204.07
  A 2.49 1.77 63.1 0 1 301.64 207.10
  L 301.62 207.11
  A 0.12 0.12 0.0 0 1 301.46 207.06
  L 299.21 202.63
  Z"
/>
<path fill="#91919c" d="
  M 294.68 218.96
  Q 294.66 218.97 294.51 218.97
  A 0.78 0.78 0.0 0 0 293.79 219.45
  C 292.49 222.51 291.38 223.74 287.97 222.04
  Q 284.72 220.41 282.05 222.72
  A 0.95 0.95 0.0 0 0 282.00 224.12
  Q 283.72 225.80 282.72 226.82
  A 0.87 0.87 0.0 0 1 281.40 226.73
  L 280.54 225.56
  A 0.40 0.40 0.0 0 0 279.89 225.56
  Q 279.31 226.35 279.97 227.05
  A 0.56 0.56 0.0 0 1 279.83 227.93
  Q 279.21 228.28 278.37 227.92
  A 0.60 0.60 0.0 0 1 278.01 227.28
  L 278.26 225.55
  A 0.94 0.92 -52.5 0 0 278.20 225.05
  Q 276.84 221.69 273.21 219.58
  A 1.89 1.89 0.0 0 0 272.01 219.35
  C 270.48 219.56 269.03 220.04 268.06 219.03
  A 0.95 0.91 82.2 0 1 269.14 217.54
  Q 270.36 218.28 272.31 218.12
  A 0.62 0.62 0.0 0 0 272.78 217.85
  Q 273.16 217.32 272.54 216.80
  A 0.27 0.26 -28.3 0 1 272.68 216.34
  Q 273.20 216.26 273.12 215.79
  Q 273.05 215.35 272.75 215.19
  Q 270.73 214.13 270.58 211.12
  A 1.39 1.38 77.6 0 1 271.43 209.78
  Q 275.56 208.07 276.44 204.87
  A 1.71 1.70 24.0 0 1 279.01 203.89
  Q 280.20 204.65 281.71 204.91
  Q 283.35 205.18 285.67 208.03
  A 1.99 1.69 18.5 0 1 285.90 208.41
  Q 288.22 214.01 293.16 216.27
  A 1.44 1.41 -4.8 0 1 293.73 216.74
  L 294.91 218.36
  A 0.38 0.38 0.0 0 1 294.68 218.96
  Z
  M 278.98 211.70
  A 2.04 2.04 0.0 0 0 276.94 209.66
  A 2.04 2.04 0.0 0 0 274.90 211.70
  A 2.04 2.04 0.0 0 0 276.94 213.74
  A 2.04 2.04 0.0 0 0 278.98 211.70
  Z"
/>
<path fill="#ebe8b1" d="
  M 397.98 209.93
  Q 397.59 210.38 395.61 208.93
  Q 394.93 208.43 395.51 207.77
  Q 396.09 207.11 396.67 207.71
  Q 398.38 209.47 397.98 209.93
  Z"
/>
<circle fill="#212028" cx="276.94" cy="211.70" r="2.04"/>
<path fill="#91919c" d="
  M 194.29 225.60
  Q 195.06 226.51 196.52 226.52
  A 0.65 0.65 0.0 0 1 196.93 227.67
  Q 196.04 228.41 194.65 228.72
  A 1.55 1.48 -13.4 0 1 192.83 227.66
  Q 192.29 225.63 193.10 225.20
  A 1.96 1.65 51.7 0 0 193.19 222.29
  Q 191.37 220.51 190.87 220.11
  A 1.79 1.75 13.0 0 1 190.23 219.11
  Q 189.89 217.67 188.78 216.95
  A 0.98 0.97 33.3 0 1 188.49 215.60
  Q 189.27 214.40 190.84 213.60
  A 0.77 0.76 -7.6 0 1 191.94 214.44
  Q 191.72 215.45 191.32 216.03
  A 2.83 2.82 34.7 0 0 192.03 219.91
  Q 192.40 220.17 195.29 222.58
  A 1.21 1.07 62.5 0 1 194.77 224.67
  Q 194.69 224.67 194.37 224.90
  A 0.48 0.47 52.0 0 0 194.29 225.60
  Z"
/>
<ellipse fill="#91919c" cx="0.00" cy="0.00" transform="translate(248.50,219.37) rotate(-99.5)" rx="1.66" ry="0.84"/>
<path fill="#174ded" d="
  M 136.09 287.47
  L 135.93 274.29
  L 135.95 272.78
  L 135.84 256.23
  L 136.53 249.09
  A 1.18 1.08 42.3 0 0 136.49 248.67
  Q 135.86 246.09 136.13 243.52
  A 1.56 1.53 -23.0 0 1 136.46 242.73
  L 136.75 242.38
  A 0.74 0.73 43.4 0 0 136.72 241.42
  Q 134.95 239.48 136.01 236.39
  A 1.24 1.23 5.7 0 1 137.02 235.57
  L 175.36 230.55
  A 1.29 1.28 85.6 0 1 176.81 231.80
  L 176.86 235.10
  A 0.24 0.23 2.7 0 0 177.08 235.33
  L 177.09 235.33
  A 0.20 0.20 0.0 0 0 177.32 235.13
  L 177.40 231.63
  A 1.62 1.62 0.0 0 1 178.99 230.05
  Q 186.71 229.92 189.07 229.56
  Q 192.70 229.01 196.08 229.13
  C 200.31 229.29 205.14 226.90 209.75 227.52
  A 1.74 1.73 -53.2 0 0 210.71 227.38
  C 212.88 226.37 216.08 226.34 220.90 225.88
  C 224.95 225.50 229.34 224.47 233.24 224.60
  Q 233.28 224.60 233.31 224.60
  L 243.62 222.91
  A 2.00 1.96 -34.3 0 1 244.91 223.14
  L 245.41 223.43
  A 0.70 0.69 -50.9 0 0 246.23 223.34
  Q 246.83 222.80 248.28 222.56
  Q 251.77 221.98 256.17 221.73
  A 0.60 0.59 -9.6 0 1 256.78 222.16
  C 257.61 225.06 256.26 227.34 256.87 230.07
  Q 257.67 233.64 256.78 236.26
  A 1.65 1.65 0.0 0 0 256.78 237.32
  Q 257.68 240.02 257.28 242.71
  A 0.71 0.70 -10.7 0 1 256.93 243.22
  L 256.63 243.40
  A 0.07 0.07 0.0 0 0 256.60 243.49
  Q 258.15 246.80 257.34 250.44
  A 2.19 2.19 0.0 0 0 257.38 251.49
  C 257.92 253.34 257.13 254.55 257.51 256.15
  Q 257.80 257.41 257.47 258.13
  A 0.80 0.79 -53.0 0 0 257.59 258.99
  Q 258.19 259.67 258.09 261.01
  Q 257.93 263.34 257.98 265.01
  A 1.12 1.12 0.0 0 1 257.51 265.96
  Q 257.46 266.00 257.37 266.05
  A 0.47 0.47 0.0 0 0 257.40 266.87
  Q 257.41 266.88 257.64 266.97
  A 1.31 1.30 11.7 0 1 258.46 268.21
  L 258.11 286.90
  A 0.40 0.39 25.9 0 0 258.20 287.15
  Q 258.48 287.45 258.49 287.76
  Q 258.87 296.30 258.69 299.20
  A 4.64 4.55 39.9 0 0 258.84 300.70
  L 259.44 302.91
  A 0.47 0.46 80.6 0 1 259.03 303.49
  L 239.28 304.92
  A 1.25 1.24 -2.2 0 0 238.13 306.16
  L 238.13 309.07
  A 1.12 1.09 -60.2 0 0 238.27 309.61
  Q 238.85 310.58 238.59 312.27
  A 0.30 0.30 0.0 0 1 238.35 312.52
  L 237.84 312.63
  A 0.25 0.25 0.0 0 1 237.54 312.34
  Q 238.15 308.40 235.98 304.13
  A 0.33 0.33 0.0 0 0 235.39 304.13
  Q 234.91 305.08 233.26 305.27
  Q 229.43 305.72 224.71 305.56
  A 6.31 5.92 39.7 0 0 223.72 305.62
  Q 219.87 306.17 214.74 306.56
  Q 213.56 306.65 213.08 306.17
  A 0.61 0.60 -45.3 0 0 212.22 306.18
  L 211.99 306.41
  A 0.98 0.94 -67.6 0 1 211.38 306.68
  Q 195.53 307.45 191.65 307.93
  Q 190.55 308.06 189.91 307.65
  Q 189.36 307.29 188.78 307.88
  Q 188.39 308.26 187.66 308.26
  Q 181.83 308.28 176.60 308.70
  Q 171.77 309.08 165.53 309.28
  Q 160.81 309.44 150.22 309.70
  C 148.63 309.74 146.99 309.04 145.73 309.73
  A 0.12 0.09 -54.2 0 1 145.67 309.75
  L 138.96 309.99
  A 2.01 2.00 3.1 0 1 136.90 307.70
  L 137.07 306.55
  A 2.30 2.29 7.4 0 1 139.60 304.60
  Q 142.72 304.96 143.96 304.60
  A 0.34 0.34 0.0 0 0 143.87 303.94
  L 139.00 303.94
  A 1.88 1.87 -0.0 0 1 137.12 302.07
  L 137.12 299.79
  A 2.26 2.25 -3.8 0 1 139.08 297.56
  L 145.69 296.70
  A 1.23 1.22 -85.0 0 1 147.02 298.29
  Q 146.71 299.24 147.01 301.13
  A 0.22 0.21 54.9 0 0 147.41 301.20
  Q 147.44 301.14 147.34 297.65
  A 1.05 1.02 -25.2 0 1 147.61 296.93
  Q 147.82 296.70 147.89 296.54
  Q 147.92 296.47 147.75 296.14
  Q 147.42 295.50 146.58 296.05
  A 2.16 2.11 28.6 0 1 145.34 296.40
  Q 141.87 296.26 139.44 297.08
  A 1.25 1.25 0.0 0 1 138.47 297.01
  C 136.25 295.87 136.97 292.19 137.71 290.39
  A 1.70 1.68 -50.3 0 0 137.58 288.85
  Q 136.66 287.41 136.09 287.47
  Z"
/>
<path fill="#91919c" d="
  M 399.40 232.90
  C 397.75 235.48 395.20 233.39 392.97 232.73
  A 0.36 0.36 0.0 0 1 392.84 232.11
  Q 396.23 229.23 399.27 231.98
  A 0.73 0.72 -53.5 0 1 399.40 232.90
  Z"
/>
<path fill="#91919c" d="
  M 309.49 234.85
  L 314.27 239.00
  A 1.27 1.27 0.0 0 1 313.76 241.18
  Q 312.44 241.52 311.40 243.21
  A 1.28 1.23 6.6 0 1 310.67 243.77
  Q 306.13 245.01 300.74 243.53
  C 297.58 242.66 292.03 244.25 288.21 243.72
  Q 283.25 243.04 279.30 243.85
  A 0.16 0.16 0.0 0 1 279.22 243.85
  L 267.83 242.92
  A 2.92 2.91 4.7 0 1 265.16 239.78
  L 265.53 235.24
  A 0.67 0.67 0.0 0 1 266.05 234.64
  C 270.92 233.49 274.94 234.45 279.82 234.93
  Q 289.45 235.88 297.92 235.67
  Q 300.54 235.61 301.25 235.26
  A 2.31 2.27 38.0 0 1 302.76 235.09
  Q 304.73 235.54 308.28 235.36
  Q 309.10 235.32 309.27 234.90
  A 0.14 0.14 0.0 0 1 309.49 234.85
  Z
  M 273.89 238.96
  A 1.81 1.81 0.0 0 0 272.08 237.15
  A 1.81 1.81 0.0 0 0 270.27 238.96
  A 1.81 1.81 0.0 0 0 272.08 240.77
  A 1.81 1.81 0.0 0 0 273.89 238.96
  Z
  M 305.59 240.03
  A 1.91 1.91 0.0 0 0 303.68 238.12
  A 1.91 1.91 0.0 0 0 301.77 240.03
  A 1.91 1.91 0.0 0 0 303.68 241.94
  A 1.91 1.91 0.0 0 0 305.59 240.03
  Z"
/>
<path fill="#91919c" d="
  M 332.24 234.02
  Q 332.10 234.01 331.97 234.03
  A 0.43 0.42 87.1 0 0 331.59 234.46
  C 331.60 237.56 339.79 245.64 342.58 248.47
  A 0.75 0.75 0.0 0 0 343.78 248.30
  Q 344.90 246.14 345.70 245.19
  Q 350.39 239.67 354.08 234.90
  A 1.18 1.18 0.0 0 1 355.73 234.69
  Q 359.76 237.87 362.78 242.49
  Q 363.04 242.89 363.27 243.00
  A 0.83 0.72 -80.7 0 0 364.31 242.14
  C 364.16 240.06 362.37 237.06 364.62 235.74
  Q 365.64 235.78 366.58 237.49
  A 1.06 1.04 -10.8 0 0 367.39 238.03
  C 369.81 238.31 371.18 237.53 373.47 238.23
  Q 376.18 239.06 381.64 238.90
  A 2.25 2.23 76.3 0 1 383.72 240.18
  Q 384.07 240.90 384.81 241.23
  A 1.76 1.62 41.2 0 1 385.14 244.24
  Q 383.97 244.89 383.39 244.84
  A 0.53 0.53 0.0 0 0 382.82 245.33
  Q 382.76 246.09 381.74 246.22
  Q 377.24 246.80 373.00 246.43
  Q 371.03 246.26 365.08 247.18
  L 360.92 242.61
  A 0.50 0.50 0.0 0 0 360.10 243.17
  Q 361.58 246.11 359.05 248.39
  Q 355.05 251.98 352.25 255.99
  A 1.51 1.50 39.9 0 1 349.96 256.19
  L 345.61 251.86
  A 2.01 1.94 17.4 0 1 345.07 250.87
  Q 345.06 250.74 345.07 250.63
  A 0.53 0.53 0.0 0 0 344.37 250.06
  L 343.74 250.29
  A 0.39 0.38 64.2 0 0 343.55 250.85
  L 345.41 253.96
  A 7.31 6.90 9.6 0 0 346.27 255.10
  L 351.80 261.10
  A 0.91 0.90 -50.5 0 0 353.24 260.96
  Q 354.80 258.42 357.41 256.43
  L 357.75 258.74
  Q 356.46 259.46 355.66 260.55
  Q 354.73 261.82 355.31 263.10
  Q 356.01 264.61 358.02 265.34
  Q 357.56 266.07 357.48 267.36
  L 353.30 262.93
  A 1.22 1.21 43.9 0 0 351.50 262.96
  L 344.57 270.93
  A 1.49 1.49 0.0 0 0 344.35 272.56
  L 344.51 272.87
  A 0.61 0.61 0.0 0 0 345.55 272.97
  Q 347.74 270.05 350.10 268.72
  A 2.77 1.84 57.4 0 1 353.03 270.01
  Q 353.67 270.95 354.57 271.35
  A 1.65 1.64 -5.0 0 1 355.25 271.92
  Q 356.82 274.23 357.00 274.50
  Q 357.74 275.60 359.12 276.50
  Q 360.94 277.69 362.53 281.22
  A 0.29 0.29 0.0 0 0 362.81 281.39
  Q 363.26 281.35 363.59 280.71
  Q 364.18 282.03 364.61 281.98
  Q 361.86 285.46 358.72 288.49
  Q 356.70 290.44 354.88 288.33
  Q 350.04 282.72 345.62 277.51
  Q 345.44 277.29 345.01 276.43
  Q 344.67 275.74 344.22 275.51
  Q 343.50 275.15 342.83 275.88
  Q 339.09 279.99 332.07 288.65
  A 2.00 2.00 0.0 0 1 329.14 288.84
  Q 326.50 286.33 324.75 283.07
  A 3.60 3.53 -83.5 0 0 324.01 282.12
  C 320.91 279.29 318.58 277.07 314.99 280.00
  A 1.35 1.33 -17.4 0 0 314.50 280.92
  L 314.33 282.99
  A 0.73 0.72 -83.0 0 0 314.93 283.76
  Q 315.91 283.91 316.48 284.30
  A 0.75 0.75 0.0 0 1 316.74 285.20
  Q 315.88 287.24 313.59 286.50
  Q 311.07 284.48 313.19 281.91
  A 1.14 1.12 55.9 0 0 313.39 280.83
  C 312.78 279.01 310.17 278.60 310.47 276.53
  Q 310.77 277.33 311.52 277.38
  Q 312.21 277.42 312.83 276.84
  Q 313.88 275.84 315.10 275.84
  A 1.17 1.15 23.6 0 0 315.88 275.54
  L 318.59 273.12
  A 0.81 0.80 -67.1 0 1 319.05 272.93
  Q 320.47 272.80 322.05 271.15
  A 0.15 0.13 20.8 0 1 322.15 271.11
  L 322.67 271.15
  A 0.62 0.62 0.0 0 0 323.19 270.95
  L 330.82 262.17
  A 1.09 1.08 -50.9 0 0 330.66 260.59
  Q 328.00 258.59 326.22 255.96
  Q 322.92 251.06 318.46 247.11
  A 1.17 1.16 19.5 0 1 318.06 246.28
  Q 317.99 244.86 319.60 243.86
  Q 323.54 241.18 325.67 236.37
  A 0.73 0.73 0.0 0 0 325.29 235.41
  L 324.43 235.05
  Q 327.34 233.26 331.49 233.46
  Q 331.80 233.47 331.96 233.62
  Q 332.13 233.77 332.24 234.02
  Z
  M 342.20 250.34
  L 329.64 236.24
  A 1.13 1.13 0.0 0 0 328.04 236.15
  C 326.71 237.35 324.90 239.86 327.22 241.31
  Q 328.15 241.89 329.24 244.00
  A 1.53 1.32 -85.9 0 0 329.48 244.32
  L 336.25 251.09
  A 1.38 1.37 -52.3 0 1 336.46 252.76
  C 335.48 254.41 333.34 257.47 331.70 257.43
  A 0.80 0.80 0.0 0 0 331.00 258.63
  Q 332.28 260.85 333.79 260.61
  A 1.09 1.08 -77.8 0 0 334.56 260.11
  C 334.82 259.72 334.79 259.20 335.22 258.78
  Q 336.46 257.60 342.20 250.86
  A 0.39 0.39 0.0 0 0 342.20 250.34
  Z
  M 343.60 258.92
  Q 345.07 258.45 344.60 255.69
  Q 344.44 254.74 343.77 254.41
  Q 343.00 254.04 342.14 254.31
  Q 341.27 254.59 340.87 255.33
  Q 340.50 255.99 340.92 256.86
  Q 342.14 259.38 343.60 258.92
  Z
  M 337.1400 258.6919
  A 2.65 2.17 -98.9 0 0 335.4061 261.6457
  A 2.65 2.17 -98.9 0 0 337.9600 263.9281
  A 2.65 2.17 -98.9 0 0 339.6939 260.9743
  A 2.65 2.17 -98.9 0 0 337.1400 258.6919
  Z
  M 347.9374 259.5774
  A 2.51 1.92 -94.4 0 0 346.2157 262.2273
  A 2.51 1.92 -94.4 0 0 348.3226 264.5826
  A 2.51 1.92 -94.4 0 0 350.0443 261.9327
  A 2.51 1.92 -94.4 0 0 347.9374 259.5774
  Z
  M 329.93 281.63
  Q 329.72 282.15 329.11 282.50
  A 1.90 1.71 -30.4 0 0 328.32 284.99
  Q 328.92 285.95 329.53 286.96
  A 1.20 1.20 0.0 0 0 331.47 287.09
  L 342.23 273.94
  A 2.10 2.10 0.0 0 0 341.89 270.94
  Q 337.30 267.39 334.25 263.01
  A 1.05 1.04 52.3 0 0 332.72 262.81
  Q 331.53 263.83 330.64 265.43
  A 0.61 0.61 0.0 0 0 331.23 266.34
  C 333.55 266.14 336.17 269.10 337.55 270.55
  A 1.77 1.76 -46.4 0 1 337.60 272.91
  L 333.16 278.04
  A 0.09 0.03 -16.8 0 0 333.13 278.06
  Q 332.96 278.12 332.89 278.15
  A 1.49 1.49 0.0 0 0 332.13 278.98
  Q 331.72 280.08 330.51 280.90
  A 1.60 1.53 84.6 0 0 329.93 281.63
  Z
  M 344.8185 267.6297
  A 1.45 1.45 0.0 0 0 343.4517 266.1010
  L 342.8127 266.0653
  A 1.45 1.45 0.0 0 0 341.2840 267.4321
  L 341.2215 268.5503
  A 1.45 1.45 0.0 0 0 342.5883 270.0790
  L 343.2273 270.1147
  A 1.45 1.45 0.0 0 0 344.7560 268.7479
  L 344.8185 267.6297
  Z"
/>
<path fill="#ebe8b1" d="
  M 403.21 260.09
  L 403.12 272.31
  Q 402.16 262.48 401.37 244.24
  Q 401.11 238.30 401.49 235.14
  L 403.21 260.09
  Z"
/>
<path fill="#212028" d="
  M 342.20 250.86
  Q 336.46 257.60 335.22 258.78
  C 334.79 259.20 334.82 259.72 334.56 260.11
  A 1.09 1.08 -77.8 0 1 333.79 260.61
  Q 332.28 260.85 331.00 258.63
  A 0.80 0.80 0.0 0 1 331.70 257.43
  C 333.34 257.47 335.48 254.41 336.46 252.76
  A 1.38 1.37 -52.3 0 0 336.25 251.09
  L 329.48 244.32
  A 1.53 1.32 -85.9 0 1 329.24 244.00
  Q 328.15 241.89 327.22 241.31
  C 324.90 239.86 326.71 237.35 328.04 236.15
  A 1.13 1.13 0.0 0 1 329.64 236.24
  L 342.20 250.34
  A 0.39 0.39 0.0 0 1 342.20 250.86
  Z"
/>
<circle fill="#212028" cx="272.08" cy="238.96" r="1.81"/>
<circle fill="#212028" cx="303.68" cy="240.03" r="1.91"/>
<path fill="#174ded" d="
  M 135.34 243.71
  L 135.24 241.25
  Q 135.67 242.45 135.34 243.71
  Z"
/>
<path fill="#212028" d="
  M 365.08 247.18
  L 357.41 256.43
  Q 354.80 258.42 353.24 260.96
  A 0.91 0.90 -50.5 0 1 351.80 261.10
  L 346.27 255.10
  A 7.31 6.90 9.6 0 1 345.41 253.96
  L 343.55 250.85
  A 0.39 0.38 64.2 0 1 343.74 250.29
  L 344.37 250.06
  A 0.53 0.53 0.0 0 1 345.07 250.63
  Q 345.06 250.74 345.07 250.87
  A 2.01 1.94 17.4 0 0 345.61 251.86
  L 349.96 256.19
  A 1.51 1.50 39.9 0 0 352.25 255.99
  Q 355.05 251.98 359.05 248.39
  Q 361.58 246.11 360.10 243.17
  A 0.50 0.50 0.0 0 1 360.92 242.61
  L 365.08 247.18
  Z"
/>
<ellipse fill="#91919c" cx="0.00" cy="0.00" transform="translate(300.68,246.52) rotate(-103.2)" rx="1.89" ry="1.24"/>
<path fill="#212028" d="
  M 326.22 255.96
  Q 328.00 258.59 330.66 260.59
  A 1.09 1.08 -50.9 0 1 330.82 262.17
  L 323.19 270.95
  A 0.62 0.62 0.0 0 1 322.67 271.15
  L 322.15 271.11
  A 0.15 0.13 20.8 0 0 322.05 271.15
  Q 320.47 272.80 319.05 272.93
  A 0.81 0.80 -67.1 0 0 318.59 273.12
  L 315.88 275.54
  A 1.17 1.15 23.6 0 1 315.10 275.84
  Q 313.88 275.84 312.83 276.84
  Q 312.21 277.42 311.52 277.38
  Q 310.77 277.33 310.47 276.53
  Q 309.61 270.05 310.19 263.39
  A 1.05 1.04 -72.7 0 0 309.67 262.39
  L 309.35 262.20
  A 0.60 0.60 0.0 0 1 309.20 261.27
  Q 310.17 260.20 310.04 258.51
  Q 309.84 255.70 309.69 250.07
  A 0.78 0.78 0.0 0 1 310.91 249.41
  Q 317.80 254.21 326.22 255.96
  Z"
/>
<path fill="#ebe8b1" d="
  M 393.79 252.36
  Q 393.73 252.65 393.53 253.78
  A 0.34 0.34 0.0 0 1 393.00 254.00
  Q 391.87 253.22 392.12 252.02
  Q 392.36 250.82 393.71 250.53
  A 0.34 0.34 0.0 0 1 394.11 250.94
  Q 393.85 252.06 393.79 252.36
  Z"
/>
<path fill="#212028" d="
  M 343.60 258.92
  Q 342.14 259.38 340.92 256.86
  Q 340.50 255.99 340.87 255.33
  Q 341.27 254.59 342.14 254.31
  Q 343.00 254.04 343.77 254.41
  Q 344.44 254.74 344.60 255.69
  Q 345.07 258.45 343.60 258.92
  Z"
/>
<ellipse fill="#212028" cx="0.00" cy="0.00" transform="translate(337.55,261.31) rotate(-98.9)" rx="2.65" ry="2.17"/>
<path fill="#212028" d="
  M 357.75 258.74
  L 358.02 265.34
  Q 356.01 264.61 355.31 263.10
  Q 354.73 261.82 355.66 260.55
  Q 356.46 259.46 357.75 258.74
  Z"
/>
<ellipse fill="#212028" cx="0.00" cy="0.00" transform="translate(348.13,262.08) rotate(-94.4)" rx="2.51" ry="1.92"/>
<path fill="#212028" d="
  M 403.58 279.46
  Q 403.58 278.68 403.35 278.01
  L 403.12 272.31
  L 403.21 260.09
  L 403.58 279.46
  Z"
/>
<path fill="#212028" d="
  M 330.51 280.90
  Q 331.72 280.08 332.13 278.98
  A 1.49 1.49 0.0 0 1 332.89 278.15
  Q 332.96 278.12 333.13 278.06
  A 0.09 0.03 -16.8 0 1 333.16 278.04
  L 337.60 272.91
  A 1.77 1.76 -46.4 0 0 337.55 270.55
  C 336.17 269.10 333.55 266.14 331.23 266.34
  A 0.61 0.61 0.0 0 1 330.64 265.43
  Q 331.53 263.83 332.72 262.81
  A 1.05 1.04 52.3 0 1 334.25 263.01
  Q 337.30 267.39 341.89 270.94
  A 2.10 2.10 0.0 0 1 342.23 273.94
  L 331.47 287.09
  A 1.20 1.20 0.0 0 1 329.53 286.96
  Q 328.92 285.95 328.32 284.99
  A 1.90 1.71 -30.4 0 1 329.11 282.50
  Q 329.72 282.15 329.93 281.63
  A 1.60 1.53 84.6 0 1 330.51 280.90
  Z"
/>
<path fill="#212028" d="
  M 357.48 267.36
  L 362.60 271.92
  A 0.91 0.57 17.9 0 1 362.76 272.11
  L 365.59 276.52
  A 1.13 1.12 -44.8 0 1 365.58 277.74
  L 363.59 280.71
  Q 363.26 281.35 362.81 281.39
  A 0.29 0.29 0.0 0 1 362.53 281.22
  Q 360.94 277.69 359.12 276.50
  Q 357.74 275.60 357.00 274.50
  Q 356.82 274.23 355.25 271.92
  A 1.65 1.64 -5.0 0 0 354.57 271.35
  Q 353.67 270.95 353.03 270.01
  A 2.77 1.84 57.4 0 0 350.10 268.72
  Q 347.74 270.05 345.55 272.97
  A 0.61 0.61 0.0 0 1 344.51 272.87
  L 344.35 272.56
  A 1.49 1.49 0.0 0 1 344.57 270.93
  L 351.50 262.96
  A 1.22 1.21 43.9 0 1 353.30 262.93
  L 357.48 267.36
  Z"
/>
<rect fill="#212028" x="-1.77" y="-2.01" transform="translate(343.02,268.09) rotate(3.2)" width="3.54" height="4.02" rx="1.45"/>
<path fill="#212028" d="
  M 135.95 272.78
  L 135.93 274.29
  Q 135.77 273.51 135.95 272.78
  Z"
/>
<path fill="#212028" d="
  M 364.61 281.98
  C 366.16 283.47 364.70 285.47 364.03 286.87
  A 1.52 1.51 -58.0 0 0 364.45 288.71
  C 366.08 290.02 367.49 291.09 369.04 292.91
  Q 377.93 303.33 386.99 313.76
  Q 390.87 318.24 395.48 323.02
  Q 396.97 327.30 401.32 329.52
  A 1.55 1.48 1.3 0 1 401.99 330.19
  Q 402.67 331.55 403.94 332.33
  Q 404.20 332.45 404.43 332.46
  Q 404.77 334.19 405.24 334.75
  Q 410.77 341.43 413.25 344.32
  Q 413.60 344.73 419.29 350.66
  Q 422.42 353.92 424.62 357.63
  Q 426.03 360.01 428.75 359.58
  Q 428.11 360.95 429.36 362.37
  Q 430.94 364.17 433.23 365.13
  Q 432.49 365.13 432.36 365.36
  Q 431.80 366.40 432.70 367.25
  Q 438.38 372.59 440.95 376.03
  C 445.23 381.77 449.05 386.60 453.81 391.41
  Q 457.94 395.59 460.60 399.19
  Q 465.80 406.23 467.40 407.82
  Q 475.96 416.32 480.97 423.31
  Q 483.71 427.14 486.70 430.31
  C 491.98 435.89 497.02 442.05 501.36 447.44
  C 504.38 451.20 508.63 455.56 512.00 459.88
  L 512.00 465.24
  L 511.80 465.97
  A 0.43 0.43 0.0 0 1 511.05 466.13
  C 507.48 461.60 505.68 459.62 503.00 455.78
  Q 500.25 451.83 496.96 448.77
  Q 493.56 445.60 483.91 433.53
  C 480.74 429.56 476.80 425.65 473.01 421.24
  Q 461.82 408.23 447.30 391.05
  A 3.57 3.40 87.0 0 0 446.72 390.50
  Q 445.50 389.55 445.05 388.95
  Q 435.89 376.77 425.19 366.15
  A 1.85 1.83 75.1 0 0 424.39 365.68
  Q 422.81 365.24 420.91 365.61
  Q 421.05 364.92 422.21 364.47
  A 0.94 0.94 0.0 0 0 422.68 363.12
  Q 421.47 361.02 419.06 359.73
  Q 417.35 355.63 413.69 352.06
  Q 410.02 348.47 406.29 344.38
  A 0.86 0.86 0.0 0 0 404.97 344.44
  Q 404.69 344.80 404.59 345.73
  Q 404.64 345.23 404.39 345.01
  Q 405.08 341.70 403.88 339.17
  A 1.70 1.70 0.0 0 0 402.88 338.28
  Q 399.41 337.12 397.07 334.22
  Q 397.20 333.72 397.10 333.24
  A 0.45 0.44 81.9 0 0 396.63 332.88
  Q 396.59 332.88 396.57 332.88
  A 1.06 1.03 79.5 0 1 395.89 332.40
  L 394.84 330.67
  A 1.01 1.00 -18.6 0 0 393.87 330.19
  Q 392.97 330.29 392.71 329.51
  Q 391.83 326.90 389.80 326.22
  A 0.90 0.89 1.4 0 1 389.23 325.63
  Q 388.79 324.05 388.12 323.33
  Q 385.25 320.22 382.77 316.42
  Q 381.94 315.16 377.18 310.42
  C 371.09 304.35 365.44 297.71 360.79 290.96
  A 1.36 1.36 0.0 0 0 358.99 290.55
  L 356.98 291.71
  A 1.49 1.49 0.0 0 1 354.92 291.13
  C 353.61 288.71 350.71 289.79 348.77 290.71
  Q 347.43 291.35 347.65 293.09
  A 0.60 0.59 82.9 0 1 347.13 293.76
  L 347.03 293.77
  A 0.61 0.61 0.0 0 1 346.35 293.28
  Q 346.10 292.10 345.60 291.12
  A 0.73 0.73 0.0 0 0 344.23 291.39
  L 343.99 294.40
  A 0.66 0.65 -12.4 0 1 343.66 294.91
  L 343.21 295.17
  A 0.61 0.61 0.0 0 1 342.30 294.69
  Q 342.21 293.36 341.24 291.69
  A 0.66 0.66 0.0 0 0 340.01 291.97
  L 339.84 294.03
  A 0.56 0.55 -81.4 0 1 339.17 294.53
  Q 337.21 294.12 333.75 294.69
  A 0.46 0.45 84.7 0 1 333.22 294.24
  Q 333.22 293.24 329.91 293.41
  Q 328.93 293.46 328.92 292.82
  Q 328.92 292.73 328.00 292.68
  Q 325.03 292.53 323.59 294.92
  A 1.04 1.03 -73.7 0 1 322.69 295.42
  C 320.59 295.39 319.36 294.97 317.05 296.03
  A 0.44 0.44 0.0 0 1 316.43 295.69
  L 316.40 295.41
  A 0.98 0.96 -19.3 0 1 316.88 294.44
  L 320.06 292.60
  A 0.40 0.40 0.0 0 0 319.94 291.87
  Q 318.50 291.58 317.52 292.00
  A 2.04 2.04 0.0 0 0 316.69 292.64
  Q 313.64 296.56 307.95 303.20
  C 306.12 305.32 304.98 307.97 302.79 310.17
  Q 299.36 313.63 294.21 319.72
  A 1.62 1.62 0.0 0 0 294.39 321.99
  L 295.27 322.76
  A 0.68 0.67 50.6 0 1 295.17 323.86
  L 294.38 324.32
  A 0.81 0.80 -29.9 0 1 293.28 324.03
  L 292.89 323.36
  A 0.74 0.74 0.0 0 0 291.68 323.27
  L 272.18 347.08
  A 0.55 0.54 13.5 0 0 272.72 347.95
  L 275.46 347.36
  A 0.36 0.36 0.0 0 1 275.58 347.36
  Q 282.60 347.90 289.35 346.64
  Q 290.76 346.37 294.50 347.02
  Q 297.24 347.49 301.68 346.74
  C 303.21 346.49 304.77 346.80 305.96 347.09
  A 0.23 0.23 0.0 0 1 305.91 347.55
  Q 293.64 347.93 293.09 347.87
  Q 290.16 347.59 282.92 348.46
  Q 278.24 349.02 272.74 348.57
  A 2.32 2.30 37.1 0 0 271.77 348.70
  Q 269.11 349.69 268.24 351.00
  Q 266.13 354.19 263.61 357.95
  Q 263.77 357.70 263.69 358.16
  A 0.87 0.85 -71.0 0 0 264.11 359.04
  L 266.76 360.57
  A 2.11 2.06 -27.2 0 0 267.60 360.83
  Q 276.84 361.60 284.72 358.38
  L 312.28 357.16
  A 3.39 3.23 -40.0 0 1 313.05 357.21
  Q 314.73 357.48 316.63 357.41
  Q 324.89 357.07 333.25 357.10
  C 335.29 357.11 339.48 356.55 342.26 356.50
  Q 352.26 356.31 362.66 355.82
  Q 364.32 358.01 365.50 358.01
  Q 371.90 358.04 378.66 358.44
  A 0.25 0.23 17.8 0 0 378.85 358.35
  Q 380.81 355.89 381.52 355.76
  Q 384.02 355.32 386.55 355.22
  Q 392.25 355.39 398.00 354.94
  Q 399.03 354.87 401.95 355.57
  Q 399.96 356.11 399.54 358.02
  Q 399.10 360.00 400.69 360.16
  C 398.56 360.70 398.54 363.03 396.98 364.27
  A 1.30 1.29 -25.2 0 1 394.91 363.53
  L 393.75 358.12
  A 1.35 1.35 0.0 0 0 392.54 357.06
  L 388.26 356.71
  A 1.06 1.06 0.0 0 0 387.11 357.68
  L 386.97 359.48
  A 1.06 1.03 79.5 0 1 386.40 360.33
  Q 383.58 361.76 384.99 365.31
  A 0.81 0.80 -9.2 0 0 385.69 365.81
  Q 394.43 366.26 400.34 364.58
  A 4.26 4.19 43.4 0 1 402.48 364.54
  Q 404.34 364.99 408.25 364.60
  Q 414.02 364.01 420.73 365.45
  L 398.99 366.89
  A 1.67 1.63 -63.4 0 0 398.18 367.17
  Q 395.38 369.09 391.73 369.11
  Q 386.46 369.14 380.93 369.11
  L 380.16 361.38
  A 1.36 1.35 -1.5 0 0 378.88 360.17
  L 372.81 359.88
  A 5.04 4.68 -47.1 0 0 371.61 359.97
  L 357.65 362.96
  A 0.59 0.59 0.0 0 0 357.18 363.56
  L 357.61 375.10
  Q 355.15 368.97 354.88 361.56
  A 2.09 2.09 0.0 0 0 352.71 359.54
  L 337.44 360.07
  A 1.26 1.26 0.0 0 0 336.22 361.38
  L 336.85 379.62
  A 2.02 2.01 -3.6 0 1 335.01 381.70
  L 327.05 382.38
  L 326.64 361.78
  A 1.45 1.45 0.0 0 0 325.14 360.36
  L 324.45 360.38
  A 1.46 1.46 0.0 0 0 323.04 361.88
  L 323.61 382.42
  L 315.25 382.16
  A 0.83 0.83 0.0 0 1 314.44 381.35
  L 313.75 361.62
  A 1.06 1.06 0.0 0 0 312.65 360.60
  L 297.08 361.14
  A 1.71 1.70 -2.9 0 0 295.43 362.96
  Q 295.71 367.17 295.41 370.72
  Q 295.25 372.74 292.81 373.18
  Q 287.99 374.05 288.36 376.37
  Q 287.88 375.59 287.27 375.44
  A 1.56 1.52 -80.2 0 0 285.39 376.80
  Q 285.19 378.70 285.29 380.20
  A 1.03 1.03 0.0 0 0 286.97 380.92
  L 288.50 379.66
  L 290.77 432.14
  A 1.39 1.38 1.7 0 0 292.02 433.46
  L 296.73 433.93
  L 290.01 433.83
  L 288.92 410.51
  A 2.25 2.14 -58.5 0 0 288.75 409.71
  Q 288.35 408.72 288.36 407.99
  Q 288.45 397.73 288.22 391.93
  A 1.06 1.05 -4.3 0 0 287.04 390.92
  L 287.00 390.93
  A 1.28 1.28 0.0 0 0 285.87 392.20
  Q 285.93 409.93 286.68 427.54
  C 287.12 438.21 286.99 446.88 287.41 456.38
  Q 287.80 465.12 288.17 476.12
  Q 288.50 486.03 289.09 495.84
  Q 286.41 496.44 286.30 494.17
  Q 286.12 490.16 286.05 486.25
  Q 285.69 464.85 284.84 443.47
  Q 283.52 410.39 281.91 377.51
  Q 281.85 376.39 280.92 376.02
  L 280.25 363.92
  A 0.82 0.82 0.0 0 0 279.50 363.15
  L 278.98 363.10
  A 0.78 0.78 0.0 0 0 278.14 363.89
  L 278.33 376.69
  Q 277.47 376.58 276.21 376.98
  L 275.63 362.94
  A 0.44 0.44 0.0 0 0 275.13 362.52
  L 265.62 363.76
  A 3.25 3.23 -77.4 0 0 263.33 365.22
  Q 261.26 368.47 257.66 370.98
  Q 257.67 368.75 256.53 368.12
  A 0.83 0.82 -50.6 0 0 255.59 368.22
  Q 249.34 373.69 244.72 380.93
  Q 243.21 383.30 234.33 392.32
  Q 231.63 395.07 227.36 400.90
  Q 224.35 405.00 220.35 409.42
  Q 210.98 419.76 207.86 424.11
  Q 205.28 427.70 203.08 429.97
  Q 200.94 432.17 198.95 434.54
  Q 191.69 443.18 183.62 453.12
  Q 181.42 455.84 181.05 457.57
  Q 178.93 459.33 177.86 461.27
  Q 173.66 464.63 171.76 468.44
  L 169.03 470.53
  A 1.09 1.07 -18.5 0 0 168.62 471.33
  L 168.59 472.44
  Q 168.26 472.25 168.12 472.02
  A 0.33 0.32 48.8 0 0 167.60 471.98
  Q 161.59 479.15 155.84 486.10
  C 153.66 488.73 150.97 490.59 149.02 493.27
  Q 141.86 503.14 132.29 513.03
  Q 130.31 515.08 126.42 520.66
  C 123.68 524.61 117.47 530.21 113.54 535.06
  C 111.10 538.09 109.23 539.71 107.64 542.44
  Q 105.66 545.82 99.59 551.83
  Q 97.25 554.14 91.42 561.37
  C 82.67 572.21 74.49 581.29 61.95 595.96
  C 56.02 602.90 52.39 608.01 45.68 614.70
  Q 43.90 616.47 40.75 614.31
  Q 46.49 611.22 47.89 608.64
  C 51.09 602.70 56.04 598.38 59.91 593.80
  C 62.80 590.37 67.45 587.25 69.71 582.79
  A 6.47 6.16 82.2 0 1 70.88 581.17
  Q 73.19 578.86 76.12 575.29
  C 79.62 571.02 83.59 568.01 87.19 563.69
  Q 88.62 561.97 89.91 559.71
  A 5.34 5.11 -12.8 0 1 90.34 559.06
  Q 91.68 557.29 101.30 547.32
  Q 104.11 544.41 107.59 539.66
  C 111.30 534.59 114.15 531.55 118.59 527.15
  Q 124.53 521.25 129.02 514.61
  A 12.86 12.55 -6.4 0 1 130.54 512.75
  Q 140.26 502.86 146.44 494.67
  Q 150.29 489.56 153.06 487.26
  A 0.28 0.10 -70.7 0 0 153.10 487.21
  L 167.30 470.91
  A 3.84 3.57 -13.2 0 0 167.73 470.27
  L 168.57 468.63
  A 1.15 0.96 85.0 0 1 168.71 468.43
  L 177.00 458.07
  A 1.03 1.02 49.1 0 0 177.08 456.91
  L 176.91 456.61
  A 0.48 0.47 49.2 0 0 176.13 456.55
  L 165.54 469.73
  A 1.66 0.60 -59.2 0 1 165.40 469.88
  Q 163.28 471.81 162.17 473.13
  Q 155.73 480.83 147.31 491.07
  Q 141.42 498.25 134.35 506.11
  Q 132.53 508.13 129.38 510.93
  A 4.34 4.25 86.4 0 0 128.68 511.74
  L 126.66 514.79
  A 0.28 0.10 -70.7 0 1 126.62 514.84
  Q 120.83 521.36 118.84 523.94
  C 115.59 528.16 110.45 531.99 107.78 536.50
  Q 106.36 538.89 104.47 540.80
  C 101.07 544.24 99.50 546.77 95.15 550.64
  C 91.16 554.21 88.24 559.59 84.72 563.27
  Q 80.63 567.55 76.58 571.83
  Q 71.85 576.82 68.65 581.69
  Q 65.13 587.03 60.66 589.90
  Q 65.97 583.59 70.64 577.39
  Q 74.01 572.92 77.68 569.44
  Q 80.28 566.98 86.58 558.95
  Q 91.14 553.13 95.36 548.38
  Q 105.13 537.36 108.23 532.98
  Q 108.92 532.01 116.27 524.01
  Q 120.01 519.93 124.03 514.83
  Q 131.72 505.05 142.54 492.83
  Q 145.61 489.37 150.93 482.71
  Q 157.73 474.20 159.33 472.58
  Q 164.13 467.70 166.28 464.78
  Q 167.24 463.47 168.02 460.95
  Q 172.77 458.32 175.94 453.05
  A 1.57 1.55 59.6 0 0 176.16 452.18
  L 174.25 397.11
  A 1.29 1.28 64.1 0 1 174.55 396.23
  L 175.78 394.72
  A 0.73 0.73 0.0 0 0 175.21 393.53
  Q 174.34 393.54 173.98 393.16
  A 1.40 1.28 25.0 0 1 173.60 392.24
  L 173.64 389.48
  L 173.57 390.45
  A 1.51 1.26 -15.1 0 0 175.79 391.47
  Q 176.57 391.04 176.54 388.58
  L 177.29 388.83
  Q 177.06 389.07 177.13 389.40
  Q 177.42 390.84 180.13 390.63
  Q 183.93 390.35 187.80 390.31
  Q 187.11 392.14 188.00 393.39
  L 180.50 393.81
  A 2.43 2.41 29.3 0 0 179.52 394.08
  Q 177.48 395.17 176.44 397.41
  A 1.71 1.68 -33.8 0 0 176.27 398.23
  L 178.01 448.37
  A 0.86 0.86 0.0 0 0 179.52 448.91
  C 185.94 441.67 190.41 434.76 197.69 427.45
  Q 202.11 423.01 207.75 414.90
  A 23.13 22.84 -6.0 0 1 210.18 411.94
  Q 218.87 403.00 225.71 394.19
  Q 228.34 390.80 225.62 390.59
  Q 227.23 390.68 227.47 389.83
  Q 229.57 389.62 230.50 388.51
  Q 241.17 375.78 251.94 363.05
  Q 256.31 361.06 260.06 355.57
  C 266.55 346.07 274.92 336.30 280.34 329.93
  A 0.41 0.41 0.0 0 0 280.15 329.28
  Q 280.03 329.24 280.02 329.24
  A 0.28 0.27 -50.9 0 1 279.99 328.85
  L 282.68 325.71
  A 0.80 0.80 0.0 0 0 282.72 324.72
  L 279.27 320.02
  A 0.77 0.77 0.0 0 1 279.15 319.34
  Q 279.57 317.79 278.55 314.70
  A 0.30 0.30 0.0 0 1 279.08 314.43
  Q 280.32 316.15 280.39 318.13
  A 0.75 0.74 29.5 0 0 280.50 318.52
  L 283.29 323.36
  A 0.79 0.78 -44.4 0 0 284.64 323.37
  L 287.21 319.13
  A 3.08 2.97 86.5 0 1 287.85 318.38
  C 289.85 316.66 291.43 313.91 293.32 311.97
  C 296.38 308.84 300.82 304.28 303.65 300.17
  Q 308.78 292.69 311.21 289.83
  A 0.04 0.03 59.9 0 1 311.27 289.85
  Q 311.29 289.94 311.39 290.11
  A 0.10 0.10 0.0 0 0 311.55 290.11
  L 312.51 288.78
  A 0.62 0.61 -60.5 0 0 312.26 287.85
  Q 312.17 287.81 312.05 287.06
  A 0.56 0.56 0.0 0 1 312.66 286.41
  L 313.59 286.50
  Q 315.88 287.24 316.74 285.20
  A 0.75 0.75 0.0 0 0 316.48 284.30
  Q 315.91 283.91 314.93 283.76
  A 0.73 0.72 -83.0 0 1 314.33 282.99
  L 314.50 280.92
  A 1.35 1.33 -17.4 0 1 314.99 280.00
  C 318.58 277.07 320.91 279.29 324.01 282.12
  A 3.60 3.53 -83.5 0 1 324.75 283.07
  Q 326.50 286.33 329.14 288.84
  A 2.00 2.00 0.0 0 0 332.07 288.65
  Q 339.09 279.99 342.83 275.88
  Q 343.50 275.15 344.22 275.51
  Q 344.67 275.74 345.01 276.43
  Q 345.44 277.29 345.62 277.51
  Q 350.04 282.72 354.88 288.33
  Q 356.70 290.44 358.72 288.49
  Q 361.86 285.46 364.61 281.98
  Z
  M 313.41 359.39
  A 1.16 1.16 0.0 0 0 312.25 358.23
  A 1.16 1.16 0.0 0 0 311.09 359.39
  A 1.16 1.16 0.0 0 0 312.25 360.55
  A 1.16 1.16 0.0 0 0 313.41 359.39
  Z"
/>
<path fill="#91919c" d="
  M 403.58 279.46
  Q 403.93 281.09 403.63 282.72
  Q 403.01 280.87 403.33 278.55
  Q 403.06 278.95 403.35 278.01
  Q 403.58 278.68 403.58 279.46
  Z"
/>
<path fill="#ebe8b1" d="
  M 403.33 278.55
  Q 403.01 280.87 403.63 282.72
  Q 403.95 284.20 403.54 285.40
  Q 402.02 283.39 403.33 278.55
  Z"
/>
<path fill="#ebe8b1" d="
  M 397.07 334.22
  Q 395.59 333.37 394.82 332.22
  A 1.05 1.05 0.0 0 0 392.90 332.81
  L 392.90 337.56
  A 1.55 1.52 -66.9 0 0 393.31 338.61
  Q 394.83 340.20 393.77 342.73
  A 1.53 1.53 0.0 0 0 395.53 344.81
  L 396.13 344.66
  A 1.57 1.57 0.0 0 1 396.83 344.66
  Q 400.61 345.50 404.39 345.01
  Q 404.64 345.23 404.59 345.73
  Q 404.54 349.58 404.42 353.49
  Q 404.36 355.32 401.95 355.57
  Q 399.03 354.87 398.00 354.94
  Q 392.25 355.39 386.55 355.22
  L 378.75 354.55
  A 1.20 1.19 26.2 0 0 377.86 354.85
  L 377.50 355.16
  A 1.75 1.73 -61.0 0 1 376.07 355.58
  Q 369.23 354.48 362.66 355.82
  Q 352.26 356.31 342.26 356.50
  C 339.48 356.55 335.29 357.11 333.25 357.10
  Q 324.89 357.07 316.63 357.41
  Q 314.73 357.48 313.05 357.21
  A 3.39 3.23 -40.0 0 0 312.28 357.16
  L 284.72 358.38
  L 263.61 357.95
  Q 266.13 354.19 268.24 351.00
  Q 269.11 349.69 271.77 348.70
  A 2.32 2.30 37.1 0 1 272.74 348.57
  Q 278.24 349.02 282.92 348.46
  Q 290.16 347.59 293.09 347.87
  Q 293.64 347.93 305.91 347.55
  A 0.23 0.23 0.0 0 0 305.96 347.09
  C 304.77 346.80 303.21 346.49 301.68 346.74
  Q 297.24 347.49 294.50 347.02
  Q 290.76 346.37 289.35 346.64
  Q 282.60 347.90 275.58 347.36
  A 0.36 0.36 0.0 0 0 275.46 347.36
  L 272.72 347.95
  A 0.55 0.54 13.5 0 1 272.18 347.08
  L 291.68 323.27
  A 0.74 0.74 0.0 0 1 292.89 323.36
  L 293.28 324.03
  A 0.81 0.80 -29.9 0 0 294.38 324.32
  L 295.17 323.86
  A 0.68 0.67 50.6 0 0 295.27 322.76
  L 294.39 321.99
  A 1.62 1.62 0.0 0 1 294.21 319.72
  Q 299.36 313.63 302.79 310.17
  C 304.98 307.97 306.12 305.32 307.95 303.20
  Q 313.64 296.56 316.69 292.64
  A 2.04 2.04 0.0 0 1 317.52 292.00
  Q 318.50 291.58 319.94 291.87
  A 0.40 0.40 0.0 0 1 320.06 292.60
  L 316.88 294.44
  A 0.98 0.96 -19.3 0 0 316.40 295.41
  L 316.43 295.69
  A 0.44 0.44 0.0 0 0 317.05 296.03
  C 319.36 294.97 320.59 295.39 322.69 295.42
  A 1.04 1.03 -73.7 0 0 323.59 294.92
  Q 325.03 292.53 328.00 292.68
  Q 328.92 292.73 328.92 292.82
  Q 328.93 293.46 329.91 293.41
  Q 333.22 293.24 333.22 294.24
  A 0.46 0.45 84.7 0 0 333.75 294.69
  Q 337.21 294.12 339.17 294.53
  A 0.56 0.55 -81.4 0 0 339.84 294.03
  L 340.01 291.97
  A 0.66 0.66 0.0 0 1 341.24 291.69
  Q 342.21 293.36 342.30 294.69
  A 0.61 0.61 0.0 0 0 343.21 295.17
  L 343.66 294.91
  A 0.66 0.65 -12.4 0 0 343.99 294.40
  L 344.23 291.39
  A 0.73 0.73 0.0 0 1 345.60 291.12
  Q 346.10 292.10 346.35 293.28
  A 0.61 0.61 0.0 0 0 347.03 293.77
  L 347.13 293.76
  A 0.60 0.59 82.9 0 0 347.65 293.09
  Q 347.43 291.35 348.77 290.71
  C 350.71 289.79 353.61 288.71 354.92 291.13
  A 1.49 1.49 0.0 0 0 356.98 291.71
  L 358.99 290.55
  A 1.36 1.36 0.0 0 1 360.79 290.96
  C 365.44 297.71 371.09 304.35 377.18 310.42
  Q 381.94 315.16 382.77 316.42
  Q 385.25 320.22 388.12 323.33
  Q 388.79 324.05 389.23 325.63
  A 0.90 0.89 1.4 0 0 389.80 326.22
  Q 391.83 326.90 392.71 329.51
  Q 392.97 330.29 393.87 330.19
  A 1.01 1.00 -18.6 0 1 394.84 330.67
  L 395.89 332.40
  A 1.06 1.03 79.5 0 0 396.57 332.88
  Q 396.59 332.88 396.63 332.88
  A 0.45 0.44 81.9 0 1 397.10 333.24
  Q 397.20 333.72 397.07 334.22
  Z
  M 338.85 320.55
  Q 339.16 319.85 338.13 318.93
  A 0.40 0.39 -84.5 0 0 337.53 319.43
  L 338.19 320.58
  A 0.37 0.37 0.0 0 0 338.85 320.55
  Z
  M 293.10 332.76
  L 294.57 336.22
  A 1.89 1.77 12.2 0 0 295.02 336.87
  Q 297.61 339.24 297.92 342.71
  A 0.26 0.25 -7.9 0 0 298.23 342.94
  L 298.55 342.87
  A 0.18 0.18 0.0 0 0 298.69 342.65
  L 297.81 338.53
  A 1.07 0.96 27.8 0 0 297.71 338.26
  L 294.37 332.37
  A 0.54 0.53 -20.2 0 0 293.79 332.11
  L 293.39 332.20
  A 0.41 0.41 0.0 0 0 293.10 332.76
  Z"
/>
<path fill="#91919c" d="
  M 338.19 320.58
  L 337.53 319.43
  A 0.40 0.39 -84.5 0 1 338.13 318.93
  Q 339.16 319.85 338.85 320.55
  A 0.37 0.37 0.0 0 1 338.19 320.58
  Z"
/>
<path fill="#fefcf7" d="
  M 397.07 334.22
  Q 399.41 337.12 402.88 338.28
  A 1.70 1.70 0.0 0 1 403.88 339.17
  Q 405.08 341.70 404.39 345.01
  Q 400.61 345.50 396.83 344.66
  A 1.57 1.57 0.0 0 0 396.13 344.66
  L 395.53 344.81
  A 1.53 1.53 0.0 0 1 393.77 342.73
  Q 394.83 340.20 393.31 338.61
  A 1.55 1.52 -66.9 0 1 392.90 337.56
  L 392.90 332.81
  A 1.05 1.05 0.0 0 1 394.82 332.22
  Q 395.59 333.37 397.07 334.22
  Z"
/>
<path fill="#91919c" d="
  M 404.43 332.46
  Q 404.20 332.45 403.94 332.33
  Q 404.08 332.13 404.29 332.00
  L 404.43 332.46
  Z"
/>
<path fill="#91919c" d="
  M 293.10 332.76
  A 0.41 0.41 0.0 0 1 293.39 332.20
  L 293.79 332.11
  A 0.54 0.53 -20.2 0 1 294.37 332.37
  L 297.71 338.26
  A 1.07 0.96 27.8 0 1 297.81 338.53
  L 298.69 342.65
  A 0.18 0.18 0.0 0 1 298.55 342.87
  L 298.23 342.94
  A 0.26 0.25 -7.9 0 1 297.92 342.71
  Q 297.61 339.24 295.02 336.87
  A 1.89 1.77 12.2 0 1 294.57 336.22
  L 293.10 332.76
  Z"
/>
<path fill="#212028" d="
  M 478.54 354.39
  L 476.78 354.49
  Q 477.60 354.27 478.54 354.39
  Z"
/>
<path fill="#ebe8b1" d="
  M 469.59 367.60
  L 471.24 367.58
  A 0.86 0.83 -75.2 0 0 471.95 367.15
  Q 472.25 366.64 471.97 366.22
  A 0.81 0.80 36.5 0 1 471.87 365.58
  L 473.06 361.23
  A 0.75 0.65 -47.4 0 0 473.07 360.88
  Q 472.56 357.98 471.30 355.88
  Q 472.55 354.98 473.96 354.78
  Q 474.99 355.08 475.05 354.55
  L 476.78 354.49
  L 478.54 354.39
  Q 483.27 354.21 488.00 354.17
  C 492.73 354.12 493.28 359.55 493.09 363.00
  Q 492.82 367.87 488.13 368.28
  Q 478.65 369.12 469.59 367.60
  Z"
/>
<path fill="#91919c" d="
  M 386.55 355.22
  Q 384.02 355.32 381.52 355.76
  Q 380.81 355.89 378.85 358.35
  A 0.25 0.23 17.8 0 1 378.66 358.44
  Q 371.90 358.04 365.50 358.01
  Q 364.32 358.01 362.66 355.82
  Q 369.23 354.48 376.07 355.58
  A 1.75 1.73 -61.0 0 0 377.50 355.16
  L 377.86 354.85
  A 1.20 1.19 26.2 0 1 378.75 354.55
  L 386.55 355.22
  Z"
/>
<path fill="#212028" d="
  M 475.05 354.55
  Q 474.99 355.08 473.96 354.78
  Q 474.40 354.46 475.05 354.55
  Z"
/>
<path fill="#91919c" d="
  M 471.30 355.88
  Q 472.56 357.98 473.07 360.88
  A 0.75 0.65 -47.4 0 1 473.06 361.23
  L 471.87 365.58
  A 0.81 0.80 36.5 0 0 471.97 366.22
  Q 472.25 366.64 471.95 367.15
  A 0.86 0.83 -75.2 0 1 471.24 367.58
  L 469.59 367.60
  Q 464.30 367.25 459.43 365.31
  Q 458.16 364.80 453.29 365.18
  Q 452.75 364.69 451.95 365.08
  L 433.23 365.13
  Q 430.94 364.17 429.36 362.37
  Q 428.11 360.95 428.75 359.58
  L 438.20 359.40
  Q 439.20 359.69 439.81 359.36
  L 445.70 358.85
  Q 446.29 359.26 447.21 358.95
  Q 451.72 358.60 456.25 358.31
  Q 458.86 358.14 461.07 356.68
  A 1.53 1.49 -63.3 0 1 461.79 356.43
  L 471.30 355.88
  Z"
/>
<path fill="#91919c" d="
  M 400.69 360.16
  Q 403.23 360.25 405.67 359.57
  A 4.14 4.13 37.9 0 1 406.81 359.43
  L 419.06 359.73
  Q 421.47 361.02 422.68 363.12
  A 0.94 0.94 0.0 0 1 422.21 364.47
  Q 421.05 364.92 420.91 365.61
  Q 420.82 365.53 420.73 365.45
  Q 414.02 364.01 408.25 364.60
  Q 404.34 364.99 402.48 364.54
  A 4.26 4.19 43.4 0 0 400.34 364.58
  Q 394.43 366.26 385.69 365.81
  A 0.81 0.80 -9.2 0 1 384.99 365.31
  Q 383.58 361.76 386.40 360.33
  A 1.06 1.03 79.5 0 0 386.97 359.48
  L 387.11 357.68
  A 1.06 1.06 0.0 0 1 388.26 356.71
  L 392.54 357.06
  A 1.35 1.35 0.0 0 1 393.75 358.12
  L 394.91 363.53
  A 1.30 1.29 -25.2 0 0 396.98 364.27
  C 398.54 363.03 398.56 360.70 400.69 360.16
  Z"
/>
<path fill="#91919c" d="
  M 284.72 358.38
  Q 276.84 361.60 267.60 360.83
  A 2.11 2.06 -27.2 0 1 266.76 360.57
  L 264.11 359.04
  A 0.87 0.85 -71.0 0 1 263.69 358.16
  Q 263.77 357.70 263.61 357.95
  L 284.72 358.38
  Z"
/>
<circle fill="#ebe8b1" cx="312.25" cy="359.39" r="1.16"/>
<path fill="#212028" d="
  M 447.21 358.95
  Q 446.29 359.26 445.70 358.85
  L 447.21 358.95
  Z"
/>
<path fill="#212028" d="
  M 439.81 359.36
  Q 439.20 359.69 438.20 359.40
  L 439.81 359.36
  Z"
/>
<path fill="#91919c" d="
  M 380.93 369.11
  L 381.03 373.00
  A 1.74 1.74 0.0 0 1 379.42 374.78
  L 375.31 375.08
  A 1.08 1.08 0.0 0 0 374.32 376.32
  C 374.75 379.10 374.90 382.83 371.15 383.67
  Q 373.02 380.95 372.81 377.91
  A 1.92 1.92 0.0 0 0 371.04 376.12
  L 367.69 375.84
  A 1.63 1.63 0.0 0 0 365.93 377.39
  Q 365.77 381.11 367.86 383.89
  C 363.82 384.16 363.73 379.76 363.80 377.06
  A 1.19 1.18 88.3 0 0 362.51 375.84
  Q 360.54 376.03 357.61 375.10
  L 357.18 363.56
  A 0.59 0.59 0.0 0 1 357.65 362.96
  L 371.61 359.97
  A 5.04 4.68 -47.1 0 1 372.81 359.88
  L 378.88 360.17
  A 1.36 1.35 -1.5 0 1 380.16 361.38
  L 380.93 369.11
  Z"
/>
<path fill="#91919c" d="
  M 327.05 382.38
  Q 325.28 382.85 323.61 382.42
  L 323.04 361.88
  A 1.46 1.46 0.0 0 1 324.45 360.38
  L 325.14 360.36
  A 1.45 1.45 0.0 0 1 326.64 361.78
  L 327.05 382.38
  Z"
/>
<path fill="#91919c" d="
  M 191.27 361.59
  L 188.17 362.74
  A 0.75 0.75 0.0 0 0 187.67 363.42
  L 187.51 367.68
  L 175.41 366.14
  L 178.27 365.73
  A 0.81 0.81 0.0 0 0 178.94 365.16
  Q 179.39 363.68 178.26 362.76
  Q 177.83 362.26 177.94 361.87
  Q 178.07 361.40 178.55 361.29
  Q 185.07 359.84 191.27 361.59
  Z"
/>
<path fill="#91919c" d="
  M 162.56 371.01
  L 158.63 374.76
  A 2.67 2.66 62.4 0 0 157.86 377.23
  L 158.36 379.57
  A 1.06 1.06 0.0 0 1 157.36 380.85
  L 142.60 381.36
  A 0.58 0.58 0.0 0 1 141.99 380.79
  L 141.89 376.71
  L 141.91 375.37
  L 140.13 371.93
  A 0.20 0.20 0.0 0 1 140.36 371.64
  Q 143.27 372.34 144.12 369.13
  Q 146.47 368.42 145.49 363.63
  A 1.22 1.21 -21.1 0 0 143.68 362.83
  Q 141.94 363.85 140.11 366.23
  L 139.11 364.01
  L 144.41 361.32
  A 1.72 1.70 41.8 0 1 145.81 361.25
  L 148.71 362.39
  A 1.91 1.81 -28.2 0 0 149.04 362.48
  L 160.46 364.15
  A 2.15 2.15 0.0 0 1 162.29 366.17
  L 162.56 371.01
  Z"
/>
<path fill="#212028" d="
  M 192.32 380.38
  Q 190.15 381.55 191.90 384.79
  Q 190.79 385.83 189.75 384.23
  Q 189.22 383.41 188.34 380.98
  A 1.29 1.27 -86.4 0 0 187.73 380.28
  L 187.20 380.00
  L 187.57 379.16
  A 1.50 1.48 57.5 0 0 187.70 378.55
  L 187.51 367.68
  L 187.67 363.42
  A 0.75 0.75 0.0 0 1 188.17 362.74
  L 191.27 361.59
  Q 193.10 361.42 194.72 362.12
  A 0.81 0.80 -78.3 0 1 195.21 362.88
  Q 195.07 369.91 194.75 377.48
  Q 194.70 378.70 193.59 379.04
  Q 192.84 379.27 192.32 380.38
  Z"
/>
<rect fill="#91919c" x="-0.76" y="-3.69" transform="translate(201.60,365.70) rotate(2.5)" width="1.52" height="7.38" rx="0.73"/>
<path fill="#212028" d="
  M 178.26 362.76
  Q 179.39 363.68 178.94 365.16
  A 0.81 0.81 0.0 0 1 178.27 365.73
  L 175.41 366.14
  Q 172.54 364.94 171.59 365.68
  Q 171.29 366.83 170.36 366.60
  Q 173.00 362.44 178.26 362.76
  Z"
/>
<path fill="#fefcf7" d="
  M 276.21 376.98
  Q 275.77 379.31 273.78 379.41
  Q 271.53 378.65 269.14 379.41
  A 0.41 0.41 0.0 0 0 269.20 380.21
  L 269.74 380.29
  A 0.97 0.95 0.5 0 1 270.55 381.10
  Q 270.97 384.28 269.89 387.32
  Q 269.26 388.04 268.01 388.28
  C 264.36 388.12 264.18 385.39 264.09 382.56
  Q 264.05 381.27 265.11 380.08
  A 0.16 0.16 0.0 0 0 265.05 379.82
  Q 262.15 378.81 259.08 379.66
  Q 258.58 379.78 258.18 379.53
  Q 257.84 379.33 257.75 378.77
  Q 257.05 374.48 257.66 370.98
  Q 261.26 368.47 263.33 365.22
  A 3.25 3.23 -77.4 0 1 265.62 363.76
  L 275.13 362.52
  A 0.44 0.44 0.0 0 1 275.63 362.94
  L 276.21 376.98
  Z"
/>
<path fill="#212028" d="
  M 144.12 369.13
  Q 142.81 367.25 139.96 368.36
  L 139.54 367.79
  L 140.11 366.23
  Q 141.94 363.85 143.68 362.83
  A 1.22 1.21 -21.1 0 1 145.49 363.63
  Q 146.47 368.42 144.12 369.13
  Z"
/>
<path fill="#91919c" d="
  M 280.92 376.02
  L 278.33 376.69
  L 278.14 363.89
  A 0.78 0.78 0.0 0 1 278.98 363.10
  L 279.50 363.15
  A 0.82 0.82 0.0 0 1 280.25 363.92
  L 280.92 376.02
  Z"
/>
<path fill="#212028" d="
  M 453.29 365.18
  L 451.95 365.08
  Q 452.75 364.69 453.29 365.18
  Z"
/>
<path fill="#fefcf7" d="
  M 175.41 366.14
  L 187.51 367.68
  L 187.70 378.55
  A 1.50 1.48 57.5 0 1 187.57 379.16
  L 187.20 380.00
  L 184.27 380.02
  Q 182.53 379.58 180.74 380.10
  A 0.42 0.42 0.0 0 0 180.48 380.69
  Q 182.41 384.48 179.79 388.54
  L 177.29 388.83
  L 176.54 388.58
  Q 175.44 387.97 174.92 385.97
  Q 174.43 384.12 174.88 382.56
  Q 175.23 381.35 176.00 380.61
  A 0.34 0.34 0.0 0 0 175.72 380.03
  L 173.19 380.36
  A 1.33 1.32 -3.9 0 1 171.69 379.06
  L 171.59 365.68
  Q 172.54 364.94 175.41 366.14
  Z"
/>
<path fill="#91919c" d="
  M 171.59 365.68
  L 171.69 379.06
  A 1.33 1.32 -3.9 0 0 173.19 380.36
  L 175.72 380.03
  A 0.34 0.34 0.0 0 1 176.00 380.61
  Q 175.23 381.35 174.88 382.56
  Q 174.43 384.12 174.92 385.97
  Q 175.44 387.97 176.54 388.58
  Q 176.57 391.04 175.79 391.47
  A 1.51 1.26 -15.1 0 1 173.57 390.45
  L 173.64 389.48
  L 172.94 388.76
  L 174.18 388.64
  A 0.42 0.42 0.0 0 0 174.35 387.86
  L 172.73 386.93
  A 1.17 1.15 15.5 0 1 172.15 385.93
  L 172.15 381.78
  A 1.69 1.69 0.0 0 0 170.64 380.10
  L 167.55 379.79
  L 166.96 370.54
  Q 166.80 367.69 170.36 366.60
  Q 171.29 366.83 171.59 365.68
  Z"
/>
<path fill="#91919c" d="
  M 139.54 367.79
  L 139.96 368.36
  Q 139.81 369.86 138.78 370.36
  Q 137.17 371.13 137.13 371.16
  Q 134.88 372.73 132.07 372.89
  Q 116.15 373.82 100.21 374.56
  Q 98.86 374.30 97.95 374.66
  L 79.73 375.58
  Q 78.65 375.26 78.20 375.64
  L 67.02 376.05
  Q 66.32 375.90 65.71 376.21
  L 56.52 377.28
  A 1.47 1.42 20.4 0 0 55.72 377.63
  L 54.25 378.94
  A 1.71 1.68 21.0 0 1 53.26 379.37
  L 47.98 379.79
  Q 49.65 378.85 51.86 379.13
  Q 49.52 379.04 46.40 379.43
  A 1.90 1.90 0.0 0 1 44.27 377.69
  L 44.07 374.91
  A 0.55 0.55 0.0 0 0 43.48 374.40
  L 39.68 374.68
  A 0.25 0.24 20.8 0 1 39.49 374.26
  Q 39.95 373.83 40.07 373.70
  C 40.93 372.72 40.15 371.51 39.06 371.11
  A 0.24 0.24 0.0 0 1 38.91 370.80
  L 38.91 370.79
  A 0.24 0.24 0.0 0 1 39.23 370.64
  Q 41.08 371.35 43.11 371.17
  A 0.80 0.79 7.0 0 0 43.78 370.65
  Q 44.31 369.17 45.70 368.66
  L 52.80 368.87
  A 2.58 2.53 -36.1 0 1 53.35 368.95
  Q 55.56 369.59 57.70 369.50
  Q 59.50 369.77 61.22 369.47
  Q 61.89 369.41 62.54 369.57
  Q 63.29 369.78 64.21 369.68
  L 77.50 369.66
  L 78.54 369.66
  Q 108.23 368.98 137.93 368.35
  Q 138.81 368.34 139.54 367.79
  Z"
/>
<path fill="#ebe8b1" d="
  M 45.70 368.66
  Q 44.31 369.17 43.78 370.65
  A 0.80 0.79 7.0 0 1 43.11 371.17
  Q 41.08 371.35 39.23 370.64
  A 0.24 0.24 0.0 0 0 38.91 370.79
  L 38.91 370.80
  A 0.24 0.24 0.0 0 0 39.06 371.11
  C 40.15 371.51 40.93 372.72 40.07 373.70
  Q 39.95 373.83 39.49 374.26
  A 0.25 0.24 20.8 0 0 39.68 374.68
  L 43.48 374.40
  A 0.55 0.55 0.0 0 1 44.07 374.91
  L 44.27 377.69
  A 1.90 1.90 0.0 0 0 46.40 379.43
  Q 49.52 379.04 51.86 379.13
  Q 49.65 378.85 47.98 379.79
  Q 46.16 379.30 44.91 379.94
  Q 44.82 380.03 44.72 380.12
  Q 43.81 378.13 44.17 376.17
  A 1.06 1.06 0.0 0 0 43.17 374.92
  Q 39.66 374.78 38.83 378.16
  A 1.19 1.16 85.5 0 1 38.16 378.96
  Q 36.91 379.51 35.20 379.29
  L 23.97 379.83
  L 22.95 379.85
  L 12.41 380.10
  A 1.97 1.97 0.0 0 1 10.43 378.51
  Q 9.79 375.20 10.19 371.50
  Q 10.43 369.25 12.75 369.31
  Q 15.31 369.38 39.27 368.33
  Q 42.53 368.19 45.70 368.66
  Z"
/>
<path fill="#212028" d="
  M 61.22 369.47
  Q 59.50 369.77 57.70 369.50
  Q 59.44 369.16 61.22 369.47
  Z"
/>
<path fill="#212028" d="
  M 64.21 369.68
  Q 63.29 369.78 62.54 369.57
  L 64.21 369.68
  Z"
/>
<path fill="#212028" d="
  M 78.54 369.66
  L 77.50 369.66
  Q 78.03 369.57 78.54 369.66
  Z"
/>
<path fill="#212028" d="
  M 100.21 374.56
  L 97.95 374.66
  Q 98.86 374.30 100.21 374.56
  Z"
/>
<path fill="#212028" d="
  M 44.72 380.12
  L 35.20 379.29
  Q 36.91 379.51 38.16 378.96
  A 1.19 1.16 85.5 0 0 38.83 378.16
  Q 39.66 374.78 43.17 374.92
  A 1.06 1.06 0.0 0 1 44.17 376.17
  Q 43.81 378.13 44.72 380.12
  Z"
/>
<path fill="#212028" d="
  M 79.73 375.58
  L 78.20 375.64
  Q 78.65 375.26 79.73 375.58
  Z"
/>
<path fill="#212028" d="
  M 141.89 376.71
  L 141.91 375.37
  L 141.89 376.71
  Z"
/>
<path fill="#91919c" d="
  M 288.36 376.37
  L 288.50 379.66
  L 286.97 380.92
  A 1.03 1.03 0.0 0 1 285.29 380.20
  Q 285.19 378.70 285.39 376.80
  A 1.56 1.52 -80.2 0 1 287.27 375.44
  Q 287.88 375.59 288.36 376.37
  Z"
/>
<path fill="#212028" d="
  M 67.02 376.05
  L 65.71 376.21
  Q 66.32 375.90 67.02 376.05
  Z"
/>
<path fill="#fefcf7" d="
  M 371.15 383.67
  Q 369.43 384.37 367.86 383.89
  Q 365.77 381.11 365.93 377.39
  A 1.63 1.63 0.0 0 1 367.69 375.84
  L 371.04 376.12
  A 1.92 1.92 0.0 0 1 372.81 377.91
  Q 373.02 380.95 371.15 383.67
  Z"
/>
<path fill="#91919c" d="
  M 273.78 379.41
  Q 272.33 380.19 272.40 381.00
  Q 272.76 385.01 269.89 387.32
  Q 270.97 384.28 270.55 381.10
  A 0.97 0.95 0.5 0 0 269.74 380.29
  L 269.20 380.21
  A 0.41 0.41 0.0 0 1 269.14 379.41
  Q 271.53 378.65 273.78 379.41
  Z"
/>
<path fill="#91919c" d="
  M 268.01 388.28
  C 263.69 389.38 261.30 385.97 261.04 382.07
  C 260.94 380.54 260.36 380.20 259.08 379.66
  Q 262.15 378.81 265.05 379.82
  A 0.16 0.16 0.0 0 1 265.11 380.08
  Q 264.05 381.27 264.09 382.56
  C 264.18 385.39 264.36 388.12 268.01 388.28
  Z"
/>
<path fill="#212028" d="
  M 23.97 379.83
  Q 23.46 379.93 22.95 379.85
  L 23.97 379.83
  Z"
/>
<path fill="#91919c" d="
  M 47.98 379.79
  Q 46.50 380.14 44.91 379.94
  Q 46.16 379.30 47.98 379.79
  Z"
/>
<path fill="#212028" d="
  M 172.94 388.76
  Q 171.61 388.20 169.93 389.05
  Q 169.12 388.76 168.11 388.99
  L 167.55 379.79
  L 170.64 380.10
  A 1.69 1.69 0.0 0 1 172.15 381.78
  L 172.15 385.93
  A 1.17 1.15 15.5 0 0 172.73 386.93
  L 174.35 387.86
  A 0.42 0.42 0.0 0 1 174.18 388.64
  L 172.94 388.76
  Z"
/>
<path fill="#91919c" d="
  M 184.27 380.02
  Q 182.58 380.46 182.99 383.60
  Q 183.29 385.84 182.60 386.79
  Q 181.67 388.06 179.79 388.54
  Q 182.41 384.48 180.48 380.69
  A 0.42 0.42 0.0 0 1 180.74 380.10
  Q 182.53 379.58 184.27 380.02
  Z"
/>
<path fill="#fefcf7" d="
  M 192.78 380.54
  L 191.92 381.41
  A 0.75 0.74 14.7 0 0 192.65 382.65
  Q 194.67 382.11 196.10 380.30
  Q 196.23 380.32 196.37 380.33
  A 0.33 0.32 -86.8 0 1 196.64 380.64
  Q 196.76 382.72 196.03 385.04
  Q 193.80 384.52 191.90 384.79
  Q 190.15 381.55 192.32 380.38
  Q 192.46 380.21 192.78 380.54
  Z"
/>
<circle fill="#91919c" cx="196.69" cy="387.50" r="0.41"/>
<path fill="#fefcf7" d="
  M 172.94 388.76
  L 173.64 389.48
  L 173.60 392.24
  A 1.40 1.28 25.0 0 0 173.98 393.16
  Q 174.34 393.54 175.21 393.53
  A 0.73 0.73 0.0 0 1 175.78 394.72
  L 174.55 396.23
  A 1.29 1.28 64.1 0 0 174.25 397.11
  L 176.16 452.18
  A 1.57 1.55 59.6 0 1 175.94 453.05
  Q 172.77 458.32 168.02 460.95
  Q 158.85 460.75 156.34 461.83
  Q 155.89 462.03 153.49 463.05
  A 1.01 0.99 36.6 0 1 152.99 463.12
  L 148.44 462.45
  A 1.50 1.50 0.0 0 0 147.23 462.81
  L 146.13 463.80
  A 0.86 0.85 37.4 0 1 145.18 463.92
  L 143.90 463.29
  A 1.08 1.08 0.0 0 0 142.83 463.34
  Q 141.21 464.39 139.81 463.52
  A 1.31 1.29 -32.5 0 0 138.96 463.34
  L 133.76 464.02
  A 0.68 0.68 0.0 0 1 133.30 463.91
  Q 131.80 462.95 131.24 462.98
  Q 117.73 463.85 115.09 464.08
  A 6.95 6.56 -54.3 0 0 113.69 464.35
  L 110.53 465.35
  A 0.45 0.45 0.0 0 1 110.12 464.56
  Q 113.62 461.87 117.86 461.59
  Q 132.54 460.63 151.74 458.84
  A 6.03 5.75 -42.8 0 1 153.11 458.86
  Q 158.95 459.63 165.06 458.81
  L 168.49 458.67
  A 1.00 0.98 -64.9 0 0 169.08 458.45
  L 171.69 456.35
  A 1.56 1.25 -85.0 0 0 171.91 456.12
  Q 172.81 454.96 172.65 452.25
  Q 171.23 427.92 170.64 397.58
  Q 170.62 396.33 169.32 395.28
  A 1.49 1.47 12.9 0 1 168.82 394.50
  Q 167.84 390.84 169.93 389.05
  Q 171.61 388.20 172.94 388.76
  Z"
/>
<path fill="#91919c" d="
  M 169.93 389.05
  Q 167.84 390.84 168.82 394.50
  A 1.49 1.47 12.9 0 0 169.32 395.28
  Q 170.62 396.33 170.64 397.58
  Q 171.23 427.92 172.65 452.25
  Q 172.81 454.96 171.91 456.12
  A 1.56 1.25 -85.0 0 1 171.69 456.35
  L 169.08 458.45
  A 1.00 0.98 -64.9 0 1 168.49 458.67
  L 165.06 458.81
  Q 164.24 457.30 162.91 456.41
  A 0.39 0.39 0.0 0 1 163.06 455.70
  Q 165.71 455.24 168.26 455.87
  A 1.39 1.38 9.6 0 0 169.98 454.65
  Q 170.26 451.49 170.11 447.50
  Q 169.28 425.31 168.04 399.76
  Q 167.89 396.79 166.31 394.24
  A 1.15 1.14 78.2 0 0 165.51 393.71
  Q 163.69 393.43 161.75 393.45
  Q 150.77 393.56 148.01 393.51
  Q 146.12 393.47 143.52 392.35
  A 0.19 0.19 0.0 0 1 143.57 391.99
  Q 147.30 391.55 151.27 391.40
  Q 153.89 391.30 158.21 390.46
  Q 161.59 389.81 165.73 390.25
  Q 166.75 390.36 168.11 388.99
  Q 169.12 388.76 169.93 389.05
  Z"
/>
<path fill="#91919c" d="
  M 227.47 389.83
  Q 227.23 390.68 225.62 390.59
  Q 208.88 392.07 192.25 392.49
  Q 190.62 392.53 188.00 393.39
  Q 187.11 392.14 187.80 390.31
  Q 204.63 389.66 221.48 390.50
  A 2.20 2.14 -45.8 0 0 221.84 390.49
  L 227.47 389.83
  Z"
/>
<path fill="#91919c" d="
  M 290.01 433.83
  Q 289.59 438.70 290.81 443.48
  L 291.43 461.22
  L 292.00 475.19
  Q 291.79 480.63 291.91 486.24
  Q 291.92 486.69 292.36 486.75
  Q 292.82 486.81 293.04 486.31
  L 298.15 486.66
  A 0.89 0.89 0.0 0 1 298.98 487.48
  L 299.46 494.21
  A 0.88 0.88 0.0 0 1 298.64 495.16
  L 289.09 495.84
  Q 288.50 486.03 288.17 476.12
  Q 287.80 465.12 287.41 456.38
  C 286.99 446.88 287.12 438.21 286.68 427.54
  Q 285.93 409.93 285.87 392.20
  A 1.28 1.28 0.0 0 1 287.00 390.93
  L 287.04 390.92
  A 1.06 1.05 -4.3 0 1 288.22 391.93
  Q 288.45 397.73 288.36 407.99
  Q 288.35 408.72 288.75 409.71
  A 2.25 2.14 -58.5 0 1 288.92 410.51
  L 290.01 433.83
  Z"
/>
<path fill="#ebe8b1" d="
  M 296.73 433.93
  Q 298.11 438.30 297.39 442.97
  Q 295.89 442.94 294.54 443.44
  Q 294.37 443.50 294.21 443.56
  L 293.46 443.65
  L 291.98 443.73
  L 290.81 443.48
  Q 289.59 438.70 290.01 433.83
  L 296.73 433.93
  Z"
/>
<path fill="#212028" d="
  M 297.39 442.97
  Q 296.22 443.69 294.54 443.44
  Q 295.89 442.94 297.39 442.97
  Z"
/>
<path fill="#212028" d="
  M 290.81 443.48
  L 291.98 443.73
  Q 290.84 444.08 291.01 445.24
  Q 291.15 446.24 291.38 447.24
  A 7.29 6.92 40.5 0 1 291.55 448.87
  L 291.43 461.22
  L 290.81 443.48
  Z"
/>
<path fill="#212028" d="
  M 294.21 443.56
  Q 293.85 443.67 293.46 443.65
  L 294.21 443.56
  Z"
/>
<path fill="#91919c" d="
  M 178.21 479.63
  L 177.86 461.27
  Q 178.93 459.33 181.05 457.57
  L 203.48 456.42
  L 204.21 456.36
  L 207.04 456.21
  L 207.80 456.14
  Q 218.53 455.89 229.25 455.03
  Q 230.68 454.92 232.06 455.15
  A 0.85 0.85 0.0 0 1 231.98 456.83
  L 187.53 460.06
  A 9.08 8.20 41.6 0 1 186.28 460.07
  L 182.95 459.90
  A 0.43 0.43 0.0 0 0 182.79 460.74
  L 186.26 461.92
  A 0.90 0.90 0.0 0 1 186.79 463.14
  L 186.61 463.48
  A 0.95 0.94 -72.2 0 1 185.63 463.99
  L 181.79 463.43
  A 0.73 0.73 0.0 0 0 180.95 464.12
  Q 180.71 469.75 181.60 475.11
  Q 182.32 479.48 178.21 479.63
  Z"
/>
<path fill="#212028" d="
  M 207.80 456.14
  L 207.04 456.21
  Q 207.39 456.09 207.80 456.14
  Z"
/>
<path fill="#212028" d="
  M 204.21 456.36
  L 203.48 456.42
  L 204.21 456.36
  Z"
/>
<path fill="#91919c" d="
  M 40.75 614.31
  Q 46.56 606.63 51.99 599.49
  Q 56.09 594.10 60.66 589.90
  Q 65.13 587.03 68.65 581.69
  Q 71.85 576.82 76.58 571.83
  Q 80.63 567.55 84.72 563.27
  C 88.24 559.59 91.16 554.21 95.15 550.64
  C 99.50 546.77 101.07 544.24 104.47 540.80
  Q 106.36 538.89 107.78 536.50
  C 110.45 531.99 115.59 528.16 118.84 523.94
  Q 120.83 521.36 126.62 514.84
  A 0.28 0.10 -70.7 0 0 126.66 514.79
  L 128.68 511.74
  A 4.34 4.25 86.4 0 1 129.38 510.93
  Q 132.53 508.13 134.35 506.11
  Q 141.42 498.25 147.31 491.07
  Q 155.73 480.83 162.17 473.13
  Q 163.28 471.81 165.40 469.88
  A 1.66 0.60 -59.2 0 0 165.54 469.73
  L 176.13 456.55
  A 0.48 0.47 49.2 0 1 176.91 456.61
  L 177.08 456.91
  A 1.03 1.02 49.1 0 1 177.00 458.07
  L 168.71 468.43
  A 1.15 0.96 85.0 0 0 168.57 468.63
  L 167.73 470.27
  A 3.84 3.57 -13.2 0 1 167.30 470.91
  L 153.10 487.21
  A 0.28 0.10 -70.7 0 1 153.06 487.26
  Q 150.29 489.56 146.44 494.67
  Q 140.26 502.86 130.54 512.75
  A 12.86 12.55 -6.4 0 0 129.02 514.61
  Q 124.53 521.25 118.59 527.15
  C 114.15 531.55 111.30 534.59 107.59 539.66
  Q 104.11 544.41 101.30 547.32
  Q 91.68 557.29 90.34 559.06
  A 5.34 5.11 -12.8 0 0 89.91 559.71
  Q 88.62 561.97 87.19 563.69
  C 83.59 568.01 79.62 571.02 76.12 575.29
  Q 73.19 578.86 70.88 581.17
  A 6.47 6.16 82.2 0 0 69.71 582.79
  C 67.45 587.25 62.80 590.37 59.91 593.80
  C 56.04 598.38 51.09 602.70 47.89 608.64
  Q 46.49 611.22 40.75 614.31
  Z"
/>
<path fill="#fefcf7" d="
  M 177.86 461.27
  L 178.21 479.63
  Q 175.19 480.21 172.46 479.50
  Q 171.16 474.57 171.76 468.44
  Q 173.66 464.63 177.86 461.27
  Z"
/>
<path fill="#91919c" d="
  M 171.76 468.44
  Q 171.16 474.57 172.46 479.50
  Q 169.89 478.91 168.99 476.05
  Q 169.24 474.21 168.59 472.44
  L 168.62 471.33
  A 1.09 1.07 -18.5 0 1 169.03 470.53
  L 171.76 468.44
  Z"
/>
<path fill="#212028" d="
  M 168.99 476.05
  Q 168.35 474.62 168.59 472.44
  Q 169.24 474.21 168.99 476.05
  Z"
/>
<path fill="#212028" d="
  M 293.04 486.31
  Q 292.82 486.81 292.36 486.75
  Q 291.92 486.69 291.91 486.24
  Q 291.79 480.63 292.00 475.19
  Q 292.62 479.88 292.37 485.62
  Q 292.35 486.10 293.04 486.31
  Z"
/>
</svg>
