<?xml version="1.0" encoding="UTF-8" standalone="no"?>
<!-- Created with Inkscape (http://www.inkscape.org/) -->

<svg
   version="1.1"
   id="svg1"
   width="682.66669"
   height="853.33331"
   viewBox="0 0 682.66669 853.33331"
   xmlns="http://www.w3.org/2000/svg"
   xmlns:svg="http://www.w3.org/2000/svg"
   xmlns:rdf="http://www.w3.org/1999/02/22-rdf-syntax-ns#"
   xmlns:cc="http://creativecommons.org/ns#"
   xmlns:dc="http://purl.org/dc/elements/1.1/">
  <title
     id="title1">ePOP on Cassiope Icon SVG</title>
  <defs
     id="defs1" />
  <g
     id="g1">
    <path
       style="fill:currentColor"
       d="m 54.933335,821.06665 c 11.669901,-29.51048 43.518192,-54.5447 63.230035,-81.98021 34.06089,-40.84839 70.84088,-80.6133 102.28882,-122.904 -22.01111,1.50224 -60.93773,9.04678 -73.18423,0.93583 24.25534,-14.45225 81.64589,10.164 77.68168,-27.83307 -1.03067,-30.05475 7.69734,-73.69305 -36.1134,-65.39601 4.52629,-11.37614 41.69934,5.43966 33.20145,-16.38043 4.13673,-27.91424 -32.33154,27.09887 -36.1308,-9.50877 -42.87585,2.95718 -86.125735,3.72868 -128.499985,9.91598 -15.706151,4.70455 -67.992239,-1.55561 -34.997647,-17.20821 53.764788,-2.48906 107.680112,2.07457 161.496382,-2.20298 -9.17109,-37.08539 -2.23321,-76.48921 -4.9374,-114.45064 0.12054,-40.81556 -2.52311,-81.59915 -2.5029,-122.39335 9.30844,-16.06566 7.81811,-15.51078 17.25734,-6.64697 28.88541,-5.29174 61.33386,-5.78224 83.55722,-21.84499 15.2636,-0.38797 71.62453,11.2395 37.4649,-17.09439 C 251.30066,138.22452 188.91576,69.355404 126.66667,0.42817499 159.90296,9.0983163 177.87028,51.518518 205.22074,73.687459 c 45.64126,49.027181 90.5021,98.974521 137.13961,146.966961 24.1593,-0.29584 78.10775,15.88644 79.77176,-15.0494 17.56335,-19.31446 6.15158,35.64834 35.60097,19.67997 6.5316,-5.08332 14.18373,-36.78659 19.60027,-8.58763 0.86394,25.16365 46.82466,3.23705 59.55614,21.96926 50.01576,-54.32939 96.47735,-112.15556 145.71967,-167.333328 -1.38106,31.656868 -36.88879,50.099228 -52.92454,75.796788 -25.02267,29.68369 -51.03087,58.58466 -75.03033,89.08013 -1.33625,18.58142 -31.82579,20.71636 -19.05041,45.47391 4.86085,53.83019 3.41377,107.93139 5.79567,161.82319 12.85068,15.18556 22.34498,40.40827 45.92755,33.82597 22.42997,4.63762 53.9734,-18.71115 70.95029,0.36485 -3.77047,32.30853 -50.86048,4.10066 -73.23284,10.37605 -17.43102,0.63197 27.75563,33.57043 31.82749,44.85519 20.82644,29.30915 53.76097,53.35038 65.75991,86.52717 -8.14102,4.93702 -33.97258,-39.77139 -48.43185,-51.52954 -23.53506,-25.82011 -44.77117,-53.69672 -68.91128,-78.95202 -22.43717,1.30721 -48.36896,0.46615 -64.77088,13.29373 -15.23651,34.36714 -23.72693,-27.47142 -42.34561,-20.57735 -18.53147,-0.80563 3.59662,40.85626 -28.27951,29.73781 -20.44953,2.7141 -8.10368,-51.50582 -34.12345,-22.1187 -18.81156,20.74416 -3.48556,56.44339 -5.94506,85.43982 17.93167,11.23457 -7.50726,21.4365 0.96232,39.79704 -5.96139,20.64279 25.00191,59.61418 -10.61466,43.56863 -2.04763,-50.94741 -3.34702,-101.957 -6.15927,-152.83478 -9.61181,3.59952 -21.85823,25.36654 -30.76793,2.1554 -0.62856,-35.27813 -29.06207,24.25127 -41.54267,31.72439 -16.46036,21.70911 -47.34697,48.41906 -53.19838,68.50446 17.10117,2.24185 58.09032,-7.96739 59.9063,2.90373 -19.05579,6.60147 -64.54706,-6.10935 -65.11933,18.15865 0.54464,31.27022 -25.95868,-10.79093 -30.624,16.01095 -50.73377,58.34513 -99.44674,118.53697 -150.91406,176.21991 l -3.850671,1.62917 -2.968604,-1.52101 z M 234.66667,629.25463 c -1.75377,-23.68999 -3.07853,25.04495 0,0 z m 19.66569,-51.12712 c 7.96224,-16.87544 52.645,-47.81783 37.30749,-55.03258 -37.37124,-5.2697 -65.11781,7.32984 -54.22907,47.9853 4.76422,15.25917 -7.52427,41.61352 16.92158,7.04728 z m 43.04943,-59.46086 c 19.05929,1.7047 42.09589,-50.54469 21.75641,-27 -8.53151,14.82796 -13.00731,-15.4953 -33.08792,-4.99999 5.61468,14.34535 -34.91545,20.25834 -15.72055,31.6091 8.99219,0.88874 18.03705,1.16547 27.05206,0.39089 z m -37.74233,-1.66666 c -15.64107,-21.80095 -26.15242,9.89791 0,0 z m -22.72863,-6.58334 c -2.4676,-2.71606 1.33837,7.804 0,0 z m 120.42251,-0.0167 c -2.12461,-7.14935 -1.85962,9.10072 0,0 z m 135.57749,-3.98334 c -2.46758,-2.71605 1.33838,7.804 0,0 z m -130.24415,-3.50938 c 16.12889,-21.14354 -19.82941,-17.28831 -10.275,-5.07448 -4.24733,-4.59092 -15.8635,9.41776 10.275,5.07448 z M 549.00002,477.348 c 11.25711,-2.76019 -15.44187,-29.22391 -10.45504,-2.11456 -14.21929,6.24066 7.92768,1.2801 10.45504,2.11456 z m -14.33334,-46.77658 c -2.16852,-6.61388 -5.58166,9.36127 0,0 z m 2.17394,-17.83138 c -15.72726,-41.11469 -5.66012,37.86552 0,0 z m -0.4557,-19.63604 c -6.70347,-20.17219 -6.25627,22.01905 0,0 z m -8.11824,-6.70401 c -6.1635,-2.5567 2.60417,10.14946 0,0 z m 4.90506,-11.43136 c -2.15201,-19.87755 -12.69685,17.61831 -2e-5,0 z m -2.92757,-19.21864 c -2.4676,-2.71606 1.33837,7.804 0,0 z m 0.24297,-28.48471 c -0.87095,-6.72735 -6.60498,10.47035 0,0 z m -2.48712,-10.59862 c -1.7033,-2.39165 -1.7033,2.39165 0,0 z m 3.55555,-14.88889 c -2.86129,0.41903 2.02324,3.87291 0,0 z m 0,-6.66667 c -2.86129,0.41903 2.02324,3.87291 0,0 z m 0.44445,-6.97002 c -8.13098,-4.8621 -3.56646,5.75592 0,0 z m 0,-3.47442 c -1.7033,-2.39165 -1.7033,2.39165 0,0 z m -1.33334,-10.66667 c -1.70332,-2.39163 -1.70327,2.39165 0,0 z"
       id="path1" />
  </g>
  <metadata
     id="metadata1">
    <rdf:RDF>
      <cc:Work
         rdf:about="">
        <dc:title>ePOP on Cassiope Icon SVG</dc:title>
        <dc:source>https://www.esa.int/var/esa/storage/images/esa_multimedia/images/2018/02/cassiope_carries_e-pop/17387505-1-eng-GB/Cassiope_carries_e-POP.jpg</dc:source>
      </cc:Work>
    </rdf:RDF>
  </metadata>
</svg>
