<?xml version="1.0" encoding="UTF-8" standalone="no"?>
<!-- Created with Inkscape (http://www.inkscape.org/) -->

<svg
   version="1.1"
   id="svg1"
   width="682.66669"
   height="166.66667"
   viewBox="0 0 682.66669 166.66667"
   xmlns="http://www.w3.org/2000/svg"
   xmlns:svg="http://www.w3.org/2000/svg"
   xmlns:rdf="http://www.w3.org/1999/02/22-rdf-syntax-ns#"
   xmlns:cc="http://creativecommons.org/ns#"
   xmlns:dc="http://purl.org/dc/elements/1.1/">
  <title
     id="title1">AWS Icon SVG</title>
  <defs
     id="defs1" />
  <g
     id="g1">
    <path
       style="fill:currentColor"
       d="m 25.577865,165.66863 c 14.434492,-0.21509 38.434493,-0.21538 53.333335,-6.5e-4 14.898842,0.21473 3.088802,0.39072 -26.244532,0.39108 -29.333334,3.6e-4 -41.523295,-0.17533 -27.088803,-0.39043 z m 400.717465,-0.001 37.62865,-0.37565 -1.45785,-3.19963 c -0.80181,-1.75979 -2.58471,-3.49431 -3.96198,-3.85447 -2.00285,-0.52376 -2.50414,-1.91206 -2.50414,-6.93518 0,-5.87711 -0.19261,-6.2255 -3,-5.42629 -1.65,0.46973 -5.84166,1.54083 -9.3148,2.38023 -4.06014,0.98126 -6.59154,2.39807 -7.08985,3.96813 -0.93437,2.94393 -1.13543,2.9544 -9.3364,0.48627 -5.71072,-1.71868 -7.19627,-1.71868 -12.25851,0 -6.67762,2.26711 -12.10345,2.48417 -16.86298,0.6746 -2.33501,-0.88777 -4.90696,-0.74879 -8.37735,0.45269 -6.75506,2.33866 -13.76011,0.34339 -13.76011,-3.91934 0,-2.90711 -2.26493,-4.58561 -6.18774,-4.58561 -1.0833,0 -1.58101,0.62881 -1.10602,1.39737 0.475,0.76855 -2.38176,-0.28145 -6.34834,-2.33334 l -7.21197,-3.7307 0.13919,-9.01518 c 0.12473,-8.07891 0.53404,-9.39441 3.94111,-12.66667 2.09106,-2.00832 3.33257,-2.75148 2.75891,-1.65148 -0.73812,1.41535 -0.61283,1.6075 0.42861,0.65731 1.61404,-1.47262 2.47944,-40.800081 0.95219,-43.271231 -0.48595,-0.78627 -1.53478,-1.02709 -2.33075,-0.535155 -0.88265,0.545509 -1.062,0.27114 -0.45975,-0.703324 1.76301,-2.852606 -2.00129,-5.480938 -7.84981,-5.480938 -3.08799,0 -6.03189,0.417367 -6.542,0.927481 -0.51011,0.510115 -1.66011,1.052366 -2.55556,1.205002 -0.89544,0.152636 -7.32807,1.229169 -14.29474,2.392296 -6.96666,1.163127 -26.73025,4.529256 -43.91907,7.480287 -17.18883,2.951031 -33.08883,5.658566 -35.33334,6.016745 -2.24451,0.358179 -7.67001,1.279935 -12.05668,2.048346 -4.38667,0.768411 -9.28701,1.068007 -10.88966,0.66577 -1.60264,-0.402238 -3.12613,-0.09462 -3.38553,0.683587 -0.25941,0.77821 -1.95906,1.612415 -3.77702,1.853788 -1.81795,0.241373 -15.62461,2.592472 -30.68146,5.224665 -15.05686,2.632193 -29.45686,5.120221 -32,5.528961 -2.54315,0.40873 -7.62391,1.30626 -11.29058,1.99451 -3.66666,0.68825 -19.26666,3.38363 -34.66666,5.98973 -15.400004,2.6061 -29.827141,5.64804 -32.060308,6.75986 -4.250759,2.11631 -8.606363,1.43054 -8.606363,-1.35504 0,-2.08922 -5.319592,-4.94968 -9.693893,-5.21261 -1.860952,-0.11186 -3.17307,-0.54439 -2.915816,-0.96119 0.687544,-1.11396 -8.998028,-4.4902 -11.723625,-4.08668 -1.311048,0.1941 -2.333334,-0.50419 -2.333334,-1.59382 0,-1.0666 -1.65,-2.40539 -3.666666,-2.9751 -4.804245,-1.357198 -4.402327,-1.212197 -9.000001,-3.246955 -2.2,-0.973637 -4.466695,-1.667795 -5.037101,-1.542574 -0.570405,0.125222 -1.37006,-0.640004 -1.777011,-1.700501 -0.406952,-1.060498 -1.590256,-1.60187 -2.629566,-1.203049 -1.039311,0.398821 -1.889655,0.06094 -1.889655,-0.750856 0,-0.811792 -1.535411,-1.475986 -3.412023,-1.475986 -1.876613,0 -3.083361,-0.531786 -2.681663,-1.181746 0.401697,-0.649961 -0.434124,-1.486266 -1.857381,-1.858456 -1.423258,-0.37219 -2.797182,-0.04839 -3.0531655,0.719564 C 8.7131791,89.1938 7.1526475,88.839604 5.0232848,87.444392 L 1.5162257,85.146478 0.97149562,89.573241 C 0.57472628,92.797596 0.36880606,92.138953 0.21338277,87.148391 -0.04112132,78.976393 -5.345116,80.545162 44.666668,74.000394 64.466669,71.409277 86.666669,68.424723 94.000003,67.368052 130.48891,62.11031 139.03545,61.136804 142.05394,61.894399 c 1.80367,0.452691 3.2794,0.296497 3.2794,-0.347098 0,-0.643595 12.15,-2.804581 27,-4.80219 14.85,-1.99761 35.1,-4.749519 45,-6.115354 9.9,-1.365835 33.9,-4.638165 53.33333,-7.271844 19.43334,-2.63368 45.83334,-6.229939 58.66667,-7.991686 l 23.33334,-3.203178 14.55773,2.481569 c 12.60187,2.148165 16.88194,2.299246 31.85701,1.124514 18.87898,-1.48098 24.27917,-0.562062 22.66622,3.856976 -0.79343,2.17378 -0.62262,2.15978 2.02629,-0.16609 5.07298,-4.454336 3.76975,-7.002084 -4.10725,-8.029458 -11.05039,-1.441269 -13.1747,-2.205395 -12.71838,-4.574873 0.41492,-2.154513 10.0949,-3.765349 57.98672,-9.649511 7.48092,-0.919133 13.29975,-2.159659 12.93075,-2.756724 -0.36901,-0.597065 0.18731,-0.756238 1.23626,-0.353718 1.04895,0.40252 26.60786,-2.61993 56.79758,-6.716557 L 590.79,-0.06923515 630.39501,3.9412782 c 52.4087,5.3070504 52.27168,5.2873455 52.27168,7.5171728 0,1.168522 -1.41915,1.874883 -3.76681,1.874883 -2.07175,0 -10.32175,1.175527 -18.33334,2.612283 -8.01159,1.436756 -32.26652,5.613236 -53.89986,9.281068 -21.63333,3.667831 -46.53333,7.924413 -55.33333,9.45907 -53.01509,9.24545 -50.67871,9.026563 -68.68376,6.434738 -11.25437,-1.620065 -17.11408,-1.942266 -18.8106,-1.034314 -3.53282,1.89071 -13.31838,2.562183 -12.25456,0.840894 0.52763,-0.853728 -0.0197,-1.045324 -1.43494,-0.502263 -1.36139,0.522416 -1.95745,0.343181 -1.47183,-0.442578 0.44888,-0.726307 -0.79406,-1.93276 -2.7621,-2.681008 -2.91019,-1.10645 -3.913,-0.919281 -5.37116,1.002497 -0.9861,1.299621 -1.81199,3.482893 -1.83532,4.851717 -0.033,1.934527 0.69094,2.348583 3.25058,1.859275 1.81114,-0.346221 3.01639,-0.181957 2.67834,0.365032 -0.33806,0.546988 1.43643,1.37931 3.94331,1.849603 5.18802,0.97328 6.0003,2.327432 5.06482,8.443654 -0.52448,3.429077 0.0657,5.069127 2.81268,7.816102 1.91204,1.912039 3.86182,5.530725 4.33285,8.041525 0.67902,3.619482 1.84124,4.976574 5.6108,6.551599 2.61492,1.09258 6.5328,3.921043 8.70641,6.285475 2.17361,2.364431 3.47062,3.456261 2.88224,2.426288 -0.72289,-1.265428 -0.56357,-1.559821 0.49131,-0.907869 0.8586,0.530645 1.19253,1.561158 0.74206,2.290029 -1.00916,1.632856 3.36137,6.697851 4.93846,5.72316 0.62692,-0.387462 0.82225,0.123218 0.43405,1.134843 -1.08165,2.818724 1.73992,8.965846 4.11538,8.965846 1.16143,0 1.82072,-0.4708 1.46509,-1.04622 -0.56081,-0.9074 3.36213,-1.15211 7.94187,-0.49541 1.74296,0.24993 4.54735,6.04559 4.54735,9.39772 0,1.3185 -1.11471,3.40608 -2.47714,4.63906 -1.68576,1.52559 -2.72815,4.89285 -3.26284,10.53999 -1.0141,10.71053 -4.16133,19.48901 -8.40203,23.43556 -1.85416,1.72554 -3.05233,3.96835 -2.66258,4.984 0.38974,1.01566 -0.0198,1.70385 -0.91006,1.52931 -0.89028,-0.17454 -1.52868,0.77266 -1.41868,2.10488 0.11,1.33223 -0.12327,2.09896 -0.51838,1.70385 -0.39511,-0.39511 -2.48114,0.76489 -4.63563,2.57778 l -3.91726,3.29615 -42.8977,-0.31172 -42.8977,-0.31172 z M 362.66668,122 c 1.72232,-1.83333 2.8315,-3.33333 2.46483,-3.33333 -0.36666,0 -2.07584,1.5 -3.79817,3.33333 -1.72232,1.83334 -2.8315,3.33334 -2.46483,3.33334 0.36666,0 2.07584,-1.5 3.79817,-3.33334 z m -3.33334,-0.66666 c 1.32732,-1.46667 2.1133,-2.66667 1.74664,-2.66667 -0.36667,0 -1.75265,1.2 -3.07997,2.66667 C 356.6727,122.8 355.88671,124 356.25338,124 c 0.36666,0 1.75265,-1.2 3.07996,-2.66666 z m 60.21638,-28.333337 c -0.36988,-0.916667 -0.67251,-0.166667 -0.67251,1.666667 0,1.833333 0.30263,2.583333 0.67251,1.666666 0.36988,-0.916666 0.36988,-2.416666 0,-3.333333 z m 24.45029,0.333333 c -0.78493,-1.466667 -1.72715,-2.666667 -2.09382,-2.666667 -0.36667,0 -0.0245,1.2 0.76049,2.666667 0.78494,1.466667 1.72716,2.666667 2.09382,2.666667 0.36667,0 0.0245,-1.2 -0.76049,-2.666667 z m -9.99439,-1.590522 c -0.11847,-1.60812 -1.0682,-3.10812 -2.11051,-3.333333 -1.2715,-0.274736 -1.34393,-0.152634 -0.22012,0.371069 0.92123,0.4293 1.33582,1.3293 0.92131,2 -0.41452,0.670699 -0.38285,1.819453 0.0704,2.552786 1.24694,2.017591 1.57597,1.626744 1.33894,-1.590522 z m -4.67227,1.066507 c 0,-0.288208 -0.93117,-0.881335 -2.06925,-1.318061 -1.18657,-0.455328 -1.72177,-0.231798 -1.25465,0.524015 0.78301,1.266938 3.3239,1.87393 3.3239,0.794046 z m 10.66666,-2.95197 c 0,-0.288208 -0.9,-0.524015 -2,-0.524015 -1.1,0 -2,0.581169 -2,1.291487 0,0.710318 0.9,0.946125 2,0.524015 1.1,-0.42211 2,-1.003279 2,-1.291487 z m -12,-1.857348 c 0,-0.733334 -1.05,-1.324146 -2.33333,-1.312917 -1.99406,0.01745 -2.04253,0.208349 -0.33333,1.312917 2.51628,1.626147 2.66666,1.626147 2.66666,0 z m -5.69444,-2.138889 c -0.44306,-0.443056 -1.59306,-0.490424 -2.55556,-0.105263 -1.06364,0.425635 -0.7477,0.741577 0.80556,0.805555 1.40555,0.05789 2.19305,-0.257237 1.75,-0.700292 z m 23.02778,-9.194445 c 0,-4.865497 -0.4412,-5.980097 -2.33334,-5.894737 -1.39391,0.06288 -1.66232,0.376022 -0.66666,0.777778 0.93517,0.377351 1.66666,2.964522 1.66666,5.894737 0,2.872222 0.3,5.222222 0.66667,5.222222 0.36667,0 0.66667,-2.7 0.66667,-6 z m -4,4.155436 c 0,-0.281176 -1.48185,-0.794502 -3.29299,-1.140724 -1.81114,-0.346221 -2.97573,-0.116168 -2.58797,0.511231 0.68277,1.10475 5.88096,1.66116 5.88096,0.629493 z m -3.66667,-11.038477 c -0.91667,-0.369883 -2.41667,-0.369883 -3.33333,0 -0.91667,0.369883 -0.16667,0.672515 1.66666,0.672515 1.83334,0 2.58334,-0.302632 1.66667,-0.672515 z m 15.87719,83.549712 c 0,-1.83334 0.30263,-2.58334 0.67252,-1.66667 0.36988,0.91667 0.36988,2.41667 0,3.33333 -0.36989,0.91667 -0.67252,0.16667 -0.67252,-1.66666 z M 175.75001,100.42252 c 0.9625,-0.38516 2.1125,-0.33779 2.55555,0.10526 0.44306,0.44306 -0.34444,0.75819 -1.75,0.70029 -1.55326,-0.064 -1.8692,-0.37992 -0.80555,-0.80555 z m 279.1766,-42.422518 c 0.0272,-2.2 0.326,-2.938581 0.66406,-1.641291 0.33806,1.29729 0.31582,3.09729 -0.0494,4 -0.36523,0.90271 -0.64182,-0.158709 -0.61465,-2.358709 z M 423.33335,34.666668 c -0.45323,-0.733334 -0.18864,-1.333334 0.58797,-1.333334 0.77662,0 1.41203,0.6 1.41203,1.333334 0,0.733333 -0.26459,1.333333 -0.58798,1.333333 -0.32339,0 -0.9588,-0.6 -1.41202,-1.333333 z m -12.33334,-2.252434 c 1.28334,-0.33537 3.38334,-0.33537 4.66667,0 1.28333,0.33537 0.23333,0.609763 -2.33333,0.609763 -2.56667,0 -3.61667,-0.274393 -2.33334,-0.609763 z M 409.33335,8.0000002 c 0,-0.7333333 0.6,-1.3333333 1.33333,-1.3333333 0.73333,0 1.33333,0.6 1.33333,1.3333333 0,0.7333334 -0.6,1.3333334 -1.33333,1.3333334 -0.73333,0 -1.33333,-0.6 -1.33333,-1.3333334 z"
       id="path1" />
  </g>
  <metadata
     id="metadata1">
    <rdf:RDF>
      <cc:Work
         rdf:about="">
        <dc:title>AWS Icon SVG</dc:title>
        <dc:source>https://tas-static.thalesaleniaspace.com/cms/public/styles/1920x1200/public/thales_images/arctic_weather_satellite_small_but_perfectly_formed-min.png.webp?VersionId=BcTlw0YTUyyiCgL7VKPpV1acEqv6poOk&amp;itok=GvYR8z18</dc:source>
      </cc:Work>
    </rdf:RDF>
  </metadata>
</svg>
