<?xml version="1.0" encoding="UTF-8" standalone="no"?>
<svg xmlns="http://www.w3.org/2000/svg" version="1.2" baseProfile="tiny" viewBox="0.00 0.00 512.00 125.00" width="512.00" height="125.00">
<path fill="#272831" d="
  M 507.04 7.10
  Q 501.90 9.51 496.23 9.84
  A 6.96 6.63 -53.1 0 0 494.73 10.09
  C 489.49 11.62 483.74 11.45 478.67 12.30
  A 0.83 0.82 5.7 0 0 478.04 12.81
  Q 477.95 13.05 477.81 13.44
  Q 477.65 13.92 476.84 13.44
  C 475.63 12.74 474.58 13.92 473.21 13.72
  Q 471.49 13.47 467.29 14.05
  A 1.80 1.72 21.8 0 0 466.45 14.39
  Q 464.63 15.76 461.85 15.87
  C 460.81 15.91 459.34 16.75 458.70 17.07
  A 0.68 0.68 0.0 0 1 457.83 16.85
  Q 457.28 16.07 456.06 15.81
  A 0.24 0.24 0.0 0 0 455.83 16.21
  L 457.49 17.98
  Q 446.99 19.65 436.50 21.42
  Q 436.24 21.47 435.47 21.19
  Q 435.86 20.55 435.62 20.19
  A 0.55 0.55 0.0 0 0 434.62 20.42
  Q 434.53 21.04 435.04 21.33
  Q 431.86 22.83 428.18 22.53
  Q 428.22 21.91 428.02 21.60
  Q 427.69 21.07 426.51 21.52
  Q 424.55 22.27 422.32 22.10
  A 0.43 0.43 0.0 0 0 422.01 22.86
  Q 422.94 23.65 424.21 23.60
  L 378.83 31.28
  Q 378.54 30.21 377.67 29.94
  A 0.91 0.90 -49.8 0 0 377.01 30.00
  L 373.53 31.73
  Q 372.64 31.96 371.69 31.76
  Q 371.33 31.30 371.53 30.40
  A 0.71 0.71 0.0 0 0 370.96 29.55
  L 368.89 29.20
  A 0.14 0.13 8.4 0 0 368.73 29.31
  L 368.68 29.58
  A 0.37 0.37 0.0 0 0 368.93 29.99
  Q 370.11 30.37 369.79 31.46
  L 369.05 31.41
  Q 368.87 30.83 368.04 31.31
  Q 367.47 31.29 366.92 30.94
  Q 367.15 30.10 367.01 29.48
  A 0.87 0.86 -1.5 0 0 366.32 28.83
  L 353.53 26.67
  A 0.65 0.65 0.0 0 0 352.85 27.63
  L 353.31 28.43
  A 0.46 0.46 0.0 0 0 353.91 28.61
  Q 354.90 28.12 356.37 28.12
  A 0.53 0.52 -53.5 0 1 356.52 29.15
  Q 356.31 29.21 355.78 29.28
  L 350.90 28.50
  A 1.82 1.79 36.3 0 0 349.87 28.65
  C 346.65 30.16 345.51 30.78 341.49 30.91
  A 1.38 1.36 57.9 0 1 340.81 30.75
  L 332.46 26.40
  A 1.22 1.22 0.0 0 0 330.80 26.94
  L 329.77 29.02
  L 329.14 26.73
  A 1.18 1.15 44.9 0 0 326.89 26.71
  Q 326.76 27.23 326.95 28.13
  Q 327.07 28.68 327.51 29.01
  Q 328.00 29.38 328.01 29.95
  Q 328.01 30.33 327.22 31.32
  Q 326.20 32.60 326.05 34.37
  Q 324.29 35.00 322.72 34.03
  A 0.56 0.56 0.0 0 1 322.60 33.18
  C 324.01 31.64 327.17 29.59 326.65 27.29
  A 0.29 0.29 0.0 0 0 326.08 27.29
  Q 325.59 29.54 323.55 30.00
  A 0.74 0.74 0.0 0 1 322.79 29.72
  Q 322.52 29.34 322.28 29.28
  A 0.40 0.40 0.0 0 0 321.77 29.69
  Q 321.85 31.24 320.65 33.35
  A 0.69 0.68 -70.1 0 1 319.94 33.69
  L 315.70 32.97
  A 0.34 0.34 0.0 0 1 315.52 32.39
  L 320.02 27.89
  A 1.49 1.49 0.0 0 0 320.44 26.74
  Q 320.24 23.94 323.33 22.79
  A 0.32 0.32 0.0 0 0 323.46 22.27
  Q 323.24 22.02 322.71 22.11
  Q 320.69 22.46 320.26 21.51
  A 1.05 1.04 -14.3 0 0 319.22 20.90
  Q 313.80 21.35 308.18 19.93
  A 0.52 0.52 0.0 0 1 308.20 18.91
  Q 314.79 17.61 321.87 17.78
  Q 325.31 17.87 329.84 16.71
  Q 334.99 15.38 337.56 14.98
  Q 352.08 12.72 356.01 12.56
  Q 358.75 12.44 360.25 11.92
  A 1.79 0.16 -21.0 0 1 361.26 11.63
  L 366.76 10.95
  Q 367.89 11.41 368.05 10.80
  L 378.59 9.90
  A 0.04 0.04 0.0 0 0 378.63 9.86
  L 378.63 9.85
  A 0.01 0.01 0.0 0 0 378.62 9.83
  L 376.91 9.68
  A 0.03 0.02 -45.7 0 1 376.91 9.63
  Q 379.85 9.13 431.80 2.04
  Q 436.41 1.41 441.07 1.03
  Q 444.75 0.73 450.36 1.31
  Q 478.66 4.25 507.04 7.10
  Z
  M 348.45 18.82
  Q 348.53 18.85 352.35 19.20
  A 0.29 0.28 13.9 0 0 352.64 19.03
  Q 352.75 18.74 352.53 18.45
  A 0.60 0.59 -8.6 0 0 352.20 18.21
  Q 351.02 17.86 348.48 18.46
  A 0.19 0.19 0.0 0 0 348.45 18.82
  Z
  M 431.40 20.80
  A 0.47 0.41 72.6 0 0 431.08 21.53
  Q 431.45 22.07 431.89 21.94
  A 0.45 0.44 59.9 0 0 432.07 21.21
  Q 431.72 20.83 431.40 20.80
  Z
  M 334.87 24.41
  Q 336.81 24.66 340.78 25.43
  A 3.41 2.08 15.6 0 0 344.11 24.49
  Q 344.21 24.30 346.06 23.90
  A 0.11 0.11 0.0 0 0 346.14 23.74
  L 346.00 23.40
  A 0.23 0.22 67.3 0 0 345.70 23.27
  Q 340.46 25.28 335.00 23.86
  A 0.28 0.28 0.0 0 0 334.65 24.08
  L 334.64 24.11
  A 0.26 0.26 0.0 0 0 334.87 24.41
  Z"
/>
<path fill="#272831" d="
  M 308.36 6.74
  Q 308.10 6.79 307.84 6.46
  C 307.47 5.98 308.19 5.61 308.52 6.01
  A 0.47 0.40 62.1 0 1 308.36 6.74
  Z"
/>
<path fill="#514233" d="
  M 507.04 7.10
  L 512.00 7.43
  L 512.00 9.02
  Q 484.61 12.77 457.49 17.98
  L 455.83 16.21
  A 0.24 0.24 0.0 0 1 456.06 15.81
  Q 457.28 16.07 457.83 16.85
  A 0.68 0.68 0.0 0 0 458.70 17.07
  C 459.34 16.75 460.81 15.91 461.85 15.87
  Q 464.63 15.76 466.45 14.39
  A 1.80 1.72 21.8 0 1 467.29 14.05
  Q 471.49 13.47 473.21 13.72
  C 474.58 13.92 475.63 12.74 476.84 13.44
  Q 477.65 13.92 477.81 13.44
  Q 477.95 13.05 478.04 12.81
  A 0.83 0.82 5.7 0 1 478.67 12.30
  C 483.74 11.45 489.49 11.62 494.73 10.09
  A 6.96 6.63 -53.1 0 1 496.23 9.84
  Q 501.90 9.51 507.04 7.10
  Z"
/>
<path fill="#514233" d="
  M 368.05 10.80
  Q 367.89 11.41 366.76 10.95
  Q 367.37 10.71 368.05 10.80
  Z"
/>
<path fill="#514233" d="
  M 348.48 18.46
  Q 351.02 17.86 352.20 18.21
  A 0.60 0.59 -8.6 0 1 352.53 18.45
  Q 352.75 18.74 352.64 19.03
  A 0.29 0.28 13.9 0 1 352.35 19.20
  Q 348.53 18.85 348.45 18.82
  A 0.19 0.19 0.0 0 1 348.48 18.46
  Z"
/>
<path fill="#b0a08f" d="
  M 435.47 21.19
  Q 435.16 21.21 435.04 21.33
  Q 434.53 21.04 434.62 20.42
  A 0.55 0.55 0.0 0 1 435.62 20.19
  Q 435.86 20.55 435.47 21.19
  Z"
/>
<path fill="#b0a08f" d="
  M 431.40 20.80
  Q 431.72 20.83 432.07 21.21
  A 0.45 0.44 59.9 0 1 431.89 21.94
  Q 431.45 22.07 431.08 21.53
  A 0.47 0.41 72.6 0 1 431.40 20.80
  Z"
/>
<path fill="#b0a08f" d="
  M 428.18 22.53
  L 424.21 23.60
  Q 422.94 23.65 422.01 22.86
  A 0.43 0.43 0.0 0 1 422.32 22.10
  Q 424.55 22.27 426.51 21.52
  Q 427.69 21.07 428.02 21.60
  Q 428.22 21.91 428.18 22.53
  Z"
/>
<path fill="#514233" d="
  M 320.79 23.64
  L 316.07 23.46
  A 0.45 0.45 0.0 0 1 315.84 22.63
  Q 317.16 21.77 317.80 22.04
  Q 320.57 23.19 320.86 23.34
  A 0.16 0.16 0.0 0 1 320.79 23.64
  Z"
/>
<path fill="#272831" d="
  M 305.84 29.20
  Q 306.73 30.48 305.47 31.14
  Q 304.28 28.12 302.21 28.88
  A 0.29 0.29 0.0 0 0 302.26 29.44
  L 303.30 29.61
  A 1.11 1.10 89.6 0 1 304.20 30.50
  L 304.40 31.60
  A 1.01 1.00 89.2 0 0 305.23 32.41
  L 330.59 36.71
  A 0.60 0.59 -76.1 0 0 331.26 36.30
  Q 331.52 35.46 330.78 34.75
  A 0.37 0.36 -42.5 0 1 330.81 34.21
  Q 330.87 34.16 331.16 34.15
  Q 331.35 34.15 331.40 34.19
  Q 333.72 35.93 337.52 36.24
  A 0.93 0.92 -23.7 0 1 338.02 36.43
  L 339.36 37.40
  A 0.41 0.41 0.0 0 1 339.01 38.13
  Q 338.31 37.95 338.22 37.61
  A 0.50 0.48 85.3 0 0 337.81 37.25
  Q 335.86 37.01 332.47 37.40
  Q 330.43 37.64 318.48 39.40
  Q 316.91 39.63 315.19 39.06
  A 2.07 1.96 -39.2 0 0 314.24 38.99
  Q 307.98 40.08 302.24 41.06
  Q 301.67 41.16 301.93 41.65
  Q 300.08 42.80 298.01 42.83
  Q 291.40 44.75 284.78 43.94
  A 2.38 2.37 41.7 0 0 283.89 43.99
  L 279.45 45.05
  Q 279.08 46.52 277.76 46.63
  Q 270.76 47.21 265.39 48.54
  Q 265.36 48.54 265.33 48.54
  L 244.47 44.09
  A 0.48 0.48 0.0 0 0 243.89 44.50
  Q 243.81 45.07 243.36 45.72
  A 0.26 0.25 -66.0 0 0 243.51 46.12
  L 253.59 48.26
  A 0.37 0.18 -19.3 0 0 253.68 48.27
  L 258.58 48.61
  Q 258.60 49.07 257.56 49.19
  Q 257.00 49.77 256.76 49.81
  Q 253.48 50.35 242.10 52.33
  Q 240.28 52.64 237.55 51.87
  A 0.73 0.66 -40.0 0 0 237.24 51.86
  L 221.84 54.70
  A 0.15 0.15 0.0 0 0 221.77 54.74
  L 221.16 55.42
  A 1.07 1.05 -75.9 0 1 220.62 55.75
  L 216.38 56.82
  A 0.32 0.32 0.0 0 0 216.23 57.35
  L 216.58 57.72
  Q 216.52 57.84 216.47 57.96
  Q 216.25 57.73 216.01 57.82
  Q 215.76 57.90 215.76 58.36
  Q 213.57 58.19 211.62 58.59
  Q 206.09 59.74 199.70 61.00
  A 0.91 0.91 0.0 0 0 198.97 61.81
  Q 198.95 62.01 199.80 61.83
  Q 198.63 62.01 198.10 61.73
  Q 195.61 60.96 193.01 61.55
  A 1.24 1.23 6.9 0 0 192.19 62.19
  Q 191.87 62.83 191.16 62.89
  Q 190.99 62.90 190.49 62.51
  Q 190.13 62.23 189.74 62.31
  Q 187.69 62.71 185.65 63.16
  Q 185.07 63.03 184.78 63.19
  Q 184.54 62.54 184.10 62.66
  Q 182.27 63.16 182.09 64.76
  Q 181.93 64.93 181.35 64.95
  Q 181.30 64.00 180.33 63.70
  C 178.86 63.24 177.12 64.47 175.41 64.14
  A 1.48 1.44 -53.2 0 0 174.40 64.30
  L 171.68 65.88
  A 0.37 0.32 30.1 0 1 171.48 65.92
  Q 170.96 65.87 170.92 65.39
  A 0.65 0.64 89.4 0 0 170.33 64.80
  Q 169.41 64.73 169.26 65.33
  L 168.89 64.93
  A 0.68 0.67 -35.3 0 0 168.05 64.79
  Q 167.63 65.03 167.24 65.54
  Q 166.29 65.45 165.63 67.96
  Q 164.23 67.80 163.00 66.61
  Q 162.54 65.76 161.46 66.73
  A 1.05 0.96 -69.2 0 1 160.96 66.98
  L 149.89 69.02
  A 1.43 1.41 -68.1 0 0 149.34 69.26
  Q 148.23 70.07 145.76 70.31
  A 0.77 0.73 -71.9 0 0 145.26 70.58
  L 144.90 71.00
  A 0.40 0.39 -35.6 0 1 144.23 70.89
  Q 144.19 70.80 144.01 70.51
  Q 143.87 70.29 143.37 70.31
  Q 140.63 70.43 139.53 71.88
  Q 139.52 71.69 139.35 71.56
  A 0.34 0.33 26.2 0 0 138.81 71.74
  Q 138.80 71.81 138.89 72.00
  A 0.09 0.09 0.0 0 1 138.83 72.13
  L 135.49 72.89
  Q 134.69 71.37 131.43 72.10
  A 1.56 1.54 -75.3 0 0 130.62 72.58
  Q 130.15 73.12 130.18 73.59
  Q 129.68 74.20 128.64 74.08
  Q 129.18 72.98 129.07 72.38
  A 0.56 0.56 0.0 0 0 128.14 72.08
  L 126.71 73.40
  A 0.80 0.79 32.7 0 1 125.90 73.57
  Q 122.67 72.46 120.85 74.17
  A 0.92 0.92 0.0 0 1 119.85 74.33
  Q 119.01 73.94 118.51 74.27
  Q 118.00 74.61 118.12 75.15
  Q 118.22 75.60 118.76 75.77
  Q 117.26 76.53 116.66 76.13
  Q 116.09 74.53 111.94 75.33
  Q 112.09 75.05 111.44 74.89
  Q 111.45 74.44 110.73 74.60
  Q 109.25 74.95 108.58 77.47
  Q 107.85 78.00 106.99 77.88
  Q 107.57 77.53 107.33 76.76
  A 0.58 0.57 -7.3 0 0 106.81 76.36
  Q 106.17 76.33 105.98 77.05
  A 0.44 0.44 0.0 0 1 105.49 77.37
  L 104.02 77.12
  A 1.00 0.98 -57.9 0 0 103.27 77.30
  Q 102.32 77.99 100.95 77.61
  A 0.62 0.61 -68.7 0 0 100.23 77.93
  Q 100.03 78.31 100.23 78.73
  Q 99.94 79.17 99.50 79.30
  L 97.82 77.21
  A 0.22 0.22 0.0 0 0 97.55 77.15
  Q 97.21 77.30 97.35 77.76
  A 0.32 0.32 0.0 0 1 97.03 78.17
  L 93.83 78.05
  A 0.71 0.70 -86.0 0 0 93.11 78.68
  L 92.93 80.10
  L 87.98 81.06
  Q 86.53 79.88 82.01 80.04
  Q 80.28 80.10 79.98 81.15
  A 0.65 0.61 -7.8 0 1 79.67 81.53
  Q 78.75 82.04 78.24 82.67
  Q 77.67 82.93 76.70 82.96
  Q 78.16 82.00 77.95 80.94
  A 0.44 0.44 0.0 0 0 77.25 80.69
  Q 77.24 80.70 77.09 81.23
  A 0.85 0.84 -80.9 0 1 76.24 81.85
  L 72.96 81.73
  A 0.81 0.81 0.0 0 0 72.15 82.34
  Q 72.00 82.94 72.22 83.64
  L 70.71 84.18
  Q 70.76 83.71 70.67 83.31
  Q 70.94 82.35 70.84 81.83
  A 0.66 0.66 0.0 0 0 69.66 81.56
  Q 68.46 83.17 67.02 83.52
  A 0.37 0.18 19.3 0 1 66.93 83.53
  L 59.61 83.42
  A 0.92 0.91 5.6 0 0 58.70 84.16
  Q 58.12 87.14 54.65 86.36
  Q 57.36 86.12 57.61 84.63
  A 0.48 0.48 0.0 0 0 57.15 84.07
  L 54.27 83.96
  L 50.64 83.45
  A 0.70 0.69 59.3 0 1 50.41 83.39
  L 13.44 67.68
  A 2.10 1.96 -10.1 0 1 12.79 67.26
  Q 10.97 65.56 8.78 65.32
  A 0.61 0.59 -27.2 0 1 8.52 65.24
  L 6.28 64.03
  A 0.57 0.57 0.0 0 0 5.51 64.82
  L 6.11 65.88
  A 0.29 0.29 0.0 0 1 5.71 66.28
  C 4.55 65.61 4.23 64.51 3.41 63.97
  Q 3.26 63.87 3.05 63.91
  A 0.87 0.84 -23.1 0 1 2.22 63.59
  Q 1.28 62.34 0.00 61.49
  L 0.00 60.56
  Q 13.44 58.90 26.86 56.95
  Q 32.82 56.09 38.10 55.55
  C 42.48 55.11 48.18 53.85 53.06 53.39
  Q 61.67 52.58 69.97 51.26
  C 82.84 49.23 88.22 48.68 102.10 46.83
  Q 104.88 46.45 108.90 47.51
  A 0.41 0.41 0.0 0 0 109.39 46.96
  L 109.28 46.71
  A 0.66 0.66 0.0 0 1 109.80 45.81
  Q 137.29 41.85 150.33 40.28
  C 164.65 38.56 175.41 36.75 190.05 34.97
  C 192.01 34.73 194.69 35.19 196.04 34.44
  Q 197.03 33.89 198.40 33.71
  Q 249.24 26.91 249.25 26.87
  Q 249.31 26.70 255.77 26.23
  Q 259.18 25.98 262.50 25.17
  Q 264.28 24.74 271.57 25.91
  Q 274.14 26.32 288.24 28.88
  Q 289.42 29.10 290.84 28.04
  A 1.59 1.57 -63.8 0 1 291.76 27.72
  Q 296.26 27.59 298.94 27.85
  Q 300.83 28.02 302.60 27.48
  Q 309.92 25.24 315.80 28.18
  A 0.60 0.57 -53.4 0 1 315.92 29.12
  Q 315.45 29.58 314.79 29.34
  Q 310.48 27.72 305.84 29.20
  Z
  M 248.11 33.24
  A 0.14 0.14 0.0 0 0 248.10 33.52
  L 252.22 34.39
  A 0.40 0.40 0.0 0 0 252.60 33.72
  Q 251.65 32.69 251.03 32.79
  Q 248.39 33.17 248.11 33.24
  Z
  M 257.91 33.55
  Q 257.60 33.48 254.69 33.08
  Q 254.01 32.98 252.98 34.12
  A 0.44 0.44 0.0 0 0 253.40 34.85
  L 257.92 33.85
  A 0.16 0.15 44.0 0 0 257.91 33.55
  Z
  M 246.01 38.71
  Q 244.95 38.40 243.96 38.73
  Q 239.66 40.13 236.46 39.89
  A 3.04 2.93 38.5 0 0 235.52 39.98
  Q 231.45 41.02 228.00 40.48
  Q 225.10 40.02 217.10 38.37
  A 0.80 0.80 0.0 0 0 216.15 39.02
  L 216.09 39.40
  A 0.62 0.62 0.0 0 0 216.60 40.12
  L 221.19 40.90
  A 0.48 0.48 0.0 0 1 221.32 41.81
  Q 219.93 42.49 216.72 43.10
  A 0.21 0.21 0.0 0 0 216.55 43.35
  L 216.60 43.60
  A 0.34 0.33 80.2 0 0 216.98 43.87
  L 225.62 42.67
  A 4.01 3.75 -41.2 0 1 226.86 42.71
  L 241.17 45.64
  A 0.69 0.67 20.2 0 0 241.89 45.32
  L 242.63 44.03
  A 0.44 0.44 0.0 0 0 242.33 43.38
  L 234.33 42.03
  A 0.33 0.33 0.0 0 1 234.33 41.38
  Q 239.40 40.51 239.67 40.42
  C 241.16 39.91 244.57 40.31 246.10 39.26
  A 0.31 0.31 0.0 0 0 246.01 38.71
  Z
  M 139.8575 46.2939
  A 1.88 0.51 -6.6 0 0 137.9314 46.0034
  A 1.88 0.51 -6.6 0 0 136.1225 46.7261
  A 1.88 0.51 -6.6 0 0 138.0486 47.0166
  A 1.88 0.51 -6.6 0 0 139.8575 46.2939
  Z
  M 131.94 53.63
  Q 133.02 54.17 133.92 54.19
  A 1.22 1.21 -12.9 0 1 134.99 54.86
  Q 135.00 54.89 135.02 55.00
  A 0.78 0.78 0.0 0 0 136.00 55.60
  Q 137.17 55.26 138.44 55.86
  A 0.44 0.44 0.0 0 0 139.05 55.59
  L 139.13 55.30
  A 0.29 0.29 0.0 0 0 138.93 54.93
  L 132.17 52.92
  A 0.18 0.17 -66.2 0 0 131.97 53.00
  L 131.82 53.25
  A 0.28 0.27 27.9 0 0 131.94 53.63
  Z
  M 131.00 53.26
  Q 130.94 53.10 130.33 53.12
  A 0.39 0.34 -15.3 0 0 129.98 53.65
  Q 130.21 54.01 130.29 54.04
  A 0.60 0.56 89.3 0 0 131.00 53.26
  Z
  M 140.54 55.18
  A 0.50 0.49 86.2 0 0 139.93 55.88
  Q 140.21 56.40 141.12 56.45
  A 0.32 0.32 0.0 0 0 141.39 55.93
  Q 140.90 55.31 140.54 55.18
  Z
  M 129.5823 56.7339
  A 2.02 0.48 -5.0 0 0 127.5282 56.4318
  A 2.02 0.48 -5.0 0 0 125.5577 57.0861
  A 2.02 0.48 -5.0 0 0 127.6118 57.3882
  A 2.02 0.48 -5.0 0 0 129.5823 56.7339
  Z
  M 143.5251 56.5501
  A 0.77 0.44 -130.0 0 0 143.6829 57.4228
  A 0.77 0.44 -130.0 0 0 144.5149 57.7299
  A 0.77 0.44 -130.0 0 0 144.3571 56.8572
  A 0.77 0.44 -130.0 0 0 143.5251 56.5501
  Z
  M 113.93 58.89
  Q 115.08 59.15 115.64 58.67
  A 0.49 0.49 0.0 0 0 115.24 57.82
  Q 115.22 57.83 113.88 58.45
  A 0.23 0.23 0.0 0 0 113.93 58.89
  Z
  M 148.82 58.63
  A 0.48 0.48 0.0 0 0 148.34 58.15
  A 0.48 0.48 0.0 0 0 147.86 58.63
  A 0.48 0.48 0.0 0 0 148.34 59.11
  A 0.48 0.48 0.0 0 0 148.82 58.63
  Z
  M 156.27 60.58
  A 0.35 0.35 0.0 0 0 156.58 61.03
  Q 160.79 61.27 164.50 63.98
  A 0.45 0.45 0.0 0 0 165.20 63.74
  L 165.36 63.20
  A 0.43 0.43 0.0 0 0 165.07 62.66
  L 156.67 60.16
  A 0.26 0.25 15.9 0 0 156.35 60.33
  L 156.27 60.58
  Z"
/>
<path fill="#b0a08f" d="
  M 329.77 29.02
  Q 328.23 31.27 328.35 34.20
  A 0.65 0.64 -7.6 0 1 327.85 34.85
  Q 326.99 35.06 326.05 34.37
  Q 326.20 32.60 327.22 31.32
  Q 328.01 30.33 328.01 29.95
  Q 328.00 29.38 327.51 29.01
  Q 327.07 28.68 326.95 28.13
  Q 326.76 27.23 326.89 26.71
  A 1.18 1.15 44.9 0 1 329.14 26.73
  L 329.77 29.02
  Z"
/>
<path fill="#514233" d="
  M 366.92 30.94
  L 355.78 29.28
  Q 356.31 29.21 356.52 29.15
  A 0.53 0.52 -53.5 0 0 356.37 28.12
  Q 354.90 28.12 353.91 28.61
  A 0.46 0.46 0.0 0 1 353.31 28.43
  L 352.85 27.63
  A 0.65 0.65 0.0 0 1 353.53 26.67
  L 366.32 28.83
  A 0.87 0.86 -1.5 0 1 367.01 29.48
  Q 367.15 30.10 366.92 30.94
  Z"
/>
<path fill="#514233" d="
  M 371.69 31.76
  Q 370.61 31.84 369.79 31.46
  Q 370.11 30.37 368.93 29.99
  A 0.37 0.37 0.0 0 1 368.68 29.58
  L 368.73 29.31
  A 0.14 0.13 8.4 0 1 368.89 29.20
  L 370.96 29.55
  A 0.71 0.71 0.0 0 1 371.53 30.40
  Q 371.33 31.30 371.69 31.76
  Z"
/>
<path fill="#514233" d="
  M 305.47 31.14
  Q 306.73 30.48 305.84 29.20
  Q 308.53 29.92 312.10 29.89
  Q 314.12 29.88 314.58 31.77
  A 0.44 0.43 -8.3 0 1 314.18 32.30
  Q 309.94 32.52 305.47 31.14
  Z"
/>
<path fill="#514233" d="
  M 378.83 31.28
  Q 376.11 32.08 373.53 31.73
  L 377.01 30.00
  A 0.91 0.90 -49.8 0 1 377.67 29.94
  Q 378.54 30.21 378.83 31.28
  Z"
/>
<path fill="#514233" d="
  M 369.05 31.41
  Q 368.52 31.46 368.04 31.31
  Q 368.87 30.83 369.05 31.41
  Z"
/>
<path fill="#b0a08f" d="
  M 339.23 45.96
  Q 339.20 46.62 339.11 46.69
  A 0.82 0.74 67.9 0 1 337.87 46.09
  L 337.49 42.96
  Q 337.85 42.46 337.12 42.00
  A 1.00 0.99 -78.0 0 1 336.65 41.27
  Q 336.50 39.91 335.17 40.71
  L 335.40 41.13
  A 0.31 0.31 0.0 0 1 335.13 41.59
  Q 334.34 41.62 333.78 42.03
  L 332.71 42.00
  Q 330.99 41.81 330.78 42.60
  A 0.38 0.37 -84.3 0 1 330.45 42.88
  L 328.72 43.02
  L 325.38 43.18
  Q 324.97 43.97 323.57 43.95
  A 2.03 1.84 32.6 0 0 322.92 44.06
  L 320.89 44.82
  Q 320.08 45.43 319.37 45.67
  Q 318.89 45.84 317.77 45.35
  Q 316.84 44.93 315.57 45.27
  Q 315.17 45.20 314.81 45.11
  Q 314.27 44.99 314.19 44.73
  Q 314.05 44.29 314.07 43.88
  A 0.53 0.53 0.0 0 1 314.69 43.39
  Q 316.12 43.62 317.28 43.40
  Q 317.33 43.08 317.55 43.03
  A 0.28 0.28 0.0 0 0 317.49 42.48
  Q 316.09 42.45 315.02 41.60
  A 0.65 0.65 0.0 0 0 314.06 41.78
  L 313.61 42.55
  Q 312.54 44.49 310.06 46.13
  A 1.62 1.62 0.0 0 1 307.70 45.47
  Q 307.69 45.45 308.30 44.72
  Q 309.94 43.50 309.04 42.94
  L 308.19 43.09
  A 0.75 0.73 -87.4 0 0 307.60 43.64
  Q 306.85 46.52 307.18 47.57
  Q 308.55 51.92 309.89 56.46
  A 1.34 1.14 -56.4 0 1 309.94 56.88
  L 309.61 61.96
  A 0.59 0.59 0.0 0 0 310.14 62.59
  L 312.70 62.85
  Q 312.23 62.79 311.62 64.19
  Q 311.52 64.08 311.37 64.17
  A 0.17 0.17 0.0 0 0 311.40 64.48
  L 313.14 64.99
  Q 313.25 65.76 313.01 66.02
  Q 312.45 66.05 312.45 66.50
  Q 312.45 67.10 312.92 67.53
  L 312.87 69.78
  C 312.05 70.03 312.15 70.98 312.89 71.28
  Q 312.50 71.82 312.53 72.73
  Q 311.20 72.83 310.66 71.00
  A 0.27 0.26 49.0 0 0 310.16 70.96
  Q 309.94 71.45 310.21 72.40
  A 0.92 0.91 -83.2 0 0 310.66 72.98
  L 312.48 73.97
  Q 312.07 74.38 312.05 75.20
  L 311.59 75.30
  A 0.19 0.19 0.0 0 0 311.59 75.68
  L 312.49 75.88
  Q 311.70 76.19 312.39 77.56
  Q 311.81 79.36 311.52 81.16
  Q 311.46 81.52 311.66 81.70
  Q 311.88 81.89 312.21 81.92
  Q 311.79 82.64 312.20 83.18
  Q 311.67 83.12 311.29 83.25
  A 0.27 0.27 0.0 0 0 311.28 83.76
  Q 311.58 83.87 311.97 83.89
  Q 311.56 85.41 312.58 85.15
  Q 310.61 85.29 310.00 86.02
  A 0.38 0.38 0.0 0 0 310.26 86.64
  Q 310.56 86.67 310.93 86.47
  A 0.49 0.49 0.0 0 1 311.61 86.69
  Q 311.88 87.22 311.59 87.63
  Q 311.23 88.13 311.07 88.10
  Q 310.62 88.00 310.51 88.14
  A 0.43 0.42 -70.1 0 0 310.83 88.83
  Q 311.78 88.85 312.20 89.53
  Q 311.95 89.97 311.89 90.63
  Q 311.74 90.38 311.48 90.33
  A 0.45 0.45 0.0 0 0 310.94 90.85
  Q 311.01 91.18 311.63 91.70
  Q 311.17 92.18 311.04 92.89
  L 310.65 92.90
  A 0.36 0.36 0.0 0 0 310.46 93.56
  Q 310.85 93.81 311.49 93.83
  Q 311.93 93.85 311.96 94.25
  Q 312.00 94.66 311.68 95.03
  A 0.82 0.80 -25.0 0 0 311.48 95.56
  L 311.37 103.88
  Q 311.26 104.85 311.70 105.20
  Q 311.23 105.64 311.78 106.12
  L 311.47 107.14
  Q 311.03 107.06 310.70 107.13
  A 0.33 0.32 44.2 0 0 310.71 107.77
  L 311.29 107.87
  Q 310.85 108.64 311.21 109.65
  Q 310.04 110.02 310.47 110.74
  Q 305.93 115.06 309.82 114.16
  Q 305.70 115.94 301.87 115.34
  L 302.15 109.55
  L 301.80 108.02
  Q 302.93 107.74 302.88 106.75
  Q 302.51 100.48 303.18 96.94
  A 3.87 3.58 -42.8 0 0 303.25 96.04
  Q 303.04 90.39 303.43 84.83
  C 303.61 82.12 303.20 78.88 303.39 76.50
  Q 303.91 70.05 304.15 63.52
  L 304.18 68.76
  A 0.18 0.18 0.0 0 0 304.45 68.92
  L 306.16 67.93
  A 0.52 0.47 80.1 0 0 306.40 67.55
  C 306.62 65.33 305.89 63.10 305.87 61.15
  Q 305.80 54.29 305.89 49.13
  A 0.42 0.42 0.0 0 0 305.29 48.75
  Q 305.15 48.81 304.99 49.13
  Q 304.08 47.27 304.27 45.18
  A 0.50 0.49 8.1 0 0 303.86 44.64
  L 303.09 44.51
  Q 301.66 43.21 299.78 43.30
  L 298.01 42.83
  Q 300.08 42.80 301.93 41.65
  L 303.25 42.31
  A 0.55 0.54 32.5 0 0 303.91 42.17
  Q 304.28 41.72 305.03 41.69
  Q 310.38 41.53 314.43 40.16
  A 1.54 1.52 -42.7 0 1 315.55 40.20
  Q 316.83 40.75 321.02 39.86
  Q 326.14 38.77 329.39 39.30
  Q 331.05 39.57 332.35 38.88
  Q 336.11 36.91 339.12 38.88
  A 1.10 1.09 18.6 0 1 339.61 39.86
  L 339.23 45.96
  Z
  M 328.64 41.40
  A 0.10 0.10 0.0 0 0 328.54 41.30
  A 0.10 0.10 0.0 0 0 328.44 41.40
  A 0.10 0.10 0.0 0 0 328.54 41.50
  A 0.10 0.10 0.0 0 0 328.64 41.40
  Z
  M 321.89 42.05
  Q 321.44 42.61 321.43 43.03
  A 0.55 0.35 -36.0 0 0 322.30 42.98
  Q 322.53 42.67 322.53 42.28
  A 0.36 0.36 0.0 0 0 321.89 42.05
  Z
  M 305.26 45.39
  Q 304.57 46.19 305.02 46.65
  A 0.79 0.57 -80.5 0 0 305.95 45.72
  Q 305.83 45.10 305.39 45.29
  A 0.28 0.28 0.0 0 0 305.26 45.39
  Z
  M 310.05 67.74
  A 0.23 0.23 0.0 0 0 310.48 67.70
  Q 310.65 67.01 310.53 66.80
  Q 310.26 66.35 309.90 66.78
  Q 309.70 67.01 310.05 67.74
  Z
  M 306.42 78.57
  Q 305.73 78.92 306.05 79.78
  A 0.47 0.42 55.0 0 0 306.81 79.96
  Q 307.05 79.66 306.86 78.78
  A 0.31 0.31 0.0 0 0 306.42 78.57
  Z
  M 308.92 96.02
  Q 308.72 96.14 308.35 96.79
  A 0.23 0.22 1.2 0 0 308.65 97.10
  Q 309.32 96.75 309.40 96.57
  A 0.41 0.35 89.3 0 0 308.92 96.02
  Z
  M 309.1720 106.5932
  A 0.27 0.14 -156.7 0 0 309.3646 106.8286
  A 0.27 0.14 -156.7 0 0 309.6680 106.8068
  A 0.27 0.14 -156.7 0 0 309.4754 106.5714
  A 0.27 0.14 -156.7 0 0 309.1720 106.5932
  Z
  M 305.05 108.38
  Q 304.38 108.85 304.34 108.96
  A 0.24 0.24 0.0 0 0 304.69 109.25
  Q 305.55 108.75 305.56 108.74
  A 0.33 0.33 0.0 0 0 305.05 108.38
  Z"
/>
<path fill="#514233" d="
  M 246.10 39.26
  C 244.57 40.31 241.16 39.91 239.67 40.42
  Q 239.40 40.51 234.33 41.38
  A 0.33 0.33 0.0 0 0 234.33 42.03
  L 242.33 43.38
  A 0.44 0.44 0.0 0 1 242.63 44.03
  L 241.89 45.32
  A 0.69 0.67 20.2 0 1 241.17 45.64
  L 226.86 42.71
  A 4.01 3.75 -41.2 0 0 225.62 42.67
  L 216.98 43.87
  A 0.34 0.33 80.2 0 1 216.60 43.60
  L 216.55 43.35
  A 0.21 0.21 0.0 0 1 216.72 43.10
  Q 219.93 42.49 221.32 41.81
  A 0.48 0.48 0.0 0 0 221.19 40.90
  L 216.60 40.12
  A 0.62 0.62 0.0 0 1 216.09 39.40
  L 216.15 39.02
  A 0.80 0.80 0.0 0 1 217.10 38.37
  Q 225.10 40.02 228.00 40.48
  Q 231.45 41.02 235.52 39.98
  A 3.04 2.93 38.5 0 1 236.46 39.89
  Q 239.66 40.13 243.96 38.73
  Q 244.95 38.40 246.01 38.71
  A 0.31 0.31 0.0 0 1 246.10 39.26
  Z"
/>
<path fill="#272831" d="
  M 337.49 42.96
  Q 336.44 42.45 336.08 41.35
  A 0.86 0.85 89.2 0 0 335.53 40.81
  L 335.17 40.71
  Q 336.50 39.91 336.65 41.27
  A 1.00 0.99 -78.0 0 0 337.12 42.00
  Q 337.85 42.46 337.49 42.96
  Z"
/>
<path fill="#514233" d="
  M 337.49 42.96
  L 337.87 46.09
  A 0.82 0.74 67.9 0 0 339.11 46.69
  Q 339.20 46.62 339.23 45.96
  Q 339.35 45.97 339.46 45.99
  Q 339.59 46.75 340.50 46.67
  Q 343.53 48.44 344.13 50.62
  Q 345.01 53.82 345.93 57.03
  A 1.71 1.71 0.0 0 0 347.31 58.25
  Q 351.20 58.85 354.71 62.19
  Q 353.35 63.07 352.23 62.85
  A 0.57 0.56 85.6 0 0 351.59 63.60
  Q 353.14 67.69 357.16 68.03
  A 2.24 2.23 -16.9 0 1 358.72 68.86
  Q 359.62 70.01 360.61 69.78
  Q 360.70 69.54 360.95 70.04
  Q 359.46 69.85 358.26 70.87
  A 1.33 1.32 25.3 0 1 357.38 71.18
  L 353.58 71.04
  A 0.36 0.36 0.0 0 0 353.25 71.58
  L 353.49 72.00
  A 1.10 1.07 -9.5 0 0 354.24 72.52
  Q 357.35 73.07 360.30 71.31
  Q 360.96 70.92 360.95 70.04
  Q 361.11 70.09 361.27 70.23
  A 0.20 0.13 90.0 0 1 361.33 70.32
  L 364.40 77.67
  A 1.91 1.91 0.0 0 0 366.92 78.69
  L 371.74 76.60
  A 1.00 1.00 0.0 0 1 373.08 77.85
  Q 372.98 78.13 372.29 78.56
  Q 369.13 80.59 366.10 81.69
  A 0.90 0.88 86.0 0 0 365.54 82.35
  Q 365.12 84.41 363.55 85.78
  L 362.12 84.11
  A 0.75 0.75 0.0 0 0 360.83 84.37
  Q 359.99 87.06 358.24 87.11
  Q 359.39 81.58 354.13 80.50
  Q 351.40 79.94 351.34 79.93
  A 0.59 0.57 10.7 0 0 350.72 80.34
  Q 350.67 80.53 350.43 80.65
  Q 348.75 81.50 348.36 82.84
  Q 347.79 84.79 347.78 87.44
  A 2.05 1.97 -58.6 0 0 347.99 88.38
  Q 348.83 90.17 350.94 91.79
  A 0.92 0.91 -36.2 0 0 351.82 91.92
  Q 352.79 91.55 354.44 91.63
  A 1.33 1.33 0.0 0 0 355.46 91.23
  L 357.78 88.93
  L 358.20 91.21
  A 0.78 0.77 87.0 0 0 358.89 91.84
  Q 360.57 91.98 362.13 90.99
  A 2.11 2.04 -41.7 0 1 364.54 91.09
  C 365.37 91.76 367.38 93.71 369.46 93.94
  Q 370.53 94.05 370.40 95.26
  A 0.75 0.74 -71.8 0 0 370.75 95.96
  Q 370.94 96.08 371.04 96.20
  Q 370.86 96.21 370.70 96.26
  A 0.57 0.55 7.1 0 0 370.39 96.49
  Q 369.15 98.37 368.64 100.41
  Q 367.15 98.80 365.20 103.22
  A 0.50 0.50 0.0 0 0 366.01 103.77
  Q 366.51 103.26 367.64 103.41
  Q 366.07 107.17 367.62 108.31
  L 367.40 109.80
  A 0.38 0.37 -6.7 0 1 367.16 110.10
  Q 366.69 110.27 366.14 109.82
  A 0.92 0.91 -34.5 0 0 365.24 109.66
  Q 363.78 110.19 363.55 111.61
  A 0.11 0.11 0.0 0 1 363.44 111.70
  L 363.17 111.69
  A 0.26 0.25 11.7 0 1 362.94 111.35
  Q 363.68 109.25 362.78 107.27
  Q 361.81 105.14 360.37 104.01
  Q 358.85 102.81 357.16 100.58
  A 0.93 0.92 -39.3 0 0 355.81 100.45
  Q 355.00 101.18 354.33 101.15
  A 0.38 0.38 0.0 0 1 354.04 100.53
  Q 354.59 99.81 355.34 99.77
  A 0.90 0.89 0.3 0 0 356.21 98.92
  Q 356.26 97.89 356.96 97.08
  A 0.39 0.39 0.0 0 0 356.68 96.43
  L 354.78 96.36
  A 0.96 0.96 0.0 0 1 354.01 95.92
  Q 352.93 94.20 350.70 93.15
  A 0.99 0.97 -57.5 0 0 349.52 93.42
  Q 346.44 97.22 345.43 98.17
  Q 344.95 98.62 344.62 98.68
  A 0.47 0.47 0.0 0 1 344.07 98.17
  Q 344.22 96.60 345.33 95.24
  A 1.15 1.14 -80.6 0 1 345.83 94.88
  Q 347.33 94.30 348.20 92.49
  A 1.00 0.99 -44.7 0 0 348.21 91.65
  Q 347.40 89.89 346.32 89.17
  A 2.45 2.39 -82.6 0 1 345.38 87.92
  Q 343.48 82.16 338.89 81.76
  L 338.70 78.24
  A 0.66 0.59 -65.2 0 0 338.61 77.95
  L 332.02 66.99
  A 0.24 0.22 77.8 0 0 331.89 66.90
  L 312.70 62.85
  L 310.14 62.59
  A 0.59 0.59 0.0 0 1 309.61 61.96
  L 309.94 56.88
  A 1.34 1.14 -56.4 0 0 309.89 56.46
  Q 308.55 51.92 307.18 47.57
  Q 306.85 46.52 307.60 43.64
  A 0.75 0.73 -87.4 0 1 308.19 43.09
  L 309.04 42.94
  L 308.03 43.68
  A 0.53 0.51 -17.3 0 0 307.81 44.08
  Q 307.78 44.66 308.30 44.72
  Q 307.69 45.45 307.70 45.47
  A 1.62 1.62 0.0 0 0 310.06 46.13
  Q 312.54 44.49 313.61 42.55
  L 317.28 43.40
  Q 316.12 43.62 314.69 43.39
  A 0.53 0.53 0.0 0 0 314.07 43.88
  Q 314.05 44.29 314.19 44.73
  Q 314.27 44.99 314.81 45.11
  Q 315.17 45.20 315.57 45.27
  Q 314.08 46.19 316.52 45.80
  Q 317.51 45.64 318.11 46.32
  A 0.92 0.92 0.0 0 0 318.91 46.62
  Q 324.45 45.92 320.89 44.82
  L 322.92 44.06
  A 2.03 1.84 32.6 0 1 323.57 43.95
  Q 324.97 43.97 325.38 43.18
  Q 327.66 45.39 330.94 43.84
  A 0.31 0.31 0.0 0 0 330.78 43.25
  Q 329.78 43.33 328.72 43.02
  L 330.45 42.88
  A 0.38 0.37 -84.3 0 0 330.78 42.60
  Q 330.99 41.81 332.71 42.00
  Q 329.79 43.61 334.16 42.52
  A 0.22 0.22 0.0 0 0 334.14 42.09
  L 333.78 42.03
  Q 334.34 41.62 335.13 41.59
  A 0.31 0.31 0.0 0 0 335.40 41.13
  L 335.17 40.71
  L 335.53 40.81
  A 0.86 0.85 89.2 0 1 336.08 41.35
  Q 336.44 42.45 337.49 42.96
  Z
  M 325.28 48.62
  L 317.99 47.88
  A 0.59 0.59 0.0 0 0 317.64 48.97
  L 319.66 50.13
  A 0.54 0.53 -74.1 0 1 319.92 50.61
  L 319.91 50.90
  A 0.45 0.45 0.0 0 1 319.30 51.30
  Q 318.12 50.87 317.35 51.24
  Q 314.66 52.55 314.54 52.71
  Q 314.06 53.33 312.89 55.56
  A 1.13 1.08 5.2 0 1 312.19 56.12
  Q 311.00 56.43 310.65 57.96
  A 0.51 0.51 0.0 0 0 311.49 58.45
  Q 312.51 57.52 313.48 57.42
  A 1.62 1.59 -32.5 0 1 314.43 57.62
  Q 316.57 58.82 317.85 57.04
  Q 318.02 56.82 318.36 56.85
  Q 318.61 56.88 318.80 57.12
  Q 319.03 57.41 318.67 57.82
  Q 318.35 58.17 318.33 58.33
  Q 318.27 58.70 318.57 58.88
  Q 319.60 59.51 320.64 59.69
  A 0.68 0.67 -75.3 0 0 321.39 59.24
  Q 321.72 58.27 322.68 58.30
  A 0.92 0.90 -19.0 0 1 323.31 58.60
  L 325.01 60.48
  Q 328.51 62.10 332.49 62.20
  Q 331.09 64.24 334.76 62.78
  A 0.79 0.77 -10.0 0 0 335.25 62.09
  L 335.58 52.97
  A 0.20 0.20 0.0 0 0 335.22 52.84
  Q 335.12 52.97 334.94 53.01
  Q 335.04 52.13 334.15 52.04
  Q 329.80 51.60 325.40 51.13
  Q 324.46 51.03 324.25 51.43
  Q 324.02 51.85 324.46 52.65
  Q 322.89 54.45 322.97 51.56
  A 0.57 0.56 85.7 0 1 323.43 51.01
  L 327.14 50.32
  A 0.58 0.58 0.0 0 0 327.55 49.48
  Q 327.43 49.25 327.20 49.00
  Q 328.20 47.54 329.98 47.82
  Q 331.71 48.09 335.17 48.25
  A 0.23 0.22 -13.1 0 0 335.38 47.92
  L 335.19 47.59
  A 0.24 0.23 -12.4 0 0 335.01 47.48
  L 327.76 46.91
  A 0.57 0.56 -76.1 0 0 327.20 47.25
  Q 326.89 47.99 325.28 48.62
  Z
  M 338.26 47.52
  A 0.28 0.27 -4.8 0 0 337.91 47.92
  Q 338.12 48.21 338.59 48.47
  A 0.26 0.26 0.0 0 0 338.96 48.17
  Q 338.85 47.78 338.26 47.52
  Z
  M 347.12 60.93
  L 338.50 63.11
  A 0.27 0.26 -17.5 0 0 338.31 63.47
  L 338.49 63.90
  A 0.13 0.13 0.0 0 0 338.66 63.97
  L 341.69 62.70
  A 1.27 1.19 32.8 0 1 342.13 62.62
  Q 345.19 62.67 347.31 61.40
  A 0.26 0.26 0.0 0 0 347.12 60.93
  Z
  M 339.67 68.95
  Q 338.92 70.13 340.35 72.24
  Q 342.17 74.93 343.11 76.57
  A 0.60 0.55 -4.4 0 0 343.45 76.84
  Q 343.66 76.91 343.82 76.90
  A 0.69 0.59 63.7 0 0 344.11 75.77
  Q 343.14 74.77 343.12 73.60
  A 1.46 1.44 31.4 0 0 342.95 72.92
  Q 340.80 68.77 339.73 67.04
  Q 339.00 65.86 337.97 65.61
  A 0.74 0.73 80.7 0 0 337.19 66.72
  Q 338.08 68.20 339.41 68.39
  A 0.37 0.37 0.0 0 1 339.67 68.95
  Z
  M 346.52 74.39
  L 350.61 79.41
  A 0.02 0.02 0.0 0 0 350.64 79.41
  A 2.27 1.08 50.8 0 0 350.04 76.97
  L 348.79 75.44
  A 2.27 1.08 50.8 0 0 346.52 74.36
  A 0.02 0.02 0.0 0 0 346.52 74.39
  Z"
/>
<circle fill="#514233" cx="328.54" cy="41.40" r="0.10"/>
<path fill="#272831" d="
  M 322.53 42.28
  Q 322.53 42.67 322.30 42.98
  A 0.55 0.35 -36.0 0 1 321.43 43.03
  Q 321.44 42.61 321.89 42.05
  A 0.36 0.36 0.0 0 1 322.53 42.28
  Z"
/>
<path fill="#514233" d="
  M 303.09 44.51
  Q 302.66 45.05 301.88 44.61
  Q 300.99 44.10 299.70 44.24
  Q 298.77 44.63 297.66 44.47
  Q 299.31 43.90 299.78 43.30
  Q 301.66 43.21 303.09 44.51
  Z"
/>
<path fill="#514233" d="
  M 265.33 48.54
  Q 263.73 49.01 262.62 49.96
  A 0.23 0.23 0.0 0 1 262.28 49.93
  Q 262.23 49.87 262.17 49.80
  A 1.10 1.08 69.7 0 0 261.37 49.42
  Q 259.84 49.37 258.58 48.61
  L 253.68 48.27
  A 0.37 0.18 -19.3 0 1 253.59 48.26
  L 243.51 46.12
  A 0.26 0.25 -66.0 0 1 243.36 45.72
  Q 243.81 45.07 243.89 44.50
  A 0.48 0.48 0.0 0 1 244.47 44.09
  L 265.33 48.54
  Z"
/>
<path fill="#9db7d9" d="
  M 297.66 44.47
  Q 298.77 44.63 299.70 44.24
  Q 298.95 45.36 297.91 45.49
  Q 295.15 45.84 291.72 46.08
  A 0.81 0.80 -80.9 0 0 291.04 46.58
  Q 289.80 49.69 290.14 52.88
  A 0.58 0.58 0.0 0 1 289.26 53.44
  Q 287.26 52.23 287.82 50.13
  A 0.63 0.63 0.0 0 0 286.77 49.52
  L 284.49 51.80
  A 1.12 1.11 45.2 0 0 284.49 53.37
  L 288.26 57.14
  A 0.73 0.73 0.0 0 1 287.71 58.38
  C 285.62 58.27 285.68 55.71 284.27 54.70
  A 1.04 1.04 0.0 0 1 283.86 53.60
  Q 283.89 53.48 283.84 53.35
  A 0.36 0.36 0.0 0 0 283.15 53.54
  Q 283.44 55.40 283.99 55.97
  A 0.30 0.30 0.0 0 1 283.77 56.48
  Q 283.46 56.47 283.27 56.26
  C 282.64 55.54 283.04 54.89 282.85 54.67
  A 0.60 0.54 -43.5 0 0 282.00 54.69
  L 280.80 55.97
  Q 280.04 55.99 279.76 57.02
  A 0.52 0.52 0.0 0 0 280.39 57.66
  L 281.04 57.49
  Q 282.73 57.69 284.34 58.51
  A 0.77 0.48 -13.3 0 0 284.52 58.57
  L 288.52 59.51
  A 0.89 0.89 0.0 0 0 289.29 59.33
  Q 289.51 59.15 289.98 58.88
  Q 290.37 58.66 290.81 59.45
  Q 291.28 60.32 292.15 59.98
  A 0.79 0.78 45.5 0 1 292.73 59.99
  L 295.07 60.98
  A 1.73 1.70 -29.5 0 0 295.55 61.11
  Q 298.51 61.45 300.08 62.21
  A 0.80 0.80 0.0 0 0 301.04 62.00
  Q 301.32 61.66 301.49 61.84
  A 1.79 1.61 48.5 0 1 301.47 64.39
  Q 299.39 65.99 298.59 67.22
  Q 296.84 68.21 295.75 69.59
  Q 294.99 70.00 294.79 70.75
  L 292.18 73.24
  L 290.78 73.50
  Q 289.42 73.21 288.51 73.53
  A 0.37 0.37 0.0 0 0 288.35 74.12
  L 289.74 75.79
  Q 289.73 76.78 290.08 77.32
  A 0.46 0.46 0.0 0 0 290.87 77.29
  Q 291.72 75.73 293.14 76.61
  A 1.46 1.45 55.4 0 0 294.22 76.81
  Q 296.96 76.24 296.72 77.89
  Q 295.12 79.35 293.45 78.56
  A 0.59 0.59 0.0 0 0 292.63 78.94
  L 292.51 79.37
  Q 292.01 80.30 292.16 81.45
  A 1.40 1.33 20.7 0 0 292.52 82.19
  Q 294.23 83.95 295.12 86.28
  Q 295.64 87.65 296.80 88.55
  A 2.01 1.97 6.9 0 1 297.37 89.26
  Q 298.44 91.54 300.86 93.88
  A 0.71 0.70 -21.4 0 1 300.33 95.09
  Q 300.04 95.08 299.89 95.18
  A 0.07 0.07 0.0 0 0 299.92 95.30
  L 300.82 95.45
  A 0.66 0.66 0.0 0 1 301.35 96.25
  Q 300.94 98.02 298.59 98.93
  A 1.48 1.48 0.0 0 0 297.87 99.53
  Q 297.48 100.16 297.45 100.84
  A 0.51 0.51 0.0 0 1 296.72 101.27
  Q 296.63 101.22 296.59 101.22
  A 0.65 0.64 5.4 0 0 295.86 101.82
  Q 295.83 102.42 296.28 102.73
  Q 297.51 106.21 300.38 107.57
  Q 300.88 107.81 300.93 108.03
  Q 301.04 108.46 300.96 108.85
  A 0.62 0.61 -86.9 0 0 301.62 109.59
  L 302.15 109.55
  L 301.87 115.34
  L 295.46 113.41
  Q 294.91 113.13 294.55 113.32
  Q 294.21 113.49 294.24 113.97
  Q 293.76 114.60 293.24 114.46
  Q 292.06 114.17 292.27 114.78
  Q 291.23 115.33 290.13 115.22
  Q 288.41 115.57 286.69 115.28
  L 284.79 114.70
  Q 284.44 114.30 283.83 114.49
  L 282.70 112.99
  L 282.77 110.19
  A 0.79 0.78 -81.0 0 0 282.21 109.41
  L 277.90 108.13
  A 1.02 1.00 41.2 0 0 277.20 108.17
  L 275.79 108.75
  Q 275.45 108.39 275.20 108.53
  A 0.17 0.16 73.8 0 0 275.12 108.69
  L 275.22 109.22
  Q 274.57 109.69 274.59 109.25
  L 275.04 104.39
  A 0.83 0.80 43.7 0 0 275.03 104.17
  Q 274.62 101.78 275.47 100.27
  Q 277.23 100.60 275.13 96.18
  L 275.13 88.20
  L 277.24 88.38
  Q 279.14 88.86 279.34 87.47
  A 0.96 0.83 -53.4 0 0 279.31 87.07
  Q 278.70 85.36 277.23 85.29
  Q 276.44 81.97 277.23 78.13
  Q 278.97 77.40 278.84 75.85
  A 0.90 0.90 0.0 0 0 278.34 75.13
  L 276.61 74.31
  L 277.18 72.62
  L 278.24 72.78
  A 0.48 0.47 23.5 0 0 278.68 72.61
  Q 279.14 72.04 278.51 71.53
  A 1.02 1.00 22.3 0 1 278.15 70.70
  Q 278.20 69.59 277.18 69.03
  Q 276.51 68.16 277.30 67.58
  Q 277.64 67.33 278.66 67.35
  Q 279.38 68.99 279.26 71.08
  A 0.39 0.39 0.0 0 0 279.93 71.37
  L 281.86 69.44
  A 0.21 0.20 -31.8 0 0 281.91 69.23
  Q 281.70 68.64 280.77 69.17
  A 0.47 0.46 66.8 0 1 280.10 68.90
  Q 279.97 68.48 280.12 68.09
  Q 280.31 67.62 280.38 67.64
  Q 280.76 67.73 280.86 67.62
  A 0.49 0.49 0.0 0 0 280.72 66.85
  Q 279.91 66.45 278.57 67.15
  Q 277.93 66.97 277.54 66.70
  A 0.99 0.98 -72.2 0 1 277.12 65.87
  C 277.15 64.13 276.88 62.78 277.41 61.90
  Q 277.67 61.46 277.31 60.86
  Q 277.05 60.45 277.32 60.17
  Q 277.62 59.87 277.84 59.59
  Q 278.15 59.19 277.51 58.60
  Q 276.10 57.30 274.28 58.20
  Q 274.28 57.86 274.04 57.54
  L 269.27 50.51
  Q 268.78 49.00 268.18 50.00
  Q 266.72 50.68 265.30 50.48
  Q 264.23 50.14 264.20 50.76
  L 259.84 50.49
  Q 258.55 48.76 257.56 49.19
  Q 258.60 49.07 258.58 48.61
  Q 259.84 49.37 261.37 49.42
  A 1.10 1.08 69.7 0 1 262.17 49.80
  Q 262.23 49.87 262.28 49.93
  A 0.23 0.23 0.0 0 0 262.62 49.96
  Q 263.73 49.01 265.33 48.54
  Q 265.36 48.54 265.39 48.54
  Q 266.67 49.61 268.10 48.59
  A 1.28 1.27 36.5 0 1 269.25 48.42
  Q 269.43 48.48 269.73 48.76
  A 1.05 1.05 0.0 0 0 271.15 48.78
  Q 271.35 48.60 271.65 48.28
  Q 271.96 47.95 272.40 48.05
  Q 272.72 48.12 272.81 48.50
  A 0.68 0.68 0.0 0 0 273.62 49.01
  Q 273.73 48.99 274.19 48.51
  Q 274.48 48.21 274.90 48.23
  Q 277.72 48.39 278.04 48.76
  A 0.46 0.46 0.0 0 0 278.68 48.82
  L 279.79 47.96
  A 0.53 0.53 0.0 0 0 279.84 47.16
  L 279.60 46.91
  A 0.52 0.51 -35.6 0 1 279.74 46.08
  Q 279.90 46.00 280.12 45.95
  Q 281.39 47.26 282.79 46.28
  A 0.54 0.48 18.7 0 1 283.05 46.17
  Q 285.22 45.75 286.26 46.78
  Q 286.60 47.13 286.96 46.76
  Q 287.47 46.21 286.97 46.11
  Q 286.48 46.00 286.47 45.97
  A 0.44 0.42 -11.5 0 1 286.86 45.41
  L 297.66 44.47
  Z
  M 282.91 50.42
  L 282.89 50.81
  A 0.43 0.43 0.0 0 0 283.42 51.24
  Q 284.18 51.05 285.42 49.53
  A 0.74 0.73 -37.2 0 0 285.53 48.77
  L 284.72 46.82
  A 0.29 0.29 0.0 0 0 284.51 46.65
  Q 284.24 46.60 284.06 46.72
  Q 283.83 46.87 283.88 47.33
  Q 283.93 47.80 283.90 47.83
  A 0.56 0.55 -55.5 0 1 283.11 47.98
  Q 282.52 47.54 281.81 47.69
  A 0.68 0.68 0.0 0 0 281.28 48.49
  Q 281.49 49.61 282.55 49.93
  A 0.50 0.50 0.0 0 1 282.91 50.42
  Z
  M 278.32 50.69
  L 279.15 52.12
  A 0.48 0.48 0.0 0 0 280.04 51.91
  Q 280.11 50.72 278.82 50.14
  A 0.39 0.39 0.0 0 0 278.32 50.69
  Z
  M 281.66 51.21
  Q 281.37 51.00 281.17 51.39
  Q 280.64 52.38 281.07 53.36
  A 0.47 0.47 0.0 0 0 281.83 53.52
  Q 282.56 52.82 282.71 52.00
  Q 282.76 51.74 282.55 51.55
  Q 282.28 51.29 282.14 51.39
  Q 282.03 51.47 281.66 51.21
  Z
  M 278.5640 53.3301
  A 1.60 0.80 -89.5 0 0 277.7500 54.9230
  A 1.60 0.80 -89.5 0 0 278.5360 56.5299
  A 1.60 0.80 -89.5 0 0 279.3500 54.9370
  A 1.60 0.80 -89.5 0 0 278.5640 53.3301
  Z
  M 286.24 63.90
  A 0.81 0.79 -40.7 0 0 286.30 63.22
  Q 285.57 61.20 283.87 59.49
  A 1.31 1.27 64.4 0 0 282.85 59.11
  Q 281.37 59.23 280.22 58.51
  A 0.51 0.50 -4.6 0 0 279.57 59.27
  Q 282.36 62.38 284.26 66.95
  A 0.12 0.12 0.0 0 0 284.47 66.96
  L 286.24 63.90
  Z
  M 280.21 61.38
  Q 279.02 61.06 279.00 61.07
  A 1.09 1.05 15.1 0 0 280.09 62.88
  Q 280.56 62.71 280.57 61.85
  A 0.49 0.48 -83.2 0 0 280.21 61.38
  Z
  M 286.33 69.26
  Q 286.85 70.67 287.67 71.36
  Q 288.81 71.62 289.75 71.45
  Q 290.41 72.11 291.24 72.44
  A 0.66 0.65 -74.3 0 0 292.12 71.94
  L 292.24 71.23
  A 0.44 0.44 0.0 0 0 291.83 70.72
  Q 290.99 70.68 290.30 69.69
  Q 288.74 67.94 288.11 65.56
  A 0.60 0.60 0.0 0 0 287.09 65.30
  L 285.49 66.98
  A 1.21 1.19 -27.9 0 0 285.17 67.99
  Q 285.34 69.11 286.33 69.26
  Z
  M 281.63 71.41
  A 0.84 0.69 -25.0 0 0 282.91 71.74
  Q 283.44 71.34 283.01 70.58
  A 0.42 0.42 0.0 0 0 282.44 70.43
  Q 281.57 70.92 281.63 71.41
  Z
  M 284.94 74.50
  Q 285.08 73.59 283.65 73.12
  Q 281.51 72.42 281.32 72.32
  A 0.71 0.70 5.0 0 0 280.33 73.15
  Q 280.57 73.94 281.29 74.00
  Q 283.46 74.17 284.27 74.77
  A 0.42 0.42 0.0 0 0 284.94 74.50
  Z
  M 286.44 81.01
  Q 284.38 78.85 283.85 75.88
  Q 282.10 75.46 280.90 75.62
  A 1.13 1.13 0.0 0 0 280.17 77.44
  Q 282.30 80.17 283.36 82.47
  A 0.83 0.79 28.2 0 0 284.91 82.05
  Q 284.73 81.22 286.44 81.01
  Z
  M 286.58 84.45
  L 285.66 83.54
  A 0.46 0.46 0.0 0 0 284.88 83.82
  Q 284.75 85.20 285.68 85.91
  A 1.41 1.35 -80.7 0 1 286.14 86.58
  Q 286.66 88.35 287.88 90.07
  A 0.32 0.31 21.9 0 0 288.45 89.83
  Q 287.90 87.21 288.29 85.85
  C 288.64 84.61 287.40 83.72 287.63 82.41
  A 0.46 0.45 -82.3 0 0 287.23 81.88
  Q 286.71 81.81 286.36 81.97
  A 0.46 0.46 0.0 0 0 286.21 82.69
  Q 286.54 83.06 286.79 84.34
  A 0.12 0.12 0.0 0 1 286.58 84.45
  Z
  M 281.94 83.07
  Q 280.45 82.10 278.52 83.00
  A 0.41 0.40 -31.9 0 0 278.37 83.62
  L 278.99 84.37
  A 0.46 0.45 -47.1 0 0 279.72 84.34
  Q 280.14 83.73 281.70 83.82
  A 0.41 0.41 0.0 0 0 281.94 83.07
  Z
  M 279.79 89.60
  Q 281.72 90.25 282.64 90.13
  A 1.34 1.33 57.0 0 1 283.55 90.33
  Q 284.84 91.18 287.47 91.74
  A 0.24 0.24 0.0 0 0 287.71 91.35
  C 286.53 89.88 285.15 89.82 282.35 89.04
  A 0.48 0.48 0.0 0 1 282.06 88.34
  L 283.22 86.33
  A 0.39 0.39 0.0 0 0 282.65 85.82
  Q 280.89 87.12 279.57 88.89
  A 0.46 0.46 0.0 0 0 279.79 89.60
  Z
  M 279.66 91.79
  Q 280.59 92.55 280.87 93.98
  A 1.74 1.74 0.0 0 0 281.54 95.04
  Q 282.56 95.78 283.08 96.95
  A 0.65 0.65 0.0 0 0 284.24 97.01
  L 285.67 94.54
  A 0.57 0.57 0.0 0 0 285.58 93.85
  L 283.55 91.83
  A 0.75 0.74 -27.4 0 0 282.87 91.62
  Q 281.62 91.86 280.78 91.04
  A 0.83 0.82 48.1 0 0 279.69 90.98
  L 279.67 90.99
  A 0.51 0.50 -44.6 0 0 279.66 91.79
  Z
  M 299.57 95.03
  A 0.38 0.38 0.0 0 0 299.86 94.33
  Q 296.23 92.33 292.50 92.03
  A 1.65 1.61 66.4 0 1 291.59 91.66
  Q 290.87 91.07 290.23 90.93
  A 0.60 0.60 0.0 0 0 289.68 91.95
  Q 290.87 93.08 292.12 92.87
  A 0.51 0.49 46.3 0 1 292.34 92.88
  L 299.57 95.03
  Z
  M 279.70 93.13
  Q 278.99 92.88 278.12 93.07
  A 0.43 0.43 0.0 0 0 277.87 93.75
  Q 278.70 94.88 279.65 94.30
  A 0.70 0.59 -47.6 0 0 279.70 93.13
  Z
  M 295.71 99.96
  L 296.97 98.89
  A 0.68 0.66 -33.0 0 0 297.15 98.08
  Q 296.29 96.33 294.59 94.84
  Q 292.91 94.68 291.12 93.86
  A 0.53 0.53 0.0 0 0 290.46 94.64
  L 294.12 100.19
  A 0.74 0.74 0.0 0 0 294.62 100.51
  Q 295.36 100.62 295.71 99.96
  Z
  M 284.39 98.39
  L 287.64 103.71
  A 0.38 0.38 0.0 0 0 288.32 103.64
  C 288.55 103.03 287.75 101.87 288.00 100.59
  Q 288.26 99.20 287.75 97.98
  L 287.53 95.84
  A 0.33 0.33 0.0 0 0 287.04 95.58
  Q 285.60 96.33 284.39 98.39
  Z
  M 279.01 101.52
  L 279.77 103.35
  A 0.57 0.57 0.0 0 0 280.55 103.63
  Q 281.43 103.18 281.99 101.73
  A 0.61 0.61 0.0 0 1 283.13 101.73
  Q 283.41 102.45 284.16 103.22
  A 0.33 0.33 0.0 0 1 283.79 103.75
  L 282.64 103.26
  A 0.33 0.33 0.0 0 0 282.19 103.65
  Q 282.54 104.89 283.12 105.56
  A 0.43 0.43 0.0 0 0 283.83 105.45
  Q 284.15 104.76 284.17 104.60
  A 0.76 0.76 0.0 0 1 285.63 104.46
  Q 286.24 106.00 286.33 106.21
  A 0.83 0.74 40.9 0 0 287.83 106.19
  Q 287.92 105.73 287.32 105.15
  Q 285.07 103.01 283.40 100.29
  A 0.67 0.67 0.0 0 0 282.28 100.26
  Q 280.96 102.16 279.89 101.45
  L 281.40 98.92
  A 0.40 0.40 0.0 0 0 281.07 98.31
  L 277.91 98.20
  A 0.35 0.35 0.0 0 0 277.58 98.71
  L 279.01 101.52
  Z
  M 289.40 103.40
  Q 289.37 103.61 289.06 104.33
  A 0.36 0.36 0.0 0 0 289.52 104.81
  Q 291.06 104.27 291.15 103.66
  Q 291.24 103.05 289.91 102.09
  A 0.36 0.36 0.0 0 0 289.34 102.42
  Q 289.43 103.20 289.40 103.40
  Z
  M 278.08 103.82
  Q 278.78 103.28 278.15 102.81
  A 0.82 0.80 87.0 0 0 277.08 104.02
  Q 277.38 104.36 278.08 103.82
  Z
  M 291.17 105.45
  Q 290.35 105.59 289.96 105.99
  A 0.96 0.96 0.0 0 0 290.13 107.45
  Q 291.63 108.42 291.51 106.73
  L 291.60 105.78
  A 0.77 0.74 78.9 0 1 291.98 105.19
  L 294.04 104.00
  A 0.35 0.35 0.0 0 0 293.81 103.36
  Q 291.74 103.71 291.17 105.45
  Z
  M 296.11 106.60
  Q 295.13 106.44 293.91 106.93
  Q 293.08 107.26 293.42 108.02
  Q 293.80 108.89 294.52 109.10
  A 0.71 0.71 0.0 0 0 295.33 108.04
  Q 294.87 107.31 296.13 106.94
  A 0.18 0.17 41.8 0 0 296.11 106.60
  Z
  M 297.01 107.85
  Q 297.16 108.80 297.25 108.85
  Q 297.95 109.25 298.00 108.56
  Q 298.04 108.17 297.46 107.62
  A 0.27 0.27 0.0 0 0 297.01 107.85
  Z
  M 300.5336 109.3834
  A 0.96 0.50 -10.6 0 0 299.4980 109.0685
  A 0.96 0.50 -10.6 0 0 298.6464 109.7366
  A 0.96 0.50 -10.6 0 0 299.6820 110.0515
  A 0.96 0.50 -10.6 0 0 300.5336 109.3834
  Z
  M 284.44 111.15
  A 0.61 0.54 49.4 0 0 284.46 110.01
  Q 284.24 109.95 284.00 110.14
  A 0.25 0.23 -25.3 0 0 283.91 110.36
  Q 284.00 111.16 284.44 111.15
  Z
  M 287.64 111.47
  A 0.33 0.33 0.0 0 0 287.02 111.30
  Q 286.83 111.61 286.95 111.89
  A 0.33 0.31 44.4 0 0 287.55 111.90
  Q 287.64 111.65 287.64 111.47
  Z
  M 289.15 112.39
  A 0.49 0.49 0.0 0 0 289.55 112.95
  L 291.62 113.30
  A 0.34 0.34 0.0 0 0 292.01 113.03
  L 292.06 112.72
  A 0.48 0.48 0.0 0 0 291.54 112.16
  Q 290.45 112.27 289.71 111.80
  A 0.34 0.33 20.5 0 0 289.21 112.02
  L 289.15 112.39
  Z
  M 285.90 112.08
  Q 285.47 112.02 285.29 112.12
  A 0.51 0.51 0.0 0 0 285.30 113.01
  Q 285.68 113.23 285.99 112.87
  A 0.52 0.38 -60.4 0 0 285.90 112.08
  Z"
/>
<path fill="#272831" d="
  M 303.09 44.51
  L 303.86 44.64
  A 0.50 0.49 8.1 0 1 304.27 45.18
  Q 304.08 47.27 304.99 49.13
  Q 303.83 56.42 304.15 63.52
  Q 303.91 70.05 303.39 76.50
  C 303.20 78.88 303.61 82.12 303.43 84.83
  Q 303.04 90.39 303.25 96.04
  A 3.87 3.58 -42.8 0 1 303.18 96.94
  Q 302.51 100.48 302.88 106.75
  Q 302.93 107.74 301.80 108.02
  Q 301.15 107.50 300.88 106.83
  A 0.64 0.63 -25.0 0 1 301.18 106.03
  Q 301.77 105.73 301.59 104.98
  Q 301.43 104.28 299.72 102.05
  A 0.33 0.32 -37.9 0 0 299.25 102.00
  L 299.18 102.05
  A 0.40 0.39 -40.4 0 0 299.13 102.61
  Q 300.22 103.87 300.15 105.61
  A 0.39 0.39 0.0 0 1 299.57 105.93
  Q 297.97 105.01 297.67 103.59
  A 1.63 1.62 18.3 0 0 297.31 102.88
  Q 296.10 101.50 296.28 102.73
  Q 295.83 102.42 295.86 101.82
  A 0.65 0.64 5.4 0 1 296.59 101.22
  Q 296.63 101.22 296.72 101.27
  A 0.51 0.51 0.0 0 0 297.45 100.84
  Q 297.48 100.16 297.87 99.53
  A 1.48 1.48 0.0 0 1 298.59 98.93
  Q 300.94 98.02 301.35 96.25
  A 0.66 0.66 0.0 0 0 300.82 95.45
  L 299.92 95.30
  A 0.07 0.07 0.0 0 1 299.89 95.18
  Q 300.04 95.08 300.33 95.09
  A 0.71 0.70 -21.4 0 0 300.86 93.88
  Q 298.44 91.54 297.37 89.26
  A 2.01 1.97 6.9 0 0 296.80 88.55
  Q 295.64 87.65 295.12 86.28
  Q 294.23 83.95 292.52 82.19
  A 1.40 1.33 20.7 0 1 292.16 81.45
  Q 292.01 80.30 292.51 79.37
  Q 293.32 80.83 296.12 80.87
  A 0.34 0.34 0.0 0 0 296.45 80.42
  Q 296.06 79.27 296.72 77.89
  Q 296.96 76.24 294.22 76.81
  A 1.46 1.45 55.4 0 1 293.14 76.61
  Q 291.72 75.73 290.87 77.29
  A 0.46 0.46 0.0 0 1 290.08 77.32
  Q 289.73 76.78 289.74 75.79
  Q 290.79 74.52 290.78 73.50
  L 292.18 73.24
  Q 292.27 73.34 292.32 73.46
  A 0.17 0.17 0.0 0 0 292.46 73.56
  L 296.78 74.04
  A 0.17 0.17 0.0 0 0 296.94 73.77
  Q 296.39 73.02 295.25 72.75
  A 0.43 0.42 -68.7 0 1 294.98 72.13
  Q 295.57 71.09 294.79 70.75
  Q 294.99 70.00 295.75 69.59
  Q 295.79 69.78 295.86 69.90
  A 0.38 0.37 -29.0 0 0 296.36 70.04
  Q 298.66 68.81 298.59 67.22
  Q 299.39 65.99 301.47 64.39
  A 1.79 1.61 48.5 0 0 301.49 61.84
  Q 301.32 61.66 301.04 62.00
  A 0.80 0.80 0.0 0 1 300.08 62.21
  Q 298.51 61.45 295.55 61.11
  A 1.73 1.70 -29.5 0 1 295.07 60.98
  L 292.73 59.99
  A 0.79 0.78 45.5 0 0 292.15 59.98
  Q 291.28 60.32 290.81 59.45
  Q 290.37 58.66 289.98 58.88
  Q 289.51 59.15 289.29 59.33
  A 0.89 0.89 0.0 0 1 288.52 59.51
  L 284.52 58.57
  A 0.77 0.48 -13.3 0 1 284.34 58.51
  Q 282.73 57.69 281.04 57.49
  Q 281.37 55.96 280.80 55.97
  L 282.00 54.69
  A 0.60 0.54 -43.5 0 1 282.85 54.67
  C 283.04 54.89 282.64 55.54 283.27 56.26
  Q 283.46 56.47 283.77 56.48
  A 0.30 0.30 0.0 0 0 283.99 55.97
  Q 283.44 55.40 283.15 53.54
  A 0.36 0.36 0.0 0 1 283.84 53.35
  Q 283.89 53.48 283.86 53.60
  A 1.04 1.04 0.0 0 0 284.27 54.70
  C 285.68 55.71 285.62 58.27 287.71 58.38
  A 0.73 0.73 0.0 0 0 288.26 57.14
  L 284.49 53.37
  A 1.12 1.11 45.2 0 1 284.49 51.80
  L 286.77 49.52
  A 0.63 0.63 0.0 0 1 287.82 50.13
  Q 287.26 52.23 289.26 53.44
  A 0.58 0.58 0.0 0 0 290.14 52.88
  Q 289.80 49.69 291.04 46.58
  A 0.81 0.80 -80.9 0 1 291.72 46.08
  Q 295.15 45.84 297.91 45.49
  Q 298.95 45.36 299.70 44.24
  Q 300.99 44.10 301.88 44.61
  Q 302.66 45.05 303.09 44.51
  Z
  M 292.73 56.81
  Q 292.96 56.66 293.89 56.02
  Q 294.43 55.65 294.08 54.96
  Q 293.50 53.82 292.69 54.24
  A 0.36 0.35 81.9 0 0 292.50 54.50
  L 292.17 56.44
  A 0.37 0.36 78.3 0 0 292.73 56.81
  Z
  M 300.54 73.84
  L 299.61 73.68
  A 0.35 0.34 -80.5 0 0 299.22 73.96
  L 299.17 74.24
  A 0.47 0.47 0.0 0 0 299.57 74.78
  Q 300.64 74.93 301.57 74.09
  Q 302.37 73.36 301.55 72.28
  Q 301.14 71.73 299.80 70.45
  A 0.45 0.45 0.0 0 0 299.11 70.54
  Q 298.99 70.74 299.14 71.18
  Q 299.29 71.60 299.82 71.85
  Q 301.03 72.40 301.12 73.30
  A 0.50 0.50 0.0 0 1 300.54 73.84
  Z
  M 301.2500 75.5339
  A 1.34 0.61 -104.7 0 0 301.0000 76.9848
  A 1.34 0.61 -104.7 0 0 301.9300 78.1261
  A 1.34 0.61 -104.7 0 0 302.1800 76.6752
  A 1.34 0.61 -104.7 0 0 301.2500 75.5339
  Z
  M 298.33 79.47
  Q 298.49 80.19 297.96 80.92
  A 0.50 0.49 33.1 0 0 298.12 81.64
  Q 299.12 82.22 299.67 81.83
  A 0.69 0.67 78.1 0 0 299.95 81.39
  Q 300.27 79.63 298.72 79.13
  A 0.30 0.30 0.0 0 0 298.33 79.47
  Z
  M 300.83 82.59
  Q 300.84 83.46 301.35 83.85
  A 0.50 0.50 0.0 0 0 302.11 83.66
  Q 302.13 83.62 302.12 82.58
  Q 302.11 81.55 302.09 81.51
  A 0.50 0.50 0.0 0 0 301.33 81.33
  Q 300.83 81.73 300.83 82.59
  Z"
/>
<path fill="#272831" d="
  M 320.89 44.82
  Q 324.45 45.92 318.91 46.62
  A 0.92 0.92 0.0 0 1 318.11 46.32
  Q 317.51 45.64 316.52 45.80
  Q 314.08 46.19 315.57 45.27
  Q 316.84 44.93 317.77 45.35
  Q 318.89 45.84 319.37 45.67
  Q 320.08 45.43 320.89 44.82
  Z"
/>
<path fill="#514233" d="
  M 279.45 45.05
  Q 279.45 45.72 280.12 45.95
  Q 279.90 46.00 279.74 46.08
  A 0.52 0.51 -35.6 0 0 279.60 46.91
  L 279.84 47.16
  A 0.53 0.53 0.0 0 1 279.79 47.96
  L 278.68 48.82
  A 0.46 0.46 0.0 0 1 278.04 48.76
  Q 277.72 48.39 274.90 48.23
  Q 274.48 48.21 274.19 48.51
  Q 273.73 48.99 273.62 49.01
  A 0.68 0.68 0.0 0 1 272.81 48.50
  Q 272.72 48.12 272.40 48.05
  Q 271.96 47.95 271.65 48.28
  Q 271.35 48.60 271.15 48.78
  A 1.05 1.05 0.0 0 1 269.73 48.76
  Q 269.43 48.48 269.25 48.42
  A 1.28 1.27 36.5 0 0 268.10 48.59
  Q 266.67 49.61 265.39 48.54
  Q 270.76 47.21 277.76 46.63
  Q 279.08 46.52 279.45 45.05
  Z"
/>
<path fill="#514233" d="
  M 305.39 45.29
  Q 305.83 45.10 305.95 45.72
  A 0.79 0.57 -80.5 0 1 305.02 46.65
  Q 304.57 46.19 305.26 45.39
  A 0.28 0.28 0.0 0 1 305.39 45.29
  Z"
/>
<ellipse fill="#514233" cx="0.00" cy="0.00" transform="translate(137.99,46.51) rotate(-6.6)" rx="1.88" ry="0.51"/>
<path fill="#272831" d="
  M 340.50 46.67
  Q 339.59 46.75 339.46 45.99
  L 340.50 46.67
  Z"
/>
<path fill="#272831" d="
  M 338.26 47.52
  Q 338.85 47.78 338.96 48.17
  A 0.26 0.26 0.0 0 1 338.59 48.47
  Q 338.12 48.21 337.91 47.92
  A 0.28 0.27 -4.8 0 1 338.26 47.52
  Z"
/>
<path fill="#b0a08f" d="
  M 325.28 48.62
  Q 326.17 49.07 327.20 49.00
  Q 327.43 49.25 327.55 49.48
  A 0.58 0.58 0.0 0 1 327.14 50.32
  L 323.43 51.01
  A 0.57 0.56 85.7 0 0 322.97 51.56
  Q 322.89 54.45 324.46 52.65
  L 325.01 60.48
  L 323.31 58.60
  A 0.92 0.90 -19.0 0 0 322.68 58.30
  Q 321.72 58.27 321.39 59.24
  A 0.68 0.67 -75.3 0 1 320.64 59.69
  Q 319.60 59.51 318.57 58.88
  Q 318.27 58.70 318.33 58.33
  Q 318.35 58.17 318.67 57.82
  Q 319.03 57.41 318.80 57.12
  Q 318.61 56.88 318.36 56.85
  Q 318.02 56.82 317.85 57.04
  Q 316.57 58.82 314.43 57.62
  A 1.62 1.59 -32.5 0 0 313.48 57.42
  Q 312.51 57.52 311.49 58.45
  A 0.51 0.51 0.0 0 1 310.65 57.96
  Q 311.00 56.43 312.19 56.12
  A 1.13 1.08 5.2 0 0 312.89 55.56
  Q 314.06 53.33 314.54 52.71
  Q 314.66 52.55 317.35 51.24
  Q 318.12 50.87 319.30 51.30
  A 0.45 0.45 0.0 0 0 319.91 50.90
  L 319.92 50.61
  A 0.54 0.53 -74.1 0 0 319.66 50.13
  L 317.64 48.97
  A 0.59 0.59 0.0 0 1 317.99 47.88
  L 325.28 48.62
  Z"
/>
<path fill="#514233" d="
  M 304.15 63.52
  Q 303.83 56.42 304.99 49.13
  Q 305.15 48.81 305.29 48.75
  A 0.42 0.42 0.0 0 1 305.89 49.13
  Q 305.80 54.29 305.87 61.15
  C 305.89 63.10 306.62 65.33 306.40 67.55
  A 0.52 0.47 80.1 0 1 306.16 67.93
  L 304.45 68.92
  A 0.18 0.18 0.0 0 1 304.18 68.76
  L 304.15 63.52
  Z"
/>
<path fill="#514233" d="
  M 257.56 49.19
  Q 258.55 48.76 259.84 50.49
  Q 259.81 51.57 259.11 52.01
  A 0.81 0.80 -46.3 0 1 258.28 52.03
  L 257.27 51.44
  A 0.56 0.56 0.0 0 0 256.45 51.77
  Q 256.20 52.65 255.20 52.33
  Q 256.17 50.25 251.92 51.76
  A 5.97 5.93 -55.0 0 1 250.09 52.09
  Q 246.62 52.17 243.35 53.38
  Q 242.91 53.54 243.07 54.47
  Q 242.29 54.21 242.02 54.45
  L 242.00 53.76
  Q 241.91 52.54 241.34 53.22
  Q 239.85 54.33 238.18 53.51
  A 1.20 1.19 -44.1 0 0 237.17 53.50
  Q 234.50 54.68 231.67 55.07
  A 0.92 0.91 82.1 0 0 230.90 56.10
  Q 230.94 56.34 231.27 56.36
  L 229.74 56.72
  Q 230.32 55.79 230.04 55.07
  A 0.59 0.58 66.4 0 0 229.23 54.75
  Q 228.42 55.16 227.86 56.03
  A 0.59 0.58 35.1 0 1 227.01 56.17
  C 224.95 54.61 221.61 56.01 219.23 57.18
  A 1.49 1.45 -51.6 0 1 218.32 57.30
  Q 217.19 57.09 216.58 57.72
  L 216.23 57.35
  A 0.32 0.32 0.0 0 1 216.38 56.82
  L 220.62 55.75
  A 1.07 1.05 -75.9 0 0 221.16 55.42
  L 221.77 54.74
  A 0.15 0.15 0.0 0 1 221.84 54.70
  L 237.24 51.86
  A 0.73 0.66 -40.0 0 1 237.55 51.87
  Q 240.28 52.64 242.10 52.33
  Q 253.48 50.35 256.76 49.81
  Q 257.00 49.77 257.56 49.19
  Z"
/>
<path fill="#514233" d="
  M 269.27 50.51
  Q 268.89 50.06 268.18 50.00
  Q 268.78 49.00 269.27 50.51
  Z"
/>
<path fill="#514233" d="
  M 265.30 50.48
  Q 264.88 50.77 264.20 50.76
  Q 264.23 50.14 265.30 50.48
  Z"
/>
<path fill="#b0a08f" d="
  M 255.20 52.33
  L 243.07 54.47
  Q 242.91 53.54 243.35 53.38
  Q 246.62 52.17 250.09 52.09
  A 5.97 5.93 -55.0 0 0 251.92 51.76
  Q 256.17 50.25 255.20 52.33
  Z"
/>
<path fill="#f0f6fc" d="
  M 334.94 53.01
  L 334.65 62.13
  A 0.68 0.67 4.6 0 1 333.88 62.78
  Q 333.34 62.71 332.49 62.20
  Q 328.51 62.10 325.01 60.48
  L 324.46 52.65
  Q 324.02 51.85 324.25 51.43
  Q 324.46 51.03 325.40 51.13
  Q 329.80 51.60 334.15 52.04
  Q 335.04 52.13 334.94 53.01
  Z"
/>
<path fill="#272831" d="
  M 332.49 62.20
  Q 333.34 62.71 333.88 62.78
  A 0.68 0.67 4.6 0 0 334.65 62.13
  L 334.94 53.01
  Q 335.12 52.97 335.22 52.84
  A 0.20 0.20 0.0 0 1 335.58 52.97
  L 335.25 62.09
  A 0.79 0.77 -10.0 0 1 334.76 62.78
  Q 331.09 64.24 332.49 62.20
  Z"
/>
<path fill="#514233" d="
  M 131.94 53.63
  A 0.28 0.27 27.9 0 1 131.82 53.25
  L 131.97 53.00
  A 0.18 0.17 -66.2 0 1 132.17 52.92
  L 138.93 54.93
  A 0.29 0.29 0.0 0 1 139.13 55.30
  L 139.05 55.59
  A 0.44 0.44 0.0 0 1 138.44 55.86
  Q 137.17 55.26 136.00 55.60
  A 0.78 0.78 0.0 0 1 135.02 55.00
  Q 135.00 54.89 134.99 54.86
  A 1.22 1.21 -12.9 0 0 133.92 54.19
  Q 133.02 54.17 131.94 53.63
  Z"
/>
<path fill="#514233" d="
  M 131.00 53.26
  A 0.60 0.56 89.3 0 1 130.29 54.04
  Q 130.21 54.01 129.98 53.65
  A 0.39 0.34 -15.3 0 1 130.33 53.12
  Q 130.94 53.10 131.00 53.26
  Z"
/>
<path fill="#b0a08f" d="
  M 241.34 53.22
  Q 241.66 53.62 242.00 53.76
  L 242.02 54.45
  L 231.27 56.36
  Q 230.94 56.34 230.90 56.10
  A 0.92 0.91 82.1 0 1 231.67 55.07
  Q 234.50 54.68 237.17 53.50
  A 1.20 1.19 -44.1 0 1 238.18 53.51
  Q 239.85 54.33 241.34 53.22
  Z"
/>
<path fill="#b0a08f" d="
  M 229.74 56.72
  L 217.12 58.78
  A 0.56 0.55 -6.6 0 1 216.47 58.27
  Q 216.46 58.13 216.47 57.96
  Q 216.52 57.84 216.58 57.72
  Q 217.19 57.09 218.32 57.30
  A 1.49 1.45 -51.6 0 0 219.23 57.18
  C 221.61 56.01 224.95 54.61 227.01 56.17
  A 0.59 0.58 35.1 0 0 227.86 56.03
  Q 228.42 55.16 229.23 54.75
  A 0.59 0.58 66.4 0 1 230.04 55.07
  Q 230.32 55.79 229.74 56.72
  Z"
/>
<path fill="#514233" d="
  M 140.54 55.18
  Q 140.90 55.31 141.39 55.93
  A 0.32 0.32 0.0 0 1 141.12 56.45
  Q 140.21 56.40 139.93 55.88
  A 0.50 0.49 86.2 0 1 140.54 55.18
  Z"
/>
<ellipse fill="#514233" cx="0.00" cy="0.00" transform="translate(127.57,56.91) rotate(-5.0)" rx="2.02" ry="0.48"/>
<ellipse fill="#514233" cx="0.00" cy="0.00" transform="translate(144.02,57.14) rotate(-130.0)" rx="0.77" ry="0.44"/>
<path fill="#272831" d="
  M 274.28 58.20
  Q 274.06 58.05 274.04 57.54
  Q 274.28 57.86 274.28 58.20
  Z"
/>
<path fill="#514233" d="
  M 113.88 58.45
  Q 115.22 57.83 115.24 57.82
  A 0.49 0.49 0.0 0 1 115.64 58.67
  Q 115.08 59.15 113.93 58.89
  A 0.23 0.23 0.0 0 1 113.88 58.45
  Z"
/>
<path fill="#b0a08f" d="
  M 278.57 67.15
  Q 278.29 67.48 278.66 67.35
  Q 277.64 67.33 277.30 67.58
  Q 276.51 68.16 277.18 69.03
  L 277.18 72.62
  L 276.61 74.31
  L 277.23 78.13
  Q 276.44 81.97 277.23 85.29
  Q 276.86 86.57 277.24 88.38
  L 275.13 88.20
  Q 274.91 87.70 273.79 87.96
  Q 273.89 87.48 273.50 87.21
  L 273.61 76.54
  Q 274.50 74.57 273.82 72.41
  Q 273.70 71.46 273.90 70.58
  L 274.15 58.95
  L 274.28 58.20
  Q 276.10 57.30 277.51 58.60
  Q 278.15 59.19 277.84 59.59
  Q 277.62 59.87 277.32 60.17
  Q 277.05 60.45 277.31 60.86
  Q 277.67 61.46 277.41 61.90
  C 276.88 62.78 277.15 64.13 277.12 65.87
  A 0.99 0.98 -72.2 0 0 277.54 66.70
  Q 277.93 66.97 278.57 67.15
  Z"
/>
<circle fill="#b0a08f" cx="148.34" cy="58.63" r="0.48"/>
<path fill="#b0a08f" d="
  M 215.76 58.36
  L 215.99 58.62
  A 0.38 0.38 0.0 0 1 215.76 59.25
  L 199.80 61.83
  Q 198.95 62.01 198.97 61.81
  A 0.91 0.91 0.0 0 1 199.70 61.00
  Q 206.09 59.74 211.62 58.59
  Q 213.57 58.19 215.76 58.36
  Z"
/>
<path fill="#272831" d="
  M 286.24 63.90
  L 284.47 66.96
  A 0.12 0.12 0.0 0 1 284.26 66.95
  Q 282.36 62.38 279.57 59.27
  A 0.51 0.50 -4.6 0 1 280.22 58.51
  Q 281.37 59.23 282.85 59.11
  A 1.31 1.27 64.4 0 1 283.87 59.49
  Q 285.57 61.20 286.30 63.22
  A 0.81 0.79 -40.7 0 1 286.24 63.90
  Z"
/>
<path fill="#514233" d="
  M 274.15 58.95
  L 273.90 70.58
  L 274.15 58.95
  Z"
/>
<path fill="#514233" d="
  M 156.67 60.16
  L 165.07 62.66
  A 0.43 0.43 0.0 0 1 165.36 63.20
  L 165.20 63.74
  A 0.45 0.45 0.0 0 1 164.50 63.98
  Q 160.79 61.27 156.58 61.03
  A 0.35 0.35 0.0 0 1 156.27 60.58
  L 156.35 60.33
  A 0.26 0.25 15.9 0 1 156.67 60.16
  Z"
/>
<path fill="#b0a08f" d="
  M 198.10 61.73
  Q 196.06 63.13 193.71 62.48
  A 0.98 0.98 0.0 0 0 192.74 62.74
  Q 192.71 62.77 192.68 62.81
  A 1.14 1.10 -72.6 0 1 192.02 63.17
  Q 189.38 63.63 186.75 64.10
  Q 185.99 64.23 185.65 63.16
  Q 187.69 62.71 189.74 62.31
  Q 190.13 62.23 190.49 62.51
  Q 190.99 62.90 191.16 62.89
  Q 191.87 62.83 192.19 62.19
  A 1.24 1.23 6.9 0 1 193.01 61.55
  Q 195.61 60.96 198.10 61.73
  Z"
/>
<path fill="#272831" d="
  M 280.57 61.85
  Q 280.56 62.71 280.09 62.88
  A 1.09 1.05 15.1 0 1 279.00 61.07
  Q 279.02 61.06 280.21 61.38
  A 0.49 0.48 -83.2 0 1 280.57 61.85
  Z"
/>
<path fill="#272831" d="
  M 360.61 69.78
  Q 359.62 70.01 358.72 68.86
  A 2.24 2.23 -16.9 0 0 357.16 68.03
  Q 353.14 67.69 351.59 63.60
  A 0.57 0.56 85.6 0 1 352.23 62.85
  Q 353.35 63.07 354.71 62.19
  L 360.61 69.78
  Z"
/>
<path fill="#b0a08f" d="
  M 184.78 63.19
  L 184.64 64.02
  A 0.84 0.83 -4.0 0 1 184.05 64.69
  Q 183.21 64.93 182.09 64.76
  Q 182.27 63.16 184.10 62.66
  Q 184.54 62.54 184.78 63.19
  Z"
/>
<path fill="#f0f6fc" d="
  M 312.70 62.85
  L 331.89 66.90
  A 0.24 0.22 77.8 0 1 332.02 66.99
  L 338.61 77.95
  A 0.66 0.59 -65.2 0 1 338.70 78.24
  L 338.89 81.76
  Q 338.30 82.93 338.44 83.70
  L 315.49 91.80
  Q 313.52 91.49 311.89 90.63
  Q 311.95 89.97 312.20 89.53
  Q 312.40 89.40 312.51 89.21
  Q 312.61 89.03 312.47 88.80
  Q 311.69 87.52 312.58 85.15
  Q 311.56 85.41 311.97 83.89
  Q 312.38 83.96 312.64 83.86
  Q 313.06 83.70 312.79 83.39
  Q 312.62 83.21 312.20 83.18
  Q 311.79 82.64 312.21 81.92
  L 312.66 81.93
  A 0.31 0.30 -31.6 0 0 312.80 81.35
  Q 311.78 80.85 312.34 79.62
  Q 312.99 78.23 312.39 77.56
  Q 311.70 76.19 312.49 75.88
  Q 312.92 76.30 313.17 75.95
  Q 313.48 75.50 312.98 75.28
  Q 312.64 75.13 312.05 75.20
  Q 312.07 74.38 312.48 73.97
  Q 314.22 73.82 312.53 72.73
  Q 312.50 71.82 312.89 71.28
  Q 313.05 70.55 312.87 69.78
  L 312.92 67.53
  Q 313.13 66.79 313.01 66.02
  Q 313.25 65.76 313.14 64.99
  Q 313.28 64.71 313.16 64.47
  Q 313.06 64.26 312.74 64.18
  Q 312.13 64.02 311.62 64.19
  Q 312.23 62.79 312.70 62.85
  Z
  M 321.0416 67.4202
  A 0.50 0.41 -57.1 0 0 320.4258 67.6173
  A 0.50 0.41 -57.1 0 0 320.4984 68.2598
  A 0.50 0.41 -57.1 0 0 321.1142 68.0627
  A 0.50 0.41 -57.1 0 0 321.0416 67.4202
  Z
  M 325.7951 68.4600
  A 0.47 0.37 -90.6 0 0 325.4300 68.9339
  A 0.47 0.37 -90.6 0 0 325.8049 69.4000
  A 0.47 0.37 -90.6 0 0 326.1700 68.9261
  A 0.47 0.37 -90.6 0 0 325.7951 68.4600
  Z
  M 335.4516 76.2925
  A 2.35 0.33 -107.8 0 0 335.8558 78.6309
  A 2.35 0.33 -107.8 0 0 336.8884 80.7675
  A 2.35 0.33 -107.8 0 0 336.4842 78.4291
  A 2.35 0.33 -107.8 0 0 335.4516 76.2925
  Z"
/>
<path fill="#b0a08f" d="
  M 181.35 64.95
  L 176.21 65.87
  Q 175.39 65.57 174.58 65.40
  Q 174.13 65.30 173.99 65.54
  Q 173.85 65.77 173.97 66.22
  Q 171.27 66.95 169.26 65.33
  Q 169.41 64.73 170.33 64.80
  A 0.65 0.64 89.4 0 1 170.92 65.39
  Q 170.96 65.87 171.48 65.92
  A 0.37 0.32 30.1 0 0 171.68 65.88
  L 174.40 64.30
  A 1.48 1.44 -53.2 0 1 175.41 64.14
  C 177.12 64.47 178.86 63.24 180.33 63.70
  Q 181.30 64.00 181.35 64.95
  Z"
/>
<path fill="#272831" d="
  M 311.62 64.19
  Q 312.13 64.02 312.74 64.18
  Q 313.06 64.26 313.16 64.47
  Q 313.28 64.71 313.14 64.99
  L 311.40 64.48
  A 0.17 0.17 0.0 0 1 311.37 64.17
  Q 311.52 64.08 311.62 64.19
  Z"
/>
<path fill="#272831" d="
  M 290.30 69.69
  Q 289.60 70.78 289.75 71.45
  Q 288.81 71.62 287.67 71.36
  Q 288.32 71.30 288.53 71.05
  Q 288.80 70.72 288.34 70.23
  Q 287.63 69.48 287.41 68.55
  A 0.68 0.68 0.0 0 0 286.07 68.61
  Q 286.05 68.76 286.33 69.26
  Q 285.34 69.11 285.17 67.99
  A 1.21 1.19 -27.9 0 1 285.49 66.98
  L 287.09 65.30
  A 0.60 0.60 0.0 0 1 288.11 65.56
  Q 288.74 67.94 290.30 69.69
  Z"
/>
<path fill="#514233" d="
  M 176.21 65.87
  L 173.97 66.22
  Q 173.85 65.77 173.99 65.54
  Q 174.13 65.30 174.58 65.40
  Q 175.39 65.57 176.21 65.87
  Z"
/>
<path fill="#b0a08f" d="
  M 167.24 65.54
  L 167.40 67.06
  A 0.67 0.67 0.0 0 1 166.94 67.77
  Q 166.30 67.99 165.63 67.96
  Q 166.29 65.45 167.24 65.54
  Z"
/>
<path fill="#272831" d="
  M 339.41 68.39
  Q 338.08 68.20 337.19 66.72
  A 0.74 0.73 80.7 0 1 337.97 65.61
  Q 339.00 65.86 339.73 67.04
  Q 340.80 68.77 342.95 72.92
  A 1.46 1.44 31.4 0 1 343.12 73.60
  Q 343.14 74.77 344.11 75.77
  A 0.69 0.59 63.7 0 1 343.82 76.90
  Q 343.66 76.91 343.45 76.84
  A 0.60 0.55 -4.4 0 1 343.11 76.57
  Q 342.17 74.93 340.35 72.24
  Q 338.92 70.13 339.67 68.95
  A 0.37 0.37 0.0 0 0 339.41 68.39
  Z"
/>
<path fill="#514233" d="
  M 313.01 66.02
  Q 313.13 66.79 312.92 67.53
  Q 312.45 67.10 312.45 66.50
  Q 312.45 66.05 313.01 66.02
  Z"
/>
<path fill="#b0a08f" d="
  M 163.00 66.61
  L 162.47 67.96
  A 0.91 0.89 6.2 0 1 161.77 68.51
  Q 156.45 69.28 151.16 70.17
  Q 151.08 70.19 146.44 71.19
  Q 143.10 71.92 139.53 71.88
  Q 140.63 70.43 143.37 70.31
  Q 143.87 70.29 144.01 70.51
  Q 144.19 70.80 144.23 70.89
  A 0.40 0.39 -35.6 0 0 144.90 71.00
  L 145.26 70.58
  A 0.77 0.73 -71.9 0 1 145.76 70.31
  Q 148.23 70.07 149.34 69.26
  A 1.43 1.41 -68.1 0 1 149.89 69.02
  L 160.96 66.98
  A 1.05 0.96 -69.2 0 0 161.46 66.73
  Q 162.54 65.76 163.00 66.61
  Z"
/>
<path fill="#514233" d="
  M 310.05 67.74
  Q 309.70 67.01 309.90 66.78
  Q 310.26 66.35 310.53 66.80
  Q 310.65 67.01 310.48 67.70
  A 0.23 0.23 0.0 0 1 310.05 67.74
  Z"
/>
<path fill="#272831" d="
  M 278.66 67.35
  Q 278.29 67.48 278.57 67.15
  Q 279.91 66.45 280.72 66.85
  A 0.49 0.49 0.0 0 1 280.86 67.62
  Q 280.76 67.73 280.38 67.64
  Q 280.31 67.62 280.12 68.09
  Q 279.97 68.48 280.10 68.90
  A 0.47 0.46 66.8 0 0 280.77 69.17
  Q 281.70 68.64 281.91 69.23
  A 0.21 0.20 -31.8 0 1 281.86 69.44
  L 279.93 71.37
  A 0.39 0.39 0.0 0 1 279.26 71.08
  Q 279.38 68.99 278.66 67.35
  Z"
/>
<ellipse fill="#272831" cx="0.00" cy="0.00" transform="translate(320.77,67.84) rotate(-57.1)" rx="0.50" ry="0.41"/>
<ellipse fill="#272831" cx="0.00" cy="0.00" transform="translate(325.80,68.93) rotate(-90.6)" rx="0.47" ry="0.37"/>
<path fill="#272831" d="
  M 277.18 69.03
  Q 278.20 69.59 278.15 70.70
  A 1.02 1.00 22.3 0 0 278.51 71.53
  Q 279.14 72.04 278.68 72.61
  A 0.48 0.47 23.5 0 1 278.24 72.78
  L 277.18 72.62
  L 277.18 69.03
  Z"
/>
<path fill="#514233" d="
  M 312.87 69.78
  Q 313.05 70.55 312.89 71.28
  C 312.15 70.98 312.05 70.03 312.87 69.78
  Z"
/>
<path fill="#b0a08f" d="
  M 360.95 70.04
  Q 360.96 70.92 360.30 71.31
  Q 357.35 73.07 354.24 72.52
  A 1.10 1.07 -9.5 0 1 353.49 72.00
  L 353.25 71.58
  A 0.36 0.36 0.0 0 1 353.58 71.04
  L 357.38 71.18
  A 1.33 1.32 25.3 0 0 358.26 70.87
  Q 359.46 69.85 360.95 70.04
  Z"
/>
<path fill="#272831" d="
  M 281.63 71.41
  Q 281.57 70.92 282.44 70.43
  A 0.42 0.42 0.0 0 1 283.01 70.58
  Q 283.44 71.34 282.91 71.74
  A 0.84 0.69 -25.0 0 1 281.63 71.41
  Z"
/>
<path fill="#514233" d="
  M 312.53 72.73
  Q 314.22 73.82 312.48 73.97
  L 310.66 72.98
  A 0.92 0.91 -83.2 0 1 310.21 72.40
  Q 309.94 71.45 310.16 70.96
  A 0.27 0.26 49.0 0 1 310.66 71.00
  Q 311.20 72.83 312.53 72.73
  Z"
/>
<path fill="#b0a08f" d="
  M 128.64 74.08
  L 124.24 74.85
  Q 123.23 74.54 123.04 74.97
  L 118.76 75.77
  Q 118.22 75.60 118.12 75.15
  Q 118.00 74.61 118.51 74.27
  Q 119.01 73.94 119.85 74.33
  A 0.92 0.92 0.0 0 0 120.85 74.17
  Q 122.67 72.46 125.90 73.57
  A 0.80 0.79 32.7 0 0 126.71 73.40
  L 128.14 72.08
  A 0.56 0.56 0.0 0 1 129.07 72.38
  Q 129.18 72.98 128.64 74.08
  Z"
/>
<path fill="#b0a08f" d="
  M 135.49 72.89
  Q 132.87 73.72 130.18 73.59
  Q 130.15 73.12 130.62 72.58
  A 1.56 1.54 -75.3 0 1 131.43 72.10
  Q 134.69 71.37 135.49 72.89
  Z"
/>
<path fill="#514233" d="
  M 273.82 72.41
  Q 274.50 74.57 273.61 76.54
  Q 273.21 74.47 273.82 72.41
  Z"
/>
<path fill="#272831" d="
  M 276.61 74.31
  L 278.34 75.13
  A 0.90 0.90 0.0 0 1 278.84 75.85
  Q 278.97 77.40 277.23 78.13
  L 276.61 74.31
  Z"
/>
<path fill="#b0a08f" d="
  M 346.52 74.39
  A 0.02 0.02 0.0 0 1 346.52 74.36
  A 2.27 1.08 50.8 0 1 348.79 75.44
  L 350.04 76.97
  A 2.27 1.08 50.8 0 1 350.64 79.41
  A 0.02 0.02 0.0 0 1 350.61 79.41
  L 346.52 74.39
  Z"
/>
<path fill="#b0a08f" d="
  M 111.44 74.89
  Q 110.90 75.34 110.83 76.21
  L 110.89 77.05
  Q 110.36 77.60 108.58 77.47
  Q 109.25 74.95 110.73 74.60
  Q 111.45 74.44 111.44 74.89
  Z"
/>
<path fill="#514233" d="
  M 124.24 74.85
  L 123.04 74.97
  Q 123.23 74.54 124.24 74.85
  Z"
/>
<path fill="#b0a08f" d="
  M 111.94 75.33
  Q 116.09 74.53 116.66 76.13
  L 112.55 76.83
  A 0.61 0.61 0.0 0 1 111.85 76.39
  Q 111.73 75.91 111.94 75.33
  Z"
/>
<path fill="#272831" d="
  M 312.05 75.20
  Q 312.64 75.13 312.98 75.28
  Q 313.48 75.50 313.17 75.95
  Q 312.92 76.30 312.49 75.88
  L 311.59 75.68
  A 0.19 0.19 0.0 0 1 311.59 75.30
  L 312.05 75.20
  Z"
/>
<path fill="#272831" d="
  M 283.85 75.88
  Q 281.69 75.73 284.04 80.19
  Q 284.75 81.55 286.44 81.01
  Q 284.73 81.22 284.91 82.05
  A 0.83 0.79 28.2 0 1 283.36 82.47
  Q 282.30 80.17 280.17 77.44
  A 1.13 1.13 0.0 0 1 280.90 75.62
  Q 282.10 75.46 283.85 75.88
  Z"
/>
<path fill="#b0a08f" d="
  M 106.99 77.88
  L 100.23 78.73
  Q 100.03 78.31 100.23 77.93
  A 0.62 0.61 -68.7 0 1 100.95 77.61
  Q 102.32 77.99 103.27 77.30
  A 1.00 0.98 -57.9 0 1 104.02 77.12
  L 105.49 77.37
  A 0.44 0.44 0.0 0 0 105.98 77.05
  Q 106.17 76.33 106.81 76.36
  A 0.58 0.57 -7.3 0 1 107.33 76.76
  Q 107.57 77.53 106.99 77.88
  Z"
/>
<path fill="#514233" d="
  M 110.89 77.05
  L 110.83 76.21
  L 110.89 77.05
  Z"
/>
<ellipse fill="#272831" cx="0.00" cy="0.00" transform="translate(336.17,78.53) rotate(-107.8)" rx="2.35" ry="0.33"/>
<path fill="#b0a08f" d="
  M 99.50 79.30
  L 92.93 80.10
  L 93.11 78.68
  A 0.71 0.70 -86.0 0 1 93.83 78.05
  L 97.03 78.17
  A 0.32 0.32 0.0 0 0 97.35 77.76
  Q 97.21 77.30 97.55 77.15
  A 0.22 0.22 0.0 0 1 97.82 77.21
  L 99.50 79.30
  Z"
/>
<path fill="#514233" d="
  M 312.39 77.56
  Q 312.99 78.23 312.34 79.62
  Q 311.78 80.85 312.80 81.35
  A 0.31 0.30 -31.6 0 1 312.66 81.93
  L 312.21 81.92
  Q 311.88 81.89 311.66 81.70
  Q 311.46 81.52 311.52 81.16
  Q 311.81 79.36 312.39 77.56
  Z"
/>
<path fill="#514233" d="
  M 306.86 78.78
  Q 307.05 79.66 306.81 79.96
  A 0.47 0.42 55.0 0 1 306.05 79.78
  Q 305.73 78.92 306.42 78.57
  A 0.31 0.31 0.0 0 1 306.86 78.78
  Z"
/>
<path fill="#272831" d="
  M 358.24 87.11
  L 357.78 88.93
  L 355.46 91.23
  A 1.33 1.33 0.0 0 1 354.44 91.63
  Q 352.79 91.55 351.82 91.92
  A 0.92 0.91 -36.2 0 1 350.94 91.79
  Q 348.83 90.17 347.99 88.38
  A 2.05 1.97 -58.6 0 1 347.78 87.44
  Q 347.79 84.79 348.36 82.84
  Q 348.75 81.50 350.43 80.65
  Q 350.67 80.53 350.72 80.34
  A 0.59 0.57 10.7 0 1 351.34 79.93
  Q 351.40 79.94 354.13 80.50
  Q 359.39 81.58 358.24 87.11
  Z
  M 355.56 86.15
  A 2.53 2.53 0.0 0 0 353.03 83.62
  A 2.53 2.53 0.0 0 0 350.50 86.15
  A 2.53 2.53 0.0 0 0 353.03 88.68
  A 2.53 2.53 0.0 0 0 355.56 86.15
  Z"
/>
<path fill="#b0a08f" d="
  M 87.98 81.06
  L 83.29 81.77
  Q 82.62 81.07 81.77 80.94
  Q 81.15 80.84 80.85 81.21
  Q 80.54 81.57 80.71 82.19
  Q 79.50 82.71 78.24 82.67
  Q 78.75 82.04 79.67 81.53
  A 0.65 0.61 -7.8 0 0 79.98 81.15
  Q 80.28 80.10 82.01 80.04
  Q 86.53 79.88 87.98 81.06
  Z"
/>
<path fill="#b0a08f" d="
  M 76.70 82.96
  L 72.22 83.64
  Q 72.00 82.94 72.15 82.34
  A 0.81 0.81 0.0 0 1 72.96 81.73
  L 76.24 81.85
  A 0.85 0.84 -80.9 0 0 77.09 81.23
  Q 77.24 80.70 77.25 80.69
  A 0.44 0.44 0.0 0 1 77.95 80.94
  Q 78.16 82.00 76.70 82.96
  Z"
/>
<path fill="#514233" d="
  M 83.29 81.77
  Q 82.15 82.37 80.71 82.19
  Q 80.54 81.57 80.85 81.21
  Q 81.15 80.84 81.77 80.94
  Q 82.62 81.07 83.29 81.77
  Z"
/>
<path fill="#b0a08f" d="
  M 70.67 83.31
  Q 70.58 83.88 69.00 84.15
  Q 68.39 84.51 67.52 84.60
  Q 66.24 84.07 66.23 84.81
  L 60.04 85.99
  A 1.32 1.27 19.5 0 0 59.47 86.25
  L 57.13 88.08
  A 1.60 1.59 42.4 0 1 55.29 88.16
  Q 53.50 87.00 52.97 84.94
  Q 54.20 85.40 54.65 86.36
  Q 58.12 87.14 58.70 84.16
  A 0.92 0.91 5.6 0 1 59.61 83.42
  L 66.93 83.53
  A 0.37 0.18 19.3 0 0 67.02 83.52
  Q 68.46 83.17 69.66 81.56
  A 0.66 0.66 0.0 0 1 70.84 81.83
  Q 70.94 82.35 70.67 83.31
  Z"
/>
<path fill="#b0a08f" d="
  M 375.58 86.08
  Q 373.55 85.71 371.56 87.41
  A 0.57 0.57 0.0 0 0 372.08 88.40
  Q 372.31 88.34 372.76 88.48
  L 372.56 88.71
  L 371.03 89.01
  L 367.05 89.49
  A 0.78 0.78 0.0 0 0 366.36 90.25
  Q 366.35 91.30 367.28 92.76
  A 0.76 0.74 -12.2 0 0 367.84 93.11
  Q 370.03 93.37 370.82 92.48
  A 0.77 0.76 22.8 0 1 371.45 92.23
  L 372.25 92.29
  L 372.19 93.45
  Q 371.71 94.36 372.20 95.33
  Q 371.23 102.96 368.83 109.33
  Q 367.87 111.86 364.46 112.87
  L 361.65 114.31
  A 0.31 0.31 0.0 0 0 361.85 114.89
  Q 363.10 114.63 363.56 115.40
  Q 360.58 121.97 354.58 125.00
  L 350.87 125.00
  L 348.80 123.27
  Q 349.06 121.52 347.31 121.41
  Q 346.90 120.78 346.76 120.00
  Q 347.25 118.43 346.03 118.23
  Q 344.66 118.34 343.51 118.02
  A 0.68 0.68 0.0 0 1 343.02 117.37
  L 342.92 109.04
  L 342.94 108.32
  A 0.18 0.16 14.4 0 0 342.83 108.15
  Q 342.72 108.11 342.52 108.13
  L 327.56 112.15
  Q 327.21 112.00 327.02 112.30
  Q 326.76 112.70 327.04 113.22
  L 326.86 113.78
  C 326.63 111.16 326.30 108.72 326.44 106.07
  Q 326.69 101.13 326.98 95.90
  Q 327.10 95.83 327.09 95.50
  Q 327.08 95.16 326.71 94.85
  C 328.20 94.64 328.67 93.13 329.83 92.73
  Q 331.90 92.02 334.01 91.53
  A 0.77 0.77 0.0 0 1 334.85 91.89
  L 335.15 92.40
  L 329.27 95.16
  A 1.01 1.01 0.0 0 0 328.70 96.02
  L 328.15 111.15
  A 0.22 0.22 0.0 0 0 328.48 111.34
  Q 330.10 110.34 332.32 109.86
  L 337.71 108.22
  A 0.90 0.90 0.0 0 0 338.34 107.21
  Q 338.33 107.13 338.27 106.75
  A 1.32 1.31 -32.6 0 1 338.48 105.81
  L 341.85 100.87
  A 0.72 0.71 44.7 0 0 341.84 100.05
  L 338.76 95.67
  A 0.83 0.81 -59.0 0 1 338.61 95.04
  Q 338.70 94.49 338.53 94.02
  A 1.00 0.99 -4.4 0 0 337.75 93.36
  L 336.28 93.13
  Q 336.35 93.04 336.73 93.04
  Q 337.79 93.46 337.91 92.05
  Q 338.28 87.89 338.44 83.70
  Q 338.30 82.93 338.89 81.76
  Q 343.48 82.16 345.38 87.92
  A 2.45 2.39 -82.6 0 0 346.32 89.17
  Q 347.40 89.89 348.21 91.65
  A 1.00 0.99 -44.7 0 1 348.20 92.49
  Q 347.33 94.30 345.83 94.88
  A 1.15 1.14 -80.6 0 0 345.33 95.24
  Q 344.22 96.60 344.07 98.17
  A 0.47 0.47 0.0 0 0 344.62 98.68
  Q 344.95 98.62 345.43 98.17
  Q 346.44 97.22 349.52 93.42
  A 0.99 0.97 -57.5 0 1 350.70 93.15
  Q 352.93 94.20 354.01 95.92
  A 0.96 0.96 0.0 0 0 354.78 96.36
  L 356.68 96.43
  A 0.39 0.39 0.0 0 1 356.96 97.08
  Q 356.26 97.89 356.21 98.92
  A 0.90 0.89 0.3 0 1 355.34 99.77
  Q 354.59 99.81 354.04 100.53
  A 0.38 0.38 0.0 0 0 354.33 101.15
  Q 355.00 101.18 355.81 100.45
  A 0.93 0.92 -39.3 0 1 357.16 100.58
  Q 358.85 102.81 360.37 104.01
  Q 361.81 105.14 362.78 107.27
  Q 363.68 109.25 362.94 111.35
  A 0.26 0.25 11.7 0 0 363.17 111.69
  L 363.44 111.70
  A 0.11 0.11 0.0 0 0 363.55 111.61
  Q 363.78 110.19 365.24 109.66
  A 0.92 0.91 -34.5 0 1 366.14 109.82
  Q 366.69 110.27 367.16 110.10
  A 0.38 0.37 -6.7 0 0 367.40 109.80
  L 367.62 108.31
  Q 368.85 102.61 371.03 97.50
  Q 371.32 96.83 371.04 96.20
  Q 370.94 96.08 370.75 95.96
  A 0.75 0.74 -71.8 0 1 370.40 95.26
  Q 370.53 94.05 369.46 93.94
  C 367.38 93.71 365.37 91.76 364.54 91.09
  A 2.11 2.04 -41.7 0 0 362.13 90.99
  Q 360.57 91.98 358.89 91.84
  A 0.78 0.77 87.0 0 1 358.20 91.21
  L 357.78 88.93
  L 358.24 87.11
  Q 359.99 87.06 360.83 84.37
  A 0.75 0.75 0.0 0 1 362.12 84.11
  L 363.55 85.78
  L 364.17 90.04
  A 0.29 0.27 -9.0 0 0 364.50 90.27
  L 364.87 90.20
  A 0.20 0.19 81.3 0 0 365.03 89.97
  L 364.47 86.94
  A 0.95 0.94 -30.7 0 1 364.67 86.17
  Q 365.83 84.75 365.99 83.60
  A 1.33 1.32 -1.9 0 1 367.06 82.47
  L 374.36 81.13
  A 1.09 1.09 0.0 0 1 375.65 82.22
  L 375.58 86.08
  Z
  M 360.31 87.01
  A 0.51 0.50 -43.4 0 0 360.28 87.99
  Q 361.85 88.43 362.11 86.73
  A 0.52 0.52 0.0 0 0 361.14 86.39
  Q 360.85 86.89 360.31 87.01
  Z
  M 353.20 101.31
  Q 353.15 100.89 352.34 100.59
  A 0.78 0.76 -8.8 0 0 351.44 101.78
  Q 351.58 101.95 352.87 101.75
  A 0.39 0.38 -8.9 0 0 353.20 101.31
  Z"
/>
<path fill="#272831" d="
  M 286.79 84.34
  Q 286.54 83.06 286.21 82.69
  A 0.46 0.46 0.0 0 1 286.36 81.97
  Q 286.71 81.81 287.23 81.88
  A 0.46 0.45 -82.3 0 1 287.63 82.41
  C 287.40 83.72 288.64 84.61 288.29 85.85
  Q 287.90 87.21 288.45 89.83
  A 0.32 0.31 21.9 0 1 287.88 90.07
  Q 286.66 88.35 286.14 86.58
  A 1.41 1.35 -80.7 0 0 285.68 85.91
  Q 284.75 85.20 284.88 83.82
  A 0.46 0.46 0.0 0 1 285.66 83.54
  L 286.58 84.45
  A 0.12 0.12 0.0 0 0 286.79 84.34
  Z"
/>
<path fill="#272831" d="
  M 281.94 83.07
  A 0.41 0.41 0.0 0 1 281.70 83.82
  Q 280.14 83.73 279.72 84.34
  A 0.46 0.45 -47.1 0 1 278.99 84.37
  L 278.37 83.62
  A 0.41 0.40 -31.9 0 1 278.52 83.00
  Q 280.45 82.10 281.94 83.07
  Z"
/>
<path fill="#514233" d="
  M 70.67 83.31
  Q 70.76 83.71 70.71 84.18
  L 69.00 84.15
  Q 70.58 83.88 70.67 83.31
  Z"
/>
<path fill="#272831" d="
  M 312.20 83.18
  Q 312.62 83.21 312.79 83.39
  Q 313.06 83.70 312.64 83.86
  Q 312.38 83.96 311.97 83.89
  Q 311.58 83.87 311.28 83.76
  A 0.27 0.27 0.0 0 1 311.29 83.25
  Q 311.67 83.12 312.20 83.18
  Z"
/>
<path fill="#9db7d9" d="
  M 338.44 83.70
  Q 338.28 87.89 337.91 92.05
  Q 337.79 93.46 336.73 93.04
  L 335.15 92.40
  L 334.85 91.89
  A 0.77 0.77 0.0 0 0 334.01 91.53
  Q 331.90 92.02 329.83 92.73
  C 328.67 93.13 328.20 94.64 326.71 94.85
  L 315.49 91.80
  L 338.44 83.70
  Z"
/>
<path fill="#514233" d="
  M 54.65 86.36
  Q 54.20 85.40 52.97 84.94
  Q 52.36 84.23 54.10 84.84
  A 0.35 0.35 0.0 0 0 54.51 84.31
  L 54.27 83.96
  L 57.15 84.07
  A 0.48 0.48 0.0 0 1 57.61 84.63
  Q 57.36 86.12 54.65 86.36
  Z"
/>
<path fill="#514233" d="
  M 67.52 84.60
  L 66.23 84.81
  Q 66.24 84.07 67.52 84.60
  Z"
/>
<path fill="#514233" d="
  M 312.58 85.15
  Q 311.69 87.52 312.47 88.80
  Q 312.61 89.03 312.51 89.21
  Q 312.40 89.40 312.20 89.53
  Q 311.78 88.85 310.83 88.83
  A 0.43 0.42 -70.1 0 1 310.51 88.14
  Q 310.62 88.00 311.07 88.10
  Q 311.23 88.13 311.59 87.63
  Q 311.88 87.22 311.61 86.69
  A 0.49 0.49 0.0 0 0 310.93 86.47
  Q 310.56 86.67 310.26 86.64
  A 0.38 0.38 0.0 0 1 310.00 86.02
  Q 310.61 85.29 312.58 85.15
  Z"
/>
<path fill="#514233" d="
  M 360.31 87.01
  Q 360.85 86.89 361.14 86.39
  A 0.52 0.52 0.0 0 1 362.11 86.73
  Q 361.85 88.43 360.28 87.99
  A 0.51 0.50 -43.4 0 1 360.31 87.01
  Z"
/>
<path fill="#f0f6fc" d="
  M 375.58 86.08
  Q 374.65 87.76 372.76 88.48
  Q 372.31 88.34 372.08 88.40
  A 0.57 0.57 0.0 0 1 371.56 87.41
  Q 373.55 85.71 375.58 86.08
  Z"
/>
<path fill="#514233" d="
  M 273.79 87.96
  Q 273.69 88.02 273.59 88.09
  Q 273.45 87.63 273.50 87.21
  Q 273.89 87.48 273.79 87.96
  Z"
/>
<path fill="#f0f6fc" d="
  M 275.13 88.20
  L 275.13 96.18
  L 268.88 94.45
  A 0.10 0.09 -72.6 0 0 268.77 94.51
  L 268.69 94.78
  A 0.32 0.32 0.0 0 0 268.91 95.18
  L 274.02 96.70
  A 0.95 0.94 0.6 0 1 274.66 97.35
  L 275.47 100.27
  Q 274.62 101.78 275.03 104.17
  A 0.83 0.80 43.7 0 1 275.04 104.39
  L 274.59 109.25
  Q 272.88 108.72 271.68 107.59
  C 270.07 106.08 269.11 105.89 267.18 105.36
  Q 266.65 105.21 266.60 104.23
  Q 267.77 103.10 267.13 102.27
  L 267.21 97.46
  Q 267.57 96.43 266.56 95.69
  C 267.53 93.04 271.47 89.98 273.59 88.09
  Q 273.69 88.02 273.79 87.96
  Q 274.91 87.70 275.13 88.20
  Z
  M 271.2663 105.0540
  A 1.21 0.67 -155.8 0 0 272.0954 106.1611
  A 1.21 0.67 -155.8 0 0 273.4737 106.0460
  A 1.21 0.67 -155.8 0 0 272.6446 104.9389
  A 1.21 0.67 -155.8 0 0 271.2663 105.0540
  Z"
/>
<path fill="#272831" d="
  M 372.56 88.71
  L 372.45 91.06
  Q 371.29 89.92 371.03 89.01
  L 372.56 88.71
  Z"
/>
<path fill="#514233" d="
  M 371.03 89.01
  Q 371.29 89.92 372.45 91.06
  L 372.25 92.29
  L 371.45 92.23
  A 0.77 0.76 22.8 0 0 370.82 92.48
  Q 370.03 93.37 367.84 93.11
  A 0.76 0.74 -12.2 0 1 367.28 92.76
  Q 366.35 91.30 366.36 90.25
  A 0.78 0.78 0.0 0 1 367.05 89.49
  L 371.03 89.01
  Z"
/>
<path fill="#272831" d="
  M 311.89 90.63
  Q 313.52 91.49 315.49 91.80
  L 326.71 94.85
  Q 327.08 95.16 327.09 95.50
  Q 327.10 95.83 326.98 95.90
  L 311.63 91.70
  Q 311.01 91.18 310.94 90.85
  A 0.45 0.45 0.0 0 1 311.48 90.33
  Q 311.74 90.38 311.89 90.63
  Z"
/>
<path fill="#272831" d="
  M 279.66 91.79
  A 0.51 0.50 -44.6 0 1 279.67 90.99
  L 279.69 90.98
  A 0.83 0.82 48.1 0 1 280.78 91.04
  Q 281.62 91.86 282.87 91.62
  A 0.75 0.74 -27.4 0 1 283.55 91.83
  L 285.58 93.85
  A 0.57 0.57 0.0 0 1 285.67 94.54
  L 284.24 97.01
  A 0.65 0.65 0.0 0 1 283.08 96.95
  Q 282.56 95.78 281.54 95.04
  A 1.74 1.74 0.0 0 1 280.87 93.98
  Q 280.59 92.55 279.66 91.79
  Z"
/>
<path fill="#9db7d9" d="
  M 311.63 91.70
  L 326.98 95.90
  Q 326.69 101.13 326.44 106.07
  C 326.30 108.72 326.63 111.16 326.86 113.78
  Q 326.93 114.84 326.64 115.03
  Q 325.94 115.50 325.04 115.27
  Q 320.02 114.00 316.33 112.77
  A 2.39 2.35 -42.8 0 0 314.95 112.73
  L 309.82 114.16
  Q 305.93 115.06 310.47 110.74
  Q 311.10 110.93 311.69 110.81
  A 0.41 0.41 0.0 0 0 311.93 110.16
  Q 311.70 109.88 311.21 109.65
  Q 310.85 108.64 311.29 107.87
  Q 311.74 107.95 311.78 107.50
  Q 311.81 107.15 311.47 107.14
  L 311.78 106.12
  Q 312.37 105.85 311.70 105.20
  Q 311.26 104.85 311.37 103.88
  L 312.32 93.74
  A 0.57 0.53 -63.6 0 0 312.20 93.34
  Q 311.75 92.80 311.04 92.89
  Q 311.17 92.18 311.63 91.70
  Z"
/>
<path fill="#272831" d="
  M 335.15 92.40
  L 336.73 93.04
  Q 336.35 93.04 336.28 93.13
  Q 335.25 92.97 334.76 93.12
  A 0.28 0.28 0.0 0 0 334.82 93.66
  Q 336.52 93.82 336.81 94.08
  A 0.34 0.34 0.0 0 1 336.62 94.67
  Q 334.24 94.93 332.36 96.49
  A 0.42 0.41 18.0 0 0 332.73 97.21
  L 336.79 96.18
  A 1.75 1.75 0.0 0 1 338.91 97.45
  L 339.57 100.09
  A 1.81 1.80 75.8 0 1 338.26 102.29
  L 334.37 103.27
  A 0.30 0.30 0.0 0 1 334.07 102.78
  Q 335.09 101.68 335.18 100.41
  A 0.29 0.29 0.0 0 0 334.67 100.21
  L 332.32 103.10
  A 0.84 0.83 65.0 0 0 332.13 103.63
  L 332.14 107.86
  A 1.26 1.20 61.0 0 1 331.98 108.47
  L 331.63 109.08
  A 0.51 0.51 0.0 0 0 332.02 109.85
  Q 332.16 109.86 332.32 109.86
  Q 330.10 110.34 328.48 111.34
  A 0.22 0.22 0.0 0 1 328.15 111.15
  L 328.70 96.02
  A 1.01 1.01 0.0 0 1 329.27 95.16
  L 335.15 92.40
  Z"
/>
<path fill="#272831" d="
  M 279.70 93.13
  A 0.70 0.59 -47.6 0 1 279.65 94.30
  Q 278.70 94.88 277.87 93.75
  A 0.43 0.43 0.0 0 1 278.12 93.07
  Q 278.99 92.88 279.70 93.13
  Z"
/>
<path fill="#272831" d="
  M 311.04 92.89
  Q 311.75 92.80 312.20 93.34
  A 0.57 0.53 -63.6 0 1 312.32 93.74
  L 311.37 103.88
  L 311.48 95.56
  A 0.82 0.80 -25.0 0 1 311.68 95.03
  Q 312.00 94.66 311.96 94.25
  Q 311.93 93.85 311.49 93.83
  Q 310.85 93.81 310.46 93.56
  A 0.36 0.36 0.0 0 1 310.65 92.90
  L 311.04 92.89
  Z"
/>
<path fill="#272831" d="
  M 372.19 93.45
  L 372.20 95.33
  Q 371.71 94.36 372.19 93.45
  Z"
/>
<path fill="#272831" d="
  M 294.59 94.84
  Q 293.47 95.51 295.66 97.65
  A 0.63 0.61 32.0 0 1 295.82 98.30
  Q 295.67 98.74 295.13 98.80
  A 0.66 0.62 -22.8 0 0 294.68 99.83
  Q 295.06 100.29 295.71 99.96
  Q 295.36 100.62 294.62 100.51
  A 0.74 0.74 0.0 0 1 294.12 100.19
  L 290.46 94.64
  A 0.53 0.53 0.0 0 1 291.12 93.86
  Q 292.91 94.68 294.59 94.84
  Z"
/>
<path fill="#272831" d="
  M 275.13 96.18
  Q 277.23 100.60 275.47 100.27
  L 274.66 97.35
  A 0.95 0.94 0.6 0 0 274.02 96.70
  L 268.91 95.18
  A 0.32 0.32 0.0 0 1 268.69 94.78
  L 268.77 94.51
  A 0.10 0.09 -72.6 0 1 268.88 94.45
  L 275.13 96.18
  Z"
/>
<path fill="#272831" d="
  M 287.75 97.98
  Q 287.20 97.96 286.91 98.15
  Q 286.54 98.40 286.78 98.88
  Q 287.10 99.51 286.96 99.97
  A 0.26 0.26 0.0 0 1 286.47 99.99
  Q 285.59 97.97 284.39 98.39
  Q 285.60 96.33 287.04 95.58
  A 0.33 0.33 0.0 0 1 287.53 95.84
  L 287.75 97.98
  Z"
/>
<path fill="#272831" d="
  M 267.21 97.46
  Q 266.57 96.65 266.56 95.69
  Q 267.57 96.43 267.21 97.46
  Z"
/>
<path fill="#514233" d="
  M 308.92 96.02
  A 0.41 0.35 89.3 0 1 309.40 96.57
  Q 309.32 96.75 308.65 97.10
  A 0.23 0.22 1.2 0 1 308.35 96.79
  Q 308.72 96.14 308.92 96.02
  Z"
/>
<path fill="#272831" d="
  M 279.89 101.45
  Q 279.97 101.92 279.01 101.52
  L 277.58 98.71
  A 0.35 0.35 0.0 0 1 277.91 98.20
  L 281.07 98.31
  A 0.40 0.40 0.0 0 1 281.40 98.92
  L 279.89 101.45
  Z"
/>
<path fill="#b0a08f" d="
  M 368.64 100.41
  Q 368.63 101.89 367.64 103.41
  Q 366.51 103.26 366.01 103.77
  A 0.50 0.50 0.0 0 1 365.20 103.22
  Q 367.15 98.80 368.64 100.41
  Z"
/>
<path fill="#514233" d="
  M 352.87 101.75
  Q 351.58 101.95 351.44 101.78
  A 0.78 0.76 -8.8 0 1 352.34 100.59
  Q 353.15 100.89 353.20 101.31
  A 0.39 0.38 -8.9 0 1 352.87 101.75
  Z"
/>
<path fill="#272831" d="
  M 267.13 102.27
  Q 267.77 103.10 266.60 104.23
  Q 266.63 103.20 267.13 102.27
  Z"
/>
<path fill="#272831" d="
  M 278.08 103.82
  Q 277.38 104.36 277.08 104.02
  A 0.82 0.80 87.0 0 1 278.15 102.81
  Q 278.78 103.28 278.08 103.82
  Z"
/>
<path fill="#272831" d="
  M 291.51 106.73
  L 291.17 105.45
  Q 291.74 103.71 293.81 103.36
  A 0.35 0.35 0.0 0 1 294.04 104.00
  L 291.98 105.19
  A 0.77 0.74 78.9 0 0 291.60 105.78
  L 291.51 106.73
  Z"
/>
<ellipse fill="#272831" cx="0.00" cy="0.00" transform="translate(272.37,105.55) rotate(-155.8)" rx="1.21" ry="0.67"/>
<path fill="#272831" d="
  M 311.70 105.20
  Q 312.37 105.85 311.78 106.12
  Q 311.23 105.64 311.70 105.20
  Z"
/>
<ellipse fill="#514233" cx="0.00" cy="0.00" transform="translate(309.42,106.70) rotate(-156.7)" rx="0.27" ry="0.14"/>
<path fill="#272831" d="
  M 311.47 107.14
  Q 311.81 107.15 311.78 107.50
  Q 311.74 107.95 311.29 107.87
  L 310.71 107.77
  A 0.33 0.32 44.2 0 1 310.70 107.13
  Q 311.03 107.06 311.47 107.14
  Z"
/>
<path fill="#514233" d="
  M 342.92 109.04
  L 342.52 108.13
  Q 342.72 108.11 342.83 108.15
  A 0.18 0.16 14.4 0 1 342.94 108.32
  L 342.92 109.04
  Z"
/>
<path fill="#514233" d="
  M 305.56 108.74
  Q 305.55 108.75 304.69 109.25
  A 0.24 0.24 0.0 0 1 304.34 108.96
  Q 304.38 108.85 305.05 108.38
  A 0.33 0.33 0.0 0 1 305.56 108.74
  Z"
/>
<path fill="#272831" d="
  M 275.79 108.75
  Q 275.55 109.03 275.22 109.22
  L 275.12 108.69
  A 0.17 0.16 73.8 0 1 275.20 108.53
  Q 275.45 108.39 275.79 108.75
  Z"
/>
<path fill="#514233" d="
  M 311.21 109.65
  Q 311.70 109.88 311.93 110.16
  A 0.41 0.41 0.0 0 1 311.69 110.81
  Q 311.10 110.93 310.47 110.74
  Q 310.04 110.02 311.21 109.65
  Z"
/>
<path fill="#272831" d="
  M 284.44 111.15
  Q 284.00 111.16 283.91 110.36
  A 0.25 0.23 -25.3 0 1 284.00 110.14
  Q 284.24 109.95 284.46 110.01
  A 0.61 0.54 49.4 0 1 284.44 111.15
  Z"
/>
<path fill="#272831" d="
  M 287.64 111.47
  Q 287.64 111.65 287.55 111.90
  A 0.33 0.31 44.4 0 1 286.95 111.89
  Q 286.83 111.61 287.02 111.30
  A 0.33 0.33 0.0 0 1 287.64 111.47
  Z"
/>
<path fill="#272831" d="
  M 289.71 111.80
  Q 290.45 112.27 291.54 112.16
  A 0.48 0.48 0.0 0 1 292.06 112.72
  L 292.01 113.03
  A 0.34 0.34 0.0 0 1 291.62 113.30
  L 289.55 112.95
  A 0.49 0.49 0.0 0 1 289.15 112.39
  L 289.21 112.02
  A 0.34 0.33 20.5 0 1 289.71 111.80
  Z"
/>
<path fill="#272831" d="
  M 285.90 112.08
  A 0.52 0.38 -60.4 0 1 285.99 112.87
  Q 285.68 113.23 285.30 113.01
  A 0.51 0.51 0.0 0 1 285.29 112.12
  Q 285.47 112.02 285.90 112.08
  Z"
/>
<path fill="#272831" d="
  M 327.56 112.15
  L 327.04 113.22
  Q 326.76 112.70 327.02 112.30
  Q 327.21 112.00 327.56 112.15
  Z"
/>
<path fill="#272831" d="
  M 282.70 112.99
  L 283.83 114.49
  Q 283.24 114.52 282.81 114.18
  Q 282.19 113.70 282.70 112.99
  Z"
/>
<path fill="#272831" d="
  M 364.46 112.87
  L 363.56 115.40
  Q 363.10 114.63 361.85 114.89
  A 0.31 0.31 0.0 0 1 361.65 114.31
  L 364.46 112.87
  Z"
/>
<path fill="#272831" d="
  M 295.46 113.41
  Q 294.81 113.38 294.24 113.97
  Q 294.21 113.49 294.55 113.32
  Q 294.91 113.13 295.46 113.41
  Z"
/>
<path fill="#272831" d="
  M 284.79 114.70
  Q 284.09 114.82 283.83 114.49
  Q 284.44 114.30 284.79 114.70
  Z"
/>
<path fill="#272831" d="
  M 293.24 114.46
  Q 292.85 114.81 292.27 114.78
  Q 292.06 114.17 293.24 114.46
  Z"
/>
<path fill="#272831" d="
  M 290.13 115.22
  Q 288.44 116.62 286.69 115.28
  Q 288.41 115.57 290.13 115.22
  Z"
/>
<path fill="#514233" d="
  M 346.76 120.00
  L 346.03 118.23
  Q 347.25 118.43 346.76 120.00
  Z"
/>
<path fill="#514233" d="
  M 348.80 123.27
  Q 347.80 122.72 347.31 121.41
  Q 349.06 121.52 348.80 123.27
  Z"
/>
</svg>
