<?xml version="1.0" encoding="UTF-8" standalone="no"?>
<!-- Created with Inkscape (http://www.inkscape.org/) -->

<svg
   width="210mm"
   height="297mm"
   viewBox="0 0 210 297"
   version="1.1"
   id="svg1"
   xml:space="preserve"
   sodipodi:docname="ACE-icon.svg"
   inkscape:version="1.4 (e7c3feb1, 2024-10-09)"
   xmlns:inkscape="http://www.inkscape.org/namespaces/inkscape"
   xmlns:sodipodi="http://sodipodi.sourceforge.net/DTD/sodipodi-0.dtd"
   xmlns="http://www.w3.org/2000/svg"
   xmlns:svg="http://www.w3.org/2000/svg"
   xmlns:rdf="http://www.w3.org/1999/02/22-rdf-syntax-ns#"
   xmlns:cc="http://creativecommons.org/ns#"
   xmlns:dc="http://purl.org/dc/elements/1.1/"><sodipodi:namedview
     id="namedview1"
     pagecolor="#ffffff"
     bordercolor="#000000"
     borderopacity="0.25"
     inkscape:showpageshadow="2"
     inkscape:pageopacity="0.0"
     inkscape:pagecheckerboard="0"
     inkscape:deskcolor="#d1d1d1"
     inkscape:document-units="mm"
     inkscape:zoom="0.206821"
     inkscape:cx="311.86389"
     inkscape:cy="415.81852"
     inkscape:window-width="1104"
     inkscape:window-height="589"
     inkscape:window-x="0"
     inkscape:window-y="25"
     inkscape:window-maximized="0"
     inkscape:current-layer="svg1" /><title
     id="title1">ACE SVG Icon</title><defs
     id="defs1" /><g
     id="layer1"
     transform="matrix(0.7702265,0,0,0.88600859,29.050263,17.662857)"><path
       d="m 37.489219,312.00584 c -2.158469,-6.2893 9.224232,-19.48021 5.546191,-12.82824 4.846863,-13.7079 10.210599,-27.23985 14.783143,-41.0396 -2.517051,-7.36616 -20.54943,15.05697 -15.113784,-1.49253 5.255213,-15.40794 11.139525,-30.62469 16.05266,-46.13476 -4.797586,-7.42965 3.151731,-14.19798 -6.555979,-19.44117 -8.127404,-4.04311 -6.728453,15.60611 -17.252501,15.75478 -22.862418,15.39496 -45.458251,31.20318 -68.506381,46.31085 -5.755672,-7.47969 7.169976,-21.1665 7.80558,-30.77321 9.328994,-11.33397 24.2405763,-17.29313 35.791455,-26.46438 7.549738,-7.21911 25.76262,-10.80233 18.738578,-22.41433 13.23723,-4.95074 0.620911,-13.48611 3.678933,-22.23315 1.904865,-8.58988 1.219823,-30.14848 14.976406,-24.97389 10.496897,9.2297 4.288543,-14.17572 15.283848,-16.32855 6.142415,-10.950493 15.42888,-12.186648 23.334335,-2.4436 17.292947,2.8546 -2.821013,-11.797123 -6.545826,-17.957593 -7.444587,-6.50476 -5.390604,-8.828528 0.716611,-1.601903 7.418852,3.487434 18.343766,26.331506 20.938092,7.641461 5.53663,-11.937718 6.81274,-26.978702 15.72744,-36.60222 12.68472,-6.737749 19.90051,-20.072487 24.12978,-33.292909 2.64606,-8.621984 10.68461,-26.18815633 9.99194,-29.5378905 -5.54227,-8.5815095 13.07874,-14.7266245 3.79137,-3.2771945 -7.03733,14.5108997 -11.80472,30.301997 -17.36683,45.526877 1.40336,12.756143 23.7239,-15.400157 16.51986,3.133473 -5.43612,15.661166 -12.11199,31.247623 -17.12056,46.822068 0.41289,12.867591 13.67637,24.378881 19.98522,7.288642 25.12125,-17.101679 49.89911,-35.046615 75.39558,-51.374792 -2.34528,12.730422 -5.27093,30.373353 -16.74042,38.734211 -15.36767,10.994871 -31.49802,20.98855 -46.3945,32.60326 -2.80925,8.09772 6.83118,14.40894 3.00019,21.97378 -0.27669,8.7674 13.03797,6.86071 9.88391,17.18238 -4.89022,4.40543 8.62833,12.99215 -0.63552,20.29186 -12.28281,20.58836 -29.93043,38.07053 -49.75702,51.35201 -9.40999,7.64962 -22.01235,10.15649 -29.58223,-0.91209 -11.031966,5.30236 -18.620221,8.19335 -27.833238,16.90596 -9.72108,5.09963 -15.700459,14.69086 -18.67625,25.09026 -4.455986,13.57447 -11.35919,26.86224 -12.98225,40.84533 -1.14402,1.47444 -2.74626,4.16368 -5.007833,3.6668 z M 47.576262,255.4461 c 4.560359,-3.5654 4.165705,-3.30818 8.354301,-5.67318 1.239398,-3.06672 5.123685,-2.80249 5.383869,-3.92922 4.695838,-3.89176 3.801887,-2.33718 8.379975,-5.72299 2.733143,-3.03767 11.446072,-6.90883 12.127853,-10.04024 -1.818766,-2.44772 3.776721,-3.94116 0.704963,-5.35562 6.102252,-4.57759 -2.415992,-1.94764 4.946562,-7.68158 -5.667872,1.76036 3.834159,-5.00039 -0.460918,-4.97973 6.263097,-4.71759 -2.239094,-1.85527 4.825757,-7.8279 -4.009159,3.48019 5.41787,-7.87469 -0.0533,-5.22585 6.9882,-5.40848 -3.594797,1.04478 3.09485,-5.74057 0.93893,-0.51082 -0.67854,-3.73316 1.89503,-5.09691 -5.1031,1.60483 6.793296,-7.97646 0.0686,-3.37646 6.836836,-9.81656 -1.09256,-2.69886 -3.6797,-1.16166 -4.740816,4.28755 -3.386003,1.27199 -8.488205,6.60123 1.022722,-2.78537 -4.928928,3.33512 -5.197725,2.89081 -4.913498,3.18006 -8.321016,6.61996 -13.001728,8.88316 -1.723126,1.69822 -3.905102,3.38254 -2.28905,5.02709 -3.33607,2.68928 -1.281096,4.97206 -3.670982,7.01621 3.159633,0.7313 -5.089313,5.51853 -0.646376,5.13448 -5.153649,5.32936 0.551517,1.7215 -5.275597,9.04727 3.057161,1.02721 -3.663116,8.44809 -0.407544,6.0225 -3.48248,6.85135 -2.206526,2.87225 -2.308107,7.04964 -4.6913,2.70624 2.253959,2.06418 -4.232145,6.93998 5.906921,-2.75872 -4.031893,5.25518 0.362271,4.49175 -4.065903,3.30839 -1.942431,4.43346 -0.432654,2.70779 z m 0.908716,-2.43829 c 2.48082,-8.38589 8.05737,-3.05147 0,0 z m 4.582813,-3.3459 c 2.764425,-8.25562 8.886469,-4.11047 0,0 z m -2.996837,-1.01972 c 2.359621,-8.38828 8.135612,-2.71183 0,0 z m 7.674225,-2.12007 c 1.347206,-7.06502 10.032502,-5.54393 0,0 z m -3.079077,-1.33496 c 4.563025,-9.39715 6.892206,-1.73213 0,0 z m -3.270923,-0.55633 c 2.597283,-8.44958 8.410921,-3.29342 0,0 z m 10.847916,-1.16817 c 1.522552,-7.4145 9.224149,-4.98675 0,0 z m -3.103741,-1.17298 c 3.551944,-8.97593 7.441425,-2.42212 0,0 z m -3.114288,-1.18812 c 4.813022,-9.74436 6.804057,-1.29192 0,0 z m -3.042387,-0.81276 c 3.086013,-9.465 7.735989,-2.1235 0,0 z m 13.875113,-0.4764 c 6.081032,-10.34696 4.825593,0.65203 0,0 z m -3.29178,-0.47323 c 2.170661,-7.73766 9.379903,-4.98315 0,0 z m -2.910417,-1.16704 c 2.276484,-8.22145 8.257249,-3.1213 0,0 z m -3.154493,-0.89388 c 2.239967,-7.86869 9.224678,-5.00295 0,0 z m 13.890084,-0.54231 c 5.450394,-10.43791 6.813405,-1.34504 0,0 z m -17.08559,-0.30719 c 2.748743,-8.39587 9.313086,-4.83936 0,0 z m 14.312267,-1.5449 c 6.798067,-9.98975 2.703563,3.0951 0,0 z m -3.464351,0.18201 c 2.410239,-8.18529 9.160427,-4.45189 0,0 z m -2.994715,-0.81752 c 2.088945,-8.60898 8.645737,-4.39872 0,0 z m 13.842631,-0.42912 c 1.615778,-7.29703 9.222051,-5.28421 0,0 z m -16.918944,-0.90703 c 1.541623,-6.61927 10.294207,-6.54233 0,0 z m 13.743944,-0.0317 c 2.312283,-8.2868 8.52881,-3.54786 0,0 z m -16.933117,-0.77473 c 2.474464,-8.36455 8.173778,-3.12714 0,0 z m 13.758117,-0.13603 c 2.746295,-9.80884 8.358682,-3.08095 0,0 z m -2.987371,-0.88902 c 1.615532,-7.5872 9.17377,-5.37642 0,0 z m -2.978283,-1.62079 c 4.259884,-8.85144 5.122414,0.22629 0,0 z m 13.638571,0.3001 c 1.737415,-7.349 10.495247,-6.50163 0,0 z M 60.391012,229.0068 c 1.984007,-7.66188 9.402932,-5.3006 0,0 z m 14.022916,-0.49196 c 2.265022,-8.40131 8.199812,-2.66377 0,0 z m -3.176308,-0.90703 c 2.345032,-8.24921 8.275082,-3.11326 0,0 z m -3.173476,-0.79375 c 2.573373,-8.43969 8.472577,-3.65458 0,0 z m -2.895849,-1.29064 c 5.74457,-11.00989 5.790638,-0.85102 0,0 z m 13.865123,-0.54679 c 4.460856,-9.20084 5.949507,-0.59809 0,0 z m -3.296573,-0.46775 c 2.040164,-7.55413 10.057459,-5.72681 0,0 z m -3.000616,-0.87806 c 1.716775,-7.50775 9.137931,-5.29847 0,0 z m -13.40355,-1.07676 c 2.649465,-6.33872 7.437006,-2.84998 0,0 z m 10.318749,0.0499 c 2.061575,-8.33283 8.34667,-3.45414 0,0 z m 11.129711,-2.64421 c 6.60676,-9.66803 3.11942,2.97677 0,0 z m -3.520468,0.55086 c 1.936249,-8.20603 8.996215,-4.84369 0,0 z M 60.54327,219.00883 c 6.223681,-10.73394 4.877262,0.45139 0,0 z m 3.287325,0.45453 c 3.762417,-7.08385 6.844209,-2.55779 0,0 z m 10.489315,-0.58682 c 4.128279,-8.81534 5.212439,0.18811 0,0 z m -3.058933,-0.67018 c 1.132273,-1.24118 1.257848,-0.2105 0,0 z m 1.478963,-1.00462 c 3.965381,-3.00002 1.19571,-0.24381 0,0 z m 9.082321,0.0579 c 1.636949,-7.50857 9.137223,-4.89336 0,0 z M 64.888929,216.3068 c 2.084441,-7.39567 9.131521,-5.1692 0,0 z m 3.777456,-0.81714 c 5.517761,-6.8146 2.544429,1.61271 0,0 z m 10.133134,0.34419 c 3.923882,-8.90229 5.889136,-0.66372 0,0 z m -16.821007,-0.7849 c 2.731507,-8.28497 7.78602,-2.64978 0,0 z m 13.906334,0.006 c 4.210901,-3.97802 4.25211,-2.13239 0,0 z m -6.233418,-2.18331 c 3.447186,-8.35135 7.666225,-3.57411 0,0 z m 3.448959,-0.0847 c 2.807384,-5.83292 6.967264,-2.10068 0,0 z m 10.309374,0.1336 c 1.549287,-7.15929 9.318963,-5.60049 0,0 z m -16.91855,-1.05576 c 2.712984,-8.25346 7.995439,-2.59496 0,0 z m 13.749199,0.16272 c 3.074827,-3.67372 5.370123,-1.71674 0,0 z m -16.822201,-1.31959 c 4.084412,-8.65489 5.369103,-0.0381 0,0 z m 10.731136,-0.83721 c 1.512799,-7.04291 9.19146,-5.24512 0,0 z m 3.439583,0.005 c 2.88721,-6.42243 7.115759,-3.27619 0,0 z m -6.614583,-0.96403 c 2.020253,-7.49424 8.913246,-4.6871 0,0 z M 85.0073,208.69761 c 3.434554,-3.54114 4.72559,-2.05027 0,0 z m -17.055697,-1.06625 c 3.785399,-8.71705 5.839197,-0.6343 0,0 z m -2.756781,-1.98437 c 7.141026,-9.95636 2.353195,3.52457 0,0 z m 13.537551,0.88743 c 3.768893,-8.91735 7.145021,-2.4145 0,0 z m 3.44573,-0.016 c 4.189656,-7.26028 6.29324,-1.68097 0,0 z m -6.25541,-1.92975 c 6.463716,-9.78257 3.429573,2.23179 0,0 z m -3.346459,0.0169 c 2.778527,-8.33476 8.749856,-3.88196 0,0 z m -3.189389,-0.82966 c 2.248951,-8.24332 8.37983,-3.36184 0,0 z m 13.758333,-0.15588 c 2.093449,-7.75641 8.791166,-4.40704 0,0 z m 3.439583,0.009 c 3.094896,-6.46492 7.515813,-3.40265 0,0 z m -6.015806,-2.41825 c 7.040204,-9.8207 2.494408,3.1496 0,0 z m -3.509194,0.50593 c 1.643869,-7.48248 9.123654,-5.31836 0,0 z m -3.022742,-1.49343 c 5.810714,-10.58881 5.313051,0.23058 0,0 z m 13.870658,0.10638 c 1.728486,-7.30627 8.727787,-4.99781 0,0 z m -3.175,-1.05144 c 2.206627,-8.00606 8.408147,-3.35879 0,0 z m -3.174999,-0.75274 c 2.608095,-8.99606 8.092422,-3.24542 0,0 z m -3.022064,-1.4761 c 4.208405,-8.88962 5.723057,-0.58504 0,0 z m 10.69498,-0.85091 c 2.03123,-7.44364 9.05615,-5.09499 0,0 z m -2.996373,-0.84554 c 1.485728,-7.44689 9.249953,-5.54163 0,0 z m -3.088828,-1.2188 c 1.550546,-7.25932 9.033411,-4.45975 0,0 z m 7.672701,-2.26408 c 2.31049,-8.13872 8.24149,-3.15792 0,0 z m -3.175,-0.79375 c 2.226891,-8.20355 8.40116,-3.41445 0,0 z m 4.49792,-3.07992 c 2.43812,-8.59319 8.724366,-3.68563 0,0 z m -34.569909,66.41397 c -0.777733,-0.93057 -0.737827,1.24484 0,0 z m -88.588073,-8.34785 c 2.927804,-0.50505 8.417197,-6.63674 11.667619,-6.898 5.048529,-5.43766 9.249113,-5.9237 15.1762031,-11.30447 3.41613694,-0.4645 8.8827883,-7.68892 11.6165403,-6.78152 4.4287866,-5.00441 9.2641806,-5.69985 13.4104876,-10.38097 4.926119,-1.76434 8.687641,-6.39932 13.266731,-8.29134 2.894673,-2.96812 7.922973,-4.02555 5.594525,-6.74011 5.789395,-3.08585 -4.325914,0.30899 3.213392,-4.81603 -5.809383,2.63765 2.917239,-6.11905 -2.100459,-2.52698 -5.895033,6.3294 2.047987,-5.08425 -7.02298,-2.12503 -2.511448,0.95204 2.206176,-6.32384 -3.884029,0.0275 0.503843,-2.63155 -4.83598,4.54916 -4.071142,1.49626 -4.435674,4.59618 -8.133398,5.86535 -11.217094,8.12608 -4.151542,2.40639 -7.1893276,6.23958 -10.1573206,6.1426 -4.39695546,5.28845 -5.9782502,3.47722 -11.1856287,9.14695 1.6568128,-3.69584 -4.6902387,3.97421 -3.9695597,1.63591 -4.372302,4.54598 -1.843783,0.37743 -7.128158,5.71381 1.63392,-2.84093 -4.147283,3.19864 -3.82293,1.78192 -3.848095,5.29582 -2.043945,7.25857 -6.349016,13.24293 3.703655,-0.494 -1.829527,2.97422 0.256732,4.00564 -2.860176,2.56399 -1.494804,4.76259 -3.293913,8.54486 z m 1.25166,-1.91823 c 2.540458,-7.71137 7.030513,-0.82123 0,0 z m 3.902158,-2.34069 c 1.104218,-6.18557 7.848316,-3.92414 0,0 z m -2.645833,-0.86912 c 3.884343,-8.73621 6.038799,-1.14956 0,0 z m 6.349999,-1.65428 c 1.373042,-6.37902 8.065039,-3.84155 0,0 z m -2.645833,-0.71117 c 1.617943,-6.51956 7.785349,-3.98526 0,0 z m -2.645833,-0.79375 c 1.624648,-6.54253 7.798791,-3.96687 0,0 z m 9.260417,-1.30014 c 2.949738,-7.62114 6.368172,-1.63439 0,0 z m -2.757989,-0.43421 c 1.158147,-6.51683 7.937619,-4.08594 0,0 z m -2.355889,-2.03035 c 5.747502,-8.38091 2.539486,2.74951 0,0 z m -2.823622,0.24253 c 1.280021,-6.16343 7.512755,-3.42068 0,0 z m 11.64565,-0.29528 c 1.882013,-6.66638 7.1347859,-2.48437 0,0 z m -2.649817,-0.60033 c 0.838648,-5.67159 8.558303,-5.20645 0,0 z m -2.645834,-0.7982 c 1.397727,-6.63721 7.813385,-3.83135 0,0 z m -2.645833,-0.67182 c 1.123691,-6.0664 7.743699,-4.21079 0,0 z m 11.641667,-0.50398 c 1.8199235,-6.38596 7.7561171,-3.04488 0,0 z m -14.2875,-0.20076 c 1.507128,-6.31378 7.780063,-4.45041 0,0 z m 11.641666,-0.36921 c 1.469808,-6.46191 7.7480738,-3.51837 0,0 z m -2.540112,-1.2758 c 5.058394,-9.20983 4.968275,0.2293 0,0 z m -2.619352,-0.73927 c 4.7039,-8.60181 4.989931,-0.35984 0,0 z m 11.8894644,-0.60227 c 5.2291841,-9.70764 2.7026608,3.71256 0,0 z m -14.6009084,0.0731 c 3.398859,-7.48175 6.135795,-1.91852 0,0 z m 11.5750749,0.13533 c 1.3535953,-6.46545 7.992991,-3.88715 0,0 z M -12.3694,227.5888 c 2.049185,-7.5203 7.1463138,-2.64147 0,0 z m -2.496042,-1.4362 c 4.682897,-8.09687 5.0688611,-0.32398 0,0 z m -8.351875,-0.18739 c 4.53419,-5.74492 3.741662,-0.25107 0,0 z m 20.230846,0.0551 c 3.69088404,-7.77312 5.7523244,-1.14439 0,0 z m -14.246013,-1.2297 c 5.584897,-7.92308 2.553113,2.46499 0,0 z m 11.2130833,1.0784 c 1.5216481,-6.54635 7.9864441,-3.8428 0,0 z m -2.6458332,-0.95124 c 2.4971967,-7.6232 7.0272114,-2.1006 0,0 z M -22.68815,224.28151 c 1.498729,-6.38663 7.36629,-3.5623 0,0 z m 11.554697,-0.09 c 1.1395356,-6.12932 7.5128496,-3.97969 0,0 z m -8.459858,-0.86979 c 5.686997,-5.98606 2.488548,0.85178 0,0 z M 0.95584944,222.7617 c 4.32587396,-6.87313 3.47275696,1.95843 0,0 z M -13.9569,223.46257 c 2.433152,-6.93126 6.8408068,-2.77224 0,0 z m 11.9077247,-0.35267 c 1.70612894,-6.93851 7.4502747,-2.90428 0,0 z m -2.8267798,-0.70006 c 2.270734,-7.70126 7.0767485,-1.83989 0,0 z m -14.1080279,-0.65321 c 1.055017,-5.29426 7.636968,-4.54991 0,0 z m 11.3770824,-0.16273 c 1.5251422,-5.26528 8.22142514,-5.30539 0,0 z m -8.2027194,-0.93021 c 5.9580119,-5.96051 2.140585,1.13746 0,0 z m 20.4670204,0.065 c 3.303845,-6.94336 4.822627,-0.17051 4e-6,0 z m -14.4396661,-1.0103 c 5.4517147,-7.80613 2.1735062,2.97223 0,0 z m 11.4397981,1.03234 c 1.273475,-6.38276 8.054097,-4.03015 0,0 z m -2.64984996,-0.91739 c 1.7316471,-7.42098 6.90822196,-2.02905 0,0 z M -15.147615,218.74431 c 3.504378,-7.59252 4.90209,-0.24453 0,0 z m 11.5094642,0.12253 c 2.5589361,-7.14457 6.6343582,-2.45063 0,0 z m -8.5377002,-0.60707 c 6.2886501,-6.32154 1.68633,1.34049 0,0 z m 5.6938757,-0.0446 c 3.3988867,-7.48177 6.13577054,-1.9185 0,0 z m 14.8880827,-0.13229 c 6.6065516,-10.54214 3.0801176,2.18689 0,0 z m -2.652024,-1.0346 c 5.6200606,-8.28164 2.595224,2.71569 0,0 z m -3.042235,0.36399 c 1.189329,-6.77913 7.8185046,-3.68272 0,0 z m -14.1521964,-1.28066 c 3.9352245,-7.66137 4.6088045,0.16191 0,0 z m 11.50636364,0.18727 c 3.15263776,-7.72647 6.04500676,-1.34365 0,0 z m -8.46666614,-0.54853 c 3.5859932,-4.41564 3.6117766,-0.37829 0,0 z m 20.7259715,-0.37886 c 5.337555,-8.56415 2.871608,3.05235 0,0 z m -14.7386344,-0.6624 c 5.6868708,-7.98077 2.39755194,2.68516 0,0 z m 11.7397448,0.54893 c 3.5476686,-7.96427 6.1629006,-1.66927 0,0 z m -2.802614,-0.76708 c 4.5698936,-9.32828 5.3876826,-0.39502 0,0 z m -14.3953013,-0.36618 c 1.4393249,-6.11616 7.22677024,-3.58732 0,0 z m 11.6416663,-0.26458 c 1.29359,-6.08383 7.5247216,-3.45005 0,0 z m -8.7312498,-0.28881 c 3.1837319,-4.43617 4.41989464,-1.50839 0,0 z m 6.0854168,-0.36279 c 1.689735,-6.64135 7.179138,-3.25091 0,0 z m 14.9101336,-0.17285 c 5.196841,-8.86621 4.593338,0.37863 0,0 z m -2.983756,-0.26458 c 2.891582,-7.60572 6.81544,-1.68867 0,0 z m -2.841216,-0.71106 c 3.067124,-8.01544 6.45143,-1.53004 0,0 z m -14.2177614,-1.38444 c 5.6202278,-8.17857 2.2425655,2.76469 0,0 z m 11.4825988,0.8337 c 1.289511,-6.06259 7.7449846,-4.40054 0,0 z m -8.7271978,-0.59029 c 4.8000138,-5.28663 3.9072138,-0.77423 0,0 z m 6.0813648,-0.42354 c 2.659744,-7.15431 6.5084526,-1.61021 0,0 z m 15.0812486,0 c 3.136467,-7.09036 6.294671,-1.89858 0,0 z m -3.073102,-0.37021 c 4.002004,-8.23803 5.900573,-1.17434 0,0 z m -2.821487,-0.26511 c 0.904545,-6.80864 7.94934,-3.98169 0,0 z m -14.56815146,-0.50822 c 1.0407731,-6.24771 7.35168086,-3.88859 0,0 z M 11.280412,208.55781 c 3.692131,-7.82198 5.55902,-0.94068 0,0 z M 2.6196954,208.0856 c 4.45326,-4.72983 3.325668,-0.078 0,0 z m 5.912986,0.0105 c 1.9379116,-6.78124 6.4955326,-2.07376 0,0 z m 15.1852336,-0.28758 c 3.544434,-7.10019 5.656379,-1.17012 0,0 z m -2.887878,-0.83826 c 4.149556,-7.37817 3.542124,2.16106 0,0 z m -3.036939,0.18331 c 1.840956,-8.12358 7.73043,-3.16126 0,0 z M 2.9764324,206.81896 c 1.383766,-6.24141 7.4335966,-3.5861 0,0 z m 12.0560406,-1.03932 c 3.405435,-7.21744 5.209144,0.0435 0,0 z m -8.8769896,0.13229 c 4.5026626,-4.96509 3.8692186,-0.93934 0,0 z m 6.2606686,-1.27462 c 5.66161,-7.97406 2.330909,2.83706 0,0 z m 15.086694,1.04044 c 0.252578,-5.34267 8.409597,-4.17397 0,0 z m -3.09369,-0.40523 c 2.616723,-7.46937 6.710618,-2.40215 0,0 z m -2.911892,-0.48458 c 1.304169,-7.53742 7.611967,-2.96972 0,0 z M 6.8303904,203.66297 c 2.477795,-6.17058 6.7291126,-1.85156 0,0 z m 11.8789706,-0.13229 c 3.922459,-8.07127 5.757149,-1.1157 0,0 z m -8.8537626,-0.31727 c 4.4035666,-5.01973 3.2901656,-0.0751 0,0 z m 6.0234666,0.10098 c 1.001762,-6.11466 7.694989,-3.97649 0,0 z m 15.407782,-0.4414 c 3.392328,-7.34197 5.941154,-1.36477 0,0 z m -3.173524,-0.13606 c 1.721157,-6.96893 7.407245,-2.3588 0,0 z m -2.766915,-1.19063 c 3.778288,-8.14163 4.231206,1.32643 0,0 z m -14.859746,-0.13229 c 3.887243,-7.87371 5.284609,-0.96457 0,0 z M 22.545021,200.591 c 4.156966,-7.61845 4.662511,0.48099 0,0 z m -8.985256,0.13287 c 4.269972,-4.55323 3.995974,-0.99404 0,0 z m 6.085416,-0.2885 c 3.233119,-7.43311 6.047128,-1.70006 0,0 z m 12.331261,-0.58669 c 4.921859,-8.93736 4.964089,0.0946 0,0 z m 3.112392,0.11012 c 3.214021,-6.3872 4.838394,0.0584 0,0 z m -6.094767,-0.57652 c 2.419563,-8.32355 6.774339,-1.08837 0,0 z m -14.90366,-0.20792 c 1.636319,-6.71737 7.122159,-2.43797 0,0 z m 12.169357,-0.68757 c 2.67335,-7.1411 6.593499,-2.37311 0,0 z m -8.995833,-0.30046 c 4.505281,-4.87827 3.142336,-0.26598 0,0 z m 6.085416,-0.0391 c 1.628173,-6.61881 7.101625,-2.99617 0,0 z m 12.522644,-1.00586 c 4.238811,-7.97801 2.996654,1.82357 -0.0115,0.0575 z m -3.071401,0.0387 c 0.854773,-6.92329 7.951717,-3.93083 0,0 z m -14.847924,-1.48075 c 5.418401,-7.60885 2.32512,2.83721 0,0 z m 12.13141,-0.33682 c 3.80885,-7.17871 3.863834,1.62734 0,0 z m -9.115979,0.35568 c 4.217533,-4.52579 3.943488,-0.93088 0,0 z m 6.085417,-0.33202 c 3.28102,-7.54122 5.94932,-1.52279 0,0 z m 9.641952,-1.64514 c 3.716671,-8.21629 4.004249,2.0375 0,0 z m -15.104479,-0.39393 c 4.598865,-7.4195 2.548973,2.48702 0,0 z m 12.078585,0.27149 c 1.603005,-6.70532 7.316299,-3.05284 0,0 z m -8.997308,-0.45928 c 4.604025,-4.74603 3.046197,-0.51317 0,0 z m 6.105545,-0.20205 c 2.493663,-7.03032 6.530924,-2.35966 0,0 z m -5.657786,-1.03935 c 0.876592,-6.184 7.409158,-3.79445 0,0 z m 3.256407,-1.24353 c 3.426802,-4.17669 4.941793,-1.61947 0,0 z m 6.085417,-0.29311 c 3.229558,-7.4762 6.043101,-1.60351 0,0 z m -5.718936,-1.40261 c 3.835275,-7.93249 5.455147,-0.77517 0,0 z m 3.34244,-0.89562 c 2.753752,-3.34209 5.216802,-1.91637 0,0 z m 59.474773,41.80636 c -3.060335,-10.72328 -8.310922,5.36113 0,0 z m 6.40172,-13.32793 c -0.44968,-6.55566 0.89079,-5.44677 0.20308,-1.2792 1.57483,-4.72241 0.26756,-4.66125 1.38034,-5.81406 1.661386,-1.1655 1.010206,-5.38261 1.683986,-6.93815 -0.38113,1.89917 0.62364,-1.03716 0.57093,-2.84857 1.27452,0.74296 -0.58127,-1.918 1.22563,-5.05787 1.47032,-1.53094 0.52325,-5.84024 1.97548,-4.49858 2.18245,-6.22841 -1.00946,0.99786 -0.29266,-3.01751 2.56786,-6.00965 -0.16305,0.0591 2.83833,-2.98642 -6.41703,-6.98211 -5.69394,10.30126 -9.117696,13.37456 -1.13781,6.97111 -9.639932,14.72915 -0.46742,19.0658 z m 1.26931,-8.06979 c 0.69789,-2.95049 2.227576,-4.58946 0,0 z m 0.935546,-4.14094 c 0.97588,-0.36816 0.9052,1.12674 0,0 z m -39.699202,1.36281 c 3.735484,-8.18847 -8.104842,1.02065 -1.031618,2.62339 l 1.031609,-2.62339 z m 42.465422,-8.30026 c 0.76905,-2.06134 -1.03026,1.8336 0,0 z m -36.980973,-0.89401 c 4.756178,-5.8764 11.569992,-5.88788 2.358891,-12.44388 -4.24191,4.22399 -21.713354,-2.00767 -17.143685,4.09734 3.125753,4.16475 9.546384,12.2615 14.784794,8.34654 z m 37.343243,-0.39687 c 2.03518,-5.80465 -1.13878,-0.27599 0,0 z m -29.410429,-2.87258 c -0.228556,-2.18214 -1.055714,2.75353 0,0 z m 30.602889,-1.0747 c 1.71165,-2.72045 -1.43151,0.14989 0,0 z m -56.583152,-6.04775 c -0.748792,0.51148 -0.314286,1.15086 0,0 z m -3.682648,-1.38206 c -5.079478,-4.2061 5.654003,-4.85328 -3.236189,-5.49729 -4.073558,-0.77387 1.555443,-8.85011 -3.695213,-5.42012 3.016732,-6.77553 14.513249,-10.4761 16.155256,-12.65371 1.254856,0.16914 -25.789559,1.31499 -10.82391,2.60048 7.77086,4.43511 -18.234645,10.56565 -5.878156,14.07401 1.93346,2.42709 5.192032,6.67672 7.478212,6.89663 z m 24.834266,-7.01146 c -0.844996,-1.18648 -0.844996,1.18648 0,0 z m 26.345858,-20.43906 c 2.95108,-10.15528 -15.377327,6.83164 -3.1153,2.44064 1.0419,-0.80911 2.08662,-1.6146 3.1153,-2.44064 z m -16.916951,-5.7124 c 12.112262,-4.51019 4.001669,-3.14867 -3.814581,-2.74928 6.972833,4.52763 -14.964411,0.41673 0.242706,3.79612 l 1.091456,-0.29294 z m 19.117751,-4.93708 c 1.19793,-11.13722 -3.643,-6.84963 -0.0697,0.32636 z m -19.043745,-9.92515 c 4.892879,-10.88781 1.183224,-0.91646 -5.366406,-0.53452 1.537444,-0.40331 4.40427,3.04198 5.366406,0.53452 z m 13.063835,-5.89698 c 0.36529,-2.71827 -2.463975,0.99061 0,0 z m 28.612436,-4.12035 c -0.0784,-7.98466 -6.87007,-4.25128 -6.39846,-10.50989 -1.2892,-3.56564 6.44877,0.80702 1.80946,-5.86169 -8.80266,2.00986 -6.56068,3.56668 -5.97284,6.69765 -3.36391,6.44646 -7.46026,11.27005 -0.33454,5.34089 3.37886,-7.61504 7.90025,2.03646 11.28862,7.4527 z m -23.114946,-4.94908 c -0.9676,-2.16932 -1.48034,2.03886 0,0 z m 23.128016,-7.83374 c -2.40281,-6.00374 -3.04441,0.70089 0,0 z m -15.20893,-3.26998 c -4.11566,-1.14487 4.96383,-2.59544 -2.46574,-2.38417 -1.25683,-3.66204 -6.119096,4.56309 2.53189,2.814 2.32215,-0.0178 2.5947,0.0946 -0.0661,-0.42983 z m 3.47972,-5.27972 c 1.57491,-4.92178 -2.35525,5.03916 0,0 z m -1.69378,-1.12448 c 3.42547,-2.35941 -4.17248,2.723 -0.46124,-2.70665 -0.40393,0.83349 -3.0465,6.29468 0.46124,2.70665 z m -2.64572,-2.38125 c 2.62685,-1.41387 -3.43453,0.95363 0.47921,-4.591857 -4.07169,1.772135 -0.15434,1.439913 -2.44281,6.510087 l 0.26606,-0.33073 z m 81.71348,-3.282376 c 5.80678,-5.666964 3.68198,-1.963183 9.75098,-6.94667 -1.23007,0.972527 6.33836,-5.085311 5.58812,-3.615323 5.14282,-5.015798 3.44348,-1.160817 9.62523,-7.502068 -1.07993,2.673895 6.04013,-4.641699 5.75104,-3.048043 5.5406,-7.799559 -8.97,6.222349 -2.10933,-3.114997 -0.0949,-1.262815 2.9503,-6.591569 5.53098,-6.414696 4.65276,-5.440631 2.93991,-1.584463 1.52439,-4.148003 4.43861,-6.118242 3.5076,-2.201754 1.63456,-4.569682 4.18683,-5.739914 3.93498,-2.662645 1.7756,-4.726093 3.55635,-5.059043 4.53798,-3.37962 1.45358,-3.964583 0.95557,-2.015096 -6.35496,8.617256 -5.18545,2.831986 -3.76129,4.590217 -6.49421,5.676909 -10.17236,7.704445 1.07775,-2.005163 -6.3729,8.680627 -5.17348,2.878888 -3.87024,5.309729 -6.47876,5.35764 -10.32329,7.9899 -0.86429,2.388904 -5.1827,2.656123 -5.91015,4.216948 -5.58097,4.817623 -3.13917,1.123322 -9.61655,7.220185 1.8236,-3.300837 -5.95536,4.690651 -5.71548,3.27664 -2.90245,3.95735 -7.73692,2.887788 -6.04605,6.983925 4.56163,-7.021719 5.08923,-1.636218 2.48858,0.451395 1.55953,0.162778 9.75148,-6.43234 2.3789,1.493745 1.42521,1.917013 10.26063,-8.13113 4.45851,0.220497 -3.45368,6.07166 9.63833,-8.1917 3.85923,0.80531 -2.18922,3.15117 1.01829,1.086672 5.59005,-3.107342 -3.44845,5.93691 -4.11039,6.760172 -1.15752,5.083632 z m 0.96869,-2.667962 c 2.8598,-9.401709 9.88714,-4.246106 0,0 z m -3.37768,-1.259555 c 4.09857,-10.123515 8.82903,-3.242763 0,0 z m -3.40111,-1.150601 c 5.2143,-11.366629 7.3101,-1.02143 0,0 z m -3.53995,-0.854974 c 2.95246,-9.472509 9.93289,-4.17042 0,0 z m 15.61041,-0.339201 c 5.73843,-8.793128 2.65298,-5.478871 -3.36398,-1.338712 5.15444,-5.945451 -1.30247,-5.546038 7.55636,-10.562432 6.80398,-4.403524 2.19325,-0.124718 9.46091,-6.78325 0.71612,3.755938 -9.08749,8.521948 -1.79136,4.870941 -0.87159,5.490999 -6.90926,11.680361 -7.10986,9.637695 -0.60948,1.826996 -2.9299,3.932796 -4.75207,4.175758 z M 173.15509,91.51579 c 2.33403,-8.549115 11.28395,-6.193538 0,0 z m 12.00496,-1.623603 c 5.7881,-11.339793 7.98521,-2.334085 0,0 z m -3.3253,-0.982262 c 2.75738,-9.434222 9.60086,-3.659417 0,0 z m -3.11994,-2.325029 c 7.70328,-11.327502 3.76838,3.030519 0,0 z m 8.23859,-1.4533 c 5.02109,-10.462093 8.17196,-2.474764 0,0 z m 15.25427,0.109183 c 3.1074,-9.427031 9.96099,-3.865434 0,0 z m -18.78542,-0.762112 c 2.67884,-9.290644 9.69988,-4.076214 0,0 z m 8.52856,-2.523979 c 4.14875,-10.241013 9.05403,-3.693174 0,0 z m 15.54852,-0.206989 c 2.43956,-9.293506 9.66855,-4.146784 0,0 z m -19.05,-0.718205 c 2.82876,-9.567664 9.48582,-3.788305 0,0 z m 15.61042,-0.444635 c 3.64971,-9.990042 9.22561,-3.998208 0,0 z m -6.87917,-2.244649 c 2.8487,-9.49524 9.46544,-3.630723 0,0 z m -3.41907,-1.148022 c 2.81159,-9.401883 9.52747,-3.44856 0,0 z m 15.38722,-0.264584 c 4.54264,-10.657776 8.48085,-2.742215 0,0 z M 205.64725,76.012 c 2.70065,-9.417759 9.80721,-3.86326 0,0 z M 202.22,74.810938 c 3.09691,-9.45417 9.32568,-3.352582 0,0 z m -3.45192,-0.898877 c 2.32054,-8.719411 10.53789,-5.889248 0,0 z m 12.03303,-1.614665 c 3.76156,-9.752733 9.61915,-4.232015 0,0 z m -3.37,-0.751729 c 1.9455,-8.677053 10.65696,-6.322992 0,0 z m -3.48677,-1.497229 c 5.64671,-11.112257 7.56,-1.954988 0,0 z m 11.88676,-1.190625 c 5.29353,-11.120048 8.24613,-2.52078 0,0 z m -3.30468,-1.002861 c 2.60637,-9.327811 9.72115,-4.135526 0,0 z m -2.95324,-2.6672 c 8.37355,-11.343909 2.5455,4.020239 0,0 z m 7.98032,-0.837447 c 2.75776,-9.413637 9.66676,-3.826631 0,0 z m -3.32651,-1.313326 c 4.67051,-10.358164 8.38532,-3.024251 0,0 z m 5.55294,-4.894791 c 8.2229,-11.327269 3.08338,3.491439 0,0 z M 114.52196,98.727877 c 4.71907,-12.245035 4.76345,-1.545897 1.79135,-0.80654 4.63811,-0.42695 4.66936,-5.999482 2.1825,-5.94987 -4.1771,-0.213513 3.25452,-5.004862 0.90301,-7.013745 4.19467,-5.498515 3.61885,-1.571655 8.89369,-7.354787 -2.14287,5.236803 -2.8294,6.753763 2.39107,2.65565 -4.75906,7.231248 2.45692,2.860573 0.31029,3.393131 -4.6812,-0.467314 8.09689,-9.453398 0.87869,-5.279807 1.97062,-6.690161 5.46631,-5.2072 2.65951,-7.165493 6.33222,-5.675806 0.77394,-6.450251 4.98388,-9.998261 -0.69737,-2.152471 -8.0439,8.083518 -4.171,-0.873597 8.27541,-4.868276 7.20574,-6.802855 0.35236,-1.01544 2.70266,-6.364942 13.08549,-14.185837 2.01228,-5.460149 0.44505,-6.489498 11.75538,-9.85826 2.11827,-5.65301 3.96538,-8.413957 -6.43137,9.426813 -3.62461,0.0015 -0.1575,3.753882 -7.13789,8.18564 -4.7564,3.149958 -2.9178,7.021767 -4.70363,6.041173 -5.00767,4.530262 -5.07448,7.328673 -2.44359,-1.907697 -7.00095,6.148819 -3.30735,-0.585414 0.42849,-2.133325 -4.28863,2.887549 -0.75443,-0.820132 2.60984,3.392803 -3.40663,6.62452 8.04797,-4.275461 -6.20566,9.238996 0.4713,4.457867 -4.99128,7.764236 -0.78423,5.278839 -6.8442,13.210316 6.08739,-2.38012 -4.10356,5.849711 0.40035,4.528893 -1.80205,1.922901 7.99116,-9.084811 3.09285,0.303711 -5.50949,6.108406 7.85644,-6.444295 2.51248,3.405352 6.43309,-5.738664 2.94089,-1.930288 3.14621,1.273144 z m -2.4707,-3.014856 c 3.5454,-11.863891 8.64018,-2.645379 0,0 z m -2.44775,-2.292499 c 3.24362,-11.391774 9.75013,-4.665112 0,0 z m -2.24201,-2.967864 c 4.81657,-10.667572 7.62867,-2.50416 0,0 z m 6.73992,0.03774 c 2.34706,-10.524898 10.26946,-6.064371 0,0 z m -2.38393,-2.566974 c 1.66785,-8.71856 9.86927,-4.918834 0,0 z m 4.5006,-3.077414 c 2.11508,-8.672925 9.31187,-4.910558 0,0 z m -6.61458,-0.2063 c 2.16419,-9.618185 9.78532,-5.555307 0,0 z m 4.35451,-3.0819 c 3.5923,-11.159651 8.04828,-2.3472 0,0 z m 7.05896,-0.926042 c 6.77961,-11.091042 3.59396,2.736005 0,0 z m 6.3706,0.79375 c 4.0908,-11.993218 9.65183,-4.551493 0,0 z M 111.45559,79.56078 c 2.21738,-10.327377 10.32975,-6.05357 0,0 z m 13.62344,-0.913384 c 3.79833,-10.093144 7.58796,-1.855535 0,0 z m -6.00727,-1.821185 c 8.0022,-12.285807 2.28838,4.722586 0,0 z m -3.2125,-0.04471 c 2.19492,-10.505177 10.60025,-6.675913 0,0 z m 13.58799,-0.698657 c 2.2105,-9.095378 9.90804,-5.398983 0,0 z m -6.47214,-0.711437 c 3.89562,-10.76399 8.76765,-3.464935 0,0 z m -9.60093,-1.35422 c 4.04074,-11.805744 9.5215,-4.89002 0,0 z m 6.87916,-0.529167 c 3.7262,-12.075303 8.64399,-2.681032 0,0 z m 7.12586,-0.750347 c 3.14618,-10.953507 8.54219,-3.273555 0,0 z m -9.50711,-1.895486 c 3.5381,-11.894402 8.66565,-2.59214 0,0 z m 6.81266,-0.05232 c 2.36695,-10.476245 10.76706,-6.670801 0,0 z m 7.72459,-2.858101 c 11.00997,-15.510413 -0.0134,7.911595 0,0 z m -16.9242,0.529167 c 3.37996,-11.992686 8.67358,-3.2253 0,0 z m 6.87997,-0.529167 c 3.51856,-11.988573 8.50318,-2.620298 0,0 z m 6.81756,-0.166523 c 2.04093,-9.996139 10.7441,-6.729425 0,0 z m 8.03789,-0.396887 c 0.41499,-1.903152 0.33009,1.071652 0,0 z M 119.92225,65.65163 c 2.2225,-10.470173 10.37852,-6.179478 0,0 z m 6.87917,-0.512756 c 2.85547,-11.556035 9.29514,-3.85236 0,0 z m -2.38125,-2.705748 c 3.45341,-12.057077 9.2569,-3.687388 0,0 z m 6.87917,-0.303434 c 2.72102,-11.032099 10.12862,-5.457959 0,0 z m -1.84257,-4.476345 c 8.23365,-13.313243 2.33954,5.13312 0,0 z m 3.73875,-0.977277 c 3.29768,-11.285645 10.10973,-5.540739 0,0 z m -11.96005,32.321424 c 1.70965,-5.481032 -2.329,5.234558 0,0 z m 11.38678,-2.053567 c -1.03297,-0.862701 -1.06045,0.469674 0,0 z m -8.13214,-1.348197 c 0.52266,-3.072984 -2.85241,2.174767 0,0 z m 8.12404,-0.26761 c -0.92718,0.359713 -0.21555,1.477944 0,0 z m 0.65019,-1.719792 c -0.31192,-1.52111 -0.86336,3.548661 0,0 z m 1.04343,-1.941189 c 0.65611,-3.373096 -2.10683,3.32219 0,0 z m 1.33822,-4.515609 c 2.25829,-6.467461 -2.65085,5.068762 0,0 z m 1.24335,-1.414556 c 0.9182,-1.127663 -1.72896,1.364388 0,0 z m 1.70388,-1.153346 c -0.81699,-0.01628 -2.39274,1.946958 0,0 z m -1.62471,-1.029466 c -0.31098,-1.427317 -0.86556,3.473081 0,0 z m 0.44908,-2.187222 c -0.87938,-0.684806 0.83664,1.443158 0,0 z m 1.28198,-2.442987 c -0.92718,0.359712 -0.21555,1.477946 0,0 z m 0.3856,-10.186458 c -0.31192,-1.52111 -0.86336,3.548657 0,0 z m 1.85209,-5.027083 c -0.31098,-1.427313 -0.86556,3.47308 0,0 z m -7.64954,-7.061863 c 1.2949,-3.764836 -2.0095,3.902012 0,0 z m 5.08758,-2.492295 c -2.68518,-4.672801 -5.89555,6.563658 0,0 z m 7.21154,0.671998 c -1.38563,0.2351 -1.4477,1.271386 0,0 z M 144.5204,44.05312 c -0.92718,0.359712 -0.21555,1.477946 0,0 z m 0.63822,-1.601242 c -0.26227,-0.973118 -0.54454,1.346973 0,0 z m 7.62232,-49.1987574 c 0.14354,-1.2414138 -1.21968,3.0656885 0,0 z M 43.730366,294.87812 c 0.215551,-1.47793 0.92718,-0.35972 0,0 z m 2.131211,-5.68854 c 0.0987,-1.75433 0.96964,-0.40908 0,0 z m 6.612824,-17.88142 c 0.381878,-0.70464 0.118,1.1407 0,0 z m 2.645833,-7.14375 c 0.381878,-0.70464 0.118,1.1407 0,0 z M 135.80536,37.438542 c 0.21555,-1.477944 0.92718,-0.359713 0,0 z m 0.52916,-1.322917 c 0.21555,-1.477945 0.92718,-0.359711 0,0 z m 0.52917,-1.322916 c 0.21555,-1.477946 0.92718,-0.359712 0,0 z m 2.11667,-5.820834 c 0.21555,-1.477945 0.92718,-0.359711 0,0 z m 0.52916,-1.322916 c 0.21555,-1.477946 0.92718,-0.359712 0,0 z m 2.11667,-5.820834 c 0.21555,-1.477945 0.92718,-0.359711 0,0 z m 4.7625,-12.9645829 c 0.21555,-1.4779452 0.92718,-0.3597118 0,0 z m 3.18954,-8.46666657 c 0.55032,-2.29494073 0.7466,-0.1149284 0,0 z"
       id="path1" /></g><metadata
     id="metadata1"><rdf:RDF><cc:Work
         rdf:about=""><dc:title>ACE SVG Icon</dc:title><dc:source>https://science.nasa.gov/wp-content/uploads/2023/05/ACE.png</dc:source><dc:description>Icon Representation of ACE satellite.</dc:description></cc:Work></rdf:RDF></metadata></svg>
