<?xml version="1.0" encoding="UTF-8" standalone="no"?>
<svg xmlns="http://www.w3.org/2000/svg" version="1.2" baseProfile="tiny" viewBox="0.00 0.00 512.00 325.00" width="512.00" height="325.00">
<path fill="#545455" d="
  M 380.44 73.56
  Q 384.72 75.20 389.44 79.10
  L 415.16 96.58
  A 0.90 0.89 -59.5 0 0 416.46 96.24
  Q 416.88 95.41 417.86 94.48
  Q 418.15 95.69 417.13 97.17
  A 0.67 0.66 33.6 0 0 417.32 98.10
  L 421.18 100.64
  A 2.43 2.43 0.0 0 1 422.06 101.63
  Q 423.18 103.97 425.76 103.67
  Q 429.26 105.83 430.02 109.96
  Q 430.86 114.50 432.00 119.01
  A 4.10 4.00 -72.2 0 0 432.78 120.57
  Q 434.57 122.75 434.79 125.56
  L 441.18 144.44
  A 1.43 1.40 3.9 0 0 441.91 145.26
  Q 443.29 145.93 445.44 146.03
  A 2.11 2.11 0.0 0 1 446.39 146.32
  Q 447.84 147.22 448.54 148.91
  A 1.20 1.19 -2.0 0 0 449.30 149.61
  L 455.42 151.44
  L 449.88 154.57
  Q 445.40 152.86 440.96 152.16
  Q 435.15 151.24 435.07 151.22
  Q 424.23 149.09 413.52 147.02
  L 410.01 145.05
  Q 409.46 143.19 410.25 141.50
  Q 412.26 141.52 412.69 137.98
  A 4.14 3.78 46.5 0 0 412.67 136.93
  L 406.60 99.26
  A 4.38 4.35 -78.2 0 0 404.69 96.31
  L 382.46 81.71
  A 0.50 0.50 0.0 0 0 381.69 82.18
  Q 383.16 94.12 385.00 106.50
  Q 385.42 109.32 386.42 112.57
  Q 390.09 124.59 392.12 131.55
  A 0.93 0.93 0.0 0 1 390.95 132.70
  Q 387.61 131.65 385.08 132.03
  A 6.56 6.46 46.7 0 1 382.63 131.94
  Q 374.61 130.10 356.31 126.43
  A 2.27 2.23 11.8 0 0 353.66 128.13
  Q 353.49 128.90 354.31 129.97
  Q 354.89 130.72 355.48 131.77
  L 343.84 138.49
  A 0.92 0.92 0.0 0 1 342.59 138.17
  L 342.57 138.13
  A 0.99 0.98 -33.1 0 1 342.85 136.81
  L 346.16 134.48
  A 0.58 0.57 -47.5 0 0 346.12 133.51
  Q 342.54 131.46 339.40 131.40
  Q 336.78 131.35 334.74 130.59
  Q 331.74 129.49 327.97 129.62
  A 2.49 2.44 54.6 0 1 327.02 129.45
  Q 322.60 127.65 317.50 127.28
  A 2.89 2.84 -31.4 0 1 316.56 127.06
  Q 315.26 126.50 313.78 126.41
  C 309.93 126.19 308.78 123.76 305.03 126.27
  Q 298.41 130.70 290.60 135.35
  Q 290.11 133.27 288.87 131.63
  Q 287.33 129.59 285.59 128.10
  L 282.62 124.04
  A 1.44 0.79 42.6 0 1 282.53 123.88
  C 281.63 121.86 281.74 117.65 277.90 118.69
  Q 268.16 121.32 261.29 129.01
  A 2.61 2.58 14.4 0 1 259.90 129.82
  Q 255.22 130.81 251.50 134.47
  A 1.26 1.25 -22.7 0 0 251.13 135.36
  Q 251.11 137.05 251.72 139.47
  C 252.51 142.61 252.39 144.97 256.02 144.35
  Q 259.17 143.85 262.06 145.05
  A 0.84 0.82 10.9 0 1 262.58 145.80
  Q 262.60 146.49 262.47 146.93
  A 2.59 2.51 -71.5 0 0 263.97 150.07
  Q 266.53 151.03 268.47 152.29
  L 269.42 156.90
  A 1.51 1.50 11.4 0 0 270.07 157.87
  L 271.27 158.65
  A 1.20 1.19 -44.3 0 1 271.24 160.66
  Q 269.48 161.75 268.15 161.20
  A 0.91 0.89 -83.6 0 1 267.61 160.51
  L 266.70 154.88
  A 2.36 2.35 88.1 0 0 264.60 152.91
  L 261.68 152.63
  A 2.10 2.09 -1.9 0 1 259.80 150.88
  L 259.07 146.33
  A 0.64 0.64 0.0 0 0 257.91 146.08
  L 257.52 146.68
  A 1.70 1.68 -36.1 0 0 257.30 148.03
  C 258.22 151.52 259.57 154.73 260.35 158.55
  Q 263.51 173.95 264.82 179.53
  Q 265.00 180.27 264.18 181.10
  Q 263.58 180.80 262.21 181.30
  Q 259.58 178.66 259.11 176.29
  Q 256.58 163.71 254.71 155.35
  Q 253.49 149.91 249.90 148.87
  A 0.44 0.44 0.0 0 0 249.34 149.25
  L 249.26 150.18
  A 0.71 0.70 5.3 0 1 248.49 150.81
  Q 243.27 150.31 240.01 149.74
  Q 237.05 149.22 234.74 150.73
  Q 230.25 153.67 226.58 156.30
  A 3.01 3.00 66.8 0 0 225.38 159.32
  L 226.33 164.16
  L 221.45 164.05
  A 1.03 1.02 85.8 0 0 220.42 165.25
  L 224.32 188.96
  Q 223.75 191.86 225.41 191.67
  L 229.94 192.14
  A 0.39 0.39 0.0 0 1 230.25 192.70
  C 229.22 194.83 226.18 195.79 224.60 197.14
  C 221.79 199.55 218.56 200.05 216.07 197.03
  A 1.05 1.04 -39.7 0 1 216.21 195.56
  L 219.84 192.53
  A 1.56 1.54 65.9 0 0 220.38 191.09
  L 216.24 165.41
  A 1.31 1.31 0.0 0 0 214.95 164.31
  L 209.84 164.31
  A 1.13 1.12 1.3 0 0 208.71 165.38
  L 208.25 175.28
  Q 206.93 168.67 207.76 162.58
  Q 208.17 161.42 207.48 160.10
  Q 210.58 157.31 214.21 155.02
  Q 219.77 151.51 219.87 151.44
  Q 233.64 142.12 247.51 132.97
  Q 248.76 132.14 250.06 131.36
  Q 261.86 124.27 271.74 115.38
  L 275.70 112.54
  A 1.19 1.18 49.9 0 0 275.85 110.73
  Q 274.91 109.79 274.11 109.68
  Q 272.94 67.81 271.67 25.75
  Q 271.61 23.81 270.90 22.40
  L 272.95 18.95
  A 1.10 1.03 60.6 0 0 273.09 18.38
  L 272.89 11.23
  A 1.10 1.10 0.0 0 0 272.18 10.23
  L 256.56 4.25
  A 2.33 2.32 -54.6 0 0 254.23 4.65
  C 251.14 7.31 248.43 8.52 245.80 11.44
  C 243.63 13.87 239.91 15.50 238.13 19.99
  Q 237.59 17.97 239.43 16.18
  Q 242.29 13.41 245.24 10.77
  Q 245.81 10.78 245.75 10.23
  L 254.76 2.28
  A 2.23 2.23 0.0 0 1 257.27 1.97
  L 261.56 4.23
  A 2.02 1.79 62.4 0 0 261.93 4.37
  L 271.38 6.75
  A 1.24 1.24 0.0 0 0 272.90 5.31
  Q 272.62 3.87 273.25 3.09
  Q 273.96 2.20 275.06 2.92
  Q 328.28 38.26 380.44 73.56
  Z
  M 350.66 107.18
  A 0.30 0.30 0.0 0 1 351.19 106.96
  Q 352.57 108.74 354.12 109.64
  Q 368.87 118.22 376.69 123.07
  Q 378.40 124.13 379.90 124.75
  A 0.35 0.34 -82.7 0 0 380.37 124.38
  Q 377.90 106.40 376.37 94.39
  Q 376.10 92.26 374.20 91.03
  Q 361.11 82.54 347.81 74.37
  A 1.57 1.57 0.0 0 1 347.08 72.85
  Q 347.52 69.39 346.36 65.67
  A 2.06 2.05 9.7 0 0 345.62 64.63
  Q 341.89 61.90 340.19 61.42
  Q 332.80 59.36 326.93 56.28
  A 3.79 3.77 63.6 0 0 325.90 55.93
  Q 317.70 54.42 308.75 50.98
  A 0.90 0.90 0.0 0 0 307.53 51.88
  L 311.59 114.01
  A 3.47 3.46 18.3 0 0 312.83 116.46
  Q 316.44 119.49 320.23 120.27
  Q 331.79 122.64 343.15 125.24
  Q 347.47 126.23 351.85 126.75
  A 0.87 0.87 0.0 0 0 352.82 125.78
  L 350.66 107.18
  Z
  M 283.2171 106.0245
  A 1.89 1.31 -3.2 0 0 281.2569 104.8220
  A 1.89 1.31 -3.2 0 0 279.4429 106.2355
  A 1.89 1.31 -3.2 0 0 281.4031 107.4380
  A 1.89 1.31 -3.2 0 0 283.2171 106.0245
  Z
  M 294.13 109.41
  L 296.47 111.75
  A 0.59 0.59 0.0 0 0 297.44 111.14
  Q 296.74 109.19 294.33 108.98
  A 0.25 0.25 0.0 0 0 294.13 109.41
  Z"
/>
<path fill="#979ad2" d="
  M 270.90 22.40
  L 265.28 17.89
  A 0.86 0.86 0.0 0 1 265.09 17.70
  L 263.97 16.25
  A 2.72 2.70 -11.5 0 0 262.45 15.25
  Q 258.72 14.31 255.36 11.76
  Q 253.64 10.77 252.22 10.99
  A 1.46 1.43 -71.3 0 0 251.41 11.40
  Q 248.61 14.17 245.57 16.64
  Q 245.49 16.70 242.85 19.25
  Q 241.22 20.83 239.00 21.46
  Q 238.85 21.38 238.71 21.31
  L 238.13 19.99
  C 239.91 15.50 243.63 13.87 245.80 11.44
  C 248.43 8.52 251.14 7.31 254.23 4.65
  A 2.33 2.32 -54.6 0 1 256.56 4.25
  L 272.18 10.23
  A 1.10 1.10 0.0 0 1 272.89 11.23
  L 273.09 18.38
  A 1.10 1.03 60.6 0 1 272.95 18.95
  L 270.90 22.40
  Z"
/>
<path fill="#36353b" d="
  M 245.75 10.23
  Q 245.81 10.78 245.24 10.77
  L 245.75 10.23
  Z"
/>
<path fill="#e4b447" d="
  M 255.36 11.76
  L 255.84 23.44
  Q 255.21 24.39 255.21 25.50
  A 1.27 1.27 0.0 0 0 257.24 26.51
  L 260.87 23.76
  Q 260.60 26.45 259.06 28.53
  A 0.79 0.79 0.0 0 1 257.82 28.56
  Q 257.48 28.16 257.31 27.71
  A 0.58 0.58 0.0 0 0 256.18 27.92
  L 256.18 82.65
  A 0.38 0.37 0.0 0 0 256.56 83.02
  L 256.90 83.02
  Q 255.65 84.63 255.83 86.09
  A 0.76 0.76 0.0 0 0 257.03 86.62
  L 262.79 82.44
  Q 262.20 85.12 260.34 87.80
  A 1.39 1.36 9.4 0 1 259.54 88.36
  Q 258.60 88.60 257.93 87.73
  A 1.03 0.97 27.3 0 0 256.11 88.25
  Q 256.17 96.95 255.91 101.53
  A 2.60 2.49 -32.4 0 1 255.70 102.38
  L 254.01 106.23
  A 3.44 3.38 83.6 0 1 252.99 107.53
  Q 251.99 108.30 248.83 111.04
  C 246.66 112.93 244.61 113.69 241.87 114.62
  A 0.46 0.46 0.0 0 1 241.39 113.86
  Q 242.58 112.61 242.24 111.66
  A 1.48 1.43 -76.0 0 0 241.98 111.21
  Q 240.82 109.88 240.44 108.53
  A 1.02 1.00 -84.7 0 0 239.93 107.90
  L 231.62 103.69
  A 0.52 0.51 -6.7 0 0 230.99 104.48
  Q 232.47 106.20 234.87 107.20
  A 3.35 3.30 3.3 0 1 236.77 109.30
  L 236.90 109.68
  A 0.59 0.59 0.0 0 1 236.22 110.44
  L 227.54 108.66
  A 0.38 0.38 0.0 0 0 227.09 108.97
  Q 227.03 109.30 227.07 109.68
  Q 225.36 109.86 223.97 109.52
  L 224.49 107.84
  A 1.46 1.42 84.3 0 1 225.15 107.01
  Q 227.66 105.56 228.65 104.41
  Q 230.84 101.85 234.21 95.30
  Q 237.22 89.45 240.47 77.03
  C 241.89 71.61 242.05 65.94 241.75 61.00
  Q 241.64 59.21 239.64 54.06
  A 3.24 3.11 -76.7 0 0 239.07 53.09
  Q 232.52 45.38 223.61 51.67
  L 213.18 59.47
  A 1.07 1.06 -55.3 0 1 212.26 59.64
  L 208.51 58.62
  Q 205.20 57.39 202.70 54.87
  L 228.66 31.43
  L 230.58 29.92
  A 1.44 1.44 0.0 0 0 231.01 28.23
  Q 230.22 26.37 230.34 26.29
  A 2.44 2.00 -33.3 0 1 233.46 26.62
  Q 235.06 28.99 237.18 30.45
  Q 238.23 32.45 238.16 34.49
  A 0.95 0.92 -24.8 0 1 237.94 35.06
  Q 237.32 35.76 237.79 37.20
  A 2.25 2.22 86.5 0 0 239.45 38.68
  L 241.00 38.99
  A 0.97 0.97 0.0 0 0 242.12 37.73
  Q 241.46 35.81 242.00 33.79
  A 1.44 1.44 0.0 0 0 242.00 33.01
  Q 241.02 29.57 238.59 29.76
  Q 236.74 29.89 235.77 27.44
  Q 235.16 25.93 235.57 25.58
  Q 237.80 23.64 239.00 21.46
  Q 241.22 20.83 242.85 19.25
  Q 245.49 16.70 245.57 16.64
  Q 248.61 14.17 251.41 11.40
  A 1.46 1.43 -71.3 0 1 252.22 10.99
  Q 253.64 10.77 255.36 11.76
  Z"
/>
<path fill="#615939" d="
  M 270.90 22.40
  Q 271.61 23.81 271.67 25.75
  Q 272.94 67.81 274.11 109.68
  Q 271.84 111.31 271.74 115.38
  Q 261.86 124.27 250.06 131.36
  Q 248.76 132.14 247.51 132.97
  Q 233.64 142.12 219.87 151.44
  Q 219.77 151.51 214.21 155.02
  Q 210.58 157.31 207.48 160.10
  Q 205.48 159.61 204.93 162.04
  L 198.73 160.04
  A 1.88 1.82 -12.8 0 1 197.94 159.56
  Q 196.81 158.42 195.79 158.60
  L 189.22 155.98
  Q 188.77 155.53 187.94 155.41
  A 1.18 1.15 72.2 0 1 187.26 155.05
  Q 186.94 154.70 186.95 154.38
  Q 196.16 149.51 203.32 142.30
  Q 204.08 142.30 204.58 142.01
  Q 204.99 141.77 205.22 140.96
  Q 205.74 139.21 207.02 137.89
  Q 207.30 139.19 208.02 139.37
  A 0.58 0.56 32.0 0 0 208.52 139.26
  Q 211.35 136.89 214.50 135.33
  A 8.00 7.99 10.8 0 0 216.31 134.10
  Q 220.24 130.54 226.11 127.43
  A 4.13 3.85 9.1 0 0 226.90 126.90
  L 233.06 121.77
  A 2.02 1.95 -71.2 0 1 233.82 121.38
  Q 236.03 120.80 237.93 118.43
  A 0.62 0.62 0.0 0 0 237.49 117.42
  Q 237.23 117.40 236.59 117.06
  A 0.72 0.72 0.0 0 1 236.21 116.50
  L 235.94 114.21
  A 1.17 1.15 -73.8 0 0 235.52 113.43
  Q 231.53 110.11 227.07 109.68
  Q 227.03 109.30 227.09 108.97
  A 0.38 0.38 0.0 0 1 227.54 108.66
  L 236.22 110.44
  A 0.59 0.59 0.0 0 0 236.90 109.68
  L 236.77 109.30
  A 3.35 3.30 3.3 0 0 234.87 107.20
  Q 232.47 106.20 230.99 104.48
  A 0.52 0.51 -6.7 0 1 231.62 103.69
  L 239.93 107.90
  A 1.02 1.00 -84.7 0 1 240.44 108.53
  Q 240.82 109.88 241.98 111.21
  A 1.48 1.43 -76.0 0 1 242.24 111.66
  Q 242.58 112.61 241.39 113.86
  A 0.46 0.46 0.0 0 0 241.87 114.62
  C 244.61 113.69 246.66 112.93 248.83 111.04
  Q 251.99 108.30 252.99 107.53
  A 3.44 3.38 83.6 0 0 254.01 106.23
  L 255.70 102.38
  A 2.60 2.49 -32.4 0 0 255.91 101.53
  Q 256.17 96.95 256.11 88.25
  A 1.03 0.97 27.3 0 1 257.93 87.73
  Q 258.60 88.60 259.54 88.36
  A 1.39 1.36 9.4 0 0 260.34 87.80
  Q 262.20 85.12 262.79 82.44
  L 263.21 79.70
  A 0.58 0.58 0.0 0 0 262.29 79.14
  L 256.90 83.02
  L 256.56 83.02
  A 0.38 0.37 0.0 0 1 256.18 82.65
  L 256.18 27.92
  A 0.58 0.58 0.0 0 1 257.31 27.71
  Q 257.48 28.16 257.82 28.56
  A 0.79 0.79 0.0 0 0 259.06 28.53
  Q 260.60 26.45 260.87 23.76
  Q 262.49 21.84 262.62 20.03
  A 1.00 1.00 0.0 0 0 260.99 19.19
  L 255.84 23.44
  L 255.36 11.76
  Q 258.72 14.31 262.45 15.25
  A 2.72 2.70 -11.5 0 1 263.97 16.25
  L 265.09 17.70
  A 0.86 0.86 0.0 0 0 265.28 17.89
  L 270.90 22.40
  Z"
/>
<path fill="#e9e5e9" d="
  M 260.87 23.76
  L 257.24 26.51
  A 1.27 1.27 0.0 0 1 255.21 25.50
  Q 255.21 24.39 255.84 23.44
  L 260.99 19.19
  A 1.00 1.00 0.0 0 1 262.62 20.03
  Q 262.49 21.84 260.87 23.76
  Z"
/>
<path fill="#e4b447" d="
  M 229.30 22.47
  Q 229.15 24.64 226.82 24.57
  Q 226.19 22.93 226.81 21.50
  A 0.69 0.69 0.0 0 1 227.55 21.09
  Q 228.57 21.24 229.30 22.47
  Z"
/>
<path fill="#615939" d="
  M 239.00 21.46
  Q 237.80 23.64 235.57 25.58
  Q 235.16 25.93 235.77 27.44
  Q 236.74 29.89 238.59 29.76
  L 237.18 30.45
  Q 235.06 28.99 233.46 26.62
  A 2.44 2.00 -33.3 0 0 230.34 26.29
  Q 230.22 26.37 231.01 28.23
  A 1.44 1.44 0.0 0 1 230.58 29.92
  L 228.66 31.43
  Q 228.92 30.64 227.67 29.46
  Q 228.81 29.08 228.84 28.02
  Q 228.94 25.21 226.91 25.62
  Q 226.67 25.27 226.82 24.57
  Q 229.15 24.64 229.30 22.47
  Q 230.98 24.30 233.27 25.14
  A 1.28 1.28 0.0 0 0 234.22 25.12
  Q 237.10 23.89 238.71 21.31
  Q 238.85 21.38 239.00 21.46
  Z"
/>
<path fill="#e4b447" d="
  M 227.67 29.46
  Q 226.06 28.12 226.91 25.62
  Q 228.94 25.21 228.84 28.02
  Q 228.81 29.08 227.67 29.46
  Z"
/>
<path fill="#36353b" d="
  M 237.18 30.45
  L 238.59 29.76
  Q 241.02 29.57 242.00 33.01
  A 1.44 1.44 0.0 0 1 242.00 33.79
  Q 241.46 35.81 242.12 37.73
  A 0.97 0.97 0.0 0 1 241.00 38.99
  L 239.45 38.68
  A 2.25 2.22 86.5 0 1 237.79 37.20
  Q 237.32 35.76 237.94 35.06
  A 0.95 0.92 -24.8 0 0 238.16 34.49
  Q 238.23 32.45 237.18 30.45
  Z"
/>
<path fill="#36353b" d="
  M 223.97 109.52
  C 219.99 114.53 212.95 119.93 206.51 118.22
  Q 201.46 116.88 199.86 110.47
  Q 197.34 100.41 199.09 91.71
  C 215.77 85.33 225.00 69.40 223.61 51.67
  Q 232.52 45.38 239.07 53.09
  A 3.24 3.11 -76.7 0 1 239.64 54.06
  Q 241.64 59.21 241.75 61.00
  C 242.05 65.94 241.89 71.61 240.47 77.03
  Q 237.22 89.45 234.21 95.30
  Q 230.84 101.85 228.65 104.41
  Q 227.66 105.56 225.15 107.01
  A 1.46 1.42 84.3 0 0 224.49 107.84
  L 223.97 109.52
  Z
  M 226.0634 100.9814
  A 1.63 1.29 -80.7 0 0 224.5270 102.3815
  A 1.63 1.29 -80.7 0 0 225.5366 104.1986
  A 1.63 1.29 -80.7 0 0 227.0730 102.7985
  A 1.63 1.29 -80.7 0 0 226.0634 100.9814
  Z"
/>
<path fill="#615939" d="
  M 202.70 54.87
  Q 205.20 57.39 208.51 58.62
  Q 209.48 59.84 209.74 60.65
  A 0.90 0.89 -37.8 0 1 209.64 61.39
  L 208.72 62.78
  A 0.95 0.92 56.7 0 0 208.59 63.46
  Q 209.52 68.27 206.28 66.92
  Q 205.95 64.69 205.18 63.32
  A 1.65 1.65 0.0 0 0 204.45 62.65
  Q 201.87 61.49 200.13 59.68
  A 0.29 0.29 0.0 0 1 200.10 59.32
  L 200.26 59.08
  A 0.47 0.47 0.0 0 1 200.98 58.99
  Q 202.08 60.04 203.11 60.70
  A 1.51 1.38 20.2 0 0 205.41 59.76
  Q 205.49 58.78 204.20 57.52
  Q 202.62 55.97 200.31 53.99
  A 0.69 0.69 0.0 0 0 199.18 54.62
  L 199.65 57.54
  A 0.61 0.61 0.0 0 1 199.15 58.23
  Q 197.97 58.43 197.45 59.06
  C 196.12 57.94 194.87 56.64 195.45 54.77
  Q 196.01 53.00 195.07 51.06
  A 0.94 0.91 -18.7 0 1 195.73 49.77
  Q 196.94 49.50 197.88 50.62
  Q 200.43 53.65 202.70 54.87
  Z"
/>
<path fill="#36353b" d="
  M 350.66 107.18
  L 352.82 125.78
  A 0.87 0.87 0.0 0 1 351.85 126.75
  Q 347.47 126.23 343.15 125.24
  Q 331.79 122.64 320.23 120.27
  Q 316.44 119.49 312.83 116.46
  A 3.47 3.46 18.3 0 1 311.59 114.01
  L 307.53 51.88
  A 0.90 0.90 0.0 0 1 308.75 50.98
  Q 317.70 54.42 325.90 55.93
  A 3.79 3.77 63.6 0 1 326.93 56.28
  Q 332.80 59.36 340.19 61.42
  Q 341.89 61.90 345.62 64.63
  A 2.06 2.05 9.7 0 1 346.36 65.67
  Q 347.52 69.39 347.08 72.85
  A 1.57 1.57 0.0 0 0 347.81 74.37
  Q 361.11 82.54 374.20 91.03
  Q 376.10 92.26 376.37 94.39
  Q 377.90 106.40 380.37 124.38
  A 0.35 0.34 -82.7 0 1 379.90 124.75
  Q 378.40 124.13 376.69 123.07
  Q 368.87 118.22 354.12 109.64
  Q 352.57 108.74 351.19 106.96
  A 0.30 0.30 0.0 0 0 350.66 107.18
  Z"
/>
<path fill="#545455" d="
  M 223.61 51.67
  C 225.00 69.40 215.77 85.33 199.09 91.71
  Q 199.03 89.81 199.71 87.61
  C 204.11 87.06 207.86 85.61 209.78 81.90
  Q 210.79 79.94 211.10 79.60
  A 1.09 1.06 -30.3 0 0 211.36 78.66
  Q 210.91 76.32 209.07 75.62
  A 0.64 0.64 0.0 0 0 208.22 76.11
  Q 207.94 77.86 208.38 79.48
  A 0.82 0.82 0.0 0 0 209.17 80.09
  L 209.63 80.09
  A 0.39 0.39 0.0 0 1 209.94 80.72
  Q 206.09 85.66 199.74 86.98
  Q 201.23 80.35 205.41 71.89
  Q 206.51 69.66 206.28 66.92
  Q 209.52 68.27 208.59 63.46
  A 0.95 0.92 56.7 0 1 208.72 62.78
  L 209.64 61.39
  A 0.90 0.89 -37.8 0 0 209.74 60.65
  Q 209.48 59.84 208.51 58.62
  L 212.26 59.64
  A 1.07 1.06 -55.3 0 0 213.18 59.47
  L 223.61 51.67
  Z"
/>
<path fill="#e4b447" d="
  M 206.28 66.92
  Q 206.51 69.66 205.41 71.89
  Q 201.23 80.35 199.74 86.98
  Q 199.93 87.10 199.71 87.61
  Q 199.03 89.81 199.09 91.71
  Q 197.34 100.41 199.86 110.47
  Q 201.46 116.88 206.51 118.22
  C 212.95 119.93 219.99 114.53 223.97 109.52
  Q 225.36 109.86 227.07 109.68
  Q 231.53 110.11 235.52 113.43
  A 1.17 1.15 -73.8 0 1 235.94 114.21
  L 236.21 116.50
  A 0.72 0.72 0.0 0 0 236.59 117.06
  Q 237.23 117.40 237.49 117.42
  A 0.62 0.62 0.0 0 1 237.93 118.43
  Q 236.03 120.80 233.82 121.38
  A 2.02 1.95 -71.2 0 0 233.06 121.77
  L 226.90 126.90
  A 4.13 3.85 9.1 0 1 226.11 127.43
  Q 220.24 130.54 216.31 134.10
  A 8.00 7.99 10.8 0 1 214.50 135.33
  Q 211.35 136.89 208.52 139.26
  A 0.58 0.56 32.0 0 1 208.02 139.37
  Q 207.30 139.19 207.02 137.89
  Q 206.36 134.71 203.63 132.09
  Q 203.38 129.78 200.50 130.41
  A 1.63 1.57 -39.6 0 1 199.59 130.34
  L 193.62 128.06
  A 0.53 0.53 0.0 0 0 192.94 128.36
  L 192.40 129.76
  A 0.49 0.49 0.0 0 0 193.12 130.35
  L 193.59 130.05
  A 0.69 0.67 -53.5 0 1 194.12 129.96
  Q 198.39 131.02 200.65 133.99
  A 0.44 0.44 0.0 0 1 200.35 134.69
  Q 196.00 135.22 193.07 133.00
  A 0.46 0.46 0.0 0 0 192.36 133.22
  Q 192.19 133.74 192.58 134.46
  A 0.77 0.75 -5.3 0 0 193.05 134.84
  Q 198.21 136.34 201.67 140.07
  L 203.32 142.30
  Q 196.16 149.51 186.95 154.38
  Q 185.27 154.60 185.20 152.47
  Q 185.16 151.24 185.65 143.69
  A 2.29 2.23 -56.8 0 0 185.44 142.61
  Q 185.14 141.96 185.10 141.27
  A 1.62 1.56 -32.1 0 1 185.33 140.35
  C 186.51 138.39 185.88 136.96 186.31 135.14
  Q 186.70 133.55 186.79 131.83
  Q 187.15 125.52 187.27 119.21
  L 187.39 111.39
  A 3.55 3.44 57.6 0 1 187.66 110.09
  C 188.39 108.26 188.82 107.71 188.45 105.66
  Q 188.26 104.56 188.90 101.26
  Q 189.62 97.52 188.19 93.17
  Q 189.94 91.63 189.03 88.49
  Q 189.28 87.57 188.90 86.91
  Q 188.69 86.52 188.27 86.43
  Q 187.89 86.35 187.43 86.41
  Q 188.21 85.77 188.60 85.00
  Q 189.61 83.01 189.63 81.70
  Q 189.63 81.16 189.42 80.83
  L 190.41 68.32
  A 4.51 4.46 -22.1 0 1 191.54 65.69
  L 197.45 59.06
  Q 197.97 58.43 199.15 58.23
  A 0.61 0.61 0.0 0 0 199.65 57.54
  L 199.18 54.62
  A 0.69 0.69 0.0 0 1 200.31 53.99
  Q 202.62 55.97 204.20 57.52
  Q 205.49 58.78 205.41 59.76
  A 1.51 1.38 20.2 0 1 203.11 60.70
  Q 202.08 60.04 200.98 58.99
  A 0.47 0.47 0.0 0 0 200.26 59.08
  L 200.10 59.32
  A 0.29 0.29 0.0 0 0 200.13 59.68
  Q 201.87 61.49 204.45 62.65
  A 1.65 1.65 0.0 0 1 205.18 63.32
  Q 205.95 64.69 206.28 66.92
  Z"
/>
<path fill="#36353b" d="
  M 389.44 79.10
  Q 384.72 75.20 380.44 73.56
  Q 380.80 72.20 380.50 70.49
  L 381.04 71.22
  A 0.34 0.34 0.0 0 0 381.64 71.13
  Q 382.42 68.79 380.81 69.19
  Q 383.03 67.61 385.62 67.87
  A 2.03 1.99 62.4 0 1 386.48 68.15
  L 392.21 71.61
  A 1.41 1.41 0.0 0 1 391.70 74.21
  L 389.97 74.49
  A 0.85 0.84 -0.5 0 0 389.27 75.20
  Q 389.01 76.88 389.44 79.10
  Z"
/>
<path fill="#545455" d="
  M 380.81 69.19
  Q 382.42 68.79 381.64 71.13
  A 0.34 0.34 0.0 0 1 381.04 71.22
  L 380.50 70.49
  Q 380.09 69.58 380.81 69.19
  Z"
/>
<path fill="#36353b" d="
  M 199.71 87.61
  Q 199.93 87.10 199.74 86.98
  Q 206.09 85.66 209.94 80.72
  A 0.39 0.39 0.0 0 0 209.63 80.09
  L 209.17 80.09
  A 0.82 0.82 0.0 0 1 208.38 79.48
  Q 207.94 77.86 208.22 76.11
  A 0.64 0.64 0.0 0 1 209.07 75.62
  Q 210.91 76.32 211.36 78.66
  A 1.09 1.06 -30.3 0 1 211.10 79.60
  Q 210.79 79.94 209.78 81.90
  C 207.86 85.61 204.11 87.06 199.71 87.61
  Z"
/>
<path fill="#e9e5e9" d="
  M 262.79 82.44
  L 257.03 86.62
  A 0.76 0.76 0.0 0 1 255.83 86.09
  Q 255.65 84.63 256.90 83.02
  L 262.29 79.14
  A 0.58 0.58 0.0 0 1 263.21 79.70
  L 262.79 82.44
  Z"
/>
<path fill="#e9e5e9" d="
  M 189.42 80.83
  Q 189.63 81.16 189.63 81.70
  Q 189.61 83.01 188.60 85.00
  Q 188.21 85.77 187.43 86.41
  L 187.02 86.73
  Q 185.62 86.71 185.25 86.22
  A 1.74 1.73 57.6 0 1 185.82 83.64
  Q 187.87 82.56 189.42 80.83
  Z"
/>
<path fill="#36353b" d="
  M 410.25 141.50
  Q 403.45 138.48 395.91 138.05
  Q 391.08 136.94 387.13 137.68
  C 387.69 137.06 388.37 136.63 389.19 136.63
  A 0.01 0.01 0.0 0 0 389.19 136.61
  Q 376.36 134.24 363.60 131.73
  Q 359.86 131.00 355.48 131.77
  Q 354.89 130.72 354.31 129.97
  Q 353.49 128.90 353.66 128.13
  A 2.27 2.23 11.8 0 1 356.31 126.43
  Q 374.61 130.10 382.63 131.94
  A 6.56 6.46 46.7 0 0 385.08 132.03
  Q 387.61 131.65 390.95 132.70
  A 0.93 0.93 0.0 0 0 392.12 131.55
  Q 390.09 124.59 386.42 112.57
  Q 385.42 109.32 385.00 106.50
  Q 383.16 94.12 381.69 82.18
  A 0.50 0.50 0.0 0 1 382.46 81.71
  L 404.69 96.31
  A 4.38 4.35 -78.2 0 1 406.60 99.26
  L 412.67 136.93
  A 4.14 3.78 46.5 0 1 412.69 137.98
  Q 412.26 141.52 410.25 141.50
  Z"
/>
<path fill="#615939" d="
  M 187.43 86.41
  Q 187.89 86.35 188.27 86.43
  Q 188.69 86.52 188.90 86.91
  Q 189.28 87.57 189.03 88.49
  Q 188.67 88.19 188.52 87.74
  Q 188.64 87.20 188.31 86.95
  Q 187.73 86.50 187.02 86.73
  L 187.43 86.41
  Z"
/>
<path fill="#36353b" d="
  M 188.52 87.74
  Q 187.63 87.37 187.02 86.73
  Q 187.73 86.50 188.31 86.95
  Q 188.64 87.20 188.52 87.74
  Z"
/>
<path fill="#e9e5e9" d="
  M 188.19 93.17
  Q 189.62 97.52 188.90 101.26
  Q 188.26 104.56 188.45 105.66
  C 188.82 107.71 188.39 108.26 187.66 110.09
  A 3.55 3.44 57.6 0 0 187.39 111.39
  L 187.27 119.21
  L 187.37 111.98
  A 0.16 0.15 90.0 0 0 187.22 111.82
  L 186.93 111.82
  A 0.01 0.01 0.0 0 0 186.92 111.83
  L 186.87 114.59
  A 1.22 1.20 74.2 0 1 186.32 115.59
  Q 183.58 117.35 181.14 120.05
  Q 180.55 120.71 178.45 121.14
  A 0.25 0.25 0.0 0 1 178.15 120.84
  L 179.71 113.25
  A 0.58 0.58 0.0 0 0 178.72 112.74
  C 176.51 115.10 174.91 117.68 172.43 117.36
  A 0.97 0.97 0.0 0 0 171.51 117.78
  L 169.47 120.90
  A 0.73 0.73 0.0 0 1 168.13 120.42
  Q 168.35 118.32 169.56 116.90
  A 0.56 0.55 -48.4 0 0 169.52 116.13
  Q 168.58 115.25 169.43 113.82
  A 0.62 0.61 21.4 0 0 169.02 112.90
  L 168.59 112.81
  A 0.78 0.78 0.0 0 0 167.79 113.14
  L 165.86 116.09
  A 2.24 2.14 -22.7 0 0 165.55 116.80
  Q 164.80 120.07 163.40 121.51
  A 0.91 0.90 54.5 0 0 163.23 122.53
  Q 163.57 123.24 163.65 124.00
  A 0.12 0.12 0.0 0 1 163.52 124.13
  Q 163.40 124.12 163.28 124.11
  A 0.82 0.79 -67.6 0 0 162.70 124.36
  Q 160.18 126.91 159.00 129.64
  A 0.90 0.90 0.0 0 1 157.77 130.09
  L 157.35 129.87
  A 0.95 0.94 27.0 0 1 156.93 128.60
  L 157.66 127.16
  A 0.67 0.67 0.0 0 0 156.56 126.42
  L 155.26 127.95
  A 1.51 1.48 -75.6 0 1 154.47 128.43
  Q 151.30 129.15 149.89 132.50
  A 0.45 0.45 0.0 0 0 150.24 133.12
  Q 150.89 133.22 151.48 132.72
  Q 154.07 130.54 154.68 129.56
  A 0.80 0.80 0.0 0 1 156.16 130.10
  Q 155.97 131.31 154.52 132.28
  Q 151.67 134.19 150.36 135.87
  A 0.57 0.56 35.7 0 0 150.50 136.69
  L 151.01 137.03
  A 0.58 0.57 -56.2 0 0 151.80 136.87
  L 154.16 133.27
  A 1.08 1.08 0.0 0 1 156.05 134.31
  Q 154.59 137.51 151.26 138.54
  A 1.15 1.14 8.2 0 0 150.67 138.98
  L 148.82 141.81
  A 0.99 0.98 48.8 0 0 148.76 142.79
  Q 149.76 144.77 147.44 146.34
  A 0.32 0.32 0.0 0 1 146.95 146.01
  L 147.52 143.21
  A 0.64 0.61 -56.9 0 0 147.43 142.72
  Q 146.82 141.78 147.25 141.00
  Q 148.58 138.54 147.54 137.79
  A 0.47 0.46 30.9 0 1 147.39 137.21
  L 148.90 134.25
  A 0.63 0.63 0.0 0 0 148.16 133.36
  Q 147.61 133.52 147.27 133.21
  A 0.30 0.30 0.0 0 1 147.21 132.82
  L 150.07 128.47
  A 0.11 0.11 0.0 0 0 149.95 128.30
  L 147.08 128.94
  A 1.93 1.93 0.0 0 0 145.82 129.88
  Q 144.62 132.05 142.72 133.18
  A 3.18 3.11 2.6 0 0 141.88 133.93
  C 140.97 135.11 140.73 135.88 139.31 136.54
  Q 138.06 137.12 135.39 139.13
  Q 134.45 139.83 131.96 142.28
  Q 130.25 143.97 127.97 144.91
  L 127.69 143.75
  L 188.19 93.17
  Z
  M 184.86 98.34
  L 181.42 105.09
  A 0.05 0.05 0.0 0 0 181.44 105.16
  L 181.45 105.16
  A 2.08 1.79 27.0 0 0 184.11 104.51
  L 185.97 100.86
  A 2.08 1.79 27.0 0 0 184.93 98.32
  L 184.92 98.32
  A 0.05 0.05 0.0 0 0 184.86 98.34
  Z"
/>
<path fill="#36353b" d="
  M 425.76 103.67
  Q 423.18 103.97 422.06 101.63
  A 2.43 2.43 0.0 0 0 421.18 100.64
  L 417.32 98.10
  A 0.67 0.66 33.6 0 1 417.13 97.17
  Q 418.15 95.69 417.86 94.48
  Q 418.29 93.39 419.69 93.72
  C 422.96 94.48 421.92 97.33 422.01 99.56
  A 1.75 1.70 -70.7 0 0 422.57 100.77
  L 425.76 103.67
  Z"
/>
<path fill="#979ad2" d="
  M 184.86 98.34
  A 0.05 0.05 0.0 0 1 184.92 98.32
  L 184.93 98.32
  A 2.08 1.79 27.0 0 1 185.97 100.86
  L 184.11 104.51
  A 2.08 1.79 27.0 0 1 181.45 105.16
  L 181.44 105.16
  A 0.05 0.05 0.0 0 1 181.42 105.09
  L 184.86 98.34
  Z"
/>
<ellipse fill="#e4b447" cx="0.00" cy="0.00" transform="translate(225.80,102.59) rotate(-80.7)" rx="1.63" ry="1.29"/>
<ellipse fill="#e9e5e9" cx="0.00" cy="0.00" transform="translate(281.33,106.13) rotate(-3.2)" rx="1.89" ry="1.31"/>
<path fill="#615939" d="
  M 294.33 108.98
  Q 296.74 109.19 297.44 111.14
  A 0.59 0.59 0.0 0 1 296.47 111.75
  L 294.13 109.41
  A 0.25 0.25 0.0 0 1 294.33 108.98
  Z"
/>
<path fill="#e4b447" d="
  M 271.74 115.38
  Q 271.84 111.31 274.11 109.68
  Q 274.91 109.79 275.85 110.73
  A 1.19 1.18 49.9 0 1 275.70 112.54
  L 271.74 115.38
  Z"
/>
<path fill="#979ad2" d="
  M 187.27 119.21
  Q 187.15 125.52 186.79 131.83
  Q 186.70 133.55 186.31 135.14
  C 185.88 136.96 186.51 138.39 185.33 140.35
  A 1.62 1.56 -32.1 0 0 185.10 141.27
  Q 185.14 141.96 185.44 142.61
  A 2.29 2.23 -56.8 0 1 185.65 143.69
  Q 185.16 151.24 185.20 152.47
  Q 185.27 154.60 186.95 154.38
  Q 186.94 154.70 187.26 155.05
  A 1.18 1.15 72.2 0 0 187.94 155.41
  Q 188.77 155.53 189.22 155.98
  Q 188.38 155.98 188.34 156.69
  A 0.45 0.45 0.0 0 0 188.54 157.08
  Q 188.96 157.37 188.61 157.85
  Q 188.27 158.33 188.10 158.42
  Q 184.65 160.27 183.31 162.26
  A 5.17 5.06 -26.0 0 0 182.47 164.62
  L 181.20 178.05
  A 0.80 0.80 0.0 0 0 182.32 178.86
  L 187.38 176.63
  A 4.54 4.46 8.6 0 0 188.90 175.53
  Q 191.06 173.12 193.92 171.55
  A 1.25 1.24 79.0 0 0 194.56 170.59
  L 195.79 158.60
  Q 196.81 158.42 197.94 159.56
  A 1.88 1.82 -12.8 0 0 198.73 160.04
  L 204.93 162.04
  Q 205.57 163.13 206.52 163.40
  Q 207.80 163.76 207.76 162.58
  Q 206.93 168.67 208.25 175.28
  L 207.53 193.13
  Q 206.07 192.10 204.18 193.25
  Q 160.05 220.14 115.56 247.49
  Q 114.55 248.12 114.26 249.27
  Q 113.91 250.72 116.35 251.10
  L 112.54 253.36
  Q 113.01 251.36 112.12 250.17
  A 0.44 0.44 0.0 0 0 111.53 250.06
  Q 82.40 267.85 52.16 286.62
  Q 50.66 287.56 49.53 288.02
  Q 47.62 288.81 47.21 289.68
  A 0.90 0.89 -75.6 0 1 46.34 290.20
  Q 45.96 290.17 43.29 291.80
  Q 20.05 305.99 4.68 315.66
  Q 2.93 316.76 1.06 317.78
  L 0.93 316.79
  Q 0.99 316.03 1.15 315.29
  Q 8.98 276.72 16.90 238.17
  Q 17.16 236.90 17.63 236.39
  Q 19.38 235.57 20.87 234.20
  Q 23.43 231.86 23.56 231.76
  Q 43.77 215.54 46.08 213.56
  Q 46.25 213.42 46.46 213.09
  Q 46.66 212.78 46.83 212.66
  Q 53.62 208.00 60.40 201.41
  A 0.90 0.90 0.0 0 1 61.91 201.90
  C 62.02 202.52 61.34 203.72 61.10 204.74
  Q 59.08 213.34 58.67 221.14
  A 3.49 3.34 -32.5 0 1 58.36 222.41
  C 56.98 225.42 57.37 228.87 56.71 232.41
  Q 55.43 239.26 55.13 243.02
  A 0.94 0.92 65.5 0 1 54.96 243.49
  Q 54.28 244.45 53.52 252.13
  Q 53.31 254.24 50.50 264.07
  A 1.96 1.71 -41.0 0 0 50.43 264.57
  L 50.43 268.99
  A 2.64 2.47 56.1 0 1 50.30 269.80
  Q 49.26 273.16 49.02 277.43
  Q 49.01 277.48 49.00 277.53
  L 47.00 286.47
  A 0.37 0.36 81.3 0 0 47.54 286.87
  Q 48.17 286.51 48.42 285.42
  C 49.49 280.68 50.16 277.73 50.18 275.90
  Q 50.18 275.49 50.40 275.17
  Q 50.77 274.62 50.85 274.18
  Q 52.34 266.41 53.05 261.75
  Q 53.07 261.60 53.40 261.02
  A 2.30 2.29 -27.3 0 0 53.69 260.12
  Q 54.19 254.86 54.43 254.11
  Q 55.31 251.31 55.08 247.94
  A 1.21 1.12 -42.9 0 1 55.11 247.54
  L 59.64 225.44
  A 3.92 3.58 -42.3 0 0 59.72 224.58
  Q 59.49 218.21 61.52 212.95
  A 6.11 5.85 -33.6 0 0 61.92 211.16
  Q 62.00 210.11 63.58 203.74
  Q 64.24 201.08 63.14 197.67
  L 124.55 146.41
  Q 125.20 152.70 123.06 158.58
  A 1.18 0.98 -39.8 0 0 122.99 158.96
  L 122.85 170.71
  A 0.79 0.79 0.0 0 0 123.86 171.48
  Q 125.33 171.06 125.40 169.17
  A 1.22 1.20 26.1 0 0 125.12 168.37
  Q 124.17 167.27 125.12 165.77
  A 0.84 0.84 0.0 0 0 125.18 165.00
  L 124.64 163.79
  A 0.69 0.62 -57.7 0 1 124.59 163.49
  L 124.93 158.93
  A 1.01 0.95 65.7 0 1 125.09 158.46
  Q 126.04 156.97 126.09 155.87
  Q 126.25 152.26 126.86 148.31
  A 1.38 1.36 75.1 0 1 127.34 147.46
  Q 128.57 146.46 127.97 144.91
  Q 130.25 143.97 131.96 142.28
  Q 134.45 139.83 135.39 139.13
  Q 138.06 137.12 139.31 136.54
  C 140.73 135.88 140.97 135.11 141.88 133.93
  A 3.18 3.11 2.6 0 1 142.72 133.18
  Q 144.62 132.05 145.82 129.88
  A 1.93 1.93 0.0 0 1 147.08 128.94
  L 149.95 128.30
  A 0.11 0.11 0.0 0 1 150.07 128.47
  L 147.21 132.82
  A 0.30 0.30 0.0 0 0 147.27 133.21
  Q 147.61 133.52 148.16 133.36
  A 0.63 0.63 0.0 0 1 148.90 134.25
  L 147.39 137.21
  A 0.47 0.46 30.9 0 0 147.54 137.79
  Q 148.58 138.54 147.25 141.00
  Q 146.82 141.78 147.43 142.72
  A 0.64 0.61 -56.9 0 1 147.52 143.21
  L 146.95 146.01
  A 0.32 0.32 0.0 0 0 147.44 146.34
  Q 149.76 144.77 148.76 142.79
  A 0.99 0.98 48.8 0 1 148.82 141.81
  L 150.67 138.98
  A 1.15 1.14 8.2 0 1 151.26 138.54
  Q 154.59 137.51 156.05 134.31
  A 1.08 1.08 0.0 0 0 154.16 133.27
  L 151.80 136.87
  A 0.58 0.57 -56.2 0 1 151.01 137.03
  L 150.50 136.69
  A 0.57 0.56 35.7 0 1 150.36 135.87
  Q 151.67 134.19 154.52 132.28
  Q 155.97 131.31 156.16 130.10
  A 0.80 0.80 0.0 0 0 154.68 129.56
  Q 154.07 130.54 151.48 132.72
  Q 150.89 133.22 150.24 133.12
  A 0.45 0.45 0.0 0 1 149.89 132.50
  Q 151.30 129.15 154.47 128.43
  A 1.51 1.48 -75.6 0 0 155.26 127.95
  L 156.56 126.42
  A 0.67 0.67 0.0 0 1 157.66 127.16
  L 156.93 128.60
  A 0.95 0.94 27.0 0 0 157.35 129.87
  L 157.77 130.09
  A 0.90 0.90 0.0 0 0 159.00 129.64
  Q 160.18 126.91 162.70 124.36
  A 0.82 0.79 -67.6 0 1 163.28 124.11
  Q 163.40 124.12 163.52 124.13
  A 0.12 0.12 0.0 0 0 163.65 124.00
  Q 163.57 123.24 163.23 122.53
  A 0.91 0.90 54.5 0 1 163.40 121.51
  Q 164.80 120.07 165.55 116.80
  A 2.24 2.14 -22.7 0 1 165.86 116.09
  L 167.79 113.14
  A 0.78 0.78 0.0 0 1 168.59 112.81
  L 169.02 112.90
  A 0.62 0.61 21.4 0 1 169.43 113.82
  Q 168.58 115.25 169.52 116.13
  A 0.56 0.55 -48.4 0 1 169.56 116.90
  Q 168.35 118.32 168.13 120.42
  A 0.73 0.73 0.0 0 0 169.47 120.90
  L 171.51 117.78
  A 0.97 0.97 0.0 0 1 172.43 117.36
  C 174.91 117.68 176.51 115.10 178.72 112.74
  A 0.58 0.58 0.0 0 1 179.71 113.25
  L 178.15 120.84
  A 0.25 0.25 0.0 0 0 178.45 121.14
  Q 180.55 120.71 181.14 120.05
  Q 183.58 117.35 186.32 115.59
  A 1.22 1.20 74.2 0 0 186.87 114.59
  L 186.92 111.83
  A 0.01 0.01 0.0 0 1 186.93 111.82
  L 187.22 111.82
  A 0.16 0.15 -90.0 0 1 187.37 111.98
  L 187.27 119.21
  Z
  M 125.93 179.97
  L 126.01 180.32
  A 0.34 0.33 -31.2 0 0 126.59 180.46
  L 128.84 177.93
  A 1.09 1.02 -73.4 0 1 129.39 177.61
  Q 131.33 177.19 132.43 175.36
  A 0.94 0.94 0.0 0 1 132.71 175.08
  L 141.48 169.04
  A 1.57 1.55 75.8 0 0 142.15 167.90
  L 143.43 154.38
  A 0.53 0.53 0.0 0 0 142.65 153.86
  Q 139.04 155.76 136.39 158.82
  A 1.39 0.96 -8.0 0 1 136.15 159.04
  L 134.06 160.46
  A 2.06 2.04 -13.0 0 0 133.17 161.87
  Q 132.63 165.67 132.20 171.23
  Q 132.01 173.71 130.19 176.11
  A 1.37 1.34 -80.0 0 1 129.56 176.56
  Q 127.38 177.26 126.17 178.85
  A 1.32 1.31 57.3 0 0 125.93 179.97
  Z
  M 102.22 196.28
  A 0.93 0.93 0.0 0 0 103.70 197.17
  L 110.99 191.59
  A 0.93 0.93 0.0 0 0 111.34 190.98
  L 112.97 179.02
  A 0.93 0.93 0.0 0 0 111.48 178.15
  L 104.53 183.48
  A 0.93 0.93 0.0 0 0 104.18 184.08
  L 102.22 196.28
  Z
  M 139.33 191.22
  L 137.78 193.58
  A 0.40 0.35 -6.9 0 1 137.67 193.70
  L 129.23 199.85
  A 0.82 0.81 -16.4 0 0 128.91 200.43
  Q 128.81 201.45 127.26 213.77
  Q 126.88 216.82 124.17 216.40
  A 1.17 1.14 -55.9 0 0 123.40 216.56
  Q 121.19 217.94 120.56 219.42
  A 0.83 0.82 -61.8 0 1 119.35 219.79
  L 118.22 219.05
  A 0.32 0.31 -65.4 0 0 117.75 219.23
  Q 117.23 220.98 118.40 222.49
  A 0.33 0.32 34.6 0 0 118.97 222.39
  Q 119.41 220.98 121.04 221.16
  A 1.11 1.11 0.0 0 0 121.99 220.79
  L 124.73 217.71
  A 1.10 1.07 18.5 0 1 125.46 217.36
  Q 126.97 217.27 127.48 216.09
  A 0.45 0.39 -7.3 0 1 127.64 215.91
  L 136.94 209.92
  A 1.00 0.99 -12.9 0 0 137.38 209.22
  L 139.10 196.73
  A 1.19 1.15 -44.2 0 0 139.11 196.39
  L 138.86 194.27
  A 0.85 0.84 -17.3 0 1 139.30 193.44
  Q 140.38 192.86 140.14 191.39
  A 0.44 0.44 0.0 0 0 139.33 191.22
  Z
  M 143.45 201.53
  A 1.03 1.03 0.0 0 0 145.30 202.42
  Q 147.16 199.47 150.23 199.02
  Q 151.41 198.84 152.49 196.77
  A 1.05 1.05 0.0 0 0 151.71 195.24
  L 151.46 195.20
  A 1.84 1.84 0.0 0 0 149.49 196.31
  C 148.12 199.64 144.75 197.77 143.45 201.53
  Z
  M 71.40 221.49
  A 2.51 2.49 78.4 0 0 72.51 219.79
  L 74.19 209.41
  A 0.89 0.89 0.0 0 0 72.74 208.58
  L 68.91 211.77
  A 5.56 5.54 74.8 0 0 66.98 215.16
  L 65.46 224.48
  A 0.42 0.42 0.0 0 0 66.10 224.90
  L 71.40 221.49
  Z
  M 104.62 231.41
  A 3.58 3.56 -13.3 0 0 106.24 228.81
  Q 106.43 227.11 107.67 219.69
  Q 107.93 218.13 107.61 216.45
  A 0.92 0.91 -24.1 0 0 106.16 215.90
  L 99.36 221.07
  A 1.22 1.18 -16.1 0 0 98.90 221.87
  L 97.18 234.77
  A 0.73 0.73 0.0 0 0 98.30 235.48
  L 104.62 231.41
  Z
  M 49.90 237.35
  A 0.88 0.88 0.0 0 0 50.20 236.85
  L 52.32 226.53
  A 0.88 0.88 0.0 0 0 50.89 225.68
  L 46.70 229.18
  A 0.88 0.88 0.0 0 0 46.40 229.68
  L 44.28 240.00
  A 0.88 0.88 0.0 0 0 45.71 240.85
  L 49.90 237.35
  Z
  M 60.95 251.44
  Q 60.63 254.34 59.76 258.99
  Q 59.60 259.87 59.63 260.37
  A 0.53 0.53 0.0 0 0 60.42 260.79
  Q 61.55 260.15 64.47 258.15
  C 66.90 256.48 66.94 255.33 67.22 252.74
  Q 67.55 249.85 68.42 245.19
  Q 68.58 244.32 68.55 243.82
  A 0.53 0.53 0.0 0 0 67.76 243.40
  Q 66.63 244.04 63.71 246.03
  C 61.28 247.70 61.24 248.86 60.95 251.44
  Z
  M 18.00 254.53
  Q 16.59 260.61 16.47 261.33
  A 0.44 0.44 0.0 0 0 17.05 261.82
  C 20.46 260.62 21.32 258.70 22.09 255.35
  Q 23.50 249.28 23.61 248.56
  A 0.44 0.44 0.0 0 0 23.04 248.07
  C 19.63 249.27 18.77 251.19 18.00 254.53
  Z
  M 39.54 266.50
  Q 39.03 270.04 37.94 274.15
  A 0.72 0.72 0.0 0 0 38.87 275.01
  Q 41.49 274.07 43.71 271.59
  Q 44.25 270.99 44.71 267.78
  Q 45.21 264.24 46.30 260.12
  A 0.72 0.72 0.0 0 0 45.37 259.26
  Q 42.75 260.20 40.54 262.68
  Q 40.00 263.28 39.54 266.50
  Z
  M 11.48 286.38
  Q 10.15 292.65 10.04 293.39
  A 0.45 0.45 0.0 0 0 10.64 293.88
  C 14.12 292.58 14.96 290.60 15.70 287.15
  Q 17.03 280.88 17.14 280.13
  A 0.45 0.45 0.0 0 0 16.54 279.65
  C 13.06 280.94 12.21 282.93 11.48 286.38
  Z"
/>
<path fill="#615939" d="
  M 285.59 128.10
  Q 284.27 129.70 282.44 128.09
  A 1.03 1.02 26.5 0 1 282.11 127.13
  Q 282.32 126.01 281.61 125.49
  A 2.52 2.45 -19.3 0 0 280.62 125.03
  Q 279.52 124.77 277.21 125.77
  C 274.74 126.83 274.99 129.12 275.89 130.92
  A 1.63 1.61 -87.9 0 0 276.45 131.53
  Q 277.31 132.06 277.36 132.63
  Q 277.67 136.71 279.11 141.37
  A 1.36 1.32 7.3 0 0 279.73 142.15
  Q 280.69 142.70 282.01 142.18
  A 0.82 0.82 0.0 0 1 283.12 142.99
  Q 282.91 146.44 284.63 149.50
  A 2.88 2.88 0.0 0 0 287.60 150.94
  L 290.24 150.51
  A 1.54 1.53 75.6 0 0 291.44 148.47
  C 290.77 146.59 290.22 145.42 290.46 143.10
  Q 290.87 139.12 290.60 135.35
  Q 298.41 130.70 305.03 126.27
  C 308.78 123.76 309.93 126.19 313.78 126.41
  Q 315.26 126.50 316.56 127.06
  A 2.89 2.84 -31.4 0 0 317.50 127.28
  Q 322.60 127.65 327.02 129.45
  A 2.49 2.44 54.6 0 0 327.97 129.62
  Q 331.74 129.49 334.74 130.59
  Q 336.78 131.35 339.40 131.40
  Q 342.54 131.46 346.12 133.51
  A 0.58 0.57 -47.5 0 1 346.16 134.48
  L 342.85 136.81
  A 0.99 0.98 -33.1 0 0 342.57 138.13
  L 342.59 138.17
  A 0.92 0.92 0.0 0 0 343.84 138.49
  L 355.48 131.77
  Q 359.86 131.00 363.60 131.73
  Q 376.36 134.24 389.19 136.61
  A 0.01 0.01 0.0 0 1 389.19 136.63
  C 388.37 136.63 387.69 137.06 387.13 137.68
  Q 385.24 138.51 383.02 138.11
  Q 370.45 135.83 359.79 133.42
  A 2.64 2.61 35.9 0 0 357.91 133.71
  L 344.44 141.48
  A 1.00 1.00 0.0 0 0 344.88 143.35
  C 348.05 143.55 350.82 142.98 352.33 146.20
  A 0.33 0.29 -68.3 0 1 352.37 146.31
  L 352.85 153.79
  A 0.58 0.58 0.0 0 0 353.50 154.33
  C 356.07 154.06 356.61 148.83 356.33 146.99
  C 356.17 145.94 355.15 145.21 354.44 145.00
  A 0.37 0.36 77.8 0 1 354.23 144.86
  L 351.64 141.27
  A 1.13 1.13 0.0 0 1 352.57 139.48
  Q 354.29 139.49 355.47 137.18
  A 1.01 1.00 -73.7 0 1 356.45 136.64
  L 360.41 137.02
  A 0.82 0.81 1.3 0 1 361.15 137.78
  L 361.49 142.93
  A 1.24 1.23 -24.2 0 1 361.12 143.90
  L 360.50 144.52
  A 0.61 0.61 0.0 0 0 360.62 145.47
  Q 364.00 147.47 365.00 147.55
  Q 367.31 147.73 370.47 148.82
  A 0.71 0.68 46.4 0 0 370.87 148.84
  L 374.27 148.08
  A 1.51 1.47 45.8 0 1 375.03 148.10
  Q 376.70 148.58 377.80 149.44
  A 0.72 0.71 -54.2 0 0 378.84 149.27
  Q 379.89 147.68 381.96 147.03
  A 2.00 1.90 74.2 0 0 383.21 144.65
  Q 383.16 144.44 383.11 142.66
  A 0.55 0.55 0.0 0 1 383.69 142.09
  Q 385.33 142.16 387.41 140.72
  A 2.13 2.07 -61.3 0 1 388.64 140.34
  Q 391.36 140.38 393.66 140.55
  Q 395.60 140.70 396.54 139.41
  Q 397.02 138.77 395.91 138.05
  Q 403.45 138.48 410.25 141.50
  Q 409.46 143.19 410.01 145.05
  L 403.26 143.39
  A 1.12 1.11 36.3 0 0 402.45 143.51
  L 393.74 148.54
  A 2.82 2.82 0.0 0 0 393.12 152.94
  L 400.45 160.56
  A 0.91 0.71 16.4 0 1 400.62 160.80
  Q 401.56 162.62 402.39 165.77
  A 1.63 1.63 0.0 0 0 404.08 166.99
  L 406.06 166.86
  A 1.55 1.53 -11.2 0 1 407.61 167.89
  C 409.08 172.11 410.97 177.15 411.52 181.94
  A 1.31 1.29 -16.7 0 1 410.80 183.26
  L 395.05 191.05
  A 2.59 2.58 6.1 0 0 394.14 191.78
  L 392.67 193.63
  A 0.93 0.91 26.5 0 1 391.72 193.94
  L 389.99 193.48
  A 1.16 1.15 -49.2 0 0 389.21 193.54
  Q 372.75 201.10 359.36 207.07
  Q 357.89 207.73 356.85 209.44
  Q 353.87 208.31 350.99 209.07
  Q 350.19 208.28 348.97 208.82
  A 1.29 1.28 37.9 0 1 348.22 208.91
  L 344.55 208.25
  Q 339.95 207.21 334.74 207.67
  A 0.42 0.42 0.0 0 1 334.29 207.36
  Q 334.23 207.16 334.39 206.93
  Q 334.64 206.55 335.02 206.44
  Q 336.91 205.90 338.18 204.94
  A 1.83 1.75 82.1 0 0 338.78 204.11
  L 341.04 197.75
  Q 341.77 197.62 342.11 195.95
  L 345.93 188.25
  C 347.16 185.74 349.16 183.23 347.34 180.24
  A 1.20 1.17 -8.9 0 0 346.58 179.70
  Q 345.14 179.37 343.12 180.08
  L 338.65 182.55
  Q 337.18 182.51 336.76 183.18
  Q 334.33 182.56 332.84 183.76
  Q 332.28 181.74 334.68 180.07
  Q 335.83 179.01 337.28 178.40
  L 339.51 178.48
  A 0.98 0.98 0.0 0 0 340.51 177.66
  Q 341.43 171.84 335.93 170.83
  A 1.27 1.26 -52.8 0 1 335.61 168.45
  L 336.44 168.05
  Q 340.18 166.72 343.00 164.53
  Q 344.14 164.12 344.12 163.13
  Q 344.10 162.14 343.15 161.90
  Q 338.58 160.71 334.32 160.81
  L 323.26 159.85
  A 1.82 1.81 15.7 0 0 321.49 160.84
  L 321.22 161.38
  A 0.84 0.84 0.0 0 0 321.77 162.58
  L 328.46 164.22
  L 332.69 168.15
  A 2.03 1.90 -79.5 0 1 333.20 168.95
  Q 334.81 173.82 333.60 179.15
  Q 333.44 179.86 332.84 179.78
  Q 332.36 179.71 331.78 179.24
  C 329.93 175.11 325.52 178.47 323.30 179.48
  A 1.82 1.82 0.0 0 1 320.70 178.33
  L 319.32 173.10
  A 0.87 0.80 24.2 0 0 319.23 172.89
  L 314.42 164.56
  A 1.28 1.28 0.0 0 0 312.68 164.09
  L 298.53 172.26
  A 1.06 1.05 -38.3 0 0 298.33 173.94
  Q 304.47 179.71 312.11 184.50
  Q 312.02 184.74 312.31 185.46
  Q 311.37 185.13 311.08 186.31
  Q 310.74 187.70 310.25 187.74
  Q 307.97 190.08 308.33 194.19
  A 3.93 3.67 -43.0 0 1 308.25 195.35
  L 307.60 198.16
  A 0.98 0.98 0.0 0 0 308.11 199.25
  L 309.96 200.19
  A 0.78 0.78 0.0 0 1 310.32 201.22
  Q 309.88 202.15 309.60 203.27
  Q 309.38 204.12 310.01 204.23
  C 309.34 207.76 307.25 209.84 305.36 212.71
  A 1.38 1.36 59.7 0 0 305.13 213.62
  L 305.47 217.52
  Q 303.26 215.88 299.54 216.34
  A 0.11 0.10 -8.8 0 1 299.42 216.26
  Q 298.63 213.47 297.30 213.26
  Q 298.01 213.28 297.67 213.04
  A 0.24 0.23 46.1 0 0 297.41 213.03
  Q 297.23 213.13 296.98 213.16
  L 293.99 212.22
  A 0.77 0.75 35.4 0 0 293.33 212.32
  Q 292.80 212.69 292.92 213.26
  Q 290.84 213.18 288.65 213.21
  Q 285.72 213.25 284.43 212.91
  C 280.85 211.98 276.97 208.37 277.53 204.20
  C 277.66 203.24 277.44 202.84 276.68 202.32
  C 274.39 200.74 274.63 199.10 274.19 196.73
  Q 273.79 195.67 274.49 194.46
  Q 275.58 192.59 276.07 191.22
  Q 278.13 192.89 280.44 190.17
  Q 283.56 186.50 285.81 185.75
  A 3.80 3.32 27.1 0 1 286.41 185.60
  Q 291.07 184.70 293.74 182.77
  A 0.78 0.78 0.0 0 0 293.12 181.38
  Q 285.87 182.95 280.64 186.79
  C 281.76 182.82 278.99 181.34 275.69 179.34
  A 1.08 1.06 50.9 0 0 274.79 179.24
  L 272.97 179.84
  A 1.20 1.18 -52.5 0 1 272.54 179.90
  Q 268.48 179.75 264.18 181.10
  Q 265.00 180.27 264.82 179.53
  Q 263.51 173.95 260.35 158.55
  C 259.57 154.73 258.22 151.52 257.30 148.03
  A 1.70 1.68 -36.1 0 1 257.52 146.68
  L 257.91 146.08
  A 0.64 0.64 0.0 0 1 259.07 146.33
  L 259.80 150.88
  A 2.10 2.09 -1.9 0 0 261.68 152.63
  L 264.60 152.91
  A 2.36 2.35 88.1 0 1 266.70 154.88
  L 267.61 160.51
  A 0.91 0.89 -83.6 0 0 268.15 161.20
  Q 269.48 161.75 271.24 160.66
  A 1.20 1.19 -44.3 0 0 271.27 158.65
  L 270.07 157.87
  A 1.51 1.50 11.4 0 1 269.42 156.90
  L 268.47 152.29
  Q 268.47 151.45 269.05 151.03
  A 0.93 0.90 -61.0 0 1 269.65 150.85
  C 275.44 151.25 277.48 146.74 276.79 141.73
  C 276.13 136.96 275.94 133.15 271.07 130.94
  Q 269.79 130.36 267.92 130.64
  C 265.37 131.03 264.85 133.87 263.45 134.53
  A 0.90 0.90 0.0 0 0 262.97 135.59
  C 263.71 138.15 261.48 140.44 260.56 142.84
  A 1.17 1.16 -0.7 0 1 259.92 143.49
  Q 258.12 144.23 256.02 144.35
  C 252.39 144.97 252.51 142.61 251.72 139.47
  Q 251.11 137.05 251.13 135.36
  A 1.26 1.25 -22.7 0 1 251.50 134.47
  Q 255.22 130.81 259.90 129.82
  A 2.61 2.58 14.4 0 0 261.29 129.01
  Q 268.16 121.32 277.90 118.69
  C 281.74 117.65 281.63 121.86 282.53 123.88
  A 1.44 0.79 42.6 0 0 282.62 124.04
  L 285.59 128.10
  Z
  M 284.55 158.43
  Q 286.26 157.78 287.34 156.64
  A 0.61 0.60 20.4 0 0 286.87 155.62
  C 282.88 155.80 279.30 154.19 275.47 156.19
  Q 272.61 157.68 274.64 160.46
  A 0.95 0.81 83.2 0 0 274.90 160.70
  L 277.43 162.19
  A 0.77 0.75 -44.4 0 0 278.22 162.19
  L 284.47 158.47
  Q 284.51 158.45 284.55 158.43
  Z
  M 366.98 168.81
  Q 368.16 168.15 368.59 167.75
  A 1.11 1.10 44.5 0 0 368.57 166.12
  Q 366.53 164.28 363.15 160.36
  Q 362.37 159.46 361.93 159.70
  Q 361.50 159.94 361.85 161.08
  Q 363.38 166.02 363.86 168.73
  A 1.11 1.10 77.5 0 0 365.23 169.61
  Q 365.80 169.46 366.98 168.81
  Z
  M 346.0176 176.0688
  A 1.52 1.06 -139.3 0 0 346.4788 177.8636
  A 1.52 1.06 -139.3 0 0 348.3224 178.0512
  A 1.52 1.06 -139.3 0 0 347.8612 176.2564
  A 1.52 1.06 -139.3 0 0 346.0176 176.0688
  Z
  M 298.00 188.33
  C 301.83 188.07 302.89 188.06 305.83 186.46
  A 0.67 0.67 0.0 0 0 306.09 185.54
  L 304.53 182.84
  A 0.95 0.95 0.0 0 0 302.91 182.79
  L 302.12 183.99
  A 0.82 0.79 11.1 0 1 301.58 184.34
  C 299.61 184.67 296.48 185.54 297.10 187.71
  A 0.87 0.87 0.0 0 0 298.00 188.33
  Z
  M 358.9121 184.4736
  A 6.21 2.35 -23.1 0 0 352.2780 184.7484
  A 6.21 2.35 -23.1 0 0 347.4879 189.3464
  A 6.21 2.35 -23.1 0 0 354.1220 189.0716
  A 6.21 2.35 -23.1 0 0 358.9121 184.4736
  Z
  M 296.56 192.45
  L 296.77 190.70
  A 0.52 0.52 0.0 0 0 296.31 190.13
  L 295.24 190.00
  A 2.92 1.29 6.8 0 0 292.19 190.93
  L 292.16 191.15
  A 2.92 1.29 6.8 0 0 294.91 192.78
  L 295.98 192.91
  A 0.52 0.52 0.0 0 0 296.56 192.45
  Z
  M 303.3815 201.0580
  A 1.95 1.34 -12.8 0 0 301.1831 200.1833
  A 1.95 1.34 -12.8 0 0 299.5785 201.9220
  A 1.95 1.34 -12.8 0 0 301.7769 202.7967
  A 1.95 1.34 -12.8 0 0 303.3815 201.0580
  Z"
/>
<path fill="#36353b" d="
  M 285.59 128.10
  Q 287.33 129.59 288.87 131.63
  Q 290.11 133.27 290.60 135.35
  Q 290.87 139.12 290.46 143.10
  C 290.22 145.42 290.77 146.59 291.44 148.47
  A 1.54 1.53 75.6 0 1 290.24 150.51
  L 287.60 150.94
  A 2.88 2.88 0.0 0 1 284.63 149.50
  Q 282.91 146.44 283.12 142.99
  A 0.82 0.82 0.0 0 0 282.01 142.18
  Q 280.69 142.70 279.73 142.15
  A 1.36 1.32 7.3 0 1 279.11 141.37
  Q 277.67 136.71 277.36 132.63
  Q 277.31 132.06 276.45 131.53
  A 1.63 1.61 -87.9 0 1 275.89 130.92
  C 274.99 129.12 274.74 126.83 277.21 125.77
  Q 279.52 124.77 280.62 125.03
  A 2.52 2.45 -19.3 0 1 281.61 125.49
  Q 282.32 126.01 282.11 127.13
  A 1.03 1.02 26.5 0 0 282.44 128.09
  Q 284.27 129.70 285.59 128.10
  Z"
/>
<path fill="#36353b" d="
  M 455.42 151.44
  L 449.30 149.61
  A 1.20 1.19 -2.0 0 1 448.54 148.91
  Q 447.84 147.22 446.39 146.32
  A 2.11 2.11 0.0 0 0 445.44 146.03
  Q 443.29 145.93 441.91 145.26
  A 1.43 1.40 3.9 0 1 441.18 144.44
  L 434.79 125.56
  L 449.93 128.07
  A 1.67 1.65 84.2 0 1 451.19 129.11
  Q 454.79 138.48 457.93 148.16
  Q 458.55 150.07 458.02 150.87
  Q 457.37 151.86 455.42 151.44
  Z"
/>
<path fill="#615939" d="
  M 203.63 132.09
  Q 202.52 131.20 202.17 132.00
  A 0.40 0.40 0.0 0 0 202.14 132.23
  Q 202.84 136.26 201.67 140.07
  Q 198.21 136.34 193.05 134.84
  A 0.77 0.75 -5.3 0 1 192.58 134.46
  Q 192.19 133.74 192.36 133.22
  A 0.46 0.46 0.0 0 1 193.07 133.00
  Q 196.00 135.22 200.35 134.69
  A 0.44 0.44 0.0 0 0 200.65 133.99
  Q 198.39 131.02 194.12 129.96
  A 0.69 0.67 -53.5 0 0 193.59 130.05
  L 193.12 130.35
  A 0.49 0.49 0.0 0 1 192.40 129.76
  L 192.94 128.36
  A 0.53 0.53 0.0 0 1 193.62 128.06
  L 199.59 130.34
  A 1.63 1.57 -39.6 0 0 200.50 130.41
  Q 203.38 129.78 203.63 132.09
  Z"
/>
<path fill="#36353b" d="
  M 268.47 152.29
  Q 266.53 151.03 263.97 150.07
  A 2.59 2.51 -71.5 0 1 262.47 146.93
  Q 262.60 146.49 262.58 145.80
  A 0.84 0.82 10.9 0 0 262.06 145.05
  Q 259.17 143.85 256.02 144.35
  Q 258.12 144.23 259.92 143.49
  A 1.17 1.16 -0.7 0 0 260.56 142.84
  C 261.48 140.44 263.71 138.15 262.97 135.59
  A 0.90 0.90 0.0 0 1 263.45 134.53
  C 264.85 133.87 265.37 131.03 267.92 130.64
  Q 269.79 130.36 271.07 130.94
  C 275.94 133.15 276.13 136.96 276.79 141.73
  C 277.48 146.74 275.44 151.25 269.65 150.85
  A 0.93 0.90 -61.0 0 0 269.05 151.03
  Q 268.47 151.45 268.47 152.29
  Z
  M 272.2726 143.6739
  A 1.00 1.00 0.0 0 0 270.8992 143.3366
  L 264.8433 147.0042
  A 1.00 1.00 0.0 0 0 264.5059 148.3776
  L 264.5474 148.4461
  A 1.00 1.00 0.0 0 0 265.9208 148.7834
  L 271.9767 145.1158
  A 1.00 1.00 0.0 0 0 272.3141 143.7424
  L 272.2726 143.6739
  Z"
/>
<path fill="#36353b" d="
  M 203.63 132.09
  Q 206.36 134.71 207.02 137.89
  Q 205.74 139.21 205.22 140.96
  Q 204.99 141.77 204.58 142.01
  Q 204.08 142.30 203.32 142.30
  L 201.67 140.07
  Q 202.84 136.26 202.14 132.23
  A 0.40 0.40 0.0 0 1 202.17 132.00
  Q 202.52 131.20 203.63 132.09
  Z"
/>
<path fill="#e4b447" d="
  M 387.13 137.68
  Q 391.08 136.94 395.91 138.05
  Q 397.02 138.77 396.54 139.41
  Q 395.60 140.70 393.66 140.55
  Q 391.36 140.38 388.64 140.34
  A 2.13 2.07 -61.3 0 0 387.41 140.72
  Q 385.33 142.16 383.69 142.09
  A 0.55 0.55 0.0 0 0 383.11 142.66
  Q 383.16 144.44 383.21 144.65
  A 2.00 1.90 74.2 0 1 381.96 147.03
  Q 379.89 147.68 378.84 149.27
  A 0.72 0.71 -54.2 0 1 377.80 149.44
  Q 376.70 148.58 375.03 148.10
  A 1.51 1.47 45.8 0 0 374.27 148.08
  L 370.87 148.84
  A 0.71 0.68 46.4 0 1 370.47 148.82
  Q 367.31 147.73 365.00 147.55
  Q 364.00 147.47 360.62 145.47
  A 0.61 0.61 0.0 0 1 360.50 144.52
  L 361.12 143.90
  A 1.24 1.23 -24.2 0 0 361.49 142.93
  L 361.15 137.78
  A 0.82 0.81 1.3 0 0 360.41 137.02
  L 356.45 136.64
  A 1.01 1.00 -73.7 0 0 355.47 137.18
  Q 354.29 139.49 352.57 139.48
  A 1.13 1.13 0.0 0 0 351.64 141.27
  L 354.23 144.86
  A 0.37 0.36 77.8 0 0 354.44 145.00
  C 355.15 145.21 356.17 145.94 356.33 146.99
  C 356.61 148.83 356.07 154.06 353.50 154.33
  A 0.58 0.58 0.0 0 1 352.85 153.79
  L 352.37 146.31
  A 0.33 0.29 -68.3 0 0 352.33 146.20
  C 350.82 142.98 348.05 143.55 344.88 143.35
  A 1.00 1.00 0.0 0 1 344.44 141.48
  L 357.91 133.71
  A 2.64 2.61 35.9 0 1 359.79 133.42
  Q 370.45 135.83 383.02 138.11
  Q 385.24 138.51 387.13 137.68
  Z"
/>
<rect fill="#545455" x="-4.54" y="-1.04" transform="translate(268.41,146.06) rotate(-31.2)" width="9.08" height="2.08" rx="1.00"/>
<path fill="#36353b" d="
  M 410.01 145.05
  L 413.52 147.02
  Q 412.63 147.60 412.44 148.34
  A 0.82 0.81 -52.1 0 0 412.51 148.93
  Q 415.04 153.70 416.05 159.09
  A 6.42 6.21 30.0 0 0 416.33 160.07
  C 417.51 163.21 418.68 165.58 419.71 169.24
  Q 420.86 173.35 424.62 186.92
  C 425.44 189.86 426.52 193.52 429.65 193.79
  A 0.29 0.29 0.0 0 1 429.87 194.24
  Q 429.65 194.61 429.86 194.85
  Q 430.59 195.70 431.50 196.06
  A 0.62 0.62 0.0 0 1 431.42 197.24
  L 429.72 197.67
  A 2.64 2.27 -60.6 0 0 429.25 197.84
  Q 423.92 200.53 420.59 201.77
  C 410.13 205.67 399.36 210.73 390.74 214.18
  Q 387.65 215.41 385.40 216.50
  C 381.98 218.16 378.75 218.99 375.37 220.72
  Q 371.79 222.54 370.85 223.03
  Q 366.64 225.18 361.95 225.70
  C 363.68 224.81 365.49 223.64 367.15 223.00
  C 374.30 220.26 379.59 217.50 387.00 214.49
  Q 394.14 211.59 402.73 207.50
  Q 409.38 204.32 424.17 198.42
  Q 425.74 197.79 426.74 196.78
  A 0.66 0.66 0.0 0 0 426.27 195.66
  L 419.01 195.66
  A 3.63 3.62 32.8 0 0 417.52 195.98
  L 366.89 218.29
  A 2.00 2.00 0.0 0 1 364.66 217.87
  L 360.08 213.30
  A 0.80 0.79 -40.1 0 0 359.06 213.22
  L 353.99 216.87
  Q 353.95 216.90 353.91 216.93
  Q 352.27 218.61 351.36 220.55
  A 1.16 1.15 25.8 0 1 349.79 221.09
  L 346.99 219.67
  A 0.63 0.62 18.7 0 0 346.09 220.11
  L 345.36 224.35
  A 2.01 1.63 -48.5 0 0 345.34 224.82
  Q 345.48 226.49 345.81 226.70
  L 335.25 246.45
  A 1.50 1.50 0.0 0 1 334.60 247.10
  Q 332.50 248.19 330.94 246.08
  Q 332.82 244.89 331.29 243.99
  Q 331.98 243.48 331.68 242.74
  Q 330.74 240.45 330.44 239.31
  L 331.31 238.70
  Q 332.09 241.07 334.11 242.37
  A 0.76 0.75 30.0 0 0 335.19 242.08
  L 343.04 226.60
  A 0.61 0.60 -76.2 0 0 342.51 225.72
  C 340.75 225.70 336.74 228.20 335.38 228.84
  A 4.38 4.30 31.5 0 1 333.65 229.24
  Q 330.57 229.31 330.00 231.11
  Q 325.97 229.83 322.60 232.27
  Q 320.61 232.32 318.74 232.04
  Q 317.64 231.88 316.89 232.42
  A 0.43 0.43 0.0 0 0 316.88 233.10
  L 330.72 244.01
  Q 330.21 244.36 330.50 245.73
  L 311.62 230.71
  A 2.01 2.01 0.0 0 1 311.08 228.23
  Q 311.78 226.87 313.82 225.83
  Q 318.18 223.61 322.88 222.03
  Q 324.97 221.71 325.89 220.74
  Q 329.65 220.44 331.37 219.25
  Q 337.43 218.26 343.36 218.75
  A 1.57 1.57 0.0 0 0 345.05 217.10
  L 344.55 208.25
  L 348.22 208.91
  A 1.29 1.28 37.9 0 0 348.97 208.82
  Q 350.19 208.28 350.99 209.07
  L 350.55 213.42
  A 0.81 0.81 0.0 0 0 351.72 214.22
  Q 353.78 213.18 355.73 212.37
  C 357.21 211.75 357.36 210.86 356.85 209.44
  Q 357.89 207.73 359.36 207.07
  Q 372.75 201.10 389.21 193.54
  A 1.16 1.15 -49.2 0 1 389.99 193.48
  L 391.72 193.94
  A 0.93 0.91 26.5 0 0 392.67 193.63
  L 394.14 191.78
  A 2.59 2.58 6.1 0 1 395.05 191.05
  L 410.80 183.26
  A 1.31 1.29 -16.7 0 0 411.52 181.94
  C 410.97 177.15 409.08 172.11 407.61 167.89
  A 1.55 1.53 -11.2 0 0 406.06 166.86
  L 404.08 166.99
  A 1.63 1.63 0.0 0 1 402.39 165.77
  Q 401.56 162.62 400.62 160.80
  A 0.91 0.71 16.4 0 0 400.45 160.56
  L 393.12 152.94
  A 2.82 2.82 0.0 0 1 393.74 148.54
  L 402.45 143.51
  A 1.12 1.11 36.3 0 1 403.26 143.39
  L 410.01 145.05
  Z
  M 334.52 243.68
  Q 334.86 243.85 335.08 243.86
  A 0.49 0.48 -25.1 0 0 335.40 243.00
  Q 334.97 242.67 334.79 242.64
  A 0.56 0.53 61.1 0 0 334.52 243.68
  Z"
/>
<path fill="#545455" d="
  M 127.69 143.75
  L 127.97 144.91
  Q 128.57 146.46 127.34 147.46
  A 1.38 1.36 75.1 0 0 126.86 148.31
  Q 126.25 152.26 126.09 155.87
  Q 126.04 156.97 125.09 158.46
  A 1.01 0.95 65.7 0 0 124.93 158.93
  L 124.59 163.49
  A 0.69 0.62 -57.7 0 0 124.64 163.79
  L 125.18 165.00
  A 0.84 0.84 0.0 0 1 125.12 165.77
  Q 124.17 167.27 125.12 168.37
  A 1.22 1.20 26.1 0 1 125.40 169.17
  Q 125.33 171.06 123.86 171.48
  A 0.79 0.79 0.0 0 1 122.85 170.71
  L 122.99 158.96
  A 1.18 0.98 -39.8 0 1 123.06 158.58
  Q 125.20 152.70 124.55 146.41
  L 127.69 143.75
  Z"
/>
<path fill="#615939" d="
  M 413.52 147.02
  Q 424.23 149.09 435.07 151.22
  Q 435.15 151.24 440.96 152.16
  Q 445.40 152.86 449.88 154.57
  L 457.94 179.51
  A 3.02 3.00 -1.2 0 0 460.02 181.49
  C 462.92 182.27 466.31 183.04 469.04 183.35
  Q 491.25 185.89 497.35 186.65
  C 500.13 187.00 504.81 186.83 506.67 187.44
  A 0.25 0.25 0.0 0 1 506.65 187.93
  L 465.70 197.19
  A 0.28 0.27 87.4 0 0 465.48 197.44
  Q 465.30 198.85 465.34 198.98
  A 2.20 2.19 74.4 0 1 463.86 201.62
  Q 461.81 202.26 459.38 203.81
  Q 458.87 200.99 455.43 201.79
  L 461.83 199.86
  A 0.55 0.55 0.0 0 0 461.81 198.80
  Q 459.83 198.30 457.59 199.16
  A 1.31 1.27 -46.0 0 1 456.75 199.19
  Q 454.73 198.56 453.02 197.32
  A 2.44 2.41 -26.9 0 0 451.61 196.87
  L 448.95 196.87
  A 0.04 0.04 0.0 0 0 448.93 196.94
  Q 449.10 197.02 449.17 197.06
  A 0.40 0.39 37.9 0 1 449.25 197.67
  Q 449.11 197.82 449.09 197.85
  A 0.79 0.78 47.7 0 0 449.06 198.57
  Q 450.13 200.86 447.49 201.86
  Q 434.76 206.63 426.31 210.22
  Q 400.08 221.35 373.09 231.75
  Q 372.77 230.83 371.83 231.46
  Q 371.76 230.38 370.93 230.33
  Q 364.85 229.94 355.48 230.68
  Q 354.46 230.35 354.01 229.20
  A 0.54 0.54 0.0 0 1 354.32 228.50
  L 361.95 225.70
  Q 366.64 225.18 370.85 223.03
  Q 371.79 222.54 375.37 220.72
  C 378.75 218.99 381.98 218.16 385.40 216.50
  Q 387.65 215.41 390.74 214.18
  C 399.36 210.73 410.13 205.67 420.59 201.77
  Q 423.92 200.53 429.25 197.84
  A 2.64 2.27 -60.6 0 1 429.72 197.67
  L 431.42 197.24
  A 0.62 0.62 0.0 0 0 431.50 196.06
  Q 430.59 195.70 429.86 194.85
  Q 429.65 194.61 429.87 194.24
  A 0.29 0.29 0.0 0 0 429.65 193.79
  C 426.52 193.52 425.44 189.86 424.62 186.92
  Q 420.86 173.35 419.71 169.24
  C 418.68 165.58 417.51 163.21 416.33 160.07
  A 6.42 6.21 30.0 0 1 416.05 159.09
  Q 415.04 153.70 412.51 148.93
  A 0.82 0.81 -52.1 0 1 412.44 148.34
  Q 412.63 147.60 413.52 147.02
  Z"
/>
<path fill="#615939" d="
  M 262.21 181.30
  L 256.58 182.58
  A 0.06 0.06 0.0 0 0 256.55 182.68
  L 256.67 182.83
  A 0.10 0.10 0.0 0 1 256.62 182.99
  L 251.05 184.65
  A 2.09 2.05 -68.7 0 0 250.54 184.88
  L 240.71 190.88
  Q 237.09 191.71 232.89 191.29
  A 0.83 0.82 88.6 0 1 232.17 190.60
  L 228.10 165.31
  A 0.93 0.93 0.0 0 0 227.48 164.58
  L 226.33 164.16
  L 225.38 159.32
  A 3.01 3.00 66.8 0 1 226.58 156.30
  Q 230.25 153.67 234.74 150.73
  Q 237.05 149.22 240.01 149.74
  Q 243.27 150.31 248.49 150.81
  A 0.71 0.70 5.3 0 0 249.26 150.18
  L 249.34 149.25
  A 0.44 0.44 0.0 0 1 249.90 148.87
  Q 253.49 149.91 254.71 155.35
  Q 256.58 163.71 259.11 176.29
  Q 259.58 178.66 262.21 181.30
  Z
  M 247.1438 182.0687
  A 6.17 1.29 -31.8 0 0 241.2202 184.2236
  A 6.17 1.29 -31.8 0 0 236.6562 188.5713
  A 6.17 1.29 -31.8 0 0 242.5798 186.4164
  A 6.17 1.29 -31.8 0 0 247.1438 182.0687
  Z"
/>
<path fill="#e9e5e9" d="
  M 126.17 178.85
  Q 127.38 177.26 129.56 176.56
  A 1.37 1.34 -80.0 0 0 130.19 176.11
  Q 132.01 173.71 132.20 171.23
  Q 132.63 165.67 133.17 161.87
  A 2.06 2.04 -13.0 0 1 134.06 160.46
  L 136.15 159.04
  A 1.39 0.96 -8.0 0 0 136.39 158.82
  Q 139.04 155.76 142.65 153.86
  A 0.53 0.53 0.0 0 1 143.43 154.38
  L 142.15 167.90
  A 1.57 1.55 75.8 0 1 141.48 169.04
  L 132.71 175.08
  A 0.94 0.94 0.0 0 0 132.43 175.36
  Q 131.33 177.19 129.39 177.61
  A 1.09 1.02 -73.4 0 0 128.84 177.93
  L 126.59 180.46
  A 0.34 0.33 -31.2 0 1 126.01 180.32
  L 125.93 179.97
  A 1.32 1.31 57.3 0 1 126.17 178.85
  Z"
/>
<path fill="#979ad2" d="
  M 284.47 158.47
  L 278.22 162.19
  A 0.77 0.75 -44.4 0 1 277.43 162.19
  L 274.90 160.70
  A 0.95 0.81 83.2 0 1 274.64 160.46
  Q 272.61 157.68 275.47 156.19
  C 279.30 154.19 282.88 155.80 286.87 155.62
  A 0.61 0.60 20.4 0 1 287.34 156.64
  Q 286.26 157.78 284.55 158.43
  Q 284.51 158.45 284.47 158.47
  Z"
/>
<path fill="#e9e5e9" d="
  M 189.22 155.98
  L 195.79 158.60
  L 194.56 170.59
  A 1.25 1.24 79.0 0 1 193.92 171.55
  Q 191.06 173.12 188.90 175.53
  A 4.54 4.46 8.6 0 1 187.38 176.63
  L 182.32 178.86
  A 0.80 0.80 0.0 0 1 181.20 178.05
  L 182.47 164.62
  A 5.17 5.06 -26.0 0 1 183.31 162.26
  Q 184.65 160.27 188.10 158.42
  Q 188.27 158.33 188.61 157.85
  Q 188.96 157.37 188.54 157.08
  A 0.45 0.45 0.0 0 1 188.34 156.69
  Q 188.38 155.98 189.22 155.98
  Z"
/>
<path fill="#36353b" d="
  M 361.93 159.70
  Q 362.37 159.46 363.15 160.36
  Q 366.53 164.28 368.57 166.12
  A 1.11 1.10 44.5 0 1 368.59 167.75
  Q 368.16 168.15 366.98 168.81
  Q 365.80 169.46 365.23 169.61
  A 1.11 1.10 77.5 0 1 363.86 168.73
  Q 363.38 166.02 361.85 161.08
  Q 361.50 159.94 361.93 159.70
  Z"
/>
<path fill="#e9e5e9" d="
  M 207.48 160.10
  Q 208.17 161.42 207.76 162.58
  Q 207.80 163.76 206.52 163.40
  Q 205.57 163.13 204.93 162.04
  Q 205.48 159.61 207.48 160.10
  Z"
/>
<path fill="#545455" d="
  M 334.32 160.81
  Q 333.64 162.59 331.59 164.34
  A 1.04 1.04 0.0 0 1 330.74 164.58
  L 328.46 164.22
  L 321.77 162.58
  A 0.84 0.84 0.0 0 1 321.22 161.38
  L 321.49 160.84
  A 1.82 1.81 15.7 0 1 323.26 159.85
  L 334.32 160.81
  Z"
/>
<path fill="#36353b" d="
  M 343.00 164.53
  Q 343.22 163.64 343.07 163.39
  A 0.79 0.78 -31.7 0 0 341.98 163.14
  Q 339.60 164.66 337.26 163.92
  Q 335.61 163.39 334.87 163.90
  Q 333.78 164.65 334.20 166.04
  Q 334.70 167.67 336.44 168.05
  L 335.61 168.45
  A 1.27 1.26 -52.8 0 0 335.93 170.83
  Q 341.43 171.84 340.51 177.66
  A 0.98 0.98 0.0 0 1 339.51 178.48
  L 337.28 178.40
  Q 339.22 178.48 339.27 178.26
  A 2.32 2.32 0.0 0 0 337.58 175.43
  C 335.00 174.79 332.97 178.44 334.68 180.07
  Q 332.28 181.74 332.84 183.76
  Q 330.80 192.68 326.91 201.08
  Q 323.36 194.54 322.79 186.00
  A 0.92 0.91 16.7 0 0 322.43 185.34
  Q 320.64 183.98 318.75 183.97
  A 0.36 0.36 0.0 0 1 318.45 183.40
  L 319.86 181.36
  Q 323.36 183.83 327.76 183.70
  Q 331.99 183.58 331.78 179.24
  Q 332.36 179.71 332.84 179.78
  Q 333.44 179.86 333.60 179.15
  Q 334.81 173.82 333.20 168.95
  A 2.03 1.90 -79.5 0 0 332.69 168.15
  L 328.46 164.22
  L 330.74 164.58
  A 1.04 1.04 0.0 0 0 331.59 164.34
  Q 333.64 162.59 334.32 160.81
  Q 338.58 160.71 343.15 161.90
  Q 344.10 162.14 344.12 163.13
  Q 344.14 164.12 343.00 164.53
  Z"
/>
<path fill="#545455" d="
  M 343.00 164.53
  Q 340.18 166.72 336.44 168.05
  Q 334.70 167.67 334.20 166.04
  Q 333.78 164.65 334.87 163.90
  Q 335.61 163.39 337.26 163.92
  Q 339.60 164.66 341.98 163.14
  A 0.79 0.78 -31.7 0 1 343.07 163.39
  Q 343.22 163.64 343.00 164.53
  Z"
/>
<path fill="#e4b447" d="
  M 331.78 179.24
  Q 331.99 183.58 327.76 183.70
  Q 323.36 183.83 319.86 181.36
  Q 315.34 184.07 312.11 184.50
  Q 304.47 179.71 298.33 173.94
  A 1.06 1.05 -38.3 0 1 298.53 172.26
  L 312.68 164.09
  A 1.28 1.28 0.0 0 1 314.42 164.56
  L 319.23 172.89
  A 0.87 0.80 24.2 0 1 319.32 173.10
  L 320.70 178.33
  A 1.82 1.82 0.0 0 0 323.30 179.48
  C 325.52 178.47 329.93 175.11 331.78 179.24
  Z"
/>
<path fill="#e4b447" d="
  M 337.28 178.40
  Q 335.83 179.01 334.68 180.07
  C 332.97 178.44 335.00 174.79 337.58 175.43
  A 2.32 2.32 0.0 0 1 339.27 178.26
  Q 339.22 178.48 337.28 178.40
  Z"
/>
<ellipse fill="#545455" cx="0.00" cy="0.00" transform="translate(347.17,177.06) rotate(-139.3)" rx="1.52" ry="1.06"/>
<path fill="#e9e5e9" d="
  M 102.22 196.28
  L 104.18 184.08
  A 0.93 0.93 0.0 0 1 104.53 183.48
  L 111.48 178.15
  A 0.93 0.93 0.0 0 1 112.97 179.02
  L 111.34 190.98
  A 0.93 0.93 0.0 0 1 110.99 191.59
  L 103.70 197.17
  A 0.93 0.93 0.0 0 1 102.22 196.28
  Z
  M 108.27 186.26
  L 106.92 185.91
  A 0.26 0.26 0.0 0 0 106.60 186.10
  L 106.53 186.40
  A 3.45 0.83 -75.7 0 0 106.48 189.95
  L 106.73 190.01
  A 3.45 0.83 -75.7 0 0 108.39 186.87
  L 108.46 186.57
  A 0.26 0.26 0.0 0 0 108.27 186.26
  Z"
/>
<path fill="#36353b" d="
  M 280.64 186.79
  L 276.07 191.22
  Q 275.58 192.59 274.49 194.46
  Q 273.79 195.67 274.19 196.73
  Q 272.94 197.56 272.63 198.15
  Q 270.97 201.35 267.36 210.04
  A 0.59 0.58 23.4 0 1 266.57 210.35
  Q 265.36 209.78 263.87 208.55
  A 4.30 3.97 -9.5 0 0 263.06 208.02
  Q 254.05 203.41 246.91 199.13
  Q 245.48 198.28 243.27 196.33
  A 1.81 1.80 -71.9 0 1 242.66 195.12
  Q 242.42 192.12 240.71 190.88
  L 250.54 184.88
  A 2.09 2.05 -68.7 0 1 251.05 184.65
  L 256.62 182.99
  A 0.10 0.10 0.0 0 0 256.67 182.83
  L 256.55 182.68
  A 0.06 0.06 0.0 0 1 256.58 182.58
  L 262.21 181.30
  Q 263.58 180.80 264.18 181.10
  Q 268.48 179.75 272.54 179.90
  A 1.20 1.18 -52.5 0 0 272.97 179.84
  L 274.79 179.24
  A 1.08 1.06 50.9 0 1 275.69 179.34
  C 278.99 181.34 281.76 182.82 280.64 186.79
  Z
  M 271.22 196.46
  L 272.36 192.84
  A 0.24 0.24 0.0 0 0 272.20 192.53
  L 272.08 192.50
  A 2.00 1.81 -72.5 0 0 269.75 193.86
  L 269.67 194.13
  A 2.00 1.81 -72.5 0 0 270.79 196.58
  L 270.92 196.62
  A 0.24 0.24 0.0 0 0 271.22 196.46
  Z
  M 263.54 202.63
  L 266.23 202.02
  A 2.49 2.49 0.0 0 0 268.17 199.43
  L 267.89 195.10
  A 1.47 1.46 -12.3 0 0 265.91 193.83
  Q 258.08 196.81 248.63 195.86
  A 0.50 0.50 0.0 0 0 248.31 196.77
  L 263.79 206.93
  A 0.60 0.60 0.0 0 0 264.58 206.03
  Q 264.06 205.41 263.17 203.35
  A 0.53 0.52 -18.0 0 1 263.54 202.63
  Z"
/>
<path fill="#979ad2" d="
  M 345.93 188.25
  L 345.48 188.90
  A 0.67 0.67 0.0 0 1 344.26 188.61
  L 343.12 180.08
  Q 345.14 179.37 346.58 179.70
  A 1.20 1.17 -8.9 0 1 347.34 180.24
  C 349.16 183.23 347.16 185.74 345.93 188.25
  Z"
/>
<path fill="#545455" d="
  M 343.12 180.08
  L 344.26 188.61
  A 0.67 0.67 0.0 0 0 345.48 188.90
  L 345.93 188.25
  L 342.11 195.95
  L 338.65 182.55
  L 343.12 180.08
  Z"
/>
<ellipse fill="#545455" cx="0.00" cy="0.00" transform="translate(241.90,185.32) rotate(-31.8)" rx="6.17" ry="1.29"/>
<path fill="#e4b447" d="
  M 276.07 191.22
  L 280.64 186.79
  Q 285.87 182.95 293.12 181.38
  A 0.78 0.78 0.0 0 1 293.74 182.77
  Q 291.07 184.70 286.41 185.60
  A 3.80 3.32 27.1 0 0 285.81 185.75
  Q 283.56 186.50 280.44 190.17
  Q 278.13 192.89 276.07 191.22
  Z"
/>
<path fill="#545455" d="
  M 319.86 181.36
  L 318.45 183.40
  A 0.36 0.36 0.0 0 0 318.75 183.97
  Q 320.64 183.98 322.43 185.34
  A 0.92 0.91 16.7 0 1 322.79 186.00
  Q 323.36 194.54 326.91 201.08
  L 331.37 219.25
  Q 329.65 220.44 325.89 220.74
  L 320.21 197.63
  A 13.83 13.74 -69.5 0 0 318.14 193.04
  L 313.38 186.17
  A 0.13 0.11 76.7 0 0 313.30 186.11
  Q 312.98 186.02 312.65 186.34
  L 312.31 185.46
  Q 312.02 184.74 312.11 184.50
  Q 315.34 184.07 319.86 181.36
  Z"
/>
<path fill="#545455" d="
  M 297.10 187.71
  C 296.48 185.54 299.61 184.67 301.58 184.34
  A 0.82 0.79 11.1 0 0 302.12 183.99
  L 302.91 182.79
  A 0.95 0.95 0.0 0 1 304.53 182.84
  L 306.09 185.54
  A 0.67 0.67 0.0 0 1 305.83 186.46
  C 302.89 188.06 301.83 188.07 298.00 188.33
  A 0.87 0.87 0.0 0 1 297.10 187.71
  Z"
/>
<path fill="#e9e5e9" d="
  M 338.65 182.55
  L 342.11 195.95
  Q 341.77 197.62 341.04 197.75
  L 336.76 183.18
  Q 337.18 182.51 338.65 182.55
  Z"
/>
<ellipse fill="#545455" cx="0.00" cy="0.00" transform="translate(353.20,186.91) rotate(-23.1)" rx="6.21" ry="2.35"/>
<path fill="#545455" d="
  M 108.27 186.26
  A 0.26 0.26 0.0 0 1 108.46 186.57
  L 108.39 186.87
  A 3.45 0.83 -75.7 0 1 106.73 190.01
  L 106.48 189.95
  A 3.45 0.83 -75.7 0 1 106.53 186.40
  L 106.60 186.10
  A 0.26 0.26 0.0 0 1 106.92 185.91
  L 108.27 186.26
  Z"
/>
<path fill="#e9e5e9" d="
  M 325.89 220.74
  Q 324.97 221.71 322.88 222.03
  L 318.00 204.22
  Q 317.76 201.84 317.00 200.41
  L 312.65 186.34
  Q 312.98 186.02 313.30 186.11
  A 0.13 0.11 76.7 0 1 313.38 186.17
  L 318.14 193.04
  A 13.83 13.74 -69.5 0 1 320.21 197.63
  L 325.89 220.74
  Z"
/>
<path fill="#979ad2" d="
  M 310.25 187.74
  C 309.02 191.27 307.46 200.26 312.61 200.96
  Q 313.54 202.43 316.51 202.90
  Q 317.14 203.00 316.78 203.76
  C 314.54 203.83 312.14 203.17 310.01 204.23
  Q 309.38 204.12 309.60 203.27
  Q 309.88 202.15 310.32 201.22
  A 0.78 0.78 0.0 0 0 309.96 200.19
  L 308.11 199.25
  A 0.98 0.98 0.0 0 1 307.60 198.16
  L 308.25 195.35
  A 3.93 3.67 -43.0 0 0 308.33 194.19
  Q 307.97 190.08 310.25 187.74
  Z"
/>
<path fill="#36353b" d="
  M 225.41 191.67
  Q 223.75 191.86 224.32 188.96
  Q 224.43 191.46 225.41 191.67
  Z"
/>
<path fill="#545455" d="
  M 296.56 192.45
  A 0.52 0.52 0.0 0 1 295.98 192.91
  L 294.91 192.78
  A 2.92 1.29 6.8 0 1 292.16 191.15
  L 292.19 190.93
  A 2.92 1.29 6.8 0 1 295.24 190.00
  L 296.31 190.13
  A 0.52 0.52 0.0 0 1 296.77 190.70
  L 296.56 192.45
  Z"
/>
<path fill="#e9e5e9" d="
  M 139.33 191.22
  A 0.44 0.44 0.0 0 1 140.14 191.39
  Q 140.38 192.86 139.30 193.44
  A 0.85 0.84 -17.3 0 0 138.86 194.27
  L 139.11 196.39
  A 1.19 1.15 -44.2 0 1 139.10 196.73
  L 137.38 209.22
  A 1.00 0.99 -12.9 0 1 136.94 209.92
  L 127.64 215.91
  A 0.45 0.39 -7.3 0 0 127.48 216.09
  Q 126.97 217.27 125.46 217.36
  A 1.10 1.07 18.5 0 0 124.73 217.71
  L 121.99 220.79
  A 1.11 1.11 0.0 0 1 121.04 221.16
  Q 119.41 220.98 118.97 222.39
  A 0.33 0.32 34.6 0 1 118.40 222.49
  Q 117.23 220.98 117.75 219.23
  A 0.32 0.31 -65.4 0 1 118.22 219.05
  L 119.35 219.79
  A 0.83 0.82 -61.8 0 0 120.56 219.42
  Q 121.19 217.94 123.40 216.56
  A 1.17 1.14 -55.9 0 1 124.17 216.40
  Q 126.88 216.82 127.26 213.77
  Q 128.81 201.45 128.91 200.43
  A 0.82 0.81 -16.4 0 1 129.23 199.85
  L 137.67 193.70
  A 0.40 0.35 -6.9 0 0 137.78 193.58
  L 139.33 191.22
  Z"
/>
<path fill="#e9e5e9" d="
  M 207.53 193.13
  Q 208.09 195.05 206.37 196.11
  Q 161.37 223.70 116.35 251.10
  Q 113.91 250.72 114.26 249.27
  Q 114.55 248.12 115.56 247.49
  Q 160.05 220.14 204.18 193.25
  Q 206.07 192.10 207.53 193.13
  Z"
/>
<path fill="#545455" d="
  M 143.45 201.53
  C 144.75 197.77 148.12 199.64 149.49 196.31
  A 1.84 1.84 0.0 0 1 151.46 195.20
  L 151.71 195.24
  A 1.05 1.05 0.0 0 1 152.49 196.77
  Q 151.41 198.84 150.23 199.02
  Q 147.16 199.47 145.30 202.42
  A 1.03 1.03 0.0 0 1 143.45 201.53
  Z"
/>
<path fill="#545455" d="
  M 361.95 225.70
  L 354.32 228.50
  A 0.54 0.54 0.0 0 0 354.01 229.20
  Q 354.46 230.35 355.48 230.68
  Q 356.57 238.33 358.93 244.46
  A 1.28 1.27 75.9 0 0 360.27 245.27
  L 368.09 244.36
  A 0.15 0.15 0.0 0 1 368.23 244.59
  L 367.29 246.02
  A 0.70 0.69 -37.7 0 0 367.21 246.59
  Q 367.60 247.84 368.73 248.16
  A 0.69 0.68 -70.3 0 0 369.53 247.78
  L 370.63 245.44
  Q 370.66 245.58 370.70 245.70
  A 0.75 0.75 0.0 0 0 371.75 246.16
  L 376.71 243.71
  A 1.37 1.36 -2.9 0 0 377.39 242.96
  L 378.30 240.46
  Q 379.44 241.54 379.93 242.74
  L 382.73 246.14
  A 0.98 0.98 0.0 0 1 382.88 247.13
  Q 381.36 250.74 382.43 255.18
  A 0.57 0.57 0.0 0 1 381.62 255.82
  L 376.38 253.16
  A 1.33 1.32 -59.9 0 0 374.68 253.62
  L 372.05 257.61
  A 0.98 0.97 -43.5 0 1 370.39 257.57
  Q 367.93 253.33 362.68 253.95
  C 358.90 254.40 353.70 255.84 348.68 255.35
  A 1.15 1.14 36.2 0 1 348.34 253.16
  Q 351.31 251.89 352.95 250.96
  Q 354.00 250.36 353.40 248.88
  Q 355.55 247.54 354.63 244.28
  Q 353.31 239.59 352.20 234.86
  Q 351.39 231.41 348.86 231.50
  Q 348.30 228.40 345.81 226.70
  Q 345.48 226.49 345.34 224.82
  A 2.01 1.63 -48.5 0 1 345.36 224.35
  L 346.09 220.11
  A 0.63 0.62 18.7 0 1 346.99 219.67
  L 349.79 221.09
  A 1.16 1.15 25.8 0 0 351.36 220.55
  Q 352.27 218.61 353.91 216.93
  Q 353.95 216.90 353.99 216.87
  L 359.06 213.22
  A 0.80 0.79 -40.1 0 1 360.08 213.30
  L 364.66 217.87
  A 2.00 2.00 0.0 0 0 366.89 218.29
  L 417.52 195.98
  A 3.63 3.62 32.8 0 1 419.01 195.66
  L 426.27 195.66
  A 0.66 0.66 0.0 0 1 426.74 196.78
  Q 425.74 197.79 424.17 198.42
  Q 409.38 204.32 402.73 207.50
  Q 394.14 211.59 387.00 214.49
  C 379.59 217.50 374.30 220.26 367.15 223.00
  C 365.49 223.64 363.68 224.81 361.95 225.70
  Z
  M 372.2815 248.5793
  A 2.05 1.38 -156.4 0 0 373.6075 250.6646
  A 2.05 1.38 -156.4 0 0 376.0385 250.2207
  A 2.05 1.38 -156.4 0 0 374.7125 248.1354
  A 2.05 1.38 -156.4 0 0 372.2815 248.5793
  Z"
/>
<path fill="#36353b" d="
  M 455.43 201.79
  L 449.77 203.88
  A 1.36 1.34 -12.1 0 0 448.88 205.24
  L 449.47 214.23
  A 0.98 0.98 0.0 0 1 448.85 215.20
  L 385.60 239.88
  Q 383.08 240.29 381.26 241.35
  Q 379.76 241.70 379.93 242.74
  Q 379.44 241.54 378.30 240.46
  Q 374.64 236.45 373.09 231.75
  Q 400.08 221.35 426.31 210.22
  Q 434.76 206.63 447.49 201.86
  Q 450.13 200.86 449.06 198.57
  A 0.79 0.78 47.7 0 1 449.09 197.85
  Q 449.11 197.82 449.25 197.67
  A 0.40 0.39 37.9 0 0 449.17 197.06
  Q 449.10 197.02 448.93 196.94
  A 0.04 0.04 0.0 0 1 448.95 196.87
  L 451.61 196.87
  A 2.44 2.41 -26.9 0 1 453.02 197.32
  Q 454.73 198.56 456.75 199.19
  A 1.31 1.27 -46.0 0 0 457.59 199.16
  Q 459.83 198.30 461.81 198.80
  A 0.55 0.55 0.0 0 1 461.83 199.86
  L 455.43 201.79
  Z"
/>
<path fill="#545455" d="
  M 63.14 197.67
  Q 64.24 201.08 63.58 203.74
  Q 62.00 210.11 61.92 211.16
  A 6.11 5.85 -33.6 0 1 61.52 212.95
  Q 59.49 218.21 59.72 224.58
  A 3.92 3.58 -42.3 0 1 59.64 225.44
  L 55.11 247.54
  A 1.21 1.12 -42.9 0 0 55.08 247.94
  Q 55.31 251.31 54.43 254.11
  Q 54.19 254.86 53.69 260.12
  A 2.30 2.29 -27.3 0 1 53.40 261.02
  Q 53.07 261.60 53.05 261.75
  Q 52.34 266.41 50.85 274.18
  Q 50.77 274.62 50.40 275.17
  Q 50.18 275.49 50.18 275.90
  C 50.16 277.73 49.49 280.68 48.42 285.42
  Q 48.17 286.51 47.54 286.87
  A 0.37 0.36 81.3 0 1 47.00 286.47
  L 49.00 277.53
  Q 49.01 277.48 49.02 277.43
  Q 49.26 273.16 50.30 269.80
  A 2.64 2.47 56.1 0 0 50.43 268.99
  L 50.43 264.57
  A 1.96 1.71 -41.0 0 1 50.50 264.07
  Q 53.31 254.24 53.52 252.13
  Q 54.28 244.45 54.96 243.49
  A 0.94 0.92 65.5 0 0 55.13 243.02
  Q 55.43 239.26 56.71 232.41
  C 57.37 228.87 56.98 225.42 58.36 222.41
  A 3.49 3.34 -32.5 0 0 58.67 221.14
  Q 59.08 213.34 61.10 204.74
  C 61.34 203.72 62.02 202.52 61.91 201.90
  A 0.90 0.90 0.0 0 0 60.40 201.41
  Q 53.62 208.00 46.83 212.66
  Q 46.66 212.78 46.46 213.09
  Q 46.25 213.42 46.08 213.56
  Q 43.77 215.54 23.56 231.76
  Q 23.43 231.86 20.87 234.20
  Q 19.38 235.57 17.63 236.39
  Q 17.65 235.73 18.37 235.12
  Q 40.67 216.29 63.14 197.67
  Z"
/>
<ellipse fill="#545455" cx="0.00" cy="0.00" transform="translate(301.48,201.49) rotate(-12.8)" rx="1.95" ry="1.34"/>
<path fill="#36353b" d="
  M 318.00 204.22
  L 316.78 203.76
  Q 317.14 203.00 316.51 202.90
  Q 313.54 202.43 312.61 200.96
  Q 315.67 201.15 317.00 200.41
  Q 317.76 201.84 318.00 204.22
  Z"
/>
<path fill="#e4b447" d="
  M 459.38 203.81
  L 466.85 217.54
  A 0.46 0.46 0.0 0 1 466.52 218.22
  C 465.42 218.39 464.57 218.45 463.32 218.91
  Q 432.55 230.35 394.13 244.36
  Q 392.71 244.88 389.48 246.57
  Q 388.27 243.06 385.60 239.88
  L 448.85 215.20
  A 0.98 0.98 0.0 0 0 449.47 214.23
  L 448.88 205.24
  A 1.36 1.34 -12.1 0 1 449.77 203.88
  L 455.43 201.79
  Q 458.87 200.99 459.38 203.81
  Z"
/>
<path fill="#e9e5e9" d="
  M 65.46 224.48
  L 66.98 215.16
  A 5.56 5.54 74.8 0 1 68.91 211.77
  L 72.74 208.58
  A 0.89 0.89 0.0 0 1 74.19 209.41
  L 72.51 219.79
  A 2.51 2.49 78.4 0 1 71.40 221.49
  L 66.10 224.90
  A 0.42 0.42 0.0 0 1 65.46 224.48
  Z
  M 71.3547 214.4229
  A 1.63 1.19 -66.7 0 0 69.6170 215.4493
  A 1.63 1.19 -66.7 0 0 70.0653 217.4171
  A 1.63 1.19 -66.7 0 0 71.8030 216.3907
  A 1.63 1.19 -66.7 0 0 71.3547 214.4229
  Z"
/>
<path fill="#979ad2" d="
  M 356.85 209.44
  C 357.36 210.86 357.21 211.75 355.73 212.37
  Q 353.78 213.18 351.72 214.22
  A 0.81 0.81 0.0 0 1 350.55 213.42
  L 350.99 209.07
  Q 353.87 208.31 356.85 209.44
  Z"
/>
<path fill="#e9e5e9" d="
  M 296.98 213.16
  Q 297.14 213.21 297.30 213.26
  Q 298.63 213.47 299.42 216.26
  A 0.11 0.10 -8.8 0 0 299.54 216.34
  Q 303.26 215.88 305.47 217.52
  L 303.99 219.69
  A 0.97 0.95 18.1 0 1 303.14 220.11
  Q 300.58 219.97 299.67 221.69
  Q 294.68 231.18 289.66 240.85
  Q 288.13 241.40 286.63 241.03
  A 0.89 0.88 -1.1 0 1 285.98 240.41
  L 285.24 237.85
  Q 291.57 225.53 293.56 220.79
  Q 294.84 217.76 292.92 213.26
  Q 292.80 212.69 293.33 212.32
  A 0.77 0.75 35.4 0 1 293.99 212.22
  L 296.98 213.16
  Z"
/>
<path fill="#545455" d="
  M 297.30 213.26
  Q 297.14 213.21 296.98 213.16
  Q 297.23 213.13 297.41 213.03
  A 0.24 0.23 46.1 0 1 297.67 213.04
  Q 298.01 213.28 297.30 213.26
  Z"
/>
<ellipse fill="#979ad2" cx="0.00" cy="0.00" transform="translate(70.71,215.92) rotate(-66.7)" rx="1.63" ry="1.19"/>
<path fill="#e9e5e9" d="
  M 104.62 231.41
  L 98.30 235.48
  A 0.73 0.73 0.0 0 1 97.18 234.77
  L 98.90 221.87
  A 1.22 1.18 -16.1 0 1 99.36 221.07
  L 106.16 215.90
  A 0.92 0.91 -24.1 0 1 107.61 216.45
  Q 107.93 218.13 107.67 219.69
  Q 106.43 227.11 106.24 228.81
  A 3.58 3.56 -13.3 0 1 104.62 231.41
  Z
  M 102.9476 225.2292
  A 0.68 0.68 0.0 0 0 102.4099 224.4320
  L 102.3117 224.4129
  A 0.68 0.68 0.0 0 0 101.5144 224.9507
  L 100.8924 228.1508
  A 0.68 0.68 0.0 0 0 101.4301 228.9480
  L 101.5283 228.9671
  A 0.68 0.68 0.0 0 0 102.3256 228.4293
  L 102.9476 225.2292
  Z"
/>
<rect fill="#545455" x="-0.73" y="-2.31" transform="translate(101.92,226.69) rotate(11.0)" width="1.46" height="4.62" rx="0.68"/>
<path fill="#e9e5e9" d="
  M 49.90 237.35
  L 45.71 240.85
  A 0.88 0.88 0.0 0 1 44.28 240.00
  L 46.40 229.68
  A 0.88 0.88 0.0 0 1 46.70 229.18
  L 50.89 225.68
  A 0.88 0.88 0.0 0 1 52.32 226.53
  L 50.20 236.85
  A 0.88 0.88 0.0 0 1 49.90 237.35
  Z"
/>
<path fill="#545455" d="
  M 330.00 231.11
  L 331.31 238.70
  L 330.44 239.31
  L 328.66 232.60
  A 1.48 1.48 0.0 0 0 326.97 231.52
  L 322.60 232.27
  Q 325.97 229.83 330.00 231.11
  Z"
/>
<path fill="#e4b447" d="
  M 373.09 231.75
  Q 374.64 236.45 378.30 240.46
  L 377.39 242.96
  A 1.37 1.36 -2.9 0 1 376.71 243.71
  L 371.75 246.16
  A 0.75 0.75 0.0 0 1 370.70 245.70
  Q 370.66 245.58 370.63 245.44
  Q 371.88 244.34 371.84 242.50
  Q 371.73 236.99 371.83 231.46
  Q 372.77 230.83 373.09 231.75
  Z"
/>
<path fill="#e9e5e9" d="
  M 353.40 248.88
  L 348.86 231.50
  Q 351.39 231.41 352.20 234.86
  Q 353.31 239.59 354.63 244.28
  Q 355.55 247.54 353.40 248.88
  Z"
/>
<path fill="#545455" d="
  M 285.24 237.85
  L 285.98 240.41
  A 0.89 0.88 -1.1 0 0 286.63 241.03
  Q 288.13 241.40 289.66 240.85
  L 292.26 244.81
  A 2.16 2.16 0.0 0 0 293.83 245.77
  Q 295.62 245.97 296.77 247.62
  A 0.89 0.89 0.0 0 1 295.96 249.02
  Q 294.63 248.90 293.75 249.78
  A 1.44 1.43 68.0 0 0 293.33 250.77
  L 293.29 254.09
  A 1.08 0.94 -40.9 0 1 293.25 254.37
  Q 292.41 257.11 289.80 258.55
  A 1.97 1.97 0.0 0 0 289.16 261.44
  L 290.44 263.17
  A 2.94 2.77 -73.6 0 1 290.84 263.96
  Q 291.90 267.19 290.06 269.72
  C 287.64 273.06 282.76 271.00 283.79 277.02
  L 279.64 272.96
  A 1.72 1.70 -10.4 0 0 279.11 272.60
  Q 276.40 271.41 275.97 269.62
  Q 277.09 269.61 277.66 269.39
  A 0.65 0.64 -18.1 0 0 278.06 268.61
  Q 276.66 263.60 281.07 260.32
  A 0.69 0.69 0.0 0 0 281.22 259.35
  Q 279.24 256.69 279.03 253.65
  C 278.91 251.99 279.58 250.05 279.63 248.13
  Q 280.92 248.88 282.09 248.78
  A 0.91 0.90 4.6 0 0 282.88 248.11
  Q 283.43 246.04 285.94 245.19
  A 1.41 1.41 0.0 0 0 286.79 243.30
  L 286.66 242.98
  A 1.45 1.44 74.1 0 0 285.11 242.11
  L 282.22 242.55
  Q 284.09 240.72 285.24 237.85
  Z"
/>
<path fill="#615939" d="
  M 385.60 239.88
  Q 388.27 243.06 389.48 246.57
  C 387.66 247.87 385.78 248.21 384.90 245.59
  C 384.07 243.12 383.97 242.16 381.26 241.35
  Q 383.08 240.29 385.60 239.88
  Z"
/>
<path fill="#e9e5e9" d="
  M 279.63 248.13
  Q 277.76 244.22 282.22 242.55
  L 285.11 242.11
  A 1.45 1.44 74.1 0 1 286.66 242.98
  L 286.79 243.30
  A 1.41 1.41 0.0 0 1 285.94 245.19
  Q 283.43 246.04 282.88 248.11
  A 0.91 0.90 4.6 0 1 282.09 248.78
  Q 280.92 248.88 279.63 248.13
  Z"
/>
<path fill="#545455" d="
  M 334.52 243.68
  A 0.56 0.53 61.1 0 1 334.79 242.64
  Q 334.97 242.67 335.40 243.00
  A 0.49 0.48 -25.1 0 1 335.08 243.86
  Q 334.86 243.85 334.52 243.68
  Z"
/>
<path fill="#e9e5e9" d="
  M 67.22 252.74
  C 66.94 255.33 66.90 256.48 64.47 258.15
  Q 61.55 260.15 60.42 260.79
  A 0.53 0.53 0.0 0 1 59.63 260.37
  Q 59.60 259.87 59.76 258.99
  Q 60.63 254.34 60.95 251.44
  C 61.24 248.86 61.28 247.70 63.71 246.03
  Q 66.63 244.04 67.76 243.40
  A 0.53 0.53 0.0 0 1 68.55 243.82
  Q 68.58 244.32 68.42 245.19
  Q 67.55 249.85 67.22 252.74
  Z
  M 65.0276 250.0911
  A 2.04 0.71 -88.1 0 0 64.2504 252.1065
  A 2.04 0.71 -88.1 0 0 64.8924 254.1689
  A 2.04 0.71 -88.1 0 0 65.6696 252.1535
  A 2.04 0.71 -88.1 0 0 65.0276 250.0911
  Z"
/>
<path fill="#545455" d="
  M 330.72 244.01
  Q 330.88 243.88 331.29 243.99
  Q 332.82 244.89 330.94 246.08
  Q 330.64 245.63 330.50 245.73
  Q 330.21 244.36 330.72 244.01
  Z"
/>
<path fill="#e9e5e9" d="
  M 18.00 254.53
  C 18.77 251.19 19.63 249.27 23.04 248.07
  A 0.44 0.44 0.0 0 1 23.61 248.56
  Q 23.50 249.28 22.09 255.35
  C 21.32 258.70 20.46 260.62 17.05 261.82
  A 0.44 0.44 0.0 0 1 16.47 261.33
  Q 16.59 260.61 18.00 254.53
  Z"
/>
<ellipse fill="#e9e5e9" cx="0.00" cy="0.00" transform="translate(374.16,249.40) rotate(-156.4)" rx="2.05" ry="1.38"/>
<path fill="#e9e5e9" d="
  M 112.54 253.36
  L 50.34 291.25
  L 48.13 290.98
  A 0.62 0.62 0.0 0 0 47.49 291.37
  L 46.67 293.49
  L 0.99 320.86
  A 0.44 0.43 66.2 0 1 0.35 320.61
  Q -0.09 319.07 0.79 317.72
  Q 0.93 317.75 1.06 317.78
  Q 2.93 316.76 4.68 315.66
  Q 20.05 305.99 43.29 291.80
  Q 45.96 290.17 46.34 290.20
  A 0.90 0.89 -75.6 0 0 47.21 289.68
  Q 47.62 288.81 49.53 288.02
  Q 50.66 287.56 52.16 286.62
  Q 82.40 267.85 111.53 250.06
  A 0.44 0.44 0.0 0 1 112.12 250.17
  Q 113.01 251.36 112.54 253.36
  Z"
/>
<ellipse fill="#545455" cx="0.00" cy="0.00" transform="translate(64.96,252.13) rotate(-88.1)" rx="2.04" ry="0.71"/>
<path fill="#e9e5e9" d="
  M 39.54 266.50
  Q 40.00 263.28 40.54 262.68
  Q 42.75 260.20 45.37 259.26
  A 0.72 0.72 0.0 0 1 46.30 260.12
  Q 45.21 264.24 44.71 267.78
  Q 44.25 270.99 43.71 271.59
  Q 41.49 274.07 38.87 275.01
  A 0.72 0.72 0.0 0 1 37.94 274.15
  Q 39.03 270.04 39.54 266.50
  Z"
/>
<path fill="#e9e5e9" d="
  M 271.43 268.79
  L 277.57 274.14
  Q 275.76 276.48 274.36 278.61
  Q 273.20 280.39 271.12 280.63
  L 268.97 278.56
  L 267.84 276.44
  A 1.55 1.47 34.1 0 1 267.66 275.62
  Q 267.90 272.60 266.36 271.63
  C 265.67 269.13 270.03 268.48 271.43 268.79
  Z"
/>
<path fill="#36353b" d="
  M 275.97 269.62
  Q 276.40 271.41 279.11 272.60
  A 1.72 1.70 -10.4 0 1 279.64 272.96
  L 283.79 277.02
  Q 284.05 277.89 283.69 279.76
  Q 281.12 276.14 277.57 274.14
  L 271.43 268.79
  Q 274.30 268.83 275.97 269.62
  Z"
/>
<path fill="#545455" d="
  M 268.97 278.56
  Q 268.59 278.31 268.29 278.56
  A 0.41 0.41 0.0 0 0 268.15 278.89
  L 268.49 284.11
  A 0.46 0.46 0.0 0 0 269.28 284.39
  Q 270.03 283.59 271.07 282.06
  Q 271.63 281.24 271.12 280.63
  Q 273.20 280.39 274.36 278.61
  Q 275.76 276.48 277.57 274.14
  Q 281.12 276.14 283.69 279.76
  Q 286.32 284.09 282.80 288.25
  L 280.53 288.31
  Q 276.04 288.11 271.51 288.16
  C 269.53 288.18 268.06 287.38 267.62 285.22
  Q 266.81 281.17 266.84 280.75
  Q 267.13 276.25 266.36 271.63
  Q 267.90 272.60 267.66 275.62
  A 1.55 1.47 34.1 0 0 267.84 276.44
  L 268.97 278.56
  Z
  M 277.40 286.11
  Q 276.43 285.49 273.64 284.16
  A 1.64 1.62 52.9 0 0 272.68 284.02
  Q 270.74 284.34 270.07 285.32
  A 1.05 1.05 0.0 0 0 270.86 286.96
  Q 273.95 287.18 276.99 287.43
  Q 277.36 287.46 277.56 287.19
  A 0.76 0.72 -55.0 0 0 277.40 286.11
  Z"
/>
<path fill="#e9e5e9" d="
  M 15.70 287.15
  C 14.96 290.60 14.12 292.58 10.64 293.88
  A 0.45 0.45 0.0 0 1 10.04 293.39
  Q 10.15 292.65 11.48 286.38
  C 12.21 282.93 13.06 280.94 16.54 279.65
  A 0.45 0.45 0.0 0 1 17.14 280.13
  Q 17.03 280.88 15.70 287.15
  Z"
/>
<path fill="#36353b" d="
  M 282.80 288.25
  Q 282.02 288.67 280.53 288.31
  L 282.80 288.25
  Z"
/>
<path fill="#36353b" d="
  M 50.34 291.25
  L 46.67 293.49
  L 47.49 291.37
  A 0.62 0.62 0.0 0 1 48.13 290.98
  L 50.34 291.25
  Z"
/>
<path fill="#36353b" d="
  M 0.93 316.79
  L 1.06 317.78
  Q 0.93 317.75 0.79 317.72
  L 0.93 316.79
  Z"
/>
</svg>
