<?xml version="1.0" encoding="UTF-8" standalone="no"?>
<!-- Created with Inkscape (http://www.inkscape.org/) -->

<svg
   version="1.1"
   id="svg1"
   width="682.66669"
   height="433.33334"
   viewBox="0 0 682.66669 433.33334"
   xmlns="http://www.w3.org/2000/svg"
   xmlns:svg="http://www.w3.org/2000/svg"
   xmlns:rdf="http://www.w3.org/1999/02/22-rdf-syntax-ns#"
   xmlns:cc="http://creativecommons.org/ns#"
   xmlns:dc="http://purl.org/dc/elements/1.1/">
  <title
     id="title1">JPSS-1 Icon SVG</title>
  <defs
     id="defs1" />
  <g
     id="g1">
    <path
       style="fill:currentColor"
       d="M 0.51271306,418.58814 C 6.9723223,384.22878 13.410442,349.49681 21.483269,315.72941 56.627983,281.9972 96.46115,253.11087 132.9287,220.66667 c 39.49858,-31.97165 77.74335,-65.61372 117.3766,-97.36354 -10.92726,-18.17006 12.62678,-40.012133 11.04612,-59.303128 16.63309,14.247999 42.2972,-20.474844 41.53605,-37.333335 18.45032,13.378043 26.14405,-39.927042 51.64032,-21.6099781 22.79905,-7.4092072 42.23158,22.2710171 63.58333,30.9433121 27.24484,18.577611 55.16303,37.18869 83.13085,55.701973 7.85436,-5.236452 32.02648,1.331105 19.77863,11.758176 18.53985,22.58296 50.49707,15.93372 54.96862,48.56872 1.9602,21.83987 36.44459,11.20353 33.89141,38.22166 8.17388,15.67244 -16.22678,15.97491 -2.31646,32.40589 1.37987,31.38718 41.72324,17.20293 61.84787,25.34359 21.58242,4.76185 -23.64147,10.7901 -31.02,12.46217 -19.73906,1.2586 -28.2435,15.15255 -14.86767,30.85418 -35.72634,13.16402 -72.10777,27.44301 -108.3432,39.77141 -5.88538,14.48449 -20.49874,14.07797 -36.06751,9.67398 -16.41095,3.9998 -17.52212,-2.97819 -9.86749,-10.25797 -0.74473,-12.84604 -9.88946,-38.93104 -15.91282,-9.37088 -7.79778,22.67361 -39.44517,-8.91148 -39.63735,-17.85616 7.73945,-2.4536 21.61011,-16.08239 15.63735,-18.16562 -1.92062,3.73605 -11.74405,-28.5467 -19.00195,-2.35451 -7.11209,16.997 -28.81138,34.6941 -14.78141,51.24986 -7.93816,12.2018 -5.96691,26.1272 -15.82409,34.53762 11.0868,25.26597 -37.17194,21.97596 -25.05922,-3.6618 -0.32587,-14.91483 23.01975,0.47179 17.41465,-21.33429 -12.89044,-20.32414 39.46184,-52.71779 5.20857,-58.90092 -11.95291,-6.73059 -12.52145,-28.38312 -19.79166,-3.64499 -19.44188,1.8817 -34.39206,-34.14998 -54.23177,-19.32171 -9.47731,12.66766 -23.37908,0.18405 -11.2895,-9.74704 -0.98461,-9.07646 -8.83207,-47.87045 -12.15826,-19.72566 7.52687,31.0726 -21.56708,41.73612 -43.10006,54.58973 -44.0154,27.27314 -87.81873,53.33812 -131.47663,80.49426 -32.873773,19.62787 -65.123526,39.73343 -98.3510802,59.70834 -9.0677817,8.76627 -6.38009828,-4.79313 -6.37822674,-8.41187 z M 19.979584,377.58799 c -4.33416,-4.14092 -2.070219,11.98725 0,0 z m 343.014696,-8.58798 c -0.26742,-17.07095 -6.51396,7.99873 0,0 z M 56.485321,359.70658 c -5.554662,-0.009 -1.158594,7.66381 0,0 z m 2.181347,-7.70657 c -2.001648,-8.25947 -4.894045,9.15181 0,0 z M 26.64625,342.92132 c -1.351042,-5.43196 -3.919747,10.18973 0,0 z m 59.909308,-1.21069 c -7.149708,-2.29256 -5.644997,7.44274 0,0 z m -57.222224,-6.53467 c -2.983349,-5.74755 -2.821291,9.74167 0,0 z m 60.000002,-5.33146 c -3.453125,-6.00622 -9.334209,8.8956 0,0 z M 495.09646,318.89678 c 2.47283,-21.5222 -33.81351,-4.78582 -12.12346,5.51111 4.40627,-2.17477 15.22729,3.58321 12.12346,-5.51111 z m -56.32175,-0.0283 c -0.91264,-16.09867 -21.87612,-3.18576 -0.97211,2.20933 l 1.90575,0.9916 z m 16.52401,-15.18143 c -10.29082,-3.59596 -18.21031,13.42289 -8.57975,14.94205 3.16433,-4.80738 4.9716,-10.40753 8.57975,-14.94205 z m -389.1883,6.42447 c -2.320441,-14.80412 -6.926063,23.40921 0,0 z m 70.05966,-1.70083 c 0.16663,-10.08604 -10.57506,6.72336 0,0 z m 4.61837,-17.40005 c -11.10898,6.47515 3.8186,18.65393 0,0 z m -48.307433,3.95638 c -0.680455,-22.06681 -3.985964,-0.79606 0,0 z M 457.94013,284.22224 c -2.42193,-8.64277 -23.04237,-3.16689 -7.27345,-14.77721 7.92545,-17.33955 -7.67282,-36.02177 -10.66667,-8.12978 -8.81382,14.13541 11.23244,42.99192 17.94012,22.90699 z m -61.94012,3.99999 c -3.00275,-9.20434 -5.93411,5.75759 0,0 z m -214.548,-15.82589 c 7.09323,-32.78557 -22.42781,26.32983 -1.4347,5.69845 z m -4.11867,3.01569 c 3.15916,-7.31553 3.23749,5.53484 0,0 z m 250.78927,0.47373 c -4.4645,-11.11255 2.44247,15.88626 0,0 z m -184.79871,2.79619 c -1.09146,-3.07698 -5.6331,4.85982 0,0 z m 16.13964,-10.32952 c -6.57237,-0.30002 -5.80362,7.14297 0,0 z m 94.41978,-0.87175 c 6.64545,-12.36563 -33.47979,-2.68993 -6.47196,3.14557 l 2.41823,-0.10467 z m 70.89968,-4.21445 c -6.52234,-11.83941 5.30473,17.1624 0,0 z m -2.11632,2.06711 c -1.30232,-10.23591 -12.85523,-18.45972 -7.73333,-0.26667 1.94559,1.45012 6.04488,2.7467 7.73333,0.26667 z m -150.66667,-4 c 8.48919,-9.74437 -14.06004,9.7913 0,0 z M 146.66667,249.16128 c 4.89075,-15.42226 -6.9384,-2.45034 -3,5.07295 -12.32282,5.69905 5.00124,5.0928 3,-5.07295 z m 160.80298,2.50539 c 2.00639,-9.5009 -12.30909,-47.44331 -9.20436,-21.21791 0.88327,3.8779 2.25725,33.85861 9.20436,21.21791 z m 131.91852,-10.42204 c -0.56455,-7.29352 -13.56657,4.28673 -1.57675,1.00431 z M 253.31951,230.32376 c 17.02669,-24.18449 -16.43121,-20.56411 -7.6029,2.90451 1.5255,3.49823 5.98027,-2.81368 7.6029,-2.90451 z m -3.94376,-1.82716 c 4.79557,-12.61128 5.95428,-0.0548 0,0 z m -62.39616,-5.13246 c 8.58548,-27.73337 -13.2024,-2.01613 -7.34374,5.41987 2.55621,-1.6543 5.221,-3.15591 7.34374,-5.41987 z m -4.31292,-1.22148 c 4.42344,-4.68705 5.93831,2.51109 0,0 z m 55.01363,-82.86328 c 13.52651,-13.98053 -17.17913,12.41848 0,0 z"
       id="path1" />
  </g>
  <metadata
     id="metadata1">
    <rdf:RDF>
      <cc:Work
         rdf:about="">
        <dc:title>JPSS-1 Icon SVG</dc:title>
        <dc:source>https://science.nasa.gov/wp-content/uploads/2023/10/JPSS-sm.png?w=300</dc:source>
      </cc:Work>
    </rdf:RDF>
  </metadata>
</svg>
