<?xml version="1.0" encoding="UTF-8" standalone="no"?>
<svg xmlns="http://www.w3.org/2000/svg" version="1.2" baseProfile="tiny" viewBox="0.00 0.00 512.00 576.00" width="512.00" height="576.00">
<path fill="#030c13" d="
  M 156.72 1.87
  Q 156.29 2.05 155.65 1.88
  Q 156.44 1.71 156.72 1.87
  Z"
/>
<path fill="#acadad" d="
  M 155.65 1.88
  Q 156.29 2.05 156.72 1.87
  Q 158.31 2.76 158.32 3.75
  Q 158.36 9.90 158.26 16.03
  L 158.17 19.73
  L 158.38 23.03
  L 158.34 32.40
  Q 158.17 33.21 158.30 34.04
  L 158.21 35.48
  L 158.07 44.65
  L 157.09 56.10
  A 1.24 1.24 0.0 0 0 158.23 57.45
  L 173.97 58.73
  Q 175.42 59.01 175.66 59.25
  A 0.72 0.72 0.0 0 1 175.19 60.48
  Q 167.74 60.94 162.93 63.38
  A 0.29 0.29 0.0 0 0 163.03 63.92
  Q 164.87 64.17 166.29 63.45
  Q 168.62 62.28 170.98 61.89
  C 174.65 61.30 177.65 60.52 181.46 60.56
  Q 195.74 60.72 197.34 60.93
  Q 204.30 61.88 210.00 62.25
  C 212.98 62.45 216.50 63.46 219.95 63.16
  A 2.31 2.30 52.9 0 1 220.94 63.30
  Q 223.20 64.14 225.70 63.59
  L 236.01 64.65
  L 237.97 64.64
  L 271.21 67.81
  A 1.66 1.65 -25.7 0 1 271.93 68.06
  Q 306.13 90.08 326.39 103.10
  Q 326.57 103.22 327.64 103.41
  Q 324.65 104.98 321.30 105.03
  Q 317.17 105.08 316.73 105.13
  Q 297.80 106.95 281.20 111.25
  Q 259.29 116.92 241.36 124.72
  Q 231.26 129.11 230.08 129.63
  Q 226.67 131.11 211.17 139.16
  A 0.76 0.76 0.0 0 1 210.33 139.08
  Q 143.25 84.43 104.97 53.70
  Q 104.51 53.33 104.20 53.99
  Q 103.98 53.50 104.01 53.06
  A 0.76 0.75 -85.6 0 1 104.83 52.35
  L 128.04 54.44
  A 1.22 1.21 15.0 0 0 129.24 53.75
  L 145.74 19.27
  L 145.86 19.92
  A 0.16 0.16 0.0 0 0 146.17 19.96
  L 149.57 11.78
  Q 151.78 6.15 155.65 1.88
  Z
  M 168.62 95.54
  L 166.52 87.97
  A 0.46 0.44 16.8 0 0 166.40 87.76
  Q 161.80 83.39 158.67 79.41
  Q 157.18 77.51 156.48 75.31
  Q 156.05 73.97 156.52 72.25
  Q 157.30 69.43 157.44 68.73
  A 0.30 0.29 -26.7 0 0 156.88 68.55
  Q 153.71 75.05 155.10 80.90
  A 4.76 4.56 25.4 0 0 155.53 82.03
  Q 160.30 90.65 168.19 95.85
  A 0.28 0.28 0.0 0 0 168.62 95.54
  Z"
/>
<path fill="#030c13" d="
  M 149.57 11.78
  L 146.17 19.96
  A 0.16 0.16 0.0 0 1 145.86 19.92
  L 145.74 19.27
  L 146.24 18.22
  Q 146.87 18.18 146.73 17.26
  L 149.57 11.78
  Z"
/>
<path fill="#030c13" d="
  M 158.26 16.03
  Q 158.58 18.03 158.17 19.73
  L 158.26 16.03
  Z"
/>
<path fill="#acadad" d="
  M 146.73 17.26
  Q 146.87 18.18 146.24 18.22
  Q 146.36 17.62 146.73 17.26
  Z"
/>
<path fill="#030c13" d="
  M 158.34 32.40
  L 158.38 23.03
  L 158.34 32.40
  Z"
/>
<path fill="#030c13" d="
  M 158.21 35.48
  L 158.30 34.04
  Q 158.53 34.86 158.21 35.48
  Z"
/>
<path fill="#030c13" d="
  M 158.07 44.65
  L 157.85 55.81
  A 1.23 1.22 -86.1 0 0 158.93 57.05
  L 173.97 58.73
  L 158.23 57.45
  A 1.24 1.24 0.0 0 1 157.09 56.10
  L 158.07 44.65
  Z"
/>
<path fill="#f9aa2f" d="
  M 327.64 103.41
  L 354.15 104.26
  Q 360.98 106.32 368.18 107.12
  Q 370.41 107.36 375.12 109.48
  C 379.66 111.52 384.25 112.83 388.81 114.72
  L 393.66 116.90
  Q 399.34 120.32 404.49 123.82
  Q 408.01 126.21 411.83 128.69
  Q 415.14 130.84 424.14 140.15
  A 2.38 2.34 -78.2 0 1 424.68 140.99
  Q 425.67 143.62 425.86 143.66
  Q 426.72 143.83 427.25 146.73
  Q 427.60 148.63 426.57 149.19
  Q 425.79 149.62 423.90 149.15
  C 421.31 148.50 418.48 147.96 416.30 148.04
  Q 415.41 148.07 402.39 148.00
  Q 398.07 147.98 392.16 148.96
  Q 387.07 149.82 381.97 150.55
  L 367.63 153.30
  A 2.60 2.42 -62.3 0 0 366.92 153.55
  Q 364.32 154.87 361.13 154.89
  A 2.13 2.04 34.9 0 0 360.49 154.99
  Q 342.31 160.30 322.77 168.80
  Q 322.39 168.96 309.52 174.85
  Q 306.74 176.12 304.56 177.41
  Q 301.19 179.41 299.69 180.15
  Q 290.98 184.46 282.67 189.66
  L 255.97 207.12
  A 2.02 1.98 -65.0 0 1 255.12 207.44
  Q 252.25 207.83 244.75 208.66
  Q 238.07 209.40 228.84 211.37
  L 221.40 211.68
  A 3.13 2.92 35.7 0 0 220.85 211.75
  Q 207.38 214.81 196.40 223.84
  L 193.65 200.87
  A 0.59 0.57 63.3 0 1 193.78 200.45
  L 196.58 197.07
  A 0.14 0.13 -38.3 0 0 196.60 196.92
  Q 196.52 196.80 196.43 196.72
  A 0.06 0.06 0.0 0 1 196.46 196.61
  Q 197.86 196.47 198.46 195.10
  Q 199.34 195.59 199.18 193.78
  Q 200.25 193.33 200.39 192.13
  A 0.66 0.64 22.0 0 0 200.12 191.52
  L 182.48 178.49
  A 0.64 0.63 31.8 0 0 181.54 178.71
  Q 176.93 187.59 170.35 195.61
  A 2.44 2.41 74.8 0 0 169.95 196.32
  Q 168.45 200.63 172.54 201.81
  A 0.70 0.69 -84.6 0 1 173.04 202.42
  L 176.60 251.16
  A 5.53 5.50 -40.4 0 1 176.46 252.84
  Q 175.69 256.10 175.86 259.11
  L 172.14 265.72
  Q 170.51 268.63 170.23 272.08
  A 1.29 1.25 -24.8 0 1 169.97 272.75
  Q 164.17 280.01 149.29 298.74
  Q 149.04 299.05 148.28 299.16
  A 1.89 1.84 15.3 0 0 147.09 299.82
  L 141.16 306.95
  A 2.02 2.02 0.0 0 0 141.19 309.55
  L 142.77 311.40
  A 0.87 0.87 0.0 0 1 142.07 312.84
  L 87.64 310.47
  A 0.58 0.46 52.0 0 1 87.40 310.41
  L 84.55 309.09
  A 1.76 1.76 0.0 0 1 83.73 306.67
  Q 102.97 269.96 130.10 238.19
  C 131.83 236.16 133.66 233.50 135.51 231.27
  A 0.63 0.62 39.0 0 0 135.41 230.38
  Q 130.29 226.39 129.65 225.94
  C 125.15 222.80 122.95 219.79 117.80 214.38
  A 0.48 0.47 -46.4 0 1 117.79 213.74
  Q 137.69 190.94 161.46 172.21
  L 167.78 167.07
  Q 168.58 166.61 168.72 165.89
  A 0.61 0.61 0.0 0 0 168.32 165.20
  L 166.84 164.71
  Q 166.84 163.13 165.05 163.93
  Q 164.53 163.61 163.96 163.36
  Q 148.97 156.74 133.02 153.35
  Q 132.77 151.30 132.57 152.37
  Q 132.44 151.13 131.98 150.72
  Q 132.03 150.23 131.81 149.79
  L 126.98 133.26
  Q 127.09 132.86 126.73 132.47
  L 125.24 127.52
  Q 126.10 127.76 127.20 127.46
  A 0.91 0.90 58.5 0 1 128.05 127.67
  Q 146.00 143.88 163.89 160.29
  C 165.56 161.82 166.46 162.31 168.18 163.66
  A 3.12 3.12 0.0 0 0 171.82 163.82
  L 180.60 158.10
  A 0.94 0.94 0.0 0 0 180.71 156.61
  Q 171.27 148.30 165.07 143.14
  Q 164.16 142.38 162.76 140.98
  Q 161.66 139.89 160.28 138.85
  Q 158.50 137.53 156.72 135.74
  Q 154.79 133.80 145.19 125.64
  Q 144.70 125.22 144.70 125.21
  A 1.15 1.14 -79.3 0 0 144.37 124.72
  L 127.18 109.82
  A 1.44 1.43 -69.9 0 1 126.69 108.76
  Q 126.64 103.73 121.73 101.17
  A 1.94 1.14 3.9 0 1 121.51 101.02
  L 116.04 96.09
  L 114.73 90.76
  L 110.86 77.21
  Q 111.02 76.27 110.24 75.74
  L 109.77 73.52
  Q 109.89 73.02 109.48 72.73
  L 106.24 61.47
  Q 106.56 60.87 106.00 60.48
  L 104.20 53.99
  Q 104.51 53.33 104.97 53.70
  Q 143.25 84.43 210.33 139.08
  A 0.76 0.76 0.0 0 0 211.17 139.16
  Q 226.67 131.11 230.08 129.63
  Q 231.26 129.11 241.36 124.72
  Q 259.29 116.92 281.20 111.25
  Q 297.80 106.95 316.73 105.13
  Q 317.17 105.08 321.30 105.03
  Q 324.65 104.98 327.64 103.41
  Z
  M 135.30 98.64
  L 131.63 83.46
  A 1.14 1.14 0.0 0 0 129.39 83.64
  Q 129.11 87.13 130.33 91.66
  C 130.62 92.73 129.97 94.02 130.28 95.06
  A 0.75 0.75 0.0 0 0 131.74 94.91
  L 131.86 93.58
  A 0.17 0.17 0.0 0 1 132.18 93.54
  L 134.15 98.99
  A 0.60 0.60 0.0 0 0 135.30 98.64
  Z
  M 249.86 149.30
  A 0.20 0.20 0.0 0 0 249.73 149.56
  L 255.54 166.32
  A 1.14 0.92 39.0 0 1 255.60 166.60
  Q 255.79 170.01 257.11 174.30
  A 0.41 0.41 0.0 0 0 257.92 174.18
  L 257.92 165.76
  A 2.43 2.29 -57.3 0 0 257.76 164.90
  Q 256.21 161.07 254.63 156.12
  Q 254.24 154.93 250.90 149.39
  A 0.55 0.54 -24.4 0 0 250.27 149.16
  L 249.86 149.30
  Z
  M 144.53 211.52
  L 145.37 212.48
  A 0.42 0.42 0.0 0 0 145.97 212.52
  L 146.09 212.41
  A 25.29 1.05 -41.0 0 0 164.49 195.03
  L 164.48 195.01
  A 25.29 1.05 -41.0 0 0 144.70 210.81
  L 144.58 210.92
  A 0.42 0.42 0.0 0 0 144.53 211.52
  Z
  M 170.05 244.30
  L 166.69 239.70
  A 3.71 3.59 -89.1 0 0 166.07 239.04
  L 145.45 221.91
  A 0.98 0.93 4.9 0 1 145.22 221.65
  L 142.48 217.26
  A 0.29 0.29 0.0 0 0 141.94 217.46
  Q 142.50 221.16 145.35 223.64
  Q 160.41 236.71 169.53 244.77
  A 0.35 0.35 0.0 0 0 170.05 244.30
  Z
  M 151.11 259.02
  L 139.99 252.38
  A 0.64 0.58 86.1 0 1 139.79 252.19
  L 135.92 246.24
  A 0.60 0.58 73.7 0 0 135.45 245.97
  L 134.83 245.94
  A 0.43 0.43 0.0 0 0 134.48 246.65
  Q 137.12 249.80 138.28 253.99
  A 3.33 3.31 -83.7 0 0 139.91 256.03
  Q 144.50 258.50 149.26 260.36
  Q 150.05 260.67 151.16 259.77
  A 0.46 0.46 0.0 0 0 151.11 259.02
  Z
  M 109.31 295.84
  L 130.03 295.84
  A 0.46 0.45 -36.2 0 0 130.17 294.95
  L 120.50 291.94
  A 0.52 0.52 0.0 0 1 120.70 290.93
  L 129.19 291.69
  A 0.49 0.49 0.0 0 0 129.46 290.76
  L 115.44 283.66
  A 0.68 0.68 0.0 0 0 114.62 283.82
  Q 110.33 288.64 108.74 295.12
  A 0.59 0.58 6.9 0 0 109.31 295.84
  Z"
/>
<path fill="#030c13" d="
  M 225.70 63.59
  Q 223.20 64.14 220.94 63.30
  A 2.31 2.30 52.9 0 0 219.95 63.16
  C 216.50 63.46 212.98 62.45 210.00 62.25
  Q 204.30 61.88 197.34 60.93
  Q 195.74 60.72 181.46 60.56
  C 177.65 60.52 174.65 61.30 170.98 61.89
  Q 168.62 62.28 166.29 63.45
  Q 164.87 64.17 163.03 63.92
  A 0.29 0.29 0.0 0 1 162.93 63.38
  Q 167.74 60.94 175.19 60.48
  A 0.72 0.72 0.0 0 0 175.66 59.25
  Q 175.42 59.01 173.97 58.73
  Q 180.33 59.55 186.70 59.39
  A 1.36 0.52 24.2 0 1 186.87 59.40
  L 225.70 63.59
  Z"
/>
<path fill="#030c13" d="
  M 106.24 61.47
  Q 106.00 61.06 106.00 60.48
  Q 106.56 60.87 106.24 61.47
  Z"
/>
<path fill="#030c13" d="
  M 237.97 64.64
  L 236.01 64.65
  L 237.97 64.64
  Z"
/>
<path fill="#030c13" d="
  M 81.32 68.11
  Q 80.31 68.31 79.46 68.16
  L 81.32 68.11
  Z"
/>
<path fill="#acadad" d="
  M 79.46 68.16
  Q 80.31 68.31 81.32 68.11
  Q 84.49 68.64 87.64 71.35
  Q 91.96 75.06 96.19 78.67
  Q 96.57 79.80 97.38 80.68
  A 0.90 0.89 62.3 0 0 98.23 80.95
  Q 101.58 80.21 98.91 80.17
  Q 99.69 80.07 100.02 79.75
  Q 102.13 77.79 104.66 77.13
  L 110.86 77.21
  L 114.73 90.76
  L 104.91 90.13
  A 0.13 0.13 0.0 0 0 104.82 90.36
  L 110.50 95.07
  A 0.39 0.37 61.8 0 0 110.77 95.16
  Q 113.66 94.94 116.04 96.09
  L 121.51 101.02
  A 1.94 1.14 3.9 0 0 121.73 101.17
  Q 126.64 103.73 126.69 108.76
  A 1.44 1.43 -69.9 0 0 127.18 109.82
  L 144.37 124.72
  A 1.15 1.14 -79.3 0 1 144.70 125.21
  Q 144.70 125.22 145.19 125.64
  Q 154.79 133.80 156.72 135.74
  Q 158.50 137.53 160.28 138.85
  Q 161.66 139.89 162.76 140.98
  Q 164.16 142.38 165.07 143.14
  Q 171.27 148.30 180.71 156.61
  A 0.94 0.94 0.0 0 1 180.60 158.10
  L 171.82 163.82
  A 3.12 3.12 0.0 0 1 168.18 163.66
  C 166.46 162.31 165.56 161.82 163.89 160.29
  Q 146.00 143.88 128.05 127.67
  A 0.91 0.90 58.5 0 0 127.20 127.46
  Q 126.10 127.76 125.24 127.52
  L 111.91 126.69
  A 2.68 2.63 -21.4 0 1 110.27 125.99
  L 89.71 106.80
  Q 88.98 105.96 88.32 106.70
  Q 87.58 107.53 87.63 108.64
  Q 88.02 117.97 88.19 126.71
  L 88.36 129.54
  L 88.38 133.21
  L 88.63 149.50
  L 88.61 150.21
  L 88.61 150.71
  L 88.61 152.46
  L 88.62 153.29
  Q 88.57 153.66 88.71 153.96
  Q 88.94 154.30 89.25 154.14
  Q 91.17 153.21 92.25 152.91
  Q 93.12 152.93 93.79 152.50
  L 96.54 152.17
  L 97.46 152.07
  L 123.00 151.55
  L 133.02 153.35
  Q 148.97 156.74 163.96 163.36
  Q 164.53 163.61 165.05 163.93
  Q 164.58 164.69 164.21 164.97
  Q 156.07 171.10 146.58 179.84
  Q 127.68 197.24 115.81 211.23
  A 0.60 0.60 0.0 0 0 115.81 212.01
  L 116.05 212.28
  A 0.51 0.51 0.0 0 0 116.83 212.28
  Q 118.90 209.83 121.10 207.34
  Q 135.35 191.23 157.89 171.65
  Q 162.18 167.93 166.84 164.71
  L 168.32 165.20
  A 0.61 0.61 0.0 0 1 168.72 165.89
  Q 168.58 166.61 167.78 167.07
  Q 164.13 167.50 161.46 172.21
  Q 137.69 190.94 117.79 213.74
  A 0.48 0.47 -46.4 0 0 117.80 214.38
  C 122.95 219.79 125.15 222.80 129.65 225.94
  Q 130.29 226.39 135.41 230.38
  A 0.63 0.62 39.0 0 1 135.51 231.27
  C 133.66 233.50 131.83 236.16 130.10 238.19
  Q 102.97 269.96 83.73 306.67
  A 1.76 1.76 0.0 0 0 84.55 309.09
  L 87.40 310.41
  A 0.58 0.46 52.0 0 0 87.64 310.47
  L 142.07 312.84
  A 0.87 0.87 0.0 0 0 142.77 311.40
  L 141.19 309.55
  A 2.02 2.02 0.0 0 1 141.16 306.95
  L 147.09 299.82
  A 1.89 1.84 15.3 0 1 148.28 299.16
  Q 149.04 299.05 149.29 298.74
  Q 164.17 280.01 169.97 272.75
  A 1.29 1.25 -24.8 0 0 170.23 272.08
  Q 170.51 268.63 172.14 265.72
  Q 173.25 264.92 173.84 263.74
  A 1.22 1.20 3.7 0 1 174.52 263.15
  Q 176.84 262.35 175.86 259.11
  Q 175.69 256.10 176.46 252.84
  A 5.53 5.50 -40.4 0 0 176.60 251.16
  L 173.04 202.42
  A 0.70 0.69 -84.6 0 0 172.54 201.81
  Q 168.45 200.63 169.95 196.32
  A 2.44 2.41 74.8 0 1 170.35 195.61
  Q 176.93 187.59 181.54 178.71
  A 0.64 0.63 31.8 0 1 182.48 178.49
  L 200.12 191.52
  A 0.66 0.64 22.0 0 1 200.39 192.13
  Q 200.25 193.33 199.18 193.78
  Q 198.29 191.68 197.53 191.39
  A 0.88 0.87 16.5 0 0 196.36 192.02
  Q 196.22 192.65 195.77 193.31
  A 0.26 0.26 0.0 0 0 196.11 193.68
  Q 198.04 192.58 198.45 193.99
  Q 198.63 194.61 198.46 195.10
  Q 197.86 196.47 196.46 196.61
  A 0.06 0.06 0.0 0 0 196.43 196.72
  Q 196.52 196.80 196.60 196.92
  A 0.14 0.13 -38.3 0 1 196.58 197.07
  L 193.78 200.45
  A 0.59 0.57 63.3 0 0 193.65 200.87
  L 196.40 223.84
  Q 195.96 224.84 196.44 225.92
  A 0.50 0.49 57.8 0 0 197.22 226.10
  L 198.54 224.97
  A 0.87 0.87 0.0 0 1 199.73 225.03
  Q 207.59 233.20 209.47 244.62
  L 200.31 253.86
  A 3.72 3.67 -7.7 0 0 199.67 254.69
  L 190.45 271.08
  A 0.80 0.79 84.5 0 1 190.23 271.35
  Q 189.31 272.13 188.83 271.18
  A 0.37 0.37 0.0 0 0 188.22 271.12
  L 184.75 275.29
  A 0.47 0.47 0.0 0 1 184.08 275.35
  Q 181.55 273.19 182.28 270.24
  A 1.33 1.33 0.0 0 0 181.65 268.77
  L 181.36 268.60
  A 0.80 0.79 -71.0 0 0 180.18 269.18
  Q 179.84 271.44 181.13 273.34
  Q 185.11 279.18 190.34 282.06
  A 0.44 0.44 0.0 0 0 190.99 281.69
  Q 191.14 278.63 190.11 276.14
  A 0.85 0.84 -9.3 0 0 189.37 275.61
  Q 189.28 275.61 188.98 275.76
  Q 188.41 276.05 188.09 275.52
  Q 188.04 275.44 188.07 274.55
  A 0.50 0.50 0.0 0 1 188.66 274.07
  Q 189.66 274.25 190.18 273.81
  A 0.48 0.48 0.0 0 1 190.92 273.96
  Q 191.43 274.93 191.96 274.89
  A 0.66 0.64 -5.3 0 1 192.64 275.44
  Q 192.74 276.05 193.07 276.33
  A 0.48 0.48 0.0 0 0 193.80 276.19
  L 203.45 258.78
  A 1.35 1.23 -11.2 0 1 203.68 258.47
  Q 208.75 253.24 210.53 251.53
  Q 244.49 218.96 286.70 193.43
  A 0.71 0.71 0.0 0 0 286.71 192.22
  L 282.67 189.66
  Q 290.98 184.46 299.69 180.15
  Q 301.19 179.41 304.56 177.41
  Q 306.74 176.12 309.52 174.85
  Q 322.39 168.96 322.77 168.80
  Q 342.31 160.30 360.49 154.99
  A 2.13 2.04 34.9 0 1 361.13 154.89
  Q 364.32 154.87 366.92 153.55
  A 2.60 2.42 -62.3 0 1 367.63 153.30
  L 381.97 150.55
  Q 381.36 152.48 382.32 153.79
  A 0.94 0.93 66.5 0 0 383.25 154.16
  Q 402.57 150.45 419.74 150.49
  Q 424.58 150.51 432.02 151.39
  Q 432.74 151.47 433.46 151.41
  L 434.29 151.57
  Q 435.73 152.31 437.45 152.14
  Q 437.64 152.20 437.84 152.25
  L 441.89 152.93
  C 463.62 157.25 484.28 168.78 496.19 187.60
  Q 507.92 206.11 510.00 227.68
  Q 510.45 232.34 510.01 234.00
  Q 509.13 237.32 507.58 242.08
  C 506.19 246.34 501.31 248.90 497.80 251.25
  Q 496.97 251.47 496.30 251.86
  Q 495.73 252.19 495.76 252.61
  Q 495.78 253.04 496.42 253.28
  Q 497.03 253.91 498.22 253.99
  L 500.69 253.92
  Q 503.04 255.01 502.52 256.22
  L 489.72 264.77
  A 1.82 1.81 -14.4 0 0 488.93 266.10
  L 486.30 295.32
  A 0.32 0.32 0.0 0 0 486.78 295.63
  Q 494.93 290.96 501.93 284.83
  Q 504.83 289.45 503.41 294.95
  Q 500.89 304.71 496.96 315.22
  C 484.27 349.25 465.51 380.95 443.59 409.85
  C 404.29 461.67 354.43 507.06 297.46 538.69
  Q 288.41 543.72 283.83 545.60
  Q 280.65 546.91 274.91 546.75
  L 281.70 530.46
  A 0.43 0.43 0.0 0 0 281.16 529.89
  L 278.99 530.68
  A 0.91 0.91 0.0 0 0 278.76 532.27
  Q 279.94 533.13 279.61 534.04
  A 0.60 0.59 -1.2 0 1 279.25 534.41
  L 247.65 545.84
  A 0.80 0.78 54.7 0 1 246.88 545.70
  Q 246.10 545.06 245.51 543.73
  A 0.59 0.59 0.0 0 0 244.40 543.84
  Q 243.39 548.16 240.32 551.47
  Q 240.18 551.26 240.04 551.06
  Q 240.13 549.93 239.55 549.57
  Q 238.78 549.09 238.13 549.94
  Q 237.60 550.63 237.74 551.76
  L 234.22 560.28
  A 4.58 4.55 -7.8 0 1 232.75 562.20
  Q 224.77 568.30 215.14 570.46
  C 191.12 575.85 164.50 576.86 141.25 568.75
  Q 102.83 555.36 90.32 517.46
  Q 85.01 501.36 84.73 482.98
  L 84.72 480.54
  Q 84.94 467.44 87.10 454.55
  L 87.19 453.77
  Q 93.37 418.85 108.71 386.78
  Q 109.88 385.67 109.93 384.20
  L 112.01 380.04
  Q 113.08 378.81 113.51 377.28
  Q 119.64 366.48 125.83 355.78
  Q 127.00 353.75 128.48 352.49
  Q 137.28 344.98 144.84 338.30
  A 1.15 1.14 -53.1 0 1 146.07 338.12
  L 168.09 348.35
  A 0.35 0.35 0.0 0 0 168.52 348.24
  L 171.60 344.07
  A 0.22 0.21 -59.4 0 0 171.52 343.75
  L 167.18 341.65
  L 160.77 339.02
  A 1.03 0.88 -4.7 0 1 160.42 338.77
  L 157.20 335.02
  A 0.83 0.83 0.0 0 0 156.75 334.75
  Q 154.67 334.24 152.92 334.11
  Q 147.23 333.70 143.56 333.51
  Q 141.62 333.40 140.09 333.02
  C 136.66 332.16 133.53 332.36 130.06 331.87
  C 119.83 330.42 103.26 329.40 93.98 328.28
  C 90.89 327.91 88.92 327.35 86.18 326.52
  A 0.46 0.46 0.0 0 0 85.59 326.95
  L 85.55 328.68
  Q 83.27 330.14 84.77 333.04
  Q 80.13 332.79 76.48 330.49
  Q 75.44 329.83 74.94 328.83
  Q 74.61 326.64 76.15 325.69
  A 0.82 0.81 53.7 0 1 77.18 325.85
  L 77.93 326.73
  A 0.39 0.39 0.0 0 0 78.59 326.35
  Q 78.16 325.18 77.17 324.16
  A 1.52 1.46 71.1 0 0 76.31 323.72
  C 72.83 323.22 71.16 326.20 73.67 328.79
  L 66.16 349.33
  A 0.37 0.37 0.0 0 0 66.67 349.79
  L 67.59 349.27
  A 0.36 0.30 -50.2 0 1 67.81 349.23
  L 79.63 351.05
  A 0.54 0.54 0.0 0 1 80.06 351.77
  L 80.05 351.79
  A 0.66 0.65 16.4 0 1 79.45 352.11
  L 66.62 351.47
  A 0.94 0.94 0.0 0 0 65.74 351.97
  Q 63.64 355.99 63.71 359.74
  Q 62.59 361.78 62.11 364.13
  Q 60.44 372.41 58.86 381.09
  A 5.29 0.72 87.9 0 0 58.68 382.93
  Q 58.60 384.74 58.10 387.62
  Q 57.06 393.63 56.84 407.75
  Q 56.75 413.59 59.06 428.76
  Q 60.64 437.89 63.61 445.73
  Q 69.24 462.45 80.54 475.22
  Q 81.98 475.84 82.06 479.21
  Q 81.90 481.83 82.64 484.40
  L 82.96 490.19
  Q 82.81 491.91 83.41 493.52
  L 83.82 495.91
  A 0.52 0.52 0.0 0 1 82.99 496.40
  Q 72.81 488.58 64.91 479.08
  Q 61.15 474.56 54.00 461.95
  Q 54.00 461.14 53.54 461.07
  Q 44.98 447.15 40.43 436.57
  Q 38.05 431.04 34.91 420.05
  Q 35.07 419.04 34.52 418.50
  L 33.96 416.71
  Q 33.92 415.74 33.52 414.80
  L 32.25 410.45
  L 32.05 409.72
  L 30.50 403.74
  Q 30.80 402.47 30.22 402.53
  L 29.38 399.74
  L 29.32 398.54
  Q 29.20 398.16 29.22 397.79
  L 27.58 388.28
  Q 27.51 388.19 27.44 388.11
  Q 27.47 383.50 25.91 379.25
  A 4.06 4.05 -57.0 0 1 25.69 378.20
  Q 25.10 367.83 25.98 361.55
  Q 27.54 350.35 27.36 347.49
  Q 27.25 345.74 26.46 345.67
  Q 14.60 326.21 4.52 307.51
  C 2.54 303.83 1.01 300.10 2.18 296.37
  A 2.48 2.48 0.0 0 1 4.25 294.65
  L 12.51 293.67
  L 14.25 293.61
  L 19.42 293.21
  Q 22.25 293.59 24.82 292.82
  L 28.75 292.26
  Q 30.45 292.49 31.08 292.04
  L 31.71 291.94
  Q 33.16 292.25 34.04 291.79
  L 37.26 290.95
  A 0.88 0.86 89.6 0 0 37.89 290.30
  L 38.80 286.23
  Q 39.55 284.94 39.40 283.22
  Q 39.45 283.09 39.49 282.96
  Q 39.78 282.03 39.65 280.96
  L 40.47 277.42
  A 2.34 2.34 0.0 0 1 42.39 275.64
  L 45.72 275.14
  L 46.89 275.29
  A 1.00 1.00 0.0 0 1 47.65 276.76
  Q 46.75 278.43 46.86 279.97
  A 0.18 0.18 0.0 0 0 47.20 280.04
  L 54.83 264.99
  A 0.87 0.85 43.0 0 0 54.79 264.16
  Q 52.46 260.37 51.82 256.05
  Q 51.62 255.38 51.77 254.72
  L 52.98 248.49
  C 56.32 240.86 64.72 236.09 72.67 234.07
  Q 72.75 234.30 73.54 234.04
  Q 74.71 232.09 74.88 229.71
  Q 75.12 229.21 74.89 228.77
  L 75.59 210.18
  L 75.65 204.54
  L 75.43 143.05
  Q 75.69 137.53 75.97 132.02
  C 76.41 123.23 75.97 115.91 75.82 107.75
  Q 75.80 106.45 76.81 103.72
  A 0.39 0.38 24.0 0 0 76.62 103.24
  L 76.57 103.22
  A 0.45 0.45 0.0 0 0 75.94 103.46
  Q 75.73 104.02 75.91 105.05
  Q 75.95 105.30 75.80 105.43
  Q 75.45 105.72 75.11 105.55
  A 0.34 0.34 0.0 0 1 74.92 105.23
  L 75.23 93.76
  L 75.78 92.57
  L 77.15 91.04
  A 0.68 0.67 -23.1 0 0 77.32 90.62
  L 77.55 85.34
  A 0.96 0.96 0.0 0 0 76.96 84.41
  Q 76.53 84.24 76.26 84.24
  Q 73.17 80.87 72.13 76.46
  L 72.13 74.53
  C 73.60 71.21 75.77 68.17 79.46 68.16
  Z
  M 97.36 92.50
  Q 93.92 90.67 92.85 90.03
  Q 92.42 89.77 89.12 89.91
  A 1.64 1.60 -29.7 0 1 88.20 89.67
  Q 87.86 89.46 87.25 88.47
  A 0.48 0.48 0.0 0 0 86.37 88.79
  C 86.57 90.19 87.58 90.92 88.78 91.91
  Q 90.99 93.73 94.13 92.95
  A 1.91 1.89 45.3 0 1 95.09 92.96
  Q 96.32 93.28 97.21 93.20
  A 0.38 0.37 -33.3 0 0 97.36 92.50
  Z
  M 89.16 212.00
  A 0.13 0.13 0.0 0 0 89.38 212.11
  L 98.13 201.58
  A 0.85 0.83 -34.6 0 0 98.28 200.81
  Q 95.35 191.56 93.93 181.31
  A 1.29 1.28 12.9 0 0 93.37 180.42
  Q 89.02 177.61 86.08 173.94
  A 1.52 1.49 -9.9 0 0 85.37 173.45
  Q 85.20 173.40 85.15 173.38
  A 1.13 1.12 2.9 0 1 84.40 172.56
  Q 84.12 171.29 83.29 170.28
  A 0.41 0.41 0.0 0 0 82.57 170.63
  L 84.41 178.45
  A 0.56 0.26 -70.1 0 1 84.42 178.56
  Q 84.45 179.52 85.03 182.21
  Q 88.31 197.35 88.50 198.13
  C 89.55 202.32 89.95 208.71 89.16 212.00
  Z
  M 125.29 424.75
  Q 124.04 424.98 123.85 425.69
  Q 120.21 439.59 120.18 439.70
  Q 119.54 441.56 119.80 441.90
  A 0.41 0.41 0.0 0 1 119.72 442.47
  Q 119.55 442.60 119.25 443.47
  Q 118.34 446.08 115.21 458.42
  A 0.92 0.82 85.6 0 0 116.35 459.52
  Q 116.56 459.41 117.24 459.86
  A 0.19 0.19 0.0 0 1 117.18 460.20
  L 115.01 460.80
  A 0.99 0.98 -0.5 0 0 114.31 461.51
  L 102.34 507.47
  A 0.57 0.57 0.0 0 0 103.07 508.15
  Q 113.14 504.67 120.36 503.06
  Q 121.88 502.73 122.91 503.61
  Q 123.29 503.93 124.05 503.38
  A 2.22 2.18 -69.1 0 1 124.84 503.02
  Q 130.75 501.59 136.48 499.68
  Q 137.43 499.36 138.40 499.45
  A 0.36 0.36 0.0 0 1 138.46 500.16
  L 122.39 504.61
  A 0.61 0.61 0.0 0 0 121.95 505.05
  L 114.48 531.48
  A 0.29 0.28 -86.4 0 1 114.26 531.68
  L 112.84 531.91
  A 0.08 0.07 2.0 0 1 112.75 531.82
  L 119.15 507.25
  A 0.36 0.36 0.0 0 0 118.91 506.82
  L 118.64 506.74
  A 0.57 0.56 15.9 0 0 117.93 507.13
  L 110.67 535.03
  A 0.54 0.54 0.0 0 0 111.29 535.69
  Q 116.24 534.77 122.61 532.61
  Q 126.02 531.45 133.51 529.18
  Q 143.34 526.20 146.50 525.04
  A 0.62 0.62 0.0 0 1 147.31 525.81
  L 139.31 551.48
  A 1.11 1.11 0.0 0 0 140.72 552.86
  L 168.05 543.77
  A 0.73 0.62 16.0 0 0 168.25 543.68
  Q 170.26 542.52 172.52 542.35
  A 0.42 0.41 6.6 0 1 172.95 542.89
  L 165.43 567.05
  A 0.82 0.81 88.6 0 0 166.49 568.06
  L 188.72 559.84
  A 0.60 0.07 -6.3 0 1 188.81 559.82
  Q 192.10 559.37 195.49 557.63
  A 0.49 0.48 -5.2 0 1 196.18 558.20
  L 192.97 568.51
  A 0.77 0.77 0.0 0 0 193.96 569.46
  L 221.26 559.57
  A 0.80 0.79 19.1 0 0 221.43 559.49
  Q 223.58 558.22 224.15 556.07
  Q 224.79 553.62 225.50 552.64
  Q 226.15 551.75 227.45 547.87
  Q 228.05 546.08 229.98 545.53
  Q 235.06 544.10 238.94 542.60
  Q 253.75 536.88 272.29 530.58
  A 0.62 0.60 52.6 0 1 272.82 530.66
  Q 273.54 531.14 273.13 531.87
  A 0.41 0.41 0.0 0 0 273.63 532.45
  L 275.62 531.73
  A 0.82 0.81 -13.3 0 0 276.15 530.88
  Q 276.09 530.36 276.28 529.91
  A 0.92 0.90 0.6 0 1 276.81 529.40
  Q 279.54 528.43 283.73 526.58
  C 285.47 525.82 287.57 525.49 288.72 525.12
  A 1.17 1.11 8.3 0 0 289.23 524.76
  Q 289.66 524.21 291.02 524.40
  A 0.85 0.83 -55.1 0 0 291.55 524.30
  L 295.41 522.29
  A 0.49 0.48 87.1 0 1 296.08 522.90
  L 292.49 531.96
  A 0.83 0.83 0.0 0 0 293.52 533.06
  Q 299.89 530.97 304.96 529.08
  Q 305.08 529.03 306.54 528.89
  A 1.61 1.56 -57.2 0 0 306.93 528.80
  L 316.54 524.92
  A 2.97 2.94 1.2 0 0 318.12 523.42
  L 322.76 513.42
  A 4.23 4.20 -86.5 0 1 325.25 511.20
  L 328.31 510.19
  A 2.42 2.39 -72.0 0 0 328.89 509.89
  Q 331.58 508.06 334.03 507.85
  Q 336.23 507.67 336.84 507.11
  A 0.97 0.94 -69.4 0 1 337.35 506.87
  Q 341.49 506.21 344.43 504.41
  A 1.92 1.81 25.9 0 1 345.29 504.14
  Q 346.92 504.04 347.36 502.37
  Q 347.74 500.93 349.22 498.17
  Q 351.14 494.60 352.67 490.77
  A 4.41 4.31 -17.8 0 1 353.13 489.90
  Q 354.67 487.66 356.37 483.09
  Q 357.28 480.64 359.29 479.55
  Q 363.94 477.02 370.67 475.77
  A 0.46 0.33 -54.2 0 0 370.79 475.73
  L 380.26 472.32
  A 0.60 0.59 -86.2 0 0 380.61 472.01
  L 391.52 450.47
  A 3.87 3.86 -79.1 0 1 394.62 448.37
  Q 396.21 448.23 397.30 447.77
  Q 405.47 444.32 414.07 442.13
  C 416.26 441.57 417.95 437.29 418.78 435.54
  Q 424.08 424.32 427.45 417.66
  A 1.83 1.83 0.0 0 1 428.60 416.73
  L 436.95 414.42
  A 3.91 3.90 -84.3 0 0 439.39 412.42
  L 452.39 386.76
  A 2.14 1.94 -29.7 0 0 452.58 386.18
  Q 452.85 384.68 454.14 383.29
  A 1.67 1.66 -13.4 0 0 454.51 382.69
  L 456.92 375.84
  A 1.96 1.63 -25.7 0 1 457.08 375.49
  Q 460.07 370.60 462.28 365.24
  Q 462.76 364.08 463.57 363.40
  A 2.00 1.98 -10.4 0 0 464.15 362.57
  Q 465.71 358.37 469.05 353.11
  A 6.61 6.49 -17.9 0 0 469.61 352.04
  Q 474.03 341.38 480.08 331.77
  Q 480.21 331.56 480.30 330.94
  Q 480.44 330.11 480.99 330.13
  A 0.28 0.28 0.0 0 0 481.27 329.94
  L 482.87 324.98
  A 0.73 0.60 -25.3 0 1 482.97 324.77
  L 488.34 316.47
  A 1.41 1.41 0.0 0 0 488.58 315.83
  L 488.76 314.46
  A 1.22 1.19 67.9 0 1 489.00 313.87
  Q 491.59 310.47 492.88 306.20
  A 0.72 0.72 0.0 0 0 492.07 305.29
  L 460.79 310.53
  A 0.22 0.22 0.0 0 1 460.55 310.21
  L 466.15 299.15
  A 1.90 1.57 -30.1 0 0 466.31 298.72
  Q 467.52 293.54 468.37 291.91
  Q 471.65 285.65 472.28 284.26
  A 1.83 1.81 -6.7 0 1 472.84 283.56
  Q 474.67 282.21 474.58 280.43
  A 0.88 0.88 0.0 0 0 473.55 279.60
  L 464.70 281.08
  A 0.69 0.68 4.9 0 1 463.94 280.18
  Q 465.72 275.11 468.36 270.86
  Q 469.33 269.30 470.62 266.51
  Q 472.42 262.61 472.64 262.02
  Q 473.79 258.86 474.44 256.91
  Q 475.94 252.46 478.36 249.86
  Q 478.90 249.28 478.43 248.27
  A 0.71 0.71 0.0 0 1 478.68 247.37
  L 479.11 247.09
  A 0.77 0.75 85.9 0 0 479.38 246.77
  L 484.57 235.60
  A 1.54 1.51 84.8 0 1 485.02 235.05
  Q 486.21 234.16 486.75 232.71
  Q 488.54 227.89 493.67 218.26
  Q 494.56 216.59 495.32 214.82
  A 0.80 0.80 0.0 0 0 494.57 213.70
  L 484.65 213.84
  A 0.61 0.60 12.9 0 1 484.10 212.97
  L 488.96 203.31
  A 0.67 0.14 -78.0 0 0 489.00 203.22
  L 491.29 197.70
  A 1.14 1.13 -80.1 0 0 490.19 196.13
  L 484.57 196.38
  A 0.07 0.06 48.0 0 0 484.57 196.51
  Q 484.61 196.52 484.63 196.55
  A 0.41 0.33 64.4 0 0 484.90 196.68
  L 489.52 196.45
  A 0.93 0.93 0.0 0 1 490.33 197.90
  Q 489.83 198.64 489.29 199.00
  A 0.93 0.92 -24.3 0 0 488.90 200.01
  Q 489.03 200.52 488.90 200.79
  A 0.16 0.16 0.0 0 1 488.60 200.72
  L 488.59 199.93
  A 0.57 0.56 88.0 0 0 488.00 199.37
  L 463.31 200.37
  A 0.43 0.42 12.0 0 1 462.91 199.76
  L 463.32 198.96
  A 0.58 0.58 0.0 0 0 462.88 198.13
  Q 462.54 198.09 462.19 198.22
  A 0.11 0.08 -55.4 0 1 462.19 198.03
  Q 462.34 197.97 462.48 197.91
  A 0.32 0.32 0.0 0 0 462.65 197.55
  L 462.55 197.20
  A 0.30 0.30 0.0 0 1 462.91 196.83
  L 463.24 196.91
  A 0.80 0.79 22.0 0 0 464.13 196.54
  Q 467.73 190.25 469.91 183.63
  Q 470.27 182.55 471.20 181.82
  A 0.69 0.69 0.0 0 0 470.78 180.59
  Q 466.86 180.60 460.91 180.68
  Q 460.13 180.69 459.51 182.03
  Q 457.41 186.51 455.46 191.09
  A 2.07 1.84 -15.1 0 1 455.10 191.64
  Q 455.04 191.72 455.02 191.74
  A 1.86 1.85 68.5 0 0 454.58 192.76
  Q 454.38 194.90 452.76 196.73
  A 0.44 0.44 0.0 0 1 452.03 196.25
  L 458.66 181.98
  A 0.78 0.78 0.0 0 0 457.95 180.88
  L 431.97 181.24
  A 0.87 0.85 10.1 0 0 431.18 181.78
  L 428.50 188.54
  A 0.14 0.14 0.0 0 1 428.23 188.53
  Q 428.18 188.32 428.11 188.23
  A 0.20 0.20 0.0 0 0 427.75 188.30
  Q 427.63 188.91 427.58 188.94
  A 0.35 0.35 0.0 0 1 427.08 188.51
  L 429.83 182.10
  A 0.44 0.43 11.0 0 0 429.42 181.50
  L 401.60 181.88
  A 1.40 1.39 -79.3 0 0 400.32 182.76
  L 395.40 195.19
  A 0.23 0.23 0.0 0 1 395.04 195.28
  L 394.52 194.84
  A 0.10 0.09 36.3 0 1 394.50 194.73
  L 396.70 189.75
  A 0.76 0.60 -38.0 0 0 396.74 189.59
  Q 397.15 186.46 399.22 182.96
  A 0.49 0.49 0.0 0 0 398.78 182.22
  L 335.48 183.09
  A 1.40 1.39 -80.3 0 0 334.18 184.02
  L 326.48 205.86
  A 0.77 0.75 8.4 0 1 325.79 206.36
  L 289.83 207.83
  A 1.29 1.29 0.0 0 0 288.64 208.74
  Q 286.70 214.91 283.22 224.89
  C 282.74 226.25 281.83 227.73 281.69 229.49
  Q 281.65 230.02 278.95 230.06
  A 0.53 0.51 7.6 0 0 278.46 230.42
  L 272.94 248.15
  A 0.19 0.19 0.0 0 1 272.69 248.27
  L 271.74 247.89
  A 0.29 0.28 19.8 0 1 271.57 247.54
  L 277.22 230.67
  A 0.11 0.11 0.0 0 0 277.12 230.53
  L 262.75 230.73
  A 1.95 1.95 0.0 0 0 260.91 232.12
  L 256.56 246.49
  A 0.03 0.03 0.0 0 1 256.51 246.49
  Q 256.48 246.32 256.43 246.23
  A 0.08 0.08 0.0 0 0 256.28 246.23
  Q 255.32 248.28 255.30 249.71
  A 2.05 1.91 57.1 0 1 255.20 250.27
  L 250.11 264.90
  A 1.28 1.20 61.5 0 0 250.04 265.17
  Q 249.55 268.36 247.68 273.46
  Q 246.10 277.75 242.01 291.31
  A 0.33 0.33 0.0 0 0 242.35 291.73
  L 256.22 290.72
  A 1.87 1.86 -83.3 0 0 257.87 289.41
  L 259.35 284.66
  A 0.41 0.41 0.0 0 1 259.87 284.39
  L 260.18 284.48
  A 0.21 0.21 0.0 0 1 260.32 284.74
  L 258.78 289.68
  A 0.40 0.40 0.0 0 0 259.23 290.19
  Q 264.57 289.24 269.01 289.12
  A 5.08 4.80 36.3 0 0 270.05 288.99
  Q 278.15 287.12 285.38 287.59
  A 0.31 0.30 81.2 0 1 285.65 287.79
  Q 285.72 287.99 285.51 288.25
  A 0.35 0.34 19.2 0 1 285.21 288.39
  Q 281.65 288.21 278.13 289.26
  A 0.57 0.33 14.9 0 1 278.02 289.29
  L 259.42 291.14
  A 1.60 1.59 -83.9 0 0 258.05 292.25
  L 255.39 300.80
  A 0.70 0.70 0.0 0 1 254.54 301.27
  L 254.21 301.19
  A 0.38 0.37 -74.2 0 1 253.95 300.72
  L 256.73 291.79
  A 0.27 0.27 0.0 0 0 256.42 291.44
  L 241.20 293.99
  A 0.50 0.50 0.0 0 0 240.80 294.34
  L 234.38 314.94
  A 1.56 1.55 -85.5 0 1 233.12 316.02
  L 214.48 318.63
  A 0.47 0.45 -84.6 0 0 214.11 318.95
  L 203.02 354.57
  A 0.20 0.20 0.0 0 0 203.25 354.83
  L 208.73 353.91
  A 0.05 0.04 7.1 0 1 208.78 353.97
  L 208.33 354.86
  A 0.79 0.79 0.0 0 1 207.86 355.26
  Q 205.00 356.14 203.09 355.88
  A 0.54 0.53 3.9 0 0 202.49 356.40
  Q 202.47 358.41 200.71 358.45
  Q 200.03 358.46 199.59 358.92
  Q 199.23 359.29 198.43 359.16
  Q 197.78 359.05 196.60 359.26
  Q 178.86 362.42 172.24 363.40
  Q 165.58 364.38 160.69 365.48
  Q 156.79 366.35 153.23 366.80
  Q 150.47 367.15 145.77 368.23
  A 4.83 4.72 -51.4 0 1 144.80 368.35
  Q 141.61 368.44 139.21 369.31
  A 1.24 1.22 1.6 0 0 138.52 369.95
  Q 137.72 371.75 137.59 373.35
  A 1.64 1.20 62.8 0 1 137.55 373.60
  L 124.30 423.54
  A 1.16 1.15 17.3 0 0 125.03 424.92
  Q 125.13 424.95 125.32 424.87
  A 0.06 0.06 0.0 0 0 125.29 424.75
  Z
  M 186.16 185.12
  Q 186.12 185.22 186.07 185.35
  A 0.52 0.52 0.0 0 0 186.62 186.08
  Q 187.85 185.91 188.58 187.07
  A 0.31 0.31 0.0 0 0 189.14 186.84
  Q 188.35 183.15 184.63 183.79
  A 1.13 1.08 -78.5 0 0 183.85 184.33
  L 182.73 186.27
  A 0.77 0.77 0.0 0 0 182.90 187.23
  Q 183.55 187.80 183.81 188.63
  A 0.95 0.93 81.0 0 0 184.70 189.29
  L 185.36 189.29
  A 0.45 0.45 0.0 0 0 185.76 188.64
  Q 185.22 187.53 184.43 187.02
  A 0.69 0.69 0.0 0 1 184.19 186.13
  Q 184.81 184.91 185.54 184.57
  A 0.45 0.45 0.0 0 1 186.16 185.12
  Z
  M 195.76 195.93
  Q 195.64 194.81 194.44 194.44
  A 0.50 0.49 -62.0 0 1 194.20 193.65
  L 195.51 192.07
  A 0.50 0.50 0.0 0 0 194.86 191.32
  Q 191.20 193.55 194.60 196.36
  A 0.72 0.61 20.1 0 0 195.76 195.93
  Z
  M 175.97 194.36
  Q 174.74 195.74 175.85 198.10
  A 1.40 1.38 -87.3 0 0 176.40 198.71
  Q 177.45 199.36 178.39 199.21
  A 0.34 0.34 0.0 0 0 178.50 198.57
  Q 178.47 198.55 178.19 198.48
  A 0.91 0.90 -76.9 0 1 177.52 197.40
  Q 177.60 197.07 178.23 196.36
  Q 178.85 195.66 179.17 195.54
  A 0.91 0.90 -19.9 0 1 180.33 196.08
  Q 180.43 196.35 180.45 196.37
  A 0.34 0.34 0.0 0 0 181.07 196.19
  Q 181.11 195.24 180.34 194.27
  A 1.40 1.38 -9.4 0 0 179.67 193.80
  Q 177.20 192.98 175.97 194.36
  Z
  M 181.10 200.03
  Q 180.45 200.75 180.30 201.12
  A 0.32 0.32 0.0 0 0 180.69 201.55
  Q 181.91 201.21 182.13 200.96
  Q 182.36 200.72 182.58 199.46
  A 0.32 0.32 0.0 0 0 182.11 199.12
  Q 181.75 199.30 181.10 200.03
  Z
  M 183.56 282.63
  L 183.12 282.11
  A 0.27 0.27 0.0 0 0 182.70 282.13
  Q 182.34 282.62 181.69 282.72
  A 0.72 0.71 64.0 0 0 181.28 283.92
  L 183.29 286.03
  A 0.61 0.61 0.0 0 0 184.34 285.51
  Q 184.24 284.86 183.29 284.04
  Q 182.87 283.68 182.88 283.35
  Q 182.89 282.77 183.47 282.81
  A 0.11 0.11 0.0 0 0 183.56 282.63
  Z
  M 206.83 293.28
  Q 208.10 294.19 208.84 294.31
  A 0.68 0.68 0.0 0 1 209.40 294.87
  Q 209.60 296.00 210.34 296.63
  A 0.41 0.41 0.0 0 0 210.99 296.45
  Q 212.03 293.62 215.05 290.93
  A 0.66 0.66 0.0 0 0 214.78 289.80
  Q 213.12 289.35 211.89 288.07
  A 1.19 1.19 0.0 0 0 210.11 288.13
  L 206.70 292.24
  A 0.72 0.72 0.0 0 0 206.83 293.28
  Z
  M 182.71 290.22
  Q 182.93 290.53 183.18 290.74
  A 0.62 0.61 -49.0 0 0 184.03 290.67
  Q 185.03 289.55 184.59 288.92
  Q 184.16 288.29 182.75 288.83
  A 0.62 0.61 -20.4 0 0 182.39 289.61
  Q 182.50 289.91 182.71 290.22
  Z
  M 204.48 301.57
  A 0.41 0.41 0.0 0 0 205.28 301.47
  Q 205.47 299.19 203.86 297.72
  A 0.78 0.78 0.0 0 0 202.64 297.93
  L 202.63 297.95
  A 1.19 1.18 -60.9 0 0 203.07 299.51
  Q 203.92 300.03 204.48 301.57
  Z
  M 194.20 305.46
  Q 194.80 308.43 197.69 309.00
  A 0.67 0.67 0.0 0 0 198.46 308.15
  Q 197.63 305.48 194.20 305.46
  L 199.08 304.01
  A 0.60 0.60 0.0 0 0 198.98 302.84
  Q 197.78 302.70 196.30 301.64
  A 1.11 1.11 0.0 0 0 194.62 302.13
  L 193.64 304.60
  A 0.65 0.65 0.0 0 0 193.61 304.97
  Q 193.72 305.53 194.20 305.46
  Z
  M 163.96 315.54
  Q 162.74 314.98 162.52 314.72
  Q 158.55 309.95 151.43 301.94
  A 0.15 0.15 0.0 0 0 151.22 301.93
  L 151.21 301.93
  A 0.17 0.17 0.0 0 0 151.20 302.16
  L 155.80 307.50
  A 0.66 0.66 0.0 0 1 155.73 308.43
  L 154.62 309.38
  A 0.26 0.26 0.0 0 0 154.64 309.78
  L 159.14 313.10
  A 0.27 0.26 64.7 0 1 158.97 313.58
  C 156.33 313.43 154.82 312.23 152.02 314.75
  A 0.25 0.25 0.0 0 0 152.14 315.18
  L 152.48 315.26
  A 0.06 0.05 22.5 0 0 152.54 315.24
  Q 154.31 313.75 156.07 314.02
  Q 162.48 314.99 162.12 321.77
  A 0.28 0.28 0.0 0 0 162.67 321.87
  Q 163.68 318.51 161.36 315.90
  A 0.33 0.33 0.0 0 1 161.80 315.42
  L 163.42 316.62
  A 0.35 0.34 19.5 0 0 163.98 316.36
  L 164.02 315.62
  A 0.09 0.08 9.7 0 0 163.96 315.54
  Z
  M 82.40 319.42
  Q 82.11 318.34 82.53 317.36
  A 1.42 1.38 -52.6 0 1 84.91 317.01
  Q 84.93 317.03 85.04 317.36
  A 0.30 0.30 0.0 0 0 85.54 317.46
  Q 85.90 317.09 85.53 316.23
  Q 84.93 314.84 83.88 314.54
  Q 81.12 313.78 79.67 316.45
  A 0.81 0.81 0.0 0 0 79.81 317.42
  Q 80.30 317.90 80.90 319.42
  A 0.86 0.84 80.9 0 0 81.62 319.95
  L 81.93 319.98
  A 0.45 0.44 85.4 0 0 82.40 319.42
  Z
  M 183.2210 319.0625
  A 2.07 0.67 -136.4 0 0 184.2580 320.9752
  A 2.07 0.67 -136.4 0 0 186.2190 321.9175
  A 2.07 0.67 -136.4 0 0 185.1820 320.0048
  A 2.07 0.67 -136.4 0 0 183.2210 319.0625
  Z
  M 151.5498 326.3033
  A 1.36 0.85 -166.1 0 0 152.6658 327.4551
  A 1.36 0.85 -166.1 0 0 154.1902 326.9567
  A 1.36 0.85 -166.1 0 0 153.0742 325.8049
  A 1.36 0.85 -166.1 0 0 151.5498 326.3033
  Z
  M 144.36 366.41
  A 0.26 0.26 0.0 0 0 144.58 366.11
  L 144.50 365.67
  A 0.26 0.26 0.0 0 0 144.20 365.45
  L 136.14 366.80
  A 0.26 0.26 0.0 0 0 135.93 366.99
  L 98.68 510.11
  A 0.26 0.26 0.0 0 0 98.86 510.42
  L 99.30 510.54
  A 0.26 0.26 0.0 0 0 99.62 510.35
  L 136.71 367.85
  A 0.26 0.26 0.0 0 1 136.92 367.66
  L 144.36 366.41
  Z"
/>
<path fill="#030c13" d="
  M 168.19 95.85
  Q 160.30 90.65 155.53 82.03
  A 4.76 4.56 25.4 0 1 155.10 80.90
  Q 153.71 75.05 156.88 68.55
  A 0.30 0.29 -26.7 0 1 157.44 68.73
  Q 157.30 69.43 156.52 72.25
  Q 156.05 73.97 156.48 75.31
  Q 157.18 77.51 158.67 79.41
  Q 161.80 83.39 166.40 87.76
  A 0.46 0.44 16.8 0 1 166.52 87.97
  L 168.62 95.54
  A 0.28 0.28 0.0 0 1 168.19 95.85
  Z"
/>
<path fill="#030c13" d="
  M 109.77 73.52
  Q 109.48 73.19 109.48 72.73
  Q 109.89 73.02 109.77 73.52
  Z"
/>
<path fill="#030c13" d="
  M 72.13 74.53
  L 72.13 76.46
  L 72.13 74.53
  Z"
/>
<path fill="#030c13" d="
  M 110.86 77.21
  L 104.66 77.13
  Q 106.94 76.43 109.44 76.62
  A 0.50 0.43 28.5 0 0 109.71 76.56
  Q 110.12 76.32 110.24 75.74
  Q 111.02 76.27 110.86 77.21
  Z"
/>
<path fill="#030c13" d="
  M 98.91 80.17
  Q 101.58 80.21 98.23 80.95
  A 0.90 0.89 62.3 0 1 97.38 80.68
  Q 96.57 79.80 96.19 78.67
  Q 97.69 79.81 98.91 80.17
  Z"
/>
<path fill="#acadad" d="
  M 135.30 98.64
  A 0.60 0.60 0.0 0 1 134.15 98.99
  L 132.18 93.54
  A 0.17 0.17 0.0 0 0 131.86 93.58
  L 131.74 94.91
  A 0.75 0.75 0.0 0 1 130.28 95.06
  C 129.97 94.02 130.62 92.73 130.33 91.66
  Q 129.11 87.13 129.39 83.64
  A 1.14 1.14 0.0 0 1 131.63 83.46
  L 135.30 98.64
  Z"
/>
<path fill="#030c13" d="
  M 75.78 92.57
  Q 75.85 91.84 76.48 90.23
  Q 77.62 87.30 76.26 84.24
  Q 76.53 84.24 76.96 84.41
  A 0.96 0.96 0.0 0 1 77.55 85.34
  L 77.32 90.62
  A 0.68 0.67 -23.1 0 1 77.15 91.04
  L 75.78 92.57
  Z"
/>
<path fill="#030c13" d="
  M 97.21 93.20
  Q 96.32 93.28 95.09 92.96
  A 1.91 1.89 45.3 0 0 94.13 92.95
  Q 90.99 93.73 88.78 91.91
  C 87.58 90.92 86.57 90.19 86.37 88.79
  A 0.48 0.48 0.0 0 1 87.25 88.47
  Q 87.86 89.46 88.20 89.67
  A 1.64 1.60 -29.7 0 0 89.12 89.91
  Q 92.42 89.77 92.85 90.03
  Q 93.92 90.67 97.36 92.50
  A 0.38 0.37 -33.3 0 1 97.21 93.20
  Z"
/>
<path fill="#030c13" d="
  M 114.73 90.76
  L 116.04 96.09
  Q 113.66 94.94 110.77 95.16
  A 0.39 0.37 61.8 0 1 110.50 95.07
  L 104.82 90.36
  A 0.13 0.13 0.0 0 1 104.91 90.13
  L 114.73 90.76
  Z"
/>
<path fill="#030c13" d="
  M 75.23 93.76
  L 74.92 105.23
  A 0.34 0.34 0.0 0 0 75.11 105.55
  Q 75.45 105.72 75.80 105.43
  Q 75.95 105.30 75.91 105.05
  Q 75.73 104.02 75.94 103.46
  A 0.45 0.45 0.0 0 1 76.57 103.22
  L 76.62 103.24
  A 0.39 0.38 24.0 0 1 76.81 103.72
  Q 75.80 106.45 75.82 107.75
  C 75.97 115.91 76.41 123.23 75.97 132.02
  Q 75.69 137.53 75.43 143.05
  C 75.03 127.53 75.01 112.01 74.58 96.50
  Q 74.54 95.00 75.23 93.76
  Z"
/>
<path fill="#030c13" d="
  M 388.81 114.72
  C 384.25 112.83 379.66 111.52 375.12 109.48
  Q 370.41 107.36 368.18 107.12
  Q 360.98 106.32 354.15 104.26
  Q 368.31 104.40 381.29 110.21
  Q 385.31 112.01 388.81 114.72
  Z"
/>
<path fill="#030c13" d="
  M 89.71 106.80
  L 89.31 106.77
  A 1.01 1.01 0.0 0 0 88.23 107.77
  L 88.19 126.71
  Q 88.02 117.97 87.63 108.64
  Q 87.58 107.53 88.32 106.70
  Q 88.98 105.96 89.71 106.80
  Z"
/>
<path fill="#030c13" d="
  M 433.46 151.41
  Q 432.74 151.47 432.02 151.39
  Q 424.58 150.51 419.74 150.49
  Q 402.57 150.45 383.25 154.16
  A 0.94 0.93 66.5 0 1 382.32 153.79
  Q 381.36 152.48 381.97 150.55
  Q 387.07 149.82 392.16 148.96
  Q 398.07 147.98 402.39 148.00
  Q 415.41 148.07 416.30 148.04
  C 418.48 147.96 421.31 148.50 423.90 149.15
  Q 425.79 149.62 426.57 149.19
  Q 427.60 148.63 427.25 146.73
  Q 426.72 143.83 425.86 143.66
  Q 425.67 143.62 424.68 140.99
  A 2.38 2.34 -78.2 0 0 424.14 140.15
  Q 415.14 130.84 411.83 128.69
  Q 408.01 126.21 404.49 123.82
  Q 399.34 120.32 393.66 116.90
  Q 404.55 121.45 411.84 127.16
  Q 421.81 134.97 430.61 146.68
  Q 431.89 148.38 430.36 149.43
  A 0.59 0.59 0.0 0 0 430.51 150.48
  L 433.46 151.41
  Z"
/>
<path fill="#030c13" d="
  M 88.38 133.21
  L 88.36 129.54
  L 88.38 133.21
  Z"
/>
<path fill="#030c13" d="
  M 126.98 133.26
  Q 126.75 132.88 126.73 132.47
  Q 127.09 132.86 126.98 133.26
  Z"
/>
<path fill="#acadad" d="
  M 250.90 149.39
  Q 254.24 154.93 254.63 156.12
  Q 256.21 161.07 257.76 164.90
  A 2.43 2.29 -57.3 0 1 257.92 165.76
  L 257.92 174.18
  A 0.41 0.41 0.0 0 1 257.11 174.30
  Q 255.79 170.01 255.60 166.60
  A 1.14 0.92 39.0 0 0 255.54 166.32
  L 249.73 149.56
  A 0.20 0.20 0.0 0 1 249.86 149.30
  L 250.27 149.16
  A 0.55 0.54 -24.4 0 1 250.90 149.39
  Z"
/>
<path fill="#030c13" d="
  M 88.61 150.21
  L 88.63 149.50
  L 88.61 150.21
  Z"
/>
<path fill="#030c13" d="
  M 131.98 150.72
  Q 131.74 150.50 131.81 149.79
  Q 132.03 150.23 131.98 150.72
  Z"
/>
<path fill="#030c13" d="
  M 88.61 152.46
  L 88.61 150.71
  L 88.61 152.46
  Z"
/>
<path fill="#030c13" d="
  M 132.57 152.37
  Q 132.77 151.30 133.02 153.35
  L 123.00 151.55
  L 132.57 152.37
  Z"
/>
<path fill="#030c13" d="
  M 437.45 152.14
  Q 435.73 152.31 434.29 151.57
  Q 436.02 151.41 437.45 152.14
  Z"
/>
<path fill="#030c13" d="
  M 97.46 152.07
  L 96.54 152.17
  L 97.46 152.07
  Z"
/>
<path fill="#030c13" d="
  M 441.89 152.93
  L 437.84 152.25
  Q 440.07 152.24 441.89 152.93
  Z"
/>
<path fill="#030c13" d="
  M 93.79 152.50
  Q 93.12 152.93 92.25 152.91
  Q 93.00 152.49 93.79 152.50
  Z"
/>
<path fill="#030c13" d="
  M 88.71 153.96
  Q 88.57 153.66 88.62 153.29
  L 88.71 153.96
  Z"
/>
<path fill="#030c13" d="
  M 166.84 164.71
  Q 162.18 167.93 157.89 171.65
  Q 135.35 191.23 121.10 207.34
  Q 118.90 209.83 116.83 212.28
  A 0.51 0.51 0.0 0 1 116.05 212.28
  L 115.81 212.01
  A 0.60 0.60 0.0 0 1 115.81 211.23
  Q 127.68 197.24 146.58 179.84
  Q 156.07 171.10 164.21 164.97
  Q 164.58 164.69 165.05 163.93
  Q 166.84 163.13 166.84 164.71
  Z"
/>
<path fill="#030c13" d="
  M 167.78 167.07
  L 161.46 172.21
  Q 164.13 167.50 167.78 167.07
  Z"
/>
<path fill="#030c13" d="
  M 89.16 212.00
  C 89.95 208.71 89.55 202.32 88.50 198.13
  Q 88.31 197.35 85.03 182.21
  Q 84.45 179.52 84.42 178.56
  A 0.56 0.26 -70.1 0 0 84.41 178.45
  L 82.57 170.63
  A 0.41 0.41 0.0 0 1 83.29 170.28
  Q 84.12 171.29 84.40 172.56
  A 1.13 1.12 2.9 0 0 85.15 173.38
  Q 85.20 173.40 85.37 173.45
  A 1.52 1.49 -9.9 0 1 86.08 173.94
  Q 89.02 177.61 93.37 180.42
  A 1.29 1.28 12.9 0 1 93.93 181.31
  Q 95.35 191.56 98.28 200.81
  A 0.85 0.83 -34.6 0 1 98.13 201.58
  L 89.38 212.11
  A 0.13 0.13 0.0 0 1 89.16 212.00
  Z"
/>
<path fill="#030c13" d="
  M 125.32 424.87
  Q 125.13 424.95 125.03 424.92
  A 1.16 1.15 17.3 0 1 124.30 423.54
  L 137.55 373.60
  A 1.64 1.20 62.8 0 0 137.59 373.35
  Q 137.72 371.75 138.52 369.95
  A 1.24 1.22 1.6 0 1 139.21 369.31
  Q 141.61 368.44 144.80 368.35
  A 4.83 4.72 -51.4 0 0 145.77 368.23
  Q 150.47 367.15 153.23 366.80
  Q 156.79 366.35 160.69 365.48
  Q 165.58 364.38 172.24 363.40
  Q 178.86 362.42 196.60 359.26
  Q 197.78 359.05 198.43 359.16
  Q 199.23 359.29 199.59 358.92
  Q 200.03 358.46 200.71 358.45
  Q 202.47 358.41 202.49 356.40
  A 0.54 0.53 3.9 0 1 203.09 355.88
  Q 205.00 356.14 207.86 355.26
  A 0.79 0.79 0.0 0 0 208.33 354.86
  L 208.78 353.97
  A 0.05 0.04 7.1 0 0 208.73 353.91
  L 203.25 354.83
  A 0.20 0.20 0.0 0 1 203.02 354.57
  L 214.11 318.95
  A 0.47 0.45 -84.6 0 1 214.48 318.63
  L 233.12 316.02
  A 1.56 1.55 -85.5 0 0 234.38 314.94
  L 240.80 294.34
  A 0.50 0.50 0.0 0 1 241.20 293.99
  L 256.42 291.44
  A 0.27 0.27 0.0 0 1 256.73 291.79
  L 253.95 300.72
  A 0.38 0.37 -74.2 0 0 254.21 301.19
  L 254.54 301.27
  A 0.70 0.70 0.0 0 0 255.39 300.80
  L 258.05 292.25
  A 1.60 1.59 -83.9 0 1 259.42 291.14
  L 278.02 289.29
  A 0.57 0.33 14.9 0 0 278.13 289.26
  Q 281.65 288.21 285.21 288.39
  A 0.35 0.34 19.2 0 0 285.51 288.25
  Q 285.72 287.99 285.65 287.79
  A 0.31 0.30 81.2 0 0 285.38 287.59
  Q 278.15 287.12 270.05 288.99
  A 5.08 4.80 36.3 0 1 269.01 289.12
  Q 264.57 289.24 259.23 290.19
  A 0.40 0.40 0.0 0 1 258.78 289.68
  L 260.32 284.74
  A 0.21 0.21 0.0 0 0 260.18 284.48
  L 259.87 284.39
  A 0.41 0.41 0.0 0 0 259.35 284.66
  L 257.87 289.41
  A 1.87 1.86 -83.3 0 1 256.22 290.72
  L 242.35 291.73
  A 0.33 0.33 0.0 0 1 242.01 291.31
  Q 246.10 277.75 247.68 273.46
  Q 249.55 268.36 250.04 265.17
  A 1.28 1.20 61.5 0 1 250.11 264.90
  L 255.20 250.27
  A 2.05 1.91 57.1 0 0 255.30 249.71
  Q 255.32 248.28 256.28 246.23
  A 0.08 0.08 0.0 0 1 256.43 246.23
  Q 256.48 246.32 256.51 246.49
  A 0.03 0.03 0.0 0 0 256.56 246.49
  L 260.91 232.12
  A 1.95 1.95 0.0 0 1 262.75 230.73
  L 277.12 230.53
  A 0.11 0.11 0.0 0 1 277.22 230.67
  L 271.57 247.54
  A 0.29 0.28 19.8 0 0 271.74 247.89
  L 272.69 248.27
  A 0.19 0.19 0.0 0 0 272.94 248.15
  L 278.46 230.42
  A 0.53 0.51 7.6 0 1 278.95 230.06
  Q 281.65 230.02 281.69 229.49
  C 281.83 227.73 282.74 226.25 283.22 224.89
  Q 286.70 214.91 288.64 208.74
  A 1.29 1.29 0.0 0 1 289.83 207.83
  L 325.79 206.36
  A 0.77 0.75 8.4 0 0 326.48 205.86
  L 334.18 184.02
  A 1.40 1.39 -80.3 0 1 335.48 183.09
  L 398.78 182.22
  A 0.49 0.49 0.0 0 1 399.22 182.96
  Q 397.15 186.46 396.74 189.59
  A 0.76 0.60 -38.0 0 1 396.70 189.75
  L 394.50 194.73
  A 0.10 0.09 36.3 0 0 394.52 194.84
  L 395.04 195.28
  A 0.23 0.23 0.0 0 0 395.40 195.19
  L 400.32 182.76
  A 1.40 1.39 -79.3 0 1 401.60 181.88
  L 429.42 181.50
  A 0.44 0.43 11.0 0 1 429.83 182.10
  L 427.08 188.51
  A 0.35 0.35 0.0 0 0 427.58 188.94
  Q 427.63 188.91 427.75 188.30
  A 0.20 0.20 0.0 0 1 428.11 188.23
  Q 428.18 188.32 428.23 188.53
  A 0.14 0.14 0.0 0 0 428.50 188.54
  L 431.18 181.78
  A 0.87 0.85 10.1 0 1 431.97 181.24
  L 457.95 180.88
  A 0.78 0.78 0.0 0 1 458.66 181.98
  L 452.03 196.25
  A 0.44 0.44 0.0 0 0 452.76 196.73
  Q 454.38 194.90 454.58 192.76
  A 1.86 1.85 68.5 0 1 455.02 191.74
  Q 455.04 191.72 455.10 191.64
  A 2.07 1.84 -15.1 0 0 455.46 191.09
  Q 457.41 186.51 459.51 182.03
  Q 460.13 180.69 460.91 180.68
  Q 466.86 180.60 470.78 180.59
  A 0.69 0.69 0.0 0 1 471.20 181.82
  Q 470.27 182.55 469.91 183.63
  Q 467.73 190.25 464.13 196.54
  A 0.80 0.79 22.0 0 1 463.24 196.91
  L 462.91 196.83
  A 0.30 0.30 0.0 0 0 462.55 197.20
  L 462.65 197.55
  A 0.32 0.32 0.0 0 1 462.48 197.91
  Q 462.34 197.97 462.19 198.03
  A 0.11 0.08 -55.4 0 0 462.19 198.22
  Q 462.54 198.09 462.88 198.13
  A 0.58 0.58 0.0 0 1 463.32 198.96
  L 462.91 199.76
  A 0.43 0.42 12.0 0 0 463.31 200.37
  L 488.00 199.37
  A 0.57 0.56 88.0 0 1 488.59 199.93
  L 488.60 200.72
  A 0.16 0.16 0.0 0 0 488.90 200.79
  Q 489.03 200.52 488.90 200.01
  A 0.93 0.92 -24.3 0 1 489.29 199.00
  Q 489.83 198.64 490.33 197.90
  A 0.93 0.93 0.0 0 0 489.52 196.45
  L 484.90 196.68
  A 0.41 0.33 64.4 0 1 484.63 196.55
  Q 484.61 196.52 484.57 196.51
  A 0.07 0.06 48.0 0 1 484.57 196.38
  L 490.19 196.13
  A 1.14 1.13 -80.1 0 1 491.29 197.70
  L 489.00 203.22
  A 0.67 0.14 -78.0 0 1 488.96 203.31
  L 484.10 212.97
  A 0.61 0.60 12.9 0 0 484.65 213.84
  L 494.57 213.70
  A 0.80 0.80 0.0 0 1 495.32 214.82
  Q 494.56 216.59 493.67 218.26
  Q 488.54 227.89 486.75 232.71
  Q 486.21 234.16 485.02 235.05
  A 1.54 1.51 84.8 0 0 484.57 235.60
  L 479.38 246.77
  A 0.77 0.75 85.9 0 1 479.11 247.09
  L 478.68 247.37
  A 0.71 0.71 0.0 0 0 478.43 248.27
  Q 478.90 249.28 478.36 249.86
  Q 475.94 252.46 474.44 256.91
  Q 473.79 258.86 472.64 262.02
  Q 472.42 262.61 470.62 266.51
  Q 469.33 269.30 468.36 270.86
  Q 465.72 275.11 463.94 280.18
  A 0.69 0.68 4.9 0 0 464.70 281.08
  L 473.55 279.60
  A 0.88 0.88 0.0 0 1 474.58 280.43
  Q 474.67 282.21 472.84 283.56
  A 1.83 1.81 -6.7 0 0 472.28 284.26
  Q 471.65 285.65 468.37 291.91
  Q 467.52 293.54 466.31 298.72
  A 1.90 1.57 -30.1 0 1 466.15 299.15
  L 460.55 310.21
  A 0.22 0.22 0.0 0 0 460.79 310.53
  L 492.07 305.29
  A 0.72 0.72 0.0 0 1 492.88 306.20
  Q 491.59 310.47 489.00 313.87
  A 1.22 1.19 67.9 0 0 488.76 314.46
  L 488.58 315.83
  A 1.41 1.41 0.0 0 1 488.34 316.47
  L 482.97 324.77
  A 0.73 0.60 -25.3 0 0 482.87 324.98
  L 481.27 329.94
  A 0.28 0.28 0.0 0 1 480.99 330.13
  Q 480.44 330.11 480.30 330.94
  Q 480.21 331.56 480.08 331.77
  Q 474.03 341.38 469.61 352.04
  A 6.61 6.49 -17.9 0 1 469.05 353.11
  Q 465.71 358.37 464.15 362.57
  A 2.00 1.98 -10.4 0 1 463.57 363.40
  Q 462.76 364.08 462.28 365.24
  Q 460.07 370.60 457.08 375.49
  A 1.96 1.63 -25.7 0 0 456.92 375.84
  L 454.51 382.69
  A 1.67 1.66 -13.4 0 1 454.14 383.29
  Q 452.85 384.68 452.58 386.18
  A 2.14 1.94 -29.7 0 1 452.39 386.76
  L 439.39 412.42
  A 3.91 3.90 -84.3 0 1 436.95 414.42
  L 428.60 416.73
  A 1.83 1.83 0.0 0 0 427.45 417.66
  Q 424.08 424.32 418.78 435.54
  C 417.95 437.29 416.26 441.57 414.07 442.13
  Q 405.47 444.32 397.30 447.77
  Q 396.21 448.23 394.62 448.37
  A 3.87 3.86 -79.1 0 0 391.52 450.47
  L 380.61 472.01
  A 0.60 0.59 -86.2 0 1 380.26 472.32
  L 370.79 475.73
  A 0.46 0.33 -54.2 0 1 370.67 475.77
  Q 363.94 477.02 359.29 479.55
  Q 357.28 480.64 356.37 483.09
  Q 354.67 487.66 353.13 489.90
  A 4.41 4.31 -17.8 0 0 352.67 490.77
  Q 351.14 494.60 349.22 498.17
  Q 347.74 500.93 347.36 502.37
  Q 346.92 504.04 345.29 504.14
  A 1.92 1.81 25.9 0 0 344.43 504.41
  Q 341.49 506.21 337.35 506.87
  A 0.97 0.94 -69.4 0 0 336.84 507.11
  Q 336.23 507.67 334.03 507.85
  Q 331.58 508.06 328.89 509.89
  A 2.42 2.39 -72.0 0 1 328.31 510.19
  L 325.25 511.20
  A 4.23 4.20 -86.5 0 0 322.76 513.42
  L 318.12 523.42
  A 2.97 2.94 1.2 0 1 316.54 524.92
  L 306.93 528.80
  A 1.61 1.56 -57.2 0 1 306.54 528.89
  Q 305.08 529.03 304.96 529.08
  Q 299.89 530.97 293.52 533.06
  A 0.83 0.83 0.0 0 1 292.49 531.96
  L 296.08 522.90
  A 0.49 0.48 87.1 0 0 295.41 522.29
  L 291.55 524.30
  A 0.85 0.83 -55.1 0 1 291.02 524.40
  Q 289.66 524.21 289.23 524.76
  A 1.17 1.11 8.3 0 1 288.72 525.12
  C 287.57 525.49 285.47 525.82 283.73 526.58
  Q 279.54 528.43 276.81 529.40
  A 0.92 0.90 0.6 0 0 276.28 529.91
  Q 276.09 530.36 276.15 530.88
  A 0.82 0.81 -13.3 0 1 275.62 531.73
  L 273.63 532.45
  A 0.41 0.41 0.0 0 1 273.13 531.87
  Q 273.54 531.14 272.82 530.66
  A 0.62 0.60 52.6 0 0 272.29 530.58
  Q 253.75 536.88 238.94 542.60
  Q 235.06 544.10 229.98 545.53
  Q 228.05 546.08 227.45 547.87
  Q 226.15 551.75 225.50 552.64
  Q 224.79 553.62 224.15 556.07
  Q 223.58 558.22 221.43 559.49
  A 0.80 0.79 19.1 0 1 221.26 559.57
  L 193.96 569.46
  A 0.77 0.77 0.0 0 1 192.97 568.51
  L 196.18 558.20
  A 0.49 0.48 -5.2 0 0 195.49 557.63
  Q 192.10 559.37 188.81 559.82
  A 0.60 0.07 -6.3 0 0 188.72 559.84
  L 166.49 568.06
  A 0.82 0.81 88.6 0 1 165.43 567.05
  L 172.95 542.89
  A 0.42 0.41 6.6 0 0 172.52 542.35
  Q 170.26 542.52 168.25 543.68
  A 0.73 0.62 16.0 0 1 168.05 543.77
  L 140.72 552.86
  A 1.11 1.11 0.0 0 1 139.31 551.48
  L 147.31 525.81
  A 0.62 0.62 0.0 0 0 146.50 525.04
  Q 143.34 526.20 133.51 529.18
  Q 126.02 531.45 122.61 532.61
  Q 116.24 534.77 111.29 535.69
  A 0.54 0.54 0.0 0 1 110.67 535.03
  L 117.93 507.13
  A 0.57 0.56 15.9 0 1 118.64 506.74
  L 118.91 506.82
  A 0.36 0.36 0.0 0 1 119.15 507.25
  L 112.75 531.82
  A 0.08 0.07 2.0 0 0 112.84 531.91
  L 114.26 531.68
  A 0.29 0.28 -86.4 0 0 114.48 531.48
  L 121.95 505.05
  A 0.61 0.61 0.0 0 1 122.39 504.61
  L 138.46 500.16
  A 0.36 0.36 0.0 0 0 138.40 499.45
  Q 137.43 499.36 136.48 499.68
  Q 130.75 501.59 124.84 503.02
  A 2.22 2.18 -69.1 0 0 124.05 503.38
  Q 123.29 503.93 122.91 503.61
  Q 121.88 502.73 120.36 503.06
  Q 113.14 504.67 103.07 508.15
  A 0.57 0.57 0.0 0 1 102.34 507.47
  L 114.31 461.51
  A 0.99 0.98 -0.5 0 1 115.01 460.80
  L 117.18 460.20
  A 0.19 0.19 0.0 0 0 117.24 459.86
  Q 116.56 459.41 116.35 459.52
  A 0.92 0.82 85.6 0 1 115.21 458.42
  Q 118.34 446.08 119.25 443.47
  Q 119.55 442.60 119.72 442.47
  A 0.41 0.41 0.0 0 0 119.80 441.90
  Q 119.54 441.56 120.18 439.70
  Q 120.21 439.59 123.85 425.69
  Q 124.04 424.98 125.29 424.75
  A 0.06 0.06 0.0 0 1 125.32 424.87
  Z
  M 427.2681 286.8887
  A 3.19 0.34 -2.0 0 0 424.0681 286.6602
  A 3.19 0.34 -2.0 0 0 420.8919 287.1113
  A 3.19 0.34 -2.0 0 0 424.0919 287.3398
  A 3.19 0.34 -2.0 0 0 427.2681 286.8887
  Z
  M 330.60 408.28
  Q 330.89 407.80 331.51 407.75
  Q 334.08 407.50 335.62 406.95
  A 3.18 3.17 3.8 0 0 337.34 405.45
  Q 339.52 401.34 342.64 393.72
  Q 346.86 383.42 349.27 378.61
  Q 349.83 377.49 350.33 375.13
  A 4.11 3.77 -28.5 0 1 350.65 374.20
  Q 352.50 370.42 355.69 363.64
  Q 357.10 360.63 355.42 359.19
  A 0.99 0.96 58.3 0 0 354.59 358.98
  Q 348.01 360.43 346.75 360.38
  Q 345.45 360.32 345.02 360.94
  A 0.84 0.84 0.0 0 1 344.34 361.29
  Q 341.21 361.25 337.69 362.38
  Q 335.77 363.00 332.17 363.50
  Q 329.36 363.89 326.62 365.02
  A 0.57 0.54 43.6 0 1 326.17 365.02
  Q 326.09 364.98 325.89 364.91
  A 1.04 1.02 -41.1 0 0 325.38 364.88
  L 315.76 366.60
  A 1.98 1.93 18.3 0 0 314.80 367.07
  Q 314.72 367.15 311.01 367.69
  A 1.03 1.03 0.0 0 0 310.21 368.30
  Q 308.02 373.39 304.82 381.26
  C 304.36 382.39 304.58 383.44 304.12 384.34
  Q 300.98 390.53 298.15 398.85
  Q 297.94 399.46 297.48 399.79
  Q 296.56 400.44 297.01 400.85
  A 0.30 0.30 0.0 0 1 297.09 401.19
  L 291.53 415.23
  A 1.89 1.88 -85.8 0 0 293.71 417.76
  Q 298.79 416.57 308.00 413.77
  Q 308.94 413.48 311.81 413.41
  A 3.08 2.68 33.0 0 0 312.45 413.32
  L 330.57 408.31
  A 0.07 0.07 0.0 0 0 330.60 408.28
  Z
  M 264.10 450.06
  Q 263.13 450.76 262.39 450.92
  Q 258.02 451.83 247.31 454.88
  Q 239.72 457.04 232.68 458.87
  A 0.94 0.90 5.0 0 0 232.11 459.33
  Q 230.49 462.59 230.50 463.20
  Q 230.51 464.30 228.60 469.13
  Q 225.82 476.18 223.65 482.77
  Q 221.90 488.08 221.56 488.38
  A 0.80 0.79 62.6 0 0 221.32 489.14
  Q 221.40 489.44 221.19 490.18
  Q 220.57 492.48 220.21 493.26
  Q 218.73 496.53 218.61 497.99
  A 0.29 0.23 -38.0 0 1 218.58 498.11
  L 211.75 515.36
  A 2.52 2.50 53.9 0 0 211.58 516.46
  Q 211.68 517.84 210.75 519.09
  A 3.86 3.76 -18.7 0 0 210.12 520.32
  Q 207.43 529.06 206.36 532.23
  Q 206.27 532.50 205.78 532.85
  A 1.12 1.10 -9.5 0 0 205.36 533.43
  L 202.59 541.87
  A 1.54 1.49 46.0 0 0 202.59 542.80
  Q 202.82 543.45 204.08 544.75
  A 0.75 0.74 53.8 0 0 204.96 544.89
  Q 206.55 544.02 220.03 539.53
  Q 225.75 537.62 232.30 534.62
  A 2.48 2.42 31.6 0 1 233.27 534.40
  Q 235.50 534.39 238.67 533.11
  Q 245.30 530.44 252.27 528.29
  Q 260.19 525.85 288.44 515.46
  A 0.95 0.93 -54.9 0 1 288.77 515.40
  Q 290.62 515.40 291.52 513.29
  Q 306.61 478.14 319.11 448.63
  Q 321.45 443.10 323.69 438.33
  A 2.45 2.43 -58.3 0 0 323.00 435.36
  C 321.72 434.35 320.05 435.33 318.76 435.40
  Q 317.61 435.46 316.28 435.89
  Q 310.03 437.88 302.33 439.82
  C 301.34 440.06 300.48 440.66 299.05 440.62
  A 1.90 1.84 -55.9 0 0 298.15 440.81
  Q 296.30 441.72 295.71 441.89
  Q 295.33 442.00 295.11 441.49
  A 0.28 0.28 0.0 0 0 294.60 441.49
  Q 294.19 442.43 292.98 442.34
  A 1.63 1.57 37.9 0 0 292.51 442.39
  L 276.59 446.82
  A 1.59 1.12 -55.0 0 0 276.37 446.90
  Q 275.23 447.52 273.20 447.62
  A 0.88 0.77 -48.9 0 0 272.98 447.65
  L 264.36 449.94
  A 0.94 0.91 19.3 0 0 264.10 450.06
  Z"
/>
<path fill="#030c13" d="
  M 185.54 184.57
  Q 184.81 184.91 184.19 186.13
  A 0.69 0.69 0.0 0 0 184.43 187.02
  Q 185.22 187.53 185.76 188.64
  A 0.45 0.45 0.0 0 1 185.36 189.29
  L 184.70 189.29
  A 0.95 0.93 81.0 0 1 183.81 188.63
  Q 183.55 187.80 182.90 187.23
  A 0.77 0.77 0.0 0 1 182.73 186.27
  L 183.85 184.33
  A 1.13 1.08 -78.5 0 1 184.63 183.79
  Q 188.35 183.15 189.14 186.84
  A 0.31 0.31 0.0 0 1 188.58 187.07
  Q 187.85 185.91 186.62 186.08
  A 0.52 0.52 0.0 0 1 186.07 185.35
  Q 186.12 185.22 186.16 185.12
  A 0.45 0.45 0.0 0 0 185.54 184.57
  Z"
/>
<path fill="#030c13" d="
  M 282.67 189.66
  L 286.71 192.22
  A 0.71 0.71 0.0 0 1 286.70 193.43
  Q 244.49 218.96 210.53 251.53
  Q 208.75 253.24 203.68 258.47
  A 1.35 1.23 -11.2 0 0 203.45 258.78
  L 193.80 276.19
  A 0.48 0.48 0.0 0 1 193.07 276.33
  Q 192.74 276.05 192.64 275.44
  A 0.66 0.64 -5.3 0 0 191.96 274.89
  Q 191.43 274.93 190.92 273.96
  A 0.48 0.48 0.0 0 0 190.18 273.81
  Q 189.66 274.25 188.66 274.07
  A 0.50 0.50 0.0 0 0 188.07 274.55
  Q 188.04 275.44 188.09 275.52
  Q 188.41 276.05 188.98 275.76
  Q 189.28 275.61 189.37 275.61
  A 0.85 0.84 -9.3 0 1 190.11 276.14
  Q 191.14 278.63 190.99 281.69
  A 0.44 0.44 0.0 0 1 190.34 282.06
  Q 185.11 279.18 181.13 273.34
  Q 179.84 271.44 180.18 269.18
  A 0.80 0.79 -71.0 0 1 181.36 268.60
  L 181.65 268.77
  A 1.33 1.33 0.0 0 1 182.28 270.24
  Q 181.55 273.19 184.08 275.35
  A 0.47 0.47 0.0 0 0 184.75 275.29
  L 188.22 271.12
  A 0.37 0.37 0.0 0 1 188.83 271.18
  Q 189.31 272.13 190.23 271.35
  A 0.80 0.79 84.5 0 0 190.45 271.08
  L 199.67 254.69
  A 3.72 3.67 -7.7 0 1 200.31 253.86
  L 209.47 244.62
  L 222.58 232.78
  A 0.99 0.91 -69.2 0 1 222.98 232.58
  Q 223.77 232.42 223.93 231.70
  Q 224.07 231.09 223.24 230.36
  Q 220.63 228.04 217.34 225.00
  A 0.41 0.38 30.0 0 1 217.23 224.63
  L 218.19 220.94
  A 0.27 0.27 0.0 0 1 218.64 220.81
  L 226.57 228.74
  A 0.77 0.77 0.0 0 0 227.59 228.80
  L 241.32 217.79
  L 249.46 211.93
  A 0.57 0.57 0.0 0 0 249.10 210.90
  L 230.36 211.95
  Q 229.65 211.94 228.84 211.37
  Q 238.07 209.40 244.75 208.66
  Q 252.25 207.83 255.12 207.44
  A 2.02 1.98 -65.0 0 0 255.97 207.12
  L 282.67 189.66
  Z"
/>
<path fill="#030c13" d="
  M 195.76 195.93
  A 0.72 0.61 20.1 0 1 194.60 196.36
  Q 191.20 193.55 194.86 191.32
  A 0.50 0.50 0.0 0 1 195.51 192.07
  L 194.20 193.65
  A 0.50 0.49 -62.0 0 0 194.44 194.44
  Q 195.64 194.81 195.76 195.93
  Z"
/>
<path fill="#030c13" d="
  M 199.18 193.78
  Q 199.34 195.59 198.46 195.10
  Q 198.63 194.61 198.45 193.99
  Q 198.04 192.58 196.11 193.68
  A 0.26 0.26 0.0 0 1 195.77 193.31
  Q 196.22 192.65 196.36 192.02
  A 0.88 0.87 16.5 0 1 197.53 191.39
  Q 198.29 191.68 199.18 193.78
  Z"
/>
<path fill="#030c13" d="
  M 178.23 196.36
  Q 177.60 197.07 177.52 197.40
  A 0.91 0.90 -76.9 0 0 178.19 198.48
  Q 178.47 198.55 178.50 198.57
  A 0.34 0.34 0.0 0 1 178.39 199.21
  Q 177.45 199.36 176.40 198.71
  A 1.40 1.38 -87.3 0 1 175.85 198.10
  Q 174.74 195.74 175.97 194.36
  Q 177.20 192.98 179.67 193.80
  A 1.40 1.38 -9.4 0 1 180.34 194.27
  Q 181.11 195.24 181.07 196.19
  A 0.34 0.34 0.0 0 1 180.45 196.37
  Q 180.43 196.35 180.33 196.08
  A 0.91 0.90 -19.9 0 0 179.17 195.54
  Q 178.85 195.66 178.23 196.36
  Z
  M 177.08 195.20
  Q 176.67 195.73 176.21 196.05
  A 0.38 0.38 0.0 0 0 176.49 196.75
  Q 177.32 196.60 177.91 195.83
  Q 178.50 195.05 178.42 194.21
  A 0.38 0.38 0.0 0 0 177.67 194.12
  Q 177.49 194.66 177.08 195.20
  Z"
/>
<path fill="#acadad" d="
  M 177.91 195.83
  Q 177.32 196.60 176.49 196.75
  A 0.38 0.38 0.0 0 1 176.21 196.05
  Q 176.67 195.73 177.08 195.20
  Q 177.49 194.66 177.67 194.12
  A 0.38 0.38 0.0 0 1 178.42 194.21
  Q 178.50 195.05 177.91 195.83
  Z"
/>
<path fill="#acadad" d="
  M 144.53 211.52
  A 0.42 0.42 0.0 0 1 144.58 210.92
  L 144.70 210.81
  A 25.29 1.05 -41.0 0 1 164.48 195.01
  L 164.49 195.03
  A 25.29 1.05 -41.0 0 1 146.09 212.41
  L 145.97 212.52
  A 0.42 0.42 0.0 0 1 145.37 212.48
  L 144.53 211.52
  Z"
/>
<path fill="#030c13" d="
  M 182.13 200.96
  Q 181.91 201.21 180.69 201.55
  A 0.32 0.32 0.0 0 1 180.30 201.12
  Q 180.45 200.75 181.10 200.03
  Q 181.75 199.30 182.11 199.12
  A 0.32 0.32 0.0 0 1 182.58 199.46
  Q 182.36 200.72 182.13 200.96
  Z"
/>
<path fill="#030c13" d="
  M 75.65 204.54
  L 75.59 210.18
  L 75.65 204.54
  Z"
/>
<path fill="#f9aa2f" d="
  M 241.32 217.79
  Q 239.98 215.82 237.93 215.43
  A 2.23 2.16 -17.2 0 1 236.84 214.88
  L 236.41 214.48
  A 3.03 3.02 -18.6 0 0 234.83 213.70
  Q 232.36 213.29 230.36 211.95
  L 249.10 210.90
  A 0.57 0.57 0.0 0 1 249.46 211.93
  L 241.32 217.79
  Z"
/>
<path fill="#acadad" d="
  M 228.84 211.37
  Q 229.65 211.94 230.36 211.95
  Q 232.36 213.29 234.83 213.70
  A 3.03 3.02 -18.6 0 1 236.41 214.48
  L 236.84 214.88
  A 2.23 2.16 -17.2 0 0 237.93 215.43
  Q 239.98 215.82 241.32 217.79
  L 227.59 228.80
  A 0.77 0.77 0.0 0 1 226.57 228.74
  L 218.64 220.81
  A 0.27 0.27 0.0 0 0 218.19 220.94
  L 217.23 224.63
  A 0.41 0.38 30.0 0 0 217.34 225.00
  Q 220.63 228.04 223.24 230.36
  Q 224.07 231.09 223.93 231.70
  Q 223.77 232.42 222.98 232.58
  A 0.99 0.91 -69.2 0 0 222.58 232.78
  L 209.47 244.62
  Q 207.59 233.20 199.73 225.03
  A 0.87 0.87 0.0 0 0 198.54 224.97
  L 197.22 226.10
  A 0.50 0.49 57.8 0 1 196.44 225.92
  Q 195.96 224.84 196.40 223.84
  Q 207.38 214.81 220.85 211.75
  A 3.13 2.92 35.7 0 1 221.40 211.68
  L 228.84 211.37
  Z"
/>
<path fill="#acadad" d="
  M 170.05 244.30
  A 0.35 0.35 0.0 0 1 169.53 244.77
  Q 160.41 236.71 145.35 223.64
  Q 142.50 221.16 141.94 217.46
  A 0.29 0.29 0.0 0 1 142.48 217.26
  L 145.22 221.65
  A 0.98 0.93 4.9 0 0 145.45 221.91
  L 166.07 239.04
  A 3.71 3.59 -89.1 0 1 166.69 239.70
  L 170.05 244.30
  Z"
/>
<path fill="#030c13" d="
  M 74.89 228.77
  Q 75.12 229.21 74.88 229.71
  L 74.89 228.77
  Z"
/>
<path fill="#030c13" d="
  M 73.54 234.04
  Q 72.75 234.30 72.67 234.07
  Q 72.81 234.22 73.54 234.04
  Z"
/>
<path fill="#acadad" d="
  M 151.16 259.77
  Q 150.05 260.67 149.26 260.36
  Q 144.50 258.50 139.91 256.03
  A 3.33 3.31 -83.7 0 1 138.28 253.99
  Q 137.12 249.80 134.48 246.65
  A 0.43 0.43 0.0 0 1 134.83 245.94
  L 135.45 245.97
  A 0.60 0.58 73.7 0 1 135.92 246.24
  L 139.79 252.19
  A 0.64 0.58 86.1 0 0 139.99 252.38
  L 151.11 259.02
  A 0.46 0.46 0.0 0 1 151.16 259.77
  Z"
/>
<path fill="#030c13" d="
  M 52.98 248.49
  L 51.77 254.72
  Q 51.55 251.65 52.98 248.49
  Z"
/>
<path fill="#030c13" d="
  M 497.80 251.25
  Q 496.54 252.29 496.42 253.28
  Q 495.78 253.04 495.76 252.61
  Q 495.73 252.19 496.30 251.86
  Q 496.97 251.47 497.80 251.25
  Z"
/>
<path fill="#030c13" d="
  M 500.69 253.92
  L 498.22 253.99
  Q 499.42 253.70 500.69 253.92
  Z"
/>
<path fill="#030c13" d="
  M 45.72 275.14
  Q 48.35 274.61 48.88 271.82
  Q 50.39 263.94 51.82 256.05
  Q 52.46 260.37 54.79 264.16
  A 0.87 0.85 43.0 0 1 54.83 264.99
  L 47.20 280.04
  A 0.18 0.18 0.0 0 1 46.86 279.97
  Q 46.75 278.43 47.65 276.76
  A 1.00 1.00 0.0 0 0 46.89 275.29
  L 45.72 275.14
  Z"
/>
<path fill="#030c13" d="
  M 502.52 256.22
  Q 502.92 261.89 501.86 266.83
  Q 501.67 267.75 501.67 270.97
  A 5.88 5.83 51.9 0 1 501.51 272.33
  Q 499.93 278.92 501.93 284.83
  Q 494.93 290.96 486.78 295.63
  A 0.32 0.32 0.0 0 1 486.30 295.32
  L 488.93 266.10
  A 1.82 1.81 -14.4 0 1 489.72 264.77
  L 502.52 256.22
  Z
  M 492.85 267.88
  A 1.40 1.39 -8.0 0 0 494.80 269.34
  C 496.86 268.42 500.25 265.19 498.44 262.73
  Q 497.50 261.46 495.77 263.00
  Q 495.76 263.01 495.75 263.02
  L 492.66 267.53
  A 0.05 0.05 0.0 0 0 492.66 267.59
  Q 492.86 267.86 492.85 267.88
  Z
  M 496.1123 274.7008
  A 2.18 1.48 -46.8 0 0 493.5411 275.2769
  A 2.18 1.48 -46.8 0 0 493.1277 277.8792
  A 2.18 1.48 -46.8 0 0 495.6989 277.3031
  A 2.18 1.48 -46.8 0 0 496.1123 274.7008
  Z
  M 494.51 282.83
  L 490.93 286.98
  A 0.80 0.80 0.0 0 0 491.01 288.11
  L 491.57 288.59
  A 2.59 2.32 -49.2 0 0 495.02 288.15
  L 496.26 286.71
  A 2.59 2.32 -49.2 0 0 496.20 283.24
  L 495.64 282.75
  A 0.80 0.80 0.0 0 0 494.51 282.83
  Z"
/>
<path fill="#030c13" d="
  M 175.86 259.11
  Q 176.84 262.35 174.52 263.15
  A 1.22 1.20 3.7 0 0 173.84 263.74
  Q 173.25 264.92 172.14 265.72
  L 175.86 259.11
  Z"
/>
<path fill="#acadad" d="
  M 492.85 267.88
  Q 492.86 267.86 492.66 267.59
  A 0.05 0.05 0.0 0 1 492.66 267.53
  L 495.75 263.02
  Q 495.76 263.01 495.77 263.00
  Q 497.50 261.46 498.44 262.73
  C 500.25 265.19 496.86 268.42 494.80 269.34
  A 1.40 1.39 -8.0 0 1 492.85 267.88
  Z"
/>
<ellipse fill="#acadad" cx="0.00" cy="0.00" transform="translate(494.62,276.29) rotate(-46.8)" rx="2.18" ry="1.48"/>
<path fill="#030c13" d="
  M 39.65 280.96
  Q 39.78 282.03 39.49 282.96
  L 39.65 280.96
  Z"
/>
<path fill="#f9aa2f" d="
  M 183.47 282.81
  Q 182.89 282.77 182.88 283.35
  Q 182.87 283.68 183.29 284.04
  Q 184.24 284.86 184.34 285.51
  A 0.61 0.61 0.0 0 1 183.29 286.03
  L 181.28 283.92
  A 0.72 0.71 64.0 0 1 181.69 282.72
  Q 182.34 282.62 182.70 282.13
  A 0.27 0.27 0.0 0 1 183.12 282.11
  L 183.56 282.63
  A 0.11 0.11 0.0 0 1 183.47 282.81
  Z"
/>
<path fill="#acadad" d="
  M 494.51 282.83
  A 0.80 0.80 0.0 0 1 495.64 282.75
  L 496.20 283.24
  A 2.59 2.32 -49.2 0 1 496.26 286.71
  L 495.02 288.15
  A 2.59 2.32 -49.2 0 1 491.57 288.59
  L 491.01 288.11
  A 0.80 0.80 0.0 0 1 490.93 286.98
  L 494.51 282.83
  Z"
/>
<path fill="#030c13" d="
  M 39.40 283.22
  Q 39.55 284.94 38.80 286.23
  Q 38.80 284.74 39.40 283.22
  Z"
/>
<path fill="#acadad" d="
  M 108.74 295.12
  Q 110.33 288.64 114.62 283.82
  A 0.68 0.68 0.0 0 1 115.44 283.66
  L 129.46 290.76
  A 0.49 0.49 0.0 0 1 129.19 291.69
  L 120.70 290.93
  A 0.52 0.52 0.0 0 0 120.50 291.94
  L 130.17 294.95
  A 0.46 0.45 -36.2 0 1 130.03 295.84
  L 109.31 295.84
  A 0.59 0.58 6.9 0 1 108.74 295.12
  Z"
/>
<ellipse fill="#acadad" cx="0.00" cy="0.00" transform="translate(424.08,287.00) rotate(-2.0)" rx="3.19" ry="0.34"/>
<path fill="#030c13" d="
  M 206.70 292.24
  L 210.11 288.13
  A 1.19 1.19 0.0 0 1 211.89 288.07
  Q 213.12 289.35 214.78 289.80
  A 0.66 0.66 0.0 0 1 215.05 290.93
  Q 212.03 293.62 210.99 296.45
  A 0.41 0.41 0.0 0 1 210.34 296.63
  Q 209.60 296.00 209.40 294.87
  A 0.68 0.68 0.0 0 0 208.84 294.31
  Q 208.10 294.19 206.83 293.28
  A 0.72 0.72 0.0 0 1 206.70 292.24
  Z
  M 212.58 291.44
  Q 212.77 290.95 212.60 290.64
  A 0.14 0.14 0.0 0 0 212.37 290.62
  Q 212.14 290.90 212.14 291.36
  A 0.23 0.23 0.0 0 0 212.58 291.44
  Z"
/>
<path fill="#030c13" d="
  M 184.59 288.92
  Q 185.03 289.55 184.03 290.67
  A 0.62 0.61 -49.0 0 1 183.18 290.74
  Q 182.93 290.53 182.71 290.22
  Q 182.50 289.91 182.39 289.61
  A 0.62 0.61 -20.4 0 1 182.75 288.83
  Q 184.16 288.29 184.59 288.92
  Z"
/>
<path fill="#acadad" d="
  M 212.14 291.36
  Q 212.14 290.90 212.37 290.62
  A 0.14 0.14 0.0 0 1 212.60 290.64
  Q 212.77 290.95 212.58 291.44
  A 0.23 0.23 0.0 0 1 212.14 291.36
  Z"
/>
<path fill="#030c13" d="
  M 34.04 291.79
  Q 33.16 292.25 31.71 291.94
  L 34.04 291.79
  Z"
/>
<path fill="#030c13" d="
  M 31.08 292.04
  Q 30.45 292.49 28.75 292.26
  Q 29.68 291.68 31.08 292.04
  Z"
/>
<path fill="#030c13" d="
  M 24.82 292.82
  Q 22.25 293.59 19.42 293.21
  Q 22.01 292.49 24.82 292.82
  Z"
/>
<path fill="#030c13" d="
  M 14.25 293.61
  L 12.51 293.67
  L 14.25 293.61
  Z"
/>
<path fill="#030c13" d="
  M 204.48 301.57
  Q 203.92 300.03 203.07 299.51
  A 1.19 1.18 -60.9 0 1 202.63 297.95
  L 202.64 297.93
  A 0.78 0.78 0.0 0 1 203.86 297.72
  Q 205.47 299.19 205.28 301.47
  A 0.41 0.41 0.0 0 1 204.48 301.57
  Z"
/>
<path fill="#030c13" d="
  M 194.20 305.46
  Q 193.72 305.53 193.61 304.97
  A 0.65 0.65 0.0 0 1 193.64 304.60
  L 194.62 302.13
  A 1.11 1.11 0.0 0 1 196.30 301.64
  Q 197.78 302.70 198.98 302.84
  A 0.60 0.60 0.0 0 1 199.08 304.01
  L 194.20 305.46
  Z
  M 196.12 302.70
  Q 195.75 302.73 195.51 303.04
  Q 195.19 303.45 195.41 303.90
  Q 195.66 304.39 196.19 304.21
  Q 196.67 304.05 196.70 303.39
  A 0.65 0.54 89.9 0 0 196.12 302.70
  Z"
/>
<path fill="#030c13" d="
  M 163.96 315.54
  A 0.09 0.08 9.7 0 1 164.02 315.62
  L 163.98 316.36
  A 0.35 0.34 19.5 0 1 163.42 316.62
  L 161.80 315.42
  A 0.33 0.33 0.0 0 0 161.36 315.90
  Q 163.68 318.51 162.67 321.87
  A 0.28 0.28 0.0 0 1 162.12 321.77
  Q 162.48 314.99 156.07 314.02
  Q 154.31 313.75 152.54 315.24
  A 0.06 0.05 22.5 0 1 152.48 315.26
  L 152.14 315.18
  A 0.25 0.25 0.0 0 1 152.02 314.75
  C 154.82 312.23 156.33 313.43 158.97 313.58
  A 0.27 0.26 64.7 0 0 159.14 313.10
  L 154.64 309.78
  A 0.26 0.26 0.0 0 1 154.62 309.38
  L 155.73 308.43
  A 0.66 0.66 0.0 0 0 155.80 307.50
  L 151.20 302.16
  A 0.17 0.17 0.0 0 1 151.21 301.93
  L 151.22 301.93
  A 0.15 0.15 0.0 0 1 151.43 301.94
  Q 158.55 309.95 162.52 314.72
  Q 162.74 314.98 163.96 315.54
  Z"
/>
<path fill="#acadad" d="
  M 196.12 302.70
  A 0.65 0.54 89.9 0 1 196.70 303.39
  Q 196.67 304.05 196.19 304.21
  Q 195.66 304.39 195.41 303.90
  Q 195.19 303.45 195.51 303.04
  Q 195.75 302.73 196.12 302.70
  Z"
/>
<path fill="#f9aa2f" d="
  M 194.20 305.46
  Q 197.63 305.48 198.46 308.15
  A 0.67 0.67 0.0 0 1 197.69 309.00
  Q 194.80 308.43 194.20 305.46
  Z"
/>
<path fill="#030c13" d="
  M 82.40 319.42
  A 0.45 0.44 85.4 0 1 81.93 319.98
  L 81.62 319.95
  A 0.86 0.84 80.9 0 1 80.90 319.42
  Q 80.30 317.90 79.81 317.42
  A 0.81 0.81 0.0 0 1 79.67 316.45
  Q 81.12 313.78 83.88 314.54
  Q 84.93 314.84 85.53 316.23
  Q 85.90 317.09 85.54 317.46
  A 0.30 0.30 0.0 0 1 85.04 317.36
  Q 84.93 317.03 84.91 317.01
  A 1.42 1.38 -52.6 0 0 82.53 317.36
  Q 82.11 318.34 82.40 319.42
  Z
  M 81.65 316.32
  Q 81.02 316.84 80.99 316.96
  A 0.66 0.58 -23.1 0 0 82.14 317.34
  Q 82.54 316.83 82.34 316.44
  Q 82.10 315.96 81.65 316.32
  Z"
/>
<path fill="#acadad" d="
  M 82.34 316.44
  Q 82.54 316.83 82.14 317.34
  A 0.66 0.58 -23.1 0 1 80.99 316.96
  Q 81.02 316.84 81.65 316.32
  Q 82.10 315.96 82.34 316.44
  Z"
/>
<ellipse fill="#f9aa2f" cx="0.00" cy="0.00" transform="translate(184.72,320.49) rotate(-136.4)" rx="2.07" ry="0.67"/>
<path fill="#030c13" d="
  M 74.94 328.83
  Q 74.38 328.97 73.67 328.79
  C 71.16 326.20 72.83 323.22 76.31 323.72
  A 1.52 1.46 71.1 0 1 77.17 324.16
  Q 78.16 325.18 78.59 326.35
  A 0.39 0.39 0.0 0 1 77.93 326.73
  L 77.18 325.85
  A 0.82 0.81 53.7 0 0 76.15 325.69
  Q 74.61 326.64 74.94 328.83
  Z"
/>
<ellipse fill="#030c13" cx="0.00" cy="0.00" transform="translate(152.87,326.63) rotate(-166.1)" rx="1.36" ry="0.85"/>
<path fill="#f9aa2f" d="
  M 167.18 341.65
  Q 165.96 342.21 165.16 343.82
  A 0.70 0.69 -63.8 0 1 164.24 344.14
  L 142.43 334.01
  A 1.47 1.46 -54.1 0 0 140.82 334.27
  Q 133.99 340.58 125.94 347.19
  Q 123.24 349.41 122.49 350.76
  Q 119.57 355.98 116.88 360.32
  Q 116.68 360.64 116.83 361.27
  Q 115.28 362.03 114.24 363.15
  Q 113.41 364.05 113.05 366.04
  Q 112.62 368.46 111.60 371.00
  L 108.99 376.17
  Q 107.46 376.86 107.79 378.52
  Q 107.28 378.35 106.94 378.99
  Q 105.35 382.03 105.00 384.52
  L 102.01 391.09
  Q 99.50 394.24 98.95 398.28
  L 94.71 409.74
  Q 93.36 410.87 94.07 411.85
  L 88.72 429.54
  Q 87.34 430.69 87.89 432.83
  L 84.48 446.63
  L 73.85 454.14
  A 1.24 1.24 0.0 0 1 72.95 454.34
  Q 68.21 453.47 66.57 449.69
  Q 65.09 446.30 63.61 445.73
  Q 60.64 437.89 59.06 428.76
  Q 59.61 429.02 59.78 428.88
  Q 60.19 428.56 60.09 427.98
  Q 58.72 419.30 58.64 410.67
  Q 58.62 407.33 59.40 393.32
  Q 60.35 376.42 63.71 359.74
  Q 63.64 355.99 65.74 351.97
  A 0.94 0.94 0.0 0 1 66.62 351.47
  L 79.45 352.11
  A 0.66 0.65 16.4 0 0 80.05 351.79
  L 80.06 351.77
  A 0.54 0.54 0.0 0 0 79.63 351.05
  L 67.81 349.23
  A 0.36 0.30 -50.2 0 0 67.59 349.27
  L 66.67 349.79
  A 0.37 0.37 0.0 0 1 66.16 349.33
  L 73.67 328.79
  Q 74.38 328.97 74.94 328.83
  Q 75.44 329.83 76.48 330.49
  Q 80.13 332.79 84.77 333.04
  Q 85.69 334.35 86.80 333.70
  Q 88.90 333.90 89.80 331.57
  Q 90.15 330.70 89.13 329.43
  A 0.94 0.93 -21.4 0 0 88.32 329.08
  Q 86.79 329.19 85.55 328.68
  L 85.59 326.95
  A 0.46 0.46 0.0 0 1 86.18 326.52
  C 88.92 327.35 90.89 327.91 93.98 328.28
  C 103.26 329.40 119.83 330.42 130.06 331.87
  C 133.53 332.36 136.66 332.16 140.09 333.02
  Q 141.62 333.40 143.56 333.51
  Q 147.23 333.70 152.92 334.11
  Q 154.67 334.24 156.75 334.75
  A 0.83 0.83 0.0 0 1 157.20 335.02
  L 160.42 338.77
  A 1.03 0.88 -4.7 0 0 160.77 339.02
  L 167.18 341.65
  Z
  M 69.27 415.81
  Q 70.03 414.90 71.66 414.86
  A 0.42 0.41 1.5 0 0 72.07 414.48
  L 72.10 414.19
  A 0.55 0.55 0.0 0 0 71.52 413.60
  Q 68.86 413.79 66.36 414.76
  A 3.04 2.87 30.8 0 1 65.46 414.96
  Q 63.59 415.10 60.89 414.36
  A 0.29 0.28 79.0 0 0 60.59 414.81
  C 62.39 417.25 66.19 417.10 68.75 416.17
  A 1.21 1.20 9.9 0 0 69.27 415.81
  Z"
/>
<path fill="#030c13" d="
  M 85.55 328.68
  Q 86.79 329.19 88.32 329.08
  A 0.94 0.93 -21.4 0 1 89.13 329.43
  Q 90.15 330.70 89.80 331.57
  Q 88.66 330.24 87.25 331.15
  Q 85.85 332.05 86.80 333.70
  Q 85.69 334.35 84.77 333.04
  Q 83.27 330.14 85.55 328.68
  Z
  M 86.3383 330.9371
  A 0.70 0.45 -14.3 0 0 85.5489 330.6739
  A 0.70 0.45 -14.3 0 0 84.9817 331.2829
  A 0.70 0.45 -14.3 0 0 85.7711 331.5461
  A 0.70 0.45 -14.3 0 0 86.3383 330.9371
  Z"
/>
<ellipse fill="#acadad" cx="0.00" cy="0.00" transform="translate(85.66,331.11) rotate(-14.3)" rx="0.70" ry="0.45"/>
<path fill="#acadad" d="
  M 89.80 331.57
  Q 88.90 333.90 86.80 333.70
  Q 85.85 332.05 87.25 331.15
  Q 88.66 330.24 89.80 331.57
  Z"
/>
<path fill="#030c13" d="
  M 167.18 341.65
  L 171.52 343.75
  A 0.22 0.21 -59.4 0 1 171.60 344.07
  L 168.52 348.24
  A 0.35 0.35 0.0 0 1 168.09 348.35
  L 146.07 338.12
  A 1.15 1.14 -53.1 0 0 144.84 338.30
  Q 137.28 344.98 128.48 352.49
  Q 127.00 353.75 125.83 355.78
  Q 119.64 366.48 113.51 377.28
  L 117.54 368.31
  A 2.13 1.88 81.2 0 1 117.84 367.84
  Q 119.81 365.57 121.11 362.98
  A 0.89 0.87 -51.0 0 0 121.02 362.03
  Q 120.05 360.78 119.31 360.03
  Q 118.54 359.27 117.80 359.84
  Q 117.25 360.27 116.83 361.27
  Q 116.68 360.64 116.88 360.32
  Q 119.57 355.98 122.49 350.76
  Q 123.24 349.41 125.94 347.19
  Q 133.99 340.58 140.82 334.27
  A 1.47 1.46 -54.1 0 1 142.43 334.01
  L 164.24 344.14
  A 0.70 0.69 -63.8 0 0 165.16 343.82
  Q 165.96 342.21 167.18 341.65
  Z
  M 169.21 344.33
  Q 168.24 344.95 168.19 345.08
  A 0.28 0.28 0.0 0 0 168.58 345.43
  Q 169.68 344.85 169.70 344.64
  A 0.32 0.32 0.0 0 0 169.21 344.33
  Z"
/>
<path fill="#acadad" d="
  M 169.70 344.64
  Q 169.68 344.85 168.58 345.43
  A 0.28 0.28 0.0 0 1 168.19 345.08
  Q 168.24 344.95 169.21 344.33
  A 0.32 0.32 0.0 0 1 169.70 344.64
  Z"
/>
<path fill="#030c13" d="
  M 27.44 388.11
  Q 26.17 381.76 23.48 376.00
  A 2.38 2.38 0.0 0 1 23.31 374.46
  Q 26.59 359.43 26.46 345.67
  Q 27.25 345.74 27.36 347.49
  Q 27.54 350.35 25.98 361.55
  Q 25.10 367.83 25.69 378.20
  A 4.06 4.05 -57.0 0 0 25.91 379.25
  Q 27.47 383.50 27.44 388.11
  Z"
/>
<path fill="#acadad" d="
  M 330.57 408.31
  L 312.45 413.32
  A 3.08 2.68 33.0 0 1 311.81 413.41
  Q 308.94 413.48 308.00 413.77
  Q 298.79 416.57 293.71 417.76
  A 1.89 1.88 -85.8 0 1 291.53 415.23
  L 297.09 401.19
  A 0.30 0.30 0.0 0 0 297.01 400.85
  Q 296.56 400.44 297.48 399.79
  Q 297.94 399.46 298.15 398.85
  Q 300.98 390.53 304.12 384.34
  C 304.58 383.44 304.36 382.39 304.82 381.26
  Q 308.02 373.39 310.21 368.30
  A 1.03 1.03 0.0 0 1 311.01 367.69
  Q 314.72 367.15 314.80 367.07
  A 1.98 1.93 18.3 0 1 315.76 366.60
  L 325.38 364.88
  A 1.04 1.02 -41.1 0 1 325.89 364.91
  Q 326.09 364.98 326.17 365.02
  A 0.57 0.54 43.6 0 0 326.62 365.02
  Q 329.36 363.89 332.17 363.50
  Q 335.77 363.00 337.69 362.38
  Q 341.21 361.25 344.34 361.29
  A 0.84 0.84 0.0 0 0 345.02 360.94
  Q 345.45 360.32 346.75 360.38
  Q 348.01 360.43 354.59 358.98
  A 0.99 0.96 58.3 0 1 355.42 359.19
  Q 357.10 360.63 355.69 363.64
  Q 352.50 370.42 350.65 374.20
  A 4.11 3.77 -28.5 0 0 350.33 375.13
  Q 349.83 377.49 349.27 378.61
  Q 346.86 383.42 342.64 393.72
  Q 339.52 401.34 337.34 405.45
  A 3.18 3.17 3.8 0 1 335.62 406.95
  Q 334.08 407.50 331.51 407.75
  Q 330.89 407.80 330.60 408.28
  A 0.07 0.07 0.0 0 1 330.57 408.31
  Z
  M 347.07 369.90
  L 347.52 368.28
  A 0.51 0.51 0.0 0 0 346.75 367.72
  L 346.06 368.17
  A 0.59 0.58 67.3 0 0 345.81 368.79
  Q 345.98 369.56 346.54 370.05
  A 0.33 0.32 28.7 0 0 347.07 369.90
  Z
  M 304.16 408.52
  L 302.48 407.90
  A 0.20 0.17 49.7 0 0 302.42 407.89
  Q 301.51 407.89 301.33 409.13
  A 0.41 0.40 84.6 0 0 301.86 409.57
  L 304.15 408.81
  A 0.16 0.15 -43.7 0 0 304.16 408.52
  Z"
/>
<path fill="#030c13" d="
  M 59.06 428.76
  Q 56.75 413.59 56.84 407.75
  Q 57.06 393.63 58.10 387.62
  Q 58.60 384.74 58.68 382.93
  A 5.29 0.72 87.9 0 1 58.86 381.09
  Q 60.44 372.41 62.11 364.13
  Q 62.59 361.78 63.71 359.74
  Q 60.35 376.42 59.40 393.32
  Q 58.62 407.33 58.64 410.67
  Q 58.72 419.30 60.09 427.98
  Q 60.19 428.56 59.78 428.88
  Q 59.61 429.02 59.06 428.76
  Z"
/>
<path fill="#030c13" d="
  M 116.83 361.27
  L 114.94 365.93
  A 1.67 1.67 0.0 0 1 114.53 366.52
  L 114.19 366.84
  A 1.12 1.08 -13.1 0 0 113.86 367.35
  Q 113.21 369.30 111.60 371.00
  Q 112.62 368.46 113.05 366.04
  Q 113.41 364.05 114.24 363.15
  Q 115.28 362.03 116.83 361.27
  Z"
/>
<path fill="#030c13" d="
  M 144.36 366.41
  L 136.92 367.66
  A 0.26 0.26 0.0 0 0 136.71 367.85
  L 99.62 510.35
  A 0.26 0.26 0.0 0 1 99.30 510.54
  L 98.86 510.42
  A 0.26 0.26 0.0 0 1 98.68 510.11
  L 135.93 366.99
  A 0.26 0.26 0.0 0 1 136.14 366.80
  L 144.20 365.45
  A 0.26 0.26 0.0 0 1 144.50 365.67
  L 144.58 366.11
  A 0.26 0.26 0.0 0 1 144.36 366.41
  Z"
/>
<path fill="#030c13" d="
  M 346.54 370.05
  Q 345.98 369.56 345.81 368.79
  A 0.59 0.58 67.3 0 1 346.06 368.17
  L 346.75 367.72
  A 0.51 0.51 0.0 0 1 347.52 368.28
  L 347.07 369.90
  A 0.33 0.32 28.7 0 1 346.54 370.05
  Z"
/>
<path fill="#030c13" d="
  M 108.99 376.17
  Q 108.58 377.56 107.79 378.52
  Q 107.46 376.86 108.99 376.17
  Z"
/>
<path fill="#030c13" d="
  M 113.51 377.28
  Q 113.08 378.81 112.01 380.04
  Q 112.52 378.36 113.51 377.28
  Z"
/>
<path fill="#030c13" d="
  M 107.79 378.52
  L 105.00 384.52
  Q 105.35 382.03 106.94 378.99
  Q 107.28 378.35 107.79 378.52
  Z"
/>
<path fill="#030c13" d="
  M 109.93 384.20
  Q 109.88 385.67 108.71 386.78
  L 109.93 384.20
  Z"
/>
<path fill="#030c13" d="
  M 29.22 397.79
  Q 28.55 396.47 28.35 394.99
  Q 28.17 393.54 27.80 392.12
  Q 27.31 390.27 27.58 388.28
  L 29.22 397.79
  Z"
/>
<path fill="#030c13" d="
  M 102.01 391.09
  L 98.95 398.28
  Q 99.50 394.24 102.01 391.09
  Z"
/>
<path fill="#030c13" d="
  M 29.38 399.74
  L 29.32 398.54
  L 29.38 399.74
  Z"
/>
<path fill="#030c13" d="
  M 30.50 403.74
  Q 30.15 403.47 30.22 402.53
  Q 30.80 402.47 30.50 403.74
  Z"
/>
<path fill="#030c13" d="
  M 304.15 408.81
  L 301.86 409.57
  A 0.41 0.40 84.6 0 1 301.33 409.13
  Q 301.51 407.89 302.42 407.89
  A 0.20 0.17 49.7 0 1 302.48 407.90
  L 304.16 408.52
  A 0.16 0.15 -43.7 0 1 304.15 408.81
  Z"
/>
<path fill="#030c13" d="
  M 32.25 410.45
  Q 32.05 410.17 32.05 409.72
  L 32.25 410.45
  Z"
/>
<path fill="#030c13" d="
  M 94.71 409.74
  Q 94.68 410.82 94.07 411.85
  Q 93.36 410.87 94.71 409.74
  Z"
/>
<path fill="#acadad" d="
  M 68.75 416.17
  C 66.19 417.10 62.39 417.25 60.59 414.81
  A 0.29 0.28 79.0 0 1 60.89 414.36
  Q 63.59 415.10 65.46 414.96
  A 3.04 2.87 30.8 0 0 66.36 414.76
  Q 68.86 413.79 71.52 413.60
  A 0.55 0.55 0.0 0 1 72.10 414.19
  L 72.07 414.48
  A 0.42 0.41 1.5 0 1 71.66 414.86
  Q 70.03 414.90 69.27 415.81
  A 1.21 1.20 9.9 0 1 68.75 416.17
  Z"
/>
<path fill="#030c13" d="
  M 33.96 416.71
  Q 33.55 415.83 33.52 414.80
  Q 33.92 415.74 33.96 416.71
  Z"
/>
<path fill="#030c13" d="
  M 34.91 420.05
  Q 34.53 419.28 34.52 418.50
  Q 35.07 419.04 34.91 420.05
  Z"
/>
<path fill="#030c13" d="
  M 88.72 429.54
  Q 88.62 431.26 87.89 432.83
  Q 87.34 430.69 88.72 429.54
  Z"
/>
<path fill="#acadad" d="
  M 264.36 449.94
  L 272.98 447.65
  A 0.88 0.77 -48.9 0 1 273.20 447.62
  Q 275.23 447.52 276.37 446.90
  A 1.59 1.12 -55.0 0 1 276.59 446.82
  L 292.51 442.39
  A 1.63 1.57 37.9 0 1 292.98 442.34
  Q 294.19 442.43 294.60 441.49
  A 0.28 0.28 0.0 0 1 295.11 441.49
  Q 295.33 442.00 295.71 441.89
  Q 296.30 441.72 298.15 440.81
  A 1.90 1.84 -55.9 0 1 299.05 440.62
  C 300.48 440.66 301.34 440.06 302.33 439.82
  Q 310.03 437.88 316.28 435.89
  Q 317.61 435.46 318.76 435.40
  C 320.05 435.33 321.72 434.35 323.00 435.36
  A 2.45 2.43 -58.3 0 1 323.69 438.33
  Q 321.45 443.10 319.11 448.63
  Q 306.61 478.14 291.52 513.29
  Q 290.62 515.40 288.77 515.40
  A 0.95 0.93 -54.9 0 0 288.44 515.46
  Q 260.19 525.85 252.27 528.29
  Q 245.30 530.44 238.67 533.11
  Q 235.50 534.39 233.27 534.40
  A 2.48 2.42 31.6 0 0 232.30 534.62
  Q 225.75 537.62 220.03 539.53
  Q 206.55 544.02 204.96 544.89
  A 0.75 0.74 53.8 0 1 204.08 544.75
  Q 202.82 543.45 202.59 542.80
  A 1.54 1.49 46.0 0 1 202.59 541.87
  L 205.36 533.43
  A 1.12 1.10 -9.5 0 1 205.78 532.85
  Q 206.27 532.50 206.36 532.23
  Q 207.43 529.06 210.12 520.32
  A 3.86 3.76 -18.7 0 1 210.75 519.09
  Q 211.68 517.84 211.58 516.46
  A 2.52 2.50 53.9 0 1 211.75 515.36
  L 218.58 498.11
  A 0.29 0.23 -38.0 0 0 218.61 497.99
  Q 218.73 496.53 220.21 493.26
  Q 220.57 492.48 221.19 490.18
  Q 221.40 489.44 221.32 489.14
  A 0.80 0.79 62.6 0 1 221.56 488.38
  Q 221.90 488.08 223.65 482.77
  Q 225.82 476.18 228.60 469.13
  Q 230.51 464.30 230.50 463.20
  Q 230.49 462.59 232.11 459.33
  A 0.94 0.90 5.0 0 1 232.68 458.87
  Q 239.72 457.04 247.31 454.88
  Q 258.02 451.83 262.39 450.92
  Q 263.13 450.76 264.10 450.06
  A 0.94 0.91 19.3 0 1 264.36 449.94
  Z
  M 288.5596 463.8623
  A 1.97 0.90 -83.6 0 0 287.4456 465.7197
  A 1.97 0.90 -83.6 0 0 288.1204 467.7777
  A 1.97 0.90 -83.6 0 0 289.2344 465.9203
  A 1.97 0.90 -83.6 0 0 288.5596 463.8623
  Z"
/>
<path fill="#030c13" d="
  M 84.48 446.63
  L 82.69 455.25
  A 4.25 4.20 -41.8 0 0 82.61 456.54
  Q 82.96 460.19 81.28 463.18
  A 0.80 0.78 -49.7 0 0 81.34 464.03
  L 82.21 465.21
  L 81.09 465.06
  A 0.64 0.64 0.0 0 0 80.39 465.86
  Q 80.64 466.78 81.34 466.95
  Q 81.86 467.08 82.22 466.52
  Q 82.49 466.09 82.36 465.50
  Q 82.96 467.61 81.48 469.54
  A 1.48 1.46 -74.1 0 1 80.49 470.10
  Q 79.35 470.24 78.91 470.99
  Q 78.61 471.49 79.54 473.16
  Q 80.11 474.17 80.54 475.22
  Q 69.24 462.45 63.61 445.73
  Q 65.09 446.30 66.57 449.69
  Q 68.21 453.47 72.95 454.34
  A 1.24 1.24 0.0 0 0 73.85 454.14
  L 84.48 446.63
  Z"
/>
<path fill="#030c13" d="
  M 87.19 453.77
  L 87.10 454.55
  L 87.19 453.77
  Z"
/>
<path fill="#030c13" d="
  M 54.00 461.95
  Q 53.62 461.58 53.54 461.07
  Q 54.00 461.14 54.00 461.95
  Z"
/>
<ellipse fill="#030c13" cx="0.00" cy="0.00" transform="translate(288.34,465.82) rotate(-83.6)" rx="1.97" ry="0.90"/>
<path fill="#f9aa2f" d="
  M 82.21 465.21
  Q 82.29 465.35 82.36 465.50
  Q 82.49 466.09 82.22 466.52
  Q 81.86 467.08 81.34 466.95
  Q 80.64 466.78 80.39 465.86
  A 0.64 0.64 0.0 0 1 81.09 465.06
  L 82.21 465.21
  Z"
/>
<path fill="#030c13" d="
  M 82.64 484.40
  Q 81.90 481.83 82.06 479.21
  Q 82.90 481.61 82.64 484.40
  Z"
/>
<path fill="#030c13" d="
  M 84.72 480.54
  L 84.73 482.98
  Q 84.45 481.73 84.72 480.54
  Z"
/>
<path fill="#030c13" d="
  M 83.41 493.52
  Q 82.81 491.91 82.96 490.19
  Q 83.72 491.59 83.41 493.52
  Z"
/>
<path fill="#030c13" d="
  M 274.91 546.75
  L 243.15 557.52
  A 1.92 1.91 84.5 0 1 240.64 555.45
  Q 240.99 552.88 240.32 551.47
  Q 243.39 548.16 244.40 543.84
  A 0.59 0.59 0.0 0 1 245.51 543.73
  Q 246.10 545.06 246.88 545.70
  A 0.80 0.78 54.7 0 0 247.65 545.84
  L 279.25 534.41
  A 0.60 0.59 -1.2 0 0 279.61 534.04
  Q 279.94 533.13 278.76 532.27
  A 0.91 0.91 0.0 0 1 278.99 530.68
  L 281.16 529.89
  A 0.43 0.43 0.0 0 1 281.70 530.46
  L 274.91 546.75
  Z
  M 273.57 539.89
  Q 273.55 539.88 273.31 539.78
  A 0.66 0.66 0.0 0 0 272.70 539.84
  L 269.76 541.75
  A 1.21 1.21 0.0 0 0 269.22 542.68
  Q 269.14 544.15 270.30 545.10
  A 1.08 1.07 48.4 0 0 271.55 545.18
  Q 273.73 543.83 274.71 542.31
  A 1.58 1.58 0.0 0 0 273.57 539.89
  Z
  M 260.49 548.21
  Q 260.95 548.18 262.29 547.27
  A 1.17 1.13 -56.3 0 0 261.91 545.17
  Q 260.82 544.97 259.89 545.66
  A 1.45 1.28 -62.0 0 0 260.49 548.21
  Z
  M 247.25 551.06
  L 248.07 552.97
  A 0.76 0.76 0.0 0 0 249.06 553.37
  L 249.63 553.13
  A 4.35 1.77 -23.1 0 0 252.93 549.80
  L 252.91 549.74
  A 4.35 1.77 -23.1 0 0 248.21 549.82
  L 247.65 550.06
  A 0.76 0.76 0.0 0 0 247.25 551.06
  Z"
/>
<path fill="#acadad" d="
  M 273.57 539.89
  A 1.58 1.58 0.0 0 1 274.71 542.31
  Q 273.73 543.83 271.55 545.18
  A 1.08 1.07 48.4 0 1 270.30 545.10
  Q 269.14 544.15 269.22 542.68
  A 1.21 1.21 0.0 0 1 269.76 541.75
  L 272.70 539.84
  A 0.66 0.66 0.0 0 1 273.31 539.78
  Q 273.55 539.88 273.57 539.89
  Z"
/>
<path fill="#acadad" d="
  M 260.49 548.21
  A 1.45 1.28 -62.0 0 1 259.89 545.66
  Q 260.82 544.97 261.91 545.17
  A 1.17 1.13 -56.3 0 1 262.29 547.27
  Q 260.95 548.18 260.49 548.21
  Z"
/>
<path fill="#acadad" d="
  M 247.25 551.06
  A 0.76 0.76 0.0 0 1 247.65 550.06
  L 248.21 549.82
  A 4.35 1.77 -23.1 0 1 252.91 549.74
  L 252.93 549.80
  A 4.35 1.77 -23.1 0 1 249.63 553.13
  L 249.06 553.37
  A 0.76 0.76 0.0 0 1 248.07 552.97
  L 247.25 551.06
  Z"
/>
<path fill="#030c13" d="
  M 240.04 551.06
  Q 238.86 550.19 237.74 551.76
  Q 237.60 550.63 238.13 549.94
  Q 238.78 549.09 239.55 549.57
  Q 240.13 549.93 240.04 551.06
  Z"
/>
</svg>
