<?xml version="1.0" encoding="UTF-8" standalone="no"?>
<!-- Created with Inkscape (http://www.inkscape.org/) -->

<svg
   version="1.1"
   id="svg1"
   width="506.72165"
   height="570.06189"
   viewBox="0 0 506.72165 570.06189"
   xmlns="http://www.w3.org/2000/svg"
   xmlns:svg="http://www.w3.org/2000/svg"
   xmlns:rdf="http://www.w3.org/1999/02/22-rdf-syntax-ns#"
   xmlns:cc="http://creativecommons.org/ns#"
   xmlns:dc="http://purl.org/dc/elements/1.1/">
  <title
     id="title1">SciSat Icon SVG</title>
  <defs
     id="defs1" />
  <g
     id="g1">
    <path
       style="fill:currentColor"
       d="m 156.12371,569.40644 c 6.15864,-0.98176 0.0768,1.71236 0,0 z m 40.10131,-0.0304 c 8.1375,-1.22739 -1.1508,1.69832 0,0 z m -43.99822,-0.97991 c 5.53289,-0.85441 -1.70162,1.69674 0,0 z m 5.13402,-0.38186 C 144.97475,567.47208 133.0856,562.69059 119.8078,553.67718 106.79642,547.45427 99.26215,534.78721 98.571718,533.41626 85.691931,516.08071 89.406669,492.81416 70.223588,481.44075 62.05479,477.24579 49.416492,453.14817 51.221576,456.06734 39.051398,437.58254 33.04438,414.36174 27.773108,391.61183 c -10.115853,-17.11834 4.008105,-48.31762 -8.47834,-58.18172 1.308792,1.77651 -8.982581,-14.09076 -9.8095624,-18.02637 -9.86371683,-9.26579 -12.6258557,-32.60981 11.1938054,-26.27753 22.561377,4.81072 16.085877,-16.40441 20.166024,-17.35335 17.042395,-6.57353 4.264148,-28.66175 13.99644,-32.26777 7.324971,-5.73921 3.774636,-5.00968 17.897406,-8.62402 C 76.024969,182.22503 72.348986,133.32108 74.88612,84.628723 56.366292,66.137694 93.892991,67.619718 89.072169,70.769891 c -5.023108,-2.784738 14.141071,10.289029 4.47164,4.117307 9.705501,7.191682 19.210811,-5.12081 8.024681,-20.744424 8.60368,-7.352444 29.95417,7.476057 30.92156,-12.441892 4.82154,-12.268574 11.1338,-25.743397 17.76731,-36.4878753 11.19812,-11.7474981 6.15122,29.2621783 7.20033,41.9972013 4.6566,19.883236 40.06938,7.099218 57.02316,13.878069 18.74923,3.232705 47.94208,2.4501 60.15829,8.437421 5.49033,3.36235 13.26688,11.278697 12.20149,8.540337 8.00993,1.281822 8.71759,7.448018 14.6089,7.37719 2.09741,4.471664 11.93645,10.714236 12.12947,8.97767 3.69302,4.596777 16.20234,5.516819 27.41365,5.879635 17.47251,1.73014 -43.6159,-2.21177 -8.05837,1.60571 15.10011,-1.09451 52.05837,5.16984 51.53213,10.39083 14.07823,5.00388 13.94363,7.06586 24.28486,11.92019 10.58186,13.55456 18.02333,14.35715 18.40264,22.84209 14.42151,7.3988 34.63328,6.32072 45.80652,18.94217 9.16948,2.91807 4.68205,4.56426 14.69312,12.9791 -11.88702,-13.9615 9.49102,8.19484 6.56517,10.71805 12.47507,18.15778 15.15997,49.54039 -0.66544,60.78133 6.64011,14.40526 6.61835,39.61019 0.50749,57.33429 -1.35923,8.34718 -13.11539,34.36338 -12.17667,30.67967 -3.94754,9.16447 -7.97873,16.46924 -13.68539,25.07552 -0.47691,3.93293 -9.69969,15.54661 -14.01714,23.85909 7.20638,-14.94884 -10.25512,17.43954 -4.55493,5.08758 -7.63936,12.55078 -11.23199,15.54255 -16.86678,23.81285 -5.99355,5.13062 -11.68995,15.77572 -7.85258,8.76232 -6.59888,8.21033 -8.12637,12.02299 -8.01365,8.84173 -3.24159,8.23127 -22.39535,20.71723 -33.49929,35.18059 -7.14542,8.3662 -15.24731,13.11302 -20.47029,18.33793 10.92454,-7.23157 -12.49709,8.36452 -9.70296,8.67887 -5.45627,3.60944 -18.22327,11.47617 -12.42929,9.49646 -7.08486,3.91649 -16.95141,11.66867 -19.32207,13.0666 0.94086,-1.11011 -10.43383,6.51977 -12.4148,7.06098 -14.08103,7.39978 -4.21005,2.83736 -7.05608,5.45431 -18.40822,9.0847 -38.31898,12.98084 -57.4829,20.17837 -9.92823,-1.67167 -6.75153,-10.41294 -12.77353,3.51362 -7.85956,14.27499 -33.14983,11.67146 -51.61875,13.72164 -7.58258,0.0403 -15.21712,0.27372 -22.76285,-0.60815 z m -43.54639,-18.11986 c -3.20428,-4.5842 -3.48568,-0.77488 0,0 z m 125.42268,-47.72943 c -3.64356,-1.12245 -1.81811,1.72363 0,0 z m 4.94846,-0.98969 c -3.64358,-1.12246 -1.81811,1.72363 0,0 z m -3.55542,-12.058 c -6.1316,0.46056 0.36211,2.36962 0,0 z m -162.444583,0.40598 c -3.204275,-4.5842 -3.485682,-0.77488 0,0 z m 5.6343,-3.31884 c -1.698286,-1.15077 1.22744,8.13748 0,0 z m -2.9727,-1.99822 c -1.591892,1.47175 1.54017,7.66561 0,0 z m 186.495563,2.96908 c 3.0573,-4.45552 -5.52374,5.26822 0,0 z M 70.71295,478.78484 c -8.603444,-8.42662 -25.324695,-39.4493 -10.916078,-12.62385 1.423126,4.43173 24.749734,28.39983 10.916078,12.62385 z m 207.40911,-3.76282 c 10.42273,-16.03392 -17.92617,21.34671 -2.88857,3.95585 z m 92.14851,6.21512 c 3.31062,-4.72505 -6.02196,5.83133 0,0 z M 85.104898,452.59119 c 4.855076,-33.0828 18.279812,-64.14162 33.237602,-93.68429 -10.22329,7.92409 -21.02879,37.60867 -25.807725,55.60904 -8.158835,17.25653 -8.977096,39.40096 -12.499425,55.18738 4.364752,22.036 2.889602,-9.49796 5.069548,-17.11213 z m -1.741267,0.68719 c 0.795948,-6.19385 0.795948,6.19385 0,0 z m 5.786667,-27.29897 c 0.636693,-3.81424 1.003884,4.50463 0,0 z m 4.955036,-16.24743 c 1.82028,-10.34405 1.970152,1.53874 0,0 z m 5.918596,-15.83505 c 4.13725,-12.54146 3.09624,-1.70815 0,0 z m 5.98339,-13.60825 c 4.85788,-10.03502 -2.16235,8.79171 0,0 z m 3.3535,-7.17526 c 6.51067,-10.65827 -4.27206,10.5338 0,0 z m 2.47423,-4.89004 c 2.12167,-5.30851 1.42519,3.42454 0,0 z m 3.95876,-6.92784 c 2.12167,-5.30852 1.42519,3.42457 0,0 z m 152.73701,105.59098 c -0.30581,-1.4111 -20.29314,22.91218 -2.68322,3.65254 l 2.68325,-3.65254 z M 51.584732,448.65158 c -3.605692,-4.52942 2.686368,7.30204 0,0 z m -3.976568,-13.79767 c -6.57146,-17.44087 5.443042,20.68808 0,0 z m -2.386235,-11 c -1.69829,-1.15075 1.227445,8.13747 0,0 z m -0.993318,-7.93636 c -1.591892,1.47175 1.54017,7.66561 0,0 z m 0.0036,-6.909 c -1.698286,-1.15077 1.22744,8.13748 0,0 z m -0.0036,-10.90543 c -1.591894,1.47174 1.540171,7.66558 0,0 z m 272.402279,-3.71134 c -4.33564,3.88352 -1.91958,7.23939 0,0 z M 44.244849,387.71136 c -1.515822,1.93133 1.488464,9.87363 0,0 z M 320.08652,385.9794 c 1.2914,-6.94038 -5.42234,12.77871 0,0 z M 45.221929,379.31783 c -1.698289,-1.15077 1.227442,8.13748 0,0 z M 325.48708,370.6392 c -1.29194,-0.73667 -7.57518,23.04393 -0.67697,3.26894 z m -268.419256,5.19587 c -1.716861,-0.31999 1.039045,6.613 0,0 z M 46.21162,373.37968 c -1.698289,-1.15074 1.227446,8.13749 0,0 z m 415.36188,2.15657 c 0.082,-4.16586 -2.93653,4.93484 0,0 z M 58.078133,371.93817 c -1.696837,-1.70161 0.854412,5.53287 0,0 z m -10.907216,-4.02062 c -1.716854,-0.31998 1.039033,6.61296 0,0 z m 11.896907,-0.92784 c -1.696843,-1.70159 0.854422,5.53289 0,0 z m -9.917526,-7.97938 c -1.716857,-0.31999 1.039041,6.613 0,0 z m 3.152723,-10.63918 c -4.865963,6.12899 -0.737773,9.55728 0,0 z m 4.10935,5.93815 c -2.717647,-3.69449 -0.897238,3.41363 0,0 z m 6.614216,-5.13402 c -1.696842,-1.70161 0.854418,5.5329 0,0 z m 140.201753,-19.1134 c 3.93766,-15.17316 -6.41578,15.40761 0,0 z M 59.351133,328.08249 c -3.468173,1.34554 -0.806264,5.52835 0,0 z m 7.287424,-6.2704 c 10.320398,-16.56553 -0.627644,-4.65608 0,0 z m 6.724797,-10.80176 c 3.057288,-4.45552 -5.523737,5.26822 0,0 z m 140.141796,0.14433 c -3.64356,-1.12245 -1.8181,1.72363 0,0 z m 6.45361,-1.04721 c -6.15863,-0.98177 -0.0768,1.71239 0,0 z m 8.6598,-1.15252 c -7.84337,-1.66554 -7.86155,2.81117 0,0 z M 79.922904,304.82476 c 4.908811,-5.50021 -13.855095,10.20602 0,0 z m 150.590316,-1.97938 c -2.63373,-0.24293 -1.48315,8.09741 0,0 z m -61.14987,-0.74227 c 3.0573,-4.45551 -5.52374,5.26824 0,0 z m -97.307064,-2.74784 c -2.800902,1.91321 -1.175589,4.30485 0,0 z m 100.276144,-1.21092 c 3.31058,-4.72507 -6.02194,5.83133 0,0 z m 60.03484,-2.36211 c -2.39256,-0.52077 -0.46383,6.1741 0,0 z m -17.60438,-8.36343 c -4.9251,-10.77217 -2.40222,10.43136 0,0 z m -134.789079,-2.9089 c -2.800903,1.9132 -1.17558,4.30483 0,0 z m 90.630619,0.96448 c 0.082,-4.16585 -2.93656,4.93484 0,0 z m 32.7803,-5.38658 c -7.10122,-6.45628 -1.47109,1.69199 0,0 z m -9.06383,-6.48099 c -3.17099,-3.89734 1.08271,4.90698 0,0 z M 92.41886,265.68057 c 0.08205,-4.16586 -2.936553,4.93485 0,0 z m 5.481061,-8.36097 c 2.782089,-7.03262 -5.314445,9.35455 0,0 z m 17.030439,-5.69072 c 3.0573,-4.45551 -5.52374,5.26824 0,0 z m -3.59015,-12.12371 c 5.06303,-7.07856 -7.38566,7.19757 0,0 z m 17.31958,-14.22933 c -3.20427,-4.58418 -3.48569,-0.77493 0,0 z M 84.48161,197.44331 c 0.124923,-4.8339 -2.850142,4.88932 0,0 z m 0.03798,-11.28247 c -3.53065,-13.42612 1.579308,15.60079 0,0 z m 385.5835,-23.25082 c -2.98239,-3.26503 -3.01646,1.34351 0,0 z M 112.37237,149.93815 c 9.42216,-0.0615 23.1633,3.10058 14.82565,-10.21668 1.75182,-18.53344 -29.070437,-13.43073 -22.27412,-18.26819 -3.76302,-2.70961 -20.042008,-16.059 -8.085662,-6.7728 -14.871857,-19.173232 -6.891033,18.9368 -8.755764,29.77692 -4.175125,13.79061 16.757896,2.02314 24.289896,5.48075 z M 89.072165,128.9897 c -0.404482,-11.24065 1.081608,-30.046376 1.028992,-7.93182 2.92457,7.32085 -5.3207,27.5671 3.761717,27.56623 -9.142967,7.18292 -2.620516,-16.44202 -4.790709,-19.63441 z m 8.671333,18.76395 c 10.651462,-1.31141 -1.056565,1.65669 0,0 z m 23.752572,0 c 10.65145,-1.31142 -1.05652,1.65669 0,0 z m 1.9325,-14.35747 c -5.13887,-19.04709 6.79884,17.19171 0,0 z m 294.22091,-0.28277 c -16.05067,-15.44718 13.6759,15.33773 0,0 z m -294.13863,-8.51898 c -15.53698,-4.56471 -11.40879,3.11097 0,0 z m -9.78113,-7.31607 c -5.1068,2.36866 0.90122,6.59764 0,0 z m 8.99193,0.49484 c -10.56735,-2.32463 -9.47515,0.7002 0,0 z m -5.27007,-15.28646 c 11.86195,5.15844 0.57121,-5.865371 -4.00541,1.12376 z m -8.45936,-3.270239 c 3.05729,-4.455513 -5.52373,5.268239 0,0 z m 5.54386,-1.835052 c -3.6435,-1.122499 -1.81818,1.72357 0,0 z M 101.43629,83.145362 c -0.73797,-2.31494 -4.188527,3.629068 0,0 z m 7.42969,-5.570011 c -6.53374,-1.674653 -6.54628,2.914318 0,0 z m 160.3299,0.699841 c -13.23984,-6.023867 2.5278,3.173536 0,0 z m -7.91753,-3.058693 c -9.66124,-3.734355 0.74693,3.374709 0,0 z m -6.92783,-1.979381 c -9.51775,-3.716582 2.94927,3.240378 0,0 z m -9.40207,-2.969073 c -10.62668,-2.896733 3.92977,2.953264 0,0 z M 145.97938,54.432993 c -6.51323,-3.606174 0.11572,2.823566 0,0 z m 6.69925,0.340516 c -5.70616,-0.759543 -2.42024,1.413267 0,0 z m -12.38997,-1.022735 c -7.66561,-1.54017 -1.47175,1.591892 0,0 z m 14.83882,-33.171391 c -1.1505,6.380196 0.45197,24.708726 0.10579,3.32654 l -0.1056,-3.32654 z m 48.25396,547.503127 c 16.20064,-2.56623 -7.6641,2.77344 0,0 z m -72.74226,-6.43299 c -6.21843,-5.28902 11.0468,5.54709 0,0 z m -10.03469,-5.50204 c -7.49602,-6.33522 9.29265,6.27022 0,0 z m 113.98252,-4.39487 c 0.80626,-5.52835 3.46817,-1.34553 0,0 z m 13.82536,-0.49485 c 7.25285,-4.14966 -2.45389,3.89797 0,0 z m 4.94845,-1.97938 c 7.25285,-4.14965 -2.45388,3.89795 0,0 z m 17.31959,-5.91228 c 11.46338,-3.00959 4.01982,1.73151 0,0 z m 16.82474,-4.49739 c 14.8971,-9.73679 -6.75645,5.82519 0,0 z M 93.030928,526.5155 c -2.426728,-7.02463 4.705513,7.1022 0,0 z m -6.813407,-15.93222 c -4.251295,-14.27076 5.12219,10.66884 0,0 z M 387.95876,465.77069 c 3.20429,-4.58418 3.48568,-0.7749 0,0 z m 5.93815,-5.93814 c 3.20428,-4.58419 3.48568,-0.7749 0,0 z m 7.42268,-7.54386 c 7.44293,-7.20185 -5.12979,7.05039 0,0 z M 44.536082,446.35054 c -2.426718,-7.0246 4.705514,7.1022 0,0 z m -6.48055,-12.95795 c -4.819832,-11.96614 6.567168,10.88927 0,0 z M 32.287213,417.1164 c -2.733069,-8.8333 3.60438,5.05714 0,0 z m -6.995117,-26.73837 c -1.590069,-13.8968 3.483557,11.75114 0,0 z M 20.976444,370.6392 c 0.445025,-5.64389 0.959009,6.11109 0,0 z M 474.06186,354.3093 c 4.78626,-7.1592 -2.5445,7.03484 0,0 z M 24.002161,346.88662 c 0.356632,-7.53084 0.936945,7.87256 0,0 z M 486.0176,330.55672 c 5.10357,-8.93779 -2.45746,6.43844 0,0 z m 5.92883,-14.35052 c 1.91957,-7.23938 4.33564,-3.88354 0,0 z M 1.4438415,303.76922 c -1.20905183,-4.96377 3.2212401,3.76925 0,0 z m 2.2674987,-14.44527 c 6.1586368,-0.98176 0.076765,1.71236 0,0 z m 6.4329898,-1.01646 c 7.665598,-1.54018 1.471749,1.5919 0,0 z m 26.55236,-10.7817 c 0.636695,-3.81423 1.00388,4.50462 0,0 z m 460.20619,-0.98969 c 0.63666,-3.81422 1.00393,4.50465 0,0 z m 1.18111,-7.34021 c 0.75791,-7.94228 0.75791,7.94231 0,0 z m 1.03691,-10.8866 c 0.72927,-11.43903 0.72926,11.43906 0,0 z M 48.687784,251.8763 c 0.445029,-5.64388 0.959005,6.11111 0,0 z M 504.31988,238.51548 c 4.76052,-12.41958 -0.64512,5.85704 0,0 z m 1.49021,-18.39176 c 0.63667,-3.81421 1.00395,4.50465 0,0 z m -0.98969,-4.94845 c 0.63667,-3.81423 1.00395,4.50465 0,0 z m -0.98969,-3.95876 c 0.63667,-3.81424 1.00395,4.50465 0,0 z m -5.02659,-14.26804 c -5.95512,-13.99255 8.20472,14.10785 0,0 z m -42.5567,-41.56702 c -2.83453,-3.57929 5.50113,3.24159 0,0 z m -20.96907,-6.61421 c 5.5329,-0.8544 -1.70163,1.69672 0,0 z m -6.15906,-1.16035 c 3.89291,-1.84491 5.49608,2.77803 0,0 z M 376.08247,106.8866 c -2.83453,-3.57929 5.50113,3.24159 0,0 z m -4.94845,-1.97938 c -2.45388,-3.89795 7.25285,4.14965 0,0 z m -20.04124,-3.66753 c 9.87363,-1.488461 1.93133,1.51582 0,0 z M 73.119501,86.319426 c -0.240703,-7.882193 1.786854,7.342583 0,0 z m -3.387,-8.1997 c -1.209052,-4.96376 3.221243,3.76924 0,0 z M 104.48333,73.48454 c 3.81661,-5.72053 1.80456,3.265781 0,0 z m 159.04066,-8.850795 c 8.13748,-1.227439 -1.15077,1.698281 0,0 z M 253.1134,63.631443 c 9.87363,-1.488464 1.93133,1.515822 0,0 z m -9.89691,-0.98969 c 9.87363,-1.488464 1.93133,1.515822 0,0 z m -9.8969,-0.989691 c 9.87362,-1.488462 1.93133,1.51582 0,0 z m -7.40385,-0.97708 c 8.13747,-1.22744 -1.15075,1.698279 0,0 z m -32.18378,-2.981683 c 9.87362,-1.488462 1.93133,1.51582 0,0 z m -11.87629,-1.007172 c 8.6377,-0.94559 8.3901,1.164205 0,0 z m -11.36784,-0.983936 c 13.15082,-1.335854 -0.98515,1.619565 0,0 z m -8.42597,-0.93496 c 6.15864,-0.981766 0.0767,1.712377 0,0 z m -37.5464,-2.989691 c 5.53288,-0.854422 -1.70158,1.696834 0,0 z m -9.95876,-1.012077 c 9.87363,-1.488464 1.93133,1.515822 0,0 z m -9.38845,-1.001417 c 13.15081,-1.335846 -0.98518,1.619558 0,0 z m 53.54373,-8.691879 c 0.72989,-16.861616 0.60992,18.337918 0,0 z m -31.04188,7.043636 c 5.00777,-12.48769 4.29936,-4.229684 0,0 z m 8.476,-17.725495 c 3.46823,-4.516479 -1.25314,4.118472 0,0 z m 4.88483,-10.596492 c 6.51065,-10.6582766 -4.27204,10.533779 0,0 z"
       id="path1" />
  </g>
  <metadata
     id="metadata1">
    <rdf:RDF>
      <cc:Work
         rdf:about="">
        <dc:title>SciSat Icon SVG</dc:title>
        <dc:source>https://eo.belspo.be/sites/default/files/styles/xlarge/public/satellites/100._scisat_2.jpg?itok=A7X2dAkp</dc:source>
      </cc:Work>
    </rdf:RDF>
  </metadata>
</svg>
