<?xml version="1.0" encoding="UTF-8" standalone="no"?>
<svg xmlns="http://www.w3.org/2000/svg" version="1.2" baseProfile="tiny" viewBox="0.00 0.00 512.00 203.00" width="512.00" height="203.00">
<path fill="#9299a7" d="
  M 505.84 2.92
  Q 505.75 5.27 506.46 7.33
  L 506.50 9.04
  L 506.60 15.32
  L 506.79 20.44
  Q 506.32 22.16 506.91 23.33
  L 507.07 25.26
  Q 506.51 27.13 507.26 27.83
  L 507.57 70.28
  L 507.62 71.72
  Q 507.63 71.91 507.64 72.10
  L 507.69 77.40
  Q 507.58 79.96 508.23 82.16
  A 0.18 0.18 0.0 0 0 508.59 82.11
  L 509.12 9.06
  A 0.38 0.37 39.4 0 1 509.86 8.99
  Q 510.20 10.55 510.23 12.25
  Q 510.83 48.74 510.18 85.22
  L 510.07 101.91
  L 510.02 110.50
  Q 509.96 110.85 510.04 111.21
  L 509.96 115.33
  Q 494.96 116.62 480.03 118.87
  Q 459.69 121.95 452.96 122.81
  Q 444.73 123.86 442.52 124.05
  C 433.28 124.88 426.26 126.63 416.48 127.79
  Q 406.62 128.95 380.23 132.85
  C 357.01 136.28 330.79 139.28 308.13 142.72
  Q 303.85 143.37 301.81 143.55
  C 296.31 144.03 290.80 145.20 286.34 145.80
  Q 263.94 148.81 249.29 150.65
  A 0.72 0.72 0.0 0 0 248.96 151.96
  Q 249.28 152.18 249.41 152.61
  Q 249.51 152.92 249.39 153.42
  Q 249.01 154.96 249.15 157.42
  A 0.21 0.21 0.0 0 0 249.54 157.53
  C 250.48 156.12 250.17 154.41 250.90 153.07
  A 1.76 1.76 0.0 0 1 252.17 152.19
  Q 260.43 151.01 271.75 149.59
  Q 275.16 149.16 278.03 148.61
  Q 278.49 148.53 278.49 149.41
  L 253.23 153.14
  A 2.20 2.20 0.0 0 0 251.41 154.82
  L 248.90 165.51
  A 2.44 2.39 -22.6 0 1 248.62 166.17
  Q 244.93 172.22 244.26 179.18
  Q 243.60 179.67 243.78 180.52
  Q 243.71 180.60 243.64 180.68
  L 242.85 181.73
  A 0.85 0.85 0.0 0 1 242.08 182.07
  L 240.28 181.89
  L 232.41 179.37
  Q 231.13 179.14 231.17 177.95
  L 231.42 172.24
  A 1.98 1.96 -56.9 0 0 231.23 171.31
  Q 230.50 169.82 229.43 168.27
  A 2.68 2.52 61.9 0 0 226.40 167.24
  Q 224.02 168.13 222.58 171.08
  Q 221.68 172.71 222.06 174.67
  A 1.50 1.49 -69.9 0 0 222.35 175.30
  L 224.93 178.65
  A 0.98 0.97 83.6 0 1 223.75 180.13
  C 221.31 179.00 217.84 179.13 217.63 182.32
  A 0.50 0.49 -75.9 0 1 216.94 182.74
  Q 210.87 180.02 203.90 180.99
  A 0.36 0.36 0.0 0 0 203.89 181.70
  L 215.38 183.68
  A 1.54 1.53 -15.8 0 1 216.28 184.18
  L 218.27 186.46
  A 0.64 0.63 50.5 0 1 218.19 187.38
  Q 216.30 188.90 215.50 189.02
  Q 213.05 189.38 208.87 189.01
  L 199.30 187.88
  Q 198.62 187.71 197.46 188.50
  A 1.17 1.07 -28.5 0 1 195.75 188.08
  Q 195.18 186.61 196.36 186.05
  A 0.19 0.19 0.0 0 1 196.63 186.22
  Q 196.62 186.40 196.63 186.43
  A 0.55 0.54 5.4 0 0 196.96 186.82
  Q 197.51 187.03 197.83 186.80
  A 0.37 0.37 0.0 0 0 197.88 186.24
  L 197.07 185.42
  A 0.70 0.69 -62.8 0 1 196.87 184.79
  Q 197.04 183.83 196.15 183.06
  A 0.94 0.93 23.1 0 1 195.82 182.25
  Q 196.08 179.94 197.50 178.34
  A 0.74 0.73 -73.5 0 1 197.95 178.09
  Q 198.54 178.01 198.57 177.58
  A 0.49 0.48 -6.2 0 0 197.96 177.09
  C 195.36 177.75 194.29 179.42 194.66 182.04
  A 0.72 0.72 0.0 0 1 194.08 182.85
  Q 192.66 183.11 193.21 185.78
  A 0.19 0.18 -17.4 0 1 193.09 186.00
  L 192.84 186.10
  A 0.32 0.32 0.0 0 1 192.43 185.93
  Q 192.02 184.94 192.17 184.37
  Q 193.00 181.13 192.83 178.97
  A 0.73 0.72 81.3 0 1 193.39 178.20
  L 194.80 177.88
  A 0.41 0.39 79.8 0 0 195.10 177.43
  L 195.06 177.14
  A 0.62 0.62 0.0 0 0 194.38 176.61
  Q 192.43 176.82 190.36 176.00
  A 1.19 1.18 -79.7 0 1 189.61 174.91
  L 189.51 169.63
  A 1.47 1.46 -81.2 0 0 188.52 168.27
  L 188.17 168.15
  A 0.88 0.88 0.0 0 0 187.00 168.95
  L 186.81 174.61
  A 1.84 1.84 0.0 0 1 184.84 176.39
  L 184.71 176.38
  A 1.55 1.54 -82.8 0 1 183.30 174.56
  L 184.24 169.26
  A 0.20 0.20 0.0 0 0 183.97 169.04
  Q 181.61 169.97 179.62 169.62
  A 0.49 0.48 10.8 0 0 179.07 169.99
  L 177.13 178.23
  A 1.10 1.09 -82.2 0 1 176.03 179.07
  L 167.08 178.67
  Q 166.08 178.54 164.92 177.54
  A 0.97 0.96 50.4 0 0 163.81 177.43
  L 162.93 177.94
  A 1.65 1.60 -55.2 0 1 161.89 178.14
  L 156.45 177.37
  A 1.07 1.04 -19.1 0 1 155.94 177.13
  Q 154.16 175.49 153.94 174.55
  Q 153.27 171.71 152.10 169.05
  Q 151.34 167.95 149.77 168.20
  A 1.62 1.61 18.6 0 0 148.92 168.62
  Q 146.94 170.52 145.74 173.03
  Q 143.93 176.79 142.85 180.80
  Q 142.13 181.25 141.85 179.33
  L 147.44 167.63
  A 1.41 1.40 -77.4 0 1 148.69 166.83
  L 151.72 166.77
  A 1.12 1.10 3.3 0 0 152.80 165.82
  L 152.89 165.22
  A 1.06 1.05 1.7 0 0 151.75 164.02
  L 146.94 164.44
  A 1.70 1.69 7.1 0 0 145.47 165.58
  L 140.94 178.65
  A 1.46 1.30 57.5 0 0 140.87 179.09
  L 140.85 180.75
  L 142.06 186.67
  L 141.52 187.46
  Q 140.37 186.35 140.34 184.33
  Q 138.53 182.77 138.04 181.13
  Q 139.32 179.07 138.99 176.99
  Q 137.97 170.41 137.59 164.15
  A 1.07 1.07 0.0 0 0 136.42 163.15
  L 129.49 163.74
  A 1.11 1.11 0.0 0 0 128.55 164.45
  L 125.06 173.41
  A 1.64 1.60 -39.8 0 0 124.97 174.29
  Q 125.22 175.78 124.54 180.49
  Q 124.33 181.95 123.97 181.00
  Q 124.34 178.77 122.75 177.15
  Q 123.67 170.66 122.27 164.32
  A 0.16 0.16 0.0 0 0 121.97 164.30
  L 121.88 164.56
  A 0.54 0.54 0.0 0 1 121.43 164.92
  L 88.50 168.34
  L 70.01 169.62
  Q 65.94 170.70 64.81 170.64
  Q 61.73 170.47 58.32 170.93
  Q 52.77 171.68 51.84 171.74
  Q 43.02 172.41 23.75 174.29
  Q 14.51 175.19 3.79 176.00
  A 0.53 0.53 0.0 0 1 3.22 175.42
  Q 4.63 160.07 7.39 147.64
  Q 8.62 142.10 8.49 140.53
  Q 8.43 139.84 9.06 137.23
  Q 9.07 137.21 9.08 137.19
  Q 9.20 137.06 9.39 137.39
  A 0.02 0.02 0.0 0 0 9.43 137.37
  Q 9.33 136.63 9.50 135.51
  Q 11.08 125.47 12.94 114.88
  C 13.29 112.89 13.04 111.51 15.45 110.95
  Q 21.26 109.62 36.92 106.35
  C 37.96 106.13 39.01 106.22 40.24 105.97
  Q 50.96 103.80 66.37 100.46
  A 4.38 4.31 -61.4 0 0 67.13 100.23
  Q 69.75 99.19 71.65 99.52
  A 1.13 1.12 -59.0 0 0 72.55 99.29
  C 73.78 98.30 75.66 98.64 77.33 98.14
  Q 80.86 97.07 87.17 95.88
  Q 92.97 94.79 100.46 93.16
  C 101.39 92.96 102.71 93.35 103.56 92.60
  A 0.64 0.63 19.2 0 1 103.86 92.46
  L 129.21 87.39
  L 130.28 87.68
  A 0.52 0.50 87.4 0 1 130.62 88.00
  Q 130.86 88.69 130.08 88.91
  L 107.93 93.81
  A 0.55 0.53 87.9 0 0 107.52 94.27
  L 104.47 117.85
  A 0.49 0.25 -53.9 0 1 104.45 117.98
  L 104.02 119.35
  A 5.97 5.30 -36.4 0 0 103.79 120.44
  L 103.07 126.92
  A 0.58 0.57 89.3 0 0 103.72 127.56
  L 125.98 124.38
  A 0.71 0.71 0.0 0 0 126.58 123.77
  L 126.95 120.53
  Q 127.49 120.66 127.84 120.90
  A 0.97 0.97 0.0 0 1 128.27 121.74
  L 127.86 130.64
  A 0.48 0.48 0.0 0 0 128.70 130.97
  C 131.18 128.10 128.31 120.64 134.24 119.78
  A 0.45 0.45 0.0 0 1 134.73 120.40
  Q 133.00 124.61 133.91 129.22
  A 0.64 0.64 0.0 0 0 135.14 129.31
  Q 135.91 127.20 136.58 122.06
  Q 136.98 119.03 140.38 118.74
  A 0.37 0.37 0.0 0 1 140.72 119.31
  C 139.24 121.67 139.13 127.38 139.41 129.07
  A 0.55 0.54 79.3 0 1 139.00 129.69
  L 134.93 130.63
  A 0.74 0.74 0.0 0 0 134.40 131.07
  L 132.19 136.24
  A 1.41 1.31 61.2 0 0 132.09 136.64
  L 131.61 141.50
  A 1.02 1.01 77.8 0 1 131.11 142.28
  Q 128.98 143.50 127.88 142.43
  A 0.52 0.52 0.0 0 0 127.26 142.35
  L 126.02 143.07
  A 0.62 0.62 0.0 0 0 126.45 144.22
  C 131.83 143.22 138.29 142.30 144.27 142.28
  Q 152.35 142.25 158.12 141.45
  A 0.49 0.48 73.5 0 0 158.49 140.76
  C 157.60 138.87 158.49 135.12 159.15 130.35
  A 1.77 1.77 0.0 0 1 160.26 128.94
  L 162.51 128.05
  A 0.61 0.61 0.0 0 1 163.31 128.83
  Q 161.52 133.76 162.12 138.91
  A 0.49 0.48 1.4 0 1 161.56 139.44
  Q 161.29 139.39 160.74 139.04
  A 0.37 0.37 0.0 0 0 160.17 139.30
  C 159.93 141.08 163.04 141.92 164.45 142.14
  Q 169.70 142.95 175.48 143.08
  A 4.78 4.73 -53.7 0 0 177.06 142.83
  C 179.34 142.04 183.52 141.54 184.47 139.01
  Q 184.66 138.50 185.11 138.22
  Q 185.77 137.80 185.77 137.45
  A 0.53 0.53 0.0 0 0 185.14 136.92
  Q 182.62 137.44 181.93 137.10
  Q 179.93 136.14 178.59 137.08
  C 176.82 138.32 175.43 138.04 173.65 137.37
  A 0.90 0.89 -58.2 0 0 172.68 137.60
  Q 171.66 138.67 170.94 138.25
  A 0.86 0.85 -64.0 0 1 170.58 137.19
  Q 172.02 133.58 171.76 127.71
  A 0.53 0.53 0.0 0 1 172.52 127.21
  Q 172.66 127.28 172.67 127.28
  A 1.16 1.15 -59.6 0 0 173.83 126.97
  Q 174.60 126.16 175.66 126.26
  A 0.53 0.53 0.0 0 1 176.09 127.00
  Q 174.18 131.19 174.96 136.67
  A 0.92 0.91 -30.8 0 0 176.60 137.08
  Q 177.40 136.01 177.57 134.75
  Q 178.25 129.89 178.11 127.08
  A 0.46 0.46 0.0 0 1 178.69 126.62
  Q 178.72 126.63 178.90 126.92
  Q 179.14 127.31 179.67 127.02
  Q 179.96 126.86 180.27 126.17
  A 1.66 1.66 0.0 0 1 181.56 125.19
  L 181.94 125.13
  A 0.61 0.61 0.0 0 1 182.61 125.92
  Q 181.18 130.40 181.70 135.81
  A 0.61 0.61 0.0 0 0 182.53 136.32
  Q 183.52 135.94 183.81 134.75
  Q 184.96 129.99 184.76 125.24
  A 0.50 0.50 0.0 0 1 185.36 124.74
  Q 185.73 124.82 186.04 125.14
  A 0.86 0.86 0.0 0 0 187.47 124.27
  Q 187.42 124.13 187.33 123.89
  A 1.50 1.47 -51.9 0 1 187.24 123.08
  Q 189.16 110.01 189.72 95.94
  A 1.43 1.41 -66.2 0 0 189.33 94.91
  Q 189.01 94.57 187.93 94.43
  A 0.68 0.68 0.0 0 1 187.33 93.78
  Q 187.31 93.40 187.74 91.45
  Q 188.26 89.07 188.12 85.48
  A 16.09 16.00 -39.7 0 1 188.52 81.27
  C 189.53 76.90 190.04 73.77 189.58 69.85
  A 0.30 0.30 0.0 0 0 189.00 69.79
  L 188.87 70.15
  A 0.39 0.38 -46.4 0 1 188.15 70.17
  L 187.71 69.07
  A 0.48 0.47 39.3 0 0 186.80 69.16
  L 185.01 79.56
  A 1.26 1.25 0.6 0 1 183.95 80.59
  L 182.15 80.85
  A 0.58 0.58 0.0 0 1 181.49 80.25
  L 181.85 72.26
  A 0.62 0.62 0.0 0 0 180.91 71.70
  C 177.99 73.43 177.49 77.20 177.08 80.42
  A 2.13 2.12 83.0 0 1 175.75 82.13
  L 174.41 82.66
  A 0.80 0.79 84.3 0 1 173.34 81.78
  L 173.92 78.42
  A 1.29 1.28 -75.9 0 0 173.07 76.99
  L 171.45 76.43
  A 0.96 0.96 0.0 0 0 170.19 77.17
  L 169.35 82.07
  A 1.37 1.36 -10.3 0 1 168.69 83.01
  L 166.55 84.25
  A 0.44 0.43 76.3 0 1 165.90 83.85
  L 166.11 79.44
  A 0.91 0.90 -20.2 0 0 164.59 78.74
  L 162.15 81.02
  A 0.83 0.81 -24.8 0 0 161.89 81.70
  L 162.10 84.13
  A 1.03 1.02 83.8 0 1 161.22 85.23
  L 158.95 85.56
  A 0.78 0.78 0.0 0 1 158.07 84.68
  L 159.22 76.62
  A 0.51 0.51 0.0 0 1 159.45 76.28
  L 163.12 74.17
  A 0.47 0.47 0.0 0 0 163.00 73.31
  Q 161.78 73.01 160.43 73.15
  A 0.63 0.63 0.0 0 1 159.73 72.53
  Q 159.68 66.09 161.15 60.18
  Q 177.22 56.05 192.97 52.10
  Q 195.29 51.52 196.80 52.46
  C 203.22 56.43 209.93 59.06 216.27 62.45
  Q 222.35 65.71 225.52 66.96
  Q 227.47 67.74 229.02 66.83
  A 0.51 0.51 0.0 0 0 228.92 65.91
  L 228.54 65.78
  Q 229.42 65.26 230.47 65.21
  Q 230.91 65.24 231.29 65.07
  L 264.93 57.01
  Q 266.89 57.26 268.57 56.32
  Q 268.91 56.04 269.46 56.04
  Q 269.81 56.20 270.07 56.08
  Q 270.28 55.99 270.26 55.81
  Q 270.25 55.65 269.98 55.64
  L 271.27 55.55
  Q 272.71 55.74 274.21 55.29
  L 290.82 51.39
  Q 293.43 51.08 294.83 49.98
  L 298.77 48.92
  Q 299.16 48.98 299.54 48.86
  L 317.50 44.76
  Q 317.95 44.92 318.29 44.54
  L 320.68 44.00
  Q 322.62 44.47 322.82 43.48
  Q 323.76 43.83 324.28 43.22
  L 325.17 43.04
  Q 327.47 43.28 329.42 42.26
  Q 331.49 42.30 332.98 41.28
  Q 334.50 40.32 336.53 40.27
  Q 337.26 40.33 337.70 39.97
  L 346.20 37.98
  Q 346.65 38.14 347.04 37.81
  L 349.01 37.27
  Q 350.34 37.62 350.30 36.97
  L 389.20 27.91
  Q 393.49 27.87 397.39 26.35
  Q 397.11 26.30 397.73 26.00
  L 401.73 25.01
  Q 402.21 25.16 402.55 24.79
  L 404.27 24.28
  Q 405.32 24.59 405.29 23.97
  L 407.54 23.50
  Q 408.01 23.63 408.29 23.28
  Q 408.39 23.29 408.49 23.29
  Q 408.96 23.37 409.31 23.02
  C 417.14 20.96 422.80 19.05 429.60 19.03
  A 0.94 0.77 32.1 0 0 429.83 19.00
  L 471.77 8.15
  Q 472.81 8.25 472.81 7.78
  Q 475.76 7.23 478.75 6.49
  Q 491.03 3.44 503.50 1.28
  Q 505.53 0.92 505.84 2.92
  Z
  M 435.55 68.15
  A 0.30 0.30 0.0 0 0 435.91 68.45
  L 502.24 55.66
  A 0.30 0.30 0.0 0 0 502.49 55.36
  L 501.53 5.12
  A 0.30 0.30 0.0 0 0 501.16 4.83
  L 436.13 19.82
  A 0.30 0.30 0.0 0 0 435.90 20.11
  L 435.55 68.15
  Z
  M 367.17 37.28
  Q 368.40 38.12 368.36 39.02
  Q 367.74 52.48 366.82 81.02
  A 0.46 0.46 0.0 0 0 367.37 81.49
  L 425.79 70.22
  A 0.62 0.61 -5.8 0 0 426.29 69.62
  Q 426.68 37.13 426.88 26.68
  Q 426.93 24.34 427.87 22.95
  A 0.44 0.43 24.1 0 0 427.61 22.28
  Q 426.20 21.93 424.36 22.36
  Q 377.39 33.31 369.11 35.35
  Q 368.51 35.50 367.14 36.59
  A 0.43 0.42 42.9 0 0 367.17 37.28
  Z
  M 361.21 37.49
  Q 359.93 37.29 358.02 37.77
  Q 332.41 44.19 310.68 49.10
  Q 309.81 49.30 307.07 50.90
  A 0.39 0.39 0.0 0 0 307.25 51.62
  L 307.53 51.63
  A 0.73 0.73 0.0 0 1 308.22 52.41
  L 305.64 92.95
  A 0.29 0.29 0.0 0 0 305.98 93.25
  L 357.72 83.27
  A 0.62 0.61 85.9 0 0 358.22 82.69
  Q 359.73 49.06 359.94 41.77
  Q 359.98 40.29 361.46 38.06
  A 0.37 0.37 0.0 0 0 361.21 37.49
  Z
  M 365.3380 40.7923
  A 0.26 0.26 0.0 0 0 365.0877 40.5229
  L 363.8285 40.4768
  A 0.26 0.26 0.0 0 0 363.5592 40.7271
  L 360.3220 129.0077
  A 0.26 0.26 0.0 0 0 360.5723 129.2771
  L 361.8315 129.3232
  A 0.26 0.26 0.0 0 0 362.1008 129.0729
  L 365.3380 40.7923
  Z
  M 301.21 51.91
  L 298.36 52.21
  A 0.20 0.17 -49.7 0 0 298.30 52.22
  L 254.83 62.50
  A 0.65 0.65 0.0 0 0 254.33 63.08
  L 251.37 102.90
  A 0.53 0.53 0.0 0 0 252.00 103.46
  L 297.26 94.73
  A 1.35 1.35 0.0 0 0 298.35 93.48
  Q 299.51 73.20 300.74 55.27
  Q 300.84 53.87 301.55 52.40
  A 0.34 0.34 0.0 0 0 301.21 51.91
  Z
  M 305.3585 55.1793
  A 0.75 0.75 0.0 0 0 304.6543 54.3861
  L 304.5744 54.3814
  A 0.75 0.75 0.0 0 0 303.7813 55.0856
  L 298.9015 137.2207
  A 0.75 0.75 0.0 0 0 299.6057 138.0139
  L 299.6856 138.0186
  A 0.75 0.75 0.0 0 0 300.4787 137.3144
  L 305.3585 55.1793
  Z
  M 435.21 121.77
  A 0.54 0.54 0.0 0 0 435.83 122.31
  L 503.11 112.70
  A 0.54 0.54 0.0 0 0 503.57 112.15
  L 502.56 59.26
  A 0.54 0.54 0.0 0 0 501.92 58.74
  L 436.01 71.46
  A 0.54 0.54 0.0 0 0 435.58 71.98
  L 435.21 121.77
  Z
  M 251.9130 67.7477
  A 0.53 0.53 0.0 0 0 251.4272 67.1769
  L 250.8690 67.1320
  A 0.53 0.53 0.0 0 0 250.2982 67.6178
  L 244.1870 143.5723
  A 0.53 0.53 0.0 0 0 244.6728 144.1431
  L 245.2310 144.1880
  A 0.53 0.53 0.0 0 0 245.8018 143.7022
  L 251.9130 67.7477
  Z
  M 365.20 132.04
  A 0.48 0.48 0.0 0 0 365.74 132.53
  L 425.43 124.00
  A 0.48 0.48 0.0 0 0 425.84 123.53
  L 426.22 73.61
  A 0.48 0.48 0.0 0 0 425.64 73.13
  L 366.89 84.46
  A 0.48 0.48 0.0 0 0 366.50 84.92
  L 365.20 132.04
  Z
  M 303.21 140.45
  A 0.74 0.74 0.0 0 0 304.05 141.21
  L 355.71 133.83
  A 0.74 0.74 0.0 0 0 356.35 133.13
  L 358.47 86.75
  A 0.74 0.74 0.0 0 0 357.59 85.99
  L 305.80 95.97
  A 0.74 0.74 0.0 0 0 305.20 96.66
  L 303.21 140.45
  Z
  M 102.67 95.37
  A 0.34 0.34 0.0 0 0 102.27 94.99
  L 72.52 100.73
  A 0.34 0.34 0.0 0 0 72.25 101.14
  L 72.85 103.72
  A 0.34 0.34 0.0 0 1 72.85 103.84
  L 68.75 132.49
  A 0.34 0.34 0.0 0 0 69.14 132.88
  L 97.64 128.81
  A 0.34 0.34 0.0 0 0 97.93 128.52
  L 102.67 95.37
  Z
  M 105.0406 97.8879
  A 0.34 0.34 0.0 0 0 104.7472 97.5069
  L 104.5687 97.4838
  A 0.34 0.34 0.0 0 0 104.1878 97.7771
  L 95.7594 162.6721
  A 0.34 0.34 0.0 0 0 96.0528 163.0531
  L 96.2313 163.0762
  A 0.34 0.34 0.0 0 0 96.6122 162.7829
  L 105.0406 97.8879
  Z
  M 295.68 140.50
  L 297.64 97.45
  A 0.32 0.32 0.0 0 0 297.26 97.12
  L 251.62 105.92
  A 0.75 0.74 -1.7 0 0 251.02 106.55
  Q 250.27 111.58 250.19 115.47
  C 250.07 121.75 249.21 125.50 248.97 131.84
  Q 248.90 133.50 248.32 139.16
  Q 247.72 144.99 247.50 146.75
  Q 247.44 147.21 247.84 148.21
  A 0.77 0.76 75.3 0 0 248.65 148.69
  L 296.20 141.89
  A 0.19 0.18 -24.8 0 0 296.32 141.58
  Q 296.24 141.48 296.06 141.35
  A 1.02 1.01 21.3 0 1 295.68 140.50
  Z
  M 41.88 113.05
  Q 41.89 114.28 40.37 121.30
  C 39.11 127.07 38.31 132.66 37.67 137.25
  A 0.45 0.45 0.0 0 0 38.18 137.75
  L 63.24 134.17
  A 1.05 1.03 -89.9 0 0 64.12 133.28
  Q 66.66 113.80 68.51 103.94
  Q 68.56 103.69 69.03 102.56
  A 0.69 0.69 0.0 0 0 68.26 101.62
  L 44.50 106.20
  A 2.23 2.22 84.4 0 0 42.70 108.40
  Q 42.72 110.80 41.97 112.59
  A 1.23 1.20 56.8 0 0 41.88 113.05
  Z
  M 32.88 138.83
  A 0.34 0.34 0.0 0 0 33.17 138.55
  L 38.31 108.67
  A 0.34 0.34 0.0 0 0 37.91 108.28
  L 14.98 112.71
  A 0.34 0.34 0.0 0 0 14.71 112.98
  L 9.78 141.68
  A 0.34 0.34 0.0 0 0 10.16 142.07
  L 32.88 138.83
  Z
  M 509.8708 110.5312
  A 1.23 0.89 -26.5 0 0 508.3729 110.2835
  A 1.23 0.89 -26.5 0 0 507.6692 111.6288
  A 1.23 0.89 -26.5 0 0 509.1671 111.8765
  A 1.23 0.89 -26.5 0 0 509.8708 110.5312
  Z
  M 429.45 118.91
  Q 429.77 119.42 431.24 119.07
  A 0.97 0.96 12.7 0 0 431.78 118.74
  Q 432.26 118.16 431.78 117.40
  Q 431.29 116.65 430.56 116.85
  A 0.97 0.96 -78.3 0 0 430.03 117.20
  Q 429.12 118.40 429.45 118.91
  Z
  M 125.82 126.47
  L 103.12 129.71
  A 0.76 0.76 0.0 0 0 102.47 130.37
  L 98.34 162.61
  A 1.55 1.50 -27.3 0 1 98.16 163.14
  L 97.51 164.26
  A 0.58 0.58 0.0 0 0 98.07 165.13
  L 121.12 163.15
  A 0.92 0.92 0.0 0 0 121.95 162.10
  L 121.63 159.80
  A 1.69 1.68 -88.0 0 0 120.33 158.40
  Q 117.01 157.65 115.48 154.73
  C 112.98 149.93 120.29 145.83 123.94 145.02
  A 0.52 0.51 -18.1 0 0 124.31 144.31
  Q 124.03 143.65 124.18 142.25
  Q 125.07 133.68 126.25 126.91
  A 0.38 0.38 0.0 0 0 125.82 126.47
  Z
  M 97.02 131.04
  L 69.14 135.02
  A 1.28 1.28 0.0 0 0 68.06 136.10
  L 63.55 167.66
  A 0.62 0.62 0.0 0 0 64.22 168.37
  L 92.93 165.90
  A 0.76 0.76 0.0 0 0 93.62 165.05
  Q 93.29 162.64 93.73 160.61
  C 94.39 157.59 94.12 155.20 94.63 152.37
  Q 95.06 150.05 95.24 148.62
  Q 96.24 140.59 97.64 131.67
  A 0.55 0.55 0.0 0 0 97.02 131.04
  Z
  M 58.72 169.06
  A 0.30 0.30 0.0 0 0 58.99 168.80
  L 63.63 136.35
  A 0.30 0.30 0.0 0 0 63.29 136.01
  L 37.57 139.68
  A 0.30 0.30 0.0 0 0 37.32 139.93
  L 32.88 170.92
  A 0.30 0.30 0.0 0 0 33.21 171.26
  L 58.72 169.06
  Z
  M 28.09 171.65
  A 0.30 0.30 0.0 0 0 28.34 171.40
  L 32.68 141.01
  A 0.30 0.30 0.0 0 0 32.34 140.67
  L 9.69 143.91
  A 0.30 0.30 0.0 0 0 9.44 144.16
  L 5.10 174.55
  A 0.30 0.30 0.0 0 0 5.44 174.89
  L 28.09 171.65
  Z
  M 64.0438 151.8223
  A 0.32 0.32 0.0 0 0 63.7639 151.4667
  L 63.7242 151.4619
  A 0.32 0.32 0.0 0 0 63.3686 151.7418
  L 61.6162 166.4377
  A 0.32 0.32 0.0 0 0 61.8961 166.7933
  L 61.9358 166.7981
  A 0.32 0.32 0.0 0 0 62.2914 166.5182
  L 64.0438 151.8223
  Z
  M 129.4706 154.5326
  A 0.37 0.37 0.0 0 0 129.1025 154.1606
  L 121.2226 154.1194
  A 0.37 0.37 0.0 0 0 120.8507 154.4874
  L 120.8494 154.7274
  A 0.37 0.37 0.0 0 0 121.2175 155.0994
  L 129.0974 155.1406
  A 0.37 0.37 0.0 0 0 129.4693 154.7726
  L 129.4706 154.5326
  Z
  M 217.08 156.42
  Q 217.06 156.32 216.92 156.12
  A 0.11 0.10 32.0 0 0 216.73 156.16
  Q 216.64 156.65 216.50 156.89
  A 1.04 1.00 -75.9 0 1 215.68 157.40
  L 209.13 157.81
  A 1.25 1.24 -87.4 0 0 207.98 158.87
  C 207.33 163.34 207.16 166.48 210.70 169.83
  A 1.33 1.28 -22.4 0 0 211.56 170.17
  L 217.07 170.21
  A 2.05 1.96 28.5 0 0 218.10 169.93
  C 219.36 169.17 219.72 168.73 221.45 168.24
  Q 224.72 167.31 224.88 163.33
  A 0.43 0.43 0.0 0 0 224.08 163.10
  L 223.13 164.75
  A 1.18 1.18 0.0 0 1 221.11 164.78
  Q 219.11 161.54 221.76 159.78
  A 0.67 0.66 -31.6 0 1 222.71 160.00
  L 223.44 161.26
  A 0.68 0.68 0.0 0 0 224.68 160.75
  C 223.92 157.82 220.50 155.87 217.89 154.74
  A 0.44 0.44 0.0 0 0 217.28 155.18
  Q 217.38 156.25 217.19 156.46
  A 0.07 0.06 63.8 0 1 217.08 156.42
  Z
  M 137.2775 158.9634
  A 0.53 0.53 0.0 0 0 137.1242 158.2297
  L 136.8899 158.0763
  A 0.53 0.53 0.0 0 0 136.1562 158.2296
  L 134.5025 160.7566
  A 0.53 0.53 0.0 0 0 134.6558 161.4903
  L 134.8901 161.6437
  A 0.53 0.53 0.0 0 0 135.6238 161.4904
  L 137.2775 158.9634
  Z
  M 131.2500 161.0487
  A 1.21 0.60 -29.8 0 0 129.9018 161.1293
  A 1.21 0.60 -29.8 0 0 129.1500 162.2513
  A 1.21 0.60 -29.8 0 0 130.4982 162.1707
  A 1.21 0.60 -29.8 0 0 131.2500 161.0487
  Z
  M 157.97 165.28
  L 155.25 165.34
  A 0.28 0.28 0.0 0 0 154.98 165.63
  L 155.01 166.91
  A 7.82 1.59 88.7 0 0 156.78 174.69
  L 156.88 174.69
  A 7.82 1.59 88.7 0 0 158.29 166.83
  L 158.26 165.55
  A 0.28 0.28 0.0 0 0 157.97 165.28
  Z
  M 161.83 175.38
  Q 163.89 173.55 164.63 171.18
  A 1.23 1.22 22.9 0 0 164.04 169.74
  Q 162.82 169.08 163.42 167.14
  A 0.36 0.35 -79.5 0 0 163.11 166.68
  L 162.71 166.65
  A 0.53 0.53 0.0 0 0 162.14 167.14
  L 161.54 175.24
  A 0.18 0.17 -18.8 0 0 161.83 175.38
  Z"
/>
<path fill="#81797e" d="
  M 506.46 7.33
  Q 505.75 5.27 505.84 2.92
  Q 506.86 4.86 506.46 7.33
  Z"
/>
<path fill="#102449" d="
  M 435.55 68.15
  L 435.90 20.11
  A 0.30 0.30 0.0 0 1 436.13 19.82
  L 501.16 4.83
  A 0.30 0.30 0.0 0 1 501.53 5.12
  L 502.49 55.36
  A 0.30 0.30 0.0 0 1 502.24 55.66
  L 435.91 68.45
  A 0.30 0.30 0.0 0 1 435.55 68.15
  Z"
/>
<path fill="#81797e" d="
  M 472.81 7.78
  Q 472.81 8.25 471.77 8.15
  Q 472.25 7.76 472.81 7.78
  Z"
/>
<path fill="#81797e" d="
  M 506.60 15.32
  L 506.50 9.04
  L 506.60 15.32
  Z"
/>
<path fill="#81797e" d="
  M 506.91 23.33
  Q 506.32 22.16 506.79 20.44
  L 506.91 23.33
  Z"
/>
<path fill="#102449" d="
  M 367.14 36.59
  Q 368.51 35.50 369.11 35.35
  Q 377.39 33.31 424.36 22.36
  Q 426.20 21.93 427.61 22.28
  A 0.44 0.43 24.1 0 1 427.87 22.95
  Q 426.93 24.34 426.88 26.68
  Q 426.68 37.13 426.29 69.62
  A 0.62 0.61 -5.8 0 1 425.79 70.22
  L 367.37 81.49
  A 0.46 0.46 0.0 0 1 366.82 81.02
  Q 367.74 52.48 368.36 39.02
  Q 368.40 38.12 367.17 37.28
  A 0.43 0.42 42.9 0 1 367.14 36.59
  Z"
/>
<path fill="#81797e" d="
  M 409.31 23.02
  Q 408.96 23.37 408.49 23.29
  Q 408.84 22.96 409.31 23.02
  Z"
/>
<path fill="#797f8d" d="
  M 408.29 23.28
  Q 408.01 23.63 407.54 23.50
  Q 407.86 23.29 408.29 23.28
  Z"
/>
<path fill="#81797e" d="
  M 405.29 23.97
  Q 405.32 24.59 404.27 24.28
  Q 404.67 23.96 405.29 23.97
  Z"
/>
<path fill="#797f8d" d="
  M 402.55 24.79
  Q 402.21 25.16 401.73 25.01
  Q 402.10 24.79 402.55 24.79
  Z"
/>
<path fill="#81797e" d="
  M 507.26 27.83
  Q 506.51 27.13 507.07 25.26
  L 507.26 27.83
  Z"
/>
<path fill="#81797e" d="
  M 397.73 26.00
  Q 397.11 26.30 397.39 26.35
  L 396.03 26.25
  Q 396.63 25.87 397.73 26.00
  Z"
/>
<path fill="#797f8d" d="
  M 396.03 26.25
  L 397.39 26.35
  Q 393.49 27.87 389.20 27.91
  L 396.03 26.25
  Z"
/>
<path fill="#81797e" d="
  M 350.30 36.97
  Q 350.34 37.62 349.01 37.27
  Q 349.36 36.81 350.30 36.97
  Z"
/>
<path fill="#102449" d="
  M 361.46 38.06
  Q 359.98 40.29 359.94 41.77
  Q 359.73 49.06 358.22 82.69
  A 0.62 0.61 85.9 0 1 357.72 83.27
  L 305.98 93.25
  A 0.29 0.29 0.0 0 1 305.64 92.95
  L 308.22 52.41
  A 0.73 0.73 0.0 0 0 307.53 51.63
  L 307.25 51.62
  A 0.39 0.39 0.0 0 1 307.07 50.90
  Q 309.81 49.30 310.68 49.10
  Q 332.41 44.19 358.02 37.77
  Q 359.93 37.29 361.21 37.49
  A 0.37 0.37 0.0 0 1 361.46 38.06
  Z"
/>
<path fill="#81797e" d="
  M 347.04 37.81
  Q 346.65 38.14 346.20 37.98
  L 347.04 37.81
  Z"
/>
<path fill="#81797e" d="
  M 337.70 39.97
  Q 337.26 40.33 336.53 40.27
  L 337.70 39.97
  Z"
/>
<rect fill="#102449" x="-0.89" y="-44.43" transform="translate(362.83,84.90) rotate(2.1)" width="1.78" height="88.86" rx="0.26"/>
<path fill="#81797e" d="
  M 332.98 41.28
  Q 331.49 42.30 329.42 42.26
  Q 329.01 42.12 328.54 42.24
  Q 330.63 41.08 332.98 41.28
  Z"
/>
<path fill="#797f8d" d="
  M 328.54 42.24
  Q 329.01 42.12 329.42 42.26
  Q 327.47 43.28 325.17 43.04
  Q 326.71 42.15 328.54 42.24
  Z"
/>
<path fill="#797f8d" d="
  M 324.28 43.22
  Q 323.76 43.83 322.82 43.48
  Q 323.45 43.21 324.28 43.22
  Z"
/>
<path fill="#81797e" d="
  M 322.82 43.48
  Q 322.62 44.47 320.68 44.00
  Q 321.54 43.44 322.82 43.48
  Z"
/>
<path fill="#81797e" d="
  M 318.29 44.54
  Q 317.95 44.92 317.50 44.76
  Q 317.87 44.55 318.29 44.54
  Z"
/>
<path fill="#102449" d="
  M 299.54 48.86
  Q 299.16 48.98 298.77 48.92
  L 299.54 48.86
  Z"
/>
<path fill="#81797e" d="
  M 199.79 51.61
  L 191.95 50.41
  Q 196.14 48.73 199.79 51.61
  Z"
/>
<path fill="#81797e" d="
  M 294.83 49.98
  Q 293.43 51.08 290.82 51.39
  Q 289.71 51.06 288.29 51.42
  L 294.83 49.98
  Z"
/>
<path fill="#102449" d="
  M 191.95 50.41
  L 199.79 51.61
  L 217.13 61.03
  Q 221.70 63.95 226.72 66.25
  Q 227.08 66.42 227.32 66.34
  Q 227.59 66.24 227.80 65.93
  L 228.54 65.78
  L 228.92 65.91
  A 0.51 0.51 0.0 0 1 229.02 66.83
  Q 227.47 67.74 225.52 66.96
  Q 222.35 65.71 216.27 62.45
  C 209.93 59.06 203.22 56.43 196.80 52.46
  Q 195.29 51.52 192.97 52.10
  Q 177.22 56.05 161.15 60.18
  L 134.39 66.63
  A 1.35 1.35 0.0 0 0 133.37 67.77
  L 131.63 82.07
  L 132.49 66.01
  A 0.92 0.91 76.5 0 1 132.95 65.25
  Q 135.37 63.84 138.45 63.70
  Q 139.79 64.28 140.62 63.04
  L 143.15 62.37
  Q 146.09 62.86 144.80 61.85
  Q 146.28 61.88 147.67 61.08
  A 2.19 2.19 0.0 0 1 148.85 60.80
  Q 150.43 60.89 151.68 60.08
  A 1.60 1.57 23.7 0 1 152.34 59.83
  L 155.57 59.36
  Q 158.14 60.16 157.71 58.62
  Q 158.97 58.66 159.64 58.09
  Q 160.96 59.61 163.05 57.55
  L 163.55 57.29
  Q 165.06 58.06 166.94 56.54
  L 191.95 50.41
  Z"
/>
<path fill="#102449" d="
  M 290.82 51.39
  L 274.21 55.29
  L 273.00 55.27
  L 288.29 51.42
  Q 289.71 51.06 290.82 51.39
  Z"
/>
<path fill="#102449" d="
  M 301.21 51.91
  A 0.34 0.34 0.0 0 1 301.55 52.40
  Q 300.84 53.87 300.74 55.27
  Q 299.51 73.20 298.35 93.48
  A 1.35 1.35 0.0 0 1 297.26 94.73
  L 252.00 103.46
  A 0.53 0.53 0.0 0 1 251.37 102.90
  L 254.33 63.08
  A 0.65 0.65 0.0 0 1 254.83 62.50
  L 298.30 52.22
  A 0.20 0.17 -49.7 0 1 298.36 52.21
  L 301.21 51.91
  Z"
/>
<rect fill="#102449" x="-0.79" y="-41.89" transform="translate(302.13,96.20) rotate(3.4)" width="1.58" height="83.78" rx="0.75"/>
<path fill="#81797e" d="
  M 273.00 55.27
  L 274.21 55.29
  Q 272.71 55.74 271.27 55.55
  Q 272.11 55.08 273.00 55.27
  Z"
/>
<path fill="#81797e" d="
  M 269.98 55.64
  Q 270.25 55.65 270.26 55.81
  Q 270.28 55.99 270.07 56.08
  Q 269.81 56.20 269.46 56.04
  Q 269.66 55.77 269.98 55.64
  Z"
/>
<path fill="#81797e" d="
  M 268.57 56.32
  Q 266.89 57.26 264.93 57.01
  Q 266.46 56.24 268.57 56.32
  Z"
/>
<path fill="#81797e" d="
  M 166.94 56.54
  Q 165.06 58.06 163.55 57.29
  Q 164.81 56.26 166.94 56.54
  Z"
/>
<path fill="#81797e" d="
  M 163.05 57.55
  Q 160.96 59.61 159.64 58.09
  Q 161.18 57.36 163.05 57.55
  Z"
/>
<path fill="#81797e" d="
  M 157.71 58.62
  Q 158.14 60.16 155.57 59.36
  Q 155.89 58.64 157.71 58.62
  Z"
/>
<path fill="#102449" d="
  M 435.21 121.77
  L 435.58 71.98
  A 0.54 0.54 0.0 0 1 436.01 71.46
  L 501.92 58.74
  A 0.54 0.54 0.0 0 1 502.56 59.26
  L 503.57 112.15
  A 0.54 0.54 0.0 0 1 503.11 112.70
  L 435.83 122.31
  A 0.54 0.54 0.0 0 1 435.21 121.77
  Z"
/>
<path fill="#797f8d" d="
  M 161.15 60.18
  Q 159.68 66.09 159.73 72.53
  A 0.63 0.63 0.0 0 0 160.43 73.15
  Q 161.78 73.01 163.00 73.31
  A 0.47 0.47 0.0 0 1 163.12 74.17
  L 159.45 76.28
  A 0.51 0.51 0.0 0 0 159.22 76.62
  L 158.07 84.68
  A 0.78 0.78 0.0 0 0 158.95 85.56
  L 161.22 85.23
  A 1.03 1.02 83.8 0 0 162.10 84.13
  L 161.89 81.70
  A 0.83 0.81 -24.8 0 1 162.15 81.02
  L 164.59 78.74
  A 0.91 0.90 -20.2 0 1 166.11 79.44
  L 165.90 83.85
  A 0.44 0.43 76.3 0 0 166.55 84.25
  L 168.69 83.01
  A 1.37 1.36 -10.3 0 0 169.35 82.07
  L 170.19 77.17
  A 0.96 0.96 0.0 0 1 171.45 76.43
  L 173.07 76.99
  A 1.29 1.28 -75.9 0 1 173.92 78.42
  L 173.34 81.78
  A 0.80 0.79 84.3 0 0 174.41 82.66
  L 175.75 82.13
  A 2.13 2.12 83.0 0 0 177.08 80.42
  C 177.49 77.20 177.99 73.43 180.91 71.70
  A 0.62 0.62 0.0 0 1 181.85 72.26
  L 181.49 80.25
  A 0.58 0.58 0.0 0 0 182.15 80.85
  L 183.95 80.59
  A 1.26 1.25 0.6 0 0 185.01 79.56
  L 186.80 69.16
  A 0.48 0.47 39.3 0 1 187.71 69.07
  L 188.15 70.17
  A 0.39 0.38 -46.4 0 0 188.87 70.15
  L 189.00 69.79
  A 0.30 0.30 0.0 0 1 189.58 69.85
  C 190.04 73.77 189.53 76.90 188.52 81.27
  A 16.09 16.00 -39.7 0 0 188.12 85.48
  Q 188.26 89.07 187.74 91.45
  Q 187.31 93.40 187.33 93.78
  A 0.68 0.68 0.0 0 0 187.93 94.43
  Q 189.01 94.57 189.33 94.91
  A 1.43 1.41 -66.2 0 1 189.72 95.94
  Q 189.16 110.01 187.24 123.08
  A 1.50 1.47 -51.9 0 0 187.33 123.89
  Q 187.42 124.13 187.47 124.27
  A 0.86 0.86 0.0 0 1 186.04 125.14
  Q 185.73 124.82 185.36 124.74
  A 0.50 0.50 0.0 0 0 184.76 125.24
  Q 184.96 129.99 183.81 134.75
  Q 183.52 135.94 182.53 136.32
  A 0.61 0.61 0.0 0 1 181.70 135.81
  Q 181.18 130.40 182.61 125.92
  A 0.61 0.61 0.0 0 0 181.94 125.13
  L 181.56 125.19
  A 1.66 1.66 0.0 0 0 180.27 126.17
  Q 179.96 126.86 179.67 127.02
  Q 179.14 127.31 178.90 126.92
  Q 178.72 126.63 178.69 126.62
  A 0.46 0.46 0.0 0 0 178.11 127.08
  Q 178.25 129.89 177.57 134.75
  Q 177.40 136.01 176.60 137.08
  A 0.92 0.91 -30.8 0 1 174.96 136.67
  Q 174.18 131.19 176.09 127.00
  A 0.53 0.53 0.0 0 0 175.66 126.26
  Q 174.60 126.16 173.83 126.97
  A 1.16 1.15 -59.6 0 1 172.67 127.28
  Q 172.66 127.28 172.52 127.21
  A 0.53 0.53 0.0 0 0 171.76 127.71
  Q 172.02 133.58 170.58 137.19
  A 0.86 0.85 -64.0 0 0 170.94 138.25
  Q 171.66 138.67 172.68 137.60
  A 0.90 0.89 -58.2 0 1 173.65 137.37
  C 175.43 138.04 176.82 138.32 178.59 137.08
  Q 179.93 136.14 181.93 137.10
  Q 182.62 137.44 185.14 136.92
  A 0.53 0.53 0.0 0 1 185.77 137.45
  Q 185.77 137.80 185.11 138.22
  Q 184.66 138.50 184.47 139.01
  C 183.52 141.54 179.34 142.04 177.06 142.83
  A 4.78 4.73 -53.7 0 1 175.48 143.08
  Q 169.70 142.95 164.45 142.14
  C 163.04 141.92 159.93 141.08 160.17 139.30
  A 0.37 0.37 0.0 0 1 160.74 139.04
  Q 161.29 139.39 161.56 139.44
  A 0.49 0.48 1.4 0 0 162.12 138.91
  Q 161.52 133.76 163.31 128.83
  A 0.61 0.61 0.0 0 0 162.51 128.05
  L 160.26 128.94
  A 1.77 1.77 0.0 0 0 159.15 130.35
  C 158.49 135.12 157.60 138.87 158.49 140.76
  A 0.49 0.48 73.5 0 1 158.12 141.45
  Q 152.35 142.25 144.27 142.28
  C 138.29 142.30 131.83 143.22 126.45 144.22
  A 0.62 0.62 0.0 0 1 126.02 143.07
  L 127.26 142.35
  A 0.52 0.52 0.0 0 1 127.88 142.43
  Q 128.98 143.50 131.11 142.28
  A 1.02 1.01 77.8 0 0 131.61 141.50
  L 132.09 136.64
  A 1.41 1.31 61.2 0 1 132.19 136.24
  L 134.40 131.07
  A 0.74 0.74 0.0 0 1 134.93 130.63
  L 139.00 129.69
  A 0.55 0.54 79.3 0 0 139.41 129.07
  C 139.13 127.38 139.24 121.67 140.72 119.31
  A 0.37 0.37 0.0 0 0 140.38 118.74
  Q 136.98 119.03 136.58 122.06
  Q 135.91 127.20 135.14 129.31
  A 0.64 0.64 0.0 0 1 133.91 129.22
  Q 133.00 124.61 134.73 120.40
  A 0.45 0.45 0.0 0 0 134.24 119.78
  C 128.31 120.64 131.18 128.10 128.70 130.97
  A 0.48 0.48 0.0 0 1 127.86 130.64
  L 128.27 121.74
  A 0.97 0.97 0.0 0 0 127.84 120.90
  Q 127.49 120.66 126.95 120.53
  C 127.41 111.26 128.93 102.04 129.88 92.80
  Q 129.95 92.14 130.40 90.81
  Q 130.88 89.39 130.08 88.91
  Q 130.86 88.69 130.62 88.00
  A 0.52 0.50 87.4 0 0 130.28 87.68
  L 129.21 87.39
  Q 129.78 86.75 130.89 86.57
  A 0.83 0.83 0.0 0 0 130.96 84.94
  L 129.92 84.69
  Q 129.70 84.58 129.22 84.63
  L 131.63 82.07
  L 133.37 67.77
  A 1.35 1.35 0.0 0 1 134.39 66.63
  L 161.15 60.18
  Z
  M 155.77 74.06
  A 0.50 0.50 0.0 0 0 156.08 73.50
  Q 155.38 69.73 157.19 65.29
  A 0.64 0.63 4.9 0 0 156.46 64.43
  Q 154.18 64.95 153.58 67.27
  Q 152.74 70.57 152.07 75.40
  A 0.08 0.07 82.8 0 0 152.17 75.48
  L 155.77 74.06
  Z
  M 147.95 75.52
  Q 148.02 75.53 148.44 75.63
  Q 148.78 75.71 148.72 74.81
  Q 148.49 71.05 149.43 67.08
  A 0.70 0.70 0.0 0 0 148.37 66.33
  C 147.31 67.03 146.54 68.41 146.33 69.80
  Q 144.97 78.58 144.36 80.73
  A 0.65 0.64 -74.5 0 0 144.80 81.52
  Q 144.94 81.56 145.39 81.55
  A 1.10 1.03 -67.7 0 1 146.09 83.38
  Q 145.30 84.22 144.64 85.03
  A 1.40 1.36 66.1 0 0 144.32 85.89
  Q 144.32 87.07 143.51 88.29
  A 0.35 0.35 0.0 0 0 143.93 88.80
  L 146.76 87.69
  A 0.90 0.90 0.0 0 0 147.31 87.00
  L 148.47 78.84
  A 0.46 0.45 -83.5 0 0 148.06 78.32
  Q 147.88 78.31 147.70 78.29
  A 0.89 0.89 0.0 0 1 146.91 77.30
  L 147.06 76.12
  A 0.71 0.70 10.6 0 1 147.95 75.52
  Z
  M 151.56 87.13
  L 153.15 86.50
  A 1.38 1.38 0.0 0 0 153.99 85.54
  L 155.96 77.16
  A 0.81 0.81 0.0 0 0 154.82 76.25
  Q 153.12 77.09 152.18 78.06
  A 1.48 1.48 0.0 0 0 151.76 79.14
  Q 151.88 83.53 150.74 86.31
  A 0.63 0.63 0.0 0 0 151.56 87.13
  Z
  M 174.9994 86.2098
  A 0.35 0.35 0.0 0 0 174.6832 85.8289
  L 173.9464 85.7606
  A 0.35 0.35 0.0 0 0 173.5656 86.0768
  L 172.5606 96.9102
  A 0.35 0.35 0.0 0 0 172.8768 97.2911
  L 173.6136 97.3594
  A 0.35 0.35 0.0 0 0 173.9944 97.0432
  L 174.9994 86.2098
  Z
  M 171.8754 87.0324
  A 0.32 0.32 0.0 0 0 171.5913 86.6802
  L 170.3384 86.5463
  A 0.32 0.32 0.0 0 0 169.9862 86.8305
  L 168.8046 97.8876
  A 0.32 0.32 0.0 0 0 169.0887 98.2398
  L 170.3416 98.3737
  A 0.32 0.32 0.0 0 0 170.6938 98.0895
  L 171.8754 87.0324
  Z
  M 168.05 88.03
  A 0.41 0.41 0.0 0 0 167.57 87.51
  L 163.85 88.36
  A 0.77 0.76 -9.1 0 0 163.26 89.17
  Q 163.73 94.69 162.11 99.09
  A 0.42 0.42 0.0 0 0 162.66 99.62
  L 165.48 98.51
  A 1.37 1.36 -10.7 0 0 166.35 97.24
  Q 166.34 93.15 168.05 88.03
  Z
  M 161.30 88.80
  L 157.83 89.59
  A 0.49 0.49 0.0 0 0 157.45 90.07
  Q 157.49 95.33 156.08 99.57
  A 0.88 0.87 -87.5 0 0 157.11 100.70
  L 158.53 100.38
  A 2.15 2.14 87.7 0 0 160.17 98.59
  L 161.54 89.02
  A 0.20 0.19 87.1 0 0 161.30 88.80
  Z
  M 153.13 101.24
  A 1.67 1.67 0.0 0 0 154.16 99.71
  Q 154.13 94.54 155.58 90.97
  A 0.60 0.60 0.0 0 0 154.79 90.19
  L 153.30 90.81
  A 2.54 2.54 0.0 0 0 151.74 92.78
  L 150.41 101.33
  A 0.62 0.62 0.0 0 0 151.27 102.01
  L 153.13 101.24
  Z
  M 147.20 101.98
  A 1.58 1.58 0.0 0 0 148.12 100.50
  Q 147.95 95.61 149.22 92.20
  A 0.57 0.57 0.0 0 0 148.46 91.48
  L 147.06 92.11
  A 2.40 2.40 0.0 0 0 145.64 94.01
  L 144.63 102.14
  A 0.59 0.59 0.0 0 0 145.45 102.75
  L 147.20 101.98
  Z
  M 139.50 103.31
  A 1.52 1.52 0.0 0 0 140.40 101.89
  Q 140.26 97.18 141.49 93.90
  A 0.55 0.55 0.0 0 0 140.76 93.21
  L 139.41 93.81
  A 2.32 2.31 82.0 0 0 138.04 95.63
  L 137.03 103.45
  A 0.57 0.57 0.0 0 0 137.82 104.05
  L 139.50 103.31
  Z
  M 133.7085 94.7806
  A 1.48 0.89 -61.4 0 0 132.2186 95.6540
  A 1.48 0.89 -61.4 0 0 132.2915 97.3794
  A 1.48 0.89 -61.4 0 0 133.7814 96.5060
  A 1.48 0.89 -61.4 0 0 133.7085 94.7806
  Z
  M 188.5238 100.1793
  A 0.64 0.64 0.0 0 0 187.9480 99.4809
  L 187.7291 99.4598
  A 0.64 0.64 0.0 0 0 187.0307 100.0355
  L 185.0562 120.5407
  A 0.64 0.64 0.0 0 0 185.6320 121.2391
  L 185.8509 121.2602
  A 0.64 0.64 0.0 0 0 186.5493 120.6845
  L 188.5238 100.1793
  Z
  M 167.12 112.40
  Q 169.23 112.40 169.41 109.91
  Q 169.70 106.03 169.92 101.67
  A 1.01 1.00 -80.0 0 0 169.22 100.66
  L 169.15 100.63
  A 0.63 0.62 -81.4 0 0 168.35 101.23
  Q 168.37 106.81 166.73 111.86
  A 0.41 0.41 0.0 0 0 167.12 112.40
  Z
  M 162.35 102.84
  L 160.94 112.64
  A 0.22 0.22 0.0 0 0 161.20 112.89
  L 165.00 112.16
  A 0.32 0.30 -9.4 0 0 165.25 111.83
  Q 164.51 104.01 166.03 103.08
  A 1.11 1.02 -61.3 0 0 165.53 101.06
  C 164.18 101.20 163.90 102.79 163.14 102.92
  Q 162.51 103.03 162.37 102.84
  A 0.01 0.01 0.0 0 0 162.35 102.84
  Z
  M 170.43 123.16
  A 1.19 1.18 4.2 0 0 171.79 121.99
  Q 171.82 117.01 172.40 112.74
  C 172.96 108.61 172.59 105.29 173.68 101.82
  A 0.55 0.55 0.0 0 0 173.08 101.11
  L 172.84 101.16
  A 0.94 0.93 88.3 0 0 172.10 101.95
  L 169.37 122.08
  A 0.93 0.92 8.1 0 0 170.16 123.12
  L 170.43 123.16
  Z
  M 159.57 102.23
  L 156.73 103.34
  A 0.94 0.93 79.5 0 0 156.14 104.21
  Q 156.09 109.79 154.46 113.65
  A 0.52 0.51 -89.2 0 0 155.12 114.33
  L 158.29 113.08
  A 0.94 0.92 73.9 0 0 158.86 112.03
  Q 157.91 107.31 160.09 102.78
  A 0.41 0.40 2.0 0 0 159.57 102.23
  Z
  M 151.12 104.25
  A 1.70 1.70 0.0 0 0 150.05 105.80
  Q 149.99 111.08 148.45 114.70
  A 0.61 0.61 0.0 0 0 149.24 115.51
  L 150.78 114.90
  A 2.60 2.59 84.3 0 0 152.40 112.92
  L 153.90 104.20
  A 0.64 0.63 84.0 0 0 153.04 103.50
  L 151.12 104.25
  Z
  M 147.66 104.56
  L 144.89 105.60
  A 0.91 0.90 80.3 0 0 144.31 106.43
  Q 144.18 111.84 142.55 115.56
  A 0.50 0.50 0.0 0 0 143.18 116.22
  L 146.27 115.06
  A 0.91 0.90 74.8 0 0 146.84 114.05
  Q 145.98 109.46 148.16 105.10
  A 0.40 0.39 2.8 0 0 147.66 104.56
  Z
  M 138.61 115.64
  Q 138.15 110.66 139.81 106.82
  A 0.63 0.62 -2.9 0 0 138.93 106.03
  Q 136.66 107.29 136.44 109.75
  Q 136.10 113.53 135.17 116.48
  A 0.79 0.79 0.0 0 0 136.47 117.29
  Q 137.11 116.67 138.03 116.44
  A 0.76 0.75 -9.3 0 0 138.61 115.64
  Z
  M 131.60 117.70
  Q 130.86 112.60 132.68 108.72
  A 0.91 0.91 0.0 0 0 131.50 107.50
  Q 130.64 107.87 130.62 108.09
  Q 129.58 117.02 129.57 117.06
  A 1.01 1.01 0.0 0 0 129.97 117.99
  Q 130.55 118.43 131.16 118.31
  A 0.55 0.54 81.2 0 0 131.60 117.70
  Z
  M 160.96 115.80
  L 159.32 126.70
  A 0.10 0.09 -0.4 0 0 159.44 126.81
  L 163.16 125.95
  A 0.44 0.43 88.2 0 0 163.50 125.58
  Q 163.97 121.70 163.89 118.26
  Q 163.83 116.12 164.96 115.14
  A 0.53 0.53 0.0 0 0 164.50 114.22
  Q 163.37 114.45 162.91 115.14
  A 1.01 1.00 28.8 0 1 161.66 115.50
  Q 161.57 115.46 161.56 115.45
  A 0.45 0.45 0.0 0 0 160.96 115.80
  Z
  M 168.7981 114.7314
  A 0.26 0.26 0.0 0 0 168.5642 114.4477
  L 167.0711 114.3039
  A 0.26 0.26 0.0 0 0 166.7874 114.5378
  L 165.7619 125.1886
  A 0.26 0.26 0.0 0 0 165.9958 125.4723
  L 167.4889 125.6161
  A 0.26 0.26 0.0 0 0 167.7726 125.3822
  L 168.7981 114.7314
  Z
  M 152.74 127.19
  A 0.41 0.41 0.0 0 0 153.23 127.70
  L 156.93 126.81
  A 0.77 0.76 -9.7 0 0 157.52 126.00
  Q 156.99 120.48 158.57 116.07
  A 0.42 0.42 0.0 0 0 158.02 115.54
  L 155.21 116.68
  A 1.37 1.36 -11.3 0 0 154.36 117.96
  Q 154.41 122.04 152.74 127.19
  Z
  M 146.72 128.13
  A 0.41 0.41 0.0 0 0 147.20 128.65
  L 150.91 127.80
  A 0.76 0.76 0.0 0 0 151.50 126.99
  Q 151.03 121.47 152.65 117.08
  A 0.42 0.42 0.0 0 0 152.10 116.55
  L 149.29 117.66
  A 1.37 1.36 -10.7 0 0 148.42 118.93
  Q 148.43 123.01 146.72 128.13
  Z
  M 143.54 118.44
  A 1.71 1.71 0.0 0 0 142.47 119.99
  Q 142.42 125.29 140.88 128.93
  A 0.62 0.61 0.7 0 0 141.68 129.74
  L 143.22 129.13
  A 2.61 2.60 84.2 0 0 144.84 127.14
  L 146.33 118.38
  A 0.64 0.64 0.0 0 0 145.47 117.68
  L 143.54 118.44
  Z
  M 165.16 129.06
  Q 165.62 133.53 164.08 138.16
  A 0.88 0.88 0.0 0 0 165.24 139.26
  L 166.83 138.64
  A 2.31 2.30 81.4 0 0 168.28 136.67
  C 168.58 132.90 168.38 129.83 169.91 128.20
  A 0.69 0.69 0.0 0 0 169.15 127.08
  L 165.49 128.52
  A 0.52 0.52 0.0 0 0 165.16 129.06
  Z
  M 154.95 140.06
  A 1.35 1.33 82.9 0 0 156.03 138.66
  Q 155.75 134.07 157.13 129.46
  A 0.43 0.43 0.0 0 0 156.56 128.93
  L 153.52 130.12
  A 0.89 0.89 0.0 0 0 152.96 130.83
  L 151.73 139.40
  A 0.95 0.95 0.0 0 0 152.85 140.46
  L 154.95 140.06
  Z
  M 148.45 140.66
  A 1.62 1.62 0.0 0 0 149.45 139.17
  Q 149.45 134.14 150.88 130.66
  A 0.59 0.58 0.1 0 0 150.12 129.90
  L 148.65 130.50
  A 2.48 2.47 83.7 0 0 147.13 132.41
  L 145.79 140.74
  A 0.61 0.60 83.3 0 0 146.62 141.40
  L 148.45 140.66
  Z
  M 142.75 141.10
  A 1.26 1.25 85.4 0 0 143.82 139.83
  Q 143.74 135.51 145.23 131.24
  A 0.41 0.40 -89.8 0 0 144.71 130.72
  L 141.81 131.71
  A 0.84 0.83 -4.3 0 0 141.26 132.35
  L 139.75 140.34
  A 0.89 0.89 0.0 0 0 140.76 141.38
  L 142.75 141.10
  Z
  M 134.72 141.58
  Q 136.31 142.09 137.77 141.02
  A 1.10 1.10 0.0 0 0 138.21 140.03
  Q 137.68 135.03 139.19 132.62
  A 0.62 0.62 0.0 0 0 138.48 131.70
  Q 136.41 132.36 135.54 133.90
  A 1.68 1.66 -30.0 0 0 135.33 134.67
  Q 135.24 137.39 134.20 139.60
  A 1.54 1.17 -67.4 0 0 134.72 141.58
  Z"
/>
<path fill="#797f8d" d="
  M 217.13 61.03
  L 227.80 65.93
  Q 227.59 66.24 227.32 66.34
  Q 227.08 66.42 226.72 66.25
  Q 221.70 63.95 217.13 61.03
  Z"
/>
<path fill="#81797e" d="
  M 144.80 61.85
  Q 146.09 62.86 143.15 62.37
  Q 143.85 61.90 144.80 61.85
  Z"
/>
<path fill="#81797e" d="
  M 140.62 63.04
  Q 139.79 64.28 138.45 63.70
  Q 139.28 62.93 140.62 63.04
  Z"
/>
<path fill="#9299a7" d="
  M 155.77 74.06
  L 152.17 75.48
  A 0.08 0.07 82.8 0 1 152.07 75.40
  Q 152.74 70.57 153.58 67.27
  Q 154.18 64.95 156.46 64.43
  A 0.64 0.63 4.9 0 1 157.19 65.29
  Q 155.38 69.73 156.08 73.50
  A 0.50 0.50 0.0 0 1 155.77 74.06
  Z"
/>
<path fill="#81797e" d="
  M 231.29 65.07
  Q 230.91 65.24 230.47 65.21
  Q 230.86 65.07 231.29 65.07
  Z"
/>
<path fill="#9299a7" d="
  M 147.06 76.12
  L 146.91 77.30
  A 0.89 0.89 0.0 0 0 147.70 78.29
  Q 147.88 78.31 148.06 78.32
  A 0.46 0.45 -83.5 0 1 148.47 78.84
  L 147.31 87.00
  A 0.90 0.90 0.0 0 1 146.76 87.69
  L 143.93 88.80
  A 0.35 0.35 0.0 0 1 143.51 88.29
  Q 144.32 87.07 144.32 85.89
  A 1.40 1.36 66.1 0 1 144.64 85.03
  Q 145.30 84.22 146.09 83.38
  A 1.10 1.03 -67.7 0 0 145.39 81.55
  Q 144.94 81.56 144.80 81.52
  A 0.65 0.64 -74.5 0 1 144.36 80.73
  Q 144.97 78.58 146.33 69.80
  C 146.54 68.41 147.31 67.03 148.37 66.33
  A 0.70 0.70 0.0 0 1 149.43 67.08
  Q 148.49 71.05 148.72 74.81
  Q 148.78 75.71 148.44 75.63
  Q 148.02 75.53 147.95 75.52
  A 0.71 0.70 10.6 0 0 147.06 76.12
  Z"
/>
<rect fill="#102449" x="-0.81" y="-38.63" transform="translate(248.05,105.66) rotate(4.6)" width="1.62" height="77.26" rx="0.53"/>
<path fill="#102449" d="
  M 507.62 71.72
  L 507.57 70.28
  L 507.62 71.72
  Z"
/>
<path fill="#102449" d="
  M 507.64 72.10
  L 507.69 77.40
  L 507.64 72.10
  Z"
/>
<path fill="#102449" d="
  M 365.20 132.04
  L 366.50 84.92
  A 0.48 0.48 0.0 0 1 366.89 84.46
  L 425.64 73.13
  A 0.48 0.48 0.0 0 1 426.22 73.61
  L 425.84 123.53
  A 0.48 0.48 0.0 0 1 425.43 124.00
  L 365.74 132.53
  A 0.48 0.48 0.0 0 1 365.20 132.04
  Z"
/>
<path fill="#9299a7" d="
  M 150.74 86.31
  Q 151.88 83.53 151.76 79.14
  A 1.48 1.48 0.0 0 1 152.18 78.06
  Q 153.12 77.09 154.82 76.25
  A 0.81 0.81 0.0 0 1 155.96 77.16
  L 153.99 85.54
  A 1.38 1.38 0.0 0 1 153.15 86.50
  L 151.56 87.13
  A 0.63 0.63 0.0 0 1 150.74 86.31
  Z"
/>
<path fill="#9299a7" d="
  M 129.22 84.63
  Q 129.70 84.58 129.92 84.69
  Q 127.57 85.89 125.39 85.51
  Q 126.87 84.46 129.22 84.63
  Z"
/>
<path fill="#102449" d="
  M 129.21 87.39
  L 103.86 92.46
  A 0.64 0.63 19.2 0 0 103.56 92.60
  C 102.71 93.35 101.39 92.96 100.46 93.16
  Q 92.97 94.79 87.17 95.88
  Q 80.86 97.07 77.33 98.14
  C 75.66 98.64 73.78 98.30 72.55 99.29
  A 1.13 1.12 -59.0 0 1 71.65 99.52
  Q 69.75 99.19 67.13 100.23
  A 4.38 4.31 -61.4 0 1 66.37 100.46
  Q 50.96 103.80 40.24 105.97
  C 39.01 106.22 37.96 106.13 36.92 106.35
  Q 21.26 109.62 15.45 110.95
  C 13.04 111.51 13.29 112.89 12.94 114.88
  Q 11.08 125.47 9.50 135.51
  Q 9.33 136.63 9.43 137.37
  A 0.02 0.02 0.0 0 1 9.39 137.39
  Q 9.20 137.06 9.08 137.19
  Q 9.07 137.21 9.06 137.23
  Q 8.43 139.84 8.49 140.53
  Q 8.62 142.10 7.39 147.64
  Q 4.63 160.07 3.22 175.42
  A 0.53 0.53 0.0 0 0 3.79 176.00
  Q 14.51 175.19 23.75 174.29
  Q 43.02 172.41 51.84 171.74
  Q 52.77 171.68 58.32 170.93
  Q 61.73 170.47 64.81 170.64
  Q 65.94 170.70 70.01 169.62
  L 72.91 170.23
  A 0.29 0.29 0.0 0 1 72.99 170.77
  L 71.77 171.47
  A 1.56 1.53 30.4 0 1 70.97 171.67
  Q 66.69 171.48 64.86 171.96
  C 61.92 172.74 58.96 172.10 55.73 173.06
  A 1.60 1.36 -49.7 0 1 55.49 173.10
  L 49.22 173.61
  A 0.05 0.05 0.0 0 0 49.21 173.70
  Q 49.34 173.75 49.54 173.92
  A 0.15 0.15 0.0 0 1 49.43 174.18
  L 45.80 173.92
  A 2.13 1.87 37.4 0 0 45.35 173.95
  Q 42.20 174.52 37.42 174.36
  A 4.24 4.05 36.0 0 0 36.08 174.54
  Q 33.53 175.34 27.77 175.57
  A 3.11 3.11 0.0 0 0 26.82 175.76
  Q 24.55 176.62 22.73 176.24
  A 1.94 1.78 -39.3 0 0 22.22 176.21
  L 15.55 176.91
  A 0.55 0.52 -62.5 0 0 15.29 177.00
  Q 15.27 177.01 15.05 177.18
  A 1.21 1.18 22.9 0 1 14.41 177.43
  L 5.16 178.16
  Q 3.08 177.87 2.06 179.02
  L 2.35 170.80
  Q 3.40 170.04 2.58 168.69
  Q 3.56 162.48 4.49 156.21
  C 4.79 154.20 5.50 152.28 5.45 150.11
  C 5.40 148.01 6.50 146.09 6.49 144.04
  C 6.48 141.25 7.66 138.96 7.62 136.01
  A 5.01 4.87 -37.4 0 1 7.85 134.46
  C 8.95 131.01 8.41 127.58 9.94 124.11
  Q 11.13 121.22 10.70 117.91
  Q 11.98 115.00 11.53 112.09
  L 11.98 110.26
  A 0.95 0.95 0.0 0 1 13.06 109.55
  Q 13.92 109.71 14.43 109.02
  A 0.72 0.70 -75.4 0 1 14.91 108.73
  L 17.84 108.31
  A 0.06 0.05 73.8 0 0 17.88 108.23
  Q 17.73 107.94 18.12 107.86
  Q 19.94 107.50 21.65 107.15
  C 23.65 108.16 24.02 107.23 25.57 106.52
  A 1.70 1.68 39.4 0 1 26.67 106.42
  Q 28.57 106.88 29.84 106.11
  C 31.68 104.98 33.27 106.32 34.61 105.02
  C 35.49 104.16 36.41 104.28 37.56 104.14
  Q 38.84 104.22 40.10 103.80
  Q 41.29 103.41 42.56 103.28
  Q 44.38 103.10 45.56 102.02
  L 48.02 101.60
  Q 49.89 102.17 51.37 101.00
  Q 52.23 100.58 53.38 100.56
  Q 56.38 100.64 55.40 99.90
  L 58.20 99.44
  Q 60.57 100.04 62.09 98.88
  Q 62.57 98.54 63.66 98.66
  Q 65.71 98.80 65.85 97.80
  L 68.27 97.45
  Q 73.54 97.37 70.82 96.62
  L 73.43 96.45
  L 75.02 96.78
  A 1.42 1.41 -49.7 0 0 75.84 96.71
  Q 78.06 95.84 79.26 95.84
  C 81.51 95.84 82.87 94.26 85.02 94.86
  A 1.31 1.29 38.4 0 0 86.01 94.75
  Q 88.20 93.57 90.60 93.75
  A 2.06 2.00 -56.5 0 0 91.70 93.51
  C 92.92 92.84 93.08 92.51 94.68 92.59
  Q 96.28 92.68 97.76 91.93
  A 1.97 1.90 -56.8 0 1 98.73 91.71
  Q 101.51 91.78 103.27 90.13
  Q 104.12 89.60 104.10 90.03
  Q 106.87 91.10 108.75 88.97
  Q 111.90 87.68 115.68 87.57
  Q 118.67 87.57 117.32 86.94
  L 120.71 86.61
  Q 122.78 86.77 125.06 85.60
  L 125.39 85.51
  Q 127.57 85.89 129.92 84.69
  L 130.96 84.94
  A 0.83 0.83 0.0 0 1 130.89 86.57
  Q 129.78 86.75 129.21 87.39
  Z"
/>
<path fill="#81797e" d="
  M 510.18 85.22
  L 510.07 101.91
  L 510.18 85.22
  Z"
/>
<path fill="#81797e" d="
  M 125.06 85.60
  Q 122.78 86.77 120.71 86.61
  Q 120.96 85.96 121.96 85.92
  L 122.95 85.80
  L 125.06 85.60
  Z"
/>
<path fill="#102449" d="
  M 122.95 85.80
  L 121.96 85.92
  Q 122.41 85.78 122.95 85.80
  Z"
/>
<rect fill="#9299a7" x="-0.72" y="-5.79" transform="translate(173.78,91.56) rotate(5.3)" width="1.44" height="11.58" rx="0.35"/>
<path fill="#102449" d="
  M 303.21 140.45
  L 305.20 96.66
  A 0.74 0.74 0.0 0 1 305.80 95.97
  L 357.59 85.99
  A 0.74 0.74 0.0 0 1 358.47 86.75
  L 356.35 133.13
  A 0.74 0.74 0.0 0 1 355.71 133.83
  L 304.05 141.21
  A 0.74 0.74 0.0 0 1 303.21 140.45
  Z"
/>
<rect fill="#9299a7" x="-0.95" y="-5.88" transform="translate(170.34,92.46) rotate(6.1)" width="1.90" height="11.76" rx="0.32"/>
<path fill="#81797e" d="
  M 117.32 86.94
  Q 118.67 87.57 115.68 87.57
  Q 115.88 86.94 117.32 86.94
  Z"
/>
<path fill="#9299a7" d="
  M 168.05 88.03
  Q 166.34 93.15 166.35 97.24
  A 1.37 1.36 -10.7 0 1 165.48 98.51
  L 162.66 99.62
  A 0.42 0.42 0.0 0 1 162.11 99.09
  Q 163.73 94.69 163.26 89.17
  A 0.77 0.76 -9.1 0 1 163.85 88.36
  L 167.57 87.51
  A 0.41 0.41 0.0 0 1 168.05 88.03
  Z"
/>
<path fill="#9299a7" d="
  M 161.30 88.80
  A 0.20 0.19 87.1 0 1 161.54 89.02
  L 160.17 98.59
  A 2.15 2.14 87.7 0 1 158.53 100.38
  L 157.11 100.70
  A 0.88 0.87 -87.5 0 1 156.08 99.57
  Q 157.49 95.33 157.45 90.07
  A 0.49 0.49 0.0 0 1 157.83 89.59
  L 161.30 88.80
  Z"
/>
<path fill="#81797e" d="
  M 108.75 88.97
  Q 106.87 91.10 104.10 90.03
  Q 106.28 88.81 108.75 88.97
  Z"
/>
<path fill="#102449" d="
  M 130.08 88.91
  Q 130.88 89.39 130.40 90.81
  Q 129.95 92.14 129.88 92.80
  C 128.93 102.04 127.41 111.26 126.95 120.53
  L 126.58 123.77
  A 0.71 0.71 0.0 0 1 125.98 124.38
  L 103.72 127.56
  A 0.58 0.57 89.3 0 1 103.07 126.92
  L 103.79 120.44
  A 5.97 5.30 -36.4 0 1 104.02 119.35
  L 104.45 117.98
  A 0.49 0.25 -53.9 0 0 104.47 117.85
  L 107.52 94.27
  A 0.55 0.53 87.9 0 1 107.93 93.81
  L 130.08 88.91
  Z"
/>
<path fill="#81797e" d="
  M 103.27 90.13
  Q 101.51 91.78 98.73 91.71
  A 1.97 1.90 -56.8 0 0 97.76 91.93
  Q 96.28 92.68 94.68 92.59
  C 93.08 92.51 92.92 92.84 91.70 93.51
  A 2.06 2.00 -56.5 0 1 90.60 93.75
  Q 88.20 93.57 86.01 94.75
  A 1.31 1.29 38.4 0 1 85.02 94.86
  C 82.87 94.26 81.51 95.84 79.26 95.84
  Q 78.06 95.84 75.84 96.71
  A 1.42 1.41 -49.7 0 1 75.02 96.78
  L 73.43 96.45
  Q 72.52 96.16 74.81 95.68
  Q 75.20 95.54 75.49 95.64
  L 103.27 90.13
  Z"
/>
<path fill="#9299a7" d="
  M 153.13 101.24
  L 151.27 102.01
  A 0.62 0.62 0.0 0 1 150.41 101.33
  L 151.74 92.78
  A 2.54 2.54 0.0 0 1 153.30 90.81
  L 154.79 90.19
  A 0.60 0.60 0.0 0 1 155.58 90.97
  Q 154.13 94.54 154.16 99.71
  A 1.67 1.67 0.0 0 1 153.13 101.24
  Z"
/>
<path fill="#9299a7" d="
  M 147.20 101.98
  L 145.45 102.75
  A 0.59 0.59 0.0 0 1 144.63 102.14
  L 145.64 94.01
  A 2.40 2.40 0.0 0 1 147.06 92.11
  L 148.46 91.48
  A 0.57 0.57 0.0 0 1 149.22 92.20
  Q 147.95 95.61 148.12 100.50
  A 1.58 1.58 0.0 0 1 147.20 101.98
  Z"
/>
<path fill="#9299a7" d="
  M 139.50 103.31
  L 137.82 104.05
  A 0.57 0.57 0.0 0 1 137.03 103.45
  L 138.04 95.63
  A 2.32 2.31 82.0 0 1 139.41 93.81
  L 140.76 93.21
  A 0.55 0.55 0.0 0 1 141.49 93.90
  Q 140.26 97.18 140.40 101.89
  A 1.52 1.52 0.0 0 1 139.50 103.31
  Z"
/>
<path fill="#102449" d="
  M 102.67 95.37
  L 97.93 128.52
  A 0.34 0.34 0.0 0 1 97.64 128.81
  L 69.14 132.88
  A 0.34 0.34 0.0 0 1 68.75 132.49
  L 72.85 103.84
  A 0.34 0.34 0.0 0 0 72.85 103.72
  L 72.25 101.14
  A 0.34 0.34 0.0 0 1 72.52 100.73
  L 102.27 94.99
  A 0.34 0.34 0.0 0 1 102.67 95.37
  Z"
/>
<ellipse fill="#9299a7" cx="0.00" cy="0.00" transform="translate(133.00,96.08) rotate(-61.4)" rx="1.48" ry="0.89"/>
<path fill="#102449" d="
  M 75.49 95.64
  Q 75.20 95.54 74.81 95.68
  Q 75.14 95.55 75.49 95.64
  Z"
/>
<path fill="#9299a7" d="
  M 70.82 96.62
  Q 73.54 97.37 68.27 97.45
  Q 68.93 96.53 70.82 96.62
  Z"
/>
<rect fill="#102449" x="-0.43" y="-33.06" transform="translate(100.40,130.28) rotate(7.4)" width="0.86" height="66.12" rx="0.34"/>
<path fill="#102449" d="
  M 296.06 141.35
  Q 296.24 141.48 296.32 141.58
  A 0.19 0.18 -24.8 0 1 296.20 141.89
  L 248.65 148.69
  A 0.77 0.76 75.3 0 1 247.84 148.21
  Q 247.44 147.21 247.50 146.75
  Q 247.72 144.99 248.32 139.16
  Q 248.90 133.50 248.97 131.84
  C 249.21 125.50 250.07 121.75 250.19 115.47
  Q 250.27 111.58 251.02 106.55
  A 0.75 0.74 -1.7 0 1 251.62 105.92
  L 297.26 97.12
  A 0.32 0.32 0.0 0 1 297.64 97.45
  L 295.68 140.50
  A 1.02 1.01 21.3 0 0 296.06 141.35
  Z"
/>
<path fill="#9299a7" d="
  M 65.85 97.80
  Q 65.71 98.80 63.66 98.66
  Q 62.09 97.84 65.85 97.80
  Z"
/>
<path fill="#9299a7" d="
  M 62.09 98.88
  Q 60.57 100.04 58.20 99.44
  Q 59.86 98.42 62.09 98.88
  Z"
/>
<rect fill="#9299a7" x="-0.75" y="-10.94" transform="translate(186.79,110.36) rotate(5.5)" width="1.50" height="21.88" rx="0.64"/>
<path fill="#9299a7" d="
  M 55.40 99.90
  Q 56.38 100.64 53.38 100.56
  Q 53.63 99.79 55.40 99.90
  Z"
/>
<path fill="#9299a7" d="
  M 166.73 111.86
  Q 168.37 106.81 168.35 101.23
  A 0.63 0.62 -81.4 0 1 169.15 100.63
  L 169.22 100.66
  A 1.01 1.00 -80.0 0 1 169.92 101.67
  Q 169.70 106.03 169.41 109.91
  Q 169.23 112.40 167.12 112.40
  A 0.41 0.41 0.0 0 1 166.73 111.86
  Z"
/>
<path fill="#9299a7" d="
  M 51.37 101.00
  Q 49.89 102.17 48.02 101.60
  Q 49.28 100.70 51.37 101.00
  Z"
/>
<path fill="#9299a7" d="
  M 162.37 102.84
  Q 162.51 103.03 163.14 102.92
  C 163.90 102.79 164.18 101.20 165.53 101.06
  A 1.11 1.02 -61.3 0 1 166.03 103.08
  Q 164.51 104.01 165.25 111.83
  A 0.32 0.30 -9.4 0 1 165.00 112.16
  L 161.20 112.89
  A 0.22 0.22 0.0 0 1 160.94 112.64
  L 162.35 102.84
  A 0.01 0.01 0.0 0 1 162.37 102.84
  Z"
/>
<path fill="#9299a7" d="
  M 170.43 123.16
  L 170.16 123.12
  A 0.93 0.92 8.1 0 1 169.37 122.08
  L 172.10 101.95
  A 0.94 0.93 88.3 0 1 172.84 101.16
  L 173.08 101.11
  A 0.55 0.55 0.0 0 1 173.68 101.82
  C 172.59 105.29 172.96 108.61 172.40 112.74
  Q 171.82 117.01 171.79 121.99
  A 1.19 1.18 4.2 0 1 170.43 123.16
  Z"
/>
<path fill="#102449" d="
  M 41.97 112.59
  Q 42.72 110.80 42.70 108.40
  A 2.23 2.22 84.4 0 1 44.50 106.20
  L 68.26 101.62
  A 0.69 0.69 0.0 0 1 69.03 102.56
  Q 68.56 103.69 68.51 103.94
  Q 66.66 113.80 64.12 133.28
  A 1.05 1.03 -89.9 0 1 63.24 134.17
  L 38.18 137.75
  A 0.45 0.45 0.0 0 1 37.67 137.25
  C 38.31 132.66 39.11 127.07 40.37 121.30
  Q 41.89 114.28 41.88 113.05
  A 1.23 1.20 56.8 0 1 41.97 112.59
  Z"
/>
<path fill="#9299a7" d="
  M 45.56 102.02
  Q 44.38 103.10 42.56 103.28
  Q 41.29 103.41 40.10 103.80
  Q 38.84 104.22 37.56 104.14
  Q 37.30 104.04 37.26 103.75
  L 45.56 102.02
  Z"
/>
<path fill="#9299a7" d="
  M 159.57 102.23
  A 0.41 0.40 2.0 0 1 160.09 102.78
  Q 157.91 107.31 158.86 112.03
  A 0.94 0.92 73.9 0 1 158.29 113.08
  L 155.12 114.33
  A 0.52 0.51 -89.2 0 1 154.46 113.65
  Q 156.09 109.79 156.14 104.21
  A 0.94 0.93 79.5 0 1 156.73 103.34
  L 159.57 102.23
  Z"
/>
<path fill="#9299a7" d="
  M 153.90 104.20
  L 152.40 112.92
  A 2.60 2.59 84.3 0 1 150.78 114.90
  L 149.24 115.51
  A 0.61 0.61 0.0 0 1 148.45 114.70
  Q 149.99 111.08 150.05 105.80
  A 1.70 1.70 0.0 0 1 151.12 104.25
  L 153.04 103.50
  A 0.64 0.63 84.0 0 1 153.90 104.20
  Z"
/>
<path fill="#81797e" d="
  M 37.26 103.75
  Q 37.30 104.04 37.56 104.14
  C 36.41 104.28 35.49 104.16 34.61 105.02
  C 33.27 106.32 31.68 104.98 29.84 106.11
  Q 28.57 106.88 26.67 106.42
  A 1.70 1.68 39.4 0 0 25.57 106.52
  C 24.02 107.23 23.65 108.16 21.65 107.15
  L 37.26 103.75
  Z"
/>
<path fill="#9299a7" d="
  M 147.66 104.56
  A 0.40 0.39 2.8 0 1 148.16 105.10
  Q 145.98 109.46 146.84 114.05
  A 0.91 0.90 74.8 0 1 146.27 115.06
  L 143.18 116.22
  A 0.50 0.50 0.0 0 1 142.55 115.56
  Q 144.18 111.84 144.31 106.43
  A 0.91 0.90 80.3 0 1 144.89 105.60
  L 147.66 104.56
  Z"
/>
<path fill="#9299a7" d="
  M 138.03 116.44
  Q 137.11 116.67 136.47 117.29
  A 0.79 0.79 0.0 0 1 135.17 116.48
  Q 136.10 113.53 136.44 109.75
  Q 136.66 107.29 138.93 106.03
  A 0.63 0.62 -2.9 0 1 139.81 106.82
  Q 138.15 110.66 138.61 115.64
  A 0.76 0.75 -9.3 0 1 138.03 116.44
  Z"
/>
<path fill="#9299a7" d="
  M 131.16 118.31
  Q 130.55 118.43 129.97 117.99
  A 1.01 1.01 0.0 0 1 129.57 117.06
  Q 129.58 117.02 130.62 108.09
  Q 130.64 107.87 131.50 107.50
  A 0.91 0.91 0.0 0 1 132.68 108.72
  Q 130.86 112.60 131.60 117.70
  A 0.55 0.54 81.2 0 1 131.16 118.31
  Z"
/>
<path fill="#102449" d="
  M 32.88 138.83
  L 10.16 142.07
  A 0.34 0.34 0.0 0 1 9.78 141.68
  L 14.71 112.98
  A 0.34 0.34 0.0 0 1 14.98 112.71
  L 37.91 108.28
  A 0.34 0.34 0.0 0 1 38.31 108.67
  L 33.17 138.55
  A 0.34 0.34 0.0 0 1 32.88 138.83
  Z"
/>
<ellipse fill="#102449" cx="0.00" cy="0.00" transform="translate(508.77,111.08) rotate(-26.5)" rx="1.23" ry="0.89"/>
<path fill="#102449" d="
  M 510.04 111.21
  Q 509.96 110.85 510.02 110.50
  Q 510.18 110.87 510.04 111.21
  Z"
/>
<path fill="#9299a7" d="
  M 11.53 112.09
  Q 11.98 115.00 10.70 117.91
  Q 10.53 114.70 11.53 112.09
  Z"
/>
<path fill="#9299a7" d="
  M 161.56 115.45
  Q 161.57 115.46 161.66 115.50
  A 1.01 1.00 28.8 0 0 162.91 115.14
  Q 163.37 114.45 164.50 114.22
  A 0.53 0.53 0.0 0 1 164.96 115.14
  Q 163.83 116.12 163.89 118.26
  Q 163.97 121.70 163.50 125.58
  A 0.44 0.43 88.2 0 1 163.16 125.95
  L 159.44 126.81
  A 0.10 0.09 -0.4 0 1 159.32 126.70
  L 160.96 115.80
  A 0.45 0.45 0.0 0 1 161.56 115.45
  Z"
/>
<rect fill="#9299a7" x="-1.01" y="-5.61" transform="translate(167.28,119.96) rotate(5.5)" width="2.02" height="11.22" rx="0.26"/>
<path fill="#81797e" d="
  M 509.96 115.33
  Q 510.16 115.77 509.93 116.85
  A 0.76 0.76 0.0 0 1 509.21 117.46
  L 508.71 117.47
  Q 508.11 117.42 507.71 117.71
  L 476.48 121.92
  A 1.36 1.05 -52.5 0 0 476.22 121.99
  C 473.67 122.97 470.50 122.35 468.03 123.19
  C 465.69 123.98 462.50 123.84 459.36 124.38
  Q 452.60 125.53 445.79 126.17
  Q 441.45 125.78 437.41 127.16
  C 434.64 128.54 431.55 127.89 429.24 128.58
  C 426.33 129.45 423.33 129.01 420.67 129.90
  C 418.79 130.53 416.73 130.19 414.55 130.59
  Q 406.84 132.03 398.71 132.72
  A 3.84 3.42 29.9 0 0 397.90 132.89
  Q 395.63 133.68 392.75 133.59
  A 4.85 4.75 -51.9 0 0 391.16 133.80
  Q 388.09 134.76 384.30 134.66
  A 2.25 1.71 31.0 0 0 383.84 134.71
  L 380.02 135.59
  A 2.29 1.71 -43.8 0 1 379.53 135.65
  C 376.03 135.68 373.21 136.42 369.44 136.91
  Q 342.00 140.44 317.26 144.03
  C 314.78 144.39 311.95 144.26 310.13 144.96
  C 307.82 145.85 305.15 145.28 302.80 145.99
  C 299.99 146.83 297.18 146.31 294.48 147.15
  C 292.05 147.91 290.12 147.46 287.50 148.10
  C 284.84 148.75 281.51 148.67 278.49 149.41
  Q 278.49 148.53 278.03 148.61
  Q 275.16 149.16 271.75 149.59
  Q 260.43 151.01 252.17 152.19
  A 1.76 1.76 0.0 0 0 250.90 153.07
  C 250.17 154.41 250.48 156.12 249.54 157.53
  A 0.21 0.21 0.0 0 1 249.15 157.42
  Q 249.01 154.96 249.39 153.42
  Q 249.51 152.92 249.41 152.61
  Q 249.28 152.18 248.96 151.96
  A 0.72 0.72 0.0 0 1 249.29 150.65
  Q 263.94 148.81 286.34 145.80
  C 290.80 145.20 296.31 144.03 301.81 143.55
  Q 303.85 143.37 308.13 142.72
  C 330.79 139.28 357.01 136.28 380.23 132.85
  Q 406.62 128.95 416.48 127.79
  C 426.26 126.63 433.28 124.88 442.52 124.05
  Q 444.73 123.86 452.96 122.81
  Q 459.69 121.95 480.03 118.87
  Q 494.96 116.62 509.96 115.33
  Z"
/>
<path fill="#9299a7" d="
  M 152.74 127.19
  Q 154.41 122.04 154.36 117.96
  A 1.37 1.36 -11.3 0 1 155.21 116.68
  L 158.02 115.54
  A 0.42 0.42 0.0 0 1 158.57 116.07
  Q 156.99 120.48 157.52 126.00
  A 0.77 0.76 -9.7 0 1 156.93 126.81
  L 153.23 127.70
  A 0.41 0.41 0.0 0 1 152.74 127.19
  Z"
/>
<path fill="#9299a7" d="
  M 146.72 128.13
  Q 148.43 123.01 148.42 118.93
  A 1.37 1.36 -10.7 0 1 149.29 117.66
  L 152.10 116.55
  A 0.42 0.42 0.0 0 1 152.65 117.08
  Q 151.03 121.47 151.50 126.99
  A 0.76 0.76 0.0 0 1 150.91 127.80
  L 147.20 128.65
  A 0.41 0.41 0.0 0 1 146.72 128.13
  Z"
/>
<path fill="#102449" d="
  M 431.78 117.40
  Q 432.26 118.16 431.78 118.74
  A 0.97 0.96 12.7 0 1 431.24 119.07
  Q 429.77 119.42 429.45 118.91
  Q 429.12 118.40 430.03 117.20
  A 0.97 0.96 -78.3 0 1 430.56 116.85
  Q 431.29 116.65 431.78 117.40
  Z"
/>
<path fill="#9299a7" d="
  M 143.54 118.44
  L 145.47 117.68
  A 0.64 0.64 0.0 0 1 146.33 118.38
  L 144.84 127.14
  A 2.61 2.60 84.2 0 1 143.22 129.13
  L 141.68 129.74
  A 0.62 0.61 0.7 0 1 140.88 128.93
  Q 142.42 125.29 142.47 119.99
  A 1.71 1.71 0.0 0 1 143.54 118.44
  Z"
/>
<path fill="#102449" d="
  M 508.71 117.47
  Q 508.35 117.68 507.71 117.71
  Q 508.11 117.42 508.71 117.47
  Z"
/>
<path fill="#797f8d" d="
  M 10.70 117.91
  Q 11.13 121.22 9.94 124.11
  Q 9.32 120.65 10.70 117.91
  Z"
/>
<path fill="#102449" d="
  M 126.25 126.91
  Q 125.07 133.68 124.18 142.25
  Q 124.03 143.65 124.31 144.31
  A 0.52 0.51 -18.1 0 1 123.94 145.02
  C 120.29 145.83 112.98 149.93 115.48 154.73
  Q 117.01 157.65 120.33 158.40
  A 1.69 1.68 -88.0 0 1 121.63 159.80
  L 121.95 162.10
  A 0.92 0.92 0.0 0 1 121.12 163.15
  L 98.07 165.13
  A 0.58 0.58 0.0 0 1 97.51 164.26
  L 98.16 163.14
  A 1.55 1.50 -27.3 0 0 98.34 162.61
  L 102.47 130.37
  A 0.76 0.76 0.0 0 1 103.12 129.71
  L 125.82 126.47
  A 0.38 0.38 0.0 0 1 126.25 126.91
  Z"
/>
<path fill="#9299a7" d="
  M 445.79 126.17
  L 437.41 127.16
  Q 441.45 125.78 445.79 126.17
  Z"
/>
<path fill="#9299a7" d="
  M 165.49 128.52
  L 169.15 127.08
  A 0.69 0.69 0.0 0 1 169.91 128.20
  C 168.38 129.83 168.58 132.90 168.28 136.67
  A 2.31 2.30 81.4 0 1 166.83 138.64
  L 165.24 139.26
  A 0.88 0.88 0.0 0 1 164.08 138.16
  Q 165.62 133.53 165.16 129.06
  A 0.52 0.52 0.0 0 1 165.49 128.52
  Z"
/>
<path fill="#9299a7" d="
  M 151.73 139.40
  L 152.96 130.83
  A 0.89 0.89 0.0 0 1 153.52 130.12
  L 156.56 128.93
  A 0.43 0.43 0.0 0 1 157.13 129.46
  Q 155.75 134.07 156.03 138.66
  A 1.35 1.33 82.9 0 1 154.95 140.06
  L 152.85 140.46
  A 0.95 0.95 0.0 0 1 151.73 139.40
  Z"
/>
<path fill="#9299a7" d="
  M 148.45 140.66
  L 146.62 141.40
  A 0.61 0.60 83.3 0 1 145.79 140.74
  L 147.13 132.41
  A 2.48 2.47 83.7 0 1 148.65 130.50
  L 150.12 129.90
  A 0.59 0.58 0.1 0 1 150.88 130.66
  Q 149.45 134.14 149.45 139.17
  A 1.62 1.62 0.0 0 1 148.45 140.66
  Z"
/>
<path fill="#102449" d="
  M 97.02 131.04
  A 0.55 0.55 0.0 0 1 97.64 131.67
  Q 96.24 140.59 95.24 148.62
  Q 95.06 150.05 94.63 152.37
  C 94.12 155.20 94.39 157.59 93.73 160.61
  Q 93.29 162.64 93.62 165.05
  A 0.76 0.76 0.0 0 1 92.93 165.90
  L 64.22 168.37
  A 0.62 0.62 0.0 0 1 63.55 167.66
  L 68.06 136.10
  A 1.28 1.28 0.0 0 1 69.14 135.02
  L 97.02 131.04
  Z"
/>
<path fill="#9299a7" d="
  M 142.75 141.10
  L 140.76 141.38
  A 0.89 0.89 0.0 0 1 139.75 140.34
  L 141.26 132.35
  A 0.84 0.83 -4.3 0 1 141.81 131.71
  L 144.71 130.72
  A 0.41 0.40 -89.8 0 1 145.23 131.24
  Q 143.74 135.51 143.82 139.83
  A 1.26 1.25 85.4 0 1 142.75 141.10
  Z"
/>
<path fill="#9299a7" d="
  M 134.72 141.58
  A 1.54 1.17 -67.4 0 1 134.20 139.60
  Q 135.24 137.39 135.33 134.67
  A 1.68 1.66 -30.0 0 1 135.54 133.90
  Q 136.41 132.36 138.48 131.70
  A 0.62 0.62 0.0 0 1 139.19 132.62
  Q 137.68 135.03 138.21 140.03
  A 1.10 1.10 0.0 0 1 137.77 141.02
  Q 136.31 142.09 134.72 141.58
  Z"
/>
<path fill="#102449" d="
  M 58.72 169.06
  L 33.21 171.26
  A 0.30 0.30 0.0 0 1 32.88 170.92
  L 37.32 139.93
  A 0.30 0.30 0.0 0 1 37.57 139.68
  L 63.29 136.01
  A 0.30 0.30 0.0 0 1 63.63 136.35
  L 58.99 168.80
  A 0.30 0.30 0.0 0 1 58.72 169.06
  Z"
/>
<path fill="#102449" d="
  M 28.09 171.65
  L 5.44 174.89
  A 0.30 0.30 0.0 0 1 5.10 174.55
  L 9.44 144.16
  A 0.30 0.30 0.0 0 1 9.69 143.91
  L 32.34 140.67
  A 0.30 0.30 0.0 0 1 32.68 141.01
  L 28.34 171.40
  A 0.30 0.30 0.0 0 1 28.09 171.65
  Z"
/>
<rect fill="#102449" x="-0.34" y="-7.72" transform="translate(62.83,159.13) rotate(6.8)" width="0.68" height="15.44" rx="0.32"/>
<rect fill="#102449" x="-4.31" y="-0.49" transform="translate(125.16,154.63) rotate(0.3)" width="8.62" height="0.98" rx="0.37"/>
<path fill="#102449" d="
  M 217.19 156.46
  Q 217.38 156.25 217.28 155.18
  A 0.44 0.44 0.0 0 1 217.89 154.74
  C 220.50 155.87 223.92 157.82 224.68 160.75
  A 0.68 0.68 0.0 0 1 223.44 161.26
  L 222.71 160.00
  A 0.67 0.66 -31.6 0 0 221.76 159.78
  Q 219.11 161.54 221.11 164.78
  A 1.18 1.18 0.0 0 0 223.13 164.75
  L 224.08 163.10
  A 0.43 0.43 0.0 0 1 224.88 163.33
  Q 224.72 167.31 221.45 168.24
  C 219.72 168.73 219.36 169.17 218.10 169.93
  A 2.05 1.96 28.5 0 1 217.07 170.21
  L 211.56 170.17
  A 1.33 1.28 -22.4 0 1 210.70 169.83
  C 207.16 166.48 207.33 163.34 207.98 158.87
  A 1.25 1.24 -87.4 0 1 209.13 157.81
  L 215.68 157.40
  A 1.04 1.00 -75.9 0 0 216.50 156.89
  Q 216.64 156.65 216.73 156.16
  A 0.11 0.10 32.0 0 1 216.92 156.12
  Q 217.06 156.32 217.08 156.42
  A 0.07 0.06 63.8 0 0 217.19 156.46
  Z
  M 211.5283 163.2968
  A 0.74 0.64 -138.2 0 0 211.6534 164.2671
  A 0.74 0.64 -138.2 0 0 212.6317 164.2832
  A 0.74 0.64 -138.2 0 0 212.5066 163.3129
  A 0.74 0.64 -138.2 0 0 211.5283 163.2968
  Z
  M 212.16 168.29
  A 0.40 0.40 0.0 0 0 212.57 167.68
  Q 212.31 167.29 211.73 167.37
  A 0.36 0.29 -21.0 0 0 211.44 167.86
  Q 211.74 168.20 212.16 168.29
  Z"
/>
<rect fill="#81797e" x="-0.67" y="-2.04" transform="translate(135.89,159.86) rotate(33.2)" width="1.34" height="4.08" rx="0.53"/>
<ellipse fill="#102449" cx="0.00" cy="0.00" transform="translate(130.20,161.65) rotate(-29.8)" rx="1.21" ry="0.60"/>
<path fill="#102449" d="
  M 138.04 181.13
  C 136.60 176.77 136.93 172.10 136.84 167.59
  Q 137.49 166.85 136.96 166.17
  Q 136.41 165.46 135.44 165.58
  Q 132.91 165.91 130.50 166.24
  A 1.42 1.41 -76.6 0 0 129.50 166.86
  C 126.45 171.47 126.13 176.17 126.38 181.00
  Q 126.40 181.39 126.93 181.21
  Q 126.93 182.35 126.19 183.21
  Q 125.75 183.35 125.70 183.75
  Q 125.67 184.11 126.02 184.04
  Q 125.84 184.34 125.53 184.51
  Q 124.29 184.13 124.20 184.71
  L 123.54 184.59
  Q 123.90 184.68 123.97 184.50
  Q 124.08 184.23 123.77 184.15
  Q 123.58 184.10 123.29 184.22
  Q 123.16 183.75 122.74 183.66
  Q 122.31 183.57 122.20 183.91
  Q 121.88 183.19 121.88 182.45
  A 0.82 0.81 78.7 0 1 122.36 181.72
  L 123.97 181.00
  Q 124.33 181.95 124.54 180.49
  Q 125.22 175.78 124.97 174.29
  A 1.64 1.60 -39.8 0 1 125.06 173.41
  L 128.55 164.45
  A 1.11 1.11 0.0 0 1 129.49 163.74
  L 136.42 163.15
  A 1.07 1.07 0.0 0 1 137.59 164.15
  Q 137.97 170.41 138.99 176.99
  Q 139.32 179.07 138.04 181.13
  Z"
/>
<ellipse fill="#81797e" cx="0.00" cy="0.00" transform="translate(212.08,163.79) rotate(-138.2)" rx="0.74" ry="0.64"/>
<path fill="#102449" d="
  M 122.75 177.15
  Q 121.12 175.23 121.64 172.15
  Q 122.40 169.72 121.75 167.52
  A 1.43 1.42 -16.9 0 0 119.96 166.57
  C 115.11 168.06 110.68 167.32 105.90 168.55
  A 4.72 4.50 -52.0 0 1 104.95 168.69
  Q 97.26 169.02 91.24 169.36
  Q 86.72 169.60 88.50 168.34
  L 121.43 164.92
  A 0.54 0.54 0.0 0 0 121.88 164.56
  L 121.97 164.30
  A 0.16 0.16 0.0 0 1 122.27 164.32
  Q 123.67 170.66 122.75 177.15
  Z"
/>
<path fill="#102449" d="
  M 141.85 179.33
  Q 141.81 180.53 140.85 180.75
  L 140.87 179.09
  A 1.46 1.30 57.5 0 1 140.94 178.65
  L 145.47 165.58
  A 1.70 1.69 7.1 0 1 146.94 164.44
  L 151.75 164.02
  A 1.06 1.05 1.7 0 1 152.89 165.22
  L 152.80 165.82
  A 1.12 1.10 3.3 0 1 151.72 166.77
  L 148.69 166.83
  A 1.41 1.40 -77.4 0 0 147.44 167.63
  L 141.85 179.33
  Z"
/>
<path fill="#102449" d="
  M 157.97 165.28
  A 0.28 0.28 0.0 0 1 158.26 165.55
  L 158.29 166.83
  A 7.82 1.59 88.7 0 1 156.88 174.69
  L 156.78 174.69
  A 7.82 1.59 88.7 0 1 155.01 166.91
  L 154.98 165.63
  A 0.28 0.28 0.0 0 1 155.25 165.34
  L 157.97 165.28
  Z"
/>
<path fill="#9299a7" d="
  M 136.84 167.59
  Q 130.67 165.49 128.54 171.31
  Q 127.44 174.32 127.07 177.23
  L 127.06 180.96
  Q 127.00 181.08 126.93 181.21
  Q 126.40 181.39 126.38 181.00
  C 126.13 176.17 126.45 171.47 129.50 166.86
  A 1.42 1.41 -76.6 0 1 130.50 166.24
  Q 132.91 165.91 135.44 165.58
  Q 136.41 165.46 136.96 166.17
  Q 137.49 166.85 136.84 167.59
  Z"
/>
<path fill="#81797e" d="
  M 121.64 172.15
  Q 120.60 171.56 120.65 170.36
  A 1.92 1.92 0.0 0 0 118.47 168.38
  Q 116.14 168.71 113.55 169.16
  Q 112.75 168.65 112.21 169.22
  Q 98.02 170.49 83.86 172.03
  Q 79.08 172.54 76.10 172.68
  C 72.34 172.86 69.34 173.77 65.78 173.71
  C 62.01 173.64 57.99 174.70 53.28 174.89
  Q 50.45 175.01 46.34 175.73
  A 9.87 9.74 -49.5 0 1 44.69 175.87
  Q 40.45 175.89 35.84 176.71
  A 12.40 11.68 37.2 0 1 34.14 176.89
  Q 30.06 176.99 27.53 177.40
  C 22.69 178.18 17.54 178.17 12.51 178.99
  L 12.81 178.75
  A 0.52 0.51 -67.3 0 0 12.44 177.84
  Q 8.77 178.19 5.16 178.16
  L 14.41 177.43
  A 1.21 1.18 22.9 0 0 15.05 177.18
  Q 15.27 177.01 15.29 177.00
  A 0.55 0.52 -62.5 0 1 15.55 176.91
  L 22.22 176.21
  A 1.94 1.78 -39.3 0 1 22.73 176.24
  Q 24.55 176.62 26.82 175.76
  A 3.11 3.11 0.0 0 1 27.77 175.57
  Q 33.53 175.34 36.08 174.54
  A 4.24 4.05 36.0 0 1 37.42 174.36
  Q 42.20 174.52 45.35 173.95
  A 2.13 1.87 37.4 0 1 45.80 173.92
  L 49.43 174.18
  A 0.15 0.15 0.0 0 0 49.54 173.92
  Q 49.34 173.75 49.21 173.70
  A 0.05 0.05 0.0 0 1 49.22 173.61
  L 55.49 173.10
  A 1.60 1.36 -49.7 0 0 55.73 173.06
  C 58.96 172.10 61.92 172.74 64.86 171.96
  Q 66.69 171.48 70.97 171.67
  A 1.56 1.53 30.4 0 0 71.77 171.47
  L 72.99 170.77
  A 0.29 0.29 0.0 0 0 72.91 170.23
  L 70.01 169.62
  L 88.50 168.34
  Q 86.72 169.60 91.24 169.36
  Q 97.26 169.02 104.95 168.69
  A 4.72 4.50 -52.0 0 0 105.90 168.55
  C 110.68 167.32 115.11 168.06 119.96 166.57
  A 1.43 1.42 -16.9 0 1 121.75 167.52
  Q 122.40 169.72 121.64 172.15
  Z
  M 40.1295 174.9694
  A 1.79 0.22 -1.3 0 0 38.3350 174.7901
  A 1.79 0.22 -1.3 0 0 36.5505 175.0506
  A 1.79 0.22 -1.3 0 0 38.3450 175.2299
  A 1.79 0.22 -1.3 0 0 40.1295 174.9694
  Z"
/>
<path fill="#102449" d="
  M 161.83 175.38
  A 0.18 0.17 -18.8 0 1 161.54 175.24
  L 162.14 167.14
  A 0.53 0.53 0.0 0 1 162.71 166.65
  L 163.11 166.68
  A 0.36 0.35 -79.5 0 1 163.42 167.14
  Q 162.82 169.08 164.04 169.74
  A 1.23 1.22 22.9 0 1 164.63 171.18
  Q 163.89 173.55 161.83 175.38
  Z"
/>
<path fill="#102449" d="
  M 231.17 177.95
  Q 230.89 179.65 229.77 179.24
  Q 223.99 177.13 222.58 171.08
  Q 224.02 168.13 226.40 167.24
  A 2.68 2.52 61.9 0 1 229.43 168.27
  Q 230.50 169.82 231.23 171.31
  A 1.98 1.96 -56.9 0 1 231.42 172.24
  L 231.17 177.95
  Z"
/>
<path fill="#81797e" d="
  M 212.16 168.29
  Q 211.74 168.20 211.44 167.86
  A 0.36 0.29 -21.0 0 1 211.73 167.37
  Q 212.31 167.29 212.57 167.68
  A 0.40 0.40 0.0 0 1 212.16 168.29
  Z"
/>
<path fill="#81797e" d="
  M 199.30 187.88
  L 201.13 194.64
  A 0.66 0.65 80.8 0 0 201.80 195.13
  Q 203.79 195.02 205.43 195.49
  Q 205.71 196.38 205.62 197.10
  A 0.49 0.49 0.0 0 1 205.04 197.52
  Q 203.06 197.13 201.29 198.09
  Q 200.94 196.15 199.70 195.34
  A 0.42 0.42 0.0 0 0 199.08 195.56
  Q 198.80 196.48 198.93 197.86
  Q 197.13 195.17 194.53 193.58
  A 2.21 2.14 -27.6 0 0 193.48 193.27
  C 190.31 193.16 189.59 190.68 187.72 189.29
  A 1.93 1.85 62.4 0 0 186.59 188.91
  L 178.89 188.97
  Q 174.15 188.01 175.38 192.81
  Q 174.82 196.46 172.21 198.62
  Q 168.86 198.91 167.49 198.19
  L 170.74 198.35
  A 2.17 2.17 0.0 0 0 172.82 197.08
  Q 174.80 192.72 173.40 188.34
  A 0.83 0.72 41.2 0 1 173.36 188.04
  L 173.45 185.33
  A 0.52 0.52 0.0 0 0 172.93 184.79
  L 172.54 184.79
  A 0.70 0.69 87.8 0 0 171.84 185.55
  Q 172.01 187.34 171.69 188.16
  A 0.66 0.66 0.0 0 0 171.90 188.92
  Q 172.64 189.50 172.31 190.72
  Q 171.58 193.39 171.29 195.33
  A 1.81 1.81 0.0 0 1 168.46 196.55
  L 164.15 193.54
  A 0.18 0.17 -57.8 0 1 164.10 193.31
  L 164.24 193.06
  A 0.42 0.42 0.0 0 1 164.82 192.91
  L 166.30 193.75
  A 0.66 0.66 0.0 0 0 167.13 193.62
  Q 169.11 191.36 167.52 188.86
  A 1.77 1.68 2.2 0 0 167.10 188.43
  L 166.13 187.72
  A 0.48 0.48 0.0 0 0 165.44 187.87
  Q 165.08 188.52 164.17 188.68
  Q 165.03 187.01 164.56 185.41
  Q 164.51 185.26 164.76 184.93
  L 166.85 186.28
  A 0.84 0.83 -76.1 0 0 168.13 185.50
  Q 168.05 184.63 168.38 183.41
  A 1.50 1.45 -17.5 0 1 168.70 182.82
  Q 169.66 181.73 169.29 180.73
  A 0.76 0.73 10.3 0 0 169.06 180.41
  L 167.08 178.67
  L 176.03 179.07
  A 1.10 1.09 -82.2 0 0 177.13 178.23
  L 179.07 169.99
  A 0.49 0.48 10.8 0 1 179.62 169.62
  Q 181.61 169.97 183.97 169.04
  A 0.20 0.20 0.0 0 1 184.24 169.26
  L 183.30 174.56
  A 1.55 1.54 -82.8 0 0 184.71 176.38
  L 184.84 176.39
  A 1.84 1.84 0.0 0 0 186.81 174.61
  L 187.00 168.95
  A 0.88 0.88 0.0 0 1 188.17 168.15
  L 188.52 168.27
  A 1.47 1.46 -81.2 0 1 189.51 169.63
  L 189.61 174.91
  A 1.19 1.18 -79.7 0 0 190.36 176.00
  Q 192.43 176.82 194.38 176.61
  A 0.62 0.62 0.0 0 1 195.06 177.14
  L 195.10 177.43
  A 0.41 0.39 79.8 0 1 194.80 177.88
  L 193.39 178.20
  A 0.73 0.72 81.3 0 0 192.83 178.97
  Q 193.00 181.13 192.17 184.37
  Q 192.02 184.94 192.43 185.93
  A 0.32 0.32 0.0 0 0 192.84 186.10
  L 193.09 186.00
  A 0.19 0.18 -17.4 0 0 193.21 185.78
  Q 192.66 183.11 194.08 182.85
  A 0.72 0.72 0.0 0 0 194.66 182.04
  C 194.29 179.42 195.36 177.75 197.96 177.09
  A 0.49 0.48 -6.2 0 1 198.57 177.58
  Q 198.54 178.01 197.95 178.09
  A 0.74 0.73 -73.5 0 0 197.50 178.34
  Q 196.08 179.94 195.82 182.25
  A 0.94 0.93 23.1 0 0 196.15 183.06
  Q 197.04 183.83 196.87 184.79
  A 0.70 0.69 -62.8 0 0 197.07 185.42
  L 197.88 186.24
  A 0.37 0.37 0.0 0 1 197.83 186.80
  Q 197.51 187.03 196.96 186.82
  A 0.55 0.54 5.4 0 1 196.63 186.43
  Q 196.62 186.40 196.63 186.22
  A 0.19 0.19 0.0 0 0 196.36 186.05
  Q 195.18 186.61 195.75 188.08
  A 1.17 1.07 -28.5 0 0 197.46 188.50
  Q 198.62 187.71 199.30 187.88
  Z"
/>
<path fill="#81797e" d="
  M 2.35 170.80
  Q 2.17 169.74 2.58 168.69
  Q 3.40 170.04 2.35 170.80
  Z"
/>
<path fill="#9299a7" d="
  M 113.55 169.16
  L 112.21 169.22
  Q 112.75 168.65 113.55 169.16
  Z"
/>
<path fill="#102449" d="
  M 152.10 169.05
  Q 153.27 171.71 153.94 174.55
  Q 154.16 175.49 155.94 177.13
  A 1.07 1.04 -19.1 0 0 156.45 177.37
  L 161.89 178.14
  A 1.65 1.60 -55.2 0 0 162.93 177.94
  L 163.81 177.43
  A 0.97 0.96 50.4 0 1 164.92 177.54
  Q 166.08 178.54 167.08 178.67
  L 169.06 180.41
  A 0.76 0.73 10.3 0 1 169.29 180.73
  Q 169.66 181.73 168.70 182.82
  A 1.50 1.45 -17.5 0 0 168.38 183.41
  Q 168.05 184.63 168.13 185.50
  A 0.84 0.83 -76.1 0 1 166.85 186.28
  L 164.76 184.93
  L 166.30 181.61
  Q 167.00 183.16 167.51 180.99
  A 0.95 0.95 0.0 0 0 166.50 179.83
  L 158.59 180.46
  Q 154.72 178.64 152.26 173.47
  Q 151.16 171.14 152.10 169.05
  Z"
/>
<path fill="#81797e" d="
  M 222.58 171.08
  Q 223.99 177.13 229.77 179.24
  Q 230.89 179.65 231.17 177.95
  Q 231.13 179.14 232.41 179.37
  Q 231.06 180.64 231.97 182.87
  A 0.94 0.92 -10.4 0 0 232.82 183.44
  L 241.49 183.50
  A 0.41 0.40 71.7 0 0 241.81 182.85
  Q 241.40 182.29 240.28 181.89
  L 242.08 182.07
  A 0.85 0.85 0.0 0 0 242.85 181.73
  L 243.64 180.68
  L 243.42 184.55
  A 1.29 1.28 1.4 0 1 242.14 185.76
  L 222.76 185.92
  Q 221.24 185.18 219.35 186.24
  A 0.73 0.73 0.0 0 0 219.12 187.30
  Q 219.28 187.53 219.68 187.50
  Q 219.68 189.36 218.49 190.69
  A 1.07 1.05 -69.4 0 1 217.72 191.05
  L 214.09 191.14
  Q 210.13 190.24 210.33 194.20
  L 207.74 199.78
  Q 205.66 203.06 201.65 201.61
  L 203.70 201.17
  A 0.71 0.71 0.0 0 0 204.25 200.34
  L 203.78 197.95
  A 0.32 0.32 0.0 0 0 203.27 197.76
  Q 201.49 199.16 201.29 198.09
  Q 203.06 197.13 205.04 197.52
  A 0.49 0.49 0.0 0 0 205.62 197.10
  Q 205.71 196.38 205.43 195.49
  Q 205.65 195.54 205.83 195.56
  A 0.94 0.93 20.1 0 0 206.68 195.17
  Q 208.80 192.23 208.87 189.01
  Q 213.05 189.38 215.50 189.02
  Q 216.30 188.90 218.19 187.38
  A 0.64 0.63 50.5 0 0 218.27 186.46
  L 216.28 184.18
  A 1.54 1.53 -15.8 0 0 215.38 183.68
  L 203.89 181.70
  A 0.36 0.36 0.0 0 1 203.90 180.99
  Q 210.87 180.02 216.94 182.74
  A 0.50 0.49 -75.9 0 0 217.63 182.32
  C 217.84 179.13 221.31 179.00 223.75 180.13
  A 0.98 0.97 83.6 0 0 224.93 178.65
  L 222.35 175.30
  A 1.50 1.49 -69.9 0 1 222.06 174.67
  Q 221.68 172.71 222.58 171.08
  Z"
/>
<ellipse fill="#102449" cx="0.00" cy="0.00" transform="translate(38.34,175.01) rotate(-1.3)" rx="1.79" ry="0.22"/>
<path fill="#102449" d="
  M 127.07 177.23
  L 127.06 180.96
  L 127.07 177.23
  Z"
/>
<path fill="#9299a7" d="
  M 12.51 178.99
  L 11.46 179.11
  L 9.21 179.11
  L 2.06 179.02
  Q 3.08 177.87 5.16 178.16
  Q 8.77 178.19 12.44 177.84
  A 0.52 0.51 -67.3 0 1 12.81 178.75
  L 12.51 178.99
  Z"
/>
<path fill="#102449" d="
  M 11.46 179.11
  L 9.21 179.11
  L 11.46 179.11
  Z"
/>
<path fill="#81797e" d="
  M 244.26 179.18
  Q 244.12 179.97 243.78 180.52
  Q 243.60 179.67 244.26 179.18
  Z"
/>
<path fill="#81797e" d="
  M 141.85 179.33
  Q 142.13 181.25 142.85 180.80
  Q 142.50 181.26 142.36 182.04
  L 142.37 184.96
  L 142.06 186.67
  L 140.85 180.75
  Q 141.81 180.53 141.85 179.33
  Z"
/>
<path fill="#102449" d="
  M 232.41 179.37
  L 240.28 181.89
  Q 241.40 182.29 241.81 182.85
  A 0.41 0.40 71.7 0 1 241.49 183.50
  L 232.82 183.44
  A 0.94 0.92 -10.4 0 1 231.97 182.87
  Q 231.06 180.64 232.41 179.37
  Z"
/>
<path fill="#9299a7" d="
  M 166.30 181.61
  L 158.59 180.46
  L 166.50 179.83
  A 0.95 0.95 0.0 0 1 167.51 180.99
  Q 167.00 183.16 166.30 181.61
  Z"
/>
<path fill="#102449" d="
  M 142.36 182.04
  L 142.37 184.96
  L 142.36 182.04
  Z"
/>
<path fill="#9299a7" d="
  M 126.19 183.21
  L 126.02 184.04
  Q 125.67 184.11 125.70 183.75
  Q 125.75 183.35 126.19 183.21
  Z"
/>
<path fill="#9299a7" d="
  M 123.29 184.22
  L 122.79 184.22
  L 122.20 183.91
  Q 122.31 183.57 122.74 183.66
  Q 123.16 183.75 123.29 184.22
  Z"
/>
<path fill="#797f8d" d="
  M 123.29 184.22
  Q 123.58 184.10 123.77 184.15
  Q 124.08 184.23 123.97 184.50
  Q 123.90 184.68 123.54 184.59
  L 122.79 184.22
  L 123.29 184.22
  Z"
/>
<path fill="#102449" d="
  M 141.52 187.46
  Q 141.31 188.78 140.99 188.76
  Q 139.28 188.69 138.56 188.13
  A 0.76 0.76 0.0 0 1 138.32 187.25
  Q 138.60 186.55 139.51 186.39
  A 0.34 0.32 12.9 0 0 139.73 186.26
  Q 139.97 185.98 139.72 185.77
  Q 140.42 185.36 140.34 184.33
  Q 140.37 186.35 141.52 187.46
  Z"
/>
<path fill="#81797e" d="
  M 125.53 184.51
  Q 124.92 184.75 124.20 184.71
  Q 124.29 184.13 125.53 184.51
  Z"
/>
<path fill="#102449" d="
  M 167.49 198.19
  L 164.17 196.60
  Q 162.90 195.30 162.34 193.07
  Q 163.54 192.22 162.31 190.94
  Q 162.40 189.99 162.86 188.98
  Q 163.46 189.06 164.17 188.68
  Q 165.08 188.52 165.44 187.87
  A 0.48 0.48 0.0 0 1 166.13 187.72
  L 167.10 188.43
  A 1.77 1.68 2.2 0 1 167.52 188.86
  Q 169.11 191.36 167.13 193.62
  A 0.66 0.66 0.0 0 1 166.30 193.75
  L 164.82 192.91
  A 0.42 0.42 0.0 0 0 164.24 193.06
  L 164.10 193.31
  A 0.18 0.17 -57.8 0 0 164.15 193.54
  L 168.46 196.55
  A 1.81 1.81 0.0 0 0 171.29 195.33
  Q 171.58 193.39 172.31 190.72
  Q 172.64 189.50 171.90 188.92
  A 0.66 0.66 0.0 0 1 171.69 188.16
  Q 172.01 187.34 171.84 185.55
  A 0.70 0.69 87.8 0 1 172.54 184.79
  L 172.93 184.79
  A 0.52 0.52 0.0 0 1 173.45 185.33
  L 173.36 188.04
  A 0.83 0.72 41.2 0 0 173.40 188.34
  Q 174.80 192.72 172.82 197.08
  A 2.17 2.17 0.0 0 1 170.74 198.35
  L 167.49 198.19
  Z"
/>
<path fill="#9299a7" d="
  M 164.56 185.41
  Q 165.03 187.01 164.17 188.68
  Q 163.46 189.06 162.86 188.98
  L 164.56 185.41
  Z"
/>
<path fill="#9299a7" d="
  M 222.76 185.92
  L 219.68 187.50
  Q 219.28 187.53 219.12 187.30
  A 0.73 0.73 0.0 0 1 219.35 186.24
  Q 221.24 185.18 222.76 185.92
  Z"
/>
<path fill="#9299a7" d="
  M 139.72 185.77
  Q 139.97 185.98 139.73 186.26
  A 0.34 0.32 12.9 0 1 139.51 186.39
  Q 138.60 186.55 138.32 187.25
  A 0.76 0.76 0.0 0 0 138.56 188.13
  Q 139.28 188.69 140.99 188.76
  Q 139.77 190.34 138.77 189.29
  Q 137.42 187.87 137.50 186.42
  A 0.69 0.68 -4.4 0 1 138.04 185.79
  Q 138.92 185.61 139.72 185.77
  Z"
/>
<path fill="#102449" d="
  M 208.87 189.01
  Q 208.80 192.23 206.68 195.17
  A 0.94 0.93 20.1 0 1 205.83 195.56
  Q 205.65 195.54 205.43 195.49
  Q 203.79 195.02 201.80 195.13
  A 0.66 0.65 80.8 0 1 201.13 194.64
  L 199.30 187.88
  L 208.87 189.01
  Z"
/>
<path fill="#9299a7" d="
  M 178.89 188.97
  Q 176.34 189.76 175.38 192.81
  Q 174.15 188.01 178.89 188.97
  Z"
/>
<path fill="#9299a7" d="
  M 214.09 191.14
  Q 211.54 192.03 210.33 194.20
  Q 210.13 190.24 214.09 191.14
  Z"
/>
<path fill="#81797e" d="
  M 162.34 193.07
  Q 161.89 192.01 162.31 190.94
  Q 163.54 192.22 162.34 193.07
  Z"
/>
<path fill="#102449" d="
  M 201.29 198.09
  Q 201.49 199.16 203.27 197.76
  A 0.32 0.32 0.0 0 1 203.78 197.95
  L 204.25 200.34
  A 0.71 0.71 0.0 0 1 203.70 201.17
  L 201.65 201.61
  L 200.29 200.53
  L 198.93 197.86
  Q 198.80 196.48 199.08 195.56
  A 0.42 0.42 0.0 0 1 199.70 195.34
  Q 200.94 196.15 201.29 198.09
  Z"
/>
<path fill="#9299a7" d="
  M 167.49 198.19
  Q 168.86 198.91 172.21 198.62
  C 169.28 200.96 166.10 199.14 164.17 196.60
  L 167.49 198.19
  Z"
/>
<path fill="#9299a7" d="
  M 207.74 199.78
  Q 207.41 201.48 206.36 203.00
  L 201.32 203.00
  L 200.29 200.53
  L 201.65 201.61
  Q 205.66 203.06 207.74 199.78
  Z"
/>
</svg>
