<?xml version="1.0" encoding="UTF-8" standalone="no"?>
<!-- Created with Inkscape (http://www.inkscape.org/) -->

<svg
   version="1.1"
   id="svg1"
   width="682.66669"
   height="270.66666"
   viewBox="0 0 682.66669 270.66666"
   xmlns="http://www.w3.org/2000/svg"
   xmlns:svg="http://www.w3.org/2000/svg"
   xmlns:rdf="http://www.w3.org/1999/02/22-rdf-syntax-ns#"
   xmlns:cc="http://creativecommons.org/ns#"
   xmlns:dc="http://purl.org/dc/elements/1.1/">
  <title
     id="title1">FY-1 Icon SVG</title>
  <defs
     id="defs1" />
  <g
     id="g1">
    <path
       style="fill:currentColor"
       d="m 265.2388,265.84701 c -1.63829,-2.6508 -4.83723,-5.60785 -7.10875,-6.57122 -2.27152,-0.96337 -5.17417,-2.99453 -6.45033,-4.51369 -1.59813,-1.90245 -3.88051,-2.75576 -7.33333,-2.74169 -6.07957,0.0248 -7.68546,0.97417 -8.98659,5.31291 -1.83409,6.11596 -6.01149,9.39709 -11.47641,9.01414 -2.72721,-0.19111 -4.7374,-0.7066 -4.46708,-1.14554 0.27031,-0.43895 -0.68777,-2.06386 -2.12908,-3.61092 -3.0612,-3.28582 -3.38857,-7.83684 -0.77826,-10.81936 1.01326,-1.15774 2.25369,-3.45498 2.75651,-5.10498 0.82258,-2.69926 0.46295,-3 -3.58745,-3 -2.47592,0 -5.42433,-0.75 -6.55201,-1.66667 -2.85581,-2.32143 -7.79268,-10.86815 -7.79268,-13.49071 0,-1.19678 -0.81806,-2.17596 -1.81792,-2.17596 -2.50985,0 -8.84875,14.61722 -8.84875,20.40483 0,2.60592 -0.97523,5.71327 -2.16719,6.90522 -2.0007,2.00071 -2.36444,1.95548 -4.73469,-0.58869 -2.73438,-2.93501 -2.24389,-5.38802 1.07735,-5.38802 1.6133,0 1.46379,-0.70466 -0.74536,-3.51315 -2.08227,-2.64717 -2.76344,-5.44078 -2.76344,-11.33333 0,-7.42288 -0.16697,-7.82019 -3.28642,-7.82019 -4.28191,0 -6.30346,3.88932 -7.27678,14 -0.7528,7.81992 -0.85976,8 -4.75187,8 -4.43725,0 -6.55889,-4.11019 -2.52292,-4.88758 2.09558,-0.40364 2.11792,-0.64206 0.2365,-2.52346 -1.14276,-1.14274 -2.49957,-4.57446 -3.01513,-7.62604 l -0.93738,-5.54833 -5.55633,0.65635 c -3.05599,0.36099 -25.65634,2.46915 -50.22301,4.6848 -42.465558,3.82995 -58.067961,5.48854 -74.666666,7.93735 -11.855472,1.74904 -26.6585373,1.55446 -27.3685801,-0.35976 -1.16788289,-3.1485 12.1451001,-91.83182 13.9534031,-92.94941 0.944513,-0.58374 11.39932,-2.99096 23.232904,-5.34937 11.833584,-2.35841 22.115607,-4.74495 22.848941,-5.30342 0.733333,-0.55847 4.933333,-1.66751 9.333333,-2.46452 24.867767,-4.50454 65.615115,-12.5328 67.333335,-13.26639 1.1,-0.46963 9.5,-2.40674 18.66667,-4.30467 l 16.66667,-3.45078 0.38319,-12.276162 c 0.37846,-12.124258 0.42795,-12.286843 4,-13.139564 1.98924,-0.474872 4.21681,-1.306919 4.95014,-1.848993 0.73333,-0.542074 15.13333,-4.133094 32,-7.980044 16.86667,-3.84695 31.37523,-7.559777 32.24125,-8.250726 2.5843,-2.061878 16.42542,-3.065031 16.42542,-1.190455 0,0.879208 0.55854,1.253363 1.2412,0.831455 0.68266,-0.421908 1.66906,-0.07482 2.19199,0.771305 0.52294,0.846126 7.27097,4.519626 14.99562,8.163334 7.72466,3.643708 14.88112,7.46121 15.90325,8.483338 2.38356,2.383563 6.37636,2.352326 13.76375,-0.107681 3.24731,-1.081353 20.00419,-4.993913 37.23752,-8.694579 17.23334,-3.700665 32.33601,-7.291446 33.56149,-7.979514 1.22548,-0.688067 18.02548,-4.642121 37.33333,-8.786787 19.30785,-4.144665 35.40519,-7.959105 35.77185,-8.476534 0.36667,-0.517429 6.06667,-1.990222 12.66667,-3.272873 6.6,-1.282652 13.2,-2.607814 14.66667,-2.944806 1.46666,-0.336992 11.96666,-2.704592 23.33333,-5.261334 11.36667,-2.556743 21.86667,-5.216781 23.33334,-5.911197 1.46666,-0.694417 11.36666,-3.0921 22,-5.328185 35.61725,-7.489957 39.3003,-8.345289 46.66666,-10.837612 10.42436,-3.526956 69.33881,-16.0532681 73.33334,-15.5920342 2.99804,0.3461734 3.40796,1.1225252 4.0752,7.7182212 l 0.74186,7.333333 0.59147,-7.2285294 c 0.33853,-4.1372223 1.30423,-7.4634174 2.25814,-7.7777775 1.32062,-0.4352101 1.66666,15.6772999 1.66666,77.6037069 0,61.382804 -0.35763,78.253814 -1.66666,78.622964 -0.91667,0.2585 -15.21974,2.07372 -31.7846,4.03381 -16.56486,1.9601 -35.46486,4.45321 -42,5.54026 -27.61247,4.59304 -38.28561,6.09585 -84.54874,11.90475 -26.76667,3.36088 -50.46667,6.6718 -52.66667,7.35761 -2.2,0.68581 -28.6,4.31689 -58.66667,8.06906 -30.06667,3.75217 -58.85588,7.85024 -63.97603,9.10683 l -9.30936,2.28469 -1.13099,5.71902 c -0.62204,3.14546 -2.56666,8.29055 -4.32137,11.43353 -1.75471,3.14298 -3.89448,9.97801 -4.75505,15.18896 l -1.56467,9.47444 -14.13793,0.0204 c -7.77586,0.0112 -14.80707,0.46123 -15.62489,1 -0.81783,0.53877 -1.90826,2.32958 -2.42319,3.97958 -0.51492,1.65 -2.09579,3.075 -3.51304,3.16667 -1.41725,0.0917 -3.17681,0.31666 -3.91015,0.5 -0.73333,0.18333 -1.85945,0.40833 -2.50247,0.5 -0.64303,0.0917 -2.45971,3.16666 -4.03707,6.83333 -2.49554,5.80104 -3.36836,6.66667 -6.72211,6.66667 -2.98984,0 -4.5222,-1.08087 -6.83289,-4.81965 z"
       id="path1" />
  </g>
  <metadata
     id="metadata1">
    <rdf:RDF>
      <cc:Work
         rdf:about="">
        <dc:title>FY-1 Icon SVG</dc:title>
        <dc:source>https://img.nsmc.org.cn/PORTAL/NSMC/PIC/GALLERY/FY1A/FY-1.jpg</dc:source>
      </cc:Work>
    </rdf:RDF>
  </metadata>
</svg>
