<?xml version="1.0" encoding="UTF-8" standalone="no"?>
<!-- Created with Inkscape (http://www.inkscape.org/) -->

<svg
   version="1.1"
   id="svg1"
   width="682.66669"
   height="474.66666"
   viewBox="0 0 682.66669 474.66666"
   xmlns="http://www.w3.org/2000/svg"
   xmlns:svg="http://www.w3.org/2000/svg"
   xmlns:rdf="http://www.w3.org/1999/02/22-rdf-syntax-ns#"
   xmlns:cc="http://creativecommons.org/ns#"
   xmlns:dc="http://purl.org/dc/elements/1.1/">
  <title
     id="title1">SWOT Icon</title>
  <defs
     id="defs1" />
  <g
     id="g1">
    <path
       style="fill:currentColor"
       d="M 116.24671,461.14128 C 101.95446,446.17168 98.482404,442.57766 48.666668,391.18727 29.600001,371.51791 10.85,352.30619 7.0000002,348.49456 0.26706355,341.82872 0,341.2883 0,334.32951 c 0,-6.15575 0.44744666,-7.46542 3.0000001,-8.781 1.65,-0.85041 5.7000002,-3.6468 8.9999999,-6.2142 3.3,-2.5674 6.900001,-5.07416 8.000001,-5.57057 1.1,-0.49641 2.3,-1.30365 2.666666,-1.79386 0.630913,-0.8435 15.116394,-11.10917 19.712349,-13.96989 1.178154,-0.73333 3.337984,-2.38333 4.799623,-3.66666 1.46164,-1.28334 3.052584,-2.33334 3.535432,-2.33334 0.482847,0 2.255553,-1.19482 3.939346,-2.65517 1.683793,-1.46035 7.312276,-5.51035 12.507741,-9 5.195465,-3.48965 10.622759,-7.39483 12.060654,-8.67816 1.437895,-1.28333 3.009412,-2.33333 3.492259,-2.33333 0.482848,0 2.292824,-1.22715 4.022168,-2.72701 1.729344,-1.49985 5.27115,-4.03074 7.870679,-5.62421 2.59953,-1.59347 5.889552,-3.96631 7.311162,-5.273 1.42162,-1.30668 3.02876,-2.37578 3.57143,-2.37578 0.54268,0 1.77954,-0.75 2.74859,-1.66667 3.70638,-3.50603 11.64594,-9 13.00627,-9 0.78227,0 1.4223,-0.47063 1.4223,-1.04586 0,-0.57522 1.95,-2.18003 4.33333,-3.56624 2.38334,-1.38622 4.63334,-2.869 5,-3.29507 1.68716,-1.96048 10.62856,-8.09283 11.79993,-8.09283 0.72115,0 1.51119,-0.51032 1.75563,-1.13405 0.24444,-0.62373 2.84444,-2.72416 5.77778,-4.66763 2.93333,-1.94346 10.19874,-6.98314 16.14534,-11.19928 5.94661,-4.21614 27.24661,-19.31015 47.33334,-33.54225 20.08672,-14.2321 36.72132,-26.3821 36.96577,-27 0.24444,-0.6179 1.0498,-1.12345 1.78969,-1.12345 0.73989,0 2.81092,-1.1529 4.60229,-2.56199 2.90606,-2.28591 3.00056,-2.63422 0.87697,-3.23237 -7.65609,-2.15648 -72.98865,-10.63514 -95.46282,-12.38887 -6.71255,-0.5238 -10.24454,-0.15744 -13.53483,1.4039 -2.44866,1.16197 -5.11142,2.11266 -5.91726,2.11266 -0.80584,0 -1.46516,0.53002 -1.46516,1.17783 0,0.6478 -1.05,1.51481 -2.33333,1.92668 -1.28334,0.41187 -5.63334,2.66217 -9.66667,5.00067 -6.83012,3.96006 -17.65831,9.84841 -32,17.40155 -3.3,1.73797 -6.300001,3.45994 -6.666667,3.8266 -0.366667,0.36667 -3.066667,1.86093 -6,3.32057 -2.933334,1.45965 -5.633334,2.96539 -6.000001,3.3461 -0.366666,0.38071 -2.838328,1.8307 -5.492582,3.22222 -6.65055,3.4866 -9.124213,2.20908 -9.385343,-4.84704 -0.403346,-10.899 -0.0014,-11.68045 8.211259,-15.96519 1.833333,-0.95649 3.633333,-2.05447 4,-2.43997 0.366666,-0.38549 3.966666,-2.41114 8,-4.50143 4.033333,-2.0903 13.033334,-6.81776 20.000004,-10.50548 6.96666,-3.68771 14.01198,-7.36302 15.65626,-8.16735 1.64428,-0.80434 2.99428,-1.91243 3,-2.46243 0.006,-0.55 0.65044,-1 1.4327,-1 1.45617,0 10.57589,-6.39537 12.07946,-8.47094 0.4593,-0.63403 3.6093,-1.46547 7,-1.84765 3.3907,-0.38219 6.16491,-1.21685 6.16491,-1.85481 0,-0.63796 0.7873,-1.15993 1.74956,-1.15993 0.96226,0 4.11226,-1.12103 7,-2.49118 2.88774,-1.37015 7.65044,-3.58889 10.58378,-4.93053 2.93333,-1.34164 5.63333,-2.853815 6,-3.360387 1.81361,-2.505619 10.54933,-3.502399 16.81389,-1.918531 8.2323,2.081373 9.31782,5.551328 2.90388,9.282548 -2.41144,1.40282 -4.68444,2.92703 -5.05111,3.38714 -0.36666,0.4601 -3.01643,1.93078 -5.88838,3.26818 l -5.22171,2.43162 3.22171,1.78499 c 1.77195,0.98175 5.96152,1.80625 9.31017,1.83224 3.34865,0.026 9.34865,0.63719 13.33333,1.35823 3.98469,0.72104 13.54488,1.93771 21.24488,2.70371 7.7,0.76599 18.5,1.9836 24,2.70578 5.5,0.72218 14.5,1.82844 20,2.45836 l 10.00001,1.1453 10,-6.76201 c 5.5,-3.71911 12.62261,-8.6483 15.82802,-10.95375 l 5.82803,-4.19174 10.17197,5.08482 10.17198,5.08483 0.39102,-10.85947 0.39102,-10.859468 -6.88353,-6.970111 c -3.86442,-3.913028 -6.48133,-7.620889 -5.96651,-8.453876 1.82298,-2.949643 10.12638,-5.505938 12.95947,-3.989716 3.87094,2.071664 6.44186,0.50912 6.44186,-3.915205 0,-2.133222 0.83262,-4.5696 1.85027,-5.414173 1.01765,-0.844573 9.56765,-2.508425 19,-3.697449 l 17.14973,-2.161862 13.33333,-9.412168 c 7.33334,-5.176693 13.93334,-9.891126 14.66667,-10.476519 0.73334,-0.585392 7.93334,-5.665851 16,-11.289909 8.06667,-5.624057 14.86667,-10.719239 15.11111,-11.322625 0.24445,-0.603386 0.98472,-1.097066 1.64506,-1.097066 0.66034,0 5.79985,-3.3 11.42115,-7.3333332 5.62129,-4.0333333 10.8409,-7.3333332 11.59914,-7.3333332 1.35187,0 8.96085,7.5840744 23.55688,23.4797934 4.03333,4.392477 10.48333,11.37053 14.33333,15.506783 3.85,4.136254 6.99206,8.606377 6.98236,9.933608 -0.0169,2.305906 -4.57297,8.030737 -19.37018,24.338986 -3.69663,4.074122 -8.74793,9.807494 -11.2251,12.740828 -2.47718,2.933333 -8.75266,10.078363 -13.94552,15.877845 -27.37182,30.56937 -27.68199,30.80145 -35.65453,26.67869 -2.24429,-1.16057 -3.76858,-1.60538 -3.38731,-0.98846 0.38128,0.61692 0.22552,3.6794 -0.34613,6.80551 -0.695,3.80068 -0.54474,5.9922 0.45352,6.61454 1.79465,1.11883 15.20829,2.89706 52.15956,6.91472 5.86666,0.63788 19.36666,2.16894 30,3.40236 27.27351,3.1636 37.4324,4.29752 52.66667,5.87858 7.33333,0.76108 15.43875,1.73439 18.01204,2.16291 2.57329,0.42852 10.97329,1.39193 18.66667,2.1409 7.69337,0.74897 18.48795,1.85733 23.98796,2.46302 46.13835,5.08101 42.61012,5.54055 42.64625,-5.55455 0.0317,-9.74025 1.77205,-12.24363 9.81099,-14.11262 13.11536,-3.0492 12.0272,-6.2957 10.91011,32.55006 -0.54039,18.79175 -1.51912,36.03779 -2.17494,38.32453 -0.65583,2.28673 -1.19241,8.17624 -1.19241,13.0878 0,4.91157 -0.54451,9.26664 -1.21002,9.67795 -0.66551,0.4113 -2.29194,4.18757 -3.6143,8.39169 -2.36034,7.50413 -6.40017,13.68452 -8.94491,13.68452 -0.70859,0 -4.18597,-3.15 -7.72752,-7 l -6.43917,-7 0.74992,-10 c 0.41246,-5.5 1.24486,-11.8 1.84978,-14 0.60492,-2.2 1.46638,-8.94176 1.91437,-14.98169 0.44799,-6.03992 1.1651,-12.7346 1.59359,-14.87705 1.06053,-5.30265 -1.78309,-6.62177 -17.88204,-8.29525 -7.126,-0.74075 -17.45637,-1.87505 -22.95637,-2.52068 -25.17194,-2.95483 -48.19077,-5.59696 -57.56624,-6.60751 -5.6281,-0.60663 -10.7281,-1.4077 -11.33333,-1.78016 -0.60524,-0.37246 -8.30043,-1.10356 -17.10043,-1.62468 -8.8,-0.52111 -16.56522,-1.28633 -17.25604,-1.70049 -0.69082,-0.41416 -6.09082,-1.25254 -12,-1.86308 -5.90918,-0.61054 -15.24397,-1.66793 -20.74397,-2.34976 -31.04647,-3.84878 -46.74781,-5.72291 -52.82651,-6.30546 l -6.82652,-0.6542 -0.65273,22.44667 c -0.359,12.34567 -0.88707,23.33243 -1.17348,24.41502 -0.321,1.21332 0.59285,2.13905 2.38242,2.41338 5.99021,0.91825 6.28073,2.67834 4.65403,28.19595 -1.91953,30.11122 -4.27036,37.4016 -8.21058,25.46259 -1.2396,-3.75601 -1.52701,-9.75738 -0.98972,-20.66666 0.49809,-10.11352 0.289,-15.3736 -0.61109,-15.3736 -0.7971,0 -1.01569,1.40466 -0.52366,3.36506 0.66701,2.65759 -0.1018,4.33951 -3.65682,8 -2.47576,2.54921 -5.15537,4.63493 -5.95467,4.63493 -2.6465,0 -3.27012,2.80593 -4.1813,18.81334 -0.90664,15.92775 -2.11559,19.56527 -6.00641,18.07222 -1.69503,-0.65044 -2.08962,-3.20166 -2.08962,-13.51038 v -12.70851 h -5.37518 c -6.47418,0 -7.78951,2.26057 -5.30813,9.12273 0.95201,2.63272 1.73092,7.83642 1.73092,11.56377 0,9.75923 -3.27796,15.12961 -13.63371,22.33655 -5.32918,3.70876 -6.94665,4.12812 -16.22107,4.20561 -9.57629,0.08 -10.66159,-0.20345 -15.4139,-4.02577 -5.85033,-4.70547 -8.4435,-9.29539 -9.43719,-16.70385 -1.25384,-9.34808 5.3263,-21.04235 14.44235,-25.66703 3.093,-1.56911 6.23191,-5.60352 5.16874,-6.64333 -0.34072,-0.33324 -3.3195,-0.99941 -6.6195,-1.48037 l -6,-0.87447 -14.0801,15.74974 c -7.74405,8.66237 -15.35769,17.24975 -16.91919,19.08309 -1.56151,1.83333 -4.12124,4.83333 -5.68828,6.66666 -1.56705,1.83334 -5.97475,6.63334 -9.79489,10.66667 -3.82013,4.03333 -8.28002,9.07144 -9.91087,11.1958 -1.63084,2.12436 -6.1095,7.27474 -9.95259,11.44528 -3.84308,4.17055 -9.04263,9.93244 -11.55456,12.8042 -2.51192,2.87176 -7.01192,7.93363 -10,11.2486 -2.98807,3.31496 -9.93286,11.09148 -15.43286,17.28114 -5.5,6.18967 -13.05933,14.57742 -16.79852,18.63946 -3.73918,4.06203 -8.23918,9.15014 -10,11.30689 -1.76081,2.15676 -6.50148,7.59807 -10.53481,12.09181 -4.03334,4.49374 -11.23334,12.56257 -16,17.93074 -4.76667,5.36816 -9.86667,11.11024 -11.33334,12.76016 -1.46667,1.64992 -5.96667,6.79371 -10,11.43065 -4.03333,4.63693 -10.09313,11.45354 -13.46622,15.14803 -3.37308,3.69448 -7.25643,8.06724 -8.62965,9.71724 -1.37323,1.65 -3.60241,3 -4.95375,3 -1.37693,0 -8.13344,-5.9455 -15.37034,-13.52538 z m 14.59905,1.39074 c -5.64437,-5.64437 -9.59319,-6.3848 -4.58707,-0.86011 1.4925,1.64711 3.82205,4.33756 5.17678,5.97877 1.54991,1.87766 2.93122,2.51595 3.72561,1.72157 0.79438,-0.79439 -0.80557,-3.33048 -4.31532,-6.84023 z M 333.44445,127.06327 c -0.69986,-4.30566 -1.69568,-5.40336 -7.79011,-8.58713 -3.84321,-2.00772 -6.98766,-3.25359 -6.98766,-2.7686 0,0.69362 14.75877,16.29246 15.41503,16.29246 0.0908,0 -0.19591,-2.22153 -0.63726,-4.93673 z"
       id="path1" />
  </g>
  <metadata
     id="metadata1">
    <rdf:RDF>
      <cc:Work
         rdf:about="">
        <dc:title>SWOT Icon</dc:title>
        <dc:description>Icon SVG representation of SWOT.</dc:description>
        <dc:source>https://science.nasa.gov/wp-content/uploads/2023/10/SWOT-sm.png?w=300</dc:source>
      </cc:Work>
    </rdf:RDF>
  </metadata>
</svg>
