<?xml version="1.0" encoding="UTF-8" standalone="no"?>
<svg xmlns="http://www.w3.org/2000/svg" version="1.2" baseProfile="tiny" viewBox="0.00 0.00 512.00 356.00" width="512.00" height="356.00">
<path fill="#374178" d="
  M 343.93 79.98
  Q 337.88 74.61 333.11 68.37
  A 2.16 1.97 0.8 0 0 332.60 67.89
  L 331.04 66.86
  A 5.93 5.92 89.0 0 1 329.51 65.38
  Q 325.67 60.09 320.36 55.55
  Q 319.37 54.00 317.40 52.82
  Q 316.37 51.39 314.97 51.98
  Q 312.44 53.06 309.89 52.78
  Q 309.10 50.75 305.59 49.75
  Q 304.91 49.56 304.69 49.13
  Q 304.23 48.24 302.88 48.43
  A 2.39 2.26 46.6 0 1 302.00 48.38
  C 298.38 47.51 295.08 47.66 291.81 47.39
  Q 287.60 47.03 283.11 46.87
  L 299.82 35.09
  C 301.97 38.10 305.13 39.97 307.09 42.70
  C 308.65 44.88 312.17 49.32 314.29 49.50
  A 0.62 0.61 64.7 0 0 314.69 48.38
  C 312.86 47.12 310.84 45.61 309.12 43.51
  Q 305.28 38.85 301.60 33.92
  L 333.08 11.59
  Q 335.31 14.91 338.63 16.45
  A 0.13 0.12 -7.0 0 0 338.78 16.26
  L 334.38 10.68
  L 345.42 3.18
  A 1.80 1.79 51.5 0 1 347.74 3.45
  Q 362.27 19.17 374.50 32.22
  C 376.21 34.04 377.89 36.43 379.47 38.47
  A 0.97 0.97 0.0 0 1 379.44 39.70
  L 343.93 79.98
  Z
  M 341.9838 15.4532
  A 2.06 0.55 -134.2 0 0 343.0257 17.3134
  A 2.06 0.55 -134.2 0 0 344.8562 18.4068
  A 2.06 0.55 -134.2 0 0 343.8143 16.5466
  A 2.06 0.55 -134.2 0 0 341.9838 15.4532
  Z
  M 335.7116 19.2733
  A 2.31 0.44 -133.1 0 0 336.9687 21.2606
  A 2.31 0.44 -133.1 0 0 338.8684 22.6467
  A 2.31 0.44 -133.1 0 0 337.6113 20.6594
  A 2.31 0.44 -133.1 0 0 335.7116 19.2733
  Z
  M 343.0337 20.9142
  A 0.39 0.39 0.0 0 0 342.4824 20.8968
  L 342.4679 20.9105
  A 0.39 0.39 0.0 0 0 342.4505 21.4618
  L 361.6863 41.9458
  A 0.39 0.39 0.0 0 0 362.2376 41.9632
  L 362.2521 41.9495
  A 0.39 0.39 0.0 0 0 362.2695 41.3982
  L 343.0337 20.9142
  Z
  M 327.1071 25.9133
  A 1.98 0.39 -133.9 0 0 328.1990 27.6104
  A 1.98 0.39 -133.9 0 0 329.8529 28.7667
  A 1.98 0.39 -133.9 0 0 328.7610 27.0696
  A 1.98 0.39 -133.9 0 0 327.1071 25.9133
  Z
  M 320.7001 31.1125
  A 2.53 0.68 -136.0 0 0 322.0476 33.3592
  A 2.53 0.68 -136.0 0 0 324.3399 34.6275
  A 2.53 0.68 -136.0 0 0 322.9924 32.3808
  A 2.53 0.68 -136.0 0 0 320.7001 31.1125
  Z
  M 310.6390 38.7624
  A 2.85 0.71 -133.2 0 0 312.0724 41.3260
  A 2.85 0.71 -133.2 0 0 314.5410 42.9176
  A 2.85 0.71 -133.2 0 0 313.1076 40.3540
  A 2.85 0.71 -133.2 0 0 310.6390 38.7624
  Z
  M 364.8664 39.8642
  A 1.23 0.38 -134.6 0 0 365.4594 41.0068
  A 1.23 0.38 -134.6 0 0 366.5936 41.6158
  A 1.23 0.38 -134.6 0 0 366.0006 40.4732
  A 1.23 0.38 -134.6 0 0 364.8664 39.8642
  Z
  M 368.67 50.01
  L 369.20 49.56
  A 0.18 0.18 0.0 0 0 369.22 49.30
  L 369.13 49.20
  A 8.84 0.45 49.7 0 0 363.07 42.75
  L 362.95 42.85
  A 8.84 0.45 49.7 0 0 368.32 49.88
  L 368.41 49.99
  A 0.18 0.18 0.0 0 0 368.67 50.01
  Z
  M 358.9780 44.0943
  A 2.37 0.50 -132.2 0 0 360.1996 46.1859
  A 2.37 0.50 -132.2 0 0 362.1620 47.6057
  A 2.37 0.50 -132.2 0 0 360.9404 45.5141
  A 2.37 0.50 -132.2 0 0 358.9780 44.0943
  Z
  M 351.1422 51.4649
  A 2.47 0.59 -135.7 0 0 352.4979 53.6123
  A 2.47 0.59 -135.7 0 0 354.6778 54.9151
  A 2.47 0.59 -135.7 0 0 353.3221 52.7677
  A 2.47 0.59 -135.7 0 0 351.1422 51.4649
  Z
  M 336.6858 66.3239
  A 2.87 0.54 -131.3 0 0 338.1743 68.8364
  A 2.87 0.54 -131.3 0 0 340.4742 70.6361
  A 2.87 0.54 -131.3 0 0 338.9857 68.1236
  A 2.87 0.54 -131.3 0 0 336.6858 66.3239
  Z"
/>
<path fill="#c5c4c2" d="
  M 334.38 10.68
  L 338.78 16.26
  A 0.13 0.12 -7.0 0 1 338.63 16.45
  Q 335.31 14.91 333.08 11.59
  Q 333.86 10.88 334.38 10.68
  Z"
/>
<ellipse fill="#c5c4c2" cx="0.00" cy="0.00" transform="translate(343.42,16.93) rotate(-134.2)" rx="2.06" ry="0.55"/>
<ellipse fill="#c5c4c2" cx="0.00" cy="0.00" transform="translate(337.29,20.96) rotate(-133.1)" rx="2.31" ry="0.44"/>
<rect fill="#c5c4c2" x="-0.40" y="-14.44" transform="translate(352.36,31.43) rotate(-43.2)" width="0.80" height="28.88" rx="0.39"/>
<ellipse fill="#c5c4c2" cx="0.00" cy="0.00" transform="translate(328.48,27.34) rotate(-133.9)" rx="1.98" ry="0.39"/>
<ellipse fill="#878bab" cx="0.00" cy="0.00" transform="translate(322.52,32.87) rotate(-136.0)" rx="2.53" ry="0.68"/>
<path fill="#c5c4c2" d="
  M 301.60 33.92
  Q 305.28 38.85 309.12 43.51
  C 310.84 45.61 312.86 47.12 314.69 48.38
  A 0.62 0.61 64.7 0 1 314.29 49.50
  C 312.17 49.32 308.65 44.88 307.09 42.70
  C 305.13 39.97 301.97 38.10 299.82 35.09
  L 301.60 33.92
  Z"
/>
<ellipse fill="#878bab" cx="0.00" cy="0.00" transform="translate(312.59,40.84) rotate(-133.2)" rx="2.85" ry="0.71"/>
<ellipse fill="#c5c4c2" cx="0.00" cy="0.00" transform="translate(365.73,40.74) rotate(-134.6)" rx="1.23" ry="0.38"/>
<path fill="#c5c4c2" d="
  M 368.67 50.01
  A 0.18 0.18 0.0 0 1 368.41 49.99
  L 368.32 49.88
  A 8.84 0.45 49.7 0 1 362.95 42.85
  L 363.07 42.75
  A 8.84 0.45 49.7 0 1 369.13 49.20
  L 369.22 49.30
  A 0.18 0.18 0.0 0 1 369.20 49.56
  L 368.67 50.01
  Z"
/>
<ellipse fill="#c5c4c2" cx="0.00" cy="0.00" transform="translate(360.57,45.85) rotate(-132.2)" rx="2.37" ry="0.50"/>
<path fill="#161718" d="
  M 283.11 46.87
  Q 287.60 47.03 291.81 47.39
  C 295.08 47.66 298.38 47.51 302.00 48.38
  A 2.39 2.26 46.6 0 0 302.88 48.43
  Q 304.23 48.24 304.69 49.13
  Q 304.91 49.56 305.59 49.75
  Q 309.10 50.75 309.89 52.78
  Q 309.77 57.02 306.11 58.61
  Q 298.17 62.07 287.64 62.09
  A 1.58 1.55 -63.6 0 0 286.67 62.43
  Q 285.19 63.62 282.45 64.62
  Q 280.79 65.23 280.48 64.34
  A 0.36 0.35 -9.7 0 0 280.13 64.10
  Q 279.40 64.14 279.38 64.16
  A 0.98 0.98 0.0 0 1 278.35 64.40
  Q 276.83 63.87 275.16 63.93
  A 0.24 0.23 -87.0 0 0 274.94 64.13
  L 274.91 64.40
  A 0.20 0.19 -84.1 0 0 275.08 64.62
  L 277.82 64.95
  A 0.60 0.60 0.0 0 1 278.10 66.03
  Q 276.49 67.17 274.93 66.17
  A 1.54 1.50 55.1 0 0 273.84 65.96
  Q 271.69 66.37 270.01 68.07
  Q 269.00 68.33 268.82 66.05
  Q 267.49 64.85 266.23 63.73
  A 1.03 0.02 60.0 0 1 265.74 62.92
  Q 265.24 62.04 262.58 62.09
  A 2.13 2.12 18.6 0 0 260.96 62.89
  Q 260.92 62.94 261.29 63.99
  L 262.14 68.74
  A 0.32 0.31 15.7 0 1 261.62 69.03
  L 258.51 66.29
  Q 254.60 66.06 252.19 70.28
  A 0.36 0.36 0.0 0 1 251.52 70.17
  Q 250.85 66.74 254.52 65.43
  A 0.83 0.82 -41.7 0 0 254.61 63.91
  Q 253.42 63.33 252.52 64.44
  Q 252.08 65.00 251.43 64.83
  Q 247.00 63.68 242.40 62.94
  Q 240.91 61.16 241.96 59.80
  Q 243.63 60.66 245.41 60.29
  A 0.59 0.57 -88.2 0 0 245.86 59.85
  Q 246.06 59.05 245.22 58.52
  L 247.79 57.76
  Q 250.16 62.45 251.49 58.53
  L 254.60 58.34
  Q 253.99 59.20 254.48 59.75
  A 0.43 0.36 -10.2 0 0 254.69 59.87
  L 258.79 60.73
  A 0.90 0.90 0.0 0 0 259.80 60.21
  L 259.81 60.18
  A 0.86 0.85 -69.2 0 0 259.34 59.13
  Q 257.45 58.31 254.86 58.25
  Q 256.29 57.71 256.19 56.51
  L 259.10 55.30
  A 1.07 1.07 0.0 0 0 259.07 53.32
  Q 257.85 52.84 255.97 53.72
  C 255.64 51.08 257.16 50.05 259.64 49.81
  Q 263.50 49.42 265.97 48.79
  C 269.92 47.80 272.99 48.56 276.75 47.60
  Q 280.17 46.73 283.11 46.87
  Z
  M 279.49 50.42
  C 277.62 50.97 276.31 48.34 274.46 50.92
  A 1.19 1.16 -72.7 0 1 273.55 51.41
  Q 271.10 51.47 268.96 50.59
  A 0.85 0.83 -36.4 0 0 268.52 50.53
  L 263.88 51.17
  A 2.53 2.53 0.0 0 0 261.70 53.59
  L 261.68 54.15
  A 1.19 1.18 86.9 0 0 263.02 55.36
  L 265.72 54.99
  A 0.83 0.83 0.0 0 1 266.49 55.29
  Q 267.84 57.01 270.62 57.82
  Q 270.97 57.93 271.43 57.76
  Q 271.93 57.57 272.09 57.18
  A 0.47 0.47 0.0 0 1 272.78 56.97
  C 275.93 59.00 282.25 58.30 286.12 58.62
  Q 290.23 58.96 293.94 58.09
  A 5.22 5.03 -49.9 0 1 295.17 57.96
  Q 299.70 58.07 304.70 56.92
  Q 305.94 56.63 305.94 55.19
  A 1.36 1.36 0.0 0 0 304.58 53.82
  L 301.70 53.82
  A 1.43 1.40 -20.5 0 1 300.64 53.35
  C 299.70 52.32 298.48 50.83 297.20 51.69
  A 1.03 1.02 43.3 0 1 296.12 51.72
  L 295.19 51.16
  A 2.51 2.47 62.3 0 0 294.16 50.83
  Q 292.03 50.67 285.51 49.94
  Q 282.36 49.59 279.49 50.42
  Z
  M 268.1245 62.7646
  A 2.06 1.09 -169.5 0 0 269.9514 64.2117
  A 2.06 1.09 -169.5 0 0 272.1755 63.5154
  A 2.06 1.09 -169.5 0 0 270.3486 62.0683
  A 2.06 1.09 -169.5 0 0 268.1245 62.7646
  Z"
/>
<path fill="#af9308" d="
  M 274.46 50.92
  C 276.31 48.34 277.62 50.97 279.49 50.42
  Q 282.36 49.59 285.51 49.94
  Q 292.03 50.67 294.16 50.83
  A 2.51 2.47 62.3 0 1 295.19 51.16
  L 296.12 51.72
  A 1.03 1.02 43.3 0 0 297.20 51.69
  C 298.48 50.83 299.70 52.32 300.64 53.35
  A 1.43 1.40 -20.5 0 0 301.70 53.82
  L 304.58 53.82
  A 1.36 1.36 0.0 0 1 305.94 55.19
  Q 305.94 56.63 304.70 56.92
  Q 299.70 58.07 295.17 57.96
  A 5.22 5.03 -49.9 0 0 293.94 58.09
  Q 290.23 58.96 286.12 58.62
  C 282.25 58.30 275.93 59.00 272.78 56.97
  A 0.47 0.47 0.0 0 0 272.09 57.18
  Q 271.93 57.57 271.43 57.76
  Q 270.97 57.93 270.62 57.82
  Q 267.84 57.01 266.49 55.29
  A 0.83 0.83 0.0 0 0 265.72 54.99
  L 263.02 55.36
  A 1.19 1.18 86.9 0 1 261.68 54.15
  L 261.70 53.59
  A 2.53 2.53 0.0 0 1 263.88 51.17
  L 268.52 50.53
  A 0.85 0.83 -36.4 0 1 268.96 50.59
  Q 271.10 51.47 273.55 51.41
  A 1.19 1.16 -72.7 0 0 274.46 50.92
  Z"
/>
<ellipse fill="#c5c4c2" cx="0.00" cy="0.00" transform="translate(352.91,53.19) rotate(-135.7)" rx="2.47" ry="0.59"/>
<path fill="#af9308" d="
  M 317.40 52.82
  Q 315.97 57.05 316.04 59.52
  Q 316.41 71.47 314.85 83.31
  A 0.77 0.77 0.0 0 0 315.23 84.08
  L 316.56 84.85
  Q 317.65 85.50 316.43 86.69
  Q 315.32 87.78 313.95 88.29
  A 1.98 1.97 -20.2 0 0 312.77 90.84
  Q 313.35 92.40 313.11 94.16
  A 1.55 1.53 71.9 0 1 312.66 95.06
  L 310.52 97.13
  A 2.42 2.39 -63.4 0 1 308.55 97.80
  L 306.03 97.49
  A 0.43 0.43 0.0 0 0 305.61 98.13
  L 306.61 99.86
  A 0.51 0.50 -31.2 0 0 307.32 100.03
  Q 308.72 99.11 309.79 100.29
  Q 311.80 102.51 314.24 102.08
  A 0.64 0.64 0.0 0 1 314.99 102.67
  L 315.16 106.48
  Q 314.52 109.40 316.49 109.29
  Q 316.87 109.43 317.21 109.42
  L 326.04 110.34
  L 326.96 110.40
  L 327.79 110.55
  L 329.21 110.68
  L 367.70 115.35
  Q 368.45 115.83 369.47 115.46
  Q 369.58 115.51 369.70 115.57
  Q 370.48 115.98 371.71 115.76
  Q 382.21 116.69 392.66 118.05
  C 398.30 118.78 403.69 118.58 409.08 119.99
  A 1.48 1.27 -30.9 0 0 409.37 120.04
  L 445.99 124.12
  L 447.21 124.18
  L 448.71 124.34
  Q 449.47 124.83 450.47 124.45
  Q 450.58 124.51 450.70 124.57
  Q 451.44 124.86 452.49 124.69
  Q 452.59 124.75 452.69 124.81
  Q 453.08 125.45 454.22 124.91
  L 495.82 129.32
  Q 496.75 130.02 496.74 131.97
  A 0.45 0.45 0.0 0 1 496.18 132.41
  C 489.21 130.72 482.34 131.12 475.68 129.75
  Q 469.77 128.53 462.59 128.87
  A 4.97 4.78 -37.4 0 1 461.01 128.69
  Q 455.91 127.22 451.05 127.94
  C 448.67 128.30 446.84 127.76 444.38 127.91
  A 6.21 6.07 -39.9 0 1 442.82 127.79
  Q 422.86 123.67 402.81 121.66
  Q 401.94 121.57 401.63 120.94
  Q 401.38 120.40 401.09 120.38
  Q 400.66 120.34 400.46 120.91
  Q 396.60 121.27 392.73 120.46
  Q 390.81 120.06 389.75 120.21
  Q 387.65 120.52 386.76 120.60
  Q 385.46 120.73 384.02 120.16
  Q 382.76 119.66 381.38 119.65
  Q 373.11 119.58 367.33 118.41
  C 357.54 116.44 349.20 116.06 338.97 114.08
  A 9.31 9.03 48.2 0 0 336.84 113.93
  Q 330.95 114.20 327.56 112.56
  A 1.18 1.17 -43.8 0 0 326.59 112.54
  L 325.39 113.05
  A 0.38 0.38 0.0 0 0 325.47 113.78
  Q 331.25 114.81 348.46 117.60
  Q 352.68 118.28 361.12 120.56
  Q 365.93 121.86 371.48 122.86
  Q 378.57 124.12 381.94 124.81
  Q 388.05 126.06 399.39 128.93
  Q 388.56 129.40 379.21 127.06
  Q 378.92 127.23 378.24 127.11
  L 376.46 126.91
  L 375.79 126.86
  L 372.46 126.48
  L 368.80 126.08
  L 365.46 125.46
  L 364.04 124.90
  Q 362.59 124.87 361.44 124.22
  Q 359.21 122.95 359.11 122.91
  Q 353.44 120.81 347.43 120.87
  Q 335.48 118.04 323.25 119.40
  Q 322.63 119.47 320.53 119.23
  A 1.30 1.27 -58.3 0 0 319.68 119.44
  Q 318.67 120.12 316.75 119.85
  Q 315.67 119.33 315.05 119.45
  Q 314.38 119.57 314.36 120.86
  Q 314.05 138.34 312.63 157.44
  A 0.96 0.95 5.7 0 0 313.47 158.46
  L 316.51 158.83
  A 2.94 2.94 0.0 0 1 319.08 161.49
  Q 319.49 166.27 318.44 171.29
  A 6.98 6.19 -41.6 0 0 318.31 172.37
  Q 318.06 179.81 317.68 189.25
  Q 317.43 195.43 315.81 200.69
  A 0.50 0.49 41.0 0 1 314.89 200.75
  C 312.61 195.93 313.27 188.45 313.67 183.21
  Q 313.75 182.82 313.64 182.53
  L 314.13 171.18
  A 1.64 1.64 0.0 0 0 311.50 169.81
  C 308.72 171.94 312.35 175.12 309.23 177.87
  C 306.50 176.71 304.93 178.19 305.79 180.98
  L 302.29 182.92
  A 2.91 2.90 76.5 0 0 300.79 185.38
  L 300.65 189.71
  Q 300.49 190.31 300.63 191.03
  L 300.40 199.96
  Q 300.27 200.52 300.44 201.09
  L 298.51 209.69
  A 0.49 0.49 0.0 0 1 297.88 210.04
  Q 295.53 209.28 295.51 206.48
  Q 295.43 198.58 295.51 190.73
  L 296.80 167.35
  L 299.43 160.96
  A 1.88 1.71 -32.8 0 0 299.55 160.51
  L 300.90 150.75
  A 2.13 1.91 -31.6 0 1 301.09 150.11
  Q 302.18 147.82 302.33 146.83
  Q 303.53 138.98 305.25 134.52
  A 5.28 5.14 56.1 0 0 305.61 132.56
  Q 305.57 126.28 307.73 121.67
  A 2.94 2.66 -30.8 0 0 307.95 120.95
  L 309.58 111.15
  A 0.31 0.30 -6.5 0 0 309.16 110.82
  L 307.57 111.50
  A 0.47 0.47 0.0 0 0 307.29 111.96
  Q 307.65 116.29 306.88 118.16
  Q 305.23 122.18 304.64 125.02
  C 303.67 129.71 301.73 134.84 301.03 139.59
  C 300.46 143.51 299.56 145.94 298.45 150.52
  A 0.58 0.57 86.2 0 1 298.11 150.92
  L 297.70 151.10
  A 0.47 0.47 0.0 0 1 297.04 150.63
  Q 298.12 136.48 298.88 122.00
  Q 299.04 118.87 298.15 114.42
  Q 300.20 112.05 301.75 108.53
  A 0.84 0.55 89.3 0 1 301.87 108.34
  L 303.47 106.54
  A 1.83 1.81 -42.2 0 0 303.59 104.26
  Q 303.14 103.63 302.91 102.59
  A 1.46 1.44 -38.1 0 1 303.03 101.63
  Q 304.32 98.97 302.34 98.07
  A 1.13 1.13 0.0 0 1 301.68 97.04
  L 301.68 93.87
  A 0.93 0.93 0.0 0 0 301.34 93.15
  Q 300.78 92.67 300.22 91.50
  A 0.39 0.38 -19.9 0 1 300.48 90.96
  Q 302.06 90.57 302.41 88.34
  A 0.54 0.54 0.0 0 0 301.83 87.72
  Q 301.37 87.76 300.49 88.34
  A 1.88 1.86 -61.5 0 1 299.46 88.65
  Q 294.37 88.68 290.82 92.74
  C 290.18 93.47 289.82 94.69 289.32 95.45
  A 0.95 0.94 -73.4 0 1 288.53 95.88
  L 286.08 95.88
  A 0.78 0.78 0.0 0 0 285.70 97.34
  Q 288.23 98.73 289.54 96.87
  A 0.16 0.16 0.0 0 1 289.83 96.99
  Q 289.51 98.83 288.77 99.93
  A 1.33 1.30 -78.6 0 1 287.95 100.49
  C 285.03 101.11 283.55 99.19 281.87 97.20
  A 0.71 0.70 -34.3 0 0 280.99 97.04
  Q 280.55 97.29 280.23 97.75
  Q 279.90 98.24 279.36 98.11
  Q 278.88 97.99 278.48 97.50
  L 275.59 95.99
  A 0.53 0.53 0.0 0 1 275.34 95.31
  Q 275.82 94.14 277.04 94.18
  Q 281.10 94.29 282.55 93.70
  A 6.42 6.24 17.2 0 0 283.67 93.13
  L 295.00 86.05
  A 1.50 1.32 -61.6 0 1 295.57 85.84
  L 300.59 85.17
  Q 302.89 82.24 301.89 77.54
  A 0.55 0.55 0.0 0 0 301.10 77.17
  Q 298.98 78.29 298.27 77.31
  Q 297.91 76.81 298.15 76.28
  Q 298.44 75.64 298.40 75.19
  A 0.72 0.72 0.0 0 0 297.22 74.72
  Q 293.93 77.56 289.06 79.55
  A 2.29 2.28 52.0 0 1 286.83 79.27
  L 286.72 79.19
  A 0.85 0.85 0.0 0 1 286.92 77.70
  L 289.05 76.93
  A 3.87 3.83 13.0 0 0 290.44 76.07
  L 296.03 70.65
  A 0.32 0.30 70.0 0 0 296.13 70.42
  Q 296.13 70.23 296.13 70.16
  A 2.19 2.19 0.0 0 1 296.71 69.23
  L 299.21 66.85
  A 1.05 1.00 22.5 0 1 299.91 66.58
  Q 300.78 66.59 301.77 67.05
  A 0.55 0.55 0.0 0 0 302.54 66.40
  C 302.10 64.83 301.67 63.73 299.73 64.04
  Q 298.16 64.29 297.55 64.13
  Q 292.94 62.95 287.33 63.51
  A 0.37 0.34 -73.9 0 0 287.10 63.65
  L 286.37 64.77
  A 0.32 0.32 0.0 0 0 286.64 65.27
  L 296.07 65.27
  A 0.65 0.65 0.0 0 1 296.65 66.21
  L 296.52 66.48
  A 0.93 0.92 11.8 0 1 295.75 66.98
  L 289.11 67.35
  A 1.42 1.33 28.4 0 0 288.62 67.48
  L 287.08 68.21
  A 0.36 0.36 0.0 0 0 287.24 68.89
  L 294.49 68.89
  A 0.58 0.58 0.0 0 1 294.81 69.96
  Q 290.76 72.67 285.81 74.41
  Q 284.83 74.75 283.93 76.50
  A 2.12 2.04 -10.2 0 1 283.54 77.04
  Q 281.83 78.76 279.00 77.30
  A 0.26 0.25 -1.0 0 0 278.66 77.65
  L 279.05 78.33
  A 0.46 0.46 0.0 0 1 278.84 78.98
  L 276.88 79.82
  A 0.45 0.45 0.0 0 0 276.61 80.31
  Q 276.65 80.60 276.55 80.87
  Q 276.40 81.24 275.92 80.99
  Q 272.27 79.13 270.31 76.53
  Q 268.12 73.64 265.48 75.80
  A 1.38 1.38 0.0 0 1 264.61 76.11
  L 262.02 76.11
  A 0.72 0.70 -80.9 0 0 261.35 76.61
  Q 260.73 78.62 258.17 79.05
  Q 257.67 79.13 257.40 78.79
  Q 257.16 78.49 257.16 77.92
  Q 258.16 76.17 259.81 75.25
  A 1.61 1.58 35.1 0 0 259.26 72.30
  Q 258.56 72.17 257.84 71.59
  A 0.68 0.67 -64.5 0 1 257.61 70.92
  Q 257.76 70.31 257.28 70.25
  A 0.39 0.14 -25.7 0 0 257.19 70.26
  L 251.81 71.49
  L 242.40 62.94
  Q 247.00 63.68 251.43 64.83
  Q 252.08 65.00 252.52 64.44
  Q 253.42 63.33 254.61 63.91
  A 0.83 0.82 -41.7 0 1 254.52 65.43
  Q 250.85 66.74 251.52 70.17
  A 0.36 0.36 0.0 0 0 252.19 70.28
  Q 254.60 66.06 258.51 66.29
  L 260.14 69.95
  A 1.90 1.89 -60.2 0 1 260.31 70.58
  C 260.52 73.35 264.75 74.45 267.13 72.78
  Q 269.57 71.08 270.01 68.07
  Q 271.69 66.37 273.84 65.96
  A 1.54 1.50 55.1 0 1 274.93 66.17
  Q 276.49 67.17 278.10 66.03
  A 0.60 0.60 0.0 0 0 277.82 64.95
  L 275.08 64.62
  A 0.20 0.19 -84.1 0 1 274.91 64.40
  L 274.94 64.13
  A 0.24 0.23 -87.0 0 1 275.16 63.93
  Q 276.83 63.87 278.35 64.40
  A 0.98 0.98 0.0 0 0 279.38 64.16
  Q 279.40 64.14 280.13 64.10
  A 0.36 0.35 -9.7 0 1 280.48 64.34
  Q 280.79 65.23 282.45 64.62
  Q 285.19 63.62 286.67 62.43
  A 1.58 1.55 -63.6 0 1 287.64 62.09
  Q 298.17 62.07 306.11 58.61
  Q 309.77 57.02 309.89 52.78
  Q 312.44 53.06 314.97 51.98
  Q 316.37 51.39 317.40 52.82
  Z
  M 283.29 69.15
  Q 284.83 68.15 285.40 66.69
  A 0.61 0.60 81.7 0 0 284.47 65.99
  L 281.09 68.65
  A 1.15 1.15 0.0 0 1 280.37 68.88
  Q 275.15 68.67 270.73 71.17
  A 0.36 0.36 0.0 0 0 270.90 71.85
  Q 274.26 71.88 277.69 70.46
  A 0.71 0.71 0.0 0 1 278.46 71.62
  Q 277.93 72.15 277.64 73.17
  A 0.69 0.69 0.0 0 1 276.83 73.65
  Q 275.42 73.34 274.61 74.11
  A 1.07 1.03 -66.2 0 1 273.88 74.41
  L 272.53 74.41
  A 0.69 0.69 0.0 0 0 272.04 75.58
  Q 272.83 76.40 274.69 74.91
  A 0.74 0.73 51.8 0 1 275.73 75.04
  Q 276.95 76.58 278.50 76.97
  A 0.37 0.36 85.4 0 0 278.92 76.47
  L 278.00 74.32
  A 0.55 0.55 0.0 0 1 278.28 73.60
  L 284.62 70.88
  A 0.41 0.41 0.0 0 0 284.53 70.10
  Q 283.94 69.99 283.53 70.11
  A 0.35 0.35 0.0 0 1 283.08 69.81
  Q 283.08 69.76 283.10 69.49
  A 0.44 0.43 74.8 0 1 283.29 69.15
  Z
  M 311.8724 112.7886
  A 1.31 0.78 -78.0 0 0 310.8370 113.9078
  A 1.31 0.78 -78.0 0 0 311.3276 115.3514
  A 1.31 0.78 -78.0 0 0 312.3630 114.2322
  A 1.31 0.78 -78.0 0 0 311.8724 112.7886
  Z
  M 323.51 114.15
  Q 317.82 113.86 317.76 113.88
  Q 316.84 114.04 315.71 113.42
  A 0.74 0.74 0.0 0 0 314.62 114.07
  L 314.62 115.69
  A 0.59 0.59 0.0 0 0 315.10 116.27
  L 319.00 117.00
  A 0.85 0.81 -46.4 0 0 319.40 116.98
  L 323.69 115.63
  A 0.76 0.75 -52.1 0 0 323.51 114.15
  Z"
/>
<path fill="#656990" d="
  M 320.36 55.55
  Q 318.32 56.23 321.73 58.38
  A 3.49 3.47 -5.3 0 1 322.53 59.04
  C 325.61 62.42 327.73 64.27 329.81 67.11
  Q 330.50 68.06 331.92 68.67
  A 2.53 2.48 -7.1 0 1 332.89 69.41
  L 342.67 81.38
  C 337.35 87.55 331.93 94.14 325.62 99.32
  A 1.24 1.22 39.1 0 1 324.26 99.45
  L 314.74 94.32
  Q 320.33 92.73 323.54 88.91
  Q 324.58 87.68 325.56 87.30
  Q 326.77 86.83 328.19 86.57
  A 1.21 1.20 51.3 0 0 328.44 84.28
  Q 328.35 84.24 327.25 84.38
  Q 328.89 84.61 329.09 84.13
  A 1.68 1.68 0.0 0 0 328.14 81.92
  Q 325.64 80.96 323.66 82.76
  L 319.89 83.80
  L 316.56 84.85
  L 315.23 84.08
  A 0.77 0.77 0.0 0 1 314.85 83.31
  Q 316.41 71.47 316.04 59.52
  Q 315.97 57.05 317.40 52.82
  Q 319.37 54.00 320.36 55.55
  Z
  M 329.8249 72.7595
  A 3.12 0.68 -125.8 0 0 331.0985 75.6878
  A 3.12 0.68 -125.8 0 0 333.4751 77.8205
  A 3.12 0.68 -125.8 0 0 332.2015 74.8922
  A 3.12 0.68 -125.8 0 0 329.8249 72.7595
  Z"
/>
<path fill="#af9308" d="
  M 256.19 56.51
  L 255.97 53.72
  Q 257.85 52.84 259.07 53.32
  A 1.07 1.07 0.0 0 1 259.10 55.30
  L 256.19 56.51
  Z"
/>
<path fill="#c5c4c2" d="
  M 320.36 55.55
  Q 325.67 60.09 329.51 65.38
  A 5.93 5.92 89.0 0 0 331.04 66.86
  L 332.60 67.89
  A 2.16 1.97 0.8 0 1 333.11 68.37
  Q 337.88 74.61 343.93 79.98
  L 342.67 81.38
  L 332.89 69.41
  A 2.53 2.48 -7.1 0 0 331.92 68.67
  Q 330.50 68.06 329.81 67.11
  C 327.73 64.27 325.61 62.42 322.53 59.04
  A 3.49 3.47 -5.3 0 0 321.73 58.38
  Q 318.32 56.23 320.36 55.55
  Z"
/>
<path fill="#af9308" d="
  M 251.49 58.53
  Q 250.16 62.45 247.79 57.76
  L 251.49 58.53
  Z"
/>
<path fill="#af9308" d="
  M 254.86 58.25
  Q 257.45 58.31 259.34 59.13
  A 0.86 0.85 -69.2 0 1 259.81 60.18
  L 259.80 60.21
  A 0.90 0.90 0.0 0 1 258.79 60.73
  L 254.69 59.87
  A 0.43 0.36 -10.2 0 1 254.48 59.75
  Q 253.99 59.20 254.60 58.34
  Q 254.73 58.29 254.86 58.25
  Z"
/>
<path fill="#af9308" d="
  M 245.22 58.52
  Q 246.06 59.05 245.86 59.85
  A 0.59 0.57 -88.2 0 1 245.41 60.29
  Q 243.63 60.66 241.96 59.80
  Q 242.67 58.09 245.22 58.52
  Z"
/>
<path fill="#af9308" d="
  M 268.82 66.05
  Q 268.56 66.51 268.57 66.71
  A 0.57 0.57 0.0 0 1 267.58 67.14
  C 265.59 64.97 263.58 65.22 261.29 63.99
  Q 260.92 62.94 260.96 62.89
  A 2.13 2.12 18.6 0 1 262.58 62.09
  Q 265.24 62.04 265.74 62.92
  A 1.03 0.02 60.0 0 0 266.23 63.73
  Q 267.49 64.85 268.82 66.05
  Z"
/>
<ellipse fill="#af9308" cx="0.00" cy="0.00" transform="translate(270.15,63.14) rotate(-169.5)" rx="2.06" ry="1.09"/>
<path fill="#544001" d="
  M 300.59 85.17
  L 301.03 80.88
  A 0.39 0.39 0.0 0 0 300.57 80.46
  L 289.81 82.55
  Q 290.25 81.89 290.27 81.43
  A 0.53 0.53 0.0 0 0 289.48 80.95
  Q 287.85 81.86 286.81 80.60
  A 1.00 0.99 -34.7 0 0 285.55 80.38
  L 279.30 83.99
  A 1.08 1.08 0.0 0 0 279.49 85.95
  L 280.72 86.36
  A 0.26 0.24 10.3 0 1 280.89 86.59
  L 280.89 87.94
  A 0.32 0.31 -78.0 0 1 280.45 88.23
  Q 278.87 87.53 278.68 87.61
  A 0.48 0.46 -38.5 0 1 278.25 87.57
  L 273.05 84.32
  A 1.35 1.35 0.0 0 0 271.78 84.22
  Q 271.35 84.39 270.82 84.91
  A 0.60 0.60 0.0 0 1 269.92 84.85
  Q 268.76 83.35 267.04 83.98
  L 267.12 83.11
  A 0.49 0.49 0.0 0 0 266.62 82.57
  Q 265.56 82.60 264.47 83.00
  Q 265.87 81.83 268.29 82.08
  A 2.05 2.01 37.5 0 0 269.20 81.97
  Q 270.83 81.40 272.21 83.33
  A 0.76 0.76 0.0 0 0 273.58 82.77
  C 273.30 80.97 271.43 80.35 269.67 80.72
  Q 267.50 81.18 265.97 79.91
  A 1.19 1.18 -31.2 0 0 264.97 79.67
  Q 261.82 80.34 259.35 81.09
  A 1.63 1.55 -12.6 0 1 257.28 79.84
  Q 257.19 79.20 256.28 78.71
  Q 256.83 78.80 257.16 77.92
  Q 257.16 78.49 257.40 78.79
  Q 257.67 79.13 258.17 79.05
  Q 260.73 78.62 261.35 76.61
  A 0.72 0.70 -80.9 0 1 262.02 76.11
  L 264.61 76.11
  A 1.38 1.38 0.0 0 0 265.48 75.80
  Q 268.12 73.64 270.31 76.53
  Q 272.27 79.13 275.92 80.99
  Q 276.40 81.24 276.55 80.87
  Q 276.65 80.60 276.61 80.31
  A 0.45 0.45 0.0 0 1 276.88 79.82
  L 278.84 78.98
  A 0.46 0.46 0.0 0 0 279.05 78.33
  L 278.66 77.65
  A 0.26 0.25 -1.0 0 1 279.00 77.30
  Q 281.83 78.76 283.54 77.04
  A 2.12 2.04 -10.2 0 0 283.93 76.50
  Q 284.83 74.75 285.81 74.41
  Q 290.76 72.67 294.81 69.96
  A 0.58 0.58 0.0 0 0 294.49 68.89
  L 287.24 68.89
  A 0.36 0.36 0.0 0 1 287.08 68.21
  L 288.62 67.48
  A 1.42 1.33 28.4 0 1 289.11 67.35
  L 295.75 66.98
  A 0.93 0.92 11.8 0 0 296.52 66.48
  L 296.65 66.21
  A 0.65 0.65 0.0 0 0 296.07 65.27
  L 286.64 65.27
  A 0.32 0.32 0.0 0 1 286.37 64.77
  L 287.10 63.65
  A 0.37 0.34 -73.9 0 1 287.33 63.51
  Q 292.94 62.95 297.55 64.13
  Q 298.16 64.29 299.73 64.04
  C 301.67 63.73 302.10 64.83 302.54 66.40
  A 0.55 0.55 0.0 0 1 301.77 67.05
  Q 300.78 66.59 299.91 66.58
  A 1.05 1.00 22.5 0 0 299.21 66.85
  L 296.71 69.23
  A 2.19 2.19 0.0 0 0 296.13 70.16
  Q 296.13 70.23 296.13 70.42
  A 0.32 0.30 70.0 0 1 296.03 70.65
  L 290.44 76.07
  A 3.87 3.83 13.0 0 1 289.05 76.93
  L 286.92 77.70
  A 0.85 0.85 0.0 0 0 286.72 79.19
  L 286.83 79.27
  A 2.29 2.28 52.0 0 0 289.06 79.55
  Q 293.93 77.56 297.22 74.72
  A 0.72 0.72 0.0 0 1 298.40 75.19
  Q 298.44 75.64 298.15 76.28
  Q 297.91 76.81 298.27 77.31
  Q 298.98 78.29 301.10 77.17
  A 0.55 0.55 0.0 0 1 301.89 77.54
  Q 302.89 82.24 300.59 85.17
  Z"
/>
<path fill="#544001" d="
  M 268.82 66.05
  Q 269.00 68.33 270.01 68.07
  Q 269.57 71.08 267.13 72.78
  C 264.75 74.45 260.52 73.35 260.31 70.58
  A 1.90 1.89 -60.2 0 0 260.14 69.95
  L 258.51 66.29
  L 261.62 69.03
  A 0.32 0.31 15.7 0 0 262.14 68.74
  L 261.29 63.99
  C 263.58 65.22 265.59 64.97 267.58 67.14
  A 0.57 0.57 0.0 0 0 268.57 66.71
  Q 268.56 66.51 268.82 66.05
  Z"
/>
<path fill="#161718" d="
  M 283.10 69.49
  Q 283.08 69.76 283.08 69.81
  A 0.35 0.35 0.0 0 0 283.53 70.11
  Q 283.94 69.99 284.53 70.10
  A 0.41 0.41 0.0 0 1 284.62 70.88
  L 278.28 73.60
  A 0.55 0.55 0.0 0 0 278.00 74.32
  L 278.92 76.47
  A 0.37 0.36 85.4 0 1 278.50 76.97
  Q 276.95 76.58 275.73 75.04
  A 0.74 0.73 51.8 0 0 274.69 74.91
  Q 272.83 76.40 272.04 75.58
  A 0.69 0.69 0.0 0 1 272.53 74.41
  L 273.88 74.41
  A 1.07 1.03 -66.2 0 0 274.61 74.11
  Q 275.42 73.34 276.83 73.65
  A 0.69 0.69 0.0 0 0 277.64 73.17
  Q 277.93 72.15 278.46 71.62
  A 0.71 0.71 0.0 0 0 277.69 70.46
  Q 274.26 71.88 270.90 71.85
  A 0.36 0.36 0.0 0 1 270.73 71.17
  Q 275.15 68.67 280.37 68.88
  A 1.15 1.15 0.0 0 0 281.09 68.65
  L 284.47 65.99
  A 0.61 0.60 81.7 0 1 285.40 66.69
  Q 284.83 68.15 283.29 69.15
  A 0.44 0.43 74.8 0 0 283.10 69.49
  Z"
/>
<ellipse fill="#c5c4c2" cx="0.00" cy="0.00" transform="translate(338.58,68.48) rotate(-131.3)" rx="2.87" ry="0.54"/>
<path fill="#161718" d="
  M 257.16 77.92
  Q 256.83 78.80 256.28 78.71
  Q 254.78 78.64 253.39 79.22
  A 1.02 1.01 52.6 0 0 253.16 80.96
  L 259.19 85.61
  A 1.17 1.17 0.0 0 0 260.76 85.49
  Q 262.21 83.98 264.47 83.00
  Q 265.56 82.60 266.62 82.57
  A 0.49 0.49 0.0 0 1 267.12 83.11
  L 267.04 83.98
  Q 264.65 85.35 261.91 87.42
  A 1.32 1.23 -42.3 0 0 261.75 89.37
  Q 262.78 90.30 264.48 89.38
  A 0.45 0.44 -41.7 0 1 264.94 89.40
  Q 269.33 92.49 274.18 91.25
  A 0.43 0.42 64.8 0 0 274.41 90.59
  Q 273.48 89.31 270.91 88.09
  A 1.30 1.29 12.6 0 1 270.16 86.92
  L 270.16 86.32
  A 0.43 0.43 0.0 0 1 270.85 85.97
  Q 274.98 88.97 275.25 89.27
  Q 275.88 89.98 276.18 90.74
  A 1.07 1.01 8.8 0 0 276.56 91.23
  C 278.40 92.51 279.82 91.41 280.45 89.52
  Q 280.87 88.24 281.67 88.65
  A 1.36 1.35 -41.7 0 0 282.78 88.71
  L 287.61 86.85
  A 0.94 0.94 0.0 0 0 287.27 85.03
  L 283.30 85.03
  A 0.32 0.32 0.0 0 1 283.21 84.41
  Q 283.48 84.32 283.86 84.47
  A 0.81 0.81 0.0 0 0 284.46 84.47
  L 286.92 83.41
  A 0.49 0.48 -52.8 0 1 287.19 83.37
  Q 289.01 83.65 289.81 82.55
  L 300.57 80.46
  A 0.39 0.39 0.0 0 1 301.03 80.88
  L 300.59 85.17
  L 295.57 85.84
  A 1.50 1.32 -61.6 0 0 295.00 86.05
  L 283.67 93.13
  A 6.42 6.24 17.2 0 1 282.55 93.70
  Q 281.10 94.29 277.04 94.18
  Q 275.82 94.14 275.34 95.31
  A 0.53 0.53 0.0 0 0 275.59 95.99
  L 278.48 97.50
  Q 278.73 98.72 278.49 99.77
  L 276.43 101.87
  A 1.52 1.48 74.9 0 0 276.06 102.53
  Q 275.69 103.90 276.18 104.76
  A 1.11 1.09 74.7 0 0 277.13 105.31
  Q 279.05 105.30 280.32 104.16
  A 1.01 1.00 -58.2 0 1 281.23 103.94
  Q 284.61 104.77 286.80 107.24
  A 0.67 0.67 0.0 0 1 286.62 108.28
  L 286.56 108.31
  A 1.20 1.20 0.0 0 1 285.19 108.15
  Q 281.59 104.92 276.69 107.57
  Q 275.88 109.30 276.67 110.77
  Q 277.79 112.85 278.93 115.57
  Q 285.73 131.81 287.27 134.97
  Q 288.03 136.52 289.30 138.32
  A 0.74 0.74 0.0 0 1 288.57 139.48
  Q 288.30 139.43 287.93 139.07
  Q 274.55 125.96 260.88 111.31
  L 274.53 112.21
  A 0.53 0.52 87.7 0 0 275.08 111.61
  L 274.49 107.28
  L 273.96 105.97
  Q 274.02 105.03 273.35 104.01
  Q 272.65 102.09 270.67 99.88
  A 0.77 0.76 -44.3 0 0 269.55 99.87
  L 268.71 100.76
  Q 267.64 101.31 267.01 99.76
  Q 269.00 99.95 267.97 98.13
  Q 266.00 98.21 264.31 97.34
  Q 263.59 96.97 261.78 96.21
  Q 260.35 95.60 259.85 94.31
  Q 259.48 92.94 257.37 91.86
  Q 253.42 89.83 251.04 89.34
  Q 252.22 88.19 251.70 87.19
  Q 253.98 89.26 258.09 90.22
  A 1.23 1.17 3.3 0 0 259.59 88.94
  Q 259.48 88.04 258.19 87.56
  A 1.94 1.90 -10.1 0 1 257.38 87.01
  Q 254.89 84.16 251.76 82.33
  Q 250.95 77.96 251.81 71.49
  L 257.19 70.26
  A 0.39 0.14 -25.7 0 1 257.28 70.25
  Q 257.76 70.31 257.61 70.92
  A 0.68 0.67 -64.5 0 0 257.84 71.59
  Q 258.56 72.17 259.26 72.30
  A 1.61 1.58 35.1 0 1 259.81 75.25
  Q 258.16 76.17 257.16 77.92
  Z
  M 260.75 91.11
  A 0.48 0.47 -85.0 0 0 260.04 91.71
  Q 261.87 95.25 265.48 96.33
  A 1.20 1.19 41.0 0 0 266.26 96.28
  L 269.85 94.74
  A 1.06 1.06 0.0 0 0 269.26 92.72
  Q 266.53 93.18 266.32 93.10
  C 264.17 92.27 262.77 92.66 260.75 91.11
  Z"
/>
<path fill="#af9308" d="
  M 145.49 79.01
  Q 136.92 82.16 128.85 87.50
  Q 119.98 87.69 110.53 86.85
  Q 109.69 86.77 107.97 85.93
  Q 108.89 85.92 109.30 85.09
  Q 112.35 84.38 115.27 83.02
  Q 124.73 78.60 136.44 72.91
  C 138.39 71.96 141.03 71.90 143.47 73.19
  Q 145.65 74.34 148.54 74.70
  A 0.90 0.90 0.0 0 1 149.09 76.20
  Q 147.29 78.12 145.49 79.01
  Z"
/>
<ellipse fill="#878bab" cx="0.00" cy="0.00" transform="translate(331.65,75.29) rotate(-125.8)" rx="3.12" ry="0.68"/>
<path fill="#af9308" d="
  M 256.28 78.71
  Q 257.19 79.20 257.28 79.84
  A 1.63 1.55 -12.6 0 0 259.35 81.09
  Q 261.82 80.34 264.97 79.67
  A 1.19 1.18 -31.2 0 1 265.97 79.91
  Q 267.50 81.18 269.67 80.72
  C 271.43 80.35 273.30 80.97 273.58 82.77
  A 0.76 0.76 0.0 0 1 272.21 83.33
  Q 270.83 81.40 269.20 81.97
  A 2.05 2.01 37.5 0 1 268.29 82.08
  Q 265.87 81.83 264.47 83.00
  Q 262.21 83.98 260.76 85.49
  A 1.17 1.17 0.0 0 1 259.19 85.61
  L 253.16 80.96
  A 1.02 1.01 52.6 0 1 253.39 79.22
  Q 254.78 78.64 256.28 78.71
  Z"
/>
<path fill="#656990" d="
  M 145.49 79.01
  L 131.86 87.65
  L 128.85 87.50
  Q 136.92 82.16 145.49 79.01
  Z"
/>
<path fill="#af9308" d="
  M 289.81 82.55
  Q 289.01 83.65 287.19 83.37
  A 0.49 0.48 -52.8 0 0 286.92 83.41
  L 284.46 84.47
  A 0.81 0.81 0.0 0 1 283.86 84.47
  Q 283.48 84.32 283.21 84.41
  A 0.32 0.32 0.0 0 0 283.30 85.03
  L 287.27 85.03
  A 0.94 0.94 0.0 0 1 287.61 86.85
  L 282.78 88.71
  A 1.36 1.35 -41.7 0 1 281.67 88.65
  Q 280.87 88.24 280.45 89.52
  C 279.82 91.41 278.40 92.51 276.56 91.23
  A 1.07 1.01 8.8 0 1 276.18 90.74
  Q 275.88 89.98 275.25 89.27
  Q 274.98 88.97 270.85 85.97
  A 0.43 0.43 0.0 0 0 270.16 86.32
  L 270.16 86.92
  A 1.30 1.29 12.6 0 0 270.91 88.09
  Q 273.48 89.31 274.41 90.59
  A 0.43 0.42 64.8 0 1 274.18 91.25
  Q 269.33 92.49 264.94 89.40
  A 0.45 0.44 -41.7 0 0 264.48 89.38
  Q 262.78 90.30 261.75 89.37
  A 1.32 1.23 -42.3 0 1 261.91 87.42
  Q 264.65 85.35 267.04 83.98
  Q 268.76 83.35 269.92 84.85
  A 0.60 0.60 0.0 0 0 270.82 84.91
  Q 271.35 84.39 271.78 84.22
  A 1.35 1.35 0.0 0 1 273.05 84.32
  L 278.25 87.57
  A 0.48 0.46 -38.5 0 0 278.68 87.61
  Q 278.87 87.53 280.45 88.23
  A 0.32 0.31 -78.0 0 0 280.89 87.94
  L 280.89 86.59
  A 0.26 0.24 10.3 0 0 280.72 86.36
  L 279.49 85.95
  A 1.08 1.08 0.0 0 1 279.30 83.99
  L 285.55 80.38
  A 1.00 0.99 -34.7 0 1 286.81 80.60
  Q 287.85 81.86 289.48 80.95
  A 0.53 0.53 0.0 0 1 290.27 81.43
  Q 290.25 81.89 289.81 82.55
  Z"
/>
<path fill="#161718" d="
  M 327.25 84.38
  L 325.51 85.58
  A 0.59 0.59 0.0 0 1 324.59 85.02
  Q 324.92 82.57 323.66 82.76
  Q 325.64 80.96 328.14 81.92
  A 1.68 1.68 0.0 0 1 329.09 84.13
  Q 328.89 84.61 327.25 84.38
  Z"
/>
<path fill="#656990" d="
  M 236.01 82.45
  L 235.86 83.53
  Q 235.68 83.22 235.62 84.73
  L 251.49 101.19
  L 253.42 103.78
  Q 254.82 105.77 256.32 106.42
  L 260.88 111.31
  Q 274.55 125.96 287.93 139.07
  Q 288.30 139.43 288.57 139.48
  A 0.74 0.74 0.0 0 0 289.30 138.32
  Q 288.03 136.52 287.27 134.97
  Q 285.73 131.81 278.93 115.57
  Q 277.79 112.85 276.67 110.77
  Q 275.88 109.30 276.69 107.57
  Q 276.86 108.09 277.48 108.14
  A 0.67 0.66 81.8 0 1 278.03 108.56
  L 278.48 109.72
  L 279.67 113.09
  L 290.41 139.85
  A 1.29 1.28 54.2 0 1 290.20 141.16
  L 280.64 152.38
  L 270.84 163.27
  Q 270.93 162.71 270.76 162.54
  Q 270.32 162.11 269.88 162.55
  C 266.97 165.52 265.02 169.21 261.55 171.72
  A 0.95 0.94 -49.2 0 1 260.57 171.80
  C 259.74 171.37 259.08 170.40 258.13 169.52
  C 256.32 167.85 253.24 166.08 250.81 163.63
  Q 244.54 157.31 242.22 154.75
  Q 238.15 150.28 236.55 148.81
  Q 233.36 145.88 230.57 142.45
  C 229.16 140.71 227.26 139.45 226.14 138.05
  Q 224.41 135.88 223.21 134.71
  Q 216.55 128.19 212.22 122.90
  C 209.35 119.40 205.44 117.35 203.86 112.91
  A 1.47 1.41 -79.4 0 0 203.48 112.33
  L 197.84 107.00
  Q 197.79 106.67 198.38 106.02
  L 210.90 97.84
  Q 221.65 90.21 232.83 82.55
  Q 234.55 81.37 236.01 82.45
  Z
  M 240.7501 101.6955
  A 1.43 1.43 0.0 0 0 240.7466 99.6732
  L 236.5957 95.5368
  A 1.43 1.43 0.0 0 0 234.5734 95.5403
  L 234.3899 95.7245
  A 1.43 1.43 0.0 0 0 234.3934 97.7468
  L 238.5443 101.8832
  A 1.43 1.43 0.0 0 0 240.5666 101.8797
  L 240.7501 101.6955
  Z
  M 213.9161 110.9953
  A 4.66 1.35 -131.6 0 0 216.0005 115.3763
  A 4.66 1.35 -131.6 0 0 220.1039 117.9647
  A 4.66 1.35 -131.6 0 0 218.0195 113.5837
  A 4.66 1.35 -131.6 0 0 213.9161 110.9953
  Z
  M 253.13 150.45
  L 251.79 151.44
  A 0.65 0.65 0.0 0 0 251.66 152.35
  L 254.25 155.83
  A 4.17 1.32 53.4 0 0 257.79 158.39
  L 258.05 158.20
  A 4.17 1.32 53.4 0 0 256.62 154.07
  L 254.04 150.58
  A 0.65 0.65 0.0 0 0 253.13 150.45
  Z"
/>
<path fill="#878bab" d="
  M 251.04 89.34
  Q 253.42 89.83 257.37 91.86
  Q 259.48 92.94 259.85 94.31
  Q 259.93 94.72 259.89 95.01
  A 0.52 0.52 0.0 0 1 259.14 95.40
  L 251.56 91.43
  L 236.48 83.86
  Q 236.16 83.79 235.86 83.53
  L 236.01 82.45
  L 251.04 89.34
  Z"
/>
<path fill="#544001" d="
  M 251.70 87.19
  L 251.76 82.33
  Q 254.89 84.16 257.38 87.01
  A 1.94 1.90 -10.1 0 0 258.19 87.56
  Q 259.48 88.04 259.59 88.94
  A 1.23 1.17 3.3 0 1 258.09 90.22
  Q 253.98 89.26 251.70 87.19
  Z"
/>
<path fill="#af9308" d="
  M 323.66 82.76
  Q 324.92 82.57 324.59 85.02
  A 0.59 0.59 0.0 0 0 325.51 85.58
  L 327.25 84.38
  Q 328.35 84.24 328.44 84.28
  A 1.21 1.20 51.3 0 1 328.19 86.57
  Q 326.77 86.83 325.56 87.30
  Q 324.58 87.68 323.54 88.91
  Q 320.33 92.73 314.74 94.32
  Q 314.74 94.55 314.74 94.79
  Q 313.39 94.53 313.73 93.94
  Q 314.51 92.57 314.33 90.77
  A 0.67 0.67 0.0 0 1 314.86 90.05
  Q 316.10 89.78 317.71 90.20
  A 0.46 0.46 0.0 0 0 318.28 89.70
  Q 318.17 88.72 317.80 88.16
  A 1.18 0.98 85.0 0 1 319.01 86.42
  Q 319.51 86.74 319.95 87.69
  Q 320.29 88.43 320.79 88.65
  Q 321.04 88.76 321.97 88.08
  A 0.95 0.95 0.0 0 0 321.88 86.49
  Q 320.37 85.64 319.89 83.80
  L 323.66 82.76
  Z"
/>
<path fill="#161718" d="
  M 235.86 83.53
  Q 236.16 83.79 236.48 83.86
  Q 236.22 83.95 235.62 84.73
  Q 235.68 83.22 235.86 83.53
  Z"
/>
<path fill="#161718" d="
  M 319.89 83.80
  Q 320.37 85.64 321.88 86.49
  A 0.95 0.95 0.0 0 1 321.97 88.08
  Q 321.04 88.76 320.79 88.65
  Q 320.29 88.43 319.95 87.69
  Q 319.51 86.74 319.01 86.42
  A 1.18 0.98 85.0 0 0 317.80 88.16
  Q 318.17 88.72 318.28 89.70
  A 0.46 0.46 0.0 0 1 317.71 90.20
  Q 316.10 89.78 314.86 90.05
  A 0.67 0.67 0.0 0 0 314.33 90.77
  Q 314.51 92.57 313.73 93.94
  Q 313.39 94.53 314.74 94.79
  Q 314.28 94.93 314.31 95.30
  A 0.33 0.32 17.9 0 0 314.43 95.53
  Q 315.87 96.66 316.67 98.06
  A 1.09 1.09 0.0 0 1 316.66 99.15
  Q 314.76 102.36 315.16 106.48
  L 314.99 102.67
  A 0.64 0.64 0.0 0 0 314.24 102.08
  Q 311.80 102.51 309.79 100.29
  Q 308.72 99.11 307.32 100.03
  A 0.51 0.50 -31.2 0 1 306.61 99.86
  L 305.61 98.13
  A 0.43 0.43 0.0 0 1 306.03 97.49
  L 308.55 97.80
  A 2.42 2.39 -63.4 0 0 310.52 97.13
  L 312.66 95.06
  A 1.55 1.53 71.9 0 0 313.11 94.16
  Q 313.35 92.40 312.77 90.84
  A 1.98 1.97 -20.2 0 1 313.95 88.29
  Q 315.32 87.78 316.43 86.69
  Q 317.65 85.50 316.56 84.85
  L 319.89 83.80
  Z"
/>
<path fill="#2b5069" d="
  M 109.30 85.09
  Q 108.89 85.92 107.97 85.93
  L 105.48 88.72
  Q 103.88 89.36 104.49 91.43
  L 104.71 94.01
  L 104.05 92.12
  A 0.22 0.22 0.0 0 0 103.66 92.06
  Q 102.39 93.87 100.90 93.14
  Q 99.01 92.21 97.07 91.53
  C 99.93 89.13 105.30 84.26 109.30 85.09
  Z"
/>
<path fill="#544001" d="
  M 107.97 85.93
  Q 109.69 86.77 110.53 86.85
  Q 119.98 87.69 128.85 87.50
  L 131.86 87.65
  L 138.31 89.10
  A 12.07 11.65 -38.1 0 0 141.22 89.40
  Q 146.19 89.29 151.28 90.79
  A 6.63 6.26 -34.9 0 0 153.03 91.05
  Q 160.77 91.13 165.72 92.44
  A 8.28 8.21 52.7 0 0 167.65 92.71
  Q 174.12 92.82 180.07 94.16
  A 12.46 12.34 51.6 0 0 182.64 94.47
  Q 188.60 94.56 194.85 95.95
  A 11.85 11.50 50.8 0 0 197.15 96.22
  Q 203.85 96.33 210.90 97.84
  L 198.38 106.02
  Q 192.40 105.17 186.63 104.18
  Q 180.93 103.21 177.91 103.08
  Q 173.76 102.91 172.06 102.29
  Q 169.72 101.43 166.19 101.47
  Q 161.87 101.51 156.64 100.14
  A 11.53 11.34 -37.1 0 0 153.87 99.78
  Q 148.05 99.77 142.51 98.40
  A 9.96 9.45 51.1 0 0 140.33 98.11
  Q 134.41 98.01 128.93 96.69
  A 1.12 0.58 -17.3 0 0 128.71 96.65
  L 116.36 95.63
  A 0.93 0.91 35.3 0 0 115.92 95.70
  L 112.26 97.26
  L 108.21 96.75
  Q 105.11 95.94 104.71 94.01
  L 104.49 91.43
  L 105.58 92.96
  A 0.78 0.77 62.3 0 0 106.46 93.24
  Q 108.17 92.66 109.01 92.77
  Q 112.85 93.25 116.62 93.11
  A 0.75 0.74 78.4 0 0 117.28 92.10
  Q 117.07 91.53 116.40 91.23
  Q 111.12 88.87 105.48 88.72
  L 107.97 85.93
  Z
  M 175.65 102.66
  L 177.15 102.70
  A 0.46 0.46 0.0 0 0 177.62 102.25
  L 177.66 100.95
  A 5.02 1.10 -88.5 0 0 176.69 95.90
  L 176.47 95.90
  A 5.02 1.10 -88.5 0 0 175.24 100.89
  L 175.20 102.19
  A 0.46 0.46 0.0 0 0 175.65 102.66
  Z"
/>
<path fill="#544001" d="
  M 298.15 114.42
  Q 298.97 117.78 298.47 119.70
  A 0.17 0.17 0.0 0 1 298.14 119.63
  L 298.46 116.97
  A 1.74 1.74 0.0 0 0 296.94 115.03
  L 282.70 113.31
  A 1.66 1.53 61.4 0 1 282.11 113.11
  Q 279.52 111.62 279.67 113.09
  L 278.48 109.72
  Q 278.08 108.13 278.95 108.18
  Q 282.70 108.40 285.27 109.45
  Q 285.86 109.69 286.76 109.51
  A 1.86 1.76 -42.7 0 1 287.49 109.52
  Q 292.68 110.55 299.41 110.11
  A 1.27 1.26 1.6 0 0 300.60 108.99
  L 300.67 108.42
  A 0.45 0.45 0.0 0 0 300.10 107.93
  Q 297.13 108.79 296.46 108.69
  A 5.05 4.10 -2.2 0 1 292.62 105.82
  Q 292.47 105.41 290.68 104.11
  A 0.78 0.78 0.0 0 0 289.51 105.04
  Q 289.99 106.21 292.06 107.17
  A 0.53 0.53 0.0 0 1 291.93 108.18
  C 289.33 108.63 287.75 106.36 286.53 104.53
  A 2.32 2.30 88.5 0 0 285.79 103.82
  Q 283.21 102.21 280.72 99.77
  Q 279.63 98.70 278.49 99.77
  Q 278.73 98.72 278.48 97.50
  Q 278.88 97.99 279.36 98.11
  Q 279.90 98.24 280.23 97.75
  Q 280.55 97.29 280.99 97.04
  A 0.71 0.70 -34.3 0 1 281.87 97.20
  C 283.55 99.19 285.03 101.11 287.95 100.49
  A 1.33 1.30 -78.6 0 0 288.77 99.93
  Q 289.51 98.83 289.83 96.99
  A 0.16 0.16 0.0 0 0 289.54 96.87
  Q 288.23 98.73 285.70 97.34
  A 0.78 0.78 0.0 0 1 286.08 95.88
  L 288.53 95.88
  A 0.95 0.94 -73.4 0 0 289.32 95.45
  C 289.82 94.69 290.18 93.47 290.82 92.74
  Q 294.37 88.68 299.46 88.65
  A 1.88 1.86 -61.5 0 0 300.49 88.34
  Q 301.37 87.76 301.83 87.72
  A 0.54 0.54 0.0 0 1 302.41 88.34
  Q 302.06 90.57 300.48 90.96
  A 0.39 0.38 -19.9 0 0 300.22 91.50
  Q 300.78 92.67 301.34 93.15
  A 0.93 0.93 0.0 0 1 301.68 93.87
  L 301.68 97.04
  A 1.13 1.13 0.0 0 0 302.34 98.07
  Q 304.32 98.97 303.03 101.63
  A 1.46 1.44 -38.1 0 0 302.91 102.59
  Q 303.14 103.63 303.59 104.26
  A 1.83 1.81 -42.2 0 1 303.47 106.54
  L 301.87 108.34
  A 0.84 0.55 89.3 0 0 301.75 108.53
  Q 300.20 112.05 298.15 114.42
  Z
  M 298.91 93.09
  Q 298.89 92.17 299.25 91.55
  A 0.99 0.91 16.7 0 0 298.43 90.17
  C 296.95 90.04 295.58 90.70 294.54 92.17
  Q 293.95 93.01 292.21 93.57
  A 0.91 0.91 0.0 0 0 292.48 95.35
  L 294.40 95.35
  A 0.51 0.51 0.0 0 0 294.90 94.76
  Q 294.76 94.01 295.44 93.51
  Q 295.93 93.16 297.12 93.60
  Q 298.07 93.95 298.41 93.82
  A 0.77 0.76 -10.8 0 0 298.91 93.09
  Z"
/>
<path fill="#af9308" d="
  M 105.48 88.72
  Q 111.12 88.87 116.40 91.23
  Q 117.07 91.53 117.28 92.10
  A 0.75 0.74 78.4 0 1 116.62 93.11
  Q 112.85 93.25 109.01 92.77
  Q 108.17 92.66 106.46 93.24
  A 0.78 0.77 62.3 0 1 105.58 92.96
  L 104.49 91.43
  Q 103.88 89.36 105.48 88.72
  Z"
/>
<path fill="#af9308" d="
  M 298.41 93.82
  Q 298.07 93.95 297.12 93.60
  Q 295.93 93.16 295.44 93.51
  Q 294.76 94.01 294.90 94.76
  A 0.51 0.51 0.0 0 1 294.40 95.35
  L 292.48 95.35
  A 0.91 0.91 0.0 0 1 292.21 93.57
  Q 293.95 93.01 294.54 92.17
  C 295.58 90.70 296.95 90.04 298.43 90.17
  A 0.99 0.91 16.7 0 1 299.25 91.55
  Q 298.89 92.17 298.91 93.09
  A 0.77 0.76 -10.8 0 1 298.41 93.82
  Z"
/>
<path fill="#af9308" d="
  M 260.75 91.11
  C 262.77 92.66 264.17 92.27 266.32 93.10
  Q 266.53 93.18 269.26 92.72
  A 1.06 1.06 0.0 0 1 269.85 94.74
  L 266.26 96.28
  A 1.20 1.19 41.0 0 1 265.48 96.33
  Q 261.87 95.25 260.04 91.71
  A 0.48 0.47 -85.0 0 1 260.75 91.11
  Z"
/>
<path fill="#161718" d="
  M 97.07 91.53
  Q 99.01 92.21 100.90 93.14
  Q 102.39 93.87 103.66 92.06
  A 0.22 0.22 0.0 0 1 104.05 92.12
  L 104.71 94.01
  Q 105.11 95.94 108.21 96.75
  Q 102.91 101.98 101.90 98.19
  L 93.29 94.08
  L 97.07 91.53
  Z"
/>
<path fill="#544001" d="
  M 259.85 94.31
  Q 260.35 95.60 261.78 96.21
  Q 263.59 96.97 264.31 97.34
  Q 266.00 98.21 267.97 98.13
  L 266.23 98.18
  A 0.42 0.42 0.0 0 0 265.87 98.78
  Q 266.13 99.32 267.01 99.76
  Q 267.64 101.31 268.71 100.76
  Q 261.47 103.46 253.42 103.78
  L 251.49 101.19
  L 251.56 91.43
  L 259.14 95.40
  A 0.52 0.52 0.0 0 0 259.89 95.01
  Q 259.93 94.72 259.85 94.31
  Z"
/>
<path fill="#af9308" d="
  M 93.29 94.08
  L 101.90 98.19
  Q 103.32 100.46 101.45 101.46
  Q 78.69 113.57 57.27 125.76
  A 0.91 0.90 -88.0 0 1 56.07 124.47
  Q 56.57 123.71 56.92 121.87
  A 0.49 0.49 0.0 0 0 56.39 121.28
  Q 55.79 121.34 55.16 121.85
  A 1.10 1.08 42.4 0 1 53.87 121.90
  L 49.57 118.98
  Q 52.94 115.41 58.97 112.23
  Q 76.02 103.22 93.29 94.08
  Z"
/>
<rect fill="#878bab" x="-4.36" y="-1.56" transform="translate(237.57,98.71) rotate(44.9)" width="8.72" height="3.12" rx="1.43"/>
<path fill="#161718" d="
  M 175.65 102.66
  A 0.46 0.46 0.0 0 1 175.20 102.19
  L 175.24 100.89
  A 5.02 1.10 -88.5 0 1 176.47 95.90
  L 176.69 95.90
  A 5.02 1.10 -88.5 0 1 177.66 100.95
  L 177.62 102.25
  A 0.46 0.46 0.0 0 1 177.15 102.70
  L 175.65 102.66
  Z"
/>
<path fill="#656990" d="
  M 108.21 96.75
  L 112.26 97.26
  L 51.59 130.57
  A 0.61 0.60 68.7 0 1 50.71 130.18
  Q 49.47 125.27 49.57 118.98
  L 53.87 121.90
  A 1.10 1.08 42.4 0 0 55.16 121.85
  Q 55.79 121.34 56.39 121.28
  A 0.49 0.49 0.0 0 1 56.92 121.87
  Q 56.57 123.71 56.07 124.47
  A 0.91 0.90 -88.0 0 0 57.27 125.76
  Q 78.69 113.57 101.45 101.46
  Q 103.32 100.46 101.90 98.19
  Q 102.91 101.98 108.21 96.75
  Z"
/>
<path fill="#c5c4c2" d="
  M 267.97 98.13
  Q 269.00 99.95 267.01 99.76
  Q 266.13 99.32 265.87 98.78
  A 0.42 0.42 0.0 0 1 266.23 98.18
  L 267.97 98.13
  Z"
/>
<path fill="#af9308" d="
  M 278.48 109.72
  L 278.03 108.56
  A 0.67 0.66 81.8 0 0 277.48 108.14
  Q 276.86 108.09 276.69 107.57
  Q 281.59 104.92 285.19 108.15
  A 1.20 1.20 0.0 0 0 286.56 108.31
  L 286.62 108.28
  A 0.67 0.67 0.0 0 0 286.80 107.24
  Q 284.61 104.77 281.23 103.94
  A 1.01 1.00 -58.2 0 0 280.32 104.16
  Q 279.05 105.30 277.13 105.31
  A 1.11 1.09 74.7 0 1 276.18 104.76
  Q 275.69 103.90 276.06 102.53
  A 1.52 1.48 74.9 0 1 276.43 101.87
  L 278.49 99.77
  Q 279.63 98.70 280.72 99.77
  Q 283.21 102.21 285.79 103.82
  A 2.32 2.30 88.5 0 1 286.53 104.53
  C 287.75 106.36 289.33 108.63 291.93 108.18
  A 0.53 0.53 0.0 0 0 292.06 107.17
  Q 289.99 106.21 289.51 105.04
  A 0.78 0.78 0.0 0 1 290.68 104.11
  Q 292.47 105.41 292.62 105.82
  A 5.05 4.10 -2.2 0 0 296.46 108.69
  Q 297.13 108.79 300.10 107.93
  A 0.45 0.45 0.0 0 1 300.67 108.42
  L 300.60 108.99
  A 1.27 1.26 1.6 0 1 299.41 110.11
  Q 292.68 110.55 287.49 109.52
  A 1.86 1.76 -42.7 0 0 286.76 109.51
  Q 285.86 109.69 285.27 109.45
  Q 282.70 108.40 278.95 108.18
  Q 278.08 108.13 278.48 109.72
  Z"
/>
<path fill="#af9308" d="
  M 273.35 104.01
  Q 273.34 104.34 273.21 104.53
  Q 273.06 104.74 272.75 104.64
  Q 269.35 103.45 265.39 103.13
  A 0.61 0.61 0.0 0 0 264.81 104.03
  Q 265.03 104.46 265.80 104.91
  Q 270.02 107.44 273.96 105.97
  L 274.49 107.28
  Q 274.66 107.95 274.25 108.25
  Q 273.93 108.49 273.23 108.37
  Q 267.67 107.36 262.38 105.44
  Q 260.31 104.69 256.32 106.42
  Q 254.82 105.77 253.42 103.78
  Q 261.47 103.46 268.71 100.76
  L 269.55 99.87
  A 0.77 0.76 -44.3 0 1 270.67 99.88
  Q 272.65 102.09 273.35 104.01
  Z"
/>
<path fill="#544001" d="
  M 273.35 104.01
  Q 274.02 105.03 273.96 105.97
  Q 270.02 107.44 265.80 104.91
  Q 265.03 104.46 264.81 104.03
  A 0.61 0.61 0.0 0 1 265.39 103.13
  Q 269.35 103.45 272.75 104.64
  Q 273.06 104.74 273.21 104.53
  Q 273.34 104.34 273.35 104.01
  Z"
/>
<path fill="#544001" d="
  M 274.49 107.28
  L 275.08 111.61
  A 0.53 0.52 87.7 0 1 274.53 112.21
  L 260.88 111.31
  L 256.32 106.42
  Q 260.31 104.69 262.38 105.44
  Q 267.67 107.36 273.23 108.37
  Q 273.93 108.49 274.25 108.25
  Q 274.66 107.95 274.49 107.28
  Z"
/>
<path fill="#c5c4c2" d="
  M 270.84 163.27
  L 254.39 181.37
  Q 254.66 178.86 257.36 176.17
  A 1.38 1.38 0.0 0 0 256.69 173.84
  Q 254.50 173.34 253.63 170.52
  Q 252.95 168.30 251.97 167.14
  C 249.25 163.89 243.60 158.58 238.74 152.75
  Q 237.52 151.30 235.37 149.57
  A 3.68 3.57 2.1 0 1 234.69 148.86
  Q 232.78 146.26 225.75 139.50
  Q 220.50 134.44 209.17 122.08
  Q 205.64 118.23 194.87 109.13
  L 197.84 107.00
  L 203.48 112.33
  A 1.47 1.41 -79.4 0 1 203.86 112.91
  C 205.44 117.35 209.35 119.40 212.22 122.90
  Q 216.55 128.19 223.21 134.71
  Q 224.41 135.88 226.14 138.05
  C 227.26 139.45 229.16 140.71 230.57 142.45
  Q 233.36 145.88 236.55 148.81
  Q 238.15 150.28 242.22 154.75
  Q 244.54 157.31 250.81 163.63
  C 253.24 166.08 256.32 167.85 258.13 169.52
  C 259.08 170.40 259.74 171.37 260.57 171.80
  A 0.95 0.94 -49.2 0 0 261.55 171.72
  C 265.02 169.21 266.97 165.52 269.88 162.55
  Q 270.32 162.11 270.76 162.54
  Q 270.93 162.71 270.84 163.27
  Z"
/>
<path fill="#656990" d="
  M 194.87 109.13
  Q 205.64 118.23 209.17 122.08
  Q 220.50 134.44 225.75 139.50
  Q 232.78 146.26 234.69 148.86
  A 3.68 3.57 2.1 0 0 235.37 149.57
  Q 237.52 151.30 238.74 152.75
  C 243.60 158.58 249.25 163.89 251.97 167.14
  Q 252.95 168.30 253.63 170.52
  Q 254.50 173.34 256.69 173.84
  A 1.38 1.38 0.0 0 1 257.36 176.17
  Q 254.66 178.86 254.39 181.37
  L 254.18 183.79
  Q 252.47 183.65 251.13 185.13
  Q 237.95 199.86 223.63 215.96
  Q 219.69 209.62 215.47 208.20
  Q 213.75 207.62 212.43 206.02
  Q 208.12 200.82 204.18 197.25
  C 201.27 194.61 199.16 191.54 196.32 189.33
  A 3.96 3.96 0.0 0 1 195.31 188.17
  Q 193.90 185.73 190.78 183.43
  C 189.47 182.46 188.61 181.12 187.75 179.86
  A 2.77 2.45 -86.5 0 0 187.46 179.49
  L 158.35 149.46
  A 1.18 1.12 13.8 0 1 158.12 149.10
  L 157.18 146.64
  A 3.16 3.14 9.3 0 0 156.23 145.33
  Q 153.21 142.88 151.52 139.83
  L 194.87 109.13
  Z
  M 197.5385 124.0810
  A 4.64 1.56 -133.8 0 0 199.6241 128.5097
  A 4.64 1.56 -133.8 0 0 203.9615 130.7790
  A 4.64 1.56 -133.8 0 0 201.8759 126.3503
  A 4.64 1.56 -133.8 0 0 197.5385 124.0810
  Z
  M 178.2956 150.6486
  A 1.34 1.34 0.0 0 0 178.1568 148.7587
  L 172.6761 144.0279
  A 1.34 1.34 0.0 0 0 170.7862 144.1667
  L 169.8844 145.2114
  A 1.34 1.34 0.0 0 0 170.0232 147.1013
  L 175.5039 151.8321
  A 1.34 1.34 0.0 0 0 177.3938 151.6933
  L 178.2956 150.6486
  Z
  M 244.1996 172.5728
  A 1.65 1.65 0.0 0 0 244.1874 170.2394
  L 239.5530 165.6533
  A 1.65 1.65 0.0 0 0 237.2196 165.6655
  L 236.9804 165.9072
  A 1.65 1.65 0.0 0 0 236.9926 168.2406
  L 241.6270 172.8267
  A 1.65 1.65 0.0 0 0 243.9604 172.8145
  L 244.1996 172.5728
  Z
  M 221.9062 195.7540
  A 1.09 1.09 0.0 0 0 221.8498 194.2135
  L 216.1799 188.9447
  A 1.09 1.09 0.0 0 0 214.6394 189.0012
  L 213.0738 190.6860
  A 1.09 1.09 0.0 0 0 213.1302 192.2265
  L 218.8001 197.4953
  A 1.09 1.09 0.0 0 0 220.3406 197.4388
  L 221.9062 195.7540
  Z"
/>
<path fill="#161718" d="
  M 317.21 109.42
  Q 316.87 109.43 316.49 109.29
  L 317.21 109.42
  Z"
/>
<path fill="#544001" d="
  M 512.00 110.49
  L 512.00 113.24
  L 510.24 137.80
  L 500.84 129.03
  A 0.45 0.44 36.9 0 0 500.15 129.12
  Q 499.25 130.62 500.64 132.14
  Q 503.71 135.47 508.16 139.54
  Q 505.65 142.05 502.66 140.88
  A 1.18 1.16 -0.5 0 1 502.02 140.26
  L 501.03 137.95
  A 0.65 0.65 0.0 0 0 499.79 138.34
  Q 500.37 141.18 498.69 141.34
  C 496.59 141.54 496.03 143.95 493.54 142.83
  C 492.77 140.66 490.22 140.40 488.31 139.96
  Q 487.35 138.01 485.65 136.70
  A 1.61 1.60 65.4 0 0 484.77 136.37
  C 478.10 136.02 471.95 135.04 462.26 134.09
  Q 454.65 133.34 448.23 131.16
  Q 447.20 130.80 441.92 130.18
  Q 438.24 129.75 435.63 129.06
  Q 427.62 126.96 420.60 126.27
  Q 416.67 125.89 411.52 124.79
  Q 408.78 124.21 402.36 123.34
  A 0.85 0.84 7.1 0 0 401.41 124.07
  L 401.31 124.94
  A 1.01 1.01 0.0 0 0 402.10 126.05
  Q 408.28 127.33 415.99 129.12
  Q 417.82 129.55 424.75 129.72
  Q 426.24 129.75 429.25 131.00
  A 1.06 0.79 53.6 0 0 429.51 131.08
  L 435.23 131.89
  A 2.82 2.80 -26.8 0 1 436.12 132.18
  Q 437.61 132.96 439.74 132.88
  A 2.40 2.18 47.9 0 1 440.34 132.94
  L 448.79 134.91
  A 0.04 0.04 0.0 0 1 448.79 134.99
  Q 447.38 135.23 446.05 135.05
  L 398.98 129.38
  Q 398.54 127.39 399.37 126.12
  Q 399.89 125.35 399.86 125.16
  Q 399.80 124.67 399.72 123.97
  A 0.02 0.02 0.0 0 0 399.68 123.97
  Q 399.63 125.10 399.04 125.90
  A 0.67 0.67 0.0 0 1 398.28 126.14
  L 390.51 123.53
  A 0.68 0.68 0.0 0 1 390.64 122.21
  L 392.32 121.98
  A 2.10 2.06 -37.2 0 1 393.36 122.11
  Q 396.08 123.24 398.83 121.92
  A 0.67 0.66 -17.1 0 1 399.78 122.42
  L 399.90 123.37
  A 0.02 0.02 0.0 0 0 399.94 123.38
  Q 399.95 123.36 399.96 123.34
  A 0.37 0.32 -40.3 0 0 399.99 123.16
  Q 399.89 121.77 400.46 120.91
  Q 400.66 120.34 401.09 120.38
  Q 401.38 120.40 401.63 120.94
  Q 401.94 121.57 402.81 121.66
  Q 422.86 123.67 442.82 127.79
  A 6.21 6.07 -39.9 0 0 444.38 127.91
  C 446.84 127.76 448.67 128.30 451.05 127.94
  Q 455.91 127.22 461.01 128.69
  A 4.97 4.78 -37.4 0 0 462.59 128.87
  Q 469.77 128.53 475.68 129.75
  C 482.34 131.12 489.21 130.72 496.18 132.41
  A 0.45 0.45 0.0 0 0 496.74 131.97
  Q 496.75 130.02 495.82 129.32
  C 496.55 123.60 496.33 117.72 498.67 112.86
  A 1.17 1.15 -85.5 0 1 499.37 112.25
  Q 506.09 110.16 512.00 110.49
  Z"
/>
<path fill="#161718" d="
  M 326.96 110.40
  L 326.04 110.34
  L 326.96 110.40
  Z"
/>
<path fill="#161718" d="
  M 329.21 110.68
  L 327.79 110.55
  L 329.21 110.68
  Z"
/>
<ellipse fill="#878bab" cx="0.00" cy="0.00" transform="translate(217.01,114.48) rotate(-131.6)" rx="4.66" ry="1.35"/>
<path fill="#161718" d="
  M 296.80 167.35
  L 296.33 155.96
  A 0.71 0.71 0.0 0 0 295.86 155.32
  Q 288.65 152.85 280.64 152.38
  L 290.20 141.16
  A 1.29 1.28 54.2 0 0 290.41 139.85
  L 279.67 113.09
  Q 279.52 111.62 282.11 113.11
  A 1.66 1.53 61.4 0 0 282.70 113.31
  L 296.94 115.03
  A 1.74 1.74 0.0 0 1 298.46 116.97
  L 298.14 119.63
  A 0.17 0.17 0.0 0 0 298.47 119.70
  Q 298.97 117.78 298.15 114.42
  Q 299.04 118.87 298.88 122.00
  Q 298.12 136.48 297.04 150.63
  A 0.47 0.47 0.0 0 0 297.70 151.10
  L 298.11 150.92
  A 0.58 0.57 86.2 0 0 298.45 150.52
  C 299.56 145.94 300.46 143.51 301.03 139.59
  C 301.73 134.84 303.67 129.71 304.64 125.02
  Q 305.23 122.18 306.88 118.16
  Q 307.65 116.29 307.29 111.96
  A 0.47 0.47 0.0 0 1 307.57 111.50
  L 309.16 110.82
  A 0.31 0.30 -6.5 0 1 309.58 111.15
  L 307.95 120.95
  A 2.94 2.66 -30.8 0 1 307.73 121.67
  Q 305.57 126.28 305.61 132.56
  A 5.28 5.14 56.1 0 1 305.25 134.52
  Q 303.53 138.98 302.33 146.83
  Q 302.18 147.82 301.09 150.11
  A 2.13 1.91 -31.6 0 0 300.90 150.75
  L 299.55 160.51
  A 1.88 1.71 -32.8 0 1 299.43 160.96
  L 296.80 167.35
  Z"
/>
<path fill="#161718" d="
  M 400.46 120.91
  Q 399.89 121.77 399.99 123.16
  A 0.37 0.32 -40.3 0 1 399.96 123.34
  Q 399.95 123.36 399.94 123.38
  A 0.02 0.02 0.0 0 1 399.90 123.37
  L 399.78 122.42
  A 0.67 0.66 -17.1 0 0 398.83 121.92
  Q 396.08 123.24 393.36 122.11
  A 2.10 2.06 -37.2 0 0 392.32 121.98
  L 390.64 122.21
  A 0.68 0.68 0.0 0 0 390.51 123.53
  L 398.28 126.14
  A 0.67 0.67 0.0 0 0 399.04 125.90
  Q 399.63 125.10 399.68 123.97
  A 0.02 0.02 0.0 0 1 399.72 123.97
  Q 399.80 124.67 399.86 125.16
  Q 399.89 125.35 399.37 126.12
  Q 398.54 127.39 398.98 129.38
  Q 399.19 129.16 399.39 128.93
  Q 388.05 126.06 381.94 124.81
  Q 378.57 124.12 371.48 122.86
  Q 365.93 121.86 361.12 120.56
  Q 352.68 118.28 348.46 117.60
  Q 331.25 114.81 325.47 113.78
  A 0.38 0.38 0.0 0 1 325.39 113.05
  L 326.59 112.54
  A 1.18 1.17 -43.8 0 1 327.56 112.56
  Q 330.95 114.20 336.84 113.93
  A 9.31 9.03 48.2 0 1 338.97 114.08
  C 349.20 116.06 357.54 116.44 367.33 118.41
  Q 373.11 119.58 381.38 119.65
  Q 382.76 119.66 384.02 120.16
  Q 385.46 120.73 386.76 120.60
  Q 387.65 120.52 389.75 120.21
  Q 390.81 120.06 392.73 120.46
  Q 396.60 121.27 400.46 120.91
  Z"
/>
<ellipse fill="#544001" cx="0.00" cy="0.00" transform="translate(311.60,114.07) rotate(-78.0)" rx="1.31" ry="0.78"/>
<path fill="#544001" d="
  M 323.51 114.15
  A 0.76 0.75 -52.1 0 1 323.69 115.63
  L 319.40 116.98
  A 0.85 0.81 -46.4 0 1 319.00 117.00
  L 315.10 116.27
  A 0.59 0.59 0.0 0 1 314.62 115.69
  L 314.62 114.07
  A 0.74 0.74 0.0 0 1 315.71 113.42
  Q 316.84 114.04 317.76 113.88
  Q 317.82 113.86 323.51 114.15
  Z"
/>
<path fill="#544001" d="
  M 369.47 115.46
  Q 368.45 115.83 367.70 115.35
  Q 368.62 115.23 369.47 115.46
  Z"
/>
<path fill="#544001" d="
  M 371.71 115.76
  Q 370.48 115.98 369.70 115.57
  Q 370.74 115.29 371.71 115.76
  Z"
/>
<path fill="#161718" d="
  M 347.43 120.87
  Q 348.62 121.30 350.00 121.10
  A 0.09 0.09 0.0 0 1 350.11 121.19
  L 350.11 121.57
  A 0.30 0.30 0.0 0 1 349.73 121.86
  C 347.48 121.32 345.23 122.16 342.73 121.69
  Q 336.60 120.54 328.23 119.75
  Q 325.11 119.46 324.57 120.64
  L 316.75 119.85
  Q 318.67 120.12 319.68 119.44
  A 1.30 1.27 -58.3 0 1 320.53 119.23
  Q 322.63 119.47 323.25 119.40
  Q 335.48 118.04 347.43 120.87
  Z"
/>
<path fill="#544001" d="
  M 347.43 120.87
  Q 353.44 120.81 359.11 122.91
  Q 359.21 122.95 361.44 124.22
  Q 362.59 124.87 364.04 124.90
  L 362.02 125.03
  L 361.29 124.92
  Q 360.72 124.72 360.04 124.83
  L 324.57 120.64
  Q 325.11 119.46 328.23 119.75
  Q 336.60 120.54 342.73 121.69
  C 345.23 122.16 347.48 121.32 349.73 121.86
  A 0.30 0.30 0.0 0 0 350.11 121.57
  L 350.11 121.19
  A 0.09 0.09 0.0 0 0 350.00 121.10
  Q 348.62 121.30 347.43 120.87
  Z"
/>
<path fill="#af9308" d="
  M 488.31 139.96
  L 483.05 139.21
  Q 482.31 138.54 481.19 139.13
  L 450.96 135.52
  Q 450.32 135.25 449.46 135.30
  L 446.05 135.05
  Q 447.38 135.23 448.79 134.99
  A 0.04 0.04 0.0 0 0 448.79 134.91
  L 440.34 132.94
  A 2.40 2.18 47.9 0 0 439.74 132.88
  Q 437.61 132.96 436.12 132.18
  A 2.82 2.80 -26.8 0 0 435.23 131.89
  L 429.51 131.08
  A 1.06 0.79 53.6 0 1 429.25 131.00
  Q 426.24 129.75 424.75 129.72
  Q 417.82 129.55 415.99 129.12
  Q 408.28 127.33 402.10 126.05
  A 1.01 1.01 0.0 0 1 401.31 124.94
  L 401.41 124.07
  A 0.85 0.84 7.1 0 1 402.36 123.34
  Q 408.78 124.21 411.52 124.79
  Q 416.67 125.89 420.60 126.27
  Q 427.62 126.96 435.63 129.06
  Q 438.24 129.75 441.92 130.18
  Q 447.20 130.80 448.23 131.16
  Q 454.65 133.34 462.26 134.09
  C 471.95 135.04 478.10 136.02 484.77 136.37
  A 1.61 1.60 65.4 0 1 485.65 136.70
  Q 487.35 138.01 488.31 139.96
  Z"
/>
<ellipse fill="#878bab" cx="0.00" cy="0.00" transform="translate(200.75,127.43) rotate(-133.8)" rx="4.64" ry="1.56"/>
<path fill="#161718" d="
  M 447.21 124.18
  L 445.99 124.12
  L 447.21 124.18
  Z"
/>
<path fill="#161718" d="
  M 450.47 124.45
  Q 449.47 124.83 448.71 124.34
  L 450.47 124.45
  Z"
/>
<path fill="#161718" d="
  M 452.49 124.69
  Q 451.44 124.86 450.70 124.57
  Q 451.59 124.46 452.49 124.69
  Z"
/>
<path fill="#161718" d="
  M 361.29 124.92
  L 360.04 124.83
  Q 360.72 124.72 361.29 124.92
  Z"
/>
<path fill="#544001" d="
  M 454.22 124.91
  Q 453.08 125.45 452.69 124.81
  Q 453.44 124.70 454.22 124.91
  Z"
/>
<path fill="#161718" d="
  M 364.04 124.90
  L 365.46 125.46
  L 362.02 125.03
  L 364.04 124.90
  Z"
/>
<path fill="#161718" d="
  M 372.46 126.48
  L 368.80 126.08
  L 372.46 126.48
  Z"
/>
<path fill="#161718" d="
  M 376.46 126.91
  L 375.79 126.86
  L 376.46 126.91
  Z"
/>
<path fill="#544001" d="
  M 379.21 127.06
  Q 378.93 127.25 378.24 127.11
  Q 378.92 127.23 379.21 127.06
  Z"
/>
<path fill="#af9308" d="
  M 510.24 137.80
  Q 510.27 150.01 508.95 163.17
  C 508.56 167.01 508.54 170.70 508.40 174.50
  Q 508.31 177.16 507.20 179.51
  Q 505.94 177.68 506.06 174.57
  Q 506.39 166.17 507.12 163.65
  Q 508.01 160.61 507.68 157.53
  Q 507.48 155.57 508.17 150.68
  A 0.70 0.70 0.0 0 0 506.81 150.36
  L 505.69 153.69
  A 0.30 0.30 0.0 0 1 505.19 153.81
  L 502.19 150.71
  A 0.55 0.55 0.0 0 0 501.26 151.20
  C 501.58 152.78 502.15 155.24 503.31 156.60
  Q 504.10 157.53 504.17 160.31
  Q 504.24 162.92 505.39 166.39
  A 0.62 0.62 0.0 0 1 504.38 167.03
  C 501.69 164.51 501.59 162.16 501.27 158.73
  A 0.88 0.87 9.5 0 0 500.76 158.02
  L 496.36 155.98
  A 0.84 0.84 0.0 0 0 495.17 156.65
  C 494.49 162.72 499.33 166.22 500.89 171.42
  A 0.43 0.42 -77.4 0 1 500.20 171.86
  L 496.01 168.06
  A 0.85 0.78 -82.2 0 1 495.81 167.77
  L 495.11 166.15
  A 0.70 0.70 0.0 0 0 493.78 166.27
  Q 493.25 168.51 494.40 170.59
  Q 495.49 172.57 495.70 173.35
  Q 496.33 175.69 498.80 179.33
  A 0.64 0.63 -20.3 0 1 498.34 180.31
  Q 495.17 180.64 495.24 181.89
  Q 493.92 184.97 493.39 185.75
  Q 492.57 186.98 490.81 187.99
  Q 488.70 186.59 488.91 184.99
  Q 491.51 165.62 493.65 146.33
  Q 495.55 144.17 498.20 144.03
  Q 501.44 143.87 501.73 143.82
  Q 505.25 143.21 508.58 141.56
  A 0.80 0.80 0.0 0 0 508.83 140.31
  L 508.16 139.54
  Q 503.71 135.47 500.64 132.14
  Q 499.25 130.62 500.15 129.12
  A 0.45 0.44 36.9 0 1 500.84 129.03
  L 510.24 137.80
  Z"
/>
<path fill="#544001" d="
  M 450.96 135.52
  L 449.46 135.30
  Q 450.32 135.25 450.96 135.52
  Z"
/>
<path fill="#161718" d="
  M 508.16 139.54
  L 508.83 140.31
  A 0.80 0.80 0.0 0 1 508.58 141.56
  Q 505.25 143.21 501.73 143.82
  Q 501.44 143.87 498.20 144.03
  Q 495.55 144.17 493.65 146.33
  Q 494.19 144.52 493.54 142.83
  C 496.03 143.95 496.59 141.54 498.69 141.34
  Q 500.37 141.18 499.79 138.34
  A 0.65 0.65 0.0 0 1 501.03 137.95
  L 502.02 140.26
  A 1.18 1.16 -0.5 0 0 502.66 140.88
  Q 505.65 142.05 508.16 139.54
  Z"
/>
<path fill="#544001" d="
  M 483.05 139.21
  L 481.19 139.13
  Q 482.31 138.54 483.05 139.21
  Z"
/>
<path fill="#af9308" d="
  M 151.52 139.83
  Q 153.21 142.88 156.23 145.33
  A 3.16 3.14 9.3 0 1 157.18 146.64
  L 158.12 149.10
  A 1.18 1.12 13.8 0 0 158.35 149.46
  L 187.46 179.49
  A 2.77 2.45 -86.5 0 1 187.75 179.86
  C 188.61 181.12 189.47 182.46 190.78 183.43
  Q 193.90 185.73 195.31 188.17
  A 3.96 3.96 0.0 0 0 196.32 189.33
  C 199.16 191.54 201.27 194.61 204.18 197.25
  Q 208.12 200.82 212.43 206.02
  Q 213.75 207.62 215.47 208.20
  Q 219.69 209.62 223.63 215.96
  L 220.62 219.32
  C 218.14 216.19 215.34 214.37 213.31 210.67
  A 0.36 0.36 0.0 0 1 213.88 210.24
  Q 216.68 213.10 218.28 214.27
  Q 218.64 214.53 218.98 214.17
  Q 219.28 213.85 219.13 213.54
  Q 217.33 209.76 213.31 208.50
  A 2.20 2.13 75.0 0 1 212.51 208.02
  Q 210.01 205.62 207.86 202.52
  A 4.59 3.95 89.9 0 0 207.28 201.85
  L 200.06 195.13
  A 0.09 0.03 73.2 0 0 200.04 195.10
  Q 198.50 192.44 196.01 190.86
  C 194.51 189.91 194.15 188.73 193.03 187.21
  A 3.60 3.48 -89.0 0 0 192.46 186.60
  L 188.29 183.14
  A 1.37 1.36 -83.4 0 1 187.93 182.68
  Q 186.90 180.48 185.11 179.45
  A 2.85 2.83 -3.3 0 1 184.22 178.66
  Q 181.18 174.50 177.15 171.26
  A 11.87 11.67 1.6 0 1 175.04 169.07
  Q 173.36 166.76 172.12 165.62
  Q 164.70 158.74 158.34 151.40
  C 157.29 150.18 155.37 144.40 152.26 144.89
  A 0.60 0.60 0.0 0 0 151.88 145.85
  L 154.14 148.73
  A 0.42 0.42 0.0 0 1 153.81 149.41
  Q 152.80 149.44 151.86 148.65
  A 1.51 1.47 -81.1 0 1 151.42 148.03
  Q 150.25 144.93 147.96 142.33
  L 151.52 139.83
  Z"
/>
<path fill="#656990" d="
  M 147.96 142.33
  Q 150.25 144.93 151.42 148.03
  A 1.51 1.47 -81.1 0 0 151.86 148.65
  Q 152.80 149.44 153.81 149.41
  A 0.42 0.42 0.0 0 0 154.14 148.73
  L 151.88 145.85
  A 0.60 0.60 0.0 0 1 152.26 144.89
  C 155.37 144.40 157.29 150.18 158.34 151.40
  Q 164.70 158.74 172.12 165.62
  Q 173.36 166.76 175.04 169.07
  A 11.87 11.67 1.6 0 0 177.15 171.26
  Q 181.18 174.50 184.22 178.66
  A 2.85 2.83 -3.3 0 0 185.11 179.45
  Q 186.90 180.48 187.93 182.68
  A 1.37 1.36 -83.4 0 0 188.29 183.14
  L 192.46 186.60
  A 3.60 3.48 -89.0 0 1 193.03 187.21
  C 194.15 188.73 194.51 189.91 196.01 190.86
  Q 198.50 192.44 200.04 195.10
  A 0.09 0.03 73.2 0 1 200.06 195.13
  L 207.28 201.85
  A 4.59 3.95 89.9 0 1 207.86 202.52
  Q 210.01 205.62 212.51 208.02
  A 2.20 2.13 75.0 0 0 213.31 208.50
  Q 217.33 209.76 219.13 213.54
  Q 219.28 213.85 218.98 214.17
  Q 218.64 214.53 218.28 214.27
  Q 216.68 213.10 213.88 210.24
  A 0.36 0.36 0.0 0 0 213.31 210.67
  C 215.34 214.37 218.14 216.19 220.62 219.32
  L 173.85 271.90
  L 166.73 265.41
  A 2.87 2.64 75.7 0 0 165.98 264.92
  L 163.11 263.62
  A 1.19 0.98 -5.4 0 1 162.86 263.45
  C 158.33 259.21 153.96 254.04 149.74 249.82
  Q 142.56 242.64 142.45 242.52
  Q 136.97 236.45 132.81 232.99
  Q 131.32 231.76 129.87 229.85
  Q 128.38 227.90 127.02 226.49
  Q 115.26 214.28 107.13 205.83
  C 103.81 202.39 99.27 198.74 96.85 195.28
  A 3.93 3.58 19.8 0 1 96.39 194.41
  Q 96.04 193.45 96.12 191.79
  A 1.01 1.01 0.0 0 0 95.68 190.90
  Q 91.55 188.09 88.98 183.96
  L 147.96 142.33
  Z
  M 151.9709 160.8573
  A 2.05 2.05 0.0 0 0 149.0748 160.7258
  L 148.4102 161.3327
  A 2.05 2.05 0.0 0 0 148.2787 164.2289
  L 152.7291 169.1027
  A 2.05 2.05 0.0 0 0 155.6252 169.2342
  L 156.2898 168.6273
  A 2.05 2.05 0.0 0 0 156.4213 165.7311
  L 151.9709 160.8573
  Z
  M 115.89 186.96
  A 1.35 1.35 0.0 0 0 113.98 186.93
  L 111.80 189.05
  A 1.61 1.61 0.0 0 0 111.76 191.33
  L 117.36 197.10
  A 1.54 1.54 0.0 0 0 119.08 197.45
  L 122.38 196.03
  A 1.22 1.22 0.0 0 0 122.78 194.06
  L 115.89 186.96
  Z
  M 140.40 200.89
  Q 141.79 203.47 144.28 205.49
  A 0.60 0.60 0.0 0 0 145.16 205.35
  L 145.25 205.22
  A 0.73 0.72 -57.2 0 0 145.04 204.22
  Q 142.97 202.86 142.38 200.40
  A 1.04 1.04 0.0 0 0 141.09 199.64
  L 140.91 199.68
  A 0.84 0.84 0.0 0 0 140.40 200.89
  Z
  M 151.60 206.32
  Q 147.25 207.80 144.67 210.26
  A 0.94 0.93 -28.4 0 0 144.40 211.15
  Q 144.67 212.34 146.26 212.91
  A 0.47 0.47 0.0 0 0 146.77 212.16
  Q 146.08 211.36 146.13 210.42
  A 0.68 0.68 0.0 0 1 146.93 209.79
  Q 150.54 210.44 151.96 206.69
  A 0.29 0.28 -89.4 0 0 151.60 206.32
  Z
  M 135.53 207.36
  A 0.65 0.65 0.0 0 0 134.54 206.59
  L 129.15 210.82
  A 0.63 0.63 0.0 0 0 129.13 211.80
  Q 132.40 214.49 136.39 214.15
  A 1.08 1.08 0.0 0 1 137.01 214.28
  L 141.20 216.53
  A 0.76 0.76 0.0 0 0 142.31 215.86
  L 142.31 214.23
  A 0.64 0.64 0.0 0 0 141.69 213.59
  Q 139.26 213.53 136.80 212.32
  A 1.51 1.47 55.3 0 0 135.98 212.16
  L 133.04 212.37
  A 0.86 0.85 -63.7 0 1 132.51 210.80
  Q 134.66 209.37 135.53 207.36
  Z
  M 197.1108 208.1252
  A 0.87 0.87 0.0 0 0 195.8805 208.1058
  L 193.8698 210.0544
  A 0.87 0.87 0.0 0 0 193.8505 211.2846
  L 199.8492 217.4748
  A 0.87 0.87 0.0 0 0 201.0795 217.4942
  L 203.0902 215.5456
  A 0.87 0.87 0.0 0 0 203.1095 214.3154
  L 197.1108 208.1252
  Z
  M 156.63 210.40
  L 159.02 210.62
  A 0.42 0.42 0.0 0 0 159.47 210.13
  Q 159.18 208.46 157.58 208.49
  Q 153.47 208.55 153.22 212.34
  A 1.08 1.06 25.6 0 0 153.51 213.14
  L 155.89 215.59
  A 0.55 0.53 -25.3 0 0 156.36 215.75
  L 161.45 215.05
  A 0.73 0.72 86.8 0 0 162.08 214.34
  Q 162.11 212.91 161.32 212.15
  A 0.66 0.66 0.0 0 0 160.42 212.13
  Q 158.58 213.78 157.47 214.10
  A 1.50 1.49 78.6 0 1 155.58 212.84
  Q 155.32 210.71 155.88 210.50
  A 1.85 1.75 35.9 0 1 156.63 210.40
  Z
  M 179.39 217.80
  A 0.37 0.37 0.0 0 0 178.82 217.65
  L 172.21 222.84
  A 1.21 1.21 0.0 0 0 171.75 223.83
  C 171.87 226.77 167.92 228.48 165.43 228.40
  A 0.54 0.54 0.0 0 0 164.87 228.94
  L 164.87 231.74
  A 0.62 0.61 64.0 0 0 165.97 232.12
  L 167.75 229.81
  A 1.64 1.62 -57.2 0 1 169.79 229.36
  Q 171.22 230.10 171.96 231.00
  A 0.90 0.89 -30.8 0 0 173.00 231.26
  L 175.65 230.12
  A 1.50 1.49 -5.2 0 0 176.52 229.08
  L 176.61 228.70
  A 0.43 0.42 83.4 0 0 176.01 228.22
  Q 174.17 229.15 172.43 228.55
  A 1.85 1.46 -45.8 0 1 172.74 225.55
  Q 174.18 224.73 174.86 224.40
  A 1.30 1.29 83.7 0 0 175.56 223.52
  L 176.11 221.15
  A 0.96 0.96 0.0 0 1 176.69 220.49
  Q 178.43 219.79 179.47 218.68
  A 0.47 0.46 -35.2 0 0 179.56 218.19
  L 179.39 217.80
  Z
  M 142.7774 236.2481
  A 2.58 1.14 -128.4 0 0 143.4866 238.9781
  A 2.58 1.14 -128.4 0 0 145.9826 240.2919
  A 2.58 1.14 -128.4 0 0 145.2734 237.5619
  A 2.58 1.14 -128.4 0 0 142.7774 236.2481
  Z
  M 172.72 247.37
  A 0.62 0.62 0.0 0 0 172.81 246.36
  Q 169.21 243.33 166.56 238.07
  A 0.17 0.16 -35.6 0 0 166.29 238.03
  L 162.21 242.53
  A 0.25 0.24 -42.1 0 0 162.19 242.84
  Q 165.67 247.49 170.12 250.56
  A 0.57 0.56 18.9 0 0 171.01 250.13
  Q 171.09 248.33 172.72 247.37
  Z
  M 177.22 257.85
  Q 175.47 260.36 172.71 259.86
  A 0.98 0.98 0.0 0 1 171.95 259.17
  Q 171.24 256.73 169.43 254.32
  A 0.30 0.28 73.2 0 0 169.22 254.20
  L 168.85 254.15
  A 0.41 0.41 0.0 0 0 168.44 254.73
  C 169.57 257.14 170.49 260.53 173.27 261.74
  A 1.86 1.70 26.5 0 0 175.55 261.09
  Q 176.77 258.99 179.33 260.13
  A 0.58 0.57 89.5 0 0 180.08 259.36
  Q 179.03 257.04 177.84 257.40
  A 1.25 1.20 -79.8 0 0 177.22 257.85
  Z"
/>
<rect fill="#878bab" x="-4.96" y="-2.03" transform="translate(174.09,147.93) rotate(40.8)" width="9.92" height="4.06" rx="1.34"/>
<path fill="#544001" d="
  M 507.20 179.51
  L 506.90 180.44
  Q 506.47 179.45 505.04 179.63
  Q 499.75 180.30 495.24 181.89
  Q 495.17 180.64 498.34 180.31
  A 0.64 0.63 -20.3 0 0 498.80 179.33
  Q 496.33 175.69 495.70 173.35
  Q 495.49 172.57 494.40 170.59
  Q 493.25 168.51 493.78 166.27
  A 0.70 0.70 0.0 0 1 495.11 166.15
  L 495.81 167.77
  A 0.85 0.78 -82.2 0 0 496.01 168.06
  L 500.20 171.86
  A 0.43 0.42 -77.4 0 0 500.89 171.42
  C 499.33 166.22 494.49 162.72 495.17 156.65
  A 0.84 0.84 0.0 0 1 496.36 155.98
  L 500.76 158.02
  A 0.88 0.87 9.5 0 1 501.27 158.73
  C 501.59 162.16 501.69 164.51 504.38 167.03
  A 0.62 0.62 0.0 0 0 505.39 166.39
  Q 504.24 162.92 504.17 160.31
  Q 504.10 157.53 503.31 156.60
  C 502.15 155.24 501.58 152.78 501.26 151.20
  A 0.55 0.55 0.0 0 1 502.19 150.71
  L 505.19 153.81
  A 0.30 0.30 0.0 0 0 505.69 153.69
  L 506.81 150.36
  A 0.70 0.70 0.0 0 1 508.17 150.68
  Q 507.48 155.57 507.68 157.53
  Q 508.01 160.61 507.12 163.65
  Q 506.39 166.17 506.06 174.57
  Q 505.94 177.68 507.20 179.51
  Z"
/>
<path fill="#878bab" d="
  M 253.13 150.45
  A 0.65 0.65 0.0 0 1 254.04 150.58
  L 256.62 154.07
  A 4.17 1.32 53.4 0 1 258.05 158.20
  L 257.79 158.39
  A 4.17 1.32 53.4 0 1 254.25 155.83
  L 251.66 152.35
  A 0.65 0.65 0.0 0 1 251.79 151.44
  L 253.13 150.45
  Z"
/>
<path fill="#2b5069" d="
  M 280.64 152.38
  Q 288.65 152.85 295.86 155.32
  A 0.71 0.71 0.0 0 1 296.33 155.96
  L 296.80 167.35
  L 295.51 190.73
  L 286.51 189.37
  Q 287.15 189.17 286.79 188.74
  Q 286.32 188.16 285.58 188.09
  Q 275.39 187.06 266.43 185.19
  Q 263.72 184.62 261.98 185.33
  L 254.18 183.79
  L 254.39 181.37
  L 270.84 163.27
  L 280.64 152.38
  Z"
/>
<rect fill="#878bab" x="-2.50" y="-5.35" transform="translate(152.35,164.98) rotate(-42.4)" width="5.00" height="10.70" rx="2.05"/>
<rect fill="#878bab" x="-4.91" y="-1.82" transform="translate(240.59,169.24) rotate(44.7)" width="9.82" height="3.64" rx="1.65"/>
<path fill="#161718" d="
  M 309.23 177.87
  Q 308.11 180.00 305.79 180.98
  C 304.93 178.19 306.50 176.71 309.23 177.87
  Z"
/>
<path fill="#161718" d="
  M 506.90 180.44
  Q 506.75 181.55 506.04 182.21
  Q 505.28 181.67 504.51 182.33
  Q 501.28 185.08 498.37 189.16
  Q 497.90 191.96 498.51 194.16
  L 497.62 195.32
  L 490.81 187.99
  Q 492.57 186.98 493.39 185.75
  Q 493.92 184.97 495.24 181.89
  Q 499.75 180.30 505.04 179.63
  Q 506.47 179.45 506.90 180.44
  Z"
/>
<path fill="#af9308" d="
  M 506.04 182.21
  Q 503.92 186.19 503.32 190.65
  A 3.28 3.21 66.1 0 1 502.82 191.99
  Q 501.56 193.88 499.74 195.72
  Q 499.20 196.26 498.61 196.12
  Q 498.06 195.98 497.62 195.32
  L 498.51 194.16
  Q 499.47 192.44 501.15 191.15
  Q 502.31 190.25 501.72 189.37
  A 1.23 1.13 -55.4 0 0 499.63 189.84
  Q 499.48 190.36 499.31 191.42
  A 0.42 0.42 0.0 0 1 498.48 191.37
  L 498.37 189.16
  Q 501.28 185.08 504.51 182.33
  Q 505.28 181.67 506.04 182.21
  Z"
/>
<path fill="#544001" d="
  M 313.64 182.53
  Q 313.75 182.82 313.67 183.21
  Q 313.60 182.93 313.64 182.53
  Z"
/>
<path fill="#c5c4c2" d="
  M 88.98 183.96
  Q 91.55 188.09 95.68 190.90
  A 1.01 1.01 0.0 0 1 96.12 191.79
  Q 96.04 193.45 96.39 194.41
  A 3.93 3.58 19.8 0 0 96.85 195.28
  C 99.27 198.74 103.81 202.39 107.13 205.83
  Q 115.26 214.28 127.02 226.49
  Q 128.38 227.90 129.87 229.85
  Q 131.32 231.76 132.81 232.99
  Q 136.97 236.45 142.45 242.52
  Q 142.56 242.64 149.74 249.82
  C 153.96 254.04 158.33 259.21 162.86 263.45
  A 1.19 0.98 -5.4 0 0 163.11 263.62
  L 165.98 264.92
  A 2.87 2.64 75.7 0 1 166.73 265.41
  L 173.85 271.90
  Q 173.50 272.62 172.18 273.63
  Q 170.47 272.60 169.25 270.55
  A 0.38 0.26 16.1 0 0 169.16 270.44
  L 163.35 265.01
  A 0.22 0.21 79.3 0 0 163.25 264.94
  C 161.98 264.52 160.65 264.27 159.58 262.72
  C 158.33 260.90 155.55 257.26 153.47 256.64
  A 2.00 1.94 -13.6 0 1 152.67 256.17
  L 143.35 246.87
  L 130.92 233.73
  A 0.48 0.44 68.4 0 0 130.61 233.58
  Q 130.47 233.57 130.35 233.53
  A 1.34 1.32 -10.3 0 1 129.60 233.02
  Q 126.70 228.93 122.62 225.28
  Q 121.78 224.52 120.61 223.14
  Q 118.65 220.84 117.70 220.61
  Q 117.07 220.46 114.31 216.42
  A 5.10 4.88 5.8 0 0 113.62 215.61
  C 106.91 209.36 101.14 202.85 95.28 197.14
  A 0.84 0.62 35.7 0 0 94.04 197.16
  Q 93.91 197.52 93.09 197.40
  A 0.81 0.77 -16.8 0 1 92.65 197.18
  L 83.19 188.12
  L 88.98 183.96
  Z"
/>
<path fill="#544001" d="
  M 286.51 189.37
  L 284.30 193.99
  A 1.08 1.05 -44.3 0 0 284.28 194.87
  L 285.00 196.51
  Q 284.38 197.31 283.49 196.60
  Q 281.33 194.87 279.24 193.25
  Q 278.72 192.84 275.96 192.68
  A 1.41 1.40 -19.2 0 1 274.98 192.21
  C 272.94 189.92 269.11 191.16 266.43 192.13
  A 1.71 1.64 -46.2 0 1 265.45 192.17
  Q 263.53 191.66 262.26 189.90
  Q 263.54 186.90 261.98 185.33
  Q 263.72 184.62 266.43 185.19
  Q 275.39 187.06 285.58 188.09
  Q 286.32 188.16 286.79 188.74
  Q 287.15 189.17 286.51 189.37
  Z"
/>
<path fill="#878bab" d="
  M 115.89 186.96
  L 122.78 194.06
  A 1.22 1.22 0.0 0 1 122.38 196.03
  L 119.08 197.45
  A 1.54 1.54 0.0 0 1 117.36 197.10
  L 111.76 191.33
  A 1.61 1.61 0.0 0 1 111.80 189.05
  L 113.98 186.93
  A 1.35 1.35 0.0 0 1 115.89 186.96
  Z"
/>
<path fill="#656990" d="
  M 83.19 188.12
  L 92.65 197.18
  A 0.81 0.77 -16.8 0 0 93.09 197.40
  Q 93.91 197.52 94.04 197.16
  A 0.84 0.62 35.7 0 1 95.28 197.14
  C 101.14 202.85 106.91 209.36 113.62 215.61
  A 5.10 4.88 5.8 0 1 114.31 216.42
  Q 117.07 220.46 117.70 220.61
  Q 118.65 220.84 120.61 223.14
  Q 121.78 224.52 122.62 225.28
  Q 126.70 228.93 129.60 233.02
  A 1.34 1.32 -10.3 0 0 130.35 233.53
  Q 130.47 233.57 130.61 233.58
  A 0.48 0.44 68.4 0 1 130.92 233.73
  L 143.35 246.87
  L 136.21 247.92
  A 1.10 1.08 -79.9 0 0 135.41 248.49
  Q 133.60 251.91 130.68 253.99
  A 1.22 1.21 81.6 0 1 128.83 252.61
  L 129.54 250.52
  A 1.01 1.01 0.0 0 0 128.70 249.20
  L 126.04 248.88
  A 0.96 0.95 -76.4 0 0 125.02 249.51
  Q 124.62 250.62 124.51 252.04
  Q 124.38 253.76 120.99 252.81
  A 0.75 0.75 0.0 0 0 120.05 253.64
  L 120.29 255.39
  A 0.26 0.25 86.0 0 1 120.04 255.68
  L 119.71 255.68
  A 0.35 0.34 -5.0 0 1 119.37 255.40
  Q 118.32 249.40 114.08 245.89
  A 0.37 0.37 0.0 0 0 113.49 246.31
  Q 115.77 252.24 115.56 259.70
  A 0.46 0.46 0.0 0 1 114.82 260.06
  Q 108.44 255.28 104.91 252.75
  Q 103.84 251.99 104.02 251.69
  A 1.56 1.31 7.3 0 0 102.24 249.76
  Q 101.93 249.81 98.79 250.34
  A 1.90 1.90 0.0 0 1 96.61 248.13
  Q 97.07 245.53 94.93 243.68
  A 1.00 0.98 -29.2 0 0 94.09 243.45
  C 92.78 243.70 92.11 243.59 90.88 242.51
  Q 88.96 240.82 86.95 241.72
  A 0.82 0.82 0.0 0 1 86.12 241.63
  L 84.16 240.11
  A 1.32 1.31 66.5 0 0 83.51 239.85
  Q 82.27 239.72 81.58 240.53
  A 0.70 0.70 0.0 0 1 80.61 240.63
  L 77.14 237.96
  A 0.86 0.86 0.0 0 0 76.01 238.02
  L 70.34 243.52
  A 0.81 0.81 0.0 0 1 68.97 242.84
  L 69.54 238.13
  A 1.30 1.30 0.0 0 0 69.04 236.94
  L 67.95 236.10
  A 0.64 0.64 0.0 0 0 66.95 236.40
  L 65.67 240.21
  A 0.98 0.98 0.0 0 1 64.83 240.88
  Q 60.35 241.37 57.17 238.89
  A 0.83 0.83 0.0 0 1 57.45 237.44
  L 60.44 236.56
  A 0.24 0.24 0.0 0 0 60.59 236.22
  L 60.59 236.21
  A 0.24 0.23 -22.5 0 0 60.29 236.09
  L 58.19 236.95
  A 0.50 0.50 0.0 0 1 57.66 236.13
  L 60.68 233.20
  A 0.95 0.94 -39.4 0 0 60.80 231.98
  Q 59.14 229.56 59.00 226.26
  A 0.36 0.36 0.0 0 0 58.36 226.05
  L 53.87 231.86
  A 1.07 1.07 0.0 0 1 51.96 231.35
  L 51.27 226.35
  A 0.54 0.54 0.0 0 0 50.52 225.93
  L 49.36 226.43
  A 0.67 0.66 -15.6 0 0 48.96 227.13
  L 50.31 236.85
  A 0.22 0.22 0.0 0 1 50.12 237.10
  L 49.76 237.15
  A 0.34 0.34 0.0 0 0 49.48 237.57
  Q 49.73 238.41 48.33 238.85
  A 0.56 0.55 -34.8 0 1 47.82 238.76
  L 43.10 235.11
  A 0.88 0.86 -26.2 0 0 42.58 234.94
  L 36.09 234.94
  A 0.35 0.35 0.0 0 1 35.74 234.55
  L 36.46 228.61
  A 1.00 1.00 0.0 0 0 35.79 227.55
  L 34.98 227.28
  A 0.86 0.86 0.0 0 0 33.85 228.02
  Q 33.08 236.79 35.10 245.81
  A 1.13 1.10 -33.9 0 1 34.92 246.68
  L 33.25 249.05
  L 32.77 249.16
  A 0.79 0.78 56.8 0 1 32.08 249.01
  L 28.12 245.96
  A 2.82 2.71 3.6 0 1 27.47 245.25
  L 25.05 241.53
  A 1.10 1.05 -64.7 0 1 24.88 241.02
  C 24.74 238.86 26.64 236.87 28.47 235.80
  A 0.83 0.83 0.0 0 0 28.87 234.98
  L 27.88 227.11
  L 83.19 188.12
  Z
  M 64.75 210.88
  L 67.73 208.67
  A 0.16 0.16 0.0 0 0 67.77 208.44
  L 67.71 208.37
  A 1.85 1.33 -36.6 0 0 65.44 208.40
  L 65.16 208.61
  A 1.85 1.33 -36.6 0 0 64.47 210.78
  L 64.52 210.85
  A 0.16 0.16 0.0 0 0 64.75 210.88
  Z
  M 72.77 208.82
  Q 72.92 211.86 76.94 214.78
  A 0.79 0.78 -50.7 0 0 77.99 214.67
  L 78.34 214.28
  A 0.43 0.42 -55.5 0 0 78.22 213.61
  Q 75.32 212.15 73.44 208.63
  A 0.36 0.36 0.0 0 0 72.77 208.82
  Z
  M 81.70 211.94
  A 1.11 1.11 0.0 0 0 81.59 213.58
  L 88.48 220.69
  A 1.11 1.11 0.0 0 0 89.97 220.79
  L 93.13 218.31
  A 1.11 1.11 0.0 0 0 93.24 216.66
  L 86.36 209.55
  A 1.11 1.11 0.0 0 0 84.87 209.45
  L 81.70 211.94
  Z
  M 69.33 215.02
  Q 71.04 215.51 73.04 216.49
  A 0.33 0.33 0.0 0 0 73.47 216.04
  Q 72.75 214.65 71.90 213.92
  A 2.07 2.06 -17.3 0 0 71.05 213.48
  Q 70.40 213.32 69.76 213.14
  Q 68.05 212.64 66.06 211.67
  A 0.33 0.33 0.0 0 0 65.63 212.11
  Q 66.35 213.50 67.20 214.23
  A 2.07 2.06 -17.3 0 0 68.04 214.67
  Q 68.70 214.83 69.33 215.02
  Z
  M 127.52 243.74
  L 126.78 244.76
  A 0.18 0.18 0.0 0 0 126.82 245.01
  L 130.54 247.71
  A 3.33 0.69 36.0 0 0 133.64 249.11
  L 133.78 248.91
  A 3.33 0.69 36.0 0 0 131.49 246.40
  L 127.78 243.70
  A 0.18 0.18 0.0 0 0 127.52 243.74
  Z"
/>
<rect fill="#878bab" x="-4.96" y="-2.24" transform="translate(217.49,193.22) rotate(42.9)" width="9.92" height="4.48" rx="1.09"/>
<path fill="#544001" d="
  M 498.51 194.16
  Q 497.90 191.96 498.37 189.16
  L 498.48 191.37
  A 0.42 0.42 0.0 0 0 499.31 191.42
  Q 499.48 190.36 499.63 189.84
  A 1.23 1.13 -55.4 0 1 501.72 189.37
  Q 502.31 190.25 501.15 191.15
  Q 499.47 192.44 498.51 194.16
  Z"
/>
<path fill="#544001" d="
  M 300.65 189.71
  L 300.63 191.03
  Q 300.49 190.31 300.65 189.71
  Z"
/>
<path fill="#161718" d="
  M 262.26 189.90
  Q 263.53 191.66 265.45 192.17
  A 1.71 1.64 -46.2 0 0 266.43 192.13
  C 269.11 191.16 272.94 189.92 274.98 192.21
  A 1.41 1.40 -19.2 0 0 275.96 192.68
  Q 278.72 192.84 279.24 193.25
  Q 281.33 194.87 283.49 196.60
  Q 284.38 197.31 285.00 196.51
  L 286.41 198.74
  L 284.59 199.58
  A 3.06 2.89 -59.7 0 1 283.74 199.83
  L 275.98 200.81
  Q 272.17 200.83 269.96 202.44
  Q 266.78 204.74 264.85 204.84
  Q 263.46 205.14 263.71 205.71
  Q 264.03 206.42 264.63 207.24
  L 262.56 219.03
  A 0.61 0.60 11.6 0 0 263.02 219.72
  C 266.76 220.59 269.74 220.30 273.91 219.61
  A 0.74 0.73 -25.2 0 1 274.59 219.85
  Q 275.20 220.55 274.66 221.57
  Q 269.58 223.56 264.01 223.69
  Q 262.99 223.71 262.64 223.00
  A 0.72 0.70 -8.1 0 0 262.12 222.62
  C 260.91 222.42 259.61 223.08 258.59 222.85
  Q 256.79 222.44 255.78 221.73
  Q 252.96 219.73 249.92 217.60
  Q 244.69 204.47 254.11 195.64
  C 256.32 193.58 259.51 191.82 262.26 189.90
  Z"
/>
<path fill="#af9308" d="
  M 286.41 198.74
  Q 287.88 205.16 286.91 211.70
  A 4.14 4.10 -28.3 0 1 286.56 212.85
  Q 284.23 217.79 279.84 221.03
  Q 269.27 228.85 257.49 224.52
  Q 252.84 222.82 249.92 217.60
  Q 252.96 219.73 255.78 221.73
  Q 256.79 222.44 258.59 222.85
  C 259.61 223.08 260.91 222.42 262.12 222.62
  A 0.72 0.70 -8.1 0 1 262.64 223.00
  Q 262.99 223.71 264.01 223.69
  Q 269.58 223.56 274.66 221.57
  Q 277.68 220.59 279.45 218.57
  A 2.86 2.85 4.9 0 1 280.20 217.94
  Q 283.23 216.15 284.62 213.61
  A 0.87 0.87 0.0 0 0 283.91 212.33
  Q 283.10 212.28 283.08 212.27
  A 1.24 1.22 37.4 0 1 282.75 209.95
  Q 283.25 209.71 282.85 208.88
  C 281.48 206.05 280.10 204.83 277.02 203.28
  Q 274.64 202.08 275.98 200.81
  L 283.74 199.83
  A 3.06 2.89 -59.7 0 0 284.59 199.58
  L 286.41 198.74
  Z"
/>
<path fill="#878bab" d="
  M 140.40 200.89
  A 0.84 0.84 0.0 0 1 140.91 199.68
  L 141.09 199.64
  A 1.04 1.04 0.0 0 1 142.38 200.40
  Q 142.97 202.86 145.04 204.22
  A 0.73 0.72 -57.2 0 1 145.25 205.22
  L 145.16 205.35
  A 0.60 0.60 0.0 0 1 144.28 205.49
  Q 141.79 203.47 140.40 200.89
  Z"
/>
<path fill="#544001" d="
  M 300.40 199.96
  L 300.44 201.09
  Q 300.27 200.52 300.40 199.96
  Z"
/>
<path fill="#544001" d="
  M 275.98 200.81
  Q 274.64 202.08 277.02 203.28
  C 280.10 204.83 281.48 206.05 282.85 208.88
  Q 283.25 209.71 282.75 209.95
  A 1.24 1.22 37.4 0 0 283.08 212.27
  Q 283.10 212.28 283.91 212.33
  A 0.87 0.87 0.0 0 1 284.62 213.61
  Q 283.23 216.15 280.20 217.94
  A 2.86 2.85 4.9 0 0 279.45 218.57
  Q 277.68 220.59 274.66 221.57
  Q 275.20 220.55 274.59 219.85
  A 0.74 0.73 -25.2 0 0 273.91 219.61
  C 269.74 220.30 266.76 220.59 263.02 219.72
  A 0.61 0.60 11.6 0 1 262.56 219.03
  L 264.63 207.24
  Q 265.66 209.70 268.19 210.33
  A 0.33 0.33 0.0 0 0 268.59 209.94
  Q 267.85 206.29 264.85 204.84
  Q 266.78 204.74 269.96 202.44
  Q 272.17 200.83 275.98 200.81
  Z
  M 272.58 209.32
  Q 275.10 213.22 278.55 217.03
  A 0.90 0.80 37.0 0 0 279.98 216.92
  Q 280.48 215.74 279.72 214.81
  C 277.21 211.75 275.52 208.80 272.94 208.69
  A 0.41 0.41 0.0 0 0 272.58 209.32
  Z
  M 264.3665 210.7140
  A 2.91 1.31 -104.6 0 0 263.8323 213.8602
  A 2.91 1.31 -104.6 0 0 265.8335 216.3460
  A 2.91 1.31 -104.6 0 0 266.3677 213.1998
  A 2.91 1.31 -104.6 0 0 264.3665 210.7140
  Z"
/>
<path fill="#af9308" d="
  M 264.85 204.84
  Q 267.85 206.29 268.59 209.94
  A 0.33 0.33 0.0 0 1 268.19 210.33
  Q 265.66 209.70 264.63 207.24
  Q 264.03 206.42 263.71 205.71
  Q 263.46 205.14 264.85 204.84
  Z"
/>
<path fill="#878bab" d="
  M 151.96 206.69
  Q 150.54 210.44 146.93 209.79
  A 0.68 0.68 0.0 0 0 146.13 210.42
  Q 146.08 211.36 146.77 212.16
  A 0.47 0.47 0.0 0 1 146.26 212.91
  Q 144.67 212.34 144.40 211.15
  A 0.94 0.93 -28.4 0 1 144.67 210.26
  Q 147.25 207.80 151.60 206.32
  A 0.29 0.28 -89.4 0 1 151.96 206.69
  Z"
/>
<path fill="#878bab" d="
  M 135.53 207.36
  Q 134.66 209.37 132.51 210.80
  A 0.86 0.85 -63.7 0 0 133.04 212.37
  L 135.98 212.16
  A 1.51 1.47 55.3 0 1 136.80 212.32
  Q 139.26 213.53 141.69 213.59
  A 0.64 0.64 0.0 0 1 142.31 214.23
  L 142.31 215.86
  A 0.76 0.76 0.0 0 1 141.20 216.53
  L 137.01 214.28
  A 1.08 1.08 0.0 0 0 136.39 214.15
  Q 132.40 214.49 129.13 211.80
  A 0.63 0.63 0.0 0 1 129.15 210.82
  L 134.54 206.59
  A 0.65 0.65 0.0 0 1 135.53 207.36
  Z"
/>
<rect fill="#878bab" x="-2.27" y="-5.18" transform="translate(198.48,212.80) rotate(-44.1)" width="4.54" height="10.36" rx="0.87"/>
<path fill="#878bab" d="
  M 64.75 210.88
  A 0.16 0.16 0.0 0 1 64.52 210.85
  L 64.47 210.78
  A 1.85 1.33 -36.6 0 1 65.16 208.61
  L 65.44 208.40
  A 1.85 1.33 -36.6 0 1 67.71 208.37
  L 67.77 208.44
  A 0.16 0.16 0.0 0 1 67.73 208.67
  L 64.75 210.88
  Z"
/>
<path fill="#878bab" d="
  M 72.77 208.82
  A 0.36 0.36 0.0 0 1 73.44 208.63
  Q 75.32 212.15 78.22 213.61
  A 0.43 0.42 -55.5 0 1 78.34 214.28
  L 77.99 214.67
  A 0.79 0.78 -50.7 0 1 76.94 214.78
  Q 72.92 211.86 72.77 208.82
  Z"
/>
<path fill="#878bab" d="
  M 155.88 210.50
  Q 155.32 210.71 155.58 212.84
  A 1.50 1.49 78.6 0 0 157.47 214.10
  Q 158.58 213.78 160.42 212.13
  A 0.66 0.66 0.0 0 1 161.32 212.15
  Q 162.11 212.91 162.08 214.34
  A 0.73 0.72 86.8 0 1 161.45 215.05
  L 156.36 215.75
  A 0.55 0.53 -25.3 0 1 155.89 215.59
  L 153.51 213.14
  A 1.08 1.06 25.6 0 1 153.22 212.34
  Q 153.47 208.55 157.58 208.49
  Q 159.18 208.46 159.47 210.13
  A 0.42 0.42 0.0 0 1 159.02 210.62
  L 156.63 210.40
  A 1.85 1.75 35.9 0 0 155.88 210.50
  Z"
/>
<path fill="#af9308" d="
  M 272.94 208.69
  C 275.52 208.80 277.21 211.75 279.72 214.81
  Q 280.48 215.74 279.98 216.92
  A 0.90 0.80 37.0 0 1 278.55 217.03
  Q 275.10 213.22 272.58 209.32
  A 0.41 0.41 0.0 0 1 272.94 208.69
  Z"
/>
<path fill="#c5c4c2" d="
  M 81.70 211.94
  L 84.87 209.45
  A 1.11 1.11 0.0 0 1 86.36 209.55
  L 93.24 216.66
  A 1.11 1.11 0.0 0 1 93.13 218.31
  L 89.97 220.79
  A 1.11 1.11 0.0 0 1 88.48 220.69
  L 81.59 213.58
  A 1.11 1.11 0.0 0 1 81.70 211.94
  Z
  M 86.3986 214.3985
  A 1.93 1.06 -143.0 0 0 87.3021 216.4066
  A 1.93 1.06 -143.0 0 0 89.4814 216.7215
  A 1.93 1.06 -143.0 0 0 88.5779 214.7134
  A 1.93 1.06 -143.0 0 0 86.3986 214.3985
  Z"
/>
<ellipse fill="#af9308" cx="0.00" cy="0.00" transform="translate(265.10,213.53) rotate(-104.6)" rx="2.91" ry="1.31"/>
<path fill="#878bab" d="
  M 69.76 213.14
  Q 70.40 213.32 71.05 213.48
  A 2.07 2.06 -17.3 0 1 71.90 213.92
  Q 72.75 214.65 73.47 216.04
  A 0.33 0.33 0.0 0 1 73.04 216.49
  Q 71.04 215.51 69.33 215.02
  Q 68.70 214.83 68.04 214.67
  A 2.07 2.06 -17.3 0 1 67.20 214.23
  Q 66.35 213.50 65.63 212.11
  A 0.33 0.33 0.0 0 1 66.06 211.67
  Q 68.05 212.64 69.76 213.14
  Z"
/>
<ellipse fill="#878bab" cx="0.00" cy="0.00" transform="translate(87.94,215.56) rotate(-143.0)" rx="1.93" ry="1.06"/>
<path fill="#878bab" d="
  M 179.47 218.68
  Q 178.43 219.79 176.69 220.49
  A 0.96 0.96 0.0 0 0 176.11 221.15
  L 175.56 223.52
  A 1.30 1.29 83.7 0 1 174.86 224.40
  Q 174.18 224.73 172.74 225.55
  A 1.85 1.46 -45.8 0 0 172.43 228.55
  Q 174.17 229.15 176.01 228.22
  A 0.43 0.42 83.4 0 1 176.61 228.70
  L 176.52 229.08
  A 1.50 1.49 -5.2 0 1 175.65 230.12
  L 173.00 231.26
  A 0.90 0.89 -30.8 0 1 171.96 231.00
  Q 171.22 230.10 169.79 229.36
  A 1.64 1.62 -57.2 0 0 167.75 229.81
  L 165.97 232.12
  A 0.62 0.61 64.0 0 1 164.87 231.74
  L 164.87 228.94
  A 0.54 0.54 0.0 0 1 165.43 228.40
  C 167.92 228.48 171.87 226.77 171.75 223.83
  A 1.21 1.21 0.0 0 1 172.21 222.84
  L 178.82 217.65
  A 0.37 0.37 0.0 0 1 179.39 217.80
  L 179.56 218.19
  A 0.47 0.46 -35.2 0 1 179.47 218.68
  Z"
/>
<path fill="#878bab" d="
  M 143.35 246.87
  L 152.67 256.17
  A 2.00 1.94 -13.6 0 0 153.47 256.64
  C 155.55 257.26 158.33 260.90 159.58 262.72
  C 160.65 264.27 161.98 264.52 163.25 264.94
  A 0.22 0.21 79.3 0 1 163.35 265.01
  L 169.16 270.44
  A 0.38 0.26 16.1 0 1 169.25 270.55
  Q 170.47 272.60 172.18 273.63
  Q 171.66 274.52 170.67 275.36
  L 162.71 267.50
  A 0.61 0.59 37.0 0 0 161.75 267.62
  L 161.65 267.85
  A 1.32 1.30 -52.6 0 0 161.82 269.18
  L 164.08 272.01
  A 1.02 0.90 82.1 0 0 164.36 272.25
  Q 167.46 274.01 169.25 277.10
  L 99.60 355.57
  Q 96.21 352.63 94.79 348.72
  A 2.27 2.22 12.9 0 0 94.27 347.91
  C 79.68 333.74 67.67 320.92 51.11 304.15
  Q 29.17 281.92 9.65 261.85
  Q 3.39 255.41 0.00 251.21
  L 0.00 247.13
  L 27.88 227.11
  L 28.87 234.98
  A 0.83 0.83 0.0 0 1 28.47 235.80
  C 26.64 236.87 24.74 238.86 24.88 241.02
  A 1.10 1.05 -64.7 0 0 25.05 241.53
  L 27.47 245.25
  A 2.82 2.71 3.6 0 0 28.12 245.96
  L 32.08 249.01
  A 0.79 0.78 56.8 0 0 32.77 249.16
  L 33.25 249.05
  Q 32.49 250.42 30.94 250.16
  A 0.60 0.60 0.0 0 0 30.36 251.11
  Q 34.08 256.12 38.80 259.99
  A 1.33 1.33 0.0 0 0 40.57 259.91
  L 45.91 254.75
  A 0.61 0.61 0.0 0 0 45.51 253.70
  C 43.28 253.59 42.44 253.48 41.01 252.00
  Q 39.43 250.34 36.75 247.64
  A 1.26 1.25 47.8 0 0 35.06 247.55
  L 33.25 249.05
  L 34.92 246.68
  A 1.13 1.10 -33.9 0 0 35.10 245.81
  Q 33.08 236.79 33.85 228.02
  A 0.86 0.86 0.0 0 1 34.98 227.28
  L 35.79 227.55
  A 1.00 1.00 0.0 0 1 36.46 228.61
  L 35.74 234.55
  A 0.35 0.35 0.0 0 0 36.09 234.94
  L 42.58 234.94
  A 0.88 0.86 -26.2 0 1 43.10 235.11
  L 47.82 238.76
  A 0.56 0.55 -34.8 0 0 48.33 238.85
  Q 49.73 238.41 49.48 237.57
  A 0.34 0.34 0.0 0 1 49.76 237.15
  L 50.12 237.10
  A 0.22 0.22 0.0 0 0 50.31 236.85
  L 48.96 227.13
  A 0.67 0.66 -15.6 0 1 49.36 226.43
  L 50.52 225.93
  A 0.54 0.54 0.0 0 1 51.27 226.35
  L 51.96 231.35
  A 1.07 1.07 0.0 0 0 53.87 231.86
  L 58.36 226.05
  A 0.36 0.36 0.0 0 1 59.00 226.26
  Q 59.14 229.56 60.80 231.98
  A 0.95 0.94 -39.4 0 1 60.68 233.20
  L 57.66 236.13
  A 0.50 0.50 0.0 0 0 58.19 236.95
  L 60.29 236.09
  A 0.24 0.23 -22.5 0 1 60.59 236.21
  L 60.59 236.22
  A 0.24 0.24 0.0 0 1 60.44 236.56
  L 57.45 237.44
  A 0.83 0.83 0.0 0 0 57.17 238.89
  Q 60.35 241.37 64.83 240.88
  A 0.98 0.98 0.0 0 0 65.67 240.21
  L 66.95 236.40
  A 0.64 0.64 0.0 0 1 67.95 236.10
  L 69.04 236.94
  A 1.30 1.30 0.0 0 1 69.54 238.13
  L 68.97 242.84
  A 0.81 0.81 0.0 0 0 70.34 243.52
  L 76.01 238.02
  A 0.86 0.86 0.0 0 1 77.14 237.96
  L 80.61 240.63
  A 0.70 0.70 0.0 0 0 81.58 240.53
  Q 82.27 239.72 83.51 239.85
  A 1.32 1.31 66.5 0 1 84.16 240.11
  L 86.12 241.63
  A 0.82 0.82 0.0 0 0 86.95 241.72
  Q 88.96 240.82 90.88 242.51
  C 92.11 243.59 92.78 243.70 94.09 243.45
  A 1.00 0.98 -29.2 0 1 94.93 243.68
  Q 97.07 245.53 96.61 248.13
  A 1.90 1.90 0.0 0 0 98.79 250.34
  Q 101.93 249.81 102.24 249.76
  A 1.56 1.31 7.3 0 1 104.02 251.69
  Q 103.84 251.99 104.91 252.75
  Q 108.44 255.28 114.82 260.06
  A 0.46 0.46 0.0 0 0 115.56 259.70
  Q 115.77 252.24 113.49 246.31
  A 0.37 0.37 0.0 0 1 114.08 245.89
  Q 118.32 249.40 119.37 255.40
  A 0.35 0.34 -5.0 0 0 119.71 255.68
  L 120.04 255.68
  A 0.26 0.25 86.0 0 0 120.29 255.39
  L 120.05 253.64
  A 0.75 0.75 0.0 0 1 120.99 252.81
  Q 124.38 253.76 124.51 252.04
  Q 124.62 250.62 125.02 249.51
  A 0.96 0.95 -76.4 0 1 126.04 248.88
  L 128.70 249.20
  A 1.01 1.01 0.0 0 1 129.54 250.52
  L 128.83 252.61
  A 1.22 1.21 81.6 0 0 130.68 253.99
  Q 133.60 251.91 135.41 248.49
  A 1.10 1.08 -79.9 0 1 136.21 247.92
  L 143.35 246.87
  Z
  M 138.97 266.27
  L 136.16 267.89
  A 1.63 1.63 0.0 0 0 135.88 270.51
  L 143.67 277.59
  A 0.34 0.33 -50.6 0 0 144.16 277.54
  L 147.59 273.11
  A 0.27 0.27 0.0 0 0 147.57 272.77
  L 141.62 266.64
  A 2.17 2.17 0.0 0 0 138.97 266.27
  Z
  M 103.99 316.17
  C 101.07 314.59 99.81 312.34 97.64 310.25
  A 1.11 1.10 -45.2 0 0 96.10 310.26
  L 92.56 313.69
  A 1.00 0.99 46.0 0 0 92.54 315.10
  L 99.20 321.97
  A 1.37 1.36 41.8 0 0 101.26 321.86
  L 104.35 317.86
  A 1.13 1.13 0.0 0 0 103.99 316.17
  Z"
/>
<ellipse fill="#878bab" cx="0.00" cy="0.00" transform="translate(144.38,238.27) rotate(-128.4)" rx="2.58" ry="1.14"/>
<path fill="#c5c4c2" d="
  M 172.72 247.37
  Q 171.09 248.33 171.01 250.13
  A 0.57 0.56 18.9 0 1 170.12 250.56
  Q 165.67 247.49 162.19 242.84
  A 0.25 0.24 -42.1 0 1 162.21 242.53
  L 166.29 238.03
  A 0.17 0.16 -35.6 0 1 166.56 238.07
  Q 169.21 243.33 172.81 246.36
  A 0.62 0.62 0.0 0 1 172.72 247.37
  Z"
/>
<path fill="#878bab" d="
  M 127.52 243.74
  A 0.18 0.18 0.0 0 1 127.78 243.70
  L 131.49 246.40
  A 3.33 0.69 36.0 0 1 133.78 248.91
  L 133.64 249.11
  A 3.33 0.69 36.0 0 1 130.54 247.71
  L 126.82 245.01
  A 0.18 0.18 0.0 0 1 126.78 244.76
  L 127.52 243.74
  Z"
/>
<path fill="#c5c4c2" d="
  M 33.25 249.05
  L 35.06 247.55
  A 1.26 1.25 47.8 0 1 36.75 247.64
  Q 39.43 250.34 41.01 252.00
  C 42.44 253.48 43.28 253.59 45.51 253.70
  A 0.61 0.61 0.0 0 1 45.91 254.75
  L 40.57 259.91
  A 1.33 1.33 0.0 0 1 38.80 259.99
  Q 34.08 256.12 30.36 251.11
  A 0.60 0.60 0.0 0 1 30.94 250.16
  Q 32.49 250.42 33.25 249.05
  Z
  M 36.1996 253.1070
  A 2.12 1.34 -138.2 0 0 36.8868 255.5189
  A 2.12 1.34 -138.2 0 0 39.3604 255.9330
  A 2.12 1.34 -138.2 0 0 38.6732 253.5211
  A 2.12 1.34 -138.2 0 0 36.1996 253.1070
  Z"
/>
<path fill="#161718" d="
  M 99.60 355.57
  Q 96.31 354.47 93.71 351.45
  Q 91.08 348.40 91.00 348.32
  Q 50.65 306.63 10.06 265.18
  Q 4.74 259.75 0.00 254.37
  L 0.00 251.21
  Q 3.39 255.41 9.65 261.85
  Q 29.17 281.92 51.11 304.15
  C 67.67 320.92 79.68 333.74 94.27 347.91
  A 2.27 2.22 12.9 0 1 94.79 348.72
  Q 96.21 352.63 99.60 355.57
  Z"
/>
<ellipse fill="#656990" cx="0.00" cy="0.00" transform="translate(37.78,254.52) rotate(-138.2)" rx="2.12" ry="1.34"/>
<path fill="#878bab" d="
  M 177.84 257.40
  Q 179.03 257.04 180.08 259.36
  A 0.58 0.57 89.5 0 1 179.33 260.13
  Q 176.77 258.99 175.55 261.09
  A 1.86 1.70 26.5 0 1 173.27 261.74
  C 170.49 260.53 169.57 257.14 168.44 254.73
  A 0.41 0.41 0.0 0 1 168.85 254.15
  L 169.22 254.20
  A 0.30 0.28 73.2 0 1 169.43 254.32
  Q 171.24 256.73 171.95 259.17
  A 0.98 0.98 0.0 0 0 172.71 259.86
  Q 175.47 260.36 177.22 257.85
  A 1.25 1.20 -79.8 0 1 177.84 257.40
  Z"
/>
<path fill="#c5c4c2" d="
  M 138.97 266.27
  A 2.17 2.17 0.0 0 1 141.62 266.64
  L 147.57 272.77
  A 0.27 0.27 0.0 0 1 147.59 273.11
  L 144.16 277.54
  A 0.34 0.33 -50.6 0 1 143.67 277.59
  L 135.88 270.51
  A 1.63 1.63 0.0 0 1 136.16 267.89
  L 138.97 266.27
  Z
  M 140.0146 269.3157
  A 1.98 1.25 -134.0 0 0 140.4908 271.6083
  A 1.98 1.25 -134.0 0 0 142.7654 272.1643
  A 1.98 1.25 -134.0 0 0 142.2892 269.8717
  A 1.98 1.25 -134.0 0 0 140.0146 269.3157
  Z"
/>
<path fill="#c5c4c2" d="
  M 170.67 275.36
  L 169.25 277.10
  Q 167.46 274.01 164.36 272.25
  A 1.02 0.90 82.1 0 1 164.08 272.01
  L 161.82 269.18
  A 1.32 1.30 -52.6 0 1 161.65 267.85
  L 161.75 267.62
  A 0.61 0.59 37.0 0 1 162.71 267.50
  L 170.67 275.36
  Z"
/>
<ellipse fill="#878bab" cx="0.00" cy="0.00" transform="translate(141.39,270.74) rotate(-134.0)" rx="1.98" ry="1.25"/>
<path fill="#c5c4c2" d="
  M 103.99 316.17
  A 1.13 1.13 0.0 0 1 104.35 317.86
  L 101.26 321.86
  A 1.37 1.36 41.8 0 1 99.20 321.97
  L 92.54 315.10
  A 1.00 0.99 46.0 0 1 92.56 313.69
  L 96.10 310.26
  A 1.11 1.10 -45.2 0 1 97.64 310.25
  C 99.81 312.34 101.07 314.59 103.99 316.17
  Z
  M 96.2732 314.4893
  A 2.05 1.45 -136.9 0 0 96.7793 316.9487
  A 2.05 1.45 -136.9 0 0 99.2668 317.2907
  A 2.05 1.45 -136.9 0 0 98.7607 314.8313
  A 2.05 1.45 -136.9 0 0 96.2732 314.4893
  Z"
/>
<ellipse fill="#878bab" cx="0.00" cy="0.00" transform="translate(97.77,315.89) rotate(-136.9)" rx="2.05" ry="1.45"/>
</svg>
