<?xml version="1.0" encoding="UTF-8" standalone="no"?>
<svg xmlns="http://www.w3.org/2000/svg" version="1.2" baseProfile="tiny" viewBox="0.00 0.00 512.00 247.00" width="512.00" height="247.00">
<path fill="#a7b0c3" d="
  M 181.91 2.22
  Q 177.88 2.79 174.53 1.78
  Q 174.58 0.26 175.50 0.31
  Q 178.49 0.48 181.91 2.22
  Z"
/>
<path fill="#677695" d="
  M 181.91 2.22
  C 183.45 4.60 181.86 6.39 180.81 8.37
  A 1.34 1.31 52.4 0 0 180.70 9.30
  Q 181.03 10.65 182.49 11.52
  L 181.80 14.05
  A 1.47 1.45 -15.5 0 1 181.42 14.71
  Q 179.31 16.78 181.36 18.86
  A 2.17 2.11 -12.8 0 0 182.21 19.38
  Q 184.19 20.00 190.14 22.09
  Q 191.90 22.70 192.52 21.17
  A 0.67 0.66 15.9 0 1 193.26 20.76
  Q 194.80 21.06 196.21 21.97
  A 0.81 0.80 -71.3 0 1 196.57 22.71
  L 196.43 24.46
  A 0.69 0.69 0.0 0 1 195.57 25.07
  L 178.83 20.87
  A 8.90 8.89 49.2 0 0 175.73 20.64
  C 171.42 20.96 163.65 20.87 158.12 22.09
  C 154.48 22.89 150.38 22.66 146.96 24.55
  A 1.78 1.75 28.4 0 1 146.30 24.74
  L 135.70 25.52
  A 1.17 1.17 0.0 0 1 134.85 23.46
  C 135.98 22.48 135.62 20.47 135.44 19.21
  A 1.21 1.19 67.3 0 1 135.88 18.11
  L 146.15 9.82
  A 2.24 2.18 -74.3 0 1 146.79 9.45
  Q 150.47 8.11 152.76 5.41
  A 1.24 1.24 0.0 0 1 153.80 4.98
  L 164.36 5.83
  A 0.62 0.54 58.6 0 1 164.61 5.91
  Q 168.82 8.09 175.29 8.36
  Q 177.69 8.45 178.79 6.81
  A 0.82 0.81 -49.8 0 0 178.71 5.80
  Q 176.92 3.89 173.56 3.44
  L 174.53 1.78
  Q 177.88 2.79 181.91 2.22
  Z
  M 160.38 13.88
  C 164.29 17.66 170.13 15.92 174.99 17.07
  Q 177.27 17.61 178.35 17.87
  A 0.69 0.68 -7.8 0 0 179.11 16.87
  L 178.36 15.53
  A 1.63 1.62 73.0 0 0 176.82 14.70
  L 169.72 15.22
  A 1.23 1.23 0.0 0 1 168.43 14.27
  Q 167.86 11.84 166.59 9.62
  A 0.67 0.67 0.0 0 0 165.37 10.14
  L 166.10 12.53
  A 1.66 1.66 0.0 0 1 163.68 14.45
  L 161.08 12.95
  A 0.59 0.59 0.0 0 0 160.38 13.88
  Z"
/>
<path fill="#a7b0c3" d="
  M 173.56 3.44
  Q 176.92 3.89 178.71 5.80
  A 0.82 0.81 -49.8 0 1 178.79 6.81
  Q 177.69 8.45 175.29 8.36
  Q 168.82 8.09 164.61 5.91
  A 0.62 0.54 58.6 0 0 164.36 5.83
  L 153.80 4.98
  A 1.24 1.24 0.0 0 0 152.76 5.41
  Q 150.47 8.11 146.79 9.45
  A 2.24 2.18 -74.3 0 0 146.15 9.82
  L 135.88 18.11
  A 1.21 1.19 67.3 0 0 135.44 19.21
  C 135.62 20.47 135.98 22.48 134.85 23.46
  A 1.17 1.17 0.0 0 0 135.70 25.52
  L 146.30 24.74
  A 1.78 1.75 28.4 0 0 146.96 24.55
  C 150.38 22.66 154.48 22.89 158.12 22.09
  C 163.65 20.87 171.42 20.96 175.73 20.64
  A 8.90 8.89 49.2 0 1 178.83 20.87
  L 195.57 25.07
  A 0.69 0.69 0.0 0 0 196.43 24.46
  L 196.57 22.71
  A 0.81 0.80 -71.3 0 0 196.21 21.97
  Q 194.80 21.06 193.26 20.76
  A 0.67 0.66 15.9 0 0 192.52 21.17
  Q 191.90 22.70 190.14 22.09
  Q 184.19 20.00 182.21 19.38
  A 2.17 2.11 -12.8 0 1 181.36 18.86
  Q 179.31 16.78 181.42 14.71
  A 1.47 1.45 -15.5 0 0 181.80 14.05
  L 182.49 11.52
  L 207.28 19.23
  Q 207.45 19.63 208.01 19.43
  L 243.86 31.03
  A 3.62 3.27 -31.2 0 0 244.69 31.19
  Q 253.41 31.87 261.25 35.52
  Q 261.50 35.75 261.27 35.94
  Q 260.94 36.23 260.51 36.15
  Q 255.58 35.21 250.39 35.81
  A 2.03 1.96 -4.6 0 0 248.60 37.84
  Q 248.62 38.43 248.19 38.91
  Q 247.28 39.93 245.29 40.90
  C 242.61 42.18 242.01 42.76 239.68 44.30
  Q 238.51 45.07 237.44 46.35
  Q 235.35 48.87 232.95 50.62
  A 1.49 1.48 63.7 0 0 232.40 52.26
  L 232.71 53.25
  A 0.88 0.83 -39.5 0 1 232.63 53.91
  L 230.14 58.22
  A 0.59 0.58 -67.3 0 0 230.49 59.08
  Q 237.57 61.06 243.83 64.36
  A 1.55 1.53 59.4 0 0 244.51 64.54
  L 253.24 64.91
  A 1.30 1.29 5.4 0 1 254.47 66.39
  L 253.19 75.23
  A 4.27 4.20 -27.8 0 1 252.79 76.49
  Q 249.16 83.74 247.79 86.04
  Q 246.29 88.56 244.69 89.82
  Q 242.90 91.21 241.75 93.07
  Q 240.75 94.68 238.17 96.43
  A 3.74 3.73 2.5 0 0 237.36 97.17
  Q 233.95 101.39 227.89 104.58
  A 3.89 3.81 -79.3 0 0 227.03 105.18
  Q 224.50 107.54 222.82 108.55
  Q 217.44 111.81 210.36 115.58
  Q 204.38 118.76 202.76 120.03
  A 4.93 4.89 -72.6 0 1 201.19 120.86
  Q 193.39 123.29 186.68 126.83
  A 2.61 2.56 37.3 0 1 184.86 127.06
  Q 181.58 126.26 180.63 128.19
  C 179.79 129.90 179.85 130.67 177.65 131.21
  Q 170.32 133.00 169.90 132.99
  C 167.05 132.94 165.17 131.13 162.49 133.29
  A 1.43 1.40 -12.3 0 0 162.01 134.02
  Q 161.70 135.13 161.01 135.32
  Q 158.47 136.03 153.86 136.54
  A 5.49 4.83 30.2 0 0 152.89 136.73
  Q 145.27 139.00 140.50 139.12
  Q 130.93 139.34 119.51 140.47
  C 110.16 141.40 100.54 140.94 91.40 141.15
  A 3.27 3.07 -35.5 0 1 90.43 141.02
  C 88.93 140.58 88.14 140.28 86.33 140.50
  Q 80.40 141.25 75.21 140.08
  Q 74.21 139.85 66.48 139.83
  A 6.59 6.41 53.1 0 1 64.50 139.52
  Q 55.31 136.60 44.54 136.26
  C 42.58 136.20 41.93 135.52 41.71 133.79
  A 0.88 0.88 0.0 0 0 40.70 133.04
  Q 33.88 134.10 27.97 130.15
  Q 25.21 128.30 21.04 129.06
  C 11.85 123.51 3.85 115.73 1.18 105.72
  Q 0.13 101.76 0.44 95.03
  Q 0.66 90.49 3.05 84.59
  Q 8.64 70.77 21.87 60.12
  Q 36.71 48.17 53.02 41.29
  Q 59.56 38.54 61.00 37.72
  A 9.78 9.32 -67.6 0 1 62.75 36.94
  Q 68.17 35.14 69.50 34.56
  C 74.27 32.48 79.24 31.58 83.72 29.97
  C 90.27 27.62 95.22 27.18 103.42 25.04
  Q 107.52 23.97 115.67 22.95
  Q 121.86 22.17 127.97 21.00
  Q 128.17 20.54 128.12 20.29
  L 128.00 15.98
  A 1.15 1.14 -17.2 0 1 128.53 14.98
  L 145.67 3.68
  A 4.44 4.42 -62.8 0 1 147.93 2.95
  Q 159.09 2.49 169.21 6.10
  A 2.12 2.09 -57.4 0 0 171.41 5.60
  L 173.56 3.44
  Z
  M 164.07 73.39
  A 0.48 0.47 69.7 0 0 164.65 73.66
  Q 171.61 71.45 180.01 68.20
  C 182.17 67.36 183.84 66.01 185.42 65.38
  Q 194.32 61.80 202.11 59.34
  Q 205.18 58.38 213.07 53.49
  A 0.72 0.72 0.0 0 0 213.32 52.54
  L 213.30 52.51
  A 0.58 0.58 0.0 0 0 212.59 52.23
  C 207.67 54.03 203.55 56.63 198.47 57.47
  A 4.34 4.29 28.7 0 0 197.56 57.73
  C 195.98 58.38 194.40 59.58 192.68 60.14
  Q 180.13 64.21 164.30 72.67
  A 0.55 0.55 0.0 0 0 164.06 73.37
  L 164.07 73.39
  Z
  M 196.48 55.09
  C 193.70 53.51 186.73 56.72 183.82 57.99
  Q 179.38 59.94 173.73 61.80
  Q 164.01 64.99 154.16 69.19
  Q 150.91 70.58 147.77 72.70
  A 0.28 0.28 0.0 0 0 147.94 73.21
  C 149.32 73.10 150.47 72.24 151.95 71.78
  Q 163.57 68.14 173.58 63.81
  Q 174.21 63.54 180.33 61.12
  Q 183.21 59.99 187.80 57.76
  Q 189.40 56.98 190.81 57.14
  Q 193.42 57.44 196.48 55.67
  A 0.33 0.33 0.0 0 0 196.48 55.09
  Z
  M 199.97 63.11
  C 196.81 63.66 192.74 65.06 189.99 66.52
  Q 179.32 72.16 176.98 73.24
  C 174.22 74.52 171.30 77.23 168.91 78.42
  Q 161.07 82.32 154.38 87.26
  C 151.99 89.03 149.21 89.95 146.93 91.77
  A 1.71 1.42 10.5 0 1 146.50 92.01
  L 143.76 93.04
  A 0.44 0.44 0.0 0 0 143.66 93.81
  C 145.74 95.24 149.41 93.66 151.35 92.57
  Q 152.88 91.71 161.38 85.25
  A 3.13 2.53 4.1 0 1 161.72 85.03
  L 200.12 63.54
  A 0.23 0.23 0.0 0 0 199.97 63.11
  Z
  M 24.05 92.12
  Q 21.85 91.95 19.79 92.49
  A 0.60 0.60 0.0 0 1 19.05 91.98
  L 18.56 87.83
  A 1.09 1.09 0.0 0 0 17.21 86.90
  L 17.16 86.91
  A 1.50 1.49 -8.1 0 0 16.07 88.36
  L 16.09 91.86
  A 0.88 0.86 70.9 0 1 15.77 92.54
  L 14.91 93.24
  A 1.01 1.01 0.0 0 0 15.89 94.98
  Q 19.55 93.62 22.08 93.65
  A 1.41 1.38 26.0 0 0 22.92 93.37
  Q 23.37 93.02 24.11 92.85
  A 0.37 0.37 0.0 0 0 24.05 92.12
  Z
  M 236.95 94.99
  C 231.03 94.45 226.57 94.46 220.34 95.35
  Q 216.81 95.86 213.27 95.37
  A 0.24 0.24 0.0 0 0 213.00 95.57
  L 213.00 95.58
  A 0.16 0.16 0.0 0 0 213.13 95.76
  Q 225.18 98.25 236.99 95.84
  A 0.43 0.43 0.0 0 0 236.95 94.99
  Z
  M 27.39 115.01
  L 27.87 114.80
  A 0.81 0.79 54.6 0 1 28.74 114.96
  Q 30.75 116.88 30.43 119.46
  A 0.24 0.24 0.0 0 1 30.22 119.66
  Q 29.93 119.68 29.82 119.79
  A 0.32 0.32 0.0 0 0 30.03 120.35
  Q 30.26 120.35 30.61 119.98
  A 0.45 0.44 -26.9 0 0 30.73 119.63
  L 30.50 116.40
  A 0.81 0.81 0.0 0 1 31.66 115.60
  L 32.85 116.17
  A 1.75 1.74 11.4 0 1 33.84 117.66
  Q 33.94 119.70 32.65 121.26
  A 0.56 0.56 0.0 0 0 32.84 122.12
  L 33.56 122.46
  A 1.17 1.16 10.5 0 1 34.23 123.43
  L 34.37 125.38
  A 0.95 0.94 11.1 0 0 34.90 126.16
  L 41.06 129.08
  A 2.53 2.51 -33.1 0 0 42.22 129.32
  Q 46.60 129.14 47.35 124.15
  A 0.57 0.56 -76.6 0 0 46.97 123.53
  Q 43.11 122.20 41.19 118.82
  Q 39.89 116.53 39.57 116.23
  A 1.51 1.51 0.0 0 0 38.28 115.85
  Q 36.45 116.17 32.50 114.31
  Q 30.98 113.60 27.43 114.41
  A 0.48 0.48 0.0 0 0 27.27 115.28
  Q 27.97 115.73 27.53 115.72
  A 0.37 0.37 0.0 0 1 27.39 115.01
  Z"
/>
<path fill="#575864" d="
  M 160.38 13.88
  A 0.59 0.59 0.0 0 1 161.08 12.95
  L 163.68 14.45
  A 1.66 1.66 0.0 0 0 166.10 12.53
  L 165.37 10.14
  A 0.67 0.67 0.0 0 1 166.59 9.62
  Q 167.86 11.84 168.43 14.27
  A 1.23 1.23 0.0 0 0 169.72 15.22
  L 176.82 14.70
  A 1.63 1.62 73.0 0 1 178.36 15.53
  L 179.11 16.87
  A 0.69 0.68 -7.8 0 1 178.35 17.87
  Q 177.27 17.61 174.99 17.07
  C 170.13 15.92 164.29 17.66 160.38 13.88
  Z"
/>
<path fill="#677695" d="
  M 296.74 41.47
  Q 295.31 41.13 294.59 42.75
  A 1.08 1.06 -84.9 0 1 293.90 43.34
  Q 292.04 43.85 291.85 43.90
  A 1.39 1.22 -31.8 0 0 291.16 46.15
  Q 291.79 46.62 293.57 45.16
  A 0.29 0.29 0.0 0 1 294.04 45.36
  L 294.32 49.27
  A 0.47 0.47 0.0 0 1 293.59 49.70
  Q 292.16 48.73 290.87 48.20
  A 1.32 1.17 15.5 0 0 289.09 49.07
  Q 289.01 49.76 289.42 50.33
  Q 291.07 52.59 291.51 53.24
  A 1.34 1.34 0.0 0 1 290.05 55.29
  L 288.68 54.92
  A 0.68 0.68 0.0 0 0 287.84 55.40
  L 287.41 56.99
  A 1.13 1.13 0.0 0 1 285.44 57.41
  L 284.81 56.64
  A 0.96 0.96 0.0 0 0 284.08 56.28
  Q 281.44 56.21 280.05 54.47
  A 0.62 0.61 -32.5 0 1 280.26 53.54
  Q 281.25 53.05 281.65 52.01
  A 1.90 1.90 0.0 0 1 282.55 51.01
  Q 283.69 50.40 283.95 50.32
  Q 284.62 50.11 284.61 49.68
  Q 284.60 49.19 284.18 48.78
  A 0.98 0.97 28.8 0 1 283.92 47.91
  L 285.31 40.98
  Q 287.65 42.64 290.33 42.74
  Q 292.74 42.83 293.49 40.93
  Q 294.16 39.21 293.28 36.98
  Q 294.04 37.58 294.71 37.25
  Q 295.30 36.95 295.49 36.02
  Q 296.53 30.82 297.98 26.67
  C 298.55 25.04 298.03 22.88 298.14 20.99
  Q 298.24 19.28 298.87 17.76
  Q 300.05 14.92 300.48 11.88
  Q 300.53 10.75 301.38 9.83
  A 0.34 0.34 0.0 0 1 301.95 9.94
  Q 302.47 11.31 302.50 12.77
  Q 302.65 20.23 300.86 30.30
  Q 300.55 32.04 301.58 33.38
  A 0.61 0.60 55.5 0 1 301.42 34.26
  Q 299.40 35.52 297.41 36.48
  A 3.61 3.57 -13.1 0 0 295.35 39.75
  Q 295.36 40.58 296.74 41.47
  Z"
/>
<path fill="#a7b0c3" d="
  M 293.28 36.98
  L 291.99 35.39
  A 0.88 0.88 0.0 0 1 291.82 34.58
  C 293.35 29.54 294.26 25.29 296.32 22.29
  A 2.55 2.50 -17.9 0 0 296.54 21.87
  L 300.48 11.88
  Q 300.05 14.92 298.87 17.76
  Q 298.24 19.28 298.14 20.99
  C 298.03 22.88 298.55 25.04 297.98 26.67
  Q 296.53 30.82 295.49 36.02
  Q 295.30 36.95 294.71 37.25
  Q 294.04 37.58 293.28 36.98
  Z"
/>
<path fill="#677695" d="
  M 208.01 19.43
  Q 207.45 19.63 207.28 19.23
  Q 207.58 19.41 208.01 19.43
  Z"
/>
<path fill="#677695" d="
  M 127.97 21.00
  L 128.12 20.29
  Q 128.17 20.54 127.97 21.00
  Z"
/>
<path fill="#575864" d="
  M 287.05 35.12
  Q 286.58 35.21 286.51 35.16
  A 0.30 0.30 0.0 0 1 286.59 34.61
  Q 287.04 34.51 287.10 34.53
  A 0.31 0.31 0.0 0 1 287.05 35.12
  Z"
/>
<path fill="#677695" d="
  M 308.24 35.15
  Q 309.65 38.97 312.13 35.70
  Q 314.71 35.28 317.43 36.80
  A 2.78 2.74 4.8 0 1 318.67 38.25
  L 319.58 40.69
  A 1.11 1.10 -34.9 0 0 321.45 41.02
  Q 322.22 40.12 323.55 39.80
  Q 322.92 40.89 323.08 41.29
  A 1.54 1.54 0.0 0 0 325.83 41.54
  Q 326.17 40.99 324.94 39.88
  C 328.09 40.34 331.56 40.42 334.33 42.18
  Q 336.62 43.64 337.76 43.99
  Q 340.74 44.90 344.23 44.93
  Q 349.22 42.81 351.63 36.46
  L 360.88 37.64
  L 358.00 48.51
  A 0.50 0.50 0.0 0 0 358.57 49.13
  L 359.58 48.97
  Q 359.24 49.57 359.33 49.92
  A 0.74 0.74 0.0 0 0 360.76 49.94
  Q 362.52 43.75 363.72 37.87
  L 401.71 41.93
  A 1.14 1.14 0.0 0 1 402.69 43.34
  L 401.36 48.70
  L 399.25 59.05
  Q 397.17 67.82 393.24 75.96
  A 3.05 2.89 66.6 0 0 393.01 76.59
  L 390.29 87.32
  A 1.47 1.23 -39.9 0 0 390.24 87.60
  L 390.00 91.57
  A 2.11 2.06 63.9 0 1 389.66 92.61
  L 388.88 93.82
  A 2.78 2.65 -22.5 0 0 388.53 94.61
  Q 385.78 105.28 383.40 114.38
  Q 382.53 117.72 381.17 120.71
  Q 379.82 123.25 379.70 126.24
  A 3.28 3.21 -30.8 0 1 379.35 127.57
  Q 378.07 130.15 379.48 130.71
  Q 379.10 131.31 379.32 131.69
  Q 379.47 131.95 379.91 131.99
  Q 380.21 132.02 380.61 132.02
  Q 380.39 133.80 378.12 135.37
  Q 377.65 135.69 378.10 136.30
  L 371.93 158.14
  L 361.04 160.69
  A 3.33 3.32 89.9 0 0 358.55 163.20
  L 357.13 169.51
  Q 357.36 171.06 356.79 171.65
  A 0.64 0.64 0.0 0 1 355.80 171.56
  Q 354.35 169.38 351.17 168.69
  A 1.10 1.09 66.0 0 0 350.40 170.71
  L 352.79 172.09
  A 0.61 0.60 45.2 0 1 352.79 173.14
  Q 351.41 173.91 349.60 174.06
  A 0.50 0.50 0.0 0 0 349.15 174.52
  L 349.06 175.59
  A 0.13 0.13 0.0 0 0 349.19 175.73
  Q 353.29 175.68 355.38 173.07
  A 0.97 0.94 24.8 0 1 356.32 172.74
  L 357.68 173.02
  L 358.55 173.23
  Q 358.67 174.17 359.47 174.23
  Q 363.01 174.48 364.69 175.85
  A 1.27 1.26 62.1 0 0 365.55 176.12
  L 368.54 175.90
  A 0.67 0.67 0.0 0 1 369.24 176.73
  Q 368.67 179.04 367.06 180.41
  A 0.55 0.55 0.0 0 0 367.35 181.38
  C 368.45 181.51 369.04 180.83 369.50 179.81
  Q 370.24 178.18 371.85 177.63
  Q 372.42 183.25 370.66 189.71
  C 369.46 194.11 366.66 194.48 364.50 197.66
  A 3.90 3.89 8.6 0 1 362.42 199.19
  L 351.15 202.63
  A 1.05 0.97 44.6 0 1 350.50 202.61
  L 348.67 201.94
  A 1.06 1.05 -63.4 0 0 347.42 202.36
  Q 345.80 204.87 343.08 206.15
  A 1.33 1.32 -51.0 0 1 342.23 206.24
  L 338.99 205.48
  Q 341.91 202.32 343.93 197.00
  A 0.11 0.08 -68.7 0 0 343.89 196.87
  Q 343.85 196.85 343.81 196.84
  A 0.27 0.10 -56.0 0 0 343.59 197.00
  L 342.07 199.36
  A 0.62 0.61 -36.2 0 1 340.96 199.19
  C 340.36 197.01 339.01 197.25 337.20 197.10
  Q 331.36 196.64 329.25 196.65
  A 0.63 0.61 -4.3 0 1 328.63 196.13
  Q 328.18 193.41 329.77 189.39
  A 0.86 0.86 0.0 0 1 331.36 189.37
  L 331.72 190.20
  A 0.08 0.08 0.0 0 0 331.88 190.19
  L 332.08 189.21
  A 0.99 0.98 -82.6 0 1 333.10 188.42
  Q 333.76 188.46 334.47 188.11
  A 1.40 1.39 87.9 0 0 335.18 187.34
  Q 337.14 182.06 337.59 180.63
  Q 337.92 179.58 339.50 178.16
  A 1.71 1.71 0.0 0 0 340.00 177.38
  L 341.08 174.05
  A 1.13 1.02 77.6 0 1 341.29 173.68
  L 344.85 169.40
  A 1.58 1.54 -82.6 0 1 345.38 168.98
  L 348.53 167.45
  A 0.92 0.92 0.0 0 1 349.23 167.40
  Q 350.99 167.97 351.79 165.81
  A 1.22 1.21 -69.3 0 0 351.09 164.25
  L 345.43 162.08
  A 1.08 0.71 -3.4 0 1 345.17 161.93
  Q 341.66 159.10 339.96 155.69
  A 0.60 0.59 42.2 0 0 338.87 155.74
  Q 335.82 163.77 330.00 167.07
  A 1.17 1.17 0.0 0 0 329.40 168.02
  C 328.91 175.53 327.98 179.64 328.44 186.08
  Q 328.70 189.65 328.33 196.31
  A 0.69 0.68 10.4 0 0 328.81 197.00
  Q 330.64 197.58 332.03 198.70
  L 330.81 202.63
  A 1.52 1.50 -8.3 0 1 330.19 203.45
  Q 327.13 205.46 326.13 206.50
  C 324.11 208.58 321.41 207.68 319.86 210.96
  A 1.26 1.26 0.0 0 1 319.08 211.63
  L 309.18 214.66
  A 1.97 1.96 46.6 0 1 307.93 214.62
  L 306.75 214.19
  A 0.93 0.92 26.5 0 0 305.66 214.55
  L 304.03 217.05
  Q 304.01 215.46 304.29 214.73
  Q 306.37 209.12 308.36 203.26
  A 5.05 4.99 75.4 0 1 309.39 201.48
  L 312.20 198.30
  A 5.14 5.07 -12.8 0 0 313.05 196.97
  Q 313.15 196.77 315.04 190.85
  Q 317.21 184.10 319.81 171.90
  Q 320.92 166.67 322.46 162.08
  Q 323.67 158.48 324.92 152.22
  A 2.10 2.10 0.0 0 0 324.62 150.68
  L 323.71 149.31
  A 0.36 0.36 0.0 0 0 323.05 149.43
  Q 319.17 168.41 314.25 183.12
  Q 313.20 186.24 312.83 188.12
  C 312.09 191.80 312.08 194.50 310.04 196.21
  A 0.41 0.41 0.0 0 1 309.39 195.78
  L 312.90 183.83
  A 0.86 0.67 -38.0 0 0 312.93 183.71
  Q 314.00 176.15 316.42 170.51
  A 4.34 4.06 -31.0 0 0 316.72 169.46
  C 317.17 166.40 317.25 164.60 318.31 161.68
  Q 319.64 158.04 320.86 151.92
  Q 321.09 150.75 321.81 149.16
  Q 322.10 148.53 322.67 146.36
  Q 323.40 143.63 325.51 138.46
  A 3.56 3.54 -4.8 0 1 326.95 136.77
  Q 330.39 134.64 331.07 131.70
  Q 333.07 123.06 336.82 109.41
  A 1.64 1.50 73.3 0 1 337.08 108.87
  Q 337.53 108.26 337.75 107.53
  Q 339.61 101.13 340.49 95.33
  A 2.85 2.77 -47.6 0 0 340.46 94.36
  Q 340.17 93.05 338.76 91.74
  A 1.51 1.50 29.0 0 1 338.33 90.24
  L 340.45 82.39
  A 0.34 0.32 20.2 0 0 340.26 82.01
  Q 339.93 81.87 339.48 81.80
  Q 341.15 81.42 341.17 80.07
  A 0.75 0.75 0.0 0 0 340.72 79.37
  Q 340.51 79.28 340.49 79.26
  A 0.28 0.28 0.0 0 1 340.83 78.84
  Q 341.51 79.14 341.77 79.95
  A 1.16 1.16 0.0 0 0 342.95 80.75
  L 356.17 79.78
  A 0.12 0.06 83.8 0 0 356.22 79.66
  Q 356.22 79.64 356.23 79.62
  A 0.12 0.11 -69.2 0 0 356.15 79.42
  L 349.26 79.52
  A 0.70 0.70 0.0 0 1 348.55 78.88
  Q 348.52 78.41 348.33 77.90
  Q 348.15 77.40 347.02 77.14
  Q 342.75 76.15 340.44 74.31
  A 1.95 1.91 -21.7 0 0 339.51 73.92
  L 336.46 73.51
  A 1.20 1.19 75.7 0 1 335.66 73.03
  Q 334.47 71.43 333.37 69.45
  Q 332.47 67.83 331.05 68.27
  Q 330.31 68.50 329.94 68.33
  A 0.60 0.60 0.0 0 1 330.01 67.22
  Q 331.23 66.80 332.26 65.44
  A 0.52 0.51 -55.7 0 0 332.13 64.70
  Q 331.12 64.05 330.57 64.13
  A 0.15 0.15 0.0 0 1 330.46 63.86
  C 331.38 63.22 331.95 61.02 332.85 59.16
  Q 333.59 57.62 332.64 57.12
  A 0.34 0.33 -59.4 0 1 332.52 56.63
  Q 332.95 56.00 331.97 55.21
  Q 329.46 53.18 326.77 53.57
  A 0.43 0.42 -7.0 0 1 326.28 53.19
  Q 326.23 52.57 325.98 52.19
  A 0.16 0.16 0.0 0 0 325.69 52.24
  L 324.69 56.68
  A 1.20 0.94 -58.3 0 0 324.66 56.84
  Q 324.61 57.45 325.27 57.19
  Q 325.54 57.09 326.11 57.41
  Q 327.39 58.11 327.88 58.71
  A 0.89 0.89 0.0 0 1 327.12 60.15
  Q 326.10 60.08 324.80 60.52
  A 0.36 0.36 0.0 0 0 324.87 61.21
  Q 326.47 61.40 325.62 59.82
  A 0.82 0.82 0.0 0 0 324.10 60.04
  Q 323.95 60.75 322.98 62.46
  Q 322.75 62.88 322.86 63.56
  Q 322.94 64.03 323.40 64.39
  A 1.64 1.37 -41.3 0 1 323.02 66.80
  C 321.18 68.04 320.83 71.45 320.55 73.44
  A 0.84 0.83 -88.7 0 1 319.80 74.16
  Q 318.67 74.27 316.80 73.80
  A 0.32 0.30 16.4 0 0 316.43 73.99
  L 316.25 74.47
  A 0.32 0.32 0.0 0 0 316.46 74.89
  Q 324.26 77.21 332.40 79.58
  Q 333.62 79.93 336.54 79.79
  A 0.24 0.23 77.0 0 0 336.74 79.46
  L 336.51 78.91
  A 0.14 0.13 69.9 0 0 336.35 78.83
  Q 334.35 79.34 332.94 78.36
  L 336.43 78.22
  A 0.83 0.82 71.6 0 1 337.15 78.59
  L 339.09 81.44
  Q 337.80 81.18 337.40 82.18
  Q 336.61 84.14 336.62 86.59
  A 3.95 3.94 78.3 0 1 334.23 90.25
  L 330.28 91.95
  A 1.20 1.19 88.9 0 0 329.62 92.64
  C 328.98 94.35 328.18 96.57 327.88 98.23
  Q 325.23 112.89 324.70 113.72
  A 0.25 0.25 0.0 0 0 325.00 114.09
  Q 325.01 114.08 325.20 113.17
  Q 326.10 108.85 327.48 103.76
  A 0.25 0.24 14.3 0 1 327.78 103.59
  L 327.79 103.59
  A 0.24 0.24 0.0 0 1 327.96 103.87
  Q 325.18 116.10 322.51 123.74
  C 321.26 127.33 316.84 129.37 313.68 130.34
  A 0.45 0.45 0.0 0 0 313.54 131.13
  L 318.02 134.55
  L 296.69 121.28
  A 1.22 1.17 87.9 0 1 296.31 120.91
  L 296.07 120.54
  A 1.29 1.25 -3.3 0 0 295.57 120.11
  L 291.49 118.18
  A 1.41 1.36 79.8 0 1 291.13 117.92
  Q 287.06 113.85 281.15 112.16
  Q 279.66 111.74 278.17 111.99
  Q 278.12 112.00 277.91 112.26
  A 0.17 0.17 0.0 0 0 278.06 112.53
  Q 278.83 112.46 279.46 112.86
  Q 285.34 116.61 286.99 117.97
  C 290.64 120.97 294.30 122.67 298.50 125.30
  A 2.85 2.84 21.9 0 1 299.77 128.27
  L 298.62 133.86
  A 0.39 0.38 3.8 0 0 299.03 134.32
  L 303.39 134.00
  A 1.18 1.08 25.0 0 0 303.90 133.84
  Q 305.16 133.07 305.52 131.90
  A 0.90 0.89 -86.6 0 1 306.20 131.29
  C 308.46 130.87 309.34 132.02 311.13 132.83
  Q 312.83 133.61 313.41 134.46
  Q 314.66 138.96 317.60 142.61
  A 0.94 0.94 0.0 0 1 317.24 144.06
  L 264.20 166.84
  A 1.74 1.73 86.0 0 0 263.21 167.98
  L 263.09 168.44
  A 0.59 0.59 0.0 0 0 263.89 169.14
  L 305.45 151.82
  Q 306.90 151.94 306.94 152.98
  A 0.79 0.78 -28.3 0 1 306.79 153.47
  Q 305.77 154.91 306.46 155.54
  A 0.40 0.39 46.4 0 1 306.45 156.12
  Q 306.30 156.24 304.86 160.74
  Q 304.22 162.77 303.75 165.35
  Q 303.20 168.44 301.37 174.87
  Q 299.99 179.71 297.17 193.01
  Q 295.12 193.74 294.93 195.30
  A 0.79 0.78 18.5 0 0 295.32 196.07
  L 305.04 201.68
  A 0.97 0.95 13.6 0 1 305.52 202.45
  Q 305.58 203.38 304.88 204.51
  Q 304.34 205.96 302.20 202.95
  L 296.06 198.60
  A 0.75 0.75 0.0 0 0 294.88 199.16
  Q 294.83 199.84 294.55 200.27
  Q 292.59 203.33 291.92 208.58
  A 0.55 0.54 -88.3 0 0 292.50 209.20
  Q 293.61 209.12 294.34 208.21
  A 0.96 0.96 0.0 0 1 295.07 207.85
  Q 296.20 207.81 297.01 208.93
  A 0.85 0.85 0.0 0 1 296.76 210.16
  Q 295.20 211.12 292.55 212.30
  Q 287.37 214.60 279.36 217.60
  Q 278.84 217.79 266.34 223.20
  Q 254.43 228.34 252.95 228.67
  Q 250.81 229.14 250.46 226.99
  Q 250.26 225.77 250.09 225.46
  A 0.60 0.60 0.0 0 0 249.01 225.52
  Q 247.84 228.38 248.93 231.61
  A 0.53 0.52 -15.8 0 0 249.55 231.95
  Q 254.26 230.86 257.19 229.52
  C 262.88 226.91 266.78 225.85 272.06 223.10
  C 279.07 219.46 286.82 216.79 294.24 214.12
  L 296.03 214.19
  A 0.72 0.70 84.6 0 1 296.69 214.75
  L 296.96 215.90
  L 290.15 217.95
  A 2.50 2.49 -5.9 0 0 288.39 220.11
  Q 288.08 223.48 286.17 227.92
  C 285.34 229.86 285.60 231.14 282.95 231.66
  Q 276.68 232.88 275.12 232.87
  A 3.95 3.94 30.1 0 0 273.09 233.41
  C 268.79 235.92 262.73 236.27 256.75 237.19
  A 0.95 0.95 0.0 0 1 255.69 236.53
  L 255.28 235.17
  A 1.36 1.36 0.0 0 0 252.93 234.70
  L 250.96 237.07
  A 0.70 0.67 -78.3 0 1 250.67 237.27
  C 248.23 238.07 245.01 239.52 244.28 242.48
  A 1.03 1.03 0.0 0 0 245.35 243.75
  L 254.63 243.07
  A 1.25 1.25 0.0 0 1 255.88 243.83
  L 256.63 245.56
  A 0.62 0.62 0.0 0 1 256.25 246.39
  L 254.35 247.00
  L 249.12 247.00
  Q 246.73 246.33 244.33 247.00
  L 239.75 247.00
  L 229.51 241.85
  A 2.62 2.61 -9.1 0 1 228.83 241.36
  Q 225.79 238.31 224.51 235.19
  A 4.25 4.23 7.4 0 0 223.16 233.45
  Q 219.89 231.00 216.76 229.84
  C 213.06 228.46 211.22 226.85 208.05 225.70
  Q 207.32 225.43 204.58 224.10
  Q 190.30 217.14 189.65 216.77
  Q 187.35 215.49 186.58 214.89
  A 0.97 0.96 49.7 0 0 185.55 214.80
  C 181.89 216.65 178.98 218.04 174.86 215.63
  Q 172.16 214.04 169.32 213.30
  A 2.75 2.74 -15.8 0 1 168.10 212.62
  L 163.12 207.84
  Q 166.61 207.85 169.44 209.34
  A 0.42 0.42 0.0 0 0 170.04 208.85
  C 168.97 205.32 166.75 206.34 164.49 205.15
  Q 162.21 203.94 161.99 201.03
  L 160.63 194.48
  A 1.13 1.13 0.0 0 1 160.92 193.47
  Q 162.94 191.37 166.03 191.65
  A 1.18 1.17 -81.6 0 0 167.29 190.71
  L 170.81 173.62
  A 1.92 1.90 41.1 0 0 170.73 172.54
  L 158.68 140.22
  A 1.52 1.51 -18.2 0 0 156.85 139.30
  Q 152.70 140.49 146.95 142.01
  Q 144.28 142.72 136.94 143.33
  Q 125.60 144.27 119.01 144.80
  Q 89.58 147.17 61.50 142.96
  Q 58.41 142.49 45.92 139.39
  C 41.09 138.19 36.04 136.03 31.76 134.48
  Q 27.85 133.07 21.04 129.06
  Q 25.21 128.30 27.97 130.15
  Q 33.88 134.10 40.70 133.04
  A 0.88 0.88 0.0 0 1 41.71 133.79
  C 41.93 135.52 42.58 136.20 44.54 136.26
  Q 55.31 136.60 64.50 139.52
  A 6.59 6.41 53.1 0 0 66.48 139.83
  Q 74.21 139.85 75.21 140.08
  Q 80.40 141.25 86.33 140.50
  C 88.14 140.28 88.93 140.58 90.43 141.02
  A 3.27 3.07 -35.5 0 0 91.40 141.15
  C 100.54 140.94 110.16 141.40 119.51 140.47
  Q 130.93 139.34 140.50 139.12
  Q 145.27 139.00 152.89 136.73
  A 5.49 4.83 30.2 0 1 153.86 136.54
  Q 158.47 136.03 161.01 135.32
  Q 161.70 135.13 162.01 134.02
  A 1.43 1.40 -12.3 0 1 162.49 133.29
  C 165.17 131.13 167.05 132.94 169.90 132.99
  Q 170.32 133.00 177.65 131.21
  C 179.85 130.67 179.79 129.90 180.63 128.19
  Q 181.58 126.26 184.86 127.06
  A 2.61 2.56 37.3 0 0 186.68 126.83
  Q 193.39 123.29 201.19 120.86
  A 4.93 4.89 -72.6 0 0 202.76 120.03
  Q 204.38 118.76 210.36 115.58
  Q 217.44 111.81 222.82 108.55
  Q 224.50 107.54 227.03 105.18
  A 3.89 3.81 -79.3 0 1 227.89 104.58
  Q 233.95 101.39 237.36 97.17
  A 3.74 3.73 2.5 0 1 238.17 96.43
  Q 240.75 94.68 241.75 93.07
  Q 242.90 91.21 244.69 89.82
  Q 246.29 88.56 247.79 86.04
  Q 249.16 83.74 252.79 76.49
  A 4.27 4.20 -27.8 0 0 253.19 75.23
  L 254.47 66.39
  A 1.30 1.29 5.4 0 0 253.24 64.91
  L 244.51 64.54
  A 1.55 1.53 59.4 0 1 243.83 64.36
  Q 237.57 61.06 230.49 59.08
  A 0.59 0.58 -67.3 0 1 230.14 58.22
  L 232.63 53.91
  A 0.88 0.83 -39.5 0 0 232.71 53.25
  L 232.40 52.26
  A 1.49 1.48 63.7 0 1 232.95 50.62
  Q 235.35 48.87 237.44 46.35
  Q 238.51 45.07 239.68 44.30
  C 242.01 42.76 242.61 42.18 245.29 40.90
  Q 247.28 39.93 248.19 38.91
  Q 248.62 38.43 248.60 37.84
  A 2.03 1.96 -4.6 0 1 250.39 35.81
  Q 255.58 35.21 260.51 36.15
  Q 260.94 36.23 261.27 35.94
  Q 261.50 35.75 261.25 35.52
  C 268.36 36.85 266.99 42.82 263.28 46.59
  A 0.33 0.32 31.3 0 0 263.42 47.13
  L 263.73 47.23
  L 261.27 47.38
  A 0.91 0.91 0.0 0 0 261.08 49.17
  L 265.18 50.28
  A 0.34 0.33 40.7 0 1 265.23 50.91
  Q 264.00 51.45 263.32 52.24
  A 0.91 0.91 0.0 0 0 263.19 53.23
  Q 264.10 55.15 266.33 55.43
  C 271.92 56.15 277.29 56.93 280.83 61.55
  A 0.12 0.12 0.0 0 1 280.75 61.74
  Q 279.57 61.85 280.14 62.09
  A 3.88 0.47 26.7 0 1 280.61 62.30
  L 282.02 62.98
  A 1.86 1.84 -50.7 0 0 283.93 62.78
  C 284.81 62.12 286.93 61.29 287.70 60.28
  Q 287.89 60.03 287.90 59.56
  A 0.85 0.84 88.1 0 1 288.66 58.74
  Q 288.78 58.73 289.36 58.87
  A 3.14 2.55 27.8 0 0 292.05 58.33
  C 294.14 56.41 295.10 54.57 297.00 53.21
  Q 298.37 52.22 301.04 49.21
  A 3.36 3.22 -86.0 0 1 301.57 48.73
  L 306.85 44.90
  A 1.09 1.08 -20.3 0 0 307.30 43.93
  L 307.09 41.05
  A 0.32 0.32 0.0 0 1 307.54 40.74
  L 309.02 41.44
  A 0.48 0.48 0.0 0 0 309.68 40.87
  L 308.85 38.16
  A 0.74 0.73 -13.7 0 0 308.01 37.66
  Q 306.92 37.88 305.95 38.58
  Q 306.94 34.68 308.24 35.15
  Z
  M 314.67 43.35
  L 318.14 41.74
  A 1.08 1.07 87.4 0 0 318.70 41.12
  Q 319.42 39.00 317.35 37.44
  A 1.26 1.25 -48.9 0 0 315.72 37.56
  Q 314.15 39.12 312.79 40.97
  A 1.55 1.36 -59.8 0 0 313.23 43.23
  Q 313.39 43.29 314.39 43.40
  A 0.47 0.45 33.7 0 0 314.67 43.35
  Z
  M 344.80 52.75
  L 347.60 52.98
  A 0.49 0.48 4.2 0 0 348.12 52.54
  L 348.14 52.22
  A 0.85 0.84 -83.5 0 0 347.42 51.31
  L 340.82 50.35
  A 1.90 1.88 61.3 0 1 340.32 50.20
  Q 336.18 48.16 330.57 47.62
  A 0.63 0.63 0.0 0 1 330.03 47.19
  Q 329.86 46.68 329.23 46.51
  Q 327.40 46.00 322.36 43.84
  A 0.50 0.49 14.2 0 0 321.67 44.25
  L 321.64 44.60
  A 1.02 1.01 12.6 0 0 322.30 45.63
  L 326.66 47.23
  A 0.97 0.96 -9.8 0 1 326.99 47.46
  L 333.46 54.81
  A 0.66 0.65 -9.7 0 0 333.73 55.00
  L 334.18 55.16
  A 0.32 0.31 22.3 0 1 334.36 55.58
  C 332.66 59.85 335.12 60.90 338.79 61.31
  C 341.89 61.65 343.03 56.58 343.95 53.34
  A 0.81 0.81 0.0 0 1 344.80 52.75
  Z
  M 357.60 48.49
  A 0.57 0.55 -4.1 0 0 357.04 48.02
  Q 352.59 48.09 348.69 46.35
  A 2.91 2.80 -34.7 0 0 347.21 46.11
  C 345.69 46.25 344.37 47.03 342.66 46.80
  Q 339.66 46.41 337.44 45.37
  Q 335.16 44.32 332.78 44.81
  A 0.62 0.62 0.0 0 0 332.84 46.04
  Q 338.29 46.59 342.72 49.16
  A 3.40 3.40 0.0 0 0 344.23 49.62
  Q 347.33 49.83 354.82 52.80
  Q 355.62 53.11 360.88 53.96
  A 0.55 0.55 0.0 0 0 361.49 53.56
  L 361.60 53.13
  A 0.48 0.48 0.0 0 0 361.27 52.54
  L 346.96 48.69
  A 0.55 0.55 0.0 0 1 347.02 47.62
  Q 348.64 47.39 350.44 48.13
  Q 354.10 49.64 358.04 50.26
  A 0.16 0.16 0.0 0 0 358.21 50.02
  Q 357.71 49.22 357.60 48.49
  Z
  M 321.76 50.15
  L 321.64 48.17
  A 0.21 0.21 0.0 0 0 321.42 47.98
  L 321.24 47.99
  A 8.49 1.18 -3.6 0 0 312.84 49.70
  L 312.84 49.74
  A 8.49 1.18 -3.6 0 0 321.39 50.38
  L 321.57 50.37
  A 0.21 0.21 0.0 0 0 321.76 50.15
  Z
  M 367.76 62.36
  L 366.40 59.05
  A 1.01 1.00 46.8 0 0 364.56 58.99
  L 363.05 62.17
  A 0.84 0.84 0.0 0 1 361.67 62.38
  L 359.46 59.96
  Q 358.64 58.44 357.20 57.68
  A 0.75 0.75 0.0 0 0 356.10 58.23
  Q 355.81 60.32 354.68 60.20
  A 0.60 0.58 67.7 0 1 354.36 60.06
  L 350.21 56.61
  A 0.22 0.22 0.0 0 0 349.86 56.72
  L 349.63 57.57
  A 0.05 0.03 -80.8 0 0 349.65 57.61
  Q 352.93 59.89 354.97 60.12
  Q 356.21 60.26 356.27 58.40
  A 0.02 0.01 44.0 0 1 356.30 58.40
  Q 356.71 61.13 354.85 62.67
  A 2.07 2.05 -63.7 0 1 353.45 63.15
  L 343.49 62.78
  A 1.64 1.63 -84.9 0 0 341.82 64.18
  L 340.75 71.53
  A 0.84 0.84 0.0 0 0 341.26 72.42
  Q 342.82 73.08 343.86 74.72
  A 2.44 2.44 0.0 0 0 346.93 75.63
  Q 350.95 73.81 353.18 70.08
  A 1.43 1.43 0.0 0 1 355.67 70.13
  Q 357.18 72.90 360.09 73.60
  A 0.53 0.53 0.0 0 1 360.12 74.62
  L 356.28 75.79
  A 0.07 0.07 0.0 0 0 356.30 75.92
  L 365.60 75.67
  A 0.51 0.51 0.0 0 0 366.10 75.11
  Q 366.08 74.82 367.25 71.41
  Q 368.44 67.91 370.81 68.78
  A 0.82 0.81 11.6 0 1 371.34 69.57
  Q 371.31 70.45 372.06 70.64
  A 0.82 0.81 -75.6 0 0 373.03 70.06
  L 374.36 65.14
  A 1.14 1.13 5.1 0 0 373.17 63.72
  Q 371.15 63.89 369.26 63.70
  Q 367.77 63.56 367.76 62.36
  Z
  M 289.55 66.62
  L 290.97 67.11
  A 0.27 0.27 0.0 0 0 291.31 66.95
  L 291.42 66.64
  A 5.71 0.60 -70.9 0 0 292.72 61.05
  L 291.92 60.78
  A 5.71 0.60 -70.9 0 0 289.49 65.98
  L 289.38 66.28
  A 0.27 0.27 0.0 0 0 289.55 66.62
  Z
  M 269.92 62.01
  A 0.43 0.43 0.0 0 0 269.48 61.43
  L 261.90 61.99
  A 0.64 0.64 0.0 0 0 261.70 63.21
  Q 264.79 64.51 268.45 64.43
  A 0.87 0.86 -79.9 0 0 269.24 63.87
  L 269.92 62.01
  Z
  M 276.28 64.73
  Q 273.21 66.11 269.13 65.40
  A 0.25 0.25 0.0 0 0 268.93 65.84
  C 271.13 67.59 273.12 67.25 276.39 67.10
  A 2.24 2.11 -58.1 0 0 277.29 66.86
  Q 279.30 65.85 281.31 66.28
  C 283.22 66.68 284.76 66.12 286.19 65.60
  A 0.26 0.26 0.0 0 0 286.09 65.09
  Q 280.78 65.29 276.09 63.08
  Q 276.04 63.05 275.95 63.08
  Q 275.92 63.08 275.66 63.13
  A 0.05 0.05 0.0 0 0 275.66 63.23
  L 276.08 63.29
  A 0.76 0.76 0.0 0 1 276.28 64.73
  Z
  M 339.29 68.07
  Q 339.94 66.79 339.87 65.18
  A 1.93 1.92 27.8 0 0 339.57 64.22
  Q 338.59 62.68 336.09 63.20
  A 0.64 0.64 0.0 0 0 335.58 63.90
  Q 335.96 67.18 338.58 68.33
  A 0.55 0.55 0.0 0 0 339.29 68.07
  Z
  M 259.6682 66.0516
  A 1.60 1.17 -24.3 0 0 257.7285 65.6437
  A 1.60 1.17 -24.3 0 0 256.7518 67.3684
  A 1.60 1.17 -24.3 0 0 258.6915 67.7763
  A 1.60 1.17 -24.3 0 0 259.6682 66.0516
  Z
  M 268.9427 67.4054
  A 5.88 1.55 -76.8 0 0 266.0910 72.7761
  A 5.88 1.55 -76.8 0 0 266.2573 78.8546
  A 5.88 1.55 -76.8 0 0 269.1090 73.4839
  A 5.88 1.55 -76.8 0 0 268.9427 67.4054
  Z
  M 339.1360 70.9868
  A 1.02 1.02 0.0 0 0 338.1992 69.8899
  L 337.0228 69.7973
  A 1.02 1.02 0.0 0 0 335.9259 70.7341
  L 335.9040 71.0132
  A 1.02 1.02 0.0 0 0 336.8408 72.1101
  L 338.0172 72.2027
  A 1.02 1.02 0.0 0 0 339.1141 71.2659
  L 339.1360 70.9868
  Z
  M 365.60 80.45
  Q 365.48 80.52 365.33 79.99
  A 1.03 0.46 64.7 0 0 364.22 79.04
  Q 364.21 79.06 364.17 79.07
  A 0.05 0.04 27.8 0 0 364.21 79.15
  Q 373.78 79.05 380.94 79.27
  A 1.55 1.55 0.0 0 1 382.39 81.23
  L 379.81 90.84
  A 0.37 0.37 0.0 0 0 380.07 91.30
  L 380.62 91.45
  A 0.13 0.12 13.3 0 0 380.76 91.37
  L 383.59 80.86
  A 1.78 1.78 0.0 0 0 382.49 78.73
  L 373.24 75.33
  A 1.40 1.39 41.8 0 0 372.11 75.39
  L 370.89 76.02
  A 1.90 1.80 -59.4 0 1 370.22 76.21
  C 366.17 76.50 357.95 75.29 352.66 77.26
  A 0.98 0.98 0.0 0 0 353.03 79.15
  L 365.14 78.78
  A 0.89 0.89 0.0 0 1 365.60 80.45
  Z
  M 272.69 77.22
  L 267.34 81.53
  A 1.66 1.66 0.0 0 1 266.66 81.87
  L 265.26 82.24
  A 0.56 0.56 0.0 0 0 264.85 82.90
  Q 265.08 84.07 266.27 85.24
  A 0.60 0.58 -47.5 0 0 267.14 85.19
  L 273.27 77.81
  A 0.42 0.42 0.0 0 0 272.69 77.22
  Z
  M 260.60 81.91
  Q 257.94 80.63 255.09 80.70
  A 1.17 1.17 0.0 0 0 254.27 82.68
  Q 256.50 85.01 257.15 88.22
  C 257.72 90.96 259.89 93.95 260.96 95.56
  A 0.66 0.66 0.0 0 0 262.15 95.07
  L 261.37 91.06
  A 1.16 1.11 -38.9 0 1 261.46 90.36
  L 262.55 88.06
  A 1.00 0.99 -40.6 0 0 262.61 87.34
  L 261.14 82.54
  A 1.05 1.03 5.0 0 0 260.60 81.91
  Z
  M 271.41 83.06
  Q 266.65 91.49 263.38 96.88
  Q 262.48 98.36 260.73 102.44
  A 0.28 0.28 0.0 0 1 260.20 102.31
  L 260.33 100.60
  A 1.10 1.10 0.0 0 0 259.07 99.42
  Q 257.29 99.67 256.58 98.68
  C 255.10 96.61 253.53 98.35 252.99 99.89
  A 0.80 0.79 11.9 0 0 253.68 100.94
  L 255.49 101.08
  A 0.76 0.75 81.8 0 1 256.13 101.57
  L 258.68 108.42
  A 0.44 0.44 0.0 0 0 259.44 108.54
  Q 263.81 103.05 265.66 97.23
  A 6.66 6.60 76.0 0 1 267.21 94.62
  C 270.38 91.33 272.90 87.59 271.75 83.11
  A 0.19 0.18 53.2 0 0 271.41 83.06
  Z
  M 196.80 151.04
  L 195.84 165.77
  A 0.99 0.99 0.0 0 0 196.91 166.82
  Q 198.18 166.71 199.81 167.80
  L 194.28 167.44
  A 4.97 4.57 -76.0 0 0 189.65 170.49
  L 189.61 170.57
  A 2.51 2.51 0.0 0 0 191.64 174.03
  C 194.40 174.34 204.81 174.10 201.77 168.88
  Q 203.58 168.42 202.36 167.29
  Q 203.71 169.08 204.24 170.71
  A 0.14 0.14 0.0 0 0 204.51 170.69
  L 208.84 135.27
  L 209.63 128.37
  A 0.75 0.74 17.2 0 0 209.23 127.62
  Q 207.05 126.49 204.85 126.52
  Q 201.98 125.34 198.76 125.94
  A 2.01 2.01 0.0 0 0 197.12 127.76
  Q 196.29 138.64 195.11 150.67
  Q 195.07 151.14 195.47 151.35
  Q 196.03 151.64 196.80 151.04
  Z
  M 207.70 185.91
  A 0.68 0.68 0.0 0 1 206.41 186.23
  Q 205.12 183.60 202.62 182.41
  Q 191.13 176.99 187.63 175.48
  A 1.75 1.74 -76.9 0 1 186.58 173.79
  L 186.96 165.72
  A 0.55 0.50 68.9 0 1 187.08 165.41
  Q 187.29 165.19 187.31 165.00
  C 187.70 159.93 187.69 157.83 188.62 153.66
  Q 189.27 150.68 189.38 146.36
  A 1.66 0.42 -56.2 0 1 189.69 145.48
  Q 189.79 145.30 189.83 145.00
  Q 190.12 143.07 190.72 134.12
  A 4.34 4.22 -35.5 0 1 190.91 133.08
  L 191.56 131.02
  A 0.72 0.71 88.8 0 0 190.64 130.13
  Q 176.50 135.21 163.54 138.05
  Q 160.34 138.75 161.40 142.17
  C 163.90 150.22 167.92 158.25 170.39 165.62
  Q 173.02 173.48 175.70 181.11
  C 176.29 182.77 177.47 184.68 178.15 186.53
  Q 182.91 199.36 183.59 201.13
  A 2.91 2.87 2.0 0 0 185.06 202.69
  Q 189.63 204.79 202.16 210.87
  Q 204.55 212.03 207.31 213.96
  A 2.02 2.01 -54.2 0 0 210.08 213.51
  C 211.89 211.09 214.43 207.54 217.43 204.90
  Q 219.53 203.04 222.61 199.63
  A 3.64 3.58 -84.7 0 1 223.38 198.98
  Q 225.95 197.34 229.33 193.91
  A 1.98 1.78 3.1 0 1 229.64 193.66
  L 231.90 192.17
  A 1.11 1.09 -15.1 0 0 232.39 191.34
  Q 232.46 190.24 233.21 188.56
  A 1.20 1.19 -45.9 0 0 233.20 187.57
  C 231.69 184.31 229.74 181.39 228.41 178.10
  Q 222.20 162.79 216.84 150.92
  A 0.21 0.21 0.0 0 0 216.44 150.99
  Q 216.20 154.77 215.42 159.20
  Q 214.95 161.85 214.35 167.39
  Q 213.63 174.11 212.77 182.19
  C 212.60 183.82 212.83 184.89 213.51 186.25
  A 0.55 0.55 0.0 0 1 212.64 186.89
  Q 210.97 185.27 208.36 185.25
  A 0.68 0.68 0.0 0 0 207.72 185.70
  Q 207.69 185.78 207.70 185.91
  Z
  M 342.77 157.28
  Q 343.25 157.41 343.75 157.36
  A 0.36 0.36 0.0 0 0 344.06 157.11
  Q 345.76 151.16 346.96 146.65
  C 347.16 145.88 347.92 145.18 348.10 144.74
  A 0.65 0.65 0.0 0 0 347.79 143.94
  Q 347.59 143.83 346.53 143.54
  Q 345.47 143.25 345.24 143.24
  A 0.65 0.65 0.0 0 0 344.57 143.77
  C 344.50 144.24 344.80 145.23 344.58 146.00
  Q 343.31 150.49 341.74 156.47
  A 0.36 0.36 0.0 0 0 341.88 156.85
  Q 342.28 157.15 342.77 157.28
  Z
  M 358.67 176.41
  Q 360.67 178.80 364.29 179.35
  A 0.49 0.49 0.0 0 0 364.77 178.60
  L 363.19 176.20
  A 1.60 1.58 75.3 0 0 361.99 175.49
  L 359.26 175.27
  A 0.70 0.69 72.6 0 0 358.67 176.41
  Z
  M 243.09 189.46
  Q 242.38 189.51 241.92 189.30
  A 0.77 0.76 -64.2 0 1 241.56 188.26
  Q 243.19 185.06 246.64 183.01
  A 0.14 0.13 54.2 0 0 246.67 182.81
  L 246.42 182.50
  A 0.28 0.28 0.0 0 0 246.03 182.46
  C 245.03 183.21 243.70 184.04 242.39 184.46
  Q 238.45 185.75 235.58 188.66
  A 0.54 0.53 -48.1 0 0 235.62 189.45
  L 235.88 189.66
  A 0.43 0.42 45.5 0 0 236.42 189.67
  L 241.07 185.91
  A 0.41 0.41 0.0 0 1 241.64 186.50
  L 234.21 195.44
  A 0.51 0.51 0.0 0 0 234.77 196.25
  C 238.01 195.15 240.82 192.04 243.29 189.97
  A 0.29 0.29 0.0 0 0 243.09 189.46
  Z
  M 345.1291 188.6679
  A 2.58 2.26 -164.9 0 0 347.0313 191.5220
  A 2.58 2.26 -164.9 0 0 350.1109 190.0121
  A 2.58 2.26 -164.9 0 0 348.2087 187.1580
  A 2.58 2.26 -164.9 0 0 345.1291 188.6679
  Z
  M 309.0171 210.6168
  A 1.19 1.00 -41.8 0 0 307.4635 210.6645
  A 1.19 1.00 -41.8 0 0 307.2429 212.2032
  A 1.19 1.00 -41.8 0 0 308.7965 212.1555
  A 1.19 1.00 -41.8 0 0 309.0171 210.6168
  Z
  M 228.20 229.04
  Q 229.36 228.19 231.01 229.66
  C 231.62 230.21 232.52 230.43 233.11 229.72
  A 0.76 0.75 40.4 0 0 233.02 228.66
  Q 231.38 227.25 234.21 225.25
  A 0.64 0.64 0.0 0 0 233.90 224.09
  L 231.95 223.94
  A 2.46 2.43 -67.5 0 0 229.86 224.82
  L 227.22 227.99
  A 0.72 0.72 0.0 0 0 228.20 229.04
  Z"
/>
<path fill="#575864" d="
  M 312.13 35.70
  Q 309.65 38.97 308.24 35.15
  L 312.13 35.70
  Z"
/>
<path fill="#a7b0c3" d="
  M 351.63 36.46
  Q 349.22 42.81 344.23 44.93
  Q 346.90 38.28 351.63 36.46
  Z"
/>
<path fill="#a7b0c3" d="
  M 314.39 43.40
  Q 313.39 43.29 313.23 43.23
  A 1.55 1.36 -59.8 0 1 312.79 40.97
  Q 314.15 39.12 315.72 37.56
  A 1.26 1.25 -48.9 0 1 317.35 37.44
  Q 319.42 39.00 318.70 41.12
  A 1.08 1.07 87.4 0 1 318.14 41.74
  L 314.67 43.35
  A 0.47 0.45 33.7 0 1 314.39 43.40
  Z"
/>
<path fill="#a7b0c3" d="
  M 263.73 47.23
  L 269.97 48.28
  Q 270.66 48.90 271.19 48.49
  A 0.46 0.45 67.7 0 0 271.36 48.06
  L 271.15 46.55
  C 271.91 44.61 274.07 44.43 275.87 43.69
  A 1.80 1.77 5.9 0 0 276.66 43.06
  Q 277.23 42.22 277.43 41.15
  A 1.03 1.03 0.0 0 1 278.95 40.45
  L 280.74 41.48
  A 0.81 0.80 -48.1 0 0 281.63 41.43
  Q 286.00 38.08 285.31 40.98
  L 283.92 47.91
  A 0.98 0.97 28.8 0 0 284.18 48.78
  Q 284.60 49.19 284.61 49.68
  Q 284.62 50.11 283.95 50.32
  Q 283.69 50.40 282.55 51.01
  A 1.90 1.90 0.0 0 0 281.65 52.01
  Q 281.25 53.05 280.26 53.54
  A 0.62 0.61 -32.5 0 0 280.05 54.47
  Q 281.44 56.21 284.08 56.28
  A 0.96 0.96 0.0 0 1 284.81 56.64
  L 285.44 57.41
  A 1.13 1.13 0.0 0 0 287.41 56.99
  L 287.84 55.40
  A 0.68 0.68 0.0 0 1 288.68 54.92
  L 290.05 55.29
  A 1.34 1.34 0.0 0 0 291.51 53.24
  Q 291.07 52.59 289.42 50.33
  Q 289.01 49.76 289.09 49.07
  A 1.32 1.17 15.5 0 1 290.87 48.20
  Q 292.16 48.73 293.59 49.70
  A 0.47 0.47 0.0 0 0 294.32 49.27
  L 294.04 45.36
  A 0.29 0.29 0.0 0 0 293.57 45.16
  Q 291.79 46.62 291.16 46.15
  A 1.39 1.22 -31.8 0 1 291.85 43.90
  Q 292.04 43.85 293.90 43.34
  A 1.08 1.06 -84.9 0 0 294.59 42.75
  Q 295.31 41.13 296.74 41.47
  Q 299.92 43.71 304.28 42.30
  Q 304.26 42.65 305.04 42.27
  L 305.24 41.96
  Q 305.39 41.67 305.40 41.29
  Q 305.49 39.71 305.95 38.58
  Q 306.92 37.88 308.01 37.66
  A 0.74 0.73 -13.7 0 1 308.85 38.16
  L 309.68 40.87
  A 0.48 0.48 0.0 0 1 309.02 41.44
  L 307.54 40.74
  A 0.32 0.32 0.0 0 0 307.09 41.05
  L 307.30 43.93
  A 1.09 1.08 -20.3 0 1 306.85 44.90
  L 301.57 48.73
  A 3.36 3.22 -86.0 0 0 301.04 49.21
  Q 298.37 52.22 297.00 53.21
  C 295.10 54.57 294.14 56.41 292.05 58.33
  A 3.14 2.55 27.8 0 1 289.36 58.87
  Q 288.78 58.73 288.66 58.74
  A 0.85 0.84 88.1 0 0 287.90 59.56
  Q 287.89 60.03 287.70 60.28
  C 286.93 61.29 284.81 62.12 283.93 62.78
  A 1.86 1.84 -50.7 0 1 282.02 62.98
  L 280.61 62.30
  A 3.88 0.47 26.7 0 0 280.14 62.09
  Q 279.57 61.85 280.75 61.74
  A 0.12 0.12 0.0 0 0 280.83 61.55
  C 277.29 56.93 271.92 56.15 266.33 55.43
  Q 264.10 55.15 263.19 53.23
  A 0.91 0.91 0.0 0 1 263.32 52.24
  Q 264.00 51.45 265.23 50.91
  A 0.34 0.33 40.7 0 0 265.18 50.28
  L 261.08 49.17
  A 0.91 0.91 0.0 0 1 261.27 47.38
  L 263.73 47.23
  Z
  M 297.7607 47.9794
  A 1.41 0.54 -55.4 0 0 296.5155 48.8334
  A 1.41 0.54 -55.4 0 0 296.1593 50.3006
  A 1.41 0.54 -55.4 0 0 297.4045 49.4466
  A 1.41 0.54 -55.4 0 0 297.7607 47.9794
  Z"
/>
<path fill="#575864" d="
  M 362.41 37.80
  L 359.58 48.97
  L 358.57 49.13
  A 0.50 0.50 0.0 0 1 358.00 48.51
  L 360.88 37.64
  L 362.41 37.80
  Z"
/>
<path fill="#a7b0c3" d="
  M 363.72 37.87
  Q 362.52 43.75 360.76 49.94
  A 0.74 0.74 0.0 0 1 359.33 49.92
  Q 359.24 49.57 359.58 48.97
  L 362.41 37.80
  L 363.72 37.87
  Z"
/>
<path fill="#575864" d="
  M 324.94 39.88
  Q 326.17 40.99 325.83 41.54
  A 1.54 1.54 0.0 0 1 323.08 41.29
  Q 322.92 40.89 323.55 39.80
  L 324.94 39.88
  Z"
/>
<path fill="#575864" d="
  M 305.40 41.29
  Q 305.39 41.67 305.24 41.96
  L 305.40 41.29
  Z"
/>
<path fill="#575864" d="
  M 305.04 42.27
  Q 304.26 42.65 304.28 42.30
  Q 304.21 42.53 305.04 42.27
  Z"
/>
<path fill="#a7b0c3" d="
  M 405.91 42.18
  L 400.78 60.68
  Q 399.81 60.00 400.07 58.15
  L 402.47 48.52
  Q 403.70 44.18 404.31 43.06
  Q 404.82 42.13 405.91 42.18
  Z"
/>
<path fill="#575864" d="
  M 439.29 45.44
  Q 439.39 46.09 439.70 46.38
  L 433.02 68.80
  A 0.12 0.11 -76.9 0 0 433.11 68.95
  L 433.85 69.07
  A 0.04 0.03 15.7 0 0 433.90 69.05
  L 440.26 46.47
  L 440.73 45.56
  L 468.45 48.92
  L 461.99 69.61
  A 0.20 0.20 0.0 0 0 462.13 69.86
  L 462.43 69.94
  A 0.52 0.52 0.0 0 0 463.06 69.61
  Q 466.32 60.86 468.44 51.71
  Q 468.64 50.86 469.71 49.12
  Q 481.30 49.36 492.59 51.33
  L 487.23 70.36
  A 0.22 0.22 0.0 0 0 487.42 70.64
  L 488.07 70.69
  A 0.08 0.08 0.0 0 0 488.16 70.63
  L 493.72 51.52
  L 512.00 53.65
  L 512.00 56.17
  Q 506.69 75.25 500.85 94.46
  Q 499.31 99.54 497.78 103.78
  Q 496.11 108.40 494.77 113.14
  Q 491.75 123.86 487.73 135.66
  C 487.11 137.47 486.11 138.35 484.27 138.57
  Q 475.70 139.56 467.23 141.04
  Q 466.77 140.44 466.97 139.77
  Q 469.08 132.70 470.87 125.54
  Q 467.90 133.14 465.76 141.35
  Q 462.35 142.55 458.18 143.10
  Q 449.40 144.24 440.69 146.13
  Q 440.52 144.88 440.70 144.24
  Q 442.76 136.86 445.38 129.68
  A 0.14 0.13 21.8 0 0 445.30 129.51
  L 445.30 129.50
  A 0.15 0.13 -66.2 0 0 445.12 129.58
  Q 441.73 137.35 439.92 144.24
  Q 439.44 146.04 440.69 146.13
  L 409.96 151.65
  L 415.42 131.58
  A 0.18 0.17 -76.4 0 0 415.30 131.37
  L 415.29 131.36
  A 0.20 0.18 -73.0 0 0 415.07 131.49
  L 408.43 151.71
  Q 400.89 153.22 393.31 154.76
  C 387.05 156.04 380.47 156.71 373.89 157.73
  L 378.77 137.49
  A 1.36 1.23 -60.0 0 0 378.52 136.32
  Q 378.50 136.30 378.10 136.30
  Q 377.65 135.69 378.12 135.37
  Q 380.39 133.80 380.61 132.02
  Q 382.57 127.93 382.94 123.72
  A 0.55 0.54 -85.8 0 0 382.44 123.13
  L 382.04 123.10
  A 0.60 0.60 0.0 0 0 381.41 123.54
  L 379.48 130.71
  Q 378.07 130.15 379.35 127.57
  A 3.28 3.21 -30.8 0 0 379.70 126.24
  Q 379.82 123.25 381.17 120.71
  Q 381.01 121.52 381.17 121.80
  A 1.35 1.34 40.0 0 0 383.62 121.59
  Q 384.82 118.17 385.23 114.39
  A 3.45 3.31 -30.6 0 1 385.52 113.35
  Q 388.92 105.93 391.46 95.64
  A 0.29 0.24 -39.3 0 0 391.48 95.54
  L 391.94 89.91
  A 2.36 2.32 67.7 0 1 392.48 88.59
  L 393.17 87.76
  A 4.28 4.18 73.9 0 0 393.97 86.27
  L 396.89 76.45
  A 2.61 2.61 0.0 0 0 396.93 75.14
  Q 396.27 72.26 397.10 70.67
  Q 399.62 65.81 400.78 60.68
  L 405.91 42.18
  L 439.29 45.44
  Z
  M 431.90 73.26
  L 429.62 79.53
  A 0.23 0.22 18.4 0 0 429.77 79.82
  L 430.21 79.93
  A 0.20 0.20 0.0 0 0 430.46 79.80
  L 432.36 73.35
  A 0.20 0.20 0.0 0 0 432.21 73.10
  L 432.20 73.10
  A 0.25 0.25 0.0 0 0 431.90 73.26
  Z
  M 461.6522 74.9895
  A 0.48 0.48 0.0 0 0 461.3324 74.3907
  L 461.2942 74.3790
  A 0.48 0.48 0.0 0 0 460.6954 74.6988
  L 455.9278 90.3905
  A 0.48 0.48 0.0 0 0 456.2476 90.9893
  L 456.2858 91.0010
  A 0.48 0.48 0.0 0 0 456.8846 90.6812
  L 461.6522 74.9895
  Z
  M 486.8056 75.2421
  A 0.39 0.39 0.0 0 0 486.5621 74.7473
  L 486.5242 74.7344
  A 0.39 0.39 0.0 0 0 486.0293 74.9779
  L 480.8344 90.2379
  A 0.39 0.39 0.0 0 0 481.0779 90.7327
  L 481.1158 90.7456
  A 0.39 0.39 0.0 0 0 481.6107 90.5021
  L 486.8056 75.2421
  Z
  M 427.75 82.68
  Q 426.45 85.51 426.20 90.25
  A 0.45 0.45 0.0 0 0 427.06 90.47
  L 429.30 85.74
  A 2.12 2.09 -44.0 0 0 429.34 83.99
  L 428.78 82.69
  A 0.56 0.56 0.0 0 0 427.75 82.68
  Z
  M 425.78 92.95
  Q 425.07 93.92 425.17 94.43
  A 0.83 0.79 46.9 0 0 426.75 94.52
  Q 426.88 93.97 426.39 93.00
  A 0.36 0.36 0.0 0 0 425.78 92.95
  Z
  M 454.08 102.04
  Q 456.47 100.43 456.04 96.76
  A 0.76 0.75 -86.1 0 0 455.48 96.11
  L 454.82 95.93
  A 0.52 0.52 0.0 0 1 454.43 95.44
  Q 454.41 94.73 455.06 94.46
  A 0.74 0.74 0.0 0 1 455.89 94.64
  Q 455.93 94.69 456.02 94.79
  A 0.77 0.77 0.0 0 0 457.06 94.88
  Q 457.63 94.46 457.05 93.43
  Q 456.19 91.91 454.02 92.96
  A 1.36 1.35 -5.7 0 0 453.32 93.81
  L 451.59 100.25
  A 1.64 1.63 80.6 0 0 454.08 102.04
  Z
  M 479.8750 94.5013
  A 0.74 0.41 -126.0 0 0 479.9783 95.3410
  A 0.74 0.41 -126.0 0 0 480.7450 95.6987
  A 0.74 0.41 -126.0 0 0 480.6417 94.8590
  A 0.74 0.41 -126.0 0 0 479.8750 94.5013
  Z
  M 479.5649 98.7163
  A 0.27 0.27 0.0 0 0 479.3898 98.3770
  L 479.1230 98.2918
  A 0.27 0.27 0.0 0 0 478.7837 98.4670
  L 471.9551 119.8637
  A 0.27 0.27 0.0 0 0 472.1302 120.2030
  L 472.3970 120.2882
  A 0.27 0.27 0.0 0 0 472.7363 120.1130
  L 479.5649 98.7163
  Z
  M 424.14 99.44
  A 0.27 0.23 40.6 0 0 424.21 99.91
  Q 424.56 100.02 424.72 99.80
  A 0.20 0.19 -47.5 0 0 424.71 99.55
  Q 424.48 99.32 424.14 99.44
  Z
  M 449.8294 114.2501
  A 0.27 0.27 0.0 0 0 449.6455 113.9155
  L 449.2421 113.7984
  A 0.27 0.27 0.0 0 0 448.9075 113.9823
  L 446.2906 122.9899
  A 0.27 0.27 0.0 0 0 446.4745 123.3245
  L 446.8779 123.4416
  A 0.27 0.27 0.0 0 0 447.2125 123.2577
  L 449.8294 114.2501
  Z
  M 420.0028 114.4582
  A 0.68 0.41 -12.9 0 0 419.2485 114.2103
  A 0.68 0.41 -12.9 0 0 418.6772 114.7618
  A 0.68 0.41 -12.9 0 0 419.4315 115.0097
  A 0.68 0.41 -12.9 0 0 420.0028 114.4582
  Z
  M 419.6641 115.0775
  A 6.42 0.68 -74.7 0 0 417.3141 121.0906
  A 6.42 0.68 -74.7 0 0 416.2759 127.4625
  A 6.42 0.68 -74.7 0 0 418.6259 121.4494
  A 6.42 0.68 -74.7 0 0 419.6641 115.0775
  Z
  M 471.36 124.65
  A 0.09 0.09 0.0 0 0 471.23 124.55
  Q 471.09 124.66 471.10 124.79
  A 0.05 0.05 0.0 0 0 471.16 124.84
  Q 471.30 124.82 471.36 124.65
  Z
  M 445.48 128.68
  Q 445.51 128.60 445.56 128.33
  A 0.16 0.14 60.6 0 0 445.27 128.23
  Q 445.21 128.49 445.31 128.68
  A 0.09 0.09 0.0 0 0 445.48 128.68
  Z"
/>
<path fill="#575864" d="
  M 343.95 53.34
  C 343.03 56.58 341.89 61.65 338.79 61.31
  C 335.12 60.90 332.66 59.85 334.36 55.58
  A 0.32 0.31 22.3 0 0 334.18 55.16
  L 333.73 55.00
  A 0.66 0.65 -9.7 0 1 333.46 54.81
  L 326.99 47.46
  A 0.97 0.96 -9.8 0 0 326.66 47.23
  L 322.30 45.63
  A 1.02 1.01 12.6 0 1 321.64 44.60
  L 321.67 44.25
  A 0.50 0.49 14.2 0 1 322.36 43.84
  Q 327.40 46.00 329.23 46.51
  Q 329.86 46.68 330.03 47.19
  A 0.63 0.63 0.0 0 0 330.57 47.62
  Q 336.18 48.16 340.32 50.20
  A 1.90 1.88 61.3 0 0 340.82 50.35
  L 347.42 51.31
  A 0.85 0.84 -83.5 0 1 348.14 52.22
  L 348.12 52.54
  A 0.49 0.48 4.2 0 1 347.60 52.98
  L 344.80 52.75
  A 0.81 0.81 0.0 0 0 343.95 53.34
  Z"
/>
<path fill="#575864" d="
  M 358.04 50.26
  Q 354.10 49.64 350.44 48.13
  Q 348.64 47.39 347.02 47.62
  A 0.55 0.55 0.0 0 0 346.96 48.69
  L 361.27 52.54
  A 0.48 0.48 0.0 0 1 361.60 53.13
  L 361.49 53.56
  A 0.55 0.55 0.0 0 1 360.88 53.96
  Q 355.62 53.11 354.82 52.80
  Q 347.33 49.83 344.23 49.62
  A 3.40 3.40 0.0 0 1 342.72 49.16
  Q 338.29 46.59 332.84 46.04
  A 0.62 0.62 0.0 0 1 332.78 44.81
  Q 335.16 44.32 337.44 45.37
  Q 339.66 46.41 342.66 46.80
  C 344.37 47.03 345.69 46.25 347.21 46.11
  A 2.91 2.80 -34.7 0 1 348.69 46.35
  Q 352.59 48.09 357.04 48.02
  A 0.57 0.55 -4.1 0 1 357.60 48.49
  Q 357.71 49.22 358.21 50.02
  A 0.16 0.16 0.0 0 1 358.04 50.26
  Z"
/>
<path fill="#677695" d="
  M 440.73 45.56
  L 440.26 46.47
  Q 440.27 46.35 440.26 46.22
  A 0.08 0.08 0.0 0 0 440.17 46.15
  Q 439.93 46.16 439.70 46.38
  Q 439.39 46.09 439.29 45.44
  Q 439.93 45.65 440.73 45.56
  Z"
/>
<path fill="#a7b0c3" d="
  M 440.26 46.47
  L 433.90 69.05
  A 0.04 0.03 15.7 0 1 433.85 69.07
  L 433.11 68.95
  A 0.12 0.11 -76.9 0 1 433.02 68.80
  L 439.70 46.38
  Q 439.93 46.16 440.17 46.15
  A 0.08 0.08 0.0 0 1 440.26 46.22
  Q 440.27 46.35 440.26 46.47
  Z"
/>
<path fill="#677695" d="
  M 271.15 46.55
  L 271.36 48.06
  A 0.46 0.45 67.7 0 1 271.19 48.49
  Q 270.66 48.90 269.97 48.28
  L 271.15 46.55
  Z"
/>
<path fill="#575864" d="
  M 321.76 50.15
  A 0.21 0.21 0.0 0 1 321.57 50.37
  L 321.39 50.38
  A 8.49 1.18 -3.6 0 1 312.84 49.74
  L 312.84 49.70
  A 8.49 1.18 -3.6 0 1 321.24 47.99
  L 321.42 47.98
  A 0.21 0.21 0.0 0 1 321.64 48.17
  L 321.76 50.15
  Z"
/>
<ellipse fill="#677695" cx="0.00" cy="0.00" transform="translate(296.96,49.14) rotate(-55.4)" rx="1.41" ry="0.54"/>
<path fill="#575864" d="
  M 402.47 48.52
  L 400.07 58.15
  Q 400.18 57.07 399.25 59.05
  L 401.36 48.70
  L 401.49 49.11
  A 0.32 0.32 0.0 0 0 402.07 49.19
  L 402.47 48.52
  Z"
/>
<path fill="#a7b0c3" d="
  M 469.71 49.12
  Q 468.64 50.86 468.44 51.71
  Q 466.32 60.86 463.06 69.61
  A 0.52 0.52 0.0 0 1 462.43 69.94
  L 462.13 69.86
  A 0.20 0.20 0.0 0 1 461.99 69.61
  L 468.45 48.92
  Q 469.41 48.69 469.71 49.12
  Z"
/>
<path fill="#a7b0c3" d="
  M 493.72 51.52
  L 488.16 70.63
  A 0.08 0.08 0.0 0 1 488.07 70.69
  L 487.42 70.64
  A 0.22 0.22 0.0 0 1 487.23 70.36
  L 492.59 51.33
  Q 493.03 51.63 493.72 51.52
  Z"
/>
<path fill="#575864" d="
  M 164.07 73.39
  L 164.06 73.37
  A 0.55 0.55 0.0 0 1 164.30 72.67
  Q 180.13 64.21 192.68 60.14
  C 194.40 59.58 195.98 58.38 197.56 57.73
  A 4.34 4.29 28.7 0 1 198.47 57.47
  C 203.55 56.63 207.67 54.03 212.59 52.23
  A 0.58 0.58 0.0 0 1 213.30 52.51
  L 213.32 52.54
  A 0.72 0.72 0.0 0 1 213.07 53.49
  Q 205.18 58.38 202.11 59.34
  Q 194.32 61.80 185.42 65.38
  C 183.84 66.01 182.17 67.36 180.01 68.20
  Q 171.61 71.45 164.65 73.66
  A 0.48 0.47 69.7 0 1 164.07 73.39
  Z"
/>
<path fill="#575864" d="
  M 331.05 68.27
  Q 330.66 69.26 331.03 69.99
  A 0.64 0.64 0.0 0 1 330.33 70.91
  L 327.82 70.40
  A 1.16 1.16 0.0 0 0 326.44 71.74
  Q 326.78 73.58 326.38 74.92
  A 0.81 0.81 0.0 0 0 326.86 75.90
  L 332.94 78.36
  Q 334.35 79.34 336.35 78.83
  A 0.14 0.13 69.9 0 1 336.51 78.91
  L 336.74 79.46
  A 0.24 0.23 77.0 0 1 336.54 79.79
  Q 333.62 79.93 332.40 79.58
  Q 324.26 77.21 316.46 74.89
  A 0.32 0.32 0.0 0 1 316.25 74.47
  L 316.43 73.99
  A 0.32 0.30 16.4 0 1 316.80 73.80
  Q 318.67 74.27 319.80 74.16
  A 0.84 0.83 -88.7 0 0 320.55 73.44
  C 320.83 71.45 321.18 68.04 323.02 66.80
  A 1.64 1.37 -41.3 0 0 323.40 64.39
  Q 322.94 64.03 322.86 63.56
  Q 322.75 62.88 322.98 62.46
  Q 323.95 60.75 324.10 60.04
  A 0.82 0.82 0.0 0 1 325.62 59.82
  Q 326.47 61.40 324.87 61.21
  A 0.36 0.36 0.0 0 1 324.80 60.52
  Q 326.10 60.08 327.12 60.15
  A 0.89 0.89 0.0 0 0 327.88 58.71
  Q 327.39 58.11 326.11 57.41
  Q 325.54 57.09 325.27 57.19
  Q 324.61 57.45 324.66 56.84
  A 1.20 0.94 -58.3 0 1 324.69 56.68
  L 325.69 52.24
  A 0.16 0.16 0.0 0 1 325.98 52.19
  Q 326.23 52.57 326.28 53.19
  A 0.43 0.42 -7.0 0 0 326.77 53.57
  Q 329.46 53.18 331.97 55.21
  Q 332.95 56.00 332.52 56.63
  A 0.34 0.33 -59.4 0 0 332.64 57.12
  Q 333.59 57.62 332.85 59.16
  C 331.95 61.02 331.38 63.22 330.46 63.86
  A 0.15 0.15 0.0 0 0 330.57 64.13
  Q 331.12 64.05 332.13 64.70
  A 0.52 0.51 -55.7 0 1 332.26 65.44
  Q 331.23 66.80 330.01 67.22
  A 0.60 0.60 0.0 0 0 329.94 68.33
  Q 330.31 68.50 331.05 68.27
  Z"
/>
<path fill="#575864" d="
  M 196.48 55.67
  Q 193.42 57.44 190.81 57.14
  Q 189.40 56.98 187.80 57.76
  Q 183.21 59.99 180.33 61.12
  Q 174.21 63.54 173.58 63.81
  Q 163.57 68.14 151.95 71.78
  C 150.47 72.24 149.32 73.10 147.94 73.21
  A 0.28 0.28 0.0 0 1 147.77 72.70
  Q 150.91 70.58 154.16 69.19
  Q 164.01 64.99 173.73 61.80
  Q 179.38 59.94 183.82 57.99
  C 186.73 56.72 193.70 53.51 196.48 55.09
  A 0.33 0.33 0.0 0 1 196.48 55.67
  Z"
/>
<path fill="#a7b0c3" d="
  M 359.46 59.96
  L 362.06 63.50
  A 1.22 1.22 0.0 0 0 364.19 63.21
  Q 365.01 61.03 367.76 62.36
  Q 367.77 63.56 369.26 63.70
  Q 371.15 63.89 373.17 63.72
  A 1.14 1.13 5.1 0 1 374.36 65.14
  L 373.03 70.06
  A 0.82 0.81 -75.6 0 1 372.06 70.64
  Q 371.31 70.45 371.34 69.57
  A 0.82 0.81 11.6 0 0 370.81 68.78
  Q 368.44 67.91 367.25 71.41
  Q 366.08 74.82 366.10 75.11
  A 0.51 0.51 0.0 0 1 365.60 75.67
  L 356.30 75.92
  A 0.07 0.07 0.0 0 1 356.28 75.79
  L 360.12 74.62
  A 0.53 0.53 0.0 0 0 360.09 73.60
  Q 357.18 72.90 355.67 70.13
  A 1.43 1.43 0.0 0 0 353.18 70.08
  Q 350.95 73.81 346.93 75.63
  A 2.44 2.44 0.0 0 1 343.86 74.72
  Q 342.82 73.08 341.26 72.42
  A 0.84 0.84 0.0 0 1 340.75 71.53
  L 341.82 64.18
  A 1.64 1.63 -84.9 0 1 343.49 62.78
  L 353.45 63.15
  A 2.07 2.05 -63.7 0 0 354.85 62.67
  Q 356.71 61.13 356.30 58.40
  A 0.02 0.01 44.0 0 0 356.27 58.40
  Q 356.21 60.26 354.97 60.12
  Q 352.93 59.89 349.65 57.61
  A 0.05 0.03 -80.8 0 1 349.63 57.57
  L 349.86 56.72
  A 0.22 0.22 0.0 0 1 350.21 56.61
  L 354.36 60.06
  A 0.60 0.58 67.7 0 0 354.68 60.20
  Q 355.81 60.32 356.10 58.23
  A 0.75 0.75 0.0 0 1 357.20 57.68
  Q 358.64 58.44 359.46 59.96
  Z"
/>
<path fill="#575864" d="
  M 367.76 62.36
  Q 365.01 61.03 364.19 63.21
  A 1.22 1.22 0.0 0 1 362.06 63.50
  L 359.46 59.96
  L 361.67 62.38
  A 0.84 0.84 0.0 0 0 363.05 62.17
  L 364.56 58.99
  A 1.01 1.00 46.8 0 1 366.40 59.05
  L 367.76 62.36
  Z"
/>
<path fill="#a7b0c3" d="
  M 289.55 66.62
  A 0.27 0.27 0.0 0 1 289.38 66.28
  L 289.49 65.98
  A 5.71 0.60 -70.9 0 1 291.92 60.78
  L 292.72 61.05
  A 5.71 0.60 -70.9 0 1 291.42 66.64
  L 291.31 66.95
  A 0.27 0.27 0.0 0 1 290.97 67.11
  L 289.55 66.62
  Z"
/>
<path fill="#a7b0c3" d="
  M 268.45 64.43
  Q 264.79 64.51 261.70 63.21
  A 0.64 0.64 0.0 0 1 261.90 61.99
  L 269.48 61.43
  A 0.43 0.43 0.0 0 1 269.92 62.01
  L 269.24 63.87
  A 0.87 0.86 -79.9 0 1 268.45 64.43
  Z"
/>
<path fill="#677695" d="
  M 199.97 63.11
  A 0.23 0.23 0.0 0 1 200.12 63.54
  L 161.72 85.03
  A 3.13 2.53 4.1 0 0 161.38 85.25
  Q 152.88 91.71 151.35 92.57
  C 149.41 93.66 145.74 95.24 143.66 93.81
  A 0.44 0.44 0.0 0 1 143.76 93.04
  L 146.50 92.01
  A 1.71 1.42 10.5 0 0 146.93 91.77
  C 149.21 89.95 151.99 89.03 154.38 87.26
  Q 161.07 82.32 168.91 78.42
  C 171.30 77.23 174.22 74.52 176.98 73.24
  Q 179.32 72.16 189.99 66.52
  C 192.74 65.06 196.81 63.66 199.97 63.11
  Z"
/>
<path fill="#575864" d="
  M 276.28 64.73
  A 0.76 0.76 0.0 0 0 276.08 63.29
  L 275.66 63.23
  A 0.05 0.05 0.0 0 1 275.66 63.13
  Q 275.92 63.08 275.95 63.08
  Q 276.04 63.05 276.09 63.08
  Q 280.78 65.29 286.09 65.09
  A 0.26 0.26 0.0 0 1 286.19 65.60
  C 284.76 66.12 283.22 66.68 281.31 66.28
  Q 279.30 65.85 277.29 66.86
  A 2.24 2.11 -58.1 0 1 276.39 67.10
  C 273.12 67.25 271.13 67.59 268.93 65.84
  A 0.25 0.25 0.0 0 1 269.13 65.40
  Q 273.21 66.11 276.28 64.73
  Z"
/>
<path fill="#575864" d="
  M 339.29 68.07
  A 0.55 0.55 0.0 0 1 338.58 68.33
  Q 335.96 67.18 335.58 63.90
  A 0.64 0.64 0.0 0 1 336.09 63.20
  Q 338.59 62.68 339.57 64.22
  A 1.93 1.92 27.8 0 1 339.87 65.18
  Q 339.94 66.79 339.29 68.07
  Z"
/>
<ellipse fill="#a7b0c3" cx="0.00" cy="0.00" transform="translate(258.21,66.71) rotate(-24.3)" rx="1.60" ry="1.17"/>
<ellipse fill="#575864" cx="0.00" cy="0.00" transform="translate(267.60,73.13) rotate(-76.8)" rx="5.88" ry="1.55"/>
<path fill="#a7b0c3" d="
  M 339.48 81.80
  L 339.09 81.44
  L 337.15 78.59
  A 0.83 0.82 71.6 0 0 336.43 78.22
  L 332.94 78.36
  L 326.86 75.90
  A 0.81 0.81 0.0 0 1 326.38 74.92
  Q 326.78 73.58 326.44 71.74
  A 1.16 1.16 0.0 0 1 327.82 70.40
  L 330.33 70.91
  A 0.64 0.64 0.0 0 0 331.03 69.99
  Q 330.66 69.26 331.05 68.27
  Q 332.47 67.83 333.37 69.45
  Q 334.47 71.43 335.66 73.03
  A 1.20 1.19 75.7 0 0 336.46 73.51
  L 339.51 73.92
  A 1.95 1.91 -21.7 0 1 340.44 74.31
  Q 342.75 76.15 347.02 77.14
  Q 348.15 77.40 348.33 77.90
  Q 348.52 78.41 348.55 78.88
  A 0.70 0.70 0.0 0 0 349.26 79.52
  L 356.15 79.42
  A 0.12 0.11 -69.2 0 1 356.23 79.62
  Q 356.22 79.64 356.22 79.66
  A 0.12 0.06 83.8 0 1 356.17 79.78
  L 342.95 80.75
  A 1.16 1.16 0.0 0 1 341.77 79.95
  Q 341.51 79.14 340.83 78.84
  A 0.28 0.28 0.0 0 0 340.49 79.26
  Q 340.51 79.28 340.72 79.37
  A 0.75 0.75 0.0 0 1 341.17 80.07
  Q 341.15 81.42 339.48 81.80
  Z"
/>
<rect fill="#575864" x="-1.61" y="-1.16" transform="translate(337.52,71.00) rotate(4.5)" width="3.22" height="2.32" rx="1.02"/>
<path fill="#a7b0c3" d="
  M 431.90 73.26
  A 0.25 0.25 0.0 0 1 432.20 73.10
  L 432.21 73.10
  A 0.20 0.20 0.0 0 1 432.36 73.35
  L 430.46 79.80
  A 0.20 0.20 0.0 0 1 430.21 79.93
  L 429.77 79.82
  A 0.23 0.22 18.4 0 1 429.62 79.53
  L 431.90 73.26
  Z"
/>
<rect fill="#a7b0c3" x="-0.50" y="-8.68" transform="translate(458.79,82.69) rotate(16.9)" width="1.00" height="17.36" rx="0.48"/>
<rect fill="#a7b0c3" x="-0.41" y="-8.45" transform="translate(483.82,82.74) rotate(18.8)" width="0.82" height="16.90" rx="0.39"/>
<path fill="#575864" d="
  M 365.14 78.78
  L 353.03 79.15
  A 0.98 0.98 0.0 0 1 352.66 77.26
  C 357.95 75.29 366.17 76.50 370.22 76.21
  A 1.90 1.80 -59.4 0 0 370.89 76.02
  L 372.11 75.39
  A 1.40 1.39 41.8 0 1 373.24 75.33
  L 382.49 78.73
  A 1.78 1.78 0.0 0 1 383.59 80.86
  L 380.76 91.37
  A 0.13 0.12 13.3 0 1 380.62 91.45
  L 380.07 91.30
  A 0.37 0.37 0.0 0 1 379.81 90.84
  L 382.39 81.23
  A 1.55 1.55 0.0 0 0 380.94 79.27
  Q 373.78 79.05 364.21 79.15
  A 0.05 0.04 27.8 0 1 364.17 79.07
  Q 364.21 79.06 364.22 79.04
  A 1.03 0.46 64.7 0 1 365.33 79.99
  Q 365.48 80.52 365.60 80.45
  A 0.89 0.89 0.0 0 0 365.14 78.78
  Z"
/>
<path fill="#575864" d="
  M 272.69 77.22
  A 0.42 0.42 0.0 0 1 273.27 77.81
  L 267.14 85.19
  A 0.60 0.58 -47.5 0 1 266.27 85.24
  Q 265.08 84.07 264.85 82.90
  A 0.56 0.56 0.0 0 1 265.26 82.24
  L 266.66 81.87
  A 1.66 1.66 0.0 0 0 267.34 81.53
  L 272.69 77.22
  Z"
/>
<path fill="#575864" d="
  M 261.14 82.54
  L 262.61 87.34
  A 1.00 0.99 -40.6 0 1 262.55 88.06
  L 261.46 90.36
  A 1.16 1.11 -38.9 0 0 261.37 91.06
  L 262.15 95.07
  A 0.66 0.66 0.0 0 1 260.96 95.56
  C 259.89 93.95 257.72 90.96 257.15 88.22
  Q 256.50 85.01 254.27 82.68
  A 1.17 1.17 0.0 0 1 255.09 80.70
  Q 257.94 80.63 260.60 81.91
  A 1.05 1.03 5.0 0 1 261.14 82.54
  Z"
/>
<path fill="#575864" d="
  M 339.09 81.44
  L 339.48 81.80
  Q 339.93 81.87 340.26 82.01
  A 0.34 0.32 20.2 0 1 340.45 82.39
  L 338.33 90.24
  A 1.51 1.50 29.0 0 0 338.76 91.74
  Q 340.17 93.05 340.46 94.36
  A 2.85 2.77 -47.6 0 1 340.49 95.33
  Q 339.61 101.13 337.75 107.53
  Q 337.53 108.26 337.08 108.87
  A 1.64 1.50 73.3 0 0 336.82 109.41
  Q 333.07 123.06 331.07 131.70
  Q 330.39 134.64 326.95 136.77
  A 3.56 3.54 -4.8 0 0 325.51 138.46
  Q 323.40 143.63 322.67 146.36
  Q 322.10 148.53 321.81 149.16
  Q 321.09 150.75 320.86 151.92
  Q 319.64 158.04 318.31 161.68
  C 317.25 164.60 317.17 166.40 316.72 169.46
  A 4.34 4.06 -31.0 0 1 316.42 170.51
  Q 314.00 176.15 312.93 183.71
  A 0.86 0.67 -38.0 0 1 312.90 183.83
  L 309.39 195.78
  A 0.41 0.41 0.0 0 0 310.04 196.21
  C 312.08 194.50 312.09 191.80 312.83 188.12
  Q 313.20 186.24 314.25 183.12
  Q 319.17 168.41 323.05 149.43
  A 0.36 0.36 0.0 0 1 323.71 149.31
  L 324.62 150.68
  A 2.10 2.10 0.0 0 1 324.92 152.22
  Q 323.67 158.48 322.46 162.08
  Q 320.92 166.67 319.81 171.90
  Q 317.21 184.10 315.04 190.85
  Q 313.15 196.77 313.05 196.97
  A 5.14 5.07 -12.8 0 1 312.20 198.30
  L 309.39 201.48
  A 5.05 4.99 75.4 0 0 308.36 203.26
  Q 306.37 209.12 304.29 214.73
  Q 304.01 215.46 304.03 217.05
  Q 300.93 217.27 297.34 215.77
  Q 297.15 214.99 297.71 214.35
  A 0.83 0.73 -78.3 0 1 297.99 214.14
  L 301.16 212.68
  A 4.56 4.55 -5.8 0 0 303.68 209.60
  L 304.88 204.51
  Q 305.58 203.38 305.52 202.45
  A 0.97 0.95 13.6 0 0 305.04 201.68
  L 295.32 196.07
  A 0.79 0.78 18.5 0 1 294.93 195.30
  Q 295.12 193.74 297.17 193.01
  L 302.03 192.61
  A 1.86 1.84 8.8 0 0 303.57 191.49
  C 304.52 189.25 305.80 186.85 306.49 183.97
  Q 310.01 169.33 313.55 157.32
  A 3.06 3.04 44.8 0 0 313.54 155.56
  L 312.66 152.68
  A 1.76 1.75 64.8 0 1 313.36 150.71
  L 319.19 146.88
  A 4.93 4.92 76.8 0 0 321.36 143.38
  Q 321.64 141.12 322.62 138.46
  Q 322.81 137.94 322.70 137.57
  Q 322.51 136.91 321.86 136.94
  A 0.61 0.59 58.2 0 1 321.47 136.84
  L 318.02 134.55
  L 313.54 131.13
  A 0.45 0.45 0.0 0 1 313.68 130.34
  C 316.84 129.37 321.26 127.33 322.51 123.74
  Q 325.18 116.10 327.96 103.87
  A 0.24 0.24 0.0 0 0 327.79 103.59
  L 327.78 103.59
  A 0.25 0.24 14.3 0 0 327.48 103.76
  Q 326.10 108.85 325.20 113.17
  Q 325.01 114.08 325.00 114.09
  A 0.25 0.25 0.0 0 1 324.70 113.72
  Q 325.23 112.89 327.88 98.23
  C 328.18 96.57 328.98 94.35 329.62 92.64
  A 1.20 1.19 88.9 0 1 330.28 91.95
  L 334.23 90.25
  A 3.95 3.94 78.3 0 0 336.62 86.59
  Q 336.61 84.14 337.40 82.18
  Q 337.80 81.18 339.09 81.44
  Z
  M 326.88 132.73
  C 328.82 130.59 329.80 128.35 330.40 125.43
  Q 333.32 111.11 338.28 92.89
  A 0.40 0.39 -9.2 0 0 337.68 92.46
  L 337.04 92.88
  A 1.15 1.12 -10.0 0 0 336.57 93.53
  L 326.12 132.32
  A 0.45 0.44 -16.5 0 0 326.88 132.73
  Z"
/>
<path fill="#a7b0c3" d="
  M 271.75 83.11
  C 272.90 87.59 270.38 91.33 267.21 94.62
  A 6.66 6.60 76.0 0 0 265.66 97.23
  Q 263.81 103.05 259.44 108.54
  A 0.44 0.44 0.0 0 1 258.68 108.42
  L 256.13 101.57
  A 0.76 0.75 81.8 0 0 255.49 101.08
  L 253.68 100.94
  A 0.80 0.79 11.9 0 1 252.99 99.89
  C 253.53 98.35 255.10 96.61 256.58 98.68
  Q 257.29 99.67 259.07 99.42
  A 1.10 1.10 0.0 0 1 260.33 100.60
  L 260.20 102.31
  A 0.28 0.28 0.0 0 0 260.73 102.44
  Q 262.48 98.36 263.38 96.88
  Q 266.65 91.49 271.41 83.06
  A 0.19 0.18 53.2 0 1 271.75 83.11
  Z"
/>
<path fill="#677695" d="
  M 24.05 92.12
  A 0.37 0.37 0.0 0 1 24.11 92.85
  Q 23.37 93.02 22.92 93.37
  A 1.41 1.38 26.0 0 1 22.08 93.65
  Q 19.55 93.62 15.89 94.98
  A 1.01 1.01 0.0 0 1 14.91 93.24
  L 15.77 92.54
  A 0.88 0.86 70.9 0 0 16.09 91.86
  L 16.07 88.36
  A 1.50 1.49 -8.1 0 1 17.16 86.91
  L 17.21 86.90
  A 1.09 1.09 0.0 0 1 18.56 87.83
  L 19.05 91.98
  A 0.60 0.60 0.0 0 0 19.79 92.49
  Q 21.85 91.95 24.05 92.12
  Z"
/>
<path fill="#677695" d="
  M 326.88 132.73
  A 0.45 0.44 -16.5 0 1 326.12 132.32
  L 336.57 93.53
  A 1.15 1.12 -10.0 0 1 337.04 92.88
  L 337.68 92.46
  A 0.40 0.39 -9.2 0 1 338.28 92.89
  Q 333.32 111.11 330.40 125.43
  C 329.80 128.35 328.82 130.59 326.88 132.73
  Z"
/>
<path fill="#677695" d="
  M 454.08 102.04
  A 1.64 1.63 80.6 0 1 451.59 100.25
  L 453.32 93.81
  A 1.36 1.35 -5.7 0 1 454.02 92.96
  Q 456.19 91.91 457.05 93.43
  Q 457.63 94.46 457.06 94.88
  A 0.77 0.77 0.0 0 1 456.02 94.79
  Q 455.93 94.69 455.89 94.64
  A 0.74 0.74 0.0 0 0 455.06 94.46
  Q 454.41 94.73 454.43 95.44
  A 0.52 0.52 0.0 0 0 454.82 95.93
  L 455.48 96.11
  A 0.76 0.75 -86.1 0 1 456.04 96.76
  Q 456.47 100.43 454.08 102.04
  Z"
/>
<path fill="#677695" d="
  M 236.95 94.99
  A 0.43 0.43 0.0 0 1 236.99 95.84
  Q 225.18 98.25 213.13 95.76
  A 0.16 0.16 0.0 0 1 213.00 95.58
  L 213.00 95.57
  A 0.24 0.24 0.0 0 1 213.27 95.37
  Q 216.81 95.86 220.34 95.35
  C 226.57 94.46 231.03 94.45 236.95 94.99
  Z"
/>
<ellipse fill="#677695" cx="0.00" cy="0.00" transform="translate(480.31,95.10) rotate(-126.0)" rx="0.74" ry="0.41"/>
<rect fill="#a7b0c3" x="-0.41" y="-11.50" transform="translate(475.76,109.29) rotate(17.7)" width="0.82" height="23.00" rx="0.27"/>
<path fill="#a7b0c3" d="
  M 318.02 134.55
  L 321.47 136.84
  A 0.61 0.59 58.2 0 0 321.86 136.94
  Q 322.51 136.91 322.70 137.57
  Q 322.81 137.94 322.62 138.46
  Q 321.64 141.12 321.36 143.38
  A 4.93 4.92 76.8 0 1 319.19 146.88
  L 313.36 150.71
  A 1.76 1.75 64.8 0 0 312.66 152.68
  L 313.54 155.56
  A 3.06 3.04 44.8 0 1 313.55 157.32
  Q 310.01 169.33 306.49 183.97
  C 305.80 186.85 304.52 189.25 303.57 191.49
  A 1.86 1.84 8.8 0 1 302.03 192.61
  L 297.17 193.01
  Q 299.99 179.71 301.37 174.87
  Q 303.20 168.44 303.75 165.35
  Q 304.22 162.77 304.86 160.74
  Q 306.30 156.24 306.45 156.12
  A 0.40 0.39 46.4 0 0 306.46 155.54
  Q 305.77 154.91 306.79 153.47
  A 0.79 0.78 -28.3 0 0 306.94 152.98
  Q 306.90 151.94 305.45 151.82
  Q 309.94 149.47 314.59 147.50
  Q 318.45 145.88 319.07 144.94
  Q 320.58 142.69 320.53 139.83
  A 2.37 2.35 -75.9 0 0 319.34 137.83
  L 313.41 134.46
  Q 312.83 133.61 311.13 132.83
  C 309.34 132.02 308.46 130.87 306.20 131.29
  A 0.90 0.89 -86.6 0 0 305.52 131.90
  Q 305.16 133.07 303.90 133.84
  A 1.18 1.08 25.0 0 1 303.39 134.00
  L 299.03 134.32
  A 0.39 0.38 3.8 0 1 298.62 133.86
  L 299.77 128.27
  A 2.85 2.84 21.9 0 0 298.50 125.30
  C 294.30 122.67 290.64 120.97 286.99 117.97
  Q 285.34 116.61 279.46 112.86
  Q 278.83 112.46 278.06 112.53
  A 0.17 0.17 0.0 0 1 277.91 112.26
  Q 278.12 112.00 278.17 111.99
  Q 279.66 111.74 281.15 112.16
  Q 287.06 113.85 291.13 117.92
  A 1.41 1.36 79.8 0 0 291.49 118.18
  L 295.57 120.11
  A 1.29 1.25 -3.3 0 1 296.07 120.54
  L 296.31 120.91
  A 1.22 1.17 87.9 0 0 296.69 121.28
  L 318.02 134.55
  Z"
/>
<path fill="#677695" d="
  M 27.53 115.72
  Q 27.97 115.73 27.27 115.28
  A 0.48 0.48 0.0 0 1 27.43 114.41
  Q 30.98 113.60 32.50 114.31
  Q 36.45 116.17 38.28 115.85
  A 1.51 1.51 0.0 0 1 39.57 116.23
  Q 39.89 116.53 41.19 118.82
  Q 43.11 122.20 46.97 123.53
  A 0.57 0.56 -76.6 0 1 47.35 124.15
  Q 46.60 129.14 42.22 129.32
  A 2.53 2.51 -33.1 0 1 41.06 129.08
  L 34.90 126.16
  A 0.95 0.94 11.1 0 1 34.37 125.38
  L 34.23 123.43
  A 1.17 1.16 10.5 0 0 33.56 122.46
  L 32.84 122.12
  A 0.56 0.56 0.0 0 1 32.65 121.26
  Q 33.94 119.70 33.84 117.66
  A 1.75 1.74 11.4 0 0 32.85 116.17
  L 31.66 115.60
  A 0.81 0.81 0.0 0 0 30.50 116.40
  L 30.73 119.63
  A 0.45 0.44 -26.9 0 1 30.61 119.98
  Q 30.26 120.35 30.03 120.35
  A 0.32 0.32 0.0 0 1 29.82 119.79
  Q 29.93 119.68 30.22 119.66
  A 0.24 0.24 0.0 0 0 30.43 119.46
  Q 30.75 116.88 28.74 114.96
  A 0.81 0.79 54.6 0 0 27.87 114.80
  L 27.39 115.01
  A 0.37 0.37 0.0 0 0 27.53 115.72
  Z"
/>
<rect fill="#a7b0c3" x="-0.48" y="-4.96" transform="translate(448.06,118.62) rotate(16.2)" width="0.96" height="9.92" rx="0.27"/>
<ellipse fill="#a7b0c3" cx="0.00" cy="0.00" transform="translate(417.97,121.27) rotate(-74.7)" rx="6.42" ry="0.68"/>
<path fill="#a7b0c3" d="
  M 380.61 132.02
  Q 380.21 132.02 379.91 131.99
  Q 379.47 131.95 379.32 131.69
  Q 379.10 131.31 379.48 130.71
  L 381.41 123.54
  A 0.60 0.60 0.0 0 1 382.04 123.10
  L 382.44 123.13
  A 0.55 0.54 -85.8 0 1 382.94 123.72
  Q 382.57 127.93 380.61 132.02
  Z"
/>
<path fill="#a7b0c3" d="
  M 471.36 124.65
  Q 471.30 124.82 471.16 124.84
  A 0.05 0.05 0.0 0 1 471.10 124.79
  Q 471.09 124.66 471.23 124.55
  A 0.09 0.09 0.0 0 1 471.36 124.65
  Z"
/>
<path fill="#a7b0c3" d="
  M 467.23 141.04
  L 465.76 141.35
  Q 467.90 133.14 470.87 125.54
  Q 469.08 132.70 466.97 139.77
  Q 466.77 140.44 467.23 141.04
  Z"
/>
<path fill="#a7b0c3" d="
  M 204.85 126.52
  Q 205.98 127.86 206.23 128.76
  Q 207.09 131.81 208.84 135.27
  L 204.51 170.69
  A 0.14 0.14 0.0 0 1 204.24 170.71
  Q 203.71 169.08 202.36 167.29
  Q 202.63 160.75 203.79 153.86
  C 204.20 151.38 204.29 145.89 201.81 144.36
  A 2.12 2.11 31.0 0 0 198.88 145.09
  Q 197.28 147.84 196.80 151.04
  Q 196.03 151.64 195.47 151.35
  Q 195.07 151.14 195.11 150.67
  Q 196.29 138.64 197.12 127.76
  A 2.01 2.01 0.0 0 1 198.76 125.94
  Q 201.98 125.34 204.85 126.52
  Z"
/>
<path fill="#575864" d="
  M 208.84 135.27
  Q 207.09 131.81 206.23 128.76
  Q 205.98 127.86 204.85 126.52
  Q 207.05 126.49 209.23 127.62
  A 0.75 0.74 17.2 0 1 209.63 128.37
  L 208.84 135.27
  Z"
/>
<path fill="#a7b0c3" d="
  M 445.31 128.68
  Q 445.21 128.49 445.27 128.23
  A 0.16 0.14 60.6 0 1 445.56 128.33
  Q 445.51 128.60 445.48 128.68
  A 0.09 0.09 0.0 0 1 445.31 128.68
  Z"
/>
<path fill="#a7b0c3" d="
  M 440.69 146.13
  Q 439.44 146.04 439.92 144.24
  Q 441.73 137.35 445.12 129.58
  A 0.15 0.13 -66.2 0 1 445.30 129.50
  L 445.30 129.51
  A 0.14 0.13 21.8 0 1 445.38 129.68
  Q 442.76 136.86 440.70 144.24
  Q 440.52 144.88 440.69 146.13
  Z"
/>
<path fill="#a7b0c3" d="
  M 207.70 185.91
  Q 207.69 185.78 207.72 185.70
  A 0.68 0.68 0.0 0 1 208.36 185.25
  Q 210.97 185.27 212.64 186.89
  A 0.55 0.55 0.0 0 0 213.51 186.25
  C 212.83 184.89 212.60 183.82 212.77 182.19
  Q 213.63 174.11 214.35 167.39
  Q 214.95 161.85 215.42 159.20
  Q 216.20 154.77 216.44 150.99
  A 0.21 0.21 0.0 0 1 216.84 150.92
  Q 222.20 162.79 228.41 178.10
  C 229.74 181.39 231.69 184.31 233.20 187.57
  A 1.20 1.19 -45.9 0 1 233.21 188.56
  Q 232.46 190.24 232.39 191.34
  A 1.11 1.09 -15.1 0 1 231.90 192.17
  L 229.64 193.66
  A 1.98 1.78 3.1 0 0 229.33 193.91
  Q 225.95 197.34 223.38 198.98
  A 3.64 3.58 -84.7 0 0 222.61 199.63
  Q 219.53 203.04 217.43 204.90
  C 214.43 207.54 211.89 211.09 210.08 213.51
  A 2.02 2.01 -54.2 0 1 207.31 213.96
  Q 204.55 212.03 202.16 210.87
  Q 189.63 204.79 185.06 202.69
  A 2.91 2.87 2.0 0 1 183.59 201.13
  Q 182.91 199.36 178.15 186.53
  C 177.47 184.68 176.29 182.77 175.70 181.11
  Q 173.02 173.48 170.39 165.62
  C 167.92 158.25 163.90 150.22 161.40 142.17
  Q 160.34 138.75 163.54 138.05
  Q 176.50 135.21 190.64 130.13
  A 0.72 0.71 88.8 0 1 191.56 131.02
  L 190.91 133.08
  A 4.34 4.22 -35.5 0 0 190.72 134.12
  Q 190.12 143.07 189.83 145.00
  Q 189.79 145.30 189.69 145.48
  A 1.66 0.42 -56.2 0 0 189.38 146.36
  Q 189.27 150.68 188.62 153.66
  C 187.69 157.83 187.70 159.93 187.31 165.00
  Q 187.29 165.19 187.08 165.41
  A 0.55 0.50 68.9 0 0 186.96 165.72
  L 186.58 173.79
  A 1.75 1.74 -76.9 0 0 187.63 175.48
  Q 191.13 176.99 202.62 182.41
  Q 205.12 183.60 206.41 186.23
  A 0.68 0.68 0.0 0 0 207.70 185.91
  Z"
/>
<path fill="#a7b0c3" d="
  M 409.96 151.65
  Q 409.18 151.85 408.43 151.71
  L 415.07 131.49
  A 0.20 0.18 -73.0 0 1 415.29 131.36
  L 415.30 131.37
  A 0.18 0.17 -76.4 0 1 415.42 131.58
  L 409.96 151.65
  Z"
/>
<path fill="#575864" d="
  M 313.41 134.46
  L 319.34 137.83
  A 2.37 2.35 -75.9 0 1 320.53 139.83
  Q 320.58 142.69 319.07 144.94
  Q 318.45 145.88 314.59 147.50
  Q 309.94 149.47 305.45 151.82
  L 263.89 169.14
  A 0.59 0.59 0.0 0 1 263.09 168.44
  L 263.21 167.98
  A 1.74 1.73 86.0 0 1 264.20 166.84
  L 317.24 144.06
  A 0.94 0.94 0.0 0 0 317.60 142.61
  Q 314.66 138.96 313.41 134.46
  Z"
/>
<path fill="#a7b0c3" d="
  M 373.89 157.73
  Q 373.57 158.26 371.93 158.14
  L 378.10 136.30
  Q 378.50 136.30 378.52 136.32
  A 1.36 1.23 -60.0 0 1 378.77 137.49
  L 373.89 157.73
  Z"
/>
<path fill="#575864" d="
  M 346.53 143.54
  Q 347.59 143.83 347.79 143.94
  A 0.65 0.65 0.0 0 1 348.10 144.74
  C 347.92 145.18 347.16 145.88 346.96 146.65
  Q 345.76 151.16 344.06 157.11
  A 0.36 0.36 0.0 0 1 343.75 157.36
  Q 343.25 157.41 342.77 157.28
  Q 342.28 157.15 341.88 156.85
  A 0.36 0.36 0.0 0 1 341.74 156.47
  Q 343.31 150.49 344.58 146.00
  C 344.80 145.23 344.50 144.24 344.57 143.77
  A 0.65 0.65 0.0 0 1 345.24 143.24
  Q 345.47 143.25 346.53 143.54
  Z"
/>
<path fill="#575864" d="
  M 202.36 167.29
  Q 203.58 168.42 201.77 168.88
  L 199.81 167.80
  Q 198.18 166.71 196.91 166.82
  A 0.99 0.99 0.0 0 1 195.84 165.77
  L 196.80 151.04
  Q 197.28 147.84 198.88 145.09
  A 2.12 2.11 31.0 0 1 201.81 144.36
  C 204.29 145.89 204.20 151.38 203.79 153.86
  Q 202.63 160.75 202.36 167.29
  Z"
/>
<path fill="#575864" d="
  M 338.99 205.48
  Q 333.42 204.29 333.39 199.51
  A 0.88 0.86 -62.7 0 0 333.24 199.02
  Q 332.78 198.32 332.03 198.70
  Q 330.64 197.58 328.81 197.00
  A 0.69 0.68 10.4 0 1 328.33 196.31
  Q 328.70 189.65 328.44 186.08
  C 327.98 179.64 328.91 175.53 329.40 168.02
  A 1.17 1.17 0.0 0 1 330.00 167.07
  Q 335.82 163.77 338.87 155.74
  A 0.60 0.59 42.2 0 1 339.96 155.69
  Q 341.66 159.10 345.17 161.93
  A 1.08 0.71 -3.4 0 0 345.43 162.08
  L 351.09 164.25
  A 1.22 1.21 -69.3 0 1 351.79 165.81
  Q 350.99 167.97 349.23 167.40
  A 0.92 0.92 0.0 0 0 348.53 167.45
  L 345.38 168.98
  A 1.58 1.54 -82.6 0 0 344.85 169.40
  L 341.29 173.68
  A 1.13 1.02 77.6 0 0 341.08 174.05
  L 340.00 177.38
  A 1.71 1.71 0.0 0 1 339.50 178.16
  Q 337.92 179.58 337.59 180.63
  Q 337.14 182.06 335.18 187.34
  A 1.40 1.39 87.9 0 1 334.47 188.11
  Q 333.76 188.46 333.10 188.42
  A 0.99 0.98 -82.6 0 0 332.08 189.21
  L 331.88 190.19
  A 0.08 0.08 0.0 0 1 331.72 190.20
  L 331.36 189.37
  A 0.86 0.86 0.0 0 0 329.77 189.39
  Q 328.18 193.41 328.63 196.13
  A 0.63 0.61 -4.3 0 0 329.25 196.65
  Q 331.36 196.64 337.20 197.10
  C 339.01 197.25 340.36 197.01 340.96 199.19
  A 0.62 0.61 -36.2 0 0 342.07 199.36
  L 343.59 197.00
  A 0.27 0.10 -56.0 0 1 343.81 196.84
  Q 343.85 196.85 343.89 196.87
  A 0.11 0.08 -68.7 0 1 343.93 197.00
  Q 341.91 202.32 338.99 205.48
  Z
  M 341.09 168.09
  Q 339.82 167.77 339.44 167.16
  A 0.58 0.57 -3.2 0 1 340.18 166.34
  L 341.61 167.02
  A 0.64 0.61 46.2 0 0 342.09 167.04
  L 345.29 165.85
  A 0.42 0.41 41.7 0 0 345.24 165.06
  L 339.29 163.57
  A 0.45 0.44 40.2 0 0 339.00 163.59
  L 335.04 165.29
  A 1.10 1.10 0.0 0 0 335.17 167.36
  Q 338.01 168.19 340.33 169.93
  A 0.68 0.68 0.0 0 0 341.19 169.88
  Q 341.61 169.49 341.64 168.82
  A 0.72 0.71 8.3 0 0 341.09 168.09
  Z"
/>
<path fill="#677695" d="
  M 341.64 168.82
  Q 341.61 169.49 341.19 169.88
  A 0.68 0.68 0.0 0 1 340.33 169.93
  Q 338.01 168.19 335.17 167.36
  A 1.10 1.10 0.0 0 1 335.04 165.29
  L 339.00 163.59
  A 0.45 0.44 40.2 0 1 339.29 163.57
  L 345.24 165.06
  A 0.42 0.41 41.7 0 1 345.29 165.85
  L 342.09 167.04
  A 0.64 0.61 46.2 0 1 341.61 167.02
  L 340.18 166.34
  A 0.58 0.57 -3.2 0 0 339.44 167.16
  Q 339.82 167.77 341.09 168.09
  A 0.72 0.71 8.3 0 1 341.64 168.82
  Z"
/>
<path fill="#a7b0c3" d="
  M 199.81 167.80
  L 201.77 168.88
  C 204.81 174.10 194.40 174.34 191.64 174.03
  A 2.51 2.51 0.0 0 1 189.61 170.57
  L 189.65 170.49
  A 4.97 4.57 -76.0 0 1 194.28 167.44
  L 199.81 167.80
  Z"
/>
<path fill="#575864" d="
  M 357.13 169.51
  Q 356.95 171.59 357.68 173.02
  L 356.32 172.74
  A 0.97 0.94 24.8 0 0 355.38 173.07
  Q 353.29 175.68 349.19 175.73
  A 0.13 0.13 0.0 0 1 349.06 175.59
  L 349.15 174.52
  A 0.50 0.50 0.0 0 1 349.60 174.06
  Q 351.41 173.91 352.79 173.14
  A 0.61 0.60 45.2 0 0 352.79 172.09
  L 350.40 170.71
  A 1.10 1.09 66.0 0 1 351.17 168.69
  Q 354.35 169.38 355.80 171.56
  A 0.64 0.64 0.0 0 0 356.79 171.65
  Q 357.36 171.06 357.13 169.51
  Z"
/>
<path fill="#575864" d="
  M 371.85 177.63
  Q 370.24 178.18 369.50 179.81
  C 369.04 180.83 368.45 181.51 367.35 181.38
  A 0.55 0.55 0.0 0 1 367.06 180.41
  Q 368.67 179.04 369.24 176.73
  A 0.67 0.67 0.0 0 0 368.54 175.90
  L 365.55 176.12
  A 1.27 1.26 62.1 0 1 364.69 175.85
  Q 363.01 174.48 359.47 174.23
  Q 358.67 174.17 358.55 173.23
  Q 361.15 173.84 363.20 172.15
  A 1.31 1.29 35.0 0 1 364.50 171.93
  L 368.49 173.40
  A 2.75 2.74 -6.1 0 1 369.87 174.51
  L 371.85 177.63
  Z"
/>
<path fill="#575864" d="
  M 358.67 176.41
  A 0.70 0.69 72.6 0 1 359.26 175.27
  L 361.99 175.49
  A 1.60 1.58 75.3 0 1 363.19 176.20
  L 364.77 178.60
  A 0.49 0.49 0.0 0 1 364.29 179.35
  Q 360.67 178.80 358.67 176.41
  Z"
/>
<path fill="#a7b0c3" d="
  M 161.99 201.03
  Q 162.21 203.94 164.49 205.15
  C 166.75 206.34 168.97 205.32 170.04 208.85
  A 0.42 0.42 0.0 0 1 169.44 209.34
  Q 166.61 207.85 163.12 207.84
  Q 154.40 198.73 146.11 188.89
  Q 145.61 188.29 144.09 187.22
  Q 142.42 183.37 139.07 183.28
  Q 139.40 181.07 140.89 181.15
  Q 141.95 181.21 143.42 182.77
  Q 151.91 191.72 161.99 201.03
  Z"
/>
<path fill="#a7b0c3" d="
  M 243.29 189.97
  C 240.82 192.04 238.01 195.15 234.77 196.25
  A 0.51 0.51 0.0 0 1 234.21 195.44
  L 241.64 186.50
  A 0.41 0.41 0.0 0 0 241.07 185.91
  L 236.42 189.67
  A 0.43 0.42 45.5 0 1 235.88 189.66
  L 235.62 189.45
  A 0.54 0.53 -48.1 0 1 235.58 188.66
  Q 238.45 185.75 242.39 184.46
  C 243.70 184.04 245.03 183.21 246.03 182.46
  A 0.28 0.28 0.0 0 1 246.42 182.50
  L 246.67 182.81
  A 0.14 0.13 54.2 0 1 246.64 183.01
  Q 243.19 185.06 241.56 188.26
  A 0.77 0.76 -64.2 0 0 241.92 189.30
  Q 242.38 189.51 243.09 189.46
  A 0.29 0.29 0.0 0 1 243.29 189.97
  Z"
/>
<path fill="#575864" d="
  M 144.09 187.22
  Q 141.28 186.25 139.07 183.28
  Q 142.42 183.37 144.09 187.22
  Z"
/>
<ellipse fill="#a7b0c3" cx="0.00" cy="0.00" transform="translate(347.62,189.34) rotate(-164.9)" rx="2.58" ry="2.26"/>
<path fill="#575864" d="
  M 302.20 202.95
  Q 303.96 206.15 302.23 209.04
  Q 301.26 210.65 298.58 212.02
  Q 296.40 213.13 294.24 214.12
  C 286.82 216.79 279.07 219.46 272.06 223.10
  C 266.78 225.85 262.88 226.91 257.19 229.52
  Q 254.26 230.86 249.55 231.95
  A 0.53 0.52 -15.8 0 1 248.93 231.61
  Q 247.84 228.38 249.01 225.52
  A 0.60 0.60 0.0 0 1 250.09 225.46
  Q 250.26 225.77 250.46 226.99
  Q 250.81 229.14 252.95 228.67
  Q 254.43 228.34 266.34 223.20
  Q 278.84 217.79 279.36 217.60
  Q 287.37 214.60 292.55 212.30
  Q 295.20 211.12 296.76 210.16
  A 0.85 0.85 0.0 0 0 297.01 208.93
  Q 296.20 207.81 295.07 207.85
  A 0.96 0.96 0.0 0 0 294.34 208.21
  Q 293.61 209.12 292.50 209.20
  A 0.55 0.54 -88.3 0 1 291.92 208.58
  Q 292.59 203.33 294.55 200.27
  Q 294.83 199.84 294.88 199.16
  A 0.75 0.75 0.0 0 1 296.06 198.60
  L 302.20 202.95
  Z"
/>
<path fill="#a7b0c3" d="
  M 304.88 204.51
  L 303.68 209.60
  A 4.56 4.55 -5.8 0 1 301.16 212.68
  L 297.99 214.14
  A 0.83 0.73 -78.3 0 0 297.71 214.35
  Q 297.15 214.99 297.34 215.77
  L 296.96 215.90
  L 296.69 214.75
  A 0.72 0.70 84.6 0 0 296.03 214.19
  L 294.24 214.12
  Q 296.40 213.13 298.58 212.02
  Q 301.26 210.65 302.23 209.04
  Q 303.96 206.15 302.20 202.95
  Q 304.34 205.96 304.88 204.51
  Z"
/>
<ellipse fill="#575864" cx="0.00" cy="0.00" transform="translate(308.13,211.41) rotate(-41.8)" rx="1.19" ry="1.00"/>
<path fill="#a7b0c3" d="
  M 228.20 229.04
  A 0.72 0.72 0.0 0 1 227.22 227.99
  L 229.86 224.82
  A 2.46 2.43 -67.5 0 1 231.95 223.94
  L 233.90 224.09
  A 0.64 0.64 0.0 0 1 234.21 225.25
  Q 231.38 227.25 233.02 228.66
  A 0.76 0.75 40.4 0 1 233.11 229.72
  C 232.52 230.43 231.62 230.21 231.01 229.66
  Q 229.36 228.19 228.20 229.04
  Z"
/>
</svg>
