<?xml version="1.0" encoding="UTF-8" standalone="no"?>
<!-- Created with Inkscape (http://www.inkscape.org/) -->

<svg
   version="1.1"
   id="svg1"
   width="682.66669"
   height="329.33334"
   viewBox="0 0 682.66669 329.33334"
   xmlns="http://www.w3.org/2000/svg"
   xmlns:svg="http://www.w3.org/2000/svg"
   xmlns:rdf="http://www.w3.org/1999/02/22-rdf-syntax-ns#"
   xmlns:cc="http://creativecommons.org/ns#"
   xmlns:dc="http://purl.org/dc/elements/1.1/">
  <title
     id="title1">earthCARE Icon SVG</title>
  <defs
     id="defs1" />
  <g
     id="g1">
    <path
       style="fill:currentColor"
       d="m 311.00001,327.70602 c -13.55238,-12.5672 -27.94423,-25.3467 -47,-30.22265 -22.10167,-9.39409 -48.05798,-8.68227 -61.70946,-33.75744 -9.95258,-5.14553 -29.62609,-32.56151 -6.79623,-18.29027 15.321,28.10429 36.75148,0.6555 27.66362,-21.76899 C 216.25053,205.9992 213.33356,178.6866 187.92747,192.30725 133.40238,198.2434 73.583398,200.86633 24.565192,172.02034 -1.0924705,159.84781 -7.2041509,126.25223 6.7582649,103.13249 33.18108,61.657018 83.672846,45.136518 128.93385,33.38926 c 11.96887,-5.603631 29.63729,-2.487835 39.85947,-7.612988 5.60048,-20.7592001 34.80991,-27.8682733 54.0975,-20.9866137 12.5551,-7.7757064 24.00513,-4.22781391 24.29957,9.7937007 30.31436,7.84694 59.30471,20.700815 90.18832,26.459359 17.03688,-1.690427 18.24028,16.711757 21.75963,19.906412 12.11013,-11.950649 31.89823,-12.701795 33.21054,-33.463334 2.59218,-8.749823 16.00032,-27.87432598 13.28658,-3.183484 5.65451,10.63622 -10.50541,28.266554 -2.88113,30.095247 9.17335,-22.418738 42.81061,5.010294 55.13397,2.060408 16.34929,-20.686794 47.81667,-0.117071 70.98509,-4.272618 47.25957,7.291701 95.43424,8.78576 142.57457,16.000083 22.21947,-3.053568 5.70046,26.230376 4.63931,38.217818 -8.63663,26.22945 -15.95921,52.50024 -24.82774,78.64279 -30.45145,6.56103 -61.15287,10.96451 -91.6484,17.25696 -26.04237,4.18244 -52.22274,8.80154 -77.80916,14.65984 -13.96985,19.77271 26.2904,4.79506 14.83552,29.93099 -3.0706,28.14629 -40.35017,27.64872 -57.47875,27.7993 -15.50593,21.08437 -52.88157,5.54723 -57.83792,33.74813 -11.71735,8.03785 -50.49031,7.00961 -49.06032,14.01931 40.06101,8.41765 -19.2799,7.50944 -21.26049,5.24545 z M 30.431934,158.70421 c -8.301376,-7.82269 -11.384144,3.46192 0,0 z M 388.00001,52.000002 c -7.81391,-9.813051 -5.44015,8.272963 0,0 z"
       id="path1" />
  </g>
  <metadata
     id="metadata1">
    <rdf:RDF>
      <cc:Work
         rdf:about="">
        <dc:title>earthCARE Icon SVG</dc:title>
        <dc:source>https://earth.esa.int/eogateway/documents/20142/1899021/EarthCARE-mission-1920x1080.jpg/1abe23cb-51db-c2c8-19d8-31c660ce0044?t=1615817618416</dc:source>
      </cc:Work>
    </rdf:RDF>
  </metadata>
</svg>
