<?xml version="1.0" encoding="UTF-8" standalone="no"?>
<!-- Created with Inkscape (http://www.inkscape.org/) -->

<svg
   version="1.1"
   id="svg1"
   width="654.66669"
   height="349.33334"
   viewBox="0 0 654.66669 349.33334"
   xmlns="http://www.w3.org/2000/svg"
   xmlns:svg="http://www.w3.org/2000/svg">
  <defs
     id="defs1" />
  <g
     id="g1">
    <path
       style="fill:currentColor"
       d="m 2.6666667,348.74615 c 0,-0.32295 10.9828353,-17.57295 24.4063013,-38.33333 13.423466,-20.76038 26.680543,-41.45045 29.46017,-45.97793 l 5.053869,-8.23179 40.046613,-17.06404 c 22.25156,-9.4815 40.70454,-18.11755 41.52723,-19.43489 1.64359,-2.6318 4.83915,-3.20911 4.83915,-0.87424 0,0.99152 0.56248,1.06432 1.66667,0.21573 0.91667,-0.70447 7.84064,-3.85397 15.38661,-6.99887 7.54597,-3.14491 13.39466,-6.04329 12.99709,-6.44086 -0.39757,-0.39757 0.22628,-1.77163 1.38633,-3.05347 1.63068,-1.80188 1.78259,-2.94088 0.66958,-5.02055 -0.79179,-1.47946 -1.43961,-7.25999 -1.43961,-12.84562 V 174.5306 l -4.66666,-1.94986 -4.66667,-1.94986 v -10.67034 -10.67035 l 4.66667,-2.22537 4.66666,-2.22538 -0.006,-13.41972 c -0.0111,-24.55111 -1.54553,-43.419717 -3.53099,-43.419717 -2.34358,0 -2.32344,-2.548068 0.0273,-3.450122 1.1185,-0.429209 2.173,-3.892762 2.72736,-8.958154 1.43075,-13.073326 3.72789,-19.813676 9.36856,-27.489631 13.42641,-18.270982 31.6523,-19.717593 37.59554,-2.984007 l 2.33931,6.586479 5.04635,-3.185617 c 2.77548,-1.752089 6.10826,-3.19906 7.40617,-3.215491 1.2979,-0.01643 5.81153,-1.714729 10.03028,-3.773995 4.21875,-2.059265 7.96875,-3.445821 8.33333,-3.081236 0.36459,0.364586 0.66288,2.019441 0.66288,3.677456 0,3.542622 5.76166,7.253567 34.00001,21.898582 10.26666,5.324515 19.23666,10.197266 19.93333,10.828336 0.69667,0.63107 2.64667,1.147399 4.33333,1.147399 1.83704,0 3.06667,0.801933 3.06667,2 0,1.1 -0.9,2 -2,2 -2.63748,0 -2.65559,-0.53723 1.58014,46.870268 l 3.65165,40.87027 12.44226,-11.42118 c 11.44641,-10.50705 12.37429,-11.73061 11.5931,-15.28734 -0.82811,-3.77038 -0.7387,-3.84615 3.60852,-3.05827 4.10897,0.7447 5.05738,0.1867 12.12433,-7.13326 7.30148,-7.56288 10.13334,-13.40567 5.66667,-11.69165 -1.1,0.42211 -2,0.20741 -2,-0.4771 0,-1.62187 4.74012,-4.15384 5.79729,-3.09667 2.03704,2.03705 9.51001,1.21591 14.63197,-1.60778 9.72094,-5.35906 62.37675,-27.371881 63.62685,-26.599277 0.65947,0.407578 1.5755,-0.758877 2.03562,-2.592122 1.31161,-5.225886 4.0858,-6.856269 6.12105,-3.597324 1.4711,2.355605 1.96904,2.466866 3.76525,0.841316 2.05501,-1.859759 24.54851,-11.954878 66.68864,-29.929975 9.44917,-4.030596 68.84971,-29.633405 86,-37.067705 19.72012,-8.5482677 30.44461,-12.4702263 32.22809,-11.7858432 2.37412,0.9110366 2.2644,3.4303071 -0.1494,3.4303071 -1.05672,0 -2.26465,0.555536 -2.68429,1.2345245 -0.41963,0.6789886 0.1293,20.3289896 1.21985,43.6666676 1.09055,23.337679 2.14848,48.850451 2.35095,56.695051 0.23242,9.00484 0.8351,13.79734 1.6348,13 2.16107,-2.15465 4.73334,-1.3918 4.73334,1.40376 0,1.5825 -0.88889,2.66667 -2.18635,2.66667 -1.20249,0 -2.85249,0.83627 -3.66666,1.85838 -1.49618,1.87828 -11.24749,5.56471 -42.81366,16.18548 -9.53333,3.20759 -25.13334,8.59651 -34.66667,11.97537 -9.53333,3.37887 -20.54188,7.10707 -24.46344,8.28489 -4.86405,1.46089 -7.5699,3.10675 -8.51393,5.17867 -1.76464,3.87297 -4.45253,4.89584 -7.63784,2.90658 -1.87088,-1.16838 -3.63945,-1.19276 -6.94729,-0.0958 -2.44063,0.80941 -22.1375,7.58364 -43.77084,15.05386 -21.63333,7.47021 -40.83333,13.87774 -42.66666,14.23895 -1.83334,0.3612 -5.42411,1.59698 -7.97951,2.74616 -4.06915,1.82993 -16.16509,6.06039 -70.25363,24.57065 -8.55031,2.92609 -12.42642,4.92557 -12.87517,6.6416 -0.66048,2.52568 -6.22503,3.54253 -6.22503,1.13755 0,-0.72469 -1.34806,-1.17469 -2.99569,-1 -2.29229,0.24303 -3.10496,-0.46506 -3.46109,-3.01572 -0.50018,-3.5824 -2.50401,-6.66667 -4.3313,-6.66667 -0.62052,0 -0.87285,0.75 -0.56072,1.66667 0.31213,0.91666 1.1995,10.66666 1.97194,21.66666 0.77244,11 1.7773,24.56374 2.23303,30.14165 l 0.82859,10.14165 -4.21544,1.46951 c -2.31849,0.80823 -5.14042,2.39449 -6.27095,3.52502 -2.32937,2.32936 -4.5317,2.69422 -4.5317,0.75076 0,-0.78841 -1.33952,-0.69442 -3.38485,0.23749 -2.33345,1.06319 -3.10851,2.19325 -2.49521,3.63808 3.5394,8.33819 1.54805,10.4804 -14.80197,15.92326 -15.92249,5.30055 -34.91767,7.35343 -59.90877,6.47456 -21.46942,-0.75502 -31.83453,-2.94868 -36.07557,-7.63498 -2.09243,-2.3121 -2.19538,-3.14446 -0.72808,-5.88614 2.40711,-4.49773 0.8162,-6.11419 -6.01758,-6.11419 -3.25672,0 -5.92131,-0.54726 -5.92131,-1.21613 0,-0.66888 -2.4,-1.62162 -5.33333,-2.1172 l -5.33334,-0.90106 0,-12.02093 V 273.0571 l -5,4.30892 c -7.60424,6.55323 -23.26976,22.16182 -26.85588,26.7583 -2.11593,2.71206 -4.01364,3.87215 -5.63891,3.44713 -1.34733,-0.35233 -20.01219,5.33241 -41.477453,12.63276 -21.465267,7.30036 -41.779356,14.13494 -45.142419,15.18797 -3.363064,1.05303 -7.204139,3.11845 -8.535723,4.58984 -1.547078,1.7095 -2.949654,2.23813 -3.885339,1.46439 -0.917217,-0.75847 -6.445679,0.48485 -14.797612,3.32789 -11.317078,3.8524 -24.6666673,6.00196 -24.6666673,3.97185 z M 155.82517,287.33334 c 4.4835,-4.4 8.157,-8.74195 8.16333,-9.64877 0.006,-0.90683 1.96151,-2.4795 4.34484,-3.49483 2.38333,-1.01533 5.70253,-3.33249 7.37599,-5.14924 2.86909,-3.11475 3.02121,-4.22341 2.66667,-19.43452 l -0.37599,-16.13134 -6.75236,12.92935 c -3.7138,7.11114 -11.6638,22.32418 -17.66667,33.80675 -10.31604,19.733 -13.94862,27.99666 -8.40599,19.1226 1.37409,-2.2 6.16667,-7.6 10.65018,-12 z m 188.37699,-61 c 2.24972,-1.83338 4.42516,-7.94699 22.54363,-63.354 6.7782,-20.72803 12.02341,-37.98793 11.65602,-38.35532 -1.05387,-1.05387 -21.06847,18.18741 -21.06847,20.25443 0,1.01982 -1.36501,2.3732 -3.03337,3.00751 -1.66835,0.63431 -9.16835,6.76834 -16.66666,13.63119 l -13.6333,12.4779 v 8.92379 c 0,4.92742 -0.64206,9.3206 -1.4337,9.80986 -0.91714,0.56683 -0.43674,1.81489 1.33333,3.46397 2.05822,1.91752 2.76704,4.21751 2.76704,8.97859 0,5.53353 0.4516,6.60647 3.33333,7.91947 3.57328,1.6281 4.25901,3.51313 1.82518,5.01732 -0.95878,0.59256 0.37688,2.54576 3.66667,5.36196 5.93401,5.07977 5.97427,5.09301 8.7103,2.86333 z m 92.30608,-42 C 437.78927,178.65001 440.55899,166.8 442.66317,158 c 3.96231,-16.57095 7.61803,-32.68271 12.10118,-53.33333 1.43284,-6.6 2.92873,-13.200001 3.32422,-14.666667 0.6628,-2.458019 0.51418,-2.431848 -1.8994,0.334481 -1.74566,2.000783 -4.90811,12.667246 -9.48754,31.999996 -3.778,15.94937 -8.5665,35.89886 -10.64112,44.33219 -4.70101,19.1096 -5.74477,25.02014 -4.71315,26.68935 1.77931,2.87898 2.93278,0.86239 5.16088,-9.02268 z m 97.30099,-23.15568 c 3.47527,-1.58344 4.00132,-3.59226 5.54574,-21.17766 0.41863,-4.76666 2.62665,-25.62503 4.90672,-46.351926 2.28007,-20.726895 3.90395,-37.919854 3.60862,-38.206575 -0.29533,-0.286722 -1.72756,-0.728354 -3.18274,-0.981405 -2.35563,-0.409635 -2.75789,0.563466 -3.66803,8.873241 -0.56223,5.133334 -2.81183,24.633334 -4.9991,43.333335 -4.4819,38.31784 -6.31936,56 -5.81927,56 0.18702,0 1.81065,-0.67005 3.60806,-1.48901 z"
       id="path1" />
  </g>
</svg>
