<?xml version="1.0" encoding="UTF-8" standalone="no"?>
<!-- Created with Inkscape (http://www.inkscape.org/) -->

<svg
   version="1.1"
   id="svg1"
   width="682.66669"
   height="524"
   viewBox="0 0 682.66669 524"
   xmlns="http://www.w3.org/2000/svg"
   xmlns:svg="http://www.w3.org/2000/svg"
   xmlns:rdf="http://www.w3.org/1999/02/22-rdf-syntax-ns#"
   xmlns:cc="http://creativecommons.org/ns#"
   xmlns:dc="http://purl.org/dc/elements/1.1/">
  <title
     id="title1">Landsat-7 Icon SVG</title>
  <defs
     id="defs1" />
  <g
     id="g1">
    <path
       style="fill:currentColor"
       d="m 593.33335,514.75652 c -5.7193,-3.17472 -12.29258,-10.48026 -20,-12.40087 -3.41293,-4.46817 -13.25011,-9.78924 -20.32301,-14.37992 -7.10247,-5.36989 -15.67404,-9.42536 -21.33209,-14.49852 -7.40498,-4.6055 -12.94912,-8.63093 -21.2225,-13.83297 -10.18,-6.7349 -19.95484,-14.01089 -30.43241,-20.31091 0.89023,-7.64658 7.10773,-16.31742 9.57033,-22.36106 1.04714,-9.1314 -8.84329,-2.16832 -10.29799,3.02773 -2.66643,11.6165 -9.0765,14.73548 -17.08473,6.53891 -14.17796,-9.34439 -28.66864,-18.10884 -41.98879,-28.19942 -5.08808,-1.48633 -11.41678,-8.30556 -16.1038,-10.33949 -13.12777,-9.20234 -26.1769,-18.02513 -38.78494,-27.33333 -3.33566,-9.708 14.11962,-19.34096 5.5195,-26.37144 -5.24542,4.14069 -7.93316,13.64237 -13.70116,20.37145 -8.14344,0.33301 -9.24379,-6.66793 -18.30107,-9.84066 -4.58591,-4.42462 -13.36695,-8.78945 -19.50169,-13.55965 -9.59696,-5.77071 -19.88045,-14.63899 -28.68232,-18.96316 -5.97919,-5.31685 -11.24818,-7.16276 -16.82572,-12.18369 -6.30247,-5.13677 -21.3728,-9.34566 -12.7034,-19.39125 4.24947,-3.79646 10.26576,-20.37541 1.91545,-12.72827 -3.77396,4.91707 -8.82513,22.57406 -16.5615,13.33327 -8.43679,-3.41383 -17.08746,-10.75902 -23.82484,-14.75651 -5.32571,-2.7237 -13.00791,-9.66054 -20.28503,-13.20599 -7.52343,-5.6103 -13.77833,-8.1308 -20.82608,-15.0375 -5.56112,-3.39491 -17.43995,-8.23388 -18.88867,-15.66666 5.50607,-4.03484 9.07605,-15.17564 11.39634,-18.09273 -10.87195,-5.14813 4.5417,-18.38314 -5.96272,-23.48384 -11.40235,9.41188 -23.35594,19.47428 -33.71256,29.22174 -6.6382,7.26987 1.51649,10.92947 -1.01839,19.35245 -8.04326,10.109 4.11979,9.22012 6.63066,16.38421 -3.52767,7.1594 -11.07556,11.8878 -16.86871,12.61823 -12.56626,-6.42676 4.74698,-12.75445 -3.36283,-21.86324 4.62052,-7.46199 -1.58409,-17.89717 -5.10201,-6.41601 -2.5251,8.05604 -4.0504,17.68696 -5.22284,27.28451 -0.45738,7.34247 0.92393,27.2996 -10.77716,17.68661 C 96.615067,262.99018 86.569977,287.64035 79.442319,280.0843 72.324774,273.35329 64.226935,266.13404 59.680905,258.90536 52.921551,253.29747 44.542534,253.57589 38.60867,248.1341 28.03171,238.78775 16.046304,229.67815 6.6733571,219.72063 15.364347,213.63306 10.58884,207.34152 9.1514658,197.37243 3.7145165,190.71414 -4.0735225,182.59545 6.6761653,175.45094 13.25913,166.98854 22.050358,163.00328 30.000001,156.02588 c 9.339163,4.22026 8.368284,6.28767 15.097478,-3.99507 8.219477,-9.03401 12.292255,6.52418 18.902533,10.86434 7.463714,7.51716 -0.838446,-7.94016 -1.333343,-11.25894 -2.763456,-4.77614 -9.972941,-13.52773 -6.045565,-21.10039 7.755931,-14.00385 21.790684,-22.66778 34.173603,-32.141909 9.564313,5.621689 13.946073,-6.079866 22.162433,-7.727244 6.45031,0.307689 21.18553,9.920683 15.20118,-3.789589 -7.54427,3.391189 -12.88667,-5.107853 -15.76974,-14.365375 -5.77228,-9.180282 9.53699,-13.519057 14.12874,-19.807136 17.97988,-14.641901 35.28959,-30.485028 55.48269,-42.005779 7.83024,1.529837 13.66929,12.038681 23.17595,10.634546 3.98759,6.445799 24.24868,-3.145937 19.61004,10.177252 -6.99427,6.324096 0.64474,10.153106 2.21408,18.516854 0.76652,9.721996 6.2831,12.464501 7.00767,20.772785 5.47087,11.104108 7.3289,25.946577 20.9998,30.082355 18.14698,10.68663 35.99292,22.18362 54.65913,32.02523 4.47664,4.69893 16.86773,7.74186 21,14.78173 0.52926,7.45707 -6.3366,11.33224 -9.48643,19.18609 6.8767,10.62198 8.22544,-9.29804 13.98215,-12.7688 7.12552,-6.7987 14.56212,5.06913 21.15831,6.38889 23.59211,14.28852 47.04271,28.06641 71.01264,41.50428 2.91043,4.12224 14.62177,4.30624 9.2367,13.02959 -3.33886,5.47111 -13.41066,22.96743 -2.2002,16.79653 5.55588,-4.94506 6.1185,-21.8188 16.25944,-15.62894 6.82766,3.76435 10.76094,7.67482 20.03733,11.06714 3.66327,4.10783 13.57682,8.68657 20.65519,12.67822 4.715,4.67856 13.71773,6.14209 18.01142,12.05746 6.71812,0.44523 12.27663,7.41256 19.88718,10.94358 8.73054,4.60202 11.13548,6.80437 19.57236,11.34873 12.4396,3.52936 -0.0734,14.73729 -1.81001,21.97402 -5.33485,12.32632 8.96771,7.17059 9.26406,-2.26131 2.83654,-11.41451 13.59513,-9.45663 20.70987,-3.23876 6.91585,4.57556 11.16088,6.92913 19.04142,11.35784 27.86814,16.75428 56.21104,32.50786 83.87291,49.8759 7.2265,2.69558 -2.23771,15.08217 -5.37101,20.85391 -3.94716,9.94743 -10.92739,18.41446 -13.45665,28.47942 -3.49262,2.99631 -7.77968,12.87935 -10.07823,18.88889 -8.81068,14.98786 -16.89507,31.26103 -24.92448,47.11111 -3.81882,6.10046 -7.41513,15.23131 -11.91166,22.26914 -3.92163,9.26145 -9.65707,17.22017 -13.4466,26.39753 -1.57935,-1.01911 -8.02555,1.88815 -7.34904,-1.24348 z m -95.17814,-114.1498 c 16.09649,-29.92223 32.0211,-59.75093 48.60762,-89.38924 -2.54559,-11.50227 -10.68312,5.0046 -13.6091,10.95536 -14.5364,28.39987 -30.4908,55.40959 -45.10786,83.60917 4.69915,8.54957 7.33346,-0.88016 10.10934,-5.17529 z M 381.33334,323.96777 c 4.34335,-5.90034 8.89618,-14.58811 12.73385,-22.39564 7.1764,-11.07948 14.92536,-25.72199 22.03498,-38.42474 4.98252,-6.08109 7.65482,-17.12005 13.23118,-20.4806 0.40171,-13.06637 -9.30693,-0.50054 -10.30041,5.64963 -13.98063,23.51139 -27.62831,47.66915 -40.36626,71.70068 -9.26846,6.28046 -3.3596,19.97206 2.66666,5.2519 z M 272.79078,260.9896 c 11.85988,-22.48745 26.37204,-43.8201 37.8759,-66.29644 2.52265,-4.05866 10.67685,-13.87712 11.45813,-20.84873 -5.65778,-5.20427 -8.09902,11.72037 -12.79147,15.4889 -5.07882,7.81307 -8.54778,15.09907 -12.4386,21.5147 -6.26687,10.59285 -12.8436,21.01402 -18.22807,31.75459 -1.28241,4.07765 -14.70112,15.61372 -8.8,21.39738 2.20594,0.68039 1.95335,-1.76722 2.92411,-3.0104 z M 110.2371,225.33333 c 2.20059,-8.64597 -16.380974,2.69556 -4.67854,10.50099 -4.99634,13.33836 3.76084,10.51765 3.22053,-2.22512 0.6324,-2.7338 1.04693,-5.50231 1.45801,-8.27587 z m -4.90376,-6.51115 c -7.21279,-9.43596 -12.141451,3.56845 0,1.17782 z m 75.97958,-27.2342 c -0.75696,-9.31047 -5.24735,13.95703 0,0 z m 19.84182,-33.52608 c 3.03683,-8.6733 13.19319,-13.48382 13.12658,-22.8385 7.0444,-9.74262 11.62021,-16.80255 -1.08849,-5.07891 -7.68192,6.13195 -15.3492,12.28356 -22.8373,18.65215 4.33344,4.53264 5.33321,24.83075 10.79921,9.26526 z m 28.69192,-48.01499 c 7.72079,-13.421035 -12.16718,10.2203 -0.29311,0.44735 z m -5.52929,-7.15589 c 1.72849,-7.041126 -2.68418,-20.073827 -4.70649,-4.615548 -1.06034,3.459958 8.3568,8.553698 4.70649,4.615548 z m -23.59009,-3.335464 c 4.45989,-3.530575 17.2711,7.069014 12.60606,-6.991711 C 210.05659,77.089599 203.49025,89.714996 200.00001,96 c -2.86733,-0.201839 -1.23218,12.85685 0.72727,3.555556 z m 26.31838,-30.250323 c -6.56324,-8.499989 -1.63489,10.146402 0,0 z"
       id="path1" />
  </g>
  <metadata
     id="metadata1">
    <rdf:RDF>
      <cc:Work
         rdf:about="">
        <dc:title>Landsat-7 Icon SVG</dc:title>
        <dc:source>https://science.nasa.gov/wp-content/uploads/2023/10/Landsat_7_b-sm.png?w=300</dc:source>
      </cc:Work>
    </rdf:RDF>
  </metadata>
</svg>
