<?xml version="1.0" encoding="UTF-8" standalone="no"?>
<!-- Created with Inkscape (http://www.inkscape.org/) -->

<svg
   version="1.1"
   id="svg1"
   width="512"
   height="300"
   viewBox="0 0 512 300"
   xmlns="http://www.w3.org/2000/svg"
   xmlns:svg="http://www.w3.org/2000/svg"
   xmlns:rdf="http://www.w3.org/1999/02/22-rdf-syntax-ns#"
   xmlns:cc="http://creativecommons.org/ns#"
   xmlns:dc="http://purl.org/dc/elements/1.1/">
  <title
     id="title1">OTSM/Jason-2 Icon SVG</title>
  <defs
     id="defs1" />
  <g
     id="g1">
    <path
       style="fill:currentColor"
       d="M 107.00847,270.25 C 97.959699,253.8875 89.515218,238.62805 88.24295,236.34011 l -2.313215,-4.15989 3.863677,-2.77727 3.863676,-2.77726 1.171456,-6.8314 C 95.472845,216.03701 96,212.50666 96,211.94905 c 0,-0.55761 -2.441977,0.82987 -5.426616,3.0833 -4.43742,3.35028 -6.089585,4.03976 -9.063585,3.78239 L 77.87283,218.5 l -2.599595,-4.74095 -2.599596,-4.74094 1.742885,-1.92587 c 1.4414,-1.59273 1.535993,-2.31244 0.546846,-4.16068 -1.027295,-1.91952 -0.96969,-2.14796 0.4083,-1.61918 0.9381,0.35998 1.505501,0.14146 1.366334,-0.52621 -0.351591,-1.6868 5.46999,-3.65865 6.011483,-2.03617 1.120981,3.35881 2.010962,0.43366 2.159322,-7.09716 0.188404,-9.56345 -0.292881,-10.33255 -7.044992,-11.25803 -3.12271,-0.42801 -6.465638,0.0196 -11.301307,1.51317 -3.776793,1.16653 -7.087818,1.90005 -7.357832,1.63003 -0.571502,-0.5715 -0.294902,-0.6781 10.412385,-4.01294 14.130632,-4.40105 17.538843,-9.28107 8.132937,-11.64509 -8.113686,-2.03924 -33.010129,-1.53623 -45.25,0.91423 -17.451517,3.49385 -20.757628,4.7686 -22.75,8.77179 -0.9625,1.93391 -1.75,4.13971 -1.75,4.90178 0,0.76206 -0.7875,1.58471 -1.75,1.8281 -1.1930896,0.30169 -0.7157379,0.68304 1.5,1.19832 1.7875,0.41569 3.25,1.14591 3.25,1.6227 0,1.05289 -7.9523649,-1.90322 -9.871903,-3.66966 -1.12693297,-1.03704 -1.15730495,-2.15702 -0.1700919,-6.27219 1.3868508,-5.78104 2.7792866,-7.28661 9.4806609,-10.25094 C 26.493624,159.82223 62.840814,155.47334 74,159.31907 c 2.448372,0.84377 4.884882,0.92638 8.109128,0.27494 l 4.609128,-0.93126 3.868735,2.39101 c 2.127805,1.31506 6.206441,2.64833 9.063637,2.96282 l 5.194902,0.57181 0.4298,-2.24836 C 106.00075,158.54523 101.34184,155 95.62954,155 89.026621,155 87,153.70834 87,149.5 c 0,-4.03369 1.667725,-5.21859 8.702186,-6.18277 2.630558,-0.36056 4.223703,-0.84193 3.540323,-1.06973 C 98.546535,142.01551 98,140.18114 98,138.07718 c 0,-4.44033 2.3508,-5.94162 10.65161,-6.80244 9.9464,-1.03147 15.34839,1.30202 15.34839,6.63002 0,3.62102 0.95423,4.44664 2.99976,2.59546 l 1.66206,-1.50415 18.03294,5.46571 18.03293,5.4657 6.88616,-6.78684 6.88615,-6.78684 7.58161,-1.83522 7.58161,-1.83522 13.16839,6.84311 c 14.3919,7.47892 14.9472,8.1811 10.91839,13.80638 -1.2375,1.72787 -2.98902,4.7757 -3.89227,6.77294 l -1.64226,3.63136 15.64226,4.6859 c 8.60325,2.57724 16.45049,4.92328 17.43832,5.21342 1.3166,0.38671 -0.76794,-4.59505 -7.80893,-18.6622 -5.28274,-10.55436 -9.46596,-19.29386 -9.29605,-19.42111 1.30386,-0.97651 32.50086,-22.24526 33.63314,-22.92961 0.9795,-0.59201 1.22648,-0.51459 0.76102,0.23854 -0.43773,0.70827 -0.12298,0.89776 0.86283,0.51947 0.85357,-0.32755 1.55673,-1.10989 1.56259,-1.73855 0.006,-0.62865 4.93746,-4.47825 10.95912,-8.55464 6.02166,-4.076402 10.67234,-7.858431 10.33484,-8.404512 -0.3455,-0.559037 -0.10693,-0.679716 0.546,-0.276184 0.65651,0.405744 4.64224,-1.682299 9.1866,-4.812673 9.18372,-6.326192 12.73983,-7.285622 14.06355,-3.794311 0.52299,1.379388 0.50491,2.073637 -0.0451,1.733689 -2.78681,-1.722343 -1.41178,2.779055 4.37884,14.334851 5.4131,10.80241 6.81132,12.87926 8.39247,12.46577 2.40483,-0.62887 3.69157,2.27545 1.54127,3.47882 -1.32208,0.73987 -0.87767,2.20286 3.03673,9.9969 3.32461,6.6197 4.9901,8.97492 6.05707,8.56548 1.20607,-0.46281 0.92445,-1.64864 -1.56067,-6.57165 -1.66776,-3.30381 -2.80148,-6.23775 -2.51937,-6.51985 0.2821,-0.28211 -4.22702,-9.98459 -10.02028,-21.56107 -9.03632,-18.057006 -10.30485,-21.175936 -8.92641,-21.947351 0.88373,-0.49456 1.30279,-1.391071 0.93124,-1.992248 -0.40483,-0.655041 -0.21319,-0.807303 0.47825,-0.379971 1.49641,0.924835 25.32699,-15.317136 24.4813,-16.685481 -0.35717,-0.577909 -0.14776,-0.726409 0.47853,-0.339344 1.17472,0.726019 18.41959,-10.205221 17.76891,-11.263425 -0.35165,-0.571896 1.25181,-0.879981 7.32528,-1.407472 2.91442,-0.253121 3.73839,1.511625 1.67105,3.578965 l -1.51945,1.519446 5.54931,11.307058 c 3.05212,6.218881 6.17587,12.80663 6.94167,14.639441 l 1.39236,3.332384 2.96774,-1.534678 2.96773,-1.534677 -8.4346,-17.565228 C 368.79557,51.790174 365,43.558535 365,43.158518 c 0,-0.400016 1.35794,-1.529456 3.01764,-2.509865 1.68142,-0.993241 2.72001,-2.264132 2.34549,-2.870116 -0.39417,-0.637777 -0.20917,-0.801416 0.44733,-0.395677 1.31895,0.815152 9.38852,-4.251893 8.65683,-5.435793 -0.27495,-0.444879 0.027,-1.134493 0.67091,-1.532477 0.73122,-0.451923 0.90292,-0.290138 0.45729,0.430902 -1.33749,2.164111 0.56976,1.157522 9.458,-4.991648 4.88614,-3.380386 8.60345,-6.599914 8.26069,-7.154508 -0.3483,-0.563561 -0.12639,-0.701311 0.50307,-0.312284 1.48371,0.916986 6.35247,-2.303424 5.51966,-3.650945 -0.36886,-0.59682 -0.16573,-0.748345 0.47355,-0.353247 1.31895,0.815152 9.38852,-4.251893 8.65683,-5.4357932 -0.27495,-0.4448786 0.027,-1.1344933 0.67091,-1.532477 0.73122,-0.4519232 0.90292,-0.290138 0.45729,0.4309017 -1.16755,1.8891327 0.27993,1.3363023 4.99491,-1.9076893 2.44791,-1.6842088 4.26034,-3.3717088 4.02761,-3.75 -0.39415,-0.6406726 1.19046,-0.9596012 7.35078,-1.47946374 2.90778,-0.24538363 4.12895,3.01580454 1.77408,4.73772874 -1.25015,0.9141316 -0.46756,3.1845065 5.14126,14.9153538 3.63873,7.610401 6.97715,13.468644 7.41872,13.018317 0.44157,-0.450327 0.51942,-0.08016 0.173,0.822602 -0.34642,0.902758 -0.14457,2.548147 0.44856,3.656419 0.87262,1.630502 1.74607,1.906696 4.577,1.447299 L 454,38.738315 v 2.008871 c 0,1.104878 -1.0125,2.682168 -2.25,3.505089 l -2.25,1.496218 3.4207,7.07927 c 1.88139,3.893598 3.86342,6.805658 4.40451,6.471245 0.55473,-0.342842 0.6671,-0.09558 0.25763,0.566947 -0.97241,1.5734 27.37807,61.276235 28.70748,60.454615 0.60075,-0.37128 0.71065,-0.13115 0.26787,0.58528 -0.41296,0.66817 -0.19387,2.55949 0.48686,4.20291 l 1.23769,2.98805 2.85946,-0.62804 c 3.75864,-0.82554 5.15495,2.06244 2.16699,4.48195 l -2.02433,1.6392 7.52208,16.2171 7.52208,16.2171 2.54995,-0.26206 c 3.61665,-0.37169 3.90495,2.60692 0.55301,5.7134 -1.95132,1.80842 -12.03606,5.58569 -36.08878,13.51715 -18.3594,6.05406 -33.70978,10.9943 -34.11196,10.9783 -0.40218,-0.016 -4.33124,-7.66198 -8.73124,-16.99108 -5.6561,-11.99233 -8.43948,-16.87396 -9.5,-16.66152 -0.825,0.16526 -1.3929,0.82005 -1.262,1.45509 0.13346,0.64742 -0.41564,0.90379 -1.25,0.58362 -0.8184,-0.31405 -1.488,-0.3038 -1.488,0.0228 0,1.68319 9.50615,19.42543 10.18365,19.00671 0.43639,-0.26971 0.49712,0.28182 0.13496,1.22561 -0.48212,1.25638 -0.30375,1.49674 0.66596,0.89743 0.84843,-0.52436 1.08464,-0.43055 0.65723,0.26102 -1.22408,1.9806 1.51692,6.22944 4.01872,6.22944 1.67281,0 2.33948,0.56993 2.33948,2 0,1.11111 -0.66667,2 -1.5,2 -0.825,0 -1.5,0.56886 -1.5,1.26414 0,0.7666 -10.52814,4.75014 -26.75,10.12141 -14.7125,4.8715 -27.12306,8.91513 -27.57902,8.98586 -0.45596,0.0707 -3.69873,-5.49641 -7.20615,-12.37141 -3.50742,-6.875 -6.88031,-12.37635 -7.49531,-12.22522 -0.615,0.15112 -0.82168,-0.20498 -0.45928,-0.79134 0.74843,-1.211 -5.15931,-14.12015 -6.94293,-15.17114 -0.64189,-0.37823 -2.23405,-2.96573 -3.53813,-5.75 -2.2916,-4.89266 -3.36987,-5.93811 -4.40202,-4.26804 -0.79645,1.28867 3.24409,9.40335 4.34379,8.7237 0.60723,-0.37529 0.74507,0.0585 0.34766,1.09415 -0.48212,1.25638 -0.30375,1.49674 0.66596,0.89743 0.84843,-0.52436 1.08464,-0.43055 0.65723,0.26102 -0.96713,1.56486 1.48817,6.39354 2.96321,5.82752 0.68682,-0.26356 1.84106,0.23447 2.56497,1.10673 1.10352,1.32966 1.04872,1.75465 -0.33908,2.63006 l -1.65529,1.04413 6.405,12.78187 c 5.02432,10.02656 6.75166,12.64885 8.01313,12.16479 2.72975,-1.04751 3.55014,1.89228 1.22019,4.37241 -2.39728,2.55178 -43.94568,16.84909 -46.31823,15.93865 -0.7908,-0.30346 -2.14964,0.16008 -3.01964,1.03007 -0.86999,0.87 -9.76794,4.23765 -19.77322,7.48368 l -18.19141,5.90186 -1.25571,-1.7173 c -0.69065,-0.94451 -1.28642,-1.51878 -1.32394,-1.27616 -0.0375,0.24262 -0.82503,3.34926 -1.75,6.90363 L 279.5,257.42501 274,259.5059 c -4.67284,1.76795 -5.54907,2.50329 -5.82626,4.8895 -0.27636,2.37895 -0.69934,2.73728 -2.76504,2.3424 -1.966,-0.37583 -2.56339,0.0304 -3.08167,2.09535 -0.3955,1.57579 -0.1973,2.71009 0.51503,2.94754 1.65528,0.55176 1.43092,2.90058 -0.34206,3.58094 -0.825,0.31658 -1.5,1.45539 -1.5,2.5307 0,1.0753 -0.52729,4.23942 -1.17175,7.03138 C 258.91395,288.88467 258.229,290 256.71076,290 h -1.94574 l 0.71506,-7.63068 c 0.54559,-5.82228 0.40511,-7.82224 -0.59275,-8.43895 -1.05313,-0.65088 -1.00223,-1.16094 0.2614,-2.61932 0.86307,-0.99608 1.80853,-2.79673 2.10104,-4.00145 l 0.53182,-2.1904 -4.49786,1.76678 -4.49785,1.76677 -23.64294,-5.82512 c -13.00362,-3.20382 -23.93036,-5.82569 -24.28165,-5.82638 -0.35129,-6.9e-4 -0.94676,1.64082 -1.32327,3.64779 -0.37651,2.00697 -1.60531,4.39461 -2.73066,5.30587 l -2.04609,1.65682 2.09813,4.11266 2.09812,4.11266 -10.6168,3.55518 c -5.83924,1.95535 -11.00468,3.31545 -11.47876,3.02246 -0.47408,-0.293 -0.86196,-0.14082 -0.86196,0.33818 0,0.479 -4.1625,2.16421 -9.25,3.74492 -5.0875,1.5807 -16.40157,5.26535 -25.14237,8.18811 -8.74081,2.92275 -16.39964,5.3141 -17.01962,5.3141 -0.61998,0 -8.53078,-13.3875 -17.57954,-29.75 z m 67.11562,7.48333 c -0.98762,-0.98026 -1.10248,-0.8654 -0.5598,0.5598 0.37553,0.98622 0.93469,1.54122 1.24258,1.23333 0.30789,-0.30789 6.4e-4,-1.11479 -0.68278,-1.79313 z M 193.36971,269.75 c 0.82399,-3.07468 0.77785,-3.75 -0.25621,-3.75 -0.48758,0 -1.08464,1.35 -1.32681,3 -0.51212,3.4893 0.69558,4.06148 1.58302,0.75 z m -24.02463,-1.29313 c -0.32569,-0.84872 -0.80663,-1.32866 -1.06875,-1.06653 -0.26213,0.26213 -0.17998,0.95654 0.18255,1.54313 0.98605,1.59546 1.56238,1.28551 0.8862,-0.4766 z M 194,260 c 0,-0.55 -0.47656,-1 -1.05902,-1 -0.58246,0 -0.7809,0.45 -0.44098,1 0.33992,0.55 0.81648,1 1.05902,1 0.24254,0 0.44098,-0.45 0.44098,-1 z m -10.66678,-3.13805 c 5.28634,-1.06165 6.29792,-1.84345 5.64396,-4.36195 -0.14281,-0.55 -0.1941,-2.16996 -0.11397,-3.59991 l 0.14569,-2.59991 -6.75445,-3.07316 c -8.53199,-3.88191 -17.64138,-6.56623 -18.05652,-5.32082 -0.17292,0.51877 -3.2132,4.78632 -6.75617,9.48345 -3.54297,4.69712 -6.44176,8.75513 -6.44176,9.01779 0,1.53053 25.21069,1.88492 32.33322,0.45451 z M 155.87607,246.16341 C 159.24423,241.57828 162,237.46686 162,237.02692 c 0,-1.52029 -22.5454,-5.1531 -35.5,-5.72023 -12.32331,-0.53949 -24.5,0.71964 -24.5,2.53343 0,0.38408 5.59104,4.62698 12.42453,9.42866 l 12.42452,8.73033 6.82548,1.43733 c 4.03035,0.84873 6.96197,1.05366 7.1588,0.50044 0.56516,-1.58844 6.17817,-1.07049 6.83084,0.63034 0.7175,1.86978 0.50641,2.0858 8.2119,-8.40381 z M 116,247 c -2.44054,-1.90902 -3.64982,-2.38453 -5.32433,-2.09364 -0.45338,0.0787 -0.57497,-0.26028 -0.2702,-0.75341 0.30478,-0.49314 -1.95062,-2.55968 -5.012,-4.59231 -4.3992,-2.92091 -5.483168,-3.31467 -5.17041,-1.87817 0.21765,0.99964 0.96494,1.69388 1.66066,1.54275 0.69572,-0.15112 1.0171,0.12624 0.71419,0.61636 -0.82583,1.33622 2.32933,3.79 8.43989,6.56376 6.62579,3.00763 8.30414,3.20876 4.9622,0.59466 z m 80,1.60699 c 0,-0.21616 -0.675,-0.65203 -1.5,-0.96862 -0.825,-0.31658 -1.5,-0.13972 -1.5,0.39301 0,0.53274 0.675,0.96862 1.5,0.96862 0.825,0 1.5,-0.17686 1.5,-0.39301 z m 1,-4.22816 c 0,-0.82327 -0.41157,-1.2425 -0.91459,-0.93162 -0.50302,0.31089 -1.09916,0.0115 -1.32474,-0.66519 -0.22711,-0.68133 -0.64617,-0.32788 -0.93902,0.79199 -0.38356,1.46675 -0.0196,2.0608 1.32474,2.16206 1.04145,0.0784 1.85361,-0.51622 1.85361,-1.35724 z M 318.39402,217.75 c -6.49831,-13.00197 -6.11212,-12.4319 -7.48913,-11.05489 -1.29605,1.29605 3.64159,11.70322 5.11926,10.78997 0.54664,-0.33785 0.67219,0.14268 0.29446,1.12703 -0.48212,1.25638 -0.30375,1.49674 0.66596,0.89743 0.86676,-0.53569 1.0852,-0.43145 0.63212,0.30166 -0.96964,1.5689 3.10367,9.1888 4.91199,9.1888 1.07235,0 -0.0826,-3.14263 -4.13466,-11.25 z m -8.69304,-16.35294 c 0.52066,-1.56199 -2.2867,-4.77113 -3.51157,-4.01412 -0.81701,0.50494 -0.81152,1.35234 0.0206,3.17867 1.10053,2.4154 2.82662,2.82848 3.49096,0.83545 z m -6.46504,-11.14997 c -1.15677,-2.6109 -2.3541,-5.87209 -2.66074,-7.24709 -0.83716,-3.75392 -2.19211,-5.36098 -3.95092,-4.68606 l -1.57757,0.60537 1.69968,2.96152 c 0.93482,1.62883 2.11884,2.70246 2.63115,2.38584 0.51231,-0.31663 0.62082,-0.073 0.24112,0.54133 -0.77941,1.26112 4.18374,11.72293 5.11815,10.78853 0.33129,-0.33129 -0.34411,-2.73854 -1.50087,-5.34944 z M 102.90032,173.75 c 0.12619,-2.21534 -3.449727,-2.36661 -4.288271,-0.1814 -0.33106,0.86273 0.183295,2.61972 1.143011,3.90442 l 1.74494,2.33582 0.65032,-2.15442 c 0.35768,-1.18493 0.69518,-2.94192 0.75,-3.90442 z m 191.20172,-1.41734 c -2.17637,-1.5914 -2.40022,-1.08121 -0.9358,2.13285 l 1.24112,2.72397 0.64679,-1.84384 c 0.40083,-1.14268 0.0388,-2.28843 -0.95211,-3.01298 z m -1.80859,-3.95944 C 293.06314,167.60353 290.27121,162 289.11803,162 c -0.45683,0 -1.9687,-2.51548 -3.3597,-5.58996 -1.391,-3.07448 -2.77487,-5.1923 -3.07525,-4.70628 -0.57071,0.92343 7.3802,17.29624 8.39934,17.29624 0.32134,0 0.8663,-0.28205 1.21103,-0.62678 z m 55.66994,-5.32943 1.4634,-0.92559 -1.69722,-3.5591 c -1.77184,-3.7156 -2.37181,-4.07248 -4.53742,-2.69902 -1.05483,0.66899 -0.97064,1.53658 0.43522,4.48469 1.88133,3.9452 2.12548,4.09717 4.33602,2.69902 z m 70.0761,-5.06492 1.908,-1.02113 -1.65896,-3.47887 C 417.37611,151.56549 416.23636,150 415.75577,150 c -0.48059,0 -0.55272,0.51953 -0.16028,1.15451 0.42049,0.68036 0.27644,0.88437 -0.35074,0.49675 -1.32103,-0.81644 -4.24475,0.22689 -4.24475,1.51475 0,0.52361 0.51953,0.63094 1.15451,0.2385 0.70779,-0.43744 0.88336,-0.2748 0.45375,0.42031 -0.83062,1.34398 1.01471,5.17518 2.49267,5.17518 0.5668,0 1.88915,-0.45951 2.93856,-1.02113 z m -75.26801,-8.49983 c -0.14931,-0.12682 -1.28115,-0.54091 -2.51519,-0.9202 -1.77271,-0.54486 -2.11807,-0.36223 -1.64521,0.87003 0.32917,0.8578 1.07087,1.2677 1.64821,0.91088 0.61299,-0.37885 0.75286,-0.16843 0.3362,0.50574 -0.39244,0.63498 -0.38786,1.68145 0.0102,2.32548 0.47415,0.76719 1.01915,0.3723 1.5805,-1.14518 0.47125,-1.27389 0.73464,-2.41992 0.58532,-2.54675 z M 115.02321,146.5247 c -3.12446,-3.32583 -3.75836,-3.18548 -3.27578,0.7253 0.73059,5.92046 1.10351,6.34351 3.48904,3.95798 l 2.15857,-2.15858 z m 167.46213,2.49901 c 1.00664,-1.62877 -1.8247,-6.05004 -3.29318,-5.14247 -1.03312,0.6385 -1.04984,1.33701 -0.0828,3.4594 1.26817,2.78335 2.35968,3.32751 3.37599,1.68307 z m 130.20193,0.19073 c 0.85405,-0.54305 0.25216,-2.50514 -2.14453,-6.99086 -1.83249,-3.42975 -2.94368,-6.47579 -2.46931,-6.76896 0.47436,-0.29317 -0.0927,-2.49905 -1.2601,-4.90194 l -2.12257,-4.3689 -2.34538,1.06862 C 401.05542,127.84015 400,128.68353 400,129.12659 c 0,1.811 3.38936,7.7508 4.15333,7.27864 0.45307,-0.28001 0.52744,0.26309 0.16528,1.20688 -0.48212,1.25638 -0.30375,1.49674 0.66596,0.89743 0.8311,-0.51365 1.08415,-0.42975 0.67935,0.22524 -0.85619,1.38534 3.29028,11.2695 4.71941,11.24991 0.61417,-0.008 1.65094,-0.35504 2.30394,-0.77025 z m -73.72388,-4.17065 1.4634,-0.92559 -1.71387,-3.59403 -1.71387,-3.59403 -1.97327,1.05606 -1.97327,1.05606 1.65896,3.47887 c 1.79483,3.7638 2.05014,3.91527 4.25192,2.52266 z m -66.18376,-17.51132 c -4.69884,-9.4333 -6.40378,-12.02856 -7.33263,-11.16181 -1.72548,1.61011 9.87435,24.82699 11.99727,24.01235 1.14608,-0.43979 0.14881,-3.18716 -4.66464,-12.85054 z m 124.61038,-11.82839 1.77227,-1.29591 -1.76635,-3.70409 C 396.42443,108.66684 395.13451,107 394.52942,107 c -0.60509,0 -2.54254,-2.925 -4.30545,-6.5 -3.2774,-6.64622 -3.75006,-7.086923 -6.04205,-5.633596 -1.02149,0.647717 -0.12639,3.231931 3.97798,11.484686 2.91283,5.8569 5.78246,10.64891 6.37695,10.64891 0.59449,0 1.87841,-0.58316 2.85316,-1.29592 z M 387,90.418917 c 0,-1.506603 -3.51033,-7.221551 -4.1811,-6.806991 -0.46834,0.289449 -0.59581,0.940022 -0.28327,1.445718 0.31253,0.505696 -0.12633,0.652912 -0.97526,0.327147 -2.33566,-0.896274 -2.91859,2.0218 -1.10464,5.529603 l 1.60044,3.094908 2.47192,-1.619661 C 385.88764,91.498827 387,90.612002 387,90.418917 Z M 15.727696,187.27827 c 1.775232,-0.22091 4.925232,-0.22454 7,-0.008 2.074767,0.21648 0.622304,0.39722 -3.227696,0.40166 -3.85,0.004 -5.547537,-0.17268 -3.772304,-0.39359 z M 47,185.09184 c 7.093716,-1.75464 11.530043,-2.27779 10.5,-1.2382 -0.55,0.55509 -3.925,1.25556 -7.5,1.5566 -4.792385,0.40354 -5.580515,0.31989 -3,-0.3184 z M 34.8125,158.31689 c 0.721875,-0.28887 1.584375,-0.25335 1.916667,0.0789 0.332291,0.33229 -0.258334,0.56864 -1.3125,0.52522 -1.164943,-0.048 -1.4019,-0.28494 -0.604167,-0.60416 z m 7,-1 c 0.721875,-0.28887 1.584375,-0.25335 1.916667,0.0789 0.332291,0.33229 -0.258334,0.56864 -1.3125,0.52522 -1.164943,-0.048 -1.4019,-0.28494 -0.604167,-0.60416 z"
       id="path1" />
  </g>
  <metadata
     id="metadata1">
    <rdf:RDF>
      <cc:Work
         rdf:about="">
        <dc:title>OTSM/Jason-2 Icon SVG</dc:title>
        <dc:source>https://upload.wikimedia.org/wikipedia/commons/thumb/5/54/OSTM_Jason_2_spacecraft_model.png/1200px-OSTM_Jason_2_spacecraft_model.png</dc:source>
      </cc:Work>
    </rdf:RDF>
  </metadata>
</svg>
