<?xml version="1.0" encoding="UTF-8" standalone="no"?>
<!-- Created with Inkscape (http://www.inkscape.org/) -->

<svg
   version="1.1"
   id="svg1"
   width="1024"
   height="566"
   viewBox="0 0 1024 566"
   xmlns="http://www.w3.org/2000/svg"
   xmlns:svg="http://www.w3.org/2000/svg">
  <defs
     id="defs1" />
  <g
     id="g1">
    <path
       style="fill:currentColor"
       d="m 362.92349,556.75 c -0.0421,-5.0875 -0.24937,-9.925 -0.46064,-10.75 -0.21128,-0.825 -0.84111,-3.3 -1.39964,-5.5 -0.55852,-2.2 -1.05512,-6.7 -1.10356,-10 -0.0484,-3.3 -0.62852,-8.55618 -1.28908,-11.68039 -0.66132,-3.12783 -0.96654,-8.8362 -0.67922,-12.70323 l 0.5218,-7.02284 -3.50657,-0.51143 c -1.92862,-0.28128 -9.35658,-1.2046 -16.50658,-2.05181 -7.15,-0.8472 -18.625,-2.2142 -25.5,-3.03776 -37.1771,-4.45348 -46.08195,-5.48666 -52,-6.03325 -3.575,-0.33019 -8.75,-0.98593 -11.5,-1.4572 -2.75,-0.47127 -7.34947,-1.1283 -10.22105,-1.46007 l -5.22106,-0.60323 1.64267,2.86219 c 0.92817,1.61724 1.34695,3.63284 0.96278,4.63395 -0.60684,1.5814 -1.56543,1.69477 -8.92161,1.05516 -4.53295,-0.39413 -8.57923,-0.91719 -8.99173,-1.16236 -0.4125,-0.24517 -0.75,-2.27167 -0.75,-4.50332 0,-3.82069 0.15037,-4.02882 2.57582,-3.56516 6.35368,1.21458 -0.73795,-1.53681 -21.22545,-8.23498 l -22.14963,-7.24158 0.46197,-10.14135 C 177.9168,452.0636 178.53537,445.475 179.03732,443 c 0.50194,-2.475 1.4123,-10.79261 2.023,-18.48358 0.61071,-7.69098 1.2734,-14.24738 1.47266,-14.56979 0.19926,-0.32241 0.84072,-5.50479 1.42546,-11.51641 0.58475,-6.01162 1.72695,-16.55522 2.53823,-23.43022 4.12032,-34.9167 4.35618,-32.24381 -3.23794,-36.69426 -4.1253,-2.41759 -4.66227,-2.49659 -8.57973,-1.26224 -2.29845,0.72421 -4.629,1.63119 -5.179,2.01549 -1.05906,0.74001 -10.45614,5.73269 -29.75,15.80621 -28.09184,14.66704 -35.76978,18.68264 -44.25,23.14297 -10.693508,5.62445 -25.516222,13.38994 -42,22.00342 -22.847285,11.9387 -33.036651,17.28433 -41.222763,21.62665 -8.9568752,4.75117 -10.7499265,5.17829 -11.6702482,2.77997 C -0.89216851,420.51147 0.3150285,418.21656 8.1914221,410 17.38868,400.40553 35.248846,381.93103 51.376721,365.32924 c 9.688876,-9.97358 10.947639,-11.68332 11.74538,-15.95342 0.547355,-2.92985 1.931463,-5.86607 3.57279,-7.57924 2.67084,-2.78776 6.820788,-3.74954 7.491868,-1.7363 0.322258,0.96677 10.725473,-9.38297 39.764661,-39.56028 15.97373,-16.59978 64.86944,-67.20242 79.20121,-81.96608 6.95895,-7.16865 15.28395,-15.80928 18.5,-19.20138 5.42797,-5.72509 6.9591,-6.64902 21.34737,-12.88153 8.525,-3.69275 18.2,-7.96215 21.5,-9.48756 9.94161,-4.59546 16.67346,-7.60354 48,-21.4485 32.30692,-14.27824 33.45527,-14.79078 50,-22.31663 6.05,-2.75202 22.475,-10.04272 36.5,-16.20155 14.025,-6.15884 27.975,-12.3279 31,-13.70902 7.8315,-3.575631 12.77139,-5.795593 18.5,-8.313794 2.75,-1.208855 7.44399,-3.303701 10.43109,-4.655213 2.9871,-1.351512 6.27833,-2.235736 7.31384,-1.964942 1.07628,0.281452 3.67591,-0.706528 6.06892,-2.306461 2.30238,-1.539347 7.56115,-4.265657 11.68615,-6.058466 4.125,-1.792809 12.16317,-5.448727 17.86259,-8.124263 C 497.56202,69.189075 502.35941,67 502.52346,67 c 0.16405,0 3.60088,-1.525541 7.63741,-3.390091 C 514.19739,61.745358 520.425,58.881269 524,57.245265 534.75506,52.3235 540.04265,49.889295 549.86353,45.338689 555.01347,42.95241 559.36623,41 559.53633,41 c 0.1701,0 5.10375,-2.25 10.96367,-5 5.85992,-2.75 10.82845,-5 11.04117,-5 0.21272,0 5.6142,-2.475 12.00329,-5.5 6.38909,-3.025 11.77869,-5.5 11.9769,-5.5 0.19821,0 4.09949,-1.75942 8.66951,-3.909821 C 628.72501,9.2512094 649.39929,0 650.14863,0 c 0.39787,0 1.70901,1.7536555 2.91364,3.8970123 1.20464,2.1433567 3.37093,4.4485689 4.81399,5.1226938 2.48985,1.1631349 39.69146,17.4216159 47.12374,20.5948199 1.925,0.821876 4.67705,2.134562 6.11566,2.917079 2.3296,1.267158 2.7739,1.233864 4.06252,-0.304424 2.56598,-3.063148 4.75826,-7.014126 6.17725,-11.132765 1.28206,-3.721216 1.2409,-4.11856 -0.54982,-5.308356 C 718.4894,14.247125 719.29969,11 721.99992,11 c 0.98227,0 5.99663,2.189102 11.14302,4.864671 6.7805,3.525136 9.35706,5.383814 9.35706,6.75 0,1.490617 -0.68042,1.854459 -3.25,1.737881 -1.7875,-0.0811 -3.25,0.291019 -3.25,0.826923 0,0.535904 -1.25639,2.230765 -2.79199,3.766357 -1.53559,1.535592 -3.29865,4.44286 -3.91791,6.460596 -0.99562,3.244016 -0.88977,3.888622 0.91451,5.569572 1.46517,1.365008 1.91376,2.764121 1.59111,4.962481 C 731.54859,47.622316 731.70327,49 732.13945,49 c 0.43619,0 3.57802,-1.8 6.98184,-4 3.40383,-2.2 6.77251,-4 7.48595,-4 0.71343,0 5.38554,5.2875 10.38245,11.75 4.99692,6.4625 10.53093,13.455577 12.2978,15.540172 l 3.21251,3.790172 11,-3.612813 c 11.7853,-3.870734 29.94188,-7.450084 37.84609,-7.4609 5.09146,-0.007 9.44822,1.073849 26.65391,6.612245 12.32856,3.968479 13.67365,4.048494 21.53466,1.28102 8.86766,-3.121869 13.49311,-2.354553 21.48277,3.563779 C 899.11434,78.461447 902.69844,80 908.57354,80 c 2.55077,0 7.17773,0.642236 10.28212,1.427191 3.10438,0.784956 8.79434,1.717825 12.64434,2.073044 13.24146,1.221717 18.58378,2.610912 30.34944,7.891941 15.47508,6.946005 15.81903,7.191024 37.69947,26.855734 4.00069,3.59551 9.18389,11.92024 12.53219,20.1278 1.3951,3.41959 1.4222,4.83185 0.2309,12 -1.2485,7.5117 -1.6592,8.40617 -5.4467,11.8627 -2.253,2.05613 -6.7752,4.71517 -10.04936,5.90897 -5.36038,1.9545 -5.89447,2.40359 -5.3654,4.51159 0.69429,2.76625 -0.44312,2.95206 -6.07481,0.99238 -2.99009,-1.04048 -9.35996,-1.24443 -27.87573,-0.89252 -13.2,0.25088 -31.15658,-0.022 -39.90351,-0.60645 -11.69292,-0.78126 -17.02556,-0.76249 -20.14154,0.0709 -3.69904,0.98935 -4.9141,0.85255 -9.55378,-1.07562 -2.92366,-1.21502 -9.83496,-2.86503 -15.35846,-3.6667 -20.4352,-2.96593 -28.50926,-4.34226 -29.66552,-5.05687 -1.72148,-1.06393 -0.58121,0.65071 8.03074,12.0759 9.0438,11.99812 37.89476,49.44323 42.24604,54.83034 2.64973,3.28048 2.9386,4.17107 2.01236,6.20395 -0.64433,1.41416 -3.13204,3.25574 -6.15434,4.5559 -2.79007,1.20025 -4.87487,2.38026 -4.6329,2.62223 0.24197,0.24197 3.65153,-0.90941 7.57679,-2.55863 l 7.13685,-2.99859 2.86723,3.1724 c 1.57698,1.74482 8.7641,10.8224 15.97138,20.1724 7.20728,9.35 15.55377,20.15 18.54776,24 26.8151,34.48184 39.03615,50.26276 44.52913,57.5 3.54826,4.675 7.00011,9.175 7.67076,10 0.67066,0.825 8.66031,11.10504 17.75481,22.84453 19.8057,25.56605 19.7457,25.07766 3.5662,28.98753 -4.675,1.12975 -17.05,4.11122 -27.5,6.6255 -10.45,2.51428 -20.575,5.0029 -22.5,5.53027 -1.925,0.52736 -10.925,2.74676 -20,4.932 -9.075,2.18523 -26.625,6.44501 -39,9.46619 -12.375,3.02117 -30.15,7.34746 -39.5,9.61398 -9.35,2.26652 -26.9,6.54245 -39,9.50206 -12.1,2.95961 -27.175,6.60922 -33.5,8.11023 -11.74111,2.78633 -16.42465,4.65674 -9.25134,3.6946 3.89919,-0.523 4.00226,-0.45805 4.4889,2.82891 0.27395,1.85031 0.30905,3.86252 0.078,4.47157 -0.52722,1.38981 -7.06423,3.39263 -11.07318,3.39263 -2.8606,0 -3.82586,-1.29422 -4.47495,-6 -0.23007,-1.66789 -3.40876,-2.62592 -6.18102,-1.8629 -1.69753,0.46722 -14.33642,3.57638 -28.08642,6.90924 -13.75,3.33287 -35.125,8.53511 -47.5,11.56054 -12.375,3.02543 -29.925,7.28855 -39,9.47361 -9.075,2.18506 -18.075,4.39541 -20,4.9119 -1.925,0.51649 -6.02164,1.62291 -9.10365,2.45873 -4.24219,1.15044 -8.00806,3.41707 -15.5,9.32922 -12.23213,9.6528 -27.32719,19.17711 -32.21935,20.32895 -2.02235,0.47615 -11.64429,1.37836 -21.38209,2.0049 l -17.70509,1.13916 -10.29491,-6.71592 c -5.6622,-3.69375 -13.17922,-8.75417 -16.70448,-11.24537 l -6.40958,-4.52945 -12.09042,1.39572 c -9.56859,1.10459 -13.96767,1.15925 -21.09043,0.26205 -10.65271,-1.34184 -11.05414,-1.09345 -12.02614,7.44145 -1.14586,10.06161 -3.67208,21.60019 -5.08092,23.2073 -0.75655,0.86302 -2.05547,5.58802 -2.8865,10.5 -2.31459,13.68091 -2.28608,13.6021 -4.79179,13.24579 -2.0626,-0.2933 -2.27189,-1.03579 -3.04841,-10.81492 -0.45857,-5.775 -1.39548,-11.175 -2.08202,-12 -1.8313,-2.20064 -5.38251,-20.96928 -5.51122,-29.12756 -0.0412,-2.61328 -0.66858,-5.12184 -1.44127,-5.76311 -1.28853,-1.06939 -26.52794,-4.54645 -27.31182,-3.76257 -0.20079,0.20078 -0.96617,3.51974 -1.70084,7.37545 -1.49538,7.84809 -2.12814,9.27779 -4.10613,9.27779 -0.92879,0 -1.56647,-1.84904 -1.98302,-5.75 -1.41621,-13.26254 -1.37394,-13.20689 -10.05285,-13.23635 L 379.45415,502 l -0.30162,6.7161 c -0.16588,3.69386 -0.50215,7.04058 -0.74725,7.43715 -0.2451,0.39658 -1.34705,5.81184 -2.44878,12.0339 -1.10173,6.22207 -2.89265,13.42127 -3.97982,15.99823 -1.08718,2.57696 -1.97668,6.45165 -1.97668,8.61043 0,2.15878 -0.28617,6.01285 -0.63592,8.56462 -0.58821,4.29146 -0.85082,4.63957 -3.5,4.63957 H 363 Z"
       id="path1" />
  </g>
</svg>
