<?xml version="1.0" encoding="UTF-8" standalone="no"?>
<!-- Created with Inkscape (http://www.inkscape.org/) -->

<svg
   version="1.1"
   id="svg1"
   width="682.66669"
   height="580"
   viewBox="0 0 682.66669 580"
   xmlns="http://www.w3.org/2000/svg"
   xmlns:svg="http://www.w3.org/2000/svg">
  <defs
     id="defs1" />
  <g
     id="g1">
    <path
       style="fill:currentColor"
       d="m 378.66668,576.61362 c -15.13695,-4.95954 -25.78497,-6.68426 -30.61858,-22.19025 -2.8325,-24.08255 -22.24774,-29.2735 -44.3527,-27.65878 -18.35191,-3.10095 -32.57954,-3.36666 -31.12664,17.38211 -18.066,4.99987 -9.67591,-13.9883 -14.35909,-20.1467 -12.98689,0.71448 -26.65023,1.26561 -30.36793,-12.66667 10.18522,17.42764 -6.75293,-7.9821 -7.62453,-13.96416 -4.59809,-4.28235 -5.26494,-6.47567 -9.66565,-15.44031 0.10049,5.42558 -7.09259,-13.77309 -6.79772,-8.86765 -2.69283,-6.39654 -8.71527,-14.66303 -8.38059,-13.12579 -4.25419,-10.9348 -5.60549,-6.78496 -8.56909,-15.82766 -4.40071,-4.6317 -5.34092,-6.51888 -9.58593,-15.51224 -6.22974,1.31535 1.56276,-32.33501 2.53362,-46.86635 5.22155,-57.59232 9.38874,-115.35625 16.20737,-172.76099 5.12638,-17.54606 14.38778,-32.14496 24.01725,-46.28328 1.63947,-10.94659 21.3927,-24.75248 -5.18844,-28.40665 C 143.59865,105.0916 72.717538,75.122378 1.2356541,46.666667 6.6945287,37.898984 -3.8835554,29.226451 11.22769,12.087676 c 34.732076,9.339587 68.455142,30.302339 101.68868,40.841634 21.19355,14.755258 48.65676,19.328426 68.99343,32.584582 19.35207,4.898249 58.56756,37.999358 68.77745,20.498828 4.78057,-7.48232 9.74161,-18.870056 16.94466,-27.551505 5.52198,0.99708 8.23102,-8.614898 22.97693,-15.751713 12.36391,-12.299733 9.54036,-6.715081 21.93827,-18.265058 2.53046,2.921933 6.83472,-6.752994 17.11952,-11.795533 -0.0128,-3.176341 16.455,-8.595497 22.88043,-18.871133 3.17208,3.269096 14.86606,-18.1331479 34.39159,-11.5189016 18.84424,7.4211913 47.02753,3.6374895 58.32976,7.9019926 5.25523,10.640843 45.46743,8.08099 50.92725,20.609343 15.10298,7.50425 20.68117,13.733962 33.16082,22.506388 7.26461,2.414223 12.72652,10.086262 29.36441,21.063565 19.32774,14.569082 30.19673,19.693917 46.35881,30.737385 4.01568,4.63088 19.32832,13.32057 25.79292,18.38311 4.69098,8.62904 21.12934,8.62613 14.99182,15.8235 12.15858,78.37181 23.1858,156.92188 34.63509,235.39359 3.82647,-3.65501 0.98182,30.1212 -2.20656,22.55467 -5.805,11.07847 -6.50275,6.93195 -15.3046,19.99602 3.93599,-8.4199 -9.5993,14.65894 -6.6599,6.02101 -2.22955,4.16372 -13.54357,18.97836 -4.724,6.47342 -10.76008,10.58105 -8.07084,14.33598 -11.276,12.19325 -8.09822,11.18385 -12.44186,17.00251 -30.38579,38.43337 -9.86323,12.43318 -25.05942,27.0287 -6.80653,6.46448 9.90389,-11.02341 37.02684,-43.89973 11.93315,-15.64583 -16.7092,16.27351 -29.51184,39.96496 -29.10461,34.53654 -1.22562,4.74207 -16.72229,20.79684 -3.97436,5.62865 -12.95819,18.95845 -12.86996,12.98786 -40.4002,17.14723 -17.81451,16.39252 -54.06816,8.53382 -66.57159,21.7369 -12.02724,12.99271 -29.60953,23.93394 -29.36685,23.46438 -14.37306,7.80376 -47.08978,8.67557 -66.98501,2.93178 z m -4,-8.20143 c -19.95658,7.43387 -40.77043,-54.24228 -25.20074,-14.4079 2.87903,9.62026 23.08709,18.24232 25.20074,14.4079 z m 10.33333,0.002 c -11.43291,-1.29721 -0.49093,2.14718 0,0 z m 19.17008,-4.0809 c 4.49456,-5.77705 -10.41124,7.57168 0,0 z m 12.34319,-24.08513 c -10.62498,-2.70633 -13.31487,3.67852 0,0 z m -37.27517,-2.34344 c 12.81696,-18.02317 -16.94164,8.39769 -12.32625,1.73914 4.14683,0.0181 8.75341,0.9746 12.32625,-1.73914 z m 54.60398,-2.64068 c 0.11053,-5.61234 -3.95619,6.64834 0,0 z m -84.57234,-4.06503 c 26.04232,-2.05595 -14.59605,0.66368 -6.43331,0.37414 l 1.07228,-0.63583 z m 73.28582,-2.71995 c -8.74723,-2.74627 -7.73058,5.88136 0,0 z m -15.22222,-0.54044 c -16.81639,-1.74522 -38.77824,-0.69758 -10.9198,0.38921 1.08383,0.054 25.55459,1.57135 10.9198,-0.38921 z M 241.57548,496.76019 c -0.14498,-13.2149 -3.03607,15.13934 0,0 z m 130.70715,-15.43907 c 4.73877,-22.78017 -4.33194,11.54447 0,0 z m 35.00494,-25.1213 c -5.26393,0.54696 -2.1565,5.93677 0,0 z M 245.21921,443.33333 c -5.46069,2.05579 -0.28037,9.67551 0,0 z M 372.17852,421 c -3.19346,-10.02053 1.1432,14.30397 0,0 z m 3.82149,-5.8102 c -2.60963,-3.86898 -5.96503,2.28994 0,0 z m 66.68216,-5.82752 c -11.25264,-7.34827 2.38838,11.802 0,0 z M 247.71703,397.15105 c -3.2233,-0.70161 -0.62491,8.31786 0,0 z m 124.96254,-30.81772 c 8.15721,-20.70322 -8.10996,11.36041 0,0 z m -109.73882,-3.59625 c -0.10028,-11.14704 -3.13929,12.99858 0,0 z M 473.50342,363 c 4.11884,-6.00257 -7.4417,7.09749 0,0 z m 5.90637,-4.16165 c -10.30734,-6.74595 4.76572,11.71978 0,0 z M 250.21638,347.66667 c -2.31297,-0.43111 1.3998,8.90916 0,0 z m 54.66667,0 c -2.31297,-0.43111 1.3998,8.90916 0,0 z m 51.37069,-19 c 0.72337,-6.25603 -6.1463,15.44914 0,0 z m 18.41294,-20.74536 c -5.12815,-8.31368 -5.01184,3.36709 0,0 z M 254.55254,296.66667 c -5.46065,2.05573 -0.2804,9.67553 0,0 z m 120.81609,3.59083 c -5.79956,1.58375 -2.57752,3.77346 0,0 z M 498.66668,292 c -1.847,-8.74008 -2.15152,8.55505 0,0 z M 315.05164,275.87694 c 10.52624,-5.56997 -26.56468,-17.81866 -0.84558,-3.87694 4.54373,3.9431 -15.49129,14.66328 0.84558,3.87694 z m 345.37119,-24.21027 c 0.53168,-15.70871 -13.53643,-50.62456 -6.0446,-24.5315 1.48763,5.33516 4.52911,40.35332 6.0446,24.5315 z M 373.7117,250.92872 c 2.48742,-14.19945 -3.93246,-1.73378 0,0 z m -47.00318,-13.43999 c -8.22692,-18.27536 7.70133,17.05514 -13.65212,4.46831 -1.33145,-2.82347 22.38081,9.05699 13.65212,-4.46831 z m 322.23451,-1.80652 c -2.38321,-2.31569 1.97881,15.32272 0,0 z m -11.86774,4.5055 c 7.6558,-18.82574 -16.2009,-29.79675 -7.72237,-3.52888 -0.42407,4.45058 4.29914,6.32824 7.72237,3.52888 z m -321.07528,-3.52104 c 9.41493,-11.85358 -12.54784,12.03514 0,0 z m 328.18047,0 c 2.40184,-16.71725 -11.55323,-28.43066 -3.5219,-2.71793 1.44306,9.4048 1.7588,-2.78317 3.5219,2.71793 z m -3.43972,-9.40741 c -2.14217,-18.72209 4.69313,15.83142 0,0 z m 6.80897,0.40741 c -2.31301,-0.43113 1.39982,8.90918 0,0 z m -153.30556,-5.25 c -2.46759,-2.71609 1.33836,7.80398 0,0 z M 646.00002,220 c -4.69464,-13.19977 2.17067,16.26445 0,0 z m -103.75585,-4.25 c -2.46761,-2.71605 1.3384,7.80399 0,0 z m -1.33334,-5.33333 c -2.46757,-2.71609 1.33837,7.80399 0,0 z m -1.32016,-7.39129 c -2.43005,-2.26743 1.84822,11.70472 0,0 z m 36.65809,-0.17625 c -0.66034,-9.63768 -4.87422,-34.07768 -7.09891,-29.51882 -7.81625,-4.55119 -18.44571,12.78969 -4.0876,7.03821 -3.803,13.90046 6.46961,9.61737 9.30804,22.48061 l 0.73659,-1.15087 z m -4.00855,-8.79207 c -5.31856,-32.87209 6.20949,19.65322 0,0 z m -33.98776,-0.39039 c -2.07765,0.0838 1.23061,11.80012 0,0 z m 28.41423,3.66666 c 4.55246,-4.6447 -10.75884,4.97016 0,0 z m -294.27986,-4.00184 c 0.067,-7.0073 -3.43937,8.43159 0,0 z m 102.81312,-5.76633 c -1.35993,-3.50964 -5.52566,9.81951 0,0 z m 161.71918,-3.23183 c -2.07768,0.0838 1.23064,11.80014 0,0 z M 312.31863,170.04035 c -0.0464,-9.0981 -3.27246,10.86969 0,0 z m 175.26715,-4.37368 c -2.07765,0.0838 1.23061,11.80012 0,0 z m 3.0809,-6.33334 c -0.53143,-7.31237 -4.25473,7.50904 0,0 z M 358.97341,141.66667 c -0.7232,-7.02996 -5.44209,15.17869 0,0 z m 16.17842,-4.29263 c -5.39628,2.90886 -1.45231,7.24549 0,0 z M 483.6097,110.34888 c -2.23186,-1.42335 1.76681,14.34984 0,0 z M 374.97342,95 c -0.72323,-7.029946 -5.44209,15.1787 0,0 z M 483.32391,65.348606 c -0.99429,-3.118728 -5.64283,4.889178 0,0 z M 372.91083,58.416667 c -2.46761,-2.716065 1.33839,7.803983 0,0 z m 3.08918,-3.75 c -1.20878,-4.598922 -3.66127,4.977307 0,0 z m 104.88305,-3 c -2.31301,-0.431122 1.39983,8.909184 0,0 z M 6.6065283,26.291487 C 20.614492,3.7347881 0.65737392,24.991536 4.7102326,32.678864 Z M 457.33335,27.333333 c -19.49671,-6.343108 12.30334,6.536405 0,0 z m -82.15431,-10 c -0.0556,-5.053452 -6.46455,12.985463 0,0 z m 54.15431,3.463767 c -12.86591,-7.129671 -8.05021,0.464398 0,0 z m -28.36112,-8.269322 c -4.90861,-1.512263 -2.4495,2.322023 0,0 z m -4.97222,-1.051793 c -4.01794,-4.3987109 -4.06383,1.810008 0,0 z m 42.66667,565.857345 c 10.40432,-4.78396 -4.11112,4.46684 0,0 z m 14.66667,-7.23951 c 7.29543,-6.40697 6.98264,-1.18476 0,0 z m 10.38762,-6.94753 c 12.69624,-14.41729 7.41294,-2.95881 -2.31542,2.29196 z m 13.48896,-16.89361 c 16.10843,-2.13242 17.65853,1.52517 0,0 z m 18.4723,-1.86236 c 14.34984,-1.76678 -1.42337,2.23182 0,0 z m 9.31779,-1.27336 c 8.29705,-1.32265 0.10341,2.30694 0,0 z m 6.75,-1.36111 c 7.45402,-1.15107 -2.29244,2.28599 0,0 z m 5.33333,-1.33334 c 7.45401,-1.15107 -2.29242,2.28602 0,0 z M 277.4386,533 c 2.17356,-21.8009 1.17234,18.00885 0,0 z m 253.22808,2.93493 c 15.44508,-10.37226 -4.70463,5.84134 0,0 z m -273.33334,-4.54551 c 4.08363,-9.92093 -32.06385,-3.11508 -13.50742,-5.69407 12.82894,-4.20532 20.21974,5.98188 13.50742,5.69407 z m 72,0.61058 c -4.31064,-4.1129 12.58499,4.29298 0,0 z m 211.02539,-2.25732 c 10.96299,-1.65365 -1.55032,2.28797 0,0 z m -246.02539,-1.39234 c 18.62365,-1.16209 18.45095,1.42303 0,0 z m 258.00001,0.028 c 14.06518,-0.70997 5.82216,1.6447 0,0 z M 173.4386,417.88889 c 0.85779,-5.13861 1.35243,6.06872 0,0 z m 1.488,-14.55556 c 0.59957,-7.60357 1.292,8.23302 0,0 z m 505.38276,-40.66666 c 0.73986,-9.10231 0.73986,9.10229 0,0 z m -1.33334,-9.33334 c 0.73988,-9.10229 0.73987,9.10231 0,0 z M 677.64269,344 c 0.73986,-9.10231 0.73986,9.10231 0,0 z m -496.00001,-8 c 0.73986,-9.10231 0.73986,9.10231 0,0 z m 494.61727,-0.66667 c 0.59957,-7.60357 1.292,8.23302 0,0 z M 674.92662,326 c 0.59956,-7.60357 1.29198,8.23301 0,0 z m -1.33333,-9.33333 c 0.59955,-7.60357 1.29198,8.23301 0,0 z M 182.8772,313.33333 c 0.99975,-7.3713 0.99973,7.37132 0,0 z m 489.38275,-6 c 0.59957,-7.60357 1.292,8.23302 0,0 z M 670.92662,298 c 0.59956,-7.60357 1.29198,8.23301 0,0 z m -1.28393,-8.66667 c 0.73986,-9.10229 0.73986,9.10231 0,0 z M 185.4386,288.55556 c 0.85779,-5.13861 1.35243,6.06872 0,0 z M 668.30936,280 c 0.73986,-9.10231 0.73986,9.10231 0,0 z m -1.38274,-8.66667 c 0.59956,-7.60357 1.29198,8.23301 0,0 z m -1.28393,-10 c 0.73986,-9.10229 0.73986,9.10231 0,0 z m -1.38274,-10 c 0.59957,-7.60357 1.292,8.23302 0,0 z m -474.66668,-6.66666 c 0.59957,-7.60357 1.292,8.23302 0,0 z m 471.95061,-11.33334 c 0.99975,-7.3713 0.99973,7.37132 0,0 z m -1.28393,-8.66666 c 0.59957,-7.60357 1.292,8.23302 0,0 z m -1.33333,-9.33334 c 0.59956,-7.60357 1.29198,8.23301 0,0 z m -1.28393,-8.66666 c 0.73986,-9.10231 0.73986,9.10229 0,0 z m -1.33333,-9.33334 c 0.73986,-9.10229 0.73986,9.10231 0,0 z M 654.97602,188 c 0.73988,-9.10231 0.73988,9.10231 0,0 z m -1.38274,-8.66667 c 0.59956,-7.60357 1.292,8.23301 0,0 z M 212.00001,172 c 6.44817,-9.64506 -3.42801,9.47751 0,0 z m 440.25994,-2 c 0.59956,-7.60357 1.292,8.23301 0,0 z m -1.33333,-9.33333 c 0.59956,-7.60357 1.29198,8.23301 0,0 z m -1.33334,-9.33334 c 0.59956,-7.60357 1.292,8.23301 0,0 z M 225.44039,148 c 6.9708,-12.67218 -3.17124,8.6914 0,0 z m 422.81956,-6 c 0.59956,-7.60357 1.292,8.23301 0,0 z m -432.25994,-4.66667 c -4.55246,-4.6447 10.75884,4.97016 0,0 z m -6.66667,-2.66666 c -4.55246,-4.6447 10.75885,4.97016 0,0 z m -9.33333,-4 c -4.55246,-4.6447 10.75884,4.97016 0,0 z m 436.66668,-3.45015 c -12.03722,-10.19596 13.98226,10.13395 0,0 z M 193.33334,128 c -4.55246,-4.6447 10.75885,4.97016 0,0 z m -6.66667,-2.66667 c -4.55245,-4.6447 10.75886,4.97017 0,0 z m -9.33333,-4 c -4.55246,-4.6447 10.75884,4.97016 0,0 z m 446.00001,-3.45014 c -12.03722,-10.19597 13.98229,10.13395 0,0 z m -452.66668,0.78348 c -4.55245,-4.6447 10.75887,4.97017 0,0 z M 164,116 c -4.55245,-4.6447 10.75887,4.97017 0,0 z m -9.33333,-4 c -4.55246,-4.6447 10.75885,4.97016 0,0 z m 455.33335,-3.45015 c -12.03722,-10.195967 13.98226,10.13396 0,0 z m -463.33335,0.11682 c -8.37759,-7.12549 14.88253,7.47318 0,0 z m 90.66667,0 c -8.37759,-7.12549 14.88253,7.47318 0,0 z m -98.66667,-3.33334 c -4.55246,-4.6447 10.75884,4.97016 0,0 z m 90.66667,0 c -4.55246,-4.6447 10.75884,4.97016 0,0 z m 367.33334,-6.11681 c -12.03723,-10.195968 13.98229,10.13395 0,0 z M 214.66667,100 c -4.55245,-4.644697 10.75887,4.97017 0,0 z M 192.00001,89.333333 c -15.52406,-7.507797 -19.91027,-11.743973 -0.97637,-1.846893 14.29326,6.735398 27.74374,15.56842 4.6194,3.693786 z M 116,96 c -4.55245,-4.644697 10.75886,4.97016 0,0 z m -6.66666,-2.666667 c -4.55246,-4.644697 10.75884,4.970161 0,0 z m 472.33334,-4.132502 c -14.69539,-9.889098 3.62369,6.133355 5.44691,3.724161 z M 94.666669,87.333333 c -8.37758,-7.125484 14.882521,7.473184 0,0 z m -8,-3.333333 c -4.552457,-4.644696 10.758851,4.970159 0,0 z M 568.33335,79.867497 c -14.6954,-9.889091 3.62371,6.133367 5.44691,3.724161 z M 80.000002,81.333333 c -4.552456,-4.644697 10.758851,4.970162 0,0 z m -8,-3.333333 c -8.37758,-7.125486 14.882524,7.473185 0,0 z m 90.666668,-2.666667 c -8.37758,-7.125484 14.88253,7.473185 0,0 z M 64.000002,74.666667 c -4.552457,-4.644699 10.758849,4.97016 0,0 z M 555.00002,70.534164 c -14.6954,-9.889091 3.62371,6.133367 5.4469,3.724161 z M 56.000002,71.333333 c -8.377579,-7.125483 14.882522,7.473183 0,0 z m 220.000008,1.496593 c 4.31686,-6.175928 4.69599,-1.043956 0,0 z M 150.66667,70 c -8.37758,-7.125487 14.88253,7.473186 0,0 z M 48.000001,68 c -4.552457,-4.644696 10.758851,4.970159 0,0 z m -6.666666,-2.666667 c -4.552457,-4.644697 10.758849,4.970161 0,0 z m 97.333335,-0.666666 c -8.37758,-7.125486 14.88253,7.473183 0,0 z m 404.66668,-2.783481 c -12.03723,-10.195964 13.98228,10.133958 0,0 z M 32.000001,61.333333 c -4.552457,-4.644697 10.75885,4.970161 0,0 z m 94.666669,-2 c -8.37758,-7.125484 14.88253,7.473185 0,0 z M 25.333334,58.666667 c -4.552458,-4.644699 10.758851,4.97016 0,0 z M 18.666667,56 c -4.552457,-4.644696 10.758851,4.970159 0,0 z M 116,54.666667 c -4.55245,-4.644699 10.75886,4.970165 0,0 z M 9.3333336,52 c -4.5524571,-4.644696 10.7588494,4.970159 0,0 z M 526.00002,49.883186 c -12.03722,-10.195966 13.98226,10.133953 0,0 z M 2.6666667,49.333333 c -4.5524567,-4.644697 10.7588503,4.970161 0,0 z M 102.66667,48.666667 c -8.377582,-7.125486 14.88253,7.473183 0,0 z m -13.333334,-6 c -13.207693,-9.281853 19.718844,9.628218 0,0 z M 512.66668,40.549853 c -12.03723,-10.195968 13.98229,10.133955 0,0 z M 76.000002,36.666667 c -8.377581,-7.125485 14.882524,7.473182 0,0 z m 246.666678,0.163259 c 4.31686,-6.175928 4.69599,-1.043956 0,0 z m 175,-6.295762 c -14.69541,-9.889097 3.6237,6.133355 5.44691,3.724161 z M 65.333335,32 c -4.552457,-4.644696 10.758851,4.970159 0,0 z M 54.666668,27.333333 c -8.37758,-7.125484 14.882525,7.473184 0,0 z M 42.666668,22 c -8.37758,-7.125486 14.882524,7.473185 0,0 z m 298.666672,1.496593 c 4.31689,-6.175928 4.69598,-1.043956 0,0 z m 142.66667,-2.16326 c -3.81874,-4.822135 7.41125,4.36716 0,0 z M 30.666668,16.666667 c -8.377581,-7.1254848 14.882521,7.473182 0,0 z M 463.75001,16.422515 c 7.45403,-1.151092 -2.29242,2.286023 0,0 z m -5.33333,-1.333334 c 7.45403,-1.151093 -2.29242,2.286025 0,0 z M 17.333334,10.666667 c -13.2076962,-9.2818533 19.718849,9.628217 0,0 z M 360.00001,8.8299263 c 4.31687,-6.1759265 4.69599,-1.0439619 0,0 z m 55.75,-3.0740783 c 7.45403,-1.1510926 -2.29242,2.2860242 0,0 z m 20,0 c 7.45403,-1.1510926 -2.29242,2.2860242 0,0 z m -41.33333,-4 c 7.45401,-1.15108283 -2.29244,2.286018 0,0 z m -6.66667,-1.33333338 c 7.45403,-1.15109258 -2.29242,2.28602438 0,0 z"
       id="path1" />
  </g>
</svg>
