<?xml version="1.0" encoding="UTF-8" standalone="no"?>
<svg xmlns="http://www.w3.org/2000/svg" version="1.2" baseProfile="tiny" viewBox="0.00 0.00 512.00 447.00" width="512.00" height="447.00">
<path fill="#6d6c6a" d="
  M 429.62 0.00
  Q 430.51 0.48 430.45 1.32
  Q 429.56 1.38 429.16 1.92
  Q 423.47 9.41 410.80 26.35
  Q 409.05 28.70 407.56 31.28
  A 3.95 3.75 -8.9 0 1 406.89 32.15
  C 404.73 34.30 403.47 36.90 401.54 39.44
  Q 393.40 50.09 391.79 52.28
  Q 373.01 77.89 356.95 99.67
  Q 351.52 107.03 345.13 115.60
  Q 340.78 121.45 339.82 122.31
  Q 339.73 122.39 330.35 135.28
  C 327.78 138.82 325.39 141.45 323.46 144.66
  C 322.24 146.68 320.51 148.48 318.97 150.48
  A 0.99 0.99 0.0 0 0 319.35 151.98
  Q 322.87 153.57 324.83 155.65
  A 3.92 3.78 -4.4 0 0 325.57 156.26
  L 343.82 168.06
  Q 341.70 171.11 338.88 172.79
  A 1.32 1.13 4.4 0 0 338.73 172.90
  L 333.07 178.25
  A 0.57 0.56 -37.2 0 0 332.97 178.94
  Q 333.76 180.31 334.77 180.84
  Q 335.97 181.75 336.00 181.83
  A 0.54 0.54 0.0 0 1 335.17 182.40
  L 328.83 177.95
  A 1.12 1.12 0.0 0 1 328.41 176.68
  Q 329.94 172.08 333.44 168.65
  A 0.97 0.94 -64.4 0 1 334.14 168.39
  L 335.04 168.45
  A 0.58 0.58 0.0 0 0 335.40 167.40
  L 331.36 164.63
  A 1.26 1.22 -33.3 0 0 330.41 164.45
  L 324.90 165.64
  A 0.09 0.09 0.0 0 1 324.84 165.64
  Q 322.60 165.56 319.89 166.86
  A 2.69 2.65 23.7 0 1 319.39 167.05
  Q 304.28 171.12 301.83 171.74
  Q 296.90 172.99 292.26 174.52
  C 285.70 176.67 279.35 177.65 273.41 179.45
  Q 265.75 181.77 264.26 182.04
  Q 263.01 182.28 261.34 183.14
  Q 260.73 183.46 258.38 184.24
  Q 253.83 185.77 248.90 187.07
  Q 251.13 182.52 254.20 179.26
  A 2.25 2.20 11.9 0 1 255.14 178.66
  Q 258.68 177.53 268.10 175.02
  Q 288.44 169.61 320.01 160.74
  Q 321.22 160.40 325.03 158.90
  A 0.55 0.54 51.7 0 0 325.14 157.94
  L 324.50 157.50
  A 2.47 2.47 0.0 0 0 322.47 157.17
  Q 310.06 160.62 305.10 161.79
  Q 297.63 163.56 287.83 166.66
  Q 280.04 169.12 268.31 171.86
  Q 267.86 171.96 266.47 172.56
  A 3.58 3.52 28.4 0 1 265.53 172.83
  Q 261.78 173.33 258.88 174.66
  A 0.54 0.54 0.0 0 1 258.21 173.85
  L 261.30 169.55
  Q 263.10 167.66 263.85 165.58
  A 0.77 0.76 -64.7 0 0 263.53 164.67
  L 106.23 68.46
  A 1.34 1.33 -58.4 0 0 104.41 68.90
  L 0.00 236.83
  L 0.00 234.39
  L 103.89 66.72
  A 1.39 1.38 -58.0 0 1 105.81 66.27
  Q 117.41 73.64 134.78 84.26
  Q 193.31 120.03 197.74 122.80
  C 201.93 125.41 204.60 127.10 209.10 125.94
  Q 226.80 121.37 275.51 109.94
  Q 279.50 109.00 281.25 111.29
  A 0.68 0.68 0.0 0 0 282.24 111.39
  Q 283.58 110.20 286.30 112.16
  Q 303.72 124.74 323.97 139.56
  A 0.61 0.61 0.0 0 0 324.82 139.43
  L 427.48 0.00
  L 429.62 0.00
  Z"
/>
<path fill="#b2b2b0" d="
  M 430.45 1.32
  L 510.01 93.75
  A 2.35 2.35 0.0 0 1 510.06 96.75
  Q 502.04 106.74 494.10 116.36
  Q 461.71 155.61 420.95 204.71
  Q 417.56 208.79 413.77 212.78
  Q 412.98 213.60 411.80 212.40
  Q 411.34 211.62 411.01 212.01
  Q 410.91 211.95 410.80 211.88
  Q 410.18 210.70 409.26 210.99
  Q 408.52 210.67 408.42 210.38
  L 396.98 202.75
  A 0.72 0.71 -53.3 0 0 396.04 202.89
  Q 395.61 203.40 395.50 204.20
  L 394.61 205.71
  Q 394.57 205.42 394.32 205.50
  A 0.17 0.15 3.6 0 0 394.23 205.57
  Q 393.96 205.94 394.30 206.26
  L 389.51 213.21
  Q 388.79 213.39 388.94 214.22
  L 388.41 224.03
  Q 388.06 224.75 388.30 225.53
  Q 388.24 225.62 388.19 225.70
  Q 387.72 226.46 388.00 227.50
  Q 387.47 228.37 387.81 229.54
  L 387.63 234.03
  Q 387.32 235.63 387.55 237.23
  L 387.43 237.95
  Q 386.88 238.80 387.29 239.54
  L 387.18 239.95
  Q 386.74 240.70 387.06 241.79
  L 386.90 243.96
  Q 386.53 244.38 386.79 245.04
  L 386.70 248.45
  Q 386.08 248.95 386.56 250.25
  L 385.93 257.45
  Q 385.62 258.03 385.81 259.20
  L 385.01 265.00
  L 383.69 266.76
  A 0.79 0.79 0.0 0 1 382.29 266.09
  C 383.09 262.96 384.02 259.30 384.17 255.90
  Q 384.30 252.84 384.58 245.27
  A 4.30 4.20 54.6 0 1 384.73 244.31
  Q 385.52 241.45 385.61 239.51
  Q 386.11 228.15 387.34 213.64
  A 0.46 0.46 0.0 0 0 387.12 213.20
  L 383.86 211.27
  A 0.16 0.16 0.0 0 0 383.62 211.39
  L 380.38 262.26
  A 0.98 0.98 0.0 0 1 378.94 263.06
  L 377.69 262.40
  Q 378.34 262.12 378.98 262.11
  A 0.66 0.66 0.0 0 0 379.62 261.54
  L 380.30 256.17
  A 0.45 0.45 0.0 0 0 379.51 255.82
  L 376.81 259.00
  A 1.28 1.28 0.0 0 1 375.02 259.16
  L 370.57 255.50
  Q 373.72 252.28 375.23 249.48
  C 377.37 245.51 375.58 242.51 372.15 239.56
  C 370.49 238.14 366.44 232.83 363.21 232.18
  Q 361.00 231.74 358.78 232.48
  Q 357.16 230.95 355.33 229.75
  A 2.49 2.48 -6.4 0 1 354.89 229.40
  L 350.81 225.26
  A 1.63 1.63 0.0 0 0 348.58 225.17
  L 345.67 227.71
  A 1.35 1.34 47.4 0 0 345.59 229.66
  L 352.40 236.71
  Q 347.91 242.03 348.78 248.98
  Q 349.00 250.71 351.17 252.18
  A 0.58 0.53 -20.8 0 0 351.42 252.28
  L 353.90 252.78
  A 1.93 1.91 -13.1 0 1 355.05 253.49
  C 358.29 257.16 360.88 259.47 366.34 258.15
  L 363.66 261.87
  A 0.58 0.58 0.0 0 0 363.72 262.62
  L 369.48 268.43
  Q 369.99 268.76 369.33 270.01
  A 1.04 0.93 20.5 0 0 370.05 271.38
  Q 371.11 271.66 371.81 272.27
  A 0.95 0.94 33.9 0 1 372.04 273.43
  Q 369.44 278.43 365.87 281.15
  A 1.05 1.05 0.0 0 0 365.66 281.36
  L 359.69 288.47
  A 2.05 2.03 78.5 0 0 359.48 288.79
  C 358.65 290.49 356.97 291.27 355.83 292.86
  Q 352.96 296.86 348.44 301.07
  A 5.16 4.53 -89.9 0 0 347.77 301.83
  Q 345.28 305.31 344.77 305.78
  Q 341.55 308.73 340.51 310.10
  A 1.57 1.57 0.0 0 1 338.76 310.64
  L 335.97 309.70
  A 0.82 0.80 34.6 0 0 335.21 309.83
  Q 330.90 313.18 329.25 317.67
  A 0.86 0.84 -63.1 0 0 329.57 318.68
  Q 330.50 319.31 330.54 319.38
  Q 330.91 319.99 329.74 320.41
  C 325.97 321.76 322.91 323.47 319.06 324.69
  Q 315.30 325.88 308.76 328.27
  A 0.74 0.74 0.0 0 0 308.49 329.49
  L 308.92 329.91
  A 1.04 1.03 -34.0 0 0 310.08 330.13
  Q 321.92 325.05 332.26 321.64
  A 0.81 0.80 -8.4 0 1 333.33 322.42
  Q 333.32 322.89 333.04 323.20
  L 311.72 330.98
  L 304.10 334.35
  A 1.26 1.26 0.0 0 1 302.49 333.80
  L 300.88 330.82
  A 0.44 0.34 11.4 0 0 300.76 330.68
  C 299.04 329.23 296.27 326.27 297.42 323.82
  A 1.58 1.48 -6.2 0 1 297.98 323.17
  Q 300.46 321.52 303.34 322.01
  A 0.31 0.30 74.5 0 0 303.62 321.51
  L 302.85 320.63
  A 1.61 1.61 0.0 0 0 301.46 320.08
  C 296.63 320.57 293.78 324.36 295.69 328.99
  A 1.12 1.10 -3.7 0 0 296.44 329.64
  L 298.20 330.10
  A 0.94 0.94 0.0 0 1 298.31 331.89
  L 271.65 342.22
  A 1.03 1.02 -24.2 0 1 270.37 341.74
  L 268.36 337.92
  A 2.37 2.37 0.0 0 0 266.87 336.75
  L 261.33 335.32
  A 1.02 1.02 0.0 0 0 260.26 335.70
  L 256.10 341.14
  A 1.01 0.99 21.9 0 1 255.16 341.53
  Q 250.90 340.94 247.34 339.22
  A 4.82 4.73 -26.1 0 0 246.10 338.81
  Q 242.27 338.08 238.98 336.39
  A 5.40 5.03 -22.6 0 0 237.93 336.00
  Q 228.91 333.64 220.24 330.91
  Q 219.44 330.65 219.09 331.83
  Q 219.15 330.43 218.22 330.01
  Q 218.65 330.05 218.82 329.82
  Q 218.98 329.62 218.85 329.19
  Q 217.87 325.96 216.67 323.84
  A 3.62 3.61 -5.5 0 0 214.69 322.21
  L 208.68 320.19
  A 1.64 1.63 -59.5 0 0 206.95 320.64
  Q 205.89 321.79 205.04 323.95
  A 0.56 0.56 0.0 0 1 204.06 324.07
  Q 203.86 323.79 203.73 323.20
  Q 199.52 303.26 197.32 292.71
  Q 197.03 291.32 193.98 279.24
  Q 192.36 272.84 191.12 265.67
  Q 195.04 266.85 195.34 268.79
  A 0.94 0.93 5.0 0 0 195.98 269.55
  L 201.05 271.26
  A 0.97 0.97 0.0 0 0 202.13 270.93
  L 207.89 263.37
  A 2.33 2.33 0.0 0 0 207.92 260.59
  L 206.33 258.41
  Q 205.41 255.98 204.75 255.49
  Q 202.97 254.16 199.39 253.05
  L 212.40 235.07
  A 0.64 0.64 0.0 0 1 212.61 234.86
  Q 213.71 234.18 216.30 230.29
  C 218.26 227.33 220.82 224.69 223.04 221.42
  Q 229.67 211.67 237.24 202.43
  L 242.03 204.72
  Q 241.94 205.01 242.34 205.73
  A 1.56 1.48 88.4 0 0 242.95 206.34
  L 247.32 208.71
  A 1.60 1.59 -57.1 0 0 249.34 208.27
  L 255.61 200.05
  A 0.80 0.80 0.0 0 0 255.67 199.17
  L 255.20 198.31
  Q 253.11 194.78 251.91 193.60
  Q 251.49 193.19 249.52 192.29
  L 248.90 187.07
  Q 253.83 185.77 258.38 184.24
  Q 260.73 183.46 261.34 183.14
  Q 263.01 182.28 264.26 182.04
  Q 265.75 181.77 273.41 179.45
  C 279.35 177.65 285.70 176.67 292.26 174.52
  Q 296.90 172.99 301.83 171.74
  Q 304.28 171.12 319.39 167.05
  A 2.69 2.65 23.7 0 0 319.89 166.86
  Q 322.60 165.56 324.84 165.64
  A 0.09 0.09 0.0 0 0 324.90 165.64
  L 330.41 164.45
  A 1.26 1.22 -33.3 0 1 331.36 164.63
  L 335.40 167.40
  A 0.58 0.58 0.0 0 1 335.04 168.45
  L 334.14 168.39
  A 0.97 0.94 -64.4 0 0 333.44 168.65
  Q 329.94 172.08 328.41 176.68
  A 1.12 1.12 0.0 0 0 328.83 177.95
  L 335.17 182.40
  A 0.54 0.54 0.0 0 0 336.00 181.83
  Q 335.97 181.75 334.77 180.84
  L 339.62 174.17
  A 1.21 1.15 5.7 0 1 340.15 173.76
  L 342.28 172.93
  A 2.14 2.09 -80.9 0 0 343.21 172.24
  L 345.25 169.55
  A 0.50 0.50 0.0 0 0 345.10 168.81
  L 343.82 168.06
  L 325.57 156.26
  A 3.92 3.78 -4.4 0 1 324.83 155.65
  Q 322.87 153.57 319.35 151.98
  A 0.99 0.99 0.0 0 1 318.97 150.48
  C 320.51 148.48 322.24 146.68 323.46 144.66
  C 325.39 141.45 327.78 138.82 330.35 135.28
  Q 339.73 122.39 339.82 122.31
  Q 340.78 121.45 345.13 115.60
  Q 351.52 107.03 356.95 99.67
  Q 373.01 77.89 391.79 52.28
  Q 393.40 50.09 401.54 39.44
  C 403.47 36.90 404.73 34.30 406.89 32.15
  A 3.95 3.75 -8.9 0 0 407.56 31.28
  Q 409.05 28.70 410.80 26.35
  Q 423.47 9.41 429.16 1.92
  Q 429.56 1.38 430.45 1.32
  Z
  M 391.37 92.79
  L 392.39 93.49
  Q 392.42 94.28 393.12 94.89
  Q 400.74 101.46 408.34 108.04
  C 412.47 111.62 416.40 115.68 421.02 118.90
  A 0.62 0.62 0.0 0 0 421.85 118.78
  L 446.26 87.92
  A 0.30 0.30 0.0 0 1 446.67 87.87
  L 446.91 88.06
  A 0.45 0.45 0.0 0 1 446.99 88.70
  L 422.87 119.19
  A 0.36 0.35 22.6 0 1 422.56 119.31
  Q 422.34 119.29 422.30 119.37
  A 1.30 0.59 -66.2 0 0 422.31 120.64
  Q 427.23 124.34 433.61 130.41
  Q 434.82 131.57 435.03 131.65
  A 6.20 6.18 -11.2 0 1 437.38 133.22
  Q 442.63 138.88 449.75 144.02
  Q 449.95 144.16 450.35 144.88
  A 1.36 1.32 7.2 0 0 450.67 145.28
  L 460.27 153.44
  A 0.71 0.71 0.0 0 0 461.27 153.36
  L 484.48 126.05
  A 0.82 0.82 0.0 0 0 484.44 124.93
  L 462.12 102.61
  A 0.62 0.61 -48.0 0 0 461.21 102.66
  L 437.96 132.04
  A 0.44 0.44 0.0 0 1 437.35 132.12
  L 437.05 131.89
  A 0.32 0.31 38.1 0 1 436.99 131.44
  L 458.84 104.14
  A 0.35 0.35 0.0 0 1 458.91 104.07
  Q 459.39 103.69 460.86 102.09
  A 0.58 0.58 0.0 0 0 460.85 101.28
  L 418.62 59.07
  Q 418.30 58.48 417.90 58.40
  L 403.82 43.69
  A 0.79 0.79 0.0 0 1 403.83 42.59
  L 404.02 42.40
  A 0.76 0.76 0.0 0 1 405.08 42.40
  L 418.64 55.96
  A 0.46 0.46 0.0 0 0 419.33 55.92
  L 444.19 23.32
  A 0.70 0.70 0.0 0 0 444.13 22.41
  Q 436.61 14.76 431.31 7.49
  A 0.79 0.79 0.0 0 0 430.05 7.47
  L 415.50 26.64
  A 0.55 0.50 -15.9 0 0 415.42 26.77
  Q 413.94 29.83 411.52 31.96
  A 3.72 3.56 86.5 0 0 410.79 32.82
  Q 407.22 38.64 403.76 42.11
  A 4.63 4.61 -9.0 0 0 402.92 43.26
  Q 401.24 46.62 399.35 48.43
  A 7.70 7.37 -6.2 0 0 398.34 49.63
  Q 392.34 58.63 387.11 65.30
  Q 383.14 70.37 381.72 72.42
  Q 378.60 76.91 376.23 79.39
  A 0.52 0.52 0.0 0 0 376.28 80.16
  Q 381.60 84.34 387.05 89.71
  Q 387.88 90.53 391.37 92.79
  Z
  M 449.15 85.60
  Q 448.72 85.78 448.83 86.62
  A 0.13 0.13 0.0 0 0 448.88 86.70
  L 485.22 123.22
  A 0.61 0.61 0.0 0 0 486.12 123.18
  L 507.92 97.54
  A 1.08 1.08 0.0 0 0 507.91 96.13
  L 445.57 24.45
  A 0.44 0.44 0.0 0 0 444.88 24.47
  L 420.09 56.98
  A 0.57 0.56 -49.0 0 0 420.14 57.73
  L 432.79 70.39
  A 0.53 0.53 0.0 0 0 433.58 70.34
  L 456.92 39.73
  A 0.44 0.44 0.0 0 1 457.43 39.58
  L 457.73 39.69
  A 0.32 0.32 0.0 0 1 457.88 40.19
  L 434.38 71.01
  A 0.89 0.88 -48.8 0 0 434.45 72.16
  L 447.48 85.18
  A 0.66 0.66 0.0 0 0 448.46 85.12
  L 471.75 55.70
  A 0.06 0.06 0.0 0 1 471.84 55.69
  L 472.06 55.85
  A 0.52 0.51 -52.6 0 1 472.15 56.57
  L 449.86 84.99
  A 1.84 0.75 -62.7 0 1 449.15 85.60
  Z
  M 364.59 127.52
  A 0.31 0.31 0.0 0 0 365.03 127.46
  L 389.80 94.97
  A 0.31 0.31 0.0 0 0 389.76 94.55
  L 375.42 82.05
  A 0.31 0.31 0.0 0 0 374.97 82.09
  L 349.44 115.57
  A 0.31 0.31 0.0 0 0 349.50 116.01
  L 364.59 127.52
  Z
  M 459.77 155.89
  A 0.34 0.34 0.0 0 0 459.74 155.41
  L 391.22 95.74
  A 0.34 0.34 0.0 0 0 390.73 95.79
  L 366.06 128.15
  A 0.34 0.34 0.0 0 0 366.12 128.63
  L 436.74 182.48
  A 0.34 0.34 0.0 0 0 437.21 182.43
  L 459.77 155.89
  Z
  M 348.80 117.89
  A 0.35 0.35 0.0 0 0 348.31 117.96
  L 323.36 150.67
  A 0.35 0.35 0.0 0 0 323.44 151.18
  L 338.89 161.30
  A 0.35 0.35 0.0 0 0 339.36 161.22
  L 363.51 129.55
  A 0.35 0.35 0.0 0 0 363.44 129.06
  L 348.80 117.89
  Z
  M 410.03 164.41
  C 409.37 163.40 407.16 162.35 405.85 161.33
  Q 396.86 154.37 379.33 141.15
  Q 369.85 134.00 364.93 130.06
  A 0.39 0.38 -66.5 0 0 364.31 130.31
  C 364.17 131.25 363.57 131.62 363.08 132.27
  Q 342.48 159.20 342.47 159.27
  Q 342.38 159.92 340.31 161.62
  A 0.51 0.51 0.0 0 0 340.35 162.44
  L 354.52 171.63
  A 0.79 0.75 57.2 0 0 355.06 171.76
  Q 355.41 171.74 355.41 171.25
  A 0.44 0.43 65.7 0 1 355.51 170.97
  L 378.53 141.38
  A 0.29 0.29 0.0 0 1 379.05 141.53
  L 379.13 142.28
  A 0.07 0.06 -40.3 0 1 379.12 142.34
  L 356.12 172.11
  A 0.64 0.64 0.0 0 0 356.27 173.03
  L 369.99 182.02
  A 2.05 2.05 0.0 0 0 372.74 181.55
  L 393.81 153.91
  A 0.64 0.64 0.0 0 1 394.73 153.81
  L 395.03 154.07
  A 0.38 0.38 0.0 0 1 395.08 154.60
  L 372.96 182.78
  A 1.03 1.02 35.3 0 0 373.22 184.28
  Q 380.34 188.79 383.78 191.24
  C 386.29 193.03 389.45 194.44 392.05 196.82
  A 1.87 0.53 27.8 0 0 392.24 196.96
  L 412.52 210.25
  A 1.46 1.46 0.0 0 0 414.43 209.97
  L 435.87 184.76
  A 0.57 0.56 -50.9 0 0 435.79 183.95
  L 425.59 175.95
  A 0.42 0.24 60.5 0 0 425.49 175.89
  C 422.76 174.45 420.92 172.33 418.61 170.76
  Q 415.17 168.42 411.16 165.04
  Q 411.15 165.03 410.92 164.94
  Q 410.87 164.92 410.64 164.86
  A 1.07 1.07 0.0 0 1 410.03 164.41
  Z
  M 372.82 193.33
  Q 371.01 194.52 369.23 197.77
  A 0.72 0.72 0.0 0 0 369.61 198.79
  L 369.87 198.89
  A 0.66 0.64 -61.1 0 0 370.64 198.66
  L 373.84 194.06
  Q 376.80 195.48 379.03 197.78
  A 0.90 0.89 40.7 0 1 379.12 198.93
  L 375.19 204.32
  A 1.77 1.76 34.7 0 0 375.65 206.84
  L 381.01 210.31
  L 381.27 210.37
  A 0.32 0.30 -64.3 0 0 381.61 210.24
  Q 384.56 205.75 387.10 203.87
  Q 390.12 201.64 391.26 199.88
  A 0.55 0.54 -62.8 0 0 391.01 199.08
  L 389.24 198.38
  Q 384.56 194.21 380.87 192.12
  Q 378.42 190.73 376.78 189.60
  Q 373.42 187.28 373.40 187.27
  C 365.96 182.58 358.75 177.43 351.17 172.86
  A 0.40 0.40 0.0 0 0 350.64 172.97
  L 348.75 175.57
  A 0.33 0.32 37.0 0 0 348.82 176.03
  L 372.82 193.33
  Z
  M 299.3277 181.3109
  A 0.31 0.31 0.0 0 0 298.9424 181.1017
  L 281.8562 186.1629
  A 0.31 0.31 0.0 0 0 281.6470 186.5482
  L 282.1923 188.3891
  A 0.31 0.31 0.0 0 0 282.5776 188.5983
  L 299.6638 183.5371
  A 0.31 0.31 0.0 0 0 299.8730 183.1518
  L 299.3277 181.3109
  Z
  M 281.78 210.01
  Q 280.33 203.84 280.69 199.24
  A 1.47 1.24 -51.4 0 0 280.68 198.87
  L 280.13 195.33
  A 2.13 2.12 52.1 0 1 280.27 194.19
  L 281.48 191.23
  A 0.81 0.80 -59.5 0 0 281.25 190.31
  Q 280.61 189.77 280.08 188.57
  A 0.77 0.76 56.9 0 0 278.87 188.31
  Q 276.38 190.58 276.62 194.39
  Q 276.90 198.78 277.68 206.05
  Q 277.98 208.79 280.41 210.85
  A 0.85 0.84 -76.5 0 0 281.78 210.01
  Z
  M 245.30 245.00
  Q 249.67 239.60 252.85 235.33
  C 254.79 232.72 256.61 228.51 257.70 226.55
  A 1.98 1.98 0.0 0 0 256.85 223.81
  L 245.14 218.05
  A 6.55 6.22 76.9 0 1 243.82 217.18
  L 240.96 214.75
  A 0.68 0.67 -65.2 0 1 240.73 214.11
  Q 240.93 212.91 240.13 211.58
  A 1.02 1.01 -31.3 0 0 238.71 211.24
  Q 235.20 213.51 232.68 216.19
  Q 226.38 222.89 220.82 231.07
  Q 216.52 237.40 214.22 243.96
  Q 213.88 244.92 214.42 245.24
  A 0.47 0.47 0.0 0 1 214.49 246.00
  Q 213.83 246.56 214.77 247.10
  A 0.75 0.47 58.3 0 0 214.87 247.15
  L 232.91 255.05
  A 1.47 1.47 0.0 0 0 234.58 254.70
  L 234.81 254.45
  A 0.77 0.76 20.8 0 0 234.33 253.40
  Q 226.18 250.92 218.14 246.77
  A 0.63 0.63 0.0 0 1 217.99 245.76
  L 225.39 238.36
  A 0.48 0.47 -54.7 0 1 225.93 238.26
  Q 235.30 242.68 244.50 245.25
  A 0.76 0.76 0.0 0 0 245.30 245.00
  Z
  M 285.39 235.05
  L 293.25 243.29
  A 0.25 0.23 61.8 0 0 293.46 243.36
  L 300.86 242.54
  A 0.75 0.75 0.0 0 0 301.29 241.25
  Q 299.66 239.69 297.02 237.79
  Q 296.48 237.40 295.01 234.90
  A 1.51 1.47 79.9 0 0 294.03 234.20
  Q 290.15 233.36 285.52 234.60
  A 0.27 0.27 0.0 0 0 285.39 235.05
  Z
  M 320.68 259.50
  L 315.12 248.93
  A 4.58 4.35 -83.0 0 0 314.29 247.81
  L 311.10 244.61
  A 1.76 1.75 -15.1 0 0 310.35 244.18
  L 304.28 242.62
  A 0.75 0.74 -6.4 0 0 303.43 243.68
  L 309.41 255.03
  A 1.56 1.54 81.9 0 0 310.46 255.83
  L 316.09 257.09
  A 0.66 0.60 68.2 0 1 316.38 257.23
  L 319.99 260.08
  A 0.46 0.46 0.0 0 0 320.68 259.50
  Z
  M 282.85 287.50
  A 0.25 0.25 0.0 0 0 283.28 287.25
  L 281.69 283.14
  A 3.60 3.60 0.0 0 1 281.51 281.21
  L 282.85 273.85
  A 0.54 0.54 0.0 0 1 282.94 273.63
  L 286.67 268.17
  A 1.14 1.14 0.0 0 0 286.60 266.78
  L 277.99 256.51
  A 0.28 0.22 -83.0 0 1 277.93 256.41
  L 277.68 255.56
  A 0.52 0.52 0.0 0 0 276.73 255.44
  L 272.50 262.81
  A 1.53 1.51 -26.3 0 0 272.30 263.39
  L 271.27 270.70
  A 0.90 0.77 -51.6 0 0 271.28 270.99
  Q 272.53 278.13 278.11 281.84
  A 1.94 1.85 -1.3 0 1 278.56 282.25
  L 282.85 287.50
  Z
  M 313.1835 262.9228
  A 5.93 4.27 -35.9 0 0 305.8762 262.9411
  A 5.93 4.27 -35.9 0 0 303.5765 269.8772
  A 5.93 4.27 -35.9 0 0 310.8838 269.8589
  A 5.93 4.27 -35.9 0 0 313.1835 262.9228
  Z
  M 297.2759 274.3422
  A 6.00 4.20 -33.8 0 0 289.9536 274.1899
  A 6.00 4.20 -33.8 0 0 287.3041 281.0178
  A 6.00 4.20 -33.8 0 0 294.6264 281.1701
  A 6.00 4.20 -33.8 0 0 297.2759 274.3422
  Z
  M 311.4220 277.8545
  A 5.84 4.16 -38.0 0 0 304.2588 278.1719
  A 5.84 4.16 -38.0 0 0 302.2180 285.0455
  A 5.84 4.16 -38.0 0 0 309.3812 284.7281
  A 5.84 4.16 -38.0 0 0 311.4220 277.8545
  Z
  M 231.06 284.94
  C 226.43 280.88 220.60 281.82 215.76 285.15
  Q 209.09 289.75 210.87 298.15
  Q 211.29 300.13 212.82 301.58
  Q 214.62 303.29 215.39 305.59
  C 216.78 309.78 220.46 311.83 224.57 311.25
  Q 233.22 310.03 236.61 303.44
  Q 238.39 299.98 237.75 297.44
  A 1.69 1.56 -69.2 0 0 237.65 297.19
  L 231.48 285.48
  A 1.87 1.85 -83.3 0 0 231.06 284.94
  Z
  M 299.03 315.41
  L 294.67 307.87
  A 2.58 2.58 0.0 0 0 291.14 306.92
  L 289.42 307.91
  A 3.10 3.09 -34.6 0 0 288.57 312.54
  Q 290.87 315.38 291.27 318.42
  A 0.44 0.43 -14.2 0 0 291.86 318.77
  L 298.80 316.08
  A 0.47 0.46 64.8 0 0 299.03 315.41
  Z"
/>
<path fill="#6238fe" d="
  M 417.90 58.40
  L 391.37 92.79
  Q 387.88 90.53 387.05 89.71
  Q 381.60 84.34 376.28 80.16
  A 0.52 0.52 0.0 0 1 376.23 79.39
  Q 378.60 76.91 381.72 72.42
  Q 383.14 70.37 387.11 65.30
  Q 392.34 58.63 398.34 49.63
  A 7.70 7.37 -6.2 0 1 399.35 48.43
  Q 401.24 46.62 402.92 43.26
  A 4.63 4.61 -9.0 0 1 403.76 42.11
  Q 407.22 38.64 410.79 32.82
  A 3.72 3.56 86.5 0 1 411.52 31.96
  Q 413.94 29.83 415.42 26.77
  A 0.55 0.50 -15.9 0 1 415.50 26.64
  L 430.05 7.47
  A 0.79 0.79 0.0 0 1 431.31 7.49
  Q 436.61 14.76 444.13 22.41
  A 0.70 0.70 0.0 0 1 444.19 23.32
  L 419.33 55.92
  A 0.46 0.46 0.0 0 1 418.64 55.96
  L 405.08 42.40
  A 0.76 0.76 0.0 0 0 404.02 42.40
  L 403.83 42.59
  A 0.79 0.79 0.0 0 0 403.82 43.69
  L 417.90 58.40
  Z"
/>
<path fill="#6238fe" d="
  M 449.86 84.99
  L 472.15 56.57
  A 0.52 0.51 -52.6 0 0 472.06 55.85
  L 471.84 55.69
  A 0.06 0.06 0.0 0 0 471.75 55.70
  L 448.46 85.12
  A 0.66 0.66 0.0 0 1 447.48 85.18
  L 434.45 72.16
  A 0.89 0.88 -48.8 0 1 434.38 71.01
  L 457.88 40.19
  A 0.32 0.32 0.0 0 0 457.73 39.69
  L 457.43 39.58
  A 0.44 0.44 0.0 0 0 456.92 39.73
  L 433.58 70.34
  A 0.53 0.53 0.0 0 1 432.79 70.39
  L 420.14 57.73
  A 0.57 0.56 -49.0 0 1 420.09 56.98
  L 444.88 24.47
  A 0.44 0.44 0.0 0 1 445.57 24.45
  L 507.91 96.13
  A 1.08 1.08 0.0 0 1 507.92 97.54
  L 486.12 123.18
  A 0.61 0.61 0.0 0 1 485.22 123.22
  L 448.88 86.70
  A 0.13 0.13 0.0 0 1 448.83 86.62
  Q 448.72 85.78 449.15 85.60
  A 1.84 0.75 -62.7 0 0 449.86 84.99
  Z
  M 485.6344 72.4305
  A 0.39 0.39 0.0 0 0 485.5748 71.8822
  L 485.4501 71.7819
  A 0.39 0.39 0.0 0 0 484.9018 71.8415
  L 462.9456 99.1495
  A 0.39 0.39 0.0 0 0 463.0052 99.6978
  L 463.1299 99.7981
  A 0.39 0.39 0.0 0 0 463.6782 99.7385
  L 485.6344 72.4305
  Z
  M 475.02 111.37
  Q 475.50 112.06 476.36 112.41
  A 0.37 0.36 12.5 0 0 476.86 112.10
  L 476.90 111.43
  A 0.84 0.81 -24.3 0 1 477.08 110.98
  L 497.49 85.98
  A 0.20 0.19 -60.5 0 0 497.41 85.67
  L 497.07 85.54
  A 0.33 0.31 -59.3 0 0 496.71 85.64
  L 476.48 110.56
  A 0.74 0.73 21.2 0 1 475.85 110.83
  L 475.34 110.80
  A 0.36 0.36 0.0 0 0 475.02 111.37
  Z"
/>
<path fill="#dad7c2" d="
  M 417.90 58.40
  Q 418.30 58.48 418.62 59.07
  L 392.39 93.49
  L 391.37 92.79
  L 417.90 58.40
  Z"
/>
<path fill="#6238fe" d="
  M 418.62 59.07
  L 460.85 101.28
  A 0.58 0.58 0.0 0 1 460.86 102.09
  Q 459.39 103.69 458.91 104.07
  A 0.35 0.35 0.0 0 0 458.84 104.14
  L 436.99 131.44
  A 0.32 0.31 38.1 0 0 437.05 131.89
  L 437.35 132.12
  A 0.44 0.44 0.0 0 0 437.96 132.04
  L 461.21 102.66
  A 0.62 0.61 -48.0 0 1 462.12 102.61
  L 484.44 124.93
  A 0.82 0.82 0.0 0 1 484.48 126.05
  L 461.27 153.36
  A 0.71 0.71 0.0 0 1 460.27 153.44
  L 450.67 145.28
  A 1.36 1.32 7.2 0 1 450.35 144.88
  Q 449.95 144.16 449.75 144.02
  Q 442.63 138.88 437.38 133.22
  A 6.20 6.18 -11.2 0 0 435.03 131.65
  Q 434.82 131.57 433.61 130.41
  Q 427.23 124.34 422.31 120.64
  A 1.30 0.59 -66.2 0 1 422.30 119.37
  Q 422.34 119.29 422.56 119.31
  A 0.36 0.35 22.6 0 0 422.87 119.19
  L 446.99 88.70
  A 0.45 0.45 0.0 0 0 446.91 88.06
  L 446.67 87.87
  A 0.30 0.30 0.0 0 0 446.26 87.92
  L 421.85 118.78
  A 0.62 0.62 0.0 0 1 421.02 118.90
  C 416.40 115.68 412.47 111.62 408.34 108.04
  Q 400.74 101.46 393.12 94.89
  Q 392.42 94.28 392.39 93.49
  L 418.62 59.07
  Z
  M 432.2098 73.8052
  A 0.42 0.42 0.0 0 0 432.1354 73.2159
  L 431.8667 73.0075
  A 0.42 0.42 0.0 0 0 431.2774 73.0819
  L 406.4302 105.1148
  A 0.42 0.42 0.0 0 0 406.5046 105.7041
  L 406.7733 105.9125
  A 0.42 0.42 0.0 0 0 407.3626 105.8381
  L 432.2098 73.8052
  Z
  M 461.31 129.06
  Q 460.27 130.09 459.98 130.48
  Q 455.14 136.89 449.87 142.72
  A 0.03 0.01 -45.0 0 0 449.86 142.75
  L 450.25 143.43
  A 0.21 0.20 49.8 0 0 450.59 143.46
  Q 456.24 136.53 461.72 129.72
  Q 461.75 129.67 461.80 129.63
  Q 462.84 128.60 463.13 128.21
  Q 467.97 121.80 473.24 115.97
  A 0.03 0.01 -45.0 0 0 473.25 115.94
  L 472.86 115.26
  A 0.21 0.20 49.8 0 0 472.52 115.23
  Q 466.87 122.16 461.39 128.97
  Q 461.35 129.02 461.31 129.06
  Z"
/>
<path fill="#b2b2b0" d="
  M 261.30 169.55
  Q 260.79 169.38 260.75 168.57
  Q 260.76 168.15 260.66 167.83
  Q 260.56 167.53 260.18 167.30
  C 240.97 155.76 216.90 141.26 188.31 123.98
  Q 168.63 112.09 151.35 101.51
  A 1.39 1.38 -57.5 0 0 149.47 101.93
  L 133.88 125.74
  A 0.67 0.66 -59.4 0 0 134.12 126.69
  L 174.74 148.69
  A 0.23 0.23 0.0 0 0 175.03 148.62
  L 190.34 126.24
  A 0.38 0.38 0.0 0 1 190.83 126.12
  L 191.49 126.48
  A 0.28 0.28 0.0 0 1 191.59 126.89
  L 176.38 149.11
  A 0.77 0.77 0.0 0 0 176.65 150.22
  L 210.93 168.78
  A 1.48 1.47 32.3 0 0 212.83 168.36
  Q 219.38 159.46 226.89 148.90
  Q 227.62 147.87 228.43 148.94
  A 0.51 0.50 56.8 0 1 228.28 149.68
  Q 227.39 150.19 226.79 151.03
  Q 219.86 160.71 214.26 168.70
  A 1.56 1.48 -83.0 0 1 213.62 169.23
  L 213.39 169.33
  A 0.57 0.56 47.4 0 0 213.35 170.34
  L 244.29 187.45
  L 243.01 188.51
  L 212.72 171.98
  A 0.80 0.79 32.2 0 0 211.69 172.21
  L 196.42 193.16
  A 0.64 0.64 0.0 0 0 196.65 194.10
  L 229.20 210.56
  Q 228.55 210.84 228.39 211.72
  L 195.21 195.12
  Q 194.07 195.54 193.97 195.02
  Q 193.93 194.32 193.10 193.91
  Q 177.93 186.28 158.23 176.45
  A 0.87 0.87 0.0 0 0 157.12 176.74
  L 140.97 200.34
  A 0.72 0.72 0.0 0 0 141.23 201.39
  L 143.81 202.70
  Q 143.90 203.84 144.48 204.60
  L 140.09 202.72
  A 0.79 0.78 -60.6 0 0 139.13 202.99
  Q 131.06 214.50 123.62 225.48
  Q 123.27 226.00 123.72 226.28
  Q 123.95 227.36 122.27 227.30
  L 109.04 246.57
  A 1.01 1.01 0.0 0 0 109.43 248.06
  L 111.39 249.01
  A 1.35 0.84 44.0 0 0 111.55 249.08
  L 120.96 252.46
  L 121.87 253.26
  A 0.21 0.21 0.0 0 1 121.77 253.62
  Q 121.40 253.70 121.20 253.89
  L 108.93 249.22
  A 1.90 1.90 0.0 0 0 106.68 249.92
  L 94.17 268.20
  A 0.70 0.70 0.0 0 0 94.25 269.08
  Q 94.78 269.61 96.01 269.88
  L 94.45 271.49
  L 89.80 269.89
  Q 89.41 269.53 88.78 269.59
  L 82.46 267.49
  Q 82.19 267.25 81.77 267.29
  L 77.73 265.90
  Q 77.13 265.31 76.77 265.52
  L 75.26 264.95
  Q 74.73 264.47 73.79 264.52
  L 73.04 264.19
  Q 72.60 263.75 71.78 263.81
  L 70.76 263.45
  Q 69.98 262.65 69.26 262.99
  Q 68.97 262.77 68.54 262.78
  Q 68.42 262.73 68.29 262.67
  Q 67.54 261.95 66.47 262.04
  L 51.04 256.89
  Q 50.62 256.55 50.03 256.56
  L 14.97 244.74
  Q 14.66 244.59 14.30 244.54
  L 7.53 242.30
  Q 7.24 242.05 6.79 242.02
  L 5.28 241.47
  Q 4.65 240.84 3.79 241.02
  Q 3.67 240.97 3.55 240.91
  Q 2.29 239.99 0.68 240.00
  Q 0.38 239.82 0.00 239.77
  L 0.00 236.83
  L 104.41 68.90
  A 1.34 1.33 -58.4 0 1 106.23 68.46
  L 263.53 164.67
  A 0.77 0.76 -64.7 0 1 263.85 165.58
  Q 263.10 167.66 261.30 169.55
  Z
  M 32.21 193.40
  L 4.55 237.69
  A 0.95 0.95 0.0 0 0 5.05 239.10
  L 47.82 253.47
  A 0.58 0.57 25.9 0 0 48.48 253.25
  L 62.08 232.36
  A 0.79 0.79 0.0 0 0 61.28 231.15
  L 61.13 231.18
  A 3.30 2.72 -23.9 0 1 60.63 231.04
  L 19.41 216.32
  A 0.52 0.50 20.8 0 1 19.10 215.65
  L 19.28 215.22
  A 0.84 0.84 0.0 0 1 20.35 214.75
  L 37.36 221.17
  Q 48.63 225.67 60.35 229.81
  C 60.88 229.99 61.85 230.07 61.90 230.28
  A 0.44 0.41 -21.2 0 0 62.54 230.54
  L 62.96 230.29
  Q 63.65 229.96 64.06 229.32
  Q 70.36 219.58 76.83 209.96
  Q 77.30 209.28 77.04 208.62
  A 0.82 0.80 88.0 0 0 76.56 208.16
  L 70.75 206.21
  A 5.06 4.66 -18.3 0 1 69.84 205.80
  Q 66.75 204.04 63.25 203.16
  A 5.19 5.03 65.3 0 1 61.99 202.67
  Q 60.41 201.80 59.37 201.39
  Q 50.64 197.97 40.80 193.95
  Q 37.28 192.51 34.63 191.97
  A 0.60 0.59 -67.3 0 1 34.26 191.06
  L 34.50 190.70
  A 1.02 1.02 0.0 0 1 35.74 190.31
  L 77.79 207.52
  A 0.62 0.62 0.0 0 0 78.55 207.29
  L 94.60 182.79
  A 0.77 0.77 0.0 0 0 94.27 181.67
  L 54.72 163.82
  A 1.69 1.62 -27.7 0 0 54.41 163.73
  L 52.47 163.37
  A 0.41 0.41 0.0 0 1 52.23 162.70
  Q 53.24 161.47 54.31 161.96
  Q 81.65 174.56 91.75 179.10
  Q 93.43 179.85 95.43 180.54
  A 0.72 0.71 25.8 0 0 96.26 180.26
  L 113.29 154.27
  A 0.48 0.48 0.0 0 0 113.11 153.58
  L 71.29 132.76
  A 0.49 0.48 -60.1 0 1 71.11 132.06
  L 71.29 131.78
  A 0.81 0.80 30.0 0 1 72.32 131.51
  L 113.99 152.27
  A 0.68 0.68 0.0 0 0 114.85 152.04
  L 131.17 127.12
  A 0.61 0.61 0.0 0 0 130.95 126.25
  L 89.52 103.82
  A 0.51 0.51 0.0 0 1 89.36 103.06
  L 89.59 102.75
  A 0.73 0.72 -56.9 0 1 90.51 102.55
  L 132.06 125.05
  A 0.46 0.46 0.0 0 0 132.66 124.90
  L 148.43 100.83
  A 0.62 0.62 0.0 0 0 148.36 100.05
  C 146.16 97.80 143.24 96.80 140.52 95.10
  Q 127.33 86.87 116.29 80.41
  C 113.32 78.67 110.69 76.59 107.23 75.34
  A 1.12 1.11 25.5 0 0 105.91 75.80
  L 72.73 128.73
  A 3.00 2.90 85.3 0 1 72.23 129.34
  C 70.21 131.24 69.59 133.73 68.08 136.14
  Q 59.01 150.71 50.51 164.20
  Q 41.30 178.81 32.21 193.40
  Z
  M 158.25 172.44
  L 173.08 151.16
  A 0.70 0.69 43.8 0 0 173.06 150.33
  Q 171.90 148.89 169.56 147.87
  L 133.27 127.69
  A 0.62 0.61 -58.4 0 0 132.46 127.89
  L 116.26 152.62
  A 0.77 0.77 0.0 0 0 116.56 153.73
  Q 121.95 156.48 156.85 173.85
  Q 158.08 174.47 158.25 172.44
  Z
  M 159.08 174.15
  A 0.85 0.85 0.0 0 0 159.40 175.40
  L 194.37 192.81
  A 0.85 0.85 0.0 0 0 195.43 192.55
  L 210.72 171.57
  A 0.85 0.85 0.0 0 0 210.44 170.32
  L 175.56 151.43
  A 0.85 0.85 0.0 0 0 174.46 151.70
  L 159.08 174.15
  Z
  M 97.86 180.62
  A 0.89 0.89 0.0 0 0 98.23 181.92
  L 138.52 200.30
  A 0.89 0.89 0.0 0 0 139.62 199.99
  L 155.88 176.22
  A 0.89 0.89 0.0 0 0 155.55 174.92
  L 115.58 155.01
  A 0.89 0.89 0.0 0 0 114.44 155.32
  L 97.86 180.62
  Z
  M 80.27 207.47
  A 0.86 0.86 0.0 0 0 80.67 208.74
  L 121.35 225.40
  A 0.86 0.86 0.0 0 0 122.38 225.09
  L 137.74 202.65
  A 0.86 0.86 0.0 0 0 137.39 201.39
  L 97.16 183.04
  A 0.86 0.86 0.0 0 0 96.09 183.35
  L 80.27 207.47
  Z
  M 65.05 230.62
  A 0.80 0.80 0.0 0 0 65.44 231.81
  L 106.60 246.96
  A 0.80 0.80 0.0 0 0 107.53 246.67
  L 120.65 227.51
  A 0.80 0.80 0.0 0 0 120.29 226.31
  L 79.57 209.64
  A 0.80 0.80 0.0 0 0 78.60 209.94
  L 65.05 230.62
  Z
  M 50.02 253.40
  A 0.72 0.72 0.0 0 0 50.39 254.48
  L 91.90 268.44
  A 0.72 0.72 0.0 0 0 92.73 268.16
  L 105.87 248.97
  A 0.72 0.72 0.0 0 0 105.52 247.89
  L 64.27 232.69
  A 0.72 0.72 0.0 0 0 63.42 232.97
  L 50.02 253.40
  Z"
/>
<rect fill="#b2b2b0" x="-0.47" y="-17.91" transform="translate(474.29,85.79) rotate(38.8)" width="0.94" height="35.82" rx="0.39"/>
<rect fill="#dad7c2" x="-0.59" y="-20.69" transform="translate(419.32,89.46) rotate(37.8)" width="1.18" height="41.38" rx="0.42"/>
<path fill="#6238fe" d="
  M 76.83 209.96
  Q 76.85 209.63 76.78 209.45
  A 0.31 0.30 -38.6 0 0 76.24 209.39
  Q 70.56 218.01 63.63 228.88
  Q 63.45 229.16 62.68 229.50
  A 0.34 0.34 0.0 0 0 62.56 230.03
  Q 62.69 230.19 62.96 230.29
  L 62.54 230.54
  A 0.44 0.41 -21.2 0 1 61.90 230.28
  C 61.85 230.07 60.88 229.99 60.35 229.81
  Q 48.63 225.67 37.36 221.17
  Q 38.62 220.82 35.67 219.68
  Q 25.45 215.74 21.99 214.57
  A 1.30 1.29 -62.6 0 1 21.36 212.57
  Q 26.73 205.28 32.28 195.60
  Q 33.61 193.28 32.21 193.40
  Q 41.30 178.81 50.51 164.20
  Q 59.01 150.71 68.08 136.14
  C 69.59 133.73 70.21 131.24 72.23 129.34
  A 3.00 2.90 85.3 0 0 72.73 128.73
  L 105.91 75.80
  A 1.12 1.11 25.5 0 1 107.23 75.34
  C 110.69 76.59 113.32 78.67 116.29 80.41
  Q 127.33 86.87 140.52 95.10
  C 143.24 96.80 146.16 97.80 148.36 100.05
  A 0.62 0.62 0.0 0 1 148.43 100.83
  L 132.66 124.90
  A 0.46 0.46 0.0 0 1 132.06 125.05
  L 90.51 102.55
  A 0.73 0.72 -56.9 0 0 89.59 102.75
  L 89.36 103.06
  A 0.51 0.51 0.0 0 0 89.52 103.82
  L 130.95 126.25
  A 0.61 0.61 0.0 0 1 131.17 127.12
  L 114.85 152.04
  A 0.68 0.68 0.0 0 1 113.99 152.27
  L 72.32 131.51
  A 0.81 0.80 30.0 0 0 71.29 131.78
  L 71.11 132.06
  A 0.49 0.48 -60.1 0 0 71.29 132.76
  L 113.11 153.58
  A 0.48 0.48 0.0 0 1 113.29 154.27
  L 96.26 180.26
  A 0.72 0.71 25.8 0 1 95.43 180.54
  Q 93.43 179.85 91.75 179.10
  Q 81.65 174.56 54.31 161.96
  Q 53.24 161.47 52.23 162.70
  A 0.41 0.41 0.0 0 0 52.47 163.37
  L 54.41 163.73
  A 1.69 1.62 -27.7 0 1 54.72 163.82
  L 94.27 181.67
  A 0.77 0.77 0.0 0 1 94.60 182.79
  L 78.55 207.29
  A 0.62 0.62 0.0 0 1 77.79 207.52
  L 35.74 190.31
  A 1.02 1.02 0.0 0 0 34.50 190.70
  L 34.26 191.06
  A 0.60 0.59 -67.3 0 0 34.63 191.97
  Q 37.28 192.51 40.80 193.95
  Q 50.64 197.97 59.37 201.39
  Q 60.41 201.80 61.99 202.67
  A 5.19 5.03 65.3 0 0 63.25 203.16
  Q 66.75 204.04 69.84 205.80
  A 5.06 4.66 -18.3 0 0 70.75 206.21
  L 76.56 208.16
  A 0.82 0.80 88.0 0 1 77.04 208.62
  Q 77.30 209.28 76.83 209.96
  Z"
/>
<path fill="#6238fe" d="
  M 364.59 127.52
  L 349.50 116.01
  A 0.31 0.31 0.0 0 1 349.44 115.57
  L 374.97 82.09
  A 0.31 0.31 0.0 0 1 375.42 82.05
  L 389.76 94.55
  A 0.31 0.31 0.0 0 1 389.80 94.97
  L 365.03 127.46
  A 0.31 0.31 0.0 0 1 364.59 127.52
  Z"
/>
<path fill="#b2b2b0" d="
  M 475.34 110.80
  L 475.85 110.83
  A 0.74 0.73 21.2 0 0 476.48 110.56
  L 496.71 85.64
  A 0.33 0.31 -59.3 0 1 497.07 85.54
  L 497.41 85.67
  A 0.20 0.19 -60.5 0 1 497.49 85.98
  L 477.08 110.98
  A 0.84 0.81 -24.3 0 0 476.90 111.43
  L 476.86 112.10
  A 0.37 0.36 12.5 0 1 476.36 112.41
  Q 475.50 112.06 475.02 111.37
  A 0.36 0.36 0.0 0 1 475.34 110.80
  Z"
/>
<path fill="#6238fe" d="
  M 459.77 155.89
  L 437.21 182.43
  A 0.34 0.34 0.0 0 1 436.74 182.48
  L 366.12 128.63
  A 0.34 0.34 0.0 0 1 366.06 128.15
  L 390.73 95.79
  A 0.34 0.34 0.0 0 1 391.22 95.74
  L 459.74 155.41
  A 0.34 0.34 0.0 0 1 459.77 155.89
  Z
  M 404.9194 109.0073
  A 0.51 0.51 0.0 0 0 404.8277 108.2919
  L 404.7328 108.2185
  A 0.51 0.51 0.0 0 0 404.0174 108.3102
  L 381.0606 138.0127
  A 0.51 0.51 0.0 0 0 381.1523 138.7281
  L 381.2472 138.8015
  A 0.51 0.51 0.0 0 0 381.9626 138.7098
  L 404.9194 109.0073
  Z
  M 420.6900 122.1920
  A 0.57 0.57 0.0 0 0 420.5945 121.3915
  L 420.5002 121.3173
  A 0.57 0.57 0.0 0 0 419.6998 121.4128
  L 396.9300 150.3480
  A 0.57 0.57 0.0 0 0 397.0255 151.1485
  L 397.1198 151.2227
  A 0.57 0.57 0.0 0 0 397.9202 151.1272
  L 420.6900 122.1920
  Z"
/>
<path fill="#6238fe" d="
  M 260.75 168.57
  L 252.98 179.05
  A 1.06 1.00 88.3 0 1 252.82 179.23
  C 250.47 181.38 248.68 184.72 246.34 187.86
  A 0.86 0.85 -64.0 0 1 245.43 188.18
  Q 244.84 188.02 244.29 187.45
  L 213.35 170.34
  A 0.57 0.56 47.4 0 1 213.39 169.33
  L 213.62 169.23
  A 1.56 1.48 -83.0 0 0 214.26 168.70
  Q 219.86 160.71 226.79 151.03
  Q 227.39 150.19 228.28 149.68
  A 0.51 0.50 56.8 0 0 228.43 148.94
  Q 227.62 147.87 226.89 148.90
  Q 219.38 159.46 212.83 168.36
  A 1.48 1.47 32.3 0 1 210.93 168.78
  L 176.65 150.22
  A 0.77 0.77 0.0 0 1 176.38 149.11
  L 191.59 126.89
  A 0.28 0.28 0.0 0 0 191.49 126.48
  L 190.83 126.12
  A 0.38 0.38 0.0 0 0 190.34 126.24
  L 175.03 148.62
  A 0.23 0.23 0.0 0 1 174.74 148.69
  L 134.12 126.69
  A 0.67 0.66 -59.4 0 1 133.88 125.74
  L 149.47 101.93
  A 1.39 1.38 -57.5 0 1 151.35 101.51
  Q 168.63 112.09 188.31 123.98
  C 216.90 141.26 240.97 155.76 260.18 167.30
  Q 260.56 167.53 260.66 167.83
  Q 260.76 168.15 260.75 168.57
  Z"
/>
<rect fill="#dad7c2" x="-0.57" y="-19.28" transform="translate(392.99,123.51) rotate(37.7)" width="1.14" height="38.56" rx="0.51"/>
<path fill="#b2b2b0" d="
  M 461.31 129.06
  Q 461.35 129.02 461.39 128.97
  Q 466.87 122.16 472.52 115.23
  A 0.21 0.20 49.8 0 1 472.86 115.26
  L 473.25 115.94
  A 0.03 0.01 -45.0 0 1 473.24 115.97
  Q 467.97 121.80 463.13 128.21
  Q 462.84 128.60 461.80 129.63
  Q 461.75 129.67 461.72 129.72
  Q 456.24 136.53 450.59 143.46
  A 0.21 0.20 49.8 0 1 450.25 143.43
  L 449.86 142.75
  A 0.03 0.01 -45.0 0 1 449.87 142.72
  Q 455.14 136.89 459.98 130.48
  Q 460.27 130.09 461.31 129.06
  Z"
/>
<path fill="#6238fe" d="
  M 348.80 117.89
  L 363.44 129.06
  A 0.35 0.35 0.0 0 1 363.51 129.55
  L 339.36 161.22
  A 0.35 0.35 0.0 0 1 338.89 161.30
  L 323.44 151.18
  A 0.35 0.35 0.0 0 1 323.36 150.67
  L 348.31 117.96
  A 0.35 0.35 0.0 0 1 348.80 117.89
  Z"
/>
<rect fill="#b2b2b0" x="-0.63" y="-18.98" transform="translate(408.81,136.27) rotate(38.2)" width="1.26" height="37.96" rx="0.57"/>
<path fill="#6238fe" d="
  M 169.56 147.87
  Q 169.10 148.53 171.52 149.72
  A 1.28 1.27 -60.4 0 1 172.02 151.57
  L 158.25 172.44
  Q 158.08 174.47 156.85 173.85
  Q 121.95 156.48 116.56 153.73
  A 0.77 0.77 0.0 0 1 116.26 152.62
  L 132.46 127.89
  A 0.62 0.61 -58.4 0 1 133.27 127.69
  L 169.56 147.87
  Z"
/>
<path fill="#6238fe" d="
  M 410.64 164.86
  Q 410.87 164.92 410.92 164.94
  Q 411.15 165.03 411.16 165.04
  Q 415.17 168.42 418.61 170.76
  C 420.92 172.33 422.76 174.45 425.49 175.89
  A 0.42 0.24 60.5 0 1 425.59 175.95
  L 435.79 183.95
  A 0.57 0.56 -50.9 0 1 435.87 184.76
  L 414.43 209.97
  A 1.46 1.46 0.0 0 1 412.52 210.25
  L 392.24 196.96
  A 1.87 0.53 27.8 0 1 392.05 196.82
  C 389.45 194.44 386.29 193.03 383.78 191.24
  Q 380.34 188.79 373.22 184.28
  A 1.03 1.02 35.3 0 1 372.96 182.78
  L 395.08 154.60
  A 0.38 0.38 0.0 0 0 395.03 154.07
  L 394.73 153.81
  A 0.64 0.64 0.0 0 0 393.81 153.91
  L 372.74 181.55
  A 2.05 2.05 0.0 0 1 369.99 182.02
  L 356.27 173.03
  A 0.64 0.64 0.0 0 1 356.12 172.11
  L 379.12 142.34
  A 0.07 0.06 -40.3 0 0 379.13 142.28
  L 379.05 141.53
  A 0.29 0.29 0.0 0 0 378.53 141.38
  L 355.51 170.97
  A 0.44 0.43 65.7 0 0 355.41 171.25
  Q 355.41 171.74 355.06 171.76
  A 0.79 0.75 57.2 0 1 354.52 171.63
  L 340.35 162.44
  A 0.51 0.51 0.0 0 1 340.31 161.62
  Q 342.38 159.92 342.47 159.27
  Q 342.48 159.20 363.08 132.27
  C 363.57 131.62 364.17 131.25 364.31 130.31
  A 0.39 0.38 -66.5 0 1 364.93 130.06
  Q 369.85 134.00 379.33 141.15
  Q 396.86 154.37 405.85 161.33
  C 407.16 162.35 409.37 163.40 410.03 164.41
  A 1.07 1.07 0.0 0 0 410.64 164.86
  Z"
/>
<path fill="#6d6c6a" d="
  M 169.56 147.87
  Q 171.90 148.89 173.06 150.33
  A 0.70 0.69 43.8 0 1 173.08 151.16
  L 158.25 172.44
  L 172.02 151.57
  A 1.28 1.27 -60.4 0 0 171.52 149.72
  Q 169.10 148.53 169.56 147.87
  Z"
/>
<path fill="#6238fe" d="
  M 159.08 174.15
  L 174.46 151.70
  A 0.85 0.85 0.0 0 1 175.56 151.43
  L 210.44 170.32
  A 0.85 0.85 0.0 0 1 210.72 171.57
  L 195.43 192.55
  A 0.85 0.85 0.0 0 1 194.37 192.81
  L 159.40 175.40
  A 0.85 0.85 0.0 0 1 159.08 174.15
  Z"
/>
<path fill="#6238fe" d="
  M 97.86 180.62
  L 114.44 155.32
  A 0.89 0.89 0.0 0 1 115.58 155.01
  L 155.55 174.92
  A 0.89 0.89 0.0 0 1 155.88 176.22
  L 139.62 199.99
  A 0.89 0.89 0.0 0 1 138.52 200.30
  L 98.23 181.92
  A 0.89 0.89 0.0 0 1 97.86 180.62
  Z"
/>
<path fill="#dad7c2" d="
  M 248.90 187.07
  L 249.52 192.29
  L 246.82 190.68
  A 1.07 1.06 -56.6 0 0 245.42 190.97
  L 243.57 193.51
  A 0.89 0.88 -59.6 0 0 243.91 194.83
  Q 246.42 196.00 248.88 195.52
  A 1.67 1.67 0.0 0 1 249.97 195.66
  L 255.20 198.31
  L 255.67 199.17
  A 0.80 0.80 0.0 0 1 255.61 200.05
  L 249.34 208.27
  A 1.60 1.59 -57.1 0 1 247.32 208.71
  L 242.95 206.34
  A 1.56 1.48 88.4 0 1 242.34 205.73
  Q 241.94 205.01 242.03 204.72
  Q 238.23 200.25 237.24 202.43
  Q 229.67 211.67 223.04 221.42
  C 220.82 224.69 218.26 227.33 216.30 230.29
  Q 213.71 234.18 212.61 234.86
  A 0.64 0.64 0.0 0 0 212.40 235.07
  L 199.39 253.05
  L 196.58 256.83
  A 0.39 0.39 0.0 0 0 197.06 257.42
  Q 198.80 256.60 200.54 256.62
  A 1.63 1.36 50.0 0 1 200.88 256.68
  L 206.33 258.41
  L 207.92 260.59
  A 2.33 2.33 0.0 0 1 207.89 263.37
  L 202.13 270.93
  A 0.97 0.97 0.0 0 1 201.05 271.26
  L 195.98 269.55
  A 0.94 0.93 5.0 0 1 195.34 268.79
  Q 195.04 266.85 191.12 265.67
  Q 187.55 266.60 185.59 271.75
  A 1.85 1.82 -40.0 0 0 185.50 272.69
  Q 186.27 277.11 187.42 281.35
  Q 189.57 289.35 189.67 289.87
  C 191.21 298.04 193.54 309.39 196.69 319.56
  Q 197.54 322.32 196.91 325.72
  Q 195.07 323.67 194.82 321.20
  Q 194.85 320.72 194.53 320.46
  Q 194.47 320.46 194.41 320.45
  Q 194.77 318.92 194.32 317.45
  Q 191.91 309.56 191.48 307.81
  Q 187.46 291.43 183.72 275.08
  A 0.39 0.39 0.0 0 0 183.07 274.89
  Q 179.45 278.47 177.15 283.48
  L 168.35 294.96
  A 1.51 1.50 27.9 0 1 166.68 295.47
  L 94.45 271.49
  L 96.01 269.88
  L 130.66 281.69
  A 1.48 1.47 26.5 0 0 132.35 281.13
  L 143.83 264.35
  A 1.41 1.38 -87.3 0 1 144.25 263.96
  L 144.72 263.69
  A 0.62 0.62 0.0 0 0 144.63 262.57
  L 121.20 253.89
  Q 121.40 253.70 121.77 253.62
  A 0.21 0.21 0.0 0 0 121.87 253.26
  L 120.96 252.46
  L 145.29 261.42
  A 0.91 0.91 0.0 0 0 146.33 261.10
  L 159.39 243.17
  A 0.81 0.80 -61.2 0 0 159.04 241.94
  L 122.27 227.30
  Q 123.95 227.36 123.72 226.28
  L 159.94 240.95
  A 0.80 0.80 0.0 0 0 160.89 240.68
  L 176.27 219.58
  A 0.50 0.50 0.0 0 0 176.07 218.83
  L 144.48 204.60
  Q 143.90 203.84 143.81 202.70
  L 176.94 217.71
  A 0.76 0.75 -60.3 0 0 177.87 217.45
  L 193.00 195.89
  A 2.19 2.14 89.4 0 1 193.45 195.42
  L 193.97 195.02
  Q 194.07 195.54 195.21 195.12
  L 178.71 217.95
  A 0.69 0.69 0.0 0 0 179.15 219.03
  L 180.30 219.24
  A 2.66 2.64 67.0 0 1 181.28 219.64
  Q 182.40 220.34 188.46 223.03
  Q 194.70 225.80 207.80 231.72
  C 209.72 232.58 211.73 234.86 213.60 232.04
  Q 217.42 226.31 219.62 223.71
  C 222.40 220.43 224.79 216.19 227.95 212.71
  Q 228.14 212.51 228.39 211.72
  Q 228.55 210.84 229.20 210.56
  L 235.86 202.15
  A 2.93 2.86 -13.4 0 0 236.17 201.66
  Q 237.51 199.06 239.68 197.09
  A 1.25 1.11 -7.7 0 0 239.87 196.87
  L 244.38 190.12
  A 0.69 0.69 0.0 0 0 244.28 189.24
  Q 243.86 188.83 243.01 188.51
  L 244.29 187.45
  Q 244.84 188.02 245.43 188.18
  A 0.86 0.85 -64.0 0 0 246.34 187.86
  C 248.68 184.72 250.47 181.38 252.82 179.23
  A 1.06 1.00 88.3 0 0 252.98 179.05
  L 260.75 168.57
  Q 260.79 169.38 261.30 169.55
  L 258.21 173.85
  A 0.54 0.54 0.0 0 0 258.88 174.66
  Q 261.78 173.33 265.53 172.83
  A 3.58 3.52 28.4 0 0 266.47 172.56
  Q 267.86 171.96 268.31 171.86
  Q 280.04 169.12 287.83 166.66
  Q 297.63 163.56 305.10 161.79
  Q 310.06 160.62 322.47 157.17
  A 2.47 2.47 0.0 0 1 324.50 157.50
  L 325.14 157.94
  A 0.55 0.54 51.7 0 1 325.03 158.90
  Q 321.22 160.40 320.01 160.74
  Q 288.44 169.61 268.10 175.02
  Q 258.68 177.53 255.14 178.66
  A 2.25 2.20 11.9 0 0 254.20 179.26
  Q 251.13 182.52 248.90 187.07
  Z
  M 161.88 241.10
  A 0.64 0.64 0.0 0 0 162.16 242.07
  L 195.09 255.55
  A 0.64 0.64 0.0 0 0 195.84 255.35
  L 210.89 235.62
  A 0.64 0.64 0.0 0 0 210.65 234.65
  L 178.05 219.78
  A 0.64 0.64 0.0 0 0 177.26 219.98
  L 161.88 241.10
  Z
  M 147.52 261.21
  A 0.82 0.82 0.0 0 0 147.90 262.47
  L 180.81 274.59
  A 0.82 0.82 0.0 0 0 181.75 274.32
  L 194.30 257.86
  A 0.82 0.82 0.0 0 0 193.96 256.60
  L 161.36 243.27
  A 0.82 0.82 0.0 0 0 160.39 243.55
  L 147.52 261.21
  Z
  M 180.12 276.63
  A 0.70 0.70 0.0 0 0 179.80 275.56
  L 146.78 263.39
  A 0.70 0.70 0.0 0 0 145.97 263.64
  L 133.00 281.43
  A 0.70 0.70 0.0 0 0 133.34 282.50
  L 166.99 293.82
  A 0.70 0.70 0.0 0 0 167.78 293.57
  L 180.12 276.63
  Z"
/>
<path fill="#dad7c2" d="
  M 334.77 180.84
  Q 333.76 180.31 332.97 178.94
  A 0.57 0.56 -37.2 0 1 333.07 178.25
  L 338.73 172.90
  A 1.32 1.13 4.4 0 1 338.88 172.79
  Q 341.70 171.11 343.82 168.06
  L 345.10 168.81
  A 0.50 0.50 0.0 0 1 345.25 169.55
  L 343.21 172.24
  A 2.14 2.09 -80.9 0 1 342.28 172.93
  L 340.15 173.76
  A 1.21 1.15 5.7 0 0 339.62 174.17
  L 334.77 180.84
  Z"
/>
<path fill="#6238fe" d="
  M 243.01 188.51
  Q 243.86 188.83 244.28 189.24
  A 0.69 0.69 0.0 0 1 244.38 190.12
  L 239.87 196.87
  A 1.25 1.11 -7.7 0 1 239.68 197.09
  Q 237.51 199.06 236.17 201.66
  A 2.93 2.86 -13.4 0 1 235.86 202.15
  L 229.20 210.56
  L 196.65 194.10
  A 0.64 0.64 0.0 0 1 196.42 193.16
  L 211.69 172.21
  A 0.80 0.79 32.2 0 1 212.72 171.98
  L 243.01 188.51
  Z"
/>
<path fill="#6d6c6a" d="
  M 389.24 198.38
  L 380.30 207.27
  A 0.86 0.86 0.0 0 0 380.32 208.51
  Q 381.47 209.59 381.01 210.31
  L 375.65 206.84
  A 1.77 1.76 34.7 0 1 375.19 204.32
  L 379.12 198.93
  A 0.90 0.89 40.7 0 0 379.03 197.78
  Q 376.80 195.48 373.84 194.06
  Q 373.56 193.58 372.82 193.33
  L 348.82 176.03
  A 0.33 0.32 37.0 0 1 348.75 175.57
  L 350.64 172.97
  A 0.40 0.40 0.0 0 1 351.17 172.86
  C 358.75 177.43 365.96 182.58 373.40 187.27
  Q 373.42 187.28 376.78 189.60
  Q 378.42 190.73 380.87 192.12
  Q 384.56 194.21 389.24 198.38
  Z"
/>
<path fill="#6238fe" d="
  M 193.97 195.02
  L 193.45 195.42
  A 2.19 2.14 89.4 0 0 193.00 195.89
  L 177.87 217.45
  A 0.76 0.75 -60.3 0 1 176.94 217.71
  L 143.81 202.70
  L 141.23 201.39
  A 0.72 0.72 0.0 0 1 140.97 200.34
  L 157.12 176.74
  A 0.87 0.87 0.0 0 1 158.23 176.45
  Q 177.93 186.28 193.10 193.91
  Q 193.93 194.32 193.97 195.02
  Z"
/>
<rect fill="#6d6c6a" x="-9.22" y="-1.27" transform="translate(290.76,184.85) rotate(-16.5)" width="18.44" height="2.54" rx="0.31"/>
<path fill="#6238fe" d="
  M 80.27 207.47
  L 96.09 183.35
  A 0.86 0.86 0.0 0 1 97.16 183.04
  L 137.39 201.39
  A 0.86 0.86 0.0 0 1 137.74 202.65
  L 122.38 225.09
  A 0.86 0.86 0.0 0 1 121.35 225.40
  L 80.67 208.74
  A 0.86 0.86 0.0 0 1 80.27 207.47
  Z"
/>
<path fill="#6d6c6a" d="
  M 281.78 210.01
  A 0.85 0.84 -76.5 0 1 280.41 210.85
  Q 277.98 208.79 277.68 206.05
  Q 276.90 198.78 276.62 194.39
  Q 276.38 190.58 278.87 188.31
  A 0.77 0.76 56.9 0 1 280.08 188.57
  Q 280.61 189.77 281.25 190.31
  A 0.81 0.80 -59.5 0 1 281.48 191.23
  L 280.27 194.19
  A 2.13 2.12 52.1 0 0 280.13 195.33
  L 280.68 198.87
  A 1.47 1.24 -51.4 0 1 280.69 199.24
  Q 280.33 203.84 281.78 210.01
  Z"
/>
<path fill="#6d6c6a" d="
  M 249.52 192.29
  Q 251.49 193.19 251.91 193.60
  Q 253.11 194.78 255.20 198.31
  L 249.97 195.66
  A 1.67 1.67 0.0 0 0 248.88 195.52
  Q 246.42 196.00 243.91 194.83
  A 0.89 0.88 -59.6 0 1 243.57 193.51
  L 245.42 190.97
  A 1.07 1.06 -56.6 0 1 246.82 190.68
  L 249.52 192.29
  Z"
/>
<path fill="#6238fe" d="
  M 32.21 193.40
  Q 33.61 193.28 32.28 195.60
  Q 26.73 205.28 21.36 212.57
  A 1.30 1.29 -62.6 0 0 21.99 214.57
  Q 25.45 215.74 35.67 219.68
  Q 38.62 220.82 37.36 221.17
  L 20.35 214.75
  A 0.84 0.84 0.0 0 0 19.28 215.22
  L 19.10 215.65
  A 0.52 0.50 20.8 0 0 19.41 216.32
  L 60.63 231.04
  A 3.30 2.72 -23.9 0 0 61.13 231.18
  L 61.28 231.15
  A 0.79 0.79 0.0 0 1 62.08 232.36
  L 48.48 253.25
  A 0.58 0.57 25.9 0 1 47.82 253.47
  L 5.05 239.10
  A 0.95 0.95 0.0 0 1 4.55 237.69
  L 32.21 193.40
  Z"
/>
<path fill="#dad7c2" d="
  M 372.82 193.33
  Q 373.56 193.58 373.84 194.06
  L 370.64 198.66
  A 0.66 0.64 -61.1 0 1 369.87 198.89
  L 369.61 198.79
  A 0.72 0.72 0.0 0 1 369.23 197.77
  Q 371.01 194.52 372.82 193.33
  Z"
/>
<path fill="#6238fe" d="
  M 228.39 211.72
  Q 228.14 212.51 227.95 212.71
  C 224.79 216.19 222.40 220.43 219.62 223.71
  Q 217.42 226.31 213.60 232.04
  C 211.73 234.86 209.72 232.58 207.80 231.72
  Q 194.70 225.80 188.46 223.03
  Q 182.40 220.34 181.28 219.64
  A 2.66 2.64 67.0 0 0 180.30 219.24
  L 179.15 219.03
  A 0.69 0.69 0.0 0 1 178.71 217.95
  L 195.21 195.12
  L 228.39 211.72
  Z"
/>
<path fill="#dad7c2" d="
  M 389.24 198.38
  L 391.01 199.08
  A 0.55 0.54 -62.8 0 1 391.26 199.88
  Q 390.12 201.64 387.10 203.87
  Q 384.56 205.75 381.61 210.24
  A 0.32 0.30 -64.3 0 1 381.27 210.37
  L 381.01 210.31
  Q 381.47 209.59 380.32 208.51
  A 0.86 0.86 0.0 0 1 380.30 207.27
  L 389.24 198.38
  Z"
/>
<path fill="#6d6c6a" d="
  M 242.03 204.72
  L 237.24 202.43
  Q 238.23 200.25 242.03 204.72
  Z"
/>
<path fill="#6238fe" d="
  M 144.48 204.60
  L 176.07 218.83
  A 0.50 0.50 0.0 0 1 176.27 219.58
  L 160.89 240.68
  A 0.80 0.80 0.0 0 1 159.94 240.95
  L 123.72 226.28
  Q 123.27 226.00 123.62 225.48
  Q 131.06 214.50 139.13 202.99
  A 0.79 0.78 -60.6 0 1 140.09 202.72
  L 144.48 204.60
  Z"
/>
<path fill="#6d6c6a" d="
  M 408.42 210.38
  Q 400.48 205.87 398.01 204.24
  Q 396.42 203.20 395.50 204.20
  Q 395.61 203.40 396.04 202.89
  A 0.72 0.71 -53.3 0 1 396.98 202.75
  L 408.42 210.38
  Z"
/>
<path fill="#6d6c6a" d="
  M 394.61 205.71
  L 394.30 206.26
  Q 393.96 205.94 394.23 205.57
  A 0.17 0.15 3.6 0 1 394.32 205.50
  Q 394.57 205.42 394.61 205.71
  Z"
/>
<path fill="#6d6c6a" d="
  M 76.83 209.96
  Q 70.36 219.58 64.06 229.32
  Q 63.65 229.96 62.96 230.29
  Q 62.69 230.19 62.56 230.03
  A 0.34 0.34 0.0 0 1 62.68 229.50
  Q 63.45 229.16 63.63 228.88
  Q 70.56 218.01 76.24 209.39
  A 0.31 0.30 -38.6 0 1 76.78 209.45
  Q 76.85 209.63 76.83 209.96
  Z"
/>
<path fill="#6238fe" d="
  M 65.05 230.62
  L 78.60 209.94
  A 0.80 0.80 0.0 0 1 79.57 209.64
  L 120.29 226.31
  A 0.80 0.80 0.0 0 1 120.65 227.51
  L 107.53 246.67
  A 0.80 0.80 0.0 0 1 106.60 246.96
  L 65.44 231.81
  A 0.80 0.80 0.0 0 1 65.05 230.62
  Z"
/>
<path fill="#6d6c6a" d="
  M 410.80 211.88
  Q 409.89 211.64 409.26 210.99
  Q 410.18 210.70 410.80 211.88
  Z"
/>
<path fill="#dad7c2" d="
  M 244.50 245.25
  Q 235.30 242.68 225.93 238.26
  A 0.48 0.47 -54.7 0 0 225.39 238.36
  L 217.99 245.76
  A 0.63 0.63 0.0 0 0 218.14 246.77
  Q 226.18 250.92 234.33 253.40
  A 0.77 0.76 20.8 0 1 234.81 254.45
  L 234.58 254.70
  A 1.47 1.47 0.0 0 1 232.91 255.05
  L 214.87 247.15
  A 0.75 0.47 58.3 0 1 214.77 247.10
  Q 213.83 246.56 214.49 246.00
  A 0.47 0.47 0.0 0 0 214.42 245.24
  Q 213.88 244.92 214.22 243.96
  Q 216.52 237.40 220.82 231.07
  Q 226.38 222.89 232.68 216.19
  Q 235.20 213.51 238.71 211.24
  A 1.02 1.01 -31.3 0 1 240.13 211.58
  Q 240.93 212.91 240.73 214.11
  A 0.68 0.67 -65.2 0 0 240.96 214.75
  L 243.82 217.18
  A 6.55 6.22 76.9 0 0 245.14 218.05
  L 256.85 223.81
  A 1.98 1.98 0.0 0 1 257.70 226.55
  C 256.61 228.51 254.79 232.72 252.85 235.33
  Q 249.67 239.60 245.30 245.00
  A 0.76 0.76 0.0 0 1 244.50 245.25
  Z"
/>
<path fill="#6d6c6a" d="
  M 385.01 265.00
  Q 384.70 266.64 385.24 268.60
  Q 383.32 267.72 381.36 267.67
  A 0.61 0.57 20.2 0 0 380.89 267.87
  L 341.71 312.86
  A 1.16 1.15 -42.3 0 0 341.64 314.29
  L 341.88 314.62
  A 0.79 0.78 -42.3 0 0 343.10 314.67
  L 353.26 302.98
  L 344.47 313.95
  A 1.86 1.85 39.6 0 0 344.72 316.52
  L 345.36 317.07
  A 1.54 1.53 40.1 0 0 347.53 316.89
  L 379.01 279.87
  A 1.51 1.51 0.0 0 0 378.43 277.50
  L 377.65 277.18
  A 2.08 2.07 33.1 0 0 375.39 277.65
  L 372.05 281.10
  Q 373.48 278.48 376.22 276.16
  A 0.66 0.66 0.0 0 1 377.12 276.20
  Q 378.76 277.87 381.63 277.56
  A 0.86 0.86 0.0 0 1 382.48 278.82
  L 381.87 280.00
  A 1.90 1.89 85.1 0 1 381.36 280.61
  Q 378.53 282.92 377.94 283.68
  Q 371.44 292.11 369.98 293.41
  A 2.08 2.01 80.0 0 0 369.40 294.27
  C 368.54 296.69 365.62 298.28 364.59 299.55
  Q 359.60 305.67 354.60 311.72
  Q 351.21 315.78 347.61 319.53
  A 1.40 1.38 65.0 0 1 345.24 318.64
  C 345.10 316.93 343.36 316.69 341.72 316.34
  Q 340.47 316.08 339.77 316.73
  Q 338.17 318.21 334.65 323.50
  L 333.04 323.20
  Q 333.32 322.89 333.33 322.42
  A 0.81 0.80 -8.4 0 0 332.26 321.64
  Q 321.92 325.05 310.08 330.13
  A 1.04 1.03 -34.0 0 1 308.92 329.91
  L 308.49 329.49
  A 0.74 0.74 0.0 0 1 308.76 328.27
  Q 315.30 325.88 319.06 324.69
  C 322.91 323.47 325.97 321.76 329.74 320.41
  Q 330.91 319.99 330.54 319.38
  Q 330.50 319.31 329.57 318.68
  A 0.86 0.84 -63.1 0 1 329.25 317.67
  Q 330.90 313.18 335.21 309.83
  A 0.82 0.80 34.6 0 1 335.97 309.70
  L 338.76 310.64
  A 1.57 1.57 0.0 0 0 340.51 310.10
  Q 341.55 308.73 344.77 305.78
  Q 345.28 305.31 347.77 301.83
  A 5.16 4.53 -89.9 0 1 348.44 301.07
  Q 352.96 296.86 355.83 292.86
  C 356.97 291.27 358.65 290.49 359.48 288.79
  A 2.05 2.03 78.5 0 1 359.69 288.47
  L 365.66 281.36
  A 1.05 1.05 0.0 0 1 365.87 281.15
  Q 369.44 278.43 372.04 273.43
  A 0.95 0.94 33.9 0 0 371.81 272.27
  Q 371.11 271.66 370.05 271.38
  A 1.04 0.93 20.5 0 1 369.33 270.01
  Q 369.99 268.76 369.48 268.43
  L 375.14 261.97
  A 0.88 0.86 25.9 0 1 375.97 261.69
  Q 376.83 261.86 377.69 262.40
  L 378.94 263.06
  A 0.98 0.98 0.0 0 0 380.38 262.26
  L 383.62 211.39
  A 0.16 0.16 0.0 0 1 383.86 211.27
  L 387.12 213.20
  A 0.46 0.46 0.0 0 1 387.34 213.64
  Q 386.11 228.15 385.61 239.51
  Q 385.52 241.45 384.73 244.31
  A 4.30 4.20 54.6 0 0 384.58 245.27
  Q 384.30 252.84 384.17 255.90
  C 384.02 259.30 383.09 262.96 382.29 266.09
  A 0.79 0.79 0.0 0 0 383.69 266.76
  L 385.01 265.00
  Z"
/>
<path fill="#6d6c6a" d="
  M 411.80 212.40
  Q 411.31 212.42 411.01 212.01
  Q 411.34 211.62 411.80 212.40
  Z"
/>
<path fill="#6d6c6a" d="
  M 389.51 213.21
  Q 389.39 213.80 388.94 214.22
  Q 388.79 213.39 389.51 213.21
  Z"
/>
<path fill="#6238fe" d="
  M 161.88 241.10
  L 177.26 219.98
  A 0.64 0.64 0.0 0 1 178.05 219.78
  L 210.65 234.65
  A 0.64 0.64 0.0 0 1 210.89 235.62
  L 195.84 255.35
  A 0.64 0.64 0.0 0 1 195.09 255.55
  L 162.16 242.07
  A 0.64 0.64 0.0 0 1 161.88 241.10
  Z"
/>
<path fill="#6d6c6a" d="
  M 388.41 224.03
  Q 388.47 224.83 388.30 225.53
  Q 388.06 224.75 388.41 224.03
  Z"
/>
<path fill="#dad7c2" d="
  M 358.78 232.48
  Q 354.94 233.99 352.40 236.71
  L 345.59 229.66
  A 1.35 1.34 47.4 0 1 345.67 227.71
  L 348.58 225.17
  A 1.63 1.63 0.0 0 1 350.81 225.26
  L 354.89 229.40
  A 2.49 2.48 -6.4 0 0 355.33 229.75
  Q 357.16 230.95 358.78 232.48
  Z"
/>
<path fill="#6d6c6a" d="
  M 388.19 225.70
  Q 388.43 226.69 388.00 227.50
  Q 387.72 226.46 388.19 225.70
  Z"
/>
<path fill="#6238fe" d="
  M 122.27 227.30
  L 159.04 241.94
  A 0.81 0.80 -61.2 0 1 159.39 243.17
  L 146.33 261.10
  A 0.91 0.91 0.0 0 1 145.29 261.42
  L 120.96 252.46
  L 111.55 249.08
  A 1.35 0.84 44.0 0 1 111.39 249.01
  L 109.43 248.06
  A 1.01 1.01 0.0 0 1 109.04 246.57
  L 122.27 227.30
  Z"
/>
<path fill="#6d6c6a" d="
  M 388.00 227.50
  Q 388.10 228.54 387.81 229.54
  Q 387.47 228.37 388.00 227.50
  Z"
/>
<path fill="#6d6c6a" d="
  M 370.57 255.50
  L 366.34 258.15
  C 360.88 259.47 358.29 257.16 355.05 253.49
  A 1.93 1.91 -13.1 0 0 353.90 252.78
  L 351.42 252.28
  A 0.58 0.53 -20.8 0 1 351.17 252.18
  Q 349.00 250.71 348.78 248.98
  Q 347.91 242.03 352.40 236.71
  Q 354.94 233.99 358.78 232.48
  Q 361.00 231.74 363.21 232.18
  C 366.44 232.83 370.49 238.14 372.15 239.56
  C 375.58 242.51 377.37 245.51 375.23 249.48
  Q 373.72 252.28 370.57 255.50
  Z"
/>
<path fill="#6238fe" d="
  M 50.02 253.40
  L 63.42 232.97
  A 0.72 0.72 0.0 0 1 64.27 232.69
  L 105.52 247.89
  A 0.72 0.72 0.0 0 1 105.87 248.97
  L 92.73 268.16
  A 0.72 0.72 0.0 0 1 91.90 268.44
  L 50.39 254.48
  A 0.72 0.72 0.0 0 1 50.02 253.40
  Z"
/>
<path fill="#dad7c2" d="
  M 285.52 234.60
  Q 290.15 233.36 294.03 234.20
  A 1.51 1.47 79.9 0 1 295.01 234.90
  Q 296.48 237.40 297.02 237.79
  Q 299.66 239.69 301.29 241.25
  A 0.75 0.75 0.0 0 1 300.86 242.54
  L 293.46 243.36
  A 0.25 0.23 61.8 0 1 293.25 243.29
  L 285.39 235.05
  A 0.27 0.27 0.0 0 1 285.52 234.60
  Z"
/>
<path fill="#6d6c6a" d="
  M 387.63 234.03
  L 387.55 237.23
  Q 387.32 235.63 387.63 234.03
  Z"
/>
<path fill="#6d6c6a" d="
  M 387.43 237.95
  Q 387.57 238.81 387.29 239.54
  Q 386.88 238.80 387.43 237.95
  Z"
/>
<path fill="#6d6c6a" d="
  M 0.68 240.00
  L 0.00 240.00
  Q 0.00 239.88 0.00 239.77
  Q 0.38 239.82 0.68 240.00
  Z"
/>
<path fill="#6d6c6a" d="
  M 3.55 240.91
  Q 2.03 240.86 0.68 240.00
  Q 2.29 239.99 3.55 240.91
  Z"
/>
<path fill="#6d6c6a" d="
  M 387.18 239.95
  Q 387.35 240.87 387.06 241.79
  Q 386.74 240.70 387.18 239.95
  Z"
/>
<path fill="#6d6c6a" d="
  M 5.28 241.47
  Q 4.51 241.47 3.79 241.02
  Q 4.65 240.84 5.28 241.47
  Z"
/>
<path fill="#6d6c6a" d="
  M 7.53 242.30
  L 6.79 242.02
  Q 7.24 242.05 7.53 242.30
  Z"
/>
<path fill="#6d6c6a" d="
  M 320.68 259.50
  A 0.46 0.46 0.0 0 1 319.99 260.08
  L 316.38 257.23
  A 0.66 0.60 68.2 0 0 316.09 257.09
  L 310.46 255.83
  A 1.56 1.54 81.9 0 1 309.41 255.03
  L 303.43 243.68
  A 0.75 0.74 -6.4 0 1 304.28 242.62
  L 310.35 244.18
  A 1.76 1.75 -15.1 0 1 311.10 244.61
  L 314.29 247.81
  A 4.58 4.35 -83.0 0 1 315.12 248.93
  L 320.68 259.50
  Z"
/>
<path fill="#6238fe" d="
  M 147.52 261.21
  L 160.39 243.55
  A 0.82 0.82 0.0 0 1 161.36 243.27
  L 193.96 256.60
  A 0.82 0.82 0.0 0 1 194.30 257.86
  L 181.75 274.32
  A 0.82 0.82 0.0 0 1 180.81 274.59
  L 147.90 262.47
  A 0.82 0.82 0.0 0 1 147.52 261.21
  Z"
/>
<path fill="#6d6c6a" d="
  M 386.90 243.96
  Q 386.98 244.54 386.79 245.04
  Q 386.53 244.38 386.90 243.96
  Z"
/>
<path fill="#6d6c6a" d="
  M 14.97 244.74
  Q 14.61 244.73 14.30 244.54
  Q 14.66 244.59 14.97 244.74
  Z"
/>
<path fill="#6d6c6a" d="
  M 411.77 248.41
  Q 409.27 247.23 407.36 247.19
  Q 407.86 246.01 409.31 246.66
  Q 410.71 247.30 411.77 248.41
  Z"
/>
<path fill="#b2b2b0" d="
  M 411.77 248.41
  L 451.34 271.94
  Q 452.02 271.70 451.47 271.99
  Q 459.27 277.54 467.71 281.80
  L 472.31 284.81
  A 0.83 0.82 35.0 0 1 472.52 285.99
  Q 467.50 292.67 462.39 298.14
  Q 445.43 316.27 404.91 360.67
  Q 401.52 364.38 398.10 368.02
  Q 397.32 367.81 396.55 368.00
  Q 363.59 357.51 330.98 346.02
  Q 328.88 345.28 326.97 344.26
  Q 326.92 343.13 327.23 342.76
  Q 331.77 337.36 332.06 337.06
  Q 340.04 328.60 341.25 326.99
  Q 341.32 326.90 341.85 325.86
  A 0.44 0.44 0.0 0 0 341.52 325.23
  L 336.48 324.50
  L 334.65 323.50
  Q 338.17 318.21 339.77 316.73
  Q 340.47 316.08 341.72 316.34
  C 343.36 316.69 345.10 316.93 345.24 318.64
  A 1.40 1.38 65.0 0 0 347.61 319.53
  Q 351.21 315.78 354.60 311.72
  L 352.85 314.70
  A 0.43 0.43 0.0 0 0 353.54 315.21
  L 354.61 314.05
  A 0.29 0.28 73.9 0 1 355.09 314.32
  Q 355.00 314.67 354.46 314.87
  L 330.69 342.63
  A 0.83 0.82 29.4 0 0 331.06 343.94
  L 397.30 366.21
  A 1.58 1.56 -59.4 0 0 398.95 365.78
  L 420.69 342.14
  A 0.21 0.18 -33.6 0 0 420.74 341.97
  Q 420.72 341.91 420.67 341.77
  A 0.48 0.48 0.0 0 1 421.12 341.11
  Q 421.41 341.11 421.44 341.10
  A 2.19 2.11 -78.4 0 0 422.24 340.55
  L 433.17 328.50
  A 0.74 0.74 0.0 0 0 432.93 327.33
  L 370.09 298.67
  A 0.34 0.34 0.0 0 1 369.92 298.22
  L 370.03 297.98
  A 0.48 0.47 -65.3 0 1 370.65 297.74
  L 433.87 326.58
  A 1.42 1.42 0.0 0 0 435.52 326.22
  L 446.50 313.60
  A 0.41 0.41 0.0 0 0 446.37 312.96
  Q 437.97 308.88 437.48 308.60
  C 435.26 307.31 433.28 306.96 431.25 305.57
  Q 430.16 304.83 426.64 303.15
  Q 419.89 299.94 409.78 294.78
  Q 403.19 291.41 400.69 290.64
  Q 400.18 290.48 399.25 289.62
  A 3.04 2.96 -9.7 0 0 398.51 289.11
  L 384.21 282.33
  Q 384.08 281.67 384.38 281.40
  Q 384.76 281.07 385.27 281.16
  L 446.85 312.13
  A 1.13 1.13 0.0 0 0 448.20 311.88
  Q 452.08 307.63 456.44 303.30
  Q 457.25 302.50 457.87 300.87
  A 0.72 0.71 24.7 0 0 457.54 299.98
  L 396.88 267.13
  A 0.44 0.44 0.0 0 1 396.92 266.34
  L 397.04 266.29
  A 2.00 1.96 -41.4 0 1 398.76 266.38
  Q 427.60 282.39 436.26 287.20
  Q 439.12 288.79 445.08 291.88
  C 449.89 294.39 453.96 297.40 458.61 299.02
  A 1.24 1.24 0.0 0 0 459.86 298.77
  Q 465.81 293.49 469.87 287.65
  A 0.80 0.79 32.8 0 0 469.62 286.51
  L 410.75 251.48
  A 1.95 1.94 35.3 0 0 408.27 251.90
  L 398.08 264.05
  L 397.09 261.14
  L 402.45 254.31
  A 1.33 0.99 -36.8 0 0 402.72 253.39
  Q 402.63 252.95 403.73 252.12
  A 1.17 1.14 -13.2 0 0 404.16 251.45
  L 404.44 250.20
  Q 404.45 250.29 404.73 250.13
  Q 406.60 249.21 407.36 247.19
  Q 409.27 247.23 411.77 248.41
  Z"
/>
<path fill="#6d6c6a" d="
  M 407.36 247.19
  Q 406.60 249.21 404.73 250.13
  Q 405.58 248.35 407.36 247.19
  Z"
/>
<path fill="#6d6c6a" d="
  M 451.34 271.94
  L 411.77 248.41
  L 451.34 271.94
  Z"
/>
<path fill="#6d6c6a" d="
  M 386.70 248.45
  Q 386.84 249.39 386.56 250.25
  Q 386.08 248.95 386.70 248.45
  Z"
/>
<path fill="#6238fe" d="
  M 121.20 253.89
  L 144.63 262.57
  A 0.62 0.62 0.0 0 1 144.72 263.69
  L 144.25 263.96
  A 1.41 1.38 -87.3 0 0 143.83 264.35
  L 132.35 281.13
  A 1.48 1.47 26.5 0 1 130.66 281.69
  L 96.01 269.88
  Q 94.78 269.61 94.25 269.08
  A 0.70 0.70 0.0 0 1 94.17 268.20
  L 106.68 249.92
  A 1.90 1.90 0.0 0 1 108.93 249.22
  L 121.20 253.89
  Z"
/>
<path fill="#6d6c6a" d="
  M 404.44 250.20
  L 404.16 251.45
  A 1.17 1.14 -13.2 0 1 403.73 252.12
  Q 402.63 252.95 402.72 253.39
  A 1.33 0.99 -36.8 0 1 402.45 254.31
  L 397.09 261.14
  L 392.07 266.58
  A 0.53 0.25 -25.7 0 0 391.99 266.68
  C 390.73 268.59 389.74 270.55 387.69 271.89
  A 0.58 0.57 -37.1 0 1 386.93 271.79
  Q 386.14 270.88 386.36 270.23
  Q 388.61 269.08 390.52 266.75
  Q 397.36 258.42 404.44 250.20
  Z"
/>
<path fill="#6238fe" d="
  M 385.27 281.16
  L 384.66 280.92
  A 0.57 0.57 0.0 0 1 384.44 280.02
  L 398.08 264.05
  L 408.27 251.90
  A 1.95 1.94 35.3 0 1 410.75 251.48
  L 469.62 286.51
  A 0.80 0.79 32.8 0 1 469.87 287.65
  Q 465.81 293.49 459.86 298.77
  A 1.24 1.24 0.0 0 1 458.61 299.02
  C 453.96 297.40 449.89 294.39 445.08 291.88
  Q 439.12 288.79 436.26 287.20
  Q 427.60 282.39 398.76 266.38
  A 2.00 1.96 -41.4 0 0 397.04 266.29
  L 396.92 266.34
  A 0.44 0.44 0.0 0 0 396.88 267.13
  L 457.54 299.98
  A 0.72 0.71 24.7 0 1 457.87 300.87
  Q 457.25 302.50 456.44 303.30
  Q 452.08 307.63 448.20 311.88
  A 1.13 1.13 0.0 0 1 446.85 312.13
  L 385.27 281.16
  Z"
/>
<path fill="#6d6c6a" d="
  M 199.39 253.05
  Q 202.97 254.16 204.75 255.49
  Q 205.41 255.98 206.33 258.41
  L 200.88 256.68
  A 1.63 1.36 50.0 0 0 200.54 256.62
  Q 198.80 256.60 197.06 257.42
  A 0.39 0.39 0.0 0 1 196.58 256.83
  L 199.39 253.05
  Z"
/>
<path fill="#6d6c6a" d="
  M 282.85 287.50
  L 278.56 282.25
  A 1.94 1.85 -1.3 0 0 278.11 281.84
  Q 272.53 278.13 271.28 270.99
  A 0.90 0.77 -51.6 0 1 271.27 270.70
  L 272.30 263.39
  A 1.53 1.51 -26.3 0 1 272.50 262.81
  L 276.73 255.44
  A 0.52 0.52 0.0 0 1 277.68 255.56
  L 277.93 256.41
  A 0.28 0.22 -83.0 0 0 277.99 256.51
  L 286.60 266.78
  A 1.14 1.14 0.0 0 1 286.67 268.17
  L 282.94 273.63
  A 0.54 0.54 0.0 0 0 282.85 273.85
  L 281.51 281.21
  A 3.60 3.60 0.0 0 0 281.69 283.14
  L 283.28 287.25
  A 0.25 0.25 0.0 0 1 282.85 287.50
  Z"
/>
<path fill="#dad7c2" d="
  M 370.57 255.50
  L 375.02 259.16
  A 1.28 1.28 0.0 0 0 376.81 259.00
  L 379.51 255.82
  A 0.45 0.45 0.0 0 1 380.30 256.17
  L 379.62 261.54
  A 0.66 0.66 0.0 0 1 378.98 262.11
  Q 378.34 262.12 377.69 262.40
  Q 376.83 261.86 375.97 261.69
  A 0.88 0.86 25.9 0 0 375.14 261.97
  L 369.48 268.43
  L 363.72 262.62
  A 0.58 0.58 0.0 0 1 363.66 261.87
  L 366.34 258.15
  L 370.57 255.50
  Z"
/>
<path fill="#6d6c6a" d="
  M 51.04 256.89
  Q 50.50 256.88 50.03 256.56
  Q 50.62 256.55 51.04 256.89
  Z"
/>
<path fill="#6d6c6a" d="
  M 385.93 257.45
  L 385.81 259.20
  Q 385.62 258.03 385.93 257.45
  Z"
/>
<ellipse fill="#6d6c6a" cx="0.00" cy="0.00" transform="translate(308.38,266.40) rotate(-35.9)" rx="5.93" ry="4.27"/>
<path fill="#dad7c2" d="
  M 397.09 261.14
  L 398.08 264.05
  L 384.44 280.02
  A 0.57 0.57 0.0 0 0 384.66 280.92
  L 385.27 281.16
  Q 384.76 281.07 384.38 281.40
  Q 384.08 281.67 384.21 282.33
  Q 383.96 282.03 383.66 281.86
  A 0.67 0.66 35.4 0 0 382.82 282.00
  L 355.40 313.47
  A 0.41 0.41 0.0 0 0 355.55 314.12
  Q 366.16 318.66 373.06 321.16
  Q 374.18 321.56 374.22 321.58
  Q 378.60 323.67 384.71 326.11
  Q 400.57 332.47 404.41 334.26
  C 406.48 335.22 408.98 335.58 411.28 337.05
  A 1.44 0.79 47.4 0 0 411.44 337.14
  L 420.00 340.43
  A 0.22 0.22 0.0 0 1 420.13 340.57
  L 420.24 340.84
  A 0.29 0.29 0.0 0 1 419.86 341.21
  Q 412.77 338.20 405.48 335.60
  Q 403.22 334.80 400.98 333.89
  Q 391.99 330.23 375.37 323.40
  Q 374.36 322.98 373.86 322.95
  C 372.51 322.84 371.35 321.82 370.28 321.41
  Q 362.37 318.38 354.46 314.87
  Q 355.00 314.67 355.09 314.32
  A 0.29 0.28 73.9 0 0 354.61 314.05
  L 353.54 315.21
  A 0.43 0.43 0.0 0 1 352.85 314.70
  L 354.60 311.72
  Q 359.60 305.67 364.59 299.55
  C 365.62 298.28 368.54 296.69 369.40 294.27
  A 2.08 2.01 80.0 0 1 369.98 293.41
  Q 371.44 292.11 377.94 283.68
  Q 378.53 282.92 381.36 280.61
  A 1.90 1.89 85.1 0 0 381.87 280.00
  L 382.48 278.82
  A 0.86 0.86 0.0 0 0 381.63 277.56
  Q 378.76 277.87 377.12 276.20
  A 0.66 0.66 0.0 0 0 376.22 276.16
  Q 373.48 278.48 372.05 281.10
  Q 371.42 281.32 371.27 282.04
  L 370.56 282.82
  Q 369.88 283.12 369.74 283.77
  L 369.27 284.27
  Q 368.78 284.35 368.74 285.00
  L 364.18 290.24
  Q 363.88 290.33 363.69 290.72
  Q 362.87 291.14 362.48 292.23
  L 357.74 297.73
  Q 356.39 298.40 356.24 299.53
  L 355.77 300.06
  Q 355.03 300.47 354.76 301.27
  Q 354.41 301.53 354.22 301.95
  L 353.26 302.98
  L 343.10 314.67
  A 0.79 0.78 -42.3 0 1 341.88 314.62
  L 341.64 314.29
  A 1.16 1.15 -42.3 0 1 341.71 312.86
  L 380.89 267.87
  A 0.61 0.57 20.2 0 1 381.36 267.67
  Q 383.32 267.72 385.24 268.60
  L 386.36 270.23
  Q 386.14 270.88 386.93 271.79
  A 0.58 0.57 -37.1 0 0 387.69 271.89
  C 389.74 270.55 390.73 268.59 391.99 266.68
  A 0.53 0.25 -25.7 0 1 392.07 266.58
  L 397.09 261.14
  Z"
/>
<path fill="#6d6c6a" d="
  M 68.29 262.67
  Q 67.27 262.69 66.47 262.04
  Q 67.54 261.95 68.29 262.67
  Z"
/>
<path fill="#6d6c6a" d="
  M 69.26 262.99
  Q 68.87 262.96 68.54 262.78
  Q 68.97 262.77 69.26 262.99
  Z"
/>
<path fill="#6d6c6a" d="
  M 70.76 263.45
  Q 69.76 263.54 69.26 262.99
  Q 69.98 262.65 70.76 263.45
  Z"
/>
<path fill="#6238fe" d="
  M 180.12 276.63
  L 167.78 293.57
  A 0.70 0.70 0.0 0 1 166.99 293.82
  L 133.34 282.50
  A 0.70 0.70 0.0 0 1 133.00 281.43
  L 145.97 263.64
  A 0.70 0.70 0.0 0 1 146.78 263.39
  L 179.80 275.56
  A 0.70 0.70 0.0 0 1 180.12 276.63
  Z"
/>
<path fill="#6d6c6a" d="
  M 73.04 264.19
  Q 72.33 264.31 71.78 263.81
  Q 72.60 263.75 73.04 264.19
  Z"
/>
<path fill="#6d6c6a" d="
  M 75.26 264.95
  Q 74.44 265.09 73.79 264.52
  Q 74.73 264.47 75.26 264.95
  Z"
/>
<path fill="#6d6c6a" d="
  M 77.73 265.90
  Q 77.17 265.87 76.77 265.52
  Q 77.13 265.31 77.73 265.90
  Z"
/>
<path fill="#6d6c6a" d="
  M 191.12 265.67
  Q 192.36 272.84 193.98 279.24
  Q 197.03 291.32 197.32 292.71
  Q 199.52 303.26 203.73 323.20
  Q 203.86 323.79 204.06 324.07
  A 0.56 0.56 0.0 0 0 205.04 323.95
  Q 205.89 321.79 206.95 320.64
  A 1.64 1.63 -59.5 0 1 208.68 320.19
  L 214.69 322.21
  A 3.62 3.61 -5.5 0 1 216.67 323.84
  Q 217.87 325.96 218.85 329.19
  Q 218.98 329.62 218.82 329.82
  Q 218.65 330.05 218.22 330.01
  L 211.59 328.40
  A 1.44 1.43 -64.5 0 0 210.11 328.93
  L 207.15 332.82
  A 1.41 1.38 60.2 0 0 206.87 333.89
  Q 207.16 335.86 205.25 338.03
  A 1.78 1.77 27.5 0 1 203.49 338.58
  L 179.92 332.50
  A 1.59 1.58 33.4 0 0 178.59 332.77
  Q 176.54 334.31 175.40 336.91
  Q 171.62 342.00 167.77 347.24
  Q 157.29 361.52 154.19 365.81
  C 151.83 369.07 148.99 372.35 146.73 375.94
  Q 144.91 378.83 141.24 383.60
  C 137.27 388.75 135.81 391.06 132.13 395.38
  Q 129.24 398.77 126.12 404.27
  A 16.63 16.50 -11.1 0 1 124.75 406.29
  Q 117.25 415.72 114.96 419.46
  Q 114.71 419.86 114.41 420.64
  A 2.22 2.11 79.1 0 1 113.95 421.36
  L 110.71 424.68
  A 1.69 1.68 -6.2 0 0 110.42 425.04
  L 103.80 435.42
  Q 103.70 435.50 103.56 435.17
  A 1.22 1.20 -48.5 0 1 103.52 434.37
  Q 104.22 432.01 105.40 430.40
  Q 124.85 403.87 165.06 348.30
  Q 170.77 340.41 177.81 331.68
  A 2.26 2.26 0.0 0 1 180.08 330.90
  L 202.65 336.16
  A 1.81 1.76 -50.3 0 0 203.78 336.04
  Q 204.56 335.75 205.53 334.92
  A 1.40 1.40 0.0 0 0 204.97 332.50
  L 204.02 332.26
  A 0.40 0.40 0.0 0 1 204.01 331.48
  Q 204.16 331.44 204.44 331.42
  A 0.76 0.74 -89.0 0 0 205.12 330.75
  Q 205.31 329.06 204.37 327.82
  A 0.54 0.54 0.0 0 0 203.50 327.84
  L 202.10 329.89
  A 0.93 0.93 0.0 0 1 200.42 329.56
  Q 200.09 327.99 199.20 327.01
  A 1.67 1.66 -14.2 0 0 198.37 326.52
  Q 196.97 326.16 196.91 325.72
  Q 197.54 322.32 196.69 319.56
  C 193.54 309.39 191.21 298.04 189.67 289.87
  Q 189.57 289.35 187.42 281.35
  Q 186.27 277.11 185.50 272.69
  A 1.85 1.82 -40.0 0 1 185.59 271.75
  Q 187.55 266.60 191.12 265.67
  Z"
/>
<path fill="#6d6c6a" d="
  M 82.46 267.49
  L 81.77 267.29
  Q 82.19 267.25 82.46 267.49
  Z"
/>
<path fill="#6d6c6a" d="
  M 89.80 269.89
  Q 89.26 269.90 88.78 269.59
  Q 89.41 269.53 89.80 269.89
  Z"
/>
<path fill="#6d6c6a" d="
  M 451.47 271.99
  L 467.71 281.80
  Q 459.27 277.54 451.47 271.99
  Z"
/>
<ellipse fill="#6d6c6a" cx="0.00" cy="0.00" transform="translate(292.29,277.68) rotate(-33.8)" rx="6.00" ry="4.20"/>
<path fill="#6d6c6a" d="
  M 194.41 320.45
  L 190.85 309.84
  A 6.25 6.07 21.5 0 0 190.33 308.69
  Q 187.49 303.83 185.97 298.99
  Q 185.73 298.22 186.42 297.77
  A 0.78 0.75 50.1 0 0 186.51 296.57
  Q 183.83 294.03 182.57 290.21
  Q 181.48 286.88 179.34 282.70
  A 0.60 0.60 0.0 0 0 178.56 282.42
  Q 177.84 282.73 177.15 283.48
  Q 179.45 278.47 183.07 274.89
  A 0.39 0.39 0.0 0 1 183.72 275.08
  Q 187.46 291.43 191.48 307.81
  Q 191.91 309.56 194.32 317.45
  Q 194.77 318.92 194.41 320.45
  Z"
/>
<ellipse fill="#6d6c6a" cx="0.00" cy="0.00" transform="translate(306.82,281.45) rotate(-38.0)" rx="5.84" ry="4.16"/>
<path fill="#6d6c6a" d="
  M 372.05 281.10
  Q 371.78 281.60 371.27 282.04
  Q 371.42 281.32 372.05 281.10
  Z"
/>
<path fill="#6238fe" d="
  M 384.21 282.33
  L 398.51 289.11
  A 3.04 2.96 -9.7 0 1 399.25 289.62
  Q 400.18 290.48 400.69 290.64
  Q 403.19 291.41 409.78 294.78
  Q 419.89 299.94 426.64 303.15
  Q 430.16 304.83 431.25 305.57
  C 433.28 306.96 435.26 307.31 437.48 308.60
  Q 437.97 308.88 446.37 312.96
  A 0.41 0.41 0.0 0 1 446.50 313.60
  L 435.52 326.22
  A 1.42 1.42 0.0 0 1 433.87 326.58
  L 370.65 297.74
  A 0.48 0.47 -65.3 0 0 370.03 297.98
  L 369.92 298.22
  A 0.34 0.34 0.0 0 0 370.09 298.67
  L 432.93 327.33
  A 0.74 0.74 0.0 0 1 433.17 328.50
  L 422.24 340.55
  A 2.19 2.11 -78.4 0 1 421.44 341.10
  Q 421.41 341.11 421.12 341.11
  A 0.48 0.48 0.0 0 0 420.67 341.77
  Q 420.72 341.91 420.74 341.97
  A 0.21 0.18 -33.6 0 1 420.69 342.14
  L 398.95 365.78
  A 1.58 1.56 -59.4 0 1 397.30 366.21
  L 331.06 343.94
  A 0.83 0.82 29.4 0 1 330.69 342.63
  L 354.46 314.87
  Q 362.37 318.38 370.28 321.41
  C 371.35 321.82 372.51 322.84 373.86 322.95
  Q 374.36 322.98 375.37 323.40
  Q 391.99 330.23 400.98 333.89
  Q 403.22 334.80 405.48 335.60
  Q 412.77 338.20 419.86 341.21
  A 0.29 0.29 0.0 0 0 420.24 340.84
  L 420.13 340.57
  A 0.22 0.22 0.0 0 0 420.00 340.43
  L 411.44 337.14
  A 1.44 0.79 47.4 0 1 411.28 337.05
  C 408.98 335.58 406.48 335.22 404.41 334.26
  Q 400.57 332.47 384.71 326.11
  Q 378.60 323.67 374.22 321.58
  Q 374.18 321.56 373.06 321.16
  Q 366.16 318.66 355.55 314.12
  A 0.41 0.41 0.0 0 1 355.40 313.47
  L 382.82 282.00
  A 0.67 0.66 35.4 0 1 383.66 281.86
  Q 383.96 282.03 384.21 282.33
  Z
  M 342.47 330.09
  Q 342.39 330.30 342.46 330.61
  A 0.62 0.62 0.0 0 0 342.86 331.05
  Q 387.00 346.71 407.07 354.16
  Q 407.58 354.35 407.73 353.94
  Q 407.88 353.54 407.36 353.35
  Q 387.22 346.10 343.39 329.60
  A 0.62 0.62 0.0 0 0 342.80 329.68
  Q 342.55 329.87 342.47 330.09
  Z"
/>
<path fill="#6d6c6a" d="
  M 215.76 285.15
  C 220.60 281.82 226.43 280.88 231.06 284.94
  A 1.87 1.85 -83.3 0 1 231.48 285.48
  L 237.65 297.19
  A 1.69 1.56 -69.2 0 1 237.75 297.44
  Q 238.39 299.98 236.61 303.44
  Q 233.22 310.03 224.57 311.25
  C 220.46 311.83 216.78 309.78 215.39 305.59
  Q 214.62 303.29 212.82 301.58
  Q 211.29 300.13 210.87 298.15
  Q 209.09 289.75 215.76 285.15
  Z"
/>
<path fill="#6d6c6a" d="
  M 370.56 282.82
  Q 370.25 283.41 369.74 283.77
  Q 369.88 283.12 370.56 282.82
  Z"
/>
<path fill="#6d6c6a" d="
  M 369.27 284.27
  Q 369.11 284.72 368.74 285.00
  Q 368.78 284.35 369.27 284.27
  Z"
/>
<path fill="#6d6c6a" d="
  M 364.18 290.24
  Q 364.00 290.60 363.69 290.72
  Q 363.88 290.33 364.18 290.24
  Z"
/>
<path fill="#6d6c6a" d="
  M 363.69 290.72
  L 362.48 292.23
  Q 362.87 291.14 363.69 290.72
  Z"
/>
<path fill="#6d6c6a" d="
  M 357.74 297.73
  L 356.24 299.53
  Q 356.39 298.40 357.74 297.73
  Z"
/>
<path fill="#6d6c6a" d="
  M 355.77 300.06
  Q 355.41 300.74 354.76 301.27
  Q 355.03 300.47 355.77 300.06
  Z"
/>
<path fill="#6d6c6a" d="
  M 354.76 301.27
  Q 354.54 301.66 354.22 301.95
  Q 354.41 301.53 354.76 301.27
  Z"
/>
<path fill="#dad7c2" d="
  M 298.80 316.08
  L 291.86 318.77
  A 0.44 0.43 -14.2 0 1 291.27 318.42
  Q 290.87 315.38 288.57 312.54
  A 3.10 3.09 -34.6 0 1 289.42 307.91
  L 291.14 306.92
  A 2.58 2.58 0.0 0 1 294.67 307.87
  L 299.03 315.41
  A 0.47 0.46 64.8 0 1 298.80 316.08
  Z"
/>
<path fill="#6d6c6a" d="
  M 311.72 330.98
  Q 310.74 332.42 311.24 335.22
  Q 307.02 335.54 304.25 338.68
  Q 302.99 338.30 302.29 336.39
  A 1.62 1.62 0.0 0 0 300.26 335.40
  Q 288.22 339.31 276.70 343.96
  C 274.90 344.68 273.27 345.84 271.68 346.96
  L 272.13 345.45
  A 0.59 0.59 0.0 0 0 271.74 344.72
  L 265.72 342.87
  A 1.39 1.38 27.5 0 0 264.24 343.33
  Q 261.47 346.81 260.78 349.57
  A 1.45 1.41 82.7 0 1 260.10 350.47
  Q 259.67 350.72 258.85 352.15
  A 0.79 0.79 0.0 0 1 257.97 352.52
  L 211.66 340.59
  A 0.56 0.56 0.0 0 1 211.38 339.68
  Q 213.45 337.30 216.21 335.47
  Q 217.88 334.37 219.09 331.83
  Q 219.44 330.65 220.24 330.91
  Q 228.91 333.64 237.93 336.00
  A 5.40 5.03 -22.6 0 1 238.98 336.39
  Q 242.27 338.08 246.10 338.81
  A 4.82 4.73 -26.1 0 1 247.34 339.22
  Q 250.90 340.94 255.16 341.53
  A 1.01 0.99 21.9 0 0 256.10 341.14
  L 260.26 335.70
  A 1.02 1.02 0.0 0 1 261.33 335.32
  L 266.87 336.75
  A 2.37 2.37 0.0 0 1 268.36 337.92
  L 270.37 341.74
  A 1.03 1.02 -24.2 0 0 271.65 342.22
  L 298.31 331.89
  A 0.94 0.94 0.0 0 0 298.20 330.10
  L 296.44 329.64
  A 1.12 1.10 -3.7 0 1 295.69 328.99
  C 293.78 324.36 296.63 320.57 301.46 320.08
  A 1.61 1.61 0.0 0 1 302.85 320.63
  L 303.62 321.51
  A 0.31 0.30 74.5 0 1 303.34 322.01
  Q 300.46 321.52 297.98 323.17
  A 1.58 1.48 -6.2 0 0 297.42 323.82
  C 296.27 326.27 299.04 329.23 300.76 330.68
  A 0.44 0.34 11.4 0 1 300.88 330.82
  L 302.49 333.80
  A 1.26 1.26 0.0 0 0 304.10 334.35
  L 311.72 330.98
  Z
  M 258.72 350.02
  A 0.70 0.70 0.0 0 0 258.85 348.65
  L 218.89 336.39
  A 3.97 3.97 0.0 0 0 215.87 336.68
  L 213.64 337.85
  A 0.83 0.83 0.0 0 0 213.82 339.38
  Q 243.77 347.08 254.03 349.72
  Q 256.22 350.28 258.72 350.02
  Z"
/>
<path fill="#6d6c6a" d="
  M 194.82 321.20
  Q 194.53 321.02 194.53 320.46
  Q 194.85 320.72 194.82 321.20
  Z"
/>
<path fill="#6d6c6a" d="
  M 326.97 344.26
  Q 325.34 344.10 326.92 341.91
  Q 332.65 333.97 339.04 326.84
  A 0.61 0.61 0.0 0 0 338.89 325.90
  L 336.48 324.50
  L 341.52 325.23
  A 0.44 0.44 0.0 0 1 341.85 325.86
  Q 341.32 326.90 341.25 326.99
  Q 340.04 328.60 332.06 337.06
  Q 331.77 337.36 327.23 342.76
  Q 326.92 343.13 326.97 344.26
  Z"
/>
<path fill="#dad7c2" d="
  M 218.22 330.01
  Q 219.15 330.43 219.09 331.83
  Q 217.88 334.37 216.21 335.47
  Q 213.45 337.30 211.38 339.68
  A 0.56 0.56 0.0 0 0 211.66 340.59
  L 257.97 352.52
  A 0.79 0.79 0.0 0 0 258.85 352.15
  Q 259.67 350.72 260.10 350.47
  A 1.45 1.41 82.7 0 0 260.78 349.57
  Q 261.47 346.81 264.24 343.33
  A 1.39 1.38 27.5 0 1 265.72 342.87
  L 271.74 344.72
  A 0.59 0.59 0.0 0 1 272.13 345.45
  L 271.68 346.96
  L 267.94 350.63
  Q 266.11 351.62 264.79 353.26
  A 0.63 0.63 0.0 0 0 265.11 354.26
  L 287.24 360.24
  Q 281.54 368.46 275.44 375.93
  Q 247.13 410.64 218.61 445.67
  Q 218.13 445.62 217.45 446.76
  Q 216.85 446.90 216.69 445.77
  L 248.58 406.48
  L 249.66 405.51
  L 265.72 385.74
  L 267.01 383.90
  L 284.51 362.16
  A 0.47 0.47 0.0 0 0 284.26 361.41
  L 256.56 354.42
  L 254.75 353.72
  L 240.30 350.57
  Q 239.42 349.46 237.38 349.61
  L 227.30 347.30
  A 1.53 0.39 30.7 0 1 227.13 347.25
  Q 223.43 345.76 219.39 345.31
  A 1.28 1.20 -28.5 0 1 219.12 345.24
  L 216.34 344.25
  A 0.57 0.33 -14.9 0 0 216.23 344.22
  L 181.02 335.49
  A 1.22 1.21 -55.0 0 0 180.02 335.67
  Q 179.32 336.15 178.87 337.03
  Q 177.45 335.78 175.40 336.91
  Q 176.54 334.31 178.59 332.77
  A 1.59 1.58 33.4 0 1 179.92 332.50
  L 203.49 338.58
  A 1.78 1.77 27.5 0 0 205.25 338.03
  Q 207.16 335.86 206.87 333.89
  A 1.41 1.38 60.2 0 1 207.15 332.82
  L 210.11 328.93
  A 1.44 1.43 -64.5 0 1 211.59 328.40
  L 218.22 330.01
  Z"
/>
<path fill="#b2b2b0" d="
  M 407.73 353.94
  Q 407.58 354.35 407.07 354.16
  Q 387.00 346.71 342.86 331.05
  A 0.62 0.62 0.0 0 1 342.46 330.61
  Q 342.39 330.30 342.47 330.09
  Q 342.55 329.87 342.80 329.68
  A 0.62 0.62 0.0 0 1 343.39 329.60
  Q 387.22 346.10 407.36 353.35
  Q 407.88 353.54 407.73 353.94
  Z"
/>
<path fill="#b2b2b0" d="
  M 178.87 337.03
  Q 175.83 341.14 172.89 345.32
  C 169.34 350.37 165.78 354.27 163.18 358.91
  Q 162.94 359.35 162.26 360.01
  Q 160.10 362.13 160.70 361.84
  A 4.64 3.98 -60.6 0 1 161.58 361.52
  Q 162.12 361.38 166.23 362.72
  A 0.13 0.11 -23.7 0 0 166.30 362.74
  L 178.89 365.19
  A 1.04 1.03 -65.5 0 0 179.90 364.81
  L 198.04 341.02
  A 0.22 0.21 42.8 0 1 198.38 341.01
  L 198.60 341.26
  A 0.74 0.74 0.0 0 1 198.63 342.20
  L 181.53 364.63
  A 0.53 0.52 26.0 0 0 181.82 365.46
  L 197.85 369.59
  A 1.51 1.50 -63.8 0 0 199.42 369.05
  L 217.24 345.68
  A 0.56 0.56 0.0 0 1 218.02 345.57
  L 218.30 345.79
  A 0.19 0.19 0.0 0 1 218.34 346.05
  L 201.19 368.54
  A 0.98 0.98 0.0 0 0 201.78 370.10
  L 217.43 373.26
  A 2.40 2.38 -65.4 0 0 219.79 372.37
  L 237.38 349.61
  Q 239.42 349.46 240.30 350.57
  L 238.90 350.18
  A 0.90 0.90 0.0 0 0 237.95 350.50
  L 220.72 373.09
  A 0.37 0.36 25.8 0 0 220.92 373.66
  L 236.11 377.57
  A 0.88 0.87 26.3 0 0 237.01 377.27
  Q 246.55 365.49 254.64 354.88
  Q 254.99 354.42 254.75 353.72
  L 256.56 354.42
  L 238.73 376.72
  A 0.49 0.49 0.0 0 0 238.99 377.50
  L 251.34 380.68
  A 1.64 1.62 -63.9 0 0 253.04 380.09
  L 269.22 358.87
  A 0.52 0.52 0.0 0 1 269.98 358.79
  L 270.48 359.21
  A 0.45 0.45 0.0 0 1 270.53 359.86
  L 253.79 379.56
  A 0.87 0.87 0.0 0 0 254.20 380.95
  Q 258.31 382.20 262.25 382.55
  A 5.49 5.21 -32.4 0 1 263.17 382.73
  L 267.01 383.90
  L 265.72 385.74
  Q 266.30 384.34 265.24 384.14
  Q 260.84 383.30 252.92 381.90
  A 1.08 1.07 20.5 0 0 251.81 382.40
  C 250.18 385.11 247.64 387.33 245.68 389.83
  C 243.15 393.07 241.88 394.96 239.25 397.88
  Q 237.23 400.11 235.91 402.63
  A 0.45 0.44 -71.4 0 0 236.23 403.28
  L 249.66 405.51
  L 248.58 406.48
  Q 242.71 405.08 237.26 404.14
  Q 234.83 403.72 233.59 405.13
  Q 231.41 407.59 229.25 410.23
  A 3.73 3.29 -14.9 0 0 228.87 410.80
  C 227.65 413.06 225.69 414.41 224.22 416.41
  Q 222.00 419.45 218.32 423.99
  A 0.26 0.25 -50.8 0 1 217.97 424.03
  L 217.75 423.86
  A 0.16 0.16 0.0 0 1 217.72 423.63
  L 233.12 404.38
  A 0.61 0.61 0.0 0 0 232.72 403.39
  L 219.57 401.71
  A 0.75 0.75 0.0 0 0 218.90 401.95
  Q 214.13 407.10 211.97 410.23
  Q 210.50 412.34 207.27 416.04
  Q 205.55 418.02 202.95 422.18
  A 0.58 0.58 0.0 0 0 203.37 423.06
  L 214.52 424.48
  A 0.18 0.18 0.0 0 1 214.64 424.77
  L 214.26 425.27
  A 0.28 0.26 20.8 0 1 214.01 425.37
  L 202.69 423.93
  A 2.24 2.24 0.0 0 0 200.69 424.70
  L 197.42 428.51
  A 0.55 0.31 -29.0 0 0 197.37 428.59
  Q 196.14 431.05 193.94 432.83
  A 1.06 0.85 -85.1 0 0 193.76 433.02
  L 187.03 442.00
  A 0.76 0.76 0.0 0 0 187.17 443.05
  Q 187.65 443.43 188.51 443.49
  Q 196.55 444.05 201.18 444.33
  C 202.11 444.39 202.67 445.01 203.35 444.94
  A 2.68 0.40 -11.3 0 1 204.34 444.89
  L 216.69 445.77
  Q 216.85 446.90 217.45 446.76
  Q 217.47 446.88 217.50 447.00
  L 211.41 447.00
  Q 209.76 446.43 208.01 446.38
  A 2.95 2.84 -32.9 0 1 207.03 446.19
  Q 204.37 445.20 201.23 445.58
  L 197.07 445.21
  Q 195.66 444.48 194.03 444.76
  L 186.31 444.27
  Q 186.11 443.82 185.46 444.06
  L 108.03 436.44
  Q 107.39 435.93 106.96 436.28
  Q 105.48 436.29 103.80 435.42
  L 110.42 425.04
  A 1.69 1.68 -6.2 0 1 110.71 424.68
  L 113.95 421.36
  A 2.22 2.11 79.1 0 0 114.41 420.64
  Q 114.71 419.86 114.96 419.46
  Q 117.25 415.72 124.75 406.29
  A 16.63 16.50 -11.1 0 0 126.12 404.27
  Q 129.24 398.77 132.13 395.38
  C 135.81 391.06 137.27 388.75 141.24 383.60
  Q 144.91 378.83 146.73 375.94
  C 148.99 372.35 151.83 369.07 154.19 365.81
  Q 157.29 361.52 167.77 347.24
  Q 171.62 342.00 175.40 336.91
  Q 177.45 335.78 178.87 337.03
  Z
  M 161.04 362.48
  A 0.30 0.30 0.0 0 0 160.73 362.59
  L 142.32 386.73
  A 0.30 0.30 0.0 0 0 142.50 387.21
  L 160.55 390.52
  A 0.30 0.30 0.0 0 0 160.84 390.40
  L 178.40 367.38
  A 0.30 0.30 0.0 0 0 178.23 366.91
  L 161.04 362.48
  Z
  M 180.88 366.54
  A 0.57 0.57 0.0 0 0 180.28 366.75
  L 162.67 389.84
  A 0.57 0.57 0.0 0 0 163.02 390.75
  L 180.17 393.89
  A 0.57 0.57 0.0 0 0 180.72 393.67
  L 197.52 371.64
  A 0.57 0.57 0.0 0 0 197.21 370.75
  L 180.88 366.54
  Z
  M 200.12 397.21
  A 0.73 0.73 0.0 0 0 200.83 396.93
  L 217.27 375.38
  A 0.73 0.73 0.0 0 0 216.82 374.22
  L 199.72 371.09
  A 0.73 0.73 0.0 0 0 199.01 371.37
  L 182.57 392.92
  A 0.73 0.73 0.0 0 0 183.02 394.08
  L 200.12 397.21
  Z
  M 219.73 374.64
  A 0.86 0.86 0.0 0 0 218.83 374.95
  L 202.73 396.07
  A 0.86 0.86 0.0 0 0 203.26 397.44
  L 218.31 400.19
  A 0.86 0.86 0.0 0 0 219.14 399.88
  L 235.01 379.83
  A 0.86 0.86 0.0 0 0 234.55 378.46
  L 219.73 374.64
  Z
  M 237.96 378.89
  A 0.74 0.74 0.0 0 0 237.26 379.14
  L 220.16 399.25
  A 0.74 0.74 0.0 0 0 220.59 400.46
  L 233.45 402.81
  A 0.74 0.74 0.0 0 0 234.15 402.56
  L 251.24 382.45
  A 0.74 0.74 0.0 0 0 250.81 381.24
  L 237.96 378.89
  Z
  M 142.15 415.07
  Q 142.61 414.98 143.09 414.35
  Q 152.43 402.16 159.66 392.19
  A 0.35 0.35 0.0 0 0 159.44 391.64
  L 142.25 388.50
  A 1.20 1.18 23.0 0 0 141.06 388.97
  L 108.42 433.77
  A 1.12 1.11 18.5 0 0 109.31 435.54
  Q 117.17 435.65 125.35 437.39
  A 0.95 0.95 0.0 0 0 126.33 437.00
  Q 127.51 435.32 140.43 418.20
  Q 141.54 416.74 141.61 415.70
  A 0.69 0.68 -4.4 0 1 142.15 415.07
  Z
  M 161.69 392.18
  A 0.58 0.58 0.0 0 0 161.16 392.41
  L 144.30 414.51
  A 0.58 0.58 0.0 0 0 144.69 415.44
  L 162.08 417.66
  A 0.58 0.58 0.0 0 0 162.61 417.43
  L 179.47 395.33
  A 0.58 0.58 0.0 0 0 179.08 394.40
  L 161.69 392.18
  Z
  M 182.05 420.14
  A 1.17 1.17 0.0 0 0 183.13 419.69
  L 198.60 399.40
  A 1.17 1.17 0.0 0 0 197.82 397.53
  L 181.40 395.43
  A 1.17 1.17 0.0 0 0 180.32 395.88
  L 164.85 416.17
  A 1.17 1.17 0.0 0 0 165.63 418.04
  L 182.05 420.14
  Z
  M 200.98 398.63
  A 0.44 0.44 0.0 0 0 200.58 398.79
  L 183.98 419.76
  A 0.44 0.44 0.0 0 0 184.27 420.47
  L 200.87 422.60
  A 0.44 0.44 0.0 0 0 201.27 422.44
  L 217.87 401.47
  A 0.44 0.44 0.0 0 0 217.58 400.76
  L 200.98 398.63
  Z
  M 143.70 416.38
  A 0.69 0.69 0.0 0 0 143.07 416.65
  L 127.87 436.57
  A 0.69 0.69 0.0 0 0 128.38 437.68
  L 145.91 438.80
  A 0.69 0.69 0.0 0 0 146.50 438.53
  L 160.91 419.62
  A 0.69 0.69 0.0 0 0 160.45 418.52
  L 143.70 416.38
  Z
  M 163.25 418.87
  A 0.58 0.58 0.0 0 0 162.72 419.10
  L 147.76 438.71
  A 0.58 0.58 0.0 0 0 148.18 439.64
  L 166.35 440.80
  A 0.58 0.58 0.0 0 0 166.85 440.57
  L 180.99 422.02
  A 0.58 0.58 0.0 0 0 180.60 421.09
  L 163.25 418.87
  Z
  M 182.92 421.41
  A 0.31 0.31 0.0 0 0 182.63 421.53
  L 167.70 441.11
  A 0.31 0.31 0.0 0 0 167.93 441.61
  L 185.33 442.71
  A 0.31 0.31 0.0 0 0 185.60 442.59
  L 199.74 424.04
  A 0.31 0.31 0.0 0 0 199.54 423.54
  L 182.92 421.41
  Z"
/>
<path fill="#dad7c2" d="
  M 311.24 335.22
  Q 310.42 337.13 309.56 337.46
  Q 307.88 337.69 307.66 338.65
  L 306.56 338.80
  Q 305.58 338.53 304.71 338.78
  Q 304.48 338.73 304.25 338.68
  Q 307.02 335.54 311.24 335.22
  Z"
/>
<path fill="#6238fe" d="
  M 237.38 349.61
  L 219.79 372.37
  A 2.40 2.38 -65.4 0 1 217.43 373.26
  L 201.78 370.10
  A 0.98 0.98 0.0 0 1 201.19 368.54
  L 218.34 346.05
  A 0.19 0.19 0.0 0 0 218.30 345.79
  L 218.02 345.57
  A 0.56 0.56 0.0 0 0 217.24 345.68
  L 199.42 369.05
  A 1.51 1.50 -63.8 0 1 197.85 369.59
  L 181.82 365.46
  A 0.53 0.52 26.0 0 1 181.53 364.63
  L 198.63 342.20
  A 0.74 0.74 0.0 0 0 198.60 341.26
  L 198.38 341.01
  A 0.22 0.21 42.8 0 0 198.04 341.02
  L 179.90 364.81
  A 1.04 1.03 -65.5 0 1 178.89 365.19
  L 166.30 362.74
  A 0.13 0.11 -23.7 0 1 166.23 362.72
  Q 162.12 361.38 161.58 361.52
  A 4.64 3.98 -60.6 0 0 160.70 361.84
  Q 160.10 362.13 162.26 360.01
  Q 162.94 359.35 163.18 358.91
  C 165.78 354.27 169.34 350.37 172.89 345.32
  Q 175.83 341.14 178.87 337.03
  Q 179.32 336.15 180.02 335.67
  A 1.22 1.21 -55.0 0 1 181.02 335.49
  L 216.23 344.22
  A 0.57 0.33 -14.9 0 1 216.34 344.25
  L 219.12 345.24
  A 1.28 1.20 -28.5 0 0 219.39 345.31
  Q 223.43 345.76 227.13 347.25
  A 1.53 0.39 30.7 0 0 227.30 347.30
  L 237.38 349.61
  Z"
/>
<path fill="#6d6c6a" d="
  M 309.56 337.46
  Q 308.86 338.44 307.66 338.65
  Q 307.88 337.69 309.56 337.46
  Z"
/>
<path fill="#6d6c6a" d="
  M 306.56 338.80
  Q 305.85 339.30 304.71 338.78
  Q 305.58 338.53 306.56 338.80
  Z"
/>
<path fill="#6238fe" d="
  M 240.30 350.57
  L 254.75 353.72
  Q 254.99 354.42 254.64 354.88
  Q 246.55 365.49 237.01 377.27
  A 0.88 0.87 26.3 0 1 236.11 377.57
  L 220.92 373.66
  A 0.37 0.36 25.8 0 1 220.72 373.09
  L 237.95 350.50
  A 0.90 0.90 0.0 0 1 238.90 350.18
  L 240.30 350.57
  Z"
/>
<path fill="#6d6c6a" d="
  M 267.94 350.63
  L 266.75 352.46
  A 0.40 0.40 0.0 0 0 266.98 353.07
  Q 275.58 355.29 284.12 357.37
  Q 287.93 358.30 287.24 360.24
  L 265.11 354.26
  A 0.63 0.63 0.0 0 1 264.79 353.26
  Q 266.11 351.62 267.94 350.63
  Z"
/>
<path fill="#6238fe" d="
  M 256.56 354.42
  L 284.26 361.41
  A 0.47 0.47 0.0 0 1 284.51 362.16
  L 267.01 383.90
  L 263.17 382.73
  A 5.49 5.21 -32.4 0 0 262.25 382.55
  Q 258.31 382.20 254.20 380.95
  A 0.87 0.87 0.0 0 1 253.79 379.56
  L 270.53 359.86
  A 0.45 0.45 0.0 0 0 270.48 359.21
  L 269.98 358.79
  A 0.52 0.52 0.0 0 0 269.22 358.87
  L 253.04 380.09
  A 1.64 1.62 -63.9 0 1 251.34 380.68
  L 238.99 377.50
  A 0.49 0.49 0.0 0 1 238.73 376.72
  L 256.56 354.42
  Z"
/>
<path fill="#6238fe" d="
  M 161.04 362.48
  L 178.23 366.91
  A 0.30 0.30 0.0 0 1 178.40 367.38
  L 160.84 390.40
  A 0.30 0.30 0.0 0 1 160.55 390.52
  L 142.50 387.21
  A 0.30 0.30 0.0 0 1 142.32 386.73
  L 160.73 362.59
  A 0.30 0.30 0.0 0 1 161.04 362.48
  Z"
/>
<path fill="#6238fe" d="
  M 180.88 366.54
  L 197.21 370.75
  A 0.57 0.57 0.0 0 1 197.52 371.64
  L 180.72 393.67
  A 0.57 0.57 0.0 0 1 180.17 393.89
  L 163.02 390.75
  A 0.57 0.57 0.0 0 1 162.67 389.84
  L 180.28 366.75
  A 0.57 0.57 0.0 0 1 180.88 366.54
  Z"
/>
<path fill="#6d6c6a" d="
  M 398.10 368.02
  Q 397.77 368.81 396.55 368.00
  Q 397.32 367.81 398.10 368.02
  Z"
/>
<path fill="#6238fe" d="
  M 200.12 397.21
  L 183.02 394.08
  A 0.73 0.73 0.0 0 1 182.57 392.92
  L 199.01 371.37
  A 0.73 0.73 0.0 0 1 199.72 371.09
  L 216.82 374.22
  A 0.73 0.73 0.0 0 1 217.27 375.38
  L 200.83 396.93
  A 0.73 0.73 0.0 0 1 200.12 397.21
  Z"
/>
<path fill="#6238fe" d="
  M 219.73 374.64
  L 234.55 378.46
  A 0.86 0.86 0.0 0 1 235.01 379.83
  L 219.14 399.88
  A 0.86 0.86 0.0 0 1 218.31 400.19
  L 203.26 397.44
  A 0.86 0.86 0.0 0 1 202.73 396.07
  L 218.83 374.95
  A 0.86 0.86 0.0 0 1 219.73 374.64
  Z"
/>
<path fill="#6238fe" d="
  M 237.96 378.89
  L 250.81 381.24
  A 0.74 0.74 0.0 0 1 251.24 382.45
  L 234.15 402.56
  A 0.74 0.74 0.0 0 1 233.45 402.81
  L 220.59 400.46
  A 0.74 0.74 0.0 0 1 220.16 399.25
  L 237.26 379.14
  A 0.74 0.74 0.0 0 1 237.96 378.89
  Z"
/>
<path fill="#6238fe" d="
  M 265.72 385.74
  L 249.66 405.51
  L 236.23 403.28
  A 0.45 0.44 -71.4 0 1 235.91 402.63
  Q 237.23 400.11 239.25 397.88
  C 241.88 394.96 243.15 393.07 245.68 389.83
  C 247.64 387.33 250.18 385.11 251.81 382.40
  A 1.08 1.07 20.5 0 1 252.92 381.90
  Q 260.84 383.30 265.24 384.14
  Q 266.30 384.34 265.72 385.74
  Z"
/>
<path fill="#6238fe" d="
  M 141.61 415.70
  Q 141.54 416.74 140.43 418.20
  Q 127.51 435.32 126.33 437.00
  A 0.95 0.95 0.0 0 1 125.35 437.39
  Q 117.17 435.65 109.31 435.54
  A 1.12 1.11 18.5 0 1 108.42 433.77
  L 141.06 388.97
  A 1.20 1.18 23.0 0 1 142.25 388.50
  L 159.44 391.64
  A 0.35 0.35 0.0 0 1 159.66 392.19
  Q 152.43 402.16 143.09 414.35
  Q 142.61 414.98 142.15 415.07
  A 0.69 0.68 -4.4 0 0 141.61 415.70
  Z"
/>
<path fill="#6238fe" d="
  M 161.69 392.18
  L 179.08 394.40
  A 0.58 0.58 0.0 0 1 179.47 395.33
  L 162.61 417.43
  A 0.58 0.58 0.0 0 1 162.08 417.66
  L 144.69 415.44
  A 0.58 0.58 0.0 0 1 144.30 414.51
  L 161.16 392.41
  A 0.58 0.58 0.0 0 1 161.69 392.18
  Z"
/>
<path fill="#6238fe" d="
  M 182.05 420.14
  L 165.63 418.04
  A 1.17 1.17 0.0 0 1 164.85 416.17
  L 180.32 395.88
  A 1.17 1.17 0.0 0 1 181.40 395.43
  L 197.82 397.53
  A 1.17 1.17 0.0 0 1 198.60 399.40
  L 183.13 419.69
  A 1.17 1.17 0.0 0 1 182.05 420.14
  Z"
/>
<path fill="#6238fe" d="
  M 200.98 398.63
  L 217.58 400.76
  A 0.44 0.44 0.0 0 1 217.87 401.47
  L 201.27 422.44
  A 0.44 0.44 0.0 0 1 200.87 422.60
  L 184.27 420.47
  A 0.44 0.44 0.0 0 1 183.98 419.76
  L 200.58 398.79
  A 0.44 0.44 0.0 0 1 200.98 398.63
  Z"
/>
<path fill="#6238fe" d="
  M 248.58 406.48
  L 216.69 445.77
  L 204.34 444.89
  A 2.68 0.40 -11.3 0 0 203.35 444.94
  C 202.67 445.01 202.11 444.39 201.18 444.33
  Q 196.55 444.05 188.51 443.49
  Q 187.65 443.43 187.17 443.05
  A 0.76 0.76 0.0 0 1 187.03 442.00
  L 193.76 433.02
  A 1.06 0.85 -85.1 0 1 193.94 432.83
  Q 196.14 431.05 197.37 428.59
  A 0.55 0.31 -29.0 0 1 197.42 428.51
  L 200.69 424.70
  A 2.24 2.24 0.0 0 1 202.69 423.93
  L 214.01 425.37
  A 0.28 0.26 20.8 0 0 214.26 425.27
  L 214.64 424.77
  A 0.18 0.18 0.0 0 0 214.52 424.48
  L 203.37 423.06
  A 0.58 0.58 0.0 0 1 202.95 422.18
  Q 205.55 418.02 207.27 416.04
  Q 210.50 412.34 211.97 410.23
  Q 214.13 407.10 218.90 401.95
  A 0.75 0.75 0.0 0 1 219.57 401.71
  L 232.72 403.39
  A 0.61 0.61 0.0 0 1 233.12 404.38
  L 217.72 423.63
  A 0.16 0.16 0.0 0 0 217.75 423.86
  L 217.97 424.03
  A 0.26 0.25 -50.8 0 0 218.32 423.99
  Q 222.00 419.45 224.22 416.41
  C 225.69 414.41 227.65 413.06 228.87 410.80
  A 3.73 3.29 -14.9 0 1 229.25 410.23
  Q 231.41 407.59 233.59 405.13
  Q 234.83 403.72 237.26 404.14
  Q 242.71 405.08 248.58 406.48
  Z"
/>
<path fill="#6238fe" d="
  M 143.70 416.38
  L 160.45 418.52
  A 0.69 0.69 0.0 0 1 160.91 419.62
  L 146.50 438.53
  A 0.69 0.69 0.0 0 1 145.91 438.80
  L 128.38 437.68
  A 0.69 0.69 0.0 0 1 127.87 436.57
  L 143.07 416.65
  A 0.69 0.69 0.0 0 1 143.70 416.38
  Z"
/>
<path fill="#6238fe" d="
  M 163.25 418.87
  L 180.60 421.09
  A 0.58 0.58 0.0 0 1 180.99 422.02
  L 166.85 440.57
  A 0.58 0.58 0.0 0 1 166.35 440.80
  L 148.18 439.64
  A 0.58 0.58 0.0 0 1 147.76 438.71
  L 162.72 419.10
  A 0.58 0.58 0.0 0 1 163.25 418.87
  Z"
/>
<path fill="#6238fe" d="
  M 182.92 421.41
  L 199.54 423.54
  A 0.31 0.31 0.0 0 1 199.74 424.04
  L 185.60 442.59
  A 0.31 0.31 0.0 0 1 185.33 442.71
  L 167.93 441.61
  A 0.31 0.31 0.0 0 1 167.70 441.11
  L 182.63 421.53
  A 0.31 0.31 0.0 0 1 182.92 421.41
  Z"
/>
<path fill="#6d6c6a" d="
  M 108.03 436.44
  Q 107.41 436.45 106.96 436.28
  Q 107.39 435.93 108.03 436.44
  Z"
/>
<path fill="#6d6c6a" d="
  M 186.31 444.27
  L 185.46 444.06
  Q 186.11 443.82 186.31 444.27
  Z"
/>
<path fill="#6d6c6a" d="
  M 197.07 445.21
  Q 195.49 445.37 194.03 444.76
  Q 195.66 444.48 197.07 445.21
  Z"
/>
<path fill="#6d6c6a" d="
  M 211.41 447.00
  L 201.88 447.00
  L 200.91 446.55
  A 0.35 0.35 0.0 0 1 200.81 445.99
  L 201.23 445.58
  Q 204.37 445.20 207.03 446.19
  A 2.95 2.84 -32.9 0 0 208.01 446.38
  Q 209.76 446.43 211.41 447.00
  Z"
/>
<path fill="#6d6c6a" d="
  M 218.61 445.67
  Q 220.57 446.46 223.44 446.60
  Q 223.54 446.61 223.63 446.62
  C 222.55 446.71 221.77 446.66 220.75 447.00
  L 217.50 447.00
  Q 217.47 446.88 217.45 446.76
  Q 218.13 445.62 218.61 445.67
  Z"
/>
</svg>
