<?xml version="1.0" encoding="UTF-8" standalone="no"?>
<!-- Created with Inkscape (http://www.inkscape.org/) -->

<svg
   version="1.1"
   id="svg1"
   width="682.66669"
   height="596"
   viewBox="0 0 682.66669 596"
   xmlns="http://www.w3.org/2000/svg"
   xmlns:svg="http://www.w3.org/2000/svg"
   xmlns:rdf="http://www.w3.org/1999/02/22-rdf-syntax-ns#"
   xmlns:cc="http://creativecommons.org/ns#"
   xmlns:dc="http://purl.org/dc/elements/1.1/">
  <title
     id="title1">ACRIMSAT Icon SVG</title>
  <defs
     id="defs1" />
  <g
     id="g1">
    <path
       style="fill:currentColor"
       d="m 199.33334,594.68819 c 12.56338,-0.2627 69.92537,0.32366 30.50267,-3.32127 -30.29146,-4.01463 -62.03224,-3.71044 -91.42909,-10.77112 1.19358,-12.67262 9.48173,-20.11899 15.76877,-26.93587 0.99947,-7.06044 15.31513,-18.67524 11.60209,-16.99671 7.27595,-13.36901 13.39919,-15.57425 19.21585,-28.52556 4.63571,-0.89836 8.80219,-14.64836 13.63003,-15.71308 4.22398,-9.42866 6.66215,-10.58274 13.65795,-19.22124 3.09971,-8.52925 2.75706,-2.96732 13.05173,-17.82571 -4.24708,2.03118 8.8134,-11.35719 4.01668,-6.04669 3.87939,-20.3305 51.86004,4.50304 39.31665,-5.58982 4.87584,-5.94455 -14.55085,-4.72203 -12.49692,-22.78048 -10.56907,-20.32288 -7.58416,-20.36794 -17.20902,-42.68047 -6.52877,12.93844 -26.25174,19.44734 -45.01099,9.13313 -24.00419,-8.91833 -50.06085,-19.4405 -76.80441,-26.63237 -18.592124,-5.02797 -37.510346,-14.82037 -56.812486,-17.01555 -11.176345,-9.38234 -32.260777,-12.61855 -47.83545,-18.87994 -14.2225203,1.08618 -15.4108377,-14.582 -8.5601719,-20.53773 4.2161244,-11.14449 6.8192179,-10.20889 9.6603149,-18.51113 3.755173,-4.78121 6.456878,-6.92885 9.069093,-14.50336 3.229406,-0.23562 5.222914,-11.76742 9.265905,-12.24039 -1.598847,-4.7993 10.659766,-13.45764 7.286882,-16.24201 8.368278,-7.6488 5.68256,-6.87133 10.871502,-15.24085 3.342276,-5.03469 6.860611,-9.32516 7.858502,-13.61988 6.395541,-4.79652 6.943916,-14.81012 10.868742,-14.5322 4.240622,-10.55665 4.57308,-8.65444 10.554343,-17.63747 3.152453,-8.36414 4.618671,-7.8438 9.117656,-15.43491 2.918496,-7.56645 8.858282,-11.91127 12.637128,-21.59163 5.05788,-6.06203 8.20514,-12.29938 10.53934,-17.32558 6.14728,-3.8859 4.75174,-12.03479 10.9331,-14.01008 -1.08497,-5.73421 9.40369,-15.277036 11.93633,-22.205695 10.10996,-11.346356 11.53285,1.835388 21.5245,4.043251 4.7739,4.212934 8.482,3.820223 15.512,10.826724 5.75218,1.97073 9.03179,4.16375 12.89709,7.52944 5.05817,0.8792 12.50668,9.29183 18.86365,10.34795 0.2357,3.22943 11.76739,5.22287 12.24039,9.2659 6.6463,-0.47073 10.94066,9.49552 16.24201,7.28689 6.46209,8.04778 12.4661,8.4908 16.44385,10.36463 9.95847,9.75618 10.49938,5.94019 21.97014,15.3841 9.95602,3.98335 21.34777,-4.0462 31.88434,-4.92034 23.63442,-4.64611 47.11899,-13.94122 70.96965,-15.17983 12.11841,-2.75686 19.47982,13.83047 25.03586,11.57643 7.71396,9.99605 17.37767,11.98958 21.21105,17.58284 10.27296,3.38447 9.37978,11.93504 14.78261,5.3078 4.80701,-6.05129 9.60793,-9.2961 13.68129,-19.70315 9.31733,-6.54513 13.5721,-17.98273 20.69572,-25.91287 2.26779,-6.03164 10.46368,-9.48743 11.6607,-17.96596 12.35104,-11.58215 12.80639,-16.67715 19.62511,-24.785267 4.16916,-6.191801 5.36563,-5.8347 9.49811,-13.62566 8.62159,-9.992087 7.17538,-7.407892 10.41294,-14.479439 3.64354,-3.670254 15.20401,-17.398795 17.89753,-24.455574 6.43708,-5.722421 7.19649,-8.230925 13.00268,-16.96239 C 557.9777,17.612453 562.85102,3.8454401 563.16596,7.9287001 575.9466,-4.2211938 547.78032,3.7354096 540.8178,1.4021679 524.43644,1.7238056 480.14678,0.3934529 520.57743,0.25104101 c 18.30811,-0.009163 83.0282,-0.0139166 71.94804,0.78353989 -21.53577,-3.3540726 -15.25335,5.6565482 -5.53199,12.7067431 3.43038,3.917899 19.72489,21.600319 16.16327,18.762222 8.54299,9.602124 16.4108,19.45065 24.21801,27.430208 7.68897,9.561992 14.34272,18.839788 24.73765,28.663721 2.81602,3.812321 13.19023,17.419195 21.24855,25.385735 14.66356,8.61031 -1.69488,32.77462 -15.92942,44.26142 -4.96788,9.30781 -9.41526,12.80075 -22.7456,27.24489 -10.39553,15.1149 -20.86009,26.90264 -32.03918,39.86906 -4.52941,5.60017 -6.52581,10.51118 -15.31292,17.30809 -1.43642,6.99772 -17.46661,20.08833 -24.02926,30.42834 -3.23512,9.91966 -18.41721,15.1749 -24.51009,6.13119 -12.63473,-16.29195 -22.04328,9.96848 -20.17168,21.20632 -1.25248,19.28881 -3.30431,38.56346 -3.40318,57.89821 9.5445,-7.73502 8.99563,-13.45946 9.80123,-9.58018 4.82248,-6.31267 15.61516,-28.75387 30.23861,-15.48689 0.4923,-0.9266 22.452,15.07432 21.36896,12.66692 10.08727,3.43099 8.66129,5.44079 20.45135,11.14701 3.06927,2.63275 13.17139,7.2945 18.28548,10.87082 8.65503,3.97166 20.52716,13.3398 8.92589,22.25806 -12.60478,19.27391 -35.76091,33.98216 -48.85227,55.29765 -7.19086,6.32122 -17.52807,17.82346 -25.59324,27.57947 -8.02334,4.91761 -16.06222,24.1991 -28.15666,16.29189 -29.68658,-10.58661 -60.94417,-17.9173 -89.06541,-32.00147 4.41583,-10.02995 14.84277,-14.17586 15.61624,-23.94131 -24.43176,-4.29001 -33.36151,25.18547 -54.36495,16.94464 -17.4536,3.06918 -54.65479,22.40603 -17.78328,24.81457 15.20546,8.1723 -6.53414,23.83019 -13.37825,33.00029 2.4299,3.88554 -12.6831,11.6229 -10.53106,16.20388 -15.302,12.30612 -17.30277,21.78348 -30.55095,35.77062 -7.69019,9.70057 -15.2391,18.1884 -25.47468,29.38288 -10.14843,10.04408 16.22417,3.14382 22.93447,5.36611 28.80951,0.40278 -24.79262,0.44106 -36.05508,0.44569 -34.50658,-0.13495 -69.04885,0.37257 -103.53306,-0.36008 6.60898,-0.16509 13.22016,-0.22347 19.83037,-0.31311 z M 341.22223,464.86484 c -13.34684,-3.86508 -52.99111,-17.82476 -51.07071,-11.72877 17.07955,3.28874 33.91885,10.181 51.07071,11.72877 z m 218.11112,-2.19817 c 6.82103,-9.5364 -9.95013,9.69672 0,0 z M 399.46354,424.35242 c -6.72422,-0.094 -5.64199,6.95853 0,0 z m 76.7303,-17.98543 c 7.13196,-9.93111 44.29557,-52.48969 14.47941,-23.89848 -4.84874,10.24831 -40.23229,41.19205 -24.36176,35.41013 3.32606,-3.8097 6.61299,-7.65328 9.88235,-11.51165 z m -12.86049,10.96634 c 10.02727,-9.70248 -6.91099,9.49845 0,0 z m 5.33333,-6.66666 c 6.13099,-4.74159 0.0863,4.55439 0,0 z m 3.33333,-4.52897 c 7.57725,-8.64461 9.47316,-3.28969 0,0 z m 7.24669,-8.66417 c 6.6007,-7.02199 6.88094,-1.40571 -0.0563,0.78084 z m 17.41998,-20.1402 c 6.13101,-4.74157 0.0863,4.55441 0,0 z m 123.50341,19 c 4.46015,-6.3657 -8.11291,7.85611 0,0 z M 393.33335,274.14265 c -4.01796,-4.39871 -4.06384,1.81002 0,0 z M 387.42132,260 c 3.62772,6.84371 -3.73979,-6.48983 -5.0871,8.68958 l 1.60899,-3.02291 z m 15.72753,7.33333 c -6.35096,-7.16568 1.7052,7.11401 0,0 z m 2.85116,-14 c -7.06171,-4.87121 1.49476,4.59521 0,0 z M 74.666669,200 c 3.26933,-9.46372 -6.339372,9.56826 0,0 z M 280.66668,177.33333 c -7.06172,-4.87121 1.49473,4.5952 0,0 z m -27.33334,-16.52401 c -4.01794,-4.39871 -4.06383,1.81 0,0 z m -148.70277,-6.20106 c 4.67631,-12.17594 -4.31966,3.92242 0,0 z m 132.70277,-3.22801 c -6.01685,-5.65418 -5.4999,-0.59117 0,0 z m -70,-43.38025 c -7.0617,-4.87124 1.49473,4.59522 0,0 z m -20.69341,-8.698888 c -7.78484,-5.12622 4.7223,6.478928 0,0 z M 148,96.713578 c -6.01686,-5.654161 -5.49988,-0.591184 0,0 z m 45.69205,493.029102 c 10.96299,-1.65365 -1.55032,2.28797 0,0 z m -11.35871,-1.29239 c 8.29706,-1.32267 0.1034,2.30697 0,0 z m -47.56141,-9.22807 c 0.85778,-5.13861 1.35245,6.06872 0,0 z M 385.33334,454.66667 c 10.40433,-4.78397 -4.11111,4.46684 0,0 z M 517.43861,331.22222 c 0.85779,-5.13861 1.35243,6.06872 0,0 z m 1.59122,-13.88889 c 0.68102,-11.69508 0.68102,11.69508 0,0 z m 1.30643,-16.66666 c 0.48046,-10.14572 1.26228,10.60609 0,0 z M 267.25485,163.25978 c -6.33377,-5.77668 9.73953,6.18726 0,0 z"
       id="path1" />
  </g>
  <metadata
     id="metadata1">
    <rdf:RDF>
      <cc:Work
         rdf:about="">
        <dc:title>ACRIMSAT Icon SVG</dc:title>
        <dc:source>https://upload.wikimedia.org/wikipedia/commons/5/59/ACRIMSat_spacecraft_model.png</dc:source>
      </cc:Work>
    </rdf:RDF>
  </metadata>
</svg>
