<?xml version="1.0" encoding="UTF-8" standalone="no"?>
<!-- Created with Inkscape (http://www.inkscape.org/) -->

<svg
   version="1.1"
   id="svg1"
   width="506.72165"
   height="533.4433"
   viewBox="0 0 506.72165 533.4433"
   xmlns="http://www.w3.org/2000/svg"
   xmlns:svg="http://www.w3.org/2000/svg"
   xmlns:rdf="http://www.w3.org/1999/02/22-rdf-syntax-ns#"
   xmlns:cc="http://creativecommons.org/ns#"
   xmlns:dc="http://purl.org/dc/elements/1.1/">
  <title
     id="title1">SMOS Icon SVG</title>
  <defs
     id="defs1" />
  <g
     id="g1">
    <path
       style="fill:currentColor"
       d="m 198.81118,532.62936 c -12.67026,-4.96355 -0.0901,-17.17742 2.99661,-26.24963 6.29666,-16.33777 16.94191,-33.56927 13.79187,-49.54296 5.99244,-7.61745 14.56476,-19.05145 19.45961,-28.20618 9.58195,-11.99162 14.11308,-33.9523 21.78161,-49.99777 10.36068,-18.34707 23.586,-39.62139 27.14476,-61.96662 -0.36374,-14.03514 -10.16358,-11.00717 -17.36841,-20.07634 -13.11323,-7.22842 -17.85639,-10.45157 -29.28736,-18.74971 -8.22809,0.26502 -12.78687,-27.33285 -25.63705,-13.51176 -7.61035,11.46293 -35.86608,27.53728 -21.88839,38.46425 10.02206,6.93523 39.84744,19.27528 20.49998,33.73223 -10.09195,14.92972 -23.02593,29.78087 -37.97546,9.89515 -6.4086,-4.97368 -30.62449,-23.03226 -20.33595,-4.74572 6.42815,10.62894 39.94285,18.53065 25.69567,31.90598 -8.96473,6.60656 -17.60559,28.53023 -28.35675,24.78318 -10.72041,-5.15623 -37.29107,-35.96442 -35.80455,-16.22712 13.35702,12.47606 46.15269,27.72776 17.95866,44.82871 -11.00132,23.35532 -26.40718,14.53416 -39.921854,-0.21639 -7.425873,-13.8316 -28.629995,-9.89946 -11.320106,2.28744 6.23103,9.08149 28.26425,18.03182 24.29455,28.3937 -12.815671,14.24516 -28.1096,42.53007 -46.9009,19.7381 C 49.38574,470.93553 31.437848,448.19698 16.104054,441.79285 4.5359857,430.82095 -4.1725466,415.10624 0.27212653,396.1771 c 0.088446,-9.01151 0.12227796,-25.08992 0.4176575,-7.32477 0.26491734,10.71677 0.52983467,21.43353 0.79475207,32.15029 9.5632989,-11.48126 20.1577969,-22.04989 30.3087729,-33.00443 12.282195,8.41546 25.753986,20.95176 35.43794,28.5721 8.703296,-12.90458 -17.580228,-15.05853 -22.733521,-28.56443 -12.139488,-12.3266 16.656473,-32.23265 25.60556,-40.13575 11.525484,8.72034 20.459681,12.96916 29.607773,23.2153 12.169649,9.53921 10.086479,-10.13378 -2.458234,-11.39451 -5.825643,-2.67035 -33.449497,-22.62781 -9.508117,-33.11541 10.873864,-20.67256 26.084,-17.89331 40.97506,-4.02029 5.87269,15.93802 27.81915,8.0608 8.35726,-1.35798 -19.46263,-9.19303 -32.45374,-23.4892 -10.13317,-37.74306 12.50715,-33.31327 39.1528,12.20791 52.60203,6.05211 13.69328,-5.39623 32.6039,-34.80877 31.48174,-40.10791 13.23094,5.61385 -12.98866,-19.78394 2.53033,-13.02746 -9.42352,-8.45294 -42.45084,-31.7804 -21.70791,-6.50908 22.92865,25.35121 -17.1094,-4.09542 -19.13555,-17.15203 -9.75731,-10.06139 -0.25538,-22.20985 7.32489,-31.60864 17.16286,-13.40991 -13.38956,-16.87525 -0.57238,-29.70743 11.45433,2.23817 7.06984,20.71947 16.73918,9.79818 -2.34326,-10.5499 15.5281,-1.8683 20.85872,-11.96183 13.45209,6.05334 15.8948,12.01289 10.10393,0.21323 -6.18708,-7.78712 -11.01029,-15.95951 -17.20719,-29.23522 -8.59139,-12.04374 -15.0713,-26.53371 -24.49851,-36.784818 0.78104,-8.881708 13.00665,-25.677982 22.18297,-35.178375 17.29887,-23.241775 35.57616,-15.047797 41.90037,11.068883 9.3911,19.058714 20.25844,35.845771 30.55883,53.76193 5.90698,0.72781 11.13833,-14.23818 17.64776,-14.688325 12.32968,6.146025 24.65381,12.306815 36.81333,18.785055 8.52422,-11.39809 -26.45312,-13.97347 -32.8707,-24.685135 8.35906,-9.465404 17.088,-18.943945 25.52508,-28.470685 11.4352,3.279778 42.17148,25.842438 38.26184,12.684301 -7.84196,-5.012437 -39.8657,-10.623237 -27.58715,-24.014819 9.35092,-4.744307 15.44239,-27.419901 28.00656,-17.503395 9.54995,8.515786 49.87156,17.282168 20.10323,4.054236 C 368.607,33.886031 354.6091,24.675277 375.43718,11.43431 c 7.24248,-19.6792124 26.17392,-6.7117345 26.38734,1.931061 8.96788,4.914341 -0.3426,-17.4945169 12.06316,-2.236409 7.53304,4.526306 45.18889,18.536049 17.36653,14.25167 6.06083,6.114617 25.06717,14.664929 17.447,2.020212 17.62958,2.443933 25.81773,14.490419 7.24924,25.681968 -8.89089,27.71891 -51.52913,-18.033534 -50.94155,0.43979 12.54717,9.638515 48.93302,13.5266 23.16625,31.561032 -7.81855,16.261356 -19.71193,14.115089 -32.62724,5.168601 -7.35417,-8.310504 -36.76454,-10.935243 -14.85508,0.310713 14.018,6.408868 38.63415,15.205142 16.45235,29.997462 -8.32261,16.7054 -20.8524,13.81574 -34.04097,3.76618 -6.99507,-6.1941 -32.11165,-13.96189 -15.16942,0.20306 15.64815,7.41888 41.10907,17.27739 17.19168,33.3919 -7.85713,18.80396 -21.80917,10.04091 -34.69651,1.86741 -11.72733,-14.01507 -25.43796,-3.8036 -29.81147,1.2832 -3.85692,3.85179 9.00254,17.21382 -6.56366,19.82324 -8.48284,29.07803 14.37013,-13.92768 20.21441,8.33155 6.59058,21.1239 30.35808,33.04748 50.62808,34.11938 15.83445,-8.24835 39.1461,-7.49626 49.26988,-14.73807 -10.777,-1.05462 -30.62275,7.43293 -12.49472,-4.32485 9.21025,-3.04077 8.4733,-10.06349 22.05983,-4.29063 -9.51906,-9.22228 17.16895,-13.96056 25.80661,-20.68428 7.58124,-7.92936 17.24017,0.0331 10.11539,-8.6675 7.02258,0.79438 11.45048,-2.19819 19.54941,-9.14424 12.96492,-2.29936 35.39564,-26.08436 26.91474,3.44155 -1.63249,24.88581 -24.92175,36.41865 -43.35986,46.68404 -14.58389,10.75016 -31.89488,15.01115 -43.60724,27.61302 -7.70577,5.83458 -23.58543,9.90967 -33.03247,16.44627 -18.81365,9.58716 -35.74623,21.17703 -46.25383,38.91815 -23.59113,14.64931 -20.659,36.06871 -34.16238,58.57406 -11.64158,10.7118 -7.90913,37.12718 -17.23603,42.50451 -15.75258,-0.57398 -3.77999,18.34709 -15.62784,29.81925 -10.14354,22.46912 -22.18699,43.35158 -29.83996,66.91358 -7.80763,12.15745 -14.56489,31.83914 -29.79898,39.13876 -3.98905,1.02314 -11.57626,2.22613 -14.38869,1.07941 z m -12.74932,-243.11 c -4.46613,-4.19691 -4.0824,-0.43882 0,0 z m 14.08111,-16.10569 c -7.30094,5.36419 -17.70734,20.55127 -3.35408,4.06331 z m 155.156,-47.26934 c -10.63728,-4.95558 5.37738,4.70363 0,0 z m 10.23298,-0.0569 c -5.47065,-4.25945 -2.30149,4.93153 0,0 z m 5.60207,0.0569 c -0.70649,-7.53927 -4.92732,4.67617 0,0 z m -98.84283,-16.08247 c 3.31061,-4.72506 -6.02195,5.8313 0,0 z m 143.37891,-9.64949 c -10.72979,-4.4708 5.79466,4.95539 0,0 z M 185.38476,157.1134 c -14.6061,-16.55416 0.21015,12.16142 0,0 z m 118.45029,-4.70103 c -2.71764,-3.6945 -0.89724,3.41363 0,0 z m -3.95876,26.90681 c 9.0558,-13.92515 5.58927,1.30037 0,0 z m -80.16495,-31.44289 c 2.8124,-4.00769 3.0699,5.12859 0,0 z m -36.61856,-11.29897 c 2.5286,-3.55047 2.5286,3.55047 0,0 z"
       id="path1" />
  </g>
  <metadata
     id="metadata1">
    <rdf:RDF>
      <cc:Work
         rdf:about="">
        <dc:title>SMOS Icon SVG</dc:title>
        <dc:source>https://eo.belspo.be/sites/default/files/styles/xlarge/public/satellites/161._smos.jpg?itok=R8nyZUE0</dc:source>
      </cc:Work>
    </rdf:RDF>
  </metadata>
</svg>
