<svg xmlns="http://www.w3.org/2000/svg" baseProfile="tiny" width="512" height="539" xmlns:v="https://vecta.io/nano"><style><![CDATA[.B{fill:#b9b8b8}.C{fill:#836d18}.D{fill:#99d4f6}]]></style><path d="M394.64 2.22q-.33 1.19-2.42-.27a1.6 1.59 38.6 0 0-2.09.23L368.04 26.4a.32.32 0 0 0 .11.51l15.9 7.02.7.1q.51.62 1.63 1.12 19.09 8.46 39.83 17.87.37.17.75 0 .44-.2-.18-1.15.67.17.82-.6c-.16 1.43-.12 2.33 1.38 2.92q6.75 2.61 12.88 6.52l-32.64-13.93q-.46.03-.43.48l-3.01 4.11a.57.57 0 0 0-.1.2q-.49 1.58 2.13 2.57l-1.34.06-28.8-13.09q.76-1.01-1.44-1.47a.03.03 0 0 1-.01-.06q.12-.07.24-.13l5.57 1.77a3.12 3-19.5 0 1 .75.34q7.86 4.73 16.73 8.15a1.78 1.78 0 0 0 2.05-.57l2.42-3.12q.7-.01 1.07-.31a.4.39-54.4 0 0-.11-.67L399.66 43l-7.8-3.53q-3.52-2.68-5.98-2l-18.45-9.33a1.4 1.4 0 0 1-.4-2.19L389.98.79a.91.9-56.2 0 1 1.05-.21l3.61 1.64zm13.38 44.36l-1.04-.94a.44.44 0 0 0-.63.04l-3.74 4.16a1.06.81-48 0 0-.11 1.33l.49.44a1.06.81-48 0 0 1.31-.25l3.75-4.16a.44.44 0 0 0-.03-.62z" class="C"/><path d="M394.64 2.22l10.25 5.24a.53.53 0 0 1-.22 1q-1.81.05-3.24 1.95a.89.89 0 0 0 .17 1.25q3.22 2.47 8.34 3.86a1.63 1.27 13.6 0 0 1.95-.88q.25-1.31-2.54-2.73a.37.37 0 0 1 .11-.69l2.39-.36q.56 1.52.47 2.95a.85.84-84 0 0 .71.88l1.21.2a.65.65 0 0 0 .67-.97l-.81-1.41a.63.63 0 0 1 .84-.87q6.1 3.23 12.53 4.92 8.21 3.61 16.49 7.47 2.13 1 2.73 1.69a.22.22 0 0 1-.19.36q-4.3-.4-9.54-1.77-1.53-.4-2.6.36a.57.56 44.7 0 0 .01.92c4.68 3.24 10.81 5.1 14.57 9.66a2.19 2.19 0 0 0 2.34.69l4.2-1.32a1.29 1.29 0 0 0 .76-1.81q-1.1-2.15-3.51-2.91a.36.36 0 0 1-.16-.59l1.64-1.8a.62.61-44.7 0 1 .91 0q1.02 1.11 1.91 1.5 7.32 3.25 12.91 6.08 1.8.91 2.83 1.87a1.26 1.25 40.8 0 1 .13 1.69q-9.96 12.88-21.94 24.7a1.41 1.41 0 0 1-1.5.31l-7.6-2.95q-6.13-3.91-12.88-6.52c-1.5-.59-1.54-1.49-1.38-2.92q-.3-.73-.2-1.27a.59.58 10.2 0 0-.48-.68l-.96-.16a.39.38 5.5 0 0-.44.36q-.1 1.34 1.26 2.35.62.95.18 1.15-.38.17-.75 0-20.74-9.41-39.83-17.87-1.12-.5-1.63-1.12l-.06-3.18a.82.81-81 0 0-.53-.74q-1.01-.37-1.86-.22a.59.59 0 0 0-.27 1.04q1.5 1.24 2.02 3l-15.9-7.02a.32.32 0 0 1-.11-.51l22.09-24.22a1.6 1.59 38.6 0 1 2.09-.23q2.09 1.46 2.42.27z" class="D"/><path d="M427.47 16.56q-6.43-1.69-12.53-4.92a.63.63 0 0 0-.84.87l.81 1.41a.65.65 0 0 1-.67.97l-1.21-.2a.85.84-84 0 1-.71-.88q.09-1.43-.47-2.95l-.39-3.72a.22.21 26.9 0 1 .4-.13l1.35 2.33a1.41 1.36-1 0 0 .6.56l13.66 6.66zm-42.72 17.47l-.7-.1q-.52-1.76-2.02-3a.59.59 0 0 1 .27-1.04q.85-.15 1.86.22a.82.81-81 0 1 .53.74l.06 3.18z" class="B"/><path d="M233.81 32.63q.95.93 2.17.6c2.08.13 3.09 2.92 4.22 5.03q7.23 13.55 14.06 27.29.08.52.27.55l8.28 16.35q.04.45.39.82l1.78 3.4q1.55 4.61 4.43 8.32a.03.03 0 0 1-.04.04q-.19-.13-.24-.01a.65.33-57.7 0 0-.05.51l1.57 2.8a.83.82-50.4 0 1 .06.67q-1.3 3.77 1.53 7.14a.81.81 0 0 1-.02 1.07l-2.2 2.41a.29.29 0 0 0 .35.45c2.22-1.21 4.71.89 6.74 2.55a1.04 1 17.2 0 1 .36.65l.34 2.45a.22.22 0 0 0 .22.18h.46a.37.36 0 0 0 .37-.36v-.98a.29.29 0 0 1 .5-.2q2.07 2.13 2.62 2.4 1.62.8 1.55-.77l.42.12a.62.61 28.1 0 0 .62-.18l14.79-16.21a.87.87 0 0 1 1.05-.19L338 118.94a.7.69-53.9 0 0 .81-.13l4.22-4.35q2.47-.53-1.05-1.25l-4.69-2.56q-.41-.79-1.31-.63l-7.76-3.77q-1.34-1.42-3.22-1.48a.94.93-14.8 0 1-.75-.43q-.84-1.3-2.22-1.31l-15.78-8.83a.96.95 35.9 0 1-.24-1.48l24.27-26.61a1.32 1.31-56.1 0 1 1.54-.31l17.06 8.12q1.17 1.39 1.96.62 1.38-.39 2.38 1.53a.94.91 88.5 0 0 .4.39l15.69 7.6a.79.79 0 0 0 .93-.18l3.89-4.24q.46-.12.77.11a.54.54 0 0 1 .16.69q-1.07 2.04-3.31 3.97a.63.63 0 0 0 .25 1.09l.48.13a1.4 1.4 0 0 0 1.41-.41l3.63-3.98a.24.23 19.7 0 1 .18-.08q.31-.02.44.38l-3.41 4.1a.71.69 67 0 0-.16.42q-.04 1.32 2.19 2.14-3.77-.6-5.02-1.31-3.12-1.78-3.97-2.3-2.1-1.28-4.03-2.15-5.67-2.55-13.64-6.54-9.49-4.75-17.5-8.53a2.51 2.5-61.4 0 0-3.2.95q-1.76 2.87-4.54 4.9a2.07 2.07 0 0 0-.45.45q-1.78 2.32-1.77 2.78a.44.44 0 0 1-.36.43l-.33.07a.35.34 15.7 0 0-.2.11l-11.59 12.7a.7.7 0 0 0 .35 1.15q3.51.87-.68.25a.28.28 0 0 0-.23.49l1.86 1.69a.29.29 0 0 1-.28.49q-1.03-.31-2.12-1.71a.76.75-42.8 0 0-1.16-.04l-.64.7a.69.69 0 0 0 .21 1.08l12.25 5.84a.78.69 75.1 0 1 .15.1q.8.65 1.85 1.21c4.27 2.29 12.99 6.07 19.15 9.66a5.44 5.21 69.5 0 0 .81.39q4.46 1.66 7.39 4.6l-1.12-.02-3.15-1.18a.03.02 58.3 0 0-.02-.01q-.9-.27-.84.56.04.46-.46 1.04-2.67 3.11-2.9 3.39a.72.72 0 0 0 .42 1.17l.39.08a1.57 1.55-64.4 0 0 1.48-.53l3.42-4.06a.47.46 38.4 0 1 .63-.07q.17.12.3.18-3.67 3.44-3.24 6.28-1.86.13-3.58-.94-2.48-1.54-5.62-3.1-22.73-11.31-34.18-17.45a.76.75 34.8 0 0-.91.16l-17.44 19.12a.62.61 52.5 0 0-.09.71l4.62 8.74q.86 4.51 4.1 6.68.17.2.7.5 12.44 6.87 25.06 13.38 13.29 6.86 26.06 14.95l-26.55-13.5q-11.05-5.7-21.9-11.83-.35-.2-.97.01l-1.18-1.8a.59.56 76.2 0 0-.37-.24q-.54-.1-.85.29a.69.69 0 0 0 .04.91q.69.71 2.36.84l-.49 1.52a1.13 1.11 41.4 0 0 .06.86l8.29 17.26a2.22 2.19-55.2 0 1 .2 1.16q-.15 1.39.49 2.54l.08 4.72a2.11 2.08 31.2 0 0 .23.91q1.03 1.99.6 4.31-.14 1.11.5 1.05.4.26.66.92-.02.86-.95 1.88-.18.2-.14.46.02.18.18.27a.52.48-56.1 0 1 .11.75l-1.91 2.53q-3.97-1.3-4.97 2.44-1.31 4.87-1.33 8.82-6.65.85-6.96 8.88a.03.03 0 0 1-.06.01q-.01-.01-.14-.11a.35.35 0 0 0-.53.14q-.34.76.54 2.29 1.04 1.8 3.58.65a.46.46 0 0 0 .01-.84q-.01 0-.3.02a.04.03-54.7 0 1-.01-.07q.97-.36 1.84-.96 3.16-2.18 2.69-4.98l.31.21a.68.67-54.3 0 0 .91-.16l.84-1.12q.69-.26.6-1.06 2.24-3.94 5.03-7.49 1.24-1.59 2.69-.98.19.42.47.65.31.26.76.15.91-.22 1.1-1.26 1.23-1.76 3.01-2.22a.67.66-21.8 0 1 .75.32l4.47 8.12q.02 1.55.8 1.46l2.37 4.54q.32 2.19 1.86 3.58l3.19 5.93a1.94 1.87-86.9 0 0 .57.66l1.12.82q.25 1.91 1.55 3.82a2.05 2.04 86.5 0 0 .71.63c2.91 1.6 5.2 4.18 8.37 5.17q3.66 1.15 8.74 1.65l8.93 5.19q-.86 1.29.84 2.62c1.36 1.07 3.55 2.85 5.62 2.11a.85.84 57.4 0 1 .88.2q1.09 1.11 1.98 1.35a2.43 2.12-78.2 0 1 1.5 2.66q-.42 2.63 0 5.19a.73.73 0 0 0 .59.59l3.41.56a.32.31-76.9 0 0 .36-.23q.25-.86-2.48-1.55a.89.88 19.9 0 1-.58-1.23q.9-1.98.81-4.85v-.01q.02.1.19.67a.24.24 0 0 0 .39.12l2.92-2.38a.63.54 15.8 0 1 .26-.12q1.94-.37 4.18-1.81a1.02 1.01-48.7 0 1 .97-.07l.92.43a.5.5 0 0 0 .7-.37q.2-1.16-.42-1.82-1.98-2.12-5.16-2.44l6.44-2.28q.94.09 1.26-.6 11.13-4.47 23.52-7.77a.37.36-77.5 0 1 .37.59l-1.4 1.68-2.2.78a.35.34 67.2 0 0-.19.47l.14.28a.3.3 0 0 0 .36.16l3.12-1.01q5.66-2.92 11.63-3.15.35.44.85.2c3.49 1.24 5.53-2.91 2.63-4.73a1.65 1.64 60.8 0 0-.87-.25l-2.78-.04h-2.17q-1.85-.22-3.42.53-.64.31-1.29.38-.69.08-1.33.27-2.63.78-5.64 1.35c-1.35.26-2.9 1.26-3.93.92a.32.32 0 0 1-.05-.58l3.85-2.03q.44.21.78 0 .34-.21-.15-.62 5.6-2.42 9.01-6.23l5.85 2.65a.54.54 0 0 0 .75-.38q.11-.54.78-.94a.83.82-61.9 0 1 .39-.12l3.57-.08a.54.54 0 0 0 .38-.91q-.6-.62-.8-1.32a1.55 1.53-86.2 0 0-.83-.96q-2.73-1.24-5.37-.87l4.93-2.22c.07 2.07 2.6 1.99 3.72 3.4a1.21 1.2 69 0 0 .97.44q.14 0 .31-.02a.42.42 0 0 1 .42.62q-.54.93.14 1.71a.66.65 49.8 0 0 .91.08q.6-.5.39-1.34l.01-.01q.02.07.08.46a.49.48-7.4 0 0 .51.39q1.99-.16 1.81-2.19a.47.47 0 0 1 .68-.46q1.04.51 1.47.19a.49.49 0 0 0 .02-.77q-1.43-1.19-2.46-1.15a.39.39 0 0 1-.35-.59q.42-.71.39-1.14a.75.74-89.6 0 0-.67-.69q-1.78-.18-2.9-1.42c11.14-5.36 22.24-10.53 32.66-17.37q2.53.62 5.18 2.45a1.23 1.21 18.7 0 1 .52 1.03l-.08 1.97a.39.39 0 0 0 .76.14c.33-.98.25-2.17 1.13-2.93q.72-.62 1.92.24a.27.27 0 0 0 .43-.26q-.26-1.73.63-2.93a.98.97 57.1 0 0 .17-.8q-.2-.86.13-1.95a.73.73 0 0 1 .81-.5l2.66.44a.91.9-55 0 0 .62-.11l3.8-2.19a.83.82-48.2 0 0-.08-1.47l-3.5-1.54q.01-.1.24-.18.47.16.88-.38 16.06-6.87 30.31-16.49 1.43 2.09 3.48 1.8a.68.65 1.1 0 0 .56-.52q.04-.18.05-.39l1.39.23 1.11.16v3.47q-2.41 3.91 0 4.69v3q-1.78 1.75-2.3 5.2-.75-1.33-1.47-.89-3.61 2.24-4.1 6.67a1.31 1.3-89.6 0 0 1.41 1.44q.72-.06 1.24-.97.55-.96 1.42-1.13-1.37 4.91-3.14 9.58-1.02 2.68-2.72 4.37-3.4 1.19-6.31 2.92-3.86 2.31-9.72 5.37a5.27 5.17-77.5 0 0-.83.54q-2.87 2.28-6.83 4.07-1.2.54-5.54 4.27a.53.51 68.9 0 0-.17.41q.01.32.39.41a.3.28 33.4 0 0 .25-.04q11.87-8.37 25.23-14.82l-33.95 21.47q-.68-1.42-1.91-1.57a.68.67-76.7 0 0-.72.45q-.25.73.22 1.68l-3.54 3.62a1.96 1.93-75.3 0 1-.82.49c-5.73 1.66-11.33 5.13-18.5 9.1q-1.84-.05-2.32 1.29-6.25 3.65-12.54 7.34-2.81 1.66-2.1 3.1l-1.55.25a.47.47 0 0 1-.55-.45q-.07-1.75 1.37-2.42a.31.29 77.4 0 0 .17-.29q-.01-.02-.09-.12a.31.31 0 0 1 .2-.5q1.32-.17 1.65-1.38.45-1.7-2.5-2.59c-1.8-.55-1.94.77-3.4 1.26a1.1 1.09 54.7 0 0-.32 1.9q.48.37.64.37a.41.41 0 0 1 .36.6q-.21.39-.51 3.07a1.29 1.23-61.4 0 1-2.23.71q-.19-.26-.27-.28a.44.43-79.9 0 0-.53.37q-.27 2.18 2.31 2.34a.26.26 0 0 1 .24.26v.26a.28.28 0 0 1-.31.28q-3.63-.34-4.77 2.83-1.52-.14-2.8.67a1.87 1.86-62.7 0 1-.87.28l-.91.07q-.55-.01-.76.51-2.15.75-3 1.21-15.22 8.15-29.65 17.63-1.26.83-3.4 2.57-1.82 1.47-3.47 2.43l-5.43-2.13a.74.74 0 0 0-.89.29q-.47.71-.01 1.52a.86.85 80.1 0 0 .6.43l3.58.69q-.14.01-.28.09-1.43-.34-1.27.37-2.51-.46-3.27.85-5.78 9.98-12.86 17.66-4.81-3.41-7.29 5.92-.35 1.29.9 1.51l-10.6 11.21q-.93.34-2.91 1.98-.85.7-3.19 1a.9.7 20.9 0 0-.29.09l-3.32 1.68a.23.23 0 0 0-.11.3l.14.28a.2.19 55 0 0 .31.06q1.8-1.79 3.73-.51l-3.54 1.96q-3.03-.66-5.72.57a1.22 1.19-50.5 0 1-.74.08l-7.41-1.6-3.66-.41a.51.51 0 0 1-.44-.61c.44-2-.88-3.65-1.75-5.46a.31.31 0 0 0-.59.13q-.01.4.34 1.01l-2.1-4.71a2.03 2.03 0 0 1-.15-.52l-.83-5.79a.48.48 0 0 0-.73-.35q-.21.13-.21.14a.27.27 0 0 1-.37.25q-.66-.26-.68-1.01-.01-.52.15-1.19.92-3.76-.52-6.01a2.45 2.42-2.7 0 0-.96-.86q-4.02-2.08-8.07 1.11-1.72 1.36-2.75 3.69a1.78 1.75 53.6 0 0-.13.92q.83 6.02-.64 11.88-1.43-1.12-1.38-.79.85-5.54.04-10.59a.65.64-4.1 0 0-.64-.55h-.25a.54.54 0 0 0-.49.78l.39.82a1.44 1.44 0 0 1 .12.9q-.63 3.21-.14 6a.67.66 14.3 0 1-1.07.63c-1.86-1.47-2.13-3.53-5.13-3.06l-4.79-3.19q-4.88-5.12-11.52-8.57a1.79 1.77 85.2 0 1-.56-.48q-.92-1.21-3.12-2.42-7.04-3.91-23.31-14.5-3.69-2.4-2.97-6.76a1.3 1.3 0 0 1 2.58.21v2.64a.99.98-73.8 0 0 .45.83q11.99 7.74 20.03 13 .6.4 1.14.26.84-.22 1.31.09a.37.36-77.6 0 0 .56-.36q-.07-.46-.58-.61a.77.76 8.8 0 1-.54-.73v-3.83a.25.24 0 0 1 .25-.24h.3a.01.01 0 0 1 .01.01l.69 3.6a1.2 1.11 19.9 0 0 .31.6q.96.99.4 2.74a1.12 1.11 38.3 0 0 .11.93c1.55 2.65 4.41 2.71 6.53 4.36q.59.46 15.67 10.25a.35.35 0 0 0 .54-.3l-.07-5.94a.7.69 76.9 0 1 .38-.62q.43-.1.86-.97a1.2 1.18-45.5 0 0 0-1.07q-1.06-2.11-.48-4.23a1.35 1.35 0 0 0-.26-1.24q-.95-1.14-2.38-2.12-1.38-.94-3.15-3.92-1.22-2.05-2.23-2.15-.49-.04-.52.52a.43.43 0 0 1-.74.26q-3.27-3.52-8.67-7.57-.99-.75-.76-1.85.1-.46.91-.17 2.44 1.24 4.01 4.07a.75.75 0 0 0 .19.24l2.71 2.28a.18.17 26.3 0 0 .28-.09l.07-.27a.97.97 0 0 1 1.48-.61l7.92 5.03a1.11 1.11 0 0 0 1.71-.94v-2.99a3.84 3.83 7.6 0 0-2.83-3.7l-3.61-.99a.92.91-4.8 0 1-.6-.5q-.8-1.76-3.1-1.3a.07.07 0 0 1-.05-.02l-.61-.55a.34.34 0 0 1 .14-.58q2.57-.7 4.06 1.05a1.34 1.29 77.1 0 0 .64.42l3.61 1.1a.79.75 75.8 0 1 .33.21l1.33 1.38a.62.62 0 0 0 1.06-.43v-5.9a2.4 2.39 15.6 0 0-1.16-2.05q-6.4-3.82-7.23-4.48-.5-.39-.51-.56a.35.34-83.6 0 1 .44-.36q3.49 1.04 6.16 3.32a.29.27 49.1 0 0 .31.03l.31-.18a.37.37 0 0 0 0-.64q-5.44-3.25-10.86-5.61-.6-.26-.58-.03.03.41.01.45a.56.56 0 0 1-.73.38q-1.86-.68-3.35-2.32 1.2-.6 2.76.01a.28.27-84.7 0 0 .37-.31l-.1-.32a.13.13 0 0 0-.06-.06l-4.17-2.16a.71.68 58.7 0 0-.34-.09l-2.56.02q-.87-.6-1.64-.32a.66.65 9.7 0 0-.27.19q-.8 1.04-.19 1.49c.97.71.61 2.41.22 3.31q-.53-.04-.9-.62a.75.47 31.7 0 1-.05-.1l-.51-1.93a.48.47 79 0 0-.5-.35q-.81.09-.8-.79.03-1.83-.01-2.85a1.1 1.07 15.8 0 0-.5-.87l-21.48-13.45a.28.28 0 0 0-.43.22l-.56 14.06a.98.96 16.7 0 0 .49.89q1.44.82 1.6 2.14a.15.14-63.3 0 1-.27.09q-.31-.54-1.86-1.39a.98.97-76.4 0 1-.51-.84q-.05-2.56-1.71-4.84a2.45 2.44-62.9 0 1-.46-1.43v-7.73a.65.64-86.5 0 0-.56-.64q-.65-.07-1.27-.76a.65.65 0 0 1-.08-.73q.64-1.17-.24-1.46a.89.87-54.9 0 0-.81.15l-3.25 2.61a.53.51-17.2 0 0-.2.36q-.08.94-.7 1.42-.49.39-1.02-.13-.32-.31-.81-1.12a.4.4 0 0 0-.51-.15l-.26.13a.53.53 0 0 0-.24.72q1.8 3.51 2.26 7.05a.77.77 0 0 1-1.49.38q-.99-2.56-2.74-4.64-1.61-2.86-4.32-4.87-5.96-4.41-12.1-8.23-1.44-2.58-2.74-3.48-9.94-6.85-13.16-9.21-.52-.38-.59-.63-.15-.5.34-.82a.43.42 39.7 0 0-.07-.75l-7.93-3.28a.6.6 0 0 1-.04-1.09q.02-.01.66.1a.29.28 12.6 0 0 .32-.2q.11-.35-.19-.47-2.59-.96-5.63-.77c-.61-1.82 1.82-2.58 1.41-4.93l.61-2.54q.29-.29.16-.78c1.71-4.52 6.51-9.95 7.78-12.03q3.67-6.03 8.04-11.58a1.01 1 56.1 0 0 .17-.89q-.96-3.4-3.93-5.19c2.36-.44 4.11-3.27 5.94-5.1q-.11.28-.22.57l.15.67 1.19 4.43a1.15 1.14-25.3 0 0 1.77.63l5.24-3.69a.74.74 0 0 0 .15-1.08c-2.14-2.6-4.31-4.68-.09-7.14a2.13 2.12-38.7 0 1 2.51.27l3.06 2.79a.62.62 0 0 0 .86-.03q3.2-3.23 7.16-4.96 1.75.13 1.56-.65.38.06.65-.12 2.97-.17 4.67-2.52 1.08.02 1.57.72-.2.29.32.62.42.28.76.02c3.77 1.77 7.81 3.76 10.17 7.38q2.81 1.11 4.64 2.97.85.87.76 1.59a.7.69 18.5 0 0 .35.69q.99.56 1.87 2.41a.65.64 62.8 0 1-.26.83q-.95.56-2.26 1.99-.68.75-1.47-.61a.63.62 62.3 0 1 .27-.88l1.54-.74a.56.55 62.8 0 0 .24-.77l-.92-1.58a1.28 1.18 2.4 0 0-.45-.45l-14.47-8.36a1.01.98-42.3 0 0-.93-.03l-.36.18a.53.53 0 0 1-.74-.62l.62-2.29a.5.5 0 0 0-.86-.46q-.29.33-.77 1.26a.97.96-35.3 0 0-.1.57q.16 1.41-1.02 1.78a.78.77-1.6 0 0-.51.53l-1.13 4.15a1.72 1.72 0 0 0 .76 1.91c1.47.89 2.62.91 3.88 2.3q1.5 1.65 4.35 2.05a.52.52 0 0 1 .34.83q-2.5 3.33-5.49 5.07a.61.59-21.2 0 0-.29.63q.08.49.36.58a.52.51-59.4 0 1 .21.84l-21 23.1a.45.45 0 0 1-.73-.08q-.31-.55-1.14-.55a.23.11-18.4 0 1-.07-.01l-8.66-5.39a1.07 1.06-52.8 0 0-1.35.19l-8.66 9.49a.77.76 43.1 0 0 .04 1.07q2.02 1.93 3.93 2.89.12.06.31.33.14.2.17.49a.37.37 0 0 0 .18.3l9.44 5.92a.6.59 40.7 0 0 .7-.05q1.6-1.32 2.15-2.57a.51.51 0 0 1 .74-.23l2.07 1.29a.71.7 37.2 0 1 .15 1.07l-1.93 2.12a.79.78 36.2 0 0 .19 1.21l5.34 3.08a.21.16 53.3 0 0 .1.03q1.76.04 5.11 2.96 1.28 1.11 6.51 3.74a.91.9 58.1 0 0 .47.11l6.03-.22a1.22 1.21-71.3 0 0 .9-.45l5.8-7.13a1.17.52-66 0 1 .1-.09l7.02-6.12a.82.82 0 0 0-.13-1.33c-2.58-1.45-4.9-1.57-6.8-4.12a.86.86 0 0 1 .06-1.09l11.56-12.68a.99.99 0 0 1 1.26-.17l6.87 4.3a.97.97 0 0 0 1.23-.16l5.47-6a.09.09 0 0 1 .14.01l3.73 6.46a.45.44-38.7 0 1-.06.52l-5.25 5.76a.48.47-54.4 0 0 .12.74q6.47 3.57 10.51 6.41.21.14.41-.25a.34.34 0 0 1 .6 0q.94 1.85 3.79 1.67a.54.53 83.2 0 0 .49-.63q-.22-1.22-1.94-2.17a1.45 1.42 3.9 0 1-.65-.73q-.45-1.08-1.89-2.11a.3.3 0 0 0-.45.38l.37.78a.29.29 0 0 1-.41.38q-1.27-.78-1.71-2.31a1.73 1.67-77.1 0 0-.49-.81l-1.9-1.73a.85.84-54.4 0 1-.17-1.04q.66-1.16.13-1.95a.17.17 0 0 1 .22-.24q.42.24.8 0a.42.41 49.4 0 1 .51.04l1.71 1.56a.46.46 0 0 0 .71-.57l-3.47-6a2.24 2.17-61.8 0 1-.29-1.02q-.07-1.73-1.13-2.25a.69.66-1.1 0 1-.28-.26l-16.61-28a.48.48 0 0 1 .18-.66l.93-.54a.46.46 0 0 0 .1-.72l-.8-.79a.66.66 0 0 0-.87-.06q-.4.31-.91.35a1.06.99 57.8 0 1-.69-.18q-.84-.57-1.85-.45a.67.67 0 0 1-.71-.44q-.6-1.68-1.63-2.97l-1.79-1.66q.11-.42.08-.78a.8.8 0 0 0-.57-.68q-.62-.18-1.18.22-1.41-1.24-3.1-2.04-.46-.22-.52-.5-.07-.31.1-.75.72.12 1.42-.15 1.14-.09 1.59-.85.11.47.66.68.08.03 1.18-1.3.82-.98-.11-1.72c-1.25-1-1.77-2.25-3-4.22a.4.39 47.2 0 0-.65-.03q-.9 1.16-1.95.8-.63-1.16 1.21-1.58a.52.51-18.1 0 0 .36-.7q-.82-1.99-1.99-3.13a1.56 1.54 7.7 0 1-.24-.31l-32.75-56.36a1.05.98 86.7 0 0-.4-.38l-6.12-3.15q3.83-5.44 8.79-10.23c1.41-1.37 1.94-2.83 1.05-4.44a2.63 2.36 52 0 1 .19-2.82q3.51-4.11 7.23-7.78.58-.21.97-1.01 1.01-.44.94-1.01 4.74-5.06 9.89-9.68 1.94-1.74 4.4-1.66c1.54 1.43 2.98-.26 3.81-1.67l4.37-4.33q1.39-.59 1.26-1.81.66-.92 2.85-.52zm-12.287 21.901a7.33 4.97-65.3 0 0-7.578 4.583 7.33 4.97-65.3 0 0 1.452 8.736 7.33 4.97-65.3 0 0 7.578-4.583 7.33 4.97-65.3 0 0-1.452-8.736zm7.452 14a7.19 4.84-64.5 0 0-7.464 4.406 7.19 4.84-64.5 0 0 1.273 8.573 7.19 4.84-64.5 0 0 7.464-4.406 7.19 4.84-64.5 0 0-1.273-8.573zm6.915 13.035a7.06 4.65-65.3 0 0-7.175 4.471 7.06 4.65-65.3 0 0 1.275 8.357 7.06 4.65-65.3 0 0 7.175-4.471 7.06 4.65-65.3 0 0-1.275-8.357zm6.983 12.769a6.92 4.54-62.8 0 0-7.201 4.08 6.92 4.54-62.8 0 0 .875 8.23 6.92 4.54-62.8 0 0 7.201-4.08 6.92 4.54-62.8 0 0-.875-8.23zm6.103 11.822a6.79 4.36-64 0 0-6.895 4.191 6.79 4.36-64 0 0 .942 8.014 6.79 4.36-64 0 0 6.895-4.191 6.79 4.36-64 0 0-.942-8.014zm6.473 12.148a6.65 4.28-63 0 0-6.833 3.982 6.65 4.28-63 0 0 .794 7.868 6.65 4.28-63 0 0 6.832-3.982 6.65 4.28-63 0 0-.794-7.868zm-19.919 1.145a.58.58 0 0 0-.86.53q.12 2.42 1.75 4.67a.34.34 0 0 0 .62-.2v-3.08a1.82 1.8-75.2 0 0-.9-1.57l-.61-.35zm26.635 11.192a6.57 4.12-61.4 0 0-6.762 3.796 6.57 4.12-61.4 0 0 .472 7.74 6.57 4.12-61.4 0 0 6.762-3.796 6.57 4.12-61.4 0 0-.472-7.741zm5.723 10.693a6.43 4.03-61.4 0 0-6.616 3.716 6.43 4.03-61.4 0 0 .46 7.575 6.43 4.03-61.4 0 0 6.616-3.716 6.43 4.03-61.4 0 0-.46-7.574zm-26.614.149a1.72.54-47.4 0 0-1.562.901 1.72.54-47.4 0 0-.767 1.632 1.72.54-47.4 0 0 1.562-.901 1.72.54-47.4 0 0 .767-1.632zM262.3 164.35q-.16-.73-1.56-3.41c-.91-1.75-1.41-4.32-3.11-5.51q-3.62-2.51-4.73-5.2a.72.71-81.6 0 0-.22-.3l-3.79-3.2a.89.88 50.1 0 0-1-.09l-.38.23a.51.51 0 0 0-.05.86q3.47 2.49 4.48 4.48 2.52 5 3.06 5.91a.74.74 0 0 0 1.34-.59l-.51-1.64a.37.36-24 0 1 .17-.43l.32-.19a.39.39 0 0 1 .53.14l5.21 9.03a.13.13 0 0 0 .24-.09zm11.241-12.242a6.35 3.86-62.1 0 0-6.383 3.806 6.35 3.86-62.1 0 0 .44 7.418 6.35 3.86-62.1 0 0 6.383-3.806 6.35 3.86-62.1 0 0-.44-7.418zM487.48 171.69q3.93-2.51 8.69-4.95 5.57-2.85 6.98-3.78 1.54-1.02 6.43-4.66a.26.26 0 0 0-.26-.45c-6.47 2.84-14.28 7.51-20.05 10.94q-4.08 2.42-11.75 9.04a2.52 2.4-5 0 0-.37.42l-1.5 2.18a.78.78 0 0 0 .75 1.21q.16-.02.61-.41 3.63-3.16 6.33-4.07a4.32 4.26-74.9 0 0 1.47-.86q3.15-2.85 8.98-5.59a3.57 3.42 12.5 0 0 .74-.45q2.21-1.73 5.26-3.2a.53.53 0 0 0 .17-.83l-.15-.16a.62.62 0 0 0-.78-.12l-11.17 6.63a.01 0 31.7 0 1-.01 0l-.5-.35a.41.4-31.6 0 1 .13-.54zm-.72 10.72q-3.69 2.4-3.92 6.97a1.01 1.01 0 0 0 1.46.96q3.37-1.68 4.12-6.55a1.4 1.39-76.5 0 0-.94-1.54q-.15-.05-.72.16 1.07-.08 1.6-.85a1.13 1.02-.5 0 1 .37-.34l2.72-1.58a.37.37 0 0 1 .47.57q-1.72 1.99-1.87 4.63a1.29 1.29 0 0 0 2.05 1.11q2.08-1.51 2.91-4.07a.09.09 0 0 1 .17 0l.16.48a.53.53 0 0 0 .82.27q1.15-.87.79-3.02a.2.03-46.6 0 1 .1-.14q.02-.02.04-.11a.11.07 62.9 0 1 .16.09q-.15 1.55 0 2.09a1.06 1.05-25.3 0 0 1.62.58q2.97-2.08 3.82-6.49a1.28 1.28 0 0 0-1.26-1.52q-.2 0-.88.38a.36.36 0 0 1-.52-.43q.1-.29.34-.46 2.17-1.54 4.54-3.91a2.62 2.62 0 0 0 .69-1.28q.31-1.42 1.42-2a.68.59-80 0 0 .21-.17l3.1-3.68a.2.19 40.8 0 0-.03-.27l-.54-.46a.09.09 0 0 0-.12 0l-6.95 6.4a.8.79-30.2 0 0-.23.84q.38 1.17-.81 2.11-6.31 4.98-11.27 7.68-2.36 1.28-4.87 1.99a.87.87 0 0 0 .05 1.69q.62.13 1.2-.13zm-208.46-10.8c1.84-2.3 2.8-4.31 2.23-7.24-.34-1.71-2.85-2.52-4.02-1.82-3.02 1.81-7.01 7.6-3.56 10.83a.27.26 52.4 0 1-.05.42q-.25.14-.24.21a1.44 1.44 0 0 0 1.79 1.13q2.4-.64 4.11-2.87a.15.14 50.1 0 0 .01-.15q-.03-.05-.11-.07a.27.27 0 0 1-.16-.44zm-22.24 5.62q-2.06-4.29-6.42-10.11-1.85-2.46-3.96-3.92a.27.27 0 0 0-.36.4c1.74 1.96 3.25 3.53 4.76 5.96q2.5 4.02 5.27 8.24a.36.35-31.2 0 0 .47.11h.02a.52.52 0 0 0 .22-.68zm29.25 1.65q.55-1.98.43-4.13c-.13-2.57-2.75-3.33-4.6-1.98-2.86 2.08-6.4 7.93-2.44 10.76a.32.31-70.3 0 1 .12.27q-.01.07 0 .13a.53.53 0 0 0 .49.52c2.26.17 4.81-2.78 5.9-4.48q.4-.63.1-1.09zm191.15-2.84l-3.24 1.02a.57.57 0 0 0 .15 1.12q2.01.08 3.41-1.68a.29.29 0 0 0-.32-.46zm-175.578 1.231a1.87.45-41.9 0 0-1.692.914 1.87.45-41.9 0 0-1.091 1.584 1.87.45-41.9 0 0 1.692-.914 1.87.45-41.9 0 0 1.091-1.584zm-11.158 5.154a6.06 3.57-60.5 0 0-6.091 3.516 6.06 3.57-60.5 0 0 .123 7.032 6.06 3.57-60.5 0 0 6.091-3.516 6.06 3.57-60.5 0 0-.123-7.032zm-24.894 1.743a5.27.58-130.6 0 0 2.989 4.379 5.27.58-130.6 0 0 3.87 3.624 5.27.58-130.6 0 0-2.989-4.379 5.27.58-130.6 0 0-3.87-3.624zm215.962 2.208a4.57 2.02-60.9 0 0-3.988 3.011 4.57 2.02-60.9 0 0-.458 4.976 4.57 2.02-60.9 0 0 3.988-3.011 4.57 2.02-60.9 0 0 .458-4.975zm-21.153 7.633c3.09-1.77 6.6-3.87 7.54-7.17a.18.18 0 0 0-.14-.22l-.33-.05a.28.26 15.4 0 0-.29.15c-1.7 3.78-5.07 4.55-7.3 6.46a.05.03 76.7 0 0-.01.03l.07.56a.31.31 0 0 0 .46.24zm13.76-3.572a4.67 2.05-61.2 0 0-4.046 3.105 4.67 2.05-61.2 0 0-.453 5.08 4.67 2.05-61.2 0 0 4.046-3.105 4.67 2.05-61.2 0 0 .453-5.08zm-206.1 4.29a3.87.64-135.7 0 0 2.323 3.161 3.87.64-135.7 0 0 3.217 2.245 3.87.64-135.7 0 0-2.323-3.161 3.87.64-135.7 0 0-3.217-2.245zm197.889.334a4.63 2.14-61.5 0 0-4.09 3.048 4.63 2.14-61.5 0 0-.329 5.09 4.63 2.14-61.5 0 0 4.09-3.048 4.63 2.14-61.5 0 0 .329-5.09zm-7.191 4.161a4.75 2.16-60.1 0 0-4.24 3.041 4.75 2.16-60.1 0 0-.495 5.195 4.75 2.16-60.1 0 0 4.24-3.041 4.75 2.16-60.1 0 0 .495-5.195zm-157.946 2.328a5.93 3.43-59.7 0 0-5.953 3.389 5.93 3.43-59.7 0 0-.03 6.85 5.93 3.43-59.7 0 0 5.953-3.389 5.93 3.43-59.7 0 0 .03-6.85zm-18.392 6.46q.37-.17.76-.62a.66.66 0 0 1 1.01.02q.68.85 1.44.79a.65.65 0 0 0 .48-1.01q-2.13-3.15-5.56-4.89a.55.55 0 0 0-.8.47l-.02.5a.82.81-88.3 0 0 .79.85l1.62.05a.89.89 0 0 1 .23 1.74q-.89.3-.69 1.69a.53.52 73.6 0 0 .74.41zm166.9 2.44q2.41-2.39 2.28-5.95a1.23 1.23 0 0 0-1.88-.99q-3.36 2.1-4.01 6.2c-.14.89.27 1.66 0 2.29a.88.85 6.9 0 0 .95 1.17q2.25-.32 2.97-1.81a.11.1-69.2 0 0-.06-.15q-.14-.05-.2-.09a.45.45 0 0 1-.05-.67zm-168.493-2.763a.8.8 0 0 0-.057-1.13l-.312-.282a.8.8 0 0 0-1.13.057l-6.235 6.9a.8.8 0 0 0 .057 1.13l.312.282a.8.8 0 0 0 1.13-.057l6.235-6.9zm-13.209-.257a2.14.63-145.9 0 0 1.419 1.721 2.14.63-145.9 0 0 2.125.678 2.14.63-145.9 0 0-1.419-1.721 2.14.63-145.9 0 0-2.125-.678zm175.508.78a4.69 2.24-59.7 0 0-4.3 2.919 4.69 2.24-59.7 0 0-.432 5.179 4.69 2.24-59.7 0 0 4.3-2.919 4.69 2.24-59.7 0 0 .432-5.179zM254.44 213.04l-4.6-2.75a1.46 1.45-53.3 0 0-1.81.27l-11.17 12.25a.55.55 0 0 0 .11.84l21.33 13.37a.81.79 57.2 0 0 .47.11q1.06-.06 1.6-1.28a.4.4 0 0 1 .77.11q.04.31-.19 1.02a.33.32 30.7 0 0 .09.33l.32.3a.35.35 0 0 0 .57-.16c1.24-4.08 3.61-6.56 6.48-8.87a2.09 2.08-13.1 0 0 .74-1.18q.29-1.25 1.24-2.34a1.88 1.87-53.5 0 0-.42-2.82q-5.21-3.26-10.33-5.76-5.47-2.66-4.96-2.78a.05.04-52.2 0 0-.01-.09q-.48.02-.2-.49a.07.06 26.7 0 0-.03-.08zm50.447-2.378a5.86 3.32-58.9 0 0-5.87 3.303 5.86 3.32-58.9 0 0-.184 6.733 5.86 3.32-58.9 0 0 5.87-3.303 5.86 3.32-58.9 0 0 .184-6.733zm153.933 4.018a.6.58 23.2 0 0 .55-.21l1.84-2.17a.21.21 0 0 0-.23-.34q-7.67 2.4-8.91 3.4-3.03 2.44-6.59 5.02a.61.61 0 0 0-.11.88l.04.04a.64.63 50.1 0 0 .89.09q5.16-4.25 10.94-6.4 1.04-.39 1.58-.31zm-24.158-2.214a4.79 2.29-59.9 0 0-4.383 2.996 4.79 2.29-59.9 0 0-.421 5.293 4.79 2.29-59.9 0 0 4.383-2.996 4.79 2.29-59.9 0 0 .421-5.293zM274.93 218.96q-.15.22 0 .54.06.11-.89.19-1.03.08-1.3.75a.21.21 0 0 1-.39.02q-.58-1.17-1.73-.64a.59.58 70.6 0 1-.82-.4q-.11-.48-1.44-1.83a.34.34 0 0 1 .16-.57q.03-.01.27-.01a.57.57 0 0 0 .58-.6c-.11-1.81-2.64-2-4.1-1.79a.48.47 70.9 0 0-.34.71q2.7 4.56 7.27 6.58a.64.62 85.2 0 1 .31.27l1.64 2.83a.66.66 0 0 1-.37.95q-1.3.42-1.44 1.23a1.83 1.8-20.5 0 1-.43.92q-5.3 6.12-7.77 8.78-.44.48-1.03.71a1.24 1.23-39.7 0 0-.21 2.19l5.65 3.54a1.78 1.77-30.7 0 0 1.07.27c2.16-.15 2.11 1.69 3.35 2.71q4.19 3.41 9.45 5.59a2.6 2.6 0 0 1 .8.53q1.08 1.03 1.47 1.02a.84.84 0 0 0 .78-1.09l-2.65-8.41a.21.21 0 0 1 .17-.27.08.07 78.3 0 1 .07.05l2.77 6.82a.77.71-55.2 0 1 .05.36q-.08.86.24 1.16a.77.77 0 0 0 1.04 0q1.86-1.74.75-3.54a.22.22 0 0 1 .11-.32h.01a.09.09 0 0 1 .11.05l1.48 2.97a.34.34 0 0 0 .48.14l.48-.27a.37.37 0 0 0 .13-.5l-5.3-9.18a.57.57 0 0 1 .06-.64q.52-.62.77-.32a.09.09 0 0 0 .14-.1l-1.53-2.65a.66.65 69.9 0 0-.68-.32q-.6.1-.94-.31a.96.96 0 0 0-1.09-.26q-.18.07-.19.07a.78.77-11.6 0 1-.85-.55q-.91-3.17-3.08-6.74-.87-1.44-2.86-10.6a.13.13 0 0 0-.23-.04zm60.56 6.21q.45-2.9-1.44-5.41-1.34-2.15-3.86-3.17a.39.39 0 0 0-.53.42q.16.97.99 1.86a1 .99 29.9 0 1 .25.91q-.18.81.32 1.66a1.3 1.3 0 0 1 .14 1.02l-.77 2.83a.66.66 0 0 0 .99.73q1.22-.79 2.52-.66a.89.89 0 0 1 .18 1.73q-2.27.73-3.64 2.47a.71.71 0 0 1-1.14-.03l-1.14-1.62a.24.24 0 0 0-.41.04l-1.58 3.43a.26.25 78.6 0 0 .42.28q.48-.53 1.29-2.57a.43.43 0 0 1 .7-.16l.38.34a.25.25 0 0 1 .07.29l-1 2.59a1.23 1.16-8.1 0 1-.43.54q-1.48 1.03-1.62 2.93a.24.24 0 0 0 .42.18l4.09-4.48a.13.12 26.2 0 1 .13-.04l.32.08a.1.1 0 0 1 .06.15l-2.29 3.98a.41.41 0 0 0 .58.55l4.49-3a1.8 1.8 0 0 0 .5-.5l.46-.66a.19.19 0 0 1 .28-.04q.2.17.32.48a.46.46 0 0 1-.1.48l-.48.51a.46.45 18.9 0 0 .38.77q.18-.02.72-.24.35-.15.6-.5 1.18-1.71 3.21-2.62a.65.65 0 0 0-.1-1.22q-.01-.01-.21-.01a.25.25 0 0 1-.22-.38q.07-.1.48-.25.2-.08.53.11 1.09.64 2.75.39a1.77 1.76-36.6 0 1 1.05.15q1.94.93 4.41 1.21a.06.06 0 0 0 .03-.11q-2.24-.7-3.4-1.03-1.57-.45-3.02-.46-1.78-.01-2.91-1.8a1.08.94 36.2 0 0-1.88.16q-.09.61-.82.6a.62.62 0 0 1-.59-.49l-.48-2.42zm90.841-8.087a4.79 2.35-61.7 0 0-4.34 3.103 4.79 2.35-61.7 0 0-.202 5.332 4.79 2.35-61.7 0 0 4.34-3.103 4.79 2.35-61.7 0 0 .202-5.332zm-116.699 2.457a5.8 3.24-58.6 0 0-5.787 3.262 5.8 3.24-58.6 0 0-.256 6.639 5.8 3.24-58.6 0 0 5.787-3.262 5.8 3.24-58.6 0 0 .256-6.639zm93.111.28a.56.56 0 0 0-.776-.157l-4.015 2.667a.56.56 0 0 0-.156.776l.022.033a.56.56 0 0 0 .776.157l4.015-2.667a.56.56 0 0 0 .156-.776l-.022-.033zm-88.763 8.14q-1.86-.45-2.17-.26-4.62 2.8-4.68 8.13a1.81 1.52-88.1 0 0 1.43 1.82c4.27.24 6.69-5.04 6.27-8.54a.37.37 0 0 1 .67-.25l5.85 8.31a.56.56 0 0 0 .98-.52q-.71-1.83-2.86-3.64a1.81 1.81 0 0 1-.45-.55l-6.03-10.96a.48.48 0 0 0-.89.29q.14 1.08.82 2.3.38.68 1.5 3.36a.38.38 0 0 1-.44.51zm-25.24 9.96c-3.34-7.19-4.98-10.93-9.67-15.66a.87.86-47.9 0 0-1.29.07l-.03.03a1 1 0 0 0-.03 1.14l4.01 5.98a1 .92 1.5 0 0 .32.31q.96.57 1.81 1.67a2.8 2.71 17.5 0 1 .44.81q1.4 4.11 4.02 6a.28.28 0 0 0 .42-.35zm128.81-12.13q-.69-.88-.47-2.88a.85.85 0 0 0-1.37-.76q-3.96 3.13-3.77 7.27a1.47 1.46 76.4 0 0 2.07 1.27q2.3-1.05 3.64-4.03a.86.84-52.1 0 0-.1-.87zm-91.84-1.87a.26.26 0 0 0-.52 0 .26.26 0 0 0 .52 0zM298.57 235q-.39.13-.51.14-.17.01-.1.27.03.08.15.23a.53.52 44.6 0 1 .01.66q-.15.18-.26.23a.21.21 0 0 1-.28-.12l-2.15-5.72a.7.65-57 0 1-.04-.23q.11-2.54-1.99-4.65a.25.25 0 0 0-.43.2l.57 7.24a2.95 2.75 34.3 0 0 .19.84l2.66 7.04a2.58 2.54-74.4 0 0 .31.56l3.97 5.3a.07.07 0 0 1 .03.03l3.09 2.55a.52.52 0 0 0 .82-.57q-1.72-4.89-6.6-11.31a.78.77 66 0 1 .47-1.23h.04a1.89 1.88-22.9 0 1 1.9.77q.56.81 1.12.9.79.13.82-.88.07-1.9-1.32-2.73a.06.05 32.3 0 1-.02-.07q.07-.16-.1-.53a.09.09 0 0 0-.15-.02l-.61.72a.5.5 0 0 1-.69.07q-.45-.37-1.2-.07a.27.26-83.3 0 1-.31-.4q.98-1.48 1.28-.94a1.2 1.2 0 0 1-.67 1.72zm96.6-8.57c-.59.23-1.71 1.27-2.56 1.83a.33.32-33.4 0 0-.1.45l.05.07a.31.3-28.4 0 0 .39.11q1.36-.66 2.69-1.28 1.39-.47 2.83-.91a.31.3-14.9 0 0 .21-.35l-.01-.08a.33.32-9.8 0 0-.38-.27c-1.01.18-2.54.19-3.12.43zm14.222.076a4.96 2.42-60.9 0 0-4.527 3.157 4.96 2.42-60.9 0 0-.298 5.511 4.96 2.42-60.9 0 0 4.527-3.157 4.96 2.42-60.9 0 0 .298-5.511zM232.57 228.76q.32.33-.27.61a.24.24 0 0 0-.05.4l5.08 4.28a1.16 1.15-18.7 0 0 .53.26q3.02.56 7.49 4.35 1.83 1.55 10.83 7.05a2.76 2.72 59.1 0 0 1.51.39q1.74-.06 3.34 1.48a.43.43 0 0 1-.2.73q-1.72.43-3.36-.56c-3.33-2.04-7.05-3.32-9.76-5.57q-5.62-4.64-11.7-7.66a3.14 3.14 0 0 1-.84-.6q-1.53-1.54-3.29-2.45a.39.38-56.2 0 0-.47.1l-.2.24a.56.55 39.4 0 0 .08.8q2.92 2.22 5.83 3.56a4.41 4.27-12.2 0 1 .82.51l4.36 3.42a1.13.94-11.7 0 0 .32.17q1.25.36 5.81 3.77.9.68 4.8 2.6a1.83 1.8-4.2 0 1 .66.56l1.11 1.58a.85.84 69.9 0 0 .76.36l5.45-.42a1.01 1-34.2 0 1 .44.08q1.02.45 1.45 1.99.05.19.34.28.51.17.73-.14a.32.31-46.8 0 0-.01-.37l-3.1-4.27a1.22 1.11 1.8 0 0-.33-.32q-11.82-7.73-23.25-14.58-.99-.59-2.23-1.48-2.32-1.65-2.48-1.64a.29.29 0 0 0-.2.49zm199.913 2.018a2.11.52-31.8 0 0-2.067.67 2.11.52-31.8 0 0-1.519 1.554 2.11.52-31.8 0 0 2.067-.67 2.11.52-31.8 0 0 1.519-1.554zm-79.677.845a5.41 2.86-59 0 0-5.238 3.164 5.41 2.86-59 0 0-.335 6.11 5.41 2.86-59 0 0 5.238-3.164 5.41 2.86-59 0 0 .335-6.11zm42.054 8.037q-.2.93.33 1.64.47.63 1.3.33 2.85-1.03 4.29-3.66a.12.12 0 0 0-.1-.18q-.06-.01-.21-.03a.26.26 0 0 1-.19-.41q1.76-2.62 1.3-4.93a1.51 1.51 0 0 0-2.36-.92q-4.53 3.23-3.97 8.14a.06.06 0 0 1-.07.06l-.3-.05a.03.02-58.3 0 0-.02.01zm-7.197-6.66a1.31.85-147.7 0 0 .653 1.418 1.31.85-147.7 0 0 1.561-.018 1.31.85-147.7 0 0-.653-1.418 1.31.85-147.7 0 0-1.562.018zm-69.573 9.06c.84-1.67 2.1-4.48-.02-6.01q-1.14-.82-2.19-.05-5.9 4.27-3.99 11.01a1.04 1.04 0 0 0 1.56.6q3.48-2.2 4.91-5.01.12-.25-.16-.31a.16.16 0 0 1-.11-.23zm74.103-5.627a5.01 2.45-59.5 0 0-4.654 3.073 5.01 2.45-59.5 0 0-.432 5.56 5.01 2.45-59.5 0 0 4.654-3.073 5.01 2.45-59.5 0 0 .432-5.56zm-88.762 3.138a2.16.63-120.6 0 0 .557 2.18 2.16.63-120.6 0 0 1.642 1.538 2.16.63-120.6 0 0-.557-2.18 2.16.63-120.6 0 0-1.642-1.538zm80.257 1.808a5.01 2.56-58.5 0 0-4.8 2.934 5.01 2.56-58.5 0 0-.435 5.609 5.01 2.56-58.5 0 0 4.801-2.934 5.01 2.56-58.5 0 0 .435-5.609zm28.202.502a.37.37 0 0 0-.31-.65q-2.91.53-8.25 3.16-.21.11-5.13 3.27a.71.71 0 0 0-.18 1.03l.03.04a.79.78 53.1 0 0 1.09.16q4.97-3.7 10.66-5.75 1.04-.37 2.09-1.26zm-37.014 4.337a5.08 2.56-59.4 0 0-4.789 3.07 5.08 2.56-59.4 0 0-.382 5.676 5.08 2.56-59.4 0 0 4.789-3.07 5.08 2.56-59.4 0 0 .382-5.676zm-51.658.419a5.46 3.12-59.9 0 0-5.437 3.159 5.46 3.12-59.9 0 0-.039 6.288 5.46 3.12-59.9 0 0 5.438-3.159 5.46 3.12-59.9 0 0 .039-6.288zm72.722 4.704a.32.32 0 0 0-.45-.07q-5.77 4.07-11.83 7.02-1.14.56-10.25 7.17a.5.5 0 0 0-.1.72l.02.02a.44.43-38.2 0 0 .62.07q6.66-5.31 14.33-8.98.85-.41 7.59-5.43a.37.36-36.7 0 0 .08-.51l-.01-.01zm-32.034 2.26a5.2 2.65-58 0 0-5.003 3.006 5.2 2.65-58 0 0-.508 5.814 5.2 2.65-58 0 0 5.003-3.006 5.2 2.65-58 0 0 .508-5.814zm-65.126 5.2q-1.87.66-2.51-.39a.65.6-2.2 0 0-.28-.24q-1.45-.62-2.53-1.71a.84.84 0 0 0-1.42.47l-.08.55q-.13-.1-.25-.08a.21.21 0 0 0-.12.35q.62.68.84 1.26a.49.49 0 0 1-.41.67q-1.19.12-1.39.1c-.83-.05-1.66-1.66-2.92-1.86a1.12 1.05-18.1 0 0-1 1.82q.18.16.56.08a.69.69 0 0 1 .77.92l-.11.25a.29.28 29.5 0 0 .11.37l7.3 4.38a.32.32 0 0 0 .48-.33q-.02-.08-.25-.33a.31.3-28.6 0 1 .15-.5q1.19-.29 2.04.39.85.69 1.88.07.63.55 1.56-.9a.77.77 0 0 0-.23-1.06q-1.94-1.24-1.63-3.86.6.85 1.11 1.01 1.16.39.47-.88c-.48-.9-1.48-1.37-2.01-2.34q-1.53-2.8-1.86-3.18a.25.25 0 0 0-.44.15c-.08 1.48 1.06 2.99 2.17 4.82zm28.928-4.24a5.43 2.91-57.5 0 0-5.372 3.016 5.43 2.91-57.5 0 0-.463 6.143 5.43 2.91-57.5 0 0 5.372-3.016 5.43 2.91-57.5 0 0 .463-6.143zm13.828 2.088a5.35 2.82-58.5 0 0-5.2 3.088 5.35 2.82-58.5 0 0-.391 6.035 5.35 2.82-58.5 0 0 5.2-3.088 5.35 2.82-58.5 0 0 .391-6.035zm13.439 1.877a5.29 2.73-59 0 0-5.065 3.128 5.29 2.73-59 0 0-.385 5.94 5.29 2.73-59 0 0 5.065-3.128 5.29 2.73-59 0 0 .385-5.94zm-23.412 3.739a5.36 2.83-58.6 0 0-5.208 3.101 5.36 2.83-58.6 0 0-.377 6.05 5.36 2.83-58.6 0 0 5.208-3.101 5.36 2.83-58.6 0 0 .377-6.05zm13.679 1.937a5.3 2.72-59.1 0 0-5.056 3.151 5.3 2.72-59.1 0 0-.388 5.945 5.3 2.72-59.1 0 0 5.056-3.151 5.3 2.72-59.1 0 0 .388-5.945zm-19.651 11.108a5.36 2.86-58.5 0 0-5.239 3.076 5.36 2.86-58.5 0 0-.362 6.065 5.36 2.86-58.5 0 0 5.239-3.076 5.36 2.86-58.5 0 0 .362-6.065zm13.868 1.719a5.22 2.74-58.1 0 0-5.085 2.984 5.22 2.74-58.1 0 0-.432 5.88 5.22 2.74-58.1 0 0 5.085-2.984 5.22 2.74-58.1 0 0 .432-5.88zm-9.682 5.61a5.35 2.8-57.1 0 0-5.257 2.971 5.35 2.8-57.1 0 0-.555 6.013 5.35 2.8-57.1 0 0 5.257-2.971 5.35 2.8-57.1 0 0 .555-6.013zm-24.514 4.394a5.48 2.96-55.9 0 0-5.523 2.878 5.48 2.96-55.9 0 0-.621 6.197 5.48 2.96-55.9 0 0 5.523-2.878 5.48 2.96-55.9 0 0 .621-6.197zm18.68 8.415a5.34 2.83-56.7 0 0-5.297 2.909 5.34 2.83-56.7 0 0-.567 6.017 5.34 2.83-56.7 0 0 5.297-2.909 5.34 2.83-56.7 0 0 .567-6.017zm-5.627 12.381a5.28 2.72-56.1 0 0-5.203 2.865 5.28 2.72-56.1 0 0-.687 5.9 5.28 2.72-56.1 0 0 5.202-2.865 5.28 2.72-56.1 0 0 .687-5.9z" class="C"/><path d="M235.98 33.23q-1.22.33-2.17-.6 1.24-.2 2.17.6zm-5.02-.08q.13 1.22-1.26 1.81l1.26-1.81z" class="B"/><path d="M375.19 38.87q.08.88-.67 1.21-6.12-3.62-12.8-5.83a.95.94-59.6 0 0-1.01.27l-6.57 7.25a.66.55-77.1 0 1-.13.1q-.92.56-1.27 1.63a1.42 1.41-7 0 1-.59.75q-1.68 1.06-2.26 2.58a.3.29-80.7 0 1-.26.19c-.21.01-.46.11-.61.26q-3 3.12-4.75 5.08a1.15 1.1 11.9 0 1-.55.34q-.56.14-.7.72-.17.67-.8 1.25-2.07 1.91-4.31 4.61a.36.36 0 0 0 .12.56q7.77 3.53 14.05 6.52 5 2.38 5.09 2.43 4.64 2.4 33.83 16.29c4.04 1.93 8.82 4.4 13.89 6.53q4.56 1.91 9.76 5.58L378.81 80.8l-3.58-1.5a1.68 1.66 77.3 0 1-.47-.3q-1.32-1.22-2.84-.97l-6.64-3.44q-.54-1-1.3-.57l-.64-.39q-.4-.92-1.48-.67l-5.64-3.14a.22.22 0 0 0-.32.25q.19.73-.16 1.04l-.75.11q.47-1.43-1.37-2.36-3.28-1.66-5.12-2.1l-10.87-5.75a1.36 1.36 0 0 1-.4-2.08q10.92-12.85 22.35-24.61 1.54-1.59 3.41-.8 6.16 2.59 12.2 5.35z" class="C"/><path d="M374.52 40.08q-.17 1.33 3.15 1.03l28.8 13.09q2.11 1.77 3.1.94 4.31 1.87 7.81 5.11a1.64 1.64 0 0 0 .86.4q1.35.18 2.89.71 11.12 3.8 21.7 9.47a1.17 1.17 0 0 1 .45 1.63q-.9 1.5-2.34 3.23-7.6 9.12-17.19 19.56-1.98 2.16-3.84 3.74a.83.82-52.9 0 1-.87.13l-4.39-1.93q-5.2-3.67-9.76-5.58c-5.07-2.13-9.85-4.6-13.89-6.53q-29.19-13.89-33.83-16.29-.09-.05-5.09-2.43-6.28-2.99-14.05-6.52a.36.36 0 0 1-.12-.56q2.24-2.7 4.31-4.61.63-.58.8-1.25.14-.58.7-.72a1.15 1.1 11.9 0 0 .55-.34q1.75-1.96 4.75-5.08c.15-.15.4-.25.61-.26a.3.29-80.7 0 0 .26-.19q.58-1.52 2.26-2.58a1.42 1.41-7 0 0 .59-.75q.35-1.07 1.27-1.63a.66.55-77.1 0 0 .13-.1l6.57-7.25a.95.94-59.6 0 1 1.01-.27q6.68 2.21 12.8 5.83z" class="D"/><g class="B"><path d="M391.86 39.47l-5.98-2q2.46-.68 5.98 2zm-15.4-.02q-.12.06-.24.13a.03.03 0 0 0 .01.06q2.2.46 1.44 1.47-3.32.3-3.15-1.03.75-.33.67-1.21.68.04 1.27.58zm-151.13-.16c-.83 1.41-2.27 3.1-3.81 1.67q2.04-.52 3.81-1.67zm178.65 6.73q.08-.66-.22-1.05a.39.38 82.8 0 0-.15-.12L399.66 43l5.28 2.04a.4.39-54.4 0 1 .11.67q-.37.3-1.07.31zm4.04.56a.44.44 0 0 1 .03.62l-3.75 4.16a1.06.81-48 0 1-1.31.25l-.49-.44a1.06.81-48 0 1 .11-1.33l3.74-4.16a.44.44 0 0 1 .63-.04l1.04.94zm1.2.2q-.29.24-.43.48-.03-.45.43-.48zm18.38 4.49q-.15.77-.82.6-1.36-1.01-1.26-2.35a.39.38 5.5 0 1 .44-.36l.96.16a.59.58 10.2 0 1 .48.68q-.1.54.2 1.27zM207.23 52.3q.07.57-.94 1.01.36-.61.94-1.01z"/><path d="M206.29 53.31q-.39.8-.97 1.01.33-.63.97-1.01z"/><ellipse cx="0" cy="0" transform="matrix(.417867 -.908508 .908508 .417867 218.46 61.19)" rx="7.33" ry="4.97"/><path d="M407.81 54.14l1.76 1q-.99.83-3.1-.94l1.34-.06zM254.53 66.1q-.19-.03-.27-.55l.27.55zm100.46 5.12l-6.49-4.46q1.84.44 5.12 2.1 1.84.93 1.37 2.36z"/></g><path d="M376.76 88.2l34.3 17.93a1.5 1.5 0 0 1 .5 2.23q-8.57 11.4-18.26 21.69-3.45 3.67-5.02 4.83a.91.9 36.9 0 1-.87.12q-2.34-.89-3.63-1.52-17.68-8.57-34.71-17.82-2.93-2.94-7.39-4.6a5.44 5.21 69.5 0 1-.81-.39c-6.16-3.59-14.88-7.37-19.15-9.66q-1.05-.56-1.85-1.21a.78.69 75.1 0 0-.15-.1l-12.25-5.84a.69.69 0 0 1-.21-1.08l.64-.7a.76.75-42.8 0 1 1.16.04q1.09 1.4 2.12 1.71a.29.29 0 0 0 .28-.49l-1.86-1.69a.28.28 0 0 1 .23-.49q4.19.62.68-.25a.7.7 0 0 1-.35-1.15l11.59-12.7a.35.34 15.7 0 1 .2-.11l.33-.07a.44.44 0 0 0 .36-.43q-.01-.46 1.77-2.78a2.07 2.07 0 0 1 .45-.45q2.78-2.03 4.54-4.9a2.51 2.5-61.4 0 1 3.2-.95q8.01 3.78 17.5 8.53 7.97 3.99 13.64 6.54 1.93.87 4.03 2.15.85.52 3.97 2.3 1.25.71 5.02 1.31z" class="D"/><g class="B"><ellipse cx="0" cy="0" transform="matrix(.430511 -.902585 .902585 .430511 225.88 75.02)" rx="7.19" ry="4.84"/><path d="M361.86 72.96l-6.12-1.85q.35-.31.16-1.04a.22.22 0 0 1 .32-.25l5.64 3.14z"/><path d="M363.34 73.63q-1.06-.02-1.48-.67 1.08-.25 1.48.67zm-12.5.91q-.79.77-1.96-.62.85-.07 1.96.62zm14.44.05q-.82-.09-1.3-.57.76-.43 1.3.57zm13.53 6.21q-.5.33-.67.74-.13-.4-.44-.38a.24.23 19.7 0 0-.18.08l-3.63 3.98a1.4 1.4 0 0 1-1.41.41l-.48-.13a.63.63 0 0 1-.25-1.09q2.24-1.93 3.31-3.97a.54.54 0 0 0-.16-.69q-.31-.23-.77-.11-.63-.8-2.21-1.61 1.52-.25 2.84.97a1.68 1.66 77.3 0 0 .47.3l3.58 1.5zm-150.82 64.4q.01.14.01.28l-7.26-5.65a.3.3 0 0 1 .31-.51l.87.4a.68.68 0 0 0 .88-.95q-14.66-26.15-29.28-49.25-2.55-4.04-5.58-4.78a.93.92-88.6 0 1-.69-.73q-.12-.7-1.61-2.67a.29.29 0 0 1 .32-.45l1.39.47a.9.88-48 0 0 .63-.04q1.2-.54.08-1.73l6.12 3.15a1.05.98 86.7 0 1 .4.38l32.75 56.36a1.56 1.54 7.7 0 0 .24.31q1.17 1.14 1.99 3.13a.52.51-18.1 0 1-.36.7q-1.84.42-1.21 1.58z"/><ellipse cx="0" cy="0" transform="matrix(.417867 -.908508 .908508 .417867 232.94 87.98)" rx="7.06" ry="4.65"/><path d="M263.2 83.27q-.35-.37-.39-.82.3.37.39.82zm17.01 28.51q.2 1.54 1.32 2.58a.21.2-74.1 0 0 .34-.19q-.04-.16-.12-.36l1.78 2.18q.07 1.57-1.55.77-.55-.27-2.62-2.4a.29.29 0 0 0-.5.2v.98a.37.36 0 0 1-.37.36h-.46a.22.22 0 0 1-.22-.18l-.34-2.45a1.04 1 17.2 0 0-.36-.65c-2.03-1.66-4.52-3.76-6.74-2.55a.29.29 0 0 1-.35-.45l2.2-2.41a.81.81 0 0 0 .02-1.07q-2.83-3.37-1.53-7.14a.83.82-50.4 0 0-.06-.67l-1.57-2.8a.65.33-57.7 0 1 .05-.51q.05-.12.24.01a.03.03 0 0 0 .04-.04q-2.88-3.71-4.43-8.32c1.6 2.59 3.37 6.65 5.74 8.46 2.79 2.14 4.08 4.11 5.32 7.46a1.29 1.25 37.6 0 1 .07.47l-.11 2.97a1.03 1.02-62.5 0 0 .21.68l4 5.07z"/><ellipse cx="0" cy="0" transform="matrix(.457098 -.889416 .889416 .457098 239.71 100.49)" rx="6.92" ry="4.54"/></g><path d="M343.98 122.49q13.04 6.87 25.55 13.49 6.54 3.46 10.97 6.51a1.16 1.16 0 0 1 .33 1.54q-.68 1.13-2.02 2.79-10.22 12.69-21.52 24.96a.73.73 0 0 1-.86.16l-13.73-6.7q-12.77-8.09-26.06-14.95-12.62-6.51-25.06-13.38-.53-.3-.7-.5l-4.1-6.68-4.62-8.74a.62.61 52.5 0 1 .09-.71l17.44-19.12a.76.75 34.8 0 1 .91-.16q11.45 6.14 34.18 17.45 3.14 1.56 5.62 3.1 1.72 1.07 3.58.94z" class="D"/><g class="B"><path d="M328.22 106.25l-3.7-.72a1.32 1.32 0 0 1-.76-.45l-1.73-2.05q1.38.01 2.22 1.31a.94.93-14.8 0 0 .75.43q1.88.06 3.22 1.48z"/><ellipse cx="0" cy="0" transform="matrix(.438371 -.898794 .898794 .438371 246 112.26)" rx="6.79" ry="4.36"/><path d="M337.29 110.65q-.8-.05-1.31-.63.9-.16 1.31.63z"/></g><path d="M281.75 113.81q.08.2.12.36a.21.2-74.1 0 1-.34.19q-1.12-1.04-1.32-2.58.95.69 1.54 2.03z" class="D"/><g class="B"><path d="M343.03 114.46q.21-.48-1.05-1.25 3.52.72 1.05 1.25zm4.92 1.18q-.82.14-.73.57-.13-.06-.3-.18a.47.46 38.4 0 0-.63.07l-3.42 4.06a1.57 1.55-64.4 0 1-1.48.53l-.39-.08a.72.72 0 0 1-.42-1.17q.23-.28 2.9-3.39.5-.58.46-1.04-.06-.83.84-.56a.03.02 58.3 0 1 .02.01l3.15 1.18z"/><ellipse cx="0" cy="0" transform="matrix(.45399 -.891007 .891007 .45399 252.43 124.23)" rx="6.65" ry="4.28"/><path d="M237.04 121.37v3.08a.34.34 0 0 1-.62.2q-1.63-2.25-1.75-4.67a.58.58 0 0 1 .86-.53l.61.35a1.82 1.8-75.2 0 1 .9 1.57zm53.84 15.04q-3.24-2.17-4.1-6.68l4.1 6.68z"/><ellipse cx="0" cy="0" transform="matrix(.478692 -.877983 .877983 .478692 259.02 136.41)" rx="6.57" ry="4.12"/><path d="M186.02 138.18q-.28-.02-.33-.1a.17.17 0 0 1 .24-.23q.15.11.19.15a.12.11-16.6 0 1-.1.18zm107.26 1.74q-1.67-.13-2.36-.84a.69.69 0 0 1-.04-.91q.31-.39.85-.29a.59.56 76.2 0 1 .37.24l1.18 1.8z"/><path d="M316.15 151.74q-2.51 1.56-2.67 4.59a1.66 1.54 6 0 1-1.9 1.42q-1.75-.27-3.01.12a1.96 1.94-79.4 0 0-.97.67q-1.66 2.15-2.07 5.2a.53.52 13.9 0 1-.7.42q-.05-.02-.7-.7-.61-.66-1.19-.78-.76-.15-1.11.58-.64-1.15-.49-2.54a2.22 2.19-55.2 0 0-.2-1.16l-8.29-17.26a1.13 1.11 41.4 0 1-.06-.86l.49-1.52q.62-.21.97-.01 10.85 6.13 21.9 11.83z"/><ellipse cx="0" cy="0" transform="matrix(.478692 -.877983 .877983 .478692 264.81 146.98)" rx="6.43" ry="4.03"/><ellipse cx="0" cy="0" transform="matrix(.676876 -.736097 .736097 .676876 240.11 142.75)" rx="1.72" ry=".54"/></g><path d="M231.86 150.99q-1.3-2.98-3.86-5.51 0-.14-.01-.28 1.05.36 1.95-.8a.4.39 47.2 0 1 .65.03c1.23 1.97 1.75 3.22 3 4.22q.93.74.11 1.72-1.1 1.33-1.18 1.3-.55-.21-.66-.68z" class="D"/><g class="B"><ellipse cx="0" cy="0" transform="matrix(-.736097 -.676876 .676876 -.736097 226.91 146.9)" rx=".81" ry=".51"/><path d="M262.06 164.44l-5.21-9.03a.39.39 0 0 0-.53-.14l-.32.19a.37.36-24 0 0-.17.43l.51 1.64a.74.74 0 0 1-1.34.59q-.54-.91-3.06-5.91-1.01-1.99-4.48-4.48a.51.51 0 0 1 .05-.86l.38-.23a.89.88 50.1 0 1 1 .09l3.79 3.2a.72.71-81.6 0 1 .22.3q1.11 2.69 4.73 5.2c1.7 1.19 2.2 3.76 3.11 5.51q1.4 2.68 1.56 3.41a.13.13 0 0 1-.24.09z"/><ellipse cx="0" cy="0" transform="matrix(-.70834 -.705872 .705872 -.70834 223.64 149.79)" rx="1.31" ry=".94"/><path d="M220.13 151.64q-1.7 2.35-4.67 2.52 1.52-.83 2.35-2.5a.66.65 18.5 0 1 .72-.35l1.6.33z"/></g><path d="M230.27 151.84q-.7.27-1.42.15.44-.21 1.42-.15z" class="D"/><g class="B"><ellipse cx="0" cy="0" transform="matrix(.46793 -.883766 .883766 .46793 270.57 157.72)" rx="6.35" ry="3.86"/><path d="M222.78 153q-.34.26-.76-.02-.52-.33-.32-.62.78.03 1.08.64zm289.22.88v.83l-1.11-.16.56-1.58a.18.18 0 0 1 .35.02l.2.89zm-320.53 8.59c-1.83 1.83-3.58 4.66-5.94 5.1q-3.42-1.32-6.79-1.43a.61.61 0 0 1-.47-.97l3.26-4.39a1.63 1.61-23.7 0 0 .31-.78q.12-.97-.38-1.98.27-2.47-2.18-2.87-.11-.68-.03-.9a1.79 1.68 33.1 0 1 2.9-.52q2.27 2.3 5.2 2.59a1.57 1.57 0 0 1 1.03.53q2.57 2.91 3.09 5.62zm318.03-8.15q-.01.21-.05.39a.68.65 1.1 0 1-.56.52q-2.05.29-3.48-1.8 2.72-.43 4.09.89zm-276.55 6.06q.92.02 1.28-.69a.79.78 17.2 0 1 .81-.42q.11.02.36.06a.47.47 0 0 0 .54-.55l-.11-.6q1.03 1.29 1.63 2.97a.67.67 0 0 0 .71.44q1.01-.12 1.85.45a1.06.99 57.8 0 0 .69.18q.51-.04.91-.35a.66.66 0 0 1 .87.06l.8.79a.46.46 0 0 1-.1.72l-.93.54a.48.48 0 0 0-.18.66l16.61 28a.69.66-1.1 0 0 .28.26q1.06.52 1.13 2.25a2.24 2.17-61.8 0 0 .29 1.02l3.47 6a.46.46 0 0 1-.71.57l-1.71-1.56a.42.41 49.4 0 0-.51-.04q-.38.24-.8 0a.17.17 0 0 0-.22.24q.53.79-.13 1.95a.85.84-54.4 0 0 .17 1.04l1.9 1.73a1.73 1.67-77.1 0 1 .49.81q.44 1.53 1.71 2.31a.29.29 0 0 0 .41-.38l-.37-.78a.3.3 0 0 1 .45-.38q1.44 1.03 1.89 2.11a1.45 1.42 3.9 0 0 .65.73q1.72.95 1.94 2.17a.54.53 83.2 0 1-.49.63q-2.85.18-3.79-1.67a.34.34 0 0 0-.6 0q-.2.39-.41.25-4.04-2.84-10.51-6.41a.48.47-54.4 0 1-.12-.74l5.25-5.76a.45.44-38.7 0 0 .06-.52l-3.73-6.46a.09.09 0 0 0-.14-.01l-5.47 6a.97.97 0 0 1-1.23.16l-6.87-4.3a.99.99 0 0 0-1.26.17l-11.56 12.68a.86.86 0 0 0-.06 1.09c1.9 2.55 4.22 2.67 6.8 4.12a.82.82 0 0 1 .13 1.33l-7.02 6.12a1.17.52-66 0 0-.1.09l-5.8 7.13a1.22 1.21-71.3 0 1-.9.45l-6.03.22a.91.9 58.1 0 1-.47-.11q-5.23-2.63-6.51-3.74-3.35-2.92-5.11-2.96a.21.16 53.3 0 1-.1-.03l-5.34-3.08a.79.78 36.2 0 1-.19-1.21l1.93-2.12a.71.7 37.2 0 0-.15-1.07l-2.07-1.29a.51.51 0 0 0-.74.23q-.55 1.25-2.15 2.57a.6.59 40.7 0 1-.7.05l-9.44-5.92a.37.37 0 0 1-.18-.3q-.03-.29-.17-.49-.19-.27-.31-.33-1.91-.96-3.93-2.89a.77.76 43.1 0 1-.04-1.07l8.66-9.49a1.07 1.06-52.8 0 1 1.35-.19l8.66 5.39a.23.11-18.4 0 0 .07.01q.83 0 1.14.55a.45.45 0 0 0 .73.08l21-23.1a.52.51-59.4 0 0-.21-.84q-.28-.09-.36-.58a.61.59-21.2 0 1 .29-.63q2.99-1.74 5.49-5.07a.52.52 0 0 0-.34-.83q-2.85-.4-4.35-2.05c-1.26-1.39-2.41-1.41-3.88-2.3a1.72 1.72 0 0 1-.76-1.91l1.13-4.15a.78.77-1.6 0 1 .51-.53q1.18-.37 1.02-1.78a.97.96-35.3 0 1 .1-.57q.48-.93.77-1.26a.5.5 0 0 1 .86.46l-.62 2.29a.53.53 0 0 0 .74.62l.36-.18a1.01.98-42.3 0 1 .93.03l14.47 8.36a1.28 1.18 2.4 0 1 .45.45l.92 1.58a.56.55 62.8 0 1-.24.77l-1.54.74a.63.62 62.3 0 0-.27.88q.79 1.36 1.47.61 1.31-1.43 2.26-1.99a.65.64 62.8 0 0 .26-.83q-.88-1.85-1.87-2.41a.7.69 18.5 0 1-.35-.69q.09-.72-.76-1.59-1.83-1.86-4.64-2.97zm-18.14-6.1q.19.78-1.56.65l1.56-.65z"/></g><path d="M181.46 158.02l-2.18-2.87q2.45.4 2.18 2.87zm52.58-1.5q-.93-.4-1.67-1.24.56-.4 1.18-.22a.8.8 0 0 1 .57.68q.03.36-.08.78z" class="D"/><path d="M487.48 171.69a.41.4-31.6 0 0-.13.54l.5.35a.01 0 31.7 0 0 .01 0l11.17-6.63a.62.62 0 0 1 .78.12l.15.16a.53.53 0 0 1-.17.83q-3.05 1.47-5.26 3.2a3.57 3.42 12.5 0 1-.74.45q-5.83 2.74-8.98 5.59a4.32 4.26-74.9 0 1-1.47.86q-2.7.91-6.33 4.07-.45.39-.61.41a.78.78 0 0 1-.75-1.21l1.5-2.18a2.52 2.4-5 0 1 .37-.42q7.67-6.62 11.75-9.04c5.77-3.43 13.58-8.1 20.05-10.94a.26.26 0 0 1 .26.45q-4.89 3.64-6.43 4.66-1.41.93-6.98 3.78-4.76 2.44-8.69 4.95zM512 158.18v4.69q-2.41-.78 0-4.69zm-25.24 24.23q-.58.26-1.2.13a.87.87 0 0 1-.05-1.69q2.51-.71 4.87-1.99 4.96-2.7 11.27-7.68 1.19-.94.81-2.11a.8.79-30.2 0 1 .23-.84l6.95-6.4a.09.09 0 0 1 .12 0l.54.46a.2.19 40.8 0 1 .03.27l-3.1 3.68a.68.59-80 0 1-.21.17q-1.11.58-1.42 2a2.62 2.62 0 0 1-.69 1.28q-2.37 2.37-4.54 3.91-.24.17-.34.46a.36.36 0 0 0 .52.43q.68-.38.88-.38a1.28 1.28 0 0 1 1.26 1.52q-.85 4.41-3.82 6.49a1.06 1.05-25.3 0 1-1.62-.58q-.15-.54 0-2.09a.11.07 62.9 0 0-.16-.09q-.02.09-.04.11a.2.03-46.6 0 0-.1.14q.36 2.15-.79 3.02a.53.53 0 0 1-.82-.27l-.16-.48a.09.09 0 0 0-.17 0q-.83 2.56-2.91 4.07a1.29 1.29 0 0 1-2.05-1.11q.15-2.64 1.87-4.63a.37.37 0 0 0-.47-.57l-2.72 1.58a1.13 1.02-.5 0 0-.37.34q-.53.77-1.6.85zm-208.3-10.36q.08.02.11.07a.15.14 50.1 0 1-.01.15q-1.71 2.23-4.11 2.87a1.44 1.44 0 0 1-1.79-1.13q-.01-.07.24-.21a.27.26 52.4 0 0 .05-.42c-3.45-3.23.54-9.02 3.56-10.83 1.17-.7 3.68.11 4.02 1.82.57 2.93-.39 4.94-2.23 7.24a.27.27 0 0 0 .16.44zm-87.06-8.34l-.15-.67q.16.3.15.67zm64.66 13.52a.52.52 0 0 1-.22.68h-.02a.36.35-31.2 0 1-.47-.11q-2.77-4.22-5.27-8.24c-1.51-2.43-3.02-4-4.76-5.96a.27.27 0 0 1 .36-.4q2.11 1.46 3.96 3.92 4.36 5.82 6.42 10.11zm219.04-7.31q-.41.54-.88.38.12-.63.88-.38zm34.6 1.15l-1.5 5.12q-.87.17-1.42 1.13-.52.91-1.24.97a1.31 1.3-89.6 0 1-1.41-1.44q.49-4.43 4.1-6.67.72-.44 1.47.89zm-35.72-.59l3.5 1.54a.83.82-48.2 0 1 .08 1.47l-3.8 2.19a.91.9-55 0 1-.62.11l-2.66-.44a.73.73 0 0 0-.81.5q-.33 1.09-.13 1.95a.98.97 57.1 0 1-.17.8q-.89 1.2-.63 2.93a.27.27 0 0 1-.43.26q-1.2-.86-1.92-.24c-.88.76-.8 1.95-1.13 2.93a.39.39 0 0 1-.76-.14l.08-1.97a1.23 1.21 18.7 0 0-.52-1.03q-2.65-1.83-5.18-2.45 2.27-2.57 4.69-5.56.77-.95 1.91-1.05.44.22.7-.06.11-.11.12-.48l3.99-.49a.96.87-59.3 0 0 .29-.09q1.55-.78 3.4-.68zm-1.9 1.39q-.25.09-.09.53.25.68.89.58.43-.06.44-.11a.94.93-5.6 0 0-1.24-1zm-7.832 5.09a.8.69-33.4 0 0-1.048-.136.8.69-33.4 0 0-.288 1.016.8.69-33.4 0 0 1.048.136.8.69-33.4 0 0 .288-1.016z" class="B"/><path d="M466.3 171.74q-.01.37-.12.48-.26.28-.7.06l.82-.54zm5.78.13a.94.93-5.6 0 1 1.24 1q-.01.05-.44.11-.64.1-.89-.58-.16-.44.09-.53z" class="D"/><path d="M285.31 178.88q.3.46-.1 1.09c-1.09 1.7-3.64 4.65-5.9 4.48a.53.53 0 0 1-.49-.52q-.01-.06 0-.13a.32.31-70.3 0 0-.12-.27c-3.96-2.83-.42-8.68 2.44-10.76 1.85-1.35 4.47-.59 4.6 1.98q.12 2.15-.43 4.13zm17.93-4.63q-.64.06-.5-1.05.41.45.5 1.05zm-2.05 6.81l1.91-2.53a.52.48-56.1 0 0-.11-.75q-.16-.09-.18-.27-.04-.26.14-.46.93-1.02.95-1.88l4.06-.18a.38.38 0 0 1 .38.49q-.82 2.77-2.73 4.89-1.62 1.81-4.42.69zm175.27-5.02a.29.29 0 0 1 .32.46q-1.4 1.76-3.41 1.68a.57.57 0 0 1-.15-1.12l3.24-1.02z" class="B"/><ellipse cx="0" cy="0" transform="matrix(.834848 -.550481 .550481 .834848 463.58 177.4)" rx=".8" ry=".69" class="D"/><g class="B"><ellipse cx="0" cy="0" transform="matrix(.744312 -.667833 .667833 .744312 299.49 178.52)" rx="1.87" ry=".45"/><ellipse cx="0" cy="0" transform="matrix(.492424 -.870356 .870356 .492424 286.74 187.7)" rx="6.06" ry="3.57"/><path d="M486.76 182.41q.57-.21.72-.16a1.4 1.39-76.5 0 1 .94 1.54q-.75 4.87-4.12 6.55a1.01 1.01 0 0 1-1.46-.96q.23-4.57 3.92-6.97z"/><ellipse cx="0" cy="0" transform="matrix(-.650774 -.759271 .759271 -.650774 268.26 188.17)" rx="5.27" ry=".58"/><path d="M308.26 186.29q-.19 1.04-1.1 1.26-.45.11-.76-.15-.28-.23-.47-.65 1.4.47 2.33-.46z"/><ellipse cx="0" cy="0" transform="matrix(.486335 -.873772 .873772 .486335 478.57 190.37)" rx="4.57" ry="2.02"/><path d="M459.64 194.01a.31.31 0 0 1-.46-.24l-.07-.56a.05.03 76.7 0 1 .01-.03c2.23-1.91 5.6-2.68 7.3-6.46a.28.26 15.4 0 1 .29-.15l.33.05a.18.18 0 0 1 .14.22c-.94 3.3-4.45 5.4-7.54 7.17z"/><ellipse cx="0" cy="0" transform="matrix(.481754 -.876307 .876307 .481754 471.15 194.53)" rx="4.67" ry="2.05"/><path d="M502.34 190.14l-3.53 3.13q-13.36 6.45-25.23 14.82a.3.28 33.4 0 1-.25.04q-.38-.09-.39-.41a.53.51 68.9 0 1 .17-.41q4.34-3.73 5.54-4.27 3.96-1.79 6.83-4.07a5.27 5.17-77.5 0 1 .83-.54q5.86-3.06 9.72-5.37 2.91-1.73 6.31-2.92zm-207.45 2.18q-.2 3.45.66 5.03.47 2.8-2.69 4.98-.87.6-1.84.96a.041.031-54.7 0 0 .01.07q.29-.02.3-.02a.46.46 0 0 1-.01.84q-2.54 1.15-3.58-.65-.88-1.53-.54-2.29a.35.35 0 0 1 .53-.14q.13.1.14.11a.03.03 0 0 0 .06-.01q.31-8.03 6.96-8.88zm22.4 1.65q-.78.09-.8-1.46.63.66.8 1.46z"/><ellipse cx="0" cy="0" transform="matrix(-.715693 -.698415 .698415 -.715693 270.07 197.43)" rx="3.87" ry=".64"/><ellipse cx="0" cy="0" transform="matrix(.477159 -.878817 .878817 .477159 462.98 199.13)" rx="4.63" ry="2.14"/><path d="M298.21 195.22q.09.8-.6 1.06.11-.62.6-1.06zm128.01 1.04q1.12 1.24 2.9 1.42a.75.74-89.6 0 1 .67.69q.03.43-.39 1.14a.39.39 0 0 0 .35.59q1.03-.04 2.46 1.15a.49.49 0 0 1-.02.77q-.43.32-1.47-.19a.47.47 0 0 0-.68.46q.18 2.03-1.81 2.19a.49.48-7.4 0 1-.51-.39q-.06-.39-.08-.46l-.01.01q.21.84-.39 1.34a.66.65 49.8 0 1-.91-.08q-.68-.78-.14-1.71a.42.42 0 0 0-.42-.62q-.17.02-.31.02a1.21 1.2 69 0 1-.97-.44c-1.12-1.41-3.65-1.33-3.72-3.4l5.45-2.49zm-252.75 1q.13.49-.16.78-.01-.44.16-.78zm148.05 4.83q-1.54-1.39-1.86-3.58 1.24 1.61 1.86 3.58z"/><ellipse cx="0" cy="0" transform="matrix(.498488 -.866897 .866897 .498488 455.63 203.34)" rx="4.75" ry="2.16"/><path d="M172.7 200.58c.41 2.35-2.02 3.11-1.41 4.93q-1.49-.91-1.71-1.8-.2-.83 1.41-1.37 1.47-.48 1.71-1.76zm238.42 3.32q.21-2.37 4.72-2.93 2.64-.37 5.37.87a1.55 1.53-86.2 0 1 .83.96q.2.7.8 1.32a.54.54 0 0 1-.38.91l-3.57.08a.83.82-61.9 0 0-.39.12q-.67.4-.78.94a.54.54 0 0 1-.75.38l-5.85-2.65z"/><ellipse cx="0" cy="0" transform="matrix(.504528 -.863396 .863396 .504528 297.06 206.67)" rx="5.93" ry="3.43"/><path d="M280.92 207.6q-.2-1.39.69-1.69a.89.89 0 0 0-.23-1.74l-1.62-.05a.82.81-88.3 0 1-.79-.85l.02-.5a.55.55 0 0 1 .8-.47q3.43 1.74 5.56 4.89a.65.65 0 0 1-.48 1.01q-.76.06-1.44-.79a.66.66 0 0 0-1.01-.02q-.39.45-.76.62a.53.52 73.6 0 1-.74-.41zm167.69 3.52q.06.04.2.09a.11.1-69.2 0 1 .06.15q-.72 1.49-2.97 1.81a.88.85 6.9 0 1-.95-1.17c.27-.63-.14-1.4 0-2.29q.65-4.1 4.01-6.2a1.23 1.23 0 0 1 1.88.99q.13 3.56-2.28 5.95a.45.45 0 0 0 .05.67zm-248.29 14.99l-15.01-9.32a.56.56 0 0 0-.86.43c-.14 1.95.36 4.07 1.73 5.72q2.98 3.62 8.84 12.38c2.04 3.03 4.62 5.6 7.28 8.42a.52.52 0 0 1-.08.79l-.02.02a.84.83 45.3 0 1-.98-.01q-6.91-5.18-11.99-11.52-.86-1.07-4.78-3.98a11.19 11.12-1.5 0 1-1.89-1.78c-3.57-4.21-6.07-7.06-6.85-12.2a2.42 2.31 26.4 0 0-.3-.83l-3.55-5.94a1.07.96 27.9 0 1-.14-.38l-.43-2.4q3.04-.19 5.63.77.3.12.19.47a.29.28 12.6 0 1-.32.2q-.64-.11-.66-.1a.6.6 0 0 0 .04 1.09l7.93 3.28a.43.42 39.7 0 1 .07.75q-.49.32-.34.82.07.25.59.63 3.22 2.36 13.16 9.21 1.3.9 2.74 3.48z"/><rect x="-1.01" y="-5.45" transform="matrix(.741976 .670427 -.670427 .741976 276.2 210.46)" width="2.02" height="10.9" rx=".8"/><ellipse cx="0" cy="0" transform="matrix(-.82806 -.560639 .560639 -.82806 268.63 208.63)" rx="2.14" ry=".63"/><ellipse cx="0" cy="0" transform="matrix(.504528 -.863396 .863396 .504528 440 212.26)" rx="4.69" ry="2.24"/><path d="M337.71 216.12q1.65 2.18 4.32 2.61 1.73.55 3.74 2.04-5.08-.5-8.74-1.65c-3.17-.99-5.46-3.57-8.37-5.17a2.05 2.04 86.5 0 1-.71-.63q-1.3-1.91-1.55-3.82l11.31 6.62zm-83.24-3q-.28.51.2.49a.051.041-52.2 0 1 .01.09q-.51.12 4.96 2.78 5.12 2.5 10.33 5.76a1.88 1.87-53.5 0 1 .42 2.82q-.95 1.09-1.24 2.34a2.09 2.08-13.1 0 1-.74 1.18c-2.87 2.31-5.24 4.79-6.48 8.87a.35.35 0 0 1-.57.16l-.32-.3a.33.32 30.7 0 1-.09-.33q.23-.71.19-1.02a.4.4 0 0 0-.77-.11q-.54 1.22-1.6 1.28a.81.79 57.2 0 1-.47-.11l-21.33-13.37a.55.55 0 0 1-.11-.84l11.17-12.25a1.46 1.45-53.3 0 1 1.81-.27l4.6 2.75a.07.06 26.7 0 1 .03.08zm160.99-3.21h-2.17 2.17zm-13.35.22q.49.41.15.62-.34.21-.78 0 .84-.46.63-.62z"/><ellipse cx="0" cy="0" transform="matrix(.516533 -.856267 .856267 .516533 301.86 215.68)" rx="5.86" ry="3.32"/><path d="M458.82 214.68q-.54-.08-1.58.31-5.78 2.15-10.94 6.4a.64.63 50.1 0 1-.89-.09l-.04-.04a.61.61 0 0 1 .11-.88q3.56-2.58 6.59-5.02 1.24-1 8.91-3.4a.21.21 0 0 1 .23.34l-1.84 2.17a.6.58 23.2 0 1-.55.21z"/><ellipse cx="0" cy="0" transform="matrix(.501511 -.865151 .865151 .501511 432.26 216.61)" rx="4.79" ry="2.29"/><path d="M464.86 214.74l-2.41.56q-.47-.95-.22-1.68a.68.67-76.7 0 1 .72-.45q1.23.15 1.91 1.57zM275.16 219q1.99 9.16 2.86 10.6 2.17 3.57 3.08 6.74a.78.77-11.6 0 0 .85.55q.01 0 .19-.07a.96.96 0 0 1 1.09.26q.34.41.94.31a.66.65 69.9 0 1 .68.32l1.53 2.65a.09.09 0 0 1-.14.1q-.25-.3-.77.32a.57.57 0 0 0-.06.64l5.3 9.18a.37.37 0 0 1-.13.5l-.48.27a.34.34 0 0 1-.48-.14l-1.48-2.97a.09.09 0 0 0-.11-.05h-.01a.22.22 0 0 0-.11.32q1.11 1.8-.75 3.54a.77.77 0 0 1-1.04 0q-.32-.3-.24-1.16a.77.71-55.2 0 0-.05-.36l-2.77-6.82a.08.07 78.3 0 0-.07-.05.21.21 0 0 0-.17.27l2.65 8.41a.84.84 0 0 1-.78 1.09q-.39.01-1.47-1.02a2.6 2.6 0 0 0-.8-.53q-5.26-2.18-9.45-5.59c-1.24-1.02-1.19-2.86-3.35-2.71a1.78 1.77-30.7 0 1-1.07-.27l-5.65-3.54a1.24 1.23-39.7 0 1 .21-2.19q.59-.23 1.03-.71 2.47-2.66 7.77-8.78a1.83 1.8-20.5 0 0 .43-.92q.14-.81 1.44-1.23a.66.66 0 0 0 .37-.95l-1.64-2.83a.64.62 85.2 0 0-.31-.27q-4.57-2.02-7.27-6.58a.48.47 70.9 0 1 .34-.71c1.46-.21 3.99-.02 4.1 1.79a.57.57 0 0 1-.58.6q-.24 0-.27.01a.34.34 0 0 0-.16.57q1.33 1.35 1.44 1.83a.59.58 70.6 0 0 .82.4q1.15-.53 1.73.64a.21.21 0 0 0 .39-.02q.27-.67 1.3-.75.95-.08.89-.19-.15-.32 0-.54a.13.13 0 0 1 .23.04zm141.32-4.07q-.5.24-.85-.2.43.19.85.2z"/></g><path d="M342.03 218.73q-2.67-.43-4.32-2.61l4.32 2.61z" class="C"/><g class="B"><path d="M334.05 219.76q-1.7 3.62 1.44 5.41l.48 2.42a.62.62 0 0 0 .59.49q.73.01.82-.6a1.08.94 36.2 0 1 1.88-.16q1.13 1.79 2.91 1.8 1.45.01 3.02.46 1.16.33 3.4 1.03a.06.06 0 0 1-.03.11q-2.47-.28-4.41-1.21a1.77 1.76-36.6 0 0-1.05-.15q-1.66.25-2.75-.39-.33-.19-.53-.11-.41.15-.48.25a.25.25 0 0 0 .22.38q.2 0 .21.01a.65.65 0 0 1 .1 1.22q-2.03.91-3.21 2.62-.25.35-.6.5-.54.22-.72.24a.46.45 18.9 0 1-.38-.77l.48-.51a.46.46 0 0 0 .1-.48q-.12-.31-.32-.48a.19.19 0 0 0-.28.04l-.46.66a1.8 1.8 0 0 1-.5.5l-4.49 3a.41.41 0 0 1-.58-.55l2.29-3.98a.1.1 0 0 0-.06-.15l-.32-.08a.13.12 26.2 0 0-.13.04l-4.09 4.48a.24.24 0 0 1-.42-.18q.14-1.9 1.62-2.93a1.23 1.16-8.1 0 0 .43-.54l1-2.59a.25.25 0 0 0-.07-.29l-.38-.34a.43.43 0 0 0-.7.16q-.81 2.04-1.29 2.57a.26.25 78.6 0 1-.42-.28l1.58-3.43a.24.24 0 0 1 .41-.04l1.14 1.62a.71.71 0 0 0 1.14.03q1.37-1.74 3.64-2.47a.89.89 0 0 0-.18-1.73q-1.3-.13-2.52.66a.66.66 0 0 1-.99-.73l.77-2.83a1.3 1.3 0 0 0-.14-1.02q-.5-.85-.32-1.66a1 .99 29.9 0 0-.25-.91q-.83-.89-.99-1.86a.39.39 0 0 1 .53-.42q2.52 1.02 3.86 3.17z"/><ellipse cx="0" cy="0" transform="matrix(.474088 -.880477 .880477 .474088 424.06 221.3)" rx="4.79" ry="2.35"/><path d="M402.77 217.2q.05.64 1.23.68l-3.12 1.01a.3.3 0 0 1-.36-.16l-.14-.28a.35.34 67.2 0 1 .19-.47l2.2-.78z"/><ellipse cx="0" cy="0" transform="matrix(.52101 -.853551 .853551 .52101 306.61 224.49)" rx="5.8" ry="3.24"/><rect x="-2.97" y="-.58" transform="matrix(.832921 -.553392 .553392 .832921 400.28 221.48)" width="5.94" height="1.16" rx=".56"/></g><path d="M334.05 219.76q1.89 2.51 1.44 5.41-3.14-1.79-1.44-5.41z" class="D"/><g class="B"><path d="M314.42 227.45q-1.12-2.68-1.5-3.36-.68-1.22-.82-2.3a.48.48 0 0 1 .89-.29l6.03 10.96a1.81 1.81 0 0 0 .45.55q2.15 1.81 2.86 3.64a.56.56 0 0 1-.98.52l-5.85-8.31a.37.37 0 0 0-.67.25c.42 3.5-2 8.78-6.27 8.54a1.81 1.52-88.1 0 1-1.43-1.82q.06-5.33 4.68-8.13.31-.19 2.17.26a.38.38 0 0 0 .44-.51zm-26.1 10.82q-2.62-1.89-4.02-6a2.8 2.71 17.5 0 0-.44-.81q-.85-1.1-1.81-1.67a1 .92 1.5 0 1-.32-.31l-4.01-5.98a1 1 0 0 1 .03-1.14l.03-.03a.87.86-47.9 0 1 1.29-.07c4.69 4.73 6.33 8.47 9.67 15.66a.28.28 0 0 1-.42.35zm129.33-11.61q-1.34 2.98-3.64 4.03a1.47 1.46 76.4 0 1-2.07-1.27q-.19-4.14 3.77-7.27a.85.85 0 0 1 1.37.76q-.22 2 .47 2.88a.86.84-52.1 0 1 .1.87zm-37.37-3.96q-.32.69-1.26.6.37-.46 1.26-.6z"/><circle cx="325.45" cy="223.92" r=".26"/><path d="M299.24 233.28q-.3-.54-1.28.94a.27.26-83.3 0 0 .31.4q.75-.3 1.2.07a.5.5 0 0 0 .69-.07l.61-.72a.09.09 0 0 1 .15.02q.17.37.1.53a.06.05 32.3 0 0 .02.07q1.39.83 1.32 2.73-.03 1.01-.82.88-.56-.09-1.12-.9a1.89 1.88-22.9 0 0-1.9-.77h-.04a.78.77 66 0 0-.47 1.23q4.88 6.42 6.6 11.31a.52.52 0 0 1-.82.57l-3.09-2.55a.07.07 0 0 0-.03-.03l-3.97-5.3a2.58 2.54-74.4 0 1-.31-.56l-2.66-7.04a2.95 2.75 34.3 0 1-.19-.84l-.57-7.24a.25.25 0 0 1 .43-.2q2.1 2.11 1.99 4.65a.7.65-57 0 0 .04.23l2.15 5.72a.21.21 0 0 0 .28.12q.11-.05.26-.23a.53.52 44.6 0 0-.01-.66q-.12-.15-.15-.23-.07-.26.1-.27.12-.01.51-.14a1.2 1.2 0 0 0 .67-1.72zm73.34-7.7q3.18.32 5.16 2.44.62.66.42 1.82a.5.5 0 0 1-.7.37l-.92-.43a1.02 1.01-48.7 0 0-.97.07q-2.24 1.44-4.18 1.81a.63.54 15.8 0 0-.26.12l-2.92 2.38a.24.24 0 0 1-.39-.12q-.17-.57-.19-.67v.01q.09 2.87-.81 4.85a.89.88 19.9 0 0 .58 1.23q2.73.69 2.48 1.55a.32.31-76.9 0 1-.36.23l-3.41-.56a.73.73 0 0 1-.59-.59q-.42-2.56 0-5.19a2.43 2.12-78.2 0 0-1.5-2.66q-.89-.24-1.98-1.35a.85.84 57.4 0 0-.88-.2c-2.07.74-4.26-1.04-5.62-2.11q-1.7-1.33-.84-2.62l2.51.84q.37.45.76.39.29-.05.32-.3.03-.2-.33-.26l1.27-.57a1.62 1.54 35.7 0 1 .8-.11q6.51.84 12.55-.37zm23.06 2.03q-1.33.62-2.69 1.28a.31.3-28.4 0 1-.39-.11l-.05-.07a.33.32-33.4 0 1 .1-.45c.85-.56 1.97-1.6 2.56-1.83.58-.24 2.11-.25 3.12-.43a.33.32-9.8 0 1 .38.27l.01.08a.31.3-14.9 0 1-.21.35q-1.44.44-2.83.91z"/><ellipse cx="0" cy="0" transform="matrix(.486335 -.873772 .873772 .486335 406.98 230.84)" rx="4.96" ry="2.42"/></g><path d="M357.96 226.63q.36.06.33.26-.03.25-.32.3-.39.06-.76-.39l.75-.17z" class="D"/><g class="B"><path d="M232.77 228.27q.16-.01 2.48 1.64 1.24.89 2.23 1.48 11.43 6.85 23.25 14.58a1.22 1.11 1.8 0 1 .33.32l3.1 4.27a.32.31-46.8 0 1 .01.37q-.22.31-.73.14-.29-.09-.34-.28-.43-1.54-1.45-1.99a1.01 1-34.2 0 0-.44-.08l-5.45.42a.85.84 69.9 0 1-.76-.36l-1.11-1.58a1.83 1.8-4.2 0 0-.66-.56q-3.9-1.92-4.8-2.6-4.56-3.41-5.81-3.77a1.13.94-11.7 0 1-.32-.17l-4.36-3.42a4.41 4.27-12.2 0 0-.82-.51q-2.91-1.34-5.83-3.56a.56.55 39.4 0 1-.08-.8l.2-.24a.39.38-56.2 0 1 .47-.1q1.76.91 3.29 2.45a3.14 3.14 0 0 0 .84.6q6.08 3.02 11.7 7.66c2.71 2.25 6.43 3.53 9.76 5.57q1.64.99 3.36.56a.43.43 0 0 0 .2-.73q-1.6-1.54-3.34-1.48a2.76 2.72 59.1 0 1-1.51-.39q-9-5.5-10.83-7.05-4.47-3.79-7.49-4.35a1.16 1.15-18.7 0 1-.53-.26l-5.08-4.28a.24.24 0 0 1 .05-.4q.59-.28.27-.61a.29.29 0 0 1 .2-.49zm206.82.24l-2.32 1.29q.48-1.34 2.32-1.29z"/><ellipse cx="0" cy="0" transform="matrix(.849893 -.526956 .526956 .849893 430.69 231.89)" rx="2.11" ry=".52"/><ellipse cx="0" cy="0" transform="matrix(.515038 -.857167 .857167 .515038 350.02 236.26)" rx="5.41" ry="2.86"/><path d="M394.88 239.65l.3.05a.06.06 0 0 0 .07-.06q-.56-4.91 3.97-8.14a1.51 1.51 0 0 1 2.36.92q.46 2.31-1.3 4.93a.26.26 0 0 0 .19.41q.15.02.21.03a.12.12 0 0 1 .1.18q-1.44 2.63-4.29 3.66-.83.3-1.3-.33-.53-.71-.33-1.64a.03.02-58.3 0 1 .02-.01zm-137.76 16.16l.3 3.27a.66.63 65.1 0 1-.16.48l-.36.39a.42.42 0 0 1-.73-.24q-.15-1.24-.23-1.48a.48.48 0 0 0-.93.12q-.14 2.6 1.62 2.91a.28.28 0 0 1 .19.41q-.77 1.34.05 4.46a1.06 1.04 8 0 0 .49.64l4.19 2.42q-.81-.29-.91.17-.23 1.1.76 1.85 5.4 4.05 8.67 7.57a.43.43 0 0 0 .74-.26q.03-.56.52-.52 1.01.1 2.23 2.15 1.77 2.98 3.15 3.92 1.43.98 2.38 2.12a1.35 1.35 0 0 1 .26 1.24q-.58 2.12.48 4.23a1.2 1.18-45.5 0 1 0 1.07q-.43.87-.86.97a.7.69 76.9 0 0-.38.62l.07 5.94a.35.35 0 0 1-.54.3q-15.08-9.79-15.67-10.25c-2.12-1.65-4.98-1.71-6.53-4.36a1.12 1.11 38.3 0 1-.11-.93q.56-1.75-.4-2.74a1.2 1.11 19.9 0 1-.31-.6l-.69-3.6a.01.01 0 0 0-.01-.01h-.3a.25.24 0 0 0-.25.24v3.83a.77.76 8.8 0 0 .54.73q.51.15.58.61a.37.36-77.6 0 1-.56.36q-.47-.31-1.31-.09-.54.14-1.14-.26-8.04-5.26-20.03-13a.99.98-73.8 0 1-.45-.83v-2.64a1.3 1.3 0 0 0-2.58-.21q-.72 4.36 2.97 6.76 16.27 10.59 23.31 14.5 2.2 1.21 3.12 2.42a1.79 1.77 85.2 0 0 .56.48q6.64 3.45 11.52 8.57l-41.5-26.89a1.26 1.25-72.1 0 1-.56-1.1q.27-5.03-1.19-8.55.33-.17.45-.35a1.3 1.03 32.6 0 0-.55-1.6q-2.71-1.69-4.23-3.09a1.93 1.84 72.9 0 0-.75-.42q-2.09-.63-2.64-1.55a.32.32 0 0 0-.56.02q-.22.4-1.02.86a.26.26 0 0 0 .07.48q.84.21 1.52 1.14a.48.44-17.4 0 0 .4.19q.08-.01.23-.02a1.16 1.11 62.8 0 1 .88.3q1.71 1.61 1.33 3.17l-3.97.1q-1.96-1-1.86.95-13.11 12.47-24.05 26.96c-1.69 2.23-1.99 5.7-5.31 7.18l.03-.68a.52.52 0 0 0-.91-.38l-2.83 3.1a1.17 1.16-47.6 0 1-1.65.08l-.42-.38a.81.81 0 0 1-.05-1.14q1.22-1.37 2.23-2.39c.3-.3.54-1.01.5-1.4a.41.41 0 0 0-.58-.33q-.28.14-.46.16-1.3-1.4-1.18-2.58a2.13 2.08 14.1 0 1 2.91-1.69q1.02.41 1.84.79a1.37 1.37 0 0 0 1.58-.33l26-28.97a1.05 1.04 52.4 0 0 .15-1.19c-.98-1.89-2.58-2.1-1.21-4.7a.88.88 0 0 0-.12-.98l-3.19-3.66a.19.19 0 0 1 0-.26l.17-.19a.01.01 0 0 1 .02 0q2.79 2.26 4.41 3.25 1.92 1.16 3.78 1.12a.81.8-29.5 0 0 .42-1.49l-.45-.28a1.06 1.06 0 0 1-.49-.98c.32-3.62-4.21-9.48-6.76-12.85a.61.61 0 0 1 .81-.88l4.11 2.59a.73.73 0 0 0 1.06-.32q.14-.34-.05-1.15 1.75 2.08 2.74 4.64a.77.77 0 0 0 1.49-.38q-.46-3.54-2.26-7.05a.53.53 0 0 1 .24-.72l.26-.13a.4.4 0 0 1 .51.15q.49.81.81 1.12.53.52 1.02.13.62-.48.7-1.42a.53.51-17.2 0 1 .2-.36l3.25-2.61a.89.87-54.9 0 1 .81-.15q.88.29.24 1.46a.65.65 0 0 0 .08.73q.62.69 1.27.76a.65.64-86.5 0 1 .56.64v7.73a2.45 2.44-62.9 0 0 .46 1.43q1.66 2.28 1.71 4.84a.98.97-76.4 0 0 .51.84q1.55.85 1.86 1.39a.15.14-63.3 0 0 .27-.09q-.16-1.32-1.6-2.14a.98.96 16.7 0 1-.49-.89l.56-14.06a.28.28 0 0 1 .43-.22l21.48 13.45a1.1 1.07 15.8 0 1 .5.87q.04 1.02.01 2.85-.01.88.8.79a.48.47 79 0 1 .5.35l.51 1.93a.75.47 31.7 0 0 .05.1q.37.58.9.62zm-32.71-13.12q.01.79.58 1.41 2.53 2.73 3.61 5.91a.17.17 0 0 0 .33-.03l.3-1.79a.87.87 0 0 0-.18-.68l-4.08-5.02a.32.32 0 0 0-.56.2zm6.67 20.91q.39-6.08-2.32-12.06a.86.86 0 0 0-1.01-.48l-.09.02a.46.46 0 0 0-.26.7c1.61 2.41 1.27 6.14 1.44 11.16a1.49 1.48-82.9 0 0 1.06 1.37l.11.04a.84.83-79.8 0 0 1.07-.75zm12.51-3.5q.1-.04 5.54 2.14a.39.39 0 0 0 .4-.66q-2.62-2.26-6.77-3.58a1.75 1.72-40.4 0 0-.86-.06q-.66.13-1.29.11c-1.25-.05-2.69-5.06-5.32-5.65a.43.42 84.5 0 0-.48.59q2.69 6.14 7.87 6.36a.23.23 0 0 1 .23.21q.03.22.05.27a.48.48 0 0 0 .63.27zm9.65 5.93q-3.25-.31-4.45-2.5a.43.41 87.4 0 0-.21-.2l-4.91-2.28a.39.38 24.8 0 0-.5.18l-.11.24a.89.89 0 0 0 .34 1.12l9.47 5.94a.86.86 0 0 0 1.28-.99l-.32-1.03a.7.7 0 0 0-.59-.48zm6.58 4.9a.35.35 0 0 0 .29-.63q-2.2-1.31-3.17-2.94a.47.46 20 0 0-.84.39q.79 2.23 1.03 3.27.26 1.09 1.35 1.27a.29.29 0 0 0 .27-.47q-.39-.48-.52-.85a.46.46 0 0 1 .7-.52q.5.36.89.48zm162.81-30.69l.27.59a.54.53 66.7 0 1-.28.72q-.13.05-.42.13a.76.75 3.5 0 0-.46.4l-1.59 3.42a1.4 1.36-85.7 0 1-.84.74q-3.07.93-6.77.47 1.14-3.17 4.77-2.83a.28.28 0 0 0 .31-.28v-.26a.26.26 0 0 0-.24-.26q-2.58-.16-2.31-2.34a.44.43-79.9 0 1 .53-.37q.08.02.27.28a1.29 1.23-61.4 0 0 2.23-.71q.3-2.68.51-3.07a.41.41 0 0 0-.36-.6q-.16 0-.64-.37a1.1 1.09 54.7 0 1 .32-1.9c1.46-.49 1.6-1.81 3.4-1.26q2.95.89 2.5 2.59-.33 1.21-1.65 1.38a.31.31 0 0 0-.2.5q.08.1.09.12a.31.29 77.4 0 1-.17.29q-1.44.67-1.37 2.42a.47.47 0 0 0 .55.45l1.55-.25z"/><ellipse cx="0" cy="0" transform="matrix(-.845262 -.534352 .534352 -.845262 388.77 233.7)" rx="1.31" ry=".85"/><path d="M318.2 242.29q.28.06.16.31-1.43 2.81-4.91 5.01a1.04 1.04 0 0 1-1.56-.6q-1.91-6.74 3.99-11.01 1.05-.77 2.19.05c2.12 1.53.86 4.34.02 6.01a.16.16 0 0 0 .11.23z"/><ellipse cx="0" cy="0" transform="matrix(.507538 -.861629 .861629 .507538 389.65 240.75)" rx="5.01" ry="2.45"/><ellipse cx="0" cy="0" transform="matrix(-.509041 -.860742 .860742 -.509041 304.53 241.43)" rx="2.16" ry=".63"/><ellipse cx="0" cy="0" transform="matrix(.522499 -.85264 .85264 .522499 381.07 245.65)" rx="5.01" ry="2.56"/><path d="M411.89 241.88q-1.05.89-2.09 1.26-5.69 2.05-10.66 5.75a.79.78 53.1 0 1-1.09-.16l-.03-.04a.71.71 0 0 1 .18-1.03q4.92-3.16 5.13-3.27 5.34-2.63 8.25-3.16a.37.37 0 0 1 .31.65z"/></g><path d="M224.97 242.49l4.08 5.02a.87.87 0 0 1 .18.68l-.3 1.79a.17.17 0 0 1-.33.03q-1.08-3.18-3.61-5.91-.57-.62-.58-1.41a.32.32 0 0 1 .56-.2z" class="C"/><g class="B"><ellipse cx="0" cy="0" transform="matrix(.509041 -.860742 .860742 .509041 372.29 250.59)" rx="5.08" ry="2.56"/><ellipse cx="0" cy="0" transform="matrix(.501511 -.865151 .865151 .501511 320.48 251.36)" rx="5.46" ry="3.12"/><path d="M407.96 247.73q-.27.41-.76.51.21-.52.76-.51z"/></g><path d="M259 251.14q.57 1.44 1.46 1.7 1.69.5 2.64 1.21 1.49 1.64 3.35 2.32a.56.56 0 0 0 .73-.38q.02-.04-.01-.45-.02-.23.58.03 5.42 2.36 10.86 5.61a.37.37 0 0 1 0 .64l-.31.18a.29.27 49.1 0 1-.31-.03q-2.67-2.28-6.16-3.32a.35.34-83.6 0 0-.44.36q.01.17.51.56.83.66 7.23 4.48a2.4 2.39 15.6 0 1 1.16 2.05v5.9a.62.62 0 0 1-1.06.43l-1.33-1.38a.79.75 75.8 0 0-.33-.21l-3.61-1.1a1.34 1.29 77.1 0 1-.64-.42q-1.49-1.75-4.06-1.05a.34.34 0 0 0-.14.58l.61.55a.07.07 0 0 0 .05.02q2.3-.46 3.1 1.3a.92.91-4.8 0 0 .6.5l3.61.99a3.84 3.83 7.6 0 1 2.83 3.7v2.99a1.11 1.11 0 0 1-1.71.94l-7.92-5.03a.97.97 0 0 0-1.48.61l-.07.27a.18.17 26.3 0 1-.28.09l-2.71-2.28a.75.75 0 0 1-.19-.24q-1.57-2.83-4.01-4.07l-4.19-2.42a1.06 1.04 8 0 1-.49-.64q-.82-3.12-.05-4.46a.28.28 0 0 0-.19-.41q-1.76-.31-1.62-2.91a.48.48 0 0 1 .93-.12q.08.24.23 1.48a.42.42 0 0 0 .73.24l.36-.39a.66.63 65.1 0 0 .16-.48l-.3-3.27c.39-.9.75-2.6-.22-3.31q-.61-.45.19-1.49a.66.65 9.7 0 1 .27-.19q.77-.28 1.64.32z" class="D"/><path d="M231.08 263.6a.84.83-79.8 0 1-1.07.75l-.11-.04a1.49 1.48-82.9 0 1-1.06-1.37c-.17-5.02.17-8.75-1.44-11.16a.46.46 0 0 1 .26-.7l.09-.02a.86.86 0 0 1 1.01.48q2.71 5.98 2.32 12.06z" class="C"/><path d="M263.1 254.05q-.95-.71-2.64-1.21-.89-.26-1.46-1.7l2.56-.02a.71.68 58.7 0 1 .34.09l4.17 2.16a.13.13 0 0 1 .06.06l.1.32a.28.27-84.7 0 1-.37.31q-1.56-.61-2.76-.01zm132.84-2.71l.01.01a.37.36-36.7 0 1-.08.51q-6.74 5.02-7.59 5.43-7.67 3.67-14.33 8.98a.44.43-38.2 0 1-.62-.07l-.02-.02a.5.5 0 0 1 .1-.72q9.11-6.61 10.25-7.17 6.06-2.95 11.83-7.02a.32.32 0 0 1 .45.07z" class="B"/><path d="M242.96 259.83q-.02-.05-.05-.27a.23.23 0 0 0-.23-.21q-5.18-.22-7.87-6.36a.43.42 84.5 0 1 .48-.59c2.63.59 4.07 5.6 5.32 5.65q.63.02 1.29-.11a1.75 1.72-40.4 0 1 .86.06q4.15 1.32 6.77 3.58a.39.39 0 0 1-.4.66q-5.44-2.18-5.54-2.14a.48.48 0 0 1-.63-.27z" class="C"/><g class="B"><ellipse cx="0" cy="0" transform="matrix(.529919 -.848048 .848048 .529919 361.15 258.01)" rx="5.2" ry="2.65"/><path d="M299.34 259.22q-.28.05-.56-.42c-1.11-1.83-2.25-3.34-2.17-4.82a.25.25 0 0 1 .44-.15q.33.38 1.86 3.18c.53.97 1.53 1.44 2.01 2.34q.69 1.27-.47.88-.51-.16-1.11-1.01z"/><ellipse cx="0" cy="0" transform="matrix(.5373 -.843391 .843391 .5373 324.79 259.14)" rx="5.43" ry="2.91"/></g><path d="M227.13 263l-2.82-.92q-1.06-.47-1.36.06l-.69-.01q.38-1.56-1.33-3.17a1.16 1.11 62.8 0 0-.88-.3q-.15.01-.23.02a.48.44-17.4 0 1-.4-.19q-.68-.93-1.52-1.14a.26.26 0 0 1-.07-.48q.8-.46 1.02-.86a.32.32 0 0 1 .56-.02q.55.92 2.64 1.55a1.93 1.84 72.9 0 1 .75.42q1.52 1.4 4.23 3.09a1.3 1.03 32.6 0 1 .55 1.6q-.12.18-.45.35z" class="C"/><path d="M298.78 258.8q.28.47.56.42-.31 2.62 1.63 3.86a.77.77 0 0 1 .23 1.06q-.93 1.45-1.56.9-1.42-1.34-1.07-2.59a.65.65 0 0 0-.27-.71l-6.34-4.26.08-.55a.84.84 0 0 1 1.42-.47q1.08 1.09 2.53 1.71a.65.6-2.2 0 1 .28.24q.64 1.05 2.51.39z" class="D"/><g class="B"><ellipse cx="0" cy="0" transform="matrix(.522499 -.85264 .85264 .522499 338.74 261.21)" rx="5.35" ry="2.82"/><path d="M291.96 257.48l6.34 4.26a.65.65 0 0 1 .27.71q-.35 1.25 1.07 2.59-1.03.62-1.88-.07-.85-.68-2.04-.39a.31.3-28.6 0 0-.15.5q.23.25.25.33a.32.32 0 0 1-.48.33l-7.3-4.38a.29.28 29.5 0 1-.11-.37l.11-.25a.69.69 0 0 0-.77-.92q-.38.08-.56-.08a1.12 1.05-18.1 0 1 1-1.82c1.26.2 2.09 1.81 2.92 1.86q.2.02 1.39-.1a.49.49 0 0 0 .41-.67q-.22-.58-.84-1.26a.21.21 0 0 1 .12-.35q.12-.02.25.08z"/><ellipse cx="0" cy="0" transform="matrix(.515038 -.857167 .857167 .515038 352.25 263.06)" rx="5.29" ry="2.73"/></g><path d="M253.83 266.51l.32 1.03a.86.86 0 0 1-1.28.99l-9.47-5.94a.89.89 0 0 1-.34-1.12l.11-.24a.39.38 24.8 0 1 .5-.18l4.91 2.28a.43.41 87.4 0 1 .21.2q1.2 2.19 4.45 2.5a.7.7 0 0 1 .59.48z" class="C"/><path d="M218.29 262.23q-.7.66-1.86.95-.1-1.95 1.86-.95z" class="D"/><g class="B"><path d="M224.31 262.08l-1.36.06q.3-.53 1.36-.06z"/><ellipse cx="0" cy="0" transform="matrix(.52101 -.853551 .853551 .52101 328.77 266.84)" rx="5.36" ry="2.83"/><ellipse cx="0" cy="0" transform="matrix(.513541 -.858065 .858065 .513541 342.52 268.75)" rx="5.3" ry="2.72"/></g><path d="M259.82 270.93q-.39-.12-.89-.48a.46.46 0 0 0-.7.52q.13.37.52.85a.29.29 0 0 1-.27.47q-1.09-.18-1.35-1.27-.24-1.04-1.03-3.27a.47.46 20 0 1 .84-.39q.97 1.63 3.17 2.94a.35.35 0 0 1-.29.63z" class="C"/><path d="M367.68 272.08q-1.3.68-2.15.8l-3.58-.69a.86.85 80.1 0 1-.6-.43q-.46-.81.01-1.52a.74.74 0 0 1 .89-.29l5.43 2.13z" class="B"/><path d="M159.45 283.32q.48.89 1.09.35l2.5.95q-.22 2.21 2.15 2.65l13.1 9.27 1.13.79a.39.38 61.8 0 0 .22.07q.5-.02.6-.67l2.69-2.77q.18-.02.46-.16a.41.41 0 0 1 .58.33c.04.39-.2 1.1-.5 1.4q-1.01 1.02-2.23 2.39a.81.81 0 0 0 .05 1.14l.42.38a1.17 1.16-47.6 0 0 1.65-.08l2.83-3.1a.52.52 0 0 1 .91.38l-.03.68c-1.35.66-3.42 2.21-2.51 4q-.63.95-1.85.12-10.14-7-20.3-14.07-17.73-12.34-19.46-13.43a.84.83-52.9 0 0-1.06.15l-26.81 29.39a1.22 1.22 0 0 0 .18 1.8q5.28 3.85 11.81 8.48a1.06 1.03 36.1 0 1 .25 1.48q-.18.23-.53.05l-13.5-10.56a.62.61-49.6 0 1-.07-.9l28.33-31.06a1.35 1.34 38 0 1 1.75-.21l16.15 10.76z" class="C"/><path d="M365.25 272.97q-.5.32-1.27.37-.16-.71 1.27-.37z" class="B"/><path d="M184.56 301.32l35.12 25.64a1.83 1.83 0 0 1 .52 2.37l-.57 1.02q-.48-.48-.85-.05-13.56 15.44-26.84 31.19l-3.67-2.49q-9.68-8.34-20.54-14.66l-13.57-10.09-19.64-14.93a1.32 1.28 12.4 0 1-.48-.72q-.42-1.6-2.49-.77a1 .99-36 0 1-1.02-.16l-.62-.52a.26.26 0 0 0-.43.23l.04.33-2.73-2.42q.35.18.53-.05a1.06 1.03 36.1 0 0-.25-1.48q-6.53-4.63-11.81-8.48a1.22 1.22 0 0 1-.18-1.8l26.81-29.39a.84.83-52.9 0 1 1.06-.15q1.73 1.09 19.46 13.43 10.16 7.07 20.3 14.07 1.22.83 1.85-.12zm4.79 48.495a.41.41 0 0 0-.094-.572l-6.351-4.563a.41.41 0 0 0-.572.094l-.023.032a.41.41 0 0 0 .094.572l6.351 4.563a.41.41 0 0 0 .572-.094l.023-.032z" class="D"/><g class="B"><ellipse cx="0" cy="0" transform="matrix(.522499 -.85264 .85264 .522499 322.79 279.88)" rx="5.36" ry="2.86"/><ellipse cx="0" cy="0" transform="matrix(.528438 -.848972 .848972 .528438 336.7 281.46)" rx="5.22" ry="2.74"/><ellipse cx="0" cy="0" transform="matrix(.543174 -.83962 .83962 .543174 326.87 287.13)" rx="5.35" ry="2.8"/><path d="M160.54 283.67q-.61.54-1.09-.35.58.03 1.09.35zm4.65 3.6q-2.37-.44-2.15-2.65l2.15 2.65z"/><ellipse cx="0" cy="0" transform="matrix(.560639 -.82806 .82806 .560639 302.19 291.57)" rx="5.48" ry="2.96"/><path d="M301.71 311.04q.51.89.71 2.08a.85.82-79.6 0 0 .4.6q.4.24.71.79a.32.32 0 0 1-.35.47q-1.19-.24-1.82-.67a1.8 1.71 6.2 0 1-.61-.72q-.39-.84-.44-.88a.19.19 0 0 0-.3.21q.12.24.43.57a.24.23-15.9 0 1-.22.39q-.07-.01-.39-.26c-.43-.34-1.09-2.61-1.8-3.53a.47.47 0 0 0-.77.05q-.29.49-.46.5a.33.33 0 0 1-.33-.32l-.24-10.07a.46.46 0 0 0-.68-.39q-.76.44-.9 1.88-.35 3.59-1.02 8.48-.23 1.66.93 3.13a1.49 1.45-64.9 0 1 .32.92v.85a.57.57 0 0 0 .57.57h3.64a3.97 3.43-33.9 0 1 .91.11q3.83.87 7.81.58l7.41 1.6a1.22 1.19-50.5 0 0 .74-.08q2.69-1.23 5.72-.57c-.32.91-.17 1.63.42 2.46q1.79 2.53 1.07 5.81-2.09-.71-3.28-2.21a1.4 1.38-14.1 0 0-.86-.51l-.86-.14a.61.61 0 0 1-.5-.55q-.03-.38-.17-.5a.37.36 23.3 0 0-.58.23q-.03.15-.06.24a.72.72 0 0 1-.77.48q-1.97-.22-3.63.29l-4.55.4a.68.68 0 0 1-.74-.68v-1.42a.7.7 0 0 0-.7-.7h-6.24a1.08 1.08 0 0 0-.53 2.02l2.88 1.62a.31.31 0 0 1 .07.48q-.08.06-1.07-.03a.5.47 66.7 0 1-.3-.13q-1.47-1.33-3.29-2.32a1.54 1.46 11.6 0 0-2.26 1.41q.1.87-.53 1.23a.73.68-88.8 0 0-.28.29l-1.7 3.3a.28.28 0 0 0-.03.19q.06.34.48.38a.57.57 0 0 1 .53.61q-.07.77-.64 1.05a.3.28-3.6 0 0-.14.15l-4.92 10.63a.29.28-68.1 0 1-.34.15l-.26-.07a.08.08 0 0 1-.06-.11l2.41-5.2a.43.43 0 0 0-.59-.56q-1.32.7-3.06.63a1.3 1.29-80.4 0 0-1.29.92q-1.19 3.88-3.56 8.12-1.32 2.37-1.89 4.79c-1.25 5.26-3.49 9.12-6.91 15.38-1.04 1.91-1.96 5.33-2.8 6.87q-2.98 5.45-4.73 11.61-.04.17-.2.3-.16.13-.32.33a.43.42 37.3 0 0 .09.63q.95.65 1.09 2.85.04.61-.5.78-.66.21-.92-.06a.68.43 83 0 0-.48 1.03q1.41 2.07 1.13 4.22a.21.2 75 0 0 .32.19q.07-.05-.03-.3a.38.38 0 0 1 .3-.52q2.38-.38 4.38-.26.52.03.47.47a.34.34 0 0 0 .3.38q3.35.38 3.68 3.47a.78.77-4.2 0 0 .82.7q1.43-.08 1.83.16a.96.96 0 0 1 .46.93q-.5 5.01-5.41 7.2a1.49 1.49 0 0 1-2.09-1.35q-.02-2.34 1.48-5.42a.55.55 0 0 0-.54-.79l-3.73.31a.54.49 18.4 0 0-.29.13l-1 .86a.16.15-46.1 0 0 0 .23h.01a.15.14 38.4 0 0 .21-.02q.9-1.19 2.29-.35a.77.76 23.4 0 1 .34.85l-2 7.37a.41.41 0 0 1-.8-.11v-2.51a.55.55 0 0 0-.47-.54l-2.75-.46a1.1 1.1 0 0 0-1.24.8l-.68 2.5a.19.19 0 0 1-.26.13q-.53-.23-1.43 1.45-.36.67-1.36 1.57-1.85 1.67-2.73 3.64a1.44 1.43-6.6 0 1-.44.55l-1.38 1.06a1.36 1.3-10 0 0-.44.6q-.67 1.71-2.33 3.17a1.07 1.07 0 0 0-.36.8v1.01a.3.29-63.1 0 1-.53.18q-.32-.44-.34-.44a1.21 1.21 0 0 0-1.08.63l-3.83 6.87a1.77 1.74 49.6 0 0-.11 1.48q0 .03.01.07a1.44 1.43 54.4 0 1-.19 1.17q-2.49 3.77-4.09 8.25-.02.04-.04.08l-8.92 17.56a.17.16 25.7 0 1-.21.07l-.27-.13a.34.34 0 0 1-.18-.43q3.09-8.78 7.03-17.32.71-1.52 2.53-3.28 1.18-1.16 1.44-4.28a1.44 1.41 71.6 0 1 .45-.92q1.86-1.69 1.84-2.97a.35.35 0 0 0-.61-.23q-1.88 2.06-2.67 4.15a1.51 1.51 0 0 1-.28.45q-2.43 2.82-3.65 5.82c-1.47 3.62-2.92 6.02-4.28 9.9a5.39 5.23 70.7 0 1-.5 1.08q-1.93 3.23-3.23 6.79a.33.33 0 0 1-.4.21q-.34-.08-.4-.01a.18.18 0 0 0 .18.29q.31-.08 1.67.83 3.22 2.14 4.65 5.57a.57.55 59.5 0 1-.16.65q-.28.23.25.37a.25.24-46.5 0 1 .01.47q-.77.25-1.99-.42a.34.34 0 0 0-.49.38q.22.9-.42 1.69a.83.82 29.6 0 1-.93.25q-.37-.15-.74.77a.18.18 0 0 0 .22.23q.28-.08.38.14a.75.64 70.5 0 1-.38 1q-2.33.54-2.6.47-.48-.12-.91-.23a.17.17 0 0 0-.16.28q.33.33.33.37.14.87-.72 1.24a.42.42 0 0 0 .06.8q1.18.31 1.69 1.87a1.03 1.02-31.8 0 1-.25 1.05l-.51.51a.83.79-17.3 0 0-.22.4q-.66 3.07-2.38 5.11a.14.14 0 0 0 .11.23q.15-.01.22.03a.51.5-73 0 1 .29.55q-.35 1.78-2.29 1.87a1 .99-71 0 0-.71.35q-1.16 1.33-2.8 1.44a1.21 1.18 10.7 0 0-.99.66q-8.45 17.06-9.57 20.37-2.33 6.83-5.73 13.97-2.14 4.49-3.77 10.76a.76.76 0 0 1-.23.37q-.7.6-.45 1.67.21.88-.6 1.51-1.3-.63-1.96-1.75.09-.57-.25-.83-.29-.22-.55.06l-.2-.3q1.27.29 2.26.01a.87.86 88.3 0 0 .61-.65q1.13-5.26 3.31-9.61 4.12-8.23 6.39-16.28l7.36-17.02q2.57-1.22 1.82-4.34l1.88-5.24a2.47 2 67.5 0 0 .08-.31l.98-7.42a1.95 1.93-58.5 0 0-.31-1.32q-2.5-3.72.49-8.14 5.86-8.71 15.69-22.81 5.49-7.88 12.02-22.32 1.18-.26 1.74-1.43.77-1.63 1.49-3.43.19-.48-1.25-.11 3.03-8.42 6.15-16.68.22-.56.47-.86.28-.32.21-.92c-.1-.82.16-1.09.59-1.69a.86.83 66.5 0 0 .16-.43l.61-5.6a1.42 1.41-9.8 0 1 .78-1.1q2.08-1 3.37-2.81l-.05 1.22a.26.26 0 0 1-.29.24q-.32-.05-.36-.03a.15.15 0 0 0 .05.27q.85.15 2.25 1.21a.53.52 36.2 0 0 .75-.11c.92-1.29.81-2.5 1.37-3.87q5.11-12.51 10.63-23.33.76-1.48.87-3.91a1.25 1.23 59.8 0 1 .13-.51l4.98-10.08a1.45 1.42-26.1 0 0 .14-.4q.5-2.74 2.42-5.74a.57.57 0 0 0-.44-.88l-.48-.03q2.98-7.16 3.42-10.26.34-2.44-.09-11.01a2.31 2.16-61.6 0 0-.25-.95q-1.51-2.93-3.26-4.45 1.47-5.86.64-11.88a1.78 1.75 53.6 0 1 .13-.92q1.03-2.33 2.75-3.69 4.05-3.19 8.07-1.11a2.45 2.42-2.7 0 1 .96.86q1.44 2.25.52 6.01-.16.67-.15 1.19.02.75.68 1.01a.27.27 0 0 0 .37-.25q0-.01.21-.14a.48.48 0 0 1 .73.35l.83 5.79a2.03 2.03 0 0 0 .15.52l2.1 4.71zm-12.54-2.47q.5 1.31 2.04 1.97a.56.55-73.7 0 0 .76-.42l1.44-8.75a.39.39 0 0 0-.5-.44q-.95.29-1.66.25a.7.7 0 0 1-.67-.67q-.06-1.01 1.01-1.63a.38.38 0 0 0-.02-.67q-.54-.25-.98-.81a.81.81 0 0 0-1.38.16l-1.36 2.94a.67.66-75.9 0 1-.63.38l-1.22-.04a.42.42 0 0 0-.44.4l-.23 5.59a.41.4-4.1 0 0 .48.41q1.88-.33 2.61 1.16a.5.45 88.5 0 0 .2.21q.1.05.26-.1a.18.17 56.4 0 1 .29.06zm6.73 11.02a.23.23 0 0 0 .34.25q.27-.16.44-.58a.19.19 0 0 0-.31-.2q-.45.49-.47.53zm3.783-.614a1.54.53-43.7 0 0-1.48.681 1.54.53-43.7 0 0-.747 1.447 1.54.53-43.7 0 0 1.48-.681 1.54.53-43.7 0 0 .747-1.447zM255.8 406.72a.27.27 0 0 0-.39.15q-.95 3.07-2.97 4.47a1.26 1.2 88.5 0 0-.37.41l-3.39 6.21a.42.42 0 0 0 .23.59l.56.18a.04.03-52 0 0 .04-.01l4.7-7.03a.92.7-10.7 0 1 .18-.2q1.54-1.18 3.09-3.62a.15.15 0 0 0-.05-.21l-1.63-.94zm-31.409 64.197a.79.55-33.2 0 0-.962-.028.79.55-33.2 0 0-.36.893.79.55-33.2 0 0 .962.028.79.55-33.2 0 0 .36-.893zM347.85 291.85l-6.39 7.43q-1.25-.22-.9-1.51 2.48-9.33 7.29-5.92z"/><ellipse cx="0" cy="0" transform="matrix(.549023 -.835807 .835807 .549023 321.01 299.91)" rx="5.34" ry="2.83"/><path d="M180.24 296.73q-.1.65-.6.67a.39.38 61.8 0 1-.22-.07l-1.13-.79 1.95.19zm102.1 11.07l-7.17-5.07c3-.47 3.27 1.59 5.13 3.06a.67.66 14.3 0 0 1.07-.63q-.49-2.79.14-6a1.44 1.44 0 0 0-.12-.9l-.39-.82a.54.54 0 0 1 .49-.78h.25a.65.64-4.1 0 1 .64.55q.81 5.05-.04 10.59z"/></g><path d="M288.88 308.51q-.16.15-.26.1a.5.45 88.5 0 1-.2-.21q-.73-1.49-2.61-1.16a.41.4-4.1 0 1-.48-.41l.23-5.59a.42.42 0 0 1 .44-.4l1.22.04a.67.66-75.9 0 0 .63-.38l1.36-2.94a.81.81 0 0 1 1.38-.16q.44.56.98.81a.38.38 0 0 1 .02.67q-1.07.62-1.01 1.63a.7.7 0 0 0 .67.67q.71.04 1.66-.25a.39.39 0 0 1 .5.44l-1.44 8.75a.56.55-73.7 0 1-.76.42q-1.54-.66-2.04-1.97a.18.17 56.4 0 0-.29-.06zm12.83 2.53q-.35-.61-.34-1.01a.31.31 0 0 1 .59-.13c.87 1.81 2.19 3.46 1.75 5.46a.51.51 0 0 0 .44.61l3.66.41q-3.98.29-7.81-.58a3.97 3.43-33.9 0 0-.91-.11h-3.64a.57.57 0 0 1-.57-.57v-.85a1.49 1.45-64.9 0 0-.32-.92q-1.16-1.47-.93-3.13.67-4.89 1.02-8.48.14-1.44.9-1.88a.46.46 0 0 1 .68.39l.24 10.07a.33.33 0 0 0 .33.32q.17-.01.46-.5a.47.47 0 0 1 .77-.05c.71.92 1.37 3.19 1.8 3.53q.32.25.39.26a.24.23-15.9 0 0 .22-.39q-.31-.33-.43-.57a.19.19 0 0 1 .3-.21q.05.04.44.88a1.8 1.71 6.2 0 0 .61.72q.63.43 1.82.67a.32.32 0 0 0 .35-.47q-.31-.55-.71-.79a.85.82-79.6 0 1-.4-.6q-.2-1.19-.71-2.08z" class="C"/><g class="B"><ellipse cx="0" cy="0" transform="matrix(.557745 -.830012 .830012 .557745 315.37 312.21)" rx="5.28" ry="2.72"/><path d="M330.86 310.49l-5.64 4.88q-1.93-1.28-3.73.51a.2.19 55 0 1-.31-.06l-.14-.28a.23.23 0 0 1 .11-.3l3.32-1.68a.9.7 20.9 0 1 .29-.09q2.34-.3 3.19-1 1.98-1.64 2.91-1.98z"/></g><path d="M148.47 332.54q.97-.57.49-1.27-.32-.48-.94-.29-6.51-5.65-13.9-10.12-.96-.58-3.1-1.21a1.22 1.21 83.4 0 1-.7-.56l-.8-1.38-.04-.33a.26.26 0 0 1 .43-.23l.62.52a1 .99-36 0 0 1.02.16q2.07-.83 2.49.77a1.32 1.28 12.4 0 0 .48.72l19.64 14.93-5.79 5.94a1.43 1.43 0 0 0 .26 2.21q1.52.95 3.05 2.47a3.84 3.47 81.5 0 0 .56.46q13.18 8.94 25.27 19.46l-70.34-51.74a.8.8 0 0 0-1.07.1q-8.32 9.1-15.6 17.11-.88.97-2.84 2.16a1.25 1.2-83 0 0-.27.22l-9.6 11.15a1 .99 39.6 0 0 .14 1.44l67.72 52.66q-12.93-8.84-24.85-18.95-.24-.21-4.23-2.42a.67.67 0 0 0-.84.15l-3.94 4.68a2.33 2.33 0 0 0 .29 3.29c2.55 2.11 4.98 4.55 7.77 6.53q10.41 7.4 19.56 16.44-23.68-18.2-46.79-36.72-11.02-8.84-21.73-18.24 4.65 2.93 10.91 8.04 2.43 1.98 7.31 4.59a2.74 2.66 81.4 0 1 .76.58c.51.54.84 1.24 1.53 1.87q6.73 6.18 14.31 11.76a.43.42-50.8 0 0 .57-.06l5.06-5.66q.42.22.66-.09.14-.18.05-.36-.09-.17-.32-.2-.32-.55-.85-1-7.97-6.74-16.78-12.27a2.68 2.59 86.6 0 1-.72-.66q-1.24-1.59-1.51-1.82-6.77-5.75-12.47-10.28-.18-.14-2.02-2.15a1.44 1.43-45.2 0 1 0-1.93l28.16-30.87a1.59 1.58 38.5 0 1 2.07-.23q.98.68 13.26 9.46 2.94 2.11 5.19 2.69a1.25 1.24 81.9 0 1 .75.57q1.15 2.02 1.66 2.42 6.59 5.33 14.29 10.69a.77.76 38.6 0 0 1-.11l4.71-5.09zm3.336 2.532a1.2 1.2 0 0 0-.062-1.696l-.469-.436a1.2 1.2 0 0 0-1.696.062l-4.465 4.805a1.2 1.2 0 0 0 .062 1.696l.469.436a1.2 1.2 0 0 0 1.696-.062l4.465-4.805zm-36.953 40.937a.73.73 0 0 0-.068-1.03l-.903-.791a.73.73 0 0 0-1.03.068l-5.125 5.854a.73.73 0 0 0 .068 1.03l.903.791a.73.73 0 0 0 1.03-.068l5.125-5.854z" class="C"/><path d="M177.51 364.79q4.27 2.6 6.56 6.14l-1.21.81a2.15 1.54-76.1 0 0-.34.29q-13.33 14.41-25.65 29.85-1.71 2.95-3.81 1.59-4.01-2.58-7.41-5.58l-67.72-52.66a1 .99 39.6 0 1-.14-1.44l9.6-11.15a1.25 1.2-83 0 1 .27-.22q1.96-1.19 2.84-2.16 7.28-8.01 15.6-17.11a.8.8 0 0 1 1.07-.1l70.34 51.74zm118.39-45.2q.02-.04.47-.53a.19.19 0 0 1 .31.2q-.17.42-.44.58a.23.23 0 0 1-.34-.25z" class="D"/><g class="C"><ellipse cx="0" cy="0" transform="matrix(.722967 -.690882 .690882 .722967 298.57 320.04)" rx="1.54" ry=".53"/><path d="M312.46 322.93l-.31.33a.44.44 0 0 0 .28.74q1.63.18 3.37-.44a.18.17 37.1 0 0-.05-.34l-3.29-.29q1.66-.51 3.63-.29a.72.72 0 0 0 .77-.48q.03-.09.06-.24a.37.36 23.3 0 1 .58-.23q.14.12.17.5a.61.61 0 0 0 .5.55l.86.14a1.4 1.38-14.1 0 1 .86.51q1.19 1.5 3.28 2.21c-2.25 5.99-6.13 12-8.4 16.98q-11.49 25.21-15.65 34.04-3.12 6.62-4.28 12.55-.86.4-1.13 1.48a1.14 1.12-5.9 0 1-.61.74l-1.82.88a.72.72 0 0 0-.34.96l.31.64a.18.17 17.1 0 1-.31.16l-.84-1.38a1.37 1.36 74.1 0 0-1.16-.65h-2.71a.15.15 0 0 0-.15.15v.33a.38.37-7.2 0 0 .47.36q.57-.15.94.02a.2.2 0 0 1-.06.38q-.07.01-.28-.04a1.04 1.03 28 0 0-1 .3q-2.33 2.48-2.22 5.62c-3.39 1.61-2.62 4.47-2.75 7.34q-.37.38-.15.79.1.2.46.09 1.25-.34 2.43-1.14a.21.21 0 0 1 .31.25l-2.14 5.78q-.38-.15-.32.75l-.59 1.23q-.39.36-.38 1.02l-.25.44q-1.3 1.45-1.02 2.83l-5.19 12.98-.02 2.74q-2.67 3.13-6.21 9.87-3.34 6.36-4.46 10.34-1.41 4.99-6.57 7.89-1.09.62-.69 2.74.19.92-.75.99a.61.59 54 0 0-.16 1.15q1.49.68 1.04 2.37a.45.44-5.8 0 1-.25.3l-.46.23a.31.31 0 0 0 .09.58q.7.09.67.51-.06.39-.24.7-6.27 10.88-10.75 21.09-.37.84-.74 1.7-2.02 4.8-12.53 25.87-2.49 4.99-5.28 8.48-2.18 2.73-4.87.57a.84.84 0 0 0-1.33.44l-.64 2.35a3.09 3.06 87.1 0 1-1.84 2.05l-4.65 1.83-.91.11q-.71.02-1.26.48a1.19 1.15 20.7 0 1-.63.27q-2.65.3-4.9 1.87h-1.63q.05-.94-.56-1.45l-5.82-3.01q.81-.63.6-1.51-.25-1.07.45-1.67a.76.76 0 0 0 .23-.37q1.63-6.27 3.77-10.76 3.4-7.14 5.73-13.97 1.12-3.31 9.57-20.37a1.21 1.18 10.7 0 1 .99-.66q1.64-.11 2.8-1.44a1 .99-71 0 1 .71-.35q1.94-.09 2.29-1.87a.51.5-73 0 0-.29-.55q-.07-.04-.22-.03a.14.14 0 0 1-.11-.23q1.72-2.04 2.38-5.11a.83.79-17.3 0 1 .22-.4l.51-.51a1.03 1.02-31.8 0 0 .25-1.05q-.51-1.56-1.69-1.87a.42.42 0 0 1-.06-.8q.86-.37.72-1.24 0-.04-.33-.37a.17.17 0 0 1 .16-.28q.43.11.91.23.27.07 2.6-.47a.75.64 70.5 0 0 .38-1q-.1-.22-.38-.14a.18.18 0 0 1-.22-.23q.37-.92.74-.77a.83.82 29.6 0 0 .93-.25q.64-.79.42-1.69a.34.34 0 0 1 .49-.38q1.22.67 1.99.42a.25.24-46.5 0 0-.01-.47q-.53-.14-.25-.37a.57.55 59.5 0 0 .16-.65q-1.43-3.43-4.65-5.57-1.36-.91-1.67-.83a.18.18 0 0 1-.18-.29q.06-.07.4.01a.33.33 0 0 0 .4-.21q1.3-3.56 3.23-6.79a5.39 5.23 70.7 0 0 .5-1.08c1.36-3.88 2.81-6.28 4.28-9.9q1.22-3 3.65-5.82a1.51 1.51 0 0 0 .28-.45q.79-2.09 2.67-4.15a.35.35 0 0 1 .61.23q.02 1.28-1.84 2.97a1.44 1.41 71.6 0 0-.45.92q-.26 3.12-1.44 4.28-1.82 1.76-2.53 3.28-3.94 8.54-7.03 17.32a.34.34 0 0 0 .18.43l.27.13a.17.16 25.7 0 0 .21-.07l8.92-17.56q.02-.04.04-.08 1.6-4.48 4.09-8.25a1.44 1.43 54.4 0 0 .19-1.17q-.01-.04-.01-.07a1.77 1.74 49.6 0 1 .11-1.48l3.83-6.87a1.21 1.21 0 0 1 1.08-.63q.02 0 .34.44a.3.29-63.1 0 0 .53-.18v-1.01a1.07 1.07 0 0 1 .36-.8q1.66-1.46 2.33-3.17a1.36 1.3-10 0 1 .44-.6l1.38-1.06a1.44 1.43-6.6 0 0 .44-.55q.88-1.97 2.73-3.64 1-.9 1.36-1.57.9-1.68 1.43-1.45a.19.19 0 0 0 .26-.13l.68-2.5a1.1 1.1 0 0 1 1.24-.8l2.75.46a.55.55 0 0 1 .47.54v2.51a.41.41 0 0 0 .8.11l2-7.37a.77.76 23.4 0 0-.34-.85q-1.39-.84-2.29.35a.15.14 38.4 0 1-.21.02h-.01a.16.15-46.1 0 1 0-.23l1-.86a.54.49 18.4 0 1 .29-.13l3.73-.31a.55.55 0 0 1 .54.79q-1.5 3.08-1.48 5.42a1.49 1.49 0 0 0 2.09 1.35q4.91-2.19 5.41-7.2a.96.96 0 0 0-.46-.93q-.4-.24-1.83-.16a.78.77-4.2 0 1-.82-.7q-.33-3.09-3.68-3.47a.34.34 0 0 1-.3-.38q.05-.44-.47-.47-2-.12-4.38.26a.38.38 0 0 0-.3.52q.1.25.03.3a.21.2 75 0 1-.32-.19q.28-2.15-1.13-4.22a.68.43 83 0 1 .48-1.03q.26.27.92.06.54-.17.5-.78-.14-2.2-1.09-2.85a.43.42 37.3 0 1-.09-.63q.16-.2.32-.33.16-.13.2-.3 1.75-6.16 4.73-11.61c.84-1.54 1.76-4.96 2.8-6.87 3.42-6.26 5.66-10.12 6.91-15.38q.57-2.42 1.89-4.79 2.37-4.24 3.56-8.12a1.3 1.29-80.4 0 1 1.29-.92q1.74.07 3.06-.63a.43.43 0 0 1 .59.56l-2.41 5.2a.08.08 0 0 0 .06.11l.26.07a.29.28-68.1 0 0 .34-.15l4.92-10.63a.3.28-3.6 0 1 .14-.15q.57-.28.64-1.05a.57.57 0 0 0-.53-.61q-.42-.04-.48-.38a.28.28 0 0 1 .03-.19l1.7-3.3a.73.68-88.8 0 1 .28-.29q.63-.36.53-1.23a1.54 1.46 11.6 0 1 2.26-1.41q1.82.99 3.29 2.32a.5.47 66.7 0 0 .3.13q.99.09 1.07.03a.31.31 0 0 0-.07-.48l-2.88-1.62a1.08 1.08 0 0 1 .53-2.02h6.24a.7.7 0 0 1 .7.7v1.42a.68.68 0 0 0 .74.68l4.55-.4zm-1.778 1.302a5.09 2.75-54 0 0-5.217 2.502 5.09 2.75-54 0 0-.767 5.734 5.09 2.75-54 0 0 5.217-2.501 5.09 2.75-54 0 0 .767-5.734zm-11.252.928q-.47-.37-1.75.09a.24.24 0 0 0-.02.45q.06.03 1.6-.02a.29.29 0 0 0 .17-.52zm5.705 11.036a5.2 2.73-54.7 0 0-5.233 2.666 5.2 2.73-54.7 0 0-.777 5.822 5.2 2.73-54.7 0 0 5.233-2.666 5.2 2.73-54.7 0 0 .777-5.822zm-5.469 12.021a5.18 2.68-54.8 0 0-5.176 2.688 5.18 2.68-54.8 0 0-.796 5.778 5.18 2.68-54.8 0 0 5.176-2.688 5.18 2.68-54.8 0 0 .796-5.778zm-5.722 12.437a5.25 2.66-55.1 0 0-5.185 2.784 5.25 2.66-55.1 0 0-.822 5.828 5.25 2.66-55.1 0 0 5.185-2.784 5.25 2.66-55.1 0 0 .822-5.828zm-11.306 7.868a2.64.4-58.8 0 0-1.71 2.051 2.64.4-58.8 0 0-1.026 2.465 2.64.4-58.8 0 0 1.71-2.051 2.64.4-58.8 0 0 1.026-2.465zm5.673 4.475a5.18 2.62-55 0 0-5.117 2.74 5.18 2.62-55 0 0-.825 5.746 5.18 2.62-55 0 0 5.117-2.74 5.18 2.62-55 0 0 .825-5.746zm-5.327 11.77a5.26 2.63-54.9 0 0-5.176 2.791 5.26 2.63-54.9 0 0-.873 5.816 5.26 2.63-54.9 0 0 5.176-2.791 5.26 2.63-54.9 0 0 .873-5.816zm-11.562 25.423a5.12 2.54-53.4 0 0-5.092 2.596 5.12 2.54-53.4 0 0-1.014 5.625 5.12 2.54-53.4 0 0 5.092-2.596 5.12 2.54-53.4 0 0 1.014-5.625zm-5.14 11.601a5.2 2.53-52.4 0 0-5.177 2.576 5.2 2.53-52.4 0 0-1.168 5.664 5.2 2.53-52.4 0 0 5.177-2.576 5.2 2.53-52.4 0 0 1.168-5.664zm-19.443 9.92l-.53 1.28a2.45 2.32-13 0 1-.53.8q-2.54 2.51-3.95 7.1a.23.23 0 0 0 .16.28l.48.13a.23.23 0 0 0 .28-.13q1.2-2.54 2.3-4.87.24-.51 1.96-1.51a1.66 1.64 86.1 0 0 .68-.79q.4-.96-.02-2.26a.44.44 0 0 0-.83-.03zm13.838 2.029a5.12 2.52-53.6 0 0-5.067 2.626 5.12 2.52-53.6 0 0-1.01 5.617 5.12 2.52-53.6 0 0 5.067-2.626 5.12 2.52-53.6 0 0 1.01-5.616zm5.392 1.381q.79-.42 1.02-1.39a.51.51 0 0 0-.71-.58q-.26.13-.8 1.52a.36.35 87.2 0 0 .49.45zm-10.681 10.568a5.18 2.48-52 0 0-5.143 2.555 5.18 2.48-52 0 0-1.235 5.609 5.18 2.48-52 0 0 5.143-2.555 5.18 2.48-52 0 0 1.235-5.609zm-15.709 6.252l-2.35 6.03a.11.11 0 0 0 .12.14q.18-.03.28-.18 1.17-1.85 2.11-5.94a.08.08 0 0 0-.16-.05zm10.665 5.193a5.22 2.5-51 0 0-5.228 2.483 5.22 2.5-51 0 0-1.342 5.63 5.22 2.5-51 0 0 5.228-2.483 5.22 2.5-51 0 0 1.342-5.63zm1.055 10.227q.05.22 3.26-.18.63-.07.44-.79-.19-.72-.77-.48-2.99 1.24-2.93 1.45zm-6.944 3.032a4.96 2.49-48.2 0 0-5.162 2.038 4.96 2.49-48.2 0 0-1.45 5.357 4.96 2.49-48.2 0 0 5.162-2.038 4.96 2.49-48.2 0 0 1.45-5.357zm9.614 1.964a1.36.38-60.5 0 0-1 .997 1.36.38-60.5 0 0-.339 1.371 1.36.38-60.5 0 0 1-.997 1.36.38-60.5 0 0 .339-1.371zm-4.18 1.624a.18.17-49.5 0 0-.34.03q-1.22 7.03-4.96 13.34-.14.24-.51 1.91a1.28.89-34.7 0 1-.09.24l-11.25 24.1a.57.57 0 0 0 .36.79l.49.13a.94.94 0 0 0 1.09-.51l11.56-24.97a.25.24-74.9 0 0-.2-.35q-1.14-.08-.66-1.16.53-1.2 3.04-5.24a1.1.97-23 0 0 .11-.23l1.62-5.2a.6.43 62.1 0 0 .02-.15q.07-1.63-.28-2.73zm-44.74 56.97q1.44-1.05 2.41-2.92 8.64-16.71 16.04-33.66 2.83-6.48 3.96-11.42.22-.94.09-2.28a.48.48 0 0 0-.92-.13l-1.76 4.46a.51.49-.6 0 1-.3.29q-.21.07-.26.1a.97.97 0 0 0-.55.77q-.19 1.57-.47 2.2-3.68 8.13-7 15.86-1.79 4.16-5.04 10.81-1.48 3.02-6.74 15.49a.36.36 0 0 0 .54.43zm34.015-49.307a5.18 2.46-50.5 0 0-5.193 2.432 5.18 2.46-50.5 0 0-1.397 5.562 5.18 2.46-50.5 0 0 5.193-2.432 5.18 2.46-50.5 0 0 1.397-5.562zm-4.605 14.327a.09.09 0 0 1-.18-.04q.11-2.44-.31-2.91-.88-.99-2.82.18-3.73 2.26-4.23 6.49a1.36 1.36 0 0 0 1.79 1.45q2.64-.91 4.52-3.73a.22.22 0 0 1 .3-.06.31.3-47.5 0 1 .02.49q-.75.62-.85 1.55a4.49 4.39-27.1 0 1-.62 1.85q-1.32 2.19-1.49 3.21a1.23 1.23 0 0 0 2.28.82c1.08-1.83 3.21-4.29 3.37-6.04a1.54 1.49 69.8 0 1 .39-.88q2.09-2.24 3.12-6.04a.53.53 0 0 0-.32-.64q-.07-.03-.4.07a.41.41 0 0 1-.51-.51q.13-.43.97-.79a1.45 1.44 2.5 0 0 .71-.65q.71-1.35.99-4.24a.49.49 0 0 0-.91-.31q-.62 1.01-.72 1.93a1.72 1.72 0 0 1-.45.99q-2.87 3.14-4.65 7.81zm-5.854 8.509a5.11 2.38-51 0 0-5.065 2.473 5.11 2.38-51 0 0-1.366 5.469 5.11 2.38-51 0 0 5.065-2.473 5.11 2.38-51 0 0 1.366-5.469zm-5.218 11.498a5.12 2.34-50.2 0 0-5.075 2.436 5.12 2.34-50.2 0 0-1.48 5.432 5.12 2.34-50.2 0 0 5.075-2.436 5.12 2.34-50.2 0 0 1.48-5.432zm-5.274 11.767a5.16 2.37-49.9 0 0-5.137 2.42 5.16 2.37-49.9 0 0-1.511 5.474 5.16 2.37-49.9 0 0 5.137-2.42 5.16 2.37-49.9 0 0 1.511-5.474z"/></g><g class="B"><path d="M312.46 322.93l3.29.29a.18.17 37.1 0 1 .05.34q-1.74.62-3.37.44a.44.44 0 0 1-.28-.74l.31-.33z"/><ellipse cx="0" cy="0" transform="matrix(.587785 -.809017 .809017 .587785 307.69 328.35)" rx="5.09" ry="2.75"/><path d="M299.26 325.68q-1.54.05-1.6.02a.24.24 0 0 1 .02-.45q1.28-.46 1.75-.09a.29.29 0 0 1-.17.52z"/></g><path d="M219.63 330.35q-12.5 16.1-26.59 30.95-.67.7-1.1.19 13.28-15.75 26.84-31.19.37-.43.85.05z" class="C"/><g class="B"><path d="M148.47 332.54q-.01-.83-.45-1.56.62-.19.94.29.48.7-.49 1.27z"/><rect x="-1.52" y="-4.48" transform="matrix(.732543 .680721 -.680721 .732543 148.46 336.44)" width="3.04" height="8.96" rx="1.2"/></g><path d="M261.93 381.21l1.37-2.19q.26-.26.27-.72l3.4-6.29q.42-.26.54-.96l6.46-13.59q.55-.21.42-.96l9.51-21.24.48.03a.57.57 0 0 1 .44.88q-1.92 3-2.42 5.74a1.45 1.42-26.1 0 1-.14.4l-4.98 10.08a1.25 1.23 59.8 0 0-.13.51q-.11 2.43-.87 3.91-5.52 10.82-10.63 23.33c-.56 1.37-.45 2.58-1.37 3.87a.53.52 36.2 0 1-.75.11q-1.4-1.06-2.25-1.21a.15.15 0 0 1-.05-.27q.04-.02.36.03a.26.26 0 0 0 .29-.24l.05-1.22z" class="C"/><ellipse cx="0" cy="0" transform="matrix(.577858 -.816138 .816138 .577858 302.13 340.44)" rx="5.2" ry="2.73" class="B"/><path d="M188.27 359q-9.71-6.06-18.65-12.85-.97-.74-1.89-1.81 10.86 6.32 20.54 14.66z" class="C"/><g class="B"><rect x="-4.32" y="-.43" transform="matrix(.812084 .583541 -.583541 .812084 185.83 347.31)" width="8.64" height=".86" rx=".41"/><ellipse cx="0" cy="0" transform="matrix(.576432 -.817145 .817145 .576432 296.68 352.45)" rx="5.18" ry="2.68"/></g><path d="M70.89 352.65q10.71 9.4 21.73 18.24 23.11 18.52 46.79 36.72 1.95 1.21 5.47 4.51 1.36 1.29.98 2.47-.64.2-.78.36-13.96 15.59-27.46 31.59-.17.2-.25.91-.27.5-.66.82a1 .99 32.3 0 1-.91.2q-1.92-.51-3.19-2.09L40.7 386.22a1.11 1.11 0 0 1-.08-1.63q2.8-2.85 6.63-6.91.44-.47 1.11-.67c.7-.21.85-1.77 1.64-2.66q9.63-10.84 12.5-13.85 3.39-3.54 5.61-7.01 2.51-2.98 2.78-.84z" class="D"/><path d="M68.11 353.49q-2.22 3.47-5.61 7.01-2.87 3.01-12.5 13.85c-.79.89-.94 2.45-1.64 2.66q-.67.2-1.11.67-3.83 4.06-6.63 6.91a1.11 1.11 0 0 0 .08 1.63l71.91 60.16-33.94-26.77q-1.02-.4-1.47.27-3.16 2.3-4.68 5.9a.83.82 37.1 0 0 .12.85q1.78 2.22 2.76 2.97 13.52 10.34 25.56 22.71-3.41-2.54-8.84-7.18-3.25-2.77-3.94-4.14a1.68 1.68 0 0 0-.95-.85q-.98-.34-2.41-1.47-3.49-2.76-32.43-27.31-2.1-1.79-2.83-2.73a.31.31 0 0 1 .26-.5l1.1.04a1.5 1.49-13.4 0 1 1.26.77q.48.86 1.24.85l13.72 11.94a1 .99 41.5 0 0 1.39-.08l4.94-5.41a.69.68-49.5 0 0-.07-.99L60.06 404.4q-1.06-1.43-2.57-2.42-.29-.19-.49-.13-.26.08-.42.32-.23.34-.49.13-.18-.15-.35-.52.04-.12.08-.23.19-1.75-1.61-2.05L39.7 386.47a1.25 1.25 0 0 1-.09-1.78l28.5-31.2zm8.84 64.64l-1.73-1.52a.34.34 0 0 0-.48.03l-.09.11a9 .77-48.6 0 0-5.37 7.26l1.08.95a9 .77-48.6 0 0 6.52-6.24l.1-.11a.34.34 0 0 0-.03-.48z" class="C"/><g class="B"><path d="M274.39 356.5q.13.75-.42.96l.42-.96z"/><ellipse cx="0" cy="0" transform="matrix(.572146 -.820152 .820152 .572146 290.94 364.96)" rx="5.25" ry="2.66"/><ellipse cx="0" cy="0" transform="matrix(.518027 -.855364 .855364 .518027 281.27 370.78)" rx="2.64" ry=".4"/><path d="M267.51 371.05q-.12.7-.54.96.11-.62.54-.96z"/></g><path d="M184.07 370.93q-12.54 16.34-27.2 30.95 12.32-15.44 25.65-29.85a2.15 1.54-76.1 0 1 .34-.29l1.21-.81z" class="C"/><g class="B"><ellipse cx="0" cy="0" transform="matrix(.573576 -.819152 .819152 .573576 285.34 377.24)" rx="5.18" ry="2.62"/><path d="M111.73 373.12q.23.03.32.2.09.18-.05.36-.24.31-.66.09l.39-.65z"/><rect x="-1.33" y="-4.62" transform="matrix(.752415 .658689 -.658689 .752415 111.29 378.06)" width="2.66" height="9.24" rx=".73"/><path d="M263.57 378.3q-.01.46-.27.72 0-.51.27-.72z"/><ellipse cx="0" cy="0" transform="matrix(.575005 -.81815 .81815 .575005 279.96 389.07)" rx="5.26" ry="2.63"/><path d="M294.84 389.17l.87 9.12a.63.62-6.7 0 1-.54.68q-2.29.33-4.35-.34a2.35 2.34 43 0 0-1.56.05q-2.48.98-5.33.44-.11-3.14 2.22-5.62a1.04 1.03 28 0 1 1-.3q.21.05.28.04a.2.2 0 0 0 .06-.38q-.37-.17-.94-.02a.38.37-7.2 0 1-.47-.36v-.33a.15.15 0 0 1 .15-.15h2.71a1.37 1.36 74.1 0 1 1.16.65l.84 1.38a.18.17 17.1 0 0 .31-.16l-.31-.64a.72.72 0 0 1 .34-.96l1.82-.88a1.14 1.12-5.9 0 0 .61-.74q.27-1.08 1.13-1.48z"/></g><path d="M43.71 401.81q1 1.52 1.42.61 4.24 1.15 6.73 5.25l-5.33-3.54a.14.14 0 0 0-.17.01l-.18.16a.17.17 0 0 0 .02.27q1.48.92 2.62 2.82a.14.14 0 0 1-.18.2l-1.51-.7a1.19 1.08 74.4 0 1-.19-.12l-14.29-12.04a.98.96 41.1 0 0-1.34.08L1.84 427.12a.74.74 0 0 0 .05 1.05l66.55 59.66-13.09-8.78q.41-1.54-1.85-2.54-15.7-16.07-33.43-29.81-.67-1.26-2.1-1.8a1.15 1.11-.9 0 1-.65-.61q-.76-1.8-2.51-2.29Q8.4 434.13 0 428.63v-1.28q.59-.18 1.15-1.2l30.09-32.72a1.31 1.31 0 0 1 1.78-.14l10.69 8.52z" class="C"/><path d="M51.86 407.67l1.56 2.12q-.76.01-1.24-.85a1.5 1.49-13.4 0 0-1.26-.77l-1.1-.04a.31.31 0 0 0-.26.5q.73.94 2.83 2.73 28.94 24.55 32.43 27.31 1.43 1.13 2.41 1.47a1.68 1.68 0 0 1 .95.85q.69 1.37 3.94 4.14 5.43 4.64 8.84 7.18 3.08 2.68 5.67 6.29.55.75.04.81-13.45 14.19-25.73 29.3-1.63 2.34-4.25 3.89a.99.98 41.5 0 1-.89.05q-4.21-1.88-7.36-4.82L1.89 428.17a.74.74 0 0 1-.05-1.05l29.47-32.31a.98.96 41.1 0 1 1.34-.08l14.29 12.04a1.19 1.08 74.4 0 0 .19.12l1.51.7a.14.14 0 0 0 .18-.2q-1.14-1.9-2.62-2.82a.17.17 0 0 1-.02-.27l.18-.16a.14.14 0 0 1 .17-.01l5.33 3.54z" class="D"/><path d="M55.82 401.55l-1.61-2.05q1.8.3 1.61 2.05zm-10.69.87q-.42.91-1.42-.61l1.42.61zm14.93 1.98q-4.25.56-4.32-2.62.17.37.35.52.26.21.49-.13.16-.24.42-.32.2-.06.49.13 1.51.99 2.57 2.42zm221.12 2.06q0 .46.31.88-.36.11-.46-.09-.22-.41.15-.79z" class="B"/><path d="M257.48 407.87q-1.55 2.44-3.09 3.62a.92.7-10.7 0 0-.18.2l-4.7 7.03a.04.03-52 0 1-.04.01l-.56-.18a.42.42 0 0 1-.23-.59l3.39-6.21a1.26 1.2 88.5 0 1 .37-.41q2.02-1.4 2.97-4.47a.27.27 0 0 1 .39-.15l1.63.94a.15.15 0 0 1 .05.21z" class="C"/><ellipse cx="0" cy="0" transform="matrix(.596225 -.802817 .802817 .596225 268.37 414.3)" rx="5.12" ry="2.54" class="B"/><path d="M247.61 416.27l1.98-4.97q1.44-.37 1.25.11-.72 1.8-1.49 3.43-.56 1.17-1.74 1.43z" class="C"/><path d="M282.09 412.23q0 .39-.32.75-.06-.9.32-.75zm-.91 1.98q-.03.58-.38 1.02-.01-.66.38-1.02z" class="B"/><path d="M145.86 414.59q-.26.85-.56 1.22-13.04 15.89-26.95 31.01a2.19 2.02-79 0 1-.64.47l-.34.16q.08-.71.25-.91 13.5-16 27.46-31.59.14-.16.78-.36z" class="C"/><g class="B"><path d="M280.55 415.67l-1.02 2.83q-.28-1.38 1.02-2.83zm-203.6 2.46a.34.34 0 0 1 .03.48l-.1.11a9 .77-48.6 0 1-6.52 6.24l-1.08-.95a9 .77-48.6 0 1 5.37-7.26l.09-.11a.34.34 0 0 1 .48-.03l1.73 1.52zm-75.8 8.02q-.56 1.02-1.15 1.2v-3.84c.32-1.58.56-3.27.62-4.89 0 2.44.22 5 .53 7.53zm77.52-6.54q-.74.4-1.47.27.45-.67 1.47-.27z"/><ellipse cx="0" cy="0" transform="matrix(.610145 -.79229 .79229 .610145 263.11 425.91)" rx="5.2" ry="2.53"/><path d="M246.84 431.71a.44.44 0 0 1 .83.03q.42 1.3.02 2.26a1.66 1.64 86.1 0 1-.68.79q-1.72 1-1.96 1.51-1.1 2.33-2.3 4.87a.23.23 0 0 1-.28.13l-.48-.13a.23.23 0 0 1-.16-.28q1.41-4.59 3.95-7.1a2.45 2.32-13 0 0 .53-.8l.53-1.28zm27.5-.23l-.02 2.74.02-2.74z"/><ellipse cx="0" cy="0" transform="matrix(.593419 -.804894 .804894 .593419 257.64 437.86)" rx="5.12" ry="2.52"/><path d="M266.07 435.12a.36.35 87.2 0 1-.49-.45q.54-1.39.8-1.52a.51.51 0 0 1 .71.58q-.23.97-1.02 1.39zm-246 11.58q-4.11-1.78-5.26-4.7 1.75.49 2.51 2.29a1.15 1.11-.9 0 0 .65.61q1.43.54 2.1 1.8z"/><ellipse cx="0" cy="0" transform="matrix(.615661 -.788011 .788011 .615661 252.2 449.77)" rx="5.18" ry="2.48"/><path d="M239.84 451.99q-.94 4.09-2.11 5.94-.1.15-.28.18a.11.11 0 0 1-.12-.14l2.35-6.03a.08.08 0 0 1 .16.05z"/><ellipse cx="0" cy="0" transform="matrix(.62932 -.777146 .777146 .62932 247.06 461.19)" rx="5.22" ry="2.5"/></g><path d="M106.67 459.41q-11.58 15.81-25.73 29.3 12.28-15.11 25.73-29.3z" class="C"/><g class="B"><path d="M256.39 465.06c.17 1.66.94 4.66.18 6.13q.03-.42-.67-.51a.31.31 0 0 1-.09-.58l.46-.23a.45.44-5.8 0 0 .25-.3q.45-1.69-1.04-2.37a.61.59 54 0 1 .16-1.15q.94-.07.75-.99z"/><path d="M255.1 466.39q.19.72-.44.79-3.21.4-3.26.18-.06-.21 2.93-1.45.58-.24.77.48z"/><ellipse cx="0" cy="0" transform="matrix(.666532 -.745476 .745476 .666532 241.15 474.09)" rx="4.96" ry="2.49"/></g><ellipse cx="0" cy="0" transform="matrix(.836764 -.547563 .547563 .836764 223.73 471.35)" rx=".79" ry=".55" class="D"/><g class="B"><ellipse cx="0" cy="0" transform="matrix(.492424 -.870356 .870356 .492424 253.4 473.54)" rx="1.36" ry=".38"/><path d="M249.89 473.98q.35 1.1.28 2.73a.6.43 62.1 0 1-.02.15l-1.62 5.2a1.1.97-23 0 1-.11.23q-2.51 4.04-3.04 5.24-.48 1.08.66 1.16a.25.24-74.9 0 1 .2.35l-11.56 24.97a.94.94 0 0 1-1.09.51l-.49-.13a.57.57 0 0 1-.36-.79l11.25-24.1a1.28.89-34.7 0 0 .09-.24q.37-1.67.51-1.91 3.74-6.31 4.96-13.34a.18.17-49.5 0 1 .34-.03zm-194.54 5.07q-.53.14-.89-.17-.24-.19-.34-.84-.11-.78-.62-1.53 2.26 1 1.85 2.54zm149.8 51.9a.36.36 0 0 1-.54-.43q5.26-12.47 6.74-15.49 3.25-6.65 5.04-10.81 3.32-7.73 7-15.86.28-.63.47-2.2a.97.97 0 0 1 .55-.77q.05-.03.26-.1a.51.49-.6 0 0 .3-.29l1.76-4.46a.48.48 0 0 1 .92.13q.13 1.34-.09 2.28-1.13 4.94-3.96 11.42-7.4 16.95-16.04 33.66-.97 1.87-2.41 2.92z"/><ellipse cx="0" cy="0" transform="matrix(.636078 -.771625 .771625 .636078 235.87 485.64)" rx="5.18" ry="2.46"/></g><path d="M216.78 483.83q.75 3.12-1.82 4.34l1.82-4.34z" class="C"/><g class="B"><path d="M234.56 495.97q1.78-4.67 4.65-7.81a1.72 1.72 0 0 0 .45-.99q.1-.92.72-1.93a.49.49 0 0 1 .91.31q-.28 2.89-.99 4.24a1.45 1.44 2.5 0 1-.71.65q-.84.36-.97.79a.41.41 0 0 0 .51.51q.33-.1.4-.07a.53.53 0 0 1 .32.64q-1.03 3.8-3.12 6.04a1.54 1.49 69.8 0 0-.39.88c-.16 1.75-2.29 4.21-3.37 6.04a1.23 1.23 0 0 1-2.28-.82q.17-1.02 1.49-3.21a4.49 4.39-27.1 0 0 .62-1.85q.1-.93.85-1.55a.31.3-47.5 0 0-.02-.49.22.22 0 0 0-.3.06q-1.88 2.82-4.52 3.73a1.36 1.36 0 0 1-1.79-1.45q.5-4.23 4.23-6.49 1.94-1.17 2.82-.18.42.47.31 2.91a.09.09 0 0 0 .18.04z"/><ellipse cx="0" cy="0" transform="matrix(.62932 -.777146 .777146 .62932 225.49 508.45)" rx="5.11" ry="2.38"/></g><path d="M207.6 505.19q-2.27 8.05-6.39 16.28-2.18 4.35-3.31 9.61a.87.86 88.3 0 1-.61.65q-.99.28-2.26-.01-.77-.38-.41-1.1.28-.55 1.31-1.77a4.07 3.73 80.4 0 0 .51-.79l11.16-22.87z" class="C"/><g class="B"><ellipse cx="0" cy="0" transform="matrix(.64011 -.768284 .768284 .64011 220.21 519.91)" rx="5.12" ry="2.34"/><ellipse cx="0" cy="0" transform="matrix(.644124 -.764921 .764921 .644124 214.89 531.69)" rx="5.16" ry="2.37"/></g><path d="M196.03 532.79q-.57-.25-.8-.77.26-.28.55-.06.34.26.25.83z" class="D"/><path d="M213.7 536.27q-.38.17-.91.11l.91-.11zm-9.89 1.28q.61.51.56 1.45h-.62l-.76-.22a.36.35-53 0 1-.09-.64l.91-.59z" class="B"/></svg>