<?xml version="1.0" encoding="UTF-8" standalone="no"?>
<!-- Created with Inkscape (http://www.inkscape.org/) -->

<svg
   version="1.1"
   id="svg1"
   width="512"
   height="196"
   viewBox="0 0 512 196"
   sodipodi:docname="MOS-1b-icon.svg"
   inkscape:version="1.4 (e7c3feb1, 2024-10-09)"
   xmlns:inkscape="http://www.inkscape.org/namespaces/inkscape"
   xmlns:sodipodi="http://sodipodi.sourceforge.net/DTD/sodipodi-0.dtd"
   xmlns="http://www.w3.org/2000/svg"
   xmlns:svg="http://www.w3.org/2000/svg"
   xmlns:rdf="http://www.w3.org/1999/02/22-rdf-syntax-ns#"
   xmlns:cc="http://creativecommons.org/ns#"
   xmlns:dc="http://purl.org/dc/elements/1.1/">
  <sodipodi:namedview
     id="namedview1"
     pagecolor="#ffffff"
     bordercolor="#000000"
     borderopacity="0.25"
     inkscape:showpageshadow="2"
     inkscape:pageopacity="0.0"
     inkscape:pagecheckerboard="0"
     inkscape:deskcolor="#d1d1d1"
     inkscape:zoom="0.13265306"
     inkscape:cx="256.30769"
     inkscape:cy="98"
     inkscape:window-width="1104"
     inkscape:window-height="417"
     inkscape:window-x="0"
     inkscape:window-y="25"
     inkscape:window-maximized="0"
     inkscape:current-layer="svg1" />
  <title
     id="title1">MOS-1b Icon SVG</title>
  <defs
     id="defs1" />
  <g
     id="g1">
    <path
       style="fill:currentColor;stroke-width:1.01754"
       d="M 70.75,194.99466 C 56.733875,190.49925 44.476244,182.44607 29.976431,178.28422 19.953219,174.80563 19.53726,161.57906 16.333301,158.4503 9.4547213,150.67856 5.8698429,142.23605 7.4208828,131.87786 7.1926173,122.8601 10.372912,109.63187 0.00705611,110.72555 0.08137013,99.183927 0.15568414,87.64231 0.22999815,76.100692 3.0364074,83.993949 0.81130637,107.5199 4.0422936,107.1622 6.7962912,79.166249 5.1963752,50.664296 10,22.952958 20.102168,9.9447695 41.355953,13.077567 55.468422,5.409192 74.346914,1.9480536 56.498631,1.6235039 48.809017,1.9354389 42.724212,2.1714326 15.694739,0.83776847 20.787663,0.32082855 45.90227,0.2138857 71.016876,0.10694285 96.131483,0 c 10.427507,1.4557722 18.593477,22.438462 28.231627,12.741462 11.65155,-5.8169116 16.31244,-0.255848 15.53456,9.245902 -3.60046,4.538084 13.07199,10.249735 9.19557,1.837821 16.9839,-2.579869 32.74933,-11.08128 49.66054,-14.7336553 13.27335,-1.1353885 25.31845,-6.3183016 38.79622,-2.9464607 32.69015,6.176904 66.26763,5.74782 99.2438,9.733666 4.34693,-2.311023 10.15856,0.846633 16.1836,0.655651 34.50718,0.719445 69.46786,2.383846 102.62416,12.649047 15.7317,4.568931 31.09073,10.036223 46.69167,14.428807 -0.0517,5.655374 -25.07829,0.601169 -35.15309,0.01725 -20.62724,-2.126818 -42.04531,-1.914295 -62.31689,-5.020893 -4.99946,0.118459 -18.4806,0.137953 -29.72392,-1.723766 -21.48494,-1.334024 -43.25136,-0.01467 -64.6177,-0.884205 -14.74523,-2.140091 -29.82387,5.730918 -44.09726,9.292591 -16.42674,3.207587 -32.67913,10.941993 -49.01701,11.52385 1.51973,4.245686 -12.36058,8.323689 -17.35311,16.15548 -14.6973,11.614274 -35.53961,5.534944 -52.32519,12.105505 -10.70145,3.200187 -30.61159,10.318075 -30.59316,21.566453 8.40132,0.61038 19.09892,-0.73912 25.03813,5.32547 8.88188,10.62163 5.62277,24.96149 7.03052,37.84236 -3.09377,12.21901 -14.83789,20.53512 -18.60723,31.30238 1.52411,9.60987 -4.29942,11.88263 -13.0215,10.17585 -8.76319,-2.08854 -19.18118,-6.31286 -26.409534,0.70704 -4.894132,5.1925 -13.94188,2.31805 -20.376286,2.99705 z M 70.25,1.3850526 c -6.231714,-1.01717309 -0.05978,1.7849209 0,0 z M 508.66667,47.972771 c -0.59662,-7.075479 7.49249,2.041242 0,0 z M 132.22162,7.4114121 C 129.45836,2.7372335 145.8226,4.658863 136.80824,8.270432 L 136.25,8.2672135 Z"
       id="path1" />
  </g>
  <metadata
     id="metadata1">
    <rdf:RDF>
      <cc:Work
         rdf:about="">
        <dc:title>MOS-1b Icon SVG</dc:title>
        <dc:source>https://earth.esa.int/documents/d/earth-online/mos-1-510-300</dc:source>
      </cc:Work>
    </rdf:RDF>
  </metadata>
</svg>
