<?xml version="1.0" encoding="UTF-8" standalone="no"?>
<!-- Created with Inkscape (http://www.inkscape.org/) -->

<svg
   version="1.1"
   id="svg1"
   width="682.66669"
   height="557.33331"
   viewBox="0 0 682.66669 557.33331"
   xmlns="http://www.w3.org/2000/svg"
   xmlns:svg="http://www.w3.org/2000/svg"
   xmlns:rdf="http://www.w3.org/1999/02/22-rdf-syntax-ns#"
   xmlns:cc="http://creativecommons.org/ns#"
   xmlns:dc="http://purl.org/dc/elements/1.1/">
  <title
     id="title1">GOMX4 Icon SVG</title>
  <defs
     id="defs1" />
  <g
     id="g1">
    <path
       style="fill:currentColor"
       d="m 502.00001,555.74005 c -48.60598,-28.31299 -96.9308,-57.55334 -145.90365,-85.51216 -22.231,-12.23946 -46.30932,-23.88963 -68.92135,-38.52007 -26.4711,-21.59076 -59.88919,-33.14367 -85.59458,-55.23182 -8.24461,-25.97519 -17.60348,-53.14975 -31.53081,-76.77321 -6.40549,-13.12461 18.43981,-12.5699 -1.25137,-19.73248 18.98361,-2.3975 38.38426,-10.64458 52.66162,-30.97032 20.02223,-8.16162 37.56592,-23.71815 56.03628,-36.66666 19.15609,-21.5474 45.58815,-33.90283 65.50295,-52.66119 -1.87695,-24.6614 39.31216,8.6006 54.98516,8.30237 77.69968,28.16155 155.06562,56.82177 232.68243,85.26384 24.96886,8.56904 60.6665,13.30579 45.32526,47.67085 -6.39158,27.5167 17.56253,63.26369 -11.66055,80.38156 -18.94492,27.54748 -44.1911,48.49036 -66.5468,73.06815 -21.88434,20.99305 -35.02944,49.66498 -60.07348,67.13368 -13.60654,8.02193 -19.71728,36.32904 -35.71111,34.24746 z M 361.33334,230.66666 c -1.20875,-4.59894 -3.66129,4.9773 0,0 z m -20.36111,-3.47222 c -4.90861,-1.51228 -2.44951,2.32202 0,0 z m 37.69445,-9.19445 c 14.40737,-16.55074 -17.54295,16.74775 0,0 z m -57.33334,0.66667 c -12.82244,-5.00703 3.97331,4.36551 0,0 z m -11.02778,-4.80556 c -4.90862,-1.51227 -2.44949,2.32205 0,0 z m -5.33333,-2.66666 c -4.90861,-1.51228 -2.44951,2.32202 0,0 z m -4.97222,-3.46111 c -2.71404,-7.3513 -1.9095,9.18562 0,0 z m 89.99056,1.61527 c -0.99426,-3.11874 -5.64284,4.88918 0,0 z m 8.00944,-6.68194 c 6.82105,-9.53642 -9.95015,9.69674 0,0 z m -93.29805,-1.07583 c -5.79958,1.58377 -2.57751,3.77343 0,0 z m 4,-4 c -5.79958,1.58377 -2.57751,3.77343 0,0 z m 98.63139,-1.59084 c 0.11183,-5.10847 -6.09769,5.38053 0,0 z m 5.41578,-6.36199 c -5.9234,1.27908 -6.08283,7.43429 0,0 z m 0.74967,-4.66023 c -4.43148,-3.451 4.21617,7.27264 0,0 z m -3.19323,-1.78333 c -4.90863,-1.51228 -2.44949,2.32203 0,0 z m -8.30556,-3.19445 c -12.40109,-4.21431 5.32773,4.10695 0,0 z m -56.00944,-9.31806 c -0.99428,-3.1187 -5.64282,4.88916 0,0 z m 33.00944,0.43502 c -8.29706,-1.32267 -0.1034,2.30697 0,0 z m -26.34277,-4.43502 c -0.9943,-3.11871 -5.64282,4.88916 0,0 z m 16.31499,0.51251 c -4.90861,-1.51225 -2.44949,2.32201 0,0 z m -5.33333,-1.33333 c -4.90863,-1.51228 -2.44949,2.32203 0,0 z M 149.33334,435.87818 c 8.27171,-8.56581 37.30554,-40.90965 39.7318,-29.633 -13.87875,7.9709 -25.28353,25.75931 -39.7318,29.633 z m 42.66667,-36.54486 c 6.93018,-15.0665 29.02336,-16.60566 6.46608,-2 2.35937,1.20618 -7.41607,6.59063 -6.46608,2 z M 142,277.18372 C 95.370222,270.37134 48.523478,263.95075 2.1200845,256.40958 c 5.2101288,-11.9486 45.7071055,6.04728 63.8799175,3.73887 31.968645,5.7253 64.352478,9.82627 96.507088,14.11457 29.00925,-9.75186 -13.06161,11.58725 -20.50709,2.9207 z M 346.23705,141.16776 c -0.2544,-46.460047 -0.60381,-93.480762 5.38045,-139.4887582 6.88384,25.0884592 -1.21036,54.6570762 0.10927,81.5776922 -2.74185,15.334872 3.43929,54.699296 -5.48972,57.911066 z"
       id="path1" />
  </g>
  <metadata
     id="metadata1">
    <rdf:RDF>
      <cc:Work
         rdf:about="">
        <dc:title>GOMX4 Icon SVG</dc:title>
        <dc:source>https://space.skyrocket.de/img_sat/gomx-4__2.jpg</dc:source>
      </cc:Work>
    </rdf:RDF>
  </metadata>
</svg>
