<svg xmlns="http://www.w3.org/2000/svg" baseProfile="tiny" width="512" height="418" xmlns:v="https://vecta.io/nano"><style><![CDATA[.B{fill:#0b0a0a}.C{fill:#8e917f}]]></style><path d="M260.9 106.96l-.05-.94v-.48q.15-.81-.02-1.51-.66-21.35.11-42.73l-.02-1.85q-.19-13.15.72-26.27c.7-10.26.65-16.65.87-25.68q.05-2.1 1.02-4.31a.4.4 0 0 1 .76.14c.24 4.38.53 8.62.4 12.56q-.83 24.83-.94 38.6c-.07 9.03-1.3 17.95-1.29 28.02q.01 9.57-.54 18.03c-.15 2.31.34 4.62.52 6.8a.53.52 1.4 0 1-.59.56q-.69-.09-.95-.94z" class="B"/><path d="M260.94 61.3q-.21-.9-.02-1.85l.02 1.85zm-.09 44.24l-.02-1.51q.17.7.02 1.51zm.05 1.42l-.05-.94.05.94zm4.85 8.54q-.46 2.3-2.12 3.39-4.57 3.02-6.07 4.08a1.08 1.02 88.3 0 0-.32.36l-2 3.48a2.87 2.68-6.8 0 1-.65.77l-9.4 7.66a.92.9 29.4 0 1-.71.19l-3.1-.47a1.14 1.13-60.8 0 0-.89.26c-.77.66-.86 1.68-1.73 2.3q-3.12 2.24-5.63 4.06-3.07 2.23-6.14 4.67a.92.91 62.8 0 0-.31.97q.16.55.12.99a1.38 1.37-19 0 1-.45.92l-5.68 5.05a4.26 4.17-82.5 0 1-.51.4l-8.6 5.72a.35.35 0 0 0 .14.64q.13.02.29.01-.99.55-1.08 1.73-.38-1.06-1.17-.74a.63.62 69.6 0 0-.35.78c.88 2.53 3.76 1.98 5.43 2.69q12.88 5.49 22.95 10.12a.85.85 0 0 1-.24 1.62l-3.11.43a1.06 1.03 20.8 0 0-.53.23l-3.52 2.87a.84.82-24.9 0 0-.3.78q.18 1.07 1.44 1.54c1.61.59 3.26 2.09 5.11 2.44q4.17.78 6.95 3.23a.54.54 0 0 0 .8-.09q1.68-2.29 5.6-5.05c.72-.5.76-1.48 1.19-1.98a.8.79 37.4 0 1 1.02-.13l3.36 2.19a.43.32-8 0 0 .09.05l12.1 5.18a.6.59 1.4 0 1 .33.34q.1.24.2.33a.85.84 46.7 0 0 1.1.04l56.73-46.21a2.58 2.55 35.4 0 1 2.51-.41l94.97 34.98q27.42 10.21 69.75 26.03 2.32.87 3.45 2.05a.62.61 46 0 1-.01.86l-12.08 12.09a.33.33 0 0 0-.02.45l.17.2a.19.19 0 0 0 .28 0l3.86-3.85a1.06 1.05-70 0 1 .68-.32l2.68-.2a1.11 1.07-68.9 0 0 .69-.32l5.98-5.97a1.47 1.47 0 0 1 2.51.93l.28 3.76a.94.93-24.5 0 0 1.59.59q.63-.62.78-1.74c.4-2.84.85-6.73 4.49-7.21q-.37 2.57-1.04 5.17-.83 3.22-1.02 5.17c-1.16 12.05-.23 24.15-.08 34.04.07 4.57.94 8.99 1.32 13.56a15.52 15.45 34.6 0 0 .59 3.16l.75 2.53q-3.08.41-4.93 3.6-1.79 3.07-.24 6.63-10.68 10.09-19.06 22.09-4.57 6.54-5.68 7.86-3.65 4.38-6.83 6.86-5.6 4.36-7.84 6.66-16.85 17.21-32.57 36-1.87 2.24-8.19 11.06-7.18 10.02-12.78 14.66c-2.34 1.94-5.28 3.62-7.47 5.89-6.7 6.93-13.19 13.33-17.6 21.02q-2.45-.28-3.96.97a.74.74 0 0 0 .36 1.3q1 .14 2.67-.58l-3.32 3.98-1.43-3.37a1.03 1.02 48.6 0 1 .05-.89q1.46-2.62 3.81-3.87a1.01.94-88 0 0 .43-.43q.6-1.13.51-1.51a1.44 1.33-32.5 0 0-2.41-.44q-1.32 1.5-2.64 2.84a1.01 1.01 0 0 1-1.36.06q-1.4-1.15-1.99-3.5l-9.7-51.31q1.84.06 2.54-.63.43-.42.2-.78-.24-.38-.64-.58a1.02 1-86 0 1-.52-.61q-1.31-4.09 2.54-6.61a1.37.96-31.1 0 1 1.76.12q.42.83 0 1.53a1.13 1.12-78.2 0 1-.82.54q-2.4.35-1.71 2.8a.43.42 59.7 0 0 .7.19l2.16-2.16a1.45 1.43-20.7 0 0 .42-.91q.15-1.71-.56-2.59a.81.8 23.7 0 1-.17-.43l-.12-1.52a.98.97 15.7 0 0-.42-.74q-2.22-1.54-6.3-3.67-46.31-24.16-144.91-76.02-9.07-4.78-18.01-9.54-32.31-17.22-65.7-34.8-1.16-.61-5.76-1.93 1.96-.85 2.23-1.9a.74.72 20 0 0-.41-.85l-6.63-2.97a.09.09 0 0 1-.05-.12l.12-.28a.3.3 0 0 1 .38-.15q4.42 1.67 6.14-2.59a.7.69 23.3 0 1 .94-.37l6.68 3.06q.1.27-.35.76a1.74 1.71 13.2 0 1-.74.45q-2.68.78-4.95 2.72a.71.7 54.5 0 0-.14.89l.23.37a.58.57-42.9 0 0 .96.03q1.69-2.4 4.35-1.71a1.04 1.02 35.7 0 0 .8-.12l3.99-2.41a1.2 1.2 0 0 0-.4-2.21l-2.67-.48q.67-1.28 2.91-1.65a2.77 2.6-63.2 0 0 .91-.33q5.86-3.35 10.45-8.11a2.71 2.6 81.7 0 0 .45-.63l1.91-3.57a1.82 1.28-88.6 0 1 .2-.27q5.65-6.06 12.73-8.66c1.55-.57 2.13-1.34 2.79-2.7a1.21 1.19 3.4 0 1 .71-.62l2.86-.96a2.35.9-27.9 0 0 .3-.13q3.74-1.78 17.85-11.89 12.98-9.31 23.51-18.24 1.72-1.46 3.46-3.3a2.92 2.62-12.2 0 0 .39-.54c2.86-5.14 10.89-10.42 15.62-13q.58.43 1.09-.11 2.72-.08 4.96-1.53c4.63-3 9.85-6.75 12.37-11.82q.87-.19 1.33-.67a.86.84 56.3 0 0 .17-.9l-1.06-2.66-.63-2.68a.33.33 0 0 1 .45-.39c1.54.65 2.47 1.52 4.34 1.74q1.86.21 3.52.87zm85.43 70.61l-1.3.21a.71.7 87 0 0-.59.66c-.16 2.78-3.97 1.79-5.49 1.23a1.54 1.53 23.1 0 1-.85-2.11q.68-1.41.8-2.92a1.7 1.7 0 0 1 .68-1.23q3.64-2.7 9.07-7.86c1.68-1.6 3.64-2.85 5.7-3.18q9.73-1.56 14.11-2.47a4.7 4.68-45.1 0 1 1.94-.01q5.69 1.13 9.58 3.91.86.62 4.95 1.09a1.56 1.21 52 0 1 .28.07l7.93 2.68a.36.35 19.5 0 0 .45-.21l.09-.25a.51.51 0 0 0-.24-.63q-5.65-2.9-11.58-3.78a1.25 1.1 56.9 0 1-.39-.11l-9.42-4.19a4.02 4.01 52.4 0 0-2.31-.3l-16.71 2.69a1.17.97 23.7 0 0-.21.06q-1.99.87-3.68 2.28-11.49 9.65-14.92 12.39a.61.6-54.1 0 0 .16 1.04l1.08.41a1.5 1.5 0 0 1 .42 2.57l-2.41 1.96a1.86 1.85 22.3 0 1-1.04.43q-5.32.53-6.25 1.26-9.35 7.38-18.02 15.02a.63.63 0 0 0 .17 1.05c3.13 1.34 6.29 3.45 10.04 4.4a6.27 6.23 65.7 0 1 1.36.52q4.57 2.38 9.5 3.66a9.03 8.82-23 0 1 2 .78q5.45 2.93 10.14 4.65c2.4.88 4.69 2.61 7.37 3.28 1.73.43 3.09 1.6 4.97 2.28q4.3 1.57 6.17 2.66c2.05 1.19 4.95 1.72 6.78 2.63q5.15 2.56 10.36 5.21a7.5 7.09 65 0 0 1.26.5q3 .88 3.99 1.45 2.31 1.31 4.34 2.04 6.86 2.44 13.68 6.01c2.22 1.16 5.56 1.89 7.76 3.37a10.36 9.72 71.1 0 0 1.85.98l13.44 5.42a3.75 3.71 73.9 0 1 .84.47q.15.14 4.62 2.55a1.02 1.02 0 0 1 .24 1.62l-6.08 5.98a.45.43-38.2 0 0-.07.52l.01.01a.33.31 49 0 0 .44.04q4.61-3.78 7.67-8.2a.47.47 0 0 1 .72-.06q1.69 1.68 4.52 1.9a1.03.99-64.7 0 0 .78-.3q14.46-14.75 14.47-14.76c.66-.84 1.97-1.22 2.34-2.13q.22-.53.12-.72-.15-.28-.51-.52a.97.96 16.5 0 1-.43-.78q-.04-1.46-.87-3.03a.92.91 51 0 1 .1-.99c1.37-1.69 4.93-6.17 6.94-3.35a.78.77 40.5 0 0 1.32-.1q2-3.95 5.24-1.89a.7.7 0 0 0 .87-.09l4.66-4.67a.62.61-46.2 0 0-.01-.89l-.2-.18a.48.47-47.1 0 0-.68.03l-2.96 3.21a2.14 2.14 0 0 1-1.94.66l-.96-.17a3.83 3.82 36.6 0 0-2.31.34q-2.11 1.03-2.6 1.11-.72.13-.61-1.43a.5.49-21.6 0 0-.86-.37l-1.77 1.93a2.62 2.61 31.6 0 1-2.84.67l-3.73-1.41a.52.52 0 0 0-.55.85q1.3 1.33 3.39 2.11a.37.37 0 0 1 .16.58l-2.25 2.82a1.42 1.37-27.1 0 0-.31.9q.01 2.8 1.46 3.91a.55.54-49.2 0 1 .05.82l-15.41 15.41a1.05 1.04-42 0 1-1.55-.08l-1.66-2.04a1.2 1.19 26.5 0 0-2.12.71q-.01.23-.02.25a1.74 1.52 33.2 0 1-2.56.36q-1.47-1.21-3.32-1.89a.47.47 0 0 1-.31-.47q.01-.23.06-.3a1.3 1.19 3.5 0 0-1.68-1.74q-.01 0-1.24.53a.81.79 43.4 0 1-.61.01l-4.38-1.65a.79.78 12.8 0 1-.5-.78q.03-.52.19-.82a.74.74 0 0 0-.13-.85c-2.34-2.36-4.14-4.67-7.08-3.27a.39.39 0 0 0 .12.74q2.56.29 4.08 2.17.31.38.19.93a.54.54 0 0 1-.72.39l-4.55-1.72a.99.99 0 0 1-.64-.78q-.34-2.04-.34-2.07a1.2 1.19 49.4 0 0-2.28-.18q-.34.85-1.68.46-.49-.15-3.74-1.64a.81.81 0 0 1-.39-1.09q.43-.89.36-1.05-.34-.79-1.44-1.59-4.21-3.01-5.87-2.08a.85.85 0 0 1-.96-.08c-2.18-1.79-3.6.61-5.47-.03q-1.91-.66-3.06-1.49a.87.86 24 0 1-.34-.87q.31-1.61-.71-2.21-3.77-2.22-4-2.3a1.45 1.36 77.7 0 1-.57-.39q-1.96-2.18-4.76-.22a1.13 1.13 0 0 1-1.15.08c-2.71-1.35-4.88-2.12-5.31-3.18q-.45-1.11-.68-1.24a.51.51 0 0 0-.74.33q-.3 1.35-.66 1.46a1.8 1.76 43.9 0 1-1.09.01q-2.79-.84-4.8-2.51a.66.66 0 0 1 .15-1.11q1.72-.76 2.62-1.48a.38.38 0 0 0-.4-.64q-1.25.58-2.63.32a.55.55 0 0 0-.62.35l-.42 1.11a.93.93 0 0 1-1.21.54l-4.49-1.69a.88.88 0 0 1-.51-1.13l.26-.67a.95.95 0 0 0-.25-1.03q-3.03-2.75-4.09-3.05-2.62-.74-4.28-1.93-3.67-2.62-5.04-3.42a.46.46 0 0 0-.66.23l-.13.36a.98.97 20.9 0 0 .57 1.26l4.08 1.54a1.35 1.35 0 0 1-.59 2.61q-2.38-.22-4.62-1.88a1.13 1.12-66.3 0 1-.43-1.11q.02-.1.02-.14a.99.99 0 0 0-.42-.99q-2.38-1.66-5.21-1.81a1.25 1.23 58 0 1-.46-.11l-1.94-.86a1.94 1.9 47.9 0 0-1.34-.08q-3.25 1.04-5.5-1.74a1.24 1.19 60.7 0 1 .5-1.93q.03-.01.56-.06a1.55 1.53-33.3 0 1 .9.18q2.28 1.23 3.15 1.43a.81.81 0 0 0 .67-1.43q-1.68-1.3-4.37-1.79a1.17 1.13-58.6 0 0-.94.24l-3.04 2.48a1.25 1.2 29.9 0 1-.99.25q-3.44-.6-4.76-3.39a2.24 2.24 0 0 1 .6-2.69l12.9-10.66a5.53 5.38-73 0 1 1.8-.99q1.27-.46 4.95-1.02c1.49-.23 2.73-1.79 3.98-2.45a1.65 1.64 43.4 0 1 1.42-.04q3.65 1.63 6.73.08a.81.8-30.9 0 1 1.03.25q1.11 1.52 3.89 2.91a.99.94 48.3 0 0 .73.06l3.8-1.28a.69.67 45.7 0 1 .44.01l3.84 1.45a1.52 1.51-1.9 0 1 .84.78q1.68 3.64 6.44 5.16a1.16 1.12-9 0 1 .54.38c1.92 2.44 6.1 5.17 8.75 2.5q.2-.2.21-.2.18.04.34.14a.41.41 0 0 0 .52-.07q.94-.97.88-2.1a1.13 1.11-78.4 0 0-.6-.93q-.71-.36-2.25-1.46c-.89-.64-2.4-.53-3.32-1.47a.27.26 47.2 0 1 .01-.38q.23-.19.23-.23a.28.28 0 0 0-.38-.33q-1.51.69-2.72-1.06-.41-.59-1.56-.95c-2.91-.9-4.39-3.54-6.96-4.46q-3.25-1.16-6.88-.91a2.19 2.15-32.9 0 1-1.13-.23c-1.87-.93-3.6-2.15-5.2-1.85a.13.13 0 0 0-.05.23q.18.14.25.23a.21.2 66.2 0 1-.12.33zm-166.97 16.15c-2.8 2.5 1.63 7.4 3.61 8.72q2.24 1.49 6.37 1.56 6.5.12 9.23-.43 2.55-.52 9.7-3.54a5.06 4.93-76.7 0 0 1.43-.91q2.07-1.87 6.09-4.51c3.15-2.08 5.37-5.85 6.61-9.15a.9.89 35.7 0 0-.15-.88c-1.27-1.53.21-4.32.74-5.63 3.54-8.67-7.12-12.55-13.55-12.03a2.97 2.91-33.8 0 1-1.55-.29l-7.14-3.51a2.88 2.8 83.8 0 1-.98-.81l-.66-.89a.38.37-40.2 0 0-.56-.04l-.31.29a.41.41 0 0 0 0 .6c2.02 1.85 3.6 2.35 6.91 3.63a.66.66 0 0 1-.15 1.27q-13.32 1.88-22.46 11.04-6.51 6.53-2.98 14.59a.81.81 0 0 1-.2.92zm227.38 8.85l.06-.19a.28.28 0 0 0-.31-.37q-2.63.49-3.89-.66a1.3 1.28 59 0 0-1.17-.3q-1.37.33-1.25-.66a.55.55 0 0 0-.81-.56q-1.77.95-3.03-.42a.71.7 48.1 0 1 .05-1l13.44-11.86a1.37 1.34-67.1 0 1 .81-.34l3.44-.25a.13.04-28.2 0 0 .05-.01l13.17-1.74a1.54 1.51 25.6 0 0 .56-.19q1.16-.69 4.04-1.21a.81.8 68.9 0 1 .83.37q.46.75 1.21.78 5.37.18 8.84 4.21a1.51 1.49-14.4 0 0 .86.5q1.66.31 2.96.13c2.84-.4 6.76 1.79 9.17 3.18a1.1 1.09-50.7 0 0 1.27-.13l.26-.23a.67.67 0 0 0-.14-1.11q-3.22-1.63-7.33-3.11c-1.96-.71-5.02.1-6.72-1.15q-3.51-2.59-4.6-2.92-4.2-1.27-6.11-1.86a1.28 1.28 0 0 0-.59-.04l-19.54 3.15a1.41 1.41 0 0 1-1.61-1.16c-.5-2.92-1.98-11.7-4.85-12.65q-4.58-1.51-5.44-1.72a1.93 1.55 22.3 0 0-1.88.56q-.32.45-1 .59a1.14 1.08 53 0 1-.73-.12l-2.84-1.54a.56.55-5 0 0-.7.83c1.38 1.73 2.89 1.89 5.32 1.45 3.63-.65 7.4-.03 8.44 3.84q1.39 5.19 2.48 10.3a1.04 1.03 63.5 0 1-.33 1l-13.68 12.08a1.62 1.61-51.4 0 1-1.84.21l-2.92-1.59a.54.53-74.4 0 0-.79.45q-.05 1.32-1.73 1.83a1.48 1.46 47 0 1-.97-.04l-3.57-1.35a.12.12 0 0 1-.07-.15q.01-.02-.01-.14a.31.3 70.1 0 0-.46-.22q-.18.1-.36.35a.23.23 0 0 0 0 .28l2.07 2.51a2.32 2.27 21.2 0 1 .48 1.06q.04.97-1.47 2.52a1.11 1.1-38.7 0 0-.15 1.33l1.39 2.29a.94.94 0 0 1-.16 1.17l-14.33 13.44a.32.31 47 0 0-.01.44l.22.24a.43.43 0 0 0 .64-.02q6.3-7.24 13.94-13.48a1.76 1.75-55.8 0 1 1.65-.32q6.26 2.01 10.83-3.04a1.11 1.09-61 0 1 1.11-.33q1.75.49 3.47 1.94a.89.87 58.4 0 0 .77.19q3.05-.65 4.24-3.32a.44.44 0 0 0-.65-.54q-.76.51-1.4 1.49a.99.97-80.9 0 1-.5.37l-2.01.63a.4.4 0 0 1-.49-.51q.01-.05.02-.07a.88.87 18 0 0-.49-.96q-.97-.45-1.59-.49a1.61 1.42-51.3 0 1-.14-2.95q1.24-.52 1.88.05c1.22 1.1 2.49.8 3.93.76a.3.3 0 0 1 .31.29q0 .13.01.19a.23.23 0 0 0 .44.02zm-244.72-21.26l.29.28a.67.66 47.7 0 1-.04 1q-2.93 2.34-4.18 3.05a.83.64-17.6 0 1-1.21-.44q.02-.6-.61-.39a3.05 2.09-14.3 0 0-2.18 2.49q.16 1.54-.01 2.36a.44.44 0 0 0 .49.52q1.59-.2 3.09-1.24 5.66-3.93 9.45-7.74a1.18.55-64.9 0 1 .18-.15l6.71-4.63a.6.59-32.7 0 0 .18-.8l-.2-.33a.86.86 0 0 0-1.25-.25l-7.09 5.24a1.36 1.35-52.2 0 1-1.31.17q-2.66-1.06-2.46.55a.53.51 19.9 0 0 .15.31zm265.788 8.214a.65.65 0 0 0-.909-.134l-12.395 9.206a.65.65 0 0 0-.134.909l.024.032a.65.65 0 0 0 .909.134l12.395-9.206a.65.65 0 0 0 .134-.909l-.024-.032zm34.792 5.207l-5.09-2.08a.11.11 0 0 0-.14.06l-.01.02a2.67 1.74 22.3 0 0 1.81 2.63l.35.14a2.67 1.74 22.3 0 0 3.13-.59l.01-.03a.11.11 0 0 0-.06-.15zm8.34 23.08h.7a1.04 1.04 0 0 0 .77-.34l5.61-6.09a1.27 1.25 57.2 0 0 .26-1.24l-4.03-12a4.25 4.24-2.9 0 0-3.07-2.77l-2.79-.63a2.08 2.01 66.9 0 1-.69-.29q-1.62-1.04-3.17-1.37a.74.73 10.9 0 0-.88.59v.05a.86.85 12.7 0 0 .54.85l3.76 1.45a.86.79-33.3 0 0 .36.06q3.27-.14 4.11 2.37 2.08 6.15 3.75 10.61a2 1.99-31.8 0 1-.51 2.15l-2.41 2.27a.33.28 84.8 0 0-.09.13q-.63 1.54-2.55 3.4a.47.46 22.8 0 0 .33.8zm-190 7.69q-.3-.52.27-1.49a.98.87 86.4 0 1 .14-.18l16.3-14.12a1.53 1.51 34.7 0 1 1.53-.27l2.71 1.02a.28.28 0 0 0 .36-.35q-.97-2.73-3.67-3.23a.54.53-59.8 0 0-.43.12l-18.4 15.81a1.57 1.57 0 0 0-.49 1.64c1.1 3.67-.79 4.9-3.4 6.75a.49.49 0 0 0 .27.89q2.07.05 4.41 1.98a.44.43-41 0 1-.05.71l-1.09.67a1.19 1.19 0 0 0 .51 2.2q.02 0 .43-.19a.54.53-79.1 0 0 .16-.11l1.23-1.2a1.1 1.09-52.6 0 1 1.28-.18l3.17 1.73a.92.92 0 0 1 .47.95q-.12.79-.96 1.46a.45.45 0 0 0 .09.76l1.26.57a.33.31 80.3 0 1 .12.09q1.68 2.03 4.81 3.08a.54.54 0 0 1-.15 1.05q-4.4.14-6.42-3.66-.86-1.63-4.05-2.66-.17-.06-.42.08-.22.11-.3.27-.35.66.25.98 3.55 1.87 6.69 5.23a1.5 1.5 0 0 0 .91.47l2.93.41a1.7 1.52-26.4 0 1 .4.11l7.82 3.1a1.61 1.6-87.4 0 1 .94 1.04c.81 2.8 2.73 1.78 4.4 3.09q1.5 1.18 2.76.62a1.26 1.25 38.2 0 1 .77-.09c2.01.42 3.49 1.78 5.36 2.14q1.52.29 1.53.29a.82.82 0 0 0 .3-1.56l-4.65-2.08a.67.54 51.5 0 0-.26-.06c-3.82-.04-7.08-.35-9.58-3.4a.66.66 0 0 1 .16-.98q.2-.13 1.4.24a.41.4-88.5 0 0 .51-.49q-.35-1.4.84-2.49a.6.59-50.2 0 0-.08-.94l-5.39-3.45a1.77 1.74 87.8 0 1-.52-.49l-.34-.49a.71.69 64.7 0 0-.73-.27q-1.15.29-2.22-1.04c-1.22-1.53-3.3-2.92-5.29-2.29q-1.07.33-1.74.35a1.25 1.25 0 0 1-.93-.39q-2.1-2.16-3.94-2.78a1.3 1.28 84.6 0 1-.7-.59q-.36-.63-2.1-1.83a1.16 1.15-72.7 0 1-.51-.98q.03-1.25.97-2.26a2.87 2.76 52.1 0 0 .35-3.31zm25.39-13.91a1.52 1.18 75.6 0 0 1.81 1.4q.27-.15 1.58-.91a.31.3-49.8 0 0-.04-.55q-1.72-.63-2.78-.45a.72.69-76.4 0 0-.45.29q-.12.18-.12.22zm5.6 1.32q.2.23.5.32a.33.33 0 0 0 .34-.54q-.13-.14-.63-.18a.25.24-17.5 0 0-.21.4zm17.19 12.82c-.33-2.56-4.27-4.42-6.23-4.71a.64.64 0 0 1-.24-1.18l1.35-.82a.59.59 0 0 0-.35-1.1q-1.29.1-2.37.67a1.09 1.09 0 0 1-1.06-.03l-3.38-2.07a.85.85 0 0 1 .23-1.55l1.93-.51a.33.33 0 0 0 .23-.42v-.02a.32.31 67.9 0 0-.41-.18q-2.32.97-4.39.36a.4.4 0 0 0-.51.44q.13.92.12 1.05-.04.66.81 1.13.67.36 1.73 1.41a2.94 2.87 72.3 0 0 1.46.78l2.4.5a.77.76 14.9 0 1 .57.97q-.32 1.02-1.83 1.14a.3.3 0 0 0-.28.31v.01a.17.16.1 0 0 .16.15q1.19.04 1.9-.32a1.25 1.23-40.5 0 1 1.29.09c2.08 1.51 4.25 2.13 6.09 4.25a.45.45 0 0 0 .78-.35zm31.647-7.17a1.48.56-167.1 0 0 1.318.876 1.48.56-167.1 0 0 1.568-.215 1.48.56-167.1 0 0-1.318-.876 1.48.56-167.1 0 0-1.568.216zm108.953 78.45q.7-.18 1.15-.95a4.43 4.25-10.1 0 1 .57-.78q10.48-11.53 13.49-15.02 1.87-2.18 2.33-3.49 3.09-8.97 6.33-15.85a2.81 2.79-39.3 0 0 .19-1.82q-.55-2.32.15-5.13a.63.63 0 0 0-.99-.66q-.54.41-.38 1.39c.53 3.28.28 5.53-1.22 8.94q-2.77 6.26-4.24 10.7c-.49 1.48-1.88 3.75-2.76 4.81q-6.3 7.66-11.91 12.53-1.05.91-1.8.54-.58-.29-.55-1.43c.04-1.41-.12-3.41 1.4-4.16a.73.72-22.3 0 0 .37-.87q-.27-.81-1.42-.83a.64.64 0 0 1-.63-.58q-.27-2.83.54-4.85.13-.31.54-.52.5-.24.54-.52a.68.67-78.4 0 0-.48-.73q-2.75-.77-1.97-4.34a.61.6-74.3 0 1 .78-.44q1.04.36.96 2.09a.29.29 0 0 0 .32.31l.32-.02a.2.18-88 0 0 .17-.17q.17-1.78-.29-3.76a.7.69 80.8 0 0-.73-.53l-.66.05a.84.83 79.1 0 1-.86-.59q-1.11-3.65.86-5.64a1.04 1.01 62.7 0 0 .27-.89q-.54-3.04.13-6.83a1.21 1.17-9.9 0 0-1.77-1.2q-.3.17-.32.17a.41.41 0 0 1-.44-.44q.29-3.51.44-4.23c.23-1.11 1.02-1.18.91-2.44a.4.39 79.8 0 0-.5-.35q-.88.25-1.16-2.18c-.14-1.23-.59-2.83.76-3.39a.84.83-13.4 0 0 .52-.84l-.2-2.71a2.06 2.04-26.1 0 1 .54-1.55l13.09-14.23a2.31 2.3-58.4 0 1 2.5-.6l4.93 1.87a1.85 1.69 74.2 0 1 .58.36l1.16 1.06a.99.99 0 0 0 1.65-.64q.1-1.13-.53-1.3-5.08-1.31-8.44-2.45-.36-.13-.53-.41-.51-.8-1.09-.41a.85.54-5.8 0 0-.14.11l-15.99 16.74a2.26 2.16 7 0 1-.63.47q-1.72.91-2.59 2.43-1.1 1.93-2.38 3.1-3.1 2.84-6.12 5.63-3.95 3.67-7.51 7.9a2.03 2.02-27.1 0 0-.47 1.45l.03.45a.56.56 0 0 0 .94.37q6.62-6.11 11.27-12.93a.34.33 60.3 0 1 .61.17l3.5 46.19a1.03 1.01-71 0 0 .32.67l1.82 1.67a.22.22 0 0 0 .37-.17l-3.79-50a1.84 1.83-33.2 0 1 .21-1l2.57-4.72a1.05 1.04-41.6 0 1 1.89.11c.76 1.92-.54 3.56-.19 5.69q.59 3.52.58 9.1 0 1.93.63 2.93a1.99 1.9 31.8 0 1 .3 1.16q-.15 2.64.01 4.11c.27 2.54-.44 4.82.21 7.37.64 2.47-.76 4.89.7 7.4a1.37 1.35 35.1 0 1 .16.87l-.19 1.1a8.41 8.18-44.2 0 0-.06 2.22q.63 5.65.6 10.13 0 .45.51 2.34.25.95-.44 1.98a.6.6 0 0 0 .65.91zm-140.95-74.82q.06.31 1.77 1.78.9.76 2.19 1.01 2.11.39 4.55 1.62a1.88 1.87-48.3 0 0 1.9-.12l.25-.17a.6.59 40.1 0 0-.09-1.04l-9.23-4.14a.97.96-83.3 0 0-1.34 1.06zm16.42 9.65q-1.32-1.51-1.41-1.54c-2.5-.81-3.87-2.51-6.76-2.3a.51.51 0 0 0-.1 1l3.27.95a1.12 1-9.9 0 1 .51.32q1.5 1.66 4.23 2.04a.29.28-16.5 0 0 .26-.47zm146.6 19.72q-.2-1.42.81-3.19c2.26-3.94.65-8.51-.6-12.5-.27-.87-.01-1.83.61-2.43a1.25 1.25 0 0 0 .31-1.29l-.39-1.15a1.18 1.13 49.1 0 1 .04-.83q.58-1.27-.3-2.11a.66.66 0 0 0-1.08.69l.79 2.36a1.08 1.07 46.8 0 1-.02.75q-1.04 2.56-.9 3.6c.79 5.75 1.87 10.06-.36 14.79a.61.61 0 0 0 .56.87q.1 0 .16-.33a.17.17 0 0 1 .32-.05q.19.36.19.88.01 1.02-.14-.06zm-150.75-1.24l15.35-14.4a1.38 1.37 28.3 0 1 1.18-.35q2.08.38 3.66 1.87a.76.75 50 0 0 .94.09q.95-.62 1.24-1.2a.92.75 17.4 0 0-.73-1.1q-5.05-1.02-9.05-3.85a.47.47 0 0 0-.74.32q-.14.89-.41 1.05-.4.25-1.05-.24-1.61-1.18-2.89-1.41a.95.94 87.4 0 1-.73-.67q-.58-1.98-2.63-2.31a.69.69 0 0 0-.79.62l-.01.05a.96.96 0 0 0 .65 1q1.67.57 2.12 1.44.6 1.16 1.76 1.27c1.08.11 2.05 1.42 3.36 1.48q.95.04 1.28-.07a1.17 1.17 0 0 1 .93 2.13q-1.85 1.05-2.51 2.38a1.78 1.76-9.7 0 1-.38.53l-10.69 10.32a1.76 1.75 15.1 0 1-.75.43q-3.57.97-7.21 1.17-1.14.06-3.49 1.21a1.86 1.79 6.8 0 0-.57.43c-1.68 1.89-4.48.19-6.58-.91a1.27 1.25-37.8 0 0-.93-.11c-2.23.6-4.42 1.21-4.33 3.52a1.16 1.14 57 0 0 2.18.49q.5-1.07 2.09-1.82a1.17 1.16 46.4 0 1 1.05.03q1.91 1.06 3.43 1.29a.59.58 11.4 0 1 .48.71c-.48 2.13-.99 3.33-3.56 1.9q-1.95-1.08-3.22-1a.31.3-4.5 0 0-.29.33l.03.37a.59.58 2.5 0 0 .5.54q2.53.35 3.88 1.72a2.29 2.09-56.3 0 0 3.52-.88q1.65-3.7 5.43-5.48a.58.46-52 0 1 .24-.06l4.81-.28a1.06 1.05 11.4 0 0 .87-.57q.18-.34.33-.43a.68.68 0 0 1 .96.33c2.08 4.76-.07 5.43-2.93 8.17a.4.4 0 0 0 .13.66l4.11 1.55a.53.52-81.4 0 0 .71-.53c-.19-3.51 1.26-6.66-.91-10.8a.79.78-35.7 0 1 .16-.93zm122.416-21.684a1.76 1.08-33.6 0 0-2.064.074 1.76 1.08-33.6 0 0-.868 1.874 1.76 1.08-33.6 0 0 2.064-.074 1.76 1.08-33.6 0 0 .868-1.874zM261.78 272.71c-2.43.81-2.78-.86-3.5-2.57q-.45-1.08-.45-1.21.11-3.01.08-10.89a3.86 3.85-21.2 0 1 1.28-2.89q5.08-4.58 8.57-7.08c2.44-1.75 4.95-4.24 6.6-5.79q1.21-1.14 3.53.42a.55.55 0 0 0 .84-.3q.04-.12.02-.45-.02-.34-.04-.37-1.42-1.82-3.48-2.18a.42.4 28.2 0 0-.33.09l-18.97 16.75a.81.8-22 0 0-.27.62l.59 13.72a2.7 2.69-76.8 0 0 1.38 2.23l8.8 4.9a.2.04 10.9 0 0 .05.02q6.59 2.55 12.34 6.17c2.39 1.51 5.32 2.67 7.24 3.62a.57.57 0 0 0 .76-.78q-.4-.75-.43-.9a1.33 1.06 20.6 0 1 2.19-.72q.67.65-1.26 2.16a.59.59 0 0 0 .08.98l4.43 2.41a1.41 1.38 54.4 0 0 .91.16l23.3-3.75a.44.44 0 0 1 .51.39l1.46 16.05a.59.56 16.8 0 0 .24.42q3.9 2.74 6.25 3.58a3.2 3.11-14.9 0 1 .91.51q2.18 1.74 9.68 4.94c4.85 2.07 10.31 6.07 15.52 8.23q4.03 1.67 7.19 3.9c1.41 1.01 2.79-.22 4.27-.36q4.16-.38 11.99-1.69.57-.1 2.35-.73a2.99 2.84 34.7 0 1 1.17-.18q3.37.14 6.73-1.56a1.41 1.36-79.8 0 0 .36-.26l6.41-6.44a.87.86-27.2 0 0 .25-.77l-.06-.36a.48.48 0 0 0-.79-.29q-2.3 2.04-4.64 4.5-3.11 3.26-8.68 3.13a4.22 4.2 36.3 0 0-1.46.22l-2.25.76a.45.45 0 0 1-.54-.21q-.73-1.28-4 1.58a.9.7-21.4 0 1-1.45-.43q.03-.18-.69-.47a.9.89-56 0 0-.96.19q-2.19 2.14-5.45.01a.96.96 0 0 1-.14-1.5l12.42-11.89a.96.9-13.5 0 0 .21-.32q.5-1.3 2.48-2.28a.26.26 0 0 0-.05-.49q-1.15-.3-1.76.31-6.65 6.57-13.48 13.22-1.5 1.46-2.78.14a.93.91-31.8 0 0-.97-.22q-1.36.48-1.69 1.7a1.09 1-46.9 0 1-2.02.15q-.41-1.59 1.65-2.7a.6.6 0 0 0-.43-1.11q-.54.13-.93.42a.72.72 0 0 1-.96-1.06q.91-.99 5.39-4.71a3.55 2.77-7 0 0 .43-.43q1.56-1.82 2.74-2.41c2.02-1.01 2.49-2.78 4.64-3.84a1.54 1.5-89.6 0 0 .7-.71q1.05-2.27 3.65-4.03a4.37 3.98 2.6 0 0 .59-.49q4.74-4.67 4.84-4.8.53-.71.48-1.18a.83.77-25.4 0 0-1.35-.43q-.4.35-.67 1.03a2.04 1.98 77.8 0 1-.4.64q-6.61 6.94-14.6 13.36-1.33 1.06-3.39 3.17-1.42 1.46-3.22 3.36-.64.67-1.06.59-.71-.14-1.13-.78a.82.81 67.8 0 0-.83-.35c-2.02.38-3.23-2.82-5.17.07a.74.74 0 0 1-.91.28q-3.6-1.45-6.39-3.2a1.57 1.27 35.5 0 1-.58-2.09q.39-.45.37-1.73a.96.93-80.1 0 0-.58-.85q-2.48-1.03-3.22-2.23a.95.94 71.4 0 0-.9-.45q-.88.08-1.86-.48a.69.67 33.5 0 0-.89.17q-.91 1.18-2.74 1.01a.51.5 5.2 0 0-.55.45q-.02.18-.08.3-.16.33-.66.37-2.26.17-3.27-1.37c-1.16-1.75-1.99-4.71-2.12-6.96q-.29-5.19-.51-8.67a1.35 1.34-72.9 0 0-.51-.97q-.4-.32-.92-.44a.81.8 30.8 0 1-.35-1.38q6.76-6.08 13.12-11.43 2.16-1.81 3.22-3.82.69-1.3 5.44 1.32a.82.82 0 0 0 .97-.12l.3-.28a.81.81 0 0 0-.13-1.28q-2.98-1.85-5.6-2.72a1.41 1.28 5.7 0 0-1.86 1.37q.2 1.18-.76 2.1-5.76 5.48-15.07 13.19a3.82 3.69 13.1 0 1-1.05.63q-2.24.92-4.71 1.19-6.1.65-10.86 1.83-2.65.65-4.65.88a1.15 1.09 81.3 0 1-1.2-.93c-.44-2.25-3.17-2.24-4.71-3.57q-1.25-1.08-2.52-1.37-.81-.18-2.47-1.84-.83-.83-3.63-1.45a.96.95 26.8 0 0-.92.3q-.53.6-.92.74a2.07 2.06 47 0 1-1.54-.06l-4.78-2.15a1.07 1.07 0 0 1-.63-.93q-.01-.05.04-.37a.88.88 0 0 0-1.43-.81l-1.19.97a1.07 1.06-50.1 0 1-1.19.11l-3.01-1.63a1.37 1.37 0 0 1-.15-2.31l2.63-1.89a.14.13-28.2 0 0 .05-.15l-.06-.24a1.1 1.08 86.2 0 1 .47-.55l22.29-13.47a.28.28 0 0 0-.23-.5q-3.67 1.27-8.15 4.08-5.42 3.4-12.8 8.43c-2.79 1.89-4.16 2.43-7.41 3.51zm106.71-24.6l1.5-.24a.532.532 0 0 0-.09-1.06h-1.37a.56.55 0 0 0-.56.55v.31a.45.45 0 0 0 .52.44zm5.17 3.86q2.67.55 6.67 3.38a.54.54 0 0 0 .85-.38q.04-.36-.09-.62a.6.59-25.7 0 1 .29-.8q.83-.38 1.52 0a1.21 1.14 87 0 1 .45.43q1.55 2.5 4.37 2.31a.48.48 0 0 0 .28-.84q-1.93-1.68-3.19-1.78a.58.58 0 0 1-.54-.58v-1.12a.88.86-79.9 0 0-.56-.82l-1.6-.6a.42.41 4 0 0-.56.48q.32 1.35.01 1.5a3.22 2.79-35.1 0 1-3.31-.34q-1.6-1.43-4.48-1.38a.59.59 0 0 0-.11 1.16zm21.11 4.59q1.64.43 3.24 1.37a1.02 1.01 13.4 0 1 .49.79c.24 3.05 4.97 4.02 7.97 4.71a1.53 1.23 12.7 0 1 1.21 1.53q-.18.8-1.13 1.27a.35.34 39.2 0 0 .07.64q2.73.76 6.22 2.65 1.15.63 2.51.38a.54.54 0 0 0 .19-.99q-3.52-2.31-6.99-2.51a.47.47 0 0 1-.36-.73q.81-1.19 1.98-1.99a.41.4 39.7 0 0-.07-.71q-9.02-3.96-15.09-6.9-.3-.14-.5-.09a.4.25 33.7 0 0 .26.58zm-99.657 2.366a.7.7 0 0 0-.956-.258l-20.962 12.053a.7.7 0 0 0-.258.956l.01.017a.7.7 0 0 0 .956.258l20.962-12.053a.7.7 0 0 0 .258-.956l-.01-.017zm96.307 1.454c3.13-.17 4.98 2.28 7.01 3.53a.37.37 0 0 0 .53-.48c-1.33-2.73-4.53-5.23-7.74-3.89a.44.44 0 0 0 .2.84zm31.52 10.41l-2.6-1.41a2.37 2.3 90 0 1-.95-.98q-1.04-2.03-3.79-3.16a.12.12 0 0 0-.16.13l.35 2.22a.57.57 0 0 0 .4.45q1.84.53 4.56 2.95 1.31 1.15 2.24.39a.36.35-50.3 0 0-.05-.59zm7.91-1.28a.97.93 41.4 0 0 1.88-.08q.04-.47-.95-.35-1 .11-.93.43zm-38.93 28.54q.28.66.92.75 2 .26 2.42 1.52a.91.88 89.8 0 0 .58.59q1.11.35 1.94-.5a1.01.98 22.2 0 1 .74-.3q1.5.03 1.66 2.29a.27.26 72.3 0 0 .4.21q1.07-.66 1.56-.47a.5.5 0 0 1 .2.8c-2.32 2.65-6.88 6.17-8.3 10.39a.61.61 0 0 0 .58.8h1.68a.42.41-9 0 0 .4-.54q-.43-1.31.22-2.68a1.1 1.03 81.8 0 1 .21-.3l7.97-7.97a.38.37-52.3 0 0-.07-.58l-5.33-3.25a.75.75 0 0 1-.17-1.14q1.15-1.27 2.21-2.71c2.21-2.98 6.2-.28 7.96-3.03a1.12 1.11-73.6 0 1 .94-.52h3a.43.43 0 0 0 .43-.42q.02-.91 1.98-2.94 2.69-2.78 13.54-13.35a1.09 1.07-63 0 1 .87-.29q.31.05.47.02a.42.42 0 0 0 .32-.61l-.91-1.76a.86.86 0 0 0-.85-.46q-2.19.24-3.07-1.81a.48.48 0 0 0-.8-.12q-1.56 1.82-1.75 2.64a.56.56 0 0 0 .84.6q2.07-1.28 2.41-.52.42.96-.27 1.7-6.09 6.61-14.4 14.52-2.75 2.62-6.73 2.84-.8.04-4.68 1.65-.48.19-.75.61-.37.58-.76.67a.84.83-31.3 0 1-.76-.18q-2.09-1.79-6.04-1.81a.37.32-49.7 0 0-.18.03l-3.33 1.23a.69.69 0 0 0-.44.64v.99a.41.41 0 0 0 .65.33q4.56-3.22 9.15.68a.8.79 42.8 0 1 .05 1.16l-1.78 1.78a.92.92 0 0 1-1.27.03q-1.54-1.37-3.34-1.62a.3.3 0 0 0-.32.41zm-123.961-25.553a1.7.94-146.7 0 0 .905 1.719 1.7.94-146.7 0 0 1.937.148 1.7.94-146.7 0 0-.905-1.719 1.7.94-146.7 0 0-1.937-.148zm89.901 4.673q2.3-.37 4.73 1.71a.72.72 0 0 0 .95-1.07l-.81-.74a1.36 1.34-14.4 0 0-.48-.28q-1.57-.47-2.5-1.27a1.07 1.04-28.3 0 0-.84-.24l-3.66.59a.75.74 82.6 0 0-.62.81q.09.87-.98 1.5a.58.58 0 0 0 0 1l2.03 1.2a.7.7 0 0 1 .24.24q1.32 2.21 3.72 1.95.6-.06.68-.3a1.08 1.05 13.2 0 0-.86-1.34q-2.26-.38-2.35-.41a1.19 1.19 0 0 1-.72-.72q-.51-1.44.82-2.37a1.47 1.42 22.3 0 1 .65-.26zm13.79 5.05l-3.63-.87a.13.13 0 0 0-.16.09l-.01.06a1.85 1.41 13.4 0 0 1.47 1.8l.29.07a1.85 1.41 13.4 0 0 2.13-.94l.01-.06a.13.13 0 0 0-.1-.15zm7.64 12.15q1.11 1.2 2.54.99a.53.48-31.2 0 1 .31.06l5.28 3.22a.39.39 0 0 0 .52-.1q.61-.86-1.16-1.63a1.84 1.77-7.4 0 1-.66-.49q-2.43-2.95-6.54-2.75a.42.42 0 0 0-.29.7zm46.17-.66l-11.71 12.48a.15.15 0 0 0 0 .21l.07.07a4.4 1.41-46.8 0 0 4.04-2.24l5.91-6.28a4.4 1.41-46.8 0 0 1.98-4.18l-.07-.06a.15.15 0 0 0-.22 0zm-14.373 1.746a2.23.96-42.4 0 0-2.294.795 2.23.96-42.4 0 0-1 2.213 2.23.96-42.4 0 0 2.294-.795 2.23.96-42.4 0 0 .999-2.213zm-16.666 6.523a.26.26 0 0 0-.368-.003l-16.12 15.841a.26.26 0 0 0-.003.368l.449.457a.26.26 0 0 0 .368.003l16.12-15.841a.26.26 0 0 0 .003-.368l-.449-.457zm71.719 4.101l-1.17-.95a.27.27 0 0 0-.38.04l-7.86 9.68a2.56.74-50.9 0 0-1.04 2.45l.43.35a2.56.74-50.9 0 0 2.19-1.52l7.87-9.67a.27.27 0 0 0-.04-.38zm-75.45 24.54q-7.06 4.96-10.59 11.39a2.21 2.2-37 0 0-.22 1.54l1.92 8.23q.13 3.22 1.14 6.2a5.11 4.55 35.3 0 1 .21.91q.99 8.65 2 11.85.99 3.11.5 4.29a1.34 1.34 0 0 0 0 1.02q1.76 4.42 2.18 10.48a1.42 1.42 0 0 0 1.7 1.29q2.82-.59 8.87-.88c1.93-.09 2.72.48 4.26-1.3q6.11-7.06 16.2-17.94a1.33 1.32 65 0 0 .35-.97q-.07-1.33-1.21-2.32a.71.71 0 0 0-1.11.82q.52 1.2-.11 2.6a.4.23-29.9 0 1-.07.12l-14.66 15.93a3.21 3.18-70.7 0 1-2.09 1.02l-8.2.62a.24.23-60.6 0 0-.13.04q-1.01.65-2.13.53a.68.68 0 0 1-.59-.8q.43-2.25.04-4.02a.8.79 69.9 0 1 .39-.86q1.55-.88 1.82-1.5.98-2.28-.61-3.9a.35.35 0 0 0-.6.28l.27 3.55a.94.94 0 0 1-1.69.63c-1.07-1.44-2.5-4.41.43-5.24a.37.37 0 0 0 .22-.55l-2.3-3.81a1.98 1.98 0 0 1 .32-2.46q3.31-3.15 1.44-7.04a.47.47 0 0 0-.89.24l.27 3.57a1.38 1.37-59.5 0 1-2.62.68q-.68-1.5.12-4.61.15-.59.75-.63.8-.05 1.06-.22a.77.76 64 0 0 .29-.87q-.59-1.67-2.28-1.15a.88.88 0 0 1-1.13-.76q-.18-2.11 1.11-2.2a.44.44 0 0 0 .35-.67l-.65-1.07a.94.93 40.3 0 1-.07-.81l7.77-20.57a1.77 1.74-14.2 0 1 .36-.59l15.89-17.27a.88.88 0 0 1 1.52.6v1.54a.32.32 0 0 0 .36.32q.51-.06.64-.46.98-3.01-.6-5.56a.42.41-39.1 0 0-.66-.06l-19.54 20.8zm-6.43-7.92a.43.43 0 0 0-.62.01q-2.05 2.23-4.8 4.89-.52.5-.61.86-.17.68-.73.66-.62-.04-1.26.76-3.04 3.75-7.51 7.69a.63.62-63 0 0 .35 1.09q1.48.13 2.55.83a.84.83 38.8 0 0 1.06-.11l7.62-7.62a.59.59 0 0 0-.39-1q-.9-.03-1.6-.8a.59.58 46.8 0 1 .02-.81l6.1-6.11a.11.11 0 0 0 0-.16l-.18-.18zm36.64 31.7l1.2 1a.29.29 0 0 0 .41-.04l8.05-9.66a3.19 1-50.2 0 0 1.27-3.09l-.1-.09a3.19 1-50.2 0 0-2.81 1.81l-8.06 9.66a.29.29 0 0 0 .04.41zm-4.926-10.291a.95.95 0 0 0-1.041-.849l-.08.008a.95.95 0 0 0-.849 1.041l.762 7.501a.95.95 0 0 0 1.041.849l.08-.008a.95.95 0 0 0 .849-1.041l-.762-7.501zM378.66 395.03q-.11-.58.07-1.5a1.06 1.05 86.7 0 1 .71-.8q2.26-.71 5.23-4.29a2.25 2.24 60.2 0 0 .48-1.78l-1.6-9.91a.11.11 0 0 0-.14-.09l-1.93.62a.53.52 82.7 0 0-.36.47q-.04 1.04.84 1.85a1.84 1.73 65.5 0 1-1.07 3.17q-2.02-.06-1.49 3.16a.79.79 0 0 0 1.47.25l.99-1.82a.76.75-35.3 0 1 1.41.24l.21 1.31a2.62 2.61 58 0 1-.44 1.92q-1.39 1.95-3.58 3.54a.71.71 0 0 1-1.11-.43l-1.94-9.14a1.08 1.07 50.5 0 1 .06-.64q1.07-2.5 3.74-4.37a.59.59 0 0 0 .18-.18l2.32-3.44a.67.67 0 0 0-.7-1.03c-1.09.24-4.23 4.03-6.98 7.04a1.86 1.83 60 0 0-.43 1.66q1.22 5.23 2.32 12.44.23 1.53 1.31 2.08a.3.3 0 0 0 .43-.33z" class="C"/><path d="M300.29 127.53q3.25 3.19 9.18 4.59 3.45.82 7.53 2.4 6.39 2.48 6.46 2.5 28.71 10.46 41.8 15.8 9.91 4.05 12.02 4.68 2.7.82 7.54 3.07 2.67 1.25 7.74 2.71a5.82 5.58-23 0 1 .87.33l3.64 1.72a.45.34-19.5 0 0 .16.05q3.23.61 4.61 1.41a2.71 2.68-26.9 0 0 1.03.33q6.45.73 12.09 3.53a3.46 3.44 63.6 0 0 .88.3q2.42.48 5.87 2.03 4.16 1.89 9.52 2.94a1.97 1.94-17.3 0 1 .97.5q1.02.94 2.4.9a1.95 1.94-30.6 0 1 1.06.27q5.27 3.08 11.17 4.08a2.13 2.12-19.3 0 1 1.07.51q1.11.95 2.84.77a.9.89-13.7 0 1 .91.55q.02.04.04.07a1.57 1.37 78.4 0 0 .88.67l9.44 2.47q1.23.13 1.94.8-.47.46.61.87 19.71 7.65 39.95 14.17 1.87-.07 4.14 2.71c-3.64.48-4.09 4.37-4.49 7.21q-.15 1.12-.78 1.74a.94.93-24.5 0 1-1.59-.59l-.28-3.76a1.47 1.47 0 0 0-2.51-.93l-5.98 5.97a1.11 1.07-68.9 0 1-.69.32l-2.68.2a1.06 1.05-70 0 0-.68.32l-3.86 3.85a.19.19 0 0 1-.28 0l-.17-.2a.33.33 0 0 1 .02-.45l12.08-12.09a.62.61 46 0 0 .01-.86q-1.13-1.18-3.45-2.05-42.33-15.82-69.75-26.03l-94.97-34.98a2.58 2.55 35.4 0 0-2.51.41l-56.73 46.21a.85.84 46.7 0 1-1.1-.04q-.1-.09-.2-.33a.6.59 1.4 0 0-.33-.34l-12.1-5.18a.43.32-8 0 1-.09-.05l-3.36-2.19a.8.79 37.4 0 0-1.02.13c-.43.5-.47 1.48-1.19 1.98q-3.92 2.76-5.6 5.05a.54.54 0 0 1-.8.09q-2.78-2.45-6.95-3.23c-1.85-.35-3.5-1.85-5.11-2.44q-1.26-.47-1.44-1.54a.84.82-24.9 0 1 .3-.78l3.52-2.87a1.06 1.03 20.8 0 1 .53-.23l3.11-.43a.85.85 0 0 0 .24-1.62q-10.07-4.63-22.95-10.12c-1.67-.71-4.55-.16-5.43-2.69a.63.62 69.6 0 1 .35-.78q.79-.32 1.17.74l57.81 25.29a1 .99-52.6 0 0 1.02-.14l54.89-44.7a.68.67 34.5 0 0-.22-1.16q-7.56-2.51-15.22-5.41-16.39-6.21-38.36-14.4-2.16-.81-4.07-1.02a1.46 1.46 0 0 0-.93.2q-5.69 3.45-7.05 4.43-7.45 5.41-11.88 8.95-7.15 5.7-11.82 8.97-8.96 6.27-12.92 10.19a3.36 3.28-78.6 0 1-.95.65q-4.62 2.12-7.7 5.93a1.24 1.21 16.4 0 1-.83.44l-.69.05q-.16.01-.29-.01a.35.35 0 0 1-.14-.64l8.6-5.72a4.26 4.17-82.5 0 0 .51-.4l5.68-5.05a1.38 1.37-19 0 0 .45-.92q.04-.44-.12-.99a.92.91 62.8 0 1 .31-.97q3.07-2.44 6.14-4.67 2.51-1.82 5.63-4.06c.87-.62.96-1.64 1.73-2.3a1.14 1.13-60.8 0 1 .89-.26l3.1.47a.92.9 29.4 0 0 .71-.19l9.4-7.66a2.87 2.68-6.8 0 0 .65-.77l2-3.48a1.08 1.02 88.3 0 1 .32-.36q1.5-1.06 6.07-4.08 1.66-1.09 2.12-3.39l34.54 12.03zm-58.13 57.05l.46 1.65a.25.25 0 0 0 .31.18l.12-.03a2.95 1.06-15.6 0 0 2.55-1.82l-.02-.09a2.95 1.06-15.6 0 0-3.13-.23l-.12.03a.25.25 0 0 0-.17.31zm15.47-64.39l.44-4.23 1.06 2.66a.86.84 56.3 0 1-.17.9q-.46.48-1.33.67z" class="B"/><path d="M210.91 162.68q.09-1.18 1.08-1.73l.69-.05a1.24 1.21 16.4 0 0 .83-.44q3.08-3.81 7.7-5.93a3.36 3.28-78.6 0 0 .95-.65q3.96-3.92 12.92-10.19 4.67-3.27 11.82-8.97 4.43-3.54 11.88-8.95 1.36-.98 7.05-4.43a1.46 1.46 0 0 1 .93-.2q1.91.21 4.07 1.02 21.97 8.19 38.36 14.4 7.66 2.9 15.22 5.41a.68.67 34.5 0 1 .22 1.16l-54.89 44.7a1 .99-52.6 0 1-1.02.14l-57.81-25.29zm17.418-7.478a1.21.8-28 0 0-1.444-.138 1.21.8-28 0 0-.693 1.274 1.21.8-28 0 0 1.444.138 1.21.8-28 0 0 .693-1.275zM462.01 186.71l-9.44-2.47a1.57 1.37 78.4 0 1-.88-.67q-.02-.03-.04-.07a.9.89-13.7 0 0-.91-.55q-1.73.18-2.84-.77a2.13 2.12-19.3 0 0-1.07-.51q-5.9-1-11.17-4.08a1.95 1.94-30.6 0 0-1.06-.27q-1.38.04-2.4-.9a1.97 1.94-17.3 0 0-.97-.5q-5.36-1.05-9.52-2.94-3.45-1.55-5.87-2.03a3.46 3.44 63.6 0 1-.88-.3q-5.64-2.8-12.09-3.53a2.71 2.68-26.9 0 1-1.03-.33q-1.38-.8-4.61-1.41a.45.34-19.5 0 1-.16-.05l-3.64-1.72a5.82 5.58-23 0 0-.87-.33q-5.07-1.46-7.74-2.71-4.84-2.25-7.54-3.07-2.11-.63-12.02-4.68-13.09-5.34-41.8-15.8-.07-.02-6.46-2.5-4.08-1.58-7.53-2.4-5.93-1.4-9.18-4.59l161.72 59.18z" class="C"/><g class="B"><path d="M240.3 133.54q-.51.54-1.09.11l1.09-.11z"/><ellipse cx="0" cy="0" transform="matrix(.882948 -.469472 .469472 .882948 227.26 155.77)" rx="1.21" ry=".8"/><path d="M351.3 185.78q-.07-.09-.25-.23a.13.13 0 0 1 .05-.23c1.6-.3 3.33.92 5.2 1.85a2.19 2.15-32.9 0 0 1.13.23q3.63-.25 6.88.91c2.57.92 4.05 3.56 6.96 4.46q1.15.36 1.56.95 1.21 1.75 2.72 1.06a.28.28 0 0 1 .38.33q0 .04-.23.23a.27.26 47.2 0 0-.01.38c.92.94 2.43.83 3.32 1.47q1.54 1.1 2.25 1.46a1.13 1.11-78.4 0 1 .6.93q.06 1.13-.88 2.1a.41.41 0 0 1-.52.07q-.16-.1-.34-.14-.01 0-.21.2c-2.65 2.67-6.83-.06-8.75-2.5a1.16 1.12-9 0 0-.54-.38q-4.76-1.52-6.44-5.16a1.52 1.51-1.9 0 0-.84-.78l-3.84-1.45a.69.67 45.7 0 0-.44-.01l-3.8 1.28a.99.94 48.3 0 1-.73-.06q-2.78-1.39-3.89-2.91a.81.8-30.9 0 0-1.03-.25q-3.08 1.55-6.73-.08a1.65 1.64 43.4 0 0-1.42.04c-1.25.66-2.49 2.22-3.98 2.45q-3.68.56-4.95 1.02a5.53 5.38-73 0 0-1.8.99l-12.9 10.66a2.24 2.24 0 0 0-.6 2.69q1.32 2.79 4.76 3.39a1.25 1.2 29.9 0 0 .99-.25l3.04-2.48a1.17 1.13-58.6 0 1 .94-.24q2.69.49 4.37 1.79a.81.81 0 0 1-.67 1.43q-.87-.2-3.15-1.43a1.55 1.53-33.3 0 0-.9-.18q-.53.05-.56.06a1.24 1.19 60.7 0 0-.5 1.93q2.25 2.78 5.5 1.74a1.94 1.9 47.9 0 1 1.34.08l1.94.86a1.25 1.23 58 0 0 .46.11q2.83.15 5.21 1.81a.99.99 0 0 1 .42.99q0 .04-.02.14a1.13 1.12-66.3 0 0 .43 1.11q2.24 1.66 4.62 1.88a1.35 1.35 0 0 0 .59-2.61l-4.08-1.54a.98.97 20.9 0 1-.57-1.26l.13-.36a.46.46 0 0 1 .66-.23q1.37.8 5.04 3.42 1.66 1.19 4.28 1.93 1.06.3 4.09 3.05a.95.95 0 0 1 .25 1.03l-.26.67a.88.88 0 0 0 .51 1.13l4.49 1.69a.93.93 0 0 0 1.21-.54l.42-1.11a.55.55 0 0 1 .62-.35q1.38.26 2.63-.32a.38.38 0 0 1 .4.64q-.9.72-2.62 1.48a.66.66 0 0 0-.15 1.11q2.01 1.67 4.8 2.51a1.8 1.76 43.9 0 0 1.09-.01q.36-.11.66-1.46a.51.51 0 0 1 .74-.33q.23.13.68 1.24c.43 1.06 2.6 1.83 5.31 3.18a1.13 1.13 0 0 0 1.15-.08q2.8-1.96 4.76.22a1.45 1.36 77.7 0 0 .57.39q.23.08 4 2.3 1.02.6.71 2.21a.87.86 24 0 0 .34.87q1.15.83 3.06 1.49c1.87.64 3.29-1.76 5.47.03a.85.85 0 0 0 .96.08q1.66-.93 5.87 2.08 1.1.8 1.44 1.59.07.16-.36 1.05a.81.81 0 0 0 .39 1.09q3.25 1.49 3.74 1.64 1.34.39 1.68-.46a1.2 1.19 49.4 0 1 2.28.18q0 .03.34 2.07a.99.99 0 0 0 .64.78l4.55 1.72a.54.54 0 0 0 .72-.39q.12-.55-.19-.93-1.52-1.88-4.08-2.17a.39.39 0 0 1-.12-.74c2.94-1.4 4.74.91 7.08 3.27a.74.74 0 0 1 .13.85q-.16.3-.19.82a.79.78 12.8 0 0 .5.78l4.38 1.65a.81.79 43.4 0 0 .61-.01q1.23-.53 1.24-.53a1.3 1.19 3.5 0 1 1.68 1.74q-.05.07-.06.3a.47.47 0 0 0 .31.47q1.85.68 3.32 1.89a1.74 1.52 33.2 0 0 2.56-.36q.01-.02.02-.25a1.2 1.19 26.5 0 1 2.12-.71l1.66 2.04a1.05 1.04-42 0 0 1.55.08l15.41-15.41a.55.54-49.2 0 0-.05-.82q-1.45-1.11-1.46-3.91a1.42 1.37-27.1 0 1 .31-.9l2.25-2.82a.37.37 0 0 0-.16-.58q-2.09-.78-3.39-2.11a.52.52 0 0 1 .55-.85l3.73 1.41a2.62 2.61 31.6 0 0 2.84-.67l1.77-1.93a.5.49-21.6 0 1 .86.37q-.11 1.56.61 1.43.49-.08 2.6-1.11a3.83 3.82 36.6 0 1 2.31-.34l.96.17a2.14 2.14 0 0 0 1.94-.66l2.96-3.21a.48.47-47.1 0 1 .68-.03l.2.18a.62.61-46.2 0 1 .01.89l-4.66 4.67a.7.7 0 0 1-.87.09q-3.24-2.06-5.24 1.89a.78.77 40.5 0 1-1.32.1c-2.01-2.82-5.57 1.66-6.94 3.35a.92.91 51 0 0-.1.99q.83 1.57.87 3.03a.97.96 16.5 0 0 .43.78q.36.24.51.52.1.19-.12.72c-.37.91-1.68 1.29-2.34 2.13q-.01.01-14.47 14.76a1.03.99-64.7 0 1-.78.3q-2.83-.22-4.52-1.9a.47.47 0 0 0-.72.06q-3.06 4.42-7.67 8.2a.33.31 49 0 1-.44-.04l-.01-.01a.45.43-38.2 0 1 .07-.52l6.08-5.98a1.02 1.02 0 0 0-.24-1.62q-4.47-2.41-4.62-2.55a3.75 3.71 73.9 0 0-.84-.47l-13.44-5.42a10.36 9.72 71.1 0 1-1.85-.98c-2.2-1.48-5.54-2.21-7.76-3.37q-6.82-3.57-13.68-6.01-2.03-.73-4.34-2.04-.99-.57-3.99-1.45a7.5 7.09 65 0 1-1.26-.5q-5.21-2.65-10.36-5.21c-1.83-.91-4.73-1.44-6.78-2.63q-1.87-1.09-6.17-2.66c-1.88-.68-3.24-1.85-4.97-2.28-2.68-.67-4.97-2.4-7.37-3.28q-4.69-1.72-10.14-4.65a9.03 8.82-23 0 0-2-.78q-4.93-1.28-9.5-3.66a6.27 6.23 65.7 0 0-1.36-.52c-3.75-.95-6.91-3.06-10.04-4.4a.63.63 0 0 1-.17-1.05q8.67-7.64 18.02-15.02.93-.73 6.25-1.26a1.86 1.85 22.3 0 0 1.04-.43l2.41-1.96a1.5 1.5 0 0 0-.42-2.57l-1.08-.41a.61.6-54.1 0 1-.16-1.04q3.43-2.74 14.92-12.39 1.69-1.41 3.68-2.28a1.17.97 23.7 0 1 .21-.06l16.71-2.69a4.02 4.01 52.4 0 1 2.31.3l9.42 4.19a1.25 1.1 56.9 0 0 .39.11q5.93.88 11.58 3.78a.51.51 0 0 1 .24.63l-.09.25a.36.35 19.5 0 1-.45.21l-7.93-2.68a1.56 1.21 52 0 0-.28-.07q-4.09-.47-4.95-1.09-3.89-2.78-9.58-3.91a4.7 4.68-45.1 0 0-1.94.01q-4.38.91-14.11 2.47c-2.06.33-4.02 1.58-5.7 3.18q-5.43 5.16-9.07 7.86a1.7 1.7 0 0 0-.68 1.23q-.12 1.51-.8 2.92a1.54 1.53 23.1 0 0 .85 2.11c1.52.56 5.33 1.55 5.49-1.23a.71.7 87 0 1 .59-.66l1.3-.21a.21.2 66.2 0 0 .12-.33zm.09 3.38a.82.81 10.5 0 0 .53.76l3.16 1.19a.86.85-53.7 0 0 .83-.13l1.49-1.22a.94.94 0 0 1 .96-.14q1.41.59 3.23.55a.35.28-24.7 0 1 .16.04l4.49 2.44a.43.41 2.6 0 1 .2.21q.34.75-.08 1.05a1.08.84 42.3 0 0 .27 1.55q1.15.81 3.52 1.75a1.68 1.67 24.3 0 0 2.1-.79l.14-.27a1.29 1.29 0 0 0-.87-1.85q-3.4-.75-6.13-3.61a2.85 2.77-11 0 0-1.1-.72q-3.85-1.39-6.52-1.08a.47.46-37.5 0 1-.25-.03l-5.26-2.26a.63.63 0 0 0-.87.58v1.98zm21.4 10.19l5.24 1.98a.49.49 0 0 0 .63-.28l.08-.22a1.96 1.7-69.3 0 0-.9-2.43l-2.97-1.13a1.96 1.7-69.3 0 0-2.29 1.24l-.08.21a.49.49 0 0 0 .29.63zm-25.225 20.891a3.52 1.05-150.2 0 0 2.533 2.66 3.52 1.05-150.2 0 0 3.576.838 3.52 1.05-150.2 0 0-2.533-2.66 3.52 1.05-150.2 0 0-3.576-.838zm36.995 15.219a.28.27-3.2 0 0-.29-.25q-2.04.09-3.14-1.34a.69.68-23.3 0 0-.66-.26l-2.06.33a.1.1 0 0 0-.06.17q2.73 2.98 6.01 3.33a.3.29-89.3 0 0 .32-.32l-.12-1.66zm-200.35-33.2a.81.81 0 0 0 .2-.92q-3.53-8.06 2.98-14.59 9.14-9.16 22.46-11.04a.66.66 0 0 0 .15-1.27c-3.31-1.28-4.89-1.78-6.91-3.63a.41.41 0 0 1 0-.6l.31-.29a.38.37-40.2 0 1 .56.04l.66.89a2.88 2.8 83.8 0 0 .98.81l7.14 3.51a2.97 2.91-33.8 0 0 1.55.29c6.43-.52 17.09 3.36 13.55 12.03-.53 1.31-2.01 4.1-.74 5.63a.9.89 35.7 0 1 .15.88c-1.24 3.3-3.46 7.07-6.61 9.15q-4.02 2.64-6.09 4.51a5.06 4.93-76.7 0 1-1.43.91q-7.15 3.02-9.7 3.54-2.73.55-9.23.43-4.13-.07-6.37-1.56c-1.98-1.32-6.41-6.22-3.61-8.72zm1.275 1.065a1.73.54-110.1 0 0 .087 1.81 1.73.54-110.1 0 0 1.102 1.439 1.73.54-110.1 0 0-.087-1.81 1.73.54-110.1 0 0-1.102-1.439zm225.665 7.765q-.01-.06-.01-.19a.3.3 0 0 0-.31-.29c-1.44.04-2.71.34-3.93-.76q-.64-.57-1.88-.05a1.61 1.42-51.3 0 0 .14 2.95q.62.04 1.59.49a.88.87 18 0 1 .49.96q-.01.02-.02.07a.4.4 0 0 0 .49.51l2.01-.63a.99.97-80.9 0 0 .5-.37q.64-.98 1.4-1.49a.44.44 0 0 1 .65.54q-1.19 2.67-4.24 3.32a.89.87 58.4 0 1-.77-.19q-1.72-1.45-3.47-1.94a1.11 1.09-61 0 0-1.11.33q-4.57 5.05-10.83 3.04a1.76 1.75-55.8 0 0-1.65.32q-7.64 6.24-13.94 13.48a.43.43 0 0 1-.64.02l-.22-.24a.32.31 47 0 1 .01-.44l14.33-13.44a.94.94 0 0 0 .16-1.17l-1.39-2.29a1.11 1.1-38.7 0 1 .15-1.33q1.51-1.55 1.47-2.52a2.32 2.27 21.2 0 0-.48-1.06l-2.07-2.51a.23.23 0 0 1 0-.28q.18-.25.36-.35a.31.3 70.1 0 1 .46.22q.02.12.01.14a.12.12 0 0 0 .07.15l3.57 1.35a1.48 1.46 47 0 0 .97.04q1.68-.51 1.73-1.83a.54.53-74.4 0 1 .79-.45l2.92 1.59a1.62 1.61-51.4 0 0 1.84-.21l13.68-12.08a1.04 1.03 63.5 0 0 .33-1q-1.09-5.11-2.48-10.3c-1.04-3.87-4.81-4.49-8.44-3.84-2.43.44-3.94.28-5.32-1.45a.56.55-5 0 1 .7-.83l2.84 1.54a1.14 1.08 53 0 0 .73.12q.68-.14 1-.59a1.93 1.55 22.3 0 1 1.88-.56q.86.21 5.44 1.72c2.87.95 4.35 9.73 4.85 12.65a1.41 1.41 0 0 0 1.61 1.16l19.54-3.15a1.28 1.28 0 0 1 .59.04q1.91.59 6.11 1.86 1.09.33 4.6 2.92c1.7 1.25 4.76.44 6.72 1.15q4.11 1.48 7.33 3.11a.67.67 0 0 1 .14 1.11l-.26.23a1.1 1.09-50.7 0 1-1.27.13c-2.41-1.39-6.33-3.58-9.17-3.18q-1.3.18-2.96-.13a1.51 1.49-14.4 0 1-.86-.5q-3.47-4.03-8.84-4.21-.75-.03-1.21-.78a.81.8 68.9 0 0-.83-.37q-2.88.52-4.04 1.21a1.54 1.51 25.6 0 1-.56.19l-13.17 1.74a.13.04-28.2 0 1-.05.01l-3.44.25a1.37 1.34-67.1 0 0-.81.34l-13.44 11.86a.71.7 48.1 0 0-.05 1q1.26 1.37 3.03.42a.55.55 0 0 1 .81.56q-.12.99 1.25.66a1.3 1.28 59 0 1 1.17.3q1.26 1.15 3.89.66a.28.28 0 0 1 .31.37l-.06.19a.23.23 0 0 1-.44-.02zm-9.3-.62l-5.85-2.21a2.32 2.29 37.7 0 0-2.13.26c-3.23 2.25-4.66 3.17-2.77 7.31a.82.8-15.2 0 0 .82.46c5.23-.53 7.78-.56 10.45-4.01a1.18 1.17 29.1 0 0-.52-1.81zm-235.13-20.93q-.2-1.61 2.46-.55a1.36 1.35-52.2 0 0 1.31-.17l7.09-5.24a.86.86 0 0 1 1.25.25l.2.33a.6.59-32.7 0 1-.18.8l-6.71 4.63a1.18.55-64.9 0 0-.18.15q-3.79 3.81-9.45 7.74-1.5 1.04-3.09 1.24a.44.44 0 0 1-.49-.52q.17-.82.01-2.36a3.05 2.09-14.3 0 1 2.18-2.49q.63-.21.61.39a.83.64-17.6 0 0 1.21.44q1.25-.71 4.18-3.05a.67.66 47.7 0 0 .04-1l-.29-.28a.53.51 19.9 0 1-.15-.31z"/></g><path d="M242.16 184.58a.25.25 0 0 1 .17-.31l.12-.03a2.95 1.06-15.6 0 1 3.13.23l.02.09a2.95 1.06-15.6 0 1-2.55 1.82l-.12.03a.25.25 0 0 1-.31-.18l-.46-1.65zm110.1 2.02l5.26 2.26a.47.46-37.5 0 0 .25.03q2.67-.31 6.52 1.08a2.85 2.77-11 0 1 1.1.72q2.73 2.86 6.13 3.61a1.29 1.29 0 0 1 .87 1.85l-.14.27a1.68 1.67 24.3 0 1-2.1.79q-2.37-.94-3.52-1.75a1.08.84 42.3 0 1-.27-1.55q.42-.3.08-1.05a.43.41 2.6 0 0-.2-.21l-4.49-2.44a.35.28-24.7 0 0-.16-.04q-1.82.04-3.23-.55a.94.94 0 0 0-.96.14l-1.49 1.22a.86.85-53.7 0 1-.83.13l-3.16-1.19a.82.81 10.5 0 1-.53-.76v-1.98a.63.63 0 0 1 .87-.58zm111.69.91q20.51 6.76 40.56 15.04-20.24-6.52-39.95-14.17-1.08-.41-.61-.87z" class="C"/><path d="M0 191.3v-2.56l123.73 18.39a.47.47 0 0 1 0 .93q-2.17.31-3.97.23-3.95-.19-24-2.91-26.25-3.56-73.31-10.45Q11.19 193.29 0 191.3z" class="B"/><path d="M372.79 199.35a.49.49 0 0 1-.29-.63l.08-.21a1.96 1.7-69.3 0 1 2.29-1.24l2.97 1.13a1.96 1.7-69.3 0 1 .9 2.43l-.08.22a.49.49 0 0 1-.63.28l-5.24-1.98z" class="C"/><g class="B"><rect x="-8.37" y="-.67" transform="matrix(.802817 -.596225 .596225 .802817 425.95 203.07)" width="16.74" height="1.34" rx=".65"/><path d="M467.45 203.27a.11.11 0 0 1 .06.15l-.01.03a2.67 1.74 22.3 0 1-3.13.59l-.35-.14a2.67 1.74 22.3 0 1-1.81-2.63l.01-.02a.11.11 0 0 1 .14-.06l5.09 2.08zm8.01 22.28q1.92-1.86 2.55-3.4a.33.28 84.8 0 1 .09-.13l2.41-2.27a2 1.99-31.8 0 0 .51-2.15q-1.67-4.46-3.75-10.61-.84-2.51-4.11-2.37a.86.79-33.3 0 1-.36-.06l-3.76-1.45a.86.85 12.7 0 1-.54-.85v-.05a.74.73 10.9 0 1 .88-.59q1.55.33 3.17 1.37a2.08 2.01 66.9 0 0 .69.29l2.79.63a4.25 4.24-2.9 0 1 3.07 2.77l4.03 12a1.27 1.25 57.2 0 1-.26 1.24l-5.61 6.09a1.04 1.04 0 0 1-.77.34h-.7a.47.46 22.8 0 1-.33-.8z"/></g><g class="C"><ellipse cx="0" cy="0" transform="matrix(-.34366 -.939094 .939094 -.34366 186.08 204.95)" rx="1.73" ry=".54"/><ellipse cx="0" cy="0" transform="matrix(-.998135 -.061049 .061049 -.998135 126.2 204.63)" rx="2" ry=".63"/><path d="M401.85 210.47a1.18 1.17 29.1 0 1 .52 1.81c-2.67 3.45-5.22 3.48-10.45 4.01a.82.8-15.2 0 1-.82-.46c-1.89-4.14-.46-5.06 2.77-7.31a2.32 2.29 37.7 0 1 2.13-.26l5.85 2.21z"/></g><path d="M142.16 208.25l2.67.48a1.2 1.2 0 0 1 .4 2.21l-3.99 2.41a1.04 1.02 35.7 0 1-.8.12q-2.66-.69-4.35 1.71a.58.57-42.9 0 1-.96-.03l-.23-.37a.71.7 54.5 0 1 .14-.89q2.27-1.94 4.95-2.72a1.74 1.71 13.2 0 0 .74-.45q.45-.49.35-.76l1.08-1.71zm143.63 25.79a2.87 2.76 52.1 0 1-.35 3.31q-.94 1.01-.97 2.26a1.16 1.15-72.7 0 0 .51.98q1.74 1.2 2.1 1.83a1.3 1.28 84.6 0 0 .7.59q1.84.62 3.94 2.78a1.25 1.25 0 0 0 .93.39q.67-.02 1.74-.35c1.99-.63 4.07.76 5.29 2.29q1.07 1.33 2.22 1.04a.71.69 64.7 0 1 .73.27l.34.49a1.77 1.74 87.8 0 0 .52.49l5.39 3.45a.6.59-50.2 0 1 .08.94q-1.19 1.09-.84 2.49a.41.4-88.5 0 1-.51.49q-1.2-.37-1.4-.24a.66.66 0 0 0-.16.98c2.5 3.05 5.76 3.36 9.58 3.4a.67.54 51.5 0 1 .26.06l4.65 2.08a.82.82 0 0 1-.3 1.56q-.01 0-1.53-.29c-1.87-.36-3.35-1.72-5.36-2.14a1.26 1.25 38.2 0 0-.77.09q-1.26.56-2.76-.62c-1.67-1.31-3.59-.29-4.4-3.09a1.61 1.6-87.4 0 0-.94-1.04l-7.82-3.1a1.7 1.52-26.4 0 0-.4-.11l-2.93-.41a1.5 1.5 0 0 1-.91-.47q-3.14-3.36-6.69-5.23-.6-.32-.25-.98.08-.16.3-.27.25-.14.42-.08 3.19 1.03 4.05 2.66 2.02 3.8 6.42 3.66a.54.54 0 0 0 .15-1.05q-3.13-1.05-4.81-3.08a.33.31 80.3 0 0-.12-.09l-1.26-.57a.45.45 0 0 1-.09-.76q.84-.67.96-1.46a.92.92 0 0 0-.47-.95l-3.17-1.73a1.1 1.09-52.6 0 0-1.28.18l-1.23 1.2a.54.53-79.1 0 1-.16.11q-.41.19-.43.19a1.19 1.19 0 0 1-.51-2.2l1.09-.67a.44.43-41 0 0 .05-.71q-2.34-1.93-4.41-1.98a.49.49 0 0 1-.27-.89c2.61-1.85 4.5-3.08 3.4-6.75a1.57 1.57 0 0 1 .49-1.64l18.4-15.81a.54.53-59.8 0 1 .43-.12q2.7.5 3.67 3.23a.28.28 0 0 1-.36.35l-2.71-1.02a1.53 1.51 34.7 0 0-1.53.27l-16.3 14.12a.98.87 86.4 0 0-.14.18q-.57.97-.27 1.49zm7.998 14.108a3.31 1.74-155.9 0 0 2.311 2.94 3.31 1.74-155.9 0 0 3.732-.237 3.31 1.74-155.9 0 0-2.311-2.94 3.31 1.74-155.9 0 0-3.732.237zm5.741 6.892h2.59a.65.64-16.4 0 1 .54.29q.95 1.47 2.58 1.36a1.12 1.11-76.2 0 0 .87-.53l1.01-1.66a.62.62 0 0 0-.2-.85q-.55-.35-1.85-.48a1.2 1.2 0 0 1-.87-.5c-1.98-2.76-3.65.4-4.97 1.61a.44.44 0 0 0 .3.76zM131.68 216.13q4.6 1.32 5.76 1.93 33.39 17.58 65.7 34.8 8.94 4.76 18.01 9.54 98.6 51.86 144.91 76.02 4.08 2.13 6.3 3.67a.98.97 15.7 0 1 .42.74l.12 1.52a.81.8 23.7 0 0 .17.43q.71.88.56 2.59a1.45 1.43-20.7 0 1-.42.91l-2.16 2.16a.43.42 59.7 0 1-.7-.19q-.69-2.45 1.71-2.8a1.13 1.12-78.2 0 0 .82-.54q.42-.7 0-1.53a1.37.96-31.1 0 0-1.76-.12q-3.85 2.52-2.54 6.61a1.02 1-86 0 0 .52.61q.4.2.64.58.23.36-.2.78-.7.69-2.54.63-1.99-1.69-5.3-3.37-3.84-1.94-4.43-2.26-28.59-15.41-30.46-16.37-6.27-3.23-11.27-6.04a.69.69 0 0 1 .43-1.29q2.63.32 4.89 1.77c2.58 1.66 5.18 2.72 7.2 3.79q20.76 11.05 38.22 21.04a.36.36 0 0 0 .54-.34l-.12-1.57a.72.71-79.2 0 0-.39-.59l-12.06-6.11a.33.31 80.3 0 1-.12-.09q-1.39-1.48-3.5-2.04a2.32 2.28 73.8 0 1-1-.56q-.67-.62-2.35-1.38-5.29-2.39-8.9-4.56-4.51-2.72-8.7-4.94-32.46-17.2-65.83-35.14-5.57-2.99-7.05-3.91c-10.99-6.82-31.75-16.87-51.34-27.49a1.92 1.91 41.5 0 0-2.02.12l-.03.02a.71.71 0 0 0 .09 1.18l50.13 27.24a1.02.81-17.9 0 0 .24.09q2.91.83 4.96 2.09c3.27 2.01 5.38 2.85 9.53 5.39q2.98 1.82 3.67 3.83a.61.61 0 0 0 .68.4q.72-.13 1.99.87.06.05.38.11.41.07.64.24a.291.16 2.3 0 1-.42.21q-1-.52-1.47-.18a.93.89-57.8 0 0 .34 1.65q3.48.5 4.44 3.85 2.35 8.2 5.09 18.13a.55.55 0 0 1-.96.49q-.64-.81-1.17-1.07a1.16 1.16 0 0 0-1.64 1.35q1.34 4.72 4.87 5.69a1.25 1.23-89.7 0 1 .87.89l1.86 7.09a1.12 1.03-69.2 0 0 .14.35q.97 1.72 2.09 5.2a5.3 5.29-83.2 0 0 2.29 2.92l7.08 4.32a.57.57 0 0 1-.06 1.01q-1.16.54-1.47 1.34a1.32 1.13-84 0 0 1.24 1.79q1.57-.4 2.49-1.89a.36.36 0 0 1 .49-.11l24.59 15.01a1.34 1.33 10.3 0 1 .63.9c.62 3.2 1.41 8.91 4.35 10.6q21.85 12.53 35.14 20.45c3.32 1.99 5.53 3.69 8.5 5.16a.53.53 0 0 0 .77-.54q-.34-2.78.9-3.43.59 2.35 1.99 3.5a1.01 1.01 0 0 0 1.36-.06q1.32-1.34 2.64-2.84a1.44 1.33-32.5 0 1 2.41.44q.09.38-.51 1.51a1.01.94-88 0 1-.43.43q-2.35 1.25-3.81 3.87a1.03 1.02 48.6 0 0-.05.89l1.43 3.37q-.36.91-1.23.92-1.44.03-2.86-1.15-1.48-2.37-4.89-4.19c-1.93-1.03-4.7-2.42-7.08-3.99q-2.48-1.64-4.78-2.57a.01.01 0 0 1-.01-.01l-29.48-17.99a.46.45 13.2 0 1-.22-.35q-.03-.28-.02-.39a.84.83-67.9 0 0-.23-.55l-4.3-4.76a3.67 3.54-8.5 0 0-1.24-.88q-2.8-1.23-7.46-4.09-8.73-5.36-32.23-18.77-2.68-1.53-4.6-.42a1.13 1.1 33.7 0 1-.76.14q-1.68-.28-2.31-.96a.71.7 64.4 0 0-.61-.22q-.63.07-.97-.13-6.98-4.21-10.13-5.85a.86.86 0 0 1-.19-1.39l1.67-1.57a1.3 1.3 0 0 1 1.59-.14q10.81 6.96 13.33 8.2.55.28 1.11.05.76-.31.53-1.14-6.64-24.03-13.89-48.16a2.08 1.69 39.1 0 1-.08-.38q-.23-2.92-1.82-4.92a2.22 2.15 84 0 0-.67-.56q-3.3-1.75-7.95-4.27c-2.45-1.33-4.21-2.91-7.23-3.41a2.66 2.48-24.4 0 1-.77-.26q-34.93-18.51-50.55-27.44-1.39-.79-2.8-1.53-4.03-2.09-12.94-7.41a.52.52 0 0 0-.76.61l.82 2.43a.55.55 0 0 1-.37.7q-1.39.41-.78 2.18.84 2.46 2.58 2.35a.92.91 75.1 0 1 .9.53c2.31 4.88 3.48 9.87 5.42 14.32q1.64 3.77 2.84 8.45.78 3 3.38 8.12a9.63 9.34-67 0 1 .71 1.84q2.36 8.83 4.23 11.89c1.12 1.81 3.53 1.8 5 3.31q2.55 2.62 1.55 6.36-.6-.49-.7-.44-.59-1.51-2.08-2.39-4.27-2.51-8.64-4.89-.55-.29-1-.14-3.75-3.49-8.3-5.07-1.05-.06-1.62-1.03-2.59-2.49-5.86-3.41-10.86-5.93-27.23-16.58-4.6-2.99-4.96-8.27l7.84 6.3a.21.21 0 0 0 .28-.31c-5.43-6.04-9.77-10.71-12.09-17.96q-1.01-3.15-2.2-5.63-2.14-4.43-2.49-5.52-2.62-8.25-5.14-12.85-.65-1.01-.93-2.21l4.38-5.85a.75.75 0 0 0-.23-1.1l-10.61-5.98q-1.97-1.73-2.67-5.42a2.94 2.93-17.2 0 1 1.71-3.24l3.04-1.32zm34.51 30.48l-7.08-4.52a.05.05 0 0 0-.07.02 2.37 2.25 32.5 0 0 .79 3.17l3.17 2.02a2.37 2.25 32.5 0 0 3.21-.62.05.05 0 0 0-.02-.07zm-8.459-.029a3.01.79-129.6 0 0 1.31 2.823 3.01.79-129.6 0 0 2.527 1.816 3.01.79-129.6 0 0-1.31-2.823 3.01.79-129.6 0 0-2.527-1.816zm3.609 6.529l-.69.27a.12.12 0 0 0-.07.16l5.92 15.11a4.41.45 68.6 0 0 2.03 3.94l.07-.03a4.41.45 68.6 0 0-1.19-4.27l-5.92-15.11a.12.12 0 0 0-.15-.07zm24.21 14.67l2.5 4.56a.2.2 0 0 0 .27.08l.09-.05a2.09 1.5 61.3 0 0 .31-2.55l-.68-1.24a2.09 1.5 61.3 0 0-2.32-1.12l-.09.05a.2.2 0 0 0-.08.27zm-1.869 1.285a.39.39 0 0 0-.548-.065l-9.195 7.235a.39.39 0 0 0-.065.548l.025.031a.39.39 0 0 0 .548.065l9.195-7.235a.39.39 0 0 0 .065-.548l-.025-.031zm-13.329 10.028a2.86.55-118.8 0 0 .896 2.771 2.86.55-118.8 0 0 1.86 2.241 2.86.55-118.8 0 0-.896-2.771 2.86.55-118.8 0 0-1.86-2.241zm-1.694 1.824a2.61.37-37.6 0 0-2.294 1.299 2.61.37-37.6 0 0-1.842 1.886 2.61.37-37.6 0 0 2.294-1.299 2.61.37-37.6 0 0 1.842-1.886zm22.882.206a2.57.92-114.6 0 0 .233 2.72 2.57.92-114.6 0 0 1.906 1.954 2.57.92-114.6 0 0-.233-2.72 2.57.92-114.6 0 0-1.906-1.954zm-18.347 4.896a3.08.42-124.1 0 0 1.379 2.786 3.08.42-124.1 0 0 2.075 2.315 3.08.42-124.1 0 0-1.379-2.786 3.08.42-124.1 0 0-2.075-2.315zm4.195 5.835a.38.06-137.8 0 0 .241.3.38.06-137.8 0 0 .322.211.38.06-137.8 0 0-.241-.3.38.06-137.8 0 0-.322-.211zm.946 1.151a3.51.6-137.2 0 0 2.168 2.825 3.51.6-137.2 0 0 2.983 1.945 3.51.6-137.2 0 0-2.168-2.825 3.51.6-137.2 0 0-2.983-1.945zm17.848 1.518a2.7.94-119.2 0 0 .497 2.815 2.7.94-119.2 0 0 2.138 1.898 2.7.94-119.2 0 0-.497-2.815 2.7.94-119.2 0 0-2.138-1.898zM311.18 220.13q0-.04.12-.22a.72.69-76.4 0 1 .45-.29q1.06-.18 2.78.45a.31.3-49.8 0 1 .04.55q-1.31.76-1.58.91a1.52 1.18 75.6 0 1-1.81-1.4z" class="B"/><ellipse cx="0" cy="0" transform="matrix(-.867765 -.496974 .496974 -.867765 350.62 221.99)" rx="3.52" ry="1.05" class="C"/><path d="M316.99 221.05q.5.04.63.18a.33.33 0 0 1-.34.54q-.3-.09-.5-.32a.25.24-17.5 0 1 .21-.4zm16.98 13.22a.45.45 0 0 1-.78.35c-1.84-2.12-4.01-2.74-6.09-4.25a1.25 1.23-40.5 0 0-1.29-.09q-.71.36-1.9.32a.17.16.1 0 1-.16-.15v-.01a.3.3 0 0 1 .28-.31q1.51-.12 1.83-1.14a.77.76 14.9 0 0-.57-.97l-2.4-.5a2.94 2.87 72.3 0 1-1.46-.78q-1.06-1.05-1.73-1.41-.85-.47-.81-1.13.01-.13-.12-1.05a.4.4 0 0 1 .51-.44q2.07.61 4.39-.36a.32.31 67.9 0 1 .41.18v.02a.33.33 0 0 1-.23.42l-1.93.51a.85.85 0 0 0-.23 1.55l3.38 2.07a1.09 1.09 0 0 0 1.06.03q1.08-.57 2.37-.67a.59.59 0 0 1 .35 1.1l-1.35.82a.64.64 0 0 0 .24 1.18c1.96.29 5.9 2.15 6.23 4.71z" class="B"/><path d="M136.06 239.04q-2.21-6.48-6.46-12.93l10.61 5.98a.75.75 0 0 1 .23 1.1l-4.38 5.85z" class="C"/><g class="B"><ellipse cx="0" cy="0" transform="matrix(-.974761 -.22325 .22325 -.974761 367.06 227.43)" rx="1.48" ry=".56"/><path d="M473.92 304.64q.69-1.03.44-1.98-.51-1.89-.51-2.34.03-4.48-.6-10.13a8.41 8.18-44.2 0 1 .06-2.22l.19-1.1a1.37 1.35 35.1 0 0-.16-.87c-1.46-2.51-.06-4.93-.7-7.4-.65-2.55.06-4.83-.21-7.37q-.16-1.47-.01-4.11a1.99 1.9 31.8 0 0-.3-1.16q-.63-1-.63-2.93.01-5.58-.58-9.1c-.35-2.13.95-3.77.19-5.69a1.05 1.04-41.6 0 0-1.89-.11l-2.57 4.72a1.84 1.83-33.2 0 0-.21 1l3.79 50a.22.22 0 0 1-.37.17l-1.82-1.67a1.03 1.01-71 0 1-.32-.67l-3.5-46.19a.34.33 60.3 0 0-.61-.17q-4.65 6.82-11.27 12.93a.56.56 0 0 1-.94-.37l-.03-.45a2.03 2.02-27.1 0 1 .47-1.45q3.56-4.23 7.51-7.9 3.02-2.79 6.12-5.63 1.28-1.17 2.38-3.1.87-1.52 2.59-2.43a2.26 2.16 7 0 0 .63-.47l15.99-16.74a.85.54-5.8 0 1 .14-.11q.58-.39 1.09.41.17.28.53.41 3.36 1.14 8.44 2.45.63.17.53 1.3a.99.99 0 0 1-1.65.64l-1.16-1.06a1.85 1.69 74.2 0 0-.58-.36l-4.93-1.87a2.31 2.3-58.4 0 0-2.5.6l-13.09 14.23a2.06 2.04-26.1 0 0-.54 1.55l.2 2.71a.84.83-13.4 0 1-.52.84c-1.35.56-.9 2.16-.76 3.39q.28 2.43 1.16 2.18a.4.39 79.8 0 1 .5.35c.11 1.26-.68 1.33-.91 2.44q-.15.72-.44 4.23a.41.41 0 0 0 .44.44q.02 0 .32-.17a1.21 1.17-9.9 0 1 1.77 1.2q-.67 3.79-.13 6.83a1.04 1.01 62.7 0 1-.27.89q-1.97 1.99-.86 5.64a.84.83 79.1 0 0 .86.59l.66-.05a.7.69 80.8 0 1 .73.53q.46 1.98.29 3.76a.2.18-88 0 1-.17.17l-.32.02a.29.29 0 0 1-.32-.31q.08-1.73-.96-2.09a.61.6-74.3 0 0-.78.44q-.78 3.57 1.97 4.34a.68.67-78.4 0 1 .48.73q-.04.28-.54.52-.41.21-.54.52-.81 2.02-.54 4.85a.64.64 0 0 0 .63.58q1.15.02 1.42.83a.73.72-22.3 0 1-.37.87c-1.52.75-1.36 2.75-1.4 4.16q-.03 1.14.55 1.43.75.37 1.8-.54 5.61-4.87 11.91-12.53c.88-1.06 2.27-3.33 2.76-4.81q1.47-4.44 4.24-10.7c1.5-3.41 1.75-5.66 1.22-8.94q-.16-.98.38-1.39a.63.63 0 0 1 .99.66q-.7 2.81-.15 5.13a2.81 2.79-39.3 0 1-.19 1.82q-3.24 6.88-6.33 15.85-.46 1.31-2.33 3.49-3.01 3.49-13.49 15.02a4.43 4.25-10.1 0 0-.57.78q-.45.77-1.15.95a.6.6 0 0 1-.65-.91zm-140.3-73.91a.97.96-83.3 0 1 1.34-1.06l9.23 4.14a.6.59 40.1 0 1 .09 1.04l-.25.17a1.88 1.87-48.3 0 1-1.9.12q-2.44-1.23-4.55-1.62-1.29-.25-2.19-1.01-1.71-1.47-1.77-1.78z"/></g><path d="M384.36 237.44q-3.28-.35-6.01-3.33a.1.1 0 0 1 .06-.17l2.06-.33a.69.68-23.3 0 1 .66.26q1.1 1.43 3.14 1.34a.28.27-3.2 0 1 .29.25l.12 1.66a.3.29-89.3 0 1-.32.32z" class="C"/><g class="B"><path d="M349.78 240.85q-2.73-.38-4.23-2.04a1.12 1-9.9 0 0-.51-.32l-3.27-.95a.51.51 0 0 1 .1-1c2.89-.21 4.26 1.49 6.76 2.3q.09.03 1.41 1.54a.29.28-16.5 0 1-.26.47zm147 19.31q0-.52-.19-.88a.17.17 0 0 0-.32.05q-.06.33-.16.33a.61.61 0 0 1-.56-.87c2.23-4.73 1.15-9.04.36-14.79q-.14-1.04.9-3.6a1.08 1.07 46.8 0 0 .02-.75l-.79-2.36a.66.66 0 0 1 1.08-.69q.88.84.3 2.11a1.18 1.13 49.1 0 0-.04.83l.39 1.15a1.25 1.25 0 0 1-.31 1.29c-.62.6-.88 1.56-.61 2.43 1.25 3.99 2.86 8.56.6 12.5q-1.01 1.77-.81 3.19.15 1.08.14.06zm-151.05-.37c2.17 4.14.72 7.29.91 10.8a.53.52-81.4 0 1-.71.53l-4.11-1.55a.4.4 0 0 1-.13-.66c2.86-2.74 5.01-3.41 2.93-8.17a.68.68 0 0 0-.96-.33q-.15.09-.33.43a1.06 1.05 11.4 0 1-.87.57l-4.81.28a.58.46-52 0 0-.24.06q-3.78 1.78-5.43 5.48a2.29 2.09-56.3 0 1-3.52.88q-1.35-1.37-3.88-1.72a.59.58 2.5 0 1-.5-.54l-.03-.37a.31.3-4.5 0 1 .29-.33q1.27-.08 3.22 1c2.57 1.43 3.08.23 3.56-1.9a.59.58 11.4 0 0-.48-.71q-1.52-.23-3.43-1.29a1.17 1.16 46.4 0 0-1.05-.03q-1.59.75-2.09 1.82a1.16 1.14 57 0 1-2.18-.49c-.09-2.31 2.1-2.92 4.33-3.52a1.27 1.25-37.8 0 1 .93.11c2.1 1.1 4.9 2.8 6.58.91a1.86 1.79 6.8 0 1 .57-.43q2.35-1.15 3.49-1.21 3.64-.2 7.21-1.17a1.76 1.75 15.1 0 0 .75-.43l10.69-10.32a1.78 1.76-9.7 0 0 .38-.53q.66-1.33 2.51-2.38a1.17 1.17 0 0 0-.93-2.13q-.33.11-1.28.07c-1.31-.06-2.28-1.37-3.36-1.48q-1.16-.11-1.76-1.27-.45-.87-2.12-1.44a.96.96 0 0 1-.65-1l.01-.05a.69.69 0 0 1 .79-.62q2.05.33 2.63 2.31a.95.94 87.4 0 0 .73.67q1.28.23 2.89 1.41.65.49 1.05.24.27-.16.41-1.05a.47.47 0 0 1 .74-.32q4 2.83 9.05 3.85a.92.75 17.4 0 1 .73 1.1q-.29.58-1.24 1.2a.76.75 50 0 1-.94-.09q-1.58-1.49-3.66-1.87a1.38 1.37 28.3 0 0-1.18.35l-15.35 14.4a.79.78-35.7 0 0-.16.93z"/><ellipse cx="0" cy="0" transform="matrix(.832921 -.553392 .553392 .832921 466.84 238.15)" rx="1.76" ry="1.08"/><path d="M261.78 272.71c3.25-1.08 4.62-1.62 7.41-3.51q7.38-5.03 12.8-8.43 4.48-2.81 8.15-4.08a.28.28 0 0 1 .23.5l-22.29 13.47a1.1 1.08 86.2 0 0-.47.55l.06.24a.14.13-28.2 0 1-.05.15l-2.63 1.89a1.37 1.37 0 0 0 .15 2.31l3.01 1.63a1.07 1.06-50.1 0 0 1.19-.11l1.19-.97a.88.88 0 0 1 1.43.81q-.05.32-.04.37a1.07 1.07 0 0 0 .63.93l4.78 2.15a2.07 2.06 47 0 0 1.54.06q.39-.14.92-.74a.96.95 26.8 0 1 .92-.3q2.8.62 3.63 1.45 1.66 1.66 2.47 1.84 1.27.29 2.52 1.37c1.54 1.33 4.27 1.32 4.71 3.57a1.15 1.09 81.3 0 0 1.2.93q2-.23 4.65-.88 4.76-1.18 10.86-1.83 2.47-.27 4.71-1.19a3.82 3.69 13.1 0 0 1.05-.63q9.31-7.71 15.07-13.19.96-.92.76-2.1a1.41 1.28 5.7 0 1 1.86-1.37q2.62.87 5.6 2.72a.81.81 0 0 1 .13 1.28l-.3.28a.82.82 0 0 1-.97.12q-4.75-2.62-5.44-1.32-1.06 2.01-3.22 3.82-6.36 5.35-13.12 11.43a.81.8 30.8 0 0 .35 1.38q.52.12.92.44a1.35 1.34-72.9 0 1 .51.97q.22 3.48.51 8.67c.13 2.25.96 5.21 2.12 6.96q1.01 1.54 3.27 1.37.5-.04.66-.37.06-.12.08-.3a.51.5 5.2 0 1 .55-.45q1.83.17 2.74-1.01a.69.67 33.5 0 1 .89-.17q.98.56 1.86.48a.95.94 71.4 0 1 .9.45q.74 1.2 3.22 2.23a.96.93-80.1 0 1 .58.85q.02 1.28-.37 1.73a1.57 1.27 35.5 0 0 .58 2.09q2.79 1.75 6.39 3.2a.74.74 0 0 0 .91-.28c1.94-2.89 3.15.31 5.17-.07a.82.81 67.8 0 1 .83.35q.42.64 1.13.78.42.08 1.06-.59 1.8-1.9 3.22-3.36 2.06-2.11 3.39-3.17 7.99-6.42 14.6-13.36a2.04 1.98 77.8 0 0 .4-.64q.27-.68.67-1.03a.83.77-25.4 0 1 1.35.43q.05.47-.48 1.18-.1.13-4.84 4.8a4.37 3.98 2.6 0 1-.59.49q-2.6 1.76-3.65 4.03a1.54 1.5-89.6 0 1-.7.71c-2.15 1.06-2.62 2.83-4.64 3.84q-1.18.59-2.74 2.41a3.55 2.77-7 0 1-.43.43q-4.48 3.72-5.39 4.71a.72.72 0 0 0 .96 1.06q.39-.29.93-.42a.6.6 0 0 1 .43 1.11q-2.06 1.11-1.65 2.7a1.09 1-46.9 0 0 2.02-.15q.33-1.22 1.69-1.7a.93.91-31.8 0 1 .97.22q1.28 1.32 2.78-.14 6.83-6.65 13.48-13.22.61-.61 1.76-.31a.26.26 0 0 1 .05.49q-1.98.98-2.48 2.28a.96.9-13.5 0 1-.21.32l-12.42 11.89a.96.96 0 0 0 .14 1.5q3.26 2.13 5.45-.01a.9.89-56 0 1 .96-.19q.72.29.69.47a.9.7-21.4 0 0 1.45.43q3.27-2.86 4-1.58a.45.45 0 0 0 .54.21l2.25-.76a4.22 4.2 36.3 0 1 1.46-.22q5.57.13 8.68-3.13 2.34-2.46 4.64-4.5a.48.48 0 0 1 .79.29l.06.36a.87.86-27.2 0 1-.25.77l-6.41 6.44a1.41 1.36-79.8 0 1-.36.26q-3.36 1.7-6.73 1.56a2.99 2.84 34.7 0 0-1.17.18q-1.78.63-2.35.73-7.83 1.31-11.99 1.69c-1.48.14-2.86 1.37-4.27.36q-3.16-2.23-7.19-3.9c-5.21-2.16-10.67-6.16-15.52-8.23q-7.5-3.2-9.68-4.94a3.2 3.11-14.9 0 0-.91-.51q-2.35-.84-6.25-3.58a.59.56 16.8 0 1-.24-.42l-1.46-16.05a.44.44 0 0 0-.51-.39l-23.3 3.75a1.41 1.38 54.4 0 1-.91-.16l-4.43-2.41a.59.59 0 0 1-.08-.98q1.93-1.51 1.26-2.16a1.33 1.06 20.6 0 0-2.19.72q.03.15.43.9a.57.57 0 0 1-.76.78c-1.92-.95-4.85-2.11-7.24-3.62q-5.75-3.62-12.34-6.17a.2.04 10.9 0 1-.05-.02l-8.8-4.9a2.7 2.69-76.8 0 1-1.38-2.23l-.59-13.72a.81.8-22 0 1 .27-.62l18.97-16.75a.42.4 28.2 0 1 .33-.09q2.06.36 3.48 2.18.02.03.04.37.02.33-.02.45a.55.55 0 0 1-.84.3q-2.32-1.56-3.53-.42c-1.65 1.55-4.16 4.04-6.6 5.79q-3.49 2.5-8.57 7.08a3.86 3.85-21.2 0 0-1.28 2.89q.03 7.88-.08 10.89 0 .13.45 1.21c.72 1.71 1.07 3.38 3.5 2.57zm23.621 12.03a1.13 1.13 0 0 0-.52-1.511l-4.009-1.955a1.13 1.13 0 0 0-1.511.52l-.061.126a1.13 1.13 0 0 0 .52 1.511l4.009 1.955a1.13 1.13 0 0 0 1.511-.52l.061-.126zm7.309 3.55a1.24 1.24 0 0 0-2.48 0 1.24 1.24 0 0 0 2.48 0zm41.67 19.14l-1.25-.25a1.82 1.81-9.8 0 1-1.18-.83q-.62-.98-3-.9-1.06.04-1.38 1.05-.34 1.06-.35 1.63a.78.77-89.6 0 0 .77.79h.82a1.51 1.48 69.3 0 1 1.13.52q.81.95 2.16 1.25a.96.93-62.2 0 0 .89-.29l1.74-1.89a.65.65 0 0 0-.35-1.08zm16.277 11.373a1.21 1.21 0 0 0-.474-1.644l-4.027-2.223a1.21 1.21 0 0 0-1.644.474l-.048.088a1.21 1.21 0 0 0 .474 1.644l4.027 2.223a1.21 1.21 0 0 0 1.644-.474l.048-.088zm8.453 3.91a.84.84 0 0 0-.349-1.135l-1.255-.664a.84.84 0 0 0-1.135.349l-.299.566a.84.84 0 0 0 .349 1.135l1.255.665a.84.84 0 0 0 1.135-.349l.3-.566z"/></g><g class="C"><path d="M150.79 277.22l-13.8-35.97q2.52 4.6 5.14 12.85.35 1.09 2.49 5.52 1.19 2.48 2.2 5.63c2.32 7.25 6.66 11.92 12.09 17.96a.21.21 0 0 1-.28.31l-7.84-6.3zm15.4-30.61a.05.05 0 0 1 .02.07 2.37 2.25 32.5 0 1-3.21.62l-3.17-2.02a2.37 2.25 32.5 0 1-.79-3.17.05.05 0 0 1 .07-.02l7.08 4.52z"/><ellipse cx="0" cy="0" transform="matrix(-.637424 -.770513 .770513 -.637424 159.65 248.9)" rx="3.01" ry=".79"/></g><path d="M368.49 248.11a.45.45 0 0 1-.52-.44v-.31a.56.55 0 0 1 .56-.55h1.37a.53.53 0 0 1 .09 1.06l-1.5.24z" class="B"/><ellipse cx="0" cy="0" transform="matrix(-.912834 -.40833 .40833 -.912834 296.81 249.5)" rx="3.31" ry="1.74" class="C"/><path d="M373.66 251.97a.59.59 0 0 1 .11-1.16q2.88-.05 4.48 1.38a3.22 2.79-35.1 0 0 3.31.34q.31-.15-.01-1.5a.42.41 4 0 1 .56-.48l1.6.6a.88.86-79.9 0 1 .56.82v1.12a.58.58 0 0 0 .54.58q1.26.1 3.19 1.78a.48.48 0 0 1-.28.84q-2.82.19-4.37-2.31a1.21 1.14 87 0 0-.45-.43q-.69-.38-1.52 0a.6.59-25.7 0 0-.29.8q.13.26.09.62a.54.54 0 0 1-.85.38q-4-2.83-6.67-3.38z" class="B"/><path d="M299.53 255.04a.44.44 0 0 1-.3-.76c1.32-1.21 2.99-4.37 4.97-1.61a1.2 1.2 0 0 0 .87.5q1.3.13 1.85.48a.62.62 0 0 1 .2.85l-1.01 1.66a1.12 1.11-76.2 0 1-.87.53q-1.63.11-2.58-1.36a.65.64-16.4 0 0-.54-.29h-2.59zm-138.19-1.93a.12.12 0 0 1 .15.07l5.92 15.11a4.41.45 68.6 0 1 1.19 4.27l-.07.03a4.41.45 68.6 0 1-2.03-3.94l-5.92-15.11a.12.12 0 0 1 .07-.16l.69-.27z" class="C"/><path d="M394.51 255.98q.2-.05.5.09 6.07 2.94 15.09 6.9a.41.4 39.7 0 1 .07.71q-1.17.8-1.98 1.99a.47.47 0 0 0 .36.73q3.47.2 6.99 2.51a.54.54 0 0 1-.19.99q-1.36.25-2.51-.38-3.49-1.89-6.22-2.65a.35.34 39.2 0 1-.07-.64q.95-.47 1.13-1.27a1.53 1.23 12.7 0 0-1.21-1.53c-3-.69-7.73-1.66-7.97-4.71a1.02 1.01 13.4 0 0-.49-.79q-1.6-.94-3.24-1.37a.4.25 33.7 0 1-.26-.58z" class="B"/><path d="M377.64 416.66q-50.9-29.97-101.51-59.84-6.95-4.1-14.58-6.86c-1.57-.57-4.53-2.2-5.25-4.45q-.39-1.23-2.19-1.18a3.19 3.15 56.7 0 1-1.45-.31q-12.25-5.85-29.08-16.11-7.51-4.57-12.4-8.47 1-3.74-1.55-6.36c-1.47-1.51-3.88-1.5-5-3.31q-1.87-3.06-4.23-11.89a9.63 9.34-67 0 0-.71-1.84q-2.6-5.12-3.38-8.12-1.2-4.68-2.84-8.45c-1.94-4.45-3.11-9.44-5.42-14.32a.92.91 75.1 0 0-.9-.53q-1.74.11-2.58-2.35-.61-1.77.78-2.18a.55.55 0 0 0 .37-.7l-.82-2.43a.52.52 0 0 1 .76-.61q8.91 5.32 12.94 7.41 1.41.74 2.8 1.53 15.62 8.93 50.55 27.44a2.66 2.48-24.4 0 0 .77.26c3.02.5 4.78 2.08 7.23 3.41q4.65 2.52 7.95 4.27a2.22 2.15 84 0 1 .67.56q1.59 2 1.82 4.92a2.08 1.69 39.1 0 0 .08.38q7.25 24.13 13.89 48.16.23.83-.53 1.14-.56.23-1.11-.05-2.52-1.24-13.33-8.2a1.3 1.3 0 0 0-1.59.14l-1.67 1.57a.86.86 0 0 0 .19 1.39q3.15 1.64 10.13 5.85.34.2.97.13a.71.7 64.4 0 1 .61.22q.63.68 2.31.96a1.13 1.1 33.7 0 0 .76-.14q1.92-1.11 4.6.42 23.5 13.41 32.23 18.77 4.66 2.86 7.46 4.09a3.67 3.54-8.5 0 1 1.24.88l4.3 4.76a.84.83-67.9 0 1 .23.55q-.01.11.02.39a.46.45 13.2 0 0 .22.35l29.48 17.99a.01.01 0 0 0 .01.01q2.3.93 4.78 2.57c2.38 1.57 5.15 2.96 7.08 3.99q3.41 1.82 4.89 4.19z" class="C"/><g class="B"><rect x="-12.79" y="-.71" transform="matrix(.866897 -.498488 .498488 .866897 284.03 265.31)" width="25.58" height="1.42" rx=".7"/><path d="M391.42 260.38a.44.44 0 0 1-.2-.84c3.21-1.34 6.41 1.16 7.74 3.89a.37.37 0 0 1-.53.48c-2.03-1.25-3.88-3.7-7.01-3.53z"/></g><path d="M367 354.47l9.7 51.31q-1.24.65-.9 3.43a.53.53 0 0 1-.77.54c-2.97-1.47-5.18-3.17-8.5-5.16q-13.29-7.92-35.14-20.45c-2.94-1.69-3.73-7.4-4.35-10.6a1.34 1.33 10.3 0 0-.63-.9l-24.59-15.01a.36.36 0 0 0-.49.11q-.92 1.49-2.49 1.89a1.32 1.13-84 0 1-1.24-1.79q.31-.8 1.47-1.34a.57.57 0 0 0 .06-1.01l-7.08-4.32a5.3 5.29-83.2 0 1-2.29-2.92q-1.12-3.48-2.09-5.2a1.12 1.03-69.2 0 1-.14-.35l-1.86-7.09a1.25 1.23-89.7 0 0-.87-.89q-3.53-.97-4.87-5.69a1.16 1.16 0 0 1 1.64-1.35q.53.26 1.17 1.07a.55.55 0 0 0 .96-.49q-2.74-9.93-5.09-18.13-.96-3.35-4.44-3.85a.93.89-57.8 0 1-.34-1.65q.47-.34 1.47.18a.29.16 2.3 0 0 .42-.21q-.23-.17-.64-.24-.32-.06-.38-.11-1.27-1-1.99-.87a.61.61 0 0 1-.68-.4q-.69-2.01-3.67-3.83c-4.15-2.54-6.26-3.38-9.53-5.39q-2.05-1.26-4.96-2.09a1.02.81-17.9 0 1-.24-.09l-50.13-27.24a.71.71 0 0 1-.09-1.18l.03-.02a1.92 1.91 41.5 0 1 2.02-.12c19.59 10.62 40.35 20.67 51.34 27.49q1.48.92 7.05 3.91 33.37 17.94 65.83 35.14 4.19 2.22 8.7 4.94 3.61 2.17 8.9 4.56 1.68.76 2.35 1.38a2.32 2.28 73.8 0 0 1 .56q2.11.56 3.5 2.04a.33.31 80.3 0 0 .12.09l12.06 6.11a.72.71-79.2 0 1 .39.59l.12 1.57a.36.36 0 0 1-.54.34q-17.46-9.99-38.22-21.04c-2.02-1.07-4.62-2.13-7.2-3.79q-2.26-1.45-4.89-1.77a.69.69 0 0 0-.43 1.29q5 2.81 11.27 6.04 1.87.96 30.46 16.37.59.32 4.43 2.26 3.31 1.68 5.3 3.37zm-31.43.24q-1.55-.91-4.16-1.25a2.19 2.19 0 0 1-.94-.34q-1.44-.93-2.09-2.96a.46.46 0 0 0-.78-.18l-3.73 4.05a.89.88-32.6 0 0-.19.84q.14.46.48.71a.79.74 13.8 0 1 .28.43l2.47 10.29a1.81 1.75-70.5 0 0 .26.57q3.1 4.38 8.4 6.94a.78.77-56 0 0 .91-.18l2.45-2.66a2.62 2.6 59 0 0 .6-2.44l-3.43-13.12a1.15 1.15 0 0 0-.53-.7z" class="C"/><path d="M422.99 271.38q-.93.76-2.24-.39-2.72-2.42-4.56-2.95a.57.57 0 0 1-.4-.45l-.35-2.22a.12.12 0 0 1 .16-.13q2.75 1.13 3.79 3.16a2.37 2.3 90 0 0 .95.98l2.6 1.41a.36.35-50.3 0 1 .05.59z" class="B"/><g class="C"><path d="M185.55 267.78a.2.2 0 0 1 .08-.27l.09-.05a2.09 1.5 61.3 0 1 2.32 1.12l.68 1.24a2.09 1.5 61.3 0 1-.31 2.55l-.09.05a.2.2 0 0 1-.27-.08l-2.5-4.56z"/><rect x="-6.24" y="-.41" transform="matrix(.785857 -.618408 .618408 .785857 178.79 272.94)" width="12.48" height=".82" rx=".39"/></g><path d="M430.85 269.51q-.07-.32.93-.43.99-.12.95.35a.97.93 41.4 0 1-1.88.08zm78.32-.62l.61 1.86q-4.97 2.22-2.96 6.39l-2.82 1.98q-1.55-3.56.24-6.63 1.85-3.19 4.93-3.6zm-116.93 28.75q1.8.25 3.34 1.62a.92.92 0 0 0 1.27-.03l1.78-1.78a.8.79 42.8 0 0-.05-1.16q-4.59-3.9-9.15-.68a.41.41 0 0 1-.65-.33v-.99a.69.69 0 0 1 .44-.64l3.33-1.23a.37.32-49.7 0 1 .18-.03q3.95.02 6.04 1.81a.84.83-31.3 0 0 .76.18q.39-.09.76-.67.27-.42.75-.61 3.88-1.61 4.68-1.65 3.98-.22 6.73-2.84 8.31-7.91 14.4-14.52.69-.74.27-1.7-.34-.76-2.41.52a.56.56 0 0 1-.84-.6q.19-.82 1.75-2.64a.48.48 0 0 1 .8.12q.88 2.05 3.07 1.81a.86.86 0 0 1 .85.46l.91 1.76a.42.42 0 0 1-.32.61q-.16.03-.47-.02a1.09 1.07-63 0 0-.87.29q-10.85 10.57-13.54 13.35-1.96 2.03-1.98 2.94a.43.43 0 0 1-.43.42h-3a1.12 1.11-73.6 0 0-.94.52c-1.76 2.75-5.75.05-7.96 3.03q-1.06 1.44-2.21 2.71a.75.75 0 0 0 .17 1.14l5.33 3.25a.38.37-52.3 0 1 .07.58l-7.97 7.97a1.1 1.03 81.8 0 0-.21.3q-.65 1.37-.22 2.68a.42.41-9 0 1-.4.54h-1.68a.61.61 0 0 1-.58-.8c1.42-4.22 5.98-7.74 8.3-10.39a.5.5 0 0 0-.2-.8q-.49-.19-1.56.47a.27.26 72.3 0 1-.4-.21q-.16-2.26-1.66-2.29a1.01.98 22.2 0 0-.74.3q-.83.85-1.94.5a.91.88 89.8 0 1-.58-.59q-.42-1.26-2.42-1.52-.64-.09-.92-.75a.3.3 0 0 1 .32-.41z" class="B"/><path d="M509.78 270.75q.67 1.77-.78 4.04-.15.29-.2.67-.63.94-1.98 1.68-2.01-4.17 2.96-6.39z" class="C"/><g class="B"><ellipse cx="0" cy="0" transform="matrix(-.835807 -.549023 .549023 -.835807 269.38 273.43)" rx="1.7" ry=".94"/><path d="M509 274.79l-.2.67q.05-.38.2-.67zm-151.79 2.64q-1.33.93-.82 2.37a1.19 1.19 0 0 0 .72.72q.09.03 2.35.41a1.08 1.05 13.2 0 1 .86 1.34q-.08.24-.68.3-2.4.26-3.72-1.95a.7.7 0 0 0-.24-.24l-2.03-1.2a.58.58 0 0 1 0-1q1.07-.63.98-1.5a.75.74 82.6 0 1 .62-.81l3.66-.59a1.07 1.04-28.3 0 1 .84.24q.93.8 2.5 1.27a1.36 1.34-14.4 0 1 .48.28l.81.74a.72.72 0 0 1-.95 1.07q-2.43-2.08-4.73-1.71a1.47 1.42 22.3 0 0-.65.26z"/></g><g class="C"><ellipse cx="0" cy="0" transform="matrix(-.481754 -.876307 .876307 -.481754 171.73 281.6)" rx="2.86" ry=".55"/><ellipse cx="0" cy="0" transform="matrix(.79229 -.610145 .610145 .79229 166.59 282.51)" rx="2.61" ry=".37"/><ellipse cx="0" cy="0" transform="matrix(-.416281 -.909236 .909236 -.416281 192.61 283.46)" rx="2.57" ry=".92"/></g><path d="M371.65 282.22a.13.13 0 0 1 .1.15l-.01.06a1.85 1.41 13.4 0 1-2.13.94l-.29-.07a1.85 1.41 13.4 0 1-1.47-1.8l.01-.06a.13.13 0 0 1 .16-.09l3.63.87z" class="B"/><g class="C"><rect x="-3.36" y="-1.2" transform="matrix(.898794 .438371 -.438371 .898794 282.35 283.33)" width="6.72" height="2.4" rx="1.13"/><ellipse cx="0" cy="0" transform="matrix(-.560639 -.82806 .82806 -.560639 174.92 288.57)" rx="3.08" ry=".42"/><circle cx="291.47" cy="288.29" r="1.24"/></g><rect x="-7.29" y="-.63" transform="matrix(.758134 -.652098 .652098 .758134 150.11 295.05)" width="14.58" height="1.26" rx=".27" class="B"/><g class="C"><ellipse cx="0" cy="0" transform="matrix(-.740805 -.671721 .671721 -.740805 177.67 292.11)" rx=".38" ry=".06"/><ellipse cx="0" cy="0" transform="matrix(-.73373 -.679441 .679441 -.73373 180.91 295.39)" rx="3.51" ry=".6"/></g><path d="M379.29 294.37a.42.42 0 0 1 .29-.7q4.11-.2 6.54 2.75a1.84 1.77-7.4 0 0 .66.49q1.77.77 1.16 1.63a.39.39 0 0 1-.52.1l-5.28-3.22a.53.48-31.2 0 0-.31-.06q-1.43.21-2.54-.99zm46.17-.66a.15.15 0 0 1 .22 0l.07.06a4.4 1.41-46.8 0 1-1.98 4.18l-5.91 6.28a4.4 1.41-46.8 0 1-4.04 2.24l-.07-.07a.15.15 0 0 1 0-.21l11.71-12.48z" class="B"/><ellipse cx="0" cy="0" transform="matrix(-.48786 -.872922 .872922 -.48786 197.5 296.88)" rx="2.7" ry=".94" class="C"/><g class="B"><ellipse cx="0" cy="0" transform="matrix(.738455 -.674302 .674302 .738455 409.44 296.96)" rx="2.23" ry=".96"/><path d="M113.04 326.02q.16-.75.74-1.26c12.02-10.54 17.55-16.01 27.47-23.05a.57.56-23.3 0 1 .88.35q.19.92-.69 2.01a1.26 1.21 8.1 0 1-.53.38l-3.16 1.2a2.22 2.19-79.6 0 0-.93.65l-3.92 4.59a2 1.99 4.6 0 1-.46.39q-5.36 3.3-9.15 7.89-1.22 1.49-3.29 2.76-3.79 2.35-6.56 4.35a.26.25 77.7 0 1-.4-.26z"/></g><path d="M188.84 305.48l-5.86-3.41q3.27.92 5.86 3.41z" class="C"/><g class="B"><rect x="-11.56" y="-.58" transform="matrix(.71325 -.700909 .700909 .71325 386.4 310.31)" width="23.12" height="1.16" rx=".26"/><path d="M466.14 306.08a.27.27 0 0 1 .04.38l-7.87 9.67a2.56.74-50.9 0 1-2.19 1.52l-.43-.35a2.56.74-50.9 0 1 1.04-2.45l7.86-9.68a.27.27 0 0 1 .38-.04l1.17.95z"/></g><path d="M334.73 308.51l-1.74 1.89a.96.93-62.2 0 1-.89.29q-1.35-.3-2.16-1.25a1.51 1.48 69.3 0 0-1.13-.52h-.82a.78.77-89.6 0 1-.77-.79q.01-.57.35-1.63.32-1.01 1.38-1.05 2.38-.08 3 .9a1.82 1.81-9.8 0 0 1.18.83l1.25.25a.65.65 0 0 1 .35 1.08zm-135.97 3.07l-8.3-5.07q4.55 1.58 8.3 5.07z" class="C"/><path d="M381.8 351.78q.21-.3 1-.28a.67.67 0 0 0 .65-.45l7.24-20.43 19.54-20.8a.42.41-39.1 0 1 .66.06q1.58 2.55.6 5.56-.13.4-.64.46a.32.32 0 0 1-.36-.32v-1.54a.88.88 0 0 0-1.52-.6l-15.89 17.27a1.77 1.74-14.2 0 0-.36.59l-7.77 20.57a.94.93 40.3 0 0 .07.81l.65 1.07a.44.44 0 0 1-.35.67q-1.29.09-1.11 2.2a.88.88 0 0 0 1.13.76q1.69-.52 2.28 1.15a.77.76 64 0 1-.29.87q-.26.17-1.06.22-.6.04-.75.63-.8 3.11-.12 4.61a1.38 1.37-59.5 0 0 2.62-.68l-.27-3.57a.47.47 0 0 1 .89-.24q1.87 3.89-1.44 7.04a1.98 1.98 0 0 0-.32 2.46l2.3 3.81a.37.37 0 0 1-.22.55c-2.93.83-1.5 3.8-.43 5.24a.94.94 0 0 0 1.69-.63l-.27-3.55a.35.35 0 0 1 .6-.28q1.59 1.62.61 3.9-.27.62-1.82 1.5a.8.79 69.9 0 0-.39.86q.39 1.77-.04 4.02a.68.68 0 0 0 .59.8q1.12.12 2.13-.53a.24.23-60.6 0 1 .13-.04l8.2-.62a3.21 3.18-70.7 0 0 2.09-1.02l14.66-15.93a.4.23-29.9 0 0 .07-.12q.63-1.4.11-2.6a.71.71 0 0 1 1.11-.82q1.14.99 1.21 2.32a1.33 1.32 65 0 1-.35.97q-10.09 10.88-16.2 17.94c-1.54 1.78-2.33 1.21-4.26 1.3q-6.05.29-8.87.88a1.42 1.42 0 0 1-1.7-1.29q-.42-6.06-2.18-10.48a1.34 1.34 0 0 1 0-1.02q.49-1.18-.5-4.29-1.01-3.2-2-11.85a5.11 4.55 35.3 0 0-.21-.91q-1.01-2.98-1.14-6.2z" class="B"/><g class="C"><path d="M210.48 319l-11.72-7.42q.45-.15 1 .14 4.37 2.38 8.64 4.89 1.49.88 2.08 2.39z"/><rect x="-3.51" y="-1.26" transform="matrix(.875465 .483282 -.483282 .875465 347.56 317.15)" width="7.02" height="2.52" rx="1.21"/><rect x="-1.55" y="-1.16" transform="matrix(.883766 .46793 -.46793 .883766 357.59 322.27)" width="3.1" height="2.32" rx=".84"/></g><path d="M384.26 322.7l.18.18a.11.11 0 0 1 0 .16l-6.1 6.11a.59.58 46.8 0 0-.02.81q.7.77 1.6.8a.59.59 0 0 1 .39 1l-7.62 7.62a.84.83 38.8 0 1-1.06.11q-1.07-.7-2.55-.83a.63.62-63 0 1-.35-1.09q4.47-3.94 7.51-7.69.64-.8 1.26-.76.56.02.73-.66.09-.36.61-.86 2.75-2.66 4.8-4.89a.43.43 0 0 1 .62-.01z" class="B"/><path d="M390.69 330.62l-7.24 20.43a.67.67 0 0 1-.65.45q-.79-.02-1 .28l-1.92-8.23a2.21 2.2-37 0 1 .22-1.54q3.53-6.43 10.59-11.39z" class="C"/><g class="B"><path d="M420.9 354.4a.29.29 0 0 1-.04-.41l8.06-9.66a3.19 1-50.2 0 1 2.81-1.81l.1.09a3.19 1-50.2 0 1-1.27 3.09l-8.05 9.66a.29.29 0 0 1-.41.04l-1.2-1z"/><rect x="-.99" y="-4.72" transform="matrix(.994881 -.101056 .101056 .994881 415.37 347.96)" width="1.98" height="9.44" rx=".95"/><path d="M336.1 355.41l3.43 13.12a2.62 2.6 59 0 1-.6 2.44l-2.45 2.66a.78.77-56 0 1-.91.18q-5.3-2.56-8.4-6.94a1.81 1.75-70.5 0 1-.26-.57l-2.47-10.29a.79.74 13.8 0 0-.28-.43q-.34-.25-.48-.71a.89.88-32.6 0 1 .19-.84l3.73-4.05a.46.46 0 0 1 .78.18q.65 2.03 2.09 2.96a2.19 2.19 0 0 0 .94.34q2.61.34 4.16 1.25a1.15 1.15 0 0 1 .53.7zm-7.02 2.876a2.27 1.11-143.7 0 0 1.172 2.239 2.27 1.11-143.7 0 0 2.487.449 2.27 1.11-143.7 0 0-1.172-2.238 2.27 1.11-143.7 0 0-2.487-.449zm-1.338 2.77a1.33.94-134.8 0 0 .27 1.606 1.33.94-134.8 0 0 1.604.281 1.33.94-134.8 0 0-.27-1.606 1.33.94-134.8 0 0-1.604-.281z"/></g><g class="C"><ellipse cx="0" cy="0" transform="matrix(-.805928 -.592013 .592013 -.805928 330.91 359.63)" rx="2.27" ry="1.11"/><ellipse cx="0" cy="0" transform="matrix(-.704634 -.709571 .709571 -.704634 328.68 362)" rx="1.33" ry=".94"/></g><path d="M378.23 395.36q-1.08-.55-1.31-2.08-1.1-7.21-2.32-12.44a1.86 1.83 60 0 1 .43-1.66c2.75-3.01 5.89-6.8 6.98-7.04a.67.67 0 0 1 .7 1.03l-2.32 3.44a.59.59 0 0 1-.18.18q-2.67 1.87-3.74 4.37a1.08 1.07 50.5 0 0-.06.64l1.94 9.14a.71.71 0 0 0 1.11.43q2.19-1.59 3.58-3.54a2.62 2.61 58 0 0 .44-1.92l-.21-1.31a.76.75-35.3 0 0-1.41-.24l-.99 1.82a.79.79 0 0 1-1.47-.25q-.53-3.22 1.49-3.16a1.84 1.73 65.5 0 0 1.07-3.17q-.88-.81-.84-1.85a.53.52 82.7 0 1 .36-.47l1.93-.62a.11.11 0 0 1 .14.09l1.6 9.91a2.25 2.24 60.2 0 1-.48 1.78q-2.97 3.58-5.23 4.29a1.06 1.05 86.7 0 0-.71.8q-.18.92-.07 1.5a.3.3 0 0 1-.43.33zm7.75 15.86q-.34 1.14-.93 1.69-1.67.72-2.67.58a.74.74 0 0 1-.36-1.3q1.51-1.25 3.96-.97z" class="B"/></svg>