<svg xmlns="http://www.w3.org/2000/svg" baseProfile="tiny" width="512" height="324" xmlns:v="https://vecta.io/nano"><style><![CDATA[.B{fill:#080504}.C{fill:#eed2ad}.D{fill:#dde5ed}.E{fill:#0d0c6e}]]></style><path d="M235.52 0c-3.95 9.75-4.65 20.18-5.38 31q-.81 11.88 2.3 23.38a.85.85 0 0 0 1.53.25q5.83-8.83 9.48-20.1c3.31-10.2 7.19-20.25 10.04-30.57l14.33 4.13a.56.55-74.3 0 1 .38.69c-3.98 14.49-9.73 29.65-18.06 42.6-2.37 3.69-7.94 11.08-12.59 11.48a.77.77 0 0 0-.7.72l-.17 3.52a1.02 1.02 0 0 0 .97 1.07l.54.02a1.34 1.34 0 0 0 1.4-1.38q-.08-2.57 1.15-2.39-1.57 2.59-.31 4.61-2.15.22-5.03-.65-.66.21-1.44-1.06l1.24-.76a1.02 1.01 74.6 0 0 .47-.84q.03-1.11-1.3-1.59a.95.95 0 0 0-1.27.85l-.06 1.11a.39.39 0 0 1-.66.26l-.85-.83q-.1-.22-.11-.47l.04-.56q.56.18.68.1a2.5 2.13 57.1 0 0 .42-3.15c-1.18-1.95-2.51-4.18-3.18-6.93q-2.71-10.96-2.67-16.27.14-16.04 4.75-38.24h4.06z" class="B"/><path d="M236.11 0l17.38 3.96c-2.85 10.32-6.73 20.37-10.04 30.57q-3.65 11.27-9.48 20.1a.85.85 0 0 1-1.53-.25q-3.11-11.5-2.3-23.38c.73-10.82 1.43-21.25 5.38-31h.59z" class="C"/><path d="M5.96 14.97l-1.49-.27q.82-.34 1.49.27z" class="B"/><path d="M5.96 14.97l1 .35q.62.7 1.75.41l7.52 2.29q.65.75 1.48.47l1.81.54q.42.22.95.21L114 47.05a1.06 1.06 0 0 1 .76 1.09l-2.56 35.07q-.26.46-.11 1.25l-1.7 24q.17.37.36.41.48.11.72-.16-.03.18-.07.35 2.71 1 6.02.35l9.37 2.54q.05.22.95.32l-3.96 17.29-6.27-1.81.62-10.76a.11.1 68.1 0 0-.18-.08c-.1.1.02 4.39-.03 5.47h-.01a.01.01 0 0 1-.01-.01q.04-5.53-.97-10.69a.52.52 0 0 0-.51-.41h-4.62a.74.74 0 0 0-.53 1.25c2.92 3.05 2.35 7.87 1.56 11.9a1 1 0 0 1-1.98-.24l.5-10.3a1.12 1.1 12 0 0-.72-1.09l-1.7-.64a.49.48 14.6 0 0-.65.38q-1.15 7.68-.25 15.43l-.89 10.25-.05 1-4.69 55.19a.48.48 0 0 1-.65.41L54.9 177.18a.7.69 12 0 1-.45-.69l.36-6.96q.52-.4 1.21-.41a1.65 1.64-24.8 0 1 1.15.42q1.39 1.25 2.93-.82a.22.21 49.4 0 1 .36.03q.07.14.08.16a.32.31 27 0 0 .54-.17q.8-6.01.83-13.33c0-1.09.57-1.73.77-2.6a.46.46 0 0 0-.49-.57q-1.34.13-1.69.51a1.35 1.35 0 0 0-.35 1.11q1.03 7-.07 13.58a1.99 1.98 8 0 1-2.18 1.64l-3.1-.36q.14-.33.07-.89a1.35 1.34-72.1 0 0-.41-.81l-2.61-2.49a.99.98-28.9 0 0-.87-.25l-2.8.57a1.12 1.1-86.7 0 0-.83.75l-.15.44q-.36 1.24-.12 2.48l-.15.94q-.15.62-.06 1.33l-.23 2.67a.43.43 0 0 1-.58.37L1.81 157.18a.65.65 0 0 1-.42-.62l.46-21.35q.37-1.27.07-2.25 0-.49.14-.92l.07-8.26.72-37.49.08-1.76L4.47 14.7l1.49.27zm9.41 11.22q-.54-.35-.8-.33a.31.3-17.6 0 0-.24.46q.31.53.98.29a.24.23-37.7 0 0 .06-.42zm-.31 6.43a.29.28-17.8 0 0 .19-.35q-.47-1.6-.32-3.14a.11.1-36 0 0-.21-.03q-.52 2.01-.09 3.31a.33.33 0 0 0 .41.21h.02zm-.24 5.1q.28-.01.43-.41a.59.51 53.8 0 0 .02-.27q-.54-2.97-.65-2.97-.11.01-.31 3.02a.59.51-60.2 0 0 .05.27q.18.38.46.36zm-4.38-1.99q.04-.13-.02-.73a.37.37 0 0 0-.72-.1q-.07.17.14.84a.31.31 0 0 0 .6-.01zm8.22 1.49a.56.53-3.7 0 0-.67.72q.14.29.36.35.42.12.51-.36.12-.63-.2-.71zm-8.721 2.157a1.07.42-103 0 0-.168 1.137 1.07.42-103 0 0 .65.948 1.07.42-103 0 0 .168-1.137 1.07.42-103 0 0-.65-.948zm5.471 2.873q-1.03-.95-2.37-.97a.32.31-18 0 0-.26.5q.01.01 2.48.73a.15.15 0 0 0 .15-.26zm7.89 2.81a.42.41 47.1 0 0 .01-.39l-.51-1.11a.32.31 61.7 0 0-.46-.14l-.29.19a.59.58-33.3 0 0-.17.8l.66 1a.33.33 0 0 0 .56-.01l.2-.34zm-12.85.69q-.21-.54-.49-.57a.46.31 66.3 0 0-.13.7q.19.25.29.27a.3.29 84.9 0 0 .33-.4zm84.062 3.713a1.25.34-160.5 0 0 1.065.738 1.25.34-160.5 0 0 1.292.097 1.25.34-160.5 0 0-1.065-.738 1.25.34-160.5 0 0-1.292-.097zm6.738 1.987q-.19-.13-.39-1.21a.29.29 0 0 0-.54-.09q-.37.64-.13 1.43.06.18.29.23.29.08.67.03a.22.22 0 0 0 .1-.39zm3.9 1.62a.38.34 79.4 0 0 .35-.58q-.23-.36-.63-.34-.4.02-.24.37.2.45.52.55zm-14.11.92q-1.18-.9-2.9-.95a.17.16 1.8 0 0-.17.15v.01a.27.27 0 0 0 .24.28q1.5.14 2.16 1.41a.31.3 52.7 0 0 .48.07l.25-.27a.47.46 40.4 0 0-.06-.7zm9.61 3.16q-.11-.6-.12-.61a.55.41 22.3 0 0-.9.23q.05.2.54.64a.29.29 0 0 0 .48-.26zm-2.7 4.55q-.19-.22-.8-.05a.15.15 0 0 0-.06.26q.24.19.71.15a.22.22 0 0 0 .15-.36zm1.47 2.8l-.15 3.04a.5.47 27.3 0 0 .12.34q.32.37.91.43a.22.21-18.7 0 0 .18-.36l-.49-.5a1.17 1.16-52.6 0 1-.18-1.41q.25-.45.01-1.57a.2.2 0 0 0-.4.03zm-6.38 1.35q1.5.92 2.03 1a.25.25 0 0 0 .23-.41q-1.05-1.26-2.22-.92a.18.18 0 0 0-.04.33zm-9.61 2.93q2.47.63.83 3.8-.61 1.19-.26 1.92c.49 1.02-.21 2.28.17 3.16a.1.1 0 0 0 .19-.02l1.67-8.27a.61.61 0 0 0-.45-.71q-1.9-.48-2.17-.39a.27.27 0 0 0 .02.51zm21.13.66l-.21-1.02a.33.33 0 0 0-.65.02q-.16 1.06.38 1.35a.33.33 0 0 0 .48-.35zm-1.21 5.37a.4.35 82.5 0 0 .4-.6q-.13-.19-.58-.32a.22.21-88.5 0 0-.27.26q.11.5.45.66zm-9.5 1l-.34.36a.44.43 39.3 0 0 .07.65q1.93 1.31 2.95 1.22a.2.19-34.5 0 0 .07-.37q-2.63-1.23-2.6-1.8a.09.09 0 0 0-.15-.06zm-80.27.606a1.14.56-99.6 0 0-.362 1.217 1.14.56-99.6 0 0 .742 1.031 1.14.56-99.6 0 0 .362-1.217 1.14.56-99.6 0 0-.742-1.031zm75.132 2.893a1.61.61-96 0 0-.438 1.665 1.61.61-96 0 0 .775 1.537 1.61.61-96 0 0 .438-1.665 1.61.61-96 0 0-.775-1.537zM71.73 80.71l-1.4-.81a.47.47 0 0 0-.62.69q.58.78 1.88.71a.32.32 0 0 0 .14-.59zm21.02.86q-.07.37.18 1.15a.5.5 0 0 0 .97-.19q0-.03-.53-1.05a.33.33 0 0 0-.62.09zm-73.28 21.41l-2.52-.79a.45.45 0 0 0-.58.41l-.72 14.84a1.26 1.26 0 0 0 1.06 1.31q1.06.17 2.29.9a.8.79-74.6 0 1 .38.68l-.02 3.55a.94.94 0 0 0 1.03.94q.92-.02 3.3 1.4a.94.91-19.3 0 0 .26.12l12.42 4.23a.76.76 0 0 0 1-.68l1.2-24.66a.78.78 0 0 0-.67-.82q-1.86-.25-3.36-1.11a.67.66-74 0 1-.33-.61l.64-13.29a1.63 1.62 10.3 0 0-1.14-1.64l-11.7-3.65a.11.09-5.7 0 1-.06-.04q-1.32-1.12-1.53 0a.96.66 61.3 0 0-.02.19l-.34 18.29a.46.46 0 0 1-.59.43zm65.77-18.09q-1.14-.33-1.18-.92a.33.33 0 0 0-.5-.25q-.18.11-.41.56a.49.49 0 0 0 .06.54q.66.78 2.01.51a.23.23 0 0 0 .02-.44zm13.33 4l-.43-2.07a.3.3 0 0 0-.57-.07q-.57 1.19.09 2.47a.49.49 0 0 0 .91-.33zm-33.2-1.08q-.52.67-.29 1.61a.94.93 1.2 0 0 .65.67q1.95.57 2.02.53a.41.41 0 0 0-.06-.73q-1.77-.72-1.85-1.93a.26.26 0 0 0-.47-.15zM96.29 94q.44.65 1.06.8.8.2.72-.85-.01-.12-.97-.59a.59.48.8 0 0-.81.64zm-83.58.15q-.6 2.73.12 4.28a.25.25 0 0 0 .48-.08q.25-3.14-.15-4.23a.24.23 41 0 0-.45.03zm84.13 1.87q-1.1 2.56-.24 4.5a.43.43 0 0 0 .82-.18v-4.2a.3.3 0 0 0-.58-.12zm-4.81.42q-.69 1.03.43 3.11a.26.26 0 0 0 .48-.06q.33-1.25-.29-2.98a.35.35 0 0 0-.62-.07zm-27.535 1.437a1.29.52-103.7 0 0-.2 1.377 1.29.52-103.7 0 0 .811 1.13 1.29.52-103.7 0 0 .2-1.377 1.29.52-103.7 0 0-.811-1.13zm13.085.723q.56.58.7.62a.47.44 85.8 0 0 .51-.63q-.19-.46-.98-.49a.3.3 0 0 0-.23.5zm-6.15 2.72q-.38-.25-.52-.25a.34.23-18.6 0 0-.33.43q.43.31.68.32a.28.27-26.5 0 0 .17-.5zm-3.54 4.35q.8.62.8 1.51a.28.28 0 0 0 .48.19q.54-.59.47-1.36a.73.73 0 0 0-.56-.64q-.97-.22-1.06-.2a.28.28 0 0 0-.13.5zm11.531 2.297a4.93 3.74-114.3 0 0-1.38 6.032 4.93 3.74-114.3 0 0 5.437 2.954 4.93 3.74-114.3 0 0 1.38-6.032 4.93 3.74-114.3 0 0-5.437-2.954zM68.02 110.82q.76.35.99.3a.49.4 49 0 0-.03-.83q-.33-.2-.87-.1a.33.33 0 0 0-.09.63zm-22.908 1.271a.89.48-107.5 0 0-.19.993.89.48-107.5 0 0 .725.704.89.48-107.5 0 0 .19-.993.89.48-107.5 0 0-.725-.704zm45.553-.26a1.46.8-111.5 0 0-.209 1.652 1.46.8-111.5 0 0 1.279 1.065 1.46.8-111.5 0 0 .209-1.652 1.46.8-111.5 0 0-1.279-1.065zM9.937 124.509a1.85.3-154 0 0 1.531 1.081 1.85.3-154 0 0 1.794.541 1.85.3-154 0 0-1.531-1.081 1.85.3-154 0 0-1.794-.541zM87.99 142.54q.59.76.74.9a.57.57 0 0 0 .86-.73q-.5-.74-1.37-.68a.32.32 0 0 0-.23.51zm-34.26 7.48l-4.02-1.51a.38.36-60.8 0 0-.42.13q-.33.44-.04 1.28a.64.63 80.5 0 0 .58.42q1.43.04 2.62.52a.57.57 0 0 1-.05 1.07q-.51.15-.41.71a.37.37 0 0 0 .69.12l1.25-2.17a.4.39 26 0 0-.2-.57zm-2.59 3.02l-1.4-.81a.5.49-73.6 0 0-.74.41l-.43 9.15a.76.76 0 0 0 .56.76q.57.15 1.86-.45a.52.52 0 0 0 .25-.72q-.43-.8-.27-1.87.48-3.3.68-5.49a1.03 1.02 17.8 0 0-.51-.98zm41.5 7.03q.61-1.7-.17-2.55a.37.37 0 0 0-.64.18q-.2 1.1.38 2.39a.23.23 0 0 0 .43-.02zm-4.91 7.57q.39-.66-.32-1.64a.7.7 0 0 0-1.24.6q.01.02.93 1.09a.39.39 0 0 0 .63-.05zm4.63.75l-.47-1.27a.37.37 0 0 0-.69 0q-.1.25-.12.94-.02.49.26.67.95.63 1.05-.02a.62.55-53.9 0 0-.03-.32zm-.75 5.56q.29-.63-.5-1.72a.61.61 0 0 0-1.05.62q.07.15.89 1.18a.39.39 0 0 0 .66-.08z" class="E"/><path d="M8.71 15.73q-1.13.29-1.75-.41.91.01 1.75.41z" class="B"/><path d="M17.71 18.49q-.83.28-1.48-.47.82.08 1.48.47z" class="C"/><path d="M20.47 19.24q-.53.01-.95-.21.52.01.95.21z" class="B"/><g class="C"><path d="M15.37 26.19a.24.23-37.7 0 1-.06.42q-.67.24-.98-.29a.31.3-17.6 0 1 .24-.46q.26-.02.8.33zm-.74 6.22q-.43-1.3.09-3.31a.111.101-36 0 1 .21.03q-.15 1.54.32 3.14a.29.28-17.8 0 1-.19.35h-.02a.33.33 0 0 1-.41-.21zm-.01 1.66q.11 0 .65 2.97a.59.51 53.8 0 1-.02.27q-.15.4-.43.41-.28.02-.46-.36a.59.51-60.2 0 1-.05-.27q.2-3.01.31-3.02zm-4.78 1.67q-.21-.67-.14-.84a.37.37 0 0 1 .72.1q.06.6.02.73a.31.31 0 0 1-.6.01zm8.82 1.48q.32.08.2.71-.09.48-.51.36-.22-.06-.36-.35a.56.53-3.7 0 1 .67-.72z"/><ellipse cx="0" cy="0" transform="matrix(-.224951 -.97437 .97437 -.224951 10.18 40.42)" rx="1.07" ry=".42"/><path d="M15.26 42.51q-2.47-.72-2.48-.73a.32.31-18 0 1 .26-.5q1.34.02 2.37.97a.15.15 0 0 1-.15.26zm7.28 2.9l-.66-1a.59.58-33.3 0 1 .17-.8l.29-.19a.32.31 61.7 0 1 .46.14l.51 1.11a.42.41 47.1 0 1-.01.39l-.2.34a.33.33 0 0 1-.56.01zm-12.42.74q-.1-.02-.29-.27a.46.31 66.3 0 1 .13-.7q.28.03.49.57a.3.29 84.9 0 1-.33.4z"/><ellipse cx="0" cy="0" transform="matrix(-.942641 -.333807 .333807 -.942641 95.69 49.88)" rx="1.25" ry=".34"/><path d="M101.15 51.84q-.38.05-.67-.03-.23-.05-.29-.23-.24-.79.13-1.43a.29.29 0 0 1 .54.09q.2 1.08.39 1.21a.22.22 0 0 1-.1.39zm52.5-.75l10.53 4.84a1.71 1.61-28.2 0 0 .44.12q2.23.31 2.76.82a.15.15 0 0 0 .07.04l8.82 1.58a.42.42 0 0 0 .49-.36l.22-1.84c.41-1.79.46-4.99 2.47-5.39l5.31 1.04q.17.81.78.48.12.07.25.15-.09.17-.34.25a.42.41-14.1 0 0-.29.47q.05.23.01.42 2.34 5.03 5.23 9.61.18.28 1.04-.27-1 .99 1.96 1.2-.36.64 2.46 1.65 5.11 2.34 11.04 3.04l3.16 1.12 8.61 2.27a1.59 1.12 55 0 1 .22.08c1.32.68 3.97 1.88 5.74 1.78a.11.11 0 0 0 .05-.2q-.2-.12-.22-.14a.34.33-65.8 0 1-.13-.36l2.18-8.84a.93.93 0 0 0-.03-.55q-.29-.78-1.21-.72l1.29-.23 4.9 1.34-.04.56-.72-.17a.6.59 75.8 0 0-.58.98q1.05 1.17 1.41-.34l.85.83a.39.39 0 0 0 .66-.26l.06-1.11a.95.95 0 0 1 1.27-.85q1.33.48 1.3 1.59a1.02 1.01 74.6 0 1-.47.84l-1.24.76q-2.15-1.15-4.6-.74a.53.53 0 0 1-.61-.45q-.12-.81-.63-.77a1.93 1.67 68.9 0 0-1.05 2.92q.81 1.21 2.32 2.34a2.44 2.42 63.3 0 0 1.46.49h5.18a.95.94-82.3 0 0 .91-.7l.11-.44a.53.53 0 0 0-.43-.66q-.63-.09-1.22-.93 2.88.87 5.03.65l8.21 2.27a.341.341 0 0 0 .26-.63l-3.45-1.91q.45-3.22-3.33-3.25-.04-.41.09-.96 2.08.14 4.16.56 1.66.34 1.5 1.13-2.28 2.19 2.62 4.55.11-.09.22-.19l1.55.51a1.68 1.64 78.8 0 1 .77.53q1.52 1.89 4 2.36 4.86.91 9.74 1.07l4.11 1.1a.76.76 0 0 0 .88-.41q.05-.11.14-.31a1.47 1.47 0 0 1 1.05-.84l4.67-.96a2.63 2.63 0 0 1 2.25.59q1.93 1.68 4.3 2.71c1.15.5 1.19 1 1.54 2.11a1.68 1.68 0 0 0 .69.91l4.04 2.59-4.99-1.52a.44.44 0 0 0-.42.76l3.64 3.11a.01.01 0 0 1 .01.01c5.23 7.36 12.56 7.8 21.32 8.91a3.39 3.19 58.9 0 1 .93.26q3.13 1.4 5.98 1.16 2.96.94 4.25 1.84 1.26.87.18 2.2a1.68 1.66-22.1 0 0-.36.84q-.23 1.72-1.05 4.63-2.96 10.41-4.99 18.44-1.09 4.3-1.1 4.34-.68 1.94-.86 2.99-.31 1.8-.43 2.12-.3.75-.45 1.32-3.35 12.48-6.96 26.17-1.1 4.15-1.33 5.25c-.31 1.43-1.08 2.54-.91 4.52l-5.66-1.66a.62.59 73.2 0 1-.28-.16l-.75-.7a.65.65 0 0 0-.92.02l-3.96 4.15a1.36 1.26-19.9 0 0-.33.64l-2.74 13.55a.37.37 0 0 0 .63.34c.92-.92 3.59-1.57 4.2.11q.2.57.41.78a1.22 1.22 0 0 0 .9.37q1.86-.07 2.24 1.9l-21.23 72.3a1.01.98-9.3 0 1-.43.58l-16.21 10.63a.35.35 0 0 0-.07.07q-.6.82.57 2.42l.07 1.53-6.34 1.04q-.38.41-.31.67.17.65.64.46l.13.54q0 1.98 1.28 2.5.05.11.1.23.28.73-.84 1.27.03.28-.03.52.09.9.75 1.28 1.05 1.93 1.37 4.48-.05 1.2-.99 1.4a.62.62 0 0 1-.72-.43q-1.14-3.87-2.16-5.22-3.43-4.52-5.57-7.69-1.91-2.83-5.43-1.53-3.41-1.39-4.72-1.36-4.66.08-9.25-.68-2.39-.4-1.83.89-4.29-2.06-9.63-1.8a1.15 1.03-36.7 0 1-.33-.03l-3.22-.77a.21.2-15.2 0 0-.2.34q.94.91 4.62 2.3 2.58.97 8.84 4.59 2.38 1.37 3.48 1.86c4.99 2.23 8.52 6.06 12.55 11.34q.93 1.22 2.41 1.58a.83.83 0 0 0 1-1.04l-.72-2.46q3.04 3.14.99 6.52a.33.33 0 0 0 .48.44q1.87-1.37 3.73-2.61 1.71-1.14 1.87-4.51.85 4.41-4.95 7.71-2.21 1.25-5.54 2.1a1.89 1.82 24.3 0 0-.42.15l-10.57 5.1q-13.96.42-28.38-1.41 4.2-1.3 6.45-1.31 7.71-.03 14.91-.62a1.62 1.61 12.2 0 0 1.28-.82q.37-.67 1.64-1.11a1.09 1.08-15.7 0 0 .7-1.24l-1.15-5.63a1.18 1.17 7 0 0-.64-.81l-6.69-3.11a1.4 1.35-2.5 0 1-.62-.55c-3.94-6.72-11.13-5.77-19.84-6.31q-2.88-.17-7.83-2.1a1.21 1.2-2.4 0 1-.67-.61q-1.84-3.83-5.27-5.71a.35.34-65.7 0 1-.15-.42l.14-.36a.03.02 27.1 0 1 .04-.01l3.51 2.02a.04.04 0 0 0 .05-.06q-1.47-1.83-3.32-2.39.51-1.22-.34-1.79-1.33-.89-2.9-.99a1.7 1.64-25.9 0 1-.77-.25q-1.13-.73-1.91-1.99 1.55-1.13-3.22-2.41l-1.78-.55q-2.32-1.6-5.21-1.87l-3.71-1.61q-1.02-.57-2.12-.52l-3.99-1.99-8.82-3.36q-2.34-.74-2.45 3.95a.48.45-66.3 0 0 .12.34q.35.41.75.09.16.6.59.88l-1.04 1.29a.27.27 0 0 1-.47-.11q-.23-1-.98-1.67l-1.69-2.01a1.8 1.77-63.6 0 1-.42-1.28q.13-1.67 1.79-2.7a.28.27-61.6 0 0-.15-.51q-1.95.07-2.82-1.14a2.55 2.52-7.8 0 0-1.29-.97q-2.64-.89-5.15.11-1.42-.5-1.42-1.56a.8.78-68.7 0 0-.24-.57q-.89-.85-2.65-1.3-1.66-.36-3.07-1.43a2.34 2.21-16.8 0 0-.76-.38l-3.67-1.05 1.37-5q.12-.41-.07-.74-.14-.25-.59-.4-3.07-1.03-6.14-2.58l-.16-.23a.52.52 0 0 0-.64-.17q-1.28.59-2.35 1.72-.98-.41-1-.77l-11.14-17.1c.22-2.71 1.39-4.79.58-7.63l19.74-83.59 3.96-17.29q-.11-.12-.22-.23l15.44-61.74a.39.39 0 0 1 .41-.29l10.28 1.08zm26.91 9.22l-.56.04a.28.28 0 0 0-.06.54L187 63.1a.4.4 0 0 0 .45-.15q.35-.49-.03-.72.35-.34.25-.73-.71-2.59-2.42-4.58-.98-1.31-1.42-3-.19-.69-1.43-1.08-1.11-.22-2.26-.05a.86.85 1.4 0 0-.71.67l-1.15 5.7a.98.98 0 0 0 .98 1.17l1.3-.02zm15.77 46.51q2.57 1.51 4.14 3.92a2.26 2.23-3 0 0 .87.77l4.34 2.17a1.86 1.86 0 0 0 .7.2q4.36.4 7.08-.3a1.22 1.22 0 0 0 .43-2.16q-2.5-1.87-3.97-5.06-4.45-9.67 2.08-17.88a2.16 1.73-84.9 0 1 .26-.27l5.35-4.66q6.52 4.43 7.13 12.38a.37.37 0 0 0 .73.06l4.37-16.76a1.2 1.19 17.6 0 0-.75-1.43c-2.13-.79-4.15-1.75-5.98-2.2q-13.31-3.28-23.55-6.73c-1.33-.45-3.58-.8-4.88-.93a2.92 2.87 34.5 0 0-1.59.28l-32.02 15.63a1.43 1.41 85 0 0-.75.91l-10.54 40.4a2.09 2.07 29.3 0 0 .58 2.03l52.8 50.28a.69.68 29.1 0 0 1.14-.32l17.72-67.91a.25.25 0 0 0-.34-.3q-.02.01-.19.14a.09.09 0 0 1-.14-.11q.33-.83.25-1.39a.3.3 0 0 0-.57-.06l-.25.65a.63.63 0 0 1-1.11.13l-4.25-6.48a.31.3-32.1 0 0-.42-.09l-.27.18a.39.39 0 0 0-.1.57q2.33 2.98 3.38 6.29.18.57.68.82.59.3.69.68a.97.95 61.8 0 1-.28.96q-4.92 4.48-11.17 3.84-7.71-.79-11.6-8.25zm49.44-27.9a.36.36 0 0 0 .08.69l7.08 1.43a1.22 1.21-78.5 0 0 1.44-.96l.41-2.01a1.13 1.12 3.3 0 0-1.2-1.34q-3.56.31-7.81 2.19zm20.94-1.19l-2.96-.9a.51.51 0 0 0-.5.85l2.44 2.33a1.01.87 14.4 0 1 .2.29q.66 1.6.47 2.85a.88.86 24.6 0 0 .31.81q1.29 1.06 2.84 1.36 10.51 2.02 21.93 5.39a.36.35 72.4 0 0 .32-.62q-3.01-2.41-7.12-4 .73.11 1.16.03a.61.61 0 0 0 .36-.97q-2.44-3.19-6.62-3.49a.61.59 15.5 0 0-.58.32q-.4.75.63 1.68-5.53-1.64-10.36-4.59l7.34 3.15a.81.81 0 0 0 1.13-.8q-.06-.79.38-2a.56.56 0 0 0-.49-.75q-3.51-.25-6.19-1.29-3.97-1.52-4.69.35zm-10.23 1.37l-.44 2.15a.68.68 0 0 0 .53.8l4.61.93a1.22 1.21-11.3 0 0 1.25-1.87q-2.18-3.23-5.33-2.63a.78.78 0 0 0-.62.62zm-44.16 18.01q.21 1.74 1.56 3.19a1.19 1.18-34.3 0 0 1.38.25l1.93-.94a.66.63-49.9 0 1 .45-.05l6.05 1.58a.29.29 0 0 0 .36-.22l.12-.61a.58.58 0 0 0-.46-.69l-5.52-1.12a1.66 1.66 0 0 1-.87-2.77l3-3.15a.151.141-83.9 0 0-.18-.23q-2.15 1.38-5.58 3.91-.42.3-1.75.3a.49.49 0 0 0-.49.55zm-26.96 166.03q-.43.8-.96 1.29a1.87 1.84 39.8 0 0 .29 2.91q.36.24.81-.05a.3.3 0 0 0 .11-.11q1.24-1.89.12-4.04a.21.21 0 0 0-.37 0zm6.67 8.39l.06 1.86a.26.26 0 0 0 .27.25h.18a4.58 1.17-1.9 0 0 4.54-1.32v-.04a4.58 1.17-1.9 0 0-4.62-1.02l-.18.01a.26.26 0 0 0-.25.26zm59.45 3.04a2.19 2.18-12.2 0 0 1.54.99q.4.01 1.95-.95a.94.92-9.5 0 0 .41-.56q.15-.67.65-.97a.83.79 27.6 0 0-.51-1.48q-4.75.07-5.67-.25a.2.2 0 0 0-.24.3l1.87 2.92zm-36.05 1.48q-1.29-1-2.01-1.18a.45.44 4.8 0 0-.55.46c.14 1.98-2.24 2.48-3.92 3.07a.53.52-54.7 0 0 .17 1.02q3.46-.03 6.34-2.73a.42.42 0 0 0-.03-.64zm33.77-.92l-1.52 1a.67.67 0 0 0-.1 1.05l5.68 5.41a.35.35 0 0 0 .49-.01l.17-.18a.43.43 0 0 0 .01-.58q-2.4-2.69-3.46-6.23a.85.84-24.9 0 0-1.27-.46z"/></g><path d="M179.45 50.9c-2.01.4-2.06 3.6-2.47 5.39l-9.21-4.23.72-.01q1.48.36 2.53-.02 3.85-1.58 8.43-1.13z" class="E"/><path d="M153.65 51.09q2.62-.37 4.43.23 3.88 1.82 6.52.53l3.17.21 9.21 4.23-.22 1.84a.42.42 0 0 1-.49.36l-8.82-1.58a.15.15 0 0 1-.07-.04q-.53-.51-2.76-.82a1.71 1.61-28.2 0 1-.44-.12l-10.53-4.84z" class="D"/><path d="M164.6 51.85q-2.64 1.29-6.52-.53l6.52.53zm-59.45 1.22q-.32-.1-.52-.55-.16-.35.24-.37.4-.02.63.34a.38.34 79.4 0 1-.35.58z" class="C"/><path d="M171.02 52.03q-1.05.38-2.53.02l2.53-.02zm14.52.39q-.61.33-.78-.48l.78.48z" class="B"/><path d="M188.37 55.19q-2.13-2.31-3.2-1.48.04-.19-.01-.42a.42.41-14.1 0 1 .29-.47q.25-.08.34-.25l1.89.05a.76.76 0 0 1 .56.27q.81.95.13 2.3z" class="D"/><path d="M182.4 52.84q-5.04-.22-.73 4.48-.24 1.57-1.11 2.99l-1.3.02a.98.98 0 0 1-.98-1.17l1.15-5.7a.86.85 1.4 0 1 .71-.67q1.15-.17 2.26.05z" class="B"/><path d="M199.71 52.76l.5.26q.34.3.83.19l.92.18q.75.63 1.92.95l5.18 1.6a1.45 1.45 0 0 1 .97 1.75l-2.1 8.05a.53.52 3.2 0 0 .59.65q.92-.13.78-1.42a.99.99 0 0 1 .38-.89q.22-.17.5-.28.17-.07.13-1.09-.04-.85.77-1.44a.77.77 0 0 1 .88-.03q1.82 1.18.8 2.45a.69.69 0 0 0 .06.94l1.42 1.36a.49.48 42.9 0 0 .69-.02l.27-.28a.56.55 41 0 0-.06-.82q-.68-.54-1.08-1.32a.68.68 0 0 1 .33-.93q1.11-.5 2.63.95a.86.85 48.4 0 0 1.09.07q2.99-2.18 7.16-.26.92-.06 1.21.72a.93.93 0 0 1 .03.55l-2.18 8.84a.34.33-65.8 0 0 .13.36q.02.02.22.14a.11.11 0 0 1-.05.2c-1.77.1-4.42-1.1-5.74-1.78a1.59 1.12 55 0 0-.22-.08l-8.61-2.27q.96-.98-.12-1.83a1.49 1.31-13.2 0 0-.43-.23q-3.09-.95-2.61.94-5.93-.7-11.04-3.04l.88-6.62c.93-.04 1.6.2 2.18.97q1.54 2.07 4.61.91a.31.24-70.5 0 0 .11-.07l2.39-2.52a.64.64 0 0 0-.03-.93q-3.03-2.7-6.29-2-1.32.21-1.48-.84.55-2.23 1.48-2.04zM217 66.36q-1.14 1.15-3 1.95-.6.26-.78.56-.33.53-.23 1a.4.4 0 0 0 .66.22l3.39-2.95 5.26 1a.49.49 0 0 1-.03.97q-.71.09-1.2.61-.47.48.04 1.12.37.48.91.94a.57.56 27.9 0 0 .92-.28l1.5-5.74a1.07 1.07 0 0 0-.77-1.3l-1.85-.48a2.47 2.45-50 0 0-1.65.15q-1.82.84-3.17 2.23zm1.826 3.032a1.01.7-9.6 0 0-1.113-.522 1.01.7-9.6 0 0-.879.859 1.01.7-9.6 0 0 1.113.522 1.01.7-9.6 0 0 .879-.859z" class="D"/><path d="M200.46 52.94q-.12.04-.25.08l-.5-.26.75.18z" class="B"/><path d="M91.04 53.99a.47.46 40.4 0 1 .06.7l-.25.27a.31.3 52.7 0 1-.48-.07q-.66-1.27-2.16-1.41a.27.27 0 0 1-.24-.28v-.01a.17.16 1.8 0 1 .17-.15q1.72.05 2.9.95z" class="C"/><path d="M182.4 52.84q1.24.39 1.43 1.08.44 1.69 1.42 3l-1.28.57q-1.18-.42-2.3-.17-4.31-4.7.73-4.48z" class="E"/><path d="M200.46 52.94l.58.27q-.49.11-.83-.19.13-.04.25-.08zm3.51 1.02q-.05.19-.09.38-1.17-.32-1.92-.95l2.01.57z" class="C"/><path d="M188.37 55.19q4.27.53 7.83.87c.71.07 1.06-.13 1.58-.56l.45 3.23a.71.71 0 0 0 1.01.54l.33-.16a.99.99 0 0 0 .54-1.04l-.4-2.43q3.26-.7 6.29 2a.64.64 0 0 1 .03.93l-2.39 2.52a.31.24-70.5 0 1-.11.07q-3.07 1.16-4.61-.91c-.58-.77-1.25-1.01-2.18-.97l-.12-1.64a.68.68 0 0 0-.69-.63q-1.78.02-3.55-.69a.23.23 0 0 0-.28.35q1.69 2.48 4.64 2.61l-.88 6.62q-2.82-1.01-2.46-1.65.46-1.37-.58-2.59-1.21-1.43-1.58-2.99-.07-.3-.31-.43-.37-.2-.69.07a.41.4 61.7 0 0-.12.43l1.32 4.31q-.86.55-1.04.27-2.89-4.58-5.23-9.61 1.07-.83 3.2 1.48zm38.19 7.96l-1.29.23q-4.17-1.92-7.16.26a.86.85 48.4 0 1-1.09-.07q-1.52-1.45-2.63-.95a.68.68 0 0 0-.33.93q.4.78 1.08 1.32a.56.55 41 0 1 .06.82l-.27.28a.49.48 42.9 0 1-.69.02l-1.42-1.36a.69.69 0 0 1-.06-.94q1.02-1.27-.8-2.45a.77.77 0 0 0-.88.03q-.81.59-.77 1.44.04 1.02-.13 1.09-.28.11-.5.28a.99.99 0 0 0-.38.89q.14 1.29-.78 1.42a.53.52 3.2 0 1-.59-.65l2.1-8.05a1.45 1.45 0 0 0-.97-1.75l-5.18-1.6q.04-.19.09-.38 3.99 1.09 7.93 2.39.94.31 1.54 2.32a1.94 1.92-.7 0 0 1.35 1.3l11.77 3.18z" class="B"/><path d="M198.23 54.8q.16 1.05 1.48.84l.4 2.43a.99.99 0 0 1-.54 1.04l-.33.16a.71.71 0 0 1-1.01-.54l-.45-3.23.45-.7z" class="E"/><path d="M100.17 57.41q-.49-.44-.54-.64a.55.41 22.3 0 1 .9-.23q.01.01.12.61a.29.29 0 0 1-.48.26z" class="C"/><path d="M196.74 59.28q-2.95-.13-4.64-2.61a.23.23 0 0 1 .28-.35q1.77.71 3.55.69a.68.68 0 0 1 .69.63l.12 1.64zm-12.77-1.79l-.99.5a1.49 1.48-48.8 0 0 .18 2.72l4.26 1.52q.38.23.03.72a.4.4 0 0 1-.45.15l-7.06-2.21a.28.28 0 0 1 .06-.54l.56-.04q.87-1.42 1.11-2.99 1.12-.25 2.3.17z" class="D"/><path d="M185.25 56.92q1.71 1.99 2.42 4.58.1.39-.25.73l-4.26-1.52a1.49 1.48-48.8 0 1-.18-2.72l.99-.5 1.28-.57z" class="B"/><path d="M193.4 64.25q-2.96-.21-1.96-1.2l-1.32-4.31a.41.4 61.7 0 1 .12-.43q.32-.27.69-.07.24.13.31.43.37 1.56 1.58 2.99 1.04 1.22.58 2.59z" class="D"/><path d="M97.8 62.06q-.47.04-.71-.15a.15.15 0 0 1 .06-.26q.61-.17.8.05a.22.22 0 0 1-.15.36z" class="C"/><path d="M217.04 67.14q-.19-.34-.04-.78 1.35-1.39 3.17-2.23a2.47 2.45-50 0 1 1.65-.15l1.85.48a1.07 1.07 0 0 1 .77 1.3l-1.5 5.74a.57.56 27.9 0 1-.92.28q-.54-.46-.91-.94-.51-.64-.04-1.12.49-.52 1.2-.61a.49.49 0 0 0 .03-.97l-5.26-1zm5.15-.66a.71.52 52.6 0 0-.03-1.2q-.51-.3-1.6-.07a.39.39 0 0 0-.17.68q.7.59 1.8.59z" class="E"/><path d="M99.82 64.47q.24 1.12-.01 1.57a1.17 1.16-52.6 0 0 .18 1.41l.49.5a.22.21-18.7 0 1-.18.36q-.59-.06-.91-.43a.5.47 27.3 0 1-.12-.34l.15-3.04a.2.2 0 0 1 .4-.03z" class="C"/><path d="M242.21 64.55q-.13.55-.09.96l-.26 1.87a.62.62 0 0 0 .48.69l3.11.69 3.45 1.91a.341.341 0 0 1-.26.63l-8.21-2.27q-1.26-2.02.31-4.61.8-.14 1.47.13zm-10.79.5q.01.25.11.47-.36 1.51-1.41.34a.6.59 75.8 0 1 .58-.98l.72.17z" class="D"/><path d="M222.19 66.48q-1.1 0-1.8-.59a.39.39 0 0 1 .17-.68q1.09-.23 1.6.07a.71.52 52.6 0 1 .03 1.2zm-129.15-.63a.18.18 0 0 1 .04-.33q1.17-.34 2.22.92a.25.25 0 0 1-.23.41q-.53-.08-2.03-1z" class="C"/><path d="M233.96 67.32q.78 1.27 1.44 1.06.59.84 1.22.93a.53.53 0 0 1 .43.66l-.11.44a.95.94-82.3 0 1-.91.7h-5.18a2.44 2.42 63.3 0 1-1.46-.49q-1.51-1.13-2.32-2.34a1.93 1.67 68.9 0 1 1.05-2.92q.51-.04.63.77a.53.53 0 0 0 .61.45q2.45-.41 4.6.74zm-1.6 2.17a.44.43-65.8 0 0 .57-.22q.35-.76-.17-1.06a.83.67 24.9 0 0-1.15.29q-.16.59.75.99zm13.09-.73l-3.11-.69a.62.62 0 0 1-.48-.69l.26-1.87q3.78.03 3.33 3.25z" class="E"/><path d="M258.04 66.24q.09.65-.45 1.29-1.72 1.11-1.44 3.6a1.5 1.5 0 0 0 1.34 1.33q3.57.36 6.9 1.61.91.35 1.54-.56-.36.74.84 1.56-4.88-.16-9.74-1.07-2.48-.47-4-2.36a1.68 1.64 78.8 0 0-.77-.53l-1.55-.51 1.77-.13a.83.82-77 0 0 .66-.42l2.18-3.77a.88.88 0 0 1 .95-.42l1.77.38zm-41.04.12q-.15.44.04.78l-3.39 2.95a.4.4 0 0 1-.66-.22q-.1-.47.23-1 .18-.3.78-.56 1.86-.8 3-1.95z" class="B"/><path d="M250.49 70.79q-4.9-2.36-2.62-4.55l1.55 1.48a1.41 1.36 15.2 0 1 .4.67l.67 2.4z" class="E"/><path d="M264.99 68.83q.36.78 1.14.38.7.93-.02 3.01-.71.41-1.14-.29a.77.62 30.5 0 1-.11-.29q-.23-1.94-1.86-1.91-.51-.81-2.06-1.09l-3.35-1.11q.54-.64.45-1.29l6.95 2.59zm-47.38 14.72c-10.32-5.58-21.81.19-23.33 11.82q-.87 6.72 2.05 11.45 3.89 7.46 11.6 8.25 6.25.64 11.17-3.84a.97.95 61.8 0 0 .28-.96q-.1-.38-.69-.68-.5-.25-.68-.82-1.05-3.31-3.38-6.29a.39.39 0 0 1 .1-.57l.27-.18a.31.3-32.1 0 1 .42.09l4.25 6.48a.63.63 0 0 0 1.11-.13l.25-.65a.3.3 0 0 1 .57.06q.08.56-.25 1.39a.09.09 0 0 0 .14.11q.17-.13.19-.14a.25.25 0 0 1 .34.3l-17.72 67.91a.69.68 29.1 0 1-1.14.32l-52.8-50.28a2.09 2.07 29.3 0 1-.58-2.03l10.54-40.4a1.43 1.41 85 0 1 .75-.91l32.02-15.63a2.92 2.87 34.5 0 1 1.59-.28c1.3.13 3.55.48 4.88.93q10.24 3.45 23.55 6.73c1.83.45 3.85 1.41 5.98 2.2a1.2 1.19 17.6 0 1 .75 1.43l-4.37 16.76a.37.37 0 0 1-.73-.06q-.61-7.95-7.13-12.38zm-41.78-2.12a6.61 6.06-88.7 0 0-3.44 9.44 6.62 6.06-89.1 0 0 6.12 3.38 6.61 6.07-88.7 0 0 4.77-3.96 6.6 6.05-88.6 0 0-1.78-7.77 6.6 6.05-89 0 0-5.67-1.09zm-17.15 37.87a15.63 13.85-89.8 0 0 11.32 9.38 15.52 13.73-87.7 0 0 6.23-.89 15.64 13.84-89.7 0 0 8.58-10.6 15.64 13.86-89.7 0 0-5.1-16.6 15.63 13.85-89.7 0 0-9.9-2.99 15.64 13.85-89.6 0 0-9.98 6.98 15.64 13.87-89.6 0 0-1.15 14.72zm34.424 2.607a4.74 4.34-93.1 0 0-4.077 4.968 4.74 4.34-93.1 0 0 4.59 4.498 4.74 4.34-93.1 0 0 4.077-4.968 4.74 4.34-93.1 0 0-4.59-4.498zm-7.784 16.233a8.38 7.42 85.9 0 0-1.93 7.73 8.4 7.43 85.6 0 0 4.32 5.92 8.41 7.44 86.4 0 0 6.9-.48 8.42 7.44 85.5 0 0 3.42-7.82 8.39 7.44 85.3 0 0-5.55-7.44 8.37 7.41 85.1 0 0-7.16 2.09z" class="D"/><path d="M257.59 67.53l3.35 1.11q-1.23-.04-.6 1.66a.46.46 0 0 1-.16.54q-.4.28-.29.68a.47.45.3 0 0 .33.32q2.31.62 2.78-2.11 1.63-.03 1.86 1.91a.77.62 30.5 0 0 .11.29q.43.7 1.14.29.15.69-.18 1.29-.63.91-1.54.56-3.33-1.25-6.9-1.61a1.5 1.5 0 0 1-1.34-1.33q-.28-2.49 1.44-3.6z" class="C"/><path d="M210.06 70.06l-3.16-1.12q-.48-1.89 2.61-.94a1.49 1.31-13.2 0 1 .43.23q1.08.85.12 1.83z" class="B"/><path d="M232.36 69.49q-.91-.4-.75-.99a.83.67 24.9 0 1 1.15-.29q.52.3.17 1.06a.44.43-65.8 0 1-.57.22zM83.41 68.27q.27-.09 2.17.39a.61.61 0 0 1 .45.71l-1.67 8.27a.1.1 0 0 1-.19.02c-.38-.88.32-2.14-.17-3.16q-.35-.73.26-1.92 1.64-3.17-.83-3.8a.27.27 0 0 1-.02-.51zm21.15 1.17a.33.33 0 0 1-.48.35q-.54-.29-.38-1.35a.33.33 0 0 1 .65-.02l.21 1.02z" class="C"/><path d="M260.94 68.64q1.55.28 2.06 1.09-.47 2.73-2.78 2.11a.47.45.3 0 1-.33-.32q-.11-.4.29-.68a.46.46 0 0 0 .16-.54q-.63-1.7.6-1.66z" class="B"/><path d="M266.13 69.21q-.78.4-1.14-.38.51 0 1.14.38z" class="C"/><ellipse cx="0" cy="0" transform="matrix(.985996 -.166769 .166769 .985996 217.83 69.56)" rx="1.01" ry=".7" class="E"/><g class="C"><path d="M103.35 74.81q-.34-.16-.45-.66a.22.21-88.5 0 1 .27-.26q.45.13.58.32a.4.35 82.5 0 1-.4.6zM94 75.87q-.03.57 2.6 1.8a.2.19-34.5 0 1-.07.37q-1.02.09-2.95-1.22a.44.43 39.3 0 1-.07-.65l.34-.36a.09.09 0 0 1 .15.06z"/><ellipse cx="0" cy="0" transform="matrix(-.166769 -.985996 .985996 -.166769 13.77 77.54)" rx="1.14" ry=".56"/></g><path d="M245.77 78.92q4.25-1.88 7.81-2.19a1.13 1.12 3.3 0 1 1.2 1.34l-.41 2.01a1.22 1.21-78.5 0 1-1.44.96l-7.08-1.43a.36.36 0 0 1-.08-.69zm23.46.15l-2.52-1.34q.72-1.87 4.69-.35 2.68 1.04 6.19 1.29a.56.56 0 0 1 .49.75q-.44 1.21-.38 2a.81.81 0 0 1-1.13.8l-7.34-3.15z" class="B"/><path d="M266.71 77.73l2.52 1.34q4.83 2.95 10.36 4.59l5.05 2.43q4.11 1.59 7.12 4a.36.35 72.4 0 1-.32.62q-11.42-3.37-21.93-5.39-1.55-.3-2.84-1.36a.88.86 24.6 0 1-.31-.81q.19-1.25-.47-2.85a1.01.87 14.4 0 0-.2-.29l-2.44-2.33a.51.51 0 0 1 .5-.85l2.96.9z" class="D"/><path d="M257.1 78.48q3.15-.6 5.33 2.63a1.22 1.21-11.3 0 1-1.25 1.87l-4.61-.93a.68.68 0 0 1-.53-.8l.44-2.15a.78.78 0 0 1 .62-.62z" class="B"/><g class="C"><ellipse cx="0" cy="0" transform="matrix(-.104528 -.994522 .994522 -.104528 88.88 80.91)" rx="1.61" ry=".61"/><path d="M71.59 81.3q-1.3.07-1.88-.71a.47.47 0 0 1 .62-.69l1.4.81a.32.32 0 0 1-.14.59zm21.78.18q.53 1.02.53 1.05a.5.5 0 0 1-.97.19q-.25-.78-.18-1.15a.33.33 0 0 1 .62-.09zm85.14 12.77q-4.77-2.71-4.63-6.75.13-3.54 3.16-4.71a.48.48 0 0 0 .21-.73q-.42-.59-1.42-.63a6.6 6.05-89 0 1 5.67 1.09 6.6 6.05-88.6 0 1 1.78 7.77 6.61 6.07-88.7 0 1-4.77 3.96z"/></g><path d="M217.61 83.55l-5.35 4.66a2.16 1.73-84.9 0 0-.26.27q-6.53 8.21-2.08 17.88 1.47 3.19 3.97 5.06a1.22 1.22 0 0 1-.43 2.16q-2.72.7-7.08.3a1.86 1.86 0 0 1-.7-.2l-4.34-2.17a2.26 2.23-3 0 1-.87-.77q-1.57-2.41-4.14-3.92-2.92-4.73-2.05-11.45c1.52-11.63 13.01-17.4 23.33-11.82z" class="B"/><path d="M290.44 82.56l26.47 12.69q-2.85.24-5.98-1.16a3.39 3.19 58.9 0 0-.93-.26c-8.76-1.11-16.09-1.55-21.32-8.91a.01.01 0 0 0-.01-.01l-3.64-3.11a.44.44 0 0 1 .42-.76l4.99 1.52z" class="D"/><path d="M175.83 81.43q1 .04 1.42.63a.48.48 0 0 1-.21.73q-3.03 1.17-3.16 4.71-.14 4.04 4.63 6.75a6.62 6.06-89.1 0 1-6.12-3.38 6.61 6.06-88.7 0 1 3.44-9.44zm108.81 4.66l-5.05-2.43q-1.03-.93-.63-1.68a.61.59 15.5 0 1 .58-.32q4.18.3 6.62 3.49a.61.61 0 0 1-.36.97q-.43.08-1.16-.03z" class="B"/><path d="M112.2 83.21l-.11 1.25q-.15-.79.11-1.25zm-92.73 19.77a.46.46 0 0 0 .59-.43l.34-18.29a.96.66 61.3 0 1 .02-.19q.21-1.12 1.53 0a.11.09-5.7 0 0 .06.04l11.7 3.65a1.63 1.62 10.3 0 1 1.14 1.64l-.64 13.29a.67.66-74 0 0 .33.61q1.5.86 3.36 1.11a.78.78 0 0 1 .67.82l-1.2 24.66a.76.76 0 0 1-1 .68l-12.42-4.23a.94.91-19.3 0 1-.26-.12q-2.38-1.42-3.3-1.4a.94.94 0 0 1-1.03-.94l.02-3.55a.8.79-74.6 0 0-.38-.68q-1.23-.73-2.29-.9a1.26 1.26 0 0 1-1.06-1.31l.72-14.84a.45.45 0 0 1 .58-.41l2.52.79zm16.6 16.7q.57-3.01.09-5.8l1.16-7.65a.74.74 0 0 0-.56-.83q-2.31-.55-3.42-2.21a1.55 1.55 0 0 1-.26-.86l.18-12.45a.99.99 0 0 0-.7-.97l-9.73-3.04a.96.96 0 0 0-1.25.98l.46 7.9a2.54 2.49-39.7 0 1-.08.77q-1.06 3.96-.8 8.2a.78.77-9.5 0 1-.56.78q-.84.24-2.22.1a.72.71-85.8 0 0-.78.68l-.54 11.1a.96.95-73.8 0 0 .48.88l3.12 1.8a.57.57 0 0 1 .28.51l-.14 2.74a1.28 1.28 0 0 0 .82 1.25l13.62 5.12a.86.86 0 0 0 1.16-.84l-.33-8.16zm49.15-34.35q-1.35.27-2.01-.51a.49.49 0 0 1-.06-.54q.23-.45.41-.56a.33.33 0 0 1 .5.25q.04.59 1.18.92a.23.23 0 0 1-.02.44zm-82.29-.8l-.08 1.76.08-1.76z" class="C"/><path d="M36.16 113.88q-1.32-5.27-5.47-8.49c-3.49-2.71-8.38-2.87-10.54 1.51-2.68 5.44.15 12.36 4.66 15.75 4.45 3.34 9.52 2.55 11.26-2.97l.33 8.16a.86.86 0 0 1-1.16.84l-13.62-5.12a1.28 1.28 0 0 1-.82-1.25l.14-2.74a.57.57 0 0 0-.28-.51l-3.12-1.8a.96.95-73.8 0 1-.48-.88l.54-11.1a.72.71-85.8 0 1 .78-.68q1.38.14 2.22-.1a.78.77-9.5 0 0 .56-.78q-.26-4.24.8-8.2a2.54 2.49-39.7 0 0 .08-.77l-.46-7.9a.96.96 0 0 1 1.25-.98l9.73 3.04a.99.99 0 0 1 .7.97l-.18 12.45a1.55 1.55 0 0 0 .26.86q1.11 1.66 3.42 2.21a.74.74 0 0 1 .56.83l-1.16 7.65zM25.387 90.281a4.71 3.39-117.2 0 0-.862 5.739 4.71 3.39-117.2 0 0 5.168 2.64 4.71 3.39-117.2 0 0 .862-5.739 4.71 3.39-117.2 0 0-5.168-2.64z" class="E"/><path d="M98.57 88.89a.49.49 0 0 1-.91.33q-.66-1.28-.09-2.47a.3.3 0 0 1 .57.07l.43 2.07zm-32.73-.93q.08 1.21 1.85 1.93a.41.41 0 0 1 .06.73q-.07.04-2.02-.53a.94.93 1.2 0 1-.65-.67q-.23-.94.29-1.61a.26.26 0 0 1 .47.15z" class="C"/><ellipse cx="0" cy="0" transform="matrix(-.457098 -.889416 .889416 -.457098 27.54 94.47)" rx="4.71" ry="3.39" class="B"/><path d="M212.81 96.56q1.33 0 1.75-.3 3.43-2.53 5.58-3.91a.15.14-83.9 0 1 .18.23l-3 3.15a1.66 1.66 0 0 0 .87 2.77l5.52 1.12a.58.58 0 0 1 .46.69l-.12.61a.29.29 0 0 1-.36.22l-6.05-1.58a.66.63-49.9 0 0-.45.05l-1.93.94a1.19 1.18-34.3 0 1-1.38-.25q-1.35-1.45-1.56-3.19a.49.49 0 0 1 .49-.55zm1.026 1.515a.99.72-164.5 0 0 .762.958.99.72-164.5 0 0 1.146-.429.99.72-164.5 0 0-.762-.958.99.72-164.5 0 0-1.146.429z" class="D"/><path d="M96.29 94a.59.48.8 0 1 .81-.64q.96.47.97.59.08 1.05-.72.85-.62-.15-1.06-.8zm-83.13.12q.4 1.09.15 4.23a.25.25 0 0 1-.48.08q-.72-1.55-.12-4.28a.24.23 41 0 1 .45-.03zm83.68 1.9a.3.3 0 0 1 .58.12v4.2a.43.43 0 0 1-.82.18q-.86-1.94.24-4.5zm-4.19.49q.62 1.73.29 2.98a.26.26 0 0 1-.48.06q-1.12-2.08-.43-3.11a.35.35 0 0 1 .62.07z" class="C"/><path d="M179.71 100.59q-12.11 11.09-1.74 23.12a1.68 1.68 0 0 1-.94 2.74q-2.61.53-4.64 1.26-1.96.7-5.34-.77-2.94-1.28-8.37-7.64a15.64 13.87-89.6 0 1 1.15-14.72 15.64 13.85-89.6 0 1 9.98-6.98 15.63 13.85-89.7 0 1 9.9 2.99z" class="B"/><g class="C"><ellipse cx="0" cy="0" transform="matrix(-.96363 -.267238 .267238 -.96363 214.79 98.34)" rx=".99" ry=".72"/><ellipse cx="0" cy="0" transform="matrix(-.236838 -.971549 .971549 -.236838 64.8 99.13)" rx="1.29" ry=".52"/><path d="M77.81 98.1q.79.03.98.49a.47.44 85.8 0 1-.51.63q-.14-.04-.7-.62a.3.3 0 0 1 .23-.5zm80.87 21.2q5.43 6.36 8.37 7.64 3.38 1.47 5.34.77 2.03-.73 4.64-1.26a1.68 1.68 0 0 0 .94-2.74q-10.37-12.03 1.74-23.12a15.64 13.86-89.7 0 1 5.1 16.6 15.64 13.84-89.7 0 1-8.58 10.6 15.52 13.73-87.7 0 1-6.23.89 15.63 13.85-89.8 0 1-11.32-9.38zm23.58-11.26l-5.52 3.62a1.01.98-9.6 0 0-.39.53q-.56 1.85.89 3.12a1.32 1.24 40 0 0 1.85-.1q.56-.71 1.48-.83a1.42 1.41-37.4 0 1 .77.1q1.78.74 3 .48a.54.53-45.2 0 0 0-1.05l-3.38-.68a1.61 1.61 0 0 1-.49-2.97q1.26-.73 2.08-1.93a.21.21 0 0 0-.29-.29zm-111-6.22q-.25-.01-.68-.32a.34.23-18.6 0 1 .33-.43q.14 0 .52.25a.28.27-26.5 0 1-.17.5z"/></g><path d="M36.16 113.88q.48 2.79-.09 5.8c-1.74 5.52-6.81 6.31-11.26 2.97-4.51-3.39-7.34-10.31-4.66-15.75 2.16-4.38 7.05-4.22 10.54-1.51q4.15 3.22 5.47 8.49zm-7.29-.84a.54.54 0 1 0-1.08 0 .54.54 0 1 0 1.08 0z" class="B"/><path d="M68.02 105.17q.09-.02 1.06.2a.73.73 0 0 1 .56.64q.07.77-.47 1.36a.28.28 0 0 1-.48-.19q0-.89-.8-1.51a.28.28 0 0 1 .13-.5z" class="C"/><ellipse cx="0" cy="0" transform="matrix(-.411514 -.911403 .911403 -.411514 81.45 112.46)" rx="4.93" ry="3.74" class="B"/><path d="M182.55 108.33q-.82 1.2-2.08 1.93a1.61 1.61 0 0 0 .49 2.97l3.38.68a.54.53-45.2 0 1 0 1.05q-1.22.26-3-.48a1.42 1.41-37.4 0 0-.77-.1q-.92.12-1.48.83a1.32 1.24 40 0 1-1.85.1q-1.45-1.27-.89-3.12a1.01.98-9.6 0 1 .39-.53l5.52-3.62a.21.21 0 0 1 .29.29zm-3.86 4.29a.88.72-62.2 0 0-1.11.47q-.19.39.06.61a.93.73 34.3 0 0 1.34-.09q.28-.63-.29-.99z" class="D"/><path d="M111.47 108.71q-.24.27-.72.16-.19-.04-.36-.41l1.08.25zm5.95.7q-3.31.65-6.02-.35 2.99-.48 6.02.35z" class="B"/><g class="C"><path d="M68.11 110.19q.54-.1.87.1a.49.4 49 0 1 .03.83q-.23.05-.99-.3a.33.33 0 0 1 .09-.63zm49.4 17.56l-1.05-.25q-.41-.19-.92-.13l-2.59.02q-2.23-.46-3.71.02l-1.21.55q-.9-7.75.25-15.43a.49.48 14.6 0 1 .65-.38l1.7.64a1.12 1.1 12 0 1 .72 1.09l-.5 10.3a1 1 0 0 0 1.98.24c.79-4.03 1.36-8.85-1.56-11.9a.74.74 0 0 1 .53-1.25h4.62a.52.52 0 0 1 .51.41q1.01 5.16.97 10.69a.01.01 0 0 0 .01.01h.01c.05-1.08-.07-5.37.03-5.47a.11.1 68.1 0 1 .18.08l-.62 10.76z"/><ellipse cx="0" cy="0" transform="matrix(-.300706 -.953717 .953717 -.300706 45.38 112.94)" rx=".89" ry=".48"/><ellipse cx="0" cy="0" transform="matrix(-.366501 -.930418 .930418 -.366501 91.2 113.19)" rx="1.46" ry=".8"/></g><path d="M127.52 112.04q.11.11.22.23-.9-.1-.95-.32.33.14.73.09z" class="B"/><path d="M401.29 126.99q.19.2.67.24l2.82.79q.3.15.68.19l8.58 2.37.66.12 4.8 1.42-4.42 16.47a.26.25-75.7 0 0 .18.32l.25.07a.03.02-58.3 0 0 .02-.01l4.92-16.59q.98-.06.93 1.43-.03.95 1.43 1 .84 1.25 2.92.84l1.1.29q.44 1.17.22 2.1a.57.56 12.5 0 0 .44.68l.42.08a.6.6 0 0 0 .72-.65q-.12-1.04.6-1.43a.78.77-5.9 0 1 1.11.9q-1.7 5.69-4.22 14.52-.34 1.18-.18 1.8a.55.54 53.4 0 0 .99.15q1.92-3.05 1.92-7.07a2.61 2.57-33.8 0 1 .21-1.02l1.84-4.47a.93.91 54.7 0 0 .07-.44l-.21-3.33a.31.3-12.6 0 1 .2-.31h.01a.27.26-2 0 1 .29.26q0 1.07-.27 1.52a.42.42 0 0 0 .27.63q.53.12.35.95a.14.14 0 0 0 .21.14q.08-.06.07-.45-.02-1.48-.41-4.25a.3.29 85.8 0 1 .29-.34h.38a.32.32 0 0 1 .32.3q.3 4.71-1.37 9l-3.47 12.81a.29.29 0 0 0 .21.35l2.1.55a.29.28-72.2 0 0 .34-.18c2.53-7.15 4.53-13.22 4.15-20.01a.21.1-88.5 0 0-.07-.16q-.05-.03-.06-.13a.11.08-61.5 0 0-.17.09q.61 7.15-2.74 14.08a.07.06 62.5 0 1-.12-.04c.65-4.72 2.75-9.16 2.25-14.39a1.29 1.28 60.7 0 1 .25-.9q.39-.52 1.02-.89l1.65.46q.93.82 1.81.64l.46.11q.35.15.75.13.7.1.99.45l-.51-.07a.17.17 0 0 0-.1.32q1.93.86 4.05.87 1.13.97 3.28 1.02 1.82 1.17 4.32 1.24L512 159.77v3.56L455.82 324h-2.28l-66.91-25.21a.71.71 0 0 1-.43-.85l2.7-9.95 1.93-9.2q2.15-4.53 2.15-8.52a2.34 2.34 0 0 0-1.63-2.24q-3-.95-5.7-2.27a1.73 1.62 12 0 0-2.48 1.49q.07 1.1 2.19 1.29a.58.58 0 0 1 .5.74q-.52 1.81.56 2.61-2.8 3.15-3.4 8.98-.84.3-.49 1.39a1.15 1.11-89.1 0 0 .65.69q1 .4 1.46 1.62a.58.58 0 0 1-.39.77q-.56.15-1.89-.1a.67.67 0 0 1-.55-.65q-.02-1.02-.2-1.18-.67-.6-.98-.52a.59.58 80.4 0 0-.44.63q.12 1.15-1.48 1.14l-1.21.25q-.9-.41-1.09.47-.92 4.13-2.24 8.16a.47.47 0 0 1-.62.3l-61.53-23.15a.64.63 15.9 0 1-.4-.71l6.76-32.73 3.39 1.27a.05.04-66.3 0 0 .06-.03l.12-.32a.18.17 17.9 0 0-.13-.24l-2.57-.51a.22.21 12.7 0 1-.16-.25l.06-.28a.29.29 0 0 1 .41-.21l4.03 1.98a.13.12-66.3 0 0 .17-.07l.13-.34a.27.26 27.9 0 0-.1-.31q-2.17-1.46-4.62-2.06l3.78.01a.84.84 0 0 1 .81.62q.39 1.43.2 2.58a.23.23 0 0 0 .35.23l.64-.43a.06.06 0 0 0 .04-.04q.15-.28-.03-.3a.13.08-28.1 0 1 .11-.18q.01 0 1.55 0a1.84 1.8 60.2 0 1 .95.27q2.55 1.58 4.6 1.92 6.94 1.14 13.98 1.23c1.68.02 4.52.42 5.76.59a.46.45-86.9 0 0 .52-.47c-.04-1.13-.69-3.13-.61-4.55q.28-5.05.74-10.69c.26-3.16 1.59-6.03 1.95-9.45a1.03 1.03 0 0 1 1.29-.88l1.24.32a.44.43-10.2 0 0 .47-.67c-2.94-4.11-.11-11.87.96-16.98a.34.34 0 0 0-.4-.4q-.11.02-.18.03a.83.82-18.8 0 1-.87-.42q-1.59-2.93-1.14-5.94a.51.51 0 0 0-.38-.57l-3.11-.81a1.18 1.15-.7 0 1-.81-.77c-1.7-5.37-5.11-10.17-7.78-15.61q-1.49-3.04-3.1-5.97-1.02-2.14-1.27-4.3a1.33 1.31 18 0 0-.42-.81q-1.77-1.62-1.89-4.27l1.29-7.25q.15-.25.2-.62.75-.52.39-1.76.42-.78.33-1.52l9.18-35.42a.41.4 15 0 1 .51-.29l52.27 14.68zm-30.71 1.62q-.27-.06-.46-.59-.1-.29.12-.53.99-1.1 1.23-2.53a.29.28 17 0 0-.18-.32l-.01-.01a.45.45 0 0 0-.6.3l-.99 3.5a.35.34 34.2 0 0 .06.31q.29.37.84.22a.18.18 0 0 0-.01-.35zm-10.62-3q.24.23 1.07.52a.3.3 0 0 0 .31-.49q-.42-.43-1.2-.46a.25.25 0 0 0-.18.43zm16.6 4.58q.24-.17.24-.53a.23.22-13.1 0 0-.32-.19q-.32.17-.36.38a.32.28 79.8 0 0 .44.34zm-4.04 5.34a.23.23 0 0 0 .19-.4q-.17-.14-2.56-.68a.23.23 0 0 0-.23.36q.16.2 2.6.72zm2.23-.04q-.47.11-.58.32a.67.53 15.5 0 0 .58.79q.41.06.57-.19.26-.39-.04-.73-.24-.26-.53-.19zm13.74 1.44q.4-.76.3-1.28a.32.32 0 0 0-.58-.13q-.47.66-.28 1.35a.3.3 0 0 0 .56.06zm-11.63-.02q1.83.79 1.96.7a.38.38 0 0 0-.12-.66q-1.72-.54-1.79-.52a.25.25 0 0 0-.05.48zm44.922.123a.93.69-136.8 0 0 .206 1.14.93.69-136.8 0 0 1.15.134.93.69-136.8 0 0-.206-1.14.93.69-136.8 0 0-1.15-.134zm2.558 3.987q-.11-.6-.27-.75a.63.63 0 0 0-1.03.28c-1.42 4.74-3.36 10.11-2.68 11.86a.39.39 0 0 0 .75-.2q-.1-.77.47-1.53.35 1.18 1.2 1-.1 1.98.16 2.05a1.38 1.38 0 0 0 1.68-.94l3.46-11.75a.63.63 0 0 0-.6-.81q-1.31-.02-1.67.98-.11-1.76.06-3.57-.12.44-.12.87a.67.67 0 0 1-.54.66q-1.01.21-1.56-.97a.08.04 42.5 0 0-.12-.04q.07.15 0 .34a.07.05-66.6 0 0 .01.06q1.34 1.35.8 2.46zm-50.58-1.28q-.35 1.33-.35 1.43a.21.21 0 0 0 .29.19c.55-.24.37-1.1.47-1.49q.35-1.32.35-1.42a.21.21 0 0 0-.3-.19c-.54.24-.36 1.1-.46 1.48zm-13.59 1.16q-.13.31-.11.53a.27.27 0 0 0 .53.05q.14-.46.07-.59a.27.27 0 0 0-.49.01zm7.797-.27a1.47.27-165.4 0 0 1.354.632 1.47.27-165.4 0 0 1.491.109 1.47.27-165.4 0 0-1.354-.632 1.47.27-165.4 0 0-1.491-.109zm-7.857 3.201a.62.3 88.8 0 0-.37-.72q-.57.25-.63 1.08-.03.43.59.43.35 0 .41-.79zm32.85-.37q-.49.49-.6 1.88a.46.46 0 0 0 .9.18q.07-.2.12-1.88a.25.25 0 0 0-.42-.18zm-35.44.06q-.64-.15-.66-.14a.22.22 0 0 0-.03.4q.27.15.64.14a.2.2 0 0 0 .05-.4zm93.665 3.754a1.15.4-74.1 0 0-.7.996 1.15.4-74.1 0 0 .07 1.216 1.15.4-74.1 0 0 .7-.996 1.15.4-74.1 0 0-.07-1.216zm-79.963 3.721a1.43.36-69 0 0-.849 1.206 1.43.36-69 0 0-.176 1.464 1.43.36-69 0 0 .849-1.206 1.43.36-69 0 0 .176-1.464zm-3.423 1.815q-1.34-.45-1.59-.36a.24.24 0 0 0-.02.45q1.14.51 1.59.38a.25.25 0 0 0 .02-.47zm49.32.84q.72.67 1.49.88a.44.44 0 0 0 .52-.6q-.51-1.23-1.61-1.16a.55.5-23.4 0 0-.4.88zm-41.09 1.62q-.07.17-.03.34.04.15.22.21 4.36 1.6 4.48 1.31.12-.3-4.15-2.13-.18-.08-.31.01-.14.09-.21.26zm102.703.486a1.11.37-64.8 0 0-.807.847 1.11.37-64.8 0 0-.138 1.162 1.11.37-64.8 0 0 .807-.847 1.11.37-64.8 0 0 .138-1.162zm-8.383 1.354q-.05.03-.35.28a.39.39 0 0 0 .34.68q.41-.09.56-.55a.37.36 81.4 0 0-.55-.41zm-7.612.598a1.31.31-71.4 0 0-.712 1.143 1.31.31-71.4 0 0-.124 1.34 1.31.31-71.4 0 0 .712-1.143 1.31.31-71.4 0 0 .124-1.34zm22.812.292a.26.25 76.8 0 0-.41-.26q-.42.34-.45 1.49a.25.25 0 0 0 .44.17q.13-.15.42-1.4zm-113.93 8.36q-.46-.27-3.09-.8a.83.83 0 0 1-.63-1.02l.83-3.23a.08.07-75.1 0 0-.04-.08l-.27-.1a.34.34 0 0 0-.45.25l-.68 3.41a.48.48 0 0 1-.66.35l-5.49-2.41a.74.71 51.3 0 0-.39-.05q-3.32.44-5.2-1.78a.83.81-24.4 0 0-.77-.28q-.95.17-1.78-.11-3.09-1.04-6.5-1.89-.35-.09-.46.2a.19.19 0 0 0 .14.26q1.84.35 2.68 1.27a.74.73-36.7 0 0 .91.13q.21-.13.63-.15a1.21 1.13-35.8 0 1 .48.06l15.33 5.1a.71.71 0 0 1 .47.83q-.56 2.66-.55 2.72a.38.38 0 0 0 .67.11q.33-.48.44-2.43a.65.64-82.7 0 1 .77-.6l3.44.69a.24.24 0 0 0 .17-.45zm97.91-7.29l-1.08 4.13a.39.39 0 0 1-.48.28l-4.95-1.29a.12.12 0 0 0-.15.12l.01.33a.09.07 11.4 0 0 .06.07l3.95.92a1.1 1.1 0 0 1 .82 1.35l-.96 3.68a.92.91-75.4 0 1-1.11.66l-4.55-1.19a1.32 1.32 0 0 1-.85-1.86l.94-1.88a.19.19 0 0 0-.01-.19l-.31-.48a.21.21 0 0 0-.38.07l-1.02 3.89a.59.59 0 0 0 .42.72l4.91 1.28a1.14 1.12 22.4 0 1 .7 1.66q-.89 1.53-.91 3.59a.77.76 16.2 0 1-1.17.64q-1.45-.92-3.65-1.07a1.58 1.58 0 0 1-1.31-2.27q1.12-2.25.87-3.2a.3.3 0 0 0-.58 0l-1.27 4.85a.58.57 13.6 0 0 .44.7c2.36.51 5.16.88 5.72 1.91a.76.76 0 0 0 1.43-.34q.07-1.98.76-4.47a1.73 1.72-70.2 0 1 2.36-1.11q1.79.81 3.5.91a1.12 1.12 0 0 1 .89 1.7q-.88 1.45-.98 3.47a.7.69 75.3 0 1-.31.54l-.41.27a.83.82 61.6 0 0-.3 1.02c.48 1.06-.82 2.6-1.03 4.14a.18.18 0 0 0 .33.12q.75-1.21 1.16-3.33a1.18 1.17-10.2 0 1 .55-.78q.69-.43.28-1.04a.62.6-54.2 0 1-.08-.55l1.39-4.12a.89.84 84.4 0 1 .35-.45q.58-.37.51-.94c-.15-1.18.72-3.66.97-4.36a1.51 1.49-5.7 0 1 .62-.75q.04-.02.21-.11a.47.46 55.7 0 0 .13-.7q-.03-.03-.03-.04a1.32 1.31 41.6 0 1-.06-.94l.99-3.08a.24.24 0 0 0-.44-.2q-.9 1.5-.81 3.22a.89.88 74.9 0 1-.46.81q-.01.01-.14.06a.88.87-12.9 0 0-.51.81q.02.8-.36 1.6c-.63 1.31-.42 1.8-.56 2.94a.64.64 0 0 1-.79.54l-4.66-1.22a1.26 1.26 0 0 1-.79-1.82q.94-1.71.83-3.28-.04-.47.09-.52.38-.15.42-.17a.69.69 0 0 0 .39-.81c-.35-1.31 1.04-2.75.89-4.4a.22.22 0 0 0-.43-.04zm-107.09 2.3q.19-.2-.04-1.82a.24.23 55.1 0 0-.44-.08q-.46.86-.18 1.76a.39.39 0 0 0 .66.14zm94.205-1.043a2.05.37-165.5 0 0 1.892.872 2.05.37-165.5 0 0 2.077.155 2.05.37-165.5 0 0-1.892-.871 2.05.37-165.5 0 0-2.077-.155zm27.815.973q-1.47-.08-3.5-.92a.27.27 0 0 0-.35.15l-.01.01a.26.26 0 0 0 .17.35q1.68.54 2.96 1.39.39.25.64.15.36-.14.5-.43a.5.49-76.2 0 0-.41-.7zm15.047.432a.93.35-70.7 0 0-.638.762.93.35-70.7 0 0 .023.993.93.35-70.7 0 0 .638-.762.93.35-70.7 0 0-.023-.993zM393.99 164.16a.5.5 0 0 0 .92.22q.68-1.14.06-1.38-.5-.19-.68.16-.33.66-.3 1zm89.492-.323a1.42.31-72.3 0 0-.727 1.258 1.42.31-72.3 0 0-.136 1.447 1.42.31-72.3 0 0 .727-1.258 1.42.31-72.3 0 0 .136-1.447zm-5.422 3.123q.51.16 1.02.23a.16.16 0 0 0 .1-.31q-.46-.23-.98-.39-.52-.16-1.02-.23a.16.16 0 0 0-.1.31q.47.24.98.39zm9 1.91q-.07-.06-3.36-.64a1.77 1.77 0 0 1-.92-.46q-.77-.72-1.29-.49a.58.58 0 0 0 .12 1.09l5.19 1.09a.33.33 0 0 0 .26-.59zm-1.25 7.19q.76.68.36 1.68-.99 2.44-.9 3.01a.26.26 0 0 0 .47.1q.4-.64.89-3.54a.88.88 0 0 1 1.12-.69l4.89 1.53a.98.98 0 0 1 .65 1.23l-.92 2.94a.23.23 0 0 0 .15.29l.29.09a.13.12 15.1 0 0 .16-.09l.74-3.34a.96.94 83.3 0 1 .5-.64q.5-.26.44-.6-.1-.52.13-1.05.68-1.61.85-3.37a.18.17-79.6 0 0-.12-.18l-.27-.08a.04.03-72.1 0 0-.05.03l-.9 3.91a.78.77-74.6 0 1-.99.57l-5.25-1.64a.87.87 0 0 1-.52-1.23q.84-1.63 1.03-3.5a.22.22 0 0 0-.43-.09q-.48 1.39-.82 2.9-.31 1.39-1.37 1.41a.2.2 0 0 0-.13.35zm-32.815-3.754a1.44.44-159.1 0 0 1.188.925 1.44.44-159.1 0 0 1.502.103 1.44.44-159.1 0 0-1.188-.925 1.44.44-159.1 0 0-1.502-.103zm44.673.181a1.81.31-159.2 0 0 1.582.933 1.81.31-159.2 0 0 1.802.353 1.81.31-159.2 0 0-1.582-.932 1.81.31-159.2 0 0-1.802-.353zm-34.288 5.493q-.65 1.2-.58 2.49a.75.74 3.9 0 1-.89.77l-4.54-.91a1 .96 80.1 0 1-.63-.46c-.99-1.72.75-2.15.7-3.62q-.02-.67-.05-.7a.38.38 0 0 0-.68.17q-.33 2.14-.98 3.43a.88.87 22.2 0 0 .52 1.23l6.19 1.94a.45.45 0 0 0 .58-.35l.71-3.8a.26.25 23.8 0 0-.11-.27l-.01-.01a.18.18 0 0 0-.23.09zm2.656-1.598a2.06.3-159.9 0 0 1.831.99 2.06.3-159.9 0 0 2.038.426 2.06.3-159.9 0 0-1.831-.99 2.06.3-159.9 0 0-2.038-.426zm-16.065 1.408a.87.83-50.4 0 0-1.62.19q-.03.15.3.56a.39.39 0 0 0 .53.08q.88-.62.79-.83zm-50.29 4.06q.18.24 1.54.47a.28.28 0 0 0 .28-.45q-.35-.46-1.51-.56a.34.34 0 0 0-.31.54zm62.18 1.37q-.83 2.22-.8 2.27a.38.38 0 0 0 .66-.04q.44-.91.42-2.18a.15.14 54.7 0 0-.28-.05zm10.05 7.95l-3.09-.96a1.02 1.02 0 0 1-.71-1.07q.17-1.7 1.2-3.26a.2.2 0 0 0-.1-.3l-.39-.12a.22.21-71.5 0 0-.26.14l-1.22 3.91a.49.48-66.8 0 0 .22.56q2.97 1.77 4.3 1.6a.26.26 0 0 0 .05-.5zm16.71 3.31q.37-.32.83-2.61.14-.7.58-.9.61-.27.59-.84c-.06-1.57.73-2.44 1.04-3.86a.18.17 66.6 0 0-.32-.13q-2.27 3.93-3.18 8.06a.29.28 76 0 0 .46.28zm-28.11-7.65l-.12.32a.62.61 21.3 0 1-.81.35q-2.29-.97-3.84-1.31a.3.29-25.2 0 0-.2.55q.85.44 2.08.59 1.59.19 2.04.81.62.85-.42 2.84a.37.37 0 0 0 .54.47q.59-.43.56-1.97a1.21 1.19-24.3 0 1 .34-.88q.76-.79.31-1.78a.26.26 0 0 0-.48.01zm14.48 3.58q.48-1.07.51-2a.21.2 65.5 0 0-.36-.14q-.74.94-.66 2.05a.27.27 0 0 0 .51.09zm-13.593-2.058a2.32.33-164.3 0 0 2.144.945 2.32.33-164.3 0 0 2.323.31 2.32.33-164.3 0 0-2.144-.946 2.32.33-164.3 0 0-2.323-.31zm-10.977 7.098a.54.54 0 0 0 1.06-.16v-1.01a.42.42 0 0 0-.77-.22q-.48.77-.29 1.39zm-3.51 1.17q.97.67 1.78.76a.34.34 0 0 0 .32-.52q-.21-.35-1.96-.6a.2.2 0 0 0-.14.36zm-86.572 4.623a5.69 4.99-150.9 0 0 2.545 7.127 5.69 4.99-150.9 0 0 7.399-1.593 5.69 4.99-150.9 0 0-2.545-7.127 5.69 4.99-150.9 0 0-7.399 1.593zm43.543 14.377a.13.08-89.3 0 0-.082.129.13.08-89.3 0 0 .078.131.13.08-89.3 0 0 .082-.129.13.08-89.3 0 0-.078-.131zm37.038 54.66a1.66 1.65 17.5 0 0 2.28-1.18l.66-3.28a.58.57 8.3 0 1 .62-.46q2.44.21 4.35 1.44a1.59 1.59 0 0 0 2.38-.86l5.16-16.51a.73.72-73.2 0 0-.48-.91l-4.63-1.45a.88.88 0 0 1-.58-1.1l6.55-20.97a1.12 1.11-72.8 0 0-.73-1.4l-20.22-6.32a.72.71 17 0 0-.9.47l-4.86 15.57a.47.47 0 0 1-.62.3l-4.87-1.83a1.16 1.16 0 0 0-1.57 1.11c.03 2.04-1.01 3.58-1.65 5.91q-1.99 7.32-5.29 16.59c-.38 1.04-.16 2.18-.97 3.31a1.86 1.65-62.3 0 0 .68 2.76c.65.21 1.36.19 2 .42q7.82 2.96 15.04 5.07a.29.06 34.1 0 1 .07.03l7.58 3.29zm-37.97-51.45a.01.01 0 0 0-.01.01l-4.01 12.82a.28.28 0 0 0 .2.35l.31.08a.19.19 0 0 0 .23-.13l3.67-12.9a.11.11 0 0 0-.08-.13l-.31-.1zm4.58 14.05q-1.13-.72-1.37-.79a.49.48 73.7 0 0-.45.83q.45.42 1.7.38a.23.23 0 0 0 .12-.42zm-67.787 22.395a1.62.43-151 0 0 1.208 1.162 1.62.43-151 0 0 1.625.409 1.62.43-151 0 0-1.208-1.161 1.62.43-151 0 0-1.625-.409zm39.06 2.645a.53.37-130.9 0 0 .067.643.53.37-130.9 0 0 .627.158.53.37-130.9 0 0-.067-.643.53.37-130.9 0 0-.627-.158zm-47.833 4.971q-.04-.06-.15-.31a.71.71 0 0 0-1.35.12q-.12.54.85.95a.53.53 0 0 0 .65-.76zm4.372 3.971a1.94.58-75.6 0 0-1.044 1.735 1.94.58-75.6 0 0 .079 2.023 1.94.58-75.6 0 0 1.044-1.735 1.94.58-75.6 0 0-.079-2.023zm-4.442 1.849q-1.09-.68-1.32-1.28a.43.42 83.2 0 0-.35-.28q-.44-.04-.64.1a.3.29 58.7 0 0-.09.39q.72 1.3 2.29 1.42a.19.19 0 0 0 .11-.35zm123.94 10.5a.28.27 56.9 0 0-.11.51q3.53 2.07 7.82 3.05a.17.17 0 0 0 .12-.31c-1.21-.72-2.35-.73-3.43-1.81q-.39-.39-.98-.13-.43.18-1.02-.18-1.93-1.18-2.4-1.13zm3.74 3.81a.27.27 0 0 0-.48-.2q-.58.72-.51 1.9a.23.23 0 0 0 .43.09q.47-.93.56-1.79zm-3.1 9.52q.71.14 1.11-3.31.1-.89-.25-.96-.36-.07-.61.79-.95 3.34-.25 3.48zm-.735.708a1.42.33-70.9 0 0-.776 1.234 1.42.33-70.9 0 0-.153 1.45 1.42.33-70.9 0 0 .776-1.234 1.42.33-70.9 0 0 .153-1.45zm-1.055 4.062q.23-.42.23-.46a.46.33 75.7 0 0-.57-.48q-.31.34-.22.85a.3.3 0 0 0 .56.09zm-14.83-.43a.71.49 42.1 0 0 .28 1.17q.61.17.82-.06.41-.44-.18-.78-.6-.34-.92-.33z" class="E"/><g class="C"><circle cx="28.33" cy="113.04" r=".54"/><path d="M178.69 112.62q.57.36.29.99a.93.73 34.3 0 1-1.34.09q-.25-.22-.06-.61a.88.72-62.2 0 1 1.11-.47z"/></g><ellipse cx="0" cy="0" transform="matrix(-.054079 -.998537 .998537 -.054079 193.36 126.64)" rx="4.74" ry="4.34" class="B"/><g class="C"><path d="M2.13 123.78l-.07 8.26q-.17-.56-.11-1.26l.18-7z"/><ellipse cx="0" cy="0" transform="matrix(-.898794 -.438371 .438371 -.898794 11.6 125.32)" rx="1.85" ry=".3"/><path d="M370.59 128.96q-.55.15-.84-.22a.35.34 34.2 0 1-.06-.31l.99-3.5a.45.45 0 0 1 .6-.3l.01.01a.29.28 17 0 1 .18.32q-.24 1.43-1.23 2.53-.22.24-.12.53.19.53.46.59a.18.18 0 0 1 .01.35zm-10.45-3.78q.78.03 1.2.46a.3.3 0 0 1-.31.49q-.83-.29-1.07-.52a.25.25 0 0 1 .18-.43z"/></g><path d="M401.96 127.23q-.48-.04-.67-.24l.67.24zm-289.01.16l-3.71.02q1.48-.48 3.71-.02zm3.51.11l-.92-.13q.51-.06.92.13zm289 .71q-.38-.04-.68-.19l.68.19z" class="B"/><path d="M376.56 130.19a.32.28 79.8 0 1-.44-.34q.04-.21.36-.38a.23.22-13.1 0 1 .32.19q0 .36-.24.53z" class="C"/><path d="M414.7 130.7l-.66-.12q.36.01.66.12zm-412.75.08q-.06.7.11 1.26-.14.43-.14.92-.03 0-.05 0l.08-2.18z" class="B"/><path d="M420.45 132.38l-4.92 16.59a.03.02-58.3 0 1-.02.01l-.25-.07a.26.25-75.7 0 1-.18-.32l4.42-16.47.95.26zm-418.53.58q.3.98-.07 2.25l.02-2.25q.02 0 .05 0zm370.6 2.57q-2.44-.52-2.6-.72a.23.23 0 0 1 .23-.36q2.39.54 2.56.68a.23.23 0 0 1-.19.4z" class="C"/><path d="M425.73 135.65q-2.08.41-2.92-.84l2.92.84zm7.62.3l-2.25 9.26q1.67-4.29 1.37-9a.32.32 0 0 0-.32-.3h-.38a.3.29 85.8 0 0-.29.34q.39 2.77.41 4.25.01.39-.07.45a.14.14 0 0 1-.21-.14q.18-.83-.35-.95a.42.42 0 0 1-.27-.63q.27-.45.27-1.52a.27.26-2 0 0-.29-.26h-.01a.31.3-12.6 0 0-.2.31l.21 3.33a.93.91 54.7 0 1-.07.44l-1.84 4.47a2.61 2.57-33.8 0 0-.21 1.02q0 4.02-1.92 7.07a.55.54 53.4 0 1-.99-.15q-.16-.62.18-1.8 2.52-8.83 4.22-14.52a.78.77-5.9 0 0-1.11-.9q-.72.39-.6 1.43a.6.6 0 0 1-.72.65l-.42-.08a.57.56 12.5 0 1-.44-.68q.22-.93-.22-2.1l1.82.46a.74.73 22.4 0 0 .82-.34l.36-.63a.72.72 0 0 1 .85-.33l2.67.85z" class="B"/><path d="M374.75 135.49q.29-.07.53.19.3.34.04.73-.16.25-.57.19a.67.53 15.5 0 1-.58-.79q.11-.21.58-.32zm13.18 1.38q-.19-.69.28-1.35a.32.32 0 0 1 .58.13q.1.52-.3 1.28a.3.3 0 0 1-.56-.06zm-200.22 14.92q.66-.35.85-.72.17-.35-.38-.95-4.37-4.74-1.25-10.69a.88.88 0 0 0-.78-1.29h-.83a8.37 7.41 85.1 0 1 7.16-2.09 8.39 7.44 85.3 0 1 5.55 7.44 8.42 7.44 85.5 0 1-3.42 7.82 8.41 7.44 86.4 0 1-6.9.48zm245.64-15.84l1.44.44q-.63.37-1.02.89a1.29 1.28 60.7 0 0-.25.9c.5 5.23-1.6 9.67-2.25 14.39a.07.06 62.5 0 0 .12.04q3.35-6.93 2.74-14.08a.11.08-61.5 0 1 .17-.09q.01.1.06.13a.21.1-88.5 0 1 .07.16c.38 6.79-1.62 12.86-4.15 20.01a.29.28-72.2 0 1-.34.18l-2.1-.55a.29.29 0 0 1-.21-.35l3.47-12.81 2.25-9.26zm-56.44.48q.07-.02 1.79.52a.38.38 0 0 1 .12.66q-.13.09-1.96-.7a.25.25 0 0 1 .05-.48zm61.34 1.06q-.88.18-1.81-.64l1.81.64z" class="C"/><ellipse cx="0" cy="0" transform="matrix(-.728969 -.684547 .684547 -.728969 422.46 137.67)" rx=".93" ry=".69" class="B"/><path d="M425.81 141.21l-3.03 10.47q-.85.18-1.2-1l2.76-9.66q.54-1.11-.8-2.46a.07.05-66.6 0 1-.01-.06q.07-.19 0-.34a.08.04 42.5 0 1 .12.04q.55 1.18 1.56.97a.67.67 0 0 0 .54-.66q0-.43.12-.87-.17 1.81-.06 3.57z" class="C"/><path d="M439.46 137.73q-.4.02-.75-.13.41-.02.75.13zm-251.75 14.06a8.4 7.43 85.6 0 1-4.32-5.92 8.38 7.42 85.9 0 1 1.93-7.73h.83a.88.88 0 0 1 .78 1.29q-3.12 5.95 1.25 10.69.55.6.38.95-.19.37-.85.72z" class="B"/><path d="M107.14 138.21l-.05 1 .05-1zm266.62 1.53c.1-.38-.08-1.24.46-1.48a.21.21 0 0 1 .3.19q0 .1-.35 1.42c-.1.39.08 1.25-.47 1.49a.21.21 0 0 1-.29-.19q0-.1.35-1.43z" class="C"/><path d="M440.45 138.18q2.03.13 3.44 1.12-2.12-.01-4.05-.87a.17.17 0 0 1 .1-.32l.51.07z" class="B"/><path d="M445.04 139.47q.12.45.91.22.97.2 1.22.63-2.15-.05-3.28-1.02.61-.12 1.15.17z" class="C"/><path d="M445.95 139.69q-.79.23-.91-.22l.91.22zm-21.61 1.33l-2.76 9.66q-.57.76-.47 1.53a.39.39 0 0 1-.75.2c-.68-1.75 1.26-7.12 2.68-11.86a.63.63 0 0 1 1.03-.28q.16.15.27.75zm-1.56 10.66l3.03-10.47q.36-1 1.67-.98a.63.63 0 0 1 .6.81l-3.46 11.75a1.38 1.38 0 0 1-1.68.94q-.26-.07-.16-2.05z" class="B"/><g class="C"><path d="M451.49 141.56q-2.5-.07-4.32-1.24 2.32.11 4.32 1.24zm-90.83-.67q.07.13-.07.59a.27.27 0 0 1-.53-.05q-.02-.22.11-.53a.27.27 0 0 1 .49-.01z"/><ellipse cx="0" cy="0" transform="matrix(-.967709 -.252069 .252069 -.967709 369.39 141)" rx="1.47" ry=".27"/><path d="M88.22 142.03q.87-.06 1.37.68a.57.57 0 0 1-.86.73q-.15-.14-.74-.9a.32.32 0 0 1 .23-.51zm271.89 1.8q-.06.79-.41.79-.62 0-.59-.43.06-.83.63-1.08a.62.3 88.8 0 1 .37.72zm33.27-.19q-.05 1.68-.12 1.88a.46.46 0 0 1-.9-.18q.11-1.39.6-1.88a.25.25 0 0 1 .42.18zm-35.91.28q-.37.01-.64-.14a.22.22 0 0 1 .03-.4q.02-.01.66.14a.202.202 0 0 1-.05.4z"/><ellipse cx="0" cy="0" transform="matrix(.273959 -.961741 .961741 .273959 450.87 148.38)" rx="1.15" ry=".4"/></g><path d="M339.33 148.02q.09.74-.33 1.52l.33-1.52z" class="B"/><g class="C"><path d="M53.93 150.59l-1.25 2.17a.37.37 0 0 1-.69-.12q-.1-.56.41-.71a.57.57 0 0 0 .05-1.07q-1.19-.48-2.62-.52a.64.63 80.5 0 1-.58-.42q-.29-.84.04-1.28a.38.36-60.8 0 1 .42-.13l4.02 1.51a.4.39 26 0 1 .2.57zM339 149.54q.36 1.24-.39 1.76.01-.93.39-1.76z"/><ellipse cx="0" cy="0" transform="matrix(.358368 -.93358 .93358 .358368 370.71 152.33)" rx="1.43" ry=".36"/></g><path d="M51.65 154.02q-.2 2.19-.68 5.49-.16 1.07.27 1.87a.52.52 0 0 1-.25.72q-1.29.6-1.86.45a.76.76 0 0 1-.56-.76l.43-9.15a.5.49-73.6 0 1 .74-.41l1.4.81a1.03 1.02 17.8 0 1 .51.98zm286.76-2.1l-1.29 7.25q-.71 3.52.76 6.45.64 1.28.77 1.96.37 1.98.46 2.09.4.49.76.44a.39.35-40.3 0 0 .1-.73q-.75-.16-.84-.43a.24.24 0 0 1 .36-.27q.67.45 1.21-.13 1.61 2.93 3.1 5.97c2.67 5.44 6.08 10.24 7.78 15.61a1.18 1.15-.7 0 0 .81.77l3.11.81a.51.51 0 0 1 .38.57q-.45 3.01 1.14 5.94a.83.82-18.8 0 0 .87.42q.07-.01.18-.03a.34.34 0 0 1 .4.4c-1.07 5.11-3.9 12.87-.96 16.98a.44.43-10.2 0 1-.47.67l-1.24-.32a1.03 1.03 0 0 0-1.29.88c-.36 3.42-1.69 6.29-1.95 9.45q-.46 5.64-.74 10.69c-.08 1.42.57 3.42.61 4.55a.46.45-86.9 0 1-.52.47c-1.24-.17-4.08-.57-5.76-.59q-7.04-.09-13.98-1.23-2.05-.34-4.6-1.92a1.84 1.8 60.2 0 0-.95-.27q-1.54 0-1.55 0a.13.08-28.1 0 0-.11.18q.18.02.03.3a.06.06 0 0 1-.04.04l-.64.43a.23.23 0 0 1-.35-.23q.19-1.15-.2-2.58a.84.84 0 0 0-.81-.62l-3.78-.01q-.33.63-.63.66l7.57-36.81a.3.3 0 0 0-.19-.34l-29.28-10.14q-.38-1.97-2.24-1.9a1.22 1.22 0 0 1-.9-.37q-.21-.21-.41-.78c-.61-1.68-3.28-1.03-4.2-.11a.37.37 0 0 1-.63-.34L291 172.2a1.36 1.26-19.9 0 1 .33-.64l3.96-4.15a.65.65 0 0 1 .92-.02l.75.7a.62.59 73.2 0 0 .28.16l5.66 1.66 26.96 9.79a1.13 1.13 0 0 0 1.48-.78l7.07-27zm-43.707 17.404a1.14.71-153.1 0 0 .695 1.149 1.14.71-153.1 0 0 1.338-.117 1.14.71-153.1 0 0-.695-1.149 1.14.71-153.1 0 0-1.338.117zM293.7 183.26q.72-.07.96-.99.22-.82 1.55-8.24.37-2.04-1.13-2.84a.44.44 0 0 0-.6.6q.49.94.41 1.67-.4 3.64-1.89 9.32a.46.45 3.8 0 1-.38.33q-.07.01-.13.03a.64.63-28.2 0 0-.29.94l.33.48a.53.53 0 0 0 .97-.27q.02-.26-.09-.42a.39.39 0 0 1 .29-.61zm33.86 10.28a.06.05-7 0 0 .05-.05q.8-4.57 1.85-7.87c.45-1.38-.42-3.06.05-3.88a.48.47-58.9 0 0-.15-.64q-.62-.4-.69-.41a.55.55 0 0 0-.48.93q.81.78.55 1.89-.67 2.78-2.11 9.79a.28.27-88.3 0 0 .3.33l.63-.09zm-1.18 2.73q.26-.74-.42-1.45a.53.53 0 0 0-.89.24q-.17.68.59 1.38a.44.44 0 0 0 .72-.17z" class="B"/><g class="C"><path d="M54.81 169.53l-.01-.81 3.1.36a1.99 1.98 8 0 0 2.18-1.64q1.1-6.58.07-13.58a1.35 1.35 0 0 1 .35-1.11q.35-.38 1.69-.51a.46.46 0 0 1 .49.57c-.2.87-.77 1.51-.77 2.6q-.03 7.32-.83 13.33a.32.31 27 0 1-.54.17q-.01-.02-.08-.16a.22.21 49.4 0 0-.36-.03q-1.54 2.07-2.93.82a1.65 1.64-24.8 0 0-1.15-.42q-.69.01-1.21.41zm312.97-16.25q-.45.13-1.59-.38a.24.24 0 0 1 .02-.45q.25-.09 1.59.36a.25.25 0 0 1-.02.47zm49.34.37a.55.5-23.4 0 1 .4-.88q1.1-.07 1.61 1.16a.44.44 0 0 1-.52.6q-.77-.21-1.49-.88zm-36.42 3.48q-.12.29-4.48-1.31-.18-.06-.22-.21-.04-.17.03-.34.07-.17.21-.26.13-.09.31-.01 4.27 1.83 4.15 2.13z"/><ellipse cx="0" cy="0" transform="matrix(.425779 -.904827 .904827 .425779 478.26 156.76)" rx="1.11" ry=".37"/><path d="M470.35 157.11a.37.36 81.4 0 1 .55.41q-.15.46-.56.55a.39.39 0 0 1-.34-.68q.3-.25.35-.28zm-378.14 2.98q-.58-1.29-.38-2.39a.37.37 0 0 1 .64-.18q.78.85.17 2.55a.23.23 0 0 1-.43.02z"/><ellipse cx="0" cy="0" transform="matrix(.318959 -.947768 .947768 .318959 462.32 158.95)" rx="1.31" ry=".31"/><path d="M485.55 158q-.29 1.25-.42 1.4a.25.25 0 0 1-.44-.17q.03-1.15.45-1.49a.26.25 76.8 0 1 .41.26zm-114.1 8.81l-3.44-.69a.65.64-82.7 0 0-.77.6q-.11 1.95-.44 2.43a.38.38 0 0 1-.67-.11q-.01-.06.55-2.72a.71.71 0 0 0-.47-.83l-15.33-5.1a1.21 1.13-35.8 0 0-.48-.06q-.42.02-.63.15a.74.73-36.7 0 1-.91-.13q-.84-.92-2.68-1.27a.19.19 0 0 1-.14-.26q.11-.29.46-.2 3.41.85 6.5 1.89.83.28 1.78.11a.83.81-24.4 0 1 .77.28q1.88 2.22 5.2 1.78a.74.71 51.3 0 1 .39.05l5.49 2.41a.48.48 0 0 0 .66-.35l.68-3.41a.34.34 0 0 1 .45-.25l.27.1a.08.07-75.1 0 1 .04.08l-.83 3.23a.83.83 0 0 0 .63 1.02q2.63.53 3.09.8a.241.241 0 0 1-.17.45zm98.51-7.7c.15 1.65-1.24 3.09-.89 4.4a.69.69 0 0 1-.39.81q-.04.02-.42.17-.13.05-.09.52.11 1.57-.83 3.28a1.26 1.26 0 0 0 .79 1.82l4.66 1.22a.64.64 0 0 0 .79-.54c.14-1.14-.07-1.63.56-2.94q.38-.8.36-1.6a.88.87-12.9 0 1 .51-.81q.13-.05.14-.06a.89.88 74.9 0 0 .46-.81q-.09-1.72.81-3.22a.242.242 0 0 1 .44.2l-.99 3.08a1.32 1.31 41.6 0 0 .06.94q0 .01.03.04a.47.46 55.7 0 1-.13.7q-.17.09-.21.11a1.51 1.49-5.7 0 0-.62.75c-.25.7-1.12 3.18-.97 4.36q.07.57-.51.94a.89.84 84.4 0 0-.35.45l-1.39 4.12a.62.6-54.2 0 0 .08.55q.41.61-.28 1.04a1.18 1.17-10.2 0 0-.55.78q-.41 2.12-1.16 3.33a.18.18 0 0 1-.33-.12c.21-1.54 1.51-3.08 1.03-4.14a.83.82 61.6 0 1 .3-1.02l.41-.27a.7.69 75.3 0 0 .31-.54q.1-2.02.98-3.47a1.12 1.12 0 0 0-.89-1.7q-1.71-.1-3.5-.91a1.73 1.72-70.2 0 0-2.36 1.11q-.69 2.49-.76 4.47a.76.76 0 0 1-1.43.34c-.56-1.03-3.36-1.4-5.72-1.91a.58.57 13.6 0 1-.44-.7l1.27-4.85a.3.3 0 0 1 .58 0q.25.95-.87 3.2a1.58 1.58 0 0 0 1.31 2.27q2.2.15 3.65 1.07a.77.76 16.2 0 0 1.17-.64q.02-2.06.91-3.59a1.14 1.12 22.4 0 0-.7-1.66l-4.91-1.28a.59.59 0 0 1-.42-.72l1.02-3.89a.21.21 0 0 1 .38-.07l.31.48a.19.19 0 0 1 .01.19l-.94 1.88a1.32 1.32 0 0 0 .85 1.86l4.55 1.19a.92.91-75.4 0 0 1.11-.66l.96-3.68a1.1 1.1 0 0 0-.82-1.35l-3.95-.92a.09.07 11.4 0 1-.06-.07l-.01-.33a.12.12 0 0 1 .15-.12l4.95 1.29a.39.39 0 0 0 .48-.28l1.08-4.13a.22.22 0 0 1 .43.04zm-132.84.06q.12 2.65 1.89 4.27a1.33 1.31 18 0 1 .42.81q.25 2.16 1.27 4.3-.54.58-1.21.13a.24.24 0 0 0-.36.27q.09.27.84.43a.39.35-40.3 0 1-.1.73q-.36.05-.76-.44-.09-.11-.46-2.09-.13-.68-.77-1.96-1.47-2.93-.76-6.45zm24.66 2.06q-.28-.9.18-1.76a.24.23 55.1 0 1 .44.08q.23 1.62.04 1.82a.39.39 0 0 1-.66-.14z"/><ellipse cx="0" cy="0" transform="matrix(-.968148 -.25038 .25038 -.968148 458.63 160.84)" rx="2.05" ry=".37"/><path d="M484.46 161.3a.5.49-76.2 0 1 .41.7q-.14.29-.5.43-.25.1-.64-.15-1.28-.85-2.96-1.39a.26.26 0 0 1-.17-.35l.01-.01a.27.27 0 0 1 .35-.15q2.03.84 3.5.92z"/><ellipse cx="0" cy="0" transform="matrix(.330514 -.943801 .943801 .330514 499.2 162.61)" rx=".93" ry=".35"/><path d="M393.99 164.16q-.03-.34.3-1 .18-.35.68-.16.62.24-.06 1.38a.5.5 0 0 1-.92-.22z"/><ellipse cx="0" cy="0" transform="matrix(.304033 -.952661 .952661 .304033 483.05 165.19)" rx="1.42" ry=".31"/><path d="M87.1 167.69q-.92-1.07-.93-1.09a.7.7 0 0 1 1.24-.6q.71.98.32 1.64a.39.39 0 0 1-.63.05zm-39.9-1.65l-.12 2.48q-.24-1.24.12-2.48zm431 .45q.52.16.98.39a.163.163 0 0 1-.1.31q-.51-.07-1.02-.23-.51-.15-.98-.39a.163.163 0 0 1 .1-.31q.5.07 1.02.23zm-385.81 2.22q-.1.65-1.05.02-.28-.18-.26-.67.02-.69.12-.94a.37.37 0 0 1 .69 0l.47 1.27a.62.55-53.9 0 1 .03.32zm394.41.75l-5.19-1.09a.58.58 0 0 1-.12-1.09q.52-.23 1.29.49a1.77 1.77 0 0 0 .92.46q3.29.58 3.36.64a.33.33 0 0 1-.26.59z"/><ellipse cx="0" cy="0" transform="matrix(-.891798 -.452435 .452435 -.891798 295.72 169.84)" rx="1.14" ry=".71"/><path d="M46.93 169.46l-.06 1.33q-.09-.71.06-1.33zm246.48 14.41q.11.16.09.42a.53.53 0 0 1-.97.27l-.33-.48a.64.63-28.2 0 1 .29-.94q.06-.02.13-.03a.46.45 3.8 0 0 .38-.33q1.49-5.68 1.89-9.32.08-.73-.41-1.67a.44.44 0 0 1 .6-.6q1.5.8 1.13 2.84-1.33 7.42-1.55 8.24-.24.92-.96.99a.39.39 0 0 0-.29.61zm192.53-8.16q1.06-.02 1.37-1.41.34-1.51.82-2.9a.22.22 0 0 1 .43.09q-.19 1.87-1.03 3.5a.87.87 0 0 0 .52 1.23l5.25 1.64a.78.77-74.6 0 0 .99-.57l.9-3.91a.04.03-72.1 0 1 .05-.03l.27.08a.18.17-79.6 0 1 .12.18q-.17 1.76-.85 3.37-.23.53-.13 1.05.06.34-.44.6a.96.94 83.3 0 0-.5.64l-.74 3.34a.13.12 15.1 0 1-.16.09l-.29-.09a.23.23 0 0 1-.15-.29l.92-2.94a.98.98 0 0 0-.65-1.23l-4.89-1.53a.88.88 0 0 0-1.12.69q-.49 2.9-.89 3.54a.26.26 0 0 1-.47-.1q-.09-.57.9-3.01.4-1-.36-1.68a.2.2 0 0 1 .13-.35zm-394.99-1.68q-.82-1.03-.89-1.18a.61.61 0 0 1 1.05-.62q.79 1.09.5 1.72a.39.39 0 0 1-.66.08z"/><ellipse cx="0" cy="0" transform="matrix(-.934204 -.356738 .356738 -.934204 454.34 172.82)" rx="1.44" ry=".44"/><ellipse cx="0" cy="0" transform="matrix(-.934826 -.355107 .355107 -.934826 499.36 173.13)" rx="1.81" ry=".31"/><path d="M463.38 177.98a.18.18 0 0 1 .23-.09l.01.01a.26.25 23.8 0 1 .11.27l-.71 3.8a.45.45 0 0 1-.58.35l-6.19-1.94a.88.87 22.2 0 1-.52-1.23q.65-1.29.98-3.43a.38.38 0 0 1 .68-.17q.03.03.05.7c.05 1.47-1.69 1.9-.7 3.62a1 .96 80.1 0 0 .63.46l4.54.91a.75.74 3.9 0 0 .89-.77q-.07-1.29.58-2.49z"/><ellipse cx="0" cy="0" transform="matrix(-.939094 -.34366 .34366 -.939094 467.97 177.09)" rx="2.06" ry=".3"/><path d="M449.97 177.79q.09.21-.79.83a.39.39 0 0 1-.53-.08q-.33-.41-.3-.56a.87.83-50.4 0 1 1.62-.19zM326.63 193.3q1.44-7.01 2.11-9.79.26-1.11-.55-1.89a.55.55 0 0 1 .48-.93q.07.01.69.41a.48.47-58.9 0 1 .15.64c-.47.82.4 2.5-.05 3.88q-1.05 3.3-1.85 7.87a.06.05-7 0 1-.05.05l-.63.09a.28.27-88.3 0 1-.3-.33zm73.36-11.99q1.16.1 1.51.56a.28.28 0 0 1-.28.45q-1.36-.23-1.54-.47a.34.34 0 0 1 .31-.54zm62.15 1.96q.02 1.27-.42 2.18a.38.38 0 0 1-.66.04q-.03-.05.8-2.27a.15.14 54.7 0 1 .28.05zm9.72 8.4q-1.33.17-4.3-1.6a.49.48-66.8 0 1-.22-.56l1.22-3.91a.22.21-71.5 0 1 .26-.14l.39.12a.2.2 0 0 1 .1.3q-1.03 1.56-1.2 3.26a1.02 1.02 0 0 0 .71 1.07l3.09.96a.26.26 0 0 1-.05.5zm16.3 2.53q.91-4.13 3.18-8.06a.18.17 66.6 0 1 .32.13c-.31 1.42-1.1 2.29-1.04 3.86q.02.57-.59.84-.44.2-.58.9-.46 2.29-.83 2.61a.29.28 76 0 1-.46-.28zm-27.17-7.38q.45.99-.31 1.78a1.21 1.19-24.3 0 0-.34.88q.03 1.54-.56 1.97a.37.37 0 0 1-.54-.47q1.04-1.99.42-2.84-.45-.62-2.04-.81-1.23-.15-2.08-.59a.3.29-25.2 0 1 .2-.55q1.55.34 3.84 1.31a.62.61 21.3 0 0 .81-.35l.12-.32a.26.26 0 0 1 .48-.01zm13.49 3.5q-.08-1.11.66-2.05a.21.2 65.5 0 1 .36.14q-.03.93-.51 2a.27.27 0 0 1-.51-.09z"/><ellipse cx="0" cy="0" transform="matrix(-.962692 -.2706 .2706 -.962692 463.63 188.98)" rx="2.32" ry=".33"/><path d="M450.42 195.45q-.19-.62.29-1.39a.42.42 0 0 1 .77.22v1.01a.54.54 0 0 1-1.06.16zm-124.76.99q-.76-.7-.59-1.38a.53.53 0 0 1 .89-.24q.68.71.42 1.45a.44.44 0 0 1-.72.17zm121.39-.18q1.75.25 1.96.6a.34.34 0 0 1-.32.52q-.81-.09-1.78-.76a.2.2 0 0 1 .14-.36z"/></g><ellipse cx="0" cy="0" transform="matrix(-.873772 -.486335 .486335 -.873772 365.31 204.01)" rx="5.69" ry="4.99" class="B"/><path d="M104.04 213.15c.81 2.84-.36 4.92-.58 7.63l-3.01-1.47q-.24-.23-.67-.24l-.54-.48q.74-1.18.56-2.36l.73-.23q1.33-.03 1.02-.45.43-.23.96-.26.5.1.73-.31.7-.67.8-1.83z" class="D"/><path d="M103.24 214.98q-.23.41-.73.31.28-.28.73-.31z" class="B"/><ellipse cx="0" cy="0" transform="matrix(.012217 -.999925 .999925 .012217 403.88 215.75)" rx=".13" ry=".08" class="C"/><path d="M101.55 215.55q.31.42-1.02.45l1.02-.45zm-1.75.68q.18 1.18-.56 2.36-1.09-.86.56-2.36z" class="B"/><path d="M440.92 270.28l-7.58-3.29a.29.06 34.1 0 0-.07-.03q-7.22-2.11-15.04-5.07c-.64-.23-1.35-.21-2-.42a1.86 1.65-62.3 0 1-.68-2.76c.81-1.13.59-2.27.97-3.31q3.3-9.27 5.29-16.59c.64-2.33 1.68-3.87 1.65-5.91a1.16 1.16 0 0 1 1.57-1.11l4.87 1.83a.47.47 0 0 0 .62-.3l4.86-15.57a.72.71 17 0 1 .9-.47l20.22 6.32a1.12 1.11-72.8 0 1 .73 1.4l-6.55 20.97a.88.88 0 0 0 .58 1.1l4.63 1.45a.73.72-73.2 0 1 .48.91l-5.16 16.51a1.59 1.59 0 0 1-2.38.86q-1.91-1.23-4.35-1.44a.58.57 8.3 0 0-.62.46l-.66 3.28a1.66 1.65 17.5 0 1-2.28 1.18zm9.03-5.5c2.13-6.33 3.18-10.7 5.09-14.37a.81.81 0 0 0-.48-1.15l-3.96-1.24a1.92 1.92 0 0 1-1.26-2.4l6.29-20.13a.77.76 17.4 0 0-.5-.95l-17.93-5.6a.7.7 0 0 0-.87.45l-4.79 15.34a.64.63 12.8 0 1-.7.44q-2.72-.43-5.09-1.77a.56.55-66.5 0 0-.8.32l-8.05 25.8a.64.63 18.9 0 0 .4.79q13.38 4.65 18.14 6.26.03.01.49.36a1.07 1.03 67.1 0 0 .49.21q2.24.3 3.7 1.26a1.35 1.35 0 0 0 2.04-.72l.84-2.7a1.23 1.22-72.5 0 1 1.53-.8l4.09 1.28a1.07 1.07 0 0 0 1.33-.68z" class="D"/><path d="M402.95 218.83l.31.1a.11.11 0 0 1 .08.13l-3.67 12.9a.19.19 0 0 1-.23.13l-.31-.08a.28.28 0 0 1-.2-.35l4.01-12.82a.01.01 0 0 1 .01-.01z" class="C"/><path d="M449.95 264.78a1.07 1.07 0 0 1-1.33.68l-4.09-1.28a1.23 1.22-72.5 0 0-1.53.8l-.84 2.7a1.35 1.35 0 0 1-2.04.72q-1.46-.96-3.7-1.26a1.07 1.03 67.1 0 1-.49-.21q-.46-.35-.49-.36-4.76-1.61-18.14-6.26a.64.63 18.9 0 1-.4-.79l8.05-25.8a.56.55-66.5 0 1 .8-.32q2.37 1.34 5.09 1.77a.64.63 12.8 0 0 .7-.44l4.79-15.34a.7.7 0 0 1 .87-.45l17.93 5.6a.77.76 17.4 0 1 .5.95l-6.29 20.13a1.92 1.92 0 0 0 1.26 2.4l3.96 1.24a.81.81 0 0 1 .48 1.15c-1.91 3.67-2.96 8.04-5.09 14.37zm-12.156-37.161a6.17 5.32-157.4 0 0 3.652 7.283 6.17 5.32-157.4 0 0 7.741-2.54 6.17 5.32-157.4 0 0-3.652-7.283 6.17 5.32-157.4 0 0-7.741 2.54zm-15.659 18.348a14.38 12.19-157.5 0 0 8.621 16.765 14.38 12.19-157.5 0 0 17.95-5.759 14.38 12.19-157.5 0 0-8.62-16.765 14.38 12.19-157.5 0 0-17.95 5.759z" class="E"/><g class="B"><path d="M100.45 219.31l-.67-.24q.43.01.67.24z"/><ellipse cx="0" cy="0" transform="matrix(-.92321 -.384295 .384295 -.92321 443.49 229.99)" rx="6.17" ry="5.32"/></g><path d="M407.41 233.3q-1.25.04-1.7-.38a.49.48 73.7 0 1 .45-.83q.24.07 1.37.79a.23.23 0 0 1-.12.42zm-88.24 2.58q2.45.6 4.62 2.06a.27.26 27.9 0 1 .1.31l-.13.34a.13.12-66.3 0 1-.17.07l-4.03-1.98a.29.29 0 0 0-.41.21l-.06.28a.22.21 12.7 0 0 .16.25l2.57.51a.18.17 17.9 0 1 .13.24l-.12.32a.05.04-66.3 0 1-.06.03l-3.39-1.27.16-.71q.3-.03.63-.66z" class="C"/><path d="M118.75 237.33q-.14 2.06-.85 3.4a.86.86 0 0 1-.8.47l-2.78-.14a.64.64 0 0 1-.36-1.14l1.64-1.27q1.07-1.13 2.35-1.72a.52.52 0 0 1 .64.17l.16.23z" class="B"/><path d="M125.55 241.05q-.6-.2-.81-.02-2.64 2.27-5.5 4.27a.39.39 0 0 0 .22.71l4.72.04 3.67 1.05a2.34 2.21-16.8 0 1 .76.38q1.41 1.07 3.07 1.43l-1.95 6.04a.41.41 0 0 0 .64.45c2.7-2.08 4.59 1.61 7.59-1.64a.4.4 0 0 0-.14-.64l-1.83-.78q2.51-1 5.15-.11a2.55 2.52-7.8 0 1 1.29.97q.87 1.21 2.82 1.14a.28.27-61.6 0 1 .15.51q-1.66 1.03-1.79 2.7a1.8 1.77-63.6 0 0 .42 1.28l1.69 2.01q-3.07-1.27-2.23-4.03l.31-1.02a.26.25 79.6 0 0-.4-.28q-1.72 1.34-2.02 2.61a1.65 1.64 33.4 0 0 .3 1.42q4.53 5.83 11.69 6.33a.46.45 58.8 0 0 .21-.87q-1.48-.66-.6-2.03 1.02-.67.79-2.07a1.73 1.72 81.7 0 0-1.92-1.44q-1.86.25-3.64 1.87-.43-.28-.59-.88l1.58-4.38 8.82 3.36q-.59.3-.81.6l-1.42 3.93q-.12.28 0 .77a.66.66 0 0 0 .7.49q3-.26 6.24.47.71.16 1.52-.43a.29.28-34.5 0 1 .4.07l3.49 5.32a.59.53 80.4 0 0 .29.23l2.15.67a.65.65 0 0 0 .82-.45l1.65-5.68 1.78.55q-1.6 3.3-1.49 7.23l2.64-.5a1.44 1.4 52.9 0 1 .92.14q3.62 1.81 7.07.56 1.85.56 3.32 2.39a.04.04 0 0 1-.05.06l-3.51-2.02a.03.02 27.1 0 0-.04.01l-.14.36a.35.34-65.7 0 0 .15.42q3.43 1.88 5.27 5.71a1.21 1.2-2.4 0 0 .67.61q4.95 1.93 7.83 2.1c8.71.54 15.9-.41 19.84 6.31a1.4 1.35-2.5 0 0 .62.55l6.69 3.11a1.18 1.17 7 0 1 .64.81l1.15 5.63a1.09 1.08-15.7 0 1-.7 1.24q-1.27.44-1.64 1.11a1.62 1.61 12.2 0 1-1.28.82q-7.2.59-14.91.62-2.25.01-6.45 1.31l-4.14-.41q-.32-.27-.82-.1l-4.26-.64q-.32-.09-.67-.05l-7.25-1.27q-.4-.35-1.02-.18l-7.72-1.52q-1.68.07-3.26-.63-.69-.1-.55-.32-7.06-2.11-14.09-4.43-6.06-2-11.97-4.53c-10.3-4.42-18.53-8.27-27.23-14.09-5.97-3.99-13.67-11.18-14.47-18.44-.65-5.86 3.19-11.49 8-14.74a1.86 1.82 83.9 0 0 .71-.9q.18-.46-.04-.98a1.49 1.48 62.3 0 1 .56-1.81q1.13-.75 1.39-1.63.02.36 1 .77l-1.64 1.27a.64.64 0 0 0 .36 1.14l2.78.14a.86.86 0 0 0 .8-.47q.71-1.34.85-3.4 3.07 1.55 6.14 2.58.45.15.59.4.19.33.07.74zm2.87 11.76l1.07-2.89a.51.51 0 0 0-.3-.66l-.33-.12a5.44 2.04 20.3 0 0-5.81.03l-.01.02a5.44 2.04 20.3 0 0 4.4 3.8l.32.12a.51.51 0 0 0 .66-.3zm12.06 1.46l-2.93 1.84a.18.18 0 0 0-.06.25l.03.05a1.86 1.8 57.9 0 0 2.51.62l.19-.12a1.86 1.8 57.9 0 0 .54-2.53l-.03-.05a.18.18 0 0 0-.25-.06zm51.399 27.966a2.06.32-164.1 0 0 1.893.872 2.06.32-164.1 0 0 2.069.257 2.06.32-164.1 0 0-1.893-.872 2.06.32-164.1 0 0-2.069-.257z" class="D"/><path d="M422.135 245.967a14.38 12.19-157.5 0 1 17.95-5.759 14.38 12.19-157.5 0 1 8.62 16.765 14.38 12.19-157.5 0 1-17.95 5.759 14.38 12.19-157.5 0 1-8.621-16.765zm18.745-3.477q-.08.02-.22.17a.1.1 0 0 0 .03.15q.25.14.31.13a.243.223 32.4 0 0-.12-.45zm-1.34 15.233a.9.48-178.3 0 0 .885.507.9.48-178.3 0 0 .914-.453.9.48-178.3 0 0-.885-.507.9.48-178.3 0 0-.914.453zM125.55 241.05l-1.37 5-4.72-.04a.39.39 0 0 1-.22-.71q2.86-2 5.5-4.27.21-.18.81.02z" class="B"/><path d="M440.88 242.49a.24.22 32.4 0 1 .12.45q-.06.01-.31-.13a.1.1 0 0 1-.03-.15q.14-.15.22-.17z" class="C"/><path d="M128.42 252.81a.51.51 0 0 1-.66.3l-.32-.12a5.44 2.04 20.3 0 1-4.4-3.8l.01-.02a5.44 2.04 20.3 0 1 5.81-.03l.33.12a.51.51 0 0 1 .3.66l-1.07 2.89zm3.26-3.9q1.76.45 2.65 1.3a.8.78-68.7 0 1 .24.57q0 1.06 1.42 1.56l1.83.78a.4.4 0 0 1 .14.64c-3 3.25-4.89-.44-7.59 1.64a.41.41 0 0 1-.64-.45l1.95-6.04zm8.8 5.36a.18.18 0 0 1 .25.06l.03.05a1.86 1.8 57.9 0 1-.54 2.53l-.19.12a1.86 1.8 57.9 0 1-2.51-.62l-.03-.05a.18.18 0 0 1 .06-.25l2.93-1.84z" class="E"/><g class="C"><path d="M143.49 256.81q-1.45.93-.72 2.16.78 1.32 2.95 2.44a1.68 1.66-89.6 0 1 .71.73c.39.81-.03 1.41.98 1.99q1.38.79 3.07-.1l1.75-1.14.75.08q-.88 1.37.6 2.03a.46.45 58.8 0 1-.21.87q-7.16-.5-11.69-6.33a1.65 1.64 33.4 0 1-.3-1.42q.3-1.27 2.02-2.61a.26.25 79.6 0 1 .4.28l-.31 1.02z"/><ellipse cx="0" cy="0" transform="matrix(-.87462 -.48481 .48481 -.87462 341.16 256.06)" rx="1.62" ry=".43"/></g><path d="M149.2 256.07l-1.58 4.38q-.4.32-.75-.09a.48.45-66.3 0 1-.12-.34q.11-4.69 2.45-3.95z" class="B"/><path d="M143.49 256.81q-.84 2.76 2.23 4.03.75.67.98 1.67a.27.27 0 0 0 .47.11l1.04-1.29q1.78-1.62 3.64-1.87a1.73 1.72 81.7 0 1 1.92 1.44q.23 1.4-.79 2.07l-.75-.08.82-.93a.49.48-78.7 0 0-.52-.78q-1.69.58-2.88 2.14a.51.5 31 0 0 .2.76q.25.12.63-.05-1.69.89-3.07.1c-1.01-.58-.59-1.18-.98-1.99a1.68 1.66-89.6 0 0-.71-.73q-2.17-1.12-2.95-2.44-.73-1.23.72-2.16z" class="E"/><g class="C"><ellipse cx="0" cy="0" transform="matrix(-.99956 -.029666 .029666 -.99956 440.44 257.75)" rx=".9" ry=".48"/><ellipse cx="0" cy="0" transform="matrix(-.654741 -.755853 .755853 -.654741 379.15 258.32)" rx=".53" ry=".37"/></g><path d="M158.02 259.43l3.99 1.99q-.15.94.35 1.62.22.58.22 1.05a.42.42 0 0 1-.53.41c-1.3-.36-2.33-.38-3.68-.38.96-.2 1.75-.44 2.72-.48a.93.93 0 0 0 .41-1.75q-1.78-.94-3.33-.71-.66.1-.91-.28-.2-.3-.05-.87.22-.3.81-.6z" class="B"/><path d="M157.21 260.03q-.15.57.05.87.25.38.91.28 1.55-.23 3.33.71a.93.93 0 0 1-.41 1.75c-.97.04-1.76.28-2.72.48 1.35 0 2.38.02 3.68.38a.42.42 0 0 0 .53-.41q0-.47-.22-1.05.28-.46.88-.45a.66.64 73.3 0 1 .52.29l.87 1.34a.47.46-23.7 0 1-.28.7q-5.04 1.22-8.56-.96l1.42-3.93z" class="C"/><path d="M152.23 262.89l-1.75 1.14q-.38.17-.63.05a.51.5 31 0 1-.2-.76q1.19-1.56 2.88-2.14a.49.48-78.7 0 1 .52.78l-.82.93z" class="B"/><path d="M164.13 261.94q-.31.89.63 1.84a1.65 1.59 72.8 0 0 .83.46q3.12.7 2.25-.69 2.89.27 5.21 1.87l-1.65 5.68a.65.65 0 0 1-.82.45l-2.15-.67a.59.53 80.4 0 1-.29-.23l-3.49-5.32a.29.28-34.5 0 0-.4-.07q-.81.59-1.52.43-3.24-.73-6.24-.47a.66.66 0 0 1-.7-.49q-.12-.49 0-.77 3.52 2.18 8.56.96a.47.46-23.7 0 0 .28-.7l-.87-1.34a.66.64 73.3 0 0-.52-.29q-.6-.01-.88.45-.5-.68-.35-1.62 1.1-.05 2.12.52z" class="E"/><path d="M164.13 261.94l3.71 1.61q.87 1.39-2.25.69a1.65 1.59 72.8 0 1-.83-.46q-.94-.95-.63-1.84z" class="B"/><path d="M330.97 262.89a.53.53 0 0 1-.65.76q-.97-.41-.85-.95a.71.71 0 0 1 1.35-.12q.11.25.15.31z" class="C"/><path d="M185.73 263.14q1.12 2.15-.12 4.04a.3.3 0 0 1-.11.11q-.45.29-.81.05a1.87 1.84 39.8 0 1-.29-2.91q.53-.49.96-1.29a.21.21 0 0 1 .37 0z" class="D"/><path d="M390.83 278.79l.57-3.2a.23.22 74.4 0 0-.37-.21q-1.03.92-1.31 2.12-1.3 5.55-2.95 9.8-.58-.26-.48.04l-.17-.67a.87.85-2.9 0 0-.72-.64l-3.91-.56a.98.9-21 0 1-.46-.18q-.97-.68-2.32-.63 1.6.01 1.48-1.14a.59.58 80.4 0 1 .44-.63q.31-.08.98.52.18.16.2 1.18a.67.67 0 0 0 .55.65q1.33.25 1.89.1a.58.58 0 0 0 .39-.77q-.46-1.22-1.46-1.62a1.15 1.11-89.1 0 1-.65-.69q-.35-1.09.49-1.39-.52-.31-.23.79a.48.47-44.8 0 0 .92 0l2.71-9.77q-1.08-.8-.56-2.61a.58.58 0 0 0-.5-.74q-2.12-.19-2.19-1.29a1.73 1.62 12 0 1 2.48-1.49q2.7 1.32 5.7 2.27a2.34 2.34 0 0 1 1.63 2.24q0 3.99-2.15 8.52zm-1.442-5.057a.85.85 0 0 0-.597-1.043l-.096-.026a.85.85 0 0 0-1.043.597l-2.36 8.685a.85.85 0 0 0 .597 1.043l.096.026a.85.85 0 0 0 1.043-.597l2.36-8.685z" class="C"/><path d="M174.83 265.97q4.77 1.28 3.22 2.41-.81.47-2.42-.29a.77.77 0 0 0-1.05.43l-.63 1.66a.85.85 0 0 0 .49 1.09l.75.28a.47.47 0 0 1 .02.87l-1.87.78q-.11-3.93 1.49-7.23z" class="B"/><g class="C"><ellipse cx="0" cy="0" transform="matrix(.24869 -.968583 .968583 .24869 334.86 268.74)" rx="1.94" ry=".58"/><path d="M330.79 269.06q-1.57-.12-2.29-1.42a.3.29 58.7 0 1 .09-.39q.2-.14.64-.1a.43.42 83.2 0 1 .35.28q.23.6 1.32 1.28a.19.19 0 0 1-.11.35z"/></g><path d="M178.05 268.38q.78 1.26 1.91 1.99a1.7 1.64-25.9 0 0 .77.25q1.57.1 2.9.99.85.57.34 1.79-3.45 1.25-7.07-.56a1.44 1.4 52.9 0 0-.92-.14l-2.64.5 1.87-.78a.47.47 0 0 0-.02-.87l-.75-.28a.85.85 0 0 1-.49-1.09l.63-1.66a.77.77 0 0 1 1.05-.43q1.61.76 2.42.29z" class="E"/><g class="B"><path d="M192.03 271.53a.26.26 0 0 1 .25-.26l.18-.01a4.58 1.17-1.9 0 1 4.62 1.02v.04a4.58 1.17-1.9 0 1-4.54 1.32h-.18a.26.26 0 0 1-.27-.25l-.06-1.86zm57.82-.18q.92.32 5.67.25a.83.79 27.6 0 1 .51 1.48q-.5.3-.65.97a.94.92-9.5 0 1-.41.56q-1.55.96-1.95.95a2.19 2.18-12.2 0 1-1.54-.99l-1.87-2.92a.2.2 0 0 1 .24-.3zm136.57.54l-2.71 9.77a.48.47-44.8 0 1-.92 0q-.29-1.1.23-.79.6-5.83 3.4-8.98zm-161 3.26q6.31 3.09 7.94 4.48c3.98 3.41 8.52 6.49 10.86 11.43l.72 2.46a.83.83 0 0 1-1 1.04q-1.48-.36-2.41-1.58c-4.03-5.28-7.56-9.11-12.55-11.34q-1.1-.49-3.48-1.86-6.26-3.62-8.84-4.59-3.68-1.39-4.62-2.3a.21.2-15.2 0 1 .2-.34l3.22.77a1.15 1.03-36.7 0 0 .33.03q5.34-.26 9.63 1.8z"/><rect x="-.9" y="-5.35" transform="matrix(.965016 .262189 -.262189 .965016 387.34 277.84)" width="1.8" height="10.7" rx=".85"/></g><path d="M241.22 276.3q2.95 2.56 4.68 5.37a4.58 4.31 9.6 0 0 .59.78q3.16 3.34 4.8 8.45-.16 3.37-1.87 4.51-1.86 1.24-3.73 2.61a.33.33 0 0 1-.48-.44q2.05-3.38-.99-6.52c-2.34-4.94-6.88-8.02-10.86-11.43q-1.63-1.39-7.94-4.48-.56-1.29 1.83-.89 4.59.76 9.25.68 1.31-.03 4.72 1.36z" class="D"/><path d="M215.46 276.69q-2.88 2.7-6.34 2.73a.53.52-54.7 0 1-.17-1.02c1.68-.59 4.06-1.09 3.92-3.07a.45.44 4.8 0 1 .55-.46q.72.18 2.01 1.18a.42.42 0 0 1 .03.64z" class="B"/><path d="M250.47 275.59q1.06 3.54 3.46 6.23a.43.43 0 0 1-.01.58l-.17.18a.35.35 0 0 1-.49.01l-5.68-5.41a.67.67 0 0 1 .1-1.05l1.52-1a.85.84-24.9 0 1 1.27.46z" class="D"/><path d="M390.83 278.79l-1.93 9.2.11-.67a.5.5 0 0 0-.49-.58q-.82 0-1.75.56 1.65-4.25 2.95-9.8.28-1.2 1.31-2.12a.23.22 74.4 0 1 .37.21l-.57 3.2zm-131.49-2.01l-.07-1.53q1.02 1.49.07 1.53zm-3.25 12.99c1.53 13.29-16.32 16.35-26.28 16.19l10.57-5.1a1.89 1.82 24.3 0 1 .42-.15q3.33-.85 5.54-2.1 5.8-3.3 4.95-7.71-1.64-5.11-4.8-8.45a4.58 4.31 9.6 0 1-.59-.78q-1.73-2.81-4.68-5.37 3.52-1.3 5.43 1.53 2.14 3.17 5.57 7.69 1.02 1.35 2.16 5.22a.62.62 0 0 0 .72.43q.94-.2.99-1.4zM253 277.82q.02.46.33 1.13-.47.19-.64-.46-.07-.26.31-.67z" class="B"/><path d="M454.84 279.21q.47-.05 2.4 1.13.59.36 1.02.18.59-.26.98.13c1.08 1.08 2.22 1.09 3.43 1.81a.17.17 0 0 1-.12.31q-4.29-.98-7.82-3.05a.28.27 56.9 0 1 .11-.51z" class="C"/><path d="M254.74 281.99q-1.28-.52-1.28-2.5.92 1.13 1.28 2.5z" class="B"/><ellipse cx="0" cy="0" transform="matrix(-.961741 -.273959 .273959 -.961741 193.86 282.8)" rx="2.06" ry=".32" class="C"/><path d="M254 283.49q1.12-.54.84-1.27.33.27.46.58.16.4-.24.57-.39.18-1.06.12z" class="B"/><path d="M458.58 283.02q-.09.86-.56 1.79a.23.23 0 0 1-.43-.09q-.07-1.18.51-1.9a.27.27 0 0 1 .48.2z" class="C"/><path d="M254.72 285.29q-.66-.38-.75-1.28.45.5.75 1.28zm123.99-.63q1.35-.05 2.32.63a.98.9-21 0 0 .46.18l3.91.56a.87.85-2.9 0 1 .72.64l.17.67-8.79-2.43 1.21-.25z" class="B"/><g class="C"><path d="M456.34 288.27q.35.07.25.96-.4 3.45-1.11 3.31-.7-.14.25-3.48.25-.86.61-.79z"/><ellipse cx="0" cy="0" transform="matrix(.327218 -.944949 .944949 .327218 454.28 294.59)" rx="1.42" ry=".33"/><path d="M453.13 297.22q-.09-.51.22-.85a.46.33 75.7 0 1 .57.48q0 .04-.23.46a.3.3 0 0 1-.56-.09zm-14.27-.34q.32-.01.92.33.59.34.18.78-.21.23-.82.06a.71.49 42.1 0 1-.28-1.17z"/></g><path d="M172.29 299.75q.48 1.62-1.63 2.22 1.7-.95 1.08-2.54-.14.22.55.32z" class="B"/><path d="M175.55 300.38q-.72.94-.39 1.37 2.02 2.58.26 4.92-.54.53-.4 1.29-.31 1.28-.88 2.17-.93 1.6-1.87 2.01l-1.29-.27q2.77-2.96 3.13-7.13a.86.86 0 0 0-.39-.79q-1.78-1.13-3.89.15-.06-1.4.83-2.13 2.11-.6 1.63-2.22 1.58.7 3.26.63zm8.74 1.7q-.53-.2-1.02-.18.62-.17 1.02.18z" class="C"/><path d="M170.98 311.87q-1.35-.22-2.72-1.31l1.27-5.41.17-.86q.06-.09.13-.19 2.11-1.28 3.89-.15a.86.86 0 0 1 .39.79q-.36 4.17-3.13 7.13z" class="D"/><path d="M192.21 303.4l-.67-.05q.35-.04.67.05zm5.08.74q-.44.04-.82-.1.5-.17.82.1z" class="C"/><g class="B"><path d="M169.7 304.29l-.17.86q-.03-.39.17-.86z"/><path d="M169.53 305.15l-1.27 5.41q-.49-2.34 1.27-5.41zm5.89 1.52q-.04.75-.4 1.29-.14-.76.4-1.29zm-1.28 3.46q-.22 2.5-1.87 2.01.94-.41 1.87-2.01z"/></g></svg>