<?xml version="1.0" encoding="UTF-8" standalone="no"?>
<!-- Created with Inkscape (http://www.inkscape.org/) -->

<svg
   version="1.1"
   id="svg1"
   width="682.66669"
   height="420"
   viewBox="0 0 682.66669 420"
   xmlns="http://www.w3.org/2000/svg"
   xmlns:svg="http://www.w3.org/2000/svg"
   xmlns:rdf="http://www.w3.org/1999/02/22-rdf-syntax-ns#"
   xmlns:cc="http://creativecommons.org/ns#"
   xmlns:dc="http://purl.org/dc/elements/1.1/">
  <title
     id="title1">NovaSAR-1 Icon SVG</title>
  <defs
     id="defs1" />
  <g
     id="g1">
    <path
       style="fill:currentColor"
       d="m 80.000002,418.72538 c 13.760596,0.3824 22.351818,-2.97066 5.557437,-8.94806 -16.605733,2.1994 -32.229243,-2.47157 -28.165072,-20.38308 C 45.543496,377.53982 30.198064,368.39284 21.333344,376.7594 3.8394466,370.60899 5.7777382,342.04977 12.572289,337.28337 0.92064273,320.43558 -2.1460111,299.12393 23.023089,296.36164 c 16.9048,-7.53205 -0.461082,-26.23006 21.030902,-31.02831 23.858876,-5.10048 -16.356557,-15.35863 7.82783,-21.75457 17.551234,-16.95025 44.231268,-23.42785 62.562999,-41.4171 14.9619,-18.37527 50.31372,13.82904 55.35852,-7.5228 -17.08577,-29.31499 21.17183,-37.9773 39.57293,-52.78389 17.78364,-10.57501 33.27951,-22.16031 49.19867,-32.54656 15.57269,-14.332723 38.02385,-21.052622 54.88016,-35.309328 19.24538,-11.664442 39.40439,-24.322024 57.91553,-38.617918 13.08916,-15.218038 40.13899,-14.040396 53.9759,-22.424143 -32.08034,-21.2379313 26.77408,-9.8205989 41.4046,-12.75044844 11.39505,-0.42424373 44.63628,1.09589764 15.7746,2.23792654 -12.26607,0.1794198 -45.49611,0.4076393 -15.47247,3.3572378 28.96851,5.4080981 60.04041,3.0491554 87.24914,14.2614851 14.02619,11.342409 15.64958,30.983083 23.03095,45.936778 7.61442,17.957314 14.25497,39.13261 22.66667,57.06667 5.60806,18.94893 10.27235,53.88262 36.62611,34.26666 13.48231,-9.18388 37.3996,-9.30759 42.72443,-25.66666 1.68983,-24.39328 11.01186,23.30389 -7.35054,16.33333 -14.19894,7.89428 -31.61972,13.62652 -45.33333,21.33333 -34.55219,8.76648 27.14865,12.71765 9.78016,20.58666 -12.84651,-2.56122 -41.08732,-17.80172 -32.72395,1.97339 -15.44488,7.49573 -27.60593,14.53721 -42.05622,24.09368 -12.65723,9.73402 -31.72214,14.30787 -47,20.01294 -14.88716,5.02423 -30.8218,11.46075 -44,18.66667 -11.92843,5.19145 -23.95963,10.10123 -34.66667,16 -11.32878,5.84834 -25.35891,9.6092 -35.19399,16.94166 -15.93951,4.54443 -27.93484,12.73647 -42.13934,18.74217 -11.88625,12.85193 -9.99626,46.65108 -37.5982,35.2485 4.68619,-21.52967 -10.74228,-15.59917 -21.8518,-7.324 -12.03741,5.06753 -25.34547,10.45543 -36.55001,16.39167 -11.61528,6.39507 -25.96522,10.93707 -37.33333,17.33333 -11.75051,5.15818 -23.78311,10.30388 -34.66667,16 -9.70932,5.86897 -22.20923,8.96753 -32,14.66667 -12.00687,6.88936 -26.19867,11.25605 -38.94881,19.2705 -12.84755,2.00915 -27.335394,2.85045 -39.717858,0.78821 z m -16,-19.39205 c -1.703321,-2.39162 -1.70327,2.39164 0,0 z M 17.333334,368.66667 c -1.703272,-2.39164 -1.703323,2.39162 0,0 z m -3.111111,-8.22223 c -2.68758,-0.32105 1.004296,4.52621 0,0 z M 13.333334,358 c -1.703297,-2.39165 -1.703297,2.39165 0,0 z m 8,-5.33333 c -1.70327,-2.39164 -1.703321,2.39162 0,0 z m 4,-3.33334 c -3.193186,-5.32687 -2.126411,4.95861 0,0 z m -2.306046,-5.50604 c -10.386266,-3.48796 3.964197,6.69027 0,0 z M 12,344.66667 c -1.703271,-2.39164 -1.703322,2.39162 0,0 z M 29.333334,342 c -1.703296,-2.39165 -1.703296,2.39165 0,0 z m -3.390273,-3.42546 c -5.608144,-4.6755 -0.121215,6.3552 0,0 z m -7.78433,-8.60629 c -6.564069,-4.85543 5.621066,8.58247 0,0 z m 29.84127,-0.63492 c 4.127314,-4.74812 -12.954521,4.76778 0,0 z m 7.333334,-2.66666 c -1.739892,-4.97377 -5.550071,4.55379 0,0 z m -40.000001,-1.33334 c -0.351912,-4.88977 -4.002144,4.49173 0,0 z m 47.723779,-1.66666 c 10.708425,-7.43561 -8.928828,0.56156 -5.717758,1.60264 l 1.740558,-0.0793 z m 32.94289,1 c -1.703272,-2.39164 -1.703323,2.39162 0,0 z M 12,322 c -1.703296,-2.39165 -1.703296,2.39165 0,0 z m 96.88889,-0.22222 c -4.52621,-1.0043 0.32105,2.68758 0,0 z m -34.952287,-3.00853 c 15.26461,-4.62274 0.909571,-4.64846 -4.196656,0.9118 L 70.987979,320 Z m 31.035627,0.42519 c -5.696985,-1.5208 -1.45725,2.46053 0,0 z m 1.93888,-4.81666 c -4.73466,-2.86176 3.31657,6.91717 0,0 z m -12.220631,-0.69733 c -13.589329,-10.41039 -4.025688,1.84868 0,0 z M 102.41667,310.75 c -1.9581,-5.43999 -5.871851,8.29843 0,0 z m 8.25,1.91667 c -1.70326,-2.39163 -1.70331,2.39161 0,0 z M 96.000003,310 c -1.703297,-2.39165 -1.703297,2.39165 0,0 z M 108,310 c -1.70329,-2.39166 -1.70329,2.39166 0,0 z m -22.333331,-3.85606 c 5.821914,-19.15106 -2.645428,6.22911 -13.473029,-4.39286 5.587,-0.90492 8.53188,9.57748 13.473029,4.39286 z m 7.666667,1.18939 c -1.703321,-2.39162 -1.70327,2.39164 0,0 z m 12.888894,-1.55555 c -4.5262,-1.00429 0.32102,2.68758 0,0 z m 8.44444,0.30091 c -3.36332,-5.22129 -3.67208,2.80285 0,0 z m -48.000001,-8.74536 c -3.87283,-5.59105 -5.055629,5.1482 0,0 z m 3.651966,-2.72848 c -9.79357,-9.4363 3.567252,9.83899 0,0 z m 12.348034,2.06182 c -2.957523,-8.67077 -15.251131,7.27621 0,0 z m -20,-4.74536 c -4.171161,-9.69821 -3.376423,11.94135 0,0 z m 28.700746,2.26849 c 5.679987,-10.91355 -14.415398,2.64671 1.782752,1.55972 l -1.782756,-1.55972 z m -34.03408,-2.11111 c -2.737085,-6.98976 -3.689306,4.6309 0,0 z m 10.666667,-3.41202 c -1.70327,-2.39164 -1.703321,2.39162 0,0 z m -16,-1.73334 c 0.80639,-21.2532 -11.976743,1.95441 0,0 z m 9,0.22629 c 11.020512,-11.29552 -17.92643,3.32237 0,0 z m -20.027779,-5.29851 c -5.696974,-1.52079 -1.457256,2.46051 0,0 z m -3.14481,-2.32573 c 8.958711,-8.07395 -13.632454,5.41805 0,0 z m 18.839255,-0.86871 c -6.131,-4.74159 -0.08632,4.55439 0,0 z m -10,-2 c -1.70327,-2.39164 -1.703321,2.39162 0,0 z m 32.000001,-1.33334 c -1.703321,-2.39162 -1.70327,2.39164 0,0 z M 44.000001,274 c -1.703296,-2.39165 -1.703296,2.39165 0,0 z m 42.666668,-4 c -1.703296,-2.39165 -1.703296,2.39165 0,0 z M 57.333335,255.33333 c -1.703321,-2.39162 -1.70327,2.39164 0,0 z m -5.333333,-4 c -1.703323,-2.39162 -1.703272,2.39164 0,0 z m 156.000008,-20 c -1.70333,-2.39162 -1.70328,2.39164 0,0 z m -11.11112,-5.55555 c -4.5262,-1.00427 0.32106,2.68757 0,0 z M 168.00001,214 c -1.7033,-2.39165 -1.7033,2.39165 0,0 z m -11.11112,-5.55556 c -4.52619,-1.00428 0.32105,2.68757 0,0 z m 75.11112,0.22223 c -1.70328,-2.39164 -1.70333,2.39162 0,0 z M 132.8715,198.48796 c -11.66619,-1.8688 3.43969,4.55852 0,0 z m 40.01739,-12.71018 c -2.68757,-0.32106 1.00432,4.52621 0,0 z m 4.08334,-9.25 c -5.69697,-1.52081 -1.45728,2.46051 0,0 z M 169.33334,174 c -1.70329,-2.39164 -1.70329,2.39164 0,0 z m 2.66667,-1.33333 c -1.70328,-2.39164 -1.70333,2.39162 0,0 z m 431.6389,-4.13889 c -5.69697,-1.52081 -1.45728,2.46051 0,0 z m 8.25,-2.41016 c -10.50295,-4.69204 -20.12695,-0.31278 -3.98138,0.35382 z M 205.33334,150 c -1.70329,-2.39164 -1.70329,2.39164 0,0 z m 138.66667,-5.33333 c -1.70326,-2.39163 -1.70331,2.39161 0,0 z M 261.33334,130 c -1.70329,-2.39164 -1.70329,2.39164 0,0 z m -8.44444,-2.88889 c -4.52621,-1.0043 0.32105,2.68758 0,0 z m 1.77777,-8.44444 c -1.99057,-4.21362 -3.00911,4.57931 0,0 z m 12,-8.66667 c -1.70329,-2.39166 -1.70329,2.39166 0,0 z M 441.33335,90 c -1.70331,-2.391637 -1.70331,2.391637 0,0 z m -80.00001,-9.333333 c -1.70329,-2.391645 -1.7033,2.391644 0,0 z m 0.88889,-8.222223 c -4.52619,-1.004277 0.32105,2.687572 0,0 z m -27.55555,-5.111111 c -1.70331,-2.391634 -1.7033,2.391636 0,0 z M 512.8889,37.777778 c -4.5262,-1.004274 0.32106,2.687567 0,0 z m -18.22222,-5.856467 c -3.75886,-4.764498 -2.5858,7.064167 0,0 z m 17.33334,-1.254644 c -5.47003,-11.367753 -1.78024,9.232205 0,0 z M 516.66668,32 c 1.14542,-4.816974 -4.18422,4.98122 0,0 z m -28.66667,-0.666667 c -1.7033,-2.391644 -1.70329,2.391645 0,0 z m -5.76123,-6.872344 c -16.72596,-5.798061 -28.95727,11.48811 -7.23877,0.912889 -1.33605,1.014334 5.36054,10.429671 7.23877,-0.912889 z m 19.08342,2.170574 c -17.07653,-7.025978 3.66983,8.192015 0,0 z m -109.32219,2.035104 c -1.70329,-2.391625 -1.70329,2.391623 0,0 z m 65.60278,-3.231349 c -10.89828,-24.8344212 -3.38014,14.358328 0,0 z M 432.00001,26 c -1.7033,-2.391646 -1.7033,2.391646 0,0 z m -25.77778,-2.888889 c -4.52619,-1.004283 0.32106,2.687572 0,0 z m 20.44445,-0.444444 c -3.87919,-5.088924 -4.97816,5.346389 0,0 z m 38.66667,0 c -6.1607,-5.392596 -7.16957,5.219147 0,0 z m -33.33334,-1.921311 c -2.87534,-4.949327 -2.79646,1.580722 0,0 z m 114.66667,-0.07869 c -1.7033,-2.391643 -1.70329,2.391646 0,0 z m -114.66667,-4 c -1.7033,-2.391643 -1.70329,2.391646 0,0 z M 681.33335,174.66667 c 1.06704,-3.61533 1.06704,3.61533 0,0 z"
       id="path1" />
  </g>
  <metadata
     id="metadata1">
    <rdf:RDF>
      <cc:Work
         rdf:about="">
        <dc:title>NovaSAR-1 Icon SVG</dc:title>
        <dc:source>https://encrypted-tbn0.gstatic.com/images?q=tbn:ANd9GcQSQ308qNsjsqJW4v5ljcigmZXn70Ruoc95Gg&amp;s</dc:source>
      </cc:Work>
    </rdf:RDF>
  </metadata>
</svg>
