<?xml version="1.0" encoding="UTF-8" standalone="no"?>
<svg xmlns="http://www.w3.org/2000/svg" version="1.2" baseProfile="tiny" viewBox="0.00 0.00 512.00 196.00" width="512.00" height="196.00">
<path fill="#fbe09f" d="
  M 95.56 0.00
  Q 103.54 6.02 111.63 11.78
  Q 112.70 12.54 114.86 14.25
  C 117.56 16.38 120.02 17.79 122.86 14.97
  Q 123.27 16.49 122.61 17.25
  Q 118.60 21.81 116.26 27.88
  A 2.46 2.28 79.0 0 1 115.77 28.67
  L 110.65 33.99
  A 0.91 0.89 -29.4 0 0 110.42 34.78
  C 110.84 36.88 107.18 39.82 105.38 40.36
  Q 96.55 43.03 83.16 47.39
  A 0.68 0.67 73.3 0 0 82.72 48.21
  L 82.73 48.24
  A 0.69 0.69 0.0 0 0 83.53 48.73
  Q 92.55 46.94 100.24 43.68
  A 8.84 8.49 -60.2 0 1 102.22 43.10
  C 106.30 42.40 109.89 40.07 114.05 39.18
  Q 120.39 37.84 120.55 37.87
  A 1.74 1.71 33.9 0 0 121.67 37.66
  Q 123.35 36.71 125.17 37.28
  A 0.66 0.66 0.0 0 0 125.99 36.86
  L 126.69 34.80
  A 1.75 1.73 82.8 0 1 127.35 33.94
  L 132.44 30.52
  A 1.07 1.07 0.0 0 0 131.99 28.58
  L 126.90 27.88
  A 1.41 1.40 15.9 0 1 125.80 25.92
  C 126.27 24.86 126.67 23.54 125.73 22.45
  Q 125.07 21.67 125.24 20.99
  Q 125.78 18.92 126.04 16.89
  Q 126.05 16.81 126.65 15.02
  Q 127.04 13.86 126.20 12.49
  Q 127.99 11.44 130.78 11.83
  L 132.29 11.75
  Q 134.73 11.56 137.00 12.22
  A 1.36 1.35 85.6 0 1 137.87 12.97
  Q 139.16 15.84 136.95 17.91
  A 1.00 0.99 -17.3 0 0 136.64 18.50
  Q 136.55 19.19 138.49 20.82
  A 0.65 0.65 0.0 0 1 138.30 21.93
  L 137.22 22.32
  A 1.05 1.05 0.0 0 0 136.93 24.12
  C 138.02 25.01 138.69 25.34 140.21 25.33
  Q 144.00 25.30 147.30 28.41
  Q 149.04 30.05 151.06 29.73
  A 0.75 0.75 0.0 0 0 151.42 28.41
  Q 149.70 27.01 148.92 24.98
  A 0.45 0.45 0.0 0 1 149.34 24.38
  Q 150.22 24.38 150.99 24.82
  Q 151.32 25.04 151.77 24.97
  Q 152.34 24.95 152.61 25.08
  Q 154.92 28.19 156.69 29.30
  Q 161.26 32.17 164.58 36.25
  A 0.65 0.65 0.0 0 1 164.08 37.31
  Q 163.77 37.32 163.76 37.32
  A 0.39 0.39 0.0 0 0 163.71 38.07
  Q 182.25 43.90 197.99 48.27
  Q 202.02 49.38 207.74 51.19
  C 213.24 52.92 217.71 52.20 224.07 50.40
  Q 226.63 49.68 233.53 48.16
  Q 242.52 46.17 249.84 46.09
  Q 234.61 50.50 220.11 53.99
  Q 214.42 55.36 208.32 53.64
  Q 174.50 44.09 162.77 40.18
  Q 161.67 39.81 160.77 40.27
  A 1.57 1.55 40.5 0 0 161.01 43.13
  Q 165.46 44.64 169.09 45.59
  Q 181.74 48.91 183.52 49.55
  Q 185.32 50.21 197.85 53.82
  Q 205.61 56.06 213.39 58.70
  Q 206.75 62.96 199.07 70.06
  Q 196.15 72.77 191.01 74.76
  C 187.98 75.93 184.59 75.65 181.52 76.32
  Q 178.99 76.87 174.33 77.18
  Q 162.44 77.98 149.72 80.92
  C 145.24 81.96 140.17 83.94 136.25 84.86
  A 4.74 4.59 24.2 0 0 135.31 85.20
  Q 132.92 86.41 126.02 89.88
  C 121.26 92.28 115.79 97.06 115.59 102.82
  A 0.90 0.89 -85.7 0 0 116.37 103.73
  L 130.43 105.53
  L 129.15 108.97
  A 1.00 1.00 0.0 0 0 130.51 110.23
  Q 133.72 108.74 137.48 109.47
  Q 139.98 109.96 141.17 107.78
  Q 143.14 110.13 144.28 113.23
  Q 145.91 117.70 147.09 122.10
  C 142.95 123.26 138.75 124.57 134.67 125.11
  C 129.49 125.80 125.17 127.11 120.40 129.09
  Q 118.38 129.93 113.52 131.17
  Q 103.93 133.61 102.22 134.14
  C 97.42 135.62 91.74 135.98 87.11 136.76
  A 0.95 0.73 25.8 0 0 86.92 136.80
  L 75.66 140.87
  A 1.72 1.69 7.4 0 0 74.88 141.46
  L 73.66 143.11
  A 1.10 1.09 48.1 0 1 71.83 143.01
  L 71.47 142.40
  A 2.75 2.75 0.0 0 1 72.48 138.65
  L 75.43 136.94
  A 0.23 0.22 33.6 0 0 75.34 136.52
  C 73.72 136.31 72.40 137.94 71.05 139.16
  A 1.18 1.18 0.0 0 1 69.49 139.18
  Q 68.02 137.89 65.74 136.92
  A 1.11 1.10 -63.1 0 1 65.23 135.33
  Q 65.62 134.67 66.18 134.46
  A 1.10 1.10 0.0 0 1 67.24 134.61
  C 70.12 136.83 70.39 133.32 72.80 133.39
  Q 79.18 133.59 84.82 129.54
  A 0.52 0.52 0.0 0 0 84.40 128.62
  Q 81.34 129.32 75.79 131.05
  Q 74.88 131.33 71.85 130.90
  A 0.81 0.80 18.9 0 0 71.05 131.29
  Q 69.62 133.77 67.26 132.88
  A 1.01 1.00 41.4 0 1 67.14 131.05
  Q 70.04 129.51 69.27 125.60
  A 1.80 1.75 -74.2 0 0 68.79 124.71
  Q 67.53 123.46 65.50 123.03
  A 1.49 1.49 0.0 0 1 65.44 120.13
  Q 66.70 119.81 68.49 118.64
  A 2.77 2.63 53.7 0 1 72.04 119.28
  Q 73.35 120.88 74.66 121.08
  A 3.07 2.97 46.0 0 0 75.26 121.10
  L 81.31 120.73
  A 0.30 0.30 0.0 0 0 81.50 120.21
  Q 80.78 119.51 79.57 119.00
  A 0.93 0.93 0.0 0 1 79.54 117.30
  Q 82.45 115.96 84.86 117.47
  A 0.33 0.33 0.0 0 0 85.35 117.28
  Q 85.43 116.97 85.10 116.61
  A 0.75 0.73 -20.2 0 0 84.54 116.36
  Q 81.82 116.34 80.55 115.70
  A 1.27 1.27 0.0 0 0 79.02 115.99
  C 78.10 117.03 77.73 118.17 76.53 118.50
  C 73.10 119.45 73.01 118.43 71.02 116.20
  A 1.21 1.19 69.1 0 0 70.12 115.79
  L 67.64 115.79
  A 0.77 0.77 0.0 0 0 66.87 116.54
  Q 66.81 118.22 63.89 118.13
  A 1.21 1.21 0.0 0 0 62.65 119.34
  L 62.65 123.80
  A 0.11 0.11 0.0 0 1 62.56 123.91
  Q 62.45 123.94 62.31 124.03
  Q 62.20 124.10 62.14 124.31
  Q 60.78 129.57 61.48 132.82
  A 1.96 1.95 74.0 0 1 60.24 135.07
  L 55.05 136.99
  A 1.18 1.18 0.0 0 1 53.46 135.88
  L 53.46 125.38
  A 0.58 0.58 0.0 0 0 52.34 125.19
  Q 51.02 128.89 50.96 133.79
  A 0.78 0.78 0.0 0 1 49.67 134.38
  Q 47.80 132.79 47.52 132.47
  A 1.69 1.56 49.7 0 1 47.62 130.14
  C 49.58 128.52 48.60 124.64 47.52 122.89
  A 0.63 0.63 0.0 0 0 46.36 123.25
  Q 46.43 124.66 45.97 125.48
  A 1.32 1.32 0.0 0 1 43.69 125.52
  Q 42.26 123.13 42.65 121.42
  A 0.68 0.68 0.0 0 0 41.51 120.78
  Q 40.11 122.16 40.88 124.24
  Q 42.39 128.28 42.90 132.61
  A 3.50 3.43 30.4 0 0 43.14 133.50
  Q 43.64 134.66 43.75 136.62
  A 2.80 2.80 0.0 0 0 44.78 138.61
  C 47.25 140.62 49.29 143.53 48.42 147.00
  A 0.91 0.91 0.0 0 1 46.71 147.15
  L 44.90 143.17
  A 1.10 1.10 0.0 0 0 44.65 142.82
  Q 40.74 139.37 40.09 134.94
  Q 38.99 127.42 37.99 124.79
  A 4.03 3.52 -76.2 0 0 37.55 123.94
  Q 36.44 122.30 36.09 120.81
  A 0.34 0.34 0.0 0 0 35.43 120.78
  Q 34.19 124.67 30.89 126.87
  A 0.86 0.84 -27.4 0 0 30.56 127.88
  L 31.51 130.46
  A 2.55 2.55 0.0 0 1 29.12 133.89
  L 21.73 133.89
  A 2.51 2.43 29.1 0 0 20.49 134.22
  L 12.98 138.55
  A 0.81 0.81 0.0 0 0 13.66 140.01
  L 24.35 136.07
  A 0.93 0.92 -25.2 0 1 25.47 136.47
  L 25.75 136.97
  A 0.52 0.52 0.0 0 1 25.35 137.75
  L 24.84 137.80
  A 0.60 0.60 0.0 0 0 24.72 138.91
  Q 24.96 139.02 25.66 138.57
  Q 25.98 138.37 26.81 139.44
  C 28.12 141.11 29.37 141.72 31.76 142.57
  A 0.43 0.32 -8.0 0 1 31.85 142.62
  L 41.59 149.79
  A 1.29 1.28 33.0 0 1 41.95 151.46
  L 40.11 154.70
  A 1.66 1.66 0.0 0 0 39.91 155.49
  L 39.91 171.96
  A 1.19 1.18 8.5 0 1 38.37 173.09
  Q 35.85 172.32 33.79 170.61
  A 0.10 0.01 -14.8 0 0 33.70 170.62
  Q 33.68 170.62 33.67 170.63
  A 0.03 0.03 0.0 0 0 33.66 170.68
  Q 34.91 171.54 34.81 172.63
  C 30.04 171.29 22.91 168.64 21.69 162.83
  Q 20.67 157.95 17.92 153.82
  Q 13.53 147.23 11.35 143.62
  Q 8.82 139.43 8.01 130.83
  L 15.34 121.96
  A 2.21 2.16 -61.2 0 0 14.37 118.47
  Q 13.84 118.30 12.53 118.41
  A 1.59 1.58 23.8 0 0 11.72 118.72
  L 8.79 120.92
  Q 8.58 119.69 8.86 118.21
  L 8.88 116.46
  L 8.89 110.45
  A 1.84 1.76 -61.5 0 0 8.64 109.53
  L 7.47 107.49
  A 1.21 1.20 75.4 0 0 6.47 106.90
  L 0.00 106.69
  L 0.00 102.36
  C 0.38 101.19 0.84 99.60 0.87 98.37
  C 0.87 99.91 1.17 101.58 1.70 102.77
  A 1.30 1.28 44.4 0 1 1.72 103.79
  Q 1.48 104.40 1.58 104.61
  A 1.55 1.49 42.2 0 0 4.39 104.53
  Q 5.79 100.34 5.83 96.56
  C 5.94 88.12 7.41 78.79 7.40 71.51
  C 7.39 61.05 8.80 51.14 8.85 40.50
  C 8.88 34.31 9.91 29.58 10.63 22.69
  Q 10.92 19.86 14.31 18.33
  Q 19.22 16.10 27.42 14.12
  Q 36.36 11.96 45.13 9.94
  Q 49.94 9.89 54.79 8.36
  A 1.73 1.69 10.8 0 0 55.59 7.83
  L 57.01 6.12
  L 82.30 0.00
  L 95.56 0.00
  Z
  M 113.84 22.97
  L 110.75 26.06
  A 2.65 2.65 0.0 0 1 107.47 26.43
  L 105.60 25.24
  A 1.31 1.31 0.0 0 0 103.79 25.65
  Q 101.35 29.55 97.41 26.79
  Q 95.38 25.36 94.94 25.21
  A 0.43 0.39 74.3 0 1 94.78 25.11
  L 90.20 20.45
  A 1.55 1.53 -26.1 0 0 88.86 20.00
  Q 78.83 21.59 75.79 22.81
  Q 73.72 23.65 73.61 23.64
  A 6.08 6.01 61.9 0 1 70.61 22.71
  L 55.98 13.45
  A 0.75 0.74 -66.6 0 1 55.66 12.63
  Q 56.13 10.76 58.57 11.17
  A 0.52 0.51 -18.5 0 0 59.01 10.29
  Q 58.27 9.59 56.47 8.92
  A 0.66 0.66 0.0 0 0 55.68 9.18
  L 53.62 12.44
  A 1.52 1.51 -55.2 0 0 53.98 14.46
  L 57.46 17.13
  A 1.56 1.26 -4.1 0 0 57.63 17.24
  Q 62.91 19.98 63.91 21.15
  Q 68.69 26.75 75.37 25.08
  C 79.00 24.17 82.61 23.56 86.99 22.58
  A 2.45 2.43 61.3 0 1 89.25 23.25
  C 93.15 27.19 100.53 33.40 105.35 26.96
  A 0.77 0.77 0.0 0 1 106.38 26.77
  Q 109.80 28.99 112.07 26.31
  Q 113.73 24.34 114.19 23.20
  A 0.21 0.21 0.0 0 0 113.84 22.97
  Z
  M 103.20 10.81
  C 104.07 12.93 106.25 14.09 108.74 14.82
  C 111.48 15.62 111.96 19.08 114.42 19.21
  A 0.47 0.47 0.0 0 0 114.78 18.42
  L 110.73 14.17
  A 1.55 1.45 -6.5 0 0 110.31 13.86
  L 103.51 10.52
  A 0.23 0.23 0.0 0 0 103.20 10.81
  Z
  M 22.96 77.47
  L 22.79 78.75
  A 0.25 0.24 62.9 0 0 23.25 78.90
  Q 23.42 78.57 23.36 77.26
  Q 23.22 74.25 23.35 71.45
  A 1.08 1.07 -13.3 0 1 23.90 70.57
  C 27.08 68.79 29.49 71.03 32.27 73.51
  A 4.70 4.40 78.9 0 0 33.02 74.05
  Q 35.51 75.51 38.18 78.03
  C 40.28 80.01 42.39 79.24 44.53 81.18
  A 1.23 1.22 -66.1 0 1 44.93 82.23
  Q 44.77 83.86 43.85 85.59
  A 1.98 1.85 -31.2 0 0 43.62 86.41
  Q 43.51 88.50 44.58 89.96
  A 1.32 1.29 27.2 0 1 44.84 90.74
  L 44.84 96.51
  A 0.54 0.47 -40.9 0 1 44.82 96.65
  Q 44.21 99.09 44.33 101.27
  A 1.67 1.64 -66.8 0 0 44.71 102.24
  Q 46.72 104.66 46.33 107.90
  Q 46.12 109.66 44.41 110.21
  A 0.84 0.83 61.1 0 0 44.03 111.54
  Q 45.97 113.89 46.83 116.76
  A 0.54 0.54 0.0 0 0 47.89 116.54
  C 47.56 113.48 46.56 109.73 48.36 108.09
  A 1.16 1.15 -22.7 0 0 48.74 107.17
  Q 48.61 105.13 48.23 103.49
  C 48.03 102.64 46.99 102.14 46.54 101.24
  A 2.17 2.13 33.2 0 1 46.30 100.14
  L 46.70 90.77
  A 3.67 3.39 -52.2 0 0 46.62 89.85
  L 46.07 87.49
  A 1.86 1.85 77.0 0 1 47.45 85.27
  L 47.49 85.26
  A 1.38 1.37 -9.4 0 1 49.20 86.48
  Q 49.46 89.52 49.58 94.23
  C 49.64 96.55 48.68 98.70 49.23 101.01
  A 1.54 1.53 -85.4 0 0 50.14 102.08
  L 53.36 103.44
  A 0.80 0.79 -50.5 0 0 54.14 103.36
  C 55.48 102.43 56.43 102.95 56.92 104.26
  Q 57.20 105.01 57.51 105.24
  A 0.54 0.53 -59.2 0 0 58.31 105.03
  Q 59.11 103.30 60.71 103.29
  Q 61.56 103.29 61.84 104.13
  Q 61.95 104.44 62.25 105.67
  A 1.44 1.43 85.6 0 0 63.49 106.74
  Q 65.10 106.89 67.49 106.90
  A 2.51 2.04 -6.1 0 1 69.81 108.41
  Q 69.93 108.88 71.20 109.62
  A 1.02 1.00 -78.9 0 1 71.70 110.38
  Q 71.77 111.03 72.11 111.35
  A 1.11 1.03 -20.5 0 0 72.79 111.63
  C 78.30 111.82 81.44 109.99 86.94 107.39
  A 5.27 4.70 21.7 0 1 87.93 107.03
  Q 90.65 106.34 92.18 105.18
  A 1.04 1.03 -67.8 0 1 92.65 104.98
  L 94.74 104.62
  A 0.46 0.43 13.2 0 0 95.00 104.47
  Q 95.39 103.99 96.70 103.68
  Q 97.29 103.54 98.30 103.91
  Q 100.41 104.69 101.55 102.37
  A 1.02 1.02 0.0 0 0 101.40 101.25
  Q 99.64 99.23 96.32 99.52
  A 1.97 1.97 0.0 0 0 95.47 99.82
  C 92.56 101.66 88.91 101.51 86.28 102.89
  A 0.12 0.06 16.8 0 1 86.23 102.90
  L 76.08 104.64
  A 0.31 0.31 0.0 0 0 75.95 105.19
  L 76.78 105.79
  A 0.76 0.76 0.0 0 0 77.53 105.88
  Q 81.30 104.24 84.97 104.39
  A 0.46 0.46 0.0 0 1 85.23 105.22
  Q 80.14 109.06 75.12 109.62
  A 2.52 2.19 -7.9 0 1 72.40 107.85
  Q 72.08 105.95 74.06 105.02
  A 0.48 0.47 -39.0 0 0 74.15 104.21
  L 66.56 98.45
  A 0.58 0.58 0.0 0 1 66.47 98.36
  L 64.28 95.90
  A 1.04 1.04 0.0 0 0 63.21 95.60
  Q 61.83 96.02 61.87 97.66
  C 61.90 98.90 62.77 99.31 62.97 100.08
  A 0.67 0.65 -21.5 0 1 62.63 100.83
  Q 59.90 102.26 57.57 102.04
  A 1.86 1.86 0.0 0 1 56.12 99.28
  Q 57.49 96.85 57.76 96.05
  C 58.76 92.99 57.17 88.87 58.61 85.27
  A 1.85 1.82 41.2 0 1 61.91 85.07
  Q 62.20 85.59 62.62 85.76
  A 1.23 1.22 -50.3 0 0 63.73 85.65
  Q 66.50 83.87 69.46 86.28
  Q 69.57 86.37 69.56 86.41
  Q 69.54 86.55 69.56 86.66
  A 0.28 0.28 0.0 0 0 69.86 86.90
  Q 71.40 86.77 72.07 87.06
  A 1.39 1.38 -56.4 0 1 72.52 89.29
  Q 70.93 90.94 70.22 92.63
  A 1.27 1.22 89.9 0 1 69.60 93.28
  Q 67.75 94.18 66.22 92.74
  Q 65.24 91.82 64.59 91.71
  A 0.63 0.54 -15.8 0 1 64.33 91.59
  Q 62.58 90.14 62.01 88.89
  A 1.79 1.77 81.4 0 0 60.63 87.86
  L 59.85 87.75
  A 0.60 0.60 0.0 0 0 59.31 88.74
  L 64.12 94.34
  A 1.64 1.62 73.1 0 0 65.15 94.90
  L 67.52 95.23
  A 1.36 1.32 64.4 0 1 68.06 95.43
  C 70.63 97.09 73.82 100.46 77.92 100.90
  A 0.37 0.37 0.0 0 0 78.29 100.37
  Q 77.49 98.63 78.21 97.68
  Q 80.70 94.45 81.17 93.17
  A 1.99 1.82 -39.2 0 0 81.29 92.36
  L 81.06 88.59
  A 1.27 1.27 0.0 0 1 83.43 87.88
  L 85.89 92.15
  A 0.60 0.58 -30.3 0 1 85.67 92.95
  L 83.80 94.03
  A 2.63 2.61 88.8 0 0 82.80 95.08
  L 80.57 99.40
  A 0.42 0.42 0.0 0 0 80.87 100.01
  Q 85.25 100.82 88.31 98.34
  A 0.52 0.52 0.0 0 0 87.75 97.48
  Q 86.26 98.23 84.45 98.74
  A 1.16 0.99 -4.6 0 1 82.97 97.67
  C 83.37 95.54 86.53 94.42 88.18 95.77
  Q 89.81 97.12 90.52 97.29
  Q 92.24 97.70 93.38 97.85
  A 0.32 0.32 0.0 0 0 93.59 97.26
  C 91.49 95.93 90.57 94.25 88.79 93.00
  C 86.74 91.56 86.14 89.63 84.16 87.91
  Q 82.51 86.47 82.10 84.11
  Q 81.98 83.42 81.43 83.39
  Q 81.13 83.37 80.55 83.94
  A 0.78 0.78 0.0 0 0 80.48 84.98
  Q 82.14 87.10 79.28 88.43
  A 0.86 0.85 -26.4 0 0 78.88 89.60
  Q 80.51 92.70 77.83 94.29
  A 0.33 0.33 0.0 0 1 77.34 94.01
  C 77.30 92.05 77.09 89.65 77.57 88.96
  Q 77.87 88.55 78.07 88.55
  A 0.30 0.30 0.0 0 0 78.38 88.29
  L 79.04 83.51
  A 0.94 0.94 0.0 0 0 77.78 82.50
  L 72.65 84.39
  A 0.49 0.48 -6.2 0 1 72.00 83.87
  L 72.17 82.68
  A 1.75 1.75 0.0 0 1 73.90 81.17
  L 79.83 81.17
  A 1.08 1.08 0.0 0 0 80.89 80.31
  C 81.82 75.64 82.56 72.53 86.44 68.94
  A 4.34 4.33 -7.1 0 0 87.30 67.84
  C 89.53 63.77 94.03 62.18 98.51 60.56
  A 0.72 0.72 0.0 0 0 98.93 59.59
  L 98.92 59.57
  A 0.89 0.89 0.0 0 0 97.93 59.04
  Q 93.63 59.89 90.17 60.81
  A 1.65 1.46 -9.5 0 0 88.93 62.34
  Q 88.99 63.93 86.80 64.48
  A 0.72 0.72 0.0 0 1 85.99 64.13
  Q 84.94 62.25 82.32 62.66
  A 2.04 1.97 51.6 0 1 81.25 62.52
  Q 79.74 61.87 78.83 61.88
  A 2.28 2.10 32.0 0 0 78.14 62.01
  Q 75.37 63.08 73.97 62.59
  Q 72.15 61.95 70.75 63.17
  Q 69.89 63.93 67.74 63.90
  A 1.12 1.11 79.3 0 1 66.72 63.20
  Q 65.83 60.98 62.19 58.65
  C 60.79 57.75 59.39 55.64 58.19 55.45
  Q 56.58 55.20 54.97 54.20
  C 52.95 52.94 49.43 51.48 48.04 49.69
  Q 46.24 47.37 43.50 46.08
  A 4.83 4.57 75.2 0 1 42.58 45.51
  L 29.35 35.07
  A 1.49 1.20 69.7 0 0 29.10 34.92
  Q 26.07 33.30 24.15 31.23
  A 2.86 2.82 76.4 0 0 22.88 30.44
  Q 22.81 30.42 14.50 24.81
  A 1.81 1.81 0.0 0 0 11.68 26.46
  L 11.68 26.56
  A 9.19 9.19 0.0 0 0 14.55 32.48
  Q 17.15 34.93 19.38 36.03
  A 1.39 1.10 34.7 0 1 19.98 38.01
  C 18.89 39.01 16.32 37.77 14.74 37.08
  A 1.25 1.25 0.0 0 0 13.02 37.95
  C 12.51 40.22 12.36 43.51 13.14 46.33
  Q 14.14 49.94 13.33 54.49
  C 12.50 59.13 12.16 62.55 15.02 65.50
  A 1.28 1.27 41.1 0 0 16.96 65.37
  L 18.33 63.51
  A 0.98 0.98 0.0 0 1 20.09 63.97
  Q 20.35 66.02 21.51 66.42
  A 1.81 1.49 -63.3 0 1 22.08 68.94
  C 18.25 75.19 12.60 80.32 12.01 88.02
  Q 11.88 89.65 11.99 89.84
  A 0.79 0.78 -46.2 0 0 13.36 89.81
  Q 16.22 84.39 19.20 79.80
  Q 19.62 79.15 22.50 77.18
  A 0.30 0.30 0.0 0 1 22.96 77.47
  Z
  M 143.48 33.32
  L 142.47 33.53
  A 0.78 0.77 -35.8 0 1 141.96 33.45
  L 138.84 31.82
  A 1.03 1.02 -56.4 0 0 137.58 32.08
  L 137.29 32.43
  A 1.44 1.37 4.9 0 1 136.68 32.92
  L 130.85 35.27
  A 2.25 2.24 -89.6 0 0 129.64 36.47
  L 129.46 36.88
  A 0.57 0.57 0.0 0 0 130.15 37.65
  C 133.42 36.69 135.24 36.85 138.81 37.01
  A 1.16 1.15 -71.3 0 0 139.79 36.52
  Q 141.07 34.67 142.91 35.12
  A 0.70 0.70 0.0 0 0 143.77 34.44
  L 143.77 33.56
  A 0.24 0.24 0.0 0 0 143.48 33.32
  Z
  M 48.55 32.03
  A 0.29 0.29 0.0 0 0 48.05 32.16
  Q 47.69 33.82 48.45 35.86
  A 0.75 0.74 -10.1 0 0 49.15 36.34
  L 50.89 36.34
  A 1.99 1.99 0.0 0 1 52.15 36.79
  L 62.01 44.76
  A 0.50 0.50 0.0 0 1 62.10 45.45
  L 61.86 45.77
  A 0.71 0.71 0.0 0 1 60.87 45.92
  L 49.64 37.65
  A 3.63 3.61 63.1 0 0 47.49 36.94
  L 46.70 36.94
  A 0.57 0.57 0.0 0 0 46.33 37.95
  Q 49.71 40.80 55.87 45.73
  C 58.08 47.50 60.74 48.16 62.43 50.04
  A 1.00 0.99 61.9 0 1 61.94 51.67
  L 61.24 51.84
  A 3.65 3.64 -35.0 0 1 58.33 51.33
  L 51.12 46.45
  A 5.86 5.78 -6.7 0 1 50.44 45.92
  L 48.16 43.91
  A 3.15 3.15 0.0 0 0 47.05 43.28
  Q 44.36 42.43 42.53 40.32
  C 41.43 39.07 39.80 38.98 38.84 37.97
  C 36.84 35.84 34.00 34.65 31.39 32.64
  A 0.50 0.50 0.0 0 0 30.69 32.74
  L 30.52 32.98
  A 0.37 0.37 0.0 0 0 30.60 33.50
  L 44.80 43.96
  A 0.20 0.04 10.9 0 0 44.85 43.98
  L 46.67 44.78
  A 4.06 4.02 74.4 0 1 47.46 45.23
  L 58.68 53.41
  A 1.06 1.04 52.8 0 0 59.62 53.55
  Q 67.71 50.77 76.59 48.29
  Q 77.48 48.04 77.57 47.64
  Q 77.70 47.04 77.62 46.78
  A 0.86 0.86 0.0 0 1 78.23 45.68
  L 89.31 42.90
  A 0.66 0.66 0.0 0 0 89.50 41.70
  Q 88.36 41.01 87.61 41.29
  A 1.24 1.15 -76.2 0 0 87.20 41.56
  L 86.59 42.20
  A 1.41 1.40 -61.3 0 1 85.28 42.59
  Q 82.94 42.09 80.82 43.31
  Q 80.59 43.44 78.51 43.85
  Q 71.85 45.16 71.32 45.35
  Q 70.82 45.54 69.26 45.71
  C 67.33 45.92 67.00 48.13 66.40 49.16
  A 1.25 1.25 0.0 0 1 64.29 49.25
  Q 62.67 46.88 64.84 45.53
  A 0.83 0.83 0.0 0 0 64.74 44.07
  C 60.31 42.06 56.49 38.49 50.28 33.71
  Q 49.37 33.01 48.55 32.03
  Z
  M 113.37 50.87
  L 113.23 50.52
  A 0.04 0.04 0.0 0 0 113.15 50.53
  Q 112.63 53.68 112.59 55.36
  Q 112.57 56.45 114.84 56.93
  A 0.79 0.79 0.0 0 1 115.35 58.12
  Q 113.57 60.96 116.30 62.42
  Q 117.74 63.19 117.93 63.24
  A 3.42 3.41 -69.2 0 0 121.65 61.56
  L 123.71 57.84
  A 0.59 0.59 0.0 0 1 124.73 57.82
  Q 125.50 59.10 127.04 58.88
  A 1.06 0.99 23.7 0 0 127.41 58.75
  Q 128.77 57.95 126.85 55.99
  A 1.45 1.44 -58.1 0 1 126.51 54.52
  L 128.98 47.13
  A 2.13 2.13 0.0 0 1 130.97 45.68
  Q 133.97 45.64 137.47 45.34
  A 1.25 1.18 4.3 0 1 138.81 46.81
  Q 138.70 47.25 138.12 48.08
  A 0.85 0.84 12.7 0 1 137.58 48.42
  L 132.99 49.21
  A 2.19 2.19 0.0 0 0 131.19 51.07
  L 130.79 53.96
  A 2.40 2.40 0.0 0 0 131.75 56.23
  L 133.01 57.15
  A 0.73 0.73 0.0 0 0 134.17 56.64
  Q 134.42 54.10 132.97 52.60
  A 0.99 0.98 -32.3 0 1 133.34 50.99
  L 134.00 50.75
  A 2.11 2.11 0.0 0 1 136.56 51.67
  L 138.75 55.47
  A 1.04 0.99 -60.8 0 1 138.88 55.97
  Q 138.88 58.08 136.44 59.32
  A 0.46 0.45 -24.6 0 0 136.23 59.88
  L 138.40 65.78
  A 0.28 0.28 0.0 0 0 138.95 65.69
  Q 139.06 59.55 139.33 58.20
  Q 139.72 56.27 139.44 53.16
  Q 139.22 50.76 140.46 47.79
  A 2.24 2.16 -8.7 0 1 141.14 46.90
  Q 143.47 45.09 144.08 41.80
  A 0.59 0.59 0.0 0 0 143.22 41.18
  Q 142.04 41.82 140.74 41.19
  Q 136.32 39.08 131.85 40.66
  Q 130.47 41.14 130.18 42.52
  Q 129.79 44.35 127.68 45.11
  A 1.67 1.66 -82.5 0 0 126.89 45.72
  Q 126.15 46.82 126.13 48.42
  A 1.70 1.65 61.0 0 1 125.90 49.27
  Q 124.59 51.55 124.57 51.41
  A 0.05 0.05 0.0 0 0 124.48 51.39
  L 120.70 60.36
  A 1.59 1.59 0.0 0 1 118.62 61.20
  L 117.98 60.93
  A 1.88 1.88 0.0 0 1 116.99 58.44
  Q 119.23 53.38 122.70 50.65
  A 1.01 1.00 71.1 0 0 123.08 49.86
  L 123.08 45.94
  A 0.76 0.75 -86.1 0 0 122.43 45.19
  L 120.98 44.99
  A 0.60 0.60 0.0 0 0 120.31 45.69
  Q 121.00 49.38 118.88 51.27
  A 1.86 1.77 -13.0 0 0 118.36 52.06
  L 117.49 54.65
  A 1.16 1.16 0.0 0 1 116.02 55.38
  L 115.63 55.25
  A 0.79 0.79 0.0 0 1 115.15 54.19
  L 116.81 50.27
  A 0.58 0.56 -44.3 0 0 116.82 49.87
  Q 116.44 48.71 116.57 47.82
  A 1.20 1.17 79.7 0 1 117.13 46.99
  Q 118.79 45.99 118.96 44.23
  A 1.85 1.82 71.2 0 1 119.50 43.11
  Q 121.15 41.52 121.62 40.34
  A 0.58 0.58 0.0 0 0 120.79 39.62
  L 118.43 40.99
  A 0.91 0.87 34.6 0 1 117.80 41.09
  Q 116.77 40.88 115.14 41.54
  A 0.55 0.55 0.0 0 0 115.37 42.59
  Q 116.55 42.53 117.27 43.05
  A 0.67 0.66 31.9 0 1 117.47 43.90
  C 116.55 45.63 115.97 46.89 114.11 47.58
  A 1.15 1.15 0.0 0 0 113.36 48.67
  L 113.39 50.87
  A 0.01 0.01 0.0 0 1 113.37 50.87
  Z
  M 100.94 58.09
  Q 101.09 58.93 102.33 58.99
  Q 109.28 59.30 109.83 59.30
  A 0.90 0.90 0.0 0 0 110.69 58.16
  L 110.53 57.65
  A 1.41 1.41 0.0 0 0 109.18 56.64
  L 105.24 56.64
  A 0.99 0.99 0.0 0 1 104.41 55.10
  Q 105.63 53.24 110.12 52.70
  A 0.89 0.89 0.0 0 0 110.85 51.52
  L 110.82 51.42
  A 1.21 1.21 0.0 0 0 109.33 50.66
  Q 104.91 51.98 102.09 54.29
  A 2.28 2.26 29.2 0 1 100.30 54.79
  C 97.35 54.36 87.88 54.73 84.83 57.38
  C 84.17 57.96 83.77 59.01 84.38 59.67
  A 2.07 1.76 37.8 0 0 87.58 59.53
  Q 87.82 59.03 89.02 58.55
  Q 92.86 57.03 95.74 56.60
  Q 97.25 56.37 100.57 57.64
  A 0.60 0.59 -84.7 0 1 100.94 58.09
  Z
  M 9.92 87.39
  A 0.34 0.33 -30.3 0 0 10.51 87.54
  Q 10.87 87.10 10.91 86.63
  Q 11.41 80.47 12.54 75.28
  Q 13.06 72.93 14.46 71.94
  A 0.87 0.87 0.0 0 0 14.42 70.49
  L 10.72 68.14
  A 0.85 0.85 0.0 0 0 9.42 68.76
  Q 8.35 78.31 9.92 87.39
  Z
  M 119.86 85.46
  C 119.14 85.17 118.54 84.51 118.75 83.61
  Q 119.23 81.52 120.27 80.90
  A 0.58 0.58 0.0 0 0 120.50 80.15
  Q 119.11 77.19 120.49 73.74
  A 0.31 0.31 0.0 0 0 120.20 73.31
  L 119.90 73.31
  A 0.29 0.28 10.2 0 0 119.63 73.49
  L 117.31 79.57
  A 3.35 3.34 75.1 0 1 116.83 80.40
  Q 112.57 85.80 110.86 87.15
  Q 107.48 89.82 100.64 92.32
  C 98.04 93.28 95.92 93.04 93.90 92.73
  A 0.39 0.39 0.0 0 0 93.65 93.45
  L 100.60 97.35
  A 4.40 3.99 -18.7 0 0 101.45 97.72
  L 102.30 98.00
  A 0.75 0.75 0.0 0 0 102.94 96.66
  Q 101.83 95.94 101.37 95.17
  A 0.69 0.68 47.9 0 1 101.40 94.42
  C 103.93 90.95 108.73 90.64 112.29 91.85
  A 0.46 0.45 9.3 0 0 112.89 91.42
  Q 112.88 88.89 115.60 85.88
  A 0.82 0.82 0.0 0 1 117.00 86.23
  C 117.45 88.05 115.79 89.54 116.12 90.96
  Q 116.26 91.59 117.47 91.96
  A 0.75 0.74 -78.6 0 0 118.43 91.32
  Q 118.71 88.56 120.11 86.22
  A 0.53 0.52 -63.4 0 0 119.86 85.46
  Z
  M 106.55 101.96
  L 107.52 100.77
  A 0.29 0.29 0.0 0 0 107.48 100.36
  L 107.32 100.23
  A 3.74 1.05 39.0 0 0 103.75 98.69
  L 103.74 98.70
  A 3.74 1.05 39.0 0 0 105.98 101.87
  L 106.15 102.01
  A 0.29 0.29 0.0 0 0 106.55 101.96
  Z
  M 51.44 122.10
  Q 52.60 121.99 53.05 122.48
  A 0.44 0.44 0.0 0 0 53.81 122.24
  Q 54.67 115.66 50.58 110.19
  A 0.26 0.25 26.7 0 0 50.12 110.34
  L 50.12 111.19
  A 2.43 2.37 33.6 0 0 50.33 112.17
  C 51.41 114.49 52.37 118.35 50.67 120.78
  A 0.84 0.84 0.0 0 0 51.44 122.10
  Z
  M 73.06 114.82
  Q 73.77 115.65 75.88 115.64
  A 1.82 1.74 27.1 0 0 76.81 115.36
  Q 80.57 112.90 84.76 112.70
  A 0.92 0.92 0.0 0 0 85.55 112.16
  Q 86.17 110.74 85.51 110.26
  A 0.87 0.87 0.0 0 0 84.49 110.26
  L 82.83 111.47
  A 3.39 3.32 -65.7 0 1 81.26 112.08
  Q 80.02 112.23 78.86 112.87
  A 4.12 4.08 30.2 0 1 76.86 113.39
  L 73.72 113.39
  A 0.87 0.87 0.0 0 0 73.06 114.82
  Z
  M 90.34 118.11
  C 92.02 118.24 92.88 117.40 93.57 115.80
  Q 94.49 113.66 96.39 111.88
  A 0.79 0.79 0.0 0 0 95.78 110.51
  Q 92.97 110.76 90.90 111.88
  A 1.29 1.29 0.0 0 0 90.23 112.84
  L 89.62 117.21
  A 0.80 0.79 -83.8 0 0 90.34 118.11
  Z
  M 67.9306 120.8988
  A 2.11 0.98 -156.8 0 0 69.4839 122.6308
  A 2.11 0.98 -156.8 0 0 71.8094 122.5612
  A 2.11 0.98 -156.8 0 0 70.2561 120.8292
  A 2.11 0.98 -156.8 0 0 67.9306 120.8988
  Z
  M 94.92 130.78
  L 94.60 129.88
  A 0.18 0.18 0.0 0 0 94.37 129.77
  L 94.22 129.82
  A 12.12 0.66 -19.3 0 0 83.00 134.45
  A 12.12 0.66 -19.3 0 0 94.66 131.07
  L 94.81 131.01
  A 0.18 0.18 0.0 0 0 94.92 130.78
  Z"
/>
<ellipse fill="#1a3851" cx="0.00" cy="0.00" transform="translate(135.69,6.48) rotate(-9.5)" rx="2.31" ry="1.08"/>
<path fill="#1a3851" d="
  M 234.24 7.08
  L 240.59 11.59
  A 1.12 1.07 -21.8 0 0 241.06 11.78
  L 244.82 12.23
  A 5.09 5.01 54.9 0 1 245.59 12.37
  Q 262.91 16.89 268.68 18.86
  Q 275.81 21.29 279.80 22.17
  C 287.18 23.80 294.17 27.25 301.72 28.67
  Q 306.35 29.54 309.39 30.60
  Q 309.99 30.81 310.31 31.12
  A 0.52 0.52 0.0 0 1 310.07 32.00
  Q 305.89 32.96 301.43 32.39
  Q 299.70 32.17 299.66 32.18
  A 0.90 0.89 49.4 0 0 299.53 33.92
  Q 299.73 33.98 300.52 33.98
  Q 300.50 34.03 300.47 34.08
  Q 294.10 34.68 287.93 36.47
  Q 273.45 40.68 258.98 44.62
  L 249.84 46.09
  Q 242.52 46.17 233.53 48.16
  Q 226.63 49.68 224.07 50.40
  C 217.71 52.20 213.24 52.92 207.74 51.19
  Q 202.02 49.38 197.99 48.27
  Q 182.25 43.90 163.71 38.07
  A 0.39 0.39 0.0 0 1 163.76 37.32
  Q 163.77 37.32 164.08 37.31
  A 0.65 0.65 0.0 0 0 164.58 36.25
  Q 161.26 32.17 156.69 29.30
  Q 154.92 28.19 152.61 25.08
  C 155.85 23.66 159.12 22.02 162.29 20.90
  Q 182.56 13.76 202.59 9.14
  Q 207.63 7.98 211.73 7.70
  C 213.21 7.60 213.94 8.27 215.11 8.38
  A 2.33 2.28 -52.9 0 0 216.12 8.23
  Q 225.67 4.54 234.24 7.08
  Z
  M 232.28 12.56
  Q 233.23 10.96 234.70 12.31
  Q 235.55 13.10 236.75 14.69
  Q 237.93 16.26 239.28 14.60
  A 1.60 1.60 0.0 0 0 238.90 12.23
  L 235.88 10.32
  A 2.26 2.17 61.7 0 0 234.80 9.97
  L 229.12 9.68
  A 1.90 1.68 -48.6 0 0 228.56 9.75
  L 227.90 9.95
  A 0.67 0.67 0.0 0 0 227.63 11.10
  Q 229.30 12.55 231.36 12.97
  A 0.86 0.85 20.9 0 0 232.28 12.56
  Z
  M 225.7299 13.6244
  A 2.58 1.23 -157.3 0 0 227.6353 15.7547
  A 2.58 1.23 -157.3 0 0 230.4901 15.6156
  A 2.58 1.23 -157.3 0 0 228.5847 13.4853
  A 2.58 1.23 -157.3 0 0 225.7299 13.6244
  Z
  M 226.1513 25.1755
  A 3.21 0.86 -161.2 0 0 228.9129 27.0241
  A 3.21 0.86 -161.2 0 0 232.2287 27.2445
  A 3.21 0.86 -161.2 0 0 229.4671 25.3959
  A 3.21 0.86 -161.2 0 0 226.1513 25.1755
  Z
  M 284.7852 31.9509
  A 2.77 1.29 -176.5 0 0 287.4712 33.4076
  A 2.77 1.29 -176.5 0 0 290.3148 32.2891
  A 2.77 1.29 -176.5 0 0 287.6288 30.8324
  A 2.77 1.29 -176.5 0 0 284.7852 31.9509
  Z"
/>
<path fill="#aa631a" d="
  M 57.01 6.12
  L 55.59 7.83
  A 1.73 1.69 10.8 0 1 54.79 8.36
  Q 49.94 9.89 45.13 9.94
  L 57.01 6.12
  Z"
/>
<path fill="#fbfdfd" d="
  M 242.39 7.86
  Q 242.60 9.38 245.54 8.71
  L 247.26 8.95
  Q 271.66 15.64 295.80 23.14
  Q 303.73 25.61 311.80 26.51
  A 0.91 0.91 0.0 0 1 312.43 27.95
  L 311.38 29.37
  A 0.09 0.09 0.0 0 0 311.39 29.48
  L 311.61 29.75
  A 0.28 0.27 48.8 0 0 311.99 29.78
  L 313.16 28.78
  A 2.15 2.15 0.0 0 1 315.28 28.37
  L 318.15 29.37
  A 1.78 1.72 -31.9 0 0 318.52 29.45
  L 370.75 33.60
  L 381.98 34.14
  L 392.23 36.37
  Q 388.35 35.97 384.49 35.85
  Q 378.67 35.66 372.83 35.60
  Q 367.66 35.55 361.20 34.92
  Q 349.88 33.83 338.47 34.09
  Q 330.23 33.30 322.00 32.82
  Q 316.89 32.51 312.07 33.93
  L 305.76 34.11
  L 300.52 33.98
  Q 299.73 33.98 299.53 33.92
  A 0.90 0.89 49.4 0 1 299.66 32.18
  Q 299.70 32.17 301.43 32.39
  Q 305.89 32.96 310.07 32.00
  A 0.52 0.52 0.0 0 0 310.31 31.12
  Q 309.99 30.81 309.39 30.60
  Q 306.35 29.54 301.72 28.67
  C 294.17 27.25 287.18 23.80 279.80 22.17
  Q 275.81 21.29 268.68 18.86
  Q 262.91 16.89 245.59 12.37
  A 5.09 5.01 54.9 0 0 244.82 12.23
  L 241.06 11.78
  A 1.12 1.07 -21.8 0 1 240.59 11.59
  L 234.24 7.08
  L 242.39 7.86
  Z"
/>
<path fill="#fbe09f" d="
  M 245.54 8.71
  Q 242.60 9.38 242.39 7.86
  L 245.54 8.71
  Z"
/>
<path fill="#fbe09f" d="
  M 264.13 10.42
  Q 265.04 12.44 267.28 12.14
  A 1.45 1.43 -32.7 0 1 268.19 12.33
  C 270.78 13.82 273.73 14.45 276.86 15.36
  C 280.28 16.37 283.31 17.96 286.99 18.59
  Q 288.71 18.89 291.84 19.80
  C 295.35 20.83 303.33 23.27 309.36 24.31
  Q 312.99 24.94 316.99 27.08
  A 3.48 3.09 -21.9 0 0 317.94 27.42
  C 324.91 28.72 332.13 28.31 338.68 29.29
  Q 349.25 30.88 361.76 31.36
  C 364.89 31.48 368.61 32.00 371.64 32.72
  A 0.41 0.41 0.0 0 1 371.70 33.49
  Q 371.33 33.64 370.75 33.60
  L 318.52 29.45
  A 1.78 1.72 -31.9 0 1 318.15 29.37
  L 315.28 28.37
  A 2.15 2.15 0.0 0 0 313.16 28.78
  L 311.99 29.78
  A 0.28 0.27 48.8 0 1 311.61 29.75
  L 311.39 29.48
  A 0.09 0.09 0.0 0 1 311.38 29.37
  L 312.43 27.95
  A 0.91 0.91 0.0 0 0 311.80 26.51
  Q 303.73 25.61 295.80 23.14
  Q 271.66 15.64 247.26 8.95
  L 250.80 9.03
  A 8.21 7.94 51.7 0 1 252.58 9.27
  Q 258.31 10.71 264.13 10.42
  Z"
/>
<path fill="#aa631a" d="
  M 114.19 23.20
  Q 113.73 24.34 112.07 26.31
  Q 109.80 28.99 106.38 26.77
  A 0.77 0.77 0.0 0 0 105.35 26.96
  C 100.53 33.40 93.15 27.19 89.25 23.25
  A 2.45 2.43 61.3 0 0 86.99 22.58
  C 82.61 23.56 79.00 24.17 75.37 25.08
  Q 68.69 26.75 63.91 21.15
  Q 62.91 19.98 57.63 17.24
  A 1.56 1.26 -4.1 0 1 57.46 17.13
  L 53.98 14.46
  A 1.52 1.51 -55.2 0 1 53.62 12.44
  L 55.68 9.18
  A 0.66 0.66 0.0 0 1 56.47 8.92
  Q 58.27 9.59 59.01 10.29
  A 0.52 0.51 -18.5 0 1 58.57 11.17
  Q 56.13 10.76 55.66 12.63
  A 0.75 0.74 -66.6 0 0 55.98 13.45
  L 70.61 22.71
  A 6.08 6.01 61.9 0 0 73.61 23.64
  Q 73.72 23.65 75.79 22.81
  Q 78.83 21.59 88.86 20.00
  A 1.55 1.53 -26.1 0 1 90.20 20.45
  L 94.78 25.11
  A 0.43 0.39 74.3 0 0 94.94 25.21
  Q 95.38 25.36 97.41 26.79
  Q 101.35 29.55 103.79 25.65
  A 1.31 1.31 0.0 0 1 105.60 25.24
  L 107.47 26.43
  A 2.65 2.65 0.0 0 0 110.75 26.06
  L 113.84 22.97
  A 0.21 0.21 0.0 0 1 114.19 23.20
  Z"
/>
<path fill="#fbe09f" d="
  M 231.36 12.97
  Q 229.30 12.55 227.63 11.10
  A 0.67 0.67 0.0 0 1 227.90 9.95
  L 228.56 9.75
  A 1.90 1.68 -48.6 0 1 229.12 9.68
  L 234.80 9.97
  A 2.26 2.17 61.7 0 1 235.88 10.32
  L 238.90 12.23
  A 1.60 1.60 0.0 0 1 239.28 14.60
  Q 237.93 16.26 236.75 14.69
  Q 235.55 13.10 234.70 12.31
  Q 233.23 10.96 232.28 12.56
  A 0.86 0.85 20.9 0 1 231.36 12.97
  Z"
/>
<path fill="#aa631a" d="
  M 103.20 10.81
  A 0.23 0.23 0.0 0 1 103.51 10.52
  L 110.31 13.86
  A 1.55 1.45 -6.5 0 1 110.73 14.17
  L 114.78 18.42
  A 0.47 0.47 0.0 0 1 114.42 19.21
  C 111.96 19.08 111.48 15.62 108.74 14.82
  C 106.25 14.09 104.07 12.93 103.20 10.81
  Z"
/>
<path fill="#1a3851" d="
  M 331.02 14.93
  L 333.52 15.94
  L 332.64 15.97
  A 1.00 0.99 50.3 0 0 332.46 17.94
  Q 338.82 19.34 345.54 21.27
  C 349.02 22.26 351.72 23.88 355.10 24.13
  A 2.86 2.74 55.7 0 1 355.67 24.25
  L 364.38 27.16
  Q 364.45 27.19 364.52 27.22
  Q 369.84 29.79 374.45 30.71
  Q 376.00 31.01 376.98 31.99
  A 1.86 1.80 -10.0 0 0 377.56 32.38
  L 381.98 34.14
  L 370.75 33.60
  Q 371.33 33.64 371.70 33.49
  A 0.41 0.41 0.0 0 0 371.64 32.72
  C 368.61 32.00 364.89 31.48 361.76 31.36
  Q 349.25 30.88 338.68 29.29
  C 332.13 28.31 324.91 28.72 317.94 27.42
  A 3.48 3.09 -21.9 0 1 316.99 27.08
  Q 312.99 24.94 309.36 24.31
  C 303.33 23.27 295.35 20.83 291.84 19.80
  Q 288.71 18.89 286.99 18.59
  C 283.31 17.96 280.28 16.37 276.86 15.36
  C 273.73 14.45 270.78 13.82 268.19 12.33
  A 1.45 1.43 -32.7 0 0 267.28 12.14
  Q 265.04 12.44 264.13 10.42
  C 267.88 10.34 271.08 11.16 274.45 11.70
  A 9.13 9.13 0.0 0 0 276.10 11.81
  Q 282.76 11.66 287.91 12.42
  C 295.95 13.61 301.58 13.04 309.42 14.04
  C 316.63 14.95 323.79 14.74 331.02 14.93
  Z"
/>
<path fill="#aa631a" d="
  M 132.29 11.75
  L 130.78 11.83
  Q 131.16 11.34 132.29 11.75
  Z"
/>
<path fill="#aa631a" d="
  M 126.20 12.49
  Q 127.04 13.86 126.65 15.02
  Q 126.05 16.81 126.04 16.89
  Q 125.78 18.92 125.24 20.99
  Q 125.07 21.67 125.73 22.45
  C 126.67 23.54 126.27 24.86 125.80 25.92
  A 1.41 1.40 15.9 0 0 126.90 27.88
  L 131.99 28.58
  A 1.07 1.07 0.0 0 1 132.44 30.52
  L 127.35 33.94
  A 1.75 1.73 82.8 0 0 126.69 34.80
  L 125.99 36.86
  A 0.66 0.66 0.0 0 1 125.17 37.28
  Q 123.35 36.71 121.67 37.66
  A 1.74 1.71 33.9 0 1 120.55 37.87
  Q 120.39 37.84 114.05 39.18
  C 109.89 40.07 106.30 42.40 102.22 43.10
  A 8.84 8.49 -60.2 0 0 100.24 43.68
  Q 92.55 46.94 83.53 48.73
  A 0.69 0.69 0.0 0 1 82.73 48.24
  L 82.72 48.21
  A 0.68 0.67 73.3 0 1 83.16 47.39
  Q 96.55 43.03 105.38 40.36
  C 107.18 39.82 110.84 36.88 110.42 34.78
  A 0.91 0.89 -29.4 0 1 110.65 33.99
  L 115.77 28.67
  A 2.46 2.28 79.0 0 0 116.26 27.88
  Q 118.60 21.81 122.61 17.25
  Q 123.27 16.49 122.86 14.97
  L 126.20 12.49
  Z
  M 120.2131 29.8275
  A 4.02 1.54 -36.7 0 0 116.0697 30.9953
  A 4.02 1.54 -36.7 0 0 113.7669 34.6325
  A 4.02 1.54 -36.7 0 0 117.9103 33.4647
  A 4.02 1.54 -36.7 0 0 120.2131 29.8275
  Z"
/>
<ellipse fill="#fbe09f" cx="0.00" cy="0.00" transform="translate(228.11,14.62) rotate(-157.3)" rx="2.58" ry="1.23"/>
<path fill="#fbfdfd" d="
  M 347.52 16.65
  L 409.96 36.31
  Q 410.07 37.08 409.72 37.12
  L 399.51 37.00
  Q 397.37 35.84 395.17 35.13
  Q 377.96 29.49 375.79 29.01
  C 371.11 27.98 367.18 26.18 362.10 24.70
  Q 347.75 20.53 333.52 15.94
  L 331.02 14.93
  L 347.52 16.65
  Z"
/>
<path fill="#fbe09f" d="
  M 333.52 15.94
  Q 347.75 20.53 362.10 24.70
  C 367.18 26.18 371.11 27.98 375.79 29.01
  Q 377.96 29.49 395.17 35.13
  Q 397.37 35.84 399.51 37.00
  L 392.23 36.37
  L 381.98 34.14
  L 377.56 32.38
  A 1.86 1.80 -10.0 0 1 376.98 31.99
  Q 376.00 31.01 374.45 30.71
  Q 369.84 29.79 364.52 27.22
  Q 364.45 27.19 364.38 27.16
  L 355.67 24.25
  A 2.86 2.74 55.7 0 0 355.10 24.13
  C 351.72 23.88 349.02 22.26 345.54 21.27
  Q 338.82 19.34 332.46 17.94
  A 1.00 0.99 50.3 0 1 332.64 15.97
  L 333.52 15.94
  Z"
/>
<path fill="#1a3851" d="
  M 454.72 40.35
  Q 453.85 39.92 453.03 40.35
  L 409.72 37.12
  Q 410.07 37.08 409.96 36.31
  L 411.18 36.11
  A 0.75 0.75 0.0 0 0 411.80 35.48
  Q 411.91 34.70 411.05 34.57
  Q 406.44 33.85 401.67 32.00
  C 396.61 30.04 390.81 29.32 385.74 26.47
  A 3.70 3.63 -21.6 0 0 384.96 26.14
  L 354.49 17.04
  Q 355.85 16.11 357.51 16.23
  C 363.41 16.66 369.83 17.69 375.18 17.72
  C 379.97 17.75 384.73 17.59 389.34 18.29
  Q 397.59 19.55 405.24 19.40
  A 11.83 11.69 49.8 0 1 407.70 19.62
  C 412.55 20.62 417.41 20.60 422.32 21.42
  Q 437.95 24.01 452.98 28.54
  Q 498.52 42.26 503.12 43.71
  A 0.22 0.21 -74.9 0 1 503.26 43.96
  L 503.26 43.97
  A 0.22 0.22 0.0 0 1 503.02 44.14
  L 454.72 40.35
  Z"
/>
<path fill="#fbe09f" d="
  M 354.49 17.04
  L 384.96 26.14
  A 3.70 3.63 -21.6 0 1 385.74 26.47
  C 390.81 29.32 396.61 30.04 401.67 32.00
  Q 406.44 33.85 411.05 34.57
  Q 411.91 34.70 411.80 35.48
  A 0.75 0.75 0.0 0 1 411.18 36.11
  L 409.96 36.31
  L 347.52 16.65
  L 354.49 17.04
  Z"
/>
<path fill="#aa631a" d="
  M 22.50 77.18
  Q 19.62 79.15 19.20 79.80
  Q 16.22 84.39 13.36 89.81
  A 0.79 0.78 -46.2 0 1 11.99 89.84
  Q 11.88 89.65 12.01 88.02
  C 12.60 80.32 18.25 75.19 22.08 68.94
  A 1.81 1.49 -63.3 0 0 21.51 66.42
  Q 20.35 66.02 20.09 63.97
  A 0.98 0.98 0.0 0 0 18.33 63.51
  L 16.96 65.37
  A 1.28 1.27 41.1 0 1 15.02 65.50
  C 12.16 62.55 12.50 59.13 13.33 54.49
  Q 14.14 49.94 13.14 46.33
  C 12.36 43.51 12.51 40.22 13.02 37.95
  A 1.25 1.25 0.0 0 1 14.74 37.08
  C 16.32 37.77 18.89 39.01 19.98 38.01
  A 1.39 1.10 34.7 0 0 19.38 36.03
  Q 17.15 34.93 14.55 32.48
  A 9.19 9.19 0.0 0 1 11.68 26.56
  L 11.68 26.46
  A 1.81 1.81 0.0 0 1 14.50 24.81
  Q 22.81 30.42 22.88 30.44
  A 2.86 2.82 76.4 0 1 24.15 31.23
  Q 26.07 33.30 29.10 34.92
  A 1.49 1.20 69.7 0 1 29.35 35.07
  L 42.58 45.51
  A 4.83 4.57 75.2 0 0 43.50 46.08
  Q 46.24 47.37 48.04 49.69
  C 49.43 51.48 52.95 52.94 54.97 54.20
  Q 56.58 55.20 58.19 55.45
  C 59.39 55.64 60.79 57.75 62.19 58.65
  Q 65.83 60.98 66.72 63.20
  A 1.12 1.11 79.3 0 0 67.74 63.90
  Q 69.89 63.93 70.75 63.17
  Q 72.15 61.95 73.97 62.59
  Q 75.37 63.08 78.14 62.01
  A 2.28 2.10 32.0 0 1 78.83 61.88
  Q 79.74 61.87 81.25 62.52
  A 2.04 1.97 51.6 0 0 82.32 62.66
  Q 84.94 62.25 85.99 64.13
  A 0.72 0.72 0.0 0 0 86.80 64.48
  Q 88.99 63.93 88.93 62.34
  A 1.65 1.46 -9.5 0 1 90.17 60.81
  Q 93.63 59.89 97.93 59.04
  A 0.89 0.89 0.0 0 1 98.92 59.57
  L 98.93 59.59
  A 0.72 0.72 0.0 0 1 98.51 60.56
  C 94.03 62.18 89.53 63.77 87.30 67.84
  A 4.34 4.33 -7.1 0 1 86.44 68.94
  C 82.56 72.53 81.82 75.64 80.89 80.31
  A 1.08 1.08 0.0 0 1 79.83 81.17
  L 73.90 81.17
  A 1.75 1.75 0.0 0 0 72.17 82.68
  L 72.00 83.87
  A 0.49 0.48 -6.2 0 0 72.65 84.39
  L 77.78 82.50
  A 0.94 0.94 0.0 0 1 79.04 83.51
  L 78.38 88.29
  A 0.30 0.30 0.0 0 1 78.07 88.55
  Q 77.87 88.55 77.57 88.96
  C 77.09 89.65 77.30 92.05 77.34 94.01
  A 0.33 0.33 0.0 0 0 77.83 94.29
  Q 80.51 92.70 78.88 89.60
  A 0.86 0.85 -26.4 0 1 79.28 88.43
  Q 82.14 87.10 80.48 84.98
  A 0.78 0.78 0.0 0 1 80.55 83.94
  Q 81.13 83.37 81.43 83.39
  Q 81.98 83.42 82.10 84.11
  Q 82.51 86.47 84.16 87.91
  C 86.14 89.63 86.74 91.56 88.79 93.00
  C 90.57 94.25 91.49 95.93 93.59 97.26
  A 0.32 0.32 0.0 0 1 93.38 97.85
  Q 92.24 97.70 90.52 97.29
  Q 89.81 97.12 88.18 95.77
  C 86.53 94.42 83.37 95.54 82.97 97.67
  A 1.16 0.99 -4.6 0 0 84.45 98.74
  Q 86.26 98.23 87.75 97.48
  A 0.52 0.52 0.0 0 1 88.31 98.34
  Q 85.25 100.82 80.87 100.01
  A 0.42 0.42 0.0 0 1 80.57 99.40
  L 82.80 95.08
  A 2.63 2.61 88.8 0 1 83.80 94.03
  L 85.67 92.95
  A 0.60 0.58 -30.3 0 0 85.89 92.15
  L 83.43 87.88
  A 1.27 1.27 0.0 0 0 81.06 88.59
  L 81.29 92.36
  A 1.99 1.82 -39.2 0 1 81.17 93.17
  Q 80.70 94.45 78.21 97.68
  Q 77.49 98.63 78.29 100.37
  A 0.37 0.37 0.0 0 1 77.92 100.90
  C 73.82 100.46 70.63 97.09 68.06 95.43
  A 1.36 1.32 64.4 0 0 67.52 95.23
  L 65.15 94.90
  A 1.64 1.62 73.1 0 1 64.12 94.34
  L 59.31 88.74
  A 0.60 0.60 0.0 0 1 59.85 87.75
  L 60.63 87.86
  A 1.79 1.77 81.4 0 1 62.01 88.89
  Q 62.58 90.14 64.33 91.59
  A 0.63 0.54 -15.8 0 0 64.59 91.71
  Q 65.24 91.82 66.22 92.74
  Q 67.75 94.18 69.60 93.28
  A 1.27 1.22 89.9 0 0 70.22 92.63
  Q 70.93 90.94 72.52 89.29
  A 1.39 1.38 -56.4 0 0 72.07 87.06
  Q 71.40 86.77 69.86 86.90
  A 0.28 0.28 0.0 0 1 69.56 86.66
  Q 69.54 86.55 69.56 86.41
  Q 69.57 86.37 69.46 86.28
  Q 66.50 83.87 63.73 85.65
  A 1.23 1.22 -50.3 0 1 62.62 85.76
  Q 62.20 85.59 61.91 85.07
  A 1.85 1.82 41.2 0 0 58.61 85.27
  C 57.17 88.87 58.76 92.99 57.76 96.05
  Q 57.49 96.85 56.12 99.28
  A 1.86 1.86 0.0 0 0 57.57 102.04
  Q 59.90 102.26 62.63 100.83
  A 0.67 0.65 -21.5 0 0 62.97 100.08
  C 62.77 99.31 61.90 98.90 61.87 97.66
  Q 61.83 96.02 63.21 95.60
  A 1.04 1.04 0.0 0 1 64.28 95.90
  L 66.47 98.36
  A 0.58 0.58 0.0 0 0 66.56 98.45
  L 74.15 104.21
  A 0.48 0.47 -39.0 0 1 74.06 105.02
  Q 72.08 105.95 72.40 107.85
  A 2.52 2.19 -7.9 0 0 75.12 109.62
  Q 80.14 109.06 85.23 105.22
  A 0.46 0.46 0.0 0 0 84.97 104.39
  Q 81.30 104.24 77.53 105.88
  A 0.76 0.76 0.0 0 1 76.78 105.79
  L 75.95 105.19
  A 0.31 0.31 0.0 0 1 76.08 104.64
  L 86.23 102.90
  A 0.12 0.06 16.8 0 0 86.28 102.89
  C 88.91 101.51 92.56 101.66 95.47 99.82
  A 1.97 1.97 0.0 0 1 96.32 99.52
  Q 99.64 99.23 101.40 101.25
  A 1.02 1.02 0.0 0 1 101.55 102.37
  Q 100.41 104.69 98.30 103.91
  Q 97.29 103.54 96.70 103.68
  Q 95.39 103.99 95.00 104.47
  A 0.46 0.43 13.2 0 1 94.74 104.62
  L 92.65 104.98
  A 1.04 1.03 -67.8 0 0 92.18 105.18
  Q 90.65 106.34 87.93 107.03
  A 5.27 4.70 21.7 0 0 86.94 107.39
  C 81.44 109.99 78.30 111.82 72.79 111.63
  A 1.11 1.03 -20.5 0 1 72.11 111.35
  Q 71.77 111.03 71.70 110.38
  A 1.02 1.00 -78.9 0 0 71.20 109.62
  Q 69.93 108.88 69.81 108.41
  A 2.51 2.04 -6.1 0 0 67.49 106.90
  Q 65.10 106.89 63.49 106.74
  A 1.44 1.43 85.6 0 1 62.25 105.67
  Q 61.95 104.44 61.84 104.13
  Q 61.56 103.29 60.71 103.29
  Q 59.11 103.30 58.31 105.03
  A 0.54 0.53 -59.2 0 1 57.51 105.24
  Q 57.20 105.01 56.92 104.26
  C 56.43 102.95 55.48 102.43 54.14 103.36
  A 0.80 0.79 -50.5 0 1 53.36 103.44
  L 50.14 102.08
  A 1.54 1.53 -85.4 0 1 49.23 101.01
  C 48.68 98.70 49.64 96.55 49.58 94.23
  Q 49.46 89.52 49.20 86.48
  A 1.38 1.37 -9.4 0 0 47.49 85.26
  L 47.45 85.27
  A 1.86 1.85 77.0 0 0 46.07 87.49
  L 46.62 89.85
  A 3.67 3.39 -52.2 0 1 46.70 90.77
  L 46.30 100.14
  A 2.17 2.13 33.2 0 0 46.54 101.24
  C 46.99 102.14 48.03 102.64 48.23 103.49
  Q 48.61 105.13 48.74 107.17
  A 1.16 1.15 -22.7 0 1 48.36 108.09
  C 46.56 109.73 47.56 113.48 47.89 116.54
  A 0.54 0.54 0.0 0 1 46.83 116.76
  Q 45.97 113.89 44.03 111.54
  A 0.84 0.83 61.1 0 1 44.41 110.21
  Q 46.12 109.66 46.33 107.90
  Q 46.72 104.66 44.71 102.24
  A 1.67 1.64 -66.8 0 1 44.33 101.27
  Q 44.21 99.09 44.82 96.65
  A 0.54 0.47 -40.9 0 0 44.84 96.51
  L 44.84 90.74
  A 1.32 1.29 27.2 0 0 44.58 89.96
  Q 43.51 88.50 43.62 86.41
  A 1.98 1.85 -31.2 0 1 43.85 85.59
  Q 44.77 83.86 44.93 82.23
  A 1.23 1.22 -66.1 0 0 44.53 81.18
  C 42.39 79.24 40.28 80.01 38.18 78.03
  Q 35.51 75.51 33.02 74.05
  A 4.70 4.40 78.9 0 1 32.27 73.51
  C 29.49 71.03 27.08 68.79 23.90 70.57
  A 1.08 1.07 -13.3 0 0 23.35 71.45
  Q 23.22 74.25 23.36 77.26
  Q 23.42 78.57 23.25 78.90
  A 0.25 0.24 62.9 0 1 22.79 78.75
  L 22.96 77.47
  A 0.30 0.30 0.0 0 0 22.50 77.18
  Z
  M 14.44 28.53
  L 18.19 33.69
  A 0.14 0.14 0.0 0 0 18.39 33.72
  L 18.44 33.68
  A 3.18 1.94 53.9 0 0 18.13 29.97
  L 17.96 29.73
  A 3.18 1.94 53.9 0 0 14.52 28.30
  L 14.47 28.34
  A 0.14 0.14 0.0 0 0 14.44 28.53
  Z
  M 45.99 65.68
  Q 45.82 65.98 45.45 66.04
  A 1.48 0.37 -47.4 0 0 44.63 66.58
  Q 44.16 67.00 43.66 68.12
  A 0.38 0.38 0.0 0 0 44.03 68.65
  Q 45.30 68.57 46.29 67.71
  A 1.69 1.66 -68.9 0 1 47.11 67.34
  Q 49.72 66.97 51.98 65.32
  A 1.09 1.06 33.4 0 1 52.87 65.15
  Q 54.67 65.62 55.33 63.37
  Q 56.12 60.73 56.46 58.42
  A 0.91 0.89 18.4 0 0 55.99 57.50
  C 49.69 54.23 45.91 53.14 43.53 48.21
  A 3.36 3.32 8.8 0 0 42.81 47.24
  Q 39.90 44.55 37.09 43.18
  A 4.00 3.82 77.9 0 1 36.19 42.57
  Q 30.15 37.07 21.99 31.74
  Q 21.74 31.58 21.55 31.61
  A 0.58 0.57 64.7 0 0 21.22 32.55
  Q 23.72 35.46 26.92 37.53
  A 5.66 5.47 82.8 0 1 27.74 38.19
  C 29.62 40.05 30.84 41.38 32.85 42.72
  Q 34.09 43.55 40.90 48.09
  C 41.61 48.57 42.37 48.52 42.95 48.86
  A 0.52 0.51 33.4 0 1 43.11 49.60
  C 41.54 51.78 43.76 53.73 45.61 54.96
  A 2.50 2.33 -17.3 0 0 46.17 55.23
  Q 50.06 56.48 52.40 58.09
  A 2.26 2.26 0.0 0 1 52.95 61.27
  Q 50.83 64.21 46.29 65.44
  A 0.48 0.46 -82.1 0 0 45.99 65.68
  Z
  M 43.32 58.96
  Q 43.90 59.59 44.74 59.57
  A 0.73 0.68 -62.0 0 1 45.09 60.87
  Q 44.38 61.38 43.93 61.93
  A 0.84 0.84 0.0 0 0 44.86 63.25
  Q 48.09 62.09 50.52 60.01
  A 0.95 0.95 0.0 0 0 50.19 58.39
  Q 48.37 57.81 46.57 57.88
  A 1.44 1.39 59.0 0 1 45.75 57.66
  L 41.46 54.95
  A 1.39 1.37 -84.1 0 1 40.91 54.26
  L 39.88 51.46
  A 0.85 0.85 0.0 0 0 39.33 50.95
  Q 38.15 50.57 38.40 49.29
  A 0.78 0.78 0.0 0 0 37.92 48.41
  C 36.28 47.76 34.47 45.94 32.11 45.39
  A 0.72 0.72 0.0 0 0 31.25 45.90
  Q 31.19 46.09 31.17 46.12
  A 0.98 0.98 0.0 0 1 30.31 46.63
  L 26.95 46.63
  A 1.00 1.00 0.0 0 0 26.41 48.47
  L 32.88 52.56
  A 1.18 1.16 -81.7 0 1 33.37 53.23
  Q 33.85 54.98 33.45 58.58
  A 1.77 1.73 -54.1 0 0 33.58 59.46
  Q 34.30 61.17 35.80 61.68
  A 1.70 1.68 -5.9 0 1 36.72 62.42
  Q 38.33 65.12 39.86 65.99
  A 1.01 1.01 0.0 0 0 41.37 65.11
  L 41.37 62.40
  A 1.60 1.50 -62.4 0 0 41.14 61.58
  Q 40.50 60.51 40.04 58.90
  A 0.45 0.45 0.0 0 1 40.53 58.34
  L 42.67 58.62
  A 1.14 1.09 -15.9 0 1 43.32 58.96
  Z
  M 24.8743 50.7477
  A 4.51 1.34 -135.3 0 0 27.1375 54.8725
  A 4.51 1.34 -135.3 0 0 31.2857 57.0923
  A 4.51 1.34 -135.3 0 0 29.0225 52.9675
  A 4.51 1.34 -135.3 0 0 24.8743 50.7477
  Z
  M 52.90 74.97
  Q 54.07 73.55 55.55 73.41
  C 57.72 73.21 59.39 71.72 61.05 71.09
  A 2.04 1.96 -51.3 0 1 61.97 70.97
  Q 62.71 71.04 63.15 71.11
  Q 63.76 71.21 63.87 69.71
  Q 64.03 67.33 64.41 65.30
  C 65.03 61.97 62.12 60.28 59.63 59.05
  A 0.79 0.78 -72.7 0 0 58.51 59.64
  C 58.05 62.67 59.37 64.10 56.98 66.79
  A 0.75 0.75 0.0 0 0 57.10 67.89
  L 57.73 68.35
  A 0.76 0.76 0.0 0 1 57.43 69.70
  Q 56.19 69.96 53.30 69.75
  A 1.00 0.99 2.1 0 0 52.23 70.74
  L 52.23 74.73
  A 0.38 0.38 0.0 0 0 52.90 74.97
  Z
  M 71.39 74.01
  Q 70.60 74.88 70.63 75.95
  A 1.22 1.18 75.4 0 0 72.37 77.01
  Q 74.21 76.02 73.31 74.05
  A 0.89 0.88 -39.6 0 1 73.40 73.14
  Q 76.06 69.55 75.52 65.85
  A 1.97 1.96 85.6 0 0 73.57 64.17
  L 73.37 64.17
  A 1.48 1.47 83.8 0 0 71.93 65.96
  Q 72.53 68.67 71.42 71.09
  Q 70.95 72.11 71.50 73.19
  A 0.75 0.73 -38.1 0 1 71.39 74.01
  Z
  M 70.41 65.12
  C 68.53 64.58 65.71 66.60 67.51 68.76
  Q 68.04 69.41 67.90 69.93
  C 67.59 71.10 66.52 71.55 66.34 73.04
  Q 66.07 75.38 66.12 76.78
  A 1.44 1.43 80.4 0 0 67.96 78.10
  L 67.99 78.09
  A 2.29 2.28 80.4 0 0 69.61 75.80
  Q 69.38 71.02 70.99 66.22
  A 0.86 0.86 0.0 0 0 70.41 65.12
  Z
  M 78.55 72.63
  L 85.91 66.16
  A 0.12 0.12 0.0 0 0 85.92 65.99
  L 85.89 65.95
  A 4.74 2.53 -41.3 0 0 80.66 67.18
  L 80.24 67.55
  A 4.74 2.53 -41.3 0 0 78.35 72.58
  L 78.38 72.62
  A 0.12 0.12 0.0 0 0 78.55 72.63
  Z
  M 53.99 83.28
  L 51.87 83.15
  A 0.26 0.26 0.0 0 0 51.60 83.40
  L 51.50 84.96
  A 8.30 1.23 -86.5 0 0 52.22 93.32
  L 52.40 93.33
  A 8.30 1.23 -86.5 0 0 54.14 85.12
  L 54.23 83.56
  A 0.26 0.26 0.0 0 0 53.99 83.28
  Z
  M 64.8729 102.9326
  A 1.80 1.39 -159.6 0 0 66.0755 104.8628
  A 1.80 1.39 -159.6 0 0 68.2471 104.1874
  A 1.80 1.39 -159.6 0 0 67.0445 102.2572
  A 1.80 1.39 -159.6 0 0 64.8729 102.9326
  Z"
/>
<path fill="#1a3851" d="
  M 151.77 24.97
  Q 151.32 25.04 150.99 24.82
  Q 151.40 24.82 151.77 24.97
  Z"
/>
<ellipse fill="#fbe09f" cx="0.00" cy="0.00" transform="translate(229.19,26.21) rotate(-161.2)" rx="3.21" ry="0.86"/>
<path fill="#fbe09f" d="
  M 14.44 28.53
  A 0.14 0.14 0.0 0 1 14.47 28.34
  L 14.52 28.30
  A 3.18 1.94 53.9 0 1 17.96 29.73
  L 18.13 29.97
  A 3.18 1.94 53.9 0 1 18.44 33.68
  L 18.39 33.72
  A 0.14 0.14 0.0 0 1 18.19 33.69
  L 14.44 28.53
  Z"
/>
<ellipse fill="#fbe09f" cx="0.00" cy="0.00" transform="translate(116.99,32.23) rotate(-36.7)" rx="4.02" ry="1.54"/>
<ellipse fill="#fbe09f" cx="0.00" cy="0.00" transform="translate(287.55,32.12) rotate(-176.5)" rx="2.77" ry="1.29"/>
<path fill="#fbe09f" d="
  M 46.29 65.44
  Q 50.83 64.21 52.95 61.27
  A 2.26 2.26 0.0 0 0 52.40 58.09
  Q 50.06 56.48 46.17 55.23
  A 2.50 2.33 -17.3 0 1 45.61 54.96
  C 43.76 53.73 41.54 51.78 43.11 49.60
  A 0.52 0.51 33.4 0 0 42.95 48.86
  C 42.37 48.52 41.61 48.57 40.90 48.09
  Q 34.09 43.55 32.85 42.72
  C 30.84 41.38 29.62 40.05 27.74 38.19
  A 5.66 5.47 82.8 0 0 26.92 37.53
  Q 23.72 35.46 21.22 32.55
  A 0.58 0.57 64.7 0 1 21.55 31.61
  Q 21.74 31.58 21.99 31.74
  Q 30.15 37.07 36.19 42.57
  A 4.00 3.82 77.9 0 0 37.09 43.18
  Q 39.90 44.55 42.81 47.24
  A 3.36 3.32 8.8 0 1 43.53 48.21
  C 45.91 53.14 49.69 54.23 55.99 57.50
  A 0.91 0.89 18.4 0 1 56.46 58.42
  Q 56.12 60.73 55.33 63.37
  Q 54.67 65.62 52.87 65.15
  A 1.09 1.06 33.4 0 0 51.98 65.32
  Q 49.72 66.97 47.11 67.34
  A 1.69 1.66 -68.9 0 0 46.29 67.71
  Q 45.30 68.57 44.03 68.65
  A 0.38 0.38 0.0 0 1 43.66 68.12
  Q 44.16 67.00 44.63 66.58
  A 1.48 0.37 -47.4 0 1 45.45 66.04
  Q 45.82 65.98 45.99 65.68
  A 0.48 0.46 -82.1 0 1 46.29 65.44
  Z"
/>
<path fill="#aa631a" d="
  M 143.77 33.56
  L 143.77 34.44
  A 0.70 0.70 0.0 0 1 142.91 35.12
  Q 141.07 34.67 139.79 36.52
  A 1.16 1.15 -71.3 0 1 138.81 37.01
  C 135.24 36.85 133.42 36.69 130.15 37.65
  A 0.57 0.57 0.0 0 1 129.46 36.88
  L 129.64 36.47
  A 2.25 2.24 -89.6 0 1 130.85 35.27
  L 136.68 32.92
  A 1.44 1.37 4.9 0 0 137.29 32.43
  L 137.58 32.08
  A 1.03 1.02 -56.4 0 1 138.84 31.82
  L 141.96 33.45
  A 0.78 0.77 -35.8 0 0 142.47 33.53
  L 143.48 33.32
  A 0.24 0.24 0.0 0 1 143.77 33.56
  Z"
/>
<path fill="#aa631a" d="
  M 48.55 32.03
  Q 49.37 33.01 50.28 33.71
  C 56.49 38.49 60.31 42.06 64.74 44.07
  A 0.83 0.83 0.0 0 1 64.84 45.53
  Q 62.67 46.88 64.29 49.25
  A 1.25 1.25 0.0 0 0 66.40 49.16
  C 67.00 48.13 67.33 45.92 69.26 45.71
  Q 70.82 45.54 71.32 45.35
  Q 71.85 45.16 78.51 43.85
  Q 80.59 43.44 80.82 43.31
  Q 82.94 42.09 85.28 42.59
  A 1.41 1.40 -61.3 0 0 86.59 42.20
  L 87.20 41.56
  A 1.24 1.15 -76.2 0 1 87.61 41.29
  Q 88.36 41.01 89.50 41.70
  A 0.66 0.66 0.0 0 1 89.31 42.90
  L 78.23 45.68
  A 0.86 0.86 0.0 0 0 77.62 46.78
  Q 77.70 47.04 77.57 47.64
  Q 77.48 48.04 76.59 48.29
  Q 67.71 50.77 59.62 53.55
  A 1.06 1.04 52.8 0 1 58.68 53.41
  L 47.46 45.23
  A 4.06 4.02 74.4 0 0 46.67 44.78
  L 44.85 43.98
  A 0.20 0.04 10.9 0 1 44.80 43.96
  L 30.60 33.50
  A 0.37 0.37 0.0 0 1 30.52 32.98
  L 30.69 32.74
  A 0.50 0.50 0.0 0 1 31.39 32.64
  C 34.00 34.65 36.84 35.84 38.84 37.97
  C 39.80 38.98 41.43 39.07 42.53 40.32
  Q 44.36 42.43 47.05 43.28
  A 3.15 3.15 0.0 0 1 48.16 43.91
  L 50.44 45.92
  A 5.86 5.78 -6.7 0 0 51.12 46.45
  L 58.33 51.33
  A 3.65 3.64 -35.0 0 0 61.24 51.84
  L 61.94 51.67
  A 1.00 0.99 61.9 0 0 62.43 50.04
  C 60.74 48.16 58.08 47.50 55.87 45.73
  Q 49.71 40.80 46.33 37.95
  A 0.57 0.57 0.0 0 1 46.70 36.94
  L 47.49 36.94
  A 3.63 3.61 63.1 0 1 49.64 37.65
  L 60.87 45.92
  A 0.71 0.71 0.0 0 0 61.86 45.77
  L 62.10 45.45
  A 0.50 0.50 0.0 0 0 62.01 44.76
  L 52.15 36.79
  A 1.99 1.99 0.0 0 0 50.89 36.34
  L 49.15 36.34
  A 0.75 0.74 -10.1 0 1 48.45 35.86
  Q 47.69 33.82 48.05 32.16
  A 0.29 0.29 0.0 0 1 48.55 32.03
  Z"
/>
<path fill="#fbe09f" d="
  M 338.47 34.09
  L 312.07 33.93
  Q 316.89 32.51 322.00 32.82
  Q 330.23 33.30 338.47 34.09
  Z"
/>
<path fill="#fbe09f" d="
  M 305.76 34.11
  L 300.47 34.08
  Q 300.50 34.03 300.52 33.98
  L 305.76 34.11
  Z"
/>
<path fill="#aa631a" d="
  M 113.39 50.87
  L 113.36 48.67
  A 1.15 1.15 0.0 0 1 114.11 47.58
  C 115.97 46.89 116.55 45.63 117.47 43.90
  A 0.67 0.66 31.9 0 0 117.27 43.05
  Q 116.55 42.53 115.37 42.59
  A 0.55 0.55 0.0 0 1 115.14 41.54
  Q 116.77 40.88 117.80 41.09
  A 0.91 0.87 34.6 0 0 118.43 40.99
  L 120.79 39.62
  A 0.58 0.58 0.0 0 1 121.62 40.34
  Q 121.15 41.52 119.50 43.11
  A 1.85 1.82 71.2 0 0 118.96 44.23
  Q 118.79 45.99 117.13 46.99
  A 1.20 1.17 79.7 0 0 116.57 47.82
  Q 116.44 48.71 116.82 49.87
  A 0.58 0.56 -44.3 0 1 116.81 50.27
  L 115.15 54.19
  A 0.79 0.79 0.0 0 0 115.63 55.25
  L 116.02 55.38
  A 1.16 1.16 0.0 0 0 117.49 54.65
  L 118.36 52.06
  A 1.86 1.77 -13.0 0 1 118.88 51.27
  Q 121.00 49.38 120.31 45.69
  A 0.60 0.60 0.0 0 1 120.98 44.99
  L 122.43 45.19
  A 0.76 0.75 -86.1 0 1 123.08 45.94
  L 123.08 49.86
  A 1.01 1.00 71.1 0 1 122.70 50.65
  Q 119.23 53.38 116.99 58.44
  A 1.88 1.88 0.0 0 0 117.98 60.93
  L 118.62 61.20
  A 1.59 1.59 0.0 0 0 120.70 60.36
  L 124.48 51.39
  A 0.05 0.05 0.0 0 1 124.57 51.41
  Q 124.59 51.55 125.90 49.27
  A 1.70 1.65 61.0 0 0 126.13 48.42
  Q 126.15 46.82 126.89 45.72
  A 1.67 1.66 -82.5 0 1 127.68 45.11
  Q 129.79 44.35 130.18 42.52
  Q 130.47 41.14 131.85 40.66
  Q 136.32 39.08 140.74 41.19
  Q 142.04 41.82 143.22 41.18
  A 0.59 0.59 0.0 0 1 144.08 41.80
  Q 143.47 45.09 141.14 46.90
  A 2.24 2.16 -8.7 0 0 140.46 47.79
  Q 139.22 50.76 139.44 53.16
  Q 139.72 56.27 139.33 58.20
  Q 139.06 59.55 138.95 65.69
  A 0.28 0.28 0.0 0 1 138.40 65.78
  L 136.23 59.88
  A 0.46 0.45 -24.6 0 1 136.44 59.32
  Q 138.88 58.08 138.88 55.97
  A 1.04 0.99 -60.8 0 0 138.75 55.47
  L 136.56 51.67
  A 2.11 2.11 0.0 0 0 134.00 50.75
  L 133.34 50.99
  A 0.99 0.98 -32.3 0 0 132.97 52.60
  Q 134.42 54.10 134.17 56.64
  A 0.73 0.73 0.0 0 1 133.01 57.15
  L 131.75 56.23
  A 2.40 2.40 0.0 0 1 130.79 53.96
  L 131.19 51.07
  A 2.19 2.19 0.0 0 1 132.99 49.21
  L 137.58 48.42
  A 0.85 0.84 12.7 0 0 138.12 48.08
  Q 138.70 47.25 138.81 46.81
  A 1.25 1.18 4.3 0 0 137.47 45.34
  Q 133.97 45.64 130.97 45.68
  A 2.13 2.13 0.0 0 0 128.98 47.13
  L 126.51 54.52
  A 1.45 1.44 -58.1 0 0 126.85 55.99
  Q 128.77 57.95 127.41 58.75
  A 1.06 0.99 23.7 0 1 127.04 58.88
  Q 125.50 59.10 124.73 57.82
  A 0.59 0.59 0.0 0 0 123.71 57.84
  L 121.65 61.56
  A 3.42 3.41 -69.2 0 1 117.93 63.24
  Q 117.74 63.19 116.30 62.42
  Q 113.57 60.96 115.35 58.12
  A 0.79 0.79 0.0 0 0 114.84 56.93
  Q 112.57 56.45 112.59 55.36
  Q 112.63 53.68 113.15 50.53
  A 0.04 0.04 0.0 0 1 113.23 50.52
  L 113.37 50.87
  A 0.01 0.01 0.0 0 0 113.39 50.87
  Z"
/>
<path fill="#fbfdfd" d="
  M 249.84 46.09
  L 258.98 44.62
  Q 232.13 52.38 223.50 55.00
  Q 219.54 56.20 213.39 58.70
  Q 205.61 56.06 197.85 53.82
  Q 185.32 50.21 183.52 49.55
  Q 181.74 48.91 169.09 45.59
  Q 165.46 44.64 161.01 43.13
  A 1.57 1.55 40.5 0 1 160.77 40.27
  Q 161.67 39.81 162.77 40.18
  Q 174.50 44.09 208.32 53.64
  Q 214.42 55.36 220.11 53.99
  Q 234.61 50.50 249.84 46.09
  Z"
/>
<path fill="#fbe09f" d="
  M 454.72 40.35
  L 453.03 40.35
  Q 453.85 39.92 454.72 40.35
  Z"
/>
<path fill="#1a3851" d="
  M 512.00 45.18
  L 512.00 45.63
  Q 511.04 46.38 509.78 45.88
  A 0.54 0.53 43.5 0 1 509.75 44.89
  Q 511.39 44.16 512.00 45.18
  Z"
/>
<path fill="#fbe09f" d="
  M 42.67 58.62
  L 40.53 58.34
  A 0.45 0.45 0.0 0 0 40.04 58.90
  Q 40.50 60.51 41.14 61.58
  A 1.60 1.50 -62.4 0 1 41.37 62.40
  L 41.37 65.11
  A 1.01 1.01 0.0 0 1 39.86 65.99
  Q 38.33 65.12 36.72 62.42
  A 1.70 1.68 -5.9 0 0 35.80 61.68
  Q 34.30 61.17 33.58 59.46
  A 1.77 1.73 -54.1 0 1 33.45 58.58
  Q 33.85 54.98 33.37 53.23
  A 1.18 1.16 -81.7 0 0 32.88 52.56
  L 26.41 48.47
  A 1.00 1.00 0.0 0 1 26.95 46.63
  L 30.31 46.63
  A 0.98 0.98 0.0 0 0 31.17 46.12
  Q 31.19 46.09 31.25 45.90
  A 0.72 0.72 0.0 0 1 32.11 45.39
  C 34.47 45.94 36.28 47.76 37.92 48.41
  A 0.78 0.78 0.0 0 1 38.40 49.29
  Q 38.15 50.57 39.33 50.95
  A 0.85 0.85 0.0 0 1 39.88 51.46
  L 40.91 54.26
  A 1.39 1.37 -84.1 0 0 41.46 54.95
  L 45.75 57.66
  A 1.44 1.39 59.0 0 0 46.57 57.88
  Q 48.37 57.81 50.19 58.39
  A 0.95 0.95 0.0 0 1 50.52 60.01
  Q 48.09 62.09 44.86 63.25
  A 0.84 0.84 0.0 0 1 43.93 61.93
  Q 44.38 61.38 45.09 60.87
  A 0.73 0.68 -62.0 0 0 44.74 59.57
  Q 43.90 59.59 43.32 58.96
  A 1.14 1.09 -15.9 0 0 42.67 58.62
  Z"
/>
<ellipse fill="#fbe09f" cx="0.00" cy="0.00" transform="translate(28.08,53.92) rotate(-135.3)" rx="4.51" ry="1.34"/>
<path fill="#aa631a" d="
  M 100.57 57.64
  Q 97.25 56.37 95.74 56.60
  Q 92.86 57.03 89.02 58.55
  Q 87.82 59.03 87.58 59.53
  A 2.07 1.76 37.8 0 1 84.38 59.67
  C 83.77 59.01 84.17 57.96 84.83 57.38
  C 87.88 54.73 97.35 54.36 100.30 54.79
  A 2.28 2.26 29.2 0 0 102.09 54.29
  Q 104.91 51.98 109.33 50.66
  A 1.21 1.21 0.0 0 1 110.82 51.42
  L 110.85 51.52
  A 0.89 0.89 0.0 0 1 110.12 52.70
  Q 105.63 53.24 104.41 55.10
  A 0.99 0.99 0.0 0 0 105.24 56.64
  L 109.18 56.64
  A 1.41 1.41 0.0 0 1 110.53 57.65
  L 110.69 58.16
  A 0.90 0.90 0.0 0 1 109.83 59.30
  Q 109.28 59.30 102.33 58.99
  Q 101.09 58.93 100.94 58.09
  A 0.60 0.59 -84.7 0 0 100.57 57.64
  Z"
/>
<path fill="#fbe09f" d="
  M 52.90 74.97
  A 0.38 0.38 0.0 0 1 52.23 74.73
  L 52.23 70.74
  A 1.00 0.99 2.1 0 1 53.30 69.75
  Q 56.19 69.96 57.43 69.70
  A 0.76 0.76 0.0 0 0 57.73 68.35
  L 57.10 67.89
  A 0.75 0.75 0.0 0 1 56.98 66.79
  C 59.37 64.10 58.05 62.67 58.51 59.64
  A 0.79 0.78 -72.7 0 1 59.63 59.05
  C 62.12 60.28 65.03 61.97 64.41 65.30
  Q 64.03 67.33 63.87 69.71
  Q 63.76 71.21 63.15 71.11
  Q 62.71 71.04 61.97 70.97
  A 2.04 1.96 -51.3 0 0 61.05 71.09
  C 59.39 71.72 57.72 73.21 55.55 73.41
  Q 54.07 73.55 52.90 74.97
  Z"
/>
<path fill="#fbe09f" d="
  M 71.50 73.19
  Q 70.95 72.11 71.42 71.09
  Q 72.53 68.67 71.93 65.96
  A 1.48 1.47 83.8 0 1 73.37 64.17
  L 73.57 64.17
  A 1.97 1.96 85.6 0 1 75.52 65.85
  Q 76.06 69.55 73.40 73.14
  A 0.89 0.88 -39.6 0 0 73.31 74.05
  Q 74.21 76.02 72.37 77.01
  A 1.22 1.18 75.4 0 1 70.63 75.95
  Q 70.60 74.88 71.39 74.01
  A 0.75 0.73 -38.1 0 0 71.50 73.19
  Z"
/>
<path fill="#fbe09f" d="
  M 70.41 65.12
  A 0.86 0.86 0.0 0 1 70.99 66.22
  Q 69.38 71.02 69.61 75.80
  A 2.29 2.28 80.4 0 1 67.99 78.09
  L 67.96 78.10
  A 1.44 1.43 80.4 0 1 66.12 76.78
  Q 66.07 75.38 66.34 73.04
  C 66.52 71.55 67.59 71.10 67.90 69.93
  Q 68.04 69.41 67.51 68.76
  C 65.71 66.60 68.53 64.58 70.41 65.12
  Z"
/>
<path fill="#fbe09f" d="
  M 78.55 72.63
  A 0.12 0.12 0.0 0 1 78.38 72.62
  L 78.35 72.58
  A 4.74 2.53 -41.3 0 1 80.24 67.55
  L 80.66 67.18
  A 4.74 2.53 -41.3 0 1 85.89 65.95
  L 85.92 65.99
  A 0.12 0.12 0.0 0 1 85.91 66.16
  L 78.55 72.63
  Z"
/>
<path fill="#aa631a" d="
  M 9.92 87.39
  Q 8.35 78.31 9.42 68.76
  A 0.85 0.85 0.0 0 1 10.72 68.14
  L 14.42 70.49
  A 0.87 0.87 0.0 0 1 14.46 71.94
  Q 13.06 72.93 12.54 75.28
  Q 11.41 80.47 10.91 86.63
  Q 10.87 87.10 10.51 87.54
  A 0.34 0.33 -30.3 0 1 9.92 87.39
  Z"
/>
<path fill="#aa631a" d="
  M 120.11 86.22
  Q 118.71 88.56 118.43 91.32
  A 0.75 0.74 -78.6 0 1 117.47 91.96
  Q 116.26 91.59 116.12 90.96
  C 115.79 89.54 117.45 88.05 117.00 86.23
  A 0.82 0.82 0.0 0 0 115.60 85.88
  Q 112.88 88.89 112.89 91.42
  A 0.46 0.45 9.3 0 1 112.29 91.85
  C 108.73 90.64 103.93 90.95 101.40 94.42
  A 0.69 0.68 47.9 0 0 101.37 95.17
  Q 101.83 95.94 102.94 96.66
  A 0.75 0.75 0.0 0 1 102.30 98.00
  L 101.45 97.72
  A 4.40 3.99 -18.7 0 1 100.60 97.35
  L 93.65 93.45
  A 0.39 0.39 0.0 0 1 93.90 92.73
  C 95.92 93.04 98.04 93.28 100.64 92.32
  Q 107.48 89.82 110.86 87.15
  Q 112.57 85.80 116.83 80.40
  A 3.35 3.34 75.1 0 0 117.31 79.57
  L 119.63 73.49
  A 0.29 0.28 10.2 0 1 119.90 73.31
  L 120.20 73.31
  A 0.31 0.31 0.0 0 1 120.49 73.74
  Q 119.11 77.19 120.50 80.15
  A 0.58 0.58 0.0 0 1 120.27 80.90
  Q 119.23 81.52 118.75 83.61
  C 118.54 84.51 119.14 85.17 119.86 85.46
  A 0.53 0.52 -63.4 0 1 120.11 86.22
  Z"
/>
<path fill="#fbe09f" d="
  M 53.99 83.28
  A 0.26 0.26 0.0 0 1 54.23 83.56
  L 54.14 85.12
  A 8.30 1.23 -86.5 0 1 52.40 93.33
  L 52.22 93.32
  A 8.30 1.23 -86.5 0 1 51.50 84.96
  L 51.60 83.40
  A 0.26 0.26 0.0 0 1 51.87 83.15
  L 53.99 83.28
  Z"
/>
<path fill="#aa631a" d="
  M 106.55 101.96
  A 0.29 0.29 0.0 0 1 106.15 102.01
  L 105.98 101.87
  A 3.74 1.05 39.0 0 1 103.74 98.70
  L 103.75 98.69
  A 3.74 1.05 39.0 0 1 107.32 100.23
  L 107.48 100.36
  A 0.29 0.29 0.0 0 1 107.52 100.77
  L 106.55 101.96
  Z"
/>
<ellipse fill="#fbe09f" cx="0.00" cy="0.00" transform="translate(66.56,103.56) rotate(-159.6)" rx="1.80" ry="1.39"/>
<path fill="#fbfdfd" d="
  M 141.17 107.78
  Q 139.98 109.96 137.48 109.47
  Q 133.72 108.74 130.51 110.23
  A 1.00 1.00 0.0 0 1 129.15 108.97
  L 130.43 105.53
  C 134.00 105.13 138.40 105.15 141.17 107.78
  Z"
/>
<path fill="#aa631a" d="
  M 51.44 122.10
  A 0.84 0.84 0.0 0 1 50.67 120.78
  C 52.37 118.35 51.41 114.49 50.33 112.17
  A 2.43 2.37 33.6 0 1 50.12 111.19
  L 50.12 110.34
  A 0.26 0.25 26.7 0 1 50.58 110.19
  Q 54.67 115.66 53.81 122.24
  A 0.44 0.44 0.0 0 1 53.05 122.48
  Q 52.60 121.99 51.44 122.10
  Z"
/>
<path fill="#aa631a" d="
  M 73.06 114.82
  A 0.87 0.87 0.0 0 1 73.72 113.39
  L 76.86 113.39
  A 4.12 4.08 30.2 0 0 78.86 112.87
  Q 80.02 112.23 81.26 112.08
  A 3.39 3.32 -65.7 0 0 82.83 111.47
  L 84.49 110.26
  A 0.87 0.87 0.0 0 1 85.51 110.26
  Q 86.17 110.74 85.55 112.16
  A 0.92 0.92 0.0 0 1 84.76 112.70
  Q 80.57 112.90 76.81 115.36
  A 1.82 1.74 27.1 0 1 75.88 115.64
  Q 73.77 115.65 73.06 114.82
  Z"
/>
<path fill="#aa631a" d="
  M 90.34 118.11
  A 0.80 0.79 -83.8 0 1 89.62 117.21
  L 90.23 112.84
  A 1.29 1.29 0.0 0 1 90.90 111.88
  Q 92.97 110.76 95.78 110.51
  A 0.79 0.79 0.0 0 1 96.39 111.88
  Q 94.49 113.66 93.57 115.80
  C 92.88 117.40 92.02 118.24 90.34 118.11
  Z"
/>
<path fill="#aa631a" d="
  M 147.09 122.10
  L 147.19 124.02
  Q 139.51 127.00 131.64 127.63
  Q 132.60 127.59 133.54 127.77
  A 0.23 0.23 0.0 0 1 133.65 128.17
  Q 133.34 128.43 133.32 128.45
  A 0.90 0.80 8.1 0 0 134.36 129.67
  Q 137.50 128.86 139.68 130.54
  A 0.86 0.85 48.8 0 0 140.64 130.61
  Q 144.02 128.67 144.58 128.33
  Q 145.57 127.74 146.31 127.93
  A 0.43 0.43 0.0 0 1 146.57 128.57
  Q 144.85 131.36 142.52 132.22
  A 1.12 1.04 35.6 0 1 142.06 132.28
  L 135.13 131.72
  A 1.34 1.33 29.6 0 0 134.29 131.95
  Q 129.36 135.38 124.07 137.30
  A 10.88 10.37 -70.5 0 0 121.76 138.47
  Q 120.66 139.21 114.09 142.82
  Q 112.73 143.57 113.27 144.55
  A 0.58 0.57 65.3 0 0 113.97 144.81
  L 121.35 142.09
  A 0.44 0.44 0.0 0 1 121.78 142.85
  Q 117.29 146.35 116.60 146.83
  Q 113.26 149.18 109.63 148.21
  A 1.65 1.51 41.9 0 1 109.33 145.18
  Q 109.97 144.98 110.50 144.18
  A 0.59 0.58 20.7 0 0 110.09 143.28
  L 103.45 142.36
  A 0.78 0.74 23.2 0 0 102.78 142.61
  L 98.54 147.46
  A 1.06 1.06 0.0 0 0 98.91 149.12
  L 99.09 149.20
  A 2.24 2.24 0.0 0 0 101.74 148.73
  Q 102.88 147.50 103.07 146.89
  A 0.69 0.68 -51.2 0 1 104.32 146.75
  Q 104.90 147.77 104.90 149.24
  A 0.71 0.70 -15.7 0 1 104.54 149.87
  L 100.44 152.24
  A 0.88 0.87 45.3 0 1 99.56 152.23
  Q 99.06 151.94 98.83 152.26
  A 0.80 0.80 0.0 0 1 98.06 152.60
  Q 97.15 152.49 96.83 152.72
  C 95.01 154.03 92.37 152.17 90.35 150.98
  A 1.07 1.07 0.0 0 1 89.89 149.70
  Q 90.89 146.92 88.66 145.37
  A 1.05 1.03 62.7 0 0 88.11 145.19
  L 84.80 145.09
  A 0.27 0.27 0.0 0 1 84.60 145.00
  L 84.60 144.99
  A 0.21 0.21 0.0 0 1 84.75 144.74
  L 88.90 143.84
  A 0.37 0.37 0.0 0 0 88.92 143.12
  Q 88.52 143.00 87.60 143.13
  A 0.20 0.14 54.8 0 1 87.46 143.08
  Q 87.38 143.01 87.34 143.00
  A 0.11 0.07 -25.0 0 1 87.44 142.85
  Q 91.40 142.60 94.18 141.58
  Q 99.35 139.70 99.65 139.66
  A 1.83 1.77 -65.1 0 0 100.51 139.33
  Q 102.58 137.84 105.15 137.61
  A 1.72 1.69 -64.7 0 0 105.99 137.30
  Q 106.80 136.72 107.94 136.89
  C 109.81 137.16 111.22 135.62 113.27 135.88
  A 0.48 0.48 0.0 0 0 113.57 135.82
  L 117.52 133.55
  A 0.53 0.53 0.0 0 0 117.24 132.56
  Q 115.60 132.61 115.39 132.66
  Q 107.08 134.62 97.80 137.06
  Q 94.78 137.85 88.72 138.25
  A 1.59 1.46 31.5 0 0 88.26 138.34
  L 77.11 142.45
  A 1.01 0.75 -67.7 0 0 76.88 142.59
  L 73.14 146.00
  A 2.06 2.05 69.0 0 0 72.47 147.52
  L 72.47 155.83
  A 0.65 0.65 0.0 0 0 73.65 156.22
  Q 74.70 154.79 75.96 152.44
  Q 77.36 149.82 74.91 147.22
  A 0.67 0.66 -8.5 0 1 75.69 146.17
  Q 77.71 147.17 78.57 150.51
  A 1.29 1.26 -32.2 0 1 78.29 151.69
  Q 77.00 153.15 76.87 155.28
  A 0.92 0.92 0.0 0 1 76.43 156.01
  Q 75.27 156.74 75.03 158.00
  A 0.60 0.60 0.0 0 1 74.55 158.49
  Q 73.92 158.61 73.20 158.39
  A 1.31 1.18 11.9 0 0 71.53 159.36
  Q 71.02 164.80 72.00 170.42
  A 2.72 2.69 52.0 0 1 71.82 171.96
  C 70.00 176.20 70.60 178.64 70.63 181.76
  A 2.81 2.79 54.3 0 1 70.47 182.75
  C 70.01 184.05 68.77 184.39 69.03 186.28
  L 58.40 182.54
  Q 61.28 183.04 61.51 181.25
  Q 61.69 179.93 61.60 175.87
  A 1.49 1.47 -66.1 0 0 61.25 174.94
  L 59.81 173.27
  A 2.75 2.74 36.3 0 1 59.37 170.42
  L 62.07 164.02
  A 0.69 0.68 -81.9 0 0 61.36 163.07
  Q 59.67 163.27 58.55 162.85
  A 0.59 0.55 -8.5 0 1 58.33 162.70
  L 55.27 159.13
  A 1.64 1.62 -14.5 0 0 54.37 158.61
  Q 49.95 157.77 47.75 155.14
  A 3.23 3.13 49.3 0 0 43.19 154.73
  Q 42.04 155.75 41.96 157.91
  C 41.80 161.92 42.47 167.63 41.06 172.33
  A 2.43 2.41 46.2 0 0 41.04 173.66
  L 41.47 175.32
  L 34.81 172.63
  Q 34.91 171.54 33.66 170.68
  A 0.03 0.03 0.0 0 1 33.67 170.63
  Q 33.68 170.62 33.70 170.62
  A 0.10 0.01 -14.8 0 1 33.79 170.61
  Q 35.85 172.32 38.37 173.09
  A 1.19 1.18 8.5 0 0 39.91 171.96
  L 39.91 155.49
  A 1.66 1.66 0.0 0 1 40.11 154.70
  L 41.95 151.46
  A 1.29 1.28 33.0 0 0 41.59 149.79
  L 31.85 142.62
  A 0.43 0.32 -8.0 0 0 31.76 142.57
  C 29.37 141.72 28.12 141.11 26.81 139.44
  Q 25.98 138.37 25.66 138.57
  Q 24.96 139.02 24.72 138.91
  A 0.60 0.60 0.0 0 1 24.84 137.80
  L 25.35 137.75
  A 0.52 0.52 0.0 0 0 25.75 136.97
  L 25.47 136.47
  A 0.93 0.92 -25.2 0 0 24.35 136.07
  L 13.66 140.01
  A 0.81 0.81 0.0 0 1 12.98 138.55
  L 20.49 134.22
  A 2.51 2.43 29.1 0 1 21.73 133.89
  L 29.12 133.89
  A 2.55 2.55 0.0 0 0 31.51 130.46
  L 30.56 127.88
  A 0.86 0.84 -27.4 0 1 30.89 126.87
  Q 34.19 124.67 35.43 120.78
  A 0.34 0.34 0.0 0 1 36.09 120.81
  Q 36.44 122.30 37.55 123.94
  A 4.03 3.52 -76.2 0 1 37.99 124.79
  Q 38.99 127.42 40.09 134.94
  Q 40.74 139.37 44.65 142.82
  A 1.10 1.10 0.0 0 1 44.90 143.17
  L 46.71 147.15
  A 0.91 0.91 0.0 0 0 48.42 147.00
  C 49.29 143.53 47.25 140.62 44.78 138.61
  A 2.80 2.80 0.0 0 1 43.75 136.62
  Q 43.64 134.66 43.14 133.50
  A 3.50 3.43 30.4 0 1 42.90 132.61
  Q 42.39 128.28 40.88 124.24
  Q 40.11 122.16 41.51 120.78
  A 0.68 0.68 0.0 0 1 42.65 121.42
  Q 42.26 123.13 43.69 125.52
  A 1.32 1.32 0.0 0 0 45.97 125.48
  Q 46.43 124.66 46.36 123.25
  A 0.63 0.63 0.0 0 1 47.52 122.89
  C 48.60 124.64 49.58 128.52 47.62 130.14
  A 1.69 1.56 49.7 0 0 47.52 132.47
  Q 47.80 132.79 49.67 134.38
  A 0.78 0.78 0.0 0 0 50.96 133.79
  Q 51.02 128.89 52.34 125.19
  A 0.58 0.58 0.0 0 1 53.46 125.38
  L 53.46 135.88
  A 1.18 1.18 0.0 0 0 55.05 136.99
  L 60.24 135.07
  A 1.96 1.95 74.0 0 0 61.48 132.82
  Q 60.78 129.57 62.14 124.31
  Q 62.20 124.10 62.31 124.03
  Q 62.45 123.94 62.56 123.91
  A 0.11 0.11 0.0 0 0 62.65 123.80
  L 62.65 119.34
  A 1.21 1.21 0.0 0 1 63.89 118.13
  Q 66.81 118.22 66.87 116.54
  A 0.77 0.77 0.0 0 1 67.64 115.79
  L 70.12 115.79
  A 1.21 1.19 69.1 0 1 71.02 116.20
  C 73.01 118.43 73.10 119.45 76.53 118.50
  C 77.73 118.17 78.10 117.03 79.02 115.99
  A 1.27 1.27 0.0 0 1 80.55 115.70
  Q 81.82 116.34 84.54 116.36
  A 0.75 0.73 -20.2 0 1 85.10 116.61
  Q 85.43 116.97 85.35 117.28
  A 0.33 0.33 0.0 0 1 84.86 117.47
  Q 82.45 115.96 79.54 117.30
  A 0.93 0.93 0.0 0 0 79.57 119.00
  Q 80.78 119.51 81.50 120.21
  A 0.30 0.30 0.0 0 1 81.31 120.73
  L 75.26 121.10
  A 3.07 2.97 46.0 0 1 74.66 121.08
  Q 73.35 120.88 72.04 119.28
  A 2.77 2.63 53.7 0 0 68.49 118.64
  Q 66.70 119.81 65.44 120.13
  A 1.49 1.49 0.0 0 0 65.50 123.03
  Q 67.53 123.46 68.79 124.71
  A 1.80 1.75 -74.2 0 1 69.27 125.60
  Q 70.04 129.51 67.14 131.05
  A 1.01 1.00 41.4 0 0 67.26 132.88
  Q 69.62 133.77 71.05 131.29
  A 0.81 0.80 18.9 0 1 71.85 130.90
  Q 74.88 131.33 75.79 131.05
  Q 81.34 129.32 84.40 128.62
  A 0.52 0.52 0.0 0 1 84.82 129.54
  Q 79.18 133.59 72.80 133.39
  C 70.39 133.32 70.12 136.83 67.24 134.61
  A 1.10 1.10 0.0 0 0 66.18 134.46
  Q 65.62 134.67 65.23 135.33
  A 1.11 1.10 -63.1 0 0 65.74 136.92
  Q 68.02 137.89 69.49 139.18
  A 1.18 1.18 0.0 0 0 71.05 139.16
  C 72.40 137.94 73.72 136.31 75.34 136.52
  A 0.23 0.22 33.6 0 1 75.43 136.94
  L 72.48 138.65
  A 2.75 2.75 0.0 0 0 71.47 142.40
  L 71.83 143.01
  A 1.10 1.09 48.1 0 0 73.66 143.11
  L 74.88 141.46
  A 1.72 1.69 7.4 0 1 75.66 140.87
  L 86.92 136.80
  A 0.95 0.73 25.8 0 1 87.11 136.76
  C 91.74 135.98 97.42 135.62 102.22 134.14
  Q 103.93 133.61 113.52 131.17
  Q 118.38 129.93 120.40 129.09
  C 125.17 127.11 129.49 125.80 134.67 125.11
  C 138.75 124.57 142.95 123.26 147.09 122.10
  Z
  M 67.24 126.13
  Q 66.41 124.11 64.79 123.98
  A 1.61 1.57 83.9 0 0 63.17 126.04
  Q 63.61 127.56 62.77 128.77
  A 1.46 1.43 -82.9 0 0 64.45 130.97
  Q 66.82 130.05 67.34 127.16
  A 1.85 1.85 0.0 0 0 67.24 126.13
  Z
  M 61.37 145.16
  Q 62.67 142.58 65.47 140.91
  A 0.84 0.84 0.0 0 0 65.54 139.51
  L 62.88 137.55
  A 1.54 1.53 -65.1 0 0 60.48 138.43
  L 59.07 144.32
  A 1.23 1.23 0.0 0 0 61.37 145.16
  Z
  M 68.53 144.40
  A 1.32 1.32 0.0 0 0 67.10 142.32
  Q 66.31 142.58 65.42 144.22
  Q 61.68 151.15 58.73 156.22
  Q 58.27 157.01 58.14 160.01
  A 0.64 0.64 0.0 0 0 58.65 160.67
  Q 60.89 161.09 61.63 158.88
  C 63.36 153.67 65.38 148.33 68.53 144.40
  Z
  M 66.16 166.95
  A 1.18 1.18 0.0 0 0 67.47 166.06
  L 69.89 155.98
  A 2.73 2.43 53.0 0 0 69.95 155.26
  Q 69.56 149.36 70.52 146.59
  A 0.47 0.47 0.0 0 0 69.80 146.05
  C 66.64 148.28 66.39 154.19 66.30 157.98
  A 0.53 0.48 -42.1 0 1 66.29 158.08
  L 65.18 166.10
  A 0.72 0.72 0.0 0 0 65.79 166.90
  L 66.16 166.95
  Z"
/>
<path fill="#aa631a" d="
  M 8.88 116.46
  L 8.86 118.21
  L 8.88 116.46
  Z"
/>
<path fill="#aa631a" d="
  M 8.01 130.83
  Q 7.17 126.25 8.79 120.92
  L 11.72 118.72
  A 1.59 1.58 23.8 0 1 12.53 118.41
  Q 13.84 118.30 14.37 118.47
  A 2.21 2.16 -61.2 0 1 15.34 121.96
  L 8.01 130.83
  Z"
/>
<ellipse fill="#aa631a" cx="0.00" cy="0.00" transform="translate(69.87,121.73) rotate(-156.8)" rx="2.11" ry="0.98"/>
<path fill="#fbe09f" d="
  M 67.34 127.16
  Q 66.82 130.05 64.45 130.97
  A 1.46 1.43 -82.9 0 1 62.77 128.77
  Q 63.61 127.56 63.17 126.04
  A 1.61 1.57 83.9 0 1 64.79 123.98
  Q 66.41 124.11 67.24 126.13
  A 1.85 1.85 0.0 0 1 67.34 127.16
  Z"
/>
<path fill="#fbe09f" d="
  M 147.19 124.02
  C 147.75 126.30 148.37 128.45 148.40 130.70
  Q 148.46 136.01 148.40 141.49
  A 3.48 3.33 56.6 0 1 148.18 142.70
  C 147.56 144.38 146.29 146.19 145.53 148.25
  C 142.95 155.22 140.79 160.69 136.61 164.67
  Q 134.89 166.30 131.45 169.13
  A 2.62 2.60 -4.5 0 0 130.84 169.84
  C 130.40 170.58 130.57 172.05 130.09 173.31
  Q 128.68 177.06 129.15 181.39
  C 127.03 181.02 123.27 180.49 123.86 183.94
  C 119.90 184.02 116.86 183.07 113.64 182.70
  C 108.47 182.10 102.69 181.15 99.42 180.04
  A 1.46 1.42 38.4 0 0 98.23 180.16
  C 92.12 183.71 87.82 187.46 80.00 187.44
  C 80.76 186.79 83.88 185.20 83.92 184.86
  Q 84.08 183.77 83.14 182.59
  A 0.70 0.70 0.0 0 0 81.92 182.85
  Q 81.23 185.44 78.81 184.92
  A 0.98 0.97 -69.6 0 0 77.74 185.41
  Q 77.00 186.78 76.15 187.34
  L 69.03 186.28
  C 68.77 184.39 70.01 184.05 70.47 182.75
  A 2.81 2.79 54.3 0 0 70.63 181.76
  C 70.60 178.64 70.00 176.20 71.82 171.96
  A 2.72 2.69 52.0 0 0 72.00 170.42
  Q 71.02 164.80 71.53 159.36
  A 1.31 1.18 11.9 0 1 73.20 158.39
  Q 73.92 158.61 74.55 158.49
  A 0.60 0.60 0.0 0 0 75.03 158.00
  Q 75.27 156.74 76.43 156.01
  A 0.92 0.92 0.0 0 0 76.87 155.28
  Q 77.00 153.15 78.29 151.69
  A 1.29 1.26 -32.2 0 0 78.57 150.51
  Q 77.71 147.17 75.69 146.17
  A 0.67 0.66 -8.5 0 0 74.91 147.22
  Q 77.36 149.82 75.96 152.44
  Q 74.70 154.79 73.65 156.22
  A 0.65 0.65 0.0 0 1 72.47 155.83
  L 72.47 147.52
  A 2.06 2.05 69.0 0 1 73.14 146.00
  L 76.88 142.59
  A 1.01 0.75 -67.7 0 1 77.11 142.45
  L 88.26 138.34
  A 1.59 1.46 31.5 0 1 88.72 138.25
  Q 94.78 137.85 97.80 137.06
  Q 107.08 134.62 115.39 132.66
  Q 115.60 132.61 117.24 132.56
  A 0.53 0.53 0.0 0 1 117.52 133.55
  L 113.57 135.82
  A 0.48 0.48 0.0 0 1 113.27 135.88
  C 111.22 135.62 109.81 137.16 107.94 136.89
  Q 106.80 136.72 105.99 137.30
  A 1.72 1.69 -64.7 0 1 105.15 137.61
  Q 102.58 137.84 100.51 139.33
  A 1.83 1.77 -65.1 0 1 99.65 139.66
  Q 99.35 139.70 94.18 141.58
  Q 91.40 142.60 87.44 142.85
  A 0.11 0.07 -25.0 0 0 87.34 143.00
  Q 87.38 143.01 87.46 143.08
  A 0.20 0.14 54.8 0 0 87.60 143.13
  Q 88.52 143.00 88.92 143.12
  A 0.37 0.37 0.0 0 1 88.90 143.84
  L 84.75 144.74
  A 0.21 0.21 0.0 0 0 84.60 144.99
  L 84.60 145.00
  A 0.27 0.27 0.0 0 0 84.80 145.09
  L 88.11 145.19
  A 1.05 1.03 62.7 0 1 88.66 145.37
  Q 90.89 146.92 89.89 149.70
  A 1.07 1.07 0.0 0 0 90.35 150.98
  C 92.37 152.17 95.01 154.03 96.83 152.72
  Q 97.15 152.49 98.06 152.60
  A 0.80 0.80 0.0 0 0 98.83 152.26
  Q 99.06 151.94 99.56 152.23
  A 0.88 0.87 45.3 0 0 100.44 152.24
  L 104.54 149.87
  A 0.71 0.70 -15.7 0 0 104.90 149.24
  Q 104.90 147.77 104.32 146.75
  A 0.69 0.68 -51.2 0 0 103.07 146.89
  Q 102.88 147.50 101.74 148.73
  A 2.24 2.24 0.0 0 1 99.09 149.20
  L 98.91 149.12
  A 1.06 1.06 0.0 0 1 98.54 147.46
  L 102.78 142.61
  A 0.78 0.74 23.2 0 1 103.45 142.36
  L 110.09 143.28
  A 0.59 0.58 20.7 0 1 110.50 144.18
  Q 109.97 144.98 109.33 145.18
  A 1.65 1.51 41.9 0 0 109.63 148.21
  Q 113.26 149.18 116.60 146.83
  Q 117.29 146.35 121.78 142.85
  A 0.44 0.44 0.0 0 0 121.35 142.09
  L 113.97 144.81
  A 0.58 0.57 65.3 0 1 113.27 144.55
  Q 112.73 143.57 114.09 142.82
  Q 120.66 139.21 121.76 138.47
  A 10.88 10.37 -70.5 0 1 124.07 137.30
  Q 129.36 135.38 134.29 131.95
  A 1.34 1.33 29.6 0 1 135.13 131.72
  L 142.06 132.28
  A 1.12 1.04 35.6 0 0 142.52 132.22
  Q 144.85 131.36 146.57 128.57
  A 0.43 0.43 0.0 0 0 146.31 127.93
  Q 145.57 127.74 144.58 128.33
  Q 144.02 128.67 140.64 130.61
  A 0.86 0.85 48.8 0 1 139.68 130.54
  Q 137.50 128.86 134.36 129.67
  A 0.90 0.80 8.1 0 1 133.32 128.45
  Q 133.34 128.43 133.65 128.17
  A 0.23 0.23 0.0 0 0 133.54 127.77
  Q 132.60 127.59 131.64 127.63
  Q 139.51 127.00 147.19 124.02
  Z
  M 77.46 155.91
  A 0.54 0.54 0.0 0 0 77.11 156.76
  Q 78.08 158.10 79.18 158.01
  A 0.85 0.84 7.0 0 0 79.90 157.45
  Q 81.78 152.10 86.20 149.41
  A 0.74 0.73 48.7 0 0 86.27 148.21
  Q 85.47 147.57 84.56 147.63
  A 1.09 1.08 -75.3 0 0 83.70 148.14
  Q 81.28 151.99 79.11 154.86
  Q 78.43 155.76 77.46 155.91
  Z
  M 82.38 159.96
  A 0.19 0.19 0.0 0 0 82.49 160.32
  Q 85.28 159.98 88.32 159.12
  Q 92.26 158.00 95.05 161.00
  A 0.87 0.86 -62.1 0 0 96.54 160.54
  Q 96.82 158.71 95.25 157.74
  Q 93.13 156.42 88.68 154.48
  A 0.66 0.66 0.0 0 0 87.96 154.62
  Q 87.39 155.19 86.96 155.24
  Q 83.61 155.60 84.04 158.28
  A 0.97 0.96 -20.3 0 1 83.58 159.27
  L 82.38 159.96
  Z"
/>
<path fill="#aa631a" d="
  M 94.92 130.78
  A 0.18 0.18 0.0 0 1 94.81 131.01
  L 94.66 131.07
  A 12.12 0.66 -19.3 0 1 83.00 134.45
  A 12.12 0.66 -19.3 0 1 94.22 129.82
  L 94.37 129.77
  A 0.18 0.18 0.0 0 1 94.60 129.88
  L 94.92 130.78
  Z"
/>
<path fill="#fbe09f" d="
  M 61.37 145.16
  A 1.23 1.23 0.0 0 1 59.07 144.32
  L 60.48 138.43
  A 1.54 1.53 -65.1 0 1 62.88 137.55
  L 65.54 139.51
  A 0.84 0.84 0.0 0 1 65.47 140.91
  Q 62.67 142.58 61.37 145.16
  Z"
/>
<path fill="#fbe09f" d="
  M 68.53 144.40
  C 65.38 148.33 63.36 153.67 61.63 158.88
  Q 60.89 161.09 58.65 160.67
  A 0.64 0.64 0.0 0 1 58.14 160.01
  Q 58.27 157.01 58.73 156.22
  Q 61.68 151.15 65.42 144.22
  Q 66.31 142.58 67.10 142.32
  A 1.32 1.32 0.0 0 1 68.53 144.40
  Z"
/>
<path fill="#fbe09f" d="
  M 66.16 166.95
  L 65.79 166.90
  A 0.72 0.72 0.0 0 1 65.18 166.10
  L 66.29 158.08
  A 0.53 0.48 -42.1 0 0 66.30 157.98
  C 66.39 154.19 66.64 148.28 69.80 146.05
  A 0.47 0.47 0.0 0 1 70.52 146.59
  Q 69.56 149.36 69.95 155.26
  A 2.73 2.43 53.0 0 1 69.89 155.98
  L 67.47 166.06
  A 1.18 1.18 0.0 0 1 66.16 166.95
  Z"
/>
<path fill="#aa631a" d="
  M 77.46 155.91
  Q 78.43 155.76 79.11 154.86
  Q 81.28 151.99 83.70 148.14
  A 1.09 1.08 -75.3 0 1 84.56 147.63
  Q 85.47 147.57 86.27 148.21
  A 0.74 0.73 48.7 0 1 86.20 149.41
  Q 81.78 152.10 79.90 157.45
  A 0.85 0.84 7.0 0 1 79.18 158.01
  Q 78.08 158.10 77.11 156.76
  A 0.54 0.54 0.0 0 1 77.46 155.91
  Z"
/>
<path fill="#fbe09f" d="
  M 58.40 182.54
  L 41.47 175.32
  L 41.04 173.66
  A 2.43 2.41 46.2 0 1 41.06 172.33
  C 42.47 167.63 41.80 161.92 41.96 157.91
  Q 42.04 155.75 43.19 154.73
  A 3.23 3.13 49.3 0 1 47.75 155.14
  Q 49.95 157.77 54.37 158.61
  A 1.64 1.62 -14.5 0 1 55.27 159.13
  L 58.33 162.70
  A 0.59 0.55 -8.5 0 0 58.55 162.85
  Q 59.67 163.27 61.36 163.07
  A 0.69 0.68 -81.9 0 1 62.07 164.02
  L 59.37 170.42
  A 2.75 2.74 36.3 0 0 59.81 173.27
  L 61.25 174.94
  A 1.49 1.47 -66.1 0 1 61.60 175.87
  Q 61.69 179.93 61.51 181.25
  Q 61.28 183.04 58.40 182.54
  Z"
/>
<path fill="#aa631a" d="
  M 82.38 159.96
  L 83.58 159.27
  A 0.97 0.96 -20.3 0 0 84.04 158.28
  Q 83.61 155.60 86.96 155.24
  Q 87.39 155.19 87.96 154.62
  A 0.66 0.66 0.0 0 1 88.68 154.48
  Q 93.13 156.42 95.25 157.74
  Q 96.82 158.71 96.54 160.54
  A 0.87 0.86 -62.1 0 1 95.05 161.00
  Q 92.26 158.00 88.32 159.12
  Q 85.28 159.98 82.49 160.32
  A 0.19 0.19 0.0 0 1 82.38 159.96
  Z"
/>
<path fill="#fbfdfd" d="
  M 129.15 181.39
  Q 129.15 182.83 128.54 183.55
  A 0.96 0.96 0.0 0 1 128.01 183.87
  Q 125.99 184.35 123.86 183.94
  C 123.27 180.49 127.03 181.02 129.15 181.39
  Z"
/>
<path fill="#aa631a" d="
  M 80.00 187.44
  Q 77.99 187.76 76.15 187.34
  Q 77.00 186.78 77.74 185.41
  A 0.98 0.97 -69.6 0 1 78.81 184.92
  Q 81.23 185.44 81.92 182.85
  A 0.70 0.70 0.0 0 1 83.14 182.59
  Q 84.08 183.77 83.92 184.86
  C 83.88 185.20 80.76 186.79 80.00 187.44
  Z"
/>
</svg>
