<?xml version="1.0" encoding="UTF-8" standalone="no"?>
<!-- Created with Inkscape (http://www.inkscape.org/) -->

<svg
   version="1.1"
   id="svg1"
   width="682.66669"
   height="254.66667"
   viewBox="0 0 682.66669 254.66667"
   xmlns="http://www.w3.org/2000/svg"
   xmlns:svg="http://www.w3.org/2000/svg"
   xmlns:rdf="http://www.w3.org/1999/02/22-rdf-syntax-ns#"
   xmlns:cc="http://creativecommons.org/ns#"
   xmlns:dc="http://purl.org/dc/elements/1.1/">
  <title
     id="title1">OCO Icon SVG</title>
  <defs
     id="defs1" />
  <g
     id="g1">
    <path
       style="fill:currentColor"
       d="M 13.590858,227.26876 C 6.115886,212.19991 0,198.48495 0,196.79107 c 0,-2.72584 1.3407786,-3.46742 11.666667,-6.45282 15.361916,-4.4414 64.57566,-19.13757 114.557513,-34.20907 C 148.34747,149.45813 167.04854,144 167.7821,144 c 0.73356,0 2.65112,2.13156 4.26125,4.7368 1.61013,2.60524 3.2119,4.45241 3.55949,4.10482 0.34759,-0.3476 -0.72823,-2.47178 -2.39071,-4.7204 -1.66249,-2.24863 -2.65006,-4.46106 -2.19461,-4.91651 0.45545,-0.45545 30.62043,-9.78849 67.03329,-20.7401 51.97492,-15.63208 66.60757,-19.57806 68.0772,-18.35838 1.0296,0.85449 1.872,1.10669 1.872,0.56044 0,-0.54625 0.82395,-0.30937 1.831,0.52641 1.00705,0.83578 2.6992,1.18644 3.76032,0.77925 1.23634,-0.47443 3.98973,1.84176 7.6657,6.44849 l 5.73638,7.18884 10.00873,-3.08803 c 5.5048,-1.69842 10.223,-3.30231 10.48489,-3.56421 0.2619,-0.26189 -1.05804,-7.93445 -2.93319,-17.050125 -4.99004,-24.258152 -5.15244,-23.329335 6.31284,-36.104111 20.07753,-22.370675 19.89954,-22.244915 27.17874,-19.203473 2.70661,1.130895 4.8781,1.39673 5.33749,0.65342 1.30417,-2.11019 4.6171,-1.391429 4.6171,1.001709 0,1.975371 0.25827,1.934057 2.08376,-0.333333 1.47797,-1.835735 2.28553,-2.103637 2.77778,-0.921506 0.4801,1.152943 4.25583,1.66346 12.24957,1.656264 11.23922,-0.01012 11.60118,-0.108646 13.22223,-3.599153 0.91666,-1.973812 1.66666,-4.369131 1.66666,-5.322931 0,-0.953799 0.50369,-1.73418 1.11932,-1.73418 1.37508,0 4.21402,6.010779 4.21402,8.92221 0,1.824776 1.28992,2.008244 9,1.280075 4.95,-0.467497 15.18541,-0.85426 22.74535,-0.859473 10.6072,-0.0073 13.53053,-0.389991 12.8044,-1.676146 -0.75277,-1.333333 -0.58184,-1.333333 0.85464,0 2.8933,2.685534 8.9529,2.075237 9.92894,-1 1.04389,-3.28901 3.37152,-3.474 4.19416,-0.333333 0.38088,1.454137 4.92369,4.091726 12.05633,7 6.29485,2.566667 11.81365,4.817104 12.26401,5.000972 0.45036,0.183867 0.81884,-1.88132 0.81884,-4.589306 v -4.923609 l 68,-20.409708 c 37.4,-11.2253392 68.9,-20.3961962 70,-20.37968231 2.84241,0.04267206 35.10717,26.75002231 33.77178,27.95479431 -0.60781,0.548358 -4.70511,2.218804 -9.10511,3.712103 -10.11724,3.433648 -51.68024,17.936399 -94.14785,32.851401 -29.6499,10.413309 -33.18601,11.371921 -36.66667,9.940066 -2.11868,-0.871574 -4.64056,-1.453338 -5.60416,-1.292808 -0.96361,0.16053 -4.16697,-1.889892 -7.11858,-4.556493 -2.9516,-2.666601 -5.59242,-4.622505 -5.86847,-4.346453 -0.27605,0.276052 0.71474,8.272695 2.20177,17.770318 1.48702,9.497624 2.3621,19.014061 1.94463,21.147631 -0.41747,2.13357 -5.5549,10.40247 -11.41652,18.37533 -5.86162,7.97286 -10.65749,15.6418 -10.65749,17.04209 0,2.94649 -2.9226,5.26889 -3.69909,2.93942 -0.28772,-0.86317 -2.85202,-1.5694 -5.69844,-1.5694 -3.8216,0 -5.55099,0.70196 -6.61154,2.68362 -1.12855,2.1087 -1.96734,2.39938 -3.91536,1.35683 -1.54441,-0.82654 -3.91118,-0.87443 -6.27735,-0.12701 -6.55486,2.07055 -15.13156,2.88428 -15.13156,1.43565 0,-0.742 0.9,-1.34909 2,-1.34909 1.1,0 2,-0.8358 2,-1.85735 0,-2.03634 2.63062,-3.38434 7.10905,-3.64287 1.59003,-0.0918 0.23952,-0.5956 -3.00112,-1.11959 -4.33589,-0.70107 -7.59708,-0.30484 -12.34764,1.50023 -6.84609,2.60131 -19.11266,3.24326 -22.38834,1.17166 -2.35673,-1.49044 -1.86882,-2.07793 3.65448,-4.40031 3.94602,-1.65917 2.58131,-1.94732 -19.81604,-4.18406 -23.36751,-2.33363 -24.10726,-2.33177 -25.92308,0.0651 -1.02804,1.35698 -1.88825,3.81723 -1.91157,5.46723 -0.059,4.17128 -2.58471,3.75467 -4.13114,-0.68141 -0.92877,-2.66429 -2.7457,-4.1378 -6.57631,-5.33333 -2.91112,-0.90856 -6.21055,-1.65192 -7.33205,-1.65192 -1.1215,0 -3.08095,-0.59819 -4.35433,-1.3293 -1.27338,-0.73111 -6.51524,-2.81428 -11.64858,-4.62927 l -9.33333,-3.29998 -8.88237,2.85383 -8.88237,2.85383 4.2157,5.44211 c 2.31864,2.99316 4.66571,5.64211 5.21571,5.88655 1.85154,0.82291 1.01964,2.88889 -1.16326,2.88889 -1.86375,0 -1.9099,0.31147 -0.33334,2.24964 1.61653,1.9873 1.53583,2.13923 -0.69199,1.30281 -2.15701,-0.80982 -2.27421,-0.64835 -0.81,1.11592 0.94156,1.13451 1.33641,2.43826 0.87744,2.89722 -0.93035,0.93036 -132.63481,47.10108 -134.35834,47.10108 -0.60008,0 -2.67264,-2.25 -4.60569,-5 -3.64986,-5.19235 -3.78416,-4.90567 -0.64155,1.3695 1.13115,2.25866 1.37447,4.17703 0.62389,4.91867 -2.07807,2.0533 -165.903537,58.71183 -169.762499,58.71183 -3.378907,0 -4.523467,-1.82206 -17.210483,-27.39791 z M 185.57975,166.71657 c -3.43552,-5.10589 -6.62948,-9.30589 -7.09767,-9.33333 -0.46819,-0.0274 1.8799,4.1501 5.21799,9.28343 3.33808,5.13333 6.53204,9.33333 7.09767,9.33333 0.56564,0 -1.78246,-4.17754 -5.21799,-9.28343 z M 369.33334,52.713579 c 0,-0.340865 -1.35,-1.273965 -3,-2.073555 -2.88083,-1.396052 -2.89719,-1.371434 -0.41182,0.619755 2.72035,2.179451 3.41182,2.474094 3.41182,1.4538 z m 96.05133,-2.129947 c 0.81884,-1.324918 0.29067,-2.355294 -1.77632,-3.465302 -2.38594,-1.28129 -3.38158,-1.183048 -5.27029,0.520029 -1.74498,1.573465 -1.96084,2.542908 -0.86126,3.867825 1.79816,2.166646 6.32503,1.638529 7.90787,-0.922552 z"
       id="path1" />
  </g>
  <metadata
     id="metadata1">
    <rdf:RDF>
      <cc:Work
         rdf:about="">
        <dc:title>OCO Icon SVG</dc:title>
        <dc:source>https://www.jpl.nasa.gov/missions/orbiting-carbon-observatory-2-oco-2/</dc:source>
      </cc:Work>
    </rdf:RDF>
  </metadata>
</svg>
