<?xml version="1.0" encoding="UTF-8" standalone="no"?>
<!-- Created with Inkscape (http://www.inkscape.org/) -->

<svg
   version="1.1"
   id="svg1"
   width="682.66669"
   height="468"
   viewBox="0 0 682.66669 468"
   xmlns="http://www.w3.org/2000/svg"
   xmlns:svg="http://www.w3.org/2000/svg"
   xmlns:rdf="http://www.w3.org/1999/02/22-rdf-syntax-ns#"
   xmlns:cc="http://creativecommons.org/ns#"
   xmlns:dc="http://purl.org/dc/elements/1.1/">
  <title
     id="title1">DSCOVR Icon SVG</title>
  <defs
     id="defs1" />
  <g
     id="g1">
    <path
       style="fill:currentColor"
       d="m 473.33335,462.63803 c -27.5214,-6.79029 -56.24435,2.7519 -82.87864,-8.87462 -23.28237,0.3201 -35.07033,-17.74809 -53.71874,-29.37129 -28.22695,-10.91801 -25.81841,-50.76226 -53.55392,-54.82083 -8.2117,-16.90192 45.91839,-1.31364 24.94964,-19.6135 -43.13197,-8.02063 -85.98617,-18.46532 -129.12031,-25.82518 -15.52519,20.17003 -18.68754,-14.70319 -39.34653,-8.42541 -23.43877,-8.69359 -56.065147,0.21992 -67.229559,-27.77534 -1.600533,-16.29054 36.793289,-21.85926 45.217239,-4.2401 22.51939,10.74583 44.68913,-0.44887 65.74838,3.01487 16.81616,20.37285 48.51163,12.46912 71.90246,20.51413 24.51706,-0.46004 54.64113,19.91965 74.88042,0.98879 1.57755,-13.88341 4.08965,-28.16118 -7.38513,-21.01606 -13.17225,-3.2915 -15.77719,-22.21744 -24.11958,-6.06669 -21.81378,-3.74142 -35.33877,-0.74755 -53.67647,-11.94734 -25.04108,-7.77559 -53.41496,-9.15079 -76.43218,-20.5671 -6.08811,0.34637 -42.06521,-5.87014 -59.58796,-11.18115 -17.150256,-1.88426 -38.647022,-14.0815 -53.857852,-9.66539 -16.75361,4.0416 -30.616679,-20.88037 -52.046844,-9.6951 C -7.4164138,202.72547 17.402358,186.15923 10.212608,172.19711 -4.7768108,154.47392 28.994644,171.39997 24.354167,148.73214 36.788888,117.2205 50.559774,86.209164 62.780381,54.594282 52.769224,45.484038 55.550614,36.562311 68.938861,41.77375 77.629922,26.881891 72.260964,-5.2717671 95.198872,3.7918865 c 8.886858,23.4936955 41.980138,0.705986 48.090818,22.2898695 33.69915,15.476743 70.41585,25.893733 104.19079,41.154231 -3.83491,13.274272 -15.1684,39.834153 -2.44388,11.835267 13.79698,-22.249195 47.4103,10.247198 69.67695,12.905445 20.67059,15.088221 35.14601,-0.826674 48.69643,18.618961 32.42923,0.66766 1.69194,30.05325 10.60751,41.37782 13.3791,8.65456 16.94141,15.90269 7.69256,-5.65285 -2.21137,-23.12867 32.776,-25.70549 36.4153,-33.46771 -26.01861,-25.205633 21.77618,-44.066454 35.06808,-20.791488 -7.9846,16.522478 -16.85728,45.377358 11.50082,46.331418 9.79367,-13.55716 -27.41646,-25.07493 0.22888,-25.1064 30.02861,-0.87566 40.58022,29.20199 65.27917,36.88629 15.28024,17.38363 36.95575,22.33579 52.88397,39.94028 21.51891,5.55147 40.90195,24.4065 65.31335,24.51607 8.48976,7.20242 25.02862,8.62634 32.19917,16.40038 -4.06364,18.37331 -25.29112,40.74919 -35.01539,61.65521 -15.77723,15.52326 -22.93327,63.28097 -45.67257,59.84189 -19.47264,3.0531 -45.03448,-24.65774 -53.10575,9.38746 -10.90598,13.04051 -3.27807,13.69264 3.80409,17.45456 -2.91865,10.3442 -25.05461,-2.68368 -11.4012,15.62586 -2.02805,21.71303 -14.26868,-15.35408 -19.13877,11.26274 -16.15341,15.9043 -20.48846,58.7892 -46.73585,56.38084 z M 325.33334,378.38095 c -10.37467,-6.99077 -5.97445,4.21341 0,0 z m 20,-7.205 c -2.98335,-5.74754 -2.82128,9.74166 0,0 z m -13.66666,-8.09505 c -11.4329,-1.29719 -0.49094,2.14715 0,0 z m -22.38917,-24.64696 c -5.38328,-15.93195 -16.49248,20.56097 1.05128,5.07695 z m -17.37894,1.89939 c -1.05776,-25.62113 -17.49463,10.94211 0,0 z M 303.68708,330 c 4.3241,-20.86167 -17.91834,-2.43782 -7.39741,10.4846 2.65979,-3.35249 5.22879,-6.78694 7.39741,-10.4846 z m 12.73898,-5.66667 c -7.8707,-5.30195 -1.78844,28.335 -0.9922,3.33125 z m -43.61367,7.53655 c -3.79539,-13.59144 -14.47533,17.67848 0.76477,4.21302 z m 13.83491,-6.0635 c -1.96743,-25.75731 -17.70373,11.95571 -6.57191,7.89627 2.20827,-2.61732 4.42358,-5.22921 6.57191,-7.89627 z m -30.94323,3.55854 c -6.04259,-15.49166 -5.21976,19.59491 0,0 z m 13.66913,-12.02883 c -16.37093,-13.16044 -8.81153,34.09984 -0.255,3.98776 z m -29.46801,10.33332 c -7.02318,-13.62575 -7.00948,15.51815 0,0 z m -15.39746,-2.00274 c -7.52384,-13.64539 -6.56162,13.96806 0,0 z m 28.14617,-8.10905 c -9.15563,-22.53811 -14.09129,29.5389 -0.84226,2.79333 l 0.84226,-2.79309 z m -19.11681,3.77571 c 10.37203,-23.30655 -17.3948,-3.00626 -2.43205,2.91896 z m 89.09638,2.37658 c 12.39424,-0.72065 11.65677,-22.60762 1.35509,-3.44039 -1.86727,0.89774 -8.92571,11.92023 -1.35509,3.44039 z m -113.30013,-0.40858 c -0.35339,-14.56913 -13.34403,8.81504 0,0 z m 11.13332,-12.46496 c -8.56895,-17.57081 -10.88225,30.14851 -0.17424,3.78872 z m -24.84904,10.8303 c -2.56915,-14.6886 -12.5905,6.30586 0,0 z m 7.86834,-5.7499 c 8.89732,-34.64005 -17.77635,13.34621 0,0 z m -23.06482,1.7499 c -0.3134,-14.69625 -8.69323,7.21149 0,0 z m -15.81736,-4.77588 c -7.36485,-10.67207 0.59188,14.25517 0,0 z m -13.3442,-2.70995 c -3.75944,-10.26333 -4.48024,12.87572 0,0 z m 26.07376,-6.33083 c -11.68703,-17.50305 -7.92817,25.33865 0,0 z m -38.28577,5.46254 c -5.00685,-9.74818 -5.67925,9.00487 0,0 z m 47.59869,-3.23406 c -3.63072,-6.34446 -2.95017,14.55831 0,0 z m 55.35375,4.58818 c 0.0583,-4.48347 -4.09338,4.44174 0,0 z m -50.4503,-4.33334 c -2.31298,-0.43108 1.39982,8.90917 0,0 z m -65.59693,-1.14877 c -6.63376,-7.14204 -0.53356,11.01328 0,0 z m 21.94498,-6.87438 c -9.52766,-13.12676 -4.18749,26.84557 0,0 z M 226.00001,308 c 0.0583,-4.48345 -4.09337,4.44174 0,0 z m -64.58276,-7.35026 c -4.70054,-6.78507 -0.50541,16.28943 0,0 z m -47.29624,2.51814 c -6.60251,-5.29535 0.53098,8.73325 0,0 z m 20.20242,-0.44708 c 6.79106,-20.2183 -11.97326,-1.06027 -1.64557,1.8451 z m 62.2863,1.37133 c -0.33719,-7.12073 -4.58021,4.26937 0,0 z m 144.86092,-3.78661 c 2.00255,-32.86529 -7.99592,19.59716 0,0 z m -220.18348,1.08105 c 9.53386,-24.82008 -13.73774,3.76844 0,0 z M 154,296 c -2.02204,-5.07821 -4.07143,4.22174 0,0 z m -12.66666,-2.74536 c -3.75886,-4.76449 -2.5858,7.06417 0,0 z m 41.45551,-1.79126 c -11.19682,-9.86865 -25.74048,4.67865 -4.12218,2.9227 1.23212,-0.15231 12.27093,3.21128 4.12218,-2.9227 z M 130,291.7026 c -3.74988,-5.14135 -5.12083,6.73717 0,0 z M 117.33334,290 c 2.86486,-6.5129 -6.5571,6.68185 0,0 z m 229.33334,-0.0428 c -1.6936,-9.32281 -12.21781,-30.71929 -4.51073,-8.24336 1.67846,0.55337 0.82517,11.21708 4.51073,8.24336 z m -7.08918,-4.87385 c -2.34913,-2.52906 0.84084,7.6938 0,0 z m 10.70783,-8.36146 c -13.73291,-22.89227 -1.41667,24.67296 0.63882,2.89458 z m -27.37421,4.32257 c -4.73658,-2.84977 3.29387,6.93633 0,0 z m -1.24444,-4.59415 c -8.29706,-1.32268 -0.10342,2.30698 0,0 z m 4.63889,-3.92251 c -5.69697,-1.52081 -1.45728,2.46051 0,0 z m -14.22895,-7.33759 c 2.24189,-13.35996 -7.1931,9.90016 0,0 z m 13.25672,-5.04754 c -6.55316,-7.79448 -1.90449,5.23851 0,0 z m 6.66667,-2 c -4.01794,-4.39871 -4.06383,1.81002 0,0 z m 336.20543,-15.83696 c 14.0784,-18.7257 -22.32456,-9.97941 -11.87209,7.47792 5.65865,3.34591 9.70576,-3.498 11.87209,-7.47792 z M 339.68808,216 c 4.29276,-14.36979 26.72582,-41.72228 23.45316,-49.92725 -18.03152,13.99942 -24.41196,43.9276 -36.3724,64.79148 -6.96099,24.00985 6.66247,-1.01364 10.21791,-9.62016 z m -162.79835,12.33333 c 3.02663,-12.24899 -15.01829,30.5405 -2.17688,4.78998 z m 353.62454,1.81483 c -19.70436,-13.82564 15.72537,14.43019 0,0 z m 76.48575,-0.36453 c -2.09357,-11.9821 -6.54788,4.19851 0,0 z m 10.91441,-16.88008 c -22.67718,-7.17727 2.15398,20.70049 2.3445,0.75563 l -1.56991,-0.50598 z m -31.67026,0.17978 c -2.34915,-2.52905 0.84086,7.6938 0,0 z m 13.75585,-1.72896 c -3.13904,-15.19209 -22.44385,-16.44936 -10.13284,-5.78436 -0.37029,2.8446 13.87485,14.96948 10.13284,5.78436 z m -12.40935,-5.66233 c -2.18663,-1.89317 1.14849,11.38601 0,0 z m -10.27774,-0.10406 c -1.38091,-5.40607 -3.88016,10.2057 0,0 z M 569.50473,205 c 3.07585,-8.3176 -7.24802,9.72234 0,0 z M 201.9645,173.09044 c -8.57705,12.87407 -18.81751,41.1281 -4.85616,11.15142 1.6529,-3.69834 3.51301,-7.32109 4.85616,-11.15142 z m 368.06855,22.85612 c -3.79387,-2.62248 -10.74226,3.3163 -1.62664,0.97941 z m -365.5243,-28.68248 c 0.11053,-5.61234 -3.95619,6.64834 0,0 z m 12.94889,-27.5802 c 5.58882,-18.26142 -20.55712,43.19045 -4.61609,10.34594 1.61916,-3.41153 3.21386,-6.83815 4.61609,-10.34594 z m 6.40557,-14.01721 c 7.66604,-19.9205 -11.41356,21.21492 0,0 z m 4.21223,-37.05061 c 18.23263,-20.243728 0.0796,-25.631915 -19.36387,-29.691976 -16.41848,18.69761 -10.94888,41.512456 15.84592,35.217342 z M 197.29322,64 c 10.06071,-17.725184 -38.8706,-26.535745 -35.25264,1.366437 -13.96444,11.165748 24.73525,26.788025 28.02534,14.971055 C 192.585,74.941268 195.06477,69.524405 197.29322,64 Z m -47.07504,5.571044 c 0.52223,-11.423683 22.30199,-31.116782 1.18311,-32.910973 -21.21514,-17.945063 -31.47312,8.001556 -33.11392,24.693601 9.45726,1.497458 23.4983,14.144735 31.93081,8.217372 z M 113.49976,47.302859 c 14.01106,-18.285271 6.49709,-28.088429 -15.356957,-30.859127 -20.46963,-6.961443 -31.303587,41.198525 -1.3178,36.823557 9.401227,5.303757 13.615857,4.800901 16.674757,-5.96443 z"
       id="path1" />
  </g>
  <metadata
     id="metadata1">
    <rdf:RDF>
      <cc:Work
         rdf:about="">
        <dc:title>DSCOVR Icon SVG</dc:title>
        <dc:source>https://science.nasa.gov/wp-content/uploads/2023/05/dscovr.png</dc:source>
      </cc:Work>
    </rdf:RDF>
  </metadata>
</svg>
