<svg xmlns="http://www.w3.org/2000/svg" baseProfile="tiny" width="512" height="351" xmlns:v="https://vecta.io/nano"><style><![CDATA[.B{fill:#555a30}.C{fill:#283862}.D{fill:#171509}.E{fill:#eeeee9}.F{fill-opacity:.141}]]></style><path d="M284.01 92.01q-.51.34-.45 1.03l-3.07 6.18q-.81.19-.49 1-1.18 1.13-1.16 2.49l-.68 1.22a.18.16-80.3 0 0 .17.26q.03-.01.2-.2a.3.3 0 0 1 .4-.04c1.79 1.32.07 2.72.19 4.38a2.61 2.57-31.9 0 1-.37 1.53l-1.42 2.4a1.23 1.22-71 0 0 .89 1.84q4.27.58 6.22 3.35a1.24 1.21 71.7 0 0 .99.51q.87-.01 1.33.3a.63.63 0 0 1 .19.85q-.57.96-.5 1.86l-4.21-1.65a.72.72 0 0 0-.69 1.26q1.93 1.38 2.91 1.58a2.18 2.17 74.2 0 1 1.14.64q3.06 3.28 7.17 5.07a.29.29 0 0 1 .17.21l.27 1.15a.16.16 0 0 1-.23.17l-13.22-6.64a.59.58-66.4 0 0-.81.32l-.69 1.79a.72.71 18.1 0 1-.87.43q-.74-.22-1.46-.98-.63-.49-1.03-1.09-1.91-2.37-1.74-.28-.06 1.06-.8 1.82a.83.8 35.2 0 1-.95.15l-2.15-1.08a.69.69 0 0 0-.93.31l-27.51 54.73a.22.22 0 0 0 .29.3q.88-.42 1.45-1.59a.46.46 0 0 1 .58-.23l.29.12a.67.66-69.8 0 1 .39.86q-1.15 2.99-2.38 6.01-.37.91.39 1.36.21.13.69.06-.08.38.01.76.07.33.41.56c2.87 1.92 5.55 1.44 8.23 2.5q-.17.06.01.35l-9.34-1.92a.61.6-85.5 0 0-.72.62q.13 2.73-1.74 2.92-.38-.08-.59-.01a.29.29 0 0 0-.03.54l.87.38q-.98 1.12-1.64 1.18-.47.04-.62-.37-.13-.34-.28-.71a1.09 1.02 40 0 0-2.02.11q-.01.05.25.91a1.36 1.31-82.3 0 0 .52.71q.89.59 1.23 1.67a1.2 1.17-39.1 0 1-.11.96q-.67 1.13-1.9 1.36.95-2.64-1.41-4.18-.7-.71.07-1.82a.48.48 0 0 0-.72-.63q-.57.54-.63.99-.56 3.92-2.01 7.51a.14.14 0 0 0 .14.19q.23-.03.05-.14.28.93.66.93-1.27.91-2.74 1.23c-1.53-.1-2.02 1.72-.91 2.72q-1.37 2.1-1.87 4.23.4.9-.79 1.08-.72.12-1.63-.08-8.53-1.84-15.32-3.61a1.54 1.53-69.8 0 0-1.77.82c-2 4.2-4.16 1.86-7.31 1.61-2.52-.2-3.12-2.31-2.53-4.26a.86.85-75.4 0 0-.63-1.08l-66.52-15.33a2.69 2.69 0 0 1-1.87-3.69l7.56-17.56a.39.38-3.7 0 0-.55-.48c-2.15 1.25-2.4 2.58-3.26 4.63q-2.04 4.86-6.98 14.83a1.18 1.18 0 0 1-1.13.65q-1.36-.1-2.83-.51-4.04-1.15-8.12-1.91-.66-.12-.88-.41a.3.29 80.3 0 0-.16-.12l-68.12-15.69a.56.55 23 0 0-.58.23q-.62.91-.8 1.74a.69.68 76.4 0 1-.23.38l-1.82 1.46a1.49 1.45 31.3 0 1-1.23.28l-7.3-1.69a1.27 1.26 81 0 1-.82-.6q-.84-1.43-.94-2.59a1.44 1.37-38.6 0 1 .08-.57q.25-.68.23-1.21a.81.8 5.6 0 0-.63-.76l-20.04-4.61a.82.79-56.4 0 0-.68.15q-.54.42-.79 1.22a.92.9 88.2 0 1-.53.58l-3.04 1.24a1.08 1.05 45.7 0 1-.84-.02c-2.76-1.31-.71-4.48-2.08-6.36a1.09 1.09 0 0 1-.05-1.21q.91-1.49 1.19-2.71.92-4 3.53-8.27a.27.17-31.7 0 0 .03-.06l4.6-12.24a.85.83-51.5 0 0-.08-.77l-5-7.58a1.37 1.37 0 0 1 1.45-2.08l7.27 1.67a.52.51-75.1 0 0 .61-.36c.3-1 .26-2.17.7-3.28q.6-1.53 4.17-8.85a5.67 5.66 64.9 0 0 .39-1.08q1.1-4.53 3.91-9.41a.97.6-31.7 0 0 .08-.16l9.16-22.43a1.75 1.74-33.5 0 0 .12-.58c.07-2.32 2.27-6.09 3.42-8.16q.61-1.08 2.34-5.96 1.54-4.38 3.54-8.19a4.25 4.07 67.7 0 0 .33-.84q1.02-3.7 2.59-6.48a.99.92 69.7 0 0 .08-.19l2.11-6.12a1.55 1.55 0 0 0-.18-1.37l-5.18-7.87a.93.92 70.2 0 1 .67-1.43l1.86-.18a1.31 1.07-36.7 0 1 .44.02l6.16 1.42a.79.79 0 0 0 .97-.78q-.01-1.52.43-2.33 3.67-6.82 6.92-16.45a1.55 1.55 0 0 0-.18-1.35l-2-3.04a1.41 1.4 33.3 0 1-.21-1c.66-3.54 5.15-1.72 7.42-3.24q1.01-.68 1.8-1.88a2.64 2.27-58.1 0 1 3.26-1.02q2.68 1.58 2.31 5.33a.96.95 13.3 0 0 .61.98l19.81 7.54a.65.64-62.2 0 0 .77-.24q.51-.75.58-1.73a.5.48-15.9 0 1 .23-.39l2.1-1.39a1.02 1 37.5 0 1 .88-.11l7.78 2.68a1.14 1.03 74.5 0 1 .41.26c1 1 1.75 3.15.88 4.46q-.28.43-.26.76a.93.91-78 0 0 .48.76q2.97 1.61 6.09 2.61c5.35 1.71 7.44 2.77 13.84 5.23q3.85 1.48 5.85 2.06c2.52.73 4.77 2.07 7.92 3.16q6.52 2.25 11.04 4.13c4.59 1.91 10.19 3.85 14.63 5.44q1.95.7 3.65 1.54c1.99.98 3.84.96 5.62 1.94q3.35 1.86 8.63 3.34 2.04.58 2.15 2.34a.21.18-40.3 0 1-.02.12l-7.91 17.61a1.53 1.53 0 0 0 .31 1.69l.22.22a.73.73 0 0 0 1.19-.23l7.91-18.39a1.67 1.66 16.6 0 1 1.82-.98q2.57.46 4.88 1.88a5.02 4.82-23.4 0 0 1.69.63q3.61.61 7.37 2.9a3.93 3.79 66.2 0 0 1.15.47q4.49 1.02 8.5 3.2a3.7 3.61-24.5 0 0 1.11.4q2.82.57 6.56 2.4a6.03 5.7-25.7 0 0 1.54.49q1.72.29 2.46.68 4.51 2.39 8.11 3.18a4.96 4.79 66.8 0 1 1.59.67q.98.63 6.21 2.5 7.76 2.78 15.95 6.09 1.42.57 2.38-.35.56-.54-.6-2.62a.53.53 0 0 1 .83-.65q.99.93 2.97.76a1.47 1.46-29.8 0 1 .98.26c1.82 1.26 7.93 1.82 5.38 6a.82.81 29.2 0 0 .33 1.14q2.63 1.35 4.35 1.82c3.85 1.05 6.21 2.44 10.13 3.72 2.72.9 2.8 2.41 1.14 4.46zM91.87 18.7L67.36 9.36a1.47 1.46 21.9 0 0-1.86.79l-9.31 21.64a1.13 1.12-53.2 0 0 .16 1.17q2.5 3.05 6.35 4.32 1.83.6 8.57 2.92c3.65 1.26 6.43 2.49 10.47 3.53a.34.33 18.4 0 0 .39-.19l10.21-23.73a.84.84 0 0 0-.47-1.11zm6.3 2.3a.75.75 0 0 0-.95.4L86.9 45.37a.75.75 0 0 0 .42 1l23.62 8.99a.75.75 0 0 0 .95-.4l10.32-23.97a.75.75 0 0 0-.42-1L98.17 21zm30.43 11.49a.31.31 0 0 0-.39.17l-10.83 23.87a.31.31 0 0 0 .17.42l22.9 8.72a.31.31 0 0 0 .39-.17l10.84-23.87a.31.31 0 0 0-.17-.42l-22.91-8.72zm49.13 18.61l-20.18-7.68a1.26 1.26 0 0 0-1.59.65l-9.75 21.47a1.02 1.02 0 0 0 .73 1.42l2.23.45a2.68 2.68 0 0 1 .74.27q2.23 1.22 3.76 1.52 2.23.43 3.36 1.11 1.21.72 6.91 2.2a2.2 2.03-36.9 0 0 .68.07l3.37-.24a2.06 2.05 9.9 0 0 1.73-1.21l8.53-18.78a.93.92 22.5 0 0-.52-1.25zm-1.55 26.19c.33.3.83-.21.52-.58q.31-1.43 1.3-2.61a.97.97 0 0 0 .07-1.17l-.02-.03a.57.57 0 0 0-.93-.03q-1.34 1.79-1.59 3.54-.04.27.16.62.25.44.49.26zm-5.73-.9a1.03 1.03 0 0 0-1.53-1.09q-2.73 1.58-2.97 4.43a1.86 1.69 86.5 0 0 2.06 2.01q.35-.08.38-.86a.99.94 11.7 0 1 1.34-.83q.96.36 1.72.75a1 .99-69.7 0 0 1.43-.66l.1-.39a1.15 1.14-77.4 0 0-.86-1.37q-1.97-.45-1.67-1.99zm3.12 5.79q-.32.82.35 1.14.48.23.69-.23.29-.65.1-.99a.63.63 0 0 0-1.14.08zm-8.31 18.98l5.03-10.12q.82-1.02.46-1.27a1.84 1.7-59.9 0 0-2.58.8c-2.51 5.19-5.21 10.23-7.08 14.96q-2.77 7-6.72 14.59a.88.88 0 0 0 .47 1.23l.3.11a.77.76-67.2 0 0 .97-.4l9.15-19.9zm110.984 16.62a.08.02-21.9 0 0-.082.011.08.02-21.9 0 0-.067.048.08.02-21.9 0 0 .082-.011.08.02-21.9 0 0 .067-.048zM139.58 157.52q1.71-2.58 2.2-5.2a1.95 1.9 73.2 0 1 .49-.95q.34-.36 2.92-6.49c2.03-4.81 5.7-10.79 6.97-14.69q1.35-4.13 2.19-5.36a1.1 1.09 39.9 0 0-.13-1.4l-.32-.32a.56.55-55.5 0 0-.9.17l-11.03 24.29a.09.03-73.2 0 0-.02.03l-.78 1.84a.35.33 80.3 0 1-.1.15q-.97 1-.5 2.7a1.15 1.1 52.4 0 1-.09.83l-1.9 3.5a.61.6-53.2 0 0 .1.72l.24.24a.43.43 0 0 0 .66-.06zm50.08 15.3q.74.36 1.1-.32 3.12-6.03 9.67-20 .44-.95-.35-1.33-.8-.39-1.26.56-6.83 13.83-9.59 20.03-.31.7.43 1.06zm-24.34-9.84l-.49.7a.83.83 0 0 1-.86.33l-16.87-3.89a.32.32 0 0 0-.36.44q.96 2.26-.53 3.7a1.13 1.13 0 0 0 .53 1.91l14.37 3.31a.72.72 0 0 1 .54.86l-.19.8a.29.29 0 0 0 .5.26q3.41-3.66 3.9-8.22a.3.3 0 0 0-.54-.2zm70.313 24.163a2.15 1.16-77.3 0 0-1.604 1.842 2.15 1.16-77.3 0 0 .659 2.352 2.15 1.16-77.3 0 0 1.604-1.842 2.15 1.16-77.3 0 0-.659-2.352z" class="C"/><path d="M332.99 88.5c-4.22 4.37-12.68 4.97-17.14.51l-1.58-3.48a1.6 1.42 32.1 0 1-.12-.41q-1.09-6.91-5.51-12.3-.6-.72-.7-2.77l.01-1.15c3.93-8.17 22.3-8.18 28.9-3.94 4.11 2.64 2.68 5.46.38 9.57q-2.27 4.07-2.74 9.57a2.51 2.5-32.3 0 1-.15.66l-1.35 3.74z" class="B"/><path d="M307.95 68.9l-.01 1.15q-.23-.56.01-1.15z" class="D"/><path d="M170.45 76.39q-.3 1.54 1.67 1.99a1.15 1.14-77.4 0 1 .86 1.37l-.1.39a1 .99-69.7 0 1-1.43.66q-.76-.39-1.72-.75a.99.94 11.7 0 0-1.34.83q-.03.78-.38.86a1.86 1.69 86.5 0 1-2.06-2.01q.24-2.85 2.97-4.43a1.03 1.03 0 0 1 1.53 1.09z" class="B"/><path d="M176.7 76.71c.31.37-.19.88-.52.58q.21-.34.52-.58z" class="D"/><path d="M173.57 82.18a.63.63 0 0 1 1.14-.08q.19.34-.1.99-.21.46-.69.23-.67-.32-.35-1.14zm204.85 20.37q-.95-.36-1.84-.94-5.68-3.68-11.13-6.55c-7.81-4.12-14.91-5.08-23.32-6.32q-.32-.05-.52-.2-.32-.25-.17-.48.33-1.59 1.23-2.8a.91.91 0 0 1 .8-.36c13.55 1.05 26.26 5.3 36.15 15.06a.77.76-38.1 0 1-.15 1.2q-.66.4-1.05 1.39z" class="B"/><path d="M341.44 88.06q-.15.23.17.48.2.15.52.2c8.41 1.24 15.51 2.2 23.32 6.32q5.45 2.87 11.13 6.55.89.58 1.84.94.22.69 1.8 1.59l-1.31.43q-6.77-2.77-14.18-3.74-2.67-.35-5.39-.72a3.89 3.88-25.5 0 1-1.42-.5l-6.92-4.1-9.48-6.42a.59.58-71.1 0 1-.26-.54q.03-.26.18-.49z" class="C"/><path d="M315.85 89.01c4.46 4.46 12.92 3.86 17.14-.51q-.09 2.47-1.73 5.42-.97 1.46-1.25 3.32a2.25 2.25 0 0 1-1.44 1.77q-3.62 1.38-5.29.61a.33.32 5.5 0 0-.45.37l.25 1.12a.79.79 0 0 0 .76.61q7.16.17 10.09-4.45l.3 2.73q-3.79 9.21-8.67 17.32a.84.84 0 0 1-1.34.14q-.3-.33-1-.57-.34-.11-.83.48-.42.49-1 .45-.38-.03-.96-.51-4.82-4.02-7.44-5.03-4.07-1.57-10.78-3.87a.68.67 14.6 0 0-.88.51q-.05.26.28.48 6.51 4.13 12.82 9.36 3.72 3.08 7.69 3.76a.62.61-71.1 0 1 .44.9q-.54 1-4.84 9.38-.87 1.68-1.42 1.95a.24.22 87.4 0 0-.1.12l-1.38 3.63a1.66 1.66 0 0 1-2.45.8l-8.04-5.18a4.13 4.09 85.6 0 1-.89-.77q-2.9-3.34-6.3-4.92-2.08-.96-2.82-1.99c-1.18-1.64-2.04-2.11-3.75-3.14a.53.52-5.6 0 0-.66.8q2.82 3.09 8.72 7.21a.65.64 56.4 0 1-.23 1.16q-.42.1-1.8-.49a.59.58-86 0 0-.79.69q.34 1.27 1.35 1.48a.39.38 83.7 0 1 .27.22q.43 1.01 2.31 2.27a2.33 2.15 86.6 0 1 .57.55q1.16 1.61 1.14 2.15a.54.51 20.4 0 0 .22.44l5.39 3.91a.88.85 12.7 0 1 .32.49q.29 1.21 1.78 1.65a1.21 1.14 68.5 0 1 .32.15q5.43 3.77 6.87 5.47a2.01 2-7.8 0 0 .73.55q1.05.5 1.92 1.25 5.22 4.49 7.08 5.44a.66.65 16 0 1 .36.64l-.13 1.82a2.01 2.01 0 0 0 1.09 1.94q3.01 1.54 6.55 2.18a3.42 3.29-25.1 0 1 .91.31q4.12 2.14 4.33 2.28.47.33 2.91 1.42 1.46.66 2.99 1.95a3.2 3.14 72 0 0 1.19.62q1.55.43 2.75 1.49a1.1 1.1 0 0 1-.99 1.9q-2.18-.52-5.19-2.48a1.17 1.17 0 0 1-.53-1.08l.05-.7a.77.77 0 0 0-1.45-.42l-3.97 7.29a.77.75 5.5 0 1-.46.37q-.45.11-.94-.06a.85.81 86.2 0 0-.98 1.18q.49 1.02.49 1.04a1.53 1.53 0 0 1-.1 1.14l-2.78 5.42a.88.88 0 0 1-.86.48l-1.13-.08a.79.79 0 0 0-.72 1.23l.68 1.03a1.01 1-47.4 0 1 .04 1.05l-3.86 7.1a1.2 1.2 0 0 0 .49 1.63l5.52 3.01a.42.42 0 0 1-.3.78q-5.12-1.26-8.82-5.63a1.25 1.14 81.4 0 0-.32-.26l-6.22-3.58a3.22 2.97-6.2 0 1-.65-.48l-3.36-3.22a.74.74 0 0 0-1.16.19l-1.06 1.93a1.32 1.31 36.3 0 0 .25 1.58q3.39 3.26 5.38 4.25 5.01 2.46 5.95 3.03a3.48 3.19 81.2 0 1 .66.53l2.96 3.11a.121.121 0 0 1-.15.19q-3.59-1.97-8.67-4.33-1.45-.68-3.15.02a.65.59-84.5 0 0-.31.28l-10.78 19.83a1.89 1.88-61.5 0 1-2.55.76l-1.99-1.09a2.07 2.07 0 0 1-.83-2.81l11.59-21.31a1.48 1.48 0 0 0-.31-1.81q-10.58-9.56-16.75-14.79c-.57-.47-.66-1.11-1-1.66a.88.88 0 0 0-1.52.04l-3.76 6.91a.69.69 0 0 1-1.26-.09q-.26-.7-.16-1.79a.34.34 0 0 0-.64-.18q-4.34 8.73-4.59 9.2c-1.77 3.32-3.47 5.02-4.99 7.51q-1.09 1.8-2.43 7.88a.84.83 17 0 0 .52.96l2.98 1.14a.86.85-69.4 0 1 .5 1.11l-.49 1.3a1.03 1.03 0 0 0 .13.99q2.57 3.46 7.05 3.73a1.31 1.24 21 0 1 .99 2.06q-.33.39-.45 1.01a1.09 1.06 28.9 0 0 .29.96q3.37 3.48 6.77 3.69a1.91 1.56-58.5 0 1 .44 3.21q-1.29 1.05-2.52-.18a1.65 1.59-81.7 0 1-.35-.49q-.68-1.49-1.24-1.69-4.94-1.78-8.75-6.18a.99.91 20.8 0 1-.2-.4l-.13-.56a1.75 1.73 6.2 0 0-.96-1.18q-2.53-1.18-4.96-3.95a1.77 1.7 19.8 0 1-.38-.77q-.51-2.47-3.06-5.52a1.03.96 30.3 0 0-1.77.4q-.06.47.68 1.54a.36.34-46.1 0 1 0 .39q-.22.31-.49.15-.81-.46-1.45.23l-.43-.59.54-3.83a1.3 1.21-21.1 0 0-2.22-.89q-.27.29.07 1.58-2.74-1.54-5.23-4.23-.56-.61-1.28-.21-.12.07-.24.41l-3.21 2.03a.47.45 76.9 0 0-.21.35l-.61 8.11a.27.27 0 0 1-.53.03q-.95-4.95-.34-9.9a.42.42 0 0 0-.71-.34l-.92.91a1.94 1.93-25.4 0 0-.56 1.56q.14 1.63-.49 3.59-.61.48-1 1.63-.46 1.65-1.4 1.62a1.14 1.08-70.5 0 1-.79-1.79c1.46-2.06 1.73-4.01 2.61-6.28q1.53-3.94 2.87-5.9a1.04 1.04 0 0 0-1.03-1.62q-1.13.19-2.06-.44-.89-.62-1.69-.41l-6.31-3.16q1.87-.19 1.74-2.92a.61.6-85.5 0 1 .72-.62l9.34 1.92q1.7 1.16 3.61 1.64l1.42.45 1.07.41-.51.64a.81.81 0 0 0 .42 1.29q4.84 1.33 9.18 3.58a1.53 1.44 28.7 0 0 1.99-.52q.13-.21.05-.9 1.26-.14 1.74-.64a.4.4 0 0 0-.18-.66l-18.8-5.64c-2.68-1.06-5.36-.58-8.23-2.5q-.34-.23-.41-.56-.09-.38-.01-.76l.27-.2a1.56 1.5-4.7 0 0 .43-.49l6.75-12.36q4.01-6.18 6.02-10.45 4.79-10.25 8.63-16.84 3.62-6.23 6.38-12.89 1.54-4.78 4.93-8.22.72.76 1.46.98a.72.71 18.1 0 0 .87-.43l.69-1.79a.59.58-66.4 0 1 .81-.32l13.22 6.64a.16.16 0 0 0 .23-.17l-.27-1.15a.29.29 0 0 0-.17-.21q-4.11-1.79-7.17-5.07a2.18 2.17 74.2 0 0-1.14-.64q-.98-.2-2.91-1.58a.72.72 0 0 1 .69-1.26l4.21 1.65q3.25 2.16 6.74.76a.47.47 0 0 0 .07-.84q-4.3-2.62-4.81-8.06a1.04 1.03 12.8 0 0-.5-.79l-1.5-.89a.79.78 22.6 0 1-.36-.86q1.4-5.56 2.05-6.66c4.97-8.45 12.28-14.95 22.55-14.96q2.05 0 4.24 1.49a.63.63 0 0 0 .98-.58l-.06-.57zm-18.11 21.68l4.81-4.72a.52.51-49.8 0 0-.06-.79l-2.13-1.49a.43.42-80.8 0 0-.65.47q.36 1.23.02 2.16a.73.6-25.3 0 1-.1.21l-2.4 3.59a.09.08-52.5 0 0 .01.12l.44.45a.04.04 0 0 0 .06 0zm-6.17 47.43a.64.64 0 0 0 .83.35l.73-.29a.78.78 0 0 0 .42-1.01l-11.43-28.02a2.19 2.17 6.1 0 0-.8-.98q-.67-.45-1.2-1.01a1.4 1.25-52.4 0 0-2.09.39q-.13.23-.23 1.21a.36.36 0 0 0 .56.34l1.08-.7a.47.47 0 0 1 .71.25l2.89 9.44a1.24 1.14 18.7 0 0 .23.42q1.3 1.53 1.53 2.19 2.04 5.91 6.77 17.42zm.22 15.6q.51-.11.78.64a.27.27 0 0 0 .5.02l13.95-27.74a.12.12 0 0 0-.06-.16l-.29-.15a.3.3 0 0 0-.41.13l-13.36 26.59a.51.5 15.1 0 1-.5.28q-.56-.04-.74.12a.16.15-71.5 0 0 .13.27zm-6.12-6.19q-.36 2.55.89 5.21a.61.61 0 0 0 1.16-.16l.36-2.2a1.24 1.24 0 0 0-.76-1.35q-.56-.2-1.05-1.56a.31.31 0 0 0-.6.06zm-20.662 34.369a1.88.73-117.3 0 0 .214 2.005 1.88.73-117.3 0 0 1.511 1.336 1.88.73-117.3 0 0-.214-2.005 1.88.73-117.3 0 0-1.511-1.336zM170.29 91.04l-5.03 10.12 5.03-10.12z" class="B"/><path d="M284.01 92.01q.02.58-.45 1.03-.06-.69.45-1.03zm47.25 1.91q2.25 1.61 2.67 3.35-2.93 4.62-10.09 4.45a.79.79 0 0 1-.76-.61l-.25-1.12a.33.32 5.5 0 1 .45-.37q1.67.77 5.29-.61a2.25 2.25 0 0 0 1.44-1.77q.28-1.86 1.25-3.32zm47.65 10.65q1.32.79 1 2.01-5.39-1.33-11.19-1.18-2.74-1.88-5.96-2.39l-9.71-4.26a.67.59 27.2 0 0-.81.2l-.03.05a.59.58 29.5 0 0 .23.82q4.08 2.14 9.39 4.79a2.56 2.28 28.8 0 1 1.19 3.36q-.46.74-1.86 1.43a1.11 1.11 0 0 1-.89.03l-10.41-4.21q-.14-3.78-.45-6.47-.09-.86 1.59-3.24l6.92 4.1a3.89 3.88-25.5 0 0 1.42.5q2.72.37 5.39.72 7.41.97 14.18 3.74z" class="D"/><path d="M362.76 103.01q1.13 4.24 5.96 2.39 5.8-.15 11.19 1.18l.72.04a.14.14 0 0 0 .15-.12q.01-.17.13-.39a.3.3 0 0 1 .51-.01q.44.66.34 1.08a.93.9 86.6 0 1-.57.66q-3.89 1.42-7.18 2.66-3.17 1.19-5.03 3.23a.36.36 0 0 0 .06.54l.27.19a1.14 1.14 0 0 0 1.3 0q7.02-4.95 16.75-3.7a.24.24 0 0 1 .21.26l-.02.29a.49.49 0 0 1-.47.46q-7.4.38-13.36 4.82a.96.95-31.2 0 0-.29 1.17l.02.05a.7.69-29.3 0 0 1.01.28q3.23-2.14 6.79-3.59 4.05-1.66 7.79-.16l-2.97 1.5a.97.96-38.6 0 1-1.04-.11c-.67-.55-1.29-.66-2.23-.35q-4.53 1.5-7.22 3a.56.55 47.7 0 0-.04.94l3.44 2.41a.31.31 0 0 1-.01.51l-.45.3a.46.45 45.6 0 1-.5-.01q-3.25-2.19-8.44-3.68-6.73-1.94-13.84-7.22c-2.18-1.61-5.27-3.51-7.93-5.23q-1.16-.76-1.56-.37a2.04 2.04 0 0 1-3.47-1.25q-.07-.82 1.57-1.49l5.51 1.93 10.41 4.21a1.11 1.11 0 0 0 .89-.03q1.4-.69 1.86-1.43a2.56 2.28 28.8 0 0-1.19-3.36q-5.31-2.65-9.39-4.79a.59.58 29.5 0 1-.23-.82l.03-.05a.67.59 27.2 0 1 .81-.2l9.71 4.26zm2.53 4.18l-2.03 2.9a.87.86-62.2 0 0 .4 1.3l2.26.86a1.03 1.02 27.5 0 0 1.2-.37l.67-.95a1.33 1.27-80 0 1 .68-.5l8.27-2.53a.21.21 0 0 0-.02-.4q-3.55-.68-7.48.01-.51.09-.92.54-.21.23-.37.38a.67.66-29.3 0 1-1.08-.3l-.23-.73a.76.76 0 0 0-1.35-.21z" class="C"/><g class="D"><path d="M280.49 99.22q-.12.61-.49 1-.32-.81.49-1zm60.01 2.37c.37 1.79-.17 3.71-.24 5.32q-.11 2.6-.55 6.49-2.21 19.33-4.3 34a.79.79 0 0 1-1.04.64q-.4-.14-.51-.29a.44.44 0 0 0-.76.05l-3.1 5.96a.84.83-61 0 0 .31 1.1l.25.15a.59.58 21.3 0 0 .87-.38q.64-2.87 2.33-4.12 1.97-1.45 3.46-.84 6.26 2.56 12.47 2.82a5.06 4.8 51.7 0 1 1.03.15q4.22 1.11 7.75 1.05c2.69-.05 4.29.66 6.86.72a2.16 2.13-28.3 0 1 1.02.3q3.4 2.02 3.95 3.08a.39.39 0 0 1-.33.56q-3.07.14-4.89-3.16a.22.22 0 0 0-.39.01l-3.15 6.27a.28.28 0 0 0 .1.37l8.59 5.09a.93.92 25.8 0 1 .4 1.13l-.11.28a.72.72 0 0 1-1.17.27q-1.67-1.6-3.52-2.01c-1.84-.41-3.03-1.73-4.9-2.07a.65.65 0 0 0-.52 1.15q1.05.82 1.19 1.11a.86.86 0 0 1-1.36 1q-3.73-3.56-7.04-3.45a.6.54-32 0 1-.28-.05l-15.24-5.8a.55.54 85.1 0 0-.66.79q.84 1.45 2.65 2.14 8.97 3.43 10.54 4.21.88.44 4.96 4.03a3.52 3.51 73.9 0 0 1.32.73l3.05.9a3.22 3.21-10.9 0 1 1.64 1.11c2.31 2.96 4.84 5.13 8.9 5.58q3.55.4 6.11.82a1.51 1.49-15.8 0 1 .84.46q3.25 3.57 7.13 4.37 3.15.65 4.52 1.45 1.45.85 4.64 1.29a.97.96-12.4 0 1 .68.43l.9 1.36a.66.65-33.4 0 0 .91.18l.31-.2a1.34 1.33-51.5 0 1 1.21-.14l3.84 1.47a1.64 1.64 0 0 0 1.16 0q1.86-.71 3.48-.32a.24.24 0 0 1 .17.29l-.06.28a.53.52-79.9 0 1-.56.4q-1.13-.14-1.61.36a.59.59 0 0 0 .27.98l6.45 1.8a.89.84-41.7 0 0 .43.01l1.41-.32a.42.41-6.7 0 1 .51.4v.37a.64.64 0 0 0 .41.6q.59.22 1.13-.22.7-.56.91-.47.88.35 1.11.62a.56.56 0 0 1-.1.83q-.63.43-.69 1.21l-6.27 10.78a.44.44 0 0 0 .28.65l6.93 1.59a.41.41 0 0 0 .45-.2l3.19-5.81a.17.02-52 0 1 .03-.05q2.35-3.16 3.88-6.77.54-1.33 2.17-1.18a1.61 1.59 32.8 0 0 .9-.19q1.07-.62 2.02-.8a.39.39 0 0 1 .4.58l-3.31 5.46q-.16.67-.5.87-.43.26-.85-.31-.31-.41-.87-.3a.64.62-81.1 0 0-.42.32q-.82 1.49-1.87 2.21a1.37 1.37 0 0 0-.55.81q-.6 2.6-2.98 5.25a.76.75-47 0 0 .03 1.04l.23.23a.55.54 39.8 0 0 .84-.07l2.06-2.94a1.05 1.03-25.9 0 0 .19-.53q.14-1.73.49-2.25a.77.77 0 0 1 1.4.55l-.17 1.01a3.49 3.44 64.8 0 1-.39 1.11l-11.63 20.21a.6.59 14.8 0 0 .52.89h.36a1.51 1.51 0 0 0 1.3-.74l6.86-11.58a.24.24 0 0 1 .41.01q.2.38.46.48a.35.35 0 0 0 .48-.23q.14-.44.64-.36a.13.12-68.9 0 1 .08.19l-7.43 12.55a.6.6 0 0 0 .31.87l4.7 1.75a.62.62 0 0 1-.24 1.2q-.75.04-1.4 1.55a.48.48 0 0 1-.9-.06q-.68-2.38-4.2-3.14-.57-.13-.65-.02-.18.27-.22.67a1.06 1.03-17.7 0 1-.34.64q-.91.8-1.19 1.19a.72.71-54.9 0 0 .17 1l3.11 2.17a1.03 1.01-38 0 0 .97.11q.65-.26 1.08-.13.83.26.67 1.18c-.1.56-.92.99-1.21 1.59q-1.02 2.15-2.12 3.45a.8.8 0 0 0 .39 1.28l6.36 1.83a.97.92-50.1 0 0 .72-.08q.4-.22.42-.24a.37.37 0 0 1 .58-.04l1.43 1.62a.66.66 0 0 1-.04.92q-3.63 3.43-4.07 8.1-.48-.15-.95.01a.7.68 3.4 0 0-.35.3l-14.29 24.52q-.21.46 0 .91l2 1.69q1.07.9 1.3.12l1.99-.79a.86.85 72.8 0 1 1.15.61l.52 2.28a.55.55 0 0 1-.47.67q-.77.09-1.68-.23 1.52.11 1.55-.54a.18.18 0 0 0-.2-.19l-6.21.47a.04.04 0 0 0-.04.04.13.13 0 0 0 .12.13l4.28.14c-1.43.13-3.99 1.03-4.97-.31q-.06-.48-.52-.52-.06-.46-.48-.47-1.18-.71-1.61.81-.66 2.31-2.53 4.57a1.15 1.15 0 0 0 .47 1.81c3.57 1.36 1.65 3.62 2.67 5.81q.51 1.12 1.26 2.39a.45.45 0 0 1-.53.65q-1.67-.58-5.13-.17a.36.36 0 0 1-.22-.67q.02-.01.33.07a.79.78 26.5 0 0 .83-.27q1.36-1.73.57-3.6.73-.81-1.52-1.33l-.69-.45a.61.6-58.2 0 0-.84.2l-30.94 52.2a.62.6-70.3 0 1-.61.3q-16.25-2.16-27.44-3.47-4.75-.55-8.91-.51-6.06-1.49-12.3-.99a3.21 2.61-36.8 0 1-.49-.02l-21.85-3.25-17.32-2.33a.98.98 0 0 1-.7-1.48l.79-1.26q.25-.35.31-.78a.8.8 0 0 0-.39-.81l-7.71-4.41 8.32 3.54a.56.55 17.8 0 0 .77-.38l.02-.06a.9.89-71.6 0 0-.49-.99q-8.04-3.87-10.99-5.82c-3.97-2.63-6.83-4.15-9.89-6.78q-.49-.42-6.28-4.87-2.77-2.13-4.61-4.19c-3.24-3.64-6.7-6.43-9.34-10.34q-2.75-4.08-4.25-6.36a2.7 2.55-73.2 0 1-.29-.58c-1.18-3.35-2.69-6.85-1.63-10.21a.7.7 0 0 1 1.08-.35q1.14.84 2.56 1.07a.81.81 0 0 0 .87-.48q.23-.56 2.49-4.99a1.11 1.07-77.3 0 0-.98-1.61q-.38.01-.51-.4a.45.44 51.2 0 1 .04-.38q.54-.84.56-1.65a.71.7 5 0 0-.61-.72l-1.28-.18 4-7.91q.36-.53.14-.96a.11.11 0 0 0-.2.02q-.05.23-.06.24a.39.39 0 0 1-.58.03q-1.45-1.43-2.39-3.58l-2.67-11.09a.34.34 0 0 0-.62-.11q-3.2 4.9-6.94 9.59-.3.38.11.98-.09-.76-1.82.01a.7.69-30.5 0 1-.84-.21l-1.04-1.41-2.59-10.6q-.01-.27-.14-.41-.17-.17-.41-.05-.18.09-.43.29l-6.73 9.24q-1.51.71-2.54-.66a.29.29 0 0 0-.47.01l-.23.36-2.59-11.07q-.13-.01-.17-.18a.2.19-26.4 0 0-.32-.1q-.09.07-.13.21l-6.3 8.59-1.25.6a.73.72 57.7 0 1-.87-.2l-1.02-1.23-2.72-9.31a.37.37 0 0 0-.66-.11l-5.19 7.31a.91.9-46.2 0 0 .02 1.08q.1.11.8.26l-.36.05a.58.58 0 0 0-.48.46q-.1.48.07 1.12l-6.51-1.26q.58.07 1.06-.03.48-.11.54-.5.05-.33-.09-.81.68-.01.96-.44.23-.36-.01-1.02-1.33-3.73-1.99-7.72a.54.53 58.7 0 0-.95-.24l-5.34 7.18q-.06.12-.12.24-.95 1.05-.87 1.83l-4.14-.77q.76.02 1.21-.21a.49.48 56.9 0 0 .15-.75l-.57-.67q.73.23.9-.5 0-.01 0-.02l-2.04-7.93a.59.59 0 0 0-1.06-.19l-4.57 6.52a.54.54 0 0 0 .51.85q.95-.11 1.81.38-2.52-.14-3.32 1.01-5.43-1.05-9.68-1.9-4.14-.82-8.25-1.75-2.11-.48-8.38-1.75-1.95-.4-2.91.4l-5.11-1.93a.52.49 3 0 1-.32-.33q-.07-.24.07-.66.08-.26.72-.2.42.05.44.03a.26.26 0 0 0-.06-.48q-1.48-.44-2.51-1.38l-1.1-4.59q.44-1.5-.21-1.52-.2-.42-.52-.72-.13-.33-.56.2-.98 1.91-2.72 3.06-1.15-.54-.71-1.64a.07.07 0 0 0-.06-.1q-.15.01-.26.02a.2.2 0 0 1-.19-.13q-.25-.8.2-.45.26.49.8.22a.53.42-78.3 0 0 .19-.16l1.3-1.73q.82.01.94-1.07.39-.55.28-.95-.6-2.28-1.47-5.64.08-1.9 1.53-2.03.87-.09 1.78.42a.76.75 47.2 0 0 .65.03q.37-.16.6-.54l.75.08q.32.42 1.28.2.08.02.17.04.29.31.83.17l1 .13q.51.45 1.2.08.32.68 1.27.24l3.5.64q.17.24.76.19l.71.05q1.76 1.68 4.21 1.88a.46.45-64.8 0 1 .28.78q-.67.66-.92 1.19-1.3 1.01-1.96 2.57-.91.1-.55.81c-2.34 1.66-1.08 3.91-.52 6q.19 1.72 1.03 3.37-.1.6.19 1.11.11.39.73.15.45-.17.22-.46l4.87-6.38q.99-.8.15-1.62-.1-1.49-1.05-3.55.32-.95-.54-3.41-.3-.88.92-1.05l6.93 1.07q.81.65 1.76.19l1.73.4q1.33.61 2.34.37l1.16.12q1.11.77 2.06.41l7.23 1.09.71.09 22.19 3.75q-1.18.33 1.32.3l4.23.78q.74.72 1.56.12l42.04 7.01a.78.77-68.7 0 0 .79-.35l.62-1.01q.82-.18.57-.76.38-.53.91-.7l3.78-2.56q-.19-.12.52-.49l2.56-.79a.5.5 0 0 0 .32-.66c-1.08-2.68-.51-7.64-.12-10.58q.22-1.64-.04-7.04l-.14-5.97a.47.47 0 0 0-.63-.43l-.26.1q.63-1.96.49-3.59a1.94 1.93-25.4 0 1 .56-1.56l.92-.91a.42.42 0 0 1 .71.34q-.61 4.95.34 9.9a.27.27 0 0 0 .53-.03l.61-8.11a.47.45 76.9 0 1 .21-.35l3.21-2.03 4.76 13.63a.86.86 0 0 0 1.65-.09q.53-2.34 1.5-3.9 1.36-.91.78-1.75.05-.06.1-.13.64-.69 1.45-.23.27.16.49-.15a.36.34-46.1 0 0 0-.39q-.74-1.07-.68-1.54a1.03.96 30.3 0 1 1.77-.4q2.55 3.05 3.06 5.52a1.77 1.7 19.8 0 0 .38.77q2.43 2.77 4.96 3.95a1.75 1.73 6.2 0 1 .96 1.18l.13.56a.99.91 20.8 0 0 .2.4q3.81 4.4 8.75 6.18.56.2 1.24 1.69a1.65 1.59-81.7 0 0 .35.49q1.23 1.23 2.52.18a1.91 1.56-58.5 0 0-.44-3.21q-3.4-.21-6.77-3.69a1.09 1.06 28.9 0 1-.29-.96q.12-.62.45-1.01a1.31 1.24 21 0 0-.99-2.06q-4.48-.27-7.05-3.73a1.03 1.03 0 0 1-.13-.99l.49-1.3a.86.85-69.4 0 0-.5-1.11l-2.98-1.14a.84.83 17 0 1-.52-.96q1.34-6.08 2.43-7.88c1.52-2.49 3.22-4.19 4.99-7.51q.25-.47 4.59-9.2a.34.34 0 0 1 .64.18q-.1 1.09.16 1.79a.69.69 0 0 0 1.26.09l3.76-6.91a.88.88 0 0 1 1.52-.04c.34.55.43 1.19 1 1.66q6.17 5.23 16.75 14.79a1.48 1.48 0 0 1 .31 1.81l-11.59 21.31a2.07 2.07 0 0 0 .83 2.81l1.99 1.09a1.89 1.88-61.5 0 0 2.55-.76l10.78-19.83a.65.59-84.5 0 1 .31-.28q1.7-.7 3.15-.02 5.08 2.36 8.67 4.33a.121.121 0 0 0 .15-.19l-2.96-3.11a3.48 3.19 81.2 0 0-.66-.53q-.94-.57-5.95-3.03-1.99-.99-5.38-4.25a1.32 1.31 36.3 0 1-.25-1.58l1.06-1.93a.74.74 0 0 1 1.16-.19l3.36 3.22a3.22 2.97-6.2 0 0 .65.48l6.22 3.58a1.25 1.14 81.4 0 1 .32.26q3.7 4.37 8.82 5.63a.42.42 0 0 0 .3-.78l-5.52-3.01a1.2 1.2 0 0 1-.49-1.63l3.86-7.1a1.01 1-47.4 0 0-.04-1.05l-.68-1.03a.79.79 0 0 1 .72-1.23l1.13.08a.88.88 0 0 0 .86-.48l2.78-5.42a1.53 1.53 0 0 0 .1-1.14q0-.02-.49-1.04a.85.81 86.2 0 1 .98-1.18q.49.17.94.06a.77.75 5.5 0 0 .46-.37l3.97-7.29a.77.77 0 0 1 1.45.42l-.05.7a1.17 1.17 0 0 0 .53 1.08q3.01 1.96 5.19 2.48a1.1 1.1 0 0 0 .99-1.9q-1.2-1.06-2.75-1.49a3.2 3.14 72 0 1-1.19-.62q-1.53-1.29-2.99-1.95-2.44-1.09-2.91-1.42-.21-.14-4.33-2.28a3.42 3.29-25.1 0 0-.91-.31q-3.54-.64-6.55-2.18a2.01 2.01 0 0 1-1.09-1.94l.13-1.82a.66.65 16 0 0-.36-.64q-1.86-.95-7.08-5.44-.87-.75-1.92-1.25a2.01 2-7.8 0 1-.73-.55q-1.44-1.7-6.87-5.47a1.21 1.14 68.5 0 0-.32-.15q-1.49-.44-1.78-1.65a.88.85 12.7 0 0-.32-.49l-5.39-3.91a.54.51 20.4 0 1-.22-.44q.02-.54-1.14-2.15a2.33 2.15 86.6 0 0-.57-.55q-1.88-1.26-2.31-2.27a.39.38 83.7 0 0-.27-.22q-1.01-.21-1.35-1.48a.59.58-86 0 1 .79-.69q1.38.59 1.8.49a.65.64 56.4 0 0 .23-1.16q-5.9-4.12-8.72-7.21a.53.52-5.6 0 1 .66-.8c1.71 1.03 2.57 1.5 3.75 3.14q.74 1.03 2.82 1.99 3.4 1.58 6.3 4.92a4.13 4.09 85.6 0 0 .89.77l8.04 5.18a1.66 1.66 0 0 0 2.45-.8l1.38-3.63a.24.22 87.4 0 1 .1-.12q.55-.27 1.42-1.95 4.3-8.38 4.84-9.38a.62.61-71.1 0 0-.44-.9q-3.97-.68-7.69-3.76-6.31-5.23-12.82-9.36-.33-.22-.28-.48a.68.67 14.6 0 1 .88-.51q6.71 2.3 10.78 3.87 2.62 1.01 7.44 5.03.58.48.96.51.58.04 1-.45.49-.59.83-.48.7.24 1 .57a.84.84 0 0 0 1.34-.14q4.88-8.11 8.67-17.32 2.79-.2 6.27 1.59zm-4.86 9.37q-.11 1.62.98 1.84a.69.68 14.2 0 0 .8-.47q.93-2.99.08-4.69a1.45 1.43-51.3 0 1-.1-.96l.71-2.91a1.37 1.36 85.7 0 0-1.84-1.59q-.16.06-.4.46-.67 1.14-3.54 6.34a.79.79 0 0 0 .15.96q1.14 1.07 2.44.51a.52.52 0 0 1 .72.51zm-1.974 2.088a1.12 1.12 0 0 0-.474-1.511l-.673-.352a1.12 1.12 0 0 0-1.512.474l-2.872 5.495a1.12 1.12 0 0 0 .474 1.511l.674.352a1.12 1.12 0 0 0 1.511-.474l2.872-5.494zm-.206 7.852q1.03-1.29.88-2.69a.89.89 0 0 1 .42-.84q.96-.61 1.68-2.19a1.01 1 26.7 0 0-.43-1.29l-.42-.22a.6.6 0 0 0-.82.24l-3.1 5.7a.95.94-60.6 0 0 .35 1.27l.36.22a.84.83 34.3 0 0 1.08-.2zm-4.031.362a.79.79 0 0 0-.354-1.059l-1.307-.651a.79.79 0 0 0-1.06.355l-2.838 5.692a.79.79 0 0 0 .355 1.06l1.307.651a.79.79 0 0 0 1.06-.355l2.838-5.692zm2.731 2.128q.16-.76-.9-1.41a.54.54 0 0 0-.76.2l-3.13 5.76a.43.38 62.9 0 0-.05.2q0 1.42 1.13 1.49a.56.52-23 0 1 .3.11l3.24 2.54a.72.71 21.8 0 0 1.15-.49q.15-1.39 1.48-2.67a1.24 1.18 75.4 0 0 .32-.58l.71-3.08a1.01 1.01 0 0 0-.91-1.23l-2.08-.16a.56.55 8.9 0 1-.5-.68zm-9.18 4l-3.51 6.45a.34.34 0 0 0 .08.42q3.2 2.64 5.83 4.43.93.63 1.39 1.17c1.13 1.35 2.54 1.05 3.53 2.58q.66 1.02 2.35 2.14a.71.7-71.2 0 0 1.09-.54l.58-7.64a1.15 1.14 13 0 0-.72-1.14q-2.27-.91-3.89-2.8a.8.77 70.8 0 0-.55-.28l-.95-.07a.44.42 69.2 0 1-.29-.14l-4.63-4.63a.2.19-53.1 0 0-.31.05zm-2.83 9l-1.18-.63a.3.3 0 0 0-.4.13l-2.86 5.37a1.64.76-62 0 0-.1 1.8l.37.2a1.64.76-62 0 0 1.44-1.09l2.86-5.37a.3.3 0 0 0-.13-.41zm-9.415 4.545a.87.87 0 0 0-.31-1.191l-3.778-2.216a.87.87 0 0 0-1.191.31l-.051.086a.87.87 0 0 0 .31 1.191l3.778 2.216a.87.87 0 0 0 1.191-.31l.051-.086zm14.645.413a.82.82 0 0 0-.349-1.106l-.16-.083a.82.82 0 0 0-1.106.349l-2.844 5.464a.82.82 0 0 0 .349 1.106l.16.083a.82.82 0 0 0 1.106-.349l2.844-5.464zm3.714 2.744a.63.63 0 0 0-.272-.848l-.302-.156a.63.63 0 0 0-.848.272l-2.944 5.728a.63.63 0 0 0 .272.848l.302.156a.63.63 0 0 0 .848-.272l2.944-5.728zm6.467 15.838l.22-1.4a.28.28 0 0 0-.24-.32l-.14-.02a3.04.86 8.6 0 0-3.13.39l-.04.26a3.04.86 8.6 0 0 2.88 1.3l.14.03a.28.28 0 0 0 .31-.24zm22.11 17.72l-6.67-3.39a.29.29 0 0 0-.39.13l-.09.17a2.08 2.02 26.9 0 0 .95 2.74l3.47 1.77a2.08 2.02 26.9 0 0 2.77-.86l.09-.17a.29.29 0 0 0-.13-.39zm7.17 4.21l-5.24-3.11a.83.82-72.6 0 0-1.24.65l-.04.45a1.14 1.12 17.7 0 0 .55 1.05l4.2 2.49a1.39 1.39 0 0 0 1.66-.19l.24-.22a.71.71 0 0 0-.13-1.12zm-12.7 32.43l6.04 1.39a1.38 1.37-69.2 0 0 1.52-.69l10.12-18.6a.65.64 37.5 0 1 1.04-.13q5.17 5.43 10.29 3.01 4.76-2.26 7.34-7.75.84-1.8-1.7-2.1a.57.57 0 0 0-.63.65q.6 3.76-3.19 5.66a.99.99 0 0 1-1.01-.08c-1.79-1.28-.52-4.27-3.43-4.57a.53.53 0 0 0-.58.55q.05 1.8 1.05 2.83a.36.36 0 0 1-.33.61c-3.22-.59-2.31-4.73-.75-6.38a.78.77-58.9 0 0-.31-1.26c-1.28-.43-2.85-.48-4.34-1.32q-.74-.42-2.05-.33a1.44 1.41-33.1 0 1-.7-.14q-1.53-.76-2.28-1.9a.91.91 0 0 0-1.58.09q-2.44 4.9-3.05 7.79a4.02 3.94 68.4 0 1-.59 1.4q-1.57 2.37-1.63 4.25a.85.85 0 0 1-.65.8l-1.13.26a1.11 1.09-83.5 0 0-.74.6c-.34.7-.11 1.66-.49 2.51q-.96 2.14-2.49 4.81a2.2 2.17-3.8 0 1-.61.69q-1.87 1.42-2.99 4.24a1.15 1.14-68.7 0 1-1.47.65l-2.55-.97a.46.45 71.5 0 0-.4.81l3.89 2.46a1.41 1.31 65.6 0 0 .38.16zm36.521-20.448a.98.79-177.8 0 0 .949.827.98.79-177.8 0 0 1.01-.752.98.79-177.8 0 0-.949-.827.98.79-177.8 0 0-1.01.752zm8.209 1.908a1.01 1.01 0 0 0-2.02 0 1.01 1.01 0 0 0 2.02 0zm12.86 32.05l7.49-13.61a.63.6 54.3 0 0 .06-.43q-.18-.87-1.29-.48a.59.58-20.9 0 1-.74-.33q-.26-.65-1.26-.94-2.91-.86-5.73-1.69a.92.92 0 0 0-1.05.42l-5.05 8.81q-.31.7-.49.87a.69.69 0 0 1-1.07-.83l11.5-20.99a1.14 1.14 0 0 0-.46-1.54l-.6-.33a1.75 1.74 28.5 0 0-2.37.7l-14.1 25.93a1.25 1.18-.1 0 1-.52.49q-.37.19-.53.38a.83.82-54.3 0 0 .19 1.2l.2.13a.67.67 0 0 0 .94-.23q.32-.57.81-.52a.67.61 66.2 0 1 .36.16q2.43 2.23 4.39 2.44 4.44.46 8.91 2.12a.52.52 0 0 0 .7-.39q.11-.57-.29-1.34zm16.407-31.125a1.51.58-62.1 0 0-1.219 1.063 1.51.58-62.1 0 0-.194 1.606 1.51.58-62.1 0 0 1.219-1.063 1.51.58-62.1 0 0 .194-1.606zm-21.007 1.505a1.08 1.08 0 0 0-2.16 0 1.08 1.08 0 0 0 2.16 0zm-2.92 5.69q.32.17 1.18-.21.62-.28.43-.96-.23-.82-.8-.9a1.16 1.1-25.1 0 0-.81 2.07zm-66.757.572a4.92.83-151.1 0 0 3.906 3.104 4.92.83-151.1 0 0 4.708 1.651 4.92.83-151.1 0 0-3.906-3.104 4.92.83-151.1 0 0-4.708-1.651zm37.667.918a1.05 1.05 0 1 0-2.1 0 1.05 1.05 0 1 0 2.1 0zm-35.96 3.66a.52.52 0 0 0 .25-.98q-2.12-1.12-4.6-.32a.78.77 72.6 0 0-.5.97l.11.35a.83.82 71.2 0 0 1.08.54q1.5-.56 3.66-.56zm-83.32 1.72l-.31 2.94q-.38 1.97.12 3.65v1.62q-.52 1 .01 1.37l.5 3.64q-.56 1.2-.09 2.76-.36 1.08-.12 1.98a.32.32 0 0 0 .54.15q1.51-1.49 2.11-3.93.55-.21.65-1.16.78-1.34.23-2.89.56-3.91-1.27-7.11-1.75-6.91-2.37-3.02zm86.82 6.79l2.04-3.44a1.32 1.32 0 0 0-.84-1.96l-4.24-.98a1.09 1.02-14.2 0 1-.51-.28l-.71-.7a.84.83 15.8 0 0-1.4.78l.53 2.31a.82.82 0 0 1-.98.98l-.79-.19a.92.92 0 0 0-.82 1.57q1.67 1.51 5.68 2.71a1.79 1.79 0 0 0 2.04-.8zm57.77-5.14a1.07 1.07 0 0 0-2.14 0 1.07 1.07 0 1 0 2.14 0zm-30.75 2.87a1.08 1.08 0 1 0-2.16 0 1.08 1.08 0 1 0 2.16 0zm-12.51 12.07l2.76-4.67a.71.71 0 0 1 .77-.32l13.01 3a.84.82-88.1 0 1 .64.7q.06.51-.21 1.31a.71.71 0 0 0 .94.89l3.99-1.63a.88.88 0 0 1 1.1 1.23l-2.91 5.34a.73.72 28.7 0 0 .29.98l.39.21a.82.82 0 0 0 1.11-.33l3.59-6.6a.62.62 0 0 0-.18-.8q-3.24-2.28-6.41-2a.93.92 68.2 0 1-.8-.35q-.44-.55-1.29-.73-4.27-.89-7.32-1.71-4.63-1.25-6.04-1.29a.38.31 51 0 1-.14-.03l-8.84-3.04a.79.78-66.1 0 0-.95.37l-3.72 6.83a.61.6-69.1 0 0 .39.88l9.07 2.09a.71.71 0 0 0 .76-.33zm11.32-7.404a1.19 1.01.3 0 0-1.185-1.016 1.19 1.01.3 0 0-1.195 1.004 1.19 1.01.3 0 0 1.185 1.016 1.19 1.01.3 0 0 1.195-1.004zm8.49 2.204a1.04 1.04 0 1 0-2.08 0 1.04 1.04 0 1 0 2.08 0zm17.806-.896a1.07.87-46.5 0 0-1.368.177 1.07.87-46.5 0 0-.105 1.375 1.07.87-46.5 0 0 1.368-.177 1.07.87-46.5 0 0 .105-1.375zm-268.146.926q-.21 1.35.2 1.96a.65.64 58.7 0 0 .85.21q.7-.4 1.24-1.46-1.79-2.43-2.29-.71zm8.78 6.89a1.63 1.61 55.3 0 0 .24-1.36c-.72-2.59-.72-5.7-4.38-4.5a1.47 1.47 0 0 0-.7.47l-2.35 2.86a.96.96 0 0 0-.19.81l1.81 7.89a.62.61 56.1 0 0 1.1.22l4.47-6.39zm247.73-4.52q.6-.72-.09-1.29a1.12 1.03 8.9 0 0-1.74 1.17q.21.44 1.52.29a.46.46 0 0 0 .31-.17zm-245.69-.63q-.83-.13-.89.4-.1.93.71 1.89a.52.52 0 0 0 .79.03q.89-.94 1.07-1.34.14-.31-.12-.59-.21-.24-.54-.34.17-.32-.48-.32-.54 0-.54.27zm165.02 14.32q-1.47 2.26.46 4.8 2.55 3.36 5.53 8.19a.63.63 0 0 0 1.16-.34q-.01-.82.22-1.15a1.7 1.43 31.3 0 1 2.1-.33q2.8 1.56 7.77 4.29a.55.54-35.7 0 1-.17 1.01q-1.02.19-1 1.24a.79.59-38.7 0 0 1.35-.04q.94-1.82 2.56-6.07a.76.75 21 0 0-.44-.97l-.31-.12a.94.94 0 0 0-1.26.69q-.15.72-.43 1.07a.82.8 32.7 0 1-1.01.21l-6.14-3.16a.86.86 0 0 1-.3-1.27q.87-1.22.8-1.64-.19-1.12-1.56-.66-.83.28-1.15 1.9a.76.75 34.1 0 1-1.37.26l-4.42-6.7a.55.55 0 0 1 .74-.78l10.72 6.21a.12.11 48.6 0 0 .08.01q.83-.23 1.58.65.69.82 1.76 1.11 1.27.35 3.62 1.68a.8.79-60.9 0 0 1.09-.32l.17-.3a.83.83 0 0 0-.32-1.11l-22.09-12.35a1.26.21 68.7 0 1-.52-.87q-.18-.43-2.83-1.97a.5.5 0 0 1 .04-.89q.75-.34 1.47.22a.78.78 0 0 0 .97-.01q1.27-1.02 1.32-2.16a.77.77 0 0 0-1.4-.47l-1.08 1.54a.33.32 45.5 0 1-.54-.01l-.33-.5a.42.4 47.5 0 1 .01-.46q.41-.58.84-.87a.96.96 0 0 0-.2-1.69l-4.52-1.72a.42.42 0 0 0-.53.56q.63 1.45 1.54 2.41a.77.77 0 0 1-.93 1.21l-1.18-.64a.71.71 0 0 0-1.05.69q.25 2.34 1.79 2.43c.57.03 1.12-.19 1.48-.14a1.19 1.18 76.9 0 1 .84.53q1.66 2.54 3.96 3.07a1.42 1.4 72 0 1 .54.28l2.43 2.05a.75.75 0 0 1-.75 1.27l-.33-.13a.67.66-63.2 0 0-.78.26zm89.343-12.486a1.21 1.01-17.6 0 0-1.459-.597 1.21 1.01-17.6 0 0-.848 1.329 1.21 1.01-17.6 0 0 1.459.597 1.21 1.01-17.6 0 0 .848-1.329zm-244.653.306q-.29.54.09.74l.87 2.85a.52.52 0 0 0 .92.14l1.92-2.75a.57.57 0 0 0-.29-.87q-1.57-.52-2.94-.67-.43-.05-.57.56zm7.29.51q-.72.07-.99.43-1.83 2.45-3.68 4.54a2.66 2.65-31.7 0 0-.58 2.45l1.99 7.32q.1.32.29.46.23.18.47-.01l5.16-7.19a1.16 1.15-33.6 0 0 .19-.92l-1.38-6.16q.18-.69-.2-1.04-.35-.31-.82-.29-.51.03-.45.41zm6.28 3.48q.6-.68 1.23-1.3a.54.54 0 0 0-.33-.93q-2.56-.23-3.17-.35-.22-.05-.42.18-.2.22-.13.43.19.59.71 3.11a.54.54 0 0 0 .96.23q.55-.7 1.15-1.37zm221.65 5.51l3.68 1.03q1.96.95 4.05.87a1.68 1.61 58.4 0 1 .92.24q.92.58 1.38.67 4.5.89 11.32 2.64a.62.62 0 0 0 .7-.31q2.04-3.92 2.9-4.76a.58.58 0 0 1 .89.73q-3.53 5.3-.76 5.08 2.91 1.39 4.95 1.13a1.08 1.06 10.5 0 0 .8-.54l2.07-3.82a1.31 1.31 0 0 0-.73-1.87q-1.84-.63-3.09-1.66l-1.57-.73a1.17 1.12 86 0 1-.53-.48c-1.59-2.79-4.3-1.95-6.73-2.74q-3.97-1.28-8.01-2.42a1.99 1.95 43.9 0 0-1.15.01q-1.81.56-4.3-.27a2.64 2.62-38.3 0 0-1.13-.13q-1.68.18-1.27.92-.83.91-.41 1.82-.24 1.1-2 .19a.43.43 0 0 1-.05-.73q.81-.6 1-1.65a.79.79 0 0 0-1.43-.59l-2.65 3.79a.58.53 69.2 0 0-.1.25q-.43 3.24 1.25 3.33zM162 228.67l-3.21 4.08a3.57 3.54-32.6 0 0-.67 2.99l1.73 7.56a.65.65 0 0 0 1.17.23l5.38-7.68a1.03.99 57.3 0 0 .15-.78l-1.21-5.26a1 .98 14.5 0 0-.33-.55l-.5-.43q-1.72-1.34-2.51-.16zm5.39 1.34q-.07.41.05.73l.61 2.12a.43.43 0 0 0 .68.22q.93-.7 1.89-2.38a.56.56 0 0 0-.21-.77q-1.31-.75-2.55-.52-.41.07-.47.6zm4.75 15.98q.06 0 .3-.14a.3.3 0 0 0 .11-.11l5.04-7.29a3.12 3.1-35.7 0 0 .44-2.62l-1.19-4.17a1.36 1.35-86.8 0 0-.78-.88q-.85-.36-2.76-.21a.94.93 8.2 0 0-.82.61q-.57 1.49-3.26 4.15a1.13 1.11 59.1 0 0-.28 1.14q1.11 3.5 2.22 8.83.14.69.98.69zm8.84-14.54q-.5-.24-1.19-.15-.62-.06-.72.38-.28 1.22.64 2.84a.54.53 58 0 0 .77.18q1.39-.96 1.63-2.22a.76.76 0 0 0-.4-.82q-.33-.16-.73-.21zm3.9.92l-3.23 3.93a3.22 3.19 58.6 0 0-.66 2.78l2 8.75a.68.68 0 0 0 1.22.23l6.03-8.62a1.09 1.08-34.4 0 0 .17-.87l-1.14-4.98a1 .99 89.9 0 0-.74-.75l-.74-.19q-.61-.47-1.51-.11-.11-.06-.23-.12-.11-.52-1.17-.05zm-50.25 1.03l-4.5 5.75a.07.07 0 0 0 .02.1v.01a3.7 3.69 38 0 0 5.19-.63l.04-.05a3.7 3.69 38 0 0-.65-5.19h0a.07.07 0 0 0-.1.01zm59.19.34l-1.7-.37a.41.41 0 0 0-.49.31l-.04.22a2.39 1.22-77.7 0 0 .68 2.59l.12.03a2.39 1.22-77.7 0 0 1.7-2.08l.04-.21a.41.41 0 0 0-.31-.49zm9.13 7.95q.61-.32.16-1.48-.48-2.32-1.15-4.58-.09-.31-.27-.45-.21-.16-.48-.25-.37-.12-.76-.08l-3.24-.56a.9.9 0 0 0-.97.49q-.99 2-2.78 3.57a1.73 1.72 62.6 0 0-.54 1.71l2.38 9.78a.92.87 21.6 0 0 .13.28l.32.43a.56.55 44.2 0 0 .9-.01l6.3-8.85zm-61.64.37l5.75.43a.51.5 83.5 0 0 .51-.65l-2-6.52a.48.48 0 0 0-.85-.13l-3.97 5.67a.76.76 0 0 0 .56 1.2zm63.95-3.64q.45.01.98-1.12.31-.66.1-1.17-.22-.54-1.03-.56-.8-.01-1.05.52-.23.5.05 1.17.49 1.15.95 1.16zm-49.57-1.46l-1.39 1.78q-.3.12-.53.46l-2.82 3.84a.75.74 20.2 0 0 .55 1.18l6.2.47a.63.63 0 0 0 .65-.78l-1.38-5.4q.26-.91-.17-1.31l-.33-.42q-.22-.28-.48-.21-.29.08-.3.39zm53.5 16.18l7.15-10.04a1.26 1.25 56.1 0 0 .19-1.01l-.92-3.79a1.13 1.12-1.3 0 0-.9-.84l-4.99-.87a.99.98-65.6 0 0-.92.35l-2.75 3.38a1.84 1.82-32.5 0 0-.36 1.59l2.56 11.04a.53.53 0 0 0 .94.19zm9.22-12.95q.63.15 1.3-1.12.23-.43-.02-.78-.21-.27-.76-.4-.56-.12-.86.04-.38.2-.35.69.06 1.43.69 1.57zm.61 3.15a.42.42 0 0 0-.07.33l2.83 12.36a.42.42 0 0 0 .75.15l7.72-11.03a.42.42 0 0 0 .07-.33l-1.18-5.13a.42.42 0 0 0-.38-.32l-6.38-.48a.42.42 0 0 0-.38.18l-2.98 4.27zm13.392-3.34a1.08.82-90.4 0 0-.812 1.086 1.08.82-90.4 0 0 .828 1.074 1.08.82-90.4 0 0 .813-1.086 1.08.82-90.4 0 0-.828-1.074zm3.798 1.12c-.35-.04-.63.06-.79.38q-.8 1.6-2.29 2.87a1.03 1.03 0 0 0-.34 1.03l2.95 12.92a.51.51 0 0 0 .88.21q.23-.26.4-.78-.1.53-.01.81a.24.24 0 0 0 .45.04q.06-.14.06-.33l2.03-1.84a.11.09-12.4 0 0 .04-.05l5.57-13.47a.57.56 4.7 0 0-.65-.76l-.66.15a1.02 1 12.6 0 0-.53.33c-.81.96-2.29 3.2-3.57 3.47q-1.08.23-1.37-.62a.42.42 0 0 0-.72-.13l-.29.36q-.08-.13-.16-.25.29-1.7 1.27-3.17.46.06.38-.54-.05-.32-.36-.22l-.78-.32q-1.04-.4-1.51-.09zm60.44 18.76q1.01 2.36 3.81 2.56a.74.72 86.3 0 1 .66.59l.04.29a.41.41 0 0 1-.44.47l-3.84-.28a1.02 1.01-15.4 0 1-.73-.41q-1.01-1.41-1.95-1.74-1.53-.53-1.78.37a.55.54-1.2 0 1-.35.36q-1.89.56-2.2-.54a.31.3 70.3 0 0-.41-.2q-.46.18-.2.93 2.17 6.27 7.15 10.49a1.43 1.43 0 0 1 .5.89q.19 1.26-.07 2.28a.57.57 0 0 0 .49.71q.47.05.63.01c2.93-.71 3.17 3.17 5.59 2.68a.49.49 0 0 1 .58.51l-.05.57a.55.55 0 0 0 1.04.29q.69-1.39.48-2.88a1.69 1.64-68 0 0-.3-.74l-2.38-3.24a.88.88 0 0 1 1.11-1.31l.91.46a1.14 1.14 0 0 0 1.52-.51l1.91-3.79a.87.87 0 0 1 .78-.48h2.04a.87.86 13.5 0 0 .77-.47l.84-1.69a.47.47 0 0 0-.68-.61l-.28.18a.66.66 0 0 1-.89-.16l-4.52-6.06a3.32 3.21 88.7 0 0-.76-.75l-5.34-3.73a.48.47-56.2 0 0-.67.14l-.14.22a.95.95 0 0 0 .21 1.24q1.41 1.16 1.82 2.07a.38.38 0 0 1-.41.53q-3.02-.53-4.69-2.39a1.31 1.28 30.7 0 0-2.23.54q-.01.01.03.3a.72.7 10.1 0 0 .38.53q1.25.61 1.7 1.23a2.82 2.68-77.2 0 1 .32.54zm-58.53 1.14q-.01-.01-.04-.08a.1.09 50.6 0 0-.16-.02q-.04.07-.08.15a.08.06 86.9 0 0 .09.1q.05-.05.11.03a.12.07 85.6 0 0 .08-.18zm11.983 4.532a.4.4 0 0 0-.566-.006l-.457.448a.4.4 0 0 0-.006.566l7.822 7.988a.4.4 0 0 0 .566.006l.457-.448a.4.4 0 0 0 .006-.566l-7.822-7.988zm44.038 7.211a1.24.84-129.5 0 0 .14 1.491 1.24.84-129.5 0 0 1.437.423 1.24.84-129.5 0 0-.141-1.491 1.24.84-129.5 0 0-1.437-.423zM249.9 274.27q-2.51-.69-5.92-.3a.44.43 75 0 1-.44-.26q-.23-.52-.81-.2a.52.52 0 0 0 .05.93l1.38.59a1.1 1.06 48.9 0 0 .67.06q1.89-.47 4.83.59a.61.61 0 0 0 .8-.48l.01-.04a.8.78-78.2 0 0-.57-.89zm-1.1 10.94q.2-2.38-1.81-3.67-3.2-2.04-1.79-4.76a.49.48-74.3 0 0-.39-.7q-1.31-.1-2.01.23a.75.73 70 0 0-.39.86q.67 2.49 2.09 3.72a.38.38 0 0 1-.28.66l-.44-.04a.26.26 0 0 0-.18.46l1.12.87q.5 1.6-.02 2.56a.85.84-69.7 0 1-.9.42l-4.09-.83a.86.83-10.5 0 1-.53-.35q-.23-.35-.47-.46a.74.62 3.5 0 0-1.03.76q.59 1.31 2.1 1.52 1.93.27 4.39.92a.6.59-80.9 0 1 .45.63l-.04.51a.42.41 6.8 0 0 .35.44q.45.08.79-.3.26-.29.15-.41-.44-.46.14-.72a.38.38 0 0 1 .51.2l1.14 2.8a2.71 2.67-84 0 0 .94 1.18l9.23 6.46a1.26 1.26 0 0 0 1.75-.31l.61-.86a.33.33 0 0 0-.25-.52l-.53-.04a.6.58-15.9 0 1-.43-.23l-3.83-4.99a1.03 1.03 0 0 1-.2-.72q.09-.75.84-1.66a1.42 1.41-24 0 0 .33-.85c.04-1.08-.13-1.67.89-2.42q1.02-.75 1.18-1.76a1.1 1.08-16.9 0 1 .35-.64l3.27-2.9a.62.62 0 0 0 .04-.88q-.61-.65-1.03-2.63a.48.48 0 0 0-.43-.39l-.37-.02a.48.48 0 0 0-.49.63q.56 1.68.13 3.17a1.89 1.74-62 0 1-2.91 1.02q-.52-.47-1.2-1.73a.82.8 48.9 0 1 .05-.84l1.64-2.34a.88.88 0 0 0 .09-.85l-.13-.33a.6.59 55.7 0 0-.98-.19q-3.22 3.4-1.79 5.37a.49.48 56.7 0 1-.14.71q-2.02 1.22-1.98 3.04a1.38 1.31-68.6 0 1-2.27 1.06q-.55-.58-1.24.14z"/><path d="M280 100.22l-1.16 2.49q-.02-1.36 1.16-2.49z"/></g><path d="M344.35 103.29q-1.64.67-1.57 1.49a2.04 2.04 0 0 0 3.47 1.25q.4-.39 1.56.37l7.93 5.23q7.11 5.28 13.84 7.22 5.19 1.49 8.44 3.68a.46.45 45.6 0 0 .5.01l.45-.3a.31.31 0 0 0 .01-.51l-3.44-2.41a.56.55 47.7 0 1 .04-.94q2.69-1.5 7.22-3c.94-.31 1.56-.2 2.23.35a.97.96-38.6 0 0 1.04.11l2.97-1.5q2.48-1.57 8.63-1.04 3.63 1.23 4.76 5.69.11.41.61.55.43.13.92.11l.53.12q1.65.83 3.25 1.04.61.13 1.21.66.65 1.27 1.35 1 .25.19.41.48.44.94 1.01.85 0 .08-.01.16.13.45.57.52 1.53 1.88 2.37 4.16a.78.77 79.5 0 0 .72.5l1.1-.01 1.49.04.75.13q.58.42 1.16.07 4.45 1.33 8.43 4.34 3.29 2.49 4.81 6.75a1.45 1.43 7.4 0 0 .57.73l3.64 2.45a.82.82 0 0 0 .24.12q2.36.64 3.35-.79a.89.88-61 0 1 1.06-.31q7.6 3.23 11.15 9.73l.77 9.07q-.07 1.18 1.68 2.2-3.1 1.08-1.55 2.91l-.65.04a.64.64 0 0 0-.6.51l-.18.84q-.08-.41-.4-.14a.33.31-9.7 0 0-.09.12q-.39.98-.32 2.08l-.73 2.15-7.56 11.22-1.29 1.28-3.62 3.92a3 2.53-80.8 0 1-.43.37l-4.63 3.15a.66.63 88.8 0 0-.22.24l-4.8 8.82a.95.95 0 0 1-.99.49q-1.25-.19-1.25-1.31l3.31-5.46a.39.39 0 0 0-.4-.58q-.95.18-2.02.8a1.61 1.59 32.8 0 1-.9.19q-1.63-.15-2.17 1.18l-8.49-.19q.06-.78.69-1.21a.56.56 0 0 0 .1-.83q-.23-.27-1.11-.62-.21-.09-.91.47-.54.44-1.13.22a.64.64 0 0 1-.41-.6v-.37a.42.41-6.7 0 0-.51-.4l-1.41.32a.89.84-41.7 0 1-.43-.01l-6.45-1.8a.59.59 0 0 1-.27-.98q.48-.5 1.61-.36a.53.52-79.9 0 0 .56-.4l.06-.28a.24.24 0 0 0-.17-.29q-1.62-.39-3.48.32a1.64 1.64 0 0 1-1.16 0l-3.84-1.47a1.34 1.33-51.5 0 0-1.21.14l-.31.2a.66.65-33.4 0 1-.91-.18l-.9-1.36a.97.96-12.4 0 0-.68-.43q-3.19-.44-4.64-1.29-1.37-.8-4.52-1.45-3.88-.8-7.13-4.37a1.51 1.49-15.8 0 0-.84-.46q-2.56-.42-6.11-.82c-4.06-.45-6.59-2.62-8.9-5.58a3.22 3.21-10.9 0 0-1.64-1.11l-3.05-.9a3.52 3.51 73.9 0 1-1.32-.73q-4.08-3.59-4.96-4.03-1.57-.78-10.54-4.21-1.81-.69-2.65-2.14a.55.54 85.1 0 1 .66-.79l15.24 5.8a.6.54-32 0 0 .28.05q3.31-.11 7.04 3.45a.86.86 0 0 0 1.36-1q-.14-.29-1.19-1.11a.65.65 0 0 1 .52-1.15c1.87.34 3.06 1.66 4.9 2.07q1.85.41 3.52 2.01a.72.72 0 0 0 1.17-.27l.11-.28a.93.92 25.8 0 0-.4-1.13l-8.59-5.09a.28.28 0 0 1-.1-.37l3.15-6.27a.22.22 0 0 1 .39-.01q1.82 3.3 4.89 3.16a.39.39 0 0 0 .33-.56q-.55-1.06-3.95-3.08a2.16 2.13-28.3 0 0-1.02-.3c-2.57-.06-4.17-.77-6.86-.72q-3.53.06-7.75-1.05a5.06 4.8 51.7 0 0-1.03-.15q-6.21-.26-12.47-2.82-1.49-.61-3.46.84-1.69 1.25-2.33 4.12a.59.58 21.3 0 1-.87.38l-.25-.15a.84.83-61 0 1-.31-1.1l3.1-5.96a.44.44 0 0 1 .76-.05q.11.15.51.29a.79.79 0 0 0 1.04-.64q2.09-14.67 4.3-34 .44-3.89.55-6.49c.07-1.61.61-3.53.24-5.32q1.83.4 3.85 1.7zm9.79 35.6q8.89 2.77 16.37 8.68 2.47 1.94 4.15 5.7a1.62 1.62 0 0 1 .12 1.02c-.62 3.1-.76 6.76 1.03 9.48q1.05 1.58 1.29 2.32a1.63 1.63 0 0 0 1.13 1.08l4.08 1.09a1.07 1.03-39.8 0 0 .43.03l5.4-.75a1.91 1.91 0 0 0 1.64-1.87l.05-5.62a1.45 1.44-64.9 0 0-.33-.92l-2.23-2.69a1.87 1.86 83.3 0 0-.63-.5q-4.1-1.99-5.3-3.69-.76-1.08-2.84-5.47a1 .99-37.3 0 1 .15-1.07c4.27-5.01 6.33-7.73 12.61-8.4q3.44-.37 4.53-.23a.22.22 0 0 0 .18-.37c-1.86-1.83-5.21-1.21-6.71-1.26a1.93 1.88 64.2 0 1-.85-.31l-6.74-4.51a.92.82-3 0 1-.21-.17q-3.79-3.96-8.57-6.13c-4.93-2.23-10.38.11-14.06 3.68a.15.15 0 0 1-.19.01l-.22-.16a.28.27 36.1 0 1-.07-.4q4.5-5.88 12.03-5.37a.52.51 87.7 0 0 .54-.59v-.02a.7.7 0 0 0-.63-.6q-5.54-.47-9.49 2.7-.97.78-1.76 1a1.47 1.43 10.5 0 0-.79.53c-4.65 6.13-8.14 12.18-5.96 19.52q1.04 3.5 2.96 4.89 2.54 1.84 5.42 2.09a.37.37 0 0 0 .22-.68c-4.61-2.85-8.09-5.62-7.41-11.61a.51.51 0 0 1 .66-.43zm69.37 5.6q-1.47.37-2.8 1.39a.77.77 0 0 0-.3.61q-.01.35-.39.48a.42.42 0 0 1-.46-.14q-2.02-2.64-3.6-1.08-.78 1.09-.6 2.49a.88.85 15.6 0 0 .36.61l4.04 2.83a.18.18 0 0 0 .28-.19q-.04-.17-.05-.26a.32.32 0 0 1 .5-.31l1.67 1.17a.74.73-74.3 0 0 1.15-.65l-.03-.47q3.17-.44 1.36-1.24l3.96-2.53a.67.66 73.8 0 0 .32-.59q-.03-.9-1.08-1.13a1 .98-8.9 0 1-.65-.46q-.8-1.31-2.49-2.18a.92.92 0 0 0-1.3.55q-.16.55.11 1.1zm-26.347 2.636a.81.81 0 0 0-.304-1.104l-4.017-2.282a.81.81 0 0 0-1.104.304l-.039.07a.81.81 0 0 0 .304 1.104l4.017 2.282a.81.81 0 0 0 1.104-.304l.039-.07zm-6.543 1.754q-1.75-.22-3.4-1.56a.7.69 36.3 0 0-1.01.15l-.12.25a.43.43 0 0 0 .14.53l4.17 2.92a.66.66 0 0 0 1.02-.37q.28-1-.24-1.62a.87.86-16.6 0 0-.56-.3zm47.02-.42q-.47-.42-.88-.59-.5-.21-1.02.04-.95.46-1.32.46a.39.39 0 0 0-.32.6q1.34 2.12 1.46 2.17a.9.89 7.7 0 1 .54.7q.93 6.54-.79 11.97a4.45 4.4-37.9 0 0-.19 1.47q.15 3.31-1.25 5.98-.23.43.16.75.34.29.76-.05l-.15 1.31a.58.58 0 0 0 .81.6c3.5-1.53 6.18.52 9.61 2.64a.55.55 0 0 0 .74-.17l2.58-4.01a4.93 4.89 69.2 0 0 .62-1.4q1.64-6.06 1.79-6.91 1.51-8.22-4.04-14.19a3.32 3.14-5.9 0 0-.86-.66q-3.55-1.86-7.71-1.92a.66.62 28.2 0 0-.33.09q-.76.44-.21 1.12zm-54.39.05l-.87 1.17a.41.41 0 0 0 .09.58l3 2.21a2.24 1 36.4 0 0 2.39.53l.17-.23a2.24 1 36.4 0 0-1.21-2.13l-3-2.22a.41.41 0 0 0-.57.09zm10.1 23.17l-2.3-.01a.77.77 0 0 0-.71 1.06l.28.7a.71.65-89.9 0 0 .32.35l7.55 3.79a.45.44 38.4 0 0 .48-.05q.55-.43.32-1.64l8.49 6.25a.45.44 37.9 0 0 .59-.07q.55-.61-.24-2.08-.03-.04-.52-.25-.41-.17-.56-.3a.22.22 0 0 1 .16-.39q.17.01.26.01a.82.8-82.5 0 0 .78-.61l2.26-8.94a.51.51 0 0 0-.54-.63q-1.73.17-2.15-.86a.17.17 0 0 1 .27-.2q.47.41 1.66.42a.99.98 18.2 0 0 .82-.41l1.6-2.29a.56.56 0 0 0-.05-.7q-.42-.46-.14-1.03a.7.69 3.5 0 1 .45-.39q1.49-.42 3.23-2.29a1.19 1.15-26.1 0 0 .31-.86l-.09-1.63a.53.53 0 0 0-.59-.5q-.7.09-3.31-.83a.78.77-73.7 0 1-.49-.91l.08-.37a.5.5 0 0 0-.86-.45q-.1.11-.22.27a1.17 1.15 24.7 0 1-1.19.43l-2.13-.49a.37.37 0 0 1-.2-.61q1.01-1.15-.04-2.89a1.15 1.11-4.3 0 0-.57-.47q-1.94-.75-2.79-2.28a.45.45 0 0 0-.85.17c-.33 3.12-1.64 4.58-2.27 7.21-.52 2.17-2.35 2.66-3.77 4.4-1.75 2.14-2.92 2.95-4.89 4.62a1.15 1.14 63.7 0 0-.38 1.14q.64 2.82 1.94 4.61zm32.1-14.27a.71.71 0 0 0 1.16-.08l3.64-6.14a.65.64 12.6 0 0-.62-.97q-.74.07-1.5.66-3.62 2.77-4.28 3.19a.75.75 0 0 0-.19 1.11l1.79 2.23zm2.99 1.36a1.11 1.11 0 0 0 .34 1.44l2.71 1.89a.84.84 0 0 0 1.27-.38q2.12-5.31 1.6-10.75a.81.81 0 0 0-1.51-.31l-4.41 8.11zm-93.52-48.32q-1.3.56-2.44-.51a.79.79 0 0 1-.15-.96q2.87-5.2 3.54-6.34.24-.4.4-.46a1.37 1.36 85.7 0 1 1.84 1.59l-.71 2.91a1.45 1.43-51.3 0 0 .1.96q.85 1.7-.08 4.69a.69.68 14.2 0 1-.8.47q-1.09-.22-.98-1.84a.52.52 0 0 0-.72-.51zm33.8-5.05q-4.83 1.85-5.96-2.39 3.22.51 5.96 2.39z" class="B"/><path d="M297.74 110.69a.04.04 0 0 1-.06 0l-.44-.45a.09.08-52.5 0 1-.01-.12l2.4-3.59a.73.6-25.3 0 0 .1-.21q.34-.93-.02-2.16a.43.42-80.8 0 1 .65-.47l2.13 1.49a.52.51-49.8 0 1 .06.79l-4.81 4.72z" class="D"/><g class="B"><path d="M380.22 104.14l12.79 8.7 3.54.09q.34-.01 1.12.37-6.15-.53-8.63 1.04-3.74-1.5-7.79.16-3.56 1.45-6.79 3.59a.7.69-29.3 0 1-1.01-.28l-.02-.05a.96.95-31.2 0 1 .29-1.17q5.96-4.44 13.36-4.82a.49.49 0 0 0 .47-.46l.02-.29a.24.24 0 0 0-.21-.26q-9.73-1.25-16.75 3.7a1.14 1.14 0 0 1-1.3 0l-.27-.19a.36.36 0 0 1-.06-.54q1.86-2.04 5.03-3.23 3.29-1.24 7.18-2.66a.93.9 86.6 0 0 .57-.66q.1-.42-.34-1.08a.3.3 0 0 0-.51.01q-.12.22-.13.39a.14.14 0 0 1-.15.12l-.72-.04q.32-1.22-1-2.01l1.31-.43zm-14.93 3.05a.76.76 0 0 1 1.35.21l.23.73a.67.66-29.3 0 0 1.08.3q.16-.15.37-.38.41-.45.92-.54 3.93-.69 7.48-.01a.21.21 0 0 1 .02.4l-8.27 2.53a1.33 1.27-80 0 0-.68.5l-.67.95a1.03 1.02 27.5 0 1-1.2.37l-2.26-.86a.87.86-62.2 0 1-.4-1.3l2.03-2.9z"/><rect x="-1.5" y="-4.22" transform="matrix(.886204 .463296 -.463296 .886204 330.9 115.1)" width="3" height="8.44" rx="1.12"/></g><path d="M396.55 112.93l-3.54-.09 3.54.09z" class="C"/><path d="M333.46 120.9a.84.83 34.3 0 1-1.08.2l-.36-.22a.95.94-60.6 0 1-.35-1.27l3.1-5.7a.6.6 0 0 1 .82-.24l.42.22a1.01 1 26.7 0 1 .43 1.29q-.72 1.58-1.68 2.19a.89.89 0 0 0-.42.84q.15 1.4-.88 2.69z" class="B"/><ellipse cx="0" cy="0" transform="matrix(.927836 -.372988 .372988 .927836 276.17 117.81)" rx=".08" ry=".02" class="E F"/><rect x="-1.52" y="-3.97" transform="matrix(.894934 .446198 -.446198 .894934 326.65 123.43)" width="3.04" height="7.94" rx=".79" class="B"/><path d="M403.96 119.65q-.49.02-.92-.11l.92.11z" class="D"/><path d="M407.74 120.81q-1.6-.21-3.25-1.04 1.77-.1 3.25 1.04z" class="C"/><path d="M353.48 139.32c-.68 5.99 2.8 8.76 7.41 11.61a.37.37 0 0 1-.22.68q-2.88-.25-5.42-2.09-1.92-1.39-2.96-4.89c-2.18-7.34 1.31-13.39 5.96-19.52a1.47 1.43 10.5 0 1 .79-.53q.79-.22 1.76-1 3.95-3.17 9.49-2.7a.7.7 0 0 1 .63.6v.02a.52.51 87.7 0 1-.54.59q-7.53-.51-12.03 5.37a.28.27 36.1 0 0 .07.4l.22.16a.15.15 0 0 0 .19-.01c3.68-3.57 9.13-5.91 14.06-3.68q4.78 2.17 8.57 6.13a.92.82-3 0 0 .21.17l6.74 4.51a1.93 1.88 64.2 0 0 .85.31c1.5.05 4.85-.57 6.71 1.26a.22.22 0 0 1-.18.37q-1.09-.14-4.53.23c-6.28.67-8.34 3.39-12.61 8.4a1 .99-37.3 0 0-.15 1.07q2.08 4.39 2.84 5.47 1.2 1.7 5.3 3.69a1.87 1.86 83.3 0 1 .63.5l2.23 2.69a1.45 1.44-64.9 0 1 .33.92l-.05 5.62a1.91 1.91 0 0 1-1.64 1.87l-5.4.75a1.07 1.03-39.8 0 1-.43-.03l-4.08-1.09a1.63 1.63 0 0 1-1.13-1.08q-.24-.74-1.29-2.32c-1.79-2.72-1.65-6.38-1.03-9.48a1.62 1.62 0 0 0-.12-1.02q-1.68-3.76-4.15-5.7-7.48-5.91-16.37-8.68a.51.51 0 0 0-.66.43zm33.62 19.67q-1.51-.59-3.56-2.53a.53.53 0 0 0-.89.29q-.22 1.19.37 2.54a.9.89-43.2 0 1-.03.79q-.43.83.41 1.53 2.02 1.7 3.39 2.57a.46.45-73.8 0 0 .7-.39v-4.23a.61.61 0 0 0-.39-.57z" class="D"/><path d="M410.3 122.47q-.7.27-1.35-1 .94.28 1.35 1z" class="C"/><path d="M332.66 124.07l2.08.16a1.01 1.01 0 0 1 .91 1.23l-.71 3.08a1.24 1.18 75.4 0 1-.32.58q-1.33 1.28-1.48 2.67a.72.71 21.8 0 1-1.15.49l-3.24-2.54a.56.52-23 0 0-.3-.11q-1.13-.07-1.13-1.49a.43.38 62.9 0 1 .05-.2l3.13-5.76a.54.54 0 0 1 .76-.2q1.06.65.9 1.41a.56.55 8.9 0 0 .5.68zm-57.76-.84q-.96-.41-1.74-.28-.17-2.09 1.74.28z" class="B"/><path d="M411.72 123.8q-.57.09-1.01-.85.67.21 1.01.85zm.56.68q-.44-.07-.57-.52.41.13.57.52z" class="C"/><path d="M291.57 158.12q-4.73-11.51-6.77-17.42-.23-.66-1.53-2.19a1.24 1.14 18.7 0 1-.23-.42l-2.89-9.44a.47.47 0 0 0-.71-.25l-1.08.7a.36.36 0 0 1-.56-.34q.1-.98.23-1.21a1.4 1.25-52.4 0 1 2.09-.39q.53.56 1.2 1.01a2.19 2.17 6.1 0 1 .8.98l11.43 28.02a.78.78 0 0 1-.42 1.01l-.73.29a.64.64 0 0 1-.83-.35z" class="D"/><path d="M323.29 127.34l4.63 4.63a.44.42 69.2 0 0 .29.14l.95.07a.8.77 70.8 0 1 .55.28q1.62 1.89 3.89 2.8a1.15 1.14 13 0 1 .72 1.14l-.58 7.64a.71.7-71.2 0 1-1.09.54q-1.69-1.12-2.35-2.14c-.99-1.53-2.4-1.23-3.53-2.58q-.46-.54-1.39-1.17-2.63-1.79-5.83-4.43a.34.34 0 0 1-.08-.42l3.51-6.45a.2.19-53.1 0 1 .31-.05z" class="B"/><path d="M417.96 129.17l-1.49-.04 1.49.04zm1.91.2q-.58.35-1.16-.07l1.16.07zm-169.9 43.35L271 132.54q-2.76 6.66-6.38 12.89-3.84 6.59-8.63 16.84-2.01 4.27-6.02 10.45z" class="C"/><g class="B"><path d="M320.15 136.39a.3.3 0 0 1 .13.41l-2.86 5.37a1.64.76-62 0 1-1.44 1.09l-.37-.2a1.64.76-62 0 1 .1-1.8l2.86-5.37a.3.3 0 0 1 .4-.13l1.18.63z"/><rect x="-3.06" y="-.92" transform="matrix(.862514 .506034 -.506034 .862514 308.07 139.43)" width="6.12" height="1.84" rx=".87"/><rect x="-.91" y="-3.9" transform="matrix(.887011 .461749 -.461749 .887011 323.15 143.66)" width="1.82" height="7.8" rx=".82"/></g><path d="M424.64 149.73q-2.14-.23-3.74-2.27a.5.5 0 0 1 .24-.79q1.68-.54 3.61-.48a.47.46-12.4 0 0 .43-.67q-.39-.8-1.67-1.03-.27-.55-.11-1.1a.92.92 0 0 1 1.3-.55q1.69.87 2.49 2.18a1 .98-8.9 0 0 .65.46q1.05.23 1.08 1.13a.67.66 73.8 0 1-.32.59l-3.96 2.53z" class="D"/><rect x="-.8" y="-3.85" transform="matrix(.889416 .457098 -.457098 .889416 326.91 146.59)" width="1.6" height="7.7" rx=".63" class="B"/><g class="C"><rect x="-3.12" y="-.85" transform="matrix(.869495 .493942 -.493942 .869495 394.43 145.62)" width="6.24" height="1.7" rx=".81"/><path d="M424.64 149.73q1.81.8-1.36 1.24l-7.32-5.22q1.58-1.56 3.6 1.08a.42.42 0 0 0 .46.14q.38-.13.39-.48a.77.77 0 0 1 .3-.61q1.33-1.02 2.8-1.39 1.28.23 1.67 1.03a.47.46-12.4 0 1-.43.67q-1.93-.06-3.61.48a.5.5 0 0 0-.24.79q1.6 2.04 3.74 2.27z"/></g><path d="M415.96 145.75l7.32 5.22.03.47a.74.73-74.3 0 1-1.15.65l-1.67-1.17a.32.32 0 0 0-.5.31q.01.09.05.26a.18.18 0 0 1-.28.19l-4.04-2.83a.88.85 15.6 0 1-.36-.61q-.18-1.4.6-2.49z" class="D"/><path d="M291.66 173.45q.18-.16.74-.12a.51.5 15.1 0 0 .5-.28l13.36-26.59a.3.3 0 0 1 .41-.13l.29.15a.12.12 0 0 1 .06.16l-13.95 27.74a.27.27 0 0 1-.5-.02q-.27-.75-.78-.64a.16.15-71.5 0 1-.13-.27zm99.52-24.27q.52.62.24 1.62a.66.66 0 0 1-1.02.37l-4.17-2.92a.43.43 0 0 1-.14-.53l.12-.25a.7.69 36.3 0 1 1.01-.15q1.65 1.34 3.4 1.56a.87.86-16.6 0 1 .56.3z" class="C"/><path d="M434.79 171.96q1.83-2.74 1.6-6.22a2.04 2-35 0 1 .18-.96q3.64-7.87 1.07-16.32-.55-.68.21-1.12a.66.62 28.2 0 1 .33-.09q4.16.06 7.71 1.92a3.32 3.14-5.9 0 1 .86.66q5.55 5.97 4.04 14.19-.15.85-1.79 6.91a4.93 4.89 69.2 0 1-.62 1.4l-2.58 4.01a.55.55 0 0 1-.74.17c-3.43-2.12-6.11-4.17-9.61-2.64a.58.58 0 0 1-.81-.6l.15-1.31z" class="D"/><path d="M437.64 148.46q2.57 8.45-1.07 16.32a2.04 2-35 0 0-.18.96q.23 3.48-1.6 6.22-.42.34-.76.05-.39-.32-.16-.75 1.4-2.67 1.25-5.98a4.45 4.4-37.9 0 1 .19-1.47q1.72-5.43.79-11.97a.9.89 7.7 0 0-.54-.7q-.12-.05-1.46-2.17a.39.39 0 0 1 .32-.6q.37 0 1.32-.46.52-.25 1.02-.04.41.17.88.59zm-1.35 1.79a.03.03 0 1 0-.06 0 .03.03 0 1 0 .06 0zm-53.04-1.74a.41.41 0 0 1 .57-.09l3 2.22a2.24 1 36.4 0 1 1.21 2.13l-.17.23a2.24 1 36.4 0 1-2.39-.53l-3-2.21a.41.41 0 0 1-.09-.58l.87-1.17z" class="C"/><path d="M399.29 175.88l-5.94-4.2q-1.3-1.79-1.94-4.61a1.15 1.14 63.7 0 1 .38-1.14c1.97-1.67 3.14-2.48 4.89-4.62 1.42-1.74 3.25-2.23 3.77-4.4.63-2.63 1.94-4.09 2.27-7.21a.45.45 0 0 1 .85-.17q.85 1.53 2.79 2.28a1.15 1.11-4.3 0 1 .57.47q1.05 1.74.04 2.89a.37.37 0 0 0 .2.61l2.13.49a1.17 1.15 24.7 0 0 1.19-.43q.12-.16.22-.27a.5.5 0 0 1 .86.45l-.08.37a.78.77-73.7 0 0 .49.91q2.61.92 3.31.83a.53.53 0 0 1 .59.5l.09 1.63a1.19 1.15-26.1 0 1-.31.86q-1.74 1.87-3.23 2.29a.7.69 3.5 0 0-.45.39q-.28.57.14 1.03a.56.56 0 0 1 .05.7l-1.6 2.29a.99.98 18.2 0 1-.82.41q-1.19-.01-1.66-.42a.17.17 0 0 0-.27.2q.42 1.03 2.15.86a.51.51 0 0 1 .54.63l-2.26 8.94a.82.8-82.5 0 1-.78.61q-.09 0-.26-.01a.22.22 0 0 0-.16.39q.15.13.56.3.49.21.52.25.79 1.47.24 2.08a.45.44 37.9 0 1-.59.07l-8.49-6.25zm11.11-17.25l-3.96-2.15a1.36 1.35-61.3 0 0-1.83.54l-1.64 3.03a1.77 1.75-58.2 0 0 .53 2.29l2.24 1.56a1.3 1.3 0 0 0 1.95-.56q1.64-3.85 2.68-4.24a.26.26 0 0 0 .03-.47zm.27 3.98q-.02.03-.05.06a.23.1-51.8 0 1-.14.07q-1.02-.07-1.34.36-.57.76.01 1.38.48.52 1.62.25a.71.7-12.2 0 0 .53-.81q-.17-.92-.11-1.02.06-.11.92-.45a.71.7 70.1 0 0 .41-.88q-.38-1.11-1.07-1.24-.83-.17-1.18.72-.19.5.41 1.33a.23.1-70.3 0 1 .01.15q0 .04-.02.08z" class="D"/><circle cx="436.26" cy="150.25" r=".03" class="B"/><path d="M425.45 157.41l-1.79-2.23a.75.75 0 0 1 .19-1.11q.66-.42 4.28-3.19.76-.59 1.5-.66a.65.64 12.6 0 1 .62.97l-3.64 6.14a.71.71 0 0 1-1.16.08zm2.99 1.36l4.41-8.11a.81.81 0 0 1 1.51.31q.52 5.44-1.6 10.75a.84.84 0 0 1-1.27.38l-2.71-1.89a1.11 1.11 0 0 1-.34-1.44zm-228.36-7.6q.79.38.35 1.33-6.55 13.97-9.67 20-.36.68-1.1.32-.74-.36-.43-1.06 2.76-6.2 9.59-20.03.46-.95 1.26-.56zm306.95 28.05q.24-1.31.22-2.64-.01-.7-.34-1.07-.47-.52-1.04-.25c-.84-1.27-2.44-1.09-3.34-1.48q-2.06-.89-4.12-1.97a1.52 1.52 0 0 0-2.02.58l-3.68 6.33q-3.47 3.17-4.46 8.11a1.42 1.37 71.7 0 1-.31.65q-1.15 1.33-1.33 3.06a.19.18 18.8 0 0 .09.17l.22.13a.24.23 46.8 0 1-.01.41q-1.38.7-3.61 4.05a.15.15 0 0 1-.25.01q-.07-.09-.1-.27a.47.46 59.5 0 0-.82-.22q-2.62 3.32-3.46 5.24a.35.35 0 0 1-.58.1q-.61-.63-1.36.42-1.19 1.66-2.37 3.32a.95.95 0 0 1-.88.4q-3.09-.36-5.08 2.39l-8.72 2.13q.01-.8-1.28-.91-1.49-.12-2.41 1.29-2.39 3.67-5.62 9.35a.32.31 30.5 0 1-.44.11l-.26-.16a.24.24 0 0 1-.09-.33l5.85-9.87a.66.66 0 0 0-.32-.95q-3.69-1.52-5.71-4.97-.45-.77-.93-1.35a1.44 1.43-67 0 1-.3-.75q-.23-2.41-1.59-4.76a.55.54 42.3 0 1-.03-.51q.32-.67-.52-1.11-.07-.04-2.56-.83-.36-.12-.44-.28-.11-.25-.02-.55.09-.35.62-.35.57.01.66-.02a.59.58 63.4 0 0 .28-.86l-1.53-2.33a1 .99-20.2 0 0-.96-.44q-.71.1-1.07-.69a.79.78 56 0 1 .17-.88q1.01-1 1.02-2l1.29-1.28 1.52 3.44a.9.89-34.7 0 1-.19 1l-.47.47a.61.61 0 0 0 .12.95l3.16 1.87a.39.39 0 0 0 .58-.24q1.79-7.46 1.8-7.79c.05-1.37 1.96-2.79 1.23-4.29a.28.28 0 0 1 .3-.39q.16.02.67-.47 3.46-3.34 1.14-3.3 2.56.01 1.39-.74 1.01-.58 1.48-1.48a.61.61 0 0 0-.32-.85l-.97-.36a.87.85-75.9 0 1-.54-.92q.29-2.25-.37-3.72-1.55-1.83 1.55-2.91 1.04.47 1.91-.2a1.53 1.52 86.3 0 1 2.24 1.98q-.68 1.19-2.94 2.34a.29.28 41.9 0 0 .03.52l1.2.46a1.48 1.48 0 0 0 1.51-.28l4.91-4.39a1.6 1.59-7 0 0 .37-.47l1.49-2.77a.9.9 0 0 0-.61-1.31q-4.28-.89-7.77-2.99a1.18 1.18 0 0 0-1.65.45l-2.37 4.46-.77-9.07 18.93 7.18a1.71 1.64 48.2 0 0 .93.07q3.17-.66 3.76-.72 8.55-.92 13.02 6.85.97 1.68 2.83 1.4a.71.71 0 0 0 .32-1.27l-1.78-1.34a.57.56 53.2 0 1 .14-.98h.02a1.44 1.44 0 0 1 1.44.2c2.03 1.58 4.5.82 6.62 2.69a1.36 1.33-69.9 0 1 .46 1.02q0 .83-.5 1.37a.85.85 0 0 0 .43 1.4q3.59.86 5.37 1.76a.75.75 0 0 0 .93-.2q.8-1.01 1.65-1.5a1.66 1.66 0 0 1 2.43 1.88q-.76 2.66.86 4.77a.75.75 0 0 1-.67 1.2q-2.12-.2-3.28 1.05zm-16.2-9.52v3.5a.47.47 0 0 0 .87.24l1.25-2.11a1.09 1.08-59.3 0 0-.37-1.48l-.99-.58a.5.5 0 0 0-.76.43z" class="D"/><path d="M387.49 159.56v4.23a.46.45-73.8 0 1-.7.39q-1.37-.87-3.39-2.57-.84-.7-.41-1.53a.9.89-43.2 0 0 .03-.79q-.59-1.35-.37-2.54a.53.53 0 0 1 .89-.29q2.05 1.94 3.56 2.53a.61.61 0 0 1 .39.57zm22.91-.93a.26.26 0 0 1-.03.47q-1.04.39-2.68 4.24a1.3 1.3 0 0 1-1.95.56l-2.24-1.56a1.77 1.75-58.2 0 1-.53-2.29l1.64-3.03a1.36 1.35-61.3 0 1 1.83-.54l3.96 2.15zm-74.84 1.3a.28.28 0 0 1-.31.24l-.14-.03a3.04.86 8.6 0 1-2.88-1.3l.04-.26a3.04.86 8.6 0 1 3.13-.39l.14.02a.28.28 0 0 1 .24.32l-.22 1.4z" class="B"/><path d="M165.86 163.18q-.49 4.56-3.9 8.22a.29.29 0 0 1-.5-.26l.19-.8a.72.72 0 0 0-.54-.86l-14.37-3.31a1.13 1.13 0 0 1-.53-1.91q1.49-1.44.53-3.7a.32.32 0 0 1 .36-.44l16.87 3.89a.83.83 0 0 0 .86-.33l.49-.7a.3.3 0 0 1 .54.2z" class="D"/><path d="M411.19 162.9q-.06.1.11 1.02a.71.7-12.2 0 1-.53.81q-1.14.27-1.62-.25-.58-.62-.01-1.38.32-.43 1.34-.36a.23.1-51.8 0 0 .14-.07q.03-.03.05-.06.02-.04.02-.08a.23.1-70.3 0 0-.01-.15q-.6-.83-.41-1.33.35-.89 1.18-.72.69.13 1.07 1.24a.71.7 70.1 0 1-.41.88q-.86.34-.92.45z" class="B"/><path d="M285.67 167.53a.31.31 0 0 1 .6-.06q.49 1.36 1.05 1.56a1.24 1.24 0 0 1 .76 1.35l-.36 2.2a.61.61 0 0 1-1.16.16q-1.25-2.66-.89-5.21z" class="D"/><path d="M452.59 167.96q-.15 1.23-.81 2.06-.07-1.1.32-2.08a.33.31-9.7 0 1 .09-.12q.32-.27.4.14zm-59.24 3.72l5.94 4.2q.23 1.21-.32 1.64a.45.44 38.4 0 1-.48.05l-7.55-3.79a.71.65-89.9 0 1-.32-.35l-.28-.7a.77.77 0 0 1 .71-1.06l2.3.01zm57.7.49q-.58 1.36 1.64 1.44-.53.39.66 1.03 2.32-.04-1.14 3.3-.51.49-.67.47a.28.28 0 0 0-.3.39c.73 1.5-1.18 2.92-1.23 4.29q-.01.33-1.8 7.79a.39.39 0 0 1-.58.24l-3.16-1.87a.61.61 0 0 1-.12-.95l.47-.47a.9.89-34.7 0 0 .19-1l-1.52-3.44 7.56-11.22z" class="C"/><path d="M452.69 173.61l2.05.29q1.17.75-1.39.74-1.19-.64-.66-1.03z" class="B"/><path d="M357.67 177.65a.29.29 0 0 1 .13.39l-.09.17a2.08 2.02 26.9 0 1-2.77.86l-3.47-1.77a2.08 2.02 26.9 0 1-.95-2.74l.09-.17a.29.29 0 0 1 .39-.13l6.67 3.39zm149.36 1.57l-5.56 10.06a4.63 4.63 0 0 0-.33.77q-1.19 3.77-3.75 6.31a3.64 3.45 84 0 0-.49.64l-24.46 41.47q-.73.28-.67 1.05l-2.33 3.82a1.26 1.23 66.2 0 0-.18.48q-.56 4.03-3.69 6.58a1.47 1.28-88.7 0 0-.31.34l-6.22 10.13a.55.31-29 0 0-.05.08l-1.48 2.9a1.25 1.21-88.2 0 1-.61.59q-1.04.46-1.54 1.45a1.54 1.49-86.8 0 1-.78.72q-2.21.88-2.78-1.98a1.4 1.4 0 0 0-1.07-1.11l-5.37-1.24a.78.78 0 0 0-.83.35l-.83 1.4a1.16 1.13-78.4 0 1-.81.55q-2.85.39-4.58-1.02a1.71 1.68-80.3 0 1-.57-.82q-.82-2.6-2.76-3.01-7.66-1.62-15.7-3.55.44-4.67 4.07-8.1a.66.66 0 0 0 .04-.92l-1.43-1.62a.37.37 0 0 0-.58.04q-.02.02-.42.24a.97.92-50.1 0 1-.72.08l-6.36-1.83a.8.8 0 0 1-.39-1.28q1.1-1.3 2.12-3.45c.29-.6 1.11-1.03 1.21-1.59q.16-.92-.67-1.18-.43-.13-1.08.13a1.03 1.01-38 0 1-.97-.11l-3.11-2.17a.72.71-54.9 0 1-.17-1q.28-.39 1.19-1.19a1.06 1.03-17.7 0 0 .34-.64q.04-.4.22-.67.08-.11.65.02 3.52.76 4.2 3.14a.48.48 0 0 0 .9.06q.65-1.51 1.4-1.55a.62.62 0 0 0 .24-1.2l-4.7-1.75a.6.6 0 0 1-.31-.87l7.43-12.55a.13.12-68.9 0 0-.08-.19q-.5-.08-.64.36a.35.35 0 0 1-.48.23q-.26-.1-.46-.48a.24.24 0 0 0-.41-.01l-6.86 11.58a1.51 1.51 0 0 1-1.3.74h-.36a.6.59 14.8 0 1-.52-.89l11.63-20.21a3.49 3.44 64.8 0 0 .39-1.11l.17-1.01a.77.77 0 0 0-1.4-.55q-.35.52-.49 2.25a1.05 1.03-25.9 0 1-.19.53l-2.06 2.94a.55.54 39.8 0 1-.84.07l-.23-.23a.76.75-47 0 1-.03-1.04q2.38-2.65 2.98-5.25a1.37 1.37 0 0 1 .55-.81q1.05-.72 1.87-2.21a.64.62-81.1 0 1 .42-.32q.56-.11.87.3.42.57.85.31.34-.2.5-.87 0 1.12 1.25 1.31a.95.95 0 0 0 .99-.49l4.8-8.82a.66.63 88.8 0 1 .22-.24l4.63-3.15a3 2.53-80.8 0 0 .43-.37l3.62-3.92q-.01 1-1.02 2a.79.78 56 0 0-.17.88q.36.79 1.07.69a1 .99-20.2 0 1 .96.44l1.53 2.33a.59.58 63.4 0 1-.28.86q-.09.03-.66.02-.53 0-.62.35-.09.3.02.55.08.16.44.28 2.49.79 2.56.83.84.44.52 1.11a.55.54 42.3 0 0 .03.51q1.36 2.35 1.59 4.76a1.44 1.43-67 0 0 .3.75q.48.58.93 1.35 2.02 3.45 5.71 4.97a.66.66 0 0 1 .32.95l-5.85 9.87a.24.24 0 0 0 .09.33l.26.16a.32.31 30.5 0 0 .44-.11q3.23-5.68 5.62-9.35.92-1.41 2.41-1.29 1.29.11 1.28.91l-6.41 10.8a.54.53-68.9 0 0 .35.8q3.58.73 7.27 1.98.91.31 1.99.1l.35.48q-.04 1.03.62 1.19.87.21 1.3-.57 3.97-7.16 8.45-14.3.67-1.07-1.23-1.6-.48-.26-.98-.13l-2.99-.88q1.99-2.75 5.08-2.39a.95.95 0 0 0 .88-.4q1.18-1.66 2.37-3.32.75-1.05 1.36-.42a.35.35 0 0 0 .58-.1q.84-1.92 3.46-5.24a.47.46 59.5 0 1 .82.22q.03.18.1.27a.15.15 0 0 0 .25-.01q2.23-3.35 3.61-4.05a.24.23 46.8 0 0 .01-.41l-.22-.13a.19.18 18.8 0 1-.09-.17q.18-1.73 1.33-3.06a1.42 1.37 71.7 0 0 .31-.65q.99-4.94 4.46-8.11l-2.38 4.14a3.64 3.64 0 0 0 1.71 5.16l1.45.63a4.26 4.25 27.1 0 0 5.32-1.71l7.06-11.68q.57-.27 1.04.25.33.37.34 1.07.02 1.33-.22 2.64zm-142.19 2.64a.71.71 0 0 1 .13 1.12l-.24.22a1.39 1.39 0 0 1-1.66.19l-4.2-2.49a1.14 1.12 17.7 0 1-.55-1.05l.04-.45a.83.82-72.6 0 1 1.24-.65l5.24 3.11z" class="C"/><path d="M351.76 214.13l-3.89-2.46a.46.45 71.5 0 1 .4-.81l2.55.97a1.15 1.14-68.7 0 0 1.47-.65q1.12-2.82 2.99-4.24a2.2 2.17-3.8 0 0 .61-.69q1.53-2.67 2.49-4.81c.38-.85.15-1.81.49-2.51a1.11 1.09-83.5 0 1 .74-.6l1.13-.26a.85.85 0 0 0 .65-.8q.06-1.88 1.63-4.25a4.02 3.94 68.4 0 0 .59-1.4q.61-2.89 3.05-7.79a.91.91 0 0 1 1.58-.09q.75 1.14 2.28 1.9a1.44 1.41-33.1 0 0 .7.14q1.31-.09 2.05.33c1.49.84 3.06.89 4.34 1.32a.78.77-58.9 0 1 .31 1.26c-1.56 1.65-2.47 5.79.75 6.38a.36.36 0 0 0 .33-.61q-1-1.03-1.05-2.83a.53.53 0 0 1 .58-.55c2.91.3 1.64 3.29 3.43 4.57a.99.99 0 0 0 1.01.08q3.79-1.9 3.19-5.66a.57.57 0 0 1 .63-.65q2.54.3 1.7 2.1-2.58 5.49-7.34 7.75-5.12 2.42-10.29-3.01a.65.64 37.5 0 0-1.04.13l-10.12 18.6a1.38 1.37-69.2 0 1-1.52.69l-6.04-1.39a1.41 1.31 65.6 0 1-.38-.16z" class="B"/><ellipse cx="0" cy="0" transform="matrix(.219846 -.975535 .975535 .219846 235.16 189.24)" rx="2.15" ry="1.16" class="D"/><path d="M233.65 194.11l-3.1 6.1q.18.11-.05.14a.14.14 0 0 1-.14-.19q1.45-3.59 2.01-7.51.06-.45.63-.99a.48.48 0 0 1 .72.63q-.77 1.11-.07 1.82z" class="B"/><path d="M256.21 192.03l-1.42-.45q.87-.03 1.42.45z" class="D"/><path d="M239.63 192.47l2.57 3.63a.93.93 0 0 0 .8.4q1.03-.05 2.17-.93.84.11 1.43.56a.71.71 0 0 1-.43 1.28h-1.74a.52.52 0 0 0-.5.37q-.24.86-1.77.93a.72.7 78.6 0 1-.69-.47q-.22-.63-1.03-1.54a.94.94 0 0 0-1.3-.09l-.02.02a.84.83 46.1 0 0-.02 1.23l2.62 2.51a.48.48 0 0 0 .76-.11q.77-1.34 2.36-.83a.81.71 25.6 0 1 .48 1.12q-.62.9-.02 1.89a.39.38 79.7 0 1-.4.58l-5.57-1.04q-.88-1.55-2.15-1.96a1.18 1.17 82.9 0 0-1.36 1.75q1.02 1.61 2.63 2.14-.12 1.11-.98 2.17l-1.26-1.87a1.49 1.48-16.9 0 0-1.23-.65h-.66a.71.71 0 0 0-.61 1.08q1.13 1.88-.6 4.51-2.47 1.12-2.91-3.34-.08-.8-.39-1.18-.52-.64-1.1-.26.57-1.11-.24-2 1.47-.32 2.74-1.23.82.87 1.68 1.05a.64.63 17.1 0 0 .72-.38l1.45-3.52q1.23-.23 1.9-1.36a1.2 1.17-39.1 0 0 .11-.96q-.34-1.08-1.23-1.67a1.36 1.31-82.3 0 1-.52-.71q-.26-.86-.25-.91a1.09 1.02 40 0 1 2.02-.11q.15.37.28.71.15.41.62.37.66-.06 1.64-1.18z" class="B"/><path d="M257.28 192.44l11.13 4.09q.08.69-.05.9a1.53 1.44 28.7 0 1-1.99.52q-4.34-2.25-9.18-3.58a.81.81 0 0 1-.42-1.29l.51-.64z" class="D"/><ellipse cx="0" cy="0" transform="matrix(-.999263 -.038388 .038388 -.999263 389.64 193.88)" rx=".98" ry=".79" class="B"/><path d="M247.18 209.54q-.09 1.02.28 2.1a.46.46 0 0 1-.47.6l-1.44-.11a.75.75 0 0 0-.79.6q-.37 1.8-2.23 2.32a.87.87 0 0 1-.85-.22l-2.03-2.03a1.24 1.22 71 0 0-.66-.33q-1.38-.19-2.29-.97-.09-.4-.01-.61.04-.1.2-.12.14-.02.27-.07 0 1.51 1.3 1.28 1.58-.28 1.66-1.46.44 1.16 1.61 2.48a.96.96 0 0 0 1.55-.16l.09-.16a1.67 1.67 0 0 0-.32-2.05q-1.06-.98-2.51-1.35a.47.46 13.2 0 0-.57.35l-.07.32q.13-.8-1.93-.68-2.45-.42-.5-3.19.86-1.06.98-2.17.76-.46.88-1.93l5.57 1.04a.39.38 79.7 0 0 .4-.58q-.6-.99.02-1.89a.81.71 25.6 0 0-.48-1.12q-1.59-.51-2.36.83a.48.48 0 0 1-.76.11l-2.62-2.51a.84.83 46.1 0 1 .02-1.23l.02-.02a.94.94 0 0 1 1.3.09q.81.91 1.03 1.54a.72.7 78.6 0 0 .69.47q1.53-.07 1.77-.93a.52.52 0 0 1 .5-.37h1.74a.71.71 0 0 0 .43-1.28q-.59-.45-1.43-.56.5-.07.52-.85.8-.21 1.69.41.93.63 2.06.44a1.04 1.04 0 0 1 1.03 1.62q-1.34 1.96-2.87 5.9c-.88 2.27-1.15 4.22-2.61 6.28a1.14 1.08-70.5 0 0 .79 1.79q.94.03 1.4-1.62z" class="D"/><circle cx="395.86" cy="195.75" r="1.01" class="B"/><path d="M424.08 196.48q-1.53 3.61-3.88 6.77a.17.02-52 0 0-.03.05l-3.19 5.81a.41.41 0 0 1-.45.2l-6.93-1.59a.44.44 0 0 1-.28-.65l6.27-10.78 8.49.19z" class="C"/><g class="B"><path d="M402.16 219.55q-.05.82.65 1.6a.46.46 0 0 1-.17.73l-.56.23a.86.86 0 0 0-.11 1.53l3.04 1.8a1.31 1.27 55.7 0 0 .83.17q.91-.11 1.11.44a.75.74 84.5 0 0 .58.48q1.16.18 2.2 1.27.4.77.29 1.34a.52.52 0 0 1-.7.39q-4.47-1.66-8.91-2.12-1.96-.21-4.39-2.44a.67.61 66.2 0 0-.36-.16q-.49-.05-.81.52a.67.67 0 0 1-.94.23l-.2-.13a.83.82-54.3 0 1-.19-1.2q.16-.19.53-.38a1.25 1.18-.1 0 0 .52-.49l14.1-25.93a1.75 1.74 28.5 0 1 2.37-.7l.6.33a1.14 1.14 0 0 1 .46 1.54l-11.5 20.99a.69.69 0 0 0 1.07.83q.18-.17.49-.87zm-1.69 4.86l-2.99-1.29a.24.24 0 0 0-.26.4l2.87 2.56a.57.57 0 0 0 .33.15q1.35.11.73-1.89c-.07-.24-.5-.16-.5-.05a.13.13 0 0 1-.18.12z"/><ellipse cx="0" cy="0" transform="matrix(.46793 -.883766 .883766 .46793 425.43 198.01)" rx="1.51" ry=".58"/><circle cx="404.05" cy="198.18" r="1.08"/></g><path d="M239.33 201.98q-.12 1.47-.88 1.93-1.61-.53-2.63-2.14a1.18 1.17 82.9 0 1 1.36-1.75q1.27.41 2.15 1.96z" class="C"/><ellipse cx="0" cy="0" transform="matrix(-.45865 -.888617 .888617 -.45865 265.87 203.57)" rx="1.88" ry=".73" class="D"/><path d="M402.21 203.87a1.16 1.1-25.1 0 1 .81-2.07q.57.08.8.9.19.68-.43.96-.86.38-1.18.21z" class="B"/><path d="M228.47 202.37q.81.89.24 2l-.62.6q-1.09-.19-.53.12c-1.11-1-.62-2.82.91-2.72z" class="D"/><path d="M237.47 206.08q-1.95 2.77.5 3.19-.16.76-.81 1.43-.13.05-.27.07-.16.02-.2.12-.08.21.01.61-.9-2.21-3.59-2.35 1.73-2.63.6-4.51a.71.71 0 0 1 .61-1.08h.66a1.49 1.48-16.9 0 1 1.23.65l1.26 1.87z" class="C"/><path d="M264.12 208.74l-1.61-3.14q-.34-1.29-.07-1.58a1.3 1.21-21.1 0 1 2.22.89l-.54 3.83z" class="D"/><g class="B"><ellipse cx="0" cy="0" transform="matrix(-.875465 -.483282 .483282 -.875465 339.76 206.82)" rx="4.92" ry=".83"/><circle cx="372.07" cy="205.36" r="1.05"/></g><path d="M90.47 214.25q-3.46.34-.67 1.9l-3.11-.67a.59.58 14.8 0 0-.68.39q-.37 1.09-.08 2.59-.74-2.13-2.34-3.85a1.11 1.1-46.9 0 0-1.66.06q-3.04 3.72-3.08 4.38a.29.29 0 0 0 .51.2l2.58-3.18a1.06 1.06 0 0 1 1.86.44l1.75 7.63a.79.78-71.2 0 0 .14.29q1.1 1.39.51 3.07-.45-2.3-1.36-2.59.18-.17.2-.35a.22.22 0 0 0-.25-.25q-1.69.24-1.42 2.16-.53 1.19-2.08 2.59-.6 2-2.37 1.26-6.6 1.36-11.8-.44-4.34-1.5-6.83-6.77a1.57 1.54 39.4 0 1-.11-1.01q.04-.16.14-.39a.59.59 0 0 0-.39-.82q-.73-.19-1.59-1.49a3.21 3.2 83.8 0 0-1.54-1.24l-.32-.12a1.28 1.26-5.3 0 1-.6-.49l-2.16-3.27a2.04 2.03-55.2 0 1-.28-1.56q.4-1.7 1.6-3.2a1.52 1.51-61.6 0 1 1.63-.49q2.73.86 4.42.74a2.1 2.06 21 0 0 1.29-.56q3.35-3.11 4.61-3.56 6.84-2.46 14.15.84a.77.75-4.1 0 1 .32.27l4.09 6.22a.91.88 77.8 0 0 .57.38l4.35.89zm-13.06 8.03q.62-1.67.15-2.68l-.23-.12a.43.4-85.3 0 1-.2-.25l-1.66-5.43a.29.27 82.2 0 0-.25-.2l-.4-.03a.3.29-7.8 0 0-.3.39l2 5.78a1.34 1.29-56.6 0 1 .09.48l.05 1.78a1.05.95-65.9 0 0 .18.55q.8 1.08 1.37 3.2a.3.29-16.7 0 0 .38.2h.01a.21.2-20.1 0 0 .13-.27l-1.32-3.4z" class="C"/><path d="M228.09 204.97q-.73 2.5-2.4 4.35.5-2.13 1.87-4.23-.56-.31.53-.12zm240.31 1.72l2.99.88-8.51 14.93q-1.08.21-1.99-.1-3.69-1.25-7.27-1.98a.54.53-68.9 0 1-.35-.8l6.41-10.8 8.72-2.13zm-131.24 2.33q-2.16 0-3.66.56a.83.82 71.2 0 1-1.08-.54l-.11-.35a.78.77 72.6 0 1 .5-.97q2.48-.8 4.6.32a.52.52 0 0 1-.25.98z" class="B"/><path d="M472.37 207.7l-9.14 15.28-.35-.48 8.51-14.93q.5-.13.98.13z" class="D"/><path d="M472.37 207.7q1.9.53 1.23 1.6-4.48 7.14-8.45 14.3-.43.78-1.3.57-.66-.16-.62-1.19l9.14-15.28zm-232.47 2.25l.22.57q-.08 1.18-1.66 1.46-1.3.23-1.3-1.28.65-.67.81-1.43 2.06-.12 1.93.68z" class="B"/><path d="M256.21 213.76l-.11 3.59q-.55-4.58-2.26-6.61.62-3.89 2.37 3.02z" class="C"/><path d="M264.45 209.46q.58.84-.78 1.75l.78-1.75zm76.21 8.07a1.79 1.79 0 0 1-2.04.8q-4.01-1.2-5.68-2.71a.92.92 0 0 1 .82-1.57l.79.19a.82.82 0 0 0 .98-.98l-.53-2.31a.84.83 15.8 0 1 1.4-.78l.71.7a1.09 1.02-14.2 0 0 .51.28l4.24.98a1.32 1.32 0 0 1 .84 1.96l-2.04 3.44zm-.512-5.08a2.27.93-60.2 0 0-1.935 1.508 2.27.93-60.2 0 0-.321 2.432 2.27.93-60.2 0 0 1.935-1.508 2.27.93-60.2 0 0 .321-2.432z" class="B"/><path d="M409.73 227.8q-1.04-1.09-2.2-1.27a.75.74 84.5 0 1-.58-.48q-.2-.55-1.11-.44a1.31 1.27 55.7 0 1-.83-.17l-3.04-1.8a.86.86 0 0 1 .11-1.53l.56-.23a.46.46 0 0 0 .17-.73q-.7-.78-.65-1.6l5.05-8.81a.92.92 0 0 1 1.05-.42q2.82.83 5.73 1.69 1 .29 1.26.94a.59.58-20.9 0 0 .74.33q1.11-.39 1.29.48a.63.6 54.3 0 1-.06.43l-7.49 13.61z" class="C"/><circle cx="397.36" cy="212.39" r="1.07" class="B"/><ellipse cx="0" cy="0" transform="matrix(.496974 -.867765 .867765 .496974 339.02 214.42)" rx="2.27" ry=".93" class="D"/><path d="M77.56 219.6q-1.2 1.16-.15 2.68l1.32 3.4a.21.2-20.1 0 1-.13.27h-.01a.3.29-16.7 0 1-.38-.2q-.57-2.12-1.37-3.2a1.05.95-65.9 0 1-.18-.55l-.05-1.78a1.34 1.29-56.6 0 0-.09-.48l-2-5.78a.3.29-7.8 0 1 .3-.39l.4.03a.29.27 82.2 0 1 .25.2l1.66 5.43a.43.4-85.3 0 0 .2.25l.23.12z" class="B"/><path d="M144.04 223.45q-1.22.17-.92 1.05.86 2.46.54 3.41l-1.58 5.52a5.2 5.09 72.3 0 1-.86 1.71l-2.67 3.52q-.84-1.65-1.03-3.37l.21.3a.39.39 0 0 0 .64 0q3.09-4.44 2.18-9.68.25-.53.92-1.19a.46.45-64.8 0 0-.28-.78q-2.45-.2-4.21-1.88.81-.16 1.76.55a.87.87 0 0 0 1.22-1.21l-2.88-3.92a1.25 1.14 86.3 0 0-.28-.27q-7.26-5.09-14.3 1.49-.5.47.01.95.36.36 1.21.33.87.41 1.79.26-.23.38-.6.54a.76.75 47.2 0 1-.65-.03q-.91-.51-1.78-.42-1.45.13-1.53 2.03-3.06 3.13-2.04 9.33-.45-.35-.2.45a.2.2 0 0 0 .19.13q.11-.01.26-.02a.07.07 0 0 1 .06.1q-.44 1.1.71 1.64.56 4.12 4.57 4.52.75.08.54-.95 1.03.94 2.51 1.38a.26.26 0 0 1 .06.48q-.02.02-.44-.03-.64-.06-.72.2-.14.42-.07.66a.52.49 3 0 0 .32.33l5.11 1.93q-.1 2.6-1.75 4.73a.77.76 20.9 0 1-.66.29l-7.1-.53a1.33 1.32 8.8 0 1-1.19-1.62l.79-3.43a1.66 1.66 0 0 0-.12-1.06q-.76-1.57-2.53-1.96-2.75-.61-5.46-1.16-.34-.52-1.33-.23l-5.75-1.25q-.46-.31-.58-.57a.38.38 0 0 1 .5-.51q1.68.74 1.92-.34 3.75 1.43 6.33.91l1.37 1.35a.66.66 0 0 0 1.1-.64l-.32-1.2c.45-.53.56-1.03.32-1.73q-1.36-4.03-.74-8.98l1.85-3.54a.88.87-58.1 0 0-.25-1.1q-.78-.58.13-.97a.32.24 26.6 0 1 .11-.02l1.28-.11c6.46-7.97 19.21-7.34 22.61 3.21a1.33 1.3 7.1 0 0 .59.74l1.11.66z" class="C"/><path d="M253.65 217.33q-.5-1.68-.12-3.65l.12 3.65zm3.83 3.54l-1.38-3.52.11-3.59q1.83 3.2 1.27 7.11zm-171.55-2.41q-.65 1.2-.07 2.2 1.35 1.12 1 1.64l1.53 7.12q.18.33.06.58-.13.28-.51.24-1.1-.09-1.17-2.01-.27-1-.57-.73.59-1.68-.51-3.07a.79.78-71.2 0 1-.14-.29l-1.75-7.63a1.06 1.06 0 0 0-1.86-.44l-2.58 3.18a.29.29 0 0 1-.51-.2q.04-.66 3.08-4.38a1.11 1.1-46.9 0 1 1.66-.06q1.6 1.72 2.34 3.85z" class="B"/><path d="M90.47 214.25l4.99.81q.37.4 1 .17l1.49.38q1.37.73 2.3.36l5.21.76q.23.34.82.3 2.59-.08 4.05.83 2.49 1.22 6.02.88l3.38.1-1.28.11a.32.24 26.6 0 0-.11.02q-.91.39-.13.97a.88.87-58.1 0 1 .25 1.1l-1.85 3.54q-2.6 1.91-1.92 3.98.96 2.95 1.71 5.95.07.25.63.78l.32 1.2a.66.66 0 0 1-1.1.64l-1.37-1.35-1.83-6.53-.88.1a.7.69-88.4 0 0-.62.59q-.06.4.04.9l-3.04 4.03q-.24 1.08-1.92.34a.38.38 0 0 0-.5.51q.12.26.58.57l-10.66-2.22a.05.01 31.7 0 0-.03-.01q-3.76-.36-7.29-1.46a3.75 3.61-32 0 0-.76-.16q-4.34-.43-9.05-2.12 1.77.74 2.37-1.26l4.51 1.49a.8.8 0 0 0 1.03-.95l-.32-1.29q.13-.04.26-.08.07 1.92 1.17 2.01.38.04.51-.24.12-.25-.06-.58.11.12.32.13.47.35 1.04.43a.38.38 0 0 0 .42-.47l-.28-1.11 1.06-1.31q-.1.58-.5.98-.32.31-.32.46 0 .48.38.73a.45.44 45.7 0 0 .44.01l.81-.47-1.29 1.64a.61.6 25.8 0 0 .34.96l4.49 1.03a.5.5 0 0 0 .59-.62l-.91-3.33q.39-1.24-.26-1.27-.2-.55-.53-.68-.3-.12-.77.3-.4.35-.81.66-.19-.83-1.41-.73 1.31-1.16 1.98-2.5a1.35 1.31-39.2 0 0 .11-.93l-1.15-4.8q.29-2.37-.63-1.59l-4.65 5.36q.35-.52-1-1.64l3.94-4.51q-2.79-1.56.67-1.9zm4.36 7.45q.43.19.68.18.41-.02-.08-.2 1.25-1.62 2.54-3.22.42-.53.04-.94-.2-1.06-2.47-.47-.85-.36-1.36-.3a.58.58 0 0 0-.49.73l1.14 4.22zm5.03-3.09l-3.64 4.83a1.65 1.6 58.1 0 0-.29 1.33l.9 4.2q-1.34 2.38.02 3.98a.71.71 0 0 0 1.26-.5q-.03-.55-.37-1.01l4.65-5.57a1 .98 58.1 0 0 .2-.89l-1.58-6.51q.08-.52-.31-.58-1-.17-.84.72zm7.06 1.57a.8.8 0 0 0-.29-1.17q-.79-.41-3.07-.5a.58.58 0 0 0-.58.74l1.09 3.53a.52.52 0 0 0 .93.15l1.92-2.75zm2.78-.75l-4.13 5.2a2.71 2.7-34.4 0 0-.47 2.48l1.71 5.59a.48.48 0 0 0 .84.16l4.33-5.5a.94.94 0 0 0 .2-.66q-.3-3.67-1.85-7.11.26.17.34-.19a.21.21 0 0 0-.28-.24l-.69.27zm3.11.87q.03 1.99.77 3.86a.48.47-34.7 0 0 .79.14l2.42-2.58q.31-.32.3-.72-.01-.34-.36-.33l-2.69-.52q-.01-.31-.54-.29-.28 0-.69.44zm-8.89 8.94q.22-.5-.15-.78-.01-.34-.24-.56-.39-.37-.71.07-1.35 1.88-3.49 4.35a.75.75 0 0 0 .51 1.23l4.85.36a.42.42 0 0 0 .44-.54l-1.21-4.13z" class="D"/><path d="M249.21 214.21q.26 5.4.04 7.04c-.39 2.94-.96 7.9.12 10.58a.5.5 0 0 1-.32.66l-2.56.79q-2.07-3.45-1.51-7.26.37-2.53.69-7.33.24-3.59 3.54-4.48z" class="E F"/><circle cx="366.6" cy="215.26" r="1.08" class="B"/><path d="M96.46 215.23q-.63.23-1-.17.56-.03 1 .17zm3.79.74q-.93.37-2.3-.36 1.54-.27 2.3.36zm-8.11 2.56q.15-.88-.63-1.59.92-.78.63 1.59zm14.14-1.5q-.59.04-.82-.3.59-.03.82.3zm-8.27.49l-2.47-.47q2.27-.59 2.47.47zm18.34 1.22q-3.53.34-6.02-.88 2.83-.35 6.02.88zm-15.34-.27q-.77-.39-1.15.14-.16-.89.84-.72.39.06.31.58z" class="C"/><g class="B"><path d="M354.41 227.66l-9.07-2.09a.61.6-69.1 0 1-.39-.88l3.72-6.83a.79.78-66.1 0 1 .95-.37l8.84 3.04a.38.31 51 0 0 .14.03q1.41.04 6.04 1.29 3.05.82 7.32 1.71.85.18 1.29.73a.93.92 68.2 0 0 .8.35q3.17-.28 6.41 2a.62.62 0 0 1 .18.8l-3.59 6.6a.82.82 0 0 1-1.11.33l-.39-.21a.73.72 28.7 0 1-.29-.98l2.91-5.34a.88.88 0 0 0-1.1-1.23l-3.99 1.63a.71.71 0 0 1-.94-.89q.27-.8.21-1.31a.84.82-88.1 0 0-.64-.7l-13.01-3a.71.71 0 0 0-.77.32l-2.76 4.67a.71.71 0 0 1-.76.33zm-100.76-8.71q.15.7.01 1.37-.53-.37-.01-1.37z"/><ellipse cx="0" cy="0" transform="matrix(.999986 .005236 -.005236 .999986 365.3 219.92)" rx="1.19" ry="1.01"/><path d="M110.33 219.59q-.21.02-.63-.16l.69-.27a.21.21 0 0 1 .28.24q-.08.36-.34.19z"/></g><path d="M77.56 219.6q.47 1.01-.15 2.68-1.05-1.52.15-2.68zm47.95.64q-.92.15-1.79-.26.82-.37 1.79.26z" class="D"/><g class="C"><path d="M114.04 220.15l-1.23.15q.41-.44.69-.44.53-.02.54.29zm13.5.37q-.96.22-1.28-.2l1.28.2zm1 .21q-.54.14-.83-.17.43 0 .83.17zm-11.75.99l-.06-1.05q.35-.01.36.33.01.4-.3.72zm13.95-.78q-.69.37-1.2-.08l1.2.08z"/><path d="M132.01 221.18q-.95.44-1.27-.24.7-.01 1.27.24z"/></g><g class="B"><circle cx="373.94" cy="222.13" r="1.04"/><ellipse cx="0" cy="0" transform="matrix(.688355 -.725374 .725374 .688355 392.05 222.01)" rx="1.07" ry=".87"/></g><path d="M126.93 222.87q-.93-.69-2.29-.71.5-1.72 2.29.71z" class="C"/><path d="M95.43 221.68q.49.18.08.2-.25.01-.68-.18.43.04.6-.02z" class="B"/><path d="M136.27 222.01q-.59.05-.76-.19l.76.19z" class="C"/><path d="M380.84 224.7q-1.31.15-1.52-.29a1.12 1.03 8.9 0 1 1.74-1.17q.69.57.09 1.29a.46.46 0 0 1-.31.17z" class="B"/><path d="M400.65 224.29c0-.11.43-.19.5.05q.62 2-.73 1.89a.57.57 0 0 1-.33-.15l-2.87-2.56a.24.24 0 0 1 .26-.4l2.99 1.29a.13.13 0 0 0 .18-.12z" class="D"/><path d="M136.48 223.95l-1.02-.05q0-.27.54-.27.65 0 .48.32zm120.77-.19q-.1.95-.65 1.16l.65-1.16z" class="C"/><path d="M254.16 223.96l-.09 2.76q-.47-1.56.09-2.76zm-169.32.95q-.93.7-1.47 1.56-.27-1.92 1.42-2.16a.22.22 0 0 1 .25.25q-.02.18-.2.35z" class="B"/><path d="M152.73 224.71q-.95.46-1.76-.19l1.76.19z" class="C"/><path d="M301.26 237.96l.33.13a.75.75 0 0 0 .75-1.27l-2.43-2.05a1.42 1.4 72 0 0-.54-.28q-2.3-.53-3.96-3.07a1.19 1.18 76.9 0 0-.84-.53c-.36-.05-.91.17-1.48.14q-1.54-.09-1.79-2.43a.71.71 0 0 1 1.05-.69l1.18.64a.77.77 0 0 0 .93-1.21q-.91-.96-1.54-2.41a.42.42 0 0 1 .53-.56l4.52 1.72a.96.96 0 0 1 .2 1.69q-.43.29-.84.87a.42.4 47.5 0 0-.01.46l.33.5a.33.32 45.5 0 0 .54.01l1.08-1.54a.77.77 0 0 1 1.4.47q-.05 1.14-1.32 2.16a.78.78 0 0 1-.97.01q-.72-.56-1.47-.22a.5.5 0 0 0-.04.89q2.65 1.54 2.83 1.97a1.26.21 68.7 0 0 .52.87l22.09 12.35a.83.83 0 0 1 .32 1.11l-.17.3a.8.79-60.9 0 1-1.09.32q-2.35-1.33-3.62-1.68-1.07-.29-1.76-1.11-.75-.88-1.58-.65a.12.11 48.6 0 1-.08-.01l-10.72-6.21a.55.55 0 0 0-.74.78l4.42 6.7a.76.75 34.1 0 0 1.37-.26q.32-1.62 1.15-1.9 1.37-.46 1.56.66.07.42-.8 1.64a.86.86 0 0 0 .3 1.27l6.14 3.16a.82.8 32.7 0 0 1.01-.21q.28-.35.43-1.07a.94.94 0 0 1 1.26-.69l.31.12a.76.75 21 0 1 .44.97q-1.62 4.25-2.56 6.07a.79.59-38.7 0 1-1.35.04q-.02-1.05 1-1.24a.55.54-35.7 0 0 .17-1.01q-4.97-2.73-7.77-4.29a1.7 1.43 31.3 0 0-2.1.33q-.23.33-.22 1.15a.63.63 0 0 1-1.16.34q-2.98-4.83-5.53-8.19-1.93-2.54-.46-4.8a.67.66-63.2 0 1 .78-.26z" class="B"/><path d="M156.8 225.48q-1.01.24-2.34-.37 1.31-.17 2.34.37z" class="C"/><ellipse cx="0" cy="0" transform="matrix(.953191 -.30237 .30237 .953191 388.67 226.1)" rx="1.21" ry="1.01" class="B"/><path d="M160.02 226.01q-.95.36-2.06-.41 1.14-.07 2.06.41zm-14.85.03l.09.74q-.38-.2-.09-.74zm8.76 1.43q-.45-.8-1.47-.92-.06-.38.45-.41.47-.02.82.29.38.35.2 1.04zm-62.73-.71q1.22-.1 1.41.73l-.85 1.31-.81.47a.45.44 45.7 0 1-.44-.01q-.38-.25-.38-.73 0-.15.32-.46.4-.4.5-.98.24-.16.25-.33zm76.76.43l-.71-.09q.38-.01.71.09zm-72.98 1.29l-.26-1.27q.65.03.26 1.27zm-8.21-.25q-.13.04-.26.08l-.31-.81q.3-.27.57.73zm297.6 2.72q1.05.61 1.93.63a1.04 1.04 0 0 0 .44-2q-.71-.3-1.96-.45-.41-.74 1.27-.92a2.64 2.62-38.3 0 1 1.13.13q2.49.83 4.3.27a1.99 1.95 43.9 0 1 1.15-.01q4.04 1.14 8.01 2.42c2.43.79 5.14-.05 6.73 2.74a1.17 1.12 86 0 0 .53.48l1.57.73-4 6.76q-2.77.22.76-5.08a.58.58 0 0 0-.89-.73q-.86.84-2.9 4.76a.62.62 0 0 1-.7.31q-6.82-1.75-11.32-2.64-.46-.09-1.38-.67a1.68 1.61 58.4 0 0-.92-.24q-2.09.08-4.05-.87l3.99-.25a1.12 1.12 0 0 0 .88-.51q.34-.52.47-1.53a.51.44-18.7 0 0-.82-.33q-.54.43-.93.44a.67.67 0 0 1-.64-.48q-.6-1.95-3.07-1.08a.46.46 0 0 1-.57-.25q-.07-.15-.09-.17a1.13 1.06 38.5 0 0-1.98.16l-.92 2.97q-1.68-.09-1.25-3.33a.58.53 69.2 0 1 .1-.25l2.65-3.79a.79.79 0 0 1 1.43.59q-.19 1.05-1 1.65a.43.43 0 0 0 .05.73q1.76.91 2-.19zm6.608-.62a1.42 1.13-50.8 0 0-1.773.386 1.42 1.13-50.8 0 0-.022 1.815 1.42 1.13-50.8 0 0 1.773-.386 1.42 1.13-50.8 0 0 .022-1.815zm-226.468-1.5q-1.64-.5-2.51-.16.79-1.18 2.51.16z" class="C"/><path d="M89.89 228.4l.28 1.11a.38.38 0 0 1-.42.47q-.57-.08-1.04-.43.64-.21 1.18-1.15z" class="B"/><path d="M103.92 229.24l-.15-.78q.37.28.15.78zm34.67-.76l-.55.81q-.36-.71.55-.81z" class="C"/><path d="M97.74 231.44q.34.46.37 1.01a.71.71 0 0 1-1.26.5q-1.36-1.6-.02-3.98.01 1.67.91 2.47z" class="B"/><path d="M122.14 228.95q-.12 1.08-.94 1.07.31-.69.94-1.07z" class="C"/><path d="M113.05 229.25q-1.11.74-1.46 1.59-.1-.5-.04-.9a.7.69-88.4 0 1 .62-.59l.88-.1zm271.73-.12q1.25.15 1.96.45a1.04 1.04 0 0 1-.44 2q-.88-.02-1.93-.63-.42-.91.41-1.82z" class="B"/><path d="M167.39 230.01l.05.73q-.12-.32-.05-.73z" class="C"/><ellipse cx="0" cy="0" transform="matrix(.632029 -.774944 .774944 .632029 390.08 231.43)" rx="1.42" ry="1.13" class="D"/><path d="M123.21 230.73q-.24.14-.56.2.43-.53.56-.2zm66.94.21q.78.04 1.32.3-2.5.03-1.32-.3zm-9.17.51l-1.19-.15q.69-.09 1.19.15z" class="C"/><path d="M123.94 232.97q-.26-.74-.21-1.52.65.02.21 1.52zm20.62.11l.15-1.62q.84.82-.15 1.62zm52.7-.94q-.82.6-1.56-.12l1.56.12zm186.81 4.43l-3.68-1.03.92-2.97a1.13 1.06 38.5 0 1 1.98-.16q.02.02.09.17a.46.46 0 0 0 .57.25q2.47-.87 3.07 1.08a.67.67 0 0 0 .64.48q.39-.01.93-.44a.51.44-18.7 0 1 .82.33q-.13 1.01-.47 1.53a1.12 1.12 0 0 1-.88.51l-3.99.25zm-198.02-4.15l-1.17-.05q1.06-.47 1.17.05z" class="B"/><path d="M187.79 232.65q-.8.12-1.51-.11.9-.36 1.51.11zm58.18 1.12l-3.78 2.56q1.24-2.21 3.78-2.56zm-44.76 1.16l-.76-.08q.39-.04.76.08zm204.26 6.8l4-6.76q1.25 1.03 3.09 1.66a1.31 1.31 0 0 1 .73 1.87l-2.07 3.82a1.08 1.06 10.5 0 1-.8.54q-2.04.26-4.95-1.13zm-249-4.95q-.38.02-.78.18.01-.31.3-.39.26-.07.48.21z" class="C"/><path d="M241.28 237.03q.25.58-.57.76.16-.49.57-.76zm-84.31 1.48q-.32-.56-.17-1.31.43.4.17 1.31z" class="B"/><path d="M113.79 237.77l-1.33-.23q.99-.29 1.33.23zm358.65.7q-.12.77-.67 1.05-.06-.77.67-1.05z" class="D"/><path d="M154.3 238.74q-.21.42-.53.46.23-.34.53-.46zm-14.61.72q.23.29-.22.46-.62.24-.73-.15.45.08.95-.31zm63.26 2.23l.16-1.48q.45 1.16-.16 1.48zm34.77-.48l-1.51-.09q.47-.31 1.51.09zm-87.76.53q-.24.19-.47.01-.19-.14-.29-.46l.76.45zm88.52.55l.02-.76q.31-.1.36.22.08.6-.38.54z" class="C"/><path d="M237.52 258.27q-.12-.75-.46-1.31-1.39-5.42-.07-10.67.28-.2.38-.58l.29-.36a.42.42 0 0 1 .72.13q.29.85 1.37.62c1.28-.27 2.76-2.51 3.57-3.47a1.02 1 12.6 0 1 .53-.33l.66-.15a.57.56 4.7 0 1 .65.76l-5.57 13.47a.11.09-12.4 0 1-.04.05l-2.03 1.84z" class="B"/><path d="M204.05 244.01q-.37.02-.62-.07.04-.14.13-.21a.2.19-26.4 0 1 .32.1q.04.17.17.18zm33.16 1.45q.08.12.16.25-.1.38-.38.58.01-.53.22-.83zm-19.62.84l-.98-.17q.25-.2.43-.29.24-.12.41.05.13.14.14.41zm-53.24.2l4.45.89.57.67a.49.48 56.9 0 1-.15.75q-.45.23-1.21.21l-1.3-.51q-1.08-.36-2.23-.21l-3.45-.79q.8-1.15 3.32-1.01zm9.11 1.85l-.44-.39q.06-.12.12-.24l.32.63z" class="C"/><path d="M173.02 247.96l.44.39 7.01 1.61q.14.48.09.81-.06.39-.54.5-.48.1-1.06.03l-2.49-.66-.75-.07q-.13-.06-.26-.11-.8-.37-1.67-.38l-1.64-.29q-.08-.78.87-1.83z" class="B"/><path d="M166.71 248.51l-2.23-.21q1.15-.15 2.23.21zm8.75 1.95q-.86-.03-1.67-.38.87.01 1.67.38z" class="D"/><path d="M176.47 250.64l-.75-.07.75.07zm9.77.29q3.61.7 7.27 1.37.56.1.48-.6l1.02 1.23a.73.72 57.7 0 0 .87.2l1.25-.6q-.18.36.04.62a.3.26-11 0 0 .16.09l9.31 1.84.23-.36a.29.29 0 0 1 .47-.01q1.03 1.37 2.54.66 4.67 1.52 9.36 2.27.8.13.94-.74l1.04 1.41a.7.69-30.5 0 0 .84.21q1.73-.77 1.82-.01l6.91 1.47q.38.22.93.18.83.53 1.77.5.98-.03.51-1.52.94 2.15 2.39 3.58a.39.39 0 0 0 .58-.03q.01-.01.06-.24a.11.11 0 0 1 .2-.02q.22.43-.14.96l-.88-.24q-.59-.5-1.42-.58l-2.25-.36q-.45-.49-1.25-.2l-2.33-.55q-.41-.25-.93-.19l-5.98-1.33q-.54-.49-1.08-.08l-32.01-6.58q-.38-.21-.92-.17l-2.57-.55q-.17-.64-.07-1.12a.58.58 0 0 1 .48-.46l.36-.05z" class="C"/><path d="M188.96 253.28l-.92-.17q.54-.04.92.17z" class="D"/><path d="M296.33 259.34q-.45-.62-1.7-1.23a.72.7 10.1 0 1-.38-.53q-.04-.29-.03-.3a1.31 1.28 30.7 0 1 2.23-.54q1.67 1.86 4.69 2.39a.38.38 0 0 0 .41-.53q-.41-.91-1.82-2.07a.95.95 0 0 1-.21-1.24l.14-.22a.48.47-56.2 0 1 .67-.14l5.34 3.73a3.32 3.21 88.7 0 1 .76.75l4.52 6.06a.66.66 0 0 0 .89.16l.28-.18a.47.47 0 0 1 .68.61l-.84 1.69a.87.86 13.5 0 1-.77.47h-2.04a.87.87 0 0 0-.78.48l-1.91 3.79a1.14 1.14 0 0 1-1.52.51l-.91-.46a.88.88 0 0 0-1.11 1.31l2.38 3.24a1.69 1.64-68 0 1 .3.74q.21 1.49-.48 2.88a.55.55 0 0 1-1.04-.29l.05-.57a.49.49 0 0 0-.58-.51c-2.42.49-2.66-3.39-5.59-2.68q-.16.04-.63-.01a.57.57 0 0 1-.49-.71q.26-1.02.07-2.28a1.43 1.43 0 0 0-.5-.89q-4.98-4.22-7.15-10.49-.26-.75.2-.93a.31.3 70.3 0 1 .41.2q.31 1.1 2.2.54a.55.54-1.2 0 0 .35-.36q.25-.9 1.78-.37.94.33 1.95 1.74a1.02 1.01-15.4 0 0 .73.41l3.84.28a.41.41 0 0 0 .44-.47l-.04-.29a.74.72 86.3 0 0-.66-.59q-2.8-.2-3.81-2.56a2.82 2.68-77.2 0 0-.32-.54z" class="B"/><path d="M237.52 258.27q0 .19-.06.33a.24.24 0 0 1-.45-.04q-.09-.28.01-.81l.04-.79q.34.56.46 1.31z" class="C"/><path d="M222.05 259.94q-.51.14-1.08-.08.54-.41 1.08.08zm9.67.22q-.55.04-.93-.18l.93.18z" class="D"/><path d="M238.04 261.2q-.06-.08-.11-.03a.08.06 86.9 0 1-.09-.1q.04-.08.08-.15a.1.09 50.6 0 1 .16.02q.03.07.04.08a.12.07 85.6 0 1-.08.18z" class="E F"/><path d="M228.96 261.46q-.52 0-.93-.19.52-.06.93.19zm3.58.75q-.74.14-1.25-.2.8-.29 1.25.2zm3.67.94q-.67-.13-1.42-.58.83.08 1.42.58z" class="D"/><rect x="-.72" y="-5.99" transform="matrix(.714473 -.699663 .699663 .714473 253.5 270.05)" width="1.44" height="11.98" rx=".4" class="B"/><path d="M213.64 271.38q-.47 5.82 3.4 8.06-.64.89-2.03.03-3.58-2.22-2.7-6.92a1.62 1.62 0 0 1 .43-.83q.51-.53.9-.34z" class="D"/><path d="M233.09 271.3l1.28.18a.71.7 5 0 1 .61.72q-.02.81-.56 1.65a.45.44 51.2 0 0-.04.38q.13.41.51.4a1.11 1.07-77.3 0 1 .98 1.61q-2.26 4.43-2.49 4.99a.81.81 0 0 1-.87.48q-1.42-.23-2.56-1.07a.7.7 0 0 0-1.08.35c-1.06 3.36.45 6.86 1.63 10.21a2.7 2.55-73.2 0 0 .29.58q1.5 2.28 4.25 6.36c2.64 3.91 6.1 6.7 9.34 10.34q1.84 2.06 4.61 4.19 5.79 4.45 6.28 4.87c3.06 2.63 5.92 4.15 9.89 6.78q2.95 1.95 10.99 5.82a.9.89-71.6 0 1 .49.99l-.02.06a.56.55 17.8 0 1-.77.38l-8.32-3.54-2.07-1.4q-.13-.35-.47-.26-9.63-6.05-18.38-13.46-7.13-6.04-12.91-13.37-5.41-6.87-7.28-15.42-.17-.79.04-2.39l.14-.52q.34-.38.47-.77a.43.43 0 0 0-.51-.56q-.28.07-.61.33-1.39.3-2.75.28-.82-.01-2.63-.72-1.78-.7-3.53-.33-3.87-2.24-3.4-8.06l1.96.54q1.11 2.12 5.39 1.28 1.22-.24 1.92.8-.59.81-.84 1.6a.61.61 0 0 0 .55.78l.64.03a1.07 1.04 15 0 0 1-.56q.31-.68-.32-2.35l-.15-.98 9.3-1.22z" class="B"/><path d="M218.32 271.63l-1.58.06q.65-.22 1.58-.06z" class="D"/><path d="M216.74 271.69l1.58-.06q1.35 1.25 2.87 1.21.24.46 1.59-.26l1.01-.06.15.98q-.74-.3-1.03.5-.7-1.04-1.92-.8-4.28.84-5.39-1.28.35-.19 1.14-.23z" class="C"/><path d="M222.78 272.58q-1.35.72-1.59.26.75-.27 1.59-.26z" class="D"/><ellipse cx="0" cy="0" transform="matrix(-.636078 -.771625 .771625 -.636078 294.93 273.72)" rx="1.24" ry=".84" class="B"/><path d="M223.94 273.5q.63 1.67.32 2.35a1.07 1.04 15 0 1-1 .56l-.64-.03a.61.61 0 0 1-.55-.78q.25-.79.84-1.6.29-.8 1.03-.5z" class="D"/><path d="M249.9 274.27a.8.78-78.2 0 1 .57.89l-.01.04a.61.61 0 0 1-.8.48q-2.94-1.06-4.83-.59a1.1 1.06 48.9 0 1-.67-.06l-1.38-.59a.52.52 0 0 1-.05-.93q.58-.32.81.2a.44.43 75 0 0 .44.26q3.41-.39 5.92.3zm-5.18 8.57q1.58-.12 2.34.94a1.29 1.29 0 0 1 .2 1.03q-.57 2.29 1.89 3.67a.43.42-65.5 0 0 .61-.23q.46-1.3-.96-3.04.69-.72 1.24-.14a1.38 1.31-68.6 0 0 2.27-1.06q-.04-1.82 1.98-3.04a.49.48 56.7 0 0 .14-.71q-1.43-1.97 1.79-5.37a.6.59 55.7 0 1 .98.19l.13.33a.88.88 0 0 1-.09.85l-1.64 2.34a.82.8 48.9 0 0-.05.84q.68 1.26 1.2 1.73a1.89 1.74-62 0 0 2.91-1.02q.43-1.49-.13-3.17a.48.48 0 0 1 .49-.63l.37.02a.48.48 0 0 1 .43.39q.42 1.98 1.03 2.63a.62.62 0 0 1-.04.88l-3.27 2.9a1.1 1.08-16.9 0 0-.35.64q-.16 1.01-1.18 1.76c-1.02.75-.85 1.34-.89 2.42a1.42 1.41-24 0 1-.33.85q-.75.91-.84 1.66a1.03 1.03 0 0 0 .2.72l3.83 4.99a.6.58-15.9 0 0 .43.23l.53.04a.33.33 0 0 1 .25.52l-.61.86a1.26 1.26 0 0 1-1.75.31l-9.23-6.46a2.71 2.67-84 0 1-.94-1.18l-1.14-2.8a.38.38 0 0 0-.51-.2q-.58.26-.14.72.11.12-.15.41-.34.38-.79.3a.42.41 6.8 0 1-.35-.44l.04-.51a.6.59-80.9 0 0-.45-.63q-2.46-.65-4.39-.92-1.51-.21-2.1-1.52a.74.62 3.5 0 1 1.03-.76q.24.11.47.46a.86.83-10.5 0 0 .53.35l4.09.83a.85.84-69.7 0 0 .9-.42q.52-.96.02-2.56zm10.895-.79a1.77 1.29-81.4 0 0-1.54 1.557 1.77 1.29-81.4 0 0 1.011 1.943 1.77 1.29-81.4 0 0 1.54-1.557 1.77 1.29-81.4 0 0-1.011-1.943zm-1.995 4.107a1.97 1.6-72.9 0 0-2.109 1.412 1.97 1.6-72.9 0 0 .95 2.353 1.97 1.6-72.9 0 0 2.109-1.412 1.97 1.6-72.9 0 0-.95-2.353z" class="C"/><path d="M248.8 285.21q1.42 1.74.96 3.04a.43.42-65.5 0 1-.61.23q-2.46-1.38-1.89-3.67a1.29 1.29 0 0 0-.2-1.03q-.76-1.06-2.34-.94l-1.12-.87a.26.26 0 0 1 .18-.46l.44.04a.38.38 0 0 0 .28-.66q-1.42-1.23-2.09-3.72a.75.73 70 0 1 .39-.86q.7-.33 2.01-.23a.49.48-74.3 0 1 .39.7q-1.41 2.72 1.79 4.76 2.01 1.29 1.81 3.67z" class="B"/><path d="M226.6 281.21q.09-.65-.65-1 .33-.26.61-.33a.43.43 0 0 1 .51.56q-.13.39-.47.77zm177.09-.2v.91q-.21-.45 0-.91z" class="C"/><path d="M226.46 281.73q-.21 1.6-.04 2.39 1.87 8.55 7.28 15.42 5.78 7.33 12.91 13.37 8.75 7.41 18.38 13.46l.47.26 2.07 1.4 7.71 4.41a.8.8 0 0 1 .39.81q-.06.43-.31.78c-1.3-.79-2.71-1.64-4.21-1.88q-3-.47-5.3-1.75-6.18-3.45-11.28-7.42-8.55-6.65-10.58-8.32-9.29-7.65-16.28-17.51-3.96-5.6-4.96-13.14a.68.67-16.4 0 1 .38-.69l3.37-1.59z" class="E F"/><ellipse cx="0" cy="0" transform="matrix(.149535 -.988756 .988756 .149535 255.35 283.8)" rx="1.77" ry="1.29" class="D"/><path d="M406.99 283.73q-.23.78-1.3-.12l1.3.12z" class="B"/><g class="C"><path d="M402.51 285.49q-.35-.13-.48-.47.42.01.48.47z"/><path d="M403.03 286.01q-.37-.17-.52-.52.46.04.52.52zm5.47.26q-.21.08-.5.05l-4.28-.14a.13.13 0 0 1-.12-.13.04.04 0 0 1 .04-.04l6.21-.47a.18.18 0 0 1 .2.19q-.03.65-1.55.54z"/></g><ellipse cx="0" cy="0" transform="matrix(.29404 -.955793 .955793 .29404 253.04 288.04)" rx="1.97" ry="1.6" class="D"/><path d="M398.14 296.42l-1.52-1.33q2.25.52 1.52 1.33zm-132.68 30.21l-.47-.26q.34-.09.47.26z" class="C"/><path d="M327.19 343.36q-3.03 1.58-6.29 1.51l-5.11-.09-2.33-.62q-1.79-.47-3.43-.06l-9.99-2.12q-.29-.64-1.27-.49-3.27-.59-6.22-2.39l21.85 3.25a3.21 2.61-36.8 0 0 .49.02q6.24-.5 12.3.99z" class="B"/><path d="M300.04 341.98q-.84-.12-1.27-.49.98-.15 1.27.49zm13.42 2.18l-3.43-.06q1.64-.41 3.43.06zm7.44.71l-5.11-.09 5.11.09z" class="C"/></svg>