<?xml version="1.0" encoding="UTF-8" standalone="no"?>
<!-- Created with Inkscape (http://www.inkscape.org/) -->

<svg
   version="1.1"
   id="svg1"
   width="692.28168"
   height="576"
   viewBox="0 0 692.28168 576"
   xmlns="http://www.w3.org/2000/svg"
   xmlns:svg="http://www.w3.org/2000/svg"
   xmlns:rdf="http://www.w3.org/1999/02/22-rdf-syntax-ns#"
   xmlns:cc="http://creativecommons.org/ns#"
   xmlns:dc="http://purl.org/dc/elements/1.1/">
  <title
     id="title1">Biomass Icon SVG</title>
  <defs
     id="defs1" />
  <g
     id="g1">
    <path
       style="fill:currentColor"
       d="m 63.12535,572.95775 c -0.394407,-1.67324 -1.146039,-8.42928 -1.670292,-15.01341 -0.567883,-7.13209 -1.400667,-11.24713 -2.060183,-10.18001 -0.608847,0.98514 -1.595459,1.30269 -2.192471,0.70568 -0.597013,-0.59701 -0.121193,-1.79629 1.057377,-2.66507 1.714761,-1.26402 2.001041,-3.33537 1.432997,-10.36832 -0.579243,-7.17161 -0.882286,-8.04237 -1.646977,-4.73239 -0.736845,3.18944 -0.971309,2.39479 -1.097095,-3.71831 -0.0903,-4.38834 0.428948,-7.77465 1.192138,-7.77465 2.246796,0 1.623506,-10.42344 -0.676056,-11.30586 -1.115493,-0.42806 -2.028169,-0.267 -2.028169,0.35791 0,0.62491 -3.054726,5.81556 -6.788279,11.53479 -3.733553,5.71923 -6.37757,11.06314 -5.875594,11.87536 0.53441,0.86469 0.289562,1.09164 -0.590757,0.54757 -0.877851,-0.54254 -2.437124,0.87637 -3.747298,3.40996 -1.234121,2.38653 -4.86765,7.94501 -8.074507,12.35217 -3.563851,4.89778 -5.513784,8.83876 -5.015609,10.13699 0.583692,1.52108 0.219482,1.89543 -1.283103,1.31883 -1.153981,-0.44282 -2.739841,-0.16344 -3.524135,0.62086 -2.432929,2.43292 -6.075518,0.0738 -5.163019,-3.34389 1.334567,-4.99845 -2.036329,-40.25077 -3.750764,-39.22491 -0.81549,0.48796 -0.647644,-0.14227 0.372991,-1.40051 1.618013,-1.9947 1.531421,-2.29038 -0.676057,-2.30843 -2.0578662,-0.0168 -2.1654295,-0.25246 -0.574657,-1.25887 1.70337,-1.07764 1.642691,-5.32587 -0.468034,-32.76803 -2.2042012,-28.65747 -2.859389,-35.60394 -3.5477674,-37.61436 -0.1273166,-0.37184 -0.1237642,-2.98876 0.00789,-5.81539 0.1316586,-2.82663 -0.4923395,-6.021 -1.3866624,-7.09859 -1.2489561,-1.5049 -1.2529574,-1.95926 -0.017254,-1.95926 0.904826,0 1.293999,-1.03539 0.8893906,-2.3662 C 5.8277296,423.6 5.1493163,416.14648 4.7158128,408.33803 l -0.7881883,-14.19718 6.9269665,-15.5493 c 3.809831,-8.55211 7.250368,-16.30986 7.645637,-17.23944 0.403568,-0.94909 -0.234012,-1.69014 -1.454159,-1.69014 -1.195056,0 -2.163513,-1.06479 -2.152125,-2.3662 0.01769,-2.02214 0.211283,-2.07129 1.331408,-0.33802 1.086011,1.68048 1.314253,1.69834 1.331408,0.1042 C 17.58781,354.1766 7.9725829,325.85957 6.9607393,325.85647 6.4788115,325.85499 5.949811,323.93943 5.7851826,321.59968 5.6205542,319.25992 4.7174989,315.15409 3.778393,312.4756 l -1.7074652,-4.86997 -0.8108906,6.08451 c -0.57309036,4.30018 -0.85364281,2.22367 -0.95667413,-7.08082 L 0.15757956,293.444 3.7970996,295.91893 c 11.2064554,7.62056 24.5972664,15.48916 24.5972664,14.45363 0,-0.45864 1.233943,-0.17352 2.742095,0.63362 1.508153,0.80714 2.461813,1.92104 2.119244,2.47532 -0.342568,0.55429 0.987111,0.9801 2.954843,0.94625 3.719159,-0.064 5.771889,-4.40883 63.671308,-134.76791 4.624294,-10.41148 4.989584,-12.00873 3.401534,-14.87324 -2.5693,-4.63446 -2.26851,-6.0126 0.72168,-3.30652 3.1042,2.80926 2.13487,4.28343 12.17209,-18.5115 3.85179,-8.74757 6.57393,-16.59932 6.0492,-17.44835 -0.54045,-0.87447 -0.35913,-1.17601 0.41824,-0.69557 0.75476,0.46647 2.48558,-1.6207 3.84626,-4.63815 3.26475,-7.23994 9.51558,-12.39391 27.55284,-22.718052 8.50333,-4.867126 14.56015,-9.151024 14.06681,-9.949254 -0.49602,-0.802589 -0.21103,-0.996796 0.66671,-0.454322 2.10378,1.300202 7.29296,-1.661824 6.15033,-3.510649 -0.55457,-0.8973 -0.30409,-1.110776 0.62764,-0.534934 2.05152,1.267907 45.04142,-23.457327 43.92531,-25.263226 -0.48432,-0.783654 -0.19399,-0.975976 0.66858,-0.442879 0.83856,0.518258 6.25651,-1.757039 12.03989,-5.056216 14.82046,-8.454441 15.43948,-8.550221 24.0076,-3.714671 l 7.32176,4.132144 30.83238,-13.41103 c 69.99231,-30.4442568 85.7439,-37.6455622 84.02234,-38.41329505 -3.31612,-1.47882786 10.19321,0.24415055 23.20441,2.95948885 13.09429,2.7326788 20.2752,4.0357397 27.98995,5.0791052 2.38039,0.321931 8.76912,1.542934 14.19718,2.71334 5.42806,1.170406 12.25101,2.424332 15.16212,2.786503 2.9111,0.36217 7.17025,1.500439 9.46478,2.529487 l 4.17188,1.870995 -4.73239,-0.716058 c -2.60282,-0.393831 -6.40563,-0.941755 -8.4507,-1.217608 -2.04506,-0.275853 -11.78027,-2.035573 -21.6338,-3.910488 C 427.89295,11.069975 417.47218,9.1659317 414.58922,8.7136827 411.70625,8.2614336 408.05554,7.6306966 406.47654,7.3120449 403.4002,6.6912222 400.1453,6.1429662 391.17561,4.7347542 l -5.66946,-0.8900857 3.2563,10.5847085 C 390.55341,20.250966 395.59188,35.357746 399.95904,48 l 7.9403,22.985915 4.6137,-0.225151 c 2.53754,-0.123833 8.87287,-0.428058 14.0785,-0.676056 5.20564,-0.247998 10.41641,0.0271 11.57949,0.611334 2.50487,1.258218 27.85762,-15.438484 27.26025,-17.95293 -0.20434,-0.860109 0.17356,-1.22695 0.83978,-0.815202 1.50451,0.929838 41.56519,-25.934666 41.13574,-27.585436 -0.17132,-0.658565 1.45422,-0.581856 3.61233,0.170465 4.59261,1.600992 14.20898,11.700539 23.73416,24.926692 6.76495,9.393441 30.26314,39.880785 31.71794,41.151918 0.42555,0.371831 6.21945,7.216902 12.87531,15.211271 11.41953,13.716 12.38571,14.53521 17.14279,14.53521 5.95426,0 7.66087,1.94307 4.6392,5.28197 -2.0335,2.247 -1.52446,3.28581 7.64219,15.59554 5.40145,7.25351 14.23209,17.80982 19.62363,23.45847 5.39155,5.64864 9.80282,10.64162 9.80282,11.0955 0,0.45387 4.63908,6.5731 10.30906,13.59828 5.66999,7.02518 17.00752,21.13925 25.19452,31.3646 8.187,10.22536 15.71693,18.59155 16.73319,18.59155 1.51497,0 1.84774,6.34557 1.84774,35.23473 0,20.54162 -0.50758,34.92103 -1.21719,34.48247 -0.66945,-0.41375 -2.2579,3.92556 -3.52989,9.64289 -1.27198,5.71734 -2.77726,11.34389 -3.34507,12.50345 -3.89821,7.96092 -7.73468,19.69738 -12.18076,37.26322 l -5.13349,20.28169 5.94264,6.36461 c 3.26845,3.50054 5.94263,7.31686 5.94263,8.48072 0,3.03301 -10.15115,22.80624 -12.86415,25.05783 -1.96856,1.63377 -3.14259,1.55902 -8.56765,-0.54549 -3.45758,-1.34128 -7.30663,-2.50964 -8.55344,-2.59636 -1.2468,-0.0867 -1.99033,-0.60522 -1.65227,-1.15222 0.86328,-1.3968 -4.28003,-3.95049 -5.58459,-2.77278 -0.58883,0.53158 -0.66974,0.26551 -0.17979,-0.59126 0.98205,-1.71729 -6.48781,-6.65686 -12.25622,-8.10464 -1.96309,-0.4927 -5.61205,-2.2821 -8.1088,-3.97645 -2.49676,-1.69434 -7.40511,-4.12803 -10.90745,-5.40819 -19.19601,-7.01647 -25.84006,-10.36886 -30.22049,-15.24838 -3.27054,-3.64316 -7.50688,-6.21275 -14.70852,-8.92159 -36.96822,-13.90527 -39.74728,-15.32135 -38.57528,-19.65622 0.3016,-1.11549 0.94761,-6.28732 1.43559,-11.49296 1.08591,-11.58431 8.46941,-55.88255 9.62635,-57.75451 0.47745,-0.77253 3.08402,-0.99433 6.07138,-0.51663 7.33803,1.1734 47.08535,13.73148 56.15138,17.74091 4.13757,1.82983 8.08093,2.98205 8.76303,2.56049 0.6821,-0.42156 1.07299,0.0393 0.86865,1.02417 -0.20434,0.98486 0.51526,1.79064 1.59912,1.79064 1.17863,0 3.65406,-4.07565 6.15923,-10.14084 2.30372,-5.57747 6.76771,-14.55211 9.91998,-19.94366 5.55877,-9.50756 5.88986,-9.80282 10.99268,-9.80282 4.78554,0 5.41603,-0.42792 6.97255,-4.73239 0.94119,-2.60282 2.15047,-4.7324 2.68729,-4.7324 0.53682,0 5.06972,-5.93239 10.07312,-13.1831 10.00757,-14.50251 10.66565,-15.16054 15.19162,-15.19056 1.7667,-0.0117 2.75336,-0.61726 2.27277,-1.39487 -0.46711,-0.7558 -1.56781,-0.96247 -2.446,-0.45928 -0.87819,0.50319 -1.16464,0.43597 -0.63655,-0.14937 1.28305,-1.42216 -2.7717,-9.12756 -4.3046,-8.18018 -0.6606,0.40827 -1.64137,0.0299 -2.17949,-0.84076 -0.61105,-0.9887 -0.3923,-1.22086 0.58262,-0.61832 0.85857,0.53062 1.56103,0.58982 1.56103,0.13156 0,-1.89044 -28.86253,-35.70368 -29.9189,-35.05081 -0.63179,0.39047 -0.82377,-0.13685 -0.42661,-1.17182 0.64775,-1.68801 -2.6446,-5.69531 -4.6792,-5.69531 -0.44345,0 -0.63281,-0.52038 -0.42081,-1.1564 0.61831,-1.85492 -2.58554,-4.98145 -4.12786,-4.02825 -0.80497,0.4975 -1.0048,0.21798 -0.46666,-0.65275 1.23987,-2.00615 -3.11449,-8.58926 -4.93649,-7.4632 -0.77722,0.48035 -1.02011,0.23745 -0.53977,-0.53977 0.48035,-0.77721 -0.64254,-2.40638 -2.49531,-3.62036 -1.85277,-1.21398 -3.37541,-3.258 -3.38364,-4.54227 -0.0202,-3.14534 -17.41802,-22.18954 -19.24166,-21.06247 -0.79359,0.49046 -1.09224,0.32439 -0.66367,-0.36905 0.42857,-0.69344 -0.32168,-2.72029 -1.66722,-4.50411 l -2.44643,-3.24331 -14.0112,1.80332 c -9.56556,1.23114 -16.23558,2.91573 -21.02176,5.30928 l -7.01057,3.50596 5.50466,11.79693 c 3.02756,6.48831 6.02323,11.47643 6.65705,11.0847 0.63382,-0.39172 0.81268,0.17307 0.39747,1.25509 -0.4152,1.08202 0.56422,4.55304 2.17651,7.71339 1.61229,3.16034 3.79128,8.18313 4.8422,11.16175 1.72219,4.88122 1.67572,5.76152 -0.47088,8.92022 -1.30991,1.9275 -2.3933,4.113 -2.40754,4.85666 -0.0142,0.74366 -0.4067,1.35211 -0.87213,1.35211 -1.41426,0 -6.53859,5.06244 -6.53859,6.45963 0,0.71946 1.06479,0.49628 2.36619,-0.49595 1.30141,-0.99223 0.57913,0.15017 -1.60508,2.53866 -4.50465,4.92599 -6.58171,5.93747 -2.67049,1.30048 2.259,-2.67819 2.11751,-2.64551 -1.1824,0.27313 -2.06167,1.82346 -3.4333,4.13675 -3.04807,5.14065 0.38523,1.00389 0.18889,1.50911 -0.43632,1.12271 -0.62521,-0.3864 -5.18162,4.15162 -10.12536,10.08449 -8.8014,10.56237 -10.56318,13.24414 -7.42759,11.30624 0.97493,-0.60254 1.19368,-0.37039 0.58263,0.61831 -0.53812,0.8707 -1.48524,1.26984 -2.10471,0.88698 -0.61948,-0.38285 -2.40278,1.46735 -3.96291,4.11157 -3.22833,5.47161 -3.49876,6.57404 -1.27557,5.20004 0.99752,-0.6165 1.19269,-0.36879 0.54066,0.68622 -0.5612,0.90804 -1.37063,1.30071 -1.79874,0.8726 -1.17959,-1.17959 -7.04949,4.80077 -9.21381,9.3872 -1.05279,2.23098 -3.72783,6.79436 -5.94453,10.14084 -2.2167,3.34648 -4.4476,6.99719 -4.95754,8.11268 -0.50995,1.11549 -3.86628,7.28336 -7.45853,13.70637 -6.79497,12.14954 -7.58782,14.14841 -4.97033,12.53071 0.97493,-0.60254 1.19368,-0.37039 0.58263,0.61831 -0.53812,0.8707 -1.51889,1.24904 -2.1795,0.84077 -1.63083,-1.00791 -5.72225,7.15126 -4.54289,9.0595 0.5631,0.91112 0.33341,1.14628 -0.57266,0.5863 -0.91611,-0.56618 -2.89049,1.6182 -5.00522,5.53757 -1.92078,3.55992 -4.30805,7.99371 -5.30505,9.85286 -0.997,1.85916 -2.81821,6.41547 -4.04715,10.12514 l -2.23442,6.74486 6.47725,5.63335 c 3.56249,3.09834 6.15595,5.96193 5.76324,6.36352 -0.39271,0.4016 -3.13074,0.16987 -6.08451,-0.51496 -9.27734,-2.15094 -10.75513,-1.73407 -13.33173,3.76077 -4.39657,9.37607 -9.45315,15.45632 -16.72001,20.10488 -3.97246,2.54115 -6.89589,5.14898 -6.49652,5.79517 0.39937,0.6462 -0.31743,1.0915 -1.59289,0.98954 -1.27547,-0.10195 -2.33371,0.52449 -2.35165,1.3921 -0.0179,0.8676 -0.58651,2.08451 -1.26348,2.70422 -0.7267,0.66524 -0.78807,0.36264 -0.14982,-0.73879 0.7394,-1.27599 0.48743,-1.66768 -0.79731,-1.23943 -1.03309,0.34436 -1.87835,1.28527 -1.87835,2.0909 0,0.80563 -0.55388,1.97183 -1.23086,2.59155 -0.7267,0.66524 -0.78807,0.36263 -0.14982,-0.73879 0.73941,-1.27599 0.48744,-1.66769 -0.7973,-1.23944 -1.0331,0.34436 -1.87835,1.28527 -1.87835,2.09091 0,0.80563 -0.55389,1.97183 -1.23087,2.59155 -0.7267,0.66524 -0.78806,0.36263 -0.14982,-0.7388 0.73941,-1.27599 0.48744,-1.66768 -0.7973,-1.23943 -1.03309,0.34436 -1.87835,1.28527 -1.87835,2.0909 0,0.80564 -0.55389,1.97183 -1.23086,2.59155 -0.72671,0.66524 -0.78807,0.36263 -0.14982,-0.73879 0.7394,-1.27599 0.48743,-1.66769 -0.79731,-1.23944 -1.03309,0.34437 -1.87835,1.28527 -1.87835,2.09091 0,0.80563 -0.55389,1.97183 -1.23086,2.59155 -0.71513,0.65464 -0.82333,0.41858 -0.25823,-0.56338 1.56652,-2.72214 -0.088,-2.00366 -7.63454,3.31532 -10.61337,7.48057 -15.2144,11.4438 -15.2144,13.10538 0,0.82017 -1.21533,1.49202 -2.70073,1.493 -1.49583,9.9e-4 -2.70229,0.90583 -2.70422,2.02817 -0.002,1.12322 -1.20878,2.02718 -2.70772,2.02817 -1.48733,9.8e-4 -2.57157,0.70399 -2.40943,1.56224 0.16214,0.85826 -0.71522,2.37938 -1.94969,3.38029 -1.57972,1.28083 -1.94375,1.31924 -1.22909,0.12968 0.55848,-0.92958 0.44555,-1.69014 -0.25094,-1.69014 -1.47322,0 -5.30481,4.29995 -4.3017,4.82753 0.37183,0.19556 0.12217,0.86261 -0.5548,1.48233 -0.71513,0.65464 -0.82333,0.41858 -0.25823,-0.56338 1.39626,-2.4263 -1.22978,-2.08813 -3.3173,0.42718 -0.96647,1.16453 -3.62689,3.07715 -5.91203,4.25027 -2.28515,1.17312 -5.42938,3.41469 -6.98718,4.98126 -1.5578,1.56658 -5.97889,5.47646 -9.82464,8.68862 -3.84575,3.21216 -6.68493,6.33758 -6.30928,6.94539 0.37564,0.6078 -0.37511,1.9346 -1.66833,2.94844 -2.12777,1.6681 -2.17489,1.61839 -0.49561,-0.52285 1.02064,-1.30141 1.28659,-2.3662 0.591,-2.3662 -1.55937,0 -8.32089,6.93167 -8.573,8.78873 -0.10095,0.74366 -0.53463,1.65634 -0.96371,2.02817 -0.42909,0.37183 -0.34248,-0.0845 0.19247,-1.01408 2.40455,-4.17838 -2.2281,-0.77082 -14.47143,10.6445 -7.27614,6.78405 -12.88587,12.67812 -12.46606,13.09793 1.23721,1.23721 -8.93971,10.9193 -10.748,10.22539 -0.9089,-0.34877 -6.61292,4.7993 -12.6756,11.44016 -10.4909,11.4914 -13.81851,16.2094 -8.65686,12.27401 1.30141,-0.99224 0.59985,0.12853 -1.55902,2.49058 -2.15887,2.36206 -4.3701,4.0197 -4.91385,3.68364 -0.54375,-0.33606 -3.58866,2.20967 -6.76645,5.65717 l -5.77781,6.26819 -18.37876,-0.83241 c -10.10831,-0.45782 -19.13722,-0.36138 -20.06423,0.2143 -0.92701,0.57569 -2.62383,4.20646 -3.77069,8.06838 -1.9582,6.59396 -4.68468,9.50018 -4.68468,4.99351 0,-1.11549 -0.53068,-2.02817 -1.1793,-2.02817 -0.64862,0 -1.55946,-2.37738 -2.0241,-5.28308 l -0.8448,-5.28307 -7.44273,-0.46341 c -4.09351,-0.25487 -7.60659,0.0309 -7.80684,0.63505 -0.20026,0.60414 -1.96213,0.49088 -3.91526,-0.25171 -1.95314,-0.74258 -3.94096,-0.96035 -4.41738,-0.48393 -0.47641,0.47641 -2.51644,1.08468 -4.53339,1.3517 -12.15651,1.60937 -57.80956,11.93253 -70.39614,15.91811 -18.851431,5.96938 -33.596068,12.21266 -31.141856,13.18633 1.028948,0.40821 -1.257592,0.79024 -5.081198,0.84895 -6.13857,0.0943 -7.035919,-0.24922 -7.669116,-2.9355 z M 22.390696,547.60563 c 0.638228,0.37183 1.53604,-1.14929 1.995137,-3.38028 0.459097,-2.23098 1.576967,-5.43792 2.484155,-7.12653 0.907188,-1.68861 1.307145,-3.62403 0.888793,-4.30094 -0.418351,-0.67691 -0.04825,-1.67102 0.822442,-2.20914 1.053093,-0.65085 1.247528,-0.34263 0.58078,0.92066 -0.551266,1.04448 0.25387,0.37792 1.789191,-1.48123 1.53532,-1.85916 2.805021,-3.74348 2.821557,-4.1874 0.01654,-0.44391 3.376544,-5.80679 7.466685,-11.91752 7.356905,-10.99131 9.025022,-14.71524 5.746479,-12.82852 -0.929578,0.53494 -1.385916,0.62156 -1.014085,0.19247 0.371831,-0.42909 1.120677,-0.67875 1.664103,-0.55481 1.614779,0.3683 5.325742,-5.7464 4.398233,-7.24714 -0.470189,-0.76078 -0.125157,-1.21605 0.766739,-1.01171 0.891896,0.20434 1.928734,-0.47373 2.304084,-1.50682 0.469552,-1.29237 0.100465,-1.5411 -1.183099,-0.79731 -1.101423,0.63825 -1.404032,0.57689 -0.738792,-0.14982 0.619718,-0.67697 1.836619,-1.24554 2.704225,-1.26347 0.867606,-0.0179 1.494049,-1.07618 1.392096,-2.35165 -0.101952,-1.27547 0.312343,-2.01143 0.920656,-1.63547 1.955018,1.20827 3.00827,-2.16117 5.530196,-17.69155 1.358813,-8.36777 4.556639,-21.05069 7.10628,-28.18427 2.549641,-7.13359 4.108399,-13.29605 3.463906,-13.69437 -2.884022,-1.78243 -50.366351,-20.79722 -52.409892,-20.98809 -3.95325,-0.36924 -8.555773,1.69146 -7.85523,3.51705 0.754808,1.967 -2.746813,3.76556 -4.8275376,2.4796 -1.3733202,-0.84876 -1.2240915,2.61821 1.6946026,39.37009 1.932743,24.33689 2.733002,29.71383 4.100924,27.55413 0.64934,-1.02519 1.189936,-1.22511 1.201323,-0.44427 0.01139,0.78085 -0.61313,2.05356 -1.387818,2.82824 -0.976621,0.97663 -0.562018,11.28315 1.352113,33.61181 1.518349,17.71181 2.8034,33.77995 2.855669,35.70697 0.08447,3.11437 0.212297,3.2032 1.150352,0.79946 0.580425,-1.48732 1.577505,-2.4 2.215733,-2.02817 z m -8.193513,-75.71831 c -0.459609,-0.74366 -0.191292,-1.35211 0.596259,-1.35211 0.78755,0 1.43191,0.60845 1.43191,1.35211 0,0.74367 -0.268317,1.35212 -0.596259,1.35212 -0.327942,0 -0.972302,-0.60845 -1.43191,-1.35212 z m 37.183098,-35.15493 c 0,-0.74366 0.60845,-1.35211 1.352112,-1.35211 0.743662,0 1.352113,0.60845 1.352113,1.35211 0,0.74367 -0.608451,1.35212 -1.352113,1.35212 -0.743662,0 -1.352112,-0.60845 -1.352112,-1.35212 z m -40.349888,-9.46478 c 0,-1.85916 0.306894,-2.61972 0.681986,-1.69015 0.375093,0.92958 0.375093,2.45071 0,3.38029 -0.375092,0.92957 -0.681986,0.16901 -0.681986,-1.69014 z M 271.94711,530.3662 c 1.68186,-2.14453 1.63403,-2.19235 -0.5105,-0.5105 -1.3014,1.02063 -2.36619,2.08542 -2.36619,2.3662 0,1.11283 1.11033,0.39658 2.87669,-1.8557 z m 30.92612,-32.11268 c 2.52275,-2.60282 4.2826,-4.73239 3.91076,-4.73239 -0.37183,0 -2.74012,2.12957 -5.26287,4.73239 -2.52275,2.60282 -4.28259,4.7324 -3.91076,4.7324 0.37183,0 2.74012,-2.12958 5.26287,-4.7324 z M 77.817851,419.27041 c -0.420354,-0.68014 -0.08547,-1.46289 0.744178,-1.73944 1.06895,-0.35632 0.826454,-3.83706 -0.832288,-11.94647 -1.28741,-6.29401 -2.613431,-13.26901 -2.946715,-15.49999 -0.333283,-2.23099 -1.395647,-9.09995 -2.360808,-15.26436 -1.261243,-8.05546 -1.329722,-11.06703 -0.243459,-10.70679 0.831259,0.27568 3.463334,11.02336 5.849056,23.88373 2.385721,12.86037 4.548711,23.59352 4.806644,23.85146 0.257933,0.25793 2.822091,-3.92501 5.698128,-9.29543 7.944833,-14.83536 27.545343,-46.10941 38.860163,-62.00424 l 10.10492,-14.19519 -0.39556,-22.2191 c -0.21756,-12.2205 -1.04705,-39.16182 -1.84331,-59.86959 l -1.44775,-37.6505 -4.11639,-5.98296 c -2.3467,-3.41081 -4.75133,-5.59054 -5.59331,-5.07017 -0.90431,0.5589 -1.08869,0.28461 -0.47555,-0.70746 1.25045,-2.02328 -1.73933,-5.83907 -3.64989,-4.65828 -0.83594,0.51664 -1.00104,0.2119 -0.40645,-0.75017 1.13737,-1.84031 -1.65949,-5.88841 -3.34755,-4.84514 -0.60801,0.37578 -1.54576,-0.0292 -2.08388,-0.89985 -0.64632,-1.04578 -0.38904,-1.21884 0.75804,-0.50991 1.15751,0.71538 1.52769,0.44694 1.11033,-0.80517 -0.34437,-1.03309 -1.30556,-1.87835 -2.13598,-1.87835 -0.83042,0 -2.30084,-0.84982 -3.26761,-1.8885 -1.44993,-1.55779 -1.43105,-1.70241 0.10781,-0.82588 1.27,0.7234 1.66567,0.46299 1.23944,-0.81572 -0.34437,-1.03309 -1.28527,-1.87835 -2.09091,-1.87835 -0.80563,0 -1.97183,-0.55389 -2.59155,-1.23086 -0.66524,-0.7267 -0.36263,-0.78807 0.7388,-0.14982 1.27598,0.7394 1.66768,0.48743 1.23943,-0.79731 -1.74477,-5.2343 -0.16329,-8.52425 -52.068639,108.31884 -7.102694,15.98873 -12.985886,30.38133 -13.073759,31.98356 -0.08787,1.60222 -0.616109,2.6311 -1.173855,2.2864 -0.557747,-0.34471 -1.013466,-0.13449 -1.01271,0.46714 7.56e-4,0.60164 3.05356,2.80815 6.78401,4.90337 3.730449,2.09522 6.457934,4.33487 6.061077,4.97699 -0.396858,0.64213 -0.0092,1.60779 0.861522,2.14591 0.988702,0.61105 1.220852,0.3923 0.618314,-0.58263 -1.199016,-1.94005 -0.07148,-1.98714 3.377927,-0.14107 1.459263,0.78097 2.237928,2.09188 1.730366,2.91314 -0.563223,0.91131 -0.302434,1.10975 0.669231,0.50923 0.88509,-0.54702 5.833997,1.4617 11.144589,4.52348 9.822593,5.66314 12.604624,6.48972 14.037791,4.17081 0.492615,-0.79707 -0.157435,-0.98301 -1.610343,-0.46063 -2.62121,0.94244 -2.483906,0.73724 1.541436,-2.30366 1.641866,-1.24033 2.24527,-1.35029 1.610343,-0.29345 -0.558471,0.92958 -0.445545,1.69014 0.250948,1.69014 1.70638,0 4.469871,-3.43746 3.52395,-4.38338 -0.414856,-0.41486 -0.01134,-1.21345 0.8967,-1.77465 1.055005,-0.65203 1.302718,-0.45685 0.686217,0.54067 -1.744784,2.82311 0.523761,1.64198 7.685305,-4.00143 4.49337,-3.54085 7.68578,-7.3374 8.7839,-10.44621 3.67907,-10.41556 6.05691,-7.05925 2.94282,4.15377 -1.12156,4.03844 -2.26797,5.28241 -5.73894,6.22736 -2.38558,0.64946 -4.21222,1.79635 -4.05921,2.54864 0.15301,0.75229 -1.31412,2.81759 -3.26028,4.58955 -1.94617,1.77195 -3.100239,2.46117 -2.564604,1.53159 1.690623,-2.93402 -0.560401,-1.85268 -6.818712,3.27553 -3.332968,2.73112 -6.905267,6.60035 -7.938441,8.59828 -1.033173,1.99794 -3.72481,4.39739 -5.981414,5.3321 -2.256604,0.93472 -3.796499,2.19528 -3.421989,2.80125 0.37451,0.60597 -0.03146,1.54204 -0.902154,2.08016 -0.988702,0.61105 -1.220852,0.3923 -0.618314,-0.58263 0.530621,-0.85856 0.394908,-1.56102 -0.301585,-1.56102 -1.612455,0 -4.493662,3.41366 -3.619239,4.28809 0.362447,0.36244 -0.993434,2.13181 -3.013068,3.93193 -2.019634,1.80011 -2.855409,2.20815 -1.857278,0.90674 3.080269,-4.0162 0.432417,-2.6577 -9.033972,4.63492 -16.767617,12.91728 -20.580954,16.29977 -20.580954,18.25564 0,1.07005 0.66896,1.53165 1.487011,1.02607 1.072172,-0.66264 1.085444,-0.16869 0.04757,1.77059 -0.791691,1.47929 -1.116139,3.01291 -0.720996,3.40805 0.395142,0.39515 -0.0245,1.17761 -0.932542,1.73881 -1.055005,0.65203 -1.302718,0.45686 -0.686216,-0.54066 1.601674,-2.59157 -1.306856,-1.75228 -3.915031,1.12972 -2.378994,2.62876 -2.313728,2.74045 2.832693,4.84733 2.897285,1.18611 10.890354,4.53866 17.762376,7.45009 6.872022,2.91144 13.717092,5.29352 15.211268,5.29352 1.494175,0 2.716682,0.55775 2.716682,1.23944 0,0.68169 1.673239,1.85055 3.718309,2.59748 4.810179,1.75683 7.45707,1.89333 6.493909,0.3349 z M 114.92958,307.60563 c 0.92577,-1.11549 2.19808,-2.02817 2.82734,-2.02817 0.62927,0 0.7939,0.91268 0.36584,2.02817 -0.42805,1.1155 -1.70036,2.02817 -2.82735,2.02817 -1.66809,0 -1.7361,-0.37709 -0.36583,-2.02817 z m 18.25352,-3.38028 c 0.4596,-0.74366 1.10396,-1.35211 1.43191,-1.35211 0.32794,0 0.59626,0.60845 0.59626,1.35211 0,0.74366 -0.64436,1.35211 -1.43192,1.35211 -0.78755,0 -1.05586,-0.60845 -0.59625,-1.35211 z m -8.78874,-3.61108 c 0,-1.72709 5.18986,-6.52301 6.08747,-5.6254 0.36434,0.36434 -0.85629,2.08921 -2.71252,3.83304 -1.85622,1.74383 -3.37495,2.55039 -3.37495,1.79236 z M 9.4647886,405.44484 c 0,-0.8476 1.0647884,-2.37022 2.3661974,-3.3836 2.253521,-1.75478 2.253521,-1.80328 0,-1.01849 -1.613748,0.56199 -2.3661974,0.13308 -2.3661974,-1.34879 0,-1.19506 -0.6084507,-2.17283 -1.3521127,-2.17283 -0.743662,0 -1.3521126,2.12957 -1.3521126,4.73239 0,2.60282 0.6084506,4.7324 1.3521126,4.7324 0.743662,0 1.3521127,-0.69349 1.3521127,-1.54108 z M 19.605633,392.6665 c 7.265931,-1.65996 7.823684,-3.07847 5.453537,-13.86968 -0.490784,-2.23452 -2.382729,-5.03931 -4.204324,-6.23286 -3.639665,-2.3848 -3.226476,-2.85721 -7.341604,8.39379 -1.271104,3.47527 -1.226915,3.54675 0.676057,1.09368 1.813196,-2.33735 2.036053,-2.36958 2.036053,-0.29446 0,1.2816 -1.369014,2.88045 -3.042254,3.55301 -1.778414,0.71483 -2.199693,1.27093 -1.014084,1.33861 1.417742,0.0809 1.01079,0.95593 -1.352113,2.90726 -1.8591547,1.53532 -2.6197181,2.39856 -1.6901406,1.9183 1.0172416,-0.52554 1.6901406,0.002 1.6901406,1.3259 0,1.46075 0.794439,1.96307 2.366197,1.49612 1.301409,-0.38663 4.19155,-1.11998 6.422535,-1.62967 z m 17.792069,-12.15028 c 3.245863,-2.65974 5.596918,-5.32883 5.224567,-5.9313 -0.372351,-0.60248 0.345772,-1.92492 1.595829,-2.93876 1.563173,-1.26779 1.955786,-1.31562 1.257428,-0.1532 -2.011009,3.34733 1.312408,1.54782 8.762224,-4.74441 4.174424,-3.52579 12.007494,-10.05109 17.406821,-14.50066 l 9.816958,-8.09014 -5.237807,-2.35824 c -2.880794,-1.29703 -5.967384,-2.09872 -6.859089,-1.78154 -0.891704,0.31719 -1.324533,-0.19661 -0.961842,-1.14177 0.773736,-2.01632 -5.734338,-5.35523 -7.867956,-4.03658 -0.844562,0.52197 -1.070805,0.2729 -0.536865,-0.59104 1.306311,-2.11365 -3.254496,-4.20791 -7.426869,-3.41031 -2.326337,0.44471 -3.771517,-0.003 -4.278812,-1.32471 -0.565527,-1.47373 0.0038,-1.83976 2.17507,-1.39844 1.913346,0.38888 1.322499,-0.31026 -1.690823,-2.00075 -6.929106,-3.88724 -10.701932,-2.29096 -13.907934,5.88444 -1.446248,3.68798 -4.319682,10.36144 -6.38541,14.82992 -5.970081,12.91417 -5.991802,13.20534 -1.966779,26.36442 2.045511,6.68743 4.002748,12.15896 4.349416,12.15896 0.346668,0 3.286011,-2.17615 6.531873,-4.83589 z m -16.64943,-13.47594 c -0.440362,-1.14757 -1.090644,-1.7965 -1.445071,-1.44207 -0.354427,0.35442 -0.243351,1.29334 0.246836,2.08648 1.333249,2.15724 2.112512,1.73816 1.198235,-0.64441 z m 0.457065,-14.39239 c -0.43163,-1.07863 -0.752022,-0.75824 -0.816902,0.8169 -0.05871,1.42535 0.26086,2.22394 0.710156,1.77465 0.449296,-0.4493 0.497332,-1.6155 0.106746,-2.59155 z m 3.804907,-5.14283 c 0.469946,-1.48067 0.416937,-3.40003 -0.117797,-4.26525 -0.557322,-0.90177 -0.386596,-1.21118 0.400045,-0.72501 1.629472,1.00707 6.478685,-9.06504 5.290196,-10.98806 -0.451373,-0.73034 0.0121,-1.64745 1.02995,-2.03804 1.017846,-0.39058 2.525136,-2.64504 3.349535,-5.00992 1.268281,-3.63819 1.190383,-4.18137 -0.506282,-3.5303 -1.102853,0.42321 -2.081244,0.18011 -2.174201,-0.54021 -0.09296,-0.72032 -0.246644,-2.07024 -0.341524,-2.99982 -0.09488,-0.92958 -1.083612,-1.74895 -2.197183,-1.82083 -3.430653,-0.22143 -6.78092,-2.11712 -5.993448,-3.39127 0.411448,-0.66574 0.154433,-1.21043 -0.571146,-1.21043 -0.725579,0 -1.626128,0.76056 -2.001221,1.69014 -0.407414,1.00967 -0.724963,0.73749 -0.788733,-0.67606 -0.09595,-2.12696 -1.618434,-2.98148 -4.501111,-2.52632 -0.557747,0.0881 -1.014085,-0.4069 -1.014085,-1.09992 0,-0.69302 -1.895316,-2.60962 -4.211813,-4.25912 l -4.2118135,-2.99907 0.7805977,3.24503 c 0.6333068,2.63273 0.4858279,2.54343 -0.7815951,-0.47328 -0.859206,-2.04507 -1.9764764,-3.71831 -2.4828232,-3.71831 -0.5063467,0 1.7475686,8.06198 5.0087007,17.9155 3.2611324,9.85352 6.5543524,20.19718 7.3182674,22.98591 0.79785,2.91262 2.229881,5.07043 3.364989,5.07043 1.08683,0 1.976053,0.91267 1.976053,2.02816 0,2.95138 2.377356,2.48389 3.376442,-0.66395 z m 76.570676,-14.54731 c 1.68185,-2.14453 1.63403,-2.19235 -0.5105,-0.5105 -1.301408,1.02063 -2.366196,2.08542 -2.366196,2.3662 0,1.11283 1.110335,0.39658 2.876696,-1.8557 z m -51.552752,-9.07919 c 0,-0.34567 -1.369014,-1.29191 -3.042253,-2.10276 -2.92141,-1.41572 -2.937999,-1.39075 -0.417628,0.62848 2.758665,2.21015 3.459881,2.50894 3.459881,1.47428 z m 92.586142,-7.93601 c -0.57297,-2.04717 -0.43975,-2.38096 0.44265,-1.10917 0.95392,1.37487 2.85791,-0.27663 7.79414,-6.76056 3.59253,-4.71893 11.0272,-13.87618 16.52151,-20.34945 6.1248,-7.21612 9.6017,-12.39727 8.98692,-13.39201 -0.5729,-0.92698 -0.43225,-1.26986 0.32815,-0.79991 1.62547,1.00459 16.20903,-13.4798 14.89506,-14.79377 -0.51417,-0.51418 -0.93486,-0.24021 -0.93486,0.60881 0,1.70563 -10.75183,7.01971 -14.20279,7.01971 -1.20019,0 -1.80323,0.61312 -1.34009,1.36248 0.46313,0.74937 -0.18968,2.39423 -1.4507,3.65525 -2.15561,2.15561 -2.23939,2.12457 -1.40041,-0.51881 0.89248,-2.81196 -1.28612,-4.30594 -7.52713,-5.16175 -1.81816,-0.24932 -1.9748,0.14553 -0.80246,2.02276 0.84927,1.35989 2.49611,2.06074 3.9493,1.68072 1.86812,-0.48852 2.49259,0.0986 2.49259,2.34366 v 2.99548 l -4.87801,-2.8781 -4.87801,-2.8781 -2.99014,3.22641 c -1.64457,1.77453 -3.86074,3.56999 -4.9248,3.98991 -1.21585,0.47982 -0.80433,0.80316 1.10758,0.87024 3.43854,0.12065 4.07064,2.12702 1.03688,3.29119 -1.14109,0.43787 -1.66148,1.6657 -1.20745,2.84888 0.43886,1.14365 0.12438,2.07935 -0.69885,2.07935 -0.82322,0 -1.50609,-1.06478 -1.51748,-2.36619 -0.0117,-1.3362 -0.45312,-1.77763 -1.01408,-1.01409 -0.54636,0.74366 -1.75395,1.41296 -2.68352,1.48733 -3.82088,0.30567 -4.39437,0.62624 -4.39437,2.45633 0,1.05353 0.76056,2.27043 1.69014,2.70423 1.34956,0.62979 1.34786,0.94824 -0.008,1.58027 -0.93421,0.43535 -1.35464,1.34803 -0.93429,2.02817 0.42035,0.68015 0.0548,1.23663 -0.81229,1.23663 -0.88566,0 -1.21498,-0.9423 -0.75147,-2.15019 0.45381,-1.1826 0.39278,-2.8497 -0.13562,-3.70467 -1.71308,-2.77183 -2.44306,4.06254 -2.0028,18.75119 0.2633,8.78475 0.92862,13.88644 1.74514,13.3818 0.72579,-0.44856 0.95078,-2.13338 0.49998,-3.74403 z m -0.53574,-5.74537 c 0.0649,-1.57513 0.38528,-1.89552 0.81691,-0.8169 0.39058,0.97606 0.34255,2.14226 -0.10675,2.59155 -0.4493,0.4493 -0.76887,-0.34929 -0.71016,-1.77465 z m 20.17495,-31.58217 c 0,-0.69977 0.60845,-1.64836 1.35211,-2.10797 0.74366,-0.45961 1.35211,0.11294 1.35211,1.27232 0,1.15938 -0.60845,2.10796 -1.35211,2.10796 -0.74366,0 -1.35211,-0.57254 -1.35211,-1.27231 z m 16.22535,-10.07598 c 0,-0.29227 0.94428,-0.89375 2.09839,-1.33663 1.20328,-0.46174 1.74602,-0.23506 1.27232,0.5314 -0.79404,1.28478 -3.37071,1.90032 -3.37071,0.80523 z m -23.41737,2.55956 c 7.90666,-7.06479 14.86989,-12.84507 15.47384,-12.84507 1.71497,0 -0.26637,4.05123 -2.00395,4.09746 -0.85001,0.0226 -0.47707,0.66332 0.82877,1.4238 1.70669,0.99392 3.41743,0.83513 6.0845,-0.56478 2.04065,-1.0711 5.33668,-2.59011 7.32452,-3.37557 2.18485,-0.86331 3.7891,-2.66152 4.05634,-4.54677 0.29048,-2.04915 1.37067,-3.13588 3.14984,-3.16889 3.48294,-0.0646 11.07746,-5.66501 11.88864,-8.76694 0.57042,-2.18129 0.19441,-2.14717 -4.2813,0.38856 -6.61541,3.74797 -16.48081,13.28786 -15.45601,14.94602 0.4734,0.76597 0.1342,0.90928 -0.79414,0.33553 -0.89127,-0.55083 -3.05114,-0.0641 -4.79972,1.0816 -2.98464,1.95561 -3.22842,1.90067 -3.98289,-0.89754 -0.60163,-2.23135 0.21837,-3.83041 3.26186,-6.36093 l 4.06553,-3.38028 -3.54937,-4.972 c -2.13443,-2.98992 -4.29973,-4.68405 -5.43162,-4.2497 -1.03524,0.39726 -1.88226,1.26564 -1.88226,1.92974 0,0.6641 -0.60845,1.20745 -1.35211,1.20745 -1.97119,0 -1.65325,-3.56204 0.51111,-5.72641 1.49696,-1.49695 1.53411,-2.31333 0.18897,-4.15291 -0.92084,-1.25933 -2.40365,-2.28969 -3.29514,-2.28969 -0.89148,0 -1.24483,-0.60845 -0.78522,-1.35212 0.52974,-0.85713 -3.27712,-1.38889 -10.39908,-1.45258 -6.1791,-0.0553 -12.45163,-0.33343 -13.93895,-0.61815 -2.62878,-0.50323 -2.67987,-0.0195 -1.83108,17.33991 0.48023,9.82167 0.93657,22.57308 1.01409,28.33646 0.0775,5.76338 0.46002,10.47887 0.85001,10.47887 0.38999,0 7.17816,-5.78028 15.08482,-12.84507 z m -1.63868,-16.96931 c -1.24186,-2.00937 -0.2542,-2.72073 1.91562,-1.37971 1.16245,0.71844 1.30074,1.41526 0.3923,1.97671 -0.77167,0.47692 -1.81024,0.20827 -2.30792,-0.597 z m 42.93935,-7.47516 c 1.2837,-1.34025 2.62504,-2.14578 2.98076,-1.79006 0.35572,0.35572 -0.69458,1.45229 -2.334,2.43682 -2.84797,1.71031 -2.87678,1.6815 -0.64676,-0.64676 z m -56.98782,-6.7668 c 0.0649,-1.57513 0.38527,-1.89552 0.8169,-0.8169 0.39059,0.97606 0.34255,2.14226 -0.10675,2.59155 -0.44929,0.4493 -0.76886,-0.34929 -0.71015,-1.77465 z m 0,-5.40845 c 0.0649,-1.57513 0.38527,-1.89552 0.8169,-0.8169 0.39059,0.97606 0.34255,2.14226 -0.10675,2.59155 -0.44929,0.4493 -0.76886,-0.34929 -0.71015,-1.77465 z m 11.72424,-4.16308 c 0.92958,-0.37509 2.4507,-0.37509 3.38028,0 0.92958,0.37509 0.16901,0.68199 -1.69014,0.68199 -1.85916,0 -2.61972,-0.3069 -1.69014,-0.68199 z m 38.87324,25.23351 c 0.45961,-0.74367 0.19129,-1.35212 -0.59626,-1.35212 -0.78755,0 -1.43191,0.60845 -1.43191,1.35212 0,0.74366 0.26831,1.35211 0.59626,1.35211 0.32794,0 0.9723,-0.60845 1.43191,-1.35211 z m -0.35466,-14.01441 c 2.03592,-1.4822 4.14788,-2.24871 4.69324,-1.70335 0.54535,0.54535 0.0965,1.5576 -0.99746,2.24944 -1.09395,0.69184 -1.32275,1.26721 -0.50843,1.2786 0.81432,0.0114 2.60556,-1.22238 3.98053,-2.74171 2.19115,-2.4212 2.21704,-2.65385 0.20956,-1.88351 -3.85192,1.47812 -2.56103,-1.20684 2.77997,-5.78218 l 5.07049,-4.3436 -8.40345,-0.0508 c -4.6219,-0.0279 -11.17505,0.89021 -14.56256,2.0403 -3.3875,1.15009 -6.75524,1.72263 -7.48387,1.27232 -1.91312,-1.18238 -1.55012,0.95804 0.65644,3.8706 1.12605,1.48634 2.57371,2.08225 3.56705,1.46834 1.1407,-0.70499 1.41647,-0.36775 0.86802,1.06148 -1.04713,2.72878 2.74381,8.1501 4.83116,6.90892 0.8787,-0.52249 3.26339,-2.16269 5.29931,-3.64488 z m -13.21704,-11.75757 c -0.4318,-0.69865 -2.00198,-1.27028 -3.48931,-1.27028 -3.52396,0 -2.25792,2.0485 1.43812,2.32692 1.55994,0.1175 2.48298,-0.35798 2.05119,-1.05664 z m -18.20295,-12.24503 c -1.85915,-1.52466 -7.76126,-7.02958 -13.1158,-12.23314 l -9.73551,-9.46103 0.77123,5.17953 c 0.87048,5.84606 4.04257,11.70796 5.76093,10.64596 0.62673,-0.38734 1.96901,0.31852 2.98285,1.56857 1.26779,1.56318 1.31562,1.95579 0.1532,1.25743 -0.92958,-0.55847 -1.69014,-0.44554 -1.69014,0.25095 0,3.06076 5.39663,5.12279 14.19718,5.42469 l 4.05634,0.13915 z m 16.86983,0.73026 c 2.18133,-1.42926 7.6242,-2.34006 16.51581,-2.76372 18.16463,-0.8655 24.95154,-1.80557 24.01189,-3.32597 -0.43761,-0.70807 -1.45607,-0.87923 -2.26325,-0.38037 -0.83405,0.51547 -1.08196,0.28305 -0.57429,-0.53839 0.49133,-0.79497 -2.91325,-5.62945 -7.56573,-10.74329 -4.65248,-5.11383 -20.39023,-22.96304 -34.97279,-39.66491 -14.58255,-16.70186 -29.0083,-33.10505 -32.05722,-36.45153 l -5.54348,-6.08451 -0.0555,7.17839 c -0.0342,4.42887 -0.57335,6.85831 -1.40756,6.34274 -0.74366,-0.45961 -1.35212,-2.96523 -1.35212,-5.56805 0,-2.66654 -0.56446,-4.38354 -1.29306,-3.93324 -0.71118,0.43954 -0.95031,1.69235 -0.53139,2.78402 0.41891,1.09168 0.0731,1.98487 -0.76858,1.98487 -0.84163,0 -2.13618,1.67324 -2.87678,3.71831 -0.74061,2.04507 -1.90125,4.93521 -2.57921,6.42254 -0.67797,1.48732 -3.70766,8.11239 -6.73267,14.72237 -3.025,6.60999 -5.5,12.26725 -5.5,12.57171 0,1.63873 12.82731,12.34599 13.95532,11.64884 0.73466,-0.45405 0.95186,-0.20439 0.48266,0.55478 -0.97035,1.57008 3.62074,6.18774 6.58464,6.62275 1.49777,0.21983 1.96821,-1.36665 1.984,-6.6908 0.0148,-5.00457 0.39151,-6.40517 1.33141,-4.95078 0.72089,1.11549 1.32002,5.69792 1.33141,10.18317 l 0.0207,8.155 8.04879,7.96481 c 4.42683,4.38064 7.79206,8.38019 7.47829,8.88789 -0.70769,1.14507 5.37514,7.00549 6.3056,6.07504 0.37087,-0.37088 2.41704,1.14468 4.54702,3.36791 4.31671,4.50567 8.59051,5.11154 13.47604,1.91042 z m -21.73069,-9.02311 -2.57576,-3.04226 3.04225,2.57576 c 2.85897,2.42058 3.65779,3.50875 2.57576,3.50875 -0.25657,0 -1.62558,-1.36901 -3.04225,-3.04225 z m -21.27998,-42.47888 c -0.49578,-0.49577 -0.90141,-3.2338 -0.90141,-6.0845 0,-2.85071 -0.60845,-5.1831 -1.35212,-5.1831 -0.74366,0 -1.35211,-0.91268 -1.35211,-2.02817 0,-1.11549 0.60845,-2.02817 1.35211,-2.02817 0.74705,0 1.39464,-3.78167 1.44715,-8.4507 0.16049,-14.27135 2.33456,-4.61551 2.43549,10.8169 0.0913,13.96225 0.0114,14.59821 -1.62911,12.95774 z m -17.12676,-4.50704 c 0,-0.74366 0.60845,-1.35211 1.35211,-1.35211 0.74366,0 1.35211,0.60845 1.35211,1.35211 0,0.74366 -0.60845,1.35211 -1.35211,1.35211 -0.74366,0 -1.35211,-0.60845 -1.35211,-1.35211 z m 125.18109,17.2695 c -3.22543,-2.67684 -5.46199,-3.13947 -4.0379,-0.83523 0.60254,0.97492 0.37039,1.19367 -0.61831,0.58262 -0.8707,-0.53812 -1.25189,-1.51427 -0.8471,-2.16924 0.95348,-1.54277 -4.38369,-4.41563 -6.16177,-3.31672 -0.74671,0.4615 -1.19048,0.10936 -0.98614,-0.78254 0.20434,-0.8919 -0.47373,-1.92873 -1.50682,-2.30408 -1.25988,-0.45775 -1.52499,-0.11072 -0.80517,1.05398 0.70894,1.14708 0.53587,1.40436 -0.5099,0.75804 -0.8707,-0.53812 -1.16912,-1.6482 -0.66316,-2.46686 0.59062,-0.95565 0.12031,-1.18162 -1.31384,-0.63129 -1.37726,0.52851 -2.11037,0.22778 -1.91195,-0.7843 0.17699,-0.90282 -0.73643,-1.55807 -2.02984,-1.45612 -1.33736,0.10542 -1.97066,-0.43107 -1.46833,-1.24386 0.55586,-0.8994 0.0232,-1.09917 -1.43689,-0.53888 -1.27611,0.48969 -1.98974,0.35564 -1.58583,-0.29789 0.99772,-1.61435 -33.89696,-22.23518 -35.71995,-21.10851 -0.79641,0.4922 -1.28083,0.16519 -1.07649,-0.72671 0.20435,-0.89189 -0.47372,-1.92873 -1.50682,-2.30408 -1.25988,-0.45775 -1.52499,-0.11072 -0.80517,1.05398 0.70894,1.14708 0.53587,1.40437 -0.5099,0.75804 -0.8707,-0.53812 -1.25189,-1.51428 -0.8471,-2.16924 0.95348,-1.54277 -4.38369,-4.41563 -6.16177,-3.31672 -0.74671,0.4615 -1.19048,0.0333 -0.98614,-0.95156 0.20549,-0.99035 -0.67948,-1.70779 -1.98011,-1.60527 -1.29341,0.10195 -2.05396,-0.2963 -1.69012,-0.885 0.59761,-0.96696 -12.92424,-9.44121 -15.06477,-9.44121 -0.49169,0 0.86811,1.63304 3.02177,3.62899 2.15366,1.99595 4.15027,3.36496 4.43692,3.04225 0.28664,-0.3227 1.04205,0.82137 1.6787,2.54238 0.70954,1.91807 1.7742,2.748 2.75086,2.14439 1.09665,-0.67776 1.30618,-0.23642 0.67216,1.41579 -0.68459,1.78403 -0.39635,2.19914 1.12234,1.61636 1.34244,-0.51514 2.0435,0.0258 2.0435,1.57677 0,3.87044 3.85681,8.36279 6.35625,7.40366 1.63755,-0.62838 2.00926,-0.2896 1.40629,1.28171 -0.83047,2.16417 3.28334,7.11872 4.71883,5.68322 0.42293,-0.42293 1.22813,-0.026 1.78933,0.88202 0.65203,1.05501 0.45686,1.30272 -0.54066,0.68622 -3.48045,-2.15104 -1.10041,1.33322 7.39343,10.8236 4.92496,5.50277 9.82847,10.00503 10.8967,10.00503 1.06823,0 1.53836,0.65349 1.04473,1.45221 -1.00618,1.62803 4.41626,8.01258 6.80515,8.01258 2.15441,0 9.48572,7.88367 8.36941,8.99998 -0.50354,0.50353 -0.91552,0.20565 -0.91552,-0.66195 0,-0.86761 -0.72228,-1.57747 -1.60508,-1.57747 -0.88279,0 0.12299,1.80372 2.23508,4.00826 2.11208,2.20455 4.3555,3.68976 4.98536,3.30049 0.62986,-0.38928 1.22126,-0.0634 1.31422,0.72413 0.093,0.78755 0.25873,2.19247 0.36837,3.12205 0.10965,0.92958 1.33311,1.49239 2.7188,1.25068 1.75788,-0.30662 2.28775,0.1643 1.75296,1.55796 -0.42157,1.09857 -0.41749,2.3464 0.009,2.77295 0.42655,0.42655 5.14993,-5.75058 10.49639,-13.72696 9.68623,-14.45089 9.71081,-14.51083 6.90594,-16.83865 z m -73.97328,-35.86105 c -1.68186,-2.14452 -1.63403,-2.19235 0.51049,-0.5105 1.30141,1.02064 2.3662,2.08543 2.3662,2.3662 0,1.11284 -1.11033,0.39658 -2.87669,-1.8557 z m -7.94021,-11.23473 c 0,-0.78755 0.60845,-1.05586 1.35211,-0.59625 0.74366,0.4596 1.35212,1.10396 1.35212,1.43191 0,0.32794 -0.60846,0.59625 -1.35212,0.59625 -0.74366,0 -1.35211,-0.64435 -1.35211,-1.43191 z m -29.8774,56.25132 c -7.93743,-8.72264 -7.93486,-4.57208 0.004,5.93622 3.19487,4.22908 3.54536,4.38498 3.93189,1.74898 0.2624,-1.78948 -1.23962,-4.72257 -3.93556,-7.6852 z m 159.09201,-19.06632 c 13.73278,-9.35718 24.66145,-17.51016 24.28595,-18.11773 -0.3755,-0.60758 0.36084,-1.02127 1.6363,-0.91931 1.27547,0.10195 2.33371,-0.5245 2.35165,-1.3921 0.0179,-0.86761 0.5865,-2.08451 1.26348,-2.70423 0.71512,-0.65464 0.82332,-0.41858 0.25823,0.56338 -0.53495,0.92958 -0.58942,1.69014 -0.12104,1.69014 1.37033,0 18.23963,-12.31784 18.2168,-13.30178 -0.03,-1.29436 -27.37918,-15.80386 -29.37312,-15.58327 -0.92158,0.10195 -1.342,-0.35439 -0.93429,-1.01408 0.40772,-0.6597 0.37199,-1.19946 -0.0794,-1.19946 -1.70145,0 -7.68001,7.6422 -10.04882,12.84507 -1.35432,2.97465 -7.09606,11.18874 -12.75942,18.25352 -5.66335,7.06479 -10.00795,13.63724 -9.65467,14.60544 0.35329,0.9682 0.0714,1.4075 -0.62644,0.97622 -1.68656,-1.04235 -4.49527,4.33278 -3.28625,6.289 0.54408,0.88034 0.34808,1.16263 -0.46033,0.663 -1.91056,-1.18079 -4.90034,2.635 -3.64989,4.65828 0.59608,0.96448 0.42943,1.26678 -0.41175,0.7469 -1.822,-1.12606 -6.17636,5.45705 -4.93649,7.4632 0.57469,0.92987 0.33333,1.14717 -0.61986,0.55807 -1.68378,-1.04064 -2.16936,0.84001 -0.61757,2.3918 1.49855,1.49855 3.20669,0.48916 29.56693,-17.47206 z m -166.89647,11.10842 c -0.82827,-0.998 -1.20327,-2.11722 -0.83333,-2.48716 0.36994,-0.36994 -0.70013,-1.83508 -2.37793,-3.25587 l -3.05054,-2.58326 2.57576,3.04225 c 1.71518,2.02582 1.99868,3.04225 0.84852,3.04225 -1.38201,0 -1.3908,0.40537 -0.044,2.02817 0.92578,1.1155 2.29168,2.02817 3.03534,2.02817 0.825,0 0.76503,-0.7074 -0.15382,-1.81455 z m 126.87214,-5.56284 c 0.89874,-1.08292 1.18346,-2.69805 0.6327,-3.58919 -0.62226,-1.00685 -0.42837,-1.26613 0.51214,-0.68486 0.91567,0.56591 4.33623,-3.18138 8.65961,-9.48677 10.62752,-15.4996 14.00626,-19.01607 19.2091,-19.99212 3.59826,-0.67504 5.52103,-2.28822 8.77921,-7.36566 2.29454,-3.57573 4.17189,-8.15511 4.17189,-10.17641 0,-3.31905 -13.39643,-28.142609 -16.084,-29.80362 -0.99998,-0.618018 -103.65365,13.41287 -124.14697,16.96863 l -8.39999,1.45747 4.34365,3.56562 c 2.38901,1.96109 4.79017,4.26484 5.33591,5.11944 1.92953,3.02151 44.2682,27.74346 45.84467,26.76915 0.96093,-0.59389 1.21899,-0.39148 0.65805,0.51614 -1.08763,1.75983 3.9985,4.84055 5.97491,3.61906 0.74672,-0.4615 1.19048,-0.0333 0.98614,0.95156 -0.20548,0.99036 0.67949,1.7078 1.98012,1.60527 1.33736,-0.10541 1.97066,0.43108 1.46833,1.24386 -0.55586,0.8994 -0.0232,1.09917 1.43689,0.53889 1.27611,-0.48969 1.98814,-0.35306 1.58229,0.30362 -0.6288,1.01743 26.10007,17.70464 28.35854,17.70464 0.43609,0 0.3552,-0.76057 -0.17975,-1.69015 -0.56509,-0.98196 -0.45689,-1.21802 0.25823,-0.56338 0.67698,0.61972 1.30692,1.68451 1.39988,2.3662 0.32968,2.41766 0.53405,2.59155 3.04571,2.59155 1.39626,0 3.274,-0.88602 4.17274,-1.96894 z m -4.2607,-0.30682 c 0.97605,-0.39058 2.14225,-0.34255 2.59155,0.10675 0.44929,0.44929 -0.3493,0.76886 -1.77465,0.71015 -1.57514,-0.0649 -1.89553,-0.38527 -0.8169,-0.8169 z m -82.90141,-62.62565 c -0.45961,-0.74366 -0.19129,-1.35211 0.59626,-1.35211 0.78755,0 1.43191,0.60845 1.43191,1.35211 0,0.74366 -0.26832,1.35211 -0.59626,1.35211 -0.32794,0 -0.9723,-0.60845 -1.43191,-1.35211 z m 24.76056,-4.97998 c 0.97606,-0.39059 2.14226,-0.34255 2.59155,0.10674 0.4493,0.4493 -0.34929,0.76887 -1.77465,0.71016 -1.57513,-0.0649 -1.89552,-0.38527 -0.8169,-0.8169 z m 164.0616,19.13724 c 11.36049,-7.48432 14.54883,-8.74881 22.05967,-8.74881 4.64073,0 7.30125,-1.05548 12.78088,-5.07042 3.80608,-2.78873 11.16859,-8.09178 16.36111,-11.78455 5.19253,-3.692769 9.44096,-7.377442 9.44096,-8.188162 0,-4.002212 -5.7678,-18.003103 -7.19579,-17.467239 -0.87612,0.328769 -18.20851,2.985701 -38.51643,5.904294 -20.30792,2.918593 -37.77925,6.016752 -38.82518,6.884797 -2.10439,1.746492 -8.99167,12.057038 -14.63956,21.91604 l -3.66173,6.39194 15.92639,8.07316 c 8.75951,4.44024 16.16196,8.10471 16.44989,8.14327 0.28792,0.0386 4.70683,-2.68588 9.81979,-6.05432 z m -19.75034,-4.59904 c -0.92359,-1.4944 1.20934,-3.10804 2.45789,-1.85949 1.28557,1.28557 1.04598,3.11817 -0.40766,3.11817 -0.69978,0 -1.62238,-0.5664 -2.05023,-1.25868 z m 41.54546,-6.43888 c 1.31556,-0.34282 3.14091,-0.32028 4.05634,0.0501 0.91542,0.37037 -0.16095,0.65086 -2.39193,0.62331 -2.23099,-0.0276 -2.97997,-0.33059 -1.66441,-0.67341 z m -0.36376,-19.424488 c 0,-0.78755 0.60845,-1.055867 1.35211,-0.596258 0.74366,0.459608 1.35211,1.103968 1.35211,1.43191 0,0.327942 -0.60845,0.596259 -1.35211,0.596259 -0.74366,0 -1.35211,-0.64436 -1.35211,-1.431911 z m -18.92958,-6.760563 c 0,-0.787551 0.60845,-1.055867 1.35211,-0.596259 0.74366,0.459609 1.35211,1.103968 1.35211,1.431911 0,0.327942 -0.60845,0.596258 -1.35211,0.596258 -0.74366,0 -1.35211,-0.644359 -1.35211,-1.43191 z m 4.57224,41.249011 c 0.46175,-1.20328 0.23507,-1.74602 -0.53139,-1.27232 -0.73514,0.45435 -1.33663,1.39862 -1.33663,2.0984 0,1.94492 0.96915,1.51634 1.86802,-0.82608 z m 215.89908,-5.28741 c 6.84262,-1.8312 12.69885,-3.58719 13.01385,-3.90219 0.315,-0.315 -0.98044,-1.79445 -2.87876,-3.28767 -1.89832,-1.49322 -3.45149,-3.30282 -3.45149,-4.02135 0,-1.29462 -5.7742,-8.06403 -13.54696,-15.881861 -2.21813,-2.230986 -4.03241,-4.556137 -4.03173,-5.167002 0.002,-1.69031 -3.63364,-4.960203 -5.64867,-5.080589 -1.25228,-0.07482 -1.30599,-0.302466 -0.17956,-0.76107 1.01143,-0.41179 -0.92957,-4.131074 -5.23656,-10.034099 -6.16549,-8.450225 -7.86758,-9.964957 -10.77055,-9.584982 -0.48335,0.06327 -1.2555,-1.385806 -1.7159,-3.220163 -0.46039,-1.834356 -1.46985,-3.335194 -2.24323,-3.335194 -0.77338,0 -0.972,0.702462 -0.44138,1.561026 0.59774,0.967165 0.37091,1.194 -0.59626,0.596259 -0.85856,-0.530622 -1.56103,-1.820362 -1.56103,-2.86609 0,-1.045728 -1.82535,-3.980284 -4.05633,-6.521237 -2.23099,-2.540952 -4.05634,-5.002167 -4.05634,-5.469366 0,-0.659731 -8.23064,-13.104283 -10.25761,-15.50929 -0.48274,-0.57277 -15.79425,9.477301 -30.30577,19.891906 -5.57747,4.002826 -11.35775,7.747205 -12.84507,8.320842 -3.38358,1.304992 -1.38301,1.679305 29.07042,5.439169 27.88454,3.442701 28.82721,3.647555 27.9003,6.063053 -0.40697,1.060539 -0.23826,2.238307 0.3749,2.617262 0.61316,0.378955 1.53389,3.592807 2.04606,7.141893 0.51217,3.549086 3.51481,14.057281 6.67255,23.351543 5.45222,16.04774 6.01005,17.05087 11.07798,19.92142 6.74218,3.81886 8.48982,3.7995 23.66714,-0.26222 z m -21.71076,-22.36068 c 0,-0.74366 0.60845,-1.35211 1.35211,-1.35211 0.74366,0 1.35211,0.60845 1.35211,1.35211 0,0.74367 -0.60845,1.35212 -1.35211,1.35212 -0.74366,0 -1.35211,-0.60845 -1.35211,-1.35212 z M 515.15492,66.253521 c 0,-0.743662 0.60845,-1.352113 1.35211,-1.352113 0.74366,0 1.35212,0.608451 1.35212,1.352113 0,0.743662 -0.60846,1.352113 -1.35212,1.352113 -0.74366,0 -1.35211,-0.608451 -1.35211,-1.352113 z m -2.70423,-14.117385 c 0,-1.159382 0.60846,-2.107967 1.35212,-2.107967 0.74366,0 1.35211,0.572542 1.35211,1.272315 0,0.699773 -0.60845,1.648358 -1.35211,2.107967 -0.74366,0.459608 -1.35212,-0.112934 -1.35212,-1.272315 z M 295.37887,117.72723 c 0.42785,-0.69227 0.26094,-1.57819 -0.3709,-1.96869 -0.63185,-0.3905 -1.14882,0.1759 -1.14882,1.25868 0,2.27989 0.42637,2.47909 1.51972,0.71001 z m 10.15373,-16.0689 c 4.63757,-6.927354 8.06598,-12.961157 7.61868,-13.40845 -0.44729,-0.447293 -0.81326,-0.09181 -0.81326,0.789965 0,1.017256 -1.1864,1.305457 -3.24603,0.788524 -2.83723,-0.712101 -18.61162,0.930133 -27.54432,2.867573 -2.62601,0.569565 -2.85771,1.066779 -1.59584,3.424595 1.11497,2.083336 1.91077,2.397621 3.25216,1.284367 2.20527,-1.830212 3.78146,1.26959 2.06103,4.053306 -1.20831,1.95508 0.86469,7.1818 2.46479,6.21454 0.52043,-0.31461 1.83899,0.39262 2.93012,1.57162 1.7562,1.89762 1.72531,2.04441 -0.26917,1.27905 -1.64012,-0.62937 -2.03801,-0.30419 -1.46259,1.19532 0.53631,1.39761 1.81834,1.80191 3.98748,1.25749 2.01492,-0.50571 3.19702,-0.2096 3.19702,0.80083 0,2.04638 -0.45418,2.63069 9.41993,-12.11873 z m 1.39697,-9.714668 c -1.21865,-0.787551 -1.38542,-1.318968 -0.41782,-1.331408 0.88568,-0.01139 1.98638,0.587746 2.44599,1.331408 1.03748,1.678682 0.56941,1.678682 -2.02817,0 z M 165.6338,105.40556 c 4.46197,-0.71202 21.93136,-3.12131 38.82086,-5.35398 37.25515,-4.924865 66.08843,-9.123897 66.64757,-9.705985 0.22723,-0.236556 -2.55352,-5.297708 -6.17944,-11.247003 -3.62593,-5.949296 -7.48067,-12.768518 -8.56611,-15.153826 l -1.97351,-4.336923 -14.26358,6.199222 c -8.27787,3.597722 -13.90336,6.78206 -13.40521,7.58809 0.51529,0.833746 0.18749,0.974243 -0.82011,0.351511 -2.16671,-1.3391 -12.45636,3.265036 -11.33865,5.073518 0.49901,0.807426 0.17165,0.954212 -0.7953,0.356603 -2.27351,-1.40511 -16.27587,4.863942 -16.43554,7.358424 -0.0781,1.219426 -0.3865,1.400013 -0.77353,0.452876 -0.58106,-1.421997 -17.34715,4.769376 -34.29773,12.66545 -2.60282,1.212463 -7.77465,3.621363 -11.49296,5.353103 L 144,108.15526 l 6.76056,-0.72756 c 3.71831,-0.40016 10.41127,-1.31012 14.87324,-2.02214 z m 0,-10.080169 c 8.93782,-4.10076 43.34483,-19.175151 63.84654,-27.972427 11.03155,-4.733637 18.86699,-8.832435 18.38263,-9.616141 -0.47999,-0.776651 -0.17074,-0.949709 0.71684,-0.40115 2.21712,1.370252 4.29024,-0.260662 3.37224,-2.652922 -0.59662,-1.554776 -1.2052,-1.662264 -2.64517,-0.467195 -1.02865,0.8537 -1.88962,1.021342 -1.91327,0.372538 -0.0237,-0.648804 -0.85684,-2.252022 -1.85153,-3.562708 -1.67838,-2.211564 -3.03759,-1.691433 -18.88674,7.22745 -10.05216,5.656714 -16.71405,10.199713 -16.19307,11.042681 0.51422,0.832026 0.2427,1.035125 -0.64795,0.484671 -2.10377,-1.300202 -7.29296,1.661824 -6.15032,3.510649 0.5598,0.90578 0.30309,1.110164 -0.65255,0.519545 -0.88882,-0.549324 -10.26065,4.058252 -21.50468,10.572597 -25.64371,14.856933 -28.10893,16.556391 -15.87297,10.942412 z m 21.5542,-12.09587 c 1.44355,-1.156518 3.21819,-2.10276 3.94366,-2.10276 1.71792,0 0.95086,0.62454 -3.188,2.595666 -3.18729,1.517943 -3.23044,1.489801 -0.75566,-0.492906 z m 241.7257,11.384561 c 5.36087,-1.611172 6.43808,-2.523492 5.58978,-4.734125 -0.41727,-1.087405 -1.3133,-1.634328 -1.99117,-1.215382 -0.67787,0.418945 -0.82432,1.422138 -0.32546,2.229316 0.53632,0.867782 0.27881,1.079336 -0.63007,0.517621 -0.8454,-0.522487 -3.82955,0.672827 -6.63145,2.656254 -2.80189,1.983427 -3.87745,3.166212 -2.39013,2.628411 1.48733,-0.5378 4.35765,-1.474743 6.3785,-2.082095 z M 307.42776,84.895297 c -0.36516,-0.59083 -2.29987,-0.758427 -4.29936,-0.372438 -2.65236,0.512019 -2.95128,0.401626 -1.10541,-0.408232 2.33614,-1.024956 2.25549,-1.289927 -1.05227,-3.457256 -1.97028,-1.290973 -4.18866,-1.972485 -4.92974,-1.514471 -0.74108,0.458014 -1.18024,0.02696 -0.97589,-0.957891 0.20434,-0.984853 -0.6694,-1.710113 -1.94165,-1.611687 -1.27224,0.09843 -2.18492,-0.510025 -2.02817,-1.352112 0.15675,-0.842088 -0.75592,-1.450539 -2.02817,-1.352113 -1.27224,0.09843 -2.18492,-0.433969 -2.02817,-1.183099 0.15676,-0.74913 -0.56025,-1.669159 -1.59334,-2.044509 -1.29237,-0.469552 -1.5411,-0.100465 -0.79731,1.183099 0.63825,1.101423 0.57688,1.404032 -0.14982,0.738792 -0.67697,-0.619718 -1.24554,-1.836619 -1.26348,-2.704225 -0.0179,-0.867606 -1.07618,-1.494049 -2.35164,-1.392097 -1.27547,0.101953 -2.02575,-0.289177 -1.66729,-0.869176 0.35846,-0.58 -3.2524,-3.50244 -8.02414,-6.49431 -7.71371,-4.836478 -8.94975,-5.230282 -11.14517,-3.550884 -1.6371,1.252306 -1.98036,2.239298 -1.01854,2.92866 0.7979,0.571878 1.85839,2.143132 2.35665,3.491676 0.51201,1.385791 1.57424,2.038844 2.44298,1.501932 0.94354,-0.583138 1.27992,-0.224645 0.87112,0.928385 -0.75591,2.132085 1.45772,6.933445 7.75267,16.815558 l 4.34726,6.824533 15.64639,-2.03695 c 8.60552,-1.120322 15.34764,-2.520356 14.98249,-3.111185 z m -26.44185,2.06838 c 0.97606,-0.390586 2.14225,-0.34255 2.59155,0.106746 0.4493,0.449295 -0.3493,0.768865 -1.77465,0.710155 -1.57513,-0.06488 -1.89552,-0.385271 -0.8169,-0.816901 z m 9.46479,-1.352113 c 0.97606,-0.390585 2.14225,-0.34255 2.59155,0.106746 0.44929,0.449296 -0.3493,0.768866 -1.77465,0.710156 -1.57513,-0.06488 -1.89553,-0.385272 -0.8169,-0.816902 z m -9.21127,-2.456634 c 0,-1.115493 0.60845,-2.028169 1.35211,-2.028169 0.74367,0 1.35212,0.912676 1.35212,2.028169 0,1.115493 -0.60845,2.028169 -1.35212,2.028169 -0.74366,0 -1.35211,-0.912676 -1.35211,-2.028169 z M 269.07042,71.661972 c 0,-0.743662 0.57254,-1.352113 1.27231,-1.352113 0.69978,0 1.64836,0.608451 2.10797,1.352113 0.45961,0.743662 -0.11293,1.352113 -1.27232,1.352113 -1.15938,0 -2.10796,-0.608451 -2.10796,-1.352113 z m 183.21126,15.469542 8.11268,-2.319625 -5.40845,-2.483163 c -6.79718,-3.120765 -9.05721,-3.155107 -12.36429,-0.187881 -3.43222,3.079503 -3.96892,8.844802 -0.73975,7.946523 1.25792,-0.349925 5.93784,-1.68006 10.39981,-2.955854 z m -7.79718,-4.820421 c 0.91718,-0.924059 2.00821,-1.3395 2.42451,-0.923202 0.4163,0.416299 -0.33412,1.172347 -1.66761,1.680107 -1.92702,0.733771 -2.08233,0.578463 -0.7569,-0.756905 z m -24.65352,2.872006 c -0.39609,-0.640891 -0.008,-1.605535 0.86291,-2.143654 1.04578,-0.646324 1.21884,-0.38904 0.50991,0.75804 -0.71538,1.157509 -0.44694,1.527691 0.80517,1.110322 1.03309,-0.344364 1.87835,-1.285272 1.87835,-2.090906 0,-0.805633 0.55388,-1.971831 1.23086,-2.591549 0.71512,-0.654643 0.82332,-0.418584 0.25823,0.56338 -1.51707,2.636201 1.20572,1.984446 3.83167,-0.917187 1.56424,-1.728469 2.04475,-3.599303 1.42555,-5.550241 -0.77657,-2.446763 -1.62739,-2.804243 -5.04665,-2.120392 -2.26193,0.452387 -4.98383,1.885206 -6.04866,3.184044 -1.06483,1.298838 -1.55079,1.600959 -1.07993,0.671382 0.61515,-1.214403 -0.68053,-1.690141 -4.60313,-1.690141 -5.45686,0 -5.45853,0.0016 -3.79811,3.71831 2.21867,4.966262 5.2676,8.470522 6.63473,7.625585 0.61101,-0.377624 1.11093,-0.0063 1.11093,0.825119 0,0.83144 0.61837,1.129531 1.37417,0.662426 0.75579,-0.467106 1.05009,-1.373648 0.654,-2.014538 z m -98.75891,-5.352451 c 5.60201,-5.736981 7.4913,-5.901479 7.4913,-0.652259 0,1.815266 0.76057,3.304322 1.69014,3.309013 2.34445,0.01183 71.88578,-9.892663 72.48749,-10.324103 0.26812,-0.192246 -3.49194,-12.704817 -8.35569,-27.805714 -4.86375,-15.100897 -9.60411,-30.194205 -10.53414,-33.540684 -2.07514,-7.4669006 -1.72776,-6.993289 -4.38228,-5.9746526 -1.21766,0.4672602 -1.81919,1.4882691 -1.33673,2.2689087 0.52897,0.8558909 0.22252,1.0147266 -0.77195,0.4001085 -0.93578,-0.5783456 -7.89853,1.7466104 -16.09624,5.3747554 -7.94589,3.516695 -16.88088,7.448264 -19.85553,8.736819 -46.23529,20.028164 -74.76899,33.162042 -74.16579,34.138039 0.41205,0.666716 1.59302,0.888402 2.62437,0.492636 1.03135,-0.395767 1.73037,-0.05696 1.55337,0.752891 -0.17699,0.809857 0.52345,1.779572 1.55655,2.154922 1.29236,0.469552 1.5411,0.100465 0.7973,-1.183099 -0.63825,-1.101423 -0.57688,-1.404032 0.14982,-0.738792 0.67698,0.619718 1.23086,1.651231 1.23086,2.29225 0,1.052224 31.03015,21.595074 32.61954,21.595074 0.36675,0 0.22914,-0.760564 -0.30581,-1.690141 -0.5651,-0.981965 -0.4569,-1.218024 0.25823,-0.563381 0.67697,0.619719 1.24018,1.532395 1.25157,2.028169 0.0485,2.111116 2.33839,4.281691 4.51707,4.281691 1.29252,0 4.70196,-2.408603 7.57655,-5.352451 z m 62.92792,-17.633465 c 0,-0.743662 0.60845,-1.352113 1.35212,-1.352113 0.74366,0 1.35211,0.608451 1.35211,1.352113 0,0.743662 -0.60845,1.352113 -1.35211,1.352113 -0.74367,0 -1.35212,-0.608451 -1.35212,-1.352113 z m 99.67745,17.656355 c 10.50638,-2.187596 24.33708,-4.402178 30.7349,-4.921293 6.39781,-0.519116 11.44222,-1.134015 11.20979,-1.366443 -0.64675,-0.646745 -54.10845,-7.313206 -58.587,-7.305565 -2.26412,0.0039 -5.65987,1.481516 -7.99289,3.478086 -2.23098,1.909253 -3.29577,3.087223 -2.36619,2.617711 2.61366,-1.320109 2.0041,-0.02894 -1.32881,2.814687 -2.45768,2.096877 -2.67828,2.135839 -1.18656,0.209561 2.19086,-2.829075 -0.16199,-3.221498 -2.49081,-0.415435 -1.33774,1.611879 -0.48568,2.54049 4.90486,5.345494 3.58812,1.867103 6.85603,3.423063 7.26203,3.457689 0.406,0.03463 9.3343,-1.726895 19.84068,-3.914492 z M 247.9032,47.941686 c -0.44036,-1.147566 -1.09065,-1.796497 -1.44507,-1.44207 -0.35443,0.354427 -0.24335,1.293344 0.24683,2.086483 1.33325,2.157243 2.11251,1.738155 1.19824,-0.644413 z M 43.267605,573.29577 c 0,-0.74366 0.912676,-1.35211 2.028169,-1.35211 1.115493,0 2.028169,0.60845 2.028169,1.35211 0,0.74367 -0.912676,1.35212 -2.028169,1.35212 -1.115493,0 -2.028169,-0.60845 -2.028169,-1.35212 z m 16.332097,-6.19718 c 0.06488,-1.57513 0.385272,-1.89552 0.816902,-0.8169 0.390585,0.97606 0.34255,2.14225 -0.106746,2.59155 -0.449296,0.4493 -0.768866,-0.3493 -0.710156,-1.77465 z m 75.358038,-10.95181 c 0.97606,-0.39059 2.14226,-0.34255 2.59155,0.10674 0.4493,0.4493 -0.34929,0.76887 -1.77464,0.71016 -1.57514,-0.0649 -1.89553,-0.38527 -0.81691,-0.8169 z m -78.169009,-3.1327 c 0,-0.74366 0.608451,-1.35211 1.352113,-1.35211 0.743662,0 1.352113,0.60845 1.352113,1.35211 0,0.74367 -0.608451,1.35212 -1.352113,1.35212 -0.743662,0 -1.352113,-0.60845 -1.352113,-1.35212 z m -13.521126,-6.76056 c 0,-0.74366 0.912676,-1.35211 2.028169,-1.35211 1.115493,0 2.028169,0.60845 2.028169,1.35211 0,0.74366 -0.912676,1.35211 -2.028169,1.35211 -1.115493,0 -2.028169,-0.60845 -2.028169,-1.35211 z M 1.3521127,530.70423 c 0,-1.1155 0.6084506,-2.02817 1.3521126,-2.02817 0.743662,0 1.3521127,0.91267 1.3521127,2.02817 0,1.11549 -0.6084507,2.02816 -1.3521127,2.02816 -0.743662,0 -1.3521126,-0.91267 -1.3521126,-2.02816 z m 41.9154923,-1.18656 c 0,-0.28077 1.064789,-1.34556 2.366197,-2.3662 2.144526,-1.68185 2.192351,-1.63402 0.510497,0.5105 -1.766359,2.25228 -2.876694,2.96854 -2.876694,1.8557 z m 5.373944,-7.5377 c 0.837264,-1.56444 2.100222,-2.48727 2.806572,-2.05072 1.865737,1.15309 1.613744,1.71477 -1.5223,3.39313 -2.57558,1.37841 -2.681281,1.26792 -1.284272,-1.34241 z M 0.53404257,423.88732 c -0.0338772,-15.6169 0.17131433,-25.80845 0.45598114,-22.64788 0.28466679,3.16056 1.09104209,5.74648 1.79194509,5.74648 0.7009031,0 1.2743692,1.52112 1.2743692,3.38028 0,1.85915 -0.5917448,3.38028 -1.3149883,3.38028 -0.7709571,0 -1.4868299,7.97131 -1.7303502,19.2676 -0.27681033,12.84054 -0.43590817,9.79614 -0.47695693,-9.12676 z M 466.47886,361.09388 c 0,-0.69977 0.60149,-1.64405 1.33663,-2.09839 0.76646,-0.4737 0.99314,0.069 0.53139,1.27231 -0.89887,2.34243 -1.86802,2.771 -1.86802,0.82608 z m 10.56338,-1.00344 c 0.97606,-0.39059 2.14226,-0.34255 2.59155,0.10674 0.4493,0.4493 -0.34929,0.76887 -1.77464,0.71016 -1.57514,-0.0649 -1.89553,-0.38527 -0.81691,-0.8169 z M 2.7042253,348.84507 c 0,-0.74366 0.6084507,-1.35211 1.3521127,-1.35211 0.7436619,0 1.3521126,0.60845 1.3521126,1.35211 0,0.74366 -0.6084507,1.35211 -1.3521126,1.35211 -0.743662,0 -1.3521127,-0.60845 -1.3521127,-1.35211 z M 559.9697,158.53521 c -1.47543,-3.44795 -1.44205,-3.52747 0.45902,-1.09368 1.12758,1.44354 2.05014,3.11678 2.05014,3.71831 0,2.05508 -0.91718,1.0957 -2.50916,-2.62463 z m -4.2514,-18.59155 c 1.85915,-1.06279 3.98873,-1.93234 4.73239,-1.93234 0.74367,0 -0.16901,0.86955 -2.02817,1.93234 -1.85915,1.06279 -3.98873,1.93235 -4.73239,1.93235 -0.74366,0 0.16901,-0.86956 2.02817,-1.93235 z m 14.53521,-4.27576 c 0.92958,-0.37509 2.4507,-0.37509 3.38028,0 0.92958,0.37509 0.16902,0.68199 -1.69014,0.68199 -1.85915,0 -2.61972,-0.3069 -1.69014,-0.68199 z M 470.5352,43.863864 c 0,-1.159381 0.61838,-1.725789 1.37417,-1.258684 0.75579,0.467106 1.02411,1.415691 0.59626,2.107967 -1.15909,1.875439 -1.97043,1.525739 -1.97043,-0.849283 z m 20.28169,-22.230061 c 0,-0.743662 0.60845,-1.352113 1.35211,-1.352113 0.74367,0 1.35212,0.608451 1.35212,1.352113 0,0.743662 -0.60845,1.352112 -1.35212,1.352112 -0.74366,0 -1.35211,-0.60845 -1.35211,-1.352112 z m -64.9014,-2.028169 c 0,-1.115493 0.60845,-2.028169 1.35211,-2.028169 0.74366,0 1.35211,0.912676 1.35211,2.028169 0,1.115493 -0.60845,2.028169 -1.35211,2.028169 -0.74366,0 -1.35211,-0.912676 -1.35211,-2.028169 z m 54.76056,0.676056 c -0.45961,-0.743662 -0.19129,-1.352113 0.59626,-1.352113 0.78755,0 1.43191,0.608451 1.43191,1.352113 0,0.743662 -0.26832,1.352113 -0.59626,1.352113 -0.32794,0 -0.9723,-0.608451 -1.43191,-1.352113 z m -7.43662,-1.555816 c 0,-0.539189 1.2169,-0.888678 2.70422,-0.776642 1.48733,0.112037 2.70423,0.644859 2.70423,1.184049 0,0.539189 -1.2169,0.888678 -2.70423,0.776641 -1.48732,-0.112036 -2.70422,-0.644858 -2.70422,-1.184048 z"
       id="path1" />
  </g>
  <metadata
     id="metadata1">
    <rdf:RDF>
      <cc:Work
         rdf:about="">
        <dc:title>Biomass Icon SVG</dc:title>
        <dc:source>https://www.eoportal.org/api/cms/documents/163813/6584772/Biomass.jpg/93272174-00f7-f9ea-f9c8-a3d5e23a49cb?t=1666938282127</dc:source>
      </cc:Work>
    </rdf:RDF>
  </metadata>
</svg>
