<?xml version="1.0" encoding="UTF-8" standalone="no"?>
<!-- Created with Inkscape (http://www.inkscape.org/) -->

<svg
   version="1.1"
   id="svg1"
   width="682.66669"
   height="432"
   viewBox="0 0 682.66669 432"
   xmlns="http://www.w3.org/2000/svg"
   xmlns:svg="http://www.w3.org/2000/svg"
   xmlns:rdf="http://www.w3.org/1999/02/22-rdf-syntax-ns#"
   xmlns:cc="http://creativecommons.org/ns#"
   xmlns:dc="http://purl.org/dc/elements/1.1/">
  <title
     id="title1">Clementine Icon SVG</title>
  <defs
     id="defs1" />
  <g
     id="g1">
    <path
       style="fill:currentColor"
       d="m 595.43949,430.5042 c -4.60331,-5.19852 -16.16587,-3.894 -14.62333,-6.07939 0.73395,-2.04353 -18.68206,-6.12353 -17.71228,-5.38686 -2.33404,-5.15848 -15.71005,-6.7128 -22.19871,-10.2581 -4.86766,-4.44644 -21.81018,-3.85539 -18.26353,-7.15135 -10.28016,-0.15173 -8.55887,-9.81775 -5.83785,-16.96183 -11.29693,-6.9284 -15.63686,-0.63002 -18.61065,9.07471 -1.75972,-0.92149 -12.23016,-6.3005 -19.57456,-8.28195 -19.28494,-6.41889 -37.906,-15.90674 -57.50196,-20.6497 -9.03647,0.31024 -5.98544,-12.53001 -3.61613,-20.32295 5.72634,-25.50308 10.41774,-51.21029 16.13602,-76.71696 -7.821,-5.45951 -18.02329,-6.86327 -26.7965,-10.701 -2.71509,2.18735 -13.32853,-9.1373 -13.76994,6.49744 -3.82853,4.52244 -1.50137,23.85395 -4.62022,16.33753 -6.7312,23.52342 -14.26552,46.82151 -20.47879,70.48867 -2.02066,5.77122 -9.36888,0.86296 -8.95316,8.58784 -3.32245,-3.72464 -17.13956,5.00066 -11.15865,9.61597 -11.00423,1.49063 -8.21282,5.59769 -5.96008,15.48631 4.03383,8.91664 -4.86176,15.08544 -8.37372,21.50304 -14.34025,1.92526 -28.33925,5.65764 -42.94283,3.26295 -19.05411,-0.003 -37.92488,-3.42623 -56.36573,-7.94393 3.36322,5.31801 -0.0235,20.58188 -8.33114,15.28585 -10.26462,-2.58032 9.19905,-17.76457 -3.04429,-17.88887 -21.68759,-5.76402 -42.2243,-15.36587 -61.822,-26.26506 -1.77217,2.54192 -8.15242,-8.70441 -14.32858,-12.18793 -8.123,-7.34195 -13.08826,-19.57376 -5.1668,-28.99696 5.49959,-8.2226 11.59756,-11.46622 8.39561,-15.89295 -5.67579,-8.65015 -6.94276,-12.7967 -9.80322,-11.04412 0.98476,-11.00511 -1.71301,3.37642 -2.11172,-7.9573 -3.20022,0.0121 -13.1816,-7.49633 -6.6714,-7.64936 10.52948,-1.67441 7.23355,-16.08987 11.04874,-23.95196 3.09072,-16.03068 9.30207,-32.58362 10.32632,-48.28846 1.387,0.80029 3.75917,-10.92199 5.07067,-17.6753 0.85853,-8.03513 6.93044,-19.31818 4.79317,-25.33023 -5.92167,-1.32306 -21.71348,-7.12482 -17.63202,3.07979 -2.44856,28.3399 -5.58117,56.64433 -7.60688,85.00615 -8.48454,-1.43229 -17.0248,-9.6308 -25.47184,-6.51094 2.00233,-7.96 -16.431031,-3.19585 -13.375083,-8.25573 -4.600603,-4.3215 -21.041708,-2.61519 -17.170375,-6.09776 -14.205143,-0.44984 -6.764252,-11.88295 -11.597708,-19.4253 -11.829653,-5.48011 0.662812,20.69688 -13.166188,10.15117 -4.626098,-4.34537 -20.290361,-3.68229 -16.56958,-6.72565 -5.14754,-2.50607 -20.390773,-5.92473 -19.514567,-5.29473 C 19.619082,212.15815 -1.4987769,215.27242 0.84538912,204.8826 1.7835017,143.22482 3.5853448,81.584597 4.953336,19.935553 c 7.27794,-2.037661 16.714989,3.935524 24.779206,5.321652 18.041928,5.442433 36.08506,10.88087 54.128092,16.319641 1.928158,-2.183421 9.210007,4.332773 17.818746,5.110133 5.5215,3.668148 21.24172,4.005395 19.63069,6.429363 11.38923,2.016286 22.16259,6.36438 33.22127,9.632177 -2.64941,26.923151 -4.57433,53.930141 -6.53134,80.904671 8.30551,1.50611 22.87318,2.93874 21.63221,2.7882 6.89205,-26.81538 13.50598,-53.704969 20.71314,-80.44139 20.43859,2.43956 41.67614,-1.034049 61.65466,3.64435 1.91628,9.920298 12.82784,0.280271 16.68167,0.184178 11.6823,1.548165 16.01996,8.599939 25.9586,11.131355 14.23575,4.772716 10.13408,1.697186 4.96972,-0.651199 14.35517,4.538112 6.54098,-1.019683 3.98236,-11.097817 -5.84353,-22.682843 1.00088,-45.916222 2.8085,-68.54420033 -4.46754,13.43442333 -2.57507,-5.94467527 8.10913,-0.52028438 13.35843,-1.73377369 26.41985,7.71106001 39.09809,7.01715511 -0.49057,0.2540911 9.21805,5.3951436 2.46809,13.2967916 -4.39638,4.528857 -2.88478,20.848425 -6.49146,16.870977 -3.46576,5.722605 -3.17148,19.83066 -6.36251,19.214206 5.98231,-13.551549 -4.62361,4.749425 -7.09594,9.538126 -2.70604,9.714345 -5.61002,9.823738 -12.13026,14.427879 -8.84779,6.32054 -9.80979,10.386548 -2.1192,4.836857 10.99249,-3.995579 13.3901,15.830416 18.23814,2.436215 5.10157,0.566125 20.55509,0.959197 15.72743,10.62738 8.50808,2.088041 19.84139,-4.780654 26.15746,6.236941 6.90543,2.28432 6.56364,8.03977 16.96057,7.83612 -0.68473,-0.38177 5.28598,6.64868 8.34759,4.80758 -0.93008,-2.09133 7.12643,7.04088 14.2714,8.23338 13.55314,1.65943 4.46514,14.5769 3.43191,22.85165 0.18875,13.95141 -1.2065,4.38485 -4.39448,16.89814 -5.01319,20.2418 -11.54348,40.13291 -15.95032,60.49984 8.39116,3.40373 16.56341,7.82124 25.91281,6.78755 -4.90562,3.3291 16.43708,11.60071 12.46909,-2.39903 6.22957,-27.51622 14.92708,-54.57367 20.19052,-82.22978 4.26679,4.42718 19.58836,1.21635 15.44186,5.12124 12.7015,1.60942 25.39048,7.85651 37.78359,9.20647 1.45527,1.38444 12.72181,4.24135 20.17067,6.20464 11.21418,3.40438 22.69692,6.21833 32.48104,11.74071 6.12232,-2.8885 16.897,2.78707 25.76813,5.0531 12.04331,2.96939 24.09511,9.10151 36.04827,10.41107 1.8469,0.82774 12.36773,4.65067 19.90179,6.40768 10.61956,3.24934 21.16754,6.73954 31.83224,9.83704 1.11304,17.20173 -11.71522,32.22234 -12.86665,48.97421 1.06662,0.79669 -5.84142,7.3086 -7.44261,16.99818 -3.50736,9.67089 -2.66169,14.45327 -7.45234,21.75097 -3.32203,10.54628 -1.33788,8.40737 -5.1759,14.94249 -10.17331,29.80986 -20.61526,59.58436 -31.34196,89.22032 2.61844,2.90108 -6.25741,12.11289 -7.04386,21.1334 0.0374,10.92689 -11.35171,6.48859 -15.9037,5.56832 z m -261.4042,-27.58003 c -8.26705,1.78067 -1.41341,4.11203 0,0 z M 241.33334,206.20665 c -7.1462,-8.28918 -7.91727,-5.07759 0,0 z m 24.88304,-15.87332 c -2.2857,-2.97809 0.70839,10.37639 0.0681,0.16871 z M 332.17008,73.666667 C 338.05955,68.375968 326.32584,75.611073 330.34016,76 l 0.99682,-1.271051 z M 585.33335,428 c -5.6345,-4.97849 11.69114,4.45677 0,0 z M 324.66668,408 c 14.70945,-4.4761 -8.35888,5.1803 0,0 z m 200.66667,-2.66667 c -5.6345,-4.97849 11.69114,4.45677 0,0 z m 94.7075,-2 c 3.89649,-12.87555 2.81722,2.07282 0,0 z M 341.4672,396.39397 c 12.22311,-16.64209 -7.23587,12.44021 0,0 z m 2.79274,-7.7273 c 0.82536,-12.90289 0.83304,13.20645 0,0 z m 165.74008,-3.33334 c -8.14562,-5.16121 14.61665,4.40726 0,0 z m -167.49124,-3.66666 c -3.06645,-12.32891 1.77832,-11.37928 1.25912,1.17768 0.2199,2.82632 -2.00424,0.53362 -1.25912,-1.17768 z m 90.82457,-11 c -5.63447,-4.97848 11.69107,4.45676 0,0 z m 198.7075,-2 c 3.89647,-12.87552 2.81725,2.07274 0,0 z m -280.04084,-6.50341 c 5.39034,-6.42065 8.52958,-6.49318 0,0 z m 64.10527,-22.94104 c 0.96806,-12.13015 0.95936,10.27813 0,0 z m 225.98046,0.38694 c 6.16726,-8.36472 -2.95579,8.77778 0,0 z m -224.64713,-5.72027 c 0.96808,-12.13038 0.95935,10.27818 0,0 z M 418.87721,328 c 0.80737,-10.03268 0.93162,9.88501 0,0.10271 z m 1.22807,-6.11111 c 0.96799,-12.13001 0.95942,10.27806 0,0 z m 234.67554,-17.22222 c 3.06209,-14.43169 3.60691,0.94092 0,0 z M 425.43861,293.88889 c 0.96808,-12.13038 0.95935,10.27818 0,0 z M 385.44748,294 c 3.06209,-14.4317 3.60688,0.94092 0,0 z m 41.42973,-6 c 0.80737,-10.03268 0.93162,9.88501 0,0.10271 z m 1.38862,-6 c 2.02288,-16.88184 2.88808,0.22138 0,1.05136 z m 2.50611,-12.11111 c 0.96805,-12.1302 0.95939,10.27812 0,0 z m -18.52193,-8.13304 c -15.27054,-5.05226 9.65807,-0.6217 6.75,2.13889 -2.34405,-0.2471 -4.48998,-1.50294 -6.75,-2.13889 z M 128,260 c -5.63449,-4.97848 11.69113,4.45677 0,0 z m 10.97601,-4 c 0.99912,-16.3654 0.74738,15.78616 0,0 z m -36.30934,-5.33333 c -5.634499,-4.97849 11.69114,4.45677 0,0 z m 37.66958,-7.33334 c 0.65819,-17.17441 0.79591,16.50326 0,0 z m 292.9971,-8.66666 c -5.63447,-4.97848 11.69107,4.45676 0,0 z m -291.63686,-5.33334 c 0.6899,-18.6016 0.77148,18.22256 0,0 z M 440.18744,232 c 4.24802,-19.8346 2.08735,4.82312 0,0 z M 69.66958,227.33333 c 0.658199,-17.17441 0.795934,16.50326 0,0 z M 42.666668,228 c -5.634487,-4.97848 11.691116,4.45676 0,0 z m 367.333342,-1.42924 c -15.6081,-7.20192 16.49803,4.57579 3.87761,1.86475 -1.29253,-0.62158 -2.58507,-1.24317 -3.87761,-1.86475 z m -344.561412,-2.0152 c 0.968069,-12.13028 0.959365,10.27814 0,0 z m 377.333342,-2.66667 c 0.96805,-12.1302 0.95939,10.27812 0,0 z M 406.77874,222 c 1.3234,-7.21358 7.5821,-25.74216 3.55066,-8.09556 -0.6491,0.44017 -3.71869,12.4778 -3.55066,8.09556 z m -263.80273,-7.33333 c 0.99912,-16.36542 0.74738,15.78617 0,0 z m 305.12927,-15.44445 c 0.96806,-12.13015 0.95936,10.27813 0,0 z m 2.66666,-9.33333 c 0.96805,-12.1302 0.95939,10.27812 0,0 z m 1.3422,-4.55556 c 2.41911,-11.56222 2.72623,1.72787 0.0141,0.38577 z m 133.88588,-4 c -14.52965,-5.36629 5.94583,-0.30891 10.66666,2.45999 -3.84686,0.60603 -7.1538,-1.19961 -10.66666,-2.45999 z m -426.66668,-6.66666 c -8.45486,-5.76126 11.76249,3.98254 0,0 z m -10.31779,-2.27635 c 21.07933,-0.19721 -8.56646,1.78885 0,0 z M 420.18744,172 c 4.24802,-19.8346 2.08735,4.82312 0,0 z m 135.56258,0.42251 c 7.54602,-1.03222 -3.29655,2.62323 -0.25031,0.10017 z m -7.08334,-1.75584 c -8.14559,-5.16123 14.61665,4.40725 0,0 z m -125.89474,-8.77778 c 0.9681,-12.1303 0.95935,10.27814 0,0 z m 83.22808,-3.22222 c -8.14563,-5.16123 14.61666,4.40725 0,0 z M 468.00001,148 c -5.46182,-4.71299 13.77989,4.55038 0,0 z m -318.40674,-8.66667 c 0.82536,-12.90289 0.83306,13.20645 0,0 z m -149.13618954,-16 c -0.80414407,-17.39054 1.64069024,-3.75706 0.51210913,5.70191 -0.68115032,13.00996 -0.47593488,-2.96417 -0.51210913,-5.70191 z M 430.77194,131.6217 c -4.90974,-6.68609 -14.62501,-11.88456 -0.87944,-3.88787 4.01711,0.29981 0.45236,10.29064 0.87944,3.88787 z m -279.72392,-6.95503 c 0.54422,-18.99296 0.89341,18.57355 -5.6e-4,0.20544 z m 21.05725,2.55555 c 0.96815,-12.13051 0.95928,10.27825 0,0 z m -19.72391,-18.55555 c 0.54422,-18.992956 0.89339,18.57355 -5.6e-4,0.20544 z M 153.69649,92 c 0.6899,-18.601597 0.77149,18.22256 0,0 z m 169.63685,-9.333333 c 4.71953,-4.778176 -0.46704,5.585393 0,0 z m -321.4861942,-20 c -0.050945,-11.209776 -0.1047627,-22.52078 0.656607,-5.107914 0.7915847,4.399511 -0.9702081,27.922882 -0.656607,16.92865 0,-3.940245 0,-7.880491 0,-11.820736 z M 154.77193,72.555556 c 0.96809,-12.130277 0.95936,10.278156 0,0 z M 280.00001,72 c -5.6345,-4.978482 11.69113,4.456764 0,0 z m -26.66667,-1.148438 c 6.72676,-3.365963 8.69722,4.460319 0,0 z m 18.66667,-1.518229 c -5.46183,-4.712974 13.77988,4.550364 0,0 z m 68,-8 c 7.33366,-9.941752 -3.99299,9.748162 0,0 z m -265.333341,-24 c -5.461829,-4.712976 13.779885,4.550363 0,0 z m 277.374171,-2 c 3.89648,-12.875527 2.81724,2.072777 0,0 z m 2.66667,-6.666666 c 3.89648,-12.875524 2.81724,2.072769 0,0 z m -351.8303169,-6 c 0.8073742,-10.032689 0.9316268,9.885007 0,0.102713 z m 300.0000069,-12 c 0.80738,-10.03269021 0.93163,9.885008 0,0.102713 z m 36.45614,-7.3706693 c -15.7688,-5.1714543 16.93979,1.9554531 5.71833,1.7651158 -1.94161,-0.3331555 -3.80785,-1.2348457 -5.71833,-1.7651158 z"
       id="path1" />
  </g>
  <metadata
     id="metadata1">
    <rdf:RDF>
      <cc:Work
         rdf:about="">
        <dc:title>Clementine Icon SVG</dc:title>
        <dc:source>https://science.nasa.gov/wp-content/uploads/2023/05/clementine.png</dc:source>
      </cc:Work>
    </rdf:RDF>
  </metadata>
</svg>
