<?xml version="1.0" encoding="UTF-8" standalone="no"?>
<!-- Created with Inkscape (http://www.inkscape.org/) -->

<svg
   version="1.1"
   id="svg1"
   width="682.66669"
   height="344"
   viewBox="0 0 682.66669 344"
   sodipodi:docname="Sentinel-2c-icon.svg"
   inkscape:version="1.4 (e7c3feb1, 2024-10-09)"
   xmlns:inkscape="http://www.inkscape.org/namespaces/inkscape"
   xmlns:sodipodi="http://sodipodi.sourceforge.net/DTD/sodipodi-0.dtd"
   xmlns="http://www.w3.org/2000/svg"
   xmlns:svg="http://www.w3.org/2000/svg"
   xmlns:rdf="http://www.w3.org/1999/02/22-rdf-syntax-ns#"
   xmlns:cc="http://creativecommons.org/ns#"
   xmlns:dc="http://purl.org/dc/elements/1.1/">
  <sodipodi:namedview
     id="namedview1"
     pagecolor="#ffffff"
     bordercolor="#000000"
     borderopacity="0.25"
     inkscape:showpageshadow="2"
     inkscape:pageopacity="0.0"
     inkscape:pagecheckerboard="0"
     inkscape:deskcolor="#d1d1d1"
     inkscape:zoom="0.13417606"
     inkscape:cx="238.49263"
     inkscape:cy="216.13394"
     inkscape:window-width="1104"
     inkscape:window-height="419"
     inkscape:window-x="0"
     inkscape:window-y="25"
     inkscape:window-maximized="0"
     inkscape:current-layer="g1" />
  <title
     id="title1">Sentinel-2c Icon SVG</title>
  <defs
     id="defs1" />
  <g
     id="g1">
    <path
       style="fill:currentColor"
       d="m 681.58547,331.84886 c -0.22599,-3.12332 -1.06838,-3.6577 -8.12745,-5.15574 -4.33144,-0.91919 -8.62414,-1.20847 -9.53935,-0.64284 -1.00166,0.61905 -1.32718,0.48341 -0.8178,-0.34078 0.4889,-0.79106 -0.97232,-1.64387 -3.46066,-2.01974 -7.80669,-1.17921 -73.13735,0.25157 -78.59548,1.72129 -5.44996,1.46752 -25.20664,1.26926 -24.27415,-0.24359 0.69622,-1.12954 -12.78272,-6.65066 -14.15939,-5.79983 -0.60147,0.37173 -1.52774,-0.0266 -2.05839,-0.88523 -0.60256,-0.97496 -0.38685,-1.20389 0.57454,-0.60972 0.84664,0.52325 1.53934,0.66489 1.53934,0.31476 0,-1.07401 -9.58974,-6.63188 -11.44287,-6.63188 -0.95827,0 -1.62565,-0.40071 -1.48305,-0.89046 0.14259,-0.48975 -6.34074,-6.32691 -14.40741,-12.97145 -8.06667,-6.64455 -18.54342,-15.40159 -23.28168,-19.46009 -4.73826,-4.05851 -9.21099,-7.27136 -9.9394,-7.13967 -0.72841,0.1317 -1.35165,-0.55892 -1.38498,-1.53471 -0.0712,-2.08305 -4.67361,-5.74972 -6.10596,-4.86448 -0.54221,0.3351 -1.72728,-0.28412 -2.6335,-1.37605 -0.90622,-1.09192 -1.18121,-1.98532 -0.61109,-1.98532 1.95602,0 -4.06949,-5.6402 -22.58687,-21.14251 -10.19891,-8.53828 -19.09351,-15.35929 -19.76577,-15.15778 -0.67227,0.2015 -0.88285,-0.18287 -0.46798,-0.85416 0.74899,-1.21188 -5.75802,-6.33757 -7.42823,-5.85135 -0.47966,0.13963 -1.67966,-0.77694 -2.66666,-2.03682 -1.64188,-2.09583 -1.56769,-2.13322 0.87212,-0.43949 3.89445,2.70357 -6.0816,-6.56785 -20.95945,-19.47903 -7.1277,-6.1855 -13.49751,-10.91382 -14.15514,-10.50738 -0.65763,0.40643 -2.32588,-0.59688 -3.70722,-2.22959 -2.48971,-2.94277 -2.48772,-2.95118 0.22907,-0.96855 1.50733,1.1 1.02831,0.33252 -1.06449,-1.7055 -2.0928,-2.03802 -4.30809,-3.39463 -4.92286,-3.01468 -0.61477,0.37995 -1.93575,-0.35258 -2.93551,-1.62784 -1.66734,-2.12681 -1.5971,-2.16699 0.84893,-0.48562 1.46666,1.00817 0.97324,0.2496 -1.0965,-1.68571 -2.06974,-1.93532 -4.25176,-3.21679 -4.84893,-2.84772 -0.59716,0.36907 -1.90374,-0.37235 -2.9035,-1.64761 -1.66577,-2.12481 -1.5948,-2.16698 0.84893,-0.5044 1.46666,0.99784 0.62566,-0.0218 -1.86889,-2.26593 -2.49456,-2.2441 -5.19456,-3.96051 -6,-3.81425 -0.80545,0.14626 -1.32806,-0.44324 -1.16136,-1.31001 0.38427,-1.99803 -16.50221,-15.53707 -18.12647,-14.53322 -0.66429,0.41055 -2.02578,-0.29693 -3.02554,-1.57219 -1.64493,-2.09823 -1.59592,-2.14469 0.51559,-0.48873 1.28333,1.00646 2.33333,1.47809 2.33333,1.04807 0,-0.43002 -2.23928,-2.30349 -4.97618,-4.16326 -9.88812,-6.71915 -8.73291,-3.145 2.69401,8.33511 10.37698,10.42529 11.59234,12.15185 11.02802,15.66667 -0.34881,2.17258 -0.97858,6.15788 -1.39949,8.85622 -0.6705,4.29847 -1.46177,5.16338 -6.38915,6.98382 -6.13647,2.26714 -16.28711,4.64004 -23.62387,5.52251 -9.58161,1.15249 -23.40232,3.70868 -25.38847,4.69569 -1.13032,0.56171 -2.82148,4.01144 -3.75813,7.66606 -2.88837,11.26981 -3.47953,11.49387 -31.65699,11.99841 -13.49136,0.24158 -24.52975,0.0705 -24.52975,-0.38024 0,-0.45071 0.98128,-2.31709 2.18061,-4.14751 1.19934,-1.83042 1.75092,-3.75931 1.22574,-4.28642 -1.52434,-1.52997 -45.61341,-1.96486 -48.39286,-0.47734 -1.35805,0.72681 -4.54165,6.54668 -7.07467,12.93304 -2.53302,6.38637 -6.10549,13.22706 -7.93882,15.20154 -3.19128,3.43698 -4.21409,3.65699 -24,5.16245 -30.65043,2.33213 -43.37165,2.05466 -53.162585,-1.15954 -4.548315,-1.49313 -8.940114,-2.30043 -9.759553,-1.79399 -0.863103,0.53343 -1.119174,0.32098 -0.608688,-0.50501 0.848924,-1.37359 -3.693616,-3.4215 -15.747999,-7.09965 -2.903351,-0.88591 -6.267068,-1.67279 -7.474928,-1.74865 -2.303954,-0.14468 -8.205828,-6.52855 -9.618247,-10.40375 -0.454216,-1.24621 -0.932885,-8.00811 -1.06371,-15.02645 -0.130825,-7.01833 -0.611311,-12.94976 -1.067746,-13.18094 -0.66579,-0.33723 -22.883393,0.87884 -35.49655,1.94288 -1.466667,0.12372 -4.6166671,-0.23133 -7.0000005,-0.78901 L 0,185 -0.01458997,150.16667 C -0.02579429,123.41651 2.2843576,50.970147 3.1855673,49.809734 3.2668387,49.705087 10.233334,49.269082 18.666667,48.840833 27.100001,48.412585 38.01286,47.66491 42.917466,47.179334 l 8.917465,-0.882866 -3.814901,-3.8149 c -2.098195,-2.098196 -4.449623,-3.814901 -5.225395,-3.814901 -2.762206,0 -3.096608,-6.497189 -0.593882,-11.538674 2.652307,-5.342798 2.638614,-5.337804 18.132582,-6.614143 8.836937,-0.727956 9,-0.810374 9,-4.54893 0,-2.094148 0.543672,-4.143549 1.20816,-4.554225 0.664488,-0.410676 0.907834,-1.8951335 0.540769,-3.2987938 -1.275986,-4.8793773 10.254274,-9.7121254 14.917739,-6.2525624 2.292062,1.7003531 2.428917,2.3675207 0.974214,4.7493201 -1.518912,2.4869297 -1.313836,2.9195226 2,4.2188581 2.030849,0.796284 10.07568,1.767649 17.877403,2.158588 14.07536,0.705309 21.85697,-0.09423 20.60666,-2.117269 -0.62443,-1.0103608 4.56082,-0.742311 10.87506,0.562183 2.90838,0.600858 3,1.104494 3,16.490981 l 0,15.871194 4.33333,1.331651 c 8.69073,2.670694 19.09573,3.169667 20.89472,1.002008 0.9175,-1.105522 1.22383,-2.729028 0.68072,-3.607791 -0.58875,-0.952619 -0.42343,-1.249159 0.40944,-0.734419 0.79228,0.489658 2.67702,-1.873868 4.35447,-5.460655 1.62666,-3.478193 4.62719,-8.809873 6.66784,-11.848177 2.04065,-3.038304 4.10596,-8.138304 4.58958,-11.333333 1.66943,-11.0291117 2.2875,-13.142463528139 3.84251,-13.13853231 1.81798,0.00459605 2.09392,25.08029431 0.37777,34.32938731 L 186.43228,40 l 7.15385,0 c 7.43274,0 13.87657,-2.966639 12.23017,-5.630574 -0.49967,-0.808482 -0.28171,-1.06909 0.49346,-0.590011 0.76364,0.471957 3.82356,-2.298261 6.79982,-6.156042 8.20842,-10.639642 12.44285,-13.235701 22.76391,-13.956166 8.06573,-0.563031 9.04982,-0.337937 11.89538,2.72087 3.58323,3.851777 4.55788,9.435765 2.48762,14.252111 C 249.46218,32.488084 248.75151,34.9 248.67721,36 c -0.0743,1.1 -0.86823,1.846278 -1.76429,1.658395 -1.60273,-0.336054 -5.23146,5.800836 -4.0994,6.932893 0.76535,0.76535 19.0687,4.755852 25.85315,5.636514 5.22189,0.677831 5.43085,0.543377 10,-6.434419 l 4.66667,-7.126716 8,-0.422145 c 10.45633,-0.551762 19.30278,0.777275 18.81598,2.826796 -0.20841,0.877442 -0.12726,1.145349 0.18033,0.595349 0.30759,-0.55 1.45454,-1 2.54878,-1 1.63613,0 1.87328,1.650901 1.33508,9.294088 l -0.65445,9.294089 4.22048,0.669035 c 32.91755,5.218134 33.50413,5.428176 35.71948,12.790422 1.42642,4.740417 8.1149,10.093715 10.65207,8.52566 0.68658,-0.424329 1.08346,0.02309 0.88196,0.994266 -0.20263,0.976603 0.67004,1.684078 1.95261,1.582979 1.27544,-0.100536 2.0217,0.298218 1.65836,0.88612 -0.88607,1.433696 8.29816,7.029142 9.90621,6.035309 0.69604,-0.430173 1.69968,-0.07964 2.23033,0.77896 0.64181,1.038467 0.33787,1.230202 -0.90787,0.572714 -1.02997,-0.543609 -0.37268,0.253041 1.46065,1.770333 1.83334,1.517293 4.06412,2.495563 4.9573,2.173934 0.89319,-0.321628 2.03589,0.08172 2.53935,0.896334 0.58709,0.949939 0.24378,1.132683 -0.9573,0.509558 -1.02997,-0.534355 -0.73429,-0.04628 0.65708,1.084611 1.39137,1.130892 3.13408,1.682681 3.87268,1.226199 0.73861,-0.456482 0.94316,-0.183142 0.45456,0.607422 -0.48859,0.790564 0.86132,2.68327 2.99982,4.20601 4.19792,2.98918 6.12575,3.56446 4.80985,1.43529 -1.34132,-2.1703 0.18898,-1.51969 2.17007,0.92261 1.57567,1.9425 1.55204,2.11168 -0.17007,1.21763 -1.1,-0.57107 -0.5,0.20311 1.33333,1.7204 1.83334,1.51729 4.03947,2.50503 4.90252,2.19496 0.86305,-0.31007 2.36305,0.45058 3.33333,1.69032 1.58534,2.02561 1.52765,2.0686 -0.56918,0.42415 -1.28333,-1.00646 -2.33333,-1.47809 -2.33333,-1.04806 0,1.55736 9.81262,7.40582 11.09541,6.61301 0.72413,-0.44754 0.92347,-0.1776 0.44297,0.59987 -1.12326,1.81748 12.10065,11.37891 14.0615,10.16704 0.85718,-0.52977 1.10538,-0.30974 0.59045,0.52344 -1.04339,1.68824 6.16323,7.19907 8.72282,6.67025 0.96443,-0.19926 1.62244,0.33094 1.46224,1.17821 -0.1602,0.84727 1.74976,3.09727 4.24437,5 4.85375,3.70213 6.79216,4.4107 5.25291,1.92016 -0.59416,-0.96139 -0.36524,-1.1771 0.60973,-0.57454 0.8586,0.53065 1.23896,1.48603 0.84524,2.12308 -0.65214,1.0552 10.33293,9.59111 11.50276,8.93817 0.27661,-0.15438 0.36099,-0.0388 0.1875,0.25695 -0.61738,1.05233 8.06761,6.6942 9.21413,5.98561 0.64205,-0.39681 1.00251,-0.0982 0.801,0.66367 -0.50696,1.9167 18.98831,16.29059 20.67828,15.24614 0.75206,-0.4648 0.97982,-0.21802 0.50615,0.54841 -0.90629,1.46641 5.19212,6.12963 8.01613,6.12963 0.90701,0 1.37529,0.44305 1.04062,0.98455 -0.85056,1.37623 17.43734,14.73292 19.54774,14.27682 0.94793,-0.20486 1.75078,0.38713 1.78411,1.31554 0.0787,2.19126 7.50487,7.06747 9.18344,6.03005 0.70905,-0.43822 0.90304,-0.17196 0.43108,0.59168 -0.47195,0.76365 2.43534,3.92932 6.46066,7.03483 4.02532,3.10551 7.31876,6.39841 7.31876,7.31757 0,0.91915 -1.89583,2.05035 -4.21296,2.51378 -5.44094,1.08818 -4.54523,1.82978 4.2171,3.49152 10.97956,2.08223 19.59404,6.65202 36.13973,19.17131 8.35421,6.32121 19.75075,14.94343 25.32565,19.1605 5.5749,4.21708 12.7749,9.30183 16,11.29946 8.55308,5.2978 34.17113,25.48267 41.58137,32.76263 3.51132,3.44959 6.81132,6.27198 7.33333,6.27198 0.52202,0 0.76745,0.54502 0.5454,1.21115 -0.22204,0.66613 0.26072,1.62178 1.0728,2.12368 0.90581,0.55982 1.28814,3.95684 0.98916,8.78885 -0.26804,4.33198 -0.6008,6.30831 -0.73946,4.39185 z M 102.34888,239.05699 c 1.65855,-0.31893 4.05855,-0.30682 5.33334,0.0269 1.27478,0.33373 -0.0822,0.59466 -3.01555,0.57987 -2.93333,-0.0148 -3.97634,-0.28785 -2.31779,-0.60677 z M 0.43752026,59.333333 C 0.44343536,54.2 0.6844301,52.263383 0.97306413,55.029739 1.2616982,57.796096 1.2568585,61.996096 0.96230941,64.363072 0.66776028,66.730049 0.43160516,64.466667 0.43752026,59.333333 Z M 267.00001,48.414233 c 1.28333,-0.33537 3.38333,-0.33537 4.66666,0 1.28334,0.33537 0.23334,0.609763 -2.33333,0.609763 -2.56667,0 -3.61667,-0.274393 -2.33333,-0.609763 z m 31.33333,-14.630607 c 0.91667,-0.369883 2.41667,-0.369883 3.33334,0 0.91666,0.369883 0.16666,0.672514 -1.66667,0.672514 -1.83333,0 -2.58333,-0.302631 -1.66667,-0.672514 z M 235.75001,11.089181 c 0.9625,-0.385161 2.1125,-0.337792 2.55555,0.105263 0.44306,0.443056 -0.34444,0.758188 -1.75,0.700293 -1.55325,-0.06398 -1.8692,-0.379921 -0.80555,-0.805556 z"
       id="path1" />
  </g>
  <metadata
     id="metadata1">
    <rdf:RDF>
      <cc:Work
         rdf:about="">
        <dc:title>Sentinel-2c Icon SVG</dc:title>
        <dc:source>https://www.esa.int/var/esa/storage/images/esa_multimedia/images/2015/03/sentinel-2/15292661-1-eng-GB/Sentinel-2_article.jpg</dc:source>
      </cc:Work>
    </rdf:RDF>
  </metadata>
</svg>
