<svg xmlns="http://www.w3.org/2000/svg" baseProfile="tiny" width="512" height="258" xmlns:v="https://vecta.io/nano"><style><![CDATA[.B{fill:#cbcaac}.C{fill:#8793a4}.D{fill:#181618}.E{fill:#94918b}]]></style><path d="M140.48 0l-1.02 15.09a1.06 1.04 29.7 0 0 .19.66l.56.78q.33.81-1.29 1.39a.67.67 0 0 1-.9-.62q-.05-2-1.5-1.57 2.12-4.65 2.05-10.4a2.68 2.68 0 0 1 .08-.65L139.78 0h.7z" class="D"/><path d="M141.69 0q.72 8.48-.31 16.7l-1.17-.17-.56-.78a1.06 1.04 29.7 0 1-.19-.66L140.48 0h1.21z" class="C"/><path d="M62.45 1.18h-1.98q.91-.32 1.98 0z" class="D"/><path d="M60.47 1.18h1.98q.89.14 1.62.58l-5.55.02q.93-.49 1.95-.6z" class="B"/><path d="M64.07 1.76q1.06.39.88 1.42-.63 1.8-1.37 1.87.16-1.57-.95-2.62a1.48 1.45 68.8 0 0-.84-.38q-1.4-.12-2.34.85a.56.56 0 0 0-.02.75q.83.98 2.14 1.61-2.22-.29-4.36.26 1.26-3.42-3.57-.96 2.03-2.41 4.88-2.78l5.55-.02z" class="D"/><path d="M63.58 5.05q-1.15.49-2.01.21-1.31-.63-2.14-1.61a.56.56 0 0 1 .02-.75q.94-.97 2.34-.85a1.48 1.45 68.8 0 1 .84.38q1.11 1.05.95 2.62z" class="C"/><path d="M64.95 3.18l.15 1.35q-.67.99-2.09 1.77a.33.33 0 0 0-.04.55c3.69 2.88 6.9 2.12 10.76 3.33q-1.9-.3-2.58.31-3.54.01-6.47 4.71a.4.39 22.8 0 1-.43.17q-.78-.19-2.61.1a.32.32 0 0 0-.14.57q1.06.8 2.46.56a.72.71-6.2 0 1 .83.66q.11 1.74.7 3-.19.5-.05 1.06l1.34 9.08a1.02 1.01 84 0 0 1.05.86c2.32-.12 5.04-.1 6.32 2.07a.63.62 73.9 0 1-.52.95l-6.03.14a.12.12 0 0 0-.11.08l-.09.24a.54.53 10.9 0 0 .49.72l5.14.14a1.18 1.18 0 0 1 1.14 1.27q-.11 1.47.92 1.64a.87.87 0 0 1 .71.7q.26 1.32 1.91 1.26-.8-.06-1.32.42a.49.48 49.6 0 0-.05.65l.26.32a.61.61 0 0 0 .79.15l1.14-.66a.8.8 0 0 1 .94.11c2.28 2.12 4.21 1.47 7.6.93q.56-.09.89.01.88.28.92.32a.59.59 0 0 0 .97-.11q.24-.47 3.42-1.58a.87.86-3.7 0 0 .57-.64q.4-1.98 2.6-2.05a.59.58-81.5 0 0 .54-.4q.49-1.5.38-2.1a.43.43 0 0 1 .56-.48q.97.31 1.22 1.33a.32.3-5.5 0 0 .31.24q.46-.02.61-.26a1.22.65-67.5 0 1 .73-.6l2.69-.27a1.28 1.28 0 0 0 1.15-1.32q-.03-.69-.19.3a.47.47 0 0 1-.85.2q-.39-.53-.86-.87-.92-.68-.83-1.49.07-.7-.64-1.01a1.02 1-79.7 0 1-.6-.88q-.07-1.76.44-3.52.48 1.13.7-1.21.23-2.42-.35-9.21.35-1.4.21-3.04.35-.89 1.16-.52.43.2.47.65a.12.11 54.4 0 0 .22.04q.35-.87 1.17-1.04a.58.58 0 0 1 .63.83q-.23.46-.31 2.04-.27 5.84.13 15.47a.84.84 0 0 1-.08.4l-.17.34q-.28.68-.29 1.39a.43.43 0 0 0 .54.42q.53-.14 1.05-.56.32.13.49.05 1.07 1.06 1.16 2.04.08.84-.67.84-.56 0-1.34-.53a.78.78 0 0 0-1.12 1.03q.65 1.12.25 2.58a.37.37 0 0 0 .54.41l1.66-.96a.81.77 29.4 0 1 .44-.11l6.71.18a.45.45 0 0 0 .46-.5l-.04-.31a.3.29 88.6 0 0-.26-.26l-4.57-.44a.6.59-4.9 0 1-.52-.43l-.08-.3a.35.34-11.8 0 1 .3-.44l3.9-.42q.59.21 1.29.21.56.19 1.05 0l7.14.94a1.02.99-62.8 0 0 .85-.29c2.95-2.96 4.59-6.77 6.7-10.22q1.67-1.49 2.07-3.95.38-.47.41-1.07 1.16-3.25 3.52-5.53 1.45-.43 1.5 1.57a.67.67 0 0 0 .9.62q1.62-.58 1.29-1.39l1.17.17-.41 5.2a2.5 1.92-64.2 0 1-.06.34l-1.78 7.94q-.38 2.3-2.18 3.33-.66.38-.63 1.27.02.84.23 1.05.41.4.84-.25.95-1.45 1.99-1.72a1.07 1.05 62.3 0 1 1.06.34q.27.32.55.41a1.33 1.32-47.5 0 0 .81-.04q3.91-1.57 7.71-.31 4.48 1.49 8.72 1.9a3.88 3.54-29.2 0 1 .94.22q2.5.96 5.23 1.03.95.24 2.37 1.86a.21.21 0 0 1-.16.35l-17.22-.43a.43.42 2.1 0 0-.44.4q-.02.14.18.44a.39.37 68.5 0 0 .34.16q3.92-.35 7.52.36 2.37.47 9.26.35.68-.02 1.16.55a.36.36 0 0 1-.23.59q-.89.11-1.18.31a.39.39 0 0 0 .03.65q.01.01.34.05a.71.71 0 0 1 .59.84l-.52 2.68a.9.83-52.7 0 0 .05.53l.63 1.44q.11 1.57 1.02 2.12a.55.54 55.4 0 1-.18 1q-.6.12-1.06-.1a.39.38 6.5 0 0-.55.43q.22.88-.64.72a.19.18 77.1 0 0-.18.29q.19.26.47.01.21-.18.57-.13 1.79.28 2.33-1.35.16-.46.41-.42.15.03.42.25a.42.42 0 0 0 .67-.18l.19-.48q.36 2.06 2.46 2.78l13.78 25.85a.61.58 62.6 0 0 .79.27l.04-.03a.58.58 0 0 0 .25-.79q-5.84-11.15-11.5-22.03-.65-1.24-1.92-4.3-.88-2.11-1.97-4.28.28-.69.27-.93a1.1 1.1 0 0 1 1.65-1.07l3.85 2.22a2.12 1.89-3.2 0 1 .49.39q1.95 2.14 4.26 3.66.35.23.13.57a.37.37 0 0 0 .09.5q1.48 1.09 2.33 3.65a.61.55 45.7 0 0 1.1.07q.11-.41.21-.5a.4.39-28.1 0 1 .66.2q.18.86 1.2.9a1.3 1.27-24.2 0 1 .73.27q1.23.94 1.69 2.5l3.66 8.21.35 14.89a.7.69 83.4 0 1-.54.69q-.57.13-.59.55c-.12 1.92 1.39 2.36.65 4.47q-.78 2.25-.4 4.21-.03 1.55.65 3.21a.22.21 70.3 0 1-.13.28q-.27.09-.32.09a.39.38-85.3 0 0-.4.35l-.47 4.9a.36.36 0 0 0 .45.38l.76-.21a.58.58 0 0 1 .69.78q-.51 1.23.17 4.93a.22.22 0 0 0 .19.18q.11.02.36.21a.38.35 20.9 0 1 .15.31l-.65 12.93a.85.84-89.7 0 0 .88.89l12.5-.53a.52.51-88.5 0 1 .53.56l-1.24 12.98a.84.83-.6 0 0 .93.9l15.67-1.89a1.41 1.38-68 0 0 .73-.32q1.03-.89 1.82-2.51a1.57 1.55-81.8 0 1 1.12-.85q3.27-.58 4.92-.27a.89.89 0 0 1-.06 1.76l-3.7.45a.5.49 2.4 0 0-.43.39l-.06.33a.45.45 0 0 0 .43.54q1.44.06 3.81-.42.76-.15.8-.22.25-.42.75-.08a.74.7 56.6 0 0 .47.11l19.45-2.02a1.12 1.11-.6 0 0 .99-1.01l1.07-11.69q1.41 1.18 2.07 2.46a1.69 1.69 0 0 1 .14 1.15q-.58 2.36-.36 4.47a1.45 1.42 62.8 0 1-.33 1.07q-.21.26-.73 3.74-.26 1.72-1.79 3.17a2.31 2.25 13.5 0 1-.86.51q-5.99 1.98-12.24 3.07-.79.14-1.2.29c-1.54.56-2.84-.02-4.42.85a1.98 1.96-59.9 0 1-.92.25l-2.04.03q-1.26-.36-.98.15c-.44.37-1.15.73-1.72.67q-2.2-.25-4.01.67a1.61 1.58-53.9 0 1-.9.15q-.19-.02-.38-.04l-.24-.63a.44.44 0 0 0-.68-.19q-.35.28-.6.79c-1.56.43-3.08 1.18-4.68 1q-2.26-.26-4.39.98a1.9 1.78-.3 0 0-.6.57q-.85 1.32-.73 2.64a2.84 2.8 56 0 1-.29 1.55q-.7 1.41-.7 1.52.07 2.34-1.09 4.36c-2.27 3.94-5.39 3.54-9.1 4.23q-1.94.36-4.51.36-8.08.03-16.15-.01l-2.67-.17a1.16 1.12 67.4 0 1-.67-.29q-1.1-.98-1.88.39l-1.29.01q-2.8-1.73-3.35-.43-.61-.74.96-2.07 2.03.91 3.95 1.01a.66.66 0 0 0 .53-1.1q-1.26-1.42-3.09-1.86.55-1.58.01-2.78a.68.68 0 0 0-.73-.4q-1.41.2-2.01-.42l-.3-2.29a.92.92 0 0 0-1.16-.76l-4.38 1.24a.82.82 0 0 1-.87-.28l-.84-1.05a.55.54 36.3 0 0-.94.14q-.18.48-.07.95.07.28.7.39 1.22.2 2.1 1.2h-26.67a4.2 4.17-76.9 0 0-3.76 2.36q-2.6 5.35-5.11 12.25-1.46 4.04-3.68 7.65c-1.03 1.68-2.37 1.27-3.83 2.18a1.88 1.87-60.1 0 1-1.02.28c-2.47-.08-4.78 1.23-6.92.97-2.77-.32-5.25.99-7.97.85q-3.12-.16-10.81.52-5.07.45-12.87.3l6.42-18.59a.88.87-83.6 0 1 .73-.59q1.15-.12 2.56.47a.74.74 0 0 0 .92-1.06l-.66-1.14a.6.58 58.1 0 1 .17-.77q.56-.4.54-.62a.27.27 0 0 0-.46-.17q-1.06 1.08-2.92.39a.65.64 35.9 0 1-.18-1.11l2.32-1.85a.3.3 0 0 0-.15-.53q-.89-.1-2.91 2.41a.71.7 32.2 0 1-.86.19l-2.17-1.05a1.85 1.77 58.4 0 0-.69-.18q-2.77-.18-5.24-1.72-.52-.33-.25-.88l5.3 2.1a.08.08 0 0 0 .1-.03l.13-.22a.33.32-58.4 0 0-.09-.41q-2.19-1.56-4.85-2.54a.6.59 11.7 0 0-.81.52q-.01.26.22.58-.59.34-.99.15-7.49-3.51-15.49-6.14a.43.43 0 0 1-.25-.6l.17-.34a.79.79 0 0 1 .98-.4l6.11 2.22a.3.3 0 0 0 .26-.54q-2.48-1.52-6.34-2.57a1.25 1.24 25.3 0 0-1.33.47q-.3.41-.47.56a.69.67-51.7 0 1-.75.1l-6.79-3.31a.5.5 0 0 0-.72.42q-.06.79.02 1.92a.88.86 52.8 0 0 1.69.25q.1-.29.52-.19.99.23 3.69 1.55a.63.62-62.3 0 1 .27.88q-.76 1.29-1.02 2.97.04.3-.11.79-3.74-1.52-5.79-4.6a2.82 2.81-7.3 0 0-1.44-1.11q-27.81-9.51-31.38-10.56-1.46-.44-6.57.83a1.14 1.1 3.4 0 0-.77.66l-1.71 4.13q-2.19 1.54-4.02 1.75-2.64.31-5.4-1.67-2-8.29-2.49-10.6-.33-1.54.19-3.55a.79.78 28.3 0 0-.24-.78q-.11-.1-.13-.12a1.6 1.54 27.7 0 1-.31-.93q.01-3.43 0-6.89H.62q0 .06.01.12.36 3.84-.63 7.24v-21.88c.81-7.28.87-14.97 1.33-21.89q.57-8.45.42-16.93.22-.39.15-1.08l.67-16.91q.23-.45.05-1.08l.33-4.88a.68.68 0 0 1 .67-.64l4.4-.08 4.92-.02q2.61.13 5.09-1.03.89-.42 1.51.33.95 1.14 2.93.52.6.08 1.2-.13a1.64 1.56-51.1 0 1 .61-.08q7.14.5 14.5-.93 1.36-.69 4.43-.3L46 31.53q.5.43 1.27-.72l4.65-2.17a.69.69 0 0 1 .82 1.06q-.45.55-1.43 1.1l-1.63.25a.48.48 0 0 0-.32.76q.62.82.03 1.59a.32.32 0 0 0 .25.51q2.51-.01 4.87-.98.92.58 1.57.23c1.48-.82 2.96-1.01 4.56-1.28a.4.4 0 0 0 .01-.78l-.58-.13-.34-.26a.37.37 0 0 1 .2-.66q.1-.01.26 0a.59.59 0 0 0 .62-.74q-.29-1.13-1.05-2.01-.19-.22-1.57-.2-1.58.02-1.69.03a.4.4 0 0 1-.36-.58q.09-.17.49-.49.58-.47 0-.92-.31-.24-.79-.2-.34.03-.61-.4-.73-1.18-1.88-.96-.96-.97-1.98-1.42-1.36-.6-1.7 1.55-.32 1.49-1.53 2.58 1.08-3.08-1.4-3.79-4.24-1.21-7.41-3.97a.67.66-59.6 0 0-1.06.28l-1.09 2.98a.85.84 9.7 0 1-.8.56h-.33a.62.62 0 0 1-.47-.9q1.54-2.92-.04-3.8a1.85 1.63-69 0 0-2.44 1.28q-.12.44-.64 1.12.19-1.84 1.39-2.91a1.16 1.16 0 0 1 1.09-.24l3.21.93a.68.68 0 0 0 .72-.22q.01-.02-.19-.43a.69.68-22.2 0 1 .4-.94q1.9-.64 3.16-.6 3.02 1.93 6.54 2.25a.97.97 0 0 0 .47-1.86l-.7-.31 2.78.41a.58.58 0 0 0 .65-.46l1.15-5.88a2.18 2.17-20.5 0 1 .42-.92q1.12-1.44.88-2.33 1.18.84 2.78-1.02 2.14-.55 4.36-.26.86.28 2.01-.21.74-.07 1.37-1.87zm-8.29 4.3l-2.98 4.45q-.94 1.44-1.15 3a.51.5-83.4 0 0 .45.57q1.75.18 2.89-1.19 1.6-1.93 2.11-3.28a.57.57 0 0 1 .78-.31l4.27 2.09a.36.36 0 0 0 .42-.57q-3.19-3.49-6.79-4.76zm56.651 33.489a.53.53 0 0 0-.595-.455l-6.919.923a.53.53 0 0 0-.455.595l.008.059a.53.53 0 0 0 .595.455l6.919-.923a.53.53 0 0 0 .455-.595l-.008-.059zM105.39 51.27l-.17-5.79a.87.86-8.9 0 0-1.1-.8l-3.03.86a.72.72 0 0 0-.49.49q-.55 1.94-.43 2.25a.45.45 0 0 0 .75.13q.93-1.09 1.94-1.69a.45.45 0 0 1 .68.31l.81 4.92q.82 1.35 1.14 2.45a.75.75 0 0 1-1.3.67l-2.26-2.85a1.13 1.13 0 0 0-2.01.6l-.86 9.05a1 1 0 0 0 1.12 1.09l2.83-.34a1.02 1-28.3 0 1 .76.22l1.54 1.28a.63.63 0 0 0 .91-.12q.58-.84 1.7-1.35a2.57 2.57 0 0 1 1.13-.22q3.89.13 6.57-1.61a1.81 1.73 23.9 0 1 .75-.27l3-.36a1.16 1.16 0 0 1 1.3 1.1l.25 6.11a.18.18 0 0 0 .16.17l.33.03a.22.22 0 0 0 .24-.24q-.06-.61.17-1.47a.75.74 11 0 1 .8-.54q1.59.17 2.16-.17a.38.37 88.6 0 1 .52.5q-.09.18-1.95 1.43a.52.52 0 0 0-.04.83l.33.28a.91.89-41.9 0 0 1.07.05q2.49-1.65 3.22-4.52a.56.56 0 0 1 1.01-.17q.77 1.21.7 2.23a.57.56-86.5 0 0 .53.61q2.04.09 3.92-.58a.56.56 0 0 1 .75.46l.34 2.87a.44.44 0 0 0 .86.03q.55-2.79 1.5-4.03c1.25-1.62 1.5-3.73 1.39-4.92a.48.47 66.1 0 0-.79-.31q-1.06.96-3.02.65a.1.1 0 0 1-.03-.18l3.39-1.96a.65.64-12.9 0 0 .32-.5l.63-6.56a.28.28 0 0 1 .51-.13l.21.3.44 12.45a2.22 2.09 57.8 0 1-.19.98q-1.16 2.53 0 5.22a.37.37 0 0 0 .71-.12l.14-2.38.84-.11a1.43 1.43 0 0 0 1.2-1.67q-1.19-6.5-.13-11.57a.59.59 0 0 1 1.16.1l.67 15.89a.25.25 0 0 0 .47.11q2.06-3.82 1.54-7.37c-.65-4.4-.42-5.78-.47-10.42a.81.81 0 0 0-1.04-.77q-.47.14-.7.47a.21.21 0 0 1-.27.06q-.27-.15-.23-.52a.69.69 0 0 1 .34-.54q.96-.55 1.63-1.6a.46.46 0 0 1 .85.2l2.51 20.82a.39.39 0 0 0 .63.26l.4-.33a1.33 1.32-18.7 0 0 .51-1.02q.12-6.05 1.69-11.66.32-1.12-.4-4.15a.39.39 0 0 1 .45-.48q.53.09 1.13.61a.4.4 0 0 0 .66-.25q.21-1.91 1.71-2.48a.36.36 0 0 1 .48.32l.03.65a.63.63 0 0 0 1.22.17q.27-.81-.43-1a.73.72 8.3 0 1-.54-.71q0-.12-.01-.2a.74.73 88.3 0 0-.72-.69q-1.23-.03-1.54 1.37a.58.56 8.3 0 1-.62.45l-2.46-.23a.41.39-65.4 0 0-.34.14q-.2.23-.21.24a1.44 1.44 0 0 1-2.5-.9q-.08-1.77-1.22-2.6a.86.85-73.5 0 1-.35-.65l-.18-4.25a.4.4 0 0 0-.14-.28q-.55-.45-1.22.14a.69.68-30.5 0 0-.2.75q.5 1.35-.42 2.23a.46.46 0 0 1-.73-.54q.67-1.32.62-1.56a.6.6 0 0 0-.92-.37q-1 .68-1.7-1.46a.79.79 0 0 0-1.54.17l-.14 1.45a.86.85 36.2 0 1-1.64.25q-.97-2.25-4-1.74a.73.71-8.4 0 0-.6.79l.25 2.03a.49.49 0 0 1-.91.3l-.84-1.45a.43.43 0 0 0-.63-.13q-1.25.94-3.82.55a1.92 1.91 35.8 0 0-1.14.18q-1.76.86-4.24.13-.72-.22-1.05.01-.56.39-.62.88a.5.49 89.2 0 0 .57.56q3.68-.61 5.61 1.55a.62.61-25.6 0 1-.36 1.02q-2.4.38-4.25-.71a1.05 1.05 0 0 0-.98-.04q-.95.45-1.03 1.33a.32.32 0 0 1-.52.23q-1.38-1.03-1.28-2.03a.47.46-85.3 0 0-.43-.52q-1.5-.08-2.79-.85a.84.83-47.5 0 0-.92.05q-.6.45-2.61.29a1.37 1.35-60.3 0 0-.86.24q-1.51 1.06-2.82.95a.9.9 0 0 1-.83-.98l.03-.28a1.53 1.53 0 0 1 1.36-1.37q2.53-.24 3.35-.72a.65.64 24.3 0 0-.45-1.19l-4.36.88a.25.24-22.3 0 1-.25-.1l-.21-.26a.14.14 0 0 0-.25.08l-.67 7.11a.52.52 0 0 1-.7.43l-.34-.13zm-74.11-7.19c-1.02-1.63-2.44-1.41-3.75-.32q-.63.52-1.35.24a.67.66-65.1 0 0-.83.31q-.89 1.63-.32 3.26a.56.56 0 0 0 1.09-.17l.05-1.94a.85.84 83.6 0 1 .62-.79q2.19-.59 4.11-.08a.34.34 0 0 0 .38-.51zM4.24 46.1q-.45 3.67.45 7.12 2.35 8.93 3.23 18.16a.88.87 15.5 0 0 .35.61l4.25 3a.48.47-47.8 0 0 .58-.03l.01-.01a.51.51 0 0 0 0-.7q-1.8-1.9-1.8-4.18a2.57 2.52 38 0 0-.09-.67L4.6 46.07a.18.18 0 0 0-.36.03zm64.44 4.76q.27.09 1.59-2.12a.72.68-29.5 0 0 .1-.32q.04-.73-.5-.92-.53-.18-.96.4a.72.68 68.6 0 0-.13.31q-.36 2.56-.1 2.65zm-4.782 1.887a3.17.79-75.8 0 0-1.543 2.879 3.17.79-75.8 0 0-.012 3.267 3.17.79-75.8 0 0 1.544-2.879 3.17.79-75.8 0 0 .012-3.267zM156.68 70.53l.4.04a.73.7-55.4 0 0 .4-.08q2.36-1.33 3.84-2.03 1.13-.54 3.49-1.31c3.67-1.2 6.76-3.39 10.15-4.57q.22-.07.21-.11-.01-.28.07-.34a.38.37 55.1 0 1 .54.1q.14.22.09.62a.44.43-86.5 0 0 .43.49q.45-.01.72-.33a.31.3 52.5 0 0 .04-.36l-1.18-2.03a.95.95 0 0 0-1.3-.35q-1.35.79-2.21.74a1.1.97-30.1 0 1-.25-.05q-2.9-.99-5.47.62a1.49.92-58.3 0 1-.28.14q-1.43.57-4.09-.89c-1.76-.96-3.08.1-4.9.57a.63.62-21.4 0 1-.7-.3q-.04-.09.03-.51a.5.5 0 0 0-.47-.59q-.44-.03-.46-.02a.12.12 0 0 0 .01.23q.08.01.17.01a.63.63 0 0 1 .63.79q-.42 1.65-1.32 2.8a.79.77 67.7 0 0-.18.44l-.77 8.09a.46.45-.1 0 0 .51.5q1.79-.17 1.7-2.16a.14.14 0 0 1 .15-.15zm-3.569-5.829a2.49.64-88.6 0 0-.701 2.474 2.49.64-88.6 0 0 .579 2.505 2.49.64-88.6 0 0 .701-2.474 2.49.64-88.6 0 0-.579-2.505zm9.119 9.519c1.96.14 2.72.26 4.37-.11q3.94-.89 7.96-.36c2.98.39 4.62.31 7.1.58a.42.41-5.8 0 0 .45-.54q-1.15-3.66-3.32-6.64a.78.77 57.1 0 0-1.01-.22l-5.06 2.92a.28.27-55.4 0 0 .09.51q3.21.53 6.79-.46a.25.25 0 0 1 .31.29l-.13.69a.92.92 0 0 1-.9.74c-5.32-.01-7.57.32-10.88-.02q-3.3-.34-6.03 1.75a.49.48-61.8 0 0 .26.87zM56.36 68.41l-.51 18.88a.29.29 0 0 0 .51.19q.07-.09-.02-.78a.39.39 0 0 1 .63-.37q.89.7.83 2.05-.15 3.55-.24 6.93a.52.52 0 0 0 .5.54h.31a.33.33 0 0 0 .34-.3l1.3-13.66a.35.34 86.9 0 0-.41-.37q-.49.09-.54 0a1.19 1.16-61 0 1-.18-.66l.1-5.46a.08.03 32.7 0 0-.04-.05l-.01-.01a.1.06 23.8 0 0-.16.02q.31 1.24-.14 2.03a.32.32 0 0 1-.58-.04q-.56-1.47.12-3.78.25-.82.14-1.22-.2-.77-.92-.84a.28.27-62.7 0 1-.15-.48q.31-.28-.37-2.68a.26.26 0 0 0-.51.06zm135.852 7.718a.72.72 0 0 0-.752-.687l-.08.004a.72.72 0 0 0-.686.752l.195 4.296a.72.72 0 0 0 .752.687l.08-.004a.72.72 0 0 0 .686-.752l-.195-4.296zM174.68 80.31q.36.38 1.03.33.96-.07 1.1-.05 4.6.53 9.92 1.56a.48.48 0 0 0 .56-.38l.05-.26a.43.43 0 0 0-.34-.5l-14.05-2.75a.64.64 0 0 0-.65 1q.45.64 1.8.76a.95.9-16.8 0 1 .58.29zm-5.51.66q1.35.01 1.54-.04a.49.49 0 0 0 .03-.93q-.44-.14-1.56-.15-1.13-.02-1.56.12a.49.49 0 0 0 .01.93q.18.06 1.54.07zm-12.81-.52q-.79.73-.37 2.8a.85.85 0 0 0 .92.67q3.28-.35 5.38.67a4.13 3.53 35.4 0 0 4.29-.39q.18-.16 2.39-.82.03.27 1.11.68-6.33 3.38-11.82 4.35-.64.11-1.8-.18a.4.39-77.5 0 0-.48.31l-.85 4.32a.42.42 0 0 0 .69.39q1.66-1.52 3.69-2.46 3.97-1.85 8.38-2.87 1.92-.44 4.77-3.12.73-.24.79-.93a.7.7 0 0 0-.54-.74l-8.92-2.14a1.84 1.83-9.7 0 1-1.12-.79q-.62-.93-3.14.05a1.29 1.25-48.7 0 1-.73.06q-1.27-.27-2.64.14zm32.17 13.33l2.22-.63a.91.91 0 0 0 .57-.5q.59-1.34-.08-2.08a1.53 1.53 0 0 0-.86-.47q-2.05-.36-1.75-2.11.46-2.69-.89-3.72 1.27.32 1.23-.91a.82.81 9.4 0 0-.54-.75l-.38-.14a.38.38 0 0 0-.5.34q-.01.66-.07.73-.24.31-.51.41-20.15 7.82-28.62 11.34c-1.64.68-3.21.22-3.37 2.77q-1.18 18.56-1.89 42.57a1.5 1.5 0 0 0 1.61 1.54q1.79-.13 3.09-.77a1 1 0 0 1 .94.04q2.7 1.58 6.19.51a1.15 1.11-84.7 0 0 .69-.59q.01-.01.06-.21a.65.64 15.5 0 1 .8-.45q1.95.55 4.67.07a42.43 42.43 0 0 1 7.36-.68q2.16-.02 2.76-.22 1.8-.6 3.5-.82a1.68 1.68 0 0 0 1.46-1.64q.18-10.52 1-18.94c.41-4.3.28-7.41.65-11.86a.99.87-79.2 0 1 1.16-.9q.47.16 1.02-.13a.93.9 78.2 0 0 .5-.79q.15-3.71-.05-5.36c-.27-2.32.94-4.03-1.97-5.65zm-37.95-.448a4 .67-88 0 0-.809 3.974 4 .67-88 0 0 .53 4.021 4 .67-88 0 0 .809-3.974 4 .67-88 0 0-.53-4.021zm-30.961 6.689a9.28.65-88.9 0 0-.828 9.266 9.28.65-88.9 0 0 .472 9.291 9.28.65-88.9 0 0 .828-9.266 9.28.65-88.9 0 0-.472-9.291zm26.722 5.138q-.41.2-.41.64-.01 1.33-.92 1.92a.72.71-25.7 0 0-.29.81q.52 1.62 1.15 1.32a.23.23 0 0 0 .13-.17l.81-4.16a.33.33 0 0 0-.47-.36zm-84.13 10.52l-.89.2a.35.34-33.2 0 0-.13.61q.59.44 1.37.66.56.15.77-.35.14-.33-.13-.87.62-.03.89-.58a.76.76 0 0 0-.53-1.09q-1.33-.28-3.31-1.06a.85.84 18.1 0 0-1.13.57l-.03.12a.89.79 16.6 0 0 .62.99l2.5.8zM2.285 126.168a6.67.46-146.7 0 0 5.322 4.046 6.67.46-146.7 0 0 5.827 3.278 6.67.46-146.7 0 0-5.322-4.046 6.67.46-146.7 0 0-5.827-3.278zM67.26 141.43l5.16 1.2a.14.14 0 0 0 .17-.11l.01-.05a1.74 1.31 13 0 0-1.4-1.66l-2.04-.48a1.74 1.31 13 0 0-1.99.89l-.02.05a.14.14 0 0 0 .11.16zm49.46 2.64l-.69-1.08a.27.27 0 0 0-.37-.08l-11.14 7.12a5.85.87-32.6 0 0-4.46 3.89l.05.06a5.85.87-32.6 0 0 5.39-2.42l11.14-7.12a.27.27 0 0 0 .08-.37zm70.31-.1q-.31.28-.32.66-.01.34.32.65 1.49 1.35 1.98.91.5-.44-.68-2.07-.27-.36-.61-.39-.38-.03-.69.24zM58.76 146.3q.96-.76 1.25-1.71a.37.37 0 0 0-.6-.39q-.48.42-.98 1.87a.21.21 0 0 0 .33.23zm31.57 5.25q1.71-.68 2.76-2.94a.77.7-83.3 0 0-.77-1.08q-.04 0-.25.17a.46.45 74.6 0 0-.18.32q-.32 2.33-1.67 3.33a.12.11-73.9 0 0 .11.2z" class="B"/><path d="M65.1 4.53l-.15-1.35q.31.52.15 1.35z" class="D"/><path d="M57.21 5.52q-1.6 1.86-2.78 1.02-1.42-.89-.79-1.98 4.83-2.46 3.57.96zm-3.53 6.41q.7.44.49 1.33a.39.39 0 0 0 .64.38q2.46-2.25 1.85-6.16 3.6 1.27 6.79 4.76a.36.36 0 0 1-.42.57l-4.27-2.09a.57.57 0 0 0-.78.31q-.51 1.35-2.11 3.28-1.14 1.37-2.89 1.19a.51.5-83.4 0 1-.45-.57q.21-1.56 1.15-3z" class="C"/><path d="M56.66 7.48q.61 3.91-1.85 6.16a.39.39 0 0 1-.64-.38q.21-.89-.49-1.33l2.98-4.45z" class="D"/><path d="M105.22 31.49q-.13.65-.34.47l.17-.34a.84.84 0 0 0 .08-.4q-.4-9.63-.13-15.47.08-1.58.31-2.04a.58.58 0 0 0-.63-.83q-.82.17-1.17 1.04a.12.11 54.4 0 1-.22-.04q-.04-.45-.47-.65-.81-.37-1.16.52-.82-.28-1.3-.09a.26.26 0 0 0 .02.5q.71.18.74.3a.91.87 53.6 0 1-.09.69q-1.24 2.18-1.61 4.6-.08.47.07.52a.88.85 5.6 0 0 1.18-.93q-.26-1.4.78-2.55.58 6.79.35 9.21-.22 2.34-.7 1.21.16-1.21-.17-2.2a.81.8 82.8 0 0-.7-.55q-1.03-.08-2.34.83-1.75-1.29-3.43.34a.33.33 0 0 0 .2.57l1.01.1a.58.57-70 0 1 .42.9l-.97 1.41a.47.46 26.8 0 1-.54.17l-1.73-.63a.48.48 0 0 1-.21-.75q.25-.32.34-.36.44-.23.29-.68-.13-.43-.63-.7-.47-.25-.77.23-.29.46-.11 1.16a1.31 1.29-42.6 0 1-.04.83q-1.92 4.87-1.38 10.17-.26.58-.18 1.15a.35.35 0 0 0 .43.29q.26-.05.45.18a.27.27 0 0 1-.23.44q-1.65-.16-3.33 1.45a1.47 1.47 0 0 1-2.48-1.2l.05-.54a.36.36 0 0 0-.61-.29q-.25.25-.3.61a.52.52 0 0 1-.53.45l-5.9-.12q-1.65.06-1.91-1.26a.87.87 0 0 0-.71-.7q-1.03-.17-.92-1.64a1.18 1.18 0 0 0-1.14-1.27l-5.14-.14a.54.53 10.9 0 1-.49-.72l.09-.24a.12.12 0 0 1 .11-.08l6.03-.14a.63.62 73.9 0 0 .52-.95c-1.28-2.17-4-2.19-6.32-2.07a1.02 1.01 84 0 1-1.05-.86l-1.34-9.08 7.3-.24a.34.34 0 0 0 .33-.31l.03-.36a.31.31 0 0 0-.32-.34l-7.29.19q-.59-1.26-.7-3a.72.71-6.2 0 0-.83-.66q-1.4.24-2.46-.56a.32.32 0 0 1 .14-.57q1.83-.29 2.61-.1a.4.39 22.8 0 0 .43-.17q2.93-4.7 6.47-4.71 1.74 0 3.14.77a1.71 1.65 3.2 0 1 .75.81l1.65 3.82a.51.51 0 0 0 .95-.02l1.64-4.52a.4.4 0 0 1 .49-.24q.35.11.53-.14a.2.2 0 0 0-.13-.31l-.63-.12q6.88.69 13.73-.28a2.94 2.91-61.2 0 0 .88-.26q5.04-2.33 10.22-.59a1.23 1.22-2.8 0 1 .73.66q1.29 2.86.87 6.93-.66 6.44-.75 14.49zM84.75 12.24q-1.39.92-1.74 1.38-1.37 1.78-1.4 6.43a.85.79-64.6 0 0 .15.48q.46.62 1.12.2.46-.29 1.33-.43 4.29-.68 8.41-.85a.05.05 0 0 0 .01-.09q-1.98-.5-4.09-.49.07-.55.84-.6 2.45-.13 1.46-1.71a.74.74 0 0 0-.36-.3l-5.53-2.15-.2-1.87 6.93 2.18a.39.38.9 0 0 .49-.47l-.08-.28a1.22 1.2 83.5 0 0-1.09-.88q-2.38-.16-4.61-1.65a.6.59-57.2 0 0-.85.19q-.34.57-.79.91zm10.32 1.038a1.45.85-25.4 0 0-1.674-.146 1.45.85-25.4 0 0-.945 1.39 1.45.85-25.4 0 0 1.674.146 1.45.85-25.4 0 0 .945-1.39zm1.05 4.402a.39.39 0 0 0-.36-.55q-1.21.03-1.42-.44a.86.85 74.4 0 0-.89-.51l-.99.13a.47.47 0 0 0-.24.83l1.52 1.26a.81.78-76.2 0 1 .29.5q.16.92.97.67a.54.53-86.1 0 0 .33-.29l.79-1.6zm-19.336 2.744a1.87.79-86.2 0 0-.912 1.814 1.87.79-86.2 0 0 .664 1.918 1.87.79-86.2 0 0 .912-1.813 1.87.79-86.2 0 0-.664-1.918zm.896 12.506q-.95-.47-1.9.28a.7.69 26 0 0 .43 1.24l.51.01q.81.45 1.79.52 2.88.18 5.59-.15l3.17-.05a.49.49 0 0 0 .45-.66q-.62-1.59-2.13-2.54a.73.71-41.8 0 0-.73-.03q-.11.06-.32.17a.57.56-28.9 0 1-.75-.21l-.3-.48-.27-5.15a.23.22-38.2 0 0-.44-.05q-1.28 4-4.56 6.43a.27.27 0 0 0 .02.44q.02.01.27.14a.08.08 0 0 1-.04.15l-.79-.06z" class="C"/><path d="M73.73 10.18l5.81.36.63.12a.2.2 0 0 1 .13.31q-.18.25-.53.14a.4.4 0 0 0-.49.24l-1.64 4.52a.51.51 0 0 1-.95.02l-1.65-3.82a1.71 1.65 3.2 0 0-.75-.81q-1.4-.77-3.14-.77.68-.61 2.58-.31z" class="D"/><path d="M175.8 10.39q-4.78 1.69-4.91 5.61a1.16 1.16 0 0 0 1.1 1.2q1.53.07 3.98-.65c1.67-.48 3.29-2.84 4.17-3.93a.87.87 0 0 0 .18-.7q-.17-1.03.81-1.83 6.47.91 7.13 9.7-3.81 2.28-6.59 5.54a.54.53-45.4 0 1-.8.01q-.17-.2-.18-.64a.59.58-26.4 0 0-1.05-.34q-1.12 1.4-2.48 3.19a.37.36 31.1 0 1-.46.11l-.32-.15a.5.5 0 0 1-.2-.72q.89-1.41 1.95-2.05a.42.41 42.8 0 0-.03-.73l-3.96-1.93a.52.48-31.6 0 0-.26-.05q-3.88.38-6.41-1.22a.42.42 0 0 0-.64.31l-.22 1.85-.64-4.62q1.06 1.45 1.9.6a.45.44-20.6 0 0 .11-.23l.34-2.53a.54.54 0 0 0-.85-.51q-3.62 2.65-6.64 6.32-.12.13-1.09 1.53-1.21 1.72-2.31.9 2.56-3.6 7.06-8.44 4.6-4.96 11.31-5.6zm2.822 9.122a2.04.66-134.8 0 0 .969 1.913 2.04.66-134.8 0 0 1.906.982 2.04.66-134.8 0 0-.969-1.913 2.04.66-134.8 0 0-1.906-.982z" class="B"/><path d="M181.13 10.09q-.98.8-.81 1.83a.87.87 0 0 1-.18.7c-.88 1.09-2.5 3.45-4.17 3.93q-2.45.72-3.98.65a1.16 1.16 0 0 1-1.1-1.2q.13-3.92 4.91-5.61l5.33-.3z" class="C"/><g class="D"><path d="M84.75 12.24q.45-.34.79-.91a.6.59-57.2 0 1 .85-.19q2.23 1.49 4.61 1.65a1.22 1.2 83.5 0 1 1.09.88l.08.28a.39.38.9 0 1-.49.47l-6.93-2.18z"/><path d="M84.75 12.24l.2 1.87 3.59 4.76q2.11-.01 4.09.49a.05.05 0 0 1-.01.09q-4.12.17-8.41.85-.87.14-1.33.43-.66.42-1.12-.2a.85.79-64.6 0 1-.15-.48q.03-4.65 1.4-6.43.35-.46 1.74-1.38z"/></g><ellipse cx="0" cy="0" transform="matrix(.903335 -.428935 .428935 .903335 93.76 13.9)" rx="1.45" ry=".85" class="B"/><path d="M101.66 13.75q.14 1.64-.21 3.04-1.04 1.15-.78 2.55a.88.85 5.6 0 1-1.18.93q-.15-.05-.07-.52.37-2.42 1.61-4.6a.91.87 53.6 0 0 .09-.69q-.03-.12-.74-.3a.26.26 0 0 1-.02-.5q.48-.19 1.3.09z" class="D"/><path d="M88.54 18.87l-3.59-4.76 5.53 2.15a.74.74 0 0 1 .36.3q.99 1.58-1.46 1.71-.77.05-.84.6z" class="B"/><path d="M48.55 15.72l.7.31a.97.97 0 0 1-.47 1.86q-3.52-.32-6.54-2.25 3.37-.61 6.31.08z" class="D"/><path d="M165.97 18.35q-2.83 3.39-3.55 7.51a1.1 1.09 82.6 0 1-.61.8q-1.7.79-3.59.25a.5.5 0 0 0-.59.69q.05.09.42.39-1.16-.75-1.91-1.7.61-1.36 1.29-1.86 1.1.82 2.31-.9.97-1.4 1.09-1.53 3.02-3.67 6.64-6.32a.54.54 0 0 1 .85.51l-.34 2.53a.45.44-20.6 0 1-.11.23q-.84.85-1.9-.6z" class="C"/><path d="M95 19.57q-.81.25-.97-.67a.81.78-76.2 0 0-.29-.5l-1.52-1.26a.47.47 0 0 1 .24-.83l.99-.13a.86.85 74.4 0 1 .89.51q.21.47 1.42.44a.39.39 0 0 1 .36.55l-.79 1.6a.54.53-86.1 0 1-.33.29z" class="B"/><path d="M48.14 26.29q3.04-.53 1.53-2.58.34-2.15 1.7-1.55 1.02.45 1.98 1.42.14 1.38 1.21 3.46a1.2 1.2 0 0 1 .08.87l-1.03 3.42a.32.32 0 0 0 .5.34q.5-.39.97-.87.36-.37 1.77.03 1.61.45 3.22.14l.58.13a.4.4 0 0 1-.01.78c-1.6.27-3.08.46-4.56 1.28q-.65.35-1.57-.23-.89-.81-2.15-.72-.94.06-1.13-.22-.25-.39.08-1.19.98-.55 1.43-1.1a.69.69 0 0 0-.82-1.06l-4.65 2.17q-.46-.6-.96.1-1.14-1.87-.33-3.97.36-.93.22-1.39-.3-1.01-1.11-1.08a.52.52 0 0 0-.49.77l.65 1.13a.92.92 0 0 1-.82 1.38q-1.98-.05-8.15-.11-1.25-.01-.83 1.06-.5.29-1.25.1-.41-.82-1.89-.65 1.27-.52 1.13-1.73a.93.93 0 0 0-1.77-.27q-.26.57-.27 1.11-.74-.72-.58-1.76.48-2.97 1.64-5.45.52-.68.64-1.12a1.85 1.63-69 0 1 2.44-1.28q1.58.88.04 3.8a.62.62 0 0 0 .47.9h.33a.85.84 9.7 0 0 .8-.56l1.09-2.98a.67.66-59.6 0 1 1.06-.28q3.17 2.76 7.41 3.97 2.48.71 1.4 3.79z" class="C"/><path d="M165.97 18.35l.64 4.62q-.07.07-.14.14-2.3 1.46-3 3.89-.15.56.59.73.09.69-.81.77-1.61.15-5.2-.51-.37-.3-.42-.39a.5.5 0 0 1 .59-.69q1.89.54 3.59-.25a1.1 1.09 82.6 0 0 .61-.8q.72-4.12 3.55-7.51z" class="E"/><ellipse cx="0" cy="0" transform="matrix(-.704634 -.709571 .709571 -.704634 180.06 20.96)" rx="2.04" ry=".66" class="C"/><g class="D"><path d="M188.26 19.79q-2.49 6.41-6.94 12.25a1.26 1.24 60.2 0 0-.24.9q.17 1.41 2.12 1.3.18 1.17.88 1.43 1.48.55 7.02 1.82 1.97.45 1.37-.59c1.96-.58 2.61.95 4.08.72q1.38-.21 2.35.49a1.61 1.61 0 0 0 .87.3l4.85.2q2.5 2.28 6.02 1.42 2.16-1.15 3.52 1.61.08.16.26.22.27.08.42-.01a.38.38 0 0 0 .08-.58q-.9-.98-.94-2.21l.29-.19a.38.38 0 0 1 .48.03l.41.37 4.77.05a.73.73 0 0 0 .67-.44q1.05-2.39 1.26-4.97a1.06 1.03-67.4 0 0-.34-.86l-1.66-1.53 1.44.17a.7.7 0 0 0 .73-.45q.69-1.85.53-3.84 3.28-.43 6.15.82-.41.3-.79.66-.5.48-.36.9.21.63 1.48.97a.82.82 0 0 1 .59.95l-.2 1.06a.62.61-77.6 0 1-.74.48q-2.51-.57-3.52-1.33a1.32 1.31-54.1 0 0-1.87.3l-.21.31a1.29 1.29 0 0 0 .33 1.79l3.12 2.16a.84.84 0 0 0 1.03-.06q.41-.36 1.08-1.31a.39.38 27.3 0 1 .46-.14l.06.04a.21.2 24.7 0 1 .08.21l-1.51 6.97a.46.45-78.6 0 0 .35.54q.64.14 1.03-.74a1.04 1.02 12.8 0 1 .99-.61l4.88.2q-2.9 1.64 3.98 2.81l-6.16-.65a.19.18-72.8 0 0-.18.1q-.22.42.75.5a.9.89 85.8 0 1 .78.68q.25.97-.75 1.37a.56.56 0 0 0 .26 1.08q1.62-.14 3.73.8 2.69 1.2 6.52 1.73c2.86.39 5.75 1.41 8.71 2.1q.99.23 2.23.11 1.56-.16 1.73 1.1a.83.82-88.6 0 0 .66.7l7.34 1.43a.56.55-53.6 0 0 .38-.06q.38-.24.26-.59.6.49.71 1.5a1.04 1.03-76.3 0 0 .46.76Q297.87 77 327.55 99.63q-1.38.31-2.64-.49-.18-.11-.29.01-.16.18-.26.3a.34.34 0 0 0 .29.56q.47-.04.53.5a.72.71 4.1 0 0 .55.62q2.28.51 4.15.11 38.5 28.71 77.27 57.37c2.39 1.77 4.37 3.59 7.13 5.96a1.11 1.11 0 0 1-.68 1.95l-2.44.1a1.17 1.16-68.6 0 0-.77.34q-.79.8-1.81.3a.56.56 0 0 0-.69.86q.96 1.2 2.38.97a.88.87 67.4 0 1 .86.36c.81 1.1 2.42.15 3.47.94q.78.59 2.8.51a.62.48-30.5 0 1 .24.03q10.28 3.37 17.86 8.78 12.75 9.11 24.51 19.14l-19.29-.52a1.39 1.39 0 0 0-1.32.83q-.38.87-.36 1.75a.7.69 90 0 0 .68.69l24.17.48q3.02 1.67 7.32 3.95 2.62 1.38 7.79 5.43 13.55 10.58 16.97 13.33 5.03 4.02 11.32 10.39-17.2.95-33.83 2.15c-3.34.24-5.34-1.69-7.99-3.87a.4.4 0 0 1 .18-.7l2.28-.42a.12.1-16 0 0 .09-.14v-.01a.09.09 0 0 0-.1-.08q-5.29.33-8.66-3.76a.52.51 72.2 0 1 .43-.84q.34.02.34.01a.37.37 0 0 0-.15-.68q-3.01-.33-3.59-.77-2.97-2.29-3.61-2.57a.55.55 0 0 1-.33-.56q.07-.9-.82-1.32-2.46-1.14-4.98-3.18a1.2 1.19-75.1 0 1-.43-.75q-.01-.06-.02-.29a.93.93 0 0 0-.61-.83l-3.08-1.12a1.02.88 73.3 0 1-.36-.23q-1.73-1.74-3.09-2.2a.25.25 0 0 1 .03-.49l4.24-.7a.13.11-4.1 0 0 .1-.1v-.01a.2.2 0 0 0-.22-.18q-5.8.68-9.97-3.17a.73.71-70.8 0 1-.22-.47q-.03-.64.78-.66a.35.33-25.1 0 0 .23-.59q-.29-.24-.8-.19 1.04-.43 2.12-.42 14.83.19 33.27 1.21a.88.87 59.5 0 0 .43-1.66l-5.62-2.74a.9.88-40 0 0-.69-.05q-.9.31-1.66.31-16.52.02-33.19-.52-.36-.01-.53.15-.22.19-.22.5-.64.17-.38-.85a.59.59 0 0 0-.41-.72q-3.36-.96-5.44-3.7-1.17-1.53-2.13-1.78c-1.67-.44-2.26-1.55-3.73-2.68a.38.38 0 0 1 .24-.69l3.86.1a.29.29 0 0 0 .17-.53q-1.05-.65-1.78-.57-5.04.54-8.28-2.53c-1.06-1.02-1.66-2.84-3.27-2.65a.75.71-30.6 0 1-.44-.1l-4.84-2.95a.05.05 0 0 1-.01-.05l.1-.29a.23.23 0 0 1 .32-.12q1.38.76 3.38.42a.22.22 0 0 0 .07-.41q-1.05-.62-5.24-1.05a1.5 1.46-15.4 0 1-1-.55q-1.22-1.53-1.96-.68a.62.58 69.8 0 0-.14.33q-.18 1.83 1.45 1.87a2.11 2.07 62.2 0 1 1.07.34q2.96 1.92 3.66 3.32a1.45 1.45 0 0 0 .97.78q2.8.67 4.72 2.55a.65.65 0 0 1 .03.91q-.13.14-.14.15a.78.77 23.4 0 0 .37.93l1.38.75a1.12 1.07 61.5 0 0 .47.15q1.61.17 3.47 1.52a.83.83 0 0 1 .33.83l-.18.94a.64.64 0 0 0 .52.76q2.95.49 5.77 2.99a.79.78-27.7 0 1-.43 1.37l-.42.05a.04.03-13.3 0 0-.03.03q-.05.14-.03.3a.03.03 0 0 0 .03.03q5.3.05 8.12 4.59a1.53 1.52-7.1 0 0 .85.66c2.14.68 4.6 1.94 4.79 4.18a.71.71 0 0 0 .57.63l2.48.48a.76.73 70.8 0 1 .37.19l3.46 3.17a.65.65 0 0 1 .19.63q-.18.75.49.83 2.67.34 5.08 2.53a1.1 1.09 25.3 0 1 .35.96q-.09.66-.31.9a.34.34 0 0 0 .21.57q3.71.4 6.77 3.35a.7.69 42.2 0 1 .05.94q-.08.09-.08.1a.48.47-68.5 0 0 .31.72q4.92.91 7.34 5.61-7.48.48-14.68.93-.32.02-.87-.09-.4-.09-.93.27-.35.24-.44.07-.07-.11-.25-.29a.64.63 41.2 0 0-.96.06q-.06.07-.27.39a.31.3 42.5 0 1-.49.02l-.36-.45a.47.47 0 0 0-.74 0q-.18.22-.23.29a.6.6 0 0 1-.92.01q-.56-.67-1.07.04a.66.65 33.9 0 1-.89.17q-.49-.32-.88-.03a.51.5-25.6 0 0-.19.51q.52 2.54 2.3 4.49l-4.15.5a.63.63 0 0 0-.32 1.12q.32.26.9.44a1.41 1.41 0 0 0 .91-.03q3.21-1.24 5.93-1.14a1.55 1.54 63.6 0 1 .82.28q.82.59 1.4.7a.48.48 0 0 0 .57-.49q-.03-.64-.06-1.1-.02-.41-.54-.54-.37-.09-.83-.04 2.52-.59 5.17-.3a1.57 1.53-58 0 0 1.02-.25q.6-.39 1.04.36a.4.39 67.5 0 0 .42.18q.22-.06.23-.25a.39.38-90 0 1 .36-.37l6.62-.41a.59.57-20.2 0 1 .47.21l.26.33a.13.13 0 0 1-.09.21l-13.39 1.61a.37.36-17.8 0 0-.28.53q.28.52 1.07 1.09-2.35-.27-4.05.29-1.24.11-1.84-1.12a.54.54 0 0 0-.68-.27q-2.15.81-3.24 2.58-5.1 1.75-10.5.88-2.03-1.35-2.73-2.62a1.2 1.18-3.2 0 0-.64-.56q-2.9-1.14-4.87-3.64c-.72-.91-1.77-1.32-2.18-1.76a.47.47 0 0 1 .14-.74q1-.51 1.87.06a.6.6 0 0 0 .89-.3l.18-.5a.29.28-89.4 0 0-.36-.37q-4.54 1.53-7.26-1.82a.84.83 61.9 0 0-.87-.27q-1.23.34-3.33.19-1.11-.08-1.87.3-.66.34-1.52.62a1.07 1.06 54 0 1-.98-.16q-4.65-3.44-5.32-4.39-1.68-2.38-3.37-2.35a1.22 1.2 63.9 0 1-.8-.28l-14.58-12.08a.48.48 0 0 0-.7.09l-.18.26a.27.26-53.6 0 0 .05.35l20.35 17.12q-6.72-4.66-12.92-9.88-13-10.95-19.32-16.75-7.82-7.19-15.77-14.23-3.31-2.92-5.76-4.92-9.51-7.77-23.88-20.6.59-.04 2.13.65 1 .44 3.09-.07a2.06 1.98-43.8 0 1 .97 0q2 .48 4.59.15a.28.28 0 0 0 .1-.52q-1.56-.79-4.03-1.12a2.71 2.64 45.7 0 0-.4-.01q-4.29.36-9.42-1.93l-8.02-6.93q8.4 1.07 16.19 1.95 1.12.13 1.65-.39a.66.66 0 0 0-.4-1.13l-19.31-1.9-3.87-3.43q.67-.31-.38-1.23-.88-.77-1.51-.38l-1.79-1.37q-1.26-1.6-2.26-3.09-1.26-1.88-2.01-.58-19.56-16.81-39.63-33.12-2.61-2.13-9.91-7.35-10.62-8.93-21.29-17.73c-.61-.5-.71-1.19-1.4-1.51q-3.23-1.5-5.22.53-.72-.62-.58-1.47a.49.49 0 0 1 .6-.4q1.14.28 1.66-.35l20.88 4.76q1.5 1.14 2 1.36.33.15.58-.01a.29.29 0 0 0 .01-.48l-1.72-1.25q.66-1.3-.37-1.5c-10.1-2-22.08-4.7-22.81-4.31-.61.33-.19.98.29 1.16q-1.02-.17-1.92-.9a.44.43 25.1 0 0-.7.25l-.56 2.87a.42.42 0 0 1-.49.33l-2.36-.46a.38.38 0 0 1-.29-.45l1.02-5.21a.38.37 15.6 0 0-.24-.42l-.26-.1a.27.27 0 0 0-.35.18l-1.84 6.87a.14.13-81.3 0 1-.13.1q-.1-.01-.16-.01a.49.48 2.9 0 0-.46.41l-.87 5.23a2.44 2.41 75.5 0 1-.87 1.5l-2.42 1.92a.37.37 0 0 1-.56-.47q.47-.86 2.16-2.37.44-.4.29-.71-.13-.27-.7-.39-.76-.2-1.29-1.04a.57.55-22.5 0 0-.6-.24q-.46.1-.81-.68-.24-.54-.28-.57a.27.27 0 0 0-.4.34q.41.69-.08 1.65a.65.64 20.2 0 1-.74.34q-.52-.13-.74-.35a.16.16 0 0 0-.27.07q-.05.23-.04.36.02.31-.16.51-.29.34-1.09-.04l-.01-.01q0-.02-.06-.3a.15.15 0 0 0-.27-.06l-1.56 2.25a1.03 1.02 21.9 0 1-1.02.43q-1-.16-1.29.27-.94.16-1.48.56-.38-1.96.4-4.21c.74-2.11-.77-2.55-.65-4.47q.02-.42.59-.55a.7.69 83.4 0 0 .54-.69l-.35-14.89 6.95 12.59a1.15 1.14 2.4 0 0 .39.42q.82.52.33 1.35a1.01 1 52.5 0 0-.1.81q.6 2 .72 2.26a.73.72-58.9 0 0 1.38-.35q-.02-.33-.63-.61a.91.91 0 0 1-.52-.84l.04-1.33a2.45 2.39 33.3 0 0-.24-1.09q-6.83-14.23-10.44-20.97-.48-.89-1.54-.45-.46-1.56-1.69-2.5a1.3 1.27-24.2 0 0-.73-.27q-1.02-.04-1.2-.9a.4.39-28.1 0 0-.66-.2q-.1.09-.21.5a.61.55 45.7 0 1-1.1-.07q-.85-2.56-2.33-3.65a.37.37 0 0 1-.09-.5q.22-.34-.13-.57-2.31-1.52-4.26-3.66a2.12 1.89-3.2 0 0-.49-.39l-3.85-2.22a1.1 1.1 0 0 0-1.65 1.07q.01.24-.27.93.41-1.7-4.5-2.14a.47.47 0 0 0-.29.87q.6.37 1.99.24a1.26 1.23 62.9 0 1 .95.32q1.49 1.31 1.45 2.9a1.74 1.74 0 0 0 .33 1.05q.78 1.05.6 2.07-2.1-.72-2.46-2.78-.92-3.36-3.47-2.16l-.63-1.44a.9.83-52.7 0 1-.05-.53l.52-2.68a.71.71 0 0 0-.59-.84q-.33-.04-.34-.05a.39.39 0 0 1-.03-.65q.29-.2 1.18-.31a.36.36 0 0 0 .23-.59q-.48-.57-1.16-.55-6.89.12-9.26-.35-3.6-.71-7.52-.36a.39.37 68.5 0 1-.34-.16q-.2-.3-.18-.44a.43.42 2.1 0 1 .44-.4l17.22.43a.21.21 0 0 0 .16-.35q-1.42-1.62-2.37-1.86-2.36-2.8-4.56-3.86-2.07-1.12-5.17-1.28a.91.91 0 0 1-.78-.53q-.09-.21-.06-.49.08-.62-.36-.95-.46-.35-1.08-.05l3.75-3.96q.75.95 1.91 1.7 3.59.66 5.2.51.9-.08.81-.77 2.7-1.24 2.41-4.62.07-.07.14-.14l.22-1.85a.42.42 0 0 1 .64-.31q2.53 1.6 6.41 1.22a.52.48-31.6 0 1 .26.05l3.96 1.93a.42.41 42.8 0 1 .03.73q-1.06.64-1.95 2.05a.5.5 0 0 0 .2.72l.32.15a.37.36 31.1 0 0 .46-.11q1.36-1.79 2.48-3.19a.59.58-26.4 0 1 1.05.34q.01.44.18.64a.54.53-45.4 0 0 .8-.01q2.78-3.26 6.59-5.54zm-16.51 5.73q.09-.07.17-.1a.66.66 0 0 1 .77.26q.47.7.89.92a.87.86-1.7 0 0 1.14-1.21q-1.25-2.08-2.93-2.01a.96.95 8.1 0 0-.86.64q-.3.88.32 1.5a.36.36 0 0 0 .5 0zm1.31 4.3q.73.22 2.26-.37a.37.37 0 0 0 .11-.63q-1.17-.96-1.74-1.13-.57-.17-2.07 0a.37.37 0 0 0-.26.58q.96 1.33 1.7 1.55zm-6.9 1.7l4.19.85a.11.11 0 0 0 .13-.08l.01-.03a2.11 1.32 11.5 0 0-1.81-1.72l-.27-.05a2.11 1.32 11.5 0 0-2.33.87l-.01.03a.11.11 0 0 0 .09.13zm8.18 7.37q2.85 2.33 5.01 4.29.48.44.97.47a.35.35 0 0 0 .28-.59q-1.16-1.19-5.68-4.88-4.53-3.68-5.94-4.57a.35.35 0 0 0-.52.39q.13.47.66.85 2.36 1.72 5.22 4.04zm45.53 4.54q-.22.54-.76.46-.59-.1-.68-.5-.28-1.23-.97-1.49a.67.66-7.1 0 0-.78 1q1.11 1.62 3.3 2.74 2.17 1.12 3.69 2.38 5.21 4.35 12.18 8.81a4.27 4.04 82.6 0 1 .82.67q4.4 4.52 12.12 9.97a.08.07-3.4 0 0 .1-.11q-5.04-5.61-9.99-8.32a1.74 1.7-3.6 0 1-.51-.44l-1.36-1.76a1.38.85 13.3 0 0-.19-.19l-6.79-5.37a16.77 16.44 76.3 0 0-3.2-1.99q-.41-.16-1.96-.93-1.24-.62-1.4-1.53a.64.64 0 0 0-.53-.52q-.97-.16-2.81-1.44a.54.54 0 0 1-.01-.87q.31-.23.23-.54a.26.26 0 0 0-.5-.03zm-5.614-.571a1.45.43-139 0 0 .812 1.276 1.45.43-139 0 0 1.376.627 1.45.43-139 0 0-.812-1.276 1.45.43-139 0 0-1.376-.627zm15.314 1.631a1.37 1.36 77.1 0 0-.85-.54l-3.65-.71a.62.62 0 0 0-.72.78l.12.42a1.24 1.23-9.7 0 0 1.28.9q2.09-.15 4.08.56a.34.34 0 0 0 .39-.52l-.65-.89zm-48-.221a3.59.21-139.5 0 0 2.594 2.491 3.59.21-139.5 0 0 2.866 2.172 3.59.21-139.5 0 0-2.594-2.491 3.59.21-139.5 0 0-2.866-2.172zm50.71.681q-1.37.16-1.56.56a.48.48 0 0 0 .37.69q.92.12 1.48-.81a.3.29 12 0 0-.29-.44zm-7.25 2.53l7.3 1.43a.2.19-82.1 0 0 .23-.18l.03-.28a.71.71 0 0 0-.64-.78l-6.85-.65a.233.233 0 0 0-.07.46zm-37.45 2.11q.02.03.43.28a.21.21 0 0 0 .24-.34q-.38-.31-.41-.31a.26.26 0 0 0-.26.37zm4.311 3.321a9.71.4-140.1 0 0 7.193 6.535 9.71.4-140.1 0 0 7.706 5.922 9.71.4-140.1 0 0-7.193-6.535 9.71.4-140.1 0 0-7.706-5.922zm29.259 24.417a.26.26 0 0 0-.029-.367l-13.064-11.157a.26.26 0 0 0-.367.029l-.221.259a.26.26 0 0 0 .029.367l13.064 11.157a.26.26 0 0 0 .367-.029l.221-.259zm71.11 18.522l.11-.56a.64.62-63 0 0-.17-.56q-1.97-1.92-3.28-2.17c-6.36-1.25-8.62-1.16-12.39-4.99a.7.48 8 0 0-.12-.11l-8.48-6.07a4.68 3.68-6.9 0 0-.51-.31q-3.96-2.01-4.7-3.01-2.11-2.86-4.39-4.56-.47-.34-8.19-6.16a.02.02 0 0 0-.03 0l-.19.27a.23.23 0 0 0 .08.33q1.1.6 4.4 3.83 1.42 1.38 5.53 3.88a3.85 3.81-1.5 0 1 1.15 1.08q1.46 2.14 3.84 3.83 6.15 4.38 12.26 8.43a.35.35 0 0 1 .1.49l-.15.21a.69.69 0 0 1-.82.25q-1.77-.73-3.41-.71a.36.36 0 0 0-.28.59q1.17 1.41 2.72.87a1.45 1.43 45.3 0 1 .92.01q2.06.7 6.41 1.26 1.47.2 3.11.6c2.38.59 5.33 1.27 6.24 3.3a.13.12 38.9 0 0 .24-.02zM203.54 76.4q.41.33.18 1.79a1.82 1.8-52.6 0 0 .13 1q1.21 2.82 1.06 5.16a.58.53-62.4 0 0 .09.34q.05.07.23.17a.4.4 0 0 0 .6-.29q.1-.78.86-.9a.66.66 0 0 1 .51.12l.6.45a.34.34 0 0 0 .5-.1q.09-.19.06-.4a.36.36 0 0 0-.42-.31q-.83.15-1.46-.3a1.1 1.08-68.1 0 1-.45-1.07q.57-3.61-.4-6.77-.15-.49.06-1.03.33-.84.62-.95a.42.42 0 0 0 .11-.71l-.52-.43a.46.46 0 0 0-.75.3q-.15 1.46-1.66 2.03a.2.2 0 0 0-.04.36q.03.02.08.06a.41.41 0 0 1 .09.6q-.47.57-.08.88zm8.96-3.75a.4.4 0 0 0-.4.67l5.69 5.22a.45.45 0 0 0 .63-.03l.21-.23a.27.26-51.6 0 0-.04-.4l-3.74-2.59a1.39 1.34 7.9 0 1-.52-.66q-.58-1.55-1.83-1.98zm40.83 14.09q-3.02-3.11-6.53-3.14c-1.65-.01-3.24-1.08-4.7-.89a.3.3 0 0 0-.19.49q1.28 1.48 2.18.76a1.09 1.08-56.9 0 1 .96-.21q2.04.52 2.83 2.13c.71 1.47 2.02 1.03 2.96.25a.9.89-42.1 0 1 1.22.06q1.02 1.05 1.09 1.04a.29.29 0 0 0 .18-.49zm-17.56 2.2l-.14.93a.17.17 0 0 0 .14.2l.43.06a4.34.5 8.4 0 0 4.36.14l.04-.28a4.34.5 8.4 0 0-4.22-1.13l-.42-.06a.17.17 0 0 0-.19.14zm81.01 5.13q2.52 1.91 4.43 3.52.42.37.84.38a.3.3 0 0 0 .22-.51q-1.03-.99-5.01-4.02-3.99-3.02-5.22-3.74a.3.3 0 0 0-.43.35q.12.4.59.71 2.07 1.4 4.58 3.31zm-54.986-3.676a1.57.6-165 0 0 1.361.986 1.57.6-165 0 0 1.672-.173 1.57.6-165 0 0-1.361-.986 1.57.6-165 0 0-1.672.173zm-10.413.916q2.46 1.97 2.71 1.97 1.78-.02 7.03 1.54a.56.56 0 0 0 .6-.87q-.92-1.2-1.92-.91a.91.9 61.1 0 1-.93-.27q-.98-1.09-2.52-1.64a.44.43 84.6 0 0-.52.63l.34.59a.52.52 0 0 1-.7.71q-3.92-2.14-3.96-2.14a.22.22 0 0 0-.13.39zm3.14 13.91c-3.33-2.8-7.22-6.31-11.39-9.39q-1.38-1.02-3.45-3.44a.1.09-34.6 0 0-.12-.02l-.53.34a.29.28-39.7 0 0-.05.44q1.53 1.48 1.6 2.05a.2.19-76.7 0 0 .08.14l13.63 10.25a.18.17-52.8 0 0 .25-.04l.01-.01a.23.23 0 0 0-.03-.32zm35.36-7.99q.44.36.93-.38.53-.8-.01-1.07a.86.86 0 0 0-.92 1.45zm10.941-1.557a1.78.46-148.6 0 0 1.28 1.32 1.78.46-148.6 0 0 1.759.535 1.78.46-148.6 0 0-1.28-1.32 1.78.46-148.6 0 0-1.759-.535zM282.75 97.85c3.61 3.66 7.78 1.4 10.56 5.45a4.57 4.37 88.7 0 0 1.17 1.17l15.17 10.49a1.23 1.22-84.1 0 1 .45.56l.25.59a1.98 1.95 12.7 0 0 .69 1.07q8.93 6.98 11.7 9.13 1.15.89 3.6 1.83 1.8.69 3.93 3.92a.98.93-88.6 0 0 .19.21l4.44 3.53a2.54 2.1 72.3 0 0 .42.27l4.93 2.33a.02.02 0 0 0 .03-.01l.09-.1a.26.26 0 0 0-.05-.35q-3.51-2.75-12.79-9.98-1.14-.89-2.96-1.05a1.63 1.62-19.2 0 1-1.06-.51q-3.1-3.25-3.19-3.47a1.92 1.92 0 0 0-.58-.77c-3.29-2.57-5.23-4.41-8.08-5.16a.73.72 83.6 0 1-.48-.39q-1.09-2.24-2.24-3.25-5.98-5.21-14.46-10.18-1.21-.71-2.14-1.77-.86-1-2.51-1.28c-2.53-.42-3.75-.62-5.44-1.86q-1.23-.91-1.44-.9a.29.28-23 0 0-.2.48zm36.49 2.84a.22.21 31.6 0 0-.07-.27q-4.12-2.88-9.07-2.92a.32.32 0 0 0-.22.55q.75.7 1.66.59.9-.11 1.23.48.62 1.11.8 1.38a.8.8 0 0 0 1.29.06q1.31-1.62 3.76.51a.31.31 0 0 0 .48-.1l.14-.28zm-11.259-.35a.56.56 0 0 0-.435-.662l-6.718-1.391a.56.56 0 0 0-.662.435l-.008.039a.56.56 0 0 0 .435.662l6.718 1.391a.56.56 0 0 0 .662-.435l.008-.039zm12.469 3.721l-.11-.86a.29.29 0 0 0-.22-.25q-.18-.03-.42-.06a.41.41 0 0 0-.23.78l.9.44a.06.05 10.2 0 0 .08-.05zm.33 1.96l-2-.97a.2.2 0 0 0-.27.28q.63 1.16 2.28 1.21a1.62 1.4 49.1 0 1 .42.06l5.76 1.69a.56.56 0 0 0 .71-.6q-.02-.28-.47-.77-.5-.55-1.36-.34-2.16.53-3.67-1.57a.52.52 0 0 0-.84-.01q-.01.01-.09.76a.33.33 0 0 1-.47.26zm-60.06 4.39q-2.32-2-4.07-3.67-.39-.38-.8-.42a.29.29 0 0 0-.24.49q.93 1.01 4.62 4.17 3.68 3.16 4.83 3.94a.29.29 0 0 0 .44-.32q-.09-.4-.53-.72-1.92-1.48-4.25-3.47zm77.9-.69q-1.65-1.07-1.88-1.11a.25.25 0 0 0-.22.44q.55.47 1.94.98a.18.17-18.1 0 0 .16-.31zm6.2 4.47q-2.55-1.89-4.49-3.5-.43-.36-.85-.37a.3.3 0 0 0-.22.52q1.04.99 5.09 3.98 4.05 3 5.3 3.72a.3.3 0 0 0 .43-.36q-.12-.41-.6-.71-2.1-1.39-4.66-3.28zm-58.88 17.33l-17.56-14.63-.04.05a7.52.6 39.8 0 0 5.39 5.27l6.01 5.01a7.52.6 39.8 0 0 6.16 4.35l.04-.05zm19.79 16.53q-6.82-5.46-16.18-13.51-.55-.47-.33.14a1.2 1.16 11.5 0 0 .31.45l9.39 8.6a.45.38 76.3 0 0 .11.08c1.95 1.2 4.45 3.82 6.59 4.45a.12.12 0 0 0 .11-.21zm42.94 10.3q-2.26-.36-4.02-.43a.74.73-89.7 0 0-.77.77q.02.46.28.55l1.29.31a.88.87 88.8 0 1 .64.62c.21.74.63 1.27 1.46 1.47q4.36 1.09 8.42.89-.65 2.55 1.37 1.29 1.59.65 3.94.59a2.14 2.03 55 0 1 .89.18q1.4.63 2.76.01a.34.33 59.5 0 0 .13-.51l-.3-.37a.26.26 0 0 0-.28-.09l-1.1.31a.49.48 84.6 0 1-.61-.51l.14-1.46a.53.53 0 0 1 .74-.44q3.22 1.37 3.97-1.4l.38.13a.52.52 0 0 0 .68-.39q.26-1.34 2.44-.67a1.04.98-13.2 0 1 .4.23q.85.78 3.25 1.99a.12.1 40.3 0 0 .11 0l.97-.65a.23.23 0 0 0-.03-.4l-4.8-2.34-.33-.73a.06.06 0 0 1 .06-.08q.19.02.28-.08a.27.26 26.4 0 0-.15-.43q-2.25-.48-6.42-.82-2.26-.18-3.07-1.68a1.24 1.24 0 0 0-.72-.59q-1.44-.47-4.98-3.54-3.7-3.21-15.64-10.51a.22.21 32.1 0 0-.29.06l-.01.01a.19.19 0 0 0 .03.28l12.86 9.7a1.69 1.65 72.2 0 0 .34.18q3.13 1.22 3.98 2.35a3.05 3.02 87.1 0 0 .91.83l2.6 1.58a.39.39 0 0 1-.24.73l-4.11-.39a.47.47 0 0 0-.5.61q.21.73 1.24 1.34a.42.42 0 0 1 .12.61l-2.52 3.4a.69.69 0 0 1-.17.17q-.92.69-2.29.02a.73.73 0 0 1 .51-1.36q1.28.38.78-.36a.3.26 75.1 0 0-.18-.12l-4.44-.86zm-4.81 4.95q.06.36.04.39a1.51 1.3 29 0 1-1.88.39q-2.26-1.17-3.42-1.69a.21.21 0 0 0-.24.34q4.3 4.14 10.44 2.86a.52.51 75.1 0 0 .38-.66q-.51-1.59-1.81-1.6-2.04-.02-3.11-.36a.3.3 0 0 0-.4.33zm31.89 1.72q-2.57 1.72-4.95-.43a1.06.97 68.6 0 0-.47-.23l-4.11-.81a.62.62 0 0 0-.36 1.18q1.09.44 2.75.64-1.59.1.18.85a4.14 3.96 75.6 0 1 1.03.64q2.16 1.89 5.74 1.44a1.97 1.93-34.6 0 1 1.15.2q2.57 1.33 4.63-.12.89-.45 1.99-.3a1.02 1.02 0 0 0 .59-1.93l-3.18-1.55a.51.51 0 0 0-.62.78l.17.22a.52.52 0 0 1-.21.81q-2.63 1.1-3.8-1.04 1.56-.61-.7-1.8a.27.27 0 0 0-.39.29q.12.6.56 1.16zm3.56-.43a.51.51 0 0 0-1.02 0 .51.51 0 1 0 1.02 0zm28.61 6.03q-.77-2.57-3.22-2.93a.3.29 78 0 0-.29.45q.58.93.67 2.14a.87.85 7.9 0 0 .58.75q.7.24 1.87.16a.44.43 79.7 0 0 .39-.57zm-56.289 12.422a.27.27 0 0 0-.036-.38l-17.013-14.074a.27.27 0 0 0-.38.036l-.013.015a.27.27 0 0 0 .036.38l17.013 14.074a.27.27 0 0 0 .38-.036l.013-.015zM374.1 201.56a.23.22 38 0 0-.31.03l-.01.02a.18.17-48.7 0 0 .01.24l12.44 11.03a.2.19-24.8 0 0 .15.05q.56-.05 2.27 1.13a.28.27-61.8 0 0 .41-.13l.22-.58a.09.09 0 0 0-.04-.11q-2.72-1.5-3.96-2.62c-3.75-3.39-7.86-6.42-11.18-9.06zm23.82 19.88q-1.38-1.8-3.28-2.86-.49-.27-.58-.94a.82.81 14.1 0 0-.32-.53q-.69-.5-.93-.33a1.35 1.08 38.6 0 0 .46 2.01q2.13 1.17 3.73 3.25a.33.32-32.9 0 0 .42.09l.41-.24a.31.3-34.3 0 0 .09-.45zM65.44 21.32q-.14-.56.05-1.06l7.29-.19a.31.31 0 0 1 .32.34l-.03.36a.34.34 0 0 1-.33.31l-7.3.24z"/><ellipse cx="0" cy="0" transform="matrix(.066274 -.997801 .997801 .066274 76.66 22.29)" rx="1.87" ry=".79"/><path d="M133 21.26q-.03.6-.41 1.07-.16-.81.41-1.07z"/></g><path d="M132.59 22.33q-.4 2.46-2.07 3.95.59-2.3 2.07-3.95zm33.88.78q.29 3.38-2.41 4.62-.74-.17-.59-.73.7-2.43 3-3.89z" class="C"/><path d="M60.07 30.97q-1.61.31-3.22-.14-1.41-.4-1.77-.03-.47.48-.97.87a.32.32 0 0 1-.5-.34l1.03-3.42a1.2 1.2 0 0 0-.08-.87q-1.07-2.08-1.21-3.46 1.15-.22 1.88.96.27.43.61.4.48-.04.79.2.58.45 0 .92-.4.32-.49.49a.4.4 0 0 0 .36.58q.11-.01 1.69-.03 1.38-.02 1.57.2.76.88 1.05 2.01a.59.59 0 0 1-.62.74q-.16-.01-.26 0a.37.37 0 0 0-.2.66l.34.26z" class="D"/><path d="M171.25 25.52q-.62-.62-.32-1.5a.96.95 8.1 0 1 .86-.64q1.68-.07 2.93 2.01a.87.86-1.7 0 1-1.14 1.21q-.42-.22-.89-.92a.66.66 0 0 0-.77-.26q-.08.03-.17.1a.36.36 0 0 1-.5 0z" class="B"/><path d="M49.67 23.71q1.51 2.05-1.53 2.58 1.21-1.09 1.53-2.58zm-3.36 7.2q-.25.35-.31.62l-2.79 4.45q.75-1.71.19-2.37a.46.46 0 0 0-.61-.09c-2.61 1.79-5.06-.08-6.76-2.27q-.39-1.37.06-1.77a.26.26 0 0 0-.04-.41l-.6-.37q-.42-1.07.83-1.06 6.17.06 8.15.11a.92.92 0 0 0 .82-1.38l-.65-1.13a.52.52 0 0 1 .49-.77q.81.07 1.11 1.08.14.46-.22 1.39-.81 2.1.33 3.97zm-7.97 1.23q-.13.41.98 1.01 1.37.73 1.66-.19.28-.92-1.26-1.09-1.25-.14-1.38.27zm62.76-4.93q-.51 1.76-.44 3.52a1.02 1-79.7 0 0 .6.88q.71.31.64 1.01-.09.81.83 1.49.47.34.86.87a.47.47 0 0 0 .85-.2q.16-.99.19-.3a1.28 1.28 0 0 1-1.15 1.32l-2.69.27a1.22.65-67.5 0 0-.73.6q-.15.24-.61.26a.32.3-5.5 0 1-.31-.24q-.25-1.02-1.22-1.33a.43.43 0 0 0-.56.48q.11.6-.38 2.1a.59.58-81.5 0 1-.54.4q-2.2.07-2.6 2.05a.87.86-3.7 0 1-.57.64q-3.18 1.11-3.42 1.58a.59.59 0 0 1-.97.11q-.04-.04-.92-.32-.33-.1-.89-.01c-3.39.54-5.32 1.19-7.6-.93a.8.8 0 0 0-.94-.11l-1.14.66a.61.61 0 0 1-.79-.15l-.26-.32a.49.48 49.6 0 1 .05-.65q.52-.48 1.32-.42l5.9.12a.52.52 0 0 0 .53-.45q.05-.36.3-.61a.36.36 0 0 1 .61.29l-.05.54a1.47 1.47 0 0 0 2.48 1.2q1.68-1.61 3.33-1.45a.27.27 0 0 0 .23-.44q-.19-.23-.45-.18a.35.35 0 0 1-.43-.29q-.08-.57.18-1.15.19.24.23.6a.58.58 0 0 0 .77.48q.12-.04.3-.21a.61.61 0 0 0 .16-.59l-.58-2.05a1.31 1.3-34.5 0 1 .22-1.17q.86-1.13 2.23-.9a.47.46-87.6 0 0 .54-.5q-.02-.28.2-.81a1.12 1.1 3.7 0 1 .75-.65q2.36-.61 4.37-.25a.62.62 0 0 0 .68-.84l-2.32-5.87q1.31-.91 2.34-.83a.81.8 82.8 0 1 .7.55q.33.99.17 2.2z" class="D"/><path d="M97.89 25.29l2.32 5.87a.62.62 0 0 1-.68.84q-2.01-.36-4.37.25a1.12 1.1 3.7 0 0-.75.65q-.22.53-.2.81a.47.46-87.6 0 1-.54.5q-1.37-.23-2.23.9a1.31 1.3-34.5 0 0-.22 1.17l.58 2.05a.61.61 0 0 1-.16.59q-.18.17-.3.21a.58.58 0 0 1-.77-.48q-.04-.36-.23-.6-.54-5.3 1.38-10.17a1.31 1.29-42.6 0 0 .04-.83q-.18-.7.11-1.16.3-.48.77-.23.5.27.63.7.15.45-.29.68-.09.04-.34.36a.48.48 0 0 0 .21.75l1.73.63a.47.46 26.8 0 0 .54-.17l.97-1.41a.58.57-70 0 0-.42-.9l-1.01-.1a.33.33 0 0 1-.2-.57q1.68-1.63 3.43-.34z" class="B"/><path d="M83.49 31.03q-.31 1.51.61 3.8-2.71.33-5.59.15-.98-.07-1.79-.52.24-1.18.96-1.53l.79.06a.08.08 0 0 0 .04-.15q-.25-.13-.27-.14a.27.27 0 0 1-.02-.44q3.28-2.43 4.56-6.43a.23.22-38.2 0 1 .44.05l.27 5.15zm-2.55.77q.14.03.16.03a.43.42-14.6 0 0 .42-.7q-.26-.26-.61-.17a.44.43 43.5 0 0 .03.84zm-48.63-3.65q-.62-.33-.91-.89.01-.54.27-1.11a.93.93 0 0 1 1.77.27q.14 1.21-1.13 1.73z" class="D"/><path d="M215.76 27.36q-.03.1-.07.2l-.65-.07q.32-.16.72-.13z" class="C"/><path d="M216.79 27.37q-.44.26-1.1.19.04-.1.07-.2l1.03.01z" class="E"/><path d="M222.56 27.4q.16 1.99-.53 3.84a.7.7 0 0 1-.73.45l-1.44-.17-5.18-2.43a.51.51 0 0 1 .1-.96q.4-.1.91-.57.66.07 1.1-.19l5.77.03z" class="C"/><path d="M173.69 27.69q.57.17 1.74 1.13a.37.37 0 0 1-.11.63q-1.53.59-2.26.37-.74-.22-1.7-1.55a.37.37 0 0 1 .26-.58q1.5-.17 2.07 0zm41.35-.2l.65.07q-.51.47-.91.57a.51.51 0 0 0-.1.96l5.18 2.43 1.66 1.53a1.06 1.03-67.4 0 1 .34.86q-.21 2.58-1.26 4.97a.73.73 0 0 1-.67.44l-4.77-.05q1.1-3.91.12-8.07a.36.36 0 0 1 .19-.41q.12-.07.14-.09a.37.37 0 0 0-.15-.57q-1.84-.8-2.33-1.74 1.06-.86 1.91-.9z" class="B"/><path d="M213.13 28.39q.49.94 2.33 1.74a.37.37 0 0 1 .15.57q-.02.02-.14.09a.36.36 0 0 0-.19.41q.98 4.16-.12 8.07l-.41-.37a.38.38 0 0 0-.48-.03l-.29.19q.25-.86.92-1.67a.36.35-40.1 0 0 .04-.4l-.37-.63a.39.39 0 0 0-.68.01q-.79 1.45-.99 3.24 0 .04.18.24.21.23.38.23a.35.31-80.9 0 0 .32-.26l.2-.76q.04 1.23.94 2.21a.38.38 0 0 1-.08.58q-.15.09-.42.01-.18-.06-.26-.22-1.36-2.76-3.52-1.61.07-1.85-1.89-1.64-1.56.16-2.18-.18l1.75-3.27q2.37.97 5.18-.28a2.04 2.03-27 0 0 .94-2.87q-1.07-1.87-3.63-1.11 1.07-1.68 2.32-2.29z" class="C"/><path d="M228.71 28.22l2.79.02q-1.94 1.36-.5 2.76 1.33 1.31 4.26 1.41l-.27 9.16-4.88-.2a1.04 1.02 12.8 0 0-.99.61q-.39.88-1.03.74a.46.45-78.6 0 1-.35-.54l1.51-6.97a.21.2 24.7 0 0-.08-.21l-.06-.04a.39.38 27.3 0 0-.46.14q-.67.95-1.08 1.31a.84.84 0 0 1-1.03.06l-3.12-2.16a1.29 1.29 0 0 1-.33-1.79l.21-.31a1.32 1.31-54.1 0 1 1.87-.3q1.01.76 3.52 1.33a.62.61-77.6 0 0 .74-.48l.2-1.06a.82.82 0 0 0-.59-.95q-1.27-.34-1.48-.97-.14-.42.36-.9.38-.36.79-.66z" class="B"/><path d="M235.26 32.41q-2.93-.1-4.26-1.41-1.44-1.4.5-2.76 2.04.11 3.96 1.11a.79.77-74.9 0 1 .41.74q-.1 1.22-.61 2.32z" class="C"/><path d="M35.45 28.7l.6.37a.26.26 0 0 1 .04.41q-.45.4-.06 1.77-1.29-1.04-1.83-2.45.75.19 1.25-.1zm116.94 1.55q.62-.3 1.08.05.44.33.36.95-.03.28.06.49a.91.91 0 0 0 .78.53q3.1.16 5.17 1.28-5.34.56-10.34-.98-2.96-.91-4.75-.44-2.37.63-4.92.77-1.05.06-.78-.65.15-.4.77-.99l12.57-1.01z" class="B"/><path d="M139.13 30.18q.09.95.69 1.08-.62.59-.77.99-.27.71.78.65 2.55-.14 4.92-.77 1.79-.47 4.75.44 5 1.54 10.34.98 2.2 1.06 4.56 3.86-2.73-.07-5.23-1.03a3.88 3.54-29.2 0 0-.94-.22q-4.24-.41-8.72-1.9-3.8-1.26-7.71.31a1.33 1.32-47.5 0 1-.81.04q-.28-.09-.55-.41a1.07 1.05 62.3 0 0-1.06-.34q-1.04.27-1.99 1.72-.43.65-.84.25-.21-.21-.23-1.05-.03-.89.63-1.27 1.8-1.03 2.18-3.33z" class="C"/><path d="M47.27 30.81q-.77 1.15-1.27.72.06-.27.31-.62.5-.7.96-.1z" class="E"/><path d="M166.16 31.52a.11.11 0 0 1-.09-.13l.01-.03a2.11 1.32 11.5 0 1 2.33-.87l.27.05a2.11 1.32 11.5 0 1 1.81 1.72l-.01.03a.11.11 0 0 1-.13.08l-4.19-.85zm42.16 3.42l2.49-4.26q2.56-.76 3.63 1.11a2.04 2.03-27 0 1-.94 2.87q-2.81 1.25-5.18.28z" class="B"/><path d="M51.31 30.8q-.33.8-.08 1.19.19.28 1.13.22 1.26-.09 2.15.72-2.36.97-4.87.98a.32.32 0 0 1-.25-.51q.59-.77-.03-1.59a.48.48 0 0 1 .32-.76l1.63-.25z" class="D"/><path d="M80.94 31.8a.44.43 43.5 0 1-.03-.84q.35-.09.61.17a.43.42-14.6 0 1-.42.7q-.02 0-.16-.03zm3.16 3.03q-.92-2.29-.61-3.8l.3.48a.57.56-28.9 0 0 .75.21q.21-.11.32-.17a.73.71-41.8 0 1 .73.03q1.51.95 2.13 2.54a.49.49 0 0 1-.45.66l-3.17.05z" class="B"/><path d="M106.18 33.21q-.52.42-1.05.56a.43.43 0 0 1-.54-.42q.01-.71.29-1.39.21.18.34-.47.41 1.28.96 1.72z" class="D"/><path d="M40.98 32.96q-.29.92-1.66.19-1.11-.6-.98-1.01.13-.41 1.38-.27 1.54.17 1.26 1.09zm36.7-.03q-.72.35-.96 1.53l-.51-.01a.7.69 26 0 1-.43-1.24q.95-.75 1.9-.28z" class="B"/><path d="M113.49 35.64l-3.9.42a.35.34-11.8 0 0-.3.44l.08.3a.6.59-4.9 0 0 .52.43l4.57.44a.3.29 88.6 0 1 .26.26l.04.31a.45.45 0 0 1-.46.5l-6.71-.18a.81.77 29.4 0 0-.44.11l-1.66.96a.37.37 0 0 1-.54-.41q.4-1.46-.25-2.58a.78.78 0 0 1 1.12-1.03q.78.53 1.34.53.75 0 .67-.84-.09-.98-1.16-2.04 3.25 1.78 6.82 2.38z" class="C"/><path d="M174.34 38.89q-2.86-2.32-5.22-4.04-.53-.38-.66-.85a.35.35 0 0 1 .52-.39q1.41.89 5.94 4.57 4.52 3.69 5.68 4.88a.35.35 0 0 1-.28.59q-.49-.03-.97-.47-2.16-1.96-5.01-4.29zm18.13-1.99q.6 1.04-1.37.59-5.54-1.27-7.02-1.82-.7-.26-.88-1.43 1.05.36 2.05.9.96.52 2.74.65 2.31.18 4.48 1.11z" class="B"/><path d="M115.83 35.85q-.49.19-1.05 0h1.05z" class="C"/><path d="M38.78 36.28q-7.36 1.43-14.5.93a1.64 1.56-51.1 0 0-.61.08q-.6.21-1.2.13.43-.29.95-.38 7.37-1.24 15.36-.76z" class="D"/><path d="M213.98 39.06l-.2.76a.35.31-80.9 0 1-.32.26q-.17 0-.38-.23-.18-.2-.18-.24.2-1.79.99-3.24a.39.39 0 0 1 .68-.01l.37.63a.36.35-40.1 0 1-.04.4q-.67.81-.92 1.67z" class="B"/><path d="M12.94 37.6l-4.92.02 4.92-.02z" class="D"/><path d="M206.57 38.21q.62.34 2.18.18 1.96-.21 1.89 1.64-3.52.86-6.02-1.42 1.28.02 1.95-.4z" class="B"/><g class="D"><rect x="-4.02" y="-.56" transform="matrix(.991216 -.132256 .132256 .991216 109.33 41.53)" width="8.04" height="1.12" rx=".53"/><path d="M141.25 67.71q.07-1.07.94-1.29a.62.61-7.4 0 0 .46-.59l-.07-13.3q.87-1.26-.27-2.98a1.33 1.3-59.7 0 1-.21-.84l.17-1.84a.62.62 0 0 0-.93-.6q-.6.36-.72 1.07-.07.4.36 1.27.59 1.21.69 2.6-.9-.46-1.52.35l-.21-.3a.28.28 0 0 0-.51.13l-.63 6.56a.65.64-12.9 0 1-.32.5l-3.39 1.96a.1.1 0 0 0 .03.18q1.96.31 3.02-.65a.48.47 66.1 0 1 .79.31c.11 1.19-.14 3.3-1.39 4.92q-.95 1.24-1.5 4.03a.44.44 0 0 1-.86-.03l-.34-2.87a.56.56 0 0 0-.75-.46q-1.88.67-3.92.58a.57.56-86.5 0 1-.53-.61q.07-1.02-.7-2.23a.56.56 0 0 0-1.01.17q-.73 2.87-3.22 4.52a.91.89-41.9 0 1-1.07-.05l-.33-.28a.52.52 0 0 1 .04-.83q1.86-1.25 1.95-1.43a.38.37 88.6 0 0-.52-.5q-.57.34-2.16.17a.75.74 11 0 0-.8.54q-.23.86-.17 1.47a.22.22 0 0 1-.24.24l-.33-.03a.18.18 0 0 1-.16-.17l-.25-6.11a1.16 1.16 0 0 0-1.3-1.1l-3 .36a1.81 1.73 23.9 0 0-.75.27q-2.68 1.74-6.57 1.61a2.57 2.57 0 0 0-1.13.22q-1.12.51-1.7 1.35a.63.63 0 0 1-.91.12l-1.54-1.28a1.02 1-28.3 0 0-.76-.22l-2.83.34a1 1 0 0 1-1.12-1.09l.86-9.05a1.13 1.13 0 0 1 2.01-.6l2.26 2.85a.75.75 0 0 0 1.3-.67q-.32-1.1-1.14-2.45.26.17.48.19.26.03.44-.21.19-.28.12-.66l.34.13a.52.52 0 0 0 .7-.43l.67-7.11a.14.14 0 0 1 .25-.08l.21.26a.25.24-22.3 0 0 .25.1l4.36-.88a.65.64 24.3 0 1 .45 1.19q-.82.48-3.35.72a1.53 1.53 0 0 0-1.36 1.37l-.03.28a.9.9 0 0 0 .83.98q1.31.11 2.82-.95a1.37 1.35-60.3 0 1 .86-.24q2.01.16 2.61-.29a.84.83-47.5 0 1 .92-.05q1.29.77 2.79.85a.47.46-85.3 0 1 .43.52q-.1 1 1.28 2.03a.32.32 0 0 0 .52-.23q.08-.88 1.03-1.33a1.05 1.05 0 0 1 .98.04q1.85 1.09 4.25.71a.62.61-25.6 0 0 .36-1.02q-1.93-2.16-5.61-1.55a.5.49 89.2 0 1-.57-.56q.06-.49.62-.88.33-.23 1.05-.01 2.48.73 4.24-.13a1.92 1.91 35.8 0 1 1.14-.18q2.57.39 3.82-.55a.43.43 0 0 1 .63.13l.84 1.45a.49.49 0 0 0 .91-.3l-.25-2.03a.73.71-8.4 0 1 .6-.79q3.03-.51 4 1.74a.86.85 36.2 0 0 1.64-.25l.14-1.45a.79.79 0 0 1 1.54-.17q.7 2.14 1.7 1.46a.6.6 0 0 1 .92.37q.05.24-.62 1.56a.46.46 0 0 0 .73.54q.92-.88.42-2.23a.69.68-30.5 0 1 .2-.75q.67-.59 1.22-.14a.4.4 0 0 1 .14.28l.18 4.25a.86.85-73.5 0 0 .35.65q1.14.83 1.22 2.6a1.44 1.44 0 0 0 2.5.9q.01-.01.21-.24a.41.39-65.4 0 1 .34-.14l2.46.23a.58.56 8.3 0 0 .62-.45q.31-1.4 1.54-1.37a.74.73 88.3 0 1 .72.69q.01.08.01.2a.73.72 8.3 0 0 .54.71q.7.19.43 1a.63.63 0 0 1-1.22-.17l-.03-.65a.36.36 0 0 0-.48-.32q-1.5.57-1.71 2.48a.4.4 0 0 1-.66.25q-.6-.52-1.13-.61a.39.39 0 0 0-.45.48q.72 3.03.4 4.15-1.57 5.61-1.69 11.66a1.33 1.32-18.7 0 1-.51 1.02l-.4.33a.39.39 0 0 1-.63-.26l-2.51-20.82a.46.46 0 0 0-.85-.2q-.67 1.05-1.63 1.6a.69.69 0 0 0-.34.54q-.04.37.23.52a.21.21 0 0 0 .27-.06q.23-.33.7-.47a.81.81 0 0 1 1.04.77c.05 4.64-.18 6.02.47 10.42q.52 3.55-1.54 7.37a.25.25 0 0 1-.47-.11l-.67-15.89a.59.59 0 0 0-1.16-.1q-1.06 5.07.13 11.57a1.43 1.43 0 0 1-1.2 1.67l-.84.11zM110.2 57.43q-.13.41.26.69a1.11.79 26.4 0 0 1.61-.26q.16-1.06-.74-1.27a.24.24 0 0 0-.22.41l.35.32a.36.36 0 0 1-.09.6q-.59.28-.77-.47a.21.21 0 0 0-.4-.02z"/></g><g class="B"><path d="M220.37 43.46q.08.31-.23.54a.54.54 0 0 0 .01.87q1.84 1.28 2.81 1.44a.64.64 0 0 1 .53.52q.16.91 1.4 1.53 1.55.77 1.96.93a16.77 16.44 76.3 0 1 3.2 1.99l6.79 5.37a1.38.85 13.3 0 1 .19.19l1.36 1.76a1.74 1.7-3.6 0 0 .51.44q4.95 2.71 9.99 8.32a.08.07-3.4 0 1-.1.11q-7.72-5.45-12.12-9.97a4.27 4.04 82.6 0 0-.82-.67q-6.97-4.46-12.18-8.81-1.52-1.26-3.69-2.38-2.19-1.12-3.3-2.74a.67.66-7.1 0 1 .78-1q.69.26.97 1.49.09.4.68.5.54.08.76-.46a.26.26 0 0 1 .5.03z"/><ellipse cx="0" cy="0" transform="matrix(-.75471 -.656059 .656059 -.75471 215.35 43.81)" rx="1.45" ry=".43"/></g><path d="M31.28 44.08a.34.34 0 0 1-.38.51q-1.92-.51-4.11.08a.85.84 83.6 0 0-.62.79l-.05 1.94a.56.56 0 0 1-1.09.17q-.57-1.63.32-3.26a.67.66-65.1 0 1 .83-.31q.72.28 1.35-.24c1.31-1.09 2.73-1.31 3.75.32zm-28.66-.86q.18.63-.05 1.08l.05-1.08z" class="C"/><g class="B"><path d="M229.57 44.49l.65.89a.34.34 0 0 1-.39.52q-1.99-.71-4.08-.56a1.24 1.23-9.7 0 1-1.28-.9l-.12-.42a.62.62 0 0 1 .72-.78l3.65.71a1.37 1.36 77.1 0 1 .85.54zm9.4-.11l3.9.03a.88.77 48.9 0 1 .22.03l13.67 2.66q.66-.04 1.27.28 5.97.68 7.2 7.4.12.35-.26.59a.56.55-53.6 0 1-.38.06L257.25 54a.83.82-88.6 0 1-.66-.7q-.17-1.26-1.73-1.1-1.24.12-2.23-.11l-8.71-2.1q-3.83-.53-6.52-1.73-2.11-.94-3.73-.8a.56.56 0 0 1-.26-1.08q1-.4.75-1.37a.9.89 85.8 0 0-.78-.68q-.97-.08-.75-.5a.19.18-72.8 0 1 .18-.1l6.16.65z"/><ellipse cx="0" cy="0" transform="matrix(-.760406 -.649448 .649448 -.760406 184.3 46.6)" rx="3.59" ry=".21"/></g><path d="M105.39 51.27q.07.38-.12.66-.18.24-.44.21-.22-.02-.48-.19l-.81-4.92a.45.45 0 0 0-.68-.31q-1.01.6-1.94 1.69a.45.45 0 0 1-.75-.13q-.12-.31.43-2.25a.72.72 0 0 1 .49-.49l3.03-.86a.87.86-8.9 0 1 1.1.8l.17 5.79z" class="C"/><path d="M232.28 44.95a.3.29 12 0 1 .29.44q-.56.93-1.48.81a.48.48 0 0 1-.37-.69q.19-.4 1.56-.56z" class="B"/><path d="M4.24 46.1a.181.181 0 0 1 .36-.03l6.62 23.33a2.57 2.52 38 0 1 .09.67q0 2.28 1.8 4.18a.51.51 0 0 1 0 .7l-.01.01a.48.47-47.8 0 1-.58.03l-4.25-3a.88.87 15.5 0 1-.35-.61q-.88-9.23-3.23-18.16-.9-3.45-.45-7.12zm168.28 2.07q1.09 2.17 1.97 4.28 1.27 3.06 1.92 4.3 5.66 10.88 11.5 22.03a.58.58 0 0 1-.25.79l-.04.03a.61.58 62.6 0 1-.79-.27l-13.78-25.85q.18-1.02-.6-2.07a1.74 1.74 0 0 1-.33-1.05q.04-1.59-1.45-2.9a1.26 1.23 62.9 0 0-.95-.32q-1.39.13-1.99-.24a.47.47 0 0 1 .29-.87q4.91.44 4.5 2.14z" class="C"/><path d="M142.58 52.53q-.68-.49-.91-1.32-.1-1.39-.69-2.6-.43-.87-.36-1.27.12-.71.72-1.07a.62.62 0 0 1 .93.6l-.17 1.84a1.33 1.3-59.7 0 0 .21.84q1.14 1.72.27 2.98zm82.45-5.05a.233.233 0 0 1 .07-.46l6.85.65a.71.71 0 0 1 .64.78l-.03.28a.2.19-82.1 0 1-.23.18l-7.3-1.43z" class="B"/><path d="M258.03 47.38q-.61-.32-1.27-.28.81-.21 1.27.28z" class="C"/><path d="M69.87 47.5q.54.19.5.92a.72.68-29.5 0 1-.1.32q-1.32 2.21-1.59 2.12-.26-.09.1-2.65a.72.68 68.6 0 1 .13-.31q.43-.58.96-.4z" class="D"/><path d="M170.59 50.7l-.19.48a.42.42 0 0 1-.67.18q-.27-.22-.42-.25-.25-.04-.41.42-.54 1.63-2.33 1.35-.36-.05-.57.13-.28.25-.47-.01a.19.18 77.1 0 1 .18-.29q.86.16.64-.72a.39.38 6.5 0 1 .55-.43q.46.22 1.06.1a.55.54 55.4 0 0 .18-1q-.91-.55-1.02-2.12 2.55-1.2 3.47 2.16z" class="E"/><path d="M187.84 49.22q.03 0 .41.31a.21.21 0 0 1-.24.34q-.41-.25-.43-.28a.26.26 0 0 1 .26-.37z" class="B"/><path d="M141.67 51.21q.23.83.91 1.32l.07 13.3a.62.61-7.4 0 1-.46.59q-.87.22-.94 1.29l-.14 2.38a.37.37 0 0 1-.71.12q-1.16-2.69 0-5.22a2.22 2.09 57.8 0 0 .19-.98l-.44-12.45q.62-.81 1.52-.35z" class="C"/><ellipse cx="0" cy="0" transform="matrix(.245307 -.969445 .969445 .245307 63.12 55.82)" rx="3.17" ry=".79" class="D"/><g class="B"><ellipse cx="0" cy="0" transform="matrix(-.767165 -.64145 .64145 -.767165 199.34 59.14)" rx="9.71" ry=".4"/><path d="M110.6 57.45q.18.75.77.47a.36.36 0 0 0 .09-.6l-.35-.32a.24.24 0 0 1 .22-.41q.9.21.74 1.27a1.11.79 26.4 0 1-1.61.26q-.39-.28-.26-.69a.21.21 0 0 1 .4.02z"/></g><path d="M156.53 70.68q.09 1.99-1.7 2.16a.46.45-.1 0 1-.51-.5l.77-8.09a.79.77 67.7 0 1 .18-.44q.9-1.15 1.32-2.8a.63.63 0 0 0-.63-.79q-.09 0-.17-.01a.12.12 0 0 1-.01-.23q.02-.01.46.02a.5.5 0 0 1 .47.59q-.07.42-.03.51a.63.62-21.4 0 0 .7.3c1.82-.47 3.14-1.53 4.9-.57q2.66 1.46 4.09.89a1.49.92-58.3 0 0 .28-.14q2.57-1.61 5.47-.62a1.1.97-30.1 0 0 .25.05q.86.05 2.21-.74a.95.95 0 0 1 1.3.35l1.18 2.03a.31.3 52.5 0 1-.04.36q-.27.32-.72.33a.44.43-86.5 0 1-.43-.49q.05-.4-.09-.62a.38.37 55.1 0 0-.54-.1q-.08.06-.07.34.01.04-.21.11c-3.39 1.18-6.48 3.37-10.15 4.57q-2.36.77-3.49 1.31-1.48.7-3.84 2.03a.73.7-55.4 0 1-.4.08l-.4-.04a.14.14 0 0 0-.15.15zm7.87-5.9q1.22.22 1.51.09a.44.44 0 0 0-.1-.84q-.87-.15-1.51.23a.29.28 34.7 0 0 .1.52z" class="D"/><path d="M194.84 68.81l-3.66-8.21q1.06-.44 1.54.45 3.61 6.74 10.44 20.97a2.45 2.39 33.3 0 1 .24 1.09l-.04 1.33a.91.91 0 0 0 .52.84q.61.28.63.61a.73.72-58.9 0 1-1.38.35q-.12-.26-.72-2.26a1.01 1 52.5 0 1 .1-.81q.49-.83-.33-1.35a1.15 1.14 2.4 0 1-.39-.42l-6.95-12.59z" class="C"/><path d="M1.9 61.21q.07.69-.15 1.08l.15-1.08z" class="D"/><path d="M164.3 64.26q.64-.38 1.51-.23a.44.44 0 0 1 .1.84q-.29.13-1.51-.09a.29.28 34.7 0 1-.1-.52z" class="C"/><ellipse cx="0" cy="0" transform="matrix(.024432 -.999701 .999701 .024432 153.05 67.19)" rx="2.49" ry=".64" class="D"/><rect x="-8.85" y="-.43" transform="matrix(.760406 .649448 -.649448 .760406 214.31 71.71)" width="17.7" height=".86" rx=".26" class="B"/><path d="M162.23 74.22a.49.48-61.8 0 1-.26-.87q2.73-2.09 6.03-1.75c3.31.34 5.56.01 10.88.02a.92.92 0 0 0 .9-.74l.13-.69a.25.25 0 0 0-.31-.29q-3.58.99-6.79.46a.28.27-55.4 0 1-.09-.51l5.06-2.92a.78.77 57.1 0 1 1.01.22q2.17 2.98 3.32 6.64a.42.41-5.8 0 1-.45.54c-2.48-.27-4.12-.19-7.1-.58q-4.02-.53-7.96.36c-1.65.37-2.41.25-4.37.11z" class="D"/><path d="M56.87 68.35q.68 2.4.37 2.68a.28.27-62.7 0 0 .15.48q.72.07.92.84.11.4-.14 1.22-.68 2.31-.12 3.78a.32.32 0 0 0 .58.04q.45-.79.14-2.03a.1.06 23.8 0 1 .16-.02l.01.01a.08.03 32.7 0 1 .04.05l-.1 5.46a1.19 1.16-61 0 0 .18.66q.05.09.54 0a.35.34 86.9 0 1 .41.37l-1.3 13.66a.33.33 0 0 1-.34.3h-.31a.52.52 0 0 1-.5-.54q.09-3.38.24-6.93.06-1.35-.83-2.05a.39.39 0 0 0-.63.37q.09.69.02.78a.29.29 0 0 1-.51-.19l.51-18.88a.26.26 0 0 1 .51-.06zm.664 9.02a1.52.46-89.1 0 0-.484 1.513 1.52.46-89.1 0 0 .436 1.527 1.52.46-89.1 0 0 .484-1.513 1.52.46-89.1 0 0-.436-1.527z" class="E"/><path d="M292.02 95.87c-.91-2.03-3.86-2.71-6.24-3.3q-1.64-.4-3.11-.6-4.35-.56-6.41-1.26a1.45 1.43 45.3 0 0-.92-.01q-1.55.54-2.72-.87a.36.36 0 0 1 .28-.59q1.64-.02 3.41.71a.69.69 0 0 0 .82-.25l.15-.21a.35.35 0 0 0-.1-.49q-6.11-4.05-12.26-8.43-2.38-1.69-3.84-3.83a3.85 3.81-1.5 0 0-1.15-1.08q-4.11-2.5-5.53-3.88-3.3-3.23-4.4-3.83a.23.23 0 0 1-.08-.33l.19-.27a.02.02 0 0 1 .03 0q7.72 5.82 8.19 6.16 2.28 1.7 4.39 4.56.74 1 4.7 3.01a4.68 3.68-6.9 0 1 .51.31l8.48 6.07a.7.48 8 0 1 .12.11c3.77 3.83 6.03 3.74 12.39 4.99q1.31.25 3.28 2.17a.64.62-63 0 1 .17.56l-.11.56a.13.12 38.9 0 1-.24.02zM203.54 76.4q-.39-.31.08-.88a.41.41 0 0 0-.09-.6q-.05-.04-.08-.06a.2.2 0 0 1 .04-.36q1.51-.57 1.66-2.03a.46.46 0 0 1 .75-.3l.52.43a.42.42 0 0 1-.11.71q-.29.11-.62.95-.21.54-.06 1.03.97 3.16.4 6.77a1.1 1.08-68.1 0 0 .45 1.07q.63.45 1.46.3a.36.36 0 0 1 .42.31q.03.21-.06.4a.34.34 0 0 1-.5.1l-.6-.45a.66.66 0 0 0-.51-.12q-.76.12-.86.9a.4.4 0 0 1-.6.29q-.18-.1-.23-.17a.58.53-62.4 0 1-.09-.34q.15-2.34-1.06-5.16a1.82 1.8-52.6 0 1-.13-1q.23-1.46-.18-1.79zm8.96-3.75q1.25.43 1.83 1.98a1.39 1.34 7.9 0 0 .52.66l3.74 2.59a.27.26-51.6 0 1 .04.4l-.21.23a.45.45 0 0 1-.63.03l-5.69-5.22a.4.4 0 0 1 .4-.67z" class="B"/><rect x="-.76" y="-2.87" transform="matrix(.998971 -.045363 .045363 .998971 191.55 78.31)" width="1.52" height="5.74" rx=".72" class="D"/><g class="B"><ellipse cx="0" cy="0" transform="matrix(.015707 -.999877 .999877 .015707 57.51 78.89)" rx="1.52" ry=".46"/><path d="M218.21 81.96l1.14.27q-.52.63-1.66.35a.49.49 0 0 0-.6.4q-.14.85.58 1.47l-2.07 4.37-.69-.71a.52.51 41.6 0 0-.78.04l-.28.38q.02-1.9-1.95-2.69a.49.48 21 0 0-.64.28l-1.97 5.41a.26.26 0 0 0 .31.34l1.08-.31a.39.39 0 0 1 .44.57q-.55.91-2.1.65a1.04 1.03-64.5 0 0-.94.34q-1.79 2.03-1.78 4.01a.93.92 13.8 0 0 .5.82q.95.47 2.78-.35a.44.44 0 0 0 .17-.67q-.55-.74-.62-1.56a.9.9 0 0 1 .47-.87q2.11-1.1 3.04-3.01.22.47.59.56-.24 4.04-1.86 5.74c-1.21 1.26-4.31 2.85-5.58 1.1a.43.42 46.5 0 0-.68-.02q-1.87 2.36-3.94.77-.16-.51.24-.72a.32.31-36.5 0 1 .36.05q.58.55 1.17.41a1.01.95-27.1 0 0 .56-1.58q-.48-.56-.6-1.6.09-.32.32-.46.35-.21.55.04.08.1.47.57a.59.58-46.4 0 0 .92-.03q.18-.23.23-.59a.58.58 0 0 0-.47-.65q-2.7-.47-3.84-2.77l2.27.93a.53.53 0 0 0 .72-.43q.01-.14.04-.28a1.36 1.32 81.5 0 1 .66-.92q1.04-.57 1.73-1.48.57.12.7.39.15.31-.29.71-1.69 1.51-2.16 2.37a.37.37 0 0 0 .56.47l2.42-1.92a2.44 2.41 75.5 0 0 .87-1.5l.87-5.23a.49.48 2.9 0 1 .46-.41q.06 0 .16.01a.14.13-81.3 0 0 .13-.1l1.84-6.87a.27.27 0 0 1 .35-.18l.26.1a.38.37 15.6 0 1 .24.42l-1.02 5.21a.38.38 0 0 0 .29.45l2.36.46a.42.42 0 0 0 .49-.33l.56-2.87a.44.43 25.1 0 1 .7-.25q.9.73 1.92.9z"/></g><path d="M174.1 80.02q-1.35-.12-1.8-.76a.64.64 0 0 1 .65-1L187 81.01a.43.43 0 0 1 .34.5l-.05.26a.48.48 0 0 1-.56.38q-5.32-1.03-9.92-1.56-.14-.02-1.1.05-.67.05-1.03-.33a.95.9-16.8 0 0-.58-.29z" class="D"/><path d="M169.18 79.85q1.12.01 1.56.15a.49.49 0 0 1-.03.93q-.19.05-1.54.04-1.36-.01-1.54-.07a.49.49 0 0 1-.01-.93q.43-.14 1.56-.12zm3.48 4.95q-1.07.07-2.58-.74-1.08-.41-1.11-.68-2.56-.7-4.95-.53a1.29 1.28-27.9 0 1-.86-.26q-2.3-1.73-5.02-.84-.79.26-1.26-.1-.5-.4-.52-1.2 1.37-.41 2.64-.14a1.29 1.25-48.7 0 0 .73-.06q2.52-.98 3.14-.05a1.84 1.83-9.7 0 0 1.12.79l8.92 2.14a.7.7 0 0 1 .54.74q-.06.69-.79.93z" class="E"/><path d="M156.36 80.45q.02.8.52 1.2.47.36 1.26.1 2.72-.89 5.02.84a1.29 1.28-27.9 0 0 .86.26q2.39-.17 4.95.53-2.21.66-2.39.82a4.13 3.53 35.4 0 1-4.29.39q-2.1-1.02-5.38-.67a.85.85 0 0 1-.92-.67q-.42-2.07.37-2.8zm84.74 6.16q.09.37-.87.38l-20.88-4.76-1.14-.27c-.48-.18-.9-.83-.29-1.16.73-.39 12.71 2.31 22.81 4.31q1.03.2.37 1.5zm-53.36-2.34l.07 6.16a.47.46-9.4 0 0 .61.43q.42-.13.79.51a.52.52 0 0 1-.75.69q-.05-.03-.2-.23a.22.22 0 0 0-.38.09q-.26 1.08.65 1.86c2.91 1.62 1.7 3.33 1.97 5.65q.2 1.65.05 5.36a.93.9 78.2 0 1-.5.79q-.55.29-1.02.13a.99.87-79.2 0 0-1.16.9c-.37 4.45-.24 7.56-.65 11.86q-.82 8.42-1 18.94a1.68 1.68 0 0 1-1.46 1.64q-1.7.22-3.5.82-.6.2-2.76.22a42.43 42.43 0 0 0-7.36.68q-2.72.48-4.67-.07a.65.64 15.5 0 0-.8.45q-.05.2-.06.21a1.15 1.11-84.7 0 1-.69.59q-3.49 1.07-6.19-.51a1 1 0 0 0-.94-.04q-1.3.64-3.09.77a1.5 1.5 0 0 1-1.61-1.54q.71-24.01 1.89-42.57c.16-2.55 1.73-2.09 3.37-2.77q8.47-3.52 28.62-11.34.27-.1.51-.41.06-.07.07-.73a.38.38 0 0 1 .5-.34l.38.14a.82.81 9.4 0 1 .54.75q.04 1.23-1.23.91zm1.697 11.399a.27.27 0 0 0-.265-.275l-.46-.008a.27.27 0 0 0-.275.265l-.154 8.839a.27.27 0 0 0 .265.275l.46.008a.27.27 0 0 0 .275-.265l.154-8.839zM157.05 139.83a.38.38 0 0 0 .24.63q3.97.43 7.44-.54a.31.31 0 0 0 .13-.53l-1.01-.92a.59.57 64.6 0 0-.42-.16l-4.58.2a1.48 1.47-69.6 0 0-1.04.48l-.76.84z" class="C"/><path d="M253.15 87.23q-.07.01-1.09-1.04a.9.89-42.1 0 0-1.22-.06c-.94.78-2.25 1.22-2.96-.25q-.79-1.61-2.83-2.13a1.09 1.08-56.9 0 0-.96.21q-.9.72-2.18-.76a.3.3 0 0 1 .19-.49c1.46-.19 3.05.88 4.7.89q3.51.03 6.53 3.14a.29.29 0 0 1-.18.49z" class="E"/><path d="M245.58 103.16q-1.17.39-1.86.13a.95.94 77.5 0 0-.99 1.56l14.41 14.21-1.07 11.69a1.12 1.11-.6 0 1-.99 1.01l-19.45 2.02a.74.7 56.6 0 1-.47-.11q-.5-.34-.75.08-.04.07-.8.22-2.37.48-3.81.42a.45.45 0 0 1-.43-.54l.06-.33a.5.49 2.4 0 1 .43-.39l3.7-.45a.89.89 0 0 0 .06-1.76q-1.65-.31-4.92.27a1.57 1.55-81.8 0 0-1.12.85q-.79 1.62-1.82 2.51a1.41 1.38-68 0 1-.73.32l-15.67 1.89a.84.83-.6 0 1-.93-.9l1.24-12.98a.52.51-88.5 0 0-.53-.56l-12.5.53a.85.84-89.7 0 1-.88-.89l.65-12.93a.38.35 20.9 0 0-.15-.31q-.25-.19-.36-.21a.22.22 0 0 1-.19-.18q-.68-3.7-.17-4.93a.58.58 0 0 0-.69-.78l-.76.21a.36.36 0 0 1-.45-.38l.47-4.9a.39.38-85.3 0 1 .4-.35q.05 0 .32-.09a.22.21 70.3 0 0 .13-.28q-.68-1.66-.65-3.21.54-.4 1.48-.56.13 1.36.55 2.06a.3.29-50.1 0 0 .53-.05q.17-.43.17-.44a.62.62 0 0 1 1.14.43q-.43 2.12.83 3.65a.35.35 0 0 0 .61-.16q.56-3.03-.47-5.18a.87.87 0 0 1 .07-.86l.87-1.26a.49.49 0 0 1 .83.03q.23.37.16 1.03 1.14 2.3 3.84 2.77a.58.58 0 0 1 .47.65q-.05.36-.23.59a.59.58-46.4 0 1-.92.03q-.39-.47-.47-.57-.2-.25-.55-.04-.23.14-.32.46-.09.15-.18.25a.5.5 0 0 1-.86-.33q-.02-.55-.17-.64a.36.35 23.5 0 0-.54.21q-.51 2.07.02 3.95 2.07 1.59 3.94-.77a.43.42 46.5 0 1 .68.02c1.27 1.75 4.37.16 5.58-1.1q1.62-1.7 1.86-5.74l2.37-3.23 2.07-4.37q1.99-2.03 5.22-.53c.69.32.79 1.01 1.4 1.51q10.67 8.8 21.29 17.73zm-49.36 3.12l9.32-.83a.18.18 0 0 0 .17-.18l-.01-.26a.45.44-3.2 0 0-.48-.42l-7.4.45a1.28 1.26-62.8 0 0-.61.2l-1.11.72a.18.17 25 0 0 .12.32z" class="C"/><path d="M170.08 84.06q1.51.81 2.58.74-2.85 2.68-4.77 3.12-4.41 1.02-8.38 2.87-2.03.94-3.69 2.46a.42.42 0 0 1-.69-.39l.85-4.32a.4.39-77.5 0 1 .48-.31q1.16.29 1.8.18 5.49-.97 11.82-4.35zm17.66.21q1.35 1.03.89 3.72-.3 1.75 1.75 2.11a1.53 1.53 0 0 1 .86.47q.67.74.08 2.08a.91.91 0 0 1-.57.5l-2.22.63q-.91-.78-.65-1.86a.22.22 0 0 1 .38-.09q.15.2.2.23a.52.52 0 0 0 .75-.69q-.37-.64-.79-.51a.47.46-9.4 0 1-.61-.43l-.07-6.16z" class="D"/><path d="M213.85 88.53q-1.14 1.36-1.21 2.96-.93 1.91-3.04 3.01a.9.9 0 0 0-.47.87q.07.82.62 1.56a.44.44 0 0 1-.17.67q-1.83.82-2.78.35a.93.92 13.8 0 1-.5-.82q-.01-1.98 1.78-4.01a1.04 1.03-64.5 0 1 .94-.34q1.55.26 2.1-.65a.39.39 0 0 0-.44-.57l-1.08.31a.26.26 0 0 1-.31-.34l1.97-5.41a.49.48 21 0 1 .64-.28q1.97.79 1.95 2.69z" class="C"/><path d="M241.1 86.61l1.72 1.25a.29.29 0 0 1-.01.48q-.25.16-.58.01-.5-.22-2-1.36.96-.01.87-.38z" class="B"/><path d="M206.5 90.13q-.69.91-1.73 1.48a1.36 1.32 81.5 0 0-.66.92q-.03.14-.04.28a.53.53 0 0 1-.72.43l-2.27-.93q.07-.66-.16-1.03a.49.49 0 0 0-.83-.03l-.87 1.26a.87.87 0 0 0-.07.86q1.03 2.15.47 5.18a.35.35 0 0 1-.61.16q-1.26-1.53-.83-3.65a.62.62 0 0 0-1.14-.43q0 .01-.17.44a.3.29-50.1 0 1-.53.05q-.42-.7-.55-2.06.29-.43 1.29-.27a1.03 1.02 21.9 0 0 1.02-.43l1.56-2.25a.15.15 0 0 1 .27.06q.06.28.06.3l.01.01q.8.38 1.09.04.18-.2.16-.51-.01-.13.04-.36a.16.16 0 0 1 .27-.07q.22.22.74.35a.65.64 20.2 0 0 .74-.34q.49-.96.08-1.65a.27.27 0 0 1 .4-.34q.04.03.28.57.35.78.81.68a.57.55-22.5 0 1 .6.24q.53.84 1.29 1.04z" class="E"/><path d="M215.6 88.82l-2.37 3.23q-.37-.09-.59-.56.07-1.6 1.21-2.96l.28-.38a.52.51 41.6 0 1 .78-.04l.69.71z" class="D"/><g class="B"><path d="M235.77 88.94a.17.17 0 0 1 .19-.14l.42.06a4.34.5 8.4 0 1 4.22 1.13l-.04.28a4.34.5 8.4 0 1-4.36-.14l-.43-.06a.17.17 0 0 1-.14-.2l.14-.93zm81.49 4.5q3.98 3.03 5.01 4.02a.3.3 0 0 1-.22.51q-.42-.01-.84-.38-1.91-1.61-4.43-3.52-2.51-1.91-4.58-3.31-.47-.31-.59-.71a.3.3 0 0 1 .43-.35q1.23.72 5.22 3.74z"/><ellipse cx="0" cy="0" transform="matrix(-.965926 -.258819 .258819 -.965926 263.31 90.8)" rx="1.57" ry=".6"/><path d="M251.51 90.92q.04 0 3.96 2.14a.52.52 0 0 0 .7-.71l-.34-.59a.44.43 84.6 0 1 .52-.63q1.54.55 2.52 1.64a.91.9 61.1 0 0 .93.27q1-.29 1.92.91a.56.56 0 0 1-.6.87q-5.25-1.56-7.03-1.54-.25 0-2.71-1.97a.22.22 0 0 1 .13-.39zm3.01 14.3a.23.23 0 0 1 .03.32l-.01.01a.18.17-52.8 0 1-.25.04l-13.63-10.25a.2.19-76.7 0 1-.08-.14q-.07-.57-1.6-2.05a.29.28-39.7 0 1 .05-.44l.53-.34a.1.09-34.6 0 1 .12.02q2.07 2.42 3.45 3.44c4.17 3.08 8.06 6.59 11.39 9.39z"/></g><ellipse cx="0" cy="0" transform="matrix(.034899 -.999391 .999391 .034899 150.44 97.33)" rx="4" ry=".67" class="C"/><rect x="-.5" y="-4.69" transform="matrix(.999848 .017452 -.017452 .999848 188.86 100.08)" width="1" height="9.38" rx=".27" class="B"/><path d="M202.9 96.2q.12 1.04.6 1.6a1.01.95-27.1 0 1-.56 1.58q-.59.14-1.17-.41a.32.31-36.5 0 0-.36-.05q-.4.21-.24.72-.53-1.88-.02-3.95a.36.35 23.5 0 1 .54-.21q.15.09.17.64a.5.5 0 0 0 .86.33q.09-.1.18-.25zm86.98 1.03a.86.86 0 0 1 .92-1.45q.54.27.01 1.07-.49.74-.93.38z" class="E"/><g class="B"><ellipse cx="0" cy="0" transform="matrix(-.853551 -.52101 .52101 -.853551 302.34 96.6)" rx="1.78" ry=".46"/><path d="M282.95 97.37q.21-.01 1.44.9c1.69 1.24 2.91 1.44 5.44 1.86q1.65.28 2.51 1.28.93 1.06 2.14 1.77 8.48 4.97 14.46 10.18 1.15 1.01 2.24 3.25a.73.72 83.6 0 0 .48.39c2.85.75 4.79 2.59 8.08 5.16a1.92 1.92 0 0 1 .58.77q.09.22 3.19 3.47a1.63 1.62-19.2 0 0 1.06.51q1.82.16 2.96 1.05 9.28 7.23 12.79 9.98a.26.26 0 0 1 .05.35l-.09.1a.02.02 0 0 1-.03.01l-4.93-2.33a2.54 2.1 72.3 0 1-.42-.27l-4.44-3.53a.98.93-88.6 0 1-.19-.21q-2.13-3.23-3.93-3.92-2.45-.94-3.6-1.83-2.77-2.15-11.7-9.13a1.98 1.95 12.7 0 1-.69-1.07l-.25-.59a1.23 1.22-84.1 0 0-.45-.56l-15.17-10.49a4.57 4.37 88.7 0 1-1.17-1.17c-2.78-4.05-6.95-1.79-10.56-5.45a.29.28-23 0 1 .2-.48zm36.29 3.32l-.14.28a.31.31 0 0 1-.48.1q-2.45-2.13-3.76-.51a.8.8 0 0 1-1.29-.06q-.18-.27-.8-1.38-.33-.59-1.23-.48-.91.11-1.66-.59a.32.32 0 0 1 .22-.55q4.95.04 9.07 2.92a.22.21 31.6 0 1 .07.27z"/></g><rect x="-3.99" y="-.58" transform="matrix(.979223 .202787 -.202787 .979223 304.07 99.55)" width="7.98" height="1.16" rx=".56" class="C"/><path d="M327.55 99.63l2.33 1.61q-1.87.4-4.15-.11a.72.71 4.1 0 1-.55-.62q-.06-.54-.53-.5a.34.34 0 0 1-.29-.56q.1-.12.26-.3.11-.12.29-.01 1.26.8 2.64.49z" class="B"/><ellipse cx="0" cy="0" transform="matrix(.019197 -.999816 .999816 .019197 119.44 109.3)" rx="9.28" ry=".65" class="C"/><path d="M320.37 104.11l-.9-.44a.41.41 0 0 1 .23-.78q.24.03.42.06a.29.29 0 0 1 .22.25l.11.86a.06.05 10.2 0 1-.08.05z" class="B"/><path d="M196.1 105.96l1.11-.72a1.28 1.26-62.8 0 1 .61-.2l7.4-.45a.45.44-3.2 0 1 .48.42l.01.26a.18.18 0 0 1-.17.18l-9.32.83a.18.17 25 0 1-.12-.32z" class="D"/><path d="M321.25 105.76q.08-.75.09-.76a.52.52 0 0 1 .84.01q1.51 2.1 3.67 1.57.86-.21 1.36.34.45.49.47.77a.56.56 0 0 1-.71.6l-5.76-1.69a1.62 1.4 49.1 0 0-.42-.06q-1.65-.05-2.28-1.21a.2.2 0 0 1 .27-.28l2 .97a.33.33 0 0 0 .47-.26z" class="B"/><path d="M146.81 105.52l-.81 4.16a.23.23 0 0 1-.13.17q-.63.3-1.15-1.32a.72.71-25.7 0 1 .29-.81q.91-.59.92-1.92 0-.44.41-.64a.33.33 0 0 1 .47.36z" class="D"/><path d="M260.72 110.41q2.33 1.99 4.25 3.47.44.32.53.72a.29.29 0 0 1-.44.32q-1.15-.78-4.83-3.94-3.69-3.16-4.62-4.17a.29.29 0 0 1 .24-.49q.41.04.8.42 1.75 1.67 4.07 3.67zm77.9-.69a.18.17-18.1 0 1-.16.31q-1.39-.51-1.94-.98a.25.25 0 0 1 .22-.44q.23.04 1.88 1.11zm6.2 4.47q2.56 1.89 4.66 3.28.48.3.6.71a.3.3 0 0 1-.43.36q-1.25-.72-5.3-3.72-4.05-2.99-5.09-3.98a.3.3 0 0 1 .22-.52q.42.01.85.37 1.94 1.61 4.49 3.5z" class="B"/><path d="M63.2 115.93l-.99-.25-2.5-.8a.89.79 16.6 0 1-.62-.99l.03-.12a.85.84 18.1 0 1 1.13-.57q1.98.78 3.31 1.06a.76.76 0 0 1 .53 1.09q-.27.55-.89.58z" class="E"/><path d="M3.61 138.5L0 138.39v-15.4q.99-3.4.63-7.24-.01-.06-.01-.12h.01q.01 3.46 0 6.89a1.6 1.54 27.7 0 0 .31.93q.02.02.13.12a.79.78 28.3 0 1 .24.78q-.52 2.01-.19 3.55.49 2.31 2.49 10.6zm58.6-22.82l.99.25q.27.54.13.87-.21.5-.77.35-.78-.22-1.37-.66a.35.34-33.2 0 1 .13-.61l.89-.2z" class="C"/><path d="M285.94 131.52l-.04.05a7.52.6 39.8 0 1-6.16-4.35l-6.01-5.01a7.52.6 39.8 0 1-5.39-5.27l.04-.05 17.56 14.63z" class="B"/><g class="C"><ellipse cx="0" cy="0" transform="matrix(-.835807 -.549023 .549023 -.835807 7.86 129.83)" rx="6.67" ry=".46"/><path d="M60.69 149.07q2.63 1.77 5.53 2.57.68.19 1.43-.28a.25.25 0 0 0-.13-.46q-.41 0-.91.33a.31.31 0 0 1-.44-.41q1.12-1.97.53-2.92a.42.42 0 0 0-.76.07q-.19.5.1 1.34a.29.28 2.9 0 1-.39.35q-1.32-.6-2.6-.61a.65.65 0 0 1-.65-.62q-.02-.37.72-1.06a.12.11 49.1 0 0 .01-.15q-.08-.12-.24-.15a.04.04 0 0 0-.05.03q-.85 1.73-2.04 1.18.26-1.68 1.02-2.97a.63.62-62.3 0 0-.27-.88q-2.7-1.32-3.69-1.55-.42-.1-.52.19a.88.86 52.8 0 1-1.69-.25q-.08-1.13-.02-1.92a.5.5 0 0 1 .72-.42l6.79 3.31a.69.67-51.7 0 0 .75-.1q.17-.15.47-.56a1.25 1.24 25.3 0 1 1.33-.47q3.86 1.05 6.34 2.57a.3.3 0 0 1-.26.54l-6.11-2.22a.79.79 0 0 0-.98.4l-.17.34a.43.43 0 0 0 .25.6q8 2.63 15.49 6.14.4.19.99-.15-.27.55.25.88 2.47 1.54 5.24 1.72a1.85 1.77 58.4 0 1 .69.18l2.17 1.05a.71.7 32.2 0 0 .86-.19q2.02-2.51 2.91-2.41a.3.3 0 0 1 .15.53l-2.32 1.85a.65.64 35.9 0 0 .18 1.11q1.86.69 2.92-.39a.27.27 0 0 1 .46.17q.02.22-.54.62a.6.58 58.1 0 0-.17.77l.66 1.14a.74.74 0 0 1-.92 1.06q-1.41-.59-2.56-.47a.88.87-83.6 0 0-.73.59l-6.42 18.59-8.35.02a1.05 1.05 0 0 1-.35-.06l-27.92-10.15a1.26 1.23-37.1 0 0-.56-.07q-1.3.18-1.9-.61a.51.5 48.4 0 0-.77-.05q-.39.41-.68.59a.62.61-35.4 0 1-.81-.13l-4.75-5.98a2.42 2.41 21.4 0 1-.5-1.13l-.54-3.19a10.44 9.53 42.4 0 1-.14-1.54l-.05-12.36a1.91 1.91 0 0 0-.21-.87q-.73-1.4-.65-2.51a1.87 1.72 87.5 0 0-2.02-2.01q-2.92.56-6.14.48-.57-.07-.96.08l-13.74.23 1.71-4.13a1.14 1.1 3.4 0 1 .77-.66q5.11-1.27 6.57-.83 3.57 1.05 31.38 10.56a2.82 2.81-7.3 0 1 1.44 1.11q2.05 3.08 5.79 4.6z"/></g><path d="M305.62 148.26c-2.14-.63-4.64-3.25-6.59-4.45a.45.38 76.3 0 1-.11-.08l-9.39-8.6a1.2 1.16 11.5 0 1-.31-.45q-.22-.61.33-.14 9.36 8.05 16.18 13.51a.12.12 0 0 1-.11.21z" class="B"/><path d="M27.73 138.11l-.96.08q.39-.15.96-.08z" class="D"/><path d="M157.05 139.83l.76-.84a1.48 1.47-69.6 0 1 1.04-.48l4.58-.2a.59.57 64.6 0 1 .42.16l1.01.92a.31.31 0 0 1-.13.53q-3.47.97-7.44.54a.38.38 0 0 1-.24-.63zm213.97 18.2l-11.79-1.3a.64.64 0 0 0-.71.72l.02.08a.92.91-3.9 0 0 .92.8c2.62-.05 6.07-.17 8.16 1.8q-.75 2.77-3.97 1.4a.53.53 0 0 0-.74.44l-.14 1.46a.49.48 84.6 0 0 .61.51l1.1-.31a.26.26 0 0 1 .28.09l.3.37a.34.33 59.5 0 1-.13.51q-1.36.62-2.76-.01a2.14 2.03 55 0 0-.89-.18q-2.35.06-3.94-.59-.01-.9-1.37-1.29-4.06.2-8.42-.89c-.83-.2-1.25-.73-1.46-1.47a.88.87 88.8 0 0-.64-.62l-1.29-.31q2.62.13 4.51-.89l4.44.86a.3.26 75.1 0 1 .18.12q.5.74-.78.36a.73.73 0 0 0-.51 1.36q1.37.67 2.29-.02a.69.69 0 0 0 .17-.17l2.52-3.4a.42.42 0 0 0-.12-.61q-1.03-.61-1.24-1.34a.47.47 0 0 1 .5-.61l4.11.39a.39.39 0 0 0 .24-.73l-2.6-1.58a3.05 3.02 87.1 0 1-.91-.83q-.85-1.13-3.98-2.35a1.69 1.65 72.2 0 1-.34-.18l-12.86-9.7a.19.19 0 0 1-.03-.28l.01-.01a.22.21 32.1 0 1 .29-.06q11.94 7.3 15.64 10.51 3.54 3.07 4.98 3.54a1.24 1.24 0 0 1 .72.59q.81 1.5 3.07 1.68 4.17.34 6.42.82a.27.26 26.4 0 1 .15.43q-.09.1-.28.08a.06.06 0 0 0-.06.08l.33.73z" class="B"/><path d="M234.46 140.12l-.98.15q-.28-.51.98-.15z" class="E"/><path d="M67.26 141.43a.14.14 0 0 1-.11-.16l.02-.05a1.74 1.31 13 0 1 1.99-.89l2.04.48a1.74 1.31 13 0 1 1.4 1.66l-.01.05a.14.14 0 0 1-.17.11l-5.16-1.2z" class="C"/><path d="M226.47 141.72q-.77.18-1.52-.03.25-.51.6-.79a.44.44 0 0 1 .68.19l.24.63z" class="D"/><path d="M116.72 144.07a.27.27 0 0 1-.08.37l-11.14 7.12a5.85.87-32.6 0 1-5.39 2.42l-.05-.06a5.85.87-32.6 0 1 4.46-3.89l11.14-7.12a.27.27 0 0 1 .37.08l.69 1.08z" class="C"/><path d="M299.39 147.3l-4.27-3.67q.75-1.3 2.01.58 1 1.49 2.26 3.09z" class="B"/><path d="M189.01 146.19q-.49.44-1.98-.91-.33-.31-.32-.65.01-.38.32-.66.31-.27.69-.24.34.03.61.39 1.18 1.63.68 2.07z" class="C"/><path d="M58.43 146.07q.5-1.45.98-1.87a.37.37 0 0 1 .6.39q-.29.95-1.25 1.71a.21.21 0 0 1-.33-.23zm2.26 3q.15-.49.11-.79 1.19.55 2.04-1.18a.04.04 0 0 1 .05-.03q.16.03.24.15a.12.11 49.1 0 1-.01.15q-.74.69-.72 1.06a.65.65 0 0 0 .65.62q1.28.01 2.6.61a.29.28 2.9 0 0 .39-.35q-.29-.84-.1-1.34a.42.42 0 0 1 .76-.07q.59.95-.53 2.92a.31.31 0 0 0 .44.41q.5-.33.91-.33a.25.25 0 0 1 .13.46q-.75.47-1.43.28-2.9-.8-5.53-2.57z" class="D"/><path d="M90.22 151.35q1.35-1 1.67-3.33a.46.45 74.6 0 1 .18-.32q.21-.17.25-.17a.77.7-83.3 0 1 .77 1.08q-1.05 2.26-2.76 2.94a.12.11-73.9 0 1-.11-.2zm82.25-.57q-.64-.44-1.49-.52-.31-1.4-1.26-.04l-3.01.1q-.88-1-2.1-1.2-.63-.11-.7-.39-.11-.47.07-.95a.55.54 36.3 0 1 .94-.14l.84 1.05a.82.82 0 0 0 .87.28l4.38-1.24a.92.92 0 0 1 1.16.76l.3 2.29z" class="C"/><path d="M303.07 150.28l-1.89-1.61q.63-.39 1.51.38 1.05.92.38 1.23zm-132.09-.02l-1.26-.04q.95-1.36 1.26.04z" class="B"/><path d="M81.24 150.88q-.23-.32-.22-.58a.6.59 11.7 0 1 .81-.52q2.66.98 4.85 2.54a.33.32-58.4 0 1 .09.41l-.13.22a.08.08 0 0 1-.1.03l-5.3-2.1z" class="C"/><path d="M308.81 155.18l-1.87-1.47 19.31 1.9a.66.66 0 0 1 .4 1.13q-.53.52-1.65.39-7.79-.88-16.19-1.95z" class="E"/><path d="M175.2 154.38q1.83.44 3.09 1.86a.66.66 0 0 1-.53 1.1q-1.92-.1-3.95-1.01.56-1.15 1.39-1.95z" class="D"/><path d="M371.02 158.03l4.8 2.34a.23.23 0 0 1 .03.4l-.97.65a.12.1 40.3 0 1-.11 0q-2.4-1.21-3.25-1.99a1.04.98-13.2 0 0-.4-.23q-2.18-.67-2.44.67a.52.52 0 0 1-.68.39l-.38-.13c-2.09-1.97-5.54-1.85-8.16-1.8a.92.91-3.9 0 1-.92-.8l-.02-.08a.64.64 0 0 1 .71-.72l11.79 1.3z" class="C"/><path d="M176.2 158.83q-2.04.39-3.35-.43.55-1.3 3.35.43z" class="D"/><path d="M348.67 158.35q-1.89 1.02-4.51.89-.26-.09-.28-.55a.74.73-89.7 0 1 .77-.77q1.76.07 4.02.43z" class="E"/><path d="M182.71 158.89l-5.22-.07q.78-1.37 1.88-.39a1.16 1.12 67.4 0 0 .67.29l2.67.17z" class="D"/><path d="M319.8 164.96q-1.69-.89-2.97-2.85 5.13 2.29 9.42 1.93a2.71 2.64 45.7 0 1 .4.01q2.47.33 4.03 1.12a.28.28 0 0 1-.1.52q-2.59.33-4.59-.15a2.06 1.98-43.8 0 0-.97 0q-2.09.51-3.09.07-1.54-.69-2.13-.65zm24.46-1.99q1.07.34 3.11.36 1.3.01 1.81 1.6a.52.51 75.1 0 1-.38.66q-6.14 1.28-10.44-2.86a.21.21 0 0 1 .24-.34q1.16.52 3.42 1.69a1.51 1.3 29 0 0 1.88-.39q.02-.03-.04-.39a.3.3 0 0 1 .4-.33z" class="B"/><path d="M355.97 162.53q1.36.39 1.37 1.29-2.02 1.26-1.37-1.29z" class="C"/><path d="M376.28 165.37l-.53-.35q-.44-.56-.56-1.16a.27.27 0 0 1 .39-.29q2.26 1.19.7 1.8z" class="E"/><path d="M375.75 165.02l.53.35q1.17 2.14 3.8 1.04a.52.52 0 0 0 .21-.81l-.17-.22a.51.51 0 0 1 .62-.78l3.18 1.55a1.02 1.02 0 0 1-.59 1.93q-1.1-.15-1.99.3l-8.63-1.15a1.86 1.77 60.6 0 1-.52-.16l-3.58-1.7q-1.66-.2-2.75-.64a.62.62 0 0 1 .36-1.18l4.11.81a1.06.97 68.6 0 1 .47.23q2.38 2.15 4.95.43z" class="C"/><circle cx="378.8" cy="164.59" r=".51" class="E"/><path d="M368.61 165.37l3.58 1.7a1.86 1.77 60.6 0 0 .52.16l8.63 1.15q-2.06 1.45-4.63.12a1.97 1.93-34.6 0 0-1.15-.2q-3.58.45-5.74-1.44a4.14 3.96 75.6 0 0-1.03-.64q-1.77-.75-.18-.85z" class="B"/><path d="M407.53 171.19q-1.17.08-1.87-.16a.87.85 7.9 0 1-.58-.75q-.09-1.21-.67-2.14a.3.29 78 0 1 .29-.45q2.45.36 3.22 2.93a.44.43 79.7 0 1-.39.57z" class="E"/><g class="B"><rect x="-11.31" y="-.28" transform="matrix(.770513 .637424 -.637424 .770513 342.91 175.84)" width="22.62" height=".56" rx=".27"/><path d="M427.04 203.24q2.68 3.19 6.09 3.22.51-.05.8.19a.35.33-25.1 0 1-.23.59q-.81.02-.78.66a.73.71-70.8 0 0 .22.47q4.17 3.85 9.97 3.17a.2.2 0 0 1 .22.18v.01a.13.11-4.1 0 1-.1.1l-4.24.7a.25.25 0 0 0-.03.49q1.36.46 3.09 2.2a1.02.88 73.3 0 0 .36.23l3.08 1.12a.93.93 0 0 1 .61.83q.01.23.02.29a1.2 1.19-75.1 0 0 .43.75q2.52 2.04 4.98 3.18.89.42.82 1.32a.55.55 0 0 0 .33.56q.64.28 3.61 2.57.58.44 3.59.77a.37.37 0 0 1 .15.68q0 .01-.34-.01a.52.51 72.2 0 0-.43.84q3.37 4.09 8.66 3.76a.09.09 0 0 1 .1.08v.01a.12.1-16 0 1-.09.14l-2.28.42a.4.4 0 0 0-.18.7c2.65 2.18 4.65 4.11 7.99 3.87q16.63-1.2 33.83-2.15l2.48 3.49-3.28-2.25a2.57 2.51 60.4 0 0-1.56-.45l-5.93.25a.79.78-68.3 0 0-.53.23q-.95.91-2.95.18a.44.44 0 0 0-.41.77l2 1.5a.23.22-19.7 0 0 .09.04q.46.02.77-.41l.65.13a1.6 1.6 0 0 1 .93.58q1.36 1.81 3.78 2.4a.48.47 89.9 0 0 .57-.58q-.02-.11-.41-.28l6.96-.24a1.04 1.04 0 0 0 .65-.25l.61-.52q.14-.02.29-.05v1.04q-.85-.09-1.4.43a.82.82 0 0 0-.14 1.01l.31.54a1.01 1.01 0 0 1-1.36 1.39q-3.23-1.75-5.63-.21l-6.32-1.29a1.31 1.11-38.5 0 0-.35-.01q-2.41.31-4.33-.82l3.68-.13a.54.54 0 0 0 .27-.99c-3-1.95-3.88-3.96-7.72-3.75q-6.92.36-12.01.77-.54.05-.8.36a.49.49 0 0 0 .22.78q2.28.76 3.85 2.93l-2.85.11-6.4-.02-7.01.2q-1.22-.78-1.79-1.95a1.15 1.13 87.1 0 0-.63-.58l-1.95-.7a.43.43 0 0 1 .13-.83l5.97-.25a.81.81 0 0 0 .58-1.33q-2.51-2.96-6.14-3.62-2.42-4.7-7.34-5.61a.48.47-68.5 0 1-.31-.72q0-.01.08-.1a.7.69 42.2 0 0-.05-.94q-3.06-2.95-6.77-3.35a.34.34 0 0 1-.21-.57q.22-.24.31-.9a1.1 1.09 25.3 0 0-.35-.96q-2.41-2.19-5.08-2.53-.67-.08-.49-.83a.65.65 0 0 0-.19-.63l-3.46-3.17a.76.73 70.8 0 0-.37-.19l-2.48-.48a.71.71 0 0 1-.57-.63c-.19-2.24-2.65-3.5-4.79-4.18a1.53 1.52-7.1 0 1-.85-.66q-2.82-4.54-8.12-4.59a.03.03 0 0 1-.03-.03q-.02-.16.03-.3a.04.03-13.3 0 1 .03-.03l.42-.05a.79.78-27.7 0 0 .43-1.37q-2.82-2.5-5.77-2.99a.64.64 0 0 1-.52-.76l.18-.94a.83.83 0 0 0-.33-.83q-1.86-1.35-3.47-1.52a1.12 1.07 61.5 0 1-.47-.15l-1.38-.75a.78.77 23.4 0 1-.37-.93q.01-.01.14-.15a.65.65 0 0 0-.03-.91q-1.92-1.88-4.72-2.55a1.45 1.45 0 0 1-.97-.78q-.7-1.4-3.66-3.32a2.11 2.07 62.2 0 0-1.07-.34q-1.63-.04-1.45-1.87a.62.58 69.8 0 1 .14-.33q.74-.85 1.96.68a1.5 1.46-15.4 0 0 1 .55q4.19.43 5.24 1.05a.22.22 0 0 1-.07.41q-2 .34-3.38-.42a.23.23 0 0 0-.32.12l-.1.29a.05.05 0 0 0 .01.05l4.84 2.95a.75.71-30.6 0 0 .44.1c1.61-.19 2.21 1.63 3.27 2.65q3.24 3.07 8.28 2.53.73-.08 1.78.57a.29.29 0 0 1-.17.53l-3.86-.1a.38.38 0 0 0-.24.69c1.47 1.13 2.06 2.24 3.73 2.68q.96.25 2.13 1.78 2.08 2.74 5.44 3.7a.59.59 0 0 1 .41.72q-.26 1.02.38.85zm21.44 18.03q-.75-.92-1.72-1.24a.31.31 0 0 0-.36.45q.43.76 1.81 1.2a.26.25 78.8 0 0 .27-.41zm26.173 17.273a.27.27 0 0 0-.267-.273l-8.059-.098a.27.27 0 0 0-.273.267l-.006.48a.27.27 0 0 0 .267.273l8.059.099a.27.27 0 0 0 .273-.267l.006-.48z"/></g><path d="M460.01 198.85q2.16.99 3.88 3.23l-24.17-.48a.7.69 90 0 1-.68-.69q-.02-.88.36-1.75a1.39 1.39 0 0 1 1.32-.83l19.29.52z" class="C"/><path d="M374.1 201.56c3.32 2.64 7.43 5.67 11.18 9.06q1.24 1.12 3.96 2.62a.09.09 0 0 1 .04.11l-.22.58a.28.27-61.8 0 1-.41.13q-1.71-1.18-2.27-1.13a.2.19-24.8 0 1-.15-.05l-12.44-11.03a.18.17-48.7 0 1-.01-.24l.01-.02a.23.22 38 0 1 .31-.03z" class="B"/><path d="M433.13 206.46q-3.41-.03-6.09-3.22 0-.31.22-.5.17-.16.53-.15 16.67.54 33.19.52.76 0 1.66-.31a.9.88-40 0 1 .69.05l5.62 2.74a.88.87 59.5 0 1-.43 1.66q-18.44-1.02-33.27-1.21-1.08-.01-2.12.42z" class="C"/><path d="M425.53 244.19q-2.31.32-4.01-.01-.91-.18-2.26-.72-11.75-4.7-21.81-12.12l-20.35-17.12a.27.26-53.6 0 1-.05-.35l.18-.26a.48.48 0 0 1 .7-.09l14.58 12.08a1.22 1.2 63.9 0 0 .8.28q1.69-.03 3.37 2.35.67.95 5.32 4.39a1.07 1.06 54 0 0 .98.16q.86-.28 1.52-.62.76-.38 1.87-.3 2.1.15 3.33-.19a.84.83 61.9 0 1 .87.27q2.72 3.35 7.26 1.82a.29.28-89.4 0 1 .36.37l-.18.5a.6.6 0 0 1-.89.3q-.87-.57-1.87-.06a.47.47 0 0 0-.14.74c.41.44 1.46.85 2.18 1.76q1.97 2.5 4.87 3.64a1.2 1.18-3.2 0 1 .64.56q.7 1.27 2.73 2.62zm-9.6-6.66l-5.66-4.39a1.19 1.18-33.5 0 0-1.05-.21q-1.14.3-2.47.18a.58.58 0 0 0-.4 1.04l2.09 1.55a2.5 2.28 3.7 0 1 .54.56q2.08 3.02 5.14 2.36a1.43 1.41-39.3 0 1 .87.08q1.92.82 1.2-.83a.89.78-86.2 0 0-.26-.34zm-18.01-16.09a.31.3-34.3 0 1-.09.45l-.41.24a.33.32-32.9 0 1-.42-.09q-1.6-2.08-3.73-3.25a1.35 1.08 38.6 0 1-.46-2.01q.24-.17.93.33a.82.81 14.1 0 1 .32.53q.09.67.58.94 1.9 1.06 3.28 2.86z" class="B"/><path d="M448.21 221.68q-1.38-.44-1.81-1.2a.31.31 0 0 1 .36-.45q.97.32 1.72 1.24a.26.25 78.8 0 1-.27.41z" class="E"/><path d="M460.18 232.8q3.63.66 6.14 3.62a.81.81 0 0 1-.58 1.33l-5.97.25a.43.43 0 0 0-.13.83l1.95.7a1.15 1.13 87.1 0 1 .63.58q.57 1.17 1.79 1.95l-1.04-.04-3.2.11-5.22.14q-2.1-.31-4.11.08l-1.73-.2q-.78-.29-1.5-.1l-.5-.11-.87-.11q-.79-.57-1.07-1.09a.37.36-17.8 0 1 .28-.53l13.39-1.61a.13.13 0 0 0 .09-.21l-.26-.33a.59.57-20.2 0 0-.47-.21l-6.62.41a.39.38-90 0 0-.36.37q-.01.19-.23.25a.4.39 67.5 0 1-.42-.18q-.44-.75-1.04-.36a1.57 1.53-58 0 1-1.02.25q-2.65-.29-5.17.3l-4.63.3q-1.78-1.95-2.3-4.49a.51.5-25.6 0 1 .19-.51q.39-.29.88.03a.66.65 33.9 0 0 .89-.17q.51-.71 1.07-.04a.6.6 0 0 0 .92-.01q.05-.07.23-.29a.47.47 0 0 1 .74 0l.36.45a.31.3 42.5 0 0 .49-.02q.21-.32.27-.39a.64.63 41.2 0 1 .96-.06q.18.18.25.29.09.17.44-.07.53-.36.93-.27.55.11.87.09 7.2-.45 14.68-.93z" class="C"/><path d="M416.19 237.87q.72 1.65-1.2.83a1.43 1.41-39.3 0 0-.87-.08q-3.06.66-5.14-2.36a2.5 2.28 3.7 0 0-.54-.56l-2.09-1.55a.58.58 0 0 1 .4-1.04q1.33.12 2.47-.18a1.19 1.18-33.5 0 1 1.05.21l5.66 4.39a.89.78-86.2 0 1 .26.34zm93.58.8q.38.4 1.02.68l.67.11.25.31-.61.52a1.04 1.04 0 0 1-.65.25l-6.96.24q-2.14-.77-3.77-2.43a1.85 1.79 74.8 0 0-.77-.46q-1.42-.39-.98.64-.31.43-.77.41a.23.22-19.7 0 1-.09-.04l-2-1.5a.44.44 0 0 1 .41-.77q2 .73 2.95-.18a.79.78-68.3 0 1 .53-.23l5.93-.25a2.57 2.51 60.4 0 1 1.56.45l3.28 2.25zm-16.99 3.13l-12.51-.03q-1.57-2.17-3.85-2.93a.49.49 0 0 1-.22-.78q.26-.31.8-.36 5.09-.41 12.01-.77c3.84-.21 4.72 1.8 7.72 3.75a.54.54 0 0 1-.27.99l-3.68.13z" class="D"/><path d="M503.49 240.78q.39.17.41.28a.48.47 89.9 0 1-.57.58q-2.42-.59-3.78-2.4a1.6 1.6 0 0 0-.93-.58l-.65-.13q-.44-1.03.98-.64a1.85 1.79 74.8 0 1 .77.46q1.63 1.66 3.77 2.43z" class="C"/><rect x="-4.3" y="-.51" transform="matrix(.999925 .012217 -.012217 .999925 470.35 238.73)" width="8.6" height="1.02" rx=".27" class="E"/><path d="M442.94 238.89q.46-.05.83.04.52.13.54.54.03.46.06 1.1a.48.48 0 0 1-.57.49q-.58-.11-1.4-.7a1.55 1.54 63.6 0 0-.82-.28q-2.72-.1-5.93 1.14a1.41 1.41 0 0 1-.91.03q-.58-.18-.9-.44a.63.63 0 0 1 .32-1.12l4.15-.5 4.63-.3z" class="B"/><path d="M511.46 239.46l-.67-.11q.35 0 .67.11z" class="C"/><path d="M441.79 242.12q-1.06.63-2.53.57a1.5 1.47-60.5 0 0-.9.26q-1.21.83-2.33.36 1.09-1.77 3.24-2.58a.54.54 0 0 1 .68.27q.6 1.23 1.84 1.12z" class="B"/><path d="M512 240.76v5.48q-.32.61 0 .64v2.36l-.25.87a.28.28 0 0 1-.54-.04q-.25-1.81.11-3.17a1.34 1.33 5.7 0 0-1.39-1.68c-1.79.12-2.46-.8-4.23-.85q-1.11-.02-1.92-.45 2.4-1.54 5.63.21a1.01 1.01 0 0 0 1.36-1.39l-.31-.54a.82.82 0 0 1 .14-1.01q.55-.52 1.4-.43z" class="C"/><path d="M446.71 241.94l-.87-.11.87.11z" class="B"/><path d="M477.42 241.88l-6.4-.02 6.4.02z" class="D"/><path d="M448.71 242.15q-.79.07-1.5-.1.72-.19 1.5.1z" class="B"/><path d="M462.97 242.02l-3.2.11 3.2-.11zm-8.42.25q-2 .39-4.11.08 2.01-.39 4.11-.08z" class="D"/></svg>