<?xml version="1.0" encoding="UTF-8" standalone="no"?>
<!-- Created with Inkscape (http://www.inkscape.org/) -->

<svg
   version="1.1"
   id="svg1"
   width="682.66669"
   height="797.33331"
   viewBox="0 0 682.66669 797.33331"
   xmlns="http://www.w3.org/2000/svg"
   xmlns:svg="http://www.w3.org/2000/svg"
   xmlns:rdf="http://www.w3.org/1999/02/22-rdf-syntax-ns#"
   xmlns:cc="http://creativecommons.org/ns#"
   xmlns:dc="http://purl.org/dc/elements/1.1/">
  <title
     id="title1">Metetosat-9 Icon SVG</title>
  <defs
     id="defs1" />
  <g
     id="g1">
    <path
       style="fill:currentColor"
       d="m 361.16241,796.71794 c -27.42116,-8.41361 -77.06288,2.95128 -72.38606,-33.84089 -24.4612,-5.21324 -43.82153,-10.24798 -64.85536,-19.46134 -17.61099,-3.15109 -38.76838,-17.85552 -57.5347,-21.7347 -10.47168,-8.94458 -32.35625,-12.31276 -36.10143,-20.19966 C 116.64314,697.42709 113.32999,690.7434 102.06061,685.68256 82.522488,672.12801 72.787068,664.23393 48.650937,639.90973 32.418461,627.22449 19.292347,605.8874 10.94948,594.42114 3.7131949,576.91563 -3.7609555,558.0992 2.5776385,538.69347 10.10384,512.202 17.227868,480.93117 24.95861,457.25305 c 6.443376,-31.40539 20.633733,-60.27747 18.44455,-91.14626 -5.138617,-32.82477 8.305843,-58.37474 27.509544,-77.42899 6.76263,-26.6857 13.311334,-45.77292 20.710356,-67.68801 5.95387,-23.65487 15.3845,-55.30085 29.73398,-79.77846 14.35237,-20.14042 64.32155,-3.90217 69.83756,-34.69726 1.14969,-17.979526 29.64352,-58.389896 21.76888,-15.423253 -1.91211,7.798629 -21.96544,33.817073 2.76688,30.242233 3.03146,-8.36256 -1.34066,-18.16944 6.20064,0 30.53363,-6.05 17.95054,-58.779766 37.40232,-55.999998 -1.89665,21.648046 -23.07645,43.850148 -10.96892,60.599818 20.70536,3.37263 63.29213,16.64808 55.01219,-16.89845 -16.86959,-19.195 18.61987,-44.310183 16.88043,-40.257469 8.29199,-3.089613 28.55385,-10.299298 5.17683,3.511549 20.33704,11.861043 63.86263,5.899595 91.18779,19.211379 23.30487,-2.642004 17.89591,-42.828053 32.90621,-60.324119 14.00642,-6.717088 36.7711,-43.902229 35.43897,-4.535297 19.33293,28.43708 -24.76056,61.276325 -4.81251,86.347417 30.0367,17.12495 68.25689,25.7158 88.77174,55.39525 22.08788,24.25076 -38.8793,26.50879 -25.18595,43.86713 16.71008,17.31579 51.90111,42.14378 55.10238,3.08702 3.42787,-7.65949 11.37332,-43.30837 15.63956,-26.78502 -10.81265,22.76156 -35.05314,67.04685 6.86212,71.44167 11.33287,-9.07644 37.52308,-65.76676 23.00441,-22.97994 -5.4901,7.49485 -19.63907,48.67593 -3.20251,32.74526 5.50803,-19.13522 21.52336,-43.34496 8.45367,-9.5933 -17.93399,24.66019 16.33109,37.1396 25.01552,57.26904 12.20295,11.08001 7.5888,28.90463 6.08848,41.90137 -5.93138,3.26767 -8.55546,24.2337 -13.9821,29.40359 -6.71124,16.38575 -11.29296,32.987 -20.02573,47.84171 -6.23448,19.92501 -29.57219,32.60295 -28.27505,57.81021 -16.73986,24.84463 -23.59764,58.16622 -37.1024,86.01526 1.6011,4.7196 -16.28178,33.25611 -21.08299,52.92591 11.86466,-13.53236 3.52437,13.82616 0.46822,20.66998 -6.05633,9.82155 -11.48076,28.17072 -16.72428,39.98397 -5.59749,8.86744 -14.55612,35.75995 -28.79854,46.85505 -6.58046,11.72193 -27.30611,12.82311 -28.41561,25.2186 -11.63609,28.35599 -48.51246,21.69854 -74.28551,29.17939 7.97402,3.4665 -42.19151,1.50344 -51.31733,1.47791 z M 450.83675,32.333333 c 4.11886,-6.002562 -7.4417,7.097476 0,0 z M 339.75001,795.08916 c 7.45403,-1.1511 -2.29242,2.28603 0,0 z m 86.66667,0 c 7.45403,-1.1511 -2.29242,2.28603 0,0 z m -96,-1.33333 c 7.45402,-1.15107 -2.29244,2.28599 0,0 z m 102.66667,0 c 7.45402,-1.15107 -2.29244,2.28599 0,0 z M 588.80843,564.77807 c 6.18031,-7.04907 0.17841,5.82502 0,0 z m 16.85825,-16.38573 c -6.36813,-13.8619 12.38998,-0.71235 0,0 z m -8.25365,-4.62476 c 7.48461,-10.49894 -1.43913,9.01532 0,0 z m 11.92032,-5.10093 c 6.18024,-5.17685 4.73191,4.63935 0,0 z m 0.66667,-4 c -0.0583,-4.48346 4.09336,4.44176 0,0 z M 2.7719299,529.88888 c 0.8577733,-5.13862 1.3524408,6.06872 0,0 z M 605.33335,524.58796 c 2.03175,-5.1208 3.43395,6.75117 0,0 z m 10.66667,-27.25464 c 3.4066,-4.78327 3.4066,4.78327 0,0 z M 40.210528,350.66666 c 1.166808,-6.00988 1.166816,6.00985 0,0 z m 7.894737,-35.44445 c 0.857776,-5.13859 1.352436,6.06872 0,0 z m 11.883086,-14.82755 c 15.411535,-7.08212 -1.79236,3.91583 0,0 z m 532.764059,-76.7855 c 4.67247,-6.08471 -1.68826,5.54848 0,0 z m 9.95511,-22.9425 c 1.08622,-7.4479 4.6724,-1.81273 0,0 z M 242.77194,121.88889 c 0.85777,-5.13861 1.35243,6.06872 0,0 z M 234.00001,112 c 10.02728,-9.7025 -6.91098,9.49843 0,0 z m -19.024,-22.666669 c 1.07231,-8.344491 1.07231,8.344491 0,0 z m 263.7315,-3.333333 c 1.08622,-7.447914 4.6724,-1.812719 0,0 z m -49.33333,-6.666667 c 1.08622,-7.447915 4.67241,-1.812718 0,0 z"
       id="path1" />
  </g>
  <metadata
     id="metadata1">
    <rdf:RDF>
      <cc:Work
         rdf:about="">
        <dc:title>Metetosat-9 Icon SVG</dc:title>
      </cc:Work>
    </rdf:RDF>
  </metadata>
</svg>
