<?xml version="1.0" encoding="UTF-8" standalone="no"?>
<!-- Created with Inkscape (http://www.inkscape.org/) -->

<svg
   version="1.1"
   id="svg1"
   width="682.66669"
   height="509.33334"
   viewBox="0 0 682.66669 509.33334"
   xmlns="http://www.w3.org/2000/svg"
   xmlns:svg="http://www.w3.org/2000/svg"
   xmlns:rdf="http://www.w3.org/1999/02/22-rdf-syntax-ns#"
   xmlns:cc="http://creativecommons.org/ns#"
   xmlns:dc="http://purl.org/dc/elements/1.1/">
  <title
     id="title1">TerraSAR-X Icon SVG</title>
  <defs
     id="defs1" />
  <g
     id="g1">
    <path
       style="fill:currentColor"
       d="m 30.666668,508.16532 c 13.231125,1.07312 -38.9418739,-17.38464 -11.151327,-5.49864 -8.628079,-5.48896 -23.0805147,-15.2635 -11.5556887,-8.66667 -9.3600071,-3.9338 -11.4891976,-26.33643 -2.060719,-15.06848 27.4008137,4.38294 -23.0871213,0.64036 8.2827647,4.40034 13.788655,3.22408 21.224172,-11.52802 15.609161,-10.90568 11.826458,-14.89092 11.778658,-15.86111 19.136347,-28.51286 -5.959799,14.49627 11.364773,-22.57322 13.975846,-6.17473 -7.197868,12.37843 -5.060261,-3.94197 -6.99097,10.04462 14.935516,2.91721 16.048862,-5.09822 14.145299,-7.20641 5.347277,-1.29035 17.920181,-9.62299 18.722523,-8.71569 12.996466,-8.43418 -6.230638,-0.63086 7.891496,-7.86877 6.9296,-2.52124 10.69993,-8.93313 19.66529,-12.79791 13.48434,-10.24308 26.53721,-21.16679 39.24332,-29.29613 -1.42729,-3.82019 14.77689,-8.16189 10.85084,-10.15242 13.07863,-8.18685 3.73725,-2.33645 21.51719,-14.82461 -2.06604,-1.01629 35.53212,-27.37801 7.70016,-7.5145 -1.95073,-3.31348 27.09549,-16.59966 19.55849,-15.76312 12.7675,3.76431 4.23149,-23.02371 2.29836,-18.01488 7.76298,15.83001 -24.98878,-37.29058 -3.51455,-5.58714 -5.72139,-9.7368 -23.58036,-55.84746 -50.42494,-32.66267 -14.11819,-12.48099 18.30698,-48.05781 19.81965,-69.05805 10.24414,-15.4556 13.42625,-31.26057 20.24616,-42.8342 -8.13976,5.37536 24.30838,-18.55101 19.3671,-16.58334 8.94416,0.25793 32.10606,-21.06904 14.55868,-6.24358 18.5436,-9.38786 13.00787,-9.2366 34.23788,-17.65922 13.58992,-10.96023 33.55132,-16.10037 30.13087,-17.30089 7.3352,-4.46172 42.17565,-18.786202 38.22354,-21.365542 15.80198,-3.834752 36.11124,-19.67358 53.08157,-27.064116 15.86009,-6.288293 43.92034,-27.08951 38.4357,-19.366227 14.18703,-11.41389 15.17073,-6.454011 37.54817,-19.528236 14.42283,-8.550237 23.43718,-14.7108885 32.33759,-18.5110153 -15.62784,-2.75155994 23.23499,-5.9913969 12.46718,12.8338773 24.85454,5.879916 55.84789,-1.340359 76.30547,16.619311 13.7594,19.598758 31.85637,22.101361 41.62663,42.069682 -7.00776,-8.485734 -9.52581,-15.523489 2.67735,1.279244 1.6192,8.303136 23.08753,39.975442 32.91264,58.236062 -9.71402,-32.28975 12.68907,44.69828 2.4757,4.43061 9.22405,11.40967 8.4351,28.02322 1.65591,47.15425 -3.86727,16.66416 7.99969,-55.99953 1.40193,-17.19023 -4.32645,24.77752 -16.63628,54.48214 -20.72711,75.46729 -8.60061,5.33866 2.50471,-6.79466 -10.16388,0.19669 21.75182,23.48742 4.79809,40.13509 -22.85094,39.69208 -25.4641,6.38171 -49.11977,10.0135 -68.44817,18.27049 -23.26865,5.6331 17.97722,-7.67356 -5.94448,-1.68678 -16.26457,4.45602 -62.12669,11.84524 -54.28699,14.09774 -7.19642,2.46526 -23.5614,5.96486 -9.33994,0.16595 -45.87413,9.43617 -91.75118,19.35166 -137.38339,29.90083 15.68359,0.40384 -42.69485,10.55054 -6.33703,1.56112 -15.94998,1.51567 -45.1944,7.82188 -66.46349,9.08676 -27.93359,3.99835 -47.04787,-11.55762 -68.13071,15.3101 -10.25653,6.57625 -47.64093,36.98245 -18.66331,15.35164 11.68463,-4.3892 -41.02293,26.69876 -17.0025,13.69049 -9.59185,9.44824 -40.21405,28.21087 -14.37604,9.6608 13.93137,-14.28203 -32.84494,26.42306 -21.64027,13.28884 -27.72356,19.50104 -3.30507,3.41271 -9.86712,9.1638 -23.009639,7.86586 -38.3016,37.51574 -56.922141,43.579 -12.713634,5.79447 -37.111748,18.78188 -15.220741,30.61603 -19.68389,-21.30761 5.113431,-0.35097 3.619492,4.30781 -7.388948,-0.19602 -15.069005,1.23712 -22.259852,-0.85272 z m 29.491891,-73.49864 c -2.741102,-4.05621 -13.492346,13.48609 0,0 z M 560.97224,296.52778 c -5.69698,-1.5208 -1.45725,2.46053 0,0 z M 228.74912,146.97134 c -5.92344,1.27913 -6.08277,7.43427 0,0 z M 622.66669,59.496594 c -4.31688,-6.175933 -4.696,-1.043948 0,0 z M 40.000001,491.4966 c 4.316873,-6.17592 4.695987,-1.04394 0,0 z m 5.333334,-3.8656 c 7.670821,-8.39991 9.022163,-3.45833 0,0 z m 10.666667,-7.7002 c 14.301963,-2.38951 20.093759,-10.47103 30.036354,-21.00555 -8.4479,14.16011 -19.927454,21.33446 -30.036354,21.00555 z M 34.662551,464.33334 c 11.979461,-14.77588 -6.876078,11.44237 0,0 z m 55.898265,-10.14712 c 12.906864,-9.51283 -7.982447,9.6253 0,0 z m 5.439187,-3.98911 c 11.450267,-10.24647 27.557387,-22.22879 7.206997,-4.66574 -2.60054,0.19266 -4.134338,5.34463 -7.206997,4.66574 z m -36.980548,-1.95085 c 5.087043,-4.28851 8.625101,3.39689 0,0 z M 192.00001,379.57358 c 9.61983,-9.10415 43.18816,-31.94871 16.26381,-11.23551 -5.5106,3.53022 -10.12419,8.76147 -16.26381,11.23551 z m 47,-21.82601 c 11.4329,-1.2972 0.4909,2.14718 0,0 z m 8.66666,0.0361 c 8.29706,-1.32268 0.10342,2.30698 0,0 z m -25,-1.00562 c 4.09156,-7.2587 19.27278,-4.61996 4.8805,-2.05528 z m 43.68222,-0.38768 c 15.27976,-0.50552 -1.44653,1.67536 0,0 z m 23.65112,-3.06987 c 11.06721,-2.41672 26.77959,-2.54289 5.54457,0.3413 -8.28008,1.49632 -24.07382,2.4278 -5.54457,-0.3413 z m 23,-3.59476 c 14.57609,-1.2553 0.84898,2.04093 0,0 z m 45.41667,-7.96985 c 7.3365,-0.71265 -2.05265,2.21679 0,0 z m 15.58333,-3.84374 c 29.74054,-7.845 -9.34187,0.0317 -7.8875,2.27147 l 3.38594,-1.02993 z m 20.66667,-3.79579 c 10.62661,-4.4295 44.68904,-9.87986 16.32513,-2.91973 -5.19063,0.44156 -11.3586,4.07923 -16.32513,2.91973 z m -172.43385,-6.81737 c -6.85352,-14.71829 5.29882,5.14295 0,0 z m 222.43385,-4.7189 c 30.3777,-7.91574 1.84677,1.95851 -12.66667,3.93127 3.9983,-1.95274 8.45872,-2.60729 12.66667,-3.93127 z m 24.41667,-4.8242 c 7.3365,-0.71265 -2.05266,2.21679 0,0 z m 30.66666,-6.66666 c 7.33651,-0.71267 -2.05262,2.21678 0,0 z m 15.58334,-3.84375 c 29.74054,-7.845 -9.34187,0.0317 -7.8875,2.27147 l 3.38594,-1.02993 z m 21.75,-4.15625 c 7.33649,-0.71267 -2.05262,2.21678 0,0 z M 201.8319,293.66667 c -12.46619,-18.5966 11.61292,13.41226 0,0 z m 371.25145,1.42252 c 7.33651,-0.71267 -2.05262,2.21678 0,0 z m 14.25,-3.77529 c 26.23285,-7.70032 -1.38706,4.09029 -6.75,2.20288 l 2.81875,-0.99339 z m 20.66667,-3.67766 c 15.35599,-6.06148 40.70594,-9.67578 10.60243,-1.98131 l -6.18894,1.53598 z m -414.19916,-5.96957 c -19.08991,-28.92129 9.04858,8.45548 0,0 z m 447.53249,-1.94782 c 10.47645,-5.90188 9.68565,-0.46302 0,0 z M 169.6323,277.38699 c 18.2705,-8.34774 13.154,-2.94667 0,0 z m -12.8799,-9.77782 c 3.54064,-5.67727 -1.02149,5.24077 0,0 z M 160,259.48935 c 6.74658,-16.82371 5.79219,-5.69832 0,0 z m 488.45444,-7.82268 c -10.44589,-15.75477 -0.74397,-4.35003 4.9436,3.98091 l -0.4698,0.35243 z m -480.34266,-11 c 4.08588,-12.48784 7.17831,-8.26765 0,0 z m 486.55491,-3.90128 c 3.90963,-15.91159 11.32004,-26.6595 2.3889,-4.05861 0.18631,-3.34082 -1.93322,7.49611 -2.3889,4.05861 z M 176.00001,221.41203 c 2.85835,-7.15174 1.92002,4.61364 0,0 z m 486.76592,-10.15231 c 4.42449,-19.29294 11.08153,-25.36035 0,0 z m -478.65415,-6.59305 c 4.08588,-12.48784 7.17831,-8.26765 0,0 z m 8.55489,-19.33333 c 11.85393,-20.3834 -9.02196,20.49542 0,0 z m 18.96297,-29.40053 c 12.08044,-9.25156 -10.21699,10.11967 0,0 z m 54.37037,-29.95695 c 19.7888,-12.89887 -8.75291,7.73482 0,0 z m 12.66666,-6.5487 c 7.29546,-6.40698 6.98264,-1.18475 0,0 z M 659.83945,117 c -13.29554,-22.408217 6.86698,6.98038 0,0 z m -7.76036,-13.39397 c -12.04994,-18.232486 5.48775,3.44811 0,0 z m -341.41241,-1.5122 c 7.29543,-6.407006 6.98264,-1.18475 0,0 z m 13.33333,-7.308027 c 14.58897,-8.894654 -6.56496,6.267457 0,0 z m 318.24687,-6.897287 c -11.84889,-18.168761 14.22235,17.194974 0,0 z M 348.00001,82.142653 c 4.01794,-4.398709 4.06383,1.810008 0,0 z m 5.33333,-2.60906 c 6.56655,-7.004142 7.57773,-2.078023 0,0 z m 10.66667,-5.439768 c 7.29547,-6.406998 6.98262,-1.18474 0,0 z m 17.33333,-9.983919 c 15.11774,-8.825463 -11.04806,8.803723 0,0 z m 13.9101,-6.631099 c 6.91834,-7.046783 6.35902,-0.926997 0,0 z m 13.42324,-7.515876 c 19.61377,-12.826021 0.17281,3.029349 0,0 z m 190.6033,-10.122094 c -10.29895,-11.078699 -28.82343,-29.092908 -6.34437,-8.484573 10.87509,9.173814 25.01274,30.790054 6.34437,8.484573 z M 454.66668,25.443238 c 15.11772,-8.82546 -11.04806,8.803725 0,0 z m 12,-5.967253 c 4.01795,-4.398708 4.06384,1.810011 0,0 z m 88,-1.646147 c -13.91051,-0.938126 -61.4001,-7.723978 -20.74466,-3.689883 12.31751,0.602216 66.28325,8.491192 20.74466,3.689883 z M 472.00001,16.76049 c 7.29546,-6.406989 6.98264,-1.18475 0,0 z m 10.66667,-5.983919 c 15.11772,-8.8254604 -11.04806,8.803725 0,0 z m 31.00291,-6.1099042 c 0.87797,-10.1137131 0.53804,11.4096352 0,0 z"
       id="path1" />
  </g>
  <metadata
     id="metadata1">
    <rdf:RDF>
      <cc:Work
         rdf:about="">
        <dc:title>TerraSAR-X Icon SVG</dc:title>
        <dc:source>https://www.dlr.de/en/images/2011/1/german-radar-satellite-terrasar-x_350/@@images/image-1000-61a701602065ce8cee2e5737ff967da4.jpeg</dc:source>
      </cc:Work>
    </rdf:RDF>
  </metadata>
</svg>
