<?xml version="1.0" encoding="UTF-8" standalone="no"?>
<svg xmlns="http://www.w3.org/2000/svg" version="1.2" baseProfile="tiny" viewBox="0.00 0.00 512.00 382.00" width="512.00" height="382.00">
<path fill="#2c323a" d="
  M 380.52 0.00
  L 378.55 5.24
  A 1.26 1.25 -4.7 0 1 377.97 5.92
  Q 375.35 7.39 372.78 8.73
  Q 372.26 9.00 371.63 8.04
  Q 371.17 7.36 371.51 6.78
  Q 371.68 6.49 372.07 6.39
  Q 372.59 6.26 372.77 6.03
  A 0.23 0.23 0.0 0 0 372.59 5.66
  Q 372.41 5.66 372.32 5.95
  Q 372.24 6.20 371.85 6.22
  Q 371.42 6.24 371.22 5.71
  Q 376.35 3.45 379.04 0.00
  L 380.52 0.00
  Z"
/>
<path fill="#a47e50" d="
  M 382.41 0.00
  Q 383.95 1.97 383.29 7.37
  L 377.86 20.32
  A 0.68 0.68 0.0 0 0 378.38 21.26
  C 378.86 21.33 379.23 21.40 379.64 21.86
  C 381.18 23.60 383.12 21.93 384.77 21.02
  A 1.45 1.45 0.0 0 0 385.43 20.23
  L 387.86 12.97
  L 388.96 12.86
  L 398.98 12.84
  A 2.24 2.23 55.8 0 1 399.81 13.00
  C 402.54 14.06 404.88 13.43 407.86 14.11
  C 410.58 14.72 413.38 14.26 416.34 14.90
  Q 418.74 15.42 422.23 15.33
  A 3.87 3.61 47.0 0 1 422.95 15.38
  L 431.80 16.93
  Q 432.54 18.28 432.06 19.49
  C 431.01 22.09 430.31 22.96 429.67 25.66
  Q 429.41 26.75 427.98 28.94
  Q 427.05 30.35 426.84 33.48
  A 1.80 1.78 31.5 0 0 427.10 34.54
  Q 428.85 37.40 431.01 39.15
  A 0.60 0.59 -54.4 0 0 431.89 39.00
  L 432.02 38.77
  A 0.36 0.35 41.1 0 0 431.99 38.35
  L 428.86 34.62
  A 1.93 1.88 -70.8 0 1 428.44 33.72
  Q 428.12 32.39 429.39 30.96
  A 0.44 0.44 0.0 0 1 430.16 31.23
  L 430.39 34.66
  A 0.76 0.75 -76.9 0 0 430.75 35.25
  Q 431.76 35.85 432.34 36.94
  A 0.68 0.68 0.0 0 0 433.62 36.57
  L 433.04 28.01
  A 2.62 2.55 49.5 0 1 433.09 27.26
  L 434.60 19.80
  A 0.79 0.78 19.9 0 1 435.74 19.27
  Q 436.70 19.80 436.79 21.06
  C 437.03 24.54 436.99 28.01 435.81 32.31
  Q 435.12 34.81 434.12 38.94
  A 0.87 0.86 3.7 0 1 433.36 39.60
  Q 432.10 39.71 431.83 41.15
  A 0.44 0.44 0.0 0 0 432.36 41.66
  L 432.85 41.55
  A 0.75 0.75 0.0 0 1 433.73 42.04
  Q 434.29 43.61 433.83 44.77
  A 1.93 1.93 0.0 0 0 436.03 47.36
  L 439.92 46.53
  A 1.11 1.11 0.0 0 0 440.65 44.89
  L 438.23 40.71
  A 0.76 0.76 0.0 0 1 438.30 39.84
  Q 439.97 37.84 439.70 34.91
  Q 439.07 28.01 439.27 22.46
  A 0.51 0.51 0.0 0 1 440.21 22.20
  Q 442.81 26.23 445.92 28.25
  L 451.27 34.30
  Q 451.38 34.67 451.77 34.82
  Q 452.16 37.00 451.76 39.14
  A 0.49 0.49 0.0 0 0 452.18 39.71
  L 452.21 39.72
  A 0.55 0.54 8.4 0 0 452.81 39.28
  Q 453.03 38.01 453.89 37.11
  Q 455.93 39.49 456.87 39.88
  Q 460.03 41.18 463.59 42.78
  L 462.23 46.37
  A 0.75 0.74 20.4 0 1 461.28 46.80
  L 460.96 46.69
  A 0.74 0.74 0.0 0 0 460.18 46.87
  L 458.19 48.86
  A 0.37 0.37 0.0 0 0 458.39 49.49
  Q 459.27 49.64 460.14 48.91
  A 1.21 1.21 0.0 0 1 461.04 48.63
  L 463.72 48.89
  A 1.59 1.59 0.0 0 1 464.63 49.29
  L 468.57 52.74
  A 1.06 1.06 0.0 0 1 468.92 53.72
  Q 468.75 54.74 467.71 55.53
  A 0.29 0.28 28.8 0 0 467.86 56.04
  Q 468.75 56.13 469.25 55.22
  Q 469.86 54.10 470.50 52.53
  Q 488.38 76.52 500.95 103.54
  Q 502.65 107.17 502.68 110.00
  Q 502.70 111.76 503.89 113.81
  A 0.84 0.83 68.4 0 0 504.80 114.21
  L 505.90 113.95
  A 0.31 0.31 0.0 0 1 506.24 114.41
  Q 505.80 115.21 504.55 116.16
  A 0.96 0.94 69.5 0 0 504.18 116.99
  Q 504.85 124.55 504.17 127.39
  Q 500.88 141.19 491.56 170.74
  Q 490.34 174.61 489.82 175.87
  Q 487.55 175.48 486.39 176.64
  Q 484.89 178.16 483.50 179.75
  Q 481.40 180.09 480.70 182.22
  A 1.10 1.09 -56.0 0 0 480.90 183.28
  Q 481.39 183.86 481.33 184.77
  A 1.57 1.55 29.5 0 0 481.62 185.79
  C 483.62 188.62 486.96 189.67 487.88 193.34
  Q 488.16 194.46 488.80 199.99
  Q 488.96 201.43 488.05 204.74
  A 0.94 0.92 -2.0 0 1 487.45 205.37
  L 482.70 206.96
  L 481.54 207.17
  L 468.98 210.40
  Q 465.29 209.16 461.73 209.23
  Q 449.07 209.50 430.88 210.84
  Q 429.25 210.96 424.10 210.23
  A 1.62 1.57 -46.0 0 0 423.54 210.25
  L 386.85 218.96
  A 0.78 0.69 22.0 0 0 386.68 219.02
  Q 384.32 220.19 381.12 220.01
  A 0.65 0.62 -70.6 0 0 380.54 220.30
  Q 380.47 220.41 380.45 220.43
  A 1.46 1.43 -70.8 0 1 379.52 220.89
  L 376.91 221.15
  A 1.76 1.75 25.2 0 0 376.07 221.45
  C 374.56 222.49 372.78 222.09 371.28 222.49
  Q 367.34 223.55 359.11 225.20
  A 0.73 0.50 -55.6 0 0 358.93 225.27
  Q 356.27 226.72 354.17 224.86
  A 1.16 1.12 -25.2 0 0 353.34 224.58
  L 352.18 224.66
  A 0.85 0.82 -22.1 0 1 351.49 224.38
  Q 350.86 223.66 351.24 222.56
  Q 351.37 222.17 351.88 222.14
  Q 352.26 222.11 352.63 221.80
  A 0.74 0.74 0.0 0 0 352.74 220.79
  L 349.61 216.54
  A 0.63 0.60 75.5 0 0 349.22 216.30
  Q 348.23 216.14 348.18 214.60
  A 0.51 0.51 0.0 0 0 347.24 214.35
  L 346.33 215.83
  A 0.59 0.59 0.0 0 1 345.29 215.77
  Q 344.54 214.18 344.63 212.95
  A 0.25 0.24 88.6 0 1 344.83 212.73
  Q 345.02 212.70 345.11 212.65
  A 0.15 0.11 14.1 0 0 344.94 212.45
  Q 344.39 212.61 343.96 212.62
  A 2.04 1.91 27.6 0 0 343.09 212.86
  Q 340.19 214.48 336.54 214.05
  A 0.17 0.16 78.0 0 0 336.38 214.30
  Q 336.40 214.35 336.76 214.33
  C 337.52 214.27 338.16 214.88 338.95 214.87
  A 0.88 0.88 0.0 0 1 339.73 215.31
  Q 340.92 217.37 342.18 216.33
  A 0.90 0.88 47.5 0 1 343.38 216.39
  L 343.78 216.78
  A 0.71 0.71 0.0 0 1 343.57 217.92
  Q 342.70 218.32 342.00 219.30
  A 0.83 0.83 0.0 0 1 340.91 219.53
  Q 339.63 218.77 339.75 220.22
  A 0.66 0.65 22.0 0 0 339.91 220.59
  L 346.21 227.70
  A 0.50 0.49 -27.4 0 1 345.95 228.51
  L 262.64 247.86
  A 1.33 1.33 0.0 0 1 261.01 246.60
  Q 260.98 245.55 260.35 244.66
  A 0.07 0.06 -71.4 0 0 260.24 244.72
  L 260.85 247.34
  A 0.93 0.93 0.0 0 0 261.64 248.05
  Q 263.41 248.26 265.56 247.60
  A 0.17 0.17 0.0 0 1 265.78 247.73
  L 265.78 247.74
  A 0.15 0.14 2.4 0 1 265.65 247.85
  L 258.06 248.59
  A 0.91 0.90 2.1 0 0 257.26 249.33
  Q 257.04 250.59 255.24 250.43
  Q 254.10 250.33 254.04 250.04
  A 0.07 0.07 0.0 0 0 253.95 249.98
  L 224.61 256.79
  A 0.57 0.57 0.0 0 1 223.99 255.94
  L 227.56 250.15
  A 0.69 0.69 0.0 0 0 227.27 249.17
  Q 226.91 249.01 225.86 248.58
  A 0.32 0.32 0.0 0 0 225.46 249.04
  L 225.64 249.35
  A 0.84 0.83 -47.5 0 1 225.67 250.13
  Q 222.25 257.18 221.43 258.84
  A 1.35 1.28 29.9 0 1 219.52 259.30
  Q 219.14 259.05 219.35 258.51
  A 0.33 0.33 0.0 0 0 218.96 258.07
  L 185.06 266.12
  Q 184.20 266.82 182.19 266.82
  L 181.46 266.86
  C 178.40 267.25 177.35 265.03 176.23 262.89
  A 2.15 2.14 -26.0 0 0 173.43 261.93
  L 168.92 264.00
  L 165.61 257.31
  A 0.87 0.86 77.7 0 0 164.87 256.83
  Q 164.27 256.81 164.00 257.25
  C 163.13 258.64 160.93 258.47 161.87 260.94
  A 1.13 1.12 -35.6 0 1 161.68 262.04
  Q 161.18 262.63 160.02 263.03
  A 0.68 0.67 78.3 0 0 159.57 263.72
  L 159.65 264.98
  A 1.19 1.19 0.0 0 1 159.15 266.04
  Q 157.58 267.16 154.10 270.51
  A 0.86 0.72 -19.1 0 1 152.67 269.97
  Q 152.77 269.57 152.48 269.38
  A 0.32 0.32 0.0 0 0 152.01 269.49
  Q 151.33 270.69 149.10 272.06
  A 1.72 1.70 85.2 0 0 148.40 272.90
  Q 147.77 274.54 147.75 276.92
  A 0.06 0.05 84.3 0 1 147.71 276.98
  L 147.27 277.08
  A 0.10 0.10 0.0 0 1 147.15 276.99
  L 146.93 273.77
  A 1.21 1.20 -34.8 0 0 144.63 273.36
  L 142.61 277.86
  A 0.57 0.48 85.3 0 1 142.51 278.00
  Q 141.82 278.63 141.09 277.80
  A 0.66 0.66 0.0 0 0 140.13 277.78
  L 133.16 284.74
  A 1.04 1.04 0.0 0 1 131.58 284.62
  L 130.57 283.25
  A 0.25 0.25 0.0 0 0 130.12 283.43
  Q 130.57 286.49 128.77 289.18
  A 0.58 0.58 0.0 0 1 127.71 288.89
  L 127.66 288.17
  A 0.35 0.35 0.0 0 0 127.06 287.94
  L 122.00 293.00
  A 0.61 0.60 -44.7 0 1 121.15 293.00
  L 119.73 291.58
  A 0.42 0.42 0.0 0 0 119.02 291.96
  Q 119.58 294.69 118.64 296.30
  A 0.70 0.69 -81.6 0 1 118.20 296.63
  Q 117.88 296.71 116.97 296.39
  A 0.87 0.87 0.0 0 0 115.91 296.80
  Q 114.63 299.18 113.01 299.52
  A 0.92 0.91 -28.1 0 1 112.20 299.28
  L 110.76 297.84
  A 0.46 0.46 0.0 0 0 109.98 298.19
  L 110.19 301.21
  A 1.39 1.38 76.9 0 1 109.35 302.57
  Q 106.88 303.63 105.16 305.66
  C 104.22 306.77 102.84 306.00 101.64 306.98
  Q 98.55 309.49 94.87 313.65
  A 1.64 1.62 72.3 0 0 94.48 314.42
  Q 94.21 315.69 93.32 315.80
  C 91.33 316.06 90.72 316.90 90.06 318.17
  Q 90.04 318.19 90.02 318.21
  L 86.95 320.91
  A 1.15 0.96 5.0 0 1 86.75 321.05
  L 81.45 323.79
  A 0.91 0.85 2.0 0 0 81.14 324.06
  Q 78.90 327.10 74.68 328.78
  A 0.65 0.63 4.0 0 0 74.37 329.04
  L 73.00 331.26
  A 0.89 0.87 -75.8 0 1 72.31 331.68
  L 69.96 331.84
  A 0.80 0.79 5.7 0 0 69.25 332.42
  Q 68.78 334.13 67.37 334.56
  A 1.74 1.71 13.2 0 0 66.63 335.01
  Q 64.65 337.10 62.54 337.88
  A 1.92 1.81 -80.4 0 0 61.68 338.53
  Q 60.04 340.74 57.16 342.83
  A 1.55 1.55 0.0 0 0 56.80 343.19
  L 51.64 350.54
  A 1.00 0.99 26.9 0 1 50.49 350.91
  L 47.53 349.86
  A 1.20 1.20 0.0 0 0 46.42 350.03
  L 27.33 364.10
  A 1.34 1.34 0.0 0 1 25.58 363.97
  L 25.19 363.57
  A 0.90 0.90 0.0 0 1 25.26 362.23
  L 30.98 357.65
  L 44.99 346.82
  A 0.08 0.08 0.0 0 0 45.02 346.74
  L 44.92 346.31
  A 0.27 0.27 0.0 0 0 44.49 346.15
  L 33.65 354.10
  Q 32.80 353.16 33.16 351.76
  A 1.07 1.07 0.0 0 1 33.74 351.07
  Q 34.52 350.70 34.81 350.94
  A 0.47 0.47 0.0 0 0 35.40 350.95
  L 42.30 345.65
  A 0.74 0.74 0.0 0 0 42.41 344.59
  Q 42.35 344.51 42.23 344.41
  A 0.91 0.90 -52.8 0 1 42.08 343.28
  Q 43.99 340.11 48.66 338.45
  L 53.74 335.27
  L 60.04 329.79
  L 62.50 327.80
  Q 63.42 327.95 63.50 326.91
  Q 104.33 296.97 144.37 265.96
  C 147.63 263.43 151.42 260.07 155.09 257.28
  Q 155.42 257.14 155.53 256.78
  Q 155.72 256.59 155.97 256.48
  Q 156.53 256.37 156.51 255.96
  L 169.35 246.87
  A 1.57 1.56 -33.5 0 0 169.78 244.78
  Q 158.90 227.16 144.97 206.51
  Q 143.47 204.29 142.10 202.83
  A 1.12 1.11 59.8 0 0 140.95 202.52
  Q 139.26 203.06 137.27 202.94
  A 2.86 2.83 -51.6 0 0 136.27 203.06
  L 121.72 207.51
  L 119.55 207.84
  L 118.92 207.34
  L 259.90 152.92
  A 1.06 1.01 87.1 0 0 260.53 152.19
  Q 260.54 152.17 260.58 151.93
  A 0.68 0.67 82.5 0 1 260.99 151.39
  L 269.36 147.76
  A 1.68 1.65 -56.8 0 1 270.05 147.61
  Q 270.81 147.74 276.07 145.60
  Q 283.46 142.61 289.92 139.79
  A 2.30 2.15 -57.2 0 1 290.60 139.62
  Q 291.65 139.51 292.53 139.05
  Q 295.88 137.31 301.46 135.25
  Q 313.21 130.92 330.10 124.03
  C 332.47 123.06 335.20 122.64 337.13 121.37
  A 2.66 2.62 83.7 0 0 338.16 120.06
  L 377.64 8.28
  A 0.54 0.54 0.0 0 0 376.86 7.63
  L 371.95 10.47
  A 1.97 1.95 85.9 0 0 371.12 11.44
  Q 370.24 13.69 368.92 18.20
  Q 368.63 19.21 367.72 20.25
  A 2.07 2.04 -22.4 0 0 367.23 21.40
  Q 367.10 22.86 365.68 26.38
  Q 365.37 27.12 365.02 27.51
  Q 364.59 27.97 364.80 28.67
  A 1.37 1.34 -42.5 0 1 364.75 29.56
  Q 361.80 37.01 361.00 39.48
  C 360.60 40.71 359.32 42.74 359.34 43.39
  C 359.39 44.61 358.47 46.61 357.27 49.67
  Q 356.50 51.64 355.84 53.93
  Q 355.09 56.56 354.07 58.17
  A 0.53 0.53 0.0 0 1 353.11 57.75
  Q 353.96 54.51 355.56 52.15
  A 1.93 1.90 65.3 0 0 355.87 51.29
  Q 356.31 46.84 358.33 44.49
  A 1.22 1.19 -25.3 0 0 358.62 43.71
  Q 358.62 40.21 361.11 36.56
  A 1.67 1.62 63.9 0 0 361.41 35.64
  Q 361.50 32.36 363.70 29.13
  A 1.97 1.93 63.5 0 0 364.03 28.11
  Q 364.18 24.72 366.22 21.70
  A 2.21 2.21 0.0 0 0 366.57 20.78
  Q 367.11 17.03 369.12 13.69
  A 2.13 2.07 62.6 0 0 369.43 12.66
  Q 369.52 9.54 371.63 8.04
  Q 372.26 9.00 372.78 8.73
  Q 375.35 7.39 377.97 5.92
  A 1.26 1.25 -4.7 0 0 378.55 5.24
  L 380.52 0.00
  L 382.41 0.00
  Z
  M 402.63 67.83
  Q 402.67 62.01 405.91 56.76
  Q 407.61 54.00 406.83 51.45
  A 1.58 1.58 0.0 0 1 407.68 49.55
  Q 411.28 47.89 410.31 43.76
  C 409.91 42.07 408.29 40.21 407.53 38.70
  A 2.28 2.28 0.0 0 1 407.30 37.58
  L 407.38 36.12
  A 0.53 0.53 0.0 0 0 406.52 35.68
  L 398.11 42.43
  A 0.51 0.50 -34.4 0 0 397.99 43.07
  L 401.68 49.45
  A 1.42 1.37 -59.3 0 1 401.86 50.21
  L 401.74 52.28
  A 0.80 0.80 0.0 0 0 402.94 53.02
  L 405.33 51.64
  A 0.55 0.54 -16.4 0 1 406.15 52.08
  Q 406.26 54.46 404.16 57.03
  C 402.89 58.58 403.20 60.69 402.05 62.78
  A 3.05 3.04 -25.3 0 0 401.73 63.67
  Q 401.33 65.66 401.95 67.92
  A 0.35 0.35 0.0 0 0 402.63 67.83
  Z
  M 373.38 85.34
  Q 373.38 85.26 374.89 82.72
  A 5.25 5.07 -21.4 0 0 375.37 81.67
  C 377.04 76.47 378.55 70.94 381.85 66.01
  Q 383.21 63.97 390.20 52.66
  A 1.07 1.06 -53.8 0 0 389.99 51.30
  Q 386.46 48.21 383.43 46.58
  A 0.52 0.52 0.0 0 0 382.83 47.41
  Q 384.32 48.84 383.14 49.86
  Q 382.57 50.35 381.84 51.55
  Q 373.02 65.97 359.55 87.29
  A 1.11 1.10 6.0 0 1 358.95 87.77
  L 355.41 88.95
  A 0.67 0.67 0.0 0 0 355.72 90.25
  L 355.95 90.21
  A 1.34 1.33 59.3 0 1 356.88 90.45
  L 362.33 94.37
  A 1.56 1.55 -51.2 0 0 364.41 94.14
  L 370.58 87.15
  A 0.41 0.34 5.7 0 1 370.70 87.07
  Q 371.73 86.67 372.95 85.26
  A 0.07 0.07 0.0 0 1 373.04 85.24
  L 373.29 85.40
  A 0.06 0.06 0.0 0 0 373.38 85.34
  Z
  M 374.67 54.03
  A 1.59 0.88 87.5 0 0 373.64 52.35
  Q 372.14 52.65 372.04 53.16
  A 2.05 1.83 86.9 0 0 374.43 55.55
  Q 374.67 55.46 374.67 54.03
  Z
  M 363.68 71.88
  Q 364.30 64.97 367.46 58.19
  A 0.60 0.59 -75.8 0 0 366.96 57.34
  L 366.04 57.29
  A 0.91 0.90 -77.6 0 0 365.14 57.87
  Q 361.77 66.50 359.41 74.91
  Q 358.64 77.62 357.55 80.05
  Q 356.26 82.92 355.26 85.16
  Q 354.89 85.98 355.34 86.25
  L 355.48 87.19
  A 0.33 0.32 -33.4 0 0 356.08 87.31
  L 375.33 56.06
  A 0.32 0.31 17.2 0 0 375.07 55.58
  L 374.59 55.55
  A 0.47 0.47 0.0 0 0 374.16 55.77
  L 363.68 71.88
  Z
  M 453.15 59.42
  L 452.71 60.25
  A 0.23 0.23 0.0 0 0 452.81 60.57
  L 456.56 62.56
  A 2.04 0.69 28.0 0 0 458.68 62.91
  L 458.69 62.89
  A 2.04 0.69 28.0 0 0 457.22 61.32
  L 453.46 59.33
  A 0.23 0.23 0.0 0 0 453.15 59.42
  Z
  M 403.71 82.22
  L 399.10 89.62
  A 1.63 1.19 -87.5 0 1 398.90 89.87
  Q 397.33 91.42 397.31 92.54
  Q 397.21 97.88 399.37 103.49
  Q 400.00 105.11 402.03 106.59
  A 0.41 0.41 0.0 0 0 402.69 106.27
  Q 402.74 103.94 400.91 103.10
  A 0.85 0.85 0.0 0 1 400.46 102.09
  Q 400.46 102.08 400.63 101.80
  A 1.00 0.96 54.6 0 0 400.73 101.11
  L 399.28 94.87
  A 0.32 0.32 0.0 0 1 399.75 94.52
  Q 404.30 97.12 404.16 101.74
  A 0.65 0.64 -84.9 0 0 404.70 102.39
  Q 406.80 102.74 407.60 101.44
  A 0.79 0.78 -57.4 0 1 408.70 101.19
  Q 411.24 102.83 411.58 103.30
  Q 411.97 103.83 413.78 108.16
  A 0.64 0.64 0.0 0 0 415.00 107.97
  Q 415.18 105.89 413.70 103.99
  Q 413.34 103.52 413.31 102.90
  Q 413.29 102.35 413.91 101.87
  A 0.47 0.47 0.0 0 0 413.78 101.05
  L 412.97 100.76
  A 0.59 0.59 0.0 0 1 413.10 99.62
  C 415.25 99.40 418.49 98.92 417.46 95.85
  A 0.68 0.68 0.0 0 1 417.77 95.03
  Q 418.80 94.46 419.29 94.86
  A 0.90 0.90 0.0 0 0 420.65 93.74
  L 418.52 89.68
  A 0.68 0.67 54.0 0 1 418.64 88.88
  Q 419.03 88.50 418.79 88.17
  A 0.84 0.73 -42.0 0 0 417.57 88.19
  Q 415.60 90.27 413.11 89.96
  A 0.82 0.81 -6.4 0 1 412.44 89.43
  Q 412.43 89.41 412.29 88.24
  Q 412.21 87.59 411.21 87.69
  Q 412.25 86.69 409.54 86.26
  Q 410.15 84.88 411.18 85.15
  Q 411.51 85.23 411.92 85.75
  Q 412.20 86.11 412.67 86.17
  Q 415.66 86.51 417.27 84.44
  A 0.52 0.51 -71.4 0 0 416.86 83.61
  Q 415.04 83.64 413.79 84.45
  A 1.00 0.97 37.3 0 1 412.95 84.55
  Q 411.04 83.87 410.89 82.68
  A 1.30 1.23 -70.9 0 0 410.58 81.99
  Q 409.76 81.08 410.06 79.74
  Q 411.46 77.80 413.91 77.96
  A 0.67 0.67 0.0 0 0 414.58 77.52
  L 414.70 77.16
  A 0.67 0.67 0.0 0 0 414.10 76.26
  Q 412.23 76.16 410.28 77.83
  Q 408.33 79.49 407.80 79.68
  A 1.64 1.55 40.3 0 1 406.89 79.73
  Q 405.63 79.42 405.02 79.83
  Q 403.91 80.59 403.71 82.22
  Z
  M 383.78 120.15
  L 384.27 120.64
  A 0.37 0.37 0.0 0 0 384.90 120.44
  Q 385.94 113.94 384.83 106.78
  A 0.53 0.52 77.9 0 0 384.17 106.35
  Q 380.26 107.43 377.36 106.81
  A 0.49 0.49 0.0 0 0 376.78 107.35
  L 378.42 119.36
  A 0.86 0.86 0.0 0 0 379.42 120.09
  Q 381.96 119.64 383.53 120.01
  A 0.64 0.61 72.9 0 1 383.78 120.15
  Z
  M 499.38 119.50
  Q 501.07 119.82 501.78 119.51
  A 0.72 0.72 0.0 0 0 502.20 118.76
  L 500.89 109.20
  A 0.98 0.98 0.0 0 0 499.79 108.36
  L 499.40 108.42
  A 1.07 1.07 0.0 0 0 498.54 109.87
  Q 499.30 111.89 499.12 114.33
  Q 499.08 114.81 499.26 115.18
  Q 499.48 115.64 499.91 115.76
  C 501.09 116.08 501.40 117.48 500.76 118.42
  A 0.50 0.50 0.0 0 1 500.07 118.55
  Q 500.01 118.51 499.85 118.41
  A 0.48 0.47 34.8 0 0 499.23 118.52
  Q 499.03 118.77 499.11 119.22
  A 0.33 0.32 1.2 0 0 499.38 119.50
  Z
  M 469.06 132.62
  L 463.76 141.44
  A 1.13 1.13 0.0 0 0 464.04 142.91
  Q 466.97 145.20 469.24 146.63
  C 470.11 147.18 470.12 147.97 471.41 148.07
  A 0.75 0.73 66.8 0 1 471.82 148.24
  L 476.72 152.35
  A 1.32 1.31 20.9 0 0 478.88 151.39
  Q 478.90 150.76 478.66 150.00
  A 1.72 1.39 -8.0 0 1 480.36 148.17
  Q 480.81 148.16 481.04 147.70
  Q 481.30 147.20 480.91 146.82
  Q 480.35 146.26 479.27 146.45
  Q 480.20 146.32 480.52 145.44
  Q 482.96 142.17 481.86 137.81
  A 0.36 0.36 0.0 0 0 481.18 137.74
  L 480.99 138.14
  Q 480.78 138.17 480.60 138.18
  A 0.62 0.61 -14.9 0 1 480.04 137.86
  L 478.68 135.51
  Q 478.59 134.99 478.16 134.44
  A 0.06 0.06 0.0 0 0 478.06 134.46
  Q 478.06 134.49 477.96 134.67
  A 0.49 0.48 21.7 0 1 477.41 134.90
  Q 476.89 134.77 476.70 134.07
  A 0.70 0.68 58.4 0 1 476.84 133.45
  Q 477.06 133.19 477.20 132.80
  A 0.83 0.81 -66.2 0 0 476.82 131.79
  Q 476.81 131.78 476.58 131.76
  A 0.95 0.90 23.6 0 1 475.93 130.22
  Q 477.15 128.96 478.56 128.20
  A 0.43 0.42 26.3 0 0 478.29 127.41
  Q 474.73 127.95 472.76 132.60
  Q 473.09 131.66 472.50 131.24
  C 471.19 130.30 470.55 128.75 471.62 127.67
  A 0.29 0.29 0.0 0 0 471.43 127.17
  Q 471.17 127.15 470.16 128.02
  A 0.69 0.69 0.0 0 0 469.99 128.83
  Q 470.69 130.29 469.67 130.85
  Q 469.47 130.96 469.32 130.87
  Q 469.18 130.78 469.05 130.61
  A 0.16 0.16 0.0 0 0 468.76 130.68
  Q 468.60 131.77 469.06 132.62
  Z
  M 484.6518 134.9815
  A 0.97 0.66 -52.4 0 0 483.5371 135.3473
  A 0.97 0.66 -52.4 0 0 483.4682 136.5185
  A 0.97 0.66 -52.4 0 0 484.5829 136.1527
  A 0.97 0.66 -52.4 0 0 484.6518 134.9815
  Z
  M 408.3599 143.1893
  A 1.76 1.38 -98.5 0 0 407.2552 145.1340
  A 1.76 1.38 -98.5 0 0 408.8801 146.6707
  A 1.76 1.38 -98.5 0 0 409.9848 144.7260
  A 1.76 1.38 -98.5 0 0 408.3599 143.1893
  Z
  M 341.54 193.21
  Q 340.63 192.83 340.54 193.52
  Q 340.49 193.94 340.86 194.13
  Q 339.14 195.94 339.92 196.54
  L 334.89 200.56
  Q 331.65 199.81 329.52 204.17
  Q 326.54 203.77 323.32 205.38
  A 0.48 0.48 0.0 0 0 323.58 206.28
  L 324.97 206.14
  Q 325.18 206.71 325.52 206.65
  Q 327.97 206.18 328.98 206.12
  A 1.03 1.03 0.0 0 1 329.68 207.95
  L 328.27 209.09
  A 1.66 1.66 0.0 0 0 329.06 212.02
  Q 331.65 212.42 334.05 210.19
  A 1.31 1.31 0.0 0 1 335.20 209.86
  Q 335.98 210.02 336.27 209.91
  A 0.36 0.35 -38.0 0 0 336.35 209.28
  L 331.27 205.96
  A 0.27 0.19 9.2 0 1 331.17 205.86
  Q 330.87 205.28 331.28 204.50
  Q 331.39 205.12 331.80 205.07
  A 0.25 0.23 -66.4 0 0 331.91 205.02
  L 345.83 193.85
  L 345.92 195.56
  A 0.81 0.81 0.0 0 0 347.05 196.26
  L 350.97 194.56
  A 0.52 0.49 -89.2 0 0 351.23 194.29
  Q 351.76 193.00 352.79 192.29
  A 0.83 0.83 0.0 0 0 353.15 191.57
  Q 353.12 190.72 354.06 190.17
  Q 354.58 189.86 355.10 189.40
  Q 358.44 186.41 359.18 185.65
  A 1.91 1.89 -73.9 0 1 360.17 185.10
  C 363.14 184.48 366.04 184.30 367.37 182.79
  A 0.33 0.32 -44.3 0 0 367.38 182.37
  L 367.19 182.13
  A 0.59 0.58 -37.5 0 0 366.38 182.03
  Q 363.01 184.50 359.23 183.39
  A 0.94 0.94 0.0 0 0 358.22 183.72
  Q 356.11 186.48 353.19 187.22
  A 0.65 0.65 0.0 0 1 352.62 186.08
  L 357.36 182.28
  A 0.65 0.63 -61.4 0 1 357.81 182.14
  Q 362.73 182.42 365.71 180.91
  Q 368.62 179.44 368.04 176.18
  Q 368.61 176.01 368.65 175.50
  Q 368.71 174.79 366.71 174.84
  Q 368.87 174.62 367.35 172.83
  Q 367.67 172.09 367.30 171.64
  Q 368.68 170.62 368.09 168.87
  Q 364.55 158.46 354.43 152.41
  C 350.98 150.35 344.31 149.21 341.97 153.77
  Q 338.87 159.80 341.87 166.21
  Q 344.92 172.75 350.80 177.71
  A 1.91 1.87 -19.1 0 0 351.73 178.15
  Q 353.64 178.50 354.41 178.83
  Q 354.91 179.04 354.95 179.68
  A 0.90 0.89 11.5 0 0 355.45 180.43
  Q 356.21 180.81 356.56 181.21
  A 0.52 0.52 0.0 0 1 356.45 181.98
  Q 352.82 184.42 351.83 185.33
  Q 350.62 186.43 349.92 185.62
  A 0.86 0.85 -26.4 0 0 349.09 185.35
  Q 347.07 185.79 345.35 185.10
  A 0.91 0.91 0.0 0 0 344.10 185.89
  L 343.77 191.62
  A 0.94 0.94 0.0 0 1 343.23 192.42
  L 341.54 193.21
  Z
  M 295.18 165.71
  Q 296.83 163.00 299.52 160.22
  A 1.69 1.39 -53.0 0 0 299.41 157.74
  Q 298.74 157.40 297.25 157.49
  Q 291.20 157.88 289.20 157.91
  A 1.91 1.82 27.9 0 0 288.28 158.17
  Q 287.45 158.67 286.80 158.62
  A 1.19 1.18 72.4 0 1 285.98 158.19
  Q 285.26 157.30 284.51 158.00
  Q 282.35 160.00 279.54 159.35
  A 0.78 0.78 0.0 0 0 278.74 159.63
  C 275.84 163.41 274.24 166.84 269.88 167.76
  A 0.70 0.70 0.0 0 0 269.98 169.14
  Q 271.67 169.24 272.87 168.18
  A 0.66 0.65 -13.2 0 1 273.94 168.84
  Q 272.79 173.02 268.47 171.71
  A 0.36 0.35 89.5 0 0 268.03 172.16
  Q 268.16 172.58 268.85 173.03
  A 0.50 0.49 -48.0 0 1 268.89 173.83
  L 263.59 178.08
  A 1.30 1.27 -62.0 0 1 262.71 178.36
  Q 260.84 178.22 260.52 180.32
  A 0.50 0.49 16.3 0 1 259.82 180.70
  Q 258.52 180.11 257.41 180.86
  A 0.95 0.95 0.0 0 0 257.00 181.58
  L 256.88 183.61
  A 0.48 0.48 0.0 0 0 257.45 184.11
  Q 258.85 183.84 259.65 185.68
  Q 260.14 186.83 259.48 188.32
  Q 257.50 192.78 253.53 193.39
  A 1.75 1.74 81.8 0 0 252.07 195.35
  L 252.37 197.56
  A 0.83 0.82 71.2 0 0 253.60 198.17
  L 257.48 195.93
  A 1.22 1.21 56.6 0 1 259.07 196.26
  L 262.27 200.61
  A 1.14 1.12 67.7 0 0 263.33 201.06
  L 264.55 200.89
  A 0.33 0.32 83.4 0 1 264.92 201.19
  Q 265.12 203.53 266.26 204.72
  Q 272.82 211.58 282.18 210.33
  Q 283.79 210.12 284.51 208.81
  C 288.48 201.51 282.71 191.20 278.07 185.27
  A 1.28 1.27 61.5 0 1 278.66 183.28
  Q 283.88 181.49 284.99 180.37
  A 0.52 0.50 -72.4 0 1 285.25 180.23
  L 291.46 179.22
  A 0.70 0.70 0.0 0 0 291.90 178.10
  Q 288.14 173.20 293.40 171.97
  A 0.57 0.57 0.0 0 0 293.72 171.06
  Q 292.73 169.83 292.86 169.02
  A 1.42 1.40 79.2 0 1 293.54 168.01
  Q 296.17 166.49 297.56 164.15
  A 0.01 0.01 0.0 0 0 297.55 164.13
  L 295.37 165.87
  A 0.13 0.13 0.0 0 1 295.18 165.71
  Z
  M 405.23 157.37
  Q 402.50 161.31 405.11 166.77
  A 0.34 0.34 0.0 0 0 405.75 166.64
  L 406.26 157.72
  A 0.57 0.56 -26.2 0 0 405.23 157.37
  Z
  M 305.7550 159.9348
  A 22.59 12.65 -128.8 0 0 310.0514 185.4665
  A 22.59 12.65 -128.8 0 0 334.0650 195.1452
  A 22.59 12.65 -128.8 0 0 329.7686 169.6135
  A 22.59 12.65 -128.8 0 0 305.7550 159.9348
  Z
  M 428.79 182.58
  L 422.55 178.73
  A 0.96 0.96 0.0 0 0 421.14 179.23
  L 418.87 185.68
  A 0.55 0.54 -69.8 0 1 418.17 186.01
  L 416.90 185.57
  A 0.66 0.66 0.0 0 0 416.22 186.66
  L 417.14 187.58
  A 0.89 0.88 61.5 0 0 417.95 187.82
  C 419.42 187.50 422.24 187.60 422.90 189.38
  A 0.44 0.44 0.0 0 0 423.16 189.64
  L 426.02 190.65
  A 1.49 1.49 0.0 0 0 427.92 189.75
  L 429.62 184.93
  A 1.99 1.99 0.0 0 0 428.79 182.58
  Z
  M 242.69 189.13
  L 242.30 189.11
  A 1.03 1.02 -21.8 0 1 241.66 188.84
  C 237.18 184.61 229.59 182.53 227.23 190.10
  A 3.49 3.47 -36.1 0 0 227.08 191.04
  Q 227.01 194.56 227.52 195.77
  Q 229.12 199.62 229.40 200.49
  A 0.44 0.44 0.0 0 0 230.15 200.65
  Q 231.48 199.16 233.00 199.30
  Q 233.73 199.37 233.92 198.68
  Q 234.06 198.15 234.54 197.73
  Q 236.90 195.64 238.48 194.89
  A 2.19 2.17 7.3 0 0 239.26 194.29
  C 240.15 193.25 240.08 192.97 241.55 192.36
  Q 242.92 191.78 243.43 190.20
  A 0.82 0.82 0.0 0 0 242.69 189.13
  Z
  M 196.38 225.45
  A 0.44 0.44 0.0 0 0 197.08 225.78
  L 208.20 217.58
  A 2.01 1.99 60.1 0 0 208.84 215.18
  Q 205.57 207.61 198.77 202.97
  C 195.55 200.78 190.60 198.03 187.56 201.61
  C 185.57 203.96 186.39 208.17 187.36 210.98
  Q 189.75 217.93 196.02 224.18
  A 1.16 1.13 21.4 0 1 196.34 224.89
  L 196.38 225.45
  Z
  M 468.24 205.64
  L 471.34 205.01
  A 0.71 0.71 0.0 0 0 471.89 204.18
  L 471.85 203.98
  A 4.11 2.29 78.5 0 0 468.79 200.41
  A 4.11 2.29 78.5 0 0 467.36 204.89
  L 467.40 205.09
  A 0.71 0.71 0.0 0 0 468.24 205.64
  Z
  M 236.65 213.46
  Q 235.10 213.59 234.03 214.75
  A 0.44 0.43 -65.7 0 0 234.30 215.48
  L 237.04 215.75
  A 4.40 4.34 59.4 0 1 238.33 216.09
  C 241.07 217.32 243.36 216.85 245.90 218.00
  Q 250.05 219.87 254.60 217.96
  A 1.14 1.13 -3.3 0 0 255.26 217.22
  Q 257.55 209.26 253.25 201.93
  A 1.59 1.58 -34.3 0 0 250.90 201.49
  L 238.41 211.52
  A 2.36 2.34 -5.7 0 0 237.79 212.27
  L 237.48 212.90
  A 1.03 1.03 0.0 0 1 236.65 213.46
  Z
  M 178.80 235.17
  Q 179.85 235.33 181.84 236.49
  A 1.02 1.02 0.0 0 0 182.96 236.43
  L 188.83 232.10
  A 0.65 0.65 0.0 0 0 189.08 231.44
  C 187.04 221.56 180.74 212.31 171.22 208.31
  C 168.14 207.01 164.97 208.33 164.56 211.86
  C 164.17 215.32 165.50 218.25 167.03 221.78
  C 168.47 225.11 170.35 226.98 172.81 230.51
  A 1.20 1.02 86.5 0 0 173.04 230.75
  L 177.99 234.81
  A 1.74 1.69 68.1 0 0 178.80 235.17
  Z
  M 263.24 219.10
  Q 263.46 218.35 263.39 218.14
  A 0.87 0.87 0.0 0 0 261.87 217.90
  Q 259.78 220.70 256.92 218.26
  Q 256.83 218.19 256.66 218.26
  Q 256.47 218.34 256.37 218.47
  A 0.29 0.29 0.0 0 0 256.51 218.94
  Q 257.11 219.14 257.07 219.49
  Q 257.03 219.89 256.59 220.09
  Q 254.59 220.98 253.15 222.33
  A 1.09 0.97 -74.7 0 1 252.84 222.53
  L 245.58 225.68
  A 0.73 0.73 0.0 0 0 245.20 226.64
  L 245.35 227.01
  A 1.36 1.35 -26.1 0 0 247.24 227.65
  Q 252.19 224.92 256.61 222.15
  Q 258.22 221.14 263.31 221.16
  Q 264.34 221.17 264.88 220.80
  Q 265.86 220.13 266.50 220.33
  A 0.70 0.69 24.1 0 0 267.30 220.03
  Q 268.21 218.56 270.89 218.45
  A 1.07 1.06 13.2 0 0 271.79 217.90
  Q 272.45 216.75 270.51 215.45
  A 0.62 0.61 9.8 0 0 269.57 216.11
  Q 269.80 217.02 269.26 217.77
  A 0.75 0.74 -61.6 0 1 268.38 218.04
  Q 266.57 217.36 265.15 217.82
  A 1.37 1.33 -82.3 0 0 264.39 218.42
  Q 263.86 219.27 263.64 219.41
  A 0.27 0.27 0.0 0 1 263.24 219.10
  Z
  M 230.71 218.45
  Q 230.27 218.99 230.39 219.76
  A 0.34 0.34 0.0 0 0 231.05 219.80
  Q 231.20 219.29 231.15 218.49
  Q 232.04 217.56 231.84 216.64
  A 0.46 0.45 -38.2 0 0 230.99 216.54
  Q 230.54 217.44 230.71 218.45
  Z
  M 233.62 236.32
  L 241.66 228.27
  A 0.60 0.60 0.0 0 0 240.93 227.32
  L 235.23 230.61
  A 0.81 0.78 -16.3 0 0 234.83 231.31
  Q 234.85 233.59 233.17 235.64
  A 0.37 0.36 42.6 0 0 233.20 236.13
  L 233.39 236.32
  A 0.17 0.16 -43.7 0 0 233.62 236.32
  Z
  M 229.59 235.88
  L 229.57 236.26
  A 0.43 0.42 9.4 0 1 229.03 236.64
  Q 228.25 236.42 227.70 237.43
  Q 226.67 239.31 226.68 239.83
  A 0.66 0.66 0.0 0 0 227.30 240.47
  L 227.41 240.47
  A 0.71 0.70 6.3 0 0 228.15 239.88
  C 228.33 238.81 228.66 237.95 229.30 236.99
  Q 230.11 235.79 229.70 235.78
  A 0.11 0.10 -0.0 0 0 229.59 235.88
  Z"
/>
<path fill="#2c323a" d="
  M 376.15 0.62
  Q 376.52 0.54 376.59 0.58
  A 0.17 0.17 0.0 0 1 376.64 0.83
  Q 376.50 1.00 376.23 1.04
  A 0.21 0.21 0.0 0 1 376.15 0.62
  Z"
/>
<path fill="#65859e" d="
  M 371.22 5.71
  Q 371.42 6.24 371.85 6.22
  Q 372.24 6.20 372.32 5.95
  Q 372.41 5.66 372.59 5.66
  A 0.23 0.23 0.0 0 1 372.77 6.03
  Q 372.59 6.26 372.07 6.39
  Q 371.68 6.49 371.51 6.78
  Q 371.17 7.36 371.63 8.04
  Q 369.52 9.54 369.43 12.66
  A 2.13 2.07 62.6 0 1 369.12 13.69
  Q 367.11 17.03 366.57 20.78
  A 2.21 2.21 0.0 0 1 366.22 21.70
  Q 364.18 24.72 364.03 28.11
  A 1.97 1.93 63.5 0 1 363.70 29.13
  Q 361.50 32.36 361.41 35.64
  A 1.67 1.62 63.9 0 1 361.11 36.56
  Q 358.62 40.21 358.62 43.71
  A 1.22 1.19 -25.3 0 1 358.33 44.49
  Q 356.31 46.84 355.87 51.29
  A 1.93 1.90 65.3 0 1 355.56 52.15
  Q 353.96 54.51 353.11 57.75
  A 0.53 0.53 0.0 0 0 354.07 58.17
  Q 355.09 56.56 355.84 53.93
  Q 356.50 51.64 357.27 49.67
  C 358.47 46.61 359.39 44.61 359.34 43.39
  C 359.32 42.74 360.60 40.71 361.00 39.48
  Q 361.80 37.01 364.75 29.56
  A 1.37 1.34 -42.5 0 0 364.80 28.67
  Q 364.59 27.97 365.02 27.51
  Q 365.37 27.12 365.68 26.38
  Q 367.10 22.86 367.23 21.40
  A 2.07 2.04 -22.4 0 1 367.72 20.25
  Q 368.63 19.21 368.92 18.20
  Q 370.24 13.69 371.12 11.44
  A 1.97 1.95 85.9 0 1 371.95 10.47
  L 376.86 7.63
  A 0.54 0.54 0.0 0 1 377.64 8.28
  L 338.16 120.06
  A 2.66 2.62 83.7 0 1 337.13 121.37
  C 335.20 122.64 332.47 123.06 330.10 124.03
  Q 313.21 130.92 301.46 135.25
  Q 295.88 137.31 292.53 139.05
  Q 291.65 139.51 290.60 139.62
  A 2.30 2.15 -57.2 0 0 289.92 139.79
  Q 283.46 142.61 276.07 145.60
  Q 270.81 147.74 270.05 147.61
  A 1.68 1.65 -56.8 0 0 269.36 147.76
  L 260.99 151.39
  A 0.68 0.67 82.5 0 0 260.58 151.93
  Q 260.54 152.17 260.53 152.19
  A 1.06 1.01 87.1 0 1 259.90 152.92
  L 118.92 207.34
  Q 118.30 205.80 119.26 203.26
  Q 122.72 194.18 123.46 192.45
  Q 139.09 155.74 147.70 137.66
  Q 152.34 127.92 155.03 123.54
  C 158.15 118.44 164.60 115.67 171.27 112.07
  Q 270.89 58.21 371.22 5.71
  Z
  M 364.0671 42.2454
  A 1.69 0.52 -26.9 0 0 362.3247 42.5463
  A 1.69 0.52 -26.9 0 0 361.0529 43.7746
  A 1.69 0.52 -26.9 0 0 362.7953 43.4737
  A 1.69 0.52 -26.9 0 0 364.0671 42.2454
  Z
  M 353.2398 59.9241
  A 3.38 0.72 -67.2 0 0 351.2663 62.7610
  A 3.38 0.72 -67.2 0 0 350.6202 66.1559
  A 3.38 0.72 -67.2 0 0 352.5937 63.3190
  A 3.38 0.72 -67.2 0 0 353.2398 59.9241
  Z
  M 350.2552 67.9472
  A 3.44 0.85 -68.6 0 0 348.2086 70.8399
  A 3.44 0.85 -68.6 0 0 347.7448 74.3528
  A 3.44 0.85 -68.6 0 0 349.7914 71.4601
  A 3.44 0.85 -68.6 0 0 350.2552 67.9472
  Z"
/>
<path fill="#65859e" d="
  M 383.29 7.37
  Q 383.83 7.18 384.07 8.23
  L 381.42 15.60
  A 0.34 0.34 0.0 0 0 381.90 16.02
  Q 382.26 15.84 382.54 15.32
  A 0.98 0.97 18.9 0 1 383.55 14.83
  Q 385.60 15.16 386.72 12.87
  Q 387.26 12.97 387.80 12.85
  Q 387.83 12.91 387.86 12.97
  L 385.43 20.23
  A 1.45 1.45 0.0 0 1 384.77 21.02
  C 383.12 21.93 381.18 23.60 379.64 21.86
  C 379.23 21.40 378.86 21.33 378.38 21.26
  A 0.68 0.68 0.0 0 1 377.86 20.32
  L 383.29 7.37
  Z"
/>
<path fill="#2c323a" d="
  M 386.72 12.87
  Q 385.60 15.16 383.55 14.83
  A 0.98 0.97 18.9 0 0 382.54 15.32
  Q 382.26 15.84 381.90 16.02
  A 0.34 0.34 0.0 0 1 381.42 15.60
  L 384.07 8.23
  Q 384.08 11.39 386.72 12.87
  Z"
/>
<path fill="#2c323a" d="
  M 388.96 12.86
  L 387.86 12.97
  Q 387.83 12.91 387.80 12.85
  L 388.96 12.86
  Z"
/>
<path fill="#2c323a" d="
  M 445.92 28.25
  Q 442.81 26.23 440.21 22.20
  A 0.51 0.51 0.0 0 0 439.27 22.46
  Q 439.07 28.01 439.70 34.91
  Q 439.97 37.84 438.30 39.84
  A 0.76 0.76 0.0 0 0 438.23 40.71
  L 440.65 44.89
  A 1.11 1.11 0.0 0 1 439.92 46.53
  L 436.03 47.36
  A 1.93 1.93 0.0 0 1 433.83 44.77
  Q 434.29 43.61 433.73 42.04
  A 0.75 0.75 0.0 0 0 432.85 41.55
  L 432.36 41.66
  A 0.44 0.44 0.0 0 1 431.83 41.15
  Q 432.10 39.71 433.36 39.60
  A 0.87 0.86 3.7 0 0 434.12 38.94
  Q 435.12 34.81 435.81 32.31
  C 436.99 28.01 437.03 24.54 436.79 21.06
  Q 436.70 19.80 435.74 19.27
  A 0.79 0.78 19.9 0 0 434.60 19.80
  L 433.09 27.26
  A 2.62 2.55 49.5 0 0 433.04 28.01
  L 433.62 36.57
  A 0.68 0.68 0.0 0 1 432.34 36.94
  Q 431.76 35.85 430.75 35.25
  A 0.76 0.75 -76.9 0 1 430.39 34.66
  L 430.16 31.23
  A 0.44 0.44 0.0 0 0 429.39 30.96
  Q 428.12 32.39 428.44 33.72
  A 1.93 1.88 -70.8 0 0 428.86 34.62
  L 431.99 38.35
  A 0.36 0.35 41.1 0 1 432.02 38.77
  L 431.89 39.00
  A 0.60 0.59 -54.4 0 1 431.01 39.15
  Q 428.85 37.40 427.10 34.54
  A 1.80 1.78 31.5 0 1 426.84 33.48
  Q 427.05 30.35 427.98 28.94
  Q 429.41 26.75 429.67 25.66
  C 430.31 22.96 431.01 22.09 432.06 19.49
  Q 432.54 18.28 431.80 16.93
  Q 435.73 17.77 439.03 20.72
  Q 443.13 24.40 445.92 28.25
  Z"
/>
<path fill="#2c323a" d="
  M 451.77 34.82
  Q 451.38 34.67 451.27 34.30
  L 451.77 34.82
  Z"
/>
<path fill="#2c323a" d="
  M 453.89 37.11
  Q 453.03 38.01 452.81 39.28
  A 0.55 0.54 8.4 0 1 452.21 39.72
  L 452.18 39.71
  A 0.49 0.49 0.0 0 1 451.76 39.14
  Q 452.16 37.00 451.77 34.82
  L 453.89 37.11
  Z"
/>
<path fill="#2c323a" d="
  M 402.63 67.83
  A 0.35 0.35 0.0 0 1 401.95 67.92
  Q 401.33 65.66 401.73 63.67
  A 3.05 3.04 -25.3 0 1 402.05 62.78
  C 403.20 60.69 402.89 58.58 404.16 57.03
  Q 406.26 54.46 406.15 52.08
  A 0.55 0.54 -16.4 0 0 405.33 51.64
  L 402.94 53.02
  A 0.80 0.80 0.0 0 1 401.74 52.28
  L 401.86 50.21
  A 1.42 1.37 -59.3 0 0 401.68 49.45
  L 397.99 43.07
  A 0.51 0.50 -34.4 0 1 398.11 42.43
  L 406.52 35.68
  A 0.53 0.53 0.0 0 1 407.38 36.12
  L 407.30 37.58
  A 2.28 2.28 0.0 0 0 407.53 38.70
  C 408.29 40.21 409.91 42.07 410.31 43.76
  Q 411.28 47.89 407.68 49.55
  A 1.58 1.58 0.0 0 0 406.83 51.45
  Q 407.61 54.00 405.91 56.76
  Q 402.67 62.01 402.63 67.83
  Z
  M 406.9378 42.5934
  A 1.19 0.99 -53.5 0 0 405.4342 42.9611
  A 1.19 0.99 -53.5 0 0 405.5222 44.5066
  A 1.19 0.99 -53.5 0 0 407.0258 44.1389
  A 1.19 0.99 -53.5 0 0 406.9378 42.5934
  Z"
/>
<ellipse fill="#a47e50" cx="0.00" cy="0.00" transform="translate(362.56,43.01) rotate(-26.9)" rx="1.69" ry="0.52"/>
<ellipse fill="#a47e50" cx="0.00" cy="0.00" transform="translate(406.23,43.55) rotate(-53.5)" rx="1.19" ry="0.99"/>
<path fill="#2c323a" d="
  M 470.50 52.53
  Q 469.86 54.10 469.25 55.22
  Q 468.75 56.13 467.86 56.04
  A 0.29 0.28 28.8 0 1 467.71 55.53
  Q 468.75 54.74 468.92 53.72
  A 1.06 1.06 0.0 0 0 468.57 52.74
  L 464.63 49.29
  A 1.59 1.59 0.0 0 0 463.72 48.89
  L 461.04 48.63
  A 1.21 1.21 0.0 0 0 460.14 48.91
  Q 459.27 49.64 458.39 49.49
  A 0.37 0.37 0.0 0 1 458.19 48.86
  L 460.18 46.87
  A 0.74 0.74 0.0 0 1 460.96 46.69
  L 461.28 46.80
  A 0.75 0.74 20.4 0 0 462.23 46.37
  L 463.59 42.78
  L 470.50 52.53
  Z"
/>
<path fill="#2c323a" d="
  M 373.29 85.40
  L 373.04 85.24
  A 0.07 0.07 0.0 0 0 372.95 85.26
  Q 371.73 86.67 370.70 87.07
  A 0.41 0.34 5.7 0 0 370.58 87.15
  L 364.41 94.14
  A 1.56 1.55 -51.2 0 1 362.33 94.37
  L 356.88 90.45
  A 1.34 1.33 59.3 0 0 355.95 90.21
  L 355.72 90.25
  A 0.67 0.67 0.0 0 1 355.41 88.95
  L 358.95 87.77
  A 1.11 1.10 6.0 0 0 359.55 87.29
  Q 373.02 65.97 381.84 51.55
  Q 382.57 50.35 383.14 49.86
  Q 384.32 48.84 382.83 47.41
  A 0.52 0.52 0.0 0 1 383.43 46.58
  Q 386.46 48.21 389.99 51.30
  A 1.07 1.06 -53.8 0 1 390.20 52.66
  Q 383.21 63.97 381.85 66.01
  C 378.55 70.94 377.04 76.47 375.37 81.67
  A 5.25 5.07 -21.4 0 1 374.89 82.72
  Q 373.38 85.26 373.38 85.34
  A 0.06 0.06 0.0 0 1 373.29 85.40
  Z"
/>
<path fill="#2c323a" d="
  M 374.67 54.03
  Q 374.67 55.46 374.43 55.55
  A 2.05 1.83 86.9 0 1 372.04 53.16
  Q 372.14 52.65 373.64 52.35
  A 1.59 0.88 87.5 0 1 374.67 54.03
  Z"
/>
<path fill="#65859e" d="
  M 355.34 86.25
  L 363.68 71.88
  L 374.16 55.77
  A 0.47 0.47 0.0 0 1 374.59 55.55
  L 375.07 55.58
  A 0.32 0.31 17.2 0 1 375.33 56.06
  L 356.08 87.31
  A 0.33 0.32 -33.4 0 1 355.48 87.19
  L 355.34 86.25
  Z"
/>
<path fill="#2c323a" d="
  M 363.68 71.88
  L 355.34 86.25
  Q 354.89 85.98 355.26 85.16
  Q 356.26 82.92 357.55 80.05
  Q 358.64 77.62 359.41 74.91
  Q 361.77 66.50 365.14 57.87
  A 0.91 0.90 -77.6 0 1 366.04 57.29
  L 366.96 57.34
  A 0.60 0.59 -75.8 0 1 367.46 58.19
  Q 364.30 64.97 363.68 71.88
  Z"
/>
<path fill="#2c323a" d="
  M 453.15 59.42
  A 0.23 0.23 0.0 0 1 453.46 59.33
  L 457.22 61.32
  A 2.04 0.69 28.0 0 1 458.69 62.89
  L 458.68 62.91
  A 2.04 0.69 28.0 0 1 456.56 62.56
  L 452.81 60.57
  A 0.23 0.23 0.0 0 1 452.71 60.25
  L 453.15 59.42
  Z"
/>
<ellipse fill="#a47e50" cx="0.00" cy="0.00" transform="translate(351.93,63.04) rotate(-67.2)" rx="3.38" ry="0.72"/>
<ellipse fill="#a47e50" cx="0.00" cy="0.00" transform="translate(349.00,71.15) rotate(-68.6)" rx="3.44" ry="0.85"/>
<path fill="#65859e" d="
  M 410.06 79.74
  L 407.97 81.29
  A 0.57 0.56 30.8 0 0 408.23 82.30
  Q 408.54 82.35 409.11 82.83
  A 0.43 0.43 0.0 0 1 408.93 83.57
  L 405.87 84.28
  A 0.86 0.85 58.4 0 1 405.12 84.10
  Q 404.43 83.53 403.71 82.22
  Q 403.91 80.59 405.02 79.83
  Q 405.63 79.42 406.89 79.73
  A 1.64 1.55 40.3 0 0 407.80 79.68
  Q 408.33 79.49 410.28 77.83
  Q 412.23 76.16 414.10 76.26
  A 0.67 0.67 0.0 0 1 414.70 77.16
  L 414.58 77.52
  A 0.67 0.67 0.0 0 1 413.91 77.96
  Q 411.46 77.80 410.06 79.74
  Z"
/>
<path fill="#2c323a" d="
  M 410.06 79.74
  Q 409.76 81.08 410.58 81.99
  A 1.30 1.23 -70.9 0 1 410.89 82.68
  Q 411.04 83.87 412.95 84.55
  A 1.00 0.97 37.3 0 0 413.79 84.45
  Q 415.04 83.64 416.86 83.61
  A 0.52 0.51 -71.4 0 1 417.27 84.44
  Q 415.66 86.51 412.67 86.17
  Q 412.20 86.11 411.92 85.75
  Q 411.51 85.23 411.18 85.15
  Q 410.15 84.88 409.54 86.26
  Q 409.40 86.33 409.23 86.36
  A 0.22 0.22 0.0 0 0 409.14 86.75
  Q 410.13 87.57 409.06 89.08
  C 407.74 90.93 403.32 89.92 401.83 89.17
  A 1.35 1.33 -35.9 0 0 401.05 89.05
  Q 399.97 89.22 399.47 89.70
  A 0.71 0.71 0.0 0 0 400.14 90.90
  Q 402.84 90.21 405.29 91.60
  A 1.89 1.84 -33.8 0 0 406.50 91.82
  Q 410.34 91.26 411.21 87.69
  Q 412.21 87.59 412.29 88.24
  Q 412.43 89.41 412.44 89.43
  A 0.82 0.81 -6.4 0 0 413.11 89.96
  Q 415.60 90.27 417.57 88.19
  A 0.84 0.73 -42.0 0 1 418.79 88.17
  Q 419.03 88.50 418.64 88.88
  A 0.68 0.67 54.0 0 0 418.52 89.68
  L 420.65 93.74
  A 0.90 0.90 0.0 0 1 419.29 94.86
  Q 418.80 94.46 417.77 95.03
  A 0.68 0.68 0.0 0 0 417.46 95.85
  C 418.49 98.92 415.25 99.40 413.10 99.62
  A 0.59 0.59 0.0 0 0 412.97 100.76
  L 413.78 101.05
  A 0.47 0.47 0.0 0 1 413.91 101.87
  Q 413.29 102.35 413.31 102.90
  Q 413.34 103.52 413.70 103.99
  Q 415.18 105.89 415.00 107.97
  A 0.64 0.64 0.0 0 1 413.78 108.16
  Q 411.97 103.83 411.58 103.30
  Q 411.24 102.83 408.70 101.19
  A 0.79 0.78 -57.4 0 0 407.60 101.44
  Q 406.80 102.74 404.70 102.39
  A 0.65 0.64 -84.9 0 1 404.16 101.74
  Q 404.30 97.12 399.75 94.52
  A 0.32 0.32 0.0 0 0 399.28 94.87
  L 400.73 101.11
  A 1.00 0.96 54.6 0 1 400.63 101.80
  Q 400.46 102.08 400.46 102.09
  A 0.85 0.85 0.0 0 0 400.91 103.10
  Q 402.74 103.94 402.69 106.27
  A 0.41 0.41 0.0 0 1 402.03 106.59
  Q 400.00 105.11 399.37 103.49
  Q 397.21 97.88 397.31 92.54
  Q 397.33 91.42 398.90 89.87
  A 1.63 1.19 -87.5 0 0 399.10 89.62
  L 403.71 82.22
  Q 404.43 83.53 405.12 84.10
  A 0.86 0.85 58.4 0 0 405.87 84.28
  L 408.93 83.57
  A 0.43 0.43 0.0 0 0 409.11 82.83
  Q 408.54 82.35 408.23 82.30
  A 0.57 0.56 30.8 0 1 407.97 81.29
  L 410.06 79.74
  Z
  M 407.5577 87.2897
  A 0.74 0.66 -14.1 0 0 406.6792 86.8299
  A 0.74 0.66 -14.1 0 0 406.1223 87.6503
  A 0.74 0.66 -14.1 0 0 407.0008 88.1101
  A 0.74 0.66 -14.1 0 0 407.5577 87.2897
  Z
  M 411.57 96.74
  Q 414.09 98.02 416.52 97.20
  A 0.58 0.58 0.0 0 0 416.55 96.11
  Q 414.90 95.43 413.04 95.81
  L 407.35 95.07
  A 0.45 0.43 -19.7 0 1 407.17 94.99
  Q 406.65 94.58 407.21 93.86
  A 0.51 0.48 -36.9 0 0 407.29 93.39
  Q 407.26 93.27 407.05 93.07
  A 0.29 0.28 -66.4 0 0 406.57 93.26
  Q 406.47 95.18 407.29 96.43
  A 0.83 0.81 66.3 0 0 408.16 96.78
  Q 410.02 96.34 411.57 96.74
  Z
  M 413.33 93.60
  Q 414.36 93.77 414.65 93.70
  A 0.47 0.46 49.6 0 0 414.72 92.82
  Q 413.95 92.49 413.22 93.28
  A 0.19 0.19 0.0 0 0 413.33 93.60
  Z"
/>
<path fill="#65859e" d="
  M 409.54 86.26
  Q 412.25 86.69 411.21 87.69
  Q 410.34 91.26 406.50 91.82
  A 1.89 1.84 -33.8 0 1 405.29 91.60
  Q 402.84 90.21 400.14 90.90
  A 0.71 0.71 0.0 0 1 399.47 89.70
  Q 399.97 89.22 401.05 89.05
  A 1.35 1.33 -35.9 0 1 401.83 89.17
  C 403.32 89.92 407.74 90.93 409.06 89.08
  Q 410.13 87.57 409.14 86.75
  A 0.22 0.22 0.0 0 1 409.23 86.36
  Q 409.40 86.33 409.54 86.26
  Z"
/>
<ellipse fill="#65859e" cx="0.00" cy="0.00" transform="translate(406.84,87.47) rotate(-14.1)" rx="0.74" ry="0.66"/>
<path fill="#65859e" d="
  M 413.04 95.81
  Q 411.27 96.15 411.57 96.74
  Q 410.02 96.34 408.16 96.78
  A 0.83 0.81 66.3 0 1 407.29 96.43
  Q 406.47 95.18 406.57 93.26
  A 0.29 0.28 -66.4 0 1 407.05 93.07
  Q 407.26 93.27 407.29 93.39
  A 0.51 0.48 -36.9 0 1 407.21 93.86
  Q 406.65 94.58 407.17 94.99
  A 0.45 0.43 -19.7 0 0 407.35 95.07
  L 413.04 95.81
  Z"
/>
<path fill="#65859e" d="
  M 413.33 93.60
  A 0.19 0.19 0.0 0 1 413.22 93.28
  Q 413.95 92.49 414.72 92.82
  A 0.47 0.46 49.6 0 1 414.65 93.70
  Q 414.36 93.77 413.33 93.60
  Z"
/>
<path fill="#a47e50" d="
  M 411.57 96.74
  Q 411.27 96.15 413.04 95.81
  Q 414.90 95.43 416.55 96.11
  A 0.58 0.58 0.0 0 1 416.52 97.20
  Q 414.09 98.02 411.57 96.74
  Z"
/>
<path fill="#2c323a" d="
  M 383.53 120.01
  Q 381.96 119.64 379.42 120.09
  A 0.86 0.86 0.0 0 1 378.42 119.36
  L 376.78 107.35
  A 0.49 0.49 0.0 0 1 377.36 106.81
  Q 380.26 107.43 384.17 106.35
  A 0.53 0.52 77.9 0 1 384.83 106.78
  Q 385.94 113.94 384.90 120.44
  A 0.37 0.37 0.0 0 1 384.27 120.64
  L 383.78 120.15
  A 0.64 0.61 72.9 0 0 383.53 120.01
  Z
  M 383.4819 113.4810
  A 1.21 0.65 -43.9 0 0 382.1593 113.8516
  A 1.21 0.65 -43.9 0 0 381.7381 115.1590
  A 1.21 0.65 -43.9 0 0 383.0607 114.7884
  A 1.21 0.65 -43.9 0 0 383.4819 113.4810
  Z"
/>
<path fill="#2c323a" d="
  M 499.11 119.22
  Q 499.03 118.77 499.23 118.52
  A 0.48 0.47 34.8 0 1 499.85 118.41
  Q 500.01 118.51 500.07 118.55
  A 0.50 0.50 0.0 0 0 500.76 118.42
  C 501.40 117.48 501.09 116.08 499.91 115.76
  Q 499.48 115.64 499.26 115.18
  Q 499.08 114.81 499.12 114.33
  Q 499.30 111.89 498.54 109.87
  A 1.07 1.07 0.0 0 1 499.40 108.42
  L 499.79 108.36
  A 0.98 0.98 0.0 0 1 500.89 109.20
  L 502.20 118.76
  A 0.72 0.72 0.0 0 1 501.78 119.51
  Q 501.07 119.82 499.38 119.50
  A 0.33 0.32 1.2 0 1 499.11 119.22
  Z"
/>
<ellipse fill="#a47e50" cx="0.00" cy="0.00" transform="translate(382.61,114.32) rotate(-43.9)" rx="1.21" ry="0.65"/>
<path fill="#65859e" d="
  M 472.76 132.60
  Q 473.71 132.80 474.48 132.20
  A 0.31 0.30 51.2 0 1 474.90 132.25
  L 475.07 132.46
  A 0.46 0.46 0.0 0 1 474.98 133.12
  Q 473.16 134.48 470.77 134.62
  A 0.63 0.63 0.0 0 1 470.11 133.96
  L 470.15 133.30
  A 0.70 0.70 0.0 0 0 469.44 132.56
  Q 469.25 132.56 469.06 132.62
  Q 468.60 131.77 468.76 130.68
  A 0.16 0.16 0.0 0 1 469.05 130.61
  Q 469.18 130.78 469.32 130.87
  Q 469.47 130.96 469.67 130.85
  Q 470.69 130.29 469.99 128.83
  A 0.69 0.69 0.0 0 1 470.16 128.02
  Q 471.17 127.15 471.43 127.17
  A 0.29 0.29 0.0 0 1 471.62 127.67
  C 470.55 128.75 471.19 130.30 472.50 131.24
  Q 473.09 131.66 472.76 132.60
  Z"
/>
<path fill="#2c323a" d="
  M 478.68 135.51
  Q 478.17 135.02 477.67 136.17
  A 0.20 0.20 0.0 0 1 477.35 136.23
  L 476.92 135.80
  A 0.42 0.42 0.0 0 0 476.22 135.96
  L 475.95 136.70
  A 0.96 0.95 -49.7 0 0 476.01 137.47
  Q 477.93 141.23 481.39 138.99
  A 0.49 0.44 -40.6 0 0 481.48 138.26
  Q 481.25 138.05 480.99 138.14
  L 481.18 137.74
  A 0.36 0.36 0.0 0 1 481.86 137.81
  Q 482.96 142.17 480.52 145.44
  Q 478.63 144.45 476.64 145.84
  A 0.44 0.43 35.2 0 0 476.78 146.61
  Q 478.00 146.94 479.27 146.45
  Q 480.35 146.26 480.91 146.82
  Q 481.30 147.20 481.04 147.70
  Q 480.81 148.16 480.36 148.17
  A 1.72 1.39 -8.0 0 0 478.66 150.00
  Q 478.90 150.76 478.88 151.39
  A 1.32 1.31 20.9 0 1 476.72 152.35
  L 471.82 148.24
  A 0.75 0.73 66.8 0 0 471.41 148.07
  C 470.12 147.97 470.11 147.18 469.24 146.63
  Q 466.97 145.20 464.04 142.91
  A 1.13 1.13 0.0 0 1 463.76 141.44
  L 469.06 132.62
  Q 469.25 132.56 469.44 132.56
  A 0.70 0.70 0.0 0 1 470.15 133.30
  L 470.11 133.96
  A 0.63 0.63 0.0 0 0 470.77 134.62
  Q 473.16 134.48 474.98 133.12
  A 0.46 0.46 0.0 0 0 475.07 132.46
  L 474.90 132.25
  A 0.31 0.30 51.2 0 0 474.48 132.20
  Q 473.71 132.80 472.76 132.60
  Q 474.73 127.95 478.29 127.41
  A 0.43 0.42 26.3 0 1 478.56 128.20
  Q 477.15 128.96 475.93 130.22
  A 0.95 0.90 23.6 0 0 476.58 131.76
  Q 476.81 131.78 476.82 131.79
  A 0.83 0.81 -66.2 0 1 477.20 132.80
  Q 477.06 133.19 476.84 133.45
  A 0.70 0.68 58.4 0 0 476.70 134.07
  Q 476.89 134.77 477.41 134.90
  A 0.49 0.48 21.7 0 0 477.96 134.67
  Q 478.06 134.49 478.06 134.46
  A 0.06 0.06 0.0 0 1 478.16 134.44
  Q 478.59 134.99 478.68 135.51
  Z
  M 470.90 137.58
  Q 470.98 137.58 472.20 137.82
  A 0.38 0.38 0.0 0 0 472.52 137.16
  Q 472.04 136.74 471.26 136.60
  A 1.76 1.74 37.8 0 0 470.26 136.72
  Q 467.41 137.99 464.96 140.48
  A 0.61 0.61 0.0 0 0 465.64 141.47
  Q 467.47 140.67 468.35 139.06
  Q 469.11 137.66 470.90 137.58
  Z
  M 473.3084 139.9358
  A 2.00 0.79 -10.2 0 0 471.2001 139.5125
  A 2.00 0.79 -10.2 0 0 469.3716 140.6442
  A 2.00 0.79 -10.2 0 0 471.4799 141.0675
  A 2.00 0.79 -10.2 0 0 473.3084 139.9358
  Z
  M 478.15 142.48
  A 0.68 0.48 31.9 0 0 478.59 143.53
  Q 479.63 143.72 479.72 143.56
  Q 480.24 142.74 479.60 142.50
  Q 478.85 142.23 478.15 142.48
  Z
  M 474.92 144.34
  A 0.28 0.28 0.0 0 0 474.44 144.12
  Q 473.54 145.04 472.74 145.23
  A 0.77 0.76 51.1 0 0 472.59 146.66
  Q 473.71 147.20 474.55 146.01
  A 1.76 1.75 -25.8 0 0 474.87 145.10
  L 474.92 144.34
  Z"
/>
<ellipse fill="#65859e" cx="0.00" cy="0.00" transform="translate(484.06,135.75) rotate(-52.4)" rx="0.97" ry="0.66"/>
<path fill="#65859e" d="
  M 478.68 135.51
  L 480.04 137.86
  A 0.62 0.61 -14.9 0 0 480.60 138.18
  Q 480.78 138.17 480.99 138.14
  Q 481.25 138.05 481.48 138.26
  A 0.49 0.44 -40.6 0 1 481.39 138.99
  Q 477.93 141.23 476.01 137.47
  A 0.96 0.95 -49.7 0 1 475.95 136.70
  L 476.22 135.96
  A 0.42 0.42 0.0 0 1 476.92 135.80
  L 477.35 136.23
  A 0.20 0.20 0.0 0 0 477.67 136.17
  Q 478.17 135.02 478.68 135.51
  Z"
/>
<path fill="#65859e" d="
  M 470.90 137.58
  Q 469.11 137.66 468.35 139.06
  Q 467.47 140.67 465.64 141.47
  A 0.61 0.61 0.0 0 1 464.96 140.48
  Q 467.41 137.99 470.26 136.72
  A 1.76 1.74 37.8 0 1 471.26 136.60
  Q 472.04 136.74 472.52 137.16
  A 0.38 0.38 0.0 0 1 472.20 137.82
  Q 470.98 137.58 470.90 137.58
  Z"
/>
<ellipse fill="#65859e" cx="0.00" cy="0.00" transform="translate(471.34,140.29) rotate(-10.2)" rx="2.00" ry="0.79"/>
<path fill="#65859e" d="
  M 478.15 142.48
  Q 478.85 142.23 479.60 142.50
  Q 480.24 142.74 479.72 143.56
  Q 479.63 143.72 478.59 143.53
  A 0.68 0.48 31.9 0 1 478.15 142.48
  Z"
/>
<ellipse fill="#2c323a" cx="0.00" cy="0.00" transform="translate(408.62,144.93) rotate(-98.5)" rx="1.76" ry="1.38"/>
<path fill="#65859e" d="
  M 474.92 144.34
  L 474.87 145.10
  A 1.76 1.75 -25.8 0 1 474.55 146.01
  Q 473.71 147.20 472.59 146.66
  A 0.77 0.76 51.1 0 1 472.74 145.23
  Q 473.54 145.04 474.44 144.12
  A 0.28 0.28 0.0 0 1 474.92 144.34
  Z"
/>
<path fill="#65859e" d="
  M 480.52 145.44
  Q 480.20 146.32 479.27 146.45
  Q 478.00 146.94 476.78 146.61
  A 0.44 0.43 35.2 0 1 476.64 145.84
  Q 478.63 144.45 480.52 145.44
  Z"
/>
<path fill="#2c323a" d="
  M 367.30 171.64
  L 365.62 172.16
  A 1.76 1.74 9.4 0 0 364.73 172.79
  Q 362.02 176.49 357.86 179.35
  Q 357.45 179.62 357.42 179.95
  A 0.38 0.38 0.0 0 0 357.99 180.32
  Q 361.12 178.40 363.72 175.43
  A 5.83 5.42 2.0 0 1 364.92 174.39
  L 367.35 172.83
  Q 368.87 174.62 366.71 174.84
  L 359.85 180.15
  A 0.63 0.62 -71.7 0 0 360.40 181.25
  Q 362.47 180.66 363.77 178.79
  Q 364.82 177.28 368.04 176.18
  Q 368.62 179.44 365.71 180.91
  Q 362.73 182.42 357.81 182.14
  A 0.65 0.63 -61.4 0 0 357.36 182.28
  L 352.62 186.08
  A 0.65 0.65 0.0 0 0 353.19 187.22
  Q 356.11 186.48 358.22 183.72
  A 0.94 0.94 0.0 0 1 359.23 183.39
  Q 363.01 184.50 366.38 182.03
  A 0.59 0.58 -37.5 0 1 367.19 182.13
  L 367.38 182.37
  A 0.33 0.32 -44.3 0 1 367.37 182.79
  C 366.04 184.30 363.14 184.48 360.17 185.10
  A 1.91 1.89 -73.9 0 0 359.18 185.65
  Q 358.44 186.41 355.10 189.40
  Q 354.58 189.86 354.06 190.17
  Q 353.12 190.72 353.15 191.57
  A 0.83 0.83 0.0 0 1 352.79 192.29
  Q 351.76 193.00 351.23 194.29
  A 0.52 0.49 -89.2 0 1 350.97 194.56
  L 347.05 196.26
  A 0.81 0.81 0.0 0 1 345.92 195.56
  L 345.83 193.85
  Q 347.85 191.77 350.52 190.82
  A 0.67 0.67 0.0 0 0 350.95 190.07
  L 350.94 190.04
  A 0.57 0.56 78.5 0 0 350.27 189.59
  Q 347.26 190.19 346.18 191.23
  Q 343.23 194.03 339.92 196.54
  Q 339.14 195.94 340.86 194.13
  Q 341.32 193.74 341.54 193.21
  L 343.23 192.42
  A 0.94 0.94 0.0 0 0 343.77 191.62
  L 344.10 185.89
  A 0.91 0.91 0.0 0 1 345.35 185.10
  Q 347.07 185.79 349.09 185.35
  A 0.86 0.85 -26.4 0 1 349.92 185.62
  Q 350.62 186.43 351.83 185.33
  Q 352.82 184.42 356.45 181.98
  A 0.52 0.52 0.0 0 0 356.56 181.21
  Q 356.21 180.81 355.45 180.43
  A 0.90 0.89 11.5 0 1 354.95 179.68
  Q 354.91 179.04 354.41 178.83
  Q 353.64 178.50 351.73 178.15
  A 1.91 1.87 -19.1 0 1 350.80 177.71
  Q 344.92 172.75 341.87 166.21
  Q 338.87 159.80 341.97 153.77
  C 344.31 149.21 350.98 150.35 354.43 152.41
  Q 364.55 158.46 368.09 168.87
  Q 368.68 170.62 367.30 171.64
  Z"
/>
<path fill="#2c323a" d="
  M 295.37 165.87
  L 297.55 164.13
  A 0.01 0.01 0.0 0 1 297.56 164.15
  Q 296.17 166.49 293.54 168.01
  A 1.42 1.40 79.2 0 0 292.86 169.02
  Q 292.73 169.83 293.72 171.06
  A 0.57 0.57 0.0 0 1 293.40 171.97
  Q 288.14 173.20 291.90 178.10
  A 0.70 0.70 0.0 0 1 291.46 179.22
  L 285.25 180.23
  A 0.52 0.50 -72.4 0 0 284.99 180.37
  Q 283.88 181.49 278.66 183.28
  A 1.28 1.27 61.5 0 0 278.07 185.27
  C 282.71 191.20 288.48 201.51 284.51 208.81
  Q 283.79 210.12 282.18 210.33
  Q 272.82 211.58 266.26 204.72
  Q 265.12 203.53 264.92 201.19
  A 0.33 0.32 83.4 0 0 264.55 200.89
  L 263.33 201.06
  A 1.14 1.12 67.7 0 1 262.27 200.61
  L 259.07 196.26
  A 1.22 1.21 56.6 0 0 257.48 195.93
  L 253.60 198.17
  A 0.83 0.82 71.2 0 1 252.37 197.56
  L 252.07 195.35
  A 1.75 1.74 81.8 0 1 253.53 193.39
  Q 257.50 192.78 259.48 188.32
  Q 260.14 186.83 259.65 185.68
  Q 258.85 183.84 257.45 184.11
  A 0.48 0.48 0.0 0 1 256.88 183.61
  L 257.00 181.58
  A 0.95 0.95 0.0 0 1 257.41 180.86
  Q 258.52 180.11 259.82 180.70
  A 0.50 0.49 16.3 0 0 260.52 180.32
  Q 260.84 178.22 262.71 178.36
  A 1.30 1.27 -62.0 0 0 263.59 178.08
  L 268.89 173.83
  A 0.50 0.49 -48.0 0 0 268.85 173.03
  Q 268.16 172.58 268.03 172.16
  A 0.36 0.35 89.5 0 1 268.47 171.71
  Q 272.79 173.02 273.94 168.84
  A 0.66 0.65 -13.2 0 0 272.87 168.18
  Q 271.67 169.24 269.98 169.14
  A 0.70 0.70 0.0 0 1 269.88 167.76
  C 274.24 166.84 275.84 163.41 278.74 159.63
  A 0.78 0.78 0.0 0 1 279.54 159.35
  Q 282.35 160.00 284.51 158.00
  Q 285.26 157.30 285.98 158.19
  A 1.19 1.18 72.4 0 0 286.80 158.62
  Q 287.45 158.67 288.28 158.17
  A 1.91 1.82 27.9 0 1 289.20 157.91
  Q 291.20 157.88 297.25 157.49
  Q 298.74 157.40 299.41 157.74
  A 1.69 1.39 -53.0 0 1 299.52 160.22
  Q 296.83 163.00 295.18 165.71
  A 0.13 0.13 0.0 0 0 295.37 165.87
  Z"
/>
<path fill="#2c323a" d="
  M 405.23 157.37
  A 0.57 0.56 -26.2 0 1 406.26 157.72
  L 405.75 166.64
  A 0.34 0.34 0.0 0 1 405.11 166.77
  Q 402.50 161.31 405.23 157.37
  Z"
/>
<ellipse fill="#2c323a" cx="0.00" cy="0.00" transform="translate(319.91,177.54) rotate(-128.8)" rx="22.59" ry="12.65"/>
<path fill="#65859e" d="
  M 367.30 171.64
  Q 367.67 172.09 367.35 172.83
  L 364.92 174.39
  A 5.83 5.42 2.0 0 0 363.72 175.43
  Q 361.12 178.40 357.99 180.32
  A 0.38 0.38 0.0 0 1 357.42 179.95
  Q 357.45 179.62 357.86 179.35
  Q 362.02 176.49 364.73 172.79
  A 1.76 1.74 9.4 0 1 365.62 172.16
  L 367.30 171.64
  Z"
/>
<path fill="#65859e" d="
  M 366.71 174.84
  Q 368.71 174.79 368.65 175.50
  Q 368.61 176.01 368.04 176.18
  Q 364.82 177.28 363.77 178.79
  Q 362.47 180.66 360.40 181.25
  A 0.63 0.62 -71.7 0 1 359.85 180.15
  L 366.71 174.84
  Z"
/>
<path fill="#2c323a" d="
  M 489.82 175.87
  L 488.08 180.22
  A 1.33 1.33 0.0 0 1 486.09 180.82
  Q 484.90 180.00 483.50 179.75
  Q 484.89 178.16 486.39 176.64
  Q 487.55 175.48 489.82 175.87
  Z"
/>
<path fill="#2c323a" d="
  M 429.62 184.93
  L 427.92 189.75
  A 1.49 1.49 0.0 0 1 426.02 190.65
  L 423.16 189.64
  A 0.44 0.44 0.0 0 1 422.90 189.38
  C 422.24 187.60 419.42 187.50 417.95 187.82
  A 0.89 0.88 61.5 0 1 417.14 187.58
  L 416.22 186.66
  A 0.66 0.66 0.0 0 1 416.90 185.57
  L 418.17 186.01
  A 0.55 0.54 -69.8 0 0 418.87 185.68
  L 421.14 179.23
  A 0.96 0.96 0.0 0 1 422.55 178.73
  L 428.79 182.58
  A 1.99 1.99 0.0 0 1 429.62 184.93
  Z
  M 426.5072 184.8904
  A 1.40 0.98 -38.4 0 0 424.8013 184.9920
  A 1.40 0.98 -38.4 0 0 424.3128 186.6296
  A 1.40 0.98 -38.4 0 0 426.0187 186.5280
  A 1.40 0.98 -38.4 0 0 426.5072 184.8904
  Z"
/>
<ellipse fill="#a47e50" cx="0.00" cy="0.00" transform="translate(425.41,185.76) rotate(-38.4)" rx="1.40" ry="0.98"/>
<path fill="#2c323a" d="
  M 242.69 189.13
  A 0.82 0.82 0.0 0 1 243.43 190.20
  Q 242.92 191.78 241.55 192.36
  C 240.08 192.97 240.15 193.25 239.26 194.29
  A 2.19 2.17 7.3 0 1 238.48 194.89
  Q 236.90 195.64 234.54 197.73
  Q 234.06 198.15 233.92 198.68
  Q 233.73 199.37 233.00 199.30
  Q 231.48 199.16 230.15 200.65
  A 0.44 0.44 0.0 0 1 229.40 200.49
  Q 229.12 199.62 227.52 195.77
  Q 227.01 194.56 227.08 191.04
  A 3.49 3.47 -36.1 0 1 227.23 190.10
  C 229.59 182.53 237.18 184.61 241.66 188.84
  A 1.03 1.02 -21.8 0 0 242.30 189.11
  L 242.69 189.13
  Z"
/>
<path fill="#65859e" d="
  M 345.83 193.85
  L 331.91 205.02
  A 0.25 0.23 -66.4 0 1 331.80 205.07
  Q 331.39 205.12 331.28 204.50
  Q 332.14 202.57 334.89 200.56
  L 339.92 196.54
  Q 343.23 194.03 346.18 191.23
  Q 347.26 190.19 350.27 189.59
  A 0.57 0.56 78.5 0 1 350.94 190.04
  L 350.95 190.07
  A 0.67 0.67 0.0 0 1 350.52 190.82
  Q 347.85 191.77 345.83 193.85
  Z"
/>
<path fill="#65859e" d="
  M 341.54 193.21
  Q 341.32 193.74 340.86 194.13
  Q 340.49 193.94 340.54 193.52
  Q 340.63 192.83 341.54 193.21
  Z"
/>
<path fill="#2c323a" d="
  M 196.38 225.45
  L 196.34 224.89
  A 1.16 1.13 21.4 0 0 196.02 224.18
  Q 189.75 217.93 187.36 210.98
  C 186.39 208.17 185.57 203.96 187.56 201.61
  C 190.60 198.03 195.55 200.78 198.77 202.97
  Q 205.57 207.61 208.84 215.18
  A 2.01 1.99 60.1 0 1 208.20 217.58
  L 197.08 225.78
  A 0.44 0.44 0.0 0 1 196.38 225.45
  Z"
/>
<path fill="#2c323a" d="
  M 334.89 200.56
  Q 332.14 202.57 331.28 204.50
  Q 330.87 205.28 331.17 205.86
  A 0.27 0.19 9.2 0 0 331.27 205.96
  L 336.35 209.28
  A 0.36 0.35 -38.0 0 1 336.27 209.91
  Q 335.98 210.02 335.20 209.86
  A 1.31 1.31 0.0 0 0 334.05 210.19
  Q 331.65 212.42 329.06 212.02
  A 1.66 1.66 0.0 0 1 328.27 209.09
  L 329.68 207.95
  A 1.03 1.03 0.0 0 0 328.98 206.12
  Q 327.97 206.18 325.52 206.65
  Q 325.18 206.71 324.97 206.14
  Q 327.27 206.05 329.52 204.17
  Q 331.65 199.81 334.89 200.56
  Z"
/>
<path fill="#2c323a" d="
  M 468.24 205.64
  A 0.71 0.71 0.0 0 1 467.40 205.09
  L 467.36 204.89
  A 4.11 2.29 78.5 0 1 468.79 200.41
  A 4.11 2.29 78.5 0 1 471.85 203.98
  L 471.89 204.18
  A 0.71 0.71 0.0 0 1 471.34 205.01
  L 468.24 205.64
  Z"
/>
<path fill="#2c323a" d="
  M 237.48 212.90
  L 237.79 212.27
  A 2.36 2.34 -5.7 0 1 238.41 211.52
  L 250.90 201.49
  A 1.59 1.58 -34.3 0 1 253.25 201.93
  Q 257.55 209.26 255.26 217.22
  A 1.14 1.13 -3.3 0 1 254.60 217.96
  Q 250.05 219.87 245.90 218.00
  C 243.36 216.85 241.07 217.32 238.33 216.09
  A 4.40 4.34 59.4 0 0 237.04 215.75
  L 234.30 215.48
  A 0.44 0.43 -65.7 0 1 234.03 214.75
  Q 235.10 213.59 236.65 213.46
  A 1.03 1.03 0.0 0 0 237.48 212.90
  Z"
/>
<path fill="#65859e" d="
  M 329.52 204.17
  Q 327.27 206.05 324.97 206.14
  L 323.58 206.28
  A 0.48 0.48 0.0 0 1 323.32 205.38
  Q 326.54 203.77 329.52 204.17
  Z"
/>
<path fill="#2c323a" d="
  M 482.70 206.96
  Q 482.28 207.21 481.54 207.17
  L 482.70 206.96
  Z"
/>
<path fill="#2c323a" d="
  M 121.72 207.51
  Q 120.88 208.17 119.55 207.84
  L 121.72 207.51
  Z"
/>
<path fill="#2c323a" d="
  M 177.99 234.81
  L 173.04 230.75
  A 1.20 1.02 86.5 0 1 172.81 230.51
  C 170.35 226.98 168.47 225.11 167.03 221.78
  C 165.50 218.25 164.17 215.32 164.56 211.86
  C 164.97 208.33 168.14 207.01 171.22 208.31
  C 180.74 212.31 187.04 221.56 189.08 231.44
  A 0.65 0.65 0.0 0 1 188.83 232.10
  L 182.96 236.43
  A 1.02 1.02 0.0 0 1 181.84 236.49
  Q 179.85 235.33 178.80 235.17
  A 1.74 1.69 68.1 0 1 177.99 234.81
  Z"
/>
<path fill="#2c323a" d="
  M 468.98 210.40
  Q 468.43 210.68 467.66 210.67
  Q 466.68 210.66 466.35 210.91
  C 465.02 211.89 463.96 211.08 462.40 211.94
  C 461.20 212.60 459.73 211.98 458.56 212.82
  C 457.71 213.42 456.78 212.97 455.81 213.32
  Q 453.53 214.15 448.92 214.94
  Q 447.80 215.13 446.89 215.59
  C 445.97 216.06 444.96 215.42 444.03 216.04
  C 442.61 216.99 441.00 216.15 439.60 217.16
  Q 439.04 217.57 437.82 217.48
  Q 437.81 217.48 437.79 217.48
  L 417.06 222.08
  A 0.85 0.59 -55.3 0 0 416.90 222.14
  C 415.45 222.87 414.10 222.17 412.89 223.04
  C 411.84 223.79 410.19 223.01 409.04 223.85
  C 408.22 224.45 407.25 224.08 406.30 224.35
  Q 403.32 225.19 398.57 226.07
  C 397.31 226.30 396.35 227.02 394.77 226.86
  A 1.72 1.72 0.0 0 0 393.65 227.14
  C 392.25 228.09 390.59 227.27 389.47 228.07
  C 388.20 229.00 386.93 228.09 385.45 229.01
  C 384.37 229.68 382.75 229.03 381.55 229.82
  C 380.65 230.41 379.77 230.02 378.81 230.30
  Q 377.14 230.79 372.86 231.77
  Q 372.17 231.92 371.13 231.97
  C 370.03 232.03 369.40 232.93 368.25 232.81
  Q 366.81 232.66 365.91 233.22
  C 364.50 234.08 363.04 233.15 361.78 234.19
  A 1.36 1.33 28.0 0 1 360.79 234.48
  C 360.07 234.40 358.91 234.34 358.12 234.86
  C 356.83 235.73 355.26 235.11 353.74 235.96
  A 1.63 1.59 -56.6 0 1 352.78 236.17
  Q 351.23 236.04 350.18 236.61
  C 348.84 237.34 347.41 236.78 346.22 237.49
  C 344.89 238.27 343.75 237.58 342.28 238.36
  C 341.13 238.98 340.64 238.71 339.53 238.80
  A 2.48 2.44 26.3 0 0 338.44 239.16
  C 337.12 239.99 335.81 239.32 334.50 240.03
  C 333.16 240.75 331.84 240.10 330.35 240.95
  C 329.19 241.60 327.68 240.94 326.46 241.77
  Q 325.86 242.18 324.52 242.16
  C 323.15 242.15 322.37 243.04 321.20 243.01
  Q 319.48 242.97 318.61 243.50
  C 317.39 244.24 315.99 243.51 314.94 244.21
  C 313.45 245.20 312.10 244.24 310.79 245.19
  C 309.66 246.01 307.96 245.28 306.55 246.17
  A 1.51 1.49 31.7 0 1 305.54 246.40
  Q 305.02 246.33 304.51 246.45
  Q 296.10 248.40 288.35 249.98
  C 286.98 250.26 286.17 250.89 284.54 250.71
  A 1.60 1.54 -58.0 0 0 283.50 250.97
  Q 282.33 251.74 280.46 251.57
  A 1.46 1.45 28.5 0 0 279.44 251.87
  C 278.25 252.79 276.32 251.93 275.07 252.88
  C 274.41 253.38 273.26 253.13 272.30 253.36
  Q 265.29 255.06 259.36 256.32
  Q 258.41 256.53 258.39 256.54
  C 257.02 256.94 255.90 256.40 254.69 257.18
  A 1.65 1.64 28.4 0 1 253.74 257.46
  Q 251.88 257.43 251.05 257.79
  C 249.32 258.55 247.33 257.98 246.21 258.85
  A 1.48 1.45 26.6 0 1 245.25 259.16
  Q 243.37 259.06 242.20 259.51
  Q 240.30 260.23 239.22 260.12
  C 237.40 259.94 236.22 261.02 234.41 260.92
  Q 232.72 260.82 231.43 261.33
  C 229.37 262.14 227.34 261.43 225.49 262.18
  C 223.22 263.09 220.83 262.28 218.61 263.17
  A 3.78 3.73 34.4 0 1 217.11 263.44
  Q 213.95 263.36 212.83 263.74
  C 209.87 264.72 206.97 263.88 204.16 264.96
  A 3.33 3.28 -53.3 0 1 202.80 265.17
  Q 199.08 264.93 195.59 265.86
  A 5.21 4.98 35.7 0 1 194.32 266.04
  L 185.06 266.12
  L 218.96 258.07
  A 0.33 0.33 0.0 0 1 219.35 258.51
  Q 219.14 259.05 219.52 259.30
  A 1.35 1.28 29.9 0 0 221.43 258.84
  Q 222.25 257.18 225.67 250.13
  A 0.84 0.83 -47.5 0 0 225.64 249.35
  L 225.46 249.04
  A 0.32 0.32 0.0 0 1 225.86 248.58
  Q 226.91 249.01 227.27 249.17
  A 0.69 0.69 0.0 0 1 227.56 250.15
  L 223.99 255.94
  A 0.57 0.57 0.0 0 0 224.61 256.79
  L 253.95 249.98
  A 0.07 0.07 0.0 0 1 254.04 250.04
  Q 254.10 250.33 255.24 250.43
  Q 257.04 250.59 257.26 249.33
  A 0.91 0.90 2.1 0 1 258.06 248.59
  L 265.65 247.85
  A 0.15 0.14 2.4 0 0 265.78 247.74
  L 265.78 247.73
  A 0.17 0.17 0.0 0 0 265.56 247.60
  Q 263.41 248.26 261.64 248.05
  A 0.93 0.93 0.0 0 1 260.85 247.34
  L 260.24 244.72
  A 0.07 0.06 -71.4 0 1 260.35 244.66
  Q 260.98 245.55 261.01 246.60
  A 1.33 1.33 0.0 0 0 262.64 247.86
  L 345.95 228.51
  A 0.50 0.49 -27.4 0 0 346.21 227.70
  L 339.91 220.59
  A 0.66 0.65 22.0 0 1 339.75 220.22
  Q 339.63 218.77 340.91 219.53
  A 0.83 0.83 0.0 0 0 342.00 219.30
  Q 342.70 218.32 343.57 217.92
  A 0.71 0.71 0.0 0 0 343.78 216.78
  L 343.38 216.39
  A 0.90 0.88 47.5 0 0 342.18 216.33
  Q 340.92 217.37 339.73 215.31
  A 0.88 0.88 0.0 0 0 338.95 214.87
  C 338.16 214.88 337.52 214.27 336.76 214.33
  Q 336.40 214.35 336.38 214.30
  A 0.17 0.16 78.0 0 1 336.54 214.05
  Q 340.19 214.48 343.09 212.86
  A 2.04 1.91 27.6 0 1 343.96 212.62
  Q 344.39 212.61 344.94 212.45
  A 0.15 0.11 14.1 0 1 345.11 212.65
  Q 345.02 212.70 344.83 212.73
  A 0.25 0.24 88.6 0 0 344.63 212.95
  Q 344.54 214.18 345.29 215.77
  A 0.59 0.59 0.0 0 0 346.33 215.83
  L 347.24 214.35
  A 0.51 0.51 0.0 0 1 348.18 214.60
  Q 348.23 216.14 349.22 216.30
  A 0.63 0.60 75.5 0 1 349.61 216.54
  L 352.74 220.79
  A 0.74 0.74 0.0 0 1 352.63 221.80
  Q 352.26 222.11 351.88 222.14
  Q 351.37 222.17 351.24 222.56
  Q 350.86 223.66 351.49 224.38
  A 0.85 0.82 -22.1 0 0 352.18 224.66
  L 353.34 224.58
  A 1.16 1.12 -25.2 0 1 354.17 224.86
  Q 356.27 226.72 358.93 225.27
  A 0.73 0.50 -55.6 0 1 359.11 225.20
  Q 367.34 223.55 371.28 222.49
  C 372.78 222.09 374.56 222.49 376.07 221.45
  A 1.76 1.75 25.2 0 1 376.91 221.15
  L 379.52 220.89
  A 1.46 1.43 -70.8 0 0 380.45 220.43
  Q 380.47 220.41 380.54 220.30
  A 0.65 0.62 -70.6 0 1 381.12 220.01
  Q 384.32 220.19 386.68 219.02
  A 0.78 0.69 22.0 0 1 386.85 218.96
  L 423.54 210.25
  A 1.62 1.57 -46.0 0 1 424.10 210.23
  Q 429.25 210.96 430.88 210.84
  Q 449.07 209.50 461.73 209.23
  Q 465.29 209.16 468.98 210.40
  Z
  M 348.52 220.77
  L 344.95 217.81
  A 0.17 0.17 0.0 0 0 344.71 217.83
  L 344.67 217.89
  A 1.79 1.32 39.6 0 0 345.20 220.04
  L 346.28 220.94
  A 1.79 1.32 39.6 0 0 348.50 221.06
  L 348.55 221.01
  A 0.17 0.17 0.0 0 0 348.52 220.77
  Z"
/>
<path fill="#2c323a" d="
  M 263.64 219.41
  Q 263.86 219.27 264.39 218.42
  A 1.37 1.33 -82.3 0 1 265.15 217.82
  Q 266.57 217.36 268.38 218.04
  A 0.75 0.74 -61.6 0 0 269.26 217.77
  Q 269.80 217.02 269.57 216.11
  A 0.62 0.61 9.8 0 1 270.51 215.45
  Q 272.45 216.75 271.79 217.90
  A 1.07 1.06 13.2 0 1 270.89 218.45
  Q 268.21 218.56 267.30 220.03
  A 0.70 0.69 24.1 0 1 266.50 220.33
  Q 265.86 220.13 264.88 220.80
  Q 264.34 221.17 263.31 221.16
  Q 258.22 221.14 256.61 222.15
  Q 252.19 224.92 247.24 227.65
  A 1.36 1.35 -26.1 0 1 245.35 227.01
  L 245.20 226.64
  A 0.73 0.73 0.0 0 1 245.58 225.68
  L 252.84 222.53
  A 1.09 0.97 -74.7 0 0 253.15 222.33
  Q 254.59 220.98 256.59 220.09
  Q 257.03 219.89 257.07 219.49
  Q 257.11 219.14 256.51 218.94
  A 0.29 0.29 0.0 0 1 256.37 218.47
  Q 256.47 218.34 256.66 218.26
  Q 256.83 218.19 256.92 218.26
  Q 259.78 220.70 261.87 217.90
  A 0.87 0.87 0.0 0 1 263.39 218.14
  Q 263.46 218.35 263.24 219.10
  A 0.27 0.27 0.0 0 0 263.64 219.41
  Z"
/>
<path fill="#65859e" d="
  M 231.15 218.49
  L 230.71 218.45
  Q 230.54 217.44 230.99 216.54
  A 0.46 0.45 -38.2 0 1 231.84 216.64
  Q 232.04 217.56 231.15 218.49
  Z"
/>
<path fill="#a47e50" d="
  M 348.52 220.77
  A 0.17 0.17 0.0 0 1 348.55 221.01
  L 348.50 221.06
  A 1.79 1.32 39.6 0 1 346.28 220.94
  L 345.20 220.04
  A 1.79 1.32 39.6 0 1 344.67 217.89
  L 344.71 217.83
  A 0.17 0.17 0.0 0 1 344.95 217.81
  L 348.52 220.77
  Z"
/>
<path fill="#2c323a" d="
  M 230.71 218.45
  L 231.15 218.49
  Q 231.20 219.29 231.05 219.80
  A 0.34 0.34 0.0 0 1 230.39 219.76
  Q 230.27 218.99 230.71 218.45
  Z"
/>
<path fill="#2c323a" d="
  M 233.62 236.32
  A 0.17 0.16 -43.7 0 1 233.39 236.32
  L 233.20 236.13
  A 0.37 0.36 42.6 0 1 233.17 235.64
  Q 234.85 233.59 234.83 231.31
  A 0.81 0.78 -16.3 0 1 235.23 230.61
  L 240.93 227.32
  A 0.60 0.60 0.0 0 1 241.66 228.27
  L 233.62 236.32
  Z"
/>
<path fill="#2c323a" d="
  M 229.70 235.78
  Q 230.11 235.79 229.30 236.99
  C 228.66 237.95 228.33 238.81 228.15 239.88
  A 0.71 0.70 6.3 0 1 227.41 240.47
  L 227.30 240.47
  A 0.66 0.66 0.0 0 1 226.68 239.83
  Q 226.67 239.31 227.70 237.43
  Q 228.25 236.42 229.03 236.64
  A 0.43 0.42 9.4 0 0 229.57 236.26
  L 229.59 235.88
  A 0.11 0.10 -0.0 0 1 229.70 235.78
  Z"
/>
<path fill="#2c323a" d="
  M 156.51 255.96
  Q 156.53 256.37 155.97 256.48
  L 156.51 255.96
  Z"
/>
<path fill="#2c323a" d="
  M 155.53 256.78
  Q 155.42 257.14 155.09 257.28
  Q 155.22 256.95 155.53 256.78
  Z"
/>
<path fill="#2c323a" d="
  M 168.92 264.00
  Q 144.78 281.82 120.64 299.86
  Q 106.77 310.21 100.98 313.99
  Q 100.32 314.43 97.25 315.77
  A 6.57 6.08 -71.2 0 0 96.27 316.30
  Q 93.91 317.86 86.52 323.78
  Q 73.83 333.93 64.75 341.50
  Q 58.98 346.30 56.51 348.66
  A 0.82 0.71 80.8 0 0 56.33 348.95
  L 54.26 354.40
  A 2.09 2.09 0.0 0 1 51.61 355.64
  L 49.23 354.80
  A 1.14 1.12 43.7 0 0 48.42 354.81
  C 41.25 357.61 34.36 362.99 28.70 368.02
  A 2.01 2.01 0.0 0 0 28.49 370.81
  L 37.83 382.00
  L 29.83 382.00
  Q 26.23 379.07 21.83 377.68
  Q 15.72 375.74 15.16 375.48
  Q 10.41 373.27 6.26 369.99
  Q 5.13 369.10 5.47 367.67
  L 8.77 368.46
  A 0.54 0.53 74.1 0 0 9.27 367.56
  L 7.33 365.62
  A 0.64 0.64 0.0 0 1 7.68 364.54
  Q 8.11 364.48 8.48 364.25
  A 0.90 0.88 -22.8 0 0 8.88 363.30
  Q 8.65 362.29 9.00 362.41
  C 11.47 362.93 13.14 364.99 16.02 364.39
  L 22.64 367.67
  A 0.53 0.53 0.0 0 0 23.30 366.87
  Q 22.58 365.94 23.14 365.06
  Q 23.62 364.30 23.36 363.88
  Q 22.97 363.23 22.23 363.36
  A 0.41 0.40 89.0 0 1 21.76 362.90
  Q 21.96 361.55 23.61 361.64
  A 1.36 1.35 -74.1 0 0 24.86 360.94
  Q 26.81 357.37 26.63 354.63
  A 1.30 1.30 0.0 0 1 27.02 353.61
  Q 27.62 353.02 29.87 349.19
  Q 33.25 343.42 36.17 337.24
  Q 39.02 331.93 43.86 326.92
  A 1.05 1.03 29.9 0 1 44.89 326.65
  L 44.91 326.66
  A 0.42 0.42 0.0 0 1 45.10 327.35
  C 43.54 329.09 40.02 333.17 39.93 335.23
  Q 39.85 336.96 41.45 336.88
  Q 40.20 336.91 40.36 338.18
  A 0.30 0.30 0.0 0 0 40.85 338.37
  Q 41.01 338.24 41.02 338.23
  A 0.76 0.75 -31.9 0 1 42.02 338.46
  Q 42.86 339.68 43.80 340.05
  A 0.40 0.40 0.0 0 0 44.34 339.62
  Q 44.21 338.63 43.20 337.72
  Q 43.93 337.67 44.55 338.00
  A 1.46 0.14 29.8 0 0 45.45 338.41
  Q 46.74 338.69 48.66 338.45
  Q 43.99 340.11 42.08 343.28
  A 0.91 0.90 -52.8 0 0 42.23 344.41
  Q 42.35 344.51 42.41 344.59
  A 0.74 0.74 0.0 0 1 42.30 345.65
  L 35.40 350.95
  A 0.47 0.47 0.0 0 1 34.81 350.94
  Q 34.52 350.70 33.74 351.07
  A 1.07 1.07 0.0 0 0 33.16 351.76
  Q 32.80 353.16 33.65 354.10
  Q 30.86 355.99 30.98 357.65
  L 25.26 362.23
  A 0.90 0.90 0.0 0 0 25.19 363.57
  L 25.58 363.97
  A 1.34 1.34 0.0 0 0 27.33 364.10
  L 46.42 350.03
  A 1.20 1.20 0.0 0 1 47.53 349.86
  L 50.49 350.91
  A 1.00 0.99 26.9 0 0 51.64 350.54
  L 56.80 343.19
  A 1.55 1.55 0.0 0 1 57.16 342.83
  Q 60.04 340.74 61.68 338.53
  A 1.92 1.81 -80.4 0 1 62.54 337.88
  Q 64.65 337.10 66.63 335.01
  A 1.74 1.71 13.2 0 1 67.37 334.56
  Q 68.78 334.13 69.25 332.42
  A 0.80 0.79 5.7 0 1 69.96 331.84
  L 72.31 331.68
  A 0.89 0.87 -75.8 0 0 73.00 331.26
  L 74.37 329.04
  A 0.65 0.63 4.0 0 1 74.68 328.78
  Q 78.90 327.10 81.14 324.06
  A 0.91 0.85 2.0 0 1 81.45 323.79
  L 86.75 321.05
  A 1.15 0.96 5.0 0 0 86.95 320.91
  L 90.02 318.21
  Q 90.04 318.19 90.06 318.17
  C 90.72 316.90 91.33 316.06 93.32 315.80
  Q 94.21 315.69 94.48 314.42
  A 1.64 1.62 72.3 0 1 94.87 313.65
  Q 98.55 309.49 101.64 306.98
  C 102.84 306.00 104.22 306.77 105.16 305.66
  Q 106.88 303.63 109.35 302.57
  A 1.39 1.38 76.9 0 0 110.19 301.21
  L 109.98 298.19
  A 0.46 0.46 0.0 0 1 110.76 297.84
  L 112.20 299.28
  A 0.92 0.91 -28.1 0 0 113.01 299.52
  Q 114.63 299.18 115.91 296.80
  A 0.87 0.87 0.0 0 1 116.97 296.39
  Q 117.88 296.71 118.20 296.63
  A 0.70 0.69 -81.6 0 0 118.64 296.30
  Q 119.58 294.69 119.02 291.96
  A 0.42 0.42 0.0 0 1 119.73 291.58
  L 121.15 293.00
  A 0.61 0.60 -44.7 0 0 122.00 293.00
  L 127.06 287.94
  A 0.35 0.35 0.0 0 1 127.66 288.17
  L 127.71 288.89
  A 0.58 0.58 0.0 0 0 128.77 289.18
  Q 130.57 286.49 130.12 283.43
  A 0.25 0.25 0.0 0 1 130.57 283.25
  L 131.58 284.62
  A 1.04 1.04 0.0 0 0 133.16 284.74
  L 140.13 277.78
  A 0.66 0.66 0.0 0 1 141.09 277.80
  Q 141.82 278.63 142.51 278.00
  A 0.57 0.48 85.3 0 0 142.61 277.86
  L 144.63 273.36
  A 1.21 1.20 -34.8 0 1 146.93 273.77
  L 147.15 276.99
  A 0.10 0.10 0.0 0 0 147.27 277.08
  L 147.71 276.98
  A 0.06 0.05 84.3 0 0 147.75 276.92
  Q 147.77 274.54 148.40 272.90
  A 1.72 1.70 85.2 0 1 149.10 272.06
  Q 151.33 270.69 152.01 269.49
  A 0.32 0.32 0.0 0 1 152.48 269.38
  Q 152.77 269.57 152.67 269.97
  A 0.86 0.72 -19.1 0 0 154.10 270.51
  Q 157.58 267.16 159.15 266.04
  A 1.19 1.19 0.0 0 0 159.65 264.98
  L 159.57 263.72
  A 0.68 0.67 78.3 0 1 160.02 263.03
  Q 161.18 262.63 161.68 262.04
  A 1.13 1.12 -35.6 0 0 161.87 260.94
  C 160.93 258.47 163.13 258.64 164.00 257.25
  Q 164.27 256.81 164.87 256.83
  A 0.87 0.86 77.7 0 1 165.61 257.31
  L 168.92 264.00
  Z
  M 141.3359 280.0980
  A 2.13 0.72 -39.4 0 0 139.2330 280.8936
  A 2.13 0.72 -39.4 0 0 138.0441 282.8020
  A 2.13 0.72 -39.4 0 0 140.1470 282.0064
  A 2.13 0.72 -39.4 0 0 141.3359 280.0980
  Z
  M 40.38 343.27
  Q 40.61 343.27 40.71 342.94
  A 0.56 0.45 85.8 0 0 40.06 342.24
  Q 39.88 342.37 39.95 342.88
  Q 40.01 343.26 40.38 343.27
  Z
  M 11.2345 365.1636
  A 7.50 1.43 -155.7 0 0 17.4815 369.5533
  A 7.50 1.43 -155.7 0 0 24.9055 371.3364
  A 7.50 1.43 -155.7 0 0 18.6585 366.9467
  A 7.50 1.43 -155.7 0 0 11.2345 365.1636
  Z
  M 19.2977 372.0843
  A 0.43 0.43 0.0 0 0 19.0523 371.5279
  L 13.9059 369.5317
  A 0.43 0.43 0.0 0 0 13.3495 369.7771
  L 13.3423 369.7957
  A 0.43 0.43 0.0 0 0 13.5877 370.3521
  L 18.7341 372.3483
  A 0.43 0.43 0.0 0 0 19.2905 372.1029
  L 19.2977 372.0843
  Z
  M 22.4448 374.7957
  A 1.07 0.48 -148.8 0 0 23.1113 375.7606
  A 1.07 0.48 -148.8 0 0 24.2752 375.9043
  A 1.07 0.48 -148.8 0 0 23.6087 374.9394
  A 1.07 0.48 -148.8 0 0 22.4448 374.7957
  Z
  M 28.62 378.36
  Q 28.86 378.07 28.16 377.57
  Q 26.56 376.40 26.42 376.57
  Q 26.28 376.74 27.75 378.07
  Q 28.39 378.65 28.62 378.36
  Z"
/>
<path fill="#2c323a" d="
  M 182.19 266.82
  Q 181.87 266.93 181.46 266.86
  L 182.19 266.82
  Z"
/>
<ellipse fill="#a47e50" cx="0.00" cy="0.00" transform="translate(139.69,281.45) rotate(-39.4)" rx="2.13" ry="0.72"/>
<path fill="#2c323a" d="
  M 63.50 326.91
  Q 63.42 327.95 62.50 327.80
  Q 62.85 327.24 63.50 326.91
  Z"
/>
<path fill="#65859e" d="
  M 60.04 329.79
  L 53.74 335.27
  Q 55.67 333.69 54.83 332.39
  A 1.52 1.51 -17.1 0 1 56.07 330.06
  Q 58.16 330.01 60.04 329.79
  Z"
/>
<path fill="#65859e" d="
  M 41.45 336.88
  Q 42.55 337.09 43.20 337.72
  Q 44.21 338.63 44.34 339.62
  A 0.40 0.40 0.0 0 1 43.80 340.05
  Q 42.86 339.68 42.02 338.46
  A 0.76 0.75 -31.9 0 0 41.02 338.23
  Q 41.01 338.24 40.85 338.37
  A 0.30 0.30 0.0 0 1 40.36 338.18
  Q 40.20 336.91 41.45 336.88
  Z"
/>
<path fill="#65859e" d="
  M 16.02 364.39
  C 21.76 361.95 26.07 358.88 25.65 352.10
  Q 26.29 351.62 26.54 350.80
  Q 26.61 350.79 26.69 350.77
  Q 28.88 350.22 28.65 348.73
  L 36.17 337.24
  Q 33.25 343.42 29.87 349.19
  Q 27.62 353.02 27.02 353.61
  A 1.30 1.30 0.0 0 0 26.63 354.63
  Q 26.81 357.37 24.86 360.94
  A 1.36 1.35 -74.1 0 1 23.61 361.64
  Q 21.96 361.55 21.76 362.90
  A 0.41 0.40 89.0 0 0 22.23 363.36
  Q 22.97 363.23 23.36 363.88
  Q 23.62 364.30 23.14 365.06
  Q 22.58 365.94 23.30 366.87
  A 0.53 0.53 0.0 0 1 22.64 367.67
  L 16.02 364.39
  Z"
/>
<path fill="#65859e" d="
  M 40.38 343.27
  Q 40.01 343.26 39.95 342.88
  Q 39.88 342.37 40.06 342.24
  A 0.56 0.45 85.8 0 1 40.71 342.94
  Q 40.61 343.27 40.38 343.27
  Z"
/>
<path fill="#65859e" d="
  M 30.98 357.65
  Q 30.86 355.99 33.65 354.10
  L 44.49 346.15
  A 0.27 0.27 0.0 0 1 44.92 346.31
  L 45.02 346.74
  A 0.08 0.08 0.0 0 1 44.99 346.82
  L 30.98 357.65
  Z"
/>
<path fill="#2c323a" d="
  M 28.65 348.73
  Q 28.88 350.22 26.69 350.77
  Q 27.44 349.64 28.65 348.73
  Z"
/>
<path fill="#2c323a" d="
  M 26.54 350.80
  Q 26.29 351.62 25.65 352.10
  Q 25.23 351.47 26.54 350.80
  Z"
/>
<path fill="#65859e" d="
  M 9.00 362.41
  Q 8.65 362.29 8.88 363.30
  A 0.90 0.88 -22.8 0 1 8.48 364.25
  Q 8.11 364.48 7.68 364.54
  A 0.64 0.64 0.0 0 0 7.33 365.62
  L 9.27 367.56
  A 0.54 0.53 74.1 0 1 8.77 368.46
  L 5.47 367.67
  Q 5.34 367.59 5.34 367.47
  Q 4.39 365.72 2.50 365.21
  L 1.80 363.23
  A 0.63 0.63 0.0 0 1 2.15 362.44
  Q 5.41 361.09 9.00 362.41
  Z"
/>
<ellipse fill="#65859e" cx="0.00" cy="0.00" transform="translate(18.07,368.25) rotate(-155.7)" rx="7.50" ry="1.43"/>
<path fill="#2c323a" d="
  M 2.50 365.21
  Q 4.39 365.72 5.34 367.47
  Q 3.50 367.35 2.04 366.20
  A 0.74 0.74 0.0 0 1 1.76 365.60
  Q 1.77 364.77 2.50 365.21
  Z"
/>
<rect fill="#65859e" x="-3.19" y="-0.44" transform="translate(16.32,370.94) rotate(21.2)" width="6.38" height="0.88" rx="0.43"/>
<ellipse fill="#65859e" cx="0.00" cy="0.00" transform="translate(23.36,375.35) rotate(-148.8)" rx="1.07" ry="0.48"/>
<path fill="#65859e" d="
  M 28.62 378.36
  Q 28.39 378.65 27.75 378.07
  Q 26.28 376.74 26.42 376.57
  Q 26.56 376.40 28.16 377.57
  Q 28.86 378.07 28.62 378.36
  Z"
/>
</svg>
