<?xml version="1.0" encoding="UTF-8" standalone="no"?>
<!-- Created with Inkscape (http://www.inkscape.org/) -->

<svg
   version="1.1"
   id="svg1"
   width="682.66669"
   height="146.66667"
   viewBox="0 0 682.66669 146.66667"
   xmlns="http://www.w3.org/2000/svg"
   xmlns:svg="http://www.w3.org/2000/svg">
  <defs
     id="defs1" />
  <g
     id="g1">
    <path
       style="fill:currentColor"
       d="m 648.66669,144.60269 c -9.53334,-0.96112 -41.63334,-3.89185 -71.33334,-6.51274 -29.7,-2.62088 -60.6,-5.38826 -68.66667,-6.14972 -8.06667,-0.76147 -27.04558,-2.47386 -42.17536,-3.80532 l -27.50869,-2.42082 -33.73374,-15.00582 C 373.69095,96.67032 371.40178,95.857484 369.75758,98.106067 c -1.67681,2.293163 -1.75961,2.284683 -1.80193,-0.184557 -0.0405,-2.362929 -0.27694,-2.308839 -2.71685,0.621518 -2.2307,2.679092 -3.76629,3.170982 -9.28898,2.975512 l -6.61648,-0.23418 v 7.94861 c 0,7.70673 -0.22519,8.21406 -7.40024,16.67161 l -7.40025,8.72299 -11.59975,-0.77408 c -6.37987,-0.42574 -12.79976,-0.97235 -14.26642,-1.2147 -1.46667,-0.24234 -4.91667,-0.48521 -7.66667,-0.53971 -3.51152,-0.0696 -5,-0.69447 -5,-2.09908 0,-1.1 -0.6,-2 -1.33333,-2 -1.65089,0 -1.80169,-18.21983 -0.15921,-19.23494 0.64577,-0.39911 1.45223,-2.18042 1.79213,-3.95847 0.56285,-2.94439 0.0766,-3.31401 -5.45052,-4.14285 -3.33768,-0.50051 -6.69763,-1.770386 -7.46654,-2.821938 -1.19437,-1.633405 -3.82474,-1.310355 -18.05695,2.217668 -9.1624,2.27128 -17.73537,4.70866 -19.05103,5.41641 -1.60717,0.86456 -14.29522,0.17481 -38.66667,-2.10201 C 124.65416,95.624221 34.049175,87.417247 13.773734,85.816427 7.7826199,85.343406 2.201195,84.536371 1.370567,84.023015 0.25298338,83.33231 0.40919044,76.033031 1.9713808,55.948051 3.1324564,41.020177 4.2281293,28.660761 4.4062096,28.48268 4.5842898,28.3046 27.080267,30.208231 54.39727,32.712971 c 27.317002,2.504739 69.30276,6.100005 93.30167,7.989478 23.99892,1.889473 55.0344,4.511268 68.96773,5.826211 l 25.33334,2.390806 19.8386,8.873601 c 10.91124,4.880481 20.51124,8.822814 21.33334,8.760741 0.8221,-0.06207 3.44408,-2.384303 5.82662,-5.160509 l 4.3319,-5.047647 -3.40938,-15.103338 c -1.87515,-8.306835 -4.18898,-20.736258 -5.14183,-27.620939 -1.52934,-11.0499987 -1.49381,-12.6091821 0.30308,-13.29871369 1.97412,-0.75753923 24.30803,0.81359769 51.58434,3.62883329 7.33333,0.7568864 18.13333,1.8274355 24,2.378998 l 10.66666,1.002841 0.76291,5.7163264 c 0.41959,3.143979 0.66545,20.730524 0.54635,39.08121 l -0.21656,33.364883 5.45365,-0.89528 c 2.99951,-0.492404 18.53536,-4.174112 34.52411,-8.181574 l 29.07047,-7.286295 38.92954,3.42415 c 21.41124,1.883282 48.82954,4.34703 60.92954,5.474994 21.82933,2.034935 57.8411,5.118731 110.97878,9.503446 15.20499,1.254656 28.28424,2.675996 29.065,3.158531 1.33041,0.822238 0.14708,27.865895 -2.14288,48.972945 l -0.75945,7 -6.23739,-0.15824 c -3.43056,-0.087 -14.03739,-0.94461 -23.57072,-1.90574 z M 439.15603,118.51245 c 1.90214,-2.22155 2.71371,-6.81154 3.81973,-21.60331 1.04634,-13.993627 1.016,-18.911889 -0.119,-19.290222 -0.83788,-0.279292 -1.52341,-1.357804 -1.52341,-2.396693 0,-2.129059 -0.62501,-2.230555 -6.5,-1.055556 -4.1563,0.83126 -5.66023,3.75535 -2.5,4.860757 1.24719,0.436251 1.12406,1.219273 -0.4892,3.111111 -2.49625,2.927285 -4.71736,28.528133 -2.47508,28.528133 0.71368,0 1.29761,0.9 1.29761,2 0,1.1 -0.6,2 -1.33333,2 -2.60948,0 -1.27565,2.6128 2.33333,4.5707 4.74055,2.57179 4.65993,2.5796 7.48935,-0.72492 z M 426.03998,90.790994 c 0.91512,-14.311008 0.83086,-15.154639 -1.42714,-14.288162 -1.31983,0.506466 -5.14765,1.522527 -8.50626,2.257913 -8.77607,1.921567 -10.75838,2.617156 -10.41282,3.653845 0.36699,1.100952 -1.77168,1.471815 -3.86196,0.669698 -1.43083,-0.549058 -13.56534,2.153479 -22.83179,5.084977 -5.94557,1.880918 -5.81412,5.801894 0.26172,7.807105 2.52728,0.834078 8.35776,3.339182 12.95662,5.5669 5.1683,2.50356 8.54786,3.49149 8.84939,2.5869 0.71415,-2.14246 2.93227,-1.7872 2.93227,0.46964 0,1.09486 4.19184,3.89498 9.66667,6.45729 l 9.66667,4.52415 0.86704,-4.79062 c 0.47687,-2.63485 1.30469,-11.634681 1.83959,-19.999636 z m -174.82981,9.093374 c 0.71735,-0.654831 0.59453,-1.846461 -0.30161,-2.926247 -1.11581,-1.344466 -1.12065,-2.212689 -0.0185,-3.314868 2.32349,-2.323485 4.05586,-27.030792 2.06455,-29.444794 -1.27616,-1.547045 -1.2665,-2.084861 0.0454,-2.526396 3.0527,-1.027449 1.72028,-3.819261 -2.86675,-6.006664 -4.35737,-2.077881 -4.561,-2.056372 -5.24359,0.553871 -0.3906,1.493639 -1.28144,2.362643 -1.97966,1.931121 -1.26495,-0.781779 -2.01652,4.802934 -3.68349,27.370702 -0.74671,10.109248 -0.54722,11.846878 1.62791,14.179613 2.45697,2.634984 7.57099,2.725684 10.35574,0.183662 z m 16.4565,-3.4444 c 5.96299,-1.394647 9.66667,-2.933755 9.66667,-4.01709 0,-2.213147 1.63736,-2.251713 3.80158,-0.08954 1.78492,1.783221 1.45001,-2.658748 -1.29386,-17.160736 l -1.29178,-6.827402 -9.48155,-4.187907 c -5.21485,-2.30335 -9.78569,-3.883771 -10.15741,-3.512047 -1.80435,1.804352 -3.62258,38.009253 -1.91031,38.038515 0.55,0.0094 5.35,-1.000307 10.66666,-2.243792 z m 56.33334,-32.518655 c 0,-1.509946 -0.6,-2.374536 -1.33333,-1.921311 -0.73334,0.453225 -1.33334,1.688635 -1.33334,2.745356 0,1.056721 0.6,1.921311 1.33334,1.921311 0.73333,0 1.33333,-1.23541 1.33333,-2.745356 z M 299.97959,47.000002 c -0.0112,-0.55 -0.60204,-1.9 -1.31291,-3 -1.04517,-1.617279 -1.29641,-1.425918 -1.31292,1 -0.0112,1.65 0.57958,3 1.31292,3 0.73333,0 1.32414,-0.45 1.31291,-1 z m -7.52774,-21.666668 c -6.25313,-15.331326 -6.53401,-13.509893 -1.4393,9.333334 l 2.82503,12.666667 1.07456,-6.666667 c 0.91581,-5.681812 0.55236,-7.946978 -2.46029,-15.333334 z m 10.1104,15.804888 c -1.78822,-3.341323 -3.12223,-2.336414 -1.92132,1.447327 0.48642,1.532579 1.44283,2.441382 2.12535,2.019562 0.74642,-0.461315 0.66512,-1.842882 -0.20403,-3.466889 z m 0.7066,-12.471554 c -0.14401,-1.466667 -0.33842,-3.416667 -0.43201,-4.333334 -0.0936,-0.916667 -1.00452,-1.666667 -2.02429,-1.666667 -2.80672,0 -3.49231,9.286639 -0.9087,12.308922 2.01553,2.357754 2.1256,2.334865 2.86151,-0.595093 0.42094,-1.675939 0.64751,-4.247162 0.50349,-5.713828 z M 293.90194,18.03745 c -3.21113,-4.900797 -3.79116,-3.29536 -0.95908,2.654573 1.48487,3.119566 2.54803,4.222298 2.80636,2.910802 0.22873,-1.161253 -0.60255,-3.665672 -1.84728,-5.565375 z m 6.82898,0.942134 c 0.76866,-0.538771 2.69526,-2.839342 4.28133,-5.112381 l 2.88376,-4.1327981 -6.948,-1.5631384 c -3.8214,-0.8597261 -8.32559,-1.9271603 -10.00931,-2.372076 -2.8254,-0.746601 -2.67128,-0.2345307 2,6.6451025 5.34707,7.874899 5.59014,8.078761 7.79222,6.535291 z"
       id="path1" />
  </g>
</svg>
