<?xml version="1.0" encoding="UTF-8" standalone="no"?>
<svg xmlns="http://www.w3.org/2000/svg" version="1.2" baseProfile="tiny" viewBox="0.00 0.00 512.00 110.00" width="512.00" height="110.00">
<path fill="#a39d34" d="
  M 279.19 5.81
  L 270.91 15.95
  Q 271.00 16.08 270.78 16.25
  Q 270.37 16.83 270.64 17.31
  L 270.68 34.54
  Q 270.49 35.44 270.72 36.21
  Q 270.69 37.05 271.11 37.25
  Q 271.78 41.80 268.34 42.31
  A 0.33 0.33 0.0 0 1 268.06 41.75
  L 269.88 39.93
  A 0.47 0.47 0.0 0 0 269.88 39.27
  L 269.66 39.05
  A 0.49 0.48 -48.4 0 0 268.94 39.10
  Q 262.64 47.09 255.89 54.63
  Q 254.59 56.08 254.63 57.39
  A 1.50 1.48 -26.2 0 1 254.28 58.40
  Q 252.76 60.22 254.46 63.71
  A 1.02 1.02 0.0 0 0 255.25 64.28
  Q 257.27 64.52 257.27 67.02
  A 1.16 1.15 68.0 0 1 256.92 67.85
  L 255.83 68.95
  A 0.82 0.81 -27.0 0 0 255.59 69.67
  L 256.90 77.44
  A 1.05 1.02 49.4 0 1 256.87 77.91
  L 255.62 82.38
  Q 254.73 81.86 253.49 82.34
  L 253.34 79.76
  A 1.06 1.05 -8.6 0 0 252.03 78.80
  L 250.14 79.27
  A 1.70 1.64 -40.6 0 1 249.13 79.21
  Q 243.63 77.03 236.83 78.62
  Q 236.70 78.65 236.13 78.70
  Q 235.61 78.75 235.30 79.21
  A 0.57 0.57 0.0 0 0 235.74 80.09
  L 247.06 80.87
  A 0.86 0.84 29.8 0 0 247.59 80.73
  Q 248.56 80.03 249.78 81.18
  Q 249.82 81.21 250.36 81.16
  Q 250.58 81.14 250.71 81.13
  A 0.54 0.53 -2.9 0 1 251.30 81.66
  L 251.30 86.12
  A 0.77 0.77 0.0 0 0 251.77 86.83
  Q 252.46 87.11 252.44 87.90
  A 0.27 0.27 0.0 0 1 251.98 88.08
  L 251.68 87.78
  A 0.47 0.47 0.0 0 0 250.88 88.11
  L 250.88 98.10
  A 0.53 0.53 0.0 0 0 251.81 98.45
  Q 252.02 98.21 252.04 97.90
  A 0.62 0.62 0.0 0 1 252.61 97.33
  Q 253.20 97.28 253.28 97.77
  L 250.78 100.37
  A 1.17 1.14 -65.7 0 1 249.86 100.73
  L 222.92 98.71
  A 0.82 0.81 67.8 0 1 222.43 98.50
  Q 221.50 97.63 221.94 95.66
  Q 221.98 95.23 221.62 94.92
  A 0.68 0.67 -69.9 0 1 221.39 94.41
  L 221.49 81.45
  L 222.65 78.60
  L 230.04 79.59
  A 0.56 0.56 0.0 0 0 230.66 78.89
  L 230.55 78.44
  A 1.15 1.15 0.0 0 0 229.29 77.58
  Q 225.06 78.13 223.80 76.22
  L 213.62 74.82
  A 0.96 0.95 3.8 0 1 212.79 73.88
  L 212.79 72.48
  A 0.65 0.64 83.0 0 0 211.99 71.85
  L 180.58 79.57
  L 181.50 74.74
  Q 181.81 75.81 181.59 76.61
  A 0.43 0.43 0.0 0 0 182.11 77.14
  L 188.36 75.58
  A 0.99 0.99 0.0 0 0 189.08 74.87
  Q 189.36 73.83 189.22 72.76
  L 189.04 71.33
  L 189.36 70.52
  L 191.09 48.49
  L 191.06 45.86
  Q 191.59 45.07 191.50 44.08
  A 0.96 0.96 0.0 0 0 190.94 43.29
  L 184.68 40.44
  A 0.57 0.57 0.0 0 0 183.89 40.82
  L 183.38 42.79
  L 183.19 37.87
  L 212.58 50.71
  A 0.64 0.63 17.3 0 0 213.46 50.25
  Q 213.69 48.97 214.68 48.26
  C 216.63 46.87 218.52 44.30 219.82 42.67
  A 1.40 1.38 58.3 0 0 220.09 41.49
  Q 217.34 30.21 214.96 18.78
  Q 214.05 14.41 212.69 1.94
  Q 214.37 2.41 215.68 3.39
  L 223.37 14.91
  A 0.85 0.84 61.1 0 0 224.42 15.22
  L 227.20 13.98
  A 0.98 0.97 79.8 0 0 227.76 13.16
  L 227.83 12.21
  A 1.44 1.40 -24.4 0 1 228.14 11.42
  L 231.53 7.21
  L 242.78 8.02
  Q 243.70 8.39 243.35 8.11
  Q 244.49 9.74 245.89 10.65
  A 0.73 0.72 -50.8 0 0 246.80 10.55
  L 248.51 8.84
  A 0.55 0.54 -68.6 0 1 248.87 8.68
  L 253.96 8.57
  L 259.68 8.15
  L 271.39 9.17
  A 1.53 1.52 -75.1 0 0 272.92 8.28
  L 273.06 7.98
  A 1.28 1.28 0.0 0 0 271.89 6.17
  L 262.12 6.17
  A 0.70 0.63 -29.7 0 1 261.84 6.11
  L 261.40 5.91
  A 0.52 0.51 -72.2 0 0 260.69 6.28
  Q 260.55 6.93 260.15 7.15
  Q 258.84 6.52 257.24 6.43
  A 0.95 0.94 69.2 0 1 256.61 6.14
  Q 256.39 5.92 256.34 5.61
  A 0.77 0.77 0.0 0 0 255.59 4.97
  Q 252.40 4.96 241.19 3.06
  C 232.60 1.61 224.56 1.39 216.00 1.33
  Q 214.81 1.32 214.28 0.49
  Q 226.16 -0.21 237.98 1.45
  Q 244.53 2.37 251.12 2.99
  Q 264.81 4.28 279.19 5.81
  Z
  M 216.00 7.34
  L 221.76 20.23
  A 0.19 0.19 0.0 0 0 222.11 20.20
  Q 222.82 17.49 222.29 16.35
  Q 221.02 13.62 216.27 7.18
  A 0.16 0.16 0.0 0 0 216.00 7.34
  Z
  M 214.65 9.32
  L 219.72 34.41
  A 0.89 0.89 0.0 0 0 221.48 34.27
  L 221.79 24.73
  A 3.33 3.27 34.2 0 0 221.50 23.29
  L 215.18 9.15
  A 0.28 0.28 0.0 0 0 214.65 9.32
  Z
  M 244.37 11.25
  Q 241.37 8.63 238.71 10.96
  A 0.38 0.38 0.0 0 0 239.00 11.63
  Q 241.50 11.36 244.01 11.95
  A 0.41 0.40 -17.9 0 0 244.37 11.25
  Z
  M 264.19 10.27
  Q 262.71 10.01 261.07 10.03
  A 1.63 1.61 -38.7 0 0 260.70 13.22
  Q 262.78 13.67 264.48 10.91
  A 0.43 0.42 20.9 0 0 264.19 10.27
  Z
  M 227.78 29.02
  L 227.78 17.88
  A 0.66 0.66 0.0 0 0 227.16 17.22
  L 224.38 17.03
  A 0.38 0.38 0.0 0 0 223.97 17.37
  L 223.21 24.36
  A 0.35 0.35 0.0 0 0 223.31 24.65
  L 227.71 29.05
  A 0.04 0.04 0.0 0 0 227.78 29.02
  Z
  M 223.66 27.71
  L 226.33 33.68
  A 0.53 0.53 0.0 0 0 227.14 33.88
  Q 227.82 33.34 227.88 32.08
  A 0.89 0.89 0.0 0 0 227.67 31.48
  L 224.12 27.42
  A 0.28 0.27 12.5 0 0 223.66 27.71
  Z
  M 244.90 40.42
  Q 246.54 40.39 247.37 38.44
  L 247.69 35.46
  A 2.69 2.37 47.0 0 0 247.67 34.75
  L 247.16 31.33
  A 0.87 0.86 80.9 0 0 246.16 30.60
  Q 244.20 30.95 243.57 29.67
  A 0.73 0.72 -25.3 0 0 242.62 29.33
  L 238.24 31.29
  A 0.77 0.73 5.5 0 0 237.93 31.53
  L 236.82 33.03
  A 0.66 0.64 -73.7 0 1 236.38 33.28
  L 230.50 33.96
  A 0.47 0.47 0.0 0 0 230.41 34.87
  Q 230.93 35.04 230.93 35.57
  A 0.49 0.49 0.0 0 1 230.64 36.02
  Q 229.69 36.45 229.89 37.31
  A 0.36 0.36 0.0 0 0 230.39 37.56
  L 236.34 34.90
  A 0.33 0.33 0.0 0 1 236.80 35.21
  Q 236.80 35.45 236.81 35.52
  A 0.65 0.64 86.8 0 0 237.37 36.03
  Q 237.86 36.08 238.15 35.79
  A 0.36 0.36 0.0 0 0 238.16 35.30
  Q 237.46 34.52 237.65 33.66
  A 1.54 1.39 -62.7 0 1 240.06 32.76
  Q 240.60 33.29 241.46 33.07
  A 0.75 0.74 77.0 0 1 242.37 33.65
  L 242.73 35.46
  A 0.53 0.53 0.0 0 1 242.35 36.08
  Q 241.48 36.32 242.12 36.79
  A 0.24 0.17 -10.9 0 0 242.19 36.82
  L 243.20 37.07
  A 0.84 0.83 -52.0 0 1 243.39 38.62
  C 241.42 39.66 238.42 40.47 236.09 39.91
  Q 235.10 39.67 232.86 39.72
  A 1.52 1.49 -23.6 0 1 231.81 39.32
  Q 231.33 38.88 230.78 39.38
  A 0.89 0.89 0.0 0 1 229.81 39.54
  Q 228.35 38.91 227.14 37.82
  A 0.31 0.31 0.0 0 0 226.64 38.15
  Q 227.29 39.89 229.29 40.41
  Q 237.40 42.50 244.90 40.42
  Z
  M 222.92 30.98
  L 223.07 35.28
  A 1.00 0.98 25.1 0 0 223.29 35.87
  Q 223.82 36.53 224.76 36.52
  A 0.51 0.51 0.0 0 0 225.24 35.82
  L 223.13 30.47
  Q 223.17 30.31 223.18 30.18
  A 0.17 0.17 0.0 0 0 222.84 30.16
  Q 222.81 30.43 222.92 30.98
  Z
  M 238.97 37.74
  A 0.47 0.46 -2.3 0 0 238.34 37.16
  L 237.32 37.61
  A 0.56 0.56 0.0 0 0 237.46 38.67
  Q 238.57 38.86 238.97 37.74
  Z
  M 245.67 49.97
  Q 247.47 47.08 247.43 44.91
  A 0.48 0.46 58.0 0 1 247.47 44.72
  L 250.60 37.83
  A 0.36 0.36 0.0 0 0 250.11 37.35
  Q 248.61 38.08 248.67 40.00
  A 1.10 1.09 66.9 0 1 248.34 40.83
  L 245.80 43.37
  A 0.81 0.77 -22.3 0 0 245.58 43.86
  L 245.17 49.81
  A 0.27 0.27 0.0 0 0 245.67 49.97
  Z
  M 221.31 39.68
  Q 221.69 39.22 221.13 38.42
  A 0.11 0.11 0.0 0 0 220.93 38.48
  L 220.86 39.51
  A 0.25 0.25 0.0 0 0 221.31 39.68
  Z
  M 227.20 42.98
  A 0.41 0.37 -49.8 0 0 227.17 42.26
  Q 225.40 41.75 224.51 42.87
  A 1.12 1.10 -25.4 0 0 224.25 43.58
  L 224.14 50.01
  A 0.54 0.54 0.0 0 0 224.65 50.56
  L 226.73 50.70
  A 0.85 0.85 0.0 0 0 227.64 49.91
  L 227.73 48.66
  A 0.66 0.66 0.0 0 1 228.43 48.04
  L 238.48 48.74
  A 1.59 1.55 -20.4 0 1 239.47 49.18
  Q 240.67 50.34 242.87 49.91
  A 0.85 0.84 1.1 0 0 243.51 49.30
  Q 243.71 48.52 243.64 46.29
  C 243.58 44.14 242.18 44.01 240.48 44.17
  Q 240.08 44.21 239.81 44.71
  C 239.46 45.38 239.86 46.19 239.10 46.68
  Q 238.30 47.20 237.87 46.75
  A 1.76 1.74 -68.9 0 1 237.39 45.65
  L 237.32 44.18
  A 0.82 0.76 30.2 0 0 237.21 43.82
  Q 236.51 42.70 235.48 42.99
  A 0.53 0.53 0.0 0 0 235.14 43.73
  Q 235.68 44.86 234.38 45.43
  A 1.20 1.11 -3.9 0 1 232.73 44.10
  Q 232.82 43.82 232.87 43.61
  A 0.69 0.68 -68.3 0 0 232.57 42.90
  Q 231.75 42.37 231.06 42.49
  A 0.47 0.47 0.0 0 0 230.69 43.11
  Q 230.71 43.15 230.84 43.36
  Q 231.01 43.63 230.92 44.13
  Q 230.59 45.96 229.21 45.91
  A 2.83 2.36 82.5 0 1 226.90 43.78
  Q 226.76 43.22 227.20 42.98
  Z
  M 208.25 70.59
  Q 209.59 70.61 210.59 70.00
  Q 211.38 70.06 211.78 69.75
  Q 212.17 69.46 212.06 68.66
  Q 211.09 62.15 210.24 55.03
  Q 210.16 54.39 209.26 53.82
  Q 208.85 53.56 208.88 53.21
  Q 208.90 52.83 209.25 52.51
  Q 209.88 53.16 210.72 53.09
  A 0.57 0.57 0.0 0 0 211.06 52.12
  Q 210.50 51.57 209.30 51.45
  L 193.94 44.57
  A 0.29 0.29 0.0 0 0 193.54 44.81
  L 191.51 74.14
  A 0.48 0.48 0.0 0 0 192.11 74.64
  L 208.25 70.59
  Z
  M 251.9117 44.6934
  A 2.80 0.53 -60.9 0 0 250.0869 46.8822
  A 2.80 0.53 -60.9 0 0 249.1883 49.5866
  A 2.80 0.53 -60.9 0 0 251.0131 47.3978
  A 2.80 0.53 -60.9 0 0 251.9117 44.6934
  Z
  M 247.5532 84.8633
  A 0.62 0.62 0.0 0 0 246.9643 84.2138
  L 236.6965 83.7116
  A 0.62 0.62 0.0 0 0 236.0470 84.3006
  L 235.8868 87.5767
  A 0.62 0.62 0.0 0 0 236.4757 88.2262
  L 246.7435 88.7284
  A 0.62 0.62 0.0 0 0 247.3930 88.1394
  L 247.5532 84.8633
  Z"
/>
<path fill="#292807" d="
  M 214.28 0.49
  Q 214.81 1.32 216.00 1.33
  C 224.56 1.39 232.60 1.61 241.19 3.06
  Q 252.40 4.96 255.59 4.97
  A 0.77 0.77 0.0 0 1 256.34 5.61
  Q 256.39 5.92 256.61 6.14
  A 0.95 0.94 69.2 0 0 257.24 6.43
  Q 258.84 6.52 260.15 7.15
  L 259.68 8.15
  L 253.96 8.57
  L 243.35 8.11
  Q 243.70 8.39 242.78 8.02
  Q 242.44 6.86 243.91 6.87
  Q 249.49 6.94 252.08 6.64
  A 0.20 0.19 80.9 0 0 252.25 6.40
  Q 252.17 6.09 251.75 6.12
  Q 249.89 6.28 248.69 5.78
  C 246.49 4.86 244.58 5.40 242.53 4.47
  Q 241.17 3.86 239.41 3.84
  Q 237.65 3.82 234.94 2.93
  A 2.01 2.00 -37.1 0 0 234.20 2.83
  L 217.82 3.76
  Q 216.64 3.29 215.68 3.39
  Q 214.37 2.41 212.69 1.94
  Q 212.65 1.57 212.76 1.24
  Q 212.87 0.88 213.22 0.72
  Q 213.65 0.52 214.28 0.49
  Z"
/>
<path fill="#1f1e3f" d="
  M 242.78 8.02
  L 231.53 7.21
  Q 231.72 7.01 231.53 6.84
  A 0.24 0.17 -10.9 0 0 231.46 6.81
  L 217.82 3.76
  L 234.20 2.83
  A 2.01 2.00 -37.1 0 1 234.94 2.93
  Q 237.65 3.82 239.41 3.84
  Q 241.17 3.86 242.53 4.47
  C 244.58 5.40 246.49 4.86 248.69 5.78
  Q 249.89 6.28 251.75 6.12
  Q 252.17 6.09 252.25 6.40
  A 0.20 0.19 80.9 0 1 252.08 6.64
  Q 249.49 6.94 243.91 6.87
  Q 242.44 6.86 242.78 8.02
  Z"
/>
<path fill="#a0a19c" fill-opacity="0.996" d="
  M 259.68 8.15
  L 260.15 7.15
  Q 260.55 6.93 260.69 6.28
  A 0.52 0.51 -72.2 0 1 261.40 5.91
  L 261.84 6.11
  A 0.70 0.63 -29.7 0 0 262.12 6.17
  L 271.89 6.17
  A 1.28 1.28 0.0 0 1 273.06 7.98
  L 272.92 8.28
  A 1.53 1.52 -75.1 0 1 271.39 9.17
  L 259.68 8.15
  Z"
/>
<path fill="#292807" d="
  M 279.02 23.47
  Q 276.58 19.99 277.36 17.50
  Q 278.00 15.47 278.20 13.98
  A 0.66 0.66 0.0 0 0 276.94 13.62
  L 276.07 15.52
  A 1.05 1.02 -86.3 0 1 275.45 16.08
  C 272.31 17.11 273.23 22.95 273.88 25.07
  A 3.35 3.32 -43.2 0 1 273.80 27.23
  Q 273.26 28.62 273.66 31.44
  A 0.55 0.55 0.0 0 0 274.14 31.91
  Q 274.89 32.01 275.09 30.91
  A 0.27 0.26 5.2 0 1 275.35 30.70
  L 275.77 30.70
  A 0.36 0.36 0.0 0 1 276.13 31.08
  Q 276.04 32.44 276.45 33.74
  Q 276.54 34.04 276.90 33.79
  Q 277.97 33.66 277.96 34.00
  Q 277.87 36.29 278.97 37.37
  L 279.01 42.28
  Q 277.06 43.51 275.86 45.43
  A 1.92 1.87 -88.9 0 1 275.20 46.08
  Q 273.72 46.96 272.63 48.48
  A 1.10 1.07 63.5 0 0 272.43 49.11
  L 272.43 61.17
  A 0.65 0.65 0.0 0 0 273.52 61.64
  Q 275.84 59.49 275.33 56.96
  A 0.98 0.96 -30.5 0 1 275.55 56.14
  Q 276.44 55.14 277.02 55.15
  A 1.15 0.88 12.0 0 0 277.96 54.70
  L 278.93 53.06
  L 279.84 56.97
  A 1.48 1.47 -40.8 0 1 279.77 57.87
  Q 278.58 60.84 279.25 64.41
  Q 280.08 65.30 280.54 66.81
  L 280.32 69.79
  Q 280.31 70.76 279.51 71.36
  Q 277.47 72.90 276.74 72.43
  Q 275.90 71.89 275.37 71.23
  A 0.38 0.38 0.0 0 0 274.71 71.56
  Q 274.76 71.80 275.04 72.02
  L 272.56 75.20
  A 0.52 0.52 0.0 0 1 271.63 74.94
  L 270.86 67.94
  Q 272.82 65.92 270.85 64.11
  Q 271.71 62.66 270.96 62.12
  Q 270.95 61.63 270.80 61.30
  A 0.36 0.36 0.0 0 0 270.12 61.49
  C 270.19 62.16 270.14 62.85 269.61 63.37
  Q 266.93 66.06 265.55 68.58
  A 4.48 4.09 83.6 0 1 264.99 69.35
  Q 263.24 71.31 260.96 74.28
  Q 260.44 74.95 260.65 75.33
  Q 260.88 75.74 261.75 75.73
  L 261.69 86.99
  A 1.41 1.39 -25.6 0 1 261.37 87.88
  L 253.28 97.77
  Q 253.20 97.28 252.61 97.33
  A 0.62 0.62 0.0 0 0 252.04 97.90
  Q 252.02 98.21 251.81 98.45
  A 0.53 0.53 0.0 0 1 250.88 98.10
  L 250.88 88.11
  A 0.47 0.47 0.0 0 1 251.68 87.78
  L 251.98 88.08
  A 0.27 0.27 0.0 0 0 252.44 87.90
  Q 252.46 87.11 251.77 86.83
  A 0.77 0.77 0.0 0 1 251.30 86.12
  L 251.30 81.66
  A 0.54 0.53 -2.9 0 0 250.71 81.13
  Q 250.58 81.14 250.36 81.16
  Q 249.82 81.21 249.78 81.18
  Q 248.56 80.03 247.59 80.73
  A 0.86 0.84 29.8 0 1 247.06 80.87
  L 235.74 80.09
  A 0.57 0.57 0.0 0 1 235.30 79.21
  Q 235.61 78.75 236.13 78.70
  Q 236.70 78.65 236.83 78.62
  Q 243.63 77.03 249.13 79.21
  A 1.70 1.64 -40.6 0 0 250.14 79.27
  L 252.03 78.80
  A 1.06 1.05 -8.6 0 1 253.34 79.76
  L 253.49 82.34
  Q 252.88 82.70 252.72 83.23
  Q 252.54 83.84 253.06 84.33
  Q 253.72 84.93 254.89 84.89
  A 1.63 1.47 -2.0 0 0 256.48 83.36
  Q 256.46 82.94 255.62 82.38
  L 256.87 77.91
  A 1.05 1.02 49.4 0 0 256.90 77.44
  L 255.59 69.67
  A 0.82 0.81 -27.0 0 1 255.83 68.95
  L 256.92 67.85
  A 1.16 1.15 68.0 0 0 257.27 67.02
  Q 257.27 64.52 255.25 64.28
  A 1.02 1.02 0.0 0 1 254.46 63.71
  Q 252.76 60.22 254.28 58.40
  A 1.50 1.48 -26.2 0 0 254.63 57.39
  Q 254.59 56.08 255.89 54.63
  Q 262.64 47.09 268.94 39.10
  A 0.49 0.48 -48.4 0 1 269.66 39.05
  L 269.88 39.27
  A 0.47 0.47 0.0 0 1 269.88 39.93
  L 268.06 41.75
  A 0.33 0.33 0.0 0 0 268.34 42.31
  Q 271.78 41.80 271.11 37.25
  L 270.91 15.95
  L 279.19 5.81
  L 279.08 14.48
  A 0.76 0.54 -61.6 0 0 279.10 14.65
  L 279.96 17.64
  A 1.26 1.22 49.4 0 1 279.91 18.49
  Q 278.88 20.83 279.02 23.47
  Z
  M 270.68 46.07
  Q 270.54 45.45 270.89 43.70
  A 0.40 0.40 0.0 0 0 270.34 43.26
  L 268.87 43.92
  A 0.52 0.52 0.0 0 0 268.71 44.76
  L 270.25 46.30
  A 0.26 0.25 16.6 0 0 270.68 46.07
  Z
  M 267.6230 48.0845
  A 0.66 0.66 0.0 0 0 267.1024 47.3098
  L 267.0239 47.2944
  A 0.66 0.66 0.0 0 0 266.2492 47.8150
  L 265.6370 50.9355
  A 0.66 0.66 0.0 0 0 266.1576 51.7102
  L 266.2361 51.7256
  A 0.66 0.66 0.0 0 0 267.0108 51.2050
  L 267.6230 48.0845
  Z
  M 264.90 53.96
  C 265.33 52.64 265.26 50.04 263.69 49.37
  A 0.60 0.59 11.3 0 0 262.86 49.92
  Q 262.87 51.36 264.20 54.01
  A 0.38 0.38 0.0 0 0 264.90 53.96
  Z
  M 270.88 58.18
  L 270.40 52.77
  A 0.44 0.44 0.0 0 0 269.82 52.40
  Q 269.14 52.64 268.75 53.61
  A 0.74 0.74 0.0 0 0 268.75 54.14
  L 270.44 58.29
  A 0.23 0.23 0.0 0 0 270.88 58.18
  Z
  M 276.8525 67.1600
  A 1.44 0.82 -90.3 0 0 276.0400 68.6043
  A 1.44 0.82 -90.3 0 0 276.8675 70.0400
  A 1.44 0.82 -90.3 0 0 277.6800 68.5957
  A 1.44 0.82 -90.3 0 0 276.8525 67.1600
  Z
  M 253.79 86.46
  L 254.65 89.90
  A 0.54 0.54 0.0 0 0 255.72 89.79
  Q 255.81 87.83 253.98 86.34
  A 0.12 0.12 0.0 0 0 253.79 86.46
  Z
  M 254.5944 92.0127
  A 1.15 0.60 -71.0 0 0 253.6527 92.9047
  A 1.15 0.60 -71.0 0 0 253.8456 94.1873
  A 1.15 0.60 -71.0 0 0 254.7873 93.2953
  A 1.15 0.60 -71.0 0 0 254.5944 92.0127
  Z"
/>
<path fill="#a0a19c" fill-opacity="0.996" d="
  M 253.96 8.57
  L 248.87 8.68
  A 0.55 0.54 -68.6 0 0 248.51 8.84
  L 246.80 10.55
  A 0.73 0.72 -50.8 0 1 245.89 10.65
  Q 244.49 9.74 243.35 8.11
  L 253.96 8.57
  Z"
/>
<path fill="#a0a19c" fill-opacity="0.996" d="
  M 244.37 11.25
  A 0.41 0.40 -17.9 0 1 244.01 11.95
  Q 241.50 11.36 239.00 11.63
  A 0.38 0.38 0.0 0 1 238.71 10.96
  Q 241.37 8.63 244.37 11.25
  Z"
/>
<path fill="#a0a19c" fill-opacity="0.996" d="
  M 264.48 10.91
  Q 262.78 13.67 260.70 13.22
  A 1.63 1.61 -38.7 0 1 261.07 10.03
  Q 262.71 10.01 264.19 10.27
  A 0.43 0.42 20.9 0 1 264.48 10.91
  Z"
/>
<path fill="#a0a19c" fill-opacity="0.996" d="
  M 279.02 23.47
  L 278.96 30.43
  Q 278.22 32.27 276.90 33.79
  Q 276.54 34.04 276.45 33.74
  Q 276.04 32.44 276.13 31.08
  A 0.36 0.36 0.0 0 0 275.77 30.70
  L 275.35 30.70
  A 0.27 0.26 5.2 0 0 275.09 30.91
  Q 274.89 32.01 274.14 31.91
  A 0.55 0.55 0.0 0 1 273.66 31.44
  Q 273.26 28.62 273.80 27.23
  A 3.35 3.32 -43.2 0 0 273.88 25.07
  C 273.23 22.95 272.31 17.11 275.45 16.08
  A 1.05 1.02 -86.3 0 0 276.07 15.52
  L 276.94 13.62
  A 0.66 0.66 0.0 0 1 278.20 13.98
  Q 278.00 15.47 277.36 17.50
  Q 276.58 19.99 279.02 23.47
  Z"
/>
<path fill="#292807" d="
  M 270.78 16.25
  L 270.64 17.31
  Q 270.37 16.83 270.78 16.25
  Z"
/>
<path fill="#1f1e3f" d="
  M 183.19 37.87
  L 183.38 42.79
  Q 183.20 43.40 182.29 43.20
  A 0.95 0.94 -13.1 0 1 181.75 42.87
  L 181.27 42.26
  L 181.59 40.38
  A 0.35 0.35 0.0 0 0 181.24 39.97
  L 180.95 39.97
  A 0.20 0.20 0.0 0 0 180.75 40.15
  L 180.19 46.20
  Q 179.87 47.34 180.17 48.28
  L 178.66 71.76
  Q 179.26 72.18 179.09 72.71
  Q 177.92 74.35 178.43 77.22
  A 0.22 0.22 0.0 0 0 178.87 77.19
  L 178.89 75.79
  L 179.17 75.29
  Q 179.33 74.77 179.25 74.31
  Q 180.92 73.47 181.50 74.74
  L 180.58 79.57
  Q 152.14 76.70 123.93 74.35
  Q 120.46 74.06 119.23 74.06
  C 116.96 74.07 114.69 73.55 112.56 73.35
  Q 92.96 71.46 68.33 69.28
  C 64.91 68.98 61.99 69.30 59.01 68.61
  Q 57.28 68.20 54.96 67.98
  Q 32.37 65.83 6.75 63.66
  Q 2.92 63.33 1.26 63.02
  A 1.02 1.02 0.0 0 1 0.43 61.95
  L 3.18 22.10
  A 0.54 0.54 0.0 0 1 3.77 21.60
  C 36.63 24.42 60.85 26.89 88.10 29.06
  Q 152.33 34.17 179.03 36.59
  Q 180.71 36.75 183.19 37.87
  Z
  M 61.09 39.06
  Q 60.84 40.10 61.17 40.93
  Q 60.03 44.55 60.41 48.06
  L 60.47 49.02
  L 59.99 56.19
  L 59.79 60.03
  Q 59.58 61.00 59.79 62.44
  Q 59.39 63.33 59.86 64.05
  Q 60.11 64.67 60.12 65.32
  A 0.27 0.26 1.3 0 0 60.37 65.57
  L 60.38 65.57
  A 0.26 0.25 -85.1 0 0 60.64 65.34
  Q 60.94 62.93 60.30 60.56
  L 60.50 56.43
  Q 61.39 54.24 60.93 51.33
  Q 61.48 49.57 61.04 47.70
  L 61.43 46.97
  A 1.58 1.56 59.5 0 0 61.62 46.22
  L 61.70 41.26
  L 61.91 37.70
  Q 61.83 37.38 62.01 36.96
  L 62.28 36.52
  Q 62.98 34.95 62.12 33.20
  A 1.09 1.06 -49.4 0 1 62.07 32.39
  Q 62.60 30.81 62.30 29.05
  A 0.21 0.21 0.0 0 0 61.89 29.09
  L 61.89 32.46
  A 0.21 0.19 -16.5 0 1 61.79 32.63
  Q 61.69 32.68 61.59 32.80
  Q 61.46 32.95 61.44 33.24
  Q 61.22 36.13 61.09 39.06
  Z
  M 120.95 37.71
  Q 121.05 37.84 121.14 37.97
  L 120.40 44.97
  Q 120.16 45.43 120.27 46.05
  Q 120.63 46.80 120.44 47.04
  Q 120.19 47.54 120.43 47.99
  L 119.32 63.49
  Q 119.38 63.63 119.43 63.76
  L 118.76 71.55
  A 0.25 0.24 70.6 0 0 119.17 71.75
  Q 119.26 71.66 119.34 71.49
  Q 120.10 72.04 119.57 70.25
  L 119.77 68.96
  Q 119.93 68.55 119.85 68.04
  L 119.98 64.30
  Q 120.32 62.77 120.12 61.00
  Q 120.89 58.24 120.71 54.96
  Q 121.20 53.66 120.67 52.19
  Q 120.64 50.92 121.02 49.71
  L 121.26 48.79
  Q 121.43 48.10 121.33 47.48
  Q 121.97 45.07 121.41 43.51
  L 121.30 42.70
  L 121.54 40.70
  Q 121.84 39.82 121.70 38.96
  L 121.48 38.02
  Q 122.26 37.09 121.55 36.70
  Q 121.72 36.33 121.73 35.97
  Q 122.64 34.32 121.53 34.17
  Q 120.83 35.89 120.95 37.71
  Z"
/>
<path fill="#a0a19c" fill-opacity="0.996" d="
  M 62.28 36.52
  Q 62.14 36.49 62.00 36.46
  L 61.88 35.99
  A 0.01 0.00 -73.2 0 0 61.87 36.00
  Q 61.87 36.24 62.00 36.46
  Q 61.85 36.81 62.01 36.96
  Q 61.83 37.38 61.91 37.70
  Q 61.62 38.46 61.09 39.06
  Q 61.22 36.13 61.44 33.24
  Q 61.46 32.95 61.59 32.80
  Q 61.69 32.68 61.79 32.63
  A 0.21 0.19 -16.5 0 0 61.89 32.46
  L 61.89 29.09
  A 0.21 0.21 0.0 0 1 62.30 29.05
  Q 62.60 30.81 62.07 32.39
  A 1.09 1.06 -49.4 0 0 62.12 33.20
  Q 62.98 34.95 62.28 36.52
  Z"
/>
<path fill="#a0a19c" fill-opacity="0.996" d="
  M 247.37 38.44
  Q 243.37 38.81 244.90 40.42
  Q 237.40 42.50 229.29 40.41
  Q 227.29 39.89 226.64 38.15
  A 0.31 0.31 0.0 0 1 227.14 37.82
  Q 228.35 38.91 229.81 39.54
  A 0.89 0.89 0.0 0 0 230.78 39.38
  Q 231.33 38.88 231.81 39.32
  A 1.52 1.49 -23.6 0 0 232.86 39.72
  Q 235.10 39.67 236.09 39.91
  C 238.42 40.47 241.42 39.66 243.39 38.62
  A 0.84 0.83 -52.0 0 0 243.20 37.07
  L 242.19 36.82
  A 0.24 0.17 -10.9 0 1 242.12 36.79
  Q 241.48 36.32 242.35 36.08
  A 0.53 0.53 0.0 0 0 242.73 35.46
  L 242.37 33.65
  A 0.75 0.74 77.0 0 0 241.46 33.07
  Q 240.60 33.29 240.06 32.76
  A 1.54 1.39 -62.7 0 0 237.65 33.66
  Q 237.46 34.52 238.16 35.30
  A 0.36 0.36 0.0 0 1 238.15 35.79
  Q 237.86 36.08 237.37 36.03
  A 0.65 0.64 86.8 0 1 236.81 35.52
  Q 236.80 35.45 236.80 35.21
  A 0.33 0.33 0.0 0 0 236.34 34.90
  L 230.39 37.56
  A 0.36 0.36 0.0 0 1 229.89 37.31
  Q 229.69 36.45 230.64 36.02
  A 0.49 0.49 0.0 0 0 230.93 35.57
  Q 230.93 35.04 230.41 34.87
  A 0.47 0.47 0.0 0 1 230.50 33.96
  L 236.38 33.28
  A 0.66 0.64 -73.7 0 0 236.82 33.03
  L 237.93 31.53
  A 0.77 0.73 5.5 0 1 238.24 31.29
  L 242.62 29.33
  A 0.73 0.72 -25.3 0 1 243.57 29.67
  Q 244.20 30.95 246.16 30.60
  A 0.87 0.86 80.9 0 1 247.16 31.33
  L 247.67 34.75
  A 2.69 2.37 47.0 0 1 247.69 35.46
  L 247.37 38.44
  Z"
/>
<path fill="#292807" d="
  M 223.13 30.47
  Q 222.96 30.68 222.92 30.98
  Q 222.81 30.43 222.84 30.16
  A 0.17 0.17 0.0 0 1 223.18 30.18
  Q 223.17 30.31 223.13 30.47
  Z"
/>
<path fill="#a39d34" d="
  M 278.96 30.43
  L 278.97 37.37
  Q 277.87 36.29 277.96 34.00
  Q 277.97 33.66 276.90 33.79
  Q 278.22 32.27 278.96 30.43
  Z"
/>
<path fill="#a0a19c" fill-opacity="0.996" d="
  M 121.53 34.17
  Q 121.85 35.21 121.73 35.97
  Q 121.72 36.33 121.55 36.70
  L 120.95 37.71
  Q 120.83 35.89 121.53 34.17
  Z"
/>
<path fill="#292807" d="
  M 270.68 34.54
  L 270.72 36.21
  Q 270.49 35.44 270.68 34.54
  Z"
/>
<path fill="#a0a19c" fill-opacity="0.996" d="
  M 238.97 37.74
  Q 238.57 38.86 237.46 38.67
  A 0.56 0.56 0.0 0 1 237.32 37.61
  L 238.34 37.16
  A 0.47 0.46 -2.3 0 1 238.97 37.74
  Z"
/>
<path fill="#292807" d="
  M 245.67 49.97
  A 0.27 0.27 0.0 0 1 245.17 49.81
  L 245.58 43.86
  A 0.81 0.77 -22.3 0 1 245.80 43.37
  L 248.34 40.83
  A 1.10 1.09 66.9 0 0 248.67 40.00
  Q 248.61 38.08 250.11 37.35
  A 0.36 0.36 0.0 0 1 250.60 37.83
  L 247.47 44.72
  A 0.48 0.46 58.0 0 0 247.43 44.91
  Q 247.47 47.08 245.67 49.97
  Z"
/>
<path fill="#a0a19c" fill-opacity="0.996" d="
  M 121.48 38.02
  L 121.70 38.96
  Q 121.04 39.49 121.54 40.70
  L 121.30 42.70
  Q 120.66 43.40 120.87 45.11
  Q 120.64 45.04 120.40 44.97
  L 121.14 37.97
  L 121.48 38.02
  Z"
/>
<path fill="#1f1e3f" d="
  M 247.37 38.44
  Q 246.54 40.39 244.90 40.42
  Q 243.37 38.81 247.37 38.44
  Z"
/>
<path fill="#a0a19c" fill-opacity="0.996" d="
  M 181.27 42.26
  Q 181.31 44.81 180.39 47.27
  Q 180.16 46.78 180.19 46.20
  L 180.75 40.15
  A 0.20 0.20 0.0 0 1 180.95 39.97
  L 181.24 39.97
  A 0.35 0.35 0.0 0 1 181.59 40.38
  L 181.27 42.26
  Z"
/>
<path fill="#a0a19c" fill-opacity="0.996" d="
  M 61.17 40.93
  L 61.70 41.26
  L 61.62 46.22
  A 1.58 1.56 59.5 0 1 61.43 46.97
  L 61.04 47.70
  L 60.41 48.06
  Q 60.03 44.55 61.17 40.93
  Z"
/>
<path fill="#a0a19c" fill-opacity="0.996" d="
  M 227.20 42.98
  Q 226.76 43.22 226.90 43.78
  A 2.83 2.36 82.5 0 0 229.21 45.91
  Q 230.59 45.96 230.92 44.13
  Q 231.01 43.63 230.84 43.36
  Q 230.71 43.15 230.69 43.11
  A 0.47 0.47 0.0 0 1 231.06 42.49
  Q 231.75 42.37 232.57 42.90
  A 0.69 0.68 -68.3 0 1 232.87 43.61
  Q 232.82 43.82 232.73 44.10
  A 1.20 1.11 -3.9 0 0 234.38 45.43
  Q 235.68 44.86 235.14 43.73
  A 0.53 0.53 0.0 0 1 235.48 42.99
  Q 236.51 42.70 237.21 43.82
  A 0.82 0.76 30.2 0 1 237.32 44.18
  L 237.39 45.65
  A 1.76 1.74 -68.9 0 0 237.87 46.75
  Q 238.30 47.20 239.10 46.68
  C 239.86 46.19 239.46 45.38 239.81 44.71
  Q 240.08 44.21 240.48 44.17
  C 242.18 44.01 243.58 44.14 243.64 46.29
  Q 243.71 48.52 243.51 49.30
  A 0.85 0.84 1.1 0 1 242.87 49.91
  Q 240.67 50.34 239.47 49.18
  A 1.59 1.55 -20.4 0 0 238.48 48.74
  L 228.43 48.04
  A 0.66 0.66 0.0 0 0 227.73 48.66
  L 227.64 49.91
  A 0.85 0.85 0.0 0 1 226.73 50.70
  L 224.65 50.56
  A 0.54 0.54 0.0 0 1 224.14 50.01
  L 224.25 43.58
  A 1.12 1.10 -25.4 0 1 224.51 42.87
  Q 225.40 41.75 227.17 42.26
  A 0.41 0.37 -49.8 0 1 227.20 42.98
  Z"
/>
<path fill="#a0a19c" fill-opacity="0.996" d="
  M 279.01 42.28
  L 278.93 53.06
  L 277.96 54.70
  A 1.15 0.88 12.0 0 1 277.02 55.15
  Q 276.44 55.14 275.55 56.14
  A 0.98 0.96 -30.5 0 0 275.33 56.96
  Q 275.84 59.49 273.52 61.64
  A 0.65 0.65 0.0 0 1 272.43 61.17
  L 272.43 49.11
  A 1.10 1.07 63.5 0 1 272.63 48.48
  Q 273.72 46.96 275.20 46.08
  A 1.92 1.87 -88.9 0 0 275.86 45.43
  Q 277.06 43.51 279.01 42.28
  Z"
/>
<path fill="#a39d34" d="
  M 270.25 46.30
  L 268.71 44.76
  A 0.52 0.52 0.0 0 1 268.87 43.92
  L 270.34 43.26
  A 0.40 0.40 0.0 0 1 270.89 43.70
  Q 270.54 45.45 270.68 46.07
  A 0.26 0.25 16.6 0 1 270.25 46.30
  Z"
/>
<path fill="#292807" d="
  M 121.41 43.51
  Q 121.97 45.07 121.33 47.48
  Q 121.30 44.88 120.27 46.05
  Q 120.16 45.43 120.40 44.97
  Q 120.64 45.04 120.87 45.11
  Q 121.47 45.33 121.41 43.51
  Z"
/>
<ellipse fill="#292807" cx="0.00" cy="0.00" transform="translate(250.55,47.14) rotate(-60.9)" rx="2.80" ry="0.53"/>
<path fill="#a0a19c" fill-opacity="0.996" d="
  M 121.33 47.48
  Q 121.43 48.10 121.26 48.79
  Q 121.11 48.81 121.01 48.85
  A 0.29 0.27 -14.0 0 0 120.85 49.10
  Q 120.85 49.43 121.02 49.71
  Q 120.64 50.92 120.67 52.19
  Q 120.10 53.26 120.71 54.96
  Q 120.89 58.24 120.12 61.00
  L 119.32 63.49
  L 120.43 47.99
  Q 120.69 47.61 120.44 47.04
  Q 120.63 46.80 120.27 46.05
  Q 121.30 44.88 121.33 47.48
  Z"
/>
<path fill="#1f1e3f" d="
  M 191.06 45.86
  L 191.09 48.49
  L 189.50 47.90
  Q 190.70 47.62 190.27 45.99
  L 191.06 45.86
  Z"
/>
<path fill="#a0a19c" fill-opacity="0.996" d="
  M 190.27 45.99
  Q 190.70 47.62 189.50 47.90
  Q 187.77 46.66 190.27 45.99
  Z"
/>
<path fill="#a39d34" d="
  M 180.19 46.20
  Q 180.16 46.78 180.39 47.27
  Q 180.54 48.29 180.35 49.23
  L 180.17 48.28
  Q 179.87 47.34 180.19 46.20
  Z"
/>
<rect fill="#a39d34" x="-0.70" y="-2.25" transform="translate(266.63,49.51) rotate(11.1)" width="1.40" height="4.50" rx="0.66"/>
<path fill="#a0a19c" fill-opacity="0.996" d="
  M 180.35 49.23
  L 178.66 71.76
  L 180.17 48.28
  L 180.35 49.23
  Z"
/>
<path fill="#a0a19c" fill-opacity="0.996" d="
  M 60.47 49.02
  Q 60.14 50.63 60.93 51.33
  Q 61.39 54.24 60.50 56.43
  Q 60.25 56.31 59.99 56.19
  L 60.47 49.02
  Z"
/>
<path fill="#a39d34" d="
  M 263.69 49.37
  C 265.26 50.04 265.33 52.64 264.90 53.96
  A 0.38 0.38 0.0 0 1 264.20 54.01
  Q 262.87 51.36 262.86 49.92
  A 0.60 0.59 11.3 0 1 263.69 49.37
  Z"
/>
<path fill="#1f1e3f" d="
  M 209.25 52.51
  L 209.30 51.45
  Q 210.50 51.57 211.06 52.12
  A 0.57 0.57 0.0 0 1 210.72 53.09
  Q 209.88 53.16 209.25 52.51
  Z"
/>
<path fill="#a39d34" d="
  M 270.88 58.18
  A 0.23 0.23 0.0 0 1 270.44 58.29
  L 268.75 54.14
  A 0.74 0.74 0.0 0 1 268.75 53.61
  Q 269.14 52.64 269.82 52.40
  A 0.44 0.44 0.0 0 1 270.40 52.77
  L 270.88 58.18
  Z"
/>
<path fill="#a39d34" d="
  M 330.99 52.14
  C 331.86 53.98 330.55 54.65 330.96 55.87
  Q 331.39 57.11 332.31 57.54
  A 0.53 0.52 -75.1 0 0 333.06 57.10
  L 333.23 54.55
  A 0.15 0.15 0.0 0 1 333.35 54.42
  L 333.60 54.35
  A 0.30 0.30 0.0 0 1 333.97 54.63
  Q 334.13 57.17 333.47 59.50
  A 0.61 0.51 -40.3 0 0 333.44 59.68
  L 331.79 85.22
  L 332.03 75.57
  Q 331.65 74.88 332.12 74.57
  Q 332.61 67.77 333.29 60.96
  Q 333.51 58.80 331.27 57.66
  A 1.07 1.05 -77.0 0 1 330.69 56.71
  L 330.68 55.33
  A 0.58 0.57 78.3 0 0 329.88 54.80
  Q 329.69 54.87 324.33 56.17
  C 322.96 56.51 322.53 57.31 323.06 58.61
  Q 322.27 60.17 322.89 61.63
  L 321.48 82.57
  A 0.54 0.53 7.3 0 0 321.92 83.13
  Q 323.62 83.43 323.64 84.66
  A 0.99 0.96 -18.1 0 1 323.21 85.48
  Q 322.85 85.73 322.18 85.78
  A 1.30 1.30 0.0 0 0 321.75 88.26
  L 327.53 90.89
  A 0.61 0.61 0.0 0 0 328.39 90.38
  L 328.49 88.96
  A 0.98 0.97 87.0 0 1 329.29 88.06
  Q 330.66 87.80 331.44 86.14
  L 331.61 91.93
  A 0.37 0.37 0.0 0 1 331.21 92.31
  L 330.84 92.29
  A 0.61 0.61 0.0 0 1 330.27 91.66
  Q 330.30 90.56 330.91 89.61
  A 0.52 0.52 0.0 0 0 330.51 88.82
  L 330.15 88.80
  A 1.11 1.11 0.0 0 0 329.03 89.52
  Q 328.34 91.40 329.08 94.03
  L 279.69 72.13
  A 1.46 1.46 0.0 0 0 277.64 73.36
  L 277.60 74.04
  A 0.54 0.53 -8.0 0 1 277.26 74.49
  Q 276.67 74.73 276.10 74.32
  Q 275.85 74.14 275.86 73.42
  Q 275.88 72.34 275.04 72.02
  Q 274.76 71.80 274.71 71.56
  A 0.38 0.38 0.0 0 1 275.37 71.23
  Q 275.90 71.89 276.74 72.43
  Q 277.47 72.90 279.51 71.36
  Q 280.31 70.76 280.32 69.79
  Q 280.65 69.85 280.91 69.79
  L 300.45 78.82
  Q 301.16 79.66 301.70 79.85
  Q 303.00 80.32 302.22 78.98
  Q 301.87 78.38 300.98 78.02
  Q 301.05 77.65 301.25 77.40
  Q 301.48 77.10 301.81 77.12
  Q 303.11 77.20 303.61 78.48
  Q 303.70 78.68 303.47 79.00
  Q 303.38 79.14 303.18 79.57
  A 0.38 0.37 -65.9 0 0 303.36 80.06
  L 317.67 86.57
  A 0.53 0.52 -75.5 0 0 318.41 86.13
  L 320.37 57.68
  A 0.45 0.45 0.0 0 0 319.81 57.21
  L 304.88 60.95
  A 0.49 0.49 0.0 0 0 304.55 61.64
  Q 304.69 61.92 304.70 62.01
  A 1.65 1.34 89.2 0 1 303.13 63.99
  Q 301.91 63.68 301.97 62.50
  Q 303.59 62.57 303.77 61.67
  A 0.52 0.52 0.0 0 0 303.31 61.05
  Q 302.16 60.96 301.47 61.78
  L 281.23 66.79
  L 280.54 66.81
  Q 280.08 65.30 279.25 64.41
  C 282.13 63.81 285.17 63.40 287.89 62.71
  Q 309.57 57.24 330.99 52.14
  Z
  M 321.18 83.56
  Q 320.38 84.34 320.66 84.97
  A 1.08 0.82 -58.1 0 0 322.37 84.32
  Q 322.42 84.03 321.80 83.53
  A 0.47 0.46 41.5 0 0 321.18 83.56
  Z"
/>
<path fill="#1f1e3f" d="
  M 345.29 53.35
  Q 345.81 53.44 346.24 53.30
  L 391.26 57.40
  L 399.01 58.19
  L 450.79 62.57
  L 451.96 62.63
  L 453.54 62.84
  Q 454.14 62.96 454.72 62.85
  L 501.54 66.82
  L 502.70 66.89
  L 507.03 67.47
  L 511.79 68.86
  Q 511.90 70.41 511.67 71.13
  Q 510.51 74.98 510.44 80.32
  Q 510.42 82.29 509.41 96.55
  Q 509.32 97.74 509.51 98.69
  A 0.89 0.64 49.7 0 1 509.53 98.94
  L 508.56 108.68
  A 1.01 0.91 66.4 0 1 508.41 109.13
  Q 507.68 110.28 506.14 109.29
  A 1.08 0.99 -26.7 0 0 505.58 109.13
  L 500.84 109.13
  A 0.61 0.51 49.7 0 1 500.66 109.10
  Q 497.48 108.28 494.17 108.84
  L 410.86 101.33
  Q 408.65 100.22 405.99 100.65
  Q 403.17 100.88 400.52 100.15
  L 386.98 99.35
  A 1.81 1.77 -33.2 0 1 386.42 99.24
  Q 383.46 98.14 380.24 98.65
  Q 379.01 98.18 377.85 98.55
  A 0.96 0.95 39.5 0 1 377.42 98.59
  L 329.08 94.03
  Q 328.34 91.40 329.03 89.52
  A 1.11 1.11 0.0 0 1 330.15 88.80
  L 330.51 88.82
  A 0.52 0.52 0.0 0 1 330.91 89.61
  Q 330.30 90.56 330.27 91.66
  A 0.61 0.61 0.0 0 0 330.84 92.29
  L 331.21 92.31
  A 0.37 0.37 0.0 0 0 331.61 91.93
  L 331.44 86.14
  Q 331.47 85.73 331.79 85.22
  L 333.44 59.68
  A 0.61 0.51 -40.3 0 1 333.47 59.50
  Q 334.13 57.17 333.97 54.63
  A 0.30 0.30 0.0 0 0 333.60 54.35
  L 333.35 54.42
  A 0.15 0.15 0.0 0 0 333.23 54.55
  L 333.06 57.10
  A 0.53 0.52 -75.1 0 1 332.31 57.54
  Q 331.39 57.11 330.96 55.87
  C 330.55 54.65 331.86 53.98 330.99 52.14
  L 345.29 53.35
  Z
  M 393.4529 60.2757
  A 0.47 0.47 0.0 0 0 393.0159 59.7748
  L 392.9760 59.7721
  A 0.47 0.47 0.0 0 0 392.4751 60.2090
  L 389.9871 96.7043
  A 0.47 0.47 0.0 0 0 390.4241 97.2052
  L 390.4640 97.2079
  A 0.47 0.47 0.0 0 0 390.9649 96.7710
  L 393.4529 60.2757
  Z
  M 453.0088 65.1359
  A 0.57 0.57 0.0 0 0 452.4800 64.5275
  L 452.4600 64.5261
  A 0.57 0.57 0.0 0 0 451.8517 65.0549
  L 449.2512 102.2441
  A 0.57 0.57 0.0 0 0 449.7800 102.8525
  L 449.8000 102.8539
  A 0.57 0.57 0.0 0 0 450.4083 102.3251
  L 453.0088 65.1359
  Z"
/>
<path fill="#292807" d="
  M 346.24 53.30
  Q 345.81 53.44 345.29 53.35
  Q 345.83 53.43 346.24 53.30
  Z"
/>
<path fill="#a0a19c" fill-opacity="0.996" d="
  M 399.01 58.19
  L 391.26 57.40
  Q 395.63 56.87 399.01 58.19
  Z"
/>
<path fill="#292807" d="
  M 324.01 58.96
  L 323.59 61.56
  Q 323.35 61.66 322.89 61.63
  Q 322.27 60.17 323.06 58.61
  Q 323.49 58.87 324.01 58.96
  Z"
/>
<path fill="#a39d34" d="
  M 323.59 61.56
  L 324.01 58.96
  Q 325.70 59.40 325.09 60.83
  Q 324.82 61.47 323.59 61.56
  Z"
/>
<rect fill="#a0a19c" fill-opacity="0.996" x="-0.49" y="-18.76" transform="translate(391.72,78.49) rotate(3.9)" width="0.98" height="37.52" rx="0.47"/>
<path fill="#a0a19c" fill-opacity="0.996" d="
  M 59.79 60.03
  Q 59.78 60.56 60.30 60.56
  Q 60.94 62.93 60.64 65.34
  A 0.26 0.25 -85.1 0 1 60.38 65.57
  L 60.37 65.57
  A 0.27 0.26 1.3 0 1 60.12 65.32
  Q 60.11 64.67 59.86 64.05
  Q 60.39 62.70 59.79 62.44
  Q 59.58 61.00 59.79 60.03
  Z"
/>
<path fill="#a39d34" d="
  M 270.96 62.12
  Q 270.44 62.69 270.85 64.11
  Q 272.82 65.92 270.86 67.94
  L 270.65 75.79
  A 0.64 0.63 -87.0 0 1 269.97 76.41
  L 261.75 75.73
  Q 260.88 75.74 260.65 75.33
  Q 260.44 74.95 260.96 74.28
  Q 263.24 71.31 264.99 69.35
  A 4.48 4.09 83.6 0 0 265.55 68.58
  Q 266.93 66.06 269.61 63.37
  C 270.14 62.85 270.19 62.16 270.12 61.49
  A 0.36 0.36 0.0 0 1 270.80 61.30
  Q 270.95 61.63 270.96 62.12
  Z"
/>
<path fill="#1f1e3f" d="
  M 301.97 62.50
  Q 301.73 61.98 301.47 61.78
  Q 302.16 60.96 303.31 61.05
  A 0.52 0.52 0.0 0 1 303.77 61.67
  Q 303.59 62.57 301.97 62.50
  Z"
/>
<path fill="#292807" d="
  M 451.96 62.63
  L 450.79 62.57
  L 451.96 62.63
  Z"
/>
<path fill="#292807" d="
  M 454.72 62.85
  Q 454.14 62.96 453.54 62.84
  L 454.72 62.85
  Z"
/>
<path fill="#a0a19c" fill-opacity="0.996" d="
  M 119.98 64.30
  L 119.85 68.04
  L 119.77 68.96
  L 119.57 70.25
  Q 119.14 71.08 119.34 71.49
  Q 119.26 71.66 119.17 71.75
  A 0.25 0.24 70.6 0 1 118.76 71.55
  L 119.43 63.76
  Q 119.43 64.07 119.98 64.30
  Z"
/>
<rect fill="#a0a19c" fill-opacity="0.996" x="-0.58" y="-19.21" transform="translate(451.13,83.69) rotate(4.0)" width="1.16" height="38.42" rx="0.57"/>
<path fill="#a0a19c" fill-opacity="0.996" d="
  M 281.23 66.79
  Q 281.18 66.92 281.14 67.04
  L 281.04 67.71
  L 281.11 69.01
  L 280.91 69.79
  Q 280.65 69.85 280.32 69.79
  L 280.54 66.81
  L 281.23 66.79
  Z"
/>
<path fill="#292807" d="
  M 502.70 66.89
  L 501.54 66.82
  L 502.70 66.89
  Z"
/>
<path fill="#292807" d="
  M 281.14 67.04
  L 281.14 67.71
  Q 281.09 67.71 281.04 67.71
  L 281.14 67.04
  Z"
/>
<ellipse fill="#a0a19c" fill-opacity="0.996" cx="0.00" cy="0.00" transform="translate(276.86,68.60) rotate(-90.3)" rx="1.44" ry="0.82"/>
<path fill="#a0a19c" fill-opacity="0.996" d="
  M 511.79 68.86
  L 507.03 67.47
  Q 511.21 67.21 511.79 68.86
  Z"
/>
<path fill="#a39d34" d="
  M 281.14 67.71
  L 281.11 69.01
  L 281.04 67.71
  Q 281.09 67.71 281.14 67.71
  Z"
/>
<path fill="#a0a19c" fill-opacity="0.996" d="
  M 210.41 69.56
  L 208.20 68.96
  Q 208.29 68.07 209.25 68.06
  Q 210.36 68.06 210.41 69.56
  Z"
/>
<path fill="#1f1e3f" d="
  M 208.20 68.96
  L 210.41 69.56
  L 210.59 70.00
  Q 209.59 70.61 208.25 70.59
  Q 208.02 69.67 208.20 68.96
  Z"
/>
<path fill="#1f1e3f" d="
  M 189.36 70.52
  L 189.04 71.33
  Q 188.38 70.82 187.78 70.69
  Q 188.42 70.44 189.36 70.52
  Z"
/>
<path fill="#a0a19c" fill-opacity="0.996" d="
  M 187.78 70.69
  Q 188.38 70.82 189.04 71.33
  L 189.22 72.76
  Q 188.05 72.68 187.62 72.13
  Q 186.92 71.22 187.78 70.69
  Z"
/>
<path fill="#a0a19c" fill-opacity="0.996" d="
  M 511.67 71.13
  L 508.94 110.00
  L 502.85 110.00
  L 494.17 108.84
  Q 497.48 108.28 500.66 109.10
  A 0.61 0.51 49.7 0 0 500.84 109.13
  L 505.58 109.13
  A 1.08 0.99 -26.7 0 1 506.14 109.29
  Q 507.68 110.28 508.41 109.13
  A 1.01 0.91 66.4 0 0 508.56 108.68
  L 509.53 98.94
  A 0.89 0.64 49.7 0 0 509.51 98.69
  Q 509.32 97.74 509.41 96.55
  Q 510.42 82.29 510.44 80.32
  Q 510.51 74.98 511.67 71.13
  Z"
/>
<path fill="#a0a19c" fill-opacity="0.996" d="
  M 179.09 72.71
  Q 179.02 73.95 179.25 74.31
  Q 179.33 74.77 179.17 75.29
  Q 178.76 75.36 178.89 75.79
  L 178.87 77.19
  A 0.22 0.22 0.0 0 1 178.43 77.22
  Q 177.92 74.35 179.09 72.71
  Z"
/>
<path fill="#292807" d="
  M 332.12 74.57
  Q 331.65 74.88 332.03 75.57
  Q 331.94 75.07 332.12 74.57
  Z"
/>
<path fill="#292807" d="
  M 223.80 76.22
  Q 225.06 78.13 229.29 77.58
  A 1.15 1.15 0.0 0 1 230.55 78.44
  L 230.66 78.89
  A 0.56 0.56 0.0 0 1 230.04 79.59
  L 222.65 78.60
  Q 222.34 78.03 223.80 76.22
  Z"
/>
<path fill="#1f1e3f" d="
  M 300.98 78.02
  Q 301.87 78.38 302.22 78.98
  Q 303.00 80.32 301.70 79.85
  Q 301.16 79.66 300.45 78.82
  L 300.98 78.02
  Z"
/>
<path fill="#a0a19c" fill-opacity="0.996" d="
  M 221.49 81.45
  L 221.39 94.41
  A 0.68 0.67 -69.9 0 0 221.62 94.92
  Q 221.98 95.23 221.94 95.66
  Q 221.74 94.99 220.53 95.78
  A 0.39 0.39 0.0 0 1 219.92 95.45
  L 219.92 83.54
  A 1.12 1.11 -24.0 0 1 220.21 82.79
  L 221.49 81.45
  Z"
/>
<path fill="#a0a19c" fill-opacity="0.996" d="
  M 255.62 82.38
  Q 256.46 82.94 256.48 83.36
  A 1.63 1.47 -2.0 0 1 254.89 84.89
  Q 253.72 84.93 253.06 84.33
  Q 252.54 83.84 252.72 83.23
  Q 252.88 82.70 253.49 82.34
  Q 254.73 81.86 255.62 82.38
  Z"
/>
<path fill="#1f1e3f" d="
  M 321.80 83.53
  Q 322.42 84.03 322.37 84.32
  A 1.08 0.82 -58.1 0 1 320.66 84.97
  Q 320.38 84.34 321.18 83.56
  A 0.47 0.46 41.5 0 1 321.80 83.53
  Z"
/>
<path fill="#292807" d="
  M 247.3930 88.1394
  A 0.62 0.62 0.0 0 1 246.7435 88.7284
  L 236.4757 88.2262
  A 0.62 0.62 0.0 0 1 235.8868 87.5767
  L 236.0470 84.3006
  A 0.62 0.62 0.0 0 1 236.6965 83.7116
  L 246.9643 84.2138
  A 0.62 0.62 0.0 0 1 247.5532 84.8633
  L 247.3930 88.1394
  Z
  M 241.28 87.10
  A 3.03 1.04 1.5 0 0 242.84 85.55
  A 3.03 1.03 1.6 0 0 239.24 85.10
  A 3.04 1.04 1.2 0 0 237.46 85.73
  A 3.04 1.05 1.6 0 0 238.21 86.78
  A 3.02 1.04 1.2 0 0 241.28 87.10
  Z"
/>
<path fill="#1f1e3f" d="
  M 242.84 85.55
  Q 239.95 85.55 241.28 87.10
  A 3.02 1.04 1.2 0 1 238.21 86.78
  A 3.04 1.05 1.6 0 1 237.46 85.73
  A 3.04 1.04 1.2 0 1 239.24 85.10
  A 3.03 1.03 1.6 0 1 242.84 85.55
  Z"
/>
<path fill="#a0a19c" fill-opacity="0.996" d="
  M 242.84 85.55
  A 3.03 1.04 1.5 0 1 241.28 87.10
  Q 239.95 85.55 242.84 85.55
  Z"
/>
<path fill="#a39d34" d="
  M 253.79 86.46
  A 0.12 0.12 0.0 0 1 253.98 86.34
  Q 255.81 87.83 255.72 89.79
  A 0.54 0.54 0.0 0 1 254.65 89.90
  L 253.79 86.46
  Z"
/>
<ellipse fill="#a39d34" cx="0.00" cy="0.00" transform="translate(254.22,93.10) rotate(-71.0)" rx="1.15" ry="0.60"/>
<path fill="#a0a19c" fill-opacity="0.996" d="
  M 400.52 100.15
  Q 396.39 100.31 392.25 99.65
  Q 391.82 99.59 390.46 99.93
  A 2.43 2.39 41.9 0 1 389.59 99.97
  L 380.24 98.65
  Q 383.46 98.14 386.42 99.24
  A 1.81 1.77 -33.2 0 0 386.98 99.35
  L 400.52 100.15
  Z"
/>
<path fill="#a0a19c" fill-opacity="0.996" d="
  M 410.86 101.33
  Q 408.28 101.37 405.99 100.65
  Q 408.65 100.22 410.86 101.33
  Z"
/>
</svg>
