<?xml version="1.0" encoding="UTF-8" standalone="no"?>
<!-- Created with Inkscape (http://www.inkscape.org/) -->

<svg
   version="1.1"
   id="svg1"
   width="512"
   height="559"
   viewBox="0 0 512 559"
   xmlns="http://www.w3.org/2000/svg"
   xmlns:svg="http://www.w3.org/2000/svg"
   xmlns:rdf="http://www.w3.org/1999/02/22-rdf-syntax-ns#"
   xmlns:cc="http://creativecommons.org/ns#"
   xmlns:dc="http://purl.org/dc/elements/1.1/">
  <title
     id="title1">DubaiSat Icon SVG </title>
  <defs
     id="defs1" />
  <g
     id="g1">
    <path
       style="fill:currentColor"
       d="m 38.740112,558.04202 c 7.330205,-0.87134 22.261527,0.94871 25.083118,-1.51904 C 42.781758,538.83883 21.891179,520.9768 1.1159334,502.98081 -0.13715307,505.05288 0.53733682,469.37313 0.23035621,456.61604 0.22192716,426.46035 -0.12749958,396.29664 0.47936604,366.14603 1.6490705,408.88725 0.23983495,451.68134 1.889201,494.40742 31.037025,445.92207 61.03905,397.45379 88.290372,348.18388 c 3.880027,-1.9678 -11.08924,16.65413 1.626761,0.81612 10.496287,10.84474 29.715437,15.40613 10.938227,-1.89253 -16.695292,-14.85715 23.71071,24.82343 -0.67307,7.77141 -22.46333,-18.31995 19.6029,15.71473 2.73431,-3.79495 -15.997945,-8.74856 -11.381526,-14.50115 -8.924307,-29.82694 9.521127,-0.57228 2.23682,-15.29928 4.507707,-21.97822 -4.986412,-20.55367 11.11674,-42.48626 11.8665,-58.99812 -1.97368,11.66286 -13.065447,35.36015 -3.84658,10.11851 6.77014,-9.56819 -3.95598,-19.12652 1.80553,-15.89916 17.1066,-18.21979 -5.34112,-36.42016 -5.87067,-59.22742 C 93.518298,140.22179 84.436512,103.7379 76.019892,69.580108 74.064102,90.496403 74.399137,58.320389 89.373467,58.11823 114.96258,40.192105 139.46603,20.562585 165.94792,4 c 11.55032,7.423633 10.93405,34.48256 5.58648,7.864052 C 158.27957,-3.7167047 136.18195,31.123927 119.96674,37.085091 110.17639,44.456434 83.935563,62.174706 82.411445,65.035587 110.49447,45.679674 137.42326,23.882679 166.30912,6.1833512 177.71823,27.16738 179.81974,53.054446 187.03271,76.128125 193.68981,101.04874 198.87699,126.5035 206.81077,151 c 18.80047,-29.04874 36.05159,-59.181526 53.18307,-89.276299 -8.12575,13.106727 -10.24197,14.722135 -1.48374,0.150341 9.29888,-14.659339 24.85774,-43.454425 30.91452,-49.935982 -7.01543,12.28686 -28.71131,46.813082 -26.0725,45.223797 C 277.28457,39.889481 286.61185,8.6036256 299.88779,0.42810859 321.57256,11.930135 338.52138,31.603967 357.98302,46.728401 c 7.5199,5.712627 18.83001,12.704591 7.32055,20.908528 9.65557,-20.91446 -29.0971,-31.364031 -39.91945,-47.608688 -10.06435,-9.478782 -33.92708,-28.0678512 -10.28633,-7.730287 14.52184,17.641204 49.61923,31.307785 51.03767,51.614499 C 341.77751,105.31705 315.99343,145.96464 293,188.12043 c 22.93643,7.52826 49.77196,14.64849 71.75676,26.15944 5.64729,2.32438 16.64196,-7.7545 11.75728,6.96656 13.50707,10.93339 25.83994,23.84608 39.66235,34.75998 16.82311,-12.43405 2.48821,23.89237 21.78791,25.44278 7.30783,17.27029 31.80655,-12.8038 30.28413,-3.87305 -15.21213,7.6075 -26.32375,16.76959 -38.35751,-1.78539 -11.63389,-8.13151 0.59306,-27.23617 -16.9121,-21.37676 -7.82424,-4.41287 -34.83953,-33.63936 -28.46372,-23.95166 12.30489,7.91307 25.24457,31.25641 39.4849,24.59485 -7.62488,14.17266 14.17741,35.93498 25.79861,32.64018 20.77765,-22.38317 44.41958,5.97154 52.55452,25.75334 4.78831,10.76106 9.12314,32.09222 8.1518,7.7051 0.89735,-106.88198 0.68057,-213.77066 1.0156,-320.6558 0.0166,141.43715 0.60236,282.87695 -0.0417,424.31213 -1.35754,-12.99386 0.84715,-47.8937 -5.09218,-16.09428 -2.1694,8.30303 -31.79358,27.73761 -48.66306,31.50934 -26.96484,12.17315 -54.13146,-10.06088 -73.24746,-17.92641 -14.80619,4.43026 -41.83182,2.09989 -32.92701,24.10487 -6.86307,5.29871 -35.00777,-0.523 -17.40543,2.56863 1.08592,2.37979 -21.38717,-2.48496 -29.19238,2.48165 6.29426,-2.62033 -38.55182,-20.6195 -21.39977,4.66161 7.19697,19.90431 12.91707,39.01887 -11.56699,47.58092 -24.07642,16.42731 -46.74177,35.31912 -71.76044,50.12262 30.27421,-16.34157 57.14056,-39.47307 85.51925,-59.28871 8.61541,-6.17507 8.29843,-19.25704 4.99588,-2.86821 -28.76039,21.52517 -57.68522,43.185 -87.74624,62.77869 -10.30978,-2.3764 -11.31029,-22.68329 -5.33764,-4.78507 -13.06803,-46.82788 -22.75244,-95.36886 -37.29575,-141.28726 4.61113,12.98954 8.5913,38.32293 2.06524,10.93168 -6.22627,-17.93161 -19.33588,24.25506 -27.38038,31.38535 -6.58963,10.28596 -14.53479,26.42491 -2.99666,6.8817 6.84446,-13.0867 17.77544,-28.10768 4.9262,-6.57667 -17.08212,27.87698 -33.33126,56.27959 -50.632341,84.00742 4.818812,-9.32777 18.789641,-33.31997 5.24121,-11.50596 -8.933981,9.94635 -10.070265,34.14362 -25.140141,35.01444 -17.980892,0.0252 -35.961785,0.0503 -53.942678,0.0755 8.746694,-0.18066 17.493388,-0.36132 26.240082,-0.54198 z m 41.022533,-13.26389 c 14.269671,-25.74797 -18.78889,29.07 -4.253193,7.00044 l 2.065707,-3.35038 z M 111.97853,490.8718 c 5.68642,-8.88141 17.63805,-30.67895 4.81224,-9.60961 -5.76607,9.00609 -26.423969,44.24753 -9.55363,17.42501 l 2.29974,-3.77207 z m 197.57273,-40.92844 c 10.18425,-2.85743 24.62995,-6.46733 4.3802,-2.46511 -2.5876,-2.11195 -11.70565,8.89649 -4.3802,2.46511 z M 440,296.08078 c -7.85525,-11.17966 -27.54241,-23.28198 -17.33729,-0.99994 4.85291,0.10152 13.64474,5.92117 17.33729,0.99994 z M 431,296 c -6.22212,-2.89786 13.23727,2.73975 0,0 z m 6.28068,0.38598 c -3.92895,-4.77853 -15.74523,-19.04957 -15.98886,-4.76083 -4.9523,-21.46522 19.6436,5.52194 15.98886,4.76083 z M 423,294 c -6.22212,-2.89786 13.23727,2.73975 0,0 z m -45.17588,-70.82416 c -7.71027,-1.59778 2.61222,-17.6184 -4.06134,-2.13026 -1.051,3.24724 12.17008,5.38911 4.06134,2.13026 z M 208,152.77057 c -3.20614,-0.75376 -3.20878,4.55511 0,0 z M 58.733964,556.16442 C 41.375206,537.71228 20.441795,522.97948 2.0520405,505.68139 c 20.0486275,16.42463 40.3056085,32.9772 59.1245285,50.71117 -0.132575,0.043 -3.554983,1.13371 -2.442605,-0.22814 z M 192,536.59796 c -3.44133,-12.5409 -11.44248,-47.63445 -3.19052,-17.02429 1.25536,5.38599 3.62125,12.8318 3.19052,17.02429 z m -9.92308,-39.67488 c -3.14837,-19.55852 4.96479,17.50217 0,0 z M 2,491.05902 c 2.1437536,-5.36382 1.4400318,3.46024 0,0 z m 178,-1.43672 c -3.18484,-12.54529 -14.56304,-59.40766 -5.16338,-25.14829 1.60656,7.91796 5.38131,18.31081 5.16338,25.14829 z M 5.2015782,485.75 c 5.5449848,-10.29883 14.0798338,-20.87406 3.40943,-4 1.3406868,-1.64797 -7.1702016,11.33162 -3.40943,4 z M 289.56687,476 c -5.91811,-19.13045 -0.0959,-11.6128 0.68124,2.65263 z M 18.026676,464.5 c 4.862833,-9.60171 16.344233,-25.36424 4.832775,-6.32986 -1.058538,1.71346 -11.820906,19.87067 -4.832775,6.32986 z m 266.050244,-9.57692 c -3.14837,-19.55852 4.96479,17.50217 0,0 z M 338,449.85909 c -3.16831,1.04622 26.9538,-0.96425 13.88843,-18.22465 11.29273,-4.94638 13.49605,-3.03343 0.58814,0.40347 7.24127,9.83826 -2.91271,25.92018 -14.47657,17.82118 z m -45.5,-2.78585 c -20.69541,-2.40066 -6.95888,-6.81405 8.12067,1.68716 -2.74578,0.64452 -5.53565,-1.46412 -8.12067,-1.68716 z m -124.42308,-5.15016 c -3.14837,-19.55852 4.96479,17.50217 0,0 z M 30.006161,445.29177 C 39.103458,428.39333 67.36757,381.16922 65.394386,386.73125 53.556459,406.19238 42.406113,426.29117 30.006161,445.29177 Z M 425.1119,443.98326 c -13.225,-1.22177 51.08358,-1.75698 20.44121,0.36207 -6.79502,0.25233 -13.68611,0.62169 -20.44121,-0.36207 z M 414.25,440.96884 c -7.77431,-4.6268 12.5816,3.63494 0,0 z m 49.25656,-1.29341 c 12.06317,-3.31965 38.81989,-22.35666 39.75444,-23.54135 -5.17778,8.90611 -44.781,28.16692 -39.75444,23.54135 z m -56.06543,-2.2306 c -5.06771,-4.15725 9.8795,5.01275 0,0 z M 147.07402,432.5 c 9.87601,-16.21284 -4.23097,9.42524 0,0 z m 254.8494,1.74341 c -10.38121,-6.57314 -16.31164,-16.21579 -3.09555,-3.50812 -0.0104,0.12353 11.44538,8.95215 3.09555,3.50812 z M 369.5,426.4772 c 11.46045,-3.16166 3.47148,1.21622 -3,1.30801 z M 152,424 c 4.83614,-7.23379 -2.57102,7.10813 0,0 z m 229,0 c 16.79864,-3.42067 -4.76305,2.90327 0,0 z m -226.43571,-4.29313 c 3.50436,-4.56352 -1.26619,4.16137 0,0 z M 157,416.3578 c 2.79844,-7.36385 3.25302,-1.494 0,0 z m 351.60059,-12.02401 c 3.22088,-10.2037 -0.56601,8.12211 0,0 z M 69.309542,378.5 c 9.38166,-16.57583 -2.224186,7.82082 0,0 z m 6.764475,-11 c 9.876018,-16.21284 -4.230961,9.42524 0,0 z M 80,360.11803 c 2.934486,-5.79003 2.153955,2.66462 0,0 z M 90.201244,330.40499 C 90.477877,320.73882 103.82524,300.75294 95.622445,320 c -8.031009,-2.58019 -3.943437,33.35946 -5.421201,10.40499 z m 417.064416,-7.09968 c -5.04908,-14.58806 3.48055,6.92976 1.43931,-10.19848 0.34149,-12.5342 0.56686,-25.0712 0.84873,-37.60683 0.086,18.16213 0.47518,36.32726 0.19625,54.48764 l -0.8329,-1.96811 -1.65144,-4.71422 z M 502.9756,311.9411 c -3.11042,-11.22322 -23.79507,-30.26046 -25.06022,-32.07552 9.57596,5.92433 27.73037,30.40202 25.06022,32.07552 z M 96.320074,302 c 0.736868,-11.5582 0.736868,11.5582 0,0 z m 0.860174,-11.11043 c -2.323422,-18.68211 0.432643,-13.77752 0.42768,1.52158 -0.340809,6.96204 -0.21548,1.37493 -0.42768,-1.52158 z M 97.036333,275.5 c 4.288417,-10.51906 6.564477,-7.21084 0,0 z m 11.010227,-44.78324 c 6.20481,-17.64349 14.81377,-16.44189 0,0 z m 256.70407,-17.3947 c -22.02568,-6.82374 12.62241,2.04388 6.43174,-0.82206 -1.15702,2.90238 -4.98696,3.06314 -6.43174,0.82206 z M 109,209 c -3.46223,-19.23978 5.27614,17.1905 0,0 z m 242.31368,-1.86933 c -12.87393,-6.73902 -52.79903,-18.52498 -18.72104,-8.61586 3.99409,0.0146 25.5577,10.47493 18.72104,8.61586 z M 107,201.53847 c -3.10773,-12.19779 -14.597085,-58.47552 -5.24614,-25.11689 1.63559,7.8447 5.52164,18.51934 5.24614,25.11689 z M 308,191.5 c -24.51328,-6.23733 19.6889,3.48694 0,0 z m -13.60374,-2.90974 c 4.78416,-24.39325 3.24142,6.58409 0,0 z M 299,178.68425 C 320.4734,141.89253 342.16623,105.19019 364.63841,69 c -21.2667,36.98648 -43.24042,73.75095 -65.62236,110.07064 z M 93.535714,147.96429 c -6.432006,-27.65267 5.2593,12.83683 2.0042,7.76559 l -0.935772,-3.46279 z M 205.22316,143.75 c -3.45588,-11.5092 5.06771,10.15802 8.79124,-7.56218 C 226.39633,116.2363 237.97306,95.787765 250.6178,76 c -13.66901,24.82703 -28.58204,49.03243 -43.72217,73 z m -5.64421,-21.82895 c -3.89194,-14.55812 -3.21332,-18.35035 0.8421,-0.8421 2.24557,7.32934 4.82091,23.20186 0.63248,6.68015 z m -110.495617,8.49562 c -3.362063,-17.55945 5.146905,15.54691 0,0 z m -2.527777,-9.97223 c -1.606626,-14.04154 3.51984,11.87356 0,0 z M 85,114.81458 c -3.774382,-13.2594 -6.215245,-30.084137 -0.622427,-7.01507 -1.571335,0.4554 3.733211,7.42605 0.622427,7.01507 z M 194.64204,103.25 c -4.60683,-20.635135 3.98178,7.55973 0,0 z m -3.49918,-14.892857 c -3.60097,-19.030867 5.22622,17.137597 0,0 z M 78.076923,86.923077 c -3.148385,-19.558518 4.964785,17.502183 0,0 z M 189,80.603651 c -3.05307,-10.951374 -10.19997,-42.387104 -2.72012,-14.968437 0.86287,4.272664 3.46665,11.788193 2.72012,14.968437 z m -8.92308,-35.680574 c -3.14837,-19.558517 4.96479,17.50218 0,0 z m -2.91025,-11.589744 c -3.64642,-17.269318 5.42924,15.264118 0,0 z M 292,6 c 4.83614,-7.2337872 -2.57102,7.108125 0,0 z"
       id="path1" />
  </g>
  <metadata
     id="metadata1">
    <rdf:RDF>
      <cc:Work
         rdf:about="">
        <dc:title>DubaiSat Icon SVG </dc:title>
        <dc:source>https://www.eoportal.org/api/cms/documents/163813/6584772/DubaiSat-2_50.jpg/555a81ab-645e-c1d7-f077-cb02078cdd8f?t=1668128765723</dc:source>
      </cc:Work>
    </rdf:RDF>
  </metadata>
</svg>
