<?xml version="1.0" encoding="UTF-8" standalone="no"?>
<!-- Created with Inkscape (http://www.inkscape.org/) -->

<svg
   version="1.1"
   id="svg1"
   width="655.35999"
   height="643.84003"
   viewBox="0 0 655.35999 643.84003"
   xmlns="http://www.w3.org/2000/svg"
   xmlns:svg="http://www.w3.org/2000/svg"
   xmlns:rdf="http://www.w3.org/1999/02/22-rdf-syntax-ns#"
   xmlns:cc="http://creativecommons.org/ns#"
   xmlns:dc="http://purl.org/dc/elements/1.1/">
  <title
     id="title1">DubaiSat-2 Icon SVG</title>
  <defs
     id="defs1" />
  <g
     id="g1">
    <path
       style="fill:currentColor"
       d="M 201.6,642.33437 C 138.12873,618.96948 81.071582,575.43977 44.970093,517.92882 c -6.52478,-26.6891 16.693558,-53.58359 42.709905,-57.67124 22.828382,0.28911 26.456932,-39.06679 27.520002,-54.98083 -3.28232,-5.86407 12.979,-11.81254 11.51526,-27.05124 13.02847,-13.8676 -8.50065,-28.16934 1.71874,-29.86481 -18.49342,-16.02967 27.84811,-7.13393 2.444,-18.76989 -2.53011,-8.31222 16.33172,11.61813 13.38228,-8.42483 12.48466,-19.43315 52.46869,-38.82114 12.32737,-52.57813 -27.69641,-18.74453 -54.68555,-37.59409 -81.988207,-55.83222 0.505219,-29.84608 10.651507,-59.83559 15.496188,-89.57644 4.778763,-33.422757 40.002519,12.21166 57.088409,16.82725 34.82251,24.45058 71.45346,46.19009 105.73138,71.38034 -12.0472,23.08637 12.32965,8.69031 19.00561,6.92774 3.91569,-7.28018 -24.44489,-11.69832 -18.94414,-19.6283 -0.57233,-19.17174 -9.10025,-51.00437 -12.37513,-74.84876 C 234.626,83.857497 224.16042,44.335666 220.74913,4.102349 c 46.71886,-1.6894222 93.63086,-3.16059178 140.33,-1.940488 12.75705,26.644945 7.68727,65.78246 13.84766,96.992828 3.97308,41.704451 9.54345,83.335231 11.63317,125.176101 -14.66679,-3.04101 -53.39663,-3.35053 -17.70616,5.60588 15.83415,1.14656 8.42526,9.14296 21.82832,4.53392 11.3839,13.68744 7.48129,16.12992 21.27368,36.84143 16.79389,17.65118 22.29482,44.67225 42.28168,59.87542 10.02127,4.17628 9.1137,31.01489 5.68381,46.17527 14.98024,-37.48784 44.76475,3.7702 66.66924,13.80552 37.97354,26.18747 77.3014,50.26629 115.24138,76.47025 35.5671,17.43673 -16.16746,32.1539 -26.50262,53.45026 -18.60602,16.97011 -37.40707,50.76347 -60.02133,19.787 -45.49334,-30.48369 -91.60952,-62.59539 -136.45898,-92.55368 -0.0103,-9.07856 13.63035,-34.45869 -4.30609,-13.33183 -5.9559,28.53881 6.22163,63.05893 5.96838,93.9803 -0.58096,18.37501 16.94031,66.87881 -18.40877,46.38692 -25.61732,-6.31445 -53.95334,-17.00265 -78.07566,-18.47931 -1.72221,24.77361 -36.34079,1.17007 -51.07728,-0.43737 -26.49167,13.91791 -45.3709,33.12619 -41.31379,64.74542 -5.66175,18.91282 -7.58147,27.20199 -30.03577,21.14818 z m 42.87999,-76.63413 c 21.44672,-10.24192 36.10835,-30.23335 8.05254,-24.84968 -5.40797,-14.8318 -28.5471,14.9149 -22.667,26.20045 1.33204,14.97988 6.67521,1.52057 14.61446,-1.35077 z M 124.16,572.80002 c -1.63516,-2.29597 -1.63516,2.29597 0,0 z m 57.6,-8.96 c -1.63516,-2.29597 -1.63516,2.29597 0,0 z m 3.41333,-0.21333 c -4.34515,-0.96416 0.30821,2.58009 0,0 z m 132.26666,0.21333 c -1.63516,-2.29597 -1.63516,2.29597 0,0 z m -138.34666,-2.40099 c -11.22653,-5.49818 -2.93679,2.08862 0,0 z m -10.1704,-4.689 c -9.70031,-4.9472 4.96968,6.71208 0,0 z M 163.84,554.95556 c -2.76034,-4.75136 -2.6846,1.51751 0,0 z m 166.39999,-1.35554 c -1.63516,-2.29597 -1.63516,2.29597 0,0 z m -171.8201,-2.40727 c -7.96326,-10.42512 -2.54032,2.89681 0,0 z m 169.2601,1.12727 c -1.63516,-2.29597 -1.63516,2.29597 0,0 z m -176.48116,-7.38133 c -4.25421,-3.31296 4.04753,6.98172 0,0 z M 149.12,542.72002 c 1.09959,-4.6243 -4.01686,4.78198 0,0 z m 429.43999,-3.2 c -1.63516,-2.29597 -1.63516,2.29597 0,0 z m -436.18511,-3.2 c -12.17321,-9.33221 8.02707,9.15258 0,0 z m -6.1765,-6.68016 c -14.71708,-16.45055 6.56275,10.76056 0,0 z M 129.28,520.32002 c -1.63516,-2.29597 -1.63516,2.29597 0,0 z m -1.28,-2.56 c -1.63516,-2.29597 -1.63516,2.29597 0,0 z m 474.87999,-6.4 c -1.63516,-2.29597 -1.63516,2.29597 0,0 z M 121.6,506.24002 c -1.63516,-2.29597 -1.63516,2.29597 0,0 z m 10.24,-10.24 c -1.63516,-2.29597 -1.63516,2.29597 0,0 z m -2.56,-1.28 c -1.63516,-2.29597 -1.63516,2.29597 0,0 z m 244.47999,0 c -1.63516,-2.29597 -1.63516,2.29597 0,0 z M 174.08,483.20002 c -1.63516,-2.29597 -1.63516,2.29597 0,0 z m 459.51999,0 c -1.63516,-2.29597 -1.63516,2.29597 0,0 z M 172.8,480.64002 c -1.63516,-2.29597 -1.63516,2.29597 0,0 z m -5.12,-2.51496 c -5.77618,-5.42801 -5.27992,-0.56753 0,0 z m -6.4,-3.88504 c -1.63516,-2.29597 -1.63516,2.29597 0,0 z m -5.54667,-2.77333 c -4.34515,-0.96416 0.30821,2.58009 0,0 z m -24.96159,-17.38667 c 24.60239,-1.68165 -6.58993,-43.17589 -9.19923,-28.02407 -4.0932,15.86232 -24.195875,44.49596 9.19923,28.02407 z m 296.32158,-32.53334 c -4.34515,-0.96413 0.30824,2.5801 0,0 z m 6.4,-3.84 c -2.58008,-0.30815 0.96415,4.34513 0,0 z m 1.70667,-2.34666 c -1.63516,-2.29597 -1.63516,2.29597 0,0 z m -2.56,-1.28 c -1.63516,-2.29597 -1.63516,2.29597 0,0 z m 3.84,-1.28 c -1.63516,-2.29597 -1.63516,2.29597 0,0 z m -0.84203,-6.01657 c 0.49347,-7.13317 -9.43011,13.41521 0,0 z m 3.40203,2.17657 c -1.63516,-2.29597 -1.63516,2.29597 0,0 z m 0,-3.84 c -1.63516,-2.29597 -1.63516,2.29597 0,0 z m 2.56,-1.12327 c -4.14419,-5.92888 -4.50815,-1.00221 0,0 z m 2.11297,-6.61764 c -5.77133,-4.62491 2.75366,10.24917 0,0 z m -3.39297,1.34091 c -1.63516,-2.29597 -1.63516,2.29597 0,0 z m -25.6,-28.16 c -1.63516,-2.29597 -1.63516,2.29597 0,0 z m -80.64,-16.64001 c -1.63516,-2.29597 -1.63516,2.29597 0,0 z m 126.29333,-2.77333 c -2.58007,-0.30816 0.96415,4.34513 0,0 z m -122.75209,-2.28323 c -4.90638,-11.98392 -0.26249,7.45416 0,0 z m -6.10124,1.21656 c -1.63516,-2.29597 -1.63516,2.29597 0,0 z m 10.24,-2.48445 c -2.76033,-4.75135 -2.6846,1.51748 0,0 z m 116.05333,-1.56888 c -2.58007,-0.30816 0.96415,4.34513 0,0 z m 3.22134,-0.704 c -4.54711,-2.73578 3.1621,6.65887 0,0 z m -112.98423,-5.48267 c -5.24226,1.97353 -0.26916,9.28851 0,0 z m -9.2771,2.34667 c -2.58009,-0.30817 0.96414,4.34514 0,0 z m 11.94666,1.49333 c -1.63516,-2.29597 -1.63516,2.29597 0,0 z m 23.04,0 c -1.63516,-2.29597 -1.63516,2.29597 0,0 z m -28.1178,-5.12 c -0.39244,-5.76667 -9.74274,3.53128 0,0 z m 9.77114,2.34667 c -4.34514,-0.96417 0.3082,2.58009 0,0 z m -3.84,-2.56 c -2.58009,-0.30817 0.96414,4.34514 0,0 z m 107.94666,1.49333 c -1.63516,-2.29597 -1.63516,2.29597 0,0 z m -102.4,-1.28 c -1.63516,-2.29597 -1.63516,2.29597 0,0 z m 11.52,0 c -1.63516,-2.29597 -1.63516,2.29597 0,0 z m -17.28,-3.2 c 1.09961,-4.6243 -4.01686,4.78197 0,0 z m 10.88,0.64 c -1.63516,-2.29597 -1.63516,2.29597 0,0 z m 3.84,-1.92 c -3.51482,-4.77822 -1.16043,4.41496 0,0 z m -16.64,-0.64 c -1.63516,-2.29597 -1.63516,2.29597 0,0 z m 8.53334,-1.49333 c -2.58009,-0.30817 0.96414,4.34514 0,0 z m -14.93334,-1.06667 c -1.63516,-2.29597 -1.63516,2.29597 0,0 z m 7.68,0 c -1.63516,-2.29597 -1.63516,2.29597 0,0 z m -5.76,-5.76 c 1.09961,-4.6243 -4.01686,4.78197 0,0 z m 11.52,-2.56 c 1.09961,-4.6243 -4.01686,4.78197 0,0 z m -4.90666,-0.85333 c -4.34514,-0.96417 0.3082,2.58009 0,0 z m 8.10666,0.21333 c -1.63516,-2.29597 -1.63516,2.29597 0,0 z m 0,-2.56 c -1.63516,-2.29597 -1.63516,2.29597 0,0 z m -129.28,-14.08 c -1.63516,-2.29597 -1.63516,2.29597 0,0 z m 8.61334,-1.41333 c -4.7123,-1.45177 -2.3515,2.22914 0,0 z m 10.58666,-3.06667 c -4.33478,-3.57765 -8.13698,1.0029 0,0 z m 8.61334,0.50667 c -4.7123,-1.45177 -2.3515,2.22914 0,0 z m -41.04,-3.92 c -2.58007,-0.30816 0.96415,4.34513 0,0 z m 18.34666,0.21333 c -1.63516,-2.29597 -1.63516,2.29597 0,0 z m -40.31999,-1.92 c -1.94118,-4.87509 -3.90857,4.05288 0,0 z m 32.63999,0.64 c -1.63516,-2.29597 -1.63516,2.29597 0,0 z m 135.25334,-2.77333 c -2.58009,-0.30817 0.96414,4.34514 0,0 z m -159.92,0.08 c -4.71227,-1.45176 -2.35152,2.22914 0,0 z m 6.74667,0.13333 c -1.63516,-2.29597 -1.63516,2.29597 0,0 z m 30.29333,-38.61333 c -4.34514,-0.96417 0.3082,2.58009 0,0 z m 20.90666,-2.98667 c -2.51912,-4.3102 -27.036,-1.95447 -6.65766,1.22416 l 6.65766,-1.22414 z m -5.12,-4.48 c -1.63516,-2.29597 -1.63516,2.29597 0,0 z m -8.96,-1.28 c -1.63516,-2.29597 -1.63516,2.29597 0,0 z m 15.36,-3.84 c -10.5663,-17.1744 0.43504,10.71224 0,0 z m -7.68,1.28 c -1.63516,-2.29597 -1.63516,2.29597 0,0 z m 138.24,-3.84 c -1.63516,-2.29597 -1.63516,2.29597 0,0 z m -5.93712,-3.84 c 0.16157,-6.25182 -3.68617,6.3235 0,0 z m -125.90288,-1.28 c -1.63516,-2.29597 -1.63516,2.29597 0,0 z m 113.92,0 c -1.63516,-2.29597 -1.63516,2.29597 0,0 z M 332.25548,220.0055 c -4.9778,-4.80476 -7.39875,6.23341 0,0 z m 5.66451,2.15005 c -2.76033,-4.75135 -2.6846,1.5175 0,0 z m -21.33333,-3.40656 c -3.66035,-8.9176 -12.32628,6.80275 0,0 z m -8.53333,-0.72231 c -4.34514,-0.96417 0.3082,2.58009 0,0 z m 15.44,0.08 c -4.71229,-1.4518 -2.35151,2.22915 0,0 z m -21.41334,-2.42667 c -1.63516,-2.29597 -1.63516,2.29597 0,0 z m 3.84,0 c -1.63516,-2.29597 -1.63516,2.29597 0,0 z m -221.439992,-12.8 c -1.635164,-2.29597 -1.635164,2.29597 0,0 z m 14.08,-75.52 c -1.635164,-2.29597 -1.635164,2.29597 0,0 z M 240.63999,16.000001 c -1.63516,-2.29597 -1.63516,2.29597 0,0 z m 99.84,0 c -1.63516,-2.29597 -1.63516,2.29597 0,0 z m 2.56,0 c -1.63516,-2.29597 -1.63516,2.29597 0,0 z M 226.98666,642.98669 c 4.34515,-0.96416 -0.30821,2.58011 0,0 z m 68.12472,-69.43116 c -0.23592,-12.07882 8.88854,2.27102 0,0 z M 654.07999,472.32002 c 1.02434,-3.47071 1.02437,3.47068 0,0 z m -592.639991,-3.84 c 3.270329,-4.59194 3.270329,4.59194 0,0 z m 9.253043,-6.63913 c 6.138632,-7.04842 2.391916,4.13018 0,0 z m 5.427229,-3.66515 c -0.976892,-5.75959 5.881578,3.01037 0,0 z M 605.43999,442.24002 c 1.63516,-2.29597 1.63516,2.29597 0,0 z M 138.24,328.24447 c 2.91216,-4.75161 2.30097,6.04261 0,0 z M 243.19999,0.64000003 c 1.63516,-2.29596993 1.63516,2.29596997 0,0 z m 16.64,0 c 1.63516,-2.29596993 1.63516,2.29596997 0,0 z"
       id="path1" />
  </g>
  <metadata
     id="metadata1">
    <rdf:RDF>
      <cc:Work
         rdf:about="">
        <dc:title>DubaiSat-2 Icon SVG</dc:title>
        <dc:source>https://www.eoportal.org/api/cms/documents/163813/2622530/DubaiSat2_Auto16.jpeg</dc:source>
      </cc:Work>
    </rdf:RDF>
  </metadata>
</svg>
