<?xml version="1.0" encoding="UTF-8" standalone="no"?>
<svg xmlns="http://www.w3.org/2000/svg" version="1.2" baseProfile="tiny" viewBox="0.00 0.00 512.00 539.00" width="512.00" height="539.00">
<path fill="#0d0d0d" d="
  M 147.06 0.00
  Q 147.85 3.73 150.43 7.09
  Q 154.14 11.93 157.37 18.37
  Q 158.71 21.03 161.60 22.60
  C 167.09 32.28 172.66 42.69 177.88 51.79
  Q 197.51 85.92 219.93 124.18
  C 224.63 132.21 229.47 141.18 234.57 150.92
  Q 235.47 152.64 235.95 154.50
  A 1.36 1.35 -13.9 0 1 234.95 156.15
  L 224.72 158.57
  A 2.94 2.16 -5.1 0 0 224.33 158.69
  Q 221.49 159.81 218.47 159.98
  Q 219.52 159.37 218.84 158.06
  Q 218.72 157.82 217.60 155.60
  A 0.05 0.05 0.0 0 0 217.50 155.61
  L 217.46 155.89
  A 0.08 0.07 35.3 0 1 217.32 155.91
  L 214.52 151.06
  A 1.33 1.30 82.9 0 0 213.78 150.47
  C 211.29 149.70 209.37 151.09 206.87 152.23
  A 0.86 0.86 0.0 0 0 206.49 153.46
  L 207.86 155.75
  A 0.14 0.11 -83.0 0 0 207.89 155.80
  L 212.34 161.72
  L 188.91 168.54
  A 1.62 1.56 -43.9 0 1 188.02 168.54
  Q 186.07 167.97 184.83 168.12
  Q 184.95 166.30 184.54 165.99
  L 181.36 161.00
  A 2.58 2.56 66.0 0 0 178.53 159.90
  Q 176.51 160.45 174.52 161.06
  Q 171.95 161.84 173.22 164.82
  Q 173.89 166.49 174.94 168.08
  Q 175.95 169.59 175.90 170.65
  Q 175.85 171.91 175.24 173.39
  Q 168.86 173.35 164.03 171.50
  C 160.13 170.01 155.33 163.12 153.25 159.99
  Q 131.44 127.16 103.36 79.27
  Q 96.48 67.55 82.43 42.06
  Q 82.42 42.04 78.52 33.37
  Q 76.51 28.89 76.64 26.71
  Q 76.85 23.02 80.25 21.07
  Q 83.26 19.34 86.46 18.20
  C 92.37 16.10 100.93 13.79 108.12 11.43
  C 112.67 9.94 118.01 7.05 123.36 5.77
  Q 126.18 5.09 130.61 3.57
  Q 136.55 1.54 142.64 0.00
  L 147.06 0.00
  Z
  M 123.96 23.99
  Q 124.10 22.49 122.60 21.13
  A 0.76 0.76 0.0 0 0 121.77 21.00
  Q 120.70 21.50 120.13 22.26
  A 1.91 1.89 -84.5 0 1 119.46 22.82
  Q 114.34 25.42 106.97 23.74
  A 0.80 0.80 0.0 0 0 105.99 24.58
  L 106.31 28.68
  A 1.39 1.39 0.0 0 0 107.11 29.82
  Q 108.59 30.50 110.66 29.37
  Q 117.75 25.49 123.20 24.77
  A 0.88 0.88 0.0 0 0 123.96 23.99
  Z"
/>
<path fill="#fac986" d="
  M 149.91 0.00
  L 150.80 0.37
  A 0.78 0.77 19.5 0 1 151.25 1.30
  C 150.35 4.39 152.60 6.04 154.01 8.60
  Q 157.79 15.50 161.60 22.60
  Q 158.71 21.03 157.37 18.37
  Q 154.14 11.93 150.43 7.09
  Q 147.85 3.73 147.06 0.00
  L 149.91 0.00
  Z"
/>
<path fill="#7ea1c0" d="
  M 123.20 24.77
  Q 117.75 25.49 110.66 29.37
  Q 108.59 30.50 107.11 29.82
  A 1.39 1.39 0.0 0 1 106.31 28.68
  L 105.99 24.58
  A 0.80 0.80 0.0 0 1 106.97 23.74
  Q 114.34 25.42 119.46 22.82
  A 1.91 1.89 -84.5 0 0 120.13 22.26
  Q 120.70 21.50 121.77 21.00
  A 0.76 0.76 0.0 0 1 122.60 21.13
  Q 124.10 22.49 123.96 23.99
  A 0.88 0.88 0.0 0 1 123.20 24.77
  Z"
/>
<path fill="#0d0d0d" d="
  M 161.58 186.71
  Q 135.06 207.85 122.36 218.85
  Q 118.66 222.06 106.80 234.05
  Q 104.59 236.28 98.25 240.26
  C 91.93 244.24 88.18 247.64 82.49 252.30
  A 1.59 1.54 -66.2 0 1 81.63 252.65
  L 77.65 252.96
  Q 75.39 251.80 72.71 250.65
  Q 57.44 244.14 50.65 241.08
  Q 42.64 237.47 37.49 234.01
  Q 33.75 231.49 32.61 226.29
  C 31.85 222.84 30.28 220.32 29.94 217.19
  C 29.01 208.65 27.27 202.19 26.34 193.65
  Q 25.80 188.65 24.13 182.34
  A 7.14 7.06 -55.0 0 1 23.92 181.10
  L 23.19 171.81
  A 15.51 15.09 -57.4 0 0 22.42 168.06
  C 20.64 162.87 20.70 158.72 20.67 153.29
  C 20.63 146.78 17.24 139.18 17.77 133.36
  A 0.47 0.46 1.4 0 1 18.21 132.95
  Q 22.31 132.78 25.85 134.15
  Q 28.77 135.28 28.78 135.28
  C 40.91 139.13 56.56 145.14 68.86 149.37
  Q 92.36 157.45 104.62 162.63
  Q 129.08 172.99 155.60 184.01
  Q 157.00 184.59 158.57 185.40
  Q 160.54 186.42 161.58 186.71
  Z"
/>
<path fill="#53595f" d="
  M 218.47 159.98
  L 212.34 161.72
  L 207.89 155.80
  A 0.14 0.11 -83.0 0 1 207.86 155.75
  L 206.49 153.46
  A 0.86 0.86 0.0 0 1 206.87 152.23
  C 209.37 151.09 211.29 149.70 213.78 150.47
  A 1.33 1.30 82.9 0 1 214.52 151.06
  L 217.32 155.91
  A 0.08 0.07 35.3 0 0 217.46 155.89
  L 217.50 155.61
  A 0.05 0.05 0.0 0 1 217.60 155.60
  Q 218.72 157.82 218.84 158.06
  Q 219.52 159.37 218.47 159.98
  Z"
/>
<path fill="#fac986" d="
  M 184.54 165.99
  Q 184.66 167.06 183.82 167.27
  Q 182.50 167.61 181.81 166.39
  C 180.72 164.47 178.31 161.26 175.54 162.44
  A 1.11 1.11 0.0 0 0 174.90 163.20
  Q 174.57 164.65 173.22 164.82
  Q 171.95 161.84 174.52 161.06
  Q 176.51 160.45 178.53 159.90
  A 2.58 2.56 66.0 0 1 181.36 161.00
  L 184.54 165.99
  Z"
/>
<path fill="#53595f" d="
  M 184.54 165.99
  Q 184.95 166.30 184.83 168.12
  Q 183.02 172.35 175.24 173.39
  Q 175.85 171.91 175.90 170.65
  Q 175.95 169.59 174.94 168.08
  Q 173.89 166.49 173.22 164.82
  Q 174.57 164.65 174.90 163.20
  A 1.11 1.11 0.0 0 1 175.54 162.44
  C 178.31 161.26 180.72 164.47 181.81 166.39
  Q 182.50 167.61 183.82 167.27
  Q 184.66 167.06 184.54 165.99
  Z"
/>
<path fill="#7ea1c0" d="
  M 301.09 244.70
  Q 303.50 245.01 304.84 243.30
  L 316.19 237.54
  A 1.11 1.11 0.0 0 1 317.68 238.00
  C 319.78 241.82 321.64 245.68 322.25 249.79
  Q 322.46 251.22 321.60 254.05
  Q 320.42 257.91 319.36 261.76
  L 319.40 263.20
  Q 319.38 264.75 320.10 265.99
  A 1.03 1.03 0.0 0 0 320.85 266.50
  C 327.37 267.32 330.24 261.79 333.67 257.49
  L 335.35 263.10
  C 334.89 264.22 334.71 264.80 335.54 265.82
  Q 339.78 271.02 340.96 277.48
  Q 341.37 277.92 341.71 277.96
  Q 341.92 278.18 342.84 278.06
  Q 343.73 277.53 344.18 278.34
  Q 345.11 280.03 346.60 283.21
  A 0.67 0.65 41.0 0 1 346.64 283.68
  Q 346.36 284.62 347.32 284.92
  Q 351.86 286.33 352.67 290.26
  L 358.29 320.30
  A 0.81 0.78 44.0 0 1 358.30 320.58
  L 357.67 325.54
  A 5.47 5.45 37.0 0 0 358.08 328.41
  C 361.23 335.63 361.46 344.92 363.17 351.81
  Q 363.78 354.28 366.19 358.48
  Q 365.22 359.06 364.74 359.89
  L 359.93 360.52
  C 355.44 361.18 348.96 362.43 346.03 366.28
  Q 344.74 367.17 343.37 367.94
  Q 343.24 368.01 343.36 367.93
  Q 343.52 367.83 343.84 367.93
  A 0.21 0.21 0.0 0 1 343.89 368.32
  L 343.45 368.58
  A 0.72 0.72 0.0 0 0 343.22 369.62
  Q 344.23 371.05 343.94 372.97
  L 343.74 372.71
  Q 343.57 372.72 343.40 372.73
  Q 343.83 371.84 343.77 371.63
  A 2.07 2.06 64.5 0 0 340.58 370.50
  Q 338.78 371.79 337.22 372.95
  Q 334.11 375.23 331.26 377.54
  Q 314.76 390.93 308.07 396.63
  C 305.43 398.88 302.57 402.21 299.67 403.24
  Q 299.65 403.25 297.33 403.92
  A 1.08 1.08 0.0 0 0 296.82 405.68
  Q 300.25 409.56 301.39 414.49
  Q 301.49 414.92 301.20 415.29
  Q 301.07 415.46 300.76 415.31
  L 295.03 406.94
  Q 294.76 406.29 294.16 406.14
  Q 291.93 404.97 289.45 407.48
  Q 285.12 411.85 280.66 416.15
  Q 268.70 427.68 254.87 437.11
  Q 254.90 435.89 255.62 434.83
  A 1.02 1.02 0.0 0 0 254.43 433.30
  C 250.73 434.62 242.81 436.38 240.23 431.86
  Q 239.74 431.00 238.56 429.61
  A 1.26 1.11 14.9 0 1 238.34 429.28
  L 237.29 427.00
  Q 237.34 422.80 239.66 419.16
  A 1.61 1.61 0.0 0 0 239.84 417.82
  L 237.70 410.90
  A 0.96 0.94 -49.5 0 1 237.67 410.45
  L 238.45 406.02
  A 0.05 0.05 0.0 0 0 238.36 405.99
  Q 236.65 409.91 238.16 413.68
  C 238.84 415.37 239.09 417.08 239.14 418.54
  A 0.02 0.02 0.0 0 1 239.11 418.55
  L 237.04 412.40
  A 0.29 0.24 39.3 0 1 237.02 412.30
  L 237.39 405.13
  A 0.15 0.15 0.0 0 1 237.62 405.01
  Q 237.82 405.15 237.97 405.16
  A 0.41 0.41 0.0 0 0 238.38 404.62
  C 238.12 403.82 237.00 402.91 236.87 401.56
  C 236.53 397.84 235.38 393.48 235.07 389.09
  Q 234.84 385.77 234.88 385.56
  A 1.39 1.35 38.8 0 0 234.79 384.82
  Q 234.15 383.36 233.74 376.93
  Q 233.59 374.72 231.21 371.59
  A 0.91 0.84 -69.4 0 1 231.03 371.15
  L 229.33 357.56
  Q 231.39 359.38 232.10 362.03
  A 0.54 0.54 0.0 0 0 233.16 361.86
  L 232.67 353.12
  A 0.25 0.24 -2.3 0 0 232.41 352.89
  A 0.21 0.21 0.0 0 0 232.21 353.10
  C 232.21 357.00 229.07 356.42 226.53 355.57
  L 223.05 352.48
  A 1.57 1.56 20.5 0 1 222.52 351.33
  Q 222.46 346.71 221.54 344.86
  C 219.59 340.96 218.44 339.10 218.14 336.23
  A 0.12 0.12 0.0 0 1 218.37 336.16
  Q 218.72 336.81 219.14 337.12
  Q 221.60 341.19 225.42 343.98
  A 2.38 2.32 -19.2 0 0 226.19 344.34
  Q 228.73 345.02 230.44 343.66
  Q 232.81 341.77 237.32 337.82
  Q 238.12 337.12 238.47 336.24
  A 0.75 0.74 -88.4 0 0 237.55 335.26
  L 236.68 335.55
  A 0.14 0.14 0.0 0 1 236.54 335.32
  L 237.48 334.41
  A 1.16 1.15 -46.9 0 0 237.43 332.70
  L 231.79 327.88
  A 0.45 0.42 23.7 0 1 231.63 327.51
  Q 231.66 327.21 231.58 327.10
  A 0.25 0.25 0.0 0 0 231.13 327.24
  Q 231.11 327.54 231.13 327.60
  A 0.85 0.84 -21.8 0 1 230.71 328.57
  L 226.50 330.84
  A 1.79 1.78 -29.9 0 1 224.14 330.21
  Q 222.97 328.34 220.57 327.23
  A 2.32 2.16 -10.2 0 1 220.01 326.87
  L 217.38 324.72
  L 208.25 316.14
  A 2.08 1.30 5.6 0 0 208.03 315.97
  C 203.37 312.80 199.46 308.44 195.18 304.77
  Q 187.43 298.14 179.45 291.51
  C 174.83 287.68 171.48 284.00 166.92 280.52
  C 164.62 278.76 163.14 276.36 160.82 274.74
  Q 156.48 271.72 152.78 267.57
  Q 151.31 265.91 143.14 260.27
  A 0.29 0.28 37.5 0 0 142.75 260.32
  L 142.56 260.54
  A 0.48 0.47 -52.0 0 0 142.64 261.24
  Q 148.74 265.64 156.17 272.84
  Q 159.20 275.78 186.52 299.60
  C 193.65 305.82 197.03 309.10 202.83 313.72
  C 207.15 317.17 211.36 321.27 215.46 325.23
  Q 217.73 327.84 220.50 330.02
  Q 222.25 331.40 221.86 333.43
  A 1.37 1.35 -14.5 0 1 221.37 334.25
  Q 220.32 335.08 219.16 334.11
  Q 215.43 330.18 211.16 326.72
  Q 204.71 321.48 202.82 319.76
  Q 192.65 310.55 182.27 301.60
  Q 182.19 301.54 168.11 289.01
  Q 159.84 281.65 151.06 275.23
  L 143.84 268.93
  A 0.58 0.58 0.0 0 1 143.75 268.84
  Q 139.46 263.88 133.27 258.87
  Q 132.89 258.56 131.65 257.84
  Q 130.48 257.15 129.42 255.06
  A 0.98 0.98 0.0 0 0 128.09 254.63
  Q 123.81 256.84 119.21 257.09
  A 3.22 3.08 31.4 0 0 118.25 257.30
  L 112.11 259.68
  A 2.29 1.17 -4.6 0 1 111.82 259.77
  L 90.53 264.89
  A 5.15 4.89 -64.9 0 0 89.25 265.39
  Q 86.89 266.70 83.97 266.90
  A 2.63 2.45 32.9 0 0 83.52 266.98
  L 77.50 268.67
  Q 73.62 269.42 72.60 268.23
  L 79.65 256.71
  A 1.52 1.51 -41.0 0 0 79.75 255.32
  Q 79.17 254.01 77.65 252.96
  L 81.63 252.65
  A 1.59 1.54 -66.2 0 0 82.49 252.30
  C 88.18 247.64 91.93 244.24 98.25 240.26
  Q 104.59 236.28 106.80 234.05
  Q 118.66 222.06 122.36 218.85
  Q 135.06 207.85 161.58 186.71
  Q 166.30 189.01 169.95 189.32
  Q 176.30 189.87 184.99 191.06
  C 187.16 191.35 189.06 189.98 190.80 188.16
  C 195.97 182.77 200.35 181.95 207.77 179.40
  C 210.88 178.33 212.94 176.42 214.61 174.11
  Q 215.13 173.39 216.63 172.65
  A 0.72 0.71 1.5 0 1 217.57 173.64
  C 216.36 175.79 214.11 179.01 212.08 181.15
  Q 210.18 183.15 201.99 191.73
  Q 196.92 197.03 193.21 203.23
  A 0.77 0.77 0.0 0 0 194.04 204.38
  Q 198.31 203.43 201.90 200.90
  Q 221.30 187.23 221.85 186.85
  Q 230.71 180.62 242.31 177.49
  Q 247.53 176.08 250.92 178.82
  C 259.07 185.41 269.05 192.22 273.92 196.62
  Q 282.78 204.61 287.84 208.94
  Q 289.71 210.55 301.94 218.70
  Q 307.53 222.42 313.06 228.97
  A 0.60 0.60 0.0 0 1 312.48 229.95
  L 304.92 228.36
  A 3.39 3.36 77.8 0 1 302.91 227.05
  C 302.02 225.81 300.81 223.94 299.36 223.13
  C 296.24 221.38 291.31 220.63 290.13 225.14
  Q 288.83 230.11 287.29 235.76
  Q 286.74 237.78 287.37 240.33
  C 289.07 247.31 295.84 246.67 301.09 244.70
  Z
  M 250.00 186.97
  L 244.85 182.57
  A 0.91 0.88 -20.9 0 0 244.36 182.36
  Q 243.10 182.23 241.66 183.69
  A 0.24 0.24 0.0 0 0 241.87 184.10
  Q 243.81 183.74 245.03 184.46
  Q 247.21 185.75 249.60 188.03
  A 0.14 0.14 0.0 0 0 249.81 188.02
  L 250.06 187.73
  A 0.54 0.54 0.0 0 0 250.00 186.97
  Z
  M 237.49 190.24
  L 235.92 189.23
  A 0.90 0.87 -41.3 0 0 235.06 189.19
  Q 232.89 190.26 230.12 192.15
  C 227.85 193.71 227.03 196.69 229.73 198.56
  Q 230.96 199.41 235.54 203.78
  A 2.28 2.27 44.7 0 0 238.70 203.77
  L 243.14 199.47
  A 0.94 0.89 -22.0 0 0 243.41 198.88
  Q 243.61 195.85 243.09 194.79
  Q 242.02 192.58 237.63 190.32
  Q 237.56 190.28 237.49 190.24
  Z
  M 251.61 217.86
  A 1.82 1.82 0.0 0 0 253.88 217.93
  C 256.29 216.11 260.30 212.69 259.16 209.13
  C 258.47 206.98 255.68 205.45 254.00 203.80
  A 2.46 2.45 -41.3 0 0 250.79 203.60
  Q 249.15 204.85 246.33 206.32
  Q 243.42 207.84 243.63 210.72
  A 0.83 0.82 -73.1 0 0 243.93 211.29
  L 251.61 217.86
  Z
  M 176.67 219.01
  Q 175.04 219.99 175.18 221.31
  A 0.83 0.81 7.7 0 0 175.71 221.99
  C 178.96 223.21 183.00 225.51 184.31 229.04
  A 1.95 1.88 11.0 0 0 184.85 229.81
  Q 185.57 230.40 186.20 230.64
  A 0.97 0.96 -81.1 0 1 186.84 231.52
  L 186.88 233.25
  L 182.23 239.65
  A 5.61 5.27 -89.6 0 1 181.24 240.69
  C 177.28 243.88 174.02 245.64 172.83 250.08
  C 171.80 253.94 170.44 257.26 172.31 260.43
  Q 175.96 266.61 182.12 269.86
  Q 193.96 276.10 203.47 267.47
  Q 210.98 260.65 213.77 258.27
  A 1.02 1.00 -22.3 0 0 214.13 257.44
  Q 214.11 257.09 213.70 256.64
  A 1.29 1.25 -67.0 0 1 213.37 255.78
  L 213.37 252.96
  A 0.04 0.04 0.0 0 1 213.44 252.94
  Q 213.48 252.99 213.47 253.04
  A 0.08 0.06 -46.4 0 0 213.61 253.01
  Q 214.12 250.72 215.86 250.63
  Q 217.42 250.56 219.27 252.81
  Q 220.20 253.93 220.80 254.52
  A 0.27 0.27 0.0 0 0 221.25 254.25
  Q 220.19 251.08 217.75 249.18
  A 0.93 0.91 24.3 0 1 217.41 248.31
  Q 218.50 241.82 214.60 237.43
  Q 208.08 230.10 198.84 226.41
  Q 197.01 224.26 197.17 221.50
  Q 193.72 215.79 187.97 213.61
  Q 186.64 213.10 185.89 213.09
  C 183.99 213.07 182.53 211.65 180.74 212.79
  C 178.51 214.22 177.82 216.80 176.67 219.01
  Z
  M 279.09 225.36
  L 270.75 217.73
  A 3.03 2.96 78.2 0 0 270.02 217.24
  L 266.53 215.56
  A 1.92 1.92 0.0 0 0 264.00 216.41
  Q 262.68 218.98 264.42 220.35
  Q 269.15 224.10 273.73 227.94
  Q 275.49 229.42 276.59 229.47
  Q 278.41 229.53 279.43 227.97
  A 2.05 2.04 37.8 0 0 279.09 225.36
  Z
  M 235.86 246.33
  Q 237.37 244.51 239.48 243.40
  A 0.89 0.88 -40.2 0 1 240.39 243.47
  Q 243.96 246.08 246.05 249.84
  A 0.27 0.27 0.0 0 0 246.42 249.95
  L 246.45 249.94
  A 0.31 0.31 0.0 0 0 246.57 249.50
  Q 244.28 245.83 241.30 243.43
  A 1.71 1.70 45.4 0 1 241.31 240.76
  L 252.91 231.66
  A 1.29 1.29 0.0 0 1 254.24 231.51
  Q 258.20 233.36 261.11 237.40
  A 0.64 0.64 0.0 0 0 262.03 237.53
  L 262.27 237.34
  A 1.11 1.11 0.0 0 0 262.43 235.74
  Q 259.22 231.95 255.41 229.86
  C 253.32 228.71 252.85 230.72 251.59 231.64
  Q 248.88 233.60 242.79 238.80
  Q 240.53 240.72 239.77 242.12
  A 1.93 1.91 0.4 0 1 238.97 242.90
  Q 236.60 244.09 235.10 246.01
  A 0.10 0.09 48.6 0 0 235.10 246.12
  L 235.26 246.32
  A 0.39 0.39 0.0 0 0 235.86 246.33
  Z
  M 257.32 238.07
  L 252.61 235.65
  A 0.22 0.22 0.0 0 0 252.31 235.75
  L 251.84 236.66
  A 2.97 2.77 -62.8 0 0 252.95 240.57
  L 253.12 240.66
  A 2.97 2.77 -62.8 0 0 256.95 239.29
  L 257.42 238.37
  A 0.22 0.22 0.0 0 0 257.32 238.07
  Z
  M 147.25 252.04
  A 0.07 0.05 -58.3 0 0 147.25 251.99
  Q 144.57 249.14 140.86 249.10
  A 1.31 1.30 -67.1 0 0 139.95 249.47
  Q 139.00 250.38 138.93 251.88
  A 0.54 0.54 0.0 0 0 139.92 252.21
  Q 141.56 249.80 143.48 250.29
  A 1.58 1.52 -16.5 0 1 144.10 250.61
  L 146.61 252.76
  A 0.27 0.26 -60.2 0 0 147.03 252.64
  L 147.25 252.04
  Z
  M 264.60 285.29
  Q 260.86 285.73 258.43 288.39
  A 1.04 1.04 0.0 0 0 258.18 289.24
  L 258.23 289.57
  A 0.40 0.40 0.0 0 0 258.92 289.79
  Q 261.48 286.97 264.88 286.04
  A 0.31 0.31 0.0 0 0 265.10 285.69
  L 265.10 285.67
  A 0.45 0.45 0.0 0 0 264.60 285.29
  Z
  M 281.43 298.13
  Q 281.57 297.00 282.53 296.23
  A 0.59 0.58 45.8 0 0 282.54 295.33
  L 271.36 285.77
  A 0.62 0.60 -14.8 0 0 271.13 285.64
  Q 270.32 285.34 270.11 286.12
  Q 269.96 286.66 269.41 287.03
  Q 264.80 290.18 261.43 295.91
  A 0.87 0.86 -50.3 0 0 261.52 296.92
  L 261.59 297.00
  A 0.49 0.49 0.0 0 0 262.38 296.93
  C 264.08 294.13 266.55 289.62 269.75 289.01
  Q 271.99 288.58 272.29 290.35
  A 1.37 1.34 -38.1 0 1 272.18 291.18
  Q 270.67 294.38 267.48 296.94
  A 1.68 1.63 -12.5 0 0 266.94 297.76
  L 266.33 299.80
  A 0.74 0.73 20.0 0 0 266.75 300.69
  Q 268.45 301.39 269.34 303.53
  A 0.88 0.87 53.9 0 1 269.20 304.44
  L 268.32 305.47
  A 0.37 0.37 0.0 0 0 268.60 306.08
  Q 270.20 306.11 271.28 305.23
  A 0.13 0.13 0.0 0 1 271.47 305.41
  L 270.87 306.11
  A 0.62 0.61 50.9 0 0 270.80 306.80
  Q 271.76 308.49 273.09 308.08
  Q 273.29 308.02 276.88 307.17
  A 1.80 1.73 46.2 0 1 277.82 307.21
  Q 279.35 307.71 279.06 309.42
  A 0.51 0.51 0.0 0 0 280.03 309.73
  Q 281.11 307.48 283.35 306.72
  A 0.87 0.87 0.0 0 0 283.94 305.97
  C 284.16 303.48 283.86 300.30 281.77 298.88
  A 0.79 0.79 0.0 0 1 281.43 298.13
  Z
  M 352.1386 320.0151
  A 1.98 0.82 -138.0 0 0 353.0613 321.9494
  A 1.98 0.82 -138.0 0 0 355.0814 322.6649
  A 1.98 0.82 -138.0 0 0 354.1587 320.7306
  A 1.98 0.82 -138.0 0 0 352.1386 320.0151
  Z
  M 354.62 338.49
  Q 354.55 339.98 354.54 344.18
  Q 354.53 346.85 352.28 348.86
  Q 351.06 349.94 350.14 352.38
  A 0.81 0.81 0.0 0 0 351.40 353.30
  L 356.21 349.53
  A 3.39 3.38 -25.1 0 0 357.43 346.18
  Q 356.09 339.76 355.76 338.71
  Q 355.65 338.36 355.16 338.15
  A 0.39 0.38 -77.1 0 0 354.62 338.49
  Z
  M 232.5368 348.6634
  A 1.38 0.44 -104.4 0 0 232.4538 350.1094
  A 1.38 0.44 -104.4 0 0 233.2232 351.3366
  A 1.38 0.44 -104.4 0 0 233.3062 349.8906
  A 1.38 0.44 -104.4 0 0 232.5368 348.6634
  Z
  M 231.7148 349.7555
  A 0.30 0.08 -108.5 0 0 231.7341 350.0654
  A 0.30 0.08 -108.5 0 0 231.9052 350.3245
  A 0.30 0.08 -108.5 0 0 231.8859 350.0146
  A 0.30 0.08 -108.5 0 0 231.7148 349.7555
  Z
  M 246.15 432.36
  A 1.19 1.19 0.0 0 0 247.33 431.29
  L 247.51 429.58
  A 2.73 2.64 39.5 0 0 247.38 428.44
  C 245.55 423.17 245.29 418.64 244.36 410.79
  Q 243.61 404.50 242.45 398.53
  Q 241.05 391.35 240.50 386.28
  Q 239.94 381.12 239.15 378.17
  C 237.48 371.95 237.25 364.00 235.36 359.20
  A 0.54 0.53 -56.9 0 0 234.33 359.42
  Q 234.43 362.02 234.94 366.83
  Q 235.35 370.74 236.15 374.18
  Q 238.27 383.32 238.61 393.42
  Q 238.62 393.51 238.63 393.60
  L 244.98 428.43
  A 2.78 2.64 -48.7 0 1 245.01 429.20
  L 244.79 431.43
  A 0.85 0.84 -87.2 0 0 245.63 432.36
  L 246.15 432.36
  Z
  M 343.15 370.05
  A 0.10 0.10 0.0 0 0 343.05 369.95
  A 0.10 0.10 0.0 0 0 342.95 370.05
  A 0.10 0.10 0.0 0 0 343.05 370.15
  A 0.10 0.10 0.0 0 0 343.15 370.05
  Z
  M 294.78 400.89
  Q 297.73 397.65 297.83 393.46
  A 1.22 1.21 -69.3 0 0 297.41 392.52
  L 297.11 392.27
  A 0.47 0.46 21.1 0 0 296.34 392.61
  Q 296.24 397.03 293.97 400.44
  A 0.36 0.36 0.0 0 0 294.04 400.92
  L 294.06 400.94
  A 0.52 0.52 0.0 0 0 294.78 400.89
  Z"
/>
<path fill="#0d0d0d" d="
  M 250.00 186.97
  A 0.54 0.54 0.0 0 1 250.06 187.73
  L 249.81 188.02
  A 0.14 0.14 0.0 0 1 249.60 188.03
  Q 247.21 185.75 245.03 184.46
  Q 243.81 183.74 241.87 184.10
  A 0.24 0.24 0.0 0 1 241.66 183.69
  Q 243.10 182.23 244.36 182.36
  A 0.91 0.88 -20.9 0 1 244.85 182.57
  L 250.00 186.97
  Z"
/>
<path fill="#fac986" d="
  M 237.63 190.32
  Q 242.02 192.58 243.09 194.79
  Q 243.61 195.85 243.41 198.88
  A 0.94 0.89 -22.0 0 1 243.14 199.47
  L 238.70 203.77
  A 2.28 2.27 44.7 0 1 235.54 203.78
  Q 230.96 199.41 229.73 198.56
  C 227.03 196.69 227.85 193.71 230.12 192.15
  Q 232.89 190.26 235.06 189.19
  A 0.90 0.87 -41.3 0 1 235.92 189.23
  L 237.49 190.24
  Q 237.56 190.28 237.63 190.32
  Z"
/>
<path fill="#fac986" d="
  M 251.61 217.86
  L 243.93 211.29
  A 0.83 0.82 -73.1 0 1 243.63 210.72
  Q 243.42 207.84 246.33 206.32
  Q 249.15 204.85 250.79 203.60
  A 2.46 2.45 -41.3 0 1 254.00 203.80
  C 255.68 205.45 258.47 206.98 259.16 209.13
  C 260.30 212.69 256.29 216.11 253.88 217.93
  A 1.82 1.82 0.0 0 1 251.61 217.86
  Z"
/>
<path fill="#53595f" d="
  M 197.17 221.50
  Q 194.46 220.32 190.34 216.40
  Q 188.08 214.25 183.42 215.28
  A 0.34 0.32 15.6 0 0 183.25 215.37
  L 177.04 220.95
  A 0.60 0.60 0.0 0 1 176.10 220.25
  L 176.67 219.01
  C 177.82 216.80 178.51 214.22 180.74 212.79
  C 182.53 211.65 183.99 213.07 185.89 213.09
  Q 186.64 213.10 187.97 213.61
  Q 193.72 215.79 197.17 221.50
  Z"
/>
<path fill="#fac986" d="
  M 197.17 221.50
  Q 197.01 224.26 198.84 226.41
  C 195.50 226.76 192.88 225.74 190.24 229.00
  Q 188.56 231.08 186.88 233.25
  L 186.84 231.52
  A 0.97 0.96 -81.1 0 0 186.20 230.64
  Q 185.57 230.40 184.85 229.81
  A 1.95 1.88 11.0 0 1 184.31 229.04
  C 183.00 225.51 178.96 223.21 175.71 221.99
  A 0.83 0.81 7.7 0 1 175.18 221.31
  Q 175.04 219.99 176.67 219.01
  L 176.10 220.25
  A 0.60 0.60 0.0 0 0 177.04 220.95
  L 183.25 215.37
  A 0.34 0.32 15.6 0 1 183.42 215.28
  Q 188.08 214.25 190.34 216.40
  Q 194.46 220.32 197.17 221.50
  Z"
/>
<path fill="#53595f" d="
  M 270.75 217.73
  L 279.09 225.36
  A 2.05 2.04 37.8 0 1 279.43 227.97
  Q 278.41 229.53 276.59 229.47
  Q 275.49 229.42 273.73 227.94
  Q 269.15 224.10 264.42 220.35
  Q 262.68 218.98 264.00 216.41
  A 1.92 1.92 0.0 0 1 266.53 215.56
  L 270.02 217.24
  A 3.03 2.96 78.2 0 1 270.75 217.73
  Z"
/>
<path fill="#0d0d0d" d="
  M 198.84 226.41
  Q 208.08 230.10 214.60 237.43
  Q 218.50 241.82 217.41 248.31
  A 0.93 0.91 24.3 0 0 217.75 249.18
  Q 220.19 251.08 221.25 254.25
  A 0.27 0.27 0.0 0 1 220.80 254.52
  Q 220.20 253.93 219.27 252.81
  Q 217.42 250.56 215.86 250.63
  Q 214.12 250.72 213.61 253.01
  A 0.08 0.06 -46.4 0 1 213.47 253.04
  Q 213.48 252.99 213.44 252.94
  A 0.04 0.04 0.0 0 0 213.37 252.96
  L 213.37 255.78
  A 1.29 1.25 -67.0 0 0 213.70 256.64
  Q 214.11 257.09 214.13 257.44
  A 1.02 1.00 -22.3 0 1 213.77 258.27
  Q 210.98 260.65 203.47 267.47
  Q 193.96 276.10 182.12 269.86
  Q 175.96 266.61 172.31 260.43
  C 170.44 257.26 171.80 253.94 172.83 250.08
  C 174.02 245.64 177.28 243.88 181.24 240.69
  A 5.61 5.27 -89.6 0 0 182.23 239.65
  L 186.88 233.25
  Q 188.56 231.08 190.24 229.00
  C 192.88 225.74 195.50 226.76 198.84 226.41
  Z
  M 214.68 245.36
  Q 215.01 241.30 210.93 237.80
  Q 203.94 231.81 197.56 229.94
  Q 194.97 229.18 193.09 231.58
  Q 188.14 237.84 182.67 245.34
  A 6.69 5.76 -89.9 0 1 181.97 246.15
  Q 176.86 251.04 174.96 257.35
  A 2.21 2.17 -42.1 0 0 174.90 258.36
  C 175.73 263.27 181.73 266.31 186.25 266.90
  C 189.24 267.30 190.14 265.47 191.87 263.55
  A 2.64 2.51 77.3 0 0 192.36 262.73
  Q 194.81 256.07 200.49 252.34
  A 2.66 2.60 -88.9 0 0 201.27 251.57
  Q 203.23 248.60 204.91 248.42
  Q 208.99 247.99 210.48 247.97
  Q 213.04 247.94 214.31 246.32
  A 1.78 1.74 66.8 0 0 214.68 245.36
  Z"
/>
<path fill="#455260" d="
  M 235.86 246.33
  A 0.39 0.39 0.0 0 1 235.26 246.32
  L 235.10 246.12
  A 0.10 0.09 48.6 0 1 235.10 246.01
  Q 236.60 244.09 238.97 242.90
  A 1.93 1.91 0.4 0 0 239.77 242.12
  Q 240.53 240.72 242.79 238.80
  Q 248.88 233.60 251.59 231.64
  C 252.85 230.72 253.32 228.71 255.41 229.86
  Q 259.22 231.95 262.43 235.74
  A 1.11 1.11 0.0 0 1 262.27 237.34
  L 262.03 237.53
  A 0.64 0.64 0.0 0 1 261.11 237.40
  Q 258.20 233.36 254.24 231.51
  A 1.29 1.29 0.0 0 0 252.91 231.66
  L 241.31 240.76
  A 1.71 1.70 45.4 0 0 241.30 243.43
  Q 244.28 245.83 246.57 249.50
  A 0.31 0.31 0.0 0 1 246.45 249.94
  L 246.42 249.95
  A 0.27 0.27 0.0 0 1 246.05 249.84
  Q 243.96 246.08 240.39 243.47
  A 0.89 0.88 -40.2 0 0 239.48 243.40
  Q 237.37 244.51 235.86 246.33
  Z"
/>
<path fill="#53595f" d="
  M 214.31 246.32
  Q 213.04 247.94 210.48 247.97
  Q 208.99 247.99 204.91 248.42
  Q 203.23 248.60 201.27 251.57
  A 2.66 2.60 -88.9 0 1 200.49 252.34
  Q 194.81 256.07 192.36 262.73
  A 2.64 2.51 77.3 0 1 191.87 263.55
  C 190.14 265.47 189.24 267.30 186.25 266.90
  C 181.73 266.31 175.73 263.27 174.90 258.36
  A 2.21 2.17 -42.1 0 1 174.96 257.35
  Q 176.86 251.04 181.97 246.15
  A 6.69 5.76 -89.9 0 0 182.67 245.34
  Q 188.14 237.84 193.09 231.58
  Q 194.97 229.18 197.56 229.94
  Q 203.94 231.81 210.93 237.80
  Q 215.01 241.30 214.68 245.36
  A 1.78 1.74 66.8 0 1 214.31 246.32
  Z"
/>
<path fill="#0d0d0d" d="
  M 257.32 238.07
  A 0.22 0.22 0.0 0 1 257.42 238.37
  L 256.95 239.29
  A 2.97 2.77 -62.8 0 1 253.12 240.66
  L 252.95 240.57
  A 2.97 2.77 -62.8 0 1 251.84 236.66
  L 252.31 235.75
  A 0.22 0.22 0.0 0 1 252.61 235.65
  L 257.32 238.07
  Z"
/>
<path fill="#0d0d0d" d="
  M 332.48 239.10
  Q 332.79 238.84 332.75 238.65
  A 0.66 0.66 0.0 0 0 331.83 238.19
  Q 331.57 238.31 331.31 238.71
  A 1.48 0.62 16.4 0 1 330.90 237.82
  A 1.47 0.62 15.9 0 1 333.55 238.53
  A 1.47 0.62 16.7 0 1 333.35 239.04
  A 1.51 0.66 15.9 0 1 332.48 239.10
  Z"
/>
<path fill="#53595f" d="
  M 332.48 239.10
  A 1.48 0.62 15.5 0 1 331.31 238.71
  Q 331.57 238.31 331.83 238.19
  A 0.66 0.66 0.0 0 1 332.75 238.65
  Q 332.79 238.84 332.48 239.10
  Z"
/>
<path fill="#53595f" d="
  M 304.84 243.30
  Q 303.50 245.01 301.09 244.70
  L 304.84 243.30
  Z"
/>
<path fill="#53595f" d="
  M 146.61 252.76
  L 144.10 250.61
  A 1.58 1.52 -16.5 0 0 143.48 250.29
  Q 141.56 249.80 139.92 252.21
  A 0.54 0.54 0.0 0 1 138.93 251.88
  Q 139.00 250.38 139.95 249.47
  A 1.31 1.30 -67.1 0 1 140.86 249.10
  Q 144.57 249.14 147.25 251.99
  A 0.07 0.05 -58.3 0 1 147.25 252.04
  L 147.03 252.64
  A 0.27 0.26 -60.2 0 1 146.61 252.76
  Z"
/>
<path fill="#53595f" d="
  M 335.35 263.10
  L 333.67 257.49
  Q 336.26 253.67 340.14 251.15
  Q 341.07 250.55 341.64 250.99
  A 0.51 0.51 0.0 0 1 341.77 251.64
  L 335.35 263.10
  Z"
/>
<path fill="#0d0d0d" d="
  M 366.19 358.48
  Q 363.78 354.28 363.17 351.81
  C 361.46 344.92 361.23 335.63 358.08 328.41
  A 5.47 5.45 37.0 0 1 357.67 325.54
  L 358.30 320.58
  A 0.81 0.78 44.0 0 0 358.29 320.30
  L 352.67 290.26
  Q 352.61 289.31 352.97 288.53
  A 0.61 0.60 24.7 0 1 353.78 288.24
  C 356.03 289.30 358.50 290.15 360.84 289.52
  A 2.18 2.17 81.7 0 0 362.46 287.34
  Q 362.37 284.83 361.96 282.31
  C 361.37 278.64 359.49 277.73 355.82 276.18
  Q 351.58 274.40 348.17 271.12
  L 349.35 252.74
  A 1.14 1.14 0.0 0 1 350.77 251.71
  Q 356.21 253.14 359.02 254.20
  Q 384.44 263.75 424.97 277.52
  C 438.32 282.05 454.24 288.61 464.69 292.55
  C 471.79 295.23 478.77 297.42 485.55 300.69
  Q 489.57 302.63 490.49 306.77
  Q 497.33 337.36 501.07 366.57
  Q 501.41 369.25 501.76 370.32
  C 503.30 375.09 503.16 379.45 503.38 385.45
  A 10.87 10.85 37.2 0 0 503.68 387.62
  Q 504.09 389.22 505.48 393.73
  Q 506.24 396.16 506.01 402.82
  A 0.68 0.67 -85.0 0 1 505.25 403.47
  L 497.23 402.35
  A 4.19 4.11 63.4 0 1 495.69 401.82
  C 492.74 400.08 489.59 399.77 486.28 398.68
  C 466.43 392.14 453.50 388.04 436.17 381.53
  Q 425.41 377.48 411.21 372.75
  Q 399.78 368.95 373.82 358.89
  Q 371.12 357.84 366.19 358.48
  Z
  M 363.6518 325.0468
  A 0.15 0.04 -171.1 0 0 363.7938 325.1095
  A 0.15 0.04 -171.1 0 0 363.9482 325.0932
  A 0.15 0.04 -171.1 0 0 363.8062 325.0305
  A 0.15 0.04 -171.1 0 0 363.6518 325.0468
  Z
  M 363.44 325.99
  Q 364.42 326.21 365.47 325.74
  A 0.10 0.05 44.4 0 1 365.55 325.77
  Q 365.56 325.79 365.59 325.79
  A 0.06 0.04 -27.3 0 1 365.54 325.88
  Q 361.56 325.88 361.33 325.87
  A 0.28 0.28 0.0 0 0 361.04 326.23
  L 361.15 326.61
  A 0.30 0.29 -6.1 0 0 361.40 326.81
  L 365.72 327.15
  A 0.78 0.78 0.0 0 1 366.40 327.69
  L 367.70 331.60
  A 0.48 0.48 0.0 0 0 368.63 331.45
  L 368.63 325.89
  A 0.91 0.91 0.0 0 0 367.65 324.98
  L 363.49 325.31
  A 0.35 0.34 49.3 0 0 363.44 325.99
  Z
  M 364.7249 328.5361
  A 0.42 0.24 -105.9 0 0 364.6092 329.0058
  A 0.42 0.24 -105.9 0 0 364.9551 329.3439
  A 0.42 0.24 -105.9 0 0 365.0708 328.8742
  A 0.42 0.24 -105.9 0 0 364.7249 328.5361
  Z"
/>
<path fill="#53595f" d="
  M 151.06 275.23
  Q 145.03 273.47 140.30 267.01
  Q 139.18 266.19 137.85 265.94
  C 135.10 265.45 135.03 264.71 133.93 262.54
  A 0.94 0.92 80.1 0 0 133.25 262.05
  L 132.10 261.89
  A 0.88 0.87 -1.8 0 1 131.35 261.19
  Q 131.12 260.03 129.66 258.30
  A 2.64 2.64 0.0 0 0 126.76 257.51
  Q 123.16 258.79 118.89 258.37
  Q 121.91 258.14 122.17 258.28
  A 0.34 0.33 -38.2 0 1 122.09 258.90
  C 119.37 259.56 120.64 262.80 121.32 265.24
  A 1.50 1.41 21.3 0 0 121.56 265.74
  Q 123.26 268.08 125.40 267.89
  A 2.03 1.94 23.7 0 0 126.34 267.55
  L 130.16 264.94
  A 0.80 0.79 29.6 0 1 130.67 264.80
  Q 131.32 264.85 131.53 264.87
  A 0.06 0.03 25.8 0 1 131.59 264.95
  Q 131.51 264.97 131.50 264.97
  Q 129.77 265.15 129.46 265.55
  A 0.24 0.24 0.0 0 0 129.70 265.93
  Q 132.72 265.40 134.19 264.39
  A 0.43 0.43 0.0 0 1 134.85 264.67
  L 134.92 265.07
  A 0.75 0.75 0.0 0 1 134.38 265.93
  C 132.17 266.53 129.34 266.06 127.14 267.83
  A 1.87 1.82 -69.7 0 1 126.38 268.19
  L 124.42 268.60
  L 120.59 265.58
  A 0.58 0.58 0.0 0 0 119.77 265.68
  Q 116.90 269.34 112.76 271.03
  A 0.94 0.94 0.0 0 1 111.82 270.90
  Q 110.92 270.18 110.21 268.78
  A 0.29 0.29 0.0 0 0 109.66 268.85
  Q 108.45 274.34 108.78 280.25
  C 108.49 277.11 107.84 272.83 108.87 270.89
  A 0.55 0.55 0.0 0 0 108.70 270.18
  Q 106.90 268.92 105.31 268.64
  A 0.27 0.26 -19.8 0 0 105.09 269.10
  Q 108.74 272.23 106.85 277.53
  A 2.00 2.00 0.0 0 1 103.67 278.38
  L 101.67 276.67
  A 0.88 0.84 -70.2 0 1 101.37 275.99
  C 101.59 269.48 103.59 268.12 109.87 267.38
  L 109.88 267.37
  Q 104.56 267.63 103.10 267.63
  A 0.05 0.05 0.0 0 1 103.09 267.53
  L 111.28 265.80
  A 2.93 2.91 16.2 0 0 112.77 264.99
  Q 113.70 264.00 114.57 261.19
  A 0.37 0.37 0.0 0 0 114.22 260.71
  Q 111.78 260.68 110.58 261.80
  A 1.63 1.60 22.1 0 1 109.53 262.23
  Q 105.87 262.34 102.67 263.73
  A 4.82 4.75 -59.5 0 1 101.32 264.09
  Q 97.05 264.57 91.52 266.47
  Q 90.25 266.91 89.40 267.50
  A 1.90 1.87 24.1 0 1 88.51 267.83
  Q 83.10 268.32 77.49 270.37
  Q 76.04 270.90 74.82 270.60
  A 0.52 0.52 0.0 0 1 74.89 269.58
  Q 76.45 269.40 77.50 268.67
  L 83.52 266.98
  A 2.63 2.45 32.9 0 1 83.97 266.90
  Q 86.89 266.70 89.25 265.39
  A 5.15 4.89 -64.9 0 1 90.53 264.89
  L 111.82 259.77
  A 2.29 1.17 -4.6 0 0 112.11 259.68
  L 118.25 257.30
  A 3.22 3.08 31.4 0 1 119.21 257.09
  Q 123.81 256.84 128.09 254.63
  A 0.98 0.98 0.0 0 1 129.42 255.06
  Q 130.48 257.15 131.65 257.84
  Q 132.89 258.56 133.27 258.87
  Q 139.46 263.88 143.75 268.84
  A 0.58 0.58 0.0 0 0 143.84 268.93
  L 151.06 275.23
  Z"
/>
<path fill="#0d0d0d" d="
  M 140.30 267.01
  Q 139.79 268.90 138.56 268.62
  Q 130.89 266.84 124.42 268.60
  L 126.38 268.19
  A 1.87 1.82 -69.7 0 0 127.14 267.83
  C 129.34 266.06 132.17 266.53 134.38 265.93
  A 0.75 0.75 0.0 0 0 134.92 265.07
  L 134.85 264.67
  A 0.43 0.43 0.0 0 0 134.19 264.39
  Q 132.72 265.40 129.70 265.93
  A 0.24 0.24 0.0 0 1 129.46 265.55
  Q 129.77 265.15 131.50 264.97
  Q 131.51 264.97 131.59 264.95
  A 0.06 0.03 25.8 0 0 131.53 264.87
  Q 131.32 264.85 130.67 264.80
  A 0.80 0.79 29.6 0 0 130.16 264.94
  L 126.34 267.55
  A 2.03 1.94 23.7 0 1 125.40 267.89
  Q 123.26 268.08 121.56 265.74
  A 1.50 1.41 21.3 0 1 121.32 265.24
  C 120.64 262.80 119.37 259.56 122.09 258.90
  A 0.34 0.33 -38.2 0 0 122.17 258.28
  Q 121.91 258.14 118.89 258.37
  Q 123.16 258.79 126.76 257.51
  A 2.64 2.64 0.0 0 1 129.66 258.30
  Q 131.12 260.03 131.35 261.19
  A 0.88 0.87 -1.8 0 0 132.10 261.89
  L 133.25 262.05
  A 0.94 0.92 80.1 0 1 133.93 262.54
  C 135.03 264.71 135.10 265.45 137.85 265.94
  Q 139.18 266.19 140.30 267.01
  Z
  M 124.2920 263.6094
  A 0.76 0.60 -156.7 0 0 124.7527 264.4611
  A 0.76 0.60 -156.7 0 0 125.6880 264.2106
  A 0.76 0.60 -156.7 0 0 125.2273 263.3589
  A 0.76 0.60 -156.7 0 0 124.2920 263.6094
  Z"
/>
<path fill="#455260" d="
  M 108.78 280.25
  L 106.89 279.91
  A 0.17 0.17 0.0 0 0 106.74 280.20
  Q 107.41 280.81 108.78 280.25
  Q 108.45 274.34 109.66 268.85
  A 0.29 0.29 0.0 0 1 110.21 268.78
  Q 110.92 270.18 111.82 270.90
  A 0.94 0.94 0.0 0 0 112.76 271.03
  Q 116.90 269.34 119.77 265.68
  A 0.58 0.58 0.0 0 1 120.59 265.58
  L 124.42 268.60
  Q 130.89 266.84 138.56 268.62
  Q 139.79 268.90 140.30 267.01
  Q 145.03 273.47 151.06 275.23
  Q 159.84 281.65 168.11 289.01
  Q 182.19 301.54 182.27 301.60
  Q 192.65 310.55 202.82 319.76
  Q 204.71 321.48 211.16 326.72
  Q 215.43 330.18 219.16 334.11
  L 219.85 335.28
  A 0.41 0.40 60.3 0 1 219.70 335.84
  Q 219.20 336.13 219.14 337.12
  Q 218.72 336.81 218.37 336.16
  A 0.12 0.12 0.0 0 0 218.14 336.23
  C 218.44 339.10 219.59 340.96 221.54 344.86
  Q 222.46 346.71 222.52 351.33
  A 1.57 1.56 20.5 0 0 223.05 352.48
  L 226.53 355.57
  L 229.33 357.56
  L 231.03 371.15
  A 0.91 0.84 -69.4 0 0 231.21 371.59
  Q 233.59 374.72 233.74 376.93
  Q 234.15 383.36 234.79 384.82
  A 1.39 1.35 38.8 0 1 234.88 385.56
  Q 234.84 385.77 235.07 389.09
  C 235.38 393.48 236.53 397.84 236.87 401.56
  C 237.00 402.91 238.12 403.82 238.38 404.62
  A 0.41 0.41 0.0 0 1 237.97 405.16
  Q 237.82 405.15 237.62 405.01
  A 0.15 0.15 0.0 0 0 237.39 405.13
  L 237.02 412.30
  A 0.29 0.24 39.3 0 0 237.04 412.40
  L 239.11 418.55
  A 0.02 0.02 0.0 0 0 239.14 418.54
  C 239.09 417.08 238.84 415.37 238.16 413.68
  Q 236.65 409.91 238.36 405.99
  A 0.05 0.05 0.0 0 1 238.45 406.02
  L 237.67 410.45
  A 0.96 0.94 -49.5 0 0 237.70 410.90
  L 239.84 417.82
  A 1.61 1.61 0.0 0 1 239.66 419.16
  Q 237.34 422.80 237.29 427.00
  L 235.99 427.10
  A 1.41 1.37 -67.9 0 0 235.12 427.48
  C 233.92 428.63 232.01 429.18 230.46 427.79
  Q 228.84 426.32 225.11 426.23
  A 1.76 1.75 -26.0 0 1 224.15 425.90
  Q 220.77 423.46 219.57 422.07
  C 216.99 419.10 211.59 419.11 208.55 420.20
  A 0.40 0.39 80.4 0 1 208.02 419.82
  Q 208.02 418.29 208.79 416.55
  A 0.17 0.17 0.0 0 1 209.12 416.59
  Q 209.35 417.91 211.01 417.88
  Q 215.64 417.80 219.30 419.13
  A 2.47 2.42 77.4 0 1 220.21 419.72
  Q 222.46 422.07 223.27 423.22
  Q 223.49 423.54 223.97 423.60
  A 1.22 1.11 86.9 0 0 225.18 422.12
  Q 224.01 416.59 219.87 414.49
  Q 215.14 412.09 210.59 414.40
  Q 205.82 416.84 205.52 423.59
  A 1.31 1.31 0.0 0 1 203.14 424.28
  Q 202.19 422.93 201.21 420.59
  Q 200.40 418.63 198.73 417.57
  A 1.21 1.12 27.8 0 0 197.00 418.04
  Q 196.69 418.82 196.94 419.81
  Q 198.45 425.68 203.11 428.63
  A 1.06 1.06 0.0 0 1 203.60 429.64
  Q 203.01 435.33 203.81 439.45
  Q 201.56 439.70 201.58 440.80
  A 3.50 3.16 9.2 0 0 204.00 443.82
  C 207.16 444.84 211.48 445.08 214.88 447.19
  A 2.76 2.75 54.1 0 0 216.98 447.53
  L 219.07 447.03
  A 0.85 0.84 60.0 0 0 219.45 445.59
  Q 217.84 444.05 215.55 443.05
  Q 221.48 445.96 222.54 441.91
  A 0.80 0.80 0.0 0 1 223.29 441.31
  Q 224.87 441.27 225.74 442.11
  Q 227.65 443.93 227.80 445.62
  Q 227.87 446.39 228.21 447.31
  A 1.87 1.86 70.4 0 1 227.07 449.72
  Q 223.95 450.81 225.11 453.04
  L 223.31 453.01
  Q 222.04 452.75 220.71 453.16
  Q 215.01 453.57 209.62 455.43
  A 8.02 7.21 -56.2 0 1 208.20 455.79
  L 201.92 456.78
  A 0.76 0.60 25.1 0 0 201.75 456.82
  L 185.07 462.36
  A 6.25 5.99 17.4 0 0 183.58 463.10
  L 178.76 466.40
  Q 172.77 465.06 167.97 462.25
  Q 172.31 458.67 176.76 458.69
  A 1.01 1.01 0.0 0 0 177.72 457.36
  L 176.06 452.36
  A 0.86 0.86 0.0 0 0 174.41 452.43
  Q 173.83 454.94 171.34 455.08
  C 169.55 455.18 168.35 456.69 166.75 456.97
  A 2.46 2.45 47.6 0 1 165.70 456.92
  Q 163.89 456.44 161.96 456.60
  A 1.56 1.51 21.9 0 0 161.10 456.95
  Q 159.38 458.39 157.60 458.67
  L 160.89 455.77
  A 0.80 0.80 0.0 0 0 160.70 454.44
  Q 157.74 453.09 154.70 453.25
  Q 152.76 450.92 150.43 449.98
  Q 150.55 445.58 145.47 446.68
  A 2.99 2.91 20.3 0 0 144.41 447.15
  Q 138.70 451.21 134.78 456.13
  A 0.80 0.80 0.0 0 1 133.40 455.91
  Q 132.84 454.40 133.29 452.98
  A 1.34 1.31 85.8 0 1 133.96 452.19
  Q 134.76 451.78 135.24 450.97
  C 138.65 448.50 142.32 446.09 145.15 443.19
  C 150.73 437.46 155.26 433.89 160.13 428.15
  Q 161.33 426.73 167.83 419.91
  C 170.51 417.10 172.28 414.03 175.03 411.51
  A 0.27 0.27 0.0 0 0 174.78 411.05
  L 171.34 411.88
  A 0.94 0.94 0.0 0 1 170.19 410.87
  L 170.42 408.57
  Q 176.46 403.91 182.81 399.55
  Q 188.20 395.86 190.55 393.63
  Q 193.91 390.45 196.98 386.33
  A 2.49 2.45 58.2 0 0 197.42 384.38
  L 195.51 374.69
  Q 194.63 371.04 192.67 364.76
  Q 191.75 361.83 190.22 360.02
  A 0.65 0.64 -34.0 0 0 189.44 359.87
  Q 181.53 364.00 177.20 367.32
  Q 154.84 384.47 132.62 404.75
  A 0.30 0.30 0.0 0 1 132.16 404.68
  L 127.28 396.23
  A 0.48 0.48 0.0 0 1 127.41 395.60
  Q 150.05 378.55 169.77 360.38
  Q 177.87 352.91 180.00 341.81
  C 180.37 339.85 181.24 339.15 182.99 338.42
  Q 191.82 334.76 196.97 333.07
  Q 199.86 332.12 198.24 331.03
  L 205.34 327.82
  A 1.31 1.31 0.0 0 0 205.02 325.34
  Q 196.92 323.95 194.27 330.09
  Q 188.37 331.66 182.07 332.80
  C 176.40 333.82 174.24 334.41 169.31 330.04
  Q 163.62 324.98 160.14 322.72
  A 1.54 1.50 -25.4 0 0 159.41 322.47
  Q 155.31 322.07 152.58 322.59
  C 149.83 323.12 145.92 325.03 142.35 325.59
  Q 139.84 325.99 138.19 326.61
  A 1.64 1.61 -85.5 0 0 137.35 327.34
  Q 137.08 327.83 136.92 327.97
  A 0.21 0.21 0.0 0 1 136.59 327.73
  Q 138.32 323.32 142.55 320.06
  A 0.25 0.25 0.0 0 0 142.61 319.73
  L 142.59 319.71
  A 0.26 0.26 0.0 0 0 142.24 319.63
  Q 136.78 323.04 132.50 327.84
  A 0.15 0.15 0.0 0 1 132.30 327.86
  L 132.30 327.85
  A 0.14 0.14 0.0 0 1 132.27 327.66
  Q 134.34 324.52 137.85 321.00
  Q 140.85 318.00 138.43 314.35
  A 1.81 1.72 -3.1 0 0 137.71 313.74
  L 133.97 312.01
  A 2.78 2.77 29.5 0 0 130.52 312.96
  L 128.93 315.27
  A 3.58 3.54 89.6 0 1 128.20 316.02
  L 121.00 321.46
  Q 120.88 321.46 120.77 321.47
  L 125.07 316.47
  A 0.71 0.71 0.0 0 0 124.52 315.29
  C 122.11 315.33 119.57 316.03 117.43 317.62
  C 115.14 319.31 108.59 323.73 108.30 326.36
  A 0.03 0.02 69.2 0 0 108.34 326.38
  L 110.83 323.46
  A 0.98 0.95 17.5 0 1 111.50 323.12
  L 116.62 322.72
  A 0.46 0.45 -72.1 0 1 117.00 323.47
  L 111.84 329.58
  Q 101.54 338.13 91.30 346.79
  C 86.02 351.26 81.68 353.89 77.85 358.19
  A 1.03 1.03 0.0 0 1 76.24 358.10
  Q 74.87 356.19 72.73 356.23
  Q 71.44 349.96 65.12 350.42
  A 0.74 0.72 4.2 0 0 64.46 350.98
  Q 63.88 353.53 64.46 355.99
  A 0.46 0.45 -81.6 0 1 63.79 356.49
  Q 61.93 355.39 61.54 353.52
  A 2.10 2.10 0.0 0 1 61.54 352.66
  Q 64.35 340.15 65.32 327.46
  Q 65.42 326.13 65.33 325.19
  Q 65.08 322.76 65.10 322.74
  A 0.62 0.61 35.8 0 0 64.95 321.85
  L 63.08 320.64
  A 0.76 0.75 -67.9 0 0 61.93 321.13
  L 60.49 328.28
  A 1.06 1.05 -15.0 0 1 60.14 328.88
  Q 58.96 329.87 58.51 330.92
  A 1.15 0.87 68.1 0 0 58.42 331.25
  L 57.76 336.79
  L 57.07 321.55
  L 56.85 315.48
  Q 56.82 315.06 56.99 314.99
  A 1.33 1.05 63.4 0 1 58.44 315.67
  Q 59.36 317.35 60.03 318.92
  A 1.20 1.19 -26.8 0 0 61.75 319.48
  L 66.51 316.61
  A 3.71 3.67 -82.1 0 0 67.19 316.09
  Q 72.10 311.36 74.49 304.75
  A 2.55 2.00 64.7 0 0 74.59 304.31
  L 74.87 301.51
  A 2.40 2.37 -28.2 0 1 75.14 300.64
  C 76.59 297.95 77.53 295.23 73.22 294.96
  A 1.42 1.42 0.0 0 0 71.73 296.62
  Q 71.98 298.03 71.76 299.34
  A 0.09 0.08 -85.9 0 1 71.68 299.42
  L 71.67 299.42
  A 0.15 0.14 0.0 0 1 71.52 299.28
  L 71.41 296.65
  Q 69.90 295.31 67.49 295.43
  Q 59.23 295.85 51.54 296.43
  L 54.25 293.74
  A 1.55 1.55 0.0 0 1 55.24 293.29
  L 59.33 292.97
  A 1.27 1.26 -74.9 0 0 60.26 292.43
  Q 61.98 289.89 62.03 288.74
  C 62.20 285.13 61.86 282.42 64.24 279.03
  Q 64.09 280.46 64.73 281.23
  A 1.07 1.06 68.2 0 0 65.63 281.62
  L 68.59 281.38
  A 0.81 0.80 -25.7 0 0 69.08 279.99
  Q 67.45 278.47 64.98 277.46
  Q 68.09 271.79 72.60 268.23
  Q 73.62 269.42 77.50 268.67
  Q 76.45 269.40 74.89 269.58
  A 0.52 0.52 0.0 0 0 74.82 270.60
  Q 76.04 270.90 77.49 270.37
  Q 83.10 268.32 88.51 267.83
  A 1.90 1.87 24.1 0 0 89.40 267.50
  Q 90.25 266.91 91.52 266.47
  Q 97.05 264.57 101.32 264.09
  A 4.82 4.75 -59.5 0 0 102.67 263.73
  Q 105.87 262.34 109.53 262.23
  A 1.63 1.60 22.1 0 0 110.58 261.80
  Q 111.78 260.68 114.22 260.71
  A 0.37 0.37 0.0 0 1 114.57 261.19
  Q 113.70 264.00 112.77 264.99
  A 2.93 2.91 16.2 0 1 111.28 265.80
  L 103.09 267.53
  A 0.05 0.05 0.0 0 0 103.10 267.63
  Q 104.56 267.63 109.88 267.37
  L 109.87 267.38
  C 103.59 268.12 101.59 269.48 101.37 275.99
  A 0.88 0.84 -70.2 0 0 101.67 276.67
  L 103.67 278.38
  A 2.00 2.00 0.0 0 0 106.85 277.53
  Q 108.74 272.23 105.09 269.10
  A 0.27 0.26 -19.8 0 1 105.31 268.64
  Q 106.90 268.92 108.70 270.18
  A 0.55 0.55 0.0 0 1 108.87 270.89
  C 107.84 272.83 108.49 277.11 108.78 280.25
  Z
  M 80.2625 282.4810
  A 1.82 1.82 0.0 0 0 78.5671 280.5444
  L 75.5737 280.3456
  A 1.82 1.82 0.0 0 0 73.6371 282.0410
  L 73.5775 282.9390
  A 1.82 1.82 0.0 0 0 75.2729 284.8756
  L 78.2663 285.0744
  A 1.82 1.82 0.0 0 0 80.2029 283.3790
  L 80.2625 282.4810
  Z
  M 93.56 297.34
  L 96.58 296.34
  A 1.16 1.16 0.0 0 0 97.32 294.88
  L 97.19 294.47
  A 3.61 2.62 71.8 0 0 93.57 291.86
  L 93.32 291.94
  A 3.61 2.62 71.8 0 0 91.96 296.19
  L 92.10 296.60
  A 1.16 1.16 0.0 0 0 93.56 297.34
  Z
  M 77.27 310.96
  L 74.30 311.25
  A 0.67 0.67 0.0 0 0 74.19 312.56
  Q 76.41 313.15 77.97 314.98
  A 1.19 1.18 65.2 0 0 79.05 315.38
  Q 81.72 314.96 80.16 311.20
  Q 81.90 311.50 82.68 312.65
  A 1.70 1.70 0.0 0 0 85.21 312.97
  Q 86.38 311.95 88.45 310.48
  Q 90.08 309.32 90.15 308.10
  A 0.80 0.80 0.0 0 0 89.02 307.33
  Q 86.62 308.44 85.94 309.26
  A 1.00 1.00 0.0 0 1 84.45 309.32
  L 83.68 308.52
  A 1.15 1.15 0.0 0 1 83.98 306.70
  C 86.57 305.38 90.32 304.97 88.67 300.57
  Q 86.21 294.01 79.10 294.00
  A 0.95 0.94 1.6 0 0 78.15 294.89
  Q 77.99 297.37 76.14 300.49
  A 0.96 0.92 -25.5 0 0 76.02 300.81
  L 74.86 306.28
  A 1.09 0.97 72.7 0 1 74.66 306.72
  Q 73.53 308.20 73.42 309.55
  A 1.21 1.21 0.0 0 0 75.02 310.79
  Q 77.37 310.01 77.27 310.96
  Z
  M 165.6781 312.1887
  A 8.36 2.02 -138.3 0 0 170.5762 319.2582
  A 8.36 2.02 -138.3 0 0 178.1619 323.3113
  A 8.36 2.02 -138.3 0 0 173.2638 316.2418
  A 8.36 2.02 -138.3 0 0 165.6781 312.1887
  Z
  M 83.6010 322.7596
  A 5.82 2.06 -155.1 0 0 88.0127 327.0785
  A 5.82 2.06 -155.1 0 0 94.1590 327.6604
  A 5.82 2.06 -155.1 0 0 89.7473 323.3415
  A 5.82 2.06 -155.1 0 0 83.6010 322.7596
  Z
  M 226.84 362.82
  Q 227.36 361.74 227.34 360.80
  A 0.61 0.60 2.1 0 0 226.79 360.21
  Q 221.70 359.71 218.78 364.33
  Q 217.53 366.31 215.86 369.98
  A 0.69 0.69 0.0 0 0 216.82 370.87
  Q 220.57 368.84 221.12 368.79
  A 1.24 1.24 0.0 0 0 221.99 368.31
  Q 223.67 366.16 226.64 364.12
  Q 226.87 363.97 226.85 363.68
  A 0.96 0.06 86.0 0 1 226.84 362.82
  Z
  M 185.33 403.26
  C 189.02 403.78 198.54 392.67 200.96 389.97
  A 2.62 2.58 6.2 0 1 201.63 389.44
  Q 202.86 388.75 203.43 388.17
  Q 212.10 379.43 220.57 371.23
  A 0.66 0.66 0.0 0 0 220.58 370.30
  L 220.26 369.97
  A 0.83 0.83 0.0 0 0 219.10 369.95
  L 185.20 402.84
  A 0.25 0.24 -62.7 0 0 185.33 403.26
  Z
  M 216.7924 400.6763
  A 4.37 1.96 -120.8 0 0 217.3464 405.4336
  A 4.37 1.96 -120.8 0 0 221.2676 408.1837
  A 4.37 1.96 -120.8 0 0 220.7136 403.4264
  A 4.37 1.96 -120.8 0 0 216.7924 400.6763
  Z
  M 182.00 433.40
  L 175.78 433.50
  A 0.46 0.46 0.0 0 0 175.33 433.97
  L 175.33 434.33
  A 3.76 3.56 89.0 0 0 178.96 438.03
  L 178.98 438.03
  A 3.76 3.56 89.0 0 0 182.47 434.21
  L 182.47 433.85
  A 0.46 0.46 0.0 0 0 182.00 433.40
  Z
  M 223.10 442.24
  L 223.95 450.20
  A 0.16 0.16 0.0 0 0 224.12 450.34
  L 224.17 450.34
  A 4.02 3.97 83.9 0 0 227.69 445.92
  L 227.66 445.64
  A 4.02 3.97 83.9 0 0 223.29 442.06
  L 223.24 442.07
  A 0.16 0.16 0.0 0 0 223.10 442.24
  Z"
/>
<path fill="#0d0d0d" d="
  M 217.38 324.72
  L 215.46 325.23
  C 211.36 321.27 207.15 317.17 202.83 313.72
  C 197.03 309.10 193.65 305.82 186.52 299.60
  Q 159.20 275.78 156.17 272.84
  Q 148.74 265.64 142.64 261.24
  A 0.48 0.47 -52.0 0 1 142.56 260.54
  L 142.75 260.32
  A 0.29 0.28 37.5 0 1 143.14 260.27
  Q 151.31 265.91 152.78 267.57
  Q 156.48 271.72 160.82 274.74
  C 163.14 276.36 164.62 278.76 166.92 280.52
  C 171.48 284.00 174.83 287.68 179.45 291.51
  Q 187.43 298.14 195.18 304.77
  C 199.46 308.44 203.37 312.80 208.03 315.97
  A 2.08 1.30 5.6 0 1 208.25 316.14
  L 217.38 324.72
  Z"
/>
<ellipse fill="#fac986" cx="0.00" cy="0.00" transform="translate(124.99,263.91) rotate(-156.7)" rx="0.76" ry="0.60"/>
<path fill="#0d0d0d" d="
  M 319.36 261.76
  L 319.40 263.20
  L 319.36 261.76
  Z"
/>
<path fill="#53595f" d="
  M 348.17 271.12
  Q 351.58 274.40 355.82 276.18
  C 359.49 277.73 361.37 278.64 361.96 282.31
  Q 362.37 284.83 362.46 287.34
  A 2.18 2.17 81.7 0 1 360.84 289.52
  C 358.50 290.15 356.03 289.30 353.78 288.24
  A 0.61 0.60 24.7 0 0 352.97 288.53
  Q 352.61 289.31 352.67 290.26
  Q 351.86 286.33 347.32 284.92
  Q 346.36 284.62 346.64 283.68
  A 0.67 0.65 41.0 0 0 346.60 283.21
  Q 345.11 280.03 344.18 278.34
  Q 343.73 277.53 342.84 278.06
  L 348.17 271.12
  Z"
/>
<path fill="#fac986" d="
  M 64.98 277.46
  Q 67.45 278.47 69.08 279.99
  A 0.81 0.80 -25.7 0 1 68.59 281.38
  L 65.63 281.62
  A 1.07 1.06 68.2 0 1 64.73 281.23
  Q 64.09 280.46 64.24 279.03
  L 64.98 277.46
  Z"
/>
<path fill="#0d0d0d" d="
  M 341.71 277.96
  Q 341.37 277.92 340.96 277.48
  Q 341.47 277.68 341.71 277.96
  Z"
/>
<path fill="#53595f" d="
  M 108.78 280.25
  Q 107.41 280.81 106.74 280.20
  A 0.17 0.17 0.0 0 1 106.89 279.91
  L 108.78 280.25
  Z"
/>
<rect fill="#7ea1c0" x="-3.32" y="-2.27" transform="translate(76.92,282.71) rotate(3.8)" width="6.64" height="4.54" rx="1.82"/>
<path fill="#fac986" d="
  M 264.60 285.29
  A 0.45 0.45 0.0 0 1 265.10 285.67
  L 265.10 285.69
  A 0.31 0.31 0.0 0 1 264.88 286.04
  Q 261.48 286.97 258.92 289.79
  A 0.40 0.40 0.0 0 1 258.23 289.57
  L 258.18 289.24
  A 1.04 1.04 0.0 0 1 258.43 288.39
  Q 260.86 285.73 264.60 285.29
  Z"
/>
<path fill="#fac986" d="
  M 281.77 298.88
  C 283.86 300.30 284.16 303.48 283.94 305.97
  A 0.87 0.87 0.0 0 1 283.35 306.72
  Q 281.11 307.48 280.03 309.73
  A 0.51 0.51 0.0 0 1 279.06 309.42
  Q 279.35 307.71 277.82 307.21
  A 1.80 1.73 46.2 0 0 276.88 307.17
  Q 273.29 308.02 273.09 308.08
  Q 271.76 308.49 270.80 306.80
  A 0.62 0.61 50.9 0 1 270.87 306.11
  L 271.47 305.41
  A 0.13 0.13 0.0 0 0 271.28 305.23
  Q 270.20 306.11 268.60 306.08
  A 0.37 0.37 0.0 0 1 268.32 305.47
  L 269.20 304.44
  A 0.88 0.87 53.9 0 0 269.34 303.53
  Q 268.45 301.39 266.75 300.69
  A 0.74 0.73 20.0 0 1 266.33 299.80
  L 266.94 297.76
  A 1.68 1.63 -12.5 0 1 267.48 296.94
  Q 270.67 294.38 272.18 291.18
  A 1.37 1.34 -38.1 0 0 272.29 290.35
  Q 271.99 288.58 269.75 289.01
  C 266.55 289.62 264.08 294.13 262.38 296.93
  A 0.49 0.49 0.0 0 1 261.59 297.00
  L 261.52 296.92
  A 0.87 0.86 -50.3 0 1 261.43 295.91
  Q 264.80 290.18 269.41 287.03
  Q 269.96 286.66 270.11 286.12
  Q 270.32 285.34 271.13 285.64
  A 0.62 0.60 -14.8 0 1 271.36 285.77
  L 282.54 295.33
  A 0.59 0.58 45.8 0 1 282.53 296.23
  Q 281.57 297.00 281.43 298.13
  A 0.79 0.79 0.0 0 0 281.77 298.88
  Z"
/>
<path fill="#7ea1c0" d="
  M 93.56 297.34
  A 1.16 1.16 0.0 0 1 92.10 296.60
  L 91.96 296.19
  A 3.61 2.62 71.8 0 1 93.32 291.94
  L 93.57 291.86
  A 3.61 2.62 71.8 0 1 97.19 294.47
  L 97.32 294.88
  A 1.16 1.16 0.0 0 1 96.58 296.34
  L 93.56 297.34
  Z"
/>
<path fill="#fac986" d="
  M 80.16 311.20
  Q 78.90 310.69 77.27 310.96
  Q 77.37 310.01 75.02 310.79
  A 1.21 1.21 0.0 0 1 73.42 309.55
  Q 73.53 308.20 74.66 306.72
  A 1.09 0.97 72.7 0 0 74.86 306.28
  L 76.02 300.81
  A 0.96 0.92 -25.5 0 1 76.14 300.49
  Q 77.99 297.37 78.15 294.89
  A 0.95 0.94 1.6 0 1 79.10 294.00
  Q 86.21 294.01 88.67 300.57
  C 90.32 304.97 86.57 305.38 83.98 306.70
  A 1.15 1.15 0.0 0 0 83.68 308.52
  L 84.45 309.32
  A 1.00 1.00 0.0 0 0 85.94 309.26
  Q 86.62 308.44 89.02 307.33
  A 0.80 0.80 0.0 0 1 90.15 308.10
  Q 90.08 309.32 88.45 310.48
  Q 86.38 311.95 85.21 312.97
  A 1.70 1.70 0.0 0 1 82.68 312.65
  Q 81.90 311.50 80.16 311.20
  Z"
/>
<path fill="#0d0d0d" d="
  M 56.85 315.48
  Q 56.50 311.66 54.25 309.30
  L 52.42 301.40
  A 0.42 0.42 0.0 0 1 52.84 300.89
  Q 54.23 300.93 54.62 302.51
  Q 55.15 304.71 55.75 306.01
  A 0.08 0.08 0.0 0 0 55.90 305.99
  Q 56.13 305.17 56.41 305.80
  A 1.69 1.08 -78.5 0 1 56.48 305.99
  L 58.56 312.04
  A 2.44 2.43 74.9 0 0 61.33 313.64
  Q 63.71 313.16 65.04 313.02
  Q 67.98 312.71 68.91 309.38
  Q 69.21 308.30 69.35 305.69
  A 1.01 1.00 67.7 0 1 69.60 305.08
  L 70.25 304.31
  A 0.70 0.68 70.6 0 0 70.41 303.96
  L 71.41 296.65
  L 71.52 299.28
  A 0.15 0.14 0.0 0 0 71.67 299.42
  L 71.68 299.42
  A 0.09 0.08 -85.9 0 0 71.76 299.34
  Q 71.98 298.03 71.73 296.62
  A 1.42 1.42 0.0 0 1 73.22 294.96
  C 77.53 295.23 76.59 297.95 75.14 300.64
  A 2.40 2.37 -28.2 0 0 74.87 301.51
  L 74.59 304.31
  A 2.55 2.00 64.7 0 1 74.49 304.75
  Q 72.10 311.36 67.19 316.09
  A 3.71 3.67 -82.1 0 1 66.51 316.61
  L 61.75 319.48
  A 1.20 1.19 -26.8 0 1 60.03 318.92
  Q 59.36 317.35 58.44 315.67
  A 1.33 1.05 63.4 0 0 56.99 314.99
  Q 56.82 315.06 56.85 315.48
  Z"
/>
<path fill="#fac986" d="
  M 71.41 296.65
  L 70.41 303.96
  A 0.70 0.68 70.6 0 1 70.25 304.31
  L 69.60 305.08
  A 1.01 1.00 67.7 0 0 69.35 305.69
  Q 69.21 308.30 68.91 309.38
  Q 67.98 312.71 65.04 313.02
  Q 63.71 313.16 61.33 313.64
  A 2.44 2.43 74.9 0 1 58.56 312.04
  L 56.48 305.99
  A 1.69 1.08 -78.5 0 0 56.41 305.80
  Q 56.13 305.17 55.90 305.99
  A 0.08 0.08 0.0 0 1 55.75 306.01
  Q 55.15 304.71 54.62 302.51
  Q 54.23 300.93 52.84 300.89
  A 0.42 0.42 0.0 0 0 52.42 301.40
  L 54.25 309.30
  C 52.11 308.30 48.38 307.43 47.44 305.34
  C 46.03 302.23 49.05 298.83 51.54 296.43
  Q 59.23 295.85 67.49 295.43
  Q 69.90 295.31 71.41 296.65
  Z"
/>
<path fill="#0d0d0d" d="
  M 77.27 310.96
  Q 78.90 310.69 80.16 311.20
  Q 81.72 314.96 79.05 315.38
  A 1.19 1.18 65.2 0 1 77.97 314.98
  Q 76.41 313.15 74.19 312.56
  A 0.67 0.67 0.0 0 1 74.30 311.25
  L 77.27 310.96
  Z"
/>
<path fill="#53595f" d="
  M 194.27 330.09
  Q 194.35 331.06 195.50 331.12
  Q 196.85 331.19 198.24 331.03
  Q 199.86 332.12 196.97 333.07
  Q 191.82 334.76 182.99 338.42
  C 181.24 339.15 180.37 339.85 180.00 341.81
  Q 177.87 352.91 169.77 360.38
  Q 150.05 378.55 127.41 395.60
  A 0.48 0.48 0.0 0 0 127.28 396.23
  L 132.16 404.68
  A 0.30 0.30 0.0 0 0 132.62 404.75
  Q 154.84 384.47 177.20 367.32
  Q 181.53 364.00 189.44 359.87
  A 0.65 0.64 -34.0 0 1 190.22 360.02
  Q 191.75 361.83 192.67 364.76
  Q 194.63 371.04 195.51 374.69
  C 190.93 377.43 192.31 383.35 187.33 386.06
  Q 185.06 387.29 182.73 388.77
  A 11.56 11.23 5.0 0 0 180.74 390.39
  Q 170.64 400.81 158.66 410.39
  Q 157.94 410.95 151.55 417.32
  Q 147.96 420.89 145.29 424.98
  C 143.49 427.76 139.87 431.02 137.45 434.56
  Q 137.20 434.93 135.45 437.69
  A 0.57 0.56 -57.9 0 1 134.68 437.87
  C 130.79 435.51 128.03 433.01 125.77 428.46
  C 122.88 422.67 119.58 416.15 114.74 411.50
  A 3.65 3.60 -83.9 0 1 114.11 410.71
  Q 110.53 404.79 105.48 400.19
  L 94.15 385.63
  Q 94.30 385.62 94.42 385.59
  A 0.54 0.53 -21.2 0 0 94.76 384.82
  C 93.68 382.77 91.67 380.76 91.90 378.13
  A 0.82 0.81 17.3 0 0 91.48 377.34
  Q 88.74 375.86 87.44 373.51
  C 86.52 371.84 84.72 371.14 83.60 370.65
  Q 80.61 369.33 79.47 366.40
  A 0.32 0.32 0.0 0 1 79.86 365.97
  Q 83.06 366.93 86.22 364.97
  Q 87.41 364.23 87.66 363.44
  A 1.22 1.18 6.4 0 0 86.40 361.91
  Q 83.96 362.07 80.82 361.14
  A 1.37 1.37 0.0 0 1 80.22 358.87
  Q 83.66 355.31 88.32 353.79
  A 3.63 3.61 10.4 0 0 90.00 352.64
  Q 92.95 349.04 104.37 339.89
  Q 108.60 336.50 123.75 322.74
  A 4.64 4.03 4.1 0 1 124.31 322.32
  Q 126.28 321.09 127.83 319.48
  A 1.90 1.90 0.0 0 1 128.79 318.95
  Q 131.51 318.36 132.43 316.17
  A 1.09 1.08 -84.5 0 1 133.19 315.54
  Q 134.07 315.34 134.64 315.37
  L 134.65 315.37
  C 132.96 315.42 132.04 315.51 131.50 317.38
  A 0.11 0.10 -75.8 0 1 131.39 317.45
  L 131.13 317.42
  A 0.38 0.37 16.6 0 1 130.84 316.89
  Q 131.82 314.84 134.21 313.76
  A 0.27 0.26 -56.4 0 0 134.11 313.25
  C 132.08 313.21 130.94 313.80 129.43 315.30
  Q 125.68 319.01 121.00 321.46
  L 128.20 316.02
  A 3.58 3.54 89.6 0 0 128.93 315.27
  L 130.52 312.96
  A 2.78 2.77 29.5 0 1 133.97 312.01
  L 137.71 313.74
  A 1.81 1.72 -3.1 0 1 138.43 314.35
  Q 140.85 318.00 137.85 321.00
  Q 134.34 324.52 132.27 327.66
  A 0.14 0.14 0.0 0 0 132.30 327.85
  L 132.30 327.86
  A 0.15 0.15 0.0 0 0 132.50 327.84
  Q 136.78 323.04 142.24 319.63
  A 0.26 0.26 0.0 0 1 142.59 319.71
  L 142.61 319.73
  A 0.25 0.25 0.0 0 1 142.55 320.06
  Q 138.32 323.32 136.59 327.73
  A 0.21 0.21 0.0 0 0 136.92 327.97
  Q 137.08 327.83 137.35 327.34
  A 1.64 1.61 -85.5 0 1 138.19 326.61
  Q 139.84 325.99 142.35 325.59
  C 145.92 325.03 149.83 323.12 152.58 322.59
  Q 155.31 322.07 159.41 322.47
  A 1.54 1.50 -25.4 0 1 160.14 322.72
  Q 163.62 324.98 169.31 330.04
  C 174.24 334.41 176.40 333.82 182.07 332.80
  Q 188.37 331.66 194.27 330.09
  Z"
/>
<path fill="#0d0d0d" d="
  M 94.15 385.63
  Q 91.52 382.02 89.22 379.79
  Q 79.10 369.98 68.83 360.75
  A 0.83 0.83 0.0 0 1 68.85 359.49
  L 72.73 356.23
  Q 74.87 356.19 76.24 358.10
  A 1.03 1.03 0.0 0 0 77.85 358.19
  C 81.68 353.89 86.02 351.26 91.30 346.79
  Q 101.54 338.13 111.84 329.58
  L 120.77 321.47
  Q 120.88 321.46 121.00 321.46
  Q 125.68 319.01 129.43 315.30
  C 130.94 313.80 132.08 313.21 134.11 313.25
  A 0.27 0.26 -56.4 0 1 134.21 313.76
  Q 131.82 314.84 130.84 316.89
  A 0.38 0.37 16.6 0 0 131.13 317.42
  L 131.39 317.45
  A 0.11 0.10 -75.8 0 0 131.50 317.38
  C 132.04 315.51 132.96 315.42 134.65 315.37
  L 134.64 315.37
  Q 134.07 315.34 133.19 315.54
  A 1.09 1.08 -84.5 0 0 132.43 316.17
  Q 131.51 318.36 128.79 318.95
  A 1.90 1.90 0.0 0 0 127.83 319.48
  Q 126.28 321.09 124.31 322.32
  A 4.64 4.03 4.1 0 0 123.75 322.74
  Q 108.60 336.50 104.37 339.89
  Q 92.95 349.04 90.00 352.64
  A 3.63 3.61 10.4 0 1 88.32 353.79
  Q 83.66 355.31 80.22 358.87
  A 1.37 1.37 0.0 0 0 80.82 361.14
  Q 83.96 362.07 86.40 361.91
  A 1.22 1.18 6.4 0 1 87.66 363.44
  Q 87.41 364.23 86.22 364.97
  Q 83.06 366.93 79.86 365.97
  A 0.32 0.32 0.0 0 0 79.47 366.40
  Q 80.61 369.33 83.60 370.65
  C 84.72 371.14 86.52 371.84 87.44 373.51
  Q 88.74 375.86 91.48 377.34
  A 0.82 0.81 17.3 0 1 91.90 378.13
  C 91.67 380.76 93.68 382.77 94.76 384.82
  A 0.54 0.53 -21.2 0 1 94.42 385.59
  Q 94.30 385.62 94.15 385.63
  Z"
/>
<ellipse fill="#7ea1c0" cx="0.00" cy="0.00" transform="translate(171.92,317.75) rotate(-138.3)" rx="8.36" ry="2.02"/>
<path fill="#53595f" d="
  M 120.77 321.47
  L 111.84 329.58
  L 117.00 323.47
  A 0.46 0.45 -72.1 0 0 116.62 322.72
  L 111.50 323.12
  A 0.98 0.95 17.5 0 0 110.83 323.46
  L 108.34 326.38
  A 0.03 0.02 69.2 0 1 108.30 326.36
  C 108.59 323.73 115.14 319.31 117.43 317.62
  C 119.57 316.03 122.11 315.33 124.52 315.29
  A 0.71 0.71 0.0 0 1 125.07 316.47
  L 120.77 321.47
  Z"
/>
<ellipse fill="#53595f" cx="0.00" cy="0.00" transform="translate(353.61,321.34) rotate(-138.0)" rx="1.98" ry="0.82"/>
<path fill="#7ea1c0" d="
  M 72.73 356.23
  L 68.85 359.49
  A 0.83 0.83 0.0 0 0 68.83 360.75
  Q 79.10 369.98 89.22 379.79
  Q 91.52 382.02 94.15 385.63
  L 105.48 400.19
  Q 120.48 420.86 129.78 445.30
  Q 130.37 446.86 131.92 447.47
  Q 132.32 447.63 133.49 446.55
  Q 135.35 445.62 135.83 446.85
  A 0.56 0.55 -50.9 0 1 135.86 447.16
  L 135.24 450.97
  Q 134.76 451.78 133.96 452.19
  A 1.34 1.31 85.8 0 0 133.29 452.98
  Q 132.84 454.40 133.40 455.91
  A 0.80 0.80 0.0 0 0 134.78 456.13
  Q 138.70 451.21 144.41 447.15
  A 2.99 2.91 20.3 0 1 145.47 446.68
  Q 150.55 445.58 150.43 449.98
  Q 145.45 447.61 141.70 451.46
  Q 137.38 455.89 132.96 460.51
  Q 131.27 460.07 130.49 457.47
  Q 128.00 449.10 124.33 441.14
  Q 122.91 438.05 120.06 435.15
  Q 106.49 407.83 90.25 389.49
  C 81.31 379.41 71.46 370.41 61.62 361.10
  Q 59.47 359.07 57.84 358.01
  C 56.36 357.04 53.89 356.35 52.75 355.05
  Q 53.03 353.21 53.64 352.49
  Q 56.55 344.76 57.76 336.79
  L 58.42 331.25
  A 1.15 0.87 68.1 0 1 58.51 330.92
  Q 58.96 329.87 60.14 328.88
  A 1.06 1.05 -15.0 0 0 60.49 328.28
  L 61.93 321.13
  A 0.76 0.75 -67.9 0 1 63.08 320.64
  L 64.95 321.85
  A 0.62 0.61 35.8 0 1 65.10 322.74
  Q 65.08 322.76 65.33 325.19
  Q 65.42 326.13 65.32 327.46
  Q 64.35 340.15 61.54 352.66
  A 2.10 2.10 0.0 0 0 61.54 353.52
  Q 61.93 355.39 63.79 356.49
  A 0.46 0.45 -81.6 0 0 64.46 355.99
  Q 63.88 353.53 64.46 350.98
  A 0.74 0.72 4.2 0 1 65.12 350.42
  Q 71.44 349.96 72.73 356.23
  Z"
/>
<path fill="#0d0d0d" d="
  M 57.07 321.55
  L 57.76 336.79
  Q 56.55 344.76 53.64 352.49
  Q 53.39 347.96 55.24 343.41
  C 55.93 341.71 55.84 340.83 56.10 339.30
  A 9.56 9.40 -41.5 0 0 56.23 337.41
  Q 55.96 329.39 57.07 321.55
  Z"
/>
<ellipse fill="#7ea1c0" cx="0.00" cy="0.00" transform="translate(88.88,325.21) rotate(-155.1)" rx="5.82" ry="2.06"/>
<path fill="#fac986" d="
  M 219.14 337.12
  Q 219.20 336.13 219.70 335.84
  A 0.41 0.40 60.3 0 0 219.85 335.28
  L 219.16 334.11
  Q 220.32 335.08 221.37 334.25
  A 1.37 1.35 -14.5 0 0 221.86 333.43
  Q 222.25 331.40 220.50 330.02
  Q 217.73 327.84 215.46 325.23
  L 217.38 324.72
  L 220.01 326.87
  A 2.32 2.16 -10.2 0 0 220.57 327.23
  Q 222.97 328.34 224.14 330.21
  A 1.79 1.78 -29.9 0 0 226.50 330.84
  L 230.71 328.57
  A 0.85 0.84 -21.8 0 0 231.13 327.60
  Q 231.11 327.54 231.13 327.24
  A 0.25 0.25 0.0 0 1 231.58 327.10
  Q 231.66 327.21 231.63 327.51
  A 0.45 0.42 23.7 0 0 231.79 327.88
  L 237.43 332.70
  A 1.16 1.15 -46.9 0 1 237.48 334.41
  L 236.54 335.32
  A 0.14 0.14 0.0 0 0 236.68 335.55
  L 237.55 335.26
  A 0.75 0.74 -88.4 0 1 238.47 336.24
  Q 238.12 337.12 237.32 337.82
  Q 232.81 341.77 230.44 343.66
  Q 228.73 345.02 226.19 344.34
  A 2.38 2.32 -19.2 0 1 225.42 343.98
  Q 221.60 341.19 219.14 337.12
  Z"
/>
<ellipse fill="#7ea1c0" cx="0.00" cy="0.00" transform="translate(363.80,325.07) rotate(-171.1)" rx="0.15" ry="0.04"/>
<path fill="#53595f" d="
  M 363.49 325.31
  L 367.65 324.98
  A 0.91 0.91 0.0 0 1 368.63 325.89
  L 368.63 331.45
  A 0.48 0.48 0.0 0 1 367.70 331.60
  L 366.40 327.69
  A 0.78 0.78 0.0 0 0 365.72 327.15
  L 361.40 326.81
  A 0.30 0.29 -6.1 0 1 361.15 326.61
  L 361.04 326.23
  A 0.28 0.28 0.0 0 1 361.33 325.87
  Q 361.56 325.88 365.54 325.88
  A 0.06 0.04 -27.3 0 0 365.59 325.79
  Q 365.56 325.79 365.55 325.77
  A 0.10 0.05 44.4 0 0 365.47 325.74
  Q 364.42 326.21 363.44 325.99
  A 0.35 0.34 49.3 0 1 363.49 325.31
  Z"
/>
<path fill="#7ea1c0" d="
  M 198.24 331.03
  Q 196.85 331.19 195.50 331.12
  Q 194.35 331.06 194.27 330.09
  Q 196.92 323.95 205.02 325.34
  A 1.31 1.31 0.0 0 1 205.34 327.82
  L 198.24 331.03
  Z"
/>
<ellipse fill="#53595f" cx="0.00" cy="0.00" transform="translate(364.84,328.94) rotate(-105.9)" rx="0.42" ry="0.24"/>
<path fill="#53595f" d="
  M 354.62 338.49
  A 0.39 0.38 -77.1 0 1 355.16 338.15
  Q 355.65 338.36 355.76 338.71
  Q 356.09 339.76 357.43 346.18
  A 3.39 3.38 -25.1 0 1 356.21 349.53
  L 351.40 353.30
  A 0.81 0.81 0.0 0 1 350.14 352.38
  Q 351.06 349.94 352.28 348.86
  Q 354.53 346.85 354.54 344.18
  Q 354.55 339.98 354.62 338.49
  Z"
/>
<ellipse fill="#53595f" cx="0.00" cy="0.00" transform="translate(232.88,350.00) rotate(-104.4)" rx="1.38" ry="0.44"/>
<ellipse fill="#53595f" cx="0.00" cy="0.00" transform="translate(231.81,350.04) rotate(-108.5)" rx="0.30" ry="0.08"/>
<path fill="#0d0d0d" d="
  M 229.33 357.56
  L 226.53 355.57
  C 229.07 356.42 232.21 357.00 232.21 353.10
  A 0.21 0.21 0.0 0 1 232.41 352.89
  A 0.25 0.24 -2.3 0 1 232.67 353.12
  L 233.16 361.86
  A 0.54 0.54 0.0 0 1 232.10 362.03
  Q 231.39 359.38 229.33 357.56
  Z"
/>
<path fill="#0d0d0d" d="
  M 52.75 355.05
  C 53.89 356.35 56.36 357.04 57.84 358.01
  Q 59.47 359.07 61.62 361.10
  C 71.46 370.41 81.31 379.41 90.25 389.49
  Q 106.49 407.83 120.06 435.15
  Q 117.63 432.89 116.05 429.97
  Q 113.09 424.49 112.99 424.32
  Q 110.46 420.41 108.22 415.80
  Q 107.56 414.44 105.86 412.50
  C 103.44 409.73 102.03 406.29 99.68 403.40
  Q 93.79 396.12 91.23 392.58
  Q 88.31 388.54 81.93 382.46
  Q 78.30 379.01 71.35 372.15
  Q 69.23 370.05 66.01 368.14
  Q 62.43 363.23 58.00 359.68
  A 3.58 3.17 -10.6 0 0 57.25 359.23
  Q 54.68 358.15 52.40 356.78
  C 51.52 356.25 50.59 356.39 49.70 356.78
  L 47.21 355.58
  L 51.84 355.55
  A 0.98 0.93 -65.4 0 0 52.49 355.29
  L 52.75 355.05
  Z"
/>
<path fill="#53595f" d="
  M 47.21 355.58
  L 49.70 356.78
  Q 48.20 358.65 49.34 360.50
  A 0.26 0.26 0.0 0 1 49.10 360.89
  Q 41.59 360.27 41.27 367.61
  Q 41.19 369.52 42.68 374.31
  A 0.39 0.37 -7.5 0 0 43.03 374.57
  Q 43.17 374.58 43.18 374.59
  A 0.37 0.36 37.0 0 1 43.27 375.18
  Q 41.37 376.97 40.41 380.25
  A 1.70 1.70 0.0 0 0 41.50 382.34
  Q 43.86 383.12 45.29 380.78
  A 0.18 0.18 0.0 0 1 45.62 380.82
  Q 45.81 381.37 45.98 381.46
  Q 53.84 385.31 62.75 384.64
  A 1.32 1.31 10.9 0 0 63.82 383.92
  Q 64.87 381.82 65.33 381.25
  A 2.89 2.88 45.5 0 0 65.36 377.68
  L 61.05 372.08
  A 0.39 0.38 -13.3 0 1 61.43 371.47
  Q 65.65 372.27 66.01 368.14
  Q 69.23 370.05 71.35 372.15
  Q 78.30 379.01 81.93 382.46
  Q 88.31 388.54 91.23 392.58
  Q 93.79 396.12 99.68 403.40
  C 102.03 406.29 103.44 409.73 105.86 412.50
  Q 107.56 414.44 108.22 415.80
  Q 110.46 420.41 112.99 424.32
  Q 113.09 424.49 116.05 429.97
  Q 117.63 432.89 120.06 435.15
  Q 122.91 438.05 124.33 441.14
  Q 128.00 449.10 130.49 457.47
  Q 131.27 460.07 132.96 460.51
  Q 132.42 462.61 133.61 463.02
  Q 132.88 463.71 133.19 464.89
  Q 135.06 472.14 137.46 479.24
  A 5.81 5.79 35.7 0 1 137.77 481.11
  Q 137.76 483.74 138.61 486.14
  Q 137.73 491.07 135.16 495.92
  A 1.40 1.40 0.0 0 1 134.60 496.51
  L 128.81 499.85
  A 4.20 4.11 -61.2 0 1 126.99 500.40
  Q 110.15 501.48 94.13 500.63
  Q 89.42 500.38 82.09 497.89
  C 70.66 494.03 59.78 488.20 50.23 482.77
  Q 33.01 472.99 19.10 460.15
  Q 8.94 450.79 2.62 438.30
  Q 2.90 437.06 2.46 432.28
  Q 1.69 424.03 1.63 421.50
  C 1.38 411.88 0.60 404.46 2.04 395.73
  L 2.60 396.17
  A 0.73 0.73 0.0 0 0 3.75 395.82
  C 4.79 392.65 6.62 390.04 7.94 386.99
  Q 12.28 377.03 19.34 367.99
  C 23.85 362.21 29.15 358.77 36.27 358.09
  Q 40.37 357.70 41.96 357.49
  A 2.60 2.37 -57.1 0 0 42.49 357.35
  L 47.21 355.58
  Z
  M 47.46 393.34
  Q 46.72 395.19 47.10 396.70
  Q 48.51 402.40 49.99 408.12
  C 50.49 410.06 51.53 412.48 52.34 413.90
  Q 57.67 423.17 61.33 428.67
  Q 65.64 435.14 71.95 439.21
  Q 75.77 443.59 78.89 443.17
  Q 78.64 446.36 81.26 448.31
  Q 81.42 448.43 86.36 451.04
  Q 88.91 452.39 91.50 453.69
  Q 91.02 453.71 90.79 453.80
  A 0.28 0.27 52.4 0 0 90.73 454.28
  L 96.70 458.66
  A 2.64 1.84 66.3 0 0 97.11 458.91
  L 99.02 459.82
  A 1.07 1.07 0.0 0 1 99.30 461.56
  L 90.51 470.04
  A 0.22 0.21 -79.3 0 1 90.41 470.11
  Q 87.15 471.69 83.53 472.73
  Q 81.27 473.38 80.02 475.08
  A 0.34 0.34 0.0 0 0 80.26 475.62
  Q 90.26 476.48 97.14 469.29
  C 99.35 466.99 101.94 462.36 102.61 459.70
  Q 103.59 455.83 102.17 450.57
  A 0.77 0.76 -7.6 0 0 101.41 450.00
  Q 96.58 450.08 94.32 448.76
  C 91.23 446.96 88.78 446.36 86.10 444.60
  Q 81.65 441.68 77.36 441.02
  A 1.17 1.17 0.0 0 1 76.38 439.75
  Q 76.52 438.20 76.13 437.01
  A 2.67 2.65 -74.9 0 0 75.60 436.08
  C 73.62 433.89 70.95 431.71 69.27 429.60
  Q 65.30 424.62 64.74 424.08
  A 4.81 4.71 8.0 0 1 63.83 422.90
  L 62.18 419.89
  A 12.73 12.71 21.8 0 1 61.23 417.68
  Q 60.64 415.97 59.96 414.59
  A 7.09 7.02 29.3 0 1 59.30 412.28
  Q 59.04 409.76 57.34 404.68
  A 3.65 3.45 36.7 0 1 57.15 403.60
  Q 57.08 401.09 56.64 398.78
  Q 56.34 397.26 57.22 396.24
  A 0.75 0.75 0.0 0 0 57.13 395.19
  L 53.64 392.20
  A 1.86 1.68 74.5 0 0 53.23 391.94
  Q 51.64 391.22 49.76 391.39
  Q 46.74 391.67 44.67 391.67
  A 0.01 0.01 0.0 0 0 44.66 391.69
  Q 44.67 391.70 44.69 391.71
  A 0.15 0.01 32.6 0 0 44.81 391.78
  Q 45.90 391.79 46.93 391.73
  A 0.51 0.51 0.0 0 1 47.48 392.24
  L 47.46 393.34
  Z
  M 113.29 473.46
  A 0.18 0.18 0.0 0 1 113.03 473.48
  Q 111.01 471.55 109.02 473.02
  A 1.85 1.82 82.1 0 0 108.38 473.88
  C 106.99 477.69 105.18 482.58 109.64 485.11
  C 113.40 487.25 114.80 487.63 116.69 490.94
  A 1.78 1.74 4.0 0 0 117.20 491.51
  Q 118.58 492.52 120.00 492.40
  A 1.52 1.47 -65.1 0 0 120.73 492.12
  Q 121.82 491.33 122.90 491.17
  A 1.92 1.89 51.4 0 1 123.91 491.29
  Q 124.66 491.59 125.09 491.75
  A 1.70 1.70 0.0 0 0 127.21 489.42
  L 125.20 485.14
  A 0.13 0.12 65.3 0 1 125.26 484.97
  L 125.27 484.96
  A 0.18 0.17 63.4 0 1 125.50 485.04
  L 126.62 487.01
  A 1.22 1.22 0.0 0 0 127.98 487.59
  L 128.24 487.52
  A 1.00 1.00 0.0 0 0 128.83 486.13
  Q 127.46 483.28 127.10 480.42
  A 5.01 4.96 -71.5 0 0 125.67 477.52
  C 122.40 474.26 118.53 470.23 114.08 468.83
  A 1.88 1.82 -85.8 0 0 111.74 470.91
  Q 111.93 472.18 113.23 473.08
  A 0.27 0.26 36.2 0 1 113.29 473.46
  Z"
/>
<path fill="#fac986" d="
  M 66.01 368.14
  Q 65.65 372.27 61.43 371.47
  A 0.39 0.38 -13.3 0 0 61.05 372.08
  L 65.36 377.68
  A 2.89 2.88 45.5 0 1 65.33 381.25
  Q 64.87 381.82 63.82 383.92
  A 1.32 1.31 10.9 0 1 62.75 384.64
  Q 53.84 385.31 45.98 381.46
  Q 45.81 381.37 45.62 380.82
  A 0.18 0.18 0.0 0 0 45.29 380.78
  Q 43.86 383.12 41.50 382.34
  A 1.70 1.70 0.0 0 1 40.41 380.25
  Q 41.37 376.97 43.27 375.18
  A 0.37 0.36 37.0 0 0 43.18 374.59
  Q 43.17 374.58 43.03 374.57
  A 0.39 0.37 -7.5 0 1 42.68 374.31
  Q 41.19 369.52 41.27 367.61
  Q 41.59 360.27 49.10 360.89
  A 0.26 0.26 0.0 0 0 49.34 360.50
  Q 48.20 358.65 49.70 356.78
  C 50.59 356.39 51.52 356.25 52.40 356.78
  Q 54.68 358.15 57.25 359.23
  A 3.58 3.17 -10.6 0 1 58.00 359.68
  Q 62.43 363.23 66.01 368.14
  Z"
/>
<path fill="#455260" d="
  M 246.15 432.36
  L 245.63 432.36
  A 0.85 0.84 -87.2 0 1 244.79 431.43
  L 245.01 429.20
  A 2.78 2.64 -48.7 0 0 244.98 428.43
  L 238.63 393.60
  Q 238.62 393.51 238.61 393.42
  Q 238.27 383.32 236.15 374.18
  Q 235.35 370.74 234.94 366.83
  Q 234.43 362.02 234.33 359.42
  A 0.54 0.53 -56.9 0 1 235.36 359.20
  C 237.25 364.00 237.48 371.95 239.15 378.17
  Q 239.94 381.12 240.50 386.28
  Q 241.05 391.35 242.45 398.53
  Q 243.61 404.50 244.36 410.79
  C 245.29 418.64 245.55 423.17 247.38 428.44
  A 2.73 2.64 39.5 0 1 247.51 429.58
  L 247.33 431.29
  A 1.19 1.19 0.0 0 1 246.15 432.36
  Z"
/>
<path fill="#53595f" d="
  M 364.74 359.89
  L 370.29 373.05
  Q 366.26 369.47 363.86 364.15
  Q 363.26 362.83 359.93 360.52
  L 364.74 359.89
  Z"
/>
<path fill="#7ea1c0" d="
  M 226.85 363.68
  Q 226.87 363.97 226.64 364.12
  Q 223.67 366.16 221.99 368.31
  A 1.24 1.24 0.0 0 1 221.12 368.79
  Q 220.57 368.84 216.82 370.87
  A 0.69 0.69 0.0 0 1 215.86 369.98
  Q 217.53 366.31 218.78 364.33
  Q 221.70 359.71 226.79 360.21
  A 0.61 0.60 2.1 0 1 227.34 360.80
  Q 227.36 361.74 226.84 362.82
  A 0.96 0.06 86.0 0 0 226.85 363.68
  Z"
/>
<path fill="#0d0d0d" d="
  M 359.93 360.52
  Q 363.26 362.83 363.86 364.15
  Q 366.26 369.47 370.29 373.05
  Q 388.38 406.00 408.66 437.74
  C 411.77 442.60 415.23 446.78 417.28 450.66
  C 418.33 452.65 420.54 454.79 421.78 456.68
  Q 425.48 462.29 428.05 467.38
  Q 430.54 472.33 434.30 478.02
  Q 444.85 493.99 452.70 513.27
  A 1.04 1.04 0.0 0 1 452.09 514.64
  Q 430.21 522.62 409.17 528.39
  C 405.26 529.46 401.59 530.95 397.42 531.71
  A 11.70 11.30 28.6 0 0 395.53 532.23
  Q 391.40 533.74 388.34 534.24
  A 7.17 7.11 28.2 0 0 386.46 534.80
  Q 381.34 537.12 376.11 537.75
  A 1.53 1.52 71.0 0 1 374.62 537.02
  Q 348.46 492.93 323.00 450.77
  Q 314.31 436.38 300.76 415.31
  Q 301.07 415.46 301.20 415.29
  Q 301.49 414.92 301.39 414.49
  Q 300.25 409.56 296.82 405.68
  A 1.08 1.08 0.0 0 1 297.33 403.92
  Q 299.65 403.25 299.67 403.24
  C 302.57 402.21 305.43 398.88 308.07 396.63
  Q 314.76 390.93 331.26 377.54
  Q 334.11 375.23 337.22 372.95
  Q 338.64 376.66 341.00 379.53
  A 1.00 0.98 64.7 0 0 341.93 379.87
  L 346.41 379.05
  A 0.08 0.07 -49.3 0 0 346.40 378.90
  L 345.56 378.89
  A 1.46 1.42 -23.0 0 1 344.58 378.51
  Q 341.45 375.62 343.40 372.73
  L 344.01 375.64
  A 0.04 0.03 -30.3 0 0 344.07 375.65
  Q 344.09 375.63 344.08 375.61
  Q 343.99 374.15 343.74 372.71
  L 343.94 372.97
  L 345.80 378.06
  A 0.84 0.82 -7.3 0 0 346.50 378.59
  Q 347.52 378.68 349.07 378.13
  Q 349.52 375.05 346.76 371.79
  Q 346.87 370.71 345.94 369.54
  A 1.46 1.45 23.3 0 1 345.63 368.77
  Q 345.52 367.53 346.03 366.28
  C 348.96 362.43 355.44 361.18 359.93 360.52
  Z
  M 379.8165 524.3221
  A 1.65 1.07 -92.9 0 0 378.8314 526.0241
  A 1.65 1.07 -92.9 0 0 379.9835 527.6179
  A 1.65 1.07 -92.9 0 0 380.9686 525.9159
  A 1.65 1.07 -92.9 0 0 379.8165 524.3221
  Z"
/>
<path fill="#53595f" d="
  M 346.03 366.28
  Q 345.52 367.53 345.63 368.77
  A 1.46 1.45 23.3 0 0 345.94 369.54
  Q 346.87 370.71 346.76 371.79
  C 346.49 373.07 346.62 373.89 346.62 375.13
  C 346.21 373.75 345.92 372.51 345.90 371.06
  A 0.35 0.35 0.0 0 0 345.55 370.71
  L 345.21 370.71
  A 0.32 0.31 86.7 0 0 344.90 371.07
  Q 345.46 375.60 349.07 378.13
  Q 347.52 378.68 346.50 378.59
  A 0.84 0.82 -7.3 0 1 345.80 378.06
  L 343.94 372.97
  Q 344.23 371.05 343.22 369.62
  A 0.72 0.72 0.0 0 1 343.45 368.58
  L 343.89 368.32
  A 0.21 0.21 0.0 0 0 343.84 367.93
  Q 343.52 367.83 343.36 367.93
  Q 343.24 368.01 343.37 367.94
  Q 344.74 367.17 346.03 366.28
  Z"
/>
<path fill="#53595f" d="
  M 185.20 402.84
  L 219.10 369.95
  A 0.83 0.83 0.0 0 1 220.26 369.97
  L 220.58 370.30
  A 0.66 0.66 0.0 0 1 220.57 371.23
  Q 212.10 379.43 203.43 388.17
  Q 202.86 388.75 201.63 389.44
  A 2.62 2.58 6.2 0 0 200.96 389.97
  C 198.54 392.67 189.02 403.78 185.33 403.26
  A 0.25 0.24 -62.7 0 1 185.20 402.84
  Z"
/>
<circle fill="#53595f" cx="343.05" cy="370.05" r="0.10"/>
<path fill="#53595f" d="
  M 343.40 372.73
  Q 341.45 375.62 344.58 378.51
  A 1.46 1.42 -23.0 0 0 345.56 378.89
  L 346.40 378.90
  A 0.08 0.07 -49.3 0 1 346.41 379.05
  L 341.93 379.87
  A 1.00 0.98 64.7 0 1 341.00 379.53
  Q 338.64 376.66 337.22 372.95
  Q 338.78 371.79 340.58 370.50
  A 2.07 2.06 64.5 0 1 343.77 371.63
  Q 343.83 371.84 343.40 372.73
  Z"
/>
<path fill="#7ea1c0" d="
  M 346.76 371.79
  Q 349.52 375.05 349.07 378.13
  Q 345.46 375.60 344.90 371.07
  A 0.32 0.31 86.7 0 1 345.21 370.71
  L 345.55 370.71
  A 0.35 0.35 0.0 0 1 345.90 371.06
  C 345.92 372.51 346.21 373.75 346.62 375.13
  C 346.62 373.89 346.49 373.07 346.76 371.79
  Z"
/>
<path fill="#455260" d="
  M 343.74 372.71
  Q 343.99 374.15 344.08 375.61
  Q 344.09 375.63 344.07 375.65
  A 0.04 0.03 -30.3 0 1 344.01 375.64
  L 343.40 372.73
  Q 343.57 372.72 343.74 372.71
  Z"
/>
<path fill="#0d0d0d" d="
  M 195.51 374.69
  L 197.42 384.38
  A 2.49 2.45 58.2 0 1 196.98 386.33
  Q 193.91 390.45 190.55 393.63
  Q 188.20 395.86 182.81 399.55
  Q 176.46 403.91 170.42 408.57
  L 168.67 410.18
  Q 158.02 420.42 146.52 429.77
  Q 142.60 432.95 140.67 440.00
  Q 139.84 441.93 138.40 443.44
  A 1.58 1.56 -72.8 0 1 137.56 443.89
  C 135.91 444.19 133.47 444.16 133.49 446.55
  Q 132.32 447.63 131.92 447.47
  Q 130.37 446.86 129.78 445.30
  Q 120.48 420.86 105.48 400.19
  Q 110.53 404.79 114.11 410.71
  A 3.65 3.60 -83.9 0 0 114.74 411.50
  C 119.58 416.15 122.88 422.67 125.77 428.46
  C 128.03 433.01 130.79 435.51 134.68 437.87
  A 0.57 0.56 -57.9 0 0 135.45 437.69
  Q 137.20 434.93 137.45 434.56
  C 139.87 431.02 143.49 427.76 145.29 424.98
  Q 147.96 420.89 151.55 417.32
  Q 157.94 410.95 158.66 410.39
  Q 170.64 400.81 180.74 390.39
  A 11.56 11.23 5.0 0 1 182.73 388.77
  Q 185.06 387.29 187.33 386.06
  C 192.31 383.35 190.93 377.43 195.51 374.69
  Z"
/>
<path fill="#0d0d0d" d="
  M 91.50 453.69
  Q 95.39 456.04 100.29 456.85
  A 1.45 1.44 85.7 0 0 101.90 454.97
  L 101.54 453.91
  A 3.38 3.37 89.3 0 0 99.33 451.75
  L 95.94 450.73
  A 4.04 3.61 -18.5 0 1 95.22 450.42
  Q 87.29 445.82 78.89 443.17
  Q 75.77 443.59 71.95 439.21
  L 74.12 439.97
  A 1.06 1.05 -4.4 0 0 75.40 438.48
  L 73.91 435.65
  A 0.33 0.31 9.7 0 0 73.82 435.53
  Q 60.14 423.18 54.94 405.25
  C 53.77 401.19 53.68 399.12 52.95 394.15
  A 0.67 0.67 0.0 0 0 52.32 393.58
  L 47.46 393.34
  L 47.48 392.24
  A 0.51 0.51 0.0 0 0 46.93 391.73
  Q 45.90 391.79 44.81 391.78
  A 0.15 0.01 32.6 0 1 44.69 391.71
  Q 44.67 391.70 44.66 391.69
  A 0.01 0.01 0.0 0 1 44.67 391.67
  Q 46.74 391.67 49.76 391.39
  Q 51.64 391.22 53.23 391.94
  A 1.86 1.68 74.5 0 1 53.64 392.20
  L 57.13 395.19
  A 0.75 0.75 0.0 0 1 57.22 396.24
  Q 56.34 397.26 56.64 398.78
  Q 57.08 401.09 57.15 403.60
  A 3.65 3.45 36.7 0 0 57.34 404.68
  Q 59.04 409.76 59.30 412.28
  A 7.09 7.02 29.3 0 0 59.96 414.59
  Q 60.64 415.97 61.23 417.68
  A 12.73 12.71 21.8 0 0 62.18 419.89
  L 63.83 422.90
  A 4.81 4.71 8.0 0 0 64.74 424.08
  Q 65.30 424.62 69.27 429.60
  C 70.95 431.71 73.62 433.89 75.60 436.08
  A 2.67 2.65 -74.9 0 1 76.13 437.01
  Q 76.52 438.20 76.38 439.75
  A 1.17 1.17 0.0 0 0 77.36 441.02
  Q 81.65 441.68 86.10 444.60
  C 88.78 446.36 91.23 446.96 94.32 448.76
  Q 96.58 450.08 101.41 450.00
  A 0.77 0.76 -7.6 0 1 102.17 450.57
  Q 103.59 455.83 102.61 459.70
  C 101.94 462.36 99.35 466.99 97.14 469.29
  Q 90.26 476.48 80.26 475.62
  A 0.34 0.34 0.0 0 1 80.02 475.08
  Q 81.27 473.38 83.53 472.73
  Q 87.15 471.69 90.41 470.11
  A 0.22 0.21 -79.3 0 0 90.51 470.04
  L 99.30 461.56
  A 1.07 1.07 0.0 0 0 99.02 459.82
  L 97.11 458.91
  A 2.64 1.84 66.3 0 1 96.70 458.66
  L 90.73 454.28
  A 0.28 0.27 52.4 0 1 90.79 453.80
  Q 91.02 453.71 91.50 453.69
  Z"
/>
<path fill="#53595f" d="
  M 294.78 400.89
  A 0.52 0.52 0.0 0 1 294.06 400.94
  L 294.04 400.92
  A 0.36 0.36 0.0 0 1 293.97 400.44
  Q 296.24 397.03 296.34 392.61
  A 0.47 0.46 21.1 0 1 297.11 392.27
  L 297.41 392.52
  A 1.22 1.21 -69.3 0 1 297.83 393.46
  Q 297.73 397.65 294.78 400.89
  Z"
/>
<path fill="#7ea1c0" d="
  M 47.46 393.34
  L 52.32 393.58
  A 0.67 0.67 0.0 0 1 52.95 394.15
  C 53.68 399.12 53.77 401.19 54.94 405.25
  Q 60.14 423.18 73.82 435.53
  A 0.33 0.31 9.7 0 1 73.91 435.65
  L 75.40 438.48
  A 1.06 1.05 -4.4 0 1 74.12 439.97
  L 71.95 439.21
  Q 65.64 435.14 61.33 428.67
  Q 57.67 423.17 52.34 413.90
  C 51.53 412.48 50.49 410.06 49.99 408.12
  Q 48.51 402.40 47.10 396.70
  Q 46.72 395.19 47.46 393.34
  Z"
/>
<path fill="#7ea1c0" d="
  M 2.04 395.73
  C 0.60 404.46 1.38 411.88 1.63 421.50
  Q 1.69 424.03 2.46 432.28
  Q 2.90 437.06 2.62 438.30
  Q 0.47 438.09 0.18 433.82
  Q 0.19 433.60 0.00 433.25
  L 0.00 401.38
  Q 0.33 400.98 0.13 400.27
  L 0.16 399.29
  L 0.31 398.76
  Q 0.47 398.27 0.44 397.71
  Q 0.44 396.45 0.95 395.46
  Q 1.61 395.16 1.23 394.47
  Q 1.63 393.80 2.04 395.73
  Z"
/>
<path fill="#0d0d0d" d="
  M 1.23 394.47
  Q 1.61 395.16 0.95 395.46
  Q 0.97 394.97 1.23 394.47
  Z"
/>
<path fill="#fac986" d="
  M 0.44 397.71
  Q 0.47 398.27 0.31 398.76
  Q 0.25 398.18 0.44 397.71
  Z"
/>
<path fill="#0d0d0d" d="
  M 0.16 399.29
  L 0.13 400.27
  Q 0.07 400.31 0.00 400.35
  L 0.00 399.37
  Q 0.08 399.33 0.16 399.29
  Z"
/>
<path fill="#fac986" d="
  M 0.13 400.27
  Q 0.33 400.98 0.00 401.38
  L 0.00 400.35
  Q 0.07 400.31 0.13 400.27
  Z"
/>
<ellipse fill="#7ea1c0" cx="0.00" cy="0.00" transform="translate(219.03,404.43) rotate(-120.8)" rx="4.37" ry="1.96"/>
<path fill="#53595f" d="
  M 295.03 406.94
  Q 294.57 406.80 294.16 406.14
  Q 294.76 406.29 295.03 406.94
  Z"
/>
<path fill="#53595f" d="
  M 170.42 408.57
  L 170.19 410.87
  A 0.94 0.94 0.0 0 0 171.34 411.88
  L 174.78 411.05
  A 0.27 0.27 0.0 0 1 175.03 411.51
  C 172.28 414.03 170.51 417.10 167.83 419.91
  Q 161.33 426.73 160.13 428.15
  C 155.26 433.89 150.73 437.46 145.15 443.19
  C 142.32 446.09 138.65 448.50 135.24 450.97
  L 135.86 447.16
  A 0.56 0.55 -50.9 0 0 135.83 446.85
  Q 135.35 445.62 133.49 446.55
  C 133.47 444.16 135.91 444.19 137.56 443.89
  A 1.58 1.56 -72.8 0 0 138.40 443.44
  Q 139.84 441.93 140.67 440.00
  Q 153.07 433.77 161.08 422.80
  C 164.44 418.19 168.07 416.30 168.67 410.18
  L 170.42 408.57
  Z"
/>
<path fill="#455260" d="
  M 168.67 410.18
  C 168.07 416.30 164.44 418.19 161.08 422.80
  Q 153.07 433.77 140.67 440.00
  Q 142.60 432.95 146.52 429.77
  Q 158.02 420.42 168.67 410.18
  Z"
/>
<path fill="#fac986" d="
  M 237.29 427.00
  L 238.34 429.28
  A 1.26 1.11 14.9 0 0 238.56 429.61
  Q 239.74 431.00 240.23 431.86
  C 242.81 436.38 250.73 434.62 254.43 433.30
  A 1.02 1.02 0.0 0 1 255.62 434.83
  Q 254.90 435.89 254.87 437.11
  Q 248.63 441.50 241.85 445.34
  Q 236.44 448.41 236.23 454.58
  A 0.35 0.35 0.0 0 1 235.63 454.81
  C 233.27 452.33 228.25 453.11 225.11 453.04
  Q 223.95 450.81 227.07 449.72
  A 1.87 1.86 70.4 0 0 228.21 447.31
  Q 227.87 446.39 227.80 445.62
  Q 227.65 443.93 225.74 442.11
  Q 224.87 441.27 223.29 441.31
  A 0.80 0.80 0.0 0 0 222.54 441.91
  Q 221.48 445.96 215.55 443.05
  L 203.81 439.45
  Q 203.01 435.33 203.60 429.64
  A 1.06 1.06 0.0 0 0 203.11 428.63
  Q 198.45 425.68 196.94 419.81
  Q 196.69 418.82 197.00 418.04
  A 1.21 1.12 27.8 0 1 198.73 417.57
  Q 200.40 418.63 201.21 420.59
  Q 202.19 422.93 203.14 424.28
  A 1.31 1.31 0.0 0 0 205.52 423.59
  Q 205.82 416.84 210.59 414.40
  Q 215.14 412.09 219.87 414.49
  Q 224.01 416.59 225.18 422.12
  A 1.22 1.11 86.9 0 1 223.97 423.60
  Q 223.49 423.54 223.27 423.22
  Q 222.46 422.07 220.21 419.72
  A 2.47 2.42 77.4 0 0 219.30 419.13
  Q 215.64 417.80 211.01 417.88
  Q 209.35 417.91 209.12 416.59
  A 0.17 0.17 0.0 0 0 208.79 416.55
  Q 208.02 418.29 208.02 419.82
  A 0.40 0.39 80.4 0 0 208.55 420.20
  C 211.59 419.11 216.99 419.10 219.57 422.07
  Q 220.77 423.46 224.15 425.90
  A 1.76 1.75 -26.0 0 0 225.11 426.23
  Q 228.84 426.32 230.46 427.79
  C 232.01 429.18 233.92 428.63 235.12 427.48
  A 1.41 1.37 -67.9 0 1 235.99 427.10
  L 237.29 427.00
  Z
  M 207.96 415.94
  A 0.14 0.14 0.0 0 0 207.82 415.80
  A 0.14 0.14 0.0 0 0 207.68 415.94
  A 0.14 0.14 0.0 0 0 207.82 416.08
  A 0.14 0.14 0.0 0 0 207.96 415.94
  Z
  M 206.2103 419.0147
  A 0.39 0.10 -81.1 0 0 206.0512 419.3845
  A 0.39 0.10 -81.1 0 0 206.0897 419.7853
  A 0.39 0.10 -81.1 0 0 206.2488 419.4155
  A 0.39 0.10 -81.1 0 0 206.2103 419.0147
  Z"
/>
<circle fill="#53595f" cx="207.82" cy="415.94" r="0.14"/>
<ellipse fill="#53595f" cx="0.00" cy="0.00" transform="translate(206.15,419.40) rotate(-81.1)" rx="0.39" ry="0.10"/>
<path fill="#0d0d0d" d="
  M 0.18 433.82
  Q 0.09 433.91 0.00 434.00
  L 0.00 433.25
  Q 0.19 433.60 0.18 433.82
  Z"
/>
<path fill="#7ea1c0" d="
  M 182.00 433.40
  A 0.46 0.46 0.0 0 1 182.47 433.85
  L 182.47 434.21
  A 3.76 3.56 89.0 0 1 178.98 438.03
  L 178.96 438.03
  A 3.76 3.56 89.0 0 1 175.33 434.33
  L 175.33 433.97
  A 0.46 0.46 0.0 0 1 175.78 433.50
  L 182.00 433.40
  Z"
/>
<path fill="#53595f" d="
  M 203.81 439.45
  L 215.55 443.05
  Q 217.84 444.05 219.45 445.59
  A 0.85 0.84 60.0 0 1 219.07 447.03
  L 216.98 447.53
  A 2.76 2.75 54.1 0 1 214.88 447.19
  C 211.48 445.08 207.16 444.84 204.00 443.82
  A 3.50 3.16 9.2 0 1 201.58 440.80
  Q 201.56 439.70 203.81 439.45
  Z"
/>
<path fill="#53595f" d="
  M 223.10 442.24
  A 0.16 0.16 0.0 0 1 223.24 442.07
  L 223.29 442.06
  A 4.02 3.97 83.9 0 1 227.66 445.64
  L 227.69 445.92
  A 4.02 3.97 83.9 0 1 224.17 450.34
  L 224.12 450.34
  A 0.16 0.16 0.0 0 1 223.95 450.20
  L 223.10 442.24
  Z"
/>
<path fill="#7ea1c0" d="
  M 91.50 453.69
  Q 88.91 452.39 86.36 451.04
  Q 81.42 448.43 81.26 448.31
  Q 78.64 446.36 78.89 443.17
  Q 87.29 445.82 95.22 450.42
  A 4.04 3.61 -18.5 0 0 95.94 450.73
  L 99.33 451.75
  A 3.38 3.37 89.3 0 1 101.54 453.91
  L 101.90 454.97
  A 1.45 1.44 85.7 0 1 100.29 456.85
  Q 95.39 456.04 91.50 453.69
  Z"
/>
<path fill="#0d0d0d" d="
  M 167.97 462.25
  Q 161.36 461.87 155.64 463.00
  Q 152.71 463.58 153.68 464.90
  L 149.02 465.70
  Q 144.83 465.67 141.10 467.30
  Q 138.90 468.25 137.35 467.99
  A 1.67 1.67 0.0 0 1 136.81 464.90
  Q 138.78 463.78 139.88 462.02
  L 146.48 460.87
  Q 151.83 460.69 157.60 458.67
  Q 159.38 458.39 161.10 456.95
  A 1.56 1.51 21.9 0 1 161.96 456.60
  Q 163.89 456.44 165.70 456.92
  A 2.46 2.45 47.6 0 0 166.75 456.97
  C 168.35 456.69 169.55 455.18 171.34 455.08
  Q 173.83 454.94 174.41 452.43
  A 0.86 0.86 0.0 0 1 176.06 452.36
  L 177.72 457.36
  A 1.01 1.01 0.0 0 1 176.76 458.69
  Q 172.31 458.67 167.97 462.25
  Z"
/>
<path fill="#7ea1c0" d="
  M 157.60 458.67
  Q 151.83 460.69 146.48 460.87
  L 152.58 458.50
  A 1.49 1.10 8.6 0 0 152.75 458.41
  Q 155.36 456.54 154.70 453.25
  Q 157.74 453.09 160.70 454.44
  A 0.80 0.80 0.0 0 1 160.89 455.77
  L 157.60 458.67
  Z"
/>
<path fill="#53595f" d="
  M 223.31 453.01
  L 220.71 453.16
  Q 222.04 452.75 223.31 453.01
  Z"
/>
<path fill="#7ea1c0" d="
  M 139.88 462.02
  Q 138.78 463.78 136.81 464.90
  A 1.67 1.67 0.0 0 0 137.35 467.99
  Q 138.90 468.25 141.10 467.30
  Q 144.83 465.67 149.02 465.70
  C 144.28 466.97 138.55 469.42 138.94 474.75
  Q 139.36 480.28 138.61 486.14
  Q 137.76 483.74 137.77 481.11
  A 5.81 5.79 35.7 0 0 137.46 479.24
  Q 135.06 472.14 133.19 464.89
  Q 132.88 463.71 133.61 463.02
  L 139.88 462.02
  Z"
/>
<path fill="#fac986" d="
  M 167.97 462.25
  Q 172.77 465.06 178.76 466.40
  Q 177.28 468.34 175.71 467.66
  Q 175.42 467.40 175.04 467.32
  L 174.08 466.57
  A 6.05 5.88 72.4 0 0 172.33 465.63
  C 165.30 463.24 160.86 462.46 153.68 464.90
  Q 152.71 463.58 155.64 463.00
  Q 161.36 461.87 167.97 462.25
  Z"
/>
<path fill="#53595f" d="
  M 175.71 467.66
  Q 175.29 467.67 175.04 467.32
  Q 175.42 467.40 175.71 467.66
  Z"
/>
<path fill="#fac986" d="
  M 113.23 473.08
  Q 111.93 472.18 111.74 470.91
  A 1.88 1.82 -85.8 0 1 114.08 468.83
  C 118.53 470.23 122.40 474.26 125.67 477.52
  A 5.01 4.96 -71.5 0 1 127.10 480.42
  Q 127.46 483.28 128.83 486.13
  A 1.00 1.00 0.0 0 1 128.24 487.52
  L 127.98 487.59
  A 1.22 1.22 0.0 0 1 126.62 487.01
  L 125.50 485.04
  A 0.18 0.17 63.4 0 0 125.27 484.96
  L 125.26 484.97
  A 0.13 0.12 65.3 0 0 125.20 485.14
  L 127.21 489.42
  A 1.70 1.70 0.0 0 1 125.09 491.75
  Q 124.66 491.59 123.91 491.29
  A 1.92 1.89 51.4 0 0 122.90 491.17
  Q 121.82 491.33 120.73 492.12
  A 1.52 1.47 -65.1 0 1 120.00 492.40
  Q 118.58 492.52 117.20 491.51
  A 1.78 1.74 4.0 0 1 116.69 490.94
  C 114.80 487.63 113.40 487.25 109.64 485.11
  C 105.18 482.58 106.99 477.69 108.38 473.88
  A 1.85 1.82 82.1 0 1 109.02 473.02
  Q 111.01 471.55 113.03 473.48
  A 0.18 0.18 0.0 0 0 113.29 473.46
  A 0.27 0.26 36.2 0 0 113.23 473.08
  Z"
/>
<ellipse fill="#fac986" cx="0.00" cy="0.00" transform="translate(379.90,525.97) rotate(-92.9)" rx="1.65" ry="1.07"/>
</svg>
