<svg xmlns="http://www.w3.org/2000/svg" baseProfile="tiny" width="512" height="559" xmlns:v="https://vecta.io/nano"><style><![CDATA[.B{fill:#0d0d0d}.C{fill:#7ca0c2}.D{fill:#4f4f4f}]]></style><path d="M342.16 36.38q-15.57-11.99-23.03-18.75-8.74-7.91-17.3-14.82a1.04 1.04 0 0 0-1.65.52q-.47 1.62-1.41 3.2-30.43 50.94-86.92 145.33-.34.57-1.08.61-.28.02-.51.25-.19.2.11.72a.19.19 0 0 1-.25.27q-.66-.35-.82-.82-.11-.35-.37-.5-.26-.15-.64-.1-.37-.96.16-1.87 5.92-10.24 11.27-19.14 1.2-1.99 2.42-3.98 7.87-12.84 18.59-30.88.3-.5.51-.88 1.06-1.9 8.86-14.91 24.39-40.69 47.17-78.96a1.84 1.84 0 0 1 2.12-.82q2.12.64 4.3 2.47 19.36 16.24 38.47 33.06z" class="D"/><path d="M342.16 36.38l25.9 21.86a.75.74-54.9 0 1 .16.94q-4.94 8.34-12.91 21.89-.15.26-.47.52a1.81 1.77-6.3 0 0-.5.61c-2.96 5.97-7.66 12.67-11.15 18.96q-1.49 2.7-5.25 8.79-6.77 10.98-19.94 33.13-12.56 21.13-19.22 32.56c-2.61 4.49-5.54 8.09-6.75 12.59a1.19 1.19 0 0 0 .28 1.12q3.85 4.08 8.39 2.29a2.24 2.21-46.5 0 1 1.49-.05l44.75 14.66q-.19.9-.9 1.5a.66.66 0 0 1-1-.17l-.68-1.19a1.56 1.54-15.1 0 0-1.36-.77q-1.12.03-1.93-.86a.83.76-9.4 0 0-.35-.23q-15.27-4.75-33.2-10.84c-1.15-.39-2.06-.25-3.07-.97a1.68 1.63-23.1 0 0-.76-.29l-2.64-.33a1.24 1.22 30.5 0 0-.87.22c-2.97 2.12-6.69-.7-8.81-3.04q-1.22-1.35-3.63-3.57a.5.5 0 0 0-.69.01q-.36.36-.31 1.23a.9.9 0 0 1-1.54.69l-1.62-1.62a.97.92 75.5 0 0-.37-.23l-67.96-22.85a.79.77 45.7 0 0-.44-.01q-.86.22-1.06.75a1.96 1.53 21.1 0 1-2.41.73q-5.83-2.29-9.74-3.34a2.58 2.57 30.8 0 0-2.45.62l-7.43 7.06a2.04 2.03 80.8 0 0-.43.6l-1.41 2.96a1.38 1.38 0 0 1-2.22.38l-1.75-1.74a.19.19 0 0 0-.29.24q2.35 3.33 2.2 5.99a.66.66 0 0 1-1.03.51q-2.15-1.46-3.01-4.17-.46-.99-.36-2.02a1.42 1.42 0 0 1 .51-.95q1.39-1.14 2.13-3.38a.62.62 0 0 0-.18-.66q-.73-.65-.88-1.54-.6-3.72-1.86-6.91a.3.29-37 0 0-.51-.07q-.02.03-.04.55a.22.21 76.3 0 1-.11.19l-6.4 3.34a2.16 2.15-21.6 0 0-1.08 2.49l2.22 7.97.15 2.27a1.01 1 70.7 0 1-.41.87q-.61.44-.75.91a1.55 1.5 47.6 0 0-.02.69l.72 3.27a.98.96-25.6 0 1-.35.97q-4.83 3.76-9.71 7.12-1.15.79-8.98 6.59-.69.51-1.14.38-.54-.15-.9-.85-3.22-2.78-5.72.58a.37.36 28.4 0 0 .17.56q1.47.55 1.77 2.15-.36 2.2.84 2.98a.72.72 0 0 0 .92-.12q.43-.46.96-.3a.58.58 0 0 1 .01 1.11l-3.11.98a.37.33 41.4 0 1-.23 0l-1.75-.59a.69.68 16.1 0 1-.45-.81q.12-.51.48-1.02 1.04-.37 1.18-1.15a.8.78 30.4 0 0-.18-.66q-.96-1.08-2.37-1.49a.98.95-89.2 0 1-.68-.72q-.14-.62.34-1.19a.87.86 52.1 0 0 .11-.94q-1.3-2.62-1.86-6.61-.19-1.34-1.13-2.59a1.44 1.44 0 0 0-2.01-.3l-7.18 5.31a.61.61 0 0 0-.18.77c1.94 3.77 1.74 7.67 3.32 10.74a.93.88 89.1 0 0 .37.38q.55.29.23.82a.36.36 0 0 1-.1.1l-3.73 2.69a.43.42-48.6 0 0 .04.72q.75.41 1.34 1.06l.04 2.27a.88.87-18.6 0 1-.37.73l-4.93 3.55a.69.69 0 0 0-.25.79q.19.58.78.72a.1.1 0 0 1 .01.2l-1.13.35a.88.87-37.2 0 1-.75-.1q-1.72-1.13-2.74-.83a.47.39 16.3 0 0-.16.07l-12.25 7.07a.29.29 0 0 0 .02.52q.55.24-.98-.41 2.4-1.54 4.1-3.28 1.05-1.09-1.37-2.14.41-.25-.83-.91 0-1.21-.26-2.23-23.36-94.02-26.74-106.39-2.15-7.88-2.99-11.77-1.22-5.72-6.29-23.7a.72.71 85.1 0 0-.61-.52q-1.79-.21-1.85-1.51 3.58-2.83 7.25-5.48 37.56-27.09 78.79-57c3.17-2.3 5.48 1.38 6.19 4.15q10.07 39.7 12.43 49.57.45 1.88.76 2.47c.71 1.33.41 2.02.77 3.38q6.17 22.98 9.06 35.41.46 1.97.96 4.04 2.4 10.07 8.47 32.93c.58 2.16.57 4.33 1.53 5.88a2.16 2.11 27.5 0 1 .31.95q.33 3.64 2.12 6.18a.71.71 0 0 1-.16.98l-1.91 1.42a.58.58 0 0 0 .47 1.03c1.58-.37 3.98-1.12 3.57-3.31q.38-.05.64.1.26.15.37.5.16.47.82.82a.19.19 0 0 0 .25-.27q-.3-.52-.11-.72.23-.23.51-.25.74-.04 1.08-.61 56.49-94.39 86.92-145.33.94-1.58 1.41-3.2a1.04 1.04 0 0 1 1.65-.52q8.56 6.91 17.3 14.82 7.46 6.76 23.03 18.75zm-35.77-21.57a1.17 1.16-48.1 0 0-1.95.11l-2.02 3.5a.96.96 0 0 0 .25 1.24l2.39 1.79a.65.64-50.7 0 0 .88-.09l1.98-2.35a1.64 1.63-43.1 0 0 .07-2.03l-1.6-2.17zm-145.58 7.01a.63.63 0 0 0-1.26 0 .63.63 0 0 0 1.26 0zm158.84 18.14q-.53.72-.05 1.21.96.98 2.2 1.88a.82.82 0 0 0 1.3-.72l-.03-.53a.6.6 0 0 1 .55-.64q.64-.06 1.58-.51 3.07 3.56 6.71 4.92a.82.82 0 0 1 .3 1.34q-2.46 2.51-1.3 3.56 1.02 1.58 2.11 1.99a.72.71 29 0 0 .81-.23l1.87-2.45q.63-.25 1.09-.75 2.65-1.16 4.09-3.63a1 .99-42.6 0 0 .04-.92q-.33-.74-1.14-1.4-.27-.95-.99-.89a.55.53-81.9 0 0-.45.35q-.52 1.46-1.3 2.43a.67.66 41.7 0 1-.99.05q-.92-.9-2.08-.89c-2.3.01-2.93-.61-3.9-2.12a1.61 1.59 88 0 0-.54-.51l-3.45-1.99a.47.47 0 0 1-.16-.16q-.39-.68-.16-1.13a1.22 1.21-48.5 0 0-.07-1.25q-.85-1.23-2.3-2.26a.6.6 0 0 0-.87.19l-2.87 5.06zM137.78 54.51q.7-.89 1.48-1.27a.81.81 0 0 0 .46-.79q-.33-5.17-2.19-10.27a.81.81 0 0 0-1.17-.43l-3.23 1.86a1.1 1.1 0 0 0-.38 1.53q1.21 1.92 1.07 4.76a.79.79 0 0 1-1.06.71q-2.9-1.07-4.87.92a.83.83 0 0 0-.17.91q.19.42 1.05.77a.33.33 0 0 1-.05.63c-1.96.44-5.54 1.56-5.68-1.33a.69.68 70.5 0 0-1.09-.52l-2.98 2.21a1.73 1.72 63.1 0 0-.62 1.91l1.23 3.91a.83.83 0 0 0 1.41.31q2.31-2.6 5.82-2.92c2.35-.22 3.36-1.19 4.79-2.54a1.4 1.4 0 0 1 1.01-.36q1.37.07 2.6.58a.27.27 0 0 0 .37-.27q-.01-.08-.17-.43-.12-.27.12-.74.17-.32.75-.48a.58.58 0 0 1 .71.38l.27.86a.3.3 0 0 0 .52.1zM96.06 67.63a.52.52 0 0 0-.8-.27l-3.68 2.66a1.15 1.14 63.8 0 0-.43 1.28l1.26 4a.56.56 0 0 0 .83.31q.77-.46 1.39-1.63a.87.84-2.1 0 1 .31-.32l2-1.16a.79.79 0 0 0 .36-.93l-1.24-3.94zm131.54 95.91q-.78-.15-.87.21a2.08 1.9 7 0 0 2 2.34q.97.03 2.33.61 2.41 1.04 5.59 1.77a1.1 1.08 21.3 0 0 1.19-.51l3.49-6.05a1.4 1.39-54.9 0 0-.3-1.76l-5.3-4.49a.72.71-54.2 0 0-1.08.18l-5.11 8.52a.89.88 53.7 0 1-1.62-.25q-.01-.02-.01-.2a.39.39 0 0 0-.31-.37z" class="B"/><g class="C"><path d="M306.39 14.81l1.6 2.17a1.64 1.63-43.1 0 1-.07 2.03l-1.98 2.35a.65.64-50.7 0 1-.88.09l-2.39-1.79a.96.96 0 0 1-.25-1.24l2.02-3.5a1.17 1.16-48.1 0 1 1.95-.11z"/><circle cx="160.18" cy="21.82" r=".63"/><path d="M339.78 43.08q.06.82-.85 1.27a1.04 1.04 0 0 0-.55.7l-.21.95a1.12 1.12 0 0 1-.89.84q-1.35.22-2.38-.41a.51.51 0 0 0-.74.23l-.03.07a.75.74 33.3 0 0 .18.84c.75.69 1.43.33 2.04.78q.33.25.44.68-.46.5-1.09.75-1.26.22-1.99-1a.57.57 0 0 0-.73-.22q-1.05.5-2.07 1.91-1.16-1.05 1.3-3.56a.82.82 0 0 0-.3-1.34q-3.64-1.36-6.71-4.92-1.84-.27-3.33-1.29a.58.58 0 0 0-.81.15q-.26.37-.36.83a.49.48 35.4 0 1-.89.14q-.1-.16-.16-.52l2.87-5.06a.6.6 0 0 1 .87-.19q1.45 1.03 2.3 2.26a1.22 1.21-48.5 0 1 .07 1.25q-.23.45.16 1.13a.47.47 0 0 0 .16.16l3.45 1.99a1.61 1.59 88 0 1 .54.51c.97 1.51 1.6 2.13 3.9 2.12q1.16-.01 2.08.89a.67.66 41.7 0 0 .99-.05q.78-.97 1.3-2.43a.55.53-81.9 0 1 .45-.35q.72-.06.99.89z"/></g><path d="M325.2 40.65q-.94.45-1.58.51a.6.6 0 0 0-.55.64l.03.53a.82.82 0 0 1-1.3.72q-1.24-.9-2.2-1.88-.48-.49.05-1.21.06.36.16.52a.49.48 35.4 0 0 .89-.14q.1-.46.36-.83a.58.58 0 0 1 .81-.15q1.49 1.02 3.33 1.29z" class="D"/><path d="M137.26 54.41l-.27-.86a.58.58 0 0 0-.71-.38q-.58.16-.75.48-.24.47-.12.74.16.35.17.43a.27.27 0 0 1-.37.27q-1.23-.51-2.6-.58a1.4 1.4 0 0 0-1.01.36c-1.43 1.35-2.44 2.32-4.79 2.54q-3.51.32-5.82 2.92a.83.83 0 0 1-1.41-.31l-1.23-3.91a1.73 1.72 63.1 0 1 .62-1.91l2.98-2.21a.69.68 70.5 0 1 1.09.52c.14 2.89 3.72 1.77 5.68 1.33a.33.33 0 0 0 .05-.63q-.86-.35-1.05-.77a.83.83 0 0 1 .17-.91q1.97-1.99 4.87-.92a.79.79 0 0 0 1.06-.71q.14-2.84-1.07-4.76a1.1 1.1 0 0 1 .38-1.53l3.23-1.86a.81.81 0 0 1 1.17.43q1.86 5.1 2.19 10.27a.81.81 0 0 1-.46.79q-.78.38-1.48 1.27a.3.3 0 0 1-.52-.1z" class="C"/><path d="M336.79 49.03q-.11-.43-.44-.68c-.61-.45-1.29-.09-2.04-.78a.75.74 33.3 0 1-.18-.84l.03-.07a.51.51 0 0 1 .74-.23q1.03.63 2.38.41a1.12 1.12 0 0 0 .89-.84l.21-.95a1.04 1.04 0 0 1 .55-.7q.91-.45.85-1.27.81.66 1.14 1.4a1 .99-42.6 0 1-.04.92q-1.44 2.47-4.09 3.63zm-1.09.75l-1.87 2.45a.72.71 29 0 1-.81.23q-1.09-.41-2.11-1.99 1.02-1.41 2.07-1.91a.57.57 0 0 1 .73.22q.73 1.22 1.99 1zM96.06 67.63l1.24 3.94a.79.79 0 0 1-.36.93l-2 1.16a.87.84-2.1 0 0-.31.32q-.62 1.17-1.39 1.63a.56.56 0 0 1-.83-.31l-1.26-4a1.15 1.14 63.8 0 1 .43-1.28l3.68-2.66a.52.52 0 0 1 .8.27zm-18.38 2.06q.06 1.3 1.85 1.51a.72.71 85.1 0 1 .61.52q5.07 17.98 6.29 23.7.84 3.89 2.99 11.77 3.38 12.37 26.74 106.39.26 1.02.26 2.23-2.02-.36-2.51-1.71-.4-1.08-1.89-8.58-.17-.84-.87-2.1a2.38 2.22-64.4 0 1-.28-.89q-.32-2.91-1.54-6.46c-.59-1.7-.41-2.87-.89-4.46q-1.27-4.26-7.29-28.43c-.53-2.12-1.4-4.12-1.33-5.48a2.86 2.77 40.3 0 0-.09-.91l-4.83-17.26a1.65 1.53 42.7 0 1-.04-.5c.12-1.67-.95-2.9-1.02-4.92a3.26 3.24-52.9 0 0-.09-.67l-6.79-25.18a.77.7-53.8 0 1-.03-.27q.08-1.45-.48-2.46c-.94-1.69-.09-3.54-1.32-5.1a1.48 1.44-64.4 0 1-.3-.89q.04-1.94-.73-2.93a1.23 1.19-62.4 0 1-.25-.85c.15-1.8-.88-2.96-1.02-4.68q-.21-2.49-1.45-5.48-.01-.03-.02-.06l-4.19-14.8q-.06-.54.51-1.05z" class="D"/><path d="M116.42 215.81q1.24.66.83.91l-2.9-.57a1.43 1.43 0 0 1-1.1-1.05Q96.52 149.2 79.93 83.57q-1.92-7.6-2.76-12.83l4.19 14.8q.01.03.02.06 1.24 2.99 1.45 5.48c.14 1.72 1.17 2.88 1.02 4.68a1.23 1.19-62.4 0 0 .25.85q.77.99.73 2.93a1.48 1.44-64.4 0 0 .3.89c1.23 1.56.38 3.41 1.32 5.1q.56 1.01.48 2.46a.77.7-53.8 0 0 .03.27l6.79 25.18a3.26 3.24-52.9 0 1 .09.67c.07 2.02 1.14 3.25 1.02 4.92a1.65 1.53 42.7 0 0 .04.5l4.83 17.26a2.86 2.77 40.3 0 1 .09.91c-.07 1.36.8 3.36 1.33 5.48q6.02 24.17 7.29 28.43c.48 1.59.3 2.76.89 4.46q1.22 3.55 1.54 6.46a2.38 2.22-64.4 0 0 .28.89q.7 1.26.87 2.1 1.49 7.5 1.89 8.58.49 1.35 2.51 1.71z" class="C"/><path d="M227.91 163.91q0 .18.01.2a.89.88 53.7 0 0 1.62.25l5.11-8.52a.72.71-54.2 0 1 1.08-.18l5.3 4.49a1.4 1.39-54.9 0 1 .3 1.76l-3.49 6.05a1.1 1.08 21.3 0 1-1.19.51q-3.18-.73-5.59-1.77-1.36-.58-2.33-.61a2.08 1.9 7 0 1-2-2.34q.09-.36.87-.21a.39.39 0 0 1 .31.37zm-44.13 9.61l-.17.95-1.95-1.99a.82.81-31.6 0 0-.85-.2q-1.05.36-1.8 1.48-.94.48-1.47-.06a.52.52 0 0 1-.14-.38q.03-.46-.18-.79l-2.22-7.97a2.16 2.15-21.6 0 1 1.08-2.49l6.4-3.34a.22.21 76.3 0 0 .11-.19q.02-.52.04-.55a.3.29-37 0 1 .51.07q1.26 3.19 1.86 6.91.15.89.88 1.54a.62.62 0 0 1 .18.66q-.74 2.24-2.13 3.38a1.42 1.42 0 0 0-.51.95q-.1 1.03.36 2.02z" class="D"/><path d="M346.94 206.25q1.39-.13 2.68.54c2.03 1.04.83 3.93 3.73 4.14a1.32 1.28 72.4 0 1 .93.5q.68.87 3.06 1.61c2.01.62 2.66-1.94 5 .16 1.1.99 2.61 1.87 4.84 3.54a.74.74 0 0 0 .89.01l5.68-4.2a.65.65 0 0 1 1.02.39q.25 1.16-.17 2.2-1.08 2.73-1.75 5.55a1.68 1.64-56 0 0 .24 1.32c1.02 1.51 2.51 2.59 5.12 3.01q2.3.37 3.34 2.82c.73 1.7 2.3 3.32 3.86 4.73q1.84 1.67 24.23 20.83 3.78 3.23 6.32 5.11a1.16 1.15-47.6 0 0 1.45-.07q1.2-1.07 3.97-3.73a1.34 1.33-30.8 0 1 2.2.55q.34 1.04-.51 2.13a1.86 1.81 68.9 0 0-.38.89c-.42 3-2.49 5.37-1.11 8.44 1.3 2.89.67 5.47 4.25 7.43a3.97 3.75-8.8 0 1 .77.53q9.86 8.62 16.97 14.34c1.77 1.42 2.73 2.1 4.89.49q4.64-3.45 9.27-6.77 3.98-2.85 7.8-3.15-6.16 4.9-11.76 9.05-3.02 2.23-3.36 3.01c-.31.69-3.49 2.73-4.74 3.95q-12.54 12.1-20.2 22.31-28.7 38.26-36.62 86.84-.75 4.55-.09 9.86c.51 4.12 3.67 8.14 6.61 10.75 7.51 6.63 15.83 11.58 25.3 13.86q7.29 1.76 8.56 1.88 2.12.18 11 .35 6.03.11 10.97-1.01 9.88-2.25 13.46-3.53 1.83-.66 13.94-6.67 5.39-2.68 9.13-5.28 8.1-5.64 8.66-6.08 6.26-4.98 9.45-12.77.91-2.24 2.76-12.62c.76-4.24.83-8.75 1.89-12.84a1.56 1.48-46.6 0 0 0-.73q-.24-.91.13-3.87c.94-7.36.78-15.16.05-23.04q-.36-3.97.05-7.94l.58-7.46a.15.15 0 0 1 .15-.14.15.15 0 0 1 .15.15c.08 3.71-.47 7.07.4 10.76v27.07q-1.71 8.31-2.6 16.78-.8 7.69-2.49 12.67-3.16 9.37-11.64 15.66-10.91 8.08-24.88 14.54c-7.92 3.66-16.13 6.01-24.08 6.93-20.19 2.35-40.62-4.25-54.55-19.32q-.84-.92-2.79-3.81a.58.58 0 0 0-1.05.22l-.22 1.22a.89.89 0 0 1-.7.71q-13.16 2.54-25.65 5.6c-4.93 1.2-8.8 1.28-12.18 5.59a.87.85-40.7 0 0-.08.94c2.27 4.12 4.86 7.7 2.38 12.22-2.27 4.14-6.96 5.32-11.25 3.34-1.51-.7-2.81-2.22-4.02-2.95a1.48 1.46-35.2 0 0-1.03-.17q-2.64.52-2.66 3.02a.66.66 0 0 1-1.25.29q-1.51-2.94-4.08-2.92a.93.91 76.2 0 1-.84-.52q-1.26-2.59-4.24-1.12-5.23 2.58-5.57 2.71a1.97 1.96-45.2 0 1-1.42.01q-4.45-1.73-6.82 2.3a1.2 1.2 0 0 1-2.23-.47l-.26-2.13q-.06-.25.02-.53.36.6.94-.1a1.47 1.45-22.3 0 0 .32-.75q.15-1.35.87-2.86.16-.56.81-1.41a.78.78 0 0 0 .01-.93q-.53-.74-1.74-1.47l2.68-3.84a.79.79 0 0 1 1.4.21l.47 1.5a.72.72 0 0 0 .93.46q1.33-.47 1.49.25a.08.08 0 0 0 .14.04l.19-.23a.27.27 0 0 1 .38-.04q1.31 1.08 3.64 1.54a.56.55 14.6 0 0 .64-.37q.13-.38.85-.39a.94.94 0 0 1 .82.45q.37.6.54 2.97a.3.3 0 0 0 .56.13l2.39-4.14a.28.28 0 0 1 .28-.15q.65.04 1.4.84l2.71 3.21a1.56 1.52 22.5 0 1 .35.82q.15 1.48-1.59 1.77a.5.5 0 0 0-.41.41l-.07.37a.56.55.3 0 0 .64.64q2.44-.41 3.64 1.28a.37.36 39.4 0 0 .63-.06q.58-1.26 2.17-1.76a.84.82-5.1 0 0 .58-.68c.43-3.22-1.45-4.93-3.98-7.38q-.62.14-1-.01-.49-.19-.39-.81.08-.52.03-.97a1.25 1.24 16.5 0 0-.47-.86q-2.9-2.29-4.93-5.73 3.92-1.81 7.72-2.34a1.87.5-29.9 0 0 .19-.05l7.73-2.69a.93.92-27.3 0 1 1.05.33q2.05 2.75 4.9 4.74a1.77 1.72 62.5 0 0 .97.32q1.98.06 2.37 1.55a.49.49 0 0 0 .8.24q2.86-2.5 6.66-3.24 6.47-1.27 8.64-2.07a1.25 1.23-43.7 0 1 .85.01q.65.26 2.08-.23 4.68-1.61 7.75-1.74a2.03 2.01 29.8 0 0 .83-.22q1.42-.74 3.55-.7a1.39 1.31-52.3 0 0 .51-.08l6.12-1.99q.43-.12.59-.42.13-.27-.11-.71-.85-1.59-1.1-3.42l-1.04-7.47q.68-.62.54-3.81a.8.8 0 0 0-1.04-.73l-10.1 3.18a.39.38-16.8 0 1-.48-.25l-.1-.31a.17.16 63.6 0 1 .06-.19l8.2-5.58 3.34 1.32a.64.63-73.9 0 0 .86-.48l1.62-9.1 1.47-6.99 1.55-5.08q7.68-27.17 22.78-50.83l10.21-14.95a1.46 1.27-5.6 0 1 .33-.35q2.14-1.57 2.63-2.28 1.04-1.53 1.2-1.68 1.31-1.28 2.48-2.63a.98.98 0 0 0-.39-1.56l-5.83-2.22q.34-1.1 1.38-.89 2.98.61 6.01 1.69a1.7 1.7 0 0 0 1.86-.5l3.81-4.46 3.82-3.23a.32.32 0 0 0 .01-.49q-8.69-7.73-17.73-14.93-.73-.58-2.21-1.24-.26-.42-.07-.65.42-.49.92-.07 9.44 7.76 18.94 16a1.38 1.37 48.2 0 0 1.69.1q1.07-.73 1.65-1.77.84-.39.99-.71a.84.84 0 0 0-.21-.98q-10.88-9.42-22.23-18.7-1.33-1.08-1.19-2.96.09-1.18-1.37-2.63a.99.98-34.3 0 0-1.08-.2q-.71.3-1.47.26a1.77 1.72-22.3 0 1-1-.4l-4.22-3.55c.08-1.25 1.18-1.96 2.4-1.71q1.63.32 2.06-.76a.35.34 30.8 0 0-.1-.39l-34.66-29.4a2.55 2.44-82.5 0 1-.66-.9l-1.12-2.57c-.18-1.12-.75-1.69-1.93-1.63q-4.57.2-6.84-4.46a.95.93-43.1 0 1 .04-.89q.68-1.09.47-1.98a.43.43 0 0 0-.79-.12l-1.94 3.36a.85.85 0 0 0 .47 1.23l1.59.53a.58.57-63.6 0 1 .29.87q-.54.8-2.32.92a1.42 1.37-8.1 0 0-1.3 1.67q.39 1.72-.76 1.66a.59.59 0 0 0-.59.76l.5 1.57a.57.57 0 0 0 .62.4q.87-.12 1.5.75a.51.5 45.6 0 0 .81.01q.97-1.3 1.98-.83a.82.81 5.2 0 1 .43.51l5.73 18.87-2.27.55a.12.12 0 0 0 0 .23l.84.15a.33.33 0 0 1 .19.53l-.79.93a.87.86-70.2 0 1-.63.3q-3.22.12-6.83 1.77a.07.06-38.1 0 0-.02.11q.18.18.18.46a1.26 1.23 60.7 0 1-.17.63l-4.49 7.77a1.47 1.46 31.9 0 1-2.09.48q-2.01-1.35-.46-3.2a.48.48 0 0 0-.23-.77q-.23-.06-.24-1.24-.01-.34-.36-.5-.17-.08-.54.1-.44.22-.86-.01-2.74-1.52-7.17-2.55-1.92-.44-2.87-1.76a.59.59 0 0 1 .7-.88q4.57 1.86 3.94 2.19a.07.07 0 0 1-.08-.1l.41-.49a.49.48-54.1 0 0-.11-.72q-3.67-2.28-7.31-2.27a1 .99-85 0 1-.98-1.18l.28-1.58a1 .99 13.9 0 1 1.28-.77l3.29 1.05a.26.26 0 0 0 .31-.13v-.01a.32.31 17.1 0 0-.19-.35l-5.19-2.08a1.81 1.81 0 0 1-1.11-2l.64-3.56a1.36 1.34-17.1 0 1 .37-.69l2.96-2.97a1.75 1.6 8.8 0 1 .54-.36q1.49-.63 2.56-.6a1.5 1.5 0 0 0 1.45-2.02q-1.79-4.83-1.21-9.08a.31.31 0 0 0-.4-.34q-.59.19-.68-.14a.19.18-32.4 0 0-.32-.07l-2 2.35a.9.9 0 0 1-.9.3q-1.01-.22-1.67.79a.58.58 0 0 1-.99-.03q-.91-1.66-.72-3.75a.98.94 69.1 0 1 .23-.54q.7-.78.51-1.7a.49.49 0 0 0-.77-.3l-25.12 18.08a.9.9 0 0 0 .08 1.51l.84.49a1.04 1.04 0 0 0 1.35-.28q.62-.83 1.69-.45.87 1.66 1.11 3.34a.84.83 10.1 0 0 .44.62q.38.19.83.19a1.06 1.04 3.7 0 1 1.04 1.17q-.35 2.73-1.06 7.3a2.01 1.97 73.8 0 1-.63 1.17l-2.75 2.52a.57.56-46.2 0 1-.75.02l-.61-.52a.37.37 0 0 1 .12-.64q1.69-.53 1.97-1.47a.44.44 0 0 0-.5-.56q-1.14.18-1.9-.59a1.41 1.38 16.5 0 1-.35-.63l-.76-3.22a.6.6 0 0 0-.61-.47q-1.89.1-.25 3.77a.87.86-6 0 0 .62.5q1.15.25 1.01 1.88a.89.88-82.4 0 1-1.04.8l-.35-.06a1.25 1.25 0 0 1-1.02-1.33q.13-1.5-.84-2.31a1.35 1.35 0 0 1-.48-1.15q.19-2.08-1.12-5.2a.63.63 0 0 1 .38-.85q.98-.34.98-1.02a.71.7 2.7 0 0-.64-.7q-1.19-.1-1.27-.76a.1.1 0 0 0-.2-.01q-.05.38-.68.84-5.41 4.01-26.5 19.05a.81.8 68.4 0 1-1.26-.55l.03-.37a2.82 2.79-16.6 0 1 1.17-2.13l59.68-42.95a1.75 1.74-26.7 0 0 .65-1.94l-.44-1.38a.81.81 0 0 0-1.22-.44q-4.77 3.19-8.45 6.35c-1.74 1.5-4.66 3.02-5.98 4.07q-6.5 5.16-15.84 11.58c-3.38 2.32-6.52 5.01-10.14 7.21a8.96 8.8-81.1 0 0-1.4 1.04c-2.71 2.41-6.27 4.24-8.31 5.94q-3.11 2.6-5.82 4.19-1.34.79-6.74 5.01-4.9 3.84-9.85 6.61a1.61 1.6 66.9 0 0-.75 1.88l.44 1.4a1.16 1.16 0 0 0 1.8.59l6.55-4.84a.38.38 0 0 1 .6.31c-.01 2.01-2.68 4.19-3.78 4.92a.81.79-23.6 0 0-.34.84q.61 2.86 1.61 4.25a.89.87 40.3 0 1 .08.9q-.31.66-1.31.95a.9.86-78.6 0 0-.5.35q-1.46 1.98-1.63 2.75a1.46 1.46 0 0 1-.68.93l-2.67 1.55a1.08 1.07-7.2 0 0-.46.59l-.42 1.42q-.66.25-.96 1.04l-.55-1.2a.18.18 0 0 0-.34.05l-17.86 98.92a.43.42-2.3 0 0 .53.48q1.07-.3 1.36.5a.25.25 0 0 0 .45.03q.53-1.04 2.16-.22a1.05 1.03 5.2 0 1 .53.62l1.64 5.2a1.29 1.28 11.8 0 0 .39.59l.65.55a.43.42 46.9 0 1-.02.67l-.33.23a.4.4 0 0 1-.57-.11q-.36-.56-.51-.75a.29.29 0 0 0-.52.12l-.51 2.86a.96.96 0 0 1-.99.79q-1.06-.06-1.15 1.09a.59.56 24.4 0 0 .2.49l3.54 3a.61.61 0 0 0 .94-.18q.6-1.14-1.4-1.74a.78.77 39.9 0 1-.13-1.43q1.49-.77 2.36-2.98a.7.69-61.3 0 1 1.05-.31q.41.3.45 2.93a.47.47 0 0 0 .89.21q.44-.85 1.16-.9a.41.4 78.3 0 1 .42.28l.51 1.6a1.37 1.35-82.9 0 0 .59.77q.96.58 1.1.99a1.1.87 22.9 0 1-1.88.52q-.57-.75-.71-.94a.39.39 0 0 0-.66.04q-1.27 2.36-5.07 7.53-.71.97-.94 2.19a.41.41 0 0 0 .73.32q.75-1.05 1.41-1.01a1.26 1.25 63.7 0 1 .64.22q1.6 1.08 3.29 2.55 14.79 12.88 28.79 24.73 4.24 3.59 6.8 5.5 1.44 1.07 2.78 3.03-1.1-.45-.91 1.67a.8.8 0 0 1-1.06.83l-19.05-6.53a1.4 1.35 52.2 0 0-.49-.07q-2.09.16-3.36-.28-8.92-3.1-18.03-5.99a5.65 5.53-16.9 0 1-1.75-.91q-5.59-4.3-12.82-5.78a.93.93 0 0 0-.69.12q-1.1.72-2.69-.44.1-.94-.08-1.82a1.37 1.36-86.4 0 0-.92-1.05l-4.31-1.45a.29.29 0 0 0-.33.44c1.18 1.74 3.47 1.75 4.78 4.15q-.54.07-.99-.08-47.93-15.57-65.17-21.31c-1.72-.57-5.33-2.78-6.13-2.72a.4.4 0 0 1-.4-.55q.26-.69.19-1.06a1.22 1.21-80.2 0 0-.58-.83q-5.28-3.13-11.44-4.97a1.65 1.64 79.2 0 1-.85-.58q-1.56-2-3.32-2.27l.21-.79a.31.31 0 0 0-.41-.37l-.34.13q.78-1.12-.01-1.84-2.08-1.92-3.09-1.3-1.19.73-1.17 2.63-.45-1.91-.41-2.78.04-1.17-1.32-1.77c.93-2.48-2.51-3.17-4.14-2.58a.43.42-15.6 0 1-.56-.31q-.46-2.21-2.36-3.38c-3.78-2.34-6.19-5.21-9.69-7.94q-1.9-1.48-5.01-5.25a1.71 1.71 0 0 0-2.63-.02l-1.17 1.38a.91.9 29.1 0 1-.97.27l-.4-.14a.7.7 0 0 1-.44-.88l1.18-3.49a.72.7 39.8 0 0-.06-.58q-1.54-2.7-3.83-4.23a1.18 1.17-45.9 0 0-1.35.03q-.64.47-1.23.37a.22.21-4.3 0 1-.17-.14l-.16-.5a.29.28 51.1 0 0-.52-.06q-.11.2-.3.47-.2.3-.47-.08-.13-.18-.2-.53l-.15-.77a1.66 1.53-69.2 0 0-.22-.55l-4.26-6.72a2.58 2.55-.3 0 0-.83-.81q-2.72-1.67-9.77-6.77-1.9-1.37-2.32-3.84-1.29-7.45-.81-15.07A2.03 2.02 86.3 0 1 94.1 322l4.11-.79a.99.98 8.9 0 0 .66-.48q.93-1.72.79-3.74-.82-11.36-.97-15.72-.11-3.31 1.49-12.08.27-1.48-1.66-8.62-.32-1.18.75-4.65a6.21 6.14 69.9 0 1 .63-1.38q4.09-6.59 4.33-8.08 1.73-10.66 7.15-21.21c.55-1.06 1.26-3.54 1.2-4.98a.84.84 0 0 0-.7-.79q-4.56-.73-2.81-5.02 2.57-6.33 5.45-12.32 1.53.65.98.41a.29.29 0 0 1-.02-.52l12.25-7.07a.47.39 16.3 0 1 .16-.07q1.02-.3 2.74.83a.88.87-37.2 0 0 .75.1l1.13-.35a.1.1 0 0 0-.01-.2q-.59-.14-.78-.72a.69.69 0 0 1 .25-.79l4.93-3.55a.88.87-18.6 0 0 .37-.73l-.04-2.27q.54 1.12 1.34 1.67a.69.68-52.8 0 0 .93-.14q1.13-1.41 3.22-1.88a.77.76 59 0 1 .66.17l1.17.98a.6.6 0 0 0 .89-.78q-.84-1.3-.85-2.08a1.31 1.29-21.4 0 1 .45-1q.05-.04 2.17-1.41c1.02-.66.96-2.11 2.51-2.47q-.36.51-.48 1.02a.69.68 16.1 0 0 .45.81l1.75.59a.37.33 41.4 0 0 .23 0l3.11-.98a.58.58 0 0 0-.01-1.11q-.53-.16-.96.3a.72.72 0 0 1-.92.12q-1.2-.78-.84-2.98 1.05 1.97 3.32-1.07a1.72 1.69 66.2 0 0 .33-.88l.13-1.34q.36.7.9.85.45.13 1.14-.38 7.83-5.8 8.98-6.59 4.88-3.36 9.71-7.12a.98.96-25.6 0 0 .35-.97l-.72-3.27a1.55 1.5 47.6 0 1 .02-.69q.14-.47.75-.91a1.01 1 70.7 0 0 .41-.87l-.15-2.27q.21.33.18.79a.52.52 0 0 0 .14.38q.53.54 1.47.06-.09.73.33.96.88.49.9.52c1.18 2.03 1.68 3.3 3.66 4.13a.73.72-78.6 0 0 1-.67q0-2.23-1.29-4.23l.17-.95q.86 2.71 3.01 4.17a.66.66 0 0 0 1.03-.51q.15-2.66-2.2-5.99a.19.19 0 0 1 .29-.24l1.75 1.74a1.38 1.38 0 0 0 2.22-.38l1.41-2.96a2.04 2.03 80.8 0 1 .43-.6l7.43-7.06a2.58 2.57 30.8 0 1 2.45-.62q3.91 1.05 9.74 3.34a1.96 1.53 21.1 0 0 2.41-.73q.2-.53 1.06-.75a.79.77 45.7 0 1 .44.01l67.96 22.85a.97.92 75.5 0 1 .37.23l1.62 1.62a.9.9 0 0 0 1.54-.69q-.05-.87.31-1.23a.5.5 0 0 1 .69-.01q2.41 2.22 3.63 3.57c2.12 2.34 5.84 5.16 8.81 3.04a1.24 1.22 30.5 0 1 .87-.22l2.64.33a1.68 1.63-23.1 0 1 .76.29c1.01.72 1.92.58 3.07.97q17.93 6.09 33.2 10.84a.83.76-9.4 0 1 .35.23q.81.89 1.93.86a1.56 1.54-15.1 0 1 1.36.77l.68 1.19a.66.66 0 0 0 1 .17q.71-.6.9-1.5zm-122.63-38.22a.87.87 0 1 0-1.74 0 .87.87 0 1 0 1.74 0zm5.32 1.79a.85.85 0 0 0-1.7 0 .85.85 0 1 0 1.7 0zm94.92 32.46a.61.54 89.4 0 0 .73-.85q-.2-.34-.48-.29-.42.09-.42.51-.01.5.17.63zm-26.49 1.71q-.49-.44-.87-1.21a.75.75 0 0 0-1.4.15q-.44 1.7 1.9 1.9a.49.48-21.4 0 0 .37-.84zM151.4 214.41l-6.4 4.42a.17.17 0 0 0-.04.23l.02.04a2.46 2.25-34.6 0 0 3.3.45l2.64-1.82a2.46 2.25-34.6 0 0 .74-3.25l-.02-.03a.17.17 0 0 0-.24-.04zm207.16 4.43a.69.63-67.3 0 0-.44-1.21q-.3.06-.61.43a.46.46 0 0 0 .17.71q.6.27.88.07zm-198.61 12.82a.83.83 0 0 0-1.66 0 .83.83 0 0 0 1.66 0zm-27.45 1.81a1.13 1.13 0 0 0-2.26 0 1.13 1.13 0 0 0 2.26 0zm5.34 1.9a1.15 1.15 0 1 0-2.3 0 1.15 1.15 0 1 0 2.3 0zm5.46 1.8a1.06 1.06 0 1 0-2.12 0 1.06 1.06 0 1 0 2.12 0zm36.928 1.086a.84.6-132 0 0 .116 1.026.84.6-132 0 0 1.008.223.84.6-132 0 0-.116-1.026.84.6-132 0 0-1.008-.223zm185.722 4.094a.56.55-7.3 0 0 .86.66q2.24-1.83 2.04-3.13a.68.67 87.4 0 0-.63-.58q-1.65-.09-1.7-.08a.91.81 61.6 0 0-.37 1.56q.56.49.47 1.13a.44.44 0 0 1-.37.38q-.29.04-.3.06zm-211.8-1.61a1.02 1.02 0 0 0-2.04 0 1.02 1.02 0 0 0 2.04 0zm-35.916 2.03a1.26.97-104.5 0 0-.624 1.463 1.26.97-104.5 0 0 1.255.977 1.26.97-104.5 0 0 .624-1.463 1.26.97-104.5 0 0-1.255-.977zm46.844 1.348a1.13.99-15.5 0 0-1.353-.652 1.13.99-15.5 0 0-.824 1.256 1.13.99-15.5 0 0 1.353.652 1.13.99-15.5 0 0 .824-1.256zm200.704 1.366a1.64.75-18.7 0 0-1.794-.185 1.64.75-18.7 0 0-1.313 1.236 1.64.75-18.7 0 0 1.794.185 1.64.75-18.7 0 0 1.313-1.236zm-190.931 1.433a1.2.98-96.1 0 0-.847 1.297 1.2.98-96.1 0 0 1.102 1.089 1.2.98-96.1 0 0 .847-1.297 1.2.98-96.1 0 0-1.102-1.089zm-56.786 2.922a1.2 1.04-55.7 0 0-1.535.405 1.2 1.04-55.7 0 0 .183 1.577 1.2 1.04-55.7 0 0 1.535-.405 1.2 1.04-55.7 0 0-.183-1.577zm68.894 1.801a1.03 1.03 0 1 0-2.06 0 1.03 1.03 0 1 0 2.06 0zm34.596.452a.92.66-145 0 0 .375 1.068.92.66-145 0 0 1.132-.013.92.66-145 0 0-.375-1.068.92.66-145 0 0-1.132.013zm-3.986 9.538a1.12 1.12 0 0 0-2.24 0 1.12 1.12 0 0 0 2.24 0zm51.497.054a.88.55-79.7 0 0-.698.768.88.55-79.7 0 0 .384.964.88.55-79.7 0 0 .698-.767.88.55-79.7 0 0-.384-.964zm-40.771 2.841a1.16.97-45.3 0 0-1.505.142 1.16.97-45.3 0 0-.126 1.507 1.16.97-45.3 0 0 1.505-.142 1.16.97-45.3 0 0 .126-1.507zm-22.837.004a1.12.97-72.9 0 0-1.256.785 1.12.97-72.9 0 0 .598 1.356 1.12.97-72.9 0 0 1.256-.785 1.12.97-72.9 0 0-.598-1.356zm4.387 1.285a1.2.98-72.7 0 0-1.292.854 1.2.98-72.7 0 0 .579 1.437 1.2.98-72.7 0 0 1.293-.854 1.2.98-72.7 0 0-.579-1.437zM115.43 267.5a1.12 1.12 0 1 0-2.24 0 1.12 1.12 0 1 0 2.24 0zm103.06.63q-.05-.31-.32-.63a.25.25 0 0 0-.42.08q-.18.49.1.74a.4.31 21.6 0 0 .64-.19zm19.217-.155a1.11.94-125.4 0 0-.123 1.449 1.11.94-125.4 0 0 1.409.36 1.11.94-125.4 0 0 .123-1.449 1.11.94-125.4 0 0-1.409-.36zm-95.766 1.745a.74.74 0 0 0-.646-.824l-.794-.096a.74.74 0 0 0-.824.646l-.118.973a.74.74 0 0 0 .646.823l.794.096a.74.74 0 0 0 .824-.646l.118-.973zm55.939.82a1.07.99-19.9 0 0 1.65.7q.41-.28.34-.65a1.09.99 58.7 0 0-1.84-.54q-.16.24-.15.49zm5.45.736a1.11.9-122.7 0 0-.158 1.42 1.11.9-122.7 0 0 1.357.448 1.11.9-122.7 0 0 .158-1.42 1.11.9-122.7 0 0-1.357-.448zm46.96 1.264a1 1 0 1 0-2 0 1 1 0 1 0 2 0zm25.651 2.506a.97.8-74.4 0 0-1.031.719.97.8-74.4 0 0 .51 1.149.97.8-74.4 0 0 1.031-.719.97.8-74.4 0 0-.51-1.149zM113.21 279.43a1.04 1.04 0 0 0-2.08 0 1.04 1.04 0 1 0 2.08 0zm144.36 3.14a1.05 1.05 0 0 0-2.1 0 1.05 1.05 0 1 0 2.1 0zm-60.24-.28q-.25-.28-.55-.37a.55.49 5.4 0 0-.71.52q.1.6 1.07.41a.34.34 0 0 0 .19-.56zm63.56.497a1.24 1.05-76 0 0-1.319.949 1.24 1.05-76 0 0 .719 1.457 1.24 1.05-76 0 0 1.319-.949 1.24 1.05-76 0 0-.719-1.457zm-125.56.463a2.08 2.08 0 0 0-2.71 1.6l-2.6 14.42a2.08 2.08 0 0 0 1.38 2.34l3.41 1.15a2.08 2.08 0 0 0 2.71-1.6l2.61-14.42a2.08 2.08 0 0 0-1.38-2.34l-3.42-1.15zm66.95.36q-.03-.09-.34-.21a.61.5 17.6 0 0-.81.32q-.08.47.26.62a.65.61 3.8 0 0 .89-.73zm-91.851 6.241a1.17.97-74.7 0 0-1.244.873 1.17.97-74.7 0 0 .627 1.385 1.17.97-74.7 0 0 1.244-.873 1.17.97-74.7 0 0-.627-1.385zm84.581 4.349a.52.37 77.6 0 0-.59-.53c-.42.29-.53 1.08.17 1.09q.42 0 .42-.56zm4.58 2.11a.47.43 81 0 0 .47-.71q-.23-.35-.48-.39-.38-.05-.38.38 0 .59.39.72zm-39.2.7a1.13 1.03-36.8 0 0-1.88-.18c-3.31 4.13-1.21 7.52 3.54 7.43a1.08 1.06-74.3 0 0 .89-.51q1.5-2.39.96-4.87c-.21-.96-1-1.05-1.9-1.14q-.83-.09-.86-.1-.67-.4-.75-.63zm12.41 3.437a1.83.63-159.1 0 0 1.485 1.241 1.83.63-159.1 0 0 1.934.064 1.83.63-159.1 0 0-1.485-1.241 1.83.63-159.1 0 0-1.934-.064zm-63.858 1.726a1.19 1.03-33.5 0 0-1.561-.202 1.19 1.03-33.5 0 0-.424 1.516 1.19 1.03-33.5 0 0 1.561.202 1.19 1.03-33.5 0 0 .424-1.516zm70.372.692a1.88.62-163.8 0 0 1.632 1.12 1.88.62-163.8 0 0 1.978-.071 1.88.62-163.8 0 0-1.632-1.12 1.88.62-163.8 0 0-1.978.071zm-7.416 1.271a1.98.66-160.1 0 0 1.637 1.295 1.98.66-160.1 0 0 2.087.053 1.98.66-160.1 0 0-1.637-1.295 1.98.66-160.1 0 0-2.087-.053zm19.895.877a1.1.79-125.4 0 0-.007 1.354 1.1.79-125.4 0 0 1.281.439 1.1.79-125.4 0 0 .007-1.354 1.1.79-125.4 0 0-1.281-.439zm-13.263 1.377q-.04.14-.01.29a.16.15 8.7 0 0 .08.1q3.54 1.56 3.78.8.23-.75-3.57-1.47a.16.15 25.7 0 0-.13.04q-.1.1-.15.24zm20.09 1.134a1 .84.8 0 0-.988-.854 1 .84.8 0 0-1.012.826 1 .84.8 0 0 .988.854 1 .84.8 0 0 1.012-.826zm-27.086.41a1.92.69-164.1 0 0 1.657 1.19 1.92.69-164.1 0 0 2.035-.138 1.92.69-164.1 0 0-1.657-1.19 1.92.69-164.1 0 0-2.035.138zm6.616 1.966a1.94.73-159.8 0 0 1.569 1.355 1.94.73-159.8 0 0 2.073-.015 1.94.73-159.8 0 0-1.569-1.355 1.94.73-159.8 0 0-2.073.015zm76.524 3.16a1.34 1.06-115.5 0 0-.38 1.666 1.34 1.06-115.5 0 0 1.534.753 1.34 1.06-115.5 0 0 .38-1.666 1.34 1.06-115.5 0 0-1.534-.753zm-63.972 3.643a1.05.92-71.6 0 0-1.204.706 1.05.92-71.6 0 0 .542 1.287 1.05.92-71.6 0 0 1.204-.706 1.05.92-71.6 0 0-.542-1.287zM106.01 319.3a.99.99 0 1 0-1.98 0 .99.99 0 1 0 1.98 0zm90.62-.06a1.07 1.07 0 0 0-2.14 0 1.07 1.07 0 1 0 2.14 0zm-5.53 7.97q-5.45-.81-7.87 4.56-4.17 9.28-1.86 19.86.65 3.02 4.21 6.62a1.59 1.58-15 0 0 .71.41q3.68.99 7.72.95a4.79 4.33 47.9 0 1 1.08.11q2.27.5 5.11.7c6.58.45 12.73 3.81 18.33 4.35a1.07 1.06 3.8 0 0 1.17-1.02q.04-1.03.82-1.28 2.35-.01 3.86.7a1.93 1.93 0 0 0 2.07-.27q5.9-4.97 6.68-11.73c.86-7.56-2.59-15.45-9.01-19.5-2.03-1.28-5.24-2-7.78-2.8l-12.58-4.49a.66.65 16.1 0 0-.86.47l-.17.73a.55.55 0 0 1-.66.42l-.33-.08a.5.5 0 0 1-.38-.6l.26-1.14a.45.45 0 0 0-.34-.54l-.31-.07a.34.34 0 0 0-.4.29c-.25 1.6-.21 3.55-2.02 4.31l-4.55-.67a.58.58 0 0 1-.48-.7l1.01-4.47a.89.88-75.5 0 0-.61-1.05l-.4-.12a.79.78 7.3 0 0-.98.75q-.03 2.95-1.44 5.3zm-96.18-4.05a.41.41 0 0 0 .03.8l4.02.72a.46.46 0 0 1 .25.77q-2.13 2.28-2.23 6.54a1.11 1.1-64.5 0 0 .26.74q.68.78 2.51.61a.61.61 0 0 0 .56-.61q-.01-2.15-.63-3.44a1.37 1.36-49.4 0 1-.07-.97q1.11-3.5 1.05-5.77a.67.67 0 0 0-.84-.63l-4.91 1.24zm9.79 3.19a1.01 1.01 0 0 0-2.02 0 1.01 1.01 0 1 0 2.02 0zm7.97 17.11a1.15 1.15 0 0 0-2.3 0 1.15 1.15 0 1 0 2.3 0zm5.13 1.83a1.03 1.03 0 1 0-2.06 0 1.03 1.03 0 1 0 2.06 0zm4.684.483a1.3 1.01-86.3 0 0-1.092 1.232 1.3 1.01-86.3 0 0 .924 1.363 1.3 1.01-86.3 0 0 1.092-1.232 1.3 1.01-86.3 0 0-.924-1.363zm127.376 3.597a1.13 1.13 0 0 0-2.26 0 1.13 1.13 0 0 0 2.26 0zm-104.52 5.09a1.12 1.12 0 0 0-2.24 0 1.12 1.12 0 0 0 2.24 0zm32.46 14.78l-1.33 1.56a.88.87-49.9 0 0 .1 1.23l6.14 5.21a.62.62 0 0 0 .94-.17l1.09-1.88a.81.8 31.4 0 1 1.14-.27q1.24.79 2.27.86a1.05 1.03 23.1 0 0 .85-.33c1.8-1.89 2.63-.11 4.33-.01a.47.46-24.9 0 0 .31-.83l-2.01-1.49a2.53 2.41-16.1 0 0-.73-.38l-12.81-4.1a.61.6 13.9 0 1-.42-.69l2.06-11.44a.6.6 0 0 0-.59-.71h-.36a1.37 1.36-84.9 0 0-1.34 1.13l-1.97 10.86a.5.5 0 0 0 .49.58h1.43a.53.53 0 0 1 .41.87zm11.27-7.9a1.04 1.04 0 1 0-2.08 0 1.04 1.04 0 1 0 2.08 0zm-21.854.191a1.11.96-4.6 0 0-1.183-.868 1.11.96-4.6 0 0-1.029 1.046 1.11.96-4.6 0 0 1.183.868 1.11.96-4.6 0 0 1.029-1.046zm26.114 1.049a1.12 1.12 0 1 0-2.24 0 1.12 1.12 0 1 0 2.24 0zm2.756 8.186a1.15.97-116 0 0-.368 1.459 1.15.97-116 0 0 1.376.608 1.15.97-116 0 0 .368-1.459 1.15.97-116 0 0-1.376-.608zm12.494 4.594a1.05 1.05 0 0 0-2.1 0 1.05 1.05 0 1 0 2.1 0zm31.73 2.71a1.07 1.07 0 0 0-2.14 0 1.07 1.07 0 1 0 2.14 0zm-21.411-.229a1.22.99-70.4 0 0-1.342.817 1.22.99-70.4 0 0 .523 1.481 1.22.99-70.4 0 0 1.342-.817 1.22.99-70.4 0 0-.523-1.481zm11.661 4.779a1.12 1.12 0 0 0-2.24 0 1.12 1.12 0 1 0 2.24 0zm-65.11 13.46q1.45.89 2.58 2.33a.62.62 0 0 0 .91.08q.21-.18.43-.59a.62.62 0 0 0-.18-.8q-2.09-1.52-3.47-1.75a.4.4 0 0 0-.27.73z" class="C"/><g class="B"><circle cx="223.44" cy="168.03" r=".87"/><circle cx="228.78" cy="169.82" r=".85"/><path d="M183.61 174.47q1.29 2 1.29 4.23a.73.72-78.6 0 1-1 .67c-1.98-.83-2.48-2.1-3.66-4.13q-.02-.03-.9-.52-.42-.23-.33-.96.75-1.12 1.8-1.48a.82.81-31.6 0 1 .85.2l1.95 1.99z"/></g><path d="M149.72 200.27c-1.55.36-1.49 1.81-2.51 2.47q-2.12 1.37-2.17 1.41a1.31 1.29-21.4 0 0-.45 1q.01.78.85 2.08a.6.6 0 0 1-.89.78l-1.17-.98a.77.76 59 0 0-.66-.17q-2.09.47-3.22 1.88a.69.68-52.8 0 1-.93.14q-.8-.55-1.34-1.67-.59-.65-1.34-1.06a.43.42-48.6 0 1-.04-.72l3.73-2.69a.36.36 0 0 0 .1-.1q.32-.53-.23-.82a.93.88 89.1 0 1-.37-.38c-1.58-3.07-1.38-6.97-3.32-10.74a.61.61 0 0 1 .18-.77l7.18-5.31a1.44 1.44 0 0 1 2.01.3q.94 1.25 1.13 2.59.56 3.99 1.86 6.61a.87.86 52.1 0 1-.11.94q-.48.57-.34 1.19a.98.95-89.2 0 0 .68.72q1.41.41 2.37 1.49a.8.78 30.4 0 1 .18.66q-.14.78-1.18 1.15zm6.11-5.52l-.13 1.34a1.72 1.69 66.2 0 1-.33.88q-2.27 3.04-3.32 1.07-.3-1.6-1.77-2.15a.37.36 28.4 0 1-.17-.56q2.5-3.36 5.72-.58z" class="D"/><path d="M324.55 202.28q-.18-.13-.17-.63 0-.42.42-.51.28-.05.48.29a.61.54 89.4 0 1-.73.85z" class="B"/><path d="M298.06 203.99a.49.48-21.4 0 1-.37.84q-2.34-.2-1.9-1.9a.75.75 0 0 1 1.4-.15q.38.77.87 1.21zm25.12 37.98q1.24 1.1 2.06.41a1.05 1.05 0 0 0-.67-1.85q-1.03 0-1.39 1.44-1.07-.38-1.69.45a1.04 1.04 0 0 1-1.35.28l-.84-.49a.9.9 0 0 1-.08-1.51l25.12-18.08a.49.49 0 0 1 .77.3q.19.92-.51 1.7a.98.94 69.1 0 0-.23.54q-.19 2.09.72 3.75a.58.58 0 0 0 .99.03q.66-1.01 1.67-.79a.9.9 0 0 0 .9-.3l2-2.35a.19.18-32.4 0 1 .32.07q.09.33.68.14a.31.31 0 0 1 .4.34q-.58 4.25 1.21 9.08a1.5 1.5 0 0 1-1.45 2.02q-1.07-.03-2.56.6a1.75 1.6 8.8 0 0-.54.36l-2.96 2.97a1.36 1.34-17.1 0 0-.37.69l-.64 3.56a1.81 1.81 0 0 0 1.11 2l5.19 2.08a.32.31 17.1 0 1 .19.35v.01a.26.26 0 0 1-.31.13l-3.29-1.05a1 .99 13.9 0 0-1.28.77l-.28 1.58a1 .99-85 0 0 .98 1.18q3.64-.01 7.31 2.27a.49.48-54.1 0 1 .11.72l-.41.49a.07.07 0 0 0 .08.1q.63-.33-3.94-2.19a.59.59 0 0 0-.7.88q.95 1.32 2.87 1.76 4.43 1.03 7.17 2.55.42.23.86.01.37-.18.54-.1.35.16.36.5.01 1.18.24 1.24a.48.48 0 0 1 .23.77q-1.55 1.85.46 3.2a1.47 1.46 31.9 0 0 2.09-.48l4.49-7.77a1.26 1.23 60.7 0 0 .17-.63q0-.28-.18-.46a.07.06-38.1 0 1 .02-.11q3.61-1.65 6.83-1.77a.87.86-70.2 0 0 .63-.3l.79-.93a.33.33 0 0 0-.19-.53l-.84-.15a.12.12 0 0 1 0-.23l2.27-.55q.63 1.29 3.96.46a1.63 1.62-15.8 0 0 1.16-2.06l-2.63-8.35a.54.54 0 0 1 .54-.7q1.07.06 1.33-1.11a.6.59-74.4 0 0-.39-.7q-.83-.27-1.42.14a.44.44 0 0 1-.66-.21l-2.11-5.62q3.08-1.6.55-2.4l.44-1.17a.93.91-87.8 0 1 .6-.57q.74-.21.67-.91l1.12 2.57a2.55 2.44-82.5 0 0 .66.9l34.66 29.4a.35.34 30.8 0 1 .1.39q-.43 1.08-2.06.76c-1.22-.25-2.32.46-2.4 1.71q-.86-1.58-3.43-.82a.69.69 0 0 0 .06 1.34q1.14.23 1.71.76 3.9 3.67 8.34 6.78a6.67 6.53-2.9 0 1 1.14 1.01q2.55 2.86 5.82 4.7a1.48 1.44-8.9 0 1 .31.22l17.83 15.88q-.58 1.04-1.65 1.77a1.38 1.37 48.2 0 1-1.69-.1q-9.5-8.24-18.94-16-.5-.42-.92.07-.19.23.07.65l-2.26 13.57a1.93 1.93 0 0 0 1.45 2.2l16.92 4.12-3.81 4.46a1.7 1.7 0 0 1-1.86.5q-3.03-1.08-6.01-1.69-1.04-.21-1.38.89-1.44-1.98-2.54-1.62-1.6.52-2.77.51-4.94-.03-12.37.27a1.29 1.25 52.4 0 1-.47-.07l-34.48-11.12a.13.13 0 0 1 .03-.25q.42-.01.43-.07a1.96 1.34-81.5 0 0-.91-1.88q-4.98-1.64-11.3-3.03-2-.45-2.11.63a.23.23 0 0 1-.42.1c-.23-.36-2.07-.35-2.91-1.18q-1.43-1.42-3.78-2.07c-1.27-.35-2.56-1.14-3.64-1.37q-4.78-.99-13.09-3.19-1-.27-2.01.88a2.72 2.62-83 0 1-.69.56q-7.19 3.93-13.65 10.45a.51.51 0 0 0 .17.84q37.32 14.29 78.16 25.2a.33.32-60.2 0 1 .14.54q-7.7 7.69-12.02 15.48-8.83 15.97-9.82 34.37-.09 1.65.24 3.46a.41.41 0 0 1-.65.41q-28.15-20.58-71.38-52.41-14.75-10.87-19.76-14.51-.41-.31-.99.09-.59-.97-1.9-.35a1.05 1.04-40.2 0 1-1.01-.08q-1.14-.76-2.48-1.54c-.93-.54-1.37-1.75-2.78-1.96a.88.88 0 0 0-.94 1.22l1.15 2.63a2.06 2.03-84.5 0 0 .7.86l4.19 2.92a.54.54 0 0 0 .22.09q1.43.21 2.61-2.39l107.87 79.16-1.47 6.99q-.04-.81-.26-1.26a.75.74-27.2 0 0-1.04-.33q-1.92 1.06-2.98-.34c-1.34-1.74-2.45-4.35-3.21-6.56a4.6 4.58-81.2 0 0-1.6-2.2l-1.87-1.41a.91.9-80.4 0 0-1.4 1l2.67 8.49a.3.3 0 0 1-.25.39q-3.69.47-4.86-.28-6.07-3.89-10.96-5.52-28.03-9.33-55.54-17.33-2.39-.69-5.83-.53a.47.47 0 0 0-.43.61l1.22 3.87a1.1 1.1 0 0 0 1.22.75q3.39-.55 4.32-.3 9.83 2.6 19.03 6.48a1.14.92 51 0 0 .28.06l1.57.06a2.07 1.72 50.2 0 1 .54.1l45.27 15.49a1.59 1.56-14.5 0 1 .52.3l7.77 6.72-8.2 5.58a.17.16 63.6 0 0-.06.19l.1.31a.39.38-16.8 0 0 .48.25l10.1-3.18a.8.8 0 0 1 1.04.73q.14 3.19-.54 3.81-26.54 7.39-38.18 11.34-9.88 3.35-13.47 4.23c-7.99 1.96-12.75 3.73-20.78 5.83a1.17 1.16-13.8 0 1-1.43-.86l-.01-.05a1.24 1.24 0 0 1 .85-1.38l29.98-9.44a.96.94-.2 0 0 .6-.59l.13-.4a.42.41-82.9 0 0-.42-.55l-3.39.24q2.37-1.25-.82-2.62 1.78.17.66-1.42a1.1 1.07 86.8 0 0-.35-.32l-1.98-1.14a.92.82 3.6 0 1-.31-.31q-1.69-2.82-2.39-.53.16-.19.08-.46a.3.29 1.9 0 0-.2-.21l-9.63-3.24a.97.84-35 0 0-.38-.04q-5.24.58-7.74 4.69-1.79 2.96-1.6 7.05a.66.66 0 0 1-.27.57q-.4.3-.39.84.01.4.13.51.24.21.4.39a1.8 1.59 20 0 1 .43.79l.74 3.22c-2.19 1.09-5.39 1.13-5.47 4.16q-.06-.87-.33-1.36-.45-.78-1.13-.31-.97.67-2.51-.04a.62.62 0 0 0-.87.69l.78 4.09a.77.76.6 0 0 .58.59q3.57.76 5.07-.77 5.98-.7 12.56-3.01 2.03 3.44 4.93 5.73a1.25 1.24 16.5 0 1 .47.86q.05.45-.03.97-.1.62.39.81.38.15 1 .01-2.75 1.33-3.85-1.73a1.02 1.02 0 0 0-1.91-.05q-.59 1.43 1.09 3.16-.75-.8-1.4-.84a.28.28 0 0 0-.28.15l-2.39 4.14a.3.3 0 0 1-.56-.13q-.17-2.37-.54-2.97a.94.94 0 0 0-.82-.45q-.72.01-.85.39a.56.55 14.6 0 1-.64.37q-2.33-.46-3.64-1.54a.27.27 0 0 0-.38.04l-.19.23a.08.08 0 0 1-.14-.04q-.16-.72-1.49-.25a.72.72 0 0 1-.93-.46l-.47-1.5a.79.79 0 0 0-1.4-.21l-2.68 3.84q-.67.98-1.39.39-4.85-3.96-20.09-17.25a.44.43 44.2 0 1-.01-.65c1.06-1 .6-2.3.9-3.19a1.2.9-25.7 0 1 .15-.29l6.58-8.75a4.02 4.01-53.1 0 0-.79-5.62l-2.33-1.75a2.72 2.71 33.5 0 0-3.98.81l-6.22 10.77a.54.45 66.6 0 0-.06.2q-.06.67.46.73a.49.49 0 0 1 .43.46q.06.91.44 1.77a.39.38-14 0 1-.32.53q-1.3.12-2.65-1.07-10.11-8.85-14.42-12.37a.33.33 0 0 0-.5.09l-.21.37a.57.57 0 0 0 .12.72l44.81 37.91q-.72 1.51-.87 2.86a1.47 1.45-22.3 0 1-.32.75q-.58.7-.94.1-2.2-1.04-3.57-2.71-1.34-1.96-2.78-3.03-2.56-1.91-6.8-5.5-14-11.85-28.79-24.73-1.69-1.47-3.29-2.55a1.26 1.25 63.7 0 0-.64-.22q-.66-.04-1.41 1.01a.41.41 0 0 1-.73-.32q.23-1.22.94-2.19 3.8-5.17 5.07-7.53a.39.39 0 0 1 .66-.04q.14.19.71.94a1.1.87 22.9 0 0 1.88-.52q-.14-.41-1.1-.99a1.37 1.35-82.9 0 1-.59-.77l-.51-1.6a.41.4 78.3 0 0-.42-.28q-.72.05-1.16.9a.47.47 0 0 1-.89-.21q-.04-2.63-.45-2.93a.7.69-61.3 0 0-1.05.31q-.87 2.21-2.36 2.98a.78.77 39.9 0 0 .13 1.43q2 .6 1.4 1.74a.61.61 0 0 1-.94.18l-3.54-3a.59.56 24.4 0 1-.2-.49q.09-1.15 1.15-1.09a.96.96 0 0 0 .99-.79l.51-2.86a.29.29 0 0 1 .52-.12q.15.19.51.75a.4.4 0 0 0 .57.11l.33-.23a.43.42 46.9 0 0 .02-.67l-.65-.55a1.29 1.28 11.8 0 1-.39-.59l-1.64-5.2a1.05 1.03 5.2 0 0-.53-.62q-1.63-.82-2.16.22a.25.25 0 0 1-.45-.03q-.29-.8-1.36-.5a.43.42-2.3 0 1-.53-.48l17.86-98.92a.18.18 0 0 1 .34-.05l.55 1.2q.27.95.93.93a1.12 1.11 76.2 0 0 .96-1.59q-.24-.52-.93-.38l.42-1.42a1.08 1.07-7.2 0 1 .46-.59l2.67-1.55a1.46 1.46 0 0 0 .68-.93q.17-.77 1.63-2.75a.9.86-78.6 0 1 .5-.35q1-.29 1.31-.95a.89.87 40.3 0 0-.08-.9q-1-1.39-1.61-4.25a.81.79-23.6 0 1 .34-.84c1.1-.73 3.77-2.91 3.78-4.92a.38.38 0 0 0-.6-.31l-6.55 4.84a1.16 1.16 0 0 1-1.8-.59l-.44-1.4a1.61 1.6 66.9 0 1 .75-1.88q4.95-2.77 9.85-6.61 5.4-4.22 6.74-5.01 2.71-1.59 5.82-4.19c2.04-1.7 5.6-3.53 8.31-5.94a8.96 8.8-81.1 0 1 1.4-1.04c3.62-2.2 6.76-4.89 10.14-7.21q9.34-6.42 15.84-11.58c1.32-1.05 4.24-2.57 5.98-4.07q3.68-3.16 8.45-6.35a.81.81 0 0 1 1.22.44l.44 1.38a1.75 1.74-26.7 0 1-.65 1.94l-59.68 42.95a2.82 2.79-16.6 0 0-1.17 2.13l-.03.37a.81.8 68.4 0 0 1.26.55q21.09-15.04 26.5-19.05.63-.46.68-.84a.1.1 0 0 1 .2.01q.08.66 1.27.76a.71.7 2.7 0 1 .64.7q0 .68-.98 1.02a.63.63 0 0 0-.38.85q1.31 3.12 1.12 5.2a1.35 1.35 0 0 0 .48 1.15q.97.81.84 2.31a1.25 1.25 0 0 0 1.02 1.33l.35.06a.89.88-82.4 0 0 1.04-.8q.14-1.63-1.01-1.88a.87.86-6 0 1-.62-.5q-1.64-3.67.25-3.77a.6.6 0 0 1 .61.47l.76 3.22a1.41 1.38 16.5 0 0 .35.63q.76.77 1.9.59a.44.44 0 0 1 .5.56q-.28.94-1.97 1.47a.37.37 0 0 0-.12.64l.61.52a.57.56-46.2 0 0 .75-.02l2.75-2.52a2.01 1.97 73.8 0 0 .63-1.17q.71-4.57 1.06-7.3a1.06 1.04 3.7 0 0-1.04-1.17q-.45 0-.83-.19a.84.83 10.1 0 1-.44-.62q-.24-1.68-1.11-3.34zm19.509-13.623a1.15.97-40.9 0 0-1.504.02 1.15.97-40.9 0 0-.234 1.486 1.15.97-40.9 0 0 1.504-.02 1.15.97-40.9 0 0 .234-1.486zm-8.549 6.993a1 1 0 1 0-2 0 1 1 0 1 0 2 0zm59.37 14.42q-.26 1.38.79 1.37a1.34 1.34 0 0 0 1.31-1.24q.03-.49-.41-.82-.36-.28-.92-.14.29-.79-.05-1.13c-.82-.83-.97-1.95-.7-2.98a1.23 1.15 47 0 0 0-.57q-.52-2.01-2.48-2.61a1.36 1.35 23 0 0-1.57.63c-.84 1.47-2.37 4.85-3.6 5.82q-.71.57-.51 1.26a.61.58-35.2 0 1-.1.52l-1.73 2.31a.77.75-31.7 0 0-.15.6q.24 1.48 3.08.69a.59.59 0 0 0 .12-1.09q-.88-.47-.93-1.43a.69.68-19.7 0 1 .28-.59l.6-.44a.73.72-30.3 0 0 .24-.89q-.47-1.03 1.4-1.65a.77.77 0 0 1 1 .7c.03.8-.14 1.36-.83 2.06q-.96.98-.74 1.78a1.08.93-49.1 0 0 1.92-.28q.09-.35-.14-.84a.35.35 0 0 1 .31-.49q.84-.02 1.1-.74.19-.54-.25-1.05-1.26-1.45.06-3.03a.14.14 0 0 1 .25.09l.12 1.9a.79.78 7.7 0 0 .54.7q.4.14.54.36a.56.56 0 0 1 .02.57l-2.62 4.58a.93.92 18.7 0 1-.94.46q-.99-.15-1.92.22a1.22 1.2-87.1 0 0-.65.6q-.23.46-1.25 1.34a.23.22-23.8 0 1-.37-.14q-.01-.11.05-.37a1.12 1.02-1.9 0 0-1.41-1.2q-1.02.29-1.75 1.07a.62.62 0 0 0-.07.78q1.13 1.71 2.6 1.96a1.58 1.52 70.9 0 1 .82.42q.79.78 2.07 1a.72.72 0 0 0 .69-.28l3.08-4.05a.83.83 0 0 1 1.21-.12q.03.03.08.08a.77.77 0 0 0 1.24-.28l.9-2.34a1.14 1.13 37.8 0 0-.14-1.07q-.65-.86-.19-2.01zm-49.321-3.062a1.49.51-95.8 0 0-.357 1.534 1.49.51-95.8 0 0 .658 1.431 1.49.51-95.8 0 0 .357-1.534 1.49.51-95.8 0 0-.658-1.431zm-6.329 7.122l.82-.06a.69.68-11.1 0 0 .6-.89l-.78-2.47a1.32 1.32 0 0 0-2.55.11l-.63 2.76a.84.81 79.5 0 1-.32.49l-3.78 2.71a.95.95 0 0 0-.35 1.05l.11.33a.45.45 0 0 0 .7.23l5.64-4.06a1.01 1.01 0 0 1 .54-.2zm-29.683-.763a1.16.93-46.6 0 0-1.473.204 1.16.93-46.6 0 0-.121 1.482 1.16.93-46.6 0 0 1.473-.204 1.16.93-46.6 0 0 .121-1.482zm93.568 1.676a1.06.9-53.9 0 0-1.352.326 1.06.9-53.9 0 0 .103 1.387 1.06.9-53.9 0 0 1.352-.326 1.06.9-53.9 0 0-.103-1.387zm4.815 7.557h-2.11a.66.66 0 0 1-.66-.66v-3.23a.36.35 0 0 0-.36-.35h-.41a.58.57.5 0 0-.58.56l-.1 3.19a.87.78-41.8 0 1-.02.18q-.21.89-.93 2.08-.23.39-.17.93.05.38.55.68a.71.63 16.2 0 0 1.07-.51q-.04-.91.32-1.2a1.04 1.02 36.9 0 1 1.03-.14q.36.15 1.69.96.94.56 1.44-1.53a.78.78 0 0 0-.76-.96zm-2.53-3.49l-.27 2.65a.45.45 0 0 0 .4.49l.12.01a4.01 1.75 5.9 0 0 4.16-1.32l.01-.06a4.01 1.75 5.9 0 0-3.81-2.16l-.12-.01a.45.45 0 0 0-.49.4zm-105.063.403a1.07.81-65.9 0 0-1.176.646 1.07.81-65.9 0 0 .303 1.307 1.07.81-65.9 0 0 1.176-.646 1.07.81-65.9 0 0-.303-1.307zM284.07 270.32l2.03-.36a.25.25 0 0 0 .2-.29l-.03-.16a9.13 1.23 79.9 0 0-2.81-8.77l-.1.01a9.13 1.23 79.9 0 0 .39 9.21l.03.15a.25.25 0 0 0 .29.21zm5.04-4.4q-.3.39.04 1.79a.43.43 0 0 0 .65.26q.26-.18.81-.89.56-.71.66-1.01a.43.43 0 0 0-.41-.56q-1.44.01-1.75.41zm3.08 1.09q-.02.15.28.52c.92 1.13 2.97.07 3.12 2.14a1 .99-87.5 0 0 .82.91l2.32.42a.74.74 0 0 0 .87-.82q-.08-.77.16-1.7a.89.88-67.1 0 0-.39-.97q-1.95-1.2-3.42-.27a1.28 1.26-48.8 0 1-1.22.09l-1.72-.77a.59.58-73.4 0 0-.82.45zm68.63 13.74q-.2-2.16-4.4-3.17-.74-.18-1.14.47-.39.64.21 1.47l-50.77-12.42a.71.71 0 0 0-.87.82l.31 1.62a.27.27 0 0 0 .45.14q.7-.65 3.02-.1 25 5.94 53.9 13.23c2.03.51 3.54.56 5.17 1.12q2.26.76 3.8 1.14 23.95 5.81 45.16 11.1 3.24.81 18.92 4.75a.94.93-68.1 0 0 1.02-.44l.06-.12a.56.55 21.3 0 0-.36-.81l-8.82-2.03a.45.38-23.2 0 1-.13-.04q-1.92-.96-5.67-1.33a2.31 2.28-27 0 1-.88-.28q-1.86-1.08-7.85-2.56-25.57-6.3-51.13-12.56zm26.64-13.35a.49.49 0 0 0-.05.93q1.3.48 1.92 1.67a1.01 1-43.9 0 1-.02.99l-1.39 2.42a1.01 1-60.1 0 0 .37 1.38l.98.57a1.28 1.28 0 0 0 1.75-.47l1.54-2.67a.72.72 0 0 0-.16-.91l-4.57-3.93a.22.2 57.2 0 0-.15-.04q-.18.05-.22.06zm-85.12.81l-1.34 2.93a.24.24 0 0 0 .12.32l.13.05a1.51 1.34-65.5 0 0 1.84-.81l.28-.62a1.51 1.34-65.5 0 0-.59-1.93l-.13-.06a.24.24 0 0 0-.31.12zm84.275 1.61a1.2.99-51.6 0 0-1.521.326 1.2.99-51.6 0 0 .03 1.555 1.2.99-51.6 0 0 1.521-.325 1.2.99-51.6 0 0-.03-1.555zm-103.195.35q-1.16-.57-2.69-.14a.41.41 0 0 0-.03.78q2.19.76 1.72 3.29a.48.48 0 0 0 .76.47l3.21-2.37a.77.77 0 0 0-.72-1.35q-1.15.4-1.86-.38a1.6 1.54-6.3 0 0-.39-.3zm137.028 8.807a.73.73 0 0 0-.773-.684l-3.893.238a.73.73 0 0 0-.684.773l.013.22a.73.73 0 0 0 .773.684l3.893-.238a.73.73 0 0 0 .684-.773l-.013-.22zM275.48 285.38a.89.89 0 0 0-1.78 0 .89.89 0 0 0 1.78 0zm139.59 4.39l-1.14-.66a.2.2 0 0 0-.27.07l-.35.61a3.22.76-59.9 0 0-.96 3.16l.17.1a3.22.76-59.9 0 0 2.28-2.4l.35-.61a.2.2 0 0 0-.08-.27zm-143.39 10.75q-.51-2.84 1.74-4.12a.41.41 0 0 0 .14-.56l-.15-.21a.2.2 0 0 0-.29-.05l-2.53 1.87a1.07 1.06 69.8 0 0-.43.95q.21 2.31-1.03 6.33a.87.83 85.2 0 0 1.18 1.05q.49-.27.45-1.05-.14-2.37.67-3.28a1.11 1.09 60.6 0 0 .25-.93zm-3.64 9.73a.72.72 0 0 0 1.27.47q.96-1.16.36-1.7a.9.9 0 0 0-1.48.49q-.15.71-.15.74zm-1.256 10.502a.87.72-85.8 0 0-.782.815.87.72-85.8 0 0 .654.92.87.72-85.8 0 0 .782-.815.87.72-85.8 0 0-.654-.92zm19.595 6.162a1.3 1.3 0 0 0-1.033-1.521l-.825-.157A1.3 1.3 0 0 0 283 326.27l-2.159 11.316a1.3 1.3 0 0 0 1.033 1.521l.825.157a1.3 1.3 0 0 0 1.521-1.033l2.159-11.316zm-6.327.397a1.14.6-87.4 0 0-.651 1.112 1.14.6-87.4 0 0 .548 1.166 1.14.6-87.4 0 0 .651-1.112 1.14.6-87.4 0 0-.548-1.166zm-3.462 1.249a.41.41 0 0 0-.66-.47q-.66.78-.54 2.07a.14.13-32.6 0 0 .25.05l.95-1.65zm-11.675 3.953a.93.71-77.3 0 0-.897.751.93.71-77.3 0 0 .488 1.063.93.71-77.3 0 0 .897-.751.93.71-77.3 0 0-.488-1.063zm-1.504 12.717a.83.83 0 1 0-1.66 0 .83.83 0 1 0 1.66 0zm-2.636 11.027a.84.65-68.8 0 0-.91.548.84.65-68.8 0 0 .302 1.018.84.65-68.8 0 0 .91-.548.84.65-68.8 0 0-.302-1.018zm-2.046 11.348a1.09.76-68.6 0 0-1.105.738 1.09.76-68.6 0 0 .31 1.292 1.09.76-68.6 0 0 1.105-.738 1.09.76-68.6 0 0-.31-1.292zm49.723 7.135a1.11.87-27.9 0 0-1.388-.249 1.11.87-27.9 0 0-.574 1.288 1.11.87-27.9 0 0 1.388.25 1.11.87-27.9 0 0 .574-1.288zm25.489 6.619a.49.49 0 0 0 .02-.94l-5.41-1.82a.92.92 0 0 0-.56 0q-3.88 1.24-6.9 3.79a.53.53 0 0 0 .37.93q6.78-.28 12.48-1.96zm-18.601-1.995a1.22.94-43.2 0 0-1.533.15 1.22.94-43.2 0 0-.246 1.52 1.22.94-43.2 0 0 1.533-.15 1.22.94-43.2 0 0 .246-1.52zm-60.619 2.695q1.66-1.1 2.43-.2.41.48.81.14.3-.26.45-.71.27-.8-.47-1-.42-.11-1.01.35-.48.37-.95.17-.79-.34-1.37-.23-.43.09-.59.41-.27.52-.14.82a.57.57 0 0 0 .84.25zm84.04 20.63l-2.73 2.01a1.1 1.09-25.9 0 0-.4 1.14l.1.4a.9.89-25.1 0 0 1.4.5l4.82-3.57a.81.81 0 0 0 .32-.8l-1.41-7.31a1.02 1.01 66.3 0 0-1.6-.63l-.25.18a2.33 2.32 64.6 0 0-.87 2.45l1.09 4.31a1.25 1.25 0 0 1-.47 1.32zm37.13-2.35a1.01 1.01 0 0 0-2.02 0 1.01 1.01 0 0 0 2.02 0zm-39.343.232a1 .7-29.9 0 0-1.216-.108 1 .7-29.9 0 0-.518 1.105 1 .7-29.9 0 0 1.216.108 1 .7-29.9 0 0 .518-1.105zm-63.045 3.28a1.24.99-41.3 0 0-1.585.075 1.24.99-41.3 0 0-.278 1.562 1.24.99-41.3 0 0 1.585-.075 1.24.99-41.3 0 0 .278-1.562zm32.358.168a.49.49 0 0 0-.06.94q1.3.49 1.91 1.7a1.01 1.01 0 0 1-.03.99l-1.42 2.42a1.01 1.01 0 0 0 .36 1.39l.98.59a1.29 1.29 0 0 0 1.76-.46l1.58-2.66a.73.72 35.8 0 0-.15-.92l-4.56-4a.22.2 57.8 0 0-.15-.05q-.18.05-.22.06zm60.991 1.345a1.22.96-67.3 0 0-1.356.755 1.22.96-67.3 0 0 .415 1.496 1.22.96-67.3 0 0 1.356-.755 1.22.96-67.3 0 0-.415-1.496zm-62.918 1.281a1.02.78-105.2 0 0-.485 1.189 1.02.78-105.2 0 0 1.02.78 1.02.78-105.2 0 0 .485-1.189 1.02.78-105.2 0 0-1.02-.78zm-23.945 2.827a1.17.83-45.7 0 0-1.411.258 1.17.83-45.7 0 0-.223 1.417 1.17.83-45.7 0 0 1.411-.258 1.17.83-45.7 0 0 .223-1.417zm13.241 11.655a1.11.92-8.4 0 0-1.232-.748 1.11.92-8.4 0 0-.964 1.072 1.11.92-8.4 0 0 1.233.748 1.11.92-8.4 0 0 .964-1.072zm5.745 4.769a1.12.85-71.6 0 0-1.16.794 1.12.85-71.6 0 0 .453 1.331 1.12.85-71.6 0 0 1.16-.794 1.12.85-71.6 0 0-.453-1.331zm1.916 3.383q-.08 1.07.94 1.66a.56.55-62.9 0 0 .78-.26q.11-.23.18-1.26.08-1.03.01-1.28a.56.55 71.2 0 0-.74-.36q-1.09.43-1.17 1.5zM151.4 214.41a.17.17 0 0 1 .24.04l.02.03a2.46 2.25-34.6 0 1-.74 3.25l-2.64 1.82a2.46 2.25-34.6 0 1-3.3-.45l-.02-.04a.17.17 0 0 1 .04-.23l6.4-4.42zm207.16 4.43q-.28.2-.88-.07a.46.46 0 0 1-.17-.71q.31-.37.61-.43a.69.63-67.3 0 1 .44 1.21z" class="D"/><path d="M380.35 227.47q.07.7-.67.91a.93.91-87.8 0 0-.6.57l-.44 1.17-3.71 3.42a.23.22-51.7 0 0 .04.36l.34.19a.34.32-51.1 0 0 .41-.05q1.04-1.06 2.37-1.52l2.11 5.62a.44.44 0 0 0 .66.21q.59-.41 1.42-.14a.6.59-74.4 0 1 .39.7q-.26 1.17-1.33 1.11a.54.54 0 0 0-.54.7l2.63 8.35a1.63 1.62-15.8 0 1-1.16 2.06q-3.33.83-3.96-.46l-5.73-18.87a.82.81 5.2 0 0-.43-.51q-1.01-.47-1.98.83a.51.5 45.6 0 1-.81-.01q-.63-.87-1.5-.75a.57.57 0 0 1-.62-.4l-.5-1.57a.59.59 0 0 1 .59-.76q1.15.06.76-1.66a1.42 1.37-8.1 0 1 1.3-1.67q1.78-.12 2.32-.92a.58.57-63.6 0 0-.29-.87l-1.59-.53a.85.85 0 0 1-.47-1.23l1.94-3.36a.43.43 0 0 1 .79.12q.21.89-.47 1.98a.95.93-43.1 0 0-.04.89q2.27 4.66 6.84 4.46c1.18-.06 1.75.51 1.93 1.63zm-6.292.437a1.67.78-100.4 0 0-.466 1.783 1.67.78-100.4 0 0 1.069 1.502 1.67.78-100.4 0 0 .466-1.783 1.67.78-100.4 0 0-1.069-1.502z" class="B"/><ellipse cx="0" cy="0" transform="matrix(-.180519 -.983571 .983571 -.180519 374.36 229.55)" rx="1.67" ry=".78" class="C"/><ellipse cx="0" cy="0" transform="matrix(.755853 -.654741 .654741 .755853 341.82 229.1)" rx="1.15" ry=".97" class="B"/><path d="M378.09 232.52q-1.33.46-2.37 1.52a.34.32-51.1 0 1-.41.05l-.34-.19a.23.22-51.7 0 1-.04-.36l3.71-3.42q2.53.8-.55 2.4z" class="C"/><g class="B"><circle cx="159.12" cy="231.66" r=".83"/><circle cx="131.37" cy="233.47" r="1.13"/></g><circle cx="136.69" cy="235.37" r="1.15" class="D"/><g class="B"><circle cx="333.14" cy="235.34" r="1"/><circle cx="142.24" cy="237.17" r="1.06"/><ellipse cx="0" cy="0" transform="matrix(-.669131 -.743145 .743145 -.669131 180.79 238.88)" rx=".84" ry=".6"/></g><path d="M365.95 242.35q.01-.02.3-.06a.44.44 0 0 0 .37-.38q.09-.64-.47-1.13a.91.81 61.6 0 1 .37-1.56q.05-.01 1.7.08a.68.67 87.4 0 1 .63.58q.2 1.3-2.04 3.13a.56.55-7.3 0 1-.86-.66z" class="D"/><g class="B"><circle cx="153.13" cy="240.74" r="1.02"/><path d="M323.18 241.97q.36-1.44 1.39-1.44a1.05 1.05 0 0 1 .67 1.85q-.82.69-2.06-.41z"/></g><path d="M394.28 248.93q-.56.24-.77.83-.46 1.15.19 2.01a1.14 1.13 37.8 0 1 .14 1.07l-.9 2.34a.77.77 0 0 1-1.24.28q-.05-.05-.08-.08a.83.83 0 0 0-1.21.12l-3.08 4.05a.72.72 0 0 1-.69.28q-1.28-.22-2.07-1a1.58 1.52 70.9 0 0-.82-.42q-1.47-.25-2.6-1.96a.62.62 0 0 1 .07-.78q.73-.78 1.75-1.07a1.12 1.02-1.9 0 1 1.41 1.2q-.06.26-.05.37a.23.22-23.8 0 0 .37.14q1.02-.88 1.25-1.34a1.22 1.2-87.1 0 1 .65-.6q.93-.37 1.92-.22a.93.92 18.7 0 0 .94-.46l2.62-4.58a.56.56 0 0 0-.02-.57q-.14-.22-.54-.36a.79.78 7.7 0 1-.54-.7l-.12-1.9a.14.14 0 0 0-.25-.09q-1.32 1.58-.06 3.03.44.51.25 1.05-.26.72-1.1.74a.35.35 0 0 0-.31.49q.23.49.14.84a1.08.93-49.1 0 1-1.92.28q-.22-.8.74-1.78c.69-.7.86-1.26.83-2.06a.77.77 0 0 0-1-.7q-1.87.62-1.4 1.65a.73.72-30.3 0 1-.24.89l-.6.44a.69.68-19.7 0 0-.28.59q.05.96.93 1.43a.59.59 0 0 1-.12 1.09q-2.84.79-3.08-.69a.77.75-31.7 0 1 .15-.6l1.73-2.31a.61.58-35.2 0 0 .1-.52q-.2-.69.51-1.26c1.23-.97 2.76-4.35 3.6-5.82a1.36 1.35 23 0 1 1.57-.63q1.96.6 2.48 2.61a1.23 1.15 47 0 1 0 .57c-.27 1.03-.12 2.15.7 2.98q.34.34.05 1.13z" class="C"/><g class="B"><ellipse cx="0" cy="0" transform="matrix(-.25038 -.968148 .968148 -.25038 118.55 243.99)" rx="1.26" ry=".97"/><ellipse cx="0" cy="0" transform="matrix(.96363 -.267238 .267238 .96363 163.99 244.42)" rx="1.13" ry=".99"/></g><ellipse cx="0" cy="0" transform="matrix(.94721 -.320613 .320613 .94721 364.23 246.01)" rx="1.64" ry=".75" class="D"/><ellipse cx="0" cy="0" transform="matrix(-.101056 -.994881 .994881 -.101056 344.34 248.18)" rx="1.49" ry=".51" class="C"/><g class="B"><ellipse cx="0" cy="0" transform="matrix(-.106264 -.994338 .994338 -.106264 174.98 248.11)" rx="1.2" ry=".98"/><path d="M394.28 248.93q.56-.14.92.14.44.33.41.82a1.34 1.34 0 0 1-1.31 1.24q-1.05.01-.79-1.37.21-.59.77-.83z"/></g><path d="M337.32 254.02l-5.64 4.06a.45.45 0 0 1-.7-.23l-.11-.33a.95.95 0 0 1 .35-1.05l3.78-2.71a.84.81 79.5 0 0 .32-.49l.63-2.76a1.32 1.32 0 0 1 2.55-.11l.78 2.47a.69.68-11.1 0 1-.6.89l-.82.06a1.01 1.01 0 0 0-.54.2z" class="C"/><ellipse cx="0" cy="0" transform="matrix(.563526 -.826098 .826098 .563526 117.39 250.83)" rx="1.2" ry="1.04" class="D"/><g class="B"><circle cx="185.93" cy="251.64" r="1.03"/><ellipse cx="0" cy="0" transform="matrix(-.819152 -.573576 .573576 -.819152 222.31 252.62)" rx=".92" ry=".66"/><ellipse cx="0" cy="0" transform="matrix(.687088 -.726575 .726575 .687088 307.38 253.9)" rx="1.16" ry=".93"/><ellipse cx="0" cy="0" transform="matrix(.589196 -.80799 .80799 .589196 401.12 255.59)" rx="1.06" ry=".9"/></g><g class="C"><path d="M406.56 262.29a.78.78 0 0 1 .76.96q-.5 2.09-1.44 1.53-1.33-.81-1.69-.96a1.04 1.02 36.9 0 0-1.03.14q-.36.29-.32 1.2a.71.63 16.2 0 1-1.07.51q-.5-.3-.55-.68-.06-.54.17-.93.72-1.19.93-2.08a.87.78-41.8 0 0 .02-.18l.1-3.19a.58.57.5 0 1 .58-.56h.41a.36.35 0 0 1 .36.35v3.23a.66.66 0 0 0 .66.66h2.11z"/><path d="M404.03 258.8a.45.45 0 0 1 .49-.4l.12.01a4.01 1.75 5.9 0 1 3.81 2.16l-.01.06a4.01 1.75 5.9 0 1-4.16 1.32l-.12-.01a.45.45 0 0 1-.4-.49l.27-2.65z"/><ellipse cx="0" cy="0" transform="matrix(.40833 -.912834 .912834 .40833 298.53 260.18)" rx="1.07" ry=".81"/></g><circle cx="216.45" cy="261.63" r="1.12" class="B"/><path d="M284.07 270.32a.25.25 0 0 1-.29-.21l-.03-.15a9.13 1.23 79.9 0 1-.39-9.21l.1-.01a9.13 1.23 79.9 0 1 2.81 8.77l.03.16a.25.25 0 0 1-.2.29l-2.03.36z" class="C"/><g class="B"><ellipse cx="0" cy="0" transform="matrix(.178802 -.983885 .983885 .178802 268.91 262.55)" rx=".88" ry=".55"/><path d="M412.43 263.2l4.22 3.55a1.77 1.72-22.3 0 0 1 .4q.76.04 1.47-.26a.99.98-34.3 0 1 1.08.2q1.46 1.45 1.37 2.63-.14 1.88 1.19 2.96 11.35 9.28 22.23 18.7a.84.84 0 0 1 .21.98q-.15.32-.99.71l-17.83-15.88a1.48 1.44-8.9 0 0-.31-.22q-3.27-1.84-5.82-4.7a6.67 6.53-2.9 0 0-1.14-1.01q-4.44-3.11-8.34-6.78-.57-.53-1.71-.76a.69.69 0 0 1-.06-1.34q2.57-.76 3.43.82z"/><ellipse cx="0" cy="0" transform="matrix(.703395 -.710799 .710799 .703395 227.48 265.35)" rx="1.16" ry=".97"/><ellipse cx="0" cy="0" transform="matrix(.29404 -.955793 .955793 .29404 205.13 265.6)" rx="1.12" ry=".97"/><path d="M290.61 267.08q-.55.71-.81.89a.43.43 0 0 1-.65-.26q-.34-1.4-.04-1.79.31-.4 1.75-.41a.43.43 0 0 1 .41.56q-.1.3-.66 1.01z"/><ellipse cx="0" cy="0" transform="matrix(.297375 -.954761 .954761 .297375 209.49 266.96)" rx="1.2" ry=".98"/><circle cx="114.31" cy="267.5" r="1.12"/></g><path d="M293.01 266.56l1.72.77a1.28 1.26-48.8 0 0 1.22-.09q1.47-.93 3.42.27a.89.88-67.1 0 1 .39.97q-.24.93-.16 1.7a.74.74 0 0 1-.87.82l-2.32-.42a1 .99-87.5 0 1-.82-.91c-.15-2.07-2.2-1.01-3.12-2.14q-.3-.37-.28-.52a.59.58-73.4 0 1 .82-.45z" class="C"/><path d="M355.49 279.52l5.33 1.23q25.56 6.26 51.13 12.56 5.99 1.48 7.85 2.56a2.31 2.28-27 0 0 .88.28q3.75.37 5.67 1.33a.45.38-23.2 0 0 .13.04l8.82 2.03a.56.55 21.3 0 1 .36.81l-.06.12a.94.93-68.1 0 1-1.02.44q-15.68-3.94-18.92-4.75-21.21-5.29-45.16-11.1-1.54-.38-3.8-1.14c-1.63-.56-3.14-.61-5.17-1.12q-28.9-7.29-53.9-13.23-2.32-.55-3.02.1a.27.27 0 0 1-.45-.14l-.31-1.62a.71.71 0 0 1 .87-.82l50.77 12.42z" class="B"/><path d="M387.46 267.4q.04-.01.22-.06a.22.2 57.2 0 1 .15.04l4.57 3.93a.72.72 0 0 1 .16.91l-1.54 2.67a1.28 1.28 0 0 1-1.75.47l-.98-.57a1.01 1-60.1 0 1-.37-1.38l1.39-2.42a1.01 1-43.9 0 0 .02-.99q-.62-1.19-1.92-1.67a.49.49 0 0 1 .05-.93z" class="C"/><g class="B"><path d="M218.49 268.13a.4.31 21.6 0 1-.64.19q-.28-.25-.1-.74a.25.25 0 0 1 .42-.08q.27.32.32.63z"/><ellipse cx="0" cy="0" transform="matrix(-.579281 -.815128 .815128 -.579281 238.35 268.88)" rx="1.11" ry=".94"/><path d="M302.34 268.21a.24.24 0 0 1 .31-.12l.13.06a1.51 1.34-65.5 0 1 .59 1.93l-.28.62a1.51 1.34-65.5 0 1-1.84.81l-.13-.05a.24.24 0 0 1-.12-.32l1.34-2.93z"/><rect x="-1.14" y="-1.23" transform="matrix(.992757 .120137 -.120137 .992757 140.75 270.07)" width="2.28" height="2.46" rx=".74"/></g><ellipse cx="0" cy="0" transform="matrix(.621148 -.783693 .783693 .621148 385.87 270.76)" rx="1.2" ry=".99" class="C"/><path d="M197.88 270.54q-.01-.25.15-.49a1.09.99 58.7 0 1 1.84.54q.07.37-.34.65a1.07.99-19.9 0 1-1.65-.7z" class="B"/><path d="M283.81 270.47q.71.78 1.86.38a.77.77 0 0 1 .72 1.35l-3.21 2.37a.48.48 0 0 1-.76-.47q.47-2.53-1.72-3.29a.41.41 0 0 1 .03-.78q1.53-.43 2.69.14a1.6 1.54-6.3 0 1 .39.3z" class="C"/><g class="B"><ellipse cx="0" cy="0" transform="matrix(-.54024 -.841511 .841511 -.54024 203.93 272.21)" rx="1.11" ry=".9"/><circle cx="249.29" cy="272.54" r="1"/></g><ellipse cx="0" cy="0" transform="matrix(.26892 -.963163 .963163 .26892 275.68 275.98)" rx=".97" ry=".8" class="D"/><g class="C"><path d="M360.82 280.75l-5.33-1.23q-.6-.83-.21-1.47.4-.65 1.14-.47 4.2 1.01 4.4 3.17z"/><rect x="-2.68" y="-.84" transform="matrix(.998135 -.061049 .061049 .998135 417.78 279.25)" width="5.36" height="1.68" rx=".73"/></g><circle cx="112.17" cy="279.43" r="1.04" class="B"/><path d="M470.15 279.34q.24 1.36 2.69 1.34a2.24 2.19 55.7 0 1 .85.17q1.93.78 2.92 1.54 16.66 12.83 25.06 32.21 1.22 2.82 4.83 12.75a4.24 4.21-58.8 0 1 .24.99q.46 3.44 1.53 6.52a.16.07 50.3 0 1 .02.07l1.86 8.92q-.11.52.57 1.22-.41 3.97-.05 7.94c.73 7.88.89 15.68-.05 23.04q-.37 2.96-.13 3.87a1.56 1.48-46.6 0 1 0 .73c-1.06 4.09-1.13 8.6-1.89 12.84q-1.85 10.38-2.76 12.62-3.19 7.79-9.45 12.77-.56.44-8.66 6.08-3.74 2.6-9.13 5.28-12.11 6.01-13.94 6.67-3.58 1.28-13.46 3.53-4.94 1.12-10.97 1.01-8.88-.17-11-.35-1.27-.12-8.56-1.88c-9.47-2.28-17.79-7.23-25.3-13.86-2.94-2.61-6.1-6.63-6.61-10.75q-.66-5.31.09-9.86 7.92-48.58 36.62-86.84 7.66-10.21 20.2-22.31c1.25-1.22 4.43-3.26 4.74-3.95q.34-.78 3.36-3.01 5.6-4.15 11.76-9.05 1.14-.9 4.62-.25zm-2.47 10.85q-1.63-.35-2.1 1.1a.22.21 37.5 0 1-.38.05q-.1-.15-.11-.15a.44.43 23.6 0 0-.6.23c-.46 1.17-.75 1.81-2.23 2.46q-1.82.8-2.44 3.15-.07.27.42.4a.5.5 0 0 1 .38.56q-.94 6.12-1.28 7.82-.12.61-.13 4.74a.87.86-78.9 0 0 .53.8l2.61 1.11a2.58 2.56-12.8 0 1 .69.43q.03.05.05.08a1.06 1.05 70.9 0 0 .94.46l11.8-.75a.79.79 0 0 0 .73-.65l3-16.63a1.69 1.69 0 0 0-1.36-1.96l-3.4-.61a.83.82 3.3 0 1-.67-.74q-.11-1.17-.44-1.56a1.52 1.49 73.6 0 0-.86-.48l-3.85-.63a.76.74 33.1 0 0-.5.1q-.1.1-.18.31a.54.53-74.9 0 1-.62.36zm-10.53 45.36q-.1-.02-.18-.12-.16-.21-.18-.46-.32-3.42-2.16-6.19a.88.88 0 0 0-1.61.47q-.01 1.12.51 2.21c.82 1.73.75 3.48.88 5.63q.03.55.58.99a.9.89 19.4 0 1 .34.7v9.35a2.97 2.93 27.2 0 0 .57 1.74l1.52 2.13a.56.56 0 0 0 1.01-.3q.11-2.56.19-5.14.06-1.77-.56-5.08-.43-2.27-.64-5.61a.36.35-85.6 0 0-.27-.32zm-39.83 65.92q-1.35.01-1.39-1.79a1.34 1.34 0 0 0-.81-1.2c-.95-.42-1.76-2.15-3-2.73q-3-1.42-5.21-2.2a1.67 1.64-38.9 0 0-.74-.07l-4.16.57a.83.78-62.5 0 0-.32.11l-1.02.58a.74.74 0 0 0 .37 1.39h2.17a.45.45 0 0 1 .32.77c-2.39 2.37-4.07 4.63-5.45 7.43q.1-.07.04-.24-.08-.22-.05-.27.42-.71.73-1.66c.49-1.49-1.05-2.78-2.24-3.05a1.05 1.05 0 0 0-.97.27q-1.64 1.6-2.32 3.34a.54.53-60.9 0 1-.82.24l-.59-.45a.29.28 60.4 0 0-.2-.06q-.98.03-1.09 1.32a.56.55 1.8 0 0 .57.6q.61-.02.87.16a.86.85 29.5 0 1 .29 1.02q-.68 1.7-1.14 3.89-.4 1.93 1.02 6.03a1.8 1.79 4.6 0 0 .84.98q.79.42 1.59 1.6a1.52 1.32 36.3 0 0 2.62-.21q.15-.78-.52-2.81a.13.13 0 0 1 .1-.17q.13-.03.26-.01a.23.22 4.5 0 1 .19.22q0 2.65 1.28 4.6 1.19 1.81 3.26 2.12c5.79.85 9.57-2.47 12.37-7.06a.83.82 19.6 0 1 .81-.38q1.73.26 4.4 1 1.23.35 1.94-.47.1-.13.06-.76.01 0 .02 0a.01.01 0 0 1 .01.02l-.19 1.47a.69.69 0 0 0 .47.75q2.29.76 3.07-1.17 1.25-3.06-1.33-3.74a1.9 1.8 75.3 0 1-.92-.57q-.85-.99-2.68-1.34c-1.73-.33-3.09-1.77-2.96-3.29q.21-2.42.45-4.78l3.78 6.94a.23.23 0 0 0 .41-.2l-2.94-7.05q-.03-.09-.06-.18-.84-3.75-1.76-7.49c-1.02-4.21-.62-10.43-.59-13.5a2.99 2.7-42 0 1 .06-.58q.58-3.13.16-4.62a.33.21 58.3 0 1 0-.11l2.73-12.06a2.59 2.29 68.1 0 1 .22-.62c1.18-2.35 1.73-5.04 2.8-7.43q4.43-9.9 11.28-18.9a.2.2 0 0 0-.04-.28l-.22-.16a.29.29 0 0 0-.4.04q-5.01 5.88-7.72 10.75-4.36 7.86-7.42 18.01-2.49 8.26-2.55 12.69-.07 6.44-.14 12.78-.04 2.96 2.4 11.97zm23.25-7.82c.79-.75 1.43-1.25 1.55-1.76q.03-.14-.04-.26a.42.42 0 0 0-.63-.1q-.32.27-.45.3a.2.19-75.9 0 1-.19-.32q5.31-5.97 6.76-8.22 4.86-7.58 8.18-18.06 1.12-3.55-.83-6.21a.51.51 0 0 0-.91.19q-1.51 6.83-4.5 13.32-.02.06-3.56 6.57-2.01 3.69-3.98 6.21-7.16 9.13-15.24 14.2a.69.68-21.5 0 0-.31.7q.08.51.76.89a.37.36-54.5 0 1 .09.56q-.11.13-.12.14a1.05 1.04-39.6 0 0-.1 1.01q2.18 5.23 6.12 8.07c6.1 4.41 14.29 6.07 21.73 4.09 5.15-1.36 11.48-4.21 15.07-8.06a.31.31 0 0 0-.11-.5l-29.19-12.17a.36.35 35.6 0 1-.1-.59zm-32.244-3.009a1.14.91-57.3 0 0-1.382.468 1.14.91-57.3 0 0 .15 1.451 1.14.91-57.3 0 0 1.382-.468 1.14.91-57.3 0 0-.15-1.451zm-12.271 30.411a1.06.86-101.7 0 0-.627 1.212 1.06.86-101.7 0 0 1.057.864 1.06.86-101.7 0 0 .627-1.212 1.06.86-101.7 0 0-1.057-.864z" class="D"/><path d="M424.13 303.51l5.83 2.22a.98.98 0 0 1 .39 1.56q-1.17 1.35-2.48 2.63-.16.15-1.2 1.68-.49.71-2.63 2.28a1.46 1.27-5.6 0 0-.33.35l-10.21 14.95q-1.44.22-2.35 1.77a1.48 1.47 24.3 0 1-1.73.65l-3.28-1.11a.99.98 26.1 0 1-.51-1.48c1.93-2.86 3.65-3.91 5.88-6.29a2.69 2.58-79.9 0 1 .78-.57q1.74-.82 2.52-2.72a.63.62-86.9 0 0-.75-.84q-3.66 1.08-6.24 3.27-16.41 13.99-20.16 34.56-.78 4.33-.97 5.84-.59 4.86-.06 8.81a.49.48 77.1 0 0 .63.4l.77-.24a.64.64 0 0 1 .83.65q-.29 4.7 1.86 8.13l-1.55 5.08-107.87-79.16.24-1.4q.58-.4.99-.09 5.01 3.64 19.76 14.51 43.23 31.83 71.38 52.41a.41.41 0 0 0 .65-.41q-.33-1.81-.24-3.46.99-18.4 9.82-34.37 4.32-7.79 12.02-15.48a.33.32-60.2 0 0-.14-.54q-40.84-10.91-78.16-25.2a.51.51 0 0 1-.17-.84q6.46-6.52 13.65-10.45a2.72 2.62-83 0 0 .69-.56q1.01-1.15 2.01-.88 8.31 2.2 13.09 3.19c1.08.23 2.37 1.02 3.64 1.37q2.35.65 3.78 2.07c.84.83 2.68.82 2.91 1.18a.23.23 0 0 0 .42-.1q.11-1.08 2.11-.63 6.32 1.39 11.3 3.03a1.96 1.34-81.5 0 1 .91 1.88q-.01.06-.43.07a.13.13 0 0 0-.03.25l34.48 11.12a1.29 1.25 52.4 0 0 .47.07q7.43-.3 12.37-.27 1.17.01 2.77-.51 1.1-.36 2.54 1.62zm-33.14 24.75q-13.98 18.29-13.61 42.96a5.7 5.7 0 0 0 2.28 4.48l4.17 3.14a1.09 1.09 0 0 0 1.74-1.01q-1.14-9.21.65-18.74 2.77-14.74 11.04-27.21a.35.35 0 0 0-.11-.49l-5.61-3.24a.43.43 0 0 0-.55.11z" class="B"/><path d="M510.15 343.85l-1.86-8.92a.16.07 50.3 0 0-.02-.07q-1.07-3.08-1.53-6.52a4.24 4.21-58.8 0 0-.24-.99q-3.61-9.93-4.83-12.75-8.4-19.38-25.06-32.21-.99-.76-2.92-1.54a2.24 2.19 55.7 0 0-.85-.17q-2.45.02-2.69-1.34 4.44.6 8.98 4.28 15.37 12.44 23.41 31.09 6.23 14.43 7.61 29.14z" class="C"/><circle cx="256.52" cy="282.57" r="1.05" class="B"/><g class="D"><path d="M197.33 282.29a.34.34 0 0 1-.19.56q-.97.19-1.07-.41a.55.49 5.4 0 1 .71-.52q.3.09.55.37z"/><ellipse cx="0" cy="0" transform="matrix(.241922 -.970296 .970296 .241922 260.59 283.99)" rx="1.24" ry="1.05"/><path d="M135.33 283.25l3.42 1.15a2.08 2.08 0 0 1 1.38 2.34l-2.61 14.42a2.08 2.08 0 0 1-2.71 1.6l-3.41-1.15a2.08 2.08 0 0 1-1.38-2.34l2.6-14.42a2.08 2.08 0 0 1 2.71-1.6zm66.95.36a.65.61 3.8 0 1-.89.73q-.34-.15-.26-.62a.61.5 17.6 0 1 .81-.32q.31.12.34.21z"/></g><circle cx="274.59" cy="285.38" r=".89" class="C"/><path d="M271.99 284.68q.69-.14.93.38a1.12 1.11 76.2 0 1-.96 1.59q-.66.02-.93-.93.3-.79.96-1.04z" class="B"/><path d="M415.07 289.77a.2.2 0 0 1 .08.27l-.35.61a3.22.76-59.9 0 1-2.28 2.4l-.17-.1a3.22.76-59.9 0 1 .96-3.16l.35-.61a.2.2 0 0 1 .27-.07l1.14.66zm53.23.06q.08-.21.18-.31a.76.74 33.1 0 1 .5-.1l3.85.63a1.52 1.49 73.6 0 1 .86.48q.33.39.44 1.56a.83.82 3.3 0 0 .67.74l3.4.61a1.69 1.69 0 0 1 1.36 1.96l-3 16.63a.79.79 0 0 1-.73.65l-11.8.75a1.06 1.05 70.9 0 1-.94-.46q-.02-.03-.05-.08a2.58 2.56-12.8 0 0-.69-.43l-2.61-1.11a.87.86-78.9 0 1-.53-.8q.01-4.13.13-4.74.34-1.7 1.28-7.82a.5.5 0 0 0-.38-.56q-.49-.13-.42-.4.62-2.35 2.44-3.15c1.48-.65 1.77-1.29 2.23-2.46a.44.43 23.6 0 1 .6-.23q.01 0 .11.15a.22.21 37.5 0 0 .38-.05q.47-1.45 2.1-1.1a.54.53-74.9 0 0 .62-.36z" class="C"/><g class="D"><ellipse cx="0" cy="0" transform="matrix(.263873 -.964557 .964557 .263873 110.12 290.98)" rx="1.17" ry=".97"/><path d="M195.01 294.2q0 .56-.42.56c-.7-.01-.59-.8-.17-1.09a.52.37 77.6 0 1 .59.53zm4.58 2.11q-.39-.13-.39-.72 0-.43.38-.38.25.04.48.39a.47.43 81 0 1-.47.71z"/></g><path d="M271.43 301.45q-.81.91-.67 3.28.04.78-.45 1.05a.87.83 85.2 0 1-1.18-1.05q1.24-4.02 1.03-6.33a1.07 1.06 69.8 0 1 .43-.95l2.53-1.87a.2.2 0 0 1 .29.05l.15.21a.41.41 0 0 1-.14.56q-2.25 1.28-1.74 4.12a1.11 1.09 60.6 0 1-.25.93z" class="C"/><g class="D"><path d="M160.39 297.01q.08.23.75.63.03.01.86.1c.9.09 1.69.18 1.9 1.14q.54 2.48-.96 4.87a1.08 1.06-74.3 0 1-.89.51c-4.75.09-6.85-3.3-3.54-7.43a1.13 1.03-36.8 0 1 1.88.18z"/><ellipse cx="0" cy="0" transform="matrix(-.934204 -.356738 .356738 -.934204 174.51 301.1)" rx="1.83" ry=".63"/></g><path d="M281.54 304.53l-.24 1.4q-1.18 2.6-2.61 2.39a.54.54 0 0 1-.22-.09l-4.19-2.92a2.06 2.03-84.5 0 1-.7-.86l-1.15-2.63a.88.88 0 0 1 .94-1.22c1.41.21 1.85 1.42 2.78 1.96q1.34.78 2.48 1.54a1.05 1.04-40.2 0 0 1.01.08q1.31-.62 1.9.35z" class="C"/><ellipse cx="0" cy="0" transform="matrix(.833886 -.551937 .551937 .833886 107.95 302.83)" rx="1.19" ry="1.03" class="B"/><g class="D"><ellipse cx="0" cy="0" transform="matrix(-.960294 -.278991 .278991 -.960294 181.12 303.39)" rx="1.88" ry=".62"/><ellipse cx="0" cy="0" transform="matrix(-.940288 -.34038 .34038 -.940288 173.76 304.81)" rx="1.98" ry=".66"/></g><ellipse cx="0" cy="0" transform="matrix(-.579281 -.815128 .815128 -.579281 192.43 305.91)" rx="1.1" ry=".79" class="B"/><path d="M182.38 307.58q-.24.76-3.78-.8a.16.15 8.7 0 1-.08-.1q-.03-.15.01-.29.05-.14.15-.24a.16.15 25.7 0 1 .13-.04q3.8.72 3.57 1.47z" class="D"/><ellipse cx="0" cy="0" transform="matrix(.999903 .013962 -.013962 .999903 197.62 307.51)" rx="1" ry=".84" class="B"/><ellipse cx="0" cy="0" transform="matrix(-.961741 -.273959 .273959 -.961741 173.38 308.46)" rx="1.92" ry=".69" class="D"/><path d="M268.04 310.25q0-.03.15-.74a.9.9 0 0 1 1.48-.49q.6.54-.36 1.7a.72.72 0 0 1-1.27-.47z" class="C"/><g class="D"><ellipse cx="0" cy="0" transform="matrix(-.938493 -.345298 .345298 -.938493 179.97 310.57)" rx="1.94" ry=".73"/><ellipse cx="0" cy="0" transform="matrix(-.430511 -.902585 .902585 -.430511 255.25 314.27)" rx="1.34" ry="1.06"/></g><g class="B"><ellipse cx="0" cy="0" transform="matrix(.315649 -.948876 .948876 .315649 190.37 317.7)" rx="1.05" ry=".92"/><circle cx="105.02" cy="319.3" r=".99"/><circle cx="195.56" cy="319.24" r="1.07"/></g><path d="M413.5 329.18q-15.1 23.66-22.78 50.83-2.15-3.43-1.86-8.13a.64.64 0 0 0-.83-.65l-.77.24a.49.48 77.1 0 1-.63-.4q-.53-3.95.06-8.81.19-1.51.97-5.84 3.75-20.57 20.16-34.56 2.58-2.19 6.24-3.27a.63.62-86.9 0 1 .75.84q-.78 1.9-2.52 2.72a2.69 2.58-79.9 0 0-.78.57c-2.23 2.38-3.95 3.43-5.88 6.29a.99.98 26.1 0 0 .51 1.48l3.28 1.11a1.48 1.47 24.3 0 0 1.73-.65q.91-1.55 2.35-1.77z" class="D"/><ellipse cx="0" cy="0" transform="matrix(.073238 -.997314 .997314 .073238 266.72 321.62)" rx=".87" ry=".72" class="C"/><path d="M198.55 328.17q6.37.16 11.22 1.01 3.5.61 6.57-.31c2.54.8 5.75 1.52 7.78 2.8 6.42 4.05 9.87 11.94 9.01 19.5q-.78 6.76-6.68 11.73a1.93 1.93 0 0 1-2.07.27q-1.51-.71-3.86-.7.48-1.07 1.61-1.28 1.01-.18 4.75-.65a1.75 1.73 15.1 0 0 1.16-.66q5.55-7.14 2.61-16.11a.8.79 83.8 0 0-.68-.55q-18.09-2.06-33.27-6.05a1.2 1.15-6.4 0 1-.73-.56c-.96-1.7-.78-3.44-1.89-5.28q-1.29-2.15-2.98-4.12 1.41-2.35 1.44-5.3a.79.78 7.3 0 1 .98-.75l.4.12a.89.88-75.5 0 1 .61 1.05l-1.01 4.47a.58.58 0 0 0 .48.7l4.55.67zm-103.63-5.01l4.91-1.24a.67.67 0 0 1 .84.63q.06 2.27-1.05 5.77a1.37 1.36-49.4 0 0 .07.97q.62 1.29.63 3.44a.61.61 0 0 1-.56.61q-1.83.17-2.51-.61a1.11 1.1-64.5 0 1-.26-.74q.1-4.26 2.23-6.54a.46.46 0 0 0-.25-.77l-4.02-.72a.41.41 0 0 1-.03-.8z" class="B"/><path d="M216.34 328.87q-3.07.92-6.57.31-4.85-.85-11.22-1.01c1.81-.76 1.77-2.71 2.02-4.31a.34.34 0 0 1 .4-.29l.31.07a.45.45 0 0 1 .34.54l-.26 1.14a.5.5 0 0 0 .38.6l.33.08a.55.55 0 0 0 .66-.42l.17-.73a.66.65 16.1 0 1 .86-.47l12.58 4.49z" class="D"/><circle cx="103.7" cy="326.35" r="1.01" class="B"/><rect x="-1.72" y="-7.06" transform="matrix(.982287 .187381 -.187381 .982287 283.61 332.25)" width="3.44" height="14.12" rx="1.3" class="C"/><path d="M191.1 327.21q1.69 1.97 2.98 4.12c1.11 1.84.93 3.58 1.89 5.28a1.2 1.15-6.4 0 0 .73.56q15.18 3.99 33.27 6.05a.8.79 83.8 0 1 .68.55q2.94 8.97-2.61 16.11a1.75 1.73 15.1 0 1-1.16.66q-3.74.47-4.75.65-1.13.21-1.61 1.28-.78.25-.82 1.28a1.07 1.06 3.8 0 1-1.17 1.02c-5.6-.54-11.75-3.9-18.33-4.35q-2.84-.2-5.11-.7a4.79 4.33 47.9 0 0-1.08-.11q-4.04.04-7.72-.95a1.59 1.58-15 0 1-.71-.41q-3.56-3.6-4.21-6.62-2.31-10.58 1.86-19.86 2.42-5.37 7.87-4.56z" class="D"/><g class="C"><ellipse cx="0" cy="0" transform="matrix(.045363 -.998971 .998971 .045363 280 328.45)" rx="1.14" ry=".6"/><path d="M276.59 328.56l-.95 1.65a.14.13-32.6 0 1-.25-.05q-.12-1.29.54-2.07a.41.41 0 0 1 .66.47z"/></g><path d="M390.99 328.26a.43.43 0 0 1 .55-.11l5.61 3.24a.35.35 0 0 1 .11.49q-8.27 12.47-11.04 27.21-1.79 9.53-.65 18.74a1.09 1.09 0 0 1-1.74 1.01l-4.17-3.14a5.7 5.7 0 0 1-2.28-4.48q-.37-24.67 13.61-42.96z" class="D"/><path d="M457.42 335.87q.21 3.34.64 5.61.62 3.31.56 5.08-.08 2.58-.19 5.14a.56.56 0 0 1-1.01.3l-1.52-2.13a2.97 2.93 27.2 0 1-.57-1.74v-9.35a.9.89 19.4 0 0-.34-.7q-.55-.44-.58-.99c-.13-2.15-.06-3.9-.88-5.63q-.52-1.09-.51-2.21a.88.88 0 0 1 1.61-.47q1.84 2.77 2.16 6.19.02.25.18.46.08.1.18.12a.36.35-85.6 0 1 .27.32z" class="C"/><ellipse cx="0" cy="0" transform="matrix(.219846 -.975535 .975535 .219846 264.71 333.42)" rx=".93" ry=".71" class="B"/><g class="C"><path d="M417.32 401.47q-2.44-9.01-2.4-11.97.07-6.34.14-12.78.06-4.43 2.55-12.69 3.06-10.15 7.42-18.01 2.71-4.87 7.72-10.75a.29.29 0 0 1 .4-.04l.22.16a.2.2 0 0 1 .04.28q-6.85 9-11.28 18.9c-1.07 2.39-1.62 5.08-2.8 7.43a2.59 2.29 68.1 0 0-.22.62l-2.73 12.06a.33.21 58.3 0 0 0 .11q.42 1.49-.16 4.62a2.99 2.7-42 0 0-.06.58c-.03 3.07-.43 9.29.59 13.5q.92 3.74 1.76 7.49.03.09.06.18l2.94 7.05a.23.23 0 0 1-.41.2l-3.78-6.94zm94.16-65.37q-.14-.08-.13-.28a.121.111 48.7 0 1 .23.02q0 .07-.07.24a.03.02-68.9 0 1-.03.02z"/><path d="M511.61 336.42q.03.06.01.41a.18.11 61 0 1-.26-.14q0-.07.12-.27a.08.07-43.8 0 1 .13 0z"/></g><g class="B"><circle cx="111.53" cy="343.46" r="1.15"/><circle cx="116.78" cy="345.29" r="1.03"/></g><circle cx="262.58" cy="345.23" r=".83" class="C"/><g class="B"><ellipse cx="0" cy="0" transform="matrix(.064532 -.997916 .997916 .064532 122.41 347.07)" rx="1.3" ry="1.01"/><circle cx="248.74" cy="349.37" r="1.13"/><path d="M110.83 358.39q.07.35.2.53.27.38.47.08.19-.27.3-.47a.29.28 51.1 0 1 .52.06l.16.5a.22.21-4.3 0 0 .17.14q.59.1 1.23-.37a1.18 1.17-45.9 0 1 1.35-.03q2.29 1.53 3.83 4.23a.72.7 39.8 0 1 .06.58l-1.18 3.49a.7.7 0 0 0 .44.88l.4.14a.91.9 29.1 0 0 .97-.27l1.17-1.38a1.71 1.71 0 0 1 2.63.02q3.11 3.77 5.01 5.25c3.5 2.73 5.91 5.6 9.69 7.94q1.9 1.17 2.36 3.38a.43.42-15.6 0 0 .56.31c1.63-.59 5.07.1 4.14 2.58q-.44 1.32-1.43 1.24a.63.58 72.5 0 1-.44-.25l-1.52-2.06a.59.59 0 0 0-1.05.25q-.27 1.61-1.45 2.31a.67.67 0 0 0-.3.77q.25.89-.48 1.48-.71.57-1.1 1.2-2.98 4.71-5.22 8.59a2.55 2.54 33.5 0 0 .68 3.31l3.74 2.82a1.91 1.91 0 0 0 2.81-.6q2.64-4.75 4.36-7.15.27-.37.47-.99.2-.66.89-.79a.26.26 0 0 0 .07-.48q-1.01-.54-.32-1.89a.97.97 0 0 0-.12-1.06q-1.71-2.06-4.63-2.75a.4.4 0 0 1-.2-.65q.8-.89 2-.3 2.74 1.34 4.96 4.3a.48.47 56.9 0 0 .61.13l.02-.01a.57.52 65 0 0 .21-.67l-.83-2.2q-.02-1.9 1.17-2.63 1.01-.62 3.09 1.3.79.72.01 1.84l-2.02 4.24a.9.89-55.5 0 0 .18 1.02q1.54 1.56 3.01 2.08a1.31 1.19 13.4 0 0 1.72-.95c.22-1.95-1.03-2.31-2.69-3.42a.83.83 0 0 1-.32-.96q.15-.45.66-.98 1.76.27 3.32 2.27a1.65 1.64 79.2 0 0 .85.58q6.16 1.84 11.44 4.97a1.22 1.21-80.2 0 1 .58.83q.07.37-.19 1.06a.4.4 0 0 0 .4.55c.8-.06 4.41 2.15 6.13 2.72q17.24 5.74 65.17 21.31.45.15.99.08.58.04.86-.27 1.59 1.16 2.69.44a.93.93 0 0 1 .69-.12q7.23 1.48 12.82 5.78a5.65 5.53-16.9 0 0 1.75.91q9.11 2.89 18.03 5.99 1.27.44 3.36.28a1.4 1.35 52.2 0 1 .49.07l19.05 6.53a.8.8 0 0 0 1.06-.83q-.19-2.12.91-1.67 1.37 1.67 3.57 2.71-.08.28-.02.53-1.45-.17-2.69-.9a.91.91 0 0 0-.89-.02q-.49.27-.93.77-.51-.12-.8.07l-20.23-6.61a.87.87 0 0 0-1.12 1.02q2.86 12.45 6.62 26.91.62 2.38 1.26 4.31.86 2.56 1.18 5.97a1.98 1.57 38.5 0 0 .06.26l2.9 9.52a.99.98 63.7 0 1-.36 1.08l-36.71 27.11a3.3 2.9-71.9 0 1-.59.35c-3.89 1.74-7.3 5.19-10.49 7.42q-22.27 15.59-39.07 28.03a1.86 1.73-66.3 0 1-.79.34c-4.14.7-5.01-2.91-5.8-6.02q-7.16-28.23-8.54-33.29c-2.5-9.19-4.01-16.2-6.13-24.45q-3.48-13.53-19.71-77.62-.51-2.03-1.95-3.58a.71.71 0 0 0-1.15.16q-2.4 4.69-6.44 11.29-10.39 16.95-25.79 43.19c-2.93 5.01-6.27 9.71-8.87 14.43-4.55 8.27-10.62 17.45-15.28 25.74q-2.8 4.98-6.23 10.47-.09.16-14.41 24.13-.41.68-.79 1.36-5.99 10.63-12.81 20.77h-1.14q-1.97-1.34-3.77-2.85-30.09-25.26-59.88-50.88-2.03-1.75-2.59-2.46l89.56-149.38a1.9 1.9 0 0 0-.32-2.35l-.06-.05a1.39 1.39 0 0 0-2.1.36L75.7 373.94a.28.1-70.7 0 1-.04.05q-1.3 1.47-2.15 3.02c-5.15 9.36-12.17 20.66-18.35 31.17q-4.28 7.28-5.84 9.83-8.42 13.74-12.13 20.11-6.06 10.4-12 20.19Q7.56 487.39.87 498.83q-1.07 1.83.23 3.43l-.45.78a.28.28 0 0 1-.48 0l-.17-.29v-4.87q2.08-2.18 3.63-4.79 10.07-16.94 20.22-33.77 6.49-10.78 13.07-21.74 17.75-29.56 35.39-59.54 3.24-5.51 6.34-10.82 4.99-8.55 10.65-17.34a.76.76 0 0 1 .96-.28c5.29 2.47 9.25 6.37 15.35 11.29 2.45 1.97 4.69.64 5.22-2.5zm2.42 1.61v.53a.62.62 0 0 1-.77.6q-1.05-.27-1.19-.07a1.66 1.51-.2 0 0 2.3 2.08q.5-.29 1.46-1.47a.82.82 0 0 0 .09-.92q-.31-.58-1.25-1.12a.43.42-74.8 0 0-.64.37zm3.37 10.29l-6.54-5.55a.14.14 0 0 0-.22.04l-3.4 6.5a5.69 5.55 78 0 1-.48.76l-2.71 3.71a1.17 1.17 0 0 0 .19 1.59l4.61 3.91a1.25 1.25 0 0 0 1.93-.39q3.28-6.46 6.65-10a.39.39 0 0 0-.03-.57zm85.29 181.27q-.57-.82-.35-1.05a.79.77 61.2 0 0 .21-.75l-36.12-142.4a.65.64 75.6 0 0-.78-.47l-1.38.35a.71.71 0 0 0-.5.91q1.5 4.47 2.73 9.84.97 4.21 2.47 9.83 2.32 8.69 2.46 9.95.13 1.26 1.38 5.69 2.53 8.99 5.84 22.71c.36 1.47 1.18 2.6.99 4.04a1.55 1.54-48.8 0 0 .04.65q1.59 5.64 4.43 16.78.59 2.34 1.16 3.54a3.19 3.19 0 0 1 .31 1.18q.25 3.25 1.94 7.6a2.15 2.14 40.1 0 1 .11 1.23q-.36 1.84.67 3.11a.62.54 22.5 0 1 .12.24l5.18 19.22a1.46 1.32-48.8 0 1 .01.68c-.32 1.35.91 2.96 1.08 4.57.24 2.43 1.63 5.48 1.99 7.71q.15.89 2.94 11.93.57 2.28 2.8 3.24a.22.22 0 0 0 .27-.33zm73.46-59.51l.44-2.45a.97.96 5 0 1 .95-.79h2.27a.25.24 80.9 0 0 .22-.32l-.77-2.46a.34.34 0 0 0-.49-.19l-3.16 1.83a1.15 1.15 0 0 0-.53 1.35l.96 3.04a.06.06 0 0 0 .11-.01zM16 497.63l-2.18 4.06q1.07 1.66 3.02 2.71a.69.69 0 0 0 .87-.2l2.08-2.77a1.58 1.58 0 0 0 .01-1.9l-1.78-2.41a.68.67-17.4 0 0-.55-.28q-.77 0-1.47.79zm231.33 14.94q.02-.3.03-.31a.53.52-80.5 0 1 .58-.42q2.92.35 3.59 2.71a.2.2 0 0 0 .38-.01q.11-.49-.09-1.25a.38.37-6.2 0 1 .38-.47q.63.03.86-.44a.61.61 0 0 0-.1-.69q-.58-.59-2.14-1.01a.61.6-60.1 0 1-.27-1.01q.96-.98 1.93-1.28a.95.94-15.9 0 0 .64-1.13l-1.74-6.86a.52.51 64.8 0 0-.8-.29l-3.06 2.21a1.33 1.31 65.4 0 0-.51 1.4l1.08 4.26a1.02 1.02 0 0 1-1.19 1.25q-1.75-.35-3.16.2a.1.1 0 0 0 .04.2q.37-.03.45.02a.29.29 0 0 1-.11.54q-.91.09-1.37.74a.5.5 0 0 0 .25.76l.24.08a.5.5 0 0 1 .13.88q-1.39 1-3.81 1.15a.27.27 0 0 0-.05.53q1.68.45 2.89.28a.24.24 0 0 1 .27.27q-.03.14-.2.39a.47.21-24 0 0 .72 0q1.96-1.72 2.31-1.92a1.71 1.7 34.2 0 1 1.07-.2l1.4.19a.28.28 0 0 0 .17-.53q-.1-.07-.52.02a.25.24 86.4 0 1-.29-.26zm-212.54 2l1.39 1.76a.83.83 0 0 0 1.43-.23q.59-1.6 2.81-1.83 2.43 3.5 5.27 4.36a1.56 1.55-54.2 0 1 .44 2.76q-1.43 1.01-.68 2.33 1.32.49 1.81 1.56.25.46.68.34.43-.11.67-.58c.29-.69.88-.97 1.63-.77 2.9.76 3.11-2.77 2.05-4.58q-1.78-2.11-4.57-2.38c-1.88-.17-2.53-1.6-3.62-2.36q-1.51-1.05-3.07-1.97-.74-.71-.4-1.83a1.08 1.06-53.1 0 0-.12-.88q-.6-1.01-1.79-1.68-.27-.67-.89-.6a.65.64 12.5 0 0-.45.28l-3.44 5.14a.6.6 0 0 0 .24.88l.61.28zm178.97 22.94q.46.01.76-.49l.45-.45a.88.88 0 0 0 .11-1.09q-.67-1.06-.92-2.53a.97.97 0 0 0-1.53-.62l-3.05 2.26a1 .96 72.7 0 0-.4.8q.02 2.38 1.23 4.17a.63.63 0 0 0 .83.2q1.39-.77 2.52-2.25zm-147.62 7.16a.42.38 86.2 0 0-.47.59q.17.32.46.37a.41.37-5.8 0 0 .45-.5q-.13-.32-.44-.46z"/></g><path d="M1.87 502.81l-.77-.55q-1.3-1.6-.23-3.43 6.69-11.44 24.32-40.52 5.94-9.79 12-20.19 3.71-6.37 12.13-20.11 1.56-2.55 5.84-9.83l18.35-31.17q.85-1.55 2.15-3.02a.28.1-70.7 0 0 .04-.05l13.25-22.55a1.39 1.39 0 0 1 2.1-.36l.06.05a1.9 1.9 0 0 1 .32 2.35L1.87 502.81z" class="D"/><circle cx="144.23" cy="354.46" r="1.12" class="B"/><path d="M177.4 368.37h-1.43a.5.5 0 0 1-.49-.58l1.97-10.86a1.37 1.36-84.9 0 1 1.34-1.13h.36a.6.6 0 0 1 .59.71l-2.06 11.44a.61.6 13.9 0 0 .42.69l12.81 4.1a2.53 2.41-16.1 0 1 .73.38l2.01 1.49a.47.46-24.9 0 1-.31.83c-1.7-.1-2.53-1.88-4.33.01a1.05 1.03 23.1 0 1-.85.33q-1.03-.07-2.27-.86a.81.8 31.4 0 0-1.14.27l-1.09 1.88a.62.62 0 0 1-.94.17l-6.14-5.21a.88.87-49.9 0 1-.1-1.23l1.33-1.56a.53.53 0 0 0-.41-.87z" class="D"/><g class="B"><ellipse cx="0" cy="0" transform="matrix(.361625 -.932324 .932324 .361625 260.47 357.04)" rx=".84" ry=".65"/><path d="M440.67 394.24l29.19 12.17a.31.31 0 0 1 .11.5c-3.59 3.85-9.92 6.7-15.07 8.06-7.44 1.98-15.63.32-21.73-4.09q-3.94-2.84-6.12-8.07a1.05 1.04-39.6 0 1 .1-1.01q.01-.01.12-.14a.37.36-54.5 0 0-.09-.56q-.68-.38-.76-.89a.69.68-21.5 0 1 .31-.7q8.08-5.07 15.24-14.2 1.97-2.52 3.98-6.21 3.54-6.51 3.56-6.57 2.99-6.49 4.5-13.32a.51.51 0 0 1 .91-.19q1.95 2.66.83 6.21-3.32 10.48-8.18 18.06-1.45 2.25-6.76 8.22a.2.19-75.9 0 0 .19.32q.13-.03.45-.3a.42.42 0 0 1 .63.1q.07.12.04.26c-.12.51-.76 1.01-1.55 1.76a.36.35 35.6 0 0 .1.59z"/></g><path d="M113.89 359.63q.94.54 1.25 1.12a.82.82 0 0 1-.09.92q-.96 1.18-1.46 1.47a1.66 1.51-.2 0 1-2.3-2.08q.14-.2 1.19.07a.62.62 0 0 0 .77-.6V360a.43.42-74.8 0 1 .64-.37z" class="D"/><g class="B"><circle cx="188.04" cy="361.34" r="1.04"/><ellipse cx="0" cy="0" transform="matrix(.996779 -.080199 .080199 .996779 166.12 361.62)" rx="1.11" ry=".96"/><circle cx="192.22" cy="362.58" r="1.12"/></g><path d="M116.65 370.86q-3.37 3.54-6.65 10a1.25 1.25 0 0 1-1.93.39l-4.61-3.91a1.17 1.17 0 0 1-.19-1.59l2.71-3.71a5.69 5.55 78 0 0 .48-.76l3.4-6.5a.14.14 0 0 1 .22-.04l6.54 5.55a.39.39 0 0 1 .03.57z" class="D"/><path d="M387.7 392.08l-1.62 9.1a.64.63-73.9 0 1-.86.48l-3.34-1.32-7.77-6.72a1.59 1.56-14.5 0 0-.52-.3l-45.27-15.49a2.07 1.72 50.2 0 0-.54-.1l-1.57-.06a1.14.92 51 0 1-.28-.06q-9.2-3.88-19.03-6.48-.93-.25-4.32.3a1.1 1.1 0 0 1-1.22-.75l-1.22-3.87a.47.47 0 0 1 .43-.61q3.44-.16 5.83.53 27.51 8 55.54 17.33 4.89 1.63 10.96 5.52 1.17.75 4.86.28a.3.3 0 0 0 .25-.39l-2.67-8.49a.91.9-80.4 0 1 1.4-1l1.87 1.41a4.6 4.58-81.2 0 1 1.6 2.2c.76 2.21 1.87 4.82 3.21 6.56q1.06 1.4 2.98.34a.75.74-27.2 0 1 1.04.33q.22.45.26 1.26z" class="B"/><ellipse cx="0" cy="0" transform="matrix(.364877 -.931056 .931056 .364877 258.33 368.62)" rx="1.09" ry=".76" class="C"/><g class="B"><ellipse cx="0" cy="0" transform="matrix(-.438371 -.898794 .898794 -.438371 196.6 371.8)" rx="1.15" ry=".97"/><circle cx="207.54" cy="375.36" r="1.05"/></g><ellipse cx="0" cy="0" transform="matrix(.883766 -.46793 .46793 .883766 307.47 375.26)" rx="1.11" ry=".87" class="C"/><g class="B"><circle cx="239.25" cy="378.07" r="1.07"/><ellipse cx="0" cy="0" transform="matrix(.335452 -.942057 .942057 .335452 218.5 378.99)" rx="1.22" ry=".99"/></g><path d="M333.94 381.36q-5.7 1.68-12.48 1.96a.53.53 0 0 1-.37-.93q3.02-2.55 6.9-3.79a.92.92 0 0 1 .56 0l5.41 1.82a.49.49 0 0 1-.02.94z" class="C"/><ellipse cx="0" cy="0" transform="matrix(.728969 -.684547 .684547 .728969 314.45 380.2)" rx="1.22" ry=".94" class="B"/><path d="M253.88 381.81q-.13-.3.14-.82.16-.32.59-.41.58-.11 1.37.23.47.2.95-.17.59-.46 1.01-.35.74.2.47 1-.15.45-.45.71-.4.34-.81-.14-.77-.9-2.43.2a.57.57 0 0 1-.84-.25z" class="C"/><circle cx="229.45" cy="382.62" r="1.12" class="B"/><path d="M145.31 385.98q1.36.6 1.32 1.77-.04.87.41 2.78l.83 2.2a.57.52 65 0 1-.21.67l-.02.01a.48.47 56.9 0 1-.61-.13q-2.22-2.96-4.96-4.3-1.2-.59-2 .3a.4.4 0 0 0 .2.65q2.92.69 4.63 2.75a.97.97 0 0 1 .12 1.06q-.69 1.35.32 1.89a.26.26 0 0 1-.07.48q-.69.13-.89.79-.2.62-.47.99-1.72 2.4-4.36 7.15a1.91 1.91 0 0 1-2.81.6l-3.74-2.82a2.55 2.54 33.5 0 1-.68-3.31q2.24-3.88 5.22-8.59.39-.63 1.1-1.2.73-.59.48-1.48a.67.67 0 0 1 .3-.77q1.18-.7 1.45-2.31a.59.59 0 0 1 1.05-.25l1.52 2.06a.63.58 72.5 0 0 .44.25q.99.08 1.43-1.24z" class="D"/><ellipse cx="0" cy="0" transform="matrix(.54024 -.841511 .841511 .54024 407.71 391.6)" rx="1.14" ry=".91" class="C"/><path d="M151.85 392.07q-.51.53-.66.98a.83.83 0 0 0 .32.96c1.66 1.11 2.91 1.47 2.69 3.42a1.31 1.19 13.4 0 1-1.72.95q-1.47-.52-3.01-2.08a.9.89-55.5 0 1-.18-1.02l2.02-4.24.34-.13a.31.31 0 0 1 .41.37l-.21.79z" class="D"/><path d="M417.32 401.47q-.24 2.36-.45 4.78c-.13 1.52 1.23 2.96 2.96 3.29q1.83.35 2.68 1.34a1.9 1.8 75.3 0 0 .92.57q2.58.68 1.33 3.74-.78 1.93-3.07 1.17a.69.69 0 0 1-.47-.75l.19-1.47a.011.011 0 0 0-.01-.02q-.01 0-.02 0 .04.63-.06.76-.71.82-1.94.47-2.67-.74-4.4-1a.83.82 19.6 0 0-.81.38c-2.8 4.59-6.58 7.91-12.37 7.06q-2.07-.31-3.26-2.12-1.28-1.95-1.28-4.6a.23.22 4.5 0 0-.19-.22q-.13-.02-.26.01a.13.13 0 0 0-.1.17q.67 2.03.52 2.81a1.52 1.32 36.3 0 1-2.62.21q-.8-1.18-1.59-1.6a1.8 1.79 4.6 0 1-.84-.98q-1.42-4.1-1.02-6.03.46-2.19 1.14-3.89a.86.85 29.5 0 0-.29-1.02q-.26-.18-.87-.16a.56.55 1.8 0 1-.57-.6q.11-1.29 1.09-1.32a.29.28 60.4 0 1 .2.06l.59.45a.54.53-60.9 0 0 .82-.24q.68-1.74 2.32-3.34a1.05 1.05 0 0 1 .97-.27c1.19.27 2.73 1.56 2.24 3.05q-.31.95-.73 1.66-.03.05.05.27.06.17-.04.24c1.38-2.8 3.06-5.06 5.45-7.43a.45.45 0 0 0-.32-.77h-2.17a.74.74 0 0 1-.37-1.39l1.02-.58a.83.78-62.5 0 1 .32-.11l4.16-.57a1.67 1.64-38.9 0 1 .74.07q2.21.78 5.21 2.2c1.24.58 2.05 2.31 3 2.73a1.34 1.34 0 0 1 .81 1.2q.04 1.8 1.39 1.79zm-78.09-.1l-1.09-4.31a2.33 2.32 64.6 0 1 .87-2.45l.25-.18a1.02 1.01 66.3 0 1 1.6.63l1.41 7.31a.81.81 0 0 1-.32.8l-4.82 3.57a.9.89-25.1 0 1-1.4-.5l-.1-.4a1.1 1.09-25.9 0 1 .4-1.14l2.73-2.01a1.25 1.25 0 0 0 .47-1.32z" class="C"/><path d="M165.73 395.35q1.38.23 3.47 1.75a.62.62 0 0 1 .18.8q-.22.41-.43.59a.62.62 0 0 1-.91-.08q-1.13-1.44-2.58-2.33a.4.4 0 0 1 .27-.73z" class="D"/><circle cx="374.88" cy="400.34" r="1.01" class="B"/><g class="C"><ellipse cx="0" cy="0" transform="matrix(.866897 -.498488 .498488 .866897 335.68 401.07)" rx="1" ry=".7"/><path d="M307.03 438.74q1.21.73 1.74 1.47a.78.78 0 0 1-.01.93q-.65.85-.81 1.41l-44.81-37.91a.57.57 0 0 1-.12-.72l.21-.37a.33.33 0 0 1 .5-.09q4.31 3.52 14.42 12.37 1.35 1.19 2.65 1.07a.39.38-14 0 0 .32-.53q-.38-.86-.44-1.77a.49.49 0 0 0-.43-.46q-.52-.06-.46-.73a.54.45 66.6 0 1 .06-.2l6.22-10.77a2.72 2.71 33.5 0 1 3.98-.81l2.33 1.75a4.02 4.01-53.1 0 1 .79 5.62l-6.58 8.75a1.2.9-25.7 0 0-.15.29c-.3.89.16 2.19-.9 3.19a.44.43 44.2 0 0 .01.65q15.24 13.29 20.09 17.25.72.59 1.39-.39z"/></g><ellipse cx="0" cy="0" transform="matrix(.751264 -.660002 .660002 .751264 272.57 404.67)" rx="1.24" ry=".99" class="B"/><path d="M305.86 404.02q.04-.01.22-.06a.22.2 57.8 0 1 .15.05l4.56 4a.73.72 35.8 0 1 .15.92l-1.58 2.66a1.29 1.29 0 0 1-1.76.46l-.98-.59a1.01 1.01 0 0 1-.36-1.39l1.42-2.42a1.01 1.01 0 0 0 .03-.99q-.61-1.21-1.91-1.7a.49.49 0 0 1 .06-.94z" class="C"/><ellipse cx="0" cy="0" transform="matrix(.385906 -.922538 .922538 .385906 366.38 406.49)" rx="1.22" ry=".96" class="B"/><g class="C"><path d="M333.49 410.06q-.77 1.81-3.09 2a.47.46-25 0 0-.29.79l4.31 4.31a.79.78 50.7 0 1-.12 1.21q-2.72 1.78-4.9 1.11a.89.88 29 0 0-.91.25q-1.52 1.71-4.38 1.92c-1.37.11-2.59.99-3.81.62a1.17 1.16 30.7 0 0-1.16.29q-1.89 1.88-4.08 1.61l-.74-3.22a1.8 1.59 20 0 0-.43-.79q-.16-.18-.4-.39-.12-.11-.13-.51-.01-.54.39-.84a.66.66 0 0 0 .27-.57q-.19-4.09 1.6-7.05 2.5-4.11 7.74-4.69a.97.84-35 0 1 .38.04l9.63 3.24a.3.29 1.9 0 1 .2.21q.08.27-.08.46z"/><ellipse cx="0" cy="0" transform="matrix(-.262189 -.965016 .965016 -.262189 304.2 407.63)" rx="1.02" ry=".78"/></g><path d="M201.64 551.89q-2.23-.96-2.8-3.24-2.79-11.04-2.94-11.93c-.36-2.23-1.75-5.28-1.99-7.71-.17-1.61-1.4-3.22-1.08-4.57a1.46 1.32-48.8 0 0-.01-.68l-5.18-19.22a.62.54 22.5 0 0-.12-.24q-1.03-1.27-.67-3.11a2.15 2.14 40.1 0 0-.11-1.23q-1.69-4.35-1.94-7.6a3.19 3.19 0 0 0-.31-1.18q-.57-1.2-1.16-3.54-2.84-11.14-4.43-16.78a1.55 1.54-48.8 0 1-.04-.65c.19-1.44-.63-2.57-.99-4.04q-3.31-13.72-5.84-22.71-1.25-4.43-1.38-5.69-.14-1.26-2.46-9.95-1.5-5.62-2.47-9.83-1.23-5.37-2.73-9.84a.71.71 0 0 1 .5-.91l1.38-.35a.65.64 75.6 0 1 .78.47l36.12 142.4a.79.77 61.2 0 1-.21.75q-.22.23.35 1.05a.22.22 0 0 1-.27.33z" class="D"/><path d="M384.8 408.03l1.04 7.47-.66-.12a.26.26 0 0 0-.19.47q.2.13.23.23.15.58-.47.71-13.22 2.86-22.5 5.02a3.69 3.31-62.1 0 0-.87.32q-1.07.56-1.5.65-3.69.76-9.8 1.64a.41.41 0 0 0-.28.65l.86 1.15a1.12 1.12 0 0 0 1.27.4q6.61-2.28 13.7-2.91a1.32 1.31-65.3 0 0 .67-.25l.44-.33a1.4 1.37 26.6 0 1 .81-.26q2.1.03 4.26-.93a1.48 1.45 27.2 0 1 .29-.09l13.99-2.69a.44.43 3.5 0 1 .5.56q-.05.13-.13.33l-6.12 1.99a1.39 1.31-52.3 0 1-.51.08q-2.13-.04-3.55.7a2.03 2.01 29.8 0 1-.83.22q-3.07.13-7.75 1.74-1.43.49-2.08.23a1.25 1.23-43.7 0 0-.85-.01q-2.17.8-8.64 2.07-3.8.74-6.66 3.24a.49.49 0 0 1-.8-.24q-.39-1.49-2.37-1.55a1.77 1.72 62.5 0 1-.97-.32q-2.85-1.99-4.9-4.74a.93.92-27.3 0 0-1.05-.33l-7.73 2.69a1.87.5-29.9 0 1-.19.05q-3.8.53-7.72 2.34-6.58 2.31-12.56 3.01-1.57-1.96-1.59-2.89c.08-3.03 3.28-3.07 5.47-4.16q2.19.27 4.08-1.61a1.17 1.16 30.7 0 1 1.16-.29c1.22.37 2.44-.51 3.81-.62q2.86-.21 4.38-1.92a.89.88 29 0 1 .91-.25q2.18.67 4.9-1.11a.79.78 50.7 0 0 .12-1.21l-4.31-4.31a.47.46-25 0 1 .29-.79q2.32-.19 3.09-2 .7-2.29 2.39.53a.92.82 3.6 0 0 .31.31l1.98 1.14a1.1 1.07 86.8 0 1 .35.32q1.12 1.59-.66 1.42-.96.73-.23 1.81.31.45 1.05.81l3.39-.24a.42.41-82.9 0 1 .42.55l-.13.4a.96.94-.2 0 1-.6.59l-29.98 9.44a1.24 1.24 0 0 0-.85 1.38l.01.05a1.17 1.16-13.8 0 0 1.43.86c8.03-2.1 12.79-3.87 20.78-5.83q3.59-.88 13.47-4.23 11.64-3.95 38.18-11.34z" class="B"/><g class="C"><ellipse cx="0" cy="0" transform="matrix(.698415 -.715693 .715693 .698415 279.17 410.31)" rx="1.17" ry=".83"/><path d="M337.86 413.78q3.19 1.37.82 2.62-.74-.36-1.05-.81-.73-1.08.23-1.81z"/></g><path d="M385.84 415.5q.25 1.83 1.1 3.42.24.44.11.71-.16.3-.59.42.08-.2.13-.33a.44.43 3.5 0 0-.5-.56l-13.99 2.69a1.48 1.45 27.2 0 0-.29.09q-2.16.96-4.26.93a1.4 1.37 26.6 0 0-.81.26l-.44.33a1.32 1.31-65.3 0 1-.67.25q-7.09.63-13.7 2.91a1.12 1.12 0 0 1-1.27-.4l-.86-1.15a.41.41 0 0 1 .28-.65q6.11-.88 9.8-1.64.43-.09 1.5-.65a3.69 3.31-62.1 0 1 .87-.32q9.28-2.16 22.5-5.02.62-.13.47-.71-.03-.1-.23-.23a.26.26 0 0 1 .19-.47l.66.12z" class="D"/><g class="B"><ellipse cx="0" cy="0" transform="matrix(.989272 -.146083 .146083 .989272 292.13 421.29)" rx="1.11" ry=".92"/><ellipse cx="0" cy="0" transform="matrix(-.202787 -.979223 .979223 -.202787 396.27 422.09)" rx="1.06" ry=".86"/></g><path d="M241.4 426.17q-.28.31-.86.27c-1.31-2.4-3.6-2.41-4.78-4.15a.29.29 0 0 1 .33-.44l4.31 1.45a1.37 1.36-86.4 0 1 .92 1.05q.18.88.08 1.82z" class="D"/><ellipse cx="0" cy="0" transform="matrix(.315649 -.948876 .948876 .315649 298.62 426.96)" rx="1.12" ry=".85" class="B"/><path d="M309.59 428.33q.02.93 1.59 2.89-1.5 1.53-5.07.77a.77.76.6 0 1-.58-.59l-.78-4.09a.62.62 0 0 1 .87-.69q1.54.71 2.51.04.68-.47 1.13.31.27.49.33 1.36z" class="C"/><path d="M302.79 429.42q-.07 1.03-.18 1.26a.56.55-62.9 0 1-.78.26q-1.02-.59-.94-1.66.08-1.07 1.17-1.5a.56.55 71.2 0 1 .74.36q.07.25-.01 1.28zm27.71 7.17c2.53 2.45 4.41 4.16 3.98 7.38a.84.82-5.1 0 1-.58.68q-1.59.5-2.17 1.76a.37.36 39.4 0 1-.63.06q-1.2-1.69-3.64-1.28a.56.55.3 0 1-.64-.64l.07-.37a.5.5 0 0 1 .41-.41q1.74-.29 1.59-1.77a1.56 1.52 22.5 0 0-.35-.82l-2.71-3.21q-1.68-1.73-1.09-3.16a1.02 1.02 0 0 1 1.91.05q1.1 3.06 3.85 1.73z" class="B"/><path d="M301.29 446.64q-.5-.1-.8.07.29-.19.8-.07zm-26.03 45.42l-.96-3.04a1.15 1.15 0 0 1 .53-1.35l3.16-1.83a.34.34 0 0 1 .49.19l.77 2.46a.25.24 80.9 0 1-.22.32h-2.27a.97.96 5 0 0-.95.79l-.44 2.45a.06.06 0 0 1-.11.01zm-261.44 9.63q2.2.45 4.75.05a.68.68 0 0 0 .23-1.26l-.96-.56a1.35 1.29-88.5 0 1-.55-.61q-.46-1.02-1.29-1.68.7-.79 1.47-.79a.68.67-17.4 0 1 .55.28l1.78 2.41a1.58 1.58 0 0 1-.01 1.9l-2.08 2.77a.69.69 0 0 1-.87.2q-1.95-1.05-3.02-2.71z" class="D"/><path d="M16 497.63q.83.66 1.29 1.68a1.35 1.29-88.5 0 0 .55.61l.96.56a.68.68 0 0 1-.23 1.26q-2.55.4-4.75-.05l2.18-4.06z" class="C"/><path d="M247.62 512.83q.42-.09.52-.02a.28.28 0 0 1-.17.53l-1.4-.19a1.71 1.7 34.2 0 0-1.07.2q-.35.2-2.31 1.92a.47.21-24 0 1-.72 0q.17-.25.2-.39a.24.24 0 0 0-.27-.27q-1.21.17-2.89-.28a.27.27 0 0 1 .05-.53q2.42-.15 3.81-1.15a.5.5 0 0 0-.13-.88l-.24-.08a.5.5 0 0 1-.25-.76q.46-.65 1.37-.74a.29.29 0 0 0 .11-.54q-.08-.05-.45-.02a.1.1 0 0 1-.04-.2q1.41-.55 3.16-.2a1.02 1.02 0 0 0 1.19-1.25l-1.08-4.26a1.33 1.31 65.4 0 1 .51-1.4l3.06-2.21a.52.51 64.8 0 1 .8.29l1.74 6.86a.95.94-15.9 0 1-.64 1.13q-.97.3-1.93 1.28a.61.6-60.1 0 0 .27 1.01q1.56.42 2.14 1.01a.61.61 0 0 1 .1.69q-.23.47-.86.44a.38.37-6.2 0 0-.38.47q.2.76.09 1.25a.2.2 0 0 1-.38.01q-.67-2.36-3.59-2.71a.53.52-80.5 0 0-.58.42q-.01.01-.03.31a.25.24 86.4 0 0 .29.26z" class="D"/><path d="M38.72 508.59q-1.87 1.01-.71 2.9.65 1.07 3.02 1.49 1.56.92 3.07 1.97c1.09.76 1.74 2.19 3.62 2.36q2.79.27 4.57 2.38l-1.87 3.3a.92.82 87 0 1-.17.21q-1.02.85-2.46-.93a.44.44 0 0 0-.78.23q-.14 1.41-1.56 1.22-.75-1.32.68-2.33a1.56 1.55-54.2 0 0-.44-2.76q-2.84-.86-5.27-4.36-1.95-.14-3.58-1.35a.74.73-43.4 0 0-.86-.02q-.72.48-1.19 1.67l-.61-.28a.6.6 0 0 1-.24-.88l3.44-5.14a.65.64 12.5 0 1 .45-.28q.62-.07.89.6z" class="C"/><path d="M41.03 512.98q-2.37-.42-3.02-1.49-1.16-1.89.71-2.9 1.19.67 1.79 1.68a1.08 1.06-53.1 0 1 .12.88q-.34 1.12.4 1.83zm-.61 1.29q-2.22.23-2.81 1.83a.83.83 0 0 1-1.43.23l-1.39-1.76q.47-1.19 1.19-1.67a.74.73-43.4 0 1 .86.02q1.63 1.21 3.58 1.35zm8.19 10.77q-.22-.3-.49-.41-.32-.14-.57.1-.19.19-.29.55-.49-1.07-1.81-1.56 1.42.19 1.56-1.22a.44.44 0 0 1 .78-.23q1.44 1.78 2.46.93a.92.82 87 0 0 .17-.21l1.87-3.3c1.06 1.81.85 5.34-2.05 4.58-.75-.2-1.34.08-1.63.77z" class="D"/><path d="M48.61 525.04q-.24.47-.67.58-.43.12-.68-.34.1-.36.29-.55.25-.24.57-.1.27.11.49.41z" class="C"/><path d="M214.52 537.02q.23-1.53-1.74-1.94a.8.8 0 0 0-.96.73q-.1 1.38 1.94 1.7-1.13 1.48-2.52 2.25a.63.63 0 0 1-.83-.2q-1.21-1.79-1.23-4.17a1 .96 72.7 0 1 .4-.8l3.05-2.26a.97.97 0 0 1 1.53.62q.25 1.47.92 2.53a.88.88 0 0 1-.11 1.09l-.45.45z" class="D"/><path d="M214.52 537.02q-.3.5-.76.49-2.04-.32-1.94-1.7a.8.8 0 0 1 .96-.73q1.97.41 1.74 1.94zm-148.38 7.65q.31.14.44.46a.41.37-5.8 0 1-.45.5q-.29-.05-.46-.37a.42.38 86.2 0 1 .47-.59z" class="C"/></svg>