<?xml version="1.0" encoding="UTF-8" standalone="no"?>
<!-- Created with Inkscape (http://www.inkscape.org/) -->

<svg
   version="1.1"
   id="svg1"
   width="682.66669"
   height="718.66669"
   viewBox="0 0 682.66669 718.66669"
   xmlns="http://www.w3.org/2000/svg"
   xmlns:svg="http://www.w3.org/2000/svg"
   xmlns:rdf="http://www.w3.org/1999/02/22-rdf-syntax-ns#"
   xmlns:cc="http://creativecommons.org/ns#"
   xmlns:dc="http://purl.org/dc/elements/1.1/">
  <title
     id="title1">DubaiSat-2 Icon SVG</title>
  <defs
     id="defs1" />
  <g
     id="g1">
    <path
       style="fill:currentColor"
       d="m 497.84639,717.64627 c -10.20926,-17.53756 -19.8948,-33.11754 -29.84638,-49.83075 -6.35015,-11.98524 -15.10139,-23.09088 -20.58333,-35.03773 -7.52843,-9.01236 -12.6535,-21.18318 -19.41667,-30.77777 -7.62308,-12.71896 -13.94492,-22.89492 -21.18879,-35.33334 -7.04466,-20.26168 -20.21409,-31.58079 -32.1293,-8 -16.13757,14.86175 -35.1626,27.70153 -54.37609,39.83633 -7.9914,19.73381 -46.19828,2.38016 -65.97711,18.24284 -20.93554,15.89295 -43.84811,-6.65297 -65.70579,11.25836 6.28051,31.75172 -15.68542,46.41832 -44.14606,45.32914 -19.99552,-4.02789 -41.70975,-6.52998 -59.748752,-16.62541 C 72.628439,649.39444 61.908005,644.1662 49.933127,636.74585 32.754666,628.09379 11.28539,599.71433 2.6666667,594.00002 0.88063833,589.08166 -5.3149483,522.79841 4.9888275,522.64014 12.20542,506.84757 19.164952,490.23531 34.333334,479.7552 c 14.674105,-9.67824 43.721956,0.86858 36.078331,-25.91283 12.84487,-21.07872 -5.707564,-38.62078 -8.654087,-54.95351 14.668736,-9.54725 20.224281,-21.08774 27.028233,-38.22222 15.269159,-9.20114 19.028269,-26.74455 -2.452475,-27.83334 -12.577137,-8.0772 -29.317276,-10.48395 -41.000001,-21.5 -10.221305,-16.03309 -10.06637,-36.54283 -12.38889,-55.66667 -7.844246,-19.32125 -4.635136,-42.59845 -11.440442,-63.4654 -7.305926,-24.82376 18.659549,-15.9895 31.429085,-8.73664 18.627055,5.4702 36.434242,12.48887 54.215752,18.53538 16.60931,4.78321 32.68287,13.85119 47.96544,16.95003 13.06308,8.52224 30.50055,12.81745 44.21906,19.71663 15.69362,6.19311 37.3776,19.82567 55.0577,7.66667 12.40828,-4.56355 31.56319,-21.11727 38.44502,-14.31994 -6.15208,10.93405 -46.00988,49.8423 -20.12247,30.65327 20.2971,-11.97505 45.37652,-40.22676 68.90277,-20.66666 12.74568,13.60912 43.88544,24.27679 42.2938,43.33333 13.05295,-14.74291 56.75682,38.79866 17.93329,20.15797 -12.68809,-29.6096 -26.43957,24.11924 -5.84344,20.99047 8.89737,-5.08701 37.70247,-20.58518 25.71538,0.79073 8.9359,-15.29553 12.00293,16.72596 6.76164,24.95418 12.65917,-0.52311 15.78219,-19.05341 27.85632,-21.31942 7.95143,12.23369 -15.89853,22.24625 -0.69757,33.09274 11.76171,12.20799 2.92183,-28.81615 11.26783,-30.66667 19.0866,3.10673 33.91063,13.30383 53.20054,16.45736 16.03543,9.5427 34.79695,12.63348 52.2292,19.28237 15.96999,6.08073 32.40831,11.11753 47.62525,19.74021 22.77789,3.30231 43.97343,14.86493 41.37475,41.04408 4.76849,22.95796 6.84113,44.37257 11.90058,67.54844 1.35291,17.82939 12.23944,60.46193 -17.24538,37.70407 -20.73579,-3.57271 -39.1648,-12.21179 -59.51234,-18.44319 -17.26353,-6.44031 -34.65369,-13.05541 -52.61108,-17.12844 -16.2139,-7.70625 -33.52461,-13.493 -50.19845,-19.43296 -8.35135,8.6787 13.67954,30.91772 17,43.22807 7.63454,9.16703 10.35524,21.40075 19.46915,29.56253 4.21601,14.25093 15.99084,23.82263 21.70585,37.14139 14.42884,19.66763 27.48952,41.3288 38.07917,62.65567 4.41322,10.556 24.86946,31.43372 8.38872,37.14658 -17.63514,8.60687 -38.52087,13.81688 -59.19844,19.04939 -13.76634,1.79987 -27.30049,10.34105 -41.26474,8.7574 z M 191.74911,612.08603 c 30.05928,-13.8213 -12.61434,-11.10483 -10.45486,2.61116 3.49818,-0.60597 7.51788,-0.26282 10.45486,-2.61116 z m 184.2509,-231.41935 c -0.53143,-7.31237 -4.25473,7.50904 0,0 z m -40,-2 c -5.20422,-4.87086 -5.20427,4.87084 0,0 z m -57.33334,-8.50341 c -5.30487,-8.55885 -5.6674,3.03029 0,0 z m -14.38087,-4.51244 c -10.34832,-0.87722 -0.96246,6.38294 0,0 z m -12.28579,1.01585 c -9.72962,-4.46794 -11.49702,2.58029 0,0 z m 30,-4 c -7.0617,-4.87123 1.49472,4.5952 0,0 z m -6.52778,-4.97223 c -4.74361,-1.19465 2.07656,7.78331 0,0 z m -40.80556,0.97223 c -3.40656,-4.78328 -3.40661,4.78327 0,0 z m 48.33334,-4.88304 c -8.29705,-1.32266 -0.10341,2.30694 0,0 z m 9.66667,-7.11696 c 0.11186,-5.10848 -6.09771,5.38051 0,0 z m -70.4503,-7 c -2.31297,-0.43111 1.3998,8.90916 0,0 z m -6.21637,-1 c -7.25023,-4.24032 -5.90802,1.80139 0,0 z m 210.77956,-8.42045 c -5.58904,1.57614 4.60779,12.02674 0,0 z m -32.00384,1.75378 c 5.8311,-7.13143 -21.9663,2.72996 0,0 z m -168.10906,-2 c -5.41758,-9.29257 -1.86491,7.84251 0,0 z m -28,-0.66667 c -3.40661,-4.78327 -3.40656,4.78328 0,0 z m 96.91082,-1.58333 c -2.46758,-2.71606 1.33838,7.80397 0,0 z m 117.75586,0.25 c -0.17001,-5.8478 -10.6261,4.92618 0,0 z m -182.66668,-2.66667 c -3.66129,-4.9773 -1.20875,4.59894 0,0 z m 117.71967,-1.33333 c -6.94685,-9.06782 1.15848,8.8709 0,0 z m 70.54701,-0.26667 c -8.66179,-2.78853 4.29146,6.69576 0,0 z m -183.60001,-2.4 c -2.02206,-5.07822 -4.07143,4.22177 0,0 z m 3.62222,-6.91111 c -7.34689,-2.198 2.67628,8.21392 0,0 z m 131.04445,-2.42222 c -2.02205,-5.07821 -4.07144,4.22174 0,0 z m -93.33334,-10.66667 c -2.02206,-5.07822 -4.07142,4.22177 0,0 z m 64.66667,0 c 0.33836,-5.18357 -9.70313,3.80822 0,0 z m -70.23379,-3.54399 c -2.30342,-12.93669 -8.61755,4.51607 0,0 z m 62.90046,-0.45601 c 0.11185,-5.10847 -6.09769,5.38052 0,0 z m 60.66667,-4.8221 c -11.85475,-2.89367 -7.60443,4.05295 0,0 z m -3.64129,-5.38581 c -7.68749,-1.02326 -3.26058,1.904 0,0 z m -131.03051,-4.72159 c -14.48613,-3.57123 7.33638,5.8563 0,0 z m 95.33846,-1.0705 c -1.80592,-5.39844 -7.20928,5.67218 0,0 z m 22,-5.33333 c -4.86018,-5.13093 -3.06823,4.62541 0,0 z m -106.66667,-4 c -5.20422,-4.87086 -5.20427,4.87084 0,0 z m 101.33334,0 c -6.33295,-6.43076 -15.93788,-1.811 0,0 z m -14.66667,-12 c -3.40656,-4.78328 -3.40661,4.78327 0,0 z m -64,-3.25465 c -2.54757,-4.74596 -3.5866,2.37421 0,0 z m 42.66667,0 c -2.54757,-4.74595 -3.58661,2.3742 0,0 z m 18,-0.74535 c -5.57051,-4.61272 -1.33571,4.69447 0,0 z m -4.66667,-4 c -7.41408,-5.41631 -9.24138,5.19746 0,0 z m -41.33333,-4 c -6.99042,-4.913 -6.99047,4.91299 0,0 z m 33.33333,0 c -3.40656,-4.78328 -3.40661,4.78327 0,0 z m -26.66666,-4 c -5.76925,-5.13698 -6.50722,5.43489 0,0 z m 8.66666,-4 c 0.11189,-5.10847 -6.09771,5.3805 0,0 z M 0,602.77779 c 4.6681549,-14.15547 3.1052881,12.03518 0,0 z M 436.00001,318.06043 c 14.55033,-21.45798 17.52545,19.3755 0,0 z M 222.1845,232.66667 c -18.97982,-4.07456 -24.95627,-29.4531 -36.18449,-42 C 178.78644,179.94756 173.17008,166.7804 164.60219,157.62034 160.03254,144.94765 150.94031,136.01159 146,124 138.22097,114.43418 134.03386,103.1934 127.39724,92.74573 121.13995,83.824905 114.89988,70.685258 108.59864,60.36315 96.81341,43.345668 98.830108,20.667423 121.42067,17.768854 c 25.5219,-1.903532 46.4306,-20.5939887 73.21448,-17.53403429 15.24296,-0.9374749 16.98844,24.02623929 26.03152,33.94967929 4.80489,12.510153 14.05485,21.505779 18.54228,34.283723 7.13292,10.152746 13.79908,21.176884 19.45772,32.198448 9.4627,11.73336 11.93246,25.82988 23.26367,38.36713 5.13759,14.52697 15.5479,27.01661 21.28267,40.43786 4.56466,8.23647 23.13315,28.93919 8.19583,31.19501 -21.69088,5.90826 -44.55611,10.94682 -64.74217,18 -5.99959,5.1923 -16.64675,9.0414 -24.48217,4 z M 152,1.0543377 c 12.36699,-1.67762857 15.18108,4.6083838 0,0 z"
       id="path1" />
  </g>
  <metadata
     id="metadata1">
    <rdf:RDF>
      <cc:Work
         rdf:about="">
        <dc:title>DubaiSat-2 Icon SVG</dc:title>
        <dc:source>https://encrypted-tbn0.gstatic.com/images?q=tbn:ANd9GcR-cybX_e1HHG06tCUMyk5mrKgaiQSVvFFV2A&amp;s</dc:source>
      </cc:Work>
    </rdf:RDF>
  </metadata>
</svg>
