<svg xmlns="http://www.w3.org/2000/svg" baseProfile="tiny" width="512" height="503" xmlns:v="https://vecta.io/nano"><style><![CDATA[.B{fill:#a78d49}.C{fill:#fff119}]]></style><ellipse cx="0" cy="0" transform="matrix(.999781 -.020942 .020942 .999781 197.81 .58)" rx="1.42" ry=".06"/><path d="M268.51.88q-.14 0-.27 0-.03 0 0-.01.13 0 .27.01zm11.2 171.86q-.42-.19-.71 0c-2.14.68-3.99.11-6.53 1.04q-.39-.16-.38.22 0 .21.4.28 2.71.36 4.32 2.61.98 1.38 1.76 1.78 1.1.57 2.42.85-.58.57-1.31.64a1.33 1.29 57.9 0 1-.82-.2c-2.06-1.3-3.08.15-5.14.35q-2.09.2-4.49-.64-1.02-.36-.15-2.75a.31.31 0 0 1 .38-.19q.22.06.29.11.21.16.18-.31 0-.03-.24-.98a.56.56 0 0 0-.67-.41q-.73.18-1.28-.44a.56.56 0 0 0-.83-.01q-.28.31-.27.61-.86 1.39-1.13 3.12-4.52-1.89-7.12-2.07c-5.42-.37-11.49-.27-16.91-1.74q-.65-.18-3.12-.25-2.77-.09-2.4-1.3-.82-1.7-4.56-.52l-.55.01a.4.4 0 0 0-.34.58q.47.93.06 1.8a.66.66 0 0 1-1.24-.17q-.18-1.02-1.15-.81c-1.66.37-2.81-.44-4.49-.37a.9.89 76.5 0 1-.86-.53q-.35-.82-.17-1.59a.59.58-76.9 0 0-.44-.71q-.66-.15-.71-.15-1.01-.09.48-2.36a.35.35 0 0 0-.28-.54q-1.71-.07-3.11-.66a1.5 1.49 46.5 0 0-1.07-.03q-1.46.5-2.97.4 2.04-.63-1.82-2.25-1.24-1.54-3.37-.73l-5.35-.28a.72.72 0 0 1-.52-.27q-.46-.56-1.38-.62a1.43 1.43 0 0 1-1.07-.61q-1.5-2.15-.88-5.65a1 .99 5.1 0 0-.98-1.17h-2.66a.5.49-70.3 0 1-.38-.81l1.42-1.76a1.68 1.66-22.1 0 0 .36-.84q.57-4.84-.68-8.03a3.63 3.51 35.6 0 1-.25-1.36q.05-2.81-.29-3.45-.95-1.78-.74-3.27c.27-2.01-1.14-3.69-1.05-5.83a3.19 3.08 37.2 0 0-.19-1.23q-.98-2.67-.88-5.48.02-.32-.4-1.29a4.21 4.12-61.5 0 1-.29-1.02q-2.38-14.39-3.98-23.4-8.03-45.32-10.8-57.91-1.8-8.16-1.91-9.82a2.54 2.53 28.9 0 0-.29-1c-1.31-2.46.04-5.1-1.2-7.2-1.16-1.95-.16-4.49-1.15-6.77q-.53-1.22-.55-4.49a2.43 2.41-56.7 0 0-.19-.94q-1.14-2.82-.64-6.04a.82.81-87.7 0 1 .74-.69c3.67-.31 6.83-1.06 10.84-1.12q9.86-.14 18.32-.04L258 2.03q9.34.04 14.33-.25a6.24 5.84-51.7 0 0 1.19-.18q3.22-.83 4.48-.45 2.45.74 4.48.95a1.9 1.89 2.5 0 1 1.71 1.86q.01 1.31.68 2.44a2.19 2.11 30.7 0 1 .3 1.09q-.02 2.8.11 3.98.09.78.25.89.25.17.35.29a1.26 1.22-65.8 0 1 .31.85c-.13 5.26.72 9.72 1.18 14.76q3.75 40.22 8.62 83.3.53 4.7.6 6.63.15 4.1.82 6.56a5.65 5.64-51.3 0 1 .19 1.73q-.17 4.09.94 8.42a1.56 1.39 41.6 0 1 .04.34l.1 5.28a5.37 5.21 38.9 0 0 .13 1.07q.86 3.69.82 6.38-.06 3.41.44 5.55c.98 4.23.35 8.82 1.23 13.59q.49 2.63.37 6.42a.65.65 0 0 1-.69.63l-21.27-1.42zm-56.95-7.9q.2.96 2.45.94l.14.77a.46.46 0 0 1-.62.51q-.33-.13-.34-.13a.89.88-79.8 0 0-.91.64l-.13.44a.43.43 0 0 0 .4.55q2.42.13 4.93.83.16.04 3.25-.47a.8.79-8.9 0 0 .66-.89l-1.61-11.51a.67.65 83.1 0 0-.71-.57q-3.85.34-8.75-1.22a.93.93 0 0 0-1.21.81q-.19 2.23.67 3.76a1.8 1.77-59.1 0 1 .23.95q-.18 3.84 1.55 4.59zm41.8 1.48q-.14 2.37 1.23 4.48a1.19 1.18 73.7 0 0 1 .55l3.09.01a1.61 1.49 55.2 0 1 .64.14q.29.15.71.83a.52.52 0 0 0 .74.15q1.09-.73 3.25-.04a.64.64 0 0 0 .82-.44l.02-.1a.67.66-72.9 0 0-.42-.81q-1.26-.41-1.44-2.82a1.45 1.45 0 0 0-1.09-1.31q-3.56-.94-8.09-.42a.19.18-27.8 0 1-.14-.04q-.09-.07-.17-.21a.08.08 0 0 0-.15.03zm7.43 9.11q-.16.44.01 2.2a.8.8 0 0 0 .8.72h2.04a.58.58 0 0 0 .47-.93l-.4-.54a.77.75 61.1 0 0-.89-.27q-1.05.4-1.08-1.01a.49.49 0 0 0-.95-.17zm-78.42 1.03q-.25 1.41-2.34 2.73c-2.07 1.31-2.82 3-4.16 4.18a.66.66 0 0 1-.84.03q-4.73-3.53-4.81-3.58-1.2-.79-2.3-.28a.46.45 48.1 0 0-.04.81c2.07 1.2 2.98 2.84 5.52 3.84a.51.5-46.3 0 1 .02.93c-1.77.8-3.95 2.19-5.16 3.9-1.99 2.83-4.93 4.29-7.17 6.54q-1.52 1.53-14.14 12.01a2.07 2.06-14.9 0 0-.73 1.25l-.62 3.75a3.25 3.25 0 0 1-3.21 2.72h-3.23a3.09 3.04 20.4 0 0-2.3 1.03q-3.4 3.81-7.77 5.62-14.69-10.96-21.34-15.13-3.39-2.13-5.19-3.54c-2.52-1.98-5.08-2.87-7.4-4.96a4.73 4.35-6.3 0 0-.79-.58c-3.71-2.2-6.76-4.99-10.57-7.38q-9.22-5.8-14.95-10.06-1.83-1.36-3.52-1.87a1.55 1.55 0 0 1-.82-.58q-1.08-1.5-1.76-1.99-3.87-2.81-15.84-10.8a.77.76 21 0 1-.34-.75q1.25-8.5 1.75-11.04 4.63-23.72 9.61-47.45a.13.11 66.3 0 1 .02-.07c1.01-1.9.11-3.91 1.21-5.3q.53-.67.45-2.35c-.11-2.2 1.2-3.39 1.04-5.75a1.9 1.85 59.8 0 1 .28-1.12q.83-1.3.75-3.18a1.43 1.42-25.5 0 1 .37-1.03q.41-.44.83-1.45a1.34 1.33-62.1 0 1 1.96-.61l33.25 21.62a1.66 1.64 65 0 0 .65.24c2.22.3 4.67 3.09 7.11 4.19a4.97 4.96-10.1 0 1 1.55 1.08q4.56 4.73 10.82 7.88a4.09 3.87-8.4 0 1 .97.68q2.12 2.01 4.75 2.66a2.6 2.57-20.5 0 1 .78.35q18 12.63 39.37 26.63c3.96 2.6 8.44 6.45 13.03 8.15a2.69 2.61-12.2 0 1 .9.56q1.26 1.19 3.18 2.8 1.47 1.23 2.1 1.34c1.55.26 2.67 1.23 2.56 2.97q-.34 5-3.49 10.36zM71.751 132.055a.69.18-61.3 0 0-.489.519.69.18-61.3 0 0-.174.692.69.18-61.3 0 0 .489-.519.69.18-61.3 0 0 .174-.692zm107.445 50.491a2.69.7-64.3 0 0-1.797 2.12 2.69.7-64.3 0 0-.536 2.727 2.69.7-64.3 0 0 1.797-2.12 2.69.7-64.3 0 0 .536-2.727z"/><g class="C"><ellipse cx="0" cy="0" transform="matrix(.480223 -.877146 .877146 .480223 71.42 132.66)" rx=".69" ry=".18"/><path d="M225.21 165.78c2.48 1.32 4.94.5 5.18-2.22a1.29 1.28-85.7 0 0-1.2-1.4q-4.2-.28-5.52-.29a.75.7-13.4 0 0-.69 1.04q.12.23.54.42a.39.36 5 0 1 .19.21q.25.7-.95 1.3-1.73-.75-1.55-4.59a1.8 1.77-59.1 0 0-.23-.95q-.86-1.53-.67-3.76a.93.93 0 0 1 1.21-.81q4.9 1.56 8.75 1.22a.67.65 83.1 0 1 .71.57l1.61 11.51a.8.79-8.9 0 1-.66.89q-3.09.51-3.25.47-2.51-.7-4.93-.83a.43.43 0 0 1-.4-.55l.13-.44a.89.88-79.8 0 1 .91-.64q.01 0 .34.13a.46.46 0 0 0 .62-.51l-.14-.77z"/></g><path d="M225.21 165.78q-2.25.02-2.45-.94 1.2-.6.95-1.3a.39.36 5 0 0-.19-.21q-.42-.19-.54-.42a.75.7-13.4 0 1 .69-1.04q1.32.01 5.52.29a1.29 1.28-85.7 0 1 1.2 1.4c-.24 2.72-2.7 3.54-5.18 2.22z" class="B"/><path d="M212.74 165.16q-2.67.44-3.37-.73 2.13-.81 3.37.73zm51.97 1.13q.08.14.17.21a.19.18-27.8 0 0 .14.04q4.53-.52 8.09.42a1.45 1.45 0 0 1 1.09 1.31q.18 2.41 1.44 2.82a.67.66-72.9 0 1 .42.81l-.02.1a.64.64 0 0 1-.82.44q-2.16-.69-3.25.04a.52.52 0 0 1-.74-.15q-.42-.68-.71-.83a1.61 1.49 55.2 0 0-.64-.14l-3.09-.01a1.19 1.18 73.7 0 1-1-.55q-1.37-2.11-1.23-4.48a.08.08 0 0 1 .15-.03zm-33.31 6.25q-.29.32-.26.64.04.51.45.43.09-.02.55 0a.6.6 0 0 1 .57.6v1.37a.43.42 0 0 0 .43.42h.3a.43.43 0 0 0 .43-.47l-.11-1.46a.63.63 0 0 1 .67-.68q1.1.07 1.53-.33-.37 1.21 2.4 1.3 2.47.07 3.12.25c5.42 1.47 11.49 1.37 16.91 1.74q2.6.18 7.12 2.07.43.79 1.03.93a.43.43 0 0 0 .53-.47l-.43-3.58q-.01-.3.27-.61a.56.56 0 0 1 .83.01q.55.62 1.28.44a.56.56 0 0 1 .67.41q.24.95.24.98.03.47-.18.31-.07-.05-.29-.11a.31.31 0 0 0-.38.19q-.87 2.39.15 2.75 2.4.84 4.49.64c2.06-.2 3.08-1.65 5.14-.35a1.33 1.29 57.9 0 0 .82.2q.73-.07 1.31-.64l6.6 1.08 1.86 1.57a.57.56 37.3 0 1 .11.74q-.41.64-.44 1.64a.74.73 6.7 0 0 .58.73c2.36.51 5.13-.4 6.78 2.09a1.99 1.98-5.7 0 0 .91.74q3.89 1.56 5.65 5.74a2.14 1.99-80.5 0 0 .45.68l2.11 2.11a.69.69 0 0 0 .85.09l2.67-1.67 4 4.68a1.2 1.2 0 0 0 1.11.41l.3-.05a.48.47 5.3 0 1 .53.63q-.04.11-.32.34a.69.68 51.1 0 0-.1.97q4.62 5.74 7.64 12.98a3.09 3.07 7.4 0 0 .98 1.26c1.32 1 3.36 4.83 6.24 9.38q.63 1 1.65 1.31.85.26 1.56-.95a.34.33-42.6 0 1 .6.02c.37.79-.05 2.25.31 3.27q2.41 6.62 3.09 7.46 2.95 3.6 4.83 7.61-.2.92-.83 1.25a.62.62 0 0 0 .38 1.17l1.6-.24q4.53 4.85 7.83 10.68.61 1.07 2.49 2.62l2.68 5.57a.65.64-35.7 0 1-.13.74q-.52.52-1.06.45a.62.62 0 0 0-.7.61q0 5.45.99 6.97 2.02 3.11 4.18 6.68l-1.09 6.3q-.49.54-.11 1.29l-.23.8q-1.44-.47-2.42.87-1.65 2.26-2.89 3.81c-.45.57-.68 1.59-1.16 1.91a3.16 2.6-3.9 0 0-.72.68q-3.23 4.36-5.96 9.66-.31.59-3.66 3.42a2.72 2.57 86.1 0 0-.61.74q-2.58 4.49-5.41 7.52a4.03 3.89 80.9 0 0-.62.89q-1.53 3.02-3.54 4.51a.51.51 0 0 0-.21.43q.03.74.25.83a.32.32 0 0 1 .03.57q-1.17.66-1.41 1.12-2.29 4.41-5.66 8.68c-3.32 4.22-5.54 8.21-8.22 11.38a19.63 19.52-14.2 0 0-3.2 5.33c-1.38 3.43-3.44 6.03-7.08 10.49-4.34 5.3-8.34 10.76-12.74 15.71q-.76.85-.92 2.18-.99.38-1.42-.07a.46.44 29.4 0 1-.12-.39q.43-2.45 1.94-4.55a.72.72 0 0 0-.57-1.14q-.16-.01-.66.4-.05-.32-.22-.57a.69.68-39.9 0 1 .08-.86l3.85-3.84a.48.47-45.4 0 0 0-.67l-.28-.28a.62.62 0 0 0-1 .19l-1.12 2.58a.68.68 0 0 1-1.25.01c-.92-2.05-2.69-3.44-3.02-5.84a.55.54 78.9 0 0-.68-.46q-.12.03-.14.03a.98.98 0 0 1-.94-.62q-1.22-3.04-2.55-4.55-2.17-2.45-2.85-4.08-.59-1.38-2.82-4.48a.11.11 0 0 0-.15-.03l-.26.17a.24.24 0 0 0-.06.34q.66.91.83 1.87a.46.29 58.3 0 1 0 .13l-.82 5.45a1.28 1.26 26.9 0 0 .37 1.1l.27.27a1.35 1.33-62.8 0 1 .37 1.18q-.45 2.59-.04 4.38a.61.61 0 0 1-.98.6q-1.22-1-2.45-.48a.59.58-12.5 0 1-.82-.52l-.14-7.58q0-.03 0-.05.28-1.67 1.94-4.93a.38.38 0 0 0-.4-.54q-2.62.38-4.77.93c-2.23.57-3.55 2.61-6.29 2.23a1.69 1.68-56.7 0 0-1.1.23q-2.03 1.24-4.64 1.07a3.23 3.21-53.4 0 0-1.32.2q-6.03 2.29-12.2 3.33a6.77 6.48-59.5 0 0-1.46.41q-3.64 1.46-8.25 2.32a1.6 1.57-72.1 0 0-.8.42l-.82.82a1.44 1.41-66.7 0 1-1.03.42q-3.33-.06-7.41 2.21-2.11-.6-4.61.61a2.07 2.07 0 0 1-.95.21q-1.88-.04-3 .24c-4.41 1.09-10.97 3.02-15 4q-5.76 1.38-6.34 1.62-2.17.91-6.31 1.64-3.24.57-9.2 2.93a1.1.97 30.1 0 1-.25.05l-5.74.2a2.08 2.07 23.2 0 0-1.28.51q-1.95 1.73-5.2 1.31a1.44 1.41 31.6 0 0-.97.22l-1.36.9a1.36 1.32 31.4 0 1-.93.21q-4.19-.62-6.96 3.85-2.61-1.09-4.35.84a.68.68 0 0 0-.06.83c1.11 1.69 2.93 2.45 4.21 3.91 6.31 7.18 12.12 15.48 14.75 24.72q1.22 4.3 2.01 9.95a.56.56 0 0 1-1.07.3q-7.8-18.02-19.86-33.98a6.72 6.33 16.8 0 1-.76-1.32q-1.38-3.27-3.82-5.41c-1.8-1.58-2.38-2.96-3.76-4.78a.63.63 0 0 1 .87-.89q2.51 1.78 5.22.97a.44.44 0 0 0 .18-.75q-7.4-6.9-17.05-11.58a4.19 3.93 59.6 0 0-1.29-.38c-2.74-.33-4.87-1.81-8.53-3.65-2.98-1.5-8.1-1.48-11.43-2.12q-2.64-.5-5.32-1.06 1.08-1.59 3.37-2.38a.36.36 0 0 0 .01-.67l-.73-.28a.7.7 0 0 1-.14-1.24l2.03-1.35a.67.67 0 0 0 .3-.56v-1.48a.65.65 0 0 1 .36-.58l4.83-2.46a.69.49 21.1 0 1 .2-.05l2.83-.22a1.81 1.79 20 0 0 1.14-.52l.48-.47a.42.42 0 0 0-.33-.72l-3.87.29a1.09 1.08 20.6 0 0-.67.3q-1.7 1.63-4.04 2.17a.78.78 0 0 1-.96-.76v-.52a.9.9 0 0 1 .58-.84l1.54-.6.76-.14a2.61 2.59-69.4 0 0 1.15-.53q1.76-1.39 4.15-.2a.6.6 0 0 0 .79-.26q.37-.69.1-1.31a.71.71 0 0 1 .12-.78l6.79-7.47a.85.83 66.7 0 0 .22-.57q.05-3.01.97-6.81a6.12 5.7 54.3 0 0 .17-1.33l.18-8.89a1.27 1.2 54.7 0 1 .05-.35c1.17-4.78.94-9.47 1.69-14.28q1.06-6.81 1.07-15.25 0-.63.77-2.87a3.26 3.22 53.4 0 0 .18-1.28q-.33-6.4 1.02-11.35.31-1.14-.13-1.69a.87.84-55.7 0 1-.14-.81q.63-1.92.36-6.04a1.95 1.9 53 0 1 .09-.7l.82-2.43a.96.88 56.5 0 0 .06-.38q-.05-2.49 1.74-4.96.45-.61-.18-.86a.64.63 10.9 0 1-.41-.59v-.73a.81.79-7.6 0 1 .6-.77q.64-.17.67-.61a.58.57-81.2 0 0-.42-.58q-4.15-1.1-7.59-.02-.63 2.29-2.65 2.73l-4.95-.3q-.37-2.4 1.26-2.33 1.27-1.33.72-2.67-.33-.81-1.69-.56-2.83.96-5.47-.16-1.71.07-1.88 3.57a1.02 1.01-69 0 0 .36.82l1.53 1.3q.87 1.26 2 1.91.55.66.69 1.32a.68.68 0 0 1-.47.78q-1.27.37-.82 1.9a1.08.73-86.3 0 1-1.08 1.4q-.19-.17-.08-.87a.56.56 0 0 0-.47-.65c-2.08-.29-3.38.07-5.13.23q-1.61.14-1.6 1.49a2.09 2.01 83.7 0 1-1.58 2.05q-1.92.42-1.16-1.16l.95-.01a1.4 1.39-36.8 0 0 .36-2.46l-5.59-3.93 2.87.42q1.46 1.84 3.76 2.68a.71.69 29.4 0 0 .78-.21l1.49-1.83q2.59-1.41.99-5.07c.23-4.48 3.56-5.55 5.76-8.16a3.43 3.11 82 0 0 .4-.59q3.66-6.87 8.26-9.84 2.56-1.65 3.35-3.05a1.43 1.32-7.3 0 1 .31-.37q4.1-3.43 8.03-7.46a1.46.04-58.9 0 0 .69-1.07q.25-.41.74-.99 4.37-1.81 7.77-5.62a3.09 3.04 20.4 0 1 2.3-1.03h3.23a3.25 3.25 0 0 0 3.21-2.72l.62-3.75a2.07 2.06-14.9 0 1 .73-1.25q12.62-10.48 14.14-12.01c2.24-2.25 5.18-3.71 7.17-6.54 1.21-1.71 3.39-3.1 5.16-3.9a.51.5-46.3 0 0-.02-.93c-2.54-1-3.45-2.64-5.52-3.84a.46.45 48.1 0 1 .04-.81q1.1-.51 2.3.28.08.05 4.81 3.58a.66.66 0 0 0 .84-.03c1.34-1.18 2.09-2.87 4.16-4.18q2.09-1.32 2.34-2.73 5.09-1.67 11.18-1.04 2.35.24 4.28-1.52 2.31-.92 3.53-2.58l1.39-.87a.92.92 0 0 0 .44-.73l.17-2.31q1.51.1 2.97-.4a1.5 1.49 46.5 0 1 1.07.03q1.4.59 3.11.66a.35.35 0 0 1 .28.54q-1.49 2.27-.48 2.36.05 0 .71.15a.59.58-76.9 0 1 .44.71q-.18.77.17 1.59a.9.89 76.5 0 0 .86.53c1.68-.07 2.83.74 4.49.37q.97-.21 1.15.81a.66.66 0 0 0 1.24.17q.41-.87-.06-1.8a.4.4 0 0 1 .34-.58l.55-.01zm-17.44.62q-.1.48.56.51.47.02.32-.38a.51.4 46.5 0 0-.88-.13zm66.67 16.13q-1.1-.41-4.2-.9c-9.65-1.55-19.34-3.15-29.04-3.66q-3.25-.17-7.39-.98c-1.36-.26-3.92-.06-5.9-.29q-2.81-.34-19.14-2.84c-3.78-.58-7.55-.63-10.74-1a3.72 3.69 27.6 0 0-2.86.88l-23.54 20.47a1.05 1.05 0 0 0-.04 1.56q.07.07.53.13 12.53 1.57 24.73 3.33 5.48.8 8.19 2.16a2.35 2.34-33.2 0 0 1.21.25q6.78-.45 13.98 2.04a2.71 2.65-36.2 0 0 .97.14q.87-.04 5.59.45 10.21 1.06 22.52 2.92a3.63 3.61-63 0 0 3.11-1.02l22.31-22.31a.81.81 0 0 0-.29-1.33zm18.54 3.7a.61.61 0 1 0-1.22 0 .61.61 0 1 0 1.22 0zm-2.582 2.078a.72.54-37.9 0 0-.9.016.72.54-37.9 0 0-.236.868.72.54-37.9 0 0 .9-.016.72.54-37.9 0 0 .236-.868zM293 197.9q-.07.49.19 1.02a.39.36-52 0 0 .69-.12q.16-.51-.16-.97a.42.36 34.9 0 0-.72.07zm18.142.695a.69.52-63.1 0 0-.776.38.69.52-63.1 0 0 .151.851.69.52-63.1 0 0 .776-.38.69.52-63.1 0 0-.151-.851zm-11.032 5.655q.43-2.36 2.91-2.4a.51.51 0 0 0 .5-.58q-.18-1.12-.26-1.09-1.94.76-3.08 1.7-1.22 1-1.08 2.33a.51.51 0 0 0 1.01.04zm13.802-.805a1.24.61-95 0 0-.5 1.288 1.24.61-95 0 0 .716 1.182 1.24.61-95 0 0 .5-1.288 1.24.61-95 0 0-.716-1.182zM299.84 214.03q-.36-.86-.02-1.6a.6.6 0 0 1 .84-.27q1.52.86 2.1 2.53c.4 1.18-1.08 2.67-.94 4.25a.4.39-20.6 0 0 .63.28l2.92-2.14a2.46 2.46 0 0 0 .86-2.8q-1.07-3.05-2.88-5.82a1.9 1.87-42.5 0 0-3.06-.11q-1.17 1.49-2.81.41a1.17 1.15-38.2 0 0-1.07-.12q-2.44.92-3.14 2.92a.96.96 0 0 0 1.29 1.2q.53-.23 1.68-1.08a1.22 1.19-20.2 0 1 1.93.87q.06 1.19 1.01 1.97a.42.42 0 0 0 .66-.49zm-16.17-4.58a.82.82 0 1 0-1.64 0 .82.82 0 1 0 1.64 0zm-16.059.1a1.02.73-165.8 0 0 .81.958 1.02.73-165.8 0 0 1.168-.458 1.02.73-165.8 0 0-.81-.958 1.02.73-165.8 0 0-1.168.458zm-96.075 1.858a.63.42-12.1 0 0-.704-.279.63.42-12.1 0 0-.528.543.63.42-12.1 0 0 .704.279.63.42-12.1 0 0 .528-.543zm-8.354 1.434a.81.47-50.8 0 0-.876.331.81.47-50.8 0 0-.148.925.81.47-50.8 0 0 .876-.331.81.47-50.8 0 0 .148-.925zm27.488 2.168a.31.3 10.2 0 0 .44-.29q-.04-.34-.33-.52a.32.29-76.2 0 0-.45.3q0 .37.34.51zm86.518-.376a.76.59-111.8 0 0-.266.925.76.59-111.8 0 0 .83.487.76.59-111.8 0 0 .266-.925.76.59-111.8 0 0-.83-.487zM305.7 256.4q1.02 3.53 2.75 5.36a1.23 1.22-59 0 0 2.07-.52q1.28-4.62-2.93-7.12-.11-.07-.2-.03-.33.15-.35.15a.47.46 6.8 0 1-.39-.49q.25-2.9-.47-3.96-4.2-6.22-7.77-12.47a3.51 3.28 9.4 0 0-.6-.78q-1.51-1.5-2.77-3.57-1.98-3.25-6.23-10.66a5.04 4.6-84.4 0 0-.68-.91q-2.72-2.85-4.43-5.96a.65.65 0 0 0-.92-.24q-4.99 3.16-8.12 7.74a.62.61 46.7 0 0-.01.68l24.44 36.96a1.05 1.05 0 0 0 1.75 0c1.47-2.22 2.39-4 4.13-4.57a.58.57-16.6 0 1 .73.39zm-127.547-41.151a.71.34-46 0 0-.738.274.71.34-46 0 0-.249.747.71.34-46 0 0 .738-.275.71.34-46 0 0 .249-.747zm9.367 1.871q-.41.08-.42.55a.22.22 0 0 0 .17.23q.27.08.48-.13a.39.33-68.8 0 0-.23-.65zm134.684-.006a.89.64-119.3 0 0-.123 1.089.89.64-119.3 0 0 .994.463.89.64-119.3 0 0 .123-1.089.89.64-119.3 0 0-.994-.463zm-111.664.186q-.35.09-.4.74a.22.2-69.2 0 0 .06.15q.25.21.53-.12a.49.34-69.1 0 0-.19-.77zm-12.88 1.13a.18.18 0 0 0-.34.04q-.07.34-.05.4a.19.18 58.3 0 0 .33.08q.17-.24.06-.52zm73.838 1.627a1.13.8-96.2 0 0-.673 1.21 1.13.8-96.2 0 0 .917 1.037 1.13.8-96.2 0 0 .673-1.21 1.13.8-96.2 0 0-.917-1.037zm-64.098.263a.37.28 42.9 0 0 .11.62q.35.14.63-.11a.28.24-56.8 0 0-.06-.45q-.42-.11-.68-.06zm95.94 7.79q-.51-.14-.95-.02a.79.76-27.1 0 0-.43 1.23c2.8 3.32 6.15 5.36 6.56 10.18a.89.88 56.1 0 0 1.67.33l2.34-4.6q2.12.52 4.38-2.82a2.54 2.54 0 0 0-.05-2.93l-4.13-5.63a.72.72 0 0 0-1-.16l-1.94 1.42a.67.67 0 0 1-.94-.14q-.46-.63-1.05-.67a1.33 1.26-56.4 0 0-.74.17q-2.45 1.38-3.72 3.64zm-70.46 11.36a1.47 1.47 0 0 0-.81-2.49l-80.28-12.7a1.47 1.47 0 0 0-1.2.34l-8.14 7.08a1.47 1.47 0 0 0 .73 2.56l80.61 13.42a1.47 1.47 0 0 0 1.28-.41l7.81-7.8zm13.187-13.567a1.04.66-18.3 0 0-1.195-.3 1.04.66-18.3 0 0-.78.953 1.04.66-18.3 0 0 1.195.3 1.04.66-18.3 0 0 .78-.953zm5.043 2.567l5.02.06a.28.28 0 0 0 .28-.28v-.01a1.45 1.09-89.4 0 0-1.07-1.46l-3.4-.04a1.45 1.09-89.4 0 0-1.11 1.44v.01a.28.28 0 0 0 .28.28zm76.955-1.514a.95.74-139.7 0 0 .246 1.179.95.74-139.7 0 0 1.203.05.95.74-139.7 0 0-.246-1.179.95.74-139.7 0 0-1.203-.05zm-67.726 1.494a.45.45 0 0 0-.07.37c1.03 3.79 2.56 4.6 5.3 7.21a.32.31-46.9 0 0 .45-.02l.05-.05a.35.34-47.9 0 0-.02-.49q-3.6-3.1-4.61-7.36a.43.43 0 0 0-.78-.15l-.32.49zm73.777 8.007a1.12.52-173.7 0 0 1.056.64 1.12.52-173.7 0 0 1.17-.394 1.12.52-173.7 0 0-1.056-.64 1.12.52-173.7 0 0-1.17.394zm-8.007 11.053l-6.94-10.49a1.32 1.32 0 0 0-2.34.26l-.64 1.68a4.22 4.2 38 0 0 .49 3.91l4.71 6.74a.68.68 0 0 0 1.18-.12l.06-.2a1.41 1.36-54.9 0 0-.18-1.14l-5.41-8.13a.65.65 0 0 1 .61-1.01l.28.04a1.72 1.67 77.3 0 1 1.12.73l5.51 8.34a.7.69 83.9 0 0 .32.26l.42.16a.69.69 0 0 0 .81-1.03zm-71.532-9.609a1.09.82-135.1 0 0 .193 1.35 1.09.82-135.1 0 0 1.351.189 1.09.82-135.1 0 0-.193-1.35 1.09.82-135.1 0 0-1.351-.189zm-13.648.819a.58.58 0 0 0-1.16 0 .58.58 0 0 0 1.16 0zm23.557-.155a1.04.63-145.1 0 0 .492 1.112 1.04.63-145.1 0 0 1.214.078 1.04.63-145.1 0 0-.493-1.112 1.04.63-145.1 0 0-1.213-.078zm-2.161 2.081a1.21.85-109 0 0-.41 1.421 1.21.85-109 0 0 1.198.867 1.21.85-109 0 0 .41-1.421 1.21.85-109 0 0-1.198-.867zm9.864 1.194q-.03-.39-.39-.86a.37.35-50.3 0 0-.61.07q-.37.72.25 1.15a.48.44 16.7 0 0 .75-.36zm-143.319 1.147a1.09.47-29.3 0 0-1.181.123 1.09.47-29.3 0 0-.721.943 1.09.47-29.3 0 0 1.181-.124 1.09.47-29.3 0 0 .721-.943zm125.27 37.563l1.68 3.42c3.37 4.4 9.28 8.55 14.79 7.3a1.86 1.77-70.8 0 0 .82-.42l5.46-4.98 3.63-.86a1.41 1.39-45.4 0 1 .64-.01q1.88.36 4.27-.81a1.69 1.67 88.6 0 0 .76-.81l3.1-7.17a.16.15-5.7 0 1 .08-.09l4.96-2.67a.35.34 72.8 0 0 .18-.35q-.04-.39-.46-.48 1.68.18 1.71-1.89.03-3.32-.9-7.21a1.25 1.23-66.4 0 0-.13-.34l-3.63-6.72a1.31 1.3-83.3 0 0-.25-.32q-.84-.77-1.06-1.24-2.89-6.16-8.67-9.96a1.71 1.7 56.9 0 0-1.22-.26c-2.61.4-3.89.65-6.19 3.04q-1.57 1.64-4.29 2.02a1.05 1.02-82.3 0 0-.81.63q-.26.61.06 2.5a.27.14-18.3 0 1-.19.2q-.09.04-.32-.11a.15.15 0 0 1-.05-.2q.48-.82.04-1.76a.89.87-4.5 0 0-.55-.46q-.72-.19-1.15-.66a2.12 2.11 49.9 0 1 .26-3.12l3.25-2.49a.58.58 0 0 0-.5-1.03q-.09.03-.4.87-.15.39-.7.69-2.44 1.32-3.64 3.28a1.12 1.12 0 0 1-.49.43q-.21.09-.22.09a2.19 2.13-84.7 0 0-.81.69q-2.74 3.93-7.67 8.46c-2.62 2.41-3.1 5.02-3.96 8.93-.68 3.12.31 7.19 1.06 9.8a.39.35 9 0 0 .19.23q.12.06.25.12.15.06.21.42.35 1.84.86 3.3zm-4.735-36.708a1.16.77-86.3 0 0-.843 1.108 1.16.77-86.3 0 0 .694 1.207 1.16.77-86.3 0 0 .843-1.108 1.16.77-86.3 0 0-.694-1.207zm-125.343 2.532a.97.76-59.5 0 0-1.147.45.97.76-59.5 0 0 .162 1.222.97.76-59.5 0 0 1.147-.45.97.76-59.5 0 0-.163-1.221zm29.373.559a.72.53-84.8 0 0-.593.669.72.53-84.8 0 0 .463.765.72.53-84.8 0 0 .593-.669.72.53-84.8 0 0-.462-.765zm9.339 2.4a1.13.63-148.7 0 0 .638 1.125 1.13.63-148.7 0 0 1.293.049 1.13.63-148.7 0 0-.638-1.125 1.13.63-148.7 0 0-1.293-.049zm151.376 7.277q.45-4.09-2.92-6.33a1.01 1.01 0 0 0-1.03-.05q-.74.38-1.49 1.53a.39.39 0 0 0 .44.59q1.21-.34 2.03.77.99 1.36 2.25 3.63a.38.38 0 0 0 .72-.14zm-71.435-6.375a1.19.98-113 0 0-.437 1.478 1.19.98-113 0 0 1.367.713 1.19.98-113 0 0 .437-1.478 1.19.98-113 0 0-1.367-.713zm96.785 2.725l-2.28 1.63a.09.09 0 0 0-.02.12l.23.31a.28.27-35.7 0 0 .39.06l1.57-1.14a.76.76 0 0 1 .92 0q2.93 2.19 4.32 6.06a.81.8-29.6 0 1-.25.89q-1.54 1.27-2.13 3.21a.39.39 0 0 0 .68.35l2.52-3.11a1.19 1.14-77.6 0 1 .57-.38q1.31-.4 2.27-1.25.87.22 1.42.01a.14.14 0 0 0-.06-.27c-3.1.03-4.97-3.75-5.61-6.3q-.36-1.46-1.71-2.44-1.05-.75-1.94.26-.69.77-.89 1.99zm-145.07 2.748a.95.72-179.3 0 0 .941.732.95.72-179.3 0 0 .959-.708.95.72-179.3 0 0-.941-.731.95.72-179.3 0 0-.959.708zm-49.67 4.582l-3.11-2.2a.56.56 0 0 0-.78.77q2.04 2.95-.82 5.26a.83.82 73.1 0 0-.3.57l-.72 11.88a1.63 1.36-40 0 1-.06.34q-1.55 4.89-.06 9.56-1.32 4.53-1.72 11.41-.29 4.98-2.07 26.38-.31 3.78-.26 5.87a.51.51 0 0 0 .97.22q1.21-2.37 3.52-4.16a4.48 4.28-88.3 0 0 .77-.76q3.47-4.36 4.98-5.36 5.18-3.42 7.89-7.62a2.62 2.49-3 0 1 .66-.7q.48-.35 5.94-5.04.99-.86 2.38-.49 2.26.6 4.15-.76a1.22 1.2-53.4 0 1 1.1-.17q.98.34 4.29.16 3.76-.2 8.98 1.1 12.98 3.25 22.58 12.23 3.47 3.24 8.27 7.3.74.63.75 1.15a1.04 1.02 20.8 0 0 .34.74q3.51 3.2 7.2 8.89 2.33 3.6 3.7 7.52.37 1.07 3.07 8.12a1.87 1.65-63.2 0 1 .11.42l.51 4.19a.72.71 74 0 1-.41.75l-3.65 1.69a.17.17 0 0 0-.09.19l.07.25a.55.54-12.3 0 0 .62.39q5.24-.92 9.62-2.41 3.52-1.2 7.73-2.08 4.33-.91 7.68-2.25a4.98 4.75 29.9 0 1 1.27-.31q1.99-.21 3.37-.63 5.69-1.72 11.69-2.87a1.34 1.33-79.7 0 0 .9-.63q.59-.98 2.03-1.71a.53.53 0 0 1 .7.21q.76 1.31 2.24 1.47a.35.35 0 0 0 .28-.59l-2.27-2.27a1.12 1.1 27 0 1-.31-.92q.66-5.06.02-7.34-.48-1.73-3-4.06-1.88-3.69-4.6-6.74a4 3.93-81.4 0 1-.52-.72q-4.15-7.27-9.56-13.93c-1.7-2.08-2.15-4.58-4.59-6.4a1.29 1.13 5.6 0 1-.31-.33l-3.27-4.94a.1.08 49.1 0 0-.14-.02l-.43.43a.37.36-40.4 0 0-.04.47l5.65 7.71a.47.47 0 0 1-.16.69q-.28.16-.85.15-.87-.6-1.37-.21a.35.35 0 0 0-.13.37q.41 1.73 2.26 1.24.24 5.61-3.28 10.51l-1.8-2.87a2.05 2.05 0 0 0-2.95-.55q-2.03 1.5-5.33 1.91a2.67 2.62 25.5 0 0-1.04.36q-1.78 1.09-3.59 1.49a.52.52 0 0 0-.12.98l4.44 2.13 5.4 7.22a.96.95-31 0 1-.36 1.44l-.9.42a1.41 1.41 0 0 1-1.87-.68q-1.98-4.18-5.4-7.48a.98.95 66.5 0 0-.63-.26q-.54-.03-.93-.62a.57.56 57 0 0-.79-.17c-3.79 2.5-3.33 5.97-2.54 9.93a3.71 3.51-66 0 0 .32.91c1.36 2.73 3.43 5.64 2.92 8.89q-2.46-5.88-4.79-9.29-3.21-4.7-9.41-11.82-3.41-3.92-7.41-7.08c-5.24-4.15-9.5-8.3-14.75-10.58-6.31-2.75-10.32-5.1-16.25-6.08q-3.1-.51-9.39-1.1a.55.55 0 0 1-.32-.95l8.95-8.22a11.82 9.71-29.6 0 0 1.14-1.18l5.25-6.2q5.01-2.97 8.21-7.85.97-1.49 5.43-4.27a.81.73-81.7 0 0 .18-.15l2.14-2.42q.68 1.09 1.66.98a.6.58-67.7 0 0 .32-.14q.31-.29.4-.83 1.2.14 2.19-.09.39.39.99.37a.38.38 0 0 0 .29-.6q-.74-.99-.67-2.16a.76.74-83.6 0 0-.62-.79q-.49-.08-1.24.11-4.94-1.24-10.55-2.03-.56-.08-1.45.28l-1.66-.59q-8.01-2.68-16.4-3.08a.51.51 0 0 0-.54.46v.02a.56.56 0 0 0 .49.62q1.67.19 3.2.71a.71.68 23.7 0 1 .41.99q-.19.33-.82.53-1.38-.87-3.02-1-.69-.06-.88-.26-.32-.34-.43-.75a.9.81-28.8 0 0-1.39-.33q-.58.47-1.26.23-.39-.13-.36-.6.05-.73-.45-.91a.21.19-46.8 0 0-.16.01l-1.9.94a.94.93-81 0 1-1.08-1.49q.04-.04.04-.07a.43.43 0 0 0-.31-.48q-7.55-2.04-14-2.11a1.26 1.04-18.2 0 1-.85-.33q-.13-.14-.54-.16a.4.4 0 0 0-.42.38l-.09 1.48a.56.55 5.4 0 1-.62.51q-.55-.06-.74.28c-.22.38.19.7.35.96a.61.61 0 0 1-.09.76q-.31.3-1.02.34zm71.6-4.17a.66.66 0 0 0-1.32 0 .66.66 0 1 0 1.32 0zm20.976.986a1.1.89-70 0 0-1.212.729 1.1.89-70 0 0 .46 1.338 1.1.89-70 0 0 1.213-.729 1.1.89-70 0 0-.46-1.338zM341.02 273.39q2.12-1.34 1.41-3.18-1.54-4.03-4.16-6.83a10.35 10.26-78.7 0 1-1.91-2.89c-.81-1.83-2.03-3.57-4.14-3.55q-1.03.01-1.58 1.5a.31.3-88.3 0 0 .37.4q2.02-.67 3.34 1.07 2.7 3.54 4.59 6.64a1.41 1.41 0 0 1 .21.74v1.54a.87.85-74.3 0 0 .4.73q2.39 1.5 1.24 3.63a.16.15-2.9 0 0 .23.2zm-225.792-15.573a1 .46-121.5 0 0 .13 1.093 1 .46-121.5 0 0 .915.612 1 .46-121.5 0 0-.13-1.093 1 .46-121.5 0 0-.915-.612zm98.426.39a.68.42-51.5 0 0-.752.271.68.42-51.5 0 0-.095.794.68.42-51.5 0 0 .752-.271.68.42-51.5 0 0 .095-.794zm-75.566 1.901a.9.72-109 0 0-.388 1.085.9.72-109 0 0 .974.617.9.72-109 0 0 .388-1.085.9.72-109 0 0-.974-.617zm64.203 2.691a.88.81-82.9 0 0 1.27-1.08q-.26-.52-.92-.81a.37.36 9 0 0-.52.37q.14 1.49.17 1.52zm138.061-2.048a1.01.53-93.9 0 0-.46 1.044 1.01.53-93.9 0 0 .597.972 1.01.53-93.9 0 0 .46-1.044 1.01.53-93.9 0 0-.598-.972zm-35.721.219a1.27.66-104.6 0 0-.319 1.395 1.27.66-104.6 0 0 .959 1.063 1.27.66-104.6 0 0 .319-1.395 1.27.66-104.6 0 0-.959-1.063zm-5.17 3.289q.87-.83 1.32-1.71a.34.34 0 0 0-.57-.36q-.96 1.28-1.07 1.9a.19.19 0 0 0 .32.17zm-76.29-1.34c-1.45.56-1.48 2.45-3.15 3.1a.55.54 42.5 0 0 .06 1.03q.72.22 1.13-.36 1.17-1.67 2.48-2.99a.48.48 0 0 0-.52-.78zm4.99 4.34q.43-.24-.64-2.76-.65-1.55-1.5-1.08-.85.48.13 1.85 1.58 2.23 2.01 1.99zm124.084-3.451a.69.51-121.1 0 0-.08.854.69.51-121.1 0 0 .793.327.69.51-121.1 0 0 .08-.854.69.51-121.1 0 0-.793-.327zM216.93 264.86q-.98-.88-2.57.2a.32.32 0 0 0 .2.58l2.16-.16a.36.35-26.6 0 0 .21-.62zm84.41 2.02l1.35-.19a.81.8 85.5 0 0 .69-.81q-.01-.63-.26-1.06a.42.42 0 0 0-.71-.02l-1.24 1.81a.18.17 13.3 0 0 .17.27zm34.17 40q3.57-.03 1.77-2.92l1.68-2.99a2.41 2.4 39.1 0 0-.29-2.76q-2.11-2.43-3.41-4.47-6.51-10.21-13.38-20.11-1.93-2.78-5.1-8.04a1.15 1.15 0 0 0-1.8-.22l-6.69 6.69a1.63 1.61-39.3 0 0-.21 2.04l23.87 36.11a.63.63 0 0 0 1.02.04l2.54-3.37zm1.89-36.31c.34-1.57-1.64-4.13-2.73-5.59a.53.52-41 0 0-.79-.05l-.3.29a.82.81 45.3 0 0 0 1.15l2.71 2.71a1.23 1.22-64.6 0 1 .36 1.02q-.04.33.02.5a.38.38 0 0 0 .73-.03zm-39.474-5.243a.98.6-68.7 0 0-.915.695.98.6-68.7 0 0 .203 1.131.98.6-68.7 0 0 .915-.695.98.6-68.7 0 0-.203-1.131zm-84.676 1.803q-1.04 1.19.06 3.04a1.76 1.73 26 0 1 .22.62q.47 3.41 4.4 4.14a.1.09-66.4 0 0 .11-.05q.12-.19-.01-.44-.06-.11-.33-.13-2.14-.14-3.06-2.81-.68-2.01-.61-4.07a.44.44 0 0 0-.78-.3zm9.98 3.66q1.17 1.1 1.52 1.11a.58.58 0 0 0 .61-.59q-.02-2.3-1.98-4.4a.39.39 0 0 0-.63.44q.39.74.94 1.43.32.41.29.76-.03.51-.6.66a.35.34 59.7 0 0-.15.59zm-16.5-.09q-1.61.21-3.64-.82a.1.09 36.2 0 0-.09.01l-1.03.79a.15.15 0 0 0 .04.26l3.59 1.14a.9.89 42.8 0 0 .61-.02q1.07-.43 1.09-1.27.55-.15 1.42.34a.41.4 54.3 0 1-.12.75q-1.69.31-1.1 2.34a.45.45 0 0 0 .85.03l.17-.46a.67.66 17.6 0 1 .79-.4q.87.22 2.26-.05a.71.7 74.2 0 0 .52-.94l-1-2.66-.31-1.02q.11-.33.1-.63a.54.54 0 0 0-.72-.48l-1.98.73a1.24 1.23 86.5 0 0-.78.89q-.21.92-.67 1.47zm7.964-2.721a1.49.42-166 0 0 1.344.768 1.49.42-166 0 0 1.547-.047 1.49.42-166 0 0-1.344-.768 1.49.42-166 0 0-1.547.047zm89.556.191q-1.13 1.2-1.13 1.22a.51.51 0 0 0 .82.56q1.03-.94.96-1.56a.38.38 0 0 0-.65-.22zm-4.72 1.81q.32-.29.34-1.1a.38.38 0 0 0-.56-.34q-.59.33-.73.68a.65.6 81.7 0 0 .95.76zm-64-.17l.69.95a.49.49 0 0 0 .85-.12q.38-1.05-.84-1.66a.56.56 0 0 0-.7.83zm-19.652.412a1.28.49-143.7 0 0 .742 1.153 1.28.49-143.7 0 0 1.322.363 1.28.49-143.7 0 0-.742-1.153 1.28.49-143.7 0 0-1.322-.363zm17.99 1.262a1.14.95-94.6 0 0-.855 1.212 1.14.95-94.6 0 0 1.038 1.06 1.14.95-94.6 0 0 .856-1.213 1.14.95-94.6 0 0-1.038-1.06zm67.288.2a.52.32-107.2 0 0-.152.591.52.32-107.2 0 0 .459.402.52.32-107.2 0 0 .152-.591.52.32-107.2 0 0-.459-.402zm-74.456.627a.36.35-67 0 0-.41.17l-.86 1.59a1.36 1.36 0 0 1-.88.67l-5.61 1.34a.19.19 0 0 0-.15.22l.05.41a.51.49 84.2 0 0 .51.43q4.95-.19 7.57-4.22a.41.4-62.9 0 0-.19-.6l-.03-.01zm-24.01.94q-.06-.05-2.62-.35a.44.43 63.1 0 0-.26.81q.53.31 2.7.09a.32.32 0 0 0 .18-.55zm21.502 4.094a1.77.86-130 0 0 .479 1.909 1.77.86-130 0 0 1.797.803 1.77.86-130 0 0-.479-1.909 1.77.86-130 0 0-1.797-.803zm-10.456.562a2.12 1.18-134.8 0 0 .656 2.336 2.12 1.18-134.8 0 0 2.331.673 2.12 1.18-134.8 0 0-.657-2.336 2.12 1.18-134.8 0 0-2.331-.673zm25.214.814a.84.84 0 0 0-1.68 0 .84.84 0 0 0 1.68 0zm-16.736-.032a1.06.73-114.9 0 0-.216 1.269 1.06.73-114.9 0 0 1.108.654 1.06.73-114.9 0 0 .216-1.269 1.06.73-114.9 0 0-1.108-.654zm133.077 1.362a.83.48-129.6 0 0 .159.945.83.48-129.6 0 0 .899.334.83.48-129.6 0 0-.159-.945.83.48-129.6 0 0-.899-.334zm-55.931 1.43a.82.82 0 0 0-1.64 0 .82.82 0 0 0 1.64 0zm54.172 1.663a.78.63-68.8 0 0-.87.499.78.63-68.8 0 0 .305.955.78.63-68.8 0 0 .87-.499.78.63-68.8 0 0-.305-.955zm-57.05.787a.98.75-52.8 0 0-1.19.327.98.75-52.8 0 0 .005 1.234.98.75-52.8 0 0 1.19-.327.98.75-52.8 0 0-.005-1.234zm54.467 1.933a.92.63-86.3 0 0-.688.877.92.63-86.3 0 0 .569.959.92.63-86.3 0 0 .688-.877.92.63-86.3 0 0-.569-.959zM246.41 289.13a1.16 1.16 0 0 0-2.32 0 1.16 1.16 0 0 0 2.32 0zm-15.742.956a1.23.74-160.8 0 0 .918 1.103 1.23.74-160.8 0 0 1.405-.294 1.23.74-160.8 0 0-.918-1.103 1.23.74-160.8 0 0-1.405.294zm75.212 1.254a.87.87 0 1 0-1.74 0 .87.87 0 1 0 1.74 0zm41.32 1.85a.49.49 0 0 0-.98 0 .49.49 0 0 0 .98 0zm-44.408.945a.86.72-57.5 0 0-1.069.338.86.72-57.5 0 0 .145 1.112.86.72-57.5 0 0 1.069-.338.86.72-57.5 0 0-.145-1.112zm-51.182 5.855q.13 1.43 1.3.94.8-.34.74-1.12-.07-.78-.91-.98-1.25-.28-1.13 1.16zm90.929-.463a.62.42 2.5 0 0-.601-.447.62.42 2.5 0 0-.638.393.62.42 2.5 0 0 .601.447.62.42 2.5 0 0 .638-.393zM238.4 301.64q.46.48.84.57a.58.58 0 0 0 .71-.45q.2-1.09-.15-1.46-.36-.37-1.45-.21a.58.58 0 0 0-.49.69q.08.38.54.86zm73.73-.52a.74.74 0 1 0-1.48 0 .74.74 0 1 0 1.48 0zm-2.84 3.2q-.01-.02-.9-.67a.34.34 0 0 0-.54.32q.02.2.67.9a.48.48 0 0 0 .77-.55zm-49.772 4.593a1.31.86-98 0 0-.669 1.417 1.31.86-98 0 0 1.034 1.178 1.31.86-98 0 0 .669-1.417 1.31.86-98 0 0-1.034-1.178zm54.752.387q0 .26.39 1.03a.25.25 0 0 0 .47-.12q-.01-.23-.49-1.01a.2.2 0 0 0-.37.1zm3.31 1.25q-.02.06.01.42a.39.39 0 0 0 .48.35q.77-.16.78-.62a.67.63-36.5 0 0-1.27-.15zm4.32 2.84l.92-.61a.43.43 0 0 0 .1-.63q-.11-.14-.28-.22-.29-.12-.61.34-.41.6-.51.77a.27.26-2 0 0 .38.35zm11.05-.79a.43.43 0 1 0-.86 0 .43.43 0 1 0 .86 0zm-17.47 1.04a.67.56-90 0 0-.56.67.67.56-90 0 0 .56.67.67.56-90 0 0 .56-.67.67.56-90 0 0-.56-.67zm5.23 3.73q-.05-.47-.07-.5a.25.25 0 0 0-.47.15q.03.2.19.47a.19.19 0 0 0 .35-.12zm-.24 1.12l1.92 2.2a.23.22 10.5 0 0 .37-.25q-.84-1.55-2.12-2.17a.14.14 0 0 0-.17.22zm-1.312.731a.59.31-30.5 0 0-.666.032.59.31-30.5 0 0-.351.566.59.31-30.5 0 0 .666-.032.59.31-30.5 0 0 .351-.567zm-52.894.55a1.1.72-134.1 0 0 .248 1.291 1.1.72-134.1 0 0 1.283.289 1.1.72-134.1 0 0-.248-1.291 1.1.72-134.1 0 0-1.283-.289zm50.698 1.922a.7.51-100.5 0 0-.374.781.7.51-100.5 0 0 .629.595.7.51-100.5 0 0 .374-.781.7.51-100.5 0 0-.629-.595zm6.598 1.908q-6.05.35-3.43 6.26a.92.92 0 0 0 .74.55q.48.05 1.08-.11.52 1 1.12.01 1.31-2.18 3-4.05l1.87-1.05a.46.46 0 0 0 .1-.72l-.38-.37a.59.58 51.6 0 0-.72-.09q-.4.25-.91.9-4.73-5.85-2.47-1.33zm-5.36 8.97a.33.33 0 0 0 .6-.12q.09-.49-.17-1.01a.27.27 0 0 0-.51.09q-.1.77.08 1.04zm-5.557 5.94a.91.64-134.4 0 0 .179 1.098.91.64-134.4 0 0 1.094.202.91.64-134.4 0 0-.179-1.098.91.64-134.4 0 0-1.094-.202zm-32.235 1.431a1.01.67-111.6 0 0-.251 1.186 1.01.67-111.6 0 0 .995.692 1.01.67-111.6 0 0 .251-1.186 1.01.67-111.6 0 0-.995-.692zm-153.209 4.62a1.97.49-2 0 0-1.986-.421 1.97.49-2 0 0-1.952.558 1.97.49-2 0 0 1.986.421 1.97.49-2 0 0 1.952-.559zm10.648-.332a1.85.43-160.4 0 0 1.599 1.026 1.85.43-160.4 0 0 1.887.215 1.85.43-160.4 0 0-1.599-1.026 1.85.43-160.4 0 0-1.887-.216zm170.242 1.2a.82.62-70.1 0 0-.862.56.82.62-70.1 0 0 .304.982.82.62-70.1 0 0 .862-.56.82.62-70.1 0 0-.304-.982zm-181.609 2.3l-3.4.47a.76.75 1 0 0-.63.6q-.28 1.57-2 2.15a.59.59 0 0 0-.09 1.08q2.02 1.09 4.21 1.02a1.31 1.29-24.8 0 1 .92.33q.55.49.84.64a.48.48 0 0 0 .71-.42v-5.38a.49.49 0 0 0-.56-.49zm162.47 3.24a1.04 1.04 0 0 0-2.08 0 1.04 1.04 0 1 0 2.08 0zm4.057 2.292a.78.62-154.3 0 0 .434.897.78.62-154.3 0 0 .972-.22.78.62-154.3 0 0-.434-.897.78.62-154.3 0 0-.972.22zm9.173-.172q-.25.49-.14 1.08a.39.36-39.1 0 0 .71.04q.26-.5.13-.97a.4.36 53.8 0 0-.7-.15zm-178.33 4.6q-.14-.03-.66.23a.53.53 0 0 0-.05.93q1.85 1.19.97 2.49a.5.5 0 0 0 .35.78q.63.09 1.04-.13.35-.19.37-.89.08-3.94.76-5.91a.66.66 0 0 0-1.08-.69q-1.19 1.13-1.11 2.69a.48.48 0 0 1-.59.5zm168.24-1.27a.5.5 0 1 0-1 0 .5.5 0 1 0 1 0zm-3.87 7.41q.01.01.62.07a1 .99 7.4 0 1 .88 1.14l-.1.58a1.07 1.07 0 0 0 .89 1.22l.55.09a.6.6 0 0 0 .64-.85l-.78-1.68a1.2 1.2 0 0 1 1.65-1.57q1.61.86 2.81 2.79a.71.7 55.4 0 0 1.02.19q1.5-1.15 2.12-2.37a.4.4 0 0 0-.59-.5q-1.69 1.25-2.87-.63a1.23 1.22 81.8 0 0-.7-.53q-.75-.23-1.5.47a.88.85-61.7 0 1-.69.22l-2.87-.38a1.12 1.12 0 0 0-1.08 1.74z" class="C"/><path d="M212.56 171.32q-1.22 1.66-3.53 2.58.33-.86-1.51-1.49.61-.37.52-1.07 2.22-.39 4.52-.02z"/><path d="M208.04 171.34q.09.7-.52 1.07-.92.14-1.66-.13a.42.42 0 0 1 .05-.81q.95-.23 2.13-.13zm27.92 1.72q-.43.4-1.53.33a.63.63 0 0 0-.67.68l.11 1.46a.43.43 0 0 1-.43.47h-.3a.43.42 0 0 1-.43-.42v-1.37a.6.6 0 0 0-.57-.6q-.46-.02-.55 0-.41.08-.45-.43-.03-.32.26-.64 3.74-1.18 4.56.52zm43.75-.32H279q.29-.19.71 0zm-65.75.42a.51.4 46.5 0 1 .88.13q.15.4-.32.38-.66-.03-.56-.51zm58.51.62q-.04.21.02.5-.4-.07-.4-.28-.01-.38.38-.22zm-.48 1.65a.49.49 0 0 1 .95.17q.03 1.41 1.08 1.01a.77.75 61.1 0 1 .89.27l.4.54a.58.58 0 0 1-.47.93h-2.04a.8.8 0 0 1-.8-.72q-.17-1.76-.01-2.2zm-5.35-.13l.43 3.58a.43.43 0 0 1-.53.47q-.6-.14-1.03-.93.27-1.73 1.13-3.12z" class="B"/><path d="M280.63 189.29a.81.81 0 0 1 .29 1.33l-22.31 22.31a3.63 3.61-63 0 1-3.11 1.02q-12.31-1.86-22.52-2.92-4.72-.49-5.59-.45a2.71 2.65-36.2 0 1-.97-.14q-7.2-2.49-13.98-2.04a2.35 2.34-33.2 0 1-1.21-.25q-2.71-1.36-8.19-2.16-12.2-1.76-24.73-3.33-.46-.06-.53-.13a1.05 1.05 0 0 1 .04-1.56l23.54-20.47a3.72 3.69 27.6 0 1 2.86-.88c3.19.37 6.96.42 10.74 1q16.33 2.5 19.14 2.84c1.98.23 4.54.03 5.9.29q4.14.81 7.39.98c9.7.51 19.39 2.11 29.04 3.66q3.1.49 4.2.9zm28.49 5.77l-2.67 1.67a.69.69 0 0 1-.85-.09l-2.11-2.11a2.14 1.99-80.5 0 1-.45-.68q-1.76-4.18-5.65-5.74a1.99 1.98-5.7 0 1-.91-.74c-1.65-2.49-4.42-1.58-6.78-2.09a.74.73 6.7 0 1-.58-.73q.03-1 .44-1.64a.57.56 37.3 0 0-.11-.74l-1.86-1.57 4.73.05a1.02.95-47 0 0 .14-.01q2.15-.46 4.5.49a.95.94 30.4 0 1 .39 1.48q-.79.97-2.29 1.37a.39.39 0 0 0-.11.7c2.68 1.79 4.77-.2 6.7-2.46a.7.69-53.6 0 1 .89-.14q4.21 2.59 6.42 6.39a1.7 1.67-53.1 0 1 .17 1.28q-.52 1.98-.26 2.82a.68.67-5.3 0 0 .57.47q1.9.21 3.09-1.09a.49.49 0 0 1 .66-.05l.22.18a.31.31 0 0 1 .07.4q-1.5 2.39-4.36 2.58z"/><ellipse cx="0" cy="0" transform="matrix(.433659 -.901077 .901077 .433659 178.03 184.97)" rx="2.69" ry=".7" class="B"/><circle cx="298.56" cy="192.99" r=".61"/><g class="B"><ellipse cx="0" cy="0" transform="matrix(.789084 -.614285 .614285 .789084 296.02 195.51)" rx=".72" ry=".54"/><path d="M293 197.9a.42.36 34.9 0 1 .72-.07q.32.46.16.97a.39.36-52 0 1-.69.12q-.26-.53-.19-1.02z"/></g><ellipse cx="0" cy="0" transform="matrix(.452435 -.891798 .891798 .452435 310.83 199.21)" rx=".69" ry=".52"/><path d="M300.11 204.25a.51.51 0 0 1-1.01-.04q-.14-1.33 1.08-2.33 1.14-.94 3.08-1.7.08-.03.26 1.09a.51.51 0 0 1-.5.58q-2.48.04-2.91 2.4z" class="B"/><ellipse cx="0" cy="0" transform="matrix(-.087156 -.996195 .996195 -.087156 314.02 204.68)" rx="1.24" ry=".61"/><path d="M299.84 214.03a.42.42 0 0 1-.66.49q-.95-.78-1.01-1.97a1.22 1.19-20.2 0 0-1.93-.87q-1.15.85-1.68 1.08a.96.96 0 0 1-1.29-1.2q.7-2 3.14-2.92a1.17 1.15-38.2 0 1 1.07.12q1.64 1.08 2.81-.41a1.9 1.87-42.5 0 1 3.06.11q1.81 2.77 2.88 5.82a2.46 2.46 0 0 1-.86 2.8l-2.92 2.14a.4.39-20.6 0 1-.63-.28c-.14-1.58 1.34-3.07.94-4.25q-.58-1.67-2.1-2.53a.6.6 0 0 0-.84.27q-.34.74.02 1.6z"/><circle cx="282.85" cy="209.45" r=".82"/><g class="B"><ellipse cx="0" cy="0" transform="matrix(-.969445 -.245307 .245307 -.969445 268.6 209.8)" rx="1.02" ry=".73"/><ellipse cx="0" cy="0" transform="matrix(.977783 -.209619 .209619 .977783 170.92 211.54)" rx=".63" ry=".42"/><ellipse cx="0" cy="0" transform="matrix(.632029 -.774944 .774944 .632029 162.67 213.47)" rx=".81" ry=".47"/><path d="M190.67 215.01q-.34-.14-.34-.51a.32.29-76.2 0 1 .45-.3q.29.18.33.52a.31.3 10.2 0 1-.44.29z"/><ellipse cx="0" cy="0" transform="matrix(-.371368 -.928486 .928486 -.371368 277.47 215.34)" rx=".76" ry=".59"/></g><path d="M304.97 256.01c-1.74.57-2.66 2.35-4.13 4.57a1.05 1.05 0 0 1-1.75 0l-24.44-36.96a.62.61 46.7 0 1 .01-.68q3.13-4.58 8.12-7.74a.65.65 0 0 1 .92.24q1.71 3.11 4.43 5.96a5.04 4.6-84.4 0 1 .68.91q4.25 7.41 6.23 10.66 1.26 2.07 2.77 3.57a3.51 3.28 9.4 0 1 .6.78q3.57 6.25 7.77 12.47.72 1.06.47 3.96a.47.46 6.8 0 0 .39.49q.02 0 .35-.15.09-.04.2.03 4.21 2.5 2.93 7.12a1.23 1.22-59 0 1-2.07.52q-1.73-1.83-2.75-5.36a.58.57-16.6 0 0-.73-.39z"/><g class="B"><ellipse cx="0" cy="0" transform="matrix(.694658 -.71934 .71934 .694658 177.66 215.76)" rx=".71" ry=".34"/><path d="M187.52 217.12a.39.33-68.8 0 1 .23.65q-.21.21-.48.13a.22.22 0 0 1-.17-.23q.01-.47.42-.55z"/></g><ellipse cx="0" cy="0" transform="matrix(-.489382 -.872069 .872069 -.489382 322.64 217.89)" rx=".89" ry=".64"/><g class="B"><path d="M210.54 217.3a.49.34-69.1 0 1 .19.77q-.28.33-.53.12a.22.2-69.2 0 1-.06-.15q.05-.65.4-.74zm-12.88 1.13q.11.28-.06.52a.19.18 58.3 0 1-.33-.08q-.02-.06.05-.4a.18.18 0 0 1 .34-.04z"/><ellipse cx="0" cy="0" transform="matrix(-.107999 -.994151 .994151 -.107999 271.62 221.18)" rx="1.13" ry=".8"/></g><path d="M207.4 220.32q.26-.05.68.06a.28.24-56.8 0 1 .06.45q-.28.25-.63.11a.37.28 42.9 0 1-.11-.62zm105.13 14.91q-1.92-4.26-4.2-6.45a1.51 1.49 53.5 0 0-1.71-.27q-2.14 1.07-3.28-.4 1.27-2.26 3.72-3.64a1.33 1.26-56.4 0 1 .74-.17q.59.04 1.05.67a.67.67 0 0 0 .94.14l1.94-1.42a.72.72 0 0 1 1 .16l4.13 5.63a2.54 2.54 0 0 1 .05 2.93q-2.26 3.34-4.38 2.82zm-1.624-6.21a2.4.96-120.4 0 0 .386 2.556 2.4.96-120.4 0 0 2.043 1.584 2.4.96-120.4 0 0-.387-2.556 2.4.96-120.4 0 0-2.042-1.584zm-78.026 10.45l-7.81 7.8a1.47 1.47 0 0 1-1.28.41l-80.61-13.42a1.47 1.47 0 0 1-.73-2.56l8.14-7.08a1.47 1.47 0 0 1 1.2-.34l80.28 12.7a1.47 1.47 0 0 1 .81 2.49z"/><g class="B"><ellipse cx="0" cy="0" transform="matrix(.949425 -.313992 .313992 .949425 245.08 226.23)" rx="1.04" ry=".66"/><path d="M251.11 228.47a.28.28 0 0 1-.28-.28v-.01a1.45 1.09-89.4 0 1 1.11-1.44l3.4.04a1.45 1.09-89.4 0 1 1.07 1.46v.01a.28.28 0 0 1-.28.28l-5.02-.06z"/><ellipse cx="0" cy="0" transform="matrix(-.762668 -.64679 .64679 -.762668 328.79 227.57)" rx=".95" ry=".74"/><path d="M260.34 228.45l.32-.49a.43.43 0 0 1 .78.15q1.01 4.26 4.61 7.36a.35.34-47.9 0 1 .02.49l-.05.05a.32.31-46.9 0 1-.45.02c-2.74-2.61-4.27-3.42-5.3-7.21a.45.45 0 0 1 .07-.37zm43-.34q1.14 1.47 3.28.4a1.51 1.49 53.5 0 1 1.71.27q2.28 2.19 4.2 6.45l-2.34 4.6a.89.88 56.1 0 1-1.67-.33c-.41-4.82-3.76-6.86-6.56-10.18a.79.76-27.1 0 1 .43-1.23q.44-.12.95.02z"/><ellipse cx="0" cy="0" transform="matrix(-.506034 -.862514 .862514 -.506034 312.12 231.09)" rx="2.4" ry=".96"/><ellipse cx="0" cy="0" transform="matrix(-.993961 -.109734 .109734 -.993961 335.23 236.58)" rx="1.12" ry=".52"/><path d="M326.11 247.51a.69.69 0 0 1-.81 1.03l-.42-.16a.7.69 83.9 0 1-.32-.26l-5.51-8.34a1.72 1.67 77.3 0 0-1.12-.73l-.28-.04a.65.65 0 0 0-.61 1.01l5.41 8.13a1.41 1.36-54.9 0 1 .18 1.14l-.06.2a.68.68 0 0 1-1.18.12l-4.71-6.74a4.22 4.2 38 0 1-.49-3.91l.64-1.68a1.32 1.32 0 0 1 2.34-.26l6.94 10.49z"/><ellipse cx="0" cy="0" transform="matrix(-.70834 -.705872 .705872 -.70834 255.35 238.67)" rx="1.09" ry=".82"/><circle cx="240.35" cy="238.72" r=".58"/><ellipse cx="0" cy="0" transform="matrix(-.820152 -.572146 .572146 -.820152 265.34 239.16)" rx="1.04" ry=".63"/><ellipse cx="0" cy="0" transform="matrix(-.325568 -.945519 .945519 -.325568 262.72 241.79)" rx="1.21" ry=".85"/><path d="M272.19 241.84a.48.44 16.7 0 1-.75.36q-.62-.43-.25-1.15a.37.35-50.3 0 1 .61-.07q.36.47.39.86z"/><ellipse cx="0" cy="0" transform="matrix(.872069 -.489382 .489382 .872069 127.92 243.52)" rx="1.09" ry=".47"/></g><path d="M294.05 272.62q-.75-.52-1.52-.63-.9-.13-1.26.67-.47 1.01-1.68 1.1-2.94.23-4.73 1.84c-1.33 1.2-2.83 1.3-4.02 2.85a.49.42 4.5 0 1-.22.16l-4.43 1.62a1.14 1.11-80.7 0 0-.47.35c-1.17 1.49-2.6.95-4.18 2.15q-2.62 1.98-4.67-1.4a.43.42 31.2 0 0-.79.19q-.05.85.91 1.89a.71.7-27.7 0 1-.37 1.17q-.02 0-.25.02a.1.1 0 0 0-.03.2q.17.07.37-.05a.09.03 34.5 0 1 .07.02q.01.01.03.02a.02.02 0 0 1-.01.04q-3.13.35-5.04-.38a.92.91 34.6 0 0-.95.17q-.56.52-1.9-.12a.84.79 6.8 0 1-.45-.54q-.26-1.03-1.53-.8a.67.67 0 0 1-.79-.58q-.34-3.05-2-2.03-.51-1.46-.86-3.3-.06-.36-.21-.42-.13-.06-.25-.12a.39.35 9 0 1-.19-.23c-.75-2.61-1.74-6.68-1.06-9.8.86-3.91 1.34-6.52 3.96-8.93q4.93-4.53 7.67-8.46a2.19 2.13-84.7 0 1 .81-.69q.01 0 .22-.09a1.12 1.12 0 0 0 .49-.43q1.2-1.96 3.64-3.28.55-.3.7-.69.31-.84.4-.87a.58.58 0 0 1 .5 1.03l-3.25 2.49a2.12 2.11 49.9 0 0-.26 3.12q.43.47 1.15.66a.89.87-4.5 0 1 .55.46q.44.94-.04 1.76a.15.15 0 0 0 .05.2q.23.15.32.11a.27.14-18.3 0 0 .19-.2q-.32-1.89-.06-2.5a1.05 1.02-82.3 0 1 .81-.63q2.72-.38 4.29-2.02c2.3-2.39 3.58-2.64 6.19-3.04a1.71 1.7 56.9 0 1 1.22.26q5.78 3.8 8.67 9.96.22.47 1.06 1.24a1.31 1.3-83.3 0 1 .25.32l3.63 6.72a1.25 1.23-66.4 0 1 .13.34q.93 3.89.9 7.21-.03 2.07-1.71 1.89z"/><g class="B"><ellipse cx="0" cy="0" transform="matrix(.064532 -.997916 .997916 .064532 249.33 245)" rx="1.16" ry=".77"/><path d="M342.69 246.56l-1.6.24a.62.62 0 0 1-.38-1.17q.63-.33.83-1.25l1.15 2.18z"/></g><ellipse cx="0" cy="0" transform="matrix(.507538 -.861629 .861629 .507538 123.57 247.21)" rx=".97" ry=".76"/><g class="B"><ellipse cx="0" cy="0" transform="matrix(.090633 -.995884 .995884 .090633 153.37 247.65)" rx=".72" ry=".53"/><ellipse cx="0" cy="0" transform="matrix(-.854459 -.519519 .519519 -.854459 163.74 249.92)" rx="1.13" ry=".63"/></g><path d="M116.83 249.79l-.38 2.81a2.17 2.14 39.8 0 0 .1 1q.32.97.29 1.88l-1.53-1.3a1.02 1.01-69 0 1-.36-.82q.17-3.5 1.88-3.57z"/><path d="M122.3 249.95l-.29.94a.96.96 0 0 1-.79.67q-.61.07-1.06.44a1.02 1.01 60.3 0 0-.3 1.11l.01.04a.51.5-28.5 0 0 .79.23q1.04-.8 2.61-.2-1.63-.07-1.26 2.33l-3.17 1.88q-1.13-.65-2-1.91.03-.91-.29-1.88a2.17 2.14 39.8 0 1-.1-1l.38-2.81q2.64 1.12 5.47.16z" class="B"/><path d="M123.27 253.18q-1.57-.6-2.61.2a.51.5-28.5 0 1-.79-.23l-.01-.04a1.02 1.01 60.3 0 1 .3-1.11q.45-.37 1.06-.44a.96.96 0 0 0 .79-.67l.29-.94q1.36-.25 1.69.56.55 1.34-.72 2.67z"/><g class="B"><path d="M314.15 256.61a.38.38 0 0 1-.72.14q-1.26-2.27-2.25-3.63-.82-1.11-2.03-.77a.39.39 0 0 1-.44-.59q.75-1.15 1.49-1.53a1.01 1.01 0 0 1 1.03.05q3.37 2.24 2.92 6.33z"/><ellipse cx="0" cy="0" transform="matrix(-.390731 -.920505 .920505 -.390731 243.18 251.33)" rx="1.19" ry=".98"/></g><path d="M348.29 259.71q-1.86.06-2.8-1.62a.58.58 0 0 0-.44-.31q-.11-.01-.13-.02a1.21 1.2-7.8 0 1-.79-.59q-1.11-1.94-1.35-3.63a1.07 1.07 0 0 0-.65-.83q-.86-.36-1.51.5a.61.61 0 0 1-.51.25q-.54-.02-.61-.5.2-1.22.89-1.99.89-1.01 1.94-.26 1.35.98 1.71 2.44c.64 2.55 2.51 6.33 5.61 6.3a.14.14 0 0 1 .06.27q-.55.21-1.42-.01zm-234.33 88.21l-2.95-1.67q-4.66-6.82-9.93-13.8c-1.14-1.5-2.33-3.81-3-5.04a.93.93 0 0 0-1.68.12l-11.07 29.31a.35.35 0 0 0 .3.47l12.65 1.03 8.75 2.52q2.68.56 5.32 1.06c3.33.64 8.45.62 11.43 2.12 3.66 1.84 5.79 3.32 8.53 3.65a4.19 3.93 59.6 0 1 1.29.38q9.65 4.68 17.05 11.58a.44.44 0 0 1-.18.75q-2.71.81-5.22-.97a.63.63 0 0 0-.87.89c1.38 1.82 1.96 3.2 3.76 4.78q2.44 2.14 3.82 5.41a6.72 6.33 16.8 0 0 .76 1.32q12.06 15.96 19.86 33.98a.56.56 0 0 0 1.07-.3q-.79-5.65-2.01-9.95c-2.63-9.24-8.44-17.54-14.75-24.72-1.28-1.46-3.1-2.22-4.21-3.91a.68.68 0 0 1 .06-.83q1.74-1.93 4.35-.84 5.47 6.04 6.67 7.98 2.89 4.68 5.26 8.04a14.52 14.02-74.7 0 1 1.56 2.85c1.99 4.93 3.46 7.54 4.13 11.5.81 4.84 1.26 8.45-.25 12.61a1.25 1.23-46.3 0 0 .01.85l.23.63a.37.37 0 0 0 .68.05l2.69-5.03a.77.77 0 0 1 1.18-.22l.03.02a1.02 1.01 36.6 0 1 .2 1.33q-1.44 2.24-1.88 4.37a1.13 1.08 77.5 0 1-.4.66q-1.34 1.03-.95 2.56a.49.49 0 0 0 .66.33q.7-.28 1.15.41a.63.6 79.1 0 1-.61.95q-.8-.17-1.06.07a.54.54 0 0 0-.12.66q.64 1.18 1.03 1.15l3.52 12.26a.5.5 0 0 0 .4.35l.32.05.09.59q-.87 3.15.39 5.89a.71.55-71.5 0 1 .07.2l.68 3.98q.28 7.59-.83 15.04c-.39 2.64.05 6.23-1.15 8.36a1.63 1.58-34.3 0 0-.19.93q.2 1.93-.72 3.03a1.46 1.45 64.1 0 0-.32.94c.05 1.81-1.09 1.91-1.06 3.2q.03.77-.83 1.23c-.15.08-.27.49-.23.68q.06.27-.08.5-1.9 3-2.72 4.09a1.46 1.42-23.7 0 0-.26.64q-.13.94-1.29 1.78a.6.6 0 0 0 .29 1.09q2.17.24 6.32.26l.01.01q-2.63.1-4.97.87H160.6q-2.45-1.41-3.84-1.76-1.8-.45-2.35-.88-.84-.64-1.38-.44-.55.2-1.01-.36a1.09 1.08 79.9 0 0-.47-.33q-4.5-1.56-11.57-4.38-1.64-.65-3.36-1.15-1.84-.53-3.26-1.36-5.05-2.94-5.5-3.43a.88.87 68.1 0 0-.67-.29q-.33 0-.85-.24-.95-.43-1.53-.83-11.5-7.91-23.35-14.56a.27.17 58.3 0 1-.06-.03L76.59 452.8a.03.02 58.3 0 0-.02-.01q-2.13-.31-3.04-1.51c-4.24-5.58-9.68-10.95-18.17-19.82q-1.16-1.21-4.42-5.41-1.9-2.46-4.67-5.73-6.9-8.14-10.93-17.03a6.77 6.05-68.4 0 1-.32-.87q-1.08-3.67.93-11.44 3.51-13.5 11.1-20.69a1.55 1.48 11.5 0 1 .51-.32q2.35-.92 2.44-.97 2.68-1.65 12.67-8.07a5.45 5.39-63.7 0 1 2.44-.84L77.07 359a.49.46-65.3 0 0 .27-.11q1.24-.91 3.36-.89.52.84 2.34.45a1.09 1.09 0 0 0 .68-.48q.69-1.09.66-2.11a1.84 1.72-36.7 0 1 .14-.78q3.61-8.81 6.57-16.7 2.33-6.2 6.92-16.5 4.08-9.15 8.4-21.95 1.73-5.1 1.81-6.99.23-4.93 1.88-11.91a.87.86-78.7 0 0-.7-1.05l-.47-.08a1.29 1.29 0 0 0-1.43.85l-7.2 20.12a.22.22 0 0 1-.14.13q-.2.05-.4-.05a.39.39 0 0 1-.18-.53q1.07-2.15 1.12-4.06a2.58 2.48 57.9 0 1 .16-.77q.53-1.35 1.75-3.45.53-.91.25-1.59a3.41 3.4 56.7 0 1 .77-3.75q2.32-2.26 2.79-5.63a.71.71 0 0 0-.38-.73q-.82-.41-2-.54-.56-1.09 1.47-1.18a.33.33 0 0 0 .23-.55q-.64-.71-.68-1.76a.85.85 0 0 1 .45-.78q1.69-.9 1.26-2.56.9-.41 1.52.07a.4.4 0 0 0 .61-.14q.08-.17 0-.55-.14-.65-.74-.53-.51.09-.62-.01a.36.36 0 0 1 .17-.62q.95-.17 3.45-.12 2.41.05 2.14-1.66a.47.47 0 0 1 .51-.54q1.12.13 2.8-1.01c1.35-.92 3.05-1.13 4.43-.83a.55.54 8.4 0 0 .66-.48q.23-2.81-.88-4.74a.81.81 0 0 0-1.51.27l-.49 2.93a.93.93 0 0 1-1.79.17l-.79-2.14a.73.72-6.3 0 0-.61-.48q-1.68-.16-3.04.54a1.91 1.77 28.8 0 1-.8.2q-.01 0-.4-.11a1.08 1.07-64.7 0 0-1.18.43l-.89 1.31a1.18 1.18 0 0 1-.46.38c-1.93.87-2.56-.29-4.28-.61q-2.09-.4-4.08-1.44 2.41-1.38 4.62.22a.93.89 64.8 0 0 .49.19l1.53.11q-.76 1.58 1.16 1.16a2.09 2.01 83.7 0 0 1.58-2.05q-.01-1.35 1.6-1.49c1.75-.16 3.05-.52 5.13-.23a.56.56 0 0 1 .47.65q-.11.7.08.87a1.08.73-86.3 0 0 1.08-1.4q-.45-1.53.82-1.9a.68.68 0 0 0 .47-.78q-.14-.66-.69-1.32l3.17-1.88 4.95.3q1.2.23 2.02 1.46a.55.53 77.8 0 0 .36.24l2.95.49a.43.43 0 0 0 .42-.68q-.1-.14-.28-.35-.41-.47-.28-1.1.08-.38.67-.93a.73.72 59.8 0 0 .19-.75q-.43-1.29-3.4-1.11 3.44-1.08 7.59.02a.58.57-81.2 0 1 .42.58q-.03.44-.67.61a.81.79-7.6 0 0-.6.77v.73a.64.63 10.9 0 0 .41.59q.63.25.18.86-1.79 2.47-1.74 4.96a.96.88 56.5 0 1-.06.38l-.82 2.43a1.95 1.9 53 0 0-.09.7q.27 4.12-.36 6.04a.87.84-55.7 0 0 .14.81q.44.55.13 1.69-1.35 4.95-1.02 11.35a3.26 3.22 53.4 0 1-.18 1.28q-.77 2.24-.77 2.87-.01 8.44-1.07 15.25c-.75 4.81-.52 9.5-1.69 14.28a1.27 1.2 54.7 0 0-.05.35l-.18 8.89a6.12 5.7 54.3 0 1-.17 1.33q-.92 3.8-.97 6.81a.85.83 66.7 0 1-.22.57l-6.79 7.47a.71.71 0 0 0-.12.78q.27.62-.1 1.31a.6.6 0 0 1-.79.26q-2.39-1.19-4.15.2a2.61 2.59-69.4 0 1-1.15.53l-.76.14zm14.84-79.88l1.27 1.81a.42.42 0 0 0 .59.1l.13-.09a2.1 1.47-35.2 0 0 .87-2.41l-.07-.1a2.1 1.47-35.2 0 0-2.56.01l-.13.09a.42.42 0 0 0-.1.59zm3.23 16.59q-.43-.92.34-5.09a.58.58 0 0 0-.87-.6q-2.01 1.23-3.9 1a.53.53 0 0 0-.27 1.02l1.13.49a.69.69 0 0 1 .37.4q.56 1.54 1.58 2.62a.52.52 0 0 0 .72.03q.05-.04.25-.27 1.05-1.14.44-.05-.21.38.05.58a.11.11 0 0 0 .16-.13zm-4.22 5.38q.01.33 2.76.78a.76.76 0 0 0 .62-.17q.43-.38.42-.72-.01-.34-.46-.69a.76.76 0 0 0-.63-.13q-2.72.61-2.71.93zm16.1 98.05q-2.33.3-2.99.93a.53.53 0 0 1-.81-.11q-.48-.81.22-1.94a.55.54-54.8 0 0-.12-.71q-1.22-.97-1.08-2.04a.64.64 0 0 0-.49-.7q-.18-.04-.49-.25a.74.73-55.8 0 1-.19-1.01q.91-1.4-1.48-1.89a1.99 1.5 3.5 0 0-2.42 1.6q.19 1.14-2.53 1.04a.2.19 54.7 0 0-.06.38q.47.16.77-.02a.28.28 0 0 1 .4.13l4.74 10.21a.86.86 0 0 0 1.59-.06l.71-1.87a.43.43 0 0 1 .59-.24q1.47.69 2.9-1.02a.81.79 61.1 0 0 .18-.65q-.1-.66.73-1.38a.23.22-68.8 0 0-.17-.4zm-19.13-1.29l-.79.21a.66.65-11.1 0 1-.81-.54l-.17-1.27a.45.45 0 0 0-.82-.19q-.14.2-.23.55a1.24 1.24 0 0 1-.42.66q-4.33 3.53-5.46 4.96-2.16 2.73-2.68 3.45a.75.74 31.9 0 1-.96.22c-6.11-3.27-10.97-5.65-17.84-6.52q-6.45-.82-8.31-1.09a2.24 2.17-45.9 0 0-.66.02l-7.91 1.65a1.62 1.61 24.6 0 0-.49.18q-5.55 3.15-8.11 6.21-3.07 3.67-3.09 9.26a.34.34 0 0 0 .34.34h.08a.26.26 0 0 0 .25-.26c.25-6.47 3.58-9.23 8.47-12.5a2.21 2.08 21.4 0 1 .87-.35c2.46-.4 3.44-.24 5.64-1.02q1.73-.62 2.96.28a.36.36 0 0 0 .18.07l6.45.46a.81.79 81.5 0 1 .7.53l2.25 6.15a1.87 1.87 0 0 0 2.59 1.03l.1-.05a1.69 1.69 0 0 0 .51-2.52l-2.41-3.05a.61.61 0 0 1 .65-.96q6.02 1.72 12.56 5.27a.94.94 0 0 1 .49.96q0 .02-.08.31a.6.59-66.5 0 0 .25.65l3.12 2.03a1.22 1.21 17.9 0 1 .55 1.07q-.02.59 0 .59a1.25 1.25 0 0 0 1.78-.72l1.43-4.52a.69.66 80.3 0 1 .2-.3l3.15-2.74a.63.63 0 0 1 .42-.16q.7-.02.87-.4a.32.32 0 0 0-.18-.44l-1.04-.39a.47.46 27.4 0 1-.22-.69l1.08-1.66a1.05 1.01 11.5 0 1 .72-.46l3.55-.49a.4.39 85.8 0 0 .33-.39q-.02-.5-.57-.65.15.05.31-.04a.21.21 0 0 0 .01-.36l-.31-.19a.26.26 0 0 1-.01-.42q.6-.44 1.77.33a1.23 1.22-50.7 0 0 1.54-.16l3.62-3.61a.58.58 0 0 0-.32-.98q-2.01-.32-3.76-3.12a.72.72 0 0 0-1.3.58q.46 1.57.32 2.93a.26.26 0 0 1-.47.13q-.03-.04-.27-1.93a.47.47 0 0 0-.85-.21q-1.74 2.43.31 3.63a.39.39 0 0 1 .19.38q-.02.15-.07.26zm23.03 55.94q.21-.02.22-.02a.52.52 0 0 1 .41.53q-.08 1.26.65 2.1a1.15 1.15 0 0 1 .29.68l.36 4.75a.35.35 0 0 0 .3.32l.25.04a.18.17-80.3 0 0 .2-.15l.71-4.48a.26.26 0 0 1 .46-.11l.65.88a.38.37 27.6 0 0 .68-.21q.06-3.82-1.25-7.18-3.57-9.2-6.18-13.49-1.84-3.03-3.55-5.02-2.05-2.39-3.98-5.26a2.31 1.4 52.9 0 0-.21-.25l-7.89-8.13a1.51 1.32 82.4 0 0-.24-.21l-11.74-8.63a.72.71 33.4 0 0-1.04.21q-.32.54-.31 1.42a.46.45-4 0 0 .51.44q1.34-.15 2.31.85a.56.55 76.4 0 1-.56.92q-1.15-.36-2.02-1.13a.63.62 25 0 0-1.03.37l-.11.67a.88.87 15.4 0 0 .54.95q2.03.84 3.77 2.69a4.09 3.99-5.5 0 0 .91.73c5.18 3.12 9.51 8.53 13.75 12.65q.02.02.04.04l7.24 9.89a1.47 1.43-70.7 0 1 .26.56l.29 1.21a1.42 1.35-75.3 0 0 .39.71c2.54 2.49 2.46 4.9 4.28 7.45q.09.12-.01.47a.65.64 26.9 0 0 .23.69q1.11.88.32 1.86a.12.11 18.4 0 0 .1.19zm7.08 35.21q-.23.41.25 1.08a.59.47 39.6 0 0 .96.02q.22-.82-.5-1.87a.13.12 59.5 0 0-.15-.04q-.18.08-.23.18a.87 0-62.6 0 1-.33.63zm7.78 13.67q1.49-1.38 2.8-.06a.35.35 0 0 0 .59-.27q-.1-1.38-.85-2.25a.62.62 0 0 0-.87-.07q-1.51 1.27-2.12 2.28a.291.291 0 0 0 .45.37zm-7.32.64q-.1.29-.1.3a.24.23 78.4 0 0 .19.13q1.67.19 2.38-.57a.66.66 0 0 0-.13-1q-1.28-.82-3.12-.14a.3.3 0 0 0 0 .56l.54.2a.41.41 0 0 1 .24.52zm-1.13 3.71q.14.24 1.71-.06 1-.2 1.09-1.19.01-.09-.13-.32-.14-.24-.21-.27-.92-.4-1.57.37-1.03 1.23-.89 1.47z"/><path d="M348.29 259.71q-.96.85-2.27 1.25a1.19 1.14-77.6 0 0-.57.38l-2.52 3.11a.39.39 0 0 1-.68-.35q.59-1.94 2.13-3.21a.81.8-29.6 0 0 .25-.89q-1.39-3.87-4.32-6.06a.76.76 0 0 0-.92 0l-1.57 1.14a.28.27-35.7 0 1-.39-.06l-.23-.31a.09.09 0 0 1 .02-.12l2.28-1.63q.07.48.61.5a.61.61 0 0 0 .51-.25q.65-.86 1.51-.5a1.07 1.07 0 0 1 .65.83q.24 1.69 1.35 3.63a1.21 1.2-7.8 0 0 .79.59q.02.01.13.02a.58.58 0 0 1 .44.31q.94 1.68 2.8 1.62zm-221.33-3.9q2.02-.44 2.65-2.73 2.97-.18 3.4 1.11a.73.72 59.8 0 1-.19.75q-.59.55-.67.93-.13.63.28 1.1.18.21.28.35a.43.43 0 0 1-.42.68l-2.95-.49a.55.53 77.8 0 1-.36-.24q-.82-1.23-2.02-1.46zm-14.21-2.34q1.6 3.66-.99 5.07-.1-2.74.99-5.07z" class="B"/><path d="M105.73 257.9l-2.87-.42q-1.12-.07-1.24-1.04a.66.65-13.6 0 1 .43-.69l1.79-.66a.73.73 0 0 1 .93.42l.96 2.39z"/><ellipse cx="0" cy="0" transform="matrix(-.999925 -.012217 .012217 -.999925 195.38 255.72)" rx=".95" ry=".72" class="B"/><path d="M173.98 262.89q.41.37.41.78a.6.58-69.6 0 1-.98.47q-1.35-1.25-3.35-1.51a.25.25 0 0 0-.28.21q-.24 1.66-.91 2.3-1.33.85-2.78.74a.57.57 0 0 0-.54.85c.45.8 1.03 1.12 2.06.91 2.87-.58 5.18.45 7.93 1.1q.28.35.25.54a.87.8 11.9 0 1-1.07.64q-1.04-.27-2.15-.39a1.08 1.06 7 0 0-1.17.9v.05a.79.79 0 0 0 .79.91l2.81-.02a.59.58 86.7 0 1 .58.52q.21 1.92 1.11 3.36a.91.91 0 0 0 1.68-.49v-1.81a.23.23 0 0 1 .21-.23l5.78-.44a.85.85 0 0 1 .81 1.26l-2.16 3.9a1.3 1.27 55.4 0 0-.15.86q.4 2.52-.84 4.52l-5.25 6.2a11.82 9.71-29.6 0 1-1.14 1.18l-8.95 8.22a.55.55 0 0 0 .32.95q6.29.59 9.39 1.1c5.93.98 9.94 3.33 16.25 6.08 5.25 2.28 9.51 6.43 14.75 10.58q4 3.16 7.41 7.08 6.2 7.12 9.41 11.82 2.33 3.41 4.79 9.29l3.46 11.08a.67.67 0 0 0 .87.43q2.72-1.02 4.52-1.3c3.1-.5 4.88-1.72 5.77-4.47a1.49 1.45-12.9 0 1 .42-.65l6.17-5.69a1.55 1.12.9 0 1 .3-.21q2.37-1.24 3.89-2.9a4.04 3.97-82.3 0 1 1.11-.86q4.21-2.22 7.33-6.35a1.05 1.02 70.8 0 0 .2-.43q.11-.59.24-.67a.38.38 0 0 1 .57.27q.08.51-.02 1.01a.05.05 0 0 0 .1.03l.12-.27a.15.15 0 0 1 .28.04q.05.55.33.9a.3.3 0 0 0 .54-.23q-.01-.02-.39-.21-1.06-.53-.13-.92.29-.12.83.07 2.52 2.33 3 4.06.64 2.28-.02 7.34a1.12 1.1 27 0 0 .31.92l2.27 2.27a.35.35 0 0 1-.28.59q-1.48-.16-2.24-1.47a.53.53 0 0 0-.7-.21q-1.44.73-2.03 1.71a1.34 1.33-79.7 0 1-.9.63q-6 1.15-11.69 2.87-1.38.42-3.37.63a4.98 4.75 29.9 0 0-1.27.31q-3.35 1.34-7.68 2.25-4.21.88-7.73 2.08-4.38 1.49-9.62 2.41a.55.54-12.3 0 1-.62-.39l-.07-.25a.17.17 0 0 1 .09-.19l3.65-1.69a.72.71 74 0 0 .41-.75l-.51-4.19a1.87 1.65-63.2 0 0-.11-.42q-2.7-7.05-3.07-8.12-1.37-3.92-3.7-7.52-3.69-5.69-7.2-8.89a1.04 1.02 20.8 0 1-.34-.74q-.01-.52-.75-1.15-4.8-4.06-8.27-7.3-9.6-8.98-22.58-12.23-5.22-1.3-8.98-1.1-3.31.18-4.29-.16a1.22 1.2-53.4 0 0-1.1.17q-1.89 1.36-4.15.76-1.39-.37-2.38.49-5.46 4.69-5.94 5.04a2.62 2.49-3 0 0-.66.7q-2.71 4.2-7.89 7.62-1.51 1-4.98 5.36a4.48 4.28-88.3 0 1-.77.76q-2.31 1.79-3.52 4.16a.51.51 0 0 1-.97-.22q-.05-2.09.26-5.87 1.78-21.4 2.07-26.38.4-6.88 1.72-11.41l1.72-3.22 3.34-4.34a1.59 1.59 0 0 1 1.47-.61q1.61.2 1.67-1.47a.73.73 0 0 1 1.33-.38c1.63 2.38 5.12 2.44 7.87 2.47a.35.35 0 0 0 .11-.68c-2.13-.71-5.66-.7-7.27-3.14a.77.77 0 0 1-.01-.83l.8-1.31q1.34-1.51 4.75-.29a2.02 1.99 47 0 0 1.19.05q3.81-1.04 8.04-.48.41.06 1.09-.23.64-.27 1.12.09a.54.54 0 0 1 .12.73q-.19.3-.1.71a.51.5 1.9 0 0 .37.39l3.5.99a.69.69 0 0 0 .87-.55l.37-2.24a.87.86 7.9 0 0-.76-1q-1.36-.17-2.94.2a2.24 2.13 41.2 0 1-.69.03q-1.73-.19-2.62-.46a.52.52 0 0 1 .14-1.01l1.9-.05q1.27.25 1.94-.11a.34.33-48.8 0 0-.04-.61l-3.63-1.37a1.59 1.58 55.5 0 0-.58-.11l-12.52-.21a.61.61 0 0 0-.62.63l.03.89q-1.91-1.69-3.05-3.02-1.14-1.34-2.91-1.04a.96.94 6.3 0 0-.71.56l-.48 1.11a.9.9 0 0 1-.94.53q-.85-.12-1.47-.51a1.48 1.27-51.5 0 1-.08-2.12q1.62-1.73 2.13-3.22a.56.56 0 0 1 .99-.13q.88 1.3.21 2.04a.61.61 0 0 0 0 .8l.23.27a.45.44-54 0 0 .74-.12q1.08-2.44-.77-3.81.71-.04 1.02-.34a.61.61 0 0 0 .09-.76c-.16-.26-.57-.58-.35-.96q.19-.34.74-.28a.56.55 5.4 0 0 .62-.51l.09-1.48a.4.4 0 0 1 .42-.38q.41.02.54.16a1.26 1.04-18.2 0 0 .85.33q6.45.07 14 2.11a.43.43 0 0 1 .31.48q0 .03-.04.07a.94.93-81 0 0 1.08 1.49l1.9-.94a.21.19-46.8 0 1 .16-.01q.5.18.45.91-.03.47.36.6.68.24 1.26-.23a.9.81-28.8 0 1 1.39.33q.11.41.43.75.19.2.88.26 1.64.13 3.02 1z"/><g class="B"><circle cx="215.7" cy="256.12" r=".66"/><ellipse cx="0" cy="0" transform="matrix(.34202 -.939693 .939693 .34202 236.96 258.14)" rx="1.1" ry=".89"/><path d="M340.79 273.19q1.15-2.13-1.24-3.63a.87.85-74.3 0 1-.4-.73v-1.54a1.41 1.41 0 0 0-.21-.74q-1.89-3.1-4.59-6.64-1.32-1.74-3.34-1.07a.31.3-88.3 0 1-.37-.4q.55-1.49 1.58-1.5c2.11-.02 3.33 1.72 4.14 3.55a10.35 10.26-78.7 0 0 1.91 2.89q2.62 2.8 4.16 6.83.71 1.84-1.41 3.18a.16.15-2.9 0 1-.23-.2z"/><ellipse cx="0" cy="0" transform="matrix(-.522499 -.85264 .85264 -.522499 115.75 258.67)" rx="1" ry=".46"/><path d="M144.76 260.29q1.85 1.37.77 3.81a.45.44-54 0 1-.74.12l-.23-.27a.61.61 0 0 1 0-.8q.67-.74-.21-2.04a.56.56 0 0 0-.99.13q-.51 1.49-2.13 3.22a1.48 1.27-51.5 0 0 .08 2.12q.62.39 1.47.51a.9.9 0 0 0 .94-.53l.48-1.11a.96.94 6.3 0 1 .71-.56q1.77-.3 2.91 1.04 1.14 1.33 3.05 3.02l15.42.89-1.9.05a.52.52 0 0 0-.14 1.01q.89.27 2.62.46a2.24 2.13 41.2 0 0 .69-.03q1.58-.37 2.94-.2a.87.86 7.9 0 1 .76 1l-.37 2.24a.69.69 0 0 1-.87.55l-3.5-.99a.51.5 1.9 0 1-.37-.39q-.09-.41.1-.71a.54.54 0 0 0-.12-.73q-.48-.36-1.12-.09-.68.29-1.09.23-4.23-.56-8.04.48a2.02 1.99 47 0 1-1.19-.05q-3.41-1.22-4.75.29-3.12-.22-5.9 2.17a1.31 1.29-20.7 0 0-.45.98v.82a.42.42 0 0 1-.6.38q-.78-.37-2.07-.27a.61.61 0 0 0-.56.55q-.17 1.61-1.05 3.81-.35.89.19 1.68.31.45 1.13.17l-1.72 3.22q-1.49-4.67.06-9.56a1.63 1.36-40 0 0 .06-.34l.72-11.88a.83.82 73.1 0 1 .3-.57q2.86-2.31.82-5.26a.56.56 0 0 1 .78-.77l3.11 2.2zm23.22 12.215a1.35.57-179.8 0 0 1.348.575 1.35.57-179.8 0 0 1.352-.565 1.35.57-179.8 0 0-1.348-.575 1.35.57-179.8 0 0-1.352.565z"/><ellipse cx="0" cy="0" transform="matrix(.622515 -.782608 .782608 .622515 213.23 258.74)" rx=".68" ry=".42"/><path d="M187.64 262.64q-2.37.59 1.53 1.02a.17.14-59.6 0 0 .13-.05q.17-.16 0-.38.89-.36 1.45-.28 5.61.79 10.55 2.03 1.19 1.21 1.25 3.07-.99.23-2.19.09-.57-.48-1.38-.86-.65-.31-1 .85l-2.14 2.42a.81.73-81.7 0 1-.18.15q-4.46 2.78-5.43 4.27-3.2 4.88-8.21 7.85 1.24-2 .84-4.52a1.3 1.27 55.4 0 1 .15-.86l2.16-3.9a.85.85 0 0 0-.81-1.26l-5.78.44a.23.23 0 0 0-.21.23v1.81a.91.91 0 0 1-1.68.49q-.9-1.44-1.11-3.36a.59.58 86.7 0 0-.58-.52l-2.81.02a.79.79 0 0 1-.79-.91v-.05a1.08 1.06 7 0 1 1.17-.9q1.11.12 2.15.39a.87.8 11.9 0 0 1.07-.64q.03-.19-.25-.54.27.09.37-.32.13-.6-.39-.93-3.25-2.09-6.65-2.35.67-.64.91-2.3a.25.25 0 0 1 .28-.21q2 .26 3.35 1.51a.6.58-69.6 0 0 .98-.47q0-.41-.41-.78.63-.2.82-.53a.71.68 23.7 0 0-.41-.99q-1.53-.52-3.2-.71a.56.56 0 0 1-.49-.62v-.02a.51.51 0 0 1 .54-.46q8.39.4 16.4 3.08zm-11.55 1.04l-.76.18a.73.7-5.3 0 0-.54.63q-.08 1.01.83 1.37 3.06 1.21 3.76-.86-1.15-1.66-2.74-1.91-.32-.04-.45.13-.12.16-.1.46zm12.4 3.23a.91.58 67.5 0 0 .26-1.49q-.63-.53-1.16-.45a.47.47 0 0 0-.33.72q.49.81 1.23 1.22z"/></g><path d="M358.97 280.88q-2.16-3.57-4.18-6.68-.99-1.52-.99-6.97a.62.62 0 0 1 .7-.61q.54.07 1.06-.45a.65.64-35.7 0 0 .13-.74l-2.68-5.57q2.07-.7 2.91-.03 2.44 1.95 3.94 6.23a3.56 3.36 35.8 0 1 .19 1q.09 2.21 1.74 4.8 1.28 2-.47 4.22a2 1.98-13.8 0 0-.25.41l-2.1 4.39z"/><ellipse cx="0" cy="0" transform="matrix(-.325568 -.945519 .945519 -.325568 138.38 260.96)" rx=".9" ry=".72"/><path d="M202.29 262.8q-.03-.03-.17-1.52a.37.36 9 0 1 .52-.37q.66.29.92.81a.88.81-82.9 0 1-1.27 1.08z"/><ellipse cx="0" cy="0" transform="matrix(-.068015 -.997684 .997684 -.068015 340.42 261.76)" rx="1.01" ry=".53"/><ellipse cx="0" cy="0" transform="matrix(-.252069 -.967709 .967709 -.252069 304.95 262.2)" rx="1.27" ry=".66"/><path d="M106.77 273.07l-5.02 1.67q-.26-1.44-.03-2.16l2.75-1.68a.35.35 0 0 0 .06-.54l-.27-.27a.24.22 53.4 0 0-.26-.05q-1.59.76-2.64 1.93l-4.22-2.65a.56.56 0 0 1-.1-.86q.53-.52.4-1.27a.93.93 0 0 1 .24-.8l2.82-3.03q1.99 1.04 4.08 1.44c1.72.32 2.35 1.48 4.28.61a1.18 1.18 0 0 0 .46-.38l.89-1.31a1.08 1.07-64.7 0 1 1.18-.43q.39.11.4.11a1.91 1.77 28.8 0 0 .8-.2q1.36-.7 3.04-.54a.73.72-6.3 0 1 .61.48l.79 2.14a.93.93 0 0 0 1.79-.17l.49-2.93a.81.81 0 0 1 1.51-.27q1.11 1.93.88 4.74a.55.54 8.4 0 1-.66.48c-1.38-.3-3.08-.09-4.43.83q-1.68 1.14-2.8 1.01a.47.47 0 0 0-.51.54q.27 1.71-2.14 1.66-2.5-.05-3.45.12a.36.36 0 0 0-.17.62q.11.1.62.01.6-.12.74.53.08.38 0 .55a.4.4 0 0 1-.61.14q-.62-.48-1.52-.07zm7.74-8.06a.58.56 12 0 0-.52.33q-.39.83-1.32 1.17a.46.45 67.3 0 0-.25.62l.21.44a.33.32-29.8 0 0 .49.13l2.53-1.85a.47.46-63 0 0-.27-.84h-.87z" class="C"/><path d="M299.14 264.09q.11-.62 1.07-1.9a.34.34 0 0 1 .57.36q-.45.88-1.32 1.71a.19.19 0 0 1-.32-.17zm-111.5-1.45l1.66.59q.17.22 0 .38a.17.14-59.6 0 1-.13.05q-3.9-.43-1.53-1.02zm-8.26 2.36q-2.26-.22-3.29-1.32-.02-.3.1-.46.13-.17.45-.13 1.59.25 2.74 1.91z"/><path d="M223.17 262.92a.48.48 0 0 1 .52.78q-1.31 1.32-2.48 2.99-.41.58-1.13.36a.55.54 42.5 0 1-.06-1.03c1.67-.65 1.7-2.54 3.15-3.1z" class="B"/><path d="M228.16 267.26q-.43.24-2.01-1.99-.98-1.37-.13-1.85.85-.47 1.5 1.08 1.07 2.52.64 2.76z"/><path d="M176.09 263.68q1.03 1.1 3.29 1.32-.7 2.07-3.76.86-.91-.36-.83-1.37a.73.7-5.3 0 1 .54-.63l.76-.18z" class="C"/><ellipse cx="0" cy="0" transform="matrix(-.516533 -.856267 .856267 -.516533 352.6 264.4)" rx=".69" ry=".51"/><path d="M216.72 265.48l-2.16.16a.32.32 0 0 1-.2-.58q1.59-1.08 2.57-.2a.36.35-26.6 0 1-.21.62z" class="B"/><path d="M301.17 266.61l1.24-1.81a.42.42 0 0 1 .71.02q.25.43.26 1.06a.81.8 85.5 0 1-.69.81l-1.35.19a.18.17 13.3 0 1-.17-.27zm-98.62 1.44q-.06-1.86-1.25-3.07.75-.19 1.24-.11a.76.74-83.6 0 1 .62.79q-.07 1.17.67 2.16a.38.38 0 0 1-.29.6q-.6.02-.99-.37zm134.73 35.91q-1.35 1.28-1.77 2.92l-2.54 3.37a.63.63 0 0 1-1.02-.04l-23.87-36.11a1.63 1.61-39.3 0 1 .21-2.04l6.69-6.69a1.15 1.15 0 0 1 1.8.22q3.17 5.26 5.1 8.04 6.87 9.9 13.38 20.11 1.3 2.04 3.41 4.47a2.41 2.4 39.1 0 1 .29 2.76l-1.68 2.99zm.12-33.39a.38.38 0 0 1-.73.03q-.06-.17-.02-.5a1.23 1.22-64.6 0 0-.36-1.02l-2.71-2.71a.82.81 45.3 0 1 0-1.15l.3-.29a.53.52-41 0 1 .79.05c1.09 1.46 3.07 4.02 2.73 5.59z"/><path d="M115.65 265.85l-2.53 1.85a.33.32-29.8 0 1-.49-.13l-.21-.44a.46.45 67.3 0 1 .25-.62q.93-.34 1.32-1.17a.58.56 12 0 1 .52-.33h.87a.47.46-63 0 1 .27.84z" class="B"/><path d="M188.49 266.91q-.74-.41-1.23-1.22a.47.47 0 0 1 .33-.72q.53-.08 1.16.45a.91.58 67.5 0 1-.26 1.49z"/><path d="M168.87 265.14q3.4.26 6.65 2.35.52.33.39.93-.1.41-.37.32c-2.75-.65-5.06-1.68-7.93-1.1-1.03.21-1.61-.11-2.06-.91a.57.57 0 0 1 .54-.85q1.45.11 2.78-.74z" class="C"/><ellipse cx="0" cy="0" transform="matrix(.363251 -.931691 .931691 .363251 297.57 266.24)" rx=".98" ry=".6"/><path d="M214.03 267.43q-.07 2.06.61 4.07.92 2.67 3.06 2.81.27.02.33.13.13.25.01.44a.1.09-66.4 0 1-.11.05q-3.93-.73-4.4-4.14a1.76 1.73 26 0 0-.22-.62q-1.1-1.85-.06-3.04a.44.44 0 0 1 .78.3zm9.35 2.77q.57-.15.6-.66.03-.35-.29-.76-.55-.69-.94-1.43a.39.39 0 0 1 .63-.44q1.96 2.1 1.98 4.4a.58.58 0 0 1-.61.59q-.35-.01-1.52-1.11a.35.34 59.7 0 1 .15-.59z"/><path d="M128.8 268.04a.42.42 0 0 1 .1-.59l.13-.09a2.1 1.47-35.2 0 1 2.56-.01l.07.1a2.1 1.47-35.2 0 1-.87 2.41l-.13.09a.42.42 0 0 1-.59-.1l-1.27-1.81z" class="C"/><path d="M200.36 268.14q-.09.54-.4.83a.6.58-67.7 0 1-.32.14q-.98.11-1.66-.98.35-1.16 1-.85.81.38 1.38.86z"/><path d="M166.29 269.84l-15.42-.89-.03-.89a.61.61 0 0 1 .62-.63l12.52.21a1.59 1.58 55.5 0 1 .58.11l3.63 1.37a.34.33-48.8 0 1 .04.61q-.67.36-1.94.11z" class="C"/><path d="M210.78 268.72q-.53-.04-.72.18-.32.39-.04.81.26.39.71.38.33-.01.36-.35l1 2.66a.71.7 74.2 0 1-.52.94q-1.39.27-2.26.05a.67.66 17.6 0 0-.79.4l-.17.46a.45.45 0 0 1-.85-.03q-.59-2.03 1.1-2.34a.41.4 54.3 0 0 .12-.75q-.87-.49-1.42-.34-.29.03-.57-.09.46-.55.67-1.47a1.24 1.23 86.5 0 1 .78-.89l1.98-.73a.54.54 0 0 1 .72.48q.01.3-.1.63z" class="B"/><ellipse cx="0" cy="0" transform="matrix(-.970296 -.241922 .241922 -.970296 216.14 268.34)" rx="1.49" ry=".42"/><path d="M304.9 268.39q.07.62-.96 1.56a.51.51 0 0 1-.82-.56q0-.02 1.13-1.22a.38.38 0 0 1 .65.22zm-5.37 1.59a.65.6 81.7 0 1-.95-.76q.14-.35.73-.68a.38.38 0 0 1 .56.34q-.02.81-.34 1.1zm-88.75-1.26l.31 1.02q-.03.34-.36.35-.45.01-.71-.38-.28-.42.04-.81.19-.22.72-.18z"/><path d="M235.53 269.81a.56.56 0 0 1 .7-.83q1.22.61.84 1.66a.49.49 0 0 1-.85.12l-.69-.95z" class="B"/><path d="M206.73 270.7q.28.12.57.09-.02.84-1.09 1.27a.9.89 42.8 0 1-.61.02l-3.59-1.14a.15.15 0 0 1-.04-.26l1.03-.79a.1.09 36.2 0 1 .09-.01q2.03 1.03 3.64.82zm-105.01 1.88q-.32-.37-.36-.61 1.05-1.17 2.64-1.93a.24.22 53.4 0 1 .26.05l.27.27a.35.35 0 0 1-.06.54l-2.75 1.68z"/><ellipse cx="0" cy="0" transform="matrix(-.805928 -.592013 .592013 -.805928 216.91 270.98)" rx="1.28" ry=".49"/><ellipse cx="0" cy="0" transform="matrix(-.080199 -.996779 .996779 -.080199 233.96 272.62)" rx="1.14" ry=".95"/><ellipse cx="0" cy="0" transform="matrix(-.295708 -.955278 .955278 -.295708 301.31 272.18)" rx=".52" ry=".32" class="B"/><ellipse cx="0" cy="0" transform="matrix(-.999994 -.003491 .003491 -.999994 169.33 272.51)" rx="1.35" ry=".57"/><path d="M294.05 272.62q.42.09.46.48a.35.34 72.8 0 1-.18.35l-4.96 2.67a.16.15-5.7 0 0-.08.09l-3.1 7.17a1.69 1.67 88.6 0 1-.76.81q-2.39 1.17-4.27.81a1.41 1.39-45.4 0 0-.64.01l-3.63.86 3.32-3.11a.5.5 0 0 0-.59-.79l-10.71 6.23a.72.72 0 0 0-.28.28q-.37.68-1.18 1.08a.89.89 0 0 1-.87-.05l-2.31-1.5a.73.72 59.3 0 0-.46-.12q-3.32.26-4.94-1.77-1.75-2.19-3.05-2.15l-1.68-3.42q1.66-1.02 2 2.03a.67.67 0 0 0 .79.58q1.27-.23 1.53.8a.84.79 6.8 0 0 .45.54q1.34.64 1.9.12a.92.91 34.6 0 1 .95-.17q1.91.73 5.04.38a.02.02 0 0 0 .01-.04q-.02-.01-.03-.02a.09.03 34.5 0 0-.07-.02q-.2.12-.37.05a.1.1 0 0 1 .03-.2q.23-.02.25-.02a.71.7-27.7 0 0 .37-1.17q-.96-1.04-.91-1.89a.43.42 31.2 0 1 .79-.19q2.05 3.38 4.67 1.4c1.58-1.2 3.01-.66 4.18-2.15a1.14 1.11-80.7 0 1 .47-.35l4.43-1.62a.49.42 4.5 0 0 .22-.16c1.19-1.55 2.69-1.65 4.02-2.85q1.79-1.61 4.73-1.84 1.21-.09 1.68-1.1.36-.8 1.26-.67.77.11 1.52.63z" class="B"/><path d="M226.92 272.92q-2.62 4.03-7.57 4.22a.51.49 84.2 0 1-.51-.43l-.05-.41a.19.19 0 0 1 .15-.22l5.61-1.34a1.36 1.36 0 0 0 .88-.67l.86-1.59a.36.35-67 0 1 .41-.17l.03.01a.41.4-62.9 0 1 .19.6z"/><path d="M149.94 272.96l-.8 1.31a.77.77 0 0 0 .01.83c1.61 2.44 5.14 2.43 7.27 3.14a.35.35 0 0 1-.11.68c-2.75-.03-6.24-.09-7.87-2.47a.73.73 0 0 0-1.33.38q-.06 1.67-1.67 1.47a1.59 1.59 0 0 0-1.47.61l-3.34 4.34q-.82.28-1.13-.17-.54-.79-.19-1.68.88-2.2 1.05-3.81a.61.61 0 0 1 .56-.55q1.29-.1 2.07.27a.42.42 0 0 0 .6-.38v-.82a1.31 1.29-20.7 0 1 .45-.98q2.78-2.39 5.9-2.17z" class="C"/><path d="M202.51 273.8q-2.17.22-2.7-.09a.44.43 63.1 0 1 .26-.81q2.56.3 2.62.35a.32.32 0 0 1-.18.55zm-95.74-.73q.43 1.66-1.26 2.56a.85.85 0 0 0-.45.78q.04 1.05.68 1.76a.33.33 0 0 1-.23.55q-2.03.09-1.47 1.18-.53.12-.6.57l-4.42-4.3a.29.29 0 0 1 .16-.49q1.57-.23 2.57-.94l5.02-1.67z" class="B"/><path d="M98.26 274.76a.2.2 0 0 1-.36.13q-.28-.38-.33-.64a.25.25 0 0 1 .43-.21q.26.31.26.72z"/><ellipse cx="0" cy="0" transform="matrix(-.642788 -.766044 .766044 -.642788 225.33 278.7)" rx="1.77" ry=".86"/><ellipse cx="0" cy="0" transform="matrix(-.704634 -.709571 .709571 -.704634 215.23 279.41)" rx="2.12" ry="1.18"/><circle cx="238.11" cy="278.72" r=".84" class="B"/><ellipse cx="0" cy="0" transform="matrix(-.421036 -.907044 .907044 -.421036 222.66 279.65)" rx="1.06" ry=".73"/><path d="M131.87 284.76q-.26-.2-.05-.58.61-1.09-.44.05-.2.23-.25.27a.52.52 0 0 1-.72-.03q-1.02-1.08-1.58-2.62a.69.69 0 0 0-.37-.4l-1.13-.49a.53.53 0 0 1 .27-1.02q1.89.23 3.9-1a.58.58 0 0 1 .87.6q-.77 4.17-.34 5.09a.11.11 0 0 1-.16.13zM80.7 358l.62-.9a.46.45 18.5 0 0-.36-.71l-.27-.01a.93.92 10 0 1-.84-1.19q4.17-13.34 10.35-26.5 1.65-3.49 2.43-8.75l1.52-2.63a.56.56 0 0 0-.6-.83q-.64.12-2.24-.21a.56.55-80.3 0 1-.44-.63q.16-1.07-1.31-1.86-.59-.32-.64-.85-.05-.57.54-.83l1.59-.05q1.48.9 1.98.05 1.15-.39 1.94-2.33.63.08.66.5a.14.14 0 0 1-.04.12l-.79.68a.6.59-33.6 0 0-.15.7q.41.84-.65 1.81a.39.38-42.3 0 0-.03.54l.18.21a.49.48 45 0 0 .73.01q.91-1.01 1.15-2.55.54-3.39 1.22-6.74.28-.57.35-1.17a.95.95 0 0 1 .3-.59q.91-.8.25-2.37l1.74-5.97a1.09 1.03-19.2 0 1 .21-.4c.93-1.14-.02-2.31.94-3.43q.75-.87.59-2.58a1.03 1.03 0 0 1 .41-.93q.59-.45.56-1.9-.02-.59.67-1.8.85-1.51.17-3.44.07-.45.6-.57 1.18.13 2 .54a.71.71 0 0 1 .38.73q-.47 3.37-2.79 5.63a3.41 3.4 56.7 0 0-.77 3.75q.28.68-.25 1.59-1.22 2.1-1.75 3.45a2.58 2.48 57.9 0 0-.16.77q-.05 1.91-1.12 4.06a.39.39 0 0 0 .18.53q.2.1.4.05a.22.22 0 0 0 .14-.13l7.2-20.12a1.29 1.29 0 0 1 1.43-.85l.47.08a.87.86-78.7 0 1 .7 1.05q-1.65 6.98-1.88 11.91-.08 1.89-1.81 6.99-4.32 12.8-8.4 21.95-4.59 10.3-6.92 16.5-2.96 7.89-6.57 16.7a1.84 1.72-36.7 0 0-.14.78q.03 1.02-.66 2.11a1.09 1.09 0 0 1-.68.48q-1.82.39-2.34-.45z" class="C"/><ellipse cx="0" cy="0" transform="matrix(-.637424 -.770513 .770513 -.637424 355.82 280.69)" rx=".83" ry=".48"/><path d="M512 371.9v7.47l-.59 1.5a.17.17 0 0 1-.33-.06v-1.07a1.11 1.11 0 0 0-1.89-.79q-1.3 1.29-2.86 2.18a4.2 3.83 5.6 0 0-.83.62l-50.17 49.08q-2.23 2.11-4.03 2.82a.8.78-37.8 0 1-.71-.08l-123.77-84.59a1.12 1.12 0 0 1-.39-1.38q2.53-5.67 6.58-11.39a2.12 2.12 0 0 0-.89-3.17l-1.61-.7a2.63 2.62 28.8 0 0-3.21.93l-8.5 12.43a.75.75 0 0 0 .29 1.09q1.13.56 1.71 1.43a2.65 2.63-65.8 0 1 .42 1.12q1.25 9.91 1.33 12.41c.07 2.59.48 4.9.7 7.02q2.2 21.49 2.39 23.23.97 8.81.8 9.67a2.36 2.33 41.2 0 0 .09 1.22c1.16 3.32.59 7.48 1.35 11.37q.51 2.57.53 6.8c.01 1.79.81 4.24.84 5.7q.16 6.41.97 9.93a.45.33-62.7 0 1 .02.13l1.16 15.2a.65.65 0 0 1-.58.7q-2.53.26-4.08-.09-2.83-.64-6.24-1.79c-.99-.33-2.38.01-3.07-.99a.59.57-16.6 0 0-.48-.25h-2.07a.45.44-12.7 0 1-.4-.25q-.36-.7-1.37-.68-.62.02-1.69-.33-12.51-4.04-22.82-6.7-.73-.18-7.34-1.45a1.81 1.79 71.9 0 1-.89-.46q-.63-.57-1.63-.43a.86.84-18.3 0 1-.86-.42q-.45-.79-1.43-.61-.78.14-1.36-.5-.54-.61-2.03-.48a1.45 1.43 67.9 0 1-1.23-.53q-.16-.21-.39-.51-.1-.13-1.32 0-1.62.18-2.3-.64a.96.94-22.2 0 0-.83-.34c-2.48.26-4.81-2.78-6.75-.01a.8.79 22.6 0 1-.79.32q-2.83-.5-5.45-2.67l-2.97-2.03a.74.73-46.2 0 0-.85.02l-.61.45a.46.46 0 0 1-.69-.56q.35-.76.9-.95a.48.47-21.6 0 0 .28-.64q-.79-1.83-2.89-2.01a.73.72-76.6 0 0-.74.46q-.33.85-2.23 1.69c-3.39 1.5-4.88 4.48-4 8.26a1.49 1.4-71.7 0 0 .25.54l1.76 2.4a.42.41 64.9 0 1-.23.65l-1.56.38-5.18-.22q-.62-1.74-2.48-1.13-.78.25-.52 1.25-3.69.36-4.53-1.79.47-1.95-2-2.15l-8.9-5.58 1.12-.01a1.49 1.46 66 0 1 1.04.41q1.42 1.34 3.23 1.46a2.3 2.15 57.2 0 1 .68.17l13.14 5.68a.9.9 0 0 0 1.24-.62q.39-1.67-.29-2.5a.25.24 25.5 0 1-.06-.16v-4.18a.61.6 85.9 0 0-.69-.6l-3.26.46a.54.53-62.3 0 1-.31-1.01q.5-.25 1.26-.22a1.58 1.37 73.5 0 0 1.08-2.37q-.03-.05-.4-.21a.82.81-84 0 1-.49-.61q-.76-4.01 1.45-6.17a1.4 1.29 83.3 0 0 .29-.4l1.31-2.77a.55.54-72.2 0 1 .57-.3l2.09.35a.56.56 0 0 0 .56-.24l1.81-2.64a.4.4 0 0 0-.26-.62l-.63-.11q.4-.44.4-1 .5-.15.78-.44.91-.35.85-1.43l2.51-1.67a.29.29 0 0 0-.28-.51q-1.67.74-1.04-.15 4.28-3.03 8.51-6.11c2.54-1.85 4.9-4.42 7.79-5.88a4.75 4.65-80 0 0 1.19-.85q2.53-2.52 7.85-5.56c1.14-.65 1.76-1.63 1.52-2.92a.74.74 0 0 1 1.44-.36l.13.42a.45.45 0 0 0 .85.05l1.26-2.91a.82.82 0 0 1 .55-.47q1.68-.45 1.86-2.63a.5.5 0 0 0-.48-.55q-1.93-.08-2.31.55a.83.81 21.3 0 1-.89.38q-2.35-.52-4.14 1.49a.46.46 0 0 0 .27.76q.79.13.91.53.2.65-.42.88-.8.3-1.6-.42a1.01 1 48.4 0 0-1.21-.08q-5.4 3.62-9.04 6.63-.42.35-2.02 1.04a3.08 3.07-79.5 0 0-.97.67q-3.46 3.59-9.1 6.97a3.72 3.71-84.4 0 0-.79.65q-1.04 1.13-3.13 2.48-2.48 1.6-5.22 4.5a1.83 1.76 9.9 0 1-.67.45l-3.74 1.47q.19-1.39 1.79-2.78 2.2-1.9 1.57-4.03 2.52-2.9 5.29-5.76.6-.62.38-1.47-.04-.14-.33-.11a.53.51-87.6 0 0-.45.43q-.01.08-.03.11a.9.9 0 0 1-.92.46l-1.54-.22a1.21 1.19 22.7 0 0-1.1.44l-9.92 12.48q-1.46 4.85-7.72 3.63a.45.45 0 0 0-.53.42l-.43 8.02-4.19 2.62q-2.83-2.1-7.15-2.21-1.73-1.28-3.76-1.55a.53.53 0 0 1-.16-1q.37-.17.81-.76.23-.29-.38-.77c-1.38-1.07-1.88-3.99-2.37-6.12a.32.32 0 0 0-.63.05q-.11 2.2.94 3.83a.88.88 0 0 1 .15.42l.27 3.63a.45.44 1.1 0 1-.5.48q-1.84-.23-1.72-1.86a.32.32 0 0 0-.53-.27q-.94.83-.55 2.15l-.38 1.14a.53.53 0 0 1-.5.36h-.33a.41.41 0 0 1-.39-.55c1.24-3.55-3.91-4.16-6.14-4.46q-.07-.89-.83-1.03a.67.67 0 0 0-.78.51q-.03.14-.07.22a.46.43 36.8 0 1-.77.09l-1-1.23q-.12-1.25.53-1.41.22-.05.35.07.34.3.6.1a.38.37-22.9 0 0 .14-.33q-.08-.92.42-1.75a.63.62 27 0 1 .79-.25l1.66.71a.46.45 49.8 0 1-.07.86q-.77.2-.85.55-.12.53.43.85.44.25 1.57.27a.26.26 0 0 0 .22-.41l-.67-.92a.66.66 0 0 1-.01-.77q.4-.55.24-1.5-.14-.89-1.06-.78-.99.11-1.47.41a.73.67-86.7 0 1-.87-1.06c.85-1.23.06-2.12.17-2.99q.34-2.74 1.13-6.14a.42.42 0 0 1 .7-.2q1.24 1.21 1.07 3.24a.32.32 0 0 0 .58.2l3.27-4.78a1.08 1.02-85.2 0 1 .38-.34q2.63-1.37 4.78-3.96.69-.84 4.08-5.96a5.17 5.03 86.7 0 1 .84-.97q1.26-1.11 5.36-3.74c2.06-1.32 2.52-3.71 3.9-5.01q.4-.38 2.86-3.69.05-.07 3.08-3.42 2.2-2.44 3.03-6.15 4.08-2.27 7.41-2.21a1.44 1.41-66.7 0 0 1.03-.42l.82-.82a1.6 1.57-72.1 0 1 .8-.42q4.61-.86 8.25-2.32a6.77 6.48-59.5 0 1 1.46-.41q6.17-1.04 12.2-3.33a3.23 3.21-53.4 0 1 1.32-.2q2.61.17 4.64-1.07a1.69 1.68-56.7 0 1 1.1-.23c2.74.38 4.06-1.66 6.29-2.23q2.15-.55 4.77-.93a.38.38 0 0 1 .4.54q-1.66 3.26-1.94 4.93 0 .02 0 .05l.14 7.58a.59.58-12.5 0 0 .82.52q1.23-.52 2.45.48a.61.61 0 0 0 .98-.6q-.41-1.79.04-4.38a1.35 1.33-62.8 0 0-.37-1.18l-.27-.27a1.28 1.26 26.9 0 1-.37-1.1l.82-5.45a.46.29 58.3 0 0 0-.13q-.17-.96-.83-1.87a.24.24 0 0 1 .06-.34l.26-.17a.11.11 0 0 1 .15.03q2.23 3.1 2.82 4.48.68 1.63 2.85 4.08 1.33 1.51 2.55 4.55a.98.98 0 0 0 .94.62q.02 0 .14-.03a.55.54 78.9 0 1 .68.46c.33 2.4 2.1 3.79 3.02 5.84a.68.68 0 0 0 1.25-.01l1.12-2.58a.62.62 0 0 1 1-.19l.28.28a.48.47-45.4 0 1 0 .67l-3.85 3.84a.69.68-39.9 0 0-.08.86q.17.25.22.57-.69.73-1.73 1.14a.92.92 0 0 0-.56.78q-.04.58-.42.99a.69.69 0 0 1-.92.07q-1.15-.88-2.26-1.16a.15.14 20.8 0 0-.15.06l-.18.25a.09.08-58.5 0 0 .02.11l2 1.36a.6.6 0 0 1 .02.98l-1.11.81a.51.51 0 0 0 .1.88l3.73 1.61a.76.76 0 0 0 .91-.24l1.38-1.89q.16-1.33.92-2.18c4.4-4.95 8.4-10.41 12.74-15.71 3.64-4.46 5.7-7.06 7.08-10.49a19.63 19.52-14.2 0 1 3.2-5.33c2.68-3.17 4.9-7.16 8.22-11.38q3.37-4.27 5.66-8.68.24-.46 1.41-1.12a.32.32 0 0 0-.03-.57q-.22-.09-.25-.83a.51.51 0 0 1 .21-.43q2.01-1.49 3.54-4.51a4.03 3.89 80.9 0 1 .62-.89q2.83-3.03 5.41-7.52a2.72 2.57 86.1 0 1 .61-.74q3.35-2.83 3.66-3.42 2.73-5.3 5.96-9.66a3.16 2.6-3.9 0 1 .72-.68c.48-.32.71-1.34 1.16-1.91q1.24-1.55 2.89-3.81.98-1.34 2.42-.87-.5 1.99.3 3.7a.96.95-6.2 0 0 .67.53q2.71.62 4-1.34 3.08-4.7 6.4-9.19a4.71 4.65-16 0 0 .53-.94q.63-1.45.98-1.56 1.87-.57 3.24.47 13.56 10.29 26.36 17.65 1.78 1.02 4.72 3.06 3.86 2.67 4.69 3.31 5.7 4.43 12.82 8.3a6.56 6.43 79.3 0 1 1.12.78q2.87 2.54 5.3 3.04a2.8 2.72 72.9 0 1 1.37.75l3.07 3.06a3.36 3.22 80.8 0 0 .81.61q1.76.96 3.09 2.28a3.74 3.73-6.4 0 0 .54.43q7.42 4.79 20.02 12.7c2.14 1.34 3.8 2.95 6.33 3.75a1.17 1.05-11.1 0 1 .4.24l2.93 2.64a1.3 1.18-15.7 0 0 .6.3l4.58.94a1.57 1.56-9.7 0 1 1 .7l1.44 2.3a2.6 2.56-87.5 0 0 .66.73c.9.7 2.41 1.31 3.71 2.36q11.41 9.27 24.39 16.12a4.74 4.47 76.4 0 1 .72.47l3.46 2.9a1.27 1.26-29.5 0 0 .98.27q.97-.14 1.54.47a.66.65-28.5 0 0 .63.18q.72-.18 1.06.62zm-165.8-66.88q.19-.02.57-.23a.26.25 40.2 0 0-.04-.46q-.23-.08-.69.28a.23.23 0 0 0 .16.41zm-71.24 72.77q-.93 1.23-3.43 1.57a.32.32 0 0 0-.16.56l.63.52a1.41 1.4 56.6 0 0 1.25.26q1.6-.45 3.19.15a.49.48-76.8 0 0 .65-.41q.15-1.76.79-3.25 2.2-3.35.9-7.59a1.16 1.16 0 0 0-.65-.72q-2.05-.84-3.72-2.56a.47.47 0 0 0-.78.48q1.05 3.18.54 8.19-.09.93.7 1.05a.53.52-8.4 0 1 .4.29q.29.62-.31 1.46zM259 416.47q1.52 1.75.44 3.96a.35.35 0 0 1-.5.14q-.37-.24-.52-.26a.26.26 0 0 0-.21.45q.3.26.85.15a.82.81 8.6 0 1 .88 1.19l-2.75 4.98a.71.69-85.6 0 1-.34.3q-.84.34-.41 1.31a.74.72-7.2 0 0 .56.42q1.42.22 2.89 1.01a.5.5 0 0 0 .73-.35q.18-.94-.14-1.82a1.21 1.17-55.4 0 1-.08-.48c.07-2.32 1.94-2.59 2.82-4.24q1.64-3.05 4.03-6.1 1.42-1.81 4-6.11 3.75-6.27 10.06-16.09a3.64 3.54 86.5 0 1 .67-.78q2.74-2.45 4.53-5.71a2.35 2.34-60.1 0 0-.84-3.14l-.03-.02a1.96 1.95-60.6 0 0-2.8.79l-3.87 7.8a2.12 1.93 83.9 0 1-.41.56l-3.62 3.51a2.05 1.97-14.7 0 0-.55.9q-1.8 5.96-3.02 7.34a.63.63 0 0 1-1.05-.68q.17-.38-.01-.61a.24.23 26.4 0 0-.42.14q-.02 1.08-.73.74a.23.22 27.1 0 0-.3.09l-2.6 4.92a.88.88 0 0 1-.67.47l-1.89.27a.85.82-78.4 0 0-.63.43q-.94 1.72-3.11 1.38a.59.59 0 0 0-.67.49q-.01.02.34 1.43.11.44 0 .51-.24.16-.42.18a.33.32-23.9 0 0-.21.53zm-28.39-13.08c2.41-.94 3.26-3.14 4.76-4.96a1.7 1.69-45.2 0 0 0-2.15l-.18-.2a.76.76 0 0 0-1.16.02l-11.76 14.47a.95.95 0 0 0 .87 1.54l1.55-.21a2.69 2.69 0 0 0 2.06-1.54c.89-1.98 3.14-3.51 3.33-6.24a.83.82 81.3 0 1 .53-.73zm-30.94 11.78q.34-.32.19-.9-.12-.48-.72-.65-.43-.11-1.13.19-.61.26-.94-.29-.6-.99-1.42-.65a.28.28 0 0 0-.17.3l.04.3a.43.43 0 0 0 .55.35q.86-.26 2.92 1.38a.52.52 0 0 0 .68-.03zm38.52 14.14q-.27-1.31-.32-1.36a1.17 1.02-75.5 0 0-1.7 1.17q.16 1.18 1.17 1.2a.84.84 0 0 0 .85-1.01z"/><circle cx="298.54" cy="281.48" r=".82"/><path d="M276.89 285.87l-5.46 4.98a1.86 1.77-70.8 0 1-.82.42c-5.51 1.25-11.42-2.9-14.79-7.3q1.3-.04 3.05 2.15 1.62 2.03 4.94 1.77a.73.72 59.3 0 1 .46.12l2.31 1.5a.89.89 0 0 0 .87.05q.81-.4 1.18-1.08a.72.72 0 0 1 .28-.28l10.71-6.23a.5.5 0 0 1 .59.79l-3.32 3.11z"/><ellipse cx="0" cy="0" transform="matrix(.361625 -.932324 .932324 .361625 353.25 283.87)" rx=".78" ry=".63"/><ellipse cx="0" cy="0" transform="matrix(.604599 -.79653 .79653 .604599 295.89 284.71)" rx=".98" ry=".75" class="B"/><ellipse cx="0" cy="0" transform="matrix(.064532 -.997916 .997916 .064532 350.89 286.78)" rx=".92" ry=".63"/><g class="B"><path d="M357.88 287.18q.26.65-.11 1.29-.38-.75.11-1.29z"/><circle cx="245.25" cy="289.13" r="1.16"/><path d="M131.61 289.9q.01.34-.42.72a.76.76 0 0 1-.62.17q-2.75-.45-2.76-.78-.01-.32 2.71-.93a.76.76 0 0 1 .63.13q.45.35.46.69z"/></g><ellipse cx="0" cy="0" transform="matrix(-.944376 -.328867 .328867 -.944376 231.83 290.49)" rx="1.23" ry=".74"/><circle cx="305.01" cy="291.34" r=".87"/><circle cx="346.71" cy="293.19" r=".49"/><ellipse cx="0" cy="0" transform="matrix(.5373 -.843391 .843391 .5373 302.33 294.86)" rx=".86" ry=".72"/><g class="B"><path d="M253.65 299.81q.06.78-.74 1.12-1.17.49-1.3-.94-.12-1.44 1.13-1.16.84.2.91.98z"/><ellipse cx="0" cy="0" transform="matrix(.999048 .043619 -.043619 .999048 341.92 299.5)" rx=".62" ry=".42"/></g><path d="M239.8 300.3q.35.37.15 1.46a.58.58 0 0 1-.71.45q-.38-.09-.84-.57-.46-.48-.54-.86a.58.58 0 0 1 .49-.69q1.09-.16 1.45.21z"/><g class="B"><circle cx="311.39" cy="301.12" r=".74"/><path d="M265.51 333.99q-.54-.19-.83-.07-.93.39.13.92.38.19.39.21a.3.3 0 0 1-.54.23q-.28-.35-.33-.9a.15.15 0 0 0-.28-.04l-.12.27a.052.052 0 0 1-.1-.03q.1-.5.02-1.01a.38.38 0 0 0-.57-.27q-.13.08-.24.67a1.05 1.02 70.8 0 1-.2.43q-3.12 4.13-7.33 6.35a4.04 3.97-82.3 0 0-1.11.86q-1.52 1.66-3.89 2.9a1.55 1.12.9 0 0-.3.21l-6.17 5.69a1.49 1.45-12.9 0 0-.42.65c-.89 2.75-2.67 3.97-5.77 4.47q-1.8.28-4.52 1.3a.67.67 0 0 1-.87-.43L229 345.32c.51-3.25-1.56-6.16-2.92-8.89a3.71 3.51-66 0 1-.32-.91c-.79-3.96-1.25-7.43 2.54-9.93a.57.56 57 0 1 .79.17q.39.59.93.62a.98.95 66.5 0 1 .63.26q3.42 3.3 5.4 7.48a1.41 1.41 0 0 0 1.87.68l.9-.42a.96.95-31 0 0 .36-1.44l-5.4-7.22q1.14.09-.18-1.9a1.09 1.09 0 0 1 .94-1.7q2.31.08 4.24-1.52a2.37 2.22-42.3 0 1 3.09.04q1.88 1.86 3.7 5.76.59 1.24 1.49 1.57 1.26.45.43 2.08a.48.48 0 0 0 .29.68q.83.26.85.23a2.29 2.19-44.7 0 0 .08-2.74q-2.52-3.35-4.54-5.95 3.52-4.9 3.28-10.51 0-.89-.76-1.4.57.01.85-.15a.47.47 0 0 0 .16-.69l-5.65-7.71a.37.36-40.4 0 1 .04-.47l.43-.43a.1.08 49.1 0 1 .14.02l3.27 4.94a1.29 1.13 5.6 0 0 .31.33c2.44 1.82 2.89 4.32 4.59 6.4q5.41 6.66 9.56 13.93a4 3.93-81.4 0 0 .52.72q2.72 3.05 4.6 6.74zm-12.905-13.24a1.15.65-138 0 0 .42 1.252 1.15.65-138 0 0 1.29.286 1.15.65-138 0 0-.42-1.252 1.15.65-138 0 0-1.29-.286zm-11.195 4.2a2.56 1.1-124.5 0 0 .543 2.733 2.56 1.1-124.5 0 0 2.357 1.487 2.56 1.1-124.5 0 0-.543-2.733 2.56 1.1-124.5 0 0-2.357-1.487zm-3.451 1.829a1.64.68-130.3 0 0 .542 1.691 1.64.68-130.3 0 0 1.579.811 1.64.68-130.3 0 0-.542-1.691 1.64.68-130.3 0 0-1.579-.811zM98.15 300.92q.66 1.57-.25 2.37a.95.95 0 0 0-.3.59q-.07.6-.35 1.17l-.16-1.13 1.06-3zm211.14 3.4a.48.48 0 0 1-.77.55q-.65-.7-.67-.9a.34.34 0 0 1 .54-.32q.89.65.9.67z"/></g><path d="M97.09 303.92l.16 1.13q-.68 3.35-1.22 6.74-.24 1.54-1.15 2.55a.49.48 45 0 1-.73-.01l-.18-.21a.39.38-42.3 0 1 .03-.54q1.06-.97.65-1.81a.6.59-33.6 0 1 .15-.7l.79-.68a.14.14 0 0 0 .04-.12q-.03-.42-.66-.5l2.12-5.85z"/><g class="B"><path d="M337.28 303.96q1.8 2.89-1.77 2.92.42-1.64 1.77-2.92zm8.92 1.06a.23.23 0 0 1-.16-.41q.46-.36.69-.28a.26.25 40.2 0 1 .04.46q-.38.21-.57.23z"/><ellipse cx="0" cy="0" transform="matrix(-.139173 -.990268 .990268 -.139173 259.7 310.21)" rx="1.31" ry=".86"/><path d="M314.64 309.2q.48.78.49 1.01a.25.25 0 0 1-.47.12q-.39-.77-.39-1.03a.2.2 0 0 1 .37-.1z"/></g><path d="M246.69 310.36q.76.51.76 1.4-1.85.49-2.26-1.24a.35.35 0 0 1 .13-.37q.5-.39 1.37.21zm70.89.19a.67.63-36.5 0 1 1.27.15q-.01.46-.78.62a.39.39 0 0 1-.48-.35q-.03-.36-.01-.42zM89.46 312.1q-.59.26-.54.83.05.53.64.85 1.47.79 1.31 1.86a.56.55-80.3 0 0 .44.63q1.6.33 2.24.21a.56.56 0 0 1 .6.83l-1.52 2.63-.28-1.7a.94.93 81 0 0-1.06-.78q-.17.03-.38.09a.89.89 0 0 1-.86-.24q-.7-.7-.26-1.42a.77.77 0 0 0-.05-.89q-1.42-1.79-1.49-1.88a.78.75 62.5 0 1 .35-1.21q.35-.11.86.19zm3.57 0q-.5.85-1.98-.05l1.98.05z"/><g class="B"><path d="M321.52 313.04q.1-.17.51-.77.32-.46.61-.34.17.08.28.22a.43.43 0 0 1-.1.63l-.92.61a.27.26-2 0 1-.38-.35z"/><circle cx="332.52" cy="312.6" r=".43"/></g><ellipse cx="0" cy="0" transform="matrix(0 -1 1 0 315.48 314.31)" rx=".67" ry=".56"/><path d="M320.71 317.37a.19.19 0 0 1-.35.12q-.16-.27-.19-.47a.25.25 0 0 1 .47-.15q.02.03.07.5zm-.07.9q1.28.62 2.12 2.17a.23.22 10.5 0 1-.37.25l-1.92-2.2a.14.14 0 0 1 .17-.22z" class="B"/><path d="M244.17 322.27q2.02 2.6 4.54 5.95a2.29 2.19-44.7 0 1-.08 2.74q-.02.03-.85-.23a.48.48 0 0 1-.29-.68q.83-1.63-.43-2.08-.9-.33-1.49-1.57-1.82-3.9-3.7-5.76a2.37 2.22-42.3 0 0-3.09-.04q-1.93 1.6-4.24 1.52a1.09 1.09 0 0 0-.94 1.7q1.32 1.99.18 1.9l-4.44-2.13a.52.52 0 0 1 .12-.98q1.81-.4 3.59-1.49a2.67 2.62 25.5 0 1 1.04-.36q3.3-.41 5.33-1.91a2.05 2.05 0 0 1 2.95.55l1.8 2.87z"/><g class="B"><ellipse cx="0" cy="0" transform="matrix(.861629 -.507538 .507538 .861629 318.65 319.52)" rx=".59" ry=".31"/><ellipse cx="0" cy="0" transform="matrix(-.695913 -.718126 .718126 -.695913 267.03 320.56)" rx="1.1" ry=".72"/></g><ellipse cx="0" cy="0" transform="matrix(-.743145 -.669131 .669131 -.743145 253.46 321.52)" rx="1.15" ry=".65"/><ellipse cx="0" cy="0" transform="matrix(-.182236 -.983255 .983255 -.182236 317.09 322.38)" rx=".7" ry=".51"/><path d="M326.03 324.93l-.42.45a.43.43 0 0 0-.1.3q.03.53.56.58-1.69 1.87-3 4.05-.6.99-1.12-.01 1.12-1.78 2.21-3.66.63-1.1-.6-3.04-2.26-4.52 2.47 1.33z" class="B"/><path d="M323.56 323.6q1.23 1.94.6 3.04-1.09 1.88-2.21 3.66-.6.16-1.08.11a.92.92 0 0 1-.74-.55q-2.62-5.91 3.43-6.26zm2.51 2.66q-.53-.05-.56-.58a.43.43 0 0 1 .1-.3l.42-.45q.51-.65.91-.9a.59.58 51.6 0 1 .72.09l.38.37a.46.46 0 0 1-.1.72l-1.87 1.05z"/><ellipse cx="0" cy="0" transform="matrix(-.566406 -.824126 .824126 -.566406 242.86 327.06)" rx="2.56" ry="1.1"/><ellipse cx="0" cy="0" transform="matrix(-.64679 -.762668 .762668 -.64679 239.02 328.03)" rx="1.64" ry=".68"/><path d="M318.2 332.57q-.18-.27-.08-1.04a.27.27 0 0 1 .51-.09q.26.52.17 1.01a.33.33 0 0 1-.6.12z"/><ellipse cx="0" cy="0" transform="matrix(-.699663 -.714473 .714473 -.699663 313.28 339.16)" rx=".91" ry=".64"/><g class="B"><ellipse cx="0" cy="0" transform="matrix(-.368125 -.929776 .929776 -.368125 280.78 340.88)" rx="1.01" ry=".67"/><ellipse cx="0" cy="0" transform="matrix(.999391 -.034899 .034899 .999391 125.23 344.63)" rx="1.97" ry=".49"/><ellipse cx="0" cy="0" transform="matrix(-.942057 -.335452 .335452 -.942057 139.59 344.85)" rx="1.85" ry=".43"/></g><ellipse cx="0" cy="0" transform="matrix(.34038 -.940288 .940288 .34038 307.81 346.2)" rx=".82" ry=".62"/><path d="M113.96 347.92l-1.54.6a.9.9 0 0 0-.58.84v.52a.78.78 0 0 0 .96.76q2.34-.54 4.04-2.17a1.09 1.08 20.6 0 1 .67-.3l3.87-.29a.42.42 0 0 1 .33.72l-.48.47a1.81 1.79 20 0 1-1.14.52l-2.83.22a.69.49 21.1 0 0-.2.05l-4.83 2.46a.65.65 0 0 0-.36.58v1.48a.67.67 0 0 1-.3.56l-2.03 1.35a.7.7 0 0 0 .14 1.24l.73.28a.36.36 0 0 1-.01.67q-2.29.79-3.37 2.38l-8.75-2.52q2.48.15 3.93-3.19 2.66-.09 4.36-3.53l4.68-3.28a.61.61 0 0 0 .23-.7l-.47-1.39 2.95 1.67z" class="B"/><path d="M127.04 348.22v5.38a.48.48 0 0 1-.71.42q-.29-.15-.84-.64a1.31 1.29-24.8 0 0-.92-.33q-2.19.07-4.21-1.02a.59.59 0 0 1 .09-1.08q1.72-.58 2-2.15a.76.75 1 0 1 .63-.6l3.4-.47a.49.49 0 0 1 .56.49z"/><circle cx="287.91" cy="350.97" r="1.04" class="B"/><path d="M106.57 351.62q-1.7 3.44-4.36 3.53 1.96-2.32 4.36-3.53z"/><ellipse cx="0" cy="0" transform="matrix(-.901077 -.433659 .433659 -.901077 293.71 353.6)" rx=".78" ry=".62"/><path d="M302.18 353.09a.4.36 53.8 0 1 .7.15q.13.47-.13.97a.39.36-39.1 0 1-.71-.04q-.11-.59.14-1.08z"/><g class="B"><path d="M124.44 357.19q-.08-1.56 1.11-2.69a.66.66 0 0 1 1.08.69q-.68 1.97-.76 5.91-.02.7-.37.89-.41.22-1.04.13a.5.5 0 0 1-.35-.78q.88-1.3-.97-2.49a.53.53 0 0 1 .05-.93q.52-.26.66-.23a.48.48 0 0 0 .59-.5z"/><circle cx="291.59" cy="356.42" r=".5"/></g><ellipse cx="0" cy="0" transform="matrix(.934826 -.355107 .355107 .934826 57.1 359.64)" rx="1.16" ry=".48"/><path d="M288.22 363.83a1.12 1.12 0 0 1 1.08-1.74l2.87.38a.88.85-61.7 0 0 .69-.22q.75-.7 1.5-.47a1.23 1.22 81.8 0 1 .7.53q1.18 1.88 2.87.63a.4.4 0 0 1 .59.5q-.62 1.22-2.12 2.37a.71.7 55.4 0 1-1.02-.19q-1.2-1.93-2.81-2.79a1.2 1.2 0 0 0-1.65 1.57l.78 1.68a.6.6 0 0 1-.64.85l-.55-.09a1.07 1.07 0 0 1-.89-1.22l.1-.58a1 .99 7.4 0 0-.88-1.14q-.61-.06-.62-.07z" class="B"/><path d="M277.88 377.19q-.08-.74-1.13-.56-.66.11-1.79 1.16.6-.84.31-1.46a.53.52-8.4 0 0-.4-.29q-.79-.12-.7-1.05.51-5.01-.54-8.19a.47.47 0 0 1 .78-.48q1.67 1.72 3.72 2.56a1.16 1.16 0 0 1 .65.72q1.3 4.24-.9 7.59z" class="C"/><path d="M225.19 366.76q-.83 3.71-3.03 6.15-3.03 3.35-3.08 3.42-2.46 3.31-2.86 3.69c-1.38 1.3-1.84 3.69-3.9 5.01q-4.1 2.63-5.36 3.74a5.17 5.03 86.7 0 0-.84.97q-3.39 5.12-4.08 5.96-2.15 2.59-4.78 3.96a1.08 1.02-85.2 0 0-.38.34l-3.27 4.78a.32.32 0 0 1-.58-.2q.17-2.03-1.07-3.24a.42.42 0 0 0-.7.2q-.79 3.4-1.13 6.14c-.11.87.68 1.76-.17 2.99a.73.67-86.7 0 0 .87 1.06q.48-.3 1.47-.41.92-.11 1.06.78.16.95-.24 1.5a.66.66 0 0 0 .01.77l.67.92a.26.26 0 0 1-.22.41q-1.13-.02-1.57-.27-.55-.32-.43-.85.08-.35.85-.55a.46.45 49.8 0 0 .07-.86l-1.66-.71a.63.62 27 0 0-.79.25q-.5.83-.42 1.75a.38.37-22.9 0 1-.14.33q-.26.2-.6-.1-.13-.12-.35-.07-.65.16-.53 1.41-.98-.83-1.89-.93a.86.86 0 0 0-.8 1.35l.95 1.37q-.43-.06-.65.14-.24.21-.14.63 1.03 4.37-1.82 7.55a.47.47 0 0 0 .27.77q.44.08 1.23-.07l-7.86 10.19q-.39.03-1.03-1.15a.54.54 0 0 1 .12-.66q.26-.24 1.06-.07a.63.6 79.1 0 0 .61-.95q-.45-.69-1.15-.41a.49.49 0 0 1-.66-.33q-.39-1.53.95-2.56a1.13 1.08 77.5 0 0 .4-.66q.44-2.13 1.88-4.37a1.02 1.01 36.6 0 0-.2-1.33l-.03-.02a.77.77 0 0 0-1.18.22l-2.69 5.03a.37.37 0 0 1-.68-.05l-.23-.63a1.25 1.23-46.3 0 1-.01-.85c1.51-4.16 1.06-7.77.25-12.61-.67-3.96-2.14-6.57-4.13-11.5a14.52 14.02-74.7 0 0-1.56-2.85q-2.37-3.36-5.26-8.04-1.2-1.94-6.67-7.98 2.77-4.47 6.96-3.85a1.36 1.32 31.4 0 0 .93-.21l1.36-.9a1.44 1.41 31.6 0 1 .97-.22q3.25.42 5.2-1.31a2.08 2.07 23.2 0 1 1.28-.51l5.74-.2a1.1.97 30.1 0 0 .25-.05q5.96-2.36 9.2-2.93 4.14-.73 6.31-1.64.58-.24 6.34-1.62c4.03-.98 10.59-2.91 15-4q1.12-.28 3-.24a2.07 2.07 0 0 0 .95-.21q2.5-1.21 4.61-.61zm66.2 13.24l-1.38 1.89a.76.76 0 0 1-.91.24l-3.73-1.61a.51.51 0 0 1-.1-.88l1.11-.81a.6.6 0 0 0-.02-.98l-2-1.36a.09.08-58.5 0 1-.02-.11l.18-.25a.15.14 20.8 0 1 .15-.06q1.11.28 2.26 1.16a.69.69 0 0 0 .92-.07q.38-.41.42-.99a.92.92 0 0 1 .56-.78q1.04-.41 1.73-1.14.5-.41.66-.4a.72.72 0 0 1 .57 1.14q-1.51 2.1-1.94 4.55a.46.44 29.4 0 0 .12.39q.43.45 1.42.07zm-13.51-2.81q-.64 1.49-.79 3.25a.49.48-76.8 0 1-.65.41q-1.59-.6-3.19-.15a1.41 1.4 56.6 0 1-1.25-.26l-.63-.52a.32.32 0 0 1 .16-.56q2.5-.34 3.43-1.57 1.13-1.05 1.79-1.16 1.05-.18 1.13.56zm-133.8 11.27q-.83.72-.73 1.38a.81.79 61.1 0 1-.18.65q-1.43 1.71-2.9 1.02a.43.43 0 0 0-.59.24l-.71 1.87a.86.86 0 0 1-1.59.06l-4.74-10.21a.28.28 0 0 0-.4-.13q-.3.18-.77.02a.2.19 54.7 0 1 .06-.38q2.72.1 2.53-1.04a1.99 1.5 3.5 0 1 2.42-1.6q2.39.49 1.48 1.89a.74.73-55.8 0 0 .19 1.01q.31.21.49.25a.64.64 0 0 1 .49.7q-.14 1.07 1.08 2.04a.55.54-54.8 0 1 .12.71q-.7 1.13-.22 1.94a.53.53 0 0 0 .81.11q.66-.63 2.99-.93a.23.22-68.8 0 1 .17.4zm-7.86-2.82l1.9.3a.29.29 0 0 0 .19-.53q-1.01-.6-2.13-.19a.22.22 0 0 0 .04.42zm-12.15 3.91q-.52-.37-.44-.93a.56.56 0 0 1 .62-.49q.66.09 1.02-.1a.56.55 54.3 0 0 .14-.87q-.27-.29-.63-.39.05-.11.07-.26a.39.39 0 0 0-.19-.38q-2.05-1.2-.31-3.63a.47.47 0 0 1 .85.21q.24 1.89.27 1.93a.26.26 0 0 0 .47-.13q.14-1.36-.32-2.93a.72.72 0 0 1 1.3-.58q1.75 2.8 3.76 3.12a.58.58 0 0 1 .32.98l-3.62 3.61a1.23 1.22-50.7 0 1-1.54.16q-1.17-.77-1.77-.33a.26.26 0 0 0 .01.42l.31.19a.21.21 0 0 1-.01.36q-.16.09-.31.04z" class="B"/><path d="M244.51 409.54q-1.9.7-4.08 2.86-1.18 1.17-5.16 3.76-1.48.96-2.33 1.92-.98 1.1-2.33 1.68-3.64 1.55-6.06 4.46a3.43 3.4 7.1 0 1-1.22.94q-2.43 1.13-5.5 3.72a6.71 6.31-11.3 0 1-.76.55q-6.78 4.17-8.17 5.76-1.13 1.31-1.99 1.67-1.06.45-1.73.97-5.26 4.08-12.48 9.13-.47.33-.98.38a.3.29-67.7 0 0-.16.07l-8.58 7.4a1.57 1.56-23.5 0 0-.54 1.36q.03.23 1.47-.1-.19 2.4-1.14 4.28l-.68-3.98a.71.55-71.5 0 0-.07-.2q-1.26-2.74-.39-5.89c.32.36.95-.31.66-.76q.21-.4.48-.44 1.24.21 2.27-.56 4.54-3.46 7.74-6.08a5.51 5.47-78.9 0 1 .9-.61q4.1-2.24 6.57-5.13a.46.42 2.6 0 1 .12-.1l5.32-3.63a2.23 2.12 1.5 0 0 .41-.37q1.91-2.24 5.89-4.36.99-.52 1.3-1.73l1.49-1.55 4.19-2.62q3.36-1.82 5.17-4.43l.36-2.03q.74-1.05 1.77-.42-.05.47.04.83a.5.5 0 0 0 .69.34q.52-.23.85-.94-.12-1.51.51-2.76a.88.87 42.4 0 0-.04-.84q-.5-.83-.67-1.82l9.92-12.48a1.21 1.19 22.7 0 1 1.1-.44l1.54.22a.9.9 0 0 0 .92-.46q.02-.03.03-.11a.53.51-87.6 0 1 .45-.43q.29-.03.33.11.22.85-.38 1.47-2.77 2.86-5.29 5.76l-5.97 7.45a.92.92 0 0 0 .76 1.49q1.62-.08 1.85-2.13l3.74-1.47a1.83 1.76 9.9 0 0 .67-.45q2.74-2.9 5.22-4.5 2.09-1.35 3.13-2.48a3.72 3.71-84.4 0 1 .79-.65q5.64-3.38 9.1-6.97a3.08 3.07-79.5 0 1 .97-.67q1.6-.69 2.02-1.04 3.64-3.01 9.04-6.63a1.01 1 48.4 0 1 1.21.08q.8.72 1.6.42.62-.23.42-.88-.12-.4-.91-.53a.46.46 0 0 1-.27-.76q1.79-2.01 4.14-1.49a.83.81 21.3 0 0 .89-.38q.38-.63 2.31-.55a.5.5 0 0 1 .48.55q-.18 2.18-1.86 2.63a.82.82 0 0 0-.55.47l-1.26 2.91a.45.45 0 0 1-.85-.05l-.13-.42a.742.742 0 0 0-1.44.36c.24 1.29-.38 2.27-1.52 2.92q-5.32 3.04-7.85 5.56a4.75 4.65-80 0 1-1.19.85c-2.89 1.46-5.25 4.03-7.79 5.88q-4.23 3.08-8.51 6.11zm-119.73-22.77q.36.1.63.39a.56.55 54.3 0 1-.14.87q-.36.19-1.02.1a.56.56 0 0 0-.62.49q-.08.56.44.93.55.15.57.65a.4.39 85.8 0 1-.33.39l-3.55.49a1.05 1.01 11.5 0 0-.72.46l-1.08 1.66a.47.46 27.4 0 0 .22.69l1.04.39a.32.32 0 0 1 .18.44q-.17.38-.87.4a.63.63 0 0 0-.42.16l-3.15 2.74a.69.66 80.3 0 0-.2.3l-1.43 4.52a1.25 1.25 0 0 1-1.78.72q-.02 0 0-.59a1.22 1.21 17.9 0 0-.55-1.07l-3.12-2.03a.6.59-66.5 0 1-.25-.65q.08-.29.08-.31a.94.94 0 0 0-.49-.96q-6.54-3.55-12.56-5.27a.61.61 0 0 0-.65.96l2.41 3.05a1.69 1.69 0 0 1-.51 2.52l-.1.05a1.87 1.87 0 0 1-2.59-1.03l-2.25-6.15a.81.79 81.5 0 0-.7-.53l-6.45-.46a.36.36 0 0 1-.18-.07q-1.23-.9-2.96-.28c-2.2.78-3.18.62-5.64 1.02a2.21 2.08 21.4 0 0-.87.35c-4.89 3.27-8.22 6.03-8.47 12.5a.26.26 0 0 1-.25.26h-.08a.34.34 0 0 1-.34-.34q.02-5.59 3.09-9.26 2.56-3.06 8.11-6.21a1.62 1.61 24.6 0 1 .49-.18l7.91-1.65a2.24 2.17-45.9 0 1 .66-.02q1.86.27 8.31 1.09c6.87.87 11.73 3.25 17.84 6.52a.75.74 31.9 0 0 .96-.22q.52-.72 2.68-3.45 1.13-1.43 5.46-4.96a1.24 1.24 0 0 0 .42-.66q.09-.35.23-.55a.45.45 0 0 1 .82.19l.17 1.27a.66.65-11.1 0 0 .81.54l.79-.21z" class="C"/><path d="M136.22 385.64a.22.22 0 0 1-.04-.42q1.12-.41 2.13.19a.29.29 0 0 1-.19.53l-1.9-.3z"/><path d="M259.21 415.94q.18-.02.42-.18.11-.07 0-.51-.35-1.41-.34-1.43a.59.59 0 0 1 .67-.49q2.17.34 3.11-1.38a.85.82-78.4 0 1 .63-.43l1.89-.27a.88.88 0 0 0 .67-.47l2.6-4.92a.23.22 27.1 0 1 .3-.09q.71.34.73-.74a.24.23 26.4 0 1 .42-.14q.18.23.01.61a.63.63 0 0 0 1.05.68q1.22-1.38 3.02-7.34a2.05 1.97-14.7 0 1 .55-.9l3.62-3.51a2.12 1.93 83.9 0 0 .41-.56l3.87-7.8a1.96 1.95-60.6 0 1 2.8-.79l.03.02a2.35 2.34-60.1 0 1 .84 3.14q-1.79 3.26-4.53 5.71a3.64 3.54 86.5 0 0-.67.78q-6.31 9.82-10.06 16.09-2.58 4.3-4 6.11-2.39 3.05-4.03 6.1c-.88 1.65-2.75 1.92-2.82 4.24a1.21 1.17-55.4 0 0 .08.48q.32.88.14 1.82a.5.5 0 0 1-.73.35q-1.47-.79-2.89-1.01a.74.72-7.2 0 1-.56-.42q-.43-.97.41-1.31a.71.69-85.6 0 0 .34-.3l2.75-4.98a.82.81 8.6 0 0-.88-1.19q-.55.11-.85-.15a.26.26 0 0 1 .21-.45q.15.02.52.26a.35.35 0 0 0 .5-.14q1.08-2.21-.44-3.96a.33.32-23.9 0 1 .21-.53z" class="B"/><path d="M230.08 404.12c-.19 2.73-2.44 4.26-3.33 6.24a2.69 2.69 0 0 1-2.06 1.54l-1.55.21a.95.95 0 0 1-.87-1.54l11.76-14.47a.76.76 0 0 1 1.16-.02l.18.2a1.7 1.69-45.2 0 1 0 2.15c-1.5 1.82-2.35 4.02-4.76 4.96a.83.82 81.3 0 0-.53.73zm-82.37 38.4q.79-.98-.32-1.86a.65.64 26.9 0 1-.23-.69q.1-.35.01-.47c-1.82-2.55-1.74-4.96-4.28-7.45a1.42 1.35-75.3 0 1-.39-.71l-.29-1.21a1.47 1.43-70.7 0 0-.26-.56l-7.24-9.89q-.02-.02-.04-.04c-4.24-4.12-8.57-9.53-13.75-12.65a4.09 3.99-5.5 0 1-.91-.73q-1.74-1.85-3.77-2.69a.88.87 15.4 0 1-.54-.95l.11-.67a.63.62 25 0 1 1.03-.37q.87.77 2.02 1.13a.56.55 76.4 0 0 .56-.92q-.97-1-2.31-.85a.46.45-4 0 1-.51-.44q-.01-.88.31-1.42a.72.71 33.4 0 1 1.04-.21l11.74 8.63a1.51 1.32 82.4 0 1 .24.21l7.89 8.13a2.31 1.4 52.9 0 1 .21.25q1.93 2.87 3.98 5.26 1.71 1.99 3.55 5.02 2.61 4.29 6.18 13.49 1.31 3.36 1.25 7.18a.38.37 27.6 0 1-.68.21l-.65-.88a.26.26 0 0 0-.46.11l-.71 4.48a.18.17-80.3 0 1-.2.15l-.25-.04a.35.35 0 0 1-.3-.32l-.36-4.75a1.15 1.15 0 0 0-.29-.68q-.73-.84-.65-2.1a.52.52 0 0 0-.41-.53q-.01 0-.22.02a.12.11 18.4 0 1-.1-.19z" class="C"/><path d="M236.27 403.91q.63 2.13-1.57 4.03-1.6 1.39-1.79 2.78-.23 2.05-1.85 2.13a.92.92 0 0 1-.76-1.49l5.97-7.45zm8.24 5.63q-.63.89 1.04.15a.291.291 0 0 1 .28.51l-2.51 1.67q-.37-.61-.85-.33a1.16 1.16 0 0 0-.45 1.56q.13.23.45.2-.28.29-.78.44-.5-.83-1.09-.4-1.42 1.05-2.08 2.33a.65.65 0 0 0 .93.85q1.02-.65 1.84-1.78l.63.11a.4.4 0 0 1 .26.62l-1.81 2.64a.56.56 0 0 1-.56.24l-2.09-.35a.55.54-72.2 0 0-.57.3l-1.31 2.77a1.4 1.29 83.3 0 1-.29.4q-2.21 2.16-1.45 6.17a.82.81-84 0 0 .49.61q.37.16.4.21a1.58 1.37 73.5 0 1-1.08 2.37q-.76-.03-1.26.22a.54.53-62.3 0 0 .31 1.01l3.26-.46a.61.6 85.9 0 1 .69.6v4.18a.25.24 25.5 0 0 .06.16q.68.83.29 2.5a.9.9 0 0 1-1.24.62l-13.14-5.68a2.3 2.15 57.2 0 0-.68-.17q-1.81-.12-3.23-1.46a1.49 1.46 66 0 0-1.04-.41l-1.12.01q-3.04.66-5.65 2.96c-3.75 3.32-7.85 6.02-11.15 8.66q-2.7 2.15-4.8 3.77-.06.05-5.78 3.86-3.03 2.02-5.52 4.87-1.44.33-1.47.1a1.57 1.56-23.5 0 1 .54-1.36l8.58-7.4a.3.29-67.7 0 1 .16-.07q.51-.05.98-.38 7.22-5.05 12.48-9.13.67-.52 1.73-.97.86-.36 1.99-1.67 1.39-1.59 8.17-5.76a6.71 6.31-11.3 0 0 .76-.55q3.07-2.59 5.5-3.72a3.43 3.4 7.1 0 0 1.22-.94q2.42-2.91 6.06-4.46 1.35-.58 2.33-1.68.85-.96 2.33-1.92 3.98-2.59 5.16-3.76 2.18-2.16 4.08-2.86zm-8.902 26.712a.95.49-86.5 0 0-.547.918.95.49-86.5 0 0 .431.978.95.49-86.5 0 0 .547-.918.95.49-86.5 0 0-.431-.978zm-7.958-25.982q.17.99.67 1.82a.88.87 42.4 0 1 .04.84q-.63 1.25-.51 2.76-.72-.95-1.58-.23-1.03-.63-1.77.42-.62.02-1.07.44a1.04 1.03 44.7 0 0 .01 1.55q.05.05.7.04-1.81 2.61-5.17 4.43l.43-8.02a.45.45 0 0 1 .53-.42q6.26 1.22 7.72-3.63z" class="B"/><path d="M243.32 411.87q.06 1.08-.85 1.43-.32.03-.45-.2a1.16 1.16 0 0 1 .45-1.56q.48-.28.85.33z" class="C"/><path d="M207.63 422.75q-4.81-.09-8.43-1.77-.39-1.32.55-2.15a.32.32 0 0 1 .53.27q-.12 1.63 1.72 1.86a.45.44 1.1 0 0 .5-.48l-.27-3.63a.88.88 0 0 0-.15-.42q-1.05-1.63-.94-3.83a.32.32 0 0 1 .63-.05c.49 2.13.99 5.05 2.37 6.12q.61.48.38.77-.44.59-.81.76a.53.53 0 0 0 .16 1q2.03.27 3.76 1.55zm-7.96-7.58a.52.52 0 0 1-.68.03q-2.06-1.64-2.92-1.38a.43.43 0 0 1-.55-.35l-.04-.3a.28.28 0 0 1 .17-.3q.82-.34 1.42.65.33.55.94.29.7-.3 1.13-.19.6.17.72.65.15.58-.19.9z" class="B"/><path d="M241.69 413.74q0 .56-.4 1-.82 1.13-1.84 1.78a.65.65 0 0 1-.93-.85q.66-1.28 2.08-2.33.59-.43 1.09.4zm-53.68 2.29l1 1.23a.46.43 36.8 0 0 .77-.09q.04-.08.07-.22a.67.67 0 0 1 .78-.51q.76.14.83 1.03-1.57-.1-2.01 1.31-2.21.33-3.18-.96l-.95-1.37a.86.86 0 0 1 .8-1.35q.91.1 1.89.93z" class="C"/><path d="M227.85 415.69q-.33.71-.85.94a.5.5 0 0 1-.69-.34q-.09-.36-.04-.83.86-.72 1.58.23zm-3.35.19l-.36 2.03q-.65.01-.7-.04a1.04 1.03 44.7 0 1-.01-1.55q.45-.42 1.07-.44zm-38.23 1.94q.97 1.29 3.18.96l-4.29 8.06q-.79.15-1.23.07a.47.47 0 0 1-.27-.77q2.85-3.18 1.82-7.55-.1-.42.14-.63.22-.2.65-.14z"/><path d="M213.29 426.51q-.31 1.21-1.3 1.73-3.98 2.12-5.89 4.36a2.23 2.12 1.5 0 1-.41.37l-5.32 3.63a.46.42 2.6 0 0-.12.1q-2.47 2.89-6.57 5.13a5.51 5.47-78.9 0 0-.9.61q-3.2 2.62-7.74 6.08-1.03.77-2.27.56 6.72-6.01 14.41-10.69a4.64 4.57-84.5 0 0 1.05-.88q2.08-2.38 4.93-3.8 1.21-.6 3.71-2.97 2.76-2.6 6.42-4.23z" class="B"/><path d="M254 432.91q-1.03.29-1.42.65-.16.15-.15 1.46.02 1.5-.18 2.94-.78.2-.58 1-.16 2.04-2.14 1.54-.59-.14-1.84-.95a1.43 1.4 56.9 0 0-.95-.21l-1.05.14a.34.33-32.4 0 0-.14.61l3.69 2.4a.33.33 0 0 1-.12.6q-1.74.32-3.83-.7-1.63-.59-3.1-.04-1.56.19-1.77-.78l1.56-.38a.42.41 64.9 0 0 .23-.65l-1.76-2.4a1.49 1.4-71.7 0 1-.25-.54c-.88-3.78.61-6.76 4-8.26q1.9-.84 2.23-1.69a.73.72-76.6 0 1 .74-.46q2.1.18 2.89 2.01a.48.47-21.6 0 1-.28.64q-.55.19-.9.95a.46.46 0 0 0 .69.56l.61-.45a.74.73-46.2 0 1 .85-.02l2.97 2.03zm-15.81-3.6a.84.84 0 0 1-.85 1.01q-1.01-.02-1.17-1.2a1.17 1.02-75.5 0 1 1.7-1.17q.05.05.32 1.36z" class="C"/><ellipse cx="0" cy="0" transform="matrix(.061049 -.998135 .998135 .061049 235.55 437.2)" rx=".95" ry=".49"/><path d="M227.71 439.68l-2-2.15q2.47.2 2 2.15z" class="B"/><path d="M252.25 437.96q.09.73-.58 1-.2-.8.58-1z"/><path d="M235.24 441.35l-3 .12q-.26-1 .52-1.25 1.86-.61 2.48 1.13z" class="B"/><path d="M245.29 442.39l-3.1-.04q1.47-.55 3.1.04z"/><ellipse cx="0" cy="0" transform="matrix(.185667 -.982613 .982613 .185667 232.48 446.28)" rx="2.04" ry=".78"/><path d="M182.29 449.52c.29.45-.34 1.12-.66.76l-.09-.59.75-.17zm-27.07 27.77q.05-.1.23-.18a.13.12 59.5 0 1 .15.04q.72 1.05.5 1.87a.59.47 39.6 0 1-.96-.02q-.48-.67-.25-1.08a.87 0-62.6 0 0 .33-.63zm7.45 14.3a.291.291 0 0 1-.45-.37q.61-1.01 2.12-2.28a.62.62 0 0 1 .87.07q.75.87.85 2.25a.35.35 0 0 1-.59.27q-1.31-1.32-2.8.06zm-7.56.12l-.54-.2a.3.3 0 0 1 0-.56q1.84-.68 3.12.14a.66.66 0 0 1 .13 1q-.71.76-2.38.57a.24.23 78.4 0 1-.19-.13q0-.01.1-.3a.41.41 0 0 0-.24-.52zm1.78 2.66q.14.23.13.32-.09.99-1.09 1.19-1.57.3-1.71.06-.14-.24.89-1.47.65-.77 1.57-.37.07.03.21.27z" class="B"/></svg>