<svg xmlns="http://www.w3.org/2000/svg" baseProfile="tiny" width="512" height="294" xmlns:v="https://vecta.io/nano"><style><![CDATA[.B{fill:#45536d}.C{fill:#c3c8cf}.D{fill:#615145}.E{fill:#d28043}.F{fill:#5f5a4e}.G{fill:#bb9882}]]></style><path d="M398.85.11q.06.76 1.07.91.87.13 1.08 1.1a.48.48 0 0 1-.47.58q-2.39.03-2.27 1.98a1.25 1.24-11.9 0 1-.82 1.25l-37 13.56q-13.07 4.68-21.98 8.46-.9.38-2.3.63a3.31 3.09-58.3 0 0-.55.15l-35.43 13.2a.47.47 0 0 1-.6-.26q-.34-.83 1.32-1.52a.5.49 56.5 0 0 .16-.8q-1.19-1.22-2.77-.99a1.25 1.24-75 0 0-.81.47q-1.28 1.62-3.23 1.44.09-.95-1.25-.88-1.6.09-3.22.08l1.91-.47q1.66.28 2.99-.42-.25-1.69 2.16-2.54 68.98-24.26 88.97-31.44 1.84-.66 5.21-2.5a1.25 1.23 23.6 0 1 .34-.13l7.49-1.86z" class="E"/><path d="M500.49 97.6q-.96 8.11-7.27 10.37a.93.89 11 0 0-.33.21l-10.88 10.69a.97.94-61.2 0 1-.84.26q-1.65-.3-2.85-1.98a.33.33 0 0 0-.55.01q-1.02 1.66-3.49 3.51a.38.38 0 0 1-.46-.01c-.4-.31-.86-.09-.9.41a.32.32 0 0 0 .43.32l.41-.15a.85.85 0 0 1 1.03.35l1.77 2.88a.83.82-38.9 0 1-.11 1q-1.54 1.6-5.11 4.6-1.62 1.36-.95 2.75a.75.72 48.4 0 1-.03.71q-1.18 1.93-1.79.95a.32.32 0 0 0-.58.1q-.09.42-.6.28-.16-.05-.39-.4-.18-.27-.49-.28l-9.95 9.4q-2.29.47-2.86-1.04-1.22-3.2-4.42-3.82-.85-.17-.8-.44a.09.09 0 0 0-.15-.08l-7.43 6.35a1.24 1.23 27.1 0 1-.93.3q-.03 0-.75-.17a1.31 1.3-60.6 0 0-1.23.35l-9.74 9.74a.11.1-62.8 0 0 .05.18q2.14.37 2.11-1.18a1.04 1.01 68.2 0 1 .32-.77l7.64-6.94a1.38 1.38 0 0 1 2.2.47l1.19 2.72a.93.92-5.8 0 0 .65.53q1.19.27 1.69.61a.27.27 0 0 0 .42-.28q-.32-1.34.51-1.73.74-.34 1.28-.88 2.58-2.53 2.83-3a.82.81-63.1 0 1 1.09-.36q2.79 1.36 3.39 4.22a.8.79 1.9 0 0 .57.6q3.3.91 4.32 4.28a.72.7-26.2 0 1-.28.79q-1.41.97-1.85.99a.2.2 0 0 0-.15.33q.09.12-.03.33-.2.34-.51.32-1.3-.12-1.4-.15a.37.37 0 0 0-.47.47l.29.87a.7.7 0 0 1-.26.8q-1.35.93-1.97 1.12-1.31.39-1.87 1.27c-1.12 1.75-2.94 1.69-4.44 3.07q-3.31 3.03-4.41 4.49c-1.21 1.59-2.54 2.62-4.52 4.45a.9.89-31.8 0 0-.23.97l.45 1.22a.9.89 57.4 0 1-.21.96l-2.06 2.07a1.21 1.2 22.8 0 1-.84.34q-.8-.01-1.2.15a1.05.87 84.6 0 0-.55.81l-.16 1.52q-.51-.02-.88.09-2.8.7-3.98 2.34l-.87.99a1.33 1.3-74 0 1-.77.44q-.94.16-1.13.85l-.38-.11a.57.56-67 0 0-.63.26c-.95 1.65-2.32 1.85-3.01 3.83q-.87 2.48-4.2 3.44a1.46 1.43 48.5 0 1-1-.07q-2.09-.92-3.09-3.42a.55.54 63.7 0 0-.78-.27q-4.21 2.5-5.94 6.03a2.84 2.8 87.9 0 1-1.09 1.19c-2.92 1.76-5.63 3.83-7.07 6.79q-.49 1-3.08 2.33-2.23 1.14-5.47 5.38a.56.56 0 0 0-.03.64l.17.29a.32.32 0 0 0 .51.04l3.3-3.85a1.5 1.34 3.1 0 1 .41-.33q3.86-2.22 4.77-3.54 2.86-4.1 7.41-7.12a.3.2-7.3 0 0 .08-.07l4.75-5.92a1.23 1.22-48 0 1 1.82-.1l2.85 2.84a.71.71 0 0 1-.04 1.04l-2.58 2.21a.32.28 77.5 0 0-.08.15q-.01.08-.05.29a1.31 1.29 76.4 0 1-.47.78q-3.11 2.45-9.07 8.96a3.86 2.3-13.2 0 1-.33.31q-5.34 4.61-8.57 8.99a.09.03-16.8 0 1-.03.02q-.25.11-.27.11a1.48 1.44-70.2 0 0-.74.36c-2.81 2.57-5.67 4.7-7.14 7.19q-.66 1.12-2.02 1.75a2.02 2.02 0 0 0-.65.45l-3.69 3.87a.16.08-63.4 0 1-.04.03q-2.16 1.39-3.56 3.96a2.74 2.74 0 0 1-.87.95q-6.3 4.22-10.04 9.97a1.69 1.62 4.7 0 1-.81.66c-1.88.74-2.68 2.67-3.73 3.04a.92.91-89.2 0 0-.56.55c-.39 1.08-.77 2.19-.79 3.09q0 .02-.01.01c-.06-1.01-.25-2.02-.49-2.98a.28.27-47.9 0 0-.54.03q-.26 1.69-.71 2.17-.73.79-3.37.73-.52-.02-.34-.78a.33.32-80 0 0-.27-.39l-2.38-.29a1.04 1.03-63.9 0 1-.6-1.76l3.62-3.61a.45.45 0 0 0 0-.62l-.23-.22a.31.31 0 0 0-.41-.03l-4.63 3.7a.39.39 0 0 1-.63-.29l-.02-.83a.22.2 73.6 0 1 .08-.17l4.09-3.27a.3.29 41 0 0-.04-.48l-.29-.16a.11.11 0 0 0-.12 0l-4.1 3.15a.58.57-3.9 0 1-.85-.74l1.05-1.82a.21.2-1.5 0 0-.29-.27l-1.76 1.08a.78.77 54.8 0 1-1.01-.18l-6.48-8.11a.27.27 0 0 0-.21-.1q-.35-.02-.38-.02a.45.45 0 0 1-.28-.72q.03-.04.05-.08a.75.74 39.8 0 0-.09-.95q-6.32-6.3-12.51-10.61-4.18-2.38-5.99-5.28-6.81-10.95-4.08-23.91.69-3.24 2.85-5.54a.14.14 0 0 0-.17-.22l-6.55 3.97q-1.88-.96-2.23-.07l-4.14-.13q-6.54-11.04-16.43-19.46-2.96-3.88-6.37-7.44c-2.41-2.53-4.13-5.65-6.75-7.23a1.09 1.09 0 0 1-.53-.97q.01-.57.04-.85.04-.34-.96-.87-1.79-.94-2.91-2.72a1.3 1.29 37.9 0 1-.14-1.08q.05-.16.08-.24a.6.6 0 0 0-.43-.75q-3.46-.87-4.58-4.57a1.02 1.01 6.1 0 0-.49-.6q-2.88-1.53-4.24-3.93-.14-.23-.08-.33.15-.24.16-.29a.58.57-75.9 0 0-.37-.63q-2.03-.76-4.14-3.5a.5.5 0 0 1 .2-.76l3.61-1.58a.46.46 0 0 0 .25-.59l-.13-.37a.22.22 0 0 0-.3-.12l-3.89 1.69a.71.64 35 0 1-.41.05c-1.27-.24-1.86-1.7-2.89-1.82q-.83-.1-1.39-.47a.32.32 0 0 1-.08-.46l.24-.3a.7.69 51.4 0 0 .08-.76q-.37-.72-1.36-.47a.34.33-18.1 0 1-.38-.19l-.17-.38a.18.18 0 0 1 .19-.25q.25.04.28.02a.24.24 0 0 0-.04-.41q-1.08-.52-2.31-1.98a1.07 1.06 34.7 0 1-.19-1.02q.21-.62-.13-1.1a.95.93 82.4 0 0-.41-.32q-3.5-1.44-5-4.44a1.02.99-83.8 0 0-.24-.31l-2.87-2.58a.48.47 30.9 0 0-.76.19l-.16.42a.29.29 0 0 1-.54-.08q-.03-.15.12-.72a1.52 1.5 38.9 0 0-.12-1.06q-1.26-2.41-3.51-4.14a.85.79-87.8 0 1-.24-.28l-.98-1.86a1.67 1.64-89.5 0 0-.61-.63q-1.35-.78-2.63-2.41-.2-.25-.16-.59a1.12 1.09-66.6 0 0-.37-.97q-1.73-1.5-3.05-2.57c-.96-.78-.72-2.3-2.01-2.75a.53.52 18.4 0 1-.33-.65q.04-.13.24-.36a.48.48 0 0 0-.11-.71c-1.55-.99-5.15-2.72-3.97-4.94 1.56.4 2.75-.63 2.02-2.11q-1.71-3.44-4.99-3.6a.98.96-73.3 0 0-.89.49q-.79 1.37.69 3.05-.21.32-.6.06a.12.11 14.8 0 0-.18.1q.01.13-.01.19a.24.24 0 0 1-.43.04q-2.22-3.44-5.53-5.31a.46.44 13.3 0 1-.23-.35q-.01-.07.03-.23.06-.22-.39-.23-.66-.01-.84-.51-.26-.73-.55-.95-1.05-.82-2.18-2.64-.18-.29-.53-.26-.11.01-.33.29a.24.24 0 0 1-.43-.1q-.18-.83-.42-1a.39.39 0 0 0-.59.47q.25.56.67 1.02a.41.4-31.3 0 1-.16.65l-.26.09a.25.25 0 0 1-.32-.14q-.32-.82-.84-1.01a.88.77-77.5 0 1-.49-.9l.31-2.98q.88.16.96-.53l.81.34q.48.5.29 1.13a.54.54 0 0 0 .37.68l2.57.75a1.44 1.44 0 0 0 1.84-1.54q-.02-.39-.47-1.29a.81.78-36.6 0 0-1.29-.16q-.26.28-.32.65a.64.64 0 0 1-.71.53q-.96-.13-1.49-1 .91-.71 2.09-1.04a.51.51 0 0 0 .3-.77l-.72-1.18a.16.16 0 0 1 .02-.2l.2-.2a.3.3 0 0 1 .47.06l.82 1.32a.91.91 0 0 0 1.09.38l84.13-31.19a.76.76 0 0 0 .04-1.41q-1.32-.57-1.53-1.73 1.4-1 3-1.31 1.95.18 3.23-1.44a1.25 1.24-75 0 1 .81-.47q1.58-.23 2.77.99a.5.49 56.5 0 1-.16.8q-1.66.69-1.32 1.52a.47.47 0 0 0 .6.26l35.43-13.2a3.31 3.09-58.3 0 1 .55-.15q1.4-.25 2.3-.63 8.91-3.78 21.98-8.46l37-13.56a1.25 1.24-11.9 0 0 .82-1.25q-.12-1.95 2.27-1.98a.48.48 0 0 0 .47-.58q-.21-.97-1.08-1.1-1.01-.15-1.07-.91 2.84 1.5 5.1 1.24a2.67 2.66-25.6 0 1 2.2.77l94.34 95.48zM404.67 4.32l-1.51 1.38a.42.42 0 0 0-.02.59l.1.12a2.04 1.34 47.7 0 0 2.37.61l.15-.14a2.04 1.34 47.7 0 0-.39-2.41l-.1-.12a.42.42 0 0 0-.6-.03zM267.25 57.6a.15.14-26.3 0 0 .16.05l33.75-12.52a3.46 3.38 14.2 0 0 1.03-.6q1.85-1.55 4.77-1.91a2.68 2.57 21.9 0 0 1.22-.49c2.51-1.86 6.65-1.92 8.01-2.45q33.92-13.17 60-22.95a.4.39 70.4 0 0 .23-.5l-.11-.3a.67.67 0 0 0-.89-.38q-6.85 2.99-10.71 3.86-.69.15-3.57 1.89a3.59 3.55-64.3 0 1-1.38.49q-2.21.29-3.63 1.33a4.98 4.88-70 0 1-1.69.81q-5.1 1.32-10.4 4.08-.96.5-4.62.78a2.08 1.87-56.2 0 0-.51.13l-15.93 6.96a.96.82 23 0 1-.19.06q-2.7.43-6.36 1.77-12.38 4.5-19.63 7.92a4.79 4.69-62 0 1-1.23.39q-4.12.68-5.24 1.15-4.85 2.01-6.86 2.22a1.47 1.35 29 0 0-.29.07l-10.5 3.95a.97.82-68 0 0-.21.11q-2.46 1.79-6.08 2.89a.07.07 0 0 0-.03.1l.89 1.09zM413 83.31q-18.32 11.64-36.67 23.21a.37.28-7.2 0 0-.07.07q-.16.25-.01.47.14.23.43.19a.37.28-57.6 0 0 .09-.03q18.28-11.69 36.6-23.32 18.32-11.63 36.68-23.21a.37.28-7.2 0 0 .06-.06q.16-.25.02-.48-.15-.22-.44-.19a.37.28-57.6 0 0-.09.03Q431.32 71.68 413 83.31zm72.98 20.01q2.49-.18 2.54 2.71a.44.44 0 0 0 .75.3l1.81-1.8a.48.47-53.5 0 0-.11-.75q-1.64-.91-1.49-2.85a.6.6 0 0 0-.97-.51l-2.79 2.23a.38.37-66.4 0 0 .26.67zm-20.72-1.05l-4.64 3.45a1.52 1.51-30 0 1-2.29-.61l-.84-1.92a.47.47 0 0 0-.72-.18l-2.92 2.33a.44.43-51.4 0 0 .08.73q2.15 1.07 3.08 3.03a.43.42 56.9 0 0 .66.14l7.9-6.86a.04.04 0 0 0 .01-.05l-.01-.01a.22.22 0 0 0-.31-.05zm-93.833 7.299a3.22 1.54-135.4 0 0 1.211 3.357 3.22 1.54-135.4 0 0 3.374 1.164 3.22 1.54-135.4 0 0-1.211-3.357 3.22 1.54-135.4 0 0-3.374-1.164zm-3.967 1.701q-1.26 1.1-1.51 1.75a.41.32 59.6 0 0-.02.18q.01.32.31.33a.21.21 0 0 0 .15-.07q.89-.98 1.59-1.6.7-.62 1.79-1.39a.21.21 0 0 0 .08-.14q.03-.3-.29-.35a.41.32 37.3 0 0-.18.01q-.67.17-1.92 1.28zm-14.89 10.87q.34.54 11.92-7.16.6-.4.42-.67-.17-.27-.79.1-11.89 7.19-11.55 7.73zm72.79 8.62q-.03-.57-.23-.8-.32-.38-1.17.16-.8.51-7.49 3.27a1.08 1.08 0 0 0-.51.45l-2.11 3.66a1.55 1.55 0 0 0 .26 1.88q1.16 1.14 1.82 2.86a3.37 3.37 0 0 0 2.16 2.01q.59.18 2.47 1.8a1.71 1.7 53.4 0 0 1.78.27l4.62-2.02a.71.62-80.6 0 0 .27-.22q2.16-2.94 2.37-4.38c.31-2.16-1.75-3.59-1.21-5.98a.88.87 14.5 0 0-.61-1.03q-1.84-.55-2.2-1.18a1.7 1.56-63.8 0 1-.22-.75zm-95.27 63.7q-.23 0-.43-.06-.22-.06-.34-.23c-2.71-3.78-7.74-8.48-11.42-3.06q-1.77 2.61-1.98 5.65c-.56 8.29.53 16.21 5.9 22.62q1.23 1.48 3.24 1.82 5.88 1.01 8.8-5.17.5-1.06.99-1.36a.81.81 0 0 0 .4-.78q-.33-3.77-.42-8.17-.02-1.01 1.71-4.51a.35.35 0 0 0-.54-.43l-.85.68a.76.76 0 0 1-1.17-.29l-3.09-7.15c5.66-4.52 11.67-8.82 16.61-14q.95-.99 4.64-2.76a2.56 2.42 11 0 0 .55-.35l14.32-11.44a1.75 1.26-9.2 0 0 .26-.26q3.22-4.04 8.35-5.99a.39.39 0 0 1 .37.67q-2.61 1.99-2.76 2.19a2.76 2.66 2.9 0 1-.84.73q-4.08 2.32-7.59 6.12a3.75 3.7-83.6 0 1-.89.72q-4.65 2.76-8.63 7.1a.51.51 0 0 0 .01.69l.02.02a.36.35-41.7 0 0 .47.02l22.04-17.62a4.63 3.51-53.6 0 0 .48-.43l2.59-2.62a1.21 1.19-65.9 0 1 .98-.38q.78.06 1.2-.38 1.82-1.94 3.44-3.21a.79.77 42.4 0 1 .92-.03c2.36 1.55 3.83 2.9 6.28 2.92 5.36.06 8.65-2.66 10.16-7.5q.69-2.17 1.95-3.31a1.07 1.06 48.2 0 1 1.52.09q1.57 1.8 1.99 2.75a.94.87-81.4 0 0 .19.28l19.36 19.97a.68.67-53.1 0 1 .11.81q-.07.11-.21.42a.19.19 0 0 0 .27.24l1.14-.66a.09.09 0 0 0 .03-.13l-3.63-4.3a.11.05 67.5 0 0-.04-.04q-2.11-1.66-3.04-3.12a1.42 1.42 0 0 1 .47-1.98q1.05-.62 1.9-1.72a.33.33 0 0 0-.35-.52q-1.16.36-2.93 2.05a.33.32-47.1 0 1-.43.02l-.33-.27a.39.38-51.7 0 1-.06-.55l.98-1.23a.35.35 0 0 0-.3-.57q-.84.07-1.61 1.15a.47.46-52.9 0 1-.67.1l-.28-.23a.54.53-48.3 0 1-.04-.8l2.39-2.39a.94.91 58 0 0 .21-.97l-.16-.42a.41.41 0 0 0-.7-.11l-2.22 2.77a.68.68 0 0 1-1 .06l-10.71-10.71a.84.84 0 0 1-.16-.97q.48-1 2.38-2a.33.32 57.1 0 0 .1-.49l-.28-.34a.31.31 0 0 0-.44-.05l-1.89 1.51a1.17 1.16 44.8 0 1-1.45 0l-4.25-3.42a.89.89 0 0 1 0-1.39l2.34-1.88a.45.45 0 0 0 .07-.64l-.19-.24a.31.31 0 0 0-.45-.05l-2.37 1.89a.66.65-17.2 0 0-.25.47q-.04.45-.31.63-.21.14-.97-.23-5.85-2.89-10.45.3-4.98 3.44-4.06 9.37a2.3 2.28-23.9 0 1-.83 2.13q-19.24 15.41-38.06 30.14-2.55 2-3.79 3.52a.58.57-68.6 0 1-.49.22q-.37-.02-.58.15-1.25 1.03-3.28 3a2.37 2.09-75.1 0 1-.69.46q-2.61 1.12-4.51 3.6a1.48 1.46 9.7 0 1-.76.53q-2.29.69-1.96 3.33zm53.349-51.748a.27.27 0 0 0-.378-.054l-14.33 10.76a.27.27 0 0 0-.054.378l.144.192a.27.27 0 0 0 .378.054l14.33-10.759a.27.27 0 0 0 .054-.378l-.144-.192zM322.86 163.86l-2.8 2a.17.17 0 0 0-.04.23l.04.07a1.69 1.35-35.5 0 0 2.16.12l.33-.23a1.69 1.35-35.5 0 0 .59-2.09l-.05-.06a.17.17 0 0 0-.23-.04zm75.79 2.32q.07 2.19-3.02 3.08a.57.56-30.7 0 0-.24.94l6.09 6.09a.66.66 0 0 0 1-.07q1.04-1.41 2.51-2.33a.64.64 0 0 0 .13-.99l-6.44-6.73a.02.01 21.3 0 0-.03.01zm31.957 5.936a3.19 1.47-132.7 0 0 1.083 3.341 3.19 1.47-132.7 0 0 3.244 1.347 3.19 1.47-132.7 0 0-1.083-3.341 3.19 1.47-132.7 0 0-3.244-1.347zm-59.237 5.164q.25.24.57.28a.46.45-63.9 0 0 .38-.13q2.15-2.22 1.58-2.76-.56-.55-2.71 1.67a.46.45-27.8 0 0-.12.38q.06.32.3.56zm6.132-1.85a.63.63 0 0 0-.888-.07l-3.924 3.351a.63.63 0 0 0-.07.888l.078.091a.63.63 0 0 0 .888.07l3.924-3.351a.63.63 0 0 0 .07-.888l-.078-.091zm47.668.95q-.81.57-.91 1.03a.47.47 0 0 0 .84.38q.72-.97.73-1a.42.42 0 0 0-.66-.41zm-74.433 8.69a3.87 1.94-134.3 0 0 1.315 4.125 3.87 1.94-134.3 0 0 4.091 1.415 3.87 1.94-134.3 0 0-1.315-4.125 3.87 1.94-134.3 0 0-4.091-1.415zm-3.501 2.885a3.84 1.96-133.3 0 0 1.207 4.139 3.84 1.96-133.3 0 0 4.06 1.45 3.84 1.96-133.3 0 0-1.207-4.139 3.84 1.96-133.3 0 0-4.06-1.45zm2.024 11.615c2.01-.07 2.71 1.5 3.91 2.82q.84.94-.03 2.04a.17.16-53.1 0 0 .03.24q.12.09.32.1a.14.13-72.6 0 0 .11-.06q.48-.68.98-.58a.4.39-12.2 0 1 .24.15c1.06 1.33 4.93 2.89 2.35 5.43a.28.28 0 0 0 .26.47l1.95-.49a.59.59 0 0 0 .37-.88q-.08-.12-.55-.26a.52.51-56 0 1-.17-.9l3.38-2.7a1.4 1.4 0 0 0 .52-1.09v-.28a.49.49 0 0 0-.81-.34l-3.08 2.68a.78.78 0 0 1-.88.09c-3.19-1.78-4.59-4.67-7.03-7.13-3.43-3.45-5.25-5.79-8.67-9.58a.19.19 0 0 0-.26-.02l-.2.17a.42.41 51.2 0 0-.06.59l3.28 3.92a.7.7 0 0 0 .14.14q2.24 1.56 3.5 3.89.19.34.12.52-.09.27-.16.46a.45.45 0 0 0 .44.6zm7.295-8.161a3.88 1.95-134 0 0 1.293 4.146 3.88 1.95-134 0 0 4.098 1.436 3.88 1.95-134 0 0-1.293-4.146 3.88 1.95-134 0 0-4.098-1.436zm-3.369 2.987a3.87 2.04-132.7 0 0 1.125 4.227 3.87 2.04-132.7 0 0 4.124 1.461 3.87 2.04-132.7 0 0-1.125-4.228 3.87 2.04-132.7 0 0-4.124-1.461zm25.464 19.874q-.07.08-.87.82a.39.39 0 0 0 .29.68q.44-.02 1.24-.9.8-.87.78-1.32a.39.39 0 0 0-.7-.22q-.66.85-.74.94zm-37.47 7.71q-.71.25-1.63 1.19a.28.28 0 0 0 .22.48q1.22-.07 1.81-1.22a.33.32 3.7 0 0-.4-.45zm-3.83 8.91q.47.52.89.99a.43.43 0 0 0 .73-.41q-.19-.62-.79-1.31-.61-.68-1.2-.94a.43.43 0 0 0-.5.66q.41.48.87 1.01zm7.054-1.126a4.13 2.32-129.3 0 0 .821 4.665 4.13 2.32-129.3 0 0 4.411 1.727 4.13 2.32-129.3 0 0-.821-4.665 4.13 2.32-129.3 0 0-4.411-1.727z" class="B"/><path d="M404.67 4.32a.42.42 0 0 1 .6.03l.1.12a2.04 1.34 47.7 0 1 .39 2.41l-.15.14a2.04 1.34 47.7 0 1-2.37-.61l-.1-.12a.42.42 0 0 1 .02-.59l1.51-1.38zM266.39 56.41q3.62-1.1 6.08-2.89a.97.82-68 0 1 .21-.11l10.5-3.95a1.47 1.35 29 0 1 .29-.07q2.01-.21 6.86-2.22 1.12-.47 5.24-1.15a4.79 4.69-62 0 0 1.23-.39q7.25-3.42 19.63-7.92 3.66-1.34 6.36-1.77a.96.82 23 0 0 .19-.06l15.93-6.96a2.08 1.87-56.2 0 1 .51-.13q3.66-.28 4.62-.78 5.3-2.76 10.4-4.08a4.98 4.88-70 0 0 1.69-.81q1.42-1.04 3.63-1.33a3.59 3.55-64.3 0 0 1.38-.49q2.88-1.74 3.57-1.89 3.86-.87 10.71-3.86a.67.67 0 0 1 .89.38l.11.3a.4.39 70.4 0 1-.23.5q-26.08 9.78-60 22.95c-1.36.53-5.5.59-8.01 2.45a2.68 2.57 21.9 0 1-1.22.49q-2.92.36-4.77 1.91a3.46 3.38 14.2 0 1-1.03.6l-33.75 12.52a.15.14-26.3 0 1-.16-.05l-.89-1.09a.07.07 0 0 1 .03-.1z" class="F"/><path d="M294.68 38.58q-1.33.7-2.99.42 1.18-.56 2.99-.42z" class="B"/><path d="M289.78 39.47q1.62.01 3.22-.08 1.34-.07 1.25.88-1.6.31-3 1.31-2.67.22-3.54-1.62l2.07-.49z" class="C"/><path d="M287.71 39.96q.87 1.84 3.54 1.62.21 1.16 1.53 1.73a.76.76 0 0 1-.04 1.41l-84.13 31.19a.91.91 0 0 1-1.09-.38l-.82-1.32a.3.3 0 0 0-.47-.06l-.2.2a.16.16 0 0 0-.02.2l.72 1.18a.51.51 0 0 1-.3.77q-1.18.33-2.09 1.04-.46.36-.79.25l-.81-.34q-2.14-3.9-6.98-4.48-.57-.06-.3-.96l8.5-3.02q6.92 1 13.61-1.17a.35.35 0 0 0 .13-.59q-.44-.4-1.21-.2-4.26 1.1-8.49.74 2.96-1.75 5.82-2.26 2.53.46 3.55-1.31l19.08-6.73q4.25.39 4.14-1.46l5.16-1.74q.74.34 1.06-.46l7.38-2.57q4.28-.29 6.91-2.39l26.61-8.89z" class="E"/><path d="M261.1 48.85q-2.63 2.1-6.91 2.39l6.91-2.39zm-14.29 4.96q-.32.8-1.06.46.42-.42 1.06-.46zm-6.22 2.2q.11 1.85-4.14 1.46l4.14-1.46zm209.54 4.14q.14.23-.02.48a.37.28-7.2 0 1-.06.06q-18.36 11.58-36.68 23.21-18.32 11.63-36.6 23.32a.37.28-57.6 0 1-.09.03q-.29.04-.43-.19-.15-.22.01-.47a.37.28-7.2 0 1 .07-.07Q394.68 94.95 413 83.31q18.32-11.63 36.6-23.32a.37.28-57.6 0 1 .09-.03q.29-.03.44.19zM217.37 64.2q-1.02 1.77-3.55 1.31l3.55-1.31zm-13.41 4.79q2.52-1.26 4.04-1.22 4.23.36 8.49-.74.77-.2 1.21.2a.35.35 0 0 1-.13.59q-6.69 2.17-13.61 1.17zm-8.5 3.02q-.27.9.3.96 4.84.58 6.98 4.48-.08.69-.96.53l-1.4-1.72a.41.41 0 0 0-.67.05l-2.61 4.53a.54.52-60.3 0 0 .19.73l.34.2a.48.47-59.9 0 0 .64-.18l1.99-3.45a.15.15 0 0 1 .21-.05l.23.13a.27.26 30.8 0 1 .1.37l-2.18 3.77a.85.84 37.4 0 0 .14 1.02l8.11 8.12a.32.32 0 0 0 .49-.05l2.06-3.05a.07.07 0 0 1 .09-.02l.23.13a.22.21 30.3 0 1 .08.29l-1.8 3.12a1.22 1.21 39.8 0 0 .13 1.41c7.53 8.67 14.75 15.71 22.42 25.05 1.37 1.67 3.66 6.17 5.49 7.31 2.75 1.73 6.36 4.06 5.37 7.42a.79.78 25 0 0 .32.87l6.71 4.47a3.62 3.49 84.7 0 1 .72.62l16.02 17.17a.94.9-68.1 0 1 .24.6q.02 1.6-1.13 2.95a.76.76 0 0 0 .2 1.16l.36.21a.78.78 0 0 0 1.06-.28l1.14-1.99a.27.27 0 0 1 .47.01c1.55 3.05 4.99 5.2 7.33 7.85q5.06 5.78 9.41 10.37a1.29 1.29 0 0 0 1.84.03l1.35-1.3q1-.84-.52-2.08l.54-.89q9.89 8.42 16.43 19.46-8.42 2.61-17.3 2.59a2.15 2.08 29.5 0 0-1.04.27l-3.25 1.83a1.72 1.69 22.4 0 1-.47.19l-7.62 1.94a.58.57 71.7 0 0-.39.78q.26.63 1.11 1.09a.34.34 0 0 1-.14.63q-3 .19-5.82-1a1.92 1.9 44.4 0 0-1.51.01l-.62.27a.52.51 42.7 0 0 .04.96l6.29 2.13a1.37 1.37 0 0 1-.13 2.63l-11.21 2.56a.45.42-46.8 0 1-.16.01q-1.18-.06-2.47.67-.7.4-.38 1.03.24.5.97.91.51 1.66 1.7 2.14.87.35 1.2 1.25 2 5.47 5.33 13.93c.75 1.91.9 3.49 2.11 4.86a.88.87 62.6 0 0 .86.28q6.95-1.57 9.77-1.86c2.06-.21 3.88-1.08 5.73-1.09a2.78 2.64-55.5 0 0 .99-.21q3.29-1.36 8.73-1.62a1.39 1.39 0 0 0 1.21-1.95l-.83-1.9a.46.46 0 0 1 .04-.44q.19-.27.22-.31a.46.45-69.4 0 0-.31-.69q-.35-.06-.76-.14-.16-.04-.45-.74-3.15-7.59-5.23-15.22 1.16-.55 1.78-.45a.44.44 0 0 1 .21.78l-1 .8a.49.49 0 0 0 .06.81l.26.15a.76.76 0 0 0 .68.04l7.94-3.47a.98.98 0 0 0-.42-1.88l-1.05.03a.37.37 0 0 1-.19-.7q.09-.05.23-.13a1 1 0 0 0 .5-1.03q-.07-.41-.07-.57.02-.43.63-.85.95-.66 1.65-1.61a.49.49 0 0 1 .88.37q-.06.36-.34 2.34-.08.53.35 1.92.8 2.56 1.53 4.23a1.22 1.18-47.7 0 1 .03.86l-.42 1.23a.5.5 0 0 0 .78.55l1.39-1.1q.93.1 1.14 1.4 1.06 6.29 5.93 9.64 1.11.77 2.43 1 3.77.67 9.19 1.03 6.19 4.31 12.51 10.61a.75.74 39.8 0 1 .09.95q-.02.04-.05.08a.45.45 0 0 0 .28.72q.03 0 .38.02a.27.27 0 0 1 .21.1l6.48 8.11a.78.77 54.8 0 0 1.01.18l1.76-1.08a.21.2-1.5 0 1 .29.27l-1.05 1.82a.58.57-3.9 0 0 .85.74l4.1-3.15a.11.11 0 0 1 .12 0l.29.16a.3.29 41 0 1 .04.48l-4.09 3.27a.22.2 73.6 0 0-.08.17l.02.83a.39.39 0 0 0 .63.29l4.63-3.7a.31.31 0 0 1 .41.03l.23.22a.45.45 0 0 1 0 .62l-3.62 3.61a1.04 1.03-63.9 0 0 .6 1.76l2.38.29a.33.32-80 0 1 .27.39q-.18.76.34.78 2.64.06 3.37-.73.45-.48.71-2.17a.28.27-47.9 0 1 .54-.03c.24.96.43 1.97.49 2.98q.01.01.01-.01c.02-.9.4-2.01.79-3.09a.92.91-89.2 0 1 .56-.55c1.05-.37 1.85-2.3 3.73-3.04a1.69 1.62 4.7 0 0 .81-.66q3.74-5.75 10.04-9.97a2.74 2.74 0 0 0 .87-.95q1.4-2.57 3.56-3.96a.16.08-63.4 0 0 .04-.03l3.69-3.87a2.02 2.02 0 0 1 .65-.45q1.36-.63 2.02-1.75c1.47-2.49 4.33-4.62 7.14-7.19a1.48 1.44-70.2 0 1 .74-.36q.02 0 .27-.11a.09.03-16.8 0 0 .03-.02q3.23-4.38 8.57-8.99a3.86 2.3-13.2 0 0 .33-.31q5.96-6.51 9.07-8.96a1.31 1.29 76.4 0 0 .47-.78q.04-.21.05-.29a.32.28 77.5 0 1 .08-.15l2.58-2.21a.71.71 0 0 0 .04-1.04l-2.85-2.84a1.23 1.22-48 0 0-1.82.1l-4.75 5.92a.3.2-7.3 0 1-.08.07q-4.55 3.02-7.41 7.12-.91 1.32-4.77 3.54a1.5 1.34 3.1 0 0-.41.33l-3.3 3.85a.32.32 0 0 1-.51-.04l-.17-.29a.56.56 0 0 1 .03-.64q3.24-4.24 5.47-5.38 2.59-1.33 3.08-2.33c1.44-2.96 4.15-5.03 7.07-6.79a2.84 2.8 87.9 0 0 1.09-1.19q1.73-3.53 5.94-6.03a.55.54 63.7 0 1 .78.27q1 2.5 3.09 3.42a1.46 1.43 48.5 0 0 1 .07q3.33-.96 4.2-3.44c.69-1.98 2.06-2.18 3.01-3.83a.57.56-67 0 1 .63-.26l.38.11q1.65.61 3.4.28a1.56 1.52 48.7 0 1 .77.06l1.85.63a.88.86-50.9 0 0 .71-.08l1.36-.84a.36.36 0 0 0-.07-.65l-5.25-1.68q1.18-1.64 3.98-2.34-.63.69-.24 1.29a.47.36 4 0 0 .18.16q1.66.82 3.29.62a.83.82 54.3 0 0 .25-1.56q-1.23-.6-2.6-.6l.16-1.52a1.05.87 84.6 0 1 .55-.81q.4-.16 1.2-.15a1.21 1.2 22.8 0 0 .84-.34l2.06-2.07a.9.89 57.4 0 0 .21-.96l-.45-1.22a.9.89-31.8 0 1 .23-.97c1.98-1.83 3.31-2.86 4.52-4.45q1.1-1.46 4.41-4.49c1.5-1.38 3.32-1.32 4.44-3.07q.56-.88 1.87-1.27.62-.19 1.97-1.12a.7.7 0 0 0 .26-.8l-.29-.87a.37.37 0 0 1 .47-.47q.1.03 1.4.15.31.02.51-.32.12-.21.03-.33a.2.2 0 0 1 .15-.33q.44-.02 1.85-.99a.72.7-26.2 0 0 .28-.79q-1.02-3.37-4.32-4.28a.8.79 1.9 0 1-.57-.6q-.6-2.86-3.39-4.22a.82.81-63.1 0 0-1.09.36q-.25.47-2.83 3-.54.54-1.28.88-.83.39-.51 1.73a.27.27 0 0 1-.42.28q-.5-.34-1.69-.61a.93.92-5.8 0 1-.65-.53l-1.19-2.72a1.38 1.38 0 0 0-2.2-.47l-7.64 6.94a1.04 1.01 68.2 0 0-.32.77q.03 1.55-2.11 1.18a.11.1-62.8 0 1-.05-.18l9.74-9.74a1.31 1.3-60.6 0 1 1.23-.35q.72.17.75.17a1.24 1.23 27.1 0 0 .93-.3l7.43-6.35a.09.09 0 0 1 .15.08q-.05.27.8.44 3.2.62 4.42 3.82.57 1.51 2.86 1.04-.15.95 1.4-.63 3.72-3.79 7.81-7.16.96-.79.74-1.61.31.01.49.28.23.35.39.4.51.14.6-.28a.32.32 0 0 1 .58-.1q.61.98 1.79-.95a.75.72 48.4 0 0 .03-.71q-.67-1.39.95-2.75 3.57-3 5.11-4.6a.83.82-38.9 0 0 .11-1l-1.77-2.88a.85.85 0 0 0-1.03-.35l-.41.15a.32.32 0 0 1-.43-.32c.04-.5.5-.72.9-.41a.38.38 0 0 0 .46.01q2.47-1.85 3.49-3.51a.33.33 0 0 1 .55-.01q1.2 1.68 2.85 1.98a.97.94-61.2 0 0 .84-.26l10.88-10.69a.93.89 11 0 1 .33-.21q6.31-2.26 7.27-10.37l6.31 5.29a1.01.87-40.6 0 0 1.13 0q.07-.05.24-.15a1.3 1.29-56.1 0 1 .86-.17l2.97.46v5.72q-.24.62-.76.58-.72-.06-.93.1-.4.3-.76.85-.34-2.45.72-3.94a1.31 1.24 23.2 0 0-.85-1.96q-2.74-.59-3.6 2.02-.07.23-.3 2.4a1.45 1.43-9.2 0 1-.86 1.18l-1.16.51a.79.79 0 0 0 .31 1.52l4.02.05-4.34 4.95q-1.21-1.42-1.99-.55a.7.66-21.5 0 0-.16.34q-.16 1.12.43 2.21l-4.52 5.3a4.14 4.05-16.1 0 0-.76 1.34q-4.24 12.53-7.41 24.22c-1.13 4.17-.77 7.88-4.37 10.85q-1.38 1.13-3.21 3.21-20.2 22.94-40.46 45.79-1.16.47-.73 1.08c-3.47 3.92-7.66 8.64-9.03 13.67a2.2 2.19-17.3 0 1-.47.89q-2.54 2.9-5.34 4.3a.8.8 0 0 1-1.14-.54l-1.4-6.14a.14.13-26.7 0 0-.22-.07q-2.06 1.62-4.1 2.17a2.72 2.72 0 0 0-1.81 1.57q-.91 2.19-5.27 13.36-1.77 4.54-6.76 9.61a.94.92-58 0 1-.95.23l-4.25-1.44a1.12 1.11 16 0 0-1.45.8q-1.37 5.92-4.66 10.38-1.61-.08-3.64 1.72a.37.37 0 0 1-.6-.15l-.34-.94q-.62-.42-1.22-.05-.32.2-.4.61-.21.61.04 1.04.23.38.43.33.63-.13.81-.04a.25.24 53 0 1-.06.46q-.44.08-2.15 2.71-.66 1.02-2.47 2.09-3.13 1.87-4.72 4.49-3.47 2.47-7.74 4.56-19.48 9.49-40.97 13.18.38-.81-.43-1.42a.77.76 59.8 0 0-.56-.15q-8.47 1-11.41 1.29-1.25.12-1.11.97a.48.47 83.9 0 0 .49.4l10.14-.56q-6.12 1.53-12.05 2.7-.51.1-1.39 1.17H282.1q-1.3-1.82-4.85-2.31-.15-.02-12.14-2.37-6.53-1.28-11.71-3.74-13.77-6.55-18.03-9.21-8.37-5.23-15.85-12.89-1.31-1.34-1.15-2.68l5.08 5.25a.16.16 0 0 0 .27-.14q-1.02-4.9-3.28-7.5c-3.56-4.09-10.12-9.69-11.45-15.74-1.28-5.84-2.43-8.51-8.05-10.57q2.44-1.57 4.84-.58 1.06.44 1.64.37.82-.1 1.59.3a1.73 1.69-85 0 1 .84 1.02l.7 2.32a2.04 1.99 16.4 0 0 .45.8c1.25 1.39 2.01 2.05 2.2 3.06q.19 1.04.19 1.05a.35.34 27.4 0 0 .61-.19l.31-4.16a.66.65-78.3 0 1 .86-.57l18.09 6.14a1.5 1.49 11.3 0 0 1.97-1.31l.92-14.41a.66.65-1.6 0 1 .57-.6q1.29-.17 1.66-2.21a.33.33 0 0 0-.53-.31l-.76.6a.43.43 0 0 1-.69-.38l.25-2.11.61.32a.43.42-71.6 0 0 .61-.31q.51-3.18.52-5.54 0-.83-.84-.82a.53.48-47.2 0 1 .01-1q1.17-.19 1.53-1.84a.36.36 0 0 0-.43-.42q-.37.07-.89-.27a.47.47 0 0 1 .01-.8l.35-.22a1.03 1.03 0 0 0 .48-.75l1.11-9.27 2.25-1.62a.34.34 0 0 0-.19-.61q-10.51-.12-19.94-4.7a.89.88-76.2 0 1-.5-.83q.03-.57-.23-1.03a.68.68 0 0 0-.95-.25l-3.2 1.96a.64.64 0 0 0 .2 1.17l5.27 1.19a.47.39-16.3 0 1 .16.07c1.85 1.38 3.7.61 5.44 1.73q-.82 3.67 1.11 5.84c1.11 1.25 2.58.88 3.83 1.84a.32.32 0 0 1-.3.56q-1.78-.6-3.26-.42a.41.41 0 0 0-.16.76l1.08.62a.4.4 0 0 1-.1.74l-.54.14-11.7-3.46a1.93 1.93 0 0 0-2.46 1.58l-.46 3.31a.03.01-67.5 0 1-.02.02q-.2.07-.38 0a.36.35-82.1 0 1-.22-.3c-.43-5.27-.42-11.22 2.55-16.18q.85-1.41 2.97-5.92a.25.25 0 0 0-.38-.3q-2.41 1.95-4.75 2.55a.21.21 0 0 1-.19-.36l6.87-5.5a.39.38-26.6 0 1 .61.2l1.54 5.84a1.13 1.11-75.6 0 0 .31.53l2.13 2.13a1.07 1.04-12.2 0 0 .4.25l3.46 1.17a.48.48 0 0 0 .63-.36q.46-2.24.86-.63-.79.93 1.48 1.4-1.18.12-2.06.92a.57.57 0 0 0 .26.98c1.79.41 3.75 1.69 5.4 1.47q1.68-.22 3.35.28a1.28 1.24-48.9 0 0 .94-.08q3.3-1.69 4.32 1.33a1.03.89-59.2 0 1 .06.34l-.07 4.39a.85.84-70.7 0 0 .33.69l1.88 1.52a.39.39 0 0 0 .63-.27q.07-.71-.59-1.44a1.3 1.3 0 0 1-.33-1.03q.73-6.14-2.63-7.66l-3.39-.11a.13.12-9.7 0 1-.12-.08q-.11-.22.09-.44a.31.31 0 0 1 .24-.09q3.3.46 6.51-.6 3.18-.55 5.86-2.76a1.52 1.5-10.3 0 0 .47-.67l3.36-9.39a.19.19 0 0 0-.28-.22q-3.57 2.16-8.2 2.71-2.94.35-4.53.65a3.33 3.28 41.6 0 1-.99.05l-12.25-1.08q-.63-.09-.5-.22-5.11-1.05-9.28-4.07a.64.63 31.4 0 1-.2-.8l.02-.04a.5.49 30.5 0 1 .72-.18q5.77 4.04 12.46 4.45 7.61.47 8.5.74a2.56 2.56 0 0 0 1 .1q5.69-.64 9.94-1.88 2.17-.63 3.54-2.5 1.1-1.5-.45-2.85-2.26-1.97-4.87-3.08a.54.54 0 0 1-.33-.54q.04-.71 1.03-1.11.46-.82.49-1.65.14-5.11.18-10.11.14-.11.28-.23l-.71-10.98-2.48-.01c-3-.72-3.89 1.1-5.92 2.33q-2.19 1.32-2.68 1.8-2.02 1.98-11.2 8.52c-3.03 2.17-7.21 7.18-12.01 9.1a.36.36 0 0 1-.36-.62q14.22-11.32 19.52-15.72c2.4-1.98 5.31-3.23 7.43-4.85a.32.32 0 0 0-.16-.57q-4.12-.4-8.71-2.41a2.9 2.8 58.1 0 0-.87-.22l-7.22-.62a.78.43-16 0 1-.13-.03q-3.98-1.28-8.5-1.12-.71.03-3.28-1.1a5.28 4.84 60 0 0-.92-.29q-7.28-1.41-14.46-2.43-.87-.12-4.29-2.2a.61.55 59.1 0 0-.23-.07l-7.71-.5a1.25 1.25 0 0 1-.77-.31q-1.65-1.43-4.81-1.56a1.8 1.78 64.8 0 1-1.04-.38c-2.65-2.03-6.11-1.25-9.46-2.68a.32.32 0 0 1 .02-.59q1.12-.39 2.92-.15a.27.27 0 0 0 .29-.18l.12-.35a.14.14 0 0 0-.11-.19l-10.83-1.33a.62.6 34.3 0 0-.34.06q-.73.37-1.49-.51a1.52 1.49-15.4 0 0-.88-.49q-6.05-1.09-8.88-.57-5.58 1.01-10.05 1.65a10.96 10.93-65.1 0 0-4.32 1.59l-31.32 19.86q-.33-.67.16-1.11l31.23-20.09q.04-.02.08-.04l8.52-3.93a1.39 1.33-58.8 0 1 .48-.13l.79-.09a.77.77 0 0 0 .01-1.53q-.54-.04-1.19-.29 2.39-.4 3.54 1.36a.67.67 0 0 0 .91.21q1.23-.73 1.87-.76a.36.36 0 0 1 .36.22q.05.12.03.3a.54.53 6.6 0 1-.61.48q-1.91-.24-.97.64a.44.4 66.1 0 0 .25.11l6.43.41a.69.69 0 0 0 .74-.62q.41-3.89 3.68-7.45 1.99-2.16 2.02-2.22a.16.15 82.8 0 0-.24-.19l-2.46 2.32a1.96 1.87-74.2 0 1-.73.43c-3.92 1.25-8.61 1.82-12.75 3.61-1.59.7-2.51.4-3.95.69a.56.56 0 0 1-.65-.4q-.17-.58-.77-.46-.06.01-2.35 1.01-4.62 2.02-6.07 3.11a.2.2 0 0 1-.3-.25q1.77-3.36 4.97-4.02c2.32-.47 4.04-1.69 5.49-2.86q16.7-13.59 24.71-19.83a.25.25 0 0 1 .4.22l-.45 3.65a.12.04-81.4 0 0 .01.06q.01.03.02.04a.04.03 45.4 0 0 .06.01q1.2-4.67 4.36-7.3 9.51-7.93 19.7-15.39a.77.77 0 0 0 .23-.98l-3.11-5.87 3.12-1.52zm293.15 43.695a2.62.72-134.3 0 0 1.314 2.378 2.62.72-134.3 0 0 2.345 1.372 2.62.72-134.3 0 0-1.314-2.378 2.62.72-134.3 0 0-2.345-1.372zm-9.819 7.147a2.7.78-133.5 0 0 1.293 2.495 2.7.78-133.5 0 0 2.424 1.422 2.7.78-133.5 0 0-1.293-2.495 2.7.78-133.5 0 0-2.424-1.422zm-6.63 8.725a2.92 1.13-131.6 0 0 1.094 2.934 2.92 1.13-131.6 0 0 2.784 1.433 2.92 1.13-131.6 0 0-1.094-2.934 2.92 1.13-131.6 0 0-2.784-1.433zM428.42 203.38l-.24-4.32a1.04 1.03 52.8 0 0-2.01-.28l-1.11 3.27a.43.42 18.9 0 0 .27.53l2.87.97a.17.17 0 0 0 .22-.17zm-14.63-3.45l3.04.28a.2.2 0 0 0 .22-.19l.01-.09a1.56 1.47 5.2 0 0-1.42-1.6l-.34-.03a1.56 1.47 5.2 0 0-1.69 1.32v.09a.2.2 0 0 0 .18.22zm-148.57.25q-3.36 2.45-4.77 5.85a.33.33 0 0 0 .1.39l.24.2a.52.52 0 0 0 .76-.13q1.61-2.53 4.08-4.44.6-.46.87-1.81a.22.22 0 0 0-.37-.2l-.52.54a.52.52 0 0 0 .47.87q.07-.02.1-.75a.61.6 73.3 0 0-.96-.52zm141.45 9.38a.44.44 0 0 0 .56.56l10.98-4.07a.7.7 0 0 0-.29-1.36c-3.18.19-9.95 1.29-11.25 4.87zm-109.91.89a.37.37 0 0 0 .45.55l2.37-1.03a.81.78-10.8 0 0 .47-.67l.04-.64a.41.41 0 0 0-.62-.37q-2.13 1.3-2.71 2.16zm117.14 1.67q-1.79 1.86-4.73 3.24a.83.83 0 0 0-.42 1.06l.03.07a.65.65 0 0 0 .97.31q1.45-.96 3.06-.61a3.16 2.47 14.4 0 0 3.47-1.52q.69-2.04.82-3a.52.52 0 0 0-.69-.57l-2.22.82a.7.67-78.3 0 0-.29.2zm-168.05 40.77q2.78-.3 5.61-.75 3.57-.56 5.62-.75 8.67-.79 17.66-3.07a.65.34-35.5 0 1 .15-.02q.95-.04 1.68-.54a.61.6 37.1 0 0-.15-1.07l-11.49-3.9a.96.94.2 0 1-.6-.59q-3.23-9.21-3.41-10.95-.46-4.42-1.03-5.21-.45-.65-.17-2.13.22-1.2-1.18-1.62a.58.57 2.8 0 1-.4-.43l-2.13-9.29a.35.35 0 0 0-.68 0c-.62 2.9-.63 5.28.81 7.75q.52.88.14 2.18a1.21 1.21 0 0 0 .43 1.3q2.37 1.78 2 4.24a3.08 3.06 42.2 0 0 .06 1.15q1.09 4.46 1.19 4.96.93 4.35 3.32 7.1a.7.7 0 0 1-.75 1.12l-6.45-2.19a.36.36 0 0 0-.35.62c6.28 5.13-3.56 9.03-6.99 9.41-4.04.45-7.46.03-9.11 3.41a.2.2 0 0 1-.3.06l-.52-.42a.19.18-50.2 0 1-.02-.27l2.57-3.2a.04.03-52 0 0 0-.05q-.07-.08-.19-.17-.14-.11-.32.15-.88 1.3-3.11 1.1a.67.65-67.2 0 0-.59.25l-.2.25a.59.58-63.1 0 1-.61.2l-9.99-2.84a.62.46 53.3 0 1-.1-.03q-1.27-.57-6.7-1.68a.61.61 0 0 0-.68.84l.02.06a2.52 2.5-1.6 0 0 1.48 1.39q4.69 1.63 6.37 3.78 1.87 2.38 4.76 2.41 4.58.05 7.43.81a2.63 2.51-41.6 0 0 1.1.04q4.3-.77 6.63-2.65a.032.021 8.6 0 0-.03-.04q-.23.14-.87-.17a.29.29 0 0 1 .09-.55zm43.03-20.77l22.1 7.5a2.62 2.56-41.5 0 0 1.43.07l6.93-1.58a.49.49 0 0 0 .1-.93q-3.44-1.6-7.94-2.23a4.8 4.72 58.5 0 1-1.09-.27q-3.36-1.23-7.15-1.62a4.82 4.62-29.8 0 1-1.25-.31c-3.83-1.56-9-2.81-13.14-1.25a.33.33 0 0 0 .01.62zm-50.48 3.69a.24.24 0 1 0-.48 0 .24.24 0 1 0 .48 0zm-21.84 17.58l7.79 4.49a.87.87 0 0 0 1.15-1.24q-3.28-4.86-8.26-5.35a1.13 1.13 0 0 0-.68 2.1zm59.5 7.83l2.46.16a.59.59 0 0 0 .54-.89l-2.02-3.28a.3.29 57.9 0 0-.41-.1l-1.38.85a.13.12-28.9 0 0-.05.16q.91 1.94.67 2.84a.21.21 0 0 0 .19.26zm-14.64-.99q1.96-.31 2.01-.37a.3.3 0 0 0-.26-.5q-1.84.22-2.67.84a.47.47 0 0 0 .22.85l6.46.8a.35.35 0 0 0 .34-.54q-.38-.58-1.53-1.45a.68.66 52.6 0 0-.62-.09l-3.72 1.38a.31.29 69.1 0 1-.38-.18l-.11-.29a.34.34 0 0 1 .26-.45zm61.59 10.36q2.32 1.79 6.08 1.33a1.82 1.82 0 0 0 1.56-2.16q-.51-2.53.38-4.41a1.33 1.26-32.1 0 0 .09-.35l.13-2.08a.56.55-13.5 0 0-.84-.51q-.66.39-1.24.43a1.15 1.15 0 0 0-.9.54q-2.32 3.82-2.94 4.39-.43.4-2.2 1.36a.88.87-40.4 0 0-.12 1.46z" class="D"/><path d="M192.34 73.53l3.11 5.87a.77.77 0 0 1-.23.98q-10.19 7.46-19.7 15.39-3.16 2.63-4.36 7.3a.04.03 45.4 0 1-.06-.01q-.01-.01-.02-.04a.12.04-81.4 0 1-.01-.06l.45-3.65a.25.25 0 0 0-.4-.22q-8.01 6.24-24.71 19.83c-1.45 1.17-3.17 2.39-5.49 2.86q-3.2.66-4.97 4.02a.2.2 0 0 0 .3.25q1.45-1.09 6.07-3.11 2.29-1 2.35-1.01.6-.12.77.46a.56.56 0 0 0 .65.4c1.44-.29 2.36.01 3.95-.69 4.14-1.79 8.83-2.36 12.75-3.61a1.96 1.87-74.2 0 0 .73-.43l2.46-2.32a.16.15 82.8 0 1 .24.19q-.03.06-2.02 2.22-3.27 3.56-3.68 7.45a.69.69 0 0 1-.74.62l-6.43-.41a.44.4 66.1 0 1-.25-.11q-.94-.88.97-.64a.54.53 6.6 0 0 .61-.48q.02-.18-.03-.3a.36.36 0 0 0-.36-.22q-.64.03-1.87.76a.67.67 0 0 1-.91-.21q-1.15-1.76-3.54-1.36-1.9-.36-2.47-.17-6.17 2.08-11.45 5.58-.51-.82.6-1.51a.03.03 0 0 0 0-.05q-.02-.01-.05-.02a.28.26-47.9 0 0-.2.02q-6.39 2.98-10.78 8l-17.42 11.01-2.99-2.01 48.9-39.04a3.43 3.41-68.1 0 1 1.65-.71q4.3-.62 6.18-5.04a3.06 2.92-8.8 0 1 .93-1.21l31.47-24.57zm9.44 4.45l-.31 2.98a.88.77-77.5 0 0 .49.9q.52.19.84 1.01a.25.25 0 0 0 .32.14l.26-.09a.41.4-31.3 0 0 .16-.65q-.42-.46-.67-1.02a.39.39 0 0 1 .59-.47q.24.17.42 1a.24.24 0 0 0 .43.1q.22-.28.33-.29.35-.03.53.26 1.13 1.82 2.18 2.64.29.22.55.95.18.5.84.51.45.01.39.23-.04.16-.03.23a.46.44 13.3 0 0 .23.35q3.31 1.87 5.53 5.31a.24.24 0 0 0 .43-.04q.02-.06.01-.19a.12.11 14.8 0 1 .18-.1q.39.26.6-.06 1.24 1.57 3.17 2.17c-1.18 2.22 2.42 3.95 3.97 4.94a.48.48 0 0 1 .11.71q-.2.23-.24.36a.53.52 18.4 0 0 .33.65c1.29.45 1.05 1.97 2.01 2.75q1.32 1.07 3.05 2.57a1.12 1.09-66.6 0 1 .37.97q-.04.34.16.59 1.28 1.63 2.63 2.41a1.67 1.64-89.5 0 1 .61.63l.98 1.86a.85.79-87.8 0 0 .24.28q2.25 1.73 3.51 4.14a1.52 1.5 38.9 0 1 .12 1.06q-.15.57-.12.72a.29.29 0 0 0 .54.08l.16-.42a.48.47 30.9 0 1 .76-.19l2.87 2.58a1.02.99-83.8 0 1 .24.31q1.5 3 5 4.44a.95.93 82.4 0 1 .41.32q.34.48.13 1.1a1.07 1.06 34.7 0 0 .19 1.02q1.23 1.46 2.31 1.98a.24.24 0 0 1 .04.41q-.03.02-.28-.02a.18.18 0 0 0-.19.25l.17.38a.34.33-18.1 0 0 .38.19q.99-.25 1.36.47a.7.69 51.4 0 1-.08.76l-.24.3a.32.32 0 0 0 .08.46q.56.37 1.39.47c1.03.12 1.62 1.58 2.89 1.82a.71.64 35 0 0 .41-.05l3.89-1.69a.22.22 0 0 1 .3.12l.13.37a.46.46 0 0 1-.25.59l-3.61 1.58a.5.5 0 0 0-.2.76q2.11 2.74 4.14 3.5a.58.57-75.9 0 1 .37.63q-.01.05-.16.29-.06.1.08.33 1.36 2.4 4.24 3.93a1.02 1.01 6.1 0 1 .49.6q1.12 3.7 4.58 4.57a.6.6 0 0 1 .43.75q-.03.08-.08.24a1.3 1.29 37.9 0 0 .14 1.08q1.12 1.78 2.91 2.72 1 .53.96.87-.03.28-.04.85a1.09 1.09 0 0 0 .53.97c2.62 1.58 4.34 4.7 6.75 7.23q3.41 3.56 6.37 7.44l-.54.89q-.42-.5-.93-.54a.79.79 0 0 0-.74 1.18q.89 1.51 2.19 1.44l-1.35 1.3a1.29 1.29 0 0 1-1.84-.03q-4.35-4.59-9.41-10.37c-2.34-2.65-5.78-4.8-7.33-7.85a.27.27 0 0 0-.47-.01l-1.14 1.99a.78.78 0 0 1-1.06.28l-.36-.21a.76.76 0 0 1-.2-1.16q1.15-1.35 1.13-2.95a.94.9-68.1 0 0-.24-.6l-16.02-17.17a3.62 3.49 84.7 0 0-.72-.62l-6.71-4.47a.79.78 25 0 1-.32-.87c.99-3.36-2.62-5.69-5.37-7.42-1.83-1.14-4.12-5.64-5.49-7.31-7.67-9.34-14.89-16.38-22.42-25.05a1.22 1.21 39.8 0 1-.13-1.41l1.8-3.12a.22.21 30.3 0 0-.08-.29l-.23-.13a.07.07 0 0 0-.09.02l-2.06 3.05a.32.32 0 0 1-.49.05l-8.11-8.12a.85.84 37.4 0 1-.14-1.02l2.18-3.77a.27.26 30.8 0 0-.1-.37l-.23-.13a.15.15 0 0 0-.21.05l-1.99 3.45a.48.47-59.9 0 1-.64.18l-.34-.2a.54.52-60.3 0 1-.19-.73l2.61-4.53a.41.41 0 0 1 .67-.05l1.4 1.72zm17 24.34q.35-.79 1.07-1.4a.83.82-42.7 0 0 .05-1.21l-1.32-1.32a.6.59-47.8 0 0-.88.05l-1.39 1.73a.51.51 0 0 0 .29.81q.2.04.4.01.4-.08.7.46.23.43 0 .81a.24.24 0 0 0 .2.36l.34.03a.56.55 12.8 0 0 .54-.33zm32.567 33.197a1.71.74-132.4 0 0 .607 1.762 1.71.74-132.4 0 0 1.7.764 1.71.74-132.4 0 0-.607-1.762 1.71.74-132.4 0 0-1.7-.764zm16.911 18.558a1.78.74-133.8 0 0 .698 1.797 1.78.74-133.8 0 0 1.766.773 1.78.74-133.8 0 0-.698-1.797 1.78.74-133.8 0 0-1.766-.773z" class="F"/><path d="M203.55 77.79q.33.11.79-.25.53.87 1.49 1a.64.64 0 0 0 .71-.53q.06-.37.32-.65a.81.78-36.6 0 1 1.29.16q.45.9.47 1.29a1.44 1.44 0 0 1-1.84 1.54l-2.57-.75a.54.54 0 0 1-.37-.68q.19-.63-.29-1.13zm15.7 16.06q-1.93-.6-3.17-2.17-1.48-1.68-.69-3.05a.98.96-73.3 0 1 .89-.49q3.28.16 4.99 3.6c.73 1.48-.46 2.51-2.02 2.11z" class="C"/><path d="M218.24 102.65l-.34-.03a.24.24 0 0 1-.2-.36q.23-.38 0-.81-.3-.54-.7-.46-.2.03-.4-.01a.51.51 0 0 1-.29-.81l1.39-1.73a.6.59-47.8 0 1 .88-.05l1.32 1.32a.83.82-42.7 0 1-.05 1.21q-.72.61-1.07 1.4a.56.55 12.8 0 1-.54.33z" class="B"/><path d="M485.72 102.65l2.79-2.23a.6.6 0 0 1 .97.51q-.15 1.94 1.49 2.85a.48.47-53.5 0 1 .11.75l-1.81 1.8a.44.44 0 0 1-.75-.3q-.05-2.89-2.54-2.71a.38.37-66.4 0 1-.26-.67zm-20.46-.38a.22.22 0 0 1 .31.05l.01.01a.04.04 0 0 1-.01.05l-7.9 6.86a.43.42 56.9 0 1-.66-.14q-.93-1.96-3.08-3.03a.44.43-51.4 0 1-.08-.73l2.92-2.33a.47.47 0 0 1 .72.18l.84 1.92a1.52 1.51-30 0 0 2.29.61l4.64-3.45z" class="D"/><path d="M509.55 110.28l-1.72 1.78-4.02-.05a.79.79 0 0 1-.31-1.52l1.16-.51a1.45 1.43-9.2 0 0 .86-1.18q.23-2.17.3-2.4.86-2.61 3.6-2.02a1.31 1.24 23.2 0 1 .85 1.96q-1.06 1.49-.72 3.94z" class="E"/><ellipse cx="0" cy="0" transform="matrix(-.712026 -.702153 .702153 -.712026 373.72 111.83)" rx="3.22" ry="1.54" class="C"/><path d="M367.98 111.86q-.7.62-1.59 1.6a.21.21 0 0 1-.15.07q-.3-.01-.31-.33a.41.32 59.6 0 1 .02-.18q.25-.65 1.51-1.75 1.25-1.11 1.92-1.28a.41.32 37.3 0 1 .18-.01q.32.05.29.35a.21.21 0 0 1-.08.14q-1.09.77-1.79 1.39z" class="F"/><path d="M.9 114.03a.17.17 0 0 1-.34-.01q-.04-.19.07-.35a.14.13 41.9 0 1 .22-.01q.11.14.05.37zm364.01.28q.18.27-.42.67-11.58 7.7-11.92 7.16-.34-.54 11.55-7.73.62-.37.79-.1z" class="D"/><ellipse cx="0" cy="0" transform="matrix(-.698415 -.715693 .715693 -.698415 490.44 117.58)" rx="2.62" ry=".72" class="C"/><path d="M503.49 117.01l-1.72 2q-.59-1.09-.43-2.21a.7.66-21.5 0 1 .16-.34q.78-.87 1.99.55z" class="E"/><ellipse cx="0" cy="0" transform="matrix(-.688355 -.725374 .725374 -.688355 480.65 124.81)" rx="2.7" ry=".78" class="C"/><path d="M147.97 123.25q.65.25 1.19.29a.77.77 0 0 1-.01 1.53l-.79.09a1.39 1.33-58.8 0 0-.48.13l-8.52 3.93q-.04.02-.08.04l-31.23 20.09-4.52-1.02a1.15 1.13-52.7 0 0-.82.12q-.99.55-2.03.94-1.61.61-.15.1.01-1.69.65-2.29a.12.12 0 0 0-.13-.19q-1.3.52-2.43-.91a.16.06-20.8 0 0-.15 0q-.04.02-.08.02a.11.09 52.4 0 0 0 .18q1.56 1.28 1.42 1.71a.27.27 0 0 1-.51 0q-.48-1.38-3.46-1.91-.05 0-.61.11a.21.2 54.5 0 0-.06.38q.24.14.8.06.27-.04.54.49.87 1.66 2.42 1.68a.98.98 0 0 1 .45 1.85q-3.17 1.66-4.57 3.32a1.36 1.33 12 0 1-.68.43c-1.5.4-3.44 2.39-5.15 1.85l-1.13-1.29a.58.58 0 0 1 .1-.86l.64-.44a.35.35 0 0 0-.25-.64q-.28.02-1 .57a.91.9-43.8 0 1-1.12-.02q-5.08-4.2-8.72-7.77-.61-.61-1.25-.85-.7-.27-.8-.65a1.35 1.33 1.3 0 0-.9-.93q-1.07-.33-1.69-1.6l-6.12-5.61a.96.95 25.1 0 1-.31-.84l.28-1.92q.17-.04.27-.14.32.16.46.16 2.73 3.29 6.36 5.5a1.32 1.29 55.7 0 0 .9.18q4.18-.67 7.27-2.44a.86.85-31.5 0 0 .29-1.19q-.81-1.27.5-2.12.27.51 1.49-.05 1.12 2.36 3.48 2.5a1.6 1.58-23.4 0 1 .92.36q.68.58 1.22 1.63a1.35 1.31 85 0 0 .76.66q2.54.88 5.81 3.36a6.32 5.74-11.7 0 0 1.1.65q2.47 1.13 6.81 4.09.92.62 1.85-.46l17.42-11.01 10.43-6.44q5.28-3.5 11.45-5.58.57-.19 2.47.17z" class="E"/><path d="M85.98 132.89q-.21.72-1.73.43-1.22.56-1.49.05-2.45-3.73-5.93-6.46a.27.26-32.4 0 1 .11-.47l2.9-.66a.81.79-24.9 0 1 .82.29l5.32 6.82z" class="C"/><path d="M134.05 128.66l-10.43 6.44q4.39-5.02 10.78-8a.28.26-47.9 0 1 .2-.02q.03.01.05.02a.03.03 0 0 1 0 .05q-1.11.69-.6 1.51z" class="B"/><path d="M250.54 147.59l.26.04a.29.29 0 0 1 .05.56q-1.61.58-2.59 1.74a2.17 2.13-81.4 0 1-.77.58q-2.77 1.26-4.6 3.16a2.49 2.47-80.8 0 1-.74.54q-2.31 1.13-3.66 2.81a2.84 2.5-85.5 0 1-.37.36l-22.61 17.93q-4.03-.56-6.75 1.14l-18.95 15.04a5.73 4.81-73.2 0 1-.75.49l-3.43 1.82a.84.74-.4 0 0-.3.27l-1.09 1.72a.54.54 0 0 0 .49.83q1.23-.06 3.29.76a.42.42 0 0 1 .16.67q-2.35 2.61-6.26 4.6a1.3 1.28 40 0 1-1 .08q-2.17-.72-2.88-2.57a2.02 1.87-61.2 0 1-.12-.48l-.41-3.23a.6.6 0 0 0-.63-.52q-2.06.11-2.13-1.18-.1-2.11-.18-2.42-1.1-4.81-.94-10.84a.21.21 0 0 0-.37-.14q-4.02 4.78-3.97 10.95.02 3.23-.69 5.8a.75.74 11 0 1-.8.54l-.76-.1a.61.6-73.8 0 1-.47-.86q2-4.29-.5-8.65-5.5-9.6-14.1-17.95-2.29-2.22-5.69-8.25-1.58-2.81-6.19-3.24l-1.05-3.6a.74.74 0 0 0-1.44.08q-.52 3.06.71 6.2l1.28 7.14a.32.32 0 0 1-.38.37q-.15-.03-.33-.01a.24.24 0 0 0-.11.44c5.17 3.67 9.98 8.51 14.3 12.59a.46.17 48.4 0 1 .22.55q-.03 0-.06.01a.76.05 41.6 0 1-.56-.44c-4.55-3.99-9.74-7.03-14.37-10.95q-3.13-3.08-4.08-4.98-3.69-7.43-7.94-13.5a.66.66 0 0 0-1.2.39c.04 3.19 2.92 7.18 5.23 10.35a.39.38 28.2 0 1 .07.22l-.01.57a.09.09 0 0 1-.17.02l-.09-.4a.58.58 0 0 0-.51-.44c-5.46-.53-10.99-8.3-11.34-13.5a1.41 1.4-8.4 0 0-1.72-1.27l-6.26 1.42a1.08 1.08 0 0 0-.67 1.62c3.31 5.32 7.68 10.2 10.62 15.86q-4.2-1.17-7.78-5.22-2.89-3.25 2.37 1.72a.04.03 24.2 0 0 .06-.02q0-.03.02-.06a.18.11 42.3 0 0-.06-.2l-4.83-4.5q-1.44-1.81-2.73-3.57-1.26-1.73.61-6.02l31.32-19.86a10.96 10.93-65.1 0 1 4.32-1.59q4.47-.64 10.05-1.65 2.83-.52 8.88.57a1.52 1.49-15.4 0 1 .88.49q.76.88 1.49.51a.62.6 34.3 0 1 .34-.06L176 130.2a.14.14 0 0 1 .11.19l-.12.35a.27.27 0 0 1-.29.18q-1.8-.24-2.92.15a.32.32 0 0 0-.02.59c3.35 1.43 6.81.65 9.46 2.68a1.8 1.78 64.8 0 0 1.04.38q3.16.13 4.81 1.56a1.25 1.25 0 0 0 .77.31l7.71.5a.61.55 59.1 0 1 .23.07q3.42 2.08 4.29 2.2 7.18 1.02 14.46 2.43a5.28 4.84 60 0 1 .92.29q2.57 1.13 3.28 1.1 4.52-.16 8.5 1.12a.78.43-16 0 0 .13.03l7.22.62a2.9 2.8 58.1 0 1 .87.22q4.59 2.01 8.71 2.41a.32.32 0 0 1 .16.57c-2.12 1.62-5.03 2.87-7.43 4.85q-5.3 4.4-19.52 15.72a.36.36 0 0 0 .36.62c4.8-1.92 8.98-6.93 12.01-9.1q9.18-6.54 11.2-8.52.49-.48 2.68-1.8c2.03-1.23 2.92-3.05 5.92-2.33zm-120.74-8.82q.79.15 1.66-.13a.24.23-15.5 0 0 .16-.27q-.03-.15-.04-.2a.69.69 0 0 1 .35-.73q1.87-.99 2.89-1.18 11.86-2.19 14.86-2.86 1.64-.36 2.65-1.22a.28.28 0 0 0-.16-.5q-2.41-.19-3.69.1-5.95 1.33-11.88 2.63-3.86.85-6.95 3.84a.31.31 0 0 0 .15.52zm85.77 8.62q-7.55-1.76-9.49-1.9-2.46-.17-3.94-.44c-5.32-.95-9.81-1.43-12.46-1.88q-4.76-.81-10.62-2.43-7.46-2.06-10.6-2.46-6.13-.78-10.64-1.08-.79-.05-3.46-1a.34.34 0 0 0-.46.33l.03.55a.04.03 14.9 0 0 .02.03q5.15 2.33 8.04 2.92 4.49.91 31.21 5.43 3.15.53 9.13.88c3.51.21 8.82 2.15 13.23 1.38a.17.17 0 0 0 .01-.33z" class="E"/><path d="M425.58 131.51q.36.63 2.2 1.18a.88.87 14.5 0 1 .61 1.03c-.54 2.39 1.52 3.82 1.21 5.98q-.21 1.44-2.37 4.38a.71.62-80.6 0 1-.27.22l-4.62 2.02a1.71 1.7 53.4 0 1-1.78-.27q-1.88-1.62-2.47-1.8a3.37 3.37 0 0 1-2.16-2.01q-.66-1.72-1.82-2.86a1.55 1.55 0 0 1-.26-1.88l2.11-3.66a1.08 1.08 0 0 1 .51-.45q6.69-2.76 7.49-3.27.85-.54 1.17-.16.2.23.23.8a1.7 1.56-63.8 0 0 .22.75z" class="C"/><path d="M67.44 133.44q-.14 0-.46-.16.77-1.43 2.03-2.46a.11.11 0 0 1 .16.15l-1.73 2.47z" class="B"/><path d="M129.65 138.25q3.09-2.99 6.95-3.84 5.93-1.3 11.88-2.63 1.28-.29 3.69-.1a.28.28 0 0 1 .16.5q-1.01.86-2.65 1.22-3 .67-14.86 2.86-1.02.19-2.89 1.18a.69.69 0 0 0-.35.73q.01.05.04.2a.24.23-15.5 0 1-.16.27q-.87.28-1.66.13a.31.31 0 0 1-.15-.52z" class="D"/><ellipse cx="0" cy="0" transform="matrix(-.663926 -.747798 .747798 -.663926 474.1 133.76)" rx="2.92" ry="1.13" class="C"/><path d="M103.21 144.1l2.99 2.01q-.93 1.08-1.85.46-4.34-2.96-6.81-4.09a6.32 5.74-11.7 0 1-1.1-.65q-3.27-2.48-5.81-3.36a1.35 1.31 85 0 1-.76-.66q-.54-1.05-1.22-1.63a1.6 1.58-23.4 0 0-.92-.36q-2.36-.14-3.48-2.5 1.52.29 1.73-.43l17.23 11.21z" class="D"/><path d="M66.71 133.42l-.28 1.92a.96.95 25.1 0 0 .31.84l6.12 5.61q-1.53.08-1.91 3-.36 2.78-1.66 5.13-3.31-1.31-6.02-2.39-1.06-.42-1.4-1.49l.12-3.76.56-1.82q.16-.31.15-.69l4.01-6.35z" class="C"/><path d="M466.51 134.18q.22.82-.74 1.61-4.09 3.37-7.81 7.16-1.55 1.58-1.4.63l9.95-9.4zm-135.62 59.84l-.8.44q-.33-2.64 1.96-3.33a1.48 1.46 9.7 0 0 .76-.53q1.9-2.48 4.51-3.6a2.37 2.09-75.1 0 0 .69-.46q2.03-1.97 3.28-3 .21-.17.58-.15a.58.57-68.6 0 0 .49-.22q1.24-1.52 3.79-3.52 18.82-14.73 38.06-30.14a2.3 2.28-23.9 0 0 .83-2.13q-.92-5.93 4.06-9.37 4.6-3.19 10.45-.3.76.37.97.23.27-.18.31-.63a.66.65-17.2 0 1 .25-.47l2.37-1.89a.31.31 0 0 1 .45.05l.19.24a.45.45 0 0 1-.07.64l-2.34 1.88a.89.89 0 0 0 0 1.39l4.25 3.42a1.17 1.16 44.8 0 0 1.45 0l1.89-1.51a.31.31 0 0 1 .44.05l.28.34a.33.32 57.1 0 1-.1.49q-1.9 1-2.38 2a.84.84 0 0 0 .16.97l10.71 10.71a.68.68 0 0 0 1-.06l2.22-2.77a.41.41 0 0 1 .7.11l.16.42a.94.91 58 0 1-.21.97l-2.39 2.39a.54.53-48.3 0 0 .04.8l.28.23a.47.46-52.9 0 0 .67-.1q.77-1.08 1.61-1.15a.35.35 0 0 1 .3.57l-.98 1.23a.39.38-51.7 0 0 .06.55l.33.27a.33.32-47.1 0 0 .43-.02q1.77-1.69 2.93-2.05a.33.33 0 0 1 .35.52q-.85 1.1-1.9 1.72a1.42 1.42 0 0 0-.47 1.98q.93 1.46 3.04 3.12a.11.05 67.5 0 1 .04.04l3.63 4.3a.09.09 0 0 1-.03.13l-1.14.66a.19.19 0 0 1-.27-.24q.14-.31.21-.42a.68.67-53.1 0 0-.11-.81l-19.36-19.97a.94.87-81.4 0 1-.19-.28q-.42-.95-1.99-2.75a1.07 1.06 48.2 0 0-1.52-.09q-1.26 1.14-1.95 3.31c-1.51 4.84-4.8 7.56-10.16 7.5-2.45-.02-3.92-1.37-6.28-2.92a.79.77 42.4 0 0-.92.03q-1.62 1.27-3.44 3.21-.42.44-1.2.38a1.21 1.19-65.9 0 0-.98.38l-2.59 2.62a4.63 3.51-53.6 0 1-.48.43l-22.04 17.62a.36.35-41.7 0 1-.47-.02l-.02-.02a.51.51 0 0 1-.01-.69q3.98-4.34 8.63-7.1a3.75 3.7-83.6 0 0 .89-.72q3.51-3.8 7.59-6.12a2.76 2.66 2.9 0 0 .84-.73q.15-.2 2.76-2.19a.39.39 0 0 0-.37-.67q-5.13 1.95-8.35 5.99a1.75 1.26-9.2 0 1-.26.26l-14.32 11.44a2.56 2.42 11 0 1-.55.35q-3.69 1.77-4.64 2.76c-4.94 5.18-10.95 9.48-16.61 14zm56.94-42.08l5.26-4.2a.83.83 0 0 1 1.04 0l2.1 1.68a3.15 3.13-37.9 0 0 3.3.4q1.92-.9 3.43-2.3a3.38 3.26 83.8 0 0 .62-.8q.76-1.39.7-1.67-.47-2.22-1.65-3.84-1.71-2.37-3.8-2.57a2.28 2.26 28 0 0-1.62.49l-11.51 9.19a.28.26 73.2 0 0-.09.18q-.12 1.35.3 1.49.56.2.56 1.07 0 .59.68.95a.62.62 0 0 0 .68-.07z" class="F"/><ellipse cx="0" cy="0" transform="matrix(-.674302 -.738455 .738455 -.674302 252.5 136.78)" rx="1.71" ry=".74" class="C"/><path d="M215.56 147.72c-4.41.77-9.72-1.17-13.23-1.38q-5.98-.35-9.13-.88-26.72-4.52-31.21-5.43-2.89-.59-8.04-2.92a.04.03 14.9 0 1-.02-.03l-.03-.55a.34.34 0 0 1 .46-.33q2.67.95 3.46 1 4.51.3 10.64 1.08 3.14.4 10.6 2.46 5.86 1.62 10.62 2.43c2.65.45 7.14.93 12.46 1.88q1.48.27 3.94.44 1.94.14 9.49 1.9a.17.17 0 0 1-.01.33z" class="D"/><path d="M387.15 152.01q-.68-.36-.68-.95 0-.87-.56-1.07-.42-.14-.3-1.49a.28.26 73.2 0 1 .09-.18l11.51-9.19a2.28 2.26 28 0 1 1.62-.49q2.09.2 3.8 2.57 1.18 1.62 1.65 3.84.06.28-.7 1.67a3.38 3.26 83.8 0 1-.62.8q-1.51 1.4-3.43 2.3a3.15 3.13-37.9 0 1-3.3-.4l-2.1-1.68a.83.83 0 0 0-1.04 0l-5.26 4.2a.62.62 0 0 1-.68.07zm7.72-6.88q.09.9 2.7 1.72a1.91 1.91 0 0 0 1.87-.42q1.22-1.12 1.14-1.89-.08-.77-1.51-1.62a1.91 1.91 0 0 0-1.91-.03q-2.38 1.33-2.29 2.24zM62.7 139.77q.01.38-.15.69l.15-.69zm10.16 2.02q.62 1.27 1.69 1.6a1.35 1.33 1.3 0 1 .9.93q.1.38.8.65.64.24 1.25.85 3.64 3.57 8.72 7.77a.91.9-43.8 0 0 1.12.02q.72-.55 1-.57a.35.35 0 0 1 .25.64l-.64.44a.58.58 0 0 0-.1.86l1.13 1.29q0 .32-.28.39-.25.07-.46-.13-4.63-4.42-10.66-9.51a.51.5-67.8 0 0-.83.35q-.04.51-.46 1.08a2.25 2.16 70.3 0 0-.38.85q-.94 4.1-2.88 10.73-.28.98-.12 1.48.21.65 1.16.64.51-.01.61.41.09.38-.15.8a.48.48 0 0 1-.82.03q-1.3-1.91-2.58-1.82l-2.97-3.47a1.02 1.01 30.6 0 1-.22-.84l1.35-7.34q1.3-2.35 1.66-5.13.38-2.92 1.91-3z" class="B"/><path d="M61.99 142.28l-.12 3.76q-.25-1.97.12-3.76z" class="F"/><rect x="-9.23" y="-.39" transform="matrix(.799685 -.60042 .60042 .799685 376.13 148.35)" width="18.46" height=".78" rx=".27" class="D"/><path d="M400.58 144.54q.08.77-1.14 1.89a1.91 1.91 0 0 1-1.87.42q-2.61-.82-2.7-1.72-.09-.91 2.29-2.24a1.91 1.91 0 0 1 1.91.03q1.43.85 1.51 1.62zm-292.53 4.81q-.49.44-.16 1.11-1.87 4.29-.61 6.02 1.29 1.76 2.73 3.57-1.96-1.57-4.02-2.08-.72-.17-1.21-.08a.31.31 0 0 0-.15.53q.46.41 1.11.67-.42 2.36.56 3.78c2.92 4.24 6.83 7.43 12.39 7.69a.38.38 0 0 0 .29-.64l-6.53-6.81q3.58 4.05 7.78 5.22 3.42 3.39 6.84 5.24 2.54 1.38 5.36.17a.76.75 83.6 0 0 .45-.57q.1-.67.85-.89 1.08-.32 1.49.42 4.03 7.04 11.82 11.54a.28.27 30.8 0 0 .38-.09l.01-.01a.27.26 31.8 0 0-.09-.35c-2.83-1.79-12.11-7.35-9.04-11.82 4.63 3.92 9.82 6.96 14.37 10.95a.76.05 41.6 0 0 .56.44q.03-.01.06-.01a.46.17 48.4 0 0-.22-.55c-4.32-4.08-9.13-8.92-14.3-12.59a.24.24 0 0 1 .11-.44q.18-.02.33.01a.32.32 0 0 0 .38-.37l-1.28-7.14q1.29 2.55 1.36 5.35.02.65.33.74.37.1.84-.06a.34.33-51.4 0 0-.07-.65q-.45-.04-.47-.66a.27.27 0 0 1 .41-.23q.13.08.21.08a.46.46 0 0 0 .47-.46q-.03-3.44-1.3-6.79 4.61.43 6.19 3.24 3.4 6.03 5.69 8.25 8.6 8.35 14.1 17.95 2.5 4.36.5 8.65a.61.6-73.8 0 0 .47.86l.76.1a.75.74 11 0 0 .8-.54q.71-2.57.69-5.8-.05-6.17 3.97-10.95a.21.21 0 0 1 .37.14q-.16 6.03.94 10.84.08.31.18 2.42.07 1.29 2.13 1.18a.6.6 0 0 1 .63.52l.41 3.23a2.02 1.87-61.2 0 0 .12.48q.71 1.85 2.88 2.57a1.3 1.28 40 0 0 1-.08q3.91-1.99 6.26-4.6a.42.42 0 0 0-.16-.67q-2.06-.82-3.29-.76a.54.54 0 0 1-.49-.83l1.09-1.72a.84.74-.4 0 1 .3-.27l3.43-1.82a5.73 4.81-73.2 0 0 .75-.49l18.95-15.04 3.25 1.04a1.14 1.11-47.6 0 0 .83-.05q1.28-.58 2.67-2.13l22.61-17.93a2.84 2.5-85.5 0 0 .37-.36q1.35-1.68 3.66-2.81a2.49 2.47-80.8 0 0 .74-.54q1.83-1.9 4.6-3.16a2.17 2.13-81.4 0 0 .77-.58q.98-1.16 2.59-1.74a.29.29 0 0 0-.05-.56l-.26-.04 2.48.01q-.44.94-.65 1.9c-.4 1.93-1.21 2.67-2.72 3.42q-1 .5-.72 1.86a1.67 1.64 53.3 0 1-.15 1.1l-1.05 2.05a.81.8 14.3 0 0 .7 1.17q2.77.06 4.29-2.32a.31.31 0 0 1 .56.08l.45 1.72q-.14.12-.28.23-1.2 1.46-2.93 2.46a.89.89 0 0 1-.73.07l-3.6-1.22a.3.3 0 0 0-.4.25q-.27 2.66-2.89 3.14a1.49 1.36 19.4 0 0-.59.25l-9.96 7.19q-3.57.45-7.34 1.82-1.45.52-2.14 2.01a1.14 1.1-47.5 0 0 .03 1.01q.96 1.74 2.13 2.22 14.04 5.84 28.72 1.63c2.98-.86 3.49-4.07.43-5.44q-8.36-3.77-18.29-3.4-2 .27.99-1.17a3.55 3.52 10.6 0 0 .87-.59q1.47-1.36 3.61-2.05a1.37 1.35-43.3 0 1 .85.02q2.08.78 1.43 2.51a.57.56-81.7 0 0 .57.77l2.83-.21a.95.95 0 0 0 .68-.36l4.55-5.67a.5.5 0 0 1 .86.47q-.87 2.61-3.84 5.68a.68.68 0 0 0 .11 1.03l.22.13a.81.81 0 0 0 1.03-.19l1.72-2.14a.38.37-26 0 1 .67.23q0 .62-.26 1.31-.99.4-1.03 1.11a.54.54 0 0 0 .33.54q2.61 1.11 4.87 3.08 1.55 1.35.45 2.85-1.37 1.87-3.54 2.5-4.25 1.24-9.94 1.88a2.56 2.56 0 0 1-1-.1q-.89-.27-8.5-.74-6.69-.41-12.46-4.45a.5.49 30.5 0 0-.72.18l-.02.04a.64.63 31.4 0 0 .2.8q4.17 3.02 9.28 4.07l.76 9.41q-.4-1.61-.86.63a.48.48 0 0 1-.63.36l-3.46-1.17a1.07 1.04-12.2 0 1-.4-.25l-2.13-2.13a1.13 1.11-75.6 0 1-.31-.53l-1.54-5.84a.39.38-26.6 0 0-.61-.2l-6.87 5.5a.21.21 0 0 0 .19.36q2.34-.6 4.75-2.55a.25.25 0 0 1 .38.3q-2.12 4.51-2.97 5.92c-2.97 4.96-2.98 10.91-2.55 16.18a.36.35-82.1 0 0 .22.3q.18.07.38 0a.03.01-67.5 0 0 .02-.02l.46-3.31a1.93 1.93 0 0 1 2.46-1.58l11.7 3.46 6.57 2.27a1.82 1.81-78.1 0 1 1.21 1.87l-.82 9.62-.25 2.11a.43.43 0 0 0 .69.38l.76-.6a.33.33 0 0 1 .53.31q-.37 2.04-1.66 2.21a.66.65-1.6 0 0-.57.6l-.92 14.41a1.5 1.49 11.3 0 1-1.97 1.31l-18.09-6.14a.66.65-78.3 0 0-.86.57l-.31 4.16a.35.34 27.4 0 1-.61.19q0-.01-.19-1.05c-.19-1.01-.95-1.67-2.2-3.06a2.04 1.99 16.4 0 1-.45-.8l-.7-2.32a1.73 1.69-85 0 0-.84-1.02q-.77-.4-1.59-.3-.58.07-1.64-.37-2.4-.99-4.84.58l-8.53 4.03a1.19 1.18 52.9 0 0-.27 1.96q1.49 1.3 3.34 2.06 1.58.65 3.21 2.09 1.85 1.63 3.81 3.46l-10.96 1.61a2.52 2.49-34.5 0 1-1.56-.28q-5.59-3.06-8.01-7.98a1.76 1.75-32.7 0 0-2.69-.58q-.52.42-.38 1.56.69 5.24 1.01 12.44a3.26 3.25 66.3 0 1-.96 2.47l-3.64 3.64a.94.94 0 0 0-.25.88l.06.26a.51.51 0 0 1-.87.47c-3.24-3.33-3.79-7.26-5.09-11.12a.89.88-15 0 0-1.01-.58q-3.72.75-7.47 2.66-13.59 6.91-26.93 14.94-.74-2.28-.51-4.39a.92.91 12.8 0 0-.61-.96l-5.22-1.77a.11.11 0 0 0-.14.11l.54 5.38a1.49 1.48-80.9 0 0 .89 1.23l2.28.99-5.8 1.08a1.44 1.43 72.7 0 1-1.59-.84l-1.19-2.73a1.01.99 82.5 0 0-.74-.58c-1.51-.25-2.58-.15-3.51.94q-.53.63-.85.82a1.14 1.09 38.3 0 1-.99.09l-44.12-16.65q-.19-1.67.55-2.83a1.13 1.13 0 0 0-.59-1.68l-1.93-.65a.99.99 0 0 0-1.3.81q-.28 2.18-1.48 2.74-1.09-.57-1.3-.37l.53-3.54a1.02 1.01-75.4 0 0-.64-1.1l-39.24-15.03q-.53-.25-.75-.64l43.6-16.07a3.43 3.36-44.9 0 1 2.29-.02q17.81 6.2 35.59 12.23 2.14.72 7.4 1.99a.25.25 0 0 0 .31-.3l-.1-.43a.24.24 0 0 0-.17-.18l-11.15-3.22c-.69-10.04.75-18.5 8.27-25.95q-.84-3.16-1.64-6.1-.69-2.51.98-4.33.81-.88.55-1.18-.65-.77-1.06-.97a.36.35-54.2 0 1-.09-.57l1.57-1.57a.49.49 0 0 0-.06-.74l-1.28-.91-.4-1.01q3.52-.84 1.96-4.34-2.21-4.97-7.71-5.86a.62.61 13.5 0 0-.69.42c-1.47 4.53-3.41 9.98-1.46 13.96q.41.84.74 2.21a2.42 2.42 0 0 0 .46.92q2.28 2.77 2.4 7.24a.52.52 0 0 1-.53.53q-2.42-.03-4.24-.97a.62.62 0 0 0-.82.23q-.88 1.45-2.27 1.73-5.09 1.03-6.1 1.51a2.14 2.08-83.2 0 0-.73.59c-1.2 1.47-3.49.71-5.05.11a1.42 1.4-43.6 0 0-.95-.02l-24.8 8.36q2.63-5.75 8.09-8.81a3.52 3.02 4.4 0 0 .6-.44q4.79-4.47 8.05-10.17a.36.36 0 0 0-.56-.43L69 192a.35.35 0 0 1-.5 0l-.29-.29a.29.28 50.5 0 1 .04-.43q2.6-1.89 3.05-3.21 1.15-3.32-1.07-1.48 3.61-4.54 8.5-7.88a.61.59-24.5 0 0 .25-.64l-.11-.5a.25.25 0 0 0-.39-.15q-1.5.99-3.27 1.48-.83-.68-1.8-.33a.18.18 0 0 1-.2-.28l.19-.23a.69.69 0 0 1 .42-.26l5.77-1.32a.8.79-13.1 0 0 .6-.95l-.38-1.67a.67.66 67.5 0 0-1-.42q-6.69 4.26-14.62 5.91l13.95-8.43a.02.01-31.7 0 0 .01-.02l-.15-.25a.19.19 0 0 0-.27-.06l-5.1 3.33a.11.11 0 0 1-.17-.13q.01-.05.14-.24a.21.2-55.1 0 0-.04-.27l-.73-.53 9.21-5.95a.67.67 0 0 0-.02-1.14q-.62-.36-1.54-.51-1.11-.31-1.01.05-2.64-.38-2.23.68l-12.23 7.65q-1.8-.23-4.4-2.15a.65.64-56.7 0 1-.17-.84l1.02-1.76a.43.42 15.6 0 0-.36-.63q-1.16-.03-2.68.75-.76.39-1.26.1-.49-.29-.55-.77a.43.43 0 0 1 .41-.48q2.52-.07 2.49-3.06-.03-4.09 1.03-6.64a1.03 1.03 0 0 1 1.98.46q-.08 1.26 1.26 2.02a1.93 1.91 62.9 0 0 .82.27l7.53.77q1.28-.09 2.58 1.82a.48.48 0 0 0 .82-.03q.24-.42.15-.8-.1-.42-.61-.41-.95.01-1.16-.64-.16-.5.12-1.48 1.94-6.63 2.88-10.73a2.25 2.16 70.3 0 1 .38-.85q.42-.57.46-1.08a.51.5-67.8 0 1 .83-.35q6.03 5.09 10.66 9.51.21.2.46.13.28-.07.28-.39c1.71.54 3.65-1.45 5.15-1.85a1.36 1.33 12 0 0 .68-.43q1.4-1.66 4.57-3.32a.98.98 0 0 0-.45-1.85q-1.55-.02-2.42-1.68-.27-.53-.54-.49-.56.08-.8-.06a.21.2 54.5 0 1 .06-.38q.56-.11.61-.11 2.98.53 3.46 1.91a.27.27 0 0 0 .51 0q.14-.43-1.42-1.71a.11.09 52.4 0 1 0-.18q.04 0 .08-.02a.16.06-20.8 0 1 .15 0q1.13 1.43 2.43.91a.12.12 0 0 1 .13.19q-.64.6-.65 2.29-1.46.51.15-.1 1.04-.39 2.03-.94a1.15 1.13-52.7 0 1 .82-.12l4.52 1.02zm-30.729-.454a.87.72-108.7 0 0-.403 1.055.87.72-108.7 0 0 .961.593.87.72-108.7 0 0 .403-1.055.87.72-108.7 0 0-.961-.593zM227.68 170.31a.76.75-26.8 0 0 1.28.42l4.48-4.48a.85.84-61 0 1 .78-.23c4.41.96 6.44-3.19 9.06-4.57a.41.41 0 0 0 .1-.66l-.21-.2a.93.92 51.7 0 0-1.14-.14q-5.72 3.46-11.91 5.7-2.9 1.05-2.44 4.16zm-86.01-4.42l-.12 4.57a.96.94-70.3 0 0 .35.76l2.72 2.19a.11.11 0 0 0 .17-.13l-3.06-7.41a.032.032 0 0 0-.06.02zm-22.4 4.19l-.44.77a.56.55-62.9 0 1-.69.23q-1.76-.76-3.6.68a.5.5 0 0 0-.18.31l-.38 3.11a.12.12 0 0 0 .19.12q3.21-1.95 4.89-3.56.55-.53.5-1.59a.16.15 58.3 0 0-.29-.07zm3.02 1.73l-.46 3.74a.31.31 0 0 0 .58.2l.53-.93a1.01 1.01 0 0 1 1.59-.2q1.3 1.31 2.25 3.38a.28.27 58 0 0 .42.1l.42-.34a.34.33 51.5 0 0 .05-.48l-4.55-5.7a.47.47 0 0 0-.83.23zm-4.262 6.127a.7.38-111.1 0 0-.103.79.7.38-111.1 0 0 .606.516.7.38-111.1 0 0 .103-.79.7.38-111.1 0 0-.606-.516zm98.96 28.421a.96.67-122.2 0 0-.055 1.169.96.67-122.2 0 0 1.078.455.96.67-122.2 0 0 .055-1.169.96.67-122.2 0 0-1.078-.455zm17.065 5.148a.82.56-124.7 0 0 .006.993.82.56-124.7 0 0 .927.355.82.56-124.7 0 0-.006-.993.82.56-124.7 0 0-.927-.355zm-1.376 26.538a1 .82-122.2 0 0-.161 1.283 1 .82-122.2 0 0 1.227.409 1 .82-122.2 0 0 .161-1.283 1 .82-122.2 0 0-1.227-.409zM107.27 256.85l2.59 1.37a.25.24 21.1 0 0 .36-.15q.02-.1-.06-.32a.48.47 63.9 0 1 .18-.54l5.06-3.54a1.48 1.47 81.3 0 0 .57-.78q-.01-.18.2-.5a1.56 1.55-82.4 0 1 .82-.63q2.38-.76 4.24-2.2.96-.45 1.13-1.21a1.02.02-77.6 0 1 .23-.97q.2-.15.63-.59a.35.35 0 0 0-.11-.56q-.72-.33-.97.13-.4.74-.79.77a.27.27 0 0 1-.16-.5l3.04-1.87a.14.14 0 0 0 .05-.2l-.17-.28a.19.19 0 0 0-.26-.06l-1.88 1.16a1.45 1.43 30.8 0 1-.85.21c-2.8-.14-5.57 1.95-8.19 2.97q-4.62 1.8-11.63 4.74a.82.81-47 0 0 .05 1.52l5.92 2.03z" class="C"/><path d="M253.02 147.6l.71 10.98-.45-1.72a.31.31 0 0 0-.56-.08q-1.52 2.38-4.29 2.32a.81.8 14.3 0 1-.7-1.17l1.05-2.05a1.67 1.64 53.3 0 0 .15-1.1q-.28-1.36.72-1.86c1.51-.75 2.32-1.49 2.72-3.42q.21-.96.65-1.9z" class="B"/><ellipse cx="0" cy="0" transform="matrix(-.320613 -.94721 .94721 -.320613 77.6 149.72)" rx=".87" ry=".72" class="F"/><path d="M138.3 171.97c-3.07 4.47 6.21 10.03 9.04 11.82a.27.26 31.8 0 1 .09.35l-.01.01a.28.27 30.8 0 1-.38.09q-7.79-4.5-11.82-11.54-.41-.74-1.49-.42-.75.22-.85.89a.76.75 83.6 0 1-.45.57q-2.82 1.21-5.36-.17-3.42-1.85-6.84-5.24c-2.94-5.66-7.31-10.54-10.62-15.86a1.08 1.08 0 0 1 .67-1.62l6.26-1.42a1.41 1.4-8.4 0 1 1.72 1.27c.35 5.2 5.88 12.97 11.34 13.5a.58.58 0 0 1 .51.44l.09.4a.09.09 0 0 0 .17-.02l.01-.57a.39.38 28.2 0 0-.07-.22c-2.31-3.17-5.19-7.16-5.23-10.35a.66.66 0 0 1 1.2-.39q4.25 6.07 7.94 13.5.95 1.9 4.08 4.98zm-19.16-9.2l2.14 4.08a.61.55 8.5 0 0 .18.22l3.63 2.91a.28.28 0 0 0 .44-.3c-.95-2.77-2.35-6.66-4.6-8.93a.32.31 20.7 0 0-.54.24q.01.06.02.12a.39.39 0 0 1-.56.41l-.24-.13a.39.38-60.6 0 0-.51.15l-.14.25-2.87-3.29q1.62.72 2.18-.16.42-.66.31-2.07.36 1.21 1.06 2.07a.01.01 0 0 0 .02-.01q-1.85-4.99-7.09-5.91a.28.27-7.4 0 0-.3.38q2.51 5.58 6.87 9.97z" class="G"/><path d="M118.58 156.27l-5.14-3.05a.22.22 0 0 0-.3.3l2.95 4.98 2.87 3.29.18.98q-4.36-4.39-6.87-9.97a.28.27-7.4 0 1 .3-.38q5.24.92 7.09 5.91a.01.01 0 0 1-.02.01q-.7-.86-1.06-2.07z" class="D"/><path d="M118.58 156.27q.11 1.41-.31 2.07-.56.88-2.18.16l-2.95-4.98a.22.22 0 0 1 .3-.3l5.14 3.05z" class="B"/><ellipse cx="0" cy="0" transform="matrix(-.692143 -.72176 .72176 -.692143 269.49 155.36)" rx="1.78" ry=".74" class="C"/><path d="M140.09 159.59q1.27 3.35 1.3 6.79a.46.46 0 0 1-.47.46q-.08 0-.21-.08a.27.27 0 0 0-.41.23q.02.62.47.66a.34.33-51.4 0 1 .07.65q-.47.16-.84.06-.31-.09-.33-.74-.07-2.8-1.36-5.35-1.23-3.14-.71-6.2a.74.74 0 0 1 1.44-.08l1.05 3.6zm-34.1-1.62l-.25 1.12q-.65-.26-1.11-.67a.31.31 0 0 1 .15-.53q.49-.09 1.21.08z" class="B"/><path d="M110.01 160.05l4.83 4.5a.18.11 42.3 0 1 .06.2q-.02.03-.02.06a.04.03 24.2 0 1-.06.02q-5.26-4.97-2.37-1.72l6.53 6.81a.38.38 0 0 1-.29.64c-5.56-.26-9.47-3.45-12.39-7.69q-.98-1.42-.56-3.78l.25-1.12q2.06.51 4.02 2.08z" class="G"/><path d="M253.45 158.81q-.04 5-.18 10.11-.03.83-.49 1.65.26-.69.26-1.31a.38.37-26 0 0-.67-.23l-1.72 2.14a.81.81 0 0 1-1.03.19l-.22-.13a.68.68 0 0 1-.11-1.03q2.97-3.07 3.84-5.68a.5.5 0 0 0-.86-.47l-4.55 5.67a.95.95 0 0 1-.68.36l-2.83.21a.57.56-81.7 0 1-.57-.77q.65-1.73-1.43-2.51a1.37 1.35-43.3 0 0-.85-.02q-2.14.69-3.61 2.05a3.55 3.52 10.6 0 1-.87.59q-2.99 1.44-.99 1.17l-3.54.15 9.96-7.19a1.49 1.36 19.4 0 1 .59-.25q2.62-.48 2.89-3.14a.3.3 0 0 1 .4-.25l3.6 1.22a.89.89 0 0 0 .73-.07q1.73-1 2.93-2.46zm-134.31 3.96l-.18-.98.14-.25a.39.38-60.6 0 1 .51-.15l.24.13a.39.39 0 0 0 .56-.41q-.01-.06-.02-.12a.32.31 20.7 0 1 .54-.24c2.25 2.27 3.65 6.16 4.6 8.93a.28.28 0 0 1-.44.3l-3.63-2.91a.61.55 8.5 0 1-.18-.22l-2.14-4.08zm108.54 7.54q-.46-3.11 2.44-4.16 6.19-2.24 11.91-5.7a.93.92 51.7 0 1 1.14.14l.21.2a.41.41 0 0 1-.1.66c-2.62 1.38-4.65 5.53-9.06 4.57a.85.84-61 0 0-.78.23l-4.48 4.48a.76.75-26.8 0 1-1.28-.42z" class="B"/><path d="M322.86 163.86a.17.17 0 0 1 .23.04l.05.06a1.69 1.35-35.5 0 1-.59 2.09l-.33.23a1.69 1.35-35.5 0 1-2.16-.12l-.04-.07a.17.17 0 0 1 .04-.23l2.8-2z" class="D"/><path d="M79.48 165.15l-1.01.05q-.1-.36 1.01-.05z" class="B"/><path d="M110.65 177.19l-1.52-2.21a.83.83 0 0 0-1.51.43q-.07 1.29.35 2.68a1.04 1.03 87.1 0 0 .79.72q1.31.25 2.29-.61l1.28.91a.49.49 0 0 1 .06.74l-1.57 1.57a.36.35-54.2 0 0 .09.57q.41.2 1.06.97.26.3-.55 1.18-1.67 1.82-.98 4.33.8 2.94 1.64 6.1c-1.18-3.64-3.57-5.8-5.7-8.4a.32.31 18.8 0 0-.55.27l1.27 5.57a.3.3 0 0 1-.32.36q-.48-.04-.4.32a.2.18 88.9 0 0 .12.13l5.58 1.75c-7.52 7.45-8.96 15.91-8.27 25.95l-18.12-6.42a.6.6 0 0 1-.04-1.11l10-4.37a.271.271 0 0 0-.15-.52q-4.84.68-9.07 2.1-1.67.55-2.77 2.03a1.53 1.53 0 0 1-1.72.53l-10.2-3.46a2.88 2.83-46.3 0 0-1.99.06q-5.72 2.33-19.22 7.25-3.44 1.25-9.35 3.65-6.93 2.81-9.49 3.24-4.03.68-6.05 2.73l-12.91-4.94a.56.56 0 0 1 .03-1.05l16.54-5.38 31.56-11.05 24.8-8.36a1.42 1.4-43.6 0 1 .95.02c1.56.6 3.85 1.36 5.05-.11a2.14 2.08-83.2 0 1 .73-.59q1.01-.48 6.1-1.51 1.39-.28 2.27-1.73a.62.62 0 0 1 .82-.23q1.82.94 4.24.97a.52.52 0 0 0 .53-.53q-.12-4.47-2.4-7.24a2.42 2.42 0 0 1-.46-.92q-.33-1.37-.74-2.21c-1.95-3.98-.01-9.43 1.46-13.96a.62.61 13.5 0 1 .69-.42q5.5.89 7.71 5.86 1.56 3.5-1.96 4.34zm31.08-11.32l3.06 7.41a.11.11 0 0 1-.17.13l-2.72-2.19a.96.94-70.3 0 1-.35-.76l.12-4.57a.032.032 0 0 1 .06-.02zm-65.49.01l.36.94a.58.57-16.9 0 1-.41.76l-.38.09a1.35 1.35 0 0 0-.66.35q-4.28 4.02-11.14 5.51l12.23-7.65z" class="E"/><path d="M398.65 166.18a.02.01 21.3 0 1 .03-.01l6.44 6.73a.64.64 0 0 1-.13.99q-1.47.92-2.51 2.33a.66.66 0 0 1-1 .07l-6.09-6.09a.57.56-30.7 0 1 .24-.94q3.09-.89 3.02-3.08zm1.17 7.87q1.93 1.13 3.4-1.23a.71.71 0 0 0-.1-.88l-3.11-3.11a.65.65 0 0 0-.81-.09q-1.37.87-1.71 1.82a1.09 1.05 85.7 0 0 1.49 1.33q.34-.19.86-.64a.48.48 0 0 1 .66.02l.27.27a.47.46 48.8 0 1-.04.7q-.68.54-1.07 1.14a.48.48 0 0 0 .16.67z" class="F"/><path d="M399.66 173.38q.39-.6 1.07-1.14a.47.46 48.8 0 0 .04-.7l-.27-.27a.48.48 0 0 0-.66-.02q-.52.45-.86.64a1.09 1.05 85.7 0 1-1.49-1.33q.34-.95 1.71-1.82a.65.65 0 0 1 .81.09l3.11 3.11a.71.71 0 0 1 .1.88q-1.47 2.36-3.4 1.23a.48.48 0 0 1-.16-.67z" class="B"/><path d="M119.56 170.15q.05 1.06-.5 1.59-1.68 1.61-4.89 3.56a.12.12 0 0 1-.19-.12l.38-3.11a.5.5 0 0 1 .18-.31q1.84-1.44 3.6-.68a.56.55-62.9 0 0 .69-.23l.44-.77a.16.15 58.3 0 1 .29.07zm-55.37 9.2l-21.28 13.89q-6.41 3.8-12.84 8.12c-2.9 1.95-5.68 4.83-7.61 6.36a4.07 3.77 10.3 0 1-.91.58l-6.67 3.16a.19.19 0 0 1-.26-.08l-.01-.01a.22.22 0 0 1 .09-.29q3.45-1.92 6.72-4.32.77-.56.87-1.26.02-.16-.91-.15l5.15-3.82 45.3-28.78.73.53a.21.2-55.1 0 1 .04.27q-.13.19-.14.24a.11.11 0 0 0 .17.13l5.1-3.33a.19.19 0 0 1 .27.06l.15.25a.02.01-31.7 0 1-.01.02l-13.95 8.43z" class="G"/><path d="M232.35 170.95l3.54-.15q9.93-.37 18.29 3.4c3.06 1.37 2.55 4.58-.43 5.44q-14.68 4.21-28.72-1.63-1.17-.48-2.13-2.22a1.14 1.1-47.5 0 1-.03-1.01q.69-1.49 2.14-2.01 3.77-1.37 7.34-1.82z" class="D"/><path d="M122.29 171.81a.47.47 0 0 1 .83-.23l4.55 5.7a.34.33 51.5 0 1-.05.48l-.42.34a.28.27 58 0 1-.42-.1q-.95-2.07-2.25-3.38a1.01 1.01 0 0 0-1.59.2l-.53.93a.31.31 0 0 1-.58-.2l.46-3.74z" class="E"/><path d="M430.607 172.116a3.19 1.47-132.7 0 1 3.244 1.347 3.19 1.47-132.7 0 1 1.083 3.341 3.19 1.47-132.7 0 1-3.244-1.347 3.19 1.47-132.7 0 1-1.083-3.341zm1.3 1.5a1.13.57-134.6 0 0 .387 1.205 1.13.57-134.6 0 0 1.199.404 1.13.57-134.6 0 0-.387-1.205 1.13.57-134.6 0 0-1.199-.404z" class="C"/><path d="M286.95 173.77q1.52 1.24.52 2.08-1.3.07-2.19-1.44a.79.79 0 0 1 .74-1.18q.51.04.93.54z" class="B"/><path d="M75.21 178.9q-5.34 2.78-6.52 9.07a.31.3-12.6 0 0 .48.3q.7-.5 1.06-1.68 2.22-1.84 1.07 1.48-.45 1.32-3.05 3.21a.29.28 50.5 0 0-.04.43l.29.29a.35.35 0 0 0 .5 0l8.04-8.04a.36.36 0 0 1 .56.43q-3.26 5.7-8.05 10.17a3.52 3.02 4.4 0 1-.6.44q-5.46 3.06-8.09 8.81L29.3 214.86q-1.07-1.54 4.54-5.44a.07.05-34.7 0 0 .03-.08q-.01-.02-.03-.04a.2.14-37.1 0 0-.21.01q-4.88 3.25-10.93 4.89a.23.23 0 0 1-.27-.14l-.01-.02a.25.24 68.4 0 1 .13-.31q14.39-6.54 16.95-7.7 3.45-1.57 4.39-2.42 5.31-4.75 11.2-8.11a.33.33 0 0 0-.03-.58q-.43-.19-.02-.79 2.2-3.17 5.63-6.52a.52.52 0 0 0-.63-.81c-4.85 3.02-8.35 5.56-13.99 6.59a.24.24 0 0 1-.18-.44l9.45-6.32q.03-.01.09-.03.03-.02.04-.04a.09.07-16.3 0 0-.14-.05q-1.49.97-7.01 4.83-2.08 1.45-5.39 1.9l21.28-13.89q7.93-1.65 14.62-5.91a.67.66 67.5 0 1 1 .42l.38 1.67a.8.79-13.1 0 1-.6.95l-5.77 1.32a.69.69 0 0 0-.42.26l-.19.23a.18.18 0 0 0 .2.28q.97-.35 1.8.33z" class="F"/><ellipse cx="0" cy="0" transform="matrix(-.702153 -.712026 .712026 -.702153 432.7 174.42)" rx="1.13" ry=".57" class="B"/><path d="M110.65 177.19l.4 1.01q-.98.86-2.29.61a1.04 1.03 87.1 0 1-.79-.72q-.42-1.39-.35-2.68a.83.83 0 0 1 1.51-.43l1.52 2.21z" class="G"/><path d="M373.9 174.67q.57.54-1.58 2.76a.46.45-63.9 0 1-.38.13q-.32-.04-.57-.28-.24-.24-.3-.56a.46.45-27.8 0 1 .12-.38q2.15-2.22 2.71-1.67z" class="F"/><path d="M215.51 175.31q-1.39 1.55-2.67 2.13a1.14 1.11-47.6 0 1-.83.05l-3.25-1.04q2.72-1.7 6.75-1.14z" class="D"/><rect x="-3.21" y="-.69" transform="matrix(.760406 -.649448 .649448 .760406 375.1 177.56)" width="6.42" height="1.38" rx=".63" class="F"/><ellipse cx="0" cy="0" transform="matrix(-.359997 -.932954 .932954 -.359997 118.28 178.59)" rx=".7" ry=".38" class="B"/><path d="M425.83 176.79q-.01.03-.73 1a.47.47 0 0 1-.84-.38q.1-.46.91-1.03a.42.42 0 0 1 .66.41z" class="F"/><path d="M70.23 186.59q-.36 1.18-1.06 1.68a.31.3-12.6 0 1-.48-.3q1.18-6.29 6.52-9.07 1.77-.49 3.27-1.48a.25.25 0 0 1 .39.15l.11.5a.61.59-24.5 0 1-.25.64q-4.89 3.34-8.5 7.88z" class="G"/><path d="M247.76 193.26q-3.34-.44-5.15-3.04a.33.33 0 0 0-.54-.01l-2.51 3.5a.4.39-67.8 0 1-.37.16q-.45-.06-.66-.22a.31.3-36.8 0 1 .08-.52q.99-.41.99-1.14-.01-1.08.03-6.85-.15 2.26-.5 7.24a.53.53 0 0 1-.93.3l-.42-.49a.56.56 0 0 0-.48-.19l-4.77.51a.58.58 0 0 1-.65-.54l-.68-9.42 12.25 1.08a3.33 3.28 41.6 0 0 .99-.05q1.59-.3 4.53-.65 4.63-.55 8.2-2.71a.19.19 0 0 1 .28.22l-3.36 9.39a1.52 1.5-10.3 0 1-.47.67q-2.68 2.21-5.86 2.76zM8.32 208.11l-1.92-.82a1.03 1.03 0 0 0-.72-.05q-1.08.32-1.84-.53-1.64-1.86-3.84-2.52v-3.58q.43.01.86.42a1.23 1.23 0 0 0 1.35.22q.25-.11.36.06a1.05 1.04-31.9 0 0 1.43.33l33.63-20.65a2.66 2.65 38.6 0 1 2.24-.25l2.47.84a.53.52-53.9 0 1 .14.92l-5.42 4.04a3.55 3.55 0 0 1-1.4.63c-2.12.45-5.84-.55-7.38 1.27a.55.55 0 0 0 .54.89l2.8-.64a.52.52 0 0 1 .39.95l-6.48 3.98a2.66 2.57 26.4 0 1-1.23.39q-4.82.31-5.99.76a.5.5 0 0 0 .08.96q.15.03.15.05a1.17 1.16-21.5 0 1-.73 1.67l-5.46 1.46a.84.83 52.5 0 0-.2 1.53l1.63.95a.59.59 0 0 1-.09 1.06q-1.89.73-3.73 1.29c-2.09.62-2.04 2.58-1.64 4.37zm423.52-27.68q1.37 0 2.6.6a.83.82 54.3 0 1-.25 1.56q-1.63.2-3.29-.62a.47.36 4 0 1-.18-.16q-.39-.6.24-1.29.37-.11.88-.09zm-382.48 4.84q-1.94-.09-1.34 1.28-11.64 6.27-21.49 14.98l-5.15 3.82-11.81 7.18-3.06-1.73a.47.46 63 0 1 .28-.87l1.02.13a.87.83 29.6 0 0 .56-.14q.59-.41.61-1.16 2.89-1.23 5.63-2.87 15.03-8.97 31.22-19.97a4.11 3.8-82.8 0 0 .63-.53q1.53-1.52 3.71-2.97a2.24 2.21 37.7 0 1 1.97-.24l.1.04a.66.61 37.2 0 1 .2 1.12l-3.08 1.93z" class="C"/><path d="M231.2 182.55l.68 9.42a.58.58 0 0 0 .65.54l4.77-.51a.56.56 0 0 1 .48.19l.42.49a.53.53 0 0 0 .93-.3q.35-4.98.5-7.24-.04 5.77-.03 6.85 0 .73-.99 1.14a.31.3-36.8 0 0-.08.52q.21.16.66.22a.4.39-67.8 0 0 .37-.16l2.51-3.5a.33.33 0 0 1 .54.01q1.81 2.6 5.15 3.04-3.21 1.06-6.51.6a.31.31 0 0 0-.24.09q-.2.22-.09.44a.13.12-9.7 0 0 .12.08l3.39.11q-2.05.54-3.33.22c-.89-.22-1.85.28-2.33.03q-2.64-1.36-5.83-1.69-2.27-.47-1.48-1.4l-.76-9.41q-.13.13.5.22z" class="B"/><path d="M426.98 182.86l5.25 1.68a.36.36 0 0 1 .07.65l-1.36.84a.88.86-50.9 0 1-.71.08l-1.85-.63a1.56 1.52 48.7 0 0-.77-.06q-1.75.33-3.4-.28.19-.69 1.13-.85a1.33 1.3-74 0 0 .77-.44l.87-.99z" class="E"/><path d="M44.88 184.68q-.34.21-.48.23a.2.19 9.9 0 1-.2-.28q.06-.14.36-.29a.262.202 8.7 0 1 .32.34zm305.857.39a3.87 1.94-134.3 0 1 4.091 1.415 3.87 1.94-134.3 0 1 1.315 4.125 3.87 1.94-134.3 0 1-4.091-1.415 3.87 1.94-134.3 0 1-1.315-4.125zm1.79 1.585a1.48.71-128.1 0 0 .355 1.603 1.48.71-128.1 0 0 1.472.727 1.48.71-128.1 0 0-.355-1.603 1.48.71-128.1 0 0-1.472-.727z" class="C"/><path d="M29.3 214.86l-16.54 5.38a.56.56 0 0 0-.03 1.05l12.91 4.94.4.29q.22.39.75.64L25 230.01l-5.81-2.3a7.36 7.29 55.7 0 0-2.63-.51l-5.17-.04a2.7 2.68-16.6 0 1-2.22-1.19l-4.24-6.34q1.82-2.01 3.63-2.01.01 0 .02.01h-.75a.08.07-14.9 0 0-.07.11l3.4 5.54a.24.24 0 0 0 .44-.17l-2.03-10.58 11.81-7.18q.93-.01.91.15-.1.7-.87 1.26-3.27 2.4-6.72 4.32a.22.22 0 0 0-.09.29l.01.01a.19.19 0 0 0 .26.08l6.67-3.16a4.07 3.77 10.3 0 0 .91-.58c1.93-1.53 4.71-4.41 7.61-6.36q6.43-4.32 12.84-8.12 3.31-.45 5.39-1.9 5.52-3.86 7.01-4.83a.09.07-16.3 0 1 .14.05q-.01.02-.04.04-.06.02-.09.03l-9.45 6.32a.24.24 0 0 0 .18.44c5.64-1.03 9.14-3.57 13.99-6.59a.52.52 0 0 1 .63.81q-3.43 3.35-5.63 6.52-.41.6.02.79a.33.33 0 0 1 .03.58q-5.89 3.36-11.2 8.11-.94.85-4.39 2.42-2.56 1.16-16.95 7.7a.25.24 68.4 0 0-.13.31l.01.02a.23.23 0 0 0 .27.14q6.05-1.64 10.93-4.89a.2.14-37.1 0 1 .21-.01q.02.02.03.04a.07.05-34.7 0 1-.03.08q-5.61 3.9-4.54 5.44z" class="D"/><path d="M49.36 185.27q-1.43.79-1.34 1.28-.6-1.37 1.34-1.28z" class="B"/><path d="M112.08 194.57l-5.58-1.75a.2.18 88.9 0 1-.12-.13q-.08-.36.4-.32a.3.3 0 0 0 .32-.36l-1.27-5.57a.32.31 18.8 0 1 .55-.27c2.13 2.6 4.52 4.76 5.7 8.4z" class="C"/><ellipse cx="0" cy="0" transform="matrix(-.617036 -.786935 .786935 -.617036 353.44 187.82)" rx="1.48" ry=".71" class="B"/><path d="M347.237 187.955a3.84 1.96-133.3 0 1 4.06 1.45 3.84 1.96-133.3 0 1 1.207 4.139 3.84 1.96-133.3 0 1-4.06-1.45 3.84 1.96-133.3 0 1-1.207-4.139zm1.492 1.654a1.6.66-133.5 0 0 .623 1.615 1.6.66-133.5 0 0 1.58.706 1.6.66-133.5 0 0-.623-1.615 1.6.66-133.5 0 0-1.58-.706zM324.23 223.52q-5.42-.36-9.19-1.03-1.32-.23-2.43-1-4.87-3.35-5.93-9.64-.21-1.3-1.14-1.4.24-.99-.32-1.85a1.27 1.25 38 0 1-.14-1.08l.15-.43a1.45 1.39 52.7 0 0 .07-.6q-.56-5.68 1.7-11.01l3.29-2.94 6.55-3.97a.14.14 0 0 1 .17.22q-2.16 2.3-2.85 5.54-2.73 12.96 4.08 23.91 1.81 2.9 5.99 5.28z" class="C"/><path d="M330.09 194.46l.8-.44 3.09 7.15a.76.76 0 0 0 1.17.29l.85-.68a.35.35 0 0 1 .54.43q-1.73 3.5-1.71 4.51.09 4.4.42 8.17a.81.81 0 0 1-.4.78q-.49.3-.99 1.36-2.92 6.18-8.8 5.17-2.01-.34-3.24-1.82c-5.37-6.41-6.46-14.33-5.9-22.62q.21-3.04 1.98-5.65c3.68-5.42 8.71-.72 11.42 3.06q.12.17.34.23.2.06.43.06z" class="D"/><path d="M348.82 198.97q.07-.19.16-.46.07-.18-.12-.52-1.26-2.33-3.5-3.89a.7.7 0 0 1-.14-.14l-3.28-3.92a.42.41 51.2 0 1 .06-.59l.2-.17a.19.19 0 0 1 .26.02c3.42 3.79 5.24 6.13 8.67 9.58 2.44 2.46 3.84 5.35 7.03 7.13a.78.78 0 0 0 .88-.09l3.08-2.68a.49.49 0 0 1 .81.34v.28a1.4 1.4 0 0 1-.52 1.09l-3.38 2.7a.52.51-56 0 0 .17.9q.47.14.55.26a.59.59 0 0 1-.37.88l-1.95.49a.28.28 0 0 1-.26-.47c2.58-2.54-1.29-4.1-2.35-5.43a.4.39-12.2 0 0-.24-.15q-.5-.1-.98.58a.14.13-72.6 0 1-.11.06q-.2-.01-.32-.1a.17.16-53.1 0 1-.03-.24q.87-1.1.03-2.04c-1.2-1.32-1.9-2.89-3.91-2.82a.45.45 0 0 1-.44-.6z" class="F"/><ellipse cx="0" cy="0" transform="matrix(-.688355 -.725374 .725374 -.688355 349.83 190.77)" rx="1.6" ry=".66" class="B"/><path d="M239.72 200.01l-11.69-2.92c-1.74-1.12-3.59-.35-5.44-1.73a.47.39-16.3 0 0-.16-.07l-5.27-1.19a.64.64 0 0 1-.2-1.17l3.2-1.96a.68.68 0 0 1 .95.25q.26.46.23 1.03a.89.88-76.2 0 0 .5.83q9.43 4.58 19.94 4.7a.34.34 0 0 1 .19.61l-2.25 1.62z" class="E"/><path d="M356.555 191.409a3.88 1.95-134 0 1 4.098 1.436 3.88 1.95-134 0 1 1.293 4.146 3.88 1.95-134 0 1-4.098-1.436 3.88 1.95-134 0 1-1.293-4.146zm1.626 1.579a1.6.62-132.9 0 0 .635 1.594 1.6.62-132.9 0 0 1.543.75 1.6.62-132.9 0 0-.635-1.594 1.6.62-132.9 0 0-1.543-.75z" class="C"/><path d="M310.29 192.54l-3.29 2.94 1.06-3.01q.35-.89 2.23.07z" class="D"/><path d="M308.06 192.47l-1.06 3.01q-2.26 5.33-1.7 11.01a1.45 1.39 52.7 0 1-.07.6l-.15.43a1.27 1.25 38 0 0 .14 1.08q.56.86.32 1.85l-1.39 1.1a.5.5 0 0 1-.78-.55l.42-1.23a1.22 1.18-47.7 0 0-.03-.86q-.73-1.67-1.53-4.23-.43-1.39-.35-1.92.28-1.98.34-2.34a.49.49 0 0 0-.88-.37q-.7.95-1.65 1.61-.61.42-.63.85 0 .16.07.57a1 1 0 0 1-.5 1.03q-.14.08-.23.13a.37.37 0 0 0 .19.7l1.05-.03a.98.98 0 0 1 .42 1.88l-7.94 3.47a.76.76 0 0 1-.68-.04l-.26-.15a.49.49 0 0 1-.06-.81l1-.8a.44.44 0 0 0-.21-.78q-.62-.1-1.78.45.06-2.4-2.62-2.28-1.28.05-3.6.22a2.22 2.17-62.8 0 0-1.02.34q-1.2.75-3.39.42a1.71 1.7-57.7 0 0-1.18.27q-2.17 1.44-4.38 1.46-2.02-.79-4.35.03c-1.77.63-2.88.63-4.6.65q-.92 0-1.1 1.66-.79.74-1.6.33l-.53-.73a.51.51 0 0 0-.86.06q-.19.35-.19 1.02-.43.4-.89.26-.73-.41-.97-.91-.32-.63.38-1.03 1.29-.73 2.47-.67a.45.42-46.8 0 0 .16-.01l11.21-2.56a1.37 1.37 0 0 0 .13-2.63l-6.29-2.13a.52.51 42.7 0 1-.04-.96l.62-.27a1.92 1.9 44.4 0 1 1.51-.01q2.82 1.19 5.82 1a.34.34 0 0 0 .14-.63q-.85-.46-1.11-1.09a.58.57 71.7 0 1 .39-.78l7.62-1.94a1.72 1.69 22.4 0 0 .47-.19l3.25-1.83a2.15 2.08 29.5 0 1 1.04-.27q8.88.02 17.3-2.59l4.14.13z" class="E"/><ellipse cx="0" cy="0" transform="matrix(-.680721 -.732543 .732543 -.680721 359.27 194.16)" rx="1.6" ry=".62" class="B"/><path d="M232.94 193.14q3.19.33 5.83 1.69c.48.25 1.44-.25 2.33-.03q1.28.32 3.33-.22 3.36 1.52 2.63 7.66a1.3 1.3 0 0 0 .33 1.03q.66.73.59 1.44a.39.39 0 0 1-.63.27l-1.88-1.52a.85.84-70.7 0 1-.33-.69l.07-4.39a1.03.89-59.2 0 0-.06-.34q-1.02-3.02-4.32-1.33a1.28 1.24-48.9 0 1-.94.08q-1.67-.5-3.35-.28c-1.65.22-3.61-1.06-5.4-1.47a.57.57 0 0 1-.26-.98q.88-.8 2.06-.92z" class="G"/><path d="M353.186 194.396a3.87 2.04-132.7 0 1 4.124 1.461 3.87 2.04-132.7 0 1 1.125 4.228 3.87 2.04-132.7 0 1-4.124-1.461 3.87 2.04-132.7 0 1-1.125-4.227zm1.58 1.649a1.48.74-131.7 0 0 .432 1.597 1.48.74-131.7 0 0 1.537.613 1.48.74-131.7 0 0-.432-1.597 1.48.74-131.7 0 0-1.537-.613z" class="C"/><ellipse cx="0" cy="0" transform="matrix(-.66523 -.746638 .746638 -.66523 355.75 197.15)" rx="1.48" ry=".74" class="B"/><path d="M239.72 200.01l-1.11 9.27a1.03 1.03 0 0 1-.48.75l-.35.22a.47.47 0 0 0-.01.8q.52.34.89.27a.36.36 0 0 1 .43.42q-.36 1.65-1.53 1.84a.53.48-47.2 0 0-.01 1q.84-.01.84.82-.01 2.36-.52 5.54a.43.42-71.6 0 1-.61.31l-.61-.32.82-9.62a1.82 1.81-78.1 0 0-1.21-1.87l-6.57-2.27.54-.14a.4.4 0 0 0 .1-.74l-1.08-.62a.41.41 0 0 1 .16-.76q1.48-.18 3.26.42a.32.32 0 0 0 .3-.56c-1.25-.96-2.72-.59-3.83-1.84q-1.93-2.17-1.11-5.84l11.69 2.92zm-5.127 2.226a2.3.51-151.3 0 0 1.773 1.552 2.3.51-151.3 0 0 2.262.657 2.3.51-151.3 0 0-1.773-1.552 2.3.51-151.3 0 0-2.262-.657z" class="G"/><path d="M0 198.84v-1.06q1.3-.83 2.49.23a.35.35 0 0 1-.1.58q-1.07.43-2.39.25z" class="C"/><path d="M428.42 203.38a.17.17 0 0 1-.22.17l-2.87-.97a.43.42 18.9 0 1-.27-.53l1.11-3.27a1.04 1.03 52.8 0 1 2.01.28l.24 4.32zm-14.63-3.45a.2.2 0 0 1-.18-.22v-.09a1.56 1.47 5.2 0 1 1.69-1.32l.34.03a1.56 1.47 5.2 0 1 1.42 1.6l-.01.09a.2.2 0 0 1-.22.19l-3.04-.28zm-147.61.77q-.03.73-.1.75a.52.52 0 0 1-.47-.87l.52-.54a.22.22 0 0 1 .37.2q-.27 1.35-.87 1.81-2.47 1.91-4.08 4.44a.52.52 0 0 1-.76.13l-.24-.2a.33.33 0 0 1-.1-.39q1.41-3.4 4.77-5.85a.61.6 73.3 0 1 .96.52z" class="E"/><ellipse cx="0" cy="0" transform="matrix(-.877146 -.480223 .480223 -.877146 236.61 203.34)" rx="2.3" ry=".51" class="D"/><path d="M8.32 208.11q.32.12.66.65-.02.75-.61 1.16a.87.83 29.6 0 1-.56.14l-1.02-.13a.47.46 63 0 0-.28.87l3.06 1.73 2.03 10.58a.24.24 0 0 1-.44.17l-3.4-5.54a.08.07-14.9 0 1 .07-.11h.75q-.01-.01-.02-.01-1.81 0-3.63 2.01L0 209.86v-5.67q2.2.66 3.84 2.52.76.85 1.84.53a1.03 1.03 0 0 1 .72.05l1.92.82z" class="B"/><path d="M406.67 209.56c1.3-3.58 8.07-4.68 11.25-4.87a.7.7 0 0 1 .29 1.36l-10.98 4.07a.44.44 0 0 1-.56-.56z" class="E"/><path d="M290.13 208.13q2.08 7.63 5.23 15.22.29.7.45.74.41.08.76.14a.46.45-69.4 0 1 .31.69q-.03.04-.22.31a.46.46 0 0 0-.04.44l.83 1.9a1.39 1.39 0 0 1-1.21 1.95q-5.44.26-8.73 1.62a2.78 2.64-55.5 0 1-.99.21c-1.85.01-3.67.88-5.73 1.09q-2.82.29-9.77 1.86a.88.87 62.6 0 1-.86-.28c-1.21-1.37-1.36-2.95-2.11-4.86q-3.33-8.46-5.33-13.93-.33-.9-1.2-1.25-1.19-.48-1.7-2.14.46.14.89-.26 1.6 1.5 1.58-.35.81.41 1.6-.33 5.11-.45 10.05-2.34 2.21-.02 4.38-1.46a1.71 1.7-57.7 0 1 1.18-.27q2.19.33 3.39-.42a2.22 2.17-62.8 0 1 1.02-.34q2.32-.17 3.6-.22 2.68-.12 2.62 2.28zm-3.855-.149a1.05.81-133.7 0 0 .14 1.319 1.05.81-133.7 0 0 1.311.2 1.05.81-133.7 0 0-.14-1.319 1.05.81-133.7 0 0-1.311-.2zm-22.749 5.041a.86.67-139.5 0 0 .219 1.068.86.67-139.5 0 0 1.089.049.86.67-139.5 0 0-.219-1.068.86.67-139.5 0 0-1.089-.049zm30.082 13.641a.98.84-129.4 0 0-.027 1.291.98.84-129.4 0 0 1.271.224.98.84-129.4 0 0 .027-1.291.98.84-129.4 0 0-1.271-.224zm-22.606 4.173a.93.72-110 0 0-.358 1.12.93.72-110 0 0 .995.628.93.72-110 0 0 .358-1.12.93.72-110 0 0-.995-.628z" class="C"/><ellipse cx="0" cy="0" transform="matrix(-.532876 -.846193 .846193 -.532876 217.5 207.17)" rx=".96" ry=".67" class="F"/><ellipse cx="0" cy="0" transform="matrix(-.690882 -.722967 .722967 -.690882 287 208.74)" rx="1.05" ry=".81" class="B"/><path d="M103.81 220.52l11.15 3.22a.24.24 0 0 1 .17.18l.1.43a.25.25 0 0 1-.31.3q-5.26-1.27-7.4-1.99-17.78-6.03-35.59-12.23a3.43 3.36-44.9 0 0-2.29.02l-43.6 16.07-.4-.29q2.02-2.05 6.05-2.73 2.56-.43 9.49-3.24 5.91-2.4 9.35-3.65 13.5-4.92 19.22-7.25a2.88 2.83-46.3 0 1 1.99-.06l10.2 3.46a1.53 1.53 0 0 0 1.72-.53q1.1-1.48 2.77-2.03 4.23-1.42 9.07-2.1a.271.271 0 0 1 .15.52l-10 4.37a.6.6 0 0 0 .04 1.11l18.12 6.42zm192.95-10.07q.58-.86 2.71-2.16a.41.41 0 0 1 .62.37l-.04.64a.81.78-10.8 0 1-.47.67l-2.37 1.03a.37.37 0 0 1-.45-.55z" class="G"/><path d="M273.94 208.56q-4.94 1.89-10.05 2.34.18-1.66 1.1-1.66c1.72-.02 2.83-.02 4.6-.65q2.33-.82 4.35-.03z" class="D"/><path d="M441.04 209.72l-.73 1.08q-.43-.61.73-1.08z" class="B"/><path d="M262.29 211.23q.02 1.85-1.58.35 0-.67.19-1.02a.51.51 0 0 1 .86-.06l.53.73z" class="D"/><path d="M414.19 211.92l2.22-.82a.52.52 0 0 1 .69.57q-.13.96-.82 3a3.16 2.47 14.4 0 1-3.47 1.52q-1.61-.35-3.06.61a.65.65 0 0 1-.97-.31l-.03-.07a.83.83 0 0 1 .42-1.06q2.94-1.38 4.73-3.24a.7.67-78.3 0 1 .29-.2z" class="E"/><ellipse cx="0" cy="0" transform="matrix(-.56928 -.822144 .822144 -.56928 234.52 212.18)" rx=".82" ry=".56" class="B"/><path d="M245.76 253.44q.64.31.87.17a.03.02 8.6 0 1 .03.04q-2.33 1.88-6.63 2.65a2.63 2.51-41.6 0 1-1.1-.04q-2.85-.76-7.43-.81-2.89-.03-4.76-2.41-1.68-2.15-6.37-3.78a2.52 2.5-1.6 0 1-1.48-1.39l-.02-.06a.61.61 0 0 1 .68-.84q5.43 1.11 6.7 1.68a.62.46 53.3 0 0 .1.03l9.99 2.84a.59.58-63.1 0 0 .61-.2l.2-.25a.67.65-67.2 0 1 .59-.25q2.23.2 3.11-1.1.18-.26.32-.15.12.09.19.17a.04.03-52 0 1 0 .05l-2.57 3.2a.19.18-50.2 0 0 .02.27l.52.42a.2.2 0 0 0 .3-.06c1.65-3.38 5.07-2.96 9.11-3.41 3.43-.38 13.27-4.28 6.99-9.41a.36.36 0 0 1 .35-.62l6.45 2.19a.7.7 0 0 0 .75-1.12q-2.39-2.75-3.32-7.1-.1-.5-1.19-4.96a3.08 3.06 42.2 0 1-.06-1.15q.37-2.46-2-4.24a1.21 1.21 0 0 1-.43-1.3q.38-1.3-.14-2.18c-1.44-2.47-1.43-4.85-.81-7.75a.35.35 0 0 1 .68 0l2.13 9.29a.58.57 2.8 0 0 .4.43q1.4.42 1.18 1.62-.28 1.48.17 2.13.57.79 1.03 5.21.18 1.74 3.41 10.95a.96.94.2 0 0 .6.59l11.49 3.9a.61.6 37.1 0 1 .15 1.07q-.73.5-1.68.54a.65.34-35.5 0 0-.15.02q-8.99 2.28-17.66 3.07-2.05.19-5.62.75-2.83.45-5.61.75a.29.29 0 0 0-.09.55z" class="E"/><ellipse cx="0" cy="0" transform="matrix(-.760406 -.649448 .649448 -.760406 264.18 213.58)" rx=".86" ry=".67" class="D"/><path d="M379.31 214.87q-.8.88-1.24.9a.39.39 0 0 1-.29-.68q.8-.74.87-.82.08-.09.74-.94a.39.39 0 0 1 .7.22q.02.45-.78 1.32z" class="F"/><ellipse cx="0" cy="0" transform="matrix(.008727 -.999962 .999962 .008727 511.45 216.2)" rx=".54" ry=".28" class="D"/><path d="M341.18 221.98a.33.32 3.7 0 1 .4.45q-.59 1.15-1.81 1.22a.28.28 0 0 1-.22-.48q.92-.94 1.63-1.19z" class="F"/><g class="B"><ellipse cx="0" cy="0" transform="matrix(-.634731 -.772734 .772734 -.634731 294.23 227.42)" rx=".98" ry=".84"/><path d="M26.79 227.16l39.24 15.03a1.02 1.01-75.4 0 1 .64 1.1l-.53 3.54L25 230.01l1.79-2.85z"/></g><g class="C"><path d="M338.18 230.16q.6.69.79 1.31a.43.43 0 0 1-.73.41q-.42-.47-.89-.99-.46-.53-.87-1.01a.43.43 0 0 1 .5-.66q.59.26 1.2.94z"/><ellipse cx="0" cy="0" transform="matrix(-.633381 -.77384 .77384 -.633381 347.02 232.96)" rx="4.13" ry="2.32"/></g><ellipse cx="0" cy="0" transform="matrix(-.34202 -.939693 .939693 -.34202 271.32 231.71)" rx=".93" ry=".72" class="D"/><path d="M288.88 232.12a.33.33 0 0 1-.01-.62c4.14-1.56 9.31-.31 13.14 1.25a4.82 4.62-29.8 0 0 1.25.31q3.79.39 7.15 1.62a4.8 4.72 58.5 0 0 1.09.27q4.5.63 7.94 2.23a.49.49 0 0 1-.1.93l-6.93 1.58a2.62 2.56-41.5 0 1-1.43-.07l-22.1-7.5z" class="E"/><g class="F"><path d="M200.94 232.1c5.62 2.06 6.77 4.73 8.05 10.57 1.33 6.05 7.89 11.65 11.45 15.74q2.26 2.6 3.28 7.5a.16.16 0 0 1-.27.14l-5.08-5.25q-7.07-9.48-15.87-15.1-1.96-1.83-3.81-3.46-1.63-1.44-3.21-2.09-1.85-.76-3.34-2.06a1.19 1.18 52.9 0 1 .27-1.96l8.53-4.03z"/><circle cx="238.16" cy="235.81" r=".24"/></g><g class="B"><ellipse cx="0" cy="0" transform="matrix(-.532876 -.846193 .846193 -.532876 233.21 238.89)" rx="1" ry=".82"/><path d="M72.19 248.81l-4.75-1.61q1.2-.56 1.48-2.74a.99.99 0 0 1 1.3-.81l1.93.65a1.13 1.13 0 0 1 .59 1.68q-.74 1.16-.55 2.83z"/></g><path d="M121.23 249.56q.82-1.16.57-1.97a.48.48 0 0 0-.69-.29q-3.73 2-7.95 5.84-2.06 1.88-5.89 3.71l-5.92-2.03a.82.81-47 0 1-.05-1.52q7.01-2.94 11.63-4.74c2.62-1.02 5.39-3.11 8.19-2.97a1.45 1.43 30.8 0 0 .85-.21l1.88-1.16a.19.19 0 0 1 .26.06l.17.28a.14.14 0 0 1-.05.2l-3.04 1.87a.27.27 0 0 0 .16.5q.39-.03.79-.77.25-.46.97-.13a.35.35 0 0 1 .11.56q-.43.44-.63.59a1.02.02-77.6 0 0-.23.97q-.17.76-1.13 1.21z" class="E"/><path d="M121.23 249.56q-1.86 1.44-4.24 2.2a1.56 1.55-82.4 0 0-.82.63q-.21.32-.2.5a1.48 1.47 81.3 0 1-.57.78l-5.06 3.54a.48.47 63.9 0 0-.18.54q.08.22.06.32a.25.24 21.1 0 1-.36.15l-2.59-1.37q3.83-1.83 5.89-3.71 4.22-3.84 7.95-5.84a.48.48 0 0 1 .69.29q.25.81-.57 1.97z" class="G"/><path d="M216.56 253.39a1.13 1.13 0 0 1 .68-2.1q4.98.49 8.26 5.35a.87.87 0 0 1-1.15 1.24l-7.79-4.49z" class="B"/><path d="M275.87 260.96q.24-.9-.67-2.84a.13.12-28.9 0 1 .05-.16l1.38-.85a.3.29 57.9 0 1 .41.1l2.02 3.28a.59.59 0 0 1-.54.89l-2.46-.16a.21.21 0 0 1-.19-.26z" class="F"/><path d="M133.75 266.09l-2.77.59-2.28-.99a1.49 1.48-80.9 0 1-.89-1.23l-.54-5.38a.11.11 0 0 1 .14-.11l5.22 1.77a.92.91 12.8 0 1 .61.96q-.23 2.11.51 4.39z" class="B"/><path d="M393.46 259.59q-5.94 7.68-14.32 12.27 1.59-2.62 4.72-4.49 1.81-1.07 2.47-2.09 1.71-2.63 2.15-2.71a.25.24 53 0 0 .06-.46q-.18-.09-.81.04-.2.05-.43-.33-.25-.43-.04-1.04.1.91.72 1.16a.66.66 0 0 0 .82-.28q.36-.63.08-1.44l.34.94a.37.37 0 0 0 .6.15q2.03-1.8 3.64-1.72z" class="E"/><path d="M424.47 259.29q.3-.03.37.03a.26.23 73 0 1-.2.44q-.03-.01-.25-.28a.12.12 0 0 1 .08-.19z" class="D"/><path d="M261.42 260.23a.34.34 0 0 0-.26.45l.11.29a.31.29 69.1 0 0 .38.18l3.72-1.38a.68.66 52.6 0 1 .62.09q1.15.87 1.53 1.45a.35.35 0 0 1-.34.54l-6.46-.8a.47.47 0 0 1-.22-.85q.83-.62 2.67-.84a.3.3 0 0 1 .26.5q-.05.06-2.01.37z" class="F"/><path d="M388.88 260.22q.28.81-.08 1.44a.66.66 0 0 1-.82.28q-.62-.25-.72-1.16.08-.41.4-.61.6-.37 1.22.05z" class="G"/><path d="M323.01 270.59a.88.87-40.4 0 1 .12-1.46q1.77-.96 2.2-1.36.62-.57 2.94-4.39a1.15 1.15 0 0 1 .9-.54q.58-.04 1.24-.43a.56.55-13.5 0 1 .84.51l-.13 2.08a1.33 1.26-32.1 0 1-.09.35q-.89 1.88-.38 4.41a1.82 1.82 0 0 1-1.56 2.16q-3.76.46-6.08-1.33zm7.42 19.01q-1.57.63-2.88.53l-10.14.56a.48.47 83.9 0 1-.49-.4q-.14-.85 1.11-.97 2.94-.29 11.41-1.29a.77.76 59.8 0 1 .56.15q.81.61.43 1.42z" class="E"/></svg>