<?xml version="1.0" encoding="UTF-8" standalone="no"?>
<!-- Created with Inkscape (http://www.inkscape.org/) -->

<svg
   version="1.1"
   id="svg1"
   width="163.84"
   height="94.080002"
   viewBox="0 0 163.84 94.080002"
   xmlns="http://www.w3.org/2000/svg"
   xmlns:svg="http://www.w3.org/2000/svg"
   xmlns:rdf="http://www.w3.org/1999/02/22-rdf-syntax-ns#"
   xmlns:cc="http://creativecommons.org/ns#"
   xmlns:dc="http://purl.org/dc/elements/1.1/">
  <title
     id="title1">Cryosat Icon SVG</title>
  <defs
     id="defs1" />
  <g
     id="g1">
    <path
       style="fill:currentColor"
       d="m 87.679998,93.920002 c 0.408791,-0.573992 0.408791,0.573992 0,0 z m 2.200682,0.01402 C 82.014169,92.377066 73.612721,89.316826 68.823862,82.56051 c -0.5967,-0.226539 -4.555528,-5.686636 -8.135576,-3.435575 -3.751859,-4.106264 -3.269658,-2.091304 -3.243895,2.046317 -2.06377,6.508399 -2.744313,-5.050045 -6.548273,-0.346444 -5.044056,3.169887 -10.100396,5.886136 -15.232751,3.683818 C 27.381299,81.463017 18.836085,77.984916 10.700702,75.231231 7.4688564,72.649405 1.4387617,73.612247 0.54034397,69.23607 -2.7000777,62.317493 6.8298753,62.511054 10.447272,58.746456 c 7.310602,-2.780393 -2.360319,3.84602 -4.6801992,4.286472 -2.0062712,0.807323 -4.4635345,5.201871 0.098435,1.94423 3.4669457,-2.204375 8.2635227,-6.237074 12.0522287,-6.703405 3.068798,-1.471692 12.006124,-7.878492 3.910705,-3.0222 -4.252291,1.48287 -4.763984,-4.228508 -1.988442,-4.571577 3.988793,2.860277 1.85361,-3.751087 -0.32,-4.436395 1.054775,-3.559562 2.505803,-6.114079 4.163813,-2.008259 6.05512,0.367781 -2.99924,-6.157581 2.764951,-3.262297 2.920873,2.281992 6.277922,6.138623 9.194745,2.80589 0.558241,-0.501392 3.714524,-3.633594 3.671359,-2.829723 1.936133,-1.948416 3.303329,-3.195569 5.437888,-4.354779 2.254279,-2.239546 6.505704,-4.544015 8.507099,-7.187001 1.87266,-0.993641 2.925578,-2.538694 4.1535,-3.0298 1.259345,-1.458068 3.234896,-2.419867 4.744607,-3.817616 C 70.90254,20.261939 80.033901,16.400433 88.960647,13.590927 101.4501,9.1443679 113.9763,4.5839583 126.46794,0.14534639 c 2.68308,-0.04705186 6.79818,-0.36669565 3.69957,0.60109248 2.76249,2.98206863 6.02368,5.40566653 8.48165,8.34333303 4.89792,3.3705181 7.82036,8.9892401 12.41492,12.8447081 4.25658,3.591509 7.39706,8.116051 11.96909,10.790857 2.12288,-3.226204 -0.0198,5.380572 -2.44108,5.647994 -3.31611,3.644307 -2.77226,10.343016 -6.01833,13.769697 -0.48081,1.803701 -3.34019,3.407393 -4.66133,5.764738 -2.14554,2.113346 -4.76783,5.303293 -7.27999,7.79314 -1.00284,1.725264 -2.60994,3.722817 -2.40924,2.918906 -0.87542,1.371255 -2.89706,6.016945 -4.86325,3.870234 -3.04451,-1.675431 -2.71636,6.608604 -5.15252,6.8455 -1.42252,1.888008 -3.51039,-0.526049 -3.40244,3.437017 -7.2328,7.307621 -17.86663,10.002956 -27.832767,11.221472 -3.023995,0.111853 -6.072822,0.160052 -9.091543,-0.06001 z M 47.629423,76.838031 c -1.21947,-1.952681 -2.893453,1.112572 0,0 z m 0.923909,-0.871363 c -1.578512,-0.546446 -0.22867,0.6584 0,0 z m -34.579999,-2.26 c -1.086288,-0.241035 0.07705,0.64502 0,0 z m 1.62,-0.3 c -1.367272,-0.36499 -0.349743,0.590523 0,0 z m 40.726666,-0.286667 c -0.408791,-0.573992 -0.408791,0.573992 0,0 z M 27.753333,72.126668 c -1.578516,-0.546449 -0.22867,0.6584 0,0 z m 1.046666,-0.595594 c -1.706373,-1.306604 -0.552449,1.73597 0,0 z m 3.84,0.148927 c 1.767615,0.402915 0.912094,-1.368167 -1.653599,0.215256 0.527195,0.03607 1.239348,0.249866 1.653599,-0.215256 z M 31.35085,70.843379 c -0.229593,-1.510398 -3.494678,2.13664 0,0 z M 56.38834,70.45966 c 0.178549,-1.553166 -3.290599,1.919289 0,0 z m -28.548341,0.100341 c -0.408791,-0.573992 -0.408791,0.573992 0,0 z m -0.64,-0.32 c -0.408791,-0.573992 -0.408791,0.573992 0,0 z m 2.24,-0.16 c 0.205254,-1.490216 -2.591164,0.600671 0,0 z m -1.706666,-0.853333 c -1.086288,-0.241035 0.07705,0.645021 0,0 z M 142.24,66.560001 c 0.27499,-1.156072 -1.00424,1.19549 0,0 z m -133.2800002,-2.4 c -0.4087911,-0.573992 -0.4087911,0.573992 0,0 z m 135.3600002,0 c -0.40879,-0.573992 -0.40879,0.573992 0,0 z m -134.5600002,-0.48 c 0.2749002,-1.156074 -1.004214,1.195493 0,0 z m 0.9600002,-0.64 c 0.274897,-1.156074 -1.0042132,1.195493 0,0 z m 52.361326,-2.08 c 0.954152,-1.856499 -5.517934,3.92697 -0.75209,0.737982 z m -2.601327,1.6 c 0.408791,-0.573992 0.408791,0.573992 0,0 z M 11.68,62.400001 c 0.274897,-1.156074 -1.004213,1.195493 0,0 z m 3.44,-2.176639 c 3.648911,-2.954053 -6.7146623,4.220165 -0.875924,0.574336 z m 131.48081,1.296639 c 1.07043,-1.527761 -1.94709,1.885455 0,0 z M 9.8133331,60.266668 c -1.0862888,-0.241031 0.077052,0.645018 0,0 z M 65.865467,58.560001 c 2.898437,-3.282801 -4.901422,3.866011 0,0 z m -1.225468,0.48 c 0.408791,-0.573992 0.408791,0.573992 0,0 z m 3.093333,-1.973333 c -1.086288,-0.241035 0.07705,0.645021 0,0 z m 83.987478,-1.306667 c 1.07043,-1.527761 -1.94709,1.885454 0,0 z m 2.35919,-2.64 c 0.27499,-1.156072 -1.00424,1.19549 0,0 z m -127.200001,-0.48 c -0.408791,-0.573992 -0.408791,0.573992 0,0 z m 1.92,-1.314236 c -1.098691,-0.731023 -1.406722,1.229434 0,0 z m 1.92,-1.268282 c -1.675832,0.284341 -1.750909,1.537679 0,0 z m 1.71977,-1.399704 c -1.95849,1.295737 -1.491655,1.714028 0,0 z m 1.32023,-0.657778 c 0.274897,-1.156074 -1.004213,1.195493 0,0 z m 0.8,-3.36 c -0.408791,-0.573992 -0.408791,0.573992 0,0 z m 3.2,-2.56 c -0.408791,-0.573992 -0.408791,0.573992 0,0 z m 3.04,-2.4 c 0.274897,-1.156074 -1.004213,1.195493 0,0 z m 11.36,-9.12 c -0.408791,-0.573992 -0.408791,0.573992 0,0 z m 2.88,-2.24 c -0.408791,-0.573992 -0.408791,0.573992 0,0 z m 1.28,-0.96 c -0.408791,-0.573992 -0.408791,0.573992 0,0 z M 144.32,14.632935 c -0.65744,-0.740974 -7.0807,-7.0063312 -4.54835,-4.427533 1.52043,1.462653 2.83699,3.204579 4.54835,4.427533 z m -7.04,-7.1129349 c -0.40879,-0.5739924 -0.40879,0.5739924 0,0 z m -0.96,-0.96 c -0.40879,-0.5739924 -0.40879,0.5739924 0,0 z M 103.04,93.920002 c 0.40879,-0.573992 0.40879,0.573992 0,0 z m -16.640002,-0.32 c 0.408791,-0.573992 0.408791,0.573992 0,0 z m -3.2,-0.64 c 0.408791,-0.573992 0.408791,0.573992 0,0 z m 29.120002,-1.28 c 0.40879,-0.573992 0.40879,0.573992 0,0 z m 0.96,-0.32 c 0.40879,-0.573992 0.40879,0.573992 0,0 z m 49.6,-0.48 c 0.25608,-0.867677 0.25609,0.867673 0,0 z m 0.64,0 c 0.25608,-0.867677 0.25609,0.867673 0,0 z m -85.440002,-0.16 c 0.408791,-0.573992 0.408791,0.573992 0,0 z m 37.120002,0 c 0.40879,-0.573992 0.40879,0.573992 0,0 z m -37.760002,-0.32 c 0.408791,-0.573992 0.408791,0.573992 0,0 z m 38.400002,0 c 0.40879,-0.573992 0.40879,0.573992 0,0 z m 47.68,-0.8 c 0.25608,-0.867677 0.25609,0.867673 0,0 z m -20.37334,-5.653334 c 1.08628,-0.241071 -0.077,0.645042 0,0 z M 135.68,83.021116 c 0.72804,-1.187901 0.57524,1.510654 0,0 z M 66.855779,81.040002 c -3.858914,-3.964227 3.800933,3.489857 0,0 z m 60.824221,-0.72 c 0.25608,-0.867677 0.25609,0.867673 0,0 z m -105.280001,-0.16 c 0.408791,-0.573992 0.408791,0.573992 0,0 z M 14.4,76.960001 c 0.408794,-0.573993 0.408788,0.573995 0,0 z m -3.2,-1.28 c 0.408791,-0.573992 0.408791,0.573992 0,0 z m -4.8000001,-1.92 c 0.4087909,-0.573992 0.4087909,0.573992 0,0 z M 4.4037308,73.373678 c 3.667592,-0.121253 -0.3475458,0.402131 0,0 z M 133.76,72.800001 c 0.40879,-0.573992 0.40879,0.573992 0,0 z m 0.96,-0.32 c 0.40879,-0.573992 0.40879,0.573992 0,0 z m 3.84,-0.64 c 0.40879,-0.573992 0.40879,0.573992 0,0 z m 24.98526,-2.586666 c 0.2957,-1.197696 0.13661,1.390467 0,0 z M 0,68.640001 c 0.40879105,-0.573992 0.40879105,0.573992 0,0 z m 0,-5.28 c 1.1128719,-1.318708 1.805597,1.375706 0,0 z m 14.186666,-4.373333 c 1.086288,-0.241035 -0.07705,0.645021 0,0 z M 156.8,49.440001 c 0.40879,-0.573992 0.40879,0.573992 0,0 z m 0.96,-4.16 c 0.40879,-0.573992 0.40879,0.573992 0,0 z m 0.96,-2.88 c 0.40879,-0.573992 0.40879,0.573992 0,0 z m 0.32,-0.96 c 0.40879,-0.573992 0.40879,0.573992 0,0 z M 0,36.480001 c 0.25608917,-0.867679 0.25609039,0.867677 0,0 z m 50.239999,-4.48 c 0.256088,-0.867678 0.256091,0.867675 0,0 z M 81.599998,15.52 c 0.408791,-0.573992 0.408791,0.573992 0,0 z m 63.680002,0 c 0.40879,-0.573992 0.40879,0.573992 0,0 z M 94.399998,11.04 c 0.408791,-0.573992 0.408791,0.573992 0,0 z M 100.8,8.8000002 c 0.40879,-0.5739924 0.40879,0.5739924 0,0 z m 44.48,-2.0800001 c 0.81758,-1.1479849 0.81758,1.1479849 0,0 z m -38.08,-0.16 c 0.40879,-0.5739924 0.40879,0.5739924 0,0 z m 3.30666,-1.3333333 c 1.08628,-0.2410714 -0.077,0.6450406 0,0 z M 151.68,2.8800001 c 0.81758,-1.1479851 0.81758,1.147985 0,0 z M 120.64,1.76 c 0.40879,-0.5739924 0.40879,0.5739924 0,0 z m 3.84,-1.6 c 0.40879,-0.57399245 0.40879,0.57399246 0,0 z"
       id="path1" />
  </g>
  <metadata
     id="metadata1">
    <rdf:RDF>
      <cc:Work
         rdf:about="">
        <dc:title>Cryosat Icon SVG</dc:title>
        <dc:source>https://www.esa.int/var/esa/storage/images/esa_multimedia/images/2009/09/cryosat3/10084092-2-eng-GB/CryoSat_pillars.jpg</dc:source>
      </cc:Work>
    </rdf:RDF>
  </metadata>
</svg>
