<?xml version="1.0" encoding="UTF-8" standalone="no"?>
<!-- Created with Inkscape (http://www.inkscape.org/) -->

<svg
   version="1.1"
   id="svg1"
   width="682.66669"
   height="353.33334"
   viewBox="0 0 682.66669 353.33334"
   xmlns="http://www.w3.org/2000/svg"
   xmlns:svg="http://www.w3.org/2000/svg"
   xmlns:rdf="http://www.w3.org/1999/02/22-rdf-syntax-ns#"
   xmlns:cc="http://creativecommons.org/ns#"
   xmlns:dc="http://purl.org/dc/elements/1.1/">
  <title
     id="title1">Landsat-8 Icon SVG</title>
  <defs
     id="defs1" />
  <g
     id="g1">
    <path
       style="fill:currentColor"
       d="m 631.33335,350.66668 c -14.46772,-5.36868 -25.43385,-13.92087 -39.18137,-18.94672 -13.99787,-8.54605 -28.54978,-15.5786 -43.23065,-22.34138 -8.43768,-7.69279 -25.83767,-10.43542 -33.51228,-19.41719 -13.71363,-5.20115 -25.10503,-11.72248 -36.96509,-18.54683 -12.21423,-3.60755 -24.16762,-13.15419 -37.11061,-18.22961 -15.98482,-8.7839 -31.75244,-16.84254 -48.22223,-24.85161 -14.12938,-7.66757 -26.70478,-15.60333 -42.31262,-21.66667 -11.96146,-7.04912 -24.85727,-12.89217 -37.78546,-20.44134 -10.47216,-4.11422 -18.91191,-11.24689 -29.53991,-14.57132 -12.29597,-5.53142 -23.9118,-13.46388 -36.12812,-19.07312 -11.73486,-6.39851 -25.34911,-12.51827 -37.345,-19.24755 -22.74018,-4.99628 -5.10774,-29.61607 -6.15166,-45.630775 3.09089,-11.372858 -23.58723,-3.233602 -15.15192,4.835535 16.75152,15.63877 -26.70907,14.18576 -18.24378,33.39919 -5.93751,8.35964 -17.0674,-11.92537 -16.64862,8.07546 -12.56664,11.17809 -31.02624,-3.72191 -31.19867,12.09442 -9.01182,1.36779 0.31349,-23.21803 -11.27202,-6.35641 -18.136241,7.7627 -32.135157,-4.04434 -49.743396,-8.69242 C 48.315348,128.29627 38.624903,128.02709 29.111112,135 17.542445,128.08612 -14.486747,116.8561 12.013625,104.95799 29.267193,88.712629 48.892322,76.791471 71.43997,71.176543 80.505483,56.3858 80.694036,43.393576 86.666669,28.000001 92.611413,6.4494593 120.09968,39.533091 116.46408,15.829179 c 7.37073,-1.271416 5.71472,14.655815 12.73951,1.969284 C 125.31641,3.8782506 157.36666,7.23006 162.07156,0.53836471 161.13963,7.276811 172.10635,-2.2530022 176.45647,7.8799924 c 10.05958,6.6085456 13.56536,14.2438236 18.60394,5.2691756 11.26101,5.177887 -5.9839,13.628492 6.5396,23.9175 7.73331,5.394078 11.05212,12.336053 3.4119,19.937302 6.27479,9.902606 13.82917,12.759975 22.32143,4.329365 11.46931,-4.753619 24.85397,-21.525726 37.09899,-13.456606 11.39186,5.328251 24.01301,10.265983 33.73256,17.017725 11.75995,2.488639 19.73271,11.379567 31.71846,14.120292 13.31243,7.256679 26.86294,14.077775 41.53783,19.651924 9.1548,6.62011 21.43896,11.49666 32.54134,16.38768 12.45277,8.6971 28.84138,12.83384 41.53403,21.6883 13.86062,5.35753 28.8701,13.03967 41.09144,19.25735 12.69277,5.34294 23.84358,12.19021 36.30091,17 12.15799,7.22578 24.14197,11.39196 36.31384,19.12326 13.30123,3.01439 25.17019,12.79734 38.13061,17.21008 10.76711,6.92704 25.96179,12.05864 36.52689,17.6326 10.70336,7.67935 23.59696,10.15354 33.49187,17.98819 29.12337,2.8083 3.83465,29.74655 2.92753,46.62584 -6.23663,13.12061 -9.94186,27.87476 -14.94629,41.75337 -4.62162,11.9659 -5.10344,28.31707 -24,17.33334 z M 164.88889,117.77778 c -2.68758,-0.32105 1.0043,4.52621 0,0 z m 20.44445,-21.111111 c -1.70329,-2.391623 -1.70329,2.391625 0,0 z M 126.66667,146 c 1.70331,-2.39161 1.70326,2.39163 0,0 z m -13.33333,-5.33333 c 1.70329,-2.39166 1.70329,2.39166 0,0 z M 22.666667,134 c 1.703323,-2.39162 1.703272,2.39164 0,0 z m 138.666673,-4 c 1.70332,-2.39163 1.70327,2.39165 0,0 z M 16,98.000003 c 1.703297,-2.391636 1.703297,2.391637 0,0 z m 172.00001,-9.333334 c 1.7033,-2.391644 1.70329,2.391645 0,0 z m 21.33333,-29.333334 c 1.70329,-2.391626 1.70329,2.391626 0,0 z M 122.66667,14 c 1.70329,-2.391623 1.70329,2.391625 0,0 z"
       id="path1" />
  </g>
  <metadata
     id="metadata1">
    <rdf:RDF>
      <cc:Work
         rdf:about="">
        <dc:title>Landsat-8 Icon SVG</dc:title>
      </cc:Work>
    </rdf:RDF>
  </metadata>
</svg>
