<?xml version="1.0" encoding="UTF-8" standalone="no"?>
<svg xmlns="http://www.w3.org/2000/svg" version="1.2" baseProfile="tiny" viewBox="0.00 0.00 512.00 265.00" width="512.00" height="265.00">
<path fill="#090c1c" d="
  M 156.52 49.06
  Q 153.54 51.18 151.82 53.64
  A 0.77 0.76 40.4 0 0 151.90 54.60
  Q 152.97 55.70 154.77 55.39
  A 1.05 1.04 -80.8 0 0 155.50 54.86
  Q 156.82 52.46 158.60 51.28
  L 160.99 53.19
  Q 158.01 54.56 155.58 58.16
  A 1.70 1.70 0.0 0 0 155.30 59.06
  L 155.25 62.09
  Q 154.70 60.56 153.74 60.04
  Q 153.12 59.71 151.34 60.36
  Q 149.38 61.07 147.31 60.15
  Q 147.56 58.17 145.22 57.69
  A 0.94 0.92 27.5 0 0 144.37 57.95
  Q 143.42 58.93 143.63 60.29
  L 138.01 65.59
  A 1.40 1.40 0.0 0 0 138.11 67.71
  Q 139.62 68.88 140.98 70.71
  C 141.72 71.71 143.01 71.64 143.78 72.32
  A 0.99 0.99 0.0 0 1 144.09 73.28
  Q 143.47 75.93 141.74 78.01
  A 0.96 0.96 0.0 0 1 140.32 78.08
  L 138.22 75.99
  A 0.36 0.36 0.0 0 0 137.64 76.08
  Q 134.54 82.08 127.18 85.17
  Q 125.81 85.74 125.84 87.02
  Q 125.39 86.83 125.12 87.57
  Q 123.66 86.98 121.05 87.56
  A 3.23 3.23 0.0 0 1 119.16 87.40
  Q 119.13 87.39 118.91 87.25
  A 0.89 0.88 -53.2 0 0 117.74 87.42
  Q 116.33 89.10 116.68 90.88
  A 0.70 0.70 0.0 0 1 116.32 91.62
  C 115.67 91.97 115.38 92.48 115.24 93.14
  Q 114.13 98.07 113.43 99.69
  Q 112.76 101.25 110.55 101.59
  Q 101.21 103.04 98.87 103.60
  A 2.07 2.02 49.4 0 1 97.54 103.48
  Q 95.19 102.41 94.45 101.80
  Q 93.39 100.94 92.89 101.20
  A 1.90 1.81 55.4 0 0 92.44 104.07
  Q 93.40 105.18 93.62 105.47
  A 1.03 1.02 47.1 0 1 93.58 106.73
  L 91.79 108.93
  A 0.52 0.52 0.0 0 1 90.89 108.74
  L 89.98 105.62
  A 1.44 1.42 50.4 0 1 90.07 104.60
  Q 90.88 103.00 91.05 101.96
  A 1.80 1.80 0.0 0 0 90.24 100.14
  L 86.70 97.87
  A 0.68 0.68 0.0 0 0 85.66 98.44
  Q 85.66 100.96 82.37 104.10
  A 1.37 1.36 39.5 0 1 80.68 104.26
  Q 79.31 103.36 77.69 103.41
  C 79.00 98.16 80.20 93.32 83.66 89.72
  A 1.00 0.99 -61.1 0 1 84.62 89.44
  Q 85.46 89.65 86.07 90.63
  A 0.60 0.60 0.0 0 0 87.18 90.36
  Q 87.32 88.20 88.89 86.60
  A 1.19 0.88 89.6 0 0 89.08 86.34
  L 97.32 70.89
  A 13.12 12.94 -12.6 0 1 98.52 69.03
  C 100.53 66.35 105.46 62.90 106.67 57.39
  Q 107.16 56.12 108.06 56.18
  A 1.77 1.77 0.0 0 1 109.63 58.51
  Q 108.19 62.80 110.48 63.35
  Q 111.67 63.63 110.44 67.13
  A 0.75 0.74 9.0 0 1 109.75 67.63
  C 108.38 67.65 107.89 68.59 106.19 68.36
  Q 103.92 68.05 102.71 68.23
  A 1.30 1.30 0.0 0 0 101.85 68.75
  Q 99.27 72.28 98.98 76.95
  A 2.80 2.77 59.9 0 1 98.70 78.03
  Q 97.51 80.43 97.92 84.18
  A 0.31 0.31 0.0 0 1 97.37 84.40
  Q 97.34 84.36 97.35 84.15
  A 0.02 0.02 0.0 0 0 97.32 84.14
  Q 97.25 84.32 97.20 84.40
  A 0.58 0.57 23.3 0 1 96.58 84.64
  Q 96.30 84.58 96.12 84.18
  A 1.89 1.67 67.6 0 0 93.97 83.12
  Q 91.45 84.00 90.61 86.40
  A 0.40 0.40 0.0 0 0 91.08 86.93
  L 94.72 86.09
  A 0.73 0.64 -36.3 0 1 95.15 86.13
  L 99.76 88.23
  A 1.31 1.31 0.0 0 0 101.38 86.29
  Q 101.31 86.18 101.20 85.64
  A 1.47 1.31 49.2 0 1 101.21 85.00
  L 103.73 75.19
  A 0.13 0.04 -61.8 0 1 103.74 75.14
  Q 104.66 72.92 106.49 72.12
  A 0.59 0.59 0.0 0 1 107.26 72.91
  Q 105.31 77.04 105.05 82.31
  A 1.32 1.21 -30.1 0 1 104.85 82.95
  L 103.27 85.42
  A 0.23 0.23 0.0 0 0 103.54 85.76
  Q 104.07 85.56 104.26 85.10
  A 0.47 0.47 0.0 0 1 104.56 84.84
  L 108.61 83.59
  A 1.17 1.11 16.8 0 0 108.99 83.40
  Q 113.06 80.27 114.79 75.10
  Q 118.61 63.68 121.60 52.11
  Q 121.88 49.96 120.46 49.51
  Q 113.14 47.20 108.25 44.63
  Q 107.68 44.33 105.36 44.88
  A 1.31 1.30 51.7 0 1 104.44 44.77
  Q 103.55 44.32 103.79 43.71
  Q 104.15 42.79 103.13 42.26
  Q 95.17 38.14 87.32 34.41
  Q 86.43 33.60 85.00 33.38
  A 1.71 1.70 -19.4 0 1 84.14 32.97
  Q 83.25 32.18 82.37 31.99
  L 69.66 25.94
  A 1.51 1.51 0.0 0 0 67.63 27.92
  L 68.77 30.44
  A 6.29 6.25 1.8 0 0 71.60 33.44
  C 77.96 36.72 87.16 41.98 96.25 46.08
  Q 105.93 50.45 115.56 55.16
  Q 114.92 56.96 112.96 56.73
  Q 94.89 50.18 77.45 40.53
  A 1.58 1.57 -59.1 0 0 75.36 41.06
  Q 74.71 42.08 72.82 43.08
  C 69.54 44.82 65.71 47.11 63.05 46.93
  A 0.66 0.65 34.7 0 1 62.82 45.68
  L 73.35 40.95
  A 0.83 0.83 0.0 0 0 73.39 39.46
  L 70.25 37.84
  A 2.31 2.31 0.0 0 0 67.78 38.07
  L 61.80 42.70
  L 64.08 33.83
  A 1.27 1.26 37.5 0 0 63.95 32.88
  L 62.20 29.85
  A 1.38 1.38 0.0 0 1 62.57 28.06
  L 65.43 25.91
  A 0.77 0.73 80.8 0 0 65.70 25.51
  L 67.29 19.30
  A 2.90 2.90 0.0 0 1 69.30 17.23
  L 73.20 16.12
  A 1.97 1.92 -39.4 0 1 74.60 16.24
  L 84.77 21.19
  A 1.77 1.77 0.0 0 0 85.57 21.36
  Q 87.51 21.31 89.15 19.44
  A 0.68 0.68 0.0 0 1 89.99 19.29
  Q 90.97 19.84 92.96 18.72
  C 95.39 17.35 99.11 16.05 97.51 12.68
  A 1.49 1.48 58.5 0 1 97.94 10.87
  Q 102.15 7.60 106.72 6.67
  C 109.20 6.17 111.01 5.48 113.65 4.50
  A 0.68 0.67 64.3 0 1 114.47 4.79
  L 116.14 7.64
  A 1.57 1.57 0.0 0 0 119.00 6.41
  Q 118.99 6.36 118.56 5.38
  A 1.23 1.22 44.7 0 1 118.55 4.42
  Q 119.16 2.97 118.32 1.20
  A 0.50 0.49 -18.8 0 1 118.67 0.50
  Q 119.80 0.26 120.61 0.49
  A 0.32 0.32 0.0 0 1 120.73 1.04
  Q 118.49 2.97 119.98 6.07
  A 0.61 0.61 0.0 0 0 120.80 6.36
  Q 123.30 5.14 123.72 2.85
  A 1.24 1.24 0.0 0 1 126.07 2.57
  L 126.93 4.49
  A 1.22 1.19 2.9 0 0 127.42 5.02
  Q 131.73 7.45 135.84 9.22
  Q 138.23 10.26 138.12 12.29
  A 0.66 0.64 24.9 0 0 138.30 12.76
  L 141.97 16.42
  A 0.82 0.81 38.8 0 0 143.23 16.29
  L 145.66 12.49
  A 1.49 1.49 0.0 0 1 148.01 12.28
  Q 148.73 13.05 148.65 13.52
  Q 148.54 14.18 147.57 14.68
  Q 145.79 15.60 144.73 17.55
  A 1.68 1.67 -49.6 0 0 144.87 19.37
  Q 148.01 23.46 149.58 28.24
  C 150.57 31.27 151.98 33.44 155.38 32.80
  A 1.01 1.01 0.0 0 1 156.53 34.10
  Q 155.19 38.31 152.12 40.94
  A 1.39 1.39 0.0 0 0 151.90 42.82
  L 156.52 49.06
  Z
  M 85.8927 22.4495
  A 2.95 1.50 -150.1 0 0 87.7023 25.2203
  A 2.95 1.50 -150.1 0 0 91.0073 25.3905
  A 2.95 1.50 -150.1 0 0 89.1977 22.6197
  A 2.95 1.50 -150.1 0 0 85.8927 22.4495
  Z
  M 110.3752 22.8314
  A 2.57 1.14 -88.1 0 0 109.1506 25.3622
  A 2.57 1.14 -88.1 0 0 110.2048 27.9686
  A 2.57 1.14 -88.1 0 0 111.4294 25.4378
  A 2.57 1.14 -88.1 0 0 110.3752 22.8314
  Z
  M 103.00 31.59
  A 0.57 0.57 0.0 0 0 103.30 31.97
  L 110.93 35.89
  A 0.63 0.63 0.0 0 0 111.84 35.22
  C 111.68 34.30 110.55 33.09 109.63 32.91
  Q 108.24 32.64 103.31 30.84
  A 0.31 0.31 0.0 0 0 102.90 31.21
  L 103.00 31.59
  Z
  M 148.30 48.81
  L 152.18 43.95
  A 0.40 0.40 0.0 0 0 152.12 43.39
  L 152.01 43.30
  A 3.13 2.51 -51.4 0 0 148.10 44.18
  L 147.63 44.78
  A 3.13 2.51 -51.4 0 0 147.63 48.79
  L 147.74 48.87
  A 0.40 0.40 0.0 0 0 148.30 48.81
  Z
  M 152.48 46.57
  C 151.22 46.62 150.51 47.81 149.83 48.87
  Q 148.61 50.76 148.87 52.25
  A 0.52 0.52 0.0 0 0 149.86 52.37
  Q 150.52 50.86 152.76 49.18
  A 1.55 1.19 -58.5 0 0 152.48 46.57
  Z
  M 137.5206 56.1340
  A 2.47 1.19 -58.5 0 0 135.2154 57.6182
  A 2.47 1.19 -58.5 0 0 134.9394 60.3460
  A 2.47 1.19 -58.5 0 0 137.2446 58.8618
  A 2.47 1.19 -58.5 0 0 137.5206 56.1340
  Z
  M 138.66 75.44
  L 141.05 74.10
  A 0.19 0.19 0.0 0 0 141.12 73.84
  L 140.82 73.30
  A 5.76 1.45 60.8 0 0 136.74 68.97
  L 136.55 69.08
  A 5.76 1.45 60.8 0 0 138.09 74.82
  L 138.40 75.37
  A 0.19 0.19 0.0 0 0 138.66 75.44
  Z"
/>
<path fill="#090c1c" d="
  M 90.02 12.84
  Q 91.21 16.08 90.15 18.16
  A 0.52 0.52 0.0 0 1 89.41 18.36
  L 86.76 16.66
  A 0.94 0.93 38.8 0 1 86.60 15.21
  L 89.16 12.65
  A 0.52 0.52 0.0 0 1 90.02 12.84
  Z"
/>
<ellipse fill="#2e2911" cx="0.00" cy="0.00" transform="translate(88.45,23.92) rotate(-150.1)" rx="2.95" ry="1.50"/>
<ellipse fill="#2e2911" cx="0.00" cy="0.00" transform="translate(110.29,25.40) rotate(-88.1)" rx="2.57" ry="1.14"/>
<path fill="#2e2911" d="
  M 82.37 31.99
  Q 82.47 33.77 83.28 34.72
  A 1.10 1.10 0.0 0 0 84.12 35.11
  Q 85.68 35.08 87.32 34.41
  Q 95.17 38.14 103.13 42.26
  Q 104.15 42.79 103.79 43.71
  Q 103.55 44.32 104.44 44.77
  A 1.31 1.30 51.7 0 0 105.36 44.88
  Q 107.68 44.33 108.25 44.63
  Q 113.14 47.20 120.46 49.51
  Q 121.88 49.96 121.60 52.11
  Q 118.87 54.18 115.56 55.16
  Q 105.93 50.45 96.25 46.08
  C 87.16 41.98 77.96 36.72 71.60 33.44
  A 6.29 6.25 1.8 0 1 68.77 30.44
  L 67.63 27.92
  A 1.51 1.51 0.0 0 1 69.66 25.94
  L 82.37 31.99
  Z"
/>
<path fill="#2e2911" d="
  M 103.31 30.84
  Q 108.24 32.64 109.63 32.91
  C 110.55 33.09 111.68 34.30 111.84 35.22
  A 0.63 0.63 0.0 0 1 110.93 35.89
  L 103.30 31.97
  A 0.57 0.57 0.0 0 1 103.00 31.59
  L 102.90 31.21
  A 0.31 0.31 0.0 0 1 103.31 30.84
  Z"
/>
<path fill="#2e3d5f" d="
  M 87.32 34.41
  Q 85.68 35.08 84.12 35.11
  A 1.10 1.10 0.0 0 1 83.28 34.72
  Q 82.47 33.77 82.37 31.99
  Q 83.25 32.18 84.14 32.97
  A 1.71 1.70 -19.4 0 0 85.00 33.38
  Q 86.43 33.60 87.32 34.41
  Z"
/>
<path fill="#2e2911" d="
  M 195.07 36.01
  L 151.30 94.88
  Q 149.58 94.28 150.03 92.00
  Q 151.59 84.01 155.25 62.09
  L 155.30 59.06
  A 1.70 1.70 0.0 0 1 155.58 58.16
  Q 158.01 54.56 160.99 53.19
  Q 176.73 44.46 192.25 35.72
  Q 193.50 35.02 195.07 36.01
  Z"
/>
<path fill="#090c1c" d="
  M 196.61 36.87
  Q 195.64 38.07 194.52 39.09
  Q 193.11 40.38 192.44 41.30
  Q 188.20 47.14 185.51 52.56
  A 1.37 1.34 81.2 0 1 185.21 52.98
  L 180.73 57.46
  A 7.27 7.23 -9.3 0 0 179.43 59.26
  Q 178.13 61.80 176.52 63.74
  C 173.60 67.25 171.95 69.99 169.05 74.41
  A 4.57 4.15 -6.7 0 1 168.25 75.33
  L 166.41 76.94
  A 4.10 3.97 89.1 0 0 165.80 77.59
  Q 160.73 84.50 156.06 92.27
  Q 155.30 93.53 155.32 94.69
  A 0.81 0.80 -16.9 0 0 156.56 95.35
  Q 158.11 94.37 159.16 92.80
  A 1.64 1.57 -82.7 0 1 159.89 92.21
  Q 162.12 91.33 163.73 92.14
  Q 169.37 95.00 174.06 96.64
  A 0.67 0.66 23.0 0 1 174.44 97.57
  L 173.43 99.51
  A 0.84 0.84 0.0 0 1 172.30 99.88
  L 167.31 97.31
  A 1.60 1.59 78.9 0 1 167.03 97.12
  C 165.27 95.58 161.91 93.12 159.80 95.15
  A 1.65 1.49 -48.2 0 0 159.81 97.56
  C 162.17 99.29 164.51 99.69 166.71 100.90
  C 169.81 102.59 173.34 104.79 175.99 106.13
  Q 198.87 117.63 204.32 120.69
  Q 205.84 121.55 207.11 121.13
  A 1.36 1.29 -80.9 0 0 207.80 120.60
  Q 210.85 115.96 212.75 112.74
  C 214.42 109.92 217.33 109.05 217.83 105.56
  A 2.57 2.56 69.0 0 1 218.41 104.25
  Q 220.92 101.23 224.76 94.78
  Q 225.48 93.55 227.27 92.97
  L 218.97 105.30
  A 0.84 0.84 0.0 0 0 219.21 106.48
  L 219.26 106.51
  A 0.89 0.86 -57.0 0 0 220.45 106.24
  L 228.85 93.90
  L 221.47 106.25
  A 2.44 2.33 88.6 0 1 220.87 106.91
  L 219.14 108.17
  A 3.01 2.99 -7.4 0 0 218.12 109.48
  L 216.63 113.14
  A 5.69 5.05 -21.0 0 1 216.19 113.99
  L 212.11 120.29
  Q 210.24 121.96 210.89 123.67
  A 1.06 1.03 -88.1 0 0 211.42 124.25
  L 216.21 126.56
  L 273.49 156.05
  L 291.48 165.73
  A 1.74 1.73 -63.6 0 0 293.89 164.91
  Q 296.92 158.16 301.04 152.54
  Q 302.90 152.00 303.23 153.32
  Q 300.70 154.75 299.53 156.77
  Q 296.50 162.03 293.85 166.95
  A 0.63 0.62 -74.7 0 0 294.37 167.87
  Q 296.47 167.96 298.44 169.22
  Q 298.48 169.24 300.19 170.10
  Q 315.59 177.82 326.38 183.62
  Q 328.12 184.55 330.23 185.14
  A 2.50 2.49 -18.6 0 1 331.12 185.58
  Q 333.47 187.45 335.82 187.95
  A 2.54 2.47 -20.4 0 1 336.75 188.36
  Q 339.10 190.02 341.61 190.52
  A 3.68 3.63 72.4 0 1 343.45 191.49
  Q 345.23 193.21 347.77 194.23
  C 351.15 195.59 353.53 197.44 356.84 198.64
  A 0.24 0.17 -10.9 0 1 356.91 198.67
  L 375.78 208.38
  A 0.52 0.51 -60.8 0 0 376.46 208.18
  Q 380.02 202.10 382.14 194.73
  A 0.58 0.57 -68.9 0 0 381.86 194.07
  L 378.68 192.44
  A 1.20 1.20 0.0 0 1 378.59 190.36
  Q 379.67 189.67 381.60 189.84
  A 0.78 0.77 13.9 0 0 382.37 189.38
  Q 385.32 182.87 388.70 176.51
  C 395.24 164.19 400.40 151.31 404.99 138.18
  L 417.06 144.07
  A 0.84 0.83 -46.4 0 1 417.09 145.55
  Q 416.88 145.67 416.56 146.31
  Q 415.03 149.33 411.30 157.87
  A 0.72 0.72 0.0 0 0 411.84 158.87
  L 411.89 158.87
  A 1.17 1.17 0.0 0 0 413.14 158.20
  L 418.60 146.06
  A 0.71 0.71 0.0 0 1 419.32 145.64
  Q 420.50 145.74 425.21 148.03
  Q 496.26 182.68 506.23 187.50
  Q 508.22 188.47 510.78 189.40
  A 1.25 1.25 0.0 0 1 511.20 191.48
  Q 509.62 192.95 508.88 195.07
  Q 496.67 230.06 484.43 265.00
  L 480.77 265.00
  L 387.36 216.80
  A 1.04 1.03 -62.9 0 1 386.91 215.40
  L 393.65 202.31
  A 0.84 0.84 0.0 0 0 392.55 201.16
  L 391.73 201.53
  A 1.33 1.28 -1.1 0 0 391.06 202.20
  L 385.29 215.02
  A 0.74 0.74 0.0 0 1 384.27 215.38
  Q 234.86 138.06 212.08 126.31
  Q 209.70 125.08 208.82 124.18
  C 207.67 122.99 205.91 123.12 204.09 122.18
  Q 177.36 108.37 151.30 94.88
  L 195.07 36.01
  Q 195.94 36.12 196.61 36.87
  Z
  M 216.0909 112.8573
  A 0.80 0.80 0.0 0 0 215.8847 111.7449
  L 215.8517 111.7222
  A 0.80 0.80 0.0 0 0 214.7393 111.9284
  L 207.8291 121.9827
  A 0.80 0.80 0.0 0 0 208.0353 123.0951
  L 208.0683 123.1178
  A 0.80 0.80 0.0 0 0 209.1807 122.9116
  L 216.0909 112.8573
  Z
  M 406.5465 158.4661
  A 2.37 1.84 -140.3 0 0 407.1947 161.3957
  A 2.37 1.84 -140.3 0 0 410.1935 161.4939
  A 2.37 1.84 -140.3 0 0 409.5453 158.5643
  A 2.37 1.84 -140.3 0 0 406.5465 158.4661
  Z
  M 411.5639 161.8787
  A 2.22 1.82 -162.4 0 0 413.1297 164.2848
  A 2.22 1.82 -162.4 0 0 415.7961 163.2213
  A 2.22 1.82 -162.4 0 0 414.2303 160.8152
  A 2.22 1.82 -162.4 0 0 411.5639 161.8787
  Z
  M 402.16 178.02
  Q 400.84 176.98 399.63 177.39
  A 1.18 1.18 0.0 0 0 399.18 179.36
  Q 400.01 180.17 401.26 179.72
  L 394.62 194.65
  A 0.96 0.94 -65.0 0 0 395.06 195.90
  L 395.09 195.91
  A 0.90 0.88 -64.4 0 0 396.29 195.47
  L 403.43 180.21
  Q 403.29 181.74 403.64 182.36
  A 1.11 1.10 -50.3 0 0 405.65 182.17
  Q 406.07 180.93 405.61 179.90
  Q 405.43 179.50 404.83 179.44
  Q 404.34 179.39 403.86 179.49
  L 410.16 164.81
  A 0.71 0.71 0.0 0 0 409.64 163.83
  L 409.58 163.83
  A 1.14 1.13 -72.5 0 0 408.34 164.48
  L 402.16 178.02
  Z
  M 389.35 198.00
  L 393.06 199.10
  A 0.72 0.72 0.0 0 0 393.96 198.62
  L 394.01 198.46
  A 2.93 2.51 -73.4 0 0 392.44 194.93
  L 392.15 194.85
  A 2.93 2.51 -73.4 0 0 388.91 196.94
  L 388.86 197.10
  A 0.72 0.72 0.0 0 0 389.35 198.00
  Z
  M 394.7942 198.0112
  A 2.55 1.92 -142.6 0 0 395.6538 201.0853
  A 2.55 1.92 -142.6 0 0 398.8458 201.1088
  A 2.55 1.92 -142.6 0 0 397.9862 198.0347
  A 2.55 1.92 -142.6 0 0 394.7942 198.0112
  Z"
/>
<path fill="#2e3d5f" d="
  M 196.61 36.87
  L 247.01 61.51
  Q 243.57 66.80 240.16 71.97
  Q 239.16 73.46 238.90 74.89
  C 238.36 77.70 235.92 76.98 235.07 79.16
  Q 234.77 79.95 232.38 83.77
  A 2.07 2.06 -57.6 0 1 229.52 84.42
  L 225.80 82.03
  A 0.32 0.31 -57.6 0 0 225.37 82.13
  L 223.94 84.37
  A 0.39 0.38 -69.1 0 0 224.20 84.96
  Q 226.72 85.35 228.83 87.17
  A 0.83 0.82 -62.7 0 1 229.09 87.99
  L 228.22 91.51
  Q 227.59 92.17 227.27 92.97
  Q 225.48 93.55 224.76 94.78
  Q 220.92 101.23 218.41 104.25
  A 2.57 2.56 69.0 0 0 217.83 105.56
  C 217.33 109.05 214.42 109.92 212.75 112.74
  Q 210.85 115.96 207.80 120.60
  A 1.36 1.29 -80.9 0 1 207.11 121.13
  Q 205.84 121.55 204.32 120.69
  Q 198.87 117.63 175.99 106.13
  C 173.34 104.79 169.81 102.59 166.71 100.90
  C 164.51 99.69 162.17 99.29 159.81 97.56
  A 1.65 1.49 -48.2 0 1 159.80 95.15
  C 161.91 93.12 165.27 95.58 167.03 97.12
  A 1.60 1.59 78.9 0 0 167.31 97.31
  L 172.30 99.88
  A 0.84 0.84 0.0 0 0 173.43 99.51
  L 174.44 97.57
  A 0.67 0.66 23.0 0 0 174.06 96.64
  Q 169.37 95.00 163.73 92.14
  Q 162.12 91.33 159.89 92.21
  A 1.64 1.57 -82.7 0 0 159.16 92.80
  Q 158.11 94.37 156.56 95.35
  A 0.81 0.80 -16.9 0 1 155.32 94.69
  Q 155.30 93.53 156.06 92.27
  Q 160.73 84.50 165.80 77.59
  A 4.10 3.97 89.1 0 1 166.41 76.94
  L 168.25 75.33
  A 4.57 4.15 -6.7 0 0 169.05 74.41
  C 171.95 69.99 173.60 67.25 176.52 63.74
  Q 178.13 61.80 179.43 59.26
  A 7.27 7.23 -9.3 0 1 180.73 57.46
  L 185.21 52.98
  A 1.37 1.34 81.2 0 0 185.51 52.56
  Q 188.20 47.14 192.44 41.30
  Q 193.11 40.38 194.52 39.09
  Q 195.64 38.07 196.61 36.87
  Z
  M 207.4342 51.1934
  A 0.26 0.26 0.0 0 0 207.3108 50.8470
  L 202.3786 48.5050
  A 0.26 0.26 0.0 0 0 202.0322 48.6283
  L 201.2258 50.3266
  A 0.26 0.26 0.0 0 0 201.3492 50.6730
  L 206.2814 53.0150
  A 0.26 0.26 0.0 0 0 206.6278 52.8917
  L 207.4342 51.1934
  Z
  M 217.37 59.35
  Q 216.41 60.34 216.67 61.43
  A 1.15 1.14 -84.8 0 0 217.32 62.22
  L 221.18 63.93
  A 0.30 0.30 0.0 0 0 221.52 63.87
  L 223.12 62.27
  A 0.24 0.23 -58.2 0 0 223.03 61.88
  Q 220.48 60.99 218.27 59.02
  Q 219.76 57.50 218.90 55.18
  A 1.20 1.19 -1.0 0 0 218.17 54.48
  L 215.40 53.58
  A 1.63 1.60 -45.6 0 0 214.38 53.60
  Q 212.52 54.28 212.60 55.64
  A 1.16 1.14 -75.6 0 0 213.11 56.52
  L 217.37 59.35
  Z
  M 192.12 61.32
  Q 189.56 60.89 188.17 59.38
  A 1.05 1.04 -52.5 0 0 186.48 59.61
  L 186.05 60.45
  A 1.29 1.27 27.3 0 0 186.61 62.17
  L 189.37 63.59
  A 1.19 1.16 -45.8 0 0 190.51 63.56
  L 192.34 62.50
  A 0.64 0.64 0.0 0 0 192.12 61.32
  Z
  M 203.1246 69.0331
  A 3.30 1.99 -157.8 0 0 205.4281 72.1225
  A 3.30 1.99 -157.8 0 0 209.2354 71.5269
  A 3.30 1.99 -157.8 0 0 206.9319 68.4375
  A 3.30 1.99 -157.8 0 0 203.1246 69.0331
  Z
  M 197.0246 77.4911
  A 3.57 1.82 -157.8 0 0 199.6423 80.5251
  A 3.57 1.82 -157.8 0 0 203.6354 80.1889
  A 3.57 1.82 -157.8 0 0 201.0177 77.1549
  A 3.57 1.82 -157.8 0 0 197.0246 77.4911
  Z"
/>
<path fill="#2e2911" d="
  M 112.96 56.73
  Q 113.90 62.04 110.48 63.35
  Q 108.19 62.80 109.63 58.51
  A 1.77 1.77 0.0 0 0 108.06 56.18
  Q 107.16 56.12 106.67 57.39
  Q 103.25 60.00 100.07 62.59
  Q 96.70 65.33 95.02 65.33
  Q 88.04 65.34 82.59 62.33
  Q 73.50 56.63 65.24 50.77
  Q 65.09 50.67 64.30 50.21
  Q 62.89 49.39 63.58 48.13
  A 0.24 0.24 0.0 0 0 63.30 47.79
  Q 61.97 48.23 61.81 50.43
  Q 61.64 52.68 59.18 56.55
  A 1.07 1.06 17.5 0 1 58.23 57.04
  Q 52.53 56.77 47.56 60.43
  A 0.34 0.34 0.0 0 0 47.47 60.87
  L 48.63 62.88
  A 0.20 0.20 0.0 0 0 48.96 62.91
  Q 51.68 59.50 56.07 59.18
  A 1.01 1.01 0.0 0 1 57.03 60.69
  L 56.67 61.31
  L 54.30 62.70
  C 51.95 63.53 49.84 65.86 47.28 64.88
  A 1.21 1.20 -59.2 0 0 45.95 65.22
  Q 44.52 66.85 41.45 68.02
  Q 41.41 68.04 41.37 68.06
  L 30.97 74.34
  A 0.69 0.69 0.0 0 0 30.93 75.50
  Q 33.09 77.01 34.34 76.09
  A 0.70 0.70 0.0 0 0 34.62 75.53
  Q 34.62 75.49 34.61 75.28
  A 1.28 1.27 -24.9 0 1 34.97 74.30
  Q 37.47 71.76 41.52 70.94
  A 0.51 0.50 1.8 0 1 42.11 71.56
  L 40.14 79.24
  A 0.95 0.95 0.0 0 0 41.72 80.15
  Q 43.21 78.68 44.76 78.59
  A 1.09 1.08 -62.0 0 0 45.21 78.45
  L 47.86 76.92
  Q 49.05 77.74 50.56 77.01
  A 1.28 1.27 -9.4 0 1 52.38 78.31
  Q 51.83 82.82 52.00 89.20
  C 52.08 92.35 52.60 94.21 54.74 96.52
  Q 55.90 97.77 56.20 99.00
  L 34.87 95.75
  A 1.04 1.04 0.0 0 1 34.03 94.47
  L 34.68 91.92
  A 0.73 0.73 0.0 0 0 33.49 91.18
  L 23.78 99.61
  Q 23.52 98.73 23.68 97.99
  Q 25.74 88.80 27.24 79.61
  A 0.68 0.68 0.0 0 0 26.36 78.85
  L 0.85 87.02
  L 32.03 62.58
  Q 34.23 63.97 36.20 65.64
  C 38.19 67.32 39.27 67.36 40.84 65.44
  A 0.69 0.68 -71.7 0 0 40.28 64.32
  Q 36.41 64.51 33.59 61.95
  Q 42.87 58.78 51.87 55.63
  Q 54.20 54.81 54.91 54.10
  A 2.37 2.33 -19.4 0 0 55.45 53.00
  L 56.34 48.19
  A 2.86 2.83 -15.4 0 1 57.29 46.54
  L 61.80 42.70
  L 67.78 38.07
  A 2.31 2.31 0.0 0 1 70.25 37.84
  L 73.39 39.46
  A 0.83 0.83 0.0 0 1 73.35 40.95
  L 62.82 45.68
  A 0.66 0.65 34.7 0 0 63.05 46.93
  C 65.71 47.11 69.54 44.82 72.82 43.08
  Q 74.71 42.08 75.36 41.06
  A 1.58 1.57 -59.1 0 1 77.45 40.53
  Q 94.89 50.18 112.96 56.73
  Z"
/>
<path fill="#2e2911" d="
  M 148.30 48.81
  A 0.40 0.40 0.0 0 1 147.74 48.87
  L 147.63 48.79
  A 3.13 2.51 -51.4 0 1 147.63 44.78
  L 148.10 44.18
  A 3.13 2.51 -51.4 0 1 152.01 43.30
  L 152.12 43.39
  A 0.40 0.40 0.0 0 1 152.18 43.95
  L 148.30 48.81
  Z"
/>
<path fill="#2e2911" d="
  M 152.48 46.57
  A 1.55 1.19 -58.5 0 1 152.76 49.18
  Q 150.52 50.86 149.86 52.37
  A 0.52 0.52 0.0 0 1 148.87 52.25
  Q 148.61 50.76 149.83 48.87
  C 150.51 47.81 151.22 46.62 152.48 46.57
  Z"
/>
<path fill="#090c1c" d="
  M 82.59 62.33
  Q 81.65 72.26 77.87 82.66
  A 0.33 0.33 0.0 0 1 77.26 82.68
  Q 77.24 82.66 77.41 82.47
  A 0.34 0.34 0.0 0 0 77.44 82.04
  Q 75.00 78.49 69.96 76.26
  Q 60.96 72.27 57.31 70.72
  A 1.00 0.98 5.5 0 1 56.73 70.03
  Q 56.10 67.24 56.48 65.94
  Q 57.38 62.83 56.67 61.31
  L 57.03 60.69
  A 1.01 1.01 0.0 0 0 56.07 59.18
  Q 51.68 59.50 48.96 62.91
  A 0.20 0.20 0.0 0 1 48.63 62.88
  L 47.47 60.87
  A 0.34 0.34 0.0 0 1 47.56 60.43
  Q 52.53 56.77 58.23 57.04
  A 1.07 1.06 17.5 0 0 59.18 56.55
  Q 61.64 52.68 61.81 50.43
  Q 61.97 48.23 63.30 47.79
  A 0.24 0.24 0.0 0 1 63.58 48.13
  Q 62.89 49.39 64.30 50.21
  Q 65.09 50.67 65.24 50.77
  Q 73.50 56.63 82.59 62.33
  Z"
/>
<rect fill="#090c1c" x="-2.99" y="-1.20" transform="translate(204.33,50.76) rotate(25.4)" width="5.98" height="2.40" rx="0.26"/>
<path fill="#2e2911" d="
  M 158.60 51.28
  Q 156.82 52.46 155.50 54.86
  A 1.05 1.04 -80.8 0 1 154.77 55.39
  Q 152.97 55.70 151.90 54.60
  A 0.77 0.76 40.4 0 1 151.82 53.64
  Q 153.54 51.18 156.52 49.06
  Q 158.15 49.17 158.60 51.28
  Z"
/>
<path fill="#2e3d5f" d="
  M 121.60 52.11
  Q 118.61 63.68 114.79 75.10
  Q 113.06 80.27 108.99 83.40
  A 1.17 1.11 16.8 0 1 108.61 83.59
  L 104.56 84.84
  A 0.47 0.47 0.0 0 0 104.26 85.10
  Q 104.07 85.56 103.54 85.76
  A 0.23 0.23 0.0 0 1 103.27 85.42
  L 104.85 82.95
  A 1.32 1.21 -30.1 0 0 105.05 82.31
  Q 105.31 77.04 107.26 72.91
  A 0.59 0.59 0.0 0 0 106.49 72.12
  Q 104.66 72.92 103.74 75.14
  A 0.13 0.04 -61.8 0 0 103.73 75.19
  L 101.21 85.00
  A 1.47 1.31 49.2 0 0 101.20 85.64
  Q 101.31 86.18 101.38 86.29
  A 1.31 1.31 0.0 0 1 99.76 88.23
  L 95.15 86.13
  A 0.73 0.64 -36.3 0 0 94.72 86.09
  L 91.08 86.93
  A 0.40 0.40 0.0 0 1 90.61 86.40
  Q 91.45 84.00 93.97 83.12
  A 1.89 1.67 67.6 0 1 96.12 84.18
  Q 96.30 84.58 96.58 84.64
  A 0.58 0.57 23.3 0 0 97.20 84.40
  Q 97.25 84.32 97.32 84.14
  A 0.02 0.02 0.0 0 1 97.35 84.15
  Q 97.34 84.36 97.37 84.40
  A 0.31 0.31 0.0 0 0 97.92 84.18
  Q 97.51 80.43 98.70 78.03
  A 2.80 2.77 59.9 0 0 98.98 76.95
  Q 99.27 72.28 101.85 68.75
  A 1.30 1.30 0.0 0 1 102.71 68.23
  Q 103.92 68.05 106.19 68.36
  C 107.89 68.59 108.38 67.65 109.75 67.63
  A 0.75 0.74 9.0 0 0 110.44 67.13
  Q 111.67 63.63 110.48 63.35
  Q 113.90 62.04 112.96 56.73
  Q 114.92 56.96 115.56 55.16
  Q 118.87 54.18 121.60 52.11
  Z"
/>
<path fill="#2e2911" d="
  M 218.27 59.02
  Q 217.62 59.05 217.37 59.35
  L 213.11 56.52
  A 1.16 1.14 -75.6 0 1 212.60 55.64
  Q 212.52 54.28 214.38 53.60
  A 1.63 1.60 -45.6 0 1 215.40 53.58
  L 218.17 54.48
  A 1.20 1.19 -1.0 0 1 218.90 55.18
  Q 219.76 57.50 218.27 59.02
  Z"
/>
<ellipse fill="#2e3d5f" cx="0.00" cy="0.00" transform="translate(136.23,58.24) rotate(-58.5)" rx="2.47" ry="1.19"/>
<path fill="#2e3d5f" d="
  M 106.67 57.39
  C 105.46 62.90 100.53 66.35 98.52 69.03
  A 13.12 12.94 -12.6 0 0 97.32 70.89
  L 89.08 86.34
  A 1.19 0.88 89.6 0 1 88.89 86.60
  Q 87.32 88.20 87.18 90.36
  A 0.60 0.60 0.0 0 1 86.07 90.63
  Q 85.46 89.65 84.62 89.44
  A 1.00 0.99 -61.1 0 0 83.66 89.72
  C 80.20 93.32 79.00 98.16 77.69 103.41
  Q 74.92 104.54 71.88 103.54
  A 2.10 2.08 -41.5 0 0 70.78 103.48
  Q 69.42 103.78 68.14 104.69
  A 1.63 1.61 42.1 0 1 66.42 104.77
  L 56.20 99.00
  Q 55.90 97.77 54.74 96.52
  C 52.60 94.21 52.08 92.35 52.00 89.20
  Q 51.83 82.82 52.38 78.31
  A 1.28 1.27 -9.4 0 0 50.56 77.01
  Q 49.05 77.74 47.86 76.92
  Q 49.99 74.82 52.34 73.91
  A 2.74 2.73 -1.7 0 0 53.97 72.19
  Q 55.92 66.26 54.30 62.70
  L 56.67 61.31
  Q 57.38 62.83 56.48 65.94
  Q 56.10 67.24 56.73 70.03
  A 1.00 0.98 5.5 0 0 57.31 70.72
  Q 60.96 72.27 69.96 76.26
  Q 75.00 78.49 77.44 82.04
  A 0.34 0.34 0.0 0 1 77.41 82.47
  Q 77.24 82.66 77.26 82.68
  A 0.33 0.33 0.0 0 0 77.87 82.66
  Q 81.65 72.26 82.59 62.33
  Q 88.04 65.34 95.02 65.33
  Q 96.70 65.33 100.07 62.59
  Q 103.25 60.00 106.67 57.39
  Z
  M 82.50 72.56
  L 80.82 75.62
  A 0.33 0.32 -59.2 0 0 80.92 76.05
  L 81.16 76.20
  A 0.07 0.07 0.0 0 0 81.26 76.18
  L 87.04 67.76
  A 0.31 0.30 -56.0 0 0 86.96 67.33
  L 86.70 67.17
  A 0.13 0.11 33.5 0 0 86.54 67.19
  L 82.50 72.56
  L 86.85 65.66
  A 0.65 0.65 0.0 0 0 86.65 64.76
  L 85.95 64.31
  A 0.56 0.56 0.0 0 0 85.12 64.61
  L 82.50 72.56
  Z
  M 83.9028 66.5187
  A 0.26 0.26 0.0 0 0 83.7387 66.1897
  L 83.6628 66.1643
  A 0.26 0.26 0.0 0 0 83.3338 66.3284
  L 80.0972 76.0013
  A 0.26 0.26 0.0 0 0 80.2613 76.3303
  L 80.3372 76.3557
  A 0.26 0.26 0.0 0 0 80.6662 76.1916
  L 83.9028 66.5187
  Z"
/>
<path fill="#2e3d5f" d="
  M 147.31 60.15
  Q 145.60 60.79 143.63 60.29
  Q 143.42 58.93 144.37 57.95
  A 0.94 0.92 27.5 0 1 145.22 57.69
  Q 147.56 58.17 147.31 60.15
  Z"
/>
<path fill="#090c1c" d="
  M 192.12 61.32
  A 0.64 0.64 0.0 0 1 192.34 62.50
  L 190.51 63.56
  A 1.19 1.16 -45.8 0 1 189.37 63.59
  L 186.61 62.17
  A 1.29 1.27 27.3 0 1 186.05 60.45
  L 186.48 59.61
  A 1.05 1.04 -52.5 0 1 188.17 59.38
  Q 189.56 60.89 192.12 61.32
  Z"
/>
<path fill="#090c1c" d="
  M 218.27 59.02
  Q 220.48 60.99 223.03 61.88
  A 0.24 0.23 -58.2 0 1 223.12 62.27
  L 221.52 63.87
  A 0.30 0.30 0.0 0 1 221.18 63.93
  L 217.32 62.22
  A 1.15 1.14 -84.8 0 1 216.67 61.43
  Q 216.41 60.34 217.37 59.35
  Q 217.62 59.05 218.27 59.02
  Z"
/>
<path fill="#090c1c" d="
  M 252.26 63.85
  Q 249.86 63.28 248.97 64.72
  Q 245.82 69.83 242.87 74.01
  A 1.65 1.64 -76.3 0 1 241.76 74.69
  C 238.24 75.19 240.31 78.07 238.79 80.08
  Q 236.52 83.08 232.89 89.86
  Q 232.04 91.43 229.88 92.00
  L 237.96 79.98
  A 0.81 0.81 0.0 0 0 237.72 78.84
  L 237.70 78.82
  A 0.86 0.85 33.0 0 0 236.53 79.06
  L 228.22 91.51
  L 229.09 87.99
  A 0.83 0.82 -62.7 0 0 228.83 87.17
  Q 226.72 85.35 224.20 84.96
  A 0.39 0.38 -69.1 0 1 223.94 84.37
  L 225.37 82.13
  A 0.32 0.31 -57.6 0 1 225.80 82.03
  L 229.52 84.42
  A 2.07 2.06 -57.6 0 0 232.38 83.77
  Q 234.77 79.95 235.07 79.16
  C 235.92 76.98 238.36 77.70 238.90 74.89
  Q 239.16 73.46 240.16 71.97
  Q 243.57 66.80 247.01 61.51
  L 247.81 62.37
  A 0.55 0.55 0.0 0 1 247.74 63.18
  C 247.35 63.48 246.92 63.68 246.59 64.14
  Q 242.77 69.52 240.50 73.19
  A 0.47 0.47 0.0 0 0 241.09 73.86
  L 241.75 73.57
  A 2.70 2.63 3.4 0 0 242.89 72.58
  L 248.96 63.09
  A 0.31 0.29 14.0 0 1 249.19 62.96
  Q 250.86 62.82 252.26 63.85
  Z"
/>
<path fill="#090c1c" d="
  M 33.59 61.95
  Q 36.41 64.51 40.28 64.32
  A 0.69 0.68 -71.7 0 1 40.84 65.44
  C 39.27 67.36 38.19 67.32 36.20 65.64
  Q 34.23 63.97 32.03 62.58
  L 33.59 61.95
  Z"
/>
<path fill="#090c1c" d="
  M 54.30 62.70
  Q 55.92 66.26 53.97 72.19
  A 2.74 2.73 -1.7 0 1 52.34 73.91
  Q 49.99 74.82 47.86 76.92
  L 45.21 78.45
  A 1.09 1.08 -62.0 0 1 44.76 78.59
  Q 43.21 78.68 41.72 80.15
  A 0.95 0.95 0.0 0 1 40.14 79.24
  L 42.11 71.56
  A 0.51 0.50 1.8 0 0 41.52 70.94
  Q 37.47 71.76 34.97 74.30
  A 1.28 1.27 -24.9 0 0 34.61 75.28
  Q 34.62 75.49 34.62 75.53
  A 0.70 0.70 0.0 0 1 34.34 76.09
  Q 33.09 77.01 30.93 75.50
  A 0.69 0.69 0.0 0 1 30.97 74.34
  L 41.37 68.06
  Q 41.41 68.04 41.45 68.02
  Q 44.52 66.85 45.95 65.22
  A 1.21 1.20 -59.2 0 1 47.28 64.88
  C 49.84 65.86 51.95 63.53 54.30 62.70
  Z"
/>
<path fill="#2e2911" d="
  M 252.26 63.85
  L 255.19 65.35
  Q 255.65 66.22 257.03 66.20
  L 257.28 66.46
  Q 257.78 67.33 258.81 67.19
  L 262.46 68.82
  L 262.69 69.35
  C 265.54 70.78 267.81 72.71 270.98 73.37
  A 0.23 0.22 6.4 0 1 271.16 73.59
  Q 271.17 73.65 271.23 73.86
  A 0.36 0.34 -85.0 0 0 271.41 74.09
  L 283.22 80.70
  A 1.40 1.31 65.3 0 0 283.49 80.81
  Q 287.38 81.77 290.30 84.14
  A 1.11 1.11 0.0 0 1 289.64 86.11
  Q 287.11 86.20 285.26 84.06
  A 0.79 0.79 0.0 0 0 283.98 84.18
  L 283.01 85.86
  A 0.88 0.87 -60.3 0 0 283.33 87.05
  L 287.72 89.58
  A 1.06 1.05 -60.8 0 0 289.19 89.16
  Q 289.59 88.38 290.60 87.92
  A 0.62 0.61 65.3 0 1 291.42 88.23
  L 293.35 92.51
  A 0.26 0.25 80.8 0 0 293.57 92.67
  L 294.92 92.81
  A 0.05 0.05 0.0 0 1 294.92 92.91
  L 293.86 93.10
  A 0.72 0.72 0.0 0 0 293.31 94.04
  Q 293.55 94.74 293.34 94.92
  Q 293.40 94.23 293.27 94.06
  A 1.16 1.10 -61.8 0 0 291.26 94.72
  Q 291.05 96.93 289.53 98.65
  C 288.49 99.83 288.56 101.44 287.47 102.31
  A 0.90 0.87 -19.4 0 0 287.12 103.01
  L 287.12 105.30
  A 1.00 1.00 0.0 0 1 286.54 106.21
  Q 282.67 107.98 280.20 104.36
  A 0.54 0.54 0.0 0 0 279.38 104.28
  L 277.35 106.32
  A 0.60 0.60 0.0 0 0 277.50 107.28
  L 282.03 109.61
  A 1.82 1.81 -54.0 0 1 282.48 112.50
  L 281.59 113.38
  A 0.40 0.40 0.0 0 0 281.88 114.06
  Q 284.19 114.05 285.50 115.05
  Q 288.34 117.23 291.17 118.63
  A 0.73 0.73 0.0 0 1 291.57 119.37
  Q 291.24 122.44 290.58 123.90
  Q 286.51 132.92 281.53 140.19
  A 2.29 2.29 0.0 0 1 278.60 140.93
  L 275.56 139.36
  A 1.00 1.00 0.0 0 0 274.26 139.71
  L 270.68 145.31
  A 0.29 0.28 -60.6 0 0 270.79 145.72
  L 271.04 145.85
  A 0.35 0.35 0.0 0 0 271.49 145.73
  L 274.29 141.35
  A 1.34 1.34 0.0 0 1 276.08 140.91
  L 278.97 142.58
  A 1.42 1.42 0.0 0 1 279.30 144.77
  Q 274.64 149.81 273.49 156.05
  L 216.21 126.56
  L 217.14 123.93
  A 0.49 0.48 -69.6 0 0 216.87 123.32
  Q 214.15 122.26 212.11 120.29
  L 216.19 113.99
  A 5.69 5.05 -21.0 0 0 216.63 113.14
  L 218.12 109.48
  A 3.01 2.99 -7.4 0 1 219.14 108.17
  L 220.87 106.91
  A 2.44 2.33 88.6 0 0 221.47 106.25
  L 228.85 93.90
  L 229.88 92.00
  Q 232.04 91.43 232.89 89.86
  Q 236.52 83.08 238.79 80.08
  C 240.31 78.07 238.24 75.19 241.76 74.69
  A 1.65 1.64 -76.3 0 0 242.87 74.01
  Q 245.82 69.83 248.97 64.72
  Q 249.86 63.28 252.26 63.85
  Z
  M 278.67 81.90
  A 0.63 0.63 0.0 0 0 278.37 80.72
  Q 274.94 80.63 273.00 78.20
  A 0.90 0.89 39.4 0 0 271.50 78.34
  L 270.50 80.29
  A 0.68 0.68 0.0 0 0 271.10 81.28
  Q 273.33 81.30 275.57 83.23
  A 0.60 0.58 -38.9 0 0 276.25 83.29
  L 278.67 81.90
  Z
  M 255.85 78.63
  A 0.10 0.10 0.0 0 0 255.75 78.53
  A 0.10 0.10 0.0 0 0 255.65 78.63
  A 0.10 0.10 0.0 0 0 255.75 78.73
  A 0.10 0.10 0.0 0 0 255.85 78.63
  Z
  M 262.33 81.29
  Q 261.10 82.22 260.52 83.54
  A 0.15 0.15 0.0 0 0 260.75 83.71
  Q 261.92 82.76 262.33 81.29
  Q 262.94 80.83 263.13 80.27
  A 0.23 0.23 0.0 0 0 262.77 80.01
  Q 262.25 80.42 262.33 81.29
  Z
  M 252.91 82.23
  Q 252.81 82.23 251.41 82.98
  C 249.87 83.81 248.26 82.32 247.57 81.16
  A 0.52 0.52 0.0 0 0 246.81 81.01
  Q 246.07 81.57 245.49 82.58
  A 0.41 0.40 29.0 0 0 245.66 83.14
  L 249.45 85.09
  A 0.82 0.82 0.0 0 1 249.87 85.62
  L 250.00 86.11
  A 0.46 0.38 -78.7 0 0 250.11 86.31
  Q 250.89 87.12 251.16 85.50
  Q 251.26 84.91 251.62 84.54
  Q 253.00 83.16 253.21 82.77
  A 0.36 0.36 0.0 0 0 252.91 82.23
  Z
  M 259.24 85.32
  A 0.07 0.07 0.0 0 0 259.15 85.34
  L 254.68 91.67
  A 1.54 1.18 82.6 0 0 254.54 91.91
  Q 253.73 93.91 251.88 95.43
  A 0.19 0.18 -33.7 0 0 251.83 95.67
  L 252.00 95.96
  A 0.09 0.09 0.0 0 0 252.14 95.99
  L 253.35 95.05
  A 1.83 1.82 87.2 0 0 253.84 94.51
  L 259.30 85.61
  A 0.22 0.21 -55.1 0 0 259.25 85.32
  L 259.24 85.32
  Z
  M 271.70 91.42
  Q 272.44 90.93 273.01 89.98
  Q 274.58 87.36 275.44 86.55
  A 0.33 0.32 -58.9 0 0 275.31 86.00
  Q 275.09 85.94 274.60 86.15
  A 0.43 0.39 89.5 0 0 274.38 86.40
  Q 273.68 88.50 271.39 91.05
  A 0.25 0.24 -85.4 0 0 271.70 91.42
  Z
  M 266.7430 86.3152
  A 0.55 0.29 -44.4 0 0 266.1471 86.4928
  A 0.55 0.29 -44.4 0 0 265.9570 87.0848
  A 0.55 0.29 -44.4 0 0 266.5529 86.9072
  A 0.55 0.29 -44.4 0 0 266.7430 86.3152
  Z
  M 276.59 95.94
  L 279.28 93.25
  A 0.59 0.58 69.3 0 0 279.45 92.86
  Q 279.53 90.96 281.50 89.31
  A 0.68 0.68 0.0 0 0 281.54 88.32
  L 281.32 88.10
  A 0.79 0.78 -49.1 0 0 280.15 88.19
  Q 278.38 90.54 278.03 92.78
  A 1.90 1.84 69.6 0 1 277.66 93.62
  L 276.04 95.65
  A 0.06 0.05 -49.7 0 0 276.04 95.72
  L 276.26 95.94
  A 0.23 0.23 0.0 0 0 276.59 95.94
  Z
  M 265.2744 88.2774
  A 1.25 0.35 -55.7 0 0 264.2809 89.1128
  A 1.25 0.35 -55.7 0 0 263.8656 90.3426
  A 1.25 0.35 -55.7 0 0 264.8591 89.5072
  A 1.25 0.35 -55.7 0 0 265.2744 88.2774
  Z
  M 236.3296 88.9176
  A 1.89 0.80 -135.6 0 0 237.1203 90.8116
  A 1.89 0.80 -135.6 0 0 239.0304 91.5624
  A 1.89 0.80 -135.6 0 0 238.2397 89.6684
  A 1.89 0.80 -135.6 0 0 236.3296 88.9176
  Z
  M 266.52 94.68
  Q 264.91 94.04 263.50 92.83
  A 1.05 1.05 0.0 0 1 263.18 91.77
  Q 263.21 91.65 263.21 91.63
  A 0.32 0.32 0.0 0 0 262.67 91.37
  Q 262.51 91.54 262.56 92.59
  Q 262.59 93.10 263.09 93.47
  Q 264.40 94.45 266.27 95.16
  A 0.30 0.28 -68.4 0 0 266.64 94.99
  L 266.65 94.97
  A 0.22 0.22 0.0 0 0 266.52 94.68
  Z
  M 287.09 90.94
  C 285.48 91.80 286.75 93.60 284.70 94.13
  A 1.01 1.01 0.0 0 0 283.99 94.80
  Q 283.01 97.85 281.42 99.93
  Q 281.01 100.46 281.11 101.57
  A 0.34 0.34 0.0 0 0 281.73 101.72
  L 288.00 91.93
  A 0.70 0.70 0.0 0 0 287.09 90.94
  Z
  M 255.77 94.12
  Q 256.03 95.03 257.79 96.18
  A 1.08 1.01 9.4 0 1 258.22 96.74
  L 259.01 99.22
  A 0.15 0.14 69.3 0 0 259.20 99.31
  L 259.60 99.13
  A 0.37 0.37 0.0 0 0 259.81 98.72
  Q 259.24 95.74 256.29 93.75
  A 0.34 0.34 0.0 0 0 255.77 94.12
  Z
  M 261.7646 94.2837
  A 1.29 0.35 -31.1 0 0 260.4792 94.6503
  A 1.29 0.35 -31.1 0 0 259.5554 95.6163
  A 1.29 0.35 -31.1 0 0 260.8408 95.2497
  A 1.29 0.35 -31.1 0 0 261.7646 94.2837
  Z
  M 268.28 95.48
  A 0.14 0.14 0.0 0 0 268.14 95.34
  A 0.14 0.14 0.0 0 0 268.00 95.48
  A 0.14 0.14 0.0 0 0 268.14 95.62
  A 0.14 0.14 0.0 0 0 268.28 95.48
  Z
  M 272.99 102.40
  Q 273.64 101.81 273.88 99.88
  A 1.00 0.94 73.4 0 1 274.17 99.30
  L 275.92 97.64
  A 0.13 0.13 0.0 0 0 275.92 97.44
  L 275.60 97.18
  A 0.34 0.34 0.0 0 0 275.18 97.17
  Q 272.93 98.86 272.47 102.12
  A 0.32 0.31 73.4 0 0 272.99 102.40
  Z
  M 240.73 99.70
  Q 239.86 100.83 239.93 102.60
  A 0.17 0.17 0.0 0 0 240.26 102.66
  Q 241.00 101.01 240.73 99.70
  Q 242.27 98.92 242.62 98.61
  Q 243.24 98.04 242.83 97.54
  A 0.38 0.37 -41.4 0 0 242.29 97.51
  Q 241.21 98.52 240.73 99.70
  Z
  M 269.48 99.21
  Q 270.38 99.90 271.69 100.05
  A 0.42 0.42 0.0 0 0 271.87 99.23
  Q 270.66 98.83 269.48 99.21
  L 267.85 97.47
  A 0.45 0.44 61.2 0 0 267.42 97.34
  Q 266.90 97.45 266.84 98.04
  A 0.46 0.45 -80.1 0 0 267.17 98.52
  L 269.48 99.21
  Z
  M 229.24 106.91
  A 0.07 0.06 -51.4 0 0 229.33 106.90
  L 233.82 101.27
  A 1.43 1.10 86.0 0 0 233.96 101.06
  Q 234.82 99.25 236.62 97.94
  A 0.17 0.17 0.0 0 0 236.68 97.72
  L 236.54 97.44
  A 0.09 0.09 0.0 0 0 236.41 97.41
  L 235.24 98.21
  A 1.70 1.70 0.0 0 0 234.76 98.69
  L 229.20 106.64
  A 0.20 0.20 0.0 0 0 229.23 106.91
  L 229.24 106.91
  Z
  M 264.82 100.59
  A 0.21 0.21 0.0 0 0 264.51 100.64
  L 262.05 104.05
  A 0.57 0.51 69.3 0 0 261.96 104.30
  Q 261.80 105.72 260.49 106.28
  A 0.60 0.51 -55.8 0 0 260.61 107.38
  Q 261.23 107.31 261.60 106.51
  Q 262.87 103.80 265.05 100.96
  A 0.16 0.15 -54.4 0 0 265.02 100.74
  L 264.82 100.59
  Z
  M 248.7891 101.0629
  A 1.89 0.36 -51.4 0 0 247.3287 102.3154
  A 1.89 0.36 -51.4 0 0 246.4309 104.0171
  A 1.89 0.36 -51.4 0 0 247.8913 102.7646
  A 1.89 0.36 -51.4 0 0 248.7891 101.0629
  Z
  M 257.03 102.19
  Q 257.64 101.89 257.80 101.62
  A 0.45 0.37 -87.5 0 0 257.32 100.98
  Q 257.16 101.09 256.73 101.86
  A 0.24 0.23 -87.6 0 0 257.03 102.19
  Z
  M 256.2965 102.5801
  A 1.18 0.45 -52.0 0 0 255.2154 103.2330
  A 1.18 0.45 -52.0 0 0 254.8435 104.4399
  A 1.18 0.45 -52.0 0 0 255.9246 103.7870
  A 1.18 0.45 -52.0 0 0 256.2965 102.5801
  Z
  M 272.17 102.82
  A 0.24 0.24 0.0 0 0 271.82 102.90
  L 269.26 107.04
  A 0.66 0.59 65.2 0 0 269.17 107.33
  Q 269.10 108.98 267.64 109.74
  A 0.70 0.60 -59.8 0 0 267.87 111.00
  Q 268.57 110.87 268.94 109.91
  Q 270.18 106.68 272.46 103.22
  A 0.19 0.17 -58.5 0 0 272.41 102.97
  L 272.17 102.82
  Z
  M 245.9531 106.4259
  A 1.33 0.22 -65.9 0 0 245.2092 107.5502
  A 1.33 0.22 -65.9 0 0 244.8669 108.8541
  A 1.33 0.22 -65.9 0 0 245.6108 107.7298
  A 1.33 0.22 -65.9 0 0 245.9531 106.4259
  Z
  M 259.7388 110.0594
  A 0.53 0.31 -45.9 0 0 259.1474 110.2243
  A 0.53 0.31 -45.9 0 0 259.0012 110.8206
  A 0.53 0.31 -45.9 0 0 259.5926 110.6557
  A 0.53 0.31 -45.9 0 0 259.7388 110.0594
  Z
  M 276.4623 110.2995
  A 1.28 0.57 -6.3 0 0 275.1275 109.8734
  A 1.28 0.57 -6.3 0 0 273.9177 110.5805
  A 1.28 0.57 -6.3 0 0 275.2525 111.0066
  A 1.28 0.57 -6.3 0 0 276.4623 110.2995
  Z
  M 274.0755 111.7663
  A 1.17 0.67 -69.2 0 0 273.0337 112.6221
  A 1.17 0.67 -69.2 0 0 273.2445 113.9537
  A 1.17 0.67 -69.2 0 0 274.2863 113.0979
  A 1.17 0.67 -69.2 0 0 274.0755 111.7663
  Z
  M 266.8058 113.3356
  A 0.92 0.59 -24.7 0 0 265.7235 113.1840
  A 0.92 0.59 -24.7 0 0 265.1342 114.1044
  A 0.92 0.59 -24.7 0 0 266.2165 114.2560
  A 0.92 0.59 -24.7 0 0 266.8058 113.3356
  Z
  M 272.73 116.74
  Q 272.75 116.58 271.89 116.01
  A 0.52 0.51 -44.2 0 0 271.32 116.01
  Q 270.67 116.42 270.82 117.00
  A 1.02 0.94 -50.4 0 0 272.73 116.74
  Z
  M 239.5057 116.1324
  A 2.93 0.20 -56.3 0 0 237.7136 118.4590
  A 2.93 0.20 -56.3 0 0 236.2543 121.0076
  A 2.93 0.20 -56.3 0 0 238.0464 118.6810
  A 2.93 0.20 -56.3 0 0 239.5057 116.1324
  Z
  M 247.9371 116.3729
  A 2.71 0.25 -53.1 0 0 246.1101 118.3899
  A 2.71 0.25 -53.1 0 0 244.6829 120.7071
  A 2.71 0.25 -53.1 0 0 246.5099 118.6901
  A 2.71 0.25 -53.1 0 0 247.9371 116.3729
  Z
  M 231.1054 116.6565
  A 2.76 0.22 -56.2 0 0 229.3872 118.8276
  A 2.76 0.22 -56.2 0 0 228.0346 121.2435
  A 2.76 0.22 -56.2 0 0 229.7528 119.0724
  A 2.76 0.22 -56.2 0 0 231.1054 116.6565
  Z
  M 283.47 121.88
  Q 280.31 121.50 278.63 119.64
  A 0.56 0.56 0.0 0 0 277.65 120.07
  Q 277.82 121.88 276.56 121.92
  A 1.13 1.07 -34.2 0 1 276.12 121.85
  L 269.69 119.34
  A 0.26 0.25 23.0 0 0 269.38 119.46
  L 269.27 119.68
  A 0.49 0.48 -64.2 0 0 269.50 120.35
  L 281.20 125.58
  A 2.30 2.29 25.6 0 0 284.17 124.54
  L 284.52 123.85
  A 1.36 1.36 0.0 0 0 283.47 121.88
  Z
  M 268.2451 121.8444
  A 1.27 0.46 -69.0 0 0 267.3606 122.8652
  A 1.27 0.46 -69.0 0 0 267.3349 124.2156
  A 1.27 0.46 -69.0 0 0 268.2194 123.1948
  A 1.27 0.46 -69.0 0 0 268.2451 121.8444
  Z
  M 259.2150 123.7676
  A 3.49 0.32 -60.0 0 0 257.1929 126.6300
  A 3.49 0.32 -60.0 0 0 255.7250 129.8124
  A 3.49 0.32 -60.0 0 0 257.7471 126.9500
  A 3.49 0.32 -60.0 0 0 259.2150 123.7676
  Z
  M 278.84 133.29
  A 0.72 0.71 -57.7 0 0 278.62 132.30
  Q 274.12 129.51 268.86 128.50
  Q 267.95 128.32 266.65 127.15
  A 0.52 0.52 0.0 0 0 265.93 127.17
  L 264.16 128.93
  A 0.49 0.48 36.5 0 0 264.28 129.70
  L 276.35 135.91
  A 0.77 0.76 -59.9 0 0 277.34 135.64
  L 278.84 133.29
  Z"
/>
<path fill="#2e2911" d="
  M 82.50 72.56
  L 85.12 64.61
  A 0.56 0.56 0.0 0 1 85.95 64.31
  L 86.65 64.76
  A 0.65 0.65 0.0 0 1 86.85 65.66
  L 82.50 72.56
  Z"
/>
<path fill="#090c1c" d="
  M 257.03 66.20
  Q 255.65 66.22 255.19 65.35
  Q 256.18 65.47 257.03 66.20
  Z"
/>
<rect fill="#090c1c" x="-0.30" y="-5.36" transform="translate(82.00,71.26) rotate(18.5)" width="0.60" height="10.72" rx="0.26"/>
<path fill="#090c1c" d="
  M 258.81 67.19
  Q 257.78 67.33 257.28 66.46
  Q 258.23 66.58 258.81 67.19
  Z"
/>
<path fill="#090c1c" d="
  M 82.50 72.56
  L 86.54 67.19
  A 0.13 0.11 33.5 0 1 86.70 67.17
  L 86.96 67.33
  A 0.31 0.30 -56.0 0 1 87.04 67.76
  L 81.26 76.18
  A 0.07 0.07 0.0 0 1 81.16 76.20
  L 80.92 76.05
  A 0.33 0.32 -59.2 0 1 80.82 75.62
  L 82.50 72.56
  Z"
/>
<ellipse fill="#2e2911" cx="0.00" cy="0.00" transform="translate(206.18,70.28) rotate(-157.8)" rx="3.30" ry="1.99"/>
<path fill="#090c1c" d="
  M 263.28 69.19
  Q 262.95 69.20 262.69 69.35
  L 262.46 68.82
  Q 262.97 68.87 263.28 69.19
  Z"
/>
<path fill="#2e3d5f" d="
  M 263.28 69.19
  Q 295.65 84.98 328.03 100.77
  Q 329.48 101.48 330.15 102.15
  C 330.97 102.96 332.33 102.78 333.56 103.38
  Q 369.35 120.84 404.99 138.18
  C 400.40 151.31 395.24 164.19 388.70 176.51
  Q 385.32 182.87 382.37 189.38
  A 0.78 0.77 13.9 0 1 381.60 189.84
  Q 379.67 189.67 378.59 190.36
  A 1.20 1.20 0.0 0 0 378.68 192.44
  L 381.86 194.07
  A 0.58 0.57 -68.9 0 1 382.14 194.73
  Q 380.02 202.10 376.46 208.18
  A 0.52 0.51 -60.8 0 1 375.78 208.38
  L 356.91 198.67
  A 0.24 0.17 -10.9 0 0 356.84 198.64
  C 353.53 197.44 351.15 195.59 347.77 194.23
  Q 345.23 193.21 343.45 191.49
  A 3.68 3.63 72.4 0 0 341.61 190.52
  Q 339.10 190.02 336.75 188.36
  A 2.54 2.47 -20.4 0 0 335.82 187.95
  Q 333.47 187.45 331.12 185.58
  A 2.50 2.49 -18.6 0 0 330.23 185.14
  Q 328.12 184.55 326.38 183.62
  Q 315.59 177.82 300.19 170.10
  Q 298.48 169.24 298.44 169.22
  Q 296.47 167.96 294.37 167.87
  A 0.63 0.62 -74.7 0 1 293.85 166.95
  Q 296.50 162.03 299.53 156.77
  Q 300.70 154.75 303.23 153.32
  Q 303.64 154.21 304.76 154.77
  C 306.21 155.49 307.43 154.97 308.10 153.65
  Q 308.50 152.86 307.73 152.01
  Q 306.02 150.14 304.11 150.88
  A 0.69 0.68 -20.7 0 1 303.22 150.48
  Q 302.19 147.67 299.09 149.00
  A 1.51 1.42 60.5 0 0 298.55 151.21
  Q 299.50 152.56 301.04 152.54
  Q 296.92 158.16 293.89 164.91
  A 1.74 1.73 -63.6 0 1 291.48 165.73
  L 273.49 156.05
  Q 274.64 149.81 279.30 144.77
  A 1.42 1.42 0.0 0 0 278.97 142.58
  L 276.08 140.91
  A 1.34 1.34 0.0 0 0 274.29 141.35
  L 271.49 145.73
  A 0.35 0.35 0.0 0 1 271.04 145.85
  L 270.79 145.72
  A 0.29 0.28 -60.6 0 1 270.68 145.31
  L 274.26 139.71
  A 1.00 1.00 0.0 0 1 275.56 139.36
  L 278.60 140.93
  A 2.29 2.29 0.0 0 0 281.53 140.19
  Q 286.51 132.92 290.58 123.90
  Q 291.24 122.44 291.57 119.37
  A 0.73 0.73 0.0 0 0 291.17 118.63
  Q 288.34 117.23 285.50 115.05
  Q 284.19 114.05 281.88 114.06
  A 0.40 0.40 0.0 0 1 281.59 113.38
  L 282.48 112.50
  A 1.82 1.81 -54.0 0 0 282.03 109.61
  L 277.50 107.28
  A 0.60 0.60 0.0 0 1 277.35 106.32
  L 279.38 104.28
  A 0.54 0.54 0.0 0 1 280.20 104.36
  Q 282.67 107.98 286.54 106.21
  A 1.00 1.00 0.0 0 0 287.12 105.30
  L 287.12 103.01
  A 0.90 0.87 -19.4 0 1 287.47 102.31
  C 288.56 101.44 288.49 99.83 289.53 98.65
  Q 291.05 96.93 291.26 94.72
  A 1.16 1.10 -61.8 0 1 293.27 94.06
  Q 293.40 94.23 293.34 94.92
  Q 293.55 94.74 293.31 94.04
  A 0.72 0.72 0.0 0 1 293.86 93.10
  L 294.92 92.91
  A 0.05 0.05 0.0 0 0 294.92 92.81
  L 293.57 92.67
  A 0.26 0.25 80.8 0 1 293.35 92.51
  L 291.42 88.23
  A 0.62 0.61 65.3 0 0 290.60 87.92
  Q 289.59 88.38 289.19 89.16
  A 1.06 1.05 -60.8 0 1 287.72 89.58
  L 283.33 87.05
  A 0.88 0.87 -60.3 0 1 283.01 85.86
  L 283.98 84.18
  A 0.79 0.79 0.0 0 1 285.26 84.06
  Q 287.11 86.20 289.64 86.11
  A 1.11 1.11 0.0 0 0 290.30 84.14
  Q 287.38 81.77 283.49 80.81
  A 1.40 1.31 65.3 0 1 283.22 80.70
  L 271.41 74.09
  A 0.36 0.34 -85.0 0 1 271.23 73.86
  Q 271.17 73.65 271.16 73.59
  A 0.23 0.22 6.4 0 0 270.98 73.37
  C 267.81 72.71 265.54 70.78 262.69 69.35
  Q 262.95 69.20 263.28 69.19
  Z
  M 330.7548 103.9686
  A 0.81 0.81 0.0 0 0 330.4429 102.8664
  L 330.3905 102.8371
  A 0.81 0.81 0.0 0 0 329.2883 103.1490
  L 323.3852 113.7114
  A 0.81 0.81 0.0 0 0 323.6971 114.8136
  L 323.7495 114.8429
  A 0.81 0.81 0.0 0 0 324.8517 114.5310
  L 330.7548 103.9686
  Z
  M 317.7029 115.6207
  A 2.28 1.96 -164.5 0 0 319.3762 118.1187
  A 2.28 1.96 -164.5 0 0 322.0971 116.8393
  A 2.28 1.96 -164.5 0 0 320.4238 114.3413
  A 2.28 1.96 -164.5 0 0 317.7029 115.6207
  Z
  M 327.39 118.66
  A 2.29 2.29 0.0 0 0 325.10 116.37
  A 2.29 2.29 0.0 0 0 322.81 118.66
  A 2.29 2.29 0.0 0 0 325.10 120.95
  A 2.29 2.29 0.0 0 0 327.39 118.66
  Z
  M 312.68 136.51
  Q 313.60 137.80 314.70 136.98
  Q 317.09 135.18 314.07 133.85
  L 321.47 120.53
  A 0.56 0.55 -79.0 0 0 320.92 119.71
  L 320.63 119.74
  A 1.09 1.09 0.0 0 0 319.83 120.27
  L 303.53 148.50
  A 0.74 0.74 0.0 0 0 303.80 149.51
  L 304.08 149.68
  A 1.01 1.01 0.0 0 0 305.46 149.30
  L 312.68 136.51
  Z
  M 342.4007 128.3767
  A 0.66 0.66 0.0 0 0 342.1138 127.4885
  L 336.8259 124.7826
  A 0.66 0.66 0.0 0 0 335.9377 125.0695
  L 334.9993 126.9033
  A 0.66 0.66 0.0 0 0 335.2862 127.7915
  L 340.5741 130.4974
  A 0.66 0.66 0.0 0 0 341.4623 130.2105
  L 342.4007 128.3767
  Z"
/>
<ellipse fill="#2e2911" cx="0.00" cy="0.00" transform="translate(200.33,78.84) rotate(-157.8)" rx="3.57" ry="1.82"/>
<path fill="#2e3d5f" d="
  M 278.67 81.90
  L 276.25 83.29
  A 0.60 0.58 -38.9 0 1 275.57 83.23
  Q 273.33 81.30 271.10 81.28
  A 0.68 0.68 0.0 0 1 270.50 80.29
  L 271.50 78.34
  A 0.90 0.89 39.4 0 1 273.00 78.20
  Q 274.94 80.63 278.37 80.72
  A 0.63 0.63 0.0 0 1 278.67 81.90
  Z"
/>
<circle fill="#2e3d5f" cx="255.75" cy="78.63" r="0.10"/>
<path fill="#090c1c" d="
  M 23.78 99.61
  Q 23.29 99.80 22.96 99.63
  Q 13.58 94.68 4.23 89.67
  Q 3.91 89.49 2.04 88.68
  Q 0.16 87.86 0.85 87.02
  L 26.36 78.85
  A 0.68 0.68 0.0 0 1 27.24 79.61
  Q 25.74 88.80 23.68 97.99
  Q 23.52 98.73 23.78 99.61
  Z"
/>
<path fill="#2e3d5f" d="
  M 262.33 81.29
  Q 262.25 80.42 262.77 80.01
  A 0.23 0.23 0.0 0 1 263.13 80.27
  Q 262.94 80.83 262.33 81.29
  Z"
/>
<path fill="#2e3d5f" d="
  M 253.21 82.77
  Q 253.00 83.16 251.62 84.54
  Q 251.26 84.91 251.16 85.50
  Q 250.89 87.12 250.11 86.31
  A 0.46 0.38 -78.7 0 1 250.00 86.11
  L 249.87 85.62
  A 0.82 0.82 0.0 0 0 249.45 85.09
  L 245.66 83.14
  A 0.41 0.40 29.0 0 1 245.49 82.58
  Q 246.07 81.57 246.81 81.01
  A 0.52 0.52 0.0 0 1 247.57 81.16
  C 248.26 82.32 249.87 83.81 251.41 82.98
  Q 252.81 82.23 252.91 82.23
  A 0.36 0.36 0.0 0 1 253.21 82.77
  Z"
/>
<path fill="#2e3d5f" d="
  M 262.33 81.29
  Q 261.92 82.76 260.75 83.71
  A 0.15 0.15 0.0 0 1 260.52 83.54
  Q 261.10 82.22 262.33 81.29
  Z"
/>
<path fill="#2e3d5f" d="
  M 259.30 85.61
  L 253.84 94.51
  A 1.83 1.82 87.2 0 1 253.35 95.05
  L 252.14 95.99
  A 0.09 0.09 0.0 0 1 252.00 95.96
  L 251.83 95.67
  A 0.19 0.18 -33.7 0 1 251.88 95.43
  Q 253.73 93.91 254.54 91.91
  A 1.54 1.18 82.6 0 1 254.68 91.67
  L 259.15 85.34
  A 0.07 0.07 0.0 0 1 259.24 85.32
  L 259.25 85.32
  A 0.22 0.21 -55.1 0 1 259.30 85.61
  Z"
/>
<path fill="#2e3d5f" d="
  M 271.70 91.42
  A 0.25 0.24 -85.4 0 1 271.39 91.05
  Q 273.68 88.50 274.38 86.40
  A 0.43 0.39 89.5 0 1 274.60 86.15
  Q 275.09 85.94 275.31 86.00
  A 0.33 0.32 -58.9 0 1 275.44 86.55
  Q 274.58 87.36 273.01 89.98
  Q 272.44 90.93 271.70 91.42
  Z"
/>
<ellipse fill="#2e3d5f" cx="0.00" cy="0.00" transform="translate(266.35,86.70) rotate(-44.4)" rx="0.55" ry="0.29"/>
<path fill="#2e2911" d="
  M 125.84 87.02
  L 127.58 89.27
  A 1.07 1.04 32.4 0 1 127.78 90.11
  Q 127.17 93.45 124.87 95.34
  A 0.71 0.70 -26.7 0 1 123.74 94.97
  Q 123.04 92.22 118.63 91.68
  A 0.64 0.64 0.0 0 1 118.14 90.76
  L 118.89 89.30
  A 0.78 0.78 0.0 0 1 120.16 89.13
  Q 121.76 90.92 123.85 90.99
  A 0.90 0.89 13.5 0 0 124.69 90.48
  Q 125.17 89.45 125.12 87.57
  Q 125.39 86.83 125.84 87.02
  Z"
/>
<path fill="#2e3d5f" d="
  M 276.59 95.94
  A 0.23 0.23 0.0 0 1 276.26 95.94
  L 276.04 95.72
  A 0.06 0.05 -49.7 0 1 276.04 95.65
  L 277.66 93.62
  A 1.90 1.84 69.6 0 0 278.03 92.78
  Q 278.38 90.54 280.15 88.19
  A 0.79 0.78 -49.1 0 1 281.32 88.10
  L 281.54 88.32
  A 0.68 0.68 0.0 0 1 281.50 89.31
  Q 279.53 90.96 279.45 92.86
  A 0.59 0.58 69.3 0 1 279.28 93.25
  L 276.59 95.94
  Z"
/>
<ellipse fill="#2e3d5f" cx="0.00" cy="0.00" transform="translate(264.57,89.31) rotate(-55.7)" rx="1.25" ry="0.35"/>
<ellipse fill="#2e3d5f" cx="0.00" cy="0.00" transform="translate(237.68,90.24) rotate(-135.6)" rx="1.89" ry="0.80"/>
<path fill="#2e3d5f" d="
  M 266.52 94.68
  A 0.22 0.22 0.0 0 1 266.65 94.97
  L 266.64 94.99
  A 0.30 0.28 -68.4 0 1 266.27 95.16
  Q 264.40 94.45 263.09 93.47
  Q 262.59 93.10 262.56 92.59
  Q 262.51 91.54 262.67 91.37
  A 0.32 0.32 0.0 0 1 263.21 91.63
  Q 263.21 91.65 263.18 91.77
  A 1.05 1.05 0.0 0 0 263.50 92.83
  Q 264.91 94.04 266.52 94.68
  Z"
/>
<path fill="#2e3d5f" d="
  M 287.09 90.94
  A 0.70 0.70 0.0 0 1 288.00 91.93
  L 281.73 101.72
  A 0.34 0.34 0.0 0 1 281.11 101.57
  Q 281.01 100.46 281.42 99.93
  Q 283.01 97.85 283.99 94.80
  A 1.01 1.01 0.0 0 1 284.70 94.13
  C 286.75 93.60 285.48 91.80 287.09 90.94
  Z"
/>
<path fill="#2e3d5f" d="
  M 256.29 93.75
  Q 259.24 95.74 259.81 98.72
  A 0.37 0.37 0.0 0 1 259.60 99.13
  L 259.20 99.31
  A 0.15 0.14 69.3 0 1 259.01 99.22
  L 258.22 96.74
  A 1.08 1.01 9.4 0 0 257.79 96.18
  Q 256.03 95.03 255.77 94.12
  A 0.34 0.34 0.0 0 1 256.29 93.75
  Z"
/>
<ellipse fill="#2e3d5f" cx="0.00" cy="0.00" transform="translate(260.66,94.95) rotate(-31.1)" rx="1.29" ry="0.35"/>
<circle fill="#2e3d5f" cx="268.14" cy="95.48" r="0.14"/>
<path fill="#2e3d5f" d="
  M 272.99 102.40
  A 0.32 0.31 73.4 0 1 272.47 102.12
  Q 272.93 98.86 275.18 97.17
  A 0.34 0.34 0.0 0 1 275.60 97.18
  L 275.92 97.44
  A 0.13 0.13 0.0 0 1 275.92 97.64
  L 274.17 99.30
  A 1.00 0.94 73.4 0 0 273.88 99.88
  Q 273.64 101.81 272.99 102.40
  Z"
/>
<path fill="#2e3d5f" d="
  M 240.73 99.70
  Q 241.21 98.52 242.29 97.51
  A 0.38 0.37 -41.4 0 1 242.83 97.54
  Q 243.24 98.04 242.62 98.61
  Q 242.27 98.92 240.73 99.70
  Z"
/>
<path fill="#2e3d5f" d="
  M 269.48 99.21
  L 267.17 98.52
  A 0.46 0.45 -80.1 0 1 266.84 98.04
  Q 266.90 97.45 267.42 97.34
  A 0.45 0.44 61.2 0 1 267.85 97.47
  L 269.48 99.21
  Z"
/>
<path fill="#2e3d5f" d="
  M 229.24 106.91
  L 229.23 106.91
  A 0.20 0.20 0.0 0 1 229.20 106.64
  L 234.76 98.69
  A 1.70 1.70 0.0 0 1 235.24 98.21
  L 236.41 97.41
  A 0.09 0.09 0.0 0 1 236.54 97.44
  L 236.68 97.72
  A 0.17 0.17 0.0 0 1 236.62 97.94
  Q 234.82 99.25 233.96 101.06
  A 1.43 1.10 86.0 0 1 233.82 101.27
  L 229.33 106.90
  A 0.07 0.06 -51.4 0 1 229.24 106.91
  Z"
/>
<path fill="#2e3d5f" d="
  M 269.48 99.21
  Q 270.66 98.83 271.87 99.23
  A 0.42 0.42 0.0 0 1 271.69 100.05
  Q 270.38 99.90 269.48 99.21
  Z"
/>
<path fill="#2e3d5f" d="
  M 240.73 99.70
  Q 241.00 101.01 240.26 102.66
  A 0.17 0.17 0.0 0 1 239.93 102.60
  Q 239.86 100.83 240.73 99.70
  Z"
/>
<path fill="#2e3d5f" d="
  M 264.82 100.59
  L 265.02 100.74
  A 0.16 0.15 -54.4 0 1 265.05 100.96
  Q 262.87 103.80 261.60 106.51
  Q 261.23 107.31 260.61 107.38
  A 0.60 0.51 -55.8 0 1 260.49 106.28
  Q 261.80 105.72 261.96 104.30
  A 0.57 0.51 69.3 0 1 262.05 104.05
  L 264.51 100.64
  A 0.21 0.21 0.0 0 1 264.82 100.59
  Z"
/>
<ellipse fill="#2e3d5f" cx="0.00" cy="0.00" transform="translate(247.61,102.54) rotate(-51.4)" rx="1.89" ry="0.36"/>
<path fill="#2e3d5f" d="
  M 256.73 101.86
  Q 257.16 101.09 257.32 100.98
  A 0.45 0.37 -87.5 0 1 257.80 101.62
  Q 257.64 101.89 257.03 102.19
  A 0.24 0.23 -87.6 0 1 256.73 101.86
  Z"
/>
<ellipse fill="#2e3d5f" cx="0.00" cy="0.00" transform="translate(255.57,103.51) rotate(-52.0)" rx="1.18" ry="0.45"/>
<path fill="#2e3d5f" d="
  M 272.17 102.82
  L 272.41 102.97
  A 0.19 0.17 -58.5 0 1 272.46 103.22
  Q 270.18 106.68 268.94 109.91
  Q 268.57 110.87 267.87 111.00
  A 0.70 0.60 -59.8 0 1 267.64 109.74
  Q 269.10 108.98 269.17 107.33
  A 0.66 0.59 65.2 0 1 269.26 107.04
  L 271.82 102.90
  A 0.24 0.24 0.0 0 1 272.17 102.82
  Z"
/>
<ellipse fill="#2e3d5f" cx="0.00" cy="0.00" transform="translate(245.41,107.64) rotate(-65.9)" rx="1.33" ry="0.22"/>
<ellipse fill="#2e3d5f" cx="0.00" cy="0.00" transform="translate(259.37,110.44) rotate(-45.9)" rx="0.53" ry="0.31"/>
<ellipse fill="#2e3d5f" cx="0.00" cy="0.00" transform="translate(275.19,110.44) rotate(-6.3)" rx="1.28" ry="0.57"/>
<ellipse fill="#2e3d5f" cx="0.00" cy="0.00" transform="translate(273.66,112.86) rotate(-69.2)" rx="1.17" ry="0.67"/>
<ellipse fill="#2e3d5f" cx="0.00" cy="0.00" transform="translate(265.97,113.72) rotate(-24.7)" rx="0.92" ry="0.59"/>
<ellipse fill="#2e2911" cx="0.00" cy="0.00" transform="translate(319.90,116.23) rotate(-164.5)" rx="2.28" ry="1.96"/>
<path fill="#2e3d5f" d="
  M 272.73 116.74
  A 1.02 0.94 -50.4 0 1 270.82 117.00
  Q 270.67 116.42 271.32 116.01
  A 0.52 0.51 -44.2 0 1 271.89 116.01
  Q 272.75 116.58 272.73 116.74
  Z"
/>
<ellipse fill="#2e3d5f" cx="0.00" cy="0.00" transform="translate(237.88,118.57) rotate(-56.3)" rx="2.93" ry="0.20"/>
<circle fill="#2e2911" cx="325.10" cy="118.66" r="2.29"/>
<ellipse fill="#2e3d5f" cx="0.00" cy="0.00" transform="translate(246.31,118.54) rotate(-53.1)" rx="2.71" ry="0.25"/>
<ellipse fill="#2e3d5f" cx="0.00" cy="0.00" transform="translate(229.57,118.95) rotate(-56.2)" rx="2.76" ry="0.22"/>
<path fill="#2e3d5f" d="
  M 283.47 121.88
  A 1.36 1.36 0.0 0 1 284.52 123.85
  L 284.17 124.54
  A 2.30 2.29 25.6 0 1 281.20 125.58
  L 269.50 120.35
  A 0.49 0.48 -64.2 0 1 269.27 119.68
  L 269.38 119.46
  A 0.26 0.25 23.0 0 1 269.69 119.34
  L 276.12 121.85
  A 1.13 1.07 -34.2 0 0 276.56 121.92
  Q 277.82 121.88 277.65 120.07
  A 0.56 0.56 0.0 0 1 278.63 119.64
  Q 280.31 121.50 283.47 121.88
  Z"
/>
<path fill="#2e3d5f" d="
  M 212.11 120.29
  Q 214.15 122.26 216.87 123.32
  A 0.49 0.48 -69.6 0 1 217.14 123.93
  L 216.21 126.56
  L 211.42 124.25
  A 1.06 1.03 -88.1 0 1 210.89 123.67
  Q 210.24 121.96 212.11 120.29
  Z"
/>
<ellipse fill="#2e3d5f" cx="0.00" cy="0.00" transform="translate(267.79,123.03) rotate(-69.0)" rx="1.27" ry="0.46"/>
<ellipse fill="#2e3d5f" cx="0.00" cy="0.00" transform="translate(257.47,126.79) rotate(-60.0)" rx="3.49" ry="0.32"/>
<rect fill="#090c1c" x="-3.63" y="-1.69" transform="translate(338.70,127.64) rotate(27.1)" width="7.26" height="3.38" rx="0.66"/>
<path fill="#2e3d5f" d="
  M 278.84 133.29
  L 277.34 135.64
  A 0.77 0.76 -59.9 0 1 276.35 135.91
  L 264.28 129.70
  A 0.49 0.48 36.5 0 1 264.16 128.93
  L 265.93 127.17
  A 0.52 0.52 0.0 0 1 266.65 127.15
  Q 267.95 128.32 268.86 128.50
  Q 274.12 129.51 278.62 132.30
  A 0.72 0.71 -57.7 0 1 278.84 133.29
  Z"
/>
<path fill="#2e2911" d="
  M 312.68 136.51
  Q 313.62 135.30 314.07 133.85
  Q 317.09 135.18 314.70 136.98
  Q 313.60 137.80 312.68 136.51
  Z"
/>
<path fill="#2e2911" d="
  M 303.23 153.32
  Q 302.90 152.00 301.04 152.54
  Q 299.50 152.56 298.55 151.21
  A 1.51 1.42 60.5 0 1 299.09 149.00
  Q 302.19 147.67 303.22 150.48
  A 0.69 0.68 -20.7 0 0 304.11 150.88
  Q 306.02 150.14 307.73 152.01
  Q 308.50 152.86 308.10 153.65
  C 307.43 154.97 306.21 155.49 304.76 154.77
  Q 303.64 154.21 303.23 153.32
  Z"
/>
<ellipse fill="#2e3d5f" cx="0.00" cy="0.00" transform="translate(408.37,159.98) rotate(-140.3)" rx="2.37" ry="1.84"/>
<ellipse fill="#2e2911" cx="0.00" cy="0.00" transform="translate(413.68,162.55) rotate(-162.4)" rx="2.22" ry="1.82"/>
<path fill="#2e2911" d="
  M 402.16 178.02
  Q 401.44 178.81 401.26 179.72
  Q 400.01 180.17 399.18 179.36
  A 1.18 1.18 0.0 0 1 399.63 177.39
  Q 400.84 176.98 402.16 178.02
  Z"
/>
<path fill="#2e2911" d="
  M 403.86 179.49
  Q 404.34 179.39 404.83 179.44
  Q 405.43 179.50 405.61 179.90
  Q 406.07 180.93 405.65 182.17
  A 1.11 1.10 -50.3 0 1 403.64 182.36
  Q 403.29 181.74 403.43 180.21
  L 403.86 179.49
  Z"
/>
<path fill="#2e3d5f" d="
  M 389.35 198.00
  A 0.72 0.72 0.0 0 1 388.86 197.10
  L 388.91 196.94
  A 2.93 2.51 -73.4 0 1 392.15 194.85
  L 392.44 194.93
  A 2.93 2.51 -73.4 0 1 394.01 198.46
  L 393.96 198.62
  A 0.72 0.72 0.0 0 1 393.06 199.10
  L 389.35 198.00
  Z"
/>
<ellipse fill="#2e3d5f" cx="0.00" cy="0.00" transform="translate(396.82,199.56) rotate(-142.6)" rx="2.55" ry="1.92"/>
</svg>
