<?xml version="1.0" encoding="UTF-8" standalone="no"?>
<svg xmlns="http://www.w3.org/2000/svg" version="1.2" baseProfile="tiny" viewBox="0.00 0.00 512.00 265.00" width="512.00" height="265.00">
<path fill="#5a310b" d="
  M 138.35 13.19
  Q 137.42 12.94 137.16 14.05
  A 0.57 0.57 0.0 0 0 137.51 14.71
  L 142.36 16.58
  Q 144.48 15.54 145.52 12.57
  A 1.36 1.36 0.0 0 1 147.80 12.08
  Q 148.72 13.06 148.66 13.49
  Q 148.56 14.17 147.55 14.69
  Q 145.79 15.60 144.73 17.55
  A 1.66 1.66 0.0 0 0 144.87 19.36
  Q 148.04 23.53 149.60 28.30
  C 150.60 31.35 152.18 33.54 155.45 32.82
  A 0.96 0.96 0.0 0 1 156.55 34.11
  Q 154.67 38.76 151.30 42.23
  Q 151.51 42.65 151.73 43.06
  Q 149.76 42.32 148.98 43.19
  Q 144.97 47.71 148.18 48.70
  L 146.01 49.95
  A 0.46 0.46 0.0 0 1 145.33 49.43
  L 146.48 44.93
  A 0.50 0.50 0.0 0 0 145.83 44.33
  L 145.53 44.43
  A 0.59 0.59 0.0 0 1 144.78 44.06
  L 141.61 34.80
  A 1.13 1.13 0.0 0 0 140.95 34.11
  Q 139.74 33.64 138.30 34.87
  C 135.98 34.49 135.56 36.03 136.13 37.95
  Q 136.76 40.08 136.76 41.41
  A 1.02 1.01 75.5 0 1 136.24 42.30
  Q 135.36 42.78 135.69 43.88
  A 0.69 0.69 0.0 0 0 136.42 44.37
  Q 137.36 44.28 138.13 44.80
  A 1.09 1.07 16.5 0 1 138.60 45.65
  Q 138.68 47.54 139.80 48.86
  L 138.59 49.21
  A 0.46 0.46 0.0 0 0 138.27 49.57
  Q 138.18 50.02 137.65 50.14
  Q 137.33 50.21 136.87 50.03
  Q 135.77 49.61 135.04 49.54
  A 0.17 0.17 0.0 0 0 134.87 49.77
  L 135.04 50.28
  A 0.47 0.47 0.0 0 1 134.75 50.88
  L 132.59 51.62
  A 0.04 0.04 0.0 0 0 132.59 51.70
  L 133.24 51.87
  A 0.71 0.70 -60.6 0 1 133.57 53.05
  L 131.82 54.79
  A 1.75 1.74 -36.3 0 1 129.04 54.37
  Q 127.91 52.22 124.24 50.75
  A 0.35 0.34 11.7 0 0 123.76 51.06
  Q 123.73 52.79 122.44 53.24
  A 0.50 0.49 77.9 0 1 121.78 52.81
  L 121.61 50.78
  Q 121.39 49.81 120.78 49.63
  Q 114.08 47.61 108.25 44.64
  Q 107.66 44.34 105.37 44.89
  A 1.37 1.35 -37.1 0 1 104.44 44.77
  Q 103.56 44.32 103.79 43.71
  Q 104.15 42.79 103.13 42.26
  Q 95.17 38.14 87.32 34.41
  Q 86.43 33.60 85.00 33.38
  A 1.71 1.70 -19.4 0 1 84.14 32.97
  Q 83.25 32.18 82.37 31.99
  L 69.73 25.97
  A 1.50 1.50 0.0 0 0 67.66 27.81
  L 68.25 29.53
  A 6.93 6.92 4.3 0 0 71.63 33.45
  C 78.00 36.74 87.16 41.98 96.25 46.08
  Q 105.93 50.45 115.57 55.16
  Q 115.03 56.69 113.22 56.86
  A 1.48 1.44 62.2 0 1 112.12 56.50
  Q 109.93 54.57 107.30 54.64
  A 4.33 4.24 -32.1 0 1 105.28 54.20
  L 77.05 40.60
  A 1.37 1.36 -59.5 0 0 75.34 41.05
  C 74.28 42.58 72.47 43.21 71.08 43.96
  Q 68.12 45.56 65.16 46.73
  Q 61.38 47.46 62.79 45.65
  L 73.18 40.99
  A 0.94 0.93 -44.2 0 0 73.21 39.29
  L 70.24 37.86
  A 2.43 2.40 -50.8 0 0 67.71 38.13
  L 61.79 42.69
  L 64.10 33.76
  A 1.21 1.21 0.0 0 0 63.96 32.82
  L 62.19 29.90
  A 1.39 1.39 0.0 0 1 62.54 28.07
  L 65.43 25.91
  A 0.77 0.73 80.8 0 0 65.70 25.51
  L 67.27 19.38
  A 2.85 2.83 -2.4 0 1 69.09 17.41
  L 73.04 16.06
  A 1.72 1.68 47.8 0 1 74.34 16.14
  L 84.86 21.21
  A 1.59 1.47 -30.8 0 0 85.57 21.36
  Q 87.51 21.31 89.15 19.44
  A 0.68 0.68 0.0 0 1 89.99 19.29
  Q 90.97 19.84 92.96 18.72
  C 95.39 17.35 99.11 16.05 97.51 12.68
  A 1.49 1.48 58.5 0 1 97.94 10.87
  Q 102.15 7.60 106.72 6.67
  C 109.20 6.17 111.01 5.48 113.65 4.50
  A 0.68 0.67 64.3 0 1 114.47 4.79
  L 116.14 7.64
  A 1.57 1.57 0.0 0 0 119.00 6.41
  Q 118.99 6.36 118.56 5.38
  A 1.26 1.24 -46.0 0 1 118.55 4.43
  Q 119.16 2.97 118.32 1.20
  A 0.50 0.50 0.0 0 1 118.67 0.50
  Q 119.78 0.26 120.62 0.50
  A 0.31 0.31 0.0 0 1 120.74 1.03
  Q 118.47 2.97 119.97 6.07
  A 0.62 0.62 0.0 0 0 120.80 6.36
  Q 123.27 5.16 123.66 3.00
  A 1.31 1.30 -52.8 0 1 126.12 2.66
  L 127.05 4.60
  A 0.97 0.97 0.0 0 0 127.44 5.02
  Q 131.16 7.19 135.67 9.07
  Q 138.32 10.18 138.35 13.19
  Z
  M 119.28 7.98
  Q 117.72 10.41 115.11 11.74
  A 1.53 1.53 0.0 0 0 115.08 14.46
  L 125.76 20.14
  A 1.58 1.57 30.9 0 0 127.80 19.63
  L 132.67 12.37
  A 0.57 0.56 24.1 0 0 132.34 11.51
  L 129.19 10.71
  A 0.98 0.97 -4.6 0 1 128.56 10.18
  Q 127.80 8.56 125.58 7.54
  A 1.98 1.94 -32.4 0 0 124.78 7.37
  L 120.40 7.37
  A 1.33 1.32 16.1 0 0 119.28 7.98
  Z
  M 85.8952 22.4450
  A 2.95 1.50 -150.0 0 0 87.7000 25.2190
  A 2.95 1.50 -150.0 0 0 91.0048 25.3950
  A 2.95 1.50 -150.0 0 0 89.2000 22.6210
  A 2.95 1.50 -150.0 0 0 85.8952 22.4450
  Z
  M 110.3752 22.8314
  A 2.57 1.14 -88.1 0 0 109.1506 25.3622
  A 2.57 1.14 -88.1 0 0 110.2048 27.9686
  A 2.57 1.14 -88.1 0 0 111.4294 25.4378
  A 2.57 1.14 -88.1 0 0 110.3752 22.8314
  Z
  M 111.82 35.29
  Q 111.55 33.44 109.32 32.84
  Q 105.96 31.93 103.33 30.77
  A 0.32 0.32 0.0 0 0 102.92 31.22
  L 103.16 31.65
  A 0.97 0.92 0.7 0 0 103.58 32.06
  L 110.88 35.95
  A 0.64 0.64 0.0 0 0 111.82 35.29
  Z
  M 135.0973 44.4889
  A 0.92 0.92 0.0 0 0 133.8016 44.3710
  L 133.7401 44.4222
  A 0.92 0.92 0.0 0 0 133.6222 45.7179
  L 136.1827 48.7911
  A 0.92 0.92 0.0 0 0 137.4784 48.9090
  L 137.5399 48.8578
  A 0.92 0.92 0.0 0 0 137.6578 47.5621
  L 135.0973 44.4889
  Z"
/>
<path fill="#c8a041" d="
  M 120.40 7.37
  L 124.78 7.37
  A 1.98 1.94 -32.4 0 1 125.58 7.54
  Q 127.80 8.56 128.56 10.18
  A 0.98 0.97 -4.6 0 0 129.19 10.71
  L 132.34 11.51
  A 0.57 0.56 24.1 0 1 132.67 12.37
  L 127.80 19.63
  A 1.58 1.57 30.9 0 1 125.76 20.14
  L 115.08 14.46
  A 1.53 1.53 0.0 0 1 115.11 11.74
  Q 117.72 10.41 119.28 7.98
  A 1.33 1.32 16.1 0 1 120.40 7.37
  Z"
/>
<path fill="#d4d5bc" d="
  M 89.98 18.23
  L 89.23 18.28
  Q 88.83 17.99 88.83 17.76
  Q 88.29 16.95 88.13 16.15
  A 1.45 1.44 51.5 0 1 88.22 15.32
  L 89.35 12.64
  Q 90.55 12.76 90.78 16.49
  Q 90.82 17.03 89.98 18.23
  Z"
/>
<path fill="#aae8fb" d="
  M 89.35 12.64
  L 88.22 15.32
  A 1.45 1.44 51.5 0 0 88.13 16.15
  Q 88.29 16.95 88.83 17.76
  Q 87.38 17.27 86.63 16.40
  A 0.79 0.78 38.4 0 1 86.52 15.54
  Q 87.20 14.21 89.35 12.64
  Z"
/>
<path fill="#d4d5bc" d="
  M 138.35 13.19
  L 142.36 16.58
  L 137.51 14.71
  A 0.57 0.57 0.0 0 1 137.16 14.05
  Q 137.42 12.94 138.35 13.19
  Z"
/>
<path fill="#5a310b" d="
  M 89.98 18.23
  Q 90.03 18.54 89.74 18.58
  Q 89.22 18.67 89.23 18.28
  L 89.98 18.23
  Z"
/>
<ellipse fill="#c8a041" cx="0.00" cy="0.00" transform="translate(88.45,23.92) rotate(-150.0)" rx="2.95" ry="1.50"/>
<ellipse fill="#d4d5bc" cx="0.00" cy="0.00" transform="translate(110.29,25.40) rotate(-88.1)" rx="2.57" ry="1.14"/>
<path fill="#d4d5bc" d="
  M 82.37 31.99
  Q 82.47 33.77 83.28 34.72
  A 1.10 1.10 0.0 0 0 84.12 35.11
  Q 85.68 35.08 87.32 34.41
  Q 95.17 38.14 103.13 42.26
  Q 104.15 42.79 103.79 43.71
  Q 103.56 44.32 104.44 44.77
  A 1.37 1.35 -37.1 0 0 105.37 44.89
  Q 107.66 44.34 108.25 44.64
  Q 114.08 47.61 120.78 49.63
  Q 121.39 49.81 121.61 50.78
  Q 121.50 51.44 121.61 52.11
  Q 118.83 54.19 115.57 55.16
  Q 105.93 50.45 96.25 46.08
  C 87.16 41.98 78.00 36.74 71.63 33.45
  A 6.93 6.92 4.3 0 1 68.25 29.53
  L 67.66 27.81
  A 1.50 1.50 0.0 0 1 69.73 25.97
  L 82.37 31.99
  Z"
/>
<path fill="#c8a041" d="
  M 111.82 35.29
  A 0.64 0.64 0.0 0 1 110.88 35.95
  L 103.58 32.06
  A 0.97 0.92 0.7 0 1 103.16 31.65
  L 102.92 31.22
  A 0.32 0.32 0.0 0 1 103.33 30.77
  Q 105.96 31.93 109.32 32.84
  Q 111.55 33.44 111.82 35.29
  Z"
/>
<path fill="#aae8fb" d="
  M 87.32 34.41
  Q 85.68 35.08 84.12 35.11
  A 1.10 1.10 0.0 0 1 83.28 34.72
  Q 82.47 33.77 82.37 31.99
  Q 83.25 32.18 84.14 32.97
  A 1.71 1.70 -19.4 0 0 85.00 33.38
  Q 86.43 33.60 87.32 34.41
  Z"
/>
<path fill="#2e2911" d="
  M 148.18 48.70
  C 149.60 47.22 152.22 45.11 151.73 43.06
  Q 151.51 42.65 151.30 42.23
  L 156.49 49.08
  Q 153.55 51.17 151.82 53.64
  A 0.77 0.76 40.4 0 0 151.90 54.60
  Q 152.97 55.70 154.77 55.39
  A 1.05 1.04 -80.8 0 0 155.50 54.86
  Q 156.82 52.46 158.60 51.28
  L 161.10 53.20
  C 158.62 53.59 157.17 56.41 155.65 58.18
  A 1.39 1.38 -24.2 0 0 155.31 59.06
  L 155.22 62.05
  Q 154.56 60.16 153.07 59.73
  Q 153.27 59.14 153.90 58.43
  A 0.67 0.67 0.0 0 0 153.69 57.38
  L 151.65 56.40
  A 0.90 0.90 0.0 0 0 150.50 56.73
  C 149.63 58.09 150.20 59.49 149.02 60.50
  L 147.28 60.19
  Q 147.60 58.17 145.22 57.69
  A 0.95 0.95 0.0 0 0 144.36 57.95
  Q 143.42 58.93 143.63 60.29
  L 138.07 65.54
  A 1.39 1.38 -43.4 0 0 138.01 67.49
  L 141.53 71.22
  A 0.85 0.72 -4.9 0 0 141.80 71.41
  L 143.39 72.08
  A 1.14 1.14 0.0 0 1 144.06 73.43
  Q 143.37 76.04 141.72 78.05
  A 0.91 0.90 43.0 0 1 140.36 78.09
  L 138.00 75.61
  Q 137.66 75.13 137.74 74.43
  Q 138.78 75.52 139.81 75.02
  A 1.65 1.65 0.0 0 0 140.56 72.73
  Q 139.37 70.56 137.33 69.08
  A 0.57 0.57 0.0 0 0 136.49 69.28
  Q 136.16 69.91 136.52 71.03
  Q 135.91 71.22 135.53 71.08
  Q 135.08 70.92 135.09 70.27
  Q 135.10 69.45 135.13 68.48
  A 0.31 0.30 -81.9 0 0 134.90 68.17
  L 134.53 68.08
  A 0.34 0.33 -77.0 0 0 134.12 68.34
  Q 133.87 69.77 133.56 70.06
  Q 129.41 73.89 126.19 76.98
  A 1.42 1.42 0.0 0 0 126.70 79.35
  Q 129.47 80.33 132.14 82.45
  Q 129.48 84.16 126.75 85.51
  Q 125.76 86.00 125.86 87.04
  Q 125.42 86.81 125.11 87.54
  Q 123.35 87.04 120.55 87.62
  A 2.02 1.97 -35.0 0 1 119.15 87.39
  L 118.82 87.21
  A 0.83 0.83 0.0 0 0 117.77 87.39
  Q 116.29 89.14 116.68 90.87
  A 0.69 0.68 68.7 0 1 116.36 91.61
  Q 115.47 92.12 115.35 92.68
  Q 114.69 95.86 113.65 99.14
  Q 113.01 101.19 110.77 101.55
  Q 100.63 103.17 98.78 103.62
  A 1.98 1.92 -39.0 0 1 97.55 103.51
  Q 95.60 102.64 94.02 101.51
  Q 93.21 100.94 92.76 101.27
  A 1.89 1.86 -37.3 0 0 92.37 103.97
  Q 92.93 104.66 93.93 105.85
  Q 90.76 106.48 90.62 107.87
  L 89.98 105.49
  A 1.23 1.21 -39.7 0 1 90.07 104.60
  Q 90.92 102.93 91.07 101.86
  A 1.90 1.90 0.0 0 0 90.14 99.96
  L 86.61 97.92
  A 0.63 0.62 14.5 0 0 85.67 98.47
  Q 85.71 100.91 82.37 104.10
  A 1.37 1.36 39.5 0 1 80.68 104.26
  Q 79.31 103.36 77.70 103.41
  Q 79.01 98.05 81.13 92.87
  Q 81.34 92.38 83.48 89.84
  A 1.21 1.21 0.0 0 1 84.44 89.42
  Q 85.32 89.46 86.03 90.61
  A 0.63 0.63 0.0 0 0 87.19 90.31
  Q 87.31 88.17 88.97 86.51
  A 0.25 0.17 -16.8 0 0 89.04 86.42
  L 97.33 70.83
  A 10.54 10.19 -11.8 0 1 98.54 69.05
  Q 99.08 68.38 104.02 63.03
  Q 105.47 61.46 106.81 57.18
  A 1.34 1.34 0.0 0 1 108.60 56.35
  L 108.65 56.36
  A 1.86 1.84 18.4 0 1 109.64 58.32
  L 109.02 61.85
  A 0.92 0.92 0.0 0 0 109.50 62.83
  L 110.88 63.57
  A 0.59 0.59 0.0 0 1 111.17 64.24
  L 110.45 67.07
  A 0.75 0.74 8.5 0 1 109.69 67.63
  C 108.52 67.58 108.06 68.48 106.54 68.34
  Q 104.54 68.16 102.33 68.24
  Q 99.24 71.84 99.09 76.77
  L 97.62 81.91
  A 1.74 1.74 0.0 0 1 95.69 83.15
  Q 92.28 82.62 90.62 86.30
  A 0.45 0.45 0.0 0 0 91.13 86.92
  L 94.72 86.09
  A 0.76 0.69 48.0 0 1 95.20 86.14
  L 99.76 88.24
  A 1.31 1.31 0.0 0 0 101.38 86.29
  Q 101.31 86.19 101.20 85.64
  A 1.47 1.31 49.2 0 1 101.21 85.00
  L 103.73 75.19
  A 0.13 0.04 -61.8 0 1 103.74 75.14
  Q 104.66 72.92 106.49 72.12
  A 0.59 0.59 0.0 0 1 107.26 72.91
  Q 105.32 77.02 105.06 82.26
  A 1.78 1.76 -26.4 0 1 104.76 83.14
  L 103.25 85.40
  A 0.24 0.24 0.0 0 0 103.53 85.76
  Q 104.08 85.56 104.25 85.14
  A 0.51 0.50 2.2 0 1 104.59 84.83
  L 108.59 83.59
  A 1.54 1.51 -72.1 0 0 109.05 83.35
  Q 113.07 80.24 114.79 75.10
  Q 118.60 63.68 121.61 52.11
  Q 121.50 51.44 121.61 50.78
  L 121.78 52.81
  A 0.50 0.49 77.9 0 0 122.44 53.24
  Q 123.73 52.79 123.76 51.06
  A 0.35 0.34 11.7 0 1 124.24 50.75
  Q 127.91 52.22 129.04 54.37
  A 1.75 1.74 -36.3 0 0 131.82 54.79
  L 133.57 53.05
  A 0.71 0.70 -60.6 0 0 133.24 51.87
  L 132.59 51.70
  A 0.04 0.04 0.0 0 1 132.59 51.62
  L 134.75 50.88
  A 0.47 0.47 0.0 0 0 135.04 50.28
  L 134.87 49.77
  A 0.17 0.17 0.0 0 1 135.04 49.54
  Q 135.77 49.61 136.87 50.03
  Q 137.33 50.21 137.65 50.14
  Q 138.18 50.02 138.27 49.57
  A 0.46 0.46 0.0 0 1 138.59 49.21
  L 139.80 48.86
  Q 140.83 50.28 141.75 49.96
  A 1.15 1.14 -18.8 0 0 142.47 48.51
  Q 140.95 43.96 139.95 39.87
  Q 139.30 37.22 138.30 34.87
  Q 139.74 33.64 140.95 34.11
  A 1.13 1.13 0.0 0 1 141.61 34.80
  L 144.78 44.06
  A 0.59 0.59 0.0 0 0 145.53 44.43
  L 145.83 44.33
  A 0.50 0.50 0.0 0 1 146.48 44.93
  L 145.33 49.43
  A 0.46 0.46 0.0 0 0 146.01 49.95
  L 148.18 48.70
  Z
  M 149.54 52.72
  L 154.09 47.19
  A 0.10 0.10 0.0 0 0 154.07 47.05
  L 154.06 47.04
  A 3.37 2.23 -50.6 0 0 150.20 48.23
  L 149.81 48.71
  A 3.37 2.23 -50.6 0 0 149.39 52.73
  L 149.40 52.73
  A 0.10 0.10 0.0 0 0 149.54 52.72
  Z
  M 137.5206 56.1340
  A 2.47 1.19 -58.5 0 0 135.2154 57.6182
  A 2.47 1.19 -58.5 0 0 134.9394 60.3460
  A 2.47 1.19 -58.5 0 0 137.2446 58.8618
  A 2.47 1.19 -58.5 0 0 137.5206 56.1340
  Z"
/>
<path fill="#c8a041" d="
  M 138.30 34.87
  Q 139.30 37.22 139.95 39.87
  Q 140.95 43.96 142.47 48.51
  A 1.15 1.14 -18.8 0 1 141.75 49.96
  Q 140.83 50.28 139.80 48.86
  Q 138.68 47.54 138.60 45.65
  A 1.09 1.07 16.5 0 0 138.13 44.80
  Q 137.36 44.28 136.42 44.37
  A 0.69 0.69 0.0 0 1 135.69 43.88
  Q 135.36 42.78 136.24 42.30
  A 1.02 1.01 75.5 0 0 136.76 41.41
  Q 136.76 40.08 136.13 37.95
  C 135.56 36.03 135.98 34.49 138.30 34.87
  Z"
/>
<path fill="#aae8fb" d="
  M 222.88 49.71
  Q 225.81 51.88 229.45 53.03
  L 229.95 53.30
  Q 230.78 54.23 232.24 54.23
  L 247.42 61.70
  A 1.00 1.00 0.0 0 1 247.72 63.26
  Q 247.70 63.28 247.14 63.62
  Q 246.83 63.81 246.62 64.10
  Q 243.12 69.00 240.50 73.18
  A 0.49 0.49 0.0 0 0 241.07 73.90
  L 241.96 73.59
  A 2.21 2.18 5.1 0 0 243.16 72.60
  L 248.21 63.85
  A 2.07 2.07 0.0 0 1 250.93 63.04
  L 257.08 66.10
  Q 256.93 66.20 256.80 66.26
  A 0.18 0.18 0.0 0 0 256.82 66.59
  Q 257.03 66.66 257.25 66.47
  Q 257.73 67.30 258.80 67.20
  L 259.22 67.46
  Q 259.55 67.99 260.29 67.93
  L 261.46 68.37
  Q 261.89 69.21 262.71 69.22
  L 263.28 69.19
  Q 295.66 84.98 328.05 100.78
  Q 329.48 101.48 330.14 102.14
  C 330.97 102.96 332.35 102.78 333.57 103.38
  Q 368.60 120.48 417.06 144.06
  A 0.84 0.84 0.0 0 1 417.09 145.55
  Q 416.89 145.66 416.56 146.31
  Q 415.06 149.26 411.30 157.87
  A 0.71 0.71 0.0 0 0 411.84 158.86
  L 412.16 158.91
  A 0.55 0.55 0.0 0 0 412.75 158.61
  L 418.83 145.99
  A 0.62 0.60 -72.3 0 1 419.47 145.65
  Q 420.77 145.87 425.21 148.03
  Q 496.26 182.68 506.23 187.50
  Q 508.22 188.47 510.78 189.40
  A 1.25 1.25 0.0 0 1 511.20 191.48
  Q 509.62 192.95 508.88 195.07
  Q 496.67 230.06 484.43 265.00
  L 480.77 265.00
  L 387.46 216.86
  A 0.98 0.97 -63.7 0 1 387.03 215.58
  L 393.49 202.19
  A 0.76 0.75 3.4 0 0 392.56 201.15
  L 392.07 201.32
  A 1.17 1.17 0.0 0 0 391.40 201.92
  L 385.08 215.03
  A 0.66 0.65 -63.1 0 1 384.18 215.33
  Q 230.05 135.58 212.08 126.31
  Q 209.69 125.08 208.82 124.18
  C 207.68 122.99 205.90 123.11 204.08 122.17
  Q 184.66 112.10 153.46 96.12
  Q 152.44 95.59 151.39 95.09
  Q 149.43 94.17 149.92 91.73
  Q 152.90 76.87 155.22 62.05
  L 155.31 59.06
  A 1.39 1.38 -24.2 0 1 155.65 58.18
  C 157.17 56.41 158.62 53.59 161.10 53.20
  L 192.33 35.70
  A 2.08 2.07 43.4 0 1 194.24 35.65
  L 222.88 49.71
  Z
  M 207.4342 51.1934
  A 0.26 0.26 0.0 0 0 207.3108 50.8470
  L 202.3786 48.5050
  A 0.26 0.26 0.0 0 0 202.0322 48.6283
  L 201.2258 50.3266
  A 0.26 0.26 0.0 0 0 201.3492 50.6730
  L 206.2814 53.0150
  A 0.26 0.26 0.0 0 0 206.6278 52.8917
  L 207.4342 51.1934
  Z
  M 227.72 92.16
  Q 223.43 98.58 219.18 105.02
  Q 218.39 106.20 219.09 106.67
  Q 219.78 107.13 220.58 105.95
  Q 224.91 99.57 229.20 93.15
  Q 233.49 86.74 237.75 80.30
  Q 238.53 79.11 237.84 78.65
  Q 237.14 78.18 236.34 79.36
  Q 232.01 85.75 227.72 92.16
  Z
  M 250.7410 98.0365
  A 0.50 0.24 -55.8 0 0 250.2615 98.3151
  A 0.50 0.24 -55.8 0 0 250.1790 98.8635
  A 0.50 0.24 -55.8 0 0 250.6585 98.5849
  A 0.50 0.24 -55.8 0 0 250.7410 98.0365
  Z
  M 330.7499 103.9774
  A 0.82 0.82 0.0 0 0 330.4342 102.8615
  L 330.3993 102.8420
  A 0.82 0.82 0.0 0 0 329.2834 103.1577
  L 323.3901 113.7026
  A 0.82 0.82 0.0 0 0 323.7058 114.8185
  L 323.7407 114.8380
  A 0.82 0.82 0.0 0 0 324.8566 114.5223
  L 330.7499 103.9774
  Z
  M 239.4432 103.9971
  A 4.56 0.26 -57.9 0 0 236.7997 107.7218
  A 4.56 0.26 -57.9 0 0 234.5968 111.7229
  A 4.56 0.26 -57.9 0 0 237.2403 107.9982
  A 4.56 0.26 -57.9 0 0 239.4432 103.9971
  Z
  M 253.7027 106.4464
  A 0.62 0.29 -43.1 0 0 253.0519 106.6583
  A 0.62 0.29 -43.1 0 0 252.7973 107.2936
  A 0.62 0.29 -43.1 0 0 253.4481 107.0817
  A 0.62 0.29 -43.1 0 0 253.7027 106.4464
  Z
  M 251.26 110.78
  A 0.20 0.20 0.0 0 0 251.52 111.03
  Q 251.75 110.94 251.96 110.57
  A 0.26 0.26 0.0 0 0 251.61 110.22
  Q 251.42 110.33 251.26 110.78
  Z
  M 216.0909 112.8573
  A 0.80 0.80 0.0 0 0 215.8847 111.7449
  L 215.8517 111.7222
  A 0.80 0.80 0.0 0 0 214.7393 111.9284
  L 207.8291 121.9827
  A 0.80 0.80 0.0 0 0 208.0353 123.0951
  L 208.0683 123.1178
  A 0.80 0.80 0.0 0 0 209.1807 122.9116
  L 216.0909 112.8573
  Z
  M 257.8845 113.0451
  A 1.03 0.26 -56.1 0 0 257.0942 113.7550
  A 1.03 0.26 -56.1 0 0 256.7355 114.7549
  A 1.03 0.26 -56.1 0 0 257.5258 114.0450
  A 1.03 0.26 -56.1 0 0 257.8845 113.0451
  Z
  M 232.19 114.89
  L 233.38 113.70
  A 0.22 0.22 0.0 0 0 233.13 113.34
  Q 232.40 113.66 232.00 114.78
  A 0.11 0.11 0.0 0 0 232.19 114.89
  Z
  M 256.2651 115.7408
  A 0.46 0.24 -57.8 0 0 255.8169 116.0021
  A 0.46 0.24 -57.8 0 0 255.7749 116.5192
  A 0.46 0.24 -57.8 0 0 256.2231 116.2579
  A 0.46 0.24 -57.8 0 0 256.2651 115.7408
  Z
  M 255.12 117.01
  L 254.94 117.72
  A 0.24 0.23 71.8 0 0 255.35 117.93
  Q 255.56 117.68 255.50 117.04
  A 0.19 0.19 0.0 0 0 255.12 117.01
  Z
  M 311.64 134.30
  Q 307.80 141.18 303.77 148.65
  A 0.85 0.84 -74.5 0 0 304.47 149.90
  Q 304.96 149.92 305.41 149.17
  Q 309.69 141.97 313.42 135.30
  Q 317.16 128.62 321.05 121.21
  Q 321.45 120.43 321.18 120.03
  A 0.85 0.84 -47.0 0 0 319.75 120.08
  Q 315.49 127.42 311.64 134.30
  Z
  M 250.6434 123.8203
  A 2.02 0.25 -58.9 0 0 249.3859 125.4209
  A 2.02 0.25 -58.9 0 0 248.5566 127.2797
  A 2.02 0.25 -58.9 0 0 249.8141 125.6791
  A 2.02 0.25 -58.9 0 0 250.6434 123.8203
  Z
  M 248.12 128.68
  Q 248.35 128.40 248.31 128.16
  A 0.18 0.17 72.9 0 0 248.07 128.03
  Q 247.99 128.06 247.80 128.36
  A 0.24 0.21 85.5 0 0 248.12 128.68
  Z
  M 247.6659 128.9896
  A 0.59 0.20 -59.9 0 0 247.1970 129.3997
  A 0.59 0.20 -59.9 0 0 247.0741 130.0104
  A 0.59 0.20 -59.9 0 0 247.5430 129.6003
  A 0.59 0.20 -59.9 0 0 247.6659 128.9896
  Z
  M 411.5639 161.8787
  A 2.22 1.82 -162.4 0 0 413.1297 164.2848
  A 2.22 1.82 -162.4 0 0 415.7961 163.2213
  A 2.22 1.82 -162.4 0 0 414.2303 160.8152
  A 2.22 1.82 -162.4 0 0 411.5639 161.8787
  Z
  M 402.16 178.02
  Q 400.84 176.98 399.63 177.39
  A 1.18 1.18 0.0 0 0 399.18 179.36
  Q 400.01 180.17 401.26 179.72
  L 394.62 194.65
  A 0.96 0.94 -65.0 0 0 395.06 195.90
  L 395.09 195.91
  A 0.90 0.88 -64.4 0 0 396.29 195.47
  L 403.43 180.21
  Q 403.29 181.74 403.64 182.36
  A 1.11 1.10 -50.3 0 0 405.65 182.17
  Q 406.07 180.93 405.61 179.90
  Q 405.43 179.50 404.83 179.44
  Q 404.34 179.39 403.86 179.49
  L 410.16 164.81
  A 0.71 0.71 0.0 0 0 409.64 163.83
  L 409.58 163.83
  A 1.14 1.13 -72.5 0 0 408.34 164.48
  L 402.16 178.02
  Z"
/>
<path fill="#aae8fb" d="
  M 62.79 45.65
  L 57.19 46.48
  L 61.79 42.69
  L 67.71 38.13
  A 2.43 2.40 -50.8 0 1 70.24 37.86
  L 73.21 39.29
  A 0.94 0.93 -44.2 0 1 73.18 40.99
  L 62.79 45.65
  Z"
/>
<path fill="#aae8fb" d="
  M 115.57 55.16
  Q 118.83 54.19 121.61 52.11
  Q 118.60 63.68 114.79 75.10
  Q 113.07 80.24 109.05 83.35
  A 1.54 1.51 -72.1 0 1 108.59 83.59
  L 104.59 84.83
  A 0.51 0.50 2.2 0 0 104.25 85.14
  Q 104.08 85.56 103.53 85.76
  A 0.24 0.24 0.0 0 1 103.25 85.40
  L 104.76 83.14
  A 1.78 1.76 -26.4 0 0 105.06 82.26
  Q 105.32 77.02 107.26 72.91
  A 0.59 0.59 0.0 0 0 106.49 72.12
  Q 104.66 72.92 103.74 75.14
  A 0.13 0.04 -61.8 0 0 103.73 75.19
  L 101.21 85.00
  A 1.47 1.31 49.2 0 0 101.20 85.64
  Q 101.31 86.19 101.38 86.29
  A 1.31 1.31 0.0 0 1 99.76 88.24
  L 95.20 86.14
  A 0.76 0.69 48.0 0 0 94.72 86.09
  L 91.13 86.92
  A 0.45 0.45 0.0 0 1 90.62 86.30
  Q 92.28 82.62 95.69 83.15
  A 1.74 1.74 0.0 0 0 97.62 81.91
  L 99.09 76.77
  Q 99.82 74.95 99.35 78.27
  A 0.23 0.22 -14.4 0 0 99.71 78.48
  Q 100.66 77.76 101.15 76.16
  L 102.33 68.24
  Q 104.54 68.16 106.54 68.34
  C 108.06 68.48 108.52 67.58 109.69 67.63
  A 0.75 0.74 8.5 0 0 110.45 67.07
  L 111.17 64.24
  A 0.59 0.59 0.0 0 0 110.88 63.57
  L 109.50 62.83
  A 0.92 0.92 0.0 0 1 109.02 61.85
  L 109.64 58.32
  A 1.86 1.84 18.4 0 0 108.65 56.36
  L 108.60 56.35
  A 1.34 1.34 0.0 0 0 106.81 57.18
  Q 105.47 61.46 104.02 63.03
  Q 99.08 68.38 98.54 69.05
  A 10.54 10.19 -11.8 0 0 97.33 70.83
  L 89.04 86.42
  A 0.25 0.17 -16.8 0 1 88.97 86.51
  Q 87.31 88.17 87.19 90.31
  A 0.63 0.63 0.0 0 1 86.03 90.61
  Q 85.32 89.46 84.44 89.42
  A 1.21 1.21 0.0 0 0 83.48 89.84
  Q 81.34 92.38 81.13 92.87
  Q 79.01 98.05 77.70 103.41
  Q 74.90 104.55 71.84 103.53
  A 1.55 1.50 -41.3 0 0 71.00 103.49
  Q 69.82 103.76 67.96 104.77
  Q 66.60 105.51 65.63 104.22
  Q 69.38 101.40 69.66 95.56
  C 69.70 94.79 69.49 94.23 68.89 93.73
  A 0.38 0.37 50.8 0 1 68.95 93.12
  L 73.53 90.47
  A 0.86 0.84 89.2 0 0 73.89 90.09
  L 77.29 83.05
  Q 79.86 78.58 80.25 76.38
  Q 81.00 72.16 82.36 65.87
  Q 82.51 65.19 82.30 62.69
  A 0.85 0.85 0.0 0 0 81.93 62.05
  L 63.82 49.89
  A 0.64 0.64 0.0 0 1 63.58 49.62
  Q 62.77 47.97 65.16 46.73
  Q 68.12 45.56 71.08 43.96
  C 72.47 43.21 74.28 42.58 75.34 41.05
  A 1.37 1.36 -59.5 0 1 77.05 40.60
  L 105.28 54.20
  A 4.33 4.24 -32.1 0 0 107.30 54.64
  Q 109.93 54.57 112.12 56.50
  A 1.48 1.44 62.2 0 0 113.22 56.86
  Q 115.03 56.69 115.57 55.16
  Z
  M 82.50 72.56
  L 80.82 75.62
  A 0.33 0.32 32.1 0 0 80.92 76.05
  L 81.18 76.22
  A 0.10 0.09 -54.8 0 0 81.32 76.19
  L 87.02 67.69
  A 0.26 0.25 34.9 0 0 86.95 67.33
  L 86.70 67.16
  A 0.12 0.12 0.0 0 0 86.54 67.19
  L 82.50 72.56
  L 86.84 65.67
  A 0.66 0.66 0.0 0 0 86.65 64.77
  L 85.97 64.31
  A 0.57 0.56 25.9 0 0 85.12 64.60
  L 82.50 72.56
  Z
  M 83.9028 66.5187
  A 0.26 0.26 0.0 0 0 83.7387 66.1897
  L 83.6628 66.1643
  A 0.26 0.26 0.0 0 0 83.3338 66.3284
  L 80.0972 76.0013
  A 0.26 0.26 0.0 0 0 80.2613 76.3303
  L 80.3372 76.3557
  A 0.26 0.26 0.0 0 0 80.6662 76.1916
  L 83.9028 66.5187
  Z"
/>
<path fill="#d4d5bc" d="
  M 151.73 43.06
  C 152.22 45.11 149.60 47.22 148.18 48.70
  Q 144.97 47.71 148.98 43.19
  Q 149.76 42.32 151.73 43.06
  Z"
/>
<rect fill="#c8a041" x="-0.96" y="-2.92" transform="translate(135.64,46.64) rotate(-39.8)" width="1.92" height="5.84" rx="0.92"/>
<path fill="#d4d5bc" d="
  M 62.79 45.65
  Q 61.38 47.46 65.16 46.73
  Q 62.77 47.97 63.58 49.62
  A 0.64 0.64 0.0 0 0 63.82 49.89
  L 81.93 62.05
  A 0.85 0.85 0.0 0 1 82.30 62.69
  Q 82.51 65.19 82.36 65.87
  Q 81.00 72.16 80.25 76.38
  Q 79.86 78.58 77.29 83.05
  Q 76.02 80.06 74.09 78.59
  Q 71.70 76.78 67.58 75.04
  Q 62.26 72.78 56.88 70.70
  Q 55.92 67.35 57.06 63.48
  Q 57.61 61.60 56.48 61.39
  L 56.95 60.89
  A 0.86 0.85 68.4 0 0 57.17 60.37
  Q 57.23 59.56 56.41 59.24
  Q 58.01 58.65 58.36 57.53
  A 0.41 0.41 0.0 0 0 57.97 57.00
  Q 54.20 57.04 52.10 57.82
  Q 50.35 58.47 47.22 60.75
  L 41.29 65.05
  Q 38.70 63.91 35.75 63.53
  Q 34.90 63.42 33.69 61.90
  Q 42.79 58.81 51.89 55.68
  Q 53.29 55.20 54.52 54.35
  A 1.95 1.92 -9.6 0 0 55.30 53.27
  L 57.19 46.48
  L 62.79 45.65
  Z"
/>
<path fill="#c8a041" d="
  M 149.54 52.72
  A 0.10 0.10 0.0 0 1 149.40 52.73
  L 149.39 52.73
  A 3.37 2.23 -50.6 0 1 149.81 48.71
  L 150.20 48.23
  A 3.37 2.23 -50.6 0 1 154.06 47.04
  L 154.07 47.05
  A 0.10 0.10 0.0 0 1 154.09 47.19
  L 149.54 52.72
  Z"
/>
<rect fill="#5a310b" x="-2.99" y="-1.20" transform="translate(204.33,50.76) rotate(25.4)" width="5.98" height="2.40" rx="0.26"/>
<path fill="#aae8fb" d="
  M 158.60 51.28
  Q 156.82 52.46 155.50 54.86
  A 1.05 1.04 -80.8 0 1 154.77 55.39
  Q 152.97 55.70 151.90 54.60
  A 0.77 0.76 40.4 0 1 151.82 53.64
  Q 153.55 51.17 156.49 49.08
  Q 158.12 49.12 158.60 51.28
  Z"
/>
<path fill="#2d383d" d="
  M 222.88 49.71
  L 229.45 53.03
  Q 225.81 51.88 222.88 49.71
  Z"
/>
<path fill="#2d383d" d="
  M 232.24 54.23
  Q 230.78 54.23 229.95 53.30
  Q 231.10 53.54 232.24 54.23
  Z"
/>
<ellipse fill="#aae8fb" cx="0.00" cy="0.00" transform="translate(136.23,58.24) rotate(-58.5)" rx="2.47" ry="1.19"/>
<path fill="#d4d5bc" d="
  M 153.07 59.73
  Q 152.08 59.81 150.50 60.70
  Q 149.87 61.06 149.02 60.50
  C 150.20 59.49 149.63 58.09 150.50 56.73
  A 0.90 0.90 0.0 0 1 151.65 56.40
  L 153.69 57.38
  A 0.67 0.67 0.0 0 1 153.90 58.43
  Q 153.27 59.14 153.07 59.73
  Z"
/>
<path fill="#5a310b" d="
  M 56.41 59.24
  C 52.86 59.17 51.46 60.73 49.08 62.56
  A 0.47 0.46 -30.9 0 1 48.38 62.39
  Q 47.93 61.44 47.22 60.75
  Q 50.35 58.47 52.10 57.82
  Q 54.20 57.04 57.97 57.00
  A 0.41 0.41 0.0 0 1 58.36 57.53
  Q 58.01 58.65 56.41 59.24
  Z"
/>
<path fill="#aae8fb" d="
  M 147.28 60.19
  Q 145.59 60.76 143.63 60.29
  Q 143.42 58.93 144.36 57.95
  A 0.95 0.95 0.0 0 1 145.22 57.69
  Q 147.60 58.17 147.28 60.19
  Z"
/>
<path fill="#aae8fb" d="
  M 56.41 59.24
  Q 57.23 59.56 57.17 60.37
  A 0.86 0.85 68.4 0 1 56.95 60.89
  L 56.48 61.39
  L 54.29 62.69
  C 51.86 63.65 50.07 65.67 47.24 64.92
  A 1.11 1.10 34.5 0 0 46.32 65.09
  L 43.79 66.87
  L 30.78 74.25
  A 0.52 0.52 0.0 0 0 30.59 74.96
  Q 31.16 75.98 32.56 76.35
  L 33.60 76.88
  L 31.35 89.37
  A 0.60 0.60 0.0 0 0 31.74 90.04
  Q 33.07 90.48 33.31 91.43
  L 23.79 99.61
  Q 23.51 98.73 23.67 97.99
  Q 25.74 88.80 27.24 79.61
  A 0.68 0.68 0.0 0 0 26.36 78.85
  L 0.85 87.02
  L 32.04 62.57
  Q 33.80 63.74 37.26 66.48
  Q 38.98 67.84 41.29 65.05
  L 47.22 60.75
  Q 47.93 61.44 48.38 62.39
  A 0.47 0.46 -30.9 0 0 49.08 62.56
  C 51.46 60.73 52.86 59.17 56.41 59.24
  Z"
/>
<path fill="#2d383d" d="
  M 56.48 61.39
  Q 57.61 61.60 57.06 63.48
  Q 55.92 67.35 56.88 70.70
  C 61.99 74.68 67.36 76.74 73.02 79.25
  Q 74.96 80.11 77.29 83.05
  L 73.89 90.09
  A 0.86 0.84 89.2 0 1 73.53 90.47
  L 68.95 93.12
  A 0.38 0.37 50.8 0 0 68.89 93.73
  C 69.49 94.23 69.70 94.79 69.66 95.56
  Q 69.38 101.40 65.63 104.22
  Q 60.47 102.27 56.29 98.99
  L 53.00 94.18
  A 3.71 3.65 24.5 0 1 52.37 92.53
  Q 51.44 85.39 52.41 78.34
  A 1.31 1.31 0.0 0 0 50.58 76.97
  Q 48.88 77.74 47.87 76.88
  Q 50.00 74.83 52.34 73.92
  A 2.80 2.79 88.4 0 0 53.97 72.19
  Q 55.92 66.27 54.29 62.69
  L 56.48 61.39
  Z"
/>
<path fill="#5a310b" d="
  M 33.69 61.90
  Q 34.90 63.42 35.75 63.53
  Q 38.70 63.91 41.29 65.05
  Q 38.98 67.84 37.26 66.48
  Q 33.80 63.74 32.04 62.57
  L 33.69 61.90
  Z"
/>
<path fill="#d4d5bc" d="
  M 54.29 62.69
  Q 55.92 66.27 53.97 72.19
  A 2.80 2.79 88.4 0 1 52.34 73.92
  Q 50.00 74.83 47.87 76.88
  Q 46.13 78.35 43.94 78.71
  A 1.11 1.06 -66.2 0 0 43.48 78.90
  L 41.42 80.27
  A 0.80 0.80 0.0 0 1 40.19 79.43
  L 42.01 70.84
  Q 42.20 69.43 43.79 66.87
  L 46.32 65.09
  A 1.11 1.10 34.5 0 1 47.24 64.92
  C 50.07 65.67 51.86 63.65 54.29 62.69
  Z"
/>
<path fill="#d4d5bc" d="
  M 82.50 72.56
  L 85.12 64.60
  A 0.57 0.56 25.9 0 1 85.97 64.31
  L 86.65 64.77
  A 0.66 0.66 0.0 0 1 86.84 65.67
  L 82.50 72.56
  Z"
/>
<rect fill="#d4d5bc" x="-0.30" y="-5.36" transform="translate(82.00,71.26) rotate(18.5)" width="0.60" height="10.72" rx="0.26"/>
<path fill="#d4d5bc" d="
  M 257.08 66.10
  Q 256.92 66.15 257.25 66.47
  Q 257.03 66.66 256.82 66.59
  A 0.18 0.18 0.0 0 1 256.80 66.26
  Q 256.93 66.20 257.08 66.10
  Z"
/>
<path fill="#d4d5bc" d="
  M 258.80 67.20
  Q 257.73 67.30 257.25 66.47
  Q 258.22 66.55 258.80 67.20
  Z"
/>
<path fill="#5a310b" d="
  M 43.79 66.87
  Q 42.20 69.43 42.01 70.84
  Q 37.75 71.56 35.02 74.26
  A 1.37 1.35 -22.8 0 0 34.62 75.22
  L 34.62 75.61
  A 0.74 0.74 0.0 0 1 33.88 76.35
  L 32.56 76.35
  Q 31.16 75.98 30.59 74.96
  A 0.52 0.52 0.0 0 1 30.78 74.25
  L 43.79 66.87
  Z"
/>
<path fill="#d4d5bc" d="
  M 82.50 72.56
  L 86.54 67.19
  A 0.12 0.12 0.0 0 1 86.70 67.16
  L 86.95 67.33
  A 0.26 0.25 34.9 0 1 87.02 67.69
  L 81.32 76.19
  A 0.10 0.09 -54.8 0 1 81.18 76.22
  L 80.92 76.05
  A 0.33 0.32 32.1 0 1 80.82 75.62
  L 82.50 72.56
  Z"
/>
<path fill="#d4d5bc" d="
  M 260.29 67.93
  Q 259.55 67.99 259.22 67.46
  Q 259.91 67.45 260.29 67.93
  Z"
/>
<path fill="#5a310b" d="
  M 136.52 71.03
  L 137.74 74.43
  Q 137.66 75.13 138.00 75.61
  Q 135.75 79.69 132.14 82.45
  Q 129.47 80.33 126.70 79.35
  A 1.42 1.42 0.0 0 1 126.19 76.98
  Q 129.41 73.89 133.56 70.06
  Q 133.87 69.77 134.12 68.34
  A 0.34 0.33 -77.0 0 1 134.53 68.08
  L 134.90 68.17
  A 0.31 0.30 -81.9 0 1 135.13 68.48
  Q 135.10 69.45 135.09 70.27
  Q 135.08 70.92 135.53 71.08
  Q 135.91 71.22 136.52 71.03
  Z"
/>
<path fill="#2d383d" d="
  M 102.33 68.24
  L 101.15 76.16
  Q 100.94 76.21 100.94 76.04
  Q 100.93 76.04 100.94 76.04
  Q 100.94 76.21 101.15 76.16
  Q 100.66 77.76 99.71 78.48
  A 0.23 0.22 -14.4 0 1 99.35 78.27
  Q 99.82 74.95 99.09 76.77
  Q 99.24 71.84 102.33 68.24
  Z"
/>
<path fill="#d4d5bc" d="
  M 262.46 68.84
  L 262.71 69.22
  Q 261.89 69.21 261.46 68.37
  Q 262.03 68.47 262.46 68.84
  Z"
/>
<path fill="#5a310b" d="
  M 263.28 69.19
  L 262.71 69.22
  L 262.46 68.84
  Q 262.96 68.85 263.28 69.19
  Z"
/>
<path fill="#4c441b" d="
  M 42.01 70.84
  L 40.19 79.43
  A 0.80 0.80 0.0 0 0 41.42 80.27
  L 43.48 78.90
  A 1.11 1.06 -66.2 0 1 43.94 78.71
  Q 46.13 78.35 47.87 76.88
  Q 48.88 77.74 50.58 76.97
  A 1.31 1.31 0.0 0 1 52.41 78.34
  Q 51.44 85.39 52.37 92.53
  A 3.71 3.65 24.5 0 0 53.00 94.18
  L 56.29 98.99
  L 34.75 95.73
  A 0.93 0.93 0.0 0 1 34.02 94.49
  Q 34.67 92.75 34.61 90.99
  Q 35.72 90.65 35.76 89.06
  C 35.83 86.82 35.79 82.87 37.45 80.90
  A 1.20 1.20 0.0 0 0 37.16 79.10
  L 33.60 76.88
  L 32.56 76.35
  L 33.88 76.35
  A 0.74 0.74 0.0 0 0 34.62 75.61
  L 34.62 75.22
  A 1.37 1.35 -22.8 0 1 35.02 74.26
  Q 37.75 71.56 42.01 70.84
  Z"
/>
<path fill="#aae8fb" d="
  M 77.29 83.05
  Q 74.96 80.11 73.02 79.25
  C 67.36 76.74 61.99 74.68 56.88 70.70
  Q 62.26 72.78 67.58 75.04
  Q 71.70 76.78 74.09 78.59
  Q 76.02 80.06 77.29 83.05
  Z"
/>
<path fill="#aae8fb" d="
  M 101.15 76.16
  Q 100.94 76.21 100.94 76.04
  Q 100.93 76.04 100.94 76.04
  Q 100.94 76.21 101.15 76.16
  Z"
/>
<path fill="#d4d5bc" d="
  M 34.61 90.99
  L 33.31 91.43
  Q 33.07 90.48 31.74 90.04
  A 0.60 0.60 0.0 0 1 31.35 89.37
  L 33.60 76.88
  L 37.16 79.10
  A 1.20 1.20 0.0 0 1 37.45 80.90
  C 35.79 82.87 35.83 86.82 35.76 89.06
  Q 35.72 90.65 34.61 90.99
  Z"
/>
<path fill="#5a310b" d="
  M 23.79 99.61
  Q 23.22 99.77 22.96 99.63
  Q 13.58 94.68 4.23 89.67
  Q 3.91 89.50 2.04 88.68
  Q 0.15 87.86 0.85 87.02
  L 26.36 78.85
  A 0.68 0.68 0.0 0 1 27.24 79.61
  Q 25.74 88.80 23.67 97.99
  Q 23.51 98.73 23.79 99.61
  Z"
/>
<path fill="#4c441b" d="
  M 125.86 87.04
  L 127.58 89.28
  A 1.03 1.02 31.6 0 1 127.78 90.11
  Q 127.17 93.45 124.87 95.34
  A 0.71 0.70 -26.7 0 1 123.74 94.97
  Q 123.04 92.23 118.65 91.68
  A 0.64 0.63 16.3 0 1 118.15 90.78
  L 118.87 89.30
  A 0.78 0.78 0.0 0 1 120.15 89.12
  Q 121.76 90.92 123.85 90.99
  A 0.90 0.89 13.5 0 0 124.69 90.48
  Q 125.17 89.46 125.11 87.54
  Q 125.42 86.81 125.86 87.04
  Z"
/>
<ellipse fill="#d4d5bc" cx="0.00" cy="0.00" transform="translate(250.46,98.45) rotate(-55.8)" rx="0.50" ry="0.24"/>
<ellipse fill="#d4d5bc" cx="0.00" cy="0.00" transform="translate(237.02,107.86) rotate(-57.9)" rx="4.56" ry="0.26"/>
<path fill="#d4d5bc" d="
  M 93.93 105.85
  Q 93.27 107.29 92.17 108.52
  Q 91.53 109.23 91.12 108.99
  Q 90.75 108.77 90.62 107.87
  Q 90.76 106.48 93.93 105.85
  Z"
/>
<ellipse fill="#d4d5bc" cx="0.00" cy="0.00" transform="translate(253.25,106.87) rotate(-43.1)" rx="0.62" ry="0.29"/>
<path fill="#d4d5bc" d="
  M 251.26 110.78
  Q 251.42 110.33 251.61 110.22
  A 0.26 0.26 0.0 0 1 251.96 110.57
  Q 251.75 110.94 251.52 111.03
  A 0.20 0.20 0.0 0 1 251.26 110.78
  Z"
/>
<ellipse fill="#d4d5bc" cx="0.00" cy="0.00" transform="translate(257.31,113.90) rotate(-56.1)" rx="1.03" ry="0.26"/>
<path fill="#d4d5bc" d="
  M 232.00 114.78
  Q 232.40 113.66 233.13 113.34
  A 0.22 0.22 0.0 0 1 233.38 113.70
  L 232.19 114.89
  A 0.11 0.11 0.0 0 1 232.00 114.78
  Z"
/>
<ellipse fill="#d4d5bc" cx="0.00" cy="0.00" transform="translate(256.02,116.13) rotate(-57.8)" rx="0.46" ry="0.24"/>
<path fill="#d4d5bc" d="
  M 255.12 117.01
  A 0.19 0.19 0.0 0 1 255.50 117.04
  Q 255.56 117.68 255.35 117.93
  A 0.24 0.23 71.8 0 1 254.94 117.72
  L 255.12 117.01
  Z"
/>
<ellipse fill="#d4d5bc" cx="0.00" cy="0.00" transform="translate(249.60,125.55) rotate(-58.9)" rx="2.02" ry="0.25"/>
<path fill="#d4d5bc" d="
  M 247.80 128.36
  Q 247.99 128.06 248.07 128.03
  A 0.18 0.17 72.9 0 1 248.31 128.16
  Q 248.35 128.40 248.12 128.68
  A 0.24 0.21 85.5 0 1 247.80 128.36
  Z"
/>
<ellipse fill="#d4d5bc" cx="0.00" cy="0.00" transform="translate(247.37,129.50) rotate(-59.9)" rx="0.59" ry="0.20"/>
<ellipse fill="#d4d5bc" cx="0.00" cy="0.00" transform="translate(413.68,162.55) rotate(-162.4)" rx="2.22" ry="1.82"/>
<path fill="#d4d5bc" d="
  M 402.16 178.02
  Q 401.44 178.81 401.26 179.72
  Q 400.01 180.17 399.18 179.36
  A 1.18 1.18 0.0 0 1 399.63 177.39
  Q 400.84 176.98 402.16 178.02
  Z"
/>
<path fill="#d4d5bc" d="
  M 403.86 179.49
  Q 404.34 179.39 404.83 179.44
  Q 405.43 179.50 405.61 179.90
  Q 406.07 180.93 405.65 182.17
  A 1.11 1.10 -50.3 0 1 403.64 182.36
  Q 403.29 181.74 403.43 180.21
  L 403.86 179.49
  Z"
/>
</svg>
