<?xml version="1.0" encoding="UTF-8" standalone="no"?>
<!-- Created with Inkscape (http://www.inkscape.org/) -->

<svg
   version="1.1"
   id="svg1"
   width="1024"
   height="1560"
   viewBox="0 0 1024 1560"
   xmlns="http://www.w3.org/2000/svg"
   xmlns:svg="http://www.w3.org/2000/svg"
   xmlns:rdf="http://www.w3.org/1999/02/22-rdf-syntax-ns#"
   xmlns:cc="http://creativecommons.org/ns#"
   xmlns:dc="http://purl.org/dc/elements/1.1/">
  <title
     id="title1"> GOES-16 Icon</title>
  <defs
     id="defs1" />
  <g
     id="g1">
    <path
       style="fill:currentColor"
       d="m 904.39515,1532.7295 c -40.8372,5.8475 -41.78147,-47.2097 -70.53136,-65.9366 -74.46528,-68.2339 -145.8622,-139.8465 -219.77927,-208.6966 2.76855,40.3491 -60.54321,11.2073 -32.83743,-17.6425 -24.72525,-27.9401 -32.19172,-58.1101 -63.24709,-63.1446 -22.2099,-25.8939 -24.48867,-53.4848 -53.10934,-53.158 C 449.36205,1087.6195 434.41768,1071.6177 395,1095.5 c -35.33591,6.9655 -54.51938,18.298 -85.44113,31.0329 -34.97772,3.304 -70.14778,38.6719 -100.97759,19.8183 -28.44935,7.8263 -98.73426,0.2658 -54.32324,-34.6289 7.25948,-31.5604 -35.71081,-17.6401 -40.62991,-11.2624 -50.981602,21.1503 -14.020292,-25.7131 5.15578,-26.4599 27.4838,24.0266 46.6357,-6.8583 28.95321,-39.2978 C 117.57896,1006.6989 151.39066,948.59608 93.886155,957 58.034343,937.80164 26.998743,890.73533 76.422557,867.97072 c 36.953713,-20.39991 87.589533,-27.22151 89.779523,25.09896 30.55103,14.21751 46.1259,-35.37599 64.09356,-24.1096 C 282.36691,855.72727 266.49533,827.78448 227,810.5 206.98307,794.33782 177.45446,784.31182 163.96722,763.63278 166.30368,726.56776 165.82623,653.87378 144,634.5 73.14267,671.59345 97.399635,574.30304 86.688554,533.00838 81.472286,490.52342 77.268786,441.9671 71.963123,397.45557 63.198001,300.81445 49.071728,204.40318 43.793608,107.43982 68.814802,98.943771 97.900516,100.39886 128.26471,89.592429 187.20139,73.542556 246.52545,58.85153 305.37248,42.495602 c 23.72254,1.277372 68.13383,-48.2500244 62.81603,11.236662 9.02957,57.635956 24.64777,114.072476 31.1565,171.438996 11.97697,32.25095 14.46899,82.12401 23.63193,112.78566 10.13534,44.80801 15.12095,90.47888 25.52068,132.1983 7.67411,45.05815 39.56633,112.69951 -33.96127,106.28092 -12.43586,36.44908 16.67288,69.79158 11.69192,112.33879 27.3402,29.75527 -14.196,55.83389 -31.05868,83.19479 -50.57829,19.08118 14.37172,77.08587 21.24063,44.67977 14.17818,-2.09032 28.02604,27.82692 47.10997,1.11599 10.76543,21.94077 27.83498,-1.23421 44.23087,16.72588 38.05422,-27.44613 78.95352,15.99067 25.66877,31.12666 20.73799,11.20917 98.64822,-30.10725 100.90664,27.56559 1.28118,28.36166 38.04955,49.65955 11.87558,70.77171 -8.10437,29.09615 -134.63668,27.97028 -61.93444,35.25989 37.84197,14.45579 -25.98862,57.74549 -21.76361,48.08299 -8.16948,32.5378 -71.75558,8.2659 -19.42941,34.8743 12.5104,30.6472 62.2981,35.3673 67.4066,67.2747 22.03198,13.3858 79.52906,25.1562 66.95597,61.3477 19.12559,32.3642 61.05112,26.7548 83.09011,54.9607 4.47558,44.5224 45.41406,68.7789 82.83445,62.7447 32.6285,13.3254 41.58988,74.9759 78.81642,66.3235 38.62336,-1.3087 59.63623,38.5052 65.38485,69.163 -17.08377,29.7408 -39.21136,73.2511 -83.16784,68.7427 z m -59.11366,-68.7611 c -8.99163,-52.065 -44.84798,-16.4223 0,0 z m 4.04744,-11.2184 c 0.87658,-42.1635 -10.42683,25.7011 0,0 z m 10.28516,-10 c 16.62756,-46.6172 -9.5713,-0.9137 0,0 z m -21.36945,-7.9527 c -0.14559,-12.3087 -22.67241,11.7309 0,0 z m 14.4858,-5.8617 c -8.79385,-23.6144 -13.5231,25.4753 -0.0459,0.2725 z M 811,1431.0497 c -8.78479,-43.772 -41.60854,-9.9456 0,0 z m 14,-2.9331 c -5.11493,-4.8597 -5.35898,3.535 0,0 z M 828,1428 c -2.55494,-3.5875 -2.55494,3.5875 0,0 z m -12.8753,-7.5785 c 3.79884,-36.7078 -12.63429,24.0762 0,0 z m 21.00992,2.5977 c 43.54781,-26.8371 -24.75524,3.5616 0,0 z M 826,1417.2578 c 7.31158,-22.9806 -12.78553,18.1536 0,0 z m 7.12756,0.9922 c 3.24846,-4.9704 -5.68858,6.3135 0,0 z m 42.56393,-1 c 13.23344,-17.1859 -20.56616,2.2006 0,0 z M 835,1412 c -2.55494,-3.5875 -2.55494,3.5875 0,0 z m -39.36163,-3.5 c 36.16825,-5.4892 22.57631,-22.3376 -5.79222,1.5 h 2.60831 z m 37.26144,-5.75 c 0.53535,-26.4014 -15.73551,9.9917 10e-6,0 z M 842,1405 c -2.55494,-3.5875 -2.55494,3.5875 0,0 z m 14.24813,-3.5976 c -3.11835,-38.2587 -33.82626,-0.8776 -2.91334,-6.2303 -4.52252,1.9744 1.20819,16.3168 2.91334,6.2303 z M 843,1390.0191 c 5.7289,-12.6732 7.05206,7.6637 0,0 z m 28.96858,13.2309 c -9.34785,-14.5784 -8.19163,6.5771 0,0 z m -91.12136,-6.2646 c 7.75374,-40.0506 -9.00361,25.3037 -6.89576,-13.6339 -41.01849,-15.0532 2.48273,26.8291 6.89576,13.6339 z M 798.5,1397 c 41.64975,-24.2214 -7.56093,-11.9145 -4.78452,-7.3109 25.89637,-40.8577 -20.14929,-22.2384 4.78452,7.3109 z m 92.78122,-2.1146 c -7.68999,-13.4565 4.35809,12.8141 0,0 z m -12.31302,-7.2424 c -0.46453,-30.0832 -86.56182,-57.2665 -31.99607,-20.643 10.12899,4.4083 22.79955,24.9505 31.99607,20.643 z M 832,1380 c -1.20936,-3.6562 -2.46629,3.5623 0,0 z m -46.73502,-1.403 c 4.54255,-19.5645 -38.76402,7.9045 -6.00527,-1.2464 l 3.20536,2.4502 z m 54.2702,-2.212 c 5.87208,-13.8498 -18.33022,-1.7137 0,0 z m -14.79602,-7.3602 c -32.2223,-44.9448 -7.30278,27.8185 0,0 z m -7.28491,-1.0988 c 3.13545,-12.2445 8.73681,3.4637 0,0 z M 812.5,1365 c 0.0557,-7.9406 7.00729,3.5779 0,0 z m -4.5,10 c -2.55494,-3.5875 -2.55494,3.5875 0,0 z m -59.17656,-3.9622 c -1.03388,-24.4364 -39.14454,-18.8007 -1.32344,3.5819 z m 18.73543,-1.506 c 17.93896,-16.063 -15.01855,6.7759 -5.14137,-12.7818 -3.49398,5.646 -6.88566,19.3445 5.14137,12.7818 z m -14.24848,-4.0701 c 4.47251,-28.3861 -9.86457,9.5875 0,0 z m 30.39696,-2.5691 c 21.72162,-10.4107 -21.98544,-5.0879 0,0 z M 809.86024,1351 c -9.54256,-20.523 -11.4974,9.1315 0,0 z M 757,1348.7063 c 9.86868,-15.1777 -42.44189,14.3228 0,0 z m 16.25787,0.8033 c 5.56652,-19.777 -23.10379,4.5984 0,0 z M 781,1351 c -3.84426,-3.5852 -2.56315,3.7039 0,0 z m 13.66613,-4.5562 c -18.57885,-21.6164 -7.9408,13.1672 0,0 z m 56.76399,-3.273 c -50.80442,-24.6718 -13.61846,1.807 0,0 z m -129.97393,0.5792 c 8.93541,-27.5103 -4.14257,14.0409 -9.66845,-12.8109 -28.72871,-11.8282 8.88519,23.6481 9.66845,12.8109 z m 20.92578,-1.5871 c 50.75446,-25.9742 -39.46672,14.5461 4.97502,-18.1947 -4.19046,-27.7286 -28.73167,32.0949 -4.97502,18.1947 z M 781.5,1340 c -3.58829,-3.8072 -1.24187,3.9424 0,0 z m -33.5,-6 c -2.55494,-3.5875 -2.55494,3.5875 0,0 z m -18.15622,-9.4757 c -7.21594,-13.5099 -10.56123,14.447 0,0 z M 754,1328.059 c -5.14067,-6.9346 -1.57233,4.1019 0,0 z m -35.58179,-0.666 c 5.9043,-7.7818 -29.47883,4.3965 0,0 z M 780,1326.7405 c -4.7747,-8.4706 -3.75973,4.4925 0,0 z M 693.8,1320.8 c 23.09755,-15.778 -42.68086,-17.822 0,0 z m 19.72749,-2.1722 C 746.44835,1305.4972 723.595,1303.0134 709.0975,1320 Z M 767,1319.1108 c -3.77154,-9.7699 -5.05332,1.4916 0,0 z m -61,-3.005 c 17.10324,-19.6268 -10.24176,-2.217 0,0 z m 43.75,-9.8558 c -5.91432,-13.0027 -11.57541,5.0162 0,0 z m -31.63024,-3.3449 c 11.59877,-17.7438 -23.0399,6.3054 0,0 z m -15.30782,-0.8646 c 2.96276,-10.7114 -36.4178,9.154 0,0 z m 35.90327,-3.097 c -3.07322,-13.5228 -20.99561,4.1972 0,0 z m -67.73745,-5.5769 c 25.90627,-20.9613 -30.40382,-12.0415 -7.97776,0.7231 2.20723,5.4476 6.75847,5.011 7.97776,-0.7231 z M 666.5,1292 c 2.56315,-3.7039 3.84426,3.5852 0,0 z m 25.85614,2.1127 c 38.49114,-11.8215 -9.7284,-9.1791 -4.74888,2.1174 l 4.74888,-2.1169 z M 703,1289 c -2.1547,-4.2211 6.06141,3.4326 0,0 z m -19.91149,1.3933 c 32.01112,-21.4618 -5.27981,-14.9489 0,0 z m 41.94104,-4.907 c -6.65709,-7.6321 -12.41991,0.5425 0,0 z M 737,1283 c -6.62618,-7.386 3.17359,7.1763 0,0 z m -5.25157,-5.442 c -8.11951,-9.809 4.36917,7.3428 0,0 z m 20.01855,-3.8932 c -29.90463,-33.5456 3.25311,20.402 0,0 z M 713,1278.5818 c -2.17159,-8.986 -11.23335,0.5423 0,0 z m -66.57009,-6.1586 c -2.193,-25.1167 -34.66209,-7.4094 0,0 z m 35.3547,-2.28 c 8.43408,-21.8644 -39.38768,15.954 0,0 z M 727,1270.559 c -2.47607,-6.9967 -2.42653,5.066 0,0 z m -68,-2.118 c -3.48272,-5.1374 -2.41757,6.8257 0,0 z m -8,-2.3074 c 11.96251,-24.2 -10.47747,11.1598 0,0 z m 18.04441,-6.6871 c 15.76638,-12.9195 -25.8908,12.2535 0,0 z M 695.76793,1263 c -8.92566,-7.9561 -0.20419,6.7294 0,0 z M 712,1261.5 c -13.14174,-17.1359 -13.11003,-8.4203 0,0 z m -23.5,-3.5 c -4.98836,-3.6301 -2.65267,3.8567 0,0 z m 27.5,-1.941 c -1.89761,-5.0354 -3.10608,3.6266 0,0 z M 730.5,1255 c 0.54596,-5.3852 -16.73126,-1.3101 0,0 z m -72.5,-4.352 c -9.457,-7.511 -16.82694,7.8497 0,0 z m 33.60417,-1.3772 c -4.32493,-0.2363 1.72936,4.8008 0,0 z M 661,1246.9686 c -9.71535,-12.1582 -3.79999,7.7254 0,0 z m -36.23766,-3.3976 c -14.73221,-10.7569 -24.24901,6.06 0,0 z m 6.69783,-1.966 c 6.23151,-10.698 -11.00516,7.2403 0,0 z M 685,1237.1224 c -7.79636,-11.1632 -0.18481,-2.0644 0,0 z m 10,0.2063 c -4.94215,-12.4736 -7.39583,3.2783 0,0 z m -71,-5.8877 c -4.88635,-5.6133 -2.44863,6.5711 0,0 z m -18.06112,-2.691 c 18.37321,-10.8538 -40.37142,-1.3214 0,0 z m 9.42275,2.75 c -2.37769,-5.3997 -3.50528,5.2925 0,0 z m 21.25351,-0.6861 c -1.52478,-29.6531 -10.87365,7.587 0,0 z M 668,1229.941 c -2.8654,-8.8951 -1.83055,10.3179 0,0 z m -89.13691,-6.4747 c -19.61138,-33.722 -3.49902,7.9042 0,0 z m 42.58114,0.6239 c -0.17629,-12.0804 -9.08984,7.2434 0,0 z M 628.5,1224 c -4.91149,-3.7796 -7.0016,3.7034 0,0 z m 24.84371,-2.7937 c -6.70998,-7.7859 1.13939,7.3225 0,0 z m -5.35902,-9.3455 c -11.95858,-19.3581 -5.97199,9.6482 0,0 z m 10,-0.052 c -3.02791,-8.6529 -1.59535,10.6976 0,0 z m -52.32778,0.694 c 0.0413,-6.6748 -25.94443,6.5516 0,0 z m 9.7613,1.89 c 5.56822,-6.5916 -14.06819,1.7053 0,0 z M 624,1214 c -2.55494,-3.5875 -2.55494,3.5875 0,0 z m -21,-6.5 c -6.19896,-9.2237 -4.77063,2.8556 0,0 z m -26,-0.6713 c -8.8421,-14.1689 -4.89494,3.9129 0,0 z M 674.5,1201 c -5.57544,-1.3722 0.40556,6.363 0,0 z m -68.37083,-4.2708 c -6.09731,-1.9284 3.51552,6.411 0,0 z M 627,1195.4267 c -3.7812,-11.2506 -4.16989,12.3809 0,0 z m 12.16195,1.9267 c 2.9857,-9.473 -8.7474,2.5464 0,0 z m -60.49778,-0.9206 c -1.98911,-9.0111 -7.52134,5.33 0,0 z m 17.68517,-0.9008 c -0.15978,-6.7244 -3.01159,5.1684 0,0 z M 566,1192.3977 c -14.29145,-21.3287 -6.63507,8.5371 0,0 z m 82.1038,0.3061 c -5.07592,-2.1703 1.02217,5.356 0,0 z m -35.51981,-3.168 c -9.24362,-11.4709 3.61639,12.6312 0,0 z M 582,1190.2857 c -5.21022,-4.7029 -5.21022,4.7029 0,0 z m 74.32633,-1.4776 c -16.46919,-13.8198 4.09583,9.9654 0,0 z M 568.5,1190 c -1.20936,-3.6562 -2.46629,3.5623 0,0 z m 53.39504,-1.8039 c -1.185,-22.5269 -12.79561,-1.0552 0,0 z m -35.5457,-6.7281 c -5.12315,-5.1152 -0.85113,6.7755 0,0 z M 607,1183 c -2.55494,-3.5875 -2.55494,3.5875 0,0 z m 25.82332,-2.3329 c -3.95932,-6.0886 -3.92547,7.0021 0,0 z m -99.54982,-2.6736 c -27.28616,-40.3287 -32.33574,-21.5737 0,0 z m 27.1015,1.2088 c 0.96072,-7.794 -13.18459,5.2283 0,0 z M 578,1178 c -0.83373,-7.5095 -6.94239,5.0709 0,0 z m -9.26125,-0.6273 c 5.31338,-7.6942 -14.31423,3.5468 0,0 z m -19.33638,-2.2147 c -19.91913,-12.8547 -14.73524,-5.2218 -2.82151,0.842 z m 43.85154,-0.408 c 0.0243,-11.3709 -10.63913,2.1049 0,0 z M 587,1167.9286 c 9.29216,-18.1007 -12.98207,-7.2095 0,0 z m -27.54271,-3.8595 c -0.70864,-7.6435 -9.2355,5.1818 0,0 z M 553,1163 c -13.70101,-8.5046 -21.21168,4.5102 0,0 z m 24,-1.8333 c -3.43115,-5.5275 -2.94763,3.7125 0,0 z m 35,-0.5597 c -4.00215,-7.6784 -5.48095,4.8437 0,0 z m -81.58179,-1.214 c 3.06939,-9.249 -16.80061,-1.3938 0,0 z m 67.21313,-9.8654 c -8.11231,-22.0772 -4.63761,16.1862 0,0 z M 571.08179,1152 c 6.76538,-18.4154 -13.80418,5.0167 0,0 z M 508,1148.441 c -3.0681,-3.5451 -0.58939,4.928 0,0 z m 23,-1.941 c -3.00729,-8.6531 -1.84287,8.5981 0,0 z m 55,1 c -5.3633,-4.9032 -7.2488,6.0141 0,0 z m -59,-1.548 c -5.21187,-5.7666 -3.56051,5.3864 0,0 z m 31.81955,-2.1918 c -5.74947,-8.7731 -2.42641,8.0522 0,0 z m -45.78562,-3.1598 c -11.63319,-0.1513 8.34265,6.5651 0,0 z m 53.93935,0.9699 c -9.45657,14.959 -3.55592,7.1218 0,0 z M 603,1142 c -2.46629,-3.5623 -1.20936,3.6562 0,0 z m -24.03041,-2.75 c -1.22209,-6.6936 -1.48958,8.5221 0,0 z M 600,1139 c -2.55494,-3.5875 -2.55494,3.5875 0,0 z m -92,-1 c -2.46629,-3.5623 -1.20936,3.6562 0,0 z m 45.27776,-1.0114 c 7.36488,-19.9227 -13.90373,10.4355 0,0 z M 595.2,1134.8 c -5.77189,-2.3296 2.82266,5.1937 0,0 z m -13.2,-1.1119 c -9.37012,-12.1137 -8.17098,-0.083 0,0 z m -69.54271,-1.619 c 0.93765,-5.8667 -13.96961,4.7704 0,0 z m 40.52543,-6.9261 c -9.72219,-14.7398 -4.57277,6.0839 0,0 z M 523.5,1125 c -5.77573,-4.0601 -1.5573,3.1663 0,0 z m 11.5,-2.441 c -2.67986,-10.2089 -1.94678,8.8068 0,0 z m 29.75047,-0.309 c -7.69236,-6.1068 -4.63178,6.4773 0,0 z m -87.57921,-0.905 c -13.06124,-30.4336 -35.19585,-26.8546 0,0 z m 28.55791,0.051 c -3.95976,-2.1015 -0.93443,2.2534 0,0 z M 554,1119 c -4.60761,-3.795 -1.48566,2.8281 0,0 z m -27.44615,-2.0871 c -0.89427,-7.5439 -5.80731,4.1156 0,0 z M 539,1110.559 c -2.33371,-3.4347 -2.8802,1.9056 0,0 z m -1.65063,-3.6541 c 5.34272,-8.7891 -9.15101,7.2064 0,0 z m -13.84463,0.087 c 3.54078,-25.7499 -12.64364,1.9437 -2e-5,0 z M 499,1104.584 c -16.23187,-19.2078 -6.62832,3.6299 0,0 z m 12.44721,-1.6694 c -4.52018,-1.9024 -0.31995,4.8937 0,0 z M 545,1102.5 c -0.86541,-5.2821 -2.37355,5.247 0,0 z m -37.14859,-6.0441 c 4.61462,-13.7533 -12.25439,9.1952 0,0 z m 29.31823,-1.6791 c -8.03101,-16.5824 -8.43822,9.5161 0,0 z M 498,1091.5 c -5.24332,-5.755 -2.28378,4.5738 0,0 z m -18.18358,-2.1729 c -4.12222,-11.8687 -3.01089,11.616 0,0 z m 15.16827,-7.7514 c -3.43883,-15.1479 -8.23245,18.4716 0,0 z m 14.26531,3.3369 c 13.56593,-24.0285 -12.25863,13.5634 0,0 z M 470,1081.5 c -6.1246,-5.6252 -5.08154,5.3484 0,0 z m 53.75501,-0.25 c -8.50053,-10.1019 -7.78347,5.2869 0,0 z M 496.5,1073 c 6.62879,-11.3373 -11.32263,9.7639 0,0 z m 10.24986,0.4165 c -5.10203,-0.5951 -0.45442,5.1207 0,0 z m -24.29257,-2.3474 c -4.95622,-4.7729 -8.66586,4.9464 0,0 z M 141.66228,970.75 c -1.75023,0.99942 1.62308,5.50683 0,0 z m -32.53412,-13.4717 c -35.068561,-15.29698 -18.340206,-1.1402 0,0 z M 142.71025,956 c 11.94313,-27.28944 -44.621875,0.64451 0,0 z m -57.466481,-6.72231 c -23.221558,-37.51837 -32.332992,-27.09193 0.686641,1.07166 z m 25.277611,-4.30132 c 3.74625,-10.00187 -7.89702,7.30212 0,0 z M 149,932.7187 c -5.11807,-3.20437 -27.85015,-54.57298 -31.9682,-12.5401 -24.843325,3.92075 -4.7759,7.42805 19.6904,4.41575 -0.12084,7.58203 13.75368,28.62148 12.2778,8.12435 z m -25.77081,-11.88951 c -4.38995,-16.9763 12.05598,1.49586 0,0 z m -0.75035,14.9985 c 5.67319,-9.13693 -17.31054,2.26985 0,0 z m -23.91997,-3.26037 c 2.97894,-9.2982 -8.073862,5.04279 0,0 z m -9.093666,-11.67091 c 11.776476,-30.61545 -10.157925,-25.88875 -14.611772,-15.87856 35.532658,-7.96406 -7.04567,24.2597 14.611772,15.87856 z m 79.934696,-4.49637 c 1.72742,-9.87713 -9.35526,2.43851 0,0 z M 71,914.51143 c -7.263948,-17.39384 -4.870681,6.78437 0,0 z m 41.5,-0.34476 c -2.86559,-5.05027 -2.93691,5.51509 0,0 z M 285,905.96482 c -4.13593,-2.8794 -4.54121,6.78823 0,0 z M 71.362776,877.64938 c 41.278074,-34.66065 -15.023867,10.20776 0,0 z M 145.5,876 c -1.20936,-3.65615 -2.46629,3.56228 0,0 z m 7.28794,-7.70846 c -2.03898,-7.18126 -7.09486,11.90032 0,0 z m -33.67339,0.21869 c 8.25679,-20.76201 -38.840065,9.12872 0,0 z M 281.5,833.41667 c -20.06146,-14.77465 -48.67522,-23.05232 -15.27478,-2.51059 3.59102,1.24261 14.53952,8.2479 15.27478,2.51059 z m 10.3925,-9.06616 c -18.61202,-23.71218 -10.70484,15.09952 0,0 z M 275.75,817.70024 c -8.02382,-16.62231 -29.62655,4.58976 0,0 z m 92.25,-7.6587 c 14.44543,-21.50611 -12.88707,10.69065 0,0 z m -8.18358,-4.36866 c -0.91456,-9.33501 -4.97151,10.57244 0,0 z M 336,807.01435 c -3.81661,-24.65676 -14.8239,-3.77631 0,0 z m -81.58345,-8.37122 c -8.54092,-6.48464 0.58777,5.75753 0,0 z M 357,797.5 c -5.23908,-43.70991 -22.67432,-22.22917 0,0 z m -129.54271,-9.4309 c -0.70824,-7.64352 -9.23565,5.18156 0,0 z M 197,782.44098 c -3.15107,-5.35138 -2.24933,6.55729 0,0 z m 24,2.11804 c -2.3337,-3.43479 -2.88022,1.90558 0,0 z M 283,777.5 c 14.12075,-7.40676 39.99776,-30.43726 38,-7.5 25.04276,-23.59201 -21.30357,-11.55787 -28.10309,-28.56371 C 287.28536,746.68434 303.44082,769.53745 281,780 Z M 235,776 c -5.24284,-3.68475 -5.24284,3.68475 0,0 z m 119,-8.68555 c -9.41836,-12.41154 -13.61157,1.94878 0,0 z m -11.27083,-0.91862 c -3.9597,-2.10138 -0.93456,2.25342 0,0 z M 183,764 c -2.55494,-3.58745 -2.55494,3.58745 0,0 z m 201,-0.83333 c -2.37261,-5.15888 -5.96338,3.67787 0,0 z M 395,763 c -2.55494,-3.58745 -2.55494,3.58745 0,0 z m -177.69951,-4.34068 c -0.81931,-10.1457 -9.99284,5.01176 0,0 z M 378,759 c -1.20936,-3.65615 -2.46629,3.56228 0,0 z m -183.0643,-2.9391 c -1.52556,-11.45272 -12.60169,3.93096 0,0 z M 394.5,756 c -7.0016,-3.70341 -4.91149,3.7796 0,0 z m -49.61787,-2.90599 c 2.62773,-5.0642 -14.36199,2.67114 0,0 z M 401,753 c -1.20936,-3.65615 -2.46629,3.56228 0,0 z m -34,-1 c -6.49051,-1.37518 -4.26602,2.87284 0,0 z m -150,-0.86111 c 57.99613,-14.72632 119.90596,-18.83156 175.47941,-39.73831 -63.42964,12.14554 -127.32878,25.88285 -190.97941,38.38395 5.25184,-0.43847 10.28132,1.37677 15.5,1.35436 z M 174.5,749 c -4.49859,-5.65011 -4.49859,5.65011 0,0 z M 409,743.44098 c -4.47096,-5.24261 -2.09259,6.81894 0,0 z m -10,0.53427 c -11.08767,-11.34148 -3.23571,4.83734 0,0 z m -39.73097,-1.63119 c -6.6643,-1.82411 -1.20257,1.81729 0,0 z m 26.21285,-0.31474 c -6.98076,-3.84217 -21.62579,4.75145 0,0 z M 196.14601,738.3417 c 72.08845,-15.26423 144.56004,-28.85894 216.5027,-44.61979 7.02632,-48.7328 -26.65866,12.55428 -61.07886,1.81841 -49.2404,8.20065 -99.4774,26.13279 -148.14738,28.14213 -8.04384,-11.98105 -17.28118,-0.50343 -25.55083,-8.27794 1.84987,12.62029 -2.27921,32.72474 18.27437,22.93719 z m 195.58316,1.05413 c -3.9597,-2.10138 -0.93456,2.25342 0,0 z m -50.12144,-2.96905 c -8.84622,-13.45629 -9.11732,4.75603 0,0 z m 9.07538,0.38572 c -1.92502,0.4337 1.43251,4.38336 0,0 z m -27.44607,-0.61094 c -3.82067,-7.57716 -7.24195,6.37288 0,0 z M 171.66228,731.75 c -1.75023,0.99942 1.62308,5.50683 0,0 z M 385,729.11501 c -9.57437,-12.05166 -9.85118,4.25829 0,0 z m 9,-0.0332 c -1.85118,-9.76177 -15.75742,0.27291 0,0 z m 2.82694,-8.51789 c -2.37638,-8.82694 -3.50141,11.04885 0,0 z m 15.38142,-9.96018 c -5.4254,-9.05304 -13.15769,8.23026 0,0 z m 10.53829,-12.87651 c 5.94847,-6.0328 -9.60403,1.39015 0,0 z M 302,694 c -3.90318,-3.65313 -3.90318,3.65313 0,0 z m 115.68311,-9.1875 c -1.92502,0.4337 1.43251,4.38336 0,0 z m -242.85856,-5.03705 c 28.60658,-6.08517 -10.27419,-3.69188 0,0 z m -7.26319,-10.45823 c -5.45331,-4.04595 -2.25618,7.98292 0,0 z m 11.04561,1.95642 c 5.89223,-14.79718 -15.31291,5.26934 0,0 z M 164.25,666.65467 c 0.53165,-9.60688 -6.77667,2.74814 0,0 z m 74.1199,-6.71886 c 27.9746,-15.44656 66.9929,-15.67343 94.08255,-12.18581 9.07388,-1.03676 25.64202,-65.41097 46.55045,-18.74845 25.89861,40.04996 35.186,-62.59499 -10.5029,-27.03082 -48.44058,11.05567 -97.85172,18.69886 -145.65595,32.06739 -6.13684,8.26148 12.76884,38.11473 15.52585,25.89769 z m -57.95763,-3.07775 c -16.77191,-9.65666 -20.65679,16.70432 0,0 z m 227.68151,-2.16428 c -4.21319,2.7173 3.06572,6.74175 0,0 z m -70.98511,1.1304 c -6.03656,-8.05598 -19.23821,8.04473 0,0 z m 16.07535,-3.18021 c -7.4084,-9.01906 -16.89751,6.53714 0,0 z m -178.45485,0.75186 c -3.9597,-2.10138 -0.93456,2.25342 0,0 z m -13.03618,-5.1268 c -1.65823,1.2799 1.47998,6.59088 0,0 z m 14.71786,-1.14593 c -6.06994,-16.6833 -12.33906,17.43295 0,0 z M 161,638 c -2.41393,-6.95128 -2.41393,6.95128 0,0 z m 20.20034,-8.63397 C 252.20031,613.6198 324.1931,600.38428 394.5,582.459 c -74.7127,12.39346 -150.58735,30.81863 -225.31338,47.17331 -4.83797,5.21581 14.76426,-1.25284 12.01372,-0.26628 z M 403.66228,604.75 c -1.75023,0.99942 1.62308,5.50683 0,0 z m -0.91228,-19 c -3.19368,-4.48432 -3.19368,4.48432 0,0 z M 99,524 c -0.718684,-3.90899 -10.253074,3.71832 0,0 z m 14.76166,-3.68708 c -8.96109,-1.6727 -1.61654,1.65996 0,0 z M 129.5,517 c -6.04119,-2.96717 -7.69427,3.93358 0,0 z m 30.5,-6.38337 c -9.86899,-3.49129 -2.13037,2.21511 0,0 z m 30,-7.22604 c -9.25089,-1.68073 -9.26948,2.75705 0,0 z M 205,500 c -0.28605,-4.02176 -11.2718,4.06175 0,0 z m 16,-3.6135 c -2.91713,-2.07716 -14.5894,3.22189 0,0 z M 235,493 c 3.14716,-3.32452 -13.71903,3.57544 0,0 z m 15.5,-3 c 0.92747,-3.65772 -12.29361,3.1731 0,0 z m 14.26166,-3.68708 c -8.96109,-1.6727 -1.61654,1.65996 0,0 z M 280.5,483 c 1.24152,-3.69552 -13.33673,3.67133 0,0 z m 15.26166,-3.68708 c -8.96109,-1.6727 -1.61654,1.65996 0,0 z M 311.5,476 c -6.04119,-2.96717 -7.69427,3.93358 0,0 z m 13.5,-3 c 0.98632,-3.88995 -9.50766,3.49511 0,0 z m 14.75,-3.68933 c -7.74545,-1.55624 -1.48708,1.6085 0,0 z M 355.5,466 c -4.74235,-3.62756 -6.35977,3.76 0,0 z m 15.01532,-3.97522 c -7.131,-2.42036 -1.93846,4.15955 0,0 z M 400.5,456 c 4.69714,-3.16685 -12.58957,2.04907 0,0 z m 16.5,-4 c 3.14716,-3.32452 -13.71903,3.57544 0,0 z m 15,-3 c -0.71868,-3.90899 -10.25308,3.71832 0,0 z M 88.729167,411.39583 c -3.959687,-2.10138 -0.934565,2.25342 0,0 z m 15.407543,-4.18359 c -5.716542,-0.78609 -0.19529,2.73177 0,0 z M 118.25,404.33772 c -5.50683,-1.62308 -0.99942,1.75023 0,0 z m 29,-7 c -5.50683,-1.62308 -0.99942,1.75023 0,0 z m 14.01903,-2.99366 c -6.6643,-1.82411 -1.20257,1.81729 0,0 z M 176.25,390.33772 c -5.50683,-1.62308 -0.99942,1.75023 0,0 z m 14,-3 c -5.50683,-1.62308 -0.99942,1.75023 0,0 z m 14.24292,-3.32627 c -2.53077,-1.82881 -3.98123,3.22138 0,0 z M 219.25,380.33772 c -5.50683,-1.62308 -0.99942,1.75023 0,0 z m 14,-3 c -5.50683,-1.62308 -0.99942,1.75023 0,0 z m 16.01903,-3.99366 c -6.6643,-1.82411 -1.20257,1.81729 0,0 z m 14,-3 c -6.6643,-1.82411 -1.20257,1.81729 0,0 z M 277.5,367 c 5.74598,-2.74662 -9.84829,1.3439 0,0 z m 14.76903,-3.65594 c -6.6643,-1.82411 -1.20257,1.81729 0,0 z M 306,360.09362 c -5.28772,-1.71624 -5.27667,3.08004 0,0 z m 15.75,-3.78295 c -7.74545,-1.55624 -1.48708,1.6085 0,0 z M 350.5,350 c -3.72048,-3.75517 -5.46559,3.66091 0,0 z m 29,-7 c -3.44644,-4.75861 -5.96648,5.70856 0,0 z m 14.76903,-3.65594 c -6.6643,-1.82411 -1.20257,1.81729 0,0 z m 14,-3 c -6.6643,-1.82411 -1.20257,1.81729 0,0 z"
       id="path1" />
  </g>
  <metadata
     id="metadata1">
    <rdf:RDF>
      <cc:Work
         rdf:about="">
        <dc:title> GOES-16 Icon</dc:title>
        <dc:description>Icon representation of GOES-16</dc:description>
      </cc:Work>
    </rdf:RDF>
  </metadata>
</svg>
