<?xml version="1.0" encoding="UTF-8" standalone="no"?>
<!-- Created with Inkscape (http://www.inkscape.org/) -->

<svg
   version="1.1"
   id="svg1"
   width="512"
   height="319"
   viewBox="0 0 512 319"
   xmlns="http://www.w3.org/2000/svg"
   xmlns:svg="http://www.w3.org/2000/svg"
   xmlns:rdf="http://www.w3.org/1999/02/22-rdf-syntax-ns#"
   xmlns:cc="http://creativecommons.org/ns#"
   xmlns:dc="http://purl.org/dc/elements/1.1/">
  <title
     id="title1">Saocom-1a Icon SVG</title>
  <defs
     id="defs1" />
  <g
     id="g1">
    <path
       style="fill:currentColor"
       d="M 350,313.92093 C 321.74929,301.73818 291.99674,294.10863 263.66019,282.10248 238.82493,275.66517 215.89985,263.10837 190.87382,257.28322 160.04831,246.51345 131.16809,231.29878 100.6761,219.67465 80.688748,209.23024 58.556322,203.45136 38.721326,192.7395 28.53561,184.55137 -5.2978815,184.39253 1.8499414,169.44199 23.387996,173.90971 44.49956,158.76171 65.7375,155.35535 c 27.073448,-8.42698 54.79049,-15.33535 81.48665,-24.63506 -4.28724,-7.4274 -14.86143,-21.83296 -7.37147,-4.23964 C 119.89875,120.64848 100.09572,112.67533 81.447176,103.40826 66.937366,80.691355 55.66051,55.555441 41.609337,32.723996 38.25751,21.034759 12.775708,-9.7617331 40.458203,5.2648343 58.66623,14.874076 85.479347,15.52369 93.148583,37.93449 c 6.843468,14.096601 16.266137,30.240229 7.180047,7.826152 -5.577827,-9.390931 -16.570851,-27.139798 2.69037,-16.17798 16.44788,9.132527 40.80636,9.295649 50.89634,26.592149 2.80145,7.220274 22.38621,37.946145 11.45312,15.579369 -5.81951,-9.412062 -16.82907,-28.283082 2.54296,-16.88926 18.60852,10.339159 46.9858,10.186519 54.61559,33.63508 7.83599,8.97151 16.89464,48.53121 29.30313,32.79001 6.80549,-0.30171 8.4393,-22.370148 12.38556,-10.17388 -2.8275,14.94667 9.83584,4.33248 20.11305,5.11768 5.86097,-7.54349 5.93695,-40.738396 9.93501,-15.01795 -9.33018,16.63517 19.51988,10.66113 15.44051,-3.727424 8.35774,-11.570616 17.65157,9.031294 30.79886,-0.215968 -10.41802,17.756252 20.26813,11.810282 19.59945,30.900382 9.5409,0.61601 -2.45171,13.91593 1.87596,22.34041 -2.96823,9.1833 6.26907,13.68443 -2.15387,18.60523 1.30833,9.59841 15.16365,16.68896 12.92533,17.26106 11.19758,11.50747 33.49022,23.01747 48,32.10379 5.83148,6.5317 28.79857,17.36169 42.12894,24.51668 12.1629,14.21137 49.43166,11.87583 47.28018,31.73706 -38.84914,13.85662 -79.19314,23.71409 -118.59133,36.11885 -14.27187,3.19688 -27.70502,12.4896 -41.56779,3.065 z M 373,304 c -7.80324,-3.58796 3.08334,3.35011 0,0 z m -22.50708,-21.98855 c -0.74575,-2.33903 -4.2321,3.66689 0,0 z M 475,274.60699 c -3.01346,-3.29904 -3.04788,1.3575 0,0 z m -52,-14.21398 c -3.43342,-2.28444 -4.396,3.84199 0,0 z m 35.72917,-13.99718 c -4.93303,-1.70772 -0.7145,2.0576 0,0 z M 155.5,214 c -2.6969,-3.19215 -5.40103,1.24409 0,0 z M 93,181.39301 c -5.77903,-2.02344 -3.349567,3.28805 0,0 z m -53.557637,-8.29975 c -2.538528,-1.99057 -4.659629,3.0025 0,0 z M 174.95469,164.4454 c -11.41704,-9.26193 4.00912,5.73361 0,0 z M 140,143.61663 c -4.0982,-3.07687 -3.95904,1.45067 0,0 z m 60.37365,-7.06377 c -9.68214,-10.84179 1.08048,6.59572 1.70267,3.11759 z M 253,140.60699 c -3.31758,-3.51529 -4.45373,1.88332 0,0 z M 197.00278,131.25 c -5.05035,-16.87777 -9.64111,-4.26143 0,0 z m 101.47321,-3.36498 c 11.31386,-2.6359 -17.13818,-6.34727 -3.91346,0.93739 z M 284.5,123.75 c -9.9331,-7.45586 -7.4177,7.58798 0,0 z m -94,-2.75 c 0.0437,-3.36259 -3.07003,3.33131 0,0 z m -3.8549,-9.64752 c -3.42165,-9.20726 -23.92064,-42.089899 -10.97573,-14.622751 1.3008,3.843591 20.10503,34.526461 10.97573,14.622751 z m 158.28826,4.10128 c 2.8453,-4.65917 -15.39741,-4.63685 -4.18258,1.19273 z M 136.80804,114.25 c -1.63935,-8.97881 -17.18354,-24.332127 -5.65585,-6.36679 1.22611,1.40179 3.59776,10.68626 5.65585,6.36679 z m 174.85424,-2.5 c -1.73475,-0.32333 1.04987,6.68188 0,0 z M 306.5,113 c 0.0437,-3.36259 -3.07003,3.33131 0,0 z m 7.5,-11.40403 c -6.6047,-14.26922 -2.82505,8.65135 0,0 z M 318.5,97 c -6.03037,-3.721445 -4.41014,4.13202 0,0 z M 123.12409,94.733333 c -3.19166,-2.526427 2.77796,5.498297 0,0 z m 2.22496,-2.266112 c -5.16839,-7.319271 -15.52252,-35.203179 -18.98035,-30.79465 4.73796,9.492379 13.33152,28.534115 18.98035,30.79465 z"
       id="path1" />
  </g>
  <metadata
     id="metadata1">
    <rdf:RDF>
      <cc:Work
         rdf:about="">
        <dc:title>Saocom-1a Icon SVG</dc:title>
      </cc:Work>
    </rdf:RDF>
  </metadata>
</svg>
